<?xml version="1.0" encoding="utf-8" standalone="no"?>
<!DOCTYPE svg PUBLIC "-//W3C//DTD SVG 1.1//EN"
  "http://www.w3.org/Graphics/SVG/1.1/DTD/svg11.dtd">
<svg xmlns:xlink="http://www.w3.org/1999/xlink" width="711.302173pt" height="708.798125pt" viewBox="0 0 711.302173 708.798125" xmlns="http://www.w3.org/2000/svg" version="1.1">
 <metadata>
  <rdf:RDF xmlns:dc="http://purl.org/dc/elements/1.1/" xmlns:cc="http://creativecommons.org/ns#" xmlns:rdf="http://www.w3.org/1999/02/22-rdf-syntax-ns#">
   <cc:Work>
    <dc:type rdf:resource="http://purl.org/dc/dcmitype/StillImage"/>
    <dc:date>2023-07-16T16:13:30.477985</dc:date>
    <dc:format>image/svg+xml</dc:format>
    <dc:creator>
     <cc:Agent>
      <dc:title>Matplotlib v3.7.1, https://matplotlib.org/</dc:title>
     </cc:Agent>
    </dc:creator>
   </cc:Work>
  </rdf:RDF>
 </metadata>
 <defs>
  <style type="text/css">*{stroke-linejoin: round; stroke-linecap: butt}</style>
 </defs>
 <g id="figure_1">
  <g id="patch_1">
   <path d="M 0 708.798125 
L 711.302173 708.798125 
L 711.302173 0 
L 0 0 
z
" style="fill: #ffffff"/>
  </g>
  <g id="axes_1">
   <g id="patch_2">
    <path d="M 30.103125 342.2 
L 704.102173 342.2 
L 704.102173 43.44 
L 30.103125 43.44 
z
" style="fill: #ffffff"/>
   </g>
   <g id="matplotlib.axis_1">
    <g id="xtick_1">
     <g id="line2d_1">
      <defs>
       <path id="me85ca30d82" d="M 0 0 
L 0 3.5 
" style="stroke: #000000; stroke-width: 0.8"/>
      </defs>
      <g>
       <use xlink:href="#me85ca30d82" x="77.614594" y="342.2" style="stroke: #000000; stroke-width: 0.8"/>
      </g>
     </g>
     <g id="text_1">
      <!-- 2000 -->
      <g transform="translate(64.889594 356.798437) scale(0.1 -0.1)">
       <defs>
        <path id="DejaVuSans-32" d="M 1228 531 
L 3431 531 
L 3431 0 
L 469 0 
L 469 531 
Q 828 903 1448 1529 
Q 2069 2156 2228 2338 
Q 2531 2678 2651 2914 
Q 2772 3150 2772 3378 
Q 2772 3750 2511 3984 
Q 2250 4219 1831 4219 
Q 1534 4219 1204 4116 
Q 875 4013 500 3803 
L 500 4441 
Q 881 4594 1212 4672 
Q 1544 4750 1819 4750 
Q 2544 4750 2975 4387 
Q 3406 4025 3406 3419 
Q 3406 3131 3298 2873 
Q 3191 2616 2906 2266 
Q 2828 2175 2409 1742 
Q 1991 1309 1228 531 
z
" transform="scale(0.015625)"/>
        <path id="DejaVuSans-30" d="M 2034 4250 
Q 1547 4250 1301 3770 
Q 1056 3291 1056 2328 
Q 1056 1369 1301 889 
Q 1547 409 2034 409 
Q 2525 409 2770 889 
Q 3016 1369 3016 2328 
Q 3016 3291 2770 3770 
Q 2525 4250 2034 4250 
z
M 2034 4750 
Q 2819 4750 3233 4129 
Q 3647 3509 3647 2328 
Q 3647 1150 3233 529 
Q 2819 -91 2034 -91 
Q 1250 -91 836 529 
Q 422 1150 422 2328 
Q 422 3509 836 4129 
Q 1250 4750 2034 4750 
z
" transform="scale(0.015625)"/>
       </defs>
       <use xlink:href="#DejaVuSans-32"/>
       <use xlink:href="#DejaVuSans-30" x="63.623047"/>
       <use xlink:href="#DejaVuSans-30" x="127.246094"/>
       <use xlink:href="#DejaVuSans-30" x="190.869141"/>
      </g>
     </g>
    </g>
    <g id="xtick_2">
     <g id="line2d_2">
      <g>
       <use xlink:href="#me85ca30d82" x="145.861054" y="342.2" style="stroke: #000000; stroke-width: 0.8"/>
      </g>
     </g>
     <g id="text_2">
      <!-- 2001 -->
      <g transform="translate(133.136054 356.798437) scale(0.1 -0.1)">
       <defs>
        <path id="DejaVuSans-31" d="M 794 531 
L 1825 531 
L 1825 4091 
L 703 3866 
L 703 4441 
L 1819 4666 
L 2450 4666 
L 2450 531 
L 3481 531 
L 3481 0 
L 794 0 
L 794 531 
z
" transform="scale(0.015625)"/>
       </defs>
       <use xlink:href="#DejaVuSans-32"/>
       <use xlink:href="#DejaVuSans-30" x="63.623047"/>
       <use xlink:href="#DejaVuSans-30" x="127.246094"/>
       <use xlink:href="#DejaVuSans-31" x="190.869141"/>
      </g>
     </g>
    </g>
    <g id="xtick_3">
     <g id="line2d_3">
      <g>
       <use xlink:href="#me85ca30d82" x="213.921047" y="342.2" style="stroke: #000000; stroke-width: 0.8"/>
      </g>
     </g>
     <g id="text_3">
      <!-- 2002 -->
      <g transform="translate(201.196047 356.798437) scale(0.1 -0.1)">
       <use xlink:href="#DejaVuSans-32"/>
       <use xlink:href="#DejaVuSans-30" x="63.623047"/>
       <use xlink:href="#DejaVuSans-30" x="127.246094"/>
       <use xlink:href="#DejaVuSans-32" x="190.869141"/>
      </g>
     </g>
    </g>
    <g id="xtick_4">
     <g id="line2d_4">
      <g>
       <use xlink:href="#me85ca30d82" x="281.981041" y="342.2" style="stroke: #000000; stroke-width: 0.8"/>
      </g>
     </g>
     <g id="text_4">
      <!-- 2003 -->
      <g transform="translate(269.256041 356.798437) scale(0.1 -0.1)">
       <defs>
        <path id="DejaVuSans-33" d="M 2597 2516 
Q 3050 2419 3304 2112 
Q 3559 1806 3559 1356 
Q 3559 666 3084 287 
Q 2609 -91 1734 -91 
Q 1441 -91 1130 -33 
Q 819 25 488 141 
L 488 750 
Q 750 597 1062 519 
Q 1375 441 1716 441 
Q 2309 441 2620 675 
Q 2931 909 2931 1356 
Q 2931 1769 2642 2001 
Q 2353 2234 1838 2234 
L 1294 2234 
L 1294 2753 
L 1863 2753 
Q 2328 2753 2575 2939 
Q 2822 3125 2822 3475 
Q 2822 3834 2567 4026 
Q 2313 4219 1838 4219 
Q 1578 4219 1281 4162 
Q 984 4106 628 3988 
L 628 4550 
Q 988 4650 1302 4700 
Q 1616 4750 1894 4750 
Q 2613 4750 3031 4423 
Q 3450 4097 3450 3541 
Q 3450 3153 3228 2886 
Q 3006 2619 2597 2516 
z
" transform="scale(0.015625)"/>
       </defs>
       <use xlink:href="#DejaVuSans-32"/>
       <use xlink:href="#DejaVuSans-30" x="63.623047"/>
       <use xlink:href="#DejaVuSans-30" x="127.246094"/>
       <use xlink:href="#DejaVuSans-33" x="190.869141"/>
      </g>
     </g>
    </g>
    <g id="xtick_5">
     <g id="line2d_5">
      <g>
       <use xlink:href="#me85ca30d82" x="350.041034" y="342.2" style="stroke: #000000; stroke-width: 0.8"/>
      </g>
     </g>
     <g id="text_5">
      <!-- 2004 -->
      <g transform="translate(337.316034 356.798437) scale(0.1 -0.1)">
       <defs>
        <path id="DejaVuSans-34" d="M 2419 4116 
L 825 1625 
L 2419 1625 
L 2419 4116 
z
M 2253 4666 
L 3047 4666 
L 3047 1625 
L 3713 1625 
L 3713 1100 
L 3047 1100 
L 3047 0 
L 2419 0 
L 2419 1100 
L 313 1100 
L 313 1709 
L 2253 4666 
z
" transform="scale(0.015625)"/>
       </defs>
       <use xlink:href="#DejaVuSans-32"/>
       <use xlink:href="#DejaVuSans-30" x="63.623047"/>
       <use xlink:href="#DejaVuSans-30" x="127.246094"/>
       <use xlink:href="#DejaVuSans-34" x="190.869141"/>
      </g>
     </g>
    </g>
    <g id="xtick_6">
     <g id="line2d_6">
      <g>
       <use xlink:href="#me85ca30d82" x="418.287493" y="342.2" style="stroke: #000000; stroke-width: 0.8"/>
      </g>
     </g>
     <g id="text_6">
      <!-- 2005 -->
      <g transform="translate(405.562493 356.798437) scale(0.1 -0.1)">
       <defs>
        <path id="DejaVuSans-35" d="M 691 4666 
L 3169 4666 
L 3169 4134 
L 1269 4134 
L 1269 2991 
Q 1406 3038 1543 3061 
Q 1681 3084 1819 3084 
Q 2600 3084 3056 2656 
Q 3513 2228 3513 1497 
Q 3513 744 3044 326 
Q 2575 -91 1722 -91 
Q 1428 -91 1123 -41 
Q 819 9 494 109 
L 494 744 
Q 775 591 1075 516 
Q 1375 441 1709 441 
Q 2250 441 2565 725 
Q 2881 1009 2881 1497 
Q 2881 1984 2565 2268 
Q 2250 2553 1709 2553 
Q 1456 2553 1204 2497 
Q 953 2441 691 2322 
L 691 4666 
z
" transform="scale(0.015625)"/>
       </defs>
       <use xlink:href="#DejaVuSans-32"/>
       <use xlink:href="#DejaVuSans-30" x="63.623047"/>
       <use xlink:href="#DejaVuSans-30" x="127.246094"/>
       <use xlink:href="#DejaVuSans-35" x="190.869141"/>
      </g>
     </g>
    </g>
    <g id="xtick_7">
     <g id="line2d_7">
      <g>
       <use xlink:href="#me85ca30d82" x="486.347487" y="342.2" style="stroke: #000000; stroke-width: 0.8"/>
      </g>
     </g>
     <g id="text_7">
      <!-- 2006 -->
      <g transform="translate(473.622487 356.798437) scale(0.1 -0.1)">
       <defs>
        <path id="DejaVuSans-36" d="M 2113 2584 
Q 1688 2584 1439 2293 
Q 1191 2003 1191 1497 
Q 1191 994 1439 701 
Q 1688 409 2113 409 
Q 2538 409 2786 701 
Q 3034 994 3034 1497 
Q 3034 2003 2786 2293 
Q 2538 2584 2113 2584 
z
M 3366 4563 
L 3366 3988 
Q 3128 4100 2886 4159 
Q 2644 4219 2406 4219 
Q 1781 4219 1451 3797 
Q 1122 3375 1075 2522 
Q 1259 2794 1537 2939 
Q 1816 3084 2150 3084 
Q 2853 3084 3261 2657 
Q 3669 2231 3669 1497 
Q 3669 778 3244 343 
Q 2819 -91 2113 -91 
Q 1303 -91 875 529 
Q 447 1150 447 2328 
Q 447 3434 972 4092 
Q 1497 4750 2381 4750 
Q 2619 4750 2861 4703 
Q 3103 4656 3366 4563 
z
" transform="scale(0.015625)"/>
       </defs>
       <use xlink:href="#DejaVuSans-32"/>
       <use xlink:href="#DejaVuSans-30" x="63.623047"/>
       <use xlink:href="#DejaVuSans-30" x="127.246094"/>
       <use xlink:href="#DejaVuSans-36" x="190.869141"/>
      </g>
     </g>
    </g>
    <g id="xtick_8">
     <g id="line2d_8">
      <g>
       <use xlink:href="#me85ca30d82" x="554.40748" y="342.2" style="stroke: #000000; stroke-width: 0.8"/>
      </g>
     </g>
     <g id="text_8">
      <!-- 2007 -->
      <g transform="translate(541.68248 356.798437) scale(0.1 -0.1)">
       <defs>
        <path id="DejaVuSans-37" d="M 525 4666 
L 3525 4666 
L 3525 4397 
L 1831 0 
L 1172 0 
L 2766 4134 
L 525 4134 
L 525 4666 
z
" transform="scale(0.015625)"/>
       </defs>
       <use xlink:href="#DejaVuSans-32"/>
       <use xlink:href="#DejaVuSans-30" x="63.623047"/>
       <use xlink:href="#DejaVuSans-30" x="127.246094"/>
       <use xlink:href="#DejaVuSans-37" x="190.869141"/>
      </g>
     </g>
    </g>
    <g id="xtick_9">
     <g id="line2d_9">
      <g>
       <use xlink:href="#me85ca30d82" x="622.467474" y="342.2" style="stroke: #000000; stroke-width: 0.8"/>
      </g>
     </g>
     <g id="text_9">
      <!-- 2008 -->
      <g transform="translate(609.742474 356.798437) scale(0.1 -0.1)">
       <defs>
        <path id="DejaVuSans-38" d="M 2034 2216 
Q 1584 2216 1326 1975 
Q 1069 1734 1069 1313 
Q 1069 891 1326 650 
Q 1584 409 2034 409 
Q 2484 409 2743 651 
Q 3003 894 3003 1313 
Q 3003 1734 2745 1975 
Q 2488 2216 2034 2216 
z
M 1403 2484 
Q 997 2584 770 2862 
Q 544 3141 544 3541 
Q 544 4100 942 4425 
Q 1341 4750 2034 4750 
Q 2731 4750 3128 4425 
Q 3525 4100 3525 3541 
Q 3525 3141 3298 2862 
Q 3072 2584 2669 2484 
Q 3125 2378 3379 2068 
Q 3634 1759 3634 1313 
Q 3634 634 3220 271 
Q 2806 -91 2034 -91 
Q 1263 -91 848 271 
Q 434 634 434 1313 
Q 434 1759 690 2068 
Q 947 2378 1403 2484 
z
M 1172 3481 
Q 1172 3119 1398 2916 
Q 1625 2713 2034 2713 
Q 2441 2713 2670 2916 
Q 2900 3119 2900 3481 
Q 2900 3844 2670 4047 
Q 2441 4250 2034 4250 
Q 1625 4250 1398 4047 
Q 1172 3844 1172 3481 
z
" transform="scale(0.015625)"/>
       </defs>
       <use xlink:href="#DejaVuSans-32"/>
       <use xlink:href="#DejaVuSans-30" x="63.623047"/>
       <use xlink:href="#DejaVuSans-30" x="127.246094"/>
       <use xlink:href="#DejaVuSans-38" x="190.869141"/>
      </g>
     </g>
    </g>
    <g id="xtick_10">
     <g id="line2d_10">
      <g>
       <use xlink:href="#me85ca30d82" x="690.713933" y="342.2" style="stroke: #000000; stroke-width: 0.8"/>
      </g>
     </g>
     <g id="text_10">
      <!-- 2009 -->
      <g transform="translate(677.988933 356.798437) scale(0.1 -0.1)">
       <defs>
        <path id="DejaVuSans-39" d="M 703 97 
L 703 672 
Q 941 559 1184 500 
Q 1428 441 1663 441 
Q 2288 441 2617 861 
Q 2947 1281 2994 2138 
Q 2813 1869 2534 1725 
Q 2256 1581 1919 1581 
Q 1219 1581 811 2004 
Q 403 2428 403 3163 
Q 403 3881 828 4315 
Q 1253 4750 1959 4750 
Q 2769 4750 3195 4129 
Q 3622 3509 3622 2328 
Q 3622 1225 3098 567 
Q 2575 -91 1691 -91 
Q 1453 -91 1209 -44 
Q 966 3 703 97 
z
M 1959 2075 
Q 2384 2075 2632 2365 
Q 2881 2656 2881 3163 
Q 2881 3666 2632 3958 
Q 2384 4250 1959 4250 
Q 1534 4250 1286 3958 
Q 1038 3666 1038 3163 
Q 1038 2656 1286 2365 
Q 1534 2075 1959 2075 
z
" transform="scale(0.015625)"/>
       </defs>
       <use xlink:href="#DejaVuSans-32"/>
       <use xlink:href="#DejaVuSans-30" x="63.623047"/>
       <use xlink:href="#DejaVuSans-30" x="127.246094"/>
       <use xlink:href="#DejaVuSans-39" x="190.869141"/>
      </g>
     </g>
    </g>
   </g>
   <g id="matplotlib.axis_2">
    <g id="ytick_1">
     <g id="line2d_11">
      <defs>
       <path id="m4bc5509c45" d="M 0 0 
L -3.5 0 
" style="stroke: #000000; stroke-width: 0.8"/>
      </defs>
      <g>
       <use xlink:href="#m4bc5509c45" x="30.103125" y="328.62" style="stroke: #000000; stroke-width: 0.8"/>
      </g>
     </g>
     <g id="text_11">
      <!-- 0.0 -->
      <g transform="translate(7.2 332.419219) scale(0.1 -0.1)">
       <defs>
        <path id="DejaVuSans-2e" d="M 684 794 
L 1344 794 
L 1344 0 
L 684 0 
L 684 794 
z
" transform="scale(0.015625)"/>
       </defs>
       <use xlink:href="#DejaVuSans-30"/>
       <use xlink:href="#DejaVuSans-2e" x="63.623047"/>
       <use xlink:href="#DejaVuSans-30" x="95.410156"/>
      </g>
     </g>
    </g>
    <g id="ytick_2">
     <g id="line2d_12">
      <g>
       <use xlink:href="#m4bc5509c45" x="30.103125" y="282.492538" style="stroke: #000000; stroke-width: 0.8"/>
      </g>
     </g>
     <g id="text_12">
      <!-- 0.5 -->
      <g transform="translate(7.2 286.291756) scale(0.1 -0.1)">
       <use xlink:href="#DejaVuSans-30"/>
       <use xlink:href="#DejaVuSans-2e" x="63.623047"/>
       <use xlink:href="#DejaVuSans-35" x="95.410156"/>
      </g>
     </g>
    </g>
    <g id="ytick_3">
     <g id="line2d_13">
      <g>
       <use xlink:href="#m4bc5509c45" x="30.103125" y="236.365075" style="stroke: #000000; stroke-width: 0.8"/>
      </g>
     </g>
     <g id="text_13">
      <!-- 1.0 -->
      <g transform="translate(7.2 240.164294) scale(0.1 -0.1)">
       <use xlink:href="#DejaVuSans-31"/>
       <use xlink:href="#DejaVuSans-2e" x="63.623047"/>
       <use xlink:href="#DejaVuSans-30" x="95.410156"/>
      </g>
     </g>
    </g>
    <g id="ytick_4">
     <g id="line2d_14">
      <g>
       <use xlink:href="#m4bc5509c45" x="30.103125" y="190.237612" style="stroke: #000000; stroke-width: 0.8"/>
      </g>
     </g>
     <g id="text_14">
      <!-- 1.5 -->
      <g transform="translate(7.2 194.036831) scale(0.1 -0.1)">
       <use xlink:href="#DejaVuSans-31"/>
       <use xlink:href="#DejaVuSans-2e" x="63.623047"/>
       <use xlink:href="#DejaVuSans-35" x="95.410156"/>
      </g>
     </g>
    </g>
    <g id="ytick_5">
     <g id="line2d_15">
      <g>
       <use xlink:href="#m4bc5509c45" x="30.103125" y="144.11015" style="stroke: #000000; stroke-width: 0.8"/>
      </g>
     </g>
     <g id="text_15">
      <!-- 2.0 -->
      <g transform="translate(7.2 147.909368) scale(0.1 -0.1)">
       <use xlink:href="#DejaVuSans-32"/>
       <use xlink:href="#DejaVuSans-2e" x="63.623047"/>
       <use xlink:href="#DejaVuSans-30" x="95.410156"/>
      </g>
     </g>
    </g>
    <g id="ytick_6">
     <g id="line2d_16">
      <g>
       <use xlink:href="#m4bc5509c45" x="30.103125" y="97.982687" style="stroke: #000000; stroke-width: 0.8"/>
      </g>
     </g>
     <g id="text_16">
      <!-- 2.5 -->
      <g transform="translate(7.2 101.781906) scale(0.1 -0.1)">
       <use xlink:href="#DejaVuSans-32"/>
       <use xlink:href="#DejaVuSans-2e" x="63.623047"/>
       <use xlink:href="#DejaVuSans-35" x="95.410156"/>
      </g>
     </g>
    </g>
    <g id="ytick_7">
     <g id="line2d_17">
      <g>
       <use xlink:href="#m4bc5509c45" x="30.103125" y="51.855224" style="stroke: #000000; stroke-width: 0.8"/>
      </g>
     </g>
     <g id="text_17">
      <!-- 3.0 -->
      <g transform="translate(7.2 55.654443) scale(0.1 -0.1)">
       <use xlink:href="#DejaVuSans-33"/>
       <use xlink:href="#DejaVuSans-2e" x="63.623047"/>
       <use xlink:href="#DejaVuSans-30" x="95.410156"/>
      </g>
     </g>
    </g>
    <g id="text_18">
     <!-- 1e6 -->
     <g transform="translate(30.103125 40.44) scale(0.1 -0.1)">
      <defs>
       <path id="DejaVuSans-65" d="M 3597 1894 
L 3597 1613 
L 953 1613 
Q 991 1019 1311 708 
Q 1631 397 2203 397 
Q 2534 397 2845 478 
Q 3156 559 3463 722 
L 3463 178 
Q 3153 47 2828 -22 
Q 2503 -91 2169 -91 
Q 1331 -91 842 396 
Q 353 884 353 1716 
Q 353 2575 817 3079 
Q 1281 3584 2069 3584 
Q 2775 3584 3186 3129 
Q 3597 2675 3597 1894 
z
M 3022 2063 
Q 3016 2534 2758 2815 
Q 2500 3097 2075 3097 
Q 1594 3097 1305 2825 
Q 1016 2553 972 2059 
L 3022 2063 
z
" transform="scale(0.015625)"/>
      </defs>
      <use xlink:href="#DejaVuSans-31"/>
      <use xlink:href="#DejaVuSans-65" x="63.623047"/>
      <use xlink:href="#DejaVuSans-36" x="125.146484"/>
     </g>
    </g>
   </g>
   <g id="line2d_18">
    <path d="M 60.739445 328.619998 
L 673.465853 328.619999 
L 673.465853 328.619999 
" clip-path="url(#pb7d98d9ff7)" style="fill: none; stroke: #1f77b4; stroke-width: 1.5; stroke-linecap: square"/>
   </g>
   <g id="line2d_19">
    <path d="M 60.739445 328.619998 
L 118.916755 328.511953 
L 125.443056 328.273839 
L 129.358836 327.924425 
L 132.342288 327.437268 
L 134.579877 326.860224 
L 136.444534 326.17142 
L 138.122726 325.326418 
L 139.614452 324.337207 
L 141.106177 323.057062 
L 142.411438 321.634773 
L 143.716698 319.860822 
L 145.021958 317.655028 
L 146.140752 315.349271 
L 147.259547 312.588465 
L 148.378341 309.296251 
L 149.497136 305.389469 
L 150.802396 299.937085 
L 152.107656 293.386537 
L 153.412916 285.604876 
L 154.718176 276.48366 
L 156.209902 264.339423 
L 157.701628 250.374934 
L 159.566285 230.619608 
L 161.99034 202.243499 
L 166.279052 151.609423 
L 168.143709 132.243819 
L 169.821901 117.075141 
L 171.313627 105.542435 
L 172.805352 95.818255 
L 174.110613 88.693844 
L 175.415873 82.733191 
L 176.721133 77.797146 
L 178.026393 73.744215 
L 179.331653 70.43961 
L 180.636913 67.760454 
L 181.942174 65.598424 
L 183.247434 63.860265 
L 184.552694 62.466987 
L 186.04442 61.213218 
L 187.536146 60.244546 
L 189.214337 59.417266 
L 191.078995 58.74292 
L 193.316583 58.178105 
L 196.113569 57.724276 
L 199.656418 57.39486 
L 204.690993 57.173036 
L 213.268417 57.053539 
L 237.881894 57.020958 
L 673.465853 57.02054 
L 673.465853 57.02054 
" clip-path="url(#pb7d98d9ff7)" style="fill: none; stroke: #ff7f0e; stroke-width: 1.5; stroke-linecap: square"/>
   </g>
   <g id="patch_3">
    <path d="M 30.103125 342.2 
L 30.103125 43.44 
" style="fill: none; stroke: #000000; stroke-width: 0.8; stroke-linejoin: miter; stroke-linecap: square"/>
   </g>
   <g id="patch_4">
    <path d="M 704.102173 342.2 
L 704.102173 43.44 
" style="fill: none; stroke: #000000; stroke-width: 0.8; stroke-linejoin: miter; stroke-linecap: square"/>
   </g>
   <g id="patch_5">
    <path d="M 30.103125 342.2 
L 704.102173 342.2 
" style="fill: none; stroke: #000000; stroke-width: 0.8; stroke-linejoin: miter; stroke-linecap: square"/>
   </g>
   <g id="patch_6">
    <path d="M 30.103125 43.44 
L 704.102173 43.44 
" style="fill: none; stroke: #000000; stroke-width: 0.8; stroke-linejoin: miter; stroke-linecap: square"/>
   </g>
   <g id="text_19">
    <!-- 1 transformation(s) -->
    <g transform="translate(308.987962 37.44) scale(0.12 -0.12)">
     <defs>
      <path id="DejaVuSans-20" transform="scale(0.015625)"/>
      <path id="DejaVuSans-74" d="M 1172 4494 
L 1172 3500 
L 2356 3500 
L 2356 3053 
L 1172 3053 
L 1172 1153 
Q 1172 725 1289 603 
Q 1406 481 1766 481 
L 2356 481 
L 2356 0 
L 1766 0 
Q 1100 0 847 248 
Q 594 497 594 1153 
L 594 3053 
L 172 3053 
L 172 3500 
L 594 3500 
L 594 4494 
L 1172 4494 
z
" transform="scale(0.015625)"/>
      <path id="DejaVuSans-72" d="M 2631 2963 
Q 2534 3019 2420 3045 
Q 2306 3072 2169 3072 
Q 1681 3072 1420 2755 
Q 1159 2438 1159 1844 
L 1159 0 
L 581 0 
L 581 3500 
L 1159 3500 
L 1159 2956 
Q 1341 3275 1631 3429 
Q 1922 3584 2338 3584 
Q 2397 3584 2469 3576 
Q 2541 3569 2628 3553 
L 2631 2963 
z
" transform="scale(0.015625)"/>
      <path id="DejaVuSans-61" d="M 2194 1759 
Q 1497 1759 1228 1600 
Q 959 1441 959 1056 
Q 959 750 1161 570 
Q 1363 391 1709 391 
Q 2188 391 2477 730 
Q 2766 1069 2766 1631 
L 2766 1759 
L 2194 1759 
z
M 3341 1997 
L 3341 0 
L 2766 0 
L 2766 531 
Q 2569 213 2275 61 
Q 1981 -91 1556 -91 
Q 1019 -91 701 211 
Q 384 513 384 1019 
Q 384 1609 779 1909 
Q 1175 2209 1959 2209 
L 2766 2209 
L 2766 2266 
Q 2766 2663 2505 2880 
Q 2244 3097 1772 3097 
Q 1472 3097 1187 3025 
Q 903 2953 641 2809 
L 641 3341 
Q 956 3463 1253 3523 
Q 1550 3584 1831 3584 
Q 2591 3584 2966 3190 
Q 3341 2797 3341 1997 
z
" transform="scale(0.015625)"/>
      <path id="DejaVuSans-6e" d="M 3513 2113 
L 3513 0 
L 2938 0 
L 2938 2094 
Q 2938 2591 2744 2837 
Q 2550 3084 2163 3084 
Q 1697 3084 1428 2787 
Q 1159 2491 1159 1978 
L 1159 0 
L 581 0 
L 581 3500 
L 1159 3500 
L 1159 2956 
Q 1366 3272 1645 3428 
Q 1925 3584 2291 3584 
Q 2894 3584 3203 3211 
Q 3513 2838 3513 2113 
z
" transform="scale(0.015625)"/>
      <path id="DejaVuSans-73" d="M 2834 3397 
L 2834 2853 
Q 2591 2978 2328 3040 
Q 2066 3103 1784 3103 
Q 1356 3103 1142 2972 
Q 928 2841 928 2578 
Q 928 2378 1081 2264 
Q 1234 2150 1697 2047 
L 1894 2003 
Q 2506 1872 2764 1633 
Q 3022 1394 3022 966 
Q 3022 478 2636 193 
Q 2250 -91 1575 -91 
Q 1294 -91 989 -36 
Q 684 19 347 128 
L 347 722 
Q 666 556 975 473 
Q 1284 391 1588 391 
Q 1994 391 2212 530 
Q 2431 669 2431 922 
Q 2431 1156 2273 1281 
Q 2116 1406 1581 1522 
L 1381 1569 
Q 847 1681 609 1914 
Q 372 2147 372 2553 
Q 372 3047 722 3315 
Q 1072 3584 1716 3584 
Q 2034 3584 2315 3537 
Q 2597 3491 2834 3397 
z
" transform="scale(0.015625)"/>
      <path id="DejaVuSans-66" d="M 2375 4863 
L 2375 4384 
L 1825 4384 
Q 1516 4384 1395 4259 
Q 1275 4134 1275 3809 
L 1275 3500 
L 2222 3500 
L 2222 3053 
L 1275 3053 
L 1275 0 
L 697 0 
L 697 3053 
L 147 3053 
L 147 3500 
L 697 3500 
L 697 3744 
Q 697 4328 969 4595 
Q 1241 4863 1831 4863 
L 2375 4863 
z
" transform="scale(0.015625)"/>
      <path id="DejaVuSans-6f" d="M 1959 3097 
Q 1497 3097 1228 2736 
Q 959 2375 959 1747 
Q 959 1119 1226 758 
Q 1494 397 1959 397 
Q 2419 397 2687 759 
Q 2956 1122 2956 1747 
Q 2956 2369 2687 2733 
Q 2419 3097 1959 3097 
z
M 1959 3584 
Q 2709 3584 3137 3096 
Q 3566 2609 3566 1747 
Q 3566 888 3137 398 
Q 2709 -91 1959 -91 
Q 1206 -91 779 398 
Q 353 888 353 1747 
Q 353 2609 779 3096 
Q 1206 3584 1959 3584 
z
" transform="scale(0.015625)"/>
      <path id="DejaVuSans-6d" d="M 3328 2828 
Q 3544 3216 3844 3400 
Q 4144 3584 4550 3584 
Q 5097 3584 5394 3201 
Q 5691 2819 5691 2113 
L 5691 0 
L 5113 0 
L 5113 2094 
Q 5113 2597 4934 2840 
Q 4756 3084 4391 3084 
Q 3944 3084 3684 2787 
Q 3425 2491 3425 1978 
L 3425 0 
L 2847 0 
L 2847 2094 
Q 2847 2600 2669 2842 
Q 2491 3084 2119 3084 
Q 1678 3084 1418 2786 
Q 1159 2488 1159 1978 
L 1159 0 
L 581 0 
L 581 3500 
L 1159 3500 
L 1159 2956 
Q 1356 3278 1631 3431 
Q 1906 3584 2284 3584 
Q 2666 3584 2933 3390 
Q 3200 3197 3328 2828 
z
" transform="scale(0.015625)"/>
      <path id="DejaVuSans-69" d="M 603 3500 
L 1178 3500 
L 1178 0 
L 603 0 
L 603 3500 
z
M 603 4863 
L 1178 4863 
L 1178 4134 
L 603 4134 
L 603 4863 
z
" transform="scale(0.015625)"/>
      <path id="DejaVuSans-28" d="M 1984 4856 
Q 1566 4138 1362 3434 
Q 1159 2731 1159 2009 
Q 1159 1288 1364 580 
Q 1569 -128 1984 -844 
L 1484 -844 
Q 1016 -109 783 600 
Q 550 1309 550 2009 
Q 550 2706 781 3412 
Q 1013 4119 1484 4856 
L 1984 4856 
z
" transform="scale(0.015625)"/>
      <path id="DejaVuSans-29" d="M 513 4856 
L 1013 4856 
Q 1481 4119 1714 3412 
Q 1947 2706 1947 2009 
Q 1947 1309 1714 600 
Q 1481 -109 1013 -844 
L 513 -844 
Q 928 -128 1133 580 
Q 1338 1288 1338 2009 
Q 1338 2731 1133 3434 
Q 928 4138 513 4856 
z
" transform="scale(0.015625)"/>
     </defs>
     <use xlink:href="#DejaVuSans-31"/>
     <use xlink:href="#DejaVuSans-20" x="63.623047"/>
     <use xlink:href="#DejaVuSans-74" x="95.410156"/>
     <use xlink:href="#DejaVuSans-72" x="134.619141"/>
     <use xlink:href="#DejaVuSans-61" x="175.732422"/>
     <use xlink:href="#DejaVuSans-6e" x="237.011719"/>
     <use xlink:href="#DejaVuSans-73" x="300.390625"/>
     <use xlink:href="#DejaVuSans-66" x="352.490234"/>
     <use xlink:href="#DejaVuSans-6f" x="387.695312"/>
     <use xlink:href="#DejaVuSans-72" x="448.876953"/>
     <use xlink:href="#DejaVuSans-6d" x="488.240234"/>
     <use xlink:href="#DejaVuSans-61" x="585.652344"/>
     <use xlink:href="#DejaVuSans-74" x="646.931641"/>
     <use xlink:href="#DejaVuSans-69" x="686.140625"/>
     <use xlink:href="#DejaVuSans-6f" x="713.923828"/>
     <use xlink:href="#DejaVuSans-6e" x="775.105469"/>
     <use xlink:href="#DejaVuSans-28" x="838.484375"/>
     <use xlink:href="#DejaVuSans-73" x="877.498047"/>
     <use xlink:href="#DejaVuSans-29" x="929.597656"/>
    </g>
   </g>
   <g id="legend_1">
    <g id="patch_7">
     <path d="M 37.103125 80.79625 
L 118.496875 80.79625 
Q 120.496875 80.79625 120.496875 78.79625 
L 120.496875 50.44 
Q 120.496875 48.44 118.496875 48.44 
L 37.103125 48.44 
Q 35.103125 48.44 35.103125 50.44 
L 35.103125 78.79625 
Q 35.103125 80.79625 37.103125 80.79625 
z
" style="fill: #ffffff; opacity: 0.8; stroke: #cccccc; stroke-linejoin: miter"/>
    </g>
    <g id="line2d_20">
     <path d="M 39.103125 56.538437 
L 49.103125 56.538437 
L 59.103125 56.538437 
" style="fill: none; stroke: #1f77b4; stroke-width: 1.5; stroke-linecap: square"/>
    </g>
    <g id="text_20">
     <!-- observed -->
     <g transform="translate(67.103125 60.038437) scale(0.1 -0.1)">
      <defs>
       <path id="DejaVuSans-62" d="M 3116 1747 
Q 3116 2381 2855 2742 
Q 2594 3103 2138 3103 
Q 1681 3103 1420 2742 
Q 1159 2381 1159 1747 
Q 1159 1113 1420 752 
Q 1681 391 2138 391 
Q 2594 391 2855 752 
Q 3116 1113 3116 1747 
z
M 1159 2969 
Q 1341 3281 1617 3432 
Q 1894 3584 2278 3584 
Q 2916 3584 3314 3078 
Q 3713 2572 3713 1747 
Q 3713 922 3314 415 
Q 2916 -91 2278 -91 
Q 1894 -91 1617 61 
Q 1341 213 1159 525 
L 1159 0 
L 581 0 
L 581 4863 
L 1159 4863 
L 1159 2969 
z
" transform="scale(0.015625)"/>
       <path id="DejaVuSans-76" d="M 191 3500 
L 800 3500 
L 1894 563 
L 2988 3500 
L 3597 3500 
L 2284 0 
L 1503 0 
L 191 3500 
z
" transform="scale(0.015625)"/>
       <path id="DejaVuSans-64" d="M 2906 2969 
L 2906 4863 
L 3481 4863 
L 3481 0 
L 2906 0 
L 2906 525 
Q 2725 213 2448 61 
Q 2172 -91 1784 -91 
Q 1150 -91 751 415 
Q 353 922 353 1747 
Q 353 2572 751 3078 
Q 1150 3584 1784 3584 
Q 2172 3584 2448 3432 
Q 2725 3281 2906 2969 
z
M 947 1747 
Q 947 1113 1208 752 
Q 1469 391 1925 391 
Q 2381 391 2643 752 
Q 2906 1113 2906 1747 
Q 2906 2381 2643 2742 
Q 2381 3103 1925 3103 
Q 1469 3103 1208 2742 
Q 947 2381 947 1747 
z
" transform="scale(0.015625)"/>
      </defs>
      <use xlink:href="#DejaVuSans-6f"/>
      <use xlink:href="#DejaVuSans-62" x="61.181641"/>
      <use xlink:href="#DejaVuSans-73" x="124.658203"/>
      <use xlink:href="#DejaVuSans-65" x="176.757812"/>
      <use xlink:href="#DejaVuSans-72" x="238.28125"/>
      <use xlink:href="#DejaVuSans-76" x="279.394531"/>
      <use xlink:href="#DejaVuSans-65" x="338.574219"/>
      <use xlink:href="#DejaVuSans-64" x="400.097656"/>
     </g>
    </g>
    <g id="line2d_21">
     <path d="M 39.103125 71.216563 
L 49.103125 71.216563 
L 59.103125 71.216563 
" style="fill: none; stroke: #ff7f0e; stroke-width: 1.5; stroke-linecap: square"/>
    </g>
    <g id="text_21">
     <!-- simulated -->
     <g transform="translate(67.103125 74.716563) scale(0.1 -0.1)">
      <defs>
       <path id="DejaVuSans-75" d="M 544 1381 
L 544 3500 
L 1119 3500 
L 1119 1403 
Q 1119 906 1312 657 
Q 1506 409 1894 409 
Q 2359 409 2629 706 
Q 2900 1003 2900 1516 
L 2900 3500 
L 3475 3500 
L 3475 0 
L 2900 0 
L 2900 538 
Q 2691 219 2414 64 
Q 2138 -91 1772 -91 
Q 1169 -91 856 284 
Q 544 659 544 1381 
z
M 1991 3584 
L 1991 3584 
z
" transform="scale(0.015625)"/>
       <path id="DejaVuSans-6c" d="M 603 4863 
L 1178 4863 
L 1178 0 
L 603 0 
L 603 4863 
z
" transform="scale(0.015625)"/>
      </defs>
      <use xlink:href="#DejaVuSans-73"/>
      <use xlink:href="#DejaVuSans-69" x="52.099609"/>
      <use xlink:href="#DejaVuSans-6d" x="79.882812"/>
      <use xlink:href="#DejaVuSans-75" x="177.294922"/>
      <use xlink:href="#DejaVuSans-6c" x="240.673828"/>
      <use xlink:href="#DejaVuSans-61" x="268.457031"/>
      <use xlink:href="#DejaVuSans-74" x="329.736328"/>
      <use xlink:href="#DejaVuSans-65" x="368.945312"/>
      <use xlink:href="#DejaVuSans-64" x="430.46875"/>
     </g>
    </g>
   </g>
  </g>
  <g id="axes_2">
   <g id="patch_8">
    <path d="M 30.103125 684.92 
L 704.102173 684.92 
L 704.102173 386.16 
L 30.103125 386.16 
z
" style="fill: #ffffff"/>
   </g>
   <g id="matplotlib.axis_3">
    <g id="xtick_11">
     <g id="line2d_22">
      <g>
       <use xlink:href="#me85ca30d82" x="77.614594" y="684.92" style="stroke: #000000; stroke-width: 0.8"/>
      </g>
     </g>
     <g id="text_22">
      <!-- 2000 -->
      <g transform="translate(64.889594 699.518437) scale(0.1 -0.1)">
       <use xlink:href="#DejaVuSans-32"/>
       <use xlink:href="#DejaVuSans-30" x="63.623047"/>
       <use xlink:href="#DejaVuSans-30" x="127.246094"/>
       <use xlink:href="#DejaVuSans-30" x="190.869141"/>
      </g>
     </g>
    </g>
    <g id="xtick_12">
     <g id="line2d_23">
      <g>
       <use xlink:href="#me85ca30d82" x="145.861054" y="684.92" style="stroke: #000000; stroke-width: 0.8"/>
      </g>
     </g>
     <g id="text_23">
      <!-- 2001 -->
      <g transform="translate(133.136054 699.518437) scale(0.1 -0.1)">
       <use xlink:href="#DejaVuSans-32"/>
       <use xlink:href="#DejaVuSans-30" x="63.623047"/>
       <use xlink:href="#DejaVuSans-30" x="127.246094"/>
       <use xlink:href="#DejaVuSans-31" x="190.869141"/>
      </g>
     </g>
    </g>
    <g id="xtick_13">
     <g id="line2d_24">
      <g>
       <use xlink:href="#me85ca30d82" x="213.921047" y="684.92" style="stroke: #000000; stroke-width: 0.8"/>
      </g>
     </g>
     <g id="text_24">
      <!-- 2002 -->
      <g transform="translate(201.196047 699.518437) scale(0.1 -0.1)">
       <use xlink:href="#DejaVuSans-32"/>
       <use xlink:href="#DejaVuSans-30" x="63.623047"/>
       <use xlink:href="#DejaVuSans-30" x="127.246094"/>
       <use xlink:href="#DejaVuSans-32" x="190.869141"/>
      </g>
     </g>
    </g>
    <g id="xtick_14">
     <g id="line2d_25">
      <g>
       <use xlink:href="#me85ca30d82" x="281.981041" y="684.92" style="stroke: #000000; stroke-width: 0.8"/>
      </g>
     </g>
     <g id="text_25">
      <!-- 2003 -->
      <g transform="translate(269.256041 699.518437) scale(0.1 -0.1)">
       <use xlink:href="#DejaVuSans-32"/>
       <use xlink:href="#DejaVuSans-30" x="63.623047"/>
       <use xlink:href="#DejaVuSans-30" x="127.246094"/>
       <use xlink:href="#DejaVuSans-33" x="190.869141"/>
      </g>
     </g>
    </g>
    <g id="xtick_15">
     <g id="line2d_26">
      <g>
       <use xlink:href="#me85ca30d82" x="350.041034" y="684.92" style="stroke: #000000; stroke-width: 0.8"/>
      </g>
     </g>
     <g id="text_26">
      <!-- 2004 -->
      <g transform="translate(337.316034 699.518437) scale(0.1 -0.1)">
       <use xlink:href="#DejaVuSans-32"/>
       <use xlink:href="#DejaVuSans-30" x="63.623047"/>
       <use xlink:href="#DejaVuSans-30" x="127.246094"/>
       <use xlink:href="#DejaVuSans-34" x="190.869141"/>
      </g>
     </g>
    </g>
    <g id="xtick_16">
     <g id="line2d_27">
      <g>
       <use xlink:href="#me85ca30d82" x="418.287493" y="684.92" style="stroke: #000000; stroke-width: 0.8"/>
      </g>
     </g>
     <g id="text_27">
      <!-- 2005 -->
      <g transform="translate(405.562493 699.518437) scale(0.1 -0.1)">
       <use xlink:href="#DejaVuSans-32"/>
       <use xlink:href="#DejaVuSans-30" x="63.623047"/>
       <use xlink:href="#DejaVuSans-30" x="127.246094"/>
       <use xlink:href="#DejaVuSans-35" x="190.869141"/>
      </g>
     </g>
    </g>
    <g id="xtick_17">
     <g id="line2d_28">
      <g>
       <use xlink:href="#me85ca30d82" x="486.347487" y="684.92" style="stroke: #000000; stroke-width: 0.8"/>
      </g>
     </g>
     <g id="text_28">
      <!-- 2006 -->
      <g transform="translate(473.622487 699.518437) scale(0.1 -0.1)">
       <use xlink:href="#DejaVuSans-32"/>
       <use xlink:href="#DejaVuSans-30" x="63.623047"/>
       <use xlink:href="#DejaVuSans-30" x="127.246094"/>
       <use xlink:href="#DejaVuSans-36" x="190.869141"/>
      </g>
     </g>
    </g>
    <g id="xtick_18">
     <g id="line2d_29">
      <g>
       <use xlink:href="#me85ca30d82" x="554.40748" y="684.92" style="stroke: #000000; stroke-width: 0.8"/>
      </g>
     </g>
     <g id="text_29">
      <!-- 2007 -->
      <g transform="translate(541.68248 699.518437) scale(0.1 -0.1)">
       <use xlink:href="#DejaVuSans-32"/>
       <use xlink:href="#DejaVuSans-30" x="63.623047"/>
       <use xlink:href="#DejaVuSans-30" x="127.246094"/>
       <use xlink:href="#DejaVuSans-37" x="190.869141"/>
      </g>
     </g>
    </g>
    <g id="xtick_19">
     <g id="line2d_30">
      <g>
       <use xlink:href="#me85ca30d82" x="622.467474" y="684.92" style="stroke: #000000; stroke-width: 0.8"/>
      </g>
     </g>
     <g id="text_30">
      <!-- 2008 -->
      <g transform="translate(609.742474 699.518437) scale(0.1 -0.1)">
       <use xlink:href="#DejaVuSans-32"/>
       <use xlink:href="#DejaVuSans-30" x="63.623047"/>
       <use xlink:href="#DejaVuSans-30" x="127.246094"/>
       <use xlink:href="#DejaVuSans-38" x="190.869141"/>
      </g>
     </g>
    </g>
    <g id="xtick_20">
     <g id="line2d_31">
      <g>
       <use xlink:href="#me85ca30d82" x="690.713933" y="684.92" style="stroke: #000000; stroke-width: 0.8"/>
      </g>
     </g>
     <g id="text_31">
      <!-- 2009 -->
      <g transform="translate(677.988933 699.518437) scale(0.1 -0.1)">
       <use xlink:href="#DejaVuSans-32"/>
       <use xlink:href="#DejaVuSans-30" x="63.623047"/>
       <use xlink:href="#DejaVuSans-30" x="127.246094"/>
       <use xlink:href="#DejaVuSans-39" x="190.869141"/>
      </g>
     </g>
    </g>
   </g>
   <g id="matplotlib.axis_4">
    <g id="ytick_8">
     <g id="line2d_32">
      <g>
       <use xlink:href="#m4bc5509c45" x="30.103125" y="671.383644" style="stroke: #000000; stroke-width: 0.8"/>
      </g>
     </g>
     <g id="text_32">
      <!-- 0 -->
      <g transform="translate(16.740625 675.182863) scale(0.1 -0.1)">
       <use xlink:href="#DejaVuSans-30"/>
      </g>
     </g>
    </g>
    <g id="ytick_9">
     <g id="line2d_33">
      <g>
       <use xlink:href="#m4bc5509c45" x="30.103125" y="616.828621" style="stroke: #000000; stroke-width: 0.8"/>
      </g>
     </g>
     <g id="text_33">
      <!-- 5 -->
      <g transform="translate(16.740625 620.62784) scale(0.1 -0.1)">
       <use xlink:href="#DejaVuSans-35"/>
      </g>
     </g>
    </g>
    <g id="ytick_10">
     <g id="line2d_34">
      <g>
       <use xlink:href="#m4bc5509c45" x="30.103125" y="562.273598" style="stroke: #000000; stroke-width: 0.8"/>
      </g>
     </g>
     <g id="text_34">
      <!-- 10 -->
      <g transform="translate(10.378125 566.072817) scale(0.1 -0.1)">
       <use xlink:href="#DejaVuSans-31"/>
       <use xlink:href="#DejaVuSans-30" x="63.623047"/>
      </g>
     </g>
    </g>
    <g id="ytick_11">
     <g id="line2d_35">
      <g>
       <use xlink:href="#m4bc5509c45" x="30.103125" y="507.718575" style="stroke: #000000; stroke-width: 0.8"/>
      </g>
     </g>
     <g id="text_35">
      <!-- 15 -->
      <g transform="translate(10.378125 511.517794) scale(0.1 -0.1)">
       <use xlink:href="#DejaVuSans-31"/>
       <use xlink:href="#DejaVuSans-35" x="63.623047"/>
      </g>
     </g>
    </g>
    <g id="ytick_12">
     <g id="line2d_36">
      <g>
       <use xlink:href="#m4bc5509c45" x="30.103125" y="453.163552" style="stroke: #000000; stroke-width: 0.8"/>
      </g>
     </g>
     <g id="text_36">
      <!-- 20 -->
      <g transform="translate(10.378125 456.962771) scale(0.1 -0.1)">
       <use xlink:href="#DejaVuSans-32"/>
       <use xlink:href="#DejaVuSans-30" x="63.623047"/>
      </g>
     </g>
    </g>
    <g id="ytick_13">
     <g id="line2d_37">
      <g>
       <use xlink:href="#m4bc5509c45" x="30.103125" y="398.608529" style="stroke: #000000; stroke-width: 0.8"/>
      </g>
     </g>
     <g id="text_37">
      <!-- 25 -->
      <g transform="translate(10.378125 402.407748) scale(0.1 -0.1)">
       <use xlink:href="#DejaVuSans-32"/>
       <use xlink:href="#DejaVuSans-35" x="63.623047"/>
      </g>
     </g>
    </g>
   </g>
   <g id="line2d_38">
    <path d="M 60.739445 671.083591 
L 62.790568 671.169788 
L 63.1635 671.212341 
L 63.722897 671.169788 
L 89.455169 671.126144 
L 89.641634 671.041038 
L 89.8281 670.65588 
L 90.201032 671.041038 
L 90.946895 671.126144 
L 94.489744 671.041038 
L 94.676209 670.869736 
L 95.049141 671.126144 
L 101.20251 671.212341 
L 101.761907 671.254894 
L 109.9664 671.169788 
L 110.339331 671.126144 
L 110.712263 671.254894 
L 118.170892 671.254894 
L 118.543823 670.570774 
L 118.730289 671.126144 
L 118.916755 671.212341 
L 119.103221 671.126144 
L 119.849084 671.212341 
L 121.713741 671.212341 
L 122.086672 669.800457 
L 122.273138 670.442024 
L 122.459604 669.15889 
L 122.64607 670.912289 
L 122.832535 671.126144 
L 123.764864 671.254894 
L 132.528754 671.212341 
L 132.715219 670.912289 
L 132.901685 670.998486 
L 133.088151 670.912289 
L 133.461082 671.126144 
L 133.647548 671.041038 
L 133.834014 668.816285 
L 134.020479 670.399471 
L 134.206945 670.613327 
L 134.393411 662.055826 
L 134.579877 669.15889 
L 134.766342 670.52713 
L 134.952808 670.869736 
L 135.139274 670.141972 
L 135.32574 668.174718 
L 135.512205 670.52713 
L 135.698671 670.827183 
L 136.258068 671.083591 
L 136.631 670.65588 
L 137.563328 670.955933 
L 137.93626 671.126144 
L 147.818944 671.126144 
L 148.00541 670.998486 
L 148.937738 671.126144 
L 152.294122 671.126144 
L 152.480587 670.998486 
L 152.853519 670.228169 
L 153.039985 669.243996 
L 153.22645 668.90139 
L 153.412916 670.056866 
L 153.785847 670.65588 
L 154.345245 670.869736 
L 154.718176 671.041038 
L 154.904642 669.586602 
L 155.091108 662.440985 
L 155.464039 664.238027 
L 155.650505 662.269682 
L 156.396368 670.228169 
L 156.582833 670.484577 
L 156.769299 670.313274 
L 156.955765 669.072693 
L 157.142231 664.494436 
L 157.328696 664.751935 
L 157.701628 667.832112 
L 157.888094 668.21727 
L 158.074559 666.077622 
L 158.261025 657.307357 
L 158.447491 662.612287 
L 158.633957 659.146952 
L 158.820422 660.601389 
L 159.006888 660.087481 
L 159.193354 658.03403 
L 159.37982 657.735068 
L 159.752751 665.821214 
L 159.939217 667.532059 
L 160.498614 668.602429 
L 160.871545 667.575703 
L 161.058011 667.575703 
L 161.244477 668.045968 
L 161.617408 669.329102 
L 162.176806 670.141972 
L 163.109134 670.65588 
L 163.482066 670.698433 
L 163.854997 669.243996 
L 164.227929 669.928116 
L 164.60086 669.286549 
L 164.787326 668.131074 
L 165.160257 669.329102 
L 165.90612 670.52713 
L 166.279052 670.698433 
L 166.838449 670.78463 
L 167.397846 670.955933 
L 168.330175 671.083591 
L 172.805352 671.169788 
L 173.36475 671.212341 
L 185.298557 671.169788 
L 185.485023 671.083591 
L 185.857954 671.126144 
L 186.230885 668.559876 
L 186.417351 670.955933 
L 186.603817 671.126144 
L 187.163214 671.083591 
L 187.34968 667.789559 
L 187.536146 670.185616 
L 187.722611 658.547938 
L 187.909077 666.335122 
L 188.468474 670.484577 
L 188.841406 670.955933 
L 189.027871 669.928116 
L 189.214337 670.698433 
L 189.400803 670.740986 
L 189.773734 671.126144 
L 190.706063 671.254894 
L 208.606774 671.169788 
L 208.979705 671.041038 
L 209.352637 671.126144 
L 209.725568 671.169788 
L 210.284965 671.126144 
L 239.37362 671.212341 
L 239.933017 671.254894 
L 260.257782 671.254894 
L 260.444248 670.998486 
L 262.12244 671.297447 
L 267.716412 671.212341 
L 268.089343 671.169788 
L 268.835206 671.254894 
L 269.394604 671.212341 
L 275.920904 671.126144 
L 276.293836 671.041038 
L 277.039699 671.126144 
L 279.277288 671.041038 
L 279.650219 670.998486 
L 280.209616 671.083591 
L 280.582548 671.041038 
L 281.141945 671.083591 
L 289.905834 671.126144 
L 290.0923 668.644982 
L 290.278766 657.34991 
L 290.651697 668.90139 
L 290.838163 670.185616 
L 291.211095 670.78463 
L 291.770492 671.041038 
L 292.329889 670.955933 
L 292.70282 669.586602 
L 293.075752 670.141972 
L 293.262218 670.228169 
L 293.635149 669.415299 
L 293.821615 669.457852 
L 294.008081 667.747006 
L 294.381012 658.03403 
L 294.753944 647.765683 
L 294.940409 647.423078 
L 295.313341 657.820174 
L 295.686272 666.206372 
L 295.872738 640.577514 
L 296.059204 588.422912 
L 296.245669 647.808236 
L 296.432135 659.959822 
L 296.618601 664.580633 
L 296.805067 658.889453 
L 296.991532 661.714312 
L 297.177998 666.335122 
L 297.55093 667.917218 
L 297.923861 669.457852 
L 298.483258 670.270722 
L 299.602053 670.912289 
L 300.534381 671.041038 
L 304.263696 671.126144 
L 304.823093 671.169788 
L 317.316298 671.254894 
L 317.689229 671.254894 
L 321.60501 671.169788 
L 321.977941 671.169788 
L 322.723804 671.254894 
L 322.91027 671.254894 
L 323.096735 671.041038 
L 323.283201 670.998486 
L 323.469667 671.169788 
L 323.656133 670.185616 
L 323.842598 671.083591 
L 324.029064 671.126144 
L 324.21553 670.912289 
L 324.401996 671.041038 
L 324.588461 670.65588 
L 324.774927 671.126144 
L 325.52079 671.212341 
L 325.707256 671.212341 
L 325.893721 670.52713 
L 326.080187 670.955933 
L 326.453119 671.083591 
L 326.639584 670.698433 
L 326.82605 671.041038 
L 327.198982 671.126144 
L 327.758379 671.169788 
L 327.944845 670.998486 
L 328.13131 668.773732 
L 328.317776 670.484577 
L 328.690707 671.083591 
L 329.250105 670.998486 
L 329.623036 670.740986 
L 329.995968 671.083591 
L 330.741831 671.169788 
L 340.81098 671.083591 
L 340.997446 670.955933 
L 342.11624 671.126144 
L 348.829007 671.083591 
L 349.015473 670.998486 
L 349.761336 671.083591 
L 350.507199 670.998486 
L 357.219965 671.083591 
L 357.592896 671.126144 
L 357.965828 671.126144 
L 362.441006 671.041038 
L 362.627471 670.912289 
L 362.813937 669.71426 
L 363.373334 669.115246 
L 364.119197 670.270722 
L 364.492129 670.65588 
L 365.237992 670.955933 
L 366.17032 671.041038 
L 366.729718 671.083591 
L 374.001881 671.169788 
L 374.374813 671.212341 
L 374.93421 671.169788 
L 386.681551 671.126144 
L 386.868017 670.78463 
L 387.054483 671.126144 
L 387.800346 671.212341 
L 392.461989 671.126144 
L 392.648455 670.869736 
L 392.834921 671.126144 
L 393.021386 671.169788 
L 393.207852 670.313274 
L 393.580783 671.083591 
L 393.953715 671.212341 
L 398.801824 671.212341 
L 398.98829 667.874665 
L 399.174756 667.747006 
L 399.361221 670.869736 
L 399.547687 671.169788 
L 400.480016 671.297447 
L 404.955193 671.212341 
L 405.328125 671.212341 
L 406.073988 671.212341 
L 406.260453 660.173678 
L 406.633385 668.473679 
L 406.819851 670.570774 
L 407.006316 671.041038 
L 407.379248 671.212341 
L 410.549165 671.212341 
L 410.735631 644.471651 
L 410.922097 639.722091 
L 411.108563 664.879594 
L 411.295028 667.233098 
L 411.854426 669.586602 
L 412.600289 670.484577 
L 413.719083 670.912289 
L 415.770206 670.827183 
L 415.956672 670.740986 
L 417.448398 670.998486 
L 417.634863 670.998486 
L 417.821329 407.440987 
L 418.194261 647.081563 
L 418.380726 667.575703 
L 418.567192 668.644982 
L 418.940124 615.805169 
L 419.126589 655.381565 
L 419.499521 666.847939 
L 419.685986 668.131074 
L 420.058918 641.519133 
L 420.245384 590.990271 
L 420.431849 612.382387 
L 420.618315 650.97461 
L 420.804781 661.628115 
L 420.991247 664.580633 
L 421.177712 665.564805 
L 421.550644 665.436055 
L 421.73711 665.692464 
L 422.110041 661.884523 
L 422.296507 656.151882 
L 422.482972 655.510315 
L 422.669438 658.761794 
L 422.855904 659.917269 
L 423.04237 663.510263 
L 423.228835 595.268476 
L 423.601767 652.686547 
L 423.788233 665.179647 
L 423.974698 662.868696 
L 424.534096 669.03014 
L 424.720561 669.84301 
L 425.093493 670.141972 
L 425.466424 666.120175 
L 425.65289 666.248925 
L 425.839356 669.415299 
L 426.025821 649.862779 
L 426.212287 399.74 
L 426.585219 637.240928 
L 426.771684 651.659821 
L 426.95815 649.306317 
L 427.144616 655.59542 
L 427.331082 656.109329 
L 427.517547 536.652377 
L 427.890479 630.352811 
L 428.076945 607.248759 
L 428.26341 622.223022 
L 428.449876 655.125156 
L 428.636342 664.751935 
L 428.822808 666.206372 
L 429.382205 667.061795 
L 429.755136 668.045968 
L 429.941602 668.003415 
L 430.128068 664.751935 
L 430.314533 659.445914 
L 430.500999 665.863767 
L 430.873931 667.446954 
L 431.060396 667.446954 
L 431.246862 666.934136 
L 431.619794 667.233098 
L 431.992725 666.934136 
L 432.179191 668.559876 
L 432.365656 668.730088 
L 432.738588 669.329102 
L 432.925054 668.773732 
L 433.111519 659.403361 
L 433.297985 666.676637 
L 433.670917 668.773732 
L 433.857382 668.816285 
L 434.043848 668.388573 
L 434.230314 668.431126 
L 434.41678 667.147992 
L 434.603245 667.575703 
L 434.789711 668.858838 
L 435.349108 669.885563 
L 435.72204 670.099419 
L 435.908505 670.014313 
L 436.654368 670.313274 
L 436.840834 670.185616 
L 437.400231 670.399471 
L 437.773163 670.484577 
L 438.519026 670.570774 
L 439.264889 670.613327 
L 439.451354 667.147992 
L 439.63782 667.789559 
L 439.824286 667.832112 
L 440.010752 668.388573 
L 440.197217 669.800457 
L 440.383683 670.228169 
L 441.129546 670.613327 
L 441.688943 670.827183 
L 442.434806 670.912289 
L 442.994203 670.955933 
L 447.09645 671.041038 
L 447.655847 671.083591 
L 450.825764 671.169788 
L 451.385162 671.212341 
L 456.419736 671.126144 
L 456.606202 671.041038 
L 456.792668 671.169788 
L 456.979134 670.955933 
L 457.165599 671.126144 
L 457.538531 671.126144 
L 457.911462 670.78463 
L 458.284394 671.126144 
L 458.657325 671.169788 
L 458.843791 671.083591 
L 459.030257 669.885563 
L 459.216722 669.800457 
L 459.403188 670.698433 
L 459.589654 669.457852 
L 459.77612 669.757904 
L 459.962585 670.613327 
L 460.149051 669.544049 
L 460.335517 665.478608 
L 460.708448 670.270722 
L 461.08138 670.78463 
L 461.267846 670.613327 
L 461.640777 670.65588 
L 462.013708 671.041038 
L 462.573106 671.041038 
L 462.946037 671.212341 
L 472.269324 671.126144 
L 472.45579 670.955933 
L 472.642255 671.041038 
L 472.828721 670.998486 
L 473.201653 671.126144 
L 496.50987 671.041038 
L 497.069267 670.998486 
L 503.595567 671.083591 
L 503.968499 671.083591 
L 510.867731 671.169788 
L 511.427128 671.212341 
L 521.496278 671.126144 
L 521.86921 671.126144 
L 522.615073 671.212341 
L 523.360935 671.126144 
L 523.733867 671.083591 
L 524.106798 671.083591 
L 525.412059 671.083591 
L 525.598524 668.987587 
L 525.78499 670.613327 
L 525.971456 670.998486 
L 526.344387 671.126144 
L 527.276716 671.126144 
L 527.463182 670.955933 
L 527.649647 670.399471 
L 527.836113 670.955933 
L 528.022579 670.955933 
L 528.581976 669.544049 
L 528.768442 669.97176 
L 528.954908 670.912289 
L 529.514305 671.169788 
L 529.70077 671.169788 
L 529.887236 670.869736 
L 530.073702 670.955933 
L 530.446633 669.671707 
L 530.633099 670.912289 
L 531.006031 671.126144 
L 531.378962 671.169788 
L 531.751894 671.169788 
L 532.684222 671.212341 
L 532.870688 670.955933 
L 533.803017 671.083591 
L 534.54888 670.955933 
L 534.921811 671.126144 
L 535.481208 671.169788 
L 538.091729 671.126144 
L 538.278194 671.041038 
L 538.651126 671.126144 
L 539.024057 671.126144 
L 539.583454 671.169788 
L 539.76992 670.998486 
L 540.888715 671.169788 
L 553.75485 671.083591 
L 553.941316 670.998486 
L 554.687179 671.083591 
L 559.90822 671.041038 
L 560.281151 670.955933 
L 561.027014 671.041038 
L 562.145808 670.955933 
L 562.705206 670.740986 
L 563.264603 670.955933 
L 563.637534 670.869736 
L 564.010466 670.740986 
L 564.196932 670.442024 
L 564.942795 671.083591 
L 569.417972 671.083591 
L 569.604438 670.955933 
L 570.536767 671.083591 
L 577.622465 671.169788 
L 578.181862 671.212341 
L 588.251011 671.297447 
L 588.810409 671.34 
L 591.79386 671.254894 
L 592.166792 671.169788 
L 592.353258 670.955933 
L 592.539723 670.955933 
L 592.912655 671.169788 
L 593.285586 670.356918 
L 593.472052 670.484577 
L 593.658518 670.228169 
L 594.031449 671.126144 
L 594.217915 671.169788 
L 594.404381 669.800457 
L 594.590846 670.356918 
L 594.963778 665.09345 
L 595.150244 669.629154 
L 595.336709 670.52713 
L 595.709641 670.998486 
L 596.082572 671.126144 
L 596.455504 671.126144 
L 596.64197 669.71426 
L 596.828435 670.998486 
L 597.201367 671.169788 
L 603.727668 671.126144 
L 603.914133 671.041038 
L 604.846462 671.169788 
L 614.356214 671.083591 
L 614.915612 671.041038 
L 616.593803 670.955933 
L 616.780269 664.40933 
L 617.153201 669.928116 
L 617.526132 670.827183 
L 617.899063 670.955933 
L 618.085529 637.753746 
L 618.271995 659.018202 
L 618.458461 667.575703 
L 618.831392 669.286549 
L 619.204324 670.185616 
L 619.577255 670.570774 
L 620.509584 670.698433 
L 622.00131 670.78463 
L 622.747173 670.869736 
L 622.933638 670.78463 
L 623.30657 670.78463 
L 623.493036 635.742847 
L 623.679501 641.604239 
L 623.865967 663.211302 
L 624.052433 666.591531 
L 624.425364 667.660809 
L 624.61183 667.917218 
L 625.171227 669.372746 
L 625.730624 670.484577 
L 626.103556 670.570774 
L 626.476487 670.698433 
L 627.22235 670.65588 
L 627.408816 582.43277 
L 627.595282 551.200019 
L 627.781747 645.883535 
L 628.154679 663.382604 
L 628.52761 666.505334 
L 628.900542 668.259823 
L 629.273473 670.014313 
L 629.459939 670.056866 
L 629.646405 669.457852 
L 629.832871 667.233098 
L 630.019336 662.741037 
L 630.205802 661.029101 
L 630.392268 660.815245 
L 630.578733 659.788519 
L 630.765199 656.878554 
L 630.951665 658.675597 
L 631.138131 662.826143 
L 631.324596 661.585562 
L 631.511062 661.756865 
L 631.883994 656.964751 
L 632.070459 653.241917 
L 632.629857 661.670668 
L 632.816322 664.708291 
L 633.002788 663.082552 
L 633.37572 653.328114 
L 633.935117 639.294379 
L 634.121582 656.236987 
L 634.308048 661.84197 
L 634.494514 663.211302 
L 634.68098 663.039999 
L 634.867445 665.264753 
L 635.053911 665.478608 
L 635.426843 660.772692 
L 635.98624 657.991477 
L 636.172706 658.03403 
L 636.732103 667.532059 
L 637.105034 669.115246 
L 637.2915 669.372746 
L 637.477966 668.816285 
L 637.664431 667.618256 
L 638.037363 668.21727 
L 638.223829 668.773732 
L 638.59676 668.644982 
L 639.342623 669.243996 
L 639.715555 670.099419 
L 640.274952 670.52713 
L 641.020815 670.78463 
L 642.512541 671.041038 
L 646.801252 671.126144 
L 647.174184 671.169788 
L 647.547115 671.083591 
L 653.88695 671.169788 
L 654.446348 671.212341 
L 655.565142 671.212341 
L 655.751608 671.083591 
L 656.124539 671.212341 
L 657.056868 671.126144 
L 657.429799 671.126144 
L 658.921525 671.083591 
L 659.107991 670.998486 
L 659.480922 671.169788 
L 659.853854 671.212341 
L 660.226785 671.169788 
L 660.599717 671.212341 
L 661.159114 671.126144 
L 662.091443 671.254894 
L 663.396703 671.169788 
L 663.9561 671.126144 
L 666.193689 671.212341 
L 666.56662 671.212341 
L 667.126018 671.126144 
L 667.312483 671.169788 
L 667.685415 670.827183 
L 667.871881 671.126144 
L 668.804209 671.254894 
L 673.465853 671.212341 
L 673.465853 671.212341 
" clip-path="url(#pc57543bd5a)" style="fill: none; stroke: #1f77b4; stroke-width: 1.5; stroke-linecap: square"/>
   </g>
   <g id="line2d_39">
    <path d="M 60.739445 671.083591 
L 77.521362 671.137824 
L 77.707827 670.960714 
L 77.894293 670.330602 
L 78.080759 670.224785 
L 78.267225 670.787587 
L 78.45369 670.961062 
L 79.572485 670.944463 
L 79.945416 670.364593 
L 80.131882 670.483475 
L 80.318348 670.816733 
L 80.691279 670.898314 
L 81.996539 670.899723 
L 82.183005 670.757738 
L 82.555936 667.244451 
L 82.742402 668.108106 
L 82.928868 669.773838 
L 83.115334 670.342726 
L 83.488265 670.402797 
L 85.539388 670.251653 
L 85.725854 670.119464 
L 86.098785 670.37973 
L 86.285251 670.367707 
L 86.658183 669.307968 
L 87.031114 670.173472 
L 87.21758 669.761614 
L 87.590511 666.795986 
L 88.336374 669.603237 
L 88.709306 669.695094 
L 88.895771 669.297671 
L 89.082237 668.403184 
L 89.268703 668.178545 
L 89.455169 668.739834 
L 89.641634 663.182675 
L 89.8281 648.618471 
L 90.014566 647.393862 
L 90.201032 661.13875 
L 90.387497 664.639404 
L 90.760429 664.575698 
L 90.946895 663.778753 
L 91.319826 660.678065 
L 91.692757 663.937789 
L 91.879223 664.276418 
L 92.252155 664.298163 
L 92.43862 663.946841 
L 92.811552 657.822181 
L 93.184483 663.012725 
L 93.370949 663.443253 
L 93.743881 663.456589 
L 93.930346 662.112487 
L 94.116812 659.696589 
L 94.303278 659.568916 
L 94.489744 660.046881 
L 94.676209 659.87724 
L 95.049141 662.323452 
L 95.422072 662.878294 
L 95.981469 663.02454 
L 97.659661 663.262683 
L 98.032592 662.755976 
L 98.59199 663.329245 
L 103.440099 663.982724 
L 103.81303 663.781214 
L 104.372428 664.099772 
L 108.847605 664.669002 
L 109.034071 664.565191 
L 109.407002 663.097462 
L 109.779934 664.0457 
L 109.9664 663.655152 
L 110.339331 661.339987 
L 110.525797 661.430753 
L 110.898728 664.008853 
L 111.085194 663.991558 
L 111.27166 663.622268 
L 111.644591 661.789208 
L 112.017523 663.713625 
L 112.203988 663.95516 
L 112.949851 664.030308 
L 113.509249 664.030387 
L 114.255111 664.209751 
L 114.628043 664.178601 
L 115.373906 664.34993 
L 116.119769 664.051675 
L 116.4927 664.395869 
L 117.052098 664.476132 
L 117.238563 664.394816 
L 117.611495 664.025624 
L 117.79796 664.044796 
L 118.170892 662.434271 
L 118.357358 662.509442 
L 118.543823 662.182344 
L 118.916755 661.218518 
L 119.289686 663.13859 
L 119.476152 662.836958 
L 119.662618 660.806247 
L 119.849084 660.132114 
L 120.222015 662.874531 
L 120.594947 663.246076 
L 120.967878 661.693724 
L 121.340809 663.098208 
L 121.713741 662.572112 
L 121.900207 662.591435 
L 122.086672 662.479737 
L 122.273138 662.21791 
L 122.64607 657.113513 
L 122.832535 657.587933 
L 123.205467 661.972314 
L 123.391933 662.558561 
L 123.764864 662.794007 
L 127.86711 663.386474 
L 128.240042 662.564245 
L 128.612973 663.313181 
L 128.985905 663.438417 
L 129.17237 663.381535 
L 129.358836 662.28172 
L 129.545302 660.487664 
L 129.731768 660.535324 
L 130.104699 662.982626 
L 130.291165 663.146393 
L 130.47763 662.656526 
L 130.664096 661.142615 
L 130.850562 660.616866 
L 131.223493 662.822001 
L 131.596425 662.992184 
L 131.969356 663.036821 
L 132.342288 662.567027 
L 132.528754 660.065062 
L 132.901685 634.645497 
L 133.088151 635.152928 
L 133.461082 657.467975 
L 133.647548 660.954768 
L 134.020479 649.398137 
L 134.393411 654.765586 
L 134.579877 652.935383 
L 134.952808 659.555872 
L 135.139274 659.26068 
L 135.32574 657.961097 
L 135.512205 658.073008 
L 136.258068 660.488471 
L 137.003931 660.65401 
L 138.309191 660.81398 
L 138.868589 659.388579 
L 139.427986 660.722798 
L 140.173849 660.988297 
L 142.224972 661.359315 
L 142.597903 661.040655 
L 143.157301 661.48524 
L 146.886615 662.080643 
L 147.073081 661.999465 
L 147.259547 661.781931 
L 147.632478 659.149402 
L 147.818944 660.069762 
L 148.191875 654.837256 
L 148.564807 660.46232 
L 148.751273 660.951971 
L 150.242998 661.166883 
L 150.61593 660.291642 
L 150.802396 660.555605 
L 151.175327 661.194622 
L 152.107656 661.363983 
L 152.294122 661.341978 
L 152.480587 660.498683 
L 152.853519 658.177228 
L 153.039985 658.593834 
L 153.599382 660.961007 
L 153.785847 661.108093 
L 153.972313 660.415018 
L 154.345245 651.168666 
L 154.718176 659.266236 
L 154.904642 659.964687 
L 155.277573 659.926529 
L 155.650505 660.122087 
L 156.023436 659.971059 
L 156.209902 660.045173 
L 156.396368 659.670964 
L 156.582833 658.882375 
L 156.955765 654.994835 
L 157.142231 656.517217 
L 157.328696 659.131256 
L 157.515162 659.701192 
L 157.888094 659.338349 
L 158.074559 659.113313 
L 158.447491 655.773523 
L 158.633957 656.407622 
L 159.006888 654.148147 
L 159.566285 658.884069 
L 159.752751 658.860857 
L 160.125682 659.153738 
L 163.2956 659.754239 
L 163.482066 658.466502 
L 163.854997 645.759042 
L 164.227929 657.148452 
L 164.414394 657.29325 
L 164.787326 654.290282 
L 165.160257 657.190911 
L 165.346723 657.504158 
L 166.092586 657.726487 
L 166.465517 657.709846 
L 166.838449 657.000495 
L 167.024915 657.184751 
L 167.397846 657.872067 
L 167.584312 657.88535 
L 167.957243 657.488657 
L 168.330175 658.015783 
L 169.076038 658.205264 
L 170.381298 658.313423 
L 170.754229 654.759725 
L 171.127161 657.782478 
L 171.313627 658.153888 
L 171.500092 658.012204 
L 171.873024 651.689276 
L 172.05949 652.313616 
L 172.432421 657.450325 
L 172.805352 657.711604 
L 177.653462 658.875995 
L 177.839927 658.779264 
L 178.026393 658.348479 
L 178.212859 657.494119 
L 178.399325 657.281138 
L 178.772256 658.725357 
L 179.331653 658.952561 
L 179.704585 659.050158 
L 179.89105 658.959612 
L 180.263982 657.931524 
L 180.450448 658.30666 
L 180.823379 655.695357 
L 181.009845 656.982158 
L 181.196311 657.403707 
L 181.382776 655.913465 
L 181.755708 649.348229 
L 182.315105 657.433537 
L 182.501571 657.271938 
L 182.874502 657.99698 
L 183.433899 658.172965 
L 183.993297 658.307146 
L 184.179762 658.204781 
L 184.552694 656.829336 
L 184.925625 658.169273 
L 185.485023 656.49241 
L 185.671488 655.381075 
L 185.857954 655.558174 
L 186.04442 656.674056 
L 186.230885 656.663414 
L 186.417351 656.4095 
L 186.603817 657.003583 
L 186.790283 656.110584 
L 187.163214 649.118838 
L 187.34968 649.424953 
L 187.722611 653.190146 
L 187.909077 652.806381 
L 188.095543 653.48931 
L 188.468474 656.835042 
L 188.65494 657.344822 
L 188.841406 657.369269 
L 189.214337 656.937308 
L 189.587269 657.527594 
L 190.146666 657.723874 
L 193.316583 658.494068 
L 193.503049 658.449072 
L 193.689515 658.27362 
L 194.062446 657.707664 
L 194.808309 658.675159 
L 197.045898 659.184396 
L 197.41883 659.060344 
L 197.791761 659.29399 
L 197.978227 659.035776 
L 198.351158 656.238515 
L 198.537624 656.728382 
L 198.910555 659.037477 
L 199.283487 659.208524 
L 203.199267 660.039668 
L 203.572199 659.413533 
L 203.758665 659.560126 
L 204.131596 660.115623 
L 205.436856 660.400122 
L 206.742116 660.584293 
L 207.301514 660.462048 
L 207.860911 660.814549 
L 208.420308 660.874579 
L 208.606774 660.684397 
L 208.793239 657.539402 
L 208.979705 649.005687 
L 209.166171 647.887758 
L 209.352637 656.035752 
L 209.539102 658.282731 
L 209.912034 658.23658 
L 210.284965 657.250171 
L 210.657897 658.289769 
L 211.776691 658.52734 
L 212.149623 658.018026 
L 212.336088 658.140937 
L 212.70902 658.637511 
L 213.268417 658.779172 
L 213.454883 658.71279 
L 213.641349 658.063547 
L 213.827814 657.831531 
L 214.200746 658.788481 
L 214.946609 659.014343 
L 219.235321 659.942017 
L 219.608252 659.688359 
L 219.981184 660.016587 
L 221.286444 660.274077 
L 221.659375 660.112415 
L 222.032307 660.423223 
L 228.558607 661.603267 
L 228.931539 661.461731 
L 229.30447 661.742506 
L 230.050333 661.711561 
L 230.423265 661.016401 
L 230.796196 661.329329 
L 230.982662 661.264854 
L 231.355593 661.828027 
L 231.542059 661.867572 
L 231.728525 661.36508 
L 232.101456 656.191321 
L 232.474388 660.902084 
L 232.660854 661.212632 
L 235.644305 661.704185 
L 236.017237 661.688539 
L 236.7631 661.930989 
L 245.154058 663.28647 
L 248.323975 663.661498 
L 248.510441 663.619883 
L 249.069838 663.821983 
L 249.256304 663.745453 
L 249.629236 662.870299 
L 250.002167 663.67759 
L 250.188633 663.677517 
L 250.375099 662.365055 
L 250.561564 659.731078 
L 250.74803 658.754014 
L 251.307427 662.282535 
L 251.680359 662.313378 
L 251.866824 662.775937 
L 252.05329 662.305595 
L 252.239756 661.030254 
L 252.426222 660.830789 
L 252.799153 662.74521 
L 252.985619 663.006755 
L 253.545016 663.101498 
L 253.731482 662.697363 
L 254.104413 660.300946 
L 254.290879 660.328908 
L 254.66381 662.004797 
L 255.036742 662.803759 
L 255.596139 662.934313 
L 256.155536 662.996192 
L 256.528468 662.314671 
L 256.901399 662.954314 
L 257.087865 663.007517 
L 257.460796 662.854434 
L 258.020194 663.151432 
L 258.579591 663.21372 
L 258.952522 662.519923 
L 259.51192 663.249145 
L 260.071317 663.290819 
L 260.257782 662.942324 
L 260.444248 657.939457 
L 260.81718 642.670279 
L 261.190111 654.004153 
L 261.376577 654.314215 
L 261.749508 661.27963 
L 261.935974 662.382557 
L 262.308906 662.549438 
L 264.173563 662.828315 
L 264.546494 662.728885 
L 264.919426 662.88299 
L 265.105892 662.689419 
L 265.478823 659.112404 
L 265.851755 662.287796 
L 266.03822 662.5054 
L 267.716412 662.710435 
L 267.902878 661.935312 
L 268.089343 660.581741 
L 268.275809 660.560998 
L 268.648741 662.447817 
L 268.835206 662.558155 
L 269.021672 662.459712 
L 269.394604 661.461005 
L 269.581069 661.549292 
L 269.954001 655.396148 
L 270.513398 661.653352 
L 271.072795 661.809206 
L 271.818658 661.921206 
L 272.005124 661.574056 
L 272.378055 651.382699 
L 272.564521 652.505008 
L 272.937453 660.677763 
L 273.123918 660.949645 
L 275.175041 661.313026 
L 275.547973 661.050029 
L 275.920904 661.279914 
L 276.10737 660.399387 
L 276.293836 658.439089 
L 276.480301 658.083569 
L 276.853233 660.95984 
L 277.226164 661.163788 
L 278.904356 661.474009 
L 279.090822 661.411069 
L 279.277288 659.727205 
L 279.463753 656.351004 
L 279.650219 656.743523 
L 279.836685 659.959099 
L 280.02315 660.788306 
L 280.769013 660.898519 
L 281.514876 660.999086 
L 281.887808 660.341299 
L 282.260739 661.02521 
L 282.633671 661.106678 
L 282.820137 660.722196 
L 283.193068 658.547332 
L 283.379534 659.786647 
L 283.565999 659.680003 
L 283.752465 659.159376 
L 284.125397 660.666367 
L 284.498328 660.836826 
L 289.346437 661.689682 
L 289.719369 661.706713 
L 289.905834 660.67725 
L 290.278766 639.017001 
L 290.465232 641.813175 
L 290.838163 659.288662 
L 291.024629 660.062082 
L 291.770492 660.287027 
L 292.143423 660.271732 
L 292.329889 657.673099 
L 292.70282 639.814352 
L 292.889286 640.729729 
L 293.262218 657.839173 
L 293.448683 659.385431 
L 293.821615 659.433157 
L 294.381012 659.476557 
L 294.567478 658.486667 
L 294.753944 656.42053 
L 294.940409 656.046498 
L 295.313341 658.952753 
L 295.499807 659.285048 
L 295.686272 659.300757 
L 295.872738 657.507915 
L 296.245669 645.161023 
L 296.805067 658.048163 
L 297.923861 658.522543 
L 301.093779 659.2435 
L 301.280244 659.194609 
L 301.653176 657.323123 
L 302.026107 659.02909 
L 302.585504 659.101573 
L 302.958436 659.310319 
L 309.857668 660.709975 
L 310.2306 660.18809 
L 310.976463 660.854537 
L 311.349394 660.61844 
L 311.908791 660.99565 
L 317.689229 662.035093 
L 318.062161 661.795886 
L 318.435092 660.508815 
L 318.808023 661.865914 
L 318.994489 661.72562 
L 319.367421 658.017345 
L 319.740352 661.138415 
L 319.926818 661.040685 
L 320.299749 659.103761 
L 320.486215 659.244242 
L 320.672681 660.055238 
L 320.859147 660.310251 
L 321.045612 660.075572 
L 321.232078 660.10728 
L 321.60501 659.383745 
L 321.791475 659.03439 
L 321.977941 659.078042 
L 322.350872 660.899989 
L 322.537338 661.029796 
L 322.723804 660.944498 
L 323.283201 660.146591 
L 323.469667 660.174001 
L 323.842598 659.652705 
L 324.029064 659.159786 
L 324.401996 652.859921 
L 324.774927 659.403739 
L 324.961393 659.620764 
L 325.334324 658.344268 
L 325.52079 659.011495 
L 325.707256 659.239139 
L 326.080187 657.423856 
L 326.266653 657.986473 
L 326.639584 653.163415 
L 327.198982 658.175914 
L 327.385447 658.231151 
L 327.758379 653.025878 
L 328.13131 656.28925 
L 328.317776 655.983148 
L 328.690707 657.680811 
L 328.877173 657.303093 
L 329.250105 652.197101 
L 329.623036 657.144787 
L 329.809502 657.773751 
L 330.368899 657.960815 
L 333.165885 658.626391 
L 333.538817 658.431617 
L 334.471145 658.848805 
L 334.844077 658.367979 
L 335.030542 658.504535 
L 335.403474 658.97805 
L 337.081666 659.369422 
L 338.759857 659.641822 
L 339.132789 657.636115 
L 339.319254 658.203447 
L 339.50572 659.210974 
L 339.692186 659.579003 
L 340.438049 659.765388 
L 340.624515 659.495442 
L 340.81098 655.568905 
L 341.183912 637.211217 
L 341.556843 656.302501 
L 341.743309 657.080444 
L 345.472624 658.018638 
L 345.659089 657.759511 
L 345.845555 656.834205 
L 346.032021 656.755032 
L 346.218487 657.678686 
L 346.404952 657.985894 
L 346.96435 657.979382 
L 347.150815 657.931965 
L 347.710213 658.257428 
L 348.083144 658.169241 
L 348.456075 658.441722 
L 348.642541 658.455522 
L 348.829007 658.170083 
L 349.015473 655.825947 
L 349.201938 654.922254 
L 349.388404 657.146687 
L 349.57487 657.913408 
L 350.320733 657.981853 
L 350.507199 656.738172 
L 350.693664 653.862817 
L 350.88013 653.977586 
L 351.066596 656.769516 
L 351.253061 657.540777 
L 351.439527 657.547173 
L 351.812459 657.299417 
L 352.18539 657.726155 
L 352.744787 657.799704 
L 353.117719 657.869211 
L 353.49065 657.989787 
L 353.677116 657.463687 
L 354.050048 654.416723 
L 354.422979 657.500071 
L 354.609445 657.73248 
L 354.982376 657.571281 
L 355.355308 657.922165 
L 355.728239 657.993128 
L 356.101171 657.658453 
L 356.474102 658.088998 
L 358.711691 658.559356 
L 359.271088 657.398312 
L 359.457554 657.469949 
L 359.64402 658.17917 
L 359.830485 658.193553 
L 360.203417 654.059677 
L 360.389883 655.065159 
L 360.576348 657.191927 
L 360.762814 657.363364 
L 361.135745 652.936472 
L 361.508677 657.323302 
L 361.695143 657.690703 
L 361.881608 657.512727 
L 362.25454 654.379186 
L 362.627471 657.275823 
L 363.000403 657.514027 
L 363.373334 657.529762 
L 363.746266 656.850773 
L 364.119197 657.612197 
L 364.678594 657.807456 
L 366.916183 658.33766 
L 367.102649 657.933983 
L 367.47558 652.89309 
L 367.662046 653.704487 
L 367.848512 656.057518 
L 368.034978 655.610711 
L 368.221443 654.721202 
L 368.780841 656.870877 
L 368.967306 656.997067 
L 369.153772 656.959933 
L 369.526704 657.662759 
L 370.272567 657.886819 
L 371.204895 658.107169 
L 371.577827 657.833066 
L 372.137224 658.287863 
L 380.714648 660.197562 
L 386.122154 661.202629 
L 386.30862 660.5494 
L 386.681551 654.627657 
L 387.427414 658.860641 
L 387.800346 659.636593 
L 388.173277 659.566942 
L 388.359743 659.381845 
L 388.546209 658.994192 
L 388.732674 659.378325 
L 388.91914 659.507589 
L 389.105606 659.360298 
L 389.478537 660.238102 
L 389.851469 660.097351 
L 390.2244 660.428074 
L 390.410866 660.446176 
L 390.597332 659.892512 
L 390.970263 658.056805 
L 391.156729 658.33453 
L 391.52966 659.994314 
L 392.089058 659.931251 
L 392.275523 659.479818 
L 392.648455 654.278433 
L 393.021386 656.904833 
L 393.207852 654.924158 
L 393.394318 655.308225 
L 393.767249 658.792278 
L 394.140181 659.378699 
L 394.886044 659.573562 
L 396.004838 659.724489 
L 396.191304 658.877904 
L 396.37777 657.472129 
L 396.564235 657.623474 
L 396.937167 659.560306 
L 397.310098 659.714152 
L 398.615358 659.963067 
L 398.801824 658.805449 
L 398.98829 647.013072 
L 399.174756 626.328915 
L 399.361221 626.647502 
L 399.734153 656.533637 
L 399.920618 657.346599 
L 400.480016 657.485862 
L 400.666481 657.418777 
L 401.039413 655.573817 
L 401.412344 657.226845 
L 402.531139 657.68421 
L 402.90407 657.748326 
L 403.277002 657.51291 
L 404.022865 657.996854 
L 404.768728 658.082779 
L 404.955193 657.459431 
L 405.328125 649.700918 
L 405.701056 656.649375 
L 405.887522 656.866432 
L 406.073988 653.044929 
L 406.446919 632.900883 
L 407.006316 655.619746 
L 407.192782 656.09771 
L 407.938645 656.30871 
L 408.125111 656.125782 
L 408.498042 654.287951 
L 408.684508 654.504174 
L 409.05744 656.029364 
L 409.243905 656.152189 
L 409.430371 656.02421 
L 409.616837 656.092767 
L 409.989768 655.72704 
L 410.3627 656.40237 
L 410.549165 656.132187 
L 410.735631 650.632788 
L 410.922097 638.833588 
L 411.108563 636.434648 
L 411.481494 653.937507 
L 411.66796 654.927568 
L 412.040891 654.997798 
L 412.227357 654.513595 
L 412.413823 654.393593 
L 412.786754 655.159553 
L 414.27848 655.471018 
L 414.651412 652.807973 
L 414.837877 653.221442 
L 415.210809 655.393255 
L 415.770206 655.611752 
L 417.448398 656.027232 
L 417.634863 653.999189 
L 418.007795 612.167082 
L 418.194261 617.96849 
L 418.380726 642.900857 
L 418.567192 652.132314 
L 418.753658 647.880846 
L 419.126589 593.488892 
L 419.685986 647.680503 
L 419.872452 647.64993 
L 420.058918 647.362762 
L 420.431849 640.699773 
L 420.618315 641.918038 
L 420.804781 646.115476 
L 420.991247 647.137798 
L 421.364178 646.731145 
L 422.110041 647.569354 
L 422.669438 647.775548 
L 422.855904 647.647411 
L 423.04237 646.452593 
L 423.415301 632.106592 
L 423.788233 638.498143 
L 423.974698 637.871663 
L 424.34763 645.592386 
L 424.534096 646.076374 
L 424.907027 646.311249 
L 425.093493 646.207797 
L 425.466424 641.892096 
L 425.65289 643.023731 
L 425.839356 645.337491 
L 426.025821 640.864152 
L 426.398753 612.263129 
L 426.95815 643.586237 
L 427.144616 643.377341 
L 427.331082 642.234732 
L 427.704013 626.755038 
L 427.890479 630.301987 
L 428.076945 637.482408 
L 428.822808 643.829826 
L 429.195739 643.56259 
L 429.755136 644.487845 
L 429.941602 644.396273 
L 430.314533 641.170679 
L 430.500999 641.935169 
L 430.873931 644.434119 
L 431.246862 644.739234 
L 431.619794 644.910266 
L 431.806259 644.87284 
L 431.992725 644.180849 
L 432.179191 644.022205 
L 432.365656 644.81555 
L 432.552122 644.94329 
L 432.738588 643.853257 
L 433.111519 640.3884 
L 433.484451 644.247052 
L 433.670917 644.576527 
L 433.857382 643.84541 
L 434.043848 642.205909 
L 434.230314 642.130188 
L 434.603245 644.825393 
L 435.162643 645.292472 
L 436.467903 645.886713 
L 436.654368 645.855884 
L 437.0273 645.599492 
L 437.586697 646.334157 
L 439.078423 646.99867 
L 439.264889 646.475487 
L 439.63782 639.169441 
L 439.824286 639.98847 
L 440.197217 646.256899 
L 440.383683 646.042288 
L 440.570149 645.6309 
L 440.94308 646.718184 
L 441.316012 646.973535 
L 445.604724 648.815724 
L 445.791189 648.724954 
L 446.164121 646.253206 
L 446.537052 648.644359 
L 446.909984 648.938794 
L 448.028778 649.357549 
L 448.40171 649.068449 
L 448.774641 649.332445 
L 449.147573 649.730887 
L 450.452833 650.236287 
L 450.639299 650.234396 
L 451.01223 650.04592 
L 451.758093 650.685212 
L 455.300942 651.931386 
L 455.487408 651.957912 
L 455.860339 651.283635 
L 456.046805 650.568254 
L 456.233271 647.577684 
L 456.606202 633.582894 
L 456.979134 648.050836 
L 457.165599 648.461974 
L 457.538531 649.880727 
L 457.724997 648.758529 
L 458.097928 642.878838 
L 458.284394 645.528787 
L 458.470859 646.595696 
L 458.843791 644.585885 
L 459.216722 646.327413 
L 459.403188 646.519142 
L 459.589654 647.100396 
L 459.77612 647.297723 
L 460.149051 646.928215 
L 460.521983 648.250202 
L 460.708448 648.507986 
L 461.08138 649.412249 
L 461.267846 649.554143 
L 461.640777 648.691738 
L 462.013708 649.480896 
L 462.38664 647.943649 
L 462.759571 649.653138 
L 463.132503 649.900932 
L 463.6919 650.111042 
L 464.064832 649.673638 
L 464.437763 649.29766 
L 464.624229 649.456907 
L 464.810694 649.96785 
L 465.183626 649.028821 
L 465.743023 650.363387 
L 466.30242 650.665501 
L 470.591132 652.224902 
L 470.964064 652.051057 
L 471.896392 652.641519 
L 472.082858 652.678622 
L 472.269324 652.252446 
L 472.45579 646.548784 
L 472.642255 636.949771 
L 472.828721 637.628391 
L 473.201653 650.995669 
L 473.388118 651.458851 
L 476.744502 652.638934 
L 476.930967 652.311448 
L 477.117433 651.695889 
L 477.303899 651.751606 
L 477.67683 652.345715 
L 478.049762 652.846952 
L 478.98209 653.187498 
L 485.321925 655.195654 
L 489.05124 656.255863 
L 489.424172 655.930638 
L 489.797103 656.369438 
L 490.170035 656.191559 
L 490.542966 656.54224 
L 490.915897 656.591998 
L 491.102363 655.965079 
L 491.288829 655.742341 
L 491.66176 656.671962 
L 493.339952 657.128317 
L 497.255732 658.113935 
L 497.628664 657.897857 
L 498.001595 658.175796 
L 498.374527 658.338698 
L 498.560993 658.377692 
L 498.747458 658.286977 
L 498.933924 658.069386 
L 499.306856 658.140683 
L 500.239184 658.577385 
L 500.42565 657.935458 
L 500.612116 656.754241 
L 500.798581 656.558696 
L 500.985047 657.112648 
L 501.171513 657.301679 
L 501.357979 656.990215 
L 501.544444 657.275582 
L 501.73091 658.165961 
L 501.917376 658.369395 
L 502.103842 658.38064 
L 502.290307 658.510451 
L 502.476773 658.481119 
L 502.663239 658.041354 
L 502.849705 656.840068 
L 503.03617 656.437651 
L 503.409102 658.357625 
L 503.782033 658.536802 
L 503.968499 658.318013 
L 504.34143 656.682071 
L 504.714362 658.361729 
L 505.087293 658.560093 
L 508.070745 659.23565 
L 508.257211 659.155212 
L 508.443677 658.939105 
L 508.630142 658.939293 
L 509.003074 659.358313 
L 510.308334 659.661724 
L 511.613594 659.929001 
L 511.986526 659.5818 
L 512.359457 659.74173 
L 512.732389 660.059863 
L 514.037649 660.344972 
L 515.529375 660.637708 
L 515.71584 660.546562 
L 516.088772 659.951239 
L 516.461703 660.663236 
L 517.207566 660.848748 
L 519.258689 661.141701 
L 520.004552 660.522926 
L 520.563949 661.001443 
L 521.123347 660.962887 
L 521.309812 660.250025 
L 521.682744 657.040297 
L 522.055675 660.569665 
L 522.242141 660.91676 
L 522.801538 661.032831 
L 522.988004 660.899485 
L 523.360935 659.008426 
L 523.547401 659.454424 
L 523.733867 659.205933 
L 523.920333 658.689792 
L 524.293264 659.586193 
L 524.666196 659.787762 
L 524.852661 659.572946 
L 525.039127 659.536594 
L 525.225593 659.616828 
L 525.412059 659.195753 
L 525.78499 651.006117 
L 526.344387 659.349905 
L 526.530853 657.409484 
L 526.717319 652.383463 
L 526.903784 651.203271 
L 527.276716 658.135436 
L 527.463182 657.753855 
L 527.836113 653.853837 
L 528.209045 655.163972 
L 528.39551 655.105885 
L 528.768442 656.566568 
L 528.954908 656.393139 
L 529.141373 656.801905 
L 529.514305 658.087185 
L 529.70077 658.098482 
L 530.260168 657.707351 
L 530.446633 656.513713 
L 530.633099 656.048952 
L 531.006031 658.030422 
L 531.192496 658.178365 
L 531.378962 658.151571 
L 531.751894 656.833533 
L 532.124825 657.753215 
L 532.311291 657.4641 
L 532.684222 656.298628 
L 532.870688 656.566605 
L 533.243619 655.276742 
L 533.616551 656.804863 
L 533.803017 657.139734 
L 533.989482 657.124665 
L 534.175948 656.654291 
L 534.54888 653.305743 
L 534.921811 657.114795 
L 535.108277 657.486394 
L 536.413537 657.832155 
L 536.786468 657.777349 
L 537.532331 658.090669 
L 537.905263 658.143761 
L 538.091729 657.431062 
L 538.46466 653.849259 
L 538.837592 656.865085 
L 539.210523 656.937289 
L 539.583454 657.810361 
L 539.76992 657.667204 
L 540.142852 657.045275 
L 540.329317 657.317087 
L 540.702249 657.058676 
L 541.07518 657.912401 
L 541.634578 658.085247 
L 541.821043 657.864732 
L 542.007509 657.344808 
L 542.193975 657.278968 
L 542.566906 658.114497 
L 543.126303 658.304467 
L 547.974413 659.414556 
L 548.160878 659.392487 
L 548.53381 658.368061 
L 548.720276 659.115477 
L 548.906741 659.40312 
L 550.957864 659.828265 
L 551.703727 659.98406 
L 551.890193 659.841968 
L 552.076659 659.22574 
L 552.263124 659.144779 
L 552.44959 659.775252 
L 552.636056 659.996203 
L 553.568385 660.085658 
L 553.75485 659.040752 
L 553.941316 654.976343 
L 554.127782 653.963076 
L 554.314248 657.838675 
L 554.500713 659.03584 
L 555.060111 659.09474 
L 555.246576 658.664543 
L 555.433042 657.729244 
L 555.619508 657.860771 
L 555.805973 658.801949 
L 555.992439 659.091293 
L 558.043562 659.501149 
L 559.721754 659.808345 
L 559.90822 659.043066 
L 560.281151 650.659906 
L 560.840548 658.916049 
L 561.027014 658.918746 
L 561.21348 658.215058 
L 561.399946 657.042198 
L 561.586411 656.707877 
L 562.145808 658.501971 
L 562.51874 654.045048 
L 562.891671 655.560417 
L 563.264603 658.103876 
L 563.451069 658.305166 
L 563.637534 657.733725 
L 563.824 654.838389 
L 564.010466 653.977862 
L 564.196932 656.684493 
L 564.383397 657.002714 
L 564.569863 656.734811 
L 564.942795 657.590581 
L 566.061589 657.898779 
L 569.231506 658.595267 
L 569.417972 657.347394 
L 569.790904 651.931918 
L 570.163835 657.368726 
L 570.350301 657.990942 
L 570.723232 657.065036 
L 571.096164 657.135399 
L 571.469095 658.053969 
L 572.028492 658.246627 
L 573.333753 658.533989 
L 573.706684 657.540461 
L 573.89315 657.673182 
L 574.266081 658.565792 
L 575.011944 658.766502 
L 575.384876 658.730044 
L 575.757807 658.007134 
L 576.130739 658.82995 
L 576.690136 659.006237 
L 579.860053 659.554621 
L 580.232985 659.15564 
L 580.605916 659.599011 
L 583.216437 660.280808 
L 584.521697 660.537127 
L 584.894628 660.307191 
L 585.454025 660.683981 
L 588.996874 661.353625 
L 589.18334 661.259701 
L 589.556272 660.003536 
L 589.742737 658.799847 
L 589.929203 658.450956 
L 590.302135 660.790899 
L 590.4886 660.829278 
L 591.047998 660.206905 
L 591.234463 659.305507 
L 591.420929 659.060504 
L 591.607395 659.233658 
L 591.79386 659.585241 
L 591.980326 658.714455 
L 592.166792 656.80495 
L 592.353258 656.697364 
L 592.726189 658.493016 
L 593.099121 656.999818 
L 593.285586 657.706851 
L 593.658518 651.562244 
L 594.031449 656.767576 
L 594.217915 657.296723 
L 594.404381 656.225774 
L 594.590846 654.463348 
L 594.963778 649.329653 
L 595.336709 657.588386 
L 595.523175 658.612072 
L 595.896107 658.888156 
L 596.269038 658.9488 
L 596.455504 658.66026 
L 596.828435 657.608488 
L 597.014901 657.685255 
L 597.201367 658.165854 
L 597.574298 657.716644 
L 597.94723 658.83041 
L 598.133695 658.941147 
L 598.506627 658.870062 
L 598.879558 659.01183 
L 599.25249 658.989901 
L 599.438956 658.153146 
L 599.811887 655.64576 
L 600.371284 657.602666 
L 600.55775 657.606408 
L 600.930682 658.79814 
L 601.303613 658.865084 
L 601.490079 658.88328 
L 601.86301 658.627644 
L 602.235942 659.054771 
L 602.608873 659.107522 
L 602.981805 657.906617 
L 603.354736 659.054756 
L 603.541202 659.137793 
L 603.727668 659.032725 
L 603.914133 657.315196 
L 604.100599 653.943362 
L 604.287065 653.715656 
L 604.659996 658.478977 
L 604.846462 658.705693 
L 605.778791 658.915255 
L 605.965256 658.83317 
L 606.338188 657.811128 
L 606.711119 658.878239 
L 607.084051 659.033006 
L 613.610352 660.431576 
L 613.796817 660.453282 
L 614.169749 659.954858 
L 614.729146 660.566889 
L 616.407338 660.823397 
L 616.593803 656.729985 
L 616.966735 579.164174 
L 617.153201 589.266487 
L 617.339666 637.820012 
L 617.526132 655.154722 
L 617.712598 656.537248 
L 617.899063 655.74371 
L 618.271995 649.812614 
L 618.831392 656.032814 
L 619.950187 656.316294 
L 622.933638 657.057408 
L 623.120104 657.016319 
L 623.30657 656.059857 
L 623.493036 652.525711 
L 623.679501 645.49937 
L 623.865967 645.477014 
L 624.052433 652.988795 
L 624.238898 655.205857 
L 627.22235 655.952901 
L 627.408816 653.025952 
L 627.781747 612.612043 
L 628.341145 651.443264 
L 628.714076 651.756051 
L 629.087008 651.151102 
L 629.459939 651.848625 
L 629.832871 652.030307 
L 630.019336 651.772043 
L 630.578733 647.750393 
L 630.765199 647.978126 
L 630.951665 648.020296 
L 631.138131 648.64616 
L 631.511062 651.425651 
L 631.697528 650.619091 
L 631.883994 647.258592 
L 632.256925 635.926633 
L 632.443391 638.691376 
L 632.816322 647.522205 
L 633.37572 649.153323 
L 633.748651 647.30917 
L 633.935117 647.688397 
L 634.494514 650.259799 
L 634.68098 650.521844 
L 635.240377 650.68058 
L 635.613308 650.42117 
L 635.98624 650.418861 
L 636.359171 650.366107 
L 636.732103 650.304902 
L 637.2915 651.174591 
L 638.223829 651.590971 
L 641.020815 652.569382 
L 641.393746 652.148299 
L 641.766678 652.726074 
L 642.512541 653.013552 
L 646.05539 654.166058 
L 646.241855 654.099201 
L 646.428321 653.838876 
L 646.614787 653.804672 
L 646.987718 654.349899 
L 647.174184 654.387295 
L 647.547115 652.761816 
L 647.733581 653.056232 
L 648.106513 654.320664 
L 648.66591 654.615608 
L 648.852376 654.667092 
L 649.038841 654.576233 
L 649.225307 653.941995 
L 649.598239 651.490797 
L 650.157636 654.546289 
L 650.717033 654.781586 
L 655.565142 656.193893 
L 655.938074 656.060909 
L 656.311005 656.33944 
L 656.870402 655.879752 
L 657.056868 655.404357 
L 657.429799 651.454852 
L 657.802731 655.155345 
L 658.175662 655.72447 
L 658.362128 655.360402 
L 659.107991 651.384613 
L 659.294457 651.726773 
L 659.667388 655.252914 
L 659.853854 655.690733 
L 660.04032 655.667808 
L 660.413251 654.658355 
L 660.786183 655.530325 
L 660.972648 655.227415 
L 661.34558 652.795417 
L 661.718511 655.406743 
L 662.091443 655.713588 
L 662.65084 655.804225 
L 663.023771 655.020936 
L 663.396703 650.193132 
L 663.769634 652.434556 
L 663.9561 650.911798 
L 664.142566 650.916161 
L 664.515497 654.596996 
L 664.701963 655.140405 
L 664.888429 655.228978 
L 665.074895 655.070845 
L 665.26136 654.516632 
L 665.634292 652.020865 
L 665.820758 652.78008 
L 666.193689 655.024258 
L 666.56662 655.265579 
L 666.753086 654.917391 
L 667.126018 652.365542 
L 667.312483 652.895141 
L 667.685415 654.48061 
L 667.871881 654.211399 
L 668.058346 653.485045 
L 668.244812 653.507796 
L 668.617744 654.862966 
L 668.804209 655.141565 
L 669.177141 655.256809 
L 669.363606 655.226264 
L 669.736538 652.929356 
L 669.923004 653.288997 
L 670.295935 654.831622 
L 670.482401 655.189088 
L 671.041798 655.374086 
L 671.601195 655.35402 
L 671.974127 655.631996 
L 672.906455 655.887557 
L 673.279387 655.568165 
L 673.465853 655.759381 
L 673.465853 655.759381 
" clip-path="url(#pc57543bd5a)" style="fill: none; stroke: #ff7f0e; stroke-width: 1.5; stroke-linecap: square"/>
   </g>
   <g id="patch_9">
    <path d="M 30.103125 684.92 
L 30.103125 386.16 
" style="fill: none; stroke: #000000; stroke-width: 0.8; stroke-linejoin: miter; stroke-linecap: square"/>
   </g>
   <g id="patch_10">
    <path d="M 704.102173 684.92 
L 704.102173 386.16 
" style="fill: none; stroke: #000000; stroke-width: 0.8; stroke-linejoin: miter; stroke-linecap: square"/>
   </g>
   <g id="patch_11">
    <path d="M 30.103125 684.92 
L 704.102173 684.92 
" style="fill: none; stroke: #000000; stroke-width: 0.8; stroke-linejoin: miter; stroke-linecap: square"/>
   </g>
   <g id="patch_12">
    <path d="M 30.103125 386.16 
L 704.102173 386.16 
" style="fill: none; stroke: #000000; stroke-width: 0.8; stroke-linejoin: miter; stroke-linecap: square"/>
   </g>
   <g id="text_38">
    <!-- 2 transformation(s) -->
    <g transform="translate(308.987962 380.16) scale(0.12 -0.12)">
     <use xlink:href="#DejaVuSans-32"/>
     <use xlink:href="#DejaVuSans-20" x="63.623047"/>
     <use xlink:href="#DejaVuSans-74" x="95.410156"/>
     <use xlink:href="#DejaVuSans-72" x="134.619141"/>
     <use xlink:href="#DejaVuSans-61" x="175.732422"/>
     <use xlink:href="#DejaVuSans-6e" x="237.011719"/>
     <use xlink:href="#DejaVuSans-73" x="300.390625"/>
     <use xlink:href="#DejaVuSans-66" x="352.490234"/>
     <use xlink:href="#DejaVuSans-6f" x="387.695312"/>
     <use xlink:href="#DejaVuSans-72" x="448.876953"/>
     <use xlink:href="#DejaVuSans-6d" x="488.240234"/>
     <use xlink:href="#DejaVuSans-61" x="585.652344"/>
     <use xlink:href="#DejaVuSans-74" x="646.931641"/>
     <use xlink:href="#DejaVuSans-69" x="686.140625"/>
     <use xlink:href="#DejaVuSans-6f" x="713.923828"/>
     <use xlink:href="#DejaVuSans-6e" x="775.105469"/>
     <use xlink:href="#DejaVuSans-28" x="838.484375"/>
     <use xlink:href="#DejaVuSans-73" x="877.498047"/>
     <use xlink:href="#DejaVuSans-29" x="929.597656"/>
    </g>
   </g>
  </g>
  <g id="text_39">
   <!-- training -->
   <g transform="translate(333.219687 16.318125) scale(0.12 -0.12)">
    <defs>
     <path id="DejaVuSans-67" d="M 2906 1791 
Q 2906 2416 2648 2759 
Q 2391 3103 1925 3103 
Q 1463 3103 1205 2759 
Q 947 2416 947 1791 
Q 947 1169 1205 825 
Q 1463 481 1925 481 
Q 2391 481 2648 825 
Q 2906 1169 2906 1791 
z
M 3481 434 
Q 3481 -459 3084 -895 
Q 2688 -1331 1869 -1331 
Q 1566 -1331 1297 -1286 
Q 1028 -1241 775 -1147 
L 775 -588 
Q 1028 -725 1275 -790 
Q 1522 -856 1778 -856 
Q 2344 -856 2625 -561 
Q 2906 -266 2906 331 
L 2906 616 
Q 2728 306 2450 153 
Q 2172 0 1784 0 
Q 1141 0 747 490 
Q 353 981 353 1791 
Q 353 2603 747 3093 
Q 1141 3584 1784 3584 
Q 2172 3584 2450 3431 
Q 2728 3278 2906 2969 
L 2906 3500 
L 3481 3500 
L 3481 434 
z
" transform="scale(0.015625)"/>
    </defs>
    <use xlink:href="#DejaVuSans-74"/>
    <use xlink:href="#DejaVuSans-72" x="39.208984"/>
    <use xlink:href="#DejaVuSans-61" x="80.322266"/>
    <use xlink:href="#DejaVuSans-69" x="141.601562"/>
    <use xlink:href="#DejaVuSans-6e" x="169.384766"/>
    <use xlink:href="#DejaVuSans-69" x="232.763672"/>
    <use xlink:href="#DejaVuSans-6e" x="260.546875"/>
    <use xlink:href="#DejaVuSans-67" x="323.925781"/>
   </g>
  </g>
 </g>
 <defs>
  <clipPath id="pb7d98d9ff7">
   <rect x="30.103125" y="43.44" width="673.999048" height="298.76"/>
  </clipPath>
  <clipPath id="pc57543bd5a">
   <rect x="30.103125" y="386.16" width="673.999048" height="298.76"/>
  </clipPath>
 </defs>
</svg>
