<?xml version="1.0" encoding="utf-8" standalone="no"?>
<!DOCTYPE svg PUBLIC "-//W3C//DTD SVG 1.1//EN"
  "http://www.w3.org/Graphics/SVG/1.1/DTD/svg11.dtd">
<svg xmlns:xlink="http://www.w3.org/1999/xlink" width="709.489261pt" height="708.798125pt" viewBox="0 0 709.489261 708.798125" xmlns="http://www.w3.org/2000/svg" version="1.1">
 <metadata>
  <rdf:RDF xmlns:dc="http://purl.org/dc/elements/1.1/" xmlns:cc="http://creativecommons.org/ns#" xmlns:rdf="http://www.w3.org/1999/02/22-rdf-syntax-ns#">
   <cc:Work>
    <dc:type rdf:resource="http://purl.org/dc/dcmitype/StillImage"/>
    <dc:date>2023-06-08T08:40:01.639899</dc:date>
    <dc:format>image/svg+xml</dc:format>
    <dc:creator>
     <cc:Agent>
      <dc:title>Matplotlib v3.7.1, https://matplotlib.org/</dc:title>
     </cc:Agent>
    </dc:creator>
   </cc:Work>
  </rdf:RDF>
 </metadata>
 <defs>
  <style type="text/css">*{stroke-linejoin: round; stroke-linecap: butt}</style>
 </defs>
 <g id="figure_1">
  <g id="patch_1">
   <path d="M 0 708.798125 
L 709.489261 708.798125 
L 709.489261 0 
L 0 0 
z
" style="fill: #ffffff"/>
  </g>
  <g id="axes_1">
   <g id="patch_2">
    <path d="M 36.465625 342.2 
L 702.289261 342.2 
L 702.289261 43.44 
L 36.465625 43.44 
z
" style="fill: #ffffff"/>
   </g>
   <g id="matplotlib.axis_1">
    <g id="xtick_1">
     <g id="line2d_1">
      <defs>
       <path id="medd6a6f931" d="M 0 0 
L 0 3.5 
" style="stroke: #000000; stroke-width: 0.8"/>
      </defs>
      <g>
       <use xlink:href="#medd6a6f931" x="66.562152" y="342.2" style="stroke: #000000; stroke-width: 0.8"/>
      </g>
     </g>
     <g id="text_1">
      <!-- 2014-07-01 -->
      <g transform="translate(37.504339 356.798437) scale(0.1 -0.1)">
       <defs>
        <path id="DejaVuSans-32" d="M 1228 531 
L 3431 531 
L 3431 0 
L 469 0 
L 469 531 
Q 828 903 1448 1529 
Q 2069 2156 2228 2338 
Q 2531 2678 2651 2914 
Q 2772 3150 2772 3378 
Q 2772 3750 2511 3984 
Q 2250 4219 1831 4219 
Q 1534 4219 1204 4116 
Q 875 4013 500 3803 
L 500 4441 
Q 881 4594 1212 4672 
Q 1544 4750 1819 4750 
Q 2544 4750 2975 4387 
Q 3406 4025 3406 3419 
Q 3406 3131 3298 2873 
Q 3191 2616 2906 2266 
Q 2828 2175 2409 1742 
Q 1991 1309 1228 531 
z
" transform="scale(0.015625)"/>
        <path id="DejaVuSans-30" d="M 2034 4250 
Q 1547 4250 1301 3770 
Q 1056 3291 1056 2328 
Q 1056 1369 1301 889 
Q 1547 409 2034 409 
Q 2525 409 2770 889 
Q 3016 1369 3016 2328 
Q 3016 3291 2770 3770 
Q 2525 4250 2034 4250 
z
M 2034 4750 
Q 2819 4750 3233 4129 
Q 3647 3509 3647 2328 
Q 3647 1150 3233 529 
Q 2819 -91 2034 -91 
Q 1250 -91 836 529 
Q 422 1150 422 2328 
Q 422 3509 836 4129 
Q 1250 4750 2034 4750 
z
" transform="scale(0.015625)"/>
        <path id="DejaVuSans-31" d="M 794 531 
L 1825 531 
L 1825 4091 
L 703 3866 
L 703 4441 
L 1819 4666 
L 2450 4666 
L 2450 531 
L 3481 531 
L 3481 0 
L 794 0 
L 794 531 
z
" transform="scale(0.015625)"/>
        <path id="DejaVuSans-34" d="M 2419 4116 
L 825 1625 
L 2419 1625 
L 2419 4116 
z
M 2253 4666 
L 3047 4666 
L 3047 1625 
L 3713 1625 
L 3713 1100 
L 3047 1100 
L 3047 0 
L 2419 0 
L 2419 1100 
L 313 1100 
L 313 1709 
L 2253 4666 
z
" transform="scale(0.015625)"/>
        <path id="DejaVuSans-2d" d="M 313 2009 
L 1997 2009 
L 1997 1497 
L 313 1497 
L 313 2009 
z
" transform="scale(0.015625)"/>
        <path id="DejaVuSans-37" d="M 525 4666 
L 3525 4666 
L 3525 4397 
L 1831 0 
L 1172 0 
L 2766 4134 
L 525 4134 
L 525 4666 
z
" transform="scale(0.015625)"/>
       </defs>
       <use xlink:href="#DejaVuSans-32"/>
       <use xlink:href="#DejaVuSans-30" x="63.623047"/>
       <use xlink:href="#DejaVuSans-31" x="127.246094"/>
       <use xlink:href="#DejaVuSans-34" x="190.869141"/>
       <use xlink:href="#DejaVuSans-2d" x="254.492188"/>
       <use xlink:href="#DejaVuSans-30" x="290.576172"/>
       <use xlink:href="#DejaVuSans-37" x="354.199219"/>
       <use xlink:href="#DejaVuSans-2d" x="417.822266"/>
       <use xlink:href="#DejaVuSans-30" x="453.90625"/>
       <use xlink:href="#DejaVuSans-31" x="517.529297"/>
      </g>
     </g>
    </g>
    <g id="xtick_2">
     <g id="line2d_2">
      <g>
       <use xlink:href="#medd6a6f931" x="187.654632" y="342.2" style="stroke: #000000; stroke-width: 0.8"/>
      </g>
     </g>
     <g id="text_2">
      <!-- 2014-07-02 -->
      <g transform="translate(158.596819 356.798437) scale(0.1 -0.1)">
       <use xlink:href="#DejaVuSans-32"/>
       <use xlink:href="#DejaVuSans-30" x="63.623047"/>
       <use xlink:href="#DejaVuSans-31" x="127.246094"/>
       <use xlink:href="#DejaVuSans-34" x="190.869141"/>
       <use xlink:href="#DejaVuSans-2d" x="254.492188"/>
       <use xlink:href="#DejaVuSans-30" x="290.576172"/>
       <use xlink:href="#DejaVuSans-37" x="354.199219"/>
       <use xlink:href="#DejaVuSans-2d" x="417.822266"/>
       <use xlink:href="#DejaVuSans-30" x="453.90625"/>
       <use xlink:href="#DejaVuSans-32" x="517.529297"/>
      </g>
     </g>
    </g>
    <g id="xtick_3">
     <g id="line2d_3">
      <g>
       <use xlink:href="#medd6a6f931" x="308.747111" y="342.2" style="stroke: #000000; stroke-width: 0.8"/>
      </g>
     </g>
     <g id="text_3">
      <!-- 2014-07-03 -->
      <g transform="translate(279.689299 356.798437) scale(0.1 -0.1)">
       <defs>
        <path id="DejaVuSans-33" d="M 2597 2516 
Q 3050 2419 3304 2112 
Q 3559 1806 3559 1356 
Q 3559 666 3084 287 
Q 2609 -91 1734 -91 
Q 1441 -91 1130 -33 
Q 819 25 488 141 
L 488 750 
Q 750 597 1062 519 
Q 1375 441 1716 441 
Q 2309 441 2620 675 
Q 2931 909 2931 1356 
Q 2931 1769 2642 2001 
Q 2353 2234 1838 2234 
L 1294 2234 
L 1294 2753 
L 1863 2753 
Q 2328 2753 2575 2939 
Q 2822 3125 2822 3475 
Q 2822 3834 2567 4026 
Q 2313 4219 1838 4219 
Q 1578 4219 1281 4162 
Q 984 4106 628 3988 
L 628 4550 
Q 988 4650 1302 4700 
Q 1616 4750 1894 4750 
Q 2613 4750 3031 4423 
Q 3450 4097 3450 3541 
Q 3450 3153 3228 2886 
Q 3006 2619 2597 2516 
z
" transform="scale(0.015625)"/>
       </defs>
       <use xlink:href="#DejaVuSans-32"/>
       <use xlink:href="#DejaVuSans-30" x="63.623047"/>
       <use xlink:href="#DejaVuSans-31" x="127.246094"/>
       <use xlink:href="#DejaVuSans-34" x="190.869141"/>
       <use xlink:href="#DejaVuSans-2d" x="254.492188"/>
       <use xlink:href="#DejaVuSans-30" x="290.576172"/>
       <use xlink:href="#DejaVuSans-37" x="354.199219"/>
       <use xlink:href="#DejaVuSans-2d" x="417.822266"/>
       <use xlink:href="#DejaVuSans-30" x="453.90625"/>
       <use xlink:href="#DejaVuSans-33" x="517.529297"/>
      </g>
     </g>
    </g>
    <g id="xtick_4">
     <g id="line2d_4">
      <g>
       <use xlink:href="#medd6a6f931" x="429.839591" y="342.2" style="stroke: #000000; stroke-width: 0.8"/>
      </g>
     </g>
     <g id="text_4">
      <!-- 2014-07-04 -->
      <g transform="translate(400.781779 356.798437) scale(0.1 -0.1)">
       <use xlink:href="#DejaVuSans-32"/>
       <use xlink:href="#DejaVuSans-30" x="63.623047"/>
       <use xlink:href="#DejaVuSans-31" x="127.246094"/>
       <use xlink:href="#DejaVuSans-34" x="190.869141"/>
       <use xlink:href="#DejaVuSans-2d" x="254.492188"/>
       <use xlink:href="#DejaVuSans-30" x="290.576172"/>
       <use xlink:href="#DejaVuSans-37" x="354.199219"/>
       <use xlink:href="#DejaVuSans-2d" x="417.822266"/>
       <use xlink:href="#DejaVuSans-30" x="453.90625"/>
       <use xlink:href="#DejaVuSans-34" x="517.529297"/>
      </g>
     </g>
    </g>
    <g id="xtick_5">
     <g id="line2d_5">
      <g>
       <use xlink:href="#medd6a6f931" x="550.932071" y="342.2" style="stroke: #000000; stroke-width: 0.8"/>
      </g>
     </g>
     <g id="text_5">
      <!-- 2014-07-05 -->
      <g transform="translate(521.874258 356.798437) scale(0.1 -0.1)">
       <defs>
        <path id="DejaVuSans-35" d="M 691 4666 
L 3169 4666 
L 3169 4134 
L 1269 4134 
L 1269 2991 
Q 1406 3038 1543 3061 
Q 1681 3084 1819 3084 
Q 2600 3084 3056 2656 
Q 3513 2228 3513 1497 
Q 3513 744 3044 326 
Q 2575 -91 1722 -91 
Q 1428 -91 1123 -41 
Q 819 9 494 109 
L 494 744 
Q 775 591 1075 516 
Q 1375 441 1709 441 
Q 2250 441 2565 725 
Q 2881 1009 2881 1497 
Q 2881 1984 2565 2268 
Q 2250 2553 1709 2553 
Q 1456 2553 1204 2497 
Q 953 2441 691 2322 
L 691 4666 
z
" transform="scale(0.015625)"/>
       </defs>
       <use xlink:href="#DejaVuSans-32"/>
       <use xlink:href="#DejaVuSans-30" x="63.623047"/>
       <use xlink:href="#DejaVuSans-31" x="127.246094"/>
       <use xlink:href="#DejaVuSans-34" x="190.869141"/>
       <use xlink:href="#DejaVuSans-2d" x="254.492188"/>
       <use xlink:href="#DejaVuSans-30" x="290.576172"/>
       <use xlink:href="#DejaVuSans-37" x="354.199219"/>
       <use xlink:href="#DejaVuSans-2d" x="417.822266"/>
       <use xlink:href="#DejaVuSans-30" x="453.90625"/>
       <use xlink:href="#DejaVuSans-35" x="517.529297"/>
      </g>
     </g>
    </g>
    <g id="xtick_6">
     <g id="line2d_6">
      <g>
       <use xlink:href="#medd6a6f931" x="672.024551" y="342.2" style="stroke: #000000; stroke-width: 0.8"/>
      </g>
     </g>
     <g id="text_6">
      <!-- 2014-07-06 -->
      <g transform="translate(642.966738 356.798437) scale(0.1 -0.1)">
       <defs>
        <path id="DejaVuSans-36" d="M 2113 2584 
Q 1688 2584 1439 2293 
Q 1191 2003 1191 1497 
Q 1191 994 1439 701 
Q 1688 409 2113 409 
Q 2538 409 2786 701 
Q 3034 994 3034 1497 
Q 3034 2003 2786 2293 
Q 2538 2584 2113 2584 
z
M 3366 4563 
L 3366 3988 
Q 3128 4100 2886 4159 
Q 2644 4219 2406 4219 
Q 1781 4219 1451 3797 
Q 1122 3375 1075 2522 
Q 1259 2794 1537 2939 
Q 1816 3084 2150 3084 
Q 2853 3084 3261 2657 
Q 3669 2231 3669 1497 
Q 3669 778 3244 343 
Q 2819 -91 2113 -91 
Q 1303 -91 875 529 
Q 447 1150 447 2328 
Q 447 3434 972 4092 
Q 1497 4750 2381 4750 
Q 2619 4750 2861 4703 
Q 3103 4656 3366 4563 
z
" transform="scale(0.015625)"/>
       </defs>
       <use xlink:href="#DejaVuSans-32"/>
       <use xlink:href="#DejaVuSans-30" x="63.623047"/>
       <use xlink:href="#DejaVuSans-31" x="127.246094"/>
       <use xlink:href="#DejaVuSans-34" x="190.869141"/>
       <use xlink:href="#DejaVuSans-2d" x="254.492188"/>
       <use xlink:href="#DejaVuSans-30" x="290.576172"/>
       <use xlink:href="#DejaVuSans-37" x="354.199219"/>
       <use xlink:href="#DejaVuSans-2d" x="417.822266"/>
       <use xlink:href="#DejaVuSans-30" x="453.90625"/>
       <use xlink:href="#DejaVuSans-36" x="517.529297"/>
      </g>
     </g>
    </g>
   </g>
   <g id="matplotlib.axis_2">
    <g id="ytick_1">
     <g id="line2d_7">
      <defs>
       <path id="m0dae38f899" d="M 0 0 
L -3.5 0 
" style="stroke: #000000; stroke-width: 0.8"/>
      </defs>
      <g>
       <use xlink:href="#m0dae38f899" x="36.465625" y="328.630908" style="stroke: #000000; stroke-width: 0.8"/>
      </g>
     </g>
     <g id="text_7">
      <!-- 0.00 -->
      <g transform="translate(7.2 332.430126) scale(0.1 -0.1)">
       <defs>
        <path id="DejaVuSans-2e" d="M 684 794 
L 1344 794 
L 1344 0 
L 684 0 
L 684 794 
z
" transform="scale(0.015625)"/>
       </defs>
       <use xlink:href="#DejaVuSans-30"/>
       <use xlink:href="#DejaVuSans-2e" x="63.623047"/>
       <use xlink:href="#DejaVuSans-30" x="95.410156"/>
       <use xlink:href="#DejaVuSans-30" x="159.033203"/>
      </g>
     </g>
    </g>
    <g id="ytick_2">
     <g id="line2d_8">
      <g>
       <use xlink:href="#m0dae38f899" x="36.465625" y="290.678424" style="stroke: #000000; stroke-width: 0.8"/>
      </g>
     </g>
     <g id="text_8">
      <!-- 0.25 -->
      <g transform="translate(7.2 294.477643) scale(0.1 -0.1)">
       <use xlink:href="#DejaVuSans-30"/>
       <use xlink:href="#DejaVuSans-2e" x="63.623047"/>
       <use xlink:href="#DejaVuSans-32" x="95.410156"/>
       <use xlink:href="#DejaVuSans-35" x="159.033203"/>
      </g>
     </g>
    </g>
    <g id="ytick_3">
     <g id="line2d_9">
      <g>
       <use xlink:href="#m0dae38f899" x="36.465625" y="252.725941" style="stroke: #000000; stroke-width: 0.8"/>
      </g>
     </g>
     <g id="text_9">
      <!-- 0.50 -->
      <g transform="translate(7.2 256.52516) scale(0.1 -0.1)">
       <use xlink:href="#DejaVuSans-30"/>
       <use xlink:href="#DejaVuSans-2e" x="63.623047"/>
       <use xlink:href="#DejaVuSans-35" x="95.410156"/>
       <use xlink:href="#DejaVuSans-30" x="159.033203"/>
      </g>
     </g>
    </g>
    <g id="ytick_4">
     <g id="line2d_10">
      <g>
       <use xlink:href="#m0dae38f899" x="36.465625" y="214.773457" style="stroke: #000000; stroke-width: 0.8"/>
      </g>
     </g>
     <g id="text_10">
      <!-- 0.75 -->
      <g transform="translate(7.2 218.572676) scale(0.1 -0.1)">
       <use xlink:href="#DejaVuSans-30"/>
       <use xlink:href="#DejaVuSans-2e" x="63.623047"/>
       <use xlink:href="#DejaVuSans-37" x="95.410156"/>
       <use xlink:href="#DejaVuSans-35" x="159.033203"/>
      </g>
     </g>
    </g>
    <g id="ytick_5">
     <g id="line2d_11">
      <g>
       <use xlink:href="#m0dae38f899" x="36.465625" y="176.820974" style="stroke: #000000; stroke-width: 0.8"/>
      </g>
     </g>
     <g id="text_11">
      <!-- 1.00 -->
      <g transform="translate(7.2 180.620193) scale(0.1 -0.1)">
       <use xlink:href="#DejaVuSans-31"/>
       <use xlink:href="#DejaVuSans-2e" x="63.623047"/>
       <use xlink:href="#DejaVuSans-30" x="95.410156"/>
       <use xlink:href="#DejaVuSans-30" x="159.033203"/>
      </g>
     </g>
    </g>
    <g id="ytick_6">
     <g id="line2d_12">
      <g>
       <use xlink:href="#m0dae38f899" x="36.465625" y="138.86849" style="stroke: #000000; stroke-width: 0.8"/>
      </g>
     </g>
     <g id="text_12">
      <!-- 1.25 -->
      <g transform="translate(7.2 142.667709) scale(0.1 -0.1)">
       <use xlink:href="#DejaVuSans-31"/>
       <use xlink:href="#DejaVuSans-2e" x="63.623047"/>
       <use xlink:href="#DejaVuSans-32" x="95.410156"/>
       <use xlink:href="#DejaVuSans-35" x="159.033203"/>
      </g>
     </g>
    </g>
    <g id="ytick_7">
     <g id="line2d_13">
      <g>
       <use xlink:href="#m0dae38f899" x="36.465625" y="100.916007" style="stroke: #000000; stroke-width: 0.8"/>
      </g>
     </g>
     <g id="text_13">
      <!-- 1.50 -->
      <g transform="translate(7.2 104.715226) scale(0.1 -0.1)">
       <use xlink:href="#DejaVuSans-31"/>
       <use xlink:href="#DejaVuSans-2e" x="63.623047"/>
       <use xlink:href="#DejaVuSans-35" x="95.410156"/>
       <use xlink:href="#DejaVuSans-30" x="159.033203"/>
      </g>
     </g>
    </g>
    <g id="ytick_8">
     <g id="line2d_14">
      <g>
       <use xlink:href="#m0dae38f899" x="36.465625" y="62.963524" style="stroke: #000000; stroke-width: 0.8"/>
      </g>
     </g>
     <g id="text_14">
      <!-- 1.75 -->
      <g transform="translate(7.2 66.762742) scale(0.1 -0.1)">
       <use xlink:href="#DejaVuSans-31"/>
       <use xlink:href="#DejaVuSans-2e" x="63.623047"/>
       <use xlink:href="#DejaVuSans-37" x="95.410156"/>
       <use xlink:href="#DejaVuSans-35" x="159.033203"/>
      </g>
     </g>
    </g>
   </g>
   <g id="line2d_15">
    <path d="M 66.730336 328.614302 
L 67.991716 328.458283 
L 69.084912 328.037177 
L 72.112224 325.985852 
L 72.700868 325.565948 
L 73.878156 324.715989 
L 74.550892 324.436783 
L 75.30772 324.35658 
L 76.400916 324.485924 
L 79.596412 324.999467 
L 80.185056 324.8227 
L 80.689608 324.497552 
L 81.782804 323.272953 
L 82.960092 320.676054 
L 83.380552 318.575128 
L 83.548736 318.136154 
L 83.969196 315.376103 
L 84.13738 314.887328 
L 84.473748 312.336577 
L 84.641932 312.026018 
L 84.810116 311.897121 
L 85.146484 309.81653 
L 85.39876 309.661144 
L 85.651036 307.735422 
L 85.81922 307.514675 
L 85.987404 307.509606 
L 86.23968 305.480637 
L 86.407864 305.245211 
L 86.491956 305.282351 
L 86.576048 304.98748 
L 86.828324 301.32073 
L 87.164692 299.963079 
L 87.416968 295.428755 
L 87.92152 290.334384 
L 88.257888 285.263606 
L 88.426072 283.128314 
L 88.76244 276.522866 
L 89.014716 273.147801 
L 89.351084 266.413407 
L 89.687452 260.669175 
L 90.107912 254.038211 
L 91.201108 237.000952 
L 91.453384 234.606717 
L 91.70566 231.058435 
L 92.042028 228.498384 
L 92.294304 225.165721 
L 92.630672 222.947327 
L 92.882948 220.186162 
L 93.219316 218.502521 
L 93.471592 216.457506 
L 93.892052 215.271971 
L 94.144328 214.083304 
L 94.480696 213.872228 
L 94.64888 213.353672 
L 94.817064 213.47324 
L 94.985248 213.713923 
L 95.06934 213.066326 
L 95.237524 209.132828 
L 95.321616 209.027149 
L 95.4898 209.142537 
L 95.573892 209.045536 
L 95.742076 208.252926 
L 96.582996 204.053454 
L 96.75118 203.881775 
L 96.919364 204.057372 
L 97.255732 205.182327 
L 97.760284 208.168023 
L 98.601204 214.267217 
L 98.685296 213.556007 
L 98.85348 206.886546 
L 99.189848 208.052201 
L 99.27394 206.09104 
L 99.442124 197.249431 
L 99.6944 196.629576 
L 99.862584 194.477806 
L 99.946676 191.321753 
L 100.198952 178.837305 
L 100.451228 172.750616 
L 101.628516 119.215723 
L 102.133068 101.104235 
L 102.301252 96.623054 
L 102.553528 87.829357 
L 102.973988 81.891211 
L 103.142172 76.147988 
L 103.562632 73.219054 
L 103.730816 69.11851 
L 103.983092 68.696485 
L 104.067184 68.65468 
L 104.151276 67.882294 
L 104.31946 64.855038 
L 104.403552 64.893947 
L 104.655828 65.495913 
L 104.73992 65.121682 
L 104.908104 62.958999 
L 105.16038 64.111535 
L 105.244472 64.582585 
L 105.328564 64.530267 
L 105.496748 63.164456 
L 106.0013 66.687393 
L 106.085392 66.004823 
L 106.169484 66.248917 
L 106.589944 70.375141 
L 106.674036 70.071344 
L 106.84222 71.474796 
L 107.178588 75.11265 
L 107.26268 75.014491 
L 107.430864 76.527105 
L 107.851324 80.314297 
L 108.1036 82.815342 
L 108.608152 87.277376 
L 109.028612 91.316444 
L 109.112704 91.129301 
L 109.280888 92.368377 
L 109.617256 94.957899 
L 109.701348 94.319341 
L 109.78544 94.501923 
L 110.121808 96.696058 
L 110.2059 96.651177 
L 110.374084 94.766811 
L 110.710452 95.877379 
L 110.794544 95.021094 
L 110.962728 90.79226 
L 111.215004 90.856414 
L 111.299096 90.687839 
L 111.383188 88.469599 
L 111.551372 79.204887 
L 111.803648 77.418282 
L 112.055924 73.771977 
L 112.392292 68.324643 
L 112.812752 64.888373 
L 112.896844 64.841049 
L 113.065028 65.257501 
L 113.485488 68.111512 
L 114.074132 75.375421 
L 115.25142 90.633602 
L 116.09234 99.11429 
L 116.680984 104.70271 
L 118.026456 117.847886 
L 119.203744 126.992341 
L 119.87648 130.97576 
L 120.969676 135.911741 
L 121.894688 138.962017 
L 122.903792 141.641807 
L 123.744712 143.420142 
L 124.753816 145.258596 
L 127.192484 148.821075 
L 127.360668 148.411808 
L 128.117496 149.322619 
L 128.622048 149.575346 
L 129.631152 150.403942 
L 130.051612 151.03803 
L 131.312992 153.625743 
L 133.835752 159.203756 
L 134.088028 159.635627 
L 135.01304 161.400262 
L 135.265316 161.76653 
L 136.358512 163.483208 
L 136.69488 164.026014 
L 137.11534 164.556189 
L 137.788076 165.777891 
L 138.292628 168.573902 
L 139.049456 173.072004 
L 139.722192 176.093975 
L 140.142652 177.431699 
L 140.563112 178.575249 
L 140.89948 179.402651 
L 141.151756 179.78099 
L 141.404032 180.237391 
L 141.656308 180.700217 
L 141.824492 180.727516 
L 142.329044 181.538341 
L 142.413136 181.468803 
L 142.58132 181.639839 
L 142.917688 182.150161 
L 143.085872 182.083464 
L 143.506332 182.635562 
L 143.674516 182.512574 
L 144.179068 183.025574 
L 144.431344 183.334203 
L 145.10408 184.645179 
L 145.692724 186.453248 
L 146.617736 190.390727 
L 150.906428 210.89445 
L 152.588268 217.200593 
L 153.09282 218.788999 
L 153.765556 220.472052 
L 154.017832 220.836827 
L 154.438292 221.590628 
L 154.606476 221.674092 
L 156.624684 224.131188 
L 157.465604 225.444028 
L 157.71788 225.735582 
L 158.726984 227.323725 
L 158.97926 227.654207 
L 159.231536 228.027714 
L 159.39972 227.995139 
L 159.904272 228.371795 
L 160.072456 228.406053 
L 160.492916 228.648899 
L 160.745192 228.595684 
L 161.165652 228.650717 
L 161.417928 228.686034 
L 162.258848 229.112873 
L 162.427032 228.958152 
L 162.847492 229.283131 
L 164.108872 230.269073 
L 164.192964 230.09725 
L 164.361148 230.087007 
L 164.697516 230.357152 
L 164.949792 230.328477 
L 165.28616 230.430373 
L 165.538436 230.244009 
L 165.874804 230.303576 
L 166.12708 230.132277 
L 167.052092 230.394297 
L 167.640736 230.875111 
L 169.574852 233.042444 
L 169.743036 232.885289 
L 171.929428 234.358759 
L 172.097612 234.124799 
L 172.43398 234.405694 
L 172.602164 234.503056 
L 172.770348 234.355764 
L 173.190808 234.447543 
L 173.443084 234.112348 
L 173.779452 234.032458 
L 174.031728 233.509532 
L 174.95674 232.978163 
L 175.209016 232.727119 
L 175.713568 232.773475 
L 176.134028 233.010684 
L 176.302212 232.993528 
L 176.470396 233.06455 
L 176.890856 233.342911 
L 177.05904 233.418856 
L 179.834076 236.407673 
L 179.918168 236.302457 
L 180.086352 236.351292 
L 180.927272 237.091411 
L 181.011364 237.107635 
L 181.179548 236.936907 
L 181.515916 237.125479 
L 181.6841 237.174405 
L 181.852284 236.906838 
L 182.356836 236.782085 
L 182.609112 236.646628 
L 183.450032 236.482858 
L 183.702308 236.340922 
L 184.375044 236.546506 
L 185.04778 237.137695 
L 185.972792 238.081714 
L 186.140976 238.205019 
L 186.477344 238.651576 
L 186.645528 238.595348 
L 187.065988 238.902601 
L 187.234172 238.65686 
L 188.243276 238.582463 
L 188.41146 238.413589 
L 188.663736 238.307069 
L 188.916012 238.264079 
L 189.168288 237.858197 
L 189.504656 237.767512 
L 189.756932 237.244169 
L 190.0933 237.063451 
L 190.345576 236.6527 
L 190.766036 236.32725 
L 191.018312 235.807644 
L 192.61606 234.704089 
L 192.784244 234.546788 
L 194.2979 234.833809 
L 195.391096 235.535472 
L 197.493396 238.234943 
L 197.997947 239.085238 
L 198.082039 239.009709 
L 198.250223 239.133693 
L 198.586591 239.610073 
L 198.754775 239.373064 
L 199.847971 239.817575 
L 200.100247 239.750037 
L 200.520707 239.807586 
L 200.772983 239.862348 
L 201.109351 239.969447 
L 201.361627 240.069931 
L 201.613903 240.191318 
L 201.782087 239.847083 
L 202.034363 239.93175 
L 202.202547 239.97693 
L 202.454823 239.793334 
L 203.463927 239.911129 
L 203.884387 240.202728 
L 204.388939 240.809625 
L 205.145767 242.185624 
L 206.659423 245.828645 
L 208.509447 250.294081 
L 210.023103 253.461359 
L 210.779931 254.845846 
L 212.125403 256.975628 
L 212.461771 257.453641 
L 212.545863 257.006311 
L 212.798139 253.132914 
L 213.050415 253.280718 
L 213.134507 252.447978 
L 213.386783 246.634466 
L 213.639059 245.221847 
L 213.723151 243.990481 
L 213.975427 236.813755 
L 214.311795 232.03265 
L 214.564071 224.932512 
L 214.984531 217.241267 
L 215.236807 209.654659 
L 215.573175 203.316194 
L 215.825451 197.27017 
L 216.666371 185.212914 
L 217.255015 179.734308 
L 217.759567 176.896611 
L 218.011843 176.553136 
L 218.180027 175.52786 
L 218.348211 175.68107 
L 218.600487 176.020555 
L 218.768671 175.596502 
L 219.020947 176.424845 
L 219.189131 176.88777 
L 219.273223 176.667709 
L 219.357315 176.779984 
L 219.777775 178.474095 
L 219.861867 178.384007 
L 219.945959 178.534241 
L 220.450511 180.440468 
L 220.618695 181.079596 
L 221.627799 185.543549 
L 221.711891 185.639663 
L 222.132351 187.67134 
L 223.057363 192.100628 
L 223.393731 194.38057 
L 223.477823 193.690897 
L 223.561915 193.704587 
L 223.982375 195.255486 
L 224.066467 194.857928 
L 224.234651 192.161642 
L 224.402835 192.184336 
L 224.486927 192.190335 
L 224.571019 192.081743 
L 224.655111 190.999117 
L 224.823295 184.947999 
L 225.159663 184.033432 
L 225.243755 180.772361 
L 225.411939 170.118421 
L 225.664215 168.485171 
L 226.000583 160.390966 
L 226.589227 146.066815 
L 226.925595 142.306787 
L 227.177871 141.665912 
L 227.346055 142.208139 
L 227.598331 144.284878 
L 228.439251 155.514868 
L 229.700631 173.988679 
L 230.793827 186.838871 
L 231.718839 195.672237 
L 232.391575 202.04438 
L 233.737047 218.305597 
L 234.662059 226.851797 
L 235.418887 232.073622 
L 236.427991 237.106061 
L 237.521187 241.433452 
L 238.614383 244.509561 
L 239.623487 246.199293 
L 239.959855 246.484793 
L 240.548499 246.839814 
L 241.053051 246.904023 
L 241.389419 246.879899 
L 241.557603 246.866842 
L 241.809879 246.678541 
L 242.230339 246.592951 
L 242.482615 246.29994 
L 242.818983 246.13046 
L 243.071259 245.604014 
L 243.491719 245.145875 
L 244.416731 243.732578 
L 244.584915 243.467446 
L 244.837191 242.658485 
L 245.257651 242.001603 
L 245.509927 241.066026 
L 245.846295 240.403163 
L 246.098571 239.412344 
L 246.519031 238.275472 
L 246.855399 237.424381 
L 247.864503 235.714172 
L 248.537239 235.383076 
L 248.873607 235.504218 
L 249.041791 235.326368 
L 249.462251 235.563242 
L 249.630435 235.275181 
L 249.882711 235.393427 
L 250.050895 235.450433 
L 250.303171 235.271507 
L 251.396367 235.42127 
L 251.564551 235.396088 
L 251.985011 235.569875 
L 252.153195 235.598179 
L 253.078207 236.253169 
L 253.246391 235.9977 
L 253.498667 236.189874 
L 253.666851 236.273284 
L 253.835035 235.975504 
L 254.171403 236.083608 
L 254.844139 236.196045 
L 254.928231 236.174419 
L 255.096415 235.891479 
L 255.348691 235.970021 
L 255.516875 235.979621 
L 255.685059 235.5373 
L 255.937335 235.544883 
L 256.189611 235.499893 
L 256.610071 235.450271 
L 257.114623 235.551262 
L 257.619175 235.979911 
L 257.955543 236.405619 
L 258.039635 236.335746 
L 258.207819 236.458164 
L 259.721475 239.040022 
L 259.889659 239.055667 
L 260.394211 239.895837 
L 260.478303 239.778748 
L 260.646487 239.837645 
L 260.982855 240.204131 
L 261.235131 240.201959 
L 261.571499 240.367014 
L 261.823775 240.276311 
L 262.160143 240.372814 
L 262.412419 240.217667 
L 262.832879 240.249953 
L 263.085155 240.267887 
L 263.421523 240.346383 
L 263.673799 239.994683 
L 264.010167 240.055291 
L 264.262443 239.703518 
L 264.598811 239.64225 
L 264.851087 239.361265 
L 265.187455 239.265087 
L 265.439731 238.89691 
L 265.860191 238.706881 
L 266.112467 238.605709 
L 266.869295 238.751725 
L 267.037479 238.811419 
L 267.205663 238.581196 
L 267.457939 238.745744 
L 268.214767 239.315298 
L 268.467043 239.456003 
L 269.476147 240.71523 
L 269.560239 240.570607 
L 269.728423 240.623632 
L 270.148883 241.016231 
L 270.317067 241.085553 
L 270.737527 241.333719 
L 270.989803 241.432014 
L 271.242079 241.533801 
L 271.410263 241.209256 
L 271.662539 241.268768 
L 271.914815 241.280586 
L 272.251183 241.300538 
L 272.503459 241.326932 
L 272.755735 241.093515 
L 273.092103 241.177721 
L 273.344379 240.909865 
L 273.680747 240.913702 
L 273.933023 240.379356 
L 274.269391 240.239664 
L 274.521667 239.524148 
L 275.698955 238.421108 
L 276.035323 238.419977 
L 276.455783 238.655801 
L 277.044427 239.320664 
L 277.380795 239.695564 
L 277.548979 239.866094 
L 277.969439 240.493848 
L 278.221715 240.823922 
L 278.558083 241.290005 
L 278.726267 241.079553 
L 279.146727 241.42073 
L 279.314911 241.035677 
L 279.735371 241.052625 
L 279.987647 240.645783 
L 281.164935 240.177845 
L 281.669487 240.247003 
L 281.837671 240.256069 
L 282.510407 240.962302 
L 282.762683 241.231633 
L 282.930867 241.011182 
L 283.351327 241.424919 
L 283.519511 241.125221 
L 283.855879 241.306781 
L 284.528615 241.466814 
L 284.612707 241.462181 
L 284.780891 241.282097 
L 285.201351 241.413165 
L 285.369535 241.058904 
L 285.621811 241.117123 
L 285.789995 241.16166 
L 286.042271 241.070776 
L 286.378639 241.079345 
L 286.630915 240.566047 
L 286.967283 240.572362 
L 287.219559 240.339244 
L 287.808203 240.337199 
L 288.228663 240.547144 
L 288.649123 241.002378 
L 289.237767 242.048348 
L 289.994595 243.907496 
L 291.760527 249.130163 
L 293.526459 254.120498 
L 294.956023 257.527894 
L 296.049219 259.649301 
L 296.217403 259.604158 
L 296.553771 260.078426 
L 297.142415 260.807592 
L 297.815151 261.307729 
L 301.178831 263.334466 
L 301.599291 263.553921 
L 301.851567 263.643425 
L 303.197039 264.425796 
L 306.476627 265.929109 
L 306.812995 265.996059 
L 306.981179 266.036276 
L 307.233455 265.888191 
L 307.569823 265.893733 
L 307.822099 265.577146 
L 308.158467 265.441214 
L 308.410743 264.912221 
L 308.831203 264.519562 
L 309.083479 263.771494 
L 309.419847 263.257548 
L 309.756215 262.076026 
L 310.008491 261.429984 
L 310.344859 259.784813 
L 310.597135 258.942458 
L 310.933503 257.022092 
L 311.185779 256.05008 
L 311.522147 253.870522 
L 311.858515 252.292758 
L 312.110791 249.552894 
L 312.447159 247.721073 
L 312.699435 244.635373 
L 313.035803 242.206581 
L 313.288079 238.724019 
L 313.624447 235.786118 
L 313.876723 232.472339 
L 314.213091 229.563683 
L 314.465367 226.014116 
L 316.315391 209.884484 
L 316.651759 208.305715 
L 316.904035 206.16379 
L 317.240403 204.980979 
L 317.492679 203.082451 
L 317.913139 202.1063 
L 318.081323 200.789822 
L 318.333599 200.546977 
L 318.501783 200.349455 
L 318.669967 199.35679 
L 318.838151 199.318804 
L 319.090427 199.297875 
L 319.258611 198.704415 
L 319.510887 199.018962 
L 319.679071 199.227486 
L 319.847255 199.069561 
L 320.183623 200.026892 
L 320.267715 199.534387 
L 320.435899 196.105582 
L 320.519991 196.126765 
L 320.688175 196.389463 
L 320.856359 196.24921 
L 321.192727 194.703188 
L 321.781371 192.635435 
L 321.949555 192.761644 
L 322.201831 193.625503 
L 322.622291 196.368597 
L 323.463211 204.302435 
L 325.817787 227.045907 
L 326.658707 232.992279 
L 327.583719 238.065508 
L 328.845099 243.563804 
L 330.022387 247.191912 
L 331.872411 251.44687 
L 334.815631 257.725189 
L 337.842943 262.945042 
L 339.104323 264.489168 
L 341.038439 266.558035 
L 342.888463 268.232836 
L 344.738487 269.680952 
L 347.008971 271.171502 
L 349.531731 272.547107 
L 352.390859 273.832453 
L 356.090907 275.209045 
L 360.631875 276.659984 
L 369.629719 279.275466 
L 377.366183 281.27722 
L 384.009451 282.908927 
L 394.436859 285.16048 
L 417.309883 289.912259 
L 435.389663 293.964666 
L 445.312519 295.754782 
L 458.767239 298.064 
L 477.099295 300.642494 
L 496.860915 302.792406 
L 534.365947 306.008999 
L 565.648171 308.395104 
L 576.075579 309.229437 
L 596.930395 310.959116 
L 611.646495 312.015147 
L 624.933031 312.819236 
L 651.926563 314.293795 
L 672.024551 315.283157 
L 672.024551 315.283157 
" clip-path="url(#pb7ea1d378c)" style="fill: none; stroke: #1f77b4; stroke-width: 1.5; stroke-linecap: square"/>
   </g>
   <g id="line2d_16">
    <path d="M 66.730336 328.619984 
L 67.571256 328.525271 
L 68.412176 328.21487 
L 70.430384 326.997082 
L 75.055444 323.584615 
L 76.064548 323.359512 
L 77.746388 323.260528 
L 79.344136 323.157604 
L 80.100964 322.753894 
L 81.110068 321.767632 
L 82.45554 319.454569 
L 83.464644 316.834194 
L 83.71692 316.011825 
L 85.651036 308.729999 
L 86.66014 303.84856 
L 87.50106 297.540486 
L 88.594256 289.102931 
L 89.519268 281.39101 
L 89.771544 279.079417 
L 90.696556 271.278675 
L 91.032924 268.647891 
L 91.957936 261.376776 
L 92.210212 259.205107 
L 93.051132 252.497259 
L 94.901156 241.817188 
L 95.06934 241.348017 
L 95.994352 229.723874 
L 96.414812 227.580935 
L 96.75118 226.694971 
L 97.087548 226.368129 
L 97.339824 226.377913 
L 97.676192 226.628873 
L 98.180744 227.343596 
L 98.601204 228.146466 
L 98.685296 228.681061 
L 98.85348 224.8309 
L 99.526216 204.753321 
L 102.133068 109.701867 
L 102.385344 103.50605 
L 102.721712 94.818242 
L 104.067184 75.540507 
L 104.235368 73.873325 
L 104.487644 71.109626 
L 105.244472 67.33507 
L 105.328564 67.288438 
L 105.664932 65.766926 
L 105.749024 65.7801 
L 105.917208 66.225113 
L 106.0013 66.491745 
L 106.253576 66.154191 
L 106.42176 66.523579 
L 106.674036 67.290627 
L 106.758128 67.236806 
L 106.926312 67.588722 
L 108.271784 73.549352 
L 109.028612 78.365524 
L 109.533164 80.60664 
L 109.701348 81.210059 
L 109.869532 81.166812 
L 110.037716 81.611819 
L 110.2059 82.347743 
L 110.62636 80.874425 
L 110.794544 81.051042 
L 111.299096 75.603903 
L 111.383188 75.101574 
L 111.971832 60.071613 
L 112.3082 57.266301 
L 112.476384 57.02 
L 112.72866 57.550516 
L 112.896844 58.18628 
L 113.233212 60.633166 
L 113.737764 65.266289 
L 115.755972 88.659621 
L 118.446916 120.043999 
L 119.960572 134.829943 
L 121.726504 149.519335 
L 123.324252 160.7851 
L 124.837908 170.075966 
L 126.856116 180.544099 
L 127.276576 182.292756 
L 127.44476 182.249614 
L 127.697036 182.496284 
L 128.201588 183.481129 
L 129.210692 186.573611 
L 132.826648 198.547743 
L 134.59258 203.2392 
L 136.947156 208.075121 
L 137.283524 208.581285 
L 137.788076 209.325236 
L 138.628996 210.508289 
L 139.21764 211.15891 
L 139.469916 211.410219 
L 139.806284 211.781926 
L 140.05856 211.968879 
L 140.394928 212.266382 
L 140.563112 212.404294 
L 140.815388 212.471124 
L 141.235848 212.706629 
L 141.488124 212.800404 
L 141.7404 212.950141 
L 141.992676 212.910719 
L 142.917688 213.280896 
L 143.42224 213.18595 
L 143.590424 213.178065 
L 143.8427 212.990061 
L 144.347252 213.059488 
L 144.68362 213.339087 
L 145.10408 213.848306 
L 145.776816 215.158099 
L 146.870012 217.917395 
L 152.504176 233.091279 
L 152.840544 233.62431 
L 153.345096 234.117484 
L 153.681464 234.222123 
L 153.849648 234.271803 
L 154.101924 234.24616 
L 154.942844 234.613317 
L 155.447396 235.15249 
L 156.288316 236.1444 
L 156.708776 236.499451 
L 157.045144 236.726642 
L 158.13834 237.610146 
L 159.147444 238.492164 
L 159.315628 238.554492 
L 159.651996 238.499235 
L 159.904272 238.534783 
L 160.24064 238.458644 
L 161.586112 238.902381 
L 162.427032 239.438459 
L 162.7634 239.474888 
L 163.267952 239.830952 
L 163.772504 240.225394 
L 164.192964 240.441284 
L 164.529332 240.207708 
L 166.379356 240.085024 
L 166.968 240.443279 
L 168.061196 241.616838 
L 168.397564 241.97976 
L 168.733932 241.989606 
L 169.658944 242.375609 
L 169.995312 242.190585 
L 170.499864 242.252317 
L 171.004416 242.599438 
L 172.01352 243.468845 
L 172.349888 243.246159 
L 172.85444 243.089142 
L 173.779452 242.669084 
L 174.368096 242.057497 
L 174.704464 242.067902 
L 175.965844 242.672597 
L 176.386304 242.972436 
L 177.89996 243.379753 
L 179.413616 244.519442 
L 180.00226 244.64438 
L 180.338628 244.5433 
L 180.759088 244.688964 
L 181.095456 244.868331 
L 181.431824 244.772688 
L 181.768192 244.786685 
L 182.10456 244.541647 
L 182.356836 244.453088 
L 182.693204 244.22291 
L 183.113664 244.245545 
L 184.375044 244.850149 
L 185.04778 245.544713 
L 185.552332 246.0367 
L 185.972792 246.326289 
L 186.30916 246.254464 
L 186.561436 246.254796 
L 186.897804 246.098096 
L 187.15008 246.030899 
L 187.486448 245.72875 
L 188.075092 245.650287 
L 188.579644 245.674832 
L 189.084196 245.566473 
L 189.420564 245.372476 
L 189.588748 245.247585 
L 189.925116 244.813782 
L 191.691048 243.842974 
L 192.531968 243.845364 
L 193.288796 243.315192 
L 193.625164 243.383449 
L 193.961532 243.477563 
L 194.802452 243.652001 
L 195.307004 243.75702 
L 195.727464 244.002141 
L 196.4002 244.42615 
L 196.82066 244.6117 
L 197.409304 245.05882 
L 198.166131 245.680502 
L 198.502499 245.628658 
L 198.670683 245.543885 
L 199.007051 245.114957 
L 199.427511 244.971438 
L 199.847971 245.120939 
L 200.941167 245.50502 
L 201.277535 245.598343 
L 201.697995 245.703964 
L 202.034363 245.360155 
L 202.959375 245.095031 
L 203.379835 245.386804 
L 204.052571 246.166001 
L 205.313951 248.05742 
L 210.107195 255.493447 
L 212.545863 258.923262 
L 212.714047 257.35417 
L 213.386783 249.348349 
L 214.479979 231.312466 
L 214.900439 225.038734 
L 215.152715 221.057422 
L 215.909543 210.631293 
L 217.255015 196.744932 
L 217.507291 194.533924 
L 217.843659 192.24088 
L 218.095935 190.987245 
L 218.432303 189.041154 
L 218.684579 188.037416 
L 219.020947 186.481681 
L 219.273223 185.734629 
L 219.609591 184.555922 
L 219.861867 184.050977 
L 220.114143 183.33159 
L 220.870971 182.402221 
L 221.123247 182.423756 
L 221.375523 182.244439 
L 222.552811 182.764943 
L 222.805087 183.138208 
L 222.889179 183.00277 
L 223.141455 182.417297 
L 223.393731 182.28948 
L 223.982375 179.610042 
L 224.066467 179.42053 
L 224.739203 171.841939 
L 225.159663 162.879652 
L 225.243755 161.533196 
L 225.916491 133.772856 
L 226.252859 127.948884 
L 226.589227 125.193124 
L 226.841503 124.427762 
L 227.009687 124.431904 
L 227.261963 124.814009 
L 227.514239 125.660201 
L 228.102883 128.71499 
L 229.364263 137.453957 
L 233.737047 169.910278 
L 235.502979 180.582385 
L 237.268911 189.946218 
L 238.446199 195.262394 
L 239.203027 198.054083 
L 242.230339 206.938858 
L 243.071259 208.591838 
L 243.828087 209.852291 
L 244.584915 211.162788 
L 245.594019 211.821016 
L 246.014479 211.985912 
L 246.266755 212.037521 
L 246.603123 212.1824 
L 246.855399 212.32057 
L 247.528135 213.13072 
L 249.378159 216.176317 
L 249.546343 216.334939 
L 249.798619 216.365068 
L 250.639539 217.01692 
L 251.144091 217.860879 
L 251.480459 218.337941 
L 252.237287 219.079285 
L 252.825931 219.921765 
L 253.162299 220.441726 
L 253.414575 220.487918 
L 253.750943 220.684908 
L 254.003219 220.606685 
L 254.339587 220.806389 
L 254.760047 221.312021 
L 255.012323 221.633507 
L 255.264599 221.716203 
L 255.600967 221.917736 
L 255.853243 221.756713 
L 256.189611 221.847335 
L 256.525979 222.103719 
L 257.114623 222.945229 
L 258.291911 224.853127 
L 258.796463 225.501301 
L 260.141935 227.481296 
L 260.478303 227.776494 
L 260.730579 227.7336 
L 261.487407 228.0817 
L 262.244235 228.636015 
L 262.580603 228.820415 
L 263.505615 229.624274 
L 263.757891 229.546711 
L 264.178351 229.535938 
L 264.514719 229.513597 
L 265.271547 229.711077 
L 265.523823 229.709458 
L 266.364743 230.165393 
L 267.205663 230.937111 
L 267.542031 231.028657 
L 268.130675 231.533518 
L 269.560239 233.274696 
L 269.812515 233.208707 
L 271.073895 233.570886 
L 271.326171 233.694871 
L 271.578447 233.556839 
L 271.998907 233.62585 
L 272.335275 233.836781 
L 272.587551 234.02156 
L 272.839827 234.03739 
L 273.260287 234.12076 
L 273.596655 234.141075 
L 273.764839 234.095038 
L 274.101207 233.742164 
L 274.353483 233.565568 
L 274.689851 233.058334 
L 275.026219 232.921116 
L 275.362587 233.030328 
L 276.203507 233.755946 
L 277.548979 235.288043 
L 278.473991 235.727995 
L 278.642175 235.764995 
L 278.978543 235.564159 
L 279.230819 235.470557 
L 279.567187 235.053515 
L 279.903555 234.784752 
L 280.239923 234.604059 
L 280.576291 234.687197 
L 281.249027 235.231045 
L 281.753579 235.647923 
L 282.089947 235.785764 
L 282.594499 236.29412 
L 282.846775 236.512096 
L 283.099051 236.385196 
L 283.435419 236.33493 
L 283.771787 235.990764 
L 284.192247 235.967956 
L 285.285443 236.366819 
L 285.621811 236.128731 
L 286.294547 236.182666 
L 286.462731 236.161316 
L 286.799099 235.833918 
L 287.555927 235.727417 
L 287.976387 236.079233 
L 288.649123 237.029326 
L 289.826411 239.186441 
L 294.199195 247.464326 
L 296.049219 250.589341 
L 296.217403 250.547394 
L 296.553771 250.494769 
L 296.974231 250.667914 
L 297.562875 251.187792 
L 298.571979 252.444556 
L 301.851567 256.752915 
L 302.440211 257.176309 
L 303.449315 258.237887 
L 305.972075 261.017408 
L 306.812995 261.42648 
L 307.149363 261.464229 
L 308.158467 261.190304 
L 309.503939 259.805382 
L 309.924399 259.084701 
L 310.092583 258.794879 
L 310.513043 257.886393 
L 310.681227 257.525939 
L 311.101687 256.435056 
L 311.269871 256.005529 
L 311.690331 254.73282 
L 311.858515 254.416273 
L 312.699435 249.836239 
L 313.876723 242.064749 
L 315.390379 232.205819 
L 315.558563 231.149582 
L 315.979023 228.338224 
L 316.147207 227.276982 
L 316.567667 224.481607 
L 316.735851 223.433171 
L 317.156311 220.685866 
L 317.324495 219.660223 
L 317.744955 216.970101 
L 317.997231 215.776013 
L 318.333599 213.705355 
L 318.669967 211.949348 
L 319.090427 210.149132 
L 319.594979 208.095115 
L 319.847255 207.277205 
L 320.183623 206.550708 
L 320.267715 206.466684 
L 321.108635 197.106305 
L 321.445003 195.678434 
L 321.781371 195.075387 
L 322.033647 195.044974 
L 322.285923 195.297701 
L 322.706383 196.151769 
L 323.379119 198.049057 
L 324.472315 201.628291 
L 326.238247 207.340986 
L 327.667811 211.571609 
L 337.002023 235.400374 
L 339.524783 240.843657 
L 341.963451 245.57026 
L 344.486211 249.97067 
L 347.093063 254.06945 
L 349.784007 257.89065 
L 352.643135 261.559132 
L 355.586355 264.973255 
L 358.697759 268.238837 
L 361.977347 271.351936 
L 365.425119 274.311508 
L 369.041075 277.118794 
L 372.825215 279.776782 
L 376.861631 282.340587 
L 381.150323 284.800856 
L 385.775383 287.192992 
L 390.652719 289.464433 
L 395.950515 291.682401 
L 401.584679 293.798629 
L 407.723395 295.862879 
L 414.366663 297.85685 
L 421.514483 299.767616 
L 429.335039 301.624418 
L 437.828331 303.409687 
L 447.162543 305.140812 
L 457.421767 306.812815 
L 468.690095 308.420383 
L 481.135711 309.968269 
L 495.010891 311.465223 
L 510.399727 312.898065 
L 527.638587 314.27592 
L 546.979747 315.594937 
L 568.843667 316.858788 
L 593.650807 318.065342 
L 621.989811 319.215712 
L 654.533415 320.308376 
L 672.024551 320.815751 
L 672.024551 320.815751 
" clip-path="url(#pb7ea1d378c)" style="fill: none; stroke: #ff7f0e; stroke-width: 1.5; stroke-linecap: square"/>
   </g>
   <g id="patch_3">
    <path d="M 36.465625 342.2 
L 36.465625 43.44 
" style="fill: none; stroke: #000000; stroke-width: 0.8; stroke-linejoin: miter; stroke-linecap: square"/>
   </g>
   <g id="patch_4">
    <path d="M 702.289261 342.2 
L 702.289261 43.44 
" style="fill: none; stroke: #000000; stroke-width: 0.8; stroke-linejoin: miter; stroke-linecap: square"/>
   </g>
   <g id="patch_5">
    <path d="M 36.465625 342.2 
L 702.289261 342.2 
" style="fill: none; stroke: #000000; stroke-width: 0.8; stroke-linejoin: miter; stroke-linecap: square"/>
   </g>
   <g id="patch_6">
    <path d="M 36.465625 43.44 
L 702.289261 43.44 
" style="fill: none; stroke: #000000; stroke-width: 0.8; stroke-linejoin: miter; stroke-linecap: square"/>
   </g>
   <g id="text_15">
    <!-- 1 transformation(s) -->
    <g transform="translate(311.262756 37.44) scale(0.12 -0.12)">
     <defs>
      <path id="DejaVuSans-20" transform="scale(0.015625)"/>
      <path id="DejaVuSans-74" d="M 1172 4494 
L 1172 3500 
L 2356 3500 
L 2356 3053 
L 1172 3053 
L 1172 1153 
Q 1172 725 1289 603 
Q 1406 481 1766 481 
L 2356 481 
L 2356 0 
L 1766 0 
Q 1100 0 847 248 
Q 594 497 594 1153 
L 594 3053 
L 172 3053 
L 172 3500 
L 594 3500 
L 594 4494 
L 1172 4494 
z
" transform="scale(0.015625)"/>
      <path id="DejaVuSans-72" d="M 2631 2963 
Q 2534 3019 2420 3045 
Q 2306 3072 2169 3072 
Q 1681 3072 1420 2755 
Q 1159 2438 1159 1844 
L 1159 0 
L 581 0 
L 581 3500 
L 1159 3500 
L 1159 2956 
Q 1341 3275 1631 3429 
Q 1922 3584 2338 3584 
Q 2397 3584 2469 3576 
Q 2541 3569 2628 3553 
L 2631 2963 
z
" transform="scale(0.015625)"/>
      <path id="DejaVuSans-61" d="M 2194 1759 
Q 1497 1759 1228 1600 
Q 959 1441 959 1056 
Q 959 750 1161 570 
Q 1363 391 1709 391 
Q 2188 391 2477 730 
Q 2766 1069 2766 1631 
L 2766 1759 
L 2194 1759 
z
M 3341 1997 
L 3341 0 
L 2766 0 
L 2766 531 
Q 2569 213 2275 61 
Q 1981 -91 1556 -91 
Q 1019 -91 701 211 
Q 384 513 384 1019 
Q 384 1609 779 1909 
Q 1175 2209 1959 2209 
L 2766 2209 
L 2766 2266 
Q 2766 2663 2505 2880 
Q 2244 3097 1772 3097 
Q 1472 3097 1187 3025 
Q 903 2953 641 2809 
L 641 3341 
Q 956 3463 1253 3523 
Q 1550 3584 1831 3584 
Q 2591 3584 2966 3190 
Q 3341 2797 3341 1997 
z
" transform="scale(0.015625)"/>
      <path id="DejaVuSans-6e" d="M 3513 2113 
L 3513 0 
L 2938 0 
L 2938 2094 
Q 2938 2591 2744 2837 
Q 2550 3084 2163 3084 
Q 1697 3084 1428 2787 
Q 1159 2491 1159 1978 
L 1159 0 
L 581 0 
L 581 3500 
L 1159 3500 
L 1159 2956 
Q 1366 3272 1645 3428 
Q 1925 3584 2291 3584 
Q 2894 3584 3203 3211 
Q 3513 2838 3513 2113 
z
" transform="scale(0.015625)"/>
      <path id="DejaVuSans-73" d="M 2834 3397 
L 2834 2853 
Q 2591 2978 2328 3040 
Q 2066 3103 1784 3103 
Q 1356 3103 1142 2972 
Q 928 2841 928 2578 
Q 928 2378 1081 2264 
Q 1234 2150 1697 2047 
L 1894 2003 
Q 2506 1872 2764 1633 
Q 3022 1394 3022 966 
Q 3022 478 2636 193 
Q 2250 -91 1575 -91 
Q 1294 -91 989 -36 
Q 684 19 347 128 
L 347 722 
Q 666 556 975 473 
Q 1284 391 1588 391 
Q 1994 391 2212 530 
Q 2431 669 2431 922 
Q 2431 1156 2273 1281 
Q 2116 1406 1581 1522 
L 1381 1569 
Q 847 1681 609 1914 
Q 372 2147 372 2553 
Q 372 3047 722 3315 
Q 1072 3584 1716 3584 
Q 2034 3584 2315 3537 
Q 2597 3491 2834 3397 
z
" transform="scale(0.015625)"/>
      <path id="DejaVuSans-66" d="M 2375 4863 
L 2375 4384 
L 1825 4384 
Q 1516 4384 1395 4259 
Q 1275 4134 1275 3809 
L 1275 3500 
L 2222 3500 
L 2222 3053 
L 1275 3053 
L 1275 0 
L 697 0 
L 697 3053 
L 147 3053 
L 147 3500 
L 697 3500 
L 697 3744 
Q 697 4328 969 4595 
Q 1241 4863 1831 4863 
L 2375 4863 
z
" transform="scale(0.015625)"/>
      <path id="DejaVuSans-6f" d="M 1959 3097 
Q 1497 3097 1228 2736 
Q 959 2375 959 1747 
Q 959 1119 1226 758 
Q 1494 397 1959 397 
Q 2419 397 2687 759 
Q 2956 1122 2956 1747 
Q 2956 2369 2687 2733 
Q 2419 3097 1959 3097 
z
M 1959 3584 
Q 2709 3584 3137 3096 
Q 3566 2609 3566 1747 
Q 3566 888 3137 398 
Q 2709 -91 1959 -91 
Q 1206 -91 779 398 
Q 353 888 353 1747 
Q 353 2609 779 3096 
Q 1206 3584 1959 3584 
z
" transform="scale(0.015625)"/>
      <path id="DejaVuSans-6d" d="M 3328 2828 
Q 3544 3216 3844 3400 
Q 4144 3584 4550 3584 
Q 5097 3584 5394 3201 
Q 5691 2819 5691 2113 
L 5691 0 
L 5113 0 
L 5113 2094 
Q 5113 2597 4934 2840 
Q 4756 3084 4391 3084 
Q 3944 3084 3684 2787 
Q 3425 2491 3425 1978 
L 3425 0 
L 2847 0 
L 2847 2094 
Q 2847 2600 2669 2842 
Q 2491 3084 2119 3084 
Q 1678 3084 1418 2786 
Q 1159 2488 1159 1978 
L 1159 0 
L 581 0 
L 581 3500 
L 1159 3500 
L 1159 2956 
Q 1356 3278 1631 3431 
Q 1906 3584 2284 3584 
Q 2666 3584 2933 3390 
Q 3200 3197 3328 2828 
z
" transform="scale(0.015625)"/>
      <path id="DejaVuSans-69" d="M 603 3500 
L 1178 3500 
L 1178 0 
L 603 0 
L 603 3500 
z
M 603 4863 
L 1178 4863 
L 1178 4134 
L 603 4134 
L 603 4863 
z
" transform="scale(0.015625)"/>
      <path id="DejaVuSans-28" d="M 1984 4856 
Q 1566 4138 1362 3434 
Q 1159 2731 1159 2009 
Q 1159 1288 1364 580 
Q 1569 -128 1984 -844 
L 1484 -844 
Q 1016 -109 783 600 
Q 550 1309 550 2009 
Q 550 2706 781 3412 
Q 1013 4119 1484 4856 
L 1984 4856 
z
" transform="scale(0.015625)"/>
      <path id="DejaVuSans-29" d="M 513 4856 
L 1013 4856 
Q 1481 4119 1714 3412 
Q 1947 2706 1947 2009 
Q 1947 1309 1714 600 
Q 1481 -109 1013 -844 
L 513 -844 
Q 928 -128 1133 580 
Q 1338 1288 1338 2009 
Q 1338 2731 1133 3434 
Q 928 4138 513 4856 
z
" transform="scale(0.015625)"/>
     </defs>
     <use xlink:href="#DejaVuSans-31"/>
     <use xlink:href="#DejaVuSans-20" x="63.623047"/>
     <use xlink:href="#DejaVuSans-74" x="95.410156"/>
     <use xlink:href="#DejaVuSans-72" x="134.619141"/>
     <use xlink:href="#DejaVuSans-61" x="175.732422"/>
     <use xlink:href="#DejaVuSans-6e" x="237.011719"/>
     <use xlink:href="#DejaVuSans-73" x="300.390625"/>
     <use xlink:href="#DejaVuSans-66" x="352.490234"/>
     <use xlink:href="#DejaVuSans-6f" x="387.695312"/>
     <use xlink:href="#DejaVuSans-72" x="448.876953"/>
     <use xlink:href="#DejaVuSans-6d" x="488.240234"/>
     <use xlink:href="#DejaVuSans-61" x="585.652344"/>
     <use xlink:href="#DejaVuSans-74" x="646.931641"/>
     <use xlink:href="#DejaVuSans-69" x="686.140625"/>
     <use xlink:href="#DejaVuSans-6f" x="713.923828"/>
     <use xlink:href="#DejaVuSans-6e" x="775.105469"/>
     <use xlink:href="#DejaVuSans-28" x="838.484375"/>
     <use xlink:href="#DejaVuSans-73" x="877.498047"/>
     <use xlink:href="#DejaVuSans-29" x="929.597656"/>
    </g>
   </g>
   <g id="legend_1">
    <g id="patch_7">
     <path d="M 613.895511 80.79625 
L 695.289261 80.79625 
Q 697.289261 80.79625 697.289261 78.79625 
L 697.289261 50.44 
Q 697.289261 48.44 695.289261 48.44 
L 613.895511 48.44 
Q 611.895511 48.44 611.895511 50.44 
L 611.895511 78.79625 
Q 611.895511 80.79625 613.895511 80.79625 
z
" style="fill: #ffffff; opacity: 0.8; stroke: #cccccc; stroke-linejoin: miter"/>
    </g>
    <g id="line2d_17">
     <path d="M 615.895511 56.538437 
L 625.895511 56.538437 
L 635.895511 56.538437 
" style="fill: none; stroke: #1f77b4; stroke-width: 1.5; stroke-linecap: square"/>
    </g>
    <g id="text_16">
     <!-- observed -->
     <g transform="translate(643.895511 60.038437) scale(0.1 -0.1)">
      <defs>
       <path id="DejaVuSans-62" d="M 3116 1747 
Q 3116 2381 2855 2742 
Q 2594 3103 2138 3103 
Q 1681 3103 1420 2742 
Q 1159 2381 1159 1747 
Q 1159 1113 1420 752 
Q 1681 391 2138 391 
Q 2594 391 2855 752 
Q 3116 1113 3116 1747 
z
M 1159 2969 
Q 1341 3281 1617 3432 
Q 1894 3584 2278 3584 
Q 2916 3584 3314 3078 
Q 3713 2572 3713 1747 
Q 3713 922 3314 415 
Q 2916 -91 2278 -91 
Q 1894 -91 1617 61 
Q 1341 213 1159 525 
L 1159 0 
L 581 0 
L 581 4863 
L 1159 4863 
L 1159 2969 
z
" transform="scale(0.015625)"/>
       <path id="DejaVuSans-65" d="M 3597 1894 
L 3597 1613 
L 953 1613 
Q 991 1019 1311 708 
Q 1631 397 2203 397 
Q 2534 397 2845 478 
Q 3156 559 3463 722 
L 3463 178 
Q 3153 47 2828 -22 
Q 2503 -91 2169 -91 
Q 1331 -91 842 396 
Q 353 884 353 1716 
Q 353 2575 817 3079 
Q 1281 3584 2069 3584 
Q 2775 3584 3186 3129 
Q 3597 2675 3597 1894 
z
M 3022 2063 
Q 3016 2534 2758 2815 
Q 2500 3097 2075 3097 
Q 1594 3097 1305 2825 
Q 1016 2553 972 2059 
L 3022 2063 
z
" transform="scale(0.015625)"/>
       <path id="DejaVuSans-76" d="M 191 3500 
L 800 3500 
L 1894 563 
L 2988 3500 
L 3597 3500 
L 2284 0 
L 1503 0 
L 191 3500 
z
" transform="scale(0.015625)"/>
       <path id="DejaVuSans-64" d="M 2906 2969 
L 2906 4863 
L 3481 4863 
L 3481 0 
L 2906 0 
L 2906 525 
Q 2725 213 2448 61 
Q 2172 -91 1784 -91 
Q 1150 -91 751 415 
Q 353 922 353 1747 
Q 353 2572 751 3078 
Q 1150 3584 1784 3584 
Q 2172 3584 2448 3432 
Q 2725 3281 2906 2969 
z
M 947 1747 
Q 947 1113 1208 752 
Q 1469 391 1925 391 
Q 2381 391 2643 752 
Q 2906 1113 2906 1747 
Q 2906 2381 2643 2742 
Q 2381 3103 1925 3103 
Q 1469 3103 1208 2742 
Q 947 2381 947 1747 
z
" transform="scale(0.015625)"/>
      </defs>
      <use xlink:href="#DejaVuSans-6f"/>
      <use xlink:href="#DejaVuSans-62" x="61.181641"/>
      <use xlink:href="#DejaVuSans-73" x="124.658203"/>
      <use xlink:href="#DejaVuSans-65" x="176.757812"/>
      <use xlink:href="#DejaVuSans-72" x="238.28125"/>
      <use xlink:href="#DejaVuSans-76" x="279.394531"/>
      <use xlink:href="#DejaVuSans-65" x="338.574219"/>
      <use xlink:href="#DejaVuSans-64" x="400.097656"/>
     </g>
    </g>
    <g id="line2d_18">
     <path d="M 615.895511 71.216563 
L 625.895511 71.216563 
L 635.895511 71.216563 
" style="fill: none; stroke: #ff7f0e; stroke-width: 1.5; stroke-linecap: square"/>
    </g>
    <g id="text_17">
     <!-- simulated -->
     <g transform="translate(643.895511 74.716563) scale(0.1 -0.1)">
      <defs>
       <path id="DejaVuSans-75" d="M 544 1381 
L 544 3500 
L 1119 3500 
L 1119 1403 
Q 1119 906 1312 657 
Q 1506 409 1894 409 
Q 2359 409 2629 706 
Q 2900 1003 2900 1516 
L 2900 3500 
L 3475 3500 
L 3475 0 
L 2900 0 
L 2900 538 
Q 2691 219 2414 64 
Q 2138 -91 1772 -91 
Q 1169 -91 856 284 
Q 544 659 544 1381 
z
M 1991 3584 
L 1991 3584 
z
" transform="scale(0.015625)"/>
       <path id="DejaVuSans-6c" d="M 603 4863 
L 1178 4863 
L 1178 0 
L 603 0 
L 603 4863 
z
" transform="scale(0.015625)"/>
      </defs>
      <use xlink:href="#DejaVuSans-73"/>
      <use xlink:href="#DejaVuSans-69" x="52.099609"/>
      <use xlink:href="#DejaVuSans-6d" x="79.882812"/>
      <use xlink:href="#DejaVuSans-75" x="177.294922"/>
      <use xlink:href="#DejaVuSans-6c" x="240.673828"/>
      <use xlink:href="#DejaVuSans-61" x="268.457031"/>
      <use xlink:href="#DejaVuSans-74" x="329.736328"/>
      <use xlink:href="#DejaVuSans-65" x="368.945312"/>
      <use xlink:href="#DejaVuSans-64" x="430.46875"/>
     </g>
    </g>
   </g>
  </g>
  <g id="axes_2">
   <g id="patch_8">
    <path d="M 36.465625 684.92 
L 702.289261 684.92 
L 702.289261 386.16 
L 36.465625 386.16 
z
" style="fill: #ffffff"/>
   </g>
   <g id="matplotlib.axis_3">
    <g id="xtick_7">
     <g id="line2d_19">
      <g>
       <use xlink:href="#medd6a6f931" x="66.562152" y="684.92" style="stroke: #000000; stroke-width: 0.8"/>
      </g>
     </g>
     <g id="text_18">
      <!-- 2014-07-01 -->
      <g transform="translate(37.504339 699.518437) scale(0.1 -0.1)">
       <use xlink:href="#DejaVuSans-32"/>
       <use xlink:href="#DejaVuSans-30" x="63.623047"/>
       <use xlink:href="#DejaVuSans-31" x="127.246094"/>
       <use xlink:href="#DejaVuSans-34" x="190.869141"/>
       <use xlink:href="#DejaVuSans-2d" x="254.492188"/>
       <use xlink:href="#DejaVuSans-30" x="290.576172"/>
       <use xlink:href="#DejaVuSans-37" x="354.199219"/>
       <use xlink:href="#DejaVuSans-2d" x="417.822266"/>
       <use xlink:href="#DejaVuSans-30" x="453.90625"/>
       <use xlink:href="#DejaVuSans-31" x="517.529297"/>
      </g>
     </g>
    </g>
    <g id="xtick_8">
     <g id="line2d_20">
      <g>
       <use xlink:href="#medd6a6f931" x="187.654632" y="684.92" style="stroke: #000000; stroke-width: 0.8"/>
      </g>
     </g>
     <g id="text_19">
      <!-- 2014-07-02 -->
      <g transform="translate(158.596819 699.518437) scale(0.1 -0.1)">
       <use xlink:href="#DejaVuSans-32"/>
       <use xlink:href="#DejaVuSans-30" x="63.623047"/>
       <use xlink:href="#DejaVuSans-31" x="127.246094"/>
       <use xlink:href="#DejaVuSans-34" x="190.869141"/>
       <use xlink:href="#DejaVuSans-2d" x="254.492188"/>
       <use xlink:href="#DejaVuSans-30" x="290.576172"/>
       <use xlink:href="#DejaVuSans-37" x="354.199219"/>
       <use xlink:href="#DejaVuSans-2d" x="417.822266"/>
       <use xlink:href="#DejaVuSans-30" x="453.90625"/>
       <use xlink:href="#DejaVuSans-32" x="517.529297"/>
      </g>
     </g>
    </g>
    <g id="xtick_9">
     <g id="line2d_21">
      <g>
       <use xlink:href="#medd6a6f931" x="308.747111" y="684.92" style="stroke: #000000; stroke-width: 0.8"/>
      </g>
     </g>
     <g id="text_20">
      <!-- 2014-07-03 -->
      <g transform="translate(279.689299 699.518437) scale(0.1 -0.1)">
       <use xlink:href="#DejaVuSans-32"/>
       <use xlink:href="#DejaVuSans-30" x="63.623047"/>
       <use xlink:href="#DejaVuSans-31" x="127.246094"/>
       <use xlink:href="#DejaVuSans-34" x="190.869141"/>
       <use xlink:href="#DejaVuSans-2d" x="254.492188"/>
       <use xlink:href="#DejaVuSans-30" x="290.576172"/>
       <use xlink:href="#DejaVuSans-37" x="354.199219"/>
       <use xlink:href="#DejaVuSans-2d" x="417.822266"/>
       <use xlink:href="#DejaVuSans-30" x="453.90625"/>
       <use xlink:href="#DejaVuSans-33" x="517.529297"/>
      </g>
     </g>
    </g>
    <g id="xtick_10">
     <g id="line2d_22">
      <g>
       <use xlink:href="#medd6a6f931" x="429.839591" y="684.92" style="stroke: #000000; stroke-width: 0.8"/>
      </g>
     </g>
     <g id="text_21">
      <!-- 2014-07-04 -->
      <g transform="translate(400.781779 699.518437) scale(0.1 -0.1)">
       <use xlink:href="#DejaVuSans-32"/>
       <use xlink:href="#DejaVuSans-30" x="63.623047"/>
       <use xlink:href="#DejaVuSans-31" x="127.246094"/>
       <use xlink:href="#DejaVuSans-34" x="190.869141"/>
       <use xlink:href="#DejaVuSans-2d" x="254.492188"/>
       <use xlink:href="#DejaVuSans-30" x="290.576172"/>
       <use xlink:href="#DejaVuSans-37" x="354.199219"/>
       <use xlink:href="#DejaVuSans-2d" x="417.822266"/>
       <use xlink:href="#DejaVuSans-30" x="453.90625"/>
       <use xlink:href="#DejaVuSans-34" x="517.529297"/>
      </g>
     </g>
    </g>
    <g id="xtick_11">
     <g id="line2d_23">
      <g>
       <use xlink:href="#medd6a6f931" x="550.932071" y="684.92" style="stroke: #000000; stroke-width: 0.8"/>
      </g>
     </g>
     <g id="text_22">
      <!-- 2014-07-05 -->
      <g transform="translate(521.874258 699.518437) scale(0.1 -0.1)">
       <use xlink:href="#DejaVuSans-32"/>
       <use xlink:href="#DejaVuSans-30" x="63.623047"/>
       <use xlink:href="#DejaVuSans-31" x="127.246094"/>
       <use xlink:href="#DejaVuSans-34" x="190.869141"/>
       <use xlink:href="#DejaVuSans-2d" x="254.492188"/>
       <use xlink:href="#DejaVuSans-30" x="290.576172"/>
       <use xlink:href="#DejaVuSans-37" x="354.199219"/>
       <use xlink:href="#DejaVuSans-2d" x="417.822266"/>
       <use xlink:href="#DejaVuSans-30" x="453.90625"/>
       <use xlink:href="#DejaVuSans-35" x="517.529297"/>
      </g>
     </g>
    </g>
    <g id="xtick_12">
     <g id="line2d_24">
      <g>
       <use xlink:href="#medd6a6f931" x="672.024551" y="684.92" style="stroke: #000000; stroke-width: 0.8"/>
      </g>
     </g>
     <g id="text_23">
      <!-- 2014-07-06 -->
      <g transform="translate(642.966738 699.518437) scale(0.1 -0.1)">
       <use xlink:href="#DejaVuSans-32"/>
       <use xlink:href="#DejaVuSans-30" x="63.623047"/>
       <use xlink:href="#DejaVuSans-31" x="127.246094"/>
       <use xlink:href="#DejaVuSans-34" x="190.869141"/>
       <use xlink:href="#DejaVuSans-2d" x="254.492188"/>
       <use xlink:href="#DejaVuSans-30" x="290.576172"/>
       <use xlink:href="#DejaVuSans-37" x="354.199219"/>
       <use xlink:href="#DejaVuSans-2d" x="417.822266"/>
       <use xlink:href="#DejaVuSans-30" x="453.90625"/>
       <use xlink:href="#DejaVuSans-36" x="517.529297"/>
      </g>
     </g>
    </g>
   </g>
   <g id="matplotlib.axis_4">
    <g id="ytick_9">
     <g id="line2d_25">
      <g>
       <use xlink:href="#m0dae38f899" x="36.465625" y="671.351013" style="stroke: #000000; stroke-width: 0.8"/>
      </g>
     </g>
     <g id="text_24">
      <!-- 0.00 -->
      <g transform="translate(7.2 675.150232) scale(0.1 -0.1)">
       <use xlink:href="#DejaVuSans-30"/>
       <use xlink:href="#DejaVuSans-2e" x="63.623047"/>
       <use xlink:href="#DejaVuSans-30" x="95.410156"/>
       <use xlink:href="#DejaVuSans-30" x="159.033203"/>
      </g>
     </g>
    </g>
    <g id="ytick_10">
     <g id="line2d_26">
      <g>
       <use xlink:href="#m0dae38f899" x="36.465625" y="632.550101" style="stroke: #000000; stroke-width: 0.8"/>
      </g>
     </g>
     <g id="text_25">
      <!-- 0.25 -->
      <g transform="translate(7.2 636.349319) scale(0.1 -0.1)">
       <use xlink:href="#DejaVuSans-30"/>
       <use xlink:href="#DejaVuSans-2e" x="63.623047"/>
       <use xlink:href="#DejaVuSans-32" x="95.410156"/>
       <use xlink:href="#DejaVuSans-35" x="159.033203"/>
      </g>
     </g>
    </g>
    <g id="ytick_11">
     <g id="line2d_27">
      <g>
       <use xlink:href="#m0dae38f899" x="36.465625" y="593.749188" style="stroke: #000000; stroke-width: 0.8"/>
      </g>
     </g>
     <g id="text_26">
      <!-- 0.50 -->
      <g transform="translate(7.2 597.548407) scale(0.1 -0.1)">
       <use xlink:href="#DejaVuSans-30"/>
       <use xlink:href="#DejaVuSans-2e" x="63.623047"/>
       <use xlink:href="#DejaVuSans-35" x="95.410156"/>
       <use xlink:href="#DejaVuSans-30" x="159.033203"/>
      </g>
     </g>
    </g>
    <g id="ytick_12">
     <g id="line2d_28">
      <g>
       <use xlink:href="#m0dae38f899" x="36.465625" y="554.948276" style="stroke: #000000; stroke-width: 0.8"/>
      </g>
     </g>
     <g id="text_27">
      <!-- 0.75 -->
      <g transform="translate(7.2 558.747494) scale(0.1 -0.1)">
       <use xlink:href="#DejaVuSans-30"/>
       <use xlink:href="#DejaVuSans-2e" x="63.623047"/>
       <use xlink:href="#DejaVuSans-37" x="95.410156"/>
       <use xlink:href="#DejaVuSans-35" x="159.033203"/>
      </g>
     </g>
    </g>
    <g id="ytick_13">
     <g id="line2d_29">
      <g>
       <use xlink:href="#m0dae38f899" x="36.465625" y="516.147363" style="stroke: #000000; stroke-width: 0.8"/>
      </g>
     </g>
     <g id="text_28">
      <!-- 1.00 -->
      <g transform="translate(7.2 519.946582) scale(0.1 -0.1)">
       <use xlink:href="#DejaVuSans-31"/>
       <use xlink:href="#DejaVuSans-2e" x="63.623047"/>
       <use xlink:href="#DejaVuSans-30" x="95.410156"/>
       <use xlink:href="#DejaVuSans-30" x="159.033203"/>
      </g>
     </g>
    </g>
    <g id="ytick_14">
     <g id="line2d_30">
      <g>
       <use xlink:href="#m0dae38f899" x="36.465625" y="477.34645" style="stroke: #000000; stroke-width: 0.8"/>
      </g>
     </g>
     <g id="text_29">
      <!-- 1.25 -->
      <g transform="translate(7.2 481.145669) scale(0.1 -0.1)">
       <use xlink:href="#DejaVuSans-31"/>
       <use xlink:href="#DejaVuSans-2e" x="63.623047"/>
       <use xlink:href="#DejaVuSans-32" x="95.410156"/>
       <use xlink:href="#DejaVuSans-35" x="159.033203"/>
      </g>
     </g>
    </g>
    <g id="ytick_15">
     <g id="line2d_31">
      <g>
       <use xlink:href="#m0dae38f899" x="36.465625" y="438.545538" style="stroke: #000000; stroke-width: 0.8"/>
      </g>
     </g>
     <g id="text_30">
      <!-- 1.50 -->
      <g transform="translate(7.2 442.344757) scale(0.1 -0.1)">
       <use xlink:href="#DejaVuSans-31"/>
       <use xlink:href="#DejaVuSans-2e" x="63.623047"/>
       <use xlink:href="#DejaVuSans-35" x="95.410156"/>
       <use xlink:href="#DejaVuSans-30" x="159.033203"/>
      </g>
     </g>
    </g>
    <g id="ytick_16">
     <g id="line2d_32">
      <g>
       <use xlink:href="#m0dae38f899" x="36.465625" y="399.744625" style="stroke: #000000; stroke-width: 0.8"/>
      </g>
     </g>
     <g id="text_31">
      <!-- 1.75 -->
      <g transform="translate(7.2 403.543844) scale(0.1 -0.1)">
       <use xlink:href="#DejaVuSans-31"/>
       <use xlink:href="#DejaVuSans-2e" x="63.623047"/>
       <use xlink:href="#DejaVuSans-37" x="95.410156"/>
       <use xlink:href="#DejaVuSans-35" x="159.033203"/>
      </g>
     </g>
    </g>
   </g>
   <g id="line2d_33">
    <path d="M 66.730336 671.334037 
L 67.991716 671.174529 
L 69.084912 670.74401 
L 72.112224 668.646827 
L 72.616776 668.267081 
L 73.373604 667.711406 
L 73.878156 667.348576 
L 74.550892 667.063129 
L 75.223628 666.980987 
L 76.232732 667.082536 
L 79.764596 667.616686 
L 80.100964 667.502862 
L 80.7737 667.039881 
L 81.362344 666.354021 
L 82.371448 664.846954 
L 82.876 663.41566 
L 82.960092 663.218328 
L 83.380552 661.070436 
L 83.548736 660.621649 
L 83.969196 657.799897 
L 84.13738 657.300195 
L 84.473748 654.692422 
L 84.641932 654.37492 
L 84.810116 654.243142 
L 85.146484 652.11604 
L 85.39876 651.957179 
L 85.651036 649.988408 
L 85.81922 649.762727 
L 85.987404 649.757544 
L 86.23968 647.683217 
L 86.407864 647.442528 
L 86.491956 647.480498 
L 86.576048 647.179036 
L 86.828324 643.430315 
L 87.164692 642.042314 
L 87.416968 637.406626 
L 87.92152 632.198369 
L 88.257888 627.014234 
L 88.426072 624.831207 
L 88.76244 618.078095 
L 89.014716 614.62758 
L 89.351084 607.742638 
L 89.687452 601.869994 
L 90.107912 595.090794 
L 91.201108 577.672667 
L 91.453384 575.224908 
L 91.70566 571.597305 
L 92.042028 568.980024 
L 92.294304 565.572859 
L 92.630672 563.304872 
L 92.882948 560.481982 
L 93.219316 558.760702 
L 93.471592 556.669971 
L 93.892052 555.457933 
L 94.144328 554.242694 
L 94.480696 554.026899 
L 94.64888 553.496751 
L 94.817064 553.618992 
L 94.985248 553.865056 
L 95.06934 553.202981 
L 95.237524 549.181549 
L 95.321616 549.073509 
L 95.4898 549.191476 
L 95.573892 549.092306 
L 95.742076 548.281977 
L 96.582996 543.988626 
L 96.75118 543.81311 
L 96.919364 543.992632 
L 97.255732 545.142736 
L 97.760284 548.195177 
L 98.601204 554.430718 
L 98.685296 553.70361 
L 98.85348 546.885052 
L 99.021664 547.684659 
L 99.189848 548.076766 
L 99.27394 546.071762 
L 99.442124 537.032499 
L 99.6944 536.398787 
L 99.862584 534.198915 
L 99.946676 530.972308 
L 100.198952 518.208769 
L 100.451228 511.986012 
L 101.628516 457.254345 
L 102.133068 438.737974 
L 102.301252 434.156616 
L 102.553528 425.166336 
L 102.973988 419.095442 
L 103.142172 413.223829 
L 103.562632 410.229419 
L 103.730816 406.037207 
L 103.983092 405.605747 
L 104.067184 405.563008 
L 104.151276 404.773355 
L 104.31946 401.678425 
L 104.403552 401.718204 
L 104.655828 402.333626 
L 104.73992 401.951029 
L 104.908104 399.74 
L 105.16038 400.9183 
L 105.244472 401.399882 
L 105.328564 401.346393 
L 105.496748 399.95005 
L 106.0013 403.551742 
L 106.085392 402.853913 
L 106.169484 403.103464 
L 106.589944 407.32193 
L 106.674036 407.011341 
L 106.84222 408.446168 
L 107.178588 412.165346 
L 107.26268 412.064993 
L 107.430864 413.611422 
L 107.851324 417.483276 
L 108.1036 420.040232 
L 108.608152 424.602015 
L 109.028612 428.731376 
L 109.112704 428.54005 
L 109.280888 429.806826 
L 109.617256 432.454236 
L 109.701348 431.801403 
L 109.78544 431.988067 
L 110.121808 434.231252 
L 110.2059 434.185368 
L 110.374084 432.258877 
L 110.710452 433.394271 
L 110.794544 432.518844 
L 110.962728 428.195474 
L 111.215004 428.261063 
L 111.299096 428.088719 
L 111.383188 425.82089 
L 111.551372 416.349065 
L 111.803648 414.52252 
L 112.055924 410.794702 
L 112.392292 405.225593 
L 112.812752 401.712505 
L 112.896844 401.664123 
L 113.065028 402.089885 
L 113.485488 405.007698 
L 114.074132 412.433991 
L 115.25142 428.033269 
L 116.09234 436.703544 
L 116.680984 442.416893 
L 118.026456 455.855929 
L 119.203744 465.20481 
L 119.87648 469.277278 
L 120.969676 474.323603 
L 121.894688 477.442067 
L 122.903792 480.181765 
L 123.744712 481.999854 
L 124.753816 483.879407 
L 127.192484 487.521525 
L 127.360668 487.103109 
L 128.117496 488.034282 
L 128.537956 488.239688 
L 129.378876 488.880328 
L 130.051612 489.788041 
L 131.312992 492.433602 
L 133.835752 498.136312 
L 134.088028 498.577837 
L 135.01304 500.381921 
L 135.265316 500.756377 
L 136.358512 502.511431 
L 136.69488 503.066372 
L 137.11534 503.608398 
L 137.788076 504.857412 
L 138.292628 507.715927 
L 139.049456 512.314584 
L 139.722192 515.404112 
L 140.142652 516.77174 
L 140.563112 517.940855 
L 140.89948 518.786753 
L 141.151756 519.17355 
L 141.404032 519.640154 
L 141.656308 520.113326 
L 141.824492 520.141236 
L 142.329044 520.970187 
L 142.413136 520.899094 
L 142.58132 521.073954 
L 142.917688 521.595684 
L 143.085872 521.527496 
L 143.506332 522.091937 
L 143.674516 521.966199 
L 144.179068 522.490667 
L 144.431344 522.806196 
L 145.10408 524.146479 
L 145.692724 525.994967 
L 146.617736 530.020468 
L 150.906428 550.982553 
L 152.588268 557.42967 
L 153.09282 559.053585 
L 153.765556 560.774263 
L 154.017832 561.147193 
L 154.438292 561.917845 
L 154.606476 562.003174 
L 156.624684 564.515199 
L 157.465604 565.857387 
L 157.71788 566.155459 
L 158.726984 567.779105 
L 158.97926 568.116974 
L 159.231536 568.498831 
L 159.39972 568.465528 
L 159.904272 568.850604 
L 160.072456 568.885628 
L 160.492916 569.133903 
L 160.745192 569.079498 
L 161.165652 569.135762 
L 161.417928 569.171868 
L 162.258848 569.60825 
L 162.427032 569.450069 
L 162.847492 569.782314 
L 164.108872 570.790297 
L 164.192964 570.614632 
L 164.361148 570.60416 
L 164.697516 570.880344 
L 164.949792 570.851029 
L 165.28616 570.955202 
L 165.454344 570.765356 
L 166.968 570.862657 
L 167.640736 571.409882 
L 169.574852 573.625666 
L 169.743036 573.464997 
L 171.929428 574.971407 
L 172.097612 574.732217 
L 172.43398 575.019391 
L 172.602164 575.118931 
L 172.770348 574.968345 
L 173.190808 575.062177 
L 173.443084 574.719488 
L 173.779452 574.637812 
L 174.031728 574.103196 
L 174.95674 573.559948 
L 175.209016 573.303292 
L 175.713568 573.350684 
L 176.134028 573.593196 
L 176.302212 573.575656 
L 176.470396 573.648266 
L 176.890856 573.93285 
L 177.05904 574.010493 
L 179.834076 577.066125 
L 179.918168 576.958556 
L 180.086352 577.008483 
L 180.927272 577.765148 
L 181.011364 577.781735 
L 181.179548 577.607189 
L 181.515916 577.799977 
L 181.6841 577.849997 
L 181.852284 577.576449 
L 182.356836 577.448907 
L 182.609112 577.310422 
L 183.450032 577.142991 
L 183.702308 576.997882 
L 184.375044 577.208061 
L 185.04778 577.812466 
L 185.972792 578.77759 
L 186.140976 578.903651 
L 186.477344 579.36019 
L 186.645528 579.302705 
L 187.065988 579.616827 
L 187.234172 579.365593 
L 188.243276 579.289532 
L 188.41146 579.116883 
L 188.663736 579.007982 
L 188.916012 578.964031 
L 189.168288 578.549075 
L 189.504656 578.456363 
L 189.756932 577.921321 
L 190.0933 577.736563 
L 190.345576 577.316629 
L 190.766036 576.983904 
L 191.018312 576.452682 
L 192.61606 575.324457 
L 192.784244 575.16364 
L 194.2979 575.457077 
L 195.391096 576.174426 
L 197.493396 578.934244 
L 197.997947 579.803547 
L 198.082039 579.72633 
L 198.250223 579.853085 
L 198.586591 580.340115 
L 198.754775 580.097807 
L 199.847971 580.552256 
L 200.100247 580.483207 
L 200.520707 580.542043 
L 200.772983 580.598029 
L 201.109351 580.707522 
L 201.361627 580.810253 
L 201.613903 580.934353 
L 201.782087 580.582423 
L 202.034363 580.668983 
L 202.202547 580.715173 
L 202.454823 580.527473 
L 203.463927 580.6479 
L 203.884387 580.946019 
L 204.388939 581.566483 
L 205.145767 582.973242 
L 206.659423 586.697703 
L 208.509447 591.262964 
L 210.023103 594.501047 
L 210.779931 595.916484 
L 212.125403 598.093877 
L 212.461771 598.582577 
L 212.545863 598.125247 
L 212.798139 594.165259 
L 213.050415 594.316367 
L 213.134507 593.465011 
L 213.386783 587.521538 
L 213.639059 586.07734 
L 213.723151 584.818446 
L 213.975427 577.481285 
L 214.311795 572.593298 
L 214.564071 565.334436 
L 214.984531 557.471253 
L 215.236807 549.715046 
L 215.573175 543.234885 
L 215.825451 537.053702 
L 216.666371 524.726905 
L 217.255015 519.125825 
L 217.759567 516.224691 
L 218.011843 515.873538 
L 218.180027 514.825341 
L 218.348211 514.981977 
L 218.600487 515.329051 
L 218.768671 514.895518 
L 219.020947 515.742379 
L 219.189131 516.215653 
L 219.273223 515.990672 
L 219.357315 516.105457 
L 219.777775 517.837439 
L 219.861867 517.745338 
L 219.945959 517.89893 
L 220.450511 519.847771 
L 220.618695 520.501187 
L 221.627799 525.064932 
L 221.711891 525.163194 
L 222.132351 527.240289 
L 223.057363 531.768594 
L 223.393731 534.099505 
L 223.477823 533.394414 
L 223.561915 533.40841 
L 223.982375 534.99398 
L 224.066467 534.587534 
L 224.234651 531.830972 
L 224.402835 531.854174 
L 224.486927 531.860307 
L 224.571019 531.749287 
L 224.655111 530.642459 
L 224.823295 524.456068 
L 225.159663 523.521056 
L 225.243755 520.187083 
L 225.411939 509.294975 
L 225.664215 507.625213 
L 226.000583 499.350061 
L 226.589227 484.705693 
L 226.925595 480.86161 
L 227.177871 480.206409 
L 227.346055 480.760757 
L 227.598331 482.883922 
L 228.439251 494.364959 
L 229.700631 513.251752 
L 230.793827 526.38921 
L 231.718839 535.420046 
L 232.391575 541.93464 
L 233.737047 558.559376 
L 234.662059 567.296627 
L 235.418887 572.635186 
L 236.427991 577.780125 
L 237.521187 582.204256 
L 238.614383 585.349131 
L 239.623487 587.076636 
L 239.959855 587.36852 
L 240.548499 587.731477 
L 241.053051 587.797121 
L 241.389419 587.772458 
L 241.557603 587.759109 
L 241.809879 587.566599 
L 242.230339 587.479095 
L 242.482615 587.179534 
L 242.818983 587.006265 
L 243.071259 586.46805 
L 243.491719 585.99967 
L 244.416731 584.554778 
L 244.584915 584.283719 
L 244.837191 583.456674 
L 245.257651 582.785108 
L 245.509927 581.828615 
L 245.846295 581.150934 
L 246.098571 580.137965 
L 246.519031 578.975678 
L 246.855399 578.105561 
L 247.864503 576.357121 
L 248.537239 576.018623 
L 248.873607 576.142473 
L 249.041791 575.960648 
L 249.462251 576.202817 
L 249.630435 575.908316 
L 249.882711 576.029206 
L 250.050895 576.087486 
L 250.303171 575.90456 
L 251.396367 576.057671 
L 251.564551 576.031926 
L 251.900919 576.28823 
L 252.069103 576.195166 
L 252.741839 576.660743 
L 253.078207 576.908167 
L 253.246391 576.646987 
L 253.498667 576.843457 
L 253.666851 576.928731 
L 253.835035 576.624295 
L 254.171403 576.734815 
L 254.844139 576.849766 
L 254.928231 576.827657 
L 255.096415 576.538392 
L 255.348691 576.618689 
L 255.516875 576.628504 
L 255.685059 576.176294 
L 255.937335 576.184047 
L 256.189611 576.138051 
L 256.610071 576.08732 
L 257.114623 576.190569 
L 257.619175 576.6288 
L 257.955543 577.064025 
L 258.039635 576.99259 
L 258.207819 577.117745 
L 259.721475 579.75732 
L 259.889659 579.773315 
L 260.394211 580.632266 
L 260.478303 580.51256 
L 260.646487 580.572774 
L 260.982855 580.947452 
L 261.151039 580.904639 
L 261.655591 581.033439 
L 261.907867 581.050757 
L 262.160143 581.119907 
L 262.412419 580.961292 
L 262.832879 580.994299 
L 263.085155 581.012634 
L 263.421523 581.092885 
L 263.673799 580.733323 
L 264.010167 580.795285 
L 264.262443 580.435649 
L 264.598811 580.373011 
L 264.851087 580.085744 
L 265.187455 579.987417 
L 265.439731 579.611009 
L 265.776099 579.539287 
L 266.028375 579.316591 
L 266.701111 579.367193 
L 267.037479 579.523607 
L 267.205663 579.288237 
L 267.457939 579.456464 
L 268.214767 580.03875 
L 268.467043 580.182601 
L 269.476147 581.469978 
L 269.560239 581.322121 
L 269.728423 581.376331 
L 270.148883 581.777708 
L 270.317067 581.848579 
L 270.737527 582.102293 
L 270.989803 582.202785 
L 271.242079 582.306848 
L 271.410263 581.975047 
L 271.662539 582.03589 
L 271.914815 582.047972 
L 272.251183 582.06837 
L 272.503459 582.095354 
L 272.755735 581.856719 
L 273.092103 581.942808 
L 273.344379 581.668964 
L 273.680747 581.672886 
L 273.933023 581.126595 
L 274.269391 580.983781 
L 274.521667 580.252269 
L 275.698955 579.124571 
L 276.035323 579.123414 
L 276.455783 579.36451 
L 277.044427 580.044236 
L 277.380795 580.427517 
L 277.548979 580.601859 
L 277.969439 581.243646 
L 278.221715 581.581099 
L 278.558083 582.057602 
L 278.726267 581.842445 
L 279.146727 582.191249 
L 279.314911 581.797588 
L 279.735371 581.814915 
L 279.987647 581.398978 
L 281.164935 580.920579 
L 281.669487 580.991283 
L 281.837671 581.000552 
L 282.510407 581.722573 
L 282.762683 581.997924 
L 282.930867 581.772546 
L 283.351327 582.195532 
L 283.519511 581.889134 
L 283.855879 582.074753 
L 284.528615 582.238363 
L 284.612707 582.233627 
L 284.780891 582.049516 
L 285.201351 582.183515 
L 285.369535 581.821335 
L 285.621811 581.880855 
L 285.789995 581.926388 
L 286.042271 581.833472 
L 286.378639 581.842232 
L 286.630915 581.317459 
L 286.967283 581.323916 
L 287.219559 581.085586 
L 287.808203 581.083496 
L 288.228663 581.298134 
L 288.649123 581.763545 
L 289.237767 582.832898 
L 289.994595 584.733607 
L 291.760527 590.073026 
L 293.526459 595.174921 
L 294.956023 598.658489 
L 296.049219 600.827321 
L 296.217403 600.781168 
L 296.553771 601.266038 
L 297.142415 602.011504 
L 297.815151 602.522823 
L 301.178831 604.594867 
L 301.599291 604.819228 
L 301.851567 604.910733 
L 303.197039 605.710594 
L 306.476627 607.247513 
L 306.812995 607.315961 
L 306.981179 607.357076 
L 307.233455 607.205681 
L 307.569823 607.211347 
L 307.822099 606.887683 
L 308.158467 606.748712 
L 308.410743 606.207893 
L 308.831203 605.806456 
L 309.083479 605.041665 
L 309.419847 604.51623 
L 309.756215 603.308294 
L 310.008491 602.647811 
L 310.344859 600.965861 
L 310.597135 600.104676 
L 310.933503 598.14138 
L 311.185779 597.147639 
L 311.522147 594.919357 
L 311.858515 593.306322 
L 312.110791 590.505208 
L 312.447159 588.632437 
L 312.699435 585.477755 
L 313.035803 582.994667 
L 313.288079 579.434252 
L 313.624447 576.430675 
L 313.876723 573.042816 
L 314.213091 570.069137 
L 314.465367 566.440219 
L 316.315391 549.950009 
L 316.651759 548.335947 
L 316.904035 546.146139 
L 317.240403 544.936886 
L 317.492679 542.995917 
L 317.913139 541.997943 
L 318.081323 540.652036 
L 318.333599 540.403761 
L 318.501783 540.201824 
L 318.669967 539.186968 
L 318.838151 539.148133 
L 319.090427 539.126736 
L 319.258611 538.520009 
L 319.510887 538.841587 
L 319.679071 539.054773 
L 319.847255 538.893318 
L 320.183623 539.87205 
L 320.267715 539.368535 
L 320.435899 535.863079 
L 320.519991 535.884736 
L 320.688175 536.153306 
L 320.856359 536.009918 
L 321.192727 534.429335 
L 321.781371 532.315357 
L 321.949555 532.444388 
L 322.201831 533.327558 
L 322.622291 536.131974 
L 323.463211 544.243173 
L 325.817787 567.495076 
L 326.658707 573.574379 
L 327.583719 578.761021 
L 328.845099 584.382231 
L 330.022387 588.091446 
L 331.872411 592.441524 
L 334.815631 598.860195 
L 337.842943 604.196738 
L 339.104323 605.775383 
L 341.038439 607.890499 
L 342.888463 609.60274 
L 344.738487 611.083229 
L 347.008971 612.6071 
L 349.531731 614.013457 
L 352.390859 615.327537 
L 356.006815 616.704967 
L 360.295507 618.114765 
L 371.395651 621.364194 
L 386.952671 625.293367 
L 394.436859 626.908802 
L 417.225791 631.747006 
L 435.305571 635.895223 
L 445.732979 637.816022 
L 461.205907 640.492971 
L 472.810603 642.226785 
L 492.992683 644.573872 
L 506.026943 645.780431 
L 532.600015 648.080976 
L 565.648171 650.662837 
L 575.991487 651.508375 
L 599.873615 653.512116 
L 617.532935 654.747241 
L 651.422011 656.666832 
L 672.024551 657.704873 
L 672.024551 657.704873 
" clip-path="url(#pd590e120ea)" style="fill: none; stroke: #1f77b4; stroke-width: 1.5; stroke-linecap: square"/>
   </g>
   <g id="line2d_34">
    <path d="M 66.730336 671.339845 
L 67.487164 671.243963 
L 68.328084 670.829362 
L 68.916728 670.402699 
L 69.673556 669.801508 
L 74.130432 665.890269 
L 74.719076 665.698229 
L 75.391812 665.729722 
L 76.232732 666.034938 
L 77.662296 666.861924 
L 79.09186 667.623246 
L 79.51232 667.673923 
L 80.100964 667.496907 
L 80.7737 666.882595 
L 81.362344 665.98788 
L 82.371448 663.966666 
L 83.632828 659.91445 
L 84.473748 656.345248 
L 85.566944 651.562028 
L 87.164692 642.275278 
L 88.34198 632.754083 
L 88.594256 630.522567 
L 89.435176 623.507822 
L 89.771544 620.794677 
L 90.528372 614.825742 
L 91.957936 606.058851 
L 92.12612 605.135534 
L 92.462488 602.969734 
L 92.714764 601.788804 
L 93.051132 599.742949 
L 93.303408 598.713521 
L 93.639776 597.075023 
L 94.396604 595.422439 
L 94.480696 595.401172 
L 94.817064 594.935521 
L 95.06934 595.065079 
L 95.994352 585.854945 
L 96.33072 584.972805 
L 96.498904 584.854517 
L 96.667088 584.970353 
L 96.919364 585.510086 
L 97.339824 587.172995 
L 97.928468 590.605278 
L 98.685296 596.132825 
L 98.85348 592.874854 
L 99.442124 578.308345 
L 102.21716 471.459269 
L 103.47854 440.957812 
L 103.646724 438.344588 
L 103.983092 433.196444 
L 104.235368 430.931778 
L 104.487644 428.131858 
L 105.16038 425.167882 
L 105.328564 425.494854 
L 105.58084 424.826216 
L 105.664932 424.909705 
L 105.833116 425.590797 
L 106.085392 427.005209 
L 106.169484 427.109666 
L 106.337668 427.877153 
L 107.599048 437.510516 
L 108.439968 445.824753 
L 108.776336 449.035314 
L 109.280888 453.84883 
L 109.78544 457.319434 
L 110.037716 458.348114 
L 110.2059 459.381911 
L 110.289992 459.214024 
L 110.542268 458.283735 
L 110.62636 458.253033 
L 110.794544 458.408939 
L 111.46728 449.282459 
L 111.88774 436.826477 
L 112.3082 430.387403 
L 112.644568 428.239984 
L 112.896844 427.49855 
L 112.980936 427.499191 
L 113.14912 427.853929 
L 113.56958 429.622167 
L 114.074132 433.648455 
L 114.746868 441.036552 
L 115.924156 457.113913 
L 118.110548 488.06579 
L 119.203744 500.098918 
L 120.128756 508.073848 
L 121.053768 514.318482 
L 121.894688 518.73656 
L 122.903792 522.837773 
L 123.996988 526.144657 
L 124.837908 528.222521 
L 126.687932 531.606927 
L 127.192484 532.395966 
L 127.360668 531.77052 
L 127.781128 530.436833 
L 128.201588 529.608316 
L 128.790232 529.159469 
L 129.462968 529.281319 
L 130.556164 530.324222 
L 135.01304 536.672407 
L 137.451708 538.387553 
L 137.95626 538.485767 
L 138.124444 538.540553 
L 138.37672 538.485509 
L 138.79718 538.528788 
L 139.049456 538.511789 
L 139.469916 538.587104 
L 139.722192 538.575613 
L 139.974468 538.623768 
L 140.226744 538.473809 
L 140.563112 538.483064 
L 140.815388 538.283586 
L 141.151756 538.242113 
L 141.404032 537.9967 
L 141.7404 537.908556 
L 141.992676 537.618882 
L 142.244952 537.605652 
L 142.413136 537.554704 
L 142.665412 537.280743 
L 143.00178 537.166938 
L 143.254056 536.827224 
L 143.590424 536.64703 
L 143.8427 536.248993 
L 144.347252 536.019514 
L 144.599528 536.11147 
L 145.10408 536.656313 
L 145.608632 537.740983 
L 146.281368 539.757429 
L 147.374564 543.880109 
L 150.065508 554.274452 
L 151.326888 558.17732 
L 152.588268 561.367282 
L 153.09282 561.812988 
L 153.261004 561.841224 
L 153.597372 561.523184 
L 153.849648 561.343969 
L 154.270108 560.851388 
L 154.606476 560.560103 
L 155.026936 560.277326 
L 155.363304 560.279073 
L 156.540592 560.575701 
L 157.633788 560.781384 
L 157.970156 560.876557 
L 158.474708 561.309914 
L 158.726984 561.54465 
L 158.97926 561.555915 
L 159.315628 561.657392 
L 159.651996 561.466954 
L 159.904272 561.418805 
L 160.24064 561.202669 
L 160.997468 561.240617 
L 161.249744 561.260354 
L 161.586112 561.361884 
L 162.511124 561.914098 
L 162.847492 562.014856 
L 163.267952 562.416362 
L 163.772504 562.959517 
L 164.192964 563.285474 
L 164.44524 563.064585 
L 165.117976 562.986011 
L 165.370252 563.047059 
L 165.622528 562.95579 
L 166.54754 563.159694 
L 166.968 563.563198 
L 167.893012 565.044581 
L 168.481656 565.968206 
L 168.818024 566.195957 
L 169.658944 566.934059 
L 169.91122 566.802886 
L 170.33168 566.895736 
L 170.668048 567.140392 
L 171.256692 567.90616 
L 171.929428 568.872946 
L 172.097612 568.771003 
L 172.43398 568.668441 
L 172.686256 568.673965 
L 173.022624 568.519021 
L 173.2749 568.468068 
L 173.611268 568.142863 
L 173.863544 567.973566 
L 174.199912 567.446889 
L 174.53628 567.310589 
L 174.872648 567.461157 
L 175.124924 567.535304 
L 175.461292 567.700825 
L 175.965844 568.3131 
L 176.386304 568.845087 
L 177.815868 569.911405 
L 178.572696 571.186518 
L 178.909064 571.624484 
L 179.918168 572.706422 
L 180.170444 572.606647 
L 180.506812 572.727643 
L 180.927272 573.146905 
L 181.095456 573.258178 
L 181.347732 573.199854 
L 181.768192 573.298769 
L 182.10456 573.044541 
L 182.356836 572.960241 
L 182.693204 572.699305 
L 183.113664 572.753857 
L 184.122768 573.464906 
L 184.543228 573.958586 
L 185.215964 575.170627 
L 185.636424 575.788713 
L 185.972792 576.222772 
L 186.225068 576.235807 
L 186.645528 576.309554 
L 186.981896 576.299314 
L 187.15008 576.252897 
L 187.486448 575.939028 
L 187.991 575.886678 
L 189.000104 576.023927 
L 189.336472 575.712166 
L 189.588748 575.550696 
L 189.925116 575.037657 
L 191.438772 574.080496 
L 191.691048 574.029957 
L 192.61606 574.232791 
L 192.952428 573.930077 
L 193.372888 573.980417 
L 193.709256 574.288121 
L 194.045624 574.539543 
L 195.475188 575.865146 
L 196.063832 576.887298 
L 196.316108 577.179867 
L 196.736568 577.629182 
L 197.66158 579.179902 
L 198.082039 579.950306 
L 198.334315 579.94205 
L 198.670683 579.990458 
L 199.007051 579.57327 
L 199.343419 579.473306 
L 199.679787 579.596001 
L 200.520707 580.150497 
L 200.857075 580.303761 
L 201.361627 580.6022 
L 201.697995 580.753725 
L 202.034363 580.379244 
L 202.875283 580.084148 
L 203.211651 580.348995 
L 203.716203 581.069166 
L 204.473031 582.615075 
L 205.986687 586.376854 
L 207.836711 590.819882 
L 209.182183 593.469087 
L 210.527655 595.611548 
L 211.957219 597.462591 
L 212.545863 598.108306 
L 212.798139 595.09239 
L 213.302691 588.002101 
L 215.993635 535.252841 
L 217.423199 518.269726 
L 217.759567 515.56469 
L 218.432303 512.884964 
L 218.684579 512.512111 
L 218.936855 511.901649 
L 219.105039 511.977351 
L 219.189131 512.086713 
L 219.273223 512.019449 
L 219.441407 511.861419 
L 219.609591 512.060324 
L 219.861867 512.599553 
L 220.030051 512.733116 
L 220.282327 513.499581 
L 220.534603 514.177541 
L 220.786879 515.032377 
L 223.057363 525.390538 
L 223.309639 526.024578 
L 223.393731 526.260795 
L 223.561915 525.630387 
L 223.814191 524.964272 
L 224.066467 524.852672 
L 224.655111 519.56035 
L 225.327847 503.210228 
L 225.748307 483.959751 
L 226.252859 470.928683 
L 226.673319 465.481328 
L 227.009687 463.665495 
L 227.261963 463.327773 
L 227.430147 463.530445 
L 227.682423 464.479987 
L 228.018791 466.445744 
L 228.607435 471.799099 
L 229.532447 483.049758 
L 232.391575 520.559933 
L 233.400679 530.198381 
L 234.325691 537.093364 
L 235.250703 542.434106 
L 236.175715 546.564891 
L 237.184819 550.062986 
L 237.941647 552.035444 
L 238.614383 553.259887 
L 239.539395 553.830208 
L 240.884867 554.182152 
L 241.221235 554.306172 
L 242.230339 554.627489 
L 242.903075 554.484924 
L 243.239443 554.106544 
L 244.669007 553.357736 
L 245.005375 552.82797 
L 245.341743 552.51853 
L 245.678111 551.86883 
L 245.930387 551.520572 
L 246.266755 550.831187 
L 246.687215 550.206999 
L 247.023583 549.94611 
L 247.359951 549.810637 
L 247.780411 550.001354 
L 248.116779 550.347019 
L 248.873607 551.332722 
L 249.546343 551.699186 
L 249.798619 551.553925 
L 250.555447 551.679102 
L 250.975907 552.180541 
L 251.480459 552.882167 
L 251.816827 553.151737 
L 252.069103 553.30501 
L 252.405471 553.577474 
L 252.994115 554.476364 
L 253.162299 554.657848 
L 253.414575 554.606451 
L 253.750943 554.69168 
L 254.003219 554.469719 
L 254.255495 554.485401 
L 254.675955 554.820672 
L 255.012323 555.20294 
L 255.264599 555.183798 
L 255.600967 555.267868 
L 255.937335 554.900979 
L 256.357795 554.90736 
L 256.694163 555.202791 
L 257.114623 555.813287 
L 257.871451 557.481788 
L 258.123727 557.816141 
L 258.460095 558.163341 
L 259.048739 559.216893 
L 259.889659 560.865506 
L 260.226027 561.165583 
L 260.478303 561.379021 
L 260.730579 561.268763 
L 261.487407 561.429495 
L 261.739683 561.506275 
L 262.076051 561.690617 
L 262.328327 561.766481 
L 262.664695 561.9182 
L 263.421523 562.480494 
L 264.094259 562.184079 
L 264.430627 561.898882 
L 266.112467 561.823458 
L 266.448835 562.109953 
L 266.953387 562.747481 
L 267.121571 562.902978 
L 267.373847 562.867102 
L 267.794307 563.148552 
L 268.214767 563.70148 
L 268.887503 564.713285 
L 269.644331 565.830163 
L 269.980699 565.902119 
L 270.148883 565.948868 
L 270.401159 565.922171 
L 271.073895 566.264628 
L 271.326171 566.394334 
L 271.578447 566.195302 
L 271.998907 566.211727 
L 272.335275 566.417343 
L 272.587551 566.608755 
L 272.839827 566.59419 
L 273.176195 566.71203 
L 273.428471 566.590102 
L 273.764839 566.539404 
L 274.101207 566.052081 
L 274.353483 565.785806 
L 274.689851 565.08833 
L 275.026219 564.832276 
L 275.278495 564.850736 
L 275.867139 565.29483 
L 276.371691 566.061516 
L 277.548979 568.095065 
L 278.726267 568.991508 
L 278.978543 568.915371 
L 279.146727 568.949313 
L 280.155831 567.802688 
L 280.492199 567.805698 
L 280.828567 568.076587 
L 281.837671 569.129578 
L 282.174039 569.422866 
L 282.678591 570.238884 
L 282.846775 570.411975 
L 283.099051 570.324394 
L 283.435419 570.337879 
L 283.771787 569.970181 
L 284.108155 569.950417 
L 284.444523 570.176559 
L 284.696799 570.397611 
L 284.949075 570.444564 
L 285.285443 570.590155 
L 285.537719 570.353691 
L 286.042271 570.309352 
L 286.462731 570.424096 
L 286.799099 570.043503 
L 287.471835 569.895454 
L 287.808203 570.196647 
L 288.312755 571.050291 
L 289.069583 572.906115 
L 290.499147 577.196453 
L 292.349171 582.542888 
L 293.610551 585.525679 
L 294.871931 587.942716 
L 296.049219 589.77445 
L 296.217403 589.603416 
L 296.637863 589.220289 
L 297.058323 589.106532 
L 297.562875 589.213149 
L 298.235611 589.630804 
L 299.076531 590.440159 
L 300.337911 591.991474 
L 301.599291 593.598407 
L 302.019751 593.641341 
L 302.608395 593.947886 
L 303.449315 594.661132 
L 306.140259 597.151545 
L 306.560719 597.248132 
L 307.233455 597.043788 
L 307.738007 596.642511 
L 308.915295 594.922096 
L 309.335755 594.009233 
L 309.503939 593.636424 
L 309.924399 592.492652 
L 310.092583 592.037519 
L 310.513043 590.686112 
L 310.681227 590.157179 
L 311.101687 588.618298 
L 311.269871 588.023057 
L 311.690331 586.311863 
L 311.942607 585.356278 
L 312.363067 582.770012 
L 312.531251 581.70507 
L 312.951711 578.526827 
L 313.203987 576.415446 
L 314.128999 568.994639 
L 314.381275 566.794364 
L 314.801735 563.774116 
L 314.969919 562.651899 
L 315.390379 559.61532 
L 315.558563 558.520755 
L 315.979023 555.605629 
L 316.147207 554.573528 
L 316.483575 552.205353 
L 316.735851 550.888604 
L 317.072219 548.686611 
L 317.324495 547.49739 
L 317.660863 545.467255 
L 318.081323 543.76466 
L 318.417691 542.493075 
L 318.585875 541.936509 
L 318.922243 540.647254 
L 319.174519 540.17966 
L 319.426795 539.500632 
L 319.594979 539.416989 
L 319.679071 539.434659 
L 320.015439 539.144216 
L 320.267715 539.422181 
L 321.192727 530.974209 
L 321.445003 530.413617 
L 321.697279 530.385646 
L 321.949555 530.823853 
L 322.285923 532.055879 
L 322.790475 534.892257 
L 323.631395 540.943455 
L 326.070063 559.179954 
L 327.079167 564.950347 
L 328.172363 569.663209 
L 329.097375 572.494771 
L 329.938295 574.451622 
L 332.461055 579.88736 
L 334.479263 583.930583 
L 335.404275 585.415626 
L 337.758851 588.715445 
L 339.861151 591.2681 
L 342.299819 593.878282 
L 345.411223 596.872712 
L 349.615823 600.595438 
L 354.493159 604.614331 
L 359.622771 608.550848 
L 364.920567 612.333407 
L 370.386547 615.960856 
L 376.020711 619.432885 
L 381.907151 622.796295 
L 387.961775 625.999254 
L 394.268675 629.083897 
L 400.827851 632.04418 
L 407.723395 634.909141 
L 414.871215 637.636744 
L 422.355403 640.253908 
L 430.175959 642.753246 
L 438.416975 645.152676 
L 447.078451 647.442035 
L 456.244479 649.632724 
L 465.915059 651.713558 
L 476.174283 653.691566 
L 487.106243 655.569673 
L 498.710939 657.335633 
L 511.156555 659.001964 
L 524.527183 660.564477 
L 538.906915 662.018396 
L 554.548027 663.372534 
L 571.534611 664.616711 
L 590.203035 665.757428 
L 610.805575 666.790075 
L 633.846783 667.718173 
L 659.915303 668.54054 
L 672.024551 668.855866 
L 672.024551 668.855866 
" clip-path="url(#pd590e120ea)" style="fill: none; stroke: #ff7f0e; stroke-width: 1.5; stroke-linecap: square"/>
   </g>
   <g id="patch_9">
    <path d="M 36.465625 684.92 
L 36.465625 386.16 
" style="fill: none; stroke: #000000; stroke-width: 0.8; stroke-linejoin: miter; stroke-linecap: square"/>
   </g>
   <g id="patch_10">
    <path d="M 702.289261 684.92 
L 702.289261 386.16 
" style="fill: none; stroke: #000000; stroke-width: 0.8; stroke-linejoin: miter; stroke-linecap: square"/>
   </g>
   <g id="patch_11">
    <path d="M 36.465625 684.92 
L 702.289261 684.92 
" style="fill: none; stroke: #000000; stroke-width: 0.8; stroke-linejoin: miter; stroke-linecap: square"/>
   </g>
   <g id="patch_12">
    <path d="M 36.465625 386.16 
L 702.289261 386.16 
" style="fill: none; stroke: #000000; stroke-width: 0.8; stroke-linejoin: miter; stroke-linecap: square"/>
   </g>
   <g id="text_32">
    <!-- 2 transformation(s) -->
    <g transform="translate(311.262756 380.16) scale(0.12 -0.12)">
     <use xlink:href="#DejaVuSans-32"/>
     <use xlink:href="#DejaVuSans-20" x="63.623047"/>
     <use xlink:href="#DejaVuSans-74" x="95.410156"/>
     <use xlink:href="#DejaVuSans-72" x="134.619141"/>
     <use xlink:href="#DejaVuSans-61" x="175.732422"/>
     <use xlink:href="#DejaVuSans-6e" x="237.011719"/>
     <use xlink:href="#DejaVuSans-73" x="300.390625"/>
     <use xlink:href="#DejaVuSans-66" x="352.490234"/>
     <use xlink:href="#DejaVuSans-6f" x="387.695312"/>
     <use xlink:href="#DejaVuSans-72" x="448.876953"/>
     <use xlink:href="#DejaVuSans-6d" x="488.240234"/>
     <use xlink:href="#DejaVuSans-61" x="585.652344"/>
     <use xlink:href="#DejaVuSans-74" x="646.931641"/>
     <use xlink:href="#DejaVuSans-69" x="686.140625"/>
     <use xlink:href="#DejaVuSans-6f" x="713.923828"/>
     <use xlink:href="#DejaVuSans-6e" x="775.105469"/>
     <use xlink:href="#DejaVuSans-28" x="838.484375"/>
     <use xlink:href="#DejaVuSans-73" x="877.498047"/>
     <use xlink:href="#DejaVuSans-29" x="929.597656"/>
    </g>
   </g>
  </g>
  <g id="text_33">
   <!-- training -->
   <g transform="translate(333.282187 16.318125) scale(0.12 -0.12)">
    <defs>
     <path id="DejaVuSans-67" d="M 2906 1791 
Q 2906 2416 2648 2759 
Q 2391 3103 1925 3103 
Q 1463 3103 1205 2759 
Q 947 2416 947 1791 
Q 947 1169 1205 825 
Q 1463 481 1925 481 
Q 2391 481 2648 825 
Q 2906 1169 2906 1791 
z
M 3481 434 
Q 3481 -459 3084 -895 
Q 2688 -1331 1869 -1331 
Q 1566 -1331 1297 -1286 
Q 1028 -1241 775 -1147 
L 775 -588 
Q 1028 -725 1275 -790 
Q 1522 -856 1778 -856 
Q 2344 -856 2625 -561 
Q 2906 -266 2906 331 
L 2906 616 
Q 2728 306 2450 153 
Q 2172 0 1784 0 
Q 1141 0 747 490 
Q 353 981 353 1791 
Q 353 2603 747 3093 
Q 1141 3584 1784 3584 
Q 2172 3584 2450 3431 
Q 2728 3278 2906 2969 
L 2906 3500 
L 3481 3500 
L 3481 434 
z
" transform="scale(0.015625)"/>
    </defs>
    <use xlink:href="#DejaVuSans-74"/>
    <use xlink:href="#DejaVuSans-72" x="39.208984"/>
    <use xlink:href="#DejaVuSans-61" x="80.322266"/>
    <use xlink:href="#DejaVuSans-69" x="141.601562"/>
    <use xlink:href="#DejaVuSans-6e" x="169.384766"/>
    <use xlink:href="#DejaVuSans-69" x="232.763672"/>
    <use xlink:href="#DejaVuSans-6e" x="260.546875"/>
    <use xlink:href="#DejaVuSans-67" x="323.925781"/>
   </g>
  </g>
 </g>
 <defs>
  <clipPath id="pb7ea1d378c">
   <rect x="36.465625" y="43.44" width="665.823636" height="298.76"/>
  </clipPath>
  <clipPath id="pd590e120ea">
   <rect x="36.465625" y="386.16" width="665.823636" height="298.76"/>
  </clipPath>
 </defs>
</svg>
