<?xml version="1.0" encoding="utf-8" standalone="no"?>
<!DOCTYPE svg PUBLIC "-//W3C//DTD SVG 1.1//EN"
  "http://www.w3.org/Graphics/SVG/1.1/DTD/svg11.dtd">
<svg xmlns:xlink="http://www.w3.org/1999/xlink" width="709.336136pt" height="708.798125pt" viewBox="0 0 709.336136 708.798125" xmlns="http://www.w3.org/2000/svg" version="1.1">
 <metadata>
  <rdf:RDF xmlns:dc="http://purl.org/dc/elements/1.1/" xmlns:cc="http://creativecommons.org/ns#" xmlns:rdf="http://www.w3.org/1999/02/22-rdf-syntax-ns#">
   <cc:Work>
    <dc:type rdf:resource="http://purl.org/dc/dcmitype/StillImage"/>
    <dc:date>2023-06-12T11:02:42.364082</dc:date>
    <dc:format>image/svg+xml</dc:format>
    <dc:creator>
     <cc:Agent>
      <dc:title>Matplotlib v3.7.1, https://matplotlib.org/</dc:title>
     </cc:Agent>
    </dc:creator>
   </cc:Work>
  </rdf:RDF>
 </metadata>
 <defs>
  <style type="text/css">*{stroke-linejoin: round; stroke-linecap: butt}</style>
 </defs>
 <g id="figure_1">
  <g id="patch_1">
   <path d="M 0 708.798125 
L 709.336136 708.798125 
L 709.336136 0 
L 0 0 
z
" style="fill: #ffffff"/>
  </g>
  <g id="axes_1">
   <g id="patch_2">
    <path d="M 20.5625 342.2 
L 702.136136 342.2 
L 702.136136 43.44 
L 20.5625 43.44 
z
" style="fill: #ffffff"/>
   </g>
   <g id="matplotlib.axis_1">
    <g id="xtick_1">
     <g id="line2d_1">
      <defs>
       <path id="ma0855aa327" d="M 0 0 
L 0 3.5 
" style="stroke: #000000; stroke-width: 0.8"/>
      </defs>
      <g>
       <use xlink:href="#ma0855aa327" x="51.370957" y="342.2" style="stroke: #000000; stroke-width: 0.8"/>
      </g>
     </g>
     <g id="text_1">
      <!-- 2014-07-01 -->
      <g transform="translate(22.313145 356.798437) scale(0.1 -0.1)">
       <defs>
        <path id="DejaVuSans-32" d="M 1228 531 
L 3431 531 
L 3431 0 
L 469 0 
L 469 531 
Q 828 903 1448 1529 
Q 2069 2156 2228 2338 
Q 2531 2678 2651 2914 
Q 2772 3150 2772 3378 
Q 2772 3750 2511 3984 
Q 2250 4219 1831 4219 
Q 1534 4219 1204 4116 
Q 875 4013 500 3803 
L 500 4441 
Q 881 4594 1212 4672 
Q 1544 4750 1819 4750 
Q 2544 4750 2975 4387 
Q 3406 4025 3406 3419 
Q 3406 3131 3298 2873 
Q 3191 2616 2906 2266 
Q 2828 2175 2409 1742 
Q 1991 1309 1228 531 
z
" transform="scale(0.015625)"/>
        <path id="DejaVuSans-30" d="M 2034 4250 
Q 1547 4250 1301 3770 
Q 1056 3291 1056 2328 
Q 1056 1369 1301 889 
Q 1547 409 2034 409 
Q 2525 409 2770 889 
Q 3016 1369 3016 2328 
Q 3016 3291 2770 3770 
Q 2525 4250 2034 4250 
z
M 2034 4750 
Q 2819 4750 3233 4129 
Q 3647 3509 3647 2328 
Q 3647 1150 3233 529 
Q 2819 -91 2034 -91 
Q 1250 -91 836 529 
Q 422 1150 422 2328 
Q 422 3509 836 4129 
Q 1250 4750 2034 4750 
z
" transform="scale(0.015625)"/>
        <path id="DejaVuSans-31" d="M 794 531 
L 1825 531 
L 1825 4091 
L 703 3866 
L 703 4441 
L 1819 4666 
L 2450 4666 
L 2450 531 
L 3481 531 
L 3481 0 
L 794 0 
L 794 531 
z
" transform="scale(0.015625)"/>
        <path id="DejaVuSans-34" d="M 2419 4116 
L 825 1625 
L 2419 1625 
L 2419 4116 
z
M 2253 4666 
L 3047 4666 
L 3047 1625 
L 3713 1625 
L 3713 1100 
L 3047 1100 
L 3047 0 
L 2419 0 
L 2419 1100 
L 313 1100 
L 313 1709 
L 2253 4666 
z
" transform="scale(0.015625)"/>
        <path id="DejaVuSans-2d" d="M 313 2009 
L 1997 2009 
L 1997 1497 
L 313 1497 
L 313 2009 
z
" transform="scale(0.015625)"/>
        <path id="DejaVuSans-37" d="M 525 4666 
L 3525 4666 
L 3525 4397 
L 1831 0 
L 1172 0 
L 2766 4134 
L 525 4134 
L 525 4666 
z
" transform="scale(0.015625)"/>
       </defs>
       <use xlink:href="#DejaVuSans-32"/>
       <use xlink:href="#DejaVuSans-30" x="63.623047"/>
       <use xlink:href="#DejaVuSans-31" x="127.246094"/>
       <use xlink:href="#DejaVuSans-34" x="190.869141"/>
       <use xlink:href="#DejaVuSans-2d" x="254.492188"/>
       <use xlink:href="#DejaVuSans-30" x="290.576172"/>
       <use xlink:href="#DejaVuSans-37" x="354.199219"/>
       <use xlink:href="#DejaVuSans-2d" x="417.822266"/>
       <use xlink:href="#DejaVuSans-30" x="453.90625"/>
       <use xlink:href="#DejaVuSans-31" x="517.529297"/>
      </g>
     </g>
    </g>
    <g id="xtick_2">
     <g id="line2d_2">
      <g>
       <use xlink:href="#ma0855aa327" x="175.327869" y="342.2" style="stroke: #000000; stroke-width: 0.8"/>
      </g>
     </g>
     <g id="text_2">
      <!-- 2014-07-02 -->
      <g transform="translate(146.270057 356.798437) scale(0.1 -0.1)">
       <use xlink:href="#DejaVuSans-32"/>
       <use xlink:href="#DejaVuSans-30" x="63.623047"/>
       <use xlink:href="#DejaVuSans-31" x="127.246094"/>
       <use xlink:href="#DejaVuSans-34" x="190.869141"/>
       <use xlink:href="#DejaVuSans-2d" x="254.492188"/>
       <use xlink:href="#DejaVuSans-30" x="290.576172"/>
       <use xlink:href="#DejaVuSans-37" x="354.199219"/>
       <use xlink:href="#DejaVuSans-2d" x="417.822266"/>
       <use xlink:href="#DejaVuSans-30" x="453.90625"/>
       <use xlink:href="#DejaVuSans-32" x="517.529297"/>
      </g>
     </g>
    </g>
    <g id="xtick_3">
     <g id="line2d_3">
      <g>
       <use xlink:href="#ma0855aa327" x="299.284781" y="342.2" style="stroke: #000000; stroke-width: 0.8"/>
      </g>
     </g>
     <g id="text_3">
      <!-- 2014-07-03 -->
      <g transform="translate(270.226969 356.798437) scale(0.1 -0.1)">
       <defs>
        <path id="DejaVuSans-33" d="M 2597 2516 
Q 3050 2419 3304 2112 
Q 3559 1806 3559 1356 
Q 3559 666 3084 287 
Q 2609 -91 1734 -91 
Q 1441 -91 1130 -33 
Q 819 25 488 141 
L 488 750 
Q 750 597 1062 519 
Q 1375 441 1716 441 
Q 2309 441 2620 675 
Q 2931 909 2931 1356 
Q 2931 1769 2642 2001 
Q 2353 2234 1838 2234 
L 1294 2234 
L 1294 2753 
L 1863 2753 
Q 2328 2753 2575 2939 
Q 2822 3125 2822 3475 
Q 2822 3834 2567 4026 
Q 2313 4219 1838 4219 
Q 1578 4219 1281 4162 
Q 984 4106 628 3988 
L 628 4550 
Q 988 4650 1302 4700 
Q 1616 4750 1894 4750 
Q 2613 4750 3031 4423 
Q 3450 4097 3450 3541 
Q 3450 3153 3228 2886 
Q 3006 2619 2597 2516 
z
" transform="scale(0.015625)"/>
       </defs>
       <use xlink:href="#DejaVuSans-32"/>
       <use xlink:href="#DejaVuSans-30" x="63.623047"/>
       <use xlink:href="#DejaVuSans-31" x="127.246094"/>
       <use xlink:href="#DejaVuSans-34" x="190.869141"/>
       <use xlink:href="#DejaVuSans-2d" x="254.492188"/>
       <use xlink:href="#DejaVuSans-30" x="290.576172"/>
       <use xlink:href="#DejaVuSans-37" x="354.199219"/>
       <use xlink:href="#DejaVuSans-2d" x="417.822266"/>
       <use xlink:href="#DejaVuSans-30" x="453.90625"/>
       <use xlink:href="#DejaVuSans-33" x="517.529297"/>
      </g>
     </g>
    </g>
    <g id="xtick_4">
     <g id="line2d_4">
      <g>
       <use xlink:href="#ma0855aa327" x="423.241693" y="342.2" style="stroke: #000000; stroke-width: 0.8"/>
      </g>
     </g>
     <g id="text_4">
      <!-- 2014-07-04 -->
      <g transform="translate(394.18388 356.798437) scale(0.1 -0.1)">
       <use xlink:href="#DejaVuSans-32"/>
       <use xlink:href="#DejaVuSans-30" x="63.623047"/>
       <use xlink:href="#DejaVuSans-31" x="127.246094"/>
       <use xlink:href="#DejaVuSans-34" x="190.869141"/>
       <use xlink:href="#DejaVuSans-2d" x="254.492188"/>
       <use xlink:href="#DejaVuSans-30" x="290.576172"/>
       <use xlink:href="#DejaVuSans-37" x="354.199219"/>
       <use xlink:href="#DejaVuSans-2d" x="417.822266"/>
       <use xlink:href="#DejaVuSans-30" x="453.90625"/>
       <use xlink:href="#DejaVuSans-34" x="517.529297"/>
      </g>
     </g>
    </g>
    <g id="xtick_5">
     <g id="line2d_5">
      <g>
       <use xlink:href="#ma0855aa327" x="547.198605" y="342.2" style="stroke: #000000; stroke-width: 0.8"/>
      </g>
     </g>
     <g id="text_5">
      <!-- 2014-07-05 -->
      <g transform="translate(518.140792 356.798437) scale(0.1 -0.1)">
       <defs>
        <path id="DejaVuSans-35" d="M 691 4666 
L 3169 4666 
L 3169 4134 
L 1269 4134 
L 1269 2991 
Q 1406 3038 1543 3061 
Q 1681 3084 1819 3084 
Q 2600 3084 3056 2656 
Q 3513 2228 3513 1497 
Q 3513 744 3044 326 
Q 2575 -91 1722 -91 
Q 1428 -91 1123 -41 
Q 819 9 494 109 
L 494 744 
Q 775 591 1075 516 
Q 1375 441 1709 441 
Q 2250 441 2565 725 
Q 2881 1009 2881 1497 
Q 2881 1984 2565 2268 
Q 2250 2553 1709 2553 
Q 1456 2553 1204 2497 
Q 953 2441 691 2322 
L 691 4666 
z
" transform="scale(0.015625)"/>
       </defs>
       <use xlink:href="#DejaVuSans-32"/>
       <use xlink:href="#DejaVuSans-30" x="63.623047"/>
       <use xlink:href="#DejaVuSans-31" x="127.246094"/>
       <use xlink:href="#DejaVuSans-34" x="190.869141"/>
       <use xlink:href="#DejaVuSans-2d" x="254.492188"/>
       <use xlink:href="#DejaVuSans-30" x="290.576172"/>
       <use xlink:href="#DejaVuSans-37" x="354.199219"/>
       <use xlink:href="#DejaVuSans-2d" x="417.822266"/>
       <use xlink:href="#DejaVuSans-30" x="453.90625"/>
       <use xlink:href="#DejaVuSans-35" x="517.529297"/>
      </g>
     </g>
    </g>
    <g id="xtick_6">
     <g id="line2d_6">
      <g>
       <use xlink:href="#ma0855aa327" x="671.155517" y="342.2" style="stroke: #000000; stroke-width: 0.8"/>
      </g>
     </g>
     <g id="text_6">
      <!-- 2014-07-06 -->
      <g transform="translate(642.097704 356.798437) scale(0.1 -0.1)">
       <defs>
        <path id="DejaVuSans-36" d="M 2113 2584 
Q 1688 2584 1439 2293 
Q 1191 2003 1191 1497 
Q 1191 994 1439 701 
Q 1688 409 2113 409 
Q 2538 409 2786 701 
Q 3034 994 3034 1497 
Q 3034 2003 2786 2293 
Q 2538 2584 2113 2584 
z
M 3366 4563 
L 3366 3988 
Q 3128 4100 2886 4159 
Q 2644 4219 2406 4219 
Q 1781 4219 1451 3797 
Q 1122 3375 1075 2522 
Q 1259 2794 1537 2939 
Q 1816 3084 2150 3084 
Q 2853 3084 3261 2657 
Q 3669 2231 3669 1497 
Q 3669 778 3244 343 
Q 2819 -91 2113 -91 
Q 1303 -91 875 529 
Q 447 1150 447 2328 
Q 447 3434 972 4092 
Q 1497 4750 2381 4750 
Q 2619 4750 2861 4703 
Q 3103 4656 3366 4563 
z
" transform="scale(0.015625)"/>
       </defs>
       <use xlink:href="#DejaVuSans-32"/>
       <use xlink:href="#DejaVuSans-30" x="63.623047"/>
       <use xlink:href="#DejaVuSans-31" x="127.246094"/>
       <use xlink:href="#DejaVuSans-34" x="190.869141"/>
       <use xlink:href="#DejaVuSans-2d" x="254.492188"/>
       <use xlink:href="#DejaVuSans-30" x="290.576172"/>
       <use xlink:href="#DejaVuSans-37" x="354.199219"/>
       <use xlink:href="#DejaVuSans-2d" x="417.822266"/>
       <use xlink:href="#DejaVuSans-30" x="453.90625"/>
       <use xlink:href="#DejaVuSans-36" x="517.529297"/>
      </g>
     </g>
    </g>
   </g>
   <g id="matplotlib.axis_2">
    <g id="ytick_1">
     <g id="line2d_7">
      <defs>
       <path id="m8c41489af8" d="M 0 0 
L -3.5 0 
" style="stroke: #000000; stroke-width: 0.8"/>
      </defs>
      <g>
       <use xlink:href="#m8c41489af8" x="20.5625" y="328.611872" style="stroke: #000000; stroke-width: 0.8"/>
      </g>
     </g>
     <g id="text_7">
      <!-- 0 -->
      <g transform="translate(7.2 332.411091) scale(0.1 -0.1)">
       <use xlink:href="#DejaVuSans-30"/>
      </g>
     </g>
    </g>
    <g id="ytick_2">
     <g id="line2d_8">
      <g>
       <use xlink:href="#m8c41489af8" x="20.5625" y="284.726945" style="stroke: #000000; stroke-width: 0.8"/>
      </g>
     </g>
     <g id="text_8">
      <!-- 1 -->
      <g transform="translate(7.2 288.526164) scale(0.1 -0.1)">
       <use xlink:href="#DejaVuSans-31"/>
      </g>
     </g>
    </g>
    <g id="ytick_3">
     <g id="line2d_9">
      <g>
       <use xlink:href="#m8c41489af8" x="20.5625" y="240.842018" style="stroke: #000000; stroke-width: 0.8"/>
      </g>
     </g>
     <g id="text_9">
      <!-- 2 -->
      <g transform="translate(7.2 244.641236) scale(0.1 -0.1)">
       <use xlink:href="#DejaVuSans-32"/>
      </g>
     </g>
    </g>
    <g id="ytick_4">
     <g id="line2d_10">
      <g>
       <use xlink:href="#m8c41489af8" x="20.5625" y="196.95709" style="stroke: #000000; stroke-width: 0.8"/>
      </g>
     </g>
     <g id="text_10">
      <!-- 3 -->
      <g transform="translate(7.2 200.756309) scale(0.1 -0.1)">
       <use xlink:href="#DejaVuSans-33"/>
      </g>
     </g>
    </g>
    <g id="ytick_5">
     <g id="line2d_11">
      <g>
       <use xlink:href="#m8c41489af8" x="20.5625" y="153.072163" style="stroke: #000000; stroke-width: 0.8"/>
      </g>
     </g>
     <g id="text_11">
      <!-- 4 -->
      <g transform="translate(7.2 156.871382) scale(0.1 -0.1)">
       <use xlink:href="#DejaVuSans-34"/>
      </g>
     </g>
    </g>
    <g id="ytick_6">
     <g id="line2d_12">
      <g>
       <use xlink:href="#m8c41489af8" x="20.5625" y="109.187236" style="stroke: #000000; stroke-width: 0.8"/>
      </g>
     </g>
     <g id="text_12">
      <!-- 5 -->
      <g transform="translate(7.2 112.986454) scale(0.1 -0.1)">
       <use xlink:href="#DejaVuSans-35"/>
      </g>
     </g>
    </g>
    <g id="ytick_7">
     <g id="line2d_13">
      <g>
       <use xlink:href="#m8c41489af8" x="20.5625" y="65.302308" style="stroke: #000000; stroke-width: 0.8"/>
      </g>
     </g>
     <g id="text_13">
      <!-- 6 -->
      <g transform="translate(7.2 69.101527) scale(0.1 -0.1)">
       <use xlink:href="#DejaVuSans-36"/>
      </g>
     </g>
    </g>
   </g>
   <g id="line2d_14">
    <path d="M 51.54312 328.611872 
L 56.449748 328.502679 
L 57.999209 328.259765 
L 59.54867 327.783619 
L 61.270294 327.233948 
L 62.303268 327.144243 
L 63.250162 327.089683 
L 64.627461 326.713099 
L 66.607328 326.015624 
L 68.070708 325.275127 
L 68.587195 324.780917 
L 69.103682 323.998009 
L 69.620169 322.774717 
L 69.878413 322.005298 
L 70.653144 314.496565 
L 70.997468 313.92629 
L 72.030443 310.901527 
L 73.752067 305.507421 
L 75.645853 300.721808 
L 76.334502 299.60117 
L 77.367476 298.274087 
L 77.711801 297.982065 
L 78.142207 297.676326 
L 78.744775 297.290875 
L 79.433425 297.098385 
L 80.380318 297.112704 
L 80.638562 297.105223 
L 81.24113 295.867617 
L 81.499374 295.915529 
L 81.671536 295.607826 
L 82.101942 294.51395 
L 82.274104 294.548198 
L 82.532348 295.02377 
L 83.134916 296.460682 
L 84.253972 299.02433 
L 84.340053 298.98613 
L 85.028702 296.272317 
L 85.631271 290.324282 
L 85.803433 286.298336 
L 87.438976 164.871236 
L 87.869381 147.296911 
L 88.47195 127.773572 
L 89.246681 106.217318 
L 90.451817 82.977487 
L 91.829116 66.885525 
L 92.603847 61.437764 
L 93.378578 58.156364 
L 93.895065 57.02 
L 93.981146 57.046639 
L 94.153308 58.717012 
L 94.583714 66.958703 
L 95.186283 83.535854 
L 96.735744 131.356725 
L 97.16615 140.990955 
L 97.510475 146.323937 
L 97.682637 146.419904 
L 97.854799 144.908819 
L 98.026962 142.712785 
L 98.371287 136.150487 
L 99.146017 116.8986 
L 99.490342 112.620161 
L 99.662504 111.64024 
L 99.748586 111.687972 
L 99.920748 112.179983 
L 100.09291 113.507275 
L 100.437235 117.84121 
L 100.78156 123.886051 
L 101.556291 141.567005 
L 103.363995 191.791798 
L 103.966564 213.292369 
L 104.827376 246.821518 
L 105.429944 259.117525 
L 105.516025 259.564336 
L 105.774269 262.529069 
L 105.86035 262.718073 
L 106.118594 264.515671 
L 106.376837 266.048905 
L 106.462918 266.093896 
L 106.721162 267.4888 
L 106.807243 267.503297 
L 107.065487 268.686173 
L 107.151568 268.669092 
L 107.409811 269.74497 
L 107.495893 269.840115 
L 107.840217 270.897969 
L 108.356704 272.421385 
L 109.131435 274.618553 
L 110.078328 278.597552 
L 111.197384 285.412192 
L 111.455627 286.899565 
L 111.62779 287.034616 
L 111.972114 286.35228 
L 112.144277 286.472285 
L 112.488601 287.857885 
L 113.177251 291.129691 
L 113.435495 291.341624 
L 113.693738 291.284917 
L 114.038063 290.979673 
L 114.296306 290.18745 
L 114.55455 288.579619 
L 114.726712 288.200556 
L 114.812794 288.242096 
L 115.071037 289.036992 
L 115.415362 290.102064 
L 115.501443 290.078347 
L 115.759687 289.681677 
L 115.931849 289.836757 
L 116.190093 290.84419 
L 116.448336 291.648684 
L 117.136986 292.556125 
L 117.997798 293.265416 
L 123.506994 296.862861 
L 125.228617 297.496554 
L 127.122404 297.887132 
L 129.532677 298.027127 
L 130.47957 297.980535 
L 131.082138 298.008843 
L 131.94295 298.23132 
L 132.803762 298.656221 
L 133.664574 299.347555 
L 134.955792 300.696165 
L 137.366065 303.133276 
L 138.657283 304.179611 
L 140.034582 305.025214 
L 140.63715 305.131023 
L 141.756206 305.158645 
L 144.338641 304.90977 
L 146.921077 305.227029 
L 150.364325 305.259773 
L 151.569461 305.510476 
L 152.430273 305.559006 
L 153.205004 305.575227 
L 154.324059 305.576563 
L 155.270952 305.815624 
L 157.422982 306.553201 
L 160.780148 307.037907 
L 161.554879 306.923163 
L 162.243529 306.791969 
L 163.879071 306.788235 
L 165.25637 307.175074 
L 167.150156 307.853071 
L 167.924887 307.995564 
L 169.56043 308.166206 
L 171.02381 307.958996 
L 172.745434 308.004553 
L 174.380976 308.448984 
L 175.672194 308.543385 
L 176.533006 308.441608 
L 177.307737 308.156168 
L 178.426792 307.763549 
L 179.115442 307.516133 
L 180.062335 307.258524 
L 181.525715 307.094659 
L 182.816933 307.232184 
L 183.849907 307.496616 
L 186.174099 308.353227 
L 186.94883 308.384175 
L 187.637479 308.444571 
L 188.41221 308.510763 
L 191.769376 308.352854 
L 192.802351 308.520067 
L 193.663162 308.92887 
L 195.987355 310.49734 
L 200.72182 313.504474 
L 200.893982 313.517484 
L 201.066145 313.01809 
L 201.926957 309.749376 
L 202.1852 308.849876 
L 202.787768 305.551044 
L 203.992905 295.604379 
L 204.509392 293.536603 
L 205.542367 291.422152 
L 206.231016 290.993107 
L 206.919666 291.298812 
L 207.436153 292.220117 
L 208.296965 294.066653 
L 209.157776 295.078705 
L 211.912374 297.441469 
L 212.084537 297.456884 
L 212.514943 297.357326 
L 212.687105 297.402366 
L 213.289674 296.470243 
L 213.547917 294.76429 
L 213.978323 291.340279 
L 214.236567 286.460632 
L 215.441703 222.454007 
L 215.786028 213.840451 
L 215.872109 213.558746 
L 215.95819 212.022089 
L 216.044272 212.741043 
L 216.130353 211.816272 
L 216.388596 215.511829 
L 216.474677 215.765085 
L 217.249408 248.157562 
L 217.679814 275.089612 
L 218.368464 293.413728 
L 219.315357 296.354449 
L 221.72563 302.432829 
L 222.844685 304.826001 
L 223.791579 306.459199 
L 224.996715 308.10288 
L 227.148745 310.173483 
L 228.181719 310.800888 
L 229.645099 311.293064 
L 230.505911 311.459938 
L 231.280642 311.346237 
L 232.227535 310.985206 
L 234.121321 310.06236 
L 235.49862 308.878999 
L 236.875919 307.784081 
L 237.564569 307.511235 
L 238.425381 307.416701 
L 242.385115 307.476006 
L 243.073765 307.435609 
L 243.848496 307.368048 
L 244.623226 307.355852 
L 246.172688 307.051203 
L 247.894311 307.288193 
L 248.49688 307.541403 
L 249.615935 308.078491 
L 250.562828 308.202024 
L 251.854046 308.241512 
L 256.932836 307.419942 
L 257.621486 307.440413 
L 260.720409 308.067841 
L 261.236896 308.080051 
L 262.442032 307.928611 
L 263.73325 307.63121 
L 265.713117 306.988021 
L 266.401767 306.923879 
L 267.090416 307.123278 
L 268.81204 307.742438 
L 269.414609 307.717304 
L 272.255288 307.227242 
L 273.804749 307.485086 
L 275.612454 307.426179 
L 276.215022 307.321706 
L 276.903672 307.224509 
L 277.764484 307.093821 
L 278.797458 307.213147 
L 279.572189 307.52231 
L 280.433001 308.13028 
L 283.359761 310.488631 
L 286.803009 312.806884 
L 288.35247 313.179082 
L 289.385444 313.379943 
L 291.623555 313.656418 
L 292.914773 313.840277 
L 294.11991 314.113812 
L 295.755452 314.462806 
L 297.218833 314.548514 
L 298.251807 314.373642 
L 299.284781 313.912387 
L 299.801268 313.519486 
L 300.489918 312.730274 
L 301.092486 311.876922 
L 302.900191 308.385433 
L 305.568708 301.801684 
L 305.999114 300.915878 
L 307.118169 299.100733 
L 307.806819 298.311994 
L 308.581549 297.672539 
L 308.925874 297.501187 
L 309.270199 297.297603 
L 310.561417 297.04268 
L 311.163985 297.075542 
L 311.766553 295.832739 
L 312.024797 295.855629 
L 312.196959 295.461072 
L 312.627365 294.415551 
L 312.799528 294.483359 
L 313.057771 294.969226 
L 316.328856 302.556431 
L 317.792237 305.270571 
L 318.825211 306.648035 
L 319.858185 307.672504 
L 320.977241 308.490347 
L 327.691573 312.344569 
L 329.241035 313.180461 
L 334.491987 315.165273 
L 337.59091 316.000067 
L 340.775914 316.655862 
L 344.735649 317.248078 
L 345.338217 317.410542 
L 345.854704 317.651077 
L 347.318084 317.816789 
L 352.913362 318.263977 
L 358.680801 318.478358 
L 364.189997 318.649274 
L 364.276079 318.705751 
L 364.36216 319.08181 
L 364.878647 324.227617 
L 365.222972 325.272515 
L 365.653378 325.807822 
L 366.169865 326.07218 
L 367.116758 326.251307 
L 370.215681 326.480475 
L 380.028936 326.974984 
L 392.424627 327.373786 
L 410.071271 327.712559 
L 438.047657 328.008235 
L 479.969196 328.21557 
L 564.587005 328.384017 
L 671.155517 328.470871 
L 671.155517 328.470871 
" clip-path="url(#p017f01dc32)" style="fill: none; stroke: #1f77b4; stroke-width: 1.5; stroke-linecap: square"/>
   </g>
   <g id="line2d_15">
    <path d="M 51.54312 328.611872 
L 53.436906 328.5011 
L 54.039474 328.081077 
L 60.323401 322.641856 
L 60.839888 322.594698 
L 61.442457 322.792177 
L 62.819756 323.561683 
L 64.971785 324.686922 
L 65.488272 324.760603 
L 66.00476 324.576886 
L 66.521247 324.120778 
L 67.123815 323.25637 
L 67.984627 321.505839 
L 68.845439 319.353114 
L 69.878413 315.799069 
L 71.85828 307.592168 
L 72.633011 303.711169 
L 73.321661 299.273467 
L 76.764908 272.548243 
L 77.62572 267.636569 
L 80.208156 254.873628 
L 80.55248 254.269556 
L 80.724643 254.172586 
L 81.068968 254.050019 
L 81.413292 254.040933 
L 81.585455 253.702126 
L 81.757617 252.718864 
L 82.101942 248.507262 
L 82.618429 242.253247 
L 82.876673 241.447155 
L 83.048835 241.740366 
L 83.307078 243.025622 
L 83.823566 247.115969 
L 85.286946 259.256323 
L 85.373027 258.943619 
L 85.545189 257.034042 
L 85.803433 250.56807 
L 86.31992 229.303502 
L 87.266813 191.643118 
L 88.299787 159.66059 
L 88.988437 144.405392 
L 89.591005 135.069458 
L 90.107492 130.4335 
L 90.796142 126.06078 
L 91.312629 123.9601 
L 91.656954 123.213997 
L 92.001279 123.092278 
L 92.259522 123.280799 
L 92.603847 124.108066 
L 92.948172 125.665396 
L 94.411552 134.784881 
L 95.358445 142.315975 
L 96.391419 151.17541 
L 96.821825 153.06309 
L 97.080069 153.34621 
L 97.424393 152.95803 
L 97.682637 151.618466 
L 98.026962 148.263487 
L 98.371287 142.589547 
L 99.31818 123.041334 
L 99.404261 122.774168 
L 99.490342 122.838147 
L 99.662504 123.808635 
L 100.006829 128.011243 
L 101.125885 146.744388 
L 103.966564 192.36558 
L 105.429944 213.498495 
L 106.807243 230.154881 
L 108.184542 244.103103 
L 109.561841 255.831448 
L 110.853059 264.983128 
L 112.230358 273.221865 
L 113.607657 279.976427 
L 114.468469 283.269074 
L 114.640631 283.449636 
L 114.812794 283.254792 
L 115.673605 281.279464 
L 115.845768 281.473453 
L 116.190093 282.320548 
L 119.030772 290.799212 
L 120.149827 293.043348 
L 121.441045 295.189941 
L 122.215776 296.082497 
L 123.162669 296.831835 
L 124.884293 297.716216 
L 125.659023 297.690144 
L 127.55281 297.151408 
L 127.983215 296.881289 
L 128.930109 295.975907 
L 129.79092 294.955067 
L 131.082138 293.391408 
L 132.029031 291.928945 
L 132.287275 291.865007 
L 132.545518 292.037258 
L 132.889843 292.593715 
L 133.40633 293.929097 
L 134.697548 298.149088 
L 136.677416 304.431157 
L 138.140796 308.345842 
L 139.604176 311.653128 
L 140.551069 313.380591 
L 140.809313 313.531021 
L 141.067556 313.390719 
L 141.411881 312.800487 
L 142.530936 310.34568 
L 142.961342 310.009445 
L 143.219586 310.025321 
L 143.563911 310.275455 
L 144.25256 310.845319 
L 144.682966 310.875671 
L 146.40459 310.511137 
L 147.007158 310.748813 
L 147.265402 310.600282 
L 147.695808 309.995532 
L 148.642701 308.498351 
L 149.073107 308.259827 
L 149.847837 308.159986 
L 150.79473 308.295309 
L 151.311218 308.053301 
L 151.569461 308.154824 
L 152.172029 308.492513 
L 152.430273 308.348677 
L 152.774598 307.754678 
L 153.377166 306.686947 
L 153.979734 306.196334 
L 154.668384 305.807078 
L 155.012709 305.88971 
L 155.443115 306.335846 
L 156.734332 308.138269 
L 156.992576 308.120306 
L 158.455956 306.964429 
L 158.800281 306.639918 
L 159.058525 306.631973 
L 159.316768 306.866428 
L 160.435824 308.075484 
L 160.694067 307.809218 
L 163.10434 303.770558 
L 163.362584 303.879257 
L 164.309477 304.842897 
L 165.084208 305.716718 
L 165.428533 305.667255 
L 166.203263 305.306256 
L 166.461507 305.462605 
L 166.891913 306.060234 
L 167.494481 306.924447 
L 167.924887 307.105398 
L 168.355293 307.069059 
L 168.699618 306.82382 
L 169.216105 306.338939 
L 169.56043 306.402131 
L 169.990836 306.469093 
L 170.33516 306.239594 
L 170.851647 305.526833 
L 171.454216 304.708171 
L 171.712459 304.623895 
L 171.970703 304.757848 
L 173.261921 306.076542 
L 173.864489 307.147261 
L 174.380976 307.902381 
L 174.63922 308.007392 
L 174.897463 307.909864 
L 175.327869 307.364049 
L 176.705168 305.470811 
L 177.049493 305.481363 
L 177.652061 305.579133 
L 177.996386 305.31449 
L 178.426792 304.578301 
L 179.373685 302.901484 
L 180.148416 302.427373 
L 180.492741 302.310863 
L 180.923147 302.367047 
L 181.353552 302.427115 
L 181.611796 302.28568 
L 182.386527 301.652513 
L 182.730852 301.905081 
L 183.419501 302.549026 
L 184.7968 303.402006 
L 185.48545 304.242064 
L 186.174099 304.663011 
L 186.604505 305.336567 
L 187.120992 306.108867 
L 187.293155 306.125607 
L 187.551398 305.852214 
L 187.981804 304.843536 
L 188.41221 303.971269 
L 188.670454 303.879626 
L 188.928697 304.064689 
L 189.87559 305.058225 
L 190.56424 305.33794 
L 190.822483 305.245082 
L 191.166808 304.749577 
L 191.769376 303.774409 
L 192.02762 303.711448 
L 192.285863 303.941275 
L 192.716269 304.797889 
L 195.729111 311.953303 
L 197.192491 314.659079 
L 198.655871 316.925596 
L 200.205333 318.925464 
L 201.668713 320.602232 
L 201.840875 320.254124 
L 202.099119 318.394462 
L 202.443444 312.552861 
L 203.390337 288.984593 
L 204.165068 272.367021 
L 204.853717 261.96184 
L 205.80061 250.813921 
L 206.48926 244.857334 
L 207.091828 241.186395 
L 207.522234 239.543825 
L 208.124802 238.371721 
L 208.813452 237.596063 
L 209.329939 237.499845 
L 209.588182 237.65489 
L 210.018588 238.108569 
L 210.535075 239.164325 
L 211.309806 241.588799 
L 212.428862 245.181162 
L 212.687105 245.5167 
L 212.859268 245.318286 
L 213.117511 244.472572 
L 213.375755 243.250121 
L 213.892242 239.343016 
L 214.322648 233.094216 
L 214.753054 222.702062 
L 215.18346 206.676666 
L 215.786028 184.317015 
L 216.044272 180.738307 
L 216.216434 180.372508 
L 216.388596 181.159409 
L 216.732921 184.67196 
L 221.123062 239.053402 
L 222.500361 252.8147 
L 223.87766 264.461892 
L 225.254959 274.319346 
L 226.632258 282.665219 
L 227.837394 288.708816 
L 228.698206 291.842809 
L 229.300775 293.247714 
L 230.075505 294.409785 
L 230.591992 295.400843 
L 232.055373 298.542021 
L 232.657941 299.208647 
L 233.002266 299.345406 
L 233.34659 299.236547 
L 233.776996 299.096664 
L 234.207402 299.180335 
L 234.637808 299.317636 
L 234.982133 299.175593 
L 235.584701 298.413914 
L 237.048082 296.157402 
L 237.306325 296.109712 
L 237.65065 296.348546 
L 238.081056 297.016874 
L 239.11403 298.758136 
L 239.372274 298.884736 
L 239.630517 298.819997 
L 239.974842 298.476211 
L 240.663492 297.672491 
L 240.921735 297.649861 
L 241.179979 297.906358 
L 242.040791 299.065673 
L 242.557278 299.031409 
L 242.815521 299.063344 
L 243.245927 299.490927 
L 243.590252 299.748001 
L 243.848496 299.63201 
L 244.278901 298.988476 
L 244.709307 298.407278 
L 244.967551 298.47 
L 245.742282 299.035453 
L 246.000525 298.818417 
L 246.861337 297.724869 
L 247.119581 297.934335 
L 247.463905 298.606755 
L 248.669042 301.251087 
L 249.443773 301.602114 
L 249.874179 302.395179 
L 250.304585 303.115653 
L 250.562828 303.229677 
L 250.821072 303.100961 
L 251.251478 302.563115 
L 251.767965 301.908749 
L 252.11229 301.769508 
L 252.628777 301.900464 
L 254.178238 302.354533 
L 254.522563 301.995645 
L 255.469456 300.718199 
L 255.899862 300.597874 
L 256.760674 300.61478 
L 257.104999 300.835126 
L 257.96581 301.694896 
L 258.740541 301.651475 
L 259.084866 302.040335 
L 260.290003 303.719457 
L 260.462165 303.688242 
L 260.80649 303.271729 
L 261.409058 302.560642 
L 261.753383 302.506854 
L 262.183789 302.468549 
L 262.614195 302.107867 
L 262.872438 301.99502 
L 263.130682 302.051145 
L 263.73325 302.31803 
L 264.077575 302.211168 
L 264.507981 301.744512 
L 264.938387 300.875844 
L 265.88528 298.680525 
L 266.057442 298.64723 
L 266.315686 298.884366 
L 266.832173 299.852327 
L 268.295553 302.765811 
L 268.553797 302.835542 
L 269.414609 302.449216 
L 269.758933 302.196352 
L 270.103258 301.616225 
L 271.222314 299.304829 
L 271.480557 299.302514 
L 271.824882 299.745794 
L 272.857856 301.509367 
L 273.546506 301.957718 
L 273.976912 302.277289 
L 274.235155 302.107993 
L 274.57948 301.479054 
L 275.182048 300.410179 
L 275.440292 300.433607 
L 276.387185 301.023057 
L 276.645428 300.790479 
L 277.161916 300.268174 
L 277.850565 299.858237 
L 278.453133 299.183349 
L 278.711377 299.209008 
L 278.969621 299.521671 
L 279.400026 300.539237 
L 282.58503 309.413771 
L 284.048411 312.532345 
L 285.511791 315.144332 
L 287.061252 317.463502 
L 287.405577 317.695387 
L 287.577739 317.577967 
L 287.922064 316.89403 
L 288.35247 316.099531 
L 288.610714 315.99311 
L 288.868957 316.127505 
L 289.385444 316.733335 
L 291.451393 319.345888 
L 292.828692 320.748841 
L 293.173017 320.816061 
L 293.517341 320.567188 
L 293.947747 320.280977 
L 294.292072 320.324101 
L 294.808559 320.690326 
L 296.702345 322.215596 
L 297.304914 322.367938 
L 297.821401 322.252944 
L 298.337888 321.853297 
L 298.940456 321.034939 
L 299.629106 319.683237 
L 300.834242 316.617212 
L 301.608973 314.082541 
L 302.900191 308.784889 
L 303.847084 304.028257 
L 304.449652 299.128633 
L 306.343439 282.478256 
L 307.290332 276.178185 
L 309.786686 261.152087 
L 310.991823 256.586797 
L 311.766553 255.560655 
L 311.938716 255.444622 
L 312.110878 255.044435 
L 312.283041 254.01272 
L 312.627365 249.755796 
L 313.143852 243.544504 
L 313.402096 242.736639 
L 313.574258 243.006982 
L 313.832502 244.230345 
L 314.348989 248.163442 
L 316.156694 262.818654 
L 317.447912 271.101295 
L 318.73913 277.994127 
L 320.116429 284.173201 
L 321.321565 288.553206 
L 323.81792 297.079261 
L 325.539544 302.916026 
L 327.002924 307.072054 
L 327.949817 309.138733 
L 330.618334 314.429031 
L 332.081714 316.732917 
L 333.631175 318.765762 
L 335.266718 320.535383 
L 336.902261 321.986953 
L 338.709966 323.289792 
L 340.603752 324.380767 
L 342.6697 325.317527 
L 344.993892 326.125886 
L 347.662409 326.812528 
L 350.761332 327.375676 
L 354.548904 327.830547 
L 359.369451 328.176125 
L 366.083784 328.418671 
L 376.843932 328.559398 
L 402.323964 328.609476 
L 671.155517 328.611872 
L 671.155517 328.611872 
" clip-path="url(#p017f01dc32)" style="fill: none; stroke: #ff7f0e; stroke-width: 1.5; stroke-linecap: square"/>
   </g>
   <g id="patch_3">
    <path d="M 20.5625 342.2 
L 20.5625 43.44 
" style="fill: none; stroke: #000000; stroke-width: 0.8; stroke-linejoin: miter; stroke-linecap: square"/>
   </g>
   <g id="patch_4">
    <path d="M 702.136136 342.2 
L 702.136136 43.44 
" style="fill: none; stroke: #000000; stroke-width: 0.8; stroke-linejoin: miter; stroke-linecap: square"/>
   </g>
   <g id="patch_5">
    <path d="M 20.5625 342.2 
L 702.136136 342.2 
" style="fill: none; stroke: #000000; stroke-width: 0.8; stroke-linejoin: miter; stroke-linecap: square"/>
   </g>
   <g id="patch_6">
    <path d="M 20.5625 43.44 
L 702.136136 43.44 
" style="fill: none; stroke: #000000; stroke-width: 0.8; stroke-linejoin: miter; stroke-linecap: square"/>
   </g>
   <g id="text_14">
    <!-- 1 transformation(s) -->
    <g transform="translate(303.234631 37.44) scale(0.12 -0.12)">
     <defs>
      <path id="DejaVuSans-20" transform="scale(0.015625)"/>
      <path id="DejaVuSans-74" d="M 1172 4494 
L 1172 3500 
L 2356 3500 
L 2356 3053 
L 1172 3053 
L 1172 1153 
Q 1172 725 1289 603 
Q 1406 481 1766 481 
L 2356 481 
L 2356 0 
L 1766 0 
Q 1100 0 847 248 
Q 594 497 594 1153 
L 594 3053 
L 172 3053 
L 172 3500 
L 594 3500 
L 594 4494 
L 1172 4494 
z
" transform="scale(0.015625)"/>
      <path id="DejaVuSans-72" d="M 2631 2963 
Q 2534 3019 2420 3045 
Q 2306 3072 2169 3072 
Q 1681 3072 1420 2755 
Q 1159 2438 1159 1844 
L 1159 0 
L 581 0 
L 581 3500 
L 1159 3500 
L 1159 2956 
Q 1341 3275 1631 3429 
Q 1922 3584 2338 3584 
Q 2397 3584 2469 3576 
Q 2541 3569 2628 3553 
L 2631 2963 
z
" transform="scale(0.015625)"/>
      <path id="DejaVuSans-61" d="M 2194 1759 
Q 1497 1759 1228 1600 
Q 959 1441 959 1056 
Q 959 750 1161 570 
Q 1363 391 1709 391 
Q 2188 391 2477 730 
Q 2766 1069 2766 1631 
L 2766 1759 
L 2194 1759 
z
M 3341 1997 
L 3341 0 
L 2766 0 
L 2766 531 
Q 2569 213 2275 61 
Q 1981 -91 1556 -91 
Q 1019 -91 701 211 
Q 384 513 384 1019 
Q 384 1609 779 1909 
Q 1175 2209 1959 2209 
L 2766 2209 
L 2766 2266 
Q 2766 2663 2505 2880 
Q 2244 3097 1772 3097 
Q 1472 3097 1187 3025 
Q 903 2953 641 2809 
L 641 3341 
Q 956 3463 1253 3523 
Q 1550 3584 1831 3584 
Q 2591 3584 2966 3190 
Q 3341 2797 3341 1997 
z
" transform="scale(0.015625)"/>
      <path id="DejaVuSans-6e" d="M 3513 2113 
L 3513 0 
L 2938 0 
L 2938 2094 
Q 2938 2591 2744 2837 
Q 2550 3084 2163 3084 
Q 1697 3084 1428 2787 
Q 1159 2491 1159 1978 
L 1159 0 
L 581 0 
L 581 3500 
L 1159 3500 
L 1159 2956 
Q 1366 3272 1645 3428 
Q 1925 3584 2291 3584 
Q 2894 3584 3203 3211 
Q 3513 2838 3513 2113 
z
" transform="scale(0.015625)"/>
      <path id="DejaVuSans-73" d="M 2834 3397 
L 2834 2853 
Q 2591 2978 2328 3040 
Q 2066 3103 1784 3103 
Q 1356 3103 1142 2972 
Q 928 2841 928 2578 
Q 928 2378 1081 2264 
Q 1234 2150 1697 2047 
L 1894 2003 
Q 2506 1872 2764 1633 
Q 3022 1394 3022 966 
Q 3022 478 2636 193 
Q 2250 -91 1575 -91 
Q 1294 -91 989 -36 
Q 684 19 347 128 
L 347 722 
Q 666 556 975 473 
Q 1284 391 1588 391 
Q 1994 391 2212 530 
Q 2431 669 2431 922 
Q 2431 1156 2273 1281 
Q 2116 1406 1581 1522 
L 1381 1569 
Q 847 1681 609 1914 
Q 372 2147 372 2553 
Q 372 3047 722 3315 
Q 1072 3584 1716 3584 
Q 2034 3584 2315 3537 
Q 2597 3491 2834 3397 
z
" transform="scale(0.015625)"/>
      <path id="DejaVuSans-66" d="M 2375 4863 
L 2375 4384 
L 1825 4384 
Q 1516 4384 1395 4259 
Q 1275 4134 1275 3809 
L 1275 3500 
L 2222 3500 
L 2222 3053 
L 1275 3053 
L 1275 0 
L 697 0 
L 697 3053 
L 147 3053 
L 147 3500 
L 697 3500 
L 697 3744 
Q 697 4328 969 4595 
Q 1241 4863 1831 4863 
L 2375 4863 
z
" transform="scale(0.015625)"/>
      <path id="DejaVuSans-6f" d="M 1959 3097 
Q 1497 3097 1228 2736 
Q 959 2375 959 1747 
Q 959 1119 1226 758 
Q 1494 397 1959 397 
Q 2419 397 2687 759 
Q 2956 1122 2956 1747 
Q 2956 2369 2687 2733 
Q 2419 3097 1959 3097 
z
M 1959 3584 
Q 2709 3584 3137 3096 
Q 3566 2609 3566 1747 
Q 3566 888 3137 398 
Q 2709 -91 1959 -91 
Q 1206 -91 779 398 
Q 353 888 353 1747 
Q 353 2609 779 3096 
Q 1206 3584 1959 3584 
z
" transform="scale(0.015625)"/>
      <path id="DejaVuSans-6d" d="M 3328 2828 
Q 3544 3216 3844 3400 
Q 4144 3584 4550 3584 
Q 5097 3584 5394 3201 
Q 5691 2819 5691 2113 
L 5691 0 
L 5113 0 
L 5113 2094 
Q 5113 2597 4934 2840 
Q 4756 3084 4391 3084 
Q 3944 3084 3684 2787 
Q 3425 2491 3425 1978 
L 3425 0 
L 2847 0 
L 2847 2094 
Q 2847 2600 2669 2842 
Q 2491 3084 2119 3084 
Q 1678 3084 1418 2786 
Q 1159 2488 1159 1978 
L 1159 0 
L 581 0 
L 581 3500 
L 1159 3500 
L 1159 2956 
Q 1356 3278 1631 3431 
Q 1906 3584 2284 3584 
Q 2666 3584 2933 3390 
Q 3200 3197 3328 2828 
z
" transform="scale(0.015625)"/>
      <path id="DejaVuSans-69" d="M 603 3500 
L 1178 3500 
L 1178 0 
L 603 0 
L 603 3500 
z
M 603 4863 
L 1178 4863 
L 1178 4134 
L 603 4134 
L 603 4863 
z
" transform="scale(0.015625)"/>
      <path id="DejaVuSans-28" d="M 1984 4856 
Q 1566 4138 1362 3434 
Q 1159 2731 1159 2009 
Q 1159 1288 1364 580 
Q 1569 -128 1984 -844 
L 1484 -844 
Q 1016 -109 783 600 
Q 550 1309 550 2009 
Q 550 2706 781 3412 
Q 1013 4119 1484 4856 
L 1984 4856 
z
" transform="scale(0.015625)"/>
      <path id="DejaVuSans-29" d="M 513 4856 
L 1013 4856 
Q 1481 4119 1714 3412 
Q 1947 2706 1947 2009 
Q 1947 1309 1714 600 
Q 1481 -109 1013 -844 
L 513 -844 
Q 928 -128 1133 580 
Q 1338 1288 1338 2009 
Q 1338 2731 1133 3434 
Q 928 4138 513 4856 
z
" transform="scale(0.015625)"/>
     </defs>
     <use xlink:href="#DejaVuSans-31"/>
     <use xlink:href="#DejaVuSans-20" x="63.623047"/>
     <use xlink:href="#DejaVuSans-74" x="95.410156"/>
     <use xlink:href="#DejaVuSans-72" x="134.619141"/>
     <use xlink:href="#DejaVuSans-61" x="175.732422"/>
     <use xlink:href="#DejaVuSans-6e" x="237.011719"/>
     <use xlink:href="#DejaVuSans-73" x="300.390625"/>
     <use xlink:href="#DejaVuSans-66" x="352.490234"/>
     <use xlink:href="#DejaVuSans-6f" x="387.695312"/>
     <use xlink:href="#DejaVuSans-72" x="448.876953"/>
     <use xlink:href="#DejaVuSans-6d" x="488.240234"/>
     <use xlink:href="#DejaVuSans-61" x="585.652344"/>
     <use xlink:href="#DejaVuSans-74" x="646.931641"/>
     <use xlink:href="#DejaVuSans-69" x="686.140625"/>
     <use xlink:href="#DejaVuSans-6f" x="713.923828"/>
     <use xlink:href="#DejaVuSans-6e" x="775.105469"/>
     <use xlink:href="#DejaVuSans-28" x="838.484375"/>
     <use xlink:href="#DejaVuSans-73" x="877.498047"/>
     <use xlink:href="#DejaVuSans-29" x="929.597656"/>
    </g>
   </g>
   <g id="legend_1">
    <g id="patch_7">
     <path d="M 613.742386 80.79625 
L 695.136136 80.79625 
Q 697.136136 80.79625 697.136136 78.79625 
L 697.136136 50.44 
Q 697.136136 48.44 695.136136 48.44 
L 613.742386 48.44 
Q 611.742386 48.44 611.742386 50.44 
L 611.742386 78.79625 
Q 611.742386 80.79625 613.742386 80.79625 
z
" style="fill: #ffffff; opacity: 0.8; stroke: #cccccc; stroke-linejoin: miter"/>
    </g>
    <g id="line2d_16">
     <path d="M 615.742386 56.538437 
L 625.742386 56.538437 
L 635.742386 56.538437 
" style="fill: none; stroke: #1f77b4; stroke-width: 1.5; stroke-linecap: square"/>
    </g>
    <g id="text_15">
     <!-- observed -->
     <g transform="translate(643.742386 60.038437) scale(0.1 -0.1)">
      <defs>
       <path id="DejaVuSans-62" d="M 3116 1747 
Q 3116 2381 2855 2742 
Q 2594 3103 2138 3103 
Q 1681 3103 1420 2742 
Q 1159 2381 1159 1747 
Q 1159 1113 1420 752 
Q 1681 391 2138 391 
Q 2594 391 2855 752 
Q 3116 1113 3116 1747 
z
M 1159 2969 
Q 1341 3281 1617 3432 
Q 1894 3584 2278 3584 
Q 2916 3584 3314 3078 
Q 3713 2572 3713 1747 
Q 3713 922 3314 415 
Q 2916 -91 2278 -91 
Q 1894 -91 1617 61 
Q 1341 213 1159 525 
L 1159 0 
L 581 0 
L 581 4863 
L 1159 4863 
L 1159 2969 
z
" transform="scale(0.015625)"/>
       <path id="DejaVuSans-65" d="M 3597 1894 
L 3597 1613 
L 953 1613 
Q 991 1019 1311 708 
Q 1631 397 2203 397 
Q 2534 397 2845 478 
Q 3156 559 3463 722 
L 3463 178 
Q 3153 47 2828 -22 
Q 2503 -91 2169 -91 
Q 1331 -91 842 396 
Q 353 884 353 1716 
Q 353 2575 817 3079 
Q 1281 3584 2069 3584 
Q 2775 3584 3186 3129 
Q 3597 2675 3597 1894 
z
M 3022 2063 
Q 3016 2534 2758 2815 
Q 2500 3097 2075 3097 
Q 1594 3097 1305 2825 
Q 1016 2553 972 2059 
L 3022 2063 
z
" transform="scale(0.015625)"/>
       <path id="DejaVuSans-76" d="M 191 3500 
L 800 3500 
L 1894 563 
L 2988 3500 
L 3597 3500 
L 2284 0 
L 1503 0 
L 191 3500 
z
" transform="scale(0.015625)"/>
       <path id="DejaVuSans-64" d="M 2906 2969 
L 2906 4863 
L 3481 4863 
L 3481 0 
L 2906 0 
L 2906 525 
Q 2725 213 2448 61 
Q 2172 -91 1784 -91 
Q 1150 -91 751 415 
Q 353 922 353 1747 
Q 353 2572 751 3078 
Q 1150 3584 1784 3584 
Q 2172 3584 2448 3432 
Q 2725 3281 2906 2969 
z
M 947 1747 
Q 947 1113 1208 752 
Q 1469 391 1925 391 
Q 2381 391 2643 752 
Q 2906 1113 2906 1747 
Q 2906 2381 2643 2742 
Q 2381 3103 1925 3103 
Q 1469 3103 1208 2742 
Q 947 2381 947 1747 
z
" transform="scale(0.015625)"/>
      </defs>
      <use xlink:href="#DejaVuSans-6f"/>
      <use xlink:href="#DejaVuSans-62" x="61.181641"/>
      <use xlink:href="#DejaVuSans-73" x="124.658203"/>
      <use xlink:href="#DejaVuSans-65" x="176.757812"/>
      <use xlink:href="#DejaVuSans-72" x="238.28125"/>
      <use xlink:href="#DejaVuSans-76" x="279.394531"/>
      <use xlink:href="#DejaVuSans-65" x="338.574219"/>
      <use xlink:href="#DejaVuSans-64" x="400.097656"/>
     </g>
    </g>
    <g id="line2d_17">
     <path d="M 615.742386 71.216563 
L 625.742386 71.216563 
L 635.742386 71.216563 
" style="fill: none; stroke: #ff7f0e; stroke-width: 1.5; stroke-linecap: square"/>
    </g>
    <g id="text_16">
     <!-- simulated -->
     <g transform="translate(643.742386 74.716563) scale(0.1 -0.1)">
      <defs>
       <path id="DejaVuSans-75" d="M 544 1381 
L 544 3500 
L 1119 3500 
L 1119 1403 
Q 1119 906 1312 657 
Q 1506 409 1894 409 
Q 2359 409 2629 706 
Q 2900 1003 2900 1516 
L 2900 3500 
L 3475 3500 
L 3475 0 
L 2900 0 
L 2900 538 
Q 2691 219 2414 64 
Q 2138 -91 1772 -91 
Q 1169 -91 856 284 
Q 544 659 544 1381 
z
M 1991 3584 
L 1991 3584 
z
" transform="scale(0.015625)"/>
       <path id="DejaVuSans-6c" d="M 603 4863 
L 1178 4863 
L 1178 0 
L 603 0 
L 603 4863 
z
" transform="scale(0.015625)"/>
      </defs>
      <use xlink:href="#DejaVuSans-73"/>
      <use xlink:href="#DejaVuSans-69" x="52.099609"/>
      <use xlink:href="#DejaVuSans-6d" x="79.882812"/>
      <use xlink:href="#DejaVuSans-75" x="177.294922"/>
      <use xlink:href="#DejaVuSans-6c" x="240.673828"/>
      <use xlink:href="#DejaVuSans-61" x="268.457031"/>
      <use xlink:href="#DejaVuSans-74" x="329.736328"/>
      <use xlink:href="#DejaVuSans-65" x="368.945312"/>
      <use xlink:href="#DejaVuSans-64" x="430.46875"/>
     </g>
    </g>
   </g>
  </g>
  <g id="axes_2">
   <g id="patch_8">
    <path d="M 20.5625 684.92 
L 702.136136 684.92 
L 702.136136 386.16 
L 20.5625 386.16 
z
" style="fill: #ffffff"/>
   </g>
   <g id="matplotlib.axis_3">
    <g id="xtick_7">
     <g id="line2d_18">
      <g>
       <use xlink:href="#ma0855aa327" x="51.370957" y="684.92" style="stroke: #000000; stroke-width: 0.8"/>
      </g>
     </g>
     <g id="text_17">
      <!-- 2014-07-01 -->
      <g transform="translate(22.313145 699.518437) scale(0.1 -0.1)">
       <use xlink:href="#DejaVuSans-32"/>
       <use xlink:href="#DejaVuSans-30" x="63.623047"/>
       <use xlink:href="#DejaVuSans-31" x="127.246094"/>
       <use xlink:href="#DejaVuSans-34" x="190.869141"/>
       <use xlink:href="#DejaVuSans-2d" x="254.492188"/>
       <use xlink:href="#DejaVuSans-30" x="290.576172"/>
       <use xlink:href="#DejaVuSans-37" x="354.199219"/>
       <use xlink:href="#DejaVuSans-2d" x="417.822266"/>
       <use xlink:href="#DejaVuSans-30" x="453.90625"/>
       <use xlink:href="#DejaVuSans-31" x="517.529297"/>
      </g>
     </g>
    </g>
    <g id="xtick_8">
     <g id="line2d_19">
      <g>
       <use xlink:href="#ma0855aa327" x="175.327869" y="684.92" style="stroke: #000000; stroke-width: 0.8"/>
      </g>
     </g>
     <g id="text_18">
      <!-- 2014-07-02 -->
      <g transform="translate(146.270057 699.518437) scale(0.1 -0.1)">
       <use xlink:href="#DejaVuSans-32"/>
       <use xlink:href="#DejaVuSans-30" x="63.623047"/>
       <use xlink:href="#DejaVuSans-31" x="127.246094"/>
       <use xlink:href="#DejaVuSans-34" x="190.869141"/>
       <use xlink:href="#DejaVuSans-2d" x="254.492188"/>
       <use xlink:href="#DejaVuSans-30" x="290.576172"/>
       <use xlink:href="#DejaVuSans-37" x="354.199219"/>
       <use xlink:href="#DejaVuSans-2d" x="417.822266"/>
       <use xlink:href="#DejaVuSans-30" x="453.90625"/>
       <use xlink:href="#DejaVuSans-32" x="517.529297"/>
      </g>
     </g>
    </g>
    <g id="xtick_9">
     <g id="line2d_20">
      <g>
       <use xlink:href="#ma0855aa327" x="299.284781" y="684.92" style="stroke: #000000; stroke-width: 0.8"/>
      </g>
     </g>
     <g id="text_19">
      <!-- 2014-07-03 -->
      <g transform="translate(270.226969 699.518437) scale(0.1 -0.1)">
       <use xlink:href="#DejaVuSans-32"/>
       <use xlink:href="#DejaVuSans-30" x="63.623047"/>
       <use xlink:href="#DejaVuSans-31" x="127.246094"/>
       <use xlink:href="#DejaVuSans-34" x="190.869141"/>
       <use xlink:href="#DejaVuSans-2d" x="254.492188"/>
       <use xlink:href="#DejaVuSans-30" x="290.576172"/>
       <use xlink:href="#DejaVuSans-37" x="354.199219"/>
       <use xlink:href="#DejaVuSans-2d" x="417.822266"/>
       <use xlink:href="#DejaVuSans-30" x="453.90625"/>
       <use xlink:href="#DejaVuSans-33" x="517.529297"/>
      </g>
     </g>
    </g>
    <g id="xtick_10">
     <g id="line2d_21">
      <g>
       <use xlink:href="#ma0855aa327" x="423.241693" y="684.92" style="stroke: #000000; stroke-width: 0.8"/>
      </g>
     </g>
     <g id="text_20">
      <!-- 2014-07-04 -->
      <g transform="translate(394.18388 699.518437) scale(0.1 -0.1)">
       <use xlink:href="#DejaVuSans-32"/>
       <use xlink:href="#DejaVuSans-30" x="63.623047"/>
       <use xlink:href="#DejaVuSans-31" x="127.246094"/>
       <use xlink:href="#DejaVuSans-34" x="190.869141"/>
       <use xlink:href="#DejaVuSans-2d" x="254.492188"/>
       <use xlink:href="#DejaVuSans-30" x="290.576172"/>
       <use xlink:href="#DejaVuSans-37" x="354.199219"/>
       <use xlink:href="#DejaVuSans-2d" x="417.822266"/>
       <use xlink:href="#DejaVuSans-30" x="453.90625"/>
       <use xlink:href="#DejaVuSans-34" x="517.529297"/>
      </g>
     </g>
    </g>
    <g id="xtick_11">
     <g id="line2d_22">
      <g>
       <use xlink:href="#ma0855aa327" x="547.198605" y="684.92" style="stroke: #000000; stroke-width: 0.8"/>
      </g>
     </g>
     <g id="text_21">
      <!-- 2014-07-05 -->
      <g transform="translate(518.140792 699.518437) scale(0.1 -0.1)">
       <use xlink:href="#DejaVuSans-32"/>
       <use xlink:href="#DejaVuSans-30" x="63.623047"/>
       <use xlink:href="#DejaVuSans-31" x="127.246094"/>
       <use xlink:href="#DejaVuSans-34" x="190.869141"/>
       <use xlink:href="#DejaVuSans-2d" x="254.492188"/>
       <use xlink:href="#DejaVuSans-30" x="290.576172"/>
       <use xlink:href="#DejaVuSans-37" x="354.199219"/>
       <use xlink:href="#DejaVuSans-2d" x="417.822266"/>
       <use xlink:href="#DejaVuSans-30" x="453.90625"/>
       <use xlink:href="#DejaVuSans-35" x="517.529297"/>
      </g>
     </g>
    </g>
    <g id="xtick_12">
     <g id="line2d_23">
      <g>
       <use xlink:href="#ma0855aa327" x="671.155517" y="684.92" style="stroke: #000000; stroke-width: 0.8"/>
      </g>
     </g>
     <g id="text_22">
      <!-- 2014-07-06 -->
      <g transform="translate(642.097704 699.518437) scale(0.1 -0.1)">
       <use xlink:href="#DejaVuSans-32"/>
       <use xlink:href="#DejaVuSans-30" x="63.623047"/>
       <use xlink:href="#DejaVuSans-31" x="127.246094"/>
       <use xlink:href="#DejaVuSans-34" x="190.869141"/>
       <use xlink:href="#DejaVuSans-2d" x="254.492188"/>
       <use xlink:href="#DejaVuSans-30" x="290.576172"/>
       <use xlink:href="#DejaVuSans-37" x="354.199219"/>
       <use xlink:href="#DejaVuSans-2d" x="417.822266"/>
       <use xlink:href="#DejaVuSans-30" x="453.90625"/>
       <use xlink:href="#DejaVuSans-36" x="517.529297"/>
      </g>
     </g>
    </g>
   </g>
   <g id="matplotlib.axis_4">
    <g id="ytick_8">
     <g id="line2d_24">
      <g>
       <use xlink:href="#m8c41489af8" x="20.5625" y="671.337966" style="stroke: #000000; stroke-width: 0.8"/>
      </g>
     </g>
     <g id="text_23">
      <!-- 0 -->
      <g transform="translate(7.2 675.137184) scale(0.1 -0.1)">
       <use xlink:href="#DejaVuSans-30"/>
      </g>
     </g>
    </g>
    <g id="ytick_9">
     <g id="line2d_25">
      <g>
       <use xlink:href="#m8c41489af8" x="20.5625" y="627.452054" style="stroke: #000000; stroke-width: 0.8"/>
      </g>
     </g>
     <g id="text_24">
      <!-- 1 -->
      <g transform="translate(7.2 631.251272) scale(0.1 -0.1)">
       <use xlink:href="#DejaVuSans-31"/>
      </g>
     </g>
    </g>
    <g id="ytick_10">
     <g id="line2d_26">
      <g>
       <use xlink:href="#m8c41489af8" x="20.5625" y="583.566142" style="stroke: #000000; stroke-width: 0.8"/>
      </g>
     </g>
     <g id="text_25">
      <!-- 2 -->
      <g transform="translate(7.2 587.365361) scale(0.1 -0.1)">
       <use xlink:href="#DejaVuSans-32"/>
      </g>
     </g>
    </g>
    <g id="ytick_11">
     <g id="line2d_27">
      <g>
       <use xlink:href="#m8c41489af8" x="20.5625" y="539.68023" style="stroke: #000000; stroke-width: 0.8"/>
      </g>
     </g>
     <g id="text_26">
      <!-- 3 -->
      <g transform="translate(7.2 543.479449) scale(0.1 -0.1)">
       <use xlink:href="#DejaVuSans-33"/>
      </g>
     </g>
    </g>
    <g id="ytick_12">
     <g id="line2d_28">
      <g>
       <use xlink:href="#m8c41489af8" x="20.5625" y="495.794318" style="stroke: #000000; stroke-width: 0.8"/>
      </g>
     </g>
     <g id="text_27">
      <!-- 4 -->
      <g transform="translate(7.2 499.593537) scale(0.1 -0.1)">
       <use xlink:href="#DejaVuSans-34"/>
      </g>
     </g>
    </g>
    <g id="ytick_13">
     <g id="line2d_29">
      <g>
       <use xlink:href="#m8c41489af8" x="20.5625" y="451.908406" style="stroke: #000000; stroke-width: 0.8"/>
      </g>
     </g>
     <g id="text_28">
      <!-- 5 -->
      <g transform="translate(7.2 455.707625) scale(0.1 -0.1)">
       <use xlink:href="#DejaVuSans-35"/>
      </g>
     </g>
    </g>
    <g id="ytick_14">
     <g id="line2d_30">
      <g>
       <use xlink:href="#m8c41489af8" x="20.5625" y="408.022494" style="stroke: #000000; stroke-width: 0.8"/>
      </g>
     </g>
     <g id="text_29">
      <!-- 6 -->
      <g transform="translate(7.2 411.821713) scale(0.1 -0.1)">
       <use xlink:href="#DejaVuSans-36"/>
      </g>
     </g>
    </g>
   </g>
   <g id="line2d_31">
    <path d="M 51.54312 671.337966 
L 56.449748 671.22877 
L 57.999209 670.98585 
L 59.54867 670.509694 
L 61.270294 669.960011 
L 62.303268 669.870304 
L 63.250162 669.815743 
L 64.627461 669.43915 
L 66.607328 668.741659 
L 68.070708 668.001146 
L 68.587195 667.506925 
L 69.103682 666.723999 
L 69.620169 665.50068 
L 69.878413 664.731243 
L 70.653144 657.222342 
L 70.997468 656.652054 
L 72.030443 653.627223 
L 73.752067 648.232996 
L 75.645853 643.447275 
L 76.334502 642.326612 
L 77.367476 640.9995 
L 77.711801 640.707471 
L 78.142207 640.401726 
L 78.744775 640.016266 
L 79.433425 639.823772 
L 80.380318 639.838091 
L 80.638562 639.830609 
L 81.24113 638.592976 
L 81.499374 638.640889 
L 81.671536 638.333179 
L 82.101942 637.239279 
L 82.274104 637.273527 
L 82.532348 637.749109 
L 83.134916 639.186054 
L 84.253972 641.74976 
L 84.340053 641.711558 
L 85.028702 638.997685 
L 85.631271 633.049516 
L 85.803433 629.02348 
L 87.438976 507.593656 
L 87.869381 490.018936 
L 88.47195 470.49516 
L 89.246681 448.938422 
L 90.451817 425.698069 
L 91.829116 409.605746 
L 92.603847 404.157863 
L 93.378578 400.876389 
L 93.895065 399.74 
L 93.981146 399.766639 
L 94.153308 401.43705 
L 94.583714 409.678926 
L 95.186283 426.256449 
L 96.735744 474.078393 
L 97.16615 483.712839 
L 97.510475 489.045941 
L 97.682637 489.141909 
L 97.854799 487.630791 
L 98.026962 485.434708 
L 98.371287 478.872262 
L 99.146017 459.619943 
L 99.490342 455.341408 
L 99.662504 454.361465 
L 99.748586 454.409198 
L 99.920748 454.901221 
L 100.09291 456.228543 
L 100.437235 460.562574 
L 100.78156 466.607551 
L 101.556291 484.288902 
L 103.363995 534.514822 
L 103.966564 556.015875 
L 104.827376 589.545776 
L 105.429944 601.842059 
L 105.516025 602.288881 
L 105.774269 605.25368 
L 105.86035 605.442688 
L 106.118594 607.240326 
L 106.376837 608.773595 
L 106.462918 608.818587 
L 106.721162 610.213522 
L 106.807243 610.228019 
L 107.065487 611.410922 
L 107.151568 611.393841 
L 107.409811 612.469742 
L 107.495893 612.564889 
L 107.840217 613.622768 
L 108.356704 615.146217 
L 109.131435 617.343435 
L 110.078328 621.322523 
L 111.197384 628.137316 
L 111.455627 629.624722 
L 111.62779 629.759776 
L 111.972114 629.077425 
L 112.144277 629.197433 
L 112.488601 630.583064 
L 113.177251 633.854943 
L 113.435495 634.066881 
L 113.693738 634.010173 
L 114.038063 633.704922 
L 114.296306 632.912681 
L 114.55455 631.304814 
L 114.726712 630.925742 
L 114.812794 630.967284 
L 115.071037 631.762198 
L 115.415362 632.827293 
L 115.501443 632.803576 
L 115.759687 632.406897 
L 115.931849 632.56198 
L 116.190093 633.569436 
L 116.448336 634.373948 
L 117.136986 635.281409 
L 117.997798 635.990716 
L 123.506994 639.588242 
L 125.228617 640.221949 
L 127.122404 640.612536 
L 129.532677 640.752534 
L 130.47957 640.705941 
L 131.082138 640.734249 
L 131.94295 640.956731 
L 132.803762 641.381643 
L 133.664574 642.072992 
L 134.955792 643.421632 
L 137.366065 645.858798 
L 138.657283 646.905156 
L 140.034582 647.750778 
L 140.63715 647.85659 
L 141.756206 647.884213 
L 144.338641 647.635332 
L 146.921077 647.952598 
L 150.364325 647.985342 
L 151.569461 648.236051 
L 152.430273 648.284582 
L 153.205004 648.300803 
L 154.324059 648.30214 
L 155.270952 648.541206 
L 157.422982 649.2788 
L 160.780148 649.763516 
L 161.554879 649.64877 
L 162.243529 649.517573 
L 163.879071 649.513839 
L 165.25637 649.900686 
L 167.150156 650.578699 
L 167.924887 650.721195 
L 169.56043 650.891841 
L 171.02381 650.684626 
L 172.745434 650.730184 
L 174.380976 651.174625 
L 175.672194 651.269028 
L 176.533006 651.167248 
L 177.307737 650.881803 
L 178.426792 650.489174 
L 179.115442 650.241753 
L 180.062335 649.984138 
L 181.525715 649.82027 
L 182.816933 649.957797 
L 183.849907 650.222236 
L 186.174099 651.078866 
L 186.94883 651.109814 
L 187.637479 651.170212 
L 188.41221 651.236405 
L 191.769376 651.078493 
L 192.802351 651.245709 
L 193.663162 651.654522 
L 195.987355 653.223027 
L 200.72182 656.230229 
L 200.893982 656.243239 
L 201.066145 655.743833 
L 201.926957 652.475046 
L 202.1852 651.575526 
L 202.787768 648.27662 
L 203.992905 638.329732 
L 204.509392 636.26191 
L 205.542367 634.147411 
L 206.231016 633.718357 
L 206.919666 634.024068 
L 207.436153 634.945394 
L 208.296965 636.791971 
L 209.157776 637.804046 
L 211.912374 640.166863 
L 212.084537 640.182278 
L 212.514943 640.082718 
L 212.687105 640.12776 
L 213.289674 639.195615 
L 213.547917 637.489624 
L 213.978323 634.065537 
L 214.236567 629.18578 
L 215.441703 565.177718 
L 215.786028 556.563969 
L 215.872109 556.282258 
L 215.95819 554.745567 
L 216.044272 555.464536 
L 216.130353 554.539745 
L 216.388596 558.235385 
L 216.474677 558.488647 
L 217.249408 590.88185 
L 217.679814 617.814505 
L 218.368464 636.139032 
L 219.315357 639.079819 
L 221.72563 645.158335 
L 222.844685 647.551561 
L 223.791579 649.184796 
L 224.996715 650.828514 
L 227.148745 652.899163 
L 228.181719 653.526582 
L 229.645099 654.018769 
L 230.505911 654.185647 
L 231.280642 654.071943 
L 232.227535 653.710903 
L 234.121321 652.788037 
L 235.49862 651.60465 
L 236.875919 650.509707 
L 237.564569 650.236855 
L 238.425381 650.142319 
L 242.385115 650.201626 
L 243.073765 650.161227 
L 243.848496 650.093665 
L 244.623226 650.081469 
L 246.172688 649.776812 
L 247.894311 650.013808 
L 248.49688 650.267023 
L 249.615935 650.804124 
L 250.562828 650.927659 
L 251.854046 650.967149 
L 256.932836 650.14556 
L 257.621486 650.166031 
L 260.720409 650.793474 
L 261.236896 650.805684 
L 262.442032 650.654241 
L 263.73325 650.356833 
L 265.713117 649.713629 
L 266.401767 649.649486 
L 267.090416 649.84889 
L 268.81204 650.468064 
L 269.414609 650.442928 
L 272.255288 649.952856 
L 273.804749 650.210705 
L 275.612454 650.151797 
L 276.215022 650.047322 
L 276.903672 649.950123 
L 277.764484 649.819432 
L 278.797458 649.938761 
L 279.572189 650.247931 
L 280.433001 650.855914 
L 283.359761 653.214318 
L 286.803009 655.532623 
L 288.35247 655.904829 
L 289.385444 656.105694 
L 291.623555 656.382176 
L 292.914773 656.566039 
L 294.11991 656.839581 
L 295.755452 657.188582 
L 297.218833 657.274292 
L 298.251807 657.099416 
L 299.284781 656.638151 
L 299.801268 656.245241 
L 300.489918 655.456011 
L 301.092486 654.60264 
L 302.900191 651.111073 
L 305.568708 644.527176 
L 305.999114 643.64135 
L 307.118169 641.826165 
L 307.806819 641.037408 
L 308.581549 640.397938 
L 308.925874 640.226582 
L 309.270199 640.022994 
L 310.561417 639.768066 
L 311.163985 639.800928 
L 311.766553 638.558096 
L 312.024797 638.580987 
L 312.196959 638.186422 
L 312.627365 637.140877 
L 312.799528 637.208687 
L 313.057771 637.694565 
L 316.328856 645.28194 
L 317.792237 647.99614 
L 318.825211 649.373636 
L 319.858185 650.398127 
L 320.977241 651.215989 
L 327.691573 655.070298 
L 329.241035 655.906208 
L 334.491987 657.891065 
L 337.59091 658.725877 
L 340.775914 659.381687 
L 344.735649 659.973917 
L 345.338217 660.136385 
L 345.854704 660.376924 
L 347.318084 660.54264 
L 352.913362 660.989838 
L 358.680801 661.204224 
L 364.189997 661.375144 
L 364.276079 661.431622 
L 364.36216 661.807689 
L 364.878647 666.953612 
L 365.222972 667.998534 
L 365.653378 668.533853 
L 366.169865 668.798217 
L 367.116758 668.977347 
L 370.215681 669.20652 
L 380.028936 669.701041 
L 392.424627 670.099852 
L 410.071271 670.438633 
L 438.047657 670.734315 
L 479.969196 670.941655 
L 564.587005 671.110105 
L 671.155517 671.196961 
L 671.155517 671.196961 
" clip-path="url(#p83ba73251b)" style="fill: none; stroke: #1f77b4; stroke-width: 1.5; stroke-linecap: square"/>
   </g>
   <g id="line2d_32">
    <path d="M 51.54312 671.337966 
L 53.264744 671.247557 
L 53.781231 670.920158 
L 54.642043 670.011616 
L 56.019342 668.544567 
L 60.065158 664.868192 
L 60.495563 664.743244 
L 61.012051 664.885171 
L 61.7007 665.376693 
L 64.627461 667.752921 
L 65.230029 668.006237 
L 65.660435 667.970819 
L 66.090841 667.702352 
L 66.607328 667.069273 
L 67.209896 665.929274 
L 68.070708 663.758064 
L 68.845439 661.363475 
L 69.878413 657.195275 
L 71.772199 648.296883 
L 72.633011 643.571823 
L 73.321661 638.561589 
L 75.990177 615.702797 
L 77.195314 607.691029 
L 79.433425 597.362921 
L 79.863831 595.763923 
L 80.294237 594.802674 
L 80.55248 594.751007 
L 80.896805 594.993843 
L 81.327211 595.605888 
L 81.499374 595.404528 
L 81.671536 594.678918 
L 81.929779 592.250998 
L 82.70451 583.558634 
L 82.876673 583.433685 
L 83.048835 583.939755 
L 83.307078 585.592974 
L 83.823566 591.003733 
L 85.114783 606.038594 
L 85.200865 606.235553 
L 85.286946 606.061424 
L 85.459108 604.412137 
L 85.717352 598.531353 
L 86.147758 580.220089 
L 87.438976 518.845551 
L 88.213706 490.990668 
L 88.816275 475.654037 
L 89.332762 466.714449 
L 89.677086 462.921251 
L 90.107492 460.15026 
L 90.710061 458.58288 
L 90.882223 458.43114 
L 91.312629 458.649962 
L 91.484791 459.032147 
L 92.001279 460.964858 
L 92.603847 464.996159 
L 93.55074 474.805313 
L 95.616688 498.391145 
L 96.391419 506.621476 
L 96.735744 508.703022 
L 96.993987 509.185166 
L 97.16615 509.197572 
L 97.338312 508.91511 
L 97.596556 507.326579 
L 97.854799 504.795201 
L 98.199124 498.871793 
L 98.62953 487.476968 
L 99.146017 474.521569 
L 99.404261 471.586903 
L 99.490342 471.600355 
L 99.662504 472.552602 
L 100.006829 476.932384 
L 100.695479 490.432116 
L 102.331021 523.036064 
L 104.39697 558.380109 
L 105.516025 573.529249 
L 106.548999 584.618781 
L 107.581974 593.388707 
L 108.614948 600.366159 
L 109.647922 605.851859 
L 110.594815 609.760317 
L 111.62779 613.144699 
L 112.574683 615.543193 
L 113.521576 617.351689 
L 114.210225 618.253656 
L 114.382388 618.23319 
L 114.55455 617.92921 
L 114.812794 616.859939 
L 115.759687 611.986691 
L 116.01793 611.736746 
L 116.276174 611.797136 
L 116.70658 612.284326 
L 119.030772 615.421446 
L 119.891584 615.94265 
L 121.010639 616.371783 
L 121.699289 616.457854 
L 122.646182 616.221893 
L 124.023481 615.561516 
L 125.142536 614.758983 
L 126.003348 613.790078 
L 127.294566 612.303115 
L 127.897134 611.528795 
L 129.274433 609.144764 
L 131.598625 604.723168 
L 132.029031 604.088118 
L 132.287275 603.959481 
L 132.545518 604.175768 
L 132.889843 604.798562 
L 133.40633 606.388074 
L 134.525386 610.796856 
L 136.160928 616.933989 
L 137.366065 620.583473 
L 138.48512 623.316091 
L 139.690257 625.668348 
L 140.378907 626.693862 
L 140.63715 626.815518 
L 140.895394 626.666494 
L 141.153637 626.196015 
L 141.584043 624.817392 
L 142.530936 621.784931 
L 142.961342 621.103966 
L 143.305667 620.979338 
L 143.649992 621.122462 
L 144.25256 621.446336 
L 144.596885 621.402578 
L 145.199453 621.025358 
L 145.974184 620.56582 
L 146.40459 620.586474 
L 147.007158 620.647304 
L 147.265402 620.432192 
L 147.609726 619.857495 
L 148.55662 617.958762 
L 149.073107 617.480074 
L 149.675675 617.324156 
L 150.278243 617.518487 
L 150.622568 617.559196 
L 151.48338 617.393434 
L 152.172029 617.78566 
L 152.430273 617.596572 
L 152.774598 616.965842 
L 153.549329 615.602179 
L 154.324059 614.96128 
L 154.668384 614.84196 
L 155.012709 615.009472 
L 155.357033 615.442428 
L 156.131764 616.954679 
L 156.648251 617.773476 
L 156.906495 617.872487 
L 157.25082 617.702487 
L 158.283794 616.826246 
L 158.886362 616.242413 
L 159.058525 616.27144 
L 159.402849 616.649978 
L 160.349742 617.862642 
L 160.607986 617.683182 
L 161.038392 616.894783 
L 162.932178 613.037339 
L 163.190422 612.934662 
L 163.448665 613.108493 
L 164.051234 613.881409 
L 165.170289 615.455445 
L 165.428533 615.444887 
L 166.117182 615.198492 
L 166.375426 615.313277 
L 166.805832 615.950689 
L 167.580562 617.161349 
L 168.010968 617.375652 
L 168.355293 617.296705 
L 168.699618 616.996376 
L 169.216105 616.523303 
L 169.646511 616.486091 
L 170.076917 616.416896 
L 170.421242 616.06059 
L 171.626378 614.34958 
L 171.970703 614.447919 
L 172.745434 615.340909 
L 173.348002 616.273429 
L 174.467057 618.32027 
L 174.725301 618.35922 
L 174.983545 618.150497 
L 175.500032 617.315763 
L 176.446925 615.508131 
L 176.791249 615.214018 
L 177.049493 615.203383 
L 177.652061 615.210293 
L 177.996386 614.886671 
L 178.512873 613.862309 
L 179.287604 612.251352 
L 179.71801 611.871997 
L 180.320578 611.555561 
L 180.750984 611.560595 
L 181.353552 611.726638 
L 181.697877 611.51935 
L 182.128283 611.164655 
L 182.472608 611.16689 
L 182.989095 611.786155 
L 183.591663 612.41215 
L 184.452475 613.065462 
L 186.776667 616.276838 
L 187.120992 616.690418 
L 187.293155 616.68792 
L 187.551398 616.373393 
L 187.981804 615.214621 
L 188.41221 614.281589 
L 188.670454 614.071245 
L 188.928697 614.21673 
L 190.305996 615.492857 
L 190.650321 615.489908 
L 190.908564 615.252846 
L 191.425052 614.280939 
L 191.855458 613.664147 
L 192.113701 613.719317 
L 192.371945 614.036288 
L 192.802351 615.099724 
L 195.470867 622.674682 
L 196.676004 625.144895 
L 197.881141 627.105998 
L 199.086277 628.664709 
L 200.377495 629.988664 
L 201.496551 630.937784 
L 201.668713 630.686637 
L 201.840875 629.86128 
L 202.099119 627.127627 
L 202.443444 620.232515 
L 203.132093 599.802869 
L 204.078986 573.762738 
L 204.681555 562.382347 
L 205.370204 552.860543 
L 205.972772 546.643016 
L 206.48926 542.980723 
L 206.919666 540.926068 
L 207.350071 539.860964 
L 207.694396 539.784724 
L 207.866559 539.818677 
L 208.641289 540.940395 
L 209.329939 542.710936 
L 210.10467 545.633073 
L 210.793319 549.169862 
L 212.601024 558.363561 
L 212.773186 558.465665 
L 212.945349 558.230829 
L 213.203592 557.293993 
L 213.547917 554.978893 
L 213.892242 551.461168 
L 214.322648 543.905166 
L 214.753054 531.143895 
L 215.269541 508.08278 
L 215.786028 488.053943 
L 216.044272 483.516975 
L 216.216434 483.151361 
L 216.388596 484.041736 
L 216.64684 487.066821 
L 217.249408 497.984831 
L 218.79887 526.935647 
L 220.434412 552.425298 
L 221.553468 566.813594 
L 222.672523 578.292939 
L 223.705497 586.758128 
L 224.738472 593.575427 
L 225.857527 599.471095 
L 226.976583 604.135655 
L 227.751313 606.574274 
L 228.353882 607.829577 
L 228.784287 608.303602 
L 229.128612 608.411821 
L 229.472937 608.288741 
L 230.333749 607.841426 
L 230.764155 607.999269 
L 231.797129 608.592623 
L 232.227535 608.530503 
L 232.657941 608.2465 
L 233.002266 607.806063 
L 234.379565 605.574917 
L 234.896052 604.775052 
L 235.49862 603.256507 
L 236.962 599.106408 
L 237.306325 598.764102 
L 237.564569 598.745056 
L 237.822812 598.954675 
L 238.339299 599.778359 
L 238.941868 600.742913 
L 239.286193 600.943496 
L 239.544436 600.831452 
L 239.888761 600.404061 
L 240.749573 599.023887 
L 241.007816 599.050281 
L 241.352141 599.423264 
L 241.868628 600.088694 
L 242.212953 600.172185 
L 242.901602 600.177103 
L 243.590252 600.561606 
L 243.848496 600.367734 
L 244.19282 599.756644 
L 244.623226 598.998539 
L 244.88147 598.884556 
L 245.139713 598.982463 
L 245.570119 599.247384 
L 245.828363 599.13988 
L 246.172688 598.599998 
L 246.603094 597.883469 
L 246.861337 597.718114 
L 247.0335 597.817052 
L 247.377824 598.439917 
L 247.894311 599.906258 
L 248.49688 601.425973 
L 248.841204 601.733734 
L 249.443773 602.146697 
L 250.476747 603.728143 
L 250.734991 603.642584 
L 251.079315 603.172498 
L 251.767965 602.020772 
L 252.11229 601.743346 
L 252.628777 601.723809 
L 254.092157 601.993202 
L 254.350401 601.754787 
L 254.780806 601.035047 
L 255.297294 600.157206 
L 255.7277 599.797137 
L 256.416349 599.667581 
L 256.846755 599.783685 
L 257.277161 600.278323 
L 257.879729 600.948244 
L 258.396216 600.973133 
L 258.740541 601.081947 
L 259.170947 601.677391 
L 260.290003 603.356208 
L 260.548246 603.241745 
L 260.978652 602.633711 
L 261.409058 602.073101 
L 263.044601 601.209606 
L 263.819331 601.437993 
L 264.163656 601.223455 
L 264.594062 600.570756 
L 265.110549 599.187171 
L 265.799199 597.373593 
L 266.057442 597.214943 
L 266.229605 597.343584 
L 266.573929 597.986077 
L 267.262579 599.852806 
L 268.123391 602.085057 
L 268.467716 602.399358 
L 268.81204 602.350408 
L 269.50069 601.935734 
L 269.845015 601.46137 
L 270.27542 600.437758 
L 271.050151 598.412151 
L 271.308395 598.191933 
L 271.566638 598.307778 
L 271.824882 598.690652 
L 272.943937 600.872977 
L 273.976912 601.772849 
L 274.235155 601.583578 
L 274.57948 600.890432 
L 275.095967 599.843089 
L 275.354211 599.695661 
L 275.612454 599.840558 
L 276.128941 600.251306 
L 276.387185 600.215786 
L 276.73151 599.875153 
L 277.50624 599.26351 
L 277.936646 598.800664 
L 278.453133 598.251159 
L 278.625296 598.271429 
L 278.883539 598.579423 
L 279.227864 599.384944 
L 279.916514 601.8503 
L 281.465975 607.387463 
L 282.58503 610.55722 
L 283.704086 613.115756 
L 284.909223 615.323556 
L 286.114359 617.084394 
L 287.147333 618.231445 
L 287.319496 618.225689 
L 287.577739 617.915404 
L 288.094227 616.594981 
L 288.524632 615.776476 
L 288.782876 615.712243 
L 289.127201 615.903431 
L 289.729769 616.600946 
L 291.623555 618.929066 
L 292.742611 619.983256 
L 293.086935 620.015246 
L 293.43126 619.749458 
L 294.033829 619.210664 
L 294.378153 619.238136 
L 294.89464 619.559425 
L 296.874508 621.064728 
L 297.304914 621.099422 
L 297.73532 620.932037 
L 298.165726 620.545043 
L 298.768294 619.601766 
L 299.456943 618.021937 
L 300.748161 614.106011 
L 301.695054 610.506312 
L 302.641947 606.124147 
L 303.761003 600.028331 
L 304.449652 593.949416 
L 305.913033 579.346126 
L 306.773845 572.693124 
L 308.495468 562.089407 
L 309.528443 556.815528 
L 310.389254 554.098321 
L 310.991823 552.804012 
L 311.422229 552.618731 
L 311.852635 552.944676 
L 312.024797 552.682648 
L 312.196959 551.920163 
L 312.455203 549.47928 
L 313.229934 540.97769 
L 313.402096 540.88969 
L 313.574258 541.420186 
L 313.918583 543.815907 
L 314.521151 550.520861 
L 315.984532 567.222817 
L 317.017506 576.263065 
L 318.05048 583.395553 
L 319.169536 589.475466 
L 320.116429 593.530453 
L 321.063322 596.683182 
L 322.35454 600.060027 
L 323.387514 603.088477 
L 325.109138 608.073669 
L 326.314274 610.877539 
L 327.261167 612.593672 
L 328.724548 614.481356 
L 330.274009 616.353669 
L 331.651308 617.667072 
L 333.200769 618.832198 
L 334.922393 619.847661 
L 336.988342 620.80161 
L 339.570777 621.736528 
L 343.014025 622.731369 
L 348.178896 623.969855 
L 357.13134 625.85904 
L 371.765142 628.709518 
L 388.378811 631.72179 
L 405.68113 634.632615 
L 423.672099 637.4327 
L 442.351717 640.114162 
L 461.806065 642.681644 
L 482.121226 645.137672 
L 503.38328 647.483039 
L 525.678308 649.717188 
L 549.092391 651.838579 
L 573.797692 653.851694 
L 599.880292 655.751945 
L 627.512354 657.540312 
L 656.95212 659.22048 
L 671.155517 659.956309 
L 671.155517 659.956309 
" clip-path="url(#p83ba73251b)" style="fill: none; stroke: #ff7f0e; stroke-width: 1.5; stroke-linecap: square"/>
   </g>
   <g id="patch_9">
    <path d="M 20.5625 684.92 
L 20.5625 386.16 
" style="fill: none; stroke: #000000; stroke-width: 0.8; stroke-linejoin: miter; stroke-linecap: square"/>
   </g>
   <g id="patch_10">
    <path d="M 702.136136 684.92 
L 702.136136 386.16 
" style="fill: none; stroke: #000000; stroke-width: 0.8; stroke-linejoin: miter; stroke-linecap: square"/>
   </g>
   <g id="patch_11">
    <path d="M 20.5625 684.92 
L 702.136136 684.92 
" style="fill: none; stroke: #000000; stroke-width: 0.8; stroke-linejoin: miter; stroke-linecap: square"/>
   </g>
   <g id="patch_12">
    <path d="M 20.5625 386.16 
L 702.136136 386.16 
" style="fill: none; stroke: #000000; stroke-width: 0.8; stroke-linejoin: miter; stroke-linecap: square"/>
   </g>
   <g id="text_30">
    <!-- 2 transformation(s) -->
    <g transform="translate(303.234631 380.16) scale(0.12 -0.12)">
     <use xlink:href="#DejaVuSans-32"/>
     <use xlink:href="#DejaVuSans-20" x="63.623047"/>
     <use xlink:href="#DejaVuSans-74" x="95.410156"/>
     <use xlink:href="#DejaVuSans-72" x="134.619141"/>
     <use xlink:href="#DejaVuSans-61" x="175.732422"/>
     <use xlink:href="#DejaVuSans-6e" x="237.011719"/>
     <use xlink:href="#DejaVuSans-73" x="300.390625"/>
     <use xlink:href="#DejaVuSans-66" x="352.490234"/>
     <use xlink:href="#DejaVuSans-6f" x="387.695312"/>
     <use xlink:href="#DejaVuSans-72" x="448.876953"/>
     <use xlink:href="#DejaVuSans-6d" x="488.240234"/>
     <use xlink:href="#DejaVuSans-61" x="585.652344"/>
     <use xlink:href="#DejaVuSans-74" x="646.931641"/>
     <use xlink:href="#DejaVuSans-69" x="686.140625"/>
     <use xlink:href="#DejaVuSans-6f" x="713.923828"/>
     <use xlink:href="#DejaVuSans-6e" x="775.105469"/>
     <use xlink:href="#DejaVuSans-28" x="838.484375"/>
     <use xlink:href="#DejaVuSans-73" x="877.498047"/>
     <use xlink:href="#DejaVuSans-29" x="929.597656"/>
    </g>
   </g>
  </g>
  <g id="text_31">
   <!-- training -->
   <g transform="translate(333.129063 16.318125) scale(0.12 -0.12)">
    <defs>
     <path id="DejaVuSans-67" d="M 2906 1791 
Q 2906 2416 2648 2759 
Q 2391 3103 1925 3103 
Q 1463 3103 1205 2759 
Q 947 2416 947 1791 
Q 947 1169 1205 825 
Q 1463 481 1925 481 
Q 2391 481 2648 825 
Q 2906 1169 2906 1791 
z
M 3481 434 
Q 3481 -459 3084 -895 
Q 2688 -1331 1869 -1331 
Q 1566 -1331 1297 -1286 
Q 1028 -1241 775 -1147 
L 775 -588 
Q 1028 -725 1275 -790 
Q 1522 -856 1778 -856 
Q 2344 -856 2625 -561 
Q 2906 -266 2906 331 
L 2906 616 
Q 2728 306 2450 153 
Q 2172 0 1784 0 
Q 1141 0 747 490 
Q 353 981 353 1791 
Q 353 2603 747 3093 
Q 1141 3584 1784 3584 
Q 2172 3584 2450 3431 
Q 2728 3278 2906 2969 
L 2906 3500 
L 3481 3500 
L 3481 434 
z
" transform="scale(0.015625)"/>
    </defs>
    <use xlink:href="#DejaVuSans-74"/>
    <use xlink:href="#DejaVuSans-72" x="39.208984"/>
    <use xlink:href="#DejaVuSans-61" x="80.322266"/>
    <use xlink:href="#DejaVuSans-69" x="141.601562"/>
    <use xlink:href="#DejaVuSans-6e" x="169.384766"/>
    <use xlink:href="#DejaVuSans-69" x="232.763672"/>
    <use xlink:href="#DejaVuSans-6e" x="260.546875"/>
    <use xlink:href="#DejaVuSans-67" x="323.925781"/>
   </g>
  </g>
 </g>
 <defs>
  <clipPath id="p017f01dc32">
   <rect x="20.5625" y="43.44" width="681.573636" height="298.76"/>
  </clipPath>
  <clipPath id="p83ba73251b">
   <rect x="20.5625" y="386.16" width="681.573636" height="298.76"/>
  </clipPath>
 </defs>
</svg>
