<?xml version="1.0" encoding="utf-8" standalone="no"?>
<!DOCTYPE svg PUBLIC "-//W3C//DTD SVG 1.1//EN"
  "http://www.w3.org/Graphics/SVG/1.1/DTD/svg11.dtd">
<svg xmlns:xlink="http://www.w3.org/1999/xlink" width="709.426761pt" height="708.798125pt" viewBox="0 0 709.426761 708.798125" xmlns="http://www.w3.org/2000/svg" version="1.1">
 <metadata>
  <rdf:RDF xmlns:dc="http://purl.org/dc/elements/1.1/" xmlns:cc="http://creativecommons.org/ns#" xmlns:rdf="http://www.w3.org/1999/02/22-rdf-syntax-ns#">
   <cc:Work>
    <dc:type rdf:resource="http://purl.org/dc/dcmitype/StillImage"/>
    <dc:date>2023-06-09T03:34:06.851975</dc:date>
    <dc:format>image/svg+xml</dc:format>
    <dc:creator>
     <cc:Agent>
      <dc:title>Matplotlib v3.7.1, https://matplotlib.org/</dc:title>
     </cc:Agent>
    </dc:creator>
   </cc:Work>
  </rdf:RDF>
 </metadata>
 <defs>
  <style type="text/css">*{stroke-linejoin: round; stroke-linecap: butt}</style>
 </defs>
 <g id="figure_1">
  <g id="patch_1">
   <path d="M 0 708.798125 
L 709.426761 708.798125 
L 709.426761 0 
L 0 0 
z
" style="fill: #ffffff"/>
  </g>
  <g id="axes_1">
   <g id="patch_2">
    <path d="M 30.103125 342.2 
L 702.226761 342.2 
L 702.226761 43.44 
L 30.103125 43.44 
z
" style="fill: #ffffff"/>
   </g>
   <g id="matplotlib.axis_1">
    <g id="xtick_1">
     <g id="line2d_1">
      <defs>
       <path id="mac3cf4339d" d="M 0 0 
L 0 3.5 
" style="stroke: #000000; stroke-width: 0.8"/>
      </defs>
      <g>
       <use xlink:href="#mac3cf4339d" x="60.484424" y="342.2" style="stroke: #000000; stroke-width: 0.8"/>
      </g>
     </g>
     <g id="text_1">
      <!-- 2014-07-01 -->
      <g transform="translate(31.426612 356.798437) scale(0.1 -0.1)">
       <defs>
        <path id="DejaVuSans-32" d="M 1228 531 
L 3431 531 
L 3431 0 
L 469 0 
L 469 531 
Q 828 903 1448 1529 
Q 2069 2156 2228 2338 
Q 2531 2678 2651 2914 
Q 2772 3150 2772 3378 
Q 2772 3750 2511 3984 
Q 2250 4219 1831 4219 
Q 1534 4219 1204 4116 
Q 875 4013 500 3803 
L 500 4441 
Q 881 4594 1212 4672 
Q 1544 4750 1819 4750 
Q 2544 4750 2975 4387 
Q 3406 4025 3406 3419 
Q 3406 3131 3298 2873 
Q 3191 2616 2906 2266 
Q 2828 2175 2409 1742 
Q 1991 1309 1228 531 
z
" transform="scale(0.015625)"/>
        <path id="DejaVuSans-30" d="M 2034 4250 
Q 1547 4250 1301 3770 
Q 1056 3291 1056 2328 
Q 1056 1369 1301 889 
Q 1547 409 2034 409 
Q 2525 409 2770 889 
Q 3016 1369 3016 2328 
Q 3016 3291 2770 3770 
Q 2525 4250 2034 4250 
z
M 2034 4750 
Q 2819 4750 3233 4129 
Q 3647 3509 3647 2328 
Q 3647 1150 3233 529 
Q 2819 -91 2034 -91 
Q 1250 -91 836 529 
Q 422 1150 422 2328 
Q 422 3509 836 4129 
Q 1250 4750 2034 4750 
z
" transform="scale(0.015625)"/>
        <path id="DejaVuSans-31" d="M 794 531 
L 1825 531 
L 1825 4091 
L 703 3866 
L 703 4441 
L 1819 4666 
L 2450 4666 
L 2450 531 
L 3481 531 
L 3481 0 
L 794 0 
L 794 531 
z
" transform="scale(0.015625)"/>
        <path id="DejaVuSans-34" d="M 2419 4116 
L 825 1625 
L 2419 1625 
L 2419 4116 
z
M 2253 4666 
L 3047 4666 
L 3047 1625 
L 3713 1625 
L 3713 1100 
L 3047 1100 
L 3047 0 
L 2419 0 
L 2419 1100 
L 313 1100 
L 313 1709 
L 2253 4666 
z
" transform="scale(0.015625)"/>
        <path id="DejaVuSans-2d" d="M 313 2009 
L 1997 2009 
L 1997 1497 
L 313 1497 
L 313 2009 
z
" transform="scale(0.015625)"/>
        <path id="DejaVuSans-37" d="M 525 4666 
L 3525 4666 
L 3525 4397 
L 1831 0 
L 1172 0 
L 2766 4134 
L 525 4134 
L 525 4666 
z
" transform="scale(0.015625)"/>
       </defs>
       <use xlink:href="#DejaVuSans-32"/>
       <use xlink:href="#DejaVuSans-30" x="63.623047"/>
       <use xlink:href="#DejaVuSans-31" x="127.246094"/>
       <use xlink:href="#DejaVuSans-34" x="190.869141"/>
       <use xlink:href="#DejaVuSans-2d" x="254.492188"/>
       <use xlink:href="#DejaVuSans-30" x="290.576172"/>
       <use xlink:href="#DejaVuSans-37" x="354.199219"/>
       <use xlink:href="#DejaVuSans-2d" x="417.822266"/>
       <use xlink:href="#DejaVuSans-30" x="453.90625"/>
       <use xlink:href="#DejaVuSans-31" x="517.529297"/>
      </g>
     </g>
    </g>
    <g id="xtick_2">
     <g id="line2d_2">
      <g>
       <use xlink:href="#mac3cf4339d" x="182.722677" y="342.2" style="stroke: #000000; stroke-width: 0.8"/>
      </g>
     </g>
     <g id="text_2">
      <!-- 2014-07-02 -->
      <g transform="translate(153.664864 356.798437) scale(0.1 -0.1)">
       <use xlink:href="#DejaVuSans-32"/>
       <use xlink:href="#DejaVuSans-30" x="63.623047"/>
       <use xlink:href="#DejaVuSans-31" x="127.246094"/>
       <use xlink:href="#DejaVuSans-34" x="190.869141"/>
       <use xlink:href="#DejaVuSans-2d" x="254.492188"/>
       <use xlink:href="#DejaVuSans-30" x="290.576172"/>
       <use xlink:href="#DejaVuSans-37" x="354.199219"/>
       <use xlink:href="#DejaVuSans-2d" x="417.822266"/>
       <use xlink:href="#DejaVuSans-30" x="453.90625"/>
       <use xlink:href="#DejaVuSans-32" x="517.529297"/>
      </g>
     </g>
    </g>
    <g id="xtick_3">
     <g id="line2d_3">
      <g>
       <use xlink:href="#mac3cf4339d" x="304.960929" y="342.2" style="stroke: #000000; stroke-width: 0.8"/>
      </g>
     </g>
     <g id="text_3">
      <!-- 2014-07-03 -->
      <g transform="translate(275.903117 356.798437) scale(0.1 -0.1)">
       <defs>
        <path id="DejaVuSans-33" d="M 2597 2516 
Q 3050 2419 3304 2112 
Q 3559 1806 3559 1356 
Q 3559 666 3084 287 
Q 2609 -91 1734 -91 
Q 1441 -91 1130 -33 
Q 819 25 488 141 
L 488 750 
Q 750 597 1062 519 
Q 1375 441 1716 441 
Q 2309 441 2620 675 
Q 2931 909 2931 1356 
Q 2931 1769 2642 2001 
Q 2353 2234 1838 2234 
L 1294 2234 
L 1294 2753 
L 1863 2753 
Q 2328 2753 2575 2939 
Q 2822 3125 2822 3475 
Q 2822 3834 2567 4026 
Q 2313 4219 1838 4219 
Q 1578 4219 1281 4162 
Q 984 4106 628 3988 
L 628 4550 
Q 988 4650 1302 4700 
Q 1616 4750 1894 4750 
Q 2613 4750 3031 4423 
Q 3450 4097 3450 3541 
Q 3450 3153 3228 2886 
Q 3006 2619 2597 2516 
z
" transform="scale(0.015625)"/>
       </defs>
       <use xlink:href="#DejaVuSans-32"/>
       <use xlink:href="#DejaVuSans-30" x="63.623047"/>
       <use xlink:href="#DejaVuSans-31" x="127.246094"/>
       <use xlink:href="#DejaVuSans-34" x="190.869141"/>
       <use xlink:href="#DejaVuSans-2d" x="254.492188"/>
       <use xlink:href="#DejaVuSans-30" x="290.576172"/>
       <use xlink:href="#DejaVuSans-37" x="354.199219"/>
       <use xlink:href="#DejaVuSans-2d" x="417.822266"/>
       <use xlink:href="#DejaVuSans-30" x="453.90625"/>
       <use xlink:href="#DejaVuSans-33" x="517.529297"/>
      </g>
     </g>
    </g>
    <g id="xtick_4">
     <g id="line2d_4">
      <g>
       <use xlink:href="#mac3cf4339d" x="427.199182" y="342.2" style="stroke: #000000; stroke-width: 0.8"/>
      </g>
     </g>
     <g id="text_4">
      <!-- 2014-07-04 -->
      <g transform="translate(398.141369 356.798437) scale(0.1 -0.1)">
       <use xlink:href="#DejaVuSans-32"/>
       <use xlink:href="#DejaVuSans-30" x="63.623047"/>
       <use xlink:href="#DejaVuSans-31" x="127.246094"/>
       <use xlink:href="#DejaVuSans-34" x="190.869141"/>
       <use xlink:href="#DejaVuSans-2d" x="254.492188"/>
       <use xlink:href="#DejaVuSans-30" x="290.576172"/>
       <use xlink:href="#DejaVuSans-37" x="354.199219"/>
       <use xlink:href="#DejaVuSans-2d" x="417.822266"/>
       <use xlink:href="#DejaVuSans-30" x="453.90625"/>
       <use xlink:href="#DejaVuSans-34" x="517.529297"/>
      </g>
     </g>
    </g>
    <g id="xtick_5">
     <g id="line2d_5">
      <g>
       <use xlink:href="#mac3cf4339d" x="549.437434" y="342.2" style="stroke: #000000; stroke-width: 0.8"/>
      </g>
     </g>
     <g id="text_5">
      <!-- 2014-07-05 -->
      <g transform="translate(520.379622 356.798437) scale(0.1 -0.1)">
       <defs>
        <path id="DejaVuSans-35" d="M 691 4666 
L 3169 4666 
L 3169 4134 
L 1269 4134 
L 1269 2991 
Q 1406 3038 1543 3061 
Q 1681 3084 1819 3084 
Q 2600 3084 3056 2656 
Q 3513 2228 3513 1497 
Q 3513 744 3044 326 
Q 2575 -91 1722 -91 
Q 1428 -91 1123 -41 
Q 819 9 494 109 
L 494 744 
Q 775 591 1075 516 
Q 1375 441 1709 441 
Q 2250 441 2565 725 
Q 2881 1009 2881 1497 
Q 2881 1984 2565 2268 
Q 2250 2553 1709 2553 
Q 1456 2553 1204 2497 
Q 953 2441 691 2322 
L 691 4666 
z
" transform="scale(0.015625)"/>
       </defs>
       <use xlink:href="#DejaVuSans-32"/>
       <use xlink:href="#DejaVuSans-30" x="63.623047"/>
       <use xlink:href="#DejaVuSans-31" x="127.246094"/>
       <use xlink:href="#DejaVuSans-34" x="190.869141"/>
       <use xlink:href="#DejaVuSans-2d" x="254.492188"/>
       <use xlink:href="#DejaVuSans-30" x="290.576172"/>
       <use xlink:href="#DejaVuSans-37" x="354.199219"/>
       <use xlink:href="#DejaVuSans-2d" x="417.822266"/>
       <use xlink:href="#DejaVuSans-30" x="453.90625"/>
       <use xlink:href="#DejaVuSans-35" x="517.529297"/>
      </g>
     </g>
    </g>
    <g id="xtick_6">
     <g id="line2d_6">
      <g>
       <use xlink:href="#mac3cf4339d" x="671.675687" y="342.2" style="stroke: #000000; stroke-width: 0.8"/>
      </g>
     </g>
     <g id="text_6">
      <!-- 2014-07-06 -->
      <g transform="translate(642.617874 356.798437) scale(0.1 -0.1)">
       <defs>
        <path id="DejaVuSans-36" d="M 2113 2584 
Q 1688 2584 1439 2293 
Q 1191 2003 1191 1497 
Q 1191 994 1439 701 
Q 1688 409 2113 409 
Q 2538 409 2786 701 
Q 3034 994 3034 1497 
Q 3034 2003 2786 2293 
Q 2538 2584 2113 2584 
z
M 3366 4563 
L 3366 3988 
Q 3128 4100 2886 4159 
Q 2644 4219 2406 4219 
Q 1781 4219 1451 3797 
Q 1122 3375 1075 2522 
Q 1259 2794 1537 2939 
Q 1816 3084 2150 3084 
Q 2853 3084 3261 2657 
Q 3669 2231 3669 1497 
Q 3669 778 3244 343 
Q 2819 -91 2113 -91 
Q 1303 -91 875 529 
Q 447 1150 447 2328 
Q 447 3434 972 4092 
Q 1497 4750 2381 4750 
Q 2619 4750 2861 4703 
Q 3103 4656 3366 4563 
z
" transform="scale(0.015625)"/>
       </defs>
       <use xlink:href="#DejaVuSans-32"/>
       <use xlink:href="#DejaVuSans-30" x="63.623047"/>
       <use xlink:href="#DejaVuSans-31" x="127.246094"/>
       <use xlink:href="#DejaVuSans-34" x="190.869141"/>
       <use xlink:href="#DejaVuSans-2d" x="254.492188"/>
       <use xlink:href="#DejaVuSans-30" x="290.576172"/>
       <use xlink:href="#DejaVuSans-37" x="354.199219"/>
       <use xlink:href="#DejaVuSans-2d" x="417.822266"/>
       <use xlink:href="#DejaVuSans-30" x="453.90625"/>
       <use xlink:href="#DejaVuSans-36" x="517.529297"/>
      </g>
     </g>
    </g>
   </g>
   <g id="matplotlib.axis_2">
    <g id="ytick_1">
     <g id="line2d_7">
      <defs>
       <path id="mbfee34e18e" d="M 0 0 
L -3.5 0 
" style="stroke: #000000; stroke-width: 0.8"/>
      </defs>
      <g>
       <use xlink:href="#mbfee34e18e" x="30.103125" y="321.301271" style="stroke: #000000; stroke-width: 0.8"/>
      </g>
     </g>
     <g id="text_7">
      <!-- 0.0 -->
      <g transform="translate(7.2 325.10049) scale(0.1 -0.1)">
       <defs>
        <path id="DejaVuSans-2e" d="M 684 794 
L 1344 794 
L 1344 0 
L 684 0 
L 684 794 
z
" transform="scale(0.015625)"/>
       </defs>
       <use xlink:href="#DejaVuSans-30"/>
       <use xlink:href="#DejaVuSans-2e" x="63.623047"/>
       <use xlink:href="#DejaVuSans-30" x="95.410156"/>
      </g>
     </g>
    </g>
    <g id="ytick_2">
     <g id="line2d_8">
      <g>
       <use xlink:href="#mbfee34e18e" x="30.103125" y="287.180383" style="stroke: #000000; stroke-width: 0.8"/>
      </g>
     </g>
     <g id="text_8">
      <!-- 0.5 -->
      <g transform="translate(7.2 290.979602) scale(0.1 -0.1)">
       <use xlink:href="#DejaVuSans-30"/>
       <use xlink:href="#DejaVuSans-2e" x="63.623047"/>
       <use xlink:href="#DejaVuSans-35" x="95.410156"/>
      </g>
     </g>
    </g>
    <g id="ytick_3">
     <g id="line2d_9">
      <g>
       <use xlink:href="#mbfee34e18e" x="30.103125" y="253.059496" style="stroke: #000000; stroke-width: 0.8"/>
      </g>
     </g>
     <g id="text_9">
      <!-- 1.0 -->
      <g transform="translate(7.2 256.858715) scale(0.1 -0.1)">
       <use xlink:href="#DejaVuSans-31"/>
       <use xlink:href="#DejaVuSans-2e" x="63.623047"/>
       <use xlink:href="#DejaVuSans-30" x="95.410156"/>
      </g>
     </g>
    </g>
    <g id="ytick_4">
     <g id="line2d_10">
      <g>
       <use xlink:href="#mbfee34e18e" x="30.103125" y="218.938608" style="stroke: #000000; stroke-width: 0.8"/>
      </g>
     </g>
     <g id="text_10">
      <!-- 1.5 -->
      <g transform="translate(7.2 222.737827) scale(0.1 -0.1)">
       <use xlink:href="#DejaVuSans-31"/>
       <use xlink:href="#DejaVuSans-2e" x="63.623047"/>
       <use xlink:href="#DejaVuSans-35" x="95.410156"/>
      </g>
     </g>
    </g>
    <g id="ytick_5">
     <g id="line2d_11">
      <g>
       <use xlink:href="#mbfee34e18e" x="30.103125" y="184.817721" style="stroke: #000000; stroke-width: 0.8"/>
      </g>
     </g>
     <g id="text_11">
      <!-- 2.0 -->
      <g transform="translate(7.2 188.61694) scale(0.1 -0.1)">
       <use xlink:href="#DejaVuSans-32"/>
       <use xlink:href="#DejaVuSans-2e" x="63.623047"/>
       <use xlink:href="#DejaVuSans-30" x="95.410156"/>
      </g>
     </g>
    </g>
    <g id="ytick_6">
     <g id="line2d_12">
      <g>
       <use xlink:href="#mbfee34e18e" x="30.103125" y="150.696833" style="stroke: #000000; stroke-width: 0.8"/>
      </g>
     </g>
     <g id="text_12">
      <!-- 2.5 -->
      <g transform="translate(7.2 154.496052) scale(0.1 -0.1)">
       <use xlink:href="#DejaVuSans-32"/>
       <use xlink:href="#DejaVuSans-2e" x="63.623047"/>
       <use xlink:href="#DejaVuSans-35" x="95.410156"/>
      </g>
     </g>
    </g>
    <g id="ytick_7">
     <g id="line2d_13">
      <g>
       <use xlink:href="#mbfee34e18e" x="30.103125" y="116.575946" style="stroke: #000000; stroke-width: 0.8"/>
      </g>
     </g>
     <g id="text_13">
      <!-- 3.0 -->
      <g transform="translate(7.2 120.375165) scale(0.1 -0.1)">
       <use xlink:href="#DejaVuSans-33"/>
       <use xlink:href="#DejaVuSans-2e" x="63.623047"/>
       <use xlink:href="#DejaVuSans-30" x="95.410156"/>
      </g>
     </g>
    </g>
    <g id="ytick_8">
     <g id="line2d_14">
      <g>
       <use xlink:href="#mbfee34e18e" x="30.103125" y="82.455058" style="stroke: #000000; stroke-width: 0.8"/>
      </g>
     </g>
     <g id="text_14">
      <!-- 3.5 -->
      <g transform="translate(7.2 86.254277) scale(0.1 -0.1)">
       <use xlink:href="#DejaVuSans-33"/>
       <use xlink:href="#DejaVuSans-2e" x="63.623047"/>
       <use xlink:href="#DejaVuSans-35" x="95.410156"/>
      </g>
     </g>
    </g>
    <g id="ytick_9">
     <g id="line2d_15">
      <g>
       <use xlink:href="#mbfee34e18e" x="30.103125" y="48.334171" style="stroke: #000000; stroke-width: 0.8"/>
      </g>
     </g>
     <g id="text_15">
      <!-- 4.0 -->
      <g transform="translate(7.2 52.13339) scale(0.1 -0.1)">
       <use xlink:href="#DejaVuSans-34"/>
       <use xlink:href="#DejaVuSans-2e" x="63.623047"/>
       <use xlink:href="#DejaVuSans-30" x="95.410156"/>
      </g>
     </g>
    </g>
   </g>
   <g id="line2d_16">
    <path d="M 60.654199 321.301271 
L 79.669039 321.193862 
L 80.178365 320.985778 
L 80.602803 320.542904 
L 80.687691 320.396552 
L 80.772578 320.501383 
L 81.536568 318.608733 
L 82.470332 315.675721 
L 83.149433 314.259863 
L 84.337861 312.326875 
L 84.762299 311.296589 
L 85.271625 309.125075 
L 85.780951 305.889487 
L 87.733368 289.225886 
L 88.582245 280.999386 
L 88.75202 280.885886 
L 88.836908 280.922371 
L 89.006683 281.546326 
L 91.892864 267.511512 
L 92.40219 266.058319 
L 92.826628 265.315426 
L 93.166179 264.71257 
L 93.420842 264.088582 
L 93.590617 263.144636 
L 94.184831 257.274438 
L 95.712809 220.387478 
L 95.967472 213.71383 
L 96.307023 125.281543 
L 96.646574 115.415464 
L 96.816349 108.899807 
L 97.1559 106.675016 
L 97.240787 106.396472 
L 97.495451 101.224807 
L 97.665226 102.380993 
L 97.835001 102.8327 
L 97.919889 102.042022 
L 98.089664 99.888706 
L 98.25944 101.415883 
L 98.429215 102.004324 
L 98.514103 101.304807 
L 98.683878 99.202237 
L 98.853653 100.247055 
L 98.938541 100.166371 
L 99.023429 100.287437 
L 99.108316 99.480993 
L 99.278092 97.271269 
L 99.362979 97.90577 
L 99.447867 97.792644 
L 99.70253 96.609222 
L 99.872305 94.539745 
L 99.957193 95.02108 
L 100.296744 94.45353 
L 100.551407 92.115499 
L 100.636294 92.660271 
L 100.721182 92.553474 
L 100.80607 92.367735 
L 100.890958 92.602708 
L 100.975845 92.200625 
L 101.145621 91.125935 
L 101.315396 91.93059 
L 101.400284 91.826038 
L 101.485171 92.146022 
L 101.570059 92.018367 
L 101.654947 91.210914 
L 101.739834 91.262067 
L 101.90961 92.205522 
L 101.994497 92.176838 
L 102.164273 92.600397 
L 102.24916 91.985469 
L 102.334048 92.226494 
L 102.503823 93.22377 
L 102.588711 93.276941 
L 102.758486 93.94696 
L 102.843374 93.553712 
L 103.267812 95.718563 
L 103.3527 96.287106 
L 103.437588 96.197165 
L 103.522475 95.799052 
L 103.946914 98.526849 
L 104.031802 98.54486 
L 104.116689 97.739441 
L 104.541128 100.042296 
L 104.626015 99.698118 
L 104.710903 98.107861 
L 104.795791 98.305787 
L 104.965566 99.343495 
L 105.050454 98.972162 
L 105.135341 99.155607 
L 105.390004 94.28725 
L 105.474892 95.062585 
L 105.55978 94.694393 
L 105.729555 93.087687 
L 106.069106 80.910212 
L 106.238881 77.928991 
L 107.00287 59.017985 
L 107.257533 57.02 
L 107.427309 57.936837 
L 107.681972 61.297509 
L 108.021522 68.254249 
L 109.20995 95.08442 
L 110.058826 107.399085 
L 110.907703 115.088679 
L 111.586805 120.320836 
L 113.114783 129.964747 
L 115.067199 144.289551 
L 117.019616 158.090816 
L 117.783605 163.93141 
L 118.717369 170.037093 
L 119.651134 174.265206 
L 121.179112 178.654995 
L 121.773326 179.684762 
L 121.943101 178.728633 
L 122.112876 179.719971 
L 122.197764 179.539845 
L 122.367539 180.138487 
L 122.537315 179.786955 
L 122.70709 180.070445 
L 122.791978 179.911193 
L 122.876865 179.970661 
L 122.961753 180.034114 
L 123.131528 179.741805 
L 123.301304 179.831828 
L 123.471079 179.744425 
L 123.555967 179.77197 
L 123.725742 179.522078 
L 123.895518 179.629688 
L 124.065293 179.614882 
L 124.150181 179.667158 
L 124.319956 179.526161 
L 124.489731 179.707541 
L 124.659507 179.776461 
L 124.829282 179.892629 
L 124.999057 179.900406 
L 125.338608 180.247334 
L 125.508383 180.282461 
L 125.593271 180.286496 
L 125.847934 180.566667 
L 126.102597 180.695103 
L 126.187485 180.683438 
L 126.442148 180.937365 
L 126.611923 181.126343 
L 126.781699 181.008791 
L 126.951474 181.253054 
L 127.121249 181.326872 
L 127.206137 181.420636 
L 127.375912 181.265387 
L 127.545688 181.50677 
L 127.715463 181.557842 
L 127.885238 181.679364 
L 128.055014 181.590106 
L 128.224789 181.773877 
L 128.394564 181.897351 
L 128.479452 181.966856 
L 128.649227 181.832709 
L 128.819003 182.071473 
L 128.90389 182.056505 
L 129.073666 182.273646 
L 129.243441 182.124074 
L 129.413216 182.393019 
L 129.498104 182.376098 
L 129.667879 182.619776 
L 129.837655 182.463322 
L 130.00743 182.743201 
L 130.092318 182.719381 
L 130.262093 182.960618 
L 130.431869 182.796014 
L 130.601644 183.082449 
L 130.686532 183.048298 
L 130.941195 183.328062 
L 131.11097 183.266496 
L 131.280745 183.486842 
L 131.450521 183.655401 
L 131.535408 183.762133 
L 131.705184 183.603711 
L 131.874959 183.926086 
L 131.959847 183.914079 
L 132.129622 184.202304 
L 132.299397 183.995901 
L 132.469173 184.352347 
L 132.55406 184.317692 
L 132.723836 184.629134 
L 132.893611 184.383765 
L 133.063387 184.782691 
L 133.148274 184.735557 
L 133.31805 185.055264 
L 133.487825 184.773173 
L 133.6576 185.188126 
L 133.742488 185.118905 
L 133.997151 185.485487 
L 134.166926 185.314423 
L 134.336702 185.622953 
L 134.421589 185.622815 
L 134.591365 185.94397 
L 134.76114 185.659642 
L 134.930915 186.064084 
L 135.015803 186.015144 
L 135.185578 186.354237 
L 135.355354 186.020716 
L 135.525129 186.476499 
L 135.610017 186.404837 
L 135.779792 186.764317 
L 135.949567 186.366936 
L 136.119343 186.841616 
L 136.20423 186.752082 
L 136.374006 187.115149 
L 136.543781 186.631057 
L 136.713557 187.134739 
L 136.798444 187.030626 
L 137.053107 187.432417 
L 137.222883 187.055707 
L 137.392658 187.420068 
L 137.477546 187.357956 
L 137.647321 187.67716 
L 137.817096 187.156028 
L 137.986872 187.630969 
L 138.071759 187.520153 
L 138.241535 187.886108 
L 138.41131 187.275418 
L 138.581085 187.784713 
L 138.665973 187.630798 
L 138.835748 187.989359 
L 138.920636 187.825258 
L 139.005524 187.681561 
L 139.175299 188.05387 
L 139.260187 187.985592 
L 140.363727 189.314648 
L 140.703277 190.063081 
L 141.042828 190.972068 
L 141.637042 193.221109 
L 142.401031 197.36033 
L 142.995245 200.949019 
L 143.249908 204.225168 
L 143.334795 206.701218 
L 143.419683 213.390494 
L 143.589458 231.554376 
L 144.183672 232.079144 
L 144.60811 232.447662 
L 144.777886 232.630229 
L 145.202324 233.068163 
L 145.287212 232.159014 
L 145.372099 232.41138 
L 145.456987 232.199909 
L 145.541875 232.286344 
L 145.626762 232.195459 
L 145.71165 232.643481 
L 145.796538 232.489126 
L 145.881425 232.029097 
L 145.966313 232.813032 
L 146.136089 231.988267 
L 146.220976 232.763945 
L 146.305864 232.609419 
L 146.390752 231.813795 
L 146.475639 232.821199 
L 146.645415 231.899481 
L 146.730302 232.720813 
L 146.81519 232.17417 
L 146.900078 232.248085 
L 146.984965 232.465038 
L 147.069853 232.005318 
L 147.154741 232.123879 
L 147.239628 233.087085 
L 147.324516 232.004212 
L 147.494291 232.803497 
L 147.579179 232.209736 
L 147.748954 233.121781 
L 147.833842 232.366865 
L 147.91873 233.410315 
L 148.003617 233.251731 
L 148.088505 232.576285 
L 148.173393 233.834949 
L 148.343168 233.111246 
L 148.428056 234.271167 
L 148.512943 233.130722 
L 148.597831 234.14016 
L 148.682719 234.055783 
L 148.767606 233.648957 
L 148.852494 234.459469 
L 148.937382 234.258566 
L 149.022269 233.863495 
L 149.107157 234.98405 
L 149.192045 234.263333 
L 149.276933 234.293262 
L 149.36182 235.090603 
L 149.446708 234.169804 
L 149.531596 235.006275 
L 149.616483 234.862951 
L 149.701371 234.58819 
L 149.786259 235.434211 
L 149.871146 234.697915 
L 150.040922 235.201158 
L 150.125809 235.008178 
L 150.210697 235.82855 
L 150.295585 235.250578 
L 150.46536 235.780146 
L 150.550248 235.414573 
L 150.635135 235.88486 
L 150.720023 235.810726 
L 150.804911 235.917344 
L 150.889798 236.349258 
L 150.974686 235.886512 
L 151.059574 236.456706 
L 151.144461 236.243486 
L 151.314237 236.705687 
L 151.399124 236.31902 
L 151.484012 236.934128 
L 151.5689 236.677711 
L 151.738675 237.013713 
L 151.823563 236.805911 
L 151.90845 237.184549 
L 151.993338 236.741441 
L 152.078226 237.273636 
L 152.163113 237.155775 
L 152.248001 237.171549 
L 152.332889 237.388649 
L 152.417776 237.219627 
L 152.502664 237.494665 
L 152.587552 237.340579 
L 152.927103 237.67297 
L 153.096878 237.741255 
L 153.606204 238.03153 
L 155.643508 239.257426 
L 157.680812 240.436309 
L 159.633229 241.851467 
L 162.604298 244.270002 
L 163.877613 245.981593 
L 165.914917 248.577879 
L 168.461547 251.650212 
L 169.395312 252.425466 
L 170.583739 253.368473 
L 171.687279 254.472612 
L 172.790819 255.546154 
L 175.592112 257.80815 
L 177.374753 258.681261 
L 179.66672 259.471687 
L 180.685372 260.112425 
L 182.043575 260.970311 
L 183.062227 261.327578 
L 185.014644 261.738431 
L 188.0706 262.010479 
L 189.598578 262.396841 
L 191.805658 263.293991 
L 194.946502 264.593883 
L 199.105998 265.998185 
L 200.294425 266.782607 
L 201.567741 267.898903 
L 206.830776 272.685646 
L 208.188979 273.715788 
L 208.358755 273.701909 
L 208.613418 273.32075 
L 209.122744 272.133089 
L 209.97162 268.670729 
L 210.480946 265.543106 
L 211.754262 255.675786 
L 212.1787 252.483347 
L 212.942689 248.404285 
L 213.62179 246.360352 
L 214.131117 245.62653 
L 214.640443 245.344894 
L 215.149769 245.292806 
L 216.338196 245.090934 
L 217.526624 244.505308 
L 218.884826 243.62804 
L 219.47904 242.853176 
L 220.073254 241.60037 
L 220.58258 239.577939 
L 220.837243 237.203292 
L 221.176794 231.581954 
L 221.346569 230.641892 
L 221.771007 222.225691 
L 222.195446 214.708055 
L 222.450109 212.369821 
L 222.704772 211.945537 
L 222.959435 212.899877 
L 223.383873 215.947406 
L 224.317638 223.681597 
L 224.826964 226.556167 
L 225.251402 227.803872 
L 225.760728 228.677179 
L 226.270054 229.192925 
L 227.458482 230.208855 
L 228.646909 232.006994 
L 228.816684 232.3377 
L 228.901572 232.206295 
L 228.98646 232.384754 
L 229.156235 232.003106 
L 229.32601 232.898092 
L 229.410898 231.86302 
L 229.495786 232.32553 
L 229.580673 232.223175 
L 229.665561 232.413511 
L 229.750449 231.986689 
L 229.920224 232.378302 
L 230.089999 232.968484 
L 230.174887 232.583102 
L 230.259775 232.870904 
L 230.344663 234.137849 
L 230.42955 233.559431 
L 230.514438 233.801376 
L 230.599326 234.968626 
L 230.684213 234.869557 
L 230.769101 235.176444 
L 230.938876 236.159654 
L 231.53309 237.897009 
L 232.381967 240.030622 
L 235.098372 247.348558 
L 236.201912 249.512759 
L 237.645003 251.755943 
L 238.663655 252.943417 
L 239.427644 253.555791 
L 240.361408 254.025635 
L 241.04051 254.136711 
L 241.804499 254.066412 
L 243.926691 253.686009 
L 244.69068 253.930252 
L 246.473321 254.844266 
L 247.322198 255.450323 
L 249.104839 257.030683 
L 250.123491 257.955887 
L 253.773661 261.184413 
L 256.065628 263.488647 
L 257.254056 264.286663 
L 259.630911 265.536211 
L 260.479787 265.804709 
L 262.856642 266.532235 
L 267.185914 268.12531 
L 268.374341 268.255849 
L 270.072095 268.322028 
L 271.005859 268.071488 
L 271.769848 267.96217 
L 272.7885 268.074205 
L 275.674681 268.737257 
L 277.457322 268.547031 
L 279.239964 268.761089 
L 280.003953 268.775646 
L 280.937717 268.803021 
L 281.871481 268.825901 
L 284.333224 268.639775 
L 285.182101 268.867097 
L 286.200753 269.383266 
L 287.474068 270.308587 
L 292.14289 273.92058 
L 293.24643 274.585506 
L 294.859296 275.479362 
L 296.981488 276.859596 
L 299.782781 278.749466 
L 301.735198 280.019319 
L 303.432951 281.125129 
L 304.366715 281.502262 
L 305.215592 281.599623 
L 306.064469 281.458256 
L 306.74357 281.121611 
L 307.422672 280.571702 
L 308.356436 279.508145 
L 309.120425 278.402408 
L 309.884414 276.862012 
L 310.733291 274.771344 
L 313.534584 266.050464 
L 314.128798 264.357694 
L 315.062563 261.599699 
L 316.335878 258.107687 
L 317.099867 256.216836 
L 317.863856 253.370043 
L 319.222059 250.201188 
L 319.561609 250.10966 
L 319.90116 250.286899 
L 320.495374 250.99176 
L 322.872229 254.18673 
L 323.975769 255.144087 
L 327.965489 258.513516 
L 329.578355 260.569167 
L 336.878695 270.948206 
L 339.510213 274.180568 
L 342.311506 277.087263 
L 344.773249 279.313717 
L 346.301227 280.778348 
L 349.187408 283.478592 
L 350.290948 284.363645 
L 350.460723 284.216059 
L 351.054937 283.09114 
L 351.564263 283.004123 
L 351.903814 283.046918 
L 353.007353 284.075726 
L 354.95977 285.748825 
L 357.081962 287.330386 
L 359.798368 289.134559 
L 362.769436 290.90453 
L 365.316066 292.204735 
L 367.862697 293.126839 
L 369.900001 293.70442 
L 375.332812 294.630628 
L 383.142478 295.668323 
L 392.140572 296.620541 
L 407.505241 297.941648 
L 432.716881 299.791136 
L 447.402449 300.634338 
L 469.133693 301.652959 
L 497.061739 302.756243 
L 515.906803 303.571272 
L 539.250913 304.474847 
L 559.199517 305.037682 
L 582.288965 305.475641 
L 610.980999 305.795363 
L 657.838996 306.074665 
L 671.675687 306.128215 
L 671.675687 306.128215 
" clip-path="url(#p638a0cb447)" style="fill: none; stroke: #1f77b4; stroke-width: 1.5; stroke-linecap: square"/>
   </g>
   <g id="line2d_17">
    <path d="M 60.654199 321.301271 
L 62.267065 321.40776 
L 63.625268 321.691427 
L 65.492797 322.239746 
L 69.906956 323.738372 
L 71.774485 323.991841 
L 74.236227 324.301581 
L 75.424655 324.77089 
L 77.037521 325.768166 
L 78.735274 327.08104 
L 80.263252 328.19234 
L 81.112129 328.559234 
L 81.45168 328.587661 
L 82.724995 328.026116 
L 84.422748 325.89521 
L 84.932075 325.020047 
L 85.186738 324.654465 
L 86.120502 323.111244 
L 86.375165 322.679081 
L 87.308929 320.911926 
L 87.64848 320.286549 
L 88.072919 319.684456 
L 88.921795 318.845653 
L 89.176458 318.726006 
L 89.261346 318.765889 
L 89.346234 318.665471 
L 90.364886 314.497527 
L 90.789324 313.777431 
L 91.128875 313.575447 
L 91.553313 313.621902 
L 92.232415 313.998947 
L 92.826628 314.391693 
L 92.996404 314.72916 
L 93.335954 312.828024 
L 93.590617 311.008866 
L 94.354607 291.92653 
L 95.458146 244.802705 
L 96.391911 197.272308 
L 97.495451 152.923508 
L 98.174552 133.24312 
L 98.853653 118.732823 
L 99.617642 108.170341 
L 100.211856 102.993337 
L 100.381631 102.409149 
L 100.721182 100.978931 
L 101.230508 100.369311 
L 101.400284 100.471444 
L 101.654947 100.793735 
L 101.824722 100.998404 
L 102.164273 102.045481 
L 102.503823 103.094929 
L 103.3527 107.372122 
L 104.116689 111.13182 
L 104.795791 113.083462 
L 104.965566 113.178824 
L 105.135341 113.543635 
L 105.220229 113.466945 
L 105.814443 109.693355 
L 106.578432 93.567695 
L 106.917982 90.019733 
L 107.257533 88.64065 
L 107.427309 88.576442 
L 107.597084 88.927948 
L 107.936635 90.266026 
L 108.445961 93.733764 
L 109.294837 101.239328 
L 111.841468 124.529398 
L 113.369446 136.113771 
L 114.982312 146.608553 
L 116.680065 156.247595 
L 118.632482 165.975316 
L 120.669786 174.910305 
L 123.725742 187.084095 
L 125.508383 193.279868 
L 127.545688 199.574948 
L 129.922543 206.187196 
L 132.384285 212.429664 
L 134.930915 218.338383 
L 137.30777 223.363839 
L 139.684625 227.924691 
L 141.212603 230.544121 
L 142.570806 232.419972 
L 144.098784 234.130441 
L 146.136089 236.053559 
L 148.088505 237.90135 
L 152.163113 243.081883 
L 160.906544 252.850825 
L 162.51941 254.431826 
L 165.405591 257.008404 
L 166.848681 258.190011 
L 167.952221 259.192096 
L 171.347728 262.18443 
L 173.894358 264.090185 
L 177.204978 266.529154 
L 180.006271 268.524555 
L 181.958688 269.69429 
L 191.041669 276.027967 
L 195.116277 278.269453 
L 198.936223 280.448298 
L 200.039762 280.805291 
L 201.397965 280.991671 
L 203.435269 281.011708 
L 208.188979 280.988348 
L 208.52853 281.024137 
L 209.122744 279.30128 
L 210.056508 272.369543 
L 212.772914 251.554249 
L 213.28224 248.922081 
L 214.555555 245.190269 
L 215.319544 244.044398 
L 215.659095 243.756556 
L 216.592859 243.613825 
L 217.017297 243.784569 
L 217.866174 244.344817 
L 218.799939 244.973323 
L 218.969714 244.914811 
L 219.394152 244.626851 
L 219.47904 244.639827 
L 219.563928 244.531565 
L 220.158141 242.351321 
L 220.752355 234.861537 
L 221.68612 203.689196 
L 222.110558 196.324962 
L 222.534996 192.501128 
L 222.874547 191.112477 
L 223.12921 190.77378 
L 223.383873 190.801649 
L 223.638536 191.125527 
L 224.147862 192.29202 
L 225.166514 195.470412 
L 226.864268 200.661766 
L 228.307358 204.291892 
L 230.005112 207.944731 
L 232.127304 211.96168 
L 236.032137 219.144621 
L 239.597419 225.759256 
L 243.926691 233.403782 
L 248.001299 239.563975 
L 251.142143 243.834653 
L 254.367875 247.730543 
L 258.612258 252.269291 
L 262.771755 256.565228 
L 266.676588 260.033297 
L 272.194287 264.862568 
L 283.993673 273.587594 
L 285.097213 274.174322 
L 286.285641 274.535143 
L 287.813619 274.745434 
L 290.530024 274.854656 
L 292.482441 274.985945 
L 294.095307 275.574426 
L 295.538397 275.827067 
L 302.838737 276.703173 
L 304.112052 277.191321 
L 305.640031 278.074165 
L 308.780875 279.923869 
L 309.629751 279.641853 
L 310.139077 279.240464 
L 311.836831 277.155806 
L 312.685708 275.704792 
L 315.826552 270.616223 
L 316.505653 270.175856 
L 316.590541 270.218895 
L 316.675428 270.1183 
L 317.609193 266.261491 
L 318.033631 265.497208 
L 318.373182 265.282625 
L 318.712733 265.321118 
L 319.222059 265.633261 
L 322.10824 267.755543 
L 324.485095 268.932805 
L 328.559703 270.552256 
L 330.342344 270.83634 
L 335.690268 271.320288 
L 346.725666 271.852091 
L 367.098708 272.631897 
L 390.867257 273.313315 
L 419.21974 273.896623 
L 453.853912 274.378573 
L 497.910615 274.758925 
L 557.501764 275.037033 
L 647.567587 275.214028 
L 671.675687 275.237097 
L 671.675687 275.237097 
" clip-path="url(#p638a0cb447)" style="fill: none; stroke: #ff7f0e; stroke-width: 1.5; stroke-linecap: square"/>
   </g>
   <g id="patch_3">
    <path d="M 30.103125 342.2 
L 30.103125 43.44 
" style="fill: none; stroke: #000000; stroke-width: 0.8; stroke-linejoin: miter; stroke-linecap: square"/>
   </g>
   <g id="patch_4">
    <path d="M 702.226761 342.2 
L 702.226761 43.44 
" style="fill: none; stroke: #000000; stroke-width: 0.8; stroke-linejoin: miter; stroke-linecap: square"/>
   </g>
   <g id="patch_5">
    <path d="M 30.103125 342.2 
L 702.226761 342.2 
" style="fill: none; stroke: #000000; stroke-width: 0.8; stroke-linejoin: miter; stroke-linecap: square"/>
   </g>
   <g id="patch_6">
    <path d="M 30.103125 43.44 
L 702.226761 43.44 
" style="fill: none; stroke: #000000; stroke-width: 0.8; stroke-linejoin: miter; stroke-linecap: square"/>
   </g>
   <g id="text_16">
    <!-- 1 transformation(s) -->
    <g transform="translate(308.050256 37.44) scale(0.12 -0.12)">
     <defs>
      <path id="DejaVuSans-20" transform="scale(0.015625)"/>
      <path id="DejaVuSans-74" d="M 1172 4494 
L 1172 3500 
L 2356 3500 
L 2356 3053 
L 1172 3053 
L 1172 1153 
Q 1172 725 1289 603 
Q 1406 481 1766 481 
L 2356 481 
L 2356 0 
L 1766 0 
Q 1100 0 847 248 
Q 594 497 594 1153 
L 594 3053 
L 172 3053 
L 172 3500 
L 594 3500 
L 594 4494 
L 1172 4494 
z
" transform="scale(0.015625)"/>
      <path id="DejaVuSans-72" d="M 2631 2963 
Q 2534 3019 2420 3045 
Q 2306 3072 2169 3072 
Q 1681 3072 1420 2755 
Q 1159 2438 1159 1844 
L 1159 0 
L 581 0 
L 581 3500 
L 1159 3500 
L 1159 2956 
Q 1341 3275 1631 3429 
Q 1922 3584 2338 3584 
Q 2397 3584 2469 3576 
Q 2541 3569 2628 3553 
L 2631 2963 
z
" transform="scale(0.015625)"/>
      <path id="DejaVuSans-61" d="M 2194 1759 
Q 1497 1759 1228 1600 
Q 959 1441 959 1056 
Q 959 750 1161 570 
Q 1363 391 1709 391 
Q 2188 391 2477 730 
Q 2766 1069 2766 1631 
L 2766 1759 
L 2194 1759 
z
M 3341 1997 
L 3341 0 
L 2766 0 
L 2766 531 
Q 2569 213 2275 61 
Q 1981 -91 1556 -91 
Q 1019 -91 701 211 
Q 384 513 384 1019 
Q 384 1609 779 1909 
Q 1175 2209 1959 2209 
L 2766 2209 
L 2766 2266 
Q 2766 2663 2505 2880 
Q 2244 3097 1772 3097 
Q 1472 3097 1187 3025 
Q 903 2953 641 2809 
L 641 3341 
Q 956 3463 1253 3523 
Q 1550 3584 1831 3584 
Q 2591 3584 2966 3190 
Q 3341 2797 3341 1997 
z
" transform="scale(0.015625)"/>
      <path id="DejaVuSans-6e" d="M 3513 2113 
L 3513 0 
L 2938 0 
L 2938 2094 
Q 2938 2591 2744 2837 
Q 2550 3084 2163 3084 
Q 1697 3084 1428 2787 
Q 1159 2491 1159 1978 
L 1159 0 
L 581 0 
L 581 3500 
L 1159 3500 
L 1159 2956 
Q 1366 3272 1645 3428 
Q 1925 3584 2291 3584 
Q 2894 3584 3203 3211 
Q 3513 2838 3513 2113 
z
" transform="scale(0.015625)"/>
      <path id="DejaVuSans-73" d="M 2834 3397 
L 2834 2853 
Q 2591 2978 2328 3040 
Q 2066 3103 1784 3103 
Q 1356 3103 1142 2972 
Q 928 2841 928 2578 
Q 928 2378 1081 2264 
Q 1234 2150 1697 2047 
L 1894 2003 
Q 2506 1872 2764 1633 
Q 3022 1394 3022 966 
Q 3022 478 2636 193 
Q 2250 -91 1575 -91 
Q 1294 -91 989 -36 
Q 684 19 347 128 
L 347 722 
Q 666 556 975 473 
Q 1284 391 1588 391 
Q 1994 391 2212 530 
Q 2431 669 2431 922 
Q 2431 1156 2273 1281 
Q 2116 1406 1581 1522 
L 1381 1569 
Q 847 1681 609 1914 
Q 372 2147 372 2553 
Q 372 3047 722 3315 
Q 1072 3584 1716 3584 
Q 2034 3584 2315 3537 
Q 2597 3491 2834 3397 
z
" transform="scale(0.015625)"/>
      <path id="DejaVuSans-66" d="M 2375 4863 
L 2375 4384 
L 1825 4384 
Q 1516 4384 1395 4259 
Q 1275 4134 1275 3809 
L 1275 3500 
L 2222 3500 
L 2222 3053 
L 1275 3053 
L 1275 0 
L 697 0 
L 697 3053 
L 147 3053 
L 147 3500 
L 697 3500 
L 697 3744 
Q 697 4328 969 4595 
Q 1241 4863 1831 4863 
L 2375 4863 
z
" transform="scale(0.015625)"/>
      <path id="DejaVuSans-6f" d="M 1959 3097 
Q 1497 3097 1228 2736 
Q 959 2375 959 1747 
Q 959 1119 1226 758 
Q 1494 397 1959 397 
Q 2419 397 2687 759 
Q 2956 1122 2956 1747 
Q 2956 2369 2687 2733 
Q 2419 3097 1959 3097 
z
M 1959 3584 
Q 2709 3584 3137 3096 
Q 3566 2609 3566 1747 
Q 3566 888 3137 398 
Q 2709 -91 1959 -91 
Q 1206 -91 779 398 
Q 353 888 353 1747 
Q 353 2609 779 3096 
Q 1206 3584 1959 3584 
z
" transform="scale(0.015625)"/>
      <path id="DejaVuSans-6d" d="M 3328 2828 
Q 3544 3216 3844 3400 
Q 4144 3584 4550 3584 
Q 5097 3584 5394 3201 
Q 5691 2819 5691 2113 
L 5691 0 
L 5113 0 
L 5113 2094 
Q 5113 2597 4934 2840 
Q 4756 3084 4391 3084 
Q 3944 3084 3684 2787 
Q 3425 2491 3425 1978 
L 3425 0 
L 2847 0 
L 2847 2094 
Q 2847 2600 2669 2842 
Q 2491 3084 2119 3084 
Q 1678 3084 1418 2786 
Q 1159 2488 1159 1978 
L 1159 0 
L 581 0 
L 581 3500 
L 1159 3500 
L 1159 2956 
Q 1356 3278 1631 3431 
Q 1906 3584 2284 3584 
Q 2666 3584 2933 3390 
Q 3200 3197 3328 2828 
z
" transform="scale(0.015625)"/>
      <path id="DejaVuSans-69" d="M 603 3500 
L 1178 3500 
L 1178 0 
L 603 0 
L 603 3500 
z
M 603 4863 
L 1178 4863 
L 1178 4134 
L 603 4134 
L 603 4863 
z
" transform="scale(0.015625)"/>
      <path id="DejaVuSans-28" d="M 1984 4856 
Q 1566 4138 1362 3434 
Q 1159 2731 1159 2009 
Q 1159 1288 1364 580 
Q 1569 -128 1984 -844 
L 1484 -844 
Q 1016 -109 783 600 
Q 550 1309 550 2009 
Q 550 2706 781 3412 
Q 1013 4119 1484 4856 
L 1984 4856 
z
" transform="scale(0.015625)"/>
      <path id="DejaVuSans-29" d="M 513 4856 
L 1013 4856 
Q 1481 4119 1714 3412 
Q 1947 2706 1947 2009 
Q 1947 1309 1714 600 
Q 1481 -109 1013 -844 
L 513 -844 
Q 928 -128 1133 580 
Q 1338 1288 1338 2009 
Q 1338 2731 1133 3434 
Q 928 4138 513 4856 
z
" transform="scale(0.015625)"/>
     </defs>
     <use xlink:href="#DejaVuSans-31"/>
     <use xlink:href="#DejaVuSans-20" x="63.623047"/>
     <use xlink:href="#DejaVuSans-74" x="95.410156"/>
     <use xlink:href="#DejaVuSans-72" x="134.619141"/>
     <use xlink:href="#DejaVuSans-61" x="175.732422"/>
     <use xlink:href="#DejaVuSans-6e" x="237.011719"/>
     <use xlink:href="#DejaVuSans-73" x="300.390625"/>
     <use xlink:href="#DejaVuSans-66" x="352.490234"/>
     <use xlink:href="#DejaVuSans-6f" x="387.695312"/>
     <use xlink:href="#DejaVuSans-72" x="448.876953"/>
     <use xlink:href="#DejaVuSans-6d" x="488.240234"/>
     <use xlink:href="#DejaVuSans-61" x="585.652344"/>
     <use xlink:href="#DejaVuSans-74" x="646.931641"/>
     <use xlink:href="#DejaVuSans-69" x="686.140625"/>
     <use xlink:href="#DejaVuSans-6f" x="713.923828"/>
     <use xlink:href="#DejaVuSans-6e" x="775.105469"/>
     <use xlink:href="#DejaVuSans-28" x="838.484375"/>
     <use xlink:href="#DejaVuSans-73" x="877.498047"/>
     <use xlink:href="#DejaVuSans-29" x="929.597656"/>
    </g>
   </g>
   <g id="legend_1">
    <g id="patch_7">
     <path d="M 613.833011 80.79625 
L 695.226761 80.79625 
Q 697.226761 80.79625 697.226761 78.79625 
L 697.226761 50.44 
Q 697.226761 48.44 695.226761 48.44 
L 613.833011 48.44 
Q 611.833011 48.44 611.833011 50.44 
L 611.833011 78.79625 
Q 611.833011 80.79625 613.833011 80.79625 
z
" style="fill: #ffffff; opacity: 0.8; stroke: #cccccc; stroke-linejoin: miter"/>
    </g>
    <g id="line2d_18">
     <path d="M 615.833011 56.538437 
L 625.833011 56.538437 
L 635.833011 56.538437 
" style="fill: none; stroke: #1f77b4; stroke-width: 1.5; stroke-linecap: square"/>
    </g>
    <g id="text_17">
     <!-- observed -->
     <g transform="translate(643.833011 60.038437) scale(0.1 -0.1)">
      <defs>
       <path id="DejaVuSans-62" d="M 3116 1747 
Q 3116 2381 2855 2742 
Q 2594 3103 2138 3103 
Q 1681 3103 1420 2742 
Q 1159 2381 1159 1747 
Q 1159 1113 1420 752 
Q 1681 391 2138 391 
Q 2594 391 2855 752 
Q 3116 1113 3116 1747 
z
M 1159 2969 
Q 1341 3281 1617 3432 
Q 1894 3584 2278 3584 
Q 2916 3584 3314 3078 
Q 3713 2572 3713 1747 
Q 3713 922 3314 415 
Q 2916 -91 2278 -91 
Q 1894 -91 1617 61 
Q 1341 213 1159 525 
L 1159 0 
L 581 0 
L 581 4863 
L 1159 4863 
L 1159 2969 
z
" transform="scale(0.015625)"/>
       <path id="DejaVuSans-65" d="M 3597 1894 
L 3597 1613 
L 953 1613 
Q 991 1019 1311 708 
Q 1631 397 2203 397 
Q 2534 397 2845 478 
Q 3156 559 3463 722 
L 3463 178 
Q 3153 47 2828 -22 
Q 2503 -91 2169 -91 
Q 1331 -91 842 396 
Q 353 884 353 1716 
Q 353 2575 817 3079 
Q 1281 3584 2069 3584 
Q 2775 3584 3186 3129 
Q 3597 2675 3597 1894 
z
M 3022 2063 
Q 3016 2534 2758 2815 
Q 2500 3097 2075 3097 
Q 1594 3097 1305 2825 
Q 1016 2553 972 2059 
L 3022 2063 
z
" transform="scale(0.015625)"/>
       <path id="DejaVuSans-76" d="M 191 3500 
L 800 3500 
L 1894 563 
L 2988 3500 
L 3597 3500 
L 2284 0 
L 1503 0 
L 191 3500 
z
" transform="scale(0.015625)"/>
       <path id="DejaVuSans-64" d="M 2906 2969 
L 2906 4863 
L 3481 4863 
L 3481 0 
L 2906 0 
L 2906 525 
Q 2725 213 2448 61 
Q 2172 -91 1784 -91 
Q 1150 -91 751 415 
Q 353 922 353 1747 
Q 353 2572 751 3078 
Q 1150 3584 1784 3584 
Q 2172 3584 2448 3432 
Q 2725 3281 2906 2969 
z
M 947 1747 
Q 947 1113 1208 752 
Q 1469 391 1925 391 
Q 2381 391 2643 752 
Q 2906 1113 2906 1747 
Q 2906 2381 2643 2742 
Q 2381 3103 1925 3103 
Q 1469 3103 1208 2742 
Q 947 2381 947 1747 
z
" transform="scale(0.015625)"/>
      </defs>
      <use xlink:href="#DejaVuSans-6f"/>
      <use xlink:href="#DejaVuSans-62" x="61.181641"/>
      <use xlink:href="#DejaVuSans-73" x="124.658203"/>
      <use xlink:href="#DejaVuSans-65" x="176.757812"/>
      <use xlink:href="#DejaVuSans-72" x="238.28125"/>
      <use xlink:href="#DejaVuSans-76" x="279.394531"/>
      <use xlink:href="#DejaVuSans-65" x="338.574219"/>
      <use xlink:href="#DejaVuSans-64" x="400.097656"/>
     </g>
    </g>
    <g id="line2d_19">
     <path d="M 615.833011 71.216563 
L 625.833011 71.216563 
L 635.833011 71.216563 
" style="fill: none; stroke: #ff7f0e; stroke-width: 1.5; stroke-linecap: square"/>
    </g>
    <g id="text_18">
     <!-- simulated -->
     <g transform="translate(643.833011 74.716563) scale(0.1 -0.1)">
      <defs>
       <path id="DejaVuSans-75" d="M 544 1381 
L 544 3500 
L 1119 3500 
L 1119 1403 
Q 1119 906 1312 657 
Q 1506 409 1894 409 
Q 2359 409 2629 706 
Q 2900 1003 2900 1516 
L 2900 3500 
L 3475 3500 
L 3475 0 
L 2900 0 
L 2900 538 
Q 2691 219 2414 64 
Q 2138 -91 1772 -91 
Q 1169 -91 856 284 
Q 544 659 544 1381 
z
M 1991 3584 
L 1991 3584 
z
" transform="scale(0.015625)"/>
       <path id="DejaVuSans-6c" d="M 603 4863 
L 1178 4863 
L 1178 0 
L 603 0 
L 603 4863 
z
" transform="scale(0.015625)"/>
      </defs>
      <use xlink:href="#DejaVuSans-73"/>
      <use xlink:href="#DejaVuSans-69" x="52.099609"/>
      <use xlink:href="#DejaVuSans-6d" x="79.882812"/>
      <use xlink:href="#DejaVuSans-75" x="177.294922"/>
      <use xlink:href="#DejaVuSans-6c" x="240.673828"/>
      <use xlink:href="#DejaVuSans-61" x="268.457031"/>
      <use xlink:href="#DejaVuSans-74" x="329.736328"/>
      <use xlink:href="#DejaVuSans-65" x="368.945312"/>
      <use xlink:href="#DejaVuSans-64" x="430.46875"/>
     </g>
    </g>
   </g>
  </g>
  <g id="axes_2">
   <g id="patch_8">
    <path d="M 30.103125 684.92 
L 702.226761 684.92 
L 702.226761 386.16 
L 30.103125 386.16 
z
" style="fill: #ffffff"/>
   </g>
   <g id="matplotlib.axis_3">
    <g id="xtick_7">
     <g id="line2d_20">
      <g>
       <use xlink:href="#mac3cf4339d" x="60.484424" y="684.92" style="stroke: #000000; stroke-width: 0.8"/>
      </g>
     </g>
     <g id="text_19">
      <!-- 2014-07-01 -->
      <g transform="translate(31.426612 699.518437) scale(0.1 -0.1)">
       <use xlink:href="#DejaVuSans-32"/>
       <use xlink:href="#DejaVuSans-30" x="63.623047"/>
       <use xlink:href="#DejaVuSans-31" x="127.246094"/>
       <use xlink:href="#DejaVuSans-34" x="190.869141"/>
       <use xlink:href="#DejaVuSans-2d" x="254.492188"/>
       <use xlink:href="#DejaVuSans-30" x="290.576172"/>
       <use xlink:href="#DejaVuSans-37" x="354.199219"/>
       <use xlink:href="#DejaVuSans-2d" x="417.822266"/>
       <use xlink:href="#DejaVuSans-30" x="453.90625"/>
       <use xlink:href="#DejaVuSans-31" x="517.529297"/>
      </g>
     </g>
    </g>
    <g id="xtick_8">
     <g id="line2d_21">
      <g>
       <use xlink:href="#mac3cf4339d" x="182.722677" y="684.92" style="stroke: #000000; stroke-width: 0.8"/>
      </g>
     </g>
     <g id="text_20">
      <!-- 2014-07-02 -->
      <g transform="translate(153.664864 699.518437) scale(0.1 -0.1)">
       <use xlink:href="#DejaVuSans-32"/>
       <use xlink:href="#DejaVuSans-30" x="63.623047"/>
       <use xlink:href="#DejaVuSans-31" x="127.246094"/>
       <use xlink:href="#DejaVuSans-34" x="190.869141"/>
       <use xlink:href="#DejaVuSans-2d" x="254.492188"/>
       <use xlink:href="#DejaVuSans-30" x="290.576172"/>
       <use xlink:href="#DejaVuSans-37" x="354.199219"/>
       <use xlink:href="#DejaVuSans-2d" x="417.822266"/>
       <use xlink:href="#DejaVuSans-30" x="453.90625"/>
       <use xlink:href="#DejaVuSans-32" x="517.529297"/>
      </g>
     </g>
    </g>
    <g id="xtick_9">
     <g id="line2d_22">
      <g>
       <use xlink:href="#mac3cf4339d" x="304.960929" y="684.92" style="stroke: #000000; stroke-width: 0.8"/>
      </g>
     </g>
     <g id="text_21">
      <!-- 2014-07-03 -->
      <g transform="translate(275.903117 699.518437) scale(0.1 -0.1)">
       <use xlink:href="#DejaVuSans-32"/>
       <use xlink:href="#DejaVuSans-30" x="63.623047"/>
       <use xlink:href="#DejaVuSans-31" x="127.246094"/>
       <use xlink:href="#DejaVuSans-34" x="190.869141"/>
       <use xlink:href="#DejaVuSans-2d" x="254.492188"/>
       <use xlink:href="#DejaVuSans-30" x="290.576172"/>
       <use xlink:href="#DejaVuSans-37" x="354.199219"/>
       <use xlink:href="#DejaVuSans-2d" x="417.822266"/>
       <use xlink:href="#DejaVuSans-30" x="453.90625"/>
       <use xlink:href="#DejaVuSans-33" x="517.529297"/>
      </g>
     </g>
    </g>
    <g id="xtick_10">
     <g id="line2d_23">
      <g>
       <use xlink:href="#mac3cf4339d" x="427.199182" y="684.92" style="stroke: #000000; stroke-width: 0.8"/>
      </g>
     </g>
     <g id="text_22">
      <!-- 2014-07-04 -->
      <g transform="translate(398.141369 699.518437) scale(0.1 -0.1)">
       <use xlink:href="#DejaVuSans-32"/>
       <use xlink:href="#DejaVuSans-30" x="63.623047"/>
       <use xlink:href="#DejaVuSans-31" x="127.246094"/>
       <use xlink:href="#DejaVuSans-34" x="190.869141"/>
       <use xlink:href="#DejaVuSans-2d" x="254.492188"/>
       <use xlink:href="#DejaVuSans-30" x="290.576172"/>
       <use xlink:href="#DejaVuSans-37" x="354.199219"/>
       <use xlink:href="#DejaVuSans-2d" x="417.822266"/>
       <use xlink:href="#DejaVuSans-30" x="453.90625"/>
       <use xlink:href="#DejaVuSans-34" x="517.529297"/>
      </g>
     </g>
    </g>
    <g id="xtick_11">
     <g id="line2d_24">
      <g>
       <use xlink:href="#mac3cf4339d" x="549.437434" y="684.92" style="stroke: #000000; stroke-width: 0.8"/>
      </g>
     </g>
     <g id="text_23">
      <!-- 2014-07-05 -->
      <g transform="translate(520.379622 699.518437) scale(0.1 -0.1)">
       <use xlink:href="#DejaVuSans-32"/>
       <use xlink:href="#DejaVuSans-30" x="63.623047"/>
       <use xlink:href="#DejaVuSans-31" x="127.246094"/>
       <use xlink:href="#DejaVuSans-34" x="190.869141"/>
       <use xlink:href="#DejaVuSans-2d" x="254.492188"/>
       <use xlink:href="#DejaVuSans-30" x="290.576172"/>
       <use xlink:href="#DejaVuSans-37" x="354.199219"/>
       <use xlink:href="#DejaVuSans-2d" x="417.822266"/>
       <use xlink:href="#DejaVuSans-30" x="453.90625"/>
       <use xlink:href="#DejaVuSans-35" x="517.529297"/>
      </g>
     </g>
    </g>
    <g id="xtick_12">
     <g id="line2d_25">
      <g>
       <use xlink:href="#mac3cf4339d" x="671.675687" y="684.92" style="stroke: #000000; stroke-width: 0.8"/>
      </g>
     </g>
     <g id="text_24">
      <!-- 2014-07-06 -->
      <g transform="translate(642.617874 699.518437) scale(0.1 -0.1)">
       <use xlink:href="#DejaVuSans-32"/>
       <use xlink:href="#DejaVuSans-30" x="63.623047"/>
       <use xlink:href="#DejaVuSans-31" x="127.246094"/>
       <use xlink:href="#DejaVuSans-34" x="190.869141"/>
       <use xlink:href="#DejaVuSans-2d" x="254.492188"/>
       <use xlink:href="#DejaVuSans-30" x="290.576172"/>
       <use xlink:href="#DejaVuSans-37" x="354.199219"/>
       <use xlink:href="#DejaVuSans-2d" x="417.822266"/>
       <use xlink:href="#DejaVuSans-30" x="453.90625"/>
       <use xlink:href="#DejaVuSans-36" x="517.529297"/>
      </g>
     </g>
    </g>
   </g>
   <g id="matplotlib.axis_4">
    <g id="ytick_10">
     <g id="line2d_26">
      <g>
       <use xlink:href="#mbfee34e18e" x="30.103125" y="653.067213" style="stroke: #000000; stroke-width: 0.8"/>
      </g>
     </g>
     <g id="text_25">
      <!-- 0 -->
      <g transform="translate(16.740625 656.866432) scale(0.1 -0.1)">
       <use xlink:href="#DejaVuSans-30"/>
      </g>
     </g>
    </g>
    <g id="ytick_11">
     <g id="line2d_27">
      <g>
       <use xlink:href="#mbfee34e18e" x="30.103125" y="587.653956" style="stroke: #000000; stroke-width: 0.8"/>
      </g>
     </g>
     <g id="text_26">
      <!-- 1 -->
      <g transform="translate(16.740625 591.453175) scale(0.1 -0.1)">
       <use xlink:href="#DejaVuSans-31"/>
      </g>
     </g>
    </g>
    <g id="ytick_12">
     <g id="line2d_28">
      <g>
       <use xlink:href="#mbfee34e18e" x="30.103125" y="522.240699" style="stroke: #000000; stroke-width: 0.8"/>
      </g>
     </g>
     <g id="text_27">
      <!-- 2 -->
      <g transform="translate(16.740625 526.039918) scale(0.1 -0.1)">
       <use xlink:href="#DejaVuSans-32"/>
      </g>
     </g>
    </g>
    <g id="ytick_13">
     <g id="line2d_29">
      <g>
       <use xlink:href="#mbfee34e18e" x="30.103125" y="456.827442" style="stroke: #000000; stroke-width: 0.8"/>
      </g>
     </g>
     <g id="text_28">
      <!-- 3 -->
      <g transform="translate(16.740625 460.626661) scale(0.1 -0.1)">
       <use xlink:href="#DejaVuSans-33"/>
      </g>
     </g>
    </g>
    <g id="ytick_14">
     <g id="line2d_30">
      <g>
       <use xlink:href="#mbfee34e18e" x="30.103125" y="391.414185" style="stroke: #000000; stroke-width: 0.8"/>
      </g>
     </g>
     <g id="text_29">
      <!-- 4 -->
      <g transform="translate(16.740625 395.213404) scale(0.1 -0.1)">
       <use xlink:href="#DejaVuSans-34"/>
      </g>
     </g>
    </g>
   </g>
   <g id="line2d_31">
    <path d="M 60.654199 653.067213 
L 79.669039 652.964256 
L 80.178365 652.764797 
L 80.602803 652.340279 
L 80.687691 652.199994 
L 80.772578 652.300479 
L 81.536568 650.486277 
L 82.470332 647.674834 
L 83.149433 646.317661 
L 84.337861 644.464793 
L 84.762299 643.47721 
L 85.271625 641.395702 
L 85.780951 638.294225 
L 87.733368 622.321304 
L 88.582245 614.43578 
L 88.75202 614.326985 
L 88.836908 614.361958 
L 89.006683 614.960051 
L 91.892864 601.506958 
L 92.40219 600.113998 
L 92.826628 599.401897 
L 93.166179 598.824028 
L 93.420842 598.225904 
L 93.590617 597.321082 
L 94.184831 591.694195 
L 95.712809 556.336144 
L 95.967472 549.939108 
L 96.307023 465.172206 
L 96.646574 455.715061 
L 96.816349 449.469468 
L 97.1559 447.336891 
L 97.240787 447.069892 
L 97.495451 442.112585 
L 97.665226 443.220849 
L 97.835001 443.653833 
L 97.919889 442.895927 
L 98.089664 440.831863 
L 98.25944 442.295741 
L 98.429215 442.859792 
L 98.514103 442.189269 
L 98.683878 440.173848 
L 98.853653 441.175359 
L 98.938541 441.09802 
L 99.023429 441.214068 
L 99.108316 440.441049 
L 99.278092 438.322915 
L 99.362979 438.931117 
L 99.447867 438.82268 
L 99.70253 437.688309 
L 99.872305 435.704609 
L 99.957193 436.165993 
L 100.296744 435.621967 
L 100.551407 433.380844 
L 100.636294 433.903036 
L 100.721182 433.800666 
L 100.80607 433.622625 
L 100.890958 433.847859 
L 100.975845 433.462441 
L 101.145621 432.432296 
L 101.315396 433.203599 
L 101.400284 433.103381 
L 101.485171 433.410102 
L 101.570059 433.287738 
L 101.654947 432.513753 
L 101.739834 432.562786 
L 101.90961 433.467135 
L 101.994497 433.43964 
L 102.164273 433.845644 
L 102.24916 433.256203 
L 102.334048 433.487238 
L 102.503823 434.443179 
L 102.588711 434.494146 
L 102.758486 435.136394 
L 102.843374 434.759445 
L 103.267812 436.834567 
L 103.3527 437.379544 
L 103.437588 437.293331 
L 103.522475 436.911719 
L 103.946914 439.526453 
L 104.031802 439.543718 
L 104.116689 438.771682 
L 104.541128 440.979087 
L 104.626015 440.649175 
L 104.710903 439.124832 
L 104.795791 439.314554 
L 104.965566 440.30925 
L 105.050454 439.953308 
L 105.135341 440.12915 
L 105.390004 435.462579 
L 105.474892 436.205778 
L 105.55978 435.852846 
L 105.729555 434.312736 
L 106.069106 422.639999 
L 106.238881 419.782345 
L 107.00287 401.655172 
L 107.257533 399.74 
L 107.427309 400.618835 
L 107.681972 403.840213 
L 108.021522 410.508606 
L 109.20995 436.226707 
L 110.058826 448.030948 
L 110.907703 455.40182 
L 111.586805 460.417113 
L 113.114783 469.661298 
L 115.067199 483.392361 
L 117.019616 496.621584 
L 117.783605 502.220095 
L 118.717369 508.072706 
L 119.651134 512.12557 
L 121.179112 516.333409 
L 121.773326 517.320494 
L 121.943101 516.403995 
L 122.112876 517.354243 
L 122.197764 517.181583 
L 122.367539 517.755412 
L 122.537315 517.418451 
L 122.70709 517.690191 
L 122.791978 517.53754 
L 122.876865 517.594542 
L 122.961753 517.655366 
L 123.131528 517.375173 
L 123.301304 517.461464 
L 123.471079 517.377684 
L 123.555967 517.404087 
L 123.725742 517.164552 
L 123.895518 517.267703 
L 124.065293 517.253511 
L 124.150181 517.30362 
L 124.319956 517.168467 
L 124.489731 517.342328 
L 124.659507 517.408392 
L 124.829282 517.519745 
L 124.999057 517.5272 
L 125.338608 517.859748 
L 125.508383 517.893419 
L 125.593271 517.897287 
L 125.847934 518.165845 
L 126.102597 518.288958 
L 126.187485 518.277776 
L 126.442148 518.521179 
L 126.611923 518.702323 
L 126.781699 518.589644 
L 126.951474 518.823783 
L 127.121249 518.894541 
L 127.206137 518.984419 
L 127.375912 518.835604 
L 127.545688 519.066983 
L 127.715463 519.115938 
L 127.885238 519.232422 
L 128.055014 519.146864 
L 128.309677 519.333389 
L 128.479452 519.507999 
L 128.649227 519.379412 
L 128.819003 519.608279 
L 128.90389 519.593931 
L 129.073666 519.802072 
L 129.243441 519.6587 
L 129.413216 519.916498 
L 129.498104 519.900278 
L 129.667879 520.133856 
L 129.837655 519.983887 
L 130.00743 520.252165 
L 130.092318 520.229333 
L 130.262093 520.460571 
L 130.431869 520.302789 
L 130.601644 520.577352 
L 130.686532 520.544616 
L 130.941195 520.812785 
L 131.11097 520.753771 
L 131.280745 520.964984 
L 131.450521 521.126556 
L 131.535408 521.228864 
L 131.705184 521.077008 
L 131.874959 521.386022 
L 131.959847 521.374512 
L 132.129622 521.650791 
L 132.299397 521.452943 
L 132.469173 521.794614 
L 132.55406 521.761396 
L 132.723836 522.059929 
L 132.893611 521.82473 
L 133.063387 522.207122 
L 133.148274 522.161941 
L 133.31805 522.468397 
L 133.487825 522.197998 
L 133.6576 522.595752 
L 133.742488 522.5294 
L 133.997151 522.880787 
L 134.166926 522.716814 
L 134.336702 523.012556 
L 134.421589 523.012423 
L 134.591365 523.320267 
L 134.76114 523.047724 
L 134.930915 523.435403 
L 135.015803 523.388491 
L 135.185578 523.713529 
L 135.355354 523.393832 
L 135.525129 523.830724 
L 135.610017 523.762032 
L 135.779792 524.106612 
L 135.949567 523.725702 
L 136.119343 524.180707 
L 136.20423 524.094884 
L 136.374006 524.442903 
L 136.543781 523.978875 
L 136.713557 524.46168 
L 136.798444 524.361883 
L 137.053107 524.74702 
L 137.222883 524.385924 
L 137.392658 524.735183 
L 137.477546 524.675646 
L 137.647321 524.981619 
L 137.817096 524.482087 
L 137.986872 524.937342 
L 138.071759 524.83112 
L 138.241535 525.181907 
L 138.41131 524.596529 
L 138.581085 525.084714 
L 138.665973 524.937179 
L 138.835748 525.280877 
L 138.920636 525.123579 
L 139.005524 524.985837 
L 139.175299 525.342715 
L 139.260187 525.277267 
L 140.363727 526.551236 
L 140.788165 527.438165 
L 141.382379 529.260168 
L 141.891705 531.544499 
L 142.995245 537.70338 
L 143.249908 540.843737 
L 143.334795 543.217159 
L 143.419683 549.629174 
L 143.589458 567.040191 
L 144.183672 567.543208 
L 144.60811 567.896452 
L 144.777886 568.071451 
L 145.202324 568.491234 
L 145.287212 567.619768 
L 145.372099 567.861673 
L 145.456987 567.658968 
L 145.541875 567.74182 
L 145.626762 567.654702 
L 145.71165 568.084154 
L 145.796538 567.936197 
L 145.881425 567.495236 
L 145.966313 568.246677 
L 146.136089 567.456098 
L 146.220976 568.199625 
L 146.305864 568.051504 
L 146.390752 567.288857 
L 146.475639 568.254506 
L 146.645415 567.370992 
L 146.730302 568.158281 
L 146.81519 567.634295 
L 146.900078 567.705147 
L 146.984965 567.913108 
L 147.069853 567.472443 
L 147.154741 567.586089 
L 147.239628 568.509372 
L 147.324516 567.471382 
L 147.494291 568.237538 
L 147.579179 567.668387 
L 147.748954 568.54263 
L 147.833842 567.819003 
L 147.91873 568.819205 
L 148.003617 568.667193 
L 148.088505 568.019744 
L 148.173393 569.226238 
L 148.343168 568.532532 
L 148.428056 569.644375 
L 148.512943 568.5512 
L 148.597831 569.518798 
L 148.682719 569.437919 
L 148.767606 569.047955 
L 148.852494 569.824872 
L 148.937382 569.632296 
L 149.022269 569.2536 
L 149.107157 570.32771 
L 149.192045 569.636866 
L 149.276933 569.665554 
L 149.36182 570.429846 
L 149.446708 569.547214 
L 149.531596 570.349014 
L 149.616483 570.211631 
L 149.701371 569.948258 
L 149.786259 570.759213 
L 149.871146 570.053436 
L 150.040922 570.535819 
L 150.125809 570.350838 
L 150.210697 571.137207 
L 150.295585 570.583191 
L 150.46536 571.090809 
L 150.550248 570.740389 
L 150.635135 571.191183 
L 150.720023 571.120121 
L 150.804911 571.22232 
L 150.889798 571.636333 
L 150.974686 571.192766 
L 151.059574 571.739327 
L 151.144461 571.534945 
L 151.314237 571.977988 
L 151.399124 571.607348 
L 151.484012 572.19696 
L 151.5689 571.951171 
L 151.738675 572.273247 
L 151.823563 572.074058 
L 151.90845 572.437002 
L 151.993338 572.01226 
L 152.078226 572.522396 
L 152.163113 572.409421 
L 152.248001 572.424541 
L 152.332889 572.632643 
L 152.417776 572.470626 
L 152.502664 572.734265 
L 152.587552 572.586565 
L 152.927103 572.905178 
L 153.096878 572.970633 
L 153.606204 573.248877 
L 155.728396 574.466194 
L 157.680812 575.553981 
L 159.633229 576.910483 
L 162.689185 579.32744 
L 164.302051 581.426189 
L 165.745142 583.160053 
L 169.055761 586.804098 
L 171.347728 588.650489 
L 173.130369 590.329495 
L 174.91301 591.763912 
L 176.01655 592.440498 
L 177.289865 593.016706 
L 179.921383 593.931809 
L 181.279586 594.816661 
L 182.298238 595.34607 
L 183.486666 595.688977 
L 184.929756 595.966932 
L 188.834589 596.359488 
L 190.362567 596.87058 
L 192.399872 597.714754 
L 194.691839 598.649683 
L 195.795379 598.996751 
L 198.087346 599.672112 
L 198.936223 599.969761 
L 200.039762 600.625788 
L 201.143302 601.497893 
L 207.934316 607.328616 
L 208.358755 607.440773 
L 208.613418 607.075412 
L 209.122744 605.936978 
L 209.97162 602.618127 
L 210.480946 599.620139 
L 211.754262 590.161805 
L 212.1787 587.101688 
L 212.942689 583.191697 
L 213.62179 581.232482 
L 214.131117 580.529076 
L 214.640443 580.259113 
L 215.149769 580.209184 
L 216.338196 580.01568 
L 217.526624 579.454327 
L 218.884826 578.61342 
L 219.47904 577.870673 
L 220.073254 576.669794 
L 220.58258 574.731189 
L 220.837243 572.454968 
L 221.176794 567.066626 
L 221.346569 566.165528 
L 221.771007 558.098166 
L 222.195446 550.892125 
L 222.450109 548.650807 
L 222.704772 548.244109 
L 222.959435 549.158893 
L 223.383873 552.080106 
L 224.317638 559.493727 
L 224.826964 562.24915 
L 225.251402 563.44514 
L 225.760728 564.282249 
L 226.270054 564.776618 
L 227.543369 565.860779 
L 228.052695 566.490137 
L 228.98646 567.836151 
L 229.156235 567.470322 
L 229.32601 568.328212 
L 229.410898 567.336042 
L 229.495786 567.779382 
L 229.580673 567.68127 
L 229.665561 567.863716 
L 229.750449 567.454585 
L 229.920224 567.829967 
L 230.089999 568.395687 
L 230.174887 568.026278 
L 230.259775 568.302151 
L 230.344663 569.516583 
L 230.42955 568.962139 
L 230.514438 569.194056 
L 230.599326 570.312925 
L 230.684213 570.217963 
L 230.769101 570.512129 
L 230.938876 571.454588 
L 231.53309 573.119931 
L 232.466854 575.393431 
L 235.013485 582.000908 
L 236.201912 584.254226 
L 237.645003 586.404434 
L 238.748542 587.623147 
L 239.597419 588.230075 
L 240.531184 588.63053 
L 241.210285 588.691256 
L 241.974274 588.581252 
L 243.672028 588.231833 
L 244.436017 588.386999 
L 245.454669 588.868147 
L 247.491973 590.075549 
L 249.104839 591.460544 
L 250.123491 592.347399 
L 253.858549 595.529495 
L 255.726077 597.347041 
L 256.574954 598.023772 
L 258.18782 598.929576 
L 259.970461 599.734908 
L 264.809059 601.299438 
L 266.337037 601.909087 
L 268.119678 602.200789 
L 270.326758 602.232554 
L 272.279174 601.962775 
L 273.212939 602.168253 
L 275.165355 602.689934 
L 276.014232 602.624128 
L 277.287547 602.492016 
L 279.070188 602.6701 
L 279.834177 602.730136 
L 281.107492 602.765558 
L 281.956369 602.757522 
L 284.333224 602.588456 
L 285.266989 602.838589 
L 286.285641 603.35264 
L 287.38918 604.12351 
L 292.652216 607.992137 
L 294.010419 608.670516 
L 296.726825 610.296813 
L 301.056096 613.041015 
L 302.244524 613.844191 
L 303.602726 614.639621 
L 304.536491 614.953224 
L 305.385368 615.003477 
L 306.149357 614.847738 
L 306.828458 614.500663 
L 307.677335 613.771398 
L 308.780875 612.481705 
L 309.544864 611.161417 
L 310.563516 608.902967 
L 312.431045 603.480907 
L 313.70436 599.599647 
L 316.081215 593.101235 
L 317.35453 589.563436 
L 317.948744 587.745238 
L 318.79762 585.48179 
L 319.222059 584.914121 
L 319.561609 584.826387 
L 319.90116 584.996279 
L 320.495374 585.671925 
L 322.872229 588.734468 
L 323.975769 589.652144 
L 327.965489 592.881916 
L 329.578355 594.852363 
L 336.878695 604.801207 
L 339.595101 607.988671 
L 341.632405 610.048123 
L 343.839485 612.040463 
L 346.810553 614.704035 
L 349.187408 616.812227 
L 350.290948 617.660597 
L 350.460723 617.519128 
L 351.054937 616.440835 
L 351.564263 616.357425 
L 351.903814 616.398445 
L 353.007353 617.38461 
L 354.95977 618.988363 
L 357.16685 620.562446 
L 360.562357 622.694105 
L 363.957864 624.544554 
L 365.91028 625.396922 
L 369.220899 626.47916 
L 370.66399 626.753577 
L 375.757251 627.561931 
L 383.566917 628.54411 
L 393.66855 629.545118 
L 408.608781 630.757061 
L 437.810141 632.752081 
L 454.363238 633.590157 
L 488.827634 635.001558 
L 514.209049 636.000967 
L 540.184678 636.967868 
L 566.75452 637.636459 
L 593.324363 638.036736 
L 628.46786 638.326596 
L 671.675687 638.523058 
L 671.675687 638.523058 
" clip-path="url(#p2c55e51a3e)" style="fill: none; stroke: #1f77b4; stroke-width: 1.5; stroke-linecap: square"/>
   </g>
   <g id="line2d_32">
    <path d="M 60.654199 653.067213 
L 61.672851 653.174606 
L 62.182178 653.395164 
L 62.946167 653.913939 
L 63.879931 654.806022 
L 64.728808 655.543147 
L 66.087011 656.153332 
L 67.869652 656.887075 
L 68.718529 657.055427 
L 69.39763 656.924011 
L 70.076731 656.567826 
L 72.283811 655.14695 
L 72.962912 655.146389 
L 73.642014 655.400714 
L 74.321115 655.967504 
L 74.915329 656.774645 
L 75.59443 658.088227 
L 76.782858 660.872541 
L 78.735274 665.321903 
L 80.34814 668.249334 
L 81.281905 669.585291 
L 82.724995 671.200724 
L 83.149433 671.339933 
L 83.573872 671.172679 
L 83.828535 670.922471 
L 84.337861 670.051051 
L 85.271625 667.643815 
L 86.460053 663.954418 
L 89.006683 655.631973 
L 89.431121 654.236053 
L 90.449773 649.234252 
L 91.043987 647.411154 
L 92.40219 643.968795 
L 93.335954 639.669297 
L 93.590617 638.047385 
L 94.354607 622.951681 
L 95.118596 594.773642 
L 95.712809 563.350942 
L 96.986124 491.639755 
L 97.325675 485.133069 
L 97.665226 479.838469 
L 99.278092 469.229337 
L 100.636294 458.098026 
L 101.315396 453.838484 
L 101.994497 451.386993 
L 102.164273 451.12378 
L 102.503823 450.41534 
L 103.182925 450.185574 
L 103.522475 450.430355 
L 103.777138 450.469276 
L 104.031802 450.707668 
L 104.371352 450.426841 
L 104.626015 450.434776 
L 105.050454 449.106878 
L 105.135341 449.040657 
L 105.305117 447.730748 
L 105.814443 442.703538 
L 106.663319 420.673885 
L 107.087758 414.547184 
L 107.427309 411.846234 
L 107.681972 411.208694 
L 107.766859 411.164029 
L 107.936635 411.455451 
L 108.191298 412.907196 
L 108.530848 416.743478 
L 108.955287 425.1724 
L 109.804163 443.212267 
L 110.228602 447.185916 
L 111.501917 455.852038 
L 114.388098 478.52449 
L 115.831188 489.150798 
L 117.104504 497.023184 
L 118.632482 505.053716 
L 120.415123 513.135988 
L 122.027989 520.255793 
L 123.555967 529.212539 
L 124.319956 532.731411 
L 124.744394 533.850633 
L 125.083945 534.176286 
L 125.338608 534.143656 
L 125.932822 534.003172 
L 126.187485 534.147752 
L 126.611923 534.742888 
L 127.291025 536.524568 
L 129.667879 543.658899 
L 131.026082 547.342497 
L 132.469173 550.999872 
L 135.949567 558.861907 
L 137.901984 562.828256 
L 139.090411 564.870112 
L 139.684625 565.495202 
L 140.109064 565.696413 
L 140.533502 565.672546 
L 140.95794 565.368176 
L 141.467266 564.671115 
L 142.570806 563.060742 
L 142.995245 562.872375 
L 143.334795 562.949119 
L 143.759234 563.271663 
L 144.523223 564.213664 
L 147.833842 569.021624 
L 148.088505 569.650374 
L 149.107157 573.188659 
L 150.46536 577.67509 
L 150.804911 578.211729 
L 151.144461 578.376851 
L 151.484012 578.314042 
L 152.332889 577.796783 
L 152.757327 577.834003 
L 153.181766 578.084252 
L 153.606204 578.529789 
L 156.916823 583.642137 
L 157.595925 583.984286 
L 158.105251 583.955415 
L 158.699464 583.887026 
L 159.123903 584.071761 
L 159.97278 585.307074 
L 162.010084 588.15829 
L 162.349635 588.184192 
L 162.774073 587.907928 
L 163.62295 587.263343 
L 164.132276 587.219677 
L 164.556714 587.33934 
L 165.150928 588.308805 
L 166.254468 590.363804 
L 166.763794 590.741049 
L 166.933569 590.759273 
L 167.442895 591.100522 
L 167.782446 591.254212 
L 168.376659 591.662863 
L 168.885986 592.478754 
L 169.989525 594.933591 
L 170.329076 595.279047 
L 170.668627 595.308613 
L 171.008177 595.101361 
L 172.451268 593.820875 
L 172.960594 593.766099 
L 173.46992 593.973283 
L 173.979246 594.399163 
L 174.658347 594.975723 
L 175.677 595.572439 
L 176.186326 596.013898 
L 177.374753 598.124398 
L 177.884079 598.860658 
L 178.393405 599.17134 
L 178.902731 599.359898 
L 179.496945 599.439241 
L 179.836496 599.260339 
L 180.260934 598.763132 
L 180.855148 597.98591 
L 181.109811 597.79069 
L 181.534249 597.833744 
L 181.788912 598.063032 
L 182.298238 598.793882 
L 184.250655 602.813128 
L 184.590205 603.091052 
L 185.863521 603.651278 
L 186.118184 603.848714 
L 187.136836 604.74165 
L 187.476386 604.848648 
L 188.579926 604.634694 
L 189.598578 604.355514 
L 190.702118 604.47877 
L 191.126556 604.26247 
L 191.635883 604.018092 
L 192.399872 604.066924 
L 192.994085 604.018073 
L 193.333636 603.97944 
L 193.842962 604.321538 
L 195.201165 606.375143 
L 196.304705 607.776612 
L 196.644255 607.886772 
L 197.832683 607.606122 
L 198.342009 607.867761 
L 199.105998 608.278083 
L 199.445549 608.242918 
L 199.785099 607.968445 
L 200.209538 607.247085 
L 201.652628 604.214813 
L 202.077067 603.985487 
L 202.501505 604.030323 
L 203.520157 604.486749 
L 204.87836 604.982157 
L 206.491226 605.326708 
L 207.849429 605.479808 
L 208.019204 606.196412 
L 208.698305 610.620931 
L 209.547182 616.072463 
L 209.886733 617.448064 
L 210.396059 618.752663 
L 210.650722 618.304009 
L 210.905385 617.402563 
L 211.244936 614.582728 
L 212.263588 605.942761 
L 212.942689 602.111772 
L 214.470667 594.027803 
L 215.998645 587.380248 
L 216.762634 585.022118 
L 217.611511 583.103923 
L 218.3755 581.812198 
L 219.139489 580.951719 
L 219.733703 580.353482 
L 220.158141 579.597146 
L 220.752355 574.288105 
L 222.02567 535.783122 
L 222.534996 527.602785 
L 222.959435 524.00837 
L 223.12921 523.572244 
L 223.214098 523.60882 
L 223.383873 524.298731 
L 223.638536 527.20438 
L 223.978087 534.483531 
L 224.657188 549.874214 
L 224.911851 552.061352 
L 225.081627 552.45689 
L 225.251402 552.347632 
L 225.845616 551.511744 
L 226.015391 551.606334 
L 226.270054 552.040068 
L 226.864268 553.727698 
L 228.052695 557.056741 
L 231.023764 564.541083 
L 232.127304 566.431787 
L 234.589046 570.332185 
L 235.268148 572.015419 
L 236.965901 576.109415 
L 237.645003 577.017386 
L 239.003205 578.276353 
L 239.597419 579.312772 
L 240.446296 581.135434 
L 241.295173 582.943082 
L 242.4836 584.907863 
L 243.162702 585.760984 
L 243.58714 585.979211 
L 243.926691 585.890201 
L 244.436017 585.504119 
L 244.860455 585.090795 
L 245.369781 584.768545 
L 245.794219 584.837974 
L 246.303546 585.400027 
L 247.23731 586.905973 
L 247.831524 587.790282 
L 248.171074 588.025451 
L 248.510625 588.01186 
L 249.019951 587.85371 
L 249.444389 588.033539 
L 252.33057 591.83708 
L 252.755009 591.834 
L 254.53765 591.140681 
L 255.556302 590.249672 
L 255.895853 590.562994 
L 256.320291 591.263819 
L 257.254056 593.206418 
L 258.102932 594.621283 
L 258.782034 595.711769 
L 259.121584 595.946166 
L 259.376248 595.999063 
L 259.800686 596.080814 
L 260.140237 596.221043 
L 260.73445 596.623091 
L 261.498439 597.448695 
L 262.432204 598.262863 
L 262.771755 598.212681 
L 263.111305 598.076086 
L 263.875294 597.783861 
L 264.724171 597.489558 
L 265.403272 597.437521 
L 267.355689 599.377838 
L 268.374341 601.149546 
L 268.883667 601.575577 
L 269.308106 601.704405 
L 269.817432 601.915111 
L 270.581421 602.721299 
L 271.515185 603.765065 
L 271.939623 604.065265 
L 272.279174 604.060987 
L 272.618725 603.768468 
L 273.128051 602.91183 
L 273.637377 601.937987 
L 274.061815 601.384717 
L 274.486254 601.24342 
L 274.656029 601.39047 
L 275.080467 602.129238 
L 275.504906 603.379482 
L 276.43867 606.048012 
L 276.863109 606.61814 
L 277.287547 606.808825 
L 277.711985 606.653222 
L 278.051536 606.418012 
L 278.475974 605.794391 
L 279.070188 604.869802 
L 279.409739 604.66903 
L 279.74929 604.958769 
L 280.343503 605.887762 
L 281.871481 608.191717 
L 282.211032 608.403673 
L 283.39946 608.600796 
L 284.163449 608.889908 
L 284.502999 608.759928 
L 284.927438 608.300401 
L 285.436764 607.391959 
L 286.285641 605.297156 
L 286.879854 604.052509 
L 287.304293 603.605551 
L 287.643843 603.513691 
L 288.153169 603.659763 
L 290.784687 604.869385 
L 292.312666 605.336479 
L 294.519745 608.66892 
L 294.944184 608.883289 
L 295.198847 608.799673 
L 295.538397 608.405058 
L 296.981488 606.137764 
L 297.405926 605.993321 
L 297.745477 606.006914 
L 298.594354 606.847372 
L 299.697893 607.82104 
L 300.376995 608.167767 
L 300.801433 608.124553 
L 301.225871 607.847306 
L 301.904973 607.34243 
L 302.244524 607.268001 
L 302.668962 607.4022 
L 303.263176 608.042982 
L 304.19694 609.818905 
L 307.677335 616.992331 
L 309.459976 619.985325 
L 310.05419 620.672969 
L 310.563516 620.977035 
L 310.987954 620.966267 
L 311.242617 620.797735 
L 311.667056 620.195433 
L 312.176382 618.945045 
L 312.855483 616.819048 
L 314.8079 610.027133 
L 316.420765 604.789625 
L 316.760316 603.615987 
L 317.694081 599.115859 
L 318.288294 597.33111 
L 319.816272 593.59162 
L 320.665149 589.875615 
L 321.259363 587.414939 
L 321.598914 586.762725 
L 321.853577 586.748629 
L 322.10824 587.028977 
L 322.532678 587.938366 
L 323.975769 591.23944 
L 324.994421 592.855574 
L 326.352623 594.454926 
L 327.2015 595.104773 
L 327.795714 595.274267 
L 328.389928 595.196453 
L 329.153917 594.821177 
L 330.087681 594.374168 
L 330.766783 594.320032 
L 331.445884 594.479969 
L 334.586728 595.83842 
L 337.642684 596.296694 
L 341.80218 597.123268 
L 349.187408 598.338531 
L 358.525052 599.649677 
L 368.881349 600.876561 
L 380.426073 602.01748 
L 393.413887 603.07337 
L 408.099455 604.039128 
L 424.822327 604.910964 
L 444.091829 605.687669 
L 466.671951 606.368753 
L 493.581344 606.950422 
L 526.517762 607.431197 
L 568.452274 607.810051 
L 625.242129 608.086436 
L 671.675687 608.203581 
L 671.675687 608.203581 
" clip-path="url(#p2c55e51a3e)" style="fill: none; stroke: #ff7f0e; stroke-width: 1.5; stroke-linecap: square"/>
   </g>
   <g id="patch_9">
    <path d="M 30.103125 684.92 
L 30.103125 386.16 
" style="fill: none; stroke: #000000; stroke-width: 0.8; stroke-linejoin: miter; stroke-linecap: square"/>
   </g>
   <g id="patch_10">
    <path d="M 702.226761 684.92 
L 702.226761 386.16 
" style="fill: none; stroke: #000000; stroke-width: 0.8; stroke-linejoin: miter; stroke-linecap: square"/>
   </g>
   <g id="patch_11">
    <path d="M 30.103125 684.92 
L 702.226761 684.92 
" style="fill: none; stroke: #000000; stroke-width: 0.8; stroke-linejoin: miter; stroke-linecap: square"/>
   </g>
   <g id="patch_12">
    <path d="M 30.103125 386.16 
L 702.226761 386.16 
" style="fill: none; stroke: #000000; stroke-width: 0.8; stroke-linejoin: miter; stroke-linecap: square"/>
   </g>
   <g id="text_30">
    <!-- 2 transformation(s) -->
    <g transform="translate(308.050256 380.16) scale(0.12 -0.12)">
     <use xlink:href="#DejaVuSans-32"/>
     <use xlink:href="#DejaVuSans-20" x="63.623047"/>
     <use xlink:href="#DejaVuSans-74" x="95.410156"/>
     <use xlink:href="#DejaVuSans-72" x="134.619141"/>
     <use xlink:href="#DejaVuSans-61" x="175.732422"/>
     <use xlink:href="#DejaVuSans-6e" x="237.011719"/>
     <use xlink:href="#DejaVuSans-73" x="300.390625"/>
     <use xlink:href="#DejaVuSans-66" x="352.490234"/>
     <use xlink:href="#DejaVuSans-6f" x="387.695312"/>
     <use xlink:href="#DejaVuSans-72" x="448.876953"/>
     <use xlink:href="#DejaVuSans-6d" x="488.240234"/>
     <use xlink:href="#DejaVuSans-61" x="585.652344"/>
     <use xlink:href="#DejaVuSans-74" x="646.931641"/>
     <use xlink:href="#DejaVuSans-69" x="686.140625"/>
     <use xlink:href="#DejaVuSans-6f" x="713.923828"/>
     <use xlink:href="#DejaVuSans-6e" x="775.105469"/>
     <use xlink:href="#DejaVuSans-28" x="838.484375"/>
     <use xlink:href="#DejaVuSans-73" x="877.498047"/>
     <use xlink:href="#DejaVuSans-29" x="929.597656"/>
    </g>
   </g>
  </g>
  <g id="text_31">
   <!-- training -->
   <g transform="translate(333.219687 16.318125) scale(0.12 -0.12)">
    <defs>
     <path id="DejaVuSans-67" d="M 2906 1791 
Q 2906 2416 2648 2759 
Q 2391 3103 1925 3103 
Q 1463 3103 1205 2759 
Q 947 2416 947 1791 
Q 947 1169 1205 825 
Q 1463 481 1925 481 
Q 2391 481 2648 825 
Q 2906 1169 2906 1791 
z
M 3481 434 
Q 3481 -459 3084 -895 
Q 2688 -1331 1869 -1331 
Q 1566 -1331 1297 -1286 
Q 1028 -1241 775 -1147 
L 775 -588 
Q 1028 -725 1275 -790 
Q 1522 -856 1778 -856 
Q 2344 -856 2625 -561 
Q 2906 -266 2906 331 
L 2906 616 
Q 2728 306 2450 153 
Q 2172 0 1784 0 
Q 1141 0 747 490 
Q 353 981 353 1791 
Q 353 2603 747 3093 
Q 1141 3584 1784 3584 
Q 2172 3584 2450 3431 
Q 2728 3278 2906 2969 
L 2906 3500 
L 3481 3500 
L 3481 434 
z
" transform="scale(0.015625)"/>
    </defs>
    <use xlink:href="#DejaVuSans-74"/>
    <use xlink:href="#DejaVuSans-72" x="39.208984"/>
    <use xlink:href="#DejaVuSans-61" x="80.322266"/>
    <use xlink:href="#DejaVuSans-69" x="141.601562"/>
    <use xlink:href="#DejaVuSans-6e" x="169.384766"/>
    <use xlink:href="#DejaVuSans-69" x="232.763672"/>
    <use xlink:href="#DejaVuSans-6e" x="260.546875"/>
    <use xlink:href="#DejaVuSans-67" x="323.925781"/>
   </g>
  </g>
 </g>
 <defs>
  <clipPath id="p638a0cb447">
   <rect x="30.103125" y="43.44" width="672.123636" height="298.76"/>
  </clipPath>
  <clipPath id="p2c55e51a3e">
   <rect x="30.103125" y="386.16" width="672.123636" height="298.76"/>
  </clipPath>
 </defs>
</svg>
