<?xml version="1.0" encoding="utf-8" standalone="no"?>
<!DOCTYPE svg PUBLIC "-//W3C//DTD SVG 1.1//EN"
  "http://www.w3.org/Graphics/SVG/1.1/DTD/svg11.dtd">
<svg xmlns:xlink="http://www.w3.org/1999/xlink" width="709.336136pt" height="708.798125pt" viewBox="0 0 709.336136 708.798125" xmlns="http://www.w3.org/2000/svg" version="1.1">
 <metadata>
  <rdf:RDF xmlns:dc="http://purl.org/dc/elements/1.1/" xmlns:cc="http://creativecommons.org/ns#" xmlns:rdf="http://www.w3.org/1999/02/22-rdf-syntax-ns#">
   <cc:Work>
    <dc:type rdf:resource="http://purl.org/dc/dcmitype/StillImage"/>
    <dc:date>2023-06-10T23:04:52.312845</dc:date>
    <dc:format>image/svg+xml</dc:format>
    <dc:creator>
     <cc:Agent>
      <dc:title>Matplotlib v3.7.1, https://matplotlib.org/</dc:title>
     </cc:Agent>
    </dc:creator>
   </cc:Work>
  </rdf:RDF>
 </metadata>
 <defs>
  <style type="text/css">*{stroke-linejoin: round; stroke-linecap: butt}</style>
 </defs>
 <g id="figure_1">
  <g id="patch_1">
   <path d="M 0 708.798125 
L 709.336136 708.798125 
L 709.336136 0 
L 0 0 
z
" style="fill: #ffffff"/>
  </g>
  <g id="axes_1">
   <g id="patch_2">
    <path d="M 20.5625 342.2 
L 702.136136 342.2 
L 702.136136 43.44 
L 20.5625 43.44 
z
" style="fill: #ffffff"/>
   </g>
   <g id="matplotlib.axis_1">
    <g id="xtick_1">
     <g id="line2d_1">
      <defs>
       <path id="m01a56cce40" d="M 0 0 
L 0 3.5 
" style="stroke: #000000; stroke-width: 0.8"/>
      </defs>
      <g>
       <use xlink:href="#m01a56cce40" x="51.370957" y="342.2" style="stroke: #000000; stroke-width: 0.8"/>
      </g>
     </g>
     <g id="text_1">
      <!-- 2014-07-01 -->
      <g transform="translate(22.313145 356.798437) scale(0.1 -0.1)">
       <defs>
        <path id="DejaVuSans-32" d="M 1228 531 
L 3431 531 
L 3431 0 
L 469 0 
L 469 531 
Q 828 903 1448 1529 
Q 2069 2156 2228 2338 
Q 2531 2678 2651 2914 
Q 2772 3150 2772 3378 
Q 2772 3750 2511 3984 
Q 2250 4219 1831 4219 
Q 1534 4219 1204 4116 
Q 875 4013 500 3803 
L 500 4441 
Q 881 4594 1212 4672 
Q 1544 4750 1819 4750 
Q 2544 4750 2975 4387 
Q 3406 4025 3406 3419 
Q 3406 3131 3298 2873 
Q 3191 2616 2906 2266 
Q 2828 2175 2409 1742 
Q 1991 1309 1228 531 
z
" transform="scale(0.015625)"/>
        <path id="DejaVuSans-30" d="M 2034 4250 
Q 1547 4250 1301 3770 
Q 1056 3291 1056 2328 
Q 1056 1369 1301 889 
Q 1547 409 2034 409 
Q 2525 409 2770 889 
Q 3016 1369 3016 2328 
Q 3016 3291 2770 3770 
Q 2525 4250 2034 4250 
z
M 2034 4750 
Q 2819 4750 3233 4129 
Q 3647 3509 3647 2328 
Q 3647 1150 3233 529 
Q 2819 -91 2034 -91 
Q 1250 -91 836 529 
Q 422 1150 422 2328 
Q 422 3509 836 4129 
Q 1250 4750 2034 4750 
z
" transform="scale(0.015625)"/>
        <path id="DejaVuSans-31" d="M 794 531 
L 1825 531 
L 1825 4091 
L 703 3866 
L 703 4441 
L 1819 4666 
L 2450 4666 
L 2450 531 
L 3481 531 
L 3481 0 
L 794 0 
L 794 531 
z
" transform="scale(0.015625)"/>
        <path id="DejaVuSans-34" d="M 2419 4116 
L 825 1625 
L 2419 1625 
L 2419 4116 
z
M 2253 4666 
L 3047 4666 
L 3047 1625 
L 3713 1625 
L 3713 1100 
L 3047 1100 
L 3047 0 
L 2419 0 
L 2419 1100 
L 313 1100 
L 313 1709 
L 2253 4666 
z
" transform="scale(0.015625)"/>
        <path id="DejaVuSans-2d" d="M 313 2009 
L 1997 2009 
L 1997 1497 
L 313 1497 
L 313 2009 
z
" transform="scale(0.015625)"/>
        <path id="DejaVuSans-37" d="M 525 4666 
L 3525 4666 
L 3525 4397 
L 1831 0 
L 1172 0 
L 2766 4134 
L 525 4134 
L 525 4666 
z
" transform="scale(0.015625)"/>
       </defs>
       <use xlink:href="#DejaVuSans-32"/>
       <use xlink:href="#DejaVuSans-30" x="63.623047"/>
       <use xlink:href="#DejaVuSans-31" x="127.246094"/>
       <use xlink:href="#DejaVuSans-34" x="190.869141"/>
       <use xlink:href="#DejaVuSans-2d" x="254.492188"/>
       <use xlink:href="#DejaVuSans-30" x="290.576172"/>
       <use xlink:href="#DejaVuSans-37" x="354.199219"/>
       <use xlink:href="#DejaVuSans-2d" x="417.822266"/>
       <use xlink:href="#DejaVuSans-30" x="453.90625"/>
       <use xlink:href="#DejaVuSans-31" x="517.529297"/>
      </g>
     </g>
    </g>
    <g id="xtick_2">
     <g id="line2d_2">
      <g>
       <use xlink:href="#m01a56cce40" x="175.327869" y="342.2" style="stroke: #000000; stroke-width: 0.8"/>
      </g>
     </g>
     <g id="text_2">
      <!-- 2014-07-02 -->
      <g transform="translate(146.270057 356.798437) scale(0.1 -0.1)">
       <use xlink:href="#DejaVuSans-32"/>
       <use xlink:href="#DejaVuSans-30" x="63.623047"/>
       <use xlink:href="#DejaVuSans-31" x="127.246094"/>
       <use xlink:href="#DejaVuSans-34" x="190.869141"/>
       <use xlink:href="#DejaVuSans-2d" x="254.492188"/>
       <use xlink:href="#DejaVuSans-30" x="290.576172"/>
       <use xlink:href="#DejaVuSans-37" x="354.199219"/>
       <use xlink:href="#DejaVuSans-2d" x="417.822266"/>
       <use xlink:href="#DejaVuSans-30" x="453.90625"/>
       <use xlink:href="#DejaVuSans-32" x="517.529297"/>
      </g>
     </g>
    </g>
    <g id="xtick_3">
     <g id="line2d_3">
      <g>
       <use xlink:href="#m01a56cce40" x="299.284781" y="342.2" style="stroke: #000000; stroke-width: 0.8"/>
      </g>
     </g>
     <g id="text_3">
      <!-- 2014-07-03 -->
      <g transform="translate(270.226969 356.798437) scale(0.1 -0.1)">
       <defs>
        <path id="DejaVuSans-33" d="M 2597 2516 
Q 3050 2419 3304 2112 
Q 3559 1806 3559 1356 
Q 3559 666 3084 287 
Q 2609 -91 1734 -91 
Q 1441 -91 1130 -33 
Q 819 25 488 141 
L 488 750 
Q 750 597 1062 519 
Q 1375 441 1716 441 
Q 2309 441 2620 675 
Q 2931 909 2931 1356 
Q 2931 1769 2642 2001 
Q 2353 2234 1838 2234 
L 1294 2234 
L 1294 2753 
L 1863 2753 
Q 2328 2753 2575 2939 
Q 2822 3125 2822 3475 
Q 2822 3834 2567 4026 
Q 2313 4219 1838 4219 
Q 1578 4219 1281 4162 
Q 984 4106 628 3988 
L 628 4550 
Q 988 4650 1302 4700 
Q 1616 4750 1894 4750 
Q 2613 4750 3031 4423 
Q 3450 4097 3450 3541 
Q 3450 3153 3228 2886 
Q 3006 2619 2597 2516 
z
" transform="scale(0.015625)"/>
       </defs>
       <use xlink:href="#DejaVuSans-32"/>
       <use xlink:href="#DejaVuSans-30" x="63.623047"/>
       <use xlink:href="#DejaVuSans-31" x="127.246094"/>
       <use xlink:href="#DejaVuSans-34" x="190.869141"/>
       <use xlink:href="#DejaVuSans-2d" x="254.492188"/>
       <use xlink:href="#DejaVuSans-30" x="290.576172"/>
       <use xlink:href="#DejaVuSans-37" x="354.199219"/>
       <use xlink:href="#DejaVuSans-2d" x="417.822266"/>
       <use xlink:href="#DejaVuSans-30" x="453.90625"/>
       <use xlink:href="#DejaVuSans-33" x="517.529297"/>
      </g>
     </g>
    </g>
    <g id="xtick_4">
     <g id="line2d_4">
      <g>
       <use xlink:href="#m01a56cce40" x="423.241693" y="342.2" style="stroke: #000000; stroke-width: 0.8"/>
      </g>
     </g>
     <g id="text_4">
      <!-- 2014-07-04 -->
      <g transform="translate(394.18388 356.798437) scale(0.1 -0.1)">
       <use xlink:href="#DejaVuSans-32"/>
       <use xlink:href="#DejaVuSans-30" x="63.623047"/>
       <use xlink:href="#DejaVuSans-31" x="127.246094"/>
       <use xlink:href="#DejaVuSans-34" x="190.869141"/>
       <use xlink:href="#DejaVuSans-2d" x="254.492188"/>
       <use xlink:href="#DejaVuSans-30" x="290.576172"/>
       <use xlink:href="#DejaVuSans-37" x="354.199219"/>
       <use xlink:href="#DejaVuSans-2d" x="417.822266"/>
       <use xlink:href="#DejaVuSans-30" x="453.90625"/>
       <use xlink:href="#DejaVuSans-34" x="517.529297"/>
      </g>
     </g>
    </g>
    <g id="xtick_5">
     <g id="line2d_5">
      <g>
       <use xlink:href="#m01a56cce40" x="547.198605" y="342.2" style="stroke: #000000; stroke-width: 0.8"/>
      </g>
     </g>
     <g id="text_5">
      <!-- 2014-07-05 -->
      <g transform="translate(518.140792 356.798437) scale(0.1 -0.1)">
       <defs>
        <path id="DejaVuSans-35" d="M 691 4666 
L 3169 4666 
L 3169 4134 
L 1269 4134 
L 1269 2991 
Q 1406 3038 1543 3061 
Q 1681 3084 1819 3084 
Q 2600 3084 3056 2656 
Q 3513 2228 3513 1497 
Q 3513 744 3044 326 
Q 2575 -91 1722 -91 
Q 1428 -91 1123 -41 
Q 819 9 494 109 
L 494 744 
Q 775 591 1075 516 
Q 1375 441 1709 441 
Q 2250 441 2565 725 
Q 2881 1009 2881 1497 
Q 2881 1984 2565 2268 
Q 2250 2553 1709 2553 
Q 1456 2553 1204 2497 
Q 953 2441 691 2322 
L 691 4666 
z
" transform="scale(0.015625)"/>
       </defs>
       <use xlink:href="#DejaVuSans-32"/>
       <use xlink:href="#DejaVuSans-30" x="63.623047"/>
       <use xlink:href="#DejaVuSans-31" x="127.246094"/>
       <use xlink:href="#DejaVuSans-34" x="190.869141"/>
       <use xlink:href="#DejaVuSans-2d" x="254.492188"/>
       <use xlink:href="#DejaVuSans-30" x="290.576172"/>
       <use xlink:href="#DejaVuSans-37" x="354.199219"/>
       <use xlink:href="#DejaVuSans-2d" x="417.822266"/>
       <use xlink:href="#DejaVuSans-30" x="453.90625"/>
       <use xlink:href="#DejaVuSans-35" x="517.529297"/>
      </g>
     </g>
    </g>
    <g id="xtick_6">
     <g id="line2d_6">
      <g>
       <use xlink:href="#m01a56cce40" x="671.155517" y="342.2" style="stroke: #000000; stroke-width: 0.8"/>
      </g>
     </g>
     <g id="text_6">
      <!-- 2014-07-06 -->
      <g transform="translate(642.097704 356.798437) scale(0.1 -0.1)">
       <defs>
        <path id="DejaVuSans-36" d="M 2113 2584 
Q 1688 2584 1439 2293 
Q 1191 2003 1191 1497 
Q 1191 994 1439 701 
Q 1688 409 2113 409 
Q 2538 409 2786 701 
Q 3034 994 3034 1497 
Q 3034 2003 2786 2293 
Q 2538 2584 2113 2584 
z
M 3366 4563 
L 3366 3988 
Q 3128 4100 2886 4159 
Q 2644 4219 2406 4219 
Q 1781 4219 1451 3797 
Q 1122 3375 1075 2522 
Q 1259 2794 1537 2939 
Q 1816 3084 2150 3084 
Q 2853 3084 3261 2657 
Q 3669 2231 3669 1497 
Q 3669 778 3244 343 
Q 2819 -91 2113 -91 
Q 1303 -91 875 529 
Q 447 1150 447 2328 
Q 447 3434 972 4092 
Q 1497 4750 2381 4750 
Q 2619 4750 2861 4703 
Q 3103 4656 3366 4563 
z
" transform="scale(0.015625)"/>
       </defs>
       <use xlink:href="#DejaVuSans-32"/>
       <use xlink:href="#DejaVuSans-30" x="63.623047"/>
       <use xlink:href="#DejaVuSans-31" x="127.246094"/>
       <use xlink:href="#DejaVuSans-34" x="190.869141"/>
       <use xlink:href="#DejaVuSans-2d" x="254.492188"/>
       <use xlink:href="#DejaVuSans-30" x="290.576172"/>
       <use xlink:href="#DejaVuSans-37" x="354.199219"/>
       <use xlink:href="#DejaVuSans-2d" x="417.822266"/>
       <use xlink:href="#DejaVuSans-30" x="453.90625"/>
       <use xlink:href="#DejaVuSans-36" x="517.529297"/>
      </g>
     </g>
    </g>
   </g>
   <g id="matplotlib.axis_2">
    <g id="ytick_1">
     <g id="line2d_7">
      <defs>
       <path id="m647ba46fb2" d="M 0 0 
L -3.5 0 
" style="stroke: #000000; stroke-width: 0.8"/>
      </defs>
      <g>
       <use xlink:href="#m647ba46fb2" x="20.5625" y="328.332779" style="stroke: #000000; stroke-width: 0.8"/>
      </g>
     </g>
     <g id="text_7">
      <!-- 0 -->
      <g transform="translate(7.2 332.131998) scale(0.1 -0.1)">
       <use xlink:href="#DejaVuSans-30"/>
      </g>
     </g>
    </g>
    <g id="ytick_2">
     <g id="line2d_8">
      <g>
       <use xlink:href="#m647ba46fb2" x="20.5625" y="279.128118" style="stroke: #000000; stroke-width: 0.8"/>
      </g>
     </g>
     <g id="text_8">
      <!-- 1 -->
      <g transform="translate(7.2 282.927337) scale(0.1 -0.1)">
       <use xlink:href="#DejaVuSans-31"/>
      </g>
     </g>
    </g>
    <g id="ytick_3">
     <g id="line2d_9">
      <g>
       <use xlink:href="#m647ba46fb2" x="20.5625" y="229.923458" style="stroke: #000000; stroke-width: 0.8"/>
      </g>
     </g>
     <g id="text_9">
      <!-- 2 -->
      <g transform="translate(7.2 233.722677) scale(0.1 -0.1)">
       <use xlink:href="#DejaVuSans-32"/>
      </g>
     </g>
    </g>
    <g id="ytick_4">
     <g id="line2d_10">
      <g>
       <use xlink:href="#m647ba46fb2" x="20.5625" y="180.718798" style="stroke: #000000; stroke-width: 0.8"/>
      </g>
     </g>
     <g id="text_10">
      <!-- 3 -->
      <g transform="translate(7.2 184.518016) scale(0.1 -0.1)">
       <use xlink:href="#DejaVuSans-33"/>
      </g>
     </g>
    </g>
    <g id="ytick_5">
     <g id="line2d_11">
      <g>
       <use xlink:href="#m647ba46fb2" x="20.5625" y="131.514137" style="stroke: #000000; stroke-width: 0.8"/>
      </g>
     </g>
     <g id="text_11">
      <!-- 4 -->
      <g transform="translate(7.2 135.313356) scale(0.1 -0.1)">
       <use xlink:href="#DejaVuSans-34"/>
      </g>
     </g>
    </g>
    <g id="ytick_6">
     <g id="line2d_12">
      <g>
       <use xlink:href="#m647ba46fb2" x="20.5625" y="82.309477" style="stroke: #000000; stroke-width: 0.8"/>
      </g>
     </g>
     <g id="text_12">
      <!-- 5 -->
      <g transform="translate(7.2 86.108695) scale(0.1 -0.1)">
       <use xlink:href="#DejaVuSans-35"/>
      </g>
     </g>
    </g>
   </g>
   <g id="line2d_13">
    <path d="M 51.54312 328.332779 
L 68.93152 328.283661 
L 69.103682 327.895228 
L 70.222738 324.340815 
L 70.567063 323.679725 
L 70.911387 322.968455 
L 71.255712 321.953987 
L 71.772199 319.142106 
L 72.374768 314.605119 
L 73.063417 307.838502 
L 73.838148 299.809782 
L 74.096391 298.840993 
L 74.440716 297.981558 
L 74.69896 297.833746 
L 75.129366 296.925083 
L 75.301528 296.873897 
L 75.645853 296.342401 
L 75.904096 296.563873 
L 76.248421 296.237324 
L 76.592746 296.84685 
L 76.850989 296.471563 
L 77.023152 296.955561 
L 77.195314 297.556946 
L 77.281395 297.570326 
L 78.658694 295.482529 
L 78.744775 295.467211 
L 79.0891 295.787862 
L 79.261263 295.620451 
L 79.347344 295.717756 
L 80.035993 298.040707 
L 80.55248 301.241218 
L 80.638562 301.363455 
L 80.810724 300.949464 
L 81.327211 297.329444 
L 81.499374 294.574546 
L 81.929779 284.922087 
L 82.015861 284.95109 
L 82.188023 288.079134 
L 82.790591 307.11599 
L 83.134916 311.008454 
L 83.220997 311.447898 
L 83.307078 311.368745 
L 83.565322 311.577121 
L 84.426134 316.936486 
L 84.512215 315.561766 
L 84.598296 316.47784 
L 84.85654 313.503796 
L 85.028702 310.010218 
L 85.373027 284.151144 
L 85.717352 233.850272 
L 86.061677 185.661103 
L 86.750326 152.705403 
L 86.836407 152.144658 
L 87.352894 135.61363 
L 87.525057 130.701533 
L 87.955463 115.761857 
L 88.730193 92.220083 
L 88.816275 92.443729 
L 88.988437 94.535374 
L 89.074518 93.558297 
L 89.160599 90.043175 
L 89.246681 90.178977 
L 89.763168 80.746257 
L 90.451817 74.42245 
L 90.882223 72.781968 
L 90.968304 72.885461 
L 91.226548 73.250281 
L 91.312629 73.252815 
L 91.484791 73.925629 
L 91.915197 77.314404 
L 92.173441 79.910824 
L 92.86209 90.412618 
L 93.120334 99.481386 
L 93.464659 136.003121 
L 93.722902 173.668142 
L 93.981146 226.758047 
L 94.239389 237.966975 
L 94.928039 251.754203 
L 95.616688 260.304541 
L 95.874932 256.931814 
L 95.961013 257.011147 
L 96.047094 257.495509 
L 96.133176 257.424993 
L 96.305338 252.97339 
L 96.563582 247.829166 
L 96.649663 247.588147 
L 96.735744 245.995751 
L 97.338312 214.318734 
L 97.854799 172.034922 
L 98.199124 157.577097 
L 98.285205 156.234684 
L 98.457368 158.36103 
L 98.543449 157.628539 
L 98.62953 157.143883 
L 98.887774 159.971222 
L 99.146017 164.021326 
L 99.31818 173.593895 
L 99.576423 229.49997 
L 99.834667 266.732487 
L 99.920748 267.338567 
L 100.006829 266.88676 
L 100.178991 271.7855 
L 100.523316 283.262802 
L 100.609397 283.606928 
L 100.867641 281.827289 
L 100.953722 281.906649 
L 102.331021 292.228675 
L 102.675346 294.589876 
L 103.277914 298.823387 
L 104.310889 302.833561 
L 104.655213 303.346612 
L 105.085619 303.950953 
L 105.516025 304.619358 
L 105.86035 304.682101 
L 106.118594 304.74362 
L 106.462918 305.125804 
L 106.807243 305.359575 
L 107.409811 305.385657 
L 108.270623 306.391647 
L 108.528867 306.417073 
L 108.701029 306.636044 
L 108.959273 307.523718 
L 109.561841 310.991537 
L 109.820085 309.490307 
L 110.250491 307.219569 
L 110.336572 307.300591 
L 110.508734 308.539369 
L 110.93914 311.117053 
L 111.111302 311.686623 
L 111.197384 311.607296 
L 111.886033 307.73684 
L 112.058196 308.432356 
L 112.488601 311.131907 
L 112.660764 311.71891 
L 112.746845 311.665501 
L 113.435495 307.623444 
L 113.607657 307.949193 
L 113.951982 309.373932 
L 114.210225 307.796409 
L 115.157118 299.532246 
L 115.2432 299.78568 
L 115.415362 301.274306 
L 116.01793 309.458264 
L 116.104011 308.990052 
L 116.190093 309.029155 
L 116.620499 306.69885 
L 116.70658 306.821983 
L 116.964823 308.608523 
L 117.395229 312.804794 
L 117.567392 313.704027 
L 117.653473 313.6095 
L 117.739554 313.761734 
L 118.16996 312.781363 
L 118.342122 312.802384 
L 118.686447 314.328187 
L 119.202934 316.756883 
L 119.461178 316.685304 
L 119.891584 315.874108 
L 120.666314 315.874558 
L 120.924558 316.015647 
L 121.182802 316.066217 
L 121.699289 315.8252 
L 121.957532 315.697299 
L 122.301857 315.457962 
L 123.9374 314.683694 
L 124.367806 314.600148 
L 125.228617 313.938695 
L 126.003348 313.292015 
L 127.897134 312.246642 
L 129.79092 310.36146 
L 130.307408 310.285745 
L 130.909976 309.645487 
L 131.340382 309.338554 
L 131.598625 309.309882 
L 131.770788 309.545399 
L 132.029031 310.36204 
L 132.373356 312.328921 
L 132.889843 316.155099 
L 133.320249 317.909679 
L 133.578493 318.303802 
L 133.836736 318.478997 
L 134.181061 319.273066 
L 134.697548 320.625653 
L 135.386198 321.868516 
L 136.160928 322.830253 
L 137.366065 323.831445 
L 138.48512 324.468223 
L 140.034582 325.078482 
L 140.895394 325.291563 
L 141.153637 325.161641 
L 141.411881 324.875316 
L 141.842287 324.021416 
L 143.563911 320.329486 
L 143.994317 319.903498 
L 144.510804 319.744398 
L 145.027291 319.555256 
L 146.060265 318.973297 
L 146.490671 318.860578 
L 147.093239 318.841211 
L 147.351483 318.625493 
L 147.781889 317.926518 
L 148.728782 316.277971 
L 148.987026 316.177491 
L 149.245269 316.381946 
L 150.02 317.453828 
L 150.364325 317.696203 
L 150.880812 318.118159 
L 151.139055 317.996686 
L 151.569461 317.816481 
L 152.516354 317.728692 
L 152.860679 317.082313 
L 153.549329 315.735381 
L 153.893653 315.462732 
L 154.151897 315.497628 
L 154.496222 315.865471 
L 154.840546 316.563589 
L 155.184871 317.816632 
L 155.701358 319.679696 
L 156.045683 320.382407 
L 156.303927 320.540253 
L 156.820414 320.402918 
L 157.078657 320.188857 
L 157.422982 319.683873 
L 158.800281 317.438092 
L 159.058525 317.326276 
L 159.230687 317.465131 
L 159.488931 318.162417 
L 160.091499 319.935407 
L 160.349742 320.000599 
L 160.607986 319.631187 
L 161.296636 317.818638 
L 162.501772 314.440032 
L 162.846097 313.89253 
L 163.018259 313.951219 
L 163.190422 314.409164 
L 164.223396 319.023072 
L 164.395558 319.17278 
L 164.567721 319.145192 
L 165.170289 318.887078 
L 166.461507 318.10213 
L 166.71975 318.472403 
L 167.666643 320.660705 
L 167.838806 320.695322 
L 168.613537 319.648537 
L 169.990836 317.469935 
L 170.593404 316.627568 
L 171.368135 315.489837 
L 171.540297 315.423174 
L 171.712459 315.561093 
L 171.970703 316.358692 
L 172.48719 318.640938 
L 172.917596 319.913926 
L 173.261921 320.248658 
L 173.778408 320.434135 
L 174.553139 321.113834 
L 174.725301 321.039319 
L 175.069626 320.541978 
L 175.586113 319.363925 
L 176.791249 316.473866 
L 177.135574 316.223009 
L 177.910305 316.05351 
L 178.340711 315.269422 
L 179.201523 313.539565 
L 179.373685 313.490625 
L 179.545848 313.651127 
L 180.320578 314.762489 
L 181.611796 315.64677 
L 181.87004 315.414999 
L 182.214364 315.129949 
L 182.386527 315.238333 
L 182.64477 315.885678 
L 183.419501 318.708836 
L 183.591663 318.733321 
L 184.280313 318.137154 
L 184.624638 318.09906 
L 184.7968 318.221335 
L 185.055044 318.697432 
L 185.571531 320.131205 
L 185.915855 320.306419 
L 186.604505 319.901855 
L 187.120992 319.735014 
L 187.465317 319.397768 
L 187.809642 318.694341 
L 188.670454 316.65053 
L 188.842616 316.569414 
L 189.014778 316.706271 
L 189.186941 317.11192 
L 189.87559 319.439047 
L 189.961671 319.418049 
L 190.047753 319.539909 
L 190.650321 318.670995 
L 191.080727 317.873677 
L 191.769376 316.442957 
L 192.02762 316.341007 
L 192.199782 316.61344 
L 193.663162 321.230694 
L 194.351812 322.346881 
L 195.126543 323.234703 
L 196.159517 324.059096 
L 197.364654 324.721626 
L 199.000196 325.338003 
L 200.807901 325.815783 
L 200.980064 325.748248 
L 201.066145 325.620084 
L 201.238307 324.828075 
L 201.410469 324.802126 
L 201.582632 324.081123 
L 202.013038 318.909139 
L 202.271281 314.467967 
L 202.615606 304.734008 
L 203.734662 270.268901 
L 203.820743 270.881328 
L 204.165068 275.70344 
L 204.423311 274.254969 
L 204.509392 274.331851 
L 204.681555 275.272895 
L 204.767636 275.240206 
L 205.025879 274.088977 
L 206.058854 280.851177 
L 206.144935 280.910139 
L 206.231016 281.242396 
L 207.522234 292.703207 
L 207.608315 292.820168 
L 208.727371 297.190824 
L 208.899533 297.609068 
L 209.41602 299.541686 
L 209.674264 300.505305 
L 210.018588 301.70227 
L 210.276832 302.552397 
L 210.707238 304.398431 
L 211.309806 305.444061 
L 211.56805 305.636393 
L 211.740212 305.554043 
L 212.084537 305.057775 
L 212.256699 304.445928 
L 212.601024 301.571058 
L 212.859268 298.530844 
L 213.547917 285.07882 
L 213.892242 273.677226 
L 214.064404 256.866219 
L 214.753054 184.050969 
L 215.011297 174.556554 
L 215.18346 173.457378 
L 215.269541 173.872912 
L 215.355622 177.94432 
L 215.613866 225.26464 
L 215.95819 278.653112 
L 216.302515 298.592647 
L 216.64684 306.733392 
L 216.732921 306.810714 
L 216.819002 307.332691 
L 216.905083 307.249878 
L 216.991165 306.820771 
L 217.077246 306.896131 
L 217.335489 308.202487 
L 217.765895 313.248373 
L 218.11022 315.786834 
L 218.368464 316.324042 
L 218.626707 316.190585 
L 218.712788 316.093002 
L 219.057113 316.469818 
L 220.26225 320.600923 
L 220.864818 321.783512 
L 221.639549 322.838368 
L 222.500361 323.656791 
L 223.533335 324.354026 
L 224.910634 324.996057 
L 226.374014 325.481977 
L 228.870369 326.022813 
L 229.559018 325.536633 
L 231.711048 322.87195 
L 232.57186 321.526627 
L 233.34659 319.850501 
L 236.015107 312.702048 
L 236.445513 311.772512 
L 236.703757 311.658751 
L 236.875919 311.840425 
L 237.134163 312.554865 
L 237.478488 314.408632 
L 238.081056 317.739706 
L 238.339299 318.050778 
L 238.425381 318.069256 
L 239.027949 317.50834 
L 239.286193 317.259942 
L 239.888761 316.143197 
L 240.57741 314.603462 
L 240.835654 314.412097 
L 241.007816 314.519286 
L 241.179979 314.926996 
L 241.524303 316.672479 
L 241.868628 318.078953 
L 241.954709 318.055475 
L 242.040791 318.214317 
L 242.643359 317.16543 
L 243.159846 316.479417 
L 243.934577 315.67606 
L 244.795389 314.080976 
L 244.967551 314.163115 
L 245.225795 314.640411 
L 245.570119 315.212301 
L 245.742282 315.21271 
L 246.000525 314.871804 
L 246.689175 313.756991 
L 246.861337 313.989152 
L 247.119581 315.245937 
L 247.80823 318.5931 
L 248.238636 320.009495 
L 248.582961 320.625334 
L 248.841204 320.614767 
L 249.702016 319.63771 
L 250.734991 319.035681 
L 251.165397 318.190994 
L 252.11229 316.136989 
L 252.370533 315.946006 
L 252.628777 316.012087 
L 253.403507 316.68361 
L 254.006076 316.394835 
L 254.350401 315.974208 
L 254.694725 315.33288 
L 255.297294 314.167241 
L 255.555537 314.035126 
L 255.813781 314.254255 
L 258.137973 317.831785 
L 258.826622 317.378365 
L 258.998785 317.564307 
L 259.257028 318.253663 
L 259.773515 319.665905 
L 260.031759 319.751099 
L 260.548246 319.081779 
L 261.064733 317.923575 
L 261.753383 316.463742 
L 262.26987 315.980883 
L 262.872438 315.462015 
L 263.130682 315.611523 
L 263.73325 316.272795 
L 263.991494 315.999266 
L 264.507981 314.878155 
L 265.627036 311.880189 
L 265.799199 311.997602 
L 265.971361 312.622249 
L 266.918254 318.315094 
L 267.520822 320.160106 
L 267.779066 320.45953 
L 268.03731 320.456271 
L 268.467716 320.148452 
L 268.898121 319.447837 
L 269.50069 318.020289 
L 270.017177 316.402852 
L 270.96407 313.30045 
L 271.136232 313.125604 
L 271.308395 313.281898 
L 271.480557 313.916147 
L 272.169207 317.914217 
L 272.771775 319.648066 
L 272.943937 319.657545 
L 273.1161 319.462662 
L 274.149074 317.788177 
L 274.665561 316.467984 
L 275.182048 315.129972 
L 275.440292 314.929939 
L 275.698535 315.19025 
L 276.301104 316.280414 
L 276.473266 316.224484 
L 276.817591 315.553867 
L 277.334078 314.658272 
L 278.280971 313.994706 
L 278.453133 314.187976 
L 278.625296 314.686027 
L 279.744351 319.695239 
L 280.34692 321.158293 
L 281.207731 322.525496 
L 282.068543 323.439469 
L 283.187599 324.252014 
L 284.478817 324.892531 
L 286.20044 325.481117 
L 288.094227 325.920076 
L 288.266389 325.730553 
L 289.04112 325.329235 
L 289.729769 325.150338 
L 290.246256 325.239537 
L 290.676662 325.390413 
L 294.292072 326.188254 
L 297.390995 326.602602 
L 298.251807 326.587367 
L 298.768294 326.13851 
L 299.112619 325.617532 
L 299.887349 324.38581 
L 300.489918 322.994261 
L 301.092486 321.013546 
L 301.695054 318.355324 
L 302.555866 313.635373 
L 303.674922 306.192885 
L 304.880058 296.706775 
L 305.052221 296.380575 
L 305.224383 296.308298 
L 305.568708 295.783008 
L 305.913033 296.079913 
L 306.171276 295.658073 
L 306.343439 296.130751 
L 306.515601 296.742773 
L 306.601682 296.765813 
L 307.032088 296.308577 
L 307.20425 296.026222 
L 307.462494 295.412472 
L 307.720738 295.411308 
L 308.065062 294.987937 
L 308.323306 295.215422 
L 308.667631 294.879094 
L 308.925874 295.505452 
L 309.011955 295.469105 
L 309.270199 295.199661 
L 309.442361 295.896394 
L 309.700605 296.797112 
L 310.04493 296.642984 
L 310.389254 296.958441 
L 310.561417 297.263769 
L 311.163985 299.622398 
L 311.336148 299.372632 
L 311.852635 296.12812 
L 312.024797 293.388186 
L 312.455203 284.103468 
L 312.541284 284.461765 
L 312.713447 288.070444 
L 313.229934 305.686466 
L 313.488177 309.646659 
L 313.574258 309.680351 
L 313.746421 309.986287 
L 313.832502 309.726058 
L 313.918583 309.846854 
L 314.090746 310.412766 
L 314.607233 315.1195 
L 315.12372 317.893822 
L 315.554126 319.490864 
L 316.156694 321.012744 
L 316.845344 322.193074 
L 317.533993 322.986912 
L 317.964399 323.124956 
L 320.116429 322.984362 
L 321.063322 322.773145 
L 322.182377 322.536787 
L 322.612783 322.65694 
L 325.195219 324.60116 
L 326.830761 325.254718 
L 328.810629 325.797226 
L 331.651308 326.320766 
L 335.697124 326.798381 
L 341.464564 327.215119 
L 350.072682 327.57525 
L 362.89878 327.865588 
L 384.591239 328.102216 
L 422.553043 328.258849 
L 503.641523 328.318402 
L 671.155517 328.327856 
L 671.155517 328.327856 
" clip-path="url(#pd8a82e182e)" style="fill: none; stroke: #1f77b4; stroke-width: 1.5; stroke-linecap: square"/>
   </g>
   <g id="line2d_14">
    <path d="M 51.54312 328.332779 
L 52.490013 328.258823 
L 53.0065 327.907833 
L 54.642043 326.614075 
L 58.08529 325.528524 
L 59.634752 325.426896 
L 60.23732 325.917334 
L 61.786781 327.323601 
L 62.647593 327.770031 
L 63.766649 328.079998 
L 64.455298 328.057225 
L 65.057866 327.674192 
L 66.00476 326.432192 
L 66.865571 324.825206 
L 67.295977 324.047816 
L 68.070708 322.538134 
L 68.845439 320.593426 
L 69.361926 319.32572 
L 70.136657 317.329887 
L 70.653144 316.418554 
L 72.202605 312.303993 
L 72.633011 309.883727 
L 73.838148 303.324386 
L 74.268554 301.834564 
L 74.612878 300.556092 
L 75.818015 297.319585 
L 76.16234 296.706021 
L 76.334502 296.426172 
L 76.764908 296.760187 
L 76.937071 296.680726 
L 77.195314 296.84528 
L 77.453558 296.58323 
L 77.62572 296.462836 
L 77.883964 296.304722 
L 78.830857 295.364981 
L 79.347344 295.521588 
L 79.519506 295.932567 
L 80.294237 299.269207 
L 80.638562 301.412148 
L 80.810724 301.990113 
L 80.896805 301.746554 
L 81.068968 299.739428 
L 81.757617 287.235686 
L 81.843698 286.92135 
L 81.929779 286.971142 
L 82.101942 287.932397 
L 82.446267 292.10215 
L 83.995728 314.138687 
L 84.426134 319.013647 
L 84.512215 318.966015 
L 84.598296 318.187909 
L 84.770459 313.575714 
L 85.028702 300.397263 
L 85.373027 268.867503 
L 86.061677 203.248378 
L 86.836407 146.536476 
L 87.697219 101.022662 
L 88.299787 78.948054 
L 88.816275 65.792413 
L 89.332762 60.552494 
L 90.107492 57.204335 
L 90.451817 57.02 
L 90.537898 57.17777 
L 90.882223 59.210585 
L 91.226548 62.396484 
L 91.743035 70.430622 
L 92.173441 81.492462 
L 92.948172 107.09931 
L 93.895065 145.248677 
L 95.788851 222.403485 
L 96.305338 233.780284 
L 96.649663 237.49392 
L 96.907906 238.649139 
L 96.993987 238.371614 
L 97.338312 234.122733 
L 97.596556 227.030273 
L 97.940881 204.918882 
L 98.285205 185.752127 
L 98.457368 182.637778 
L 98.543449 182.565057 
L 98.715611 184.994703 
L 99.059936 196.173148 
L 101.125885 275.380567 
L 101.814534 291.082497 
L 102.675346 305.249394 
L 103.363995 313.253589 
L 103.966564 317.938472 
L 104.569132 321.0496 
L 105.1717 323.058799 
L 105.774269 324.304357 
L 106.376837 325.065351 
L 106.979405 325.519489 
L 107.926298 325.904566 
L 108.442786 325.997675 
L 111.541708 325.747537 
L 112.488601 325.531974 
L 113.607657 325.197551 
L 113.779819 324.829831 
L 114.038063 323.082241 
L 114.640631 318.300254 
L 114.898875 317.685099 
L 115.071037 317.71686 
L 115.329281 318.11918 
L 116.792661 321.693774 
L 117.309148 322.430371 
L 117.739554 322.792542 
L 118.858609 323.089382 
L 119.202934 323.051106 
L 120.235908 322.971468 
L 122.043613 322.236849 
L 122.387938 322.079666 
L 123.162669 321.79082 
L 123.765237 321.576186 
L 124.453887 321.128257 
L 124.798211 320.85228 
L 125.142536 320.572412 
L 125.486861 320.352114 
L 126.17551 319.972826 
L 126.778079 319.718096 
L 127.466728 319.150284 
L 128.930109 317.671665 
L 129.102271 317.572919 
L 129.446596 317.497646 
L 129.79092 317.270262 
L 130.049164 317.068896 
L 130.393489 316.664148 
L 130.737813 316.222533 
L 130.996057 315.97961 
L 131.254301 315.999702 
L 131.426463 316.131454 
L 131.770788 316.8799 
L 132.287275 318.620011 
L 133.578493 323.251529 
L 134.353223 325.147667 
L 135.041873 326.291216 
L 135.730522 327.050288 
L 136.505253 327.586985 
L 137.452146 327.958662 
L 138.743364 328.188985 
L 139.604176 328.197107 
L 139.776338 328.111455 
L 140.034582 327.633723 
L 140.551069 325.962483 
L 141.239719 323.123912 
L 141.584043 322.301705 
L 142.014449 321.941304 
L 142.272693 322.00521 
L 142.617018 322.44526 
L 143.219586 323.469122 
L 143.563911 323.787469 
L 143.822154 323.748244 
L 144.166479 323.651639 
L 144.855128 323.33414 
L 145.371616 323.260646 
L 145.71594 323.466993 
L 146.060265 323.785913 
L 146.232427 323.724744 
L 146.748915 323.100977 
L 147.351483 321.861845 
L 147.781889 321.34914 
L 148.212295 321.3452 
L 149.417431 322.255942 
L 149.761756 322.632079 
L 150.02 322.495105 
L 150.364325 322.289549 
L 150.622568 322.388788 
L 150.880812 322.730243 
L 151.225136 323.050482 
L 151.569461 323.043625 
L 151.827705 322.523038 
L 152.344192 321.297282 
L 152.602435 320.987417 
L 153.463247 320.848211 
L 153.893653 320.923923 
L 154.237978 321.354024 
L 154.754465 322.401519 
L 155.529196 323.902112 
L 155.959602 324.309661 
L 156.131764 324.123499 
L 156.906495 322.965244 
L 157.164738 322.889322 
L 157.422982 322.520495 
L 157.853388 321.830766 
L 158.111632 321.744377 
L 158.369875 321.984776 
L 158.886362 322.976547 
L 159.316768 323.641736 
L 159.575012 323.829784 
L 159.747174 323.607024 
L 161.210554 320.498704 
L 161.64096 319.855982 
L 161.985285 319.295547 
L 162.157447 319.259322 
L 162.415691 319.550495 
L 163.362584 321.564434 
L 164.137315 323.01995 
L 164.567721 322.936656 
L 165.428533 322.217877 
L 165.686776 322.444611 
L 166.289344 323.478024 
L 166.633669 323.935511 
L 167.064075 323.917931 
L 167.580562 323.562667 
L 167.838806 323.192284 
L 168.355293 322.279419 
L 168.613537 322.232751 
L 168.957861 322.515164 
L 169.216105 322.404304 
L 169.818673 321.718296 
L 170.33516 320.867975 
L 170.679485 320.530704 
L 170.851647 320.575782 
L 171.195972 321.050941 
L 171.798541 322.08964 
L 172.745434 323.571715 
L 173.348002 324.61803 
L 173.520164 324.697462 
L 173.864489 324.621963 
L 174.122733 324.155549 
L 175.069626 321.980974 
L 175.672194 320.899473 
L 175.930438 320.871805 
L 176.1026 320.939317 
L 176.619087 321.459841 
L 177.135574 321.464543 
L 178.512873 319.225403 
L 178.685036 319.268815 
L 179.115442 319.467739 
L 179.373685 319.519025 
L 179.804091 319.780338 
L 180.406659 320.449044 
L 180.664903 320.646076 
L 180.837065 320.550993 
L 181.353552 320.007197 
L 181.611796 320.122006 
L 181.87004 320.562642 
L 182.386527 321.405251 
L 182.730852 321.750955 
L 183.505582 322.017855 
L 183.849907 322.302741 
L 184.538556 323.254904 
L 184.882881 323.181119 
L 185.227206 323.20182 
L 185.571531 323.485829 
L 186.346261 324.405817 
L 186.518424 324.143375 
L 187.034911 322.555787 
L 187.465317 320.998526 
L 187.72356 320.702251 
L 187.895723 320.760191 
L 188.498291 321.804732 
L 188.928697 322.436397 
L 189.617347 322.74044 
L 190.047753 322.602258 
L 190.392077 321.746504 
L 190.908564 320.703476 
L 191.080727 320.625073 
L 191.252889 320.738704 
L 191.511133 321.222857 
L 192.113701 323.056216 
L 192.888432 325.198965 
L 193.491 326.291482 
L 194.17965 327.080176 
L 194.95438 327.619807 
L 195.901273 327.978593 
L 197.192491 328.196857 
L 199.430602 328.306966 
L 200.72182 328.385035 
L 200.980064 328.603105 
L 201.152226 327.642455 
L 201.410469 323.302608 
L 201.840875 310.694356 
L 202.701687 282.020889 
L 203.304256 270.05767 
L 203.562499 267.898616 
L 203.992905 266.237255 
L 204.595473 266.006977 
L 205.198042 267.404691 
L 205.972772 271.590002 
L 206.833584 278.482651 
L 207.780477 286.305591 
L 208.727371 292.809504 
L 209.674264 298.585892 
L 210.448994 303.316649 
L 211.223725 306.803038 
L 211.740212 308.177762 
L 211.826293 308.115058 
L 212.170618 307.000519 
L 212.428862 304.936884 
L 213.117511 297.074047 
L 213.461836 290.710005 
L 213.806161 278.500322 
L 214.150485 260.145314 
L 214.49481 222.549473 
L 214.839135 188.897707 
L 215.097378 180.674206 
L 215.18346 180.757598 
L 215.355622 183.768315 
L 215.699947 196.521171 
L 217.507652 274.342154 
L 218.196301 292.002761 
L 218.971032 305.73073 
L 219.659681 314.174843 
L 220.26225 319.116105 
L 220.864818 322.38174 
L 221.467386 324.505581 
L 222.069955 325.876893 
L 222.672523 326.758968 
L 223.361173 327.38731 
L 224.135903 327.800253 
L 225.168878 328.085249 
L 226.460095 328.217376 
L 226.890501 328.077912 
L 227.320907 327.819933 
L 228.095638 326.812682 
L 229.386856 324.411622 
L 229.731181 324.243627 
L 230.075505 324.353722 
L 230.505911 324.576169 
L 231.10848 324.521293 
L 231.624967 324.175088 
L 232.055373 323.679029 
L 232.313616 323.224915 
L 232.830103 322.118124 
L 233.260509 321.707542 
L 233.863078 321.505086 
L 234.121321 321.216162 
L 234.896052 319.654119 
L 235.412539 318.594509 
L 235.756864 317.985943 
L 236.18727 317.694678 
L 236.445513 317.868956 
L 236.789838 318.412336 
L 237.65065 320.744156 
L 237.994975 321.464679 
L 238.425381 321.874314 
L 238.597543 321.763579 
L 239.11403 321.042244 
L 239.630517 319.908011 
L 239.974842 319.573612 
L 240.147004 319.646179 
L 240.405248 320.071889 
L 241.179979 321.378785 
L 241.438222 321.332665 
L 242.040791 321.068906 
L 242.385115 321.342081 
L 242.643359 321.708715 
L 242.815521 321.696664 
L 243.332008 320.725551 
L 243.848496 319.574826 
L 244.020658 319.552054 
L 244.278901 319.824678 
L 244.709307 320.585134 
L 245.139713 320.426295 
L 245.397957 319.867896 
L 245.742282 319.129749 
L 246.000525 319.019643 
L 246.172688 319.201688 
L 246.517012 320.022651 
L 247.722149 323.349928 
L 247.894311 323.294569 
L 248.49688 322.817187 
L 248.755123 323.010798 
L 249.529854 323.963192 
L 249.702016 323.821152 
L 250.476747 322.027468 
L 250.993234 320.994722 
L 251.251478 320.865034 
L 251.767965 321.032826 
L 252.198371 321.258206 
L 252.542696 321.392618 
L 253.317426 321.718052 
L 253.489589 321.497128 
L 254.436482 319.805121 
L 254.780806 319.630122 
L 256.244187 320.582618 
L 257.104999 321.880393 
L 257.879729 321.512175 
L 258.396216 322.167572 
L 259.429191 323.527888 
L 259.601353 323.387344 
L 260.634327 321.211401 
L 260.978652 321.116652 
L 261.236896 321.249834 
L 261.409058 321.162346 
L 261.925545 320.616362 
L 262.183789 320.634025 
L 262.355951 320.812848 
L 262.700276 321.20346 
L 263.302844 321.115647 
L 263.991494 319.959269 
L 264.766224 317.821526 
L 265.024468 317.556237 
L 265.19663 317.699392 
L 265.454874 318.297545 
L 267.004335 323.102942 
L 267.434741 323.606876 
L 267.606904 323.540316 
L 269.242446 320.933947 
L 270.361502 318.305501 
L 270.533664 318.37648 
L 270.791908 318.840633 
L 271.308395 320.500645 
L 271.824882 321.88251 
L 272.083125 322.104671 
L 272.599613 322.224039 
L 272.771775 322.330692 
L 273.030019 322.648374 
L 273.202181 322.58702 
L 273.718668 321.365011 
L 274.235155 319.851329 
L 274.407318 319.717999 
L 274.665561 319.887246 
L 275.182048 320.78199 
L 275.612454 320.952572 
L 275.870698 320.556363 
L 276.301104 320.084091 
L 276.473266 319.988978 
L 276.73151 320.113066 
L 276.903672 320.010939 
L 277.50624 319.248447 
L 277.764484 319.25685 
L 278.022727 319.639464 
L 278.453133 320.945867 
L 279.572189 324.698737 
L 280.174757 325.98409 
L 280.863407 326.918278 
L 281.552056 327.48294 
L 282.412868 327.883745 
L 283.531924 328.136995 
L 285.339629 328.281596 
L 286.458684 328.224531 
L 286.630846 328.054477 
L 286.88909 327.245472 
L 287.491658 325.061204 
L 287.749902 324.813556 
L 288.008145 324.926713 
L 288.438551 325.500999 
L 289.471526 326.90893 
L 290.160175 327.472966 
L 291.020987 327.878082 
L 291.881799 328.065385 
L 292.312205 327.919741 
L 292.742611 327.109094 
L 293.086935 326.612877 
L 293.345179 326.507224 
L 293.689504 326.626071 
L 295.669371 327.804048 
L 296.099777 327.801408 
L 296.616264 327.565231 
L 297.132751 327.076956 
L 297.563157 326.446573 
L 298.079644 325.582267 
L 299.715187 322.308163 
L 300.489918 320.743841 
L 301.264648 318.700395 
L 301.781136 317.380513 
L 302.469785 315.557713 
L 302.986272 314.101717 
L 303.761003 308.719176 
L 304.96614 301.291993 
L 305.74087 298.827161 
L 306.085195 298.636544 
L 306.343439 298.367252 
L 306.515601 298.280959 
L 307.290332 297.093665 
L 307.548575 296.635917 
L 307.8929 296.260135 
L 308.151144 295.895016 
L 308.409387 295.7395 
L 308.753712 295.369349 
L 309.184118 295.94619 
L 309.35628 295.942643 
L 309.786686 296.409178 
L 309.958848 296.446946 
L 310.561417 297.77594 
L 310.991823 299.64214 
L 311.336148 301.40883 
L 311.422229 301.169532 
L 311.594391 299.175972 
L 312.283041 287.081483 
L 312.369122 286.809541 
L 312.455203 286.871177 
L 312.627365 287.870379 
L 312.97169 292.041519 
L 314.521151 313.669269 
L 315.12372 318.209159 
L 315.726288 321.091551 
L 316.242775 322.654783 
L 316.759262 323.67391 
L 317.27575 324.35181 
L 318.222643 325.032053 
L 318.825211 325.271419 
L 319.427779 325.333777 
L 320.20251 325.283691 
L 321.579809 325.231528 
L 322.096296 325.601455 
L 324.334407 327.540069 
L 325.2813 327.923526 
L 326.314274 328.108768 
L 326.916843 327.955241 
L 327.519411 327.905736 
L 332.598201 328.319985 
L 346.026867 328.332778 
L 671.155517 328.332779 
L 671.155517 328.332779 
" clip-path="url(#pd8a82e182e)" style="fill: none; stroke: #ff7f0e; stroke-width: 1.5; stroke-linecap: square"/>
   </g>
   <g id="patch_3">
    <path d="M 20.5625 342.2 
L 20.5625 43.44 
" style="fill: none; stroke: #000000; stroke-width: 0.8; stroke-linejoin: miter; stroke-linecap: square"/>
   </g>
   <g id="patch_4">
    <path d="M 702.136136 342.2 
L 702.136136 43.44 
" style="fill: none; stroke: #000000; stroke-width: 0.8; stroke-linejoin: miter; stroke-linecap: square"/>
   </g>
   <g id="patch_5">
    <path d="M 20.5625 342.2 
L 702.136136 342.2 
" style="fill: none; stroke: #000000; stroke-width: 0.8; stroke-linejoin: miter; stroke-linecap: square"/>
   </g>
   <g id="patch_6">
    <path d="M 20.5625 43.44 
L 702.136136 43.44 
" style="fill: none; stroke: #000000; stroke-width: 0.8; stroke-linejoin: miter; stroke-linecap: square"/>
   </g>
   <g id="text_13">
    <!-- 1 transformation(s) -->
    <g transform="translate(303.234631 37.44) scale(0.12 -0.12)">
     <defs>
      <path id="DejaVuSans-20" transform="scale(0.015625)"/>
      <path id="DejaVuSans-74" d="M 1172 4494 
L 1172 3500 
L 2356 3500 
L 2356 3053 
L 1172 3053 
L 1172 1153 
Q 1172 725 1289 603 
Q 1406 481 1766 481 
L 2356 481 
L 2356 0 
L 1766 0 
Q 1100 0 847 248 
Q 594 497 594 1153 
L 594 3053 
L 172 3053 
L 172 3500 
L 594 3500 
L 594 4494 
L 1172 4494 
z
" transform="scale(0.015625)"/>
      <path id="DejaVuSans-72" d="M 2631 2963 
Q 2534 3019 2420 3045 
Q 2306 3072 2169 3072 
Q 1681 3072 1420 2755 
Q 1159 2438 1159 1844 
L 1159 0 
L 581 0 
L 581 3500 
L 1159 3500 
L 1159 2956 
Q 1341 3275 1631 3429 
Q 1922 3584 2338 3584 
Q 2397 3584 2469 3576 
Q 2541 3569 2628 3553 
L 2631 2963 
z
" transform="scale(0.015625)"/>
      <path id="DejaVuSans-61" d="M 2194 1759 
Q 1497 1759 1228 1600 
Q 959 1441 959 1056 
Q 959 750 1161 570 
Q 1363 391 1709 391 
Q 2188 391 2477 730 
Q 2766 1069 2766 1631 
L 2766 1759 
L 2194 1759 
z
M 3341 1997 
L 3341 0 
L 2766 0 
L 2766 531 
Q 2569 213 2275 61 
Q 1981 -91 1556 -91 
Q 1019 -91 701 211 
Q 384 513 384 1019 
Q 384 1609 779 1909 
Q 1175 2209 1959 2209 
L 2766 2209 
L 2766 2266 
Q 2766 2663 2505 2880 
Q 2244 3097 1772 3097 
Q 1472 3097 1187 3025 
Q 903 2953 641 2809 
L 641 3341 
Q 956 3463 1253 3523 
Q 1550 3584 1831 3584 
Q 2591 3584 2966 3190 
Q 3341 2797 3341 1997 
z
" transform="scale(0.015625)"/>
      <path id="DejaVuSans-6e" d="M 3513 2113 
L 3513 0 
L 2938 0 
L 2938 2094 
Q 2938 2591 2744 2837 
Q 2550 3084 2163 3084 
Q 1697 3084 1428 2787 
Q 1159 2491 1159 1978 
L 1159 0 
L 581 0 
L 581 3500 
L 1159 3500 
L 1159 2956 
Q 1366 3272 1645 3428 
Q 1925 3584 2291 3584 
Q 2894 3584 3203 3211 
Q 3513 2838 3513 2113 
z
" transform="scale(0.015625)"/>
      <path id="DejaVuSans-73" d="M 2834 3397 
L 2834 2853 
Q 2591 2978 2328 3040 
Q 2066 3103 1784 3103 
Q 1356 3103 1142 2972 
Q 928 2841 928 2578 
Q 928 2378 1081 2264 
Q 1234 2150 1697 2047 
L 1894 2003 
Q 2506 1872 2764 1633 
Q 3022 1394 3022 966 
Q 3022 478 2636 193 
Q 2250 -91 1575 -91 
Q 1294 -91 989 -36 
Q 684 19 347 128 
L 347 722 
Q 666 556 975 473 
Q 1284 391 1588 391 
Q 1994 391 2212 530 
Q 2431 669 2431 922 
Q 2431 1156 2273 1281 
Q 2116 1406 1581 1522 
L 1381 1569 
Q 847 1681 609 1914 
Q 372 2147 372 2553 
Q 372 3047 722 3315 
Q 1072 3584 1716 3584 
Q 2034 3584 2315 3537 
Q 2597 3491 2834 3397 
z
" transform="scale(0.015625)"/>
      <path id="DejaVuSans-66" d="M 2375 4863 
L 2375 4384 
L 1825 4384 
Q 1516 4384 1395 4259 
Q 1275 4134 1275 3809 
L 1275 3500 
L 2222 3500 
L 2222 3053 
L 1275 3053 
L 1275 0 
L 697 0 
L 697 3053 
L 147 3053 
L 147 3500 
L 697 3500 
L 697 3744 
Q 697 4328 969 4595 
Q 1241 4863 1831 4863 
L 2375 4863 
z
" transform="scale(0.015625)"/>
      <path id="DejaVuSans-6f" d="M 1959 3097 
Q 1497 3097 1228 2736 
Q 959 2375 959 1747 
Q 959 1119 1226 758 
Q 1494 397 1959 397 
Q 2419 397 2687 759 
Q 2956 1122 2956 1747 
Q 2956 2369 2687 2733 
Q 2419 3097 1959 3097 
z
M 1959 3584 
Q 2709 3584 3137 3096 
Q 3566 2609 3566 1747 
Q 3566 888 3137 398 
Q 2709 -91 1959 -91 
Q 1206 -91 779 398 
Q 353 888 353 1747 
Q 353 2609 779 3096 
Q 1206 3584 1959 3584 
z
" transform="scale(0.015625)"/>
      <path id="DejaVuSans-6d" d="M 3328 2828 
Q 3544 3216 3844 3400 
Q 4144 3584 4550 3584 
Q 5097 3584 5394 3201 
Q 5691 2819 5691 2113 
L 5691 0 
L 5113 0 
L 5113 2094 
Q 5113 2597 4934 2840 
Q 4756 3084 4391 3084 
Q 3944 3084 3684 2787 
Q 3425 2491 3425 1978 
L 3425 0 
L 2847 0 
L 2847 2094 
Q 2847 2600 2669 2842 
Q 2491 3084 2119 3084 
Q 1678 3084 1418 2786 
Q 1159 2488 1159 1978 
L 1159 0 
L 581 0 
L 581 3500 
L 1159 3500 
L 1159 2956 
Q 1356 3278 1631 3431 
Q 1906 3584 2284 3584 
Q 2666 3584 2933 3390 
Q 3200 3197 3328 2828 
z
" transform="scale(0.015625)"/>
      <path id="DejaVuSans-69" d="M 603 3500 
L 1178 3500 
L 1178 0 
L 603 0 
L 603 3500 
z
M 603 4863 
L 1178 4863 
L 1178 4134 
L 603 4134 
L 603 4863 
z
" transform="scale(0.015625)"/>
      <path id="DejaVuSans-28" d="M 1984 4856 
Q 1566 4138 1362 3434 
Q 1159 2731 1159 2009 
Q 1159 1288 1364 580 
Q 1569 -128 1984 -844 
L 1484 -844 
Q 1016 -109 783 600 
Q 550 1309 550 2009 
Q 550 2706 781 3412 
Q 1013 4119 1484 4856 
L 1984 4856 
z
" transform="scale(0.015625)"/>
      <path id="DejaVuSans-29" d="M 513 4856 
L 1013 4856 
Q 1481 4119 1714 3412 
Q 1947 2706 1947 2009 
Q 1947 1309 1714 600 
Q 1481 -109 1013 -844 
L 513 -844 
Q 928 -128 1133 580 
Q 1338 1288 1338 2009 
Q 1338 2731 1133 3434 
Q 928 4138 513 4856 
z
" transform="scale(0.015625)"/>
     </defs>
     <use xlink:href="#DejaVuSans-31"/>
     <use xlink:href="#DejaVuSans-20" x="63.623047"/>
     <use xlink:href="#DejaVuSans-74" x="95.410156"/>
     <use xlink:href="#DejaVuSans-72" x="134.619141"/>
     <use xlink:href="#DejaVuSans-61" x="175.732422"/>
     <use xlink:href="#DejaVuSans-6e" x="237.011719"/>
     <use xlink:href="#DejaVuSans-73" x="300.390625"/>
     <use xlink:href="#DejaVuSans-66" x="352.490234"/>
     <use xlink:href="#DejaVuSans-6f" x="387.695312"/>
     <use xlink:href="#DejaVuSans-72" x="448.876953"/>
     <use xlink:href="#DejaVuSans-6d" x="488.240234"/>
     <use xlink:href="#DejaVuSans-61" x="585.652344"/>
     <use xlink:href="#DejaVuSans-74" x="646.931641"/>
     <use xlink:href="#DejaVuSans-69" x="686.140625"/>
     <use xlink:href="#DejaVuSans-6f" x="713.923828"/>
     <use xlink:href="#DejaVuSans-6e" x="775.105469"/>
     <use xlink:href="#DejaVuSans-28" x="838.484375"/>
     <use xlink:href="#DejaVuSans-73" x="877.498047"/>
     <use xlink:href="#DejaVuSans-29" x="929.597656"/>
    </g>
   </g>
   <g id="legend_1">
    <g id="patch_7">
     <path d="M 613.742386 80.79625 
L 695.136136 80.79625 
Q 697.136136 80.79625 697.136136 78.79625 
L 697.136136 50.44 
Q 697.136136 48.44 695.136136 48.44 
L 613.742386 48.44 
Q 611.742386 48.44 611.742386 50.44 
L 611.742386 78.79625 
Q 611.742386 80.79625 613.742386 80.79625 
z
" style="fill: #ffffff; opacity: 0.8; stroke: #cccccc; stroke-linejoin: miter"/>
    </g>
    <g id="line2d_15">
     <path d="M 615.742386 56.538437 
L 625.742386 56.538437 
L 635.742386 56.538437 
" style="fill: none; stroke: #1f77b4; stroke-width: 1.5; stroke-linecap: square"/>
    </g>
    <g id="text_14">
     <!-- observed -->
     <g transform="translate(643.742386 60.038437) scale(0.1 -0.1)">
      <defs>
       <path id="DejaVuSans-62" d="M 3116 1747 
Q 3116 2381 2855 2742 
Q 2594 3103 2138 3103 
Q 1681 3103 1420 2742 
Q 1159 2381 1159 1747 
Q 1159 1113 1420 752 
Q 1681 391 2138 391 
Q 2594 391 2855 752 
Q 3116 1113 3116 1747 
z
M 1159 2969 
Q 1341 3281 1617 3432 
Q 1894 3584 2278 3584 
Q 2916 3584 3314 3078 
Q 3713 2572 3713 1747 
Q 3713 922 3314 415 
Q 2916 -91 2278 -91 
Q 1894 -91 1617 61 
Q 1341 213 1159 525 
L 1159 0 
L 581 0 
L 581 4863 
L 1159 4863 
L 1159 2969 
z
" transform="scale(0.015625)"/>
       <path id="DejaVuSans-65" d="M 3597 1894 
L 3597 1613 
L 953 1613 
Q 991 1019 1311 708 
Q 1631 397 2203 397 
Q 2534 397 2845 478 
Q 3156 559 3463 722 
L 3463 178 
Q 3153 47 2828 -22 
Q 2503 -91 2169 -91 
Q 1331 -91 842 396 
Q 353 884 353 1716 
Q 353 2575 817 3079 
Q 1281 3584 2069 3584 
Q 2775 3584 3186 3129 
Q 3597 2675 3597 1894 
z
M 3022 2063 
Q 3016 2534 2758 2815 
Q 2500 3097 2075 3097 
Q 1594 3097 1305 2825 
Q 1016 2553 972 2059 
L 3022 2063 
z
" transform="scale(0.015625)"/>
       <path id="DejaVuSans-76" d="M 191 3500 
L 800 3500 
L 1894 563 
L 2988 3500 
L 3597 3500 
L 2284 0 
L 1503 0 
L 191 3500 
z
" transform="scale(0.015625)"/>
       <path id="DejaVuSans-64" d="M 2906 2969 
L 2906 4863 
L 3481 4863 
L 3481 0 
L 2906 0 
L 2906 525 
Q 2725 213 2448 61 
Q 2172 -91 1784 -91 
Q 1150 -91 751 415 
Q 353 922 353 1747 
Q 353 2572 751 3078 
Q 1150 3584 1784 3584 
Q 2172 3584 2448 3432 
Q 2725 3281 2906 2969 
z
M 947 1747 
Q 947 1113 1208 752 
Q 1469 391 1925 391 
Q 2381 391 2643 752 
Q 2906 1113 2906 1747 
Q 2906 2381 2643 2742 
Q 2381 3103 1925 3103 
Q 1469 3103 1208 2742 
Q 947 2381 947 1747 
z
" transform="scale(0.015625)"/>
      </defs>
      <use xlink:href="#DejaVuSans-6f"/>
      <use xlink:href="#DejaVuSans-62" x="61.181641"/>
      <use xlink:href="#DejaVuSans-73" x="124.658203"/>
      <use xlink:href="#DejaVuSans-65" x="176.757812"/>
      <use xlink:href="#DejaVuSans-72" x="238.28125"/>
      <use xlink:href="#DejaVuSans-76" x="279.394531"/>
      <use xlink:href="#DejaVuSans-65" x="338.574219"/>
      <use xlink:href="#DejaVuSans-64" x="400.097656"/>
     </g>
    </g>
    <g id="line2d_16">
     <path d="M 615.742386 71.216563 
L 625.742386 71.216563 
L 635.742386 71.216563 
" style="fill: none; stroke: #ff7f0e; stroke-width: 1.5; stroke-linecap: square"/>
    </g>
    <g id="text_15">
     <!-- simulated -->
     <g transform="translate(643.742386 74.716563) scale(0.1 -0.1)">
      <defs>
       <path id="DejaVuSans-75" d="M 544 1381 
L 544 3500 
L 1119 3500 
L 1119 1403 
Q 1119 906 1312 657 
Q 1506 409 1894 409 
Q 2359 409 2629 706 
Q 2900 1003 2900 1516 
L 2900 3500 
L 3475 3500 
L 3475 0 
L 2900 0 
L 2900 538 
Q 2691 219 2414 64 
Q 2138 -91 1772 -91 
Q 1169 -91 856 284 
Q 544 659 544 1381 
z
M 1991 3584 
L 1991 3584 
z
" transform="scale(0.015625)"/>
       <path id="DejaVuSans-6c" d="M 603 4863 
L 1178 4863 
L 1178 0 
L 603 0 
L 603 4863 
z
" transform="scale(0.015625)"/>
      </defs>
      <use xlink:href="#DejaVuSans-73"/>
      <use xlink:href="#DejaVuSans-69" x="52.099609"/>
      <use xlink:href="#DejaVuSans-6d" x="79.882812"/>
      <use xlink:href="#DejaVuSans-75" x="177.294922"/>
      <use xlink:href="#DejaVuSans-6c" x="240.673828"/>
      <use xlink:href="#DejaVuSans-61" x="268.457031"/>
      <use xlink:href="#DejaVuSans-74" x="329.736328"/>
      <use xlink:href="#DejaVuSans-65" x="368.945312"/>
      <use xlink:href="#DejaVuSans-64" x="430.46875"/>
     </g>
    </g>
   </g>
  </g>
  <g id="axes_2">
   <g id="patch_8">
    <path d="M 20.5625 684.92 
L 702.136136 684.92 
L 702.136136 386.16 
L 20.5625 386.16 
z
" style="fill: #ffffff"/>
   </g>
   <g id="matplotlib.axis_3">
    <g id="xtick_7">
     <g id="line2d_17">
      <g>
       <use xlink:href="#m01a56cce40" x="51.370957" y="684.92" style="stroke: #000000; stroke-width: 0.8"/>
      </g>
     </g>
     <g id="text_16">
      <!-- 2014-07-01 -->
      <g transform="translate(22.313145 699.518437) scale(0.1 -0.1)">
       <use xlink:href="#DejaVuSans-32"/>
       <use xlink:href="#DejaVuSans-30" x="63.623047"/>
       <use xlink:href="#DejaVuSans-31" x="127.246094"/>
       <use xlink:href="#DejaVuSans-34" x="190.869141"/>
       <use xlink:href="#DejaVuSans-2d" x="254.492188"/>
       <use xlink:href="#DejaVuSans-30" x="290.576172"/>
       <use xlink:href="#DejaVuSans-37" x="354.199219"/>
       <use xlink:href="#DejaVuSans-2d" x="417.822266"/>
       <use xlink:href="#DejaVuSans-30" x="453.90625"/>
       <use xlink:href="#DejaVuSans-31" x="517.529297"/>
      </g>
     </g>
    </g>
    <g id="xtick_8">
     <g id="line2d_18">
      <g>
       <use xlink:href="#m01a56cce40" x="175.327869" y="684.92" style="stroke: #000000; stroke-width: 0.8"/>
      </g>
     </g>
     <g id="text_17">
      <!-- 2014-07-02 -->
      <g transform="translate(146.270057 699.518437) scale(0.1 -0.1)">
       <use xlink:href="#DejaVuSans-32"/>
       <use xlink:href="#DejaVuSans-30" x="63.623047"/>
       <use xlink:href="#DejaVuSans-31" x="127.246094"/>
       <use xlink:href="#DejaVuSans-34" x="190.869141"/>
       <use xlink:href="#DejaVuSans-2d" x="254.492188"/>
       <use xlink:href="#DejaVuSans-30" x="290.576172"/>
       <use xlink:href="#DejaVuSans-37" x="354.199219"/>
       <use xlink:href="#DejaVuSans-2d" x="417.822266"/>
       <use xlink:href="#DejaVuSans-30" x="453.90625"/>
       <use xlink:href="#DejaVuSans-32" x="517.529297"/>
      </g>
     </g>
    </g>
    <g id="xtick_9">
     <g id="line2d_19">
      <g>
       <use xlink:href="#m01a56cce40" x="299.284781" y="684.92" style="stroke: #000000; stroke-width: 0.8"/>
      </g>
     </g>
     <g id="text_18">
      <!-- 2014-07-03 -->
      <g transform="translate(270.226969 699.518437) scale(0.1 -0.1)">
       <use xlink:href="#DejaVuSans-32"/>
       <use xlink:href="#DejaVuSans-30" x="63.623047"/>
       <use xlink:href="#DejaVuSans-31" x="127.246094"/>
       <use xlink:href="#DejaVuSans-34" x="190.869141"/>
       <use xlink:href="#DejaVuSans-2d" x="254.492188"/>
       <use xlink:href="#DejaVuSans-30" x="290.576172"/>
       <use xlink:href="#DejaVuSans-37" x="354.199219"/>
       <use xlink:href="#DejaVuSans-2d" x="417.822266"/>
       <use xlink:href="#DejaVuSans-30" x="453.90625"/>
       <use xlink:href="#DejaVuSans-33" x="517.529297"/>
      </g>
     </g>
    </g>
    <g id="xtick_10">
     <g id="line2d_20">
      <g>
       <use xlink:href="#m01a56cce40" x="423.241693" y="684.92" style="stroke: #000000; stroke-width: 0.8"/>
      </g>
     </g>
     <g id="text_19">
      <!-- 2014-07-04 -->
      <g transform="translate(394.18388 699.518437) scale(0.1 -0.1)">
       <use xlink:href="#DejaVuSans-32"/>
       <use xlink:href="#DejaVuSans-30" x="63.623047"/>
       <use xlink:href="#DejaVuSans-31" x="127.246094"/>
       <use xlink:href="#DejaVuSans-34" x="190.869141"/>
       <use xlink:href="#DejaVuSans-2d" x="254.492188"/>
       <use xlink:href="#DejaVuSans-30" x="290.576172"/>
       <use xlink:href="#DejaVuSans-37" x="354.199219"/>
       <use xlink:href="#DejaVuSans-2d" x="417.822266"/>
       <use xlink:href="#DejaVuSans-30" x="453.90625"/>
       <use xlink:href="#DejaVuSans-34" x="517.529297"/>
      </g>
     </g>
    </g>
    <g id="xtick_11">
     <g id="line2d_21">
      <g>
       <use xlink:href="#m01a56cce40" x="547.198605" y="684.92" style="stroke: #000000; stroke-width: 0.8"/>
      </g>
     </g>
     <g id="text_20">
      <!-- 2014-07-05 -->
      <g transform="translate(518.140792 699.518437) scale(0.1 -0.1)">
       <use xlink:href="#DejaVuSans-32"/>
       <use xlink:href="#DejaVuSans-30" x="63.623047"/>
       <use xlink:href="#DejaVuSans-31" x="127.246094"/>
       <use xlink:href="#DejaVuSans-34" x="190.869141"/>
       <use xlink:href="#DejaVuSans-2d" x="254.492188"/>
       <use xlink:href="#DejaVuSans-30" x="290.576172"/>
       <use xlink:href="#DejaVuSans-37" x="354.199219"/>
       <use xlink:href="#DejaVuSans-2d" x="417.822266"/>
       <use xlink:href="#DejaVuSans-30" x="453.90625"/>
       <use xlink:href="#DejaVuSans-35" x="517.529297"/>
      </g>
     </g>
    </g>
    <g id="xtick_12">
     <g id="line2d_22">
      <g>
       <use xlink:href="#m01a56cce40" x="671.155517" y="684.92" style="stroke: #000000; stroke-width: 0.8"/>
      </g>
     </g>
     <g id="text_21">
      <!-- 2014-07-06 -->
      <g transform="translate(642.097704 699.518437) scale(0.1 -0.1)">
       <use xlink:href="#DejaVuSans-32"/>
       <use xlink:href="#DejaVuSans-30" x="63.623047"/>
       <use xlink:href="#DejaVuSans-31" x="127.246094"/>
       <use xlink:href="#DejaVuSans-34" x="190.869141"/>
       <use xlink:href="#DejaVuSans-2d" x="254.492188"/>
       <use xlink:href="#DejaVuSans-30" x="290.576172"/>
       <use xlink:href="#DejaVuSans-37" x="354.199219"/>
       <use xlink:href="#DejaVuSans-2d" x="417.822266"/>
       <use xlink:href="#DejaVuSans-30" x="453.90625"/>
       <use xlink:href="#DejaVuSans-36" x="517.529297"/>
      </g>
     </g>
    </g>
   </g>
   <g id="matplotlib.axis_4">
    <g id="ytick_7">
     <g id="line2d_23">
      <g>
       <use xlink:href="#m647ba46fb2" x="20.5625" y="671.339272" style="stroke: #000000; stroke-width: 0.8"/>
      </g>
     </g>
     <g id="text_22">
      <!-- 0 -->
      <g transform="translate(7.2 675.138491) scale(0.1 -0.1)">
       <use xlink:href="#DejaVuSans-30"/>
      </g>
     </g>
    </g>
    <g id="ytick_8">
     <g id="line2d_24">
      <g>
       <use xlink:href="#m647ba46fb2" x="20.5625" y="619.044584" style="stroke: #000000; stroke-width: 0.8"/>
      </g>
     </g>
     <g id="text_23">
      <!-- 1 -->
      <g transform="translate(7.2 622.843803) scale(0.1 -0.1)">
       <use xlink:href="#DejaVuSans-31"/>
      </g>
     </g>
    </g>
    <g id="ytick_9">
     <g id="line2d_25">
      <g>
       <use xlink:href="#m647ba46fb2" x="20.5625" y="566.749896" style="stroke: #000000; stroke-width: 0.8"/>
      </g>
     </g>
     <g id="text_24">
      <!-- 2 -->
      <g transform="translate(7.2 570.549115) scale(0.1 -0.1)">
       <use xlink:href="#DejaVuSans-32"/>
      </g>
     </g>
    </g>
    <g id="ytick_10">
     <g id="line2d_26">
      <g>
       <use xlink:href="#m647ba46fb2" x="20.5625" y="514.455208" style="stroke: #000000; stroke-width: 0.8"/>
      </g>
     </g>
     <g id="text_25">
      <!-- 3 -->
      <g transform="translate(7.2 518.254427) scale(0.1 -0.1)">
       <use xlink:href="#DejaVuSans-33"/>
      </g>
     </g>
    </g>
    <g id="ytick_11">
     <g id="line2d_27">
      <g>
       <use xlink:href="#m647ba46fb2" x="20.5625" y="462.16052" style="stroke: #000000; stroke-width: 0.8"/>
      </g>
     </g>
     <g id="text_26">
      <!-- 4 -->
      <g transform="translate(7.2 465.959739) scale(0.1 -0.1)">
       <use xlink:href="#DejaVuSans-34"/>
      </g>
     </g>
    </g>
    <g id="ytick_12">
     <g id="line2d_28">
      <g>
       <use xlink:href="#m647ba46fb2" x="20.5625" y="409.865832" style="stroke: #000000; stroke-width: 0.8"/>
      </g>
     </g>
     <g id="text_27">
      <!-- 5 -->
      <g transform="translate(7.2 413.665051) scale(0.1 -0.1)">
       <use xlink:href="#DejaVuSans-35"/>
      </g>
     </g>
    </g>
   </g>
   <g id="line2d_29">
    <path d="M 51.54312 671.339272 
L 68.93152 671.28707 
L 69.103682 670.874244 
L 70.222738 667.096615 
L 70.567063 666.394009 
L 70.911387 665.638071 
L 71.255712 664.559896 
L 71.772199 661.57143 
L 72.374768 656.749523 
L 73.063417 649.557966 
L 73.838148 641.025045 
L 74.096391 639.995417 
L 74.440716 639.08201 
L 74.69896 638.924916 
L 75.129366 637.959189 
L 75.301528 637.904788 
L 75.645853 637.339915 
L 75.904096 637.575296 
L 76.248421 637.228239 
L 76.592746 637.876043 
L 76.850989 637.477188 
L 77.023152 637.991581 
L 77.195314 638.630733 
L 77.281395 638.644952 
L 78.658694 636.426043 
L 78.744775 636.409763 
L 79.0891 636.750551 
L 79.261263 636.572626 
L 79.347344 636.676042 
L 80.035993 639.144874 
L 80.55248 642.546375 
L 80.638562 642.676289 
L 80.810724 642.236299 
L 81.327211 638.388943 
L 81.499374 635.46104 
L 81.929779 625.202411 
L 82.015861 625.233235 
L 82.188023 628.557718 
L 82.790591 648.79008 
L 83.134916 652.926988 
L 83.220997 653.394029 
L 83.307078 653.309906 
L 83.565322 653.531368 
L 84.426134 659.227298 
L 84.512215 657.766246 
L 84.598296 658.739849 
L 84.85654 655.579037 
L 85.028702 651.866064 
L 85.373027 624.383053 
L 85.717352 570.923312 
L 86.061677 519.707887 
L 86.750326 484.682586 
L 86.836407 484.086627 
L 87.352894 466.517459 
L 87.525057 461.296885 
L 87.955463 445.419004 
L 88.730193 420.39882 
L 88.816275 420.63651 
L 88.988437 422.859509 
L 89.074518 421.821072 
L 89.160599 418.085203 
L 89.246681 418.229533 
L 89.763168 408.204443 
L 90.451817 401.483504 
L 90.882223 399.74 
L 90.968304 399.849993 
L 91.226548 400.237724 
L 91.312629 400.240417 
L 91.484791 400.955483 
L 91.915197 404.557071 
L 92.173441 407.316545 
L 92.86209 418.477846 
L 93.120334 428.116128 
L 93.464659 466.93141 
L 93.722902 506.961775 
L 93.981146 563.385699 
L 94.239389 575.298541 
L 94.928039 589.951601 
L 95.616688 599.038896 
L 95.874932 595.454363 
L 95.961013 595.538678 
L 96.047094 596.053458 
L 96.133176 595.978513 
L 96.305338 591.247352 
L 96.563582 585.780074 
L 96.649663 585.523918 
L 96.735744 583.831521 
L 97.338312 550.165203 
L 97.854799 505.225989 
L 98.199124 489.86022 
L 98.285205 488.433504 
L 98.457368 490.693384 
L 98.543449 489.914893 
L 98.62953 489.399801 
L 98.887774 492.404695 
L 99.146017 496.709144 
L 99.31818 506.882865 
L 99.576423 566.299813 
L 99.834667 605.870513 
L 99.920748 606.514655 
L 100.006829 606.034474 
L 100.178991 611.240853 
L 100.523316 623.438924 
L 100.609397 623.804661 
L 100.867641 621.913262 
L 100.953722 621.997605 
L 102.331021 632.967849 
L 102.675346 635.477332 
L 103.277914 639.976706 
L 104.310889 644.238716 
L 104.655213 644.783987 
L 105.085619 645.42628 
L 105.516025 646.13666 
L 105.86035 646.203344 
L 106.118594 646.268726 
L 106.462918 646.674911 
L 106.721162 646.904926 
L 106.979405 646.885839 
L 107.32373 646.869633 
L 107.581974 647.232986 
L 108.01238 647.947892 
L 108.270623 648.020248 
L 108.528867 648.047271 
L 108.701029 648.279993 
L 108.959273 649.223413 
L 109.561841 652.909009 
L 109.820085 651.313502 
L 110.250491 648.900163 
L 110.336572 648.986274 
L 110.508734 650.302846 
L 110.93914 653.042408 
L 111.111302 653.647746 
L 111.197384 653.563437 
L 111.886033 649.449919 
L 112.058196 650.189113 
L 112.488601 653.058194 
L 112.660764 653.682061 
L 112.746845 653.625297 
L 113.435495 649.329402 
L 113.607657 649.675608 
L 113.951982 651.18982 
L 114.210225 649.513229 
L 115.157118 640.73008 
L 115.2432 640.99943 
L 115.415362 642.581541 
L 116.01793 651.279448 
L 116.104011 650.781832 
L 116.190093 650.823391 
L 116.620499 648.346744 
L 116.70658 648.47761 
L 116.964823 650.376343 
L 117.395229 654.836137 
L 117.567392 655.791843 
L 117.653473 655.691378 
L 117.739554 655.853173 
L 118.16996 654.811236 
L 118.342122 654.833577 
L 118.686447 656.455199 
L 119.202934 659.036415 
L 119.461178 658.960342 
L 119.891584 658.098203 
L 120.666314 658.098681 
L 120.924558 658.248631 
L 121.182802 658.302377 
L 121.699289 658.046224 
L 121.957532 657.910291 
L 122.301857 657.655923 
L 123.9374 656.833032 
L 124.367806 656.744239 
L 125.228617 656.041247 
L 126.003348 655.353956 
L 127.897134 654.242934 
L 129.79092 652.239364 
L 130.307408 652.158894 
L 130.823895 651.588787 
L 131.254301 651.202487 
L 131.598625 651.121747 
L 131.770788 651.372054 
L 132.029031 652.23998 
L 132.373356 654.33038 
L 132.889843 658.39684 
L 133.320249 660.261607 
L 133.578493 660.68048 
L 133.836736 660.866678 
L 134.181061 661.710614 
L 134.697548 663.148143 
L 135.386198 664.469057 
L 136.160928 665.49119 
L 137.366065 666.555257 
L 138.48512 667.232024 
L 140.034582 667.880607 
L 140.895394 668.10707 
L 141.153637 667.968988 
L 141.411881 667.664682 
L 141.842287 666.757158 
L 143.563911 662.833376 
L 143.994317 662.380637 
L 144.510804 662.211545 
L 145.027291 662.010526 
L 146.060265 661.39202 
L 146.490671 661.272222 
L 147.093239 661.251639 
L 147.351483 661.022373 
L 147.781889 660.279503 
L 148.728782 658.527429 
L 148.987026 658.420638 
L 149.245269 658.637934 
L 150.02 659.777129 
L 150.364325 660.034725 
L 150.880812 660.483179 
L 151.139055 660.354078 
L 151.569461 660.162556 
L 152.516354 660.069254 
L 152.860679 659.382283 
L 153.549329 657.950764 
L 153.893653 657.660993 
L 154.151897 657.698081 
L 154.496222 658.089023 
L 154.840546 658.830983 
L 155.184871 660.162716 
L 155.701358 662.14278 
L 156.045683 662.889621 
L 156.303927 663.057379 
L 156.820414 662.91142 
L 157.078657 662.683916 
L 157.422982 662.14722 
L 158.800281 659.760405 
L 159.058525 659.641567 
L 159.230687 659.789141 
L 159.488931 660.530217 
L 160.091499 662.41455 
L 160.349742 662.483835 
L 160.607986 662.091224 
L 161.296636 660.164848 
L 162.501772 656.574068 
L 162.846097 655.992183 
L 163.018259 656.054558 
L 163.190422 656.541261 
L 164.223396 661.44492 
L 164.395558 661.60403 
L 164.567721 661.57471 
L 165.170289 661.300386 
L 166.031101 660.536336 
L 166.289344 660.407992 
L 166.547588 660.557734 
L 166.71975 660.85967 
L 167.666643 663.185396 
L 167.838806 663.222186 
L 168.613537 662.109664 
L 169.990836 659.794247 
L 170.593404 658.89898 
L 171.368135 657.6898 
L 171.540297 657.618951 
L 171.712459 657.765531 
L 171.884622 658.225885 
L 172.917596 662.39172 
L 173.261921 662.747473 
L 173.778408 662.944597 
L 174.553139 663.666982 
L 174.725301 663.587787 
L 175.069626 663.059213 
L 175.586113 661.807179 
L 176.791249 658.735625 
L 177.135574 658.469014 
L 177.824224 658.38372 
L 178.082467 658.002121 
L 178.771117 656.386628 
L 179.201523 655.617052 
L 179.373685 655.565038 
L 179.545848 655.73562 
L 180.320578 656.916775 
L 181.611796 657.856588 
L 181.87004 657.610262 
L 182.214364 657.307311 
L 182.386527 657.422501 
L 182.64477 658.110499 
L 183.419501 661.110951 
L 183.591663 661.136973 
L 184.280313 660.503367 
L 184.624638 660.462881 
L 184.7968 660.592835 
L 185.055044 661.09883 
L 185.571531 662.622643 
L 185.915855 662.80886 
L 186.604505 662.37889 
L 187.120992 662.201572 
L 187.465317 661.843147 
L 187.809642 661.095545 
L 188.670454 658.923384 
L 188.842616 658.837174 
L 189.014778 658.982625 
L 189.186941 659.413749 
L 189.87559 661.887018 
L 189.961671 661.864702 
L 190.047753 661.994214 
L 190.650321 661.070734 
L 191.080727 660.223344 
L 191.769376 658.702775 
L 191.941539 658.570817 
L 192.113701 658.68691 
L 192.285863 659.197003 
L 192.888432 661.714469 
L 193.577081 663.609915 
L 194.265731 664.851889 
L 195.126543 665.92104 
L 196.159517 666.797204 
L 197.364654 667.501341 
L 198.914115 668.127362 
L 200.807901 668.66421 
L 200.980064 668.592434 
L 201.066145 668.456221 
L 201.238307 667.614474 
L 201.410469 667.586896 
L 201.582632 666.820614 
L 202.013038 661.323832 
L 202.271281 656.603757 
L 202.615606 646.25851 
L 203.734662 609.629012 
L 203.820743 610.279899 
L 204.165068 615.404837 
L 204.423311 613.865404 
L 204.509392 613.947113 
L 204.681555 614.947254 
L 204.767636 614.912512 
L 205.025879 613.688987 
L 206.058854 620.87585 
L 206.144935 620.938514 
L 206.231016 621.291637 
L 207.522234 633.472181 
L 207.608315 633.596487 
L 208.727371 638.241618 
L 208.899533 638.686128 
L 209.41602 640.740114 
L 209.674264 641.764247 
L 210.018588 643.036381 
L 210.276832 643.939895 
L 210.707238 645.901859 
L 211.309806 647.013154 
L 211.56805 647.217565 
L 211.740212 647.130044 
L 212.084537 646.60261 
L 212.256699 645.952339 
L 212.601024 642.896929 
L 212.859268 639.665791 
L 213.547917 625.368987 
L 213.892242 613.251378 
L 214.064404 595.384648 
L 214.753054 517.996638 
L 215.011297 507.905979 
L 215.18346 506.737775 
L 215.269541 507.179405 
L 215.355622 511.506495 
L 215.613866 561.798507 
L 215.95819 618.539747 
L 216.302515 639.731475 
L 216.64684 648.383454 
L 216.732921 648.465633 
L 216.819002 649.02039 
L 216.905083 648.932376 
L 216.991165 648.476321 
L 217.077246 648.556414 
L 217.335489 649.944808 
L 217.765895 655.307574 
L 218.11022 658.005449 
L 218.368464 658.576393 
L 218.540626 658.471268 
L 218.884951 658.403538 
L 219.229276 659.431244 
L 219.917925 662.158206 
L 220.520493 663.715037 
L 221.209143 664.928415 
L 222.069955 665.981045 
L 223.619416 667.161625 
L 224.910634 667.793006 
L 226.287933 668.281553 
L 228.009557 668.725644 
L 228.95645 668.834462 
L 229.300775 668.629905 
L 229.903343 667.940119 
L 231.022398 666.474081 
L 232.399697 664.432183 
L 233.174428 662.782342 
L 235.670783 655.801781 
L 236.359432 653.872413 
L 236.617676 653.606798 
L 236.789838 653.689146 
L 236.962 653.999179 
L 237.220244 654.956706 
L 237.564569 657.156657 
L 237.994975 659.794629 
L 238.253218 660.377253 
L 238.425381 660.431206 
L 239.027949 659.835064 
L 239.286193 659.571066 
L 239.888761 658.38419 
L 240.57741 656.747761 
L 240.835654 656.544378 
L 241.007816 656.658299 
L 241.179979 657.091612 
L 241.524303 658.946711 
L 241.868628 660.441511 
L 241.954709 660.416559 
L 242.040791 660.585376 
L 242.643359 659.47062 
L 243.159846 658.741525 
L 243.934577 657.887718 
L 244.795389 656.192464 
L 244.967551 656.27976 
L 245.225795 656.787031 
L 245.570119 657.394835 
L 245.742282 657.39527 
L 246.000525 657.032955 
L 246.689175 655.848133 
L 246.861337 656.094873 
L 247.119581 657.430584 
L 247.80823 660.987946 
L 248.238636 662.49329 
L 248.582961 663.147804 
L 248.841204 663.136573 
L 249.702016 662.098157 
L 250.734991 661.458321 
L 251.165397 660.560588 
L 252.11229 658.377593 
L 252.370533 658.174616 
L 252.628777 658.244847 
L 253.403507 658.958541 
L 254.006076 658.651632 
L 254.350401 658.204589 
L 254.694725 657.522986 
L 255.297294 656.284146 
L 255.555537 656.143734 
L 255.813781 656.376624 
L 258.137973 660.178822 
L 258.826622 659.696927 
L 258.998785 659.894546 
L 259.257028 660.627193 
L 259.773515 662.128123 
L 259.945678 662.211365 
L 260.11784 662.124486 
L 260.462165 661.661094 
L 260.892571 660.729677 
L 261.753383 658.724866 
L 262.26987 658.211684 
L 262.872438 657.660231 
L 263.130682 657.819128 
L 263.73325 658.521928 
L 263.991494 658.231221 
L 264.507981 657.039705 
L 265.627036 653.853468 
L 265.799199 653.978255 
L 265.971361 654.642129 
L 266.918254 660.692482 
L 267.520822 662.653359 
L 267.779066 662.971588 
L 268.03731 662.968124 
L 268.467716 662.640974 
L 268.898121 661.896361 
L 269.50069 660.379163 
L 270.017177 658.660152 
L 270.96407 655.362921 
L 271.136232 655.177094 
L 271.308395 655.343204 
L 271.480557 656.017283 
L 272.169207 660.26643 
L 272.771775 662.109164 
L 272.943937 662.119238 
L 273.030019 662.07968 
L 274.665561 658.729374 
L 275.182048 657.307336 
L 275.440292 657.09474 
L 275.612454 657.225012 
L 276.04286 658.164685 
L 276.301104 658.530025 
L 276.473266 658.470582 
L 276.817591 657.757851 
L 277.247997 656.89783 
L 278.108809 656.112073 
L 278.280971 656.100775 
L 278.453133 656.306183 
L 278.625296 656.835511 
L 279.744351 662.159299 
L 280.34692 663.714232 
L 281.207731 665.167295 
L 281.982462 666.05503 
L 282.929355 666.831094 
L 284.134492 667.525668 
L 285.683953 668.144187 
L 287.577739 668.659184 
L 288.180308 668.731594 
L 288.35247 668.510332 
L 288.524632 668.437451 
L 288.955038 668.185712 
L 289.729769 667.956975 
L 290.246256 668.051776 
L 290.676662 668.212127 
L 294.205991 669.044629 
L 297.304914 669.48982 
L 298.165726 669.53884 
L 298.682213 669.087458 
L 298.940456 668.769634 
L 300.575999 665.413635 
L 301.178567 663.20953 
L 301.953298 659.330351 
L 303.072353 652.26917 
L 303.933165 645.371349 
L 304.621815 639.233652 
L 304.96614 637.477313 
L 305.568708 636.745393 
L 305.826951 637.123788 
L 305.913033 637.060943 
L 306.171276 636.612611 
L 306.343439 637.114973 
L 306.515601 637.76543 
L 306.601682 637.789917 
L 307.032088 637.303966 
L 307.20425 637.00388 
L 307.462494 636.351587 
L 307.720738 636.35035 
L 308.065062 635.900391 
L 308.323306 636.142162 
L 308.667631 635.784713 
L 308.925874 636.450405 
L 309.011955 636.411776 
L 309.270199 636.125411 
L 309.442361 636.865899 
L 309.700605 637.823182 
L 310.04493 637.659374 
L 310.303173 637.968537 
L 310.475336 638.086429 
L 310.647498 638.74325 
L 311.077904 640.615409 
L 311.163985 640.825894 
L 311.250066 640.755047 
L 311.336148 640.560443 
L 311.852635 637.112177 
L 312.024797 634.200176 
L 312.455203 624.332383 
L 312.541284 624.713181 
L 312.713447 628.548483 
L 313.229934 647.270783 
L 313.488177 651.479673 
L 313.574258 651.515481 
L 313.746421 651.84063 
L 313.832502 651.564058 
L 313.918583 651.69244 
L 314.090746 652.293891 
L 314.607233 657.296206 
L 315.12372 660.244754 
L 315.554126 661.94209 
L 316.156694 663.559542 
L 316.845344 664.813997 
L 317.533993 665.657688 
L 317.964399 665.804401 
L 320.030348 665.666229 
L 321.063322 665.430496 
L 322.096296 665.18277 
L 322.526702 665.253539 
L 322.957108 665.622432 
L 323.387514 666.094737 
L 324.506569 666.973136 
L 325.711706 667.624285 
L 327.261167 668.212256 
L 329.413197 668.783338 
L 332.253876 669.293056 
L 336.299692 669.766461 
L 341.89497 670.176622 
L 350.503088 670.548289 
L 362.89878 670.842742 
L 383.816508 671.088267 
L 419.884527 671.254508 
L 489.265965 671.320496 
L 671.155517 671.334041 
L 671.155517 671.334041 
" clip-path="url(#p19afba59a2)" style="fill: none; stroke: #1f77b4; stroke-width: 1.5; stroke-linecap: square"/>
   </g>
   <g id="line2d_30">
    <path d="M 51.54312 671.339272 
L 53.264744 671.236119 
L 53.867312 671.03143 
L 54.555961 670.412 
L 55.588936 669.404293 
L 56.62191 668.732365 
L 59.032183 667.61333 
L 59.979076 667.471139 
L 60.667726 667.503339 
L 61.098132 667.729407 
L 61.786781 668.413038 
L 63.16408 669.833638 
L 64.024892 670.399587 
L 64.885704 670.709017 
L 65.402191 670.742552 
L 65.832597 670.585889 
L 66.263003 670.196415 
L 66.951653 669.108534 
L 68.070708 666.590811 
L 71.169631 657.613405 
L 72.374768 653.205895 
L 74.440716 642.497224 
L 74.785041 641.200145 
L 75.904096 637.315628 
L 76.248421 636.617321 
L 76.937071 636.142633 
L 77.109233 636.082407 
L 77.797882 635.241553 
L 78.572613 633.588684 
L 78.830857 633.354658 
L 79.175181 633.261444 
L 79.433425 633.694301 
L 80.035993 635.815724 
L 80.638562 638.454648 
L 80.724643 638.542427 
L 80.896805 637.528689 
L 81.24113 632.710041 
L 81.757617 625.546893 
L 82.015861 624.161081 
L 82.101942 624.195428 
L 82.274104 625.324853 
L 82.532348 630.413031 
L 83.220997 648.847836 
L 83.479241 651.127379 
L 84.426134 655.674969 
L 84.512215 655.471188 
L 84.684378 653.627283 
L 84.942621 647.549481 
L 85.200865 632.84357 
L 85.717352 582.237167 
L 86.492082 493.111731 
L 86.836407 477.735857 
L 87.180732 463.843306 
L 88.299787 418.975888 
L 88.644112 410.0686 
L 89.246681 404.73187 
L 89.418843 404.919785 
L 89.763168 404.157663 
L 90.021411 404.780423 
L 90.193574 404.073182 
L 90.451817 402.929695 
L 90.710061 402.673536 
L 90.882223 402.586499 
L 91.054385 403.548868 
L 91.570873 409.97303 
L 92.001279 420.034073 
L 92.689928 440.371696 
L 94.497633 500.440334 
L 95.70277 540.907406 
L 96.219257 550.981818 
L 96.4775 552.937381 
L 96.735744 553.688205 
L 96.821825 553.467643 
L 96.993987 551.329596 
L 97.424393 541.577835 
L 97.768718 518.802655 
L 98.285205 484.544837 
L 98.457368 480.041349 
L 98.543449 479.744908 
L 98.62953 480.852871 
L 98.801692 487.385126 
L 99.059936 508.421785 
L 100.006829 604.49129 
L 100.351154 613.23272 
L 101.125885 622.881582 
L 102.675346 641.555315 
L 103.622239 650.349526 
L 104.655213 658.043986 
L 105.343863 661.613252 
L 106.032512 664.059285 
L 106.635081 665.507438 
L 107.237649 666.477023 
L 108.01238 667.252925 
L 108.78711 667.69758 
L 109.561841 667.949093 
L 110.853059 667.968504 
L 113.435495 667.462156 
L 113.951982 666.707842 
L 115.673605 662.271711 
L 116.448336 661.635688 
L 116.70658 661.725731 
L 117.223067 662.327661 
L 117.997798 663.274347 
L 118.686447 663.856944 
L 119.289015 664.092466 
L 120.149827 664.163987 
L 122.129695 663.682802 
L 122.904425 663.283347 
L 124.539968 662.335505 
L 126.950241 660.521427 
L 127.724972 659.853318 
L 128.241459 659.383206 
L 129.274433 658.343833 
L 131.340382 656.457205 
L 131.684707 656.539414 
L 132.115113 656.943067 
L 132.717681 657.934902 
L 133.320249 659.418798 
L 134.181061 662.332381 
L 135.300116 665.861314 
L 136.160928 667.814657 
L 136.935659 669.032502 
L 137.71039 669.855478 
L 138.571202 670.445816 
L 139.432014 670.785998 
L 140.292825 670.741597 
L 140.63715 670.51203 
L 141.067556 669.926652 
L 141.497962 668.777491 
L 142.617018 665.38372 
L 143.133505 664.687405 
L 143.477829 664.512593 
L 143.822154 664.547681 
L 144.94121 665.190371 
L 145.629859 664.983832 
L 146.662833 664.583841 
L 147.609726 664.228487 
L 148.040132 663.763473 
L 148.728782 662.955253 
L 149.073107 662.761598 
L 149.503513 662.761329 
L 150.450406 663.062892 
L 151.139055 663.557489 
L 151.741624 663.352131 
L 152.085948 663.260884 
L 152.774598 663.21956 
L 153.118923 662.852677 
L 153.893653 662.032062 
L 154.237978 661.997358 
L 154.668384 662.152324 
L 155.270952 662.599542 
L 155.873521 663.417331 
L 156.820414 664.726478 
L 157.164738 664.91243 
L 157.422982 664.752165 
L 158.369875 663.818322 
L 159.488931 663.511604 
L 159.919336 663.677719 
L 160.694067 664.076424 
L 160.952311 663.865054 
L 161.296636 663.218229 
L 162.157447 661.569896 
L 162.673935 661.217947 
L 163.190422 661.103413 
L 163.534746 661.251841 
L 163.79299 661.513355 
L 165.170289 663.327699 
L 165.600695 663.686648 
L 166.031101 663.749077 
L 166.633669 663.704995 
L 166.977994 663.857349 
L 168.097049 664.722976 
L 168.527455 664.573097 
L 169.216105 663.982706 
L 169.904754 663.181369 
L 171.970703 662.156865 
L 172.315028 662.36765 
L 172.745434 662.999937 
L 173.434083 664.033181 
L 174.725301 665.311986 
L 175.069626 665.124352 
L 175.500032 664.413917 
L 176.360844 663.058165 
L 177.307737 662.108118 
L 178.082467 661.686041 
L 178.771117 661.027507 
L 179.545848 660.315734 
L 179.976253 660.252393 
L 181.697877 660.738119 
L 182.128283 660.989645 
L 182.903014 661.193104 
L 183.419501 661.772619 
L 184.194232 662.659675 
L 185.571531 663.868505 
L 186.001937 664.283922 
L 186.346261 664.384636 
L 187.034911 664.342088 
L 187.72356 664.281666 
L 188.240048 663.61942 
L 188.928697 662.843937 
L 189.186941 662.776957 
L 189.445184 662.919848 
L 189.961671 663.337576 
L 190.305996 663.355951 
L 190.736402 663.191584 
L 192.02762 662.697118 
L 192.371945 662.789706 
L 192.716269 663.180884 
L 193.146675 664.175008 
L 194.523974 667.871989 
L 195.212624 668.996628 
L 195.987355 669.844283 
L 196.848166 670.443119 
L 197.79506 670.831209 
L 199.086277 671.105579 
L 200.72182 671.27649 
L 201.152226 670.551363 
L 201.410469 668.926349 
L 201.668713 665.769122 
L 202.099119 655.8127 
L 202.529525 639.968851 
L 202.959931 625.884957 
L 203.218174 622.361745 
L 203.304256 622.221051 
L 203.476418 622.958962 
L 203.906824 625.697266 
L 204.251149 627.571466 
L 204.595473 628.08281 
L 204.681555 628.045163 
L 204.939798 626.833641 
L 205.628448 623.623963 
L 205.80061 623.400969 
L 206.231016 623.446842 
L 206.48926 624.209754 
L 207.694396 628.889918 
L 208.038721 629.845616 
L 208.813452 632.035196 
L 209.588182 635.313621 
L 210.621157 640.125997 
L 211.481969 643.269561 
L 211.740212 643.633191 
L 211.912374 643.644124 
L 212.084537 643.451351 
L 212.34278 642.333892 
L 212.773186 639.273544 
L 213.117511 634.179876 
L 213.461836 626.300807 
L 213.892242 608.599857 
L 214.150485 586.987661 
L 215.011297 499.03363 
L 215.18346 496.963506 
L 215.355622 502.942909 
L 215.613866 527.621781 
L 216.474677 638.610952 
L 216.732921 646.427395 
L 216.905083 647.445737 
L 217.077246 647.413489 
L 217.249408 647.302528 
L 217.421571 647.470499 
L 217.679814 648.262019 
L 218.282382 651.329793 
L 219.745763 658.979513 
L 221.295224 665.574846 
L 221.983874 667.484278 
L 222.672523 668.775372 
L 223.361173 669.638599 
L 224.135903 670.269805 
L 225.082796 670.73374 
L 226.201852 671.026543 
L 227.406988 671.095966 
L 228.095638 670.856658 
L 228.784287 670.087877 
L 229.386856 669.047601 
L 230.678074 666.774786 
L 231.10848 666.431913 
L 231.452804 666.346838 
L 231.969291 666.228738 
L 232.313616 665.954962 
L 233.604834 664.187562 
L 234.72389 662.2587 
L 235.326458 661.235522 
L 236.359432 659.463874 
L 236.789838 659.202163 
L 237.220244 659.274566 
L 237.736731 659.672908 
L 238.425381 660.596014 
L 239.027949 661.40022 
L 239.372274 661.595502 
L 239.716598 661.556883 
L 241.179979 660.985077 
L 241.610385 661.059489 
L 241.954709 661.418497 
L 242.385115 661.889188 
L 242.643359 661.975793 
L 242.987684 661.787558 
L 243.848496 661.395775 
L 244.278901 661.341435 
L 244.623226 661.145483 
L 245.053632 660.731271 
L 245.570119 660.330447 
L 245.914444 660.399286 
L 247.377824 660.997493 
L 247.894311 661.787531 
L 249.185529 664.243521 
L 249.443773 664.237075 
L 250.132422 664.076205 
L 250.821072 664.14302 
L 251.165397 663.799384 
L 252.456614 662.241316 
L 252.88702 662.174063 
L 253.833913 661.984762 
L 255.125131 661.132933 
L 255.813781 660.651588 
L 256.158106 660.667535 
L 257.277161 661.267648 
L 257.707567 661.618276 
L 258.65446 662.5402 
L 259.429191 662.909394 
L 260.462165 663.509617 
L 260.80649 663.520089 
L 261.236896 663.026853 
L 261.925545 662.093759 
L 262.355951 661.949433 
L 262.786357 661.858446 
L 263.73325 661.400424 
L 264.163656 661.099368 
L 264.594062 660.450331 
L 265.110549 659.752217 
L 265.540955 659.540288 
L 265.971361 659.625069 
L 266.401767 659.961884 
L 266.746092 660.489459 
L 268.381634 663.846499 
L 268.725959 663.97252 
L 268.984203 663.737171 
L 269.586771 662.563844 
L 270.361502 661.083103 
L 270.791908 660.61023 
L 271.136232 660.484808 
L 271.652719 660.567757 
L 272.083125 660.883112 
L 272.42745 661.467767 
L 273.1161 662.74739 
L 273.288262 662.829856 
L 273.632587 662.713293 
L 274.235155 662.362248 
L 274.665561 662.151283 
L 275.095967 661.778953 
L 275.698535 661.168515 
L 275.956779 661.037873 
L 276.301104 661.14439 
L 276.817591 661.134607 
L 277.247997 660.708002 
L 277.678403 660.378746 
L 278.022727 660.403661 
L 278.625296 660.746495 
L 279.055702 661.188754 
L 279.486108 661.998543 
L 280.002595 663.589746 
L 281.035569 666.884453 
L 281.724219 668.360507 
L 282.412868 669.357294 
L 283.187599 670.090028 
L 284.048411 670.59315 
L 285.081385 670.938164 
L 286.286522 671.110887 
L 287.663821 670.546001 
L 287.922064 670.235524 
L 288.35247 669.200988 
L 288.868957 668.028274 
L 289.127201 667.798674 
L 289.385444 667.849527 
L 289.81585 668.323217 
L 290.934906 669.704237 
L 291.795718 670.355552 
L 292.914773 670.62467 
L 293.43126 670.576667 
L 293.775585 670.259502 
L 294.550316 669.299676 
L 294.89464 669.277542 
L 295.325046 669.539718 
L 296.444102 670.288625 
L 296.960589 670.408181 
L 297.390995 670.339818 
L 297.993563 669.858441 
L 298.682213 668.777729 
L 299.887349 666.002999 
L 302.383704 658.686084 
L 303.072353 655.939205 
L 303.674922 652.244567 
L 305.052221 643.147681 
L 305.568708 641.240767 
L 307.376413 637.023847 
L 308.151144 634.998504 
L 308.581549 634.302665 
L 308.753712 634.256105 
L 308.925874 634.30364 
L 309.270199 634.323016 
L 309.872767 634.778136 
L 310.561417 635.804453 
L 311.250066 637.716775 
L 311.422229 636.725681 
L 311.766553 632.09414 
L 312.283041 625.285532 
L 312.541284 623.982247 
L 312.627365 624.041035 
L 312.799528 625.20446 
L 313.057771 630.286655 
L 313.746421 648.372155 
L 314.090746 651.028898 
L 314.779395 654.198417 
L 316.156694 661.808611 
L 316.759262 663.761812 
L 317.361831 665.070245 
L 317.964399 665.929975 
L 318.73913 666.603271 
L 319.51386 666.971902 
L 320.288591 667.164954 
L 322.784946 667.258532 
L 323.301433 667.629958 
L 324.248326 668.689256 
L 325.367381 669.824155 
L 326.228193 670.394665 
L 327.175086 670.75821 
L 327.863736 670.82958 
L 329.068872 670.76434 
L 331.737389 671.209816 
L 334.578068 671.315755 
L 344.305243 671.339206 
L 671.155517 671.339272 
L 671.155517 671.339272 
" clip-path="url(#p19afba59a2)" style="fill: none; stroke: #ff7f0e; stroke-width: 1.5; stroke-linecap: square"/>
   </g>
   <g id="patch_9">
    <path d="M 20.5625 684.92 
L 20.5625 386.16 
" style="fill: none; stroke: #000000; stroke-width: 0.8; stroke-linejoin: miter; stroke-linecap: square"/>
   </g>
   <g id="patch_10">
    <path d="M 702.136136 684.92 
L 702.136136 386.16 
" style="fill: none; stroke: #000000; stroke-width: 0.8; stroke-linejoin: miter; stroke-linecap: square"/>
   </g>
   <g id="patch_11">
    <path d="M 20.5625 684.92 
L 702.136136 684.92 
" style="fill: none; stroke: #000000; stroke-width: 0.8; stroke-linejoin: miter; stroke-linecap: square"/>
   </g>
   <g id="patch_12">
    <path d="M 20.5625 386.16 
L 702.136136 386.16 
" style="fill: none; stroke: #000000; stroke-width: 0.8; stroke-linejoin: miter; stroke-linecap: square"/>
   </g>
   <g id="text_28">
    <!-- 2 transformation(s) -->
    <g transform="translate(303.234631 380.16) scale(0.12 -0.12)">
     <use xlink:href="#DejaVuSans-32"/>
     <use xlink:href="#DejaVuSans-20" x="63.623047"/>
     <use xlink:href="#DejaVuSans-74" x="95.410156"/>
     <use xlink:href="#DejaVuSans-72" x="134.619141"/>
     <use xlink:href="#DejaVuSans-61" x="175.732422"/>
     <use xlink:href="#DejaVuSans-6e" x="237.011719"/>
     <use xlink:href="#DejaVuSans-73" x="300.390625"/>
     <use xlink:href="#DejaVuSans-66" x="352.490234"/>
     <use xlink:href="#DejaVuSans-6f" x="387.695312"/>
     <use xlink:href="#DejaVuSans-72" x="448.876953"/>
     <use xlink:href="#DejaVuSans-6d" x="488.240234"/>
     <use xlink:href="#DejaVuSans-61" x="585.652344"/>
     <use xlink:href="#DejaVuSans-74" x="646.931641"/>
     <use xlink:href="#DejaVuSans-69" x="686.140625"/>
     <use xlink:href="#DejaVuSans-6f" x="713.923828"/>
     <use xlink:href="#DejaVuSans-6e" x="775.105469"/>
     <use xlink:href="#DejaVuSans-28" x="838.484375"/>
     <use xlink:href="#DejaVuSans-73" x="877.498047"/>
     <use xlink:href="#DejaVuSans-29" x="929.597656"/>
    </g>
   </g>
  </g>
  <g id="text_29">
   <!-- training -->
   <g transform="translate(333.129063 16.318125) scale(0.12 -0.12)">
    <defs>
     <path id="DejaVuSans-67" d="M 2906 1791 
Q 2906 2416 2648 2759 
Q 2391 3103 1925 3103 
Q 1463 3103 1205 2759 
Q 947 2416 947 1791 
Q 947 1169 1205 825 
Q 1463 481 1925 481 
Q 2391 481 2648 825 
Q 2906 1169 2906 1791 
z
M 3481 434 
Q 3481 -459 3084 -895 
Q 2688 -1331 1869 -1331 
Q 1566 -1331 1297 -1286 
Q 1028 -1241 775 -1147 
L 775 -588 
Q 1028 -725 1275 -790 
Q 1522 -856 1778 -856 
Q 2344 -856 2625 -561 
Q 2906 -266 2906 331 
L 2906 616 
Q 2728 306 2450 153 
Q 2172 0 1784 0 
Q 1141 0 747 490 
Q 353 981 353 1791 
Q 353 2603 747 3093 
Q 1141 3584 1784 3584 
Q 2172 3584 2450 3431 
Q 2728 3278 2906 2969 
L 2906 3500 
L 3481 3500 
L 3481 434 
z
" transform="scale(0.015625)"/>
    </defs>
    <use xlink:href="#DejaVuSans-74"/>
    <use xlink:href="#DejaVuSans-72" x="39.208984"/>
    <use xlink:href="#DejaVuSans-61" x="80.322266"/>
    <use xlink:href="#DejaVuSans-69" x="141.601562"/>
    <use xlink:href="#DejaVuSans-6e" x="169.384766"/>
    <use xlink:href="#DejaVuSans-69" x="232.763672"/>
    <use xlink:href="#DejaVuSans-6e" x="260.546875"/>
    <use xlink:href="#DejaVuSans-67" x="323.925781"/>
   </g>
  </g>
 </g>
 <defs>
  <clipPath id="pd8a82e182e">
   <rect x="20.5625" y="43.44" width="681.573636" height="298.76"/>
  </clipPath>
  <clipPath id="p19afba59a2">
   <rect x="20.5625" y="386.16" width="681.573636" height="298.76"/>
  </clipPath>
 </defs>
</svg>
