<?xml version="1.0" encoding="utf-8" standalone="no"?>
<!DOCTYPE svg PUBLIC "-//W3C//DTD SVG 1.1//EN"
  "http://www.w3.org/Graphics/SVG/1.1/DTD/svg11.dtd">
<svg xmlns:xlink="http://www.w3.org/1999/xlink" width="709.426761pt" height="708.798125pt" viewBox="0 0 709.426761 708.798125" xmlns="http://www.w3.org/2000/svg" version="1.1">
 <metadata>
  <rdf:RDF xmlns:dc="http://purl.org/dc/elements/1.1/" xmlns:cc="http://creativecommons.org/ns#" xmlns:rdf="http://www.w3.org/1999/02/22-rdf-syntax-ns#">
   <cc:Work>
    <dc:type rdf:resource="http://purl.org/dc/dcmitype/StillImage"/>
    <dc:date>2023-05-26T22:33:40.748800</dc:date>
    <dc:format>image/svg+xml</dc:format>
    <dc:creator>
     <cc:Agent>
      <dc:title>Matplotlib v3.7.1, https://matplotlib.org/</dc:title>
     </cc:Agent>
    </dc:creator>
   </cc:Work>
  </rdf:RDF>
 </metadata>
 <defs>
  <style type="text/css">*{stroke-linejoin: round; stroke-linecap: butt}</style>
 </defs>
 <g id="figure_1">
  <g id="patch_1">
   <path d="M 0 708.798125 
L 709.426761 708.798125 
L 709.426761 0 
L 0 0 
z
" style="fill: #ffffff"/>
  </g>
  <g id="axes_1">
   <g id="patch_2">
    <path d="M 30.103125 342.2 
L 702.226761 342.2 
L 702.226761 43.44 
L 30.103125 43.44 
z
" style="fill: #ffffff"/>
   </g>
   <g id="matplotlib.axis_1">
    <g id="xtick_1">
     <g id="line2d_1">
      <defs>
       <path id="me505d1703e" d="M 0 0 
L 0 3.5 
" style="stroke: #000000; stroke-width: 0.8"/>
      </defs>
      <g>
       <use xlink:href="#me505d1703e" x="60.484424" y="342.2" style="stroke: #000000; stroke-width: 0.8"/>
      </g>
     </g>
     <g id="text_1">
      <!-- 2014-07-01 -->
      <g transform="translate(31.426612 356.798437) scale(0.1 -0.1)">
       <defs>
        <path id="DejaVuSans-32" d="M 1228 531 
L 3431 531 
L 3431 0 
L 469 0 
L 469 531 
Q 828 903 1448 1529 
Q 2069 2156 2228 2338 
Q 2531 2678 2651 2914 
Q 2772 3150 2772 3378 
Q 2772 3750 2511 3984 
Q 2250 4219 1831 4219 
Q 1534 4219 1204 4116 
Q 875 4013 500 3803 
L 500 4441 
Q 881 4594 1212 4672 
Q 1544 4750 1819 4750 
Q 2544 4750 2975 4387 
Q 3406 4025 3406 3419 
Q 3406 3131 3298 2873 
Q 3191 2616 2906 2266 
Q 2828 2175 2409 1742 
Q 1991 1309 1228 531 
z
" transform="scale(0.015625)"/>
        <path id="DejaVuSans-30" d="M 2034 4250 
Q 1547 4250 1301 3770 
Q 1056 3291 1056 2328 
Q 1056 1369 1301 889 
Q 1547 409 2034 409 
Q 2525 409 2770 889 
Q 3016 1369 3016 2328 
Q 3016 3291 2770 3770 
Q 2525 4250 2034 4250 
z
M 2034 4750 
Q 2819 4750 3233 4129 
Q 3647 3509 3647 2328 
Q 3647 1150 3233 529 
Q 2819 -91 2034 -91 
Q 1250 -91 836 529 
Q 422 1150 422 2328 
Q 422 3509 836 4129 
Q 1250 4750 2034 4750 
z
" transform="scale(0.015625)"/>
        <path id="DejaVuSans-31" d="M 794 531 
L 1825 531 
L 1825 4091 
L 703 3866 
L 703 4441 
L 1819 4666 
L 2450 4666 
L 2450 531 
L 3481 531 
L 3481 0 
L 794 0 
L 794 531 
z
" transform="scale(0.015625)"/>
        <path id="DejaVuSans-34" d="M 2419 4116 
L 825 1625 
L 2419 1625 
L 2419 4116 
z
M 2253 4666 
L 3047 4666 
L 3047 1625 
L 3713 1625 
L 3713 1100 
L 3047 1100 
L 3047 0 
L 2419 0 
L 2419 1100 
L 313 1100 
L 313 1709 
L 2253 4666 
z
" transform="scale(0.015625)"/>
        <path id="DejaVuSans-2d" d="M 313 2009 
L 1997 2009 
L 1997 1497 
L 313 1497 
L 313 2009 
z
" transform="scale(0.015625)"/>
        <path id="DejaVuSans-37" d="M 525 4666 
L 3525 4666 
L 3525 4397 
L 1831 0 
L 1172 0 
L 2766 4134 
L 525 4134 
L 525 4666 
z
" transform="scale(0.015625)"/>
       </defs>
       <use xlink:href="#DejaVuSans-32"/>
       <use xlink:href="#DejaVuSans-30" x="63.623047"/>
       <use xlink:href="#DejaVuSans-31" x="127.246094"/>
       <use xlink:href="#DejaVuSans-34" x="190.869141"/>
       <use xlink:href="#DejaVuSans-2d" x="254.492188"/>
       <use xlink:href="#DejaVuSans-30" x="290.576172"/>
       <use xlink:href="#DejaVuSans-37" x="354.199219"/>
       <use xlink:href="#DejaVuSans-2d" x="417.822266"/>
       <use xlink:href="#DejaVuSans-30" x="453.90625"/>
       <use xlink:href="#DejaVuSans-31" x="517.529297"/>
      </g>
     </g>
    </g>
    <g id="xtick_2">
     <g id="line2d_2">
      <g>
       <use xlink:href="#me505d1703e" x="182.722677" y="342.2" style="stroke: #000000; stroke-width: 0.8"/>
      </g>
     </g>
     <g id="text_2">
      <!-- 2014-07-02 -->
      <g transform="translate(153.664864 356.798437) scale(0.1 -0.1)">
       <use xlink:href="#DejaVuSans-32"/>
       <use xlink:href="#DejaVuSans-30" x="63.623047"/>
       <use xlink:href="#DejaVuSans-31" x="127.246094"/>
       <use xlink:href="#DejaVuSans-34" x="190.869141"/>
       <use xlink:href="#DejaVuSans-2d" x="254.492188"/>
       <use xlink:href="#DejaVuSans-30" x="290.576172"/>
       <use xlink:href="#DejaVuSans-37" x="354.199219"/>
       <use xlink:href="#DejaVuSans-2d" x="417.822266"/>
       <use xlink:href="#DejaVuSans-30" x="453.90625"/>
       <use xlink:href="#DejaVuSans-32" x="517.529297"/>
      </g>
     </g>
    </g>
    <g id="xtick_3">
     <g id="line2d_3">
      <g>
       <use xlink:href="#me505d1703e" x="304.960929" y="342.2" style="stroke: #000000; stroke-width: 0.8"/>
      </g>
     </g>
     <g id="text_3">
      <!-- 2014-07-03 -->
      <g transform="translate(275.903117 356.798437) scale(0.1 -0.1)">
       <defs>
        <path id="DejaVuSans-33" d="M 2597 2516 
Q 3050 2419 3304 2112 
Q 3559 1806 3559 1356 
Q 3559 666 3084 287 
Q 2609 -91 1734 -91 
Q 1441 -91 1130 -33 
Q 819 25 488 141 
L 488 750 
Q 750 597 1062 519 
Q 1375 441 1716 441 
Q 2309 441 2620 675 
Q 2931 909 2931 1356 
Q 2931 1769 2642 2001 
Q 2353 2234 1838 2234 
L 1294 2234 
L 1294 2753 
L 1863 2753 
Q 2328 2753 2575 2939 
Q 2822 3125 2822 3475 
Q 2822 3834 2567 4026 
Q 2313 4219 1838 4219 
Q 1578 4219 1281 4162 
Q 984 4106 628 3988 
L 628 4550 
Q 988 4650 1302 4700 
Q 1616 4750 1894 4750 
Q 2613 4750 3031 4423 
Q 3450 4097 3450 3541 
Q 3450 3153 3228 2886 
Q 3006 2619 2597 2516 
z
" transform="scale(0.015625)"/>
       </defs>
       <use xlink:href="#DejaVuSans-32"/>
       <use xlink:href="#DejaVuSans-30" x="63.623047"/>
       <use xlink:href="#DejaVuSans-31" x="127.246094"/>
       <use xlink:href="#DejaVuSans-34" x="190.869141"/>
       <use xlink:href="#DejaVuSans-2d" x="254.492188"/>
       <use xlink:href="#DejaVuSans-30" x="290.576172"/>
       <use xlink:href="#DejaVuSans-37" x="354.199219"/>
       <use xlink:href="#DejaVuSans-2d" x="417.822266"/>
       <use xlink:href="#DejaVuSans-30" x="453.90625"/>
       <use xlink:href="#DejaVuSans-33" x="517.529297"/>
      </g>
     </g>
    </g>
    <g id="xtick_4">
     <g id="line2d_4">
      <g>
       <use xlink:href="#me505d1703e" x="427.199182" y="342.2" style="stroke: #000000; stroke-width: 0.8"/>
      </g>
     </g>
     <g id="text_4">
      <!-- 2014-07-04 -->
      <g transform="translate(398.141369 356.798437) scale(0.1 -0.1)">
       <use xlink:href="#DejaVuSans-32"/>
       <use xlink:href="#DejaVuSans-30" x="63.623047"/>
       <use xlink:href="#DejaVuSans-31" x="127.246094"/>
       <use xlink:href="#DejaVuSans-34" x="190.869141"/>
       <use xlink:href="#DejaVuSans-2d" x="254.492188"/>
       <use xlink:href="#DejaVuSans-30" x="290.576172"/>
       <use xlink:href="#DejaVuSans-37" x="354.199219"/>
       <use xlink:href="#DejaVuSans-2d" x="417.822266"/>
       <use xlink:href="#DejaVuSans-30" x="453.90625"/>
       <use xlink:href="#DejaVuSans-34" x="517.529297"/>
      </g>
     </g>
    </g>
    <g id="xtick_5">
     <g id="line2d_5">
      <g>
       <use xlink:href="#me505d1703e" x="549.437434" y="342.2" style="stroke: #000000; stroke-width: 0.8"/>
      </g>
     </g>
     <g id="text_5">
      <!-- 2014-07-05 -->
      <g transform="translate(520.379622 356.798437) scale(0.1 -0.1)">
       <defs>
        <path id="DejaVuSans-35" d="M 691 4666 
L 3169 4666 
L 3169 4134 
L 1269 4134 
L 1269 2991 
Q 1406 3038 1543 3061 
Q 1681 3084 1819 3084 
Q 2600 3084 3056 2656 
Q 3513 2228 3513 1497 
Q 3513 744 3044 326 
Q 2575 -91 1722 -91 
Q 1428 -91 1123 -41 
Q 819 9 494 109 
L 494 744 
Q 775 591 1075 516 
Q 1375 441 1709 441 
Q 2250 441 2565 725 
Q 2881 1009 2881 1497 
Q 2881 1984 2565 2268 
Q 2250 2553 1709 2553 
Q 1456 2553 1204 2497 
Q 953 2441 691 2322 
L 691 4666 
z
" transform="scale(0.015625)"/>
       </defs>
       <use xlink:href="#DejaVuSans-32"/>
       <use xlink:href="#DejaVuSans-30" x="63.623047"/>
       <use xlink:href="#DejaVuSans-31" x="127.246094"/>
       <use xlink:href="#DejaVuSans-34" x="190.869141"/>
       <use xlink:href="#DejaVuSans-2d" x="254.492188"/>
       <use xlink:href="#DejaVuSans-30" x="290.576172"/>
       <use xlink:href="#DejaVuSans-37" x="354.199219"/>
       <use xlink:href="#DejaVuSans-2d" x="417.822266"/>
       <use xlink:href="#DejaVuSans-30" x="453.90625"/>
       <use xlink:href="#DejaVuSans-35" x="517.529297"/>
      </g>
     </g>
    </g>
    <g id="xtick_6">
     <g id="line2d_6">
      <g>
       <use xlink:href="#me505d1703e" x="671.675687" y="342.2" style="stroke: #000000; stroke-width: 0.8"/>
      </g>
     </g>
     <g id="text_6">
      <!-- 2014-07-06 -->
      <g transform="translate(642.617874 356.798437) scale(0.1 -0.1)">
       <defs>
        <path id="DejaVuSans-36" d="M 2113 2584 
Q 1688 2584 1439 2293 
Q 1191 2003 1191 1497 
Q 1191 994 1439 701 
Q 1688 409 2113 409 
Q 2538 409 2786 701 
Q 3034 994 3034 1497 
Q 3034 2003 2786 2293 
Q 2538 2584 2113 2584 
z
M 3366 4563 
L 3366 3988 
Q 3128 4100 2886 4159 
Q 2644 4219 2406 4219 
Q 1781 4219 1451 3797 
Q 1122 3375 1075 2522 
Q 1259 2794 1537 2939 
Q 1816 3084 2150 3084 
Q 2853 3084 3261 2657 
Q 3669 2231 3669 1497 
Q 3669 778 3244 343 
Q 2819 -91 2113 -91 
Q 1303 -91 875 529 
Q 447 1150 447 2328 
Q 447 3434 972 4092 
Q 1497 4750 2381 4750 
Q 2619 4750 2861 4703 
Q 3103 4656 3366 4563 
z
" transform="scale(0.015625)"/>
       </defs>
       <use xlink:href="#DejaVuSans-32"/>
       <use xlink:href="#DejaVuSans-30" x="63.623047"/>
       <use xlink:href="#DejaVuSans-31" x="127.246094"/>
       <use xlink:href="#DejaVuSans-34" x="190.869141"/>
       <use xlink:href="#DejaVuSans-2d" x="254.492188"/>
       <use xlink:href="#DejaVuSans-30" x="290.576172"/>
       <use xlink:href="#DejaVuSans-37" x="354.199219"/>
       <use xlink:href="#DejaVuSans-2d" x="417.822266"/>
       <use xlink:href="#DejaVuSans-30" x="453.90625"/>
       <use xlink:href="#DejaVuSans-36" x="517.529297"/>
      </g>
     </g>
    </g>
   </g>
   <g id="matplotlib.axis_2">
    <g id="ytick_1">
     <g id="line2d_7">
      <defs>
       <path id="m3f320549b7" d="M 0 0 
L -3.5 0 
" style="stroke: #000000; stroke-width: 0.8"/>
      </defs>
      <g>
       <use xlink:href="#m3f320549b7" x="30.103125" y="328.602066" style="stroke: #000000; stroke-width: 0.8"/>
      </g>
     </g>
     <g id="text_7">
      <!-- 0.0 -->
      <g transform="translate(7.2 332.401285) scale(0.1 -0.1)">
       <defs>
        <path id="DejaVuSans-2e" d="M 684 794 
L 1344 794 
L 1344 0 
L 684 0 
L 684 794 
z
" transform="scale(0.015625)"/>
       </defs>
       <use xlink:href="#DejaVuSans-30"/>
       <use xlink:href="#DejaVuSans-2e" x="63.623047"/>
       <use xlink:href="#DejaVuSans-30" x="95.410156"/>
      </g>
     </g>
    </g>
    <g id="ytick_2">
     <g id="line2d_8">
      <g>
       <use xlink:href="#m3f320549b7" x="30.103125" y="294.772067" style="stroke: #000000; stroke-width: 0.8"/>
      </g>
     </g>
     <g id="text_8">
      <!-- 0.5 -->
      <g transform="translate(7.2 298.571286) scale(0.1 -0.1)">
       <use xlink:href="#DejaVuSans-30"/>
       <use xlink:href="#DejaVuSans-2e" x="63.623047"/>
       <use xlink:href="#DejaVuSans-35" x="95.410156"/>
      </g>
     </g>
    </g>
    <g id="ytick_3">
     <g id="line2d_9">
      <g>
       <use xlink:href="#m3f320549b7" x="30.103125" y="260.942068" style="stroke: #000000; stroke-width: 0.8"/>
      </g>
     </g>
     <g id="text_9">
      <!-- 1.0 -->
      <g transform="translate(7.2 264.741287) scale(0.1 -0.1)">
       <use xlink:href="#DejaVuSans-31"/>
       <use xlink:href="#DejaVuSans-2e" x="63.623047"/>
       <use xlink:href="#DejaVuSans-30" x="95.410156"/>
      </g>
     </g>
    </g>
    <g id="ytick_4">
     <g id="line2d_10">
      <g>
       <use xlink:href="#m3f320549b7" x="30.103125" y="227.112069" style="stroke: #000000; stroke-width: 0.8"/>
      </g>
     </g>
     <g id="text_10">
      <!-- 1.5 -->
      <g transform="translate(7.2 230.911288) scale(0.1 -0.1)">
       <use xlink:href="#DejaVuSans-31"/>
       <use xlink:href="#DejaVuSans-2e" x="63.623047"/>
       <use xlink:href="#DejaVuSans-35" x="95.410156"/>
      </g>
     </g>
    </g>
    <g id="ytick_5">
     <g id="line2d_11">
      <g>
       <use xlink:href="#m3f320549b7" x="30.103125" y="193.28207" style="stroke: #000000; stroke-width: 0.8"/>
      </g>
     </g>
     <g id="text_11">
      <!-- 2.0 -->
      <g transform="translate(7.2 197.081289) scale(0.1 -0.1)">
       <use xlink:href="#DejaVuSans-32"/>
       <use xlink:href="#DejaVuSans-2e" x="63.623047"/>
       <use xlink:href="#DejaVuSans-30" x="95.410156"/>
      </g>
     </g>
    </g>
    <g id="ytick_6">
     <g id="line2d_12">
      <g>
       <use xlink:href="#m3f320549b7" x="30.103125" y="159.452071" style="stroke: #000000; stroke-width: 0.8"/>
      </g>
     </g>
     <g id="text_12">
      <!-- 2.5 -->
      <g transform="translate(7.2 163.25129) scale(0.1 -0.1)">
       <use xlink:href="#DejaVuSans-32"/>
       <use xlink:href="#DejaVuSans-2e" x="63.623047"/>
       <use xlink:href="#DejaVuSans-35" x="95.410156"/>
      </g>
     </g>
    </g>
    <g id="ytick_7">
     <g id="line2d_13">
      <g>
       <use xlink:href="#m3f320549b7" x="30.103125" y="125.622072" style="stroke: #000000; stroke-width: 0.8"/>
      </g>
     </g>
     <g id="text_13">
      <!-- 3.0 -->
      <g transform="translate(7.2 129.421291) scale(0.1 -0.1)">
       <use xlink:href="#DejaVuSans-33"/>
       <use xlink:href="#DejaVuSans-2e" x="63.623047"/>
       <use xlink:href="#DejaVuSans-30" x="95.410156"/>
      </g>
     </g>
    </g>
    <g id="ytick_8">
     <g id="line2d_14">
      <g>
       <use xlink:href="#m3f320549b7" x="30.103125" y="91.792073" style="stroke: #000000; stroke-width: 0.8"/>
      </g>
     </g>
     <g id="text_14">
      <!-- 3.5 -->
      <g transform="translate(7.2 95.591292) scale(0.1 -0.1)">
       <use xlink:href="#DejaVuSans-33"/>
       <use xlink:href="#DejaVuSans-2e" x="63.623047"/>
       <use xlink:href="#DejaVuSans-35" x="95.410156"/>
      </g>
     </g>
    </g>
    <g id="ytick_9">
     <g id="line2d_15">
      <g>
       <use xlink:href="#m3f320549b7" x="30.103125" y="57.962074" style="stroke: #000000; stroke-width: 0.8"/>
      </g>
     </g>
     <g id="text_15">
      <!-- 4.0 -->
      <g transform="translate(7.2 61.761293) scale(0.1 -0.1)">
       <use xlink:href="#DejaVuSans-34"/>
       <use xlink:href="#DejaVuSans-2e" x="63.623047"/>
       <use xlink:href="#DejaVuSans-30" x="95.410156"/>
      </g>
     </g>
    </g>
   </g>
   <g id="line2d_16">
    <path d="M 60.654199 328.602066 
L 79.838814 328.497032 
L 80.687691 328.29961 
L 81.281905 327.940953 
L 81.791231 327.30561 
L 82.215669 326.437741 
L 82.724995 324.815912 
L 83.319209 322.216918 
L 84.252973 318.066504 
L 84.507636 317.72747 
L 84.762299 317.93887 
L 85.441401 318.658077 
L 85.950727 318.92998 
L 86.460053 318.89432 
L 86.969379 318.444578 
L 87.563592 317.319625 
L 88.157806 315.139892 
L 88.667132 312.025557 
L 89.261346 306.549717 
L 90.449773 294.486452 
L 91.213763 290.925684 
L 92.996404 284.384836 
L 93.420842 281.436661 
L 93.590617 280.502702 
L 93.930168 276.992509 
L 94.269719 274.97533 
L 94.94882 263.069437 
L 96.137248 230.693038 
L 96.476798 221.402973 
L 97.410563 208.54573 
L 97.665226 206.255257 
L 97.835001 205.53428 
L 98.174552 202.053785 
L 98.429215 201.394834 
L 98.768766 198.02346 
L 99.023429 197.986196 
L 99.447867 194.503443 
L 99.617642 194.660571 
L 100.126968 192.166584 
L 100.296744 191.767251 
L 100.636294 190.132446 
L 101.060733 188.467298 
L 101.400284 186.927218 
L 101.570059 186.187512 
L 102.164273 183.337013 
L 105.729555 167.834705 
L 106.238881 162.010043 
L 108.700624 147.67339 
L 109.804163 141.678203 
L 111.162366 136.27904 
L 116.51029 118.945963 
L 117.868493 113.393164 
L 118.972032 107.903212 
L 120.245348 100.45628 
L 121.943101 89.028393 
L 124.404844 72.769345 
L 125.168833 69.217581 
L 126.272372 65.494938 
L 127.036362 63.901478 
L 127.885238 62.69622 
L 128.734115 61.826415 
L 130.00743 60.870339 
L 131.790071 59.860691 
L 134.506477 58.710651 
L 136.628669 58.076203 
L 140.024176 57.461129 
L 143.589458 57.149374 
L 147.664067 57.032066 
L 152.67244 57.163408 
L 158.614577 57.7021 
L 162.010084 58.19014 
L 166.594018 59.063558 
L 170.498851 60.051671 
L 175.846775 61.773133 
L 181.194698 63.892493 
L 187.136836 67.934651 
L 190.192792 70.127247 
L 192.484759 71.966662 
L 195.37094 74.586676 
L 197.323357 76.653108 
L 200.12465 80.128506 
L 202.416617 83.537522 
L 204.199258 86.669756 
L 205.812124 89.991002 
L 210.480946 100.736757 
L 210.73561 101.315294 
L 211.584486 103.243496 
L 212.093812 104.378727 
L 219.648815 120.386255 
L 219.818591 120.592559 
L 220.158141 121.244478 
L 220.412805 121.384901 
L 220.667468 121.993523 
L 220.837243 121.36335 
L 221.007018 120.325068 
L 221.176794 120.287547 
L 221.516344 120.653826 
L 221.771007 121.10207 
L 223.12921 123.949617 
L 224.23275 126.110337 
L 225.760728 129.045945 
L 228.562021 134.115464 
L 234.164608 143.149242 
L 237.814778 147.890357 
L 239.088093 149.26322 
L 242.228937 152.168405 
L 242.823151 152.678834 
L 246.13377 155.325578 
L 250.802592 158.772197 
L 251.142143 158.996827 
L 251.906132 159.521049 
L 257.508719 163.317832 
L 258.102932 163.67974 
L 269.13833 170.07263 
L 269.477881 170.242284 
L 269.817432 170.398984 
L 272.109399 171.714871 
L 272.873388 172.1756 
L 274.571141 173.133596 
L 278.306199 175.210578 
L 278.900413 175.545853 
L 280.598166 176.489895 
L 281.362155 176.882872 
L 282.29592 177.416595 
L 282.975021 177.763388 
L 283.569235 178.09905 
L 302.414299 189.175677 
L 302.668962 189.328473 
L 303.602726 189.802624 
L 304.027165 190.044207 
L 304.281828 190.166306 
L 304.706266 190.387403 
L 304.960929 190.52352 
L 305.385368 190.732437 
L 305.894694 190.933999 
L 306.40402 191.243803 
L 306.573795 191.250707 
L 306.913346 191.442945 
L 307.507559 191.740844 
L 307.762222 191.841391 
L 310.648403 192.864008 
L 310.818179 192.8693 
L 311.15773 193.117949 
L 311.327505 193.15739 
L 311.49728 193.126612 
L 311.751943 193.328609 
L 312.176382 193.405056 
L 312.431045 193.574403 
L 312.60082 193.537019 
L 313.025258 193.808066 
L 313.364809 193.870632 
L 313.534584 193.986189 
L 313.874135 194.02284 
L 314.128798 194.232274 
L 314.298574 194.256406 
L 314.638124 194.347468 
L 315.571889 194.793606 
L 315.826552 194.841581 
L 316.081215 195.025737 
L 316.25099 195.058177 
L 316.590541 195.240454 
L 316.930091 194.796671 
L 317.184754 195.100256 
L 317.694081 195.37941 
L 318.033631 195.60604 
L 318.712733 196.063204 
L 318.882508 196.163251 
L 319.137171 196.296141 
L 322.957116 198.23691 
L 323.126892 198.307977 
L 323.381555 198.417267 
L 323.55133 198.517113 
L 323.721105 198.601923 
L 323.890881 198.63121 
L 324.145544 198.777965 
L 324.315319 198.830554 
L 324.569982 198.950749 
L 324.739758 199.033092 
L 324.909533 199.135437 
L 325.079308 199.145463 
L 325.333971 199.312899 
L 325.503747 199.330716 
L 325.75841 199.485884 
L 325.928185 199.523728 
L 326.182848 199.652473 
L 326.352623 199.72137 
L 326.607286 199.835322 
L 326.777062 199.910285 
L 326.946837 200.037175 
L 327.116612 200.030932 
L 327.456163 200.211668 
L 327.625939 200.314989 
L 327.795714 200.433434 
L 327.965489 200.434297 
L 328.220152 200.643102 
L 328.389928 200.64582 
L 328.644591 200.860174 
L 328.814366 200.862497 
L 329.069029 201.084482 
L 329.238804 201.084014 
L 329.493467 201.316532 
L 329.663243 201.312878 
L 330.002793 201.532918 
L 330.172569 201.639845 
L 330.342344 201.801321 
L 330.51212 201.783495 
L 330.85167 202.034524 
L 331.021446 202.106446 
L 331.276109 202.297345 
L 331.445884 202.340997 
L 331.700547 202.5634 
L 331.870322 202.580088 
L 332.124985 202.839086 
L 332.294761 202.829173 
L 332.549424 203.118748 
L 332.719199 203.086421 
L 333.05875 203.383956 
L 333.228525 203.426019 
L 333.483188 203.682548 
L 333.652963 203.672442 
L 333.907627 203.982746 
L 334.077402 203.938013 
L 334.416953 204.264416 
L 334.586728 204.271788 
L 334.841391 204.58231 
L 335.011166 204.53527 
L 335.350717 204.869231 
L 335.520492 204.880329 
L 335.775155 205.201852 
L 335.944931 205.14073 
L 336.284481 205.500017 
L 336.454257 205.478175 
L 336.70892 205.83997 
L 336.878695 205.757563 
L 337.048471 206.004051 
L 337.218246 206.153863 
L 337.388021 206.081989 
L 337.727572 206.461416 
L 337.897347 206.416256 
L 338.15201 206.815976 
L 338.406673 206.756266 
L 338.661336 207.144016 
L 338.831112 207.026733 
L 339.000887 207.257347 
L 339.170662 207.470435 
L 339.340438 207.34511 
L 339.510213 207.61665 
L 339.679988 207.798806 
L 339.849764 207.66452 
L 340.019539 207.938931 
L 340.189315 208.130637 
L 340.35909 207.983059 
L 340.528865 208.247178 
L 340.698641 208.464581 
L 340.953304 208.354896 
L 341.207967 208.798622 
L 341.46263 208.645035 
L 341.717293 209.127307 
L 341.971956 208.930303 
L 342.311506 209.425125 
L 342.481282 209.225128 
L 342.651057 209.518115 
L 342.820832 209.771571 
L 343.075495 209.54253 
L 343.415046 210.048725 
L 343.584822 209.809924 
L 343.669709 209.87845 
L 343.924372 210.39818 
L 344.179035 210.084367 
L 344.518586 210.681891 
L 344.603474 210.54241 
L 344.773249 210.351511 
L 345.1128 210.949591 
L 345.367463 210.588014 
L 345.707013 211.212477 
L 345.961676 210.784244 
L 346.301227 211.463409 
L 346.55589 210.940921 
L 346.640778 211.033579 
L 346.895441 211.68457 
L 347.065216 211.303361 
L 347.234992 211.065463 
L 347.574542 211.811 
L 347.914093 211.1171 
L 348.168756 211.913337 
L 348.253644 211.868508 
L 348.593194 211.011899 
L 348.932745 211.894496 
L 349.272296 211.079344 
L 349.611846 212.10339 
L 349.696734 211.951496 
L 349.951397 211.45381 
L 350.290948 212.563126 
L 350.375836 212.446585 
L 350.630499 212.054592 
L 350.970049 213.205995 
L 351.054937 213.103375 
L 351.224712 212.759534 
L 351.3096 212.832335 
L 351.649151 213.978463 
L 351.903814 213.604231 
L 352.073589 214.070662 
L 352.328252 214.82683 
L 352.582915 214.534634 
L 352.75269 215.106137 
L 352.922466 215.724341 
L 353.007353 215.72084 
L 353.177129 215.476449 
L 353.262017 215.548307 
L 353.601567 216.704307 
L 353.686455 216.64379 
L 353.85623 216.475177 
L 354.026006 216.944141 
L 354.280669 217.683257 
L 354.535332 217.5363 
L 354.95977 218.662804 
L 355.129545 218.51913 
L 355.299321 218.954492 
L 355.553984 219.716007 
L 355.808647 219.610121 
L 356.233085 220.75441 
L 356.317973 220.674188 
L 356.402861 220.638933 
L 356.572636 221.022651 
L 356.827299 221.832681 
L 357.081962 221.763356 
L 357.251737 222.233595 
L 357.5064 222.970227 
L 357.761063 222.957104 
L 358.015726 223.800212 
L 358.185502 224.173734 
L 358.440165 224.192011 
L 358.694828 225.012341 
L 358.949491 225.454938 
L 359.119266 225.448438 
L 359.289041 225.85357 
L 359.628592 226.79791 
L 359.883255 226.806726 
L 360.053031 227.185991 
L 360.392581 228.029195 
L 360.81702 228.207447 
L 361.241458 229.031835 
L 361.496121 228.982311 
L 361.665896 229.017937 
L 362.514773 229.819531 
L 362.939212 230.041434 
L 363.278762 230.508406 
L 363.703201 231.604478 
L 364.212527 233.792098 
L 365.061403 238.631623 
L 367.353371 252.366075 
L 369.815113 265.018291 
L 371.003541 269.518916 
L 372.191968 273.12895 
L 373.380396 276.042708 
L 374.993261 279.39883 
L 376.52124 282.122101 
L 377.879442 284.193667 
L 379.492308 286.316527 
L 381.274949 288.320971 
L 383.142478 290.078454 
L 384.925119 291.499615 
L 386.877536 292.812872 
L 389.424166 294.253604 
L 391.631246 295.291631 
L 394.687202 296.46661 
L 397.743158 297.395884 
L 401.478216 298.295108 
L 405.892375 299.124851 
L 410.985636 299.864675 
L 420.32328 300.907718 
L 430.340026 301.76414 
L 447.062898 302.998952 
L 463.106669 303.968907 
L 476.264258 304.587966 
L 488.063645 305.007654 
L 504.616742 305.400428 
L 527.621302 305.698798 
L 564.547441 305.907857 
L 630.590052 306.032275 
L 671.675687 306.062146 
L 671.675687 306.062146 
" clip-path="url(#p7cc5ca07aa)" style="fill: none; stroke: #1f77b4; stroke-width: 1.5; stroke-linecap: square"/>
   </g>
   <g id="line2d_17">
    <path d="M 60.654199 328.602066 
L 64.474145 328.496144 
L 67.020775 328.067803 
L 69.058079 327.433902 
L 72.368699 326.114197 
L 75.59443 324.643442 
L 77.292184 323.521495 
L 78.989937 321.890822 
L 81.027241 318.94477 
L 82.215669 316.562456 
L 83.828535 312.345591 
L 85.865839 305.219564 
L 87.733368 297.142127 
L 89.85556 286.322435 
L 91.043987 279.315266 
L 93.930168 261.209929 
L 95.033708 253.035674 
L 97.580338 232.207104 
L 102.334048 193.244501 
L 104.626015 175.890874 
L 106.238881 164.374215 
L 107.597084 155.854731 
L 110.822816 137.605488 
L 113.114783 126.050289 
L 115.576525 114.880452 
L 118.038268 104.955026 
L 120.075572 97.628749 
L 121.858213 91.911417 
L 123.640855 86.806531 
L 125.508383 82.075946 
L 127.291025 78.079217 
L 128.988778 74.709153 
L 131.874959 69.920222 
L 133.148274 68.159045 
L 136.458894 64.591054 
L 137.732209 63.571248 
L 139.005524 62.729606 
L 140.703277 61.785375 
L 143.080132 60.672217 
L 146.051201 59.525907 
L 148.088505 58.932012 
L 149.701371 58.606933 
L 151.653787 58.370187 
L 153.351541 58.243433 
L 154.200418 58.265289 
L 155.898171 58.341355 
L 156.831936 58.416784 
L 158.86924 58.679171 
L 159.378566 58.792312 
L 160.482106 59.025563 
L 163.113624 59.648453 
L 163.707837 59.823748 
L 169.81975 61.949313 
L 170.753514 62.348792 
L 174.149021 63.836436 
L 175.677 64.54302 
L 177.884079 65.645169 
L 185.099532 69.469143 
L 186.62751 70.411544 
L 189.683466 72.357688 
L 196.729143 76.818706 
L 197.323357 77.226309 
L 198.596672 78.056497 
L 201.567741 79.802231 
L 204.453922 81.24256 
L 207.509878 82.517704 
L 208.443642 82.918454 
L 208.868081 83.179503 
L 209.037856 83.303067 
L 209.462294 83.65927 
L 209.63207 83.82245 
L 210.056508 84.258717 
L 210.905385 85.298303 
L 211.329823 85.873302 
L 211.754262 86.510809 
L 212.688026 87.980258 
L 213.452015 89.30761 
L 214.470667 91.069428 
L 215.404432 92.833372 
L 217.526624 96.836827 
L 219.054602 99.837704 
L 220.667468 103.06174 
L 221.176794 104.22306 
L 222.619884 108.09674 
L 226.185166 117.123829 
L 228.816684 123.090356 
L 231.448202 128.512078 
L 234.334383 133.936692 
L 238.239216 140.654724 
L 241.464948 145.886558 
L 242.398712 147.361409 
L 247.916411 155.576153 
L 254.53765 164.575861 
L 261.922878 173.679656 
L 269.987207 182.689334 
L 271.430297 184.220617 
L 273.382714 186.230291 
L 282.211032 194.842831 
L 283.654123 196.172134 
L 288.238057 200.009146 
L 293.755756 204.312261 
L 299.273455 208.268472 
L 308.695987 214.822033 
L 309.035538 215.065873 
L 310.478628 216.115103 
L 310.818179 216.349368 
L 311.751943 216.98766 
L 312.091494 217.20825 
L 316.166102 219.454386 
L 317.778968 219.885095 
L 319.052283 220.027043 
L 321.938464 220.278504 
L 332.464536 220.678252 
L 338.406673 220.984775 
L 344.094148 221.501206 
L 349.781622 222.240404 
L 355.638871 223.227267 
L 361.750784 224.48639 
L 368.11736 226.026527 
L 374.908374 227.900036 
L 382.208714 230.146907 
L 390.188155 232.83795 
L 399.101361 236.082092 
L 409.457658 240.095302 
L 422.360584 245.346869 
L 445.789583 255.179359 
L 463.615995 262.539807 
L 475.670044 267.279964 
L 485.68679 270.98607 
L 494.515108 274.020048 
L 502.49455 276.529788 
L 509.79489 278.594471 
L 516.501016 280.263364 
L 522.782704 281.59951 
L 528.639954 282.621261 
L 534.157653 283.362302 
L 539.420689 283.847171 
L 544.429062 284.087344 
L 549.267659 284.095783 
L 553.851594 283.884218 
L 558.35064 283.453005 
L 562.679912 282.8145 
L 566.924296 281.962256 
L 571.083792 280.897436 
L 575.1584 279.622885 
L 579.148121 278.143223 
L 583.137842 276.425825 
L 587.127562 274.46347 
L 591.117283 272.250475 
L 595.107004 269.783013 
L 599.181612 266.99871 
L 603.341108 263.881863 
L 607.585492 260.419886 
L 611.999651 256.52671 
L 616.583586 252.182806 
L 621.422183 247.288138 
L 626.685219 241.639762 
L 632.542469 235.014966 
L 639.41837 226.885765 
L 649.010678 215.164706 
L 665.054448 195.553767 
L 671.675687 187.776775 
L 671.675687 187.776775 
" clip-path="url(#p7cc5ca07aa)" style="fill: none; stroke: #ff7f0e; stroke-width: 1.5; stroke-linecap: square"/>
   </g>
   <g id="patch_3">
    <path d="M 30.103125 342.2 
L 30.103125 43.44 
" style="fill: none; stroke: #000000; stroke-width: 0.8; stroke-linejoin: miter; stroke-linecap: square"/>
   </g>
   <g id="patch_4">
    <path d="M 702.226761 342.2 
L 702.226761 43.44 
" style="fill: none; stroke: #000000; stroke-width: 0.8; stroke-linejoin: miter; stroke-linecap: square"/>
   </g>
   <g id="patch_5">
    <path d="M 30.103125 342.2 
L 702.226761 342.2 
" style="fill: none; stroke: #000000; stroke-width: 0.8; stroke-linejoin: miter; stroke-linecap: square"/>
   </g>
   <g id="patch_6">
    <path d="M 30.103125 43.44 
L 702.226761 43.44 
" style="fill: none; stroke: #000000; stroke-width: 0.8; stroke-linejoin: miter; stroke-linecap: square"/>
   </g>
   <g id="text_16">
    <!-- 1 transformation(s) -->
    <g transform="translate(308.050256 37.44) scale(0.12 -0.12)">
     <defs>
      <path id="DejaVuSans-20" transform="scale(0.015625)"/>
      <path id="DejaVuSans-74" d="M 1172 4494 
L 1172 3500 
L 2356 3500 
L 2356 3053 
L 1172 3053 
L 1172 1153 
Q 1172 725 1289 603 
Q 1406 481 1766 481 
L 2356 481 
L 2356 0 
L 1766 0 
Q 1100 0 847 248 
Q 594 497 594 1153 
L 594 3053 
L 172 3053 
L 172 3500 
L 594 3500 
L 594 4494 
L 1172 4494 
z
" transform="scale(0.015625)"/>
      <path id="DejaVuSans-72" d="M 2631 2963 
Q 2534 3019 2420 3045 
Q 2306 3072 2169 3072 
Q 1681 3072 1420 2755 
Q 1159 2438 1159 1844 
L 1159 0 
L 581 0 
L 581 3500 
L 1159 3500 
L 1159 2956 
Q 1341 3275 1631 3429 
Q 1922 3584 2338 3584 
Q 2397 3584 2469 3576 
Q 2541 3569 2628 3553 
L 2631 2963 
z
" transform="scale(0.015625)"/>
      <path id="DejaVuSans-61" d="M 2194 1759 
Q 1497 1759 1228 1600 
Q 959 1441 959 1056 
Q 959 750 1161 570 
Q 1363 391 1709 391 
Q 2188 391 2477 730 
Q 2766 1069 2766 1631 
L 2766 1759 
L 2194 1759 
z
M 3341 1997 
L 3341 0 
L 2766 0 
L 2766 531 
Q 2569 213 2275 61 
Q 1981 -91 1556 -91 
Q 1019 -91 701 211 
Q 384 513 384 1019 
Q 384 1609 779 1909 
Q 1175 2209 1959 2209 
L 2766 2209 
L 2766 2266 
Q 2766 2663 2505 2880 
Q 2244 3097 1772 3097 
Q 1472 3097 1187 3025 
Q 903 2953 641 2809 
L 641 3341 
Q 956 3463 1253 3523 
Q 1550 3584 1831 3584 
Q 2591 3584 2966 3190 
Q 3341 2797 3341 1997 
z
" transform="scale(0.015625)"/>
      <path id="DejaVuSans-6e" d="M 3513 2113 
L 3513 0 
L 2938 0 
L 2938 2094 
Q 2938 2591 2744 2837 
Q 2550 3084 2163 3084 
Q 1697 3084 1428 2787 
Q 1159 2491 1159 1978 
L 1159 0 
L 581 0 
L 581 3500 
L 1159 3500 
L 1159 2956 
Q 1366 3272 1645 3428 
Q 1925 3584 2291 3584 
Q 2894 3584 3203 3211 
Q 3513 2838 3513 2113 
z
" transform="scale(0.015625)"/>
      <path id="DejaVuSans-73" d="M 2834 3397 
L 2834 2853 
Q 2591 2978 2328 3040 
Q 2066 3103 1784 3103 
Q 1356 3103 1142 2972 
Q 928 2841 928 2578 
Q 928 2378 1081 2264 
Q 1234 2150 1697 2047 
L 1894 2003 
Q 2506 1872 2764 1633 
Q 3022 1394 3022 966 
Q 3022 478 2636 193 
Q 2250 -91 1575 -91 
Q 1294 -91 989 -36 
Q 684 19 347 128 
L 347 722 
Q 666 556 975 473 
Q 1284 391 1588 391 
Q 1994 391 2212 530 
Q 2431 669 2431 922 
Q 2431 1156 2273 1281 
Q 2116 1406 1581 1522 
L 1381 1569 
Q 847 1681 609 1914 
Q 372 2147 372 2553 
Q 372 3047 722 3315 
Q 1072 3584 1716 3584 
Q 2034 3584 2315 3537 
Q 2597 3491 2834 3397 
z
" transform="scale(0.015625)"/>
      <path id="DejaVuSans-66" d="M 2375 4863 
L 2375 4384 
L 1825 4384 
Q 1516 4384 1395 4259 
Q 1275 4134 1275 3809 
L 1275 3500 
L 2222 3500 
L 2222 3053 
L 1275 3053 
L 1275 0 
L 697 0 
L 697 3053 
L 147 3053 
L 147 3500 
L 697 3500 
L 697 3744 
Q 697 4328 969 4595 
Q 1241 4863 1831 4863 
L 2375 4863 
z
" transform="scale(0.015625)"/>
      <path id="DejaVuSans-6f" d="M 1959 3097 
Q 1497 3097 1228 2736 
Q 959 2375 959 1747 
Q 959 1119 1226 758 
Q 1494 397 1959 397 
Q 2419 397 2687 759 
Q 2956 1122 2956 1747 
Q 2956 2369 2687 2733 
Q 2419 3097 1959 3097 
z
M 1959 3584 
Q 2709 3584 3137 3096 
Q 3566 2609 3566 1747 
Q 3566 888 3137 398 
Q 2709 -91 1959 -91 
Q 1206 -91 779 398 
Q 353 888 353 1747 
Q 353 2609 779 3096 
Q 1206 3584 1959 3584 
z
" transform="scale(0.015625)"/>
      <path id="DejaVuSans-6d" d="M 3328 2828 
Q 3544 3216 3844 3400 
Q 4144 3584 4550 3584 
Q 5097 3584 5394 3201 
Q 5691 2819 5691 2113 
L 5691 0 
L 5113 0 
L 5113 2094 
Q 5113 2597 4934 2840 
Q 4756 3084 4391 3084 
Q 3944 3084 3684 2787 
Q 3425 2491 3425 1978 
L 3425 0 
L 2847 0 
L 2847 2094 
Q 2847 2600 2669 2842 
Q 2491 3084 2119 3084 
Q 1678 3084 1418 2786 
Q 1159 2488 1159 1978 
L 1159 0 
L 581 0 
L 581 3500 
L 1159 3500 
L 1159 2956 
Q 1356 3278 1631 3431 
Q 1906 3584 2284 3584 
Q 2666 3584 2933 3390 
Q 3200 3197 3328 2828 
z
" transform="scale(0.015625)"/>
      <path id="DejaVuSans-69" d="M 603 3500 
L 1178 3500 
L 1178 0 
L 603 0 
L 603 3500 
z
M 603 4863 
L 1178 4863 
L 1178 4134 
L 603 4134 
L 603 4863 
z
" transform="scale(0.015625)"/>
      <path id="DejaVuSans-28" d="M 1984 4856 
Q 1566 4138 1362 3434 
Q 1159 2731 1159 2009 
Q 1159 1288 1364 580 
Q 1569 -128 1984 -844 
L 1484 -844 
Q 1016 -109 783 600 
Q 550 1309 550 2009 
Q 550 2706 781 3412 
Q 1013 4119 1484 4856 
L 1984 4856 
z
" transform="scale(0.015625)"/>
      <path id="DejaVuSans-29" d="M 513 4856 
L 1013 4856 
Q 1481 4119 1714 3412 
Q 1947 2706 1947 2009 
Q 1947 1309 1714 600 
Q 1481 -109 1013 -844 
L 513 -844 
Q 928 -128 1133 580 
Q 1338 1288 1338 2009 
Q 1338 2731 1133 3434 
Q 928 4138 513 4856 
z
" transform="scale(0.015625)"/>
     </defs>
     <use xlink:href="#DejaVuSans-31"/>
     <use xlink:href="#DejaVuSans-20" x="63.623047"/>
     <use xlink:href="#DejaVuSans-74" x="95.410156"/>
     <use xlink:href="#DejaVuSans-72" x="134.619141"/>
     <use xlink:href="#DejaVuSans-61" x="175.732422"/>
     <use xlink:href="#DejaVuSans-6e" x="237.011719"/>
     <use xlink:href="#DejaVuSans-73" x="300.390625"/>
     <use xlink:href="#DejaVuSans-66" x="352.490234"/>
     <use xlink:href="#DejaVuSans-6f" x="387.695312"/>
     <use xlink:href="#DejaVuSans-72" x="448.876953"/>
     <use xlink:href="#DejaVuSans-6d" x="488.240234"/>
     <use xlink:href="#DejaVuSans-61" x="585.652344"/>
     <use xlink:href="#DejaVuSans-74" x="646.931641"/>
     <use xlink:href="#DejaVuSans-69" x="686.140625"/>
     <use xlink:href="#DejaVuSans-6f" x="713.923828"/>
     <use xlink:href="#DejaVuSans-6e" x="775.105469"/>
     <use xlink:href="#DejaVuSans-28" x="838.484375"/>
     <use xlink:href="#DejaVuSans-73" x="877.498047"/>
     <use xlink:href="#DejaVuSans-29" x="929.597656"/>
    </g>
   </g>
   <g id="legend_1">
    <g id="patch_7">
     <path d="M 613.833011 80.79625 
L 695.226761 80.79625 
Q 697.226761 80.79625 697.226761 78.79625 
L 697.226761 50.44 
Q 697.226761 48.44 695.226761 48.44 
L 613.833011 48.44 
Q 611.833011 48.44 611.833011 50.44 
L 611.833011 78.79625 
Q 611.833011 80.79625 613.833011 80.79625 
z
" style="fill: #ffffff; opacity: 0.8; stroke: #cccccc; stroke-linejoin: miter"/>
    </g>
    <g id="line2d_18">
     <path d="M 615.833011 56.538437 
L 625.833011 56.538437 
L 635.833011 56.538437 
" style="fill: none; stroke: #1f77b4; stroke-width: 1.5; stroke-linecap: square"/>
    </g>
    <g id="text_17">
     <!-- observed -->
     <g transform="translate(643.833011 60.038437) scale(0.1 -0.1)">
      <defs>
       <path id="DejaVuSans-62" d="M 3116 1747 
Q 3116 2381 2855 2742 
Q 2594 3103 2138 3103 
Q 1681 3103 1420 2742 
Q 1159 2381 1159 1747 
Q 1159 1113 1420 752 
Q 1681 391 2138 391 
Q 2594 391 2855 752 
Q 3116 1113 3116 1747 
z
M 1159 2969 
Q 1341 3281 1617 3432 
Q 1894 3584 2278 3584 
Q 2916 3584 3314 3078 
Q 3713 2572 3713 1747 
Q 3713 922 3314 415 
Q 2916 -91 2278 -91 
Q 1894 -91 1617 61 
Q 1341 213 1159 525 
L 1159 0 
L 581 0 
L 581 4863 
L 1159 4863 
L 1159 2969 
z
" transform="scale(0.015625)"/>
       <path id="DejaVuSans-65" d="M 3597 1894 
L 3597 1613 
L 953 1613 
Q 991 1019 1311 708 
Q 1631 397 2203 397 
Q 2534 397 2845 478 
Q 3156 559 3463 722 
L 3463 178 
Q 3153 47 2828 -22 
Q 2503 -91 2169 -91 
Q 1331 -91 842 396 
Q 353 884 353 1716 
Q 353 2575 817 3079 
Q 1281 3584 2069 3584 
Q 2775 3584 3186 3129 
Q 3597 2675 3597 1894 
z
M 3022 2063 
Q 3016 2534 2758 2815 
Q 2500 3097 2075 3097 
Q 1594 3097 1305 2825 
Q 1016 2553 972 2059 
L 3022 2063 
z
" transform="scale(0.015625)"/>
       <path id="DejaVuSans-76" d="M 191 3500 
L 800 3500 
L 1894 563 
L 2988 3500 
L 3597 3500 
L 2284 0 
L 1503 0 
L 191 3500 
z
" transform="scale(0.015625)"/>
       <path id="DejaVuSans-64" d="M 2906 2969 
L 2906 4863 
L 3481 4863 
L 3481 0 
L 2906 0 
L 2906 525 
Q 2725 213 2448 61 
Q 2172 -91 1784 -91 
Q 1150 -91 751 415 
Q 353 922 353 1747 
Q 353 2572 751 3078 
Q 1150 3584 1784 3584 
Q 2172 3584 2448 3432 
Q 2725 3281 2906 2969 
z
M 947 1747 
Q 947 1113 1208 752 
Q 1469 391 1925 391 
Q 2381 391 2643 752 
Q 2906 1113 2906 1747 
Q 2906 2381 2643 2742 
Q 2381 3103 1925 3103 
Q 1469 3103 1208 2742 
Q 947 2381 947 1747 
z
" transform="scale(0.015625)"/>
      </defs>
      <use xlink:href="#DejaVuSans-6f"/>
      <use xlink:href="#DejaVuSans-62" x="61.181641"/>
      <use xlink:href="#DejaVuSans-73" x="124.658203"/>
      <use xlink:href="#DejaVuSans-65" x="176.757812"/>
      <use xlink:href="#DejaVuSans-72" x="238.28125"/>
      <use xlink:href="#DejaVuSans-76" x="279.394531"/>
      <use xlink:href="#DejaVuSans-65" x="338.574219"/>
      <use xlink:href="#DejaVuSans-64" x="400.097656"/>
     </g>
    </g>
    <g id="line2d_19">
     <path d="M 615.833011 71.216563 
L 625.833011 71.216563 
L 635.833011 71.216563 
" style="fill: none; stroke: #ff7f0e; stroke-width: 1.5; stroke-linecap: square"/>
    </g>
    <g id="text_18">
     <!-- simulated -->
     <g transform="translate(643.833011 74.716563) scale(0.1 -0.1)">
      <defs>
       <path id="DejaVuSans-75" d="M 544 1381 
L 544 3500 
L 1119 3500 
L 1119 1403 
Q 1119 906 1312 657 
Q 1506 409 1894 409 
Q 2359 409 2629 706 
Q 2900 1003 2900 1516 
L 2900 3500 
L 3475 3500 
L 3475 0 
L 2900 0 
L 2900 538 
Q 2691 219 2414 64 
Q 2138 -91 1772 -91 
Q 1169 -91 856 284 
Q 544 659 544 1381 
z
M 1991 3584 
L 1991 3584 
z
" transform="scale(0.015625)"/>
       <path id="DejaVuSans-6c" d="M 603 4863 
L 1178 4863 
L 1178 0 
L 603 0 
L 603 4863 
z
" transform="scale(0.015625)"/>
      </defs>
      <use xlink:href="#DejaVuSans-73"/>
      <use xlink:href="#DejaVuSans-69" x="52.099609"/>
      <use xlink:href="#DejaVuSans-6d" x="79.882812"/>
      <use xlink:href="#DejaVuSans-75" x="177.294922"/>
      <use xlink:href="#DejaVuSans-6c" x="240.673828"/>
      <use xlink:href="#DejaVuSans-61" x="268.457031"/>
      <use xlink:href="#DejaVuSans-74" x="329.736328"/>
      <use xlink:href="#DejaVuSans-65" x="368.945312"/>
      <use xlink:href="#DejaVuSans-64" x="430.46875"/>
     </g>
    </g>
   </g>
  </g>
  <g id="axes_2">
   <g id="patch_8">
    <path d="M 30.103125 684.92 
L 702.226761 684.92 
L 702.226761 386.16 
L 30.103125 386.16 
z
" style="fill: #ffffff"/>
   </g>
   <g id="matplotlib.axis_3">
    <g id="xtick_7">
     <g id="line2d_20">
      <g>
       <use xlink:href="#me505d1703e" x="60.484424" y="684.92" style="stroke: #000000; stroke-width: 0.8"/>
      </g>
     </g>
     <g id="text_19">
      <!-- 2014-07-01 -->
      <g transform="translate(31.426612 699.518437) scale(0.1 -0.1)">
       <use xlink:href="#DejaVuSans-32"/>
       <use xlink:href="#DejaVuSans-30" x="63.623047"/>
       <use xlink:href="#DejaVuSans-31" x="127.246094"/>
       <use xlink:href="#DejaVuSans-34" x="190.869141"/>
       <use xlink:href="#DejaVuSans-2d" x="254.492188"/>
       <use xlink:href="#DejaVuSans-30" x="290.576172"/>
       <use xlink:href="#DejaVuSans-37" x="354.199219"/>
       <use xlink:href="#DejaVuSans-2d" x="417.822266"/>
       <use xlink:href="#DejaVuSans-30" x="453.90625"/>
       <use xlink:href="#DejaVuSans-31" x="517.529297"/>
      </g>
     </g>
    </g>
    <g id="xtick_8">
     <g id="line2d_21">
      <g>
       <use xlink:href="#me505d1703e" x="182.722677" y="684.92" style="stroke: #000000; stroke-width: 0.8"/>
      </g>
     </g>
     <g id="text_20">
      <!-- 2014-07-02 -->
      <g transform="translate(153.664864 699.518437) scale(0.1 -0.1)">
       <use xlink:href="#DejaVuSans-32"/>
       <use xlink:href="#DejaVuSans-30" x="63.623047"/>
       <use xlink:href="#DejaVuSans-31" x="127.246094"/>
       <use xlink:href="#DejaVuSans-34" x="190.869141"/>
       <use xlink:href="#DejaVuSans-2d" x="254.492188"/>
       <use xlink:href="#DejaVuSans-30" x="290.576172"/>
       <use xlink:href="#DejaVuSans-37" x="354.199219"/>
       <use xlink:href="#DejaVuSans-2d" x="417.822266"/>
       <use xlink:href="#DejaVuSans-30" x="453.90625"/>
       <use xlink:href="#DejaVuSans-32" x="517.529297"/>
      </g>
     </g>
    </g>
    <g id="xtick_9">
     <g id="line2d_22">
      <g>
       <use xlink:href="#me505d1703e" x="304.960929" y="684.92" style="stroke: #000000; stroke-width: 0.8"/>
      </g>
     </g>
     <g id="text_21">
      <!-- 2014-07-03 -->
      <g transform="translate(275.903117 699.518437) scale(0.1 -0.1)">
       <use xlink:href="#DejaVuSans-32"/>
       <use xlink:href="#DejaVuSans-30" x="63.623047"/>
       <use xlink:href="#DejaVuSans-31" x="127.246094"/>
       <use xlink:href="#DejaVuSans-34" x="190.869141"/>
       <use xlink:href="#DejaVuSans-2d" x="254.492188"/>
       <use xlink:href="#DejaVuSans-30" x="290.576172"/>
       <use xlink:href="#DejaVuSans-37" x="354.199219"/>
       <use xlink:href="#DejaVuSans-2d" x="417.822266"/>
       <use xlink:href="#DejaVuSans-30" x="453.90625"/>
       <use xlink:href="#DejaVuSans-33" x="517.529297"/>
      </g>
     </g>
    </g>
    <g id="xtick_10">
     <g id="line2d_23">
      <g>
       <use xlink:href="#me505d1703e" x="427.199182" y="684.92" style="stroke: #000000; stroke-width: 0.8"/>
      </g>
     </g>
     <g id="text_22">
      <!-- 2014-07-04 -->
      <g transform="translate(398.141369 699.518437) scale(0.1 -0.1)">
       <use xlink:href="#DejaVuSans-32"/>
       <use xlink:href="#DejaVuSans-30" x="63.623047"/>
       <use xlink:href="#DejaVuSans-31" x="127.246094"/>
       <use xlink:href="#DejaVuSans-34" x="190.869141"/>
       <use xlink:href="#DejaVuSans-2d" x="254.492188"/>
       <use xlink:href="#DejaVuSans-30" x="290.576172"/>
       <use xlink:href="#DejaVuSans-37" x="354.199219"/>
       <use xlink:href="#DejaVuSans-2d" x="417.822266"/>
       <use xlink:href="#DejaVuSans-30" x="453.90625"/>
       <use xlink:href="#DejaVuSans-34" x="517.529297"/>
      </g>
     </g>
    </g>
    <g id="xtick_11">
     <g id="line2d_24">
      <g>
       <use xlink:href="#me505d1703e" x="549.437434" y="684.92" style="stroke: #000000; stroke-width: 0.8"/>
      </g>
     </g>
     <g id="text_23">
      <!-- 2014-07-05 -->
      <g transform="translate(520.379622 699.518437) scale(0.1 -0.1)">
       <use xlink:href="#DejaVuSans-32"/>
       <use xlink:href="#DejaVuSans-30" x="63.623047"/>
       <use xlink:href="#DejaVuSans-31" x="127.246094"/>
       <use xlink:href="#DejaVuSans-34" x="190.869141"/>
       <use xlink:href="#DejaVuSans-2d" x="254.492188"/>
       <use xlink:href="#DejaVuSans-30" x="290.576172"/>
       <use xlink:href="#DejaVuSans-37" x="354.199219"/>
       <use xlink:href="#DejaVuSans-2d" x="417.822266"/>
       <use xlink:href="#DejaVuSans-30" x="453.90625"/>
       <use xlink:href="#DejaVuSans-35" x="517.529297"/>
      </g>
     </g>
    </g>
    <g id="xtick_12">
     <g id="line2d_25">
      <g>
       <use xlink:href="#me505d1703e" x="671.675687" y="684.92" style="stroke: #000000; stroke-width: 0.8"/>
      </g>
     </g>
     <g id="text_24">
      <!-- 2014-07-06 -->
      <g transform="translate(642.617874 699.518437) scale(0.1 -0.1)">
       <use xlink:href="#DejaVuSans-32"/>
       <use xlink:href="#DejaVuSans-30" x="63.623047"/>
       <use xlink:href="#DejaVuSans-31" x="127.246094"/>
       <use xlink:href="#DejaVuSans-34" x="190.869141"/>
       <use xlink:href="#DejaVuSans-2d" x="254.492188"/>
       <use xlink:href="#DejaVuSans-30" x="290.576172"/>
       <use xlink:href="#DejaVuSans-37" x="354.199219"/>
       <use xlink:href="#DejaVuSans-2d" x="417.822266"/>
       <use xlink:href="#DejaVuSans-30" x="453.90625"/>
       <use xlink:href="#DejaVuSans-36" x="517.529297"/>
      </g>
     </g>
    </g>
   </g>
   <g id="matplotlib.axis_4">
    <g id="ytick_10">
     <g id="line2d_26">
      <g>
       <use xlink:href="#m3f320549b7" x="30.103125" y="644.421119" style="stroke: #000000; stroke-width: 0.8"/>
      </g>
     </g>
     <g id="text_25">
      <!-- −1 -->
      <g transform="translate(8.360938 648.220338) scale(0.1 -0.1)">
       <defs>
        <path id="DejaVuSans-2212" d="M 678 2272 
L 4684 2272 
L 4684 1741 
L 678 1741 
L 678 2272 
z
" transform="scale(0.015625)"/>
       </defs>
       <use xlink:href="#DejaVuSans-2212"/>
       <use xlink:href="#DejaVuSans-31" x="83.789062"/>
      </g>
     </g>
    </g>
    <g id="ytick_11">
     <g id="line2d_27">
      <g>
       <use xlink:href="#m3f320549b7" x="30.103125" y="595.620791" style="stroke: #000000; stroke-width: 0.8"/>
      </g>
     </g>
     <g id="text_26">
      <!-- 0 -->
      <g transform="translate(16.740625 599.42001) scale(0.1 -0.1)">
       <use xlink:href="#DejaVuSans-30"/>
      </g>
     </g>
    </g>
    <g id="ytick_12">
     <g id="line2d_28">
      <g>
       <use xlink:href="#m3f320549b7" x="30.103125" y="546.820463" style="stroke: #000000; stroke-width: 0.8"/>
      </g>
     </g>
     <g id="text_27">
      <!-- 1 -->
      <g transform="translate(16.740625 550.619682) scale(0.1 -0.1)">
       <use xlink:href="#DejaVuSans-31"/>
      </g>
     </g>
    </g>
    <g id="ytick_13">
     <g id="line2d_29">
      <g>
       <use xlink:href="#m3f320549b7" x="30.103125" y="498.020135" style="stroke: #000000; stroke-width: 0.8"/>
      </g>
     </g>
     <g id="text_28">
      <!-- 2 -->
      <g transform="translate(16.740625 501.819354) scale(0.1 -0.1)">
       <use xlink:href="#DejaVuSans-32"/>
      </g>
     </g>
    </g>
    <g id="ytick_14">
     <g id="line2d_30">
      <g>
       <use xlink:href="#m3f320549b7" x="30.103125" y="449.219807" style="stroke: #000000; stroke-width: 0.8"/>
      </g>
     </g>
     <g id="text_29">
      <!-- 3 -->
      <g transform="translate(16.740625 453.019025) scale(0.1 -0.1)">
       <use xlink:href="#DejaVuSans-33"/>
      </g>
     </g>
    </g>
    <g id="ytick_15">
     <g id="line2d_31">
      <g>
       <use xlink:href="#m3f320549b7" x="30.103125" y="400.419478" style="stroke: #000000; stroke-width: 0.8"/>
      </g>
     </g>
     <g id="text_30">
      <!-- 4 -->
      <g transform="translate(16.740625 404.218697) scale(0.1 -0.1)">
       <use xlink:href="#DejaVuSans-34"/>
      </g>
     </g>
    </g>
   </g>
   <g id="line2d_32">
    <path d="M 60.654199 595.620791 
L 80.093477 595.518654 
L 81.027241 595.281303 
L 81.536568 594.956308 
L 82.130781 594.211511 
L 82.640107 593.132256 
L 83.488984 590.418006 
L 84.168085 588.226792 
L 84.422748 587.79524 
L 84.592524 587.80973 
L 86.035614 588.653461 
L 86.460053 588.619 
L 86.969379 588.29462 
L 87.563592 587.483238 
L 88.157806 585.911088 
L 88.667132 583.664848 
L 89.261346 579.715354 
L 90.449773 571.014625 
L 91.29865 568.230445 
L 92.232415 565.691869 
L 92.996404 563.728752 
L 93.420842 561.602357 
L 93.590617 560.928731 
L 93.930168 558.396975 
L 94.269719 556.942068 
L 94.94882 548.354845 
L 96.137248 525.003102 
L 96.476798 518.302566 
L 97.410563 509.029175 
L 97.665226 507.377152 
L 97.835001 506.857142 
L 98.174552 504.346806 
L 98.429215 503.871532 
L 98.768766 501.439901 
L 99.023429 501.413024 
L 99.447867 498.90106 
L 99.617642 499.01439 
L 100.126968 497.215581 
L 100.296744 496.927559 
L 100.636294 495.748443 
L 101.060733 494.547441 
L 101.400284 493.436645 
L 101.570059 492.903127 
L 102.164273 490.847181 
L 105.729555 479.666014 
L 106.238881 475.464929 
L 108.700624 465.124501 
L 109.804163 460.800423 
L 111.162366 456.906232 
L 116.51029 444.404608 
L 117.868493 440.399606 
L 118.972032 436.439934 
L 120.245348 431.068773 
L 121.943101 422.826316 
L 124.404844 411.099344 
L 125.168833 408.537605 
L 126.272372 405.852618 
L 127.036362 404.703322 
L 127.885238 403.834021 
L 128.819003 403.153658 
L 130.262093 402.40266 
L 132.299397 401.608356 
L 134.846028 400.871064 
L 139.005524 400.15383 
L 142.485918 399.885785 
L 146.645415 399.759477 
L 151.993338 399.817721 
L 158.529689 400.226246 
L 161.755421 400.551802 
L 167.952221 401.430179 
L 173.46992 402.593286 
L 180.260934 404.402467 
L 181.704025 404.981594 
L 186.033296 407.073515 
L 187.985712 408.022644 
L 192.654535 410.62642 
L 195.540716 412.537918 
L 197.747795 414.242548 
L 201.058415 417.347963 
L 202.925943 419.476929 
L 204.623697 421.719801 
L 206.066787 423.948014 
L 210.480946 431.271069 
L 210.73561 431.688344 
L 211.584486 433.079075 
L 212.348475 434.242066 
L 218.969714 444.560237 
L 219.224377 444.89858 
L 219.733703 445.476101 
L 220.243029 446.073088 
L 220.327917 446.055613 
L 220.667468 446.602686 
L 220.752355 446.42971 
L 221.176794 445.372237 
L 221.516344 445.636419 
L 221.771007 445.959718 
L 223.214098 448.121495 
L 227.543369 454.039729 
L 231.023764 458.347971 
L 233.655282 461.315861 
L 235.862361 463.542165 
L 237.475227 464.993887 
L 240.361408 467.1836 
L 241.210285 467.717455 
L 242.398712 468.461764 
L 245.709332 470.413612 
L 248.935063 472.169819 
L 249.444389 472.421529 
L 251.736357 473.57734 
L 259.970461 477.473975 
L 260.3949 477.653571 
L 269.732544 481.493811 
L 270.666308 481.842905 
L 271.854736 482.350675 
L 272.7885 482.774512 
L 273.722265 483.135799 
L 274.571141 483.487883 
L 280.343503 485.800401 
L 282.550583 486.66299 
L 283.569235 487.069258 
L 303.432951 495.446703 
L 303.857389 495.598236 
L 304.536491 495.84827 
L 305.470255 496.195828 
L 307.337784 496.851734 
L 307.592447 496.909688 
L 309.544864 497.406463 
L 309.714639 497.442532 
L 309.969302 497.549829 
L 310.308853 497.613483 
L 312.515932 498.209656 
L 312.770595 498.294061 
L 314.128798 498.705477 
L 314.383461 498.725262 
L 315.14745 498.91949 
L 315.402113 499.041086 
L 316.25099 499.301167 
L 316.590541 499.432636 
L 317.014979 499.211427 
L 317.269642 499.351226 
L 319.476722 500.345638 
L 319.986048 500.53118 
L 320.240711 500.642986 
L 320.750037 500.814752 
L 321.0047 500.926656 
L 321.514026 501.086264 
L 321.853577 501.197366 
L 322.532678 501.466504 
L 322.787341 501.558618 
L 323.381555 501.723938 
L 323.890881 501.878246 
L 324.145544 501.984095 
L 324.315319 502.022024 
L 324.569982 502.108716 
L 325.079308 502.249155 
L 325.333971 502.36992 
L 325.503747 502.38277 
L 325.75841 502.494687 
L 325.928185 502.521982 
L 326.182848 502.61484 
L 326.352623 502.664533 
L 326.607286 502.746722 
L 326.777062 502.800789 
L 327.031725 502.878569 
L 327.286388 503.011596 
L 328.474815 503.399324 
L 328.729478 503.470628 
L 329.238804 503.647351 
L 329.578355 503.799151 
L 329.74813 503.882318 
L 330.002793 503.971127 
L 330.172569 504.048249 
L 330.427232 504.149315 
L 330.597007 504.212702 
L 330.85167 504.332914 
L 331.021446 504.384788 
L 331.276109 504.522476 
L 331.445884 504.55396 
L 331.700547 504.71437 
L 331.870322 504.726407 
L 332.124985 504.913211 
L 332.294761 504.906061 
L 332.634311 505.094832 
L 332.804087 505.157963 
L 333.05875 505.306203 
L 333.228525 505.336541 
L 333.483188 505.521565 
L 333.652963 505.514276 
L 333.907627 505.738085 
L 334.16229 505.771175 
L 334.416953 505.941242 
L 334.586728 505.946559 
L 334.841391 506.170525 
L 335.011166 506.136598 
L 335.350717 506.37747 
L 335.520492 506.385474 
L 335.775155 506.617375 
L 335.944931 506.573291 
L 336.284481 506.832429 
L 336.454257 506.816676 
L 336.70892 507.077623 
L 336.963583 507.072166 
L 337.218246 507.304021 
L 337.388021 507.252182 
L 337.727572 507.525846 
L 337.897347 507.493274 
L 338.236898 507.748114 
L 338.406673 507.738509 
L 338.661336 508.018177 
L 338.915999 507.986513 
L 339.170662 508.25361 
L 339.425325 508.220898 
L 339.679988 508.49045 
L 339.849764 508.393595 
L 340.019539 508.591516 
L 340.189315 508.729786 
L 340.443978 508.675712 
L 340.698641 508.970646 
L 340.953304 508.891534 
L 341.207967 509.211575 
L 341.46263 509.100799 
L 341.80218 509.406704 
L 341.971956 509.306551 
L 342.311506 509.663446 
L 342.481282 509.519196 
L 342.651057 509.730515 
L 342.820832 509.913323 
L 343.075495 509.748125 
L 343.415046 510.113222 
L 343.584822 509.940985 
L 343.754597 510.144922 
L 343.924372 510.365269 
L 344.179035 510.13893 
L 344.518586 510.569898 
L 344.603474 510.469297 
L 344.773249 510.331609 
L 345.1128 510.762979 
L 345.367463 510.502189 
L 345.707013 510.952588 
L 345.961676 510.643722 
L 346.301227 511.133574 
L 346.55589 510.756726 
L 346.640778 510.823556 
L 346.895441 511.293089 
L 347.234992 510.846553 
L 347.319879 510.984938 
L 347.574542 511.384277 
L 347.914093 510.883796 
L 348.253644 511.425756 
L 348.593194 510.807919 
L 348.932745 511.4445 
L 349.272296 510.856565 
L 349.611846 511.595166 
L 349.696734 511.485612 
L 349.951397 511.126652 
L 350.290948 511.926755 
L 350.375836 511.842699 
L 350.630499 511.55997 
L 350.970049 512.390429 
L 351.054937 512.316414 
L 351.224712 512.068416 
L 351.3096 512.120924 
L 351.649151 512.947578 
L 351.903814 512.67766 
L 352.073589 513.014077 
L 352.328252 513.559469 
L 352.582915 513.348721 
L 352.75269 513.760922 
L 352.922466 514.206806 
L 353.092241 514.099358 
L 353.262017 514.079841 
L 353.601567 514.913615 
L 353.686455 514.869967 
L 353.85623 514.748353 
L 354.026006 515.086597 
L 354.280669 515.619691 
L 354.535332 515.513697 
L 354.95977 516.326198 
L 355.129545 516.222571 
L 355.299321 516.53658 
L 355.553984 517.085829 
L 355.808647 517.009457 
L 356.233085 517.834785 
L 356.317973 517.776925 
L 356.487748 517.832505 
L 356.912187 518.603509 
L 357.081962 518.562496 
L 357.251737 518.901659 
L 357.5064 519.432961 
L 357.761063 519.423496 
L 358.015726 520.031595 
L 358.185502 520.301001 
L 358.440165 520.314183 
L 358.694828 520.905853 
L 358.949491 521.22508 
L 359.119266 521.220391 
L 359.289041 521.512596 
L 359.628592 522.193709 
L 359.968143 522.302693 
L 360.477469 523.096368 
L 360.732132 523.105409 
L 361.411233 523.797016 
L 361.665896 523.794922 
L 362.514773 524.373078 
L 363.024099 524.595869 
L 363.36365 524.993666 
L 363.788088 525.876523 
L 364.382302 527.867633 
L 365.400954 532.257204 
L 367.183595 539.941424 
L 369.220899 547.834538 
L 370.324439 551.238489 
L 371.512867 554.200669 
L 372.786182 556.711901 
L 374.399048 559.284928 
L 376.181689 561.685398 
L 377.794555 563.502721 
L 379.577196 565.196731 
L 381.699388 566.874565 
L 383.736692 568.196558 
L 386.283322 569.537795 
L 389.509054 570.878852 
L 392.649898 571.899451 
L 396.469843 572.851993 
L 400.629339 573.628626 
L 406.911027 574.478526 
L 414.296255 575.1892 
L 425.416541 575.973262 
L 444.006942 577.005272 
L 462.852005 577.844304 
L 482.376171 578.469544 
L 501.39101 578.841893 
L 525.244447 579.085747 
L 564.717216 579.252832 
L 647.907138 579.352813 
L 671.675687 579.363689 
L 671.675687 579.363689 
" clip-path="url(#p613cae5855)" style="fill: none; stroke: #1f77b4; stroke-width: 1.5; stroke-linecap: square"/>
   </g>
   <g id="line2d_33">
    <path d="M 60.654199 595.620791 
L 62.946167 595.512422 
L 64.049706 595.2802 
L 66.256786 594.594326 
L 68.718529 593.485326 
L 70.416282 592.766625 
L 72.793137 592.035902 
L 74.49089 591.495402 
L 75.25488 591.132953 
L 76.69797 590.071081 
L 78.056173 588.668679 
L 80.093477 585.868824 
L 80.857466 584.635841 
L 82.640107 581.351194 
L 85.356513 575.395066 
L 87.224042 570.401023 
L 89.770672 562.251064 
L 90.619549 559.492881 
L 91.638201 555.78218 
L 94.439494 544.25125 
L 95.033708 539.980662 
L 96.137248 525.90597 
L 96.561686 519.217998 
L 96.816349 515.386062 
L 97.240787 510.02147 
L 97.919889 502.684878 
L 98.59899 497.360522 
L 99.023429 494.603507 
L 101.230508 485.075224 
L 105.644667 469.744209 
L 106.408656 467.471571 
L 106.663319 465.520474 
L 107.087758 462.948414 
L 107.512196 461.442688 
L 109.20995 457.049645 
L 113.19967 445.239188 
L 115.067199 440.782435 
L 117.274279 436.020258 
L 120.669786 429.435282 
L 125.168833 421.321413 
L 126.951474 418.647826 
L 128.90389 416.011235 
L 134.251814 409.888277 
L 136.20423 408.036622 
L 137.30777 407.092506 
L 138.920636 405.857351 
L 140.533502 404.755914 
L 141.721929 404.215173 
L 142.910357 403.931147 
L 144.438335 403.810346 
L 147.239628 403.859735 
L 148.173393 403.9167 
L 149.36182 403.619317 
L 150.889798 403.129326 
L 152.417776 402.849602 
L 153.945755 402.585237 
L 154.539968 402.516087 
L 155.21907 402.392884 
L 156.916823 402.08815 
L 158.275026 401.960775 
L 160.991432 401.842392 
L 162.51941 401.781918 
L 166.848681 402.241224 
L 167.527783 402.392831 
L 168.376659 402.467246 
L 170.583739 402.619645 
L 171.941942 402.909833 
L 174.149021 403.413907 
L 175.167674 403.738474 
L 178.308517 404.460479 
L 179.496945 404.757728 
L 180.855148 405.246297 
L 181.619137 405.602616 
L 186.882173 407.027279 
L 188.155488 407.433969 
L 193.163861 409.466751 
L 194.097625 409.986281 
L 199.700212 412.32123 
L 201.22819 413.324175 
L 208.783193 418.636363 
L 209.207631 418.864663 
L 210.056508 419.922269 
L 211.414711 422.101907 
L 212.433363 423.876847 
L 214.470667 427.092902 
L 215.404432 428.325201 
L 217.102185 430.162892 
L 219.224377 432.148527 
L 219.988366 433.087393 
L 221.007018 434.958841 
L 221.346569 435.731028 
L 221.431457 435.555563 
L 221.855895 433.010081 
L 222.110558 432.581744 
L 222.280333 432.650573 
L 222.534996 433.105859 
L 224.062975 436.485691 
L 225.166514 438.071013 
L 226.949156 440.638672 
L 228.98646 444.098547 
L 233.400619 451.623395 
L 234.928597 453.960851 
L 236.796126 456.266296 
L 239.682307 459.513523 
L 246.218658 465.420454 
L 249.359502 468.200853 
L 249.953716 468.701355 
L 256.150516 474.007346 
L 256.914505 474.658521 
L 259.546023 476.678709 
L 261.753102 478.269993 
L 263.450856 479.504177 
L 265.148609 480.753093 
L 268.713892 483.321135 
L 271.34541 484.955055 
L 273.212939 486.168011 
L 274.061815 486.819677 
L 276.778221 488.425348 
L 278.730638 489.626116 
L 279.664402 490.257411 
L 285.861202 493.700528 
L 287.643843 495.268348 
L 293.416205 500.516751 
L 294.859296 501.458088 
L 297.066375 503.221269 
L 299.188567 504.860119 
L 301.225871 506.350551 
L 303.263176 507.859058 
L 304.876042 508.664252 
L 306.913346 509.302906 
L 308.611099 509.588832 
L 309.120425 509.709131 
L 309.544864 509.826509 
L 310.478628 510.145111 
L 311.412393 510.573607 
L 314.213686 511.852436 
L 314.638124 512.056583 
L 315.317226 512.301289 
L 316.081215 512.556218 
L 317.524305 512.85945 
L 318.203407 513.230408 
L 318.79762 513.287753 
L 319.731385 513.093733 
L 320.919812 512.889829 
L 322.702453 512.94325 
L 326.437511 513.388232 
L 328.729478 513.720884 
L 330.766783 514.328626 
L 338.491561 517.062161 
L 354.535332 523.135945 
L 368.541798 528.6792 
L 383.142478 534.70095 
L 399.695575 541.775395 
L 420.153505 550.772477 
L 452.920147 565.462442 
L 498.84438 586.006325 
L 529.573718 599.49239 
L 571.678005 617.686668 
L 596.125656 628.373728 
L 610.556561 634.916937 
L 621.591958 640.155524 
L 630.759827 644.747865 
L 638.569494 648.902432 
L 645.445395 652.807139 
L 651.557308 656.528116 
L 657.075007 660.141349 
L 662.168267 663.740458 
L 666.837089 667.310093 
L 671.166361 670.897977 
L 671.675687 671.34 
L 671.675687 671.34 
" clip-path="url(#p613cae5855)" style="fill: none; stroke: #ff7f0e; stroke-width: 1.5; stroke-linecap: square"/>
   </g>
   <g id="patch_9">
    <path d="M 30.103125 684.92 
L 30.103125 386.16 
" style="fill: none; stroke: #000000; stroke-width: 0.8; stroke-linejoin: miter; stroke-linecap: square"/>
   </g>
   <g id="patch_10">
    <path d="M 702.226761 684.92 
L 702.226761 386.16 
" style="fill: none; stroke: #000000; stroke-width: 0.8; stroke-linejoin: miter; stroke-linecap: square"/>
   </g>
   <g id="patch_11">
    <path d="M 30.103125 684.92 
L 702.226761 684.92 
" style="fill: none; stroke: #000000; stroke-width: 0.8; stroke-linejoin: miter; stroke-linecap: square"/>
   </g>
   <g id="patch_12">
    <path d="M 30.103125 386.16 
L 702.226761 386.16 
" style="fill: none; stroke: #000000; stroke-width: 0.8; stroke-linejoin: miter; stroke-linecap: square"/>
   </g>
   <g id="text_31">
    <!-- 2 transformation(s) -->
    <g transform="translate(308.050256 380.16) scale(0.12 -0.12)">
     <use xlink:href="#DejaVuSans-32"/>
     <use xlink:href="#DejaVuSans-20" x="63.623047"/>
     <use xlink:href="#DejaVuSans-74" x="95.410156"/>
     <use xlink:href="#DejaVuSans-72" x="134.619141"/>
     <use xlink:href="#DejaVuSans-61" x="175.732422"/>
     <use xlink:href="#DejaVuSans-6e" x="237.011719"/>
     <use xlink:href="#DejaVuSans-73" x="300.390625"/>
     <use xlink:href="#DejaVuSans-66" x="352.490234"/>
     <use xlink:href="#DejaVuSans-6f" x="387.695312"/>
     <use xlink:href="#DejaVuSans-72" x="448.876953"/>
     <use xlink:href="#DejaVuSans-6d" x="488.240234"/>
     <use xlink:href="#DejaVuSans-61" x="585.652344"/>
     <use xlink:href="#DejaVuSans-74" x="646.931641"/>
     <use xlink:href="#DejaVuSans-69" x="686.140625"/>
     <use xlink:href="#DejaVuSans-6f" x="713.923828"/>
     <use xlink:href="#DejaVuSans-6e" x="775.105469"/>
     <use xlink:href="#DejaVuSans-28" x="838.484375"/>
     <use xlink:href="#DejaVuSans-73" x="877.498047"/>
     <use xlink:href="#DejaVuSans-29" x="929.597656"/>
    </g>
   </g>
  </g>
  <g id="text_32">
   <!-- training -->
   <g transform="translate(333.219687 16.318125) scale(0.12 -0.12)">
    <defs>
     <path id="DejaVuSans-67" d="M 2906 1791 
Q 2906 2416 2648 2759 
Q 2391 3103 1925 3103 
Q 1463 3103 1205 2759 
Q 947 2416 947 1791 
Q 947 1169 1205 825 
Q 1463 481 1925 481 
Q 2391 481 2648 825 
Q 2906 1169 2906 1791 
z
M 3481 434 
Q 3481 -459 3084 -895 
Q 2688 -1331 1869 -1331 
Q 1566 -1331 1297 -1286 
Q 1028 -1241 775 -1147 
L 775 -588 
Q 1028 -725 1275 -790 
Q 1522 -856 1778 -856 
Q 2344 -856 2625 -561 
Q 2906 -266 2906 331 
L 2906 616 
Q 2728 306 2450 153 
Q 2172 0 1784 0 
Q 1141 0 747 490 
Q 353 981 353 1791 
Q 353 2603 747 3093 
Q 1141 3584 1784 3584 
Q 2172 3584 2450 3431 
Q 2728 3278 2906 2969 
L 2906 3500 
L 3481 3500 
L 3481 434 
z
" transform="scale(0.015625)"/>
    </defs>
    <use xlink:href="#DejaVuSans-74"/>
    <use xlink:href="#DejaVuSans-72" x="39.208984"/>
    <use xlink:href="#DejaVuSans-61" x="80.322266"/>
    <use xlink:href="#DejaVuSans-69" x="141.601562"/>
    <use xlink:href="#DejaVuSans-6e" x="169.384766"/>
    <use xlink:href="#DejaVuSans-69" x="232.763672"/>
    <use xlink:href="#DejaVuSans-6e" x="260.546875"/>
    <use xlink:href="#DejaVuSans-67" x="323.925781"/>
   </g>
  </g>
 </g>
 <defs>
  <clipPath id="p7cc5ca07aa">
   <rect x="30.103125" y="43.44" width="672.123636" height="298.76"/>
  </clipPath>
  <clipPath id="p613cae5855">
   <rect x="30.103125" y="386.16" width="672.123636" height="298.76"/>
  </clipPath>
 </defs>
</svg>
