<?xml version="1.0" encoding="utf-8" standalone="no"?>
<!DOCTYPE svg PUBLIC "-//W3C//DTD SVG 1.1//EN"
  "http://www.w3.org/Graphics/SVG/1.1/DTD/svg11.dtd">
<svg xmlns:xlink="http://www.w3.org/1999/xlink" width="709.489261pt" height="708.798125pt" viewBox="0 0 709.489261 708.798125" xmlns="http://www.w3.org/2000/svg" version="1.1">
 <metadata>
  <rdf:RDF xmlns:dc="http://purl.org/dc/elements/1.1/" xmlns:cc="http://creativecommons.org/ns#" xmlns:rdf="http://www.w3.org/1999/02/22-rdf-syntax-ns#">
   <cc:Work>
    <dc:type rdf:resource="http://purl.org/dc/dcmitype/StillImage"/>
    <dc:date>2023-06-16T22:13:55.862695</dc:date>
    <dc:format>image/svg+xml</dc:format>
    <dc:creator>
     <cc:Agent>
      <dc:title>Matplotlib v3.7.1, https://matplotlib.org/</dc:title>
     </cc:Agent>
    </dc:creator>
   </cc:Work>
  </rdf:RDF>
 </metadata>
 <defs>
  <style type="text/css">*{stroke-linejoin: round; stroke-linecap: butt}</style>
 </defs>
 <g id="figure_1">
  <g id="patch_1">
   <path d="M 0 708.798125 
L 709.489261 708.798125 
L 709.489261 0 
L 0 0 
z
" style="fill: #ffffff"/>
  </g>
  <g id="axes_1">
   <g id="patch_2">
    <path d="M 36.465625 342.2 
L 702.289261 342.2 
L 702.289261 43.44 
L 36.465625 43.44 
z
" style="fill: #ffffff"/>
   </g>
   <g id="matplotlib.axis_1">
    <g id="xtick_1">
     <g id="line2d_1">
      <defs>
       <path id="m4a14bb58b6" d="M 0 0 
L 0 3.5 
" style="stroke: #000000; stroke-width: 0.8"/>
      </defs>
      <g>
       <use xlink:href="#m4a14bb58b6" x="66.562152" y="342.2" style="stroke: #000000; stroke-width: 0.8"/>
      </g>
     </g>
     <g id="text_1">
      <!-- 2014-07-01 -->
      <g transform="translate(37.504339 356.798437) scale(0.1 -0.1)">
       <defs>
        <path id="DejaVuSans-32" d="M 1228 531 
L 3431 531 
L 3431 0 
L 469 0 
L 469 531 
Q 828 903 1448 1529 
Q 2069 2156 2228 2338 
Q 2531 2678 2651 2914 
Q 2772 3150 2772 3378 
Q 2772 3750 2511 3984 
Q 2250 4219 1831 4219 
Q 1534 4219 1204 4116 
Q 875 4013 500 3803 
L 500 4441 
Q 881 4594 1212 4672 
Q 1544 4750 1819 4750 
Q 2544 4750 2975 4387 
Q 3406 4025 3406 3419 
Q 3406 3131 3298 2873 
Q 3191 2616 2906 2266 
Q 2828 2175 2409 1742 
Q 1991 1309 1228 531 
z
" transform="scale(0.015625)"/>
        <path id="DejaVuSans-30" d="M 2034 4250 
Q 1547 4250 1301 3770 
Q 1056 3291 1056 2328 
Q 1056 1369 1301 889 
Q 1547 409 2034 409 
Q 2525 409 2770 889 
Q 3016 1369 3016 2328 
Q 3016 3291 2770 3770 
Q 2525 4250 2034 4250 
z
M 2034 4750 
Q 2819 4750 3233 4129 
Q 3647 3509 3647 2328 
Q 3647 1150 3233 529 
Q 2819 -91 2034 -91 
Q 1250 -91 836 529 
Q 422 1150 422 2328 
Q 422 3509 836 4129 
Q 1250 4750 2034 4750 
z
" transform="scale(0.015625)"/>
        <path id="DejaVuSans-31" d="M 794 531 
L 1825 531 
L 1825 4091 
L 703 3866 
L 703 4441 
L 1819 4666 
L 2450 4666 
L 2450 531 
L 3481 531 
L 3481 0 
L 794 0 
L 794 531 
z
" transform="scale(0.015625)"/>
        <path id="DejaVuSans-34" d="M 2419 4116 
L 825 1625 
L 2419 1625 
L 2419 4116 
z
M 2253 4666 
L 3047 4666 
L 3047 1625 
L 3713 1625 
L 3713 1100 
L 3047 1100 
L 3047 0 
L 2419 0 
L 2419 1100 
L 313 1100 
L 313 1709 
L 2253 4666 
z
" transform="scale(0.015625)"/>
        <path id="DejaVuSans-2d" d="M 313 2009 
L 1997 2009 
L 1997 1497 
L 313 1497 
L 313 2009 
z
" transform="scale(0.015625)"/>
        <path id="DejaVuSans-37" d="M 525 4666 
L 3525 4666 
L 3525 4397 
L 1831 0 
L 1172 0 
L 2766 4134 
L 525 4134 
L 525 4666 
z
" transform="scale(0.015625)"/>
       </defs>
       <use xlink:href="#DejaVuSans-32"/>
       <use xlink:href="#DejaVuSans-30" x="63.623047"/>
       <use xlink:href="#DejaVuSans-31" x="127.246094"/>
       <use xlink:href="#DejaVuSans-34" x="190.869141"/>
       <use xlink:href="#DejaVuSans-2d" x="254.492188"/>
       <use xlink:href="#DejaVuSans-30" x="290.576172"/>
       <use xlink:href="#DejaVuSans-37" x="354.199219"/>
       <use xlink:href="#DejaVuSans-2d" x="417.822266"/>
       <use xlink:href="#DejaVuSans-30" x="453.90625"/>
       <use xlink:href="#DejaVuSans-31" x="517.529297"/>
      </g>
     </g>
    </g>
    <g id="xtick_2">
     <g id="line2d_2">
      <g>
       <use xlink:href="#m4a14bb58b6" x="187.654632" y="342.2" style="stroke: #000000; stroke-width: 0.8"/>
      </g>
     </g>
     <g id="text_2">
      <!-- 2014-07-02 -->
      <g transform="translate(158.596819 356.798437) scale(0.1 -0.1)">
       <use xlink:href="#DejaVuSans-32"/>
       <use xlink:href="#DejaVuSans-30" x="63.623047"/>
       <use xlink:href="#DejaVuSans-31" x="127.246094"/>
       <use xlink:href="#DejaVuSans-34" x="190.869141"/>
       <use xlink:href="#DejaVuSans-2d" x="254.492188"/>
       <use xlink:href="#DejaVuSans-30" x="290.576172"/>
       <use xlink:href="#DejaVuSans-37" x="354.199219"/>
       <use xlink:href="#DejaVuSans-2d" x="417.822266"/>
       <use xlink:href="#DejaVuSans-30" x="453.90625"/>
       <use xlink:href="#DejaVuSans-32" x="517.529297"/>
      </g>
     </g>
    </g>
    <g id="xtick_3">
     <g id="line2d_3">
      <g>
       <use xlink:href="#m4a14bb58b6" x="308.747111" y="342.2" style="stroke: #000000; stroke-width: 0.8"/>
      </g>
     </g>
     <g id="text_3">
      <!-- 2014-07-03 -->
      <g transform="translate(279.689299 356.798437) scale(0.1 -0.1)">
       <defs>
        <path id="DejaVuSans-33" d="M 2597 2516 
Q 3050 2419 3304 2112 
Q 3559 1806 3559 1356 
Q 3559 666 3084 287 
Q 2609 -91 1734 -91 
Q 1441 -91 1130 -33 
Q 819 25 488 141 
L 488 750 
Q 750 597 1062 519 
Q 1375 441 1716 441 
Q 2309 441 2620 675 
Q 2931 909 2931 1356 
Q 2931 1769 2642 2001 
Q 2353 2234 1838 2234 
L 1294 2234 
L 1294 2753 
L 1863 2753 
Q 2328 2753 2575 2939 
Q 2822 3125 2822 3475 
Q 2822 3834 2567 4026 
Q 2313 4219 1838 4219 
Q 1578 4219 1281 4162 
Q 984 4106 628 3988 
L 628 4550 
Q 988 4650 1302 4700 
Q 1616 4750 1894 4750 
Q 2613 4750 3031 4423 
Q 3450 4097 3450 3541 
Q 3450 3153 3228 2886 
Q 3006 2619 2597 2516 
z
" transform="scale(0.015625)"/>
       </defs>
       <use xlink:href="#DejaVuSans-32"/>
       <use xlink:href="#DejaVuSans-30" x="63.623047"/>
       <use xlink:href="#DejaVuSans-31" x="127.246094"/>
       <use xlink:href="#DejaVuSans-34" x="190.869141"/>
       <use xlink:href="#DejaVuSans-2d" x="254.492188"/>
       <use xlink:href="#DejaVuSans-30" x="290.576172"/>
       <use xlink:href="#DejaVuSans-37" x="354.199219"/>
       <use xlink:href="#DejaVuSans-2d" x="417.822266"/>
       <use xlink:href="#DejaVuSans-30" x="453.90625"/>
       <use xlink:href="#DejaVuSans-33" x="517.529297"/>
      </g>
     </g>
    </g>
    <g id="xtick_4">
     <g id="line2d_4">
      <g>
       <use xlink:href="#m4a14bb58b6" x="429.839591" y="342.2" style="stroke: #000000; stroke-width: 0.8"/>
      </g>
     </g>
     <g id="text_4">
      <!-- 2014-07-04 -->
      <g transform="translate(400.781779 356.798437) scale(0.1 -0.1)">
       <use xlink:href="#DejaVuSans-32"/>
       <use xlink:href="#DejaVuSans-30" x="63.623047"/>
       <use xlink:href="#DejaVuSans-31" x="127.246094"/>
       <use xlink:href="#DejaVuSans-34" x="190.869141"/>
       <use xlink:href="#DejaVuSans-2d" x="254.492188"/>
       <use xlink:href="#DejaVuSans-30" x="290.576172"/>
       <use xlink:href="#DejaVuSans-37" x="354.199219"/>
       <use xlink:href="#DejaVuSans-2d" x="417.822266"/>
       <use xlink:href="#DejaVuSans-30" x="453.90625"/>
       <use xlink:href="#DejaVuSans-34" x="517.529297"/>
      </g>
     </g>
    </g>
    <g id="xtick_5">
     <g id="line2d_5">
      <g>
       <use xlink:href="#m4a14bb58b6" x="550.932071" y="342.2" style="stroke: #000000; stroke-width: 0.8"/>
      </g>
     </g>
     <g id="text_5">
      <!-- 2014-07-05 -->
      <g transform="translate(521.874258 356.798437) scale(0.1 -0.1)">
       <defs>
        <path id="DejaVuSans-35" d="M 691 4666 
L 3169 4666 
L 3169 4134 
L 1269 4134 
L 1269 2991 
Q 1406 3038 1543 3061 
Q 1681 3084 1819 3084 
Q 2600 3084 3056 2656 
Q 3513 2228 3513 1497 
Q 3513 744 3044 326 
Q 2575 -91 1722 -91 
Q 1428 -91 1123 -41 
Q 819 9 494 109 
L 494 744 
Q 775 591 1075 516 
Q 1375 441 1709 441 
Q 2250 441 2565 725 
Q 2881 1009 2881 1497 
Q 2881 1984 2565 2268 
Q 2250 2553 1709 2553 
Q 1456 2553 1204 2497 
Q 953 2441 691 2322 
L 691 4666 
z
" transform="scale(0.015625)"/>
       </defs>
       <use xlink:href="#DejaVuSans-32"/>
       <use xlink:href="#DejaVuSans-30" x="63.623047"/>
       <use xlink:href="#DejaVuSans-31" x="127.246094"/>
       <use xlink:href="#DejaVuSans-34" x="190.869141"/>
       <use xlink:href="#DejaVuSans-2d" x="254.492188"/>
       <use xlink:href="#DejaVuSans-30" x="290.576172"/>
       <use xlink:href="#DejaVuSans-37" x="354.199219"/>
       <use xlink:href="#DejaVuSans-2d" x="417.822266"/>
       <use xlink:href="#DejaVuSans-30" x="453.90625"/>
       <use xlink:href="#DejaVuSans-35" x="517.529297"/>
      </g>
     </g>
    </g>
    <g id="xtick_6">
     <g id="line2d_6">
      <g>
       <use xlink:href="#m4a14bb58b6" x="672.024551" y="342.2" style="stroke: #000000; stroke-width: 0.8"/>
      </g>
     </g>
     <g id="text_6">
      <!-- 2014-07-06 -->
      <g transform="translate(642.966738 356.798437) scale(0.1 -0.1)">
       <defs>
        <path id="DejaVuSans-36" d="M 2113 2584 
Q 1688 2584 1439 2293 
Q 1191 2003 1191 1497 
Q 1191 994 1439 701 
Q 1688 409 2113 409 
Q 2538 409 2786 701 
Q 3034 994 3034 1497 
Q 3034 2003 2786 2293 
Q 2538 2584 2113 2584 
z
M 3366 4563 
L 3366 3988 
Q 3128 4100 2886 4159 
Q 2644 4219 2406 4219 
Q 1781 4219 1451 3797 
Q 1122 3375 1075 2522 
Q 1259 2794 1537 2939 
Q 1816 3084 2150 3084 
Q 2853 3084 3261 2657 
Q 3669 2231 3669 1497 
Q 3669 778 3244 343 
Q 2819 -91 2113 -91 
Q 1303 -91 875 529 
Q 447 1150 447 2328 
Q 447 3434 972 4092 
Q 1497 4750 2381 4750 
Q 2619 4750 2861 4703 
Q 3103 4656 3366 4563 
z
" transform="scale(0.015625)"/>
       </defs>
       <use xlink:href="#DejaVuSans-32"/>
       <use xlink:href="#DejaVuSans-30" x="63.623047"/>
       <use xlink:href="#DejaVuSans-31" x="127.246094"/>
       <use xlink:href="#DejaVuSans-34" x="190.869141"/>
       <use xlink:href="#DejaVuSans-2d" x="254.492188"/>
       <use xlink:href="#DejaVuSans-30" x="290.576172"/>
       <use xlink:href="#DejaVuSans-37" x="354.199219"/>
       <use xlink:href="#DejaVuSans-2d" x="417.822266"/>
       <use xlink:href="#DejaVuSans-30" x="453.90625"/>
       <use xlink:href="#DejaVuSans-36" x="517.529297"/>
      </g>
     </g>
    </g>
   </g>
   <g id="matplotlib.axis_2">
    <g id="ytick_1">
     <g id="line2d_7">
      <defs>
       <path id="m3ad16b64dc" d="M 0 0 
L -3.5 0 
" style="stroke: #000000; stroke-width: 0.8"/>
      </defs>
      <g>
       <use xlink:href="#m3ad16b64dc" x="36.465625" y="321.050058" style="stroke: #000000; stroke-width: 0.8"/>
      </g>
     </g>
     <g id="text_7">
      <!-- 0.00 -->
      <g transform="translate(7.2 324.849277) scale(0.1 -0.1)">
       <defs>
        <path id="DejaVuSans-2e" d="M 684 794 
L 1344 794 
L 1344 0 
L 684 0 
L 684 794 
z
" transform="scale(0.015625)"/>
       </defs>
       <use xlink:href="#DejaVuSans-30"/>
       <use xlink:href="#DejaVuSans-2e" x="63.623047"/>
       <use xlink:href="#DejaVuSans-30" x="95.410156"/>
       <use xlink:href="#DejaVuSans-30" x="159.033203"/>
      </g>
     </g>
    </g>
    <g id="ytick_2">
     <g id="line2d_8">
      <g>
       <use xlink:href="#m3ad16b64dc" x="36.465625" y="284.980795" style="stroke: #000000; stroke-width: 0.8"/>
      </g>
     </g>
     <g id="text_8">
      <!-- 0.25 -->
      <g transform="translate(7.2 288.780014) scale(0.1 -0.1)">
       <use xlink:href="#DejaVuSans-30"/>
       <use xlink:href="#DejaVuSans-2e" x="63.623047"/>
       <use xlink:href="#DejaVuSans-32" x="95.410156"/>
       <use xlink:href="#DejaVuSans-35" x="159.033203"/>
      </g>
     </g>
    </g>
    <g id="ytick_3">
     <g id="line2d_9">
      <g>
       <use xlink:href="#m3ad16b64dc" x="36.465625" y="248.911532" style="stroke: #000000; stroke-width: 0.8"/>
      </g>
     </g>
     <g id="text_9">
      <!-- 0.50 -->
      <g transform="translate(7.2 252.71075) scale(0.1 -0.1)">
       <use xlink:href="#DejaVuSans-30"/>
       <use xlink:href="#DejaVuSans-2e" x="63.623047"/>
       <use xlink:href="#DejaVuSans-35" x="95.410156"/>
       <use xlink:href="#DejaVuSans-30" x="159.033203"/>
      </g>
     </g>
    </g>
    <g id="ytick_4">
     <g id="line2d_10">
      <g>
       <use xlink:href="#m3ad16b64dc" x="36.465625" y="212.842268" style="stroke: #000000; stroke-width: 0.8"/>
      </g>
     </g>
     <g id="text_10">
      <!-- 0.75 -->
      <g transform="translate(7.2 216.641487) scale(0.1 -0.1)">
       <use xlink:href="#DejaVuSans-30"/>
       <use xlink:href="#DejaVuSans-2e" x="63.623047"/>
       <use xlink:href="#DejaVuSans-37" x="95.410156"/>
       <use xlink:href="#DejaVuSans-35" x="159.033203"/>
      </g>
     </g>
    </g>
    <g id="ytick_5">
     <g id="line2d_11">
      <g>
       <use xlink:href="#m3ad16b64dc" x="36.465625" y="176.773005" style="stroke: #000000; stroke-width: 0.8"/>
      </g>
     </g>
     <g id="text_11">
      <!-- 1.00 -->
      <g transform="translate(7.2 180.572224) scale(0.1 -0.1)">
       <use xlink:href="#DejaVuSans-31"/>
       <use xlink:href="#DejaVuSans-2e" x="63.623047"/>
       <use xlink:href="#DejaVuSans-30" x="95.410156"/>
       <use xlink:href="#DejaVuSans-30" x="159.033203"/>
      </g>
     </g>
    </g>
    <g id="ytick_6">
     <g id="line2d_12">
      <g>
       <use xlink:href="#m3ad16b64dc" x="36.465625" y="140.703741" style="stroke: #000000; stroke-width: 0.8"/>
      </g>
     </g>
     <g id="text_12">
      <!-- 1.25 -->
      <g transform="translate(7.2 144.50296) scale(0.1 -0.1)">
       <use xlink:href="#DejaVuSans-31"/>
       <use xlink:href="#DejaVuSans-2e" x="63.623047"/>
       <use xlink:href="#DejaVuSans-32" x="95.410156"/>
       <use xlink:href="#DejaVuSans-35" x="159.033203"/>
      </g>
     </g>
    </g>
    <g id="ytick_7">
     <g id="line2d_13">
      <g>
       <use xlink:href="#m3ad16b64dc" x="36.465625" y="104.634478" style="stroke: #000000; stroke-width: 0.8"/>
      </g>
     </g>
     <g id="text_13">
      <!-- 1.50 -->
      <g transform="translate(7.2 108.433697) scale(0.1 -0.1)">
       <use xlink:href="#DejaVuSans-31"/>
       <use xlink:href="#DejaVuSans-2e" x="63.623047"/>
       <use xlink:href="#DejaVuSans-35" x="95.410156"/>
       <use xlink:href="#DejaVuSans-30" x="159.033203"/>
      </g>
     </g>
    </g>
    <g id="ytick_8">
     <g id="line2d_14">
      <g>
       <use xlink:href="#m3ad16b64dc" x="36.465625" y="68.565215" style="stroke: #000000; stroke-width: 0.8"/>
      </g>
     </g>
     <g id="text_14">
      <!-- 1.75 -->
      <g transform="translate(7.2 72.364433) scale(0.1 -0.1)">
       <use xlink:href="#DejaVuSans-31"/>
       <use xlink:href="#DejaVuSans-2e" x="63.623047"/>
       <use xlink:href="#DejaVuSans-37" x="95.410156"/>
       <use xlink:href="#DejaVuSans-35" x="159.033203"/>
      </g>
     </g>
    </g>
   </g>
   <g id="line2d_15">
    <path d="M 66.730336 321.035798 
L 72.616776 320.900136 
L 76.064548 320.651919 
L 81.530528 320.016301 
L 82.707816 319.731455 
L 83.212368 319.479339 
L 83.801012 318.9752 
L 84.221472 318.43814 
L 84.894208 316.864008 
L 85.566944 314.035299 
L 86.323772 309.47285 
L 87.416968 301.396729 
L 89.098808 286.198788 
L 90.107912 279.416895 
L 90.780648 276.372333 
L 91.537476 274.390805 
L 91.873844 273.770917 
L 92.54658 272.820951 
L 93.303408 272.155292 
L 93.555684 272.093508 
L 93.80796 272.068457 
L 94.312512 272.511026 
L 94.732972 273.173542 
L 95.06934 273.747762 
L 95.321616 273.257105 
L 95.742076 270.586392 
L 96.078444 269.565291 
L 96.246628 269.470179 
L 96.414812 269.603894 
L 96.667088 270.054667 
L 97.087548 271.294052 
L 97.760284 274.481556 
L 98.685296 279.555112 
L 98.937572 278.787535 
L 99.358032 271.589852 
L 99.526216 264.687492 
L 100.53532 189.178952 
L 101.208056 131.047717 
L 102.133068 73.741871 
L 102.63762 59.042192 
L 102.805804 57.041516 
L 102.889896 57.02 
L 103.142172 57.817267 
L 103.310356 58.61211 
L 103.646724 63.476584 
L 104.067184 69.777876 
L 104.487644 76.996865 
L 105.749024 101.257869 
L 108.94452 175.694755 
L 109.701348 185.51829 
L 109.869532 185.708547 
L 109.953624 186.496768 
L 110.037716 186.442341 
L 110.121808 186.054035 
L 110.2059 186.80127 
L 110.794544 181.238794 
L 111.130912 171.062882 
L 111.46728 157.531525 
L 112.140016 111.127455 
L 112.560476 96.311785 
L 112.812752 93.903747 
L 112.980936 94.949353 
L 113.401396 103.28615 
L 114.158224 125.491888 
L 114.999144 151.815193 
L 115.419604 160.396011 
L 115.587788 162.337058 
L 115.924156 166.507993 
L 116.344616 169.567999 
L 116.428708 169.788114 
L 116.596892 171.011027 
L 116.680984 170.993225 
L 116.849168 172.427068 
L 116.93326 171.984138 
L 117.185536 173.347826 
L 117.269628 173.307717 
L 117.35372 174.06479 
L 117.437812 173.938342 
L 117.521904 173.739399 
L 117.605996 174.465427 
L 117.690088 174.361906 
L 117.77418 174.28346 
L 117.942364 175.142799 
L 118.026456 174.645864 
L 118.19464 175.852936 
L 118.278732 175.16177 
L 118.446916 176.063023 
L 118.531008 175.902572 
L 118.6151 175.714069 
L 118.699192 176.419149 
L 118.783284 176.238799 
L 118.867376 175.757067 
L 118.951468 176.665562 
L 119.03556 176.492005 
L 119.119652 176.177862 
L 119.287836 177.205469 
L 119.371928 176.40496 
L 119.540112 177.407439 
L 119.624204 176.767192 
L 119.708296 176.963658 
L 119.792388 177.578425 
L 119.87648 176.965515 
L 120.044664 177.815962 
L 120.212848 177.515175 
L 120.29694 178.038227 
L 120.381032 177.991265 
L 120.465124 177.579517 
L 120.549216 178.36385 
L 120.633308 178.243826 
L 120.7174 177.890271 
L 120.885584 178.55022 
L 120.969676 178.041091 
L 121.13786 179.063504 
L 121.221952 178.298949 
L 121.390136 179.357369 
L 121.474228 178.787276 
L 121.55832 178.847147 
L 121.642412 179.625822 
L 121.726504 179.090377 
L 121.810596 179.241782 
L 121.894688 179.98359 
L 122.062872 179.514001 
L 122.146964 180.23542 
L 122.231056 180.046032 
L 122.315148 179.746861 
L 122.483332 180.671669 
L 122.567424 180.091756 
L 122.735608 181.025516 
L 122.8197 180.411677 
L 122.987884 181.153572 
L 123.071976 180.813467 
L 123.24016 181.950813 
L 123.324252 181.206124 
L 123.492436 182.258283 
L 123.576528 181.656725 
L 123.744712 182.632709 
L 123.828804 182.091976 
L 123.996988 183.165135 
L 124.08108 182.56687 
L 124.249264 183.627483 
L 124.333356 183.106907 
L 124.50154 184.168482 
L 124.585632 183.626133 
L 124.669724 184.628371 
L 124.753816 184.598599 
L 124.837908 184.195262 
L 124.922 185.158707 
L 125.006092 185.123406 
L 125.090184 184.901038 
L 125.174276 185.90749 
L 125.258368 185.503034 
L 125.34246 185.610151 
L 125.426552 186.538493 
L 125.510644 186.226492 
L 125.594736 186.414883 
L 125.678828 187.141547 
L 125.76292 186.445703 
L 126.015196 188.127489 
L 126.267472 188.804285 
L 126.772024 190.353767 
L 127.44476 192.117524 
L 127.781128 192.442855 
L 128.537956 192.933925 
L 128.874324 193.580373 
L 129.462968 195.411172 
L 130.303888 199.00867 
L 133.75166 215.022125 
L 134.676672 218.315215 
L 135.685776 221.023283 
L 136.863064 223.459356 
L 138.292628 225.787727 
L 139.890376 227.897987 
L 141.235848 229.36579 
L 144.599528 232.354953 
L 145.10408 233.255355 
L 145.692724 234.748604 
L 146.78592 238.368452 
L 148.46776 244.050523 
L 149.476864 246.670584 
L 150.485968 248.877245 
L 153.345096 253.533433 
L 153.765556 253.847447 
L 154.270108 253.899973 
L 155.026936 253.65277 
L 155.531488 253.614497 
L 156.120132 253.83938 
L 156.87696 254.42171 
L 160.072456 257.239531 
L 161.586112 257.793516 
L 162.090664 258.160619 
L 164.8657 260.654666 
L 165.70662 260.904187 
L 166.631632 261.211214 
L 167.220276 261.659798 
L 167.893012 262.500407 
L 169.658944 264.998053 
L 170.163496 265.371098 
L 171.088508 265.9353 
L 171.761244 266.579357 
L 172.43398 267.227748 
L 173.106716 267.589309 
L 173.611268 267.649794 
L 174.11582 267.553857 
L 174.788556 267.381672 
L 175.3772 267.529249 
L 175.881752 267.895549 
L 180.00226 272.098564 
L 180.506812 272.26531 
L 181.852284 272.45454 
L 182.356836 272.333355 
L 183.534124 271.995124 
L 184.20686 272.173101 
L 184.795504 272.577222 
L 185.552332 273.388708 
L 186.477344 274.344651 
L 187.065988 274.585843 
L 187.654632 274.445752 
L 188.747828 274.082755 
L 189.504656 273.823589 
L 191.438772 272.623986 
L 192.027416 272.575291 
L 193.709256 272.905042 
L 194.634268 273.477843 
L 196.4002 274.976918 
L 198.754775 276.874906 
L 199.091143 276.83048 
L 200.352523 276.372342 
L 201.193443 276.389958 
L 202.034363 276.438167 
L 203.548019 276.071064 
L 204.052571 276.317421 
L 204.641215 276.868228 
L 205.566227 278.120882 
L 207.920803 281.581208 
L 208.929907 282.611167 
L 209.939011 283.331232 
L 211.116299 283.892509 
L 212.461771 284.312874 
L 212.545863 284.26967 
L 213.050415 282.558026 
L 213.386783 279.38011 
L 214.732255 256.644302 
L 215.236807 248.973251 
L 215.741359 242.952554 
L 216.245911 238.762872 
L 216.918647 236.366882 
L 217.255015 235.922352 
L 217.423199 236.183513 
L 218.095935 238.370688 
L 219.105039 244.891837 
L 220.450511 253.206554 
L 221.459615 258.155158 
L 222.384627 261.689036 
L 222.973271 263.346735 
L 223.309639 263.698501 
L 223.477823 263.65927 
L 223.561915 263.647325 
L 223.730099 263.259914 
L 224.318743 260.93039 
L 224.907387 254.678966 
L 225.411939 241.834049 
L 226.252859 183.66631 
L 226.589227 175.934219 
L 226.757411 175.143986 
L 226.841503 175.458541 
L 227.009687 177.51674 
L 227.346055 185.992041 
L 229.027895 240.880046 
L 229.868815 255.931711 
L 230.541551 263.598956 
L 231.214287 268.788486 
L 231.802931 271.994178 
L 232.475667 274.571637 
L 233.232495 276.64319 
L 233.821139 277.83667 
L 234.493875 278.873595 
L 235.334795 279.803756 
L 236.343899 280.529638 
L 237.521187 281.045553 
L 238.698475 281.282966 
L 239.371211 281.206627 
L 239.875763 280.948219 
L 240.548499 280.353317 
L 242.482615 278.538039 
L 243.323535 277.642118 
L 245.762203 274.331683 
L 247.275859 271.98591 
L 247.696319 271.744537 
L 248.116779 271.755751 
L 248.621331 272.039429 
L 249.798619 272.899057 
L 250.387263 272.958415 
L 251.144091 273.017675 
L 252.321379 273.35787 
L 254.003219 273.632304 
L 254.928231 273.362191 
L 256.105519 273.002204 
L 256.694163 272.761721 
L 257.114623 272.774556 
L 257.535083 272.99578 
L 258.964647 274.357709 
L 260.226027 275.56767 
L 260.730579 275.775213 
L 261.235131 275.681219 
L 264.514719 274.301244 
L 265.439731 273.745991 
L 266.280651 273.479924 
L 266.785203 273.52889 
L 268.382951 274.175308 
L 269.223871 274.77085 
L 269.896607 275.273139 
L 270.401159 275.38348 
L 271.242079 275.296848 
L 274.269391 274.036081 
L 275.446679 272.767328 
L 275.867139 272.673309 
L 276.287599 272.803227 
L 276.792151 273.243711 
L 278.642175 275.244064 
L 279.062635 275.348145 
L 279.483095 275.16521 
L 280.071739 274.560285 
L 280.660383 273.949784 
L 281.164935 273.739894 
L 281.669487 273.79414 
L 282.510407 274.214892 
L 283.267235 274.731318 
L 283.687695 274.772235 
L 286.715007 273.997834 
L 287.555927 273.569768 
L 287.976387 273.546562 
L 288.396847 273.725618 
L 288.901399 274.200161 
L 289.658227 275.31486 
L 292.685539 280.433147 
L 293.694643 281.49096 
L 294.619655 282.136057 
L 295.712851 282.601411 
L 296.385587 282.716705 
L 296.890139 282.606842 
L 297.983335 282.003572 
L 298.740163 281.682417 
L 299.581083 281.585151 
L 300.506095 281.709931 
L 303.112947 282.270804 
L 305.299339 282.393873 
L 306.728903 282.481133 
L 307.401639 282.306501 
L 307.906191 281.987422 
L 308.494835 281.362 
L 309.167571 280.315023 
L 309.924399 278.71919 
L 310.849411 276.272454 
L 312.363067 271.390324 
L 313.288079 267.195835 
L 314.213091 262.583741 
L 314.885827 260.040724 
L 315.558563 258.573459 
L 315.894931 258.047775 
L 316.567667 257.259624 
L 317.829047 256.355042 
L 318.333599 256.353206 
L 318.669967 256.454724 
L 319.258611 256.758621 
L 319.763163 257.320646 
L 320.267715 258.232464 
L 320.435899 258.095894 
L 321.445003 253.577919 
L 321.613187 253.544754 
L 321.865463 253.87629 
L 322.201831 254.958423 
L 322.706383 257.677804 
L 325.145051 272.521006 
L 325.901879 275.086262 
L 326.574615 276.691507 
L 327.247351 277.803893 
L 327.920087 278.530334 
L 328.676915 279.009993 
L 329.433743 279.226079 
L 330.695123 279.297812 
L 331.704227 279.457907 
L 332.713331 279.857783 
L 334.311079 280.7732 
L 335.992919 281.65823 
L 337.254299 282.048892 
L 339.356599 282.432059 
L 343.224831 282.843283 
L 349.531731 283.285138 
L 451.955787 289.511777 
L 475.922007 290.726849 
L 488.535807 291.239569 
L 640.153683 296.365245 
L 672.024551 297.219222 
L 672.024551 297.219222 
" clip-path="url(#p869bcff75c)" style="fill: none; stroke: #1f77b4; stroke-width: 1.5; stroke-linecap: square"/>
   </g>
   <g id="line2d_16">
    <path d="M 66.730336 321.039858 
L 68.243992 321.15063 
L 70.009924 321.630679 
L 72.869052 322.652039 
L 75.30772 323.512123 
L 76.737284 323.665576 
L 80.185056 323.939055 
L 81.278252 324.428569 
L 82.707816 325.406246 
L 86.744232 328.567949 
L 87.164692 328.612192 
L 87.50106 328.491939 
L 88.76244 327.42561 
L 90.276096 325.148599 
L 93.976144 319.686182 
L 94.564788 319.454005 
L 95.153432 319.363174 
L 95.321616 319.076212 
L 95.573892 317.630364 
L 96.162536 313.811458 
L 96.498904 312.993969 
L 96.75118 312.879012 
L 97.087548 313.044228 
L 98.096652 313.704695 
L 98.601204 313.835012 
L 98.937572 313.608584 
L 99.105756 312.396378 
L 99.358032 308.123012 
L 99.610308 296.914339 
L 100.283044 246.524297 
L 101.628516 125.076026 
L 102.301252 88.377059 
L 102.889896 72.356791 
L 103.142172 71.131764 
L 103.394448 70.342665 
L 103.47854 70.472662 
L 104.067184 74.039161 
L 104.908104 83.859736 
L 105.749024 95.934599 
L 107.178588 119.731098 
L 108.355876 136.922894 
L 109.533164 151.785382 
L 110.121808 156.998415 
L 110.458176 158.877318 
L 110.710452 159.230247 
L 110.878636 159.262568 
L 110.962728 159.017316 
L 111.215004 156.40879 
L 111.551372 150.794625 
L 111.88774 134.799566 
L 112.3082 117.612862 
L 112.560476 113.945212 
L 112.644568 113.770251 
L 112.812752 114.512374 
L 113.065028 117.362007 
L 113.737764 129.163146 
L 114.915052 148.892176 
L 115.924156 162.238671 
L 116.93326 172.921654 
L 118.026456 182.286093 
L 119.287836 191.191274 
L 120.633308 199.14469 
L 122.062872 206.297639 
L 123.576528 212.789087 
L 125.174276 218.711698 
L 126.940208 224.428453 
L 130.303888 234.269834 
L 132.322096 238.915151 
L 134.508488 243.460423 
L 137.283524 248.742689 
L 140.05856 253.582124 
L 142.749504 257.90066 
L 145.10408 261.336744 
L 146.113184 262.514532 
L 147.122288 263.346607 
L 148.551852 264.203154 
L 151.242796 265.501063 
L 153.176912 266.486351 
L 153.765556 267.089174 
L 156.03604 269.453836 
L 159.39972 272.32339 
L 163.015676 275.650736 
L 167.556644 279.430958 
L 169.743036 280.820645 
L 171.59306 282.192703 
L 172.602164 282.850573 
L 174.620372 284.607143 
L 175.79766 285.470503 
L 182.10456 289.409012 
L 183.954584 290.742398 
L 185.131872 291.301242 
L 186.30916 291.77571 
L 187.822816 292.880925 
L 192.531968 296.314991 
L 193.541072 297.056595 
L 195.054728 297.979874 
L 196.736568 298.865807 
L 197.913855 299.388673 
L 198.418407 299.591733 
L 199.511603 300.375022 
L 200.604799 301.034805 
L 202.454823 302.143716 
L 203.548019 302.843907 
L 204.304847 303.051305 
L 205.482135 303.105215 
L 209.098091 302.945697 
L 212.545863 302.696142 
L 212.714047 302.697532 
L 212.966323 302.774205 
L 213.134507 302.561483 
L 213.302691 302.043518 
L 213.554967 300.10217 
L 213.975427 295.106183 
L 215.489083 271.62187 
L 216.414095 262.492269 
L 217.002739 258.338177 
L 217.507291 255.792169 
L 218.011843 254.038593 
L 218.600487 253.097648 
L 219.273223 252.664476 
L 219.945959 252.692421 
L 220.450511 252.949414 
L 221.207339 253.68783 
L 222.468719 255.424827 
L 223.309639 256.494351 
L 223.646007 256.600802 
L 223.982375 256.251108 
L 224.234651 255.758839 
L 224.486927 254.436687 
L 224.823295 251.493708 
L 225.159663 243.76696 
L 225.411939 235.120208 
L 225.748307 207.212192 
L 226.252859 168.440331 
L 226.589227 158.86281 
L 226.841503 157.319469 
L 226.925595 157.451568 
L 227.177871 158.996316 
L 227.766515 165.067603 
L 229.027895 177.759551 
L 230.121091 186.567976 
L 231.298379 194.203416 
L 232.643851 201.408441 
L 234.073415 207.866842 
L 235.587071 213.703442 
L 237.184819 218.998556 
L 240.716683 229.484401 
L 242.482615 233.992308 
L 245.509927 241.278084 
L 247.528135 245.667999 
L 248.873607 248.099009 
L 250.387263 250.808258 
L 251.732735 253.020707 
L 254.844139 257.78226 
L 258.039635 261.920773 
L 260.394211 264.415155 
L 261.655591 265.954979 
L 263.505615 267.993525 
L 265.860191 270.648671 
L 267.289755 272.023772 
L 269.139779 273.673011 
L 270.317067 274.649719 
L 272.671643 276.876785 
L 275.110311 279.174516 
L 276.203507 280.103258 
L 277.296703 280.706367 
L 277.885347 281.097697 
L 279.399003 282.355256 
L 281.249027 283.952027 
L 284.024063 285.910381 
L 285.369535 286.946278 
L 288.480939 289.324325 
L 289.321859 289.546654 
L 290.751423 289.641502 
L 296.553771 289.885832 
L 297.815151 290.537904 
L 298.740163 290.710062 
L 300.674279 290.769921 
L 302.019751 290.871097 
L 303.449315 291.255732 
L 305.047063 291.343045 
L 306.224351 291.483833 
L 307.233455 291.836882 
L 308.494835 292.59456 
L 312.447159 295.39604 
L 312.783527 295.35829 
L 313.288079 295.025694 
L 314.213091 293.770833 
L 316.735851 290.052675 
L 317.576771 288.617336 
L 318.081323 287.887026 
L 319.090427 286.67365 
L 319.763163 286.29027 
L 320.351807 286.158279 
L 320.519991 285.85488 
L 320.772267 284.375576 
L 321.360911 280.66353 
L 321.697279 279.908564 
L 321.949555 279.835602 
L 322.285923 280.052532 
L 323.463211 280.993558 
L 324.640499 281.524638 
L 328.845099 283.326559 
L 331.283767 284.367571 
L 332.629239 284.601667 
L 338.179311 285.102718 
L 352.643135 285.88608 
L 373.413859 286.804813 
L 397.464171 287.640376 
L 425.634991 288.390599 
L 459.103607 289.052496 
L 499.551859 289.621981 
L 549.586599 290.095178 
L 613.916979 290.470358 
L 672.024551 290.673638 
L 672.024551 290.673638 
" clip-path="url(#p869bcff75c)" style="fill: none; stroke: #ff7f0e; stroke-width: 1.5; stroke-linecap: square"/>
   </g>
   <g id="patch_3">
    <path d="M 36.465625 342.2 
L 36.465625 43.44 
" style="fill: none; stroke: #000000; stroke-width: 0.8; stroke-linejoin: miter; stroke-linecap: square"/>
   </g>
   <g id="patch_4">
    <path d="M 702.289261 342.2 
L 702.289261 43.44 
" style="fill: none; stroke: #000000; stroke-width: 0.8; stroke-linejoin: miter; stroke-linecap: square"/>
   </g>
   <g id="patch_5">
    <path d="M 36.465625 342.2 
L 702.289261 342.2 
" style="fill: none; stroke: #000000; stroke-width: 0.8; stroke-linejoin: miter; stroke-linecap: square"/>
   </g>
   <g id="patch_6">
    <path d="M 36.465625 43.44 
L 702.289261 43.44 
" style="fill: none; stroke: #000000; stroke-width: 0.8; stroke-linejoin: miter; stroke-linecap: square"/>
   </g>
   <g id="text_15">
    <!-- 1 transformation(s) -->
    <g transform="translate(311.262756 37.44) scale(0.12 -0.12)">
     <defs>
      <path id="DejaVuSans-20" transform="scale(0.015625)"/>
      <path id="DejaVuSans-74" d="M 1172 4494 
L 1172 3500 
L 2356 3500 
L 2356 3053 
L 1172 3053 
L 1172 1153 
Q 1172 725 1289 603 
Q 1406 481 1766 481 
L 2356 481 
L 2356 0 
L 1766 0 
Q 1100 0 847 248 
Q 594 497 594 1153 
L 594 3053 
L 172 3053 
L 172 3500 
L 594 3500 
L 594 4494 
L 1172 4494 
z
" transform="scale(0.015625)"/>
      <path id="DejaVuSans-72" d="M 2631 2963 
Q 2534 3019 2420 3045 
Q 2306 3072 2169 3072 
Q 1681 3072 1420 2755 
Q 1159 2438 1159 1844 
L 1159 0 
L 581 0 
L 581 3500 
L 1159 3500 
L 1159 2956 
Q 1341 3275 1631 3429 
Q 1922 3584 2338 3584 
Q 2397 3584 2469 3576 
Q 2541 3569 2628 3553 
L 2631 2963 
z
" transform="scale(0.015625)"/>
      <path id="DejaVuSans-61" d="M 2194 1759 
Q 1497 1759 1228 1600 
Q 959 1441 959 1056 
Q 959 750 1161 570 
Q 1363 391 1709 391 
Q 2188 391 2477 730 
Q 2766 1069 2766 1631 
L 2766 1759 
L 2194 1759 
z
M 3341 1997 
L 3341 0 
L 2766 0 
L 2766 531 
Q 2569 213 2275 61 
Q 1981 -91 1556 -91 
Q 1019 -91 701 211 
Q 384 513 384 1019 
Q 384 1609 779 1909 
Q 1175 2209 1959 2209 
L 2766 2209 
L 2766 2266 
Q 2766 2663 2505 2880 
Q 2244 3097 1772 3097 
Q 1472 3097 1187 3025 
Q 903 2953 641 2809 
L 641 3341 
Q 956 3463 1253 3523 
Q 1550 3584 1831 3584 
Q 2591 3584 2966 3190 
Q 3341 2797 3341 1997 
z
" transform="scale(0.015625)"/>
      <path id="DejaVuSans-6e" d="M 3513 2113 
L 3513 0 
L 2938 0 
L 2938 2094 
Q 2938 2591 2744 2837 
Q 2550 3084 2163 3084 
Q 1697 3084 1428 2787 
Q 1159 2491 1159 1978 
L 1159 0 
L 581 0 
L 581 3500 
L 1159 3500 
L 1159 2956 
Q 1366 3272 1645 3428 
Q 1925 3584 2291 3584 
Q 2894 3584 3203 3211 
Q 3513 2838 3513 2113 
z
" transform="scale(0.015625)"/>
      <path id="DejaVuSans-73" d="M 2834 3397 
L 2834 2853 
Q 2591 2978 2328 3040 
Q 2066 3103 1784 3103 
Q 1356 3103 1142 2972 
Q 928 2841 928 2578 
Q 928 2378 1081 2264 
Q 1234 2150 1697 2047 
L 1894 2003 
Q 2506 1872 2764 1633 
Q 3022 1394 3022 966 
Q 3022 478 2636 193 
Q 2250 -91 1575 -91 
Q 1294 -91 989 -36 
Q 684 19 347 128 
L 347 722 
Q 666 556 975 473 
Q 1284 391 1588 391 
Q 1994 391 2212 530 
Q 2431 669 2431 922 
Q 2431 1156 2273 1281 
Q 2116 1406 1581 1522 
L 1381 1569 
Q 847 1681 609 1914 
Q 372 2147 372 2553 
Q 372 3047 722 3315 
Q 1072 3584 1716 3584 
Q 2034 3584 2315 3537 
Q 2597 3491 2834 3397 
z
" transform="scale(0.015625)"/>
      <path id="DejaVuSans-66" d="M 2375 4863 
L 2375 4384 
L 1825 4384 
Q 1516 4384 1395 4259 
Q 1275 4134 1275 3809 
L 1275 3500 
L 2222 3500 
L 2222 3053 
L 1275 3053 
L 1275 0 
L 697 0 
L 697 3053 
L 147 3053 
L 147 3500 
L 697 3500 
L 697 3744 
Q 697 4328 969 4595 
Q 1241 4863 1831 4863 
L 2375 4863 
z
" transform="scale(0.015625)"/>
      <path id="DejaVuSans-6f" d="M 1959 3097 
Q 1497 3097 1228 2736 
Q 959 2375 959 1747 
Q 959 1119 1226 758 
Q 1494 397 1959 397 
Q 2419 397 2687 759 
Q 2956 1122 2956 1747 
Q 2956 2369 2687 2733 
Q 2419 3097 1959 3097 
z
M 1959 3584 
Q 2709 3584 3137 3096 
Q 3566 2609 3566 1747 
Q 3566 888 3137 398 
Q 2709 -91 1959 -91 
Q 1206 -91 779 398 
Q 353 888 353 1747 
Q 353 2609 779 3096 
Q 1206 3584 1959 3584 
z
" transform="scale(0.015625)"/>
      <path id="DejaVuSans-6d" d="M 3328 2828 
Q 3544 3216 3844 3400 
Q 4144 3584 4550 3584 
Q 5097 3584 5394 3201 
Q 5691 2819 5691 2113 
L 5691 0 
L 5113 0 
L 5113 2094 
Q 5113 2597 4934 2840 
Q 4756 3084 4391 3084 
Q 3944 3084 3684 2787 
Q 3425 2491 3425 1978 
L 3425 0 
L 2847 0 
L 2847 2094 
Q 2847 2600 2669 2842 
Q 2491 3084 2119 3084 
Q 1678 3084 1418 2786 
Q 1159 2488 1159 1978 
L 1159 0 
L 581 0 
L 581 3500 
L 1159 3500 
L 1159 2956 
Q 1356 3278 1631 3431 
Q 1906 3584 2284 3584 
Q 2666 3584 2933 3390 
Q 3200 3197 3328 2828 
z
" transform="scale(0.015625)"/>
      <path id="DejaVuSans-69" d="M 603 3500 
L 1178 3500 
L 1178 0 
L 603 0 
L 603 3500 
z
M 603 4863 
L 1178 4863 
L 1178 4134 
L 603 4134 
L 603 4863 
z
" transform="scale(0.015625)"/>
      <path id="DejaVuSans-28" d="M 1984 4856 
Q 1566 4138 1362 3434 
Q 1159 2731 1159 2009 
Q 1159 1288 1364 580 
Q 1569 -128 1984 -844 
L 1484 -844 
Q 1016 -109 783 600 
Q 550 1309 550 2009 
Q 550 2706 781 3412 
Q 1013 4119 1484 4856 
L 1984 4856 
z
" transform="scale(0.015625)"/>
      <path id="DejaVuSans-29" d="M 513 4856 
L 1013 4856 
Q 1481 4119 1714 3412 
Q 1947 2706 1947 2009 
Q 1947 1309 1714 600 
Q 1481 -109 1013 -844 
L 513 -844 
Q 928 -128 1133 580 
Q 1338 1288 1338 2009 
Q 1338 2731 1133 3434 
Q 928 4138 513 4856 
z
" transform="scale(0.015625)"/>
     </defs>
     <use xlink:href="#DejaVuSans-31"/>
     <use xlink:href="#DejaVuSans-20" x="63.623047"/>
     <use xlink:href="#DejaVuSans-74" x="95.410156"/>
     <use xlink:href="#DejaVuSans-72" x="134.619141"/>
     <use xlink:href="#DejaVuSans-61" x="175.732422"/>
     <use xlink:href="#DejaVuSans-6e" x="237.011719"/>
     <use xlink:href="#DejaVuSans-73" x="300.390625"/>
     <use xlink:href="#DejaVuSans-66" x="352.490234"/>
     <use xlink:href="#DejaVuSans-6f" x="387.695312"/>
     <use xlink:href="#DejaVuSans-72" x="448.876953"/>
     <use xlink:href="#DejaVuSans-6d" x="488.240234"/>
     <use xlink:href="#DejaVuSans-61" x="585.652344"/>
     <use xlink:href="#DejaVuSans-74" x="646.931641"/>
     <use xlink:href="#DejaVuSans-69" x="686.140625"/>
     <use xlink:href="#DejaVuSans-6f" x="713.923828"/>
     <use xlink:href="#DejaVuSans-6e" x="775.105469"/>
     <use xlink:href="#DejaVuSans-28" x="838.484375"/>
     <use xlink:href="#DejaVuSans-73" x="877.498047"/>
     <use xlink:href="#DejaVuSans-29" x="929.597656"/>
    </g>
   </g>
   <g id="legend_1">
    <g id="patch_7">
     <path d="M 613.895511 80.79625 
L 695.289261 80.79625 
Q 697.289261 80.79625 697.289261 78.79625 
L 697.289261 50.44 
Q 697.289261 48.44 695.289261 48.44 
L 613.895511 48.44 
Q 611.895511 48.44 611.895511 50.44 
L 611.895511 78.79625 
Q 611.895511 80.79625 613.895511 80.79625 
z
" style="fill: #ffffff; opacity: 0.8; stroke: #cccccc; stroke-linejoin: miter"/>
    </g>
    <g id="line2d_17">
     <path d="M 615.895511 56.538437 
L 625.895511 56.538437 
L 635.895511 56.538437 
" style="fill: none; stroke: #1f77b4; stroke-width: 1.5; stroke-linecap: square"/>
    </g>
    <g id="text_16">
     <!-- observed -->
     <g transform="translate(643.895511 60.038437) scale(0.1 -0.1)">
      <defs>
       <path id="DejaVuSans-62" d="M 3116 1747 
Q 3116 2381 2855 2742 
Q 2594 3103 2138 3103 
Q 1681 3103 1420 2742 
Q 1159 2381 1159 1747 
Q 1159 1113 1420 752 
Q 1681 391 2138 391 
Q 2594 391 2855 752 
Q 3116 1113 3116 1747 
z
M 1159 2969 
Q 1341 3281 1617 3432 
Q 1894 3584 2278 3584 
Q 2916 3584 3314 3078 
Q 3713 2572 3713 1747 
Q 3713 922 3314 415 
Q 2916 -91 2278 -91 
Q 1894 -91 1617 61 
Q 1341 213 1159 525 
L 1159 0 
L 581 0 
L 581 4863 
L 1159 4863 
L 1159 2969 
z
" transform="scale(0.015625)"/>
       <path id="DejaVuSans-65" d="M 3597 1894 
L 3597 1613 
L 953 1613 
Q 991 1019 1311 708 
Q 1631 397 2203 397 
Q 2534 397 2845 478 
Q 3156 559 3463 722 
L 3463 178 
Q 3153 47 2828 -22 
Q 2503 -91 2169 -91 
Q 1331 -91 842 396 
Q 353 884 353 1716 
Q 353 2575 817 3079 
Q 1281 3584 2069 3584 
Q 2775 3584 3186 3129 
Q 3597 2675 3597 1894 
z
M 3022 2063 
Q 3016 2534 2758 2815 
Q 2500 3097 2075 3097 
Q 1594 3097 1305 2825 
Q 1016 2553 972 2059 
L 3022 2063 
z
" transform="scale(0.015625)"/>
       <path id="DejaVuSans-76" d="M 191 3500 
L 800 3500 
L 1894 563 
L 2988 3500 
L 3597 3500 
L 2284 0 
L 1503 0 
L 191 3500 
z
" transform="scale(0.015625)"/>
       <path id="DejaVuSans-64" d="M 2906 2969 
L 2906 4863 
L 3481 4863 
L 3481 0 
L 2906 0 
L 2906 525 
Q 2725 213 2448 61 
Q 2172 -91 1784 -91 
Q 1150 -91 751 415 
Q 353 922 353 1747 
Q 353 2572 751 3078 
Q 1150 3584 1784 3584 
Q 2172 3584 2448 3432 
Q 2725 3281 2906 2969 
z
M 947 1747 
Q 947 1113 1208 752 
Q 1469 391 1925 391 
Q 2381 391 2643 752 
Q 2906 1113 2906 1747 
Q 2906 2381 2643 2742 
Q 2381 3103 1925 3103 
Q 1469 3103 1208 2742 
Q 947 2381 947 1747 
z
" transform="scale(0.015625)"/>
      </defs>
      <use xlink:href="#DejaVuSans-6f"/>
      <use xlink:href="#DejaVuSans-62" x="61.181641"/>
      <use xlink:href="#DejaVuSans-73" x="124.658203"/>
      <use xlink:href="#DejaVuSans-65" x="176.757812"/>
      <use xlink:href="#DejaVuSans-72" x="238.28125"/>
      <use xlink:href="#DejaVuSans-76" x="279.394531"/>
      <use xlink:href="#DejaVuSans-65" x="338.574219"/>
      <use xlink:href="#DejaVuSans-64" x="400.097656"/>
     </g>
    </g>
    <g id="line2d_18">
     <path d="M 615.895511 71.216563 
L 625.895511 71.216563 
L 635.895511 71.216563 
" style="fill: none; stroke: #ff7f0e; stroke-width: 1.5; stroke-linecap: square"/>
    </g>
    <g id="text_17">
     <!-- simulated -->
     <g transform="translate(643.895511 74.716563) scale(0.1 -0.1)">
      <defs>
       <path id="DejaVuSans-75" d="M 544 1381 
L 544 3500 
L 1119 3500 
L 1119 1403 
Q 1119 906 1312 657 
Q 1506 409 1894 409 
Q 2359 409 2629 706 
Q 2900 1003 2900 1516 
L 2900 3500 
L 3475 3500 
L 3475 0 
L 2900 0 
L 2900 538 
Q 2691 219 2414 64 
Q 2138 -91 1772 -91 
Q 1169 -91 856 284 
Q 544 659 544 1381 
z
M 1991 3584 
L 1991 3584 
z
" transform="scale(0.015625)"/>
       <path id="DejaVuSans-6c" d="M 603 4863 
L 1178 4863 
L 1178 0 
L 603 0 
L 603 4863 
z
" transform="scale(0.015625)"/>
      </defs>
      <use xlink:href="#DejaVuSans-73"/>
      <use xlink:href="#DejaVuSans-69" x="52.099609"/>
      <use xlink:href="#DejaVuSans-6d" x="79.882812"/>
      <use xlink:href="#DejaVuSans-75" x="177.294922"/>
      <use xlink:href="#DejaVuSans-6c" x="240.673828"/>
      <use xlink:href="#DejaVuSans-61" x="268.457031"/>
      <use xlink:href="#DejaVuSans-74" x="329.736328"/>
      <use xlink:href="#DejaVuSans-65" x="368.945312"/>
      <use xlink:href="#DejaVuSans-64" x="430.46875"/>
     </g>
    </g>
   </g>
  </g>
  <g id="axes_2">
   <g id="patch_8">
    <path d="M 36.465625 684.92 
L 702.289261 684.92 
L 702.289261 386.16 
L 36.465625 386.16 
z
" style="fill: #ffffff"/>
   </g>
   <g id="matplotlib.axis_3">
    <g id="xtick_7">
     <g id="line2d_19">
      <g>
       <use xlink:href="#m4a14bb58b6" x="66.562152" y="684.92" style="stroke: #000000; stroke-width: 0.8"/>
      </g>
     </g>
     <g id="text_18">
      <!-- 2014-07-01 -->
      <g transform="translate(37.504339 699.518437) scale(0.1 -0.1)">
       <use xlink:href="#DejaVuSans-32"/>
       <use xlink:href="#DejaVuSans-30" x="63.623047"/>
       <use xlink:href="#DejaVuSans-31" x="127.246094"/>
       <use xlink:href="#DejaVuSans-34" x="190.869141"/>
       <use xlink:href="#DejaVuSans-2d" x="254.492188"/>
       <use xlink:href="#DejaVuSans-30" x="290.576172"/>
       <use xlink:href="#DejaVuSans-37" x="354.199219"/>
       <use xlink:href="#DejaVuSans-2d" x="417.822266"/>
       <use xlink:href="#DejaVuSans-30" x="453.90625"/>
       <use xlink:href="#DejaVuSans-31" x="517.529297"/>
      </g>
     </g>
    </g>
    <g id="xtick_8">
     <g id="line2d_20">
      <g>
       <use xlink:href="#m4a14bb58b6" x="187.654632" y="684.92" style="stroke: #000000; stroke-width: 0.8"/>
      </g>
     </g>
     <g id="text_19">
      <!-- 2014-07-02 -->
      <g transform="translate(158.596819 699.518437) scale(0.1 -0.1)">
       <use xlink:href="#DejaVuSans-32"/>
       <use xlink:href="#DejaVuSans-30" x="63.623047"/>
       <use xlink:href="#DejaVuSans-31" x="127.246094"/>
       <use xlink:href="#DejaVuSans-34" x="190.869141"/>
       <use xlink:href="#DejaVuSans-2d" x="254.492188"/>
       <use xlink:href="#DejaVuSans-30" x="290.576172"/>
       <use xlink:href="#DejaVuSans-37" x="354.199219"/>
       <use xlink:href="#DejaVuSans-2d" x="417.822266"/>
       <use xlink:href="#DejaVuSans-30" x="453.90625"/>
       <use xlink:href="#DejaVuSans-32" x="517.529297"/>
      </g>
     </g>
    </g>
    <g id="xtick_9">
     <g id="line2d_21">
      <g>
       <use xlink:href="#m4a14bb58b6" x="308.747111" y="684.92" style="stroke: #000000; stroke-width: 0.8"/>
      </g>
     </g>
     <g id="text_20">
      <!-- 2014-07-03 -->
      <g transform="translate(279.689299 699.518437) scale(0.1 -0.1)">
       <use xlink:href="#DejaVuSans-32"/>
       <use xlink:href="#DejaVuSans-30" x="63.623047"/>
       <use xlink:href="#DejaVuSans-31" x="127.246094"/>
       <use xlink:href="#DejaVuSans-34" x="190.869141"/>
       <use xlink:href="#DejaVuSans-2d" x="254.492188"/>
       <use xlink:href="#DejaVuSans-30" x="290.576172"/>
       <use xlink:href="#DejaVuSans-37" x="354.199219"/>
       <use xlink:href="#DejaVuSans-2d" x="417.822266"/>
       <use xlink:href="#DejaVuSans-30" x="453.90625"/>
       <use xlink:href="#DejaVuSans-33" x="517.529297"/>
      </g>
     </g>
    </g>
    <g id="xtick_10">
     <g id="line2d_22">
      <g>
       <use xlink:href="#m4a14bb58b6" x="429.839591" y="684.92" style="stroke: #000000; stroke-width: 0.8"/>
      </g>
     </g>
     <g id="text_21">
      <!-- 2014-07-04 -->
      <g transform="translate(400.781779 699.518437) scale(0.1 -0.1)">
       <use xlink:href="#DejaVuSans-32"/>
       <use xlink:href="#DejaVuSans-30" x="63.623047"/>
       <use xlink:href="#DejaVuSans-31" x="127.246094"/>
       <use xlink:href="#DejaVuSans-34" x="190.869141"/>
       <use xlink:href="#DejaVuSans-2d" x="254.492188"/>
       <use xlink:href="#DejaVuSans-30" x="290.576172"/>
       <use xlink:href="#DejaVuSans-37" x="354.199219"/>
       <use xlink:href="#DejaVuSans-2d" x="417.822266"/>
       <use xlink:href="#DejaVuSans-30" x="453.90625"/>
       <use xlink:href="#DejaVuSans-34" x="517.529297"/>
      </g>
     </g>
    </g>
    <g id="xtick_11">
     <g id="line2d_23">
      <g>
       <use xlink:href="#m4a14bb58b6" x="550.932071" y="684.92" style="stroke: #000000; stroke-width: 0.8"/>
      </g>
     </g>
     <g id="text_22">
      <!-- 2014-07-05 -->
      <g transform="translate(521.874258 699.518437) scale(0.1 -0.1)">
       <use xlink:href="#DejaVuSans-32"/>
       <use xlink:href="#DejaVuSans-30" x="63.623047"/>
       <use xlink:href="#DejaVuSans-31" x="127.246094"/>
       <use xlink:href="#DejaVuSans-34" x="190.869141"/>
       <use xlink:href="#DejaVuSans-2d" x="254.492188"/>
       <use xlink:href="#DejaVuSans-30" x="290.576172"/>
       <use xlink:href="#DejaVuSans-37" x="354.199219"/>
       <use xlink:href="#DejaVuSans-2d" x="417.822266"/>
       <use xlink:href="#DejaVuSans-30" x="453.90625"/>
       <use xlink:href="#DejaVuSans-35" x="517.529297"/>
      </g>
     </g>
    </g>
    <g id="xtick_12">
     <g id="line2d_24">
      <g>
       <use xlink:href="#m4a14bb58b6" x="672.024551" y="684.92" style="stroke: #000000; stroke-width: 0.8"/>
      </g>
     </g>
     <g id="text_23">
      <!-- 2014-07-06 -->
      <g transform="translate(642.966738 699.518437) scale(0.1 -0.1)">
       <use xlink:href="#DejaVuSans-32"/>
       <use xlink:href="#DejaVuSans-30" x="63.623047"/>
       <use xlink:href="#DejaVuSans-31" x="127.246094"/>
       <use xlink:href="#DejaVuSans-34" x="190.869141"/>
       <use xlink:href="#DejaVuSans-2d" x="254.492188"/>
       <use xlink:href="#DejaVuSans-30" x="290.576172"/>
       <use xlink:href="#DejaVuSans-37" x="354.199219"/>
       <use xlink:href="#DejaVuSans-2d" x="417.822266"/>
       <use xlink:href="#DejaVuSans-30" x="453.90625"/>
       <use xlink:href="#DejaVuSans-36" x="517.529297"/>
      </g>
     </g>
    </g>
   </g>
   <g id="matplotlib.axis_4">
    <g id="ytick_9">
     <g id="line2d_25">
      <g>
       <use xlink:href="#m3ad16b64dc" x="36.465625" y="671.350295" style="stroke: #000000; stroke-width: 0.8"/>
      </g>
     </g>
     <g id="text_24">
      <!-- 0.00 -->
      <g transform="translate(7.2 675.149514) scale(0.1 -0.1)">
       <use xlink:href="#DejaVuSans-30"/>
       <use xlink:href="#DejaVuSans-2e" x="63.623047"/>
       <use xlink:href="#DejaVuSans-30" x="95.410156"/>
       <use xlink:href="#DejaVuSans-30" x="159.033203"/>
      </g>
     </g>
    </g>
    <g id="ytick_10">
     <g id="line2d_26">
      <g>
       <use xlink:href="#m3ad16b64dc" x="36.465625" y="634.245492" style="stroke: #000000; stroke-width: 0.8"/>
      </g>
     </g>
     <g id="text_25">
      <!-- 0.25 -->
      <g transform="translate(7.2 638.044711) scale(0.1 -0.1)">
       <use xlink:href="#DejaVuSans-30"/>
       <use xlink:href="#DejaVuSans-2e" x="63.623047"/>
       <use xlink:href="#DejaVuSans-32" x="95.410156"/>
       <use xlink:href="#DejaVuSans-35" x="159.033203"/>
      </g>
     </g>
    </g>
    <g id="ytick_11">
     <g id="line2d_27">
      <g>
       <use xlink:href="#m3ad16b64dc" x="36.465625" y="597.14069" style="stroke: #000000; stroke-width: 0.8"/>
      </g>
     </g>
     <g id="text_26">
      <!-- 0.50 -->
      <g transform="translate(7.2 600.939908) scale(0.1 -0.1)">
       <use xlink:href="#DejaVuSans-30"/>
       <use xlink:href="#DejaVuSans-2e" x="63.623047"/>
       <use xlink:href="#DejaVuSans-35" x="95.410156"/>
       <use xlink:href="#DejaVuSans-30" x="159.033203"/>
      </g>
     </g>
    </g>
    <g id="ytick_12">
     <g id="line2d_28">
      <g>
       <use xlink:href="#m3ad16b64dc" x="36.465625" y="560.035887" style="stroke: #000000; stroke-width: 0.8"/>
      </g>
     </g>
     <g id="text_27">
      <!-- 0.75 -->
      <g transform="translate(7.2 563.835105) scale(0.1 -0.1)">
       <use xlink:href="#DejaVuSans-30"/>
       <use xlink:href="#DejaVuSans-2e" x="63.623047"/>
       <use xlink:href="#DejaVuSans-37" x="95.410156"/>
       <use xlink:href="#DejaVuSans-35" x="159.033203"/>
      </g>
     </g>
    </g>
    <g id="ytick_13">
     <g id="line2d_29">
      <g>
       <use xlink:href="#m3ad16b64dc" x="36.465625" y="522.931084" style="stroke: #000000; stroke-width: 0.8"/>
      </g>
     </g>
     <g id="text_28">
      <!-- 1.00 -->
      <g transform="translate(7.2 526.730302) scale(0.1 -0.1)">
       <use xlink:href="#DejaVuSans-31"/>
       <use xlink:href="#DejaVuSans-2e" x="63.623047"/>
       <use xlink:href="#DejaVuSans-30" x="95.410156"/>
       <use xlink:href="#DejaVuSans-30" x="159.033203"/>
      </g>
     </g>
    </g>
    <g id="ytick_14">
     <g id="line2d_30">
      <g>
       <use xlink:href="#m3ad16b64dc" x="36.465625" y="485.826281" style="stroke: #000000; stroke-width: 0.8"/>
      </g>
     </g>
     <g id="text_29">
      <!-- 1.25 -->
      <g transform="translate(7.2 489.6255) scale(0.1 -0.1)">
       <use xlink:href="#DejaVuSans-31"/>
       <use xlink:href="#DejaVuSans-2e" x="63.623047"/>
       <use xlink:href="#DejaVuSans-32" x="95.410156"/>
       <use xlink:href="#DejaVuSans-35" x="159.033203"/>
      </g>
     </g>
    </g>
    <g id="ytick_15">
     <g id="line2d_31">
      <g>
       <use xlink:href="#m3ad16b64dc" x="36.465625" y="448.721478" style="stroke: #000000; stroke-width: 0.8"/>
      </g>
     </g>
     <g id="text_30">
      <!-- 1.50 -->
      <g transform="translate(7.2 452.520697) scale(0.1 -0.1)">
       <use xlink:href="#DejaVuSans-31"/>
       <use xlink:href="#DejaVuSans-2e" x="63.623047"/>
       <use xlink:href="#DejaVuSans-35" x="95.410156"/>
       <use xlink:href="#DejaVuSans-30" x="159.033203"/>
      </g>
     </g>
    </g>
    <g id="ytick_16">
     <g id="line2d_32">
      <g>
       <use xlink:href="#m3ad16b64dc" x="36.465625" y="411.616675" style="stroke: #000000; stroke-width: 0.8"/>
      </g>
     </g>
     <g id="text_31">
      <!-- 1.75 -->
      <g transform="translate(7.2 415.415894) scale(0.1 -0.1)">
       <use xlink:href="#DejaVuSans-31"/>
       <use xlink:href="#DejaVuSans-2e" x="63.623047"/>
       <use xlink:href="#DejaVuSans-37" x="95.410156"/>
       <use xlink:href="#DejaVuSans-35" x="159.033203"/>
      </g>
     </g>
    </g>
   </g>
   <g id="line2d_33">
    <path d="M 66.730336 671.335625 
L 72.532684 671.199345 
L 75.896364 670.95713 
L 81.446436 670.30077 
L 82.791908 669.967525 
L 83.212368 669.734481 
L 83.71692 669.315374 
L 84.305564 668.491176 
L 84.894208 667.044064 
L 85.566944 664.134144 
L 86.323772 659.440708 
L 87.416968 651.132724 
L 89.098808 635.498454 
L 90.107912 628.521854 
L 90.780648 625.389884 
L 91.537476 623.351466 
L 91.873844 622.713781 
L 92.54658 621.736542 
L 93.303408 621.051772 
L 93.555684 620.988215 
L 93.80796 620.962445 
L 94.312512 621.41772 
L 94.732972 622.099257 
L 95.06934 622.689962 
L 95.321616 622.185218 
L 95.742076 619.43783 
L 96.078444 618.387413 
L 96.246628 618.289571 
L 96.414812 618.427125 
L 96.667088 618.890839 
L 97.087548 620.165807 
L 97.760284 623.444823 
L 98.685296 628.664039 
L 98.937572 627.874425 
L 99.358032 620.470099 
L 99.526216 613.369573 
L 100.53532 535.693202 
L 101.208056 475.893035 
L 102.133068 416.941952 
L 102.63762 401.820248 
L 102.805804 399.762134 
L 102.889896 399.74 
L 103.142172 400.560157 
L 103.310356 401.377819 
L 103.646724 406.381951 
L 104.067184 412.864152 
L 104.487644 420.290395 
L 105.749024 445.247927 
L 108.94452 521.821877 
L 109.701348 531.927444 
L 109.869532 532.123163 
L 109.953624 532.934013 
L 110.037716 532.878024 
L 110.121808 532.47857 
L 110.2059 533.247258 
L 110.794544 527.525084 
L 111.130912 517.057025 
L 111.46728 503.137186 
L 112.140016 455.400867 
L 112.560476 440.159842 
L 112.812752 437.68267 
L 112.980936 438.758295 
L 113.401396 447.334439 
L 114.158224 470.177699 
L 114.999144 497.25674 
L 115.419604 506.083911 
L 115.587788 508.080684 
L 115.924156 512.371366 
L 116.344616 515.519224 
L 116.428708 515.745659 
L 116.596892 517.00368 
L 116.680984 516.985368 
L 116.849168 518.460376 
L 116.93326 518.00473 
L 117.185536 519.407568 
L 117.269628 519.366308 
L 117.35372 520.145117 
L 117.437812 520.015038 
L 117.521904 519.810384 
L 117.605996 520.557256 
L 117.690088 520.450762 
L 117.77418 520.370065 
L 117.942364 521.254075 
L 118.026456 520.742873 
L 118.19464 521.984599 
L 118.278732 521.273591 
L 118.446916 522.200719 
L 118.531008 522.035661 
L 118.6151 521.841747 
L 118.699192 522.567069 
L 118.783284 522.381541 
L 118.867376 521.885979 
L 118.951468 522.820556 
L 119.03556 522.642016 
L 119.119652 522.318855 
L 119.287836 523.375964 
L 119.371928 522.552472 
L 119.540112 523.583732 
L 119.624204 522.925103 
L 119.708296 523.12721 
L 119.792388 523.759627 
L 119.87648 523.129121 
L 120.044664 524.003984 
L 120.212848 523.694561 
L 120.29694 524.23263 
L 120.381032 524.184319 
L 120.465124 523.76075 
L 120.549216 524.567602 
L 120.633308 524.444132 
L 120.7174 524.080426 
L 120.885584 524.759323 
L 120.969676 524.235576 
L 121.13786 525.287342 
L 121.221952 524.500837 
L 121.390136 525.589644 
L 121.474228 525.003185 
L 121.55832 525.064774 
L 121.642412 525.865804 
L 121.726504 525.314987 
L 121.810596 525.470738 
L 121.894688 526.233844 
L 122.062872 525.750774 
L 122.146964 526.492904 
L 122.231056 526.298078 
L 122.315148 525.990318 
L 122.483332 526.941677 
L 122.567424 526.345115 
L 122.735608 527.305683 
L 122.8197 526.674222 
L 122.987884 527.437416 
L 123.071976 527.087547 
L 123.24016 528.257546 
L 123.324252 527.491477 
L 123.492436 528.573843 
L 123.576528 527.955014 
L 123.744712 528.959018 
L 123.828804 528.402761 
L 123.996988 529.50673 
L 124.08108 528.89129 
L 124.249264 529.982352 
L 124.333356 529.446831 
L 124.50154 530.538884 
L 124.585632 529.980963 
L 124.669724 531.011975 
L 124.753816 530.981349 
L 124.837908 530.566432 
L 124.922 531.557537 
L 125.006092 531.521223 
L 125.090184 531.292471 
L 125.174276 532.327818 
L 125.258368 531.91175 
L 125.34246 532.021942 
L 125.426552 532.976937 
L 125.510644 532.655978 
L 125.594736 532.849777 
L 125.678828 533.597304 
L 125.76292 532.881483 
L 126.015196 534.611553 
L 126.267472 535.307779 
L 126.772024 536.901746 
L 127.44476 538.71614 
L 127.781128 539.050811 
L 128.537956 539.55598 
L 128.874324 540.220987 
L 129.462968 542.104348 
L 130.303888 545.805129 
L 133.75166 562.278326 
L 134.676672 565.66596 
L 135.685776 568.451777 
L 136.863064 570.957788 
L 138.292628 573.353006 
L 139.806284 575.415827 
L 141.067664 576.864668 
L 143.8427 579.342636 
L 144.431344 579.892701 
L 144.935896 580.678967 
L 145.608632 582.322553 
L 146.533644 585.379364 
L 148.88822 593.339351 
L 150.065508 596.200716 
L 151.326888 598.699385 
L 152.840544 601.225558 
L 153.51328 602.056118 
L 153.93374 602.269614 
L 154.3542 602.256699 
L 155.699672 602.016243 
L 156.288316 602.319106 
L 157.29742 603.209473 
L 159.988364 605.673831 
L 162.006572 606.578564 
L 163.856596 608.415928 
L 164.529332 609.050919 
L 165.033884 609.290079 
L 167.136184 610.174771 
L 167.724828 610.870382 
L 169.995312 613.976468 
L 171.424876 614.949881 
L 172.770348 616.197106 
L 173.2749 616.390162 
L 173.779452 616.406515 
L 174.95674 616.162268 
L 175.461292 616.335265 
L 175.965844 616.761197 
L 178.656788 619.737925 
L 179.918168 620.937834 
L 180.42272 621.14865 
L 181.936376 621.356599 
L 182.52502 621.172602 
L 183.36594 620.887175 
L 184.038676 620.997937 
L 184.543228 621.275667 
L 185.300056 622.018307 
L 186.645528 623.402555 
L 187.065988 623.552104 
L 187.654632 623.407991 
L 188.747828 623.034572 
L 189.504656 622.767966 
L 191.438772 621.533923 
L 192.027416 621.483829 
L 193.709256 621.823048 
L 194.634268 622.412293 
L 196.4002 623.954406 
L 198.754775 625.906885 
L 199.091143 625.861184 
L 200.352523 625.389893 
L 201.193443 625.408015 
L 202.034363 625.457608 
L 203.548019 625.079966 
L 204.052571 625.333395 
L 204.641215 625.900016 
L 205.566227 627.188633 
L 207.836711 630.64227 
L 208.761723 631.66184 
L 210.107195 632.653114 
L 212.041311 633.442719 
L 212.545863 633.513951 
L 213.050415 631.753166 
L 213.386783 628.484014 
L 214.732255 605.095466 
L 215.236807 597.204181 
L 215.741359 591.010631 
L 216.245911 586.700664 
L 216.918647 584.235886 
L 217.255015 583.778594 
L 217.423199 584.047253 
L 218.095935 586.297221 
L 219.105039 593.005591 
L 220.450511 601.559021 
L 221.459615 606.649698 
L 222.384627 610.285033 
L 222.973271 611.990324 
L 223.225547 612.29075 
L 223.393731 612.380396 
L 223.646007 612.170619 
L 224.234651 610.089469 
L 224.655111 606.601176 
L 224.991479 601.201416 
L 225.327847 593.830808 
L 225.496031 583.07131 
L 226.084675 537.49783 
L 226.421043 524.804006 
L 226.673319 521.374582 
L 226.757411 521.255296 
L 226.841503 521.578882 
L 227.009687 523.696171 
L 227.346055 532.414796 
L 229.027895 588.878622 
L 229.868815 604.362416 
L 230.541551 612.249787 
L 231.214287 617.588307 
L 231.802931 620.886033 
L 232.475667 623.53749 
L 233.232495 625.668517 
L 233.821139 626.896262 
L 234.493875 627.962956 
L 235.334795 628.919822 
L 236.259807 629.613664 
L 237.184819 630.074336 
L 238.362107 630.408653 
L 239.118935 630.430902 
L 239.623487 630.258506 
L 240.212131 629.81957 
L 243.239443 626.804161 
L 245.509927 623.727565 
L 247.359951 620.808344 
L 247.780411 620.613398 
L 248.200871 620.672232 
L 248.705423 621.004178 
L 249.714527 621.785375 
L 250.219079 621.87637 
L 251.396367 622.027666 
L 252.321379 622.288876 
L 254.003219 622.571189 
L 254.928231 622.293322 
L 256.105519 621.922999 
L 256.694163 621.675612 
L 257.114623 621.688816 
L 257.535083 621.916391 
L 258.964647 623.317421 
L 260.226027 624.562119 
L 260.730579 624.77562 
L 261.151039 624.706702 
L 261.991959 624.313874 
L 263.253339 623.824009 
L 263.926075 623.621465 
L 265.187455 622.830294 
L 265.776099 622.538962 
L 266.364743 622.408587 
L 266.869295 622.493792 
L 268.887503 623.462436 
L 270.064791 624.321287 
L 270.905711 624.337653 
L 271.662539 624.123051 
L 272.587551 623.736973 
L 273.848931 623.323715 
L 274.269391 622.986558 
L 275.446679 621.68138 
L 275.867139 621.584662 
L 276.287599 621.71831 
L 276.792151 622.171439 
L 278.642175 624.229222 
L 279.062635 624.336291 
L 279.399003 624.2121 
L 279.987647 623.634434 
L 280.660383 622.897784 
L 281.164935 622.681868 
L 281.669487 622.737671 
L 282.426315 623.111156 
L 283.435419 623.730896 
L 283.855879 623.700044 
L 284.780891 623.49105 
L 285.705903 623.322326 
L 287.976387 622.482986 
L 288.396847 622.667183 
L 288.901399 623.155349 
L 289.658227 624.302051 
L 292.685539 629.567282 
L 293.694643 630.655465 
L 294.619655 631.319083 
L 295.628759 631.768971 
L 296.385587 631.916402 
L 296.890139 631.803383 
L 297.899243 631.233352 
L 298.740163 630.852418 
L 299.581083 630.75236 
L 300.506095 630.880723 
L 303.112947 631.457699 
L 305.215247 631.574087 
L 306.812995 631.664949 
L 307.401639 631.49442 
L 307.906191 631.166181 
L 308.494835 630.522803 
L 309.167571 629.445767 
L 309.924399 627.804118 
L 310.849411 625.287137 
L 312.363067 620.264843 
L 313.288079 615.949931 
L 314.213091 611.205425 
L 314.885827 608.589399 
L 315.558563 607.080009 
L 315.894931 606.539233 
L 316.567667 605.728453 
L 317.829047 604.797901 
L 318.333599 604.796013 
L 318.669967 604.900445 
L 319.258611 605.213066 
L 319.763163 605.791228 
L 320.267715 606.729224 
L 320.435899 606.588733 
L 321.445003 601.941047 
L 321.613187 601.906931 
L 321.865463 602.247985 
L 322.201831 603.361185 
L 322.706383 606.15864 
L 325.145051 621.427986 
L 325.901879 624.066889 
L 326.574615 625.718221 
L 327.247351 626.862543 
L 327.920087 627.60984 
L 328.592823 628.062546 
L 329.349651 628.313763 
L 330.779215 628.404727 
L 331.788319 628.588734 
L 332.797423 629.018376 
L 335.067907 630.37244 
L 336.329287 630.958939 
L 337.758851 631.345008 
L 340.113427 631.722058 
L 344.822579 632.178558 
L 354.997711 632.848846 
L 406.798383 636.089257 
L 417.562159 636.796811 
L 439.510171 638.228478 
L 458.430871 639.243547 
L 487.610795 640.64863 
L 573.132359 643.803391 
L 609.376011 645.025079 
L 659.074383 646.489009 
L 672.024551 646.835282 
L 672.024551 646.835282 
" clip-path="url(#p457030a180)" style="fill: none; stroke: #1f77b4; stroke-width: 1.5; stroke-linecap: square"/>
   </g>
   <g id="line2d_34">
    <path d="M 66.730336 671.339802 
L 69.253096 671.235921 
L 71.775856 670.914339 
L 76.316824 670.221936 
L 81.278252 669.781972 
L 82.287356 669.401254 
L 83.29646 668.704002 
L 84.221472 667.725424 
L 85.062392 666.633306 
L 86.323772 664.605823 
L 86.996508 663.030703 
L 87.50106 661.283853 
L 88.510164 657.224049 
L 89.351084 653.597408 
L 89.939728 651.43674 
L 90.276096 650.51709 
L 90.612464 649.481949 
L 90.86474 648.988308 
L 91.201108 648.431041 
L 91.453384 648.166698 
L 91.70566 647.930313 
L 91.957936 647.580965 
L 92.294304 647.347824 
L 92.54658 647.029088 
L 92.882948 646.84313 
L 93.135224 646.554767 
L 93.471592 646.477276 
L 93.80796 646.235505 
L 94.480696 646.962544 
L 95.153432 648.225802 
L 95.237524 648.28517 
L 95.405708 647.584344 
L 96.246628 642.109884 
L 96.498904 641.905045 
L 96.75118 642.057073 
L 97.339824 643.619992 
L 98.01256 646.207369 
L 98.769388 652.777948 
L 98.85348 653.182174 
L 98.937572 653.138143 
L 99.105756 651.483365 
L 99.358032 645.861474 
L 99.610308 633.204061 
L 100.451228 567.364623 
L 101.964884 446.270357 
L 102.301252 431.131471 
L 102.889896 417.294384 
L 102.973988 417.09869 
L 103.142172 417.354106 
L 103.226264 417.253708 
L 103.310356 416.973838 
L 103.394448 417.082776 
L 103.983092 423.270248 
L 104.824012 438.452583 
L 107.935416 503.965837 
L 109.112704 521.916579 
L 109.701348 528.214351 
L 110.037716 530.159882 
L 110.374084 531.454087 
L 110.458176 531.358096 
L 110.878636 529.494154 
L 111.04682 527.563356 
L 111.551372 516.080225 
L 111.88774 497.12036 
L 112.392292 473.441672 
L 112.644568 468.555857 
L 112.896844 467.066022 
L 112.980936 466.921807 
L 113.065028 467.127292 
L 113.401396 470.532328 
L 113.737764 475.508064 
L 114.4105 492.96104 
L 115.167328 517.762256 
L 115.755972 530.611622 
L 116.344616 538.859518 
L 116.93326 544.178053 
L 117.605996 548.17878 
L 118.362824 551.19965 
L 119.119652 553.319002 
L 120.212848 555.656233 
L 122.483332 559.873283 
L 125.174276 564.43419 
L 127.192484 567.512142 
L 127.697036 567.830981 
L 128.369772 567.83733 
L 128.790232 568.121231 
L 129.54706 568.965987 
L 130.219796 569.924587 
L 131.733452 572.632406 
L 133.163016 574.539954 
L 135.265316 576.912413 
L 137.95626 579.461722 
L 140.394928 581.32944 
L 141.992676 582.274294 
L 142.749504 582.66138 
L 143.590424 583.065257 
L 144.851804 583.82078 
L 145.52454 584.683953 
L 146.36546 586.079241 
L 147.62684 588.322385 
L 148.551852 589.539947 
L 150.401876 591.510495 
L 153.429188 594.467272 
L 154.186016 594.813281 
L 155.19512 595.306376 
L 156.792868 596.514829 
L 158.97926 598.075899 
L 159.904272 598.528454 
L 162.006572 599.479836 
L 164.697516 601.155162 
L 165.874804 601.527004 
L 166.968 601.978097 
L 168.397564 603.1592 
L 169.154392 603.671721 
L 170.079404 604.071078 
L 171.004416 604.38838 
L 173.106716 605.376584 
L 174.031728 605.429923 
L 174.788556 605.404017 
L 175.713568 605.893614 
L 179.245432 608.159699 
L 180.506812 608.675436 
L 182.52502 609.123092 
L 183.113664 609.216253 
L 184.20686 609.693266 
L 185.131872 610.307109 
L 186.056884 610.954943 
L 186.813712 611.184201 
L 187.738724 611.194426 
L 188.495552 611.299524 
L 189.756932 611.497255 
L 190.597852 611.485435 
L 192.279692 611.809265 
L 195.643372 613.333555 
L 196.82066 613.978681 
L 198.838867 614.759484 
L 199.763879 614.675542 
L 200.857075 614.963177 
L 202.370731 615.409278 
L 203.211651 615.480805 
L 204.052571 615.874404 
L 205.061675 616.548896 
L 206.154871 617.291844 
L 209.939011 619.251168 
L 212.461771 620.584339 
L 212.882231 620.047867 
L 213.134507 618.699328 
L 213.386783 616.217185 
L 213.891335 607.588419 
L 215.573175 573.57154 
L 216.161819 567.425125 
L 216.582279 565.60352 
L 216.666371 565.67292 
L 217.170923 566.661124 
L 218.095935 572.738625 
L 220.198235 590.089997 
L 220.786879 594.116988 
L 222.468719 602.806912 
L 223.225547 605.039688 
L 223.477823 605.302526 
L 223.561915 605.317746 
L 223.730099 605.001812 
L 224.234651 603.097215 
L 224.571019 599.884491 
L 224.907387 594.368759 
L 225.327847 580.923636 
L 225.580123 564.223061 
L 226.252859 510.642643 
L 226.589227 500.272209 
L 226.841503 497.223911 
L 226.925595 496.906026 
L 227.093779 497.458444 
L 227.430147 500.000363 
L 227.682423 504.420221 
L 228.186975 516.922198 
L 229.111987 550.075448 
L 229.700631 562.819221 
L 230.205183 569.29341 
L 230.709735 573.216121 
L 231.214287 575.651418 
L 231.802931 577.48477 
L 232.475667 578.896021 
L 233.400679 580.262113 
L 236.512083 584.201169 
L 239.118935 587.272898 
L 241.725787 589.651482 
L 243.155351 590.748055 
L 245.257651 591.744294 
L 246.350847 591.892968 
L 247.107675 592.016372 
L 247.696319 592.369778 
L 248.621331 593.333685 
L 249.798619 594.567516 
L 252.825931 596.443101 
L 253.666851 597.062012 
L 255.096415 597.607885 
L 255.685059 597.868395 
L 256.610071 598.114643 
L 257.787359 599.130956 
L 259.385107 600.624207 
L 260.226027 601.225625 
L 260.814671 601.416351 
L 262.580603 601.952708 
L 264.682903 602.77756 
L 266.112467 603.211585 
L 266.617019 603.485242 
L 270.148883 605.754885 
L 271.494355 606.131571 
L 272.671643 606.411695 
L 273.764839 606.78924 
L 274.269391 606.785978 
L 275.614863 606.696244 
L 276.455783 607.226784 
L 277.128519 607.884975 
L 277.801255 608.586141 
L 278.473991 608.942086 
L 279.146727 609.047915 
L 279.903555 608.809403 
L 280.492199 608.677719 
L 280.996751 608.823162 
L 282.005855 609.417835 
L 283.435419 610.402106 
L 283.855879 610.382618 
L 284.444523 610.372568 
L 285.621811 610.642659 
L 286.462731 610.827314 
L 286.883191 610.923869 
L 287.808203 611.032262 
L 288.312755 611.338018 
L 289.994595 612.81964 
L 290.919607 613.542402 
L 293.190091 614.854832 
L 296.637863 616.737136 
L 297.646967 617.084233 
L 306.812995 621.404803 
L 307.822099 621.654885 
L 308.747111 621.673785 
L 309.840307 621.399838 
L 310.513043 621.010887 
L 311.522147 620.101913 
L 312.278975 619.024829 
L 312.699435 617.956395 
L 313.708539 613.987159 
L 314.633551 609.836904 
L 315.054011 608.503266 
L 315.558563 607.262015 
L 316.735851 605.546 
L 316.904035 605.394593 
L 317.156311 605.113725 
L 317.492679 605.010525 
L 317.829047 604.650567 
L 318.165415 604.724974 
L 318.333599 604.605325 
L 318.754059 604.884352 
L 318.922243 604.852208 
L 319.679071 606.017345 
L 320.351807 607.623999 
L 320.435899 607.727909 
L 320.604083 607.114422 
L 321.360911 601.980805 
L 321.529095 601.75238 
L 321.697279 601.800036 
L 321.949555 602.154943 
L 322.706383 604.85481 
L 323.210935 607.237868 
L 324.135947 615.73157 
L 324.640499 618.376509 
L 325.145051 619.866634 
L 325.649603 620.647831 
L 326.238247 621.144439 
L 327.163259 621.590884 
L 329.097375 622.227212 
L 331.872411 623.150207 
L 338.683863 625.991019 
L 347.933983 629.767293 
L 354.745435 632.26713 
L 361.977347 634.681994 
L 369.713811 637.027621 
L 377.954827 639.291318 
L 386.784487 641.483657 
L 396.286883 643.610304 
L 406.462015 645.657119 
L 417.478067 647.642569 
L 429.335039 649.550571 
L 442.201115 651.392236 
L 456.160387 653.162074 
L 471.296947 654.854531 
L 487.863071 656.479847 
L 505.942851 658.027506 
L 525.872655 659.50647 
L 547.820667 660.908 
L 572.039163 662.228272 
L 598.948603 663.469167 
L 629.053539 664.630524 
L 662.858523 665.707364 
L 672.024551 665.96466 
L 672.024551 665.96466 
" clip-path="url(#p457030a180)" style="fill: none; stroke: #ff7f0e; stroke-width: 1.5; stroke-linecap: square"/>
   </g>
   <g id="patch_9">
    <path d="M 36.465625 684.92 
L 36.465625 386.16 
" style="fill: none; stroke: #000000; stroke-width: 0.8; stroke-linejoin: miter; stroke-linecap: square"/>
   </g>
   <g id="patch_10">
    <path d="M 702.289261 684.92 
L 702.289261 386.16 
" style="fill: none; stroke: #000000; stroke-width: 0.8; stroke-linejoin: miter; stroke-linecap: square"/>
   </g>
   <g id="patch_11">
    <path d="M 36.465625 684.92 
L 702.289261 684.92 
" style="fill: none; stroke: #000000; stroke-width: 0.8; stroke-linejoin: miter; stroke-linecap: square"/>
   </g>
   <g id="patch_12">
    <path d="M 36.465625 386.16 
L 702.289261 386.16 
" style="fill: none; stroke: #000000; stroke-width: 0.8; stroke-linejoin: miter; stroke-linecap: square"/>
   </g>
   <g id="text_32">
    <!-- 2 transformation(s) -->
    <g transform="translate(311.262756 380.16) scale(0.12 -0.12)">
     <use xlink:href="#DejaVuSans-32"/>
     <use xlink:href="#DejaVuSans-20" x="63.623047"/>
     <use xlink:href="#DejaVuSans-74" x="95.410156"/>
     <use xlink:href="#DejaVuSans-72" x="134.619141"/>
     <use xlink:href="#DejaVuSans-61" x="175.732422"/>
     <use xlink:href="#DejaVuSans-6e" x="237.011719"/>
     <use xlink:href="#DejaVuSans-73" x="300.390625"/>
     <use xlink:href="#DejaVuSans-66" x="352.490234"/>
     <use xlink:href="#DejaVuSans-6f" x="387.695312"/>
     <use xlink:href="#DejaVuSans-72" x="448.876953"/>
     <use xlink:href="#DejaVuSans-6d" x="488.240234"/>
     <use xlink:href="#DejaVuSans-61" x="585.652344"/>
     <use xlink:href="#DejaVuSans-74" x="646.931641"/>
     <use xlink:href="#DejaVuSans-69" x="686.140625"/>
     <use xlink:href="#DejaVuSans-6f" x="713.923828"/>
     <use xlink:href="#DejaVuSans-6e" x="775.105469"/>
     <use xlink:href="#DejaVuSans-28" x="838.484375"/>
     <use xlink:href="#DejaVuSans-73" x="877.498047"/>
     <use xlink:href="#DejaVuSans-29" x="929.597656"/>
    </g>
   </g>
  </g>
  <g id="text_33">
   <!-- training -->
   <g transform="translate(333.282187 16.318125) scale(0.12 -0.12)">
    <defs>
     <path id="DejaVuSans-67" d="M 2906 1791 
Q 2906 2416 2648 2759 
Q 2391 3103 1925 3103 
Q 1463 3103 1205 2759 
Q 947 2416 947 1791 
Q 947 1169 1205 825 
Q 1463 481 1925 481 
Q 2391 481 2648 825 
Q 2906 1169 2906 1791 
z
M 3481 434 
Q 3481 -459 3084 -895 
Q 2688 -1331 1869 -1331 
Q 1566 -1331 1297 -1286 
Q 1028 -1241 775 -1147 
L 775 -588 
Q 1028 -725 1275 -790 
Q 1522 -856 1778 -856 
Q 2344 -856 2625 -561 
Q 2906 -266 2906 331 
L 2906 616 
Q 2728 306 2450 153 
Q 2172 0 1784 0 
Q 1141 0 747 490 
Q 353 981 353 1791 
Q 353 2603 747 3093 
Q 1141 3584 1784 3584 
Q 2172 3584 2450 3431 
Q 2728 3278 2906 2969 
L 2906 3500 
L 3481 3500 
L 3481 434 
z
" transform="scale(0.015625)"/>
    </defs>
    <use xlink:href="#DejaVuSans-74"/>
    <use xlink:href="#DejaVuSans-72" x="39.208984"/>
    <use xlink:href="#DejaVuSans-61" x="80.322266"/>
    <use xlink:href="#DejaVuSans-69" x="141.601562"/>
    <use xlink:href="#DejaVuSans-6e" x="169.384766"/>
    <use xlink:href="#DejaVuSans-69" x="232.763672"/>
    <use xlink:href="#DejaVuSans-6e" x="260.546875"/>
    <use xlink:href="#DejaVuSans-67" x="323.925781"/>
   </g>
  </g>
 </g>
 <defs>
  <clipPath id="p869bcff75c">
   <rect x="36.465625" y="43.44" width="665.823636" height="298.76"/>
  </clipPath>
  <clipPath id="p457030a180">
   <rect x="36.465625" y="386.16" width="665.823636" height="298.76"/>
  </clipPath>
 </defs>
</svg>
