<?xml version="1.0" encoding="utf-8" standalone="no"?>
<!DOCTYPE svg PUBLIC "-//W3C//DTD SVG 1.1//EN"
  "http://www.w3.org/Graphics/SVG/1.1/DTD/svg11.dtd">
<svg xmlns:xlink="http://www.w3.org/1999/xlink" width="432pt" height="432pt" viewBox="0 0 432 432" xmlns="http://www.w3.org/2000/svg" version="1.1">
 <metadata>
  <rdf:RDF xmlns:dc="http://purl.org/dc/elements/1.1/" xmlns:cc="http://creativecommons.org/ns#" xmlns:rdf="http://www.w3.org/1999/02/22-rdf-syntax-ns#">
   <cc:Work>
    <dc:type rdf:resource="http://purl.org/dc/dcmitype/StillImage"/>
    <dc:date>2023-08-01T16:59:32.789335</dc:date>
    <dc:format>image/svg+xml</dc:format>
    <dc:creator>
     <cc:Agent>
      <dc:title>Matplotlib v3.7.1, https://matplotlib.org/</dc:title>
     </cc:Agent>
    </dc:creator>
   </cc:Work>
  </rdf:RDF>
 </metadata>
 <defs>
  <style type="text/css">*{stroke-linejoin: round; stroke-linecap: butt}</style>
 </defs>
 <g id="figure_1">
  <g id="patch_1">
   <path d="M 0 432 
L 432 432 
L 432 0 
L 0 0 
z
" style="fill: #ffffff"/>
  </g>
  <g id="axes_1">
   <g id="patch_2">
    <path d="M 54 384.48 
L 388.8 384.48 
L 388.8 51.84 
L 54 51.84 
z
" style="fill: #ffffff"/>
   </g>
   <g id="matplotlib.axis_1">
    <g id="xtick_1">
     <g id="line2d_1">
      <path d="M 54 384.48 
L 54 51.84 
" clip-path="url(#pe7d52228ac)" style="fill: none; stroke: #b0b0b0; stroke-opacity: 0.2; stroke-width: 0.8; stroke-linecap: square"/>
     </g>
     <g id="line2d_2">
      <defs>
       <path id="m0aac86328f" d="M 0 0 
L 0 3.5 
" style="stroke: #000000; stroke-width: 0.8"/>
      </defs>
      <g>
       <use xlink:href="#m0aac86328f" x="54" y="384.48" style="stroke: #000000; stroke-width: 0.8"/>
      </g>
     </g>
     <g id="text_1">
      <!-- 0.0 -->
      <g transform="translate(46.048437 399.078438) scale(0.1 -0.1)">
       <defs>
        <path id="DejaVuSans-30" d="M 2034 4250 
Q 1547 4250 1301 3770 
Q 1056 3291 1056 2328 
Q 1056 1369 1301 889 
Q 1547 409 2034 409 
Q 2525 409 2770 889 
Q 3016 1369 3016 2328 
Q 3016 3291 2770 3770 
Q 2525 4250 2034 4250 
z
M 2034 4750 
Q 2819 4750 3233 4129 
Q 3647 3509 3647 2328 
Q 3647 1150 3233 529 
Q 2819 -91 2034 -91 
Q 1250 -91 836 529 
Q 422 1150 422 2328 
Q 422 3509 836 4129 
Q 1250 4750 2034 4750 
z
" transform="scale(0.015625)"/>
        <path id="DejaVuSans-2e" d="M 684 794 
L 1344 794 
L 1344 0 
L 684 0 
L 684 794 
z
" transform="scale(0.015625)"/>
       </defs>
       <use xlink:href="#DejaVuSans-30"/>
       <use xlink:href="#DejaVuSans-2e" x="63.623047"/>
       <use xlink:href="#DejaVuSans-30" x="95.410156"/>
      </g>
     </g>
    </g>
    <g id="xtick_2">
     <g id="line2d_3">
      <path d="M 120.96 384.48 
L 120.96 51.84 
" clip-path="url(#pe7d52228ac)" style="fill: none; stroke: #b0b0b0; stroke-opacity: 0.2; stroke-width: 0.8; stroke-linecap: square"/>
     </g>
     <g id="line2d_4">
      <g>
       <use xlink:href="#m0aac86328f" x="120.96" y="384.48" style="stroke: #000000; stroke-width: 0.8"/>
      </g>
     </g>
     <g id="text_2">
      <!-- 0.2 -->
      <g transform="translate(113.008438 399.078438) scale(0.1 -0.1)">
       <defs>
        <path id="DejaVuSans-32" d="M 1228 531 
L 3431 531 
L 3431 0 
L 469 0 
L 469 531 
Q 828 903 1448 1529 
Q 2069 2156 2228 2338 
Q 2531 2678 2651 2914 
Q 2772 3150 2772 3378 
Q 2772 3750 2511 3984 
Q 2250 4219 1831 4219 
Q 1534 4219 1204 4116 
Q 875 4013 500 3803 
L 500 4441 
Q 881 4594 1212 4672 
Q 1544 4750 1819 4750 
Q 2544 4750 2975 4387 
Q 3406 4025 3406 3419 
Q 3406 3131 3298 2873 
Q 3191 2616 2906 2266 
Q 2828 2175 2409 1742 
Q 1991 1309 1228 531 
z
" transform="scale(0.015625)"/>
       </defs>
       <use xlink:href="#DejaVuSans-30"/>
       <use xlink:href="#DejaVuSans-2e" x="63.623047"/>
       <use xlink:href="#DejaVuSans-32" x="95.410156"/>
      </g>
     </g>
    </g>
    <g id="xtick_3">
     <g id="line2d_5">
      <path d="M 187.92 384.48 
L 187.92 51.84 
" clip-path="url(#pe7d52228ac)" style="fill: none; stroke: #b0b0b0; stroke-opacity: 0.2; stroke-width: 0.8; stroke-linecap: square"/>
     </g>
     <g id="line2d_6">
      <g>
       <use xlink:href="#m0aac86328f" x="187.92" y="384.48" style="stroke: #000000; stroke-width: 0.8"/>
      </g>
     </g>
     <g id="text_3">
      <!-- 0.4 -->
      <g transform="translate(179.968438 399.078438) scale(0.1 -0.1)">
       <defs>
        <path id="DejaVuSans-34" d="M 2419 4116 
L 825 1625 
L 2419 1625 
L 2419 4116 
z
M 2253 4666 
L 3047 4666 
L 3047 1625 
L 3713 1625 
L 3713 1100 
L 3047 1100 
L 3047 0 
L 2419 0 
L 2419 1100 
L 313 1100 
L 313 1709 
L 2253 4666 
z
" transform="scale(0.015625)"/>
       </defs>
       <use xlink:href="#DejaVuSans-30"/>
       <use xlink:href="#DejaVuSans-2e" x="63.623047"/>
       <use xlink:href="#DejaVuSans-34" x="95.410156"/>
      </g>
     </g>
    </g>
    <g id="xtick_4">
     <g id="line2d_7">
      <path d="M 254.88 384.48 
L 254.88 51.84 
" clip-path="url(#pe7d52228ac)" style="fill: none; stroke: #b0b0b0; stroke-opacity: 0.2; stroke-width: 0.8; stroke-linecap: square"/>
     </g>
     <g id="line2d_8">
      <g>
       <use xlink:href="#m0aac86328f" x="254.88" y="384.48" style="stroke: #000000; stroke-width: 0.8"/>
      </g>
     </g>
     <g id="text_4">
      <!-- 0.6 -->
      <g transform="translate(246.928438 399.078438) scale(0.1 -0.1)">
       <defs>
        <path id="DejaVuSans-36" d="M 2113 2584 
Q 1688 2584 1439 2293 
Q 1191 2003 1191 1497 
Q 1191 994 1439 701 
Q 1688 409 2113 409 
Q 2538 409 2786 701 
Q 3034 994 3034 1497 
Q 3034 2003 2786 2293 
Q 2538 2584 2113 2584 
z
M 3366 4563 
L 3366 3988 
Q 3128 4100 2886 4159 
Q 2644 4219 2406 4219 
Q 1781 4219 1451 3797 
Q 1122 3375 1075 2522 
Q 1259 2794 1537 2939 
Q 1816 3084 2150 3084 
Q 2853 3084 3261 2657 
Q 3669 2231 3669 1497 
Q 3669 778 3244 343 
Q 2819 -91 2113 -91 
Q 1303 -91 875 529 
Q 447 1150 447 2328 
Q 447 3434 972 4092 
Q 1497 4750 2381 4750 
Q 2619 4750 2861 4703 
Q 3103 4656 3366 4563 
z
" transform="scale(0.015625)"/>
       </defs>
       <use xlink:href="#DejaVuSans-30"/>
       <use xlink:href="#DejaVuSans-2e" x="63.623047"/>
       <use xlink:href="#DejaVuSans-36" x="95.410156"/>
      </g>
     </g>
    </g>
    <g id="xtick_5">
     <g id="line2d_9">
      <path d="M 321.84 384.48 
L 321.84 51.84 
" clip-path="url(#pe7d52228ac)" style="fill: none; stroke: #b0b0b0; stroke-opacity: 0.2; stroke-width: 0.8; stroke-linecap: square"/>
     </g>
     <g id="line2d_10">
      <g>
       <use xlink:href="#m0aac86328f" x="321.84" y="384.48" style="stroke: #000000; stroke-width: 0.8"/>
      </g>
     </g>
     <g id="text_5">
      <!-- 0.8 -->
      <g transform="translate(313.888438 399.078438) scale(0.1 -0.1)">
       <defs>
        <path id="DejaVuSans-38" d="M 2034 2216 
Q 1584 2216 1326 1975 
Q 1069 1734 1069 1313 
Q 1069 891 1326 650 
Q 1584 409 2034 409 
Q 2484 409 2743 651 
Q 3003 894 3003 1313 
Q 3003 1734 2745 1975 
Q 2488 2216 2034 2216 
z
M 1403 2484 
Q 997 2584 770 2862 
Q 544 3141 544 3541 
Q 544 4100 942 4425 
Q 1341 4750 2034 4750 
Q 2731 4750 3128 4425 
Q 3525 4100 3525 3541 
Q 3525 3141 3298 2862 
Q 3072 2584 2669 2484 
Q 3125 2378 3379 2068 
Q 3634 1759 3634 1313 
Q 3634 634 3220 271 
Q 2806 -91 2034 -91 
Q 1263 -91 848 271 
Q 434 634 434 1313 
Q 434 1759 690 2068 
Q 947 2378 1403 2484 
z
M 1172 3481 
Q 1172 3119 1398 2916 
Q 1625 2713 2034 2713 
Q 2441 2713 2670 2916 
Q 2900 3119 2900 3481 
Q 2900 3844 2670 4047 
Q 2441 4250 2034 4250 
Q 1625 4250 1398 4047 
Q 1172 3844 1172 3481 
z
" transform="scale(0.015625)"/>
       </defs>
       <use xlink:href="#DejaVuSans-30"/>
       <use xlink:href="#DejaVuSans-2e" x="63.623047"/>
       <use xlink:href="#DejaVuSans-38" x="95.410156"/>
      </g>
     </g>
    </g>
    <g id="xtick_6">
     <g id="line2d_11">
      <path d="M 388.8 384.48 
L 388.8 51.84 
" clip-path="url(#pe7d52228ac)" style="fill: none; stroke: #b0b0b0; stroke-opacity: 0.2; stroke-width: 0.8; stroke-linecap: square"/>
     </g>
     <g id="line2d_12">
      <g>
       <use xlink:href="#m0aac86328f" x="388.8" y="384.48" style="stroke: #000000; stroke-width: 0.8"/>
      </g>
     </g>
     <g id="text_6">
      <!-- 1.0 -->
      <g transform="translate(380.848437 399.078438) scale(0.1 -0.1)">
       <defs>
        <path id="DejaVuSans-31" d="M 794 531 
L 1825 531 
L 1825 4091 
L 703 3866 
L 703 4441 
L 1819 4666 
L 2450 4666 
L 2450 531 
L 3481 531 
L 3481 0 
L 794 0 
L 794 531 
z
" transform="scale(0.015625)"/>
       </defs>
       <use xlink:href="#DejaVuSans-31"/>
       <use xlink:href="#DejaVuSans-2e" x="63.623047"/>
       <use xlink:href="#DejaVuSans-30" x="95.410156"/>
      </g>
     </g>
    </g>
    <g id="text_7">
     <!-- Nash-Sutcliffe Efficiency -->
     <g transform="translate(116.7534 418.288225) scale(0.1728 -0.1728)">
      <defs>
       <path id="DejaVuSans-4e" d="M 628 4666 
L 1478 4666 
L 3547 763 
L 3547 4666 
L 4159 4666 
L 4159 0 
L 3309 0 
L 1241 3903 
L 1241 0 
L 628 0 
L 628 4666 
z
" transform="scale(0.015625)"/>
       <path id="DejaVuSans-61" d="M 2194 1759 
Q 1497 1759 1228 1600 
Q 959 1441 959 1056 
Q 959 750 1161 570 
Q 1363 391 1709 391 
Q 2188 391 2477 730 
Q 2766 1069 2766 1631 
L 2766 1759 
L 2194 1759 
z
M 3341 1997 
L 3341 0 
L 2766 0 
L 2766 531 
Q 2569 213 2275 61 
Q 1981 -91 1556 -91 
Q 1019 -91 701 211 
Q 384 513 384 1019 
Q 384 1609 779 1909 
Q 1175 2209 1959 2209 
L 2766 2209 
L 2766 2266 
Q 2766 2663 2505 2880 
Q 2244 3097 1772 3097 
Q 1472 3097 1187 3025 
Q 903 2953 641 2809 
L 641 3341 
Q 956 3463 1253 3523 
Q 1550 3584 1831 3584 
Q 2591 3584 2966 3190 
Q 3341 2797 3341 1997 
z
" transform="scale(0.015625)"/>
       <path id="DejaVuSans-73" d="M 2834 3397 
L 2834 2853 
Q 2591 2978 2328 3040 
Q 2066 3103 1784 3103 
Q 1356 3103 1142 2972 
Q 928 2841 928 2578 
Q 928 2378 1081 2264 
Q 1234 2150 1697 2047 
L 1894 2003 
Q 2506 1872 2764 1633 
Q 3022 1394 3022 966 
Q 3022 478 2636 193 
Q 2250 -91 1575 -91 
Q 1294 -91 989 -36 
Q 684 19 347 128 
L 347 722 
Q 666 556 975 473 
Q 1284 391 1588 391 
Q 1994 391 2212 530 
Q 2431 669 2431 922 
Q 2431 1156 2273 1281 
Q 2116 1406 1581 1522 
L 1381 1569 
Q 847 1681 609 1914 
Q 372 2147 372 2553 
Q 372 3047 722 3315 
Q 1072 3584 1716 3584 
Q 2034 3584 2315 3537 
Q 2597 3491 2834 3397 
z
" transform="scale(0.015625)"/>
       <path id="DejaVuSans-68" d="M 3513 2113 
L 3513 0 
L 2938 0 
L 2938 2094 
Q 2938 2591 2744 2837 
Q 2550 3084 2163 3084 
Q 1697 3084 1428 2787 
Q 1159 2491 1159 1978 
L 1159 0 
L 581 0 
L 581 4863 
L 1159 4863 
L 1159 2956 
Q 1366 3272 1645 3428 
Q 1925 3584 2291 3584 
Q 2894 3584 3203 3211 
Q 3513 2838 3513 2113 
z
" transform="scale(0.015625)"/>
       <path id="DejaVuSans-2d" d="M 313 2009 
L 1997 2009 
L 1997 1497 
L 313 1497 
L 313 2009 
z
" transform="scale(0.015625)"/>
       <path id="DejaVuSans-53" d="M 3425 4513 
L 3425 3897 
Q 3066 4069 2747 4153 
Q 2428 4238 2131 4238 
Q 1616 4238 1336 4038 
Q 1056 3838 1056 3469 
Q 1056 3159 1242 3001 
Q 1428 2844 1947 2747 
L 2328 2669 
Q 3034 2534 3370 2195 
Q 3706 1856 3706 1288 
Q 3706 609 3251 259 
Q 2797 -91 1919 -91 
Q 1588 -91 1214 -16 
Q 841 59 441 206 
L 441 856 
Q 825 641 1194 531 
Q 1563 422 1919 422 
Q 2459 422 2753 634 
Q 3047 847 3047 1241 
Q 3047 1584 2836 1778 
Q 2625 1972 2144 2069 
L 1759 2144 
Q 1053 2284 737 2584 
Q 422 2884 422 3419 
Q 422 4038 858 4394 
Q 1294 4750 2059 4750 
Q 2388 4750 2728 4690 
Q 3069 4631 3425 4513 
z
" transform="scale(0.015625)"/>
       <path id="DejaVuSans-75" d="M 544 1381 
L 544 3500 
L 1119 3500 
L 1119 1403 
Q 1119 906 1312 657 
Q 1506 409 1894 409 
Q 2359 409 2629 706 
Q 2900 1003 2900 1516 
L 2900 3500 
L 3475 3500 
L 3475 0 
L 2900 0 
L 2900 538 
Q 2691 219 2414 64 
Q 2138 -91 1772 -91 
Q 1169 -91 856 284 
Q 544 659 544 1381 
z
M 1991 3584 
L 1991 3584 
z
" transform="scale(0.015625)"/>
       <path id="DejaVuSans-74" d="M 1172 4494 
L 1172 3500 
L 2356 3500 
L 2356 3053 
L 1172 3053 
L 1172 1153 
Q 1172 725 1289 603 
Q 1406 481 1766 481 
L 2356 481 
L 2356 0 
L 1766 0 
Q 1100 0 847 248 
Q 594 497 594 1153 
L 594 3053 
L 172 3053 
L 172 3500 
L 594 3500 
L 594 4494 
L 1172 4494 
z
" transform="scale(0.015625)"/>
       <path id="DejaVuSans-63" d="M 3122 3366 
L 3122 2828 
Q 2878 2963 2633 3030 
Q 2388 3097 2138 3097 
Q 1578 3097 1268 2742 
Q 959 2388 959 1747 
Q 959 1106 1268 751 
Q 1578 397 2138 397 
Q 2388 397 2633 464 
Q 2878 531 3122 666 
L 3122 134 
Q 2881 22 2623 -34 
Q 2366 -91 2075 -91 
Q 1284 -91 818 406 
Q 353 903 353 1747 
Q 353 2603 823 3093 
Q 1294 3584 2113 3584 
Q 2378 3584 2631 3529 
Q 2884 3475 3122 3366 
z
" transform="scale(0.015625)"/>
       <path id="DejaVuSans-6c" d="M 603 4863 
L 1178 4863 
L 1178 0 
L 603 0 
L 603 4863 
z
" transform="scale(0.015625)"/>
       <path id="DejaVuSans-69" d="M 603 3500 
L 1178 3500 
L 1178 0 
L 603 0 
L 603 3500 
z
M 603 4863 
L 1178 4863 
L 1178 4134 
L 603 4134 
L 603 4863 
z
" transform="scale(0.015625)"/>
       <path id="DejaVuSans-66" d="M 2375 4863 
L 2375 4384 
L 1825 4384 
Q 1516 4384 1395 4259 
Q 1275 4134 1275 3809 
L 1275 3500 
L 2222 3500 
L 2222 3053 
L 1275 3053 
L 1275 0 
L 697 0 
L 697 3053 
L 147 3053 
L 147 3500 
L 697 3500 
L 697 3744 
Q 697 4328 969 4595 
Q 1241 4863 1831 4863 
L 2375 4863 
z
" transform="scale(0.015625)"/>
       <path id="DejaVuSans-65" d="M 3597 1894 
L 3597 1613 
L 953 1613 
Q 991 1019 1311 708 
Q 1631 397 2203 397 
Q 2534 397 2845 478 
Q 3156 559 3463 722 
L 3463 178 
Q 3153 47 2828 -22 
Q 2503 -91 2169 -91 
Q 1331 -91 842 396 
Q 353 884 353 1716 
Q 353 2575 817 3079 
Q 1281 3584 2069 3584 
Q 2775 3584 3186 3129 
Q 3597 2675 3597 1894 
z
M 3022 2063 
Q 3016 2534 2758 2815 
Q 2500 3097 2075 3097 
Q 1594 3097 1305 2825 
Q 1016 2553 972 2059 
L 3022 2063 
z
" transform="scale(0.015625)"/>
       <path id="DejaVuSans-20" transform="scale(0.015625)"/>
       <path id="DejaVuSans-45" d="M 628 4666 
L 3578 4666 
L 3578 4134 
L 1259 4134 
L 1259 2753 
L 3481 2753 
L 3481 2222 
L 1259 2222 
L 1259 531 
L 3634 531 
L 3634 0 
L 628 0 
L 628 4666 
z
" transform="scale(0.015625)"/>
       <path id="DejaVuSans-6e" d="M 3513 2113 
L 3513 0 
L 2938 0 
L 2938 2094 
Q 2938 2591 2744 2837 
Q 2550 3084 2163 3084 
Q 1697 3084 1428 2787 
Q 1159 2491 1159 1978 
L 1159 0 
L 581 0 
L 581 3500 
L 1159 3500 
L 1159 2956 
Q 1366 3272 1645 3428 
Q 1925 3584 2291 3584 
Q 2894 3584 3203 3211 
Q 3513 2838 3513 2113 
z
" transform="scale(0.015625)"/>
       <path id="DejaVuSans-79" d="M 2059 -325 
Q 1816 -950 1584 -1140 
Q 1353 -1331 966 -1331 
L 506 -1331 
L 506 -850 
L 844 -850 
Q 1081 -850 1212 -737 
Q 1344 -625 1503 -206 
L 1606 56 
L 191 3500 
L 800 3500 
L 1894 763 
L 2988 3500 
L 3597 3500 
L 2059 -325 
z
" transform="scale(0.015625)"/>
      </defs>
      <use xlink:href="#DejaVuSans-4e"/>
      <use xlink:href="#DejaVuSans-61" x="74.804688"/>
      <use xlink:href="#DejaVuSans-73" x="136.083984"/>
      <use xlink:href="#DejaVuSans-68" x="188.183594"/>
      <use xlink:href="#DejaVuSans-2d" x="251.5625"/>
      <use xlink:href="#DejaVuSans-53" x="287.646484"/>
      <use xlink:href="#DejaVuSans-75" x="351.123047"/>
      <use xlink:href="#DejaVuSans-74" x="414.501953"/>
      <use xlink:href="#DejaVuSans-63" x="453.710938"/>
      <use xlink:href="#DejaVuSans-6c" x="508.691406"/>
      <use xlink:href="#DejaVuSans-69" x="536.474609"/>
      <use xlink:href="#DejaVuSans-66" x="564.257812"/>
      <use xlink:href="#DejaVuSans-66" x="599.462891"/>
      <use xlink:href="#DejaVuSans-65" x="634.667969"/>
      <use xlink:href="#DejaVuSans-20" x="696.191406"/>
      <use xlink:href="#DejaVuSans-45" x="727.978516"/>
      <use xlink:href="#DejaVuSans-66" x="791.162109"/>
      <use xlink:href="#DejaVuSans-66" x="826.367188"/>
      <use xlink:href="#DejaVuSans-69" x="861.572266"/>
      <use xlink:href="#DejaVuSans-63" x="889.355469"/>
      <use xlink:href="#DejaVuSans-69" x="944.335938"/>
      <use xlink:href="#DejaVuSans-65" x="972.119141"/>
      <use xlink:href="#DejaVuSans-6e" x="1033.642578"/>
      <use xlink:href="#DejaVuSans-63" x="1097.021484"/>
      <use xlink:href="#DejaVuSans-79" x="1152.001953"/>
     </g>
    </g>
   </g>
   <g id="matplotlib.axis_2">
    <g id="ytick_1">
     <g id="line2d_13">
      <path d="M 54 370.188493 
L 388.8 370.188493 
" clip-path="url(#pe7d52228ac)" style="fill: none; stroke: #b0b0b0; stroke-opacity: 0.2; stroke-width: 0.8; stroke-linecap: square"/>
     </g>
     <g id="line2d_14">
      <defs>
       <path id="m11908d5cf0" d="M 0 0 
L -3.5 0 
" style="stroke: #000000; stroke-width: 0.8"/>
      </defs>
      <g>
       <use xlink:href="#m11908d5cf0" x="54" y="370.188493" style="stroke: #000000; stroke-width: 0.8"/>
      </g>
     </g>
     <g id="text_8">
      <!-- 0.0 -->
      <g transform="translate(31.096875 373.987712) scale(0.1 -0.1)">
       <use xlink:href="#DejaVuSans-30"/>
       <use xlink:href="#DejaVuSans-2e" x="63.623047"/>
       <use xlink:href="#DejaVuSans-30" x="95.410156"/>
      </g>
     </g>
    </g>
    <g id="ytick_2">
     <g id="line2d_15">
      <path d="M 54 309.542795 
L 388.8 309.542795 
" clip-path="url(#pe7d52228ac)" style="fill: none; stroke: #b0b0b0; stroke-opacity: 0.2; stroke-width: 0.8; stroke-linecap: square"/>
     </g>
     <g id="line2d_16">
      <g>
       <use xlink:href="#m11908d5cf0" x="54" y="309.542795" style="stroke: #000000; stroke-width: 0.8"/>
      </g>
     </g>
     <g id="text_9">
      <!-- 0.2 -->
      <g transform="translate(31.096875 313.342013) scale(0.1 -0.1)">
       <use xlink:href="#DejaVuSans-30"/>
       <use xlink:href="#DejaVuSans-2e" x="63.623047"/>
       <use xlink:href="#DejaVuSans-32" x="95.410156"/>
      </g>
     </g>
    </g>
    <g id="ytick_3">
     <g id="line2d_17">
      <path d="M 54 248.897096 
L 388.8 248.897096 
" clip-path="url(#pe7d52228ac)" style="fill: none; stroke: #b0b0b0; stroke-opacity: 0.2; stroke-width: 0.8; stroke-linecap: square"/>
     </g>
     <g id="line2d_18">
      <g>
       <use xlink:href="#m11908d5cf0" x="54" y="248.897096" style="stroke: #000000; stroke-width: 0.8"/>
      </g>
     </g>
     <g id="text_10">
      <!-- 0.4 -->
      <g transform="translate(31.096875 252.696315) scale(0.1 -0.1)">
       <use xlink:href="#DejaVuSans-30"/>
       <use xlink:href="#DejaVuSans-2e" x="63.623047"/>
       <use xlink:href="#DejaVuSans-34" x="95.410156"/>
      </g>
     </g>
    </g>
    <g id="ytick_4">
     <g id="line2d_19">
      <path d="M 54 188.251397 
L 388.8 188.251397 
" clip-path="url(#pe7d52228ac)" style="fill: none; stroke: #b0b0b0; stroke-opacity: 0.2; stroke-width: 0.8; stroke-linecap: square"/>
     </g>
     <g id="line2d_20">
      <g>
       <use xlink:href="#m11908d5cf0" x="54" y="188.251397" style="stroke: #000000; stroke-width: 0.8"/>
      </g>
     </g>
     <g id="text_11">
      <!-- 0.6 -->
      <g transform="translate(31.096875 192.050616) scale(0.1 -0.1)">
       <use xlink:href="#DejaVuSans-30"/>
       <use xlink:href="#DejaVuSans-2e" x="63.623047"/>
       <use xlink:href="#DejaVuSans-36" x="95.410156"/>
      </g>
     </g>
    </g>
    <g id="ytick_5">
     <g id="line2d_21">
      <path d="M 54 127.605699 
L 388.8 127.605699 
" clip-path="url(#pe7d52228ac)" style="fill: none; stroke: #b0b0b0; stroke-opacity: 0.2; stroke-width: 0.8; stroke-linecap: square"/>
     </g>
     <g id="line2d_22">
      <g>
       <use xlink:href="#m11908d5cf0" x="54" y="127.605699" style="stroke: #000000; stroke-width: 0.8"/>
      </g>
     </g>
     <g id="text_12">
      <!-- 0.8 -->
      <g transform="translate(31.096875 131.404917) scale(0.1 -0.1)">
       <use xlink:href="#DejaVuSans-30"/>
       <use xlink:href="#DejaVuSans-2e" x="63.623047"/>
       <use xlink:href="#DejaVuSans-38" x="95.410156"/>
      </g>
     </g>
    </g>
    <g id="ytick_6">
     <g id="line2d_23">
      <path d="M 54 66.96 
L 388.8 66.96 
" clip-path="url(#pe7d52228ac)" style="fill: none; stroke: #b0b0b0; stroke-opacity: 0.2; stroke-width: 0.8; stroke-linecap: square"/>
     </g>
     <g id="line2d_24">
      <g>
       <use xlink:href="#m11908d5cf0" x="54" y="66.96" style="stroke: #000000; stroke-width: 0.8"/>
      </g>
     </g>
     <g id="text_13">
      <!-- 1.0 -->
      <g transform="translate(31.096875 70.759219) scale(0.1 -0.1)">
       <use xlink:href="#DejaVuSans-31"/>
       <use xlink:href="#DejaVuSans-2e" x="63.623047"/>
       <use xlink:href="#DejaVuSans-30" x="95.410156"/>
      </g>
     </g>
    </g>
    <g id="text_14">
     <!-- Cumulative Density -->
     <g transform="translate(23.503175 303.06555) rotate(-90) scale(0.1728 -0.1728)">
      <defs>
       <path id="DejaVuSans-43" d="M 4122 4306 
L 4122 3641 
Q 3803 3938 3442 4084 
Q 3081 4231 2675 4231 
Q 1875 4231 1450 3742 
Q 1025 3253 1025 2328 
Q 1025 1406 1450 917 
Q 1875 428 2675 428 
Q 3081 428 3442 575 
Q 3803 722 4122 1019 
L 4122 359 
Q 3791 134 3420 21 
Q 3050 -91 2638 -91 
Q 1578 -91 968 557 
Q 359 1206 359 2328 
Q 359 3453 968 4101 
Q 1578 4750 2638 4750 
Q 3056 4750 3426 4639 
Q 3797 4528 4122 4306 
z
" transform="scale(0.015625)"/>
       <path id="DejaVuSans-6d" d="M 3328 2828 
Q 3544 3216 3844 3400 
Q 4144 3584 4550 3584 
Q 5097 3584 5394 3201 
Q 5691 2819 5691 2113 
L 5691 0 
L 5113 0 
L 5113 2094 
Q 5113 2597 4934 2840 
Q 4756 3084 4391 3084 
Q 3944 3084 3684 2787 
Q 3425 2491 3425 1978 
L 3425 0 
L 2847 0 
L 2847 2094 
Q 2847 2600 2669 2842 
Q 2491 3084 2119 3084 
Q 1678 3084 1418 2786 
Q 1159 2488 1159 1978 
L 1159 0 
L 581 0 
L 581 3500 
L 1159 3500 
L 1159 2956 
Q 1356 3278 1631 3431 
Q 1906 3584 2284 3584 
Q 2666 3584 2933 3390 
Q 3200 3197 3328 2828 
z
" transform="scale(0.015625)"/>
       <path id="DejaVuSans-76" d="M 191 3500 
L 800 3500 
L 1894 563 
L 2988 3500 
L 3597 3500 
L 2284 0 
L 1503 0 
L 191 3500 
z
" transform="scale(0.015625)"/>
       <path id="DejaVuSans-44" d="M 1259 4147 
L 1259 519 
L 2022 519 
Q 2988 519 3436 956 
Q 3884 1394 3884 2338 
Q 3884 3275 3436 3711 
Q 2988 4147 2022 4147 
L 1259 4147 
z
M 628 4666 
L 1925 4666 
Q 3281 4666 3915 4102 
Q 4550 3538 4550 2338 
Q 4550 1131 3912 565 
Q 3275 0 1925 0 
L 628 0 
L 628 4666 
z
" transform="scale(0.015625)"/>
      </defs>
      <use xlink:href="#DejaVuSans-43"/>
      <use xlink:href="#DejaVuSans-75" x="69.824219"/>
      <use xlink:href="#DejaVuSans-6d" x="133.203125"/>
      <use xlink:href="#DejaVuSans-75" x="230.615234"/>
      <use xlink:href="#DejaVuSans-6c" x="293.994141"/>
      <use xlink:href="#DejaVuSans-61" x="321.777344"/>
      <use xlink:href="#DejaVuSans-74" x="383.056641"/>
      <use xlink:href="#DejaVuSans-69" x="422.265625"/>
      <use xlink:href="#DejaVuSans-76" x="450.048828"/>
      <use xlink:href="#DejaVuSans-65" x="509.228516"/>
      <use xlink:href="#DejaVuSans-20" x="570.751953"/>
      <use xlink:href="#DejaVuSans-44" x="602.539062"/>
      <use xlink:href="#DejaVuSans-65" x="679.541016"/>
      <use xlink:href="#DejaVuSans-6e" x="741.064453"/>
      <use xlink:href="#DejaVuSans-73" x="804.443359"/>
      <use xlink:href="#DejaVuSans-69" x="856.542969"/>
      <use xlink:href="#DejaVuSans-74" x="884.326172"/>
      <use xlink:href="#DejaVuSans-79" x="923.535156"/>
     </g>
    </g>
   </g>
   <g id="line2d_25">
    <path d="M -1 368.721947 
L 73.828154 368.445801 
L 81.918721 367.574454 
L 99.914578 366.703108 
L 108.707651 365.831762 
L 119.471844 364.960416 
L 125.916857 364.089069 
L 147.178381 362.346377 
L 152.904109 361.475031 
L 154.04952 360.603684 
L 156.310757 359.732338 
L 157.933056 358.860992 
L 160.384174 357.989646 
L 161.321681 357.118299 
L 172.40242 356.246953 
L 172.659523 355.375607 
L 177.920723 353.632915 
L 180.432887 352.761568 
L 181.648091 351.890222 
L 185.529543 351.018876 
L 191.95201 350.14753 
L 193.244484 349.276183 
L 195.476 348.404837 
L 196.955799 347.533491 
L 201.135516 346.662145 
L 202.117367 345.790798 
L 202.852597 344.919452 
L 203.913636 344.048106 
L 204.000802 343.17676 
L 206.073577 342.305413 
L 210.993785 340.562721 
L 215.852677 339.691375 
L 219.214417 338.820028 
L 223.207412 337.948682 
L 223.281308 336.20599 
L 223.525015 335.334643 
L 223.624474 334.463297 
L 229.46716 332.720605 
L 230.075363 331.849258 
L 231.821194 330.977912 
L 232.107076 330.106566 
L 233.243112 329.23522 
L 235.194608 326.621181 
L 238.711297 325.749835 
L 238.836461 324.878488 
L 240.259819 324.007142 
L 242.627084 322.26445 
L 244.989404 321.393103 
L 245.07188 320.521757 
L 245.307517 319.650411 
L 245.666043 318.779065 
L 245.68961 317.907718 
L 248.733087 317.036372 
L 249.947559 316.165026 
L 249.972987 315.29368 
L 250.317372 314.422333 
L 250.493829 313.550987 
L 253.034735 312.679641 
L 254.084229 311.808295 
L 254.200982 310.936949 
L 254.601258 310.065602 
L 256.221825 308.32291 
L 256.606964 307.451564 
L 258.08851 306.580217 
L 258.413198 305.708871 
L 259.720019 304.837525 
L 259.76815 303.966179 
L 260.410501 303.094832 
L 262.810353 302.223486 
L 263.009109 301.35214 
L 265.360036 300.480794 
L 265.362177 299.609447 
L 265.846647 298.738101 
L 267.987288 297.866755 
L 269.237336 296.995409 
L 269.269078 296.124062 
L 269.631552 295.252716 
L 270.65051 294.38137 
L 271.042937 293.510024 
L 271.7308 292.638677 
L 272.080991 291.767331 
L 272.193646 290.895985 
L 273.779765 290.024639 
L 273.982835 289.153292 
L 275.374919 288.281946 
L 275.734524 287.4106 
L 275.916969 285.667907 
L 276.362257 284.796561 
L 278.913608 283.925215 
L 279.101695 283.053869 
L 279.116173 282.182522 
L 279.283575 281.311176 
L 281.48059 280.43983 
L 281.805988 279.568484 
L 282.755953 278.697137 
L 284.170967 277.825791 
L 284.230867 276.954445 
L 285.844487 276.083099 
L 285.887802 275.211752 
L 286.531825 274.340406 
L 286.971026 272.597714 
L 287.860068 271.726368 
L 288.421554 270.855021 
L 289.411711 269.983675 
L 289.611818 269.112329 
L 289.675873 267.369636 
L 289.923347 266.49829 
L 290.75364 265.626944 
L 291.148783 264.755598 
L 291.503172 262.141559 
L 291.583363 261.270213 
L 291.902676 260.398866 
L 292.142819 257.784828 
L 293.200043 256.913481 
L 293.244737 256.042135 
L 293.423457 255.170789 
L 293.43514 254.299443 
L 293.714321 253.428096 
L 293.834502 251.685404 
L 294.394013 250.814058 
L 295.111762 249.942711 
L 295.406662 249.071365 
L 295.904086 248.200019 
L 296.061073 247.328673 
L 297.099775 246.457326 
L 297.451979 245.58598 
L 297.578142 243.843288 
L 297.894121 242.971941 
L 298.573376 242.100595 
L 298.885457 241.229249 
L 299.605642 240.357903 
L 300.65756 238.61521 
L 301.134274 234.258479 
L 301.585795 233.387133 
L 302.121497 230.773094 
L 302.508196 229.901748 
L 302.516059 229.030402 
L 302.751475 228.159055 
L 302.977111 226.416363 
L 303.362139 225.545017 
L 303.456558 224.67367 
L 304.105585 223.802324 
L 304.265411 222.930978 
L 304.602813 222.059632 
L 305.325087 221.188285 
L 305.572523 219.445593 
L 306.01873 218.574247 
L 306.212505 217.7029 
L 306.290134 215.960208 
L 307.904148 213.346169 
L 308.396968 212.474823 
L 308.505943 211.603477 
L 308.873938 210.73213 
L 309.405756 209.860784 
L 309.432155 208.989438 
L 310.492086 205.504053 
L 310.741943 203.76136 
L 311.584008 202.890014 
L 313.156074 200.275975 
L 313.412426 198.533283 
L 313.858262 197.661937 
L 314.097521 194.176552 
L 314.54869 193.305205 
L 314.647575 192.433859 
L 314.914881 191.562513 
L 315.034266 189.819821 
L 315.411363 188.948474 
L 315.5766 188.077128 
L 315.593415 187.205782 
L 316.078285 186.334436 
L 316.332893 184.591743 
L 316.346251 183.720397 
L 316.743219 182.849051 
L 316.800137 181.106358 
L 317.035426 180.235012 
L 317.703477 179.363666 
L 317.781065 178.492319 
L 318.300925 177.620973 
L 318.566981 174.135588 
L 319.051634 170.650203 
L 320.636139 168.907511 
L 321.076624 168.036164 
L 321.363568 166.293472 
L 322.186364 165.422126 
L 322.623672 162.808087 
L 322.937182 161.936741 
L 323.20797 160.194048 
L 323.320714 158.451356 
L 323.598635 157.580009 
L 323.619856 156.708663 
L 324.880229 154.094624 
L 325.8131 153.223278 
L 325.815668 152.351932 
L 325.972598 151.480586 
L 326.002791 150.609239 
L 326.414469 147.995201 
L 326.844821 147.123855 
L 327.423548 146.252508 
L 327.613796 145.381162 
L 327.907514 142.767123 
L 328.656143 141.024431 
L 329.650988 140.153085 
L 330.385461 134.925007 
L 330.410715 134.053661 
L 330.810698 133.182315 
L 331.372871 128.825583 
L 331.557234 127.954237 
L 331.693376 126.211545 
L 331.784632 125.340198 
L 332.368183 124.468852 
L 332.47719 123.597506 
L 332.99377 122.72616 
L 333.285894 121.854813 
L 333.570311 120.112121 
L 334.576464 118.369428 
L 335.766692 114.012697 
L 335.794601 113.141351 
L 336.278607 110.527312 
L 336.368861 109.655966 
L 336.852525 108.78462 
L 337.479587 107.913274 
L 337.516033 107.041927 
L 337.970002 106.170581 
L 338.287922 105.299235 
L 338.479467 104.427889 
L 338.480994 103.556542 
L 339.108392 102.685196 
L 339.155717 101.81385 
L 339.440597 100.942504 
L 339.593184 100.071157 
L 340.079323 99.199811 
L 340.706371 95.714426 
L 341.364267 94.84308 
L 341.461514 93.971734 
L 342.250952 93.100387 
L 342.50345 92.229041 
L 343.430763 91.357695 
L 343.5688 90.486349 
L 343.917518 89.615002 
L 344.534547 88.743656 
L 345.330792 87.87231 
L 345.541173 87.000964 
L 347.51929 86.129617 
L 348.360607 84.386925 
L 348.715921 81.772886 
L 349.121344 80.90154 
L 352.10478 80.030194 
L 356.835201 79.158847 
L 356.936713 78.287501 
L 357.401106 77.416155 
L 357.62552 76.544809 
L 357.820777 74.802116 
L 358.964109 73.059424 
L 364.183058 72.188077 
L 366.435502 71.316731 
L 370.51871 70.445385 
L 370.994724 68.702692 
L 373.931881 67.831346 
L 375.073665 66.96 
L 375.073665 66.96 
" clip-path="url(#pe7d52228ac)" style="fill: none; stroke: #1b9e77; stroke-width: 1.5; stroke-linecap: square"/>
   </g>
   <g id="line2d_26">
    <path d="M -1 365.525403 
L 6.729397 364.960416 
L 12.649826 364.089069 
L 15.925269 363.217723 
L 42.909424 362.346377 
L 45.353996 361.475031 
L 49.093455 360.603684 
L 60.250957 359.732338 
L 61.487924 358.860992 
L 62.288469 357.989646 
L 64.763341 357.118299 
L 73.818472 356.246953 
L 86.790231 354.504261 
L 103.509791 353.632915 
L 115.342016 352.761568 
L 116.548175 351.890222 
L 129.23568 351.018876 
L 136.641016 350.14753 
L 136.977465 349.276183 
L 140.759339 348.404837 
L 143.91624 347.533491 
L 151.105836 346.662145 
L 151.823798 345.790798 
L 152.102481 344.919452 
L 154.026797 344.048106 
L 157.89789 343.17676 
L 158.487127 342.305413 
L 160.175644 341.434067 
L 161.5939 340.562721 
L 162.005339 339.691375 
L 164.015671 338.820028 
L 167.628829 337.948682 
L 167.787628 337.077336 
L 169.614886 336.20599 
L 170.344157 335.334643 
L 170.414126 334.463297 
L 170.79853 333.591951 
L 171.645967 332.720605 
L 173.867733 331.849258 
L 176.557224 330.106566 
L 183.335934 329.23522 
L 185.757509 328.363873 
L 190.104737 327.492527 
L 192.134982 326.621181 
L 195.394354 325.749835 
L 195.418637 324.878488 
L 198.001126 324.007142 
L 199.837254 323.135796 
L 200.05776 322.26445 
L 201.135148 321.393103 
L 201.193618 320.521757 
L 202.956939 317.907718 
L 203.068376 317.036372 
L 203.742395 316.165026 
L 203.92587 315.29368 
L 206.402311 314.422333 
L 206.510674 313.550987 
L 207.33195 312.679641 
L 209.644494 311.808295 
L 210.265706 310.936949 
L 210.503601 310.065602 
L 211.196859 309.194256 
L 213.566475 308.32291 
L 214.181881 307.451564 
L 214.352757 306.580217 
L 215.027049 305.708871 
L 215.074275 304.837525 
L 216.238435 303.966179 
L 216.248701 303.094832 
L 217.998385 302.223486 
L 218.380709 300.480794 
L 219.338814 299.609447 
L 219.537745 298.738101 
L 220.433125 297.866755 
L 220.60489 296.995409 
L 221.432314 296.124062 
L 221.781333 295.252716 
L 222.915763 293.510024 
L 223.730807 290.024639 
L 225.30703 289.153292 
L 225.978103 288.281946 
L 226.843502 287.4106 
L 227.195622 286.539254 
L 227.362427 285.667907 
L 227.969373 284.796561 
L 228.211815 283.925215 
L 229.728843 283.053869 
L 230.382467 282.182522 
L 231.274722 281.311176 
L 231.290649 280.43983 
L 232.22736 277.825791 
L 232.777614 276.954445 
L 233.081711 276.083099 
L 233.530267 275.211752 
L 233.640791 273.46906 
L 234.376175 271.726368 
L 234.905527 270.855021 
L 236.111911 269.983675 
L 237.670918 269.112329 
L 238.297734 268.240983 
L 238.569783 267.369636 
L 238.969221 266.49829 
L 240.241641 265.626944 
L 240.826173 264.755598 
L 240.880723 263.884251 
L 241.150962 263.012905 
L 241.295017 260.398866 
L 241.577921 259.52752 
L 242.271311 258.656174 
L 242.501283 257.784828 
L 242.590873 256.913481 
L 243.799837 256.042135 
L 244.382941 254.299443 
L 244.972682 253.428096 
L 245.170367 251.685404 
L 245.723584 250.814058 
L 246.304015 249.071365 
L 246.754674 248.200019 
L 246.84022 247.328673 
L 247.514806 245.58598 
L 247.972768 242.971941 
L 248.797536 242.100595 
L 248.946735 240.357903 
L 249.145587 237.743864 
L 249.899337 236.872518 
L 249.975043 236.001171 
L 250.250937 235.129825 
L 250.339378 234.258479 
L 250.798683 233.387133 
L 251.234742 230.773094 
L 251.279012 229.901748 
L 251.948793 229.030402 
L 251.972554 228.159055 
L 252.202725 227.287709 
L 252.74324 226.416363 
L 253.014206 225.545017 
L 253.040612 224.67367 
L 253.321185 223.802324 
L 253.484837 222.059632 
L 254.681187 219.445593 
L 255.275259 218.574247 
L 255.446895 217.7029 
L 255.449852 216.831554 
L 255.789572 215.088862 
L 255.818569 214.217515 
L 256.037323 212.474823 
L 256.422045 211.603477 
L 256.948612 210.73213 
L 256.951458 209.860784 
L 257.546693 208.989438 
L 257.989944 208.118092 
L 258.066971 207.246745 
L 258.306304 206.375399 
L 259.156323 205.504053 
L 259.437819 202.890014 
L 260.009163 202.018668 
L 261.205076 199.404629 
L 261.326737 198.533283 
L 261.892114 197.661937 
L 261.954291 196.79059 
L 262.226669 195.919244 
L 262.227655 195.047898 
L 263.160444 194.176552 
L 263.653545 193.305205 
L 263.883092 192.433859 
L 264.088174 190.691167 
L 264.508758 189.819821 
L 264.632462 188.948474 
L 265.33524 188.077128 
L 266.125109 185.463089 
L 266.365287 181.977704 
L 267.556781 181.106358 
L 267.727493 179.363666 
L 268.094042 178.492319 
L 268.171548 177.620973 
L 268.525757 176.749627 
L 269.217467 175.878281 
L 269.33697 175.006934 
L 269.897361 174.135588 
L 270.206219 171.521549 
L 270.544791 169.778857 
L 270.597254 168.907511 
L 270.826539 168.036164 
L 270.910763 167.164818 
L 271.458923 166.293472 
L 271.602449 165.422126 
L 271.617026 164.550779 
L 272.429925 162.808087 
L 273.061296 161.936741 
L 273.587493 160.194048 
L 274.211479 159.322702 
L 274.237032 158.451356 
L 274.815685 157.580009 
L 275.252532 154.965971 
L 275.698236 154.094624 
L 276.921946 153.223278 
L 277.829191 152.351932 
L 278.291389 150.609239 
L 278.396988 149.737893 
L 278.815149 148.866547 
L 279.290757 146.252508 
L 280.936482 145.381162 
L 281.057182 144.509816 
L 282.317289 143.63847 
L 282.360388 141.895777 
L 282.583829 141.024431 
L 283.329029 140.153085 
L 283.920621 137.539046 
L 284.387845 136.6677 
L 284.497416 135.796353 
L 284.862063 134.925007 
L 284.883683 134.053661 
L 285.761453 133.182315 
L 286.837928 132.310968 
L 286.973111 131.439622 
L 288.450815 130.568276 
L 291.224054 127.082891 
L 291.24118 126.211545 
L 292.959302 125.340198 
L 293.708019 124.468852 
L 293.911138 123.597506 
L 294.867986 122.72616 
L 295.953904 120.983467 
L 296.242385 120.112121 
L 296.255692 119.240775 
L 296.889614 118.369428 
L 296.968155 117.498082 
L 298.719849 116.626736 
L 298.946447 115.75539 
L 302.506572 114.884043 
L 305.164803 114.012697 
L 305.243825 112.270005 
L 305.761224 111.398658 
L 306.103618 110.527312 
L 306.269875 109.655966 
L 307.928864 108.78462 
L 308.594197 107.913274 
L 308.789401 106.170581 
L 308.823844 105.299235 
L 310.180161 103.556542 
L 310.584185 102.685196 
L 310.694122 101.81385 
L 312.737695 100.071157 
L 312.918484 98.328465 
L 313.81526 96.585772 
L 315.154377 94.84308 
L 319.350688 93.971734 
L 320.560961 90.486349 
L 320.876416 88.743656 
L 322.007236 87.87231 
L 323.457316 87.000964 
L 324.589306 86.129617 
L 324.917767 85.258271 
L 326.958452 83.515579 
L 327.483432 82.644232 
L 329.202938 81.772886 
L 329.302466 80.90154 
L 331.279736 80.030194 
L 331.751437 79.158847 
L 332.641769 78.287501 
L 335.121482 77.416155 
L 337.135276 76.544809 
L 338.518649 74.802116 
L 339.425545 73.93077 
L 339.826031 73.059424 
L 341.650092 72.188077 
L 341.675244 71.316731 
L 342.186053 70.445385 
L 343.789848 69.574039 
L 349.149393 68.702692 
L 351.211275 67.831346 
L 355.367328 66.96 
L 355.367328 66.96 
" clip-path="url(#pe7d52228ac)" style="fill: none; stroke-dasharray: 9.6,2.4,1.5,2.4; stroke-dashoffset: 0; stroke: #e7298a; stroke-width: 1.5"/>
   </g>
   <g id="line2d_27">
    <path d="M -1 364.445903 
L 17.897804 364.089069 
L 21.206991 363.217723 
L 32.77099 362.346377 
L 53.06249 361.475031 
L 57.519932 359.732338 
L 63.881386 358.860992 
L 65.605643 357.989646 
L 66.562293 357.118299 
L 74.024044 356.246953 
L 75.747736 355.375607 
L 76.263737 354.504261 
L 77.88086 353.632915 
L 83.804146 352.761568 
L 85.91686 351.890222 
L 85.977421 351.018876 
L 90.042861 350.14753 
L 102.912806 349.276183 
L 103.5155 348.404837 
L 107.126006 346.662145 
L 107.615941 345.790798 
L 111.728273 344.919452 
L 112.266614 344.048106 
L 121.184685 343.17676 
L 127.285721 342.305413 
L 135.093973 341.434067 
L 136.103867 340.562721 
L 137.496558 339.691375 
L 145.727987 338.820028 
L 152.172247 337.948682 
L 156.323732 337.077336 
L 164.568356 336.20599 
L 167.597666 335.334643 
L 168.070749 334.463297 
L 169.349283 333.591951 
L 176.681757 332.720605 
L 177.246004 330.977912 
L 179.648348 330.106566 
L 181.009194 329.23522 
L 183.557375 328.363873 
L 185.231476 327.492527 
L 185.460573 324.878488 
L 186.465518 324.007142 
L 187.195905 323.135796 
L 187.470552 322.26445 
L 189.599212 321.393103 
L 192.777073 320.521757 
L 193.630144 319.650411 
L 193.637324 318.779065 
L 194.567302 317.907718 
L 195.81916 317.036372 
L 196.232101 316.165026 
L 197.970813 315.29368 
L 199.019714 314.422333 
L 199.536536 313.550987 
L 199.694707 311.808295 
L 201.26996 310.065602 
L 202.400167 309.194256 
L 202.942153 308.32291 
L 202.944 307.451564 
L 203.135425 306.580217 
L 203.993553 304.837525 
L 204.011348 303.966179 
L 204.851127 302.223486 
L 204.991665 301.35214 
L 205.465329 300.480794 
L 205.787438 299.609447 
L 205.840741 298.738101 
L 206.052986 297.866755 
L 206.560094 296.995409 
L 208.692987 296.124062 
L 208.88605 293.510024 
L 209.510579 292.638677 
L 209.934769 290.024639 
L 210.118144 289.153292 
L 210.458747 288.281946 
L 211.219756 287.4106 
L 211.372981 286.539254 
L 212.303601 285.667907 
L 212.32444 284.796561 
L 212.681897 283.925215 
L 212.703465 283.053869 
L 212.929752 282.182522 
L 213.001311 281.311176 
L 213.949399 279.568484 
L 214.927579 278.697137 
L 215.145342 276.954445 
L 215.369418 276.083099 
L 215.927188 275.211752 
L 216.071393 274.340406 
L 216.774614 272.597714 
L 217.140385 271.726368 
L 217.314392 270.855021 
L 217.744129 269.983675 
L 218.006948 269.112329 
L 218.08506 268.240983 
L 218.278297 267.369636 
L 218.619308 266.49829 
L 218.816925 264.755598 
L 219.921057 263.884251 
L 220.475311 263.012905 
L 220.56619 262.141559 
L 220.823225 261.270213 
L 220.937401 260.398866 
L 221.188149 259.52752 
L 222.013963 258.656174 
L 222.447722 256.913481 
L 222.889052 256.042135 
L 223.113906 255.170789 
L 223.117621 254.299443 
L 223.398925 253.428096 
L 223.602088 251.685404 
L 224.034194 250.814058 
L 224.283553 249.942711 
L 224.470511 248.200019 
L 225.722367 247.328673 
L 227.397401 243.843288 
L 227.505941 242.971941 
L 227.946254 242.100595 
L 228.071789 241.229249 
L 228.655007 240.357903 
L 229.019119 238.61521 
L 230.149879 236.872518 
L 230.194976 236.001171 
L 230.665742 235.129825 
L 230.759579 233.387133 
L 231.251009 231.64444 
L 231.310571 230.773094 
L 231.767658 229.901748 
L 232.712409 229.030402 
L 233.359546 227.287709 
L 233.379182 226.416363 
L 233.657325 225.545017 
L 233.667454 224.67367 
L 234.061602 223.802324 
L 234.158328 222.930978 
L 234.952952 222.059632 
L 235.503314 221.188285 
L 235.5081 220.316939 
L 235.675401 219.445593 
L 237.17519 217.7029 
L 237.410694 215.960208 
L 237.446694 215.088862 
L 237.869431 214.217515 
L 239.044866 213.346169 
L 239.363499 210.73213 
L 239.376407 209.860784 
L 240.101471 208.989438 
L 240.964617 207.246745 
L 241.112183 205.504053 
L 242.443986 202.890014 
L 243.009477 202.018668 
L 243.161817 201.147322 
L 243.725945 200.275975 
L 243.755498 199.404629 
L 243.981023 198.533283 
L 245.28263 195.919244 
L 246.069203 195.047898 
L 246.109814 194.176552 
L 247.295097 193.305205 
L 247.892871 189.819821 
L 247.942414 188.948474 
L 248.376526 186.334436 
L 249.562633 185.463089 
L 249.958795 184.591743 
L 250.056716 182.849051 
L 250.305863 180.235012 
L 251.487548 179.363666 
L 251.663072 178.492319 
L 252.117562 177.620973 
L 252.208489 175.878281 
L 253.476859 175.006934 
L 254.406643 174.135588 
L 254.48715 173.264242 
L 255.19271 172.392896 
L 255.23332 171.521549 
L 256.188904 170.650203 
L 256.528386 169.778857 
L 256.73356 168.907511 
L 256.798953 168.036164 
L 257.127632 167.164818 
L 257.328076 166.293472 
L 257.662146 165.422126 
L 257.860337 163.679433 
L 259.514639 162.808087 
L 260.379112 161.936741 
L 261.927005 159.322702 
L 262.043482 158.451356 
L 262.487638 157.580009 
L 262.636818 156.708663 
L 263.521367 154.965971 
L 264.122637 154.094624 
L 264.35285 152.351932 
L 265.24139 151.480586 
L 265.254828 150.609239 
L 265.626424 149.737893 
L 266.329806 148.866547 
L 266.566277 147.995201 
L 266.932038 147.123855 
L 266.950671 146.252508 
L 267.185034 145.381162 
L 268.256041 144.509816 
L 268.790318 143.63847 
L 269.040824 142.767123 
L 269.080823 141.024431 
L 270.536329 140.153085 
L 271.512436 137.539046 
L 273.227546 136.6677 
L 273.418237 135.796353 
L 273.826515 134.925007 
L 273.988407 134.053661 
L 275.139179 131.439622 
L 275.985764 130.568276 
L 276.182923 129.69693 
L 276.19612 128.825583 
L 276.782509 127.954237 
L 278.107365 127.082891 
L 279.677992 126.211545 
L 279.718669 125.340198 
L 280.831602 124.468852 
L 280.87987 123.597506 
L 282.145172 120.983467 
L 282.175809 120.112121 
L 282.446782 119.240775 
L 283.303221 118.369428 
L 284.704976 117.498082 
L 285.773027 116.626736 
L 287.431439 114.884043 
L 289.802218 114.012697 
L 290.571339 113.141351 
L 293.476467 112.270005 
L 293.928648 111.398658 
L 294.21432 110.527312 
L 294.31589 109.655966 
L 295.744162 108.78462 
L 296.569439 107.913274 
L 296.874424 107.041927 
L 296.949709 106.170581 
L 297.907536 105.299235 
L 297.928593 104.427889 
L 298.495729 103.556542 
L 300.121616 102.685196 
L 300.767494 101.81385 
L 303.400589 100.942504 
L 304.39795 100.071157 
L 304.634418 99.199811 
L 305.007605 98.328465 
L 305.659831 97.457119 
L 305.686415 96.585772 
L 306.786386 95.714426 
L 307.264077 94.84308 
L 307.445251 93.971734 
L 309.565078 93.100387 
L 309.67727 92.229041 
L 310.542555 91.357695 
L 310.779171 90.486349 
L 311.593122 89.615002 
L 311.989742 87.87231 
L 312.457041 87.000964 
L 316.417433 85.258271 
L 317.436 84.386925 
L 319.050231 83.515579 
L 319.096074 82.644232 
L 322.790828 81.772886 
L 323.818535 80.90154 
L 325.538847 80.030194 
L 326.4275 79.158847 
L 326.432982 78.287501 
L 326.750156 77.416155 
L 327.373544 76.544809 
L 328.497806 75.673462 
L 330.30973 74.802116 
L 333.306729 73.059424 
L 333.520723 72.188077 
L 335.199088 71.316731 
L 337.314478 70.445385 
L 342.419191 68.702692 
L 344.519274 67.831346 
L 349.001662 66.96 
L 349.001662 66.96 
" clip-path="url(#pe7d52228ac)" style="fill: none; stroke-dasharray: 9.6,2.4,1.5,2.4; stroke-dashoffset: 0; stroke: #66a61e; stroke-width: 1.5"/>
   </g>
   <g id="line2d_28">
    <path d="M -1 366.877416 
L 16.167252 366.703108 
L 24.072304 365.831762 
L 44.804105 364.960416 
L 50.414931 364.089069 
L 54.001802 363.217723 
L 62.861882 362.346377 
L 74.82691 360.603684 
L 88.497245 359.732338 
L 113.042309 358.860992 
L 113.327371 357.989646 
L 118.385353 357.118299 
L 127.926003 356.246953 
L 134.865719 355.375607 
L 137.561177 354.504261 
L 138.000858 353.632915 
L 138.011822 352.761568 
L 141.936689 351.018876 
L 159.7575 350.14753 
L 169.321614 349.276183 
L 170.487982 348.404837 
L 172.082255 347.533491 
L 172.888722 346.662145 
L 174.189271 345.790798 
L 176.290433 344.919452 
L 177.1763 344.048106 
L 182.757982 342.305413 
L 183.047663 341.434067 
L 185.678574 340.562721 
L 186.074804 339.691375 
L 193.412106 338.820028 
L 194.442571 337.948682 
L 198.49282 337.077336 
L 199.870675 336.20599 
L 202.28387 335.334643 
L 203.452473 334.463297 
L 204.061803 333.591951 
L 205.140954 332.720605 
L 205.838049 331.849258 
L 209.491052 330.977912 
L 213.685554 329.23522 
L 218.587034 328.363873 
L 218.98373 327.492527 
L 220.028241 326.621181 
L 222.530506 325.749835 
L 222.675037 324.007142 
L 222.859467 323.135796 
L 224.920807 322.26445 
L 225.274705 321.393103 
L 225.868087 320.521757 
L 227.22062 319.650411 
L 227.692593 318.779065 
L 227.87566 317.907718 
L 229.215426 317.036372 
L 231.477885 316.165026 
L 234.239561 313.550987 
L 234.777504 312.679641 
L 235.996865 311.808295 
L 236.178577 310.936949 
L 236.6706 310.065602 
L 237.940713 309.194256 
L 238.439945 308.32291 
L 241.684342 307.451564 
L 242.034164 306.580217 
L 242.094552 305.708871 
L 242.478976 304.837525 
L 242.703658 303.966179 
L 245.526509 301.35214 
L 246.167687 300.480794 
L 246.450496 299.609447 
L 247.236803 298.738101 
L 248.253363 297.866755 
L 248.631924 296.995409 
L 249.22374 296.124062 
L 249.483646 295.252716 
L 250.760201 294.38137 
L 250.969472 293.510024 
L 251.300718 292.638677 
L 251.772621 291.767331 
L 251.976283 290.895985 
L 252.462139 290.024639 
L 253.053417 286.539254 
L 253.932432 285.667907 
L 254.202936 283.925215 
L 254.992105 283.053869 
L 255.651474 281.311176 
L 256.078343 280.43983 
L 256.242523 279.568484 
L 256.656922 278.697137 
L 256.915769 276.954445 
L 257.219891 276.083099 
L 258.320988 274.340406 
L 258.491105 273.46906 
L 259.813119 271.726368 
L 259.899573 270.855021 
L 260.431873 269.983675 
L 260.615204 268.240983 
L 261.270285 267.369636 
L 261.280794 266.49829 
L 261.724611 265.626944 
L 261.882838 264.755598 
L 262.213486 263.884251 
L 263.044779 263.012905 
L 263.193346 262.141559 
L 263.524549 261.270213 
L 263.648901 259.52752 
L 265.144458 258.656174 
L 265.322383 257.784828 
L 266.164205 256.913481 
L 266.536137 253.428096 
L 266.842714 252.55675 
L 267.009633 251.685404 
L 267.3471 250.814058 
L 268.051888 249.942711 
L 268.281833 249.071365 
L 268.941501 248.200019 
L 269.108437 247.328673 
L 269.148732 246.457326 
L 269.492295 245.58598 
L 269.541831 244.714634 
L 269.907077 243.843288 
L 270.049884 242.971941 
L 272.062296 241.229249 
L 272.343023 237.743864 
L 273.040745 236.872518 
L 273.420498 235.129825 
L 273.78623 233.387133 
L 273.8998 230.773094 
L 274.229674 229.901748 
L 274.497859 227.287709 
L 274.512857 226.416363 
L 275.156653 222.930978 
L 275.343716 222.059632 
L 276.795888 221.188285 
L 276.958193 219.445593 
L 277.567855 218.574247 
L 277.7984 216.831554 
L 278.130893 215.088862 
L 278.633101 214.217515 
L 278.812186 212.474823 
L 279.121474 211.603477 
L 279.843717 210.73213 
L 279.940033 209.860784 
L 280.220962 208.989438 
L 280.717484 208.118092 
L 280.750887 207.246745 
L 281.083621 206.375399 
L 281.169273 205.504053 
L 281.526232 204.632707 
L 282.026952 203.76136 
L 282.037581 202.890014 
L 282.566234 202.018668 
L 282.744356 200.275975 
L 283.16797 197.661937 
L 283.199021 196.79059 
L 283.648522 195.919244 
L 283.679259 195.047898 
L 283.856416 194.176552 
L 283.932522 192.433859 
L 284.520933 191.562513 
L 284.719519 188.948474 
L 285.213191 187.205782 
L 285.460525 185.463089 
L 286.293753 183.720397 
L 286.694976 182.849051 
L 286.865832 181.977704 
L 287.450527 181.106358 
L 287.645664 180.235012 
L 287.692051 178.492319 
L 288.359554 175.878281 
L 289.252022 173.264242 
L 289.348403 172.392896 
L 290.138228 171.521549 
L 290.220542 170.650203 
L 290.906841 169.778857 
L 291.227218 168.907511 
L 291.375416 168.036164 
L 292.450306 165.422126 
L 292.461564 164.550779 
L 293.050417 162.808087 
L 293.63639 161.936741 
L 293.756167 159.322702 
L 294.181582 158.451356 
L 294.405862 157.580009 
L 294.914908 156.708663 
L 295.14975 155.837317 
L 295.211427 154.965971 
L 295.55588 154.094624 
L 295.727714 153.223278 
L 296.12231 152.351932 
L 296.708712 151.480586 
L 296.930933 148.866547 
L 297.535583 146.252508 
L 298.150056 145.381162 
L 298.296572 143.63847 
L 298.307452 142.767123 
L 298.57243 141.895777 
L 298.607887 141.024431 
L 298.770665 140.153085 
L 298.816589 139.281738 
L 300.467343 136.6677 
L 300.59907 135.796353 
L 300.943545 134.925007 
L 301.866615 134.053661 
L 302.176975 133.182315 
L 302.211035 132.310968 
L 302.942531 131.439622 
L 303.164976 130.568276 
L 303.898373 129.69693 
L 304.807414 128.825583 
L 305.904351 127.954237 
L 305.948286 127.082891 
L 308.227219 126.211545 
L 308.424646 124.468852 
L 308.452858 123.597506 
L 309.064902 122.72616 
L 309.297218 121.854813 
L 309.498035 120.112121 
L 309.923757 118.369428 
L 309.978233 117.498082 
L 311.5084 115.75539 
L 312.73779 112.270005 
L 313.025652 110.527312 
L 313.614055 109.655966 
L 313.8184 108.78462 
L 313.831158 107.913274 
L 315.276685 107.041927 
L 315.731749 106.170581 
L 316.082554 104.427889 
L 316.433215 103.556542 
L 316.759285 101.81385 
L 316.790157 100.942504 
L 317.012985 100.071157 
L 317.899492 99.199811 
L 318.443506 98.328465 
L 319.312497 97.457119 
L 319.895679 96.585772 
L 322.294856 94.84308 
L 322.808822 93.971734 
L 323.017557 93.100387 
L 323.167127 91.357695 
L 323.366438 90.486349 
L 325.884256 89.615002 
L 325.953905 88.743656 
L 326.274774 87.87231 
L 326.296339 87.000964 
L 327.391943 86.129617 
L 327.456094 85.258271 
L 327.839664 84.386925 
L 329.99341 83.515579 
L 330.357708 82.644232 
L 331.545605 81.772886 
L 332.451796 80.90154 
L 332.793118 80.030194 
L 333.765593 79.158847 
L 334.481586 78.287501 
L 334.685756 77.416155 
L 334.699781 76.544809 
L 334.96559 75.673462 
L 335.937347 74.802116 
L 336.171759 73.93077 
L 336.252403 73.059424 
L 340.075129 72.188077 
L 340.387925 71.316731 
L 343.103937 70.445385 
L 346.749491 69.574039 
L 348.298624 68.702692 
L 348.413753 67.831346 
L 361.128555 66.96 
L 361.128555 66.96 
" clip-path="url(#pe7d52228ac)" style="fill: none; stroke-dasharray: 9.6,2.4,1.5,2.4; stroke-dashoffset: 0; stroke: #e6ab02; stroke-width: 1.5"/>
   </g>
   <g id="line2d_29">
    <path d="M -1 349.604018 
L 3.640074 349.276183 
L 10.80558 348.404837 
L 12.944922 347.533491 
L 24.158007 346.662145 
L 31.161431 345.790798 
L 45.396583 344.919452 
L 52.227527 344.048106 
L 57.57384 342.305413 
L 59.332564 341.434067 
L 65.07788 340.562721 
L 87.075728 339.691375 
L 89.969498 338.820028 
L 92.007841 337.948682 
L 93.289526 337.077336 
L 98.779325 336.20599 
L 102.278997 335.334643 
L 103.12616 334.463297 
L 106.020402 333.591951 
L 106.400878 332.720605 
L 108.986728 331.849258 
L 110.867925 330.977912 
L 111.966604 330.106566 
L 112.359603 329.23522 
L 114.564218 328.363873 
L 115.031045 326.621181 
L 115.781874 325.749835 
L 115.946003 324.878488 
L 117.819514 324.007142 
L 121.167573 323.135796 
L 123.204611 322.26445 
L 123.294785 321.393103 
L 124.341443 320.521757 
L 124.359479 319.650411 
L 126.30764 317.036372 
L 127.066365 316.165026 
L 128.646355 315.29368 
L 128.788302 314.422333 
L 130.901738 313.550987 
L 131.293172 312.679641 
L 131.432252 311.808295 
L 134.644921 310.936949 
L 134.805573 310.065602 
L 135.915515 309.194256 
L 136.462709 308.32291 
L 136.691204 307.451564 
L 136.772545 306.580217 
L 137.675171 304.837525 
L 138.721849 303.966179 
L 139.514263 303.094832 
L 139.656794 301.35214 
L 140.140806 300.480794 
L 141.252547 297.866755 
L 142.0684 296.995409 
L 142.24538 296.124062 
L 142.738819 294.38137 
L 142.949326 293.510024 
L 143.120192 291.767331 
L 143.361977 290.895985 
L 144.933833 290.024639 
L 146.262964 289.153292 
L 146.870839 287.4106 
L 147.437691 286.539254 
L 148.482671 285.667907 
L 148.791728 284.796561 
L 148.860803 283.925215 
L 149.963283 283.053869 
L 152.60891 280.43983 
L 158.453345 279.568484 
L 158.610687 278.697137 
L 158.935324 277.825791 
L 159.346753 276.083099 
L 160.764894 275.211752 
L 161.373571 274.340406 
L 161.66514 273.46906 
L 161.761221 271.726368 
L 162.486218 270.855021 
L 163.379459 269.983675 
L 163.928278 268.240983 
L 164.344211 267.369636 
L 164.367826 266.49829 
L 165.604272 265.626944 
L 166.467098 264.755598 
L 166.731157 263.012905 
L 167.574817 261.270213 
L 167.591916 260.398866 
L 167.815353 259.52752 
L 168.571389 258.656174 
L 168.965847 257.784828 
L 169.055963 256.913481 
L 170.158801 256.042135 
L 170.333797 253.428096 
L 170.84492 252.55675 
L 170.940051 251.685404 
L 171.93743 250.814058 
L 172.483606 249.942711 
L 172.636673 248.200019 
L 172.944727 247.328673 
L 174.108623 246.457326 
L 174.351744 245.58598 
L 176.012894 244.714634 
L 176.952364 242.971941 
L 177.725118 242.100595 
L 179.172595 241.229249 
L 180.258991 240.357903 
L 180.749513 239.486556 
L 180.887694 238.61521 
L 181.67127 237.743864 
L 181.760817 236.872518 
L 182.085424 236.001171 
L 184.31499 234.258479 
L 184.74748 231.64444 
L 185.187887 230.773094 
L 185.3256 229.901748 
L 186.229831 229.030402 
L 186.36291 228.159055 
L 187.022255 227.287709 
L 187.450137 226.416363 
L 188.020611 225.545017 
L 190.454389 224.67367 
L 190.751556 222.930978 
L 190.808496 221.188285 
L 191.68988 220.316939 
L 192.074258 219.445593 
L 194.782928 217.7029 
L 194.939499 216.831554 
L 196.751512 215.960208 
L 197.023869 213.346169 
L 198.477438 212.474823 
L 198.588615 210.73213 
L 199.595832 209.860784 
L 199.635851 208.989438 
L 202.164515 208.118092 
L 202.865417 207.246745 
L 203.253275 206.375399 
L 203.310393 205.504053 
L 203.708798 204.632707 
L 203.869058 203.76136 
L 204.197656 202.890014 
L 204.908713 202.018668 
L 205.073234 201.147322 
L 205.964935 200.275975 
L 206.018957 198.533283 
L 206.739048 197.661937 
L 206.74963 196.79059 
L 207.68239 195.919244 
L 207.798172 195.047898 
L 209.252015 194.176552 
L 209.882379 193.305205 
L 209.975185 192.433859 
L 210.245055 191.562513 
L 210.791674 190.691167 
L 211.403573 188.948474 
L 211.481204 188.077128 
L 212.118412 187.205782 
L 212.562361 186.334436 
L 213.115938 181.977704 
L 213.521993 181.106358 
L 213.542669 180.235012 
L 215.994935 179.363666 
L 216.079619 178.492319 
L 216.489468 177.620973 
L 217.765427 176.749627 
L 218.429803 175.006934 
L 220.425289 174.135588 
L 221.004079 173.264242 
L 221.429513 170.650203 
L 222.107943 169.778857 
L 222.133248 168.907511 
L 222.687428 167.164818 
L 223.368579 166.293472 
L 223.486328 165.422126 
L 224.467164 164.550779 
L 226.046187 163.679433 
L 226.142189 161.936741 
L 226.499429 161.065394 
L 226.521515 160.194048 
L 226.710894 159.322702 
L 227.586261 158.451356 
L 228.846705 157.580009 
L 230.518394 156.708663 
L 230.765476 155.837317 
L 232.305904 154.965971 
L 232.333278 154.094624 
L 233.321399 153.223278 
L 233.373654 152.351932 
L 234.143869 151.480586 
L 234.346823 150.609239 
L 234.721489 149.737893 
L 235.392387 148.866547 
L 235.761227 146.252508 
L 236.077545 144.509816 
L 237.152526 143.63847 
L 237.714749 142.767123 
L 238.01915 141.024431 
L 238.05036 140.153085 
L 238.917777 139.281738 
L 239.172488 137.539046 
L 239.670688 136.6677 
L 241.064484 135.796353 
L 242.74119 134.925007 
L 244.78734 133.182315 
L 245.891057 132.310968 
L 247.556351 131.439622 
L 248.924429 130.568276 
L 249.838482 129.69693 
L 250.300556 128.825583 
L 250.482892 127.954237 
L 251.063035 127.082891 
L 251.145129 126.211545 
L 251.716824 125.340198 
L 251.998637 124.468852 
L 252.136412 123.597506 
L 253.843071 122.72616 
L 254.678282 121.854813 
L 255.793401 120.983467 
L 257.223317 119.240775 
L 258.527575 118.369428 
L 260.622567 117.498082 
L 260.766059 115.75539 
L 261.38232 114.884043 
L 261.624501 114.012697 
L 262.313081 113.141351 
L 263.651491 112.270005 
L 263.850912 111.398658 
L 266.54218 110.527312 
L 266.662456 108.78462 
L 267.075904 107.913274 
L 269.322875 107.041927 
L 269.85598 106.170581 
L 270.343581 104.427889 
L 270.995649 103.556542 
L 271.367808 102.685196 
L 275.483618 101.81385 
L 277.08234 100.942504 
L 277.988009 100.071157 
L 279.441255 99.199811 
L 280.651815 98.328465 
L 282.06087 97.457119 
L 282.424969 96.585772 
L 283.226889 95.714426 
L 284.542311 94.84308 
L 285.104439 93.100387 
L 286.565388 92.229041 
L 288.277014 91.357695 
L 290.345713 90.486349 
L 292.082655 89.615002 
L 294.251819 88.743656 
L 295.769196 87.87231 
L 296.689264 87.000964 
L 303.936058 86.129617 
L 305.69444 85.258271 
L 306.390736 84.386925 
L 309.624597 83.515579 
L 309.805648 82.644232 
L 310.714266 81.772886 
L 313.020835 80.90154 
L 313.720996 80.030194 
L 315.816754 79.158847 
L 315.912936 78.287501 
L 316.486422 77.416155 
L 318.074595 76.544809 
L 318.110221 75.673462 
L 318.579366 73.93077 
L 320.960356 73.059424 
L 322.571963 72.188077 
L 332.130225 71.316731 
L 337.306898 70.445385 
L 341.048021 69.574039 
L 341.337579 68.702692 
L 343.983139 67.831346 
L 357.256185 66.96 
L 357.256185 66.96 
" clip-path="url(#pe7d52228ac)" style="fill: none; stroke-dasharray: 9.6,2.4,1.5,2.4; stroke-dashoffset: 0; stroke: #a6761d; stroke-width: 1.5"/>
   </g>
   <g id="line2d_30">
    <path d="M -1 366.984195 
L 22.284348 366.703108 
L 26.596887 365.831762 
L 43.279725 364.960416 
L 69.693166 364.089069 
L 78.009259 363.217723 
L 82.853024 361.475031 
L 88.458716 360.603684 
L 91.908675 359.732338 
L 101.706122 358.860992 
L 102.902055 357.989646 
L 117.781746 356.246953 
L 119.41671 355.375607 
L 123.953663 354.504261 
L 129.302056 353.632915 
L 131.811806 352.761568 
L 138.04152 351.890222 
L 156.826344 350.14753 
L 157.137599 349.276183 
L 160.975864 348.404837 
L 161.7286 347.533491 
L 165.056418 346.662145 
L 165.958045 345.790798 
L 173.122048 344.919452 
L 175.559099 344.048106 
L 180.31602 343.17676 
L 186.451772 342.305413 
L 188.25048 341.434067 
L 193.424127 339.691375 
L 195.429438 338.820028 
L 195.467341 337.948682 
L 207.075191 336.20599 
L 207.59449 335.334643 
L 209.809994 334.463297 
L 210.176932 333.591951 
L 211.301365 332.720605 
L 212.951959 331.849258 
L 213.554434 330.977912 
L 213.979164 330.106566 
L 216.746386 329.23522 
L 217.768873 328.363873 
L 220.474375 326.621181 
L 223.166465 325.749835 
L 225.285213 324.878488 
L 225.361978 324.007142 
L 226.930826 323.135796 
L 227.176098 322.26445 
L 228.873913 321.393103 
L 229.052594 320.521757 
L 229.618076 318.779065 
L 231.779076 317.907718 
L 231.874225 317.036372 
L 232.178033 316.165026 
L 232.314876 314.422333 
L 233.36883 313.550987 
L 233.70549 312.679641 
L 233.788858 311.808295 
L 234.32748 310.936949 
L 239.09576 310.065602 
L 239.247829 309.194256 
L 239.991304 308.32291 
L 241.9301 307.451564 
L 242.666052 305.708871 
L 242.74487 303.966179 
L 243.41732 302.223486 
L 243.579327 301.35214 
L 245.084991 300.480794 
L 245.582604 299.609447 
L 246.392032 298.738101 
L 246.431464 296.995409 
L 247.439153 295.252716 
L 247.48283 294.38137 
L 248.09904 292.638677 
L 249.748968 290.895985 
L 249.786158 290.024639 
L 250.108822 289.153292 
L 251.006497 288.281946 
L 251.029084 286.539254 
L 252.406149 285.667907 
L 252.489733 284.796561 
L 254.166729 283.925215 
L 254.86064 283.053869 
L 254.925696 281.311176 
L 255.887819 280.43983 
L 256.046775 278.697137 
L 256.20966 276.954445 
L 256.886638 276.083099 
L 257.441207 274.340406 
L 257.815304 272.597714 
L 258.142954 271.726368 
L 258.28832 269.983675 
L 258.885349 269.112329 
L 258.925562 267.369636 
L 259.094283 265.626944 
L 260.842587 264.755598 
L 261.509947 263.884251 
L 261.873376 263.012905 
L 262.077946 262.141559 
L 262.807921 261.270213 
L 262.936063 260.398866 
L 264.05903 259.52752 
L 264.778499 257.784828 
L 264.803667 256.913481 
L 265.432487 256.042135 
L 265.851616 255.170789 
L 265.866895 254.299443 
L 267.313712 253.428096 
L 267.603137 252.55675 
L 267.739699 251.685404 
L 268.781261 249.942711 
L 268.790525 249.071365 
L 268.963131 248.200019 
L 269.742502 247.328673 
L 269.787512 246.457326 
L 270.279486 245.58598 
L 270.297915 244.714634 
L 270.453115 243.843288 
L 270.913855 242.971941 
L 271.057473 242.100595 
L 271.823656 241.229249 
L 271.977749 239.486556 
L 272.134994 238.61521 
L 272.592272 237.743864 
L 272.653085 236.872518 
L 272.899831 236.001171 
L 273.007955 235.129825 
L 273.319892 234.258479 
L 273.974589 233.387133 
L 274.26156 232.515786 
L 274.385482 230.773094 
L 274.735654 229.901748 
L 274.932606 228.159055 
L 274.955479 227.287709 
L 275.816194 226.416363 
L 275.96208 225.545017 
L 276.453066 224.67367 
L 276.709759 222.930978 
L 277.984602 222.059632 
L 278.027222 221.188285 
L 278.587117 220.316939 
L 278.691908 219.445593 
L 279.702082 218.574247 
L 280.042885 217.7029 
L 280.201956 215.960208 
L 281.031176 215.088862 
L 281.46193 214.217515 
L 281.933835 211.603477 
L 282.000061 210.73213 
L 282.743716 209.860784 
L 282.928053 207.246745 
L 283.20837 206.375399 
L 283.280297 204.632707 
L 283.938028 202.890014 
L 284.13119 202.018668 
L 284.182263 200.275975 
L 284.376937 199.404629 
L 284.852915 198.533283 
L 284.923771 197.661937 
L 286.868842 195.047898 
L 287.355527 194.176552 
L 287.416873 193.305205 
L 287.697857 192.433859 
L 287.833652 191.562513 
L 288.560004 190.691167 
L 289.02518 188.948474 
L 289.133695 187.205782 
L 289.591087 186.334436 
L 290.208189 185.463089 
L 290.311772 184.591743 
L 290.882272 183.720397 
L 291.848318 180.235012 
L 292.004064 179.363666 
L 292.298082 178.492319 
L 292.316244 177.620973 
L 292.453168 176.749627 
L 293.120996 175.006934 
L 293.767075 174.135588 
L 294.057509 173.264242 
L 294.190859 170.650203 
L 295.349698 168.907511 
L 296.188628 168.036164 
L 296.563149 164.550779 
L 297.180473 163.679433 
L 297.509238 162.808087 
L 297.979126 161.936741 
L 298.287719 161.065394 
L 298.940898 160.194048 
L 299.188085 159.322702 
L 299.217817 158.451356 
L 300.217093 157.580009 
L 300.698589 155.837317 
L 300.917135 154.965971 
L 301.82058 154.094624 
L 302.105903 150.609239 
L 302.52415 149.737893 
L 302.775278 147.995201 
L 303.15452 147.123855 
L 303.838055 146.252508 
L 304.731871 145.381162 
L 304.970508 144.509816 
L 305.64391 142.767123 
L 305.691105 141.895777 
L 306.75283 140.153085 
L 306.783688 139.281738 
L 307.302559 136.6677 
L 307.670051 135.796353 
L 307.709338 134.925007 
L 308.848532 134.053661 
L 309.72134 133.182315 
L 309.840825 131.439622 
L 310.051037 130.568276 
L 311.206196 129.69693 
L 311.594366 127.954237 
L 312.493423 127.082891 
L 312.580427 126.211545 
L 313.013474 125.340198 
L 313.639855 124.468852 
L 313.709285 123.597506 
L 314.52495 122.72616 
L 314.717332 121.854813 
L 315.577178 120.983467 
L 315.674411 120.112121 
L 316.277466 118.369428 
L 316.31468 116.626736 
L 317.467903 115.75539 
L 317.751225 114.884043 
L 318.534947 114.012697 
L 318.570233 113.141351 
L 319.118758 111.398658 
L 319.154224 110.527312 
L 319.654936 107.041927 
L 319.727268 105.299235 
L 320.785564 104.427889 
L 321.379719 101.81385 
L 322.946884 97.457119 
L 325.933264 96.585772 
L 326.13933 95.714426 
L 327.903159 94.84308 
L 328.218496 93.971734 
L 329.68647 93.100387 
L 330.606651 91.357695 
L 330.926418 90.486349 
L 330.943217 89.615002 
L 333.621192 88.743656 
L 334.122233 87.87231 
L 334.948778 87.000964 
L 335.352504 86.129617 
L 335.558825 85.258271 
L 336.610533 84.386925 
L 336.87368 83.515579 
L 336.921084 82.644232 
L 338.014428 81.772886 
L 338.145424 80.90154 
L 339.341169 80.030194 
L 339.412758 78.287501 
L 339.525149 77.416155 
L 342.060005 76.544809 
L 343.890609 75.673462 
L 344.006535 73.059424 
L 346.339786 71.316731 
L 346.450713 70.445385 
L 349.42723 69.574039 
L 351.42132 68.702692 
L 356.716319 67.831346 
L 357.256473 66.96 
L 357.256473 66.96 
" clip-path="url(#pe7d52228ac)" style="fill: none; stroke-dasharray: 9.6,2.4,1.5,2.4; stroke-dashoffset: 0; stroke: #a6761d; stroke-width: 1.5"/>
   </g>
   <g id="line2d_31">
    <path d="M -1 281.957308 
L 1.161431 281.539726 
L 2.722315 280.711233 
L 7.299917 279.88274 
L 10.5341 279.054247 
L 11.61642 278.225753 
L 19.918588 276.568767 
L 22.29519 275.740274 
L 22.543107 274.911781 
L 24.30097 274.083288 
L 24.732913 273.254795 
L 25.375939 272.426301 
L 30.627496 271.597808 
L 33.124895 269.940822 
L 35.051844 268.283836 
L 35.492694 267.455342 
L 43.746118 266.626849 
L 43.866629 265.798356 
L 47.591327 264.969863 
L 49.168439 264.14137 
L 51.429026 263.312877 
L 51.477487 262.484384 
L 53.776169 261.65589 
L 55.317718 260.827397 
L 55.562925 259.998904 
L 55.641624 259.170411 
L 56.727724 258.341918 
L 59.348988 256.684932 
L 61.3686 255.856438 
L 62.076507 255.027945 
L 64.774104 254.199452 
L 65.415252 253.370959 
L 65.573388 252.542466 
L 68.73239 251.713973 
L 69.451736 250.885479 
L 69.517045 250.056986 
L 71.10082 249.228493 
L 71.655945 248.4 
L 72.888614 247.571507 
L 73.577809 245.914521 
L 74.788676 245.086027 
L 75.626695 244.257534 
L 77.332908 243.429041 
L 77.544621 242.600548 
L 77.87713 241.772055 
L 78.465379 240.943562 
L 78.522793 240.115068 
L 80.769831 238.458082 
L 80.779445 237.629589 
L 82.702941 236.801096 
L 83.056801 234.315616 
L 83.333979 233.487123 
L 83.483535 232.65863 
L 84.753538 231.830137 
L 85.674236 230.173151 
L 88.885637 229.344658 
L 89.743009 228.516164 
L 90.431869 227.687671 
L 91.402946 226.859178 
L 91.556646 226.030685 
L 92.848645 225.202192 
L 93.065305 224.373699 
L 94.41078 223.545205 
L 96.254027 222.716712 
L 96.678097 221.888219 
L 96.735145 221.059726 
L 98.429959 220.231233 
L 99.097122 218.574247 
L 99.757565 216.91726 
L 100.092085 216.088767 
L 103.007236 215.260274 
L 104.352457 212.774795 
L 104.557685 211.946301 
L 104.565578 211.117808 
L 105.985422 209.460822 
L 106.833979 207.803836 
L 107.470904 206.975342 
L 110.184627 205.318356 
L 110.378644 204.489863 
L 111.163105 203.66137 
L 111.709754 202.832877 
L 111.725841 202.004384 
L 112.512366 201.17589 
L 112.617643 200.347397 
L 113.105567 199.518904 
L 117.517168 198.690411 
L 117.667216 197.861918 
L 117.958857 197.033425 
L 118.059857 196.204932 
L 120.250651 195.376438 
L 120.421277 193.719452 
L 120.721382 192.062466 
L 120.881081 191.233973 
L 121.188409 190.405479 
L 121.346249 189.576986 
L 121.404332 187.92 
L 121.918817 187.091507 
L 122.230552 185.434521 
L 122.299577 184.606027 
L 124.374241 183.777534 
L 124.499985 182.949041 
L 126.464376 182.120548 
L 127.314002 181.292055 
L 127.765929 180.463562 
L 127.848939 178.806575 
L 128.049415 177.149589 
L 128.8241 175.492603 
L 128.95045 174.66411 
L 129.751319 173.835616 
L 130.233115 173.007123 
L 130.313892 172.17863 
L 131.282255 171.350137 
L 132.778465 168.864658 
L 132.864457 168.036164 
L 133.674235 166.379178 
L 134.888866 165.550685 
L 135.93593 163.893699 
L 136.141702 163.065205 
L 136.211453 162.236712 
L 137.743023 161.408219 
L 138.02595 160.579726 
L 141.713932 159.751233 
L 141.798434 158.92274 
L 142.047136 158.094247 
L 143.755264 157.265753 
L 144.244465 156.43726 
L 144.446897 155.608767 
L 144.826668 154.780274 
L 144.904465 153.951781 
L 146.247956 153.123288 
L 147.059475 152.294795 
L 147.186152 151.466301 
L 147.601018 150.637808 
L 148.964611 149.809315 
L 149.499461 148.980822 
L 149.724561 148.152329 
L 150.224154 147.323836 
L 150.312074 146.495342 
L 151.02789 145.666849 
L 151.295654 144.838356 
L 151.829586 144.009863 
L 153.237505 143.18137 
L 153.527013 142.352877 
L 153.576012 141.524384 
L 154.496163 140.69589 
L 154.507273 139.867397 
L 159.153674 139.038904 
L 160.545525 138.210411 
L 161.120847 137.381918 
L 161.309045 135.724932 
L 161.816052 134.896438 
L 162.146264 134.067945 
L 162.597018 133.239452 
L 163.188114 132.410959 
L 163.458726 131.582466 
L 164.161938 130.753973 
L 164.179249 129.925479 
L 165.869372 129.096986 
L 166.620622 128.268493 
L 166.839239 127.44 
L 168.105161 126.611507 
L 168.617368 125.783014 
L 171.116503 123.297534 
L 171.523182 122.469041 
L 171.768859 121.640548 
L 174.510033 120.812055 
L 174.727771 119.983562 
L 177.222663 119.155068 
L 178.323099 118.326575 
L 182.964379 117.498082 
L 183.90859 116.669589 
L 184.496595 115.841096 
L 185.723482 115.012603 
L 186.317526 113.355616 
L 187.320625 112.527123 
L 187.522344 111.69863 
L 190.821193 110.870137 
L 191.567762 110.041644 
L 196.87895 109.213151 
L 200.876344 108.384658 
L 203.870029 107.556164 
L 206.195713 106.727671 
L 207.123292 105.899178 
L 208.238006 105.070685 
L 210.230469 104.242192 
L 211.531815 103.413699 
L 212.521149 102.585205 
L 213.194076 101.756712 
L 213.483943 100.928219 
L 214.797301 100.099726 
L 215.50523 99.271233 
L 217.154073 98.44274 
L 224.026225 97.614247 
L 225.259562 96.785753 
L 227.241144 95.95726 
L 231.110151 95.128767 
L 231.197563 94.300274 
L 239.626048 93.471781 
L 242.490034 92.643288 
L 245.392643 90.986301 
L 255.988172 90.157808 
L 257.963943 89.329315 
L 262.598921 88.500822 
L 263.237529 87.672329 
L 264.09941 86.843836 
L 266.765144 86.015342 
L 267.290885 85.186849 
L 268.602816 84.358356 
L 279.760869 81.872877 
L 280.824386 81.044384 
L 282.633357 80.21589 
L 289.237444 79.387397 
L 293.465402 78.558904 
L 293.825581 77.730411 
L 294.787629 76.901918 
L 296.588636 76.073425 
L 309.136107 75.244932 
L 315.488773 74.416438 
L 316.670858 73.587945 
L 319.95457 72.759452 
L 320.278881 71.930959 
L 334.459911 71.102466 
L 337.398621 70.273973 
L 345.151677 69.445479 
L 348.600226 68.616986 
L 351.193777 67.788493 
L 351.789769 66.96 
L 351.789769 66.96 
" clip-path="url(#pe7d52228ac)" style="fill: none; stroke: #000000; stroke-width: 1.5; stroke-linecap: square"/>
   </g>
   <g id="patch_3">
    <path d="M 54 384.48 
L 54 51.84 
" style="fill: none; stroke: #000000; stroke-width: 0.8; stroke-linejoin: miter; stroke-linecap: square"/>
   </g>
   <g id="patch_4">
    <path d="M 388.8 384.48 
L 388.8 51.84 
" style="fill: none; stroke: #000000; stroke-width: 0.8; stroke-linejoin: miter; stroke-linecap: square"/>
   </g>
   <g id="patch_5">
    <path d="M 54 384.48 
L 388.8 384.48 
" style="fill: none; stroke: #000000; stroke-width: 0.8; stroke-linejoin: miter; stroke-linecap: square"/>
   </g>
   <g id="patch_6">
    <path d="M 54 51.84 
L 388.8 51.84 
" style="fill: none; stroke: #000000; stroke-width: 0.8; stroke-linejoin: miter; stroke-linecap: square"/>
   </g>
   <g id="legend_1">
    <g id="patch_7">
     <path d="M 98.053125 378.48 
L 380.4 378.48 
Q 382.8 378.48 382.8 376.08 
L 382.8 253.98375 
Q 382.8 251.58375 380.4 251.58375 
L 98.053125 251.58375 
Q 95.653125 251.58375 95.653125 253.98375 
L 95.653125 376.08 
Q 95.653125 378.48 98.053125 378.48 
z
" style="fill: #ffffff; opacity: 0.8; stroke: #cccccc; stroke-linejoin: miter"/>
    </g>
    <g id="line2d_32">
     <path d="M 100.453125 261.301875 
L 112.453125 261.301875 
L 124.453125 261.301875 
" style="fill: none; stroke: #1b9e77; stroke-width: 1.5; stroke-linecap: square"/>
    </g>
    <g id="text_15">
     <!-- EA-LSTM NSE ensemble (n=8) -->
     <g transform="translate(134.053125 265.501875) scale(0.12 -0.12)">
      <defs>
       <path id="DejaVuSans-41" d="M 2188 4044 
L 1331 1722 
L 3047 1722 
L 2188 4044 
z
M 1831 4666 
L 2547 4666 
L 4325 0 
L 3669 0 
L 3244 1197 
L 1141 1197 
L 716 0 
L 50 0 
L 1831 4666 
z
" transform="scale(0.015625)"/>
       <path id="DejaVuSans-4c" d="M 628 4666 
L 1259 4666 
L 1259 531 
L 3531 531 
L 3531 0 
L 628 0 
L 628 4666 
z
" transform="scale(0.015625)"/>
       <path id="DejaVuSans-54" d="M -19 4666 
L 3928 4666 
L 3928 4134 
L 2272 4134 
L 2272 0 
L 1638 0 
L 1638 4134 
L -19 4134 
L -19 4666 
z
" transform="scale(0.015625)"/>
       <path id="DejaVuSans-4d" d="M 628 4666 
L 1569 4666 
L 2759 1491 
L 3956 4666 
L 4897 4666 
L 4897 0 
L 4281 0 
L 4281 4097 
L 3078 897 
L 2444 897 
L 1241 4097 
L 1241 0 
L 628 0 
L 628 4666 
z
" transform="scale(0.015625)"/>
       <path id="DejaVuSans-62" d="M 3116 1747 
Q 3116 2381 2855 2742 
Q 2594 3103 2138 3103 
Q 1681 3103 1420 2742 
Q 1159 2381 1159 1747 
Q 1159 1113 1420 752 
Q 1681 391 2138 391 
Q 2594 391 2855 752 
Q 3116 1113 3116 1747 
z
M 1159 2969 
Q 1341 3281 1617 3432 
Q 1894 3584 2278 3584 
Q 2916 3584 3314 3078 
Q 3713 2572 3713 1747 
Q 3713 922 3314 415 
Q 2916 -91 2278 -91 
Q 1894 -91 1617 61 
Q 1341 213 1159 525 
L 1159 0 
L 581 0 
L 581 4863 
L 1159 4863 
L 1159 2969 
z
" transform="scale(0.015625)"/>
       <path id="DejaVuSans-28" d="M 1984 4856 
Q 1566 4138 1362 3434 
Q 1159 2731 1159 2009 
Q 1159 1288 1364 580 
Q 1569 -128 1984 -844 
L 1484 -844 
Q 1016 -109 783 600 
Q 550 1309 550 2009 
Q 550 2706 781 3412 
Q 1013 4119 1484 4856 
L 1984 4856 
z
" transform="scale(0.015625)"/>
       <path id="DejaVuSans-3d" d="M 678 2906 
L 4684 2906 
L 4684 2381 
L 678 2381 
L 678 2906 
z
M 678 1631 
L 4684 1631 
L 4684 1100 
L 678 1100 
L 678 1631 
z
" transform="scale(0.015625)"/>
       <path id="DejaVuSans-29" d="M 513 4856 
L 1013 4856 
Q 1481 4119 1714 3412 
Q 1947 2706 1947 2009 
Q 1947 1309 1714 600 
Q 1481 -109 1013 -844 
L 513 -844 
Q 928 -128 1133 580 
Q 1338 1288 1338 2009 
Q 1338 2731 1133 3434 
Q 928 4138 513 4856 
z
" transform="scale(0.015625)"/>
      </defs>
      <use xlink:href="#DejaVuSans-45"/>
      <use xlink:href="#DejaVuSans-41" x="63.183594"/>
      <use xlink:href="#DejaVuSans-2d" x="129.341797"/>
      <use xlink:href="#DejaVuSans-4c" x="165.425781"/>
      <use xlink:href="#DejaVuSans-53" x="221.138672"/>
      <use xlink:href="#DejaVuSans-54" x="284.615234"/>
      <use xlink:href="#DejaVuSans-4d" x="345.699219"/>
      <use xlink:href="#DejaVuSans-20" x="431.978516"/>
      <use xlink:href="#DejaVuSans-4e" x="463.765625"/>
      <use xlink:href="#DejaVuSans-53" x="538.570312"/>
      <use xlink:href="#DejaVuSans-45" x="602.046875"/>
      <use xlink:href="#DejaVuSans-20" x="665.230469"/>
      <use xlink:href="#DejaVuSans-65" x="697.017578"/>
      <use xlink:href="#DejaVuSans-6e" x="758.541016"/>
      <use xlink:href="#DejaVuSans-73" x="821.919922"/>
      <use xlink:href="#DejaVuSans-65" x="874.019531"/>
      <use xlink:href="#DejaVuSans-6d" x="935.542969"/>
      <use xlink:href="#DejaVuSans-62" x="1032.955078"/>
      <use xlink:href="#DejaVuSans-6c" x="1096.431641"/>
      <use xlink:href="#DejaVuSans-65" x="1124.214844"/>
      <use xlink:href="#DejaVuSans-20" x="1185.738281"/>
      <use xlink:href="#DejaVuSans-28" x="1217.525391"/>
      <use xlink:href="#DejaVuSans-6e" x="1256.539062"/>
      <use xlink:href="#DejaVuSans-3d" x="1319.917969"/>
      <use xlink:href="#DejaVuSans-38" x="1403.707031"/>
      <use xlink:href="#DejaVuSans-29" x="1467.330078"/>
     </g>
    </g>
    <g id="line2d_33">
     <path d="M 100.453125 278.915625 
L 112.453125 278.915625 
L 124.453125 278.915625 
" style="fill: none; stroke-dasharray: 9.6,2.4,1.5,2.4; stroke-dashoffset: 0; stroke: #e7298a; stroke-width: 1.5"/>
    </g>
    <g id="text_16">
     <!-- SAC-SMA -->
     <g transform="translate(134.053125 283.115625) scale(0.12 -0.12)">
      <use xlink:href="#DejaVuSans-53"/>
      <use xlink:href="#DejaVuSans-41" x="65.351562"/>
      <use xlink:href="#DejaVuSans-43" x="132.009766"/>
      <use xlink:href="#DejaVuSans-2d" x="201.833984"/>
      <use xlink:href="#DejaVuSans-53" x="237.917969"/>
      <use xlink:href="#DejaVuSans-4d" x="301.394531"/>
      <use xlink:href="#DejaVuSans-41" x="387.673828"/>
     </g>
    </g>
    <g id="line2d_34">
     <path d="M 100.453125 296.529375 
L 112.453125 296.529375 
L 124.453125 296.529375 
" style="fill: none; stroke-dasharray: 9.6,2.4,1.5,2.4; stroke-dashoffset: 0; stroke: #66a61e; stroke-width: 1.5"/>
    </g>
    <g id="text_17">
     <!-- VIC (basin-wise calibrated) -->
     <g transform="translate(134.053125 300.729375) scale(0.12 -0.12)">
      <defs>
       <path id="DejaVuSans-56" d="M 1831 0 
L 50 4666 
L 709 4666 
L 2188 738 
L 3669 4666 
L 4325 4666 
L 2547 0 
L 1831 0 
z
" transform="scale(0.015625)"/>
       <path id="DejaVuSans-49" d="M 628 4666 
L 1259 4666 
L 1259 0 
L 628 0 
L 628 4666 
z
" transform="scale(0.015625)"/>
       <path id="DejaVuSans-77" d="M 269 3500 
L 844 3500 
L 1563 769 
L 2278 3500 
L 2956 3500 
L 3675 769 
L 4391 3500 
L 4966 3500 
L 4050 0 
L 3372 0 
L 2619 2869 
L 1863 0 
L 1184 0 
L 269 3500 
z
" transform="scale(0.015625)"/>
       <path id="DejaVuSans-72" d="M 2631 2963 
Q 2534 3019 2420 3045 
Q 2306 3072 2169 3072 
Q 1681 3072 1420 2755 
Q 1159 2438 1159 1844 
L 1159 0 
L 581 0 
L 581 3500 
L 1159 3500 
L 1159 2956 
Q 1341 3275 1631 3429 
Q 1922 3584 2338 3584 
Q 2397 3584 2469 3576 
Q 2541 3569 2628 3553 
L 2631 2963 
z
" transform="scale(0.015625)"/>
       <path id="DejaVuSans-64" d="M 2906 2969 
L 2906 4863 
L 3481 4863 
L 3481 0 
L 2906 0 
L 2906 525 
Q 2725 213 2448 61 
Q 2172 -91 1784 -91 
Q 1150 -91 751 415 
Q 353 922 353 1747 
Q 353 2572 751 3078 
Q 1150 3584 1784 3584 
Q 2172 3584 2448 3432 
Q 2725 3281 2906 2969 
z
M 947 1747 
Q 947 1113 1208 752 
Q 1469 391 1925 391 
Q 2381 391 2643 752 
Q 2906 1113 2906 1747 
Q 2906 2381 2643 2742 
Q 2381 3103 1925 3103 
Q 1469 3103 1208 2742 
Q 947 2381 947 1747 
z
" transform="scale(0.015625)"/>
      </defs>
      <use xlink:href="#DejaVuSans-56"/>
      <use xlink:href="#DejaVuSans-49" x="68.408203"/>
      <use xlink:href="#DejaVuSans-43" x="97.900391"/>
      <use xlink:href="#DejaVuSans-20" x="167.724609"/>
      <use xlink:href="#DejaVuSans-28" x="199.511719"/>
      <use xlink:href="#DejaVuSans-62" x="238.525391"/>
      <use xlink:href="#DejaVuSans-61" x="302.001953"/>
      <use xlink:href="#DejaVuSans-73" x="363.28125"/>
      <use xlink:href="#DejaVuSans-69" x="415.380859"/>
      <use xlink:href="#DejaVuSans-6e" x="443.164062"/>
      <use xlink:href="#DejaVuSans-2d" x="506.542969"/>
      <use xlink:href="#DejaVuSans-77" x="542.626953"/>
      <use xlink:href="#DejaVuSans-69" x="624.414062"/>
      <use xlink:href="#DejaVuSans-73" x="652.197266"/>
      <use xlink:href="#DejaVuSans-65" x="704.296875"/>
      <use xlink:href="#DejaVuSans-20" x="765.820312"/>
      <use xlink:href="#DejaVuSans-63" x="797.607422"/>
      <use xlink:href="#DejaVuSans-61" x="852.587891"/>
      <use xlink:href="#DejaVuSans-6c" x="913.867188"/>
      <use xlink:href="#DejaVuSans-69" x="941.650391"/>
      <use xlink:href="#DejaVuSans-62" x="969.433594"/>
      <use xlink:href="#DejaVuSans-72" x="1032.910156"/>
      <use xlink:href="#DejaVuSans-61" x="1074.023438"/>
      <use xlink:href="#DejaVuSans-74" x="1135.302734"/>
      <use xlink:href="#DejaVuSans-65" x="1174.511719"/>
      <use xlink:href="#DejaVuSans-64" x="1236.035156"/>
      <use xlink:href="#DejaVuSans-29" x="1299.511719"/>
     </g>
    </g>
    <g id="line2d_35">
     <path d="M 100.453125 314.143125 
L 112.453125 314.143125 
L 124.453125 314.143125 
" style="fill: none; stroke-dasharray: 9.6,2.4,1.5,2.4; stroke-dashoffset: 0; stroke: #e6ab02; stroke-width: 1.5"/>
    </g>
    <g id="text_18">
     <!-- mHm (basin-wise calibrated) -->
     <g transform="translate(134.053125 318.343125) scale(0.12 -0.12)">
      <defs>
       <path id="DejaVuSans-48" d="M 628 4666 
L 1259 4666 
L 1259 2753 
L 3553 2753 
L 3553 4666 
L 4184 4666 
L 4184 0 
L 3553 0 
L 3553 2222 
L 1259 2222 
L 1259 0 
L 628 0 
L 628 4666 
z
" transform="scale(0.015625)"/>
      </defs>
      <use xlink:href="#DejaVuSans-6d"/>
      <use xlink:href="#DejaVuSans-48" x="97.412109"/>
      <use xlink:href="#DejaVuSans-6d" x="172.607422"/>
      <use xlink:href="#DejaVuSans-20" x="270.019531"/>
      <use xlink:href="#DejaVuSans-28" x="301.806641"/>
      <use xlink:href="#DejaVuSans-62" x="340.820312"/>
      <use xlink:href="#DejaVuSans-61" x="404.296875"/>
      <use xlink:href="#DejaVuSans-73" x="465.576172"/>
      <use xlink:href="#DejaVuSans-69" x="517.675781"/>
      <use xlink:href="#DejaVuSans-6e" x="545.458984"/>
      <use xlink:href="#DejaVuSans-2d" x="608.837891"/>
      <use xlink:href="#DejaVuSans-77" x="644.921875"/>
      <use xlink:href="#DejaVuSans-69" x="726.708984"/>
      <use xlink:href="#DejaVuSans-73" x="754.492188"/>
      <use xlink:href="#DejaVuSans-65" x="806.591797"/>
      <use xlink:href="#DejaVuSans-20" x="868.115234"/>
      <use xlink:href="#DejaVuSans-63" x="899.902344"/>
      <use xlink:href="#DejaVuSans-61" x="954.882812"/>
      <use xlink:href="#DejaVuSans-6c" x="1016.162109"/>
      <use xlink:href="#DejaVuSans-69" x="1043.945312"/>
      <use xlink:href="#DejaVuSans-62" x="1071.728516"/>
      <use xlink:href="#DejaVuSans-72" x="1135.205078"/>
      <use xlink:href="#DejaVuSans-61" x="1176.318359"/>
      <use xlink:href="#DejaVuSans-74" x="1237.597656"/>
      <use xlink:href="#DejaVuSans-65" x="1276.806641"/>
      <use xlink:href="#DejaVuSans-64" x="1338.330078"/>
      <use xlink:href="#DejaVuSans-29" x="1401.806641"/>
     </g>
    </g>
    <g id="line2d_36">
     <path d="M 100.453125 331.756875 
L 112.453125 331.756875 
L 124.453125 331.756875 
" style="fill: none; stroke-dasharray: 9.6,2.4,1.5,2.4; stroke-dashoffset: 0; stroke: #a6761d; stroke-width: 1.5"/>
    </g>
    <g id="text_19">
     <!-- HBV lower bound (n=1000 uncalibrated) -->
     <g transform="translate(134.053125 335.956875) scale(0.12 -0.12)">
      <defs>
       <path id="DejaVuSans-42" d="M 1259 2228 
L 1259 519 
L 2272 519 
Q 2781 519 3026 730 
Q 3272 941 3272 1375 
Q 3272 1813 3026 2020 
Q 2781 2228 2272 2228 
L 1259 2228 
z
M 1259 4147 
L 1259 2741 
L 2194 2741 
Q 2656 2741 2882 2914 
Q 3109 3088 3109 3444 
Q 3109 3797 2882 3972 
Q 2656 4147 2194 4147 
L 1259 4147 
z
M 628 4666 
L 2241 4666 
Q 2963 4666 3353 4366 
Q 3744 4066 3744 3513 
Q 3744 3084 3544 2831 
Q 3344 2578 2956 2516 
Q 3422 2416 3680 2098 
Q 3938 1781 3938 1306 
Q 3938 681 3513 340 
Q 3088 0 2303 0 
L 628 0 
L 628 4666 
z
" transform="scale(0.015625)"/>
       <path id="DejaVuSans-6f" d="M 1959 3097 
Q 1497 3097 1228 2736 
Q 959 2375 959 1747 
Q 959 1119 1226 758 
Q 1494 397 1959 397 
Q 2419 397 2687 759 
Q 2956 1122 2956 1747 
Q 2956 2369 2687 2733 
Q 2419 3097 1959 3097 
z
M 1959 3584 
Q 2709 3584 3137 3096 
Q 3566 2609 3566 1747 
Q 3566 888 3137 398 
Q 2709 -91 1959 -91 
Q 1206 -91 779 398 
Q 353 888 353 1747 
Q 353 2609 779 3096 
Q 1206 3584 1959 3584 
z
" transform="scale(0.015625)"/>
      </defs>
      <use xlink:href="#DejaVuSans-48"/>
      <use xlink:href="#DejaVuSans-42" x="75.195312"/>
      <use xlink:href="#DejaVuSans-56" x="140.673828"/>
      <use xlink:href="#DejaVuSans-20" x="209.082031"/>
      <use xlink:href="#DejaVuSans-6c" x="240.869141"/>
      <use xlink:href="#DejaVuSans-6f" x="268.652344"/>
      <use xlink:href="#DejaVuSans-77" x="329.833984"/>
      <use xlink:href="#DejaVuSans-65" x="411.621094"/>
      <use xlink:href="#DejaVuSans-72" x="473.144531"/>
      <use xlink:href="#DejaVuSans-20" x="514.257812"/>
      <use xlink:href="#DejaVuSans-62" x="546.044922"/>
      <use xlink:href="#DejaVuSans-6f" x="609.521484"/>
      <use xlink:href="#DejaVuSans-75" x="670.703125"/>
      <use xlink:href="#DejaVuSans-6e" x="734.082031"/>
      <use xlink:href="#DejaVuSans-64" x="797.460938"/>
      <use xlink:href="#DejaVuSans-20" x="860.9375"/>
      <use xlink:href="#DejaVuSans-28" x="892.724609"/>
      <use xlink:href="#DejaVuSans-6e" x="931.738281"/>
      <use xlink:href="#DejaVuSans-3d" x="995.117188"/>
      <use xlink:href="#DejaVuSans-31" x="1078.90625"/>
      <use xlink:href="#DejaVuSans-30" x="1142.529297"/>
      <use xlink:href="#DejaVuSans-30" x="1206.152344"/>
      <use xlink:href="#DejaVuSans-30" x="1269.775391"/>
      <use xlink:href="#DejaVuSans-20" x="1333.398438"/>
      <use xlink:href="#DejaVuSans-75" x="1365.185547"/>
      <use xlink:href="#DejaVuSans-6e" x="1428.564453"/>
      <use xlink:href="#DejaVuSans-63" x="1491.943359"/>
      <use xlink:href="#DejaVuSans-61" x="1546.923828"/>
      <use xlink:href="#DejaVuSans-6c" x="1608.203125"/>
      <use xlink:href="#DejaVuSans-69" x="1635.986328"/>
      <use xlink:href="#DejaVuSans-62" x="1663.769531"/>
      <use xlink:href="#DejaVuSans-72" x="1727.246094"/>
      <use xlink:href="#DejaVuSans-61" x="1768.359375"/>
      <use xlink:href="#DejaVuSans-74" x="1829.638672"/>
      <use xlink:href="#DejaVuSans-65" x="1868.847656"/>
      <use xlink:href="#DejaVuSans-64" x="1930.371094"/>
      <use xlink:href="#DejaVuSans-29" x="1993.847656"/>
     </g>
    </g>
    <g id="line2d_37">
     <path d="M 100.453125 349.370625 
L 112.453125 349.370625 
L 124.453125 349.370625 
" style="fill: none; stroke-dasharray: 9.6,2.4,1.5,2.4; stroke-dashoffset: 0; stroke: #a6761d; stroke-width: 1.5"/>
    </g>
    <g id="text_20">
     <!-- HBV upper bound (n=100 calibrated) -->
     <g transform="translate(134.053125 353.570625) scale(0.12 -0.12)">
      <defs>
       <path id="DejaVuSans-70" d="M 1159 525 
L 1159 -1331 
L 581 -1331 
L 581 3500 
L 1159 3500 
L 1159 2969 
Q 1341 3281 1617 3432 
Q 1894 3584 2278 3584 
Q 2916 3584 3314 3078 
Q 3713 2572 3713 1747 
Q 3713 922 3314 415 
Q 2916 -91 2278 -91 
Q 1894 -91 1617 61 
Q 1341 213 1159 525 
z
M 3116 1747 
Q 3116 2381 2855 2742 
Q 2594 3103 2138 3103 
Q 1681 3103 1420 2742 
Q 1159 2381 1159 1747 
Q 1159 1113 1420 752 
Q 1681 391 2138 391 
Q 2594 391 2855 752 
Q 3116 1113 3116 1747 
z
" transform="scale(0.015625)"/>
      </defs>
      <use xlink:href="#DejaVuSans-48"/>
      <use xlink:href="#DejaVuSans-42" x="75.195312"/>
      <use xlink:href="#DejaVuSans-56" x="140.673828"/>
      <use xlink:href="#DejaVuSans-20" x="209.082031"/>
      <use xlink:href="#DejaVuSans-75" x="240.869141"/>
      <use xlink:href="#DejaVuSans-70" x="304.248047"/>
      <use xlink:href="#DejaVuSans-70" x="367.724609"/>
      <use xlink:href="#DejaVuSans-65" x="431.201172"/>
      <use xlink:href="#DejaVuSans-72" x="492.724609"/>
      <use xlink:href="#DejaVuSans-20" x="533.837891"/>
      <use xlink:href="#DejaVuSans-62" x="565.625"/>
      <use xlink:href="#DejaVuSans-6f" x="629.101562"/>
      <use xlink:href="#DejaVuSans-75" x="690.283203"/>
      <use xlink:href="#DejaVuSans-6e" x="753.662109"/>
      <use xlink:href="#DejaVuSans-64" x="817.041016"/>
      <use xlink:href="#DejaVuSans-20" x="880.517578"/>
      <use xlink:href="#DejaVuSans-28" x="912.304688"/>
      <use xlink:href="#DejaVuSans-6e" x="951.318359"/>
      <use xlink:href="#DejaVuSans-3d" x="1014.697266"/>
      <use xlink:href="#DejaVuSans-31" x="1098.486328"/>
      <use xlink:href="#DejaVuSans-30" x="1162.109375"/>
      <use xlink:href="#DejaVuSans-30" x="1225.732422"/>
      <use xlink:href="#DejaVuSans-20" x="1289.355469"/>
      <use xlink:href="#DejaVuSans-63" x="1321.142578"/>
      <use xlink:href="#DejaVuSans-61" x="1376.123047"/>
      <use xlink:href="#DejaVuSans-6c" x="1437.402344"/>
      <use xlink:href="#DejaVuSans-69" x="1465.185547"/>
      <use xlink:href="#DejaVuSans-62" x="1492.96875"/>
      <use xlink:href="#DejaVuSans-72" x="1556.445312"/>
      <use xlink:href="#DejaVuSans-61" x="1597.558594"/>
      <use xlink:href="#DejaVuSans-74" x="1658.837891"/>
      <use xlink:href="#DejaVuSans-65" x="1698.046875"/>
      <use xlink:href="#DejaVuSans-64" x="1759.570312"/>
      <use xlink:href="#DejaVuSans-29" x="1823.046875"/>
     </g>
    </g>
    <g id="line2d_38">
     <path d="M 100.453125 366.984375 
L 112.453125 366.984375 
L 124.453125 366.984375 
" style="fill: none; stroke: #000000; stroke-width: 1.5; stroke-linecap: square"/>
    </g>
    <g id="text_21">
     <!-- modpods -->
     <g transform="translate(134.053125 371.184375) scale(0.12 -0.12)">
      <use xlink:href="#DejaVuSans-6d"/>
      <use xlink:href="#DejaVuSans-6f" x="97.412109"/>
      <use xlink:href="#DejaVuSans-64" x="158.59375"/>
      <use xlink:href="#DejaVuSans-70" x="222.070312"/>
      <use xlink:href="#DejaVuSans-6f" x="285.546875"/>
      <use xlink:href="#DejaVuSans-64" x="346.728516"/>
      <use xlink:href="#DejaVuSans-73" x="410.205078"/>
     </g>
    </g>
   </g>
  </g>
 </g>
 <defs>
  <clipPath id="pe7d52228ac">
   <rect x="54" y="51.84" width="334.8" height="332.64"/>
  </clipPath>
 </defs>
</svg>
