<?xml version="1.0" encoding="utf-8" standalone="no"?>
<!DOCTYPE svg PUBLIC "-//W3C//DTD SVG 1.1//EN"
  "http://www.w3.org/Graphics/SVG/1.1/DTD/svg11.dtd">
<svg xmlns:xlink="http://www.w3.org/1999/xlink" width="709.336136pt" height="708.798125pt" viewBox="0 0 709.336136 708.798125" xmlns="http://www.w3.org/2000/svg" version="1.1">
 <metadata>
  <rdf:RDF xmlns:dc="http://purl.org/dc/elements/1.1/" xmlns:cc="http://creativecommons.org/ns#" xmlns:rdf="http://www.w3.org/1999/02/22-rdf-syntax-ns#">
   <cc:Work>
    <dc:type rdf:resource="http://purl.org/dc/dcmitype/StillImage"/>
    <dc:date>2023-06-12T15:04:42.109485</dc:date>
    <dc:format>image/svg+xml</dc:format>
    <dc:creator>
     <cc:Agent>
      <dc:title>Matplotlib v3.7.1, https://matplotlib.org/</dc:title>
     </cc:Agent>
    </dc:creator>
   </cc:Work>
  </rdf:RDF>
 </metadata>
 <defs>
  <style type="text/css">*{stroke-linejoin: round; stroke-linecap: butt}</style>
 </defs>
 <g id="figure_1">
  <g id="patch_1">
   <path d="M 0 708.798125 
L 709.336136 708.798125 
L 709.336136 0 
L 0 0 
z
" style="fill: #ffffff"/>
  </g>
  <g id="axes_1">
   <g id="patch_2">
    <path d="M 20.5625 342.2 
L 702.136136 342.2 
L 702.136136 43.44 
L 20.5625 43.44 
z
" style="fill: #ffffff"/>
   </g>
   <g id="matplotlib.axis_1">
    <g id="xtick_1">
     <g id="line2d_1">
      <defs>
       <path id="m6f1d1425fb" d="M 0 0 
L 0 3.5 
" style="stroke: #000000; stroke-width: 0.8"/>
      </defs>
      <g>
       <use xlink:href="#m6f1d1425fb" x="51.370957" y="342.2" style="stroke: #000000; stroke-width: 0.8"/>
      </g>
     </g>
     <g id="text_1">
      <!-- 2014-07-01 -->
      <g transform="translate(22.313145 356.798437) scale(0.1 -0.1)">
       <defs>
        <path id="DejaVuSans-32" d="M 1228 531 
L 3431 531 
L 3431 0 
L 469 0 
L 469 531 
Q 828 903 1448 1529 
Q 2069 2156 2228 2338 
Q 2531 2678 2651 2914 
Q 2772 3150 2772 3378 
Q 2772 3750 2511 3984 
Q 2250 4219 1831 4219 
Q 1534 4219 1204 4116 
Q 875 4013 500 3803 
L 500 4441 
Q 881 4594 1212 4672 
Q 1544 4750 1819 4750 
Q 2544 4750 2975 4387 
Q 3406 4025 3406 3419 
Q 3406 3131 3298 2873 
Q 3191 2616 2906 2266 
Q 2828 2175 2409 1742 
Q 1991 1309 1228 531 
z
" transform="scale(0.015625)"/>
        <path id="DejaVuSans-30" d="M 2034 4250 
Q 1547 4250 1301 3770 
Q 1056 3291 1056 2328 
Q 1056 1369 1301 889 
Q 1547 409 2034 409 
Q 2525 409 2770 889 
Q 3016 1369 3016 2328 
Q 3016 3291 2770 3770 
Q 2525 4250 2034 4250 
z
M 2034 4750 
Q 2819 4750 3233 4129 
Q 3647 3509 3647 2328 
Q 3647 1150 3233 529 
Q 2819 -91 2034 -91 
Q 1250 -91 836 529 
Q 422 1150 422 2328 
Q 422 3509 836 4129 
Q 1250 4750 2034 4750 
z
" transform="scale(0.015625)"/>
        <path id="DejaVuSans-31" d="M 794 531 
L 1825 531 
L 1825 4091 
L 703 3866 
L 703 4441 
L 1819 4666 
L 2450 4666 
L 2450 531 
L 3481 531 
L 3481 0 
L 794 0 
L 794 531 
z
" transform="scale(0.015625)"/>
        <path id="DejaVuSans-34" d="M 2419 4116 
L 825 1625 
L 2419 1625 
L 2419 4116 
z
M 2253 4666 
L 3047 4666 
L 3047 1625 
L 3713 1625 
L 3713 1100 
L 3047 1100 
L 3047 0 
L 2419 0 
L 2419 1100 
L 313 1100 
L 313 1709 
L 2253 4666 
z
" transform="scale(0.015625)"/>
        <path id="DejaVuSans-2d" d="M 313 2009 
L 1997 2009 
L 1997 1497 
L 313 1497 
L 313 2009 
z
" transform="scale(0.015625)"/>
        <path id="DejaVuSans-37" d="M 525 4666 
L 3525 4666 
L 3525 4397 
L 1831 0 
L 1172 0 
L 2766 4134 
L 525 4134 
L 525 4666 
z
" transform="scale(0.015625)"/>
       </defs>
       <use xlink:href="#DejaVuSans-32"/>
       <use xlink:href="#DejaVuSans-30" x="63.623047"/>
       <use xlink:href="#DejaVuSans-31" x="127.246094"/>
       <use xlink:href="#DejaVuSans-34" x="190.869141"/>
       <use xlink:href="#DejaVuSans-2d" x="254.492188"/>
       <use xlink:href="#DejaVuSans-30" x="290.576172"/>
       <use xlink:href="#DejaVuSans-37" x="354.199219"/>
       <use xlink:href="#DejaVuSans-2d" x="417.822266"/>
       <use xlink:href="#DejaVuSans-30" x="453.90625"/>
       <use xlink:href="#DejaVuSans-31" x="517.529297"/>
      </g>
     </g>
    </g>
    <g id="xtick_2">
     <g id="line2d_2">
      <g>
       <use xlink:href="#m6f1d1425fb" x="175.327869" y="342.2" style="stroke: #000000; stroke-width: 0.8"/>
      </g>
     </g>
     <g id="text_2">
      <!-- 2014-07-02 -->
      <g transform="translate(146.270057 356.798437) scale(0.1 -0.1)">
       <use xlink:href="#DejaVuSans-32"/>
       <use xlink:href="#DejaVuSans-30" x="63.623047"/>
       <use xlink:href="#DejaVuSans-31" x="127.246094"/>
       <use xlink:href="#DejaVuSans-34" x="190.869141"/>
       <use xlink:href="#DejaVuSans-2d" x="254.492188"/>
       <use xlink:href="#DejaVuSans-30" x="290.576172"/>
       <use xlink:href="#DejaVuSans-37" x="354.199219"/>
       <use xlink:href="#DejaVuSans-2d" x="417.822266"/>
       <use xlink:href="#DejaVuSans-30" x="453.90625"/>
       <use xlink:href="#DejaVuSans-32" x="517.529297"/>
      </g>
     </g>
    </g>
    <g id="xtick_3">
     <g id="line2d_3">
      <g>
       <use xlink:href="#m6f1d1425fb" x="299.284781" y="342.2" style="stroke: #000000; stroke-width: 0.8"/>
      </g>
     </g>
     <g id="text_3">
      <!-- 2014-07-03 -->
      <g transform="translate(270.226969 356.798437) scale(0.1 -0.1)">
       <defs>
        <path id="DejaVuSans-33" d="M 2597 2516 
Q 3050 2419 3304 2112 
Q 3559 1806 3559 1356 
Q 3559 666 3084 287 
Q 2609 -91 1734 -91 
Q 1441 -91 1130 -33 
Q 819 25 488 141 
L 488 750 
Q 750 597 1062 519 
Q 1375 441 1716 441 
Q 2309 441 2620 675 
Q 2931 909 2931 1356 
Q 2931 1769 2642 2001 
Q 2353 2234 1838 2234 
L 1294 2234 
L 1294 2753 
L 1863 2753 
Q 2328 2753 2575 2939 
Q 2822 3125 2822 3475 
Q 2822 3834 2567 4026 
Q 2313 4219 1838 4219 
Q 1578 4219 1281 4162 
Q 984 4106 628 3988 
L 628 4550 
Q 988 4650 1302 4700 
Q 1616 4750 1894 4750 
Q 2613 4750 3031 4423 
Q 3450 4097 3450 3541 
Q 3450 3153 3228 2886 
Q 3006 2619 2597 2516 
z
" transform="scale(0.015625)"/>
       </defs>
       <use xlink:href="#DejaVuSans-32"/>
       <use xlink:href="#DejaVuSans-30" x="63.623047"/>
       <use xlink:href="#DejaVuSans-31" x="127.246094"/>
       <use xlink:href="#DejaVuSans-34" x="190.869141"/>
       <use xlink:href="#DejaVuSans-2d" x="254.492188"/>
       <use xlink:href="#DejaVuSans-30" x="290.576172"/>
       <use xlink:href="#DejaVuSans-37" x="354.199219"/>
       <use xlink:href="#DejaVuSans-2d" x="417.822266"/>
       <use xlink:href="#DejaVuSans-30" x="453.90625"/>
       <use xlink:href="#DejaVuSans-33" x="517.529297"/>
      </g>
     </g>
    </g>
    <g id="xtick_4">
     <g id="line2d_4">
      <g>
       <use xlink:href="#m6f1d1425fb" x="423.241693" y="342.2" style="stroke: #000000; stroke-width: 0.8"/>
      </g>
     </g>
     <g id="text_4">
      <!-- 2014-07-04 -->
      <g transform="translate(394.18388 356.798437) scale(0.1 -0.1)">
       <use xlink:href="#DejaVuSans-32"/>
       <use xlink:href="#DejaVuSans-30" x="63.623047"/>
       <use xlink:href="#DejaVuSans-31" x="127.246094"/>
       <use xlink:href="#DejaVuSans-34" x="190.869141"/>
       <use xlink:href="#DejaVuSans-2d" x="254.492188"/>
       <use xlink:href="#DejaVuSans-30" x="290.576172"/>
       <use xlink:href="#DejaVuSans-37" x="354.199219"/>
       <use xlink:href="#DejaVuSans-2d" x="417.822266"/>
       <use xlink:href="#DejaVuSans-30" x="453.90625"/>
       <use xlink:href="#DejaVuSans-34" x="517.529297"/>
      </g>
     </g>
    </g>
    <g id="xtick_5">
     <g id="line2d_5">
      <g>
       <use xlink:href="#m6f1d1425fb" x="547.198605" y="342.2" style="stroke: #000000; stroke-width: 0.8"/>
      </g>
     </g>
     <g id="text_5">
      <!-- 2014-07-05 -->
      <g transform="translate(518.140792 356.798437) scale(0.1 -0.1)">
       <defs>
        <path id="DejaVuSans-35" d="M 691 4666 
L 3169 4666 
L 3169 4134 
L 1269 4134 
L 1269 2991 
Q 1406 3038 1543 3061 
Q 1681 3084 1819 3084 
Q 2600 3084 3056 2656 
Q 3513 2228 3513 1497 
Q 3513 744 3044 326 
Q 2575 -91 1722 -91 
Q 1428 -91 1123 -41 
Q 819 9 494 109 
L 494 744 
Q 775 591 1075 516 
Q 1375 441 1709 441 
Q 2250 441 2565 725 
Q 2881 1009 2881 1497 
Q 2881 1984 2565 2268 
Q 2250 2553 1709 2553 
Q 1456 2553 1204 2497 
Q 953 2441 691 2322 
L 691 4666 
z
" transform="scale(0.015625)"/>
       </defs>
       <use xlink:href="#DejaVuSans-32"/>
       <use xlink:href="#DejaVuSans-30" x="63.623047"/>
       <use xlink:href="#DejaVuSans-31" x="127.246094"/>
       <use xlink:href="#DejaVuSans-34" x="190.869141"/>
       <use xlink:href="#DejaVuSans-2d" x="254.492188"/>
       <use xlink:href="#DejaVuSans-30" x="290.576172"/>
       <use xlink:href="#DejaVuSans-37" x="354.199219"/>
       <use xlink:href="#DejaVuSans-2d" x="417.822266"/>
       <use xlink:href="#DejaVuSans-30" x="453.90625"/>
       <use xlink:href="#DejaVuSans-35" x="517.529297"/>
      </g>
     </g>
    </g>
    <g id="xtick_6">
     <g id="line2d_6">
      <g>
       <use xlink:href="#m6f1d1425fb" x="671.155517" y="342.2" style="stroke: #000000; stroke-width: 0.8"/>
      </g>
     </g>
     <g id="text_6">
      <!-- 2014-07-06 -->
      <g transform="translate(642.097704 356.798437) scale(0.1 -0.1)">
       <defs>
        <path id="DejaVuSans-36" d="M 2113 2584 
Q 1688 2584 1439 2293 
Q 1191 2003 1191 1497 
Q 1191 994 1439 701 
Q 1688 409 2113 409 
Q 2538 409 2786 701 
Q 3034 994 3034 1497 
Q 3034 2003 2786 2293 
Q 2538 2584 2113 2584 
z
M 3366 4563 
L 3366 3988 
Q 3128 4100 2886 4159 
Q 2644 4219 2406 4219 
Q 1781 4219 1451 3797 
Q 1122 3375 1075 2522 
Q 1259 2794 1537 2939 
Q 1816 3084 2150 3084 
Q 2853 3084 3261 2657 
Q 3669 2231 3669 1497 
Q 3669 778 3244 343 
Q 2819 -91 2113 -91 
Q 1303 -91 875 529 
Q 447 1150 447 2328 
Q 447 3434 972 4092 
Q 1497 4750 2381 4750 
Q 2619 4750 2861 4703 
Q 3103 4656 3366 4563 
z
" transform="scale(0.015625)"/>
       </defs>
       <use xlink:href="#DejaVuSans-32"/>
       <use xlink:href="#DejaVuSans-30" x="63.623047"/>
       <use xlink:href="#DejaVuSans-31" x="127.246094"/>
       <use xlink:href="#DejaVuSans-34" x="190.869141"/>
       <use xlink:href="#DejaVuSans-2d" x="254.492188"/>
       <use xlink:href="#DejaVuSans-30" x="290.576172"/>
       <use xlink:href="#DejaVuSans-37" x="354.199219"/>
       <use xlink:href="#DejaVuSans-2d" x="417.822266"/>
       <use xlink:href="#DejaVuSans-30" x="453.90625"/>
       <use xlink:href="#DejaVuSans-36" x="517.529297"/>
      </g>
     </g>
    </g>
   </g>
   <g id="matplotlib.axis_2">
    <g id="ytick_1">
     <g id="line2d_7">
      <defs>
       <path id="ma8dae9809c" d="M 0 0 
L -3.5 0 
" style="stroke: #000000; stroke-width: 0.8"/>
      </defs>
      <g>
       <use xlink:href="#ma8dae9809c" x="20.5625" y="328.61381" style="stroke: #000000; stroke-width: 0.8"/>
      </g>
     </g>
     <g id="text_7">
      <!-- 0 -->
      <g transform="translate(7.2 332.413029) scale(0.1 -0.1)">
       <use xlink:href="#DejaVuSans-30"/>
      </g>
     </g>
    </g>
    <g id="ytick_2">
     <g id="line2d_8">
      <g>
       <use xlink:href="#ma8dae9809c" x="20.5625" y="289.155397" style="stroke: #000000; stroke-width: 0.8"/>
      </g>
     </g>
     <g id="text_8">
      <!-- 1 -->
      <g transform="translate(7.2 292.954616) scale(0.1 -0.1)">
       <use xlink:href="#DejaVuSans-31"/>
      </g>
     </g>
    </g>
    <g id="ytick_3">
     <g id="line2d_9">
      <g>
       <use xlink:href="#ma8dae9809c" x="20.5625" y="249.696985" style="stroke: #000000; stroke-width: 0.8"/>
      </g>
     </g>
     <g id="text_9">
      <!-- 2 -->
      <g transform="translate(7.2 253.496204) scale(0.1 -0.1)">
       <use xlink:href="#DejaVuSans-32"/>
      </g>
     </g>
    </g>
    <g id="ytick_4">
     <g id="line2d_10">
      <g>
       <use xlink:href="#ma8dae9809c" x="20.5625" y="210.238573" style="stroke: #000000; stroke-width: 0.8"/>
      </g>
     </g>
     <g id="text_10">
      <!-- 3 -->
      <g transform="translate(7.2 214.037792) scale(0.1 -0.1)">
       <use xlink:href="#DejaVuSans-33"/>
      </g>
     </g>
    </g>
    <g id="ytick_5">
     <g id="line2d_11">
      <g>
       <use xlink:href="#ma8dae9809c" x="20.5625" y="170.78016" style="stroke: #000000; stroke-width: 0.8"/>
      </g>
     </g>
     <g id="text_11">
      <!-- 4 -->
      <g transform="translate(7.2 174.579379) scale(0.1 -0.1)">
       <use xlink:href="#DejaVuSans-34"/>
      </g>
     </g>
    </g>
    <g id="ytick_6">
     <g id="line2d_12">
      <g>
       <use xlink:href="#ma8dae9809c" x="20.5625" y="131.321748" style="stroke: #000000; stroke-width: 0.8"/>
      </g>
     </g>
     <g id="text_12">
      <!-- 5 -->
      <g transform="translate(7.2 135.120967) scale(0.1 -0.1)">
       <use xlink:href="#DejaVuSans-35"/>
      </g>
     </g>
    </g>
    <g id="ytick_7">
     <g id="line2d_13">
      <g>
       <use xlink:href="#ma8dae9809c" x="20.5625" y="91.863336" style="stroke: #000000; stroke-width: 0.8"/>
      </g>
     </g>
     <g id="text_13">
      <!-- 6 -->
      <g transform="translate(7.2 95.662554) scale(0.1 -0.1)">
       <use xlink:href="#DejaVuSans-36"/>
      </g>
     </g>
    </g>
    <g id="ytick_8">
     <g id="line2d_14">
      <g>
       <use xlink:href="#ma8dae9809c" x="20.5625" y="52.404923" style="stroke: #000000; stroke-width: 0.8"/>
      </g>
     </g>
     <g id="text_14">
      <!-- 7 -->
      <g transform="translate(7.2 56.204142) scale(0.1 -0.1)">
       <use xlink:href="#DejaVuSans-37"/>
      </g>
     </g>
    </g>
   </g>
   <g id="line2d_15">
    <path d="M 51.54312 328.61381 
L 51.801363 328.520647 
L 53.264744 327.113256 
L 53.953393 326.553249 
L 55.502855 324.795618 
L 56.449748 323.785271 
L 57.568803 323.148144 
L 59.634752 322.683726 
L 60.23732 322.864367 
L 61.528538 323.605023 
L 63.594486 324.864261 
L 64.627461 325.266998 
L 65.230029 325.321971 
L 65.660435 325.187761 
L 66.090841 324.8835 
L 66.607328 324.16463 
L 67.812465 321.416467 
L 68.587195 317.78087 
L 69.017601 314.583667 
L 69.361926 311.791149 
L 69.534088 310.413553 
L 69.792332 308.258799 
L 70.222738 306.787206 
L 70.480981 305.950718 
L 70.653144 305.882698 
L 70.739225 305.700734 
L 70.997468 304.309721 
L 71.255712 304.121207 
L 71.341793 303.912346 
L 71.600037 302.56116 
L 71.85828 302.478937 
L 71.944362 302.23262 
L 72.288686 299.519618 
L 72.54693 298.127328 
L 72.805173 296.00702 
L 73.063417 295.552315 
L 73.235579 296.169024 
L 73.407742 295.482651 
L 73.752067 295.914195 
L 73.838148 295.934593 
L 74.01031 294.837075 
L 74.440716 294.9601 
L 74.612878 294.047973 
L 75.043284 294.580524 
L 75.215447 293.795164 
L 75.645853 294.494793 
L 75.818015 293.732493 
L 76.16234 294.311447 
L 76.334502 295.367843 
L 76.506665 294.950582 
L 76.850989 295.645104 
L 76.937071 295.725629 
L 77.109233 294.694406 
L 77.195314 294.735955 
L 77.539639 294.887937 
L 77.711801 293.986915 
L 78.142207 294.56364 
L 78.31437 293.775773 
L 78.744775 294.558818 
L 78.916938 294.280224 
L 79.261263 295.563867 
L 79.519506 297.23891 
L 79.691669 297.936271 
L 80.035993 299.590493 
L 80.208156 299.745918 
L 80.55248 301.204541 
L 80.638562 299.950092 
L 80.896805 288.680369 
L 81.155049 279.584293 
L 81.327211 281.451757 
L 81.499374 283.523931 
L 81.757617 278.872635 
L 81.843698 279.332268 
L 81.929779 274.210262 
L 82.101942 276.192292 
L 82.188023 273.08925 
L 82.274104 273.799309 
L 82.446267 271.184423 
L 82.532348 272.158451 
L 82.618429 271.844471 
L 82.876673 270.29872 
L 82.962754 270.635818 
L 83.048835 270.518232 
L 83.220997 269.372568 
L 83.39316 270.1191 
L 83.565322 268.580983 
L 83.737484 269.633126 
L 83.909647 268.470979 
L 84.081809 270.101094 
L 84.253972 268.341102 
L 84.340053 268.300297 
L 84.426134 262.945419 
L 84.598296 265.460245 
L 84.770459 251.012909 
L 84.85654 252.469777 
L 85.200865 199.511583 
L 85.373027 170.100874 
L 86.406001 60.175146 
L 86.578164 61.262817 
L 86.750326 59.736694 
L 86.922488 57.02 
L 87.352894 59.598327 
L 87.438976 57.9916 
L 87.525057 58.231551 
L 87.955463 61.624916 
L 88.127625 62.376115 
L 88.558031 68.152242 
L 88.816275 73.806541 
L 88.902356 74.878746 
L 89.074518 73.5839 
L 89.246681 76.438059 
L 89.418843 77.704606 
L 89.504924 77.731042 
L 89.677086 76.534186 
L 89.849249 79.536589 
L 90.021411 80.906809 
L 90.107492 81.035374 
L 90.279655 80.405684 
L 90.710061 84.805778 
L 90.882223 84.552638 
L 91.312629 88.626833 
L 91.484791 88.750976 
L 91.656954 91.167736 
L 91.915197 94.652375 
L 92.259522 95.784262 
L 92.431684 97.796025 
L 92.517766 97.547908 
L 92.603847 97.60648 
L 93.378578 101.155711 
L 93.464659 101.436397 
L 93.636821 103.151199 
L 93.722902 103.061017 
L 93.808984 103.21327 
L 94.239389 105.808343 
L 94.325471 105.739987 
L 94.411552 105.85794 
L 94.841958 108.334589 
L 94.928039 108.606507 
L 95.100201 107.687872 
L 95.186283 107.907107 
L 95.272364 107.799578 
L 95.358445 107.407469 
L 95.530607 107.639235 
L 95.788851 105.098049 
L 95.961013 103.586696 
L 96.047094 103.894438 
L 96.133176 103.993632 
L 96.4775 97.268539 
L 96.563582 96.182844 
L 96.649663 96.978427 
L 96.735744 96.258763 
L 97.080069 82.059638 
L 97.16615 81.336399 
L 97.252231 82.307735 
L 97.338312 80.100388 
L 97.596556 62.802976 
L 97.768718 60.786754 
L 97.940881 61.963478 
L 98.113043 66.44824 
L 99.059936 101.873512 
L 99.490342 108.260646 
L 99.920748 112.024145 
L 100.523316 114.44845 
L 100.78156 115.051686 
L 101.384128 115.835604 
L 102.503184 117.676392 
L 103.536158 119.658013 
L 104.138726 120.448441 
L 106.290756 121.680708 
L 107.926298 122.782735 
L 112.144277 124.928763 
L 113.521576 125.118722 
L 113.693738 124.72443 
L 113.779819 124.815063 
L 113.8659 124.617108 
L 114.124144 123.389545 
L 114.296306 122.620359 
L 114.55455 121.393305 
L 114.726712 120.118986 
L 114.984956 116.493121 
L 115.071037 116.014442 
L 115.501443 116.966324 
L 115.673605 117.175098 
L 115.931849 117.666006 
L 116.190093 117.960879 
L 116.620499 118.548046 
L 117.050904 118.770404 
L 117.309148 118.929694 
L 117.653473 118.97645 
L 117.911716 119.020459 
L 118.256041 118.953288 
L 118.514285 118.932366 
L 118.772528 118.812193 
L 119.116853 118.769238 
L 119.375097 118.637719 
L 120.408071 118.541762 
L 120.666314 118.413028 
L 121.010639 118.347814 
L 121.268883 118.185495 
L 121.613207 118.093865 
L 121.78537 117.937962 
L 122.215776 117.851468 
L 122.387938 117.699704 
L 122.904425 117.673721 
L 123.076588 117.57987 
L 123.506994 117.592401 
L 123.679156 117.439753 
L 124.023481 117.464307 
L 124.367806 117.189341 
L 124.626049 117.18603 
L 124.884293 116.896501 
L 125.228617 116.930161 
L 125.486861 116.647669 
L 125.917267 116.733486 
L 126.17551 116.55824 
L 126.519835 116.678206 
L 126.778079 116.386457 
L 127.036322 116.438011 
L 127.122404 116.416468 
L 127.380647 116.072393 
L 127.638891 116.116647 
L 127.724972 116.103025 
L 127.983215 115.768828 
L 128.241459 115.831803 
L 128.32754 115.822565 
L 128.585784 115.500692 
L 128.930109 115.63667 
L 129.01619 115.63238 
L 129.274433 115.451227 
L 129.532677 115.594261 
L 129.618758 115.578042 
L 129.877002 115.228982 
L 130.049164 115.279538 
L 130.221326 115.250657 
L 130.393489 114.808405 
L 130.47957 114.855123 
L 130.651732 114.900543 
L 131.082138 115.031422 
L 132.201194 117.263398 
L 133.750655 120.383811 
L 134.439305 120.858087 
L 135.472279 121.827485 
L 137.538227 124.505759 
L 139.001608 126.687047 
L 140.206744 128.366533 
L 140.723231 128.646334 
L 141.067556 128.460967 
L 141.842287 127.194814 
L 142.272693 126.512442 
L 143.133505 125.855752 
L 144.596885 124.989179 
L 145.027291 124.575375 
L 146.318509 123.716799 
L 146.576752 123.433629 
L 146.748915 123.14664 
L 148.126214 120.465507 
L 148.55662 117.944622 
L 149.159188 118.146152 
L 149.503513 118.401381 
L 149.675675 118.237896 
L 149.847837 118.245854 
L 150.450406 118.202843 
L 151.225136 118.744458 
L 151.311218 118.757836 
L 152.344192 117.048773 
L 152.602435 116.98973 
L 152.774598 116.933906 
L 153.118923 117.14966 
L 153.377166 117.083374 
L 154.151897 117.716055 
L 155.615277 119.907466 
L 155.787439 119.837492 
L 156.390008 119.166409 
L 156.734332 118.708766 
L 156.906495 118.593485 
L 157.336901 117.861327 
L 157.853388 117.475352 
L 158.111632 117.65419 
L 158.455956 118.085624 
L 159.316768 119.369858 
L 159.488931 119.087761 
L 160.86623 116.692243 
L 161.210554 116.61749 
L 161.468798 116.120542 
L 161.813123 116.058959 
L 161.985285 116.1031 
L 162.932178 117.722132 
L 163.706909 118.837688 
L 164.309477 119.014494 
L 165.170289 118.063064 
L 165.428533 118.11776 
L 165.94502 118.66058 
L 166.375426 119.182458 
L 166.977994 119.406529 
L 167.494481 119.042322 
L 167.838806 118.30262 
L 168.269212 117.818673 
L 168.527455 117.921969 
L 168.699618 117.94005 
L 168.87178 117.868176 
L 169.302186 117.958602 
L 169.732592 117.408407 
L 169.904754 117.262721 
L 170.162998 116.796366 
L 170.679485 116.846001 
L 171.540297 118.033713 
L 172.056784 118.609271 
L 172.659352 119.340657 
L 173.520164 120.320855 
L 173.692327 120.30569 
L 173.864489 120.035898 
L 174.208814 119.440697 
L 174.983545 117.24827 
L 175.327869 116.889351 
L 175.758275 116.875861 
L 176.705168 117.756338 
L 177.393818 116.966343 
L 177.56598 116.528738 
L 177.910305 116.252286 
L 178.168549 116.00844 
L 179.201523 116.648027 
L 179.459766 116.697699 
L 179.890172 117.090467 
L 180.062335 117.157468 
L 180.406659 117.455351 
L 180.837065 116.97814 
L 181.267471 116.746562 
L 181.525715 116.996523 
L 182.042202 117.614735 
L 182.386527 117.977098 
L 182.64477 118.042236 
L 182.989095 118.1419 
L 183.247339 118.085454 
L 183.677745 118.25974 
L 184.366394 118.725888 
L 184.882881 118.832965 
L 185.227206 118.879081 
L 185.743693 119.316197 
L 186.088018 119.605011 
L 186.432343 119.256458 
L 186.604505 119.0684 
L 187.293155 116.755782 
L 187.465317 116.598035 
L 187.72356 116.809781 
L 188.584372 118.182409 
L 188.928697 118.456604 
L 189.186941 118.590851 
L 189.445184 118.580672 
L 189.703428 118.613241 
L 190.650321 116.797853 
L 190.822483 116.757362 
L 191.080727 116.924855 
L 191.597214 117.921216 
L 192.802351 120.506486 
L 193.577081 121.076456 
L 194.95438 122.605853 
L 196.762085 125.061825 
L 198.741953 128.003832 
L 199.688846 129.451325 
L 200.893982 131.131338 
L 201.066145 129.990532 
L 201.152226 130.574332 
L 201.238307 130.41555 
L 201.754794 118.866324 
L 201.926957 104.738207 
L 202.1852 101.579599 
L 202.443444 101.229636 
L 202.529525 101.221508 
L 202.701687 102.516467 
L 202.87385 100.491891 
L 202.959931 100.621076 
L 203.132093 99.813432 
L 203.390337 102.196231 
L 203.562499 100.910718 
L 203.64858 101.010514 
L 203.820743 100.207122 
L 203.992905 101.508929 
L 204.165068 99.783422 
L 204.251149 99.912306 
L 204.423311 99.461173 
L 204.595473 101.074185 
L 204.767636 100.022977 
L 204.853717 100.361238 
L 204.939798 100.316326 
L 205.025879 100.395651 
L 205.198042 102.054233 
L 205.370204 101.435606 
L 205.542367 101.997825 
L 205.628448 102.13828 
L 205.80061 103.766457 
L 205.972772 103.424151 
L 206.747503 107.341879 
L 207.091828 108.795262 
L 207.177909 108.659547 
L 207.26399 108.600468 
L 207.436153 109.270553 
L 207.522234 109.28013 
L 207.694396 109.966924 
L 207.866559 109.798603 
L 208.038721 110.414764 
L 208.124802 110.416985 
L 208.296965 110.917357 
L 208.469127 110.752122 
L 208.727371 111.311461 
L 208.899533 111.688838 
L 209.071695 111.51873 
L 209.329939 112.028453 
L 210.10467 113.263015 
L 210.190751 113.347157 
L 210.362913 113.173662 
L 210.621157 113.548235 
L 210.793319 113.716443 
L 210.965481 113.542102 
L 211.309806 114.027648 
L 211.395887 113.975623 
L 211.654131 112.715812 
L 211.740212 112.672123 
L 212.084537 110.228851 
L 212.256699 109.233958 
L 212.34278 108.927627 
L 212.514943 107.881726 
L 212.601024 108.403021 
L 212.687105 108.013112 
L 212.859268 105.153836 
L 212.945349 105.375141 
L 213.289674 103.037818 
L 213.461836 97.53756 
L 213.547917 97.132599 
L 213.720079 93.889868 
L 213.806161 95.49462 
L 213.892242 92.670208 
L 214.236567 63.213393 
L 214.322648 62.676218 
L 214.408729 63.027461 
L 214.580891 65.975526 
L 214.839135 76.904394 
L 215.18346 94.676044 
L 215.613866 105.048414 
L 216.044272 111.221882 
L 216.388596 114.03762 
L 216.905083 116.330783 
L 217.335489 117.256775 
L 217.765895 117.827084 
L 218.626707 118.840566 
L 219.831844 120.638739 
L 220.520493 121.150061 
L 221.983874 122.79805 
L 223.275091 124.510087 
L 224.480228 126.252528 
L 225.254959 127.379053 
L 228.353882 131.743435 
L 228.784287 131.984063 
L 229.214693 131.978061 
L 230.41983 131.546496 
L 231.624967 131.060254 
L 232.57186 129.801627 
L 234.379565 125.838198 
L 234.637808 125.051721 
L 235.412539 122.028432 
L 235.842945 119.126859 
L 236.101189 115.961402 
L 236.359432 115.812875 
L 237.994975 118.37647 
L 238.167137 118.357767 
L 238.425381 118.122351 
L 238.683624 117.95864 
L 239.200111 116.7936 
L 239.716598 116.235145 
L 240.060923 116.507722 
L 240.749573 117.574546 
L 241.26606 117.736168 
L 241.524303 117.505983 
L 241.954709 117.43281 
L 242.212953 117.638103 
L 242.385115 117.813424 
L 243.073765 117.068416 
L 243.332008 116.483243 
L 243.676333 116.155011 
L 243.848496 116.221975 
L 244.19282 116.823874 
L 244.364983 116.989956 
L 244.537145 117.040814 
L 244.795389 117.260745 
L 244.88147 117.242381 
L 245.311876 116.364067 
L 245.6562 115.941025 
L 245.914444 116.170101 
L 246.517012 117.383025 
L 247.291743 119.077074 
L 247.463905 119.235724 
L 247.80823 119.114949 
L 248.066474 118.989677 
L 248.410799 118.73791 
L 248.755123 118.836728 
L 249.27161 119.238038 
L 249.615935 119.014043 
L 249.874179 118.82875 
L 250.390666 117.51445 
L 250.821072 116.833677 
L 251.251478 116.868824 
L 252.284452 117.56384 
L 252.628777 117.609843 
L 252.973102 117.830583 
L 253.403507 117.382084 
L 253.57567 117.219991 
L 253.919995 116.53299 
L 254.436482 116.223386 
L 254.866888 116.515473 
L 255.03905 116.558353 
L 255.383375 116.868485 
L 255.641618 116.889332 
L 256.416349 117.675696 
L 256.674593 118.039978 
L 257.793648 117.74138 
L 258.740541 118.619901 
L 259.170947 119.112089 
L 259.34311 118.838421 
L 260.462165 117.090787 
L 260.634327 117.03515 
L 261.064733 117.196585 
L 261.236896 117.017276 
L 261.495139 116.998348 
L 261.925545 116.919023 
L 262.872438 117.545401 
L 263.302844 117.217846 
L 263.475007 117.120647 
L 263.819331 116.33481 
L 264.077575 115.963585 
L 264.335818 115.219593 
L 264.507981 115.108094 
L 264.680143 115.058158 
L 264.852306 115.136373 
L 265.368793 116.390898 
L 266.573929 118.940381 
L 267.176498 119.66426 
L 267.34866 119.524877 
L 268.123391 118.333627 
L 269.070284 116.910913 
L 269.414609 115.995213 
L 269.931096 115.326934 
L 270.447583 115.868436 
L 271.566638 118.340401 
L 272.083125 118.462437 
L 272.857856 118.487066 
L 273.1161 118.1095 
L 273.374343 117.834647 
L 273.804749 116.537073 
L 274.149074 116.10628 
L 274.407318 116.368376 
L 275.009886 117.267951 
L 275.268129 117.547188 
L 275.784617 116.984349 
L 276.215022 116.666522 
L 276.473266 116.810007 
L 276.73151 116.433928 
L 276.903672 116.428001 
L 277.161916 116.223649 
L 277.334078 116.128576 
L 277.678403 116.421981 
L 277.936646 116.836857 
L 278.711377 118.664437 
L 279.572189 120.4834 
L 280.260838 120.984977 
L 280.691244 121.365797 
L 281.552056 122.334838 
L 284.995304 127.042862 
L 286.20044 128.84619 
L 287.061252 129.830716 
L 287.491658 130.087958 
L 288.955038 130.603138 
L 289.471526 130.992914 
L 291.193149 132.904241 
L 292.828692 134.933182 
L 296.185858 138.416334 
L 297.218833 139.55857 
L 297.649238 139.88842 
L 298.165726 140.040165 
L 298.682213 139.819086 
L 299.112619 139.343512 
L 300.403837 136.370836 
L 301.608973 131.339754 
L 302.12546 128.546294 
L 302.555866 125.981269 
L 302.81411 124.263475 
L 303.158435 121.114256 
L 303.244516 119.575621 
L 303.502759 111.05977 
L 303.588841 110.303058 
L 303.674922 110.57603 
L 303.761003 110.408367 
L 303.933165 109.543167 
L 304.019246 109.854635 
L 304.105328 109.783081 
L 304.191409 109.589679 
L 304.363571 109.831153 
L 304.535734 109.173015 
L 304.707896 109.589415 
L 304.793977 109.413568 
L 304.96614 109.722345 
L 305.138302 109.09004 
L 305.310464 109.565125 
L 305.396545 109.358609 
L 305.482627 109.535604 
L 305.654789 110.112799 
L 305.826951 109.692654 
L 305.999114 110.135829 
L 306.085195 110.007979 
L 306.257357 110.21378 
L 306.42952 109.468471 
L 306.601682 109.845001 
L 306.687763 109.602492 
L 306.859926 109.87091 
L 307.032088 109.15928 
L 307.20425 109.636021 
L 307.290332 109.41402 
L 307.462494 109.747238 
L 307.634656 109.088366 
L 307.806819 109.577091 
L 307.8929 109.356106 
L 308.065062 109.708196 
L 308.237225 109.070039 
L 308.409387 109.553685 
L 308.495468 109.346115 
L 308.581549 109.505706 
L 308.753712 110.117333 
L 308.925874 109.712862 
L 309.098037 110.140909 
L 309.184118 110.016502 
L 309.35628 110.272954 
L 309.528443 109.805226 
L 309.700605 110.281985 
L 309.786686 110.179687 
L 309.958848 110.588937 
L 310.131011 110.408781 
L 310.303173 111.01561 
L 310.389254 111.03102 
L 310.561417 111.493348 
L 310.647498 111.441192 
L 310.733579 111.514891 
L 310.991823 112.196549 
L 311.077904 112.382236 
L 311.163985 111.654839 
L 311.422229 106.461213 
L 311.680472 101.916806 
L 311.938716 104.467983 
L 312.369122 109.921636 
L 312.97169 114.249253 
L 313.66034 117.126047 
L 314.521151 119.237436 
L 315.209801 120.356209 
L 315.898451 120.677329 
L 316.931425 121.061573 
L 318.653049 121.637658 
L 320.460754 121.976295 
L 321.407647 122.002147 
L 322.698864 122.378188 
L 323.731839 123.179925 
L 324.764813 124.284925 
L 326.056031 125.92599 
L 327.261167 127.528126 
L 336.471855 140.962995 
L 338.623884 144.2252 
L 341.20632 148.123943 
L 342.497538 150.06878 
L 343.35835 151.340709 
L 357.13134 171.503766 
L 358.250395 173.163167 
L 359.197288 174.532728 
L 360.402425 176.301972 
L 361.951887 178.545679 
L 362.89878 179.932428 
L 363.845673 181.282685 
L 364.964728 182.906703 
L 368.494057 187.957908 
L 370.473924 190.756081 
L 372.625954 193.797009 
L 374.51974 196.436119 
L 375.98312 198.477892 
L 377.4465 200.488714 
L 378.823799 202.391123 
L 383.127859 208.249407 
L 384.246914 209.752989 
L 386.485025 212.760652 
L 388.034487 214.813469 
L 389.583948 216.885601 
L 390.875166 218.579255 
L 395.351388 224.430812 
L 399.397204 229.633272 
L 402.323964 233.357918 
L 405.595049 237.463083 
L 406.886267 239.073968 
L 411.44857 244.706394 
L 415.236142 249.323888 
L 416.441279 250.770827 
L 419.454121 254.395173 
L 421.692232 257.063644 
L 439.855362 278.101182 
L 443.212529 281.891992 
L 456.382951 296.558756 
L 459.22363 299.649895 
L 460.68701 301.235852 
L 477.472842 318.959832 
L 478.419735 319.935305 
L 480.22744 321.797754 
L 482.637713 324.270419 
L 486.683529 328.241884 
L 487.372179 328.45333 
L 488.663396 328.571817 
L 492.795293 328.603848 
L 528.691149 328.593284 
L 671.155517 328.59313 
L 671.155517 328.59313 
" clip-path="url(#pdde8db5078)" style="fill: none; stroke: #1f77b4; stroke-width: 1.5; stroke-linecap: square"/>
   </g>
   <g id="line2d_16">
    <path d="M 51.54312 328.61381 
L 52.662175 328.511002 
L 53.178662 328.387765 
L 53.350825 328.355764 
L 53.609068 328.271127 
L 54.125555 328.151198 
L 55.244611 327.963245 
L 55.502855 327.864401 
L 55.93326 327.743055 
L 58.343534 327.152337 
L 58.601777 327.02478 
L 64.541379 326.686506 
L 64.799623 326.580075 
L 65.143948 326.509554 
L 65.402191 326.352091 
L 65.746516 326.258931 
L 65.918678 326.070932 
L 66.349084 325.934337 
L 66.521247 325.699923 
L 67.037734 325.532896 
L 67.209896 325.252417 
L 67.640302 325.059666 
L 67.812465 324.732777 
L 68.24287 324.51153 
L 68.415033 324.138329 
L 68.845439 323.888347 
L 69.017601 323.46883 
L 69.275845 323.387971 
L 69.361926 323.42045 
L 69.706251 322.674349 
L 70.050575 322.662147 
L 70.3949 321.842705 
L 70.653144 321.83403 
L 70.997468 320.941336 
L 71.255712 320.929013 
L 71.600037 319.963471 
L 71.85828 319.9416 
L 72.202605 318.499526 
L 72.460849 318.460011 
L 72.805173 317.015098 
L 73.149498 316.959604 
L 73.493823 315.509386 
L 73.752067 315.463451 
L 74.096391 314.007984 
L 74.354635 313.958919 
L 74.69896 312.499365 
L 74.957203 312.447259 
L 75.301528 310.983708 
L 75.559771 310.928631 
L 75.904096 309.463268 
L 76.248421 309.387485 
L 76.592746 307.917261 
L 76.850989 307.856448 
L 77.195314 306.381439 
L 77.453558 306.317845 
L 77.797882 304.839221 
L 78.056126 304.772945 
L 78.400451 303.291055 
L 78.658694 303.226298 
L 79.003019 301.942757 
L 79.347344 301.861962 
L 79.691669 300.779714 
L 79.949912 300.723017 
L 80.294237 299.842158 
L 80.466399 299.713225 
L 80.55248 299.486997 
L 80.638562 298.62988 
L 80.810724 296.09094 
L 80.982886 295.715331 
L 81.24113 295.502649 
L 81.413292 295.227537 
L 82.532348 294.762542 
L 84.081809 294.386024 
L 84.16789 294.196005 
L 84.340053 292.420429 
L 84.512215 288.294484 
L 84.942621 285.835297 
L 85.114783 282.061191 
L 85.286946 281.487571 
L 85.459108 281.261589 
L 85.631271 279.780406 
L 85.803433 276.337936 
L 86.233839 274.286389 
L 86.406001 271.147322 
L 86.836407 269.274314 
L 87.00857 266.416079 
L 87.266813 265.832881 
L 87.352894 265.578437 
L 87.438976 264.706696 
L 87.611138 262.106579 
L 87.869381 261.572921 
L 87.955463 261.388163 
L 88.385869 257.811833 
L 88.558031 257.656627 
L 88.644112 257.529204 
L 89.074518 254.252817 
L 89.246681 254.042367 
L 89.677086 251.031168 
L 89.849249 250.862195 
L 90.279655 248.100482 
L 90.451817 247.964098 
L 90.882223 245.434566 
L 91.054385 245.323657 
L 91.484791 243.000236 
L 91.743035 242.88661 
L 92.08736 240.830208 
L 92.345603 240.69671 
L 92.689928 238.818489 
L 92.948172 238.700001 
L 93.292496 236.986725 
L 93.55074 236.880189 
L 93.895065 235.318024 
L 94.153308 235.220963 
L 94.497633 233.798897 
L 94.841958 233.654188 
L 95.186283 231.704458 
L 95.444526 231.550771 
L 95.874932 229.218221 
L 96.047094 229.034421 
L 96.4775 226.09207 
L 96.649663 225.672392 
L 96.735744 224.797948 
L 96.907906 222.12376 
L 97.252231 220.638105 
L 97.338312 219.839046 
L 97.510475 215.915448 
L 97.682637 215.335512 
L 98.026962 214.982666 
L 98.199124 214.492902 
L 98.457368 214.361977 
L 98.543449 214.376263 
L 98.887774 213.651105 
L 99.146017 213.600819 
L 99.490342 212.94041 
L 99.748586 212.891434 
L 100.09291 212.289641 
L 100.437235 212.073158 
L 100.609397 211.740483 
L 101.125885 211.473769 
L 101.298047 211.171334 
L 101.986696 210.919989 
L 102.93359 210.626175 
L 103.277914 210.499327 
L 104.224807 210.198962 
L 104.569132 210.067279 
L 105.429944 209.775486 
L 105.774269 209.638316 
L 106.635081 209.33664 
L 106.979405 209.192884 
L 107.840217 208.91982 
L 108.356704 208.694684 
L 108.528867 208.629199 
L 108.78711 208.493574 
L 109.303597 208.274144 
L 110.422653 207.877284 
L 110.680897 207.729415 
L 111.111302 207.528309 
L 113.435495 206.59782 
L 113.779819 204.965467 
L 117.825635 202.902473 
L 118.083879 202.684431 
L 118.428204 202.552311 
L 118.600366 202.355608 
L 119.030772 202.190766 
L 119.202934 201.985918 
L 119.719421 201.805004 
L 119.891584 201.591883 
L 120.32199 201.419104 
L 120.494152 201.197013 
L 120.924558 201.019904 
L 121.09672 200.788484 
L 121.527126 200.606833 
L 121.699289 200.365618 
L 122.129695 200.179179 
L 122.301857 199.927566 
L 122.818344 199.725313 
L 122.990507 199.463144 
L 123.420912 199.266464 
L 123.593075 198.992858 
L 124.023481 198.790611 
L 124.195643 198.505114 
L 124.626049 198.297033 
L 124.798211 197.999057 
L 125.228617 197.784833 
L 125.40078 197.473617 
L 125.745105 197.388565 
L 125.831186 197.408125 
L 126.17551 196.879768 
L 126.433754 196.863353 
L 126.778079 196.31206 
L 127.036322 196.296948 
L 127.380647 195.722064 
L 127.638891 195.708285 
L 127.983215 195.10869 
L 128.241459 195.096268 
L 128.585784 194.471606 
L 128.930109 194.452258 
L 129.274433 193.800225 
L 129.532677 193.790583 
L 129.877002 193.109661 
L 130.135245 193.101407 
L 130.47957 192.39118 
L 130.823895 192.256553 
L 130.996057 192.029508 
L 132.545518 191.6531 
L 133.836736 191.519468 
L 136.849578 191.340341 
L 139.518095 191.091541 
L 139.690257 190.826261 
L 140.120663 190.605334 
L 140.292825 190.220379 
L 140.723231 190.038126 
L 140.895394 189.777551 
L 142.444855 189.354656 
L 142.617018 189.296372 
L 142.875261 189.147386 
L 143.219586 189.048771 
L 143.391748 188.853619 
L 143.822154 188.733284 
L 143.994317 188.542219 
L 144.510804 188.421477 
L 144.682966 188.231069 
L 145.543778 188.127805 
L 145.629859 188.15191 
L 145.974184 187.713773 
L 146.232427 187.719935 
L 146.576752 187.215885 
L 146.921077 187.088049 
L 147.093239 186.833323 
L 148.212295 186.436584 
L 148.384457 186.247627 
L 149.417431 185.965027 
L 149.589594 185.628592 
L 150.106081 185.550446 
L 150.708649 185.454805 
L 150.880812 185.249871 
L 151.311218 185.03696 
L 151.48338 184.609778 
L 152.344192 184.297615 
L 152.430273 184.323242 
L 152.774598 183.92277 
L 153.118923 183.825604 
L 153.291085 183.615088 
L 154.237978 183.500641 
L 154.496222 183.42403 
L 155.615277 183.193087 
L 155.787439 182.849545 
L 156.734332 182.618282 
L 156.820414 182.655283 
L 157.164738 182.050931 
L 158.7142 181.86917 
L 158.972443 181.755684 
L 159.230687 181.790089 
L 159.575012 181.085964 
L 160.005418 180.975508 
L 160.17758 180.729801 
L 160.607986 180.573887 
L 160.780148 180.25562 
L 161.210554 180.067856 
L 161.382717 179.696653 
L 161.727041 179.665233 
L 162.415691 179.598841 
L 162.587853 179.408118 
L 163.362584 179.38223 
L 163.620828 179.418345 
L 163.965152 179.025185 
L 164.309477 178.919988 
L 164.481639 178.659436 
L 165.25637 178.570725 
L 166.117182 178.585569 
L 166.461507 178.269315 
L 166.805832 178.214235 
L 166.977994 178.059572 
L 167.4084 177.915785 
L 167.580562 177.57321 
L 167.924887 177.553479 
L 168.613537 177.449584 
L 168.785699 177.145663 
L 169.130024 177.124042 
L 169.216105 177.16309 
L 169.56043 176.646134 
L 169.904754 176.551515 
L 170.076917 176.30805 
L 170.765566 176.277934 
L 171.109891 176.235034 
L 171.282053 176.076135 
L 172.573271 176.048315 
L 173.003677 176.015516 
L 173.17584 175.859856 
L 173.606245 175.741085 
L 173.778408 175.437704 
L 174.208814 175.323716 
L 174.380976 175.07674 
L 174.811382 174.944414 
L 174.983545 174.633316 
L 175.327869 174.624968 
L 175.500032 174.600148 
L 175.758275 174.510909 
L 176.1026 174.453734 
L 176.274762 174.256703 
L 176.705168 174.123833 
L 176.877331 173.787918 
L 177.135574 173.763061 
L 177.221655 173.80668 
L 177.56598 173.25078 
L 177.910305 173.188636 
L 178.082467 172.999589 
L 178.598954 172.902748 
L 178.771117 172.60823 
L 179.804091 172.387331 
L 179.976253 172.201278 
L 180.406659 172.058362 
L 180.578822 171.677536 
L 181.095309 171.61728 
L 181.697877 171.605294 
L 181.87004 171.440378 
L 182.300446 171.393982 
L 182.472608 171.221038 
L 182.903014 171.185778 
L 183.075176 171.039119 
L 183.849907 171.119818 
L 184.108151 171.03747 
L 184.280313 170.783048 
L 185.055044 170.772948 
L 185.915855 170.915732 
L 186.26018 170.314312 
L 186.518424 170.367694 
L 186.862749 169.746476 
L 187.981804 169.690092 
L 189.100859 169.496996 
L 189.273022 169.369996 
L 189.617347 169.437916 
L 189.961671 168.788348 
L 190.305996 168.747194 
L 190.478158 168.581104 
L 191.080727 168.668057 
L 200.635739 170.402277 
L 200.807901 170.242986 
L 201.238307 167.088492 
L 201.410469 166.954934 
L 201.840875 164.08835 
L 202.013038 164.006948 
L 202.443444 161.41167 
L 202.615606 161.371917 
L 203.046012 159.018446 
L 203.304256 159.046921 
L 203.64858 156.942483 
L 203.906824 156.958543 
L 204.251149 155.062331 
L 204.509392 155.104774 
L 204.853717 153.401503 
L 205.111961 153.465389 
L 205.456285 151.9391 
L 205.714529 152.020356 
L 206.058854 150.65804 
L 206.403178 150.787183 
L 206.747503 149.571654 
L 207.005747 149.678154 
L 207.350071 148.596186 
L 207.608315 148.711749 
L 207.95264 147.752351 
L 208.210883 147.875175 
L 208.555208 147.027113 
L 208.813452 147.155702 
L 209.157776 146.40977 
L 209.502101 146.583779 
L 209.846426 145.928773 
L 210.10467 146.06526 
L 210.448994 145.492277 
L 210.707238 145.631439 
L 211.051563 145.132323 
L 211.309806 145.270521 
L 211.654131 143.953865 
L 211.912374 144.042585 
L 212.256699 142.212338 
L 212.601024 142.226949 
L 212.945349 139.544082 
L 213.03143 139.561232 
L 213.117511 139.477773 
L 213.203592 139.151333 
L 213.289674 138.337924 
L 213.461836 135.486405 
L 213.720079 135.039547 
L 214.236567 128.275201 
L 214.925216 128.370906 
L 215.097378 128.424097 
L 215.269541 128.358517 
L 215.872109 128.584458 
L 216.216434 128.793102 
L 216.388596 128.861048 
L 216.560759 128.832656 
L 217.593733 129.331866 
L 217.765895 129.33318 
L 218.79887 130.117358 
L 223.447254 133.558542 
L 226.546177 135.62416 
L 227.406988 136.099578 
L 227.751313 136.040524 
L 228.181719 136.216311 
L 228.353882 136.094273 
L 230.591992 136.956601 
L 230.764155 136.886301 
L 231.280642 137.101219 
L 231.452804 136.993083 
L 231.88321 137.09464 
L 232.055373 136.868468 
L 233.088347 137.128972 
L 233.260509 137.014198 
L 233.690915 137.086257 
L 233.863078 136.794881 
L 234.207402 136.953065 
L 234.293484 137.044481 
L 234.637808 136.613187 
L 234.896052 136.790246 
L 235.240377 136.416326 
L 235.584701 136.508122 
L 235.756864 136.347908 
L 237.994975 137.130719 
L 238.339299 136.854354 
L 238.597543 137.035753 
L 238.941868 136.626192 
L 239.286193 136.733646 
L 239.458355 136.614141 
L 240.147004 136.993038 
L 240.491329 137.239771 
L 240.835654 136.91128 
L 241.179979 137.020205 
L 241.352141 136.901431 
L 242.212953 137.329115 
L 242.299034 137.421705 
L 242.643359 136.951056 
L 242.901602 137.125774 
L 243.245927 136.742423 
L 244.278901 137.179557 
L 244.451064 136.93485 
L 244.709307 137.043018 
L 244.795389 137.136019 
L 245.139713 136.634201 
L 247.291743 137.767797 
L 247.636068 137.404331 
L 249.185529 138.10608 
L 249.357692 137.852309 
L 249.702016 138.011074 
L 249.788098 138.099008 
L 250.132422 137.714801 
L 250.476747 137.839838 
L 250.648909 137.77023 
L 251.079315 137.941194 
L 251.251478 137.871615 
L 251.681884 138.02351 
L 251.854046 137.911295 
L 252.88702 138.313303 
L 253.231345 137.869953 
L 253.57567 137.933621 
L 253.747832 137.727803 
L 254.780806 137.926324 
L 254.952969 137.778042 
L 255.469456 137.840369 
L 255.813781 137.997121 
L 256.588511 138.387404 
L 256.932836 137.99571 
L 257.879729 138.419658 
L 258.051892 138.408279 
L 259.084866 138.940644 
L 259.429191 138.44028 
L 259.773515 138.537219 
L 259.945678 138.41783 
L 260.892571 138.780541 
L 261.236896 138.370347 
L 262.183789 138.820809 
L 262.528113 138.583907 
L 262.872438 138.656812 
L 263.044601 138.465388 
L 263.475007 138.497543 
L 263.647169 138.158483 
L 263.905413 138.248892 
L 263.991494 138.339275 
L 264.335818 137.847006 
L 266.573929 138.886646 
L 266.746092 138.870607 
L 267.176498 138.975845 
L 267.34866 138.751344 
L 268.381634 139.053665 
L 268.725959 138.598731 
L 268.984203 138.769046 
L 269.328527 138.293325 
L 269.672852 138.371762 
L 269.845015 138.206396 
L 270.361502 138.467683 
L 270.96407 138.70606 
L 271.566638 138.911689 
L 271.738801 138.713564 
L 272.169207 138.932697 
L 272.685694 139.267581 
L 273.030019 138.766571 
L 273.288262 138.934027 
L 273.632587 138.49549 
L 274.665561 138.938066 
L 274.837723 138.791204 
L 275.268129 138.84669 
L 275.440292 138.550273 
L 276.215022 138.771685 
L 276.387185 138.901956 
L 276.73151 138.396926 
L 277.075834 138.515577 
L 277.247997 138.446279 
L 277.936646 138.850908 
L 283.101518 141.92932 
L 286.286522 143.731809 
L 286.630846 143.19388 
L 287.491658 143.643488 
L 291.881799 145.969594 
L 292.226124 145.776172 
L 294.033829 146.675825 
L 295.841534 147.454303 
L 296.874508 147.789842 
L 297.218833 147.710032 
L 297.563157 147.783167 
L 297.73532 147.668476 
L 298.165726 147.741533 
L 298.337888 147.581368 
L 298.768294 147.62863 
L 298.940456 147.423129 
L 299.284781 147.541178 
L 299.370862 147.613297 
L 299.715187 147.244911 
L 299.973431 147.381668 
L 300.317755 146.942736 
L 300.575999 147.080294 
L 300.920324 146.572046 
L 301.178567 146.710374 
L 301.522892 146.133629 
L 301.781136 146.272693 
L 302.12546 145.629627 
L 302.469785 145.805638 
L 302.81411 144.574921 
L 303.072353 144.696197 
L 303.416678 143.470139 
L 303.674922 143.595876 
L 304.019246 142.375811 
L 304.27749 142.506038 
L 304.621815 141.291968 
L 304.880058 141.426683 
L 305.224383 140.220695 
L 305.568708 140.407718 
L 305.913033 139.206421 
L 306.171276 139.349915 
L 306.515601 138.153526 
L 306.773845 138.301476 
L 307.118169 137.111063 
L 307.376413 137.263487 
L 307.720738 136.079044 
L 307.978981 136.235935 
L 308.323306 135.059541 
L 308.667631 135.27607 
L 309.011955 134.104519 
L 309.270199 134.274208 
L 309.614524 133.306801 
L 309.872767 133.487428 
L 310.217092 132.728277 
L 310.475336 132.916085 
L 310.81966 132.364049 
L 310.991823 132.400274 
L 311.077904 132.256688 
L 311.163985 131.483061 
L 311.336148 129.119856 
L 311.50831 128.922187 
L 311.852635 129.046716 
L 312.024797 128.952806 
L 313.143852 129.6534 
L 314.262908 130.414948 
L 314.521151 130.536601 
L 315.554126 131.168785 
L 315.812369 131.2791 
L 316.673181 131.79934 
L 317.103587 131.979954 
L 317.964399 132.479143 
L 318.394805 132.640836 
L 319.169536 133.054944 
L 319.599942 133.196817 
L 319.944266 133.308682 
L 321.579809 134.181181 
L 324.076163 135.847545 
L 327.347249 137.913132 
L 332.426039 141.017014 
L 337.763072 144.015072 
L 343.35835 146.898647 
L 349.211871 149.66129 
L 355.323635 152.298515 
L 361.779724 154.839912 
L 368.580138 157.275434 
L 375.724877 159.597583 
L 383.300021 161.825194 
L 391.391653 163.969541 
L 399.999772 166.016351 
L 409.124378 167.954895 
L 418.851552 169.792973 
L 429.267376 171.534078 
L 440.544012 173.190316 
L 452.681459 174.744813 
L 465.851881 176.203527 
L 480.141359 177.559163 
L 495.808135 178.81807 
L 513.024373 179.974326 
L 532.134397 181.030208 
L 553.482531 181.982183 
L 577.585264 182.829618 
L 605.217326 183.573242 
L 637.497772 184.212821 
L 671.155517 184.689794 
L 671.155517 184.689794 
" clip-path="url(#pdde8db5078)" style="fill: none; stroke: #ff7f0e; stroke-width: 1.5; stroke-linecap: square"/>
   </g>
   <g id="patch_3">
    <path d="M 20.5625 342.2 
L 20.5625 43.44 
" style="fill: none; stroke: #000000; stroke-width: 0.8; stroke-linejoin: miter; stroke-linecap: square"/>
   </g>
   <g id="patch_4">
    <path d="M 702.136136 342.2 
L 702.136136 43.44 
" style="fill: none; stroke: #000000; stroke-width: 0.8; stroke-linejoin: miter; stroke-linecap: square"/>
   </g>
   <g id="patch_5">
    <path d="M 20.5625 342.2 
L 702.136136 342.2 
" style="fill: none; stroke: #000000; stroke-width: 0.8; stroke-linejoin: miter; stroke-linecap: square"/>
   </g>
   <g id="patch_6">
    <path d="M 20.5625 43.44 
L 702.136136 43.44 
" style="fill: none; stroke: #000000; stroke-width: 0.8; stroke-linejoin: miter; stroke-linecap: square"/>
   </g>
   <g id="text_15">
    <!-- 1 transformation(s) -->
    <g transform="translate(303.234631 37.44) scale(0.12 -0.12)">
     <defs>
      <path id="DejaVuSans-20" transform="scale(0.015625)"/>
      <path id="DejaVuSans-74" d="M 1172 4494 
L 1172 3500 
L 2356 3500 
L 2356 3053 
L 1172 3053 
L 1172 1153 
Q 1172 725 1289 603 
Q 1406 481 1766 481 
L 2356 481 
L 2356 0 
L 1766 0 
Q 1100 0 847 248 
Q 594 497 594 1153 
L 594 3053 
L 172 3053 
L 172 3500 
L 594 3500 
L 594 4494 
L 1172 4494 
z
" transform="scale(0.015625)"/>
      <path id="DejaVuSans-72" d="M 2631 2963 
Q 2534 3019 2420 3045 
Q 2306 3072 2169 3072 
Q 1681 3072 1420 2755 
Q 1159 2438 1159 1844 
L 1159 0 
L 581 0 
L 581 3500 
L 1159 3500 
L 1159 2956 
Q 1341 3275 1631 3429 
Q 1922 3584 2338 3584 
Q 2397 3584 2469 3576 
Q 2541 3569 2628 3553 
L 2631 2963 
z
" transform="scale(0.015625)"/>
      <path id="DejaVuSans-61" d="M 2194 1759 
Q 1497 1759 1228 1600 
Q 959 1441 959 1056 
Q 959 750 1161 570 
Q 1363 391 1709 391 
Q 2188 391 2477 730 
Q 2766 1069 2766 1631 
L 2766 1759 
L 2194 1759 
z
M 3341 1997 
L 3341 0 
L 2766 0 
L 2766 531 
Q 2569 213 2275 61 
Q 1981 -91 1556 -91 
Q 1019 -91 701 211 
Q 384 513 384 1019 
Q 384 1609 779 1909 
Q 1175 2209 1959 2209 
L 2766 2209 
L 2766 2266 
Q 2766 2663 2505 2880 
Q 2244 3097 1772 3097 
Q 1472 3097 1187 3025 
Q 903 2953 641 2809 
L 641 3341 
Q 956 3463 1253 3523 
Q 1550 3584 1831 3584 
Q 2591 3584 2966 3190 
Q 3341 2797 3341 1997 
z
" transform="scale(0.015625)"/>
      <path id="DejaVuSans-6e" d="M 3513 2113 
L 3513 0 
L 2938 0 
L 2938 2094 
Q 2938 2591 2744 2837 
Q 2550 3084 2163 3084 
Q 1697 3084 1428 2787 
Q 1159 2491 1159 1978 
L 1159 0 
L 581 0 
L 581 3500 
L 1159 3500 
L 1159 2956 
Q 1366 3272 1645 3428 
Q 1925 3584 2291 3584 
Q 2894 3584 3203 3211 
Q 3513 2838 3513 2113 
z
" transform="scale(0.015625)"/>
      <path id="DejaVuSans-73" d="M 2834 3397 
L 2834 2853 
Q 2591 2978 2328 3040 
Q 2066 3103 1784 3103 
Q 1356 3103 1142 2972 
Q 928 2841 928 2578 
Q 928 2378 1081 2264 
Q 1234 2150 1697 2047 
L 1894 2003 
Q 2506 1872 2764 1633 
Q 3022 1394 3022 966 
Q 3022 478 2636 193 
Q 2250 -91 1575 -91 
Q 1294 -91 989 -36 
Q 684 19 347 128 
L 347 722 
Q 666 556 975 473 
Q 1284 391 1588 391 
Q 1994 391 2212 530 
Q 2431 669 2431 922 
Q 2431 1156 2273 1281 
Q 2116 1406 1581 1522 
L 1381 1569 
Q 847 1681 609 1914 
Q 372 2147 372 2553 
Q 372 3047 722 3315 
Q 1072 3584 1716 3584 
Q 2034 3584 2315 3537 
Q 2597 3491 2834 3397 
z
" transform="scale(0.015625)"/>
      <path id="DejaVuSans-66" d="M 2375 4863 
L 2375 4384 
L 1825 4384 
Q 1516 4384 1395 4259 
Q 1275 4134 1275 3809 
L 1275 3500 
L 2222 3500 
L 2222 3053 
L 1275 3053 
L 1275 0 
L 697 0 
L 697 3053 
L 147 3053 
L 147 3500 
L 697 3500 
L 697 3744 
Q 697 4328 969 4595 
Q 1241 4863 1831 4863 
L 2375 4863 
z
" transform="scale(0.015625)"/>
      <path id="DejaVuSans-6f" d="M 1959 3097 
Q 1497 3097 1228 2736 
Q 959 2375 959 1747 
Q 959 1119 1226 758 
Q 1494 397 1959 397 
Q 2419 397 2687 759 
Q 2956 1122 2956 1747 
Q 2956 2369 2687 2733 
Q 2419 3097 1959 3097 
z
M 1959 3584 
Q 2709 3584 3137 3096 
Q 3566 2609 3566 1747 
Q 3566 888 3137 398 
Q 2709 -91 1959 -91 
Q 1206 -91 779 398 
Q 353 888 353 1747 
Q 353 2609 779 3096 
Q 1206 3584 1959 3584 
z
" transform="scale(0.015625)"/>
      <path id="DejaVuSans-6d" d="M 3328 2828 
Q 3544 3216 3844 3400 
Q 4144 3584 4550 3584 
Q 5097 3584 5394 3201 
Q 5691 2819 5691 2113 
L 5691 0 
L 5113 0 
L 5113 2094 
Q 5113 2597 4934 2840 
Q 4756 3084 4391 3084 
Q 3944 3084 3684 2787 
Q 3425 2491 3425 1978 
L 3425 0 
L 2847 0 
L 2847 2094 
Q 2847 2600 2669 2842 
Q 2491 3084 2119 3084 
Q 1678 3084 1418 2786 
Q 1159 2488 1159 1978 
L 1159 0 
L 581 0 
L 581 3500 
L 1159 3500 
L 1159 2956 
Q 1356 3278 1631 3431 
Q 1906 3584 2284 3584 
Q 2666 3584 2933 3390 
Q 3200 3197 3328 2828 
z
" transform="scale(0.015625)"/>
      <path id="DejaVuSans-69" d="M 603 3500 
L 1178 3500 
L 1178 0 
L 603 0 
L 603 3500 
z
M 603 4863 
L 1178 4863 
L 1178 4134 
L 603 4134 
L 603 4863 
z
" transform="scale(0.015625)"/>
      <path id="DejaVuSans-28" d="M 1984 4856 
Q 1566 4138 1362 3434 
Q 1159 2731 1159 2009 
Q 1159 1288 1364 580 
Q 1569 -128 1984 -844 
L 1484 -844 
Q 1016 -109 783 600 
Q 550 1309 550 2009 
Q 550 2706 781 3412 
Q 1013 4119 1484 4856 
L 1984 4856 
z
" transform="scale(0.015625)"/>
      <path id="DejaVuSans-29" d="M 513 4856 
L 1013 4856 
Q 1481 4119 1714 3412 
Q 1947 2706 1947 2009 
Q 1947 1309 1714 600 
Q 1481 -109 1013 -844 
L 513 -844 
Q 928 -128 1133 580 
Q 1338 1288 1338 2009 
Q 1338 2731 1133 3434 
Q 928 4138 513 4856 
z
" transform="scale(0.015625)"/>
     </defs>
     <use xlink:href="#DejaVuSans-31"/>
     <use xlink:href="#DejaVuSans-20" x="63.623047"/>
     <use xlink:href="#DejaVuSans-74" x="95.410156"/>
     <use xlink:href="#DejaVuSans-72" x="134.619141"/>
     <use xlink:href="#DejaVuSans-61" x="175.732422"/>
     <use xlink:href="#DejaVuSans-6e" x="237.011719"/>
     <use xlink:href="#DejaVuSans-73" x="300.390625"/>
     <use xlink:href="#DejaVuSans-66" x="352.490234"/>
     <use xlink:href="#DejaVuSans-6f" x="387.695312"/>
     <use xlink:href="#DejaVuSans-72" x="448.876953"/>
     <use xlink:href="#DejaVuSans-6d" x="488.240234"/>
     <use xlink:href="#DejaVuSans-61" x="585.652344"/>
     <use xlink:href="#DejaVuSans-74" x="646.931641"/>
     <use xlink:href="#DejaVuSans-69" x="686.140625"/>
     <use xlink:href="#DejaVuSans-6f" x="713.923828"/>
     <use xlink:href="#DejaVuSans-6e" x="775.105469"/>
     <use xlink:href="#DejaVuSans-28" x="838.484375"/>
     <use xlink:href="#DejaVuSans-73" x="877.498047"/>
     <use xlink:href="#DejaVuSans-29" x="929.597656"/>
    </g>
   </g>
   <g id="legend_1">
    <g id="patch_7">
     <path d="M 613.742386 80.79625 
L 695.136136 80.79625 
Q 697.136136 80.79625 697.136136 78.79625 
L 697.136136 50.44 
Q 697.136136 48.44 695.136136 48.44 
L 613.742386 48.44 
Q 611.742386 48.44 611.742386 50.44 
L 611.742386 78.79625 
Q 611.742386 80.79625 613.742386 80.79625 
z
" style="fill: #ffffff; opacity: 0.8; stroke: #cccccc; stroke-linejoin: miter"/>
    </g>
    <g id="line2d_17">
     <path d="M 615.742386 56.538437 
L 625.742386 56.538437 
L 635.742386 56.538437 
" style="fill: none; stroke: #1f77b4; stroke-width: 1.5; stroke-linecap: square"/>
    </g>
    <g id="text_16">
     <!-- observed -->
     <g transform="translate(643.742386 60.038437) scale(0.1 -0.1)">
      <defs>
       <path id="DejaVuSans-62" d="M 3116 1747 
Q 3116 2381 2855 2742 
Q 2594 3103 2138 3103 
Q 1681 3103 1420 2742 
Q 1159 2381 1159 1747 
Q 1159 1113 1420 752 
Q 1681 391 2138 391 
Q 2594 391 2855 752 
Q 3116 1113 3116 1747 
z
M 1159 2969 
Q 1341 3281 1617 3432 
Q 1894 3584 2278 3584 
Q 2916 3584 3314 3078 
Q 3713 2572 3713 1747 
Q 3713 922 3314 415 
Q 2916 -91 2278 -91 
Q 1894 -91 1617 61 
Q 1341 213 1159 525 
L 1159 0 
L 581 0 
L 581 4863 
L 1159 4863 
L 1159 2969 
z
" transform="scale(0.015625)"/>
       <path id="DejaVuSans-65" d="M 3597 1894 
L 3597 1613 
L 953 1613 
Q 991 1019 1311 708 
Q 1631 397 2203 397 
Q 2534 397 2845 478 
Q 3156 559 3463 722 
L 3463 178 
Q 3153 47 2828 -22 
Q 2503 -91 2169 -91 
Q 1331 -91 842 396 
Q 353 884 353 1716 
Q 353 2575 817 3079 
Q 1281 3584 2069 3584 
Q 2775 3584 3186 3129 
Q 3597 2675 3597 1894 
z
M 3022 2063 
Q 3016 2534 2758 2815 
Q 2500 3097 2075 3097 
Q 1594 3097 1305 2825 
Q 1016 2553 972 2059 
L 3022 2063 
z
" transform="scale(0.015625)"/>
       <path id="DejaVuSans-76" d="M 191 3500 
L 800 3500 
L 1894 563 
L 2988 3500 
L 3597 3500 
L 2284 0 
L 1503 0 
L 191 3500 
z
" transform="scale(0.015625)"/>
       <path id="DejaVuSans-64" d="M 2906 2969 
L 2906 4863 
L 3481 4863 
L 3481 0 
L 2906 0 
L 2906 525 
Q 2725 213 2448 61 
Q 2172 -91 1784 -91 
Q 1150 -91 751 415 
Q 353 922 353 1747 
Q 353 2572 751 3078 
Q 1150 3584 1784 3584 
Q 2172 3584 2448 3432 
Q 2725 3281 2906 2969 
z
M 947 1747 
Q 947 1113 1208 752 
Q 1469 391 1925 391 
Q 2381 391 2643 752 
Q 2906 1113 2906 1747 
Q 2906 2381 2643 2742 
Q 2381 3103 1925 3103 
Q 1469 3103 1208 2742 
Q 947 2381 947 1747 
z
" transform="scale(0.015625)"/>
      </defs>
      <use xlink:href="#DejaVuSans-6f"/>
      <use xlink:href="#DejaVuSans-62" x="61.181641"/>
      <use xlink:href="#DejaVuSans-73" x="124.658203"/>
      <use xlink:href="#DejaVuSans-65" x="176.757812"/>
      <use xlink:href="#DejaVuSans-72" x="238.28125"/>
      <use xlink:href="#DejaVuSans-76" x="279.394531"/>
      <use xlink:href="#DejaVuSans-65" x="338.574219"/>
      <use xlink:href="#DejaVuSans-64" x="400.097656"/>
     </g>
    </g>
    <g id="line2d_18">
     <path d="M 615.742386 71.216563 
L 625.742386 71.216563 
L 635.742386 71.216563 
" style="fill: none; stroke: #ff7f0e; stroke-width: 1.5; stroke-linecap: square"/>
    </g>
    <g id="text_17">
     <!-- simulated -->
     <g transform="translate(643.742386 74.716563) scale(0.1 -0.1)">
      <defs>
       <path id="DejaVuSans-75" d="M 544 1381 
L 544 3500 
L 1119 3500 
L 1119 1403 
Q 1119 906 1312 657 
Q 1506 409 1894 409 
Q 2359 409 2629 706 
Q 2900 1003 2900 1516 
L 2900 3500 
L 3475 3500 
L 3475 0 
L 2900 0 
L 2900 538 
Q 2691 219 2414 64 
Q 2138 -91 1772 -91 
Q 1169 -91 856 284 
Q 544 659 544 1381 
z
M 1991 3584 
L 1991 3584 
z
" transform="scale(0.015625)"/>
       <path id="DejaVuSans-6c" d="M 603 4863 
L 1178 4863 
L 1178 0 
L 603 0 
L 603 4863 
z
" transform="scale(0.015625)"/>
      </defs>
      <use xlink:href="#DejaVuSans-73"/>
      <use xlink:href="#DejaVuSans-69" x="52.099609"/>
      <use xlink:href="#DejaVuSans-6d" x="79.882812"/>
      <use xlink:href="#DejaVuSans-75" x="177.294922"/>
      <use xlink:href="#DejaVuSans-6c" x="240.673828"/>
      <use xlink:href="#DejaVuSans-61" x="268.457031"/>
      <use xlink:href="#DejaVuSans-74" x="329.736328"/>
      <use xlink:href="#DejaVuSans-65" x="368.945312"/>
      <use xlink:href="#DejaVuSans-64" x="430.46875"/>
     </g>
    </g>
   </g>
  </g>
  <g id="axes_2">
   <g id="patch_8">
    <path d="M 20.5625 684.92 
L 702.136136 684.92 
L 702.136136 386.16 
L 20.5625 386.16 
z
" style="fill: #ffffff"/>
   </g>
   <g id="matplotlib.axis_3">
    <g id="xtick_7">
     <g id="line2d_19">
      <g>
       <use xlink:href="#m6f1d1425fb" x="51.370957" y="684.92" style="stroke: #000000; stroke-width: 0.8"/>
      </g>
     </g>
     <g id="text_18">
      <!-- 2014-07-01 -->
      <g transform="translate(22.313145 699.518437) scale(0.1 -0.1)">
       <use xlink:href="#DejaVuSans-32"/>
       <use xlink:href="#DejaVuSans-30" x="63.623047"/>
       <use xlink:href="#DejaVuSans-31" x="127.246094"/>
       <use xlink:href="#DejaVuSans-34" x="190.869141"/>
       <use xlink:href="#DejaVuSans-2d" x="254.492188"/>
       <use xlink:href="#DejaVuSans-30" x="290.576172"/>
       <use xlink:href="#DejaVuSans-37" x="354.199219"/>
       <use xlink:href="#DejaVuSans-2d" x="417.822266"/>
       <use xlink:href="#DejaVuSans-30" x="453.90625"/>
       <use xlink:href="#DejaVuSans-31" x="517.529297"/>
      </g>
     </g>
    </g>
    <g id="xtick_8">
     <g id="line2d_20">
      <g>
       <use xlink:href="#m6f1d1425fb" x="175.327869" y="684.92" style="stroke: #000000; stroke-width: 0.8"/>
      </g>
     </g>
     <g id="text_19">
      <!-- 2014-07-02 -->
      <g transform="translate(146.270057 699.518437) scale(0.1 -0.1)">
       <use xlink:href="#DejaVuSans-32"/>
       <use xlink:href="#DejaVuSans-30" x="63.623047"/>
       <use xlink:href="#DejaVuSans-31" x="127.246094"/>
       <use xlink:href="#DejaVuSans-34" x="190.869141"/>
       <use xlink:href="#DejaVuSans-2d" x="254.492188"/>
       <use xlink:href="#DejaVuSans-30" x="290.576172"/>
       <use xlink:href="#DejaVuSans-37" x="354.199219"/>
       <use xlink:href="#DejaVuSans-2d" x="417.822266"/>
       <use xlink:href="#DejaVuSans-30" x="453.90625"/>
       <use xlink:href="#DejaVuSans-32" x="517.529297"/>
      </g>
     </g>
    </g>
    <g id="xtick_9">
     <g id="line2d_21">
      <g>
       <use xlink:href="#m6f1d1425fb" x="299.284781" y="684.92" style="stroke: #000000; stroke-width: 0.8"/>
      </g>
     </g>
     <g id="text_20">
      <!-- 2014-07-03 -->
      <g transform="translate(270.226969 699.518437) scale(0.1 -0.1)">
       <use xlink:href="#DejaVuSans-32"/>
       <use xlink:href="#DejaVuSans-30" x="63.623047"/>
       <use xlink:href="#DejaVuSans-31" x="127.246094"/>
       <use xlink:href="#DejaVuSans-34" x="190.869141"/>
       <use xlink:href="#DejaVuSans-2d" x="254.492188"/>
       <use xlink:href="#DejaVuSans-30" x="290.576172"/>
       <use xlink:href="#DejaVuSans-37" x="354.199219"/>
       <use xlink:href="#DejaVuSans-2d" x="417.822266"/>
       <use xlink:href="#DejaVuSans-30" x="453.90625"/>
       <use xlink:href="#DejaVuSans-33" x="517.529297"/>
      </g>
     </g>
    </g>
    <g id="xtick_10">
     <g id="line2d_22">
      <g>
       <use xlink:href="#m6f1d1425fb" x="423.241693" y="684.92" style="stroke: #000000; stroke-width: 0.8"/>
      </g>
     </g>
     <g id="text_21">
      <!-- 2014-07-04 -->
      <g transform="translate(394.18388 699.518437) scale(0.1 -0.1)">
       <use xlink:href="#DejaVuSans-32"/>
       <use xlink:href="#DejaVuSans-30" x="63.623047"/>
       <use xlink:href="#DejaVuSans-31" x="127.246094"/>
       <use xlink:href="#DejaVuSans-34" x="190.869141"/>
       <use xlink:href="#DejaVuSans-2d" x="254.492188"/>
       <use xlink:href="#DejaVuSans-30" x="290.576172"/>
       <use xlink:href="#DejaVuSans-37" x="354.199219"/>
       <use xlink:href="#DejaVuSans-2d" x="417.822266"/>
       <use xlink:href="#DejaVuSans-30" x="453.90625"/>
       <use xlink:href="#DejaVuSans-34" x="517.529297"/>
      </g>
     </g>
    </g>
    <g id="xtick_11">
     <g id="line2d_23">
      <g>
       <use xlink:href="#m6f1d1425fb" x="547.198605" y="684.92" style="stroke: #000000; stroke-width: 0.8"/>
      </g>
     </g>
     <g id="text_22">
      <!-- 2014-07-05 -->
      <g transform="translate(518.140792 699.518437) scale(0.1 -0.1)">
       <use xlink:href="#DejaVuSans-32"/>
       <use xlink:href="#DejaVuSans-30" x="63.623047"/>
       <use xlink:href="#DejaVuSans-31" x="127.246094"/>
       <use xlink:href="#DejaVuSans-34" x="190.869141"/>
       <use xlink:href="#DejaVuSans-2d" x="254.492188"/>
       <use xlink:href="#DejaVuSans-30" x="290.576172"/>
       <use xlink:href="#DejaVuSans-37" x="354.199219"/>
       <use xlink:href="#DejaVuSans-2d" x="417.822266"/>
       <use xlink:href="#DejaVuSans-30" x="453.90625"/>
       <use xlink:href="#DejaVuSans-35" x="517.529297"/>
      </g>
     </g>
    </g>
    <g id="xtick_12">
     <g id="line2d_24">
      <g>
       <use xlink:href="#m6f1d1425fb" x="671.155517" y="684.92" style="stroke: #000000; stroke-width: 0.8"/>
      </g>
     </g>
     <g id="text_23">
      <!-- 2014-07-06 -->
      <g transform="translate(642.097704 699.518437) scale(0.1 -0.1)">
       <use xlink:href="#DejaVuSans-32"/>
       <use xlink:href="#DejaVuSans-30" x="63.623047"/>
       <use xlink:href="#DejaVuSans-31" x="127.246094"/>
       <use xlink:href="#DejaVuSans-34" x="190.869141"/>
       <use xlink:href="#DejaVuSans-2d" x="254.492188"/>
       <use xlink:href="#DejaVuSans-30" x="290.576172"/>
       <use xlink:href="#DejaVuSans-37" x="354.199219"/>
       <use xlink:href="#DejaVuSans-2d" x="417.822266"/>
       <use xlink:href="#DejaVuSans-30" x="453.90625"/>
       <use xlink:href="#DejaVuSans-36" x="517.529297"/>
      </g>
     </g>
    </g>
   </g>
   <g id="matplotlib.axis_4">
    <g id="ytick_9">
     <g id="line2d_25">
      <g>
       <use xlink:href="#ma8dae9809c" x="20.5625" y="671.320194" style="stroke: #000000; stroke-width: 0.8"/>
      </g>
     </g>
     <g id="text_24">
      <!-- 0 -->
      <g transform="translate(7.2 675.119413) scale(0.1 -0.1)">
       <use xlink:href="#DejaVuSans-30"/>
      </g>
     </g>
    </g>
    <g id="ytick_10">
     <g id="line2d_26">
      <g>
       <use xlink:href="#ma8dae9809c" x="20.5625" y="634.95334" style="stroke: #000000; stroke-width: 0.8"/>
      </g>
     </g>
     <g id="text_25">
      <!-- 1 -->
      <g transform="translate(7.2 638.752559) scale(0.1 -0.1)">
       <use xlink:href="#DejaVuSans-31"/>
      </g>
     </g>
    </g>
    <g id="ytick_11">
     <g id="line2d_27">
      <g>
       <use xlink:href="#ma8dae9809c" x="20.5625" y="598.586487" style="stroke: #000000; stroke-width: 0.8"/>
      </g>
     </g>
     <g id="text_26">
      <!-- 2 -->
      <g transform="translate(7.2 602.385705) scale(0.1 -0.1)">
       <use xlink:href="#DejaVuSans-32"/>
      </g>
     </g>
    </g>
    <g id="ytick_12">
     <g id="line2d_28">
      <g>
       <use xlink:href="#ma8dae9809c" x="20.5625" y="562.219633" style="stroke: #000000; stroke-width: 0.8"/>
      </g>
     </g>
     <g id="text_27">
      <!-- 3 -->
      <g transform="translate(7.2 566.018852) scale(0.1 -0.1)">
       <use xlink:href="#DejaVuSans-33"/>
      </g>
     </g>
    </g>
    <g id="ytick_13">
     <g id="line2d_29">
      <g>
       <use xlink:href="#ma8dae9809c" x="20.5625" y="525.852779" style="stroke: #000000; stroke-width: 0.8"/>
      </g>
     </g>
     <g id="text_28">
      <!-- 4 -->
      <g transform="translate(7.2 529.651998) scale(0.1 -0.1)">
       <use xlink:href="#DejaVuSans-34"/>
      </g>
     </g>
    </g>
    <g id="ytick_14">
     <g id="line2d_30">
      <g>
       <use xlink:href="#ma8dae9809c" x="20.5625" y="489.485925" style="stroke: #000000; stroke-width: 0.8"/>
      </g>
     </g>
     <g id="text_29">
      <!-- 5 -->
      <g transform="translate(7.2 493.285144) scale(0.1 -0.1)">
       <use xlink:href="#DejaVuSans-35"/>
      </g>
     </g>
    </g>
    <g id="ytick_15">
     <g id="line2d_31">
      <g>
       <use xlink:href="#ma8dae9809c" x="20.5625" y="453.119072" style="stroke: #000000; stroke-width: 0.8"/>
      </g>
     </g>
     <g id="text_30">
      <!-- 6 -->
      <g transform="translate(7.2 456.91829) scale(0.1 -0.1)">
       <use xlink:href="#DejaVuSans-36"/>
      </g>
     </g>
    </g>
    <g id="ytick_16">
     <g id="line2d_32">
      <g>
       <use xlink:href="#ma8dae9809c" x="20.5625" y="416.752218" style="stroke: #000000; stroke-width: 0.8"/>
      </g>
     </g>
     <g id="text_31">
      <!-- 7 -->
      <g transform="translate(7.2 420.551437) scale(0.1 -0.1)">
       <use xlink:href="#DejaVuSans-37"/>
      </g>
     </g>
    </g>
   </g>
   <g id="line2d_33">
    <path d="M 51.54312 671.320194 
L 51.801363 671.23433 
L 53.350825 669.886985 
L 54.039474 669.339084 
L 55.675017 667.614076 
L 56.535829 666.816814 
L 57.482722 666.311625 
L 59.204346 665.849316 
L 59.892995 665.898278 
L 60.581645 666.192951 
L 64.369217 668.164139 
L 65.143948 668.288323 
L 65.574354 668.201867 
L 66.090841 667.882154 
L 66.607328 667.219607 
L 67.812465 664.686762 
L 68.587195 661.336013 
L 69.017601 658.38931 
L 69.361926 655.815585 
L 69.534088 654.545924 
L 69.792332 652.559995 
L 70.222738 651.2037 
L 70.480981 650.432751 
L 70.653144 650.370061 
L 70.739225 650.202353 
L 70.997468 648.920326 
L 71.255712 648.746581 
L 71.341793 648.554085 
L 71.600037 647.308764 
L 71.85828 647.232984 
L 71.944362 647.005965 
L 72.288686 644.505526 
L 72.54693 643.222322 
L 72.805173 641.26814 
L 73.063417 640.84906 
L 73.235579 641.417451 
L 73.407742 640.784855 
L 73.752067 641.182588 
L 73.838148 641.201388 
L 74.01031 640.189859 
L 74.440716 640.303246 
L 74.612878 639.462584 
L 75.043284 639.953409 
L 75.215447 639.229582 
L 75.645853 639.874395 
L 75.818015 639.171822 
L 76.16234 639.705415 
L 76.334502 640.679042 
L 76.506665 640.294474 
L 76.850989 640.93458 
L 76.937071 641.008795 
L 77.109233 640.058368 
L 77.195314 640.096662 
L 77.539639 640.236736 
L 77.711801 639.40631 
L 78.142207 639.937848 
L 78.31437 639.21171 
L 78.744775 639.933404 
L 78.916938 639.676637 
L 79.261263 640.859708 
L 79.519506 642.403512 
L 79.691669 643.046234 
L 80.035993 644.570848 
L 80.208156 644.714096 
L 80.55248 646.058436 
L 80.638562 644.902273 
L 80.896805 634.51553 
L 81.155049 626.13213 
L 81.327211 627.853279 
L 81.499374 629.763098 
L 81.757617 625.47623 
L 81.843698 625.899851 
L 81.929779 621.179153 
L 82.101942 623.005891 
L 82.188023 620.145972 
L 82.274104 620.800398 
L 82.446267 618.390389 
L 82.532348 619.288101 
L 82.618429 618.998722 
L 82.876673 617.574079 
L 82.962754 617.884766 
L 83.048835 617.776393 
L 83.220997 616.720491 
L 83.39316 617.408533 
L 83.565322 615.990927 
L 83.737484 616.960635 
L 83.909647 615.889542 
L 84.081809 617.391938 
L 84.253972 615.769841 
L 84.340053 615.732233 
L 84.426134 610.796909 
L 84.598296 613.114698 
L 84.770459 599.799308 
L 84.85654 601.142031 
L 85.200865 552.3331 
L 85.373027 525.226715 
L 86.406001 423.913645 
L 86.578164 424.916098 
L 86.750326 423.509546 
L 86.922488 421.005704 
L 87.352894 423.38202 
L 87.438976 421.90118 
L 87.525057 422.12233 
L 87.955463 425.249826 
L 88.127625 425.942168 
L 88.558031 431.265737 
L 88.816275 436.477023 
L 88.902356 437.465221 
L 89.074518 436.271826 
L 89.246681 438.902362 
L 89.418843 440.069676 
L 89.504924 440.09404 
L 89.677086 438.990957 
L 89.849249 441.758123 
L 90.021411 443.020987 
L 90.107492 443.139478 
L 90.279655 442.559125 
L 90.710061 446.614472 
L 90.882223 446.381165 
L 91.312629 450.136148 
L 91.484791 450.250564 
L 91.656954 452.477972 
L 91.915197 455.68959 
L 92.259522 456.732794 
L 92.431684 458.586936 
L 92.517766 458.358259 
L 92.603847 458.412242 
L 93.378578 461.683391 
L 93.464659 461.942085 
L 93.636821 463.522533 
L 93.722902 463.439417 
L 93.808984 463.579741 
L 94.239389 465.97149 
L 94.325471 465.90849 
L 94.411552 466.017201 
L 94.841958 468.299806 
L 94.928039 468.550419 
L 95.100201 467.703759 
L 95.186283 467.905817 
L 95.272364 467.806713 
L 95.358445 467.445325 
L 95.530607 467.658932 
L 95.788851 465.316848 
L 95.961013 463.923909 
L 96.047094 464.20754 
L 96.133176 464.298962 
L 96.4775 458.100779 
L 96.563582 457.100147 
L 96.649663 457.833397 
L 96.735744 457.170118 
L 97.080069 444.083491 
L 97.16615 443.416918 
L 97.252231 444.312151 
L 97.338312 442.277749 
L 97.596556 426.335585 
L 97.768718 424.477334 
L 97.940881 425.561862 
L 98.113043 429.695244 
L 99.059936 462.344953 
L 99.490342 468.231656 
L 99.920748 471.700285 
L 100.523316 473.934647 
L 100.78156 474.490619 
L 101.384128 475.213117 
L 102.503184 476.909681 
L 103.536158 478.736042 
L 104.138726 479.46454 
L 106.290756 480.600259 
L 108.01238 481.658497 
L 111.799952 483.485188 
L 113.435495 483.846888 
L 113.521576 483.768905 
L 113.693738 483.405506 
L 113.779819 483.489038 
L 113.8659 483.306592 
L 114.124144 482.175209 
L 114.296306 481.466289 
L 114.55455 480.335374 
L 114.726712 479.160898 
L 114.984956 475.819118 
L 115.071037 475.377944 
L 115.501443 476.255246 
L 115.673605 476.447663 
L 115.931849 476.900108 
L 116.276174 477.306566 
L 116.620499 477.71304 
L 117.050904 477.917977 
L 117.309148 478.064786 
L 117.653473 478.107879 
L 117.911716 478.14844 
L 118.256041 478.086532 
L 118.514285 478.067249 
L 118.772528 477.956491 
L 119.202934 477.843324 
L 119.547259 477.802694 
L 119.805503 477.779647 
L 120.063746 477.704664 
L 120.408071 477.707248 
L 120.666314 477.588601 
L 121.010639 477.528497 
L 121.268883 477.378895 
L 121.613207 477.294444 
L 121.871451 477.145953 
L 122.215776 477.071039 
L 122.474019 476.933247 
L 123.506994 476.83227 
L 123.679156 476.691582 
L 124.023481 476.714212 
L 124.367806 476.46079 
L 124.71213 476.331009 
L 124.884293 476.190893 
L 125.228617 476.221916 
L 125.486861 475.961558 
L 125.917267 476.04065 
L 126.17551 475.879136 
L 126.519835 475.989702 
L 126.778079 475.720812 
L 127.036322 475.768326 
L 127.122404 475.748471 
L 127.380647 475.431355 
L 127.638891 475.472141 
L 127.724972 475.459586 
L 127.983215 475.151574 
L 128.241459 475.209614 
L 128.32754 475.2011 
L 128.585784 474.904446 
L 128.930109 475.02977 
L 129.102271 474.917868 
L 129.274433 474.858857 
L 129.532677 474.990683 
L 129.618758 474.975735 
L 129.877002 474.654024 
L 130.049164 474.700619 
L 130.221326 474.674001 
L 130.393489 474.266399 
L 130.47957 474.309457 
L 130.651732 474.351318 
L 131.082138 474.471943 
L 132.201194 476.529044 
L 133.750655 479.404973 
L 134.525386 479.905627 
L 135.041873 480.306518 
L 137.107821 482.639291 
L 140.378907 486.914436 
L 140.63715 487.007748 
L 140.895394 486.933997 
L 141.153637 486.736933 
L 142.272693 485.053427 
L 143.305667 484.312062 
L 144.25256 483.905518 
L 144.682966 483.544373 
L 145.285534 483.120037 
L 145.543778 482.965251 
L 146.40459 482.325764 
L 147.265402 481.145202 
L 148.126214 479.480268 
L 148.55662 477.156895 
L 149.159188 477.342635 
L 149.503513 477.577867 
L 149.675675 477.42719 
L 149.933919 477.420375 
L 150.106081 477.393895 
L 150.278243 477.351219 
L 150.622568 477.555254 
L 151.311218 477.906393 
L 152.344192 476.331235 
L 152.602435 476.276818 
L 152.774598 476.225367 
L 153.205004 476.381472 
L 153.377166 476.363125 
L 154.151897 476.946236 
L 155.615277 478.96595 
L 155.787439 478.901458 
L 156.476089 478.149602 
L 156.820414 477.826694 
L 156.992576 477.579549 
L 157.25082 477.145051 
L 157.939469 476.751773 
L 158.369875 477.164993 
L 159.316768 478.470463 
L 159.488931 478.210469 
L 160.86623 476.002639 
L 161.210554 475.933743 
L 161.468798 475.47573 
L 162.071366 475.57865 
L 163.706909 477.979989 
L 164.309477 478.142943 
L 165.170289 477.266057 
L 165.428533 477.316467 
L 165.94502 477.816757 
L 166.375426 478.297746 
L 166.977994 478.504261 
L 167.494481 478.16859 
L 167.838806 477.486843 
L 168.269212 477.040814 
L 168.527455 477.136016 
L 168.699618 477.152681 
L 168.87178 477.086438 
L 169.302186 477.169779 
L 169.732592 476.662692 
L 169.904754 476.52842 
L 170.162998 476.098604 
L 170.679485 476.14435 
L 171.626378 477.354201 
L 173.17584 479.059799 
L 173.692327 479.332973 
L 173.864489 479.08432 
L 174.208814 478.535752 
L 174.983545 476.515102 
L 175.327869 476.184304 
L 175.758275 476.17187 
L 176.705168 476.983363 
L 177.393818 476.255263 
L 177.56598 475.851945 
L 177.910305 475.597153 
L 178.168549 475.372412 
L 179.201523 475.961887 
L 179.459766 476.007668 
L 179.890172 476.369662 
L 180.062335 476.431414 
L 180.406659 476.705958 
L 180.837065 476.266136 
L 181.267471 476.052702 
L 181.611796 476.409027 
L 182.386527 477.186826 
L 182.64477 477.24686 
L 182.989095 477.338716 
L 183.247339 477.286693 
L 183.677745 477.447323 
L 184.452475 477.910936 
L 184.968962 477.963463 
L 185.313287 478.067873 
L 185.829774 478.519989 
L 186.088018 478.687192 
L 186.432343 478.365949 
L 186.604505 478.192625 
L 187.293155 476.061199 
L 187.465317 475.915812 
L 187.72356 476.110968 
L 188.584372 477.376051 
L 189.014778 477.695977 
L 189.186941 477.752491 
L 189.445184 477.74311 
L 189.703428 477.773127 
L 190.650321 476.099974 
L 190.822483 476.062656 
L 191.166808 476.342246 
L 191.597214 477.135323 
L 192.802351 479.518037 
L 193.577081 480.04335 
L 194.95438 481.452919 
L 196.762085 483.716466 
L 198.741953 486.427967 
L 199.688846 487.76205 
L 200.893982 489.310434 
L 201.066145 488.25901 
L 201.152226 488.797069 
L 201.238307 488.650728 
L 201.754794 478.006382 
L 201.926957 464.9852 
L 202.1852 462.074068 
L 202.443444 461.751524 
L 202.529525 461.744033 
L 202.701687 462.937532 
L 202.87385 461.071581 
L 202.959931 461.190645 
L 203.132093 460.446279 
L 203.390337 462.642387 
L 203.562499 461.457593 
L 203.64858 461.54957 
L 203.820743 460.809124 
L 203.992905 462.008935 
L 204.165068 460.41862 
L 204.251149 460.537407 
L 204.423311 460.12162 
L 204.595473 461.608252 
L 204.767636 460.639407 
L 204.853717 460.951165 
L 204.939798 460.909772 
L 205.025879 460.982881 
L 205.198042 462.511514 
L 205.370204 461.941357 
L 205.542367 462.459525 
L 205.628448 462.588976 
L 205.80061 464.089586 
L 205.972772 463.7741 
L 206.747503 467.384874 
L 207.091828 468.724385 
L 207.177909 468.599304 
L 207.26399 468.544853 
L 207.436153 469.162437 
L 207.522234 469.171264 
L 207.694396 469.804248 
L 207.866559 469.649114 
L 208.038721 470.217 
L 208.124802 470.219046 
L 208.296965 470.680214 
L 208.469127 470.527925 
L 208.727371 471.04344 
L 208.899533 471.39125 
L 209.071695 471.23447 
L 209.329939 471.704256 
L 210.10467 472.84209 
L 210.190751 472.91964 
L 210.362913 472.759738 
L 210.621157 473.104964 
L 210.793319 473.259993 
L 210.965481 473.099311 
L 211.309806 473.546814 
L 211.395887 473.498866 
L 211.654131 472.33776 
L 211.740212 472.297494 
L 212.084537 470.045653 
L 212.256699 469.128709 
L 212.34278 468.846379 
L 212.514943 467.882424 
L 212.601024 468.362875 
L 212.687105 468.003517 
L 212.859268 465.368264 
L 212.945349 465.57223 
L 213.289674 463.418035 
L 213.461836 458.348721 
L 213.547917 457.97549 
L 213.720079 454.986826 
L 213.806161 456.465846 
L 213.892242 453.862726 
L 214.236567 426.713846 
L 214.322648 426.218759 
L 214.408729 426.542482 
L 214.580891 429.259567 
L 214.839135 439.33216 
L 215.18346 455.711405 
L 215.613866 465.271102 
L 216.044272 470.960879 
L 216.388596 473.556005 
L 216.905083 475.669499 
L 217.335489 476.52294 
L 217.765895 477.048565 
L 218.626707 477.982642 
L 219.831844 479.639928 
L 220.520493 480.111188 
L 222.156036 481.803191 
L 223.447254 483.441159 
L 224.308066 484.568137 
L 225.599284 486.330788 
L 228.526044 490.004579 
L 228.95645 490.122724 
L 229.386856 490.044932 
L 230.764155 489.586902 
L 231.280642 489.421382 
L 232.485779 488.209658 
L 233.002266 487.279951 
L 234.72389 483.434743 
L 234.982133 482.530458 
L 235.756864 479.606164 
L 236.101189 475.32906 
L 236.359432 475.192169 
L 237.994975 477.554907 
L 238.167137 477.53767 
L 238.425381 477.320699 
L 238.683624 477.169814 
L 239.200111 476.096055 
L 239.716598 475.581355 
L 240.060923 475.832575 
L 240.749573 476.815813 
L 241.26606 476.964773 
L 241.524303 476.752623 
L 241.954709 476.685183 
L 242.299034 476.97386 
L 242.385115 477.035976 
L 243.073765 476.349339 
L 243.332008 475.810014 
L 243.676333 475.507499 
L 243.848496 475.569216 
L 244.19282 476.123957 
L 244.364983 476.277026 
L 244.537145 476.323899 
L 244.795389 476.526599 
L 244.88147 476.509674 
L 245.311876 475.700176 
L 245.6562 475.310279 
L 245.914444 475.521407 
L 246.517012 476.639299 
L 247.291743 478.200619 
L 247.463905 478.346839 
L 247.80823 478.235527 
L 248.066474 478.12007 
L 248.410799 477.888029 
L 248.755123 477.979104 
L 249.27161 478.348972 
L 249.615935 478.142526 
L 249.874179 477.971752 
L 250.390666 476.760426 
L 250.821072 476.132992 
L 251.251478 476.165385 
L 252.284452 476.805946 
L 252.628777 476.848345 
L 252.973102 477.051791 
L 253.403507 476.638432 
L 253.57567 476.489038 
L 253.919995 475.855864 
L 254.436482 475.570517 
L 254.866888 475.839719 
L 255.03905 475.87924 
L 255.383375 476.165072 
L 255.641618 476.184286 
L 256.50243 477.038559 
L 256.674593 477.244779 
L 257.793648 476.969577 
L 258.826622 477.872925 
L 259.170947 478.232891 
L 259.601353 477.692422 
L 259.773515 477.472658 
L 260.203921 476.568755 
L 260.634327 476.31868 
L 261.064733 476.467466 
L 261.236896 476.302206 
L 261.495139 476.284761 
L 261.925545 476.211651 
L 262.872438 476.788952 
L 263.302844 476.487061 
L 263.475007 476.397477 
L 263.819331 475.67321 
L 264.077575 475.331071 
L 264.335818 474.645371 
L 264.507981 474.542608 
L 264.766224 474.500989 
L 264.938387 474.72488 
L 266.746092 478.273989 
L 267.262579 478.721926 
L 268.553797 476.971484 
L 268.81204 476.499356 
L 269.070284 476.204177 
L 269.414609 475.360222 
L 269.931096 474.744302 
L 270.447583 475.243377 
L 271.566638 477.521664 
L 272.169207 477.646468 
L 272.599613 477.674127 
L 272.771775 477.760191 
L 273.374343 477.055536 
L 273.804749 475.859627 
L 274.149074 475.462586 
L 274.407318 475.704147 
L 275.009886 476.533241 
L 275.268129 476.790599 
L 275.784617 476.271859 
L 276.215022 475.978933 
L 276.473266 476.111176 
L 276.73151 475.764563 
L 276.903672 475.759101 
L 277.161916 475.570759 
L 277.334078 475.483135 
L 277.764484 475.846604 
L 278.19489 476.664547 
L 279.400026 479.30306 
L 279.65827 479.540615 
L 280.777326 480.386599 
L 284.650979 485.079838 
L 285.856116 486.731817 
L 287.233415 488.228993 
L 288.008145 488.43745 
L 288.696795 488.666265 
L 289.299363 489.063445 
L 289.901932 489.57329 
L 294.292072 494.077476 
L 295.58329 495.368449 
L 297.649238 497.3814 
L 298.165726 497.521256 
L 298.768294 497.250163 
L 299.543025 496.089664 
L 300.145593 494.801379 
L 301.608973 489.502521 
L 302.12546 486.927927 
L 302.555866 484.563872 
L 302.81411 482.980667 
L 303.158435 480.078188 
L 303.244516 478.660105 
L 303.502759 470.811469 
L 303.588841 470.114046 
L 303.674922 470.36563 
L 303.761003 470.211104 
L 303.933165 469.413692 
L 304.019246 469.700756 
L 304.105328 469.634808 
L 304.191409 469.456559 
L 304.363571 469.679115 
L 304.535734 469.072541 
L 304.707896 469.456316 
L 304.793977 469.294247 
L 304.96614 469.578831 
L 305.138302 468.996067 
L 305.310464 469.433929 
L 305.396545 469.243594 
L 305.482627 469.406721 
L 305.654789 469.938693 
L 305.826951 469.551467 
L 305.999114 469.959918 
L 306.085195 469.842086 
L 306.257357 470.031762 
L 306.42952 469.344848 
L 306.601682 469.691878 
L 306.687763 469.468369 
L 306.859926 469.715756 
L 307.032088 469.059882 
L 307.20425 469.49927 
L 307.290332 469.294663 
L 307.462494 469.601773 
L 307.634656 468.994524 
L 307.806819 469.444958 
L 307.8929 469.241287 
L 308.065062 469.565791 
L 308.237225 468.977634 
L 308.409387 469.423386 
L 308.495468 469.232079 
L 308.581549 469.379166 
L 308.753712 469.942872 
L 308.925874 469.570091 
L 309.098037 469.9646 
L 309.184118 469.849941 
L 309.35628 470.0863 
L 309.528443 469.655219 
L 309.700605 470.094624 
L 309.786686 470.00034 
L 309.958848 470.377526 
L 310.131011 470.211485 
L 310.303173 470.770769 
L 310.389254 470.784972 
L 310.561417 471.211076 
L 310.647498 471.163007 
L 310.733579 471.230932 
L 310.991823 471.859181 
L 311.077904 472.03032 
L 311.163985 471.359915 
L 311.422229 466.573208 
L 311.680472 462.384855 
L 311.938716 464.736147 
L 312.369122 469.762508 
L 312.97169 473.751057 
L 313.66034 476.402454 
L 314.521151 478.348417 
L 315.209801 479.379534 
L 315.984532 479.696321 
L 317.878318 480.329686 
L 318.73913 480.58023 
L 322.440621 481.126334 
L 323.81792 482.056423 
L 326.142112 484.607918 
L 327.691573 486.536158 
L 329.327116 488.626259 
L 332.598201 493.007757 
L 334.491987 495.625027 
L 336.041449 497.76469 
L 337.676991 500.053277 
L 339.915102 503.180027 
L 342.755781 507.127496 
L 343.35835 507.936405 
L 357.561746 527.107657 
L 359.111207 529.211224 
L 360.0581 530.471217 
L 361.177156 531.985526 
L 363.243104 534.737501 
L 364.792566 536.807305 
L 366.169865 538.617573 
L 368.924463 542.245342 
L 371.851223 546.055409 
L 373.05636 547.621628 
L 374.089334 548.947526 
L 377.790825 553.679868 
L 378.995962 555.198634 
L 388.637055 567.185724 
L 390.186516 569.066198 
L 392.080303 571.366014 
L 407.660998 589.679308 
L 412.223301 594.863299 
L 414.805736 597.757237 
L 417.732497 601.016555 
L 419.540202 603.005363 
L 421.175744 604.80743 
L 425.307641 609.30722 
L 437.359008 622.156175 
L 464.818907 650.176929 
L 468.606479 653.88493 
L 475.92338 660.939044 
L 484.187175 668.77237 
L 486.76961 671.014448 
L 487.544341 671.198368 
L 489.265965 671.29715 
L 497.701921 671.313637 
L 505.535309 671.315024 
L 511.38883 671.301206 
L 547.284686 671.30105 
L 576.380128 671.301408 
L 671.155517 671.301134 
L 671.155517 671.301134 
" clip-path="url(#p3fafd3d595)" style="fill: none; stroke: #1f77b4; stroke-width: 1.5; stroke-linecap: square"/>
   </g>
   <g id="line2d_34">
    <path d="M 51.54312 671.320194 
L 52.920419 671.229122 
L 54.46988 670.626564 
L 55.330692 670.211838 
L 57.224478 668.903824 
L 59.204346 667.075671 
L 60.23732 666.200708 
L 62.045025 664.990557 
L 65.402191 662.787767 
L 66.349084 661.688171 
L 68.24287 658.097722 
L 70.222738 651.65295 
L 71.513956 646.147988 
L 72.54693 640.510926 
L 73.493823 633.023732 
L 74.182472 627.819572 
L 78.056126 595.958021 
L 78.830857 589.494598 
L 79.605587 583.49101 
L 80.55248 577.902892 
L 80.638562 577.745776 
L 81.068968 574.621503 
L 81.327211 568.950402 
L 81.671536 562.242249 
L 82.015861 559.775157 
L 82.618429 557.453575 
L 84.16789 552.328585 
L 84.340053 552.400674 
L 84.684378 551.17106 
L 84.85654 547.441746 
L 85.373027 521.701025 
L 85.889514 496.066894 
L 86.233839 486.229725 
L 86.664245 472.497111 
L 87.525057 452.747782 
L 87.869381 448.329474 
L 88.644112 442.529392 
L 88.816275 441.929521 
L 88.902356 442.019284 
L 89.677086 445.068379 
L 89.763168 445.279648 
L 90.107492 446.680451 
L 90.710061 450.269144 
L 91.743035 458.190232 
L 93.206415 471.434627 
L 95.186283 486.288585 
L 95.70277 489.331254 
L 96.305338 491.263763 
L 96.4775 491.6391 
L 96.563582 491.51475 
L 96.735744 492.035596 
L 96.907906 491.632444 
L 97.080069 491.517836 
L 97.768718 485.862719 
L 98.371287 468.596395 
L 98.457368 468.763484 
L 98.715611 471.253831 
L 100.006829 485.445221 
L 100.867641 492.056141 
L 101.814534 497.148134 
L 102.761427 500.505675 
L 103.363995 501.949595 
L 103.880483 502.765448 
L 104.483051 503.308333 
L 104.999538 503.505618 
L 105.602106 503.466378 
L 106.376837 503.104907 
L 107.581974 502.105912 
L 109.131435 500.472434 
L 110.680897 498.737735 
L 112.746845 496.742698 
L 113.435495 496.289978 
L 113.521576 496.380507 
L 113.951982 495.743722 
L 114.210225 494.538216 
L 114.55455 493.03087 
L 114.898875 492.489224 
L 115.501443 492.059306 
L 116.534417 491.480431 
L 117.395229 491.110212 
L 118.858609 490.518867 
L 119.202934 490.414149 
L 120.149827 490.126081 
L 120.408071 490.0934 
L 121.441045 489.802542 
L 121.699289 489.711162 
L 123.076588 489.300716 
L 124.109562 489.034675 
L 125.056455 488.626609 
L 125.314699 488.550002 
L 126.089429 488.169931 
L 127.294566 487.596099 
L 130.47957 485.105897 
L 131.512544 484.158737 
L 131.94295 484.115962 
L 132.717681 484.416851 
L 133.578493 484.971513 
L 134.869711 486.092592 
L 136.505253 487.826588 
L 138.571202 490.368922 
L 140.206744 492.385735 
L 140.809313 492.390342 
L 141.239719 492.267215 
L 142.444855 492.645059 
L 143.305667 493.433519 
L 144.25256 493.874502 
L 144.855128 494.116254 
L 145.629859 494.502122 
L 145.974184 494.774466 
L 146.40459 494.965725 
L 148.126214 494.779553 
L 148.470538 494.841988 
L 149.33135 495.080829 
L 149.589594 495.223009 
L 149.933919 495.278514 
L 150.536487 495.155377 
L 151.052974 495.496826 
L 151.225136 495.622365 
L 151.397299 495.672958 
L 151.827705 495.563141 
L 152.602435 495.114549 
L 154.237978 494.96709 
L 155.529196 495.689027 
L 155.787439 495.852378 
L 156.131764 495.919588 
L 156.992576 495.805144 
L 157.422982 495.791932 
L 158.111632 495.495734 
L 158.542037 495.651642 
L 159.402849 496.228667 
L 159.747174 496.231298 
L 160.521905 495.717232 
L 160.694067 495.658923 
L 161.727041 495.035073 
L 162.243529 494.610631 
L 162.932178 494.829169 
L 163.620828 494.965911 
L 163.965152 495.140209 
L 164.395558 495.208988 
L 165.428533 494.920058 
L 166.031101 495.151709 
L 166.461507 495.435856 
L 166.977994 495.553649 
L 167.322319 495.613807 
L 167.494481 495.640064 
L 168.010968 495.489058 
L 168.441374 495.274254 
L 168.87178 495.502334 
L 169.302186 495.551342 
L 169.732592 495.338528 
L 169.990836 495.219699 
L 170.593404 494.841457 
L 170.937729 494.764 
L 171.626378 495.026499 
L 172.745434 495.357117 
L 173.95057 495.960753 
L 174.897463 495.63762 
L 175.930438 495.147731 
L 176.360844 495.258991 
L 176.963412 495.280149 
L 177.393818 495.093277 
L 178.426792 494.191068 
L 178.771117 494.133254 
L 179.287604 493.941946 
L 179.631929 493.755606 
L 180.148416 493.737954 
L 180.320578 493.776338 
L 180.492741 493.764568 
L 181.009228 493.459583 
L 181.439634 493.084093 
L 181.611796 493.095916 
L 182.214364 493.258492 
L 182.472608 493.254183 
L 183.935988 493.202785 
L 184.280313 493.440168 
L 184.710719 493.509153 
L 185.227206 493.462566 
L 185.829774 493.736195 
L 186.174099 494.058324 
L 186.604505 494.162638 
L 187.465317 493.190761 
L 187.72356 493.106772 
L 189.100859 493.616571 
L 189.531265 493.627141 
L 189.789509 493.761274 
L 190.219915 493.662085 
L 191.252889 493.027435 
L 191.683295 493.242201 
L 192.888432 494.202569 
L 194.696137 495.917623 
L 196.848166 498.29339 
L 199.861008 501.978785 
L 200.72182 503.018604 
L 200.893982 503.647167 
L 201.238307 503.374921 
L 201.410469 502.351815 
L 201.668713 498.201761 
L 203.132093 476.140114 
L 203.64858 470.695366 
L 204.078986 467.714471 
L 204.681555 463.417519 
L 205.111961 461.009853 
L 206.403178 455.999492 
L 207.005747 455.191883 
L 207.091828 455.180177 
L 207.436153 454.624284 
L 207.608315 454.504885 
L 207.694396 454.491924 
L 207.95264 454.120636 
L 208.727371 453.796619 
L 208.899533 453.931851 
L 209.157776 453.82421 
L 209.760345 453.994713 
L 210.10467 454.338712 
L 210.276832 454.461525 
L 210.621157 454.624263 
L 210.8794 454.851524 
L 211.223725 455.026677 
L 211.481969 455.496543 
L 211.740212 455.664314 
L 211.826293 455.586167 
L 211.998456 455.758926 
L 213.203592 451.733384 
L 213.375755 450.233996 
L 213.720079 446.268987 
L 214.150485 436.608087 
L 214.322648 431.579727 
L 215.011297 399.74 
L 215.097378 399.90735 
L 215.355622 401.889435 
L 216.819002 415.440102 
L 217.765895 422.165448 
L 218.884951 428.496867 
L 220.004006 433.828855 
L 221.209143 438.532763 
L 222.672523 443.330416 
L 224.566309 448.725916 
L 227.234826 455.621584 
L 228.784287 458.890711 
L 229.472937 460.044617 
L 230.41983 462.008268 
L 231.022398 463.186573 
L 232.57186 465.550887 
L 232.916185 465.882659 
L 233.776996 467.169674 
L 234.465646 467.757884 
L 234.896052 468.058956 
L 235.068214 468.120353 
L 235.49862 468.267649 
L 235.842945 468.351293 
L 236.531594 468.820792 
L 237.134163 469.568921 
L 238.769705 471.686895 
L 240.319167 472.412518 
L 240.663492 472.984316 
L 241.179979 473.611302 
L 241.610385 473.768536 
L 242.212953 474.206341 
L 242.557278 474.744059 
L 242.987684 475.140275 
L 243.41809 475.039058 
L 243.934577 475.002664 
L 244.19282 475.288979 
L 244.537145 475.727525 
L 244.967551 476.07604 
L 245.484038 475.996029 
L 245.828363 475.853803 
L 246.086606 476.006334 
L 246.603094 476.560308 
L 247.894311 478.195556 
L 248.49688 478.428873 
L 249.099448 479.244445 
L 249.443773 479.698005 
L 249.874179 480.022098 
L 250.132422 480.025149 
L 250.562828 480.068536 
L 250.907153 480.072564 
L 252.456614 481.051494 
L 252.88702 481.368168 
L 253.145264 481.572136 
L 253.57567 481.779495 
L 254.006076 481.596574 
L 255.211212 481.83228 
L 255.555537 481.936755 
L 256.158106 482.15923 
L 256.50243 482.389057 
L 256.846755 482.77785 
L 257.19108 482.941524 
L 257.793648 482.951494 
L 259.773515 484.511842 
L 260.203921 484.278181 
L 260.892571 484.487092 
L 261.150814 484.637195 
L 261.58122 484.689617 
L 261.925545 484.558403 
L 262.183789 484.677749 
L 262.528113 484.913061 
L 262.958519 485.115674 
L 263.388925 485.16351 
L 263.561088 485.154616 
L 264.249737 484.8066 
L 265.110549 484.078513 
L 265.368793 484.212106 
L 266.315686 484.862318 
L 267.004335 485.473323 
L 267.34866 485.786402 
L 267.779066 485.939456 
L 268.209472 485.855798 
L 268.381634 485.924145 
L 268.639878 485.998629 
L 269.070284 486.079532 
L 269.50069 485.707535 
L 269.758933 485.498987 
L 270.189339 485.186205 
L 270.619745 485.090842 
L 270.96407 485.306938 
L 272.083125 486.049544 
L 272.599613 486.055814 
L 272.943937 486.409748 
L 273.374343 486.576507 
L 274.062993 485.927685 
L 274.321236 485.769695 
L 274.57948 485.864254 
L 275.009886 486.15061 
L 275.698535 486.258222 
L 275.956779 486.100881 
L 276.301104 485.9236 
L 276.559347 486.065722 
L 276.989753 486.058497 
L 277.936646 485.651854 
L 278.367052 485.928045 
L 279.572189 487.123352 
L 281.465975 489.310849 
L 283.790167 492.35382 
L 286.286522 495.957197 
L 286.544765 496.327349 
L 286.88909 496.548781 
L 287.405577 496.439442 
L 287.749902 496.745043 
L 289.213282 498.611108 
L 292.65653 502.970553 
L 293.086935 503.267447 
L 294.033829 504.393529 
L 296.702345 507.560686 
L 297.73532 508.329045 
L 298.768294 508.650296 
L 299.284781 508.49963 
L 299.543025 508.455767 
L 300.66208 507.870105 
L 301.092486 507.286917 
L 301.264648 507.171383 
L 301.695054 506.426925 
L 301.867217 506.259711 
L 302.383704 505.156637 
L 302.555866 505.007798 
L 303.502759 501.800881 
L 305.913033 490.102925 
L 306.42952 488.061694 
L 308.581549 478.731967 
L 310.647498 472.542827 
L 310.991823 471.847784 
L 311.163985 472.276129 
L 311.594391 471.098282 
L 311.852635 466.614951 
L 312.196959 461.669287 
L 312.455203 461.015845 
L 312.627365 461.017697 
L 312.97169 461.371881 
L 313.832502 462.62991 
L 315.037639 464.283809 
L 317.620074 467.210946 
L 321.579809 471.595885 
L 323.12927 473.819604 
L 325.367381 477.495852 
L 329.843603 485.391544 
L 336.902261 498.085947 
L 340.345508 503.78232 
L 343.530512 508.624528 
L 346.543354 512.804258 
L 349.470114 516.494959 
L 352.396875 519.837656 
L 355.409716 522.939356 
L 358.422558 525.724954 
L 361.521481 528.291108 
L 364.706485 530.644709 
L 368.063651 532.848341 
L 371.59298 534.894361 
L 375.294471 536.779503 
L 379.168124 538.504164 
L 383.300021 540.102697 
L 387.776243 541.594463 
L 392.59679 542.96485 
L 397.847742 544.224473 
L 403.615182 545.376497 
L 409.98519 546.419448 
L 417.129928 547.359851 
L 425.22156 548.195321 
L 434.518329 548.925527 
L 445.364558 549.548445 
L 458.448899 550.068716 
L 474.718244 550.482785 
L 496.066379 550.791508 
L 526.969525 550.997925 
L 581.200674 551.105759 
L 671.155517 551.130158 
L 671.155517 551.130158 
" clip-path="url(#p3fafd3d595)" style="fill: none; stroke: #ff7f0e; stroke-width: 1.5; stroke-linecap: square"/>
   </g>
   <g id="patch_9">
    <path d="M 20.5625 684.92 
L 20.5625 386.16 
" style="fill: none; stroke: #000000; stroke-width: 0.8; stroke-linejoin: miter; stroke-linecap: square"/>
   </g>
   <g id="patch_10">
    <path d="M 702.136136 684.92 
L 702.136136 386.16 
" style="fill: none; stroke: #000000; stroke-width: 0.8; stroke-linejoin: miter; stroke-linecap: square"/>
   </g>
   <g id="patch_11">
    <path d="M 20.5625 684.92 
L 702.136136 684.92 
" style="fill: none; stroke: #000000; stroke-width: 0.8; stroke-linejoin: miter; stroke-linecap: square"/>
   </g>
   <g id="patch_12">
    <path d="M 20.5625 386.16 
L 702.136136 386.16 
" style="fill: none; stroke: #000000; stroke-width: 0.8; stroke-linejoin: miter; stroke-linecap: square"/>
   </g>
   <g id="text_32">
    <!-- 2 transformation(s) -->
    <g transform="translate(303.234631 380.16) scale(0.12 -0.12)">
     <use xlink:href="#DejaVuSans-32"/>
     <use xlink:href="#DejaVuSans-20" x="63.623047"/>
     <use xlink:href="#DejaVuSans-74" x="95.410156"/>
     <use xlink:href="#DejaVuSans-72" x="134.619141"/>
     <use xlink:href="#DejaVuSans-61" x="175.732422"/>
     <use xlink:href="#DejaVuSans-6e" x="237.011719"/>
     <use xlink:href="#DejaVuSans-73" x="300.390625"/>
     <use xlink:href="#DejaVuSans-66" x="352.490234"/>
     <use xlink:href="#DejaVuSans-6f" x="387.695312"/>
     <use xlink:href="#DejaVuSans-72" x="448.876953"/>
     <use xlink:href="#DejaVuSans-6d" x="488.240234"/>
     <use xlink:href="#DejaVuSans-61" x="585.652344"/>
     <use xlink:href="#DejaVuSans-74" x="646.931641"/>
     <use xlink:href="#DejaVuSans-69" x="686.140625"/>
     <use xlink:href="#DejaVuSans-6f" x="713.923828"/>
     <use xlink:href="#DejaVuSans-6e" x="775.105469"/>
     <use xlink:href="#DejaVuSans-28" x="838.484375"/>
     <use xlink:href="#DejaVuSans-73" x="877.498047"/>
     <use xlink:href="#DejaVuSans-29" x="929.597656"/>
    </g>
   </g>
  </g>
  <g id="text_33">
   <!-- training -->
   <g transform="translate(333.129063 16.318125) scale(0.12 -0.12)">
    <defs>
     <path id="DejaVuSans-67" d="M 2906 1791 
Q 2906 2416 2648 2759 
Q 2391 3103 1925 3103 
Q 1463 3103 1205 2759 
Q 947 2416 947 1791 
Q 947 1169 1205 825 
Q 1463 481 1925 481 
Q 2391 481 2648 825 
Q 2906 1169 2906 1791 
z
M 3481 434 
Q 3481 -459 3084 -895 
Q 2688 -1331 1869 -1331 
Q 1566 -1331 1297 -1286 
Q 1028 -1241 775 -1147 
L 775 -588 
Q 1028 -725 1275 -790 
Q 1522 -856 1778 -856 
Q 2344 -856 2625 -561 
Q 2906 -266 2906 331 
L 2906 616 
Q 2728 306 2450 153 
Q 2172 0 1784 0 
Q 1141 0 747 490 
Q 353 981 353 1791 
Q 353 2603 747 3093 
Q 1141 3584 1784 3584 
Q 2172 3584 2450 3431 
Q 2728 3278 2906 2969 
L 2906 3500 
L 3481 3500 
L 3481 434 
z
" transform="scale(0.015625)"/>
    </defs>
    <use xlink:href="#DejaVuSans-74"/>
    <use xlink:href="#DejaVuSans-72" x="39.208984"/>
    <use xlink:href="#DejaVuSans-61" x="80.322266"/>
    <use xlink:href="#DejaVuSans-69" x="141.601562"/>
    <use xlink:href="#DejaVuSans-6e" x="169.384766"/>
    <use xlink:href="#DejaVuSans-69" x="232.763672"/>
    <use xlink:href="#DejaVuSans-6e" x="260.546875"/>
    <use xlink:href="#DejaVuSans-67" x="323.925781"/>
   </g>
  </g>
 </g>
 <defs>
  <clipPath id="pdde8db5078">
   <rect x="20.5625" y="43.44" width="681.573636" height="298.76"/>
  </clipPath>
  <clipPath id="p3fafd3d595">
   <rect x="20.5625" y="386.16" width="681.573636" height="298.76"/>
  </clipPath>
 </defs>
</svg>
