<?xml version="1.0" encoding="utf-8" standalone="no"?>
<!DOCTYPE svg PUBLIC "-//W3C//DTD SVG 1.1//EN"
  "http://www.w3.org/Graphics/SVG/1.1/DTD/svg11.dtd">
<svg xmlns:xlink="http://www.w3.org/1999/xlink" width="709.345824pt" height="708.798125pt" viewBox="0 0 709.345824 708.798125" xmlns="http://www.w3.org/2000/svg" version="1.1">
 <metadata>
  <rdf:RDF xmlns:dc="http://purl.org/dc/elements/1.1/" xmlns:cc="http://creativecommons.org/ns#" xmlns:rdf="http://www.w3.org/1999/02/22-rdf-syntax-ns#">
   <cc:Work>
    <dc:type rdf:resource="http://purl.org/dc/dcmitype/StillImage"/>
    <dc:date>2023-06-09T21:09:03.188493</dc:date>
    <dc:format>image/svg+xml</dc:format>
    <dc:creator>
     <cc:Agent>
      <dc:title>Matplotlib v3.7.1, https://matplotlib.org/</dc:title>
     </cc:Agent>
    </dc:creator>
   </cc:Work>
  </rdf:RDF>
 </metadata>
 <defs>
  <style type="text/css">*{stroke-linejoin: round; stroke-linecap: butt}</style>
 </defs>
 <g id="figure_1">
  <g id="patch_1">
   <path d="M 0 708.798125 
L 709.345824 708.798125 
L 709.345824 0 
L 0 0 
z
" style="fill: #ffffff"/>
  </g>
  <g id="axes_1">
   <g id="patch_2">
    <path d="M 28.942187 342.2 
L 702.145824 342.2 
L 702.145824 43.44 
L 28.942187 43.44 
z
" style="fill: #ffffff"/>
   </g>
   <g id="matplotlib.axis_1">
    <g id="xtick_1">
     <g id="line2d_1">
      <defs>
       <path id="m8c06071d8c" d="M 0 0 
L 0 3.5 
" style="stroke: #000000; stroke-width: 0.8"/>
      </defs>
      <g>
       <use xlink:href="#m8c06071d8c" x="59.372305" y="342.2" style="stroke: #000000; stroke-width: 0.8"/>
      </g>
     </g>
     <g id="text_1">
      <!-- 2014-07-01 -->
      <g transform="translate(30.314492 356.798437) scale(0.1 -0.1)">
       <defs>
        <path id="DejaVuSans-32" d="M 1228 531 
L 3431 531 
L 3431 0 
L 469 0 
L 469 531 
Q 828 903 1448 1529 
Q 2069 2156 2228 2338 
Q 2531 2678 2651 2914 
Q 2772 3150 2772 3378 
Q 2772 3750 2511 3984 
Q 2250 4219 1831 4219 
Q 1534 4219 1204 4116 
Q 875 4013 500 3803 
L 500 4441 
Q 881 4594 1212 4672 
Q 1544 4750 1819 4750 
Q 2544 4750 2975 4387 
Q 3406 4025 3406 3419 
Q 3406 3131 3298 2873 
Q 3191 2616 2906 2266 
Q 2828 2175 2409 1742 
Q 1991 1309 1228 531 
z
" transform="scale(0.015625)"/>
        <path id="DejaVuSans-30" d="M 2034 4250 
Q 1547 4250 1301 3770 
Q 1056 3291 1056 2328 
Q 1056 1369 1301 889 
Q 1547 409 2034 409 
Q 2525 409 2770 889 
Q 3016 1369 3016 2328 
Q 3016 3291 2770 3770 
Q 2525 4250 2034 4250 
z
M 2034 4750 
Q 2819 4750 3233 4129 
Q 3647 3509 3647 2328 
Q 3647 1150 3233 529 
Q 2819 -91 2034 -91 
Q 1250 -91 836 529 
Q 422 1150 422 2328 
Q 422 3509 836 4129 
Q 1250 4750 2034 4750 
z
" transform="scale(0.015625)"/>
        <path id="DejaVuSans-31" d="M 794 531 
L 1825 531 
L 1825 4091 
L 703 3866 
L 703 4441 
L 1819 4666 
L 2450 4666 
L 2450 531 
L 3481 531 
L 3481 0 
L 794 0 
L 794 531 
z
" transform="scale(0.015625)"/>
        <path id="DejaVuSans-34" d="M 2419 4116 
L 825 1625 
L 2419 1625 
L 2419 4116 
z
M 2253 4666 
L 3047 4666 
L 3047 1625 
L 3713 1625 
L 3713 1100 
L 3047 1100 
L 3047 0 
L 2419 0 
L 2419 1100 
L 313 1100 
L 313 1709 
L 2253 4666 
z
" transform="scale(0.015625)"/>
        <path id="DejaVuSans-2d" d="M 313 2009 
L 1997 2009 
L 1997 1497 
L 313 1497 
L 313 2009 
z
" transform="scale(0.015625)"/>
        <path id="DejaVuSans-37" d="M 525 4666 
L 3525 4666 
L 3525 4397 
L 1831 0 
L 1172 0 
L 2766 4134 
L 525 4134 
L 525 4666 
z
" transform="scale(0.015625)"/>
       </defs>
       <use xlink:href="#DejaVuSans-32"/>
       <use xlink:href="#DejaVuSans-30" x="63.623047"/>
       <use xlink:href="#DejaVuSans-31" x="127.246094"/>
       <use xlink:href="#DejaVuSans-34" x="190.869141"/>
       <use xlink:href="#DejaVuSans-2d" x="254.492188"/>
       <use xlink:href="#DejaVuSans-30" x="290.576172"/>
       <use xlink:href="#DejaVuSans-37" x="354.199219"/>
       <use xlink:href="#DejaVuSans-2d" x="417.822266"/>
       <use xlink:href="#DejaVuSans-30" x="453.90625"/>
       <use xlink:href="#DejaVuSans-31" x="517.529297"/>
      </g>
     </g>
    </g>
    <g id="xtick_2">
     <g id="line2d_2">
      <g>
       <use xlink:href="#m8c06071d8c" x="181.806975" y="342.2" style="stroke: #000000; stroke-width: 0.8"/>
      </g>
     </g>
     <g id="text_2">
      <!-- 2014-07-02 -->
      <g transform="translate(152.749163 356.798437) scale(0.1 -0.1)">
       <use xlink:href="#DejaVuSans-32"/>
       <use xlink:href="#DejaVuSans-30" x="63.623047"/>
       <use xlink:href="#DejaVuSans-31" x="127.246094"/>
       <use xlink:href="#DejaVuSans-34" x="190.869141"/>
       <use xlink:href="#DejaVuSans-2d" x="254.492188"/>
       <use xlink:href="#DejaVuSans-30" x="290.576172"/>
       <use xlink:href="#DejaVuSans-37" x="354.199219"/>
       <use xlink:href="#DejaVuSans-2d" x="417.822266"/>
       <use xlink:href="#DejaVuSans-30" x="453.90625"/>
       <use xlink:href="#DejaVuSans-32" x="517.529297"/>
      </g>
     </g>
    </g>
    <g id="xtick_3">
     <g id="line2d_3">
      <g>
       <use xlink:href="#m8c06071d8c" x="304.241646" y="342.2" style="stroke: #000000; stroke-width: 0.8"/>
      </g>
     </g>
     <g id="text_3">
      <!-- 2014-07-03 -->
      <g transform="translate(275.183834 356.798437) scale(0.1 -0.1)">
       <defs>
        <path id="DejaVuSans-33" d="M 2597 2516 
Q 3050 2419 3304 2112 
Q 3559 1806 3559 1356 
Q 3559 666 3084 287 
Q 2609 -91 1734 -91 
Q 1441 -91 1130 -33 
Q 819 25 488 141 
L 488 750 
Q 750 597 1062 519 
Q 1375 441 1716 441 
Q 2309 441 2620 675 
Q 2931 909 2931 1356 
Q 2931 1769 2642 2001 
Q 2353 2234 1838 2234 
L 1294 2234 
L 1294 2753 
L 1863 2753 
Q 2328 2753 2575 2939 
Q 2822 3125 2822 3475 
Q 2822 3834 2567 4026 
Q 2313 4219 1838 4219 
Q 1578 4219 1281 4162 
Q 984 4106 628 3988 
L 628 4550 
Q 988 4650 1302 4700 
Q 1616 4750 1894 4750 
Q 2613 4750 3031 4423 
Q 3450 4097 3450 3541 
Q 3450 3153 3228 2886 
Q 3006 2619 2597 2516 
z
" transform="scale(0.015625)"/>
       </defs>
       <use xlink:href="#DejaVuSans-32"/>
       <use xlink:href="#DejaVuSans-30" x="63.623047"/>
       <use xlink:href="#DejaVuSans-31" x="127.246094"/>
       <use xlink:href="#DejaVuSans-34" x="190.869141"/>
       <use xlink:href="#DejaVuSans-2d" x="254.492188"/>
       <use xlink:href="#DejaVuSans-30" x="290.576172"/>
       <use xlink:href="#DejaVuSans-37" x="354.199219"/>
       <use xlink:href="#DejaVuSans-2d" x="417.822266"/>
       <use xlink:href="#DejaVuSans-30" x="453.90625"/>
       <use xlink:href="#DejaVuSans-33" x="517.529297"/>
      </g>
     </g>
    </g>
    <g id="xtick_4">
     <g id="line2d_4">
      <g>
       <use xlink:href="#m8c06071d8c" x="426.676317" y="342.2" style="stroke: #000000; stroke-width: 0.8"/>
      </g>
     </g>
     <g id="text_4">
      <!-- 2014-07-04 -->
      <g transform="translate(397.618504 356.798437) scale(0.1 -0.1)">
       <use xlink:href="#DejaVuSans-32"/>
       <use xlink:href="#DejaVuSans-30" x="63.623047"/>
       <use xlink:href="#DejaVuSans-31" x="127.246094"/>
       <use xlink:href="#DejaVuSans-34" x="190.869141"/>
       <use xlink:href="#DejaVuSans-2d" x="254.492188"/>
       <use xlink:href="#DejaVuSans-30" x="290.576172"/>
       <use xlink:href="#DejaVuSans-37" x="354.199219"/>
       <use xlink:href="#DejaVuSans-2d" x="417.822266"/>
       <use xlink:href="#DejaVuSans-30" x="453.90625"/>
       <use xlink:href="#DejaVuSans-34" x="517.529297"/>
      </g>
     </g>
    </g>
    <g id="xtick_5">
     <g id="line2d_5">
      <g>
       <use xlink:href="#m8c06071d8c" x="549.110988" y="342.2" style="stroke: #000000; stroke-width: 0.8"/>
      </g>
     </g>
     <g id="text_5">
      <!-- 2014-07-05 -->
      <g transform="translate(520.053175 356.798437) scale(0.1 -0.1)">
       <defs>
        <path id="DejaVuSans-35" d="M 691 4666 
L 3169 4666 
L 3169 4134 
L 1269 4134 
L 1269 2991 
Q 1406 3038 1543 3061 
Q 1681 3084 1819 3084 
Q 2600 3084 3056 2656 
Q 3513 2228 3513 1497 
Q 3513 744 3044 326 
Q 2575 -91 1722 -91 
Q 1428 -91 1123 -41 
Q 819 9 494 109 
L 494 744 
Q 775 591 1075 516 
Q 1375 441 1709 441 
Q 2250 441 2565 725 
Q 2881 1009 2881 1497 
Q 2881 1984 2565 2268 
Q 2250 2553 1709 2553 
Q 1456 2553 1204 2497 
Q 953 2441 691 2322 
L 691 4666 
z
" transform="scale(0.015625)"/>
       </defs>
       <use xlink:href="#DejaVuSans-32"/>
       <use xlink:href="#DejaVuSans-30" x="63.623047"/>
       <use xlink:href="#DejaVuSans-31" x="127.246094"/>
       <use xlink:href="#DejaVuSans-34" x="190.869141"/>
       <use xlink:href="#DejaVuSans-2d" x="254.492188"/>
       <use xlink:href="#DejaVuSans-30" x="290.576172"/>
       <use xlink:href="#DejaVuSans-37" x="354.199219"/>
       <use xlink:href="#DejaVuSans-2d" x="417.822266"/>
       <use xlink:href="#DejaVuSans-30" x="453.90625"/>
       <use xlink:href="#DejaVuSans-35" x="517.529297"/>
      </g>
     </g>
    </g>
    <g id="xtick_6">
     <g id="line2d_6">
      <g>
       <use xlink:href="#m8c06071d8c" x="671.545659" y="342.2" style="stroke: #000000; stroke-width: 0.8"/>
      </g>
     </g>
     <g id="text_6">
      <!-- 2014-07-06 -->
      <g transform="translate(642.487846 356.798437) scale(0.1 -0.1)">
       <defs>
        <path id="DejaVuSans-36" d="M 2113 2584 
Q 1688 2584 1439 2293 
Q 1191 2003 1191 1497 
Q 1191 994 1439 701 
Q 1688 409 2113 409 
Q 2538 409 2786 701 
Q 3034 994 3034 1497 
Q 3034 2003 2786 2293 
Q 2538 2584 2113 2584 
z
M 3366 4563 
L 3366 3988 
Q 3128 4100 2886 4159 
Q 2644 4219 2406 4219 
Q 1781 4219 1451 3797 
Q 1122 3375 1075 2522 
Q 1259 2794 1537 2939 
Q 1816 3084 2150 3084 
Q 2853 3084 3261 2657 
Q 3669 2231 3669 1497 
Q 3669 778 3244 343 
Q 2819 -91 2113 -91 
Q 1303 -91 875 529 
Q 447 1150 447 2328 
Q 447 3434 972 4092 
Q 1497 4750 2381 4750 
Q 2619 4750 2861 4703 
Q 3103 4656 3366 4563 
z
" transform="scale(0.015625)"/>
       </defs>
       <use xlink:href="#DejaVuSans-32"/>
       <use xlink:href="#DejaVuSans-30" x="63.623047"/>
       <use xlink:href="#DejaVuSans-31" x="127.246094"/>
       <use xlink:href="#DejaVuSans-34" x="190.869141"/>
       <use xlink:href="#DejaVuSans-2d" x="254.492188"/>
       <use xlink:href="#DejaVuSans-30" x="290.576172"/>
       <use xlink:href="#DejaVuSans-37" x="354.199219"/>
       <use xlink:href="#DejaVuSans-2d" x="417.822266"/>
       <use xlink:href="#DejaVuSans-30" x="453.90625"/>
       <use xlink:href="#DejaVuSans-36" x="517.529297"/>
      </g>
     </g>
    </g>
   </g>
   <g id="matplotlib.axis_2">
    <g id="ytick_1">
     <g id="line2d_7">
      <defs>
       <path id="mf5e3c7e3d8" d="M 0 0 
L -3.5 0 
" style="stroke: #000000; stroke-width: 0.8"/>
      </defs>
      <g>
       <use xlink:href="#mf5e3c7e3d8" x="28.942187" y="325.605757" style="stroke: #000000; stroke-width: 0.8"/>
      </g>
     </g>
     <g id="text_7">
      <!-- −1 -->
      <g transform="translate(7.2 329.404976) scale(0.1 -0.1)">
       <defs>
        <path id="DejaVuSans-2212" d="M 678 2272 
L 4684 2272 
L 4684 1741 
L 678 1741 
L 678 2272 
z
" transform="scale(0.015625)"/>
       </defs>
       <use xlink:href="#DejaVuSans-2212"/>
       <use xlink:href="#DejaVuSans-31" x="83.789062"/>
      </g>
     </g>
    </g>
    <g id="ytick_2">
     <g id="line2d_8">
      <g>
       <use xlink:href="#mf5e3c7e3d8" x="28.942187" y="287.759722" style="stroke: #000000; stroke-width: 0.8"/>
      </g>
     </g>
     <g id="text_8">
      <!-- 0 -->
      <g transform="translate(15.579687 291.55894) scale(0.1 -0.1)">
       <use xlink:href="#DejaVuSans-30"/>
      </g>
     </g>
    </g>
    <g id="ytick_3">
     <g id="line2d_9">
      <g>
       <use xlink:href="#mf5e3c7e3d8" x="28.942187" y="249.913686" style="stroke: #000000; stroke-width: 0.8"/>
      </g>
     </g>
     <g id="text_9">
      <!-- 1 -->
      <g transform="translate(15.579687 253.712905) scale(0.1 -0.1)">
       <use xlink:href="#DejaVuSans-31"/>
      </g>
     </g>
    </g>
    <g id="ytick_4">
     <g id="line2d_10">
      <g>
       <use xlink:href="#mf5e3c7e3d8" x="28.942187" y="212.067651" style="stroke: #000000; stroke-width: 0.8"/>
      </g>
     </g>
     <g id="text_10">
      <!-- 2 -->
      <g transform="translate(15.579687 215.866869) scale(0.1 -0.1)">
       <use xlink:href="#DejaVuSans-32"/>
      </g>
     </g>
    </g>
    <g id="ytick_5">
     <g id="line2d_11">
      <g>
       <use xlink:href="#mf5e3c7e3d8" x="28.942187" y="174.221615" style="stroke: #000000; stroke-width: 0.8"/>
      </g>
     </g>
     <g id="text_11">
      <!-- 3 -->
      <g transform="translate(15.579687 178.020834) scale(0.1 -0.1)">
       <use xlink:href="#DejaVuSans-33"/>
      </g>
     </g>
    </g>
    <g id="ytick_6">
     <g id="line2d_12">
      <g>
       <use xlink:href="#mf5e3c7e3d8" x="28.942187" y="136.37558" style="stroke: #000000; stroke-width: 0.8"/>
      </g>
     </g>
     <g id="text_12">
      <!-- 4 -->
      <g transform="translate(15.579687 140.174798) scale(0.1 -0.1)">
       <use xlink:href="#DejaVuSans-34"/>
      </g>
     </g>
    </g>
    <g id="ytick_7">
     <g id="line2d_13">
      <g>
       <use xlink:href="#mf5e3c7e3d8" x="28.942187" y="98.529544" style="stroke: #000000; stroke-width: 0.8"/>
      </g>
     </g>
     <g id="text_13">
      <!-- 5 -->
      <g transform="translate(15.579687 102.328763) scale(0.1 -0.1)">
       <use xlink:href="#DejaVuSans-35"/>
      </g>
     </g>
    </g>
    <g id="ytick_8">
     <g id="line2d_14">
      <g>
       <use xlink:href="#mf5e3c7e3d8" x="28.942187" y="60.683509" style="stroke: #000000; stroke-width: 0.8"/>
      </g>
     </g>
     <g id="text_14">
      <!-- 6 -->
      <g transform="translate(15.579687 64.482727) scale(0.1 -0.1)">
       <use xlink:href="#DejaVuSans-36"/>
      </g>
     </g>
    </g>
   </g>
   <g id="line2d_15">
    <path d="M 59.542353 287.759722 
L 63.623508 287.656342 
L 66.514327 287.233657 
L 68.469881 287.061148 
L 71.955868 287.223877 
L 74.50659 287.246649 
L 75.781951 287.001452 
L 76.462144 286.700569 
L 76.972289 286.192665 
L 78.927842 283.526177 
L 79.608035 282.807374 
L 80.033155 282.309292 
L 80.373252 281.722068 
L 80.5433 281.478331 
L 80.883396 280.869516 
L 81.223492 280.682289 
L 81.903685 279.099632 
L 82.413829 276.168747 
L 83.26407 268.745285 
L 83.859239 266.090096 
L 84.539431 264.684278 
L 85.814793 263.469336 
L 86.069865 263.316368 
L 86.324937 263.119416 
L 86.665033 263.030156 
L 86.920106 262.891837 
L 87.345226 262.89726 
L 87.685322 262.809341 
L 88.280491 262.788407 
L 88.450539 262.37592 
L 88.790635 261.292821 
L 88.960683 261.234504 
L 89.470828 261.360912 
L 89.810924 261.021378 
L 90.406093 260.42603 
L 90.746189 260.379233 
L 91.086285 260.620405 
L 91.59643 261.324382 
L 91.936526 261.776868 
L 92.106574 261.226324 
L 92.446671 259.837201 
L 92.531695 259.638575 
L 92.871791 256.950181 
L 93.211887 254.306984 
L 94.742321 225.087426 
L 94.997393 222.939363 
L 95.252465 220.655087 
L 95.507537 220.282469 
L 95.76261 218.92104 
L 95.847634 219.020553 
L 96.272754 219.7986 
L 96.357778 219.565269 
L 96.442802 219.6405 
L 96.867923 221.403832 
L 96.952947 221.354358 
L 97.122995 221.952235 
L 97.463091 223.46658 
L 97.548115 223.436537 
L 97.803187 223.984805 
L 97.888211 223.72195 
L 97.973236 222.738624 
L 98.143284 216.221349 
L 98.993524 149.612593 
L 99.503669 96.459983 
L 99.843765 78.302169 
L 100.608982 59.560048 
L 100.864054 57.157315 
L 101.034102 57.045915 
L 101.374199 58.158367 
L 101.714295 61.508969 
L 102.139415 67.743926 
L 103.329752 91.05442 
L 103.839897 100.638554 
L 104.690138 112.759777 
L 104.775162 112.2212 
L 105.115258 107.657086 
L 105.200282 107.724129 
L 105.37033 108.363531 
L 105.795451 104.434938 
L 105.965499 102.810348 
L 106.645691 95.005318 
L 107.325884 89.066844 
L 107.66598 88.061714 
L 107.836028 87.300716 
L 108.431197 83.652582 
L 108.941341 81.088911 
L 109.11139 81.013026 
L 109.281438 81.466027 
L 109.53651 83.160205 
L 109.876606 87.414101 
L 110.386751 97.961155 
L 111.066943 116.432598 
L 112.002208 146.522039 
L 113.532642 187.643866 
L 114.212834 190.406507 
L 114.978051 192.429328 
L 116.338436 194.634994 
L 117.188677 195.798698 
L 118.123942 197.355344 
L 118.889158 199.126968 
L 121.694953 206.936212 
L 122.88529 209.271831 
L 124.075627 210.8787 
L 125.436012 212.266184 
L 126.456301 212.985314 
L 128.581903 214.433596 
L 130.622481 215.89729 
L 131.812818 216.412645 
L 134.448565 217.007333 
L 136.489142 217.080921 
L 139.039865 217.237483 
L 140.570298 217.825028 
L 141.590587 218.440018 
L 142.6959 219.359378 
L 143.971261 220.729253 
L 147.202176 224.385845 
L 148.222465 225.089587 
L 150.518115 226.390394 
L 153.32391 227.534003 
L 155.534536 228.193053 
L 159.190571 230.091434 
L 162.251438 230.867312 
L 162.676558 230.678565 
L 164.292016 229.695244 
L 164.717136 229.764393 
L 165.22728 230.061193 
L 168.543219 232.643136 
L 169.903605 233.310993 
L 171.178966 233.732642 
L 172.539351 234.138321 
L 174.409881 234.852827 
L 175.43017 235.303734 
L 176.960603 235.95423 
L 181.041759 237.37034 
L 184.697794 237.965384 
L 185.463011 237.884148 
L 186.398276 237.523712 
L 187.33354 237.199021 
L 188.013733 237.203366 
L 189.289094 237.520531 
L 190.819528 238.086592 
L 192.094889 238.733574 
L 193.115178 239.238318 
L 194.305515 239.750633 
L 196.431117 240.697405 
L 198.38667 241.176717 
L 202.042706 242.524346 
L 203.488115 243.594041 
L 207.14415 246.471539 
L 207.654295 245.868492 
L 207.909367 245.162129 
L 208.929656 241.698385 
L 209.269752 240.578538 
L 209.609849 239.825426 
L 209.949945 238.954908 
L 210.205017 238.420284 
L 211.225306 234.506977 
L 211.820475 231.237439 
L 212.245595 228.004202 
L 213.861052 215.047016 
L 214.286173 213.638409 
L 214.626269 213.149685 
L 214.881341 213.097992 
L 215.221438 213.325552 
L 215.561534 213.843087 
L 217.602112 218.264557 
L 218.19728 219.249381 
L 218.792449 219.894278 
L 219.047521 219.935288 
L 219.217569 219.984442 
L 219.302593 219.897445 
L 219.557666 219.31848 
L 219.727714 219.138481 
L 219.812738 218.957485 
L 219.982786 217.492776 
L 220.918051 209.139343 
L 221.173123 207.957376 
L 221.343171 207.691021 
L 221.853316 207.488793 
L 222.023364 206.996207 
L 222.278436 205.380378 
L 222.533508 202.955213 
L 223.978918 185.976677 
L 224.23399 185.258168 
L 224.404038 185.3181 
L 224.574086 185.759569 
L 224.914182 187.569136 
L 225.509351 192.810702 
L 227.379881 211.49937 
L 228.060073 215.724338 
L 228.570218 217.948317 
L 229.25041 219.777084 
L 229.760555 220.576242 
L 230.355723 221.115807 
L 232.736398 222.771058 
L 233.671662 223.898335 
L 235.627216 226.73822 
L 237.497746 229.512872 
L 238.518035 230.745684 
L 239.708372 231.956029 
L 240.728661 232.708997 
L 243.959576 234.386414 
L 244.979865 234.508344 
L 246.000154 234.63392 
L 248.295804 235.41347 
L 250.761502 236.396349 
L 252.461983 236.823882 
L 253.992417 237.322991 
L 256.968259 238.207878 
L 259.604006 239.151303 
L 260.369223 239.152034 
L 261.219463 238.823012 
L 262.069704 238.496376 
L 262.919945 238.432632 
L 263.685162 238.640608 
L 268.361486 240.379947 
L 269.551823 240.605833 
L 270.74216 240.659842 
L 273.292882 240.906955 
L 275.928629 240.806545 
L 276.863893 241.104261 
L 278.564375 241.592854 
L 280.179832 241.681051 
L 281.540218 241.624128 
L 283.66582 241.721628 
L 287.576927 242.786014 
L 288.767264 242.916638 
L 289.277409 243.222655 
L 290.042625 243.989235 
L 292.593348 246.790884 
L 293.783685 247.695414 
L 295.059046 248.437933 
L 296.504455 248.997642 
L 298.034889 249.4067 
L 305.006863 250.508798 
L 305.942128 250.360325 
L 306.877393 250.005639 
L 307.727633 249.354487 
L 308.407826 248.46466 
L 309.258067 247.000876 
L 310.193332 244.828437 
L 311.893813 240.391108 
L 313.764343 234.352351 
L 314.444535 232.650224 
L 315.124728 231.483795 
L 315.804921 230.841889 
L 315.974969 230.682851 
L 316.570137 229.385482 
L 316.910234 228.961468 
L 317.420378 228.693642 
L 317.760474 228.760183 
L 318.355643 229.252791 
L 318.950812 229.621033 
L 319.716028 229.781118 
L 320.311197 229.970469 
L 320.906365 230.415755 
L 321.41651 231.099646 
L 322.011678 232.236749 
L 323.457088 235.194048 
L 324.13728 236.074785 
L 324.987521 236.804148 
L 326.177858 237.534237 
L 331.704423 240.660419 
L 333.064808 241.760491 
L 334.085097 242.8412 
L 335.700555 244.678634 
L 337.06094 245.865248 
L 338.591373 246.872043 
L 340.887023 248.048492 
L 342.927601 248.799353 
L 346.073492 249.814408 
L 347.773974 250.727376 
L 353.810683 254.110576 
L 357.466718 255.811011 
L 360.527585 257.045417 
L 366.904391 259.457888 
L 370.64545 260.633588 
L 373.111149 261.206254 
L 374.981678 261.389028 
L 379.062834 261.463007 
L 404.740105 261.849349 
L 434.923652 262.50624 
L 465.957441 263.373929 
L 490.019254 264.168004 
L 530.660763 265.75271 
L 563.395033 267.337633 
L 582.52545 268.465016 
L 595.959254 269.77597 
L 616.960201 272.115283 
L 636.345691 274.517765 
L 646.888676 275.619867 
L 658.451951 276.608332 
L 670.185273 277.378895 
L 671.545659 277.453283 
L 671.545659 277.453283 
" clip-path="url(#p8208e0a2a6)" style="fill: none; stroke: #1f77b4; stroke-width: 1.5; stroke-linecap: square"/>
   </g>
   <g id="line2d_16">
    <path d="M 59.542353 287.759722 
L 64.89887 287.869749 
L 65.74911 288.114524 
L 67.19452 288.782338 
L 68.895001 289.872808 
L 72.976157 292.678178 
L 73.996446 293.074701 
L 75.101759 293.364898 
L 76.887264 294.007099 
L 77.992577 294.844673 
L 79.09789 296.146048 
L 80.713348 298.906589 
L 85.644744 309.609416 
L 86.154889 310.364646 
L 86.835081 311.281137 
L 87.600298 312.202989 
L 88.025419 312.718798 
L 88.195467 312.877509 
L 88.280491 312.896822 
L 88.875659 313.656834 
L 90.491117 315.952526 
L 93.126863 320.347741 
L 93.296911 320.655529 
L 93.89208 322.102974 
L 94.742321 325.011287 
L 95.422513 327.512306 
L 95.932658 328.596562 
L 96.102706 328.593914 
L 96.357778 327.692384 
L 96.61285 325.766524 
L 96.867923 322.219942 
L 97.208019 314.988747 
L 97.633139 301.157007 
L 98.228308 274.122112 
L 100.608982 155.425459 
L 101.289175 135.931832 
L 101.884343 124.847121 
L 102.394488 119.046632 
L 102.819608 116.526345 
L 103.07468 115.672792 
L 103.329752 115.450586 
L 103.669849 115.714656 
L 104.009945 116.760842 
L 104.265017 117.723308 
L 104.860186 121.145682 
L 105.795451 127.903805 
L 106.985788 136.231554 
L 107.495932 138.491352 
L 107.751004 138.989614 
L 107.921053 139.00876 
L 108.091101 138.767133 
L 108.346173 137.869304 
L 108.771293 135.047847 
L 109.96163 126.079096 
L 110.216703 125.46911 
L 110.386751 125.448304 
L 110.556799 125.731531 
L 110.811871 126.67287 
L 111.236992 129.37734 
L 111.917184 135.488486 
L 113.957762 154.670926 
L 115.063075 162.684663 
L 116.253412 169.642884 
L 117.698821 176.596214 
L 119.144231 182.512122 
L 120.674664 187.926293 
L 121.269833 189.830585 
L 123.565483 196.615759 
L 125.861133 203.535019 
L 127.306542 207.633628 
L 129.092048 211.738061 
L 132.918131 218.904834 
L 134.278516 221.285351 
L 137.679479 227.158393 
L 139.209913 229.830738 
L 142.525852 235.467889 
L 143.631165 236.918842 
L 144.481406 237.66965 
L 145.246622 238.06509 
L 146.096863 238.25986 
L 146.947104 238.235862 
L 147.542272 238.160268 
L 148.392513 238.021665 
L 150.178019 237.858637 
L 150.858211 238.057926 
L 151.708452 238.616458 
L 155.789608 241.914619 
L 158.255306 243.939633 
L 160.125836 245.587944 
L 165.567377 250.094985 
L 171.093942 253.808641 
L 173.899736 256.338473 
L 174.409881 256.700068 
L 175.770266 257.556877 
L 176.450459 257.90061 
L 179.511325 259.819574 
L 181.892 261.666276 
L 183.337409 262.420619 
L 185.207939 263.467385 
L 187.503589 265.416165 
L 192.860105 270.648275 
L 193.285226 270.977836 
L 194.730635 272.005856 
L 196.261069 272.918982 
L 197.621454 274.027735 
L 202.55285 278.335319 
L 203.403091 278.61917 
L 204.338356 278.67604 
L 205.613717 278.49851 
L 206.974102 278.103503 
L 207.14415 277.99458 
L 207.569271 277.805349 
L 207.739319 277.694175 
L 208.164439 277.502144 
L 208.334487 277.39048 
L 209.4398 276.879602 
L 209.609849 276.787691 
L 210.205017 276.733236 
L 210.715162 277.058694 
L 211.565402 278.120644 
L 211.820475 278.181643 
L 212.245595 277.69227 
L 212.500667 276.929905 
L 213.095836 273.85458 
L 214.116125 265.898469 
L 215.47651 255.651945 
L 216.071678 252.485723 
L 216.581823 250.50111 
L 217.176991 248.960192 
L 218.027232 247.72237 
L 218.877473 247.520551 
L 219.64269 247.873368 
L 220.06781 248.38398 
L 221.683268 250.00003 
L 222.108388 250.138629 
L 222.36346 249.979533 
L 222.618532 249.531394 
L 222.873605 248.595192 
L 223.213701 246.273868 
L 223.638821 241.153822 
L 224.23399 230.209014 
L 225.254279 211.04502 
L 225.764423 205.745821 
L 226.10452 204.043919 
L 226.359592 203.534569 
L 226.52964 203.479054 
L 226.784712 203.716621 
L 227.124808 204.439895 
L 227.975049 207.010942 
L 228.995338 209.812341 
L 229.845579 211.498467 
L 230.780844 212.836093 
L 231.971181 214.104102 
L 233.841711 215.651602 
L 234.861999 216.375066 
L 237.242674 218.247746 
L 238.603059 219.814715 
L 242.939287 225.815247 
L 247.190491 232.639255 
L 249.231068 235.321729 
L 251.186622 237.673932 
L 256.203043 243.484904 
L 257.308356 244.389736 
L 261.049415 247.356007 
L 266.831052 252.781161 
L 270.827184 255.761961 
L 273.377906 258.215831 
L 274.738292 259.567793 
L 275.588532 260.265511 
L 279.074519 263.044106 
L 280.775001 264.600035 
L 284.260988 267.665291 
L 287.831999 271.123031 
L 288.597216 271.454025 
L 289.362433 271.549004 
L 290.297698 271.427923 
L 291.403011 271.071856 
L 291.828131 270.89178 
L 295.314118 269.681424 
L 296.249383 269.741214 
L 297.949865 269.884058 
L 299.055178 269.734228 
L 305.942128 268.200017 
L 307.217489 268.464656 
L 307.982706 268.833942 
L 308.152754 268.929082 
L 309.598163 270.249812 
L 310.448404 271.223076 
L 310.703476 271.53114 
L 311.638741 272.711823 
L 311.893813 273.004236 
L 312.488982 273.602021 
L 312.914102 273.877129 
L 313.424247 274.188158 
L 313.764343 274.205274 
L 314.104439 274.22413 
L 314.359511 274.195938 
L 314.869656 274.088162 
L 315.634873 273.840034 
L 315.889945 273.680772 
L 316.059993 273.553427 
L 317.760474 272.824776 
L 318.695739 272.67489 
L 319.460956 272.514838 
L 320.056125 272.151029 
L 320.991389 271.579482 
L 321.41651 271.635961 
L 321.84163 271.953547 
L 322.606847 272.937756 
L 323.797184 274.40383 
L 324.732449 275.071901 
L 325.752738 275.499375 
L 331.534375 277.190113 
L 332.724712 277.134283 
L 334.425194 276.793251 
L 338.336301 275.768813 
L 342.587505 274.328617 
L 348.709238 272.023238 
L 355.171068 269.347859 
L 362.398115 266.108844 
L 371.920811 261.577096 
L 389.435771 253.211361 
L 396.832866 249.959949 
L 403.294696 247.357518 
L 409.416429 245.128626 
L 415.368115 243.195179 
L 421.3198 241.492573 
L 427.441534 239.973254 
L 433.818339 238.623435 
L 440.535242 237.433315 
L 447.677264 236.395897 
L 455.499479 235.487958 
L 464.171935 234.709131 
L 474.034728 234.05112 
L 485.598002 233.508534 
L 499.711999 233.077506 
L 517.907152 232.755874 
L 543.669447 232.539698 
L 587.541871 232.423533 
L 671.545659 232.393435 
L 671.545659 232.393435 
" clip-path="url(#p8208e0a2a6)" style="fill: none; stroke: #ff7f0e; stroke-width: 1.5; stroke-linecap: square"/>
   </g>
   <g id="patch_3">
    <path d="M 28.942187 342.2 
L 28.942187 43.44 
" style="fill: none; stroke: #000000; stroke-width: 0.8; stroke-linejoin: miter; stroke-linecap: square"/>
   </g>
   <g id="patch_4">
    <path d="M 702.145824 342.2 
L 702.145824 43.44 
" style="fill: none; stroke: #000000; stroke-width: 0.8; stroke-linejoin: miter; stroke-linecap: square"/>
   </g>
   <g id="patch_5">
    <path d="M 28.942187 342.2 
L 702.145824 342.2 
" style="fill: none; stroke: #000000; stroke-width: 0.8; stroke-linejoin: miter; stroke-linecap: square"/>
   </g>
   <g id="patch_6">
    <path d="M 28.942187 43.44 
L 702.145824 43.44 
" style="fill: none; stroke: #000000; stroke-width: 0.8; stroke-linejoin: miter; stroke-linecap: square"/>
   </g>
   <g id="text_15">
    <!-- 1 transformation(s) -->
    <g transform="translate(307.429318 37.44) scale(0.12 -0.12)">
     <defs>
      <path id="DejaVuSans-20" transform="scale(0.015625)"/>
      <path id="DejaVuSans-74" d="M 1172 4494 
L 1172 3500 
L 2356 3500 
L 2356 3053 
L 1172 3053 
L 1172 1153 
Q 1172 725 1289 603 
Q 1406 481 1766 481 
L 2356 481 
L 2356 0 
L 1766 0 
Q 1100 0 847 248 
Q 594 497 594 1153 
L 594 3053 
L 172 3053 
L 172 3500 
L 594 3500 
L 594 4494 
L 1172 4494 
z
" transform="scale(0.015625)"/>
      <path id="DejaVuSans-72" d="M 2631 2963 
Q 2534 3019 2420 3045 
Q 2306 3072 2169 3072 
Q 1681 3072 1420 2755 
Q 1159 2438 1159 1844 
L 1159 0 
L 581 0 
L 581 3500 
L 1159 3500 
L 1159 2956 
Q 1341 3275 1631 3429 
Q 1922 3584 2338 3584 
Q 2397 3584 2469 3576 
Q 2541 3569 2628 3553 
L 2631 2963 
z
" transform="scale(0.015625)"/>
      <path id="DejaVuSans-61" d="M 2194 1759 
Q 1497 1759 1228 1600 
Q 959 1441 959 1056 
Q 959 750 1161 570 
Q 1363 391 1709 391 
Q 2188 391 2477 730 
Q 2766 1069 2766 1631 
L 2766 1759 
L 2194 1759 
z
M 3341 1997 
L 3341 0 
L 2766 0 
L 2766 531 
Q 2569 213 2275 61 
Q 1981 -91 1556 -91 
Q 1019 -91 701 211 
Q 384 513 384 1019 
Q 384 1609 779 1909 
Q 1175 2209 1959 2209 
L 2766 2209 
L 2766 2266 
Q 2766 2663 2505 2880 
Q 2244 3097 1772 3097 
Q 1472 3097 1187 3025 
Q 903 2953 641 2809 
L 641 3341 
Q 956 3463 1253 3523 
Q 1550 3584 1831 3584 
Q 2591 3584 2966 3190 
Q 3341 2797 3341 1997 
z
" transform="scale(0.015625)"/>
      <path id="DejaVuSans-6e" d="M 3513 2113 
L 3513 0 
L 2938 0 
L 2938 2094 
Q 2938 2591 2744 2837 
Q 2550 3084 2163 3084 
Q 1697 3084 1428 2787 
Q 1159 2491 1159 1978 
L 1159 0 
L 581 0 
L 581 3500 
L 1159 3500 
L 1159 2956 
Q 1366 3272 1645 3428 
Q 1925 3584 2291 3584 
Q 2894 3584 3203 3211 
Q 3513 2838 3513 2113 
z
" transform="scale(0.015625)"/>
      <path id="DejaVuSans-73" d="M 2834 3397 
L 2834 2853 
Q 2591 2978 2328 3040 
Q 2066 3103 1784 3103 
Q 1356 3103 1142 2972 
Q 928 2841 928 2578 
Q 928 2378 1081 2264 
Q 1234 2150 1697 2047 
L 1894 2003 
Q 2506 1872 2764 1633 
Q 3022 1394 3022 966 
Q 3022 478 2636 193 
Q 2250 -91 1575 -91 
Q 1294 -91 989 -36 
Q 684 19 347 128 
L 347 722 
Q 666 556 975 473 
Q 1284 391 1588 391 
Q 1994 391 2212 530 
Q 2431 669 2431 922 
Q 2431 1156 2273 1281 
Q 2116 1406 1581 1522 
L 1381 1569 
Q 847 1681 609 1914 
Q 372 2147 372 2553 
Q 372 3047 722 3315 
Q 1072 3584 1716 3584 
Q 2034 3584 2315 3537 
Q 2597 3491 2834 3397 
z
" transform="scale(0.015625)"/>
      <path id="DejaVuSans-66" d="M 2375 4863 
L 2375 4384 
L 1825 4384 
Q 1516 4384 1395 4259 
Q 1275 4134 1275 3809 
L 1275 3500 
L 2222 3500 
L 2222 3053 
L 1275 3053 
L 1275 0 
L 697 0 
L 697 3053 
L 147 3053 
L 147 3500 
L 697 3500 
L 697 3744 
Q 697 4328 969 4595 
Q 1241 4863 1831 4863 
L 2375 4863 
z
" transform="scale(0.015625)"/>
      <path id="DejaVuSans-6f" d="M 1959 3097 
Q 1497 3097 1228 2736 
Q 959 2375 959 1747 
Q 959 1119 1226 758 
Q 1494 397 1959 397 
Q 2419 397 2687 759 
Q 2956 1122 2956 1747 
Q 2956 2369 2687 2733 
Q 2419 3097 1959 3097 
z
M 1959 3584 
Q 2709 3584 3137 3096 
Q 3566 2609 3566 1747 
Q 3566 888 3137 398 
Q 2709 -91 1959 -91 
Q 1206 -91 779 398 
Q 353 888 353 1747 
Q 353 2609 779 3096 
Q 1206 3584 1959 3584 
z
" transform="scale(0.015625)"/>
      <path id="DejaVuSans-6d" d="M 3328 2828 
Q 3544 3216 3844 3400 
Q 4144 3584 4550 3584 
Q 5097 3584 5394 3201 
Q 5691 2819 5691 2113 
L 5691 0 
L 5113 0 
L 5113 2094 
Q 5113 2597 4934 2840 
Q 4756 3084 4391 3084 
Q 3944 3084 3684 2787 
Q 3425 2491 3425 1978 
L 3425 0 
L 2847 0 
L 2847 2094 
Q 2847 2600 2669 2842 
Q 2491 3084 2119 3084 
Q 1678 3084 1418 2786 
Q 1159 2488 1159 1978 
L 1159 0 
L 581 0 
L 581 3500 
L 1159 3500 
L 1159 2956 
Q 1356 3278 1631 3431 
Q 1906 3584 2284 3584 
Q 2666 3584 2933 3390 
Q 3200 3197 3328 2828 
z
" transform="scale(0.015625)"/>
      <path id="DejaVuSans-69" d="M 603 3500 
L 1178 3500 
L 1178 0 
L 603 0 
L 603 3500 
z
M 603 4863 
L 1178 4863 
L 1178 4134 
L 603 4134 
L 603 4863 
z
" transform="scale(0.015625)"/>
      <path id="DejaVuSans-28" d="M 1984 4856 
Q 1566 4138 1362 3434 
Q 1159 2731 1159 2009 
Q 1159 1288 1364 580 
Q 1569 -128 1984 -844 
L 1484 -844 
Q 1016 -109 783 600 
Q 550 1309 550 2009 
Q 550 2706 781 3412 
Q 1013 4119 1484 4856 
L 1984 4856 
z
" transform="scale(0.015625)"/>
      <path id="DejaVuSans-29" d="M 513 4856 
L 1013 4856 
Q 1481 4119 1714 3412 
Q 1947 2706 1947 2009 
Q 1947 1309 1714 600 
Q 1481 -109 1013 -844 
L 513 -844 
Q 928 -128 1133 580 
Q 1338 1288 1338 2009 
Q 1338 2731 1133 3434 
Q 928 4138 513 4856 
z
" transform="scale(0.015625)"/>
     </defs>
     <use xlink:href="#DejaVuSans-31"/>
     <use xlink:href="#DejaVuSans-20" x="63.623047"/>
     <use xlink:href="#DejaVuSans-74" x="95.410156"/>
     <use xlink:href="#DejaVuSans-72" x="134.619141"/>
     <use xlink:href="#DejaVuSans-61" x="175.732422"/>
     <use xlink:href="#DejaVuSans-6e" x="237.011719"/>
     <use xlink:href="#DejaVuSans-73" x="300.390625"/>
     <use xlink:href="#DejaVuSans-66" x="352.490234"/>
     <use xlink:href="#DejaVuSans-6f" x="387.695312"/>
     <use xlink:href="#DejaVuSans-72" x="448.876953"/>
     <use xlink:href="#DejaVuSans-6d" x="488.240234"/>
     <use xlink:href="#DejaVuSans-61" x="585.652344"/>
     <use xlink:href="#DejaVuSans-74" x="646.931641"/>
     <use xlink:href="#DejaVuSans-69" x="686.140625"/>
     <use xlink:href="#DejaVuSans-6f" x="713.923828"/>
     <use xlink:href="#DejaVuSans-6e" x="775.105469"/>
     <use xlink:href="#DejaVuSans-28" x="838.484375"/>
     <use xlink:href="#DejaVuSans-73" x="877.498047"/>
     <use xlink:href="#DejaVuSans-29" x="929.597656"/>
    </g>
   </g>
   <g id="legend_1">
    <g id="patch_7">
     <path d="M 613.752074 80.79625 
L 695.145824 80.79625 
Q 697.145824 80.79625 697.145824 78.79625 
L 697.145824 50.44 
Q 697.145824 48.44 695.145824 48.44 
L 613.752074 48.44 
Q 611.752074 48.44 611.752074 50.44 
L 611.752074 78.79625 
Q 611.752074 80.79625 613.752074 80.79625 
z
" style="fill: #ffffff; opacity: 0.8; stroke: #cccccc; stroke-linejoin: miter"/>
    </g>
    <g id="line2d_17">
     <path d="M 615.752074 56.538437 
L 625.752074 56.538437 
L 635.752074 56.538437 
" style="fill: none; stroke: #1f77b4; stroke-width: 1.5; stroke-linecap: square"/>
    </g>
    <g id="text_16">
     <!-- observed -->
     <g transform="translate(643.752074 60.038437) scale(0.1 -0.1)">
      <defs>
       <path id="DejaVuSans-62" d="M 3116 1747 
Q 3116 2381 2855 2742 
Q 2594 3103 2138 3103 
Q 1681 3103 1420 2742 
Q 1159 2381 1159 1747 
Q 1159 1113 1420 752 
Q 1681 391 2138 391 
Q 2594 391 2855 752 
Q 3116 1113 3116 1747 
z
M 1159 2969 
Q 1341 3281 1617 3432 
Q 1894 3584 2278 3584 
Q 2916 3584 3314 3078 
Q 3713 2572 3713 1747 
Q 3713 922 3314 415 
Q 2916 -91 2278 -91 
Q 1894 -91 1617 61 
Q 1341 213 1159 525 
L 1159 0 
L 581 0 
L 581 4863 
L 1159 4863 
L 1159 2969 
z
" transform="scale(0.015625)"/>
       <path id="DejaVuSans-65" d="M 3597 1894 
L 3597 1613 
L 953 1613 
Q 991 1019 1311 708 
Q 1631 397 2203 397 
Q 2534 397 2845 478 
Q 3156 559 3463 722 
L 3463 178 
Q 3153 47 2828 -22 
Q 2503 -91 2169 -91 
Q 1331 -91 842 396 
Q 353 884 353 1716 
Q 353 2575 817 3079 
Q 1281 3584 2069 3584 
Q 2775 3584 3186 3129 
Q 3597 2675 3597 1894 
z
M 3022 2063 
Q 3016 2534 2758 2815 
Q 2500 3097 2075 3097 
Q 1594 3097 1305 2825 
Q 1016 2553 972 2059 
L 3022 2063 
z
" transform="scale(0.015625)"/>
       <path id="DejaVuSans-76" d="M 191 3500 
L 800 3500 
L 1894 563 
L 2988 3500 
L 3597 3500 
L 2284 0 
L 1503 0 
L 191 3500 
z
" transform="scale(0.015625)"/>
       <path id="DejaVuSans-64" d="M 2906 2969 
L 2906 4863 
L 3481 4863 
L 3481 0 
L 2906 0 
L 2906 525 
Q 2725 213 2448 61 
Q 2172 -91 1784 -91 
Q 1150 -91 751 415 
Q 353 922 353 1747 
Q 353 2572 751 3078 
Q 1150 3584 1784 3584 
Q 2172 3584 2448 3432 
Q 2725 3281 2906 2969 
z
M 947 1747 
Q 947 1113 1208 752 
Q 1469 391 1925 391 
Q 2381 391 2643 752 
Q 2906 1113 2906 1747 
Q 2906 2381 2643 2742 
Q 2381 3103 1925 3103 
Q 1469 3103 1208 2742 
Q 947 2381 947 1747 
z
" transform="scale(0.015625)"/>
      </defs>
      <use xlink:href="#DejaVuSans-6f"/>
      <use xlink:href="#DejaVuSans-62" x="61.181641"/>
      <use xlink:href="#DejaVuSans-73" x="124.658203"/>
      <use xlink:href="#DejaVuSans-65" x="176.757812"/>
      <use xlink:href="#DejaVuSans-72" x="238.28125"/>
      <use xlink:href="#DejaVuSans-76" x="279.394531"/>
      <use xlink:href="#DejaVuSans-65" x="338.574219"/>
      <use xlink:href="#DejaVuSans-64" x="400.097656"/>
     </g>
    </g>
    <g id="line2d_18">
     <path d="M 615.752074 71.216563 
L 625.752074 71.216563 
L 635.752074 71.216563 
" style="fill: none; stroke: #ff7f0e; stroke-width: 1.5; stroke-linecap: square"/>
    </g>
    <g id="text_17">
     <!-- simulated -->
     <g transform="translate(643.752074 74.716563) scale(0.1 -0.1)">
      <defs>
       <path id="DejaVuSans-75" d="M 544 1381 
L 544 3500 
L 1119 3500 
L 1119 1403 
Q 1119 906 1312 657 
Q 1506 409 1894 409 
Q 2359 409 2629 706 
Q 2900 1003 2900 1516 
L 2900 3500 
L 3475 3500 
L 3475 0 
L 2900 0 
L 2900 538 
Q 2691 219 2414 64 
Q 2138 -91 1772 -91 
Q 1169 -91 856 284 
Q 544 659 544 1381 
z
M 1991 3584 
L 1991 3584 
z
" transform="scale(0.015625)"/>
       <path id="DejaVuSans-6c" d="M 603 4863 
L 1178 4863 
L 1178 0 
L 603 0 
L 603 4863 
z
" transform="scale(0.015625)"/>
      </defs>
      <use xlink:href="#DejaVuSans-73"/>
      <use xlink:href="#DejaVuSans-69" x="52.099609"/>
      <use xlink:href="#DejaVuSans-6d" x="79.882812"/>
      <use xlink:href="#DejaVuSans-75" x="177.294922"/>
      <use xlink:href="#DejaVuSans-6c" x="240.673828"/>
      <use xlink:href="#DejaVuSans-61" x="268.457031"/>
      <use xlink:href="#DejaVuSans-74" x="329.736328"/>
      <use xlink:href="#DejaVuSans-65" x="368.945312"/>
      <use xlink:href="#DejaVuSans-64" x="430.46875"/>
     </g>
    </g>
   </g>
  </g>
  <g id="axes_2">
   <g id="patch_8">
    <path d="M 28.942187 684.92 
L 702.145824 684.92 
L 702.145824 386.16 
L 28.942187 386.16 
z
" style="fill: #ffffff"/>
   </g>
   <g id="matplotlib.axis_3">
    <g id="xtick_7">
     <g id="line2d_19">
      <g>
       <use xlink:href="#m8c06071d8c" x="59.372305" y="684.92" style="stroke: #000000; stroke-width: 0.8"/>
      </g>
     </g>
     <g id="text_18">
      <!-- 2014-07-01 -->
      <g transform="translate(30.314492 699.518437) scale(0.1 -0.1)">
       <use xlink:href="#DejaVuSans-32"/>
       <use xlink:href="#DejaVuSans-30" x="63.623047"/>
       <use xlink:href="#DejaVuSans-31" x="127.246094"/>
       <use xlink:href="#DejaVuSans-34" x="190.869141"/>
       <use xlink:href="#DejaVuSans-2d" x="254.492188"/>
       <use xlink:href="#DejaVuSans-30" x="290.576172"/>
       <use xlink:href="#DejaVuSans-37" x="354.199219"/>
       <use xlink:href="#DejaVuSans-2d" x="417.822266"/>
       <use xlink:href="#DejaVuSans-30" x="453.90625"/>
       <use xlink:href="#DejaVuSans-31" x="517.529297"/>
      </g>
     </g>
    </g>
    <g id="xtick_8">
     <g id="line2d_20">
      <g>
       <use xlink:href="#m8c06071d8c" x="181.806975" y="684.92" style="stroke: #000000; stroke-width: 0.8"/>
      </g>
     </g>
     <g id="text_19">
      <!-- 2014-07-02 -->
      <g transform="translate(152.749163 699.518437) scale(0.1 -0.1)">
       <use xlink:href="#DejaVuSans-32"/>
       <use xlink:href="#DejaVuSans-30" x="63.623047"/>
       <use xlink:href="#DejaVuSans-31" x="127.246094"/>
       <use xlink:href="#DejaVuSans-34" x="190.869141"/>
       <use xlink:href="#DejaVuSans-2d" x="254.492188"/>
       <use xlink:href="#DejaVuSans-30" x="290.576172"/>
       <use xlink:href="#DejaVuSans-37" x="354.199219"/>
       <use xlink:href="#DejaVuSans-2d" x="417.822266"/>
       <use xlink:href="#DejaVuSans-30" x="453.90625"/>
       <use xlink:href="#DejaVuSans-32" x="517.529297"/>
      </g>
     </g>
    </g>
    <g id="xtick_9">
     <g id="line2d_21">
      <g>
       <use xlink:href="#m8c06071d8c" x="304.241646" y="684.92" style="stroke: #000000; stroke-width: 0.8"/>
      </g>
     </g>
     <g id="text_20">
      <!-- 2014-07-03 -->
      <g transform="translate(275.183834 699.518437) scale(0.1 -0.1)">
       <use xlink:href="#DejaVuSans-32"/>
       <use xlink:href="#DejaVuSans-30" x="63.623047"/>
       <use xlink:href="#DejaVuSans-31" x="127.246094"/>
       <use xlink:href="#DejaVuSans-34" x="190.869141"/>
       <use xlink:href="#DejaVuSans-2d" x="254.492188"/>
       <use xlink:href="#DejaVuSans-30" x="290.576172"/>
       <use xlink:href="#DejaVuSans-37" x="354.199219"/>
       <use xlink:href="#DejaVuSans-2d" x="417.822266"/>
       <use xlink:href="#DejaVuSans-30" x="453.90625"/>
       <use xlink:href="#DejaVuSans-33" x="517.529297"/>
      </g>
     </g>
    </g>
    <g id="xtick_10">
     <g id="line2d_22">
      <g>
       <use xlink:href="#m8c06071d8c" x="426.676317" y="684.92" style="stroke: #000000; stroke-width: 0.8"/>
      </g>
     </g>
     <g id="text_21">
      <!-- 2014-07-04 -->
      <g transform="translate(397.618504 699.518437) scale(0.1 -0.1)">
       <use xlink:href="#DejaVuSans-32"/>
       <use xlink:href="#DejaVuSans-30" x="63.623047"/>
       <use xlink:href="#DejaVuSans-31" x="127.246094"/>
       <use xlink:href="#DejaVuSans-34" x="190.869141"/>
       <use xlink:href="#DejaVuSans-2d" x="254.492188"/>
       <use xlink:href="#DejaVuSans-30" x="290.576172"/>
       <use xlink:href="#DejaVuSans-37" x="354.199219"/>
       <use xlink:href="#DejaVuSans-2d" x="417.822266"/>
       <use xlink:href="#DejaVuSans-30" x="453.90625"/>
       <use xlink:href="#DejaVuSans-34" x="517.529297"/>
      </g>
     </g>
    </g>
    <g id="xtick_11">
     <g id="line2d_23">
      <g>
       <use xlink:href="#m8c06071d8c" x="549.110988" y="684.92" style="stroke: #000000; stroke-width: 0.8"/>
      </g>
     </g>
     <g id="text_22">
      <!-- 2014-07-05 -->
      <g transform="translate(520.053175 699.518437) scale(0.1 -0.1)">
       <use xlink:href="#DejaVuSans-32"/>
       <use xlink:href="#DejaVuSans-30" x="63.623047"/>
       <use xlink:href="#DejaVuSans-31" x="127.246094"/>
       <use xlink:href="#DejaVuSans-34" x="190.869141"/>
       <use xlink:href="#DejaVuSans-2d" x="254.492188"/>
       <use xlink:href="#DejaVuSans-30" x="290.576172"/>
       <use xlink:href="#DejaVuSans-37" x="354.199219"/>
       <use xlink:href="#DejaVuSans-2d" x="417.822266"/>
       <use xlink:href="#DejaVuSans-30" x="453.90625"/>
       <use xlink:href="#DejaVuSans-35" x="517.529297"/>
      </g>
     </g>
    </g>
    <g id="xtick_12">
     <g id="line2d_24">
      <g>
       <use xlink:href="#m8c06071d8c" x="671.545659" y="684.92" style="stroke: #000000; stroke-width: 0.8"/>
      </g>
     </g>
     <g id="text_23">
      <!-- 2014-07-06 -->
      <g transform="translate(642.487846 699.518437) scale(0.1 -0.1)">
       <use xlink:href="#DejaVuSans-32"/>
       <use xlink:href="#DejaVuSans-30" x="63.623047"/>
       <use xlink:href="#DejaVuSans-31" x="127.246094"/>
       <use xlink:href="#DejaVuSans-34" x="190.869141"/>
       <use xlink:href="#DejaVuSans-2d" x="254.492188"/>
       <use xlink:href="#DejaVuSans-30" x="290.576172"/>
       <use xlink:href="#DejaVuSans-37" x="354.199219"/>
       <use xlink:href="#DejaVuSans-2d" x="417.822266"/>
       <use xlink:href="#DejaVuSans-30" x="453.90625"/>
       <use xlink:href="#DejaVuSans-36" x="517.529297"/>
      </g>
     </g>
    </g>
   </g>
   <g id="matplotlib.axis_4">
    <g id="ytick_9">
     <g id="line2d_25">
      <g>
       <use xlink:href="#mf5e3c7e3d8" x="28.942187" y="669.914375" style="stroke: #000000; stroke-width: 0.8"/>
      </g>
     </g>
     <g id="text_24">
      <!-- 0 -->
      <g transform="translate(15.579687 673.713593) scale(0.1 -0.1)">
       <use xlink:href="#DejaVuSans-30"/>
      </g>
     </g>
    </g>
    <g id="ytick_10">
     <g id="line2d_26">
      <g>
       <use xlink:href="#mf5e3c7e3d8" x="28.942187" y="625.600249" style="stroke: #000000; stroke-width: 0.8"/>
      </g>
     </g>
     <g id="text_25">
      <!-- 1 -->
      <g transform="translate(15.579687 629.399468) scale(0.1 -0.1)">
       <use xlink:href="#DejaVuSans-31"/>
      </g>
     </g>
    </g>
    <g id="ytick_11">
     <g id="line2d_27">
      <g>
       <use xlink:href="#mf5e3c7e3d8" x="28.942187" y="581.286124" style="stroke: #000000; stroke-width: 0.8"/>
      </g>
     </g>
     <g id="text_26">
      <!-- 2 -->
      <g transform="translate(15.579687 585.085342) scale(0.1 -0.1)">
       <use xlink:href="#DejaVuSans-32"/>
      </g>
     </g>
    </g>
    <g id="ytick_12">
     <g id="line2d_28">
      <g>
       <use xlink:href="#mf5e3c7e3d8" x="28.942187" y="536.971998" style="stroke: #000000; stroke-width: 0.8"/>
      </g>
     </g>
     <g id="text_27">
      <!-- 3 -->
      <g transform="translate(15.579687 540.771217) scale(0.1 -0.1)">
       <use xlink:href="#DejaVuSans-33"/>
      </g>
     </g>
    </g>
    <g id="ytick_13">
     <g id="line2d_29">
      <g>
       <use xlink:href="#mf5e3c7e3d8" x="28.942187" y="492.657873" style="stroke: #000000; stroke-width: 0.8"/>
      </g>
     </g>
     <g id="text_28">
      <!-- 4 -->
      <g transform="translate(15.579687 496.457092) scale(0.1 -0.1)">
       <use xlink:href="#DejaVuSans-34"/>
      </g>
     </g>
    </g>
    <g id="ytick_14">
     <g id="line2d_30">
      <g>
       <use xlink:href="#mf5e3c7e3d8" x="28.942187" y="448.343747" style="stroke: #000000; stroke-width: 0.8"/>
      </g>
     </g>
     <g id="text_29">
      <!-- 5 -->
      <g transform="translate(15.579687 452.142966) scale(0.1 -0.1)">
       <use xlink:href="#DejaVuSans-35"/>
      </g>
     </g>
    </g>
    <g id="ytick_15">
     <g id="line2d_31">
      <g>
       <use xlink:href="#mf5e3c7e3d8" x="28.942187" y="404.029622" style="stroke: #000000; stroke-width: 0.8"/>
      </g>
     </g>
     <g id="text_30">
      <!-- 6 -->
      <g transform="translate(15.579687 407.828841) scale(0.1 -0.1)">
       <use xlink:href="#DejaVuSans-36"/>
      </g>
     </g>
    </g>
   </g>
   <g id="line2d_32">
    <path d="M 59.542353 669.914375 
L 63.45346 669.812383 
L 65.74911 669.442577 
L 67.874712 669.106871 
L 69.405146 669.130579 
L 74.591614 669.303043 
L 75.781951 669.026513 
L 76.462144 668.674207 
L 76.972289 668.0795 
L 78.927842 664.957295 
L 79.608035 664.115644 
L 79.948131 663.741071 
L 80.713348 662.115531 
L 80.96842 661.80443 
L 81.138468 661.746491 
L 81.393541 661.209756 
L 81.818661 660.189455 
L 82.243781 657.794175 
L 82.583878 654.413209 
L 83.26407 647.65027 
L 83.859239 644.541295 
L 84.539431 642.895214 
L 85.814793 641.472632 
L 86.069865 641.293521 
L 86.324937 641.062909 
L 86.580009 641.024821 
L 87.00513 640.811238 
L 87.260202 640.843962 
L 87.770346 640.711969 
L 88.280491 640.675329 
L 88.450539 640.192346 
L 88.790635 638.924139 
L 88.960683 638.855855 
L 89.470828 639.003867 
L 89.810924 638.606305 
L 90.406093 637.909209 
L 90.746189 637.854414 
L 91.086285 638.136804 
L 91.59643 638.961094 
L 91.936526 639.490912 
L 92.106574 638.846278 
L 92.446671 637.219746 
L 92.531695 636.987174 
L 92.871791 633.839319 
L 93.211887 630.744385 
L 94.742321 596.531048 
L 94.997393 594.015871 
L 95.252465 591.341199 
L 95.507537 590.904899 
L 95.76261 589.310794 
L 95.847634 589.427314 
L 96.272754 590.338334 
L 96.357778 590.065126 
L 96.442802 590.153214 
L 96.867923 592.217908 
L 96.952947 592.159979 
L 97.122995 592.860036 
L 97.463091 594.633191 
L 97.548115 594.598014 
L 97.803187 595.239983 
L 97.888211 594.932205 
L 97.973236 593.780824 
L 98.143284 586.149711 
L 98.993524 508.157163 
L 99.503669 445.920488 
L 99.843765 424.659406 
L 100.608982 402.714156 
L 100.864054 399.900783 
L 101.034102 399.770344 
L 101.374199 401.07292 
L 101.714295 404.996158 
L 102.139415 412.296703 
L 103.329752 439.591085 
L 103.839897 450.813199 
L 104.690138 465.006003 
L 104.775162 464.375381 
L 105.115258 459.031235 
L 105.200282 459.109736 
L 105.37033 459.858415 
L 105.795451 455.258405 
L 105.965499 453.356163 
L 106.645691 444.217212 
L 107.325884 437.263821 
L 107.66598 436.086909 
L 107.836028 435.195852 
L 108.431197 430.924233 
L 108.941341 427.922417 
L 109.11139 427.833563 
L 109.281438 428.363984 
L 109.53651 430.347705 
L 109.876606 435.328616 
L 110.386751 447.678217 
L 111.066943 469.306528 
L 112.002208 504.538417 
L 113.532642 552.688183 
L 114.212834 555.922975 
L 114.978051 558.291507 
L 116.338436 560.874133 
L 117.188677 562.23672 
L 118.123942 564.059406 
L 118.889158 566.133809 
L 121.694953 575.277695 
L 122.88529 578.012483 
L 123.990603 579.779785 
L 125.350988 581.431877 
L 126.286253 582.238782 
L 128.496879 583.978139 
L 130.537457 585.714864 
L 131.64277 586.307166 
L 133.5133 586.940435 
L 134.448565 587.070024 
L 136.319094 587.153358 
L 139.039865 587.339508 
L 140.485274 587.979364 
L 141.505563 588.677731 
L 142.525852 589.640089 
L 143.631165 590.964841 
L 147.372224 595.873891 
L 148.392513 596.651578 
L 150.943235 598.256733 
L 154.17415 599.599595 
L 155.194439 599.97067 
L 156.384776 600.761991 
L 158.680426 602.213965 
L 162.166414 603.312916 
L 162.591534 603.136898 
L 163.271727 602.531638 
L 163.951919 602.018322 
L 164.37704 601.924386 
L 164.80216 602.048455 
L 165.312304 602.436397 
L 168.288147 605.207821 
L 169.818581 606.119459 
L 171.178966 606.653778 
L 172.454327 607.089185 
L 180.786686 610.862856 
L 183.337409 611.437878 
L 184.527746 611.604646 
L 185.377987 611.539664 
L 186.228227 611.181289 
L 187.248516 610.731777 
L 187.843685 610.690752 
L 188.77895 610.916892 
L 190.224359 611.46558 
L 192.009865 612.451276 
L 193.200202 613.133594 
L 194.305515 613.700275 
L 196.431117 614.808857 
L 198.216622 615.301443 
L 202.042706 616.948031 
L 203.403091 618.11899 
L 207.14415 621.569821 
L 207.654295 620.863709 
L 207.909367 620.036625 
L 208.844632 616.360304 
L 209.354776 614.496879 
L 210.205017 612.142563 
L 211.225306 607.560451 
L 211.820475 603.732132 
L 212.245595 599.946317 
L 213.861052 584.774678 
L 214.286173 583.125333 
L 214.626269 582.553084 
L 214.881341 582.492555 
L 215.221438 582.759007 
L 215.561534 583.364991 
L 217.602112 588.542115 
L 218.19728 589.69525 
L 218.792449 590.450363 
L 219.047521 590.498383 
L 219.217569 590.555937 
L 219.302593 590.454072 
L 219.557666 589.776159 
L 219.727714 589.565397 
L 219.812738 589.353468 
L 219.982786 587.638432 
L 220.918051 577.857353 
L 221.173123 576.473382 
L 221.343171 576.161504 
L 221.853316 575.924714 
L 222.023364 575.347944 
L 222.278436 573.455961 
L 222.533508 570.616322 
L 223.978918 550.736063 
L 224.23399 549.894757 
L 224.319014 549.86845 
L 224.489062 550.170988 
L 224.744134 551.403114 
L 225.169255 555.000085 
L 225.934471 564.038476 
L 227.124808 578.273235 
L 227.890025 584.531872 
L 228.40017 587.388631 
L 228.995338 589.63601 
L 229.505483 590.839648 
L 230.015627 591.567772 
L 230.69582 592.126745 
L 232.226253 593.258311 
L 232.821422 593.92362 
L 233.756686 595.273877 
L 235.627216 598.463972 
L 237.497746 601.712826 
L 238.518035 603.156333 
L 239.708372 604.573532 
L 240.728661 605.455186 
L 243.874552 607.397719 
L 244.894841 607.555591 
L 246.085178 607.737885 
L 248.465852 608.709439 
L 250.676478 609.753207 
L 252.461983 610.273327 
L 253.907393 610.828339 
L 257.648452 612.231703 
L 258.923813 612.846266 
L 259.68903 613.011296 
L 260.369223 612.999373 
L 261.134439 612.664484 
L 262.069704 612.23166 
L 262.919945 612.157022 
L 263.685162 612.400542 
L 267.086125 613.863351 
L 269.211727 614.658401 
L 270.146991 614.699965 
L 271.337328 614.88191 
L 272.697714 615.097918 
L 276.098677 614.980633 
L 277.459062 615.522987 
L 278.649399 615.869508 
L 281.710266 615.890713 
L 282.900603 615.811103 
L 283.750844 616.037602 
L 287.066783 617.19201 
L 287.917023 617.256897 
L 288.68224 617.370812 
L 289.192385 617.688617 
L 289.872577 618.438168 
L 292.84842 622.189603 
L 294.293829 623.38678 
L 295.484166 624.091919 
L 297.184648 624.782558 
L 298.715081 625.134044 
L 302.796237 625.926546 
L 304.411694 626.276178 
L 305.261935 626.268431 
L 306.282224 626.019967 
L 307.472561 625.290506 
L 308.06773 624.527944 
L 308.49285 623.75404 
L 308.832946 623.147169 
L 311.723765 615.040829 
L 313.08415 609.84867 
L 313.849367 607.079249 
L 314.614584 604.990973 
L 315.3798 603.707325 
L 316.059993 602.822802 
L 316.400089 601.927857 
L 316.995258 600.988389 
L 317.505402 600.746586 
L 317.845499 600.892953 
L 319.12086 601.903947 
L 320.481245 602.355704 
L 320.991389 602.87893 
L 321.501534 603.730431 
L 322.266751 605.54796 
L 323.372064 608.206567 
L 324.052256 609.289823 
L 324.902497 610.18003 
L 326.262882 611.159181 
L 331.704423 614.765549 
L 332.979784 615.962425 
L 334.000073 617.196976 
L 335.785579 619.567272 
L 337.06094 620.859911 
L 338.506349 621.979966 
L 340.376879 623.145748 
L 342.162385 624.009061 
L 343.94789 624.617163 
L 345.648372 625.267738 
L 347.093781 626.095408 
L 350.83484 628.663732 
L 353.980731 630.613405 
L 358.061887 632.805979 
L 368.604872 637.446364 
L 371.665739 638.469176 
L 373.536269 638.895177 
L 375.406799 639.056675 
L 380.338195 639.139618 
L 403.634792 639.551856 
L 432.117858 640.264074 
L 464.341983 641.302784 
L 491.464664 642.350548 
L 526.749656 643.949587 
L 566.88102 646.217246 
L 581.590185 647.228843 
L 590.687761 648.238364 
L 611.263588 650.737331 
L 645.358243 655.524753 
L 652.585289 656.302922 
L 663.213299 657.258046 
L 671.545659 657.84651 
L 671.545659 657.84651 
" clip-path="url(#p4108eea07a)" style="fill: none; stroke: #1f77b4; stroke-width: 1.5; stroke-linecap: square"/>
   </g>
   <g id="line2d_33">
    <path d="M 59.542353 669.914375 
L 61.752979 669.812295 
L 62.263123 669.554229 
L 62.943316 668.939619 
L 64.133653 667.373529 
L 65.153942 666.078761 
L 65.919159 665.374799 
L 66.684375 664.909036 
L 67.959736 664.460404 
L 68.554905 664.453499 
L 69.065049 664.663498 
L 69.575194 665.112493 
L 70.170362 665.934565 
L 71.105627 667.685511 
L 72.466012 670.198909 
L 73.146205 671.018632 
L 73.741374 671.338472 
L 74.251518 671.246665 
L 74.676638 670.819914 
L 75.016735 670.339772 
L 75.696927 668.775418 
L 76.632192 665.805702 
L 81.903685 644.853478 
L 83.774215 634.914126 
L 84.454407 631.794342 
L 86.750057 624.973547 
L 87.770346 622.500136 
L 88.195467 621.729991 
L 88.280491 621.774642 
L 88.620587 621.210568 
L 89.045707 620.853526 
L 89.385804 620.370439 
L 89.7259 619.463147 
L 91.171309 614.840713 
L 91.426382 614.734975 
L 91.59643 614.871946 
L 91.851502 615.506609 
L 92.616719 619.95581 
L 93.041839 622.260686 
L 93.211887 622.980419 
L 93.381935 622.756735 
L 93.637008 621.541168 
L 93.807056 620.697208 
L 95.847634 602.065514 
L 96.102706 601.153459 
L 96.272754 601.167878 
L 96.697874 599.928578 
L 96.867923 599.151838 
L 97.122995 595.965718 
L 97.463091 588.454378 
L 97.888211 571.879497 
L 98.398356 543.706148 
L 100.098837 441.841767 
L 100.694006 421.198997 
L 101.119126 412.381474 
L 101.544247 407.401634 
L 101.884343 406.00562 
L 102.054391 405.876437 
L 102.224439 406.119902 
L 102.64956 408.480878 
L 103.07468 412.575943 
L 103.669849 420.26617 
L 105.540378 445.01735 
L 106.475643 452.897297 
L 107.325884 459.038863 
L 108.346173 464.654057 
L 108.686269 465.786929 
L 108.941341 466.052289 
L 109.11139 465.990207 
L 109.791582 465.255213 
L 109.96163 465.529892 
L 110.216703 466.735141 
L 110.556799 470.05893 
L 110.981919 476.786665 
L 112.002208 498.095975 
L 112.937473 515.623648 
L 113.787714 527.585363 
L 114.552931 535.493999 
L 115.318147 541.328749 
L 116.253412 546.645129 
L 117.273701 551.243983 
L 118.71911 556.672189 
L 120.079496 561.164939 
L 121.779977 565.958684 
L 122.035049 566.223612 
L 122.290122 566.200406 
L 122.715242 565.766685 
L 123.735531 564.311833 
L 124.160651 564.168017 
L 124.330699 564.272103 
L 124.670796 564.791458 
L 125.010892 565.805741 
L 125.521036 568.087442 
L 127.731662 579.780129 
L 128.496879 582.123174 
L 129.092048 583.43018 
L 129.687216 584.4556 
L 131.472722 586.745532 
L 132.918131 588.283082 
L 133.343252 588.664407 
L 134.023444 589.241673 
L 134.448565 589.633721 
L 136.999287 591.387013 
L 137.169335 591.500431 
L 137.424407 591.650348 
L 139.124889 592.370778 
L 139.550009 592.807366 
L 139.97513 593.610059 
L 140.485274 595.171295 
L 141.080443 597.88828 
L 141.845659 602.587181 
L 143.716189 614.691552 
L 144.396382 617.627493 
L 144.99155 619.378865 
L 145.586719 620.512938 
L 146.181887 621.205084 
L 147.202176 621.906469 
L 147.712321 621.894092 
L 148.052417 621.562423 
L 148.477537 620.7497 
L 148.987682 619.101571 
L 150.858211 612.323349 
L 151.198308 611.867583 
L 151.538404 611.807712 
L 151.8785 611.993494 
L 152.388645 612.641497 
L 153.493958 614.597205 
L 154.17415 615.423187 
L 154.684295 615.610454 
L 155.279463 615.434904 
L 156.639849 614.717249 
L 157.064969 614.723673 
L 157.405065 614.878963 
L 158.085258 615.612393 
L 158.595402 616.40859 
L 159.275595 617.56236 
L 159.870764 618.071003 
L 160.380908 618.117024 
L 160.806028 618.005754 
L 161.826317 617.63224 
L 162.166414 617.738394 
L 162.846606 618.774677 
L 164.887184 623.44262 
L 165.312304 623.681797 
L 165.652401 623.669639 
L 166.502642 623.584723 
L 167.52293 623.956 
L 168.373171 624.03201 
L 168.798292 623.765132 
L 169.39346 622.978387 
L 170.158677 621.845499 
L 170.668821 621.642699 
L 170.838869 621.726619 
L 171.349014 622.370758 
L 172.029207 623.916003 
L 173.644664 627.753737 
L 174.494905 629.24253 
L 175.175097 629.986947 
L 176.025338 630.300274 
L 176.620507 630.216127 
L 177.130651 629.802429 
L 178.746109 628.092644 
L 179.171229 628.099879 
L 179.511325 628.358268 
L 179.851422 628.792376 
L 180.191518 629.535697 
L 180.871711 631.459031 
L 181.721951 633.612273 
L 182.147072 634.116163 
L 182.487168 634.164051 
L 182.74224 634.009966 
L 183.337409 633.226761 
L 184.61277 631.151393 
L 185.292963 630.308819 
L 185.888131 629.775362 
L 186.653348 629.339169 
L 187.078468 629.316366 
L 187.503589 629.391134 
L 188.013733 629.680393 
L 189.119046 630.873712 
L 191.414696 635.129428 
L 193.540298 639.429039 
L 193.965418 639.838793 
L 194.305515 639.871996 
L 194.815659 639.512873 
L 196.005996 638.325211 
L 196.431117 638.017951 
L 197.281357 638.044795 
L 198.981839 638.434789 
L 199.406959 638.893514 
L 199.83208 639.68186 
L 200.342224 641.137714 
L 201.107441 644.198733 
L 202.382802 649.419292 
L 202.977971 651.042778 
L 203.573139 652.041677 
L 204.083284 652.505532 
L 204.678452 652.741302 
L 205.443669 652.771857 
L 206.804054 652.543055 
L 206.889078 652.474506 
L 207.059126 652.821632 
L 207.14415 652.752347 
L 207.569271 652.807789 
L 207.654295 652.963424 
L 207.994391 652.493138 
L 208.419512 650.722189 
L 208.844632 646.576571 
L 209.4398 636.747684 
L 210.119993 622.691974 
L 211.055258 603.887498 
L 211.565402 596.967855 
L 212.075547 592.542353 
L 214.796317 573.230582 
L 215.47651 570.887103 
L 215.986654 570.416166 
L 216.156703 570.488274 
L 216.666847 571.209342 
L 217.34704 573.449363 
L 218.452353 578.623865 
L 219.387617 581.968016 
L 219.557666 582.046672 
L 219.64269 582.042318 
L 219.812738 581.816815 
L 219.897762 581.74127 
L 220.407906 579.383685 
L 220.833027 575.903317 
L 222.193412 563.374469 
L 223.128677 557.114087 
L 223.808869 552.893965 
L 224.23399 548.398395 
L 225.339303 534.684382 
L 225.509351 534.191869 
L 225.594375 534.211409 
L 225.764423 534.772995 
L 226.019495 536.803084 
L 226.444616 542.484954 
L 227.975049 565.208813 
L 228.655242 571.562376 
L 229.335434 575.895132 
L 230.015627 578.840514 
L 230.780844 581.1178 
L 231.631085 582.94616 
L 232.906446 585.120438 
L 234.011759 586.629455 
L 234.606927 587.031716 
L 235.032048 587.024053 
L 235.372144 586.843891 
L 235.967312 586.210522 
L 236.902577 585.144711 
L 237.58277 584.940747 
L 238.773107 585.681155 
L 239.198227 585.978108 
L 240.473589 586.394439 
L 241.663926 585.915445 
L 242.59919 585.30387 
L 243.024311 585.196042 
L 243.534455 585.531307 
L 243.789528 585.978908 
L 244.214648 586.967811 
L 246.595322 595.17358 
L 247.615611 597.026411 
L 248.550876 598.48444 
L 249.316093 600.019504 
L 249.996285 601.095925 
L 251.186622 602.15198 
L 251.781791 602.383608 
L 252.547007 602.558526 
L 252.887104 602.893989 
L 253.65232 604.462707 
L 254.587585 607.371125 
L 255.862946 611.941325 
L 256.373091 613.228923 
L 256.798211 613.75592 
L 257.223332 613.850185 
L 257.8185 613.498723 
L 258.923813 612.585403 
L 259.944102 612.621987 
L 262.579849 613.336175 
L 263.089993 613.926892 
L 263.770186 615.083179 
L 264.70545 617.230219 
L 266.15086 620.544165 
L 266.831052 621.206416 
L 267.256173 621.325187 
L 267.766317 621.204376 
L 268.956654 620.496715 
L 269.381775 620.418301 
L 269.636847 620.434265 
L 270.402064 620.229088 
L 270.997232 619.731669 
L 271.677425 619.143052 
L 272.017521 619.090025 
L 272.357617 619.248686 
L 272.867762 620.154272 
L 273.292882 621.42509 
L 274.313171 625.254998 
L 274.738292 626.572811 
L 275.248436 627.496622 
L 275.503508 627.573317 
L 275.75858 627.407075 
L 276.183701 626.69831 
L 277.289014 624.40306 
L 277.62911 624.15613 
L 277.884182 624.16851 
L 278.479351 624.949015 
L 279.92476 628.460261 
L 280.519929 629.020872 
L 281.115097 629.047787 
L 281.880314 628.703095 
L 282.560507 628.28907 
L 283.495771 627.9806 
L 284.005916 627.985299 
L 284.346012 628.184188 
L 284.686109 628.617264 
L 285.111229 629.547717 
L 285.621373 631.258165 
L 286.301566 634.396796 
L 288.087072 643.064815 
L 288.68224 644.792332 
L 289.192385 645.708338 
L 289.702529 646.218603 
L 290.212674 646.449799 
L 290.892866 646.502904 
L 292.338275 646.295469 
L 292.678372 645.988626 
L 293.103492 645.259939 
L 293.868709 643.352628 
L 294.803974 641.185666 
L 295.314118 640.541451 
L 295.654214 640.44414 
L 295.994311 640.628397 
L 296.419431 641.194527 
L 297.099624 642.570714 
L 297.949865 644.088451 
L 298.374985 644.430592 
L 298.715081 644.440713 
L 299.140202 644.202822 
L 299.990442 643.365437 
L 300.755659 642.757827 
L 301.180779 642.637377 
L 301.860972 642.858093 
L 302.541165 643.243804 
L 303.136333 643.295212 
L 303.561454 642.956942 
L 303.816526 642.672022 
L 304.411694 641.460572 
L 305.261935 638.736082 
L 308.832946 624.938323 
L 309.938259 619.323725 
L 311.893813 608.023021 
L 312.488982 605.698849 
L 312.999126 604.211487 
L 313.679319 602.609083 
L 314.614584 600.700667 
L 314.95468 600.200877 
L 315.549848 599.322877 
L 315.804921 598.930762 
L 315.974969 599.14316 
L 316.230041 598.874582 
L 316.570137 598.754882 
L 316.82521 598.69929 
L 317.080282 598.446363 
L 317.420378 597.762121 
L 318.780763 594.225271 
L 318.950812 594.171969 
L 319.205884 594.387931 
L 319.460956 594.990343 
L 319.801052 596.456224 
L 320.226173 599.269057 
L 320.906365 605.577963 
L 323.116991 627.858665 
L 323.627136 630.406269 
L 324.13728 631.869454 
L 324.647425 632.591273 
L 325.157569 632.877656 
L 325.837762 632.890349 
L 327.708291 632.643585 
L 328.218436 632.908923 
L 328.72858 633.417252 
L 329.408773 634.434145 
L 331.534375 637.940604 
L 332.129543 638.420389 
L 332.724712 638.602116 
L 333.489929 638.558214 
L 335.870603 638.22301 
L 337.911181 638.128988 
L 339.866734 637.736635 
L 355.596189 634.19234 
L 365.373958 632.270766 
L 375.066702 630.593532 
L 384.844471 629.126987 
L 395.04736 627.824006 
L 405.760394 626.682795 
L 417.238644 625.6862 
L 429.822208 624.82081 
L 443.851181 624.083314 
L 459.920731 623.466269 
L 478.966124 622.964229 
L 502.602818 622.573251 
L 533.976702 622.290468 
L 580.739944 622.112129 
L 670.95049 622.030619 
L 671.545659 622.030459 
L 671.545659 622.030459 
" clip-path="url(#p4108eea07a)" style="fill: none; stroke: #ff7f0e; stroke-width: 1.5; stroke-linecap: square"/>
   </g>
   <g id="patch_9">
    <path d="M 28.942187 684.92 
L 28.942187 386.16 
" style="fill: none; stroke: #000000; stroke-width: 0.8; stroke-linejoin: miter; stroke-linecap: square"/>
   </g>
   <g id="patch_10">
    <path d="M 702.145824 684.92 
L 702.145824 386.16 
" style="fill: none; stroke: #000000; stroke-width: 0.8; stroke-linejoin: miter; stroke-linecap: square"/>
   </g>
   <g id="patch_11">
    <path d="M 28.942187 684.92 
L 702.145824 684.92 
" style="fill: none; stroke: #000000; stroke-width: 0.8; stroke-linejoin: miter; stroke-linecap: square"/>
   </g>
   <g id="patch_12">
    <path d="M 28.942187 386.16 
L 702.145824 386.16 
" style="fill: none; stroke: #000000; stroke-width: 0.8; stroke-linejoin: miter; stroke-linecap: square"/>
   </g>
   <g id="text_31">
    <!-- 2 transformation(s) -->
    <g transform="translate(307.429318 380.16) scale(0.12 -0.12)">
     <use xlink:href="#DejaVuSans-32"/>
     <use xlink:href="#DejaVuSans-20" x="63.623047"/>
     <use xlink:href="#DejaVuSans-74" x="95.410156"/>
     <use xlink:href="#DejaVuSans-72" x="134.619141"/>
     <use xlink:href="#DejaVuSans-61" x="175.732422"/>
     <use xlink:href="#DejaVuSans-6e" x="237.011719"/>
     <use xlink:href="#DejaVuSans-73" x="300.390625"/>
     <use xlink:href="#DejaVuSans-66" x="352.490234"/>
     <use xlink:href="#DejaVuSans-6f" x="387.695312"/>
     <use xlink:href="#DejaVuSans-72" x="448.876953"/>
     <use xlink:href="#DejaVuSans-6d" x="488.240234"/>
     <use xlink:href="#DejaVuSans-61" x="585.652344"/>
     <use xlink:href="#DejaVuSans-74" x="646.931641"/>
     <use xlink:href="#DejaVuSans-69" x="686.140625"/>
     <use xlink:href="#DejaVuSans-6f" x="713.923828"/>
     <use xlink:href="#DejaVuSans-6e" x="775.105469"/>
     <use xlink:href="#DejaVuSans-28" x="838.484375"/>
     <use xlink:href="#DejaVuSans-73" x="877.498047"/>
     <use xlink:href="#DejaVuSans-29" x="929.597656"/>
    </g>
   </g>
  </g>
  <g id="text_32">
   <!-- training -->
   <g transform="translate(333.13875 16.318125) scale(0.12 -0.12)">
    <defs>
     <path id="DejaVuSans-67" d="M 2906 1791 
Q 2906 2416 2648 2759 
Q 2391 3103 1925 3103 
Q 1463 3103 1205 2759 
Q 947 2416 947 1791 
Q 947 1169 1205 825 
Q 1463 481 1925 481 
Q 2391 481 2648 825 
Q 2906 1169 2906 1791 
z
M 3481 434 
Q 3481 -459 3084 -895 
Q 2688 -1331 1869 -1331 
Q 1566 -1331 1297 -1286 
Q 1028 -1241 775 -1147 
L 775 -588 
Q 1028 -725 1275 -790 
Q 1522 -856 1778 -856 
Q 2344 -856 2625 -561 
Q 2906 -266 2906 331 
L 2906 616 
Q 2728 306 2450 153 
Q 2172 0 1784 0 
Q 1141 0 747 490 
Q 353 981 353 1791 
Q 353 2603 747 3093 
Q 1141 3584 1784 3584 
Q 2172 3584 2450 3431 
Q 2728 3278 2906 2969 
L 2906 3500 
L 3481 3500 
L 3481 434 
z
" transform="scale(0.015625)"/>
    </defs>
    <use xlink:href="#DejaVuSans-74"/>
    <use xlink:href="#DejaVuSans-72" x="39.208984"/>
    <use xlink:href="#DejaVuSans-61" x="80.322266"/>
    <use xlink:href="#DejaVuSans-69" x="141.601562"/>
    <use xlink:href="#DejaVuSans-6e" x="169.384766"/>
    <use xlink:href="#DejaVuSans-69" x="232.763672"/>
    <use xlink:href="#DejaVuSans-6e" x="260.546875"/>
    <use xlink:href="#DejaVuSans-67" x="323.925781"/>
   </g>
  </g>
 </g>
 <defs>
  <clipPath id="p8208e0a2a6">
   <rect x="28.942187" y="43.44" width="673.203636" height="298.76"/>
  </clipPath>
  <clipPath id="p4108eea07a">
   <rect x="28.942187" y="386.16" width="673.203636" height="298.76"/>
  </clipPath>
 </defs>
</svg>
