<?xml version="1.0" encoding="utf-8" standalone="no"?>
<!DOCTYPE svg PUBLIC "-//W3C//DTD SVG 1.1//EN"
  "http://www.w3.org/Graphics/SVG/1.1/DTD/svg11.dtd">
<svg xmlns:xlink="http://www.w3.org/1999/xlink" width="709.336136pt" height="708.798125pt" viewBox="0 0 709.336136 708.798125" xmlns="http://www.w3.org/2000/svg" version="1.1">
 <metadata>
  <rdf:RDF xmlns:dc="http://purl.org/dc/elements/1.1/" xmlns:cc="http://creativecommons.org/ns#" xmlns:rdf="http://www.w3.org/1999/02/22-rdf-syntax-ns#">
   <cc:Work>
    <dc:type rdf:resource="http://purl.org/dc/dcmitype/StillImage"/>
    <dc:date>2023-06-09T05:08:05.650358</dc:date>
    <dc:format>image/svg+xml</dc:format>
    <dc:creator>
     <cc:Agent>
      <dc:title>Matplotlib v3.7.1, https://matplotlib.org/</dc:title>
     </cc:Agent>
    </dc:creator>
   </cc:Work>
  </rdf:RDF>
 </metadata>
 <defs>
  <style type="text/css">*{stroke-linejoin: round; stroke-linecap: butt}</style>
 </defs>
 <g id="figure_1">
  <g id="patch_1">
   <path d="M 0 708.798125 
L 709.336136 708.798125 
L 709.336136 0 
L 0 0 
z
" style="fill: #ffffff"/>
  </g>
  <g id="axes_1">
   <g id="patch_2">
    <path d="M 20.5625 342.2 
L 702.136136 342.2 
L 702.136136 43.44 
L 20.5625 43.44 
z
" style="fill: #ffffff"/>
   </g>
   <g id="matplotlib.axis_1">
    <g id="xtick_1">
     <g id="line2d_1">
      <defs>
       <path id="mc12f85f739" d="M 0 0 
L 0 3.5 
" style="stroke: #000000; stroke-width: 0.8"/>
      </defs>
      <g>
       <use xlink:href="#mc12f85f739" x="51.370957" y="342.2" style="stroke: #000000; stroke-width: 0.8"/>
      </g>
     </g>
     <g id="text_1">
      <!-- 2014-07-01 -->
      <g transform="translate(22.313145 356.798437) scale(0.1 -0.1)">
       <defs>
        <path id="DejaVuSans-32" d="M 1228 531 
L 3431 531 
L 3431 0 
L 469 0 
L 469 531 
Q 828 903 1448 1529 
Q 2069 2156 2228 2338 
Q 2531 2678 2651 2914 
Q 2772 3150 2772 3378 
Q 2772 3750 2511 3984 
Q 2250 4219 1831 4219 
Q 1534 4219 1204 4116 
Q 875 4013 500 3803 
L 500 4441 
Q 881 4594 1212 4672 
Q 1544 4750 1819 4750 
Q 2544 4750 2975 4387 
Q 3406 4025 3406 3419 
Q 3406 3131 3298 2873 
Q 3191 2616 2906 2266 
Q 2828 2175 2409 1742 
Q 1991 1309 1228 531 
z
" transform="scale(0.015625)"/>
        <path id="DejaVuSans-30" d="M 2034 4250 
Q 1547 4250 1301 3770 
Q 1056 3291 1056 2328 
Q 1056 1369 1301 889 
Q 1547 409 2034 409 
Q 2525 409 2770 889 
Q 3016 1369 3016 2328 
Q 3016 3291 2770 3770 
Q 2525 4250 2034 4250 
z
M 2034 4750 
Q 2819 4750 3233 4129 
Q 3647 3509 3647 2328 
Q 3647 1150 3233 529 
Q 2819 -91 2034 -91 
Q 1250 -91 836 529 
Q 422 1150 422 2328 
Q 422 3509 836 4129 
Q 1250 4750 2034 4750 
z
" transform="scale(0.015625)"/>
        <path id="DejaVuSans-31" d="M 794 531 
L 1825 531 
L 1825 4091 
L 703 3866 
L 703 4441 
L 1819 4666 
L 2450 4666 
L 2450 531 
L 3481 531 
L 3481 0 
L 794 0 
L 794 531 
z
" transform="scale(0.015625)"/>
        <path id="DejaVuSans-34" d="M 2419 4116 
L 825 1625 
L 2419 1625 
L 2419 4116 
z
M 2253 4666 
L 3047 4666 
L 3047 1625 
L 3713 1625 
L 3713 1100 
L 3047 1100 
L 3047 0 
L 2419 0 
L 2419 1100 
L 313 1100 
L 313 1709 
L 2253 4666 
z
" transform="scale(0.015625)"/>
        <path id="DejaVuSans-2d" d="M 313 2009 
L 1997 2009 
L 1997 1497 
L 313 1497 
L 313 2009 
z
" transform="scale(0.015625)"/>
        <path id="DejaVuSans-37" d="M 525 4666 
L 3525 4666 
L 3525 4397 
L 1831 0 
L 1172 0 
L 2766 4134 
L 525 4134 
L 525 4666 
z
" transform="scale(0.015625)"/>
       </defs>
       <use xlink:href="#DejaVuSans-32"/>
       <use xlink:href="#DejaVuSans-30" x="63.623047"/>
       <use xlink:href="#DejaVuSans-31" x="127.246094"/>
       <use xlink:href="#DejaVuSans-34" x="190.869141"/>
       <use xlink:href="#DejaVuSans-2d" x="254.492188"/>
       <use xlink:href="#DejaVuSans-30" x="290.576172"/>
       <use xlink:href="#DejaVuSans-37" x="354.199219"/>
       <use xlink:href="#DejaVuSans-2d" x="417.822266"/>
       <use xlink:href="#DejaVuSans-30" x="453.90625"/>
       <use xlink:href="#DejaVuSans-31" x="517.529297"/>
      </g>
     </g>
    </g>
    <g id="xtick_2">
     <g id="line2d_2">
      <g>
       <use xlink:href="#mc12f85f739" x="175.327869" y="342.2" style="stroke: #000000; stroke-width: 0.8"/>
      </g>
     </g>
     <g id="text_2">
      <!-- 2014-07-02 -->
      <g transform="translate(146.270057 356.798437) scale(0.1 -0.1)">
       <use xlink:href="#DejaVuSans-32"/>
       <use xlink:href="#DejaVuSans-30" x="63.623047"/>
       <use xlink:href="#DejaVuSans-31" x="127.246094"/>
       <use xlink:href="#DejaVuSans-34" x="190.869141"/>
       <use xlink:href="#DejaVuSans-2d" x="254.492188"/>
       <use xlink:href="#DejaVuSans-30" x="290.576172"/>
       <use xlink:href="#DejaVuSans-37" x="354.199219"/>
       <use xlink:href="#DejaVuSans-2d" x="417.822266"/>
       <use xlink:href="#DejaVuSans-30" x="453.90625"/>
       <use xlink:href="#DejaVuSans-32" x="517.529297"/>
      </g>
     </g>
    </g>
    <g id="xtick_3">
     <g id="line2d_3">
      <g>
       <use xlink:href="#mc12f85f739" x="299.284781" y="342.2" style="stroke: #000000; stroke-width: 0.8"/>
      </g>
     </g>
     <g id="text_3">
      <!-- 2014-07-03 -->
      <g transform="translate(270.226969 356.798437) scale(0.1 -0.1)">
       <defs>
        <path id="DejaVuSans-33" d="M 2597 2516 
Q 3050 2419 3304 2112 
Q 3559 1806 3559 1356 
Q 3559 666 3084 287 
Q 2609 -91 1734 -91 
Q 1441 -91 1130 -33 
Q 819 25 488 141 
L 488 750 
Q 750 597 1062 519 
Q 1375 441 1716 441 
Q 2309 441 2620 675 
Q 2931 909 2931 1356 
Q 2931 1769 2642 2001 
Q 2353 2234 1838 2234 
L 1294 2234 
L 1294 2753 
L 1863 2753 
Q 2328 2753 2575 2939 
Q 2822 3125 2822 3475 
Q 2822 3834 2567 4026 
Q 2313 4219 1838 4219 
Q 1578 4219 1281 4162 
Q 984 4106 628 3988 
L 628 4550 
Q 988 4650 1302 4700 
Q 1616 4750 1894 4750 
Q 2613 4750 3031 4423 
Q 3450 4097 3450 3541 
Q 3450 3153 3228 2886 
Q 3006 2619 2597 2516 
z
" transform="scale(0.015625)"/>
       </defs>
       <use xlink:href="#DejaVuSans-32"/>
       <use xlink:href="#DejaVuSans-30" x="63.623047"/>
       <use xlink:href="#DejaVuSans-31" x="127.246094"/>
       <use xlink:href="#DejaVuSans-34" x="190.869141"/>
       <use xlink:href="#DejaVuSans-2d" x="254.492188"/>
       <use xlink:href="#DejaVuSans-30" x="290.576172"/>
       <use xlink:href="#DejaVuSans-37" x="354.199219"/>
       <use xlink:href="#DejaVuSans-2d" x="417.822266"/>
       <use xlink:href="#DejaVuSans-30" x="453.90625"/>
       <use xlink:href="#DejaVuSans-33" x="517.529297"/>
      </g>
     </g>
    </g>
    <g id="xtick_4">
     <g id="line2d_4">
      <g>
       <use xlink:href="#mc12f85f739" x="423.241693" y="342.2" style="stroke: #000000; stroke-width: 0.8"/>
      </g>
     </g>
     <g id="text_4">
      <!-- 2014-07-04 -->
      <g transform="translate(394.18388 356.798437) scale(0.1 -0.1)">
       <use xlink:href="#DejaVuSans-32"/>
       <use xlink:href="#DejaVuSans-30" x="63.623047"/>
       <use xlink:href="#DejaVuSans-31" x="127.246094"/>
       <use xlink:href="#DejaVuSans-34" x="190.869141"/>
       <use xlink:href="#DejaVuSans-2d" x="254.492188"/>
       <use xlink:href="#DejaVuSans-30" x="290.576172"/>
       <use xlink:href="#DejaVuSans-37" x="354.199219"/>
       <use xlink:href="#DejaVuSans-2d" x="417.822266"/>
       <use xlink:href="#DejaVuSans-30" x="453.90625"/>
       <use xlink:href="#DejaVuSans-34" x="517.529297"/>
      </g>
     </g>
    </g>
    <g id="xtick_5">
     <g id="line2d_5">
      <g>
       <use xlink:href="#mc12f85f739" x="547.198605" y="342.2" style="stroke: #000000; stroke-width: 0.8"/>
      </g>
     </g>
     <g id="text_5">
      <!-- 2014-07-05 -->
      <g transform="translate(518.140792 356.798437) scale(0.1 -0.1)">
       <defs>
        <path id="DejaVuSans-35" d="M 691 4666 
L 3169 4666 
L 3169 4134 
L 1269 4134 
L 1269 2991 
Q 1406 3038 1543 3061 
Q 1681 3084 1819 3084 
Q 2600 3084 3056 2656 
Q 3513 2228 3513 1497 
Q 3513 744 3044 326 
Q 2575 -91 1722 -91 
Q 1428 -91 1123 -41 
Q 819 9 494 109 
L 494 744 
Q 775 591 1075 516 
Q 1375 441 1709 441 
Q 2250 441 2565 725 
Q 2881 1009 2881 1497 
Q 2881 1984 2565 2268 
Q 2250 2553 1709 2553 
Q 1456 2553 1204 2497 
Q 953 2441 691 2322 
L 691 4666 
z
" transform="scale(0.015625)"/>
       </defs>
       <use xlink:href="#DejaVuSans-32"/>
       <use xlink:href="#DejaVuSans-30" x="63.623047"/>
       <use xlink:href="#DejaVuSans-31" x="127.246094"/>
       <use xlink:href="#DejaVuSans-34" x="190.869141"/>
       <use xlink:href="#DejaVuSans-2d" x="254.492188"/>
       <use xlink:href="#DejaVuSans-30" x="290.576172"/>
       <use xlink:href="#DejaVuSans-37" x="354.199219"/>
       <use xlink:href="#DejaVuSans-2d" x="417.822266"/>
       <use xlink:href="#DejaVuSans-30" x="453.90625"/>
       <use xlink:href="#DejaVuSans-35" x="517.529297"/>
      </g>
     </g>
    </g>
    <g id="xtick_6">
     <g id="line2d_6">
      <g>
       <use xlink:href="#mc12f85f739" x="671.155517" y="342.2" style="stroke: #000000; stroke-width: 0.8"/>
      </g>
     </g>
     <g id="text_6">
      <!-- 2014-07-06 -->
      <g transform="translate(642.097704 356.798437) scale(0.1 -0.1)">
       <defs>
        <path id="DejaVuSans-36" d="M 2113 2584 
Q 1688 2584 1439 2293 
Q 1191 2003 1191 1497 
Q 1191 994 1439 701 
Q 1688 409 2113 409 
Q 2538 409 2786 701 
Q 3034 994 3034 1497 
Q 3034 2003 2786 2293 
Q 2538 2584 2113 2584 
z
M 3366 4563 
L 3366 3988 
Q 3128 4100 2886 4159 
Q 2644 4219 2406 4219 
Q 1781 4219 1451 3797 
Q 1122 3375 1075 2522 
Q 1259 2794 1537 2939 
Q 1816 3084 2150 3084 
Q 2853 3084 3261 2657 
Q 3669 2231 3669 1497 
Q 3669 778 3244 343 
Q 2819 -91 2113 -91 
Q 1303 -91 875 529 
Q 447 1150 447 2328 
Q 447 3434 972 4092 
Q 1497 4750 2381 4750 
Q 2619 4750 2861 4703 
Q 3103 4656 3366 4563 
z
" transform="scale(0.015625)"/>
       </defs>
       <use xlink:href="#DejaVuSans-32"/>
       <use xlink:href="#DejaVuSans-30" x="63.623047"/>
       <use xlink:href="#DejaVuSans-31" x="127.246094"/>
       <use xlink:href="#DejaVuSans-34" x="190.869141"/>
       <use xlink:href="#DejaVuSans-2d" x="254.492188"/>
       <use xlink:href="#DejaVuSans-30" x="290.576172"/>
       <use xlink:href="#DejaVuSans-37" x="354.199219"/>
       <use xlink:href="#DejaVuSans-2d" x="417.822266"/>
       <use xlink:href="#DejaVuSans-30" x="453.90625"/>
       <use xlink:href="#DejaVuSans-36" x="517.529297"/>
      </g>
     </g>
    </g>
   </g>
   <g id="matplotlib.axis_2">
    <g id="ytick_1">
     <g id="line2d_7">
      <defs>
       <path id="m0b6867807d" d="M 0 0 
L -3.5 0 
" style="stroke: #000000; stroke-width: 0.8"/>
      </defs>
      <g>
       <use xlink:href="#m0b6867807d" x="20.5625" y="328.62" style="stroke: #000000; stroke-width: 0.8"/>
      </g>
     </g>
     <g id="text_7">
      <!-- 0 -->
      <g transform="translate(7.2 332.419219) scale(0.1 -0.1)">
       <use xlink:href="#DejaVuSans-30"/>
      </g>
     </g>
    </g>
    <g id="ytick_2">
     <g id="line2d_8">
      <g>
       <use xlink:href="#m0b6867807d" x="20.5625" y="275.891306" style="stroke: #000000; stroke-width: 0.8"/>
      </g>
     </g>
     <g id="text_8">
      <!-- 1 -->
      <g transform="translate(7.2 279.690524) scale(0.1 -0.1)">
       <use xlink:href="#DejaVuSans-31"/>
      </g>
     </g>
    </g>
    <g id="ytick_3">
     <g id="line2d_9">
      <g>
       <use xlink:href="#m0b6867807d" x="20.5625" y="223.162611" style="stroke: #000000; stroke-width: 0.8"/>
      </g>
     </g>
     <g id="text_9">
      <!-- 2 -->
      <g transform="translate(7.2 226.96183) scale(0.1 -0.1)">
       <use xlink:href="#DejaVuSans-32"/>
      </g>
     </g>
    </g>
    <g id="ytick_4">
     <g id="line2d_10">
      <g>
       <use xlink:href="#m0b6867807d" x="20.5625" y="170.433917" style="stroke: #000000; stroke-width: 0.8"/>
      </g>
     </g>
     <g id="text_10">
      <!-- 3 -->
      <g transform="translate(7.2 174.233135) scale(0.1 -0.1)">
       <use xlink:href="#DejaVuSans-33"/>
      </g>
     </g>
    </g>
    <g id="ytick_5">
     <g id="line2d_11">
      <g>
       <use xlink:href="#m0b6867807d" x="20.5625" y="117.705222" style="stroke: #000000; stroke-width: 0.8"/>
      </g>
     </g>
     <g id="text_11">
      <!-- 4 -->
      <g transform="translate(7.2 121.504441) scale(0.1 -0.1)">
       <use xlink:href="#DejaVuSans-34"/>
      </g>
     </g>
    </g>
    <g id="ytick_6">
     <g id="line2d_12">
      <g>
       <use xlink:href="#m0b6867807d" x="20.5625" y="64.976528" style="stroke: #000000; stroke-width: 0.8"/>
      </g>
     </g>
     <g id="text_12">
      <!-- 5 -->
      <g transform="translate(7.2 68.775747) scale(0.1 -0.1)">
       <use xlink:href="#DejaVuSans-35"/>
      </g>
     </g>
    </g>
   </g>
   <g id="line2d_13">
    <path d="M 51.54312 328.62 
L 52.145688 328.512483 
L 53.781231 327.027309 
L 56.794072 323.774392 
L 57.827047 323.251297 
L 59.032183 322.934709 
L 59.806914 322.908322 
L 60.495563 323.151347 
L 61.528538 323.806439 
L 64.455298 325.638271 
L 65.057866 325.817876 
L 65.574354 325.728878 
L 66.00476 325.397884 
L 66.435165 324.777378 
L 67.812465 321.773681 
L 68.415033 320.025255 
L 68.845439 317.488067 
L 70.050575 309.522741 
L 70.3949 308.924296 
L 71.255712 306.387072 
L 71.513956 305.983364 
L 71.944362 304.889239 
L 72.116524 304.157696 
L 72.54693 301.175855 
L 72.719092 300.647085 
L 73.063417 298.941598 
L 73.407742 300.314827 
L 73.752067 299.214912 
L 73.924229 299.540837 
L 74.096391 299.013699 
L 74.268554 298.263724 
L 74.354635 298.321075 
L 74.526797 298.871081 
L 74.612878 298.801202 
L 74.871122 297.870974 
L 74.957203 297.98116 
L 75.129366 298.631236 
L 75.215447 298.589662 
L 75.47369 297.746674 
L 75.559771 297.885582 
L 75.731934 298.561869 
L 75.818015 298.523259 
L 76.076259 297.706008 
L 76.16234 297.843634 
L 76.506665 299.751658 
L 76.850989 298.898185 
L 77.023152 299.332072 
L 77.195314 298.848028 
L 77.367476 298.13386 
L 77.453558 298.184508 
L 77.62572 298.787239 
L 77.711801 298.72088 
L 77.970045 297.825931 
L 78.056126 297.947186 
L 78.228288 298.613934 
L 78.31437 298.566326 
L 78.572613 297.735193 
L 78.658694 297.883452 
L 78.916938 298.856825 
L 79.175181 298.760047 
L 79.347344 299.598789 
L 79.691669 301.595684 
L 79.949912 301.962426 
L 80.294237 303.10199 
L 80.638562 303.576264 
L 80.810724 298.289109 
L 81.155049 285.030444 
L 81.413292 289.954238 
L 82.015861 301.394279 
L 82.446267 306.672942 
L 83.048835 311.753253 
L 83.995728 316.486771 
L 84.253972 317.401475 
L 84.340053 316.990923 
L 84.512215 303.489398 
L 84.770459 274.262297 
L 84.942621 275.371034 
L 85.114783 262.777364 
L 85.286946 248.196711 
L 85.373027 250.069356 
L 85.631271 261.454578 
L 85.803433 247.703003 
L 85.975595 234.9463 
L 86.233839 244.105122 
L 86.406001 232.773284 
L 86.836407 171.912262 
L 87.180732 127.041862 
L 87.869381 86.100168 
L 88.041544 83.284706 
L 88.213706 75.919969 
L 88.47195 69.302406 
L 88.644112 70.371637 
L 88.816275 67.950366 
L 89.074518 61.9519 
L 89.246681 62.747299 
L 89.418843 61.272159 
L 89.591005 57.02 
L 89.677086 57.057564 
L 90.021411 60.029718 
L 90.193574 57.992858 
L 90.365736 61.531861 
L 90.710061 68.266389 
L 90.796142 69.10272 
L 92.259522 115.532465 
L 92.603847 127.79839 
L 92.776009 131.899251 
L 93.292496 149.104154 
L 94.325471 173.839448 
L 95.444526 189.876622 
L 95.70277 190.984938 
L 95.788851 189.99678 
L 95.874932 190.060065 
L 96.047094 192.388923 
L 96.305338 190.807227 
L 96.4775 187.368457 
L 96.649663 189.11098 
L 97.080069 173.640869 
L 97.16615 174.680217 
L 97.252231 172.00763 
L 98.62953 77.403355 
L 98.973855 71.482832 
L 99.31818 77.852233 
L 100.006829 113.718473 
L 100.695479 154.46351 
L 101.642372 196.613073 
L 102.072778 209.557482 
L 103.019671 225.454572 
L 103.794401 233.008277 
L 104.39697 236.610955 
L 105.085619 239.469865 
L 105.429944 240.64772 
L 106.204675 242.655816 
L 106.376837 242.958833 
L 106.807243 244.026694 
L 107.409811 245.718077 
L 108.614948 250.665471 
L 109.647922 257.682581 
L 110.250491 262.252252 
L 111.369546 268.552453 
L 111.713871 269.921263 
L 112.058196 271.390646 
L 112.230358 271.664258 
L 112.40252 272.243056 
L 112.488601 272.428995 
L 112.660764 272.93667 
L 112.746845 273.11115 
L 112.832926 273.593524 
L 112.919007 273.550989 
L 113.607657 275.072109 
L 113.779819 274.732062 
L 113.8659 274.818146 
L 114.038063 274.386868 
L 114.124144 274.589539 
L 114.210225 274.379388 
L 114.382388 275.220629 
L 114.468469 275.04266 
L 114.640631 275.553912 
L 114.726712 275.346337 
L 115.157118 276.491896 
L 115.2432 276.174802 
L 115.415362 276.648984 
L 115.501443 276.36516 
L 115.673605 276.669227 
L 115.759687 276.38199 
L 115.931849 276.676191 
L 116.01793 276.354867 
L 116.190093 276.716678 
L 116.276174 276.393367 
L 116.448336 276.78369 
L 116.534417 276.498251 
L 116.70658 276.930415 
L 116.792661 276.668953 
L 116.964823 277.089392 
L 117.050904 276.848251 
L 117.223067 277.266584 
L 117.309148 277.039731 
L 117.48131 277.48761 
L 117.567392 277.241079 
L 117.739554 277.682578 
L 117.825635 277.418545 
L 117.997798 277.911929 
L 118.083879 277.680906 
L 118.256041 278.134731 
L 118.342122 277.904826 
L 118.514285 278.373875 
L 118.600366 278.189084 
L 118.772528 278.660053 
L 118.858609 278.463912 
L 119.030772 278.922477 
L 119.116853 278.718633 
L 119.289015 279.2228 
L 119.375097 278.987965 
L 119.547259 279.433778 
L 119.63334 279.20993 
L 119.805503 279.677741 
L 119.891584 279.471377 
L 120.063746 279.882656 
L 120.149827 279.630629 
L 120.32199 280.021062 
L 120.408071 279.757334 
L 120.580233 280.191183 
L 120.666314 279.903292 
L 120.838477 280.286264 
L 120.924558 279.999609 
L 121.09672 280.396774 
L 121.182802 280.140539 
L 121.354964 280.507913 
L 121.441045 280.220449 
L 121.613207 280.545819 
L 121.699289 280.287808 
L 121.871451 280.643653 
L 121.957532 280.377053 
L 122.129695 280.677653 
L 122.215776 280.390243 
L 122.387938 280.754458 
L 122.474019 280.445944 
L 122.560101 280.539272 
L 122.646182 280.773743 
L 122.732263 280.476889 
L 122.818344 280.561697 
L 122.904425 280.832235 
L 122.990507 280.582936 
L 123.076588 280.633923 
L 123.162669 280.882933 
L 123.334831 280.616339 
L 123.420912 280.892937 
L 123.506994 280.599122 
L 123.593075 280.639344 
L 123.679156 280.928989 
L 123.851318 280.6503 
L 123.9374 280.911096 
L 124.109562 280.591463 
L 124.195643 280.920286 
L 124.367806 280.596746 
L 124.453887 280.919563 
L 124.626049 280.576741 
L 124.71213 280.883125 
L 124.884293 280.625792 
L 124.970374 280.887503 
L 125.142536 280.598836 
L 125.228617 280.868787 
L 125.40078 280.600571 
L 125.486861 280.904776 
L 125.659023 280.593276 
L 125.745105 280.864588 
L 125.917267 280.585806 
L 126.003348 280.906944 
L 126.089429 280.836434 
L 126.17551 280.6145 
L 126.261592 280.908535 
L 126.433754 280.568086 
L 126.519835 280.863067 
L 126.605916 280.769793 
L 126.691998 280.570038 
L 126.778079 280.850398 
L 126.86416 280.777753 
L 126.950241 280.540052 
L 127.036322 280.771273 
L 127.122404 280.711825 
L 127.208485 280.458774 
L 127.380647 280.779727 
L 127.466728 280.448245 
L 127.638891 280.736638 
L 127.724972 280.417124 
L 127.897134 280.75575 
L 127.983215 280.460769 
L 128.155378 280.73249 
L 128.241459 280.432003 
L 128.413621 280.715327 
L 128.499703 280.496752 
L 128.671865 280.73139 
L 128.757946 280.478332 
L 128.844027 280.522932 
L 128.930109 280.702871 
L 129.01619 280.490303 
L 129.102271 280.54305 
L 129.188352 280.777405 
L 129.360514 280.482477 
L 129.446596 280.677002 
L 129.618758 280.394879 
L 129.704839 280.593377 
L 129.877002 280.336736 
L 129.963083 280.510367 
L 130.135245 280.212379 
L 130.221326 280.416628 
L 130.393489 280.221245 
L 130.47957 280.410571 
L 130.651732 280.072851 
L 130.737813 280.301762 
L 130.909976 280.040202 
L 130.996057 280.406178 
L 131.082138 280.334913 
L 131.168219 280.128127 
L 131.254301 280.465745 
L 131.340382 280.42313 
L 131.426463 280.217753 
L 131.598625 280.617778 
L 131.684707 280.405257 
L 131.856869 280.752654 
L 131.94295 280.513573 
L 132.115113 280.905832 
L 132.201194 280.686554 
L 132.373356 281.072653 
L 132.459437 280.852947 
L 132.6316 281.268862 
L 132.717681 281.06829 
L 132.889843 281.519459 
L 132.975924 281.32665 
L 133.40633 282.07798 
L 133.492412 281.934146 
L 133.578493 282.017885 
L 133.664574 282.387657 
L 133.750655 282.279451 
L 133.836736 282.312432 
L 133.922817 282.717263 
L 134.008899 282.615176 
L 134.09498 282.599631 
L 134.181061 283.013246 
L 134.267142 282.986415 
L 134.353223 282.908749 
L 134.525386 283.338886 
L 134.611467 283.208673 
L 134.783629 283.705514 
L 134.869711 283.510326 
L 135.041873 284.035158 
L 135.127954 283.805618 
L 135.300116 284.353622 
L 135.386198 284.109355 
L 135.55836 284.660923 
L 135.644441 284.420481 
L 135.730522 284.550131 
L 135.816604 284.945388 
L 135.988766 284.763824 
L 136.074847 285.208912 
L 136.24701 284.958541 
L 136.333091 285.428388 
L 136.419172 285.379319 
L 136.505253 285.188229 
L 136.677416 285.6925 
L 136.763497 285.397214 
L 136.935659 285.94338 
L 137.02174 285.619227 
L 137.193903 286.179256 
L 137.279984 285.820132 
L 137.366065 285.971377 
L 137.452146 286.385064 
L 137.624309 286.108507 
L 137.71039 286.562416 
L 137.882552 286.212542 
L 137.968633 286.689445 
L 138.054715 286.643933 
L 138.140796 286.354942 
L 138.312958 286.882009 
L 138.399039 286.529061 
L 138.571202 287.113161 
L 138.657283 286.735721 
L 138.743364 286.887858 
L 138.829445 287.296931 
L 139.001608 286.947019 
L 139.087689 287.422794 
L 139.259851 287.035645 
L 139.345932 287.524425 
L 139.432014 287.49524 
L 139.518095 287.151523 
L 139.690257 287.721043 
L 139.776338 287.291174 
L 139.948501 287.840774 
L 140.120663 287.447271 
L 140.206744 287.849543 
L 140.378907 287.330271 
L 140.464988 287.744508 
L 140.551069 287.637996 
L 140.63715 287.270585 
L 140.809313 287.658437 
L 140.895394 287.210405 
L 141.067556 287.758393 
L 141.239719 287.413259 
L 141.3258 287.842754 
L 141.497962 287.386305 
L 141.670124 287.944169 
L 141.756206 287.580183 
L 141.928368 288.104342 
L 142.10053 287.775425 
L 142.186612 288.171738 
L 142.358774 287.869629 
L 142.530936 288.268275 
L 142.617018 287.967882 
L 142.78918 288.35839 
L 142.961342 288.079029 
L 143.047423 288.339681 
L 143.219586 288.004993 
L 143.305667 288.214139 
L 143.391748 288.160062 
L 143.477829 287.967649 
L 143.649992 288.167687 
L 143.822154 288.002884 
L 143.908235 288.150828 
L 143.994317 288.079799 
L 144.080398 288.003569 
L 144.25256 288.217501 
L 144.338641 288.087779 
L 144.510804 288.295614 
L 144.682966 288.201756 
L 144.769047 288.366389 
L 144.855128 288.320217 
L 144.94121 288.22842 
L 145.113372 288.394722 
L 145.199453 288.270952 
L 145.285534 288.33486 
L 145.371616 288.510512 
L 145.543778 288.440193 
L 145.71594 288.72258 
L 145.802022 288.649238 
L 145.974184 288.961332 
L 146.060265 288.843229 
L 146.318509 289.032421 
L 146.40459 288.943854 
L 146.576752 289.147374 
L 146.662833 288.993625 
L 146.748915 289.053497 
L 146.834996 289.198056 
L 147.007158 288.991428 
L 147.179321 289.190055 
L 147.265402 289.076 
L 147.437564 289.32842 
L 147.523645 289.187553 
L 147.609726 289.244932 
L 147.781889 289.410763 
L 147.86797 289.382307 
L 148.040132 289.578505 
L 148.126214 289.451932 
L 148.298376 289.676443 
L 148.470538 289.598324 
L 148.55662 289.723388 
L 148.728782 289.549593 
L 148.900944 289.634948 
L 148.987026 289.531883 
L 149.159188 289.743477 
L 149.245269 289.624545 
L 149.33135 289.688398 
L 149.417431 289.806376 
L 149.589594 289.631242 
L 149.675675 289.779507 
L 149.761756 289.729095 
L 149.847837 289.573963 
L 150.02 289.732197 
L 150.192162 289.615836 
L 150.278243 289.834438 
L 150.364325 289.799662 
L 150.450406 289.75608 
L 150.622568 289.983678 
L 150.708649 289.894071 
L 150.880812 290.145797 
L 151.052974 290.063884 
L 151.225136 290.121685 
L 151.397299 290.070657 
L 151.569461 289.946598 
L 151.913786 289.777178 
L 152.085948 289.813171 
L 152.258111 289.889747 
L 152.430273 289.893581 
L 153.032841 289.017391 
L 153.377166 287.801058 
L 153.721491 287.377024 
L 154.065816 287.62198 
L 154.754465 288.621103 
L 155.184871 288.865364 
L 155.357033 288.94843 
L 155.529196 289.099816 
L 156.648251 290.036733 
L 156.820414 290.197123 
L 157.853388 290.635831 
L 158.542037 291.173809 
L 159.402849 291.286579 
L 159.833255 291.052117 
L 160.005418 290.994115 
L 160.091499 290.957542 
L 160.263661 291.112407 
L 160.435824 291.147761 
L 160.86623 291.265908 
L 161.468798 291.148003 
L 161.64096 290.96692 
L 161.813123 291.002265 
L 161.899204 290.916417 
L 162.415691 291.30234 
L 162.501772 291.278297 
L 162.673935 291.429196 
L 162.846097 291.416499 
L 163.018259 291.391246 
L 163.448665 291.447972 
L 164.051234 291.532594 
L 164.481639 291.46274 
L 164.653802 291.520657 
L 164.825964 291.554443 
L 165.084208 291.627244 
L 165.428533 291.946139 
L 165.94502 292.242198 
L 166.289344 292.371751 
L 167.322319 292.457413 
L 167.666643 292.497396 
L 167.924887 292.477634 
L 168.269212 292.621895 
L 168.87178 292.848798 
L 169.043942 292.749072 
L 169.216105 292.731009 
L 169.474348 292.624208 
L 170.076917 292.386846 
L 170.249079 292.477631 
L 170.421242 292.50338 
L 171.368135 292.907777 
L 171.798541 292.735991 
L 172.48719 292.831431 
L 173.348002 293.224202 
L 173.95057 293.188138 
L 174.122733 293.142242 
L 174.294895 293.05349 
L 174.380976 293.036107 
L 174.553139 293.130142 
L 174.725301 293.194841 
L 174.811382 293.214839 
L 174.983545 293.145482 
L 175.155707 293.209349 
L 175.241788 293.176543 
L 175.41395 293.289803 
L 175.586113 293.243644 
L 175.758275 293.280368 
L 176.360844 292.432625 
L 176.877331 291.973407 
L 177.307737 292.066939 
L 177.479899 292.054389 
L 177.652061 292.246718 
L 177.738143 292.239876 
L 177.910305 292.422024 
L 178.082467 292.393232 
L 178.25463 292.535542 
L 178.340711 292.498154 
L 178.512873 292.598943 
L 178.685036 292.523806 
L 178.857198 292.482534 
L 179.201523 292.329979 
L 179.631929 292.402733 
L 180.320578 292.702529 
L 181.009228 292.495756 
L 181.18139 292.482609 
L 181.353552 292.64998 
L 181.697877 292.843675 
L 181.956121 293.025632 
L 182.386527 293.116298 
L 182.730852 293.089979 
L 183.677745 293.450857 
L 184.108151 293.782858 
L 185.141125 293.89118 
L 185.915855 294.354704 
L 186.174099 294.372499 
L 186.604505 294.210738 
L 186.776667 293.949442 
L 186.94883 293.958648 
L 187.034911 293.830415 
L 187.120992 293.898993 
L 187.207073 293.969312 
L 187.379236 293.900115 
L 187.551398 294.220987 
L 187.637479 294.233706 
L 187.809642 294.463331 
L 187.895723 294.433115 
L 188.153966 294.601705 
L 188.842616 294.392893 
L 189.273022 294.209283 
L 189.703428 294.320726 
L 189.87559 294.227031 
L 190.047753 294.190319 
L 190.219915 294.135089 
L 190.392077 294.005153 
L 190.478158 293.986651 
L 190.650321 294.12594 
L 190.736402 294.073793 
L 190.908564 294.229312 
L 191.080727 294.220855 
L 191.252889 294.396004 
L 191.597214 294.500426 
L 191.769376 294.624359 
L 191.941539 294.596542 
L 192.113701 294.601356 
L 192.458026 294.621521 
L 194.610056 295.500285 
L 195.729111 295.931116 
L 197.278572 296.404751 
L 200.893982 296.934218 
L 201.238307 294.097044 
L 201.410469 292.03633 
L 201.496551 292.331971 
L 201.926957 284.85107 
L 202.099119 287.363381 
L 202.1852 286.905216 
L 202.443444 283.527631 
L 202.529525 283.891928 
L 202.701687 286.823467 
L 202.959931 285.074246 
L 203.132093 284.330016 
L 203.304256 285.961627 
L 203.562499 278.232395 
L 204.078986 267.115355 
L 204.33723 264.215141 
L 204.595473 263.19883 
L 204.681555 261.930239 
L 204.767636 262.254515 
L 205.111961 260.281053 
L 205.198042 260.210439 
L 205.284123 259.30609 
L 205.370204 259.764773 
L 205.542367 258.743433 
L 205.628448 258.612727 
L 205.80061 259.221817 
L 205.886691 258.90492 
L 205.972772 259.62951 
L 206.058854 259.243025 
L 206.317097 260.204298 
L 206.747503 262.809226 
L 207.005747 264.416914 
L 207.350071 266.739322 
L 207.608315 267.512834 
L 207.694396 268.103424 
L 207.780477 268.037361 
L 207.95264 268.512973 
L 208.038721 268.447915 
L 208.383046 269.678376 
L 208.641289 271.05195 
L 209.760345 275.987412 
L 210.707238 278.529847 
L 211.309806 279.73095 
L 211.395887 279.817219 
L 211.826293 279.365955 
L 212.256699 278.198833 
L 212.428862 277.803365 
L 212.514943 277.565707 
L 212.601024 277.614506 
L 212.687105 277.725846 
L 213.03143 274.21961 
L 213.117511 274.32269 
L 213.289674 272.697742 
L 213.633998 265.672008 
L 213.720079 266.238034 
L 213.892242 260.145734 
L 214.322648 229.736909 
L 214.753054 212.861989 
L 215.613866 162.333898 
L 215.786028 163.984297 
L 216.216434 177.299138 
L 216.64684 197.789979 
L 217.765895 248.144848 
L 218.282382 262.484775 
L 218.712788 268.857576 
L 219.229276 273.09563 
L 219.659681 275.215474 
L 220.004006 276.281512 
L 220.434412 277.227725 
L 221.209143 277.42259 
L 222.758604 278.140001 
L 223.18901 278.617671 
L 224.824553 281.437889 
L 227.406988 286.617825 
L 227.837394 287.233882 
L 228.181719 287.682546 
L 228.439963 287.947396 
L 228.784287 288.337905 
L 228.95645 288.380305 
L 229.128612 288.662847 
L 229.214693 288.702133 
L 229.472937 288.988992 
L 230.247668 289.893044 
L 230.41983 289.938439 
L 230.591992 290.106781 
L 230.764155 290.174117 
L 231.10848 290.397711 
L 231.624967 290.563359 
L 231.88321 290.65581 
L 232.399697 290.826892 
L 233.002266 291.393974 
L 233.432672 291.522253 
L 233.949159 291.381434 
L 234.207402 291.237053 
L 234.379565 291.120198 
L 234.551727 291.156536 
L 235.154295 291.025673 
L 235.326458 291.08491 
L 235.756864 291.018947 
L 235.842945 291.133401 
L 236.015107 291.024001 
L 236.18727 291.055885 
L 236.273351 290.970883 
L 236.445513 291.132461 
L 236.617676 291.061049 
L 236.789838 291.077867 
L 236.962 291.132694 
L 238.683624 291.376584 
L 238.855787 291.316634 
L 239.027949 291.342104 
L 239.372274 291.3441 
L 239.80268 291.740542 
L 239.974842 291.773404 
L 240.233086 292.071722 
L 240.663492 292.320292 
L 241.610385 292.014883 
L 242.385115 292.548261 
L 243.676333 291.999424 
L 244.106739 292.575412 
L 244.709307 292.605508 
L 245.225795 292.112256 
L 245.397957 292.004044 
L 245.6562 291.98919 
L 245.828363 292.233291 
L 245.914444 292.261118 
L 246.086606 292.456464 
L 246.172688 292.478423 
L 246.430931 292.713809 
L 246.861337 292.856668 
L 247.80823 292.678272 
L 248.152555 292.74255 
L 248.582961 293.223099 
L 249.013367 293.573881 
L 249.185529 293.643977 
L 250.562828 293.323269 
L 251.595803 293.808494 
L 251.940127 293.214069 
L 252.370533 292.382744 
L 252.714858 292.250901 
L 253.317426 292.459566 
L 253.747832 292.541152 
L 253.919995 292.663039 
L 254.006076 292.632509 
L 254.178238 292.761624 
L 254.350401 292.758679 
L 254.522563 292.849659 
L 254.694725 292.915575 
L 256.072024 293.038864 
L 256.330268 293.224978 
L 256.760674 293.382814 
L 257.449323 293.172165 
L 257.621486 293.335406 
L 257.793648 293.451162 
L 258.568379 293.86829 
L 258.998785 294.026075 
L 259.34311 294.003657 
L 259.773515 293.83644 
L 259.945678 293.745284 
L 260.11784 293.899804 
L 260.203921 293.888631 
L 260.376084 294.056495 
L 260.548246 294.090454 
L 260.720409 294.263538 
L 260.80649 294.269459 
L 260.978652 294.389624 
L 261.150814 294.278112 
L 261.236896 294.317124 
L 261.495139 294.119296 
L 262.011626 294.068444 
L 262.183789 294.195992 
L 262.355951 294.209261 
L 262.528113 294.241076 
L 263.216763 294.074714 
L 263.647169 293.751963 
L 263.73325 293.822634 
L 263.991494 293.669045 
L 264.077575 293.655172 
L 264.249737 293.404914 
L 264.335818 293.555744 
L 264.507981 293.344304 
L 264.594062 293.446111 
L 264.680143 293.49634 
L 264.766224 293.390341 
L 265.282712 293.907982 
L 265.368793 293.847356 
L 265.540955 294.040872 
L 265.713117 293.940881 
L 265.88528 293.921279 
L 266.229605 293.834586 
L 267.520822 294.163689 
L 267.951228 294.122238 
L 268.123391 294.2386 
L 268.295553 294.313554 
L 268.467716 294.335482 
L 269.070284 294.298855 
L 269.242446 294.123294 
L 269.414609 294.141513 
L 269.586771 294.099744 
L 269.672852 294.1403 
L 269.845015 293.985036 
L 270.017177 294.17446 
L 270.103258 294.105081 
L 270.27542 294.305536 
L 270.361502 294.229963 
L 270.877989 294.59425 
L 271.050151 294.583659 
L 271.136232 294.611517 
L 271.308395 294.492355 
L 271.480557 294.446287 
L 271.997044 294.14024 
L 272.341369 294.111002 
L 272.771775 294.451136 
L 273.374343 294.3294 
L 273.546506 294.100643 
L 273.718668 294.106762 
L 273.89083 294.051532 
L 275.095967 294.750109 
L 275.526373 294.398107 
L 275.956779 294.077401 
L 276.04286 294.064 
L 276.215022 294.274145 
L 276.301104 294.255951 
L 276.473266 294.428385 
L 276.645428 294.334982 
L 276.73151 294.405577 
L 276.989753 294.246909 
L 277.075834 294.216791 
L 277.247997 294.056168 
L 277.420159 294.135645 
L 277.50624 294.056002 
L 277.678403 294.174051 
L 277.764484 294.113318 
L 278.280971 294.486418 
L 278.453133 294.590608 
L 278.625296 294.536924 
L 278.797458 294.451096 
L 279.227864 293.728599 
L 279.572189 293.476059 
L 279.916514 293.688794 
L 281.12165 295.208727 
L 283.962329 296.557579 
L 284.995304 296.839011 
L 286.372603 297.144703 
L 286.716928 297.065019 
L 287.147333 296.80328 
L 288.180308 297.271433 
L 289.729769 297.183511 
L 291.451393 297.254628 
L 293.000854 297.304729 
L 294.033829 297.613259 
L 295.411128 297.863271 
L 297.304914 298.13309 
L 298.079644 298.076584 
L 298.251807 298.070563 
L 298.423969 298.034322 
L 298.768294 298.080334 
L 299.026538 297.923841 
L 299.112619 297.953041 
L 299.284781 297.869475 
L 299.456943 297.925289 
L 299.629106 297.790309 
L 299.801268 297.782295 
L 299.973431 297.777986 
L 300.059512 297.778058 
L 300.231674 297.500329 
L 300.403837 297.518454 
L 300.575999 297.417379 
L 300.66208 297.48265 
L 300.834242 297.069799 
L 300.920324 297.125167 
L 301.006405 297.141937 
L 301.178567 296.969126 
L 301.264648 297.073859 
L 301.436811 296.575164 
L 301.522892 296.666474 
L 301.608973 296.711002 
L 301.781136 296.481984 
L 301.867217 296.612753 
L 302.039379 296.0283 
L 302.12546 296.147912 
L 302.211542 296.171832 
L 302.383704 295.907271 
L 302.469785 296.061901 
L 302.900191 294.675613 
L 302.986272 294.354848 
L 303.072353 294.432449 
L 303.158435 294.359575 
L 303.416678 293.28028 
L 303.588841 292.810273 
L 303.674922 292.929963 
L 303.761003 293.081418 
L 303.933165 292.119321 
L 304.019246 292.260713 
L 304.191409 291.841733 
L 304.363571 292.181308 
L 304.535734 291.206042 
L 304.621815 291.246784 
L 304.793977 290.430227 
L 304.880058 290.532458 
L 304.96614 290.361668 
L 305.138302 289.330871 
L 305.224383 289.215053 
L 305.396545 288.620698 
L 305.482627 288.820094 
L 305.74087 288.474243 
L 305.999114 287.898993 
L 306.257357 287.667297 
L 306.601682 286.838848 
L 306.773845 286.830852 
L 307.20425 286.316731 
L 307.290332 286.448019 
L 307.462494 286.402321 
L 307.634656 286.219522 
L 307.806819 285.995492 
L 307.978981 286.056583 
L 308.151144 285.923577 
L 308.409387 285.539762 
L 308.753712 285.952155 
L 308.925874 285.47126 
L 309.011955 285.637962 
L 309.184118 285.357388 
L 309.35628 285.420478 
L 309.614524 285.154471 
L 310.561417 285.795429 
L 310.733579 285.907133 
L 311.077904 286.224029 
L 311.163985 285.866738 
L 311.50831 280.297271 
L 311.594391 280.351671 
L 311.938716 282.414981 
L 312.024797 282.602535 
L 312.196959 283.70603 
L 312.283041 283.729495 
L 312.455203 284.335454 
L 313.057771 283.07963 
L 313.402096 283.749735 
L 314.607233 289.051699 
L 314.951557 289.873517 
L 315.209801 290.081607 
L 315.726288 289.825249 
L 315.898451 289.893798 
L 317.620074 291.19194 
L 318.05048 291.341981 
L 318.911292 291.68871 
L 319.341698 291.805898 
L 320.20251 292.091783 
L 320.546835 292.163095 
L 322.268458 292.868513 
L 324.334407 293.891485 
L 325.109138 294.320311 
L 326.228193 295.300121 
L 326.74468 295.434278 
L 327.43333 295.652868 
L 328.982791 296.178074 
L 334.319825 297.011989 
L 336.557936 297.203104 
L 344.82173 298.899191 
L 352.05255 300.062705 
L 361.607562 301.495379 
L 364.706485 302.082949 
L 365.82554 302.360023 
L 367.633245 302.976025 
L 369.44095 303.725247 
L 373.658928 305.870929 
L 377.532582 308.221014 
L 383.127859 312.119393 
L 386.82935 314.949886 
L 392.424627 319.547194 
L 398.105986 324.541622 
L 402.582208 328.506402 
L 403.270857 328.561196 
L 414.805736 328.54032 
L 505.277066 328.596959 
L 671.155517 328.597205 
L 671.155517 328.597205 
" clip-path="url(#pdcc2c703d8)" style="fill: none; stroke: #1f77b4; stroke-width: 1.5; stroke-linecap: square"/>
   </g>
   <g id="patch_3">
    <path d="M 20.5625 342.2 
L 20.5625 43.44 
" style="fill: none; stroke: #000000; stroke-width: 0.8; stroke-linejoin: miter; stroke-linecap: square"/>
   </g>
   <g id="patch_4">
    <path d="M 702.136136 342.2 
L 702.136136 43.44 
" style="fill: none; stroke: #000000; stroke-width: 0.8; stroke-linejoin: miter; stroke-linecap: square"/>
   </g>
   <g id="patch_5">
    <path d="M 20.5625 342.2 
L 702.136136 342.2 
" style="fill: none; stroke: #000000; stroke-width: 0.8; stroke-linejoin: miter; stroke-linecap: square"/>
   </g>
   <g id="patch_6">
    <path d="M 20.5625 43.44 
L 702.136136 43.44 
" style="fill: none; stroke: #000000; stroke-width: 0.8; stroke-linejoin: miter; stroke-linecap: square"/>
   </g>
   <g id="text_13">
    <!-- 1 transformation(s) -->
    <g transform="translate(303.234631 37.44) scale(0.12 -0.12)">
     <defs>
      <path id="DejaVuSans-20" transform="scale(0.015625)"/>
      <path id="DejaVuSans-74" d="M 1172 4494 
L 1172 3500 
L 2356 3500 
L 2356 3053 
L 1172 3053 
L 1172 1153 
Q 1172 725 1289 603 
Q 1406 481 1766 481 
L 2356 481 
L 2356 0 
L 1766 0 
Q 1100 0 847 248 
Q 594 497 594 1153 
L 594 3053 
L 172 3053 
L 172 3500 
L 594 3500 
L 594 4494 
L 1172 4494 
z
" transform="scale(0.015625)"/>
      <path id="DejaVuSans-72" d="M 2631 2963 
Q 2534 3019 2420 3045 
Q 2306 3072 2169 3072 
Q 1681 3072 1420 2755 
Q 1159 2438 1159 1844 
L 1159 0 
L 581 0 
L 581 3500 
L 1159 3500 
L 1159 2956 
Q 1341 3275 1631 3429 
Q 1922 3584 2338 3584 
Q 2397 3584 2469 3576 
Q 2541 3569 2628 3553 
L 2631 2963 
z
" transform="scale(0.015625)"/>
      <path id="DejaVuSans-61" d="M 2194 1759 
Q 1497 1759 1228 1600 
Q 959 1441 959 1056 
Q 959 750 1161 570 
Q 1363 391 1709 391 
Q 2188 391 2477 730 
Q 2766 1069 2766 1631 
L 2766 1759 
L 2194 1759 
z
M 3341 1997 
L 3341 0 
L 2766 0 
L 2766 531 
Q 2569 213 2275 61 
Q 1981 -91 1556 -91 
Q 1019 -91 701 211 
Q 384 513 384 1019 
Q 384 1609 779 1909 
Q 1175 2209 1959 2209 
L 2766 2209 
L 2766 2266 
Q 2766 2663 2505 2880 
Q 2244 3097 1772 3097 
Q 1472 3097 1187 3025 
Q 903 2953 641 2809 
L 641 3341 
Q 956 3463 1253 3523 
Q 1550 3584 1831 3584 
Q 2591 3584 2966 3190 
Q 3341 2797 3341 1997 
z
" transform="scale(0.015625)"/>
      <path id="DejaVuSans-6e" d="M 3513 2113 
L 3513 0 
L 2938 0 
L 2938 2094 
Q 2938 2591 2744 2837 
Q 2550 3084 2163 3084 
Q 1697 3084 1428 2787 
Q 1159 2491 1159 1978 
L 1159 0 
L 581 0 
L 581 3500 
L 1159 3500 
L 1159 2956 
Q 1366 3272 1645 3428 
Q 1925 3584 2291 3584 
Q 2894 3584 3203 3211 
Q 3513 2838 3513 2113 
z
" transform="scale(0.015625)"/>
      <path id="DejaVuSans-73" d="M 2834 3397 
L 2834 2853 
Q 2591 2978 2328 3040 
Q 2066 3103 1784 3103 
Q 1356 3103 1142 2972 
Q 928 2841 928 2578 
Q 928 2378 1081 2264 
Q 1234 2150 1697 2047 
L 1894 2003 
Q 2506 1872 2764 1633 
Q 3022 1394 3022 966 
Q 3022 478 2636 193 
Q 2250 -91 1575 -91 
Q 1294 -91 989 -36 
Q 684 19 347 128 
L 347 722 
Q 666 556 975 473 
Q 1284 391 1588 391 
Q 1994 391 2212 530 
Q 2431 669 2431 922 
Q 2431 1156 2273 1281 
Q 2116 1406 1581 1522 
L 1381 1569 
Q 847 1681 609 1914 
Q 372 2147 372 2553 
Q 372 3047 722 3315 
Q 1072 3584 1716 3584 
Q 2034 3584 2315 3537 
Q 2597 3491 2834 3397 
z
" transform="scale(0.015625)"/>
      <path id="DejaVuSans-66" d="M 2375 4863 
L 2375 4384 
L 1825 4384 
Q 1516 4384 1395 4259 
Q 1275 4134 1275 3809 
L 1275 3500 
L 2222 3500 
L 2222 3053 
L 1275 3053 
L 1275 0 
L 697 0 
L 697 3053 
L 147 3053 
L 147 3500 
L 697 3500 
L 697 3744 
Q 697 4328 969 4595 
Q 1241 4863 1831 4863 
L 2375 4863 
z
" transform="scale(0.015625)"/>
      <path id="DejaVuSans-6f" d="M 1959 3097 
Q 1497 3097 1228 2736 
Q 959 2375 959 1747 
Q 959 1119 1226 758 
Q 1494 397 1959 397 
Q 2419 397 2687 759 
Q 2956 1122 2956 1747 
Q 2956 2369 2687 2733 
Q 2419 3097 1959 3097 
z
M 1959 3584 
Q 2709 3584 3137 3096 
Q 3566 2609 3566 1747 
Q 3566 888 3137 398 
Q 2709 -91 1959 -91 
Q 1206 -91 779 398 
Q 353 888 353 1747 
Q 353 2609 779 3096 
Q 1206 3584 1959 3584 
z
" transform="scale(0.015625)"/>
      <path id="DejaVuSans-6d" d="M 3328 2828 
Q 3544 3216 3844 3400 
Q 4144 3584 4550 3584 
Q 5097 3584 5394 3201 
Q 5691 2819 5691 2113 
L 5691 0 
L 5113 0 
L 5113 2094 
Q 5113 2597 4934 2840 
Q 4756 3084 4391 3084 
Q 3944 3084 3684 2787 
Q 3425 2491 3425 1978 
L 3425 0 
L 2847 0 
L 2847 2094 
Q 2847 2600 2669 2842 
Q 2491 3084 2119 3084 
Q 1678 3084 1418 2786 
Q 1159 2488 1159 1978 
L 1159 0 
L 581 0 
L 581 3500 
L 1159 3500 
L 1159 2956 
Q 1356 3278 1631 3431 
Q 1906 3584 2284 3584 
Q 2666 3584 2933 3390 
Q 3200 3197 3328 2828 
z
" transform="scale(0.015625)"/>
      <path id="DejaVuSans-69" d="M 603 3500 
L 1178 3500 
L 1178 0 
L 603 0 
L 603 3500 
z
M 603 4863 
L 1178 4863 
L 1178 4134 
L 603 4134 
L 603 4863 
z
" transform="scale(0.015625)"/>
      <path id="DejaVuSans-28" d="M 1984 4856 
Q 1566 4138 1362 3434 
Q 1159 2731 1159 2009 
Q 1159 1288 1364 580 
Q 1569 -128 1984 -844 
L 1484 -844 
Q 1016 -109 783 600 
Q 550 1309 550 2009 
Q 550 2706 781 3412 
Q 1013 4119 1484 4856 
L 1984 4856 
z
" transform="scale(0.015625)"/>
      <path id="DejaVuSans-29" d="M 513 4856 
L 1013 4856 
Q 1481 4119 1714 3412 
Q 1947 2706 1947 2009 
Q 1947 1309 1714 600 
Q 1481 -109 1013 -844 
L 513 -844 
Q 928 -128 1133 580 
Q 1338 1288 1338 2009 
Q 1338 2731 1133 3434 
Q 928 4138 513 4856 
z
" transform="scale(0.015625)"/>
     </defs>
     <use xlink:href="#DejaVuSans-31"/>
     <use xlink:href="#DejaVuSans-20" x="63.623047"/>
     <use xlink:href="#DejaVuSans-74" x="95.410156"/>
     <use xlink:href="#DejaVuSans-72" x="134.619141"/>
     <use xlink:href="#DejaVuSans-61" x="175.732422"/>
     <use xlink:href="#DejaVuSans-6e" x="237.011719"/>
     <use xlink:href="#DejaVuSans-73" x="300.390625"/>
     <use xlink:href="#DejaVuSans-66" x="352.490234"/>
     <use xlink:href="#DejaVuSans-6f" x="387.695312"/>
     <use xlink:href="#DejaVuSans-72" x="448.876953"/>
     <use xlink:href="#DejaVuSans-6d" x="488.240234"/>
     <use xlink:href="#DejaVuSans-61" x="585.652344"/>
     <use xlink:href="#DejaVuSans-74" x="646.931641"/>
     <use xlink:href="#DejaVuSans-69" x="686.140625"/>
     <use xlink:href="#DejaVuSans-6f" x="713.923828"/>
     <use xlink:href="#DejaVuSans-6e" x="775.105469"/>
     <use xlink:href="#DejaVuSans-28" x="838.484375"/>
     <use xlink:href="#DejaVuSans-73" x="877.498047"/>
     <use xlink:href="#DejaVuSans-29" x="929.597656"/>
    </g>
   </g>
   <g id="legend_1">
    <g id="patch_7">
     <path d="M 616.775199 66.118125 
L 695.136136 66.118125 
Q 697.136136 66.118125 697.136136 64.118125 
L 697.136136 50.44 
Q 697.136136 48.44 695.136136 48.44 
L 616.775199 48.44 
Q 614.775199 48.44 614.775199 50.44 
L 614.775199 64.118125 
Q 614.775199 66.118125 616.775199 66.118125 
z
" style="fill: #ffffff; opacity: 0.8; stroke: #cccccc; stroke-linejoin: miter"/>
    </g>
    <g id="line2d_14">
     <path d="M 618.775199 56.538438 
L 628.775199 56.538438 
L 638.775199 56.538438 
" style="fill: none; stroke: #1f77b4; stroke-width: 1.5; stroke-linecap: square"/>
    </g>
    <g id="text_14">
     <!-- observed -->
     <g transform="translate(646.775199 60.038438) scale(0.1 -0.1)">
      <defs>
       <path id="DejaVuSans-62" d="M 3116 1747 
Q 3116 2381 2855 2742 
Q 2594 3103 2138 3103 
Q 1681 3103 1420 2742 
Q 1159 2381 1159 1747 
Q 1159 1113 1420 752 
Q 1681 391 2138 391 
Q 2594 391 2855 752 
Q 3116 1113 3116 1747 
z
M 1159 2969 
Q 1341 3281 1617 3432 
Q 1894 3584 2278 3584 
Q 2916 3584 3314 3078 
Q 3713 2572 3713 1747 
Q 3713 922 3314 415 
Q 2916 -91 2278 -91 
Q 1894 -91 1617 61 
Q 1341 213 1159 525 
L 1159 0 
L 581 0 
L 581 4863 
L 1159 4863 
L 1159 2969 
z
" transform="scale(0.015625)"/>
       <path id="DejaVuSans-65" d="M 3597 1894 
L 3597 1613 
L 953 1613 
Q 991 1019 1311 708 
Q 1631 397 2203 397 
Q 2534 397 2845 478 
Q 3156 559 3463 722 
L 3463 178 
Q 3153 47 2828 -22 
Q 2503 -91 2169 -91 
Q 1331 -91 842 396 
Q 353 884 353 1716 
Q 353 2575 817 3079 
Q 1281 3584 2069 3584 
Q 2775 3584 3186 3129 
Q 3597 2675 3597 1894 
z
M 3022 2063 
Q 3016 2534 2758 2815 
Q 2500 3097 2075 3097 
Q 1594 3097 1305 2825 
Q 1016 2553 972 2059 
L 3022 2063 
z
" transform="scale(0.015625)"/>
       <path id="DejaVuSans-76" d="M 191 3500 
L 800 3500 
L 1894 563 
L 2988 3500 
L 3597 3500 
L 2284 0 
L 1503 0 
L 191 3500 
z
" transform="scale(0.015625)"/>
       <path id="DejaVuSans-64" d="M 2906 2969 
L 2906 4863 
L 3481 4863 
L 3481 0 
L 2906 0 
L 2906 525 
Q 2725 213 2448 61 
Q 2172 -91 1784 -91 
Q 1150 -91 751 415 
Q 353 922 353 1747 
Q 353 2572 751 3078 
Q 1150 3584 1784 3584 
Q 2172 3584 2448 3432 
Q 2725 3281 2906 2969 
z
M 947 1747 
Q 947 1113 1208 752 
Q 1469 391 1925 391 
Q 2381 391 2643 752 
Q 2906 1113 2906 1747 
Q 2906 2381 2643 2742 
Q 2381 3103 1925 3103 
Q 1469 3103 1208 2742 
Q 947 2381 947 1747 
z
" transform="scale(0.015625)"/>
      </defs>
      <use xlink:href="#DejaVuSans-6f"/>
      <use xlink:href="#DejaVuSans-62" x="61.181641"/>
      <use xlink:href="#DejaVuSans-73" x="124.658203"/>
      <use xlink:href="#DejaVuSans-65" x="176.757812"/>
      <use xlink:href="#DejaVuSans-72" x="238.28125"/>
      <use xlink:href="#DejaVuSans-76" x="279.394531"/>
      <use xlink:href="#DejaVuSans-65" x="338.574219"/>
      <use xlink:href="#DejaVuSans-64" x="400.097656"/>
     </g>
    </g>
   </g>
  </g>
  <g id="axes_2">
   <g id="patch_8">
    <path d="M 20.5625 684.92 
L 702.136136 684.92 
L 702.136136 386.16 
L 20.5625 386.16 
z
" style="fill: #ffffff"/>
   </g>
   <g id="matplotlib.axis_3">
    <g id="xtick_7">
     <g id="line2d_15">
      <g>
       <use xlink:href="#mc12f85f739" x="51.370957" y="684.92" style="stroke: #000000; stroke-width: 0.8"/>
      </g>
     </g>
     <g id="text_15">
      <!-- 2014-07-01 -->
      <g transform="translate(22.313145 699.518437) scale(0.1 -0.1)">
       <use xlink:href="#DejaVuSans-32"/>
       <use xlink:href="#DejaVuSans-30" x="63.623047"/>
       <use xlink:href="#DejaVuSans-31" x="127.246094"/>
       <use xlink:href="#DejaVuSans-34" x="190.869141"/>
       <use xlink:href="#DejaVuSans-2d" x="254.492188"/>
       <use xlink:href="#DejaVuSans-30" x="290.576172"/>
       <use xlink:href="#DejaVuSans-37" x="354.199219"/>
       <use xlink:href="#DejaVuSans-2d" x="417.822266"/>
       <use xlink:href="#DejaVuSans-30" x="453.90625"/>
       <use xlink:href="#DejaVuSans-31" x="517.529297"/>
      </g>
     </g>
    </g>
    <g id="xtick_8">
     <g id="line2d_16">
      <g>
       <use xlink:href="#mc12f85f739" x="175.327869" y="684.92" style="stroke: #000000; stroke-width: 0.8"/>
      </g>
     </g>
     <g id="text_16">
      <!-- 2014-07-02 -->
      <g transform="translate(146.270057 699.518437) scale(0.1 -0.1)">
       <use xlink:href="#DejaVuSans-32"/>
       <use xlink:href="#DejaVuSans-30" x="63.623047"/>
       <use xlink:href="#DejaVuSans-31" x="127.246094"/>
       <use xlink:href="#DejaVuSans-34" x="190.869141"/>
       <use xlink:href="#DejaVuSans-2d" x="254.492188"/>
       <use xlink:href="#DejaVuSans-30" x="290.576172"/>
       <use xlink:href="#DejaVuSans-37" x="354.199219"/>
       <use xlink:href="#DejaVuSans-2d" x="417.822266"/>
       <use xlink:href="#DejaVuSans-30" x="453.90625"/>
       <use xlink:href="#DejaVuSans-32" x="517.529297"/>
      </g>
     </g>
    </g>
    <g id="xtick_9">
     <g id="line2d_17">
      <g>
       <use xlink:href="#mc12f85f739" x="299.284781" y="684.92" style="stroke: #000000; stroke-width: 0.8"/>
      </g>
     </g>
     <g id="text_17">
      <!-- 2014-07-03 -->
      <g transform="translate(270.226969 699.518437) scale(0.1 -0.1)">
       <use xlink:href="#DejaVuSans-32"/>
       <use xlink:href="#DejaVuSans-30" x="63.623047"/>
       <use xlink:href="#DejaVuSans-31" x="127.246094"/>
       <use xlink:href="#DejaVuSans-34" x="190.869141"/>
       <use xlink:href="#DejaVuSans-2d" x="254.492188"/>
       <use xlink:href="#DejaVuSans-30" x="290.576172"/>
       <use xlink:href="#DejaVuSans-37" x="354.199219"/>
       <use xlink:href="#DejaVuSans-2d" x="417.822266"/>
       <use xlink:href="#DejaVuSans-30" x="453.90625"/>
       <use xlink:href="#DejaVuSans-33" x="517.529297"/>
      </g>
     </g>
    </g>
    <g id="xtick_10">
     <g id="line2d_18">
      <g>
       <use xlink:href="#mc12f85f739" x="423.241693" y="684.92" style="stroke: #000000; stroke-width: 0.8"/>
      </g>
     </g>
     <g id="text_18">
      <!-- 2014-07-04 -->
      <g transform="translate(394.18388 699.518437) scale(0.1 -0.1)">
       <use xlink:href="#DejaVuSans-32"/>
       <use xlink:href="#DejaVuSans-30" x="63.623047"/>
       <use xlink:href="#DejaVuSans-31" x="127.246094"/>
       <use xlink:href="#DejaVuSans-34" x="190.869141"/>
       <use xlink:href="#DejaVuSans-2d" x="254.492188"/>
       <use xlink:href="#DejaVuSans-30" x="290.576172"/>
       <use xlink:href="#DejaVuSans-37" x="354.199219"/>
       <use xlink:href="#DejaVuSans-2d" x="417.822266"/>
       <use xlink:href="#DejaVuSans-30" x="453.90625"/>
       <use xlink:href="#DejaVuSans-34" x="517.529297"/>
      </g>
     </g>
    </g>
    <g id="xtick_11">
     <g id="line2d_19">
      <g>
       <use xlink:href="#mc12f85f739" x="547.198605" y="684.92" style="stroke: #000000; stroke-width: 0.8"/>
      </g>
     </g>
     <g id="text_19">
      <!-- 2014-07-05 -->
      <g transform="translate(518.140792 699.518437) scale(0.1 -0.1)">
       <use xlink:href="#DejaVuSans-32"/>
       <use xlink:href="#DejaVuSans-30" x="63.623047"/>
       <use xlink:href="#DejaVuSans-31" x="127.246094"/>
       <use xlink:href="#DejaVuSans-34" x="190.869141"/>
       <use xlink:href="#DejaVuSans-2d" x="254.492188"/>
       <use xlink:href="#DejaVuSans-30" x="290.576172"/>
       <use xlink:href="#DejaVuSans-37" x="354.199219"/>
       <use xlink:href="#DejaVuSans-2d" x="417.822266"/>
       <use xlink:href="#DejaVuSans-30" x="453.90625"/>
       <use xlink:href="#DejaVuSans-35" x="517.529297"/>
      </g>
     </g>
    </g>
    <g id="xtick_12">
     <g id="line2d_20">
      <g>
       <use xlink:href="#mc12f85f739" x="671.155517" y="684.92" style="stroke: #000000; stroke-width: 0.8"/>
      </g>
     </g>
     <g id="text_20">
      <!-- 2014-07-06 -->
      <g transform="translate(642.097704 699.518437) scale(0.1 -0.1)">
       <use xlink:href="#DejaVuSans-32"/>
       <use xlink:href="#DejaVuSans-30" x="63.623047"/>
       <use xlink:href="#DejaVuSans-31" x="127.246094"/>
       <use xlink:href="#DejaVuSans-34" x="190.869141"/>
       <use xlink:href="#DejaVuSans-2d" x="254.492188"/>
       <use xlink:href="#DejaVuSans-30" x="290.576172"/>
       <use xlink:href="#DejaVuSans-37" x="354.199219"/>
       <use xlink:href="#DejaVuSans-2d" x="417.822266"/>
       <use xlink:href="#DejaVuSans-30" x="453.90625"/>
       <use xlink:href="#DejaVuSans-36" x="517.529297"/>
      </g>
     </g>
    </g>
   </g>
   <g id="matplotlib.axis_4">
    <g id="ytick_7">
     <g id="line2d_21">
      <g>
       <use xlink:href="#m0b6867807d" x="20.5625" y="639.670451" style="stroke: #000000; stroke-width: 0.8"/>
      </g>
     </g>
     <g id="text_21">
      <!-- 0 -->
      <g transform="translate(7.2 643.46967) scale(0.1 -0.1)">
       <use xlink:href="#DejaVuSans-30"/>
      </g>
     </g>
    </g>
    <g id="ytick_8">
     <g id="line2d_22">
      <g>
       <use xlink:href="#m0b6867807d" x="20.5625" y="593.090115" style="stroke: #000000; stroke-width: 0.8"/>
      </g>
     </g>
     <g id="text_22">
      <!-- 1 -->
      <g transform="translate(7.2 596.889333) scale(0.1 -0.1)">
       <use xlink:href="#DejaVuSans-31"/>
      </g>
     </g>
    </g>
    <g id="ytick_9">
     <g id="line2d_23">
      <g>
       <use xlink:href="#m0b6867807d" x="20.5625" y="546.509778" style="stroke: #000000; stroke-width: 0.8"/>
      </g>
     </g>
     <g id="text_23">
      <!-- 2 -->
      <g transform="translate(7.2 550.308997) scale(0.1 -0.1)">
       <use xlink:href="#DejaVuSans-32"/>
      </g>
     </g>
    </g>
    <g id="ytick_10">
     <g id="line2d_24">
      <g>
       <use xlink:href="#m0b6867807d" x="20.5625" y="499.929441" style="stroke: #000000; stroke-width: 0.8"/>
      </g>
     </g>
     <g id="text_24">
      <!-- 3 -->
      <g transform="translate(7.2 503.72866) scale(0.1 -0.1)">
       <use xlink:href="#DejaVuSans-33"/>
      </g>
     </g>
    </g>
    <g id="ytick_11">
     <g id="line2d_25">
      <g>
       <use xlink:href="#m0b6867807d" x="20.5625" y="453.349104" style="stroke: #000000; stroke-width: 0.8"/>
      </g>
     </g>
     <g id="text_25">
      <!-- 4 -->
      <g transform="translate(7.2 457.148323) scale(0.1 -0.1)">
       <use xlink:href="#DejaVuSans-34"/>
      </g>
     </g>
    </g>
    <g id="ytick_12">
     <g id="line2d_26">
      <g>
       <use xlink:href="#m0b6867807d" x="20.5625" y="406.768768" style="stroke: #000000; stroke-width: 0.8"/>
      </g>
     </g>
     <g id="text_26">
      <!-- 5 -->
      <g transform="translate(7.2 410.567986) scale(0.1 -0.1)">
       <use xlink:href="#DejaVuSans-35"/>
      </g>
     </g>
    </g>
   </g>
   <g id="line2d_27">
    <path d="M 51.54312 639.670451 
L 52.145688 639.575472 
L 53.781231 638.263474 
L 56.794072 635.389859 
L 57.827047 634.927759 
L 59.118264 634.635214 
L 59.892995 634.639421 
L 60.667726 634.920398 
L 62.475431 635.963361 
L 64.541379 637.071297 
L 65.143948 637.19748 
L 65.660435 637.077908 
L 66.090841 636.73738 
L 66.607328 635.957735 
L 68.328952 632.372605 
L 68.587195 631.251131 
L 69.620169 624.776001 
L 70.050575 622.800002 
L 70.3949 622.271338 
L 71.255712 620.029964 
L 71.513956 619.673329 
L 71.944362 618.706784 
L 72.116524 618.060541 
L 72.54693 615.426394 
L 72.719092 614.95928 
L 73.063417 613.452659 
L 73.407742 614.665764 
L 73.752067 613.694103 
L 73.924229 613.982025 
L 74.096391 613.516352 
L 74.268554 612.853827 
L 74.354635 612.904491 
L 74.526797 613.390365 
L 74.612878 613.328634 
L 74.871122 612.506874 
L 74.957203 612.604212 
L 75.129366 613.178486 
L 75.215447 613.14176 
L 75.47369 612.397067 
L 75.559771 612.519779 
L 75.731934 613.117208 
L 75.818015 613.0831 
L 76.076259 612.361143 
L 76.16234 612.482722 
L 76.506665 614.168263 
L 76.850989 613.414309 
L 77.023152 613.797602 
L 77.195314 613.37 
L 77.367476 612.739106 
L 77.453558 612.783848 
L 77.62572 613.316299 
L 77.711801 613.257678 
L 77.970045 612.467083 
L 78.056126 612.574199 
L 78.228288 613.163202 
L 78.31437 613.121145 
L 78.572613 612.386925 
L 78.658694 612.517896 
L 78.916938 613.377771 
L 79.175181 613.292277 
L 79.347344 614.033219 
L 79.691669 615.797269 
L 79.949912 616.121247 
L 80.294237 617.127934 
L 80.638562 617.546906 
L 80.810724 612.876252 
L 81.155049 601.163596 
L 81.413292 605.513258 
L 82.015861 615.619348 
L 82.446267 620.2825 
L 83.048835 624.770429 
L 84.081809 629.234986 
L 84.253972 629.760047 
L 84.340053 629.397367 
L 84.512215 617.470169 
L 84.770459 591.651054 
L 84.942621 592.630509 
L 85.114783 581.505306 
L 85.286946 568.624811 
L 85.373027 570.279098 
L 85.631271 580.336762 
L 85.803433 568.188671 
L 85.975595 556.919445 
L 86.233839 565.010316 
L 86.406001 554.999812 
L 86.836407 501.235406 
L 87.180732 461.597058 
L 87.869381 425.429315 
L 88.041544 422.942145 
L 88.213706 416.436163 
L 88.47195 410.590233 
L 88.644112 411.534788 
L 88.816275 409.395846 
L 89.074518 404.096823 
L 89.246681 404.799475 
L 89.418843 403.496342 
L 89.591005 399.74 
L 89.677086 399.773184 
L 90.021411 402.398774 
L 90.193574 400.599419 
L 90.365736 403.725762 
L 90.710061 409.675019 
L 90.796142 410.413831 
L 92.259522 451.429698 
L 92.603847 462.265372 
L 92.776009 465.888058 
L 93.292496 481.086806 
L 94.325471 502.937875 
L 95.444526 517.105056 
L 95.70277 518.084139 
L 95.788851 517.211204 
L 95.874932 517.26711 
L 96.047094 519.324414 
L 96.305338 517.92715 
L 96.4775 514.889352 
L 96.649663 516.428691 
L 97.080069 502.762451 
L 97.16615 503.680608 
L 97.252231 501.319654 
L 98.62953 417.746582 
L 98.973855 412.516413 
L 99.31818 418.143119 
L 100.006829 449.827224 
L 100.695479 485.821242 
L 101.642372 523.056013 
L 102.072778 534.491056 
L 103.019671 548.534488 
L 103.794401 555.207403 
L 104.39697 558.389996 
L 105.085619 560.915547 
L 105.429944 561.95606 
L 106.204675 563.730004 
L 106.376837 563.997689 
L 106.807243 564.941033 
L 107.409811 566.435194 
L 108.614948 570.805704 
L 109.647922 577.004594 
L 110.250491 581.041425 
L 111.369546 586.606999 
L 111.713871 587.816201 
L 112.058196 589.114248 
L 112.230358 589.355956 
L 112.40252 589.867264 
L 112.488601 590.031522 
L 112.660764 590.48 
L 112.746845 590.634135 
L 112.832926 591.060263 
L 112.919007 591.022687 
L 113.607657 592.366439 
L 113.779819 592.066043 
L 113.8659 592.142089 
L 114.038063 591.7611 
L 114.124144 591.940139 
L 114.210225 591.754492 
L 114.382388 592.497641 
L 114.468469 592.340424 
L 114.640631 592.792062 
L 114.726712 592.608692 
L 115.157118 593.620674 
L 115.2432 593.340555 
L 115.415362 593.759445 
L 115.501443 593.508716 
L 115.673605 593.777328 
L 115.759687 593.523584 
L 115.931849 593.78348 
L 116.01793 593.499623 
L 116.190093 593.819246 
L 116.276174 593.533634 
L 116.448336 593.878444 
L 116.534417 593.626288 
L 116.70658 594.008061 
L 116.792661 593.777086 
L 116.964823 594.148499 
L 117.050904 593.935477 
L 117.223067 594.30503 
L 117.309148 594.10463 
L 117.48131 594.500284 
L 117.567392 594.2825 
L 117.739554 594.672518 
L 117.825635 594.439272 
L 117.997798 594.875126 
L 118.083879 594.671041 
L 118.256041 595.071948 
L 118.342122 594.868851 
L 118.514285 595.283208 
L 118.600366 595.119963 
L 118.772528 595.536016 
L 118.858609 595.362746 
L 119.030772 595.76784 
L 119.116853 595.587765 
L 119.289015 596.033145 
L 119.375097 595.825692 
L 119.547259 596.219522 
L 119.63334 596.021776 
L 119.805503 596.435038 
L 119.891584 596.252736 
L 120.063746 596.616059 
L 120.149827 596.39342 
L 120.32199 596.738327 
L 120.408071 596.50535 
L 120.580233 596.888611 
L 120.666314 596.634289 
L 120.838477 596.972605 
L 120.924558 596.719375 
L 121.09672 597.070229 
L 121.182802 596.843872 
L 121.354964 597.168408 
L 121.441045 596.914465 
L 121.613207 597.201895 
L 121.699289 596.973969 
L 121.871451 597.288321 
L 121.957532 597.052807 
L 122.129695 597.318357 
L 122.215776 597.06446 
L 122.387938 597.386206 
L 122.474019 597.113666 
L 122.560101 597.196111 
L 122.646182 597.403242 
L 122.732263 597.141003 
L 122.818344 597.215921 
L 122.904425 597.454914 
L 122.990507 597.234684 
L 123.076588 597.279726 
L 123.162669 597.4997 
L 123.334831 597.264192 
L 123.420912 597.508537 
L 123.506994 597.248982 
L 123.593075 597.284515 
L 123.679156 597.540386 
L 123.851318 597.294193 
L 123.9374 597.52458 
L 124.109562 597.242216 
L 124.195643 597.532698 
L 124.367806 597.246884 
L 124.453887 597.532059 
L 124.626049 597.229212 
L 124.71213 597.49987 
L 124.884293 597.272543 
L 124.970374 597.503737 
L 125.142536 597.24873 
L 125.228617 597.487204 
L 125.40078 597.250262 
L 125.486861 597.518996 
L 125.659023 597.243818 
L 125.745105 597.483494 
L 125.917267 597.237219 
L 126.003348 597.520912 
L 126.089429 597.458623 
L 126.17551 597.262567 
L 126.261592 597.522317 
L 126.347673 597.430334 
L 126.433754 597.221566 
L 126.519835 597.48215 
L 126.605916 597.399752 
L 126.691998 597.22329 
L 126.778079 597.470959 
L 126.86416 597.406785 
L 126.950241 597.1968 
L 127.036322 597.40106 
L 127.122404 597.348544 
L 127.208485 597.124999 
L 127.380647 597.408529 
L 127.466728 597.115698 
L 127.638891 597.370464 
L 127.724972 597.088206 
L 127.897134 597.387347 
L 127.983215 597.126762 
L 128.155378 597.366799 
L 128.241459 597.10135 
L 128.413621 597.351637 
L 128.499703 597.158549 
L 128.671865 597.365827 
L 128.757946 597.142277 
L 128.844027 597.181677 
L 128.930109 597.340634 
L 129.01619 597.152852 
L 129.102271 597.199449 
L 129.188352 597.406477 
L 129.360514 597.145939 
L 129.446596 597.317782 
L 129.618758 597.068555 
L 129.704839 597.243907 
L 129.877002 597.017192 
L 129.963083 597.170577 
L 130.135245 596.907335 
L 130.221326 597.087768 
L 130.393489 596.915167 
L 130.47957 597.082418 
L 130.651732 596.784076 
L 130.737813 596.986296 
L 130.909976 596.755235 
L 130.996057 597.078536 
L 131.082138 597.015581 
L 131.168219 596.832908 
L 131.254301 597.131157 
L 131.340382 597.093512 
L 131.426463 596.912082 
L 131.598625 597.265463 
L 131.684707 597.077723 
L 131.856869 597.384613 
L 131.94295 597.173409 
L 132.115113 597.519929 
L 132.201194 597.326219 
L 132.373356 597.667298 
L 132.459437 597.47321 
L 132.6316 597.840629 
L 132.717681 597.663444 
L 132.889843 598.062005 
L 132.975924 597.891678 
L 133.40633 598.5554 
L 133.492412 598.428338 
L 133.578493 598.502313 
L 133.664574 598.828968 
L 133.750655 598.733379 
L 133.836736 598.762514 
L 133.922817 599.12014 
L 134.008899 599.029957 
L 134.09498 599.016225 
L 134.181061 599.381611 
L 134.267142 599.357909 
L 134.353223 599.289298 
L 134.525386 599.66928 
L 134.611467 599.554251 
L 134.783629 599.993158 
L 134.869711 599.82073 
L 135.041873 600.284364 
L 135.127954 600.08159 
L 135.300116 600.565695 
L 135.386198 600.34991 
L 135.55836 600.837163 
L 135.644441 600.624757 
L 135.730522 600.739289 
L 135.816604 601.088458 
L 135.988766 600.928065 
L 136.074847 601.321254 
L 136.24701 601.100078 
L 136.333091 601.515139 
L 136.419172 601.471791 
L 136.505253 601.302983 
L 136.677416 601.748454 
L 136.763497 601.4876 
L 136.935659 601.970081 
L 137.02174 601.683725 
L 137.193903 602.178452 
L 137.279984 601.861204 
L 137.366065 601.994813 
L 137.452146 602.360263 
L 137.624309 602.115953 
L 137.71039 602.516935 
L 137.882552 602.207857 
L 137.968633 602.629152 
L 138.054715 602.588947 
L 138.140796 602.333653 
L 138.312958 602.799262 
L 138.399039 602.487469 
L 138.571202 603.003461 
L 138.657283 602.670032 
L 138.743364 602.804429 
L 138.829445 603.165803 
L 139.001608 602.856692 
L 139.087689 603.27699 
L 139.259851 602.934984 
L 139.345932 603.36677 
L 139.432014 603.340989 
L 139.518095 603.03735 
L 139.690257 603.540462 
L 139.776338 603.160717 
L 139.948501 603.646232 
L 140.120663 603.298612 
L 140.206744 603.653978 
L 140.378907 603.195255 
L 140.464988 603.561191 
L 140.551069 603.467098 
L 140.63715 603.142528 
L 140.809313 603.485156 
L 140.895394 603.089366 
L 141.067556 603.573457 
L 141.239719 603.268566 
L 141.3258 603.647981 
L 141.497962 603.244756 
L 141.670124 603.73757 
L 141.756206 603.416026 
L 141.928368 603.879067 
L 142.10053 603.588502 
L 142.186612 603.938604 
L 142.358774 603.671722 
L 142.530936 604.023884 
L 142.617018 603.758518 
L 142.78918 604.103492 
L 142.961342 603.856706 
L 143.047423 604.086964 
L 143.219586 603.791302 
L 143.305667 603.97606 
L 143.391748 603.92829 
L 143.477829 603.758313 
L 143.649992 603.935025 
L 143.822154 603.789439 
L 143.908235 603.920133 
L 143.994317 603.857386 
L 144.080398 603.790044 
L 144.25256 603.979031 
L 144.338641 603.864435 
L 144.510804 604.048036 
L 144.682966 603.965121 
L 144.855128 604.06977 
L 144.94121 603.988676 
L 145.113372 604.135587 
L 145.285534 604.082705 
L 145.371616 604.237875 
L 145.457697 604.164051 
L 145.543778 604.175756 
L 145.71594 604.425216 
L 145.802022 604.360426 
L 145.974184 604.636128 
L 146.146346 604.594768 
L 146.232427 604.752821 
L 146.318509 604.698928 
L 146.40459 604.620689 
L 146.576752 604.800478 
L 146.748915 604.717546 
L 146.834996 604.84525 
L 147.007158 604.662715 
L 147.179321 604.838181 
L 147.265402 604.737426 
L 147.437564 604.960412 
L 147.609726 604.88666 
L 147.781889 605.033154 
L 147.86797 605.008017 
L 148.040132 605.181337 
L 148.126214 605.069522 
L 148.298376 605.267855 
L 148.470538 605.198845 
L 148.55662 605.309326 
L 148.728782 605.155796 
L 148.900944 605.231198 
L 148.987026 605.140151 
L 149.159188 605.327073 
L 149.33135 605.278416 
L 149.417431 605.382637 
L 149.589594 605.227925 
L 149.761756 605.314368 
L 149.847837 605.177325 
L 150.02 605.317108 
L 150.192162 605.214315 
L 150.364325 605.376707 
L 150.450406 605.338206 
L 150.622568 605.539265 
L 150.708649 605.460107 
L 150.880812 605.68248 
L 151.052974 605.610119 
L 151.225136 605.66118 
L 151.397299 605.616102 
L 151.569461 605.506509 
L 151.999867 605.353013 
L 152.430273 605.459674 
L 153.032841 604.685651 
L 153.377166 603.611147 
L 153.721491 603.236557 
L 154.065816 603.45295 
L 154.754465 604.335572 
L 155.184871 604.551351 
L 155.357033 604.624731 
L 155.529196 604.758465 
L 156.648251 605.586134 
L 156.820414 605.727822 
L 157.853388 606.115375 
L 158.542037 606.590623 
L 159.402849 606.690243 
L 159.833255 606.48312 
L 160.780148 606.615363 
L 160.952311 606.660202 
L 161.899204 606.363244 
L 162.415691 606.704167 
L 162.501772 606.682927 
L 162.673935 606.816231 
L 162.846097 606.805014 
L 163.190422 606.815356 
L 165.084208 606.991186 
L 165.428533 607.272896 
L 165.94502 607.534434 
L 166.289344 607.64888 
L 167.322319 607.724554 
L 167.666643 607.759875 
L 168.097049 607.702131 
L 168.957861 608.004079 
L 170.33516 607.721272 
L 171.282053 608.105457 
L 171.626378 608.062833 
L 172.056784 607.972528 
L 172.48719 608.05496 
L 173.348002 608.401932 
L 173.95057 608.370073 
L 174.122733 608.329529 
L 174.294895 608.251126 
L 174.467057 608.323624 
L 174.983545 608.332392 
L 175.155707 608.388811 
L 175.327869 608.442646 
L 175.758275 608.451549 
L 176.360844 607.702656 
L 176.877331 607.296984 
L 177.307737 607.37961 
L 177.479899 607.368524 
L 177.652061 607.538426 
L 177.738143 607.532382 
L 177.910305 607.693291 
L 178.082467 607.667857 
L 178.25463 607.793572 
L 178.426792 607.845863 
L 178.771117 607.819035 
L 179.115442 607.647381 
L 179.373685 607.604729 
L 179.804091 607.751496 
L 179.976253 607.781109 
L 180.234497 607.876989 
L 180.406659 607.924988 
L 180.578822 607.860997 
L 180.750984 607.801962 
L 181.095309 607.69499 
L 182.300446 608.293802 
L 183.677745 608.602158 
L 184.108151 608.895447 
L 185.141125 608.991138 
L 185.915855 609.400613 
L 186.174099 609.416333 
L 186.604505 609.273435 
L 186.776667 609.042607 
L 186.94883 609.050739 
L 187.120992 608.99804 
L 187.207073 609.06016 
L 187.379236 608.999031 
L 187.551398 609.282488 
L 187.637479 609.293725 
L 187.809642 609.496574 
L 187.981804 609.554021 
L 188.153966 609.618814 
L 188.928697 609.388686 
L 189.531265 609.314922 
L 189.703428 609.370598 
L 189.961671 609.309053 
L 190.478158 609.075477 
L 190.650321 609.198524 
L 190.736402 609.152458 
L 190.908564 609.289843 
L 191.080727 609.282372 
L 191.252889 609.437098 
L 191.597214 609.529344 
L 191.769376 609.638826 
L 191.941539 609.614252 
L 192.113701 609.618506 
L 192.544107 609.671168 
L 193.232757 609.912471 
L 195.556949 610.729362 
L 197.020329 611.149779 
L 200.205333 611.679625 
L 200.893982 611.679347 
L 201.238307 609.172998 
L 201.410469 607.352571 
L 201.496551 607.613739 
L 201.926957 601.005138 
L 202.099119 603.224504 
L 202.1852 602.819763 
L 202.443444 599.836017 
L 202.529525 600.157835 
L 202.701687 602.747546 
L 202.959931 601.202291 
L 203.132093 600.544841 
L 203.304256 601.9862 
L 203.562499 595.158225 
L 204.078986 585.337472 
L 204.33723 582.775434 
L 204.595473 581.877628 
L 204.681555 580.75696 
L 204.767636 581.043424 
L 205.111961 579.300075 
L 205.198042 579.237695 
L 205.284123 578.438795 
L 205.370204 578.843995 
L 205.542367 577.941747 
L 205.628448 577.826282 
L 205.80061 578.364349 
L 205.886691 578.084404 
L 205.972772 578.724504 
L 206.058854 578.383084 
L 206.317097 579.232269 
L 206.747503 581.533453 
L 207.005747 582.953679 
L 207.350071 585.005286 
L 207.608315 585.688604 
L 207.694396 586.210329 
L 207.780477 586.151969 
L 207.95264 586.572122 
L 208.038721 586.514651 
L 208.383046 587.601635 
L 208.641289 588.815046 
L 209.760345 593.175014 
L 210.707238 595.420992 
L 211.309806 596.482042 
L 211.481969 596.493823 
L 211.56805 596.49224 
L 212.256699 595.128576 
L 212.514943 594.569275 
L 212.687105 594.710741 
L 213.03143 591.613345 
L 213.117511 591.704406 
L 213.289674 590.268932 
L 213.633998 584.062425 
L 213.720079 584.56245 
L 213.892242 579.180534 
L 214.322648 552.317488 
L 214.753054 537.410246 
L 215.613866 492.773914 
L 215.786028 494.231871 
L 216.216434 505.994152 
L 216.64684 524.095687 
L 217.765895 568.578995 
L 218.282382 581.246834 
L 218.712788 586.876544 
L 219.229276 590.620425 
L 219.659681 592.493088 
L 220.004006 593.434822 
L 220.434412 594.270703 
L 221.381305 594.465118 
L 221.897792 594.629709 
L 222.242117 594.722446 
L 223.102929 595.398342 
L 224.049822 596.627057 
L 224.824553 597.989947 
L 227.406988 602.565883 
L 227.837394 603.110106 
L 228.2678 603.557865 
L 228.698206 603.950637 
L 228.870369 604.0769 
L 228.95645 604.122852 
L 229.128612 604.372448 
L 229.300775 604.560649 
L 230.247668 605.459199 
L 230.41983 605.499301 
L 230.591992 605.648014 
L 230.764155 605.707498 
L 231.10848 605.90502 
L 232.313616 606.207615 
L 233.088347 606.826909 
L 233.260509 606.828427 
L 233.432672 606.898437 
L 234.03524 606.683921 
L 234.207402 606.646492 
L 235.756864 606.453818 
L 235.929026 606.48678 
L 236.273351 606.411359 
L 236.445513 606.554096 
L 236.617676 606.491011 
L 236.789838 606.505867 
L 236.962 606.554302 
L 238.683624 606.769754 
L 238.855787 606.716794 
L 239.027949 606.739294 
L 239.372274 606.741057 
L 239.80268 607.091272 
L 240.060923 607.257696 
L 240.319167 607.441768 
L 240.491329 607.543801 
L 240.921735 607.518811 
L 241.438222 607.369121 
L 241.868628 607.4107 
L 242.385115 607.804808 
L 243.676333 607.319968 
L 244.106739 607.828794 
L 244.709307 607.85538 
L 245.6562 607.310928 
L 245.828363 607.526565 
L 246.000525 607.683038 
L 246.947418 608.055448 
L 247.636068 607.965992 
L 248.152555 607.976443 
L 248.582961 608.400958 
L 249.013367 608.710838 
L 249.185529 608.77276 
L 250.562828 608.489447 
L 251.595803 608.918094 
L 251.940127 608.392981 
L 252.370533 607.658592 
L 252.714858 607.542122 
L 253.403507 607.736972 
L 255.03905 608.15637 
L 255.211212 608.084523 
L 255.383375 608.132679 
L 255.555537 608.122987 
L 255.7277 608.163284 
L 256.072024 608.238205 
L 256.416349 608.447393 
L 256.588511 608.5174 
L 257.018917 608.471626 
L 257.363242 608.349369 
L 257.535405 608.464987 
L 258.310135 608.886445 
L 258.65446 609.019413 
L 259.170947 609.119955 
L 260.203921 608.988886 
L 260.462165 609.103563 
L 260.978652 609.431462 
L 261.150814 609.332952 
L 261.236896 609.367416 
L 261.495139 609.192655 
L 262.011626 609.147733 
L 262.183789 609.260408 
L 262.355951 609.27213 
L 262.528113 609.300235 
L 263.216763 609.153272 
L 263.647169 608.868155 
L 263.73325 608.930585 
L 263.991494 608.794905 
L 264.077575 608.78265 
L 264.249737 608.561573 
L 264.335818 608.694815 
L 264.4219 608.625033 
L 264.507981 608.50803 
L 264.680143 608.642338 
L 264.766224 608.548699 
L 265.282712 609.005981 
L 265.368793 608.952424 
L 265.540955 609.123375 
L 265.713117 609.035044 
L 265.88528 609.017728 
L 266.229605 608.941143 
L 267.606904 609.214206 
L 268.553797 609.386667 
L 268.725959 609.434399 
L 269.242446 609.196187 
L 269.414609 609.212282 
L 269.586771 609.175383 
L 269.672852 609.21121 
L 269.845015 609.07405 
L 270.017177 609.241387 
L 270.103258 609.180097 
L 270.27542 609.357179 
L 270.447583 609.359603 
L 270.619745 609.528847 
L 270.705826 609.504037 
L 270.877989 609.612228 
L 271.050151 609.602872 
L 271.222314 609.545075 
L 271.910963 609.260994 
L 272.255288 609.161806 
L 272.599613 609.365664 
L 272.857856 609.46893 
L 273.1161 609.467541 
L 273.804749 609.086297 
L 274.407318 609.448376 
L 274.57948 609.654471 
L 274.751642 609.713142 
L 274.923805 609.742797 
L 275.526373 609.438955 
L 275.956779 609.155646 
L 276.04286 609.143807 
L 276.215022 609.329449 
L 276.301104 609.313376 
L 276.473266 609.465703 
L 276.645428 609.383191 
L 276.73151 609.445555 
L 276.989753 609.305388 
L 277.592322 609.213967 
L 278.367052 609.514821 
L 278.539215 609.633359 
L 279.141783 608.992004 
L 279.400026 608.697422 
L 279.572189 608.624422 
L 279.916514 608.812352 
L 281.12165 610.155054 
L 284.048411 611.35965 
L 284.909223 611.564346 
L 285.770034 611.767068 
L 286.544765 611.848036 
L 287.061252 611.636335 
L 287.233415 611.606492 
L 288.35247 612.004903 
L 288.696795 611.985004 
L 290.160175 611.943325 
L 290.590581 611.971145 
L 291.279231 611.952956 
L 292.312205 612.020956 
L 293.000854 612.006655 
L 294.033829 612.279209 
L 295.669371 612.535896 
L 296.702345 612.700298 
L 297.649238 612.733617 
L 297.907482 612.707564 
L 298.423969 612.651175 
L 298.768294 612.691821 
L 299.026538 612.553576 
L 299.1987 612.493736 
L 299.456943 612.554856 
L 299.629106 612.435615 
L 299.801268 612.428535 
L 299.973431 612.424729 
L 300.059512 612.424792 
L 300.231674 612.179447 
L 300.403837 612.195459 
L 300.575999 612.106169 
L 300.66208 612.16383 
L 300.834242 611.799119 
L 300.920324 611.848031 
L 301.006405 611.862845 
L 301.178567 611.710185 
L 301.264648 611.802706 
L 301.436811 611.36216 
L 301.522892 611.442823 
L 301.608973 611.482159 
L 301.781136 611.279845 
L 301.867217 611.395366 
L 302.039379 610.879063 
L 302.12546 610.984727 
L 302.211542 611.005858 
L 302.383704 610.772146 
L 302.469785 610.908745 
L 302.900191 609.684104 
L 302.986272 609.400741 
L 303.072353 609.469293 
L 303.158435 609.404917 
L 303.416678 608.451472 
L 303.588841 608.036269 
L 303.674922 608.142003 
L 303.761003 608.275798 
L 303.933165 607.425885 
L 304.019246 607.550789 
L 304.191409 607.180664 
L 304.363571 607.480644 
L 304.535734 606.619098 
L 304.621815 606.655088 
L 304.793977 605.933745 
L 304.880058 606.024056 
L 304.96614 605.87318 
L 305.138302 604.962578 
L 305.224383 604.860265 
L 305.396545 604.335213 
L 305.482627 604.51136 
L 305.74087 604.205836 
L 305.999114 603.697662 
L 306.257357 603.492983 
L 306.601682 602.761134 
L 306.773845 602.754071 
L 307.20425 602.299898 
L 307.290332 602.415877 
L 307.462494 602.375508 
L 307.634656 602.214024 
L 307.806819 602.016116 
L 307.978981 602.070084 
L 308.151144 601.952586 
L 308.409387 601.613526 
L 308.753712 601.977832 
L 308.925874 601.553012 
L 309.011955 601.700275 
L 309.184118 601.452417 
L 309.35628 601.508151 
L 309.614524 601.273161 
L 310.561417 601.839381 
L 310.733579 601.93806 
L 311.077904 602.218005 
L 311.163985 601.902375 
L 311.50831 596.982328 
L 311.594391 597.030385 
L 311.938716 598.853106 
L 312.024797 599.01879 
L 312.196959 599.993614 
L 312.283041 600.014342 
L 312.455203 600.549644 
L 313.057771 599.440254 
L 313.402096 600.032222 
L 314.607233 604.715958 
L 314.951557 605.441949 
L 315.209801 605.625775 
L 315.812369 605.390069 
L 317.189668 606.381915 
L 323.645758 608.659549 
L 324.678732 609.151984 
L 325.195219 609.447065 
L 326.314274 610.270433 
L 329.499278 611.07747 
L 334.578068 611.75722 
L 336.644017 611.933519 
L 340.775914 612.709032 
L 342.6697 613.0506 
L 347.490247 613.820352 
L 365.911621 616.493792 
L 367.461083 616.961004 
L 369.182706 617.584455 
L 371.506898 618.554832 
L 374.175415 619.830397 
L 378.995962 622.508228 
L 382.869615 624.926257 
L 389.325705 629.367274 
L 393.801926 632.701891 
L 400.60234 638.0815 
L 402.496126 639.548453 
L 403.184776 639.617587 
L 411.276408 639.592895 
L 487.544341 639.650011 
L 671.155517 639.650315 
L 671.155517 639.650315 
" clip-path="url(#pe4242d72f3)" style="fill: none; stroke: #1f77b4; stroke-width: 1.5; stroke-linecap: square"/>
   </g>
   <g id="line2d_28">
    <path d="M 51.54312 639.670451 
L 53.092581 639.781216 
L 54.728124 640.173132 
L 61.012051 641.861466 
L 62.991918 641.961045 
L 64.971785 642.098309 
L 66.090841 642.472827 
L 67.295977 643.103195 
L 69.878413 644.438187 
L 71.513956 644.855913 
L 71.85828 644.848797 
L 72.030443 644.887895 
L 72.891255 643.894629 
L 73.149498 643.538055 
L 73.321661 643.372779 
L 73.752067 642.404462 
L 73.924229 642.161585 
L 74.354635 640.991266 
L 74.526797 640.71152 
L 74.957203 639.457286 
L 75.129366 639.184367 
L 75.559771 637.953856 
L 75.731934 637.722032 
L 76.16234 636.543382 
L 76.420583 636.436949 
L 76.764908 635.735315 
L 77.023152 635.709003 
L 77.367476 635.05697 
L 77.62572 635.059503 
L 77.970045 634.402621 
L 78.228288 634.400623 
L 78.572613 633.711204 
L 78.916938 633.520903 
L 79.175181 633.197125 
L 79.347344 633.267072 
L 79.519506 633.483795 
L 79.77775 633.535673 
L 79.949912 633.791293 
L 80.55248 635.319311 
L 80.638562 635.920061 
L 80.724643 635.904559 
L 81.843698 628.469712 
L 82.101942 628.073513 
L 82.274104 628.147483 
L 82.532348 628.749996 
L 82.876673 630.320418 
L 83.479241 634.373182 
L 84.253972 640.727989 
L 84.426134 642.269888 
L 84.684378 639.295771 
L 85.028702 635.138588 
L 85.803433 600.03397 
L 88.385869 416.94866 
L 88.644112 410.082211 
L 88.816275 408.694528 
L 89.074518 404.513213 
L 89.160599 404.303427 
L 89.246681 404.89454 
L 89.418843 407.136548 
L 89.504924 407.186419 
L 89.591005 407.459864 
L 89.763168 409.492472 
L 90.882223 436.265946 
L 93.120334 496.022395 
L 94.411552 515.505568 
L 95.444526 524.234722 
L 95.616688 525.168908 
L 96.047094 524.060382 
L 96.133176 524.207639 
L 96.219257 523.768738 
L 96.907906 513.97835 
L 97.596556 488.579313 
L 98.199124 455.117175 
L 98.62953 441.556053 
L 98.973855 437.096262 
L 99.059936 436.886393 
L 99.146017 437.054546 
L 99.404261 439.226377 
L 99.662504 443.438698 
L 100.178991 456.626605 
L 101.814534 501.938543 
L 102.503184 514.275303 
L 103.191833 522.626884 
L 103.880483 528.103163 
L 104.569132 531.815541 
L 105.429944 535.189018 
L 106.807243 539.548223 
L 109.389679 546.932099 
L 111.541708 552.43932 
L 114.382388 559.036954 
L 119.719421 570.261863 
L 122.818344 575.78539 
L 126.605916 581.899146 
L 130.47957 587.346678 
L 131.340382 588.485521 
L 132.459437 590.441118 
L 134.181061 593.516192 
L 135.127954 594.735259 
L 136.333091 595.894856 
L 138.571202 597.653478 
L 140.034582 598.860185 
L 143.822154 602.930309 
L 151.139055 609.746333 
L 152.085948 610.608124 
L 160.780148 617.806114 
L 162.932178 619.389906 
L 166.461507 622.244338 
L 170.679485 625.101545 
L 182.214364 632.853964 
L 183.591663 633.884796 
L 185.743693 635.281232 
L 189.273022 637.279739 
L 193.404919 639.525938 
L 194.610056 639.838271 
L 197.020329 640.14709 
L 200.72182 640.512954 
L 200.980064 641.010556 
L 201.410469 641.316437 
L 201.496551 641.520652 
L 201.582632 641.434577 
L 202.1852 638.963332 
L 202.87385 631.171014 
L 203.820743 616.522421 
L 204.939798 603.836009 
L 205.198042 602.773437 
L 205.628448 601.27146 
L 205.714529 601.364817 
L 205.886691 601.789047 
L 206.058854 601.796463 
L 206.231016 602.214146 
L 206.48926 603.855743 
L 207.608315 611.874077 
L 208.124802 615.865954 
L 208.985614 622.125776 
L 210.707238 630.967102 
L 211.137644 632.47927 
L 211.56805 633.679459 
L 211.826293 633.703057 
L 211.998456 633.972989 
L 212.084537 633.884078 
L 212.859268 630.479659 
L 213.461836 622.916459 
L 214.064404 603.82876 
L 214.839135 553.429406 
L 215.269541 537.398052 
L 215.613866 531.647575 
L 215.786028 531.205532 
L 215.95819 532.04609 
L 216.216434 535.526436 
L 216.64684 545.899518 
L 218.540626 598.662146 
L 219.143194 607.726941 
L 219.659681 612.616369 
L 220.176169 615.610694 
L 220.692656 617.368639 
L 221.209143 618.393817 
L 221.811711 619.11057 
L 222.758604 619.849494 
L 225.943608 621.919197 
L 228.353882 623.404372 
L 230.075505 624.599371 
L 236.789838 628.714524 
L 237.994975 629.819829 
L 238.855787 630.586568 
L 242.299034 633.060011 
L 242.987684 633.548865 
L 246.603094 635.779844 
L 248.927286 637.477648 
L 254.264319 640.49801 
L 255.813781 641.388852 
L 259.084866 643.582362 
L 259.773515 643.999701 
L 266.229605 647.510813 
L 268.123391 648.930196 
L 269.672852 649.72692 
L 270.877989 650.253165 
L 272.599613 651.417111 
L 273.374343 651.953258 
L 278.367052 654.700677 
L 280.088676 655.82098 
L 281.12165 656.174791 
L 282.671112 656.415175 
L 286.716928 656.980229 
L 288.094227 657.616951 
L 289.127201 657.830404 
L 290.590581 657.884088 
L 292.484367 657.966616 
L 294.205991 658.286582 
L 297.563157 658.691812 
L 298.51005 659.120397 
L 300.575999 660.254277 
L 301.264648 660.591096 
L 302.641947 661.026555 
L 303.416678 660.549085 
L 304.449652 658.791141 
L 304.96614 657.396305 
L 305.310464 656.210144 
L 305.568708 655.598619 
L 305.74087 655.351102 
L 306.171276 654.238686 
L 306.343439 654.046151 
L 306.773845 653.037202 
L 306.859926 653.025064 
L 307.032088 652.648934 
L 307.376413 651.985595 
L 307.462494 651.998342 
L 307.634656 651.656378 
L 307.8929 651.093105 
L 308.151144 650.995487 
L 308.581549 650.161519 
L 308.839793 650.269365 
L 309.184118 649.769638 
L 309.528443 649.761265 
L 309.786686 649.566741 
L 310.217092 649.756561 
L 310.389254 649.851373 
L 310.991823 650.841218 
L 311.163985 651.919141 
L 311.250066 651.882749 
L 312.369122 644.36239 
L 312.627365 643.987619 
L 312.799528 644.052374 
L 313.057771 644.643267 
L 313.402096 646.20641 
L 314.090746 650.864862 
L 315.12372 657.750305 
L 315.726288 660.468455 
L 316.328856 662.204261 
L 316.931425 663.242067 
L 317.620074 663.93802 
L 318.653049 664.589041 
L 322.096296 666.26238 
L 323.559676 666.73336 
L 325.367381 667.056694 
L 330.704415 667.65391 
L 336.041449 667.821562 
L 347.662409 667.902147 
L 454.403083 668.416845 
L 525.420064 668.985883 
L 582.491892 669.658386 
L 629.664384 670.430064 
L 669.433893 671.296873 
L 671.155517 671.34 
L 671.155517 671.34 
" clip-path="url(#pe4242d72f3)" style="fill: none; stroke: #ff7f0e; stroke-width: 1.5; stroke-linecap: square"/>
   </g>
   <g id="patch_9">
    <path d="M 20.5625 684.92 
L 20.5625 386.16 
" style="fill: none; stroke: #000000; stroke-width: 0.8; stroke-linejoin: miter; stroke-linecap: square"/>
   </g>
   <g id="patch_10">
    <path d="M 702.136136 684.92 
L 702.136136 386.16 
" style="fill: none; stroke: #000000; stroke-width: 0.8; stroke-linejoin: miter; stroke-linecap: square"/>
   </g>
   <g id="patch_11">
    <path d="M 20.5625 684.92 
L 702.136136 684.92 
" style="fill: none; stroke: #000000; stroke-width: 0.8; stroke-linejoin: miter; stroke-linecap: square"/>
   </g>
   <g id="patch_12">
    <path d="M 20.5625 386.16 
L 702.136136 386.16 
" style="fill: none; stroke: #000000; stroke-width: 0.8; stroke-linejoin: miter; stroke-linecap: square"/>
   </g>
   <g id="text_27">
    <!-- 2 transformation(s) -->
    <g transform="translate(303.234631 380.16) scale(0.12 -0.12)">
     <use xlink:href="#DejaVuSans-32"/>
     <use xlink:href="#DejaVuSans-20" x="63.623047"/>
     <use xlink:href="#DejaVuSans-74" x="95.410156"/>
     <use xlink:href="#DejaVuSans-72" x="134.619141"/>
     <use xlink:href="#DejaVuSans-61" x="175.732422"/>
     <use xlink:href="#DejaVuSans-6e" x="237.011719"/>
     <use xlink:href="#DejaVuSans-73" x="300.390625"/>
     <use xlink:href="#DejaVuSans-66" x="352.490234"/>
     <use xlink:href="#DejaVuSans-6f" x="387.695312"/>
     <use xlink:href="#DejaVuSans-72" x="448.876953"/>
     <use xlink:href="#DejaVuSans-6d" x="488.240234"/>
     <use xlink:href="#DejaVuSans-61" x="585.652344"/>
     <use xlink:href="#DejaVuSans-74" x="646.931641"/>
     <use xlink:href="#DejaVuSans-69" x="686.140625"/>
     <use xlink:href="#DejaVuSans-6f" x="713.923828"/>
     <use xlink:href="#DejaVuSans-6e" x="775.105469"/>
     <use xlink:href="#DejaVuSans-28" x="838.484375"/>
     <use xlink:href="#DejaVuSans-73" x="877.498047"/>
     <use xlink:href="#DejaVuSans-29" x="929.597656"/>
    </g>
   </g>
  </g>
  <g id="text_28">
   <!-- training -->
   <g transform="translate(333.129063 16.318125) scale(0.12 -0.12)">
    <defs>
     <path id="DejaVuSans-67" d="M 2906 1791 
Q 2906 2416 2648 2759 
Q 2391 3103 1925 3103 
Q 1463 3103 1205 2759 
Q 947 2416 947 1791 
Q 947 1169 1205 825 
Q 1463 481 1925 481 
Q 2391 481 2648 825 
Q 2906 1169 2906 1791 
z
M 3481 434 
Q 3481 -459 3084 -895 
Q 2688 -1331 1869 -1331 
Q 1566 -1331 1297 -1286 
Q 1028 -1241 775 -1147 
L 775 -588 
Q 1028 -725 1275 -790 
Q 1522 -856 1778 -856 
Q 2344 -856 2625 -561 
Q 2906 -266 2906 331 
L 2906 616 
Q 2728 306 2450 153 
Q 2172 0 1784 0 
Q 1141 0 747 490 
Q 353 981 353 1791 
Q 353 2603 747 3093 
Q 1141 3584 1784 3584 
Q 2172 3584 2450 3431 
Q 2728 3278 2906 2969 
L 2906 3500 
L 3481 3500 
L 3481 434 
z
" transform="scale(0.015625)"/>
    </defs>
    <use xlink:href="#DejaVuSans-74"/>
    <use xlink:href="#DejaVuSans-72" x="39.208984"/>
    <use xlink:href="#DejaVuSans-61" x="80.322266"/>
    <use xlink:href="#DejaVuSans-69" x="141.601562"/>
    <use xlink:href="#DejaVuSans-6e" x="169.384766"/>
    <use xlink:href="#DejaVuSans-69" x="232.763672"/>
    <use xlink:href="#DejaVuSans-6e" x="260.546875"/>
    <use xlink:href="#DejaVuSans-67" x="323.925781"/>
   </g>
  </g>
 </g>
 <defs>
  <clipPath id="pdcc2c703d8">
   <rect x="20.5625" y="43.44" width="681.573636" height="298.76"/>
  </clipPath>
  <clipPath id="pe4242d72f3">
   <rect x="20.5625" y="386.16" width="681.573636" height="298.76"/>
  </clipPath>
 </defs>
</svg>
