<?xml version="1.0" encoding="utf-8" standalone="no"?>
<!DOCTYPE svg PUBLIC "-//W3C//DTD SVG 1.1//EN"
  "http://www.w3.org/Graphics/SVG/1.1/DTD/svg11.dtd">
<svg xmlns:xlink="http://www.w3.org/1999/xlink" width="709.426761pt" height="708.798125pt" viewBox="0 0 709.426761 708.798125" xmlns="http://www.w3.org/2000/svg" version="1.1">
 <metadata>
  <rdf:RDF xmlns:dc="http://purl.org/dc/elements/1.1/" xmlns:cc="http://creativecommons.org/ns#" xmlns:rdf="http://www.w3.org/1999/02/22-rdf-syntax-ns#">
   <cc:Work>
    <dc:type rdf:resource="http://purl.org/dc/dcmitype/StillImage"/>
    <dc:date>2023-06-09T07:27:36.277128</dc:date>
    <dc:format>image/svg+xml</dc:format>
    <dc:creator>
     <cc:Agent>
      <dc:title>Matplotlib v3.7.1, https://matplotlib.org/</dc:title>
     </cc:Agent>
    </dc:creator>
   </cc:Work>
  </rdf:RDF>
 </metadata>
 <defs>
  <style type="text/css">*{stroke-linejoin: round; stroke-linecap: butt}</style>
 </defs>
 <g id="figure_1">
  <g id="patch_1">
   <path d="M 0 708.798125 
L 709.426761 708.798125 
L 709.426761 0 
L 0 0 
z
" style="fill: #ffffff"/>
  </g>
  <g id="axes_1">
   <g id="patch_2">
    <path d="M 30.103125 342.2 
L 702.226761 342.2 
L 702.226761 43.44 
L 30.103125 43.44 
z
" style="fill: #ffffff"/>
   </g>
   <g id="matplotlib.axis_1">
    <g id="xtick_1">
     <g id="line2d_1">
      <defs>
       <path id="m2b18b46b63" d="M 0 0 
L 0 3.5 
" style="stroke: #000000; stroke-width: 0.8"/>
      </defs>
      <g>
       <use xlink:href="#m2b18b46b63" x="60.484424" y="342.2" style="stroke: #000000; stroke-width: 0.8"/>
      </g>
     </g>
     <g id="text_1">
      <!-- 2014-07-01 -->
      <g transform="translate(31.426612 356.798437) scale(0.1 -0.1)">
       <defs>
        <path id="DejaVuSans-32" d="M 1228 531 
L 3431 531 
L 3431 0 
L 469 0 
L 469 531 
Q 828 903 1448 1529 
Q 2069 2156 2228 2338 
Q 2531 2678 2651 2914 
Q 2772 3150 2772 3378 
Q 2772 3750 2511 3984 
Q 2250 4219 1831 4219 
Q 1534 4219 1204 4116 
Q 875 4013 500 3803 
L 500 4441 
Q 881 4594 1212 4672 
Q 1544 4750 1819 4750 
Q 2544 4750 2975 4387 
Q 3406 4025 3406 3419 
Q 3406 3131 3298 2873 
Q 3191 2616 2906 2266 
Q 2828 2175 2409 1742 
Q 1991 1309 1228 531 
z
" transform="scale(0.015625)"/>
        <path id="DejaVuSans-30" d="M 2034 4250 
Q 1547 4250 1301 3770 
Q 1056 3291 1056 2328 
Q 1056 1369 1301 889 
Q 1547 409 2034 409 
Q 2525 409 2770 889 
Q 3016 1369 3016 2328 
Q 3016 3291 2770 3770 
Q 2525 4250 2034 4250 
z
M 2034 4750 
Q 2819 4750 3233 4129 
Q 3647 3509 3647 2328 
Q 3647 1150 3233 529 
Q 2819 -91 2034 -91 
Q 1250 -91 836 529 
Q 422 1150 422 2328 
Q 422 3509 836 4129 
Q 1250 4750 2034 4750 
z
" transform="scale(0.015625)"/>
        <path id="DejaVuSans-31" d="M 794 531 
L 1825 531 
L 1825 4091 
L 703 3866 
L 703 4441 
L 1819 4666 
L 2450 4666 
L 2450 531 
L 3481 531 
L 3481 0 
L 794 0 
L 794 531 
z
" transform="scale(0.015625)"/>
        <path id="DejaVuSans-34" d="M 2419 4116 
L 825 1625 
L 2419 1625 
L 2419 4116 
z
M 2253 4666 
L 3047 4666 
L 3047 1625 
L 3713 1625 
L 3713 1100 
L 3047 1100 
L 3047 0 
L 2419 0 
L 2419 1100 
L 313 1100 
L 313 1709 
L 2253 4666 
z
" transform="scale(0.015625)"/>
        <path id="DejaVuSans-2d" d="M 313 2009 
L 1997 2009 
L 1997 1497 
L 313 1497 
L 313 2009 
z
" transform="scale(0.015625)"/>
        <path id="DejaVuSans-37" d="M 525 4666 
L 3525 4666 
L 3525 4397 
L 1831 0 
L 1172 0 
L 2766 4134 
L 525 4134 
L 525 4666 
z
" transform="scale(0.015625)"/>
       </defs>
       <use xlink:href="#DejaVuSans-32"/>
       <use xlink:href="#DejaVuSans-30" x="63.623047"/>
       <use xlink:href="#DejaVuSans-31" x="127.246094"/>
       <use xlink:href="#DejaVuSans-34" x="190.869141"/>
       <use xlink:href="#DejaVuSans-2d" x="254.492188"/>
       <use xlink:href="#DejaVuSans-30" x="290.576172"/>
       <use xlink:href="#DejaVuSans-37" x="354.199219"/>
       <use xlink:href="#DejaVuSans-2d" x="417.822266"/>
       <use xlink:href="#DejaVuSans-30" x="453.90625"/>
       <use xlink:href="#DejaVuSans-31" x="517.529297"/>
      </g>
     </g>
    </g>
    <g id="xtick_2">
     <g id="line2d_2">
      <g>
       <use xlink:href="#m2b18b46b63" x="182.722677" y="342.2" style="stroke: #000000; stroke-width: 0.8"/>
      </g>
     </g>
     <g id="text_2">
      <!-- 2014-07-02 -->
      <g transform="translate(153.664864 356.798437) scale(0.1 -0.1)">
       <use xlink:href="#DejaVuSans-32"/>
       <use xlink:href="#DejaVuSans-30" x="63.623047"/>
       <use xlink:href="#DejaVuSans-31" x="127.246094"/>
       <use xlink:href="#DejaVuSans-34" x="190.869141"/>
       <use xlink:href="#DejaVuSans-2d" x="254.492188"/>
       <use xlink:href="#DejaVuSans-30" x="290.576172"/>
       <use xlink:href="#DejaVuSans-37" x="354.199219"/>
       <use xlink:href="#DejaVuSans-2d" x="417.822266"/>
       <use xlink:href="#DejaVuSans-30" x="453.90625"/>
       <use xlink:href="#DejaVuSans-32" x="517.529297"/>
      </g>
     </g>
    </g>
    <g id="xtick_3">
     <g id="line2d_3">
      <g>
       <use xlink:href="#m2b18b46b63" x="304.960929" y="342.2" style="stroke: #000000; stroke-width: 0.8"/>
      </g>
     </g>
     <g id="text_3">
      <!-- 2014-07-03 -->
      <g transform="translate(275.903117 356.798437) scale(0.1 -0.1)">
       <defs>
        <path id="DejaVuSans-33" d="M 2597 2516 
Q 3050 2419 3304 2112 
Q 3559 1806 3559 1356 
Q 3559 666 3084 287 
Q 2609 -91 1734 -91 
Q 1441 -91 1130 -33 
Q 819 25 488 141 
L 488 750 
Q 750 597 1062 519 
Q 1375 441 1716 441 
Q 2309 441 2620 675 
Q 2931 909 2931 1356 
Q 2931 1769 2642 2001 
Q 2353 2234 1838 2234 
L 1294 2234 
L 1294 2753 
L 1863 2753 
Q 2328 2753 2575 2939 
Q 2822 3125 2822 3475 
Q 2822 3834 2567 4026 
Q 2313 4219 1838 4219 
Q 1578 4219 1281 4162 
Q 984 4106 628 3988 
L 628 4550 
Q 988 4650 1302 4700 
Q 1616 4750 1894 4750 
Q 2613 4750 3031 4423 
Q 3450 4097 3450 3541 
Q 3450 3153 3228 2886 
Q 3006 2619 2597 2516 
z
" transform="scale(0.015625)"/>
       </defs>
       <use xlink:href="#DejaVuSans-32"/>
       <use xlink:href="#DejaVuSans-30" x="63.623047"/>
       <use xlink:href="#DejaVuSans-31" x="127.246094"/>
       <use xlink:href="#DejaVuSans-34" x="190.869141"/>
       <use xlink:href="#DejaVuSans-2d" x="254.492188"/>
       <use xlink:href="#DejaVuSans-30" x="290.576172"/>
       <use xlink:href="#DejaVuSans-37" x="354.199219"/>
       <use xlink:href="#DejaVuSans-2d" x="417.822266"/>
       <use xlink:href="#DejaVuSans-30" x="453.90625"/>
       <use xlink:href="#DejaVuSans-33" x="517.529297"/>
      </g>
     </g>
    </g>
    <g id="xtick_4">
     <g id="line2d_4">
      <g>
       <use xlink:href="#m2b18b46b63" x="427.199182" y="342.2" style="stroke: #000000; stroke-width: 0.8"/>
      </g>
     </g>
     <g id="text_4">
      <!-- 2014-07-04 -->
      <g transform="translate(398.141369 356.798437) scale(0.1 -0.1)">
       <use xlink:href="#DejaVuSans-32"/>
       <use xlink:href="#DejaVuSans-30" x="63.623047"/>
       <use xlink:href="#DejaVuSans-31" x="127.246094"/>
       <use xlink:href="#DejaVuSans-34" x="190.869141"/>
       <use xlink:href="#DejaVuSans-2d" x="254.492188"/>
       <use xlink:href="#DejaVuSans-30" x="290.576172"/>
       <use xlink:href="#DejaVuSans-37" x="354.199219"/>
       <use xlink:href="#DejaVuSans-2d" x="417.822266"/>
       <use xlink:href="#DejaVuSans-30" x="453.90625"/>
       <use xlink:href="#DejaVuSans-34" x="517.529297"/>
      </g>
     </g>
    </g>
    <g id="xtick_5">
     <g id="line2d_5">
      <g>
       <use xlink:href="#m2b18b46b63" x="549.437434" y="342.2" style="stroke: #000000; stroke-width: 0.8"/>
      </g>
     </g>
     <g id="text_5">
      <!-- 2014-07-05 -->
      <g transform="translate(520.379622 356.798437) scale(0.1 -0.1)">
       <defs>
        <path id="DejaVuSans-35" d="M 691 4666 
L 3169 4666 
L 3169 4134 
L 1269 4134 
L 1269 2991 
Q 1406 3038 1543 3061 
Q 1681 3084 1819 3084 
Q 2600 3084 3056 2656 
Q 3513 2228 3513 1497 
Q 3513 744 3044 326 
Q 2575 -91 1722 -91 
Q 1428 -91 1123 -41 
Q 819 9 494 109 
L 494 744 
Q 775 591 1075 516 
Q 1375 441 1709 441 
Q 2250 441 2565 725 
Q 2881 1009 2881 1497 
Q 2881 1984 2565 2268 
Q 2250 2553 1709 2553 
Q 1456 2553 1204 2497 
Q 953 2441 691 2322 
L 691 4666 
z
" transform="scale(0.015625)"/>
       </defs>
       <use xlink:href="#DejaVuSans-32"/>
       <use xlink:href="#DejaVuSans-30" x="63.623047"/>
       <use xlink:href="#DejaVuSans-31" x="127.246094"/>
       <use xlink:href="#DejaVuSans-34" x="190.869141"/>
       <use xlink:href="#DejaVuSans-2d" x="254.492188"/>
       <use xlink:href="#DejaVuSans-30" x="290.576172"/>
       <use xlink:href="#DejaVuSans-37" x="354.199219"/>
       <use xlink:href="#DejaVuSans-2d" x="417.822266"/>
       <use xlink:href="#DejaVuSans-30" x="453.90625"/>
       <use xlink:href="#DejaVuSans-35" x="517.529297"/>
      </g>
     </g>
    </g>
    <g id="xtick_6">
     <g id="line2d_6">
      <g>
       <use xlink:href="#m2b18b46b63" x="671.675687" y="342.2" style="stroke: #000000; stroke-width: 0.8"/>
      </g>
     </g>
     <g id="text_6">
      <!-- 2014-07-06 -->
      <g transform="translate(642.617874 356.798437) scale(0.1 -0.1)">
       <defs>
        <path id="DejaVuSans-36" d="M 2113 2584 
Q 1688 2584 1439 2293 
Q 1191 2003 1191 1497 
Q 1191 994 1439 701 
Q 1688 409 2113 409 
Q 2538 409 2786 701 
Q 3034 994 3034 1497 
Q 3034 2003 2786 2293 
Q 2538 2584 2113 2584 
z
M 3366 4563 
L 3366 3988 
Q 3128 4100 2886 4159 
Q 2644 4219 2406 4219 
Q 1781 4219 1451 3797 
Q 1122 3375 1075 2522 
Q 1259 2794 1537 2939 
Q 1816 3084 2150 3084 
Q 2853 3084 3261 2657 
Q 3669 2231 3669 1497 
Q 3669 778 3244 343 
Q 2819 -91 2113 -91 
Q 1303 -91 875 529 
Q 447 1150 447 2328 
Q 447 3434 972 4092 
Q 1497 4750 2381 4750 
Q 2619 4750 2861 4703 
Q 3103 4656 3366 4563 
z
" transform="scale(0.015625)"/>
       </defs>
       <use xlink:href="#DejaVuSans-32"/>
       <use xlink:href="#DejaVuSans-30" x="63.623047"/>
       <use xlink:href="#DejaVuSans-31" x="127.246094"/>
       <use xlink:href="#DejaVuSans-34" x="190.869141"/>
       <use xlink:href="#DejaVuSans-2d" x="254.492188"/>
       <use xlink:href="#DejaVuSans-30" x="290.576172"/>
       <use xlink:href="#DejaVuSans-37" x="354.199219"/>
       <use xlink:href="#DejaVuSans-2d" x="417.822266"/>
       <use xlink:href="#DejaVuSans-30" x="453.90625"/>
       <use xlink:href="#DejaVuSans-36" x="517.529297"/>
      </g>
     </g>
    </g>
   </g>
   <g id="matplotlib.axis_2">
    <g id="ytick_1">
     <g id="line2d_7">
      <defs>
       <path id="mfb2b2e465d" d="M 0 0 
L -3.5 0 
" style="stroke: #000000; stroke-width: 0.8"/>
      </defs>
      <g>
       <use xlink:href="#mfb2b2e465d" x="30.103125" y="328.616566" style="stroke: #000000; stroke-width: 0.8"/>
      </g>
     </g>
     <g id="text_7">
      <!-- 0.0 -->
      <g transform="translate(7.2 332.415785) scale(0.1 -0.1)">
       <defs>
        <path id="DejaVuSans-2e" d="M 684 794 
L 1344 794 
L 1344 0 
L 684 0 
L 684 794 
z
" transform="scale(0.015625)"/>
       </defs>
       <use xlink:href="#DejaVuSans-30"/>
       <use xlink:href="#DejaVuSans-2e" x="63.623047"/>
       <use xlink:href="#DejaVuSans-30" x="95.410156"/>
      </g>
     </g>
    </g>
    <g id="ytick_2">
     <g id="line2d_8">
      <g>
       <use xlink:href="#mfb2b2e465d" x="30.103125" y="293.857532" style="stroke: #000000; stroke-width: 0.8"/>
      </g>
     </g>
     <g id="text_8">
      <!-- 0.5 -->
      <g transform="translate(7.2 297.65675) scale(0.1 -0.1)">
       <use xlink:href="#DejaVuSans-30"/>
       <use xlink:href="#DejaVuSans-2e" x="63.623047"/>
       <use xlink:href="#DejaVuSans-35" x="95.410156"/>
      </g>
     </g>
    </g>
    <g id="ytick_3">
     <g id="line2d_9">
      <g>
       <use xlink:href="#mfb2b2e465d" x="30.103125" y="259.098497" style="stroke: #000000; stroke-width: 0.8"/>
      </g>
     </g>
     <g id="text_9">
      <!-- 1.0 -->
      <g transform="translate(7.2 262.897715) scale(0.1 -0.1)">
       <use xlink:href="#DejaVuSans-31"/>
       <use xlink:href="#DejaVuSans-2e" x="63.623047"/>
       <use xlink:href="#DejaVuSans-30" x="95.410156"/>
      </g>
     </g>
    </g>
    <g id="ytick_4">
     <g id="line2d_10">
      <g>
       <use xlink:href="#mfb2b2e465d" x="30.103125" y="224.339462" style="stroke: #000000; stroke-width: 0.8"/>
      </g>
     </g>
     <g id="text_10">
      <!-- 1.5 -->
      <g transform="translate(7.2 228.138681) scale(0.1 -0.1)">
       <use xlink:href="#DejaVuSans-31"/>
       <use xlink:href="#DejaVuSans-2e" x="63.623047"/>
       <use xlink:href="#DejaVuSans-35" x="95.410156"/>
      </g>
     </g>
    </g>
    <g id="ytick_5">
     <g id="line2d_11">
      <g>
       <use xlink:href="#mfb2b2e465d" x="30.103125" y="189.580427" style="stroke: #000000; stroke-width: 0.8"/>
      </g>
     </g>
     <g id="text_11">
      <!-- 2.0 -->
      <g transform="translate(7.2 193.379646) scale(0.1 -0.1)">
       <use xlink:href="#DejaVuSans-32"/>
       <use xlink:href="#DejaVuSans-2e" x="63.623047"/>
       <use xlink:href="#DejaVuSans-30" x="95.410156"/>
      </g>
     </g>
    </g>
    <g id="ytick_6">
     <g id="line2d_12">
      <g>
       <use xlink:href="#mfb2b2e465d" x="30.103125" y="154.821392" style="stroke: #000000; stroke-width: 0.8"/>
      </g>
     </g>
     <g id="text_12">
      <!-- 2.5 -->
      <g transform="translate(7.2 158.620611) scale(0.1 -0.1)">
       <use xlink:href="#DejaVuSans-32"/>
       <use xlink:href="#DejaVuSans-2e" x="63.623047"/>
       <use xlink:href="#DejaVuSans-35" x="95.410156"/>
      </g>
     </g>
    </g>
    <g id="ytick_7">
     <g id="line2d_13">
      <g>
       <use xlink:href="#mfb2b2e465d" x="30.103125" y="120.062357" style="stroke: #000000; stroke-width: 0.8"/>
      </g>
     </g>
     <g id="text_13">
      <!-- 3.0 -->
      <g transform="translate(7.2 123.861576) scale(0.1 -0.1)">
       <use xlink:href="#DejaVuSans-33"/>
       <use xlink:href="#DejaVuSans-2e" x="63.623047"/>
       <use xlink:href="#DejaVuSans-30" x="95.410156"/>
      </g>
     </g>
    </g>
    <g id="ytick_8">
     <g id="line2d_14">
      <g>
       <use xlink:href="#mfb2b2e465d" x="30.103125" y="85.303323" style="stroke: #000000; stroke-width: 0.8"/>
      </g>
     </g>
     <g id="text_14">
      <!-- 3.5 -->
      <g transform="translate(7.2 89.102541) scale(0.1 -0.1)">
       <use xlink:href="#DejaVuSans-33"/>
       <use xlink:href="#DejaVuSans-2e" x="63.623047"/>
       <use xlink:href="#DejaVuSans-35" x="95.410156"/>
      </g>
     </g>
    </g>
    <g id="ytick_9">
     <g id="line2d_15">
      <g>
       <use xlink:href="#mfb2b2e465d" x="30.103125" y="50.544288" style="stroke: #000000; stroke-width: 0.8"/>
      </g>
     </g>
     <g id="text_15">
      <!-- 4.0 -->
      <g transform="translate(7.2 54.343507) scale(0.1 -0.1)">
       <use xlink:href="#DejaVuSans-34"/>
       <use xlink:href="#DejaVuSans-2e" x="63.623047"/>
       <use xlink:href="#DejaVuSans-30" x="95.410156"/>
      </g>
     </g>
    </g>
   </g>
   <g id="line2d_16">
    <path d="M 60.654199 328.616566 
L 73.981564 328.521227 
L 75.424655 328.203886 
L 76.103756 328.254302 
L 77.292184 328.215324 
L 78.820162 327.965393 
L 79.2446 327.725021 
L 79.584151 327.303346 
L 80.008589 326.410109 
L 80.517915 324.686759 
L 81.197017 321.44328 
L 81.876118 316.779127 
L 83.913422 300.94381 
L 84.592524 297.10698 
L 85.271625 294.55757 
L 85.780951 293.446093 
L 86.629828 292.377417 
L 86.969379 292.162028 
L 88.072919 291.820082 
L 88.497357 292.178802 
L 88.921795 292.756113 
L 89.431121 293.577586 
L 89.516009 293.517214 
L 89.685784 292.819179 
L 90.279998 289.787994 
L 90.619549 289.060747 
L 90.789324 289.055373 
L 91.043987 289.422989 
L 91.468426 290.839263 
L 92.062639 293.872496 
L 93.081291 298.99526 
L 93.166179 298.986281 
L 93.335954 297.919739 
L 93.590617 294.529938 
L 93.760393 283.537275 
L 93.84528 289.081146 
L 93.930168 286.476143 
L 94.354607 246.4186 
L 94.439494 248.216185 
L 94.779045 233.273279 
L 94.94882 220.783673 
L 95.033708 224.172922 
L 95.288371 212.50041 
L 95.373259 210.874254 
L 95.543034 199.392621 
L 96.646574 130.061643 
L 96.731461 131.408396 
L 96.816349 130.383584 
L 96.986124 123.043992 
L 97.071012 122.471993 
L 97.240787 116.99311 
L 97.325675 111.822544 
L 97.410563 115.918824 
L 97.580338 112.098292 
L 97.665226 113.026144 
L 97.750114 112.78187 
L 97.919889 107.490725 
L 98.004777 112.18075 
L 98.089664 108.395024 
L 98.174552 110.89935 
L 98.25944 109.680651 
L 98.344327 111.239142 
L 98.514103 107.224491 
L 98.59899 111.975144 
L 98.683878 108.174734 
L 98.768766 110.799622 
L 98.853653 109.611154 
L 98.938541 110.955073 
L 99.108316 107.43888 
L 99.193204 111.247479 
L 99.278092 107.993377 
L 99.362979 110.318152 
L 99.447867 108.967421 
L 99.532755 110.078552 
L 99.70253 106.695983 
L 99.787418 109.735247 
L 99.872305 107.114089 
L 99.957193 108.781158 
L 100.042081 107.253529 
L 100.126968 108.412593 
L 100.211856 107.847754 
L 100.381631 105.130116 
L 100.466519 107.927825 
L 100.551407 105.510747 
L 100.636294 106.892423 
L 100.721182 105.744596 
L 100.80607 106.524156 
L 100.975845 104.49361 
L 101.060733 106.218972 
L 101.145621 104.786297 
L 101.230508 105.891826 
L 101.315396 105.029427 
L 101.400284 106.155177 
L 101.485171 104.369484 
L 101.570059 104.423666 
L 101.739834 108.415394 
L 101.824722 103.18289 
L 101.90961 109.51731 
L 101.994497 108.988504 
L 102.079385 107.846147 
L 102.588711 111.098558 
L 102.673599 110.98862 
L 102.758486 110.559674 
L 102.928262 112.039271 
L 103.013149 111.841969 
L 103.267812 113.536867 
L 103.3527 113.348731 
L 103.437588 112.593602 
L 103.607363 114.063668 
L 103.692251 113.632634 
L 103.862026 115.326438 
L 103.946914 114.961719 
L 104.031802 113.258119 
L 104.201577 115.74892 
L 104.286465 114.768627 
L 104.45624 116.696892 
L 104.541128 115.808952 
L 104.626015 112.448973 
L 104.795791 115.623551 
L 104.880678 114.285135 
L 105.050454 116.369598 
L 105.220229 106.775822 
L 105.305117 112.600778 
L 105.390004 109.307594 
L 105.474892 110.709275 
L 105.55978 109.192634 
L 105.644667 109.960675 
L 105.814443 95.033639 
L 105.89933 107.184248 
L 105.984218 95.234786 
L 106.069106 103.115233 
L 106.153993 94.580975 
L 106.238881 97.232879 
L 106.493544 91.296095 
L 106.578432 92.456419 
L 106.833095 85.668125 
L 106.917982 84.932288 
L 107.00287 78.830605 
L 107.087758 81.370499 
L 107.172646 75.930069 
L 107.257533 78.161596 
L 107.342421 74.202072 
L 107.427309 75.890953 
L 107.512196 72.382385 
L 107.681972 75.304733 
L 107.851747 77.81549 
L 107.936635 77.960897 
L 108.530848 92.90827 
L 109.294837 110.299688 
L 109.889051 120.240383 
L 110.822816 130.946533 
L 111.586805 138.150215 
L 112.690344 146.595916 
L 114.472986 159.180177 
L 114.642761 159.917026 
L 115.067199 162.886561 
L 115.491638 165.484897 
L 116.255627 170.184369 
L 116.340514 170.42604 
L 116.680065 172.554889 
L 116.764953 172.585469 
L 117.104504 174.728605 
L 117.189391 174.913857 
L 117.783605 178.067203 
L 117.868493 178.191179 
L 119.396471 185.07055 
L 119.651134 186.011462 
L 119.990684 187.474053 
L 120.075572 187.586212 
L 120.924449 190.27085 
L 121.094224 190.601791 
L 121.348887 191.214157 
L 121.433775 191.201552 
L 121.518663 191.669183 
L 121.60355 191.631318 
L 121.688438 191.599562 
L 121.773326 191.30206 
L 122.027989 191.595136 
L 122.197764 191.471707 
L 122.452427 191.940298 
L 122.622202 192.230972 
L 122.791978 192.684878 
L 122.876865 192.672779 
L 123.046641 192.499204 
L 123.131528 192.707486 
L 123.216416 192.624025 
L 123.386192 192.478569 
L 123.471079 192.678191 
L 123.555967 192.422373 
L 123.725742 192.596611 
L 123.895518 192.583982 
L 123.980405 192.4685 
L 124.065293 192.662511 
L 124.150181 192.165834 
L 124.319956 192.594299 
L 124.404844 192.241024 
L 124.489731 192.355877 
L 124.744394 192.610998 
L 124.91417 192.635188 
L 124.999057 192.862846 
L 125.083945 192.623959 
L 125.168833 192.711024 
L 125.25372 192.670641 
L 125.423496 192.811963 
L 125.593271 192.794551 
L 125.678159 192.839169 
L 125.763046 193.082432 
L 125.847934 192.821493 
L 126.017709 193.29872 
L 126.187485 193.365978 
L 126.272372 193.549971 
L 126.442148 193.280256 
L 126.527035 193.38673 
L 126.611923 193.464124 
L 126.696811 193.714107 
L 126.781699 193.446091 
L 126.866586 193.775855 
L 126.951474 193.525673 
L 127.206137 193.981543 
L 127.291025 193.757623 
L 127.375912 194.098459 
L 127.545688 193.846503 
L 127.630575 194.031192 
L 127.715463 193.972842 
L 128.309677 194.417135 
L 128.394564 194.240676 
L 128.479452 194.404323 
L 128.56434 194.332059 
L 128.649227 194.320937 
L 128.734115 194.458281 
L 128.819003 194.323407 
L 128.90389 194.410539 
L 128.988778 194.760316 
L 129.073666 194.341954 
L 129.158553 194.465599 
L 129.243441 194.529907 
L 129.328329 194.786032 
L 129.413216 194.737684 
L 129.582992 194.490667 
L 129.667879 194.735778 
L 129.752767 194.680884 
L 129.922543 195.003695 
L 130.00743 194.889008 
L 130.177206 195.174552 
L 130.262093 194.926931 
L 130.516756 195.387657 
L 130.856307 195.213867 
L 131.026082 195.21835 
L 131.195858 195.665303 
L 131.280745 195.593346 
L 131.450521 195.847986 
L 131.705184 195.437579 
L 131.790071 195.984129 
L 131.874959 195.880481 
L 131.959847 196.069561 
L 132.129622 195.772374 
L 132.21451 196.073771 
L 132.299397 195.992963 
L 132.55406 196.366243 
L 132.638948 196.100995 
L 132.723836 196.428927 
L 132.808723 196.319114 
L 132.893611 196.261833 
L 133.148274 196.935002 
L 133.233162 196.530918 
L 133.572713 197.007117 
L 133.742488 196.837105 
L 133.827376 196.872185 
L 133.912263 197.325495 
L 133.997151 197.262006 
L 134.082039 196.86621 
L 134.166926 197.575884 
L 134.336702 197.135718 
L 134.506477 197.379353 
L 134.591365 197.192875 
L 134.930915 197.815218 
L 135.015803 197.788724 
L 135.100691 197.633058 
L 135.185578 197.827119 
L 135.270466 197.63348 
L 135.694904 198.29136 
L 135.779792 198.039628 
L 135.86468 198.109083 
L 135.949567 198.143673 
L 136.034455 198.347083 
L 136.119343 198.162908 
L 136.289118 198.473686 
L 136.458894 198.331975 
L 136.543781 198.54029 
L 136.628669 198.40235 
L 136.713557 198.547865 
L 136.798444 198.294749 
L 136.96822 198.666057 
L 137.053107 198.550666 
L 137.137995 198.636389 
L 137.222883 198.364552 
L 137.477546 198.951468 
L 137.647321 198.687347 
L 137.732209 198.951294 
L 137.817096 198.817605 
L 137.901984 199.067224 
L 138.071759 198.6568 
L 138.156647 198.937852 
L 138.241535 198.701311 
L 138.496198 199.107748 
L 138.581085 198.909253 
L 138.665973 198.992937 
L 138.920636 199.227125 
L 139.005524 199.165866 
L 139.345074 199.478476 
L 139.51485 199.578163 
L 139.599738 199.732122 
L 139.769513 199.542901 
L 139.939288 199.966576 
L 140.024176 199.746302 
L 140.109064 200.259429 
L 140.193951 200.171435 
L 140.533502 200.444987 
L 140.703277 201.06753 
L 140.788165 200.994652 
L 140.873053 201.10314 
L 140.95794 201.460459 
L 141.127716 201.306392 
L 141.297491 202.143167 
L 141.382379 201.719592 
L 141.637042 202.608328 
L 142.570806 204.89247 
L 142.655694 205.311745 
L 142.740582 205.098407 
L 143.16502 206.494593 
L 143.249908 206.319112 
L 143.504571 207.337153 
L 143.589458 207.354258 
L 143.759234 206.948922 
L 143.929009 207.60647 
L 144.098784 208.89126 
L 144.353447 209.359561 
L 144.60811 210.343111 
L 144.692998 210.079122 
L 145.287212 211.982244 
L 145.626762 212.479965 
L 146.051201 213.853585 
L 146.390752 214.782837 
L 146.475639 214.64885 
L 146.645415 215.330961 
L 146.900078 215.36817 
L 146.984965 215.873234 
L 147.069853 215.75723 
L 147.324516 216.533798 
L 147.409404 216.386419 
L 147.664067 217.230951 
L 147.833842 217.43286 
L 147.91873 217.158065 
L 148.088505 217.695133 
L 148.173393 217.574563 
L 148.343168 218.03543 
L 148.428056 217.78824 
L 148.597831 218.300124 
L 148.682719 218.244376 
L 148.937382 218.7594 
L 149.022269 218.581267 
L 149.107157 219.154708 
L 149.192045 219.127269 
L 149.276933 219.154111 
L 149.36182 219.048491 
L 149.446708 219.179031 
L 149.616483 219.787436 
L 149.786259 219.814734 
L 149.956034 220.241185 
L 150.040922 220.081905 
L 150.125809 220.478265 
L 150.210697 220.152578 
L 150.380472 220.88491 
L 150.46536 220.73429 
L 150.550248 220.820303 
L 150.635135 221.199873 
L 150.720023 220.929892 
L 150.804911 221.25374 
L 150.889798 221.154534 
L 151.059574 221.547778 
L 151.144461 221.198696 
L 151.484012 221.905462 
L 151.5689 221.767902 
L 151.653787 221.845297 
L 151.993338 222.595023 
L 152.417776 222.924489 
L 152.757327 223.788347 
L 152.927103 223.862525 
L 153.181766 224.73104 
L 153.266653 224.6275 
L 153.436429 224.939107 
L 153.521316 224.797562 
L 153.860867 225.657997 
L 154.030642 225.820302 
L 154.11553 225.650522 
L 154.285305 226.14153 
L 154.539968 226.168861 
L 154.794631 226.94843 
L 154.879519 226.844227 
L 154.964407 227.143287 
L 155.049294 226.935203 
L 155.388845 227.527531 
L 156.067947 228.875229 
L 156.152834 228.717556 
L 157.171486 230.074577 
L 157.256374 229.907432 
L 157.341262 230.571378 
L 157.426149 230.3204 
L 157.511037 230.384137 
L 157.7657 230.755578 
L 157.935475 231.222346 
L 158.190138 231.432998 
L 158.275026 232.095858 
L 158.444801 231.778724 
L 158.529689 231.824079 
L 158.86924 232.915769 
L 158.954128 232.645051 
L 159.039015 232.763608 
L 159.123903 232.534193 
L 159.293678 233.106101 
L 159.548341 233.270287 
L 159.887892 234.021696 
L 160.227443 234.593794 
L 160.651881 235.318966 
L 160.736769 235.269466 
L 160.906544 235.916207 
L 160.991432 235.671138 
L 161.076319 235.954478 
L 161.161207 235.848385 
L 161.500758 236.925315 
L 161.585645 236.934124 
L 161.670533 236.794361 
L 162.010084 237.964215 
L 162.094971 237.84691 
L 163.283399 240.706408 
L 163.368287 240.735778 
L 163.707837 241.408234 
L 163.792725 241.535948 
L 164.047388 242.402922 
L 164.386939 243.404016 
L 164.471826 243.685457 
L 164.556714 243.644303 
L 164.641602 243.791111 
L 164.896265 244.639198 
L 164.981152 244.709921 
L 166.848681 250.596402 
L 167.018457 250.70755 
L 167.188232 251.408158 
L 167.358007 251.325584 
L 168.121996 253.424077 
L 168.291772 253.588669 
L 168.546435 254.256203 
L 168.631323 254.305694 
L 169.140649 255.219118 
L 169.225536 255.189764 
L 169.395312 255.683068 
L 169.734862 256.561288 
L 170.92329 258.74034 
L 171.008177 258.789716 
L 171.093065 258.652927 
L 171.26284 257.255167 
L 171.687279 266.151098 
L 171.941942 267.808132 
L 172.536156 269.71551 
L 173.045482 270.761989 
L 173.639695 271.549177 
L 174.318797 271.948434 
L 175.422337 272.146523 
L 182.807564 272.186339 
L 182.97734 275.926314 
L 183.571553 290.505823 
L 183.995992 295.932087 
L 184.505318 299.815433 
L 185.099532 302.66854 
L 185.778633 304.843387 
L 186.542622 306.570651 
L 187.476386 308.044627 
L 188.240376 308.882256 
L 191.805658 311.232265 
L 194.2674 312.53933 
L 196.050042 312.472845 
L 197.57802 312.598193 
L 198.936223 312.341208 
L 199.530436 312.531295 
L 200.294425 313.01738 
L 201.652628 314.196122 
L 204.963248 317.141448 
L 206.915664 318.518122 
L 208.358755 319.160414 
L 208.613418 318.695642 
L 208.783193 318.096971 
L 209.122744 315.588878 
L 209.547182 310.772002 
L 211.499599 283.660029 
L 212.008925 277.660196 
L 212.1787 268.679055 
L 212.433363 255.619472 
L 212.857801 247.650584 
L 213.28224 244.766812 
L 213.367127 244.650129 
L 213.62179 241.97986 
L 213.961341 240.949662 
L 214.131117 240.178737 
L 214.810218 247.189849 
L 215.234656 251.448724 
L 215.319544 251.903558 
L 215.659095 255.457109 
L 215.743982 255.766313 
L 215.82887 255.061951 
L 215.913758 255.256849 
L 215.998645 255.736355 
L 216.592859 263.405723 
L 216.93241 265.552464 
L 217.017297 266.09661 
L 217.102185 266.066975 
L 217.187073 265.952997 
L 217.611511 267.6185 
L 217.781287 267.399826 
L 218.03595 268.154463 
L 218.120837 268.231488 
L 218.205725 268.469169 
L 218.3755 266.534804 
L 218.545276 267.478492 
L 218.715051 266.915244 
L 218.799939 267.03768 
L 218.969714 263.504693 
L 219.139489 264.787958 
L 219.309265 263.401563 
L 219.47904 263.54349 
L 219.648815 256.266785 
L 219.818591 257.701913 
L 220.073254 254.572219 
L 220.243029 244.526227 
L 220.327917 245.015486 
L 220.412805 243.935391 
L 220.667468 236.583791 
L 220.752355 221.362899 
L 220.837243 223.150042 
L 220.922131 238.220554 
L 221.176794 200.752923 
L 221.346569 205.829604 
L 221.68612 196.970985 
L 221.771007 195.349429 
L 222.110558 181.232681 
L 222.365221 174.533889 
L 222.450109 167.795302 
L 222.534996 170.181949 
L 222.704772 162.669884 
L 222.789659 167.249474 
L 222.874547 166.199286 
L 222.959435 163.385848 
L 223.044322 164.188497 
L 223.214098 166.961676 
L 223.298985 166.538929 
L 223.383873 167.385649 
L 223.638536 171.08353 
L 223.893199 174.480851 
L 225.166514 192.191301 
L 226.015391 199.470073 
L 226.609605 201.50666 
L 226.77938 201.777204 
L 227.458482 203.705835 
L 227.543369 203.598374 
L 227.798032 204.557237 
L 227.88292 204.767085 
L 228.052695 205.423871 
L 228.307358 206.186575 
L 228.646909 207.79493 
L 230.599326 219.24082 
L 230.769101 223.29288 
L 231.363315 242.890856 
L 231.617978 248.730721 
L 232.042416 256.450869 
L 233.061068 267.011513 
L 233.994833 274.430081 
L 234.07972 274.291557 
L 234.164608 273.493325 
L 234.249496 270.652423 
L 234.334383 272.820098 
L 234.504159 280.380751 
L 234.589046 277.523154 
L 234.843709 280.569997 
L 234.928597 280.676127 
L 235.268148 282.859075 
L 236.796126 290.670689 
L 237.305452 292.732499 
L 238.154329 295.79419 
L 239.682307 299.383101 
L 239.852082 299.59662 
L 240.106745 300.018078 
L 240.191633 300.200171 
L 240.361408 299.883239 
L 240.446296 299.961125 
L 240.616071 300.243956 
L 240.700959 300.189366 
L 240.870734 300.637265 
L 240.955622 300.493469 
L 241.125397 300.08623 
L 241.295173 300.364618 
L 241.38006 300.202085 
L 241.464948 300.291746 
L 241.719611 299.949332 
L 241.804499 300.11 
L 241.974274 299.971542 
L 242.059162 300.025769 
L 242.313825 299.852765 
L 242.398712 299.93046 
L 242.568488 299.73979 
L 242.738263 299.857661 
L 242.908038 299.819208 
L 243.077814 299.915891 
L 243.247589 299.880971 
L 243.417365 299.912539 
L 243.58714 299.891489 
L 243.756915 299.979255 
L 243.841803 299.947592 
L 244.011578 300.094863 
L 244.181354 299.921435 
L 244.351129 300.20096 
L 244.436017 300.146103 
L 244.605792 300.078498 
L 244.775567 300.1081 
L 244.945343 300.256022 
L 245.115118 300.551469 
L 245.284893 300.093231 
L 245.454669 300.627732 
L 245.539556 300.382841 
L 245.963995 301.243788 
L 246.048882 301.882852 
L 246.218658 301.363072 
L 246.388433 302.803644 
L 246.473321 302.127233 
L 246.558209 302.3266 
L 246.727984 303.013068 
L 246.812872 302.497942 
L 246.982647 303.899098 
L 247.067535 303.773296 
L 247.152422 302.983781 
L 247.322198 304.238873 
L 247.491973 303.807007 
L 247.661748 304.764698 
L 247.746636 304.534824 
L 248.001299 305.326923 
L 248.255962 305.407752 
L 249.104839 305.686687 
L 249.699053 305.74323 
L 250.972368 305.632265 
L 251.736357 305.595958 
L 252.585233 305.378647 
L 253.09456 305.487599 
L 253.688773 305.845838 
L 254.792313 306.56266 
L 255.726077 307.206791 
L 256.405179 307.565658 
L 256.999393 307.639323 
L 260.479787 307.484584 
L 261.83799 307.103613 
L 262.601979 307.074708 
L 264.299733 307.483314 
L 265.318385 308.000019 
L 265.997486 308.337041 
L 266.846363 308.437697 
L 268.119678 308.419654 
L 269.053443 308.452819 
L 269.902319 308.40345 
L 270.496533 308.096449 
L 271.854736 307.368532 
L 272.364062 307.502596 
L 272.958276 307.889101 
L 274.316478 308.872574 
L 275.165355 309.167375 
L 275.589794 309.123511 
L 277.202659 308.666082 
L 277.881761 308.932855 
L 279.74929 309.698491 
L 281.107492 309.647295 
L 281.956369 309.676971 
L 283.569235 309.376098 
L 284.078561 309.339023 
L 284.587887 309.516199 
L 285.266989 310.031326 
L 286.200753 311.043197 
L 290.190474 315.570429 
L 292.14289 317.311742 
L 292.991767 317.889891 
L 294.434857 318.430037 
L 299.952556 320.231357 
L 303.942277 320.984132 
L 304.791154 320.854083 
L 305.555143 320.476349 
L 306.234244 319.852221 
L 306.913346 318.814411 
L 307.507559 317.566677 
L 308.271549 315.406182 
L 308.695987 313.846506 
L 309.544864 309.538051 
L 311.412393 298.890951 
L 312.091494 296.346347 
L 312.60082 294.908752 
L 313.195034 293.61429 
L 313.70436 292.791155 
L 314.468349 292.069705 
L 315.14745 291.821768 
L 315.487001 291.762888 
L 316.166102 292.152535 
L 316.760316 292.942103 
L 316.845204 292.85432 
L 317.099867 291.616577 
L 317.778968 288.614063 
L 318.033631 288.373129 
L 318.203407 288.491147 
L 318.542957 289.202284 
L 319.391834 287.111482 
L 319.646497 287.301843 
L 319.90116 287.784949 
L 320.410486 289.824064 
L 321.259363 294.181055 
L 322.193127 298.450896 
L 323.381555 302.62693 
L 324.230432 304.51935 
L 324.400207 304.835618 
L 324.994421 306.217432 
L 325.079308 306.286369 
L 325.588634 307.410308 
L 325.673522 307.445307 
L 325.75841 307.241775 
L 325.928185 308.023468 
L 326.013073 308.03143 
L 326.182848 308.617774 
L 326.267736 308.152481 
L 326.777062 309.857657 
L 326.861949 309.473181 
L 327.116612 310.4767 
L 327.286388 310.816791 
L 329.238804 312.06595 
L 335.944931 316.84703 
L 338.15201 318.248391 
L 341.038191 319.828765 
L 343.330158 320.842744 
L 345.707013 321.682119 
L 348.593194 322.520757 
L 352.498027 323.36266 
L 356.827299 324.088544 
L 361.750784 324.690533 
L 369.220899 325.337817 
L 378.218993 325.888033 
L 386.283322 326.18372 
L 404.194622 326.590445 
L 436.367051 327.031903 
L 483.394823 327.441011 
L 546.466366 327.781237 
L 642.304551 328.080019 
L 671.675687 328.142668 
L 671.675687 328.142668 
" clip-path="url(#p0e452d62ae)" style="fill: none; stroke: #1f77b4; stroke-width: 1.5; stroke-linecap: square"/>
   </g>
   <g id="line2d_17">
    <path d="M 60.654199 328.616566 
L 61.842627 328.507424 
L 62.691504 328.020277 
L 63.625268 327.274582 
L 67.19055 324.2393 
L 68.463866 323.095556 
L 69.058079 322.834294 
L 69.737181 322.786754 
L 70.755833 322.965538 
L 73.811789 323.610388 
L 74.575778 323.169648 
L 75.339767 322.25916 
L 75.849093 321.388692 
L 76.952633 319.084276 
L 78.565499 313.848097 
L 79.414376 310.483751 
L 81.197017 301.710522 
L 85.696064 266.774107 
L 88.157806 250.23901 
L 88.836908 247.420432 
L 89.516009 245.63766 
L 89.600897 245.591836 
L 89.685784 245.09755 
L 90.619549 233.577672 
L 90.9591 232.31215 
L 91.213763 232.114402 
L 91.383538 232.270839 
L 91.723089 233.075014 
L 92.317302 235.362129 
L 93.251067 239.89877 
L 93.335954 239.534276 
L 93.84528 228.098338 
L 94.184831 215.909184 
L 95.627922 168.083539 
L 96.476798 144.321796 
L 97.071012 130.391591 
L 97.495451 121.920072 
L 97.835001 116.703915 
L 98.514103 107.206538 
L 99.193204 99.571822 
L 100.211856 91.73566 
L 100.551407 90.118778 
L 100.721182 89.911537 
L 101.060733 88.622993 
L 101.485171 87.883258 
L 101.739834 87.498548 
L 101.90961 87.601692 
L 102.164273 87.178193 
L 102.334048 87.206 
L 102.503823 87.493802 
L 102.758486 87.414678 
L 102.928262 87.644992 
L 103.182925 88.16098 
L 103.3527 88.345177 
L 103.607363 89.109583 
L 103.862026 89.83539 
L 104.116689 89.929442 
L 104.371352 90.354057 
L 104.795791 89.262628 
L 104.880678 89.300764 
L 104.965566 89.083348 
L 105.729555 82.652785 
L 106.238881 74.588821 
L 106.748207 61.88935 
L 107.087758 57.870125 
L 107.342421 57.02 
L 107.512196 57.067638 
L 107.681972 57.475678 
L 107.936635 58.831522 
L 108.530848 63.352036 
L 110.143714 79.064516 
L 111.247254 91.36351 
L 114.048547 122.960008 
L 115.916076 141.458183 
L 117.698717 157.287257 
L 119.566246 172.084526 
L 121.179112 183.434735 
L 122.197764 189.538655 
L 122.70709 189.887096 
L 122.961753 190.395343 
L 123.386192 191.932724 
L 124.065293 195.202869 
L 127.545688 212.499723 
L 130.092318 222.327216 
L 132.638948 229.735195 
L 134.930915 234.464115 
L 135.440241 235.208045 
L 135.779792 235.571451 
L 136.883332 236.673479 
L 137.137995 236.858669 
L 137.562433 237.291828 
L 137.817096 237.468189 
L 138.071759 237.65366 
L 138.41131 237.724675 
L 138.581085 237.864629 
L 139.005524 237.778783 
L 139.599738 238.312063 
L 140.193951 239.640616 
L 140.95794 242.228873 
L 142.655694 249.110175 
L 145.202324 259.242846 
L 147.324516 266.776841 
L 147.91873 268.461266 
L 148.428056 269.116779 
L 149.36182 269.027518 
L 150.125809 269.498866 
L 150.550248 270.187777 
L 151.484012 271.920158 
L 153.775979 274.762658 
L 154.030642 275.027068 
L 154.539968 275.320206 
L 154.964407 275.264832 
L 155.21907 275.166819 
L 155.55862 275.139744 
L 157.086599 276.131134 
L 157.680812 276.734757 
L 158.020363 276.774786 
L 158.359914 277.048406 
L 159.378566 278.211384 
L 160.31233 277.605628 
L 160.906544 277.572176 
L 161.755421 277.706785 
L 162.264747 278.246018 
L 163.877613 280.56525 
L 164.471826 280.659987 
L 164.981152 280.895131 
L 165.490479 280.600249 
L 165.830029 280.650299 
L 166.254468 281.067767 
L 167.358007 282.450632 
L 167.867333 282.067224 
L 168.206884 281.781609 
L 169.140649 281.059789 
L 169.649975 280.273445 
L 169.904638 280.208574 
L 170.159301 280.360725 
L 170.498851 280.590305 
L 170.838402 280.800545 
L 171.347728 281.450581 
L 171.772166 281.937493 
L 172.36638 282.072083 
L 172.705931 282.012956 
L 173.130369 282.192922 
L 173.639695 282.789998 
L 174.318797 283.654153 
L 175.252561 284.196225 
L 175.931663 283.812508 
L 176.271213 284.039556 
L 176.525876 284.177433 
L 176.950315 284.084806 
L 177.12009 284.101243 
L 178.138742 283.155242 
L 178.478293 283.154226 
L 178.817844 283.428663 
L 179.496945 283.895078 
L 180.006271 284.434148 
L 181.364474 286.283279 
L 182.043575 285.966504 
L 182.468014 285.669385 
L 182.637789 285.485323 
L 183.062227 284.98535 
L 183.571553 284.904328 
L 184.080879 285.006309 
L 184.505318 284.96554 
L 185.693745 283.442451 
L 186.033296 283.129375 
L 186.457734 282.910116 
L 186.797285 282.674968 
L 187.306611 282.569758 
L 187.561274 282.615691 
L 188.240376 282.425009 
L 188.664814 282.002563 
L 188.919477 281.951517 
L 189.259028 282.170028 
L 189.683466 282.364707 
L 190.192792 282.567216 
L 191.041669 282.870975 
L 191.466107 283.350936 
L 191.805658 283.748147 
L 192.314984 283.909344 
L 192.909198 284.454937 
L 193.758074 285.460998 
L 194.2674 285.053825 
L 194.776727 284.187332 
L 195.03139 284.065167 
L 195.286053 284.156285 
L 196.134929 284.749899 
L 197.068694 285.19963 
L 197.238469 285.275867 
L 198.257121 284.118269 
L 198.511784 284.140109 
L 198.851335 284.447266 
L 199.360661 285.274944 
L 200.633976 287.941075 
L 203.265494 293.305963 
L 205.472574 297.28345 
L 207.679653 300.81453 
L 208.188979 301.684089 
L 208.273867 301.426312 
L 208.783193 295.250913 
L 209.122744 288.887923 
L 210.650722 261.515104 
L 212.433363 239.20989 
L 213.62179 229.304358 
L 213.876453 228.011423 
L 214.300892 225.887399 
L 215.82887 220.210393 
L 216.338196 219.211057 
L 216.592859 218.829236 
L 217.781287 218.523204 
L 218.630163 218.995985 
L 219.309265 216.809131 
L 219.733703 214.024027 
L 219.903478 213.150669 
L 220.58258 204.041316 
L 221.176794 189.193547 
L 221.771007 167.71335 
L 222.110558 161.685186 
L 222.450109 159.177274 
L 222.619884 158.785088 
L 222.789659 158.851011 
L 223.12921 159.805976 
L 223.553648 161.920125 
L 224.402525 167.178348 
L 225.930503 177.940102 
L 229.071347 201.280602 
L 231.108652 214.580936 
L 233.230843 226.963398 
L 234.419271 232.794843 
L 235.18326 235.674703 
L 236.711238 240.334783 
L 237.72989 243.736423 
L 238.918318 246.695703 
L 239.512531 247.473655 
L 239.93697 248.22653 
L 240.616071 249.396439 
L 241.125397 249.667519 
L 241.295173 249.853532 
L 241.719611 249.809179 
L 241.889386 249.890564 
L 242.313825 249.744611 
L 242.568488 249.813508 
L 242.823151 249.861425 
L 243.247589 250.314771 
L 243.672028 251.108479 
L 244.266241 252.569673 
L 244.945343 254.118368 
L 245.624444 254.804413 
L 245.963995 254.794582 
L 246.303546 254.900492 
L 246.558209 255.048541 
L 246.897759 255.560597 
L 247.746636 257.18113 
L 248.935063 258.766625 
L 249.274614 259.359086 
L 249.868828 259.469777 
L 250.208379 259.28195 
L 250.463042 259.410166 
L 250.802592 259.88629 
L 251.227031 260.488067 
L 251.736357 260.702371 
L 252.160795 260.407405 
L 252.500346 260.527509 
L 252.839897 261.003982 
L 253.349223 262.117248 
L 254.282987 264.358721 
L 254.707425 264.761322 
L 255.131864 265.493994 
L 256.065628 267.411421 
L 256.74473 267.710127 
L 257.08428 267.634496 
L 257.678494 267.803014 
L 259.461135 269.37559 
L 259.630911 269.601454 
L 260.3949 269.312183 
L 260.73445 269.176489 
L 261.328664 269.266699 
L 261.583327 269.303407 
L 261.922878 269.431608 
L 262.686867 270.007756 
L 263.111305 270.66503 
L 263.365968 270.964668 
L 263.875294 271.050979 
L 264.214845 271.337869 
L 265.233497 272.86924 
L 265.827711 273.807941 
L 266.846363 273.542855 
L 267.355689 273.773797 
L 267.525464 273.913128 
L 268.119678 273.651806 
L 268.374341 273.710359 
L 269.392993 274.344278 
L 269.817432 274.210085 
L 269.987207 274.205952 
L 271.34541 272.245488 
L 271.600073 272.359112 
L 272.194287 273.081464 
L 272.7885 274.171704 
L 273.637377 275.758168 
L 274.316478 275.909595 
L 274.656029 275.964738 
L 274.910692 276.119252 
L 275.674681 275.275596 
L 276.184007 274.509262 
L 276.523558 274.117462 
L 276.778221 274.112338 
L 277.117772 274.431459 
L 278.136424 275.796239 
L 278.560862 276.017139 
L 278.900413 276.462482 
L 279.239964 276.825323 
L 279.834177 276.412952 
L 280.258616 275.788195 
L 280.513279 275.697143 
L 280.767942 275.8315 
L 281.277268 276.187426 
L 281.701706 276.272388 
L 282.126145 275.914621 
L 282.550583 275.843254 
L 282.805246 275.948697 
L 283.569235 275.186066 
L 283.823898 275.128172 
L 284.078561 275.287063 
L 284.502999 275.927612 
L 285.266989 277.68095 
L 289.171822 287.28824 
L 291.294013 291.774867 
L 292.567329 294.175854 
L 292.821992 293.955651 
L 293.24643 293.630402 
L 293.585981 293.695963 
L 294.010419 294.092223 
L 294.774408 295.227896 
L 298.169915 300.637304 
L 298.933904 300.820541 
L 299.44323 301.282875 
L 300.54677 302.69433 
L 301.904973 304.385721 
L 302.668962 304.941799 
L 303.178288 305.055021 
L 303.772502 304.884663 
L 304.536491 304.19204 
L 304.960929 303.615369 
L 306.40402 300.804573 
L 306.913346 299.383135 
L 308.016886 295.619483 
L 308.865762 291.664439 
L 309.375088 288.09307 
L 312.091494 267.653975 
L 312.855483 262.203169 
L 313.70436 256.114929 
L 315.656776 244.564479 
L 315.996327 243.066269 
L 316.420765 241.655277 
L 316.760316 240.710317 
L 317.014979 240.033001 
L 317.948744 228.83506 
L 318.288294 227.65922 
L 318.542957 227.505731 
L 318.712733 227.682881 
L 319.052283 228.533054 
L 319.646497 230.876927 
L 322.44779 242.527425 
L 324.060656 248.233212 
L 325.673522 253.275689 
L 327.625939 258.943365 
L 332.719199 275.161241 
L 335.60538 282.829149 
L 337.727572 287.799648 
L 339.934651 292.397663 
L 342.141731 296.477715 
L 344.348811 300.09815 
L 346.640778 303.426802 
L 348.932745 306.366935 
L 351.3096 309.05403 
L 353.771343 311.495485 
L 356.317973 313.700962 
L 358.949491 315.681931 
L 361.665896 317.451246 
L 364.552077 319.06674 
L 367.608034 320.52324 
L 370.918653 321.851537 
L 374.483935 323.039277 
L 378.388768 324.102257 
L 382.71804 325.045665 
L 387.556637 325.86876 
L 393.074336 326.578474 
L 399.5258 327.179418 
L 407.335466 327.675028 
L 417.097548 328.061611 
L 430.17025 328.343152 
L 449.779303 328.522015 
L 487.639207 328.604396 
L 671.675687 328.616566 
L 671.675687 328.616566 
" clip-path="url(#p0e452d62ae)" style="fill: none; stroke: #ff7f0e; stroke-width: 1.5; stroke-linecap: square"/>
   </g>
   <g id="patch_3">
    <path d="M 30.103125 342.2 
L 30.103125 43.44 
" style="fill: none; stroke: #000000; stroke-width: 0.8; stroke-linejoin: miter; stroke-linecap: square"/>
   </g>
   <g id="patch_4">
    <path d="M 702.226761 342.2 
L 702.226761 43.44 
" style="fill: none; stroke: #000000; stroke-width: 0.8; stroke-linejoin: miter; stroke-linecap: square"/>
   </g>
   <g id="patch_5">
    <path d="M 30.103125 342.2 
L 702.226761 342.2 
" style="fill: none; stroke: #000000; stroke-width: 0.8; stroke-linejoin: miter; stroke-linecap: square"/>
   </g>
   <g id="patch_6">
    <path d="M 30.103125 43.44 
L 702.226761 43.44 
" style="fill: none; stroke: #000000; stroke-width: 0.8; stroke-linejoin: miter; stroke-linecap: square"/>
   </g>
   <g id="text_16">
    <!-- 1 transformation(s) -->
    <g transform="translate(308.050256 37.44) scale(0.12 -0.12)">
     <defs>
      <path id="DejaVuSans-20" transform="scale(0.015625)"/>
      <path id="DejaVuSans-74" d="M 1172 4494 
L 1172 3500 
L 2356 3500 
L 2356 3053 
L 1172 3053 
L 1172 1153 
Q 1172 725 1289 603 
Q 1406 481 1766 481 
L 2356 481 
L 2356 0 
L 1766 0 
Q 1100 0 847 248 
Q 594 497 594 1153 
L 594 3053 
L 172 3053 
L 172 3500 
L 594 3500 
L 594 4494 
L 1172 4494 
z
" transform="scale(0.015625)"/>
      <path id="DejaVuSans-72" d="M 2631 2963 
Q 2534 3019 2420 3045 
Q 2306 3072 2169 3072 
Q 1681 3072 1420 2755 
Q 1159 2438 1159 1844 
L 1159 0 
L 581 0 
L 581 3500 
L 1159 3500 
L 1159 2956 
Q 1341 3275 1631 3429 
Q 1922 3584 2338 3584 
Q 2397 3584 2469 3576 
Q 2541 3569 2628 3553 
L 2631 2963 
z
" transform="scale(0.015625)"/>
      <path id="DejaVuSans-61" d="M 2194 1759 
Q 1497 1759 1228 1600 
Q 959 1441 959 1056 
Q 959 750 1161 570 
Q 1363 391 1709 391 
Q 2188 391 2477 730 
Q 2766 1069 2766 1631 
L 2766 1759 
L 2194 1759 
z
M 3341 1997 
L 3341 0 
L 2766 0 
L 2766 531 
Q 2569 213 2275 61 
Q 1981 -91 1556 -91 
Q 1019 -91 701 211 
Q 384 513 384 1019 
Q 384 1609 779 1909 
Q 1175 2209 1959 2209 
L 2766 2209 
L 2766 2266 
Q 2766 2663 2505 2880 
Q 2244 3097 1772 3097 
Q 1472 3097 1187 3025 
Q 903 2953 641 2809 
L 641 3341 
Q 956 3463 1253 3523 
Q 1550 3584 1831 3584 
Q 2591 3584 2966 3190 
Q 3341 2797 3341 1997 
z
" transform="scale(0.015625)"/>
      <path id="DejaVuSans-6e" d="M 3513 2113 
L 3513 0 
L 2938 0 
L 2938 2094 
Q 2938 2591 2744 2837 
Q 2550 3084 2163 3084 
Q 1697 3084 1428 2787 
Q 1159 2491 1159 1978 
L 1159 0 
L 581 0 
L 581 3500 
L 1159 3500 
L 1159 2956 
Q 1366 3272 1645 3428 
Q 1925 3584 2291 3584 
Q 2894 3584 3203 3211 
Q 3513 2838 3513 2113 
z
" transform="scale(0.015625)"/>
      <path id="DejaVuSans-73" d="M 2834 3397 
L 2834 2853 
Q 2591 2978 2328 3040 
Q 2066 3103 1784 3103 
Q 1356 3103 1142 2972 
Q 928 2841 928 2578 
Q 928 2378 1081 2264 
Q 1234 2150 1697 2047 
L 1894 2003 
Q 2506 1872 2764 1633 
Q 3022 1394 3022 966 
Q 3022 478 2636 193 
Q 2250 -91 1575 -91 
Q 1294 -91 989 -36 
Q 684 19 347 128 
L 347 722 
Q 666 556 975 473 
Q 1284 391 1588 391 
Q 1994 391 2212 530 
Q 2431 669 2431 922 
Q 2431 1156 2273 1281 
Q 2116 1406 1581 1522 
L 1381 1569 
Q 847 1681 609 1914 
Q 372 2147 372 2553 
Q 372 3047 722 3315 
Q 1072 3584 1716 3584 
Q 2034 3584 2315 3537 
Q 2597 3491 2834 3397 
z
" transform="scale(0.015625)"/>
      <path id="DejaVuSans-66" d="M 2375 4863 
L 2375 4384 
L 1825 4384 
Q 1516 4384 1395 4259 
Q 1275 4134 1275 3809 
L 1275 3500 
L 2222 3500 
L 2222 3053 
L 1275 3053 
L 1275 0 
L 697 0 
L 697 3053 
L 147 3053 
L 147 3500 
L 697 3500 
L 697 3744 
Q 697 4328 969 4595 
Q 1241 4863 1831 4863 
L 2375 4863 
z
" transform="scale(0.015625)"/>
      <path id="DejaVuSans-6f" d="M 1959 3097 
Q 1497 3097 1228 2736 
Q 959 2375 959 1747 
Q 959 1119 1226 758 
Q 1494 397 1959 397 
Q 2419 397 2687 759 
Q 2956 1122 2956 1747 
Q 2956 2369 2687 2733 
Q 2419 3097 1959 3097 
z
M 1959 3584 
Q 2709 3584 3137 3096 
Q 3566 2609 3566 1747 
Q 3566 888 3137 398 
Q 2709 -91 1959 -91 
Q 1206 -91 779 398 
Q 353 888 353 1747 
Q 353 2609 779 3096 
Q 1206 3584 1959 3584 
z
" transform="scale(0.015625)"/>
      <path id="DejaVuSans-6d" d="M 3328 2828 
Q 3544 3216 3844 3400 
Q 4144 3584 4550 3584 
Q 5097 3584 5394 3201 
Q 5691 2819 5691 2113 
L 5691 0 
L 5113 0 
L 5113 2094 
Q 5113 2597 4934 2840 
Q 4756 3084 4391 3084 
Q 3944 3084 3684 2787 
Q 3425 2491 3425 1978 
L 3425 0 
L 2847 0 
L 2847 2094 
Q 2847 2600 2669 2842 
Q 2491 3084 2119 3084 
Q 1678 3084 1418 2786 
Q 1159 2488 1159 1978 
L 1159 0 
L 581 0 
L 581 3500 
L 1159 3500 
L 1159 2956 
Q 1356 3278 1631 3431 
Q 1906 3584 2284 3584 
Q 2666 3584 2933 3390 
Q 3200 3197 3328 2828 
z
" transform="scale(0.015625)"/>
      <path id="DejaVuSans-69" d="M 603 3500 
L 1178 3500 
L 1178 0 
L 603 0 
L 603 3500 
z
M 603 4863 
L 1178 4863 
L 1178 4134 
L 603 4134 
L 603 4863 
z
" transform="scale(0.015625)"/>
      <path id="DejaVuSans-28" d="M 1984 4856 
Q 1566 4138 1362 3434 
Q 1159 2731 1159 2009 
Q 1159 1288 1364 580 
Q 1569 -128 1984 -844 
L 1484 -844 
Q 1016 -109 783 600 
Q 550 1309 550 2009 
Q 550 2706 781 3412 
Q 1013 4119 1484 4856 
L 1984 4856 
z
" transform="scale(0.015625)"/>
      <path id="DejaVuSans-29" d="M 513 4856 
L 1013 4856 
Q 1481 4119 1714 3412 
Q 1947 2706 1947 2009 
Q 1947 1309 1714 600 
Q 1481 -109 1013 -844 
L 513 -844 
Q 928 -128 1133 580 
Q 1338 1288 1338 2009 
Q 1338 2731 1133 3434 
Q 928 4138 513 4856 
z
" transform="scale(0.015625)"/>
     </defs>
     <use xlink:href="#DejaVuSans-31"/>
     <use xlink:href="#DejaVuSans-20" x="63.623047"/>
     <use xlink:href="#DejaVuSans-74" x="95.410156"/>
     <use xlink:href="#DejaVuSans-72" x="134.619141"/>
     <use xlink:href="#DejaVuSans-61" x="175.732422"/>
     <use xlink:href="#DejaVuSans-6e" x="237.011719"/>
     <use xlink:href="#DejaVuSans-73" x="300.390625"/>
     <use xlink:href="#DejaVuSans-66" x="352.490234"/>
     <use xlink:href="#DejaVuSans-6f" x="387.695312"/>
     <use xlink:href="#DejaVuSans-72" x="448.876953"/>
     <use xlink:href="#DejaVuSans-6d" x="488.240234"/>
     <use xlink:href="#DejaVuSans-61" x="585.652344"/>
     <use xlink:href="#DejaVuSans-74" x="646.931641"/>
     <use xlink:href="#DejaVuSans-69" x="686.140625"/>
     <use xlink:href="#DejaVuSans-6f" x="713.923828"/>
     <use xlink:href="#DejaVuSans-6e" x="775.105469"/>
     <use xlink:href="#DejaVuSans-28" x="838.484375"/>
     <use xlink:href="#DejaVuSans-73" x="877.498047"/>
     <use xlink:href="#DejaVuSans-29" x="929.597656"/>
    </g>
   </g>
   <g id="legend_1">
    <g id="patch_7">
     <path d="M 613.833011 80.79625 
L 695.226761 80.79625 
Q 697.226761 80.79625 697.226761 78.79625 
L 697.226761 50.44 
Q 697.226761 48.44 695.226761 48.44 
L 613.833011 48.44 
Q 611.833011 48.44 611.833011 50.44 
L 611.833011 78.79625 
Q 611.833011 80.79625 613.833011 80.79625 
z
" style="fill: #ffffff; opacity: 0.8; stroke: #cccccc; stroke-linejoin: miter"/>
    </g>
    <g id="line2d_18">
     <path d="M 615.833011 56.538437 
L 625.833011 56.538437 
L 635.833011 56.538437 
" style="fill: none; stroke: #1f77b4; stroke-width: 1.5; stroke-linecap: square"/>
    </g>
    <g id="text_17">
     <!-- observed -->
     <g transform="translate(643.833011 60.038437) scale(0.1 -0.1)">
      <defs>
       <path id="DejaVuSans-62" d="M 3116 1747 
Q 3116 2381 2855 2742 
Q 2594 3103 2138 3103 
Q 1681 3103 1420 2742 
Q 1159 2381 1159 1747 
Q 1159 1113 1420 752 
Q 1681 391 2138 391 
Q 2594 391 2855 752 
Q 3116 1113 3116 1747 
z
M 1159 2969 
Q 1341 3281 1617 3432 
Q 1894 3584 2278 3584 
Q 2916 3584 3314 3078 
Q 3713 2572 3713 1747 
Q 3713 922 3314 415 
Q 2916 -91 2278 -91 
Q 1894 -91 1617 61 
Q 1341 213 1159 525 
L 1159 0 
L 581 0 
L 581 4863 
L 1159 4863 
L 1159 2969 
z
" transform="scale(0.015625)"/>
       <path id="DejaVuSans-65" d="M 3597 1894 
L 3597 1613 
L 953 1613 
Q 991 1019 1311 708 
Q 1631 397 2203 397 
Q 2534 397 2845 478 
Q 3156 559 3463 722 
L 3463 178 
Q 3153 47 2828 -22 
Q 2503 -91 2169 -91 
Q 1331 -91 842 396 
Q 353 884 353 1716 
Q 353 2575 817 3079 
Q 1281 3584 2069 3584 
Q 2775 3584 3186 3129 
Q 3597 2675 3597 1894 
z
M 3022 2063 
Q 3016 2534 2758 2815 
Q 2500 3097 2075 3097 
Q 1594 3097 1305 2825 
Q 1016 2553 972 2059 
L 3022 2063 
z
" transform="scale(0.015625)"/>
       <path id="DejaVuSans-76" d="M 191 3500 
L 800 3500 
L 1894 563 
L 2988 3500 
L 3597 3500 
L 2284 0 
L 1503 0 
L 191 3500 
z
" transform="scale(0.015625)"/>
       <path id="DejaVuSans-64" d="M 2906 2969 
L 2906 4863 
L 3481 4863 
L 3481 0 
L 2906 0 
L 2906 525 
Q 2725 213 2448 61 
Q 2172 -91 1784 -91 
Q 1150 -91 751 415 
Q 353 922 353 1747 
Q 353 2572 751 3078 
Q 1150 3584 1784 3584 
Q 2172 3584 2448 3432 
Q 2725 3281 2906 2969 
z
M 947 1747 
Q 947 1113 1208 752 
Q 1469 391 1925 391 
Q 2381 391 2643 752 
Q 2906 1113 2906 1747 
Q 2906 2381 2643 2742 
Q 2381 3103 1925 3103 
Q 1469 3103 1208 2742 
Q 947 2381 947 1747 
z
" transform="scale(0.015625)"/>
      </defs>
      <use xlink:href="#DejaVuSans-6f"/>
      <use xlink:href="#DejaVuSans-62" x="61.181641"/>
      <use xlink:href="#DejaVuSans-73" x="124.658203"/>
      <use xlink:href="#DejaVuSans-65" x="176.757812"/>
      <use xlink:href="#DejaVuSans-72" x="238.28125"/>
      <use xlink:href="#DejaVuSans-76" x="279.394531"/>
      <use xlink:href="#DejaVuSans-65" x="338.574219"/>
      <use xlink:href="#DejaVuSans-64" x="400.097656"/>
     </g>
    </g>
    <g id="line2d_19">
     <path d="M 615.833011 71.216563 
L 625.833011 71.216563 
L 635.833011 71.216563 
" style="fill: none; stroke: #ff7f0e; stroke-width: 1.5; stroke-linecap: square"/>
    </g>
    <g id="text_18">
     <!-- simulated -->
     <g transform="translate(643.833011 74.716563) scale(0.1 -0.1)">
      <defs>
       <path id="DejaVuSans-75" d="M 544 1381 
L 544 3500 
L 1119 3500 
L 1119 1403 
Q 1119 906 1312 657 
Q 1506 409 1894 409 
Q 2359 409 2629 706 
Q 2900 1003 2900 1516 
L 2900 3500 
L 3475 3500 
L 3475 0 
L 2900 0 
L 2900 538 
Q 2691 219 2414 64 
Q 2138 -91 1772 -91 
Q 1169 -91 856 284 
Q 544 659 544 1381 
z
M 1991 3584 
L 1991 3584 
z
" transform="scale(0.015625)"/>
       <path id="DejaVuSans-6c" d="M 603 4863 
L 1178 4863 
L 1178 0 
L 603 0 
L 603 4863 
z
" transform="scale(0.015625)"/>
      </defs>
      <use xlink:href="#DejaVuSans-73"/>
      <use xlink:href="#DejaVuSans-69" x="52.099609"/>
      <use xlink:href="#DejaVuSans-6d" x="79.882812"/>
      <use xlink:href="#DejaVuSans-75" x="177.294922"/>
      <use xlink:href="#DejaVuSans-6c" x="240.673828"/>
      <use xlink:href="#DejaVuSans-61" x="268.457031"/>
      <use xlink:href="#DejaVuSans-74" x="329.736328"/>
      <use xlink:href="#DejaVuSans-65" x="368.945312"/>
      <use xlink:href="#DejaVuSans-64" x="430.46875"/>
     </g>
    </g>
   </g>
  </g>
  <g id="axes_2">
   <g id="patch_8">
    <path d="M 30.103125 684.92 
L 702.226761 684.92 
L 702.226761 386.16 
L 30.103125 386.16 
z
" style="fill: #ffffff"/>
   </g>
   <g id="matplotlib.axis_3">
    <g id="xtick_7">
     <g id="line2d_20">
      <g>
       <use xlink:href="#m2b18b46b63" x="60.484424" y="684.92" style="stroke: #000000; stroke-width: 0.8"/>
      </g>
     </g>
     <g id="text_19">
      <!-- 2014-07-01 -->
      <g transform="translate(31.426612 699.518437) scale(0.1 -0.1)">
       <use xlink:href="#DejaVuSans-32"/>
       <use xlink:href="#DejaVuSans-30" x="63.623047"/>
       <use xlink:href="#DejaVuSans-31" x="127.246094"/>
       <use xlink:href="#DejaVuSans-34" x="190.869141"/>
       <use xlink:href="#DejaVuSans-2d" x="254.492188"/>
       <use xlink:href="#DejaVuSans-30" x="290.576172"/>
       <use xlink:href="#DejaVuSans-37" x="354.199219"/>
       <use xlink:href="#DejaVuSans-2d" x="417.822266"/>
       <use xlink:href="#DejaVuSans-30" x="453.90625"/>
       <use xlink:href="#DejaVuSans-31" x="517.529297"/>
      </g>
     </g>
    </g>
    <g id="xtick_8">
     <g id="line2d_21">
      <g>
       <use xlink:href="#m2b18b46b63" x="182.722677" y="684.92" style="stroke: #000000; stroke-width: 0.8"/>
      </g>
     </g>
     <g id="text_20">
      <!-- 2014-07-02 -->
      <g transform="translate(153.664864 699.518437) scale(0.1 -0.1)">
       <use xlink:href="#DejaVuSans-32"/>
       <use xlink:href="#DejaVuSans-30" x="63.623047"/>
       <use xlink:href="#DejaVuSans-31" x="127.246094"/>
       <use xlink:href="#DejaVuSans-34" x="190.869141"/>
       <use xlink:href="#DejaVuSans-2d" x="254.492188"/>
       <use xlink:href="#DejaVuSans-30" x="290.576172"/>
       <use xlink:href="#DejaVuSans-37" x="354.199219"/>
       <use xlink:href="#DejaVuSans-2d" x="417.822266"/>
       <use xlink:href="#DejaVuSans-30" x="453.90625"/>
       <use xlink:href="#DejaVuSans-32" x="517.529297"/>
      </g>
     </g>
    </g>
    <g id="xtick_9">
     <g id="line2d_22">
      <g>
       <use xlink:href="#m2b18b46b63" x="304.960929" y="684.92" style="stroke: #000000; stroke-width: 0.8"/>
      </g>
     </g>
     <g id="text_21">
      <!-- 2014-07-03 -->
      <g transform="translate(275.903117 699.518437) scale(0.1 -0.1)">
       <use xlink:href="#DejaVuSans-32"/>
       <use xlink:href="#DejaVuSans-30" x="63.623047"/>
       <use xlink:href="#DejaVuSans-31" x="127.246094"/>
       <use xlink:href="#DejaVuSans-34" x="190.869141"/>
       <use xlink:href="#DejaVuSans-2d" x="254.492188"/>
       <use xlink:href="#DejaVuSans-30" x="290.576172"/>
       <use xlink:href="#DejaVuSans-37" x="354.199219"/>
       <use xlink:href="#DejaVuSans-2d" x="417.822266"/>
       <use xlink:href="#DejaVuSans-30" x="453.90625"/>
       <use xlink:href="#DejaVuSans-33" x="517.529297"/>
      </g>
     </g>
    </g>
    <g id="xtick_10">
     <g id="line2d_23">
      <g>
       <use xlink:href="#m2b18b46b63" x="427.199182" y="684.92" style="stroke: #000000; stroke-width: 0.8"/>
      </g>
     </g>
     <g id="text_22">
      <!-- 2014-07-04 -->
      <g transform="translate(398.141369 699.518437) scale(0.1 -0.1)">
       <use xlink:href="#DejaVuSans-32"/>
       <use xlink:href="#DejaVuSans-30" x="63.623047"/>
       <use xlink:href="#DejaVuSans-31" x="127.246094"/>
       <use xlink:href="#DejaVuSans-34" x="190.869141"/>
       <use xlink:href="#DejaVuSans-2d" x="254.492188"/>
       <use xlink:href="#DejaVuSans-30" x="290.576172"/>
       <use xlink:href="#DejaVuSans-37" x="354.199219"/>
       <use xlink:href="#DejaVuSans-2d" x="417.822266"/>
       <use xlink:href="#DejaVuSans-30" x="453.90625"/>
       <use xlink:href="#DejaVuSans-34" x="517.529297"/>
      </g>
     </g>
    </g>
    <g id="xtick_11">
     <g id="line2d_24">
      <g>
       <use xlink:href="#m2b18b46b63" x="549.437434" y="684.92" style="stroke: #000000; stroke-width: 0.8"/>
      </g>
     </g>
     <g id="text_23">
      <!-- 2014-07-05 -->
      <g transform="translate(520.379622 699.518437) scale(0.1 -0.1)">
       <use xlink:href="#DejaVuSans-32"/>
       <use xlink:href="#DejaVuSans-30" x="63.623047"/>
       <use xlink:href="#DejaVuSans-31" x="127.246094"/>
       <use xlink:href="#DejaVuSans-34" x="190.869141"/>
       <use xlink:href="#DejaVuSans-2d" x="254.492188"/>
       <use xlink:href="#DejaVuSans-30" x="290.576172"/>
       <use xlink:href="#DejaVuSans-37" x="354.199219"/>
       <use xlink:href="#DejaVuSans-2d" x="417.822266"/>
       <use xlink:href="#DejaVuSans-30" x="453.90625"/>
       <use xlink:href="#DejaVuSans-35" x="517.529297"/>
      </g>
     </g>
    </g>
    <g id="xtick_12">
     <g id="line2d_25">
      <g>
       <use xlink:href="#m2b18b46b63" x="671.675687" y="684.92" style="stroke: #000000; stroke-width: 0.8"/>
      </g>
     </g>
     <g id="text_24">
      <!-- 2014-07-06 -->
      <g transform="translate(642.617874 699.518437) scale(0.1 -0.1)">
       <use xlink:href="#DejaVuSans-32"/>
       <use xlink:href="#DejaVuSans-30" x="63.623047"/>
       <use xlink:href="#DejaVuSans-31" x="127.246094"/>
       <use xlink:href="#DejaVuSans-34" x="190.869141"/>
       <use xlink:href="#DejaVuSans-2d" x="254.492188"/>
       <use xlink:href="#DejaVuSans-30" x="290.576172"/>
       <use xlink:href="#DejaVuSans-37" x="354.199219"/>
       <use xlink:href="#DejaVuSans-2d" x="417.822266"/>
       <use xlink:href="#DejaVuSans-30" x="453.90625"/>
       <use xlink:href="#DejaVuSans-36" x="517.529297"/>
      </g>
     </g>
    </g>
   </g>
   <g id="matplotlib.axis_4">
    <g id="ytick_10">
     <g id="line2d_26">
      <g>
       <use xlink:href="#mfb2b2e465d" x="30.103125" y="671.339582" style="stroke: #000000; stroke-width: 0.8"/>
      </g>
     </g>
     <g id="text_25">
      <!-- 0.0 -->
      <g transform="translate(7.2 675.1388) scale(0.1 -0.1)">
       <use xlink:href="#DejaVuSans-30"/>
       <use xlink:href="#DejaVuSans-2e" x="63.623047"/>
       <use xlink:href="#DejaVuSans-30" x="95.410156"/>
      </g>
     </g>
    </g>
    <g id="ytick_11">
     <g id="line2d_27">
      <g>
       <use xlink:href="#mfb2b2e465d" x="30.103125" y="634.496178" style="stroke: #000000; stroke-width: 0.8"/>
      </g>
     </g>
     <g id="text_26">
      <!-- 0.5 -->
      <g transform="translate(7.2 638.295397) scale(0.1 -0.1)">
       <use xlink:href="#DejaVuSans-30"/>
       <use xlink:href="#DejaVuSans-2e" x="63.623047"/>
       <use xlink:href="#DejaVuSans-35" x="95.410156"/>
      </g>
     </g>
    </g>
    <g id="ytick_12">
     <g id="line2d_28">
      <g>
       <use xlink:href="#mfb2b2e465d" x="30.103125" y="597.652775" style="stroke: #000000; stroke-width: 0.8"/>
      </g>
     </g>
     <g id="text_27">
      <!-- 1.0 -->
      <g transform="translate(7.2 601.451994) scale(0.1 -0.1)">
       <use xlink:href="#DejaVuSans-31"/>
       <use xlink:href="#DejaVuSans-2e" x="63.623047"/>
       <use xlink:href="#DejaVuSans-30" x="95.410156"/>
      </g>
     </g>
    </g>
    <g id="ytick_13">
     <g id="line2d_29">
      <g>
       <use xlink:href="#mfb2b2e465d" x="30.103125" y="560.809371" style="stroke: #000000; stroke-width: 0.8"/>
      </g>
     </g>
     <g id="text_28">
      <!-- 1.5 -->
      <g transform="translate(7.2 564.60859) scale(0.1 -0.1)">
       <use xlink:href="#DejaVuSans-31"/>
       <use xlink:href="#DejaVuSans-2e" x="63.623047"/>
       <use xlink:href="#DejaVuSans-35" x="95.410156"/>
      </g>
     </g>
    </g>
    <g id="ytick_14">
     <g id="line2d_30">
      <g>
       <use xlink:href="#mfb2b2e465d" x="30.103125" y="523.965968" style="stroke: #000000; stroke-width: 0.8"/>
      </g>
     </g>
     <g id="text_29">
      <!-- 2.0 -->
      <g transform="translate(7.2 527.765187) scale(0.1 -0.1)">
       <use xlink:href="#DejaVuSans-32"/>
       <use xlink:href="#DejaVuSans-2e" x="63.623047"/>
       <use xlink:href="#DejaVuSans-30" x="95.410156"/>
      </g>
     </g>
    </g>
    <g id="ytick_15">
     <g id="line2d_31">
      <g>
       <use xlink:href="#mfb2b2e465d" x="30.103125" y="487.122565" style="stroke: #000000; stroke-width: 0.8"/>
      </g>
     </g>
     <g id="text_30">
      <!-- 2.5 -->
      <g transform="translate(7.2 490.921783) scale(0.1 -0.1)">
       <use xlink:href="#DejaVuSans-32"/>
       <use xlink:href="#DejaVuSans-2e" x="63.623047"/>
       <use xlink:href="#DejaVuSans-35" x="95.410156"/>
      </g>
     </g>
    </g>
    <g id="ytick_16">
     <g id="line2d_32">
      <g>
       <use xlink:href="#mfb2b2e465d" x="30.103125" y="450.279161" style="stroke: #000000; stroke-width: 0.8"/>
      </g>
     </g>
     <g id="text_31">
      <!-- 3.0 -->
      <g transform="translate(7.2 454.07838) scale(0.1 -0.1)">
       <use xlink:href="#DejaVuSans-33"/>
       <use xlink:href="#DejaVuSans-2e" x="63.623047"/>
       <use xlink:href="#DejaVuSans-30" x="95.410156"/>
      </g>
     </g>
    </g>
    <g id="ytick_17">
     <g id="line2d_33">
      <g>
       <use xlink:href="#mfb2b2e465d" x="30.103125" y="413.435758" style="stroke: #000000; stroke-width: 0.8"/>
      </g>
     </g>
     <g id="text_32">
      <!-- 3.5 -->
      <g transform="translate(7.2 417.234976) scale(0.1 -0.1)">
       <use xlink:href="#DejaVuSans-33"/>
       <use xlink:href="#DejaVuSans-2e" x="63.623047"/>
       <use xlink:href="#DejaVuSans-35" x="95.410156"/>
      </g>
     </g>
    </g>
   </g>
   <g id="line2d_34">
    <path d="M 60.654199 671.339582 
L 73.981564 671.238526 
L 75.424655 670.902155 
L 76.103756 670.955594 
L 77.207296 670.921677 
L 78.735274 670.681338 
L 79.2446 670.394574 
L 79.584151 669.947612 
L 80.008589 669.000812 
L 80.517915 667.174119 
L 81.197017 663.73614 
L 81.876118 658.792296 
L 83.913422 642.007395 
L 84.592524 637.940484 
L 85.271625 635.238195 
L 85.780951 634.060067 
L 86.629828 632.927307 
L 86.969379 632.699002 
L 88.072919 632.336551 
L 88.497357 632.716781 
L 88.921795 633.328712 
L 89.431121 634.199445 
L 89.516009 634.135453 
L 89.685784 633.395559 
L 90.279998 630.182606 
L 90.619549 629.411749 
L 90.789324 629.406052 
L 91.043987 629.795713 
L 91.468426 631.296915 
L 92.062639 634.51204 
L 93.081291 639.941997 
L 93.166179 639.932479 
L 93.335954 638.801981 
L 93.590617 635.208907 
L 93.760393 623.557054 
L 93.84528 629.433371 
L 93.930168 626.672156 
L 94.354607 584.212513 
L 94.439494 586.117892 
L 94.779045 570.278916 
L 94.94882 557.040355 
L 95.033708 560.632845 
L 95.288371 548.260376 
L 95.373259 546.536706 
L 95.543034 534.366562 
L 96.646574 460.878066 
L 96.731461 462.305579 
L 96.816349 461.219313 
L 96.986124 453.439594 
L 97.071012 452.833294 
L 97.240787 447.025863 
L 97.325675 441.545237 
L 97.410563 445.887155 
L 97.580338 441.837521 
L 97.665226 442.821012 
L 97.750114 442.56209 
L 97.919889 436.953655 
L 98.004777 441.924923 
L 98.089664 437.912182 
L 98.174552 440.566683 
L 98.25944 439.274903 
L 98.344327 440.92685 
L 98.514103 436.671456 
L 98.59899 441.706988 
L 98.683878 437.678682 
L 98.768766 440.460974 
L 98.853653 439.201239 
L 98.938541 440.625747 
L 99.108316 436.898702 
L 99.193204 440.935687 
L 99.278092 437.486449 
L 99.362979 439.950632 
L 99.447867 438.518903 
L 99.532755 439.696665 
L 99.70253 436.111255 
L 99.787418 439.332773 
L 99.872305 436.554433 
L 99.957193 438.321471 
L 100.042081 436.702235 
L 100.126968 437.930804 
L 100.211856 437.332094 
L 100.381631 434.45149 
L 100.466519 437.416967 
L 100.551407 434.854946 
L 100.636294 436.319475 
L 100.721182 435.102817 
L 100.80607 435.929125 
L 100.975845 433.776814 
L 101.060733 435.605639 
L 101.145621 434.087053 
L 101.230508 435.258876 
L 101.315396 434.344762 
L 101.400284 435.538019 
L 101.485171 433.645245 
L 101.570059 433.702676 
L 101.739834 437.933774 
L 101.824722 432.387495 
L 101.90961 439.101767 
L 101.994497 438.54125 
L 102.079385 437.33039 
L 102.588711 440.777836 
L 102.673599 440.661305 
L 102.758486 440.206638 
L 102.928262 441.77496 
L 103.013149 441.565827 
L 103.267812 443.362362 
L 103.3527 443.162944 
L 103.437588 442.362532 
L 103.607363 443.920753 
L 103.692251 443.463871 
L 103.862026 445.259247 
L 103.946914 444.872656 
L 104.031802 443.066898 
L 104.201577 445.707063 
L 104.286465 444.667985 
L 104.45624 446.711882 
L 104.541128 445.770695 
L 104.626015 442.209231 
L 104.795791 445.574176 
L 104.880678 444.1555 
L 105.050454 446.364961 
L 105.220229 436.195882 
L 105.305117 442.370139 
L 105.390004 438.879475 
L 105.474892 440.365209 
L 105.55978 438.757622 
L 105.644667 439.571719 
L 105.814443 423.749564 
L 105.89933 436.6288 
L 105.984218 423.962773 
L 106.069106 432.315781 
L 106.153993 423.269756 
L 106.238881 426.080685 
L 106.493544 419.787894 
L 106.578432 421.017798 
L 106.833095 413.822436 
L 106.917982 413.042474 
L 107.00287 406.574896 
L 107.087758 409.267098 
L 107.172646 403.500425 
L 107.257533 405.865769 
L 107.342421 401.668807 
L 107.427309 403.458964 
L 107.512196 399.74 
L 107.681972 402.837591 
L 107.851747 405.498908 
L 107.936635 405.653034 
L 108.530848 421.496746 
L 109.294837 439.931061 
L 109.889051 450.467862 
L 110.822816 461.81602 
L 111.586805 469.451679 
L 112.690344 478.403837 
L 114.472986 491.74273 
L 114.642761 492.523764 
L 115.067199 495.671371 
L 115.491638 498.425519 
L 116.255627 503.406801 
L 116.340514 503.662964 
L 116.680065 505.919473 
L 116.764953 505.951886 
L 117.104504 508.223538 
L 117.189391 508.419899 
L 117.783605 511.762339 
L 117.868493 511.89375 
L 119.396471 519.18565 
L 119.651134 520.182985 
L 119.990684 521.733283 
L 120.075572 521.852167 
L 120.924449 524.697793 
L 121.009337 524.789763 
L 121.348887 525.697667 
L 121.433775 525.684306 
L 121.518663 526.179978 
L 121.60355 526.139844 
L 121.688438 526.106183 
L 121.773326 525.79084 
L 122.027989 526.101492 
L 122.197764 525.970661 
L 122.452427 526.467352 
L 122.622202 526.775456 
L 122.791978 527.256582 
L 122.876865 527.243757 
L 123.046641 527.059773 
L 123.131528 527.280545 
L 123.216416 527.19208 
L 123.301304 526.998442 
L 123.386192 527.0379 
L 123.471079 527.249493 
L 123.555967 526.978335 
L 123.725742 527.163022 
L 123.895518 527.149635 
L 123.980405 527.027227 
L 124.065293 527.232873 
L 124.150181 526.706413 
L 124.319956 527.160571 
L 124.404844 526.786111 
L 124.489731 526.907851 
L 124.744394 527.178271 
L 124.91417 527.203912 
L 124.999057 527.445221 
L 125.083945 527.192009 
L 125.168833 527.284296 
L 125.25372 527.24149 
L 125.423496 527.391287 
L 125.508383 527.300573 
L 125.678159 527.420125 
L 125.763046 527.677975 
L 125.847934 527.401388 
L 126.017709 527.907232 
L 126.187485 527.978525 
L 126.272372 528.17355 
L 126.442148 527.887661 
L 126.527035 528.00052 
L 126.611923 528.082555 
L 126.696811 528.347529 
L 126.781699 528.063441 
L 126.866586 528.41298 
L 126.951474 528.147795 
L 127.206137 528.631003 
L 127.291025 528.393655 
L 127.375912 528.754929 
L 127.545688 528.487865 
L 127.630575 528.683629 
L 127.715463 528.621779 
L 128.309677 529.092715 
L 128.394564 528.905674 
L 128.479452 529.079135 
L 128.56434 529.002537 
L 128.649227 528.990749 
L 128.734115 529.136329 
L 128.819003 528.993367 
L 128.90389 529.085723 
L 128.988778 529.456476 
L 129.073666 529.013025 
L 129.158553 529.144085 
L 129.243441 529.21225 
L 129.328329 529.483733 
L 129.413216 529.432486 
L 129.582992 529.170657 
L 129.667879 529.430466 
L 129.752767 529.37228 
L 129.922543 529.714449 
L 130.00743 529.592885 
L 130.177206 529.895552 
L 130.262093 529.633081 
L 130.516756 530.121436 
L 130.856307 529.937224 
L 131.026082 529.941976 
L 131.195858 530.415732 
L 131.280745 530.339459 
L 131.450521 530.609369 
L 131.705184 530.174352 
L 131.790071 530.753675 
L 131.874959 530.643812 
L 131.959847 530.844231 
L 132.129622 530.529223 
L 132.21451 530.848694 
L 132.299397 530.763039 
L 132.55406 531.158704 
L 132.638948 530.87755 
L 132.723836 531.225147 
L 132.808723 531.108748 
L 132.893611 531.048032 
L 133.148274 531.761569 
L 133.233162 531.333254 
L 133.572713 531.838009 
L 133.742488 531.657802 
L 133.827376 531.694985 
L 133.912263 532.175478 
L 133.997151 532.108183 
L 134.082039 531.688652 
L 134.166926 532.440883 
L 134.336702 531.974321 
L 134.506477 532.232566 
L 134.591365 532.034905 
L 134.930915 532.694569 
L 135.015803 532.666486 
L 135.100691 532.501484 
L 135.185578 532.707183 
L 135.270466 532.501932 
L 135.694904 533.199262 
L 135.779792 532.932435 
L 135.86468 533.006055 
L 135.949567 533.04272 
L 136.034455 533.258327 
L 136.119343 533.063108 
L 136.289118 533.392522 
L 136.458894 533.242313 
L 136.543781 533.463121 
L 136.628669 533.316909 
L 136.713557 533.471149 
L 136.798444 533.202855 
L 136.96822 533.596429 
L 137.053107 533.474118 
L 137.137995 533.564982 
L 137.222883 533.276844 
L 137.477546 533.898955 
L 137.647321 533.618995 
L 137.732209 533.898771 
L 137.817096 533.757065 
L 137.901984 534.021652 
L 138.071759 533.586617 
L 138.156647 533.884523 
L 138.241535 533.633797 
L 138.496198 534.064607 
L 138.581085 533.854209 
L 138.920636 534.191142 
L 139.005524 534.12621 
L 139.345074 534.457566 
L 139.51485 534.56323 
L 139.599738 534.726422 
L 139.769513 534.525854 
L 139.939288 534.974935 
L 140.024176 534.741452 
L 140.109064 535.285349 
L 140.193951 535.192079 
L 140.533502 535.482035 
L 140.703277 536.141909 
L 140.788165 536.064661 
L 140.873053 536.179655 
L 140.95794 536.558401 
L 141.127716 536.395095 
L 141.297491 537.282048 
L 141.382379 536.833073 
L 141.637042 537.775103 
L 142.570806 540.196217 
L 142.655694 540.640634 
L 142.740582 540.414503 
L 143.16502 541.894413 
L 143.249908 541.708409 
L 143.504571 542.787498 
L 143.589458 542.805628 
L 143.759234 542.375987 
L 143.929009 543.072965 
L 144.098784 544.434799 
L 144.353447 544.931182 
L 144.60811 545.973712 
L 144.692998 545.693893 
L 145.287212 547.711138 
L 145.626762 548.238705 
L 146.051201 549.694696 
L 146.390752 550.679672 
L 146.475639 550.53765 
L 146.645415 551.260665 
L 146.900078 551.300105 
L 146.984965 551.835455 
L 147.069853 551.712495 
L 147.324516 552.535631 
L 147.409404 552.379414 
L 147.664067 553.274589 
L 147.833842 553.488607 
L 147.91873 553.197333 
L 148.088505 553.766607 
L 148.173393 553.638807 
L 148.343168 554.127311 
L 148.428056 553.865297 
L 148.597831 554.407877 
L 148.682719 554.348786 
L 148.937382 554.894695 
L 149.022269 554.705879 
L 149.107157 555.313707 
L 149.192045 555.284623 
L 149.276933 555.313075 
L 149.36182 555.201121 
L 149.446708 555.339489 
L 149.616483 555.984377 
L 149.786259 556.013312 
L 149.956034 556.465336 
L 150.040922 556.296505 
L 150.125809 556.716633 
L 150.210697 556.371416 
L 150.380472 557.147663 
L 150.46536 556.988011 
L 150.550248 557.079181 
L 150.635135 557.481513 
L 150.720023 557.195343 
L 150.804911 557.53861 
L 150.889798 557.433455 
L 151.059574 557.850281 
L 151.144461 557.480266 
L 151.484012 558.229413 
L 151.5689 558.083605 
L 151.653787 558.16564 
L 151.90845 558.986818 
L 151.993338 558.960325 
L 152.417776 559.309548 
L 152.757327 560.225208 
L 152.927103 560.303835 
L 153.181766 561.224431 
L 153.266653 561.114682 
L 153.436429 561.444975 
L 153.521316 561.294942 
L 153.860867 562.206974 
L 154.030642 562.379012 
L 154.11553 562.199051 
L 154.285305 562.719503 
L 154.539968 562.748473 
L 154.794631 563.574789 
L 154.879519 563.464337 
L 154.964407 563.781331 
L 155.049294 563.56077 
L 155.388845 564.188617 
L 156.067947 565.617131 
L 156.152834 565.450004 
L 157.171486 566.8884 
L 157.256374 566.711232 
L 157.341262 567.414992 
L 157.426149 567.148964 
L 157.511037 567.216523 
L 157.7657 567.610238 
L 157.935475 568.104996 
L 158.190138 568.32828 
L 158.275026 569.03089 
L 158.444801 568.694738 
L 158.529689 568.742813 
L 158.86924 569.899967 
L 158.954128 569.613015 
L 159.039015 569.738681 
L 159.123903 569.49551 
L 159.293678 570.101713 
L 159.548341 570.275744 
L 159.887892 571.072212 
L 160.227443 571.678617 
L 160.651881 572.447275 
L 160.736769 572.394807 
L 160.906544 573.080331 
L 160.991432 572.820566 
L 161.076319 573.120896 
L 161.161207 573.008441 
L 161.500758 574.149951 
L 161.585645 574.159288 
L 161.670533 574.011144 
L 162.010084 575.25115 
L 162.094971 575.12681 
L 163.283399 578.157782 
L 163.368287 578.188913 
L 163.707837 578.901694 
L 163.792725 579.037066 
L 164.047388 579.956029 
L 164.386939 581.017155 
L 164.471826 581.315473 
L 164.556714 581.271851 
L 164.641602 581.427462 
L 164.896265 582.326406 
L 164.981152 582.40137 
L 166.848681 588.640841 
L 167.018457 588.758654 
L 167.188232 589.501275 
L 167.358007 589.41375 
L 168.121996 591.638082 
L 168.291772 591.812544 
L 168.546435 592.520107 
L 168.631323 592.572566 
L 169.140649 593.540764 
L 169.225536 593.509651 
L 169.395312 594.032536 
L 169.734862 594.963419 
L 170.838402 597.1335 
L 171.008177 597.325477 
L 171.093065 597.180486 
L 171.26284 595.698907 
L 171.687279 605.128295 
L 171.941942 606.884694 
L 172.536156 608.906451 
L 173.045482 610.015682 
L 173.639695 610.850076 
L 174.318797 611.273274 
L 175.337449 611.484081 
L 182.722677 611.482157 
L 182.807564 611.525445 
L 182.97734 615.489694 
L 183.571553 630.943481 
L 183.995992 636.695137 
L 184.505318 640.811353 
L 185.099532 643.83555 
L 185.778633 646.140815 
L 186.542622 647.971656 
L 187.476386 649.53402 
L 188.240376 650.421879 
L 191.805658 652.912809 
L 194.2674 654.298253 
L 196.050042 654.227783 
L 197.57802 654.360647 
L 198.936223 654.088252 
L 199.530436 654.289737 
L 200.294425 654.804971 
L 201.567741 655.971585 
L 205.217911 659.384965 
L 206.915664 660.635572 
L 208.358755 661.316379 
L 208.613418 660.823736 
L 208.783193 660.189166 
L 209.122744 657.530672 
L 209.547182 652.424946 
L 211.499599 623.68717 
L 212.008925 617.327549 
L 212.1787 607.807843 
L 212.433363 593.965126 
L 212.857801 585.518374 
L 213.28224 582.461673 
L 213.367127 582.337993 
L 213.62179 579.507598 
L 213.961341 578.415623 
L 214.131117 577.598468 
L 214.810218 585.03001 
L 215.234656 589.544274 
L 215.319544 590.026383 
L 215.659095 593.793027 
L 215.743982 594.120773 
L 215.82887 593.374173 
L 215.913758 593.580758 
L 215.998645 594.089018 
L 216.592859 602.218289 
L 216.93241 604.493763 
L 217.017297 605.070539 
L 217.102185 605.039127 
L 217.187073 604.918314 
L 217.526624 606.303799 
L 217.611511 606.683691 
L 217.696399 606.614024 
L 217.781287 606.451904 
L 218.03595 607.251793 
L 218.120837 607.333437 
L 218.205725 607.585371 
L 218.3755 605.53501 
L 218.545276 606.535287 
L 218.715051 605.938264 
L 218.799939 606.068041 
L 218.969714 602.323194 
L 219.139489 603.683411 
L 219.309265 602.21388 
L 219.47904 602.364317 
L 219.648815 594.651256 
L 219.818591 596.172443 
L 220.073254 592.855073 
L 220.243029 582.206661 
L 220.327917 582.725259 
L 220.412805 581.580395 
L 220.667468 573.787947 
L 220.752355 557.654315 
L 220.837243 559.548626 
L 220.922131 575.522861 
L 221.176794 535.808437 
L 221.346569 541.189547 
L 221.68612 531.79971 
L 221.771007 530.080915 
L 222.110558 515.117639 
L 222.365221 508.017146 
L 222.450109 500.874471 
L 222.534996 503.404236 
L 222.704772 495.441701 
L 222.789659 500.295911 
L 222.874547 499.182748 
L 222.959435 496.200599 
L 223.044322 497.051379 
L 223.214098 499.990855 
L 223.298985 499.542758 
L 223.383873 500.440252 
L 223.638536 504.359882 
L 223.893199 507.960927 
L 225.166514 526.733406 
L 226.015391 534.448659 
L 226.609605 536.607373 
L 226.77938 536.89414 
L 227.458482 538.938423 
L 227.543369 538.824519 
L 227.798032 539.840881 
L 227.88292 540.063313 
L 228.052695 540.759483 
L 228.307358 541.567924 
L 228.646909 543.272726 
L 230.599326 555.404983 
L 230.769101 559.70003 
L 231.363315 580.473222 
L 231.617978 586.663283 
L 232.042416 594.846379 
L 233.061068 606.040305 
L 233.994833 613.903737 
L 234.07972 613.756905 
L 234.164608 612.910807 
L 234.249496 609.899547 
L 234.334383 612.197209 
L 234.504159 620.211246 
L 234.589046 617.18229 
L 234.843709 620.41184 
L 234.928597 620.524335 
L 235.18326 622.360482 
L 237.050789 632.294 
L 237.814778 635.472686 
L 238.324104 636.978716 
L 238.493879 637.383681 
L 238.578767 637.412339 
L 239.682307 640.353095 
L 239.852082 640.579419 
L 240.106745 641.02615 
L 240.191633 641.219162 
L 240.361408 640.883225 
L 240.446296 640.965781 
L 240.616071 641.265573 
L 240.700959 641.20771 
L 240.870734 641.682467 
L 240.955622 641.530048 
L 241.125397 641.098389 
L 241.295173 641.39347 
L 241.38006 641.221191 
L 241.464948 641.316229 
L 241.719611 640.953281 
L 241.804499 641.123584 
L 241.974274 640.976822 
L 242.059162 641.034302 
L 242.313825 640.850924 
L 242.398712 640.933277 
L 242.568488 640.731174 
L 242.738263 640.856113 
L 242.908038 640.815354 
L 243.077814 640.917835 
L 243.247589 640.88082 
L 243.417365 640.914282 
L 243.58714 640.89197 
L 243.756915 640.984998 
L 243.841803 640.951436 
L 244.011578 641.107539 
L 244.181354 640.923711 
L 244.351129 641.219999 
L 244.436017 641.161852 
L 244.605792 641.090193 
L 244.775567 641.12157 
L 244.945343 641.278363 
L 245.115118 641.591526 
L 245.284893 641.105809 
L 245.454669 641.672363 
L 245.539556 641.412787 
L 245.963995 642.325361 
L 246.048882 643.002747 
L 246.218658 642.451798 
L 246.388433 643.978756 
L 246.473321 643.261782 
L 246.558209 643.473105 
L 246.727984 644.200738 
L 246.812872 643.654722 
L 246.982647 645.1399 
L 247.067535 645.006554 
L 247.152422 644.169695 
L 247.322198 645.50005 
L 247.491973 645.042286 
L 247.661748 646.057407 
L 247.746636 645.813748 
L 248.001299 646.653346 
L 248.255962 646.739022 
L 249.019951 647.004707 
L 249.614165 647.10119 
L 252.075907 646.805994 
L 252.670121 646.712711 
L 253.179447 646.863581 
L 253.858549 647.344474 
L 254.622538 647.856783 
L 255.64119 648.583569 
L 256.405179 649.026329 
L 256.914505 649.102987 
L 260.140237 649.071776 
L 261.83799 648.536578 
L 262.601979 648.505939 
L 264.214845 648.908233 
L 265.063722 649.322043 
L 266.082374 649.866593 
L 266.931251 649.956828 
L 268.03479 649.940854 
L 268.883667 649.958225 
L 269.902319 649.914361 
L 270.496533 649.58895 
L 271.769848 648.815284 
L 272.279174 648.919626 
L 272.873388 649.297891 
L 274.401366 650.454896 
L 275.165355 650.724095 
L 275.589794 650.677601 
L 277.202659 650.192742 
L 277.881761 650.475512 
L 279.74929 651.28706 
L 281.107492 651.232794 
L 281.956369 651.26425 
L 283.484347 650.971446 
L 283.993673 650.897345 
L 284.502999 651.046091 
L 285.097213 651.477152 
L 285.94609 652.397472 
L 290.445137 657.762128 
L 293.076655 660.010699 
L 294.68952 660.634443 
L 299.867669 662.432208 
L 303.942277 663.249459 
L 304.706266 663.137751 
L 305.385368 662.825367 
L 305.979581 662.340556 
L 306.488907 661.690492 
L 307.168009 660.446438 
L 307.84711 658.692025 
L 308.611099 656.066434 
L 309.290201 652.601481 
L 310.39374 645.575315 
L 311.15773 640.945248 
L 312.346157 636.239503 
L 313.279921 634.056149 
L 314.128798 632.760654 
L 314.383461 632.625229 
L 314.723012 632.428854 
L 315.232338 632.306952 
L 315.487001 632.275927 
L 316.166102 632.68894 
L 316.760316 633.525855 
L 316.845204 633.432808 
L 317.099867 632.120843 
L 317.778968 628.938278 
L 318.033631 628.682897 
L 318.203407 628.807992 
L 318.542957 629.561773 
L 319.391834 627.345593 
L 319.646497 627.54737 
L 319.90116 628.059446 
L 320.410486 630.220839 
L 321.259363 634.839103 
L 322.193127 639.36499 
L 323.381555 643.791445 
L 324.230432 645.797345 
L 324.400207 646.132579 
L 324.994421 647.597255 
L 325.079308 647.670326 
L 325.588634 648.861664 
L 325.673522 648.898762 
L 325.75841 648.683025 
L 325.928185 649.511592 
L 326.013073 649.520032 
L 326.182848 650.141537 
L 326.267736 649.648342 
L 326.777062 651.455771 
L 326.861949 651.048239 
L 327.116612 652.111936 
L 327.286388 652.47242 
L 329.153917 653.733049 
L 338.321786 660.452706 
L 340.528865 661.751591 
L 342.566169 662.755878 
L 345.1128 663.783219 
L 348.423419 664.834032 
L 352.328252 665.734648 
L 356.148197 666.434299 
L 360.732132 667.057955 
L 366.080056 667.606612 
L 374.31416 668.226659 
L 383.142478 668.656501 
L 397.828046 669.06635 
L 420.747718 669.456057 
L 456.315654 669.864371 
L 509.79489 670.267358 
L 583.816943 670.598429 
L 671.675687 670.837266 
L 671.675687 670.837266 
" clip-path="url(#p1103aa8931)" style="fill: none; stroke: #1f77b4; stroke-width: 1.5; stroke-linecap: square"/>
   </g>
   <g id="line2d_35">
    <path d="M 60.654199 671.339582 
L 61.757739 671.242948 
L 62.521728 670.762262 
L 63.285717 670.07998 
L 65.407909 667.817182 
L 66.851 666.412332 
L 68.039427 665.343603 
L 68.633641 664.962854 
L 69.142967 664.871814 
L 69.652293 664.969975 
L 70.50117 665.41077 
L 71.434934 666.123345 
L 72.623362 666.913341 
L 73.387351 667.215531 
L 73.896677 667.19148 
L 74.575778 666.713716 
L 75.25488 665.711445 
L 75.764206 664.630326 
L 77.037521 660.947334 
L 78.650387 654.387877 
L 79.499263 650.264892 
L 81.197017 640.853077 
L 85.016962 608.26049 
L 85.780951 603.435912 
L 87.393817 594.184567 
L 87.988031 591.200567 
L 88.327582 589.867047 
L 89.261346 588.034896 
L 89.516009 587.89593 
L 89.600897 588.005488 
L 89.685784 587.508419 
L 90.364886 578.907766 
L 90.789324 576.378065 
L 91.043987 576.017678 
L 91.213763 576.059119 
L 91.468426 576.415857 
L 91.807976 577.763051 
L 92.40219 581.002921 
L 92.741741 583.289938 
L 93.251067 589.121681 
L 93.335954 588.868398 
L 93.930168 575.83706 
L 96.561686 465.464898 
L 97.071012 451.858303 
L 97.495451 443.590842 
L 98.25944 435.356445 
L 98.683878 432.513873 
L 98.938541 431.720202 
L 99.193204 430.916279 
L 99.362979 430.90262 
L 99.532755 430.849628 
L 99.70253 430.721365 
L 99.872305 430.931511 
L 100.211856 431.640917 
L 100.381631 432.005847 
L 100.975845 434.558422 
L 101.824722 439.09838 
L 103.946914 451.66548 
L 104.371352 453.18506 
L 104.45624 453.073685 
L 104.710903 452.771976 
L 104.795791 452.766024 
L 104.880678 452.886059 
L 104.965566 452.644926 
L 105.644667 446.726752 
L 106.323769 431.810019 
L 106.833095 417.306639 
L 107.257533 410.928559 
L 107.512196 409.214099 
L 107.766859 408.60806 
L 107.936635 408.678893 
L 108.191298 409.871207 
L 108.615736 413.035864 
L 109.379725 424.660988 
L 110.313489 441.633393 
L 111.671692 461.4145 
L 112.690344 473.405925 
L 113.793884 483.851376 
L 114.812536 491.328698 
L 116.085851 498.78699 
L 117.528942 505.701226 
L 119.05692 511.979284 
L 121.264 519.779244 
L 122.027989 522.257169 
L 122.112876 522.304149 
L 122.791978 520.435548 
L 123.131528 520.082785 
L 123.555967 520.17149 
L 123.980405 520.70491 
L 124.404844 521.484758 
L 125.168833 523.327478 
L 126.272372 527.96212 
L 127.206137 531.052101 
L 128.394564 534.376036 
L 130.00743 537.96345 
L 131.11097 539.831276 
L 131.535408 540.509787 
L 132.55406 541.953788 
L 132.978499 542.459515 
L 133.6576 543.135414 
L 134.082039 543.424634 
L 134.591365 543.886217 
L 135.525129 544.566692 
L 135.86468 544.602314 
L 136.20423 544.750139 
L 136.543781 544.778528 
L 136.713557 544.872225 
L 137.053107 544.769774 
L 137.647321 544.863049 
L 138.156647 544.833986 
L 138.41131 544.771813 
L 138.581085 544.797961 
L 138.920636 544.515521 
L 139.260187 544.565238 
L 139.51485 544.730532 
L 139.854401 545.287767 
L 140.363727 546.626722 
L 141.042828 549.333422 
L 144.862773 568.08284 
L 146.220976 572.901291 
L 147.664067 577.297947 
L 147.91873 577.655966 
L 148.343168 578.048255 
L 149.531596 576.787776 
L 150.210697 576.322759 
L 150.550248 576.457752 
L 151.144461 577.094428 
L 153.521316 580.518085 
L 154.030642 581.262633 
L 154.624856 581.552712 
L 154.964407 581.568274 
L 155.303957 581.451332 
L 155.643508 581.508563 
L 156.831936 582.046891 
L 157.256374 582.619964 
L 157.680812 583.117038 
L 158.020363 583.343997 
L 158.444801 584.054261 
L 159.208791 585.377038 
L 159.378566 585.594668 
L 160.057667 585.335596 
L 160.397218 585.296618 
L 160.736769 585.350962 
L 161.076319 585.480135 
L 161.330982 585.446416 
L 161.670533 585.5016 
L 162.010084 585.817824 
L 162.434522 586.488285 
L 163.877613 589.841763 
L 164.641602 590.745224 
L 164.896265 591.083717 
L 165.405591 590.88803 
L 165.830029 590.979003 
L 166.254468 591.376862 
L 166.763794 592.174141 
L 167.27312 593.075506 
L 167.358007 593.024827 
L 167.867333 592.826118 
L 168.546435 592.767752 
L 168.970873 592.337981 
L 169.140649 592.214933 
L 169.649975 591.253718 
L 169.904638 591.12001 
L 170.159301 591.176614 
L 170.753514 591.682883 
L 171.093065 592.223633 
L 172.111717 594.10097 
L 172.621043 594.627331 
L 173.46992 595.829488 
L 174.318797 597.348345 
L 175.337449 598.318779 
L 175.761887 598.276487 
L 176.101438 598.49266 
L 176.525876 598.79474 
L 176.950315 598.670145 
L 177.12009 598.662462 
L 177.629416 598.182032 
L 178.393405 597.68566 
L 178.732956 598.014702 
L 178.987619 598.252137 
L 179.412057 598.548319 
L 179.921383 599.336749 
L 180.345822 600.309589 
L 181.279586 602.557465 
L 181.449361 602.677876 
L 182.128463 602.674211 
L 182.722677 602.263468 
L 183.147115 601.838227 
L 183.656441 601.607386 
L 183.911104 601.574235 
L 184.250655 601.48293 
L 184.42043 601.475775 
L 186.033296 599.853839 
L 186.372847 599.738368 
L 186.797285 599.402481 
L 187.306611 599.352165 
L 188.155488 599.687224 
L 188.579926 599.517244 
L 188.919477 599.688442 
L 189.428803 600.285891 
L 191.296332 602.448555 
L 191.890546 603.573379 
L 192.399872 604.083593 
L 192.994085 605.037236 
L 193.673187 606.330239 
L 194.182513 606.268093 
L 194.691839 605.253166 
L 194.946502 605.106425 
L 195.286053 605.172492 
L 195.710491 605.341138 
L 196.219817 605.522565 
L 196.559368 605.594515 
L 197.323357 606.023446 
L 198.257121 605.398386 
L 198.511784 605.420024 
L 198.936223 605.862071 
L 199.275773 606.471982 
L 200.12465 608.524662 
L 200.464201 609.607652 
L 202.077067 614.778491 
L 203.180606 617.446883 
L 204.453922 619.943702 
L 205.9819 622.445427 
L 207.849429 625.074678 
L 208.188979 625.56222 
L 208.273867 625.10346 
L 208.952968 614.435759 
L 211.244936 561.137685 
L 211.924037 550.918227 
L 212.433363 545.74651 
L 213.112464 541.596761 
L 213.536903 540.013518 
L 214.046229 539.383313 
L 214.216004 539.343991 
L 214.470667 539.448448 
L 214.72533 539.504343 
L 215.404432 540.450541 
L 217.102185 545.038576 
L 218.630163 550.225215 
L 218.715051 550.16765 
L 219.054602 549.937187 
L 219.139489 549.99314 
L 219.224377 549.771444 
L 219.988366 544.585396 
L 220.58258 535.196581 
L 221.261681 512.745824 
L 221.771007 491.534459 
L 222.195446 481.224919 
L 222.534996 477.158762 
L 222.874547 475.27753 
L 222.959435 475.238742 
L 223.298985 476.332926 
L 223.553648 477.885709 
L 224.23275 487.764149 
L 225.081627 504.8524 
L 226.100279 520.341652 
L 227.034043 531.290084 
L 228.052695 540.596866 
L 228.98646 547.202943 
L 230.005112 552.848803 
L 231.193539 558.152046 
L 232.551742 563.205804 
L 233.74017 566.93758 
L 234.419271 568.589351 
L 234.843709 569.173835 
L 235.268148 569.652492 
L 236.032137 569.909625 
L 236.456575 570.213826 
L 237.135677 571.013843 
L 238.83343 572.806476 
L 239.257868 572.676241 
L 239.512531 572.661887 
L 239.852082 572.667912 
L 240.106745 572.713873 
L 240.446296 572.726317 
L 240.616071 572.762468 
L 241.125397 572.250694 
L 241.295173 572.170217 
L 241.719611 571.497043 
L 241.889386 571.336991 
L 242.313825 570.702726 
L 242.568488 570.450845 
L 242.908038 570.149407 
L 243.332477 570.192342 
L 243.672028 570.534042 
L 244.351129 571.981427 
L 245.200006 573.786861 
L 245.624444 574.333524 
L 245.963995 574.414752 
L 246.218658 574.50234 
L 246.558209 574.598957 
L 246.897759 574.991215 
L 247.661748 576.055405 
L 248.510625 576.730393 
L 248.935063 577.61073 
L 249.274614 578.207005 
L 249.868828 578.270003 
L 250.293266 577.894512 
L 250.463042 577.915674 
L 250.88748 578.456547 
L 251.142143 578.733749 
L 251.481694 578.85136 
L 251.651469 578.903595 
L 252.160795 578.184943 
L 252.415458 578.231602 
L 252.755009 578.561009 
L 253.179447 579.527932 
L 254.367875 582.389807 
L 254.707425 582.902433 
L 256.065628 586.321513 
L 256.659842 586.571931 
L 257.08428 586.243178 
L 257.508719 586.220411 
L 258.357595 586.483763 
L 258.782034 586.436509 
L 259.206472 586.689182 
L 259.800686 587.082928 
L 261.583327 586.651923 
L 261.922878 586.714408 
L 262.601979 587.002858 
L 263.026418 587.753708 
L 263.365968 588.299665 
L 263.875294 588.659264 
L 264.38462 589.417986 
L 265.403272 591.516103 
L 265.742823 592.245871 
L 266.506812 592.106346 
L 266.846363 592.201789 
L 267.610352 592.385402 
L 268.03479 592.044264 
L 268.459229 591.973291 
L 269.732544 592.355232 
L 269.987207 592.348036 
L 271.090747 590.402007 
L 271.430297 590.205901 
L 271.68496 590.287063 
L 272.109399 590.73039 
L 272.533837 591.490271 
L 273.382714 593.786996 
L 273.89204 594.915872 
L 274.401366 595.587187 
L 274.99558 595.978295 
L 275.589794 595.334469 
L 276.184007 594.052766 
L 276.608446 593.320682 
L 276.863109 593.322366 
L 277.202659 593.609042 
L 278.560862 595.346095 
L 279.239964 596.814782 
L 279.74929 596.950949 
L 280.258616 596.236458 
L 280.598166 596.143462 
L 280.937717 596.337229 
L 281.531931 596.617343 
L 281.616818 596.594701 
L 282.126145 595.927979 
L 282.465695 595.899006 
L 282.890134 595.980824 
L 283.314572 595.702052 
L 283.908786 595.469313 
L 284.078561 595.573653 
L 284.587887 596.436416 
L 285.182101 598.25376 
L 286.200753 601.978699 
L 287.643843 607.243323 
L 288.747383 610.26982 
L 290.020698 613.086781 
L 291.548676 615.912961 
L 292.567329 617.48382 
L 293.331318 616.510772 
L 293.670868 616.406814 
L 294.095307 616.530042 
L 294.68952 617.012808 
L 295.538397 618.016448 
L 296.047723 619.178143 
L 297.321038 621.765091 
L 298.085028 623.037021 
L 298.933904 623.204745 
L 299.528118 623.641913 
L 300.461882 624.654209 
L 301.395647 625.935289 
L 302.074748 626.85974 
L 302.584074 627.308318 
L 303.0934 627.47832 
L 303.772502 627.160524 
L 304.451603 626.285578 
L 304.960929 625.32971 
L 306.658683 620.887536 
L 307.762222 616.69893 
L 308.526212 613.467493 
L 309.969302 601.851221 
L 312.006606 584.741489 
L 312.346157 582.428163 
L 313.110146 577.58515 
L 315.062563 567.74595 
L 315.317226 566.821669 
L 315.741664 565.408637 
L 316.335878 564.205487 
L 316.845204 563.981545 
L 316.930091 564.132238 
L 317.014979 563.677859 
L 317.694081 555.385762 
L 318.118519 553.157279 
L 318.288294 552.826869 
L 318.542957 552.999421 
L 318.79762 553.519997 
L 319.137171 555.083397 
L 319.816272 559.157573 
L 320.155823 562.078723 
L 321.089588 571.714201 
L 321.853577 577.58331 
L 322.617566 581.842751 
L 323.55133 585.647409 
L 324.400207 588.30679 
L 325.588634 591.029709 
L 327.795714 595.109342 
L 328.899254 597.881185 
L 331.615659 604.780263 
L 332.719199 606.826849 
L 336.624032 613.771656 
L 339.085775 617.646662 
L 341.971956 621.779602 
L 345.1128 625.892138 
L 348.338531 629.755157 
L 351.649151 633.377467 
L 355.044658 636.764898 
L 358.525052 639.92351 
L 362.090335 642.860179 
L 365.740505 645.582591 
L 369.56045 648.15337 
L 373.465283 650.516276 
L 377.539892 652.725569 
L 381.869163 654.816694 
L 386.36821 656.741279 
L 391.12192 658.531786 
L 396.130293 660.181178 
L 401.478216 661.708598 
L 407.250578 663.123491 
L 413.447378 664.411932 
L 420.238392 665.593085 
L 427.708508 666.661131 
L 435.942612 667.609933 
L 445.195369 668.448527 
L 455.806328 669.180803 
L 468.115041 669.801199 
L 482.885497 670.315129 
L 501.221235 670.721141 
L 525.414222 671.021832 
L 560.727495 671.219374 
L 624.393252 671.318744 
L 671.675687 671.333911 
L 671.675687 671.333911 
" clip-path="url(#p1103aa8931)" style="fill: none; stroke: #ff7f0e; stroke-width: 1.5; stroke-linecap: square"/>
   </g>
   <g id="patch_9">
    <path d="M 30.103125 684.92 
L 30.103125 386.16 
" style="fill: none; stroke: #000000; stroke-width: 0.8; stroke-linejoin: miter; stroke-linecap: square"/>
   </g>
   <g id="patch_10">
    <path d="M 702.226761 684.92 
L 702.226761 386.16 
" style="fill: none; stroke: #000000; stroke-width: 0.8; stroke-linejoin: miter; stroke-linecap: square"/>
   </g>
   <g id="patch_11">
    <path d="M 30.103125 684.92 
L 702.226761 684.92 
" style="fill: none; stroke: #000000; stroke-width: 0.8; stroke-linejoin: miter; stroke-linecap: square"/>
   </g>
   <g id="patch_12">
    <path d="M 30.103125 386.16 
L 702.226761 386.16 
" style="fill: none; stroke: #000000; stroke-width: 0.8; stroke-linejoin: miter; stroke-linecap: square"/>
   </g>
   <g id="text_33">
    <!-- 2 transformation(s) -->
    <g transform="translate(308.050256 380.16) scale(0.12 -0.12)">
     <use xlink:href="#DejaVuSans-32"/>
     <use xlink:href="#DejaVuSans-20" x="63.623047"/>
     <use xlink:href="#DejaVuSans-74" x="95.410156"/>
     <use xlink:href="#DejaVuSans-72" x="134.619141"/>
     <use xlink:href="#DejaVuSans-61" x="175.732422"/>
     <use xlink:href="#DejaVuSans-6e" x="237.011719"/>
     <use xlink:href="#DejaVuSans-73" x="300.390625"/>
     <use xlink:href="#DejaVuSans-66" x="352.490234"/>
     <use xlink:href="#DejaVuSans-6f" x="387.695312"/>
     <use xlink:href="#DejaVuSans-72" x="448.876953"/>
     <use xlink:href="#DejaVuSans-6d" x="488.240234"/>
     <use xlink:href="#DejaVuSans-61" x="585.652344"/>
     <use xlink:href="#DejaVuSans-74" x="646.931641"/>
     <use xlink:href="#DejaVuSans-69" x="686.140625"/>
     <use xlink:href="#DejaVuSans-6f" x="713.923828"/>
     <use xlink:href="#DejaVuSans-6e" x="775.105469"/>
     <use xlink:href="#DejaVuSans-28" x="838.484375"/>
     <use xlink:href="#DejaVuSans-73" x="877.498047"/>
     <use xlink:href="#DejaVuSans-29" x="929.597656"/>
    </g>
   </g>
  </g>
  <g id="text_34">
   <!-- training -->
   <g transform="translate(333.219687 16.318125) scale(0.12 -0.12)">
    <defs>
     <path id="DejaVuSans-67" d="M 2906 1791 
Q 2906 2416 2648 2759 
Q 2391 3103 1925 3103 
Q 1463 3103 1205 2759 
Q 947 2416 947 1791 
Q 947 1169 1205 825 
Q 1463 481 1925 481 
Q 2391 481 2648 825 
Q 2906 1169 2906 1791 
z
M 3481 434 
Q 3481 -459 3084 -895 
Q 2688 -1331 1869 -1331 
Q 1566 -1331 1297 -1286 
Q 1028 -1241 775 -1147 
L 775 -588 
Q 1028 -725 1275 -790 
Q 1522 -856 1778 -856 
Q 2344 -856 2625 -561 
Q 2906 -266 2906 331 
L 2906 616 
Q 2728 306 2450 153 
Q 2172 0 1784 0 
Q 1141 0 747 490 
Q 353 981 353 1791 
Q 353 2603 747 3093 
Q 1141 3584 1784 3584 
Q 2172 3584 2450 3431 
Q 2728 3278 2906 2969 
L 2906 3500 
L 3481 3500 
L 3481 434 
z
" transform="scale(0.015625)"/>
    </defs>
    <use xlink:href="#DejaVuSans-74"/>
    <use xlink:href="#DejaVuSans-72" x="39.208984"/>
    <use xlink:href="#DejaVuSans-61" x="80.322266"/>
    <use xlink:href="#DejaVuSans-69" x="141.601562"/>
    <use xlink:href="#DejaVuSans-6e" x="169.384766"/>
    <use xlink:href="#DejaVuSans-69" x="232.763672"/>
    <use xlink:href="#DejaVuSans-6e" x="260.546875"/>
    <use xlink:href="#DejaVuSans-67" x="323.925781"/>
   </g>
  </g>
 </g>
 <defs>
  <clipPath id="p0e452d62ae">
   <rect x="30.103125" y="43.44" width="672.123636" height="298.76"/>
  </clipPath>
  <clipPath id="p1103aa8931">
   <rect x="30.103125" y="386.16" width="672.123636" height="298.76"/>
  </clipPath>
 </defs>
</svg>
