<?xml version="1.0" encoding="utf-8" standalone="no"?>
<!DOCTYPE svg PUBLIC "-//W3C//DTD SVG 1.1//EN"
  "http://www.w3.org/Graphics/SVG/1.1/DTD/svg11.dtd">
<svg xmlns:xlink="http://www.w3.org/1999/xlink" width="709.336136pt" height="708.798125pt" viewBox="0 0 709.336136 708.798125" xmlns="http://www.w3.org/2000/svg" version="1.1">
 <metadata>
  <rdf:RDF xmlns:dc="http://purl.org/dc/elements/1.1/" xmlns:cc="http://creativecommons.org/ns#" xmlns:rdf="http://www.w3.org/1999/02/22-rdf-syntax-ns#">
   <cc:Work>
    <dc:type rdf:resource="http://purl.org/dc/dcmitype/StillImage"/>
    <dc:date>2023-06-13T12:49:31.708776</dc:date>
    <dc:format>image/svg+xml</dc:format>
    <dc:creator>
     <cc:Agent>
      <dc:title>Matplotlib v3.7.1, https://matplotlib.org/</dc:title>
     </cc:Agent>
    </dc:creator>
   </cc:Work>
  </rdf:RDF>
 </metadata>
 <defs>
  <style type="text/css">*{stroke-linejoin: round; stroke-linecap: butt}</style>
 </defs>
 <g id="figure_1">
  <g id="patch_1">
   <path d="M 0 708.798125 
L 709.336136 708.798125 
L 709.336136 0 
L 0 0 
z
" style="fill: #ffffff"/>
  </g>
  <g id="axes_1">
   <g id="patch_2">
    <path d="M 20.5625 342.2 
L 702.136136 342.2 
L 702.136136 43.44 
L 20.5625 43.44 
z
" style="fill: #ffffff"/>
   </g>
   <g id="matplotlib.axis_1">
    <g id="xtick_1">
     <g id="line2d_1">
      <defs>
       <path id="ma7c0e3394f" d="M 0 0 
L 0 3.5 
" style="stroke: #000000; stroke-width: 0.8"/>
      </defs>
      <g>
       <use xlink:href="#ma7c0e3394f" x="51.370957" y="342.2" style="stroke: #000000; stroke-width: 0.8"/>
      </g>
     </g>
     <g id="text_1">
      <!-- 2014-07-01 -->
      <g transform="translate(22.313145 356.798437) scale(0.1 -0.1)">
       <defs>
        <path id="DejaVuSans-32" d="M 1228 531 
L 3431 531 
L 3431 0 
L 469 0 
L 469 531 
Q 828 903 1448 1529 
Q 2069 2156 2228 2338 
Q 2531 2678 2651 2914 
Q 2772 3150 2772 3378 
Q 2772 3750 2511 3984 
Q 2250 4219 1831 4219 
Q 1534 4219 1204 4116 
Q 875 4013 500 3803 
L 500 4441 
Q 881 4594 1212 4672 
Q 1544 4750 1819 4750 
Q 2544 4750 2975 4387 
Q 3406 4025 3406 3419 
Q 3406 3131 3298 2873 
Q 3191 2616 2906 2266 
Q 2828 2175 2409 1742 
Q 1991 1309 1228 531 
z
" transform="scale(0.015625)"/>
        <path id="DejaVuSans-30" d="M 2034 4250 
Q 1547 4250 1301 3770 
Q 1056 3291 1056 2328 
Q 1056 1369 1301 889 
Q 1547 409 2034 409 
Q 2525 409 2770 889 
Q 3016 1369 3016 2328 
Q 3016 3291 2770 3770 
Q 2525 4250 2034 4250 
z
M 2034 4750 
Q 2819 4750 3233 4129 
Q 3647 3509 3647 2328 
Q 3647 1150 3233 529 
Q 2819 -91 2034 -91 
Q 1250 -91 836 529 
Q 422 1150 422 2328 
Q 422 3509 836 4129 
Q 1250 4750 2034 4750 
z
" transform="scale(0.015625)"/>
        <path id="DejaVuSans-31" d="M 794 531 
L 1825 531 
L 1825 4091 
L 703 3866 
L 703 4441 
L 1819 4666 
L 2450 4666 
L 2450 531 
L 3481 531 
L 3481 0 
L 794 0 
L 794 531 
z
" transform="scale(0.015625)"/>
        <path id="DejaVuSans-34" d="M 2419 4116 
L 825 1625 
L 2419 1625 
L 2419 4116 
z
M 2253 4666 
L 3047 4666 
L 3047 1625 
L 3713 1625 
L 3713 1100 
L 3047 1100 
L 3047 0 
L 2419 0 
L 2419 1100 
L 313 1100 
L 313 1709 
L 2253 4666 
z
" transform="scale(0.015625)"/>
        <path id="DejaVuSans-2d" d="M 313 2009 
L 1997 2009 
L 1997 1497 
L 313 1497 
L 313 2009 
z
" transform="scale(0.015625)"/>
        <path id="DejaVuSans-37" d="M 525 4666 
L 3525 4666 
L 3525 4397 
L 1831 0 
L 1172 0 
L 2766 4134 
L 525 4134 
L 525 4666 
z
" transform="scale(0.015625)"/>
       </defs>
       <use xlink:href="#DejaVuSans-32"/>
       <use xlink:href="#DejaVuSans-30" x="63.623047"/>
       <use xlink:href="#DejaVuSans-31" x="127.246094"/>
       <use xlink:href="#DejaVuSans-34" x="190.869141"/>
       <use xlink:href="#DejaVuSans-2d" x="254.492188"/>
       <use xlink:href="#DejaVuSans-30" x="290.576172"/>
       <use xlink:href="#DejaVuSans-37" x="354.199219"/>
       <use xlink:href="#DejaVuSans-2d" x="417.822266"/>
       <use xlink:href="#DejaVuSans-30" x="453.90625"/>
       <use xlink:href="#DejaVuSans-31" x="517.529297"/>
      </g>
     </g>
    </g>
    <g id="xtick_2">
     <g id="line2d_2">
      <g>
       <use xlink:href="#ma7c0e3394f" x="175.327869" y="342.2" style="stroke: #000000; stroke-width: 0.8"/>
      </g>
     </g>
     <g id="text_2">
      <!-- 2014-07-02 -->
      <g transform="translate(146.270057 356.798437) scale(0.1 -0.1)">
       <use xlink:href="#DejaVuSans-32"/>
       <use xlink:href="#DejaVuSans-30" x="63.623047"/>
       <use xlink:href="#DejaVuSans-31" x="127.246094"/>
       <use xlink:href="#DejaVuSans-34" x="190.869141"/>
       <use xlink:href="#DejaVuSans-2d" x="254.492188"/>
       <use xlink:href="#DejaVuSans-30" x="290.576172"/>
       <use xlink:href="#DejaVuSans-37" x="354.199219"/>
       <use xlink:href="#DejaVuSans-2d" x="417.822266"/>
       <use xlink:href="#DejaVuSans-30" x="453.90625"/>
       <use xlink:href="#DejaVuSans-32" x="517.529297"/>
      </g>
     </g>
    </g>
    <g id="xtick_3">
     <g id="line2d_3">
      <g>
       <use xlink:href="#ma7c0e3394f" x="299.284781" y="342.2" style="stroke: #000000; stroke-width: 0.8"/>
      </g>
     </g>
     <g id="text_3">
      <!-- 2014-07-03 -->
      <g transform="translate(270.226969 356.798437) scale(0.1 -0.1)">
       <defs>
        <path id="DejaVuSans-33" d="M 2597 2516 
Q 3050 2419 3304 2112 
Q 3559 1806 3559 1356 
Q 3559 666 3084 287 
Q 2609 -91 1734 -91 
Q 1441 -91 1130 -33 
Q 819 25 488 141 
L 488 750 
Q 750 597 1062 519 
Q 1375 441 1716 441 
Q 2309 441 2620 675 
Q 2931 909 2931 1356 
Q 2931 1769 2642 2001 
Q 2353 2234 1838 2234 
L 1294 2234 
L 1294 2753 
L 1863 2753 
Q 2328 2753 2575 2939 
Q 2822 3125 2822 3475 
Q 2822 3834 2567 4026 
Q 2313 4219 1838 4219 
Q 1578 4219 1281 4162 
Q 984 4106 628 3988 
L 628 4550 
Q 988 4650 1302 4700 
Q 1616 4750 1894 4750 
Q 2613 4750 3031 4423 
Q 3450 4097 3450 3541 
Q 3450 3153 3228 2886 
Q 3006 2619 2597 2516 
z
" transform="scale(0.015625)"/>
       </defs>
       <use xlink:href="#DejaVuSans-32"/>
       <use xlink:href="#DejaVuSans-30" x="63.623047"/>
       <use xlink:href="#DejaVuSans-31" x="127.246094"/>
       <use xlink:href="#DejaVuSans-34" x="190.869141"/>
       <use xlink:href="#DejaVuSans-2d" x="254.492188"/>
       <use xlink:href="#DejaVuSans-30" x="290.576172"/>
       <use xlink:href="#DejaVuSans-37" x="354.199219"/>
       <use xlink:href="#DejaVuSans-2d" x="417.822266"/>
       <use xlink:href="#DejaVuSans-30" x="453.90625"/>
       <use xlink:href="#DejaVuSans-33" x="517.529297"/>
      </g>
     </g>
    </g>
    <g id="xtick_4">
     <g id="line2d_4">
      <g>
       <use xlink:href="#ma7c0e3394f" x="423.241693" y="342.2" style="stroke: #000000; stroke-width: 0.8"/>
      </g>
     </g>
     <g id="text_4">
      <!-- 2014-07-04 -->
      <g transform="translate(394.18388 356.798437) scale(0.1 -0.1)">
       <use xlink:href="#DejaVuSans-32"/>
       <use xlink:href="#DejaVuSans-30" x="63.623047"/>
       <use xlink:href="#DejaVuSans-31" x="127.246094"/>
       <use xlink:href="#DejaVuSans-34" x="190.869141"/>
       <use xlink:href="#DejaVuSans-2d" x="254.492188"/>
       <use xlink:href="#DejaVuSans-30" x="290.576172"/>
       <use xlink:href="#DejaVuSans-37" x="354.199219"/>
       <use xlink:href="#DejaVuSans-2d" x="417.822266"/>
       <use xlink:href="#DejaVuSans-30" x="453.90625"/>
       <use xlink:href="#DejaVuSans-34" x="517.529297"/>
      </g>
     </g>
    </g>
    <g id="xtick_5">
     <g id="line2d_5">
      <g>
       <use xlink:href="#ma7c0e3394f" x="547.198605" y="342.2" style="stroke: #000000; stroke-width: 0.8"/>
      </g>
     </g>
     <g id="text_5">
      <!-- 2014-07-05 -->
      <g transform="translate(518.140792 356.798437) scale(0.1 -0.1)">
       <defs>
        <path id="DejaVuSans-35" d="M 691 4666 
L 3169 4666 
L 3169 4134 
L 1269 4134 
L 1269 2991 
Q 1406 3038 1543 3061 
Q 1681 3084 1819 3084 
Q 2600 3084 3056 2656 
Q 3513 2228 3513 1497 
Q 3513 744 3044 326 
Q 2575 -91 1722 -91 
Q 1428 -91 1123 -41 
Q 819 9 494 109 
L 494 744 
Q 775 591 1075 516 
Q 1375 441 1709 441 
Q 2250 441 2565 725 
Q 2881 1009 2881 1497 
Q 2881 1984 2565 2268 
Q 2250 2553 1709 2553 
Q 1456 2553 1204 2497 
Q 953 2441 691 2322 
L 691 4666 
z
" transform="scale(0.015625)"/>
       </defs>
       <use xlink:href="#DejaVuSans-32"/>
       <use xlink:href="#DejaVuSans-30" x="63.623047"/>
       <use xlink:href="#DejaVuSans-31" x="127.246094"/>
       <use xlink:href="#DejaVuSans-34" x="190.869141"/>
       <use xlink:href="#DejaVuSans-2d" x="254.492188"/>
       <use xlink:href="#DejaVuSans-30" x="290.576172"/>
       <use xlink:href="#DejaVuSans-37" x="354.199219"/>
       <use xlink:href="#DejaVuSans-2d" x="417.822266"/>
       <use xlink:href="#DejaVuSans-30" x="453.90625"/>
       <use xlink:href="#DejaVuSans-35" x="517.529297"/>
      </g>
     </g>
    </g>
    <g id="xtick_6">
     <g id="line2d_6">
      <g>
       <use xlink:href="#ma7c0e3394f" x="671.155517" y="342.2" style="stroke: #000000; stroke-width: 0.8"/>
      </g>
     </g>
     <g id="text_6">
      <!-- 2014-07-06 -->
      <g transform="translate(642.097704 356.798437) scale(0.1 -0.1)">
       <defs>
        <path id="DejaVuSans-36" d="M 2113 2584 
Q 1688 2584 1439 2293 
Q 1191 2003 1191 1497 
Q 1191 994 1439 701 
Q 1688 409 2113 409 
Q 2538 409 2786 701 
Q 3034 994 3034 1497 
Q 3034 2003 2786 2293 
Q 2538 2584 2113 2584 
z
M 3366 4563 
L 3366 3988 
Q 3128 4100 2886 4159 
Q 2644 4219 2406 4219 
Q 1781 4219 1451 3797 
Q 1122 3375 1075 2522 
Q 1259 2794 1537 2939 
Q 1816 3084 2150 3084 
Q 2853 3084 3261 2657 
Q 3669 2231 3669 1497 
Q 3669 778 3244 343 
Q 2819 -91 2113 -91 
Q 1303 -91 875 529 
Q 447 1150 447 2328 
Q 447 3434 972 4092 
Q 1497 4750 2381 4750 
Q 2619 4750 2861 4703 
Q 3103 4656 3366 4563 
z
" transform="scale(0.015625)"/>
       </defs>
       <use xlink:href="#DejaVuSans-32"/>
       <use xlink:href="#DejaVuSans-30" x="63.623047"/>
       <use xlink:href="#DejaVuSans-31" x="127.246094"/>
       <use xlink:href="#DejaVuSans-34" x="190.869141"/>
       <use xlink:href="#DejaVuSans-2d" x="254.492188"/>
       <use xlink:href="#DejaVuSans-30" x="290.576172"/>
       <use xlink:href="#DejaVuSans-37" x="354.199219"/>
       <use xlink:href="#DejaVuSans-2d" x="417.822266"/>
       <use xlink:href="#DejaVuSans-30" x="453.90625"/>
       <use xlink:href="#DejaVuSans-36" x="517.529297"/>
      </g>
     </g>
    </g>
   </g>
   <g id="matplotlib.axis_2">
    <g id="ytick_1">
     <g id="line2d_7">
      <defs>
       <path id="m219c2c3b46" d="M 0 0 
L -3.5 0 
" style="stroke: #000000; stroke-width: 0.8"/>
      </defs>
      <g>
       <use xlink:href="#m219c2c3b46" x="20.5625" y="328.614561" style="stroke: #000000; stroke-width: 0.8"/>
      </g>
     </g>
     <g id="text_7">
      <!-- 0 -->
      <g transform="translate(7.2 332.41378) scale(0.1 -0.1)">
       <use xlink:href="#DejaVuSans-30"/>
      </g>
     </g>
    </g>
    <g id="ytick_2">
     <g id="line2d_8">
      <g>
       <use xlink:href="#m219c2c3b46" x="20.5625" y="292.854268" style="stroke: #000000; stroke-width: 0.8"/>
      </g>
     </g>
     <g id="text_8">
      <!-- 1 -->
      <g transform="translate(7.2 296.653486) scale(0.1 -0.1)">
       <use xlink:href="#DejaVuSans-31"/>
      </g>
     </g>
    </g>
    <g id="ytick_3">
     <g id="line2d_9">
      <g>
       <use xlink:href="#m219c2c3b46" x="20.5625" y="257.093974" style="stroke: #000000; stroke-width: 0.8"/>
      </g>
     </g>
     <g id="text_9">
      <!-- 2 -->
      <g transform="translate(7.2 260.893193) scale(0.1 -0.1)">
       <use xlink:href="#DejaVuSans-32"/>
      </g>
     </g>
    </g>
    <g id="ytick_4">
     <g id="line2d_10">
      <g>
       <use xlink:href="#m219c2c3b46" x="20.5625" y="221.333681" style="stroke: #000000; stroke-width: 0.8"/>
      </g>
     </g>
     <g id="text_10">
      <!-- 3 -->
      <g transform="translate(7.2 225.1329) scale(0.1 -0.1)">
       <use xlink:href="#DejaVuSans-33"/>
      </g>
     </g>
    </g>
    <g id="ytick_5">
     <g id="line2d_11">
      <g>
       <use xlink:href="#m219c2c3b46" x="20.5625" y="185.573388" style="stroke: #000000; stroke-width: 0.8"/>
      </g>
     </g>
     <g id="text_11">
      <!-- 4 -->
      <g transform="translate(7.2 189.372606) scale(0.1 -0.1)">
       <use xlink:href="#DejaVuSans-34"/>
      </g>
     </g>
    </g>
    <g id="ytick_6">
     <g id="line2d_12">
      <g>
       <use xlink:href="#m219c2c3b46" x="20.5625" y="149.813094" style="stroke: #000000; stroke-width: 0.8"/>
      </g>
     </g>
     <g id="text_12">
      <!-- 5 -->
      <g transform="translate(7.2 153.612313) scale(0.1 -0.1)">
       <use xlink:href="#DejaVuSans-35"/>
      </g>
     </g>
    </g>
    <g id="ytick_7">
     <g id="line2d_13">
      <g>
       <use xlink:href="#m219c2c3b46" x="20.5625" y="114.052801" style="stroke: #000000; stroke-width: 0.8"/>
      </g>
     </g>
     <g id="text_13">
      <!-- 6 -->
      <g transform="translate(7.2 117.852019) scale(0.1 -0.1)">
       <use xlink:href="#DejaVuSans-36"/>
      </g>
     </g>
    </g>
    <g id="ytick_8">
     <g id="line2d_14">
      <g>
       <use xlink:href="#m219c2c3b46" x="20.5625" y="78.292507" style="stroke: #000000; stroke-width: 0.8"/>
      </g>
     </g>
     <g id="text_14">
      <!-- 7 -->
      <g transform="translate(7.2 82.091726) scale(0.1 -0.1)">
       <use xlink:href="#DejaVuSans-37"/>
      </g>
     </g>
    </g>
   </g>
   <g id="line2d_15">
    <path d="M 51.54312 328.58016 
L 52.059607 328.420661 
L 52.403932 328.237038 
L 52.748256 328.042228 
L 53.178662 327.794221 
L 53.867312 327.382654 
L 54.383799 327.029785 
L 54.900286 326.665982 
L 57.052316 325.185517 
L 57.568803 324.533243 
L 58.860021 323.722883 
L 59.720833 323.281284 
L 60.495563 323.08746 
L 61.270294 323.127771 
L 62.303268 323.421553 
L 65.230029 324.435124 
L 65.918678 324.4287 
L 66.263003 324.363788 
L 66.77949 324.016948 
L 67.46814 323.379473 
L 67.898546 322.723595 
L 68.156789 322.23266 
L 69.361926 316.414446 
L 69.964494 312.551575 
L 71.08355 305.455338 
L 71.255712 304.789076 
L 71.513956 303.562721 
L 71.85828 302.692679 
L 72.202605 300.953357 
L 72.374768 300.334256 
L 72.977336 297.283284 
L 73.924229 294.484845 
L 74.01031 294.245448 
L 74.096391 294.282662 
L 74.268554 294.144265 
L 74.526797 293.769052 
L 74.612878 293.59789 
L 74.785041 293.72126 
L 75.215447 293.076888 
L 75.301528 293.194341 
L 75.47369 293.156684 
L 75.645853 293.001193 
L 75.818015 292.783468 
L 75.990177 293.012961 
L 76.076259 292.975621 
L 76.334502 293.346812 
L 76.506665 293.234131 
L 76.764908 293.635694 
L 76.850989 293.678404 
L 77.109233 293.452851 
L 77.281395 293.725683 
L 77.539639 293.583912 
L 77.711801 293.389659 
L 77.883964 293.575138 
L 78.31437 293.021734 
L 78.400451 293.155022 
L 78.572613 293.123282 
L 78.916938 293.063971 
L 80.208156 296.503574 
L 80.466399 297.600911 
L 80.55248 297.392507 
L 81.155049 289.124213 
L 81.327211 288.849704 
L 81.585455 288.18212 
L 81.757617 288.403862 
L 81.929779 288.867156 
L 82.101942 290.093639 
L 82.618429 296.509538 
L 83.220997 303.857481 
L 83.737484 308.413075 
L 84.16789 311.256145 
L 84.253972 310.534806 
L 85.114783 269.342368 
L 85.717352 211.047681 
L 86.492082 141.416838 
L 87.094651 76.65444 
L 87.180732 76.405466 
L 87.266813 76.952557 
L 87.352894 76.576223 
L 87.611138 70.682392 
L 87.869381 66.389456 
L 88.385869 57.02 
L 88.47195 57.08432 
L 88.902356 65.602019 
L 89.160599 80.61229 
L 89.504924 130.696502 
L 89.677086 171.374187 
L 89.849249 199.699751 
L 90.279655 210.761977 
L 90.796142 221.541867 
L 91.656954 236.792211 
L 92.345603 250.484674 
L 94.841958 281.69266 
L 95.01412 282.436111 
L 95.444526 285.024081 
L 95.70277 283.991733 
L 95.788851 284.001299 
L 96.047094 282.641829 
L 96.735744 267.380392 
L 97.338312 234.665668 
L 98.026962 172.570953 
L 98.113043 171.838201 
L 98.371287 184.825153 
L 99.490342 263.344913 
L 100.09291 282.983693 
L 100.609397 293.812496 
L 101.125885 300.710586 
L 101.556291 304.267333 
L 102.072778 306.99105 
L 103.277914 311.522205 
L 104.39697 314.757991 
L 105.257782 316.534421 
L 105.774269 317.29037 
L 106.635081 318.043291 
L 107.409811 318.444412 
L 108.098461 318.609578 
L 108.959273 318.589266 
L 109.992247 318.341466 
L 112.919007 317.207506 
L 113.349413 317.021105 
L 113.435495 316.818196 
L 114.296306 310.580986 
L 115.157118 308.505405 
L 115.587524 307.795974 
L 115.759687 307.934739 
L 116.190093 308.914561 
L 117.309148 312.112103 
L 117.997798 313.124052 
L 118.686447 313.473317 
L 119.289015 313.463827 
L 120.838477 312.980611 
L 121.354964 312.658646 
L 121.613207 312.50481 
L 121.957532 312.276205 
L 122.215776 312.096061 
L 122.560101 311.844987 
L 122.732263 311.825814 
L 123.162669 311.476045 
L 123.334831 311.456292 
L 123.765237 311.063643 
L 123.9374 311.037322 
L 124.367806 310.626692 
L 124.539968 310.602133 
L 124.970374 310.175888 
L 125.142536 310.141204 
L 125.572942 309.651286 
L 125.831186 309.599139 
L 126.17551 309.234735 
L 126.433754 309.226734 
L 126.778079 308.781214 
L 127.036322 308.778673 
L 127.380647 308.303777 
L 127.638891 308.273152 
L 127.983215 307.771754 
L 128.241459 307.713387 
L 128.585784 307.139923 
L 128.930109 307.041924 
L 129.188352 306.716795 
L 129.360514 306.703488 
L 129.532677 306.661065 
L 129.79092 306.229933 
L 129.963083 306.224355 
L 130.135245 306.165307 
L 130.393489 305.679395 
L 130.565651 305.679361 
L 130.737813 305.63489 
L 130.909976 305.502815 
L 131.082138 305.576287 
L 131.856869 306.827647 
L 132.545518 309.031571 
L 134.525386 315.826637 
L 135.386198 317.881239 
L 136.419172 319.810776 
L 137.624309 321.528327 
L 138.915526 322.775243 
L 139.432014 323.128474 
L 139.690257 323.015869 
L 139.948501 322.839795 
L 140.120663 322.290052 
L 140.63715 320.587756 
L 141.153637 318.144565 
L 142.78918 313.503059 
L 143.047423 313.134262 
L 143.477829 313.054372 
L 144.25256 313.475601 
L 144.596885 313.658129 
L 145.199453 313.839626 
L 145.71594 313.984483 
L 145.974184 313.879556 
L 146.40459 313.533512 
L 147.351483 312.134398 
L 147.609726 311.876299 
L 148.470538 311.231568 
L 148.728782 311.20123 
L 149.073107 311.333777 
L 149.503513 311.648347 
L 149.847837 311.704438 
L 150.364325 312.130177 
L 150.880812 312.676533 
L 151.311218 312.752871 
L 151.48338 312.563845 
L 151.827705 312.094137 
L 152.172029 311.572068 
L 152.602435 311.344203 
L 153.377166 310.506664 
L 153.63541 310.435304 
L 153.979734 310.505854 
L 154.237978 310.810177 
L 155.012709 312.249431 
L 155.701358 313.512374 
L 156.734332 313.862928 
L 156.820414 313.871539 
L 157.853388 312.562445 
L 158.455956 312.454166 
L 159.058525 312.784003 
L 159.230687 312.938982 
L 159.747174 312.526457 
L 159.919336 312.489644 
L 160.263661 312.063631 
L 160.521905 312.00502 
L 162.071366 309.007758 
L 162.760016 309.441666 
L 163.362584 310.558981 
L 163.965152 311.805593 
L 164.395558 312.401773 
L 165.25637 312.797999 
L 166.375426 313.587674 
L 166.805832 313.682263 
L 167.322319 313.76792 
L 167.924887 313.205909 
L 168.269212 313.085758 
L 168.527455 313.153511 
L 169.388267 312.060441 
L 169.732592 311.467996 
L 169.990836 310.995302 
L 170.249079 310.608305 
L 170.765566 310.517502 
L 171.798541 311.258709 
L 172.228946 311.954094 
L 173.520164 314.518569 
L 174.036651 314.448438 
L 174.208814 314.280545 
L 174.467057 313.929309 
L 174.897463 313.263071 
L 175.500032 311.978702 
L 175.844356 311.521963 
L 176.1026 311.226374 
L 176.533006 310.796251 
L 176.705168 310.631511 
L 177.393818 309.9999 
L 177.652061 309.676723 
L 177.824224 309.600446 
L 178.168549 309.216942 
L 178.512873 309.203556 
L 178.857198 308.782361 
L 179.459766 308.702328 
L 180.492741 309.645763 
L 180.750984 309.555994 
L 181.009228 309.60547 
L 181.267471 309.72809 
L 181.956121 310.4438 
L 182.558689 310.890032 
L 183.33342 311.558927 
L 184.280313 312.806965 
L 184.538556 312.911917 
L 186.088018 314.210543 
L 186.518424 313.888526 
L 187.293155 312.036063 
L 187.551398 311.839956 
L 187.895723 311.774638 
L 188.842616 311.409537 
L 189.445184 311.903045 
L 189.617347 312.114468 
L 190.392077 311.496549 
L 190.650321 311.257359 
L 191.425052 311.387334 
L 191.855458 311.827279 
L 192.285863 312.607921 
L 192.888432 314.222158 
L 194.610056 318.829812 
L 195.64303 320.750797 
L 196.245598 321.584988 
L 197.364654 322.74773 
L 198.56979 323.625386 
L 199.947089 324.342437 
L 200.72182 324.688382 
L 200.807901 323.83457 
L 201.066145 317.887708 
L 202.787768 277.107233 
L 203.132093 275.154883 
L 203.304256 275.109248 
L 203.476418 274.035942 
L 203.906824 272.887445 
L 204.165068 271.690146 
L 204.251149 271.725128 
L 204.767636 270.217976 
L 204.853717 270.424192 
L 204.939798 270.373344 
L 205.111961 270.639169 
L 205.198042 270.457107 
L 205.284123 270.597857 
L 206.058854 274.928776 
L 206.661422 279.928558 
L 207.091828 283.96419 
L 208.124802 291.752736 
L 208.899533 295.18811 
L 210.10467 299.482468 
L 210.276832 299.782987 
L 210.448994 300.243728 
L 210.707238 300.898875 
L 210.8794 301.12485 
L 211.051563 301.498219 
L 211.309806 301.988327 
L 211.654131 301.090326 
L 211.740212 301.049828 
L 211.912374 300.246034 
L 212.428862 296.103094 
L 212.601024 295.044161 
L 213.203592 286.54291 
L 213.892242 263.716452 
L 214.666973 192.809224 
L 214.753054 193.173135 
L 214.925216 199.690296 
L 215.95819 266.248939 
L 216.474677 284.221132 
L 216.991165 295.983691 
L 217.507652 303.609272 
L 218.024139 307.990478 
L 218.454545 310.471217 
L 219.229276 313.489502 
L 220.26225 316.287582 
L 221.381305 318.735392 
L 222.586442 320.856105 
L 223.102929 321.539685 
L 224.308066 322.788044 
L 225.599284 323.713423 
L 226.632258 324.188235 
L 227.062664 324.208727 
L 227.406988 324.175125 
L 227.751313 323.835109 
L 228.095638 323.370534 
L 228.870369 321.155427 
L 229.645099 319.47106 
L 230.41983 317.84837 
L 231.538886 315.040562 
L 233.949159 310.769279 
L 235.842945 307.15102 
L 236.445513 307.128801 
L 236.962 308.002301 
L 238.425381 311.060107 
L 238.597543 311.247339 
L 239.974842 310.115379 
L 240.233086 310.112378 
L 240.57741 310.16496 
L 241.438222 310.207065 
L 241.782547 310.556114 
L 242.471197 311.245284 
L 242.987684 310.740961 
L 243.504171 309.901349 
L 243.762414 309.69262 
L 244.020658 309.826093 
L 244.19282 309.922851 
L 244.623226 309.628036 
L 244.795389 309.61539 
L 245.225795 308.841863 
L 245.484038 308.666146 
L 245.6562 308.652053 
L 245.914444 308.974582 
L 246.861337 310.439074 
L 247.636068 311.868809 
L 247.980393 312.411097 
L 249.099448 314.182428 
L 249.788098 313.8935 
L 250.390666 312.646866 
L 250.821072 311.859859 
L 251.165397 311.549743 
L 251.940127 310.668859 
L 252.284452 310.5731 
L 252.628777 310.648752 
L 252.973102 310.862095 
L 253.145264 310.787789 
L 253.317426 310.691096 
L 253.489589 310.67521 
L 253.919995 310.095401 
L 254.092157 310.030159 
L 254.436482 309.667089 
L 254.780806 309.544793 
L 255.211212 309.288732 
L 255.813781 309.363278 
L 256.50243 310.446594 
L 256.760674 310.703086 
L 257.104999 310.839734 
L 258.310135 312.068367 
L 259.084866 313.00934 
L 260.290003 312.031714 
L 261.064733 311.434443 
L 261.58122 310.489007 
L 261.839464 310.225129 
L 262.097708 310.335523 
L 262.355951 310.342395 
L 262.614195 310.348399 
L 262.786357 310.452337 
L 263.216763 310.238306 
L 263.388925 310.238336 
L 263.819331 309.506083 
L 263.991494 309.292115 
L 264.335818 308.251746 
L 264.507981 308.061993 
L 264.852306 307.543805 
L 265.110549 307.620794 
L 265.540955 307.9614 
L 265.88528 308.698312 
L 266.573929 310.808902 
L 267.176498 312.601445 
L 267.434741 312.981492 
L 267.865147 313.303017 
L 268.295553 313.316166 
L 268.381634 313.301379 
L 269.070284 311.753005 
L 269.931096 308.790893 
L 270.447583 308.150671 
L 270.705826 308.299817 
L 271.136232 308.886032 
L 272.771775 312.24101 
L 272.943937 312.304901 
L 273.374343 311.978415 
L 274.149074 310.534733 
L 274.407318 310.474576 
L 274.57948 310.454372 
L 275.009886 310.108868 
L 275.182048 310.086813 
L 275.612454 309.530474 
L 275.870698 309.476366 
L 276.128941 309.522408 
L 276.387185 309.81318 
L 277.334078 308.884352 
L 277.678403 309.026196 
L 277.936646 309.273087 
L 278.367052 310.128652 
L 278.969621 311.782818 
L 281.035569 318.048123 
L 281.982462 320.020549 
L 283.015436 321.621443 
L 284.134492 322.785702 
L 285.339629 323.6615 
L 286.20044 324.133147 
L 286.286522 324.096603 
L 286.544765 323.536317 
L 286.803009 322.931844 
L 287.233415 321.814923 
L 287.749902 320.956024 
L 288.008145 320.910353 
L 288.35247 320.90654 
L 288.696795 320.606939 
L 289.299363 320.023742 
L 290.074094 319.704393 
L 290.418419 319.815946 
L 290.934906 320.291965 
L 292.140042 321.534763 
L 292.484367 321.492307 
L 293.000854 321.495208 
L 293.947747 321.577569 
L 294.722478 321.726408 
L 296.185858 321.764105 
L 296.874508 321.533122 
L 297.304914 321.176535 
L 297.563157 320.783301 
L 298.079644 319.822326 
L 299.887349 313.587737 
L 301.436811 307.205648 
L 302.297623 304.933608 
L 302.469785 304.456459 
L 302.81411 302.813836 
L 302.986272 302.22328 
L 303.588841 298.867835 
L 304.27749 295.302818 
L 304.621815 294.082053 
L 304.880058 293.585028 
L 305.138302 293.053819 
L 305.310464 293.187578 
L 305.396545 293.1075 
L 305.654789 293.414894 
L 305.826951 293.270365 
L 306.085195 293.649045 
L 306.171276 293.677594 
L 306.42952 293.450794 
L 306.601682 293.717184 
L 306.946007 293.516992 
L 307.032088 293.384117 
L 307.20425 293.564396 
L 307.634656 293.019794 
L 307.720738 293.171319 
L 307.8929 293.124249 
L 307.978981 293.111561 
L 308.237225 292.77646 
L 308.409387 293.007922 
L 308.495468 292.967049 
L 308.753712 293.34311 
L 308.925874 293.235476 
L 309.184118 293.638072 
L 309.442361 293.719738 
L 309.528443 293.741799 
L 309.786686 294.235614 
L 310.217092 294.938281 
L 310.991823 297.09662 
L 311.077904 296.839271 
L 311.680472 288.739255 
L 311.852635 288.578827 
L 312.110878 288.066786 
L 312.369122 288.599724 
L 312.541284 289.423153 
L 312.885609 293.145164 
L 313.832502 304.692625 
L 314.43507 309.38564 
L 315.037639 312.558171 
L 315.640207 314.690608 
L 316.414938 316.354465 
L 316.931425 317.031486 
L 317.533993 317.436415 
L 318.308724 317.642399 
L 319.169536 317.578528 
L 319.944266 317.337751 
L 321.66589 316.915614 
L 322.268458 317.155119 
L 322.957108 317.678367 
L 323.731839 318.578574 
L 326.658599 322.037682 
L 328.380223 323.191569 
L 329.929684 323.905813 
L 331.909552 324.592561 
L 334.319825 325.345993 
L 336.557936 326.041209 
L 337.246585 326.242972 
L 350.58917 327.798197 
L 357.13134 328.119997 
L 366.858514 328.335765 
L 384.591239 328.48561 
L 425.22156 328.575769 
L 505.621391 328.606235 
L 540.570353 328.606748 
L 552.966044 328.605989 
L 567.513765 328.605292 
L 573.195124 328.605488 
L 671.155517 328.605361 
L 671.155517 328.605361 
" clip-path="url(#p568d23fd1b)" style="fill: none; stroke: #1f77b4; stroke-width: 1.5; stroke-linecap: square"/>
   </g>
   <g id="line2d_16">
    <path d="M 51.54312 328.603809 
L 52.231769 328.557376 
L 52.748256 327.98779 
L 54.814205 324.68456 
L 55.502855 323.989823 
L 56.277585 323.305267 
L 56.62191 323.071611 
L 57.052316 322.793135 
L 57.654884 322.393138 
L 57.913128 322.289568 
L 58.257453 322.144922 
L 58.429615 322.080993 
L 58.946102 321.802177 
L 59.290427 321.814688 
L 59.634752 322.094865 
L 60.065158 322.710236 
L 62.561512 326.987841 
L 63.336243 327.655212 
L 64.024892 327.994556 
L 64.541379 327.799661 
L 65.143948 326.858632 
L 65.918678 324.631346 
L 67.554221 318.692891 
L 67.812465 317.685931 
L 68.673276 314.118267 
L 69.017601 312.825751 
L 69.792332 309.701616 
L 70.480981 307.588746 
L 72.116524 302.222731 
L 73.063417 297.65162 
L 73.579904 295.828808 
L 74.268554 293.791159 
L 74.612878 293.025126 
L 74.957203 292.320556 
L 75.215447 291.859877 
L 75.559771 291.351337 
L 75.731934 291.149672 
L 76.16234 290.663745 
L 76.420583 290.686246 
L 76.850989 290.575203 
L 77.023152 290.547551 
L 77.453558 290.373413 
L 77.62572 290.322752 
L 78.056126 290.123258 
L 78.228288 290.072253 
L 78.572613 289.859088 
L 78.830857 289.932805 
L 79.175181 289.942273 
L 79.347344 290.19254 
L 79.691669 290.699178 
L 79.949912 291.263943 
L 80.380318 292.308526 
L 80.466399 292.431804 
L 80.896805 290.59629 
L 81.413292 288.016803 
L 81.671536 287.518931 
L 81.843698 287.614388 
L 82.015861 287.951257 
L 82.274104 289.008533 
L 82.618429 291.486698 
L 83.134916 297.096674 
L 84.16789 309.699041 
L 84.253972 309.410717 
L 84.684378 302.505376 
L 84.942621 293.792344 
L 85.200865 275.626233 
L 86.406001 151.088544 
L 86.750326 116.229587 
L 87.611138 68.124266 
L 87.7833 63.7455 
L 87.869381 63.584591 
L 88.47195 73.423013 
L 89.074518 104.16736 
L 90.537898 181.537079 
L 91.39871 216.102976 
L 92.259522 242.229146 
L 92.948172 256.817164 
L 93.636821 267.120987 
L 94.411552 275.182394 
L 95.186283 280.670756 
L 95.530607 281.981117 
L 95.874932 282.583726 
L 95.961013 282.621884 
L 96.4775 281.494363 
L 96.563582 281.151051 
L 96.993987 276.275008 
L 97.252231 271.270826 
L 97.424393 264.63838 
L 98.199124 221.008671 
L 98.285205 220.973342 
L 98.457368 223.24809 
L 99.059936 239.910004 
L 99.920748 262.575365 
L 100.78156 279.945226 
L 101.642372 292.759695 
L 102.847508 306.83666 
L 103.536158 313.049838 
L 104.224807 317.444879 
L 104.827376 320.033455 
L 105.429944 321.671798 
L 106.032512 322.648 
L 106.721162 323.23002 
L 108.098461 323.640629 
L 110.078328 323.104201 
L 110.853059 322.919492 
L 111.111302 322.892729 
L 112.058196 322.40565 
L 112.316439 322.328475 
L 112.746845 322.072185 
L 113.005089 321.923413 
L 113.521576 321.459303 
L 113.8659 318.159492 
L 114.468469 312.673524 
L 114.812794 311.231433 
L 115.071037 310.791828 
L 115.2432 310.848033 
L 115.759687 311.695167 
L 116.878742 314.871723 
L 117.567392 316.24539 
L 118.16996 316.875571 
L 118.772528 317.106343 
L 118.944691 317.177086 
L 119.116853 317.199592 
L 119.547259 317.049768 
L 119.805503 317.158462 
L 120.235908 317.065622 
L 120.408071 317.035387 
L 120.838477 316.769563 
L 121.010639 316.682586 
L 121.441045 316.308002 
L 121.613207 316.191709 
L 122.043613 315.764041 
L 122.215776 315.634816 
L 122.646182 315.141726 
L 122.904425 315.122727 
L 123.334831 314.820381 
L 123.506994 314.722503 
L 123.9374 314.284234 
L 124.109562 314.14117 
L 124.539968 313.619772 
L 124.71213 313.456396 
L 125.142536 312.90233 
L 125.314699 312.733052 
L 125.745105 312.123312 
L 125.917267 312.175103 
L 126.433754 311.70723 
L 126.519835 311.705941 
L 127.638891 310.2775 
L 127.724972 310.241175 
L 128.241459 309.44055 
L 128.32754 309.402451 
L 128.844027 308.542373 
L 129.01619 308.594296 
L 129.532677 308.053696 
L 129.618758 308.049083 
L 130.737813 306.420822 
L 131.254301 306.36777 
L 131.684707 307.320398 
L 132.029031 308.671308 
L 132.889843 313.449289 
L 134.181061 320.471321 
L 134.955792 323.450761 
L 135.644441 325.290343 
L 136.333091 326.530056 
L 137.02174 327.337608 
L 137.796471 327.893105 
L 138.657283 328.237672 
L 139.518095 328.423804 
L 139.776338 327.623184 
L 140.206744 325.659388 
L 141.3258 318.329033 
L 141.928368 316.44815 
L 142.186612 316.28993 
L 142.358774 316.424385 
L 142.875261 317.386408 
L 143.391748 318.169318 
L 143.994317 318.188868 
L 144.338641 317.932172 
L 144.596885 317.918725 
L 145.027291 317.627669 
L 145.285534 317.708299 
L 145.543778 318.014054 
L 145.802022 318.403684 
L 146.060265 318.240642 
L 146.40459 317.892986 
L 147.523645 314.96221 
L 148.126214 314.587595 
L 148.298376 314.638085 
L 148.642701 314.657 
L 149.073107 315.167435 
L 149.589594 315.975737 
L 150.106081 315.63469 
L 150.364325 315.788501 
L 150.622568 316.300166 
L 150.880812 316.708891 
L 151.311218 317.081811 
L 151.569461 316.415664 
L 152.172029 314.654578 
L 152.430273 314.284586 
L 152.602435 314.108411 
L 152.94676 313.647713 
L 153.205004 313.56724 
L 153.549329 313.350383 
L 153.721491 313.443586 
L 154.151897 314.136923 
L 154.668384 315.687231 
L 155.701358 318.973227 
L 155.873521 318.828 
L 156.734332 317.539803 
L 156.906495 317.560808 
L 157.25082 316.574176 
L 157.681226 315.561304 
L 157.939469 315.346186 
L 158.197713 315.539481 
L 158.542037 316.239283 
L 159.230687 318.065925 
L 159.316768 318.234274 
L 159.488931 317.978573 
L 161.813123 311.475831 
L 161.985285 311.349309 
L 162.157447 311.464432 
L 162.415691 312.077535 
L 163.10434 313.600437 
L 163.620828 315.501265 
L 163.879071 316.193726 
L 164.309477 316.634865 
L 164.567721 316.328755 
L 164.912045 315.935915 
L 165.170289 315.827119 
L 165.342451 315.914487 
L 165.686776 316.47211 
L 166.117182 317.66554 
L 166.375426 318.194553 
L 166.891913 318.504617 
L 167.494481 318.132083 
L 168.183131 316.346207 
L 168.355293 316.270753 
L 168.527455 316.423929 
L 168.699618 316.475198 
L 169.388267 315.719688 
L 170.421242 313.337671 
L 170.679485 313.240975 
L 170.851647 313.397242 
L 171.540297 314.724453 
L 172.401109 316.901135 
L 173.348002 319.717641 
L 173.606245 320.020695 
L 173.692327 319.906936 
L 174.208814 318.63617 
L 175.41395 314.524106 
L 175.758275 314.065619 
L 175.930438 314.053868 
L 176.188681 314.280689 
L 176.533006 314.341808 
L 176.705168 314.533072 
L 176.963412 314.14367 
L 177.56598 312.835859 
L 177.996386 311.795129 
L 178.340711 311.24382 
L 178.512873 311.280719 
L 178.685036 311.298233 
L 179.115442 311.106652 
L 179.631929 311.414088 
L 179.976253 311.977301 
L 180.320578 312.475254 
L 180.492741 312.583077 
L 181.18139 311.906311 
L 181.353552 312.001497 
L 181.611796 312.514057 
L 181.956121 313.217157 
L 182.816933 314.552401 
L 183.075176 314.783322 
L 183.419501 315.036834 
L 183.763826 315.685099 
L 184.280313 316.957184 
L 184.968962 317.178691 
L 185.227206 317.46091 
L 185.657612 318.389771 
L 186.088018 319.414407 
L 186.26018 319.117398 
L 186.690586 317.842196 
L 187.379236 314.60966 
L 187.637479 314.224219 
L 187.809642 314.300752 
L 189.703428 316.559565 
L 189.961671 315.906157 
L 190.650321 313.891715 
L 190.908564 313.555586 
L 191.080727 313.608251 
L 191.33897 314.083403 
L 191.769376 315.677192 
L 193.663162 324.032145 
L 194.351812 325.756265 
L 195.040461 326.874417 
L 195.729111 327.571214 
L 196.503842 328.034065 
L 197.450735 328.333424 
L 198.828034 328.517356 
L 200.635739 328.607013 
L 200.72182 328.492896 
L 200.807901 328.094242 
L 201.066145 324.080684 
L 202.787768 289.333613 
L 203.218174 284.030597 
L 203.734662 280.919859 
L 204.165068 279.752609 
L 204.423311 279.385128 
L 205.025879 279.525521 
L 206.144935 281.722471 
L 206.919666 284.163532 
L 207.436153 285.787379 
L 208.813452 289.862127 
L 209.157776 290.829771 
L 209.502101 291.989381 
L 209.932507 293.441006 
L 211.395887 298.040853 
L 211.56805 297.981392 
L 211.912374 297.368036 
L 212.170618 296.356274 
L 212.773186 292.822479 
L 213.117511 290.356071 
L 213.633998 281.028234 
L 213.892242 271.964864 
L 214.064404 256.059827 
L 214.666973 185.409124 
L 214.839135 182.351171 
L 215.011297 185.468163 
L 215.441703 203.511151 
L 216.474677 246.956233 
L 217.335489 274.143786 
L 218.024139 289.869043 
L 218.884951 304.146355 
L 219.659681 313.478373 
L 220.348331 319.146277 
L 220.950899 322.468406 
L 221.553468 324.676355 
L 222.156036 326.11193 
L 222.758604 327.032427 
L 223.447254 327.681367 
L 224.221984 328.100723 
L 225.254959 328.383202 
L 226.374014 328.47913 
L 226.890501 328.07953 
L 227.49307 327.151331 
L 228.2678 324.653154 
L 229.128612 321.236674 
L 229.472937 320.507354 
L 229.731181 320.263997 
L 229.903343 320.291792 
L 230.161587 320.309947 
L 230.505911 320.33423 
L 230.678074 320.304505 
L 231.624967 319.217696 
L 232.055373 318.29422 
L 232.657941 316.315119 
L 233.002266 315.649447 
L 233.174428 315.437809 
L 233.518753 314.932788 
L 233.690915 314.898711 
L 234.551727 312.60375 
L 235.240377 310.459113 
L 235.584701 309.691721 
L 236.015107 308.952228 
L 236.359432 309.05429 
L 236.617676 309.420386 
L 237.220244 311.288941 
L 238.081056 314.248819 
L 238.253218 314.350014 
L 238.683624 314.302058 
L 239.372274 312.578508 
L 239.716598 311.867835 
L 239.888761 311.784323 
L 240.060923 311.883446 
L 240.319167 312.405035 
L 240.835654 313.590248 
L 241.352141 313.666189 
L 241.696466 313.514844 
L 242.040791 313.781642 
L 242.471197 314.546123 
L 242.557278 314.466417 
L 243.073765 313.55071 
L 243.590252 311.979268 
L 243.848496 311.781355 
L 244.020658 311.91137 
L 244.537145 312.561613 
L 244.967551 312.410762 
L 245.6562 310.81897 
L 245.828363 310.765432 
L 246.000525 310.937427 
L 246.34485 311.779027 
L 246.775256 313.585715 
L 247.549987 316.769917 
L 247.80823 316.684411 
L 248.152555 316.600943 
L 248.410799 316.80212 
L 248.927286 317.859952 
L 249.27161 318.593743 
L 249.443773 318.38983 
L 250.046341 317.076771 
L 250.648909 314.943419 
L 250.993234 314.256652 
L 251.595803 313.961006 
L 251.767965 314.012993 
L 252.11229 313.95357 
L 252.456614 314.139005 
L 252.714858 314.290146 
L 253.059183 314.644323 
L 253.57567 313.785813 
L 254.264319 312.170991 
L 254.608644 311.786982 
L 254.866888 311.853122 
L 255.211212 311.740892 
L 255.555537 311.930581 
L 255.813781 312.090891 
L 256.072024 312.569265 
L 256.50243 313.674301 
L 256.760674 314.384199 
L 256.932836 314.357642 
L 257.363242 314.163174 
L 257.621486 314.252195 
L 257.879729 314.677122 
L 258.396216 315.63529 
L 259.257028 317.58995 
L 259.515272 317.033347 
L 260.462165 314.658823 
L 260.80649 314.345254 
L 260.978652 314.462019 
L 261.322977 313.768495 
L 261.667302 313.244677 
L 261.925545 313.122482 
L 262.097708 313.25095 
L 262.355951 313.641922 
L 262.958519 313.7343 
L 263.561088 312.996742 
L 264.852306 309.060123 
L 265.024468 309.080932 
L 265.19663 309.354767 
L 265.799199 311.395748 
L 267.262579 317.529029 
L 267.434741 317.447714 
L 267.951228 316.769281 
L 268.295553 316.185231 
L 268.467716 316.135444 
L 269.070284 314.295618 
L 269.931096 310.835081 
L 270.189339 310.274558 
L 270.361502 310.19418 
L 270.533664 310.348617 
L 270.791908 311.025434 
L 271.824882 314.512296 
L 272.341369 315.063552 
L 272.685694 315.939089 
L 272.857856 316.15535 
L 273.1161 315.718299 
L 273.546506 314.511351 
L 274.062993 312.630837 
L 274.321236 312.34375 
L 274.493399 312.445472 
L 274.837723 312.951435 
L 275.182048 313.290288 
L 275.268129 313.39106 
L 275.526373 313.006514 
L 275.956779 312.359484 
L 276.215022 312.177656 
L 276.301104 312.177725 
L 276.473266 312.367954 
L 276.73151 311.907828 
L 277.161916 311.180589 
L 277.50624 310.875134 
L 277.678403 310.992398 
L 277.936646 311.557485 
L 278.367052 313.359757 
L 280.519082 324.052731 
L 281.207731 325.823616 
L 281.8103 326.826467 
L 282.498949 327.550496 
L 283.27368 328.025522 
L 284.220573 328.330205 
L 285.597872 328.516429 
L 286.372603 328.529765 
L 286.630846 327.110498 
L 287.319496 322.972353 
L 287.663821 322.151634 
L 287.922064 322.050869 
L 288.180308 322.269354 
L 288.610714 323.055728 
L 290.246256 326.428186 
L 290.934906 327.267212 
L 291.709636 327.854439 
L 291.96788 327.993476 
L 292.226124 327.355841 
L 292.914773 325.34662 
L 293.259098 324.990991 
L 293.517341 324.990647 
L 293.861666 325.229254 
L 294.636397 326.17602 
L 295.411128 327.011531 
L 295.841534 327.188886 
L 296.444102 326.883194 
L 297.04667 325.848009 
L 298.165726 322.381237 
L 299.887349 315.679573 
L 300.145593 314.876154 
L 301.092486 311.066741 
L 301.35073 310.233251 
L 302.211542 306.909486 
L 302.81411 304.626667 
L 304.621815 295.275695 
L 305.310464 293.090802 
L 305.654789 292.582849 
L 306.085195 291.897171 
L 306.257357 291.833509 
L 306.773845 291.227661 
L 306.946007 291.080595 
L 307.376413 290.684259 
L 307.548575 290.56946 
L 307.978981 290.259811 
L 308.151144 290.179092 
L 308.581549 289.942121 
L 308.839793 290.082787 
L 309.270199 290.152731 
L 309.442361 290.232111 
L 309.786686 290.289057 
L 310.131011 290.675793 
L 310.389254 290.940392 
L 310.905742 292.044857 
L 310.991823 292.146685 
L 311.50831 289.791396 
L 311.938716 287.808367 
L 312.196959 287.36176 
L 312.369122 287.457114 
L 312.627365 288.118117 
L 312.97169 289.977441 
L 313.402096 293.898007 
L 315.295882 313.875315 
L 315.898451 317.292501 
L 316.501019 319.435309 
L 317.103587 320.708349 
L 317.706155 321.412731 
L 318.653049 322.069944 
L 319.51386 322.014598 
L 321.149403 321.515495 
L 321.493728 321.658271 
L 321.924134 322.158831 
L 322.526702 323.232029 
L 324.162245 326.273066 
L 324.936975 327.194936 
L 325.711706 327.784495 
L 326.228193 327.955651 
L 327.347249 327.659404 
L 328.121979 327.841575 
L 330.015765 328.366218 
L 331.651308 328.539953 
L 334.922393 328.608519 
L 360.832831 328.614561 
L 671.155517 328.614561 
L 671.155517 328.614561 
" clip-path="url(#p568d23fd1b)" style="fill: none; stroke: #ff7f0e; stroke-width: 1.5; stroke-linecap: square"/>
   </g>
   <g id="patch_3">
    <path d="M 20.5625 342.2 
L 20.5625 43.44 
" style="fill: none; stroke: #000000; stroke-width: 0.8; stroke-linejoin: miter; stroke-linecap: square"/>
   </g>
   <g id="patch_4">
    <path d="M 702.136136 342.2 
L 702.136136 43.44 
" style="fill: none; stroke: #000000; stroke-width: 0.8; stroke-linejoin: miter; stroke-linecap: square"/>
   </g>
   <g id="patch_5">
    <path d="M 20.5625 342.2 
L 702.136136 342.2 
" style="fill: none; stroke: #000000; stroke-width: 0.8; stroke-linejoin: miter; stroke-linecap: square"/>
   </g>
   <g id="patch_6">
    <path d="M 20.5625 43.44 
L 702.136136 43.44 
" style="fill: none; stroke: #000000; stroke-width: 0.8; stroke-linejoin: miter; stroke-linecap: square"/>
   </g>
   <g id="text_15">
    <!-- 1 transformation(s) -->
    <g transform="translate(303.234631 37.44) scale(0.12 -0.12)">
     <defs>
      <path id="DejaVuSans-20" transform="scale(0.015625)"/>
      <path id="DejaVuSans-74" d="M 1172 4494 
L 1172 3500 
L 2356 3500 
L 2356 3053 
L 1172 3053 
L 1172 1153 
Q 1172 725 1289 603 
Q 1406 481 1766 481 
L 2356 481 
L 2356 0 
L 1766 0 
Q 1100 0 847 248 
Q 594 497 594 1153 
L 594 3053 
L 172 3053 
L 172 3500 
L 594 3500 
L 594 4494 
L 1172 4494 
z
" transform="scale(0.015625)"/>
      <path id="DejaVuSans-72" d="M 2631 2963 
Q 2534 3019 2420 3045 
Q 2306 3072 2169 3072 
Q 1681 3072 1420 2755 
Q 1159 2438 1159 1844 
L 1159 0 
L 581 0 
L 581 3500 
L 1159 3500 
L 1159 2956 
Q 1341 3275 1631 3429 
Q 1922 3584 2338 3584 
Q 2397 3584 2469 3576 
Q 2541 3569 2628 3553 
L 2631 2963 
z
" transform="scale(0.015625)"/>
      <path id="DejaVuSans-61" d="M 2194 1759 
Q 1497 1759 1228 1600 
Q 959 1441 959 1056 
Q 959 750 1161 570 
Q 1363 391 1709 391 
Q 2188 391 2477 730 
Q 2766 1069 2766 1631 
L 2766 1759 
L 2194 1759 
z
M 3341 1997 
L 3341 0 
L 2766 0 
L 2766 531 
Q 2569 213 2275 61 
Q 1981 -91 1556 -91 
Q 1019 -91 701 211 
Q 384 513 384 1019 
Q 384 1609 779 1909 
Q 1175 2209 1959 2209 
L 2766 2209 
L 2766 2266 
Q 2766 2663 2505 2880 
Q 2244 3097 1772 3097 
Q 1472 3097 1187 3025 
Q 903 2953 641 2809 
L 641 3341 
Q 956 3463 1253 3523 
Q 1550 3584 1831 3584 
Q 2591 3584 2966 3190 
Q 3341 2797 3341 1997 
z
" transform="scale(0.015625)"/>
      <path id="DejaVuSans-6e" d="M 3513 2113 
L 3513 0 
L 2938 0 
L 2938 2094 
Q 2938 2591 2744 2837 
Q 2550 3084 2163 3084 
Q 1697 3084 1428 2787 
Q 1159 2491 1159 1978 
L 1159 0 
L 581 0 
L 581 3500 
L 1159 3500 
L 1159 2956 
Q 1366 3272 1645 3428 
Q 1925 3584 2291 3584 
Q 2894 3584 3203 3211 
Q 3513 2838 3513 2113 
z
" transform="scale(0.015625)"/>
      <path id="DejaVuSans-73" d="M 2834 3397 
L 2834 2853 
Q 2591 2978 2328 3040 
Q 2066 3103 1784 3103 
Q 1356 3103 1142 2972 
Q 928 2841 928 2578 
Q 928 2378 1081 2264 
Q 1234 2150 1697 2047 
L 1894 2003 
Q 2506 1872 2764 1633 
Q 3022 1394 3022 966 
Q 3022 478 2636 193 
Q 2250 -91 1575 -91 
Q 1294 -91 989 -36 
Q 684 19 347 128 
L 347 722 
Q 666 556 975 473 
Q 1284 391 1588 391 
Q 1994 391 2212 530 
Q 2431 669 2431 922 
Q 2431 1156 2273 1281 
Q 2116 1406 1581 1522 
L 1381 1569 
Q 847 1681 609 1914 
Q 372 2147 372 2553 
Q 372 3047 722 3315 
Q 1072 3584 1716 3584 
Q 2034 3584 2315 3537 
Q 2597 3491 2834 3397 
z
" transform="scale(0.015625)"/>
      <path id="DejaVuSans-66" d="M 2375 4863 
L 2375 4384 
L 1825 4384 
Q 1516 4384 1395 4259 
Q 1275 4134 1275 3809 
L 1275 3500 
L 2222 3500 
L 2222 3053 
L 1275 3053 
L 1275 0 
L 697 0 
L 697 3053 
L 147 3053 
L 147 3500 
L 697 3500 
L 697 3744 
Q 697 4328 969 4595 
Q 1241 4863 1831 4863 
L 2375 4863 
z
" transform="scale(0.015625)"/>
      <path id="DejaVuSans-6f" d="M 1959 3097 
Q 1497 3097 1228 2736 
Q 959 2375 959 1747 
Q 959 1119 1226 758 
Q 1494 397 1959 397 
Q 2419 397 2687 759 
Q 2956 1122 2956 1747 
Q 2956 2369 2687 2733 
Q 2419 3097 1959 3097 
z
M 1959 3584 
Q 2709 3584 3137 3096 
Q 3566 2609 3566 1747 
Q 3566 888 3137 398 
Q 2709 -91 1959 -91 
Q 1206 -91 779 398 
Q 353 888 353 1747 
Q 353 2609 779 3096 
Q 1206 3584 1959 3584 
z
" transform="scale(0.015625)"/>
      <path id="DejaVuSans-6d" d="M 3328 2828 
Q 3544 3216 3844 3400 
Q 4144 3584 4550 3584 
Q 5097 3584 5394 3201 
Q 5691 2819 5691 2113 
L 5691 0 
L 5113 0 
L 5113 2094 
Q 5113 2597 4934 2840 
Q 4756 3084 4391 3084 
Q 3944 3084 3684 2787 
Q 3425 2491 3425 1978 
L 3425 0 
L 2847 0 
L 2847 2094 
Q 2847 2600 2669 2842 
Q 2491 3084 2119 3084 
Q 1678 3084 1418 2786 
Q 1159 2488 1159 1978 
L 1159 0 
L 581 0 
L 581 3500 
L 1159 3500 
L 1159 2956 
Q 1356 3278 1631 3431 
Q 1906 3584 2284 3584 
Q 2666 3584 2933 3390 
Q 3200 3197 3328 2828 
z
" transform="scale(0.015625)"/>
      <path id="DejaVuSans-69" d="M 603 3500 
L 1178 3500 
L 1178 0 
L 603 0 
L 603 3500 
z
M 603 4863 
L 1178 4863 
L 1178 4134 
L 603 4134 
L 603 4863 
z
" transform="scale(0.015625)"/>
      <path id="DejaVuSans-28" d="M 1984 4856 
Q 1566 4138 1362 3434 
Q 1159 2731 1159 2009 
Q 1159 1288 1364 580 
Q 1569 -128 1984 -844 
L 1484 -844 
Q 1016 -109 783 600 
Q 550 1309 550 2009 
Q 550 2706 781 3412 
Q 1013 4119 1484 4856 
L 1984 4856 
z
" transform="scale(0.015625)"/>
      <path id="DejaVuSans-29" d="M 513 4856 
L 1013 4856 
Q 1481 4119 1714 3412 
Q 1947 2706 1947 2009 
Q 1947 1309 1714 600 
Q 1481 -109 1013 -844 
L 513 -844 
Q 928 -128 1133 580 
Q 1338 1288 1338 2009 
Q 1338 2731 1133 3434 
Q 928 4138 513 4856 
z
" transform="scale(0.015625)"/>
     </defs>
     <use xlink:href="#DejaVuSans-31"/>
     <use xlink:href="#DejaVuSans-20" x="63.623047"/>
     <use xlink:href="#DejaVuSans-74" x="95.410156"/>
     <use xlink:href="#DejaVuSans-72" x="134.619141"/>
     <use xlink:href="#DejaVuSans-61" x="175.732422"/>
     <use xlink:href="#DejaVuSans-6e" x="237.011719"/>
     <use xlink:href="#DejaVuSans-73" x="300.390625"/>
     <use xlink:href="#DejaVuSans-66" x="352.490234"/>
     <use xlink:href="#DejaVuSans-6f" x="387.695312"/>
     <use xlink:href="#DejaVuSans-72" x="448.876953"/>
     <use xlink:href="#DejaVuSans-6d" x="488.240234"/>
     <use xlink:href="#DejaVuSans-61" x="585.652344"/>
     <use xlink:href="#DejaVuSans-74" x="646.931641"/>
     <use xlink:href="#DejaVuSans-69" x="686.140625"/>
     <use xlink:href="#DejaVuSans-6f" x="713.923828"/>
     <use xlink:href="#DejaVuSans-6e" x="775.105469"/>
     <use xlink:href="#DejaVuSans-28" x="838.484375"/>
     <use xlink:href="#DejaVuSans-73" x="877.498047"/>
     <use xlink:href="#DejaVuSans-29" x="929.597656"/>
    </g>
   </g>
   <g id="legend_1">
    <g id="patch_7">
     <path d="M 613.742386 80.79625 
L 695.136136 80.79625 
Q 697.136136 80.79625 697.136136 78.79625 
L 697.136136 50.44 
Q 697.136136 48.44 695.136136 48.44 
L 613.742386 48.44 
Q 611.742386 48.44 611.742386 50.44 
L 611.742386 78.79625 
Q 611.742386 80.79625 613.742386 80.79625 
z
" style="fill: #ffffff; opacity: 0.8; stroke: #cccccc; stroke-linejoin: miter"/>
    </g>
    <g id="line2d_17">
     <path d="M 615.742386 56.538437 
L 625.742386 56.538437 
L 635.742386 56.538437 
" style="fill: none; stroke: #1f77b4; stroke-width: 1.5; stroke-linecap: square"/>
    </g>
    <g id="text_16">
     <!-- observed -->
     <g transform="translate(643.742386 60.038437) scale(0.1 -0.1)">
      <defs>
       <path id="DejaVuSans-62" d="M 3116 1747 
Q 3116 2381 2855 2742 
Q 2594 3103 2138 3103 
Q 1681 3103 1420 2742 
Q 1159 2381 1159 1747 
Q 1159 1113 1420 752 
Q 1681 391 2138 391 
Q 2594 391 2855 752 
Q 3116 1113 3116 1747 
z
M 1159 2969 
Q 1341 3281 1617 3432 
Q 1894 3584 2278 3584 
Q 2916 3584 3314 3078 
Q 3713 2572 3713 1747 
Q 3713 922 3314 415 
Q 2916 -91 2278 -91 
Q 1894 -91 1617 61 
Q 1341 213 1159 525 
L 1159 0 
L 581 0 
L 581 4863 
L 1159 4863 
L 1159 2969 
z
" transform="scale(0.015625)"/>
       <path id="DejaVuSans-65" d="M 3597 1894 
L 3597 1613 
L 953 1613 
Q 991 1019 1311 708 
Q 1631 397 2203 397 
Q 2534 397 2845 478 
Q 3156 559 3463 722 
L 3463 178 
Q 3153 47 2828 -22 
Q 2503 -91 2169 -91 
Q 1331 -91 842 396 
Q 353 884 353 1716 
Q 353 2575 817 3079 
Q 1281 3584 2069 3584 
Q 2775 3584 3186 3129 
Q 3597 2675 3597 1894 
z
M 3022 2063 
Q 3016 2534 2758 2815 
Q 2500 3097 2075 3097 
Q 1594 3097 1305 2825 
Q 1016 2553 972 2059 
L 3022 2063 
z
" transform="scale(0.015625)"/>
       <path id="DejaVuSans-76" d="M 191 3500 
L 800 3500 
L 1894 563 
L 2988 3500 
L 3597 3500 
L 2284 0 
L 1503 0 
L 191 3500 
z
" transform="scale(0.015625)"/>
       <path id="DejaVuSans-64" d="M 2906 2969 
L 2906 4863 
L 3481 4863 
L 3481 0 
L 2906 0 
L 2906 525 
Q 2725 213 2448 61 
Q 2172 -91 1784 -91 
Q 1150 -91 751 415 
Q 353 922 353 1747 
Q 353 2572 751 3078 
Q 1150 3584 1784 3584 
Q 2172 3584 2448 3432 
Q 2725 3281 2906 2969 
z
M 947 1747 
Q 947 1113 1208 752 
Q 1469 391 1925 391 
Q 2381 391 2643 752 
Q 2906 1113 2906 1747 
Q 2906 2381 2643 2742 
Q 2381 3103 1925 3103 
Q 1469 3103 1208 2742 
Q 947 2381 947 1747 
z
" transform="scale(0.015625)"/>
      </defs>
      <use xlink:href="#DejaVuSans-6f"/>
      <use xlink:href="#DejaVuSans-62" x="61.181641"/>
      <use xlink:href="#DejaVuSans-73" x="124.658203"/>
      <use xlink:href="#DejaVuSans-65" x="176.757812"/>
      <use xlink:href="#DejaVuSans-72" x="238.28125"/>
      <use xlink:href="#DejaVuSans-76" x="279.394531"/>
      <use xlink:href="#DejaVuSans-65" x="338.574219"/>
      <use xlink:href="#DejaVuSans-64" x="400.097656"/>
     </g>
    </g>
    <g id="line2d_18">
     <path d="M 615.742386 71.216563 
L 625.742386 71.216563 
L 635.742386 71.216563 
" style="fill: none; stroke: #ff7f0e; stroke-width: 1.5; stroke-linecap: square"/>
    </g>
    <g id="text_17">
     <!-- simulated -->
     <g transform="translate(643.742386 74.716563) scale(0.1 -0.1)">
      <defs>
       <path id="DejaVuSans-75" d="M 544 1381 
L 544 3500 
L 1119 3500 
L 1119 1403 
Q 1119 906 1312 657 
Q 1506 409 1894 409 
Q 2359 409 2629 706 
Q 2900 1003 2900 1516 
L 2900 3500 
L 3475 3500 
L 3475 0 
L 2900 0 
L 2900 538 
Q 2691 219 2414 64 
Q 2138 -91 1772 -91 
Q 1169 -91 856 284 
Q 544 659 544 1381 
z
M 1991 3584 
L 1991 3584 
z
" transform="scale(0.015625)"/>
       <path id="DejaVuSans-6c" d="M 603 4863 
L 1178 4863 
L 1178 0 
L 603 0 
L 603 4863 
z
" transform="scale(0.015625)"/>
      </defs>
      <use xlink:href="#DejaVuSans-73"/>
      <use xlink:href="#DejaVuSans-69" x="52.099609"/>
      <use xlink:href="#DejaVuSans-6d" x="79.882812"/>
      <use xlink:href="#DejaVuSans-75" x="177.294922"/>
      <use xlink:href="#DejaVuSans-6c" x="240.673828"/>
      <use xlink:href="#DejaVuSans-61" x="268.457031"/>
      <use xlink:href="#DejaVuSans-74" x="329.736328"/>
      <use xlink:href="#DejaVuSans-65" x="368.945312"/>
      <use xlink:href="#DejaVuSans-64" x="430.46875"/>
     </g>
    </g>
   </g>
  </g>
  <g id="axes_2">
   <g id="patch_8">
    <path d="M 20.5625 684.92 
L 702.136136 684.92 
L 702.136136 386.16 
L 20.5625 386.16 
z
" style="fill: #ffffff"/>
   </g>
   <g id="matplotlib.axis_3">
    <g id="xtick_7">
     <g id="line2d_19">
      <g>
       <use xlink:href="#ma7c0e3394f" x="51.370957" y="684.92" style="stroke: #000000; stroke-width: 0.8"/>
      </g>
     </g>
     <g id="text_18">
      <!-- 2014-07-01 -->
      <g transform="translate(22.313145 699.518437) scale(0.1 -0.1)">
       <use xlink:href="#DejaVuSans-32"/>
       <use xlink:href="#DejaVuSans-30" x="63.623047"/>
       <use xlink:href="#DejaVuSans-31" x="127.246094"/>
       <use xlink:href="#DejaVuSans-34" x="190.869141"/>
       <use xlink:href="#DejaVuSans-2d" x="254.492188"/>
       <use xlink:href="#DejaVuSans-30" x="290.576172"/>
       <use xlink:href="#DejaVuSans-37" x="354.199219"/>
       <use xlink:href="#DejaVuSans-2d" x="417.822266"/>
       <use xlink:href="#DejaVuSans-30" x="453.90625"/>
       <use xlink:href="#DejaVuSans-31" x="517.529297"/>
      </g>
     </g>
    </g>
    <g id="xtick_8">
     <g id="line2d_20">
      <g>
       <use xlink:href="#ma7c0e3394f" x="175.327869" y="684.92" style="stroke: #000000; stroke-width: 0.8"/>
      </g>
     </g>
     <g id="text_19">
      <!-- 2014-07-02 -->
      <g transform="translate(146.270057 699.518437) scale(0.1 -0.1)">
       <use xlink:href="#DejaVuSans-32"/>
       <use xlink:href="#DejaVuSans-30" x="63.623047"/>
       <use xlink:href="#DejaVuSans-31" x="127.246094"/>
       <use xlink:href="#DejaVuSans-34" x="190.869141"/>
       <use xlink:href="#DejaVuSans-2d" x="254.492188"/>
       <use xlink:href="#DejaVuSans-30" x="290.576172"/>
       <use xlink:href="#DejaVuSans-37" x="354.199219"/>
       <use xlink:href="#DejaVuSans-2d" x="417.822266"/>
       <use xlink:href="#DejaVuSans-30" x="453.90625"/>
       <use xlink:href="#DejaVuSans-32" x="517.529297"/>
      </g>
     </g>
    </g>
    <g id="xtick_9">
     <g id="line2d_21">
      <g>
       <use xlink:href="#ma7c0e3394f" x="299.284781" y="684.92" style="stroke: #000000; stroke-width: 0.8"/>
      </g>
     </g>
     <g id="text_20">
      <!-- 2014-07-03 -->
      <g transform="translate(270.226969 699.518437) scale(0.1 -0.1)">
       <use xlink:href="#DejaVuSans-32"/>
       <use xlink:href="#DejaVuSans-30" x="63.623047"/>
       <use xlink:href="#DejaVuSans-31" x="127.246094"/>
       <use xlink:href="#DejaVuSans-34" x="190.869141"/>
       <use xlink:href="#DejaVuSans-2d" x="254.492188"/>
       <use xlink:href="#DejaVuSans-30" x="290.576172"/>
       <use xlink:href="#DejaVuSans-37" x="354.199219"/>
       <use xlink:href="#DejaVuSans-2d" x="417.822266"/>
       <use xlink:href="#DejaVuSans-30" x="453.90625"/>
       <use xlink:href="#DejaVuSans-33" x="517.529297"/>
      </g>
     </g>
    </g>
    <g id="xtick_10">
     <g id="line2d_22">
      <g>
       <use xlink:href="#ma7c0e3394f" x="423.241693" y="684.92" style="stroke: #000000; stroke-width: 0.8"/>
      </g>
     </g>
     <g id="text_21">
      <!-- 2014-07-04 -->
      <g transform="translate(394.18388 699.518437) scale(0.1 -0.1)">
       <use xlink:href="#DejaVuSans-32"/>
       <use xlink:href="#DejaVuSans-30" x="63.623047"/>
       <use xlink:href="#DejaVuSans-31" x="127.246094"/>
       <use xlink:href="#DejaVuSans-34" x="190.869141"/>
       <use xlink:href="#DejaVuSans-2d" x="254.492188"/>
       <use xlink:href="#DejaVuSans-30" x="290.576172"/>
       <use xlink:href="#DejaVuSans-37" x="354.199219"/>
       <use xlink:href="#DejaVuSans-2d" x="417.822266"/>
       <use xlink:href="#DejaVuSans-30" x="453.90625"/>
       <use xlink:href="#DejaVuSans-34" x="517.529297"/>
      </g>
     </g>
    </g>
    <g id="xtick_11">
     <g id="line2d_23">
      <g>
       <use xlink:href="#ma7c0e3394f" x="547.198605" y="684.92" style="stroke: #000000; stroke-width: 0.8"/>
      </g>
     </g>
     <g id="text_22">
      <!-- 2014-07-05 -->
      <g transform="translate(518.140792 699.518437) scale(0.1 -0.1)">
       <use xlink:href="#DejaVuSans-32"/>
       <use xlink:href="#DejaVuSans-30" x="63.623047"/>
       <use xlink:href="#DejaVuSans-31" x="127.246094"/>
       <use xlink:href="#DejaVuSans-34" x="190.869141"/>
       <use xlink:href="#DejaVuSans-2d" x="254.492188"/>
       <use xlink:href="#DejaVuSans-30" x="290.576172"/>
       <use xlink:href="#DejaVuSans-37" x="354.199219"/>
       <use xlink:href="#DejaVuSans-2d" x="417.822266"/>
       <use xlink:href="#DejaVuSans-30" x="453.90625"/>
       <use xlink:href="#DejaVuSans-35" x="517.529297"/>
      </g>
     </g>
    </g>
    <g id="xtick_12">
     <g id="line2d_24">
      <g>
       <use xlink:href="#ma7c0e3394f" x="671.155517" y="684.92" style="stroke: #000000; stroke-width: 0.8"/>
      </g>
     </g>
     <g id="text_23">
      <!-- 2014-07-06 -->
      <g transform="translate(642.097704 699.518437) scale(0.1 -0.1)">
       <use xlink:href="#DejaVuSans-32"/>
       <use xlink:href="#DejaVuSans-30" x="63.623047"/>
       <use xlink:href="#DejaVuSans-31" x="127.246094"/>
       <use xlink:href="#DejaVuSans-34" x="190.869141"/>
       <use xlink:href="#DejaVuSans-2d" x="254.492188"/>
       <use xlink:href="#DejaVuSans-30" x="290.576172"/>
       <use xlink:href="#DejaVuSans-37" x="354.199219"/>
       <use xlink:href="#DejaVuSans-2d" x="417.822266"/>
       <use xlink:href="#DejaVuSans-30" x="453.90625"/>
       <use xlink:href="#DejaVuSans-36" x="517.529297"/>
      </g>
     </g>
    </g>
   </g>
   <g id="matplotlib.axis_4">
    <g id="ytick_9">
     <g id="line2d_25">
      <g>
       <use xlink:href="#m219c2c3b46" x="20.5625" y="671.333609" style="stroke: #000000; stroke-width: 0.8"/>
      </g>
     </g>
     <g id="text_24">
      <!-- 0 -->
      <g transform="translate(7.2 675.132828) scale(0.1 -0.1)">
       <use xlink:href="#DejaVuSans-30"/>
      </g>
     </g>
    </g>
    <g id="ytick_10">
     <g id="line2d_26">
      <g>
       <use xlink:href="#m219c2c3b46" x="20.5625" y="635.573441" style="stroke: #000000; stroke-width: 0.8"/>
      </g>
     </g>
     <g id="text_25">
      <!-- 1 -->
      <g transform="translate(7.2 639.37266) scale(0.1 -0.1)">
       <use xlink:href="#DejaVuSans-31"/>
      </g>
     </g>
    </g>
    <g id="ytick_11">
     <g id="line2d_27">
      <g>
       <use xlink:href="#m219c2c3b46" x="20.5625" y="599.813273" style="stroke: #000000; stroke-width: 0.8"/>
      </g>
     </g>
     <g id="text_26">
      <!-- 2 -->
      <g transform="translate(7.2 603.612492) scale(0.1 -0.1)">
       <use xlink:href="#DejaVuSans-32"/>
      </g>
     </g>
    </g>
    <g id="ytick_12">
     <g id="line2d_28">
      <g>
       <use xlink:href="#m219c2c3b46" x="20.5625" y="564.053105" style="stroke: #000000; stroke-width: 0.8"/>
      </g>
     </g>
     <g id="text_27">
      <!-- 3 -->
      <g transform="translate(7.2 567.852324) scale(0.1 -0.1)">
       <use xlink:href="#DejaVuSans-33"/>
      </g>
     </g>
    </g>
    <g id="ytick_13">
     <g id="line2d_29">
      <g>
       <use xlink:href="#m219c2c3b46" x="20.5625" y="528.292937" style="stroke: #000000; stroke-width: 0.8"/>
      </g>
     </g>
     <g id="text_28">
      <!-- 4 -->
      <g transform="translate(7.2 532.092156) scale(0.1 -0.1)">
       <use xlink:href="#DejaVuSans-34"/>
      </g>
     </g>
    </g>
    <g id="ytick_14">
     <g id="line2d_30">
      <g>
       <use xlink:href="#m219c2c3b46" x="20.5625" y="492.532769" style="stroke: #000000; stroke-width: 0.8"/>
      </g>
     </g>
     <g id="text_29">
      <!-- 5 -->
      <g transform="translate(7.2 496.331988) scale(0.1 -0.1)">
       <use xlink:href="#DejaVuSans-35"/>
      </g>
     </g>
    </g>
    <g id="ytick_15">
     <g id="line2d_31">
      <g>
       <use xlink:href="#m219c2c3b46" x="20.5625" y="456.772601" style="stroke: #000000; stroke-width: 0.8"/>
      </g>
     </g>
     <g id="text_30">
      <!-- 6 -->
      <g transform="translate(7.2 460.57182) scale(0.1 -0.1)">
       <use xlink:href="#DejaVuSans-36"/>
      </g>
     </g>
    </g>
    <g id="ytick_16">
     <g id="line2d_32">
      <g>
       <use xlink:href="#m219c2c3b46" x="20.5625" y="421.012433" style="stroke: #000000; stroke-width: 0.8"/>
      </g>
     </g>
     <g id="text_31">
      <!-- 7 -->
      <g transform="translate(7.2 424.811651) scale(0.1 -0.1)">
       <use xlink:href="#DejaVuSans-37"/>
      </g>
     </g>
    </g>
   </g>
   <g id="line2d_33">
    <path d="M 51.54312 671.299208 
L 52.059607 671.139709 
L 52.403932 670.956087 
L 52.748256 670.761278 
L 53.178662 670.513272 
L 53.867312 670.101706 
L 54.383799 669.748838 
L 54.900286 669.385037 
L 57.052316 667.904577 
L 57.568803 667.252305 
L 58.860021 666.441948 
L 59.720833 666.000351 
L 60.495563 665.806527 
L 61.270294 665.846838 
L 62.303268 666.140619 
L 65.230029 667.154187 
L 65.918678 667.147762 
L 66.263003 667.082851 
L 66.77949 666.736012 
L 67.46814 666.098539 
L 67.898546 665.442664 
L 68.156789 664.95173 
L 69.361926 659.133537 
L 69.964494 655.270679 
L 71.08355 648.174467 
L 71.255712 647.508208 
L 71.513956 646.281857 
L 71.85828 645.411817 
L 72.202605 643.672502 
L 72.374768 643.053403 
L 72.977336 640.002442 
L 73.924229 637.204013 
L 74.01031 636.964617 
L 74.096391 637.00183 
L 74.268554 636.863433 
L 74.526797 636.488222 
L 74.612878 636.31706 
L 74.785041 636.44043 
L 75.215447 635.79606 
L 75.301528 635.913513 
L 75.47369 635.875856 
L 75.645853 635.720365 
L 75.818015 635.502642 
L 75.990177 635.732133 
L 76.076259 635.694794 
L 76.334502 636.065984 
L 76.506665 635.953303 
L 76.764908 636.354864 
L 76.850989 636.397575 
L 77.109233 636.172022 
L 77.281395 636.444853 
L 77.539639 636.303082 
L 77.711801 636.10883 
L 77.883964 636.294309 
L 78.31437 635.740906 
L 78.400451 635.874194 
L 78.572613 635.842454 
L 78.916938 635.783144 
L 80.208156 639.222734 
L 80.466399 640.320067 
L 80.55248 640.111665 
L 81.155049 631.843399 
L 81.327211 631.568891 
L 81.585455 630.901309 
L 81.757617 631.123051 
L 81.929779 631.586343 
L 82.101942 632.812822 
L 82.618429 639.228698 
L 83.220997 646.576616 
L 83.737484 651.132194 
L 84.16789 653.975254 
L 84.253972 653.253917 
L 85.114783 612.061624 
L 85.717352 553.767141 
L 86.492082 484.136542 
L 87.094651 419.374371 
L 87.180732 419.125398 
L 87.266813 419.672487 
L 87.352894 419.296154 
L 87.611138 413.402344 
L 87.869381 409.109423 
L 88.385869 399.74 
L 88.47195 399.804319 
L 88.902356 408.321989 
L 89.160599 423.332208 
L 89.504924 473.416243 
L 89.677086 514.093786 
L 89.849249 542.419251 
L 90.279655 553.481438 
L 90.796142 564.26129 
L 91.656954 579.511581 
L 92.345603 593.203996 
L 94.841958 624.411872 
L 95.01412 625.155321 
L 95.444526 627.743282 
L 95.70277 626.710938 
L 95.788851 626.720504 
L 96.047094 625.361038 
L 96.735744 610.099655 
L 97.338312 577.385045 
L 98.026962 515.290548 
L 98.113043 514.557799 
L 98.371287 527.544705 
L 99.490342 606.06419 
L 100.09291 625.7029 
L 100.609397 636.531666 
L 101.125885 643.429732 
L 101.556291 646.986466 
L 102.072778 649.710174 
L 103.277914 654.241313 
L 104.39697 657.477088 
L 105.257782 659.253511 
L 105.774269 660.009458 
L 106.635081 660.762376 
L 107.409811 661.163495 
L 108.098461 661.328661 
L 108.959273 661.308349 
L 109.992247 661.06055 
L 112.919007 659.926594 
L 113.349413 659.740193 
L 113.435495 659.537286 
L 114.296306 653.300097 
L 115.157118 651.224523 
L 115.587524 650.515095 
L 115.759687 650.65386 
L 116.190093 651.633678 
L 117.309148 654.831208 
L 117.997798 655.843155 
L 118.686447 656.192418 
L 119.289015 656.182928 
L 120.838477 655.699714 
L 121.354964 655.37775 
L 121.613207 655.223914 
L 121.957532 654.99531 
L 122.215776 654.815167 
L 122.560101 654.564093 
L 122.732263 654.544921 
L 123.162669 654.195153 
L 123.334831 654.1754 
L 123.765237 653.782752 
L 123.9374 653.756432 
L 124.367806 653.345802 
L 124.539968 653.321244 
L 124.970374 652.895 
L 125.142536 652.860317 
L 125.572942 652.3704 
L 125.831186 652.318254 
L 126.17551 651.953851 
L 126.433754 651.945849 
L 126.778079 651.500331 
L 127.036322 651.497791 
L 127.380647 651.022896 
L 127.638891 650.992271 
L 127.983215 650.490875 
L 128.241459 650.432508 
L 128.585784 649.859047 
L 128.930109 649.761048 
L 129.188352 649.43592 
L 129.360514 649.422613 
L 129.532677 649.38019 
L 129.79092 648.949059 
L 129.963083 648.943481 
L 130.135245 648.884433 
L 130.393489 648.398524 
L 130.565651 648.398489 
L 130.737813 648.354018 
L 130.909976 648.221944 
L 131.082138 648.295416 
L 131.856869 649.546771 
L 132.545518 651.750688 
L 134.525386 658.54573 
L 135.386198 660.600324 
L 136.419172 662.529855 
L 137.624309 664.2474 
L 138.915526 665.494312 
L 139.432014 665.847541 
L 139.690257 665.734937 
L 139.948501 665.558863 
L 140.120663 665.009122 
L 140.63715 663.306832 
L 141.153637 660.86365 
L 142.78918 656.22216 
L 143.047423 655.853364 
L 143.477829 655.773475 
L 144.25256 656.194701 
L 144.596885 656.377229 
L 145.199453 656.558726 
L 145.71594 656.703582 
L 145.974184 656.598656 
L 146.40459 656.252612 
L 147.351483 654.853504 
L 147.609726 654.595406 
L 148.470538 653.950677 
L 148.728782 653.920339 
L 149.073107 654.052885 
L 149.503513 654.367454 
L 149.847837 654.423545 
L 150.364325 654.849282 
L 150.880812 655.395637 
L 151.311218 655.471975 
L 151.48338 655.282949 
L 151.827705 654.813243 
L 152.172029 654.291175 
L 152.602435 654.063311 
L 153.377166 653.225775 
L 153.63541 653.154415 
L 153.979734 653.224965 
L 154.237978 653.529287 
L 155.012709 654.968536 
L 155.701358 656.231475 
L 156.734332 656.582027 
L 156.820414 656.590638 
L 157.853388 655.281549 
L 158.455956 655.17327 
L 159.058525 655.503106 
L 159.230687 655.658085 
L 159.747174 655.245561 
L 159.919336 655.208749 
L 160.263661 654.782737 
L 160.521905 654.724126 
L 162.071366 651.726875 
L 162.760016 652.160781 
L 163.362584 653.278092 
L 163.965152 654.524699 
L 164.395558 655.120878 
L 165.25637 655.517102 
L 166.375426 656.306774 
L 166.805832 656.401364 
L 167.322319 656.48702 
L 167.924887 655.925011 
L 168.269212 655.804861 
L 168.527455 655.872613 
L 169.388267 654.779547 
L 169.732592 654.187104 
L 169.990836 653.714412 
L 170.249079 653.327416 
L 170.765566 653.236614 
L 171.798541 653.977818 
L 172.228946 654.6732 
L 173.520164 657.237666 
L 174.036651 657.167535 
L 174.208814 656.999643 
L 174.467057 656.648409 
L 174.897463 655.982172 
L 175.500032 654.697808 
L 175.844356 654.241071 
L 176.1026 653.945483 
L 176.533006 653.515361 
L 176.705168 653.350622 
L 177.393818 652.719013 
L 177.652061 652.395837 
L 177.824224 652.31956 
L 178.168549 651.936057 
L 178.512873 651.922672 
L 178.857198 651.501478 
L 179.459766 651.421445 
L 180.492741 652.364878 
L 180.750984 652.275109 
L 181.009228 652.324584 
L 181.267471 652.447204 
L 181.956121 653.162911 
L 182.558689 653.609142 
L 183.33342 654.278035 
L 184.280313 655.526068 
L 184.538556 655.63102 
L 186.088018 656.929642 
L 186.518424 656.607625 
L 187.293155 654.755169 
L 187.551398 654.559063 
L 187.895723 654.493745 
L 188.842616 654.128645 
L 189.445184 654.622151 
L 189.617347 654.833573 
L 190.392077 654.215657 
L 190.650321 653.976468 
L 191.425052 654.106442 
L 191.855458 654.546386 
L 192.285863 655.327025 
L 192.888432 656.941256 
L 194.610056 661.548894 
L 195.64303 663.469872 
L 196.245598 664.304061 
L 197.364654 665.466798 
L 198.56979 666.344451 
L 199.947089 667.0615 
L 200.72182 667.407443 
L 200.807901 666.553635 
L 201.066145 660.606793 
L 202.787768 619.826462 
L 203.132093 617.874119 
L 203.304256 617.828484 
L 203.476418 616.755181 
L 203.906824 615.606688 
L 204.165068 614.409394 
L 204.251149 614.444375 
L 204.767636 612.937228 
L 204.853717 613.143444 
L 204.939798 613.092596 
L 205.111961 613.35842 
L 205.198042 613.176358 
L 205.284123 613.317108 
L 206.058854 617.648012 
L 206.661422 622.647776 
L 207.091828 626.683395 
L 208.124802 634.471913 
L 208.899533 637.907275 
L 210.10467 642.201618 
L 210.276832 642.502136 
L 210.448994 642.962875 
L 210.707238 643.61802 
L 210.8794 643.843994 
L 211.051563 644.217362 
L 211.309806 644.707468 
L 211.654131 643.80947 
L 211.740212 643.768972 
L 211.912374 642.965182 
L 212.428862 638.822256 
L 212.601024 637.763326 
L 213.203592 629.262105 
L 213.892242 606.435727 
L 214.666973 535.528748 
L 214.753054 535.892658 
L 214.925216 542.409796 
L 215.95819 608.968206 
L 216.474677 626.940335 
L 216.991165 638.702853 
L 217.507652 646.328408 
L 218.024139 650.709598 
L 218.454545 653.190329 
L 219.229276 656.208603 
L 220.26225 659.006673 
L 221.381305 661.454474 
L 222.586442 663.57518 
L 223.102929 664.258758 
L 224.308066 665.507112 
L 225.599284 666.432488 
L 226.632258 666.907298 
L 227.062664 666.92779 
L 227.406988 666.894188 
L 227.751313 666.554174 
L 228.095638 666.0896 
L 228.870369 663.874501 
L 229.645099 662.19014 
L 230.41983 660.567456 
L 231.538886 657.759657 
L 233.949159 653.488389 
L 235.842945 649.870143 
L 236.445513 649.847925 
L 236.962 650.721421 
L 238.425381 653.779216 
L 238.597543 653.966448 
L 239.974842 652.834492 
L 240.233086 652.831491 
L 240.57741 652.884072 
L 241.438222 652.926177 
L 241.782547 653.275225 
L 242.471197 653.964393 
L 242.987684 653.460072 
L 243.504171 652.620462 
L 243.762414 652.411734 
L 244.020658 652.545207 
L 244.19282 652.641965 
L 244.623226 652.34715 
L 244.795389 652.334504 
L 245.225795 651.56098 
L 245.484038 651.385264 
L 245.6562 651.37117 
L 245.914444 651.693698 
L 246.861337 653.158186 
L 247.636068 654.587916 
L 247.980393 655.130202 
L 249.099448 656.901526 
L 249.788098 656.612599 
L 250.390666 655.36597 
L 250.821072 654.578966 
L 251.165397 654.26885 
L 251.940127 653.387969 
L 252.284452 653.292211 
L 252.628777 653.367863 
L 252.973102 653.581205 
L 253.145264 653.506899 
L 253.317426 653.410207 
L 253.489589 653.394321 
L 253.919995 652.814514 
L 254.092157 652.749272 
L 254.436482 652.386203 
L 254.780806 652.263908 
L 255.211212 652.007848 
L 255.813781 652.082394 
L 256.50243 653.165706 
L 256.760674 653.422197 
L 257.104999 653.558844 
L 258.310135 654.787473 
L 259.084866 655.728443 
L 260.290003 654.75082 
L 261.064733 654.153552 
L 261.58122 653.208118 
L 261.839464 652.944242 
L 262.097708 653.054635 
L 262.355951 653.061507 
L 262.614195 653.067511 
L 262.786357 653.171448 
L 263.216763 652.957418 
L 263.388925 652.957448 
L 263.819331 652.225198 
L 263.991494 652.01123 
L 264.335818 650.970865 
L 264.507981 650.781113 
L 264.852306 650.262926 
L 265.110549 650.339915 
L 265.540955 650.68052 
L 265.88528 651.41743 
L 266.573929 653.528012 
L 267.176498 655.320548 
L 267.434741 655.700594 
L 267.865147 656.022118 
L 268.295553 656.035267 
L 268.381634 656.02048 
L 269.070284 654.472112 
L 269.931096 651.51001 
L 270.447583 650.869791 
L 270.705826 651.018936 
L 271.136232 651.605149 
L 272.771775 654.960115 
L 272.943937 655.024006 
L 273.374343 654.697521 
L 274.149074 653.253844 
L 274.407318 653.193688 
L 274.57948 653.173484 
L 275.009886 652.82798 
L 275.182048 652.805926 
L 275.612454 652.249588 
L 275.870698 652.195481 
L 276.128941 652.241523 
L 276.387185 652.532294 
L 277.334078 651.603469 
L 277.678403 651.745312 
L 277.936646 651.992203 
L 278.367052 652.847765 
L 278.969621 654.501925 
L 281.035569 660.767208 
L 281.982462 662.739627 
L 283.015436 664.340515 
L 284.134492 665.50477 
L 285.339629 666.380565 
L 286.20044 666.85221 
L 286.286522 666.815667 
L 286.544765 666.255383 
L 286.803009 665.650912 
L 287.233415 664.533995 
L 287.749902 663.675099 
L 288.008145 663.629427 
L 288.35247 663.625615 
L 288.696795 663.326015 
L 289.299363 662.74282 
L 290.074094 662.423472 
L 290.418419 662.535025 
L 290.934906 663.011042 
L 292.140042 664.253835 
L 292.484367 664.21138 
L 293.000854 664.214281 
L 293.947747 664.296641 
L 294.722478 664.44548 
L 296.185858 664.483176 
L 296.874508 664.252195 
L 297.304914 663.895608 
L 297.563157 663.502376 
L 298.079644 662.541404 
L 299.887349 656.306837 
L 301.436811 649.924771 
L 302.297623 647.652738 
L 302.469785 647.175591 
L 302.81411 645.532975 
L 302.986272 644.94242 
L 303.588841 641.586987 
L 304.27749 638.021982 
L 304.621815 636.801222 
L 304.880058 636.304199 
L 305.138302 635.772991 
L 305.310464 635.90675 
L 305.396545 635.826673 
L 305.654789 636.134065 
L 305.826951 635.989536 
L 306.085195 636.368216 
L 306.171276 636.396765 
L 306.42952 636.169965 
L 306.601682 636.436355 
L 306.946007 636.236162 
L 307.032088 636.103289 
L 307.20425 636.283566 
L 307.634656 635.738967 
L 307.720738 635.890491 
L 307.8929 635.843422 
L 307.978981 635.830733 
L 308.237225 635.495634 
L 308.409387 635.727094 
L 308.495468 635.686221 
L 308.753712 636.062281 
L 308.925874 635.954648 
L 309.184118 636.357243 
L 309.442361 636.438908 
L 309.528443 636.460969 
L 309.786686 636.954782 
L 310.217092 637.657447 
L 310.991823 639.815778 
L 311.077904 639.558431 
L 311.680472 631.458442 
L 311.852635 631.298015 
L 312.110878 630.785975 
L 312.369122 631.318912 
L 312.541284 632.142338 
L 312.885609 635.864336 
L 313.832502 647.411756 
L 314.43507 652.104755 
L 315.037639 655.277275 
L 315.640207 657.409704 
L 316.414938 659.073556 
L 316.931425 659.750575 
L 317.533993 660.155502 
L 318.308724 660.361485 
L 319.169536 660.297615 
L 319.944266 660.056838 
L 321.66589 659.634702 
L 322.268458 659.874207 
L 322.957108 660.397453 
L 323.731839 661.297657 
L 326.658599 664.756753 
L 328.380223 665.910636 
L 329.929684 666.624877 
L 331.909552 667.311623 
L 334.319825 668.065052 
L 336.557936 668.760266 
L 337.246585 668.962029 
L 350.58917 670.517248 
L 357.13134 670.839046 
L 366.858514 671.054814 
L 384.591239 671.204659 
L 425.22156 671.294817 
L 505.621391 671.325283 
L 540.570353 671.325796 
L 552.966044 671.325037 
L 567.513765 671.32434 
L 573.195124 671.324536 
L 671.155517 671.324409 
L 671.155517 671.324409 
" clip-path="url(#p0680ce3126)" style="fill: none; stroke: #1f77b4; stroke-width: 1.5; stroke-linecap: square"/>
   </g>
   <g id="line2d_34">
    <path d="M 51.54312 671.322857 
L 52.317851 671.230099 
L 53.0065 670.575024 
L 55.588936 667.341101 
L 56.966235 666.025547 
L 57.310559 665.688431 
L 57.827047 665.34674 
L 58.77394 664.651162 
L 59.376508 664.480951 
L 59.806914 664.665927 
L 60.323401 665.169959 
L 61.356375 666.591495 
L 62.647593 668.265495 
L 63.680567 669.249641 
L 64.197055 669.517956 
L 64.627461 669.514954 
L 65.230029 668.970935 
L 66.00476 667.393951 
L 67.123815 664.199196 
L 69.534088 654.875925 
L 70.050575 652.797637 
L 70.222738 652.191351 
L 71.169631 648.493833 
L 71.427874 647.583468 
L 72.54693 642.107462 
L 73.149498 638.357684 
L 73.407742 637.073652 
L 73.924229 634.881999 
L 74.69896 631.996906 
L 75.387609 630.238414 
L 75.818015 629.492761 
L 76.16234 629.029826 
L 76.420583 629.156866 
L 76.850989 629.054478 
L 77.023152 629.123429 
L 77.62572 628.80433 
L 78.056126 628.590032 
L 78.142207 628.582748 
L 78.400451 628.330416 
L 78.658694 628.316402 
L 78.916938 628.30805 
L 79.261263 628.49954 
L 80.466399 631.942032 
L 80.55248 631.838859 
L 80.810724 630.05941 
L 81.585455 623.447814 
L 81.843698 622.654843 
L 82.015861 623.613356 
L 82.532348 629.346558 
L 83.651403 641.849818 
L 84.16789 646.343365 
L 84.253972 646.314356 
L 84.512215 642.216497 
L 84.85654 632.656616 
L 85.114783 616.09399 
L 85.975595 534.533576 
L 87.094651 429.653799 
L 87.525057 409.745704 
L 87.7833 404.738708 
L 87.869381 404.478158 
L 88.041544 404.871787 
L 88.127625 405.081121 
L 88.385869 411.188189 
L 88.730193 426.840383 
L 90.882223 550.60592 
L 91.829116 589.452724 
L 92.431684 608.132726 
L 92.948172 619.416125 
L 93.636821 628.767031 
L 94.411552 635.273287 
L 94.928039 638.043724 
L 95.186283 638.558111 
L 95.358445 638.549395 
L 95.530607 638.524799 
L 95.874932 637.06107 
L 96.133176 635.151963 
L 96.735744 627.660944 
L 97.338312 611.147137 
L 98.113043 563.217234 
L 98.285205 561.239479 
L 98.371287 561.169472 
L 98.457368 561.420916 
L 98.543449 562.803936 
L 98.801692 576.957177 
L 99.490342 617.195859 
L 100.006829 634.183318 
L 100.437235 642.097889 
L 100.953722 647.278338 
L 101.384128 649.926243 
L 103.277914 657.548186 
L 104.224807 660.602784 
L 105.085619 662.53513 
L 105.86035 663.688588 
L 106.290756 664.143632 
L 107.32373 664.886465 
L 108.701029 665.230587 
L 111.62779 664.801039 
L 112.144277 664.572566 
L 112.40252 664.441868 
L 113.349413 663.928531 
L 113.435495 663.981037 
L 113.521576 663.792079 
L 114.898875 654.877678 
L 115.157118 654.517854 
L 115.673605 654.586227 
L 116.104011 655.030138 
L 116.448336 655.440849 
L 116.878742 656.08854 
L 117.911716 657.287059 
L 118.342122 657.561152 
L 118.514285 657.642597 
L 118.944691 657.773055 
L 119.116853 657.801995 
L 119.547259 657.770347 
L 119.805503 657.890012 
L 120.235908 657.883535 
L 120.408071 657.871067 
L 120.838477 657.734637 
L 121.010639 657.658278 
L 121.441045 657.418507 
L 121.613207 657.309564 
L 122.043613 657.002383 
L 122.215776 656.87075 
L 122.646182 656.463251 
L 122.818344 656.509094 
L 123.24875 656.104328 
L 123.420912 656.126246 
L 123.9374 655.629909 
L 124.109562 655.458992 
L 124.539968 654.99792 
L 124.71213 654.804889 
L 125.142536 654.301279 
L 125.314699 654.09453 
L 125.745105 653.501929 
L 125.917267 653.51875 
L 126.347673 652.953492 
L 126.519835 652.949564 
L 127.036322 652.280806 
L 127.208485 652.052299 
L 127.638891 651.453008 
L 127.811053 651.203772 
L 128.241459 650.567795 
L 128.413621 650.307161 
L 128.844027 649.579854 
L 129.01619 649.587205 
L 129.446596 648.902529 
L 129.618758 648.888137 
L 130.135245 648.08456 
L 130.221326 648.018296 
L 130.651732 647.132863 
L 131.254301 646.807837 
L 131.598625 647.224522 
L 131.94295 648.051474 
L 132.6316 650.691427 
L 135.127954 661.460388 
L 136.074847 664.334377 
L 136.935659 666.280055 
L 137.796471 667.705554 
L 138.657283 668.733152 
L 139.518095 669.495011 
L 139.86242 668.861512 
L 140.206744 667.922206 
L 141.584043 661.625346 
L 142.014449 660.527089 
L 142.272693 660.288128 
L 142.530936 660.327264 
L 143.219586 660.695402 
L 144.080398 660.269987 
L 144.424723 660.077343 
L 144.596885 659.982854 
L 145.027291 659.653557 
L 145.371616 659.695838 
L 145.888103 659.949915 
L 146.40459 659.575074 
L 147.523645 657.177029 
L 148.470538 656.523568 
L 148.728782 656.516197 
L 149.159188 656.780852 
L 149.589594 657.076405 
L 150.106081 656.820148 
L 150.364325 656.89961 
L 150.622568 657.20717 
L 150.880812 657.457928 
L 151.311218 657.81869 
L 151.397299 657.660189 
L 152.430273 655.714878 
L 152.602435 655.513529 
L 152.94676 655.128063 
L 153.118923 655.119407 
L 153.549329 654.763597 
L 153.721491 654.776324 
L 154.151897 655.157255 
L 154.582303 655.981675 
L 155.443115 658.089796 
L 155.701358 658.609911 
L 156.131764 658.458859 
L 156.390008 658.263415 
L 156.734332 658.046441 
L 156.906495 658.140016 
L 157.767307 656.748631 
L 158.02555 656.651943 
L 158.283794 656.817003 
L 158.628119 657.4092 
L 159.316768 658.655031 
L 159.661093 658.071319 
L 161.296636 654.719636 
L 161.813123 653.385788 
L 162.071366 653.210665 
L 162.243529 653.275857 
L 162.673935 653.7389 
L 163.018259 654.246756 
L 163.620828 655.658197 
L 163.879071 656.113101 
L 164.395558 656.531558 
L 164.998127 656.190551 
L 165.25637 656.247183 
L 165.514614 656.501029 
L 165.858939 657.084145 
L 166.461507 658.202 
L 166.977994 658.55391 
L 167.322319 658.621942 
L 167.4084 658.637777 
L 168.183131 657.410987 
L 168.441374 657.377496 
L 168.613537 657.540391 
L 169.130024 657.119239 
L 169.302186 657.143489 
L 170.421242 654.979077 
L 170.679485 654.83184 
L 170.937729 654.964718 
L 171.282053 655.370004 
L 171.712459 655.924584 
L 172.228946 656.737516 
L 172.831515 658.260778 
L 173.17584 659.099287 
L 173.606245 659.7445 
L 173.692327 659.670889 
L 174.208814 659.075619 
L 175.41395 656.248677 
L 175.930438 655.76157 
L 176.188681 655.839618 
L 176.533006 655.789427 
L 176.705168 655.920169 
L 177.479899 654.594389 
L 177.996386 653.411346 
L 178.426792 652.784434 
L 178.598954 652.84436 
L 179.02936 652.429824 
L 179.71801 652.581229 
L 179.976253 652.736709 
L 180.234497 652.904272 
L 180.406659 653.167762 
L 181.18139 652.513587 
L 181.439634 652.624756 
L 181.611796 652.87075 
L 182.042202 653.483931 
L 182.903014 654.556545 
L 183.33342 654.811698 
L 183.677745 655.292896 
L 184.366394 656.532671 
L 184.882881 656.925839 
L 185.313287 657.399101 
L 185.829774 658.518958 
L 186.001937 659.019329 
L 186.26018 658.85177 
L 186.604505 658.520984 
L 187.379236 655.971964 
L 187.637479 655.679714 
L 187.809642 655.690385 
L 189.703428 657.170038 
L 190.994646 654.864741 
L 191.252889 655.076071 
L 191.597214 655.761978 
L 192.199782 657.732137 
L 193.835325 663.327743 
L 194.782218 665.709889 
L 195.64303 667.298732 
L 196.503842 668.448041 
L 197.450735 669.338016 
L 198.483709 669.996607 
L 199.688846 670.493313 
L 200.635739 670.76892 
L 200.807901 670.451647 
L 200.980064 668.362182 
L 201.496551 658.730228 
L 203.046012 622.047354 
L 203.390337 618.685763 
L 203.734662 617.010491 
L 203.820743 616.716945 
L 203.906824 616.757655 
L 204.939798 620.33148 
L 205.456285 623.44062 
L 206.833584 632.404952 
L 207.177909 634.276969 
L 207.608315 635.894287 
L 208.124802 637.095033 
L 208.469127 637.789408 
L 210.535075 640.918427 
L 210.707238 641.161674 
L 210.965481 641.390597 
L 211.395887 641.780904 
L 211.998456 639.92334 
L 212.773186 633.285917 
L 213.203592 627.279532 
L 213.547917 617.914075 
L 213.892242 604.506765 
L 214.839135 518.852567 
L 215.011297 517.223299 
L 215.097378 518.100134 
L 215.269541 528.072849 
L 216.216434 600.260591 
L 216.732921 620.34612 
L 217.249408 631.6603 
L 217.851977 639.6487 
L 218.712788 647.295705 
L 219.831844 655.256979 
L 220.692656 659.814534 
L 221.553468 663.157731 
L 222.328198 665.342158 
L 223.102929 666.939268 
L 223.963741 668.211748 
L 224.824553 669.108724 
L 225.771446 669.795572 
L 226.460095 670.083697 
L 226.976583 669.963844 
L 227.579151 669.385934 
L 228.439963 667.267199 
L 229.214693 664.963408 
L 229.731181 664.113059 
L 230.41983 663.629937 
L 230.591992 663.61013 
L 231.194561 662.905037 
L 231.366723 662.685601 
L 232.141454 661.029362 
L 232.830103 659.148544 
L 233.432672 658.097815 
L 233.863078 657.343359 
L 235.49862 652.565156 
L 236.273351 651.253464 
L 236.531594 651.261907 
L 236.789838 651.551683 
L 237.134163 652.125207 
L 238.167137 654.283519 
L 238.683624 654.35951 
L 239.716598 652.585484 
L 239.974842 652.511165 
L 240.233086 652.786039 
L 240.835654 653.729552 
L 241.352141 653.859633 
L 241.696466 653.74752 
L 241.954709 653.875455 
L 242.212953 654.195998 
L 242.385115 654.573308 
L 242.987684 654.155824 
L 243.676333 652.633956 
L 243.934577 652.58363 
L 244.106739 652.699589 
L 244.364983 653.033423 
L 244.967551 652.922946 
L 245.6562 651.600598 
L 245.914444 651.537832 
L 246.172688 651.79701 
L 246.517012 652.604828 
L 247.205662 654.936141 
L 247.463905 655.723437 
L 247.80823 655.87762 
L 248.324717 656.203369 
L 248.669042 656.729736 
L 249.357692 657.976032 
L 249.96026 657.551601 
L 250.734991 655.75817 
L 251.079315 655.391722 
L 251.42364 655.131929 
L 251.595803 655.175536 
L 251.767965 655.162119 
L 252.11229 655.05603 
L 252.370533 655.127928 
L 252.714858 655.193161 
L 252.88702 655.389199 
L 252.973102 655.47884 
L 253.661751 654.535408 
L 254.178238 653.524635 
L 254.522563 653.065714 
L 254.694725 653.039077 
L 254.866888 652.97023 
L 255.211212 652.80795 
L 255.469456 652.870257 
L 255.813781 652.913258 
L 256.072024 653.203345 
L 256.50243 653.922194 
L 256.760674 654.409781 
L 257.707567 654.510556 
L 258.482298 655.731556 
L 258.998785 656.741165 
L 259.170947 657.206911 
L 259.429191 656.9683 
L 260.031759 656.013596 
L 260.462165 655.402945 
L 260.80649 655.216727 
L 260.978652 655.335103 
L 261.667302 654.380285 
L 262.011626 654.248346 
L 262.183789 654.387966 
L 262.355951 654.479205 
L 262.786357 654.551371 
L 262.872438 654.597472 
L 263.647169 653.61256 
L 264.852306 650.450485 
L 265.110549 650.436601 
L 265.282712 650.642731 
L 265.88528 652.078359 
L 267.34866 656.383411 
L 267.865147 656.346878 
L 268.295553 656.023629 
L 268.467716 656.104988 
L 269.242446 654.33073 
L 269.845015 652.453625 
L 270.189339 651.701318 
L 270.361502 651.575605 
L 270.533664 651.651541 
L 270.791908 652.051127 
L 271.480557 653.842684 
L 271.738801 654.286425 
L 272.255288 654.742006 
L 272.599613 655.306471 
L 272.771775 655.736565 
L 273.1161 655.478166 
L 273.460424 655.050417 
L 274.062993 653.422779 
L 274.321236 653.226697 
L 274.493399 653.26156 
L 274.751642 653.549272 
L 275.095967 653.725352 
L 275.268129 653.962122 
L 276.215022 652.911231 
L 276.301104 652.883301 
L 276.473266 653.006036 
L 277.075834 652.159688 
L 277.420159 651.750024 
L 277.678403 651.714148 
L 277.936646 652.098998 
L 278.367052 653.332614 
L 279.227864 656.941705 
L 280.433001 661.771611 
L 281.293813 664.408218 
L 282.154625 666.366472 
L 283.015436 667.78195 
L 283.876248 668.79391 
L 284.823141 669.574761 
L 285.942197 670.191715 
L 286.372603 670.37486 
L 286.803009 668.606593 
L 287.405577 666.404356 
L 287.749902 665.806193 
L 288.008145 665.708211 
L 288.35247 665.829215 
L 288.868957 666.315745 
L 291.537474 669.308356 
L 291.96788 669.647681 
L 292.312205 669.086751 
L 292.914773 668.085212 
L 293.259098 667.804274 
L 293.603423 667.802437 
L 294.11991 668.051426 
L 295.927615 669.185178 
L 296.530183 669.012722 
L 297.132751 668.287311 
L 298.165726 665.928091 
L 301.522892 653.300995 
L 303.158435 645.701472 
L 304.191409 638.254905 
L 305.568708 632.15905 
L 305.654789 632.100802 
L 306.085195 631.111914 
L 306.257357 631.107142 
L 306.773845 630.323456 
L 306.946007 630.013056 
L 307.376413 629.491588 
L 307.548575 629.247083 
L 307.978981 628.899241 
L 308.065062 628.873694 
L 308.323306 628.579951 
L 308.581549 628.451169 
L 308.839793 628.736305 
L 309.270199 628.846771 
L 309.442361 629.063696 
L 310.04493 629.546148 
L 310.475336 630.349621 
L 310.991823 631.625831 
L 311.077904 631.516091 
L 311.336148 629.743742 
L 312.024797 623.798995 
L 312.369122 622.571964 
L 312.541284 623.603059 
L 313.143852 630.370018 
L 314.176827 641.583047 
L 314.951557 647.84485 
L 315.812369 652.945208 
L 316.5871 656.207071 
L 317.103587 657.823654 
L 317.878318 659.604372 
L 318.308724 660.389044 
L 319.169536 661.482099 
L 319.51386 661.720007 
L 320.546835 662.199995 
L 321.063322 662.283803 
L 321.751971 662.807533 
L 322.35454 663.650909 
L 325.453462 668.483634 
L 326.228193 669.148831 
L 328.380223 669.903884 
L 330.015765 670.530246 
L 331.651308 670.904127 
L 333.803338 671.146669 
L 337.246585 671.283575 
L 345.682542 671.331573 
L 494.68908 671.333609 
L 671.155517 671.333609 
L 671.155517 671.333609 
" clip-path="url(#p0680ce3126)" style="fill: none; stroke: #ff7f0e; stroke-width: 1.5; stroke-linecap: square"/>
   </g>
   <g id="patch_9">
    <path d="M 20.5625 684.92 
L 20.5625 386.16 
" style="fill: none; stroke: #000000; stroke-width: 0.8; stroke-linejoin: miter; stroke-linecap: square"/>
   </g>
   <g id="patch_10">
    <path d="M 702.136136 684.92 
L 702.136136 386.16 
" style="fill: none; stroke: #000000; stroke-width: 0.8; stroke-linejoin: miter; stroke-linecap: square"/>
   </g>
   <g id="patch_11">
    <path d="M 20.5625 684.92 
L 702.136136 684.92 
" style="fill: none; stroke: #000000; stroke-width: 0.8; stroke-linejoin: miter; stroke-linecap: square"/>
   </g>
   <g id="patch_12">
    <path d="M 20.5625 386.16 
L 702.136136 386.16 
" style="fill: none; stroke: #000000; stroke-width: 0.8; stroke-linejoin: miter; stroke-linecap: square"/>
   </g>
   <g id="text_32">
    <!-- 2 transformation(s) -->
    <g transform="translate(303.234631 380.16) scale(0.12 -0.12)">
     <use xlink:href="#DejaVuSans-32"/>
     <use xlink:href="#DejaVuSans-20" x="63.623047"/>
     <use xlink:href="#DejaVuSans-74" x="95.410156"/>
     <use xlink:href="#DejaVuSans-72" x="134.619141"/>
     <use xlink:href="#DejaVuSans-61" x="175.732422"/>
     <use xlink:href="#DejaVuSans-6e" x="237.011719"/>
     <use xlink:href="#DejaVuSans-73" x="300.390625"/>
     <use xlink:href="#DejaVuSans-66" x="352.490234"/>
     <use xlink:href="#DejaVuSans-6f" x="387.695312"/>
     <use xlink:href="#DejaVuSans-72" x="448.876953"/>
     <use xlink:href="#DejaVuSans-6d" x="488.240234"/>
     <use xlink:href="#DejaVuSans-61" x="585.652344"/>
     <use xlink:href="#DejaVuSans-74" x="646.931641"/>
     <use xlink:href="#DejaVuSans-69" x="686.140625"/>
     <use xlink:href="#DejaVuSans-6f" x="713.923828"/>
     <use xlink:href="#DejaVuSans-6e" x="775.105469"/>
     <use xlink:href="#DejaVuSans-28" x="838.484375"/>
     <use xlink:href="#DejaVuSans-73" x="877.498047"/>
     <use xlink:href="#DejaVuSans-29" x="929.597656"/>
    </g>
   </g>
  </g>
  <g id="text_33">
   <!-- training -->
   <g transform="translate(333.129063 16.318125) scale(0.12 -0.12)">
    <defs>
     <path id="DejaVuSans-67" d="M 2906 1791 
Q 2906 2416 2648 2759 
Q 2391 3103 1925 3103 
Q 1463 3103 1205 2759 
Q 947 2416 947 1791 
Q 947 1169 1205 825 
Q 1463 481 1925 481 
Q 2391 481 2648 825 
Q 2906 1169 2906 1791 
z
M 3481 434 
Q 3481 -459 3084 -895 
Q 2688 -1331 1869 -1331 
Q 1566 -1331 1297 -1286 
Q 1028 -1241 775 -1147 
L 775 -588 
Q 1028 -725 1275 -790 
Q 1522 -856 1778 -856 
Q 2344 -856 2625 -561 
Q 2906 -266 2906 331 
L 2906 616 
Q 2728 306 2450 153 
Q 2172 0 1784 0 
Q 1141 0 747 490 
Q 353 981 353 1791 
Q 353 2603 747 3093 
Q 1141 3584 1784 3584 
Q 2172 3584 2450 3431 
Q 2728 3278 2906 2969 
L 2906 3500 
L 3481 3500 
L 3481 434 
z
" transform="scale(0.015625)"/>
    </defs>
    <use xlink:href="#DejaVuSans-74"/>
    <use xlink:href="#DejaVuSans-72" x="39.208984"/>
    <use xlink:href="#DejaVuSans-61" x="80.322266"/>
    <use xlink:href="#DejaVuSans-69" x="141.601562"/>
    <use xlink:href="#DejaVuSans-6e" x="169.384766"/>
    <use xlink:href="#DejaVuSans-69" x="232.763672"/>
    <use xlink:href="#DejaVuSans-6e" x="260.546875"/>
    <use xlink:href="#DejaVuSans-67" x="323.925781"/>
   </g>
  </g>
 </g>
 <defs>
  <clipPath id="p568d23fd1b">
   <rect x="20.5625" y="43.44" width="681.573636" height="298.76"/>
  </clipPath>
  <clipPath id="p0680ce3126">
   <rect x="20.5625" y="386.16" width="681.573636" height="298.76"/>
  </clipPath>
 </defs>
</svg>
