<?xml version="1.0" encoding="utf-8" standalone="no"?>
<!DOCTYPE svg PUBLIC "-//W3C//DTD SVG 1.1//EN"
  "http://www.w3.org/Graphics/SVG/1.1/DTD/svg11.dtd">
<svg xmlns:xlink="http://www.w3.org/1999/xlink" width="709.336136pt" height="708.798125pt" viewBox="0 0 709.336136 708.798125" xmlns="http://www.w3.org/2000/svg" version="1.1">
 <metadata>
  <rdf:RDF xmlns:dc="http://purl.org/dc/elements/1.1/" xmlns:cc="http://creativecommons.org/ns#" xmlns:rdf="http://www.w3.org/1999/02/22-rdf-syntax-ns#">
   <cc:Work>
    <dc:type rdf:resource="http://purl.org/dc/dcmitype/StillImage"/>
    <dc:date>2023-06-12T20:20:31.238678</dc:date>
    <dc:format>image/svg+xml</dc:format>
    <dc:creator>
     <cc:Agent>
      <dc:title>Matplotlib v3.7.1, https://matplotlib.org/</dc:title>
     </cc:Agent>
    </dc:creator>
   </cc:Work>
  </rdf:RDF>
 </metadata>
 <defs>
  <style type="text/css">*{stroke-linejoin: round; stroke-linecap: butt}</style>
 </defs>
 <g id="figure_1">
  <g id="patch_1">
   <path d="M 0 708.798125 
L 709.336136 708.798125 
L 709.336136 0 
L 0 0 
z
" style="fill: #ffffff"/>
  </g>
  <g id="axes_1">
   <g id="patch_2">
    <path d="M 20.5625 342.2 
L 702.136136 342.2 
L 702.136136 43.44 
L 20.5625 43.44 
z
" style="fill: #ffffff"/>
   </g>
   <g id="matplotlib.axis_1">
    <g id="xtick_1">
     <g id="line2d_1">
      <defs>
       <path id="m732fb9e430" d="M 0 0 
L 0 3.5 
" style="stroke: #000000; stroke-width: 0.8"/>
      </defs>
      <g>
       <use xlink:href="#m732fb9e430" x="51.370957" y="342.2" style="stroke: #000000; stroke-width: 0.8"/>
      </g>
     </g>
     <g id="text_1">
      <!-- 2014-07-01 -->
      <g transform="translate(22.313145 356.798437) scale(0.1 -0.1)">
       <defs>
        <path id="DejaVuSans-32" d="M 1228 531 
L 3431 531 
L 3431 0 
L 469 0 
L 469 531 
Q 828 903 1448 1529 
Q 2069 2156 2228 2338 
Q 2531 2678 2651 2914 
Q 2772 3150 2772 3378 
Q 2772 3750 2511 3984 
Q 2250 4219 1831 4219 
Q 1534 4219 1204 4116 
Q 875 4013 500 3803 
L 500 4441 
Q 881 4594 1212 4672 
Q 1544 4750 1819 4750 
Q 2544 4750 2975 4387 
Q 3406 4025 3406 3419 
Q 3406 3131 3298 2873 
Q 3191 2616 2906 2266 
Q 2828 2175 2409 1742 
Q 1991 1309 1228 531 
z
" transform="scale(0.015625)"/>
        <path id="DejaVuSans-30" d="M 2034 4250 
Q 1547 4250 1301 3770 
Q 1056 3291 1056 2328 
Q 1056 1369 1301 889 
Q 1547 409 2034 409 
Q 2525 409 2770 889 
Q 3016 1369 3016 2328 
Q 3016 3291 2770 3770 
Q 2525 4250 2034 4250 
z
M 2034 4750 
Q 2819 4750 3233 4129 
Q 3647 3509 3647 2328 
Q 3647 1150 3233 529 
Q 2819 -91 2034 -91 
Q 1250 -91 836 529 
Q 422 1150 422 2328 
Q 422 3509 836 4129 
Q 1250 4750 2034 4750 
z
" transform="scale(0.015625)"/>
        <path id="DejaVuSans-31" d="M 794 531 
L 1825 531 
L 1825 4091 
L 703 3866 
L 703 4441 
L 1819 4666 
L 2450 4666 
L 2450 531 
L 3481 531 
L 3481 0 
L 794 0 
L 794 531 
z
" transform="scale(0.015625)"/>
        <path id="DejaVuSans-34" d="M 2419 4116 
L 825 1625 
L 2419 1625 
L 2419 4116 
z
M 2253 4666 
L 3047 4666 
L 3047 1625 
L 3713 1625 
L 3713 1100 
L 3047 1100 
L 3047 0 
L 2419 0 
L 2419 1100 
L 313 1100 
L 313 1709 
L 2253 4666 
z
" transform="scale(0.015625)"/>
        <path id="DejaVuSans-2d" d="M 313 2009 
L 1997 2009 
L 1997 1497 
L 313 1497 
L 313 2009 
z
" transform="scale(0.015625)"/>
        <path id="DejaVuSans-37" d="M 525 4666 
L 3525 4666 
L 3525 4397 
L 1831 0 
L 1172 0 
L 2766 4134 
L 525 4134 
L 525 4666 
z
" transform="scale(0.015625)"/>
       </defs>
       <use xlink:href="#DejaVuSans-32"/>
       <use xlink:href="#DejaVuSans-30" x="63.623047"/>
       <use xlink:href="#DejaVuSans-31" x="127.246094"/>
       <use xlink:href="#DejaVuSans-34" x="190.869141"/>
       <use xlink:href="#DejaVuSans-2d" x="254.492188"/>
       <use xlink:href="#DejaVuSans-30" x="290.576172"/>
       <use xlink:href="#DejaVuSans-37" x="354.199219"/>
       <use xlink:href="#DejaVuSans-2d" x="417.822266"/>
       <use xlink:href="#DejaVuSans-30" x="453.90625"/>
       <use xlink:href="#DejaVuSans-31" x="517.529297"/>
      </g>
     </g>
    </g>
    <g id="xtick_2">
     <g id="line2d_2">
      <g>
       <use xlink:href="#m732fb9e430" x="175.327869" y="342.2" style="stroke: #000000; stroke-width: 0.8"/>
      </g>
     </g>
     <g id="text_2">
      <!-- 2014-07-02 -->
      <g transform="translate(146.270057 356.798437) scale(0.1 -0.1)">
       <use xlink:href="#DejaVuSans-32"/>
       <use xlink:href="#DejaVuSans-30" x="63.623047"/>
       <use xlink:href="#DejaVuSans-31" x="127.246094"/>
       <use xlink:href="#DejaVuSans-34" x="190.869141"/>
       <use xlink:href="#DejaVuSans-2d" x="254.492188"/>
       <use xlink:href="#DejaVuSans-30" x="290.576172"/>
       <use xlink:href="#DejaVuSans-37" x="354.199219"/>
       <use xlink:href="#DejaVuSans-2d" x="417.822266"/>
       <use xlink:href="#DejaVuSans-30" x="453.90625"/>
       <use xlink:href="#DejaVuSans-32" x="517.529297"/>
      </g>
     </g>
    </g>
    <g id="xtick_3">
     <g id="line2d_3">
      <g>
       <use xlink:href="#m732fb9e430" x="299.284781" y="342.2" style="stroke: #000000; stroke-width: 0.8"/>
      </g>
     </g>
     <g id="text_3">
      <!-- 2014-07-03 -->
      <g transform="translate(270.226969 356.798437) scale(0.1 -0.1)">
       <defs>
        <path id="DejaVuSans-33" d="M 2597 2516 
Q 3050 2419 3304 2112 
Q 3559 1806 3559 1356 
Q 3559 666 3084 287 
Q 2609 -91 1734 -91 
Q 1441 -91 1130 -33 
Q 819 25 488 141 
L 488 750 
Q 750 597 1062 519 
Q 1375 441 1716 441 
Q 2309 441 2620 675 
Q 2931 909 2931 1356 
Q 2931 1769 2642 2001 
Q 2353 2234 1838 2234 
L 1294 2234 
L 1294 2753 
L 1863 2753 
Q 2328 2753 2575 2939 
Q 2822 3125 2822 3475 
Q 2822 3834 2567 4026 
Q 2313 4219 1838 4219 
Q 1578 4219 1281 4162 
Q 984 4106 628 3988 
L 628 4550 
Q 988 4650 1302 4700 
Q 1616 4750 1894 4750 
Q 2613 4750 3031 4423 
Q 3450 4097 3450 3541 
Q 3450 3153 3228 2886 
Q 3006 2619 2597 2516 
z
" transform="scale(0.015625)"/>
       </defs>
       <use xlink:href="#DejaVuSans-32"/>
       <use xlink:href="#DejaVuSans-30" x="63.623047"/>
       <use xlink:href="#DejaVuSans-31" x="127.246094"/>
       <use xlink:href="#DejaVuSans-34" x="190.869141"/>
       <use xlink:href="#DejaVuSans-2d" x="254.492188"/>
       <use xlink:href="#DejaVuSans-30" x="290.576172"/>
       <use xlink:href="#DejaVuSans-37" x="354.199219"/>
       <use xlink:href="#DejaVuSans-2d" x="417.822266"/>
       <use xlink:href="#DejaVuSans-30" x="453.90625"/>
       <use xlink:href="#DejaVuSans-33" x="517.529297"/>
      </g>
     </g>
    </g>
    <g id="xtick_4">
     <g id="line2d_4">
      <g>
       <use xlink:href="#m732fb9e430" x="423.241693" y="342.2" style="stroke: #000000; stroke-width: 0.8"/>
      </g>
     </g>
     <g id="text_4">
      <!-- 2014-07-04 -->
      <g transform="translate(394.18388 356.798437) scale(0.1 -0.1)">
       <use xlink:href="#DejaVuSans-32"/>
       <use xlink:href="#DejaVuSans-30" x="63.623047"/>
       <use xlink:href="#DejaVuSans-31" x="127.246094"/>
       <use xlink:href="#DejaVuSans-34" x="190.869141"/>
       <use xlink:href="#DejaVuSans-2d" x="254.492188"/>
       <use xlink:href="#DejaVuSans-30" x="290.576172"/>
       <use xlink:href="#DejaVuSans-37" x="354.199219"/>
       <use xlink:href="#DejaVuSans-2d" x="417.822266"/>
       <use xlink:href="#DejaVuSans-30" x="453.90625"/>
       <use xlink:href="#DejaVuSans-34" x="517.529297"/>
      </g>
     </g>
    </g>
    <g id="xtick_5">
     <g id="line2d_5">
      <g>
       <use xlink:href="#m732fb9e430" x="547.198605" y="342.2" style="stroke: #000000; stroke-width: 0.8"/>
      </g>
     </g>
     <g id="text_5">
      <!-- 2014-07-05 -->
      <g transform="translate(518.140792 356.798437) scale(0.1 -0.1)">
       <defs>
        <path id="DejaVuSans-35" d="M 691 4666 
L 3169 4666 
L 3169 4134 
L 1269 4134 
L 1269 2991 
Q 1406 3038 1543 3061 
Q 1681 3084 1819 3084 
Q 2600 3084 3056 2656 
Q 3513 2228 3513 1497 
Q 3513 744 3044 326 
Q 2575 -91 1722 -91 
Q 1428 -91 1123 -41 
Q 819 9 494 109 
L 494 744 
Q 775 591 1075 516 
Q 1375 441 1709 441 
Q 2250 441 2565 725 
Q 2881 1009 2881 1497 
Q 2881 1984 2565 2268 
Q 2250 2553 1709 2553 
Q 1456 2553 1204 2497 
Q 953 2441 691 2322 
L 691 4666 
z
" transform="scale(0.015625)"/>
       </defs>
       <use xlink:href="#DejaVuSans-32"/>
       <use xlink:href="#DejaVuSans-30" x="63.623047"/>
       <use xlink:href="#DejaVuSans-31" x="127.246094"/>
       <use xlink:href="#DejaVuSans-34" x="190.869141"/>
       <use xlink:href="#DejaVuSans-2d" x="254.492188"/>
       <use xlink:href="#DejaVuSans-30" x="290.576172"/>
       <use xlink:href="#DejaVuSans-37" x="354.199219"/>
       <use xlink:href="#DejaVuSans-2d" x="417.822266"/>
       <use xlink:href="#DejaVuSans-30" x="453.90625"/>
       <use xlink:href="#DejaVuSans-35" x="517.529297"/>
      </g>
     </g>
    </g>
    <g id="xtick_6">
     <g id="line2d_6">
      <g>
       <use xlink:href="#m732fb9e430" x="671.155517" y="342.2" style="stroke: #000000; stroke-width: 0.8"/>
      </g>
     </g>
     <g id="text_6">
      <!-- 2014-07-06 -->
      <g transform="translate(642.097704 356.798437) scale(0.1 -0.1)">
       <defs>
        <path id="DejaVuSans-36" d="M 2113 2584 
Q 1688 2584 1439 2293 
Q 1191 2003 1191 1497 
Q 1191 994 1439 701 
Q 1688 409 2113 409 
Q 2538 409 2786 701 
Q 3034 994 3034 1497 
Q 3034 2003 2786 2293 
Q 2538 2584 2113 2584 
z
M 3366 4563 
L 3366 3988 
Q 3128 4100 2886 4159 
Q 2644 4219 2406 4219 
Q 1781 4219 1451 3797 
Q 1122 3375 1075 2522 
Q 1259 2794 1537 2939 
Q 1816 3084 2150 3084 
Q 2853 3084 3261 2657 
Q 3669 2231 3669 1497 
Q 3669 778 3244 343 
Q 2819 -91 2113 -91 
Q 1303 -91 875 529 
Q 447 1150 447 2328 
Q 447 3434 972 4092 
Q 1497 4750 2381 4750 
Q 2619 4750 2861 4703 
Q 3103 4656 3366 4563 
z
" transform="scale(0.015625)"/>
       </defs>
       <use xlink:href="#DejaVuSans-32"/>
       <use xlink:href="#DejaVuSans-30" x="63.623047"/>
       <use xlink:href="#DejaVuSans-31" x="127.246094"/>
       <use xlink:href="#DejaVuSans-34" x="190.869141"/>
       <use xlink:href="#DejaVuSans-2d" x="254.492188"/>
       <use xlink:href="#DejaVuSans-30" x="290.576172"/>
       <use xlink:href="#DejaVuSans-37" x="354.199219"/>
       <use xlink:href="#DejaVuSans-2d" x="417.822266"/>
       <use xlink:href="#DejaVuSans-30" x="453.90625"/>
       <use xlink:href="#DejaVuSans-36" x="517.529297"/>
      </g>
     </g>
    </g>
   </g>
   <g id="matplotlib.axis_2">
    <g id="ytick_1">
     <g id="line2d_7">
      <defs>
       <path id="ma93a45db17" d="M 0 0 
L -3.5 0 
" style="stroke: #000000; stroke-width: 0.8"/>
      </defs>
      <g>
       <use xlink:href="#ma93a45db17" x="20.5625" y="328.617923" style="stroke: #000000; stroke-width: 0.8"/>
      </g>
     </g>
     <g id="text_7">
      <!-- 0 -->
      <g transform="translate(7.2 332.417142) scale(0.1 -0.1)">
       <use xlink:href="#DejaVuSans-30"/>
      </g>
     </g>
    </g>
    <g id="ytick_2">
     <g id="line2d_8">
      <g>
       <use xlink:href="#ma93a45db17" x="20.5625" y="279.245221" style="stroke: #000000; stroke-width: 0.8"/>
      </g>
     </g>
     <g id="text_8">
      <!-- 1 -->
      <g transform="translate(7.2 283.04444) scale(0.1 -0.1)">
       <use xlink:href="#DejaVuSans-31"/>
      </g>
     </g>
    </g>
    <g id="ytick_3">
     <g id="line2d_9">
      <g>
       <use xlink:href="#ma93a45db17" x="20.5625" y="229.87252" style="stroke: #000000; stroke-width: 0.8"/>
      </g>
     </g>
     <g id="text_9">
      <!-- 2 -->
      <g transform="translate(7.2 233.671739) scale(0.1 -0.1)">
       <use xlink:href="#DejaVuSans-32"/>
      </g>
     </g>
    </g>
    <g id="ytick_4">
     <g id="line2d_10">
      <g>
       <use xlink:href="#ma93a45db17" x="20.5625" y="180.499819" style="stroke: #000000; stroke-width: 0.8"/>
      </g>
     </g>
     <g id="text_10">
      <!-- 3 -->
      <g transform="translate(7.2 184.299037) scale(0.1 -0.1)">
       <use xlink:href="#DejaVuSans-33"/>
      </g>
     </g>
    </g>
    <g id="ytick_5">
     <g id="line2d_11">
      <g>
       <use xlink:href="#ma93a45db17" x="20.5625" y="131.127117" style="stroke: #000000; stroke-width: 0.8"/>
      </g>
     </g>
     <g id="text_11">
      <!-- 4 -->
      <g transform="translate(7.2 134.926336) scale(0.1 -0.1)">
       <use xlink:href="#DejaVuSans-34"/>
      </g>
     </g>
    </g>
    <g id="ytick_6">
     <g id="line2d_12">
      <g>
       <use xlink:href="#ma93a45db17" x="20.5625" y="81.754416" style="stroke: #000000; stroke-width: 0.8"/>
      </g>
     </g>
     <g id="text_12">
      <!-- 5 -->
      <g transform="translate(7.2 85.553634) scale(0.1 -0.1)">
       <use xlink:href="#DejaVuSans-35"/>
      </g>
     </g>
    </g>
   </g>
   <g id="line2d_13">
    <path d="M 51.54312 328.61563 
L 52.231769 328.425085 
L 53.867312 327.454438 
L 57.396641 324.799463 
L 59.118264 324.371189 
L 59.720833 324.400272 
L 60.409482 324.64841 
L 62.303268 325.655119 
L 63.16408 326.092495 
L 64.885704 326.397959 
L 65.488272 326.302601 
L 66.521247 325.095172 
L 67.46814 323.742709 
L 67.812465 323.167856 
L 68.328952 321.807901 
L 70.136657 313.558598 
L 70.653144 312.293386 
L 70.997468 311.214205 
L 71.255712 310.712325 
L 71.427874 310.309607 
L 71.772199 309.377701 
L 71.85828 309.35281 
L 72.030443 308.529038 
L 72.460849 306.036896 
L 72.719092 304.674285 
L 72.977336 303.366229 
L 73.063417 303.440756 
L 73.235579 303.747727 
L 73.493823 302.566179 
L 73.665985 301.8822 
L 73.752067 301.877757 
L 73.838148 301.744552 
L 74.871122 296.893014 
L 75.043284 296.733577 
L 75.301528 295.300133 
L 75.47369 294.547072 
L 75.559771 294.557039 
L 75.645853 294.423746 
L 76.076259 292.315785 
L 76.16234 292.407922 
L 76.334502 292.722124 
L 76.506665 291.961796 
L 76.764908 290.84233 
L 76.850989 290.857983 
L 76.937071 290.71886 
L 77.711801 286.261843 
L 79.175181 272.635203 
L 79.519506 270.860316 
L 80.122075 266.209171 
L 80.55248 262.94596 
L 80.638562 259.9215 
L 81.068968 227.504203 
L 81.327211 226.06234 
L 81.671536 226.303817 
L 81.843698 226.199711 
L 82.015861 225.746549 
L 82.618429 223.120074 
L 83.995728 218.239747 
L 84.253972 216.828795 
L 84.426134 208.200393 
L 84.512215 208.688057 
L 84.598296 207.3816 
L 84.684378 207.688374 
L 84.85654 206.325249 
L 85.028702 198.001137 
L 85.114783 198.910005 
L 85.200865 197.496946 
L 85.373027 191.842227 
L 85.545189 190.543928 
L 85.631271 185.11263 
L 85.717352 186.891566 
L 86.061677 175.286456 
L 86.147758 174.079278 
L 86.233839 167.696677 
L 86.31992 167.909421 
L 86.664245 159.006593 
L 86.750326 156.61232 
L 87.094651 139.929253 
L 87.525057 122.129365 
L 88.47195 95.820708 
L 88.988437 89.561235 
L 89.074518 89.845325 
L 89.246681 88.567849 
L 89.332762 87.889347 
L 89.418843 88.964827 
L 89.504924 87.614768 
L 89.591005 88.287997 
L 89.677086 87.768502 
L 89.763168 88.369337 
L 89.93533 87.332491 
L 90.021411 88.586589 
L 90.107492 87.324887 
L 90.193574 88.111732 
L 90.279655 87.620536 
L 90.365736 88.153002 
L 90.537898 87.09332 
L 90.62398 88.154203 
L 90.710061 86.82119 
L 90.796142 87.46134 
L 90.882223 86.856928 
L 90.968304 87.239756 
L 91.140467 86.18264 
L 91.226548 86.984247 
L 91.312629 85.660698 
L 91.39871 86.091129 
L 91.484791 85.472309 
L 91.570873 85.77794 
L 91.743035 85.229677 
L 91.829116 84.704556 
L 91.915197 85.394688 
L 92.001279 84.301434 
L 92.08736 84.652809 
L 92.173441 84.188641 
L 92.259522 84.450224 
L 92.431684 83.755101 
L 92.517766 84.23276 
L 92.603847 83.511222 
L 92.689928 83.889554 
L 92.776009 83.574128 
L 92.86209 83.923667 
L 93.034253 83.529986 
L 93.206415 84.144192 
L 93.292496 83.013882 
L 93.378578 85.100286 
L 93.464659 84.220047 
L 93.55074 84.44714 
L 93.722902 85.162839 
L 93.808984 85.04788 
L 94.153308 85.86559 
L 94.239389 85.925836 
L 94.841958 87.415974 
L 94.928039 87.405379 
L 95.444526 88.593793 
L 95.530607 88.525425 
L 95.961013 89.724574 
L 96.047094 89.555067 
L 96.133176 89.098079 
L 96.305338 89.477541 
L 96.391419 89.05961 
L 96.563582 89.59589 
L 96.735744 87.222711 
L 96.821825 88.807703 
L 96.993987 86.977914 
L 97.16615 86.357115 
L 97.338312 81.363041 
L 97.424393 83.640519 
L 97.510475 79.363345 
L 97.596556 80.644658 
L 97.682637 76.694775 
L 97.768718 78.525435 
L 98.026962 74.445502 
L 98.113043 73.999626 
L 98.371287 69.115355 
L 98.715611 61.856352 
L 98.801692 63.241418 
L 98.887774 60.149009 
L 98.973855 61.634344 
L 99.059936 59.735599 
L 99.146017 60.113718 
L 99.31818 61.120359 
L 99.662504 65.328011 
L 101.384128 91.133325 
L 102.503184 100.152736 
L 103.622239 107.04186 
L 103.794401 107.830612 
L 104.310889 110.477663 
L 104.483051 111.275079 
L 106.118594 119.296444 
L 106.721162 121.875127 
L 107.668055 125.995789 
L 110.508734 135.702778 
L 112.144277 140.033782 
L 113.263332 142.047522 
L 113.435495 142.157408 
L 113.521576 141.961085 
L 113.607657 142.218148 
L 113.693738 141.915801 
L 113.779819 142.132665 
L 113.8659 141.912246 
L 114.640631 142.730862 
L 114.898875 142.723952 
L 115.2432 142.69217 
L 115.759687 142.584179 
L 116.620499 142.641988 
L 118.944691 143.558248 
L 119.289015 143.65103 
L 119.891584 143.791321 
L 120.235908 143.889188 
L 120.580233 143.975943 
L 121.182802 144.142296 
L 121.957532 144.366835 
L 122.474019 144.541781 
L 123.420912 144.882362 
L 123.679156 145.028763 
L 124.195643 145.2087 
L 124.539968 145.399738 
L 124.626049 145.376654 
L 124.798211 145.462079 
L 125.142536 145.653728 
L 125.228617 145.631563 
L 125.40078 145.710443 
L 125.831186 145.94926 
L 126.089429 146.010942 
L 126.347673 146.137143 
L 126.778079 146.315126 
L 129.963083 147.21739 
L 130.221326 147.187538 
L 130.307408 147.338612 
L 130.393489 147.219874 
L 130.565651 147.300461 
L 130.823895 147.348829 
L 130.996057 147.439222 
L 132.889843 148.728057 
L 133.750655 149.902616 
L 135.644441 152.997733 
L 135.816604 152.957592 
L 135.988766 153.488046 
L 136.24701 154.249418 
L 137.538227 156.754459 
L 139.17377 159.325056 
L 140.034582 160.359229 
L 140.120663 160.381489 
L 140.378907 160.66625 
L 141.067556 161.359984 
L 141.670124 161.944868 
L 142.272693 162.522995 
L 144.338641 164.301779 
L 146.060265 166.292717 
L 146.748915 166.895047 
L 147.093239 167.287257 
L 147.437564 167.678714 
L 147.954051 168.250567 
L 148.642701 168.872578 
L 149.761756 169.886705 
L 149.933919 170.03998 
L 150.450406 170.777291 
L 150.880812 171.257493 
L 152.258111 172.586951 
L 152.774598 173.196696 
L 154.840546 176.000672 
L 157.595144 181.252868 
L 158.972443 184.380203 
L 159.575012 185.43912 
L 159.747174 185.60751 
L 160.263661 186.726049 
L 161.124473 188.080886 
L 161.210554 188.097355 
L 161.468798 188.541995 
L 161.64096 188.654152 
L 162.760016 190.480457 
L 163.362584 191.226856 
L 163.448665 191.149883 
L 163.620828 190.406838 
L 163.79299 191.669636 
L 163.965152 192.352446 
L 164.051234 192.422897 
L 164.395558 193.063401 
L 165.084208 194.305339 
L 166.117182 196.084558 
L 166.375426 196.33138 
L 168.699618 198.946296 
L 169.818673 199.655391 
L 169.990836 199.665067 
L 170.679485 200.209034 
L 171.195972 200.556125 
L 172.48719 201.545214 
L 172.917596 202.034008 
L 173.17584 202.1846 
L 173.606245 202.446513 
L 173.95057 202.738666 
L 174.208814 202.856874 
L 174.553139 203.163095 
L 174.725301 203.327764 
L 174.897463 203.267142 
L 175.500032 203.752146 
L 175.672194 204.357029 
L 176.274762 207.034651 
L 176.619087 207.883108 
L 176.705168 207.837211 
L 177.824224 208.944579 
L 177.996386 208.941707 
L 178.512873 209.393398 
L 178.685036 209.27386 
L 179.71801 209.893257 
L 179.890172 209.847902 
L 180.320578 210.129744 
L 180.492741 209.890209 
L 181.525715 210.598327 
L 182.214364 211.014339 
L 182.386527 211.009148 
L 184.108151 212.384974 
L 184.280313 212.4831 
L 185.141125 213.344882 
L 185.915855 214.218435 
L 186.088018 214.064736 
L 186.518424 214.513838 
L 186.690586 214.238752 
L 187.120992 214.650809 
L 187.465317 214.928908 
L 188.41221 215.705053 
L 188.670454 215.811937 
L 189.617347 216.520762 
L 189.789509 216.209939 
L 190.219915 216.557029 
L 190.392077 216.487378 
L 191.166808 217.158853 
L 192.458026 218.54014 
L 194.007487 220.665261 
L 195.987355 223.989943 
L 196.762085 225.509309 
L 197.192491 226.109802 
L 198.655871 228.918027 
L 199.344521 230.649377 
L 199.947089 232.921358 
L 200.549658 236.29841 
L 200.807901 237.81458 
L 201.324388 230.500711 
L 201.410469 229.699787 
L 201.582632 223.841659 
L 201.668713 223.873807 
L 202.013038 224.789525 
L 202.1852 220.859618 
L 202.271281 221.107688 
L 202.443444 220.386491 
L 202.529525 220.510067 
L 202.615606 220.390105 
L 202.87385 216.757308 
L 203.132093 215.314279 
L 203.304256 214.81522 
L 203.562499 211.046946 
L 204.509392 200.599349 
L 204.853717 194.942912 
L 205.542367 186.12844 
L 205.886691 183.337025 
L 206.231016 181.011496 
L 206.403178 180.576803 
L 206.661422 178.923832 
L 206.919666 178.103344 
L 207.005747 177.927916 
L 207.177909 177.238149 
L 207.436153 177.032515 
L 207.608315 177.146356 
L 207.694396 176.835756 
L 207.780477 176.896026 
L 208.038721 177.098375 
L 208.210883 177.369658 
L 208.296965 177.185072 
L 208.813452 177.91492 
L 208.899533 177.688251 
L 208.985614 177.721387 
L 209.243858 178.006996 
L 209.502101 178.548785 
L 209.674264 178.427457 
L 209.932507 178.537108 
L 210.10467 178.617459 
L 210.276832 178.445726 
L 211.223725 178.31663 
L 211.309806 178.229839 
L 211.481969 177.533045 
L 211.740212 177.289284 
L 211.826293 177.257689 
L 211.912374 177.088605 
L 212.084537 175.970784 
L 212.34278 175.602387 
L 212.601024 175.245221 
L 212.773186 173.282792 
L 213.203592 171.838586 
L 213.375755 168.010054 
L 213.720079 165.649812 
L 213.806161 163.545221 
L 213.892242 157.710624 
L 213.978323 169.366104 
L 214.236567 151.122495 
L 214.408729 151.607911 
L 214.49481 151.197985 
L 215.527784 129.418597 
L 215.872109 122.5339 
L 215.95819 123.182714 
L 216.130353 122.259533 
L 216.216434 122.469816 
L 216.474677 124.061 
L 217.077246 129.804745 
L 218.540626 144.235702 
L 218.971032 146.728713 
L 219.5736 148.522329 
L 220.26225 149.775556 
L 221.036981 151.191051 
L 221.72563 153.011588 
L 223.18901 158.429219 
L 224.394147 163.645619 
L 226.80442 177.189003 
L 227.320907 179.113869 
L 227.406988 178.88813 
L 227.49307 177.503016 
L 227.837394 182.044175 
L 228.2678 183.587767 
L 229.989424 189.731974 
L 230.936317 192.325607 
L 231.711048 194.024981 
L 232.055373 194.48211 
L 233.34659 196.318444 
L 233.604834 196.594282 
L 233.690915 196.47239 
L 233.863078 196.515014 
L 234.207402 196.737045 
L 234.293484 196.795314 
L 234.465646 196.706016 
L 234.72389 196.574247 
L 234.896052 196.66617 
L 235.068214 196.533012 
L 235.326458 196.394569 
L 235.49862 196.441819 
L 235.670783 196.34673 
L 235.929026 196.21369 
L 236.359432 196.190595 
L 237.306325 196.196539 
L 237.65065 196.192808 
L 238.511462 196.470824 
L 238.597543 196.526338 
L 238.683624 196.421208 
L 238.855787 196.474661 
L 239.11403 196.731878 
L 239.716598 197.343895 
L 240.491329 198.417691 
L 240.57741 198.364437 
L 240.749573 198.530213 
L 240.921735 198.662712 
L 241.093897 198.924589 
L 241.179979 198.954183 
L 242.299034 200.817826 
L 242.385115 200.721701 
L 242.815521 201.307362 
L 242.987684 201.421262 
L 243.245927 201.722444 
L 244.19282 203.636904 
L 244.278901 203.60877 
L 244.795389 204.312769 
L 244.88147 204.182966 
L 245.397957 204.918335 
L 246.603094 207.009825 
L 247.377824 208.205161 
L 247.549987 208.437292 
L 248.669042 210.497305 
L 249.185529 211.268247 
L 249.357692 211.490397 
L 249.788098 212.261551 
L 249.874179 212.201046 
L 250.046341 212.390671 
L 251.079315 213.716575 
L 251.42364 214.163993 
L 251.854046 214.572247 
L 252.88702 215.739637 
L 253.059183 215.545845 
L 253.489589 216.026929 
L 253.661751 215.876244 
L 254.092157 216.321367 
L 254.264319 216.289066 
L 254.694725 216.696426 
L 254.866888 216.605457 
L 255.297294 216.997008 
L 255.469456 216.989992 
L 256.588511 217.915716 
L 256.760674 217.699217 
L 257.104999 218.032936 
L 258.65446 219.299511 
L 259.084866 219.751603 
L 259.257028 219.474775 
L 259.601353 219.85984 
L 259.773515 219.857792 
L 259.859597 219.825433 
L 260.290003 220.210957 
L 260.548246 220.292568 
L 260.892571 220.545699 
L 261.064733 220.239514 
L 261.322977 220.457155 
L 261.58122 220.58046 
L 261.839464 220.706013 
L 262.183789 220.915202 
L 262.355951 220.72606 
L 262.700276 220.944254 
L 262.786357 220.968515 
L 262.958519 220.72872 
L 263.302844 220.941935 
L 263.388925 220.948716 
L 263.561088 220.473093 
L 263.73325 220.560296 
L 263.991494 220.656597 
L 264.163656 220.1519 
L 264.335818 220.206519 
L 264.594062 220.294286 
L 265.110549 220.378334 
L 266.918254 220.935202 
L 267.090416 221.03427 
L 267.262579 220.818042 
L 267.606904 221.104192 
L 267.779066 221.095999 
L 267.865147 221.057189 
L 268.381634 221.451953 
L 268.553797 221.100072 
L 268.81204 221.333274 
L 268.984203 221.443678 
L 269.156365 221.009091 
L 269.328527 221.144285 
L 269.586771 221.314876 
L 269.758933 221.069537 
L 270.103258 221.267508 
L 271.566638 221.58404 
L 271.652719 221.471506 
L 271.997044 221.64717 
L 272.685694 221.943278 
L 272.857856 221.537296 
L 273.1161 221.698104 
L 273.288262 221.788756 
L 273.460424 221.36049 
L 273.718668 221.534012 
L 274.062993 221.657493 
L 274.57948 221.922561 
L 274.837723 221.827166 
L 275.182048 221.984761 
L 275.354211 221.592715 
L 275.612454 221.745437 
L 275.784617 221.831203 
L 276.04286 221.808084 
L 276.387185 221.925186 
L 276.559347 221.433284 
L 276.73151 221.509162 
L 276.989753 221.608736 
L 277.247997 221.516684 
L 277.764484 221.685238 
L 278.625296 222.089761 
L 279.572189 222.79662 
L 280.519082 223.778482 
L 280.949488 224.423023 
L 281.552056 225.372102 
L 282.068543 225.97595 
L 283.27368 227.993303 
L 284.048411 229.616928 
L 284.650979 231.482649 
L 285.167466 233.819254 
L 286.028278 239.045789 
L 286.716928 244.10613 
L 286.975171 248.174339 
L 287.577739 252.32244 
L 288.094227 260.014789 
L 288.438551 263.550284 
L 288.782876 264.874534 
L 289.901932 266.713816 
L 290.074094 266.670927 
L 290.418419 267.432676 
L 291.020987 268.623721 
L 292.226124 270.39776 
L 293.517341 272.011262 
L 295.497209 274.573412 
L 296.530183 275.622212 
L 297.218833 276.097534 
L 297.73532 276.273457 
L 298.251807 276.296446 
L 299.026538 276.006665 
L 299.973431 275.494586 
L 301.781136 272.441211 
L 302.383704 270.882723 
L 302.469785 270.804655 
L 303.330597 264.676157 
L 304.105328 257.5523 
L 304.363571 252.735927 
L 304.707896 245.253815 
L 304.880058 241.618363 
L 305.224383 231.05373 
L 305.74087 226.037349 
L 305.826951 226.083693 
L 305.913033 225.968781 
L 306.687763 221.596223 
L 306.773845 221.364115 
L 307.032088 219.370964 
L 307.376413 218.311364 
L 307.634656 216.306841 
L 309.098037 209.372151 
L 309.270199 208.903909 
L 309.528443 207.254634 
L 309.872767 206.185229 
L 310.131011 204.680718 
L 310.475336 203.31325 
L 310.733579 202.142505 
L 310.991823 201.389208 
L 311.077904 200.840615 
L 311.250066 197.245333 
L 311.50831 194.353614 
L 311.594391 194.34907 
L 311.680472 194.469503 
L 311.852635 194.898557 
L 311.938716 194.865845 
L 312.196959 194.150216 
L 312.97169 191.778438 
L 313.746421 189.495523 
L 314.004664 189.140675 
L 314.262908 189.086467 
L 314.521151 189.270831 
L 314.865476 189.874019 
L 315.468045 191.460423 
L 317.620074 197.263484 
L 318.394805 198.656214 
L 320.116429 201.036102 
L 320.632916 201.643929 
L 320.977241 202.160492 
L 321.321565 202.68832 
L 321.924134 203.59096 
L 322.698864 205.003713 
L 322.871027 205.268239 
L 323.559676 206.734493 
L 324.936975 209.841828 
L 328.035898 217.573558 
L 333.114688 231.030052 
L 333.631175 233.776695 
L 334.405906 239.916141 
L 334.750231 243.570698 
L 335.094556 250.078499 
L 335.524962 256.277302 
L 336.041449 264.967892 
L 336.385773 267.024874 
L 336.644017 267.612036 
L 337.160504 269.402308 
L 337.935235 271.071336 
L 339.398615 273.688511 
L 341.292401 276.585492 
L 343.100106 279.006215 
L 345.079974 281.290447 
L 346.97376 283.122572 
L 349.642277 285.228667 
L 352.05255 286.814324 
L 356.356609 289.204427 
L 359.541613 290.708599 
L 363.501348 292.310511 
L 367.461083 293.642671 
L 371.420817 294.72956 
L 376.155283 295.861551 
L 382.008803 297.015322 
L 390.100435 298.324681 
L 402.668289 300.053185 
L 414.37533 301.387035 
L 425.135479 302.34696 
L 440.716174 303.357847 
L 479.194466 305.392693 
L 512.507886 307.094972 
L 536.094131 308.284039 
L 558.389159 309.106014 
L 574.142017 309.476318 
L 599.277724 309.86156 
L 637.497772 310.198136 
L 671.155517 310.375064 
L 671.155517 310.375064 
" clip-path="url(#pa7fe863263)" style="fill: none; stroke: #1f77b4; stroke-width: 1.5; stroke-linecap: square"/>
   </g>
   <g id="line2d_14">
    <path d="M 51.54312 328.617923 
L 52.490013 328.513857 
L 53.264744 328.241796 
L 54.728124 327.437944 
L 57.740965 325.289815 
L 58.687859 324.469523 
L 59.720833 323.800889 
L 60.667726 323.488505 
L 62.045025 323.316058 
L 64.713542 323.071702 
L 65.488272 322.615563 
L 65.918678 322.211512 
L 66.951653 320.921961 
L 67.640302 319.698738 
L 68.587195 317.395145 
L 69.017601 316.174848 
L 70.739225 310.483317 
L 71.255712 308.372711 
L 72.030443 304.539414 
L 74.612878 286.805169 
L 76.678827 271.468433 
L 77.539639 265.411281 
L 77.970045 262.092503 
L 78.228288 260.178378 
L 79.003019 254.618639 
L 79.863831 249.77119 
L 80.55248 246.697017 
L 80.810724 243.246544 
L 81.327211 237.79635 
L 81.843698 234.416992 
L 82.274104 232.707033 
L 82.70451 231.783095 
L 83.134916 231.379908 
L 83.565322 231.323355 
L 83.995728 231.495044 
L 84.253972 231.691776 
L 84.426134 228.72769 
L 85.114783 214.361332 
L 87.955463 140.541167 
L 88.816275 123.351002 
L 89.418843 113.900699 
L 89.849249 108.426382 
L 90.796142 97.488685 
L 91.656954 91.260733 
L 91.829116 90.57944 
L 92.173441 88.585001 
L 92.517766 87.284663 
L 92.86209 86.166794 
L 92.948172 86.120793 
L 93.464659 84.764737 
L 93.55074 84.800726 
L 93.722902 84.366908 
L 93.981146 84.040104 
L 94.239389 84.123045 
L 94.411552 83.85291 
L 94.583714 83.871517 
L 94.755877 84.109222 
L 94.928039 84.329073 
L 95.186283 83.878277 
L 95.358445 83.928727 
L 95.444526 84.088744 
L 95.530607 83.942946 
L 95.788851 83.009235 
L 95.961013 82.806305 
L 96.047094 82.867959 
L 96.219257 81.754504 
L 96.563582 80.107121 
L 96.649663 79.996723 
L 96.907906 76.871489 
L 97.338312 72.605435 
L 97.682637 64.945052 
L 98.113043 59.843333 
L 98.457368 57.825246 
L 98.887774 57.02 
L 99.059936 57.168877 
L 99.576423 58.411151 
L 100.265073 61.61852 
L 101.900615 72.360009 
L 107.32373 112.996168 
L 109.47576 125.855227 
L 111.197384 134.89056 
L 113.09117 143.6298 
L 113.521576 145.356241 
L 113.693738 145.35286 
L 113.951982 145.609861 
L 114.55455 146.759701 
L 115.845768 150.553172 
L 119.63334 162.373022 
L 121.010639 165.927265 
L 123.593075 171.38262 
L 125.228617 174.031053 
L 125.572942 174.407283 
L 126.519835 175.700639 
L 126.778079 175.880228 
L 127.638891 176.74286 
L 128.413621 177.169984 
L 128.671865 177.273193 
L 129.188352 177.583097 
L 129.446596 177.73064 
L 129.618758 177.856305 
L 129.877002 177.801056 
L 130.307408 177.898289 
L 130.565651 177.87333 
L 131.254301 178.249013 
L 132.029031 179.365375 
L 132.889843 181.247628 
L 134.181061 184.759073 
L 139.432014 199.578432 
L 140.034582 200.610448 
L 140.292825 200.747091 
L 141.756206 201.676886 
L 142.272693 202.279316 
L 143.477829 203.861526 
L 144.596885 205.036845 
L 145.113372 205.574948 
L 146.318509 206.86488 
L 146.576752 206.875553 
L 148.642701 207.843846 
L 149.589594 208.601914 
L 149.933919 208.767978 
L 150.450406 209.261651 
L 150.966893 209.738956 
L 151.311218 210.025377 
L 151.569461 209.899236 
L 152.258111 209.969963 
L 152.688517 210.048884 
L 153.463247 210.204056 
L 153.979734 210.538074 
L 154.668384 211.250698 
L 155.787439 212.499688 
L 156.390008 212.808749 
L 157.078657 213.10745 
L 157.422982 213.139415 
L 157.939469 213.375039 
L 158.886362 214.32041 
L 159.316768 214.752014 
L 159.575012 214.625605 
L 161.124473 214.434406 
L 161.985285 214.006854 
L 163.018259 214.481973 
L 164.309477 215.431602 
L 164.653802 215.424653 
L 165.25637 215.737415 
L 166.031101 216.521137 
L 166.289344 216.748211 
L 167.580562 217.390281 
L 167.924887 217.404691 
L 168.355293 217.643259 
L 168.699618 217.790619 
L 169.043942 217.814568 
L 169.302186 217.891594 
L 169.646511 217.712562 
L 170.076917 217.572671 
L 170.421242 217.529551 
L 170.851647 217.677193 
L 172.48719 218.843886 
L 173.520164 219.943376 
L 173.778408 219.942391 
L 174.811382 219.946977 
L 175.155707 219.708948 
L 175.672194 219.690438 
L 176.791249 219.789834 
L 177.135574 219.640152 
L 177.307737 219.592176 
L 177.652061 219.22334 
L 178.512873 218.891272 
L 179.631929 218.523765 
L 179.890172 218.523295 
L 180.234497 218.535591 
L 180.406659 218.547626 
L 180.750984 218.240448 
L 181.18139 218.168205 
L 181.525715 218.28334 
L 181.783958 218.361596 
L 182.214364 218.527284 
L 183.591663 218.985833 
L 184.280313 219.459342 
L 184.710719 219.666581 
L 185.399368 220.220478 
L 186.088018 220.82735 
L 186.432343 220.811548 
L 186.604505 220.806217 
L 186.94883 220.443688 
L 187.379236 220.338064 
L 187.809642 220.5002 
L 189.703428 221.245945 
L 190.047753 220.954553 
L 190.908564 220.739364 
L 191.33897 220.981046 
L 191.941539 221.599281 
L 192.974513 223.049981 
L 195.384786 226.942416 
L 198.828034 232.336935 
L 200.807901 235.254036 
L 200.893982 234.904502 
L 201.324388 231.606724 
L 201.496551 230.324886 
L 201.926957 225.134258 
L 202.099119 223.341409 
L 202.529525 217.463348 
L 202.787768 214.054642 
L 203.304256 208.071538 
L 204.853717 191.058033 
L 206.144935 180.781796 
L 207.436153 174.127394 
L 208.813452 169.66563 
L 209.41602 168.35096 
L 209.588182 168.198456 
L 209.932507 167.638523 
L 210.276832 167.338698 
L 210.535075 167.113531 
L 210.8794 166.965822 
L 211.137644 166.859127 
L 211.395887 166.818395 
L 211.740212 165.903415 
L 211.998456 165.411086 
L 212.34278 163.557698 
L 212.687105 162.262887 
L 213.117511 158.439016 
L 213.203592 158.017448 
L 213.806161 148.777125 
L 214.839135 124.689409 
L 215.269541 120.951291 
L 215.613866 119.487374 
L 215.95819 118.902491 
L 216.130353 118.872684 
L 216.388596 119.116194 
L 216.64684 119.505425 
L 217.163327 120.90354 
L 217.851977 123.438536 
L 218.712788 127.445959 
L 221.295224 141.184956 
L 223.619416 152.749526 
L 225.771446 162.355717 
L 227.234826 168.071916 
L 228.095638 170.814827 
L 230.161587 176.085875 
L 231.452804 179.078721 
L 232.227535 180.33174 
L 233.690915 182.500714 
L 233.949159 182.599658 
L 234.637808 183.040607 
L 235.154295 183.202912 
L 235.412539 183.290942 
L 235.670783 183.382873 
L 236.015107 183.556608 
L 237.048082 184.809134 
L 238.253218 186.674875 
L 238.855787 187.174136 
L 239.200111 187.412718 
L 239.888761 187.93192 
L 240.405248 188.751742 
L 240.663492 189.07496 
L 241.093897 189.536925 
L 241.954709 190.463234 
L 242.471197 191.128214 
L 242.815521 191.31782 
L 242.987684 191.439198 
L 243.245927 191.380973 
L 243.590252 191.574012 
L 244.106739 192.170552 
L 244.364983 192.396234 
L 244.709307 192.615659 
L 244.88147 192.734667 
L 245.139713 192.602652 
L 245.484038 192.706035 
L 245.828363 192.944746 
L 246.430931 193.736591 
L 247.80823 195.812032 
L 248.49688 196.849579 
L 249.357692 198.15658 
L 250.218503 198.688475 
L 251.42364 199.442857 
L 252.284452 200.145922 
L 252.628777 200.418945 
L 253.059183 200.745959 
L 253.403507 200.803049 
L 253.57567 200.869565 
L 253.833913 200.785567 
L 254.522563 200.957498 
L 254.952969 201.107358 
L 255.555537 201.373415 
L 255.985943 201.719659 
L 256.846755 202.467064 
L 257.19108 202.639682 
L 257.707567 203.09867 
L 259.170947 204.939067 
L 259.429191 204.912663 
L 260.720409 205.428815 
L 260.978652 205.614022 
L 261.236896 205.513753 
L 261.667302 205.624771 
L 262.097708 205.924542 
L 262.355951 206.061483 
L 262.700276 206.20122 
L 262.872438 206.29558 
L 263.130682 206.251602 
L 263.475007 206.334802 
L 263.819331 206.044409 
L 264.077575 205.959687 
L 264.4219 205.522762 
L 264.766224 205.411884 
L 265.110549 205.516584 
L 265.88528 206.133118 
L 266.918254 207.465705 
L 267.262579 207.792698 
L 267.692985 208.044837 
L 268.553797 208.36929 
L 268.898121 208.299263 
L 269.070284 208.287192 
L 269.414609 207.936439 
L 270.361502 207.639387 
L 270.791908 207.945115 
L 272.857856 209.534975 
L 273.202181 209.52271 
L 273.374343 209.535472 
L 273.718668 209.248548 
L 274.149074 209.252196 
L 274.57948 209.538813 
L 275.268129 209.74988 
L 275.612454 209.552471 
L 276.215022 209.601136 
L 276.473266 209.686622 
L 276.817591 209.40434 
L 277.50624 209.310917 
L 277.936646 209.590934 
L 278.539215 210.327676 
L 279.486108 211.915858 
L 281.8103 216.429245 
L 284.995304 222.427771 
L 286.372603 224.777838 
L 286.716928 224.743227 
L 287.147333 224.940948 
L 287.749902 225.493436 
L 288.696795 226.709104 
L 290.848825 229.948191 
L 292.053961 231.648694 
L 292.742611 232.190815 
L 293.775585 233.374379 
L 296.616264 236.818101 
L 297.218833 237.21019 
L 297.73532 237.381742 
L 298.423969 237.346999 
L 298.854375 237.205174 
L 299.284781 236.975681 
L 299.456943 236.912598 
L 299.801268 236.531732 
L 300.145593 236.169301 
L 301.781136 233.381299 
L 302.555866 231.489267 
L 302.986272 229.647718 
L 303.158435 229.020594 
L 303.588841 226.719849 
L 303.761003 225.95978 
L 304.191409 223.412481 
L 304.363571 222.583707 
L 304.793977 219.915202 
L 304.96614 219.055482 
L 305.396545 216.347947 
L 305.826951 213.971929 
L 308.495468 198.991319 
L 308.925874 196.813286 
L 309.786686 192.76907 
L 310.04493 191.69486 
L 310.475336 190.226578 
L 311.163985 187.895353 
L 311.594391 183.071239 
L 312.110878 179.805924 
L 312.541284 178.426036 
L 312.885609 177.945044 
L 313.143852 177.895455 
L 313.488177 178.133888 
L 314.090746 179.038687 
L 315.295882 181.68958 
L 318.653049 189.749871 
L 322.096296 196.947175 
L 324.936975 203.801467 
L 327.002924 208.492883 
L 330.618334 216.118764 
L 333.459013 221.556485 
L 336.299692 226.521076 
L 339.226453 231.201108 
L 342.325375 235.735103 
L 345.510379 239.99953 
L 348.781465 244.013389 
L 352.224712 247.887053 
L 355.840122 251.613893 
L 359.541613 255.112197 
L 363.415267 258.471257 
L 367.461083 261.68977 
L 371.765142 264.828204 
L 376.241364 267.81812 
L 380.975829 270.713949 
L 385.968538 273.507641 
L 391.305572 276.235831 
L 396.900849 278.845921 
L 402.840451 281.372445 
L 409.210459 283.838883 
L 416.010873 286.230917 
L 423.241693 288.537962 
L 430.989 290.776325 
L 439.338875 292.955912 
L 448.3774 295.081631 
L 458.104574 297.137367 
L 468.606479 299.126952 
L 479.969196 301.051499 
L 492.364887 302.922518 
L 505.879634 304.733957 
L 520.599517 306.479952 
L 536.782781 308.172121 
L 554.515506 309.799823 
L 574.142017 311.374083 
L 595.834476 312.886818 
L 619.937209 314.340351 
L 646.79454 315.73276 
L 671.155517 316.827655 
L 671.155517 316.827655 
" clip-path="url(#pa7fe863263)" style="fill: none; stroke: #ff7f0e; stroke-width: 1.5; stroke-linecap: square"/>
   </g>
   <g id="patch_3">
    <path d="M 20.5625 342.2 
L 20.5625 43.44 
" style="fill: none; stroke: #000000; stroke-width: 0.8; stroke-linejoin: miter; stroke-linecap: square"/>
   </g>
   <g id="patch_4">
    <path d="M 702.136136 342.2 
L 702.136136 43.44 
" style="fill: none; stroke: #000000; stroke-width: 0.8; stroke-linejoin: miter; stroke-linecap: square"/>
   </g>
   <g id="patch_5">
    <path d="M 20.5625 342.2 
L 702.136136 342.2 
" style="fill: none; stroke: #000000; stroke-width: 0.8; stroke-linejoin: miter; stroke-linecap: square"/>
   </g>
   <g id="patch_6">
    <path d="M 20.5625 43.44 
L 702.136136 43.44 
" style="fill: none; stroke: #000000; stroke-width: 0.8; stroke-linejoin: miter; stroke-linecap: square"/>
   </g>
   <g id="text_13">
    <!-- 1 transformation(s) -->
    <g transform="translate(303.234631 37.44) scale(0.12 -0.12)">
     <defs>
      <path id="DejaVuSans-20" transform="scale(0.015625)"/>
      <path id="DejaVuSans-74" d="M 1172 4494 
L 1172 3500 
L 2356 3500 
L 2356 3053 
L 1172 3053 
L 1172 1153 
Q 1172 725 1289 603 
Q 1406 481 1766 481 
L 2356 481 
L 2356 0 
L 1766 0 
Q 1100 0 847 248 
Q 594 497 594 1153 
L 594 3053 
L 172 3053 
L 172 3500 
L 594 3500 
L 594 4494 
L 1172 4494 
z
" transform="scale(0.015625)"/>
      <path id="DejaVuSans-72" d="M 2631 2963 
Q 2534 3019 2420 3045 
Q 2306 3072 2169 3072 
Q 1681 3072 1420 2755 
Q 1159 2438 1159 1844 
L 1159 0 
L 581 0 
L 581 3500 
L 1159 3500 
L 1159 2956 
Q 1341 3275 1631 3429 
Q 1922 3584 2338 3584 
Q 2397 3584 2469 3576 
Q 2541 3569 2628 3553 
L 2631 2963 
z
" transform="scale(0.015625)"/>
      <path id="DejaVuSans-61" d="M 2194 1759 
Q 1497 1759 1228 1600 
Q 959 1441 959 1056 
Q 959 750 1161 570 
Q 1363 391 1709 391 
Q 2188 391 2477 730 
Q 2766 1069 2766 1631 
L 2766 1759 
L 2194 1759 
z
M 3341 1997 
L 3341 0 
L 2766 0 
L 2766 531 
Q 2569 213 2275 61 
Q 1981 -91 1556 -91 
Q 1019 -91 701 211 
Q 384 513 384 1019 
Q 384 1609 779 1909 
Q 1175 2209 1959 2209 
L 2766 2209 
L 2766 2266 
Q 2766 2663 2505 2880 
Q 2244 3097 1772 3097 
Q 1472 3097 1187 3025 
Q 903 2953 641 2809 
L 641 3341 
Q 956 3463 1253 3523 
Q 1550 3584 1831 3584 
Q 2591 3584 2966 3190 
Q 3341 2797 3341 1997 
z
" transform="scale(0.015625)"/>
      <path id="DejaVuSans-6e" d="M 3513 2113 
L 3513 0 
L 2938 0 
L 2938 2094 
Q 2938 2591 2744 2837 
Q 2550 3084 2163 3084 
Q 1697 3084 1428 2787 
Q 1159 2491 1159 1978 
L 1159 0 
L 581 0 
L 581 3500 
L 1159 3500 
L 1159 2956 
Q 1366 3272 1645 3428 
Q 1925 3584 2291 3584 
Q 2894 3584 3203 3211 
Q 3513 2838 3513 2113 
z
" transform="scale(0.015625)"/>
      <path id="DejaVuSans-73" d="M 2834 3397 
L 2834 2853 
Q 2591 2978 2328 3040 
Q 2066 3103 1784 3103 
Q 1356 3103 1142 2972 
Q 928 2841 928 2578 
Q 928 2378 1081 2264 
Q 1234 2150 1697 2047 
L 1894 2003 
Q 2506 1872 2764 1633 
Q 3022 1394 3022 966 
Q 3022 478 2636 193 
Q 2250 -91 1575 -91 
Q 1294 -91 989 -36 
Q 684 19 347 128 
L 347 722 
Q 666 556 975 473 
Q 1284 391 1588 391 
Q 1994 391 2212 530 
Q 2431 669 2431 922 
Q 2431 1156 2273 1281 
Q 2116 1406 1581 1522 
L 1381 1569 
Q 847 1681 609 1914 
Q 372 2147 372 2553 
Q 372 3047 722 3315 
Q 1072 3584 1716 3584 
Q 2034 3584 2315 3537 
Q 2597 3491 2834 3397 
z
" transform="scale(0.015625)"/>
      <path id="DejaVuSans-66" d="M 2375 4863 
L 2375 4384 
L 1825 4384 
Q 1516 4384 1395 4259 
Q 1275 4134 1275 3809 
L 1275 3500 
L 2222 3500 
L 2222 3053 
L 1275 3053 
L 1275 0 
L 697 0 
L 697 3053 
L 147 3053 
L 147 3500 
L 697 3500 
L 697 3744 
Q 697 4328 969 4595 
Q 1241 4863 1831 4863 
L 2375 4863 
z
" transform="scale(0.015625)"/>
      <path id="DejaVuSans-6f" d="M 1959 3097 
Q 1497 3097 1228 2736 
Q 959 2375 959 1747 
Q 959 1119 1226 758 
Q 1494 397 1959 397 
Q 2419 397 2687 759 
Q 2956 1122 2956 1747 
Q 2956 2369 2687 2733 
Q 2419 3097 1959 3097 
z
M 1959 3584 
Q 2709 3584 3137 3096 
Q 3566 2609 3566 1747 
Q 3566 888 3137 398 
Q 2709 -91 1959 -91 
Q 1206 -91 779 398 
Q 353 888 353 1747 
Q 353 2609 779 3096 
Q 1206 3584 1959 3584 
z
" transform="scale(0.015625)"/>
      <path id="DejaVuSans-6d" d="M 3328 2828 
Q 3544 3216 3844 3400 
Q 4144 3584 4550 3584 
Q 5097 3584 5394 3201 
Q 5691 2819 5691 2113 
L 5691 0 
L 5113 0 
L 5113 2094 
Q 5113 2597 4934 2840 
Q 4756 3084 4391 3084 
Q 3944 3084 3684 2787 
Q 3425 2491 3425 1978 
L 3425 0 
L 2847 0 
L 2847 2094 
Q 2847 2600 2669 2842 
Q 2491 3084 2119 3084 
Q 1678 3084 1418 2786 
Q 1159 2488 1159 1978 
L 1159 0 
L 581 0 
L 581 3500 
L 1159 3500 
L 1159 2956 
Q 1356 3278 1631 3431 
Q 1906 3584 2284 3584 
Q 2666 3584 2933 3390 
Q 3200 3197 3328 2828 
z
" transform="scale(0.015625)"/>
      <path id="DejaVuSans-69" d="M 603 3500 
L 1178 3500 
L 1178 0 
L 603 0 
L 603 3500 
z
M 603 4863 
L 1178 4863 
L 1178 4134 
L 603 4134 
L 603 4863 
z
" transform="scale(0.015625)"/>
      <path id="DejaVuSans-28" d="M 1984 4856 
Q 1566 4138 1362 3434 
Q 1159 2731 1159 2009 
Q 1159 1288 1364 580 
Q 1569 -128 1984 -844 
L 1484 -844 
Q 1016 -109 783 600 
Q 550 1309 550 2009 
Q 550 2706 781 3412 
Q 1013 4119 1484 4856 
L 1984 4856 
z
" transform="scale(0.015625)"/>
      <path id="DejaVuSans-29" d="M 513 4856 
L 1013 4856 
Q 1481 4119 1714 3412 
Q 1947 2706 1947 2009 
Q 1947 1309 1714 600 
Q 1481 -109 1013 -844 
L 513 -844 
Q 928 -128 1133 580 
Q 1338 1288 1338 2009 
Q 1338 2731 1133 3434 
Q 928 4138 513 4856 
z
" transform="scale(0.015625)"/>
     </defs>
     <use xlink:href="#DejaVuSans-31"/>
     <use xlink:href="#DejaVuSans-20" x="63.623047"/>
     <use xlink:href="#DejaVuSans-74" x="95.410156"/>
     <use xlink:href="#DejaVuSans-72" x="134.619141"/>
     <use xlink:href="#DejaVuSans-61" x="175.732422"/>
     <use xlink:href="#DejaVuSans-6e" x="237.011719"/>
     <use xlink:href="#DejaVuSans-73" x="300.390625"/>
     <use xlink:href="#DejaVuSans-66" x="352.490234"/>
     <use xlink:href="#DejaVuSans-6f" x="387.695312"/>
     <use xlink:href="#DejaVuSans-72" x="448.876953"/>
     <use xlink:href="#DejaVuSans-6d" x="488.240234"/>
     <use xlink:href="#DejaVuSans-61" x="585.652344"/>
     <use xlink:href="#DejaVuSans-74" x="646.931641"/>
     <use xlink:href="#DejaVuSans-69" x="686.140625"/>
     <use xlink:href="#DejaVuSans-6f" x="713.923828"/>
     <use xlink:href="#DejaVuSans-6e" x="775.105469"/>
     <use xlink:href="#DejaVuSans-28" x="838.484375"/>
     <use xlink:href="#DejaVuSans-73" x="877.498047"/>
     <use xlink:href="#DejaVuSans-29" x="929.597656"/>
    </g>
   </g>
   <g id="legend_1">
    <g id="patch_7">
     <path d="M 613.742386 80.79625 
L 695.136136 80.79625 
Q 697.136136 80.79625 697.136136 78.79625 
L 697.136136 50.44 
Q 697.136136 48.44 695.136136 48.44 
L 613.742386 48.44 
Q 611.742386 48.44 611.742386 50.44 
L 611.742386 78.79625 
Q 611.742386 80.79625 613.742386 80.79625 
z
" style="fill: #ffffff; opacity: 0.8; stroke: #cccccc; stroke-linejoin: miter"/>
    </g>
    <g id="line2d_15">
     <path d="M 615.742386 56.538437 
L 625.742386 56.538437 
L 635.742386 56.538437 
" style="fill: none; stroke: #1f77b4; stroke-width: 1.5; stroke-linecap: square"/>
    </g>
    <g id="text_14">
     <!-- observed -->
     <g transform="translate(643.742386 60.038437) scale(0.1 -0.1)">
      <defs>
       <path id="DejaVuSans-62" d="M 3116 1747 
Q 3116 2381 2855 2742 
Q 2594 3103 2138 3103 
Q 1681 3103 1420 2742 
Q 1159 2381 1159 1747 
Q 1159 1113 1420 752 
Q 1681 391 2138 391 
Q 2594 391 2855 752 
Q 3116 1113 3116 1747 
z
M 1159 2969 
Q 1341 3281 1617 3432 
Q 1894 3584 2278 3584 
Q 2916 3584 3314 3078 
Q 3713 2572 3713 1747 
Q 3713 922 3314 415 
Q 2916 -91 2278 -91 
Q 1894 -91 1617 61 
Q 1341 213 1159 525 
L 1159 0 
L 581 0 
L 581 4863 
L 1159 4863 
L 1159 2969 
z
" transform="scale(0.015625)"/>
       <path id="DejaVuSans-65" d="M 3597 1894 
L 3597 1613 
L 953 1613 
Q 991 1019 1311 708 
Q 1631 397 2203 397 
Q 2534 397 2845 478 
Q 3156 559 3463 722 
L 3463 178 
Q 3153 47 2828 -22 
Q 2503 -91 2169 -91 
Q 1331 -91 842 396 
Q 353 884 353 1716 
Q 353 2575 817 3079 
Q 1281 3584 2069 3584 
Q 2775 3584 3186 3129 
Q 3597 2675 3597 1894 
z
M 3022 2063 
Q 3016 2534 2758 2815 
Q 2500 3097 2075 3097 
Q 1594 3097 1305 2825 
Q 1016 2553 972 2059 
L 3022 2063 
z
" transform="scale(0.015625)"/>
       <path id="DejaVuSans-76" d="M 191 3500 
L 800 3500 
L 1894 563 
L 2988 3500 
L 3597 3500 
L 2284 0 
L 1503 0 
L 191 3500 
z
" transform="scale(0.015625)"/>
       <path id="DejaVuSans-64" d="M 2906 2969 
L 2906 4863 
L 3481 4863 
L 3481 0 
L 2906 0 
L 2906 525 
Q 2725 213 2448 61 
Q 2172 -91 1784 -91 
Q 1150 -91 751 415 
Q 353 922 353 1747 
Q 353 2572 751 3078 
Q 1150 3584 1784 3584 
Q 2172 3584 2448 3432 
Q 2725 3281 2906 2969 
z
M 947 1747 
Q 947 1113 1208 752 
Q 1469 391 1925 391 
Q 2381 391 2643 752 
Q 2906 1113 2906 1747 
Q 2906 2381 2643 2742 
Q 2381 3103 1925 3103 
Q 1469 3103 1208 2742 
Q 947 2381 947 1747 
z
" transform="scale(0.015625)"/>
      </defs>
      <use xlink:href="#DejaVuSans-6f"/>
      <use xlink:href="#DejaVuSans-62" x="61.181641"/>
      <use xlink:href="#DejaVuSans-73" x="124.658203"/>
      <use xlink:href="#DejaVuSans-65" x="176.757812"/>
      <use xlink:href="#DejaVuSans-72" x="238.28125"/>
      <use xlink:href="#DejaVuSans-76" x="279.394531"/>
      <use xlink:href="#DejaVuSans-65" x="338.574219"/>
      <use xlink:href="#DejaVuSans-64" x="400.097656"/>
     </g>
    </g>
    <g id="line2d_16">
     <path d="M 615.742386 71.216563 
L 625.742386 71.216563 
L 635.742386 71.216563 
" style="fill: none; stroke: #ff7f0e; stroke-width: 1.5; stroke-linecap: square"/>
    </g>
    <g id="text_15">
     <!-- simulated -->
     <g transform="translate(643.742386 74.716563) scale(0.1 -0.1)">
      <defs>
       <path id="DejaVuSans-75" d="M 544 1381 
L 544 3500 
L 1119 3500 
L 1119 1403 
Q 1119 906 1312 657 
Q 1506 409 1894 409 
Q 2359 409 2629 706 
Q 2900 1003 2900 1516 
L 2900 3500 
L 3475 3500 
L 3475 0 
L 2900 0 
L 2900 538 
Q 2691 219 2414 64 
Q 2138 -91 1772 -91 
Q 1169 -91 856 284 
Q 544 659 544 1381 
z
M 1991 3584 
L 1991 3584 
z
" transform="scale(0.015625)"/>
       <path id="DejaVuSans-6c" d="M 603 4863 
L 1178 4863 
L 1178 0 
L 603 0 
L 603 4863 
z
" transform="scale(0.015625)"/>
      </defs>
      <use xlink:href="#DejaVuSans-73"/>
      <use xlink:href="#DejaVuSans-69" x="52.099609"/>
      <use xlink:href="#DejaVuSans-6d" x="79.882812"/>
      <use xlink:href="#DejaVuSans-75" x="177.294922"/>
      <use xlink:href="#DejaVuSans-6c" x="240.673828"/>
      <use xlink:href="#DejaVuSans-61" x="268.457031"/>
      <use xlink:href="#DejaVuSans-74" x="329.736328"/>
      <use xlink:href="#DejaVuSans-65" x="368.945312"/>
      <use xlink:href="#DejaVuSans-64" x="430.46875"/>
     </g>
    </g>
   </g>
  </g>
  <g id="axes_2">
   <g id="patch_8">
    <path d="M 20.5625 684.92 
L 702.136136 684.92 
L 702.136136 386.16 
L 20.5625 386.16 
z
" style="fill: #ffffff"/>
   </g>
   <g id="matplotlib.axis_3">
    <g id="xtick_7">
     <g id="line2d_17">
      <g>
       <use xlink:href="#m732fb9e430" x="51.370957" y="684.92" style="stroke: #000000; stroke-width: 0.8"/>
      </g>
     </g>
     <g id="text_16">
      <!-- 2014-07-01 -->
      <g transform="translate(22.313145 699.518437) scale(0.1 -0.1)">
       <use xlink:href="#DejaVuSans-32"/>
       <use xlink:href="#DejaVuSans-30" x="63.623047"/>
       <use xlink:href="#DejaVuSans-31" x="127.246094"/>
       <use xlink:href="#DejaVuSans-34" x="190.869141"/>
       <use xlink:href="#DejaVuSans-2d" x="254.492188"/>
       <use xlink:href="#DejaVuSans-30" x="290.576172"/>
       <use xlink:href="#DejaVuSans-37" x="354.199219"/>
       <use xlink:href="#DejaVuSans-2d" x="417.822266"/>
       <use xlink:href="#DejaVuSans-30" x="453.90625"/>
       <use xlink:href="#DejaVuSans-31" x="517.529297"/>
      </g>
     </g>
    </g>
    <g id="xtick_8">
     <g id="line2d_18">
      <g>
       <use xlink:href="#m732fb9e430" x="175.327869" y="684.92" style="stroke: #000000; stroke-width: 0.8"/>
      </g>
     </g>
     <g id="text_17">
      <!-- 2014-07-02 -->
      <g transform="translate(146.270057 699.518437) scale(0.1 -0.1)">
       <use xlink:href="#DejaVuSans-32"/>
       <use xlink:href="#DejaVuSans-30" x="63.623047"/>
       <use xlink:href="#DejaVuSans-31" x="127.246094"/>
       <use xlink:href="#DejaVuSans-34" x="190.869141"/>
       <use xlink:href="#DejaVuSans-2d" x="254.492188"/>
       <use xlink:href="#DejaVuSans-30" x="290.576172"/>
       <use xlink:href="#DejaVuSans-37" x="354.199219"/>
       <use xlink:href="#DejaVuSans-2d" x="417.822266"/>
       <use xlink:href="#DejaVuSans-30" x="453.90625"/>
       <use xlink:href="#DejaVuSans-32" x="517.529297"/>
      </g>
     </g>
    </g>
    <g id="xtick_9">
     <g id="line2d_19">
      <g>
       <use xlink:href="#m732fb9e430" x="299.284781" y="684.92" style="stroke: #000000; stroke-width: 0.8"/>
      </g>
     </g>
     <g id="text_18">
      <!-- 2014-07-03 -->
      <g transform="translate(270.226969 699.518437) scale(0.1 -0.1)">
       <use xlink:href="#DejaVuSans-32"/>
       <use xlink:href="#DejaVuSans-30" x="63.623047"/>
       <use xlink:href="#DejaVuSans-31" x="127.246094"/>
       <use xlink:href="#DejaVuSans-34" x="190.869141"/>
       <use xlink:href="#DejaVuSans-2d" x="254.492188"/>
       <use xlink:href="#DejaVuSans-30" x="290.576172"/>
       <use xlink:href="#DejaVuSans-37" x="354.199219"/>
       <use xlink:href="#DejaVuSans-2d" x="417.822266"/>
       <use xlink:href="#DejaVuSans-30" x="453.90625"/>
       <use xlink:href="#DejaVuSans-33" x="517.529297"/>
      </g>
     </g>
    </g>
    <g id="xtick_10">
     <g id="line2d_20">
      <g>
       <use xlink:href="#m732fb9e430" x="423.241693" y="684.92" style="stroke: #000000; stroke-width: 0.8"/>
      </g>
     </g>
     <g id="text_19">
      <!-- 2014-07-04 -->
      <g transform="translate(394.18388 699.518437) scale(0.1 -0.1)">
       <use xlink:href="#DejaVuSans-32"/>
       <use xlink:href="#DejaVuSans-30" x="63.623047"/>
       <use xlink:href="#DejaVuSans-31" x="127.246094"/>
       <use xlink:href="#DejaVuSans-34" x="190.869141"/>
       <use xlink:href="#DejaVuSans-2d" x="254.492188"/>
       <use xlink:href="#DejaVuSans-30" x="290.576172"/>
       <use xlink:href="#DejaVuSans-37" x="354.199219"/>
       <use xlink:href="#DejaVuSans-2d" x="417.822266"/>
       <use xlink:href="#DejaVuSans-30" x="453.90625"/>
       <use xlink:href="#DejaVuSans-34" x="517.529297"/>
      </g>
     </g>
    </g>
    <g id="xtick_11">
     <g id="line2d_21">
      <g>
       <use xlink:href="#m732fb9e430" x="547.198605" y="684.92" style="stroke: #000000; stroke-width: 0.8"/>
      </g>
     </g>
     <g id="text_20">
      <!-- 2014-07-05 -->
      <g transform="translate(518.140792 699.518437) scale(0.1 -0.1)">
       <use xlink:href="#DejaVuSans-32"/>
       <use xlink:href="#DejaVuSans-30" x="63.623047"/>
       <use xlink:href="#DejaVuSans-31" x="127.246094"/>
       <use xlink:href="#DejaVuSans-34" x="190.869141"/>
       <use xlink:href="#DejaVuSans-2d" x="254.492188"/>
       <use xlink:href="#DejaVuSans-30" x="290.576172"/>
       <use xlink:href="#DejaVuSans-37" x="354.199219"/>
       <use xlink:href="#DejaVuSans-2d" x="417.822266"/>
       <use xlink:href="#DejaVuSans-30" x="453.90625"/>
       <use xlink:href="#DejaVuSans-35" x="517.529297"/>
      </g>
     </g>
    </g>
    <g id="xtick_12">
     <g id="line2d_22">
      <g>
       <use xlink:href="#m732fb9e430" x="671.155517" y="684.92" style="stroke: #000000; stroke-width: 0.8"/>
      </g>
     </g>
     <g id="text_21">
      <!-- 2014-07-06 -->
      <g transform="translate(642.097704 699.518437) scale(0.1 -0.1)">
       <use xlink:href="#DejaVuSans-32"/>
       <use xlink:href="#DejaVuSans-30" x="63.623047"/>
       <use xlink:href="#DejaVuSans-31" x="127.246094"/>
       <use xlink:href="#DejaVuSans-34" x="190.869141"/>
       <use xlink:href="#DejaVuSans-2d" x="254.492188"/>
       <use xlink:href="#DejaVuSans-30" x="290.576172"/>
       <use xlink:href="#DejaVuSans-37" x="354.199219"/>
       <use xlink:href="#DejaVuSans-2d" x="417.822266"/>
       <use xlink:href="#DejaVuSans-30" x="453.90625"/>
       <use xlink:href="#DejaVuSans-36" x="517.529297"/>
      </g>
     </g>
    </g>
   </g>
   <g id="matplotlib.axis_4">
    <g id="ytick_7">
     <g id="line2d_23">
      <g>
       <use xlink:href="#ma93a45db17" x="20.5625" y="671.339996" style="stroke: #000000; stroke-width: 0.8"/>
      </g>
     </g>
     <g id="text_22">
      <!-- 0 -->
      <g transform="translate(7.2 675.139214) scale(0.1 -0.1)">
       <use xlink:href="#DejaVuSans-30"/>
      </g>
     </g>
    </g>
    <g id="ytick_8">
     <g id="line2d_24">
      <g>
       <use xlink:href="#ma93a45db17" x="20.5625" y="622.075496" style="stroke: #000000; stroke-width: 0.8"/>
      </g>
     </g>
     <g id="text_23">
      <!-- 1 -->
      <g transform="translate(7.2 625.874714) scale(0.1 -0.1)">
       <use xlink:href="#DejaVuSans-31"/>
      </g>
     </g>
    </g>
    <g id="ytick_9">
     <g id="line2d_25">
      <g>
       <use xlink:href="#ma93a45db17" x="20.5625" y="572.810996" style="stroke: #000000; stroke-width: 0.8"/>
      </g>
     </g>
     <g id="text_24">
      <!-- 2 -->
      <g transform="translate(7.2 576.610215) scale(0.1 -0.1)">
       <use xlink:href="#DejaVuSans-32"/>
      </g>
     </g>
    </g>
    <g id="ytick_10">
     <g id="line2d_26">
      <g>
       <use xlink:href="#ma93a45db17" x="20.5625" y="523.546496" style="stroke: #000000; stroke-width: 0.8"/>
      </g>
     </g>
     <g id="text_25">
      <!-- 3 -->
      <g transform="translate(7.2 527.345715) scale(0.1 -0.1)">
       <use xlink:href="#DejaVuSans-33"/>
      </g>
     </g>
    </g>
    <g id="ytick_11">
     <g id="line2d_27">
      <g>
       <use xlink:href="#ma93a45db17" x="20.5625" y="474.281996" style="stroke: #000000; stroke-width: 0.8"/>
      </g>
     </g>
     <g id="text_26">
      <!-- 4 -->
      <g transform="translate(7.2 478.081215) scale(0.1 -0.1)">
       <use xlink:href="#DejaVuSans-34"/>
      </g>
     </g>
    </g>
    <g id="ytick_12">
     <g id="line2d_28">
      <g>
       <use xlink:href="#ma93a45db17" x="20.5625" y="425.017496" style="stroke: #000000; stroke-width: 0.8"/>
      </g>
     </g>
     <g id="text_27">
      <!-- 5 -->
      <g transform="translate(7.2 428.816715) scale(0.1 -0.1)">
       <use xlink:href="#DejaVuSans-35"/>
      </g>
     </g>
    </g>
   </g>
   <g id="line2d_29">
    <path d="M 51.54312 671.337708 
L 52.231769 671.147581 
L 53.867312 670.17906 
L 57.396641 667.529904 
L 59.118264 667.102568 
L 59.720833 667.131588 
L 60.409482 667.379182 
L 62.303268 668.383685 
L 63.16408 668.820102 
L 64.885704 669.124897 
L 65.488272 669.029748 
L 66.521247 667.824965 
L 67.46814 666.475466 
L 67.812465 665.901873 
L 68.328952 664.544898 
L 70.136657 656.313674 
L 70.653144 655.051235 
L 70.997468 653.974418 
L 71.255712 653.473638 
L 71.427874 653.071803 
L 71.772199 652.141939 
L 71.85828 652.117103 
L 72.030443 651.295136 
L 72.460849 648.808456 
L 72.719092 647.448831 
L 72.977336 646.143641 
L 73.063417 646.218005 
L 73.235579 646.524303 
L 73.493823 645.345344 
L 73.665985 644.662865 
L 73.752067 644.658431 
L 73.838148 644.525518 
L 74.871122 639.684613 
L 75.043284 639.525525 
L 75.301528 638.095223 
L 75.47369 637.343811 
L 75.559771 637.353757 
L 75.645853 637.220756 
L 76.076259 635.117415 
L 76.16234 635.20935 
L 76.334502 635.522863 
L 76.506665 634.764202 
L 76.764908 633.647189 
L 76.850989 633.662808 
L 76.937071 633.52399 
L 77.711801 629.07674 
L 79.175181 615.479963 
L 79.519506 613.708966 
L 80.122075 609.068015 
L 80.55248 605.811954 
L 80.638562 602.794123 
L 81.068968 570.447869 
L 81.327211 569.009166 
L 81.671536 569.250114 
L 81.843698 569.146236 
L 82.015861 568.694067 
L 82.618429 566.073348 
L 83.995728 561.203716 
L 84.253972 559.795857 
L 84.426134 551.186364 
L 84.512215 551.67296 
L 84.598296 550.369366 
L 84.684378 550.675467 
L 84.85654 549.31533 
L 85.028702 541.00946 
L 85.114783 541.916336 
L 85.200865 540.506374 
L 85.373027 534.864048 
L 85.545189 533.568593 
L 85.631271 528.149198 
L 85.717352 529.924236 
L 86.061677 518.344558 
L 86.147758 517.140026 
L 86.233839 510.771413 
L 86.31992 510.98369 
L 86.664245 502.100373 
L 86.750326 499.711348 
L 87.094651 483.064842 
L 87.525057 465.303963 
L 88.47195 439.052962 
L 88.988437 432.807207 
L 89.074518 433.090674 
L 89.246681 431.815998 
L 89.332762 431.138983 
L 89.418843 432.212105 
L 89.504924 430.865006 
L 89.591005 431.536759 
L 89.677086 431.018403 
L 89.763168 431.61792 
L 89.93533 430.583347 
L 90.021411 431.834697 
L 90.107492 430.575759 
L 90.193574 431.36088 
L 90.279655 430.870761 
L 90.365736 431.40206 
L 90.537898 430.3447 
L 90.62398 431.403258 
L 90.710061 430.073166 
L 90.796142 430.711914 
L 90.882223 430.108826 
L 90.968304 430.490815 
L 91.140467 429.436016 
L 91.226548 430.235866 
L 91.312629 428.915217 
L 91.39871 429.344706 
L 91.484791 428.727241 
L 91.570873 429.032203 
L 91.743035 428.485141 
L 91.829116 427.961171 
L 91.915197 428.649791 
L 92.001279 427.558933 
L 92.08736 427.909538 
L 92.173441 427.446387 
L 92.259522 427.707397 
L 92.431684 427.013797 
L 92.517766 427.490409 
L 92.603847 426.770452 
L 92.689928 427.147955 
L 92.776009 426.833221 
L 92.86209 427.181994 
L 93.034253 426.789175 
L 93.206415 427.402035 
L 93.292496 426.274202 
L 93.378578 428.356034 
L 93.464659 427.477724 
L 93.55074 427.704319 
L 93.722902 428.41845 
L 93.808984 428.303743 
L 94.153308 429.119661 
L 94.239389 429.179775 
L 94.841958 430.666647 
L 94.928039 430.656076 
L 95.444526 431.841885 
L 95.530607 431.773667 
L 95.961013 432.970188 
L 96.047094 432.801052 
L 96.133176 432.345065 
L 96.305338 432.723696 
L 96.391419 432.306681 
L 96.563582 432.841786 
L 96.735744 430.473808 
L 96.821825 432.055326 
L 96.993987 430.229547 
L 97.16615 429.610109 
L 97.338312 424.626979 
L 97.424393 426.899466 
L 97.510475 422.631665 
L 97.596556 423.910171 
L 97.682637 419.968944 
L 97.768718 421.795592 
L 98.026962 417.7246 
L 98.113043 417.279701 
L 98.371287 412.406135 
L 98.715611 405.16304 
L 98.801692 406.545071 
L 98.887774 403.459438 
L 98.973855 404.941518 
L 99.059936 403.046934 
L 99.146017 403.424225 
L 99.31818 404.428659 
L 99.662504 408.627091 
L 101.384128 434.375851 
L 102.503184 443.375496 
L 103.622239 450.249522 
L 103.794401 451.036546 
L 104.310889 453.677796 
L 104.483051 454.473465 
L 106.118594 462.47725 
L 106.721162 465.050282 
L 107.668055 469.161913 
L 110.508734 478.847629 
L 112.144277 483.169142 
L 113.263332 485.178469 
L 113.435495 485.288114 
L 113.521576 485.092221 
L 113.607657 485.348721 
L 113.693738 485.047036 
L 113.779819 485.263425 
L 113.8659 485.043489 
L 114.640631 485.860311 
L 114.898875 485.853417 
L 115.2432 485.821703 
L 115.759687 485.71395 
L 116.620499 485.771632 
L 118.944691 486.685884 
L 119.289015 486.778463 
L 119.891584 486.918446 
L 120.235908 487.016099 
L 120.580233 487.102664 
L 121.182802 487.268652 
L 121.957532 487.492699 
L 122.474019 487.667262 
L 123.420912 488.007096 
L 123.679156 488.153176 
L 124.195643 488.332719 
L 124.539968 488.523338 
L 124.626049 488.500305 
L 124.798211 488.585542 
L 125.142536 488.776772 
L 125.228617 488.754655 
L 125.40078 488.833362 
L 125.831186 489.071656 
L 126.089429 489.133203 
L 126.347673 489.259127 
L 126.778079 489.43672 
L 129.963083 490.337007 
L 130.221326 490.30722 
L 130.307408 490.457963 
L 130.393489 490.339485 
L 130.565651 490.419895 
L 130.823895 490.468158 
L 130.996057 490.558352 
L 132.889843 491.844363 
L 133.750655 493.016348 
L 135.644441 496.104682 
L 135.816604 496.064629 
L 135.988766 496.59392 
L 136.24701 497.353624 
L 137.538227 499.853175 
L 139.17377 502.418138 
L 140.034582 503.450045 
L 140.120663 503.472256 
L 140.378907 503.756393 
L 141.067556 504.448607 
L 141.670124 505.032209 
L 142.272693 505.609069 
L 144.338641 507.383955 
L 146.060265 509.37053 
L 146.748915 509.971539 
L 147.093239 510.36289 
L 147.437564 510.753489 
L 147.954051 511.324089 
L 148.642701 511.944737 
L 149.761756 512.956641 
L 149.933919 513.10958 
L 150.450406 513.845276 
L 150.880812 514.324425 
L 152.258111 515.65097 
L 152.774598 516.259379 
L 154.840546 519.057209 
L 157.595144 524.297895 
L 158.972443 527.418377 
L 159.575012 528.474973 
L 159.747174 528.642994 
L 160.263661 529.759081 
L 161.124473 531.11095 
L 161.210554 531.127382 
L 161.468798 531.571047 
L 161.64096 531.682959 
L 162.760016 533.505261 
L 163.362584 534.250024 
L 163.448665 534.17322 
L 163.620828 533.431804 
L 163.79299 534.691834 
L 163.965152 535.373148 
L 164.051234 535.443445 
L 164.395558 536.082545 
L 165.084208 537.321762 
L 166.117182 539.097081 
L 166.375426 539.343362 
L 168.699618 541.952547 
L 169.818673 542.660089 
L 169.990836 542.669744 
L 170.679485 543.212518 
L 171.195972 543.558848 
L 172.48719 544.54577 
L 172.917596 545.033493 
L 173.17584 545.183754 
L 173.606245 545.445093 
L 173.95057 545.736607 
L 174.208814 545.854556 
L 174.553139 546.160105 
L 174.725301 546.324414 
L 174.897463 546.263924 
L 175.500032 546.747865 
L 175.672194 547.351423 
L 176.274762 550.023177 
L 176.619087 550.869774 
L 176.705168 550.823978 
L 177.824224 551.928919 
L 177.996386 551.926053 
L 178.512873 552.376754 
L 178.685036 552.257478 
L 179.71801 552.875518 
L 179.890172 552.830263 
L 180.320578 553.111487 
L 180.492741 552.872476 
L 181.525715 553.579043 
L 182.214364 553.994143 
L 182.386527 553.988963 
L 184.108151 555.361774 
L 184.280313 555.459685 
L 185.141125 556.319578 
L 185.915855 557.191217 
L 186.088018 557.037855 
L 186.518424 557.485972 
L 186.690586 557.21149 
L 187.120992 557.622644 
L 187.465317 557.900133 
L 188.41221 558.674577 
L 188.670454 558.781227 
L 189.617347 559.488498 
L 189.789509 559.178357 
L 190.219915 559.524687 
L 190.392077 559.455188 
L 191.166808 560.125191 
L 192.458026 561.503451 
L 194.007487 563.623915 
L 195.987355 566.941311 
L 196.762085 568.457347 
L 197.192491 569.056524 
L 198.655871 571.858594 
L 199.344521 573.586151 
L 199.947089 575.853152 
L 200.549658 579.222804 
L 200.807901 580.735651 
L 201.324388 573.43781 
L 201.410469 572.638641 
L 201.582632 566.793352 
L 201.668713 566.825429 
L 202.013038 567.73914 
L 202.1852 563.817846 
L 202.271281 564.065372 
L 202.443444 563.345756 
L 202.529525 563.469061 
L 202.615606 563.349362 
L 202.87385 559.724526 
L 203.132093 558.28466 
L 203.304256 557.786694 
L 203.562499 554.026678 
L 204.509392 543.601978 
L 204.853717 537.957937 
L 205.542367 529.162782 
L 205.886691 526.377484 
L 206.231016 524.057052 
L 206.403178 523.623312 
L 206.661422 521.973964 
L 206.919666 521.155274 
L 207.005747 520.980229 
L 207.177909 520.291974 
L 207.436153 520.086791 
L 207.608315 520.200382 
L 207.694396 519.890463 
L 207.780477 519.950601 
L 208.038721 520.152507 
L 208.210883 520.423196 
L 208.296965 520.239013 
L 208.813452 520.967262 
L 208.899533 520.74109 
L 208.985614 520.774153 
L 209.243858 521.059136 
L 209.502101 521.599738 
L 209.674264 521.478676 
L 209.932507 521.588086 
L 210.10467 521.668262 
L 210.276832 521.496905 
L 211.223725 521.368092 
L 211.309806 521.281492 
L 211.481969 520.586224 
L 211.740212 520.342997 
L 211.826293 520.311472 
L 211.912374 520.142758 
L 212.084537 519.027387 
L 212.34278 518.659798 
L 212.601024 518.303414 
L 212.773186 516.345286 
L 213.203592 514.904245 
L 213.375755 511.084103 
L 213.720079 508.729034 
L 213.806161 506.629055 
L 213.892242 500.807245 
L 213.978323 512.437182 
L 214.236567 494.233553 
L 214.408729 494.717905 
L 214.49481 494.308878 
L 215.527784 472.57722 
L 215.872109 465.707611 
L 215.95819 466.355003 
L 216.130353 465.433845 
L 216.216434 465.643668 
L 216.474677 467.231364 
L 217.077246 472.962522 
L 218.540626 487.361853 
L 218.971032 489.849401 
L 219.5736 491.639086 
L 220.26225 492.889566 
L 221.036981 494.30196 
L 221.72563 496.118506 
L 223.18901 501.524265 
L 224.394147 506.729233 
L 226.80442 520.242936 
L 227.320907 522.163584 
L 227.406988 521.938339 
L 227.49307 520.556261 
L 227.837394 525.087468 
L 228.2678 526.627677 
L 229.989424 532.758419 
L 230.936317 535.346368 
L 231.711048 537.042017 
L 232.055373 537.498145 
L 233.34659 539.330454 
L 233.604834 539.605688 
L 233.690915 539.484063 
L 233.863078 539.526593 
L 234.207402 539.748138 
L 234.293484 539.806279 
L 234.465646 539.717177 
L 234.72389 539.585697 
L 234.896052 539.677418 
L 235.068214 539.544552 
L 235.326458 539.406413 
L 235.49862 539.453559 
L 235.670783 539.358679 
L 235.929026 539.22593 
L 236.359432 539.202885 
L 237.306325 539.208817 
L 237.65065 539.205094 
L 238.511462 539.4825 
L 238.597543 539.537893 
L 238.683624 539.432993 
L 238.855787 539.48633 
L 239.11403 539.742982 
L 239.716598 540.353658 
L 240.491329 541.425101 
L 240.57741 541.371964 
L 240.749573 541.537377 
L 240.921735 541.669585 
L 241.093897 541.930888 
L 241.179979 541.960417 
L 242.299034 543.819976 
L 242.385115 543.724061 
L 242.815521 544.308439 
L 242.987684 544.422089 
L 243.245927 544.722611 
L 244.19282 546.632876 
L 244.278901 546.604804 
L 244.795389 547.30726 
L 244.88147 547.177741 
L 245.397957 547.911499 
L 246.603094 549.998405 
L 247.377824 551.191121 
L 247.549987 551.422744 
L 248.669042 553.478242 
L 249.185529 554.247495 
L 249.357692 554.469157 
L 249.788098 555.238622 
L 249.874179 555.178249 
L 250.046341 555.367459 
L 251.079315 556.690457 
L 251.42364 557.136894 
L 251.854046 557.544254 
L 252.88702 558.709086 
L 253.059183 558.515718 
L 253.489589 558.995748 
L 253.661751 558.845393 
L 254.092157 559.28954 
L 254.264319 559.25731 
L 254.694725 559.663778 
L 254.866888 559.573008 
L 255.297294 559.963701 
L 255.469456 559.9567 
L 256.588511 560.880396 
L 256.760674 560.664371 
L 257.104999 560.997358 
L 258.65446 562.261158 
L 259.084866 562.712259 
L 259.257028 562.436038 
L 259.601353 562.820259 
L 259.773515 562.818215 
L 259.859597 562.785927 
L 260.290003 563.170606 
L 260.548246 563.252038 
L 260.892571 563.504615 
L 261.064733 563.199101 
L 261.322977 563.416265 
L 261.58122 563.5393 
L 261.839464 563.664578 
L 262.183789 563.873308 
L 262.355951 563.684581 
L 262.700276 563.902297 
L 262.786357 563.926504 
L 262.958519 563.687235 
L 263.302844 563.899983 
L 263.388925 563.906748 
L 263.561088 563.432168 
L 263.73325 563.519179 
L 263.991494 563.61527 
L 264.163656 563.111679 
L 264.335818 563.166178 
L 264.594062 563.253753 
L 265.110549 563.337616 
L 266.918254 563.893264 
L 267.090416 563.992115 
L 267.262579 563.77636 
L 267.606904 564.061884 
L 267.779066 564.053709 
L 267.865147 564.014984 
L 268.381634 564.408883 
L 268.553797 564.057773 
L 268.81204 564.290464 
L 268.984203 564.400626 
L 269.156365 563.966991 
L 269.328527 564.101889 
L 269.586771 564.272106 
L 269.758933 564.027305 
L 270.103258 564.224842 
L 271.566638 564.54068 
L 271.652719 564.428392 
L 271.997044 564.603672 
L 272.685694 564.899131 
L 272.857856 564.494038 
L 273.1161 564.654495 
L 273.288262 564.744947 
L 273.460424 564.31762 
L 273.718668 564.490761 
L 274.062993 564.613972 
L 274.57948 564.878459 
L 274.837723 564.783273 
L 275.182048 564.940523 
L 275.354211 564.549337 
L 275.612454 564.701724 
L 275.784617 564.787302 
L 276.04286 564.764234 
L 276.387185 564.881079 
L 276.559347 564.390255 
L 276.73151 564.465967 
L 276.989753 564.565322 
L 277.247997 564.473472 
L 277.764484 564.641657 
L 278.625296 565.045293 
L 279.572189 565.750603 
L 280.519082 566.730313 
L 280.949488 567.373442 
L 281.552056 568.32044 
L 282.068543 568.922965 
L 283.27368 570.935897 
L 284.048411 572.555964 
L 284.650979 574.417596 
L 285.167466 576.749081 
L 286.028278 581.964162 
L 286.716928 587.013413 
L 286.975171 591.072706 
L 287.577739 595.211716 
L 288.094227 602.887207 
L 288.438551 606.414954 
L 288.782876 607.736302 
L 289.901932 609.571553 
L 290.074094 609.528758 
L 290.418419 610.288838 
L 291.020987 611.477272 
L 292.226124 613.247424 
L 293.517341 614.857389 
L 295.497209 617.413925 
L 296.530183 618.460426 
L 297.218833 618.934706 
L 297.73532 619.110244 
L 298.251807 619.133183 
L 299.026538 618.844036 
L 299.973431 618.33308 
L 301.781136 615.286396 
L 302.383704 613.731324 
L 302.469785 613.653427 
L 303.330597 607.538359 
L 304.105328 600.430115 
L 304.363571 595.624297 
L 304.707896 588.158582 
L 304.880058 584.531098 
L 305.224383 573.989617 
L 305.74087 568.98423 
L 305.826951 569.030472 
L 305.913033 568.915812 
L 306.687763 564.552837 
L 306.773845 564.321238 
L 307.032088 562.332454 
L 307.376413 561.275176 
L 307.634656 559.275046 
L 309.098037 552.355554 
L 309.270199 551.888338 
L 309.528443 550.242678 
L 309.872767 549.175616 
L 310.131011 547.674403 
L 310.475336 546.309931 
L 310.733579 545.141752 
L 310.991823 544.390106 
L 311.077904 543.842715 
L 311.250066 540.255312 
L 311.50831 537.36993 
L 311.594391 537.365396 
L 311.680472 537.485565 
L 311.852635 537.91368 
L 311.938716 537.881039 
L 312.196959 537.166978 
L 312.97169 534.800398 
L 313.746421 532.522486 
L 314.004664 532.168415 
L 314.262908 532.114327 
L 314.521151 532.298286 
L 314.865476 532.900153 
L 315.468045 534.48308 
L 317.620074 540.273424 
L 318.394805 541.663101 
L 320.116429 544.037774 
L 320.632916 544.644268 
L 320.977241 545.159699 
L 321.321565 545.686371 
L 321.924134 546.587033 
L 322.698864 547.996689 
L 322.871027 548.260636 
L 323.559676 549.723676 
L 324.936975 552.824202 
L 328.035898 560.538987 
L 333.114688 573.965991 
L 333.631175 576.706614 
L 334.405906 582.832606 
L 334.750231 586.479154 
L 335.094556 592.972693 
L 335.524962 599.157911 
L 336.041449 607.829456 
L 336.385773 609.88193 
L 336.644017 610.467805 
L 337.160504 612.254154 
L 337.935235 613.919523 
L 339.398615 616.530963 
L 341.292401 619.421595 
L 343.100106 621.837014 
L 345.166055 624.206609 
L 347.145922 626.088602 
L 350.072682 628.353087 
L 352.482956 629.88224 
L 356.012284 631.836759 
L 359.369451 633.439196 
L 363.501348 635.112153 
L 367.461083 636.441393 
L 371.420817 637.5259 
L 376.155283 638.65541 
L 382.008803 639.806652 
L 390.100435 641.113142 
L 402.668289 642.837859 
L 414.37533 644.168785 
L 425.135479 645.126607 
L 440.716174 646.135278 
L 479.280547 648.169768 
L 519.050056 650.216754 
L 540.226028 651.225695 
L 558.303078 651.868188 
L 573.539448 652.228562 
L 598.675156 652.617571 
L 634.571011 652.941232 
L 671.155517 653.137116 
L 671.155517 653.137116 
" clip-path="url(#p4d71ede907)" style="fill: none; stroke: #1f77b4; stroke-width: 1.5; stroke-linecap: square"/>
   </g>
   <g id="line2d_30">
    <path d="M 51.54312 671.339996 
L 52.231769 671.258681 
L 53.092581 670.802332 
L 53.609068 670.519109 
L 55.330692 669.646969 
L 55.675017 669.434402 
L 55.93326 669.282629 
L 56.277585 669.059248 
L 56.535829 668.900211 
L 56.880154 668.666086 
L 57.138397 668.499243 
L 57.482722 668.253497 
L 57.827047 668.072649 
L 58.171371 667.824334 
L 58.429615 667.641567 
L 58.77394 667.369292 
L 59.979076 667.082582 
L 64.110973 666.976448 
L 64.799623 666.616317 
L 65.230029 666.31146 
L 65.574354 665.965914 
L 65.746516 665.832885 
L 66.176922 665.216476 
L 66.349084 665.047956 
L 66.77949 664.282908 
L 67.037734 664.05013 
L 67.46814 663.165857 
L 67.640302 662.926785 
L 68.070708 661.86127 
L 68.24287 661.579803 
L 68.673276 660.359285 
L 68.845439 660.037798 
L 69.275845 658.662732 
L 69.448007 658.299875 
L 69.878413 656.768117 
L 70.136657 656.297949 
L 70.567063 654.660801 
L 70.739225 654.219308 
L 71.169631 652.382737 
L 71.341793 651.893507 
L 71.772199 649.892123 
L 71.944362 649.264857 
L 72.374768 646.354525 
L 72.54693 645.569955 
L 72.977336 642.507338 
L 73.235579 641.491278 
L 73.665985 638.379781 
L 73.838148 637.508302 
L 74.268554 634.315464 
L 74.440716 633.432896 
L 74.871122 630.202766 
L 75.043284 629.304176 
L 75.47369 626.053003 
L 75.645853 625.150383 
L 76.076259 621.902398 
L 76.334502 620.812556 
L 76.764908 617.671574 
L 76.937071 616.807773 
L 77.367476 613.680122 
L 77.539639 612.831667 
L 77.970045 609.704884 
L 78.142207 608.85147 
L 78.572613 605.722872 
L 78.744775 604.915603 
L 79.175181 602.163902 
L 79.519506 600.769274 
L 79.863831 599.137362 
L 80.035993 598.624536 
L 80.380318 597.13715 
L 80.55248 596.803696 
L 80.724643 594.448121 
L 81.068968 589.631827 
L 81.413292 587.593193 
L 82.360185 584.619854 
L 82.618429 584.485646 
L 82.962754 584.670574 
L 83.909647 585.674557 
L 84.253972 586.06543 
L 84.426134 583.248343 
L 85.200865 569.134873 
L 85.803433 556.39882 
L 88.558031 467.726935 
L 88.988437 458.518429 
L 89.677086 447.011557 
L 91.054385 432.991312 
L 91.656954 429.103358 
L 91.743035 429.062893 
L 91.915197 428.175459 
L 92.173441 426.877318 
L 92.431684 426.58686 
L 92.689928 425.478119 
L 92.86209 425.463561 
L 93.034253 425.570012 
L 93.292496 424.846605 
L 93.378578 424.869368 
L 93.636821 425.288315 
L 93.895065 424.870088 
L 94.067227 425.196989 
L 94.239389 425.622438 
L 94.411552 425.420281 
L 94.583714 425.670053 
L 94.928039 426.88477 
L 95.186283 426.264124 
L 95.272364 426.320146 
L 95.530607 426.792301 
L 95.788851 425.734604 
L 95.874932 425.688444 
L 96.047094 426.003718 
L 96.133176 425.788394 
L 96.4775 423.635561 
L 96.649663 423.546675 
L 96.821825 421.929495 
L 97.16615 418.83937 
L 97.252231 418.538125 
L 97.682637 412.184404 
L 98.026962 408.793232 
L 98.371287 406.015276 
L 98.973855 399.883863 
L 99.146017 399.789192 
L 99.404261 400.24509 
L 99.662504 401.696756 
L 102.072778 420.722381 
L 103.70832 434.379646 
L 105.602106 448.180443 
L 107.668055 461.241153 
L 109.131435 469.442942 
L 112.144277 483.921945 
L 113.435495 489.282211 
L 113.521576 489.33339 
L 113.8659 488.333685 
L 114.038063 488.498957 
L 114.382388 489.287954 
L 118.428204 502.91495 
L 118.858609 504.059743 
L 119.289015 505.167599 
L 120.924558 509.463581 
L 121.268883 510.111483 
L 121.699289 511.040338 
L 122.560101 512.827198 
L 122.904425 513.61594 
L 123.162669 514.03194 
L 123.506994 514.715905 
L 123.765237 515.076813 
L 124.109562 515.710448 
L 124.281724 515.877826 
L 125.228617 517.427054 
L 125.486861 517.56514 
L 125.831186 518.29784 
L 126.003348 518.45953 
L 126.17551 518.556183 
L 126.691998 519.142635 
L 126.86416 519.310968 
L 127.208485 519.72419 
L 127.380647 519.745532 
L 127.897134 520.173245 
L 128.069297 520.291312 
L 128.32754 520.670294 
L 128.585784 520.572607 
L 128.844027 520.945158 
L 129.01619 521.219781 
L 129.274433 521.105033 
L 129.704839 521.411129 
L 129.877002 521.306906 
L 130.049164 521.470279 
L 130.221326 521.652559 
L 130.47957 521.400506 
L 130.651732 521.540761 
L 130.909976 521.827111 
L 131.082138 521.980807 
L 131.684707 523.167053 
L 132.6316 525.691326 
L 135.902685 534.612182 
L 138.399039 540.744953 
L 139.518095 543.209921 
L 139.86242 543.272033 
L 140.120663 543.485407 
L 140.464988 543.134693 
L 140.809313 543.239393 
L 140.981475 543.19953 
L 141.239719 543.470925 
L 141.497962 543.725841 
L 141.756206 543.904779 
L 142.272693 544.82646 
L 142.78918 545.710246 
L 143.822154 546.861557 
L 144.166479 547.027031 
L 144.682966 547.551671 
L 144.94121 547.811291 
L 145.802022 549.048766 
L 145.974184 549.016726 
L 146.40459 549.16479 
L 146.576752 549.025703 
L 146.748915 549.09525 
L 146.921077 549.207767 
L 147.179321 549.087884 
L 147.437564 549.314146 
L 147.695808 549.543834 
L 147.954051 549.714424 
L 148.298376 550.044408 
L 148.55662 550.180031 
L 149.417431 551.324889 
L 149.503513 551.2317 
L 149.761756 551.089483 
L 150.02 551.317413 
L 150.450406 551.975901 
L 150.79473 552.405596 
L 151.052974 552.518259 
L 151.311218 552.70192 
L 151.655542 552.152173 
L 152.172029 552.238321 
L 152.602435 552.516822 
L 152.774598 552.46377 
L 153.63541 552.924216 
L 155.615277 555.713766 
L 155.959602 555.385246 
L 156.56217 555.669333 
L 156.906495 556.024097 
L 157.25082 555.595758 
L 157.595144 555.770505 
L 157.853388 556.017941 
L 159.230687 557.880498 
L 159.316768 557.857198 
L 159.661093 557.215189 
L 159.833255 557.226256 
L 160.005418 557.281959 
L 160.263661 557.079264 
L 160.694067 557.085773 
L 160.952311 556.868833 
L 161.210554 556.913278 
L 161.554879 556.402335 
L 161.813123 556.533787 
L 162.243529 557.136309 
L 162.501772 557.356369 
L 162.760016 557.433847 
L 163.276503 558.09141 
L 163.706909 558.69297 
L 164.051234 558.589462 
L 164.309477 558.724612 
L 164.653802 558.490866 
L 165.084208 558.803264 
L 165.600695 559.480997 
L 166.289344 560.309968 
L 166.547588 560.333567 
L 166.891913 560.515037 
L 167.150156 560.573019 
L 167.4084 560.726152 
L 167.752725 560.284528 
L 168.010968 560.412292 
L 168.441374 560.966234 
L 168.613537 561.128029 
L 168.957861 560.846057 
L 169.302186 560.997058 
L 169.646511 560.577083 
L 169.904754 560.624269 
L 170.249079 560.385376 
L 170.593404 560.655448 
L 171.712459 561.660428 
L 172.142865 562.098842 
L 173.089758 563.336324 
L 173.348002 563.407958 
L 173.606245 563.551929 
L 173.95057 563.156034 
L 174.208814 563.187325 
L 174.553139 562.899588 
L 174.811382 562.957339 
L 175.155707 562.530803 
L 175.41395 562.66221 
L 176.188681 563.109811 
L 176.446925 563.089381 
L 176.705168 563.196966 
L 177.049493 562.718324 
L 177.307737 562.692227 
L 177.652061 562.118726 
L 178.426792 562.120766 
L 178.598954 562.210884 
L 178.943279 561.86939 
L 179.631929 562.119109 
L 179.804091 562.252054 
L 180.148416 562.199821 
L 180.406659 562.299562 
L 180.750984 561.705499 
L 181.009228 561.760953 
L 181.353552 562.011117 
L 181.783958 562.416379 
L 182.042202 562.466732 
L 182.386527 562.626762 
L 182.64477 562.623359 
L 182.989095 562.785562 
L 183.247339 562.826631 
L 183.677745 563.311477 
L 184.108151 563.861026 
L 184.452475 563.646823 
L 184.7968 563.89858 
L 185.227206 564.313549 
L 186.001937 565.288781 
L 186.346261 564.706268 
L 186.604505 564.599501 
L 186.94883 563.836444 
L 187.207073 563.848909 
L 187.551398 564.13419 
L 187.981804 564.592331 
L 188.240048 564.731879 
L 188.584372 564.950764 
L 188.842616 564.98828 
L 189.186941 565.169922 
L 189.445184 565.226496 
L 189.703428 565.325312 
L 190.047753 564.6046 
L 190.736402 564.444048 
L 191.166808 564.961205 
L 195.212624 570.848735 
L 198.397628 574.905031 
L 200.807901 577.724117 
L 200.980064 575.842462 
L 201.324388 571.824672 
L 201.496551 570.399517 
L 201.926957 565.030748 
L 202.099119 563.533427 
L 202.615606 556.91276 
L 204.33723 535.384298 
L 204.767636 531.390744 
L 205.456285 525.872627 
L 206.317097 521.059603 
L 206.48926 520.60396 
L 206.833584 518.67272 
L 207.091828 518.065748 
L 207.436153 516.521564 
L 207.694396 516.156286 
L 208.038721 514.927301 
L 208.296965 514.72166 
L 208.641289 513.762783 
L 208.899533 513.702615 
L 209.243858 512.992476 
L 209.41602 513.109786 
L 209.588182 513.244435 
L 209.846426 512.819097 
L 210.018588 512.890376 
L 210.190751 513.022212 
L 210.448994 512.712295 
L 210.621157 512.849708 
L 210.793319 513.038844 
L 211.051563 512.853146 
L 211.223725 513.041255 
L 211.309806 513.190196 
L 211.395887 513.075334 
L 211.740212 511.658849 
L 211.912374 511.601308 
L 212.084537 510.564653 
L 212.34278 508.931931 
L 212.514943 508.626539 
L 212.601024 508.603978 
L 212.773186 507.039039 
L 213.117511 503.888856 
L 213.203592 503.539452 
L 213.461836 499.525227 
L 214.925216 475.809157 
L 215.527784 463.522581 
L 215.786028 461.940863 
L 215.95819 461.651725 
L 216.130353 461.903913 
L 216.64684 463.928224 
L 218.79887 475.129629 
L 220.692656 485.097816 
L 222.758604 494.746563 
L 224.910634 503.743917 
L 226.632258 510.115101 
L 227.49307 512.772528 
L 227.923476 513.695254 
L 228.2678 514.49011 
L 228.526044 514.895642 
L 229.817262 518.246256 
L 230.333749 519.515519 
L 230.764155 520.416744 
L 231.10848 521.177178 
L 231.366723 521.664453 
L 231.624967 522.026063 
L 231.88321 522.526265 
L 232.141454 522.519961 
L 232.399697 522.920671 
L 233.690915 524.942769 
L 233.949159 524.774821 
L 234.121321 524.935366 
L 234.379565 525.315224 
L 234.637808 525.108023 
L 234.809971 525.254681 
L 234.982133 525.436351 
L 235.240377 525.264564 
L 235.412539 525.42747 
L 235.670783 525.645741 
L 235.842945 525.700874 
L 236.273351 526.38036 
L 236.617676 527.023009 
L 237.478488 528.94876 
L 237.822812 529.407788 
L 238.081056 529.871572 
L 238.339299 529.852845 
L 238.683624 530.24257 
L 238.769705 530.137799 
L 238.941868 529.997718 
L 239.11403 530.116795 
L 239.372274 530.326384 
L 239.544436 530.405359 
L 239.888761 531.009077 
L 240.663492 532.575358 
L 240.835654 532.54833 
L 241.610385 533.259686 
L 242.385115 534.745164 
L 242.72944 534.469581 
L 242.987684 534.646193 
L 243.245927 534.355826 
L 243.41809 534.449219 
L 243.848496 535.191015 
L 244.278901 536.062443 
L 244.537145 535.933155 
L 244.88147 536.185665 
L 245.225795 535.729524 
L 245.484038 535.964297 
L 245.828363 536.465738 
L 247.377824 539.76597 
L 247.463905 539.689333 
L 247.636068 539.57152 
L 247.80823 539.667506 
L 248.238636 540.346098 
L 249.185529 542.222805 
L 249.529854 542.032281 
L 249.874179 542.332084 
L 250.218503 542.021698 
L 250.907153 542.539428 
L 251.165397 542.816454 
L 251.42364 543.031489 
L 251.767965 543.396835 
L 251.940127 543.444815 
L 252.714858 544.289007 
L 252.973102 544.62523 
L 253.317426 544.254158 
L 253.57567 544.3722 
L 253.833913 544.131587 
L 254.006076 544.218578 
L 254.264319 544.377977 
L 254.436482 544.43465 
L 254.866888 544.796562 
L 255.03905 544.779223 
L 255.813781 545.422764 
L 256.674593 546.726426 
L 257.018917 546.427441 
L 257.363242 546.724892 
L 257.707567 547.224841 
L 258.051892 547.679734 
L 258.740541 548.680982 
L 259.170947 549.301751 
L 259.515272 548.793213 
L 260.290003 548.991635 
L 260.978652 549.596379 
L 261.322977 549.213741 
L 261.667302 549.439739 
L 261.925545 549.715243 
L 262.26987 550.21595 
L 262.614195 550.145756 
L 262.872438 550.334536 
L 263.130682 550.118433 
L 263.475007 550.237102 
L 263.819331 549.640647 
L 264.077575 549.619998 
L 264.4219 548.983633 
L 264.594062 549.031012 
L 264.938387 549.394549 
L 267.090416 552.58414 
L 267.176498 552.613564 
L 267.520822 552.339491 
L 267.865147 552.444824 
L 268.03731 552.428524 
L 268.295553 552.67745 
L 268.467716 552.790667 
L 268.81204 552.295467 
L 269.070284 552.292714 
L 269.414609 551.669584 
L 269.758933 551.594 
L 269.931096 551.467861 
L 270.189339 551.62683 
L 270.705826 552.419285 
L 271.050151 552.874519 
L 271.566638 553.568151 
L 271.652719 553.491606 
L 271.910963 553.3871 
L 272.169207 553.624279 
L 272.771775 554.459315 
L 273.1161 553.912374 
L 273.374343 553.882691 
L 273.718668 553.284897 
L 273.976912 553.398825 
L 274.321236 553.792509 
L 274.665561 554.292353 
L 275.009886 554.257374 
L 275.268129 554.398691 
L 275.612454 553.887357 
L 276.04286 554.004881 
L 276.301104 554.244806 
L 276.473266 554.336787 
L 276.817591 553.738547 
L 277.420159 553.812624 
L 277.764484 554.275996 
L 279.055702 556.718827 
L 281.035569 560.167294 
L 283.876248 564.669567 
L 286.286522 568.181189 
L 286.372603 568.143281 
L 286.716928 567.390702 
L 286.975171 567.364136 
L 287.319496 567.683947 
L 288.438551 569.342445 
L 290.332337 571.93975 
L 291.96788 573.933586 
L 292.312205 573.727521 
L 292.570448 573.849653 
L 293.086935 574.401623 
L 295.58329 577.415755 
L 296.358021 578.003559 
L 296.788427 578.144161 
L 296.960589 578.23305 
L 297.304914 578.170529 
L 297.563157 578.262113 
L 297.907482 578.066806 
L 298.165726 578.107395 
L 298.51005 577.782353 
L 298.768294 577.771722 
L 299.112619 577.317544 
L 299.456943 577.318686 
L 299.801268 576.768235 
L 300.059512 576.659865 
L 300.403837 575.950015 
L 300.66208 575.78093 
L 301.006405 574.941101 
L 301.264648 574.717165 
L 301.608973 573.749842 
L 301.867217 573.470293 
L 302.211542 572.375855 
L 302.555866 571.955831 
L 302.986272 569.715681 
L 303.158435 569.187251 
L 303.588841 566.769243 
L 303.761003 566.19236 
L 304.191409 563.670626 
L 304.363571 563.045855 
L 304.793977 560.454006 
L 304.96614 559.811472 
L 305.396545 557.212648 
L 305.654789 556.513014 
L 306.085195 554.030493 
L 306.257357 553.432522 
L 306.601682 551.240061 
L 306.859926 550.404976 
L 307.20425 548.230039 
L 307.462494 547.398258 
L 307.806819 545.235188 
L 308.065062 544.415921 
L 308.409387 542.27855 
L 308.839793 540.861387 
L 309.184118 539.207253 
L 309.35628 538.744708 
L 309.700605 537.049239 
L 309.958848 536.547899 
L 310.303173 535.240391 
L 310.561417 534.939643 
L 310.905742 534.075628 
L 311.077904 534.052504 
L 311.250066 532.012632 
L 311.594391 527.858693 
L 311.852635 526.873447 
L 312.283041 526.097755 
L 312.799528 525.413115 
L 312.97169 525.530665 
L 313.316015 526.204336 
L 315.640207 531.937747 
L 316.673181 534.139621 
L 318.222643 537.167013 
L 322.35454 544.730595 
L 325.539544 551.325261 
L 326.74468 553.439005 
L 330.790496 560.564614 
L 333.717257 565.161309 
L 336.730098 569.482992 
L 339.829021 573.548723 
L 343.100106 577.475112 
L 346.457273 581.163215 
L 349.986601 584.713606 
L 353.688092 588.12178 
L 357.561746 591.385595 
L 361.607562 594.504846 
L 365.911621 597.538936 
L 370.387843 600.422497 
L 375.122308 603.208833 
L 380.115017 605.89082 
L 385.452051 608.504141 
L 391.133409 611.035544 
L 397.159093 613.475338 
L 403.615182 615.847013 
L 410.501677 618.138011 
L 417.904659 620.363987 
L 425.824129 622.511834 
L 434.432247 624.61214 
L 443.729016 626.646641 
L 453.714434 628.602017 
L 464.560664 630.497623 
L 476.353786 632.331176 
L 489.265965 634.110558 
L 503.38328 635.828137 
L 518.877894 637.485757 
L 535.921969 639.08205 
L 554.773749 640.620257 
L 575.605397 642.093508 
L 598.847318 643.51 
L 624.757756 644.862131 
L 653.853198 646.153179 
L 671.155517 646.827419 
L 671.155517 646.827419 
" clip-path="url(#p4d71ede907)" style="fill: none; stroke: #ff7f0e; stroke-width: 1.5; stroke-linecap: square"/>
   </g>
   <g id="patch_9">
    <path d="M 20.5625 684.92 
L 20.5625 386.16 
" style="fill: none; stroke: #000000; stroke-width: 0.8; stroke-linejoin: miter; stroke-linecap: square"/>
   </g>
   <g id="patch_10">
    <path d="M 702.136136 684.92 
L 702.136136 386.16 
" style="fill: none; stroke: #000000; stroke-width: 0.8; stroke-linejoin: miter; stroke-linecap: square"/>
   </g>
   <g id="patch_11">
    <path d="M 20.5625 684.92 
L 702.136136 684.92 
" style="fill: none; stroke: #000000; stroke-width: 0.8; stroke-linejoin: miter; stroke-linecap: square"/>
   </g>
   <g id="patch_12">
    <path d="M 20.5625 386.16 
L 702.136136 386.16 
" style="fill: none; stroke: #000000; stroke-width: 0.8; stroke-linejoin: miter; stroke-linecap: square"/>
   </g>
   <g id="text_28">
    <!-- 2 transformation(s) -->
    <g transform="translate(303.234631 380.16) scale(0.12 -0.12)">
     <use xlink:href="#DejaVuSans-32"/>
     <use xlink:href="#DejaVuSans-20" x="63.623047"/>
     <use xlink:href="#DejaVuSans-74" x="95.410156"/>
     <use xlink:href="#DejaVuSans-72" x="134.619141"/>
     <use xlink:href="#DejaVuSans-61" x="175.732422"/>
     <use xlink:href="#DejaVuSans-6e" x="237.011719"/>
     <use xlink:href="#DejaVuSans-73" x="300.390625"/>
     <use xlink:href="#DejaVuSans-66" x="352.490234"/>
     <use xlink:href="#DejaVuSans-6f" x="387.695312"/>
     <use xlink:href="#DejaVuSans-72" x="448.876953"/>
     <use xlink:href="#DejaVuSans-6d" x="488.240234"/>
     <use xlink:href="#DejaVuSans-61" x="585.652344"/>
     <use xlink:href="#DejaVuSans-74" x="646.931641"/>
     <use xlink:href="#DejaVuSans-69" x="686.140625"/>
     <use xlink:href="#DejaVuSans-6f" x="713.923828"/>
     <use xlink:href="#DejaVuSans-6e" x="775.105469"/>
     <use xlink:href="#DejaVuSans-28" x="838.484375"/>
     <use xlink:href="#DejaVuSans-73" x="877.498047"/>
     <use xlink:href="#DejaVuSans-29" x="929.597656"/>
    </g>
   </g>
  </g>
  <g id="text_29">
   <!-- training -->
   <g transform="translate(333.129063 16.318125) scale(0.12 -0.12)">
    <defs>
     <path id="DejaVuSans-67" d="M 2906 1791 
Q 2906 2416 2648 2759 
Q 2391 3103 1925 3103 
Q 1463 3103 1205 2759 
Q 947 2416 947 1791 
Q 947 1169 1205 825 
Q 1463 481 1925 481 
Q 2391 481 2648 825 
Q 2906 1169 2906 1791 
z
M 3481 434 
Q 3481 -459 3084 -895 
Q 2688 -1331 1869 -1331 
Q 1566 -1331 1297 -1286 
Q 1028 -1241 775 -1147 
L 775 -588 
Q 1028 -725 1275 -790 
Q 1522 -856 1778 -856 
Q 2344 -856 2625 -561 
Q 2906 -266 2906 331 
L 2906 616 
Q 2728 306 2450 153 
Q 2172 0 1784 0 
Q 1141 0 747 490 
Q 353 981 353 1791 
Q 353 2603 747 3093 
Q 1141 3584 1784 3584 
Q 2172 3584 2450 3431 
Q 2728 3278 2906 2969 
L 2906 3500 
L 3481 3500 
L 3481 434 
z
" transform="scale(0.015625)"/>
    </defs>
    <use xlink:href="#DejaVuSans-74"/>
    <use xlink:href="#DejaVuSans-72" x="39.208984"/>
    <use xlink:href="#DejaVuSans-61" x="80.322266"/>
    <use xlink:href="#DejaVuSans-69" x="141.601562"/>
    <use xlink:href="#DejaVuSans-6e" x="169.384766"/>
    <use xlink:href="#DejaVuSans-69" x="232.763672"/>
    <use xlink:href="#DejaVuSans-6e" x="260.546875"/>
    <use xlink:href="#DejaVuSans-67" x="323.925781"/>
   </g>
  </g>
 </g>
 <defs>
  <clipPath id="pa7fe863263">
   <rect x="20.5625" y="43.44" width="681.573636" height="298.76"/>
  </clipPath>
  <clipPath id="p4d71ede907">
   <rect x="20.5625" y="386.16" width="681.573636" height="298.76"/>
  </clipPath>
 </defs>
</svg>
