<?xml version="1.0" encoding="utf-8" standalone="no"?>
<!DOCTYPE svg PUBLIC "-//W3C//DTD SVG 1.1//EN"
  "http://www.w3.org/Graphics/SVG/1.1/DTD/svg11.dtd">
<svg xmlns:xlink="http://www.w3.org/1999/xlink" width="709.526449pt" height="708.798125pt" viewBox="0 0 709.526449 708.798125" xmlns="http://www.w3.org/2000/svg" version="1.1">
 <metadata>
  <rdf:RDF xmlns:dc="http://purl.org/dc/elements/1.1/" xmlns:cc="http://creativecommons.org/ns#" xmlns:rdf="http://www.w3.org/1999/02/22-rdf-syntax-ns#">
   <cc:Work>
    <dc:type rdf:resource="http://purl.org/dc/dcmitype/StillImage"/>
    <dc:date>2023-06-05T16:07:17.295374</dc:date>
    <dc:format>image/svg+xml</dc:format>
    <dc:creator>
     <cc:Agent>
      <dc:title>Matplotlib v3.7.1, https://matplotlib.org/</dc:title>
     </cc:Agent>
    </dc:creator>
   </cc:Work>
  </rdf:RDF>
 </metadata>
 <defs>
  <style type="text/css">*{stroke-linejoin: round; stroke-linecap: butt}</style>
 </defs>
 <g id="figure_1">
  <g id="patch_1">
   <path d="M -0 708.798125 
L 709.526449 708.798125 
L 709.526449 0 
L -0 0 
z
" style="fill: #ffffff"/>
  </g>
  <g id="axes_1">
   <g id="patch_2">
    <path d="M 38.482813 342.2 
L 702.326449 342.2 
L 702.326449 43.44 
L 38.482813 43.44 
z
" style="fill: #ffffff"/>
   </g>
   <g id="matplotlib.axis_1">
    <g id="xtick_1">
     <g id="line2d_1">
      <defs>
       <path id="mf53b363b85" d="M 0 0 
L 0 3.5 
" style="stroke: #000000; stroke-width: 0.8"/>
      </defs>
      <g>
       <use xlink:href="#mf53b363b85" x="68.489839" y="342.2" style="stroke: #000000; stroke-width: 0.8"/>
      </g>
     </g>
     <g id="text_1">
      <!-- 2014-07-01 -->
      <g transform="translate(39.432027 356.798437) scale(0.1 -0.1)">
       <defs>
        <path id="DejaVuSans-32" d="M 1228 531 
L 3431 531 
L 3431 0 
L 469 0 
L 469 531 
Q 828 903 1448 1529 
Q 2069 2156 2228 2338 
Q 2531 2678 2651 2914 
Q 2772 3150 2772 3378 
Q 2772 3750 2511 3984 
Q 2250 4219 1831 4219 
Q 1534 4219 1204 4116 
Q 875 4013 500 3803 
L 500 4441 
Q 881 4594 1212 4672 
Q 1544 4750 1819 4750 
Q 2544 4750 2975 4387 
Q 3406 4025 3406 3419 
Q 3406 3131 3298 2873 
Q 3191 2616 2906 2266 
Q 2828 2175 2409 1742 
Q 1991 1309 1228 531 
z
" transform="scale(0.015625)"/>
        <path id="DejaVuSans-30" d="M 2034 4250 
Q 1547 4250 1301 3770 
Q 1056 3291 1056 2328 
Q 1056 1369 1301 889 
Q 1547 409 2034 409 
Q 2525 409 2770 889 
Q 3016 1369 3016 2328 
Q 3016 3291 2770 3770 
Q 2525 4250 2034 4250 
z
M 2034 4750 
Q 2819 4750 3233 4129 
Q 3647 3509 3647 2328 
Q 3647 1150 3233 529 
Q 2819 -91 2034 -91 
Q 1250 -91 836 529 
Q 422 1150 422 2328 
Q 422 3509 836 4129 
Q 1250 4750 2034 4750 
z
" transform="scale(0.015625)"/>
        <path id="DejaVuSans-31" d="M 794 531 
L 1825 531 
L 1825 4091 
L 703 3866 
L 703 4441 
L 1819 4666 
L 2450 4666 
L 2450 531 
L 3481 531 
L 3481 0 
L 794 0 
L 794 531 
z
" transform="scale(0.015625)"/>
        <path id="DejaVuSans-34" d="M 2419 4116 
L 825 1625 
L 2419 1625 
L 2419 4116 
z
M 2253 4666 
L 3047 4666 
L 3047 1625 
L 3713 1625 
L 3713 1100 
L 3047 1100 
L 3047 0 
L 2419 0 
L 2419 1100 
L 313 1100 
L 313 1709 
L 2253 4666 
z
" transform="scale(0.015625)"/>
        <path id="DejaVuSans-2d" d="M 313 2009 
L 1997 2009 
L 1997 1497 
L 313 1497 
L 313 2009 
z
" transform="scale(0.015625)"/>
        <path id="DejaVuSans-37" d="M 525 4666 
L 3525 4666 
L 3525 4397 
L 1831 0 
L 1172 0 
L 2766 4134 
L 525 4134 
L 525 4666 
z
" transform="scale(0.015625)"/>
       </defs>
       <use xlink:href="#DejaVuSans-32"/>
       <use xlink:href="#DejaVuSans-30" x="63.623047"/>
       <use xlink:href="#DejaVuSans-31" x="127.246094"/>
       <use xlink:href="#DejaVuSans-34" x="190.869141"/>
       <use xlink:href="#DejaVuSans-2d" x="254.492188"/>
       <use xlink:href="#DejaVuSans-30" x="290.576172"/>
       <use xlink:href="#DejaVuSans-37" x="354.199219"/>
       <use xlink:href="#DejaVuSans-2d" x="417.822266"/>
       <use xlink:href="#DejaVuSans-30" x="453.90625"/>
       <use xlink:href="#DejaVuSans-31" x="517.529297"/>
      </g>
     </g>
    </g>
    <g id="xtick_2">
     <g id="line2d_2">
      <g>
       <use xlink:href="#mf53b363b85" x="189.222219" y="342.2" style="stroke: #000000; stroke-width: 0.8"/>
      </g>
     </g>
     <g id="text_2">
      <!-- 2014-07-02 -->
      <g transform="translate(160.164407 356.798437) scale(0.1 -0.1)">
       <use xlink:href="#DejaVuSans-32"/>
       <use xlink:href="#DejaVuSans-30" x="63.623047"/>
       <use xlink:href="#DejaVuSans-31" x="127.246094"/>
       <use xlink:href="#DejaVuSans-34" x="190.869141"/>
       <use xlink:href="#DejaVuSans-2d" x="254.492188"/>
       <use xlink:href="#DejaVuSans-30" x="290.576172"/>
       <use xlink:href="#DejaVuSans-37" x="354.199219"/>
       <use xlink:href="#DejaVuSans-2d" x="417.822266"/>
       <use xlink:href="#DejaVuSans-30" x="453.90625"/>
       <use xlink:href="#DejaVuSans-32" x="517.529297"/>
      </g>
     </g>
    </g>
    <g id="xtick_3">
     <g id="line2d_3">
      <g>
       <use xlink:href="#mf53b363b85" x="309.954599" y="342.2" style="stroke: #000000; stroke-width: 0.8"/>
      </g>
     </g>
     <g id="text_3">
      <!-- 2014-07-03 -->
      <g transform="translate(280.896786 356.798437) scale(0.1 -0.1)">
       <defs>
        <path id="DejaVuSans-33" d="M 2597 2516 
Q 3050 2419 3304 2112 
Q 3559 1806 3559 1356 
Q 3559 666 3084 287 
Q 2609 -91 1734 -91 
Q 1441 -91 1130 -33 
Q 819 25 488 141 
L 488 750 
Q 750 597 1062 519 
Q 1375 441 1716 441 
Q 2309 441 2620 675 
Q 2931 909 2931 1356 
Q 2931 1769 2642 2001 
Q 2353 2234 1838 2234 
L 1294 2234 
L 1294 2753 
L 1863 2753 
Q 2328 2753 2575 2939 
Q 2822 3125 2822 3475 
Q 2822 3834 2567 4026 
Q 2313 4219 1838 4219 
Q 1578 4219 1281 4162 
Q 984 4106 628 3988 
L 628 4550 
Q 988 4650 1302 4700 
Q 1616 4750 1894 4750 
Q 2613 4750 3031 4423 
Q 3450 4097 3450 3541 
Q 3450 3153 3228 2886 
Q 3006 2619 2597 2516 
z
" transform="scale(0.015625)"/>
       </defs>
       <use xlink:href="#DejaVuSans-32"/>
       <use xlink:href="#DejaVuSans-30" x="63.623047"/>
       <use xlink:href="#DejaVuSans-31" x="127.246094"/>
       <use xlink:href="#DejaVuSans-34" x="190.869141"/>
       <use xlink:href="#DejaVuSans-2d" x="254.492188"/>
       <use xlink:href="#DejaVuSans-30" x="290.576172"/>
       <use xlink:href="#DejaVuSans-37" x="354.199219"/>
       <use xlink:href="#DejaVuSans-2d" x="417.822266"/>
       <use xlink:href="#DejaVuSans-30" x="453.90625"/>
       <use xlink:href="#DejaVuSans-33" x="517.529297"/>
      </g>
     </g>
    </g>
    <g id="xtick_4">
     <g id="line2d_4">
      <g>
       <use xlink:href="#mf53b363b85" x="430.686979" y="342.2" style="stroke: #000000; stroke-width: 0.8"/>
      </g>
     </g>
     <g id="text_4">
      <!-- 2014-07-04 -->
      <g transform="translate(401.629166 356.798437) scale(0.1 -0.1)">
       <use xlink:href="#DejaVuSans-32"/>
       <use xlink:href="#DejaVuSans-30" x="63.623047"/>
       <use xlink:href="#DejaVuSans-31" x="127.246094"/>
       <use xlink:href="#DejaVuSans-34" x="190.869141"/>
       <use xlink:href="#DejaVuSans-2d" x="254.492188"/>
       <use xlink:href="#DejaVuSans-30" x="290.576172"/>
       <use xlink:href="#DejaVuSans-37" x="354.199219"/>
       <use xlink:href="#DejaVuSans-2d" x="417.822266"/>
       <use xlink:href="#DejaVuSans-30" x="453.90625"/>
       <use xlink:href="#DejaVuSans-34" x="517.529297"/>
      </g>
     </g>
    </g>
    <g id="xtick_5">
     <g id="line2d_5">
      <g>
       <use xlink:href="#mf53b363b85" x="551.419358" y="342.2" style="stroke: #000000; stroke-width: 0.8"/>
      </g>
     </g>
     <g id="text_5">
      <!-- 2014-07-05 -->
      <g transform="translate(522.361546 356.798437) scale(0.1 -0.1)">
       <defs>
        <path id="DejaVuSans-35" d="M 691 4666 
L 3169 4666 
L 3169 4134 
L 1269 4134 
L 1269 2991 
Q 1406 3038 1543 3061 
Q 1681 3084 1819 3084 
Q 2600 3084 3056 2656 
Q 3513 2228 3513 1497 
Q 3513 744 3044 326 
Q 2575 -91 1722 -91 
Q 1428 -91 1123 -41 
Q 819 9 494 109 
L 494 744 
Q 775 591 1075 516 
Q 1375 441 1709 441 
Q 2250 441 2565 725 
Q 2881 1009 2881 1497 
Q 2881 1984 2565 2268 
Q 2250 2553 1709 2553 
Q 1456 2553 1204 2497 
Q 953 2441 691 2322 
L 691 4666 
z
" transform="scale(0.015625)"/>
       </defs>
       <use xlink:href="#DejaVuSans-32"/>
       <use xlink:href="#DejaVuSans-30" x="63.623047"/>
       <use xlink:href="#DejaVuSans-31" x="127.246094"/>
       <use xlink:href="#DejaVuSans-34" x="190.869141"/>
       <use xlink:href="#DejaVuSans-2d" x="254.492188"/>
       <use xlink:href="#DejaVuSans-30" x="290.576172"/>
       <use xlink:href="#DejaVuSans-37" x="354.199219"/>
       <use xlink:href="#DejaVuSans-2d" x="417.822266"/>
       <use xlink:href="#DejaVuSans-30" x="453.90625"/>
       <use xlink:href="#DejaVuSans-35" x="517.529297"/>
      </g>
     </g>
    </g>
    <g id="xtick_6">
     <g id="line2d_6">
      <g>
       <use xlink:href="#mf53b363b85" x="672.151738" y="342.2" style="stroke: #000000; stroke-width: 0.8"/>
      </g>
     </g>
     <g id="text_6">
      <!-- 2014-07-06 -->
      <g transform="translate(643.093926 356.798437) scale(0.1 -0.1)">
       <defs>
        <path id="DejaVuSans-36" d="M 2113 2584 
Q 1688 2584 1439 2293 
Q 1191 2003 1191 1497 
Q 1191 994 1439 701 
Q 1688 409 2113 409 
Q 2538 409 2786 701 
Q 3034 994 3034 1497 
Q 3034 2003 2786 2293 
Q 2538 2584 2113 2584 
z
M 3366 4563 
L 3366 3988 
Q 3128 4100 2886 4159 
Q 2644 4219 2406 4219 
Q 1781 4219 1451 3797 
Q 1122 3375 1075 2522 
Q 1259 2794 1537 2939 
Q 1816 3084 2150 3084 
Q 2853 3084 3261 2657 
Q 3669 2231 3669 1497 
Q 3669 778 3244 343 
Q 2819 -91 2113 -91 
Q 1303 -91 875 529 
Q 447 1150 447 2328 
Q 447 3434 972 4092 
Q 1497 4750 2381 4750 
Q 2619 4750 2861 4703 
Q 3103 4656 3366 4563 
z
" transform="scale(0.015625)"/>
       </defs>
       <use xlink:href="#DejaVuSans-32"/>
       <use xlink:href="#DejaVuSans-30" x="63.623047"/>
       <use xlink:href="#DejaVuSans-31" x="127.246094"/>
       <use xlink:href="#DejaVuSans-34" x="190.869141"/>
       <use xlink:href="#DejaVuSans-2d" x="254.492188"/>
       <use xlink:href="#DejaVuSans-30" x="290.576172"/>
       <use xlink:href="#DejaVuSans-37" x="354.199219"/>
       <use xlink:href="#DejaVuSans-2d" x="417.822266"/>
       <use xlink:href="#DejaVuSans-30" x="453.90625"/>
       <use xlink:href="#DejaVuSans-36" x="517.529297"/>
      </g>
     </g>
    </g>
   </g>
   <g id="matplotlib.axis_2">
    <g id="ytick_1">
     <g id="line2d_7">
      <defs>
       <path id="mb6c35ec2bf" d="M 0 0 
L -3.5 0 
" style="stroke: #000000; stroke-width: 0.8"/>
      </defs>
      <g>
       <use xlink:href="#mb6c35ec2bf" x="38.482813" y="333.319525" style="stroke: #000000; stroke-width: 0.8"/>
      </g>
     </g>
     <g id="text_7">
      <!-- −0.5 -->
      <g transform="translate(7.2 337.118744) scale(0.1 -0.1)">
       <defs>
        <path id="DejaVuSans-2212" d="M 678 2272 
L 4684 2272 
L 4684 1741 
L 678 1741 
L 678 2272 
z
" transform="scale(0.015625)"/>
        <path id="DejaVuSans-2e" d="M 684 794 
L 1344 794 
L 1344 0 
L 684 0 
L 684 794 
z
" transform="scale(0.015625)"/>
       </defs>
       <use xlink:href="#DejaVuSans-2212"/>
       <use xlink:href="#DejaVuSans-30" x="83.789062"/>
       <use xlink:href="#DejaVuSans-2e" x="147.412109"/>
       <use xlink:href="#DejaVuSans-35" x="179.199219"/>
      </g>
     </g>
    </g>
    <g id="ytick_2">
     <g id="line2d_8">
      <g>
       <use xlink:href="#mb6c35ec2bf" x="38.482813" y="299.908509" style="stroke: #000000; stroke-width: 0.8"/>
      </g>
     </g>
     <g id="text_8">
      <!-- 0.0 -->
      <g transform="translate(15.579688 303.707728) scale(0.1 -0.1)">
       <use xlink:href="#DejaVuSans-30"/>
       <use xlink:href="#DejaVuSans-2e" x="63.623047"/>
       <use xlink:href="#DejaVuSans-30" x="95.410156"/>
      </g>
     </g>
    </g>
    <g id="ytick_3">
     <g id="line2d_9">
      <g>
       <use xlink:href="#mb6c35ec2bf" x="38.482813" y="266.497494" style="stroke: #000000; stroke-width: 0.8"/>
      </g>
     </g>
     <g id="text_9">
      <!-- 0.5 -->
      <g transform="translate(15.579688 270.296712) scale(0.1 -0.1)">
       <use xlink:href="#DejaVuSans-30"/>
       <use xlink:href="#DejaVuSans-2e" x="63.623047"/>
       <use xlink:href="#DejaVuSans-35" x="95.410156"/>
      </g>
     </g>
    </g>
    <g id="ytick_4">
     <g id="line2d_10">
      <g>
       <use xlink:href="#mb6c35ec2bf" x="38.482813" y="233.086478" style="stroke: #000000; stroke-width: 0.8"/>
      </g>
     </g>
     <g id="text_10">
      <!-- 1.0 -->
      <g transform="translate(15.579688 236.885697) scale(0.1 -0.1)">
       <use xlink:href="#DejaVuSans-31"/>
       <use xlink:href="#DejaVuSans-2e" x="63.623047"/>
       <use xlink:href="#DejaVuSans-30" x="95.410156"/>
      </g>
     </g>
    </g>
    <g id="ytick_5">
     <g id="line2d_11">
      <g>
       <use xlink:href="#mb6c35ec2bf" x="38.482813" y="199.675462" style="stroke: #000000; stroke-width: 0.8"/>
      </g>
     </g>
     <g id="text_11">
      <!-- 1.5 -->
      <g transform="translate(15.579688 203.474681) scale(0.1 -0.1)">
       <use xlink:href="#DejaVuSans-31"/>
       <use xlink:href="#DejaVuSans-2e" x="63.623047"/>
       <use xlink:href="#DejaVuSans-35" x="95.410156"/>
      </g>
     </g>
    </g>
    <g id="ytick_6">
     <g id="line2d_12">
      <g>
       <use xlink:href="#mb6c35ec2bf" x="38.482813" y="166.264446" style="stroke: #000000; stroke-width: 0.8"/>
      </g>
     </g>
     <g id="text_12">
      <!-- 2.0 -->
      <g transform="translate(15.579688 170.063665) scale(0.1 -0.1)">
       <use xlink:href="#DejaVuSans-32"/>
       <use xlink:href="#DejaVuSans-2e" x="63.623047"/>
       <use xlink:href="#DejaVuSans-30" x="95.410156"/>
      </g>
     </g>
    </g>
    <g id="ytick_7">
     <g id="line2d_13">
      <g>
       <use xlink:href="#mb6c35ec2bf" x="38.482813" y="132.85343" style="stroke: #000000; stroke-width: 0.8"/>
      </g>
     </g>
     <g id="text_13">
      <!-- 2.5 -->
      <g transform="translate(15.579688 136.652649) scale(0.1 -0.1)">
       <use xlink:href="#DejaVuSans-32"/>
       <use xlink:href="#DejaVuSans-2e" x="63.623047"/>
       <use xlink:href="#DejaVuSans-35" x="95.410156"/>
      </g>
     </g>
    </g>
    <g id="ytick_8">
     <g id="line2d_14">
      <g>
       <use xlink:href="#mb6c35ec2bf" x="38.482813" y="99.442415" style="stroke: #000000; stroke-width: 0.8"/>
      </g>
     </g>
     <g id="text_14">
      <!-- 3.0 -->
      <g transform="translate(15.579688 103.241633) scale(0.1 -0.1)">
       <use xlink:href="#DejaVuSans-33"/>
       <use xlink:href="#DejaVuSans-2e" x="63.623047"/>
       <use xlink:href="#DejaVuSans-30" x="95.410156"/>
      </g>
     </g>
    </g>
    <g id="ytick_9">
     <g id="line2d_15">
      <g>
       <use xlink:href="#mb6c35ec2bf" x="38.482813" y="66.031399" style="stroke: #000000; stroke-width: 0.8"/>
      </g>
     </g>
     <g id="text_15">
      <!-- 3.5 -->
      <g transform="translate(15.579688 69.830617) scale(0.1 -0.1)">
       <use xlink:href="#DejaVuSans-33"/>
       <use xlink:href="#DejaVuSans-2e" x="63.623047"/>
       <use xlink:href="#DejaVuSans-35" x="95.410156"/>
      </g>
     </g>
    </g>
   </g>
   <g id="line2d_16">
    <path d="M 68.657523 299.908509 
L 86.851222 299.821415 
L 87.018906 299.699959 
L 87.18659 299.369416 
L 87.521958 297.814362 
L 87.857325 296.09466 
L 88.276535 291.41749 
L 88.695745 281.901819 
L 89.282638 264.017252 
L 90.204899 236.900781 
L 90.456425 233.909027 
L 90.624109 233.373466 
L 90.875635 230.509738 
L 91.211003 228.009694 
L 91.630212 224.751719 
L 91.797896 224.342627 
L 92.217106 221.345571 
L 92.300948 221.334531 
L 92.38479 221.191465 
L 92.803999 219.032206 
L 93.055525 219.108526 
L 93.474735 217.728211 
L 93.642418 217.779144 
L 93.977786 216.648987 
L 94.061628 216.566199 
L 94.229312 216.677879 
L 94.56468 215.437922 
L 94.648522 215.465595 
L 94.816206 215.76166 
L 95.151573 214.561396 
L 95.235415 214.583621 
L 95.403099 214.992227 
L 95.654625 214.553415 
L 95.738467 214.65 
L 95.822309 214.742419 
L 96.32536 216.185903 
L 96.409202 216.235913 
L 96.576886 216.803723 
L 96.996096 218.300554 
L 97.16378 218.806016 
L 97.247622 218.12302 
L 97.666831 208.633641 
L 97.750673 208.192096 
L 97.834515 208.226047 
L 97.918357 208.213724 
L 98.002199 208.381348 
L 99.175986 217.673223 
L 100.349773 228.089041 
L 100.768983 231.24973 
L 100.852825 230.302858 
L 101.355876 208.162822 
L 101.94277 171.473757 
L 102.026612 168.471429 
L 102.445821 137.011438 
L 102.613505 129.291599 
L 103.032715 105.593037 
L 103.200399 101.763842 
L 103.619608 87.70005 
L 103.70345 88.064231 
L 104.12266 80.024995 
L 104.206502 80.954207 
L 104.290344 82.041348 
L 104.374186 81.765174 
L 104.458028 81.970389 
L 104.541869 81.373256 
L 104.709553 79.503888 
L 105.128763 88.820154 
L 105.212605 88.306089 
L 105.296447 87.525408 
L 105.380289 88.034837 
L 105.799498 94.196262 
L 105.88334 93.719349 
L 105.967182 94.276015 
L 106.386392 100.27242 
L 106.470234 100.142561 
L 106.554076 100.621673 
L 106.973285 106.840132 
L 107.057127 107.030387 
L 107.140969 107.538988 
L 107.644021 113.885203 
L 107.811705 116.40936 
L 108.147072 124.86559 
L 108.314756 124.430243 
L 108.398598 125.087422 
L 108.817808 132.431131 
L 108.90165 132.194387 
L 108.985492 132.563236 
L 109.404701 138.916493 
L 109.488543 138.822958 
L 109.572385 139.198897 
L 110.075437 144.873945 
L 110.159279 145.295463 
L 110.66233 150.650716 
L 110.830014 151.96098 
L 111.165382 156.441603 
L 111.416908 155.007168 
L 111.584592 156.441555 
L 111.668434 157.472346 
L 111.752275 157.394664 
L 112.087643 153.420953 
L 112.255327 154.289943 
L 112.339169 153.180943 
L 112.674537 144.361934 
L 112.758379 144.561048 
L 112.842221 143.875112 
L 113.512956 108.473983 
L 113.764482 85.822064 
L 113.932166 81.121473 
L 114.435217 89.848444 
L 114.686743 96.590098 
L 115.44132 117.874814 
L 116.028214 129.865759 
L 116.866633 138.787494 
L 117.285843 140.822424 
L 117.705053 141.741359 
L 117.956578 141.993907 
L 118.543472 142.002383 
L 119.046523 141.432461 
L 119.633417 140.174565 
L 120.22031 138.45763 
L 121.645623 132.498076 
L 122.735568 126.989672 
L 124.747775 115.32464 
L 125.921562 108.205886 
L 129.359081 88.111102 
L 129.694449 85.642992 
L 129.945974 84.171772 
L 130.281342 82.36116 
L 131.035919 79.251133 
L 132.125865 75.116035 
L 134.892648 65.560412 
L 136.150277 62.27842 
L 137.57559 59.596381 
L 138.078642 58.849443 
L 138.330167 58.576949 
L 138.665535 58.169912 
L 138.917061 58.002965 
L 139.252429 57.653154 
L 139.503954 57.555493 
L 139.839322 57.29627 
L 140.090848 57.261141 
L 140.426216 57.099483 
L 140.677741 57.131187 
L 140.929267 57.020605 
L 142.35458 57.626166 
L 142.522264 57.744697 
L 142.77379 57.758606 
L 143.192999 58.130911 
L 143.360683 58.196932 
L 143.779893 58.63819 
L 143.947577 58.729303 
L 145.037522 60.143361 
L 145.205206 60.240974 
L 145.624415 60.859328 
L 145.792099 60.967965 
L 146.71436 63.018476 
L 152.415612 77.496314 
L 154.763186 82.797845 
L 155.350079 83.757295 
L 155.601605 84.17064 
L 155.853131 84.475364 
L 156.104657 84.729967 
L 156.607708 85.582612 
L 156.943076 86.317951 
L 158.87144 90.701025 
L 159.70986 92.388804 
L 161.219014 95.781585 
L 161.554382 96.262703 
L 161.88975 96.871307 
L 162.141276 97.266618 
L 162.979695 99.149305 
L 164.908059 103.33642 
L 165.746479 105.152082 
L 166.081846 105.817768 
L 166.333372 106.008119 
L 167.339475 107.777707 
L 167.591001 108.209518 
L 168.010211 108.999264 
L 168.345578 109.773971 
L 170.525469 114.704088 
L 171.531572 116.555581 
L 171.783098 116.749628 
L 173.040727 119.39778 
L 173.879146 121.262082 
L 174.130672 121.451748 
L 174.717565 122.263894 
L 174.969091 122.714424 
L 175.220617 123.026652 
L 175.388301 123.142251 
L 175.80751 123.725683 
L 175.975194 123.800657 
L 176.394404 124.649876 
L 177.316665 126.634302 
L 178.071242 128.35251 
L 178.82582 129.595144 
L 178.993504 129.757663 
L 181.760287 134.798951 
L 182.011813 134.840788 
L 183.60481 137.341334 
L 183.856336 137.327171 
L 184.275545 137.973023 
L 184.443229 137.96152 
L 185.197806 139.367421 
L 185.533174 140.004925 
L 185.7847 140.512825 
L 186.623119 142.33298 
L 187.880748 144.745807 
L 188.048432 144.820908 
L 188.467642 145.432985 
L 188.635326 145.401886 
L 189.138377 145.84077 
L 189.306061 145.894014 
L 189.892955 146.69343 
L 190.9829 148.254075 
L 191.150584 148.342751 
L 191.485951 148.756813 
L 191.653635 148.625218 
L 191.821319 148.813896 
L 192.156687 149.221809 
L 192.324371 149.289535 
L 192.575896 149.762337 
L 192.74358 150.005549 
L 192.995106 150.031135 
L 193.498158 150.870986 
L 193.665841 151.08208 
L 194.001209 151.751861 
L 194.168893 151.884492 
L 194.504261 152.40947 
L 194.755787 152.392503 
L 195.929574 154.221325 
L 196.097257 154.503522 
L 196.348783 155.016599 
L 196.600309 155.20695 
L 197.187203 156.022298 
L 197.438728 156.481734 
L 197.774096 157.017913 
L 198.528673 158.036054 
L 198.864041 158.514592 
L 199.115567 158.79561 
L 199.70246 159.755984 
L 199.953986 160.06305 
L 200.12167 160.046959 
L 200.54088 160.394794 
L 200.792406 160.087074 
L 201.043931 160.382032 
L 201.295457 160.586546 
L 201.546983 160.699247 
L 201.966193 161.400062 
L 202.133876 161.580807 
L 202.553086 162.20727 
L 202.888454 162.710581 
L 203.391505 163.304639 
L 203.559189 163.405359 
L 203.810715 163.305436 
L 204.313767 163.622092 
L 204.48145 163.639649 
L 205.739079 165.88803 
L 208.505863 170.870085 
L 210.434228 173.580626 
L 213.201011 176.973637 
L 214.290956 178.088826 
L 214.374798 177.784588 
L 215.045534 169.483453 
L 215.297059 164.644615 
L 215.548585 163.170973 
L 215.883953 158.119393 
L 216.051637 158.27052 
L 216.219321 156.430275 
L 216.470847 154.272577 
L 216.722372 155.890257 
L 216.806214 155.504202 
L 217.05774 152.961326 
L 217.141582 153.105793 
L 217.309266 154.248727 
L 217.393108 154.096278 
L 217.644634 152.162929 
L 217.728475 152.29411 
L 217.896159 153.427405 
L 217.980001 153.393184 
L 218.231527 151.837876 
L 218.315369 152.052284 
L 218.566895 153.429014 
L 218.818421 152.123912 
L 218.902262 152.369625 
L 219.153788 154.037283 
L 219.405314 153.14062 
L 219.489156 153.361799 
L 219.824524 156.008199 
L 220.07605 155.481452 
L 220.159891 155.793218 
L 220.411417 157.635932 
L 220.495259 157.623203 
L 220.662943 157.443287 
L 220.830627 158.130226 
L 221.082153 159.11574 
L 221.249837 159.09232 
L 221.41752 159.620724 
L 221.669046 160.580747 
L 221.83673 160.551242 
L 222.004414 161.05715 
L 222.25594 161.947759 
L 222.423624 161.910814 
L 222.507465 162.024311 
L 222.926675 163.507066 
L 223.094359 163.443403 
L 223.262043 163.927199 
L 223.513569 164.744108 
L 223.765094 164.758622 
L 224.268146 165.747306 
L 224.43583 165.98902 
L 224.603514 166.255907 
L 224.938881 165.145266 
L 225.022723 165.205456 
L 225.106565 165.307928 
L 225.190407 165.103318 
L 225.609617 162.221465 
L 225.777301 162.604333 
L 225.944985 160.175399 
L 226.19651 156.870067 
L 226.280352 156.917416 
L 226.364194 156.608088 
L 226.951088 142.548295 
L 227.370297 104.722295 
L 227.537981 108.353237 
L 227.789507 111.925583 
L 227.957191 113.866037 
L 228.208717 120.044795 
L 228.879452 136.382299 
L 229.382504 146.020702 
L 230.053239 154.296905 
L 230.723975 159.301264 
L 231.646236 163.463764 
L 233.071549 167.789277 
L 233.909968 169.567787 
L 235.083755 171.525224 
L 236.844436 173.891969 
L 239.275852 176.66955 
L 240.868848 178.036762 
L 241.120374 178.11724 
L 241.3719 178.064116 
L 241.791109 178.223217 
L 242.042635 178.156201 
L 243.467948 178.912347 
L 243.803316 179.043066 
L 244.054842 179.227363 
L 244.474051 179.230486 
L 244.641735 179.296721 
L 245.060945 179.065777 
L 245.396312 179.151377 
L 245.647838 179.082138 
L 245.983206 179.191772 
L 246.5701 179.063108 
L 246.737783 178.987489 
L 247.073151 179.098014 
L 247.408519 178.609081 
L 247.660045 178.726019 
L 248.079254 178.347532 
L 248.33078 178.47657 
L 248.582306 178.390141 
L 249.085357 178.905082 
L 249.336883 179.219421 
L 250.259144 180.555319 
L 250.92988 181.094261 
L 251.34909 181.230078 
L 251.600615 181.024449 
L 252.019825 181.12912 
L 252.187509 181.057228 
L 252.355193 181.207424 
L 253.025928 182.031335 
L 253.864347 182.531779 
L 254.115873 182.577869 
L 254.702767 183.238617 
L 254.870451 183.302726 
L 255.121976 183.210729 
L 255.457344 183.332916 
L 255.876554 182.977203 
L 256.379605 183.380145 
L 256.882657 183.700411 
L 257.385709 183.761811 
L 257.637234 183.515484 
L 258.30797 183.875411 
L 259.900966 186.156739 
L 260.06865 186.277978 
L 260.655544 186.904776 
L 260.823228 187.044528 
L 261.410121 187.792565 
L 261.913173 187.953291 
L 262.164699 188.073694 
L 262.500066 187.750968 
L 262.751592 187.827057 
L 263.08696 187.676503 
L 263.422328 187.769377 
L 263.673853 187.845355 
L 263.925379 188.000066 
L 264.176905 188.018643 
L 264.679956 188.310884 
L 265.183008 188.626298 
L 265.434534 188.504517 
L 265.769902 188.519238 
L 266.105269 188.304583 
L 266.524479 188.295423 
L 266.692163 188.310733 
L 266.943689 188.452564 
L 267.195214 188.425178 
L 267.614424 188.682808 
L 267.86595 188.815478 
L 268.788211 189.765982 
L 269.039737 189.810615 
L 270.800417 191.385925 
L 271.219627 191.78486 
L 271.471153 191.729386 
L 271.806521 191.821232 
L 272.22573 191.667396 
L 272.980308 191.802839 
L 273.315675 191.634259 
L 273.651043 191.733449 
L 273.902569 191.769709 
L 274.321778 191.993732 
L 274.489462 192.02624 
L 274.82483 192.204961 
L 275.076356 192.13663 
L 275.327882 192.186225 
L 276.166301 191.171382 
L 276.417827 190.98166 
L 277.00472 191.216317 
L 278.933085 194.17422 
L 279.687662 194.566783 
L 280.358397 194.532602 
L 280.609923 194.356685 
L 280.777607 194.341765 
L 281.699868 193.187464 
L 281.867552 193.166745 
L 282.538288 193.752582 
L 283.376707 194.727963 
L 283.628233 194.948417 
L 284.298968 195.641848 
L 284.466652 195.701146 
L 284.80202 195.660528 
L 284.969704 195.696613 
L 285.640439 195.151943 
L 286.143491 195.289815 
L 286.395016 195.409693 
L 286.5627 195.446081 
L 286.814226 195.67446 
L 287.317278 195.489494 
L 287.652645 195.489032 
L 288.155697 195.431312 
L 288.407223 195.263807 
L 288.658749 195.321471 
L 288.994116 195.215255 
L 289.329484 195.550297 
L 289.748694 196.075029 
L 291.7609 199.488871 
L 292.850845 200.985598 
L 294.779209 202.964448 
L 296.036838 204.009092 
L 297.629835 205.145534 
L 298.049045 205.14555 
L 299.474358 205.146896 
L 300.89967 205.935001 
L 302.492667 207.078811 
L 303.331086 207.59165 
L 305.259451 208.351054 
L 306.349396 208.964437 
L 307.942393 209.75541 
L 308.529286 209.827859 
L 309.032338 209.674533 
L 309.367705 209.438873 
L 310.038441 208.716382 
L 310.960702 207.464994 
L 311.29607 206.759446 
L 312.134489 205.098368 
L 313.47596 201.901204 
L 313.811328 200.09949 
L 313.979012 199.696699 
L 314.482063 196.83272 
L 314.649747 195.993005 
L 314.985115 194.172858 
L 315.152799 193.853628 
L 315.572008 191.890893 
L 315.65585 191.904411 
L 315.739692 191.752232 
L 316.158902 190.15332 
L 316.410428 190.465484 
L 316.745795 189.143399 
L 316.997321 189.448131 
L 317.332689 188.18504 
L 317.584215 188.347017 
L 317.919582 187.213387 
L 318.171108 187.446236 
L 318.506476 186.357039 
L 318.590318 186.47385 
L 318.758002 186.684147 
L 319.093369 185.635823 
L 319.261053 186.086616 
L 319.428737 186.413748 
L 319.764105 185.495736 
L 320.015631 186.089404 
L 320.350998 185.513436 
L 320.686366 186.087731 
L 320.85405 185.962827 
L 320.937892 186.032799 
L 321.357101 186.896077 
L 321.524785 187.125564 
L 321.692469 187.450665 
L 321.776311 186.548242 
L 322.111679 179.588541 
L 322.195521 179.34094 
L 322.530888 180.147597 
L 322.698572 179.923638 
L 322.866256 180.599617 
L 323.45315 184.463224 
L 323.872359 187.088834 
L 324.626937 191.243185 
L 325.465356 194.804634 
L 326.219933 197.070149 
L 327.226037 199.104035 
L 328.064456 200.205443 
L 329.322085 201.323739 
L 330.663556 202.025495 
L 333.01113 203.273912 
L 338.041646 207.143621 
L 340.976113 208.860213 
L 344.497474 210.738072 
L 349.360306 213.099408 
L 357.32529 216.638512 
L 366.380218 220.344437 
L 372.919889 222.758825 
L 385.244652 226.966635 
L 392.371216 229.160904 
L 402.09688 231.855012 
L 407.043554 233.04441 
L 419.87137 235.709722 
L 432.866869 238.077761 
L 444.520897 239.943217 
L 464.978328 242.849008 
L 480.908295 244.778239 
L 490.466275 245.87715 
L 504.887087 247.473824 
L 524.170731 249.381173 
L 547.227262 251.379926 
L 570.032267 253.091029 
L 612.204758 255.772542 
L 637.441179 257.066524 
L 663.851387 258.122232 
L 672.151738 258.422292 
L 672.151738 258.422292 
" clip-path="url(#pe9e6abc002)" style="fill: none; stroke: #1f77b4; stroke-width: 1.5; stroke-linecap: square"/>
   </g>
   <g id="line2d_17">
    <path d="M 68.657523 299.908509 
L 71.591991 300.010832 
L 83.581387 302.057467 
L 85.090542 302.416786 
L 87.689641 302.935063 
L 88.444219 302.854405 
L 88.695745 302.750774 
L 89.031112 302.630896 
L 89.282638 302.494905 
L 89.701848 302.319644 
L 89.953374 302.089198 
L 90.288741 301.824513 
L 90.624109 301.429747 
L 90.875635 301.120566 
L 91.294844 300.560242 
L 91.714054 299.803191 
L 92.217106 298.806424 
L 93.139367 296.717394 
L 93.810102 294.864453 
L 94.900047 291.450187 
L 96.32536 286.624747 
L 96.828412 284.751255 
L 97.079938 281.901936 
L 98.756776 275.655159 
L 99.930563 270.882646 
L 100.433615 268.984756 
L 100.685141 264.368188 
L 101.020508 263.272494 
L 101.272034 259.054604 
L 101.691244 257.973446 
L 102.026612 253.45549 
L 102.278137 252.103063 
L 102.529663 248.087123 
L 102.865031 246.346739 
L 103.116557 242.729958 
L 103.28424 242.444709 
L 103.451924 241.937451 
L 103.70345 239.296571 
L 103.954976 239.974825 
L 104.038818 239.997209 
L 104.206502 238.389509 
L 104.290344 238.651047 
L 104.625711 241.087922 
L 104.709553 241.450578 
L 104.793395 241.066922 
L 104.877237 241.095667 
L 105.296447 245.6871 
L 105.380289 245.733405 
L 105.464131 246.207406 
L 105.88334 252.250322 
L 106.134866 254.142664 
L 106.554076 260.306374 
L 106.72176 262.121402 
L 107.140969 268.792804 
L 107.308653 270.800866 
L 107.727863 277.727983 
L 107.895547 279.554706 
L 108.314756 286.021859 
L 108.566282 289.156294 
L 108.985492 294.240499 
L 109.153176 295.729275 
L 109.572385 300.061647 
L 109.823911 302.1803 
L 110.243121 305.076636 
L 110.830014 308.234663 
L 110.913856 308.408708 
L 111.249224 309.80076 
L 111.333066 309.967587 
L 111.50075 309.692679 
L 111.836117 310.368631 
L 111.919959 310.360299 
L 112.171485 309.220056 
L 112.423011 309.522538 
L 112.506853 309.423899 
L 112.758379 307.126815 
L 113.009904 307.44851 
L 113.093746 307.256572 
L 113.345272 303.504267 
L 113.596798 304.177117 
L 113.932166 304.64873 
L 114.267533 306.86248 
L 114.519059 308.4836 
L 114.938269 316.333436 
L 115.525162 323.329519 
L 116.028214 326.7849 
L 116.447424 328.212752 
L 116.698949 328.592443 
L 116.950475 328.609755 
L 117.202001 328.410356 
L 117.537369 327.702866 
L 117.956578 326.390763 
L 118.711156 323.045295 
L 120.136468 315.175436 
L 121.645623 307.271487 
L 122.903252 301.964768 
L 123.993197 298.39198 
L 125.083142 295.7027 
L 125.921562 294.137016 
L 127.011507 292.618357 
L 128.269136 291.480385 
L 128.856029 291.082613 
L 129.191397 290.616768 
L 130.029816 290.286571 
L 130.365184 290.137558 
L 131.287445 289.531808 
L 133.467335 288.782682 
L 134.724964 288.64168 
L 136.234119 288.648938 
L 137.324064 288.698652 
L 138.078642 288.767367 
L 139.084745 288.827003 
L 139.923164 288.919863 
L 144.282944 288.941577 
L 146.546677 288.517974 
L 147.636622 288.179968 
L 148.978093 288.00088 
L 150.15188 288.081159 
L 151.661034 288.412342 
L 154.176292 289.233097 
L 155.098553 289.585197 
L 164.991901 292.880868 
L 171.196204 294.448077 
L 172.537675 294.779732 
L 174.214514 295.155593 
L 174.969091 295.355418 
L 177.568191 295.771479 
L 181.00571 296.448192 
L 186.120068 297.455944 
L 188.299958 297.938518 
L 192.156687 298.65433 
L 196.516467 298.956874 
L 197.187203 299.014853 
L 199.534777 299.274401 
L 202.050034 299.660589 
L 203.475347 299.851735 
L 208.673547 300.758282 
L 213.871747 302.083125 
L 213.955589 302.028323 
L 214.207114 300.515876 
L 214.542482 300.536956 
L 214.794008 299.297839 
L 215.129376 299.325998 
L 215.380901 298.317867 
L 215.716269 298.27064 
L 215.967795 297.381511 
L 216.387005 296.930224 
L 216.722372 295.691549 
L 217.05774 294.749166 
L 217.393108 293.484203 
L 217.644634 292.549123 
L 218.315369 289.723384 
L 219.489156 284.451179 
L 220.411417 279.967467 
L 225.525775 256.320199 
L 225.777301 254.681753 
L 226.028827 253.605224 
L 226.280352 249.908369 
L 226.61572 248.231298 
L 226.867246 243.258361 
L 228.041033 237.579434 
L 228.124875 237.638858 
L 228.376401 237.376088 
L 228.79561 236.470083 
L 229.382504 234.43235 
L 230.304765 230.1667 
L 233.406916 215.361099 
L 234.41302 211.975157 
L 235.335281 209.624686 
L 236.1737 208.052993 
L 237.012119 206.946634 
L 237.766697 206.28739 
L 238.521274 205.893036 
L 239.275852 205.724656 
L 240.533481 205.820338 
L 242.210319 206.304528 
L 243.300264 206.713251 
L 245.060945 207.533331 
L 248.666148 208.985862 
L 250.259144 209.442791 
L 251.684457 209.976747 
L 256.211922 211.547455 
L 256.798815 211.716916 
L 260.320176 212.909144 
L 265.937585 215.520627 
L 266.608321 215.826896 
L 268.285159 216.459795 
L 270.381208 217.347931 
L 272.561098 218.38035 
L 273.986411 219.025218 
L 277.84314 220.412175 
L 279.016927 220.878688 
L 288.491065 224.499021 
L 291.593216 225.614485 
L 293.605422 226.762103 
L 305.427135 233.901394 
L 313.140592 238.066976 
L 314.230537 238.182359 
L 314.482063 238.133064 
L 314.817431 238.060655 
L 315.068957 237.935106 
L 315.404324 237.751658 
L 315.739692 237.487416 
L 316.07506 237.198835 
L 316.410428 236.766469 
L 316.661953 236.438607 
L 316.997321 235.881779 
L 317.248847 235.461675 
L 319.428737 230.376072 
L 320.015631 228.677437 
L 321.105576 225.446711 
L 321.357101 224.584632 
L 321.608627 221.825042 
L 323.201624 216.457067 
L 324.459253 211.683903 
L 325.465356 208.77805 
L 326.387617 206.785103 
L 327.226037 205.418009 
L 328.064456 204.424871 
L 329.238243 203.547564 
L 330.495872 203.127389 
L 332.424236 203.123505 
L 333.514181 203.405656 
L 334.855652 203.995384 
L 336.700175 205.076934 
L 347.180416 211.577399 
L 351.120987 213.559916 
L 355.899977 215.705123 
L 362.271963 218.307613 
L 371.829943 221.949496 
L 386.166914 227.159139 
L 402.51609 232.866905 
L 418.362215 238.166231 
L 433.537604 243.009108 
L 448.293784 247.486426 
L 462.798438 251.655364 
L 477.135408 255.544582 
L 491.388536 259.180729 
L 505.641664 262.587847 
L 519.978634 265.787027 
L 534.483288 268.796249 
L 549.239468 271.63037 
L 564.331016 274.301234 
L 579.757931 276.804869 
L 595.687898 279.163132 
L 612.120916 281.369518 
L 629.140828 283.42968 
L 646.915317 285.356197 
L 665.528226 287.1489 
L 672.151738 287.735565 
L 672.151738 287.735565 
" clip-path="url(#pe9e6abc002)" style="fill: none; stroke: #ff7f0e; stroke-width: 1.5; stroke-linecap: square"/>
   </g>
   <g id="patch_3">
    <path d="M 38.482813 342.2 
L 38.482813 43.44 
" style="fill: none; stroke: #000000; stroke-width: 0.8; stroke-linejoin: miter; stroke-linecap: square"/>
   </g>
   <g id="patch_4">
    <path d="M 702.326449 342.2 
L 702.326449 43.44 
" style="fill: none; stroke: #000000; stroke-width: 0.8; stroke-linejoin: miter; stroke-linecap: square"/>
   </g>
   <g id="patch_5">
    <path d="M 38.482813 342.2 
L 702.326449 342.2 
" style="fill: none; stroke: #000000; stroke-width: 0.8; stroke-linejoin: miter; stroke-linecap: square"/>
   </g>
   <g id="patch_6">
    <path d="M 38.482813 43.44 
L 702.326449 43.44 
" style="fill: none; stroke: #000000; stroke-width: 0.8; stroke-linejoin: miter; stroke-linecap: square"/>
   </g>
   <g id="text_16">
    <!-- 1 transformation(s) -->
    <g transform="translate(312.289943 37.44) scale(0.12 -0.12)">
     <defs>
      <path id="DejaVuSans-20" transform="scale(0.015625)"/>
      <path id="DejaVuSans-74" d="M 1172 4494 
L 1172 3500 
L 2356 3500 
L 2356 3053 
L 1172 3053 
L 1172 1153 
Q 1172 725 1289 603 
Q 1406 481 1766 481 
L 2356 481 
L 2356 0 
L 1766 0 
Q 1100 0 847 248 
Q 594 497 594 1153 
L 594 3053 
L 172 3053 
L 172 3500 
L 594 3500 
L 594 4494 
L 1172 4494 
z
" transform="scale(0.015625)"/>
      <path id="DejaVuSans-72" d="M 2631 2963 
Q 2534 3019 2420 3045 
Q 2306 3072 2169 3072 
Q 1681 3072 1420 2755 
Q 1159 2438 1159 1844 
L 1159 0 
L 581 0 
L 581 3500 
L 1159 3500 
L 1159 2956 
Q 1341 3275 1631 3429 
Q 1922 3584 2338 3584 
Q 2397 3584 2469 3576 
Q 2541 3569 2628 3553 
L 2631 2963 
z
" transform="scale(0.015625)"/>
      <path id="DejaVuSans-61" d="M 2194 1759 
Q 1497 1759 1228 1600 
Q 959 1441 959 1056 
Q 959 750 1161 570 
Q 1363 391 1709 391 
Q 2188 391 2477 730 
Q 2766 1069 2766 1631 
L 2766 1759 
L 2194 1759 
z
M 3341 1997 
L 3341 0 
L 2766 0 
L 2766 531 
Q 2569 213 2275 61 
Q 1981 -91 1556 -91 
Q 1019 -91 701 211 
Q 384 513 384 1019 
Q 384 1609 779 1909 
Q 1175 2209 1959 2209 
L 2766 2209 
L 2766 2266 
Q 2766 2663 2505 2880 
Q 2244 3097 1772 3097 
Q 1472 3097 1187 3025 
Q 903 2953 641 2809 
L 641 3341 
Q 956 3463 1253 3523 
Q 1550 3584 1831 3584 
Q 2591 3584 2966 3190 
Q 3341 2797 3341 1997 
z
" transform="scale(0.015625)"/>
      <path id="DejaVuSans-6e" d="M 3513 2113 
L 3513 0 
L 2938 0 
L 2938 2094 
Q 2938 2591 2744 2837 
Q 2550 3084 2163 3084 
Q 1697 3084 1428 2787 
Q 1159 2491 1159 1978 
L 1159 0 
L 581 0 
L 581 3500 
L 1159 3500 
L 1159 2956 
Q 1366 3272 1645 3428 
Q 1925 3584 2291 3584 
Q 2894 3584 3203 3211 
Q 3513 2838 3513 2113 
z
" transform="scale(0.015625)"/>
      <path id="DejaVuSans-73" d="M 2834 3397 
L 2834 2853 
Q 2591 2978 2328 3040 
Q 2066 3103 1784 3103 
Q 1356 3103 1142 2972 
Q 928 2841 928 2578 
Q 928 2378 1081 2264 
Q 1234 2150 1697 2047 
L 1894 2003 
Q 2506 1872 2764 1633 
Q 3022 1394 3022 966 
Q 3022 478 2636 193 
Q 2250 -91 1575 -91 
Q 1294 -91 989 -36 
Q 684 19 347 128 
L 347 722 
Q 666 556 975 473 
Q 1284 391 1588 391 
Q 1994 391 2212 530 
Q 2431 669 2431 922 
Q 2431 1156 2273 1281 
Q 2116 1406 1581 1522 
L 1381 1569 
Q 847 1681 609 1914 
Q 372 2147 372 2553 
Q 372 3047 722 3315 
Q 1072 3584 1716 3584 
Q 2034 3584 2315 3537 
Q 2597 3491 2834 3397 
z
" transform="scale(0.015625)"/>
      <path id="DejaVuSans-66" d="M 2375 4863 
L 2375 4384 
L 1825 4384 
Q 1516 4384 1395 4259 
Q 1275 4134 1275 3809 
L 1275 3500 
L 2222 3500 
L 2222 3053 
L 1275 3053 
L 1275 0 
L 697 0 
L 697 3053 
L 147 3053 
L 147 3500 
L 697 3500 
L 697 3744 
Q 697 4328 969 4595 
Q 1241 4863 1831 4863 
L 2375 4863 
z
" transform="scale(0.015625)"/>
      <path id="DejaVuSans-6f" d="M 1959 3097 
Q 1497 3097 1228 2736 
Q 959 2375 959 1747 
Q 959 1119 1226 758 
Q 1494 397 1959 397 
Q 2419 397 2687 759 
Q 2956 1122 2956 1747 
Q 2956 2369 2687 2733 
Q 2419 3097 1959 3097 
z
M 1959 3584 
Q 2709 3584 3137 3096 
Q 3566 2609 3566 1747 
Q 3566 888 3137 398 
Q 2709 -91 1959 -91 
Q 1206 -91 779 398 
Q 353 888 353 1747 
Q 353 2609 779 3096 
Q 1206 3584 1959 3584 
z
" transform="scale(0.015625)"/>
      <path id="DejaVuSans-6d" d="M 3328 2828 
Q 3544 3216 3844 3400 
Q 4144 3584 4550 3584 
Q 5097 3584 5394 3201 
Q 5691 2819 5691 2113 
L 5691 0 
L 5113 0 
L 5113 2094 
Q 5113 2597 4934 2840 
Q 4756 3084 4391 3084 
Q 3944 3084 3684 2787 
Q 3425 2491 3425 1978 
L 3425 0 
L 2847 0 
L 2847 2094 
Q 2847 2600 2669 2842 
Q 2491 3084 2119 3084 
Q 1678 3084 1418 2786 
Q 1159 2488 1159 1978 
L 1159 0 
L 581 0 
L 581 3500 
L 1159 3500 
L 1159 2956 
Q 1356 3278 1631 3431 
Q 1906 3584 2284 3584 
Q 2666 3584 2933 3390 
Q 3200 3197 3328 2828 
z
" transform="scale(0.015625)"/>
      <path id="DejaVuSans-69" d="M 603 3500 
L 1178 3500 
L 1178 0 
L 603 0 
L 603 3500 
z
M 603 4863 
L 1178 4863 
L 1178 4134 
L 603 4134 
L 603 4863 
z
" transform="scale(0.015625)"/>
      <path id="DejaVuSans-28" d="M 1984 4856 
Q 1566 4138 1362 3434 
Q 1159 2731 1159 2009 
Q 1159 1288 1364 580 
Q 1569 -128 1984 -844 
L 1484 -844 
Q 1016 -109 783 600 
Q 550 1309 550 2009 
Q 550 2706 781 3412 
Q 1013 4119 1484 4856 
L 1984 4856 
z
" transform="scale(0.015625)"/>
      <path id="DejaVuSans-29" d="M 513 4856 
L 1013 4856 
Q 1481 4119 1714 3412 
Q 1947 2706 1947 2009 
Q 1947 1309 1714 600 
Q 1481 -109 1013 -844 
L 513 -844 
Q 928 -128 1133 580 
Q 1338 1288 1338 2009 
Q 1338 2731 1133 3434 
Q 928 4138 513 4856 
z
" transform="scale(0.015625)"/>
     </defs>
     <use xlink:href="#DejaVuSans-31"/>
     <use xlink:href="#DejaVuSans-20" x="63.623047"/>
     <use xlink:href="#DejaVuSans-74" x="95.410156"/>
     <use xlink:href="#DejaVuSans-72" x="134.619141"/>
     <use xlink:href="#DejaVuSans-61" x="175.732422"/>
     <use xlink:href="#DejaVuSans-6e" x="237.011719"/>
     <use xlink:href="#DejaVuSans-73" x="300.390625"/>
     <use xlink:href="#DejaVuSans-66" x="352.490234"/>
     <use xlink:href="#DejaVuSans-6f" x="387.695312"/>
     <use xlink:href="#DejaVuSans-72" x="448.876953"/>
     <use xlink:href="#DejaVuSans-6d" x="488.240234"/>
     <use xlink:href="#DejaVuSans-61" x="585.652344"/>
     <use xlink:href="#DejaVuSans-74" x="646.931641"/>
     <use xlink:href="#DejaVuSans-69" x="686.140625"/>
     <use xlink:href="#DejaVuSans-6f" x="713.923828"/>
     <use xlink:href="#DejaVuSans-6e" x="775.105469"/>
     <use xlink:href="#DejaVuSans-28" x="838.484375"/>
     <use xlink:href="#DejaVuSans-73" x="877.498047"/>
     <use xlink:href="#DejaVuSans-29" x="929.597656"/>
    </g>
   </g>
   <g id="legend_1">
    <g id="patch_7">
     <path d="M 613.932699 80.79625 
L 695.326449 80.79625 
Q 697.326449 80.79625 697.326449 78.79625 
L 697.326449 50.44 
Q 697.326449 48.44 695.326449 48.44 
L 613.932699 48.44 
Q 611.932699 48.44 611.932699 50.44 
L 611.932699 78.79625 
Q 611.932699 80.79625 613.932699 80.79625 
z
" style="fill: #ffffff; opacity: 0.8; stroke: #cccccc; stroke-linejoin: miter"/>
    </g>
    <g id="line2d_18">
     <path d="M 615.932699 56.538437 
L 625.932699 56.538437 
L 635.932699 56.538437 
" style="fill: none; stroke: #1f77b4; stroke-width: 1.5; stroke-linecap: square"/>
    </g>
    <g id="text_17">
     <!-- observed -->
     <g transform="translate(643.932699 60.038437) scale(0.1 -0.1)">
      <defs>
       <path id="DejaVuSans-62" d="M 3116 1747 
Q 3116 2381 2855 2742 
Q 2594 3103 2138 3103 
Q 1681 3103 1420 2742 
Q 1159 2381 1159 1747 
Q 1159 1113 1420 752 
Q 1681 391 2138 391 
Q 2594 391 2855 752 
Q 3116 1113 3116 1747 
z
M 1159 2969 
Q 1341 3281 1617 3432 
Q 1894 3584 2278 3584 
Q 2916 3584 3314 3078 
Q 3713 2572 3713 1747 
Q 3713 922 3314 415 
Q 2916 -91 2278 -91 
Q 1894 -91 1617 61 
Q 1341 213 1159 525 
L 1159 0 
L 581 0 
L 581 4863 
L 1159 4863 
L 1159 2969 
z
" transform="scale(0.015625)"/>
       <path id="DejaVuSans-65" d="M 3597 1894 
L 3597 1613 
L 953 1613 
Q 991 1019 1311 708 
Q 1631 397 2203 397 
Q 2534 397 2845 478 
Q 3156 559 3463 722 
L 3463 178 
Q 3153 47 2828 -22 
Q 2503 -91 2169 -91 
Q 1331 -91 842 396 
Q 353 884 353 1716 
Q 353 2575 817 3079 
Q 1281 3584 2069 3584 
Q 2775 3584 3186 3129 
Q 3597 2675 3597 1894 
z
M 3022 2063 
Q 3016 2534 2758 2815 
Q 2500 3097 2075 3097 
Q 1594 3097 1305 2825 
Q 1016 2553 972 2059 
L 3022 2063 
z
" transform="scale(0.015625)"/>
       <path id="DejaVuSans-76" d="M 191 3500 
L 800 3500 
L 1894 563 
L 2988 3500 
L 3597 3500 
L 2284 0 
L 1503 0 
L 191 3500 
z
" transform="scale(0.015625)"/>
       <path id="DejaVuSans-64" d="M 2906 2969 
L 2906 4863 
L 3481 4863 
L 3481 0 
L 2906 0 
L 2906 525 
Q 2725 213 2448 61 
Q 2172 -91 1784 -91 
Q 1150 -91 751 415 
Q 353 922 353 1747 
Q 353 2572 751 3078 
Q 1150 3584 1784 3584 
Q 2172 3584 2448 3432 
Q 2725 3281 2906 2969 
z
M 947 1747 
Q 947 1113 1208 752 
Q 1469 391 1925 391 
Q 2381 391 2643 752 
Q 2906 1113 2906 1747 
Q 2906 2381 2643 2742 
Q 2381 3103 1925 3103 
Q 1469 3103 1208 2742 
Q 947 2381 947 1747 
z
" transform="scale(0.015625)"/>
      </defs>
      <use xlink:href="#DejaVuSans-6f"/>
      <use xlink:href="#DejaVuSans-62" x="61.181641"/>
      <use xlink:href="#DejaVuSans-73" x="124.658203"/>
      <use xlink:href="#DejaVuSans-65" x="176.757812"/>
      <use xlink:href="#DejaVuSans-72" x="238.28125"/>
      <use xlink:href="#DejaVuSans-76" x="279.394531"/>
      <use xlink:href="#DejaVuSans-65" x="338.574219"/>
      <use xlink:href="#DejaVuSans-64" x="400.097656"/>
     </g>
    </g>
    <g id="line2d_19">
     <path d="M 615.932699 71.216563 
L 625.932699 71.216563 
L 635.932699 71.216563 
" style="fill: none; stroke: #ff7f0e; stroke-width: 1.5; stroke-linecap: square"/>
    </g>
    <g id="text_18">
     <!-- simulated -->
     <g transform="translate(643.932699 74.716563) scale(0.1 -0.1)">
      <defs>
       <path id="DejaVuSans-75" d="M 544 1381 
L 544 3500 
L 1119 3500 
L 1119 1403 
Q 1119 906 1312 657 
Q 1506 409 1894 409 
Q 2359 409 2629 706 
Q 2900 1003 2900 1516 
L 2900 3500 
L 3475 3500 
L 3475 0 
L 2900 0 
L 2900 538 
Q 2691 219 2414 64 
Q 2138 -91 1772 -91 
Q 1169 -91 856 284 
Q 544 659 544 1381 
z
M 1991 3584 
L 1991 3584 
z
" transform="scale(0.015625)"/>
       <path id="DejaVuSans-6c" d="M 603 4863 
L 1178 4863 
L 1178 0 
L 603 0 
L 603 4863 
z
" transform="scale(0.015625)"/>
      </defs>
      <use xlink:href="#DejaVuSans-73"/>
      <use xlink:href="#DejaVuSans-69" x="52.099609"/>
      <use xlink:href="#DejaVuSans-6d" x="79.882812"/>
      <use xlink:href="#DejaVuSans-75" x="177.294922"/>
      <use xlink:href="#DejaVuSans-6c" x="240.673828"/>
      <use xlink:href="#DejaVuSans-61" x="268.457031"/>
      <use xlink:href="#DejaVuSans-74" x="329.736328"/>
      <use xlink:href="#DejaVuSans-65" x="368.945312"/>
      <use xlink:href="#DejaVuSans-64" x="430.46875"/>
     </g>
    </g>
   </g>
  </g>
  <g id="axes_2">
   <g id="patch_8">
    <path d="M 38.482813 684.92 
L 702.326449 684.92 
L 702.326449 386.16 
L 38.482813 386.16 
z
" style="fill: #ffffff"/>
   </g>
   <g id="matplotlib.axis_3">
    <g id="xtick_7">
     <g id="line2d_20">
      <g>
       <use xlink:href="#mf53b363b85" x="68.489839" y="684.92" style="stroke: #000000; stroke-width: 0.8"/>
      </g>
     </g>
     <g id="text_19">
      <!-- 2014-07-01 -->
      <g transform="translate(39.432027 699.518437) scale(0.1 -0.1)">
       <use xlink:href="#DejaVuSans-32"/>
       <use xlink:href="#DejaVuSans-30" x="63.623047"/>
       <use xlink:href="#DejaVuSans-31" x="127.246094"/>
       <use xlink:href="#DejaVuSans-34" x="190.869141"/>
       <use xlink:href="#DejaVuSans-2d" x="254.492188"/>
       <use xlink:href="#DejaVuSans-30" x="290.576172"/>
       <use xlink:href="#DejaVuSans-37" x="354.199219"/>
       <use xlink:href="#DejaVuSans-2d" x="417.822266"/>
       <use xlink:href="#DejaVuSans-30" x="453.90625"/>
       <use xlink:href="#DejaVuSans-31" x="517.529297"/>
      </g>
     </g>
    </g>
    <g id="xtick_8">
     <g id="line2d_21">
      <g>
       <use xlink:href="#mf53b363b85" x="189.222219" y="684.92" style="stroke: #000000; stroke-width: 0.8"/>
      </g>
     </g>
     <g id="text_20">
      <!-- 2014-07-02 -->
      <g transform="translate(160.164407 699.518437) scale(0.1 -0.1)">
       <use xlink:href="#DejaVuSans-32"/>
       <use xlink:href="#DejaVuSans-30" x="63.623047"/>
       <use xlink:href="#DejaVuSans-31" x="127.246094"/>
       <use xlink:href="#DejaVuSans-34" x="190.869141"/>
       <use xlink:href="#DejaVuSans-2d" x="254.492188"/>
       <use xlink:href="#DejaVuSans-30" x="290.576172"/>
       <use xlink:href="#DejaVuSans-37" x="354.199219"/>
       <use xlink:href="#DejaVuSans-2d" x="417.822266"/>
       <use xlink:href="#DejaVuSans-30" x="453.90625"/>
       <use xlink:href="#DejaVuSans-32" x="517.529297"/>
      </g>
     </g>
    </g>
    <g id="xtick_9">
     <g id="line2d_22">
      <g>
       <use xlink:href="#mf53b363b85" x="309.954599" y="684.92" style="stroke: #000000; stroke-width: 0.8"/>
      </g>
     </g>
     <g id="text_21">
      <!-- 2014-07-03 -->
      <g transform="translate(280.896786 699.518437) scale(0.1 -0.1)">
       <use xlink:href="#DejaVuSans-32"/>
       <use xlink:href="#DejaVuSans-30" x="63.623047"/>
       <use xlink:href="#DejaVuSans-31" x="127.246094"/>
       <use xlink:href="#DejaVuSans-34" x="190.869141"/>
       <use xlink:href="#DejaVuSans-2d" x="254.492188"/>
       <use xlink:href="#DejaVuSans-30" x="290.576172"/>
       <use xlink:href="#DejaVuSans-37" x="354.199219"/>
       <use xlink:href="#DejaVuSans-2d" x="417.822266"/>
       <use xlink:href="#DejaVuSans-30" x="453.90625"/>
       <use xlink:href="#DejaVuSans-33" x="517.529297"/>
      </g>
     </g>
    </g>
    <g id="xtick_10">
     <g id="line2d_23">
      <g>
       <use xlink:href="#mf53b363b85" x="430.686979" y="684.92" style="stroke: #000000; stroke-width: 0.8"/>
      </g>
     </g>
     <g id="text_22">
      <!-- 2014-07-04 -->
      <g transform="translate(401.629166 699.518437) scale(0.1 -0.1)">
       <use xlink:href="#DejaVuSans-32"/>
       <use xlink:href="#DejaVuSans-30" x="63.623047"/>
       <use xlink:href="#DejaVuSans-31" x="127.246094"/>
       <use xlink:href="#DejaVuSans-34" x="190.869141"/>
       <use xlink:href="#DejaVuSans-2d" x="254.492188"/>
       <use xlink:href="#DejaVuSans-30" x="290.576172"/>
       <use xlink:href="#DejaVuSans-37" x="354.199219"/>
       <use xlink:href="#DejaVuSans-2d" x="417.822266"/>
       <use xlink:href="#DejaVuSans-30" x="453.90625"/>
       <use xlink:href="#DejaVuSans-34" x="517.529297"/>
      </g>
     </g>
    </g>
    <g id="xtick_11">
     <g id="line2d_24">
      <g>
       <use xlink:href="#mf53b363b85" x="551.419358" y="684.92" style="stroke: #000000; stroke-width: 0.8"/>
      </g>
     </g>
     <g id="text_23">
      <!-- 2014-07-05 -->
      <g transform="translate(522.361546 699.518437) scale(0.1 -0.1)">
       <use xlink:href="#DejaVuSans-32"/>
       <use xlink:href="#DejaVuSans-30" x="63.623047"/>
       <use xlink:href="#DejaVuSans-31" x="127.246094"/>
       <use xlink:href="#DejaVuSans-34" x="190.869141"/>
       <use xlink:href="#DejaVuSans-2d" x="254.492188"/>
       <use xlink:href="#DejaVuSans-30" x="290.576172"/>
       <use xlink:href="#DejaVuSans-37" x="354.199219"/>
       <use xlink:href="#DejaVuSans-2d" x="417.822266"/>
       <use xlink:href="#DejaVuSans-30" x="453.90625"/>
       <use xlink:href="#DejaVuSans-35" x="517.529297"/>
      </g>
     </g>
    </g>
    <g id="xtick_12">
     <g id="line2d_25">
      <g>
       <use xlink:href="#mf53b363b85" x="672.151738" y="684.92" style="stroke: #000000; stroke-width: 0.8"/>
      </g>
     </g>
     <g id="text_24">
      <!-- 2014-07-06 -->
      <g transform="translate(643.093926 699.518437) scale(0.1 -0.1)">
       <use xlink:href="#DejaVuSans-32"/>
       <use xlink:href="#DejaVuSans-30" x="63.623047"/>
       <use xlink:href="#DejaVuSans-31" x="127.246094"/>
       <use xlink:href="#DejaVuSans-34" x="190.869141"/>
       <use xlink:href="#DejaVuSans-2d" x="254.492188"/>
       <use xlink:href="#DejaVuSans-30" x="290.576172"/>
       <use xlink:href="#DejaVuSans-37" x="354.199219"/>
       <use xlink:href="#DejaVuSans-2d" x="417.822266"/>
       <use xlink:href="#DejaVuSans-30" x="453.90625"/>
       <use xlink:href="#DejaVuSans-36" x="517.529297"/>
      </g>
     </g>
    </g>
   </g>
   <g id="matplotlib.axis_4">
    <g id="ytick_10">
     <g id="line2d_26">
      <g>
       <use xlink:href="#mb6c35ec2bf" x="38.482813" y="671.339574" style="stroke: #000000; stroke-width: 0.8"/>
      </g>
     </g>
     <g id="text_25">
      <!-- 0.0 -->
      <g transform="translate(15.579688 675.138793) scale(0.1 -0.1)">
       <use xlink:href="#DejaVuSans-30"/>
       <use xlink:href="#DejaVuSans-2e" x="63.623047"/>
       <use xlink:href="#DejaVuSans-30" x="95.410156"/>
      </g>
     </g>
    </g>
    <g id="ytick_11">
     <g id="line2d_27">
      <g>
       <use xlink:href="#mb6c35ec2bf" x="38.482813" y="633.97915" style="stroke: #000000; stroke-width: 0.8"/>
      </g>
     </g>
     <g id="text_26">
      <!-- 0.5 -->
      <g transform="translate(15.579688 637.778369) scale(0.1 -0.1)">
       <use xlink:href="#DejaVuSans-30"/>
       <use xlink:href="#DejaVuSans-2e" x="63.623047"/>
       <use xlink:href="#DejaVuSans-35" x="95.410156"/>
      </g>
     </g>
    </g>
    <g id="ytick_12">
     <g id="line2d_28">
      <g>
       <use xlink:href="#mb6c35ec2bf" x="38.482813" y="596.618726" style="stroke: #000000; stroke-width: 0.8"/>
      </g>
     </g>
     <g id="text_27">
      <!-- 1.0 -->
      <g transform="translate(15.579688 600.417945) scale(0.1 -0.1)">
       <use xlink:href="#DejaVuSans-31"/>
       <use xlink:href="#DejaVuSans-2e" x="63.623047"/>
       <use xlink:href="#DejaVuSans-30" x="95.410156"/>
      </g>
     </g>
    </g>
    <g id="ytick_13">
     <g id="line2d_29">
      <g>
       <use xlink:href="#mb6c35ec2bf" x="38.482813" y="559.258303" style="stroke: #000000; stroke-width: 0.8"/>
      </g>
     </g>
     <g id="text_28">
      <!-- 1.5 -->
      <g transform="translate(15.579688 563.057521) scale(0.1 -0.1)">
       <use xlink:href="#DejaVuSans-31"/>
       <use xlink:href="#DejaVuSans-2e" x="63.623047"/>
       <use xlink:href="#DejaVuSans-35" x="95.410156"/>
      </g>
     </g>
    </g>
    <g id="ytick_14">
     <g id="line2d_30">
      <g>
       <use xlink:href="#mb6c35ec2bf" x="38.482813" y="521.897879" style="stroke: #000000; stroke-width: 0.8"/>
      </g>
     </g>
     <g id="text_29">
      <!-- 2.0 -->
      <g transform="translate(15.579688 525.697097) scale(0.1 -0.1)">
       <use xlink:href="#DejaVuSans-32"/>
       <use xlink:href="#DejaVuSans-2e" x="63.623047"/>
       <use xlink:href="#DejaVuSans-30" x="95.410156"/>
      </g>
     </g>
    </g>
    <g id="ytick_15">
     <g id="line2d_31">
      <g>
       <use xlink:href="#mb6c35ec2bf" x="38.482813" y="484.537455" style="stroke: #000000; stroke-width: 0.8"/>
      </g>
     </g>
     <g id="text_30">
      <!-- 2.5 -->
      <g transform="translate(15.579688 488.336674) scale(0.1 -0.1)">
       <use xlink:href="#DejaVuSans-32"/>
       <use xlink:href="#DejaVuSans-2e" x="63.623047"/>
       <use xlink:href="#DejaVuSans-35" x="95.410156"/>
      </g>
     </g>
    </g>
    <g id="ytick_16">
     <g id="line2d_32">
      <g>
       <use xlink:href="#mb6c35ec2bf" x="38.482813" y="447.177031" style="stroke: #000000; stroke-width: 0.8"/>
      </g>
     </g>
     <g id="text_31">
      <!-- 3.0 -->
      <g transform="translate(15.579688 450.97625) scale(0.1 -0.1)">
       <use xlink:href="#DejaVuSans-33"/>
       <use xlink:href="#DejaVuSans-2e" x="63.623047"/>
       <use xlink:href="#DejaVuSans-30" x="95.410156"/>
      </g>
     </g>
    </g>
    <g id="ytick_17">
     <g id="line2d_33">
      <g>
       <use xlink:href="#mb6c35ec2bf" x="38.482813" y="409.816607" style="stroke: #000000; stroke-width: 0.8"/>
      </g>
     </g>
     <g id="text_32">
      <!-- 3.5 -->
      <g transform="translate(15.579688 413.615826) scale(0.1 -0.1)">
       <use xlink:href="#DejaVuSans-33"/>
       <use xlink:href="#DejaVuSans-2e" x="63.623047"/>
       <use xlink:href="#DejaVuSans-35" x="95.410156"/>
      </g>
     </g>
    </g>
   </g>
   <g id="line2d_34">
    <path d="M 68.657523 671.339574 
L 86.851222 671.242185 
L 87.018906 671.106371 
L 87.18659 670.736756 
L 87.521958 668.997884 
L 87.857325 667.074901 
L 88.276535 661.844859 
L 88.695745 651.204371 
L 89.282638 631.205727 
L 90.204899 600.883906 
L 90.456425 597.538507 
L 90.624109 596.939638 
L 90.875635 593.737399 
L 91.211003 590.941832 
L 91.630212 587.298742 
L 91.797896 586.841293 
L 92.217106 583.489966 
L 92.300948 583.47762 
L 92.38479 583.317643 
L 92.803999 580.903144 
L 93.055525 580.988486 
L 93.474735 579.445008 
L 93.642418 579.501963 
L 93.977786 578.238214 
L 94.061628 578.145639 
L 94.229312 578.270521 
L 94.56468 576.883992 
L 94.648522 576.914936 
L 94.816206 577.245998 
L 95.151573 575.903855 
L 95.235415 575.928707 
L 95.403099 576.385613 
L 95.654625 575.89493 
L 95.738467 576.002932 
L 95.822309 576.106276 
L 96.32536 577.72039 
L 96.409202 577.77631 
L 96.576886 578.41124 
L 96.996096 580.085007 
L 97.16378 580.650218 
L 97.247622 579.886487 
L 97.666831 569.275399 
L 97.750673 568.781661 
L 97.834515 568.819624 
L 97.918357 568.805845 
L 98.002199 568.993283 
L 99.175986 579.383521 
L 100.349773 591.030559 
L 100.768983 594.564863 
L 100.852825 593.506064 
L 101.355876 568.748926 
L 101.94277 527.722966 
L 102.026612 524.365742 
L 102.445821 489.186967 
L 102.613505 480.554591 
L 103.032715 454.054699 
L 103.200399 449.772867 
L 103.619608 434.04664 
L 103.70345 434.453869 
L 104.12266 425.464342 
L 104.206502 426.503392 
L 104.290344 427.719041 
L 104.374186 427.410221 
L 104.458028 427.639694 
L 104.541869 426.971976 
L 104.709553 424.881636 
L 105.128763 435.299148 
L 105.212605 434.724316 
L 105.296447 433.851354 
L 105.380289 434.421001 
L 105.799498 441.310747 
L 105.88334 440.77746 
L 105.967182 441.399928 
L 106.386392 448.105148 
L 106.470234 447.95994 
L 106.554076 448.495685 
L 106.973285 455.449209 
L 107.057127 455.661953 
L 107.140969 456.230674 
L 107.644021 463.327055 
L 107.811705 466.149584 
L 108.147072 475.605398 
L 108.314756 475.118589 
L 108.398598 475.853451 
L 108.817808 484.065237 
L 108.90165 483.800508 
L 108.985492 484.212958 
L 109.404701 491.317212 
L 109.488543 491.212621 
L 109.572385 491.632998 
L 110.075437 497.978875 
L 110.159279 498.45022 
L 110.66233 504.4385 
L 110.830014 505.903646 
L 111.165382 510.913908 
L 111.416908 509.309914 
L 111.584592 510.913855 
L 111.668434 512.066493 
L 111.752275 511.979628 
L 112.087643 507.536197 
L 112.255327 508.507908 
L 112.339169 507.267817 
L 112.674537 497.406342 
L 112.758379 497.628992 
L 112.842221 496.861974 
L 113.512956 457.276192 
L 113.764482 431.946662 
L 113.932166 426.69043 
L 114.435217 436.448989 
L 114.686743 443.987551 
L 115.44132 467.788264 
L 116.028214 481.19662 
L 116.866633 491.172965 
L 117.285843 493.448437 
L 117.705053 494.475997 
L 117.956578 494.758398 
L 118.543472 494.767875 
L 119.046523 494.130585 
L 119.549575 492.966385 
L 120.22031 490.804109 
L 121.645623 484.140095 
L 122.735568 477.980561 
L 124.747775 464.936643 
L 125.921562 456.976403 
L 129.359081 434.506281 
L 129.694449 431.746424 
L 129.945974 430.101295 
L 130.281342 428.076656 
L 131.035919 424.599004 
L 132.125865 419.975109 
L 134.892648 409.289947 
L 136.150277 405.620001 
L 137.57559 402.620927 
L 138.078642 401.785696 
L 138.330167 401.480991 
L 138.665535 401.025839 
L 138.917061 400.839158 
L 139.252429 400.447997 
L 139.503954 400.338792 
L 139.839322 400.048927 
L 140.090848 400.009645 
L 140.426216 399.828878 
L 140.677741 399.86433 
L 140.929267 399.740677 
L 142.35458 400.417819 
L 142.522264 400.550361 
L 142.77379 400.565914 
L 143.192999 400.982229 
L 143.360683 401.056053 
L 143.779893 401.549471 
L 143.947577 401.651354 
L 145.037522 403.232563 
L 145.205206 403.341715 
L 145.624415 404.033162 
L 145.792099 404.154642 
L 146.71436 406.447536 
L 152.415612 422.636753 
L 154.763186 428.564961 
L 155.350079 429.637824 
L 155.601605 430.10003 
L 155.853131 430.440774 
L 156.020815 430.569611 
L 156.943076 432.501167 
L 158.87144 437.40235 
L 159.70986 439.289636 
L 161.135172 442.932378 
L 162.308959 445.232666 
L 164.237324 450.033783 
L 164.572692 450.663626 
L 165.411111 452.834436 
L 166.165688 454.345597 
L 166.417214 454.705403 
L 166.752582 455.355467 
L 167.004108 455.791307 
L 167.758685 457.43314 
L 168.597104 459.349447 
L 169.435524 461.64015 
L 170.273943 463.859113 
L 170.609311 464.438202 
L 171.02852 465.278278 
L 172.453833 467.938301 
L 173.962988 471.618419 
L 174.130672 471.788016 
L 174.717565 472.696163 
L 174.969091 473.199949 
L 175.220617 473.549084 
L 175.388301 473.678349 
L 175.80751 474.330746 
L 175.975194 474.414583 
L 176.394404 475.364185 
L 177.316665 477.583183 
L 178.071242 479.504496 
L 178.82582 480.894017 
L 178.993504 481.075747 
L 181.760287 486.712949 
L 182.011813 486.759731 
L 183.60481 489.555859 
L 183.856336 489.540022 
L 184.275545 490.262217 
L 184.443229 490.249355 
L 185.197806 491.821443 
L 185.533174 492.534304 
L 185.7847 493.102241 
L 186.623119 495.137551 
L 187.880748 497.83559 
L 188.048432 497.919569 
L 188.467642 498.603998 
L 188.635326 498.569223 
L 189.138377 499.059986 
L 189.306061 499.119524 
L 189.809113 499.939541 
L 189.976797 500.156418 
L 190.396006 500.980408 
L 190.56369 501.173503 
L 190.899058 501.777034 
L 191.066742 501.755603 
L 191.485951 502.320725 
L 191.569793 502.23117 
L 191.737477 502.236319 
L 192.156687 502.840687 
L 192.324371 502.916418 
L 192.575896 503.445109 
L 192.74358 503.71707 
L 192.995106 503.745681 
L 193.498158 504.684808 
L 193.665841 504.920854 
L 194.001209 505.669808 
L 194.168893 505.818117 
L 194.504261 506.405151 
L 194.671945 506.319551 
L 194.839628 506.547385 
L 195.174996 507.228963 
L 195.426522 507.444985 
L 195.845732 508.385965 
L 196.013415 508.543341 
L 196.432625 509.373459 
L 196.600309 509.533312 
L 197.187203 510.44504 
L 197.438728 510.958784 
L 197.774096 511.558342 
L 198.528673 512.696835 
L 198.864041 513.23194 
L 199.115567 513.546176 
L 199.70246 514.620072 
L 199.953986 514.963435 
L 200.12167 514.945442 
L 200.54088 515.334393 
L 200.792406 514.9903 
L 200.960089 515.163531 
L 201.211615 515.524228 
L 201.546983 515.674835 
L 201.966193 516.458492 
L 202.133876 516.660601 
L 202.553086 517.361116 
L 202.804612 517.764658 
L 203.223822 518.35408 
L 203.559189 518.700828 
L 203.810715 518.589093 
L 204.313767 518.943181 
L 204.48145 518.962813 
L 205.739079 521.476967 
L 208.505863 527.047935 
L 210.434228 530.07888 
L 213.117169 533.763942 
L 214.290956 535.11998 
L 214.374798 534.779779 
L 215.045534 525.497393 
L 215.297059 520.086573 
L 215.548585 518.438736 
L 215.883953 512.790025 
L 216.051637 512.959016 
L 216.219321 510.901242 
L 216.470847 508.48849 
L 216.722372 510.29739 
L 216.806214 509.865701 
L 217.05774 507.022239 
L 217.141582 507.183784 
L 217.309266 508.461821 
L 217.393108 508.291351 
L 217.644634 506.129466 
L 217.728475 506.276154 
L 217.896159 507.543412 
L 217.980001 507.505146 
L 218.231527 505.76599 
L 218.315369 506.005742 
L 218.566895 507.545212 
L 218.818421 506.085838 
L 218.902262 506.360596 
L 219.153788 508.225382 
L 219.405314 507.222727 
L 219.489156 507.470051 
L 219.824524 510.429274 
L 220.07605 509.840262 
L 220.159891 510.18888 
L 220.411417 512.249416 
L 220.495259 512.235182 
L 220.662943 512.033999 
L 220.830627 512.802139 
L 221.082153 513.904147 
L 221.249837 513.877959 
L 221.41752 514.468824 
L 221.669046 515.542328 
L 221.83673 515.509335 
L 222.004414 516.075045 
L 222.25594 517.07093 
L 222.423624 517.029618 
L 222.507465 517.156531 
L 222.926675 518.814558 
L 223.094359 518.74337 
L 223.262043 519.284353 
L 223.513569 520.197826 
L 223.765094 520.214056 
L 224.268146 521.319609 
L 224.43583 521.589896 
L 224.603514 521.88833 
L 224.938881 520.646404 
L 225.022723 520.713709 
L 225.106565 520.828294 
L 225.190407 520.599498 
L 225.525775 517.368189 
L 225.609617 517.376989 
L 225.777301 517.805116 
L 225.944985 515.089065 
L 226.19651 511.393021 
L 226.280352 511.445966 
L 226.364194 511.100074 
L 226.951088 495.378318 
L 227.370297 453.081029 
L 227.537981 457.141173 
L 227.789507 461.135794 
L 227.957191 463.305624 
L 228.208717 470.214752 
L 228.879452 488.483459 
L 229.382504 499.261187 
L 230.053239 508.515693 
L 230.723975 514.111601 
L 231.646236 518.766137 
L 233.071549 523.602955 
L 233.909968 525.591696 
L 235.083755 527.780516 
L 236.844436 530.427026 
L 239.275852 533.532937 
L 240.617322 534.826588 
L 241.120374 535.151753 
L 241.3719 535.09235 
L 241.791109 535.270258 
L 242.042635 535.195319 
L 243.384106 536.021866 
L 243.803316 536.187018 
L 244.054842 536.3931 
L 244.474051 536.396592 
L 244.641735 536.470657 
L 245.060945 536.212413 
L 245.396312 536.308132 
L 245.647838 536.230709 
L 245.983206 536.353302 
L 246.486258 536.314697 
L 246.737783 536.124871 
L 247.073151 536.248461 
L 247.408519 535.701733 
L 247.660045 535.832494 
L 248.079254 535.409267 
L 248.33078 535.553558 
L 248.582306 535.456912 
L 248.833832 535.786897 
L 249.839935 537.236 
L 250.342986 537.973686 
L 250.762196 538.476243 
L 251.013722 538.526641 
L 251.265248 538.701876 
L 251.684457 538.437121 
L 251.935983 538.567615 
L 252.271351 538.489515 
L 253.193612 539.611155 
L 253.445138 539.755188 
L 253.780506 540.097598 
L 254.115873 540.139659 
L 254.702767 540.878511 
L 254.870451 540.950198 
L 255.121976 540.847326 
L 255.457344 540.983957 
L 255.876554 540.586196 
L 256.379605 541.036769 
L 256.882657 541.394892 
L 257.301867 541.571268 
L 257.637234 541.188106 
L 257.88876 541.417098 
L 258.140286 541.485926 
L 258.30797 541.590579 
L 259.900966 544.141575 
L 260.06865 544.277146 
L 260.571702 544.953228 
L 260.823228 545.134307 
L 261.410121 545.970767 
L 261.913173 546.150492 
L 262.164699 546.285128 
L 262.500066 545.924252 
L 262.751592 546.009336 
L 263.08696 545.840986 
L 263.422328 545.944837 
L 263.590011 545.958938 
L 264.009221 546.185881 
L 264.176905 546.223568 
L 264.596115 546.521352 
L 264.84764 546.695225 
L 265.099166 546.926907 
L 266.692163 546.550186 
L 266.943689 546.708782 
L 267.195214 546.678158 
L 267.530582 546.960898 
L 267.782108 547.030224 
L 268.536685 547.942077 
L 268.788211 548.177455 
L 269.039737 548.227364 
L 270.800417 549.988886 
L 271.219627 550.434978 
L 271.471153 550.372947 
L 271.806521 550.47565 
L 272.22573 550.30363 
L 272.980308 550.455082 
L 273.231833 550.249811 
L 273.986411 550.496101 
L 274.237937 550.692136 
L 274.489462 550.704891 
L 274.82483 550.904738 
L 275.076356 550.82833 
L 275.327882 550.883788 
L 276.166301 549.748982 
L 276.417827 549.536834 
L 277.00472 549.799229 
L 278.933085 553.106777 
L 279.687662 553.545743 
L 280.358397 553.507521 
L 280.609923 553.31081 
L 280.777607 553.294126 
L 281.699868 552.003379 
L 281.867552 551.980211 
L 282.538288 552.635298 
L 283.376707 553.725976 
L 283.628233 553.972489 
L 284.298968 554.747888 
L 284.466652 554.814195 
L 284.718178 554.7319 
L 284.969704 554.809127 
L 285.556597 554.190703 
L 286.143491 554.354243 
L 286.395016 554.488291 
L 286.5627 554.52898 
L 286.814226 554.784355 
L 287.317278 554.577525 
L 287.652645 554.577008 
L 287.904171 554.634007 
L 288.071855 554.626712 
L 288.407223 554.32516 
L 288.658749 554.389641 
L 288.994116 554.270869 
L 289.329484 554.645515 
L 289.748694 555.232274 
L 291.7609 559.049655 
L 292.850845 560.723306 
L 294.779209 562.936069 
L 296.036838 564.104197 
L 297.545993 565.327292 
L 297.797519 565.398365 
L 299.055148 565.319775 
L 299.642041 565.46199 
L 300.312777 565.829867 
L 301.235038 566.50855 
L 303.079561 567.994022 
L 304.001822 568.420919 
L 305.343293 569.001754 
L 308.27776 570.587123 
L 308.780812 570.537981 
L 309.367705 570.175814 
L 310.038441 569.36792 
L 310.709176 568.325476 
L 311.631437 566.549239 
L 312.469857 564.294878 
L 313.47596 561.747142 
L 313.811328 559.732453 
L 313.979012 559.28205 
L 314.482063 556.07953 
L 314.649747 555.140554 
L 314.985115 553.105253 
L 315.152799 552.748289 
L 315.572008 550.553545 
L 315.65585 550.568661 
L 315.739692 550.398494 
L 316.158902 548.610579 
L 316.410428 548.959642 
L 316.745795 547.481278 
L 316.997321 547.822031 
L 317.332689 546.409635 
L 317.584215 546.590759 
L 317.919582 545.323126 
L 318.171108 545.583499 
L 318.506476 544.365552 
L 318.590318 544.49617 
L 318.758002 544.731326 
L 319.093369 543.559083 
L 319.261053 544.063163 
L 319.428737 544.428964 
L 319.764105 543.402437 
L 320.015631 544.066281 
L 320.350998 543.42223 
L 320.686366 544.06441 
L 320.85405 543.924742 
L 320.937892 544.002984 
L 321.357101 544.968308 
L 321.524785 545.224922 
L 321.692469 545.588452 
L 321.776311 544.579357 
L 322.111679 536.796971 
L 322.195521 536.520102 
L 322.530888 537.422112 
L 322.698572 537.17168 
L 322.866256 537.927563 
L 323.45315 542.247875 
L 323.872359 545.18385 
L 324.626937 549.829274 
L 325.465356 553.81171 
L 326.219933 556.345024 
L 327.226037 558.619329 
L 328.064456 559.850931 
L 329.238243 561.04824 
L 330.998923 562.04587 
L 331.585817 562.303526 
L 332.340394 562.745967 
L 333.01113 563.282113 
L 338.041646 567.609249 
L 340.808429 569.421588 
L 344.078265 571.390822 
L 351.372512 575.303344 
L 356.570712 577.867211 
L 365.625641 582.041432 
L 371.159208 584.36675 
L 379.711085 587.717257 
L 387.508384 590.579372 
L 395.473368 593.229168 
L 403.689877 595.694671 
L 409.391128 597.1509 
L 417.523796 599.035741 
L 424.566518 600.547976 
L 440.496484 603.598691 
L 463.217648 607.279932 
L 473.027153 608.650053 
L 484.010446 610.082001 
L 506.228558 612.864278 
L 529.536615 615.388302 
L 555.946823 617.838515 
L 581.434769 619.858553 
L 623.355735 622.667147 
L 639.621069 623.538791 
L 672.151738 624.949406 
L 672.151738 624.949406 
" clip-path="url(#ped4f65aeda)" style="fill: none; stroke: #1f77b4; stroke-width: 1.5; stroke-linecap: square"/>
   </g>
   <g id="line2d_35">
    <path d="M 68.657523 671.339574 
L 69.747468 671.253325 
L 72.514252 670.315796 
L 76.287139 668.653508 
L 77.041716 668.536894 
L 79.305448 668.51787 
L 81.485339 668.438214 
L 82.156074 668.190434 
L 83.329861 667.304007 
L 85.174384 664.852575 
L 88.192693 658.042077 
L 88.94727 655.086602 
L 89.198796 653.630971 
L 89.36648 653.07487 
L 89.869532 650.184579 
L 90.037215 649.868609 
L 90.540267 647.594194 
L 90.707951 646.877047 
L 91.043319 645.147623 
L 91.211003 644.877057 
L 91.630212 642.874137 
L 91.714054 642.85581 
L 91.797896 642.702099 
L 92.217106 640.923356 
L 92.300948 640.950176 
L 92.38479 640.839393 
L 92.803999 639.248372 
L 93.055525 639.490444 
L 93.390893 638.327724 
L 93.474735 638.364878 
L 93.642418 638.435314 
L 94.061628 637.084189 
L 94.229312 637.138655 
L 94.648522 635.830024 
L 94.816206 635.91721 
L 95.235415 634.734448 
L 95.403099 634.897523 
L 95.822309 634.319918 
L 96.157676 635.033168 
L 96.409202 635.075586 
L 96.828412 635.93301 
L 96.996096 635.233127 
L 97.16378 635.646014 
L 97.247622 635.146939 
L 97.834515 623.554981 
L 98.086041 622.673707 
L 98.169883 622.620882 
L 98.253725 622.790946 
L 98.672934 625.385313 
L 99.762879 632.05846 
L 100.349773 634.232203 
L 100.433615 634.461302 
L 100.601299 633.903031 
L 100.768983 634.201489 
L 100.852825 632.859848 
L 101.439718 595.921745 
L 101.858928 556.199666 
L 102.194295 541.91118 
L 102.529663 521.462381 
L 102.697347 517.588444 
L 103.116557 496.929705 
L 103.200399 496.661736 
L 103.28424 495.368088 
L 103.70345 482.782275 
L 103.787292 483.49517 
L 103.871134 483.354327 
L 104.206502 476.768048 
L 104.290344 477.257599 
L 104.458028 479.326084 
L 104.793395 477.16477 
L 104.877237 477.865135 
L 105.212605 484.081075 
L 105.380289 484.362644 
L 105.464131 485.075243 
L 105.799498 491.018918 
L 106.051024 492.353449 
L 106.470234 498.829899 
L 106.637918 500.206033 
L 107.140969 507.792623 
L 107.308653 510.262894 
L 107.644021 515.607007 
L 107.979389 520.627245 
L 108.314756 526.169475 
L 108.566282 529.506793 
L 108.90165 534.115817 
L 109.153176 536.723341 
L 109.488543 540.692327 
L 109.740069 542.998387 
L 110.075437 546.503263 
L 110.326963 548.53718 
L 110.66233 551.590788 
L 111.333066 555.963773 
L 111.50075 555.857677 
L 111.752275 557.010937 
L 112.003801 555.306763 
L 112.087643 554.713448 
L 112.171485 554.733985 
L 112.255327 554.984232 
L 112.339169 554.724657 
L 113.009904 544.917108 
L 113.345272 534.329804 
L 113.429114 533.640411 
L 113.512956 530.842307 
L 114.016008 498.194623 
L 114.183691 497.186998 
L 114.267533 497.227479 
L 114.435217 498.090162 
L 114.602901 500.94492 
L 115.86053 527.972998 
L 116.447424 536.502372 
L 117.034317 542.557612 
L 117.537369 546.305657 
L 118.291946 550.527222 
L 118.87884 552.847901 
L 119.465733 554.392907 
L 120.136468 555.549742 
L 120.807204 556.320986 
L 121.813307 557.06842 
L 122.651726 557.540691 
L 125.921562 558.842795 
L 128.185294 559.50503 
L 128.939871 559.532652 
L 129.107555 559.465992 
L 129.191397 559.491563 
L 129.275239 559.350357 
L 129.945974 556.444446 
L 130.281342 556.136339 
L 130.952078 556.355686 
L 131.706655 556.698701 
L 132.712758 557.047058 
L 133.048126 557.129302 
L 133.802703 557.192671 
L 134.305755 557.224307 
L 135.144174 557.244694 
L 135.479542 557.267914 
L 135.814909 557.266607 
L 136.150277 557.185883 
L 136.904855 557.056863 
L 137.15638 557.033898 
L 137.9948 556.762974 
L 139.671638 556.273153 
L 139.923164 556.132397 
L 140.17469 556.055644 
L 140.5939 555.837934 
L 140.845425 555.670901 
L 141.180793 555.510008 
L 141.432319 555.461906 
L 141.851528 555.240918 
L 142.103054 555.049042 
L 142.35458 554.842778 
L 142.522264 554.809599 
L 143.025315 554.396347 
L 143.192999 554.262468 
L 143.612209 553.912622 
L 143.779893 553.769419 
L 144.115261 553.391402 
L 144.450628 553.308345 
L 144.869838 552.965506 
L 145.037522 552.80524 
L 145.456731 552.365705 
L 145.624415 552.183854 
L 145.959783 551.758182 
L 146.630518 551.791651 
L 147.468938 552.60323 
L 149.397302 554.559642 
L 151.325667 556.067293 
L 154.595502 558.346974 
L 155.182395 558.103077 
L 155.936973 557.226704 
L 156.27234 557.019051 
L 156.607708 556.940057 
L 156.943076 556.917061 
L 157.529969 557.217354 
L 158.033021 557.375198 
L 158.284547 557.419424 
L 159.29065 557.306749 
L 159.626018 557.308454 
L 159.961385 557.318849 
L 160.799805 557.523312 
L 161.135172 557.402011 
L 161.386698 557.188852 
L 161.722066 556.946118 
L 162.728169 556.591579 
L 163.482747 556.629247 
L 164.321166 556.837365 
L 164.740375 556.612267 
L 165.159585 556.720873 
L 165.746479 556.883828 
L 166.24953 556.596013 
L 166.584898 556.21714 
L 167.171791 556.01842 
L 167.423317 555.938686 
L 167.674843 555.8509 
L 167.926369 555.830511 
L 168.261737 555.757308 
L 168.932472 556.08427 
L 169.854733 556.688409 
L 170.357785 556.803064 
L 170.776994 556.523351 
L 171.699256 556.261841 
L 172.034623 555.999209 
L 172.453833 555.989211 
L 173.040727 556.327877 
L 173.459936 556.58073 
L 173.962988 556.522176 
L 174.382197 555.977681 
L 174.633723 555.829167 
L 175.052933 555.576637 
L 175.304459 555.360982 
L 175.555984 555.11515 
L 175.723668 555.047073 
L 176.22672 554.509053 
L 176.562088 554.600962 
L 178.40661 555.406567 
L 179.412713 555.139637 
L 179.831923 555.30708 
L 180.754184 555.777343 
L 181.592603 555.690612 
L 181.760287 555.688803 
L 182.263339 555.25796 
L 182.682549 555.311817 
L 183.017916 555.400613 
L 183.520968 555.184359 
L 183.688652 555.064337 
L 184.107861 554.708258 
L 184.862439 554.445308 
L 186.706961 555.340463 
L 187.293855 555.7066 
L 187.796906 555.718586 
L 188.886851 554.913383 
L 189.138377 554.667984 
L 189.473745 554.435674 
L 190.899058 554.41264 
L 191.905161 553.393435 
L 192.575896 553.234388 
L 192.74358 553.194456 
L 193.078948 553.025062 
L 194.420419 553.130794 
L 194.92347 552.660819 
L 195.34268 552.722992 
L 196.348783 553.106971 
L 197.019519 553.122569 
L 197.354886 553.188357 
L 198.193306 553.547169 
L 198.528673 553.492285 
L 199.199409 553.761465 
L 199.870144 554.134718 
L 200.457038 553.518357 
L 200.960089 552.732282 
L 201.295457 552.716445 
L 201.630825 552.898402 
L 202.217718 553.146099 
L 202.553086 553.168273 
L 203.559189 553.077465 
L 203.978399 552.54499 
L 204.565292 552.304271 
L 204.984502 552.579617 
L 208.338179 555.397212 
L 213.955589 559.448132 
L 214.123272 558.79066 
L 214.207114 558.857919 
L 214.290956 558.887844 
L 214.374798 558.433793 
L 214.961692 547.224521 
L 215.464743 534.800447 
L 215.716269 528.891592 
L 215.967795 523.81411 
L 216.135479 522.232884 
L 216.554688 515.536404 
L 216.806214 515.233027 
L 217.141582 512.109936 
L 217.225424 512.137642 
L 217.393108 512.332189 
L 217.728475 510.290841 
L 217.812317 510.392952 
L 217.980001 510.961421 
L 218.315369 510.076711 
L 218.734579 511.256443 
L 218.902262 511.24289 
L 219.405314 513.203981 
L 219.572998 513.733009 
L 219.992208 516.258805 
L 220.159891 516.730921 
L 220.579101 518.915077 
L 220.746785 519.306084 
L 221.249837 521.373735 
L 221.41752 521.990708 
L 221.752888 523.352458 
L 222.004414 524.095813 
L 222.339782 525.329385 
L 222.675149 526.410338 
L 223.010517 527.593138 
L 223.178201 527.93364 
L 223.597411 529.162122 
L 223.848936 529.626122 
L 224.184304 530.36924 
L 224.351988 530.389564 
L 224.603514 530.856952 
L 224.771198 530.312375 
L 225.022723 529.305396 
L 225.106565 529.277656 
L 225.190407 528.968157 
L 225.777301 524.469643 
L 225.861143 523.869732 
L 226.448036 513.461819 
L 227.118772 478.230124 
L 227.454139 441.148158 
L 227.705665 434.56615 
L 227.789507 434.176581 
L 227.873349 434.279019 
L 227.957191 434.646183 
L 228.124875 437.515033 
L 229.717872 473.003631 
L 230.388607 481.324115 
L 230.9755 486.12847 
L 231.646236 489.927611 
L 232.316971 492.539495 
L 232.987707 494.258645 
L 233.742284 495.587206 
L 234.748387 496.88963 
L 236.59291 498.840163 
L 239.611219 501.746349 
L 240.365797 502.196253 
L 242.126477 502.466692 
L 243.55179 503.11421 
L 243.887158 503.215643 
L 244.138684 503.217003 
L 244.390209 503.173716 
L 244.557893 503.189586 
L 245.060945 502.859045 
L 246.402416 502.709893 
L 246.821625 502.310035 
L 246.989309 502.282639 
L 247.492361 501.745391 
L 247.660045 501.585703 
L 247.995412 501.231533 
L 248.246938 501.170777 
L 248.582306 501.075654 
L 249.420725 501.65629 
L 250.51067 502.471168 
L 250.678354 502.467763 
L 251.34909 502.0889 
L 251.600615 501.846035 
L 252.439035 501.891801 
L 253.10977 502.444059 
L 253.948189 502.287301 
L 254.283557 502.448261 
L 254.786609 502.758806 
L 255.457344 502.187352 
L 255.792712 501.829282 
L 256.044238 501.891162 
L 256.798815 502.278941 
L 257.050341 502.15004 
L 257.218025 502.127508 
L 257.721076 501.529162 
L 258.056444 501.59384 
L 258.391812 501.890934 
L 259.733283 503.213903 
L 260.152492 503.070496 
L 260.571702 503.284008 
L 261.493963 503.932233 
L 261.913173 503.699303 
L 262.080857 503.688822 
L 262.583908 503.252967 
L 263.170802 503.226433 
L 263.925379 503.424724 
L 264.344589 503.488499 
L 265.099166 503.727111 
L 266.189111 502.96514 
L 267.782108 503.152667 
L 268.201318 503.465585 
L 268.704369 503.821814 
L 269.291263 503.626697 
L 269.710472 503.824971 
L 270.548892 504.453783 
L 271.135785 504.807675 
L 272.058046 504.110156 
L 272.728782 504.240176 
L 272.896466 504.308502 
L 273.483359 504.000897 
L 273.902569 504.118842 
L 274.237937 504.321338 
L 274.992514 504.123559 
L 275.160198 504.057878 
L 275.327882 504.038904 
L 276.333985 502.697206 
L 276.585511 502.725629 
L 276.920878 502.977608 
L 278.010823 504.212906 
L 278.765401 504.862489 
L 278.933085 504.96003 
L 279.939188 504.644823 
L 280.190714 504.731373 
L 280.945291 503.877051 
L 281.196817 503.532185 
L 281.532184 503.326925 
L 281.78371 503.251585 
L 282.119078 503.486481 
L 283.376707 504.537942 
L 283.712075 504.553671 
L 284.466652 504.916036 
L 285.556597 503.880794 
L 285.975807 504.078837 
L 286.311175 504.350575 
L 286.814226 504.402648 
L 287.317278 504.002569 
L 288.155697 503.900911 
L 288.407223 503.665879 
L 288.994116 503.648975 
L 289.413326 504.071995 
L 292.263952 507.403487 
L 296.9591 511.911541 
L 297.629835 512.399615 
L 298.216729 511.902001 
L 298.552096 512.034972 
L 299.306674 512.680983 
L 303.079561 516.149436 
L 303.750296 516.267552 
L 304.504873 516.874566 
L 307.271657 519.228937 
L 307.942393 519.547239 
L 309.11618 519.621165 
L 310.625334 518.838905 
L 310.87686 518.720306 
L 311.044544 518.554653 
L 311.463754 518.095195 
L 311.631437 517.882616 
L 312.050647 517.316527 
L 312.218331 517.065255 
L 312.637541 516.404429 
L 312.805225 516.119505 
L 313.224434 515.271115 
L 313.308276 515.269475 
L 313.392118 515.122639 
L 314.817431 507.984525 
L 314.985115 507.292358 
L 315.152799 506.975507 
L 315.572008 504.917507 
L 315.65585 504.889289 
L 315.823534 504.329185 
L 316.158902 502.951477 
L 316.410428 503.103681 
L 316.829637 501.901653 
L 316.997321 501.954187 
L 317.416531 500.61872 
L 317.584215 500.689331 
L 318.003424 499.465233 
L 318.171108 499.594209 
L 318.506476 498.476343 
L 318.590318 498.504494 
L 318.758002 498.685571 
L 319.177211 497.704749 
L 319.428737 498.295111 
L 319.764105 497.609446 
L 319.847947 497.751771 
L 320.015631 498.071481 
L 320.350998 497.650357 
L 320.85405 498.273656 
L 320.937892 498.331759 
L 321.357101 499.380341 
L 321.524785 498.810015 
L 321.692469 499.360656 
L 321.776311 498.931002 
L 322.363205 487.915577 
L 322.61473 487.367009 
L 322.698572 487.368332 
L 322.866256 488.071381 
L 324.710779 499.855019 
L 325.297672 501.725815 
L 325.884566 503.00478 
L 326.471459 503.904693 
L 327.142195 504.676355 
L 327.980614 505.395532 
L 329.908978 506.657904 
L 331.585817 507.585547 
L 332.59192 508.427111 
L 350.617935 525.033682 
L 358.918286 532.308363 
L 367.218637 539.288461 
L 375.518988 545.979236 
L 383.81934 552.386586 
L 392.203533 558.57746 
L 400.587726 564.492774 
L 409.055761 570.195134 
L 417.607637 575.684545 
L 426.243356 580.961683 
L 434.962917 586.02786 
L 443.76632 590.884982 
L 452.653564 595.535517 
L 461.708493 600.022862 
L 470.931105 604.343812 
L 480.321401 608.496006 
L 489.879381 612.47791 
L 499.605045 616.288789 
L 509.582235 619.958538 
L 519.810951 623.482187 
L 530.291192 626.855875 
L 541.022959 630.076824 
L 552.090094 633.165863 
L 563.492596 636.117302 
L 575.314309 638.946114 
L 587.55523 641.644734 
L 600.215362 644.207316 
L 613.378545 646.644522 
L 627.128622 648.963252 
L 641.549434 651.16724 
L 656.640981 653.246694 
L 672.151738 655.165091 
L 672.151738 655.165091 
" clip-path="url(#ped4f65aeda)" style="fill: none; stroke: #ff7f0e; stroke-width: 1.5; stroke-linecap: square"/>
   </g>
   <g id="patch_9">
    <path d="M 38.482813 684.92 
L 38.482813 386.16 
" style="fill: none; stroke: #000000; stroke-width: 0.8; stroke-linejoin: miter; stroke-linecap: square"/>
   </g>
   <g id="patch_10">
    <path d="M 702.326449 684.92 
L 702.326449 386.16 
" style="fill: none; stroke: #000000; stroke-width: 0.8; stroke-linejoin: miter; stroke-linecap: square"/>
   </g>
   <g id="patch_11">
    <path d="M 38.482813 684.92 
L 702.326449 684.92 
" style="fill: none; stroke: #000000; stroke-width: 0.8; stroke-linejoin: miter; stroke-linecap: square"/>
   </g>
   <g id="patch_12">
    <path d="M 38.482813 386.16 
L 702.326449 386.16 
" style="fill: none; stroke: #000000; stroke-width: 0.8; stroke-linejoin: miter; stroke-linecap: square"/>
   </g>
   <g id="text_33">
    <!-- 2 transformation(s) -->
    <g transform="translate(312.289943 380.16) scale(0.12 -0.12)">
     <use xlink:href="#DejaVuSans-32"/>
     <use xlink:href="#DejaVuSans-20" x="63.623047"/>
     <use xlink:href="#DejaVuSans-74" x="95.410156"/>
     <use xlink:href="#DejaVuSans-72" x="134.619141"/>
     <use xlink:href="#DejaVuSans-61" x="175.732422"/>
     <use xlink:href="#DejaVuSans-6e" x="237.011719"/>
     <use xlink:href="#DejaVuSans-73" x="300.390625"/>
     <use xlink:href="#DejaVuSans-66" x="352.490234"/>
     <use xlink:href="#DejaVuSans-6f" x="387.695312"/>
     <use xlink:href="#DejaVuSans-72" x="448.876953"/>
     <use xlink:href="#DejaVuSans-6d" x="488.240234"/>
     <use xlink:href="#DejaVuSans-61" x="585.652344"/>
     <use xlink:href="#DejaVuSans-74" x="646.931641"/>
     <use xlink:href="#DejaVuSans-69" x="686.140625"/>
     <use xlink:href="#DejaVuSans-6f" x="713.923828"/>
     <use xlink:href="#DejaVuSans-6e" x="775.105469"/>
     <use xlink:href="#DejaVuSans-28" x="838.484375"/>
     <use xlink:href="#DejaVuSans-73" x="877.498047"/>
     <use xlink:href="#DejaVuSans-29" x="929.597656"/>
    </g>
   </g>
  </g>
  <g id="text_34">
   <!-- training -->
   <g transform="translate(333.319375 16.318125) scale(0.12 -0.12)">
    <defs>
     <path id="DejaVuSans-67" d="M 2906 1791 
Q 2906 2416 2648 2759 
Q 2391 3103 1925 3103 
Q 1463 3103 1205 2759 
Q 947 2416 947 1791 
Q 947 1169 1205 825 
Q 1463 481 1925 481 
Q 2391 481 2648 825 
Q 2906 1169 2906 1791 
z
M 3481 434 
Q 3481 -459 3084 -895 
Q 2688 -1331 1869 -1331 
Q 1566 -1331 1297 -1286 
Q 1028 -1241 775 -1147 
L 775 -588 
Q 1028 -725 1275 -790 
Q 1522 -856 1778 -856 
Q 2344 -856 2625 -561 
Q 2906 -266 2906 331 
L 2906 616 
Q 2728 306 2450 153 
Q 2172 0 1784 0 
Q 1141 0 747 490 
Q 353 981 353 1791 
Q 353 2603 747 3093 
Q 1141 3584 1784 3584 
Q 2172 3584 2450 3431 
Q 2728 3278 2906 2969 
L 2906 3500 
L 3481 3500 
L 3481 434 
z
" transform="scale(0.015625)"/>
    </defs>
    <use xlink:href="#DejaVuSans-74"/>
    <use xlink:href="#DejaVuSans-72" x="39.208984"/>
    <use xlink:href="#DejaVuSans-61" x="80.322266"/>
    <use xlink:href="#DejaVuSans-69" x="141.601562"/>
    <use xlink:href="#DejaVuSans-6e" x="169.384766"/>
    <use xlink:href="#DejaVuSans-69" x="232.763672"/>
    <use xlink:href="#DejaVuSans-6e" x="260.546875"/>
    <use xlink:href="#DejaVuSans-67" x="323.925781"/>
   </g>
  </g>
 </g>
 <defs>
  <clipPath id="pe9e6abc002">
   <rect x="38.482813" y="43.44" width="663.843636" height="298.76"/>
  </clipPath>
  <clipPath id="ped4f65aeda">
   <rect x="38.482813" y="386.16" width="663.843636" height="298.76"/>
  </clipPath>
 </defs>
</svg>
