<?xml version="1.0" encoding="utf-8" standalone="no"?>
<!DOCTYPE svg PUBLIC "-//W3C//DTD SVG 1.1//EN"
  "http://www.w3.org/Graphics/SVG/1.1/DTD/svg11.dtd">
<svg xmlns:xlink="http://www.w3.org/1999/xlink" width="709.426761pt" height="708.798125pt" viewBox="0 0 709.426761 708.798125" xmlns="http://www.w3.org/2000/svg" version="1.1">
 <metadata>
  <rdf:RDF xmlns:dc="http://purl.org/dc/elements/1.1/" xmlns:cc="http://creativecommons.org/ns#" xmlns:rdf="http://www.w3.org/1999/02/22-rdf-syntax-ns#">
   <cc:Work>
    <dc:type rdf:resource="http://purl.org/dc/dcmitype/StillImage"/>
    <dc:date>2023-06-16T23:22:44.475853</dc:date>
    <dc:format>image/svg+xml</dc:format>
    <dc:creator>
     <cc:Agent>
      <dc:title>Matplotlib v3.7.1, https://matplotlib.org/</dc:title>
     </cc:Agent>
    </dc:creator>
   </cc:Work>
  </rdf:RDF>
 </metadata>
 <defs>
  <style type="text/css">*{stroke-linejoin: round; stroke-linecap: butt}</style>
 </defs>
 <g id="figure_1">
  <g id="patch_1">
   <path d="M 0 708.798125 
L 709.426761 708.798125 
L 709.426761 0 
L 0 0 
z
" style="fill: #ffffff"/>
  </g>
  <g id="axes_1">
   <g id="patch_2">
    <path d="M 30.103125 342.2 
L 702.226761 342.2 
L 702.226761 43.44 
L 30.103125 43.44 
z
" style="fill: #ffffff"/>
   </g>
   <g id="matplotlib.axis_1">
    <g id="xtick_1">
     <g id="line2d_1">
      <defs>
       <path id="m85e9380287" d="M 0 0 
L 0 3.5 
" style="stroke: #000000; stroke-width: 0.8"/>
      </defs>
      <g>
       <use xlink:href="#m85e9380287" x="60.484424" y="342.2" style="stroke: #000000; stroke-width: 0.8"/>
      </g>
     </g>
     <g id="text_1">
      <!-- 2014-07-01 -->
      <g transform="translate(31.426612 356.798437) scale(0.1 -0.1)">
       <defs>
        <path id="DejaVuSans-32" d="M 1228 531 
L 3431 531 
L 3431 0 
L 469 0 
L 469 531 
Q 828 903 1448 1529 
Q 2069 2156 2228 2338 
Q 2531 2678 2651 2914 
Q 2772 3150 2772 3378 
Q 2772 3750 2511 3984 
Q 2250 4219 1831 4219 
Q 1534 4219 1204 4116 
Q 875 4013 500 3803 
L 500 4441 
Q 881 4594 1212 4672 
Q 1544 4750 1819 4750 
Q 2544 4750 2975 4387 
Q 3406 4025 3406 3419 
Q 3406 3131 3298 2873 
Q 3191 2616 2906 2266 
Q 2828 2175 2409 1742 
Q 1991 1309 1228 531 
z
" transform="scale(0.015625)"/>
        <path id="DejaVuSans-30" d="M 2034 4250 
Q 1547 4250 1301 3770 
Q 1056 3291 1056 2328 
Q 1056 1369 1301 889 
Q 1547 409 2034 409 
Q 2525 409 2770 889 
Q 3016 1369 3016 2328 
Q 3016 3291 2770 3770 
Q 2525 4250 2034 4250 
z
M 2034 4750 
Q 2819 4750 3233 4129 
Q 3647 3509 3647 2328 
Q 3647 1150 3233 529 
Q 2819 -91 2034 -91 
Q 1250 -91 836 529 
Q 422 1150 422 2328 
Q 422 3509 836 4129 
Q 1250 4750 2034 4750 
z
" transform="scale(0.015625)"/>
        <path id="DejaVuSans-31" d="M 794 531 
L 1825 531 
L 1825 4091 
L 703 3866 
L 703 4441 
L 1819 4666 
L 2450 4666 
L 2450 531 
L 3481 531 
L 3481 0 
L 794 0 
L 794 531 
z
" transform="scale(0.015625)"/>
        <path id="DejaVuSans-34" d="M 2419 4116 
L 825 1625 
L 2419 1625 
L 2419 4116 
z
M 2253 4666 
L 3047 4666 
L 3047 1625 
L 3713 1625 
L 3713 1100 
L 3047 1100 
L 3047 0 
L 2419 0 
L 2419 1100 
L 313 1100 
L 313 1709 
L 2253 4666 
z
" transform="scale(0.015625)"/>
        <path id="DejaVuSans-2d" d="M 313 2009 
L 1997 2009 
L 1997 1497 
L 313 1497 
L 313 2009 
z
" transform="scale(0.015625)"/>
        <path id="DejaVuSans-37" d="M 525 4666 
L 3525 4666 
L 3525 4397 
L 1831 0 
L 1172 0 
L 2766 4134 
L 525 4134 
L 525 4666 
z
" transform="scale(0.015625)"/>
       </defs>
       <use xlink:href="#DejaVuSans-32"/>
       <use xlink:href="#DejaVuSans-30" x="63.623047"/>
       <use xlink:href="#DejaVuSans-31" x="127.246094"/>
       <use xlink:href="#DejaVuSans-34" x="190.869141"/>
       <use xlink:href="#DejaVuSans-2d" x="254.492188"/>
       <use xlink:href="#DejaVuSans-30" x="290.576172"/>
       <use xlink:href="#DejaVuSans-37" x="354.199219"/>
       <use xlink:href="#DejaVuSans-2d" x="417.822266"/>
       <use xlink:href="#DejaVuSans-30" x="453.90625"/>
       <use xlink:href="#DejaVuSans-31" x="517.529297"/>
      </g>
     </g>
    </g>
    <g id="xtick_2">
     <g id="line2d_2">
      <g>
       <use xlink:href="#m85e9380287" x="182.722677" y="342.2" style="stroke: #000000; stroke-width: 0.8"/>
      </g>
     </g>
     <g id="text_2">
      <!-- 2014-07-02 -->
      <g transform="translate(153.664864 356.798437) scale(0.1 -0.1)">
       <use xlink:href="#DejaVuSans-32"/>
       <use xlink:href="#DejaVuSans-30" x="63.623047"/>
       <use xlink:href="#DejaVuSans-31" x="127.246094"/>
       <use xlink:href="#DejaVuSans-34" x="190.869141"/>
       <use xlink:href="#DejaVuSans-2d" x="254.492188"/>
       <use xlink:href="#DejaVuSans-30" x="290.576172"/>
       <use xlink:href="#DejaVuSans-37" x="354.199219"/>
       <use xlink:href="#DejaVuSans-2d" x="417.822266"/>
       <use xlink:href="#DejaVuSans-30" x="453.90625"/>
       <use xlink:href="#DejaVuSans-32" x="517.529297"/>
      </g>
     </g>
    </g>
    <g id="xtick_3">
     <g id="line2d_3">
      <g>
       <use xlink:href="#m85e9380287" x="304.960929" y="342.2" style="stroke: #000000; stroke-width: 0.8"/>
      </g>
     </g>
     <g id="text_3">
      <!-- 2014-07-03 -->
      <g transform="translate(275.903117 356.798437) scale(0.1 -0.1)">
       <defs>
        <path id="DejaVuSans-33" d="M 2597 2516 
Q 3050 2419 3304 2112 
Q 3559 1806 3559 1356 
Q 3559 666 3084 287 
Q 2609 -91 1734 -91 
Q 1441 -91 1130 -33 
Q 819 25 488 141 
L 488 750 
Q 750 597 1062 519 
Q 1375 441 1716 441 
Q 2309 441 2620 675 
Q 2931 909 2931 1356 
Q 2931 1769 2642 2001 
Q 2353 2234 1838 2234 
L 1294 2234 
L 1294 2753 
L 1863 2753 
Q 2328 2753 2575 2939 
Q 2822 3125 2822 3475 
Q 2822 3834 2567 4026 
Q 2313 4219 1838 4219 
Q 1578 4219 1281 4162 
Q 984 4106 628 3988 
L 628 4550 
Q 988 4650 1302 4700 
Q 1616 4750 1894 4750 
Q 2613 4750 3031 4423 
Q 3450 4097 3450 3541 
Q 3450 3153 3228 2886 
Q 3006 2619 2597 2516 
z
" transform="scale(0.015625)"/>
       </defs>
       <use xlink:href="#DejaVuSans-32"/>
       <use xlink:href="#DejaVuSans-30" x="63.623047"/>
       <use xlink:href="#DejaVuSans-31" x="127.246094"/>
       <use xlink:href="#DejaVuSans-34" x="190.869141"/>
       <use xlink:href="#DejaVuSans-2d" x="254.492188"/>
       <use xlink:href="#DejaVuSans-30" x="290.576172"/>
       <use xlink:href="#DejaVuSans-37" x="354.199219"/>
       <use xlink:href="#DejaVuSans-2d" x="417.822266"/>
       <use xlink:href="#DejaVuSans-30" x="453.90625"/>
       <use xlink:href="#DejaVuSans-33" x="517.529297"/>
      </g>
     </g>
    </g>
    <g id="xtick_4">
     <g id="line2d_4">
      <g>
       <use xlink:href="#m85e9380287" x="427.199182" y="342.2" style="stroke: #000000; stroke-width: 0.8"/>
      </g>
     </g>
     <g id="text_4">
      <!-- 2014-07-04 -->
      <g transform="translate(398.141369 356.798437) scale(0.1 -0.1)">
       <use xlink:href="#DejaVuSans-32"/>
       <use xlink:href="#DejaVuSans-30" x="63.623047"/>
       <use xlink:href="#DejaVuSans-31" x="127.246094"/>
       <use xlink:href="#DejaVuSans-34" x="190.869141"/>
       <use xlink:href="#DejaVuSans-2d" x="254.492188"/>
       <use xlink:href="#DejaVuSans-30" x="290.576172"/>
       <use xlink:href="#DejaVuSans-37" x="354.199219"/>
       <use xlink:href="#DejaVuSans-2d" x="417.822266"/>
       <use xlink:href="#DejaVuSans-30" x="453.90625"/>
       <use xlink:href="#DejaVuSans-34" x="517.529297"/>
      </g>
     </g>
    </g>
    <g id="xtick_5">
     <g id="line2d_5">
      <g>
       <use xlink:href="#m85e9380287" x="549.437434" y="342.2" style="stroke: #000000; stroke-width: 0.8"/>
      </g>
     </g>
     <g id="text_5">
      <!-- 2014-07-05 -->
      <g transform="translate(520.379622 356.798437) scale(0.1 -0.1)">
       <defs>
        <path id="DejaVuSans-35" d="M 691 4666 
L 3169 4666 
L 3169 4134 
L 1269 4134 
L 1269 2991 
Q 1406 3038 1543 3061 
Q 1681 3084 1819 3084 
Q 2600 3084 3056 2656 
Q 3513 2228 3513 1497 
Q 3513 744 3044 326 
Q 2575 -91 1722 -91 
Q 1428 -91 1123 -41 
Q 819 9 494 109 
L 494 744 
Q 775 591 1075 516 
Q 1375 441 1709 441 
Q 2250 441 2565 725 
Q 2881 1009 2881 1497 
Q 2881 1984 2565 2268 
Q 2250 2553 1709 2553 
Q 1456 2553 1204 2497 
Q 953 2441 691 2322 
L 691 4666 
z
" transform="scale(0.015625)"/>
       </defs>
       <use xlink:href="#DejaVuSans-32"/>
       <use xlink:href="#DejaVuSans-30" x="63.623047"/>
       <use xlink:href="#DejaVuSans-31" x="127.246094"/>
       <use xlink:href="#DejaVuSans-34" x="190.869141"/>
       <use xlink:href="#DejaVuSans-2d" x="254.492188"/>
       <use xlink:href="#DejaVuSans-30" x="290.576172"/>
       <use xlink:href="#DejaVuSans-37" x="354.199219"/>
       <use xlink:href="#DejaVuSans-2d" x="417.822266"/>
       <use xlink:href="#DejaVuSans-30" x="453.90625"/>
       <use xlink:href="#DejaVuSans-35" x="517.529297"/>
      </g>
     </g>
    </g>
    <g id="xtick_6">
     <g id="line2d_6">
      <g>
       <use xlink:href="#m85e9380287" x="671.675687" y="342.2" style="stroke: #000000; stroke-width: 0.8"/>
      </g>
     </g>
     <g id="text_6">
      <!-- 2014-07-06 -->
      <g transform="translate(642.617874 356.798437) scale(0.1 -0.1)">
       <defs>
        <path id="DejaVuSans-36" d="M 2113 2584 
Q 1688 2584 1439 2293 
Q 1191 2003 1191 1497 
Q 1191 994 1439 701 
Q 1688 409 2113 409 
Q 2538 409 2786 701 
Q 3034 994 3034 1497 
Q 3034 2003 2786 2293 
Q 2538 2584 2113 2584 
z
M 3366 4563 
L 3366 3988 
Q 3128 4100 2886 4159 
Q 2644 4219 2406 4219 
Q 1781 4219 1451 3797 
Q 1122 3375 1075 2522 
Q 1259 2794 1537 2939 
Q 1816 3084 2150 3084 
Q 2853 3084 3261 2657 
Q 3669 2231 3669 1497 
Q 3669 778 3244 343 
Q 2819 -91 2113 -91 
Q 1303 -91 875 529 
Q 447 1150 447 2328 
Q 447 3434 972 4092 
Q 1497 4750 2381 4750 
Q 2619 4750 2861 4703 
Q 3103 4656 3366 4563 
z
" transform="scale(0.015625)"/>
       </defs>
       <use xlink:href="#DejaVuSans-32"/>
       <use xlink:href="#DejaVuSans-30" x="63.623047"/>
       <use xlink:href="#DejaVuSans-31" x="127.246094"/>
       <use xlink:href="#DejaVuSans-34" x="190.869141"/>
       <use xlink:href="#DejaVuSans-2d" x="254.492188"/>
       <use xlink:href="#DejaVuSans-30" x="290.576172"/>
       <use xlink:href="#DejaVuSans-37" x="354.199219"/>
       <use xlink:href="#DejaVuSans-2d" x="417.822266"/>
       <use xlink:href="#DejaVuSans-30" x="453.90625"/>
       <use xlink:href="#DejaVuSans-36" x="517.529297"/>
      </g>
     </g>
    </g>
   </g>
   <g id="matplotlib.axis_2">
    <g id="ytick_1">
     <g id="line2d_7">
      <defs>
       <path id="m4f3bca2c11" d="M 0 0 
L -3.5 0 
" style="stroke: #000000; stroke-width: 0.8"/>
      </defs>
      <g>
       <use xlink:href="#m4f3bca2c11" x="30.103125" y="328.615272" style="stroke: #000000; stroke-width: 0.8"/>
      </g>
     </g>
     <g id="text_7">
      <!-- 0.0 -->
      <g transform="translate(7.2 332.414491) scale(0.1 -0.1)">
       <defs>
        <path id="DejaVuSans-2e" d="M 684 794 
L 1344 794 
L 1344 0 
L 684 0 
L 684 794 
z
" transform="scale(0.015625)"/>
       </defs>
       <use xlink:href="#DejaVuSans-30"/>
       <use xlink:href="#DejaVuSans-2e" x="63.623047"/>
       <use xlink:href="#DejaVuSans-30" x="95.410156"/>
      </g>
     </g>
    </g>
    <g id="ytick_2">
     <g id="line2d_8">
      <g>
       <use xlink:href="#m4f3bca2c11" x="30.103125" y="291.468734" style="stroke: #000000; stroke-width: 0.8"/>
      </g>
     </g>
     <g id="text_8">
      <!-- 0.5 -->
      <g transform="translate(7.2 295.267953) scale(0.1 -0.1)">
       <use xlink:href="#DejaVuSans-30"/>
       <use xlink:href="#DejaVuSans-2e" x="63.623047"/>
       <use xlink:href="#DejaVuSans-35" x="95.410156"/>
      </g>
     </g>
    </g>
    <g id="ytick_3">
     <g id="line2d_9">
      <g>
       <use xlink:href="#m4f3bca2c11" x="30.103125" y="254.322196" style="stroke: #000000; stroke-width: 0.8"/>
      </g>
     </g>
     <g id="text_9">
      <!-- 1.0 -->
      <g transform="translate(7.2 258.121415) scale(0.1 -0.1)">
       <use xlink:href="#DejaVuSans-31"/>
       <use xlink:href="#DejaVuSans-2e" x="63.623047"/>
       <use xlink:href="#DejaVuSans-30" x="95.410156"/>
      </g>
     </g>
    </g>
    <g id="ytick_4">
     <g id="line2d_10">
      <g>
       <use xlink:href="#m4f3bca2c11" x="30.103125" y="217.175658" style="stroke: #000000; stroke-width: 0.8"/>
      </g>
     </g>
     <g id="text_10">
      <!-- 1.5 -->
      <g transform="translate(7.2 220.974877) scale(0.1 -0.1)">
       <use xlink:href="#DejaVuSans-31"/>
       <use xlink:href="#DejaVuSans-2e" x="63.623047"/>
       <use xlink:href="#DejaVuSans-35" x="95.410156"/>
      </g>
     </g>
    </g>
    <g id="ytick_5">
     <g id="line2d_11">
      <g>
       <use xlink:href="#m4f3bca2c11" x="30.103125" y="180.02912" style="stroke: #000000; stroke-width: 0.8"/>
      </g>
     </g>
     <g id="text_11">
      <!-- 2.0 -->
      <g transform="translate(7.2 183.828339) scale(0.1 -0.1)">
       <use xlink:href="#DejaVuSans-32"/>
       <use xlink:href="#DejaVuSans-2e" x="63.623047"/>
       <use xlink:href="#DejaVuSans-30" x="95.410156"/>
      </g>
     </g>
    </g>
    <g id="ytick_6">
     <g id="line2d_12">
      <g>
       <use xlink:href="#m4f3bca2c11" x="30.103125" y="142.882582" style="stroke: #000000; stroke-width: 0.8"/>
      </g>
     </g>
     <g id="text_12">
      <!-- 2.5 -->
      <g transform="translate(7.2 146.681801) scale(0.1 -0.1)">
       <use xlink:href="#DejaVuSans-32"/>
       <use xlink:href="#DejaVuSans-2e" x="63.623047"/>
       <use xlink:href="#DejaVuSans-35" x="95.410156"/>
      </g>
     </g>
    </g>
    <g id="ytick_7">
     <g id="line2d_13">
      <g>
       <use xlink:href="#m4f3bca2c11" x="30.103125" y="105.736044" style="stroke: #000000; stroke-width: 0.8"/>
      </g>
     </g>
     <g id="text_13">
      <!-- 3.0 -->
      <g transform="translate(7.2 109.535263) scale(0.1 -0.1)">
       <use xlink:href="#DejaVuSans-33"/>
       <use xlink:href="#DejaVuSans-2e" x="63.623047"/>
       <use xlink:href="#DejaVuSans-30" x="95.410156"/>
      </g>
     </g>
    </g>
    <g id="ytick_8">
     <g id="line2d_14">
      <g>
       <use xlink:href="#m4f3bca2c11" x="30.103125" y="68.589506" style="stroke: #000000; stroke-width: 0.8"/>
      </g>
     </g>
     <g id="text_14">
      <!-- 3.5 -->
      <g transform="translate(7.2 72.388725) scale(0.1 -0.1)">
       <use xlink:href="#DejaVuSans-33"/>
       <use xlink:href="#DejaVuSans-2e" x="63.623047"/>
       <use xlink:href="#DejaVuSans-35" x="95.410156"/>
      </g>
     </g>
    </g>
   </g>
   <g id="line2d_15">
    <path d="M 60.654199 328.615272 
L 70.50117 328.51 
L 71.180271 328.270488 
L 71.689597 327.87041 
L 72.198923 327.207714 
L 72.962912 325.690965 
L 73.981564 323.003845 
L 75.085104 320.014009 
L 77.122408 315.630995 
L 77.971285 314.098786 
L 78.565499 313.128665 
L 78.989937 312.059718 
L 79.329488 310.3728 
L 79.584151 307.943586 
L 79.923702 301.999008 
L 80.433028 287.69638 
L 81.027241 272.289796 
L 81.366792 267.315661 
L 82.89477 254.03988 
L 83.658759 249.785422 
L 84.252973 247.679275 
L 84.847187 246.321081 
L 85.441401 245.567603 
L 85.780951 245.501383 
L 86.20539 245.701219 
L 86.54494 245.815219 
L 86.884491 245.717701 
L 87.393817 245.129041 
L 88.157806 244.18933 
L 88.412469 244.131214 
L 88.582245 244.262786 
L 88.836908 244.770241 
L 89.261346 246.367834 
L 89.770672 248.296728 
L 89.85556 248.36579 
L 89.940447 248.267218 
L 90.110223 247.491032 
L 90.364886 244.722797 
L 91.043987 235.597261 
L 91.213763 234.747868 
L 91.29865 234.700699 
L 91.468426 235.455762 
L 91.723089 238.806006 
L 92.232415 248.553741 
L 92.826628 257.967975 
L 93.335954 262.914553 
L 93.50573 263.653715 
L 93.590617 263.5638 
L 93.760393 261.63809 
L 94.015056 253.3009 
L 94.94882 208.593127 
L 95.967472 148.749521 
L 96.901237 95.564529 
L 97.750114 81.164514 
L 98.089664 78.920455 
L 98.344327 78.529214 
L 98.514103 78.771667 
L 98.768766 79.697943 
L 99.193204 82.126853 
L 99.872305 86.558608 
L 100.126968 86.863127 
L 100.80607 87.017424 
L 100.975845 87.432613 
L 101.230508 89.594626 
L 101.570059 94.652335 
L 101.994497 104.44956 
L 102.843374 127.4303 
L 103.267812 152.398279 
L 103.607363 170.438392 
L 104.201577 185.366445 
L 104.795791 193.394555 
L 105.220229 195.914872 
L 105.390004 196.141074 
L 105.55978 195.710643 
L 105.729555 194.637394 
L 105.89933 192.611036 
L 106.238881 183.537841 
L 107.00287 155.94255 
L 107.427309 135.189254 
L 107.936635 108.033348 
L 108.276185 102.516893 
L 108.361073 102.250439 
L 108.445961 102.395277 
L 108.615736 103.778969 
L 108.870399 108.208705 
L 109.294837 120.006809 
L 109.464613 127.304538 
L 109.719276 147.478766 
L 110.143714 180.882198 
L 110.65304 202.953444 
L 111.162366 216.792494 
L 111.75658 227.143848 
L 112.265906 233.070027 
L 112.775232 236.546191 
L 113.284558 238.279695 
L 116.849841 246.240593 
L 117.868493 247.882752 
L 119.05692 249.366167 
L 120.669786 250.956347 
L 121.858213 251.828927 
L 122.197764 251.910663 
L 122.367539 251.800577 
L 122.622202 251.222908 
L 122.876865 250.074593 
L 123.555967 246.183762 
L 123.81063 245.537092 
L 123.980405 245.463486 
L 124.150181 245.63554 
L 124.489731 246.494463 
L 125.083945 248.584269 
L 125.932822 251.196782 
L 126.442148 252.251148 
L 127.036362 253.048067 
L 127.630575 253.513861 
L 128.56434 253.916802 
L 129.837655 254.25301 
L 130.856307 254.205079 
L 132.21451 254.123954 
L 133.063387 254.016632 
L 134.082039 253.613939 
L 134.930915 253.331012 
L 135.949567 253.035863 
L 136.798444 252.439852 
L 137.901984 251.688605 
L 138.920636 251.146265 
L 139.599738 250.680842 
L 139.854401 250.743005 
L 140.109064 251.04872 
L 140.448614 251.873377 
L 140.95794 253.744607 
L 142.740582 260.806034 
L 143.589458 263.126647 
L 144.438335 264.822546 
L 145.372099 266.189332 
L 146.475639 267.407564 
L 147.833842 268.58491 
L 148.428056 268.916017 
L 148.767606 268.919918 
L 149.107157 268.650842 
L 149.446708 268.01391 
L 149.956034 266.423106 
L 150.720023 264.075945 
L 151.059574 263.60833 
L 151.314237 263.534145 
L 151.653787 263.706792 
L 153.096878 264.862444 
L 155.049294 265.222857 
L 155.388845 264.959475 
L 155.898171 264.201959 
L 156.577273 263.301933 
L 156.916823 263.169052 
L 157.256374 263.263452 
L 157.7657 263.713536 
L 158.699464 264.594108 
L 159.97278 265.423074 
L 160.31233 265.279467 
L 160.736769 264.726463 
L 161.585645 263.555679 
L 162.010084 263.354226 
L 162.349635 263.444872 
L 162.689185 263.784923 
L 163.198511 264.714161 
L 164.556714 267.511968 
L 164.896265 267.691935 
L 165.235815 267.606988 
L 165.660254 267.185276 
L 166.594018 266.028968 
L 166.848681 265.988889 
L 167.188232 266.204268 
L 168.206884 267.152428 
L 168.461547 267.024665 
L 168.801098 266.555005 
L 169.395312 265.181311 
L 170.413964 262.876449 
L 170.668627 262.764517 
L 170.92329 262.92097 
L 171.26284 263.475803 
L 171.857054 264.952488 
L 172.621043 266.710816 
L 173.045482 267.183975 
L 173.46992 267.305573 
L 174.064134 267.422651 
L 174.488572 267.757278 
L 175.592112 268.796849 
L 175.931663 268.786819 
L 176.356101 268.457236 
L 178.478293 266.005627 
L 178.987619 265.390128 
L 179.242282 265.321615 
L 179.496945 265.446003 
L 179.836496 265.847195 
L 180.430709 266.972581 
L 182.043575 270.249498 
L 182.383126 270.424718 
L 182.637789 270.274406 
L 182.97734 269.69269 
L 183.656441 267.74289 
L 184.165767 266.614307 
L 184.590205 266.237776 
L 185.52397 265.875557 
L 185.948408 265.260231 
L 186.797285 263.908413 
L 187.136836 263.717331 
L 187.476386 263.749329 
L 187.900825 264.049566 
L 188.919477 264.950291 
L 189.938129 265.314078 
L 190.447455 265.935086 
L 191.72077 267.572997 
L 194.182513 270.262942 
L 194.522064 270.404649 
L 194.776727 270.255529 
L 195.03139 269.825421 
L 196.219817 267.204225 
L 196.47448 267.20337 
L 196.814031 267.475696 
L 197.747795 268.469892 
L 198.002458 268.494686 
L 198.257121 268.331577 
L 198.766447 267.6062 
L 199.190886 267.126102 
L 199.445549 267.115404 
L 199.700212 267.357724 
L 200.12465 268.235126 
L 200.973527 270.990758 
L 202.246842 275.358229 
L 203.095719 277.510331 
L 203.944595 279.075018 
L 204.708585 280.117215 
L 205.727237 281.160263 
L 207.000552 282.13745 
L 208.104092 282.773492 
L 208.443642 282.705798 
L 208.613418 282.505142 
L 208.783193 281.951284 
L 209.037856 279.629585 
L 209.292519 273.676509 
L 209.63207 257.870262 
L 210.141396 236.332389 
L 210.820497 223.823016 
L 211.329823 218.155878 
L 211.839149 215.066173 
L 212.263588 213.669258 
L 212.688026 212.888573 
L 212.942689 212.711887 
L 213.197352 212.80681 
L 213.452015 213.236002 
L 213.791566 214.347474 
L 214.216004 216.627047 
L 214.895106 222.102912 
L 215.574207 230.129756 
L 216.168421 236.825373 
L 216.677747 239.789503 
L 218.290613 246.451713 
L 218.715051 247.410997 
L 218.969714 247.539255 
L 219.139489 247.202109 
L 219.394152 246.0278 
L 219.733703 243.227771 
L 220.243029 236.337552 
L 220.922131 222.717903 
L 221.431457 207.425762 
L 222.110558 180.711968 
L 222.704772 159.991937 
L 223.044322 154.530375 
L 223.12921 154.084985 
L 223.214098 154.105125 
L 223.383873 155.31973 
L 223.638536 159.765266 
L 224.062975 172.29135 
L 224.657188 197.986203 
L 225.67584 244.631213 
L 226.185166 252.972194 
L 226.694492 256.73009 
L 227.203819 258.922901 
L 228.052695 261.431054 
L 228.901572 263.245491 
L 229.665561 264.488327 
L 230.853989 265.912281 
L 232.381967 267.27311 
L 233.909945 268.370359 
L 234.928597 268.870907 
L 235.437923 268.904472 
L 235.862361 268.712872 
L 236.2868 268.264529 
L 237.899666 266.189336 
L 239.342756 265.326149 
L 239.852082 264.536895 
L 240.955622 262.663022 
L 241.719611 261.493753 
L 242.4836 259.694078 
L 243.162702 258.241355 
L 243.502252 258.02578 
L 243.756915 258.169073 
L 244.096466 258.732009 
L 244.520904 259.864804 
L 245.624444 262.989032 
L 245.963995 263.351565 
L 246.218658 263.319403 
L 246.558209 262.928883 
L 247.322198 261.835801 
L 247.576861 261.814732 
L 247.916411 262.096052 
L 249.019951 263.300733 
L 249.868828 263.738688 
L 250.208379 263.637623 
L 250.547929 263.239203 
L 251.227031 262.307756 
L 251.566581 262.217106 
L 252.33057 262.283684 
L 252.839897 261.881266 
L 253.179447 261.732371 
L 253.43411 261.883209 
L 253.688773 262.291331 
L 254.198099 263.68849 
L 255.046976 266.114849 
L 255.556302 266.918897 
L 256.405179 267.746353 
L 256.829617 267.92888 
L 257.08428 267.840138 
L 257.423831 267.40926 
L 257.848269 266.517905 
L 258.527371 265.168093 
L 258.951809 264.827174 
L 259.29136 264.814956 
L 259.885574 265.084333 
L 260.310012 265.222502 
L 260.649563 265.092512 
L 260.989113 264.734987 
L 261.83799 263.504994 
L 262.177541 263.308416 
L 262.517092 263.333693 
L 262.856642 263.554302 
L 263.365968 264.206471 
L 264.38462 265.669769 
L 265.827711 267.112561 
L 266.421925 267.818728 
L 266.761475 267.890336 
L 267.101026 267.62622 
L 267.865015 266.447288 
L 268.629004 265.491153 
L 269.053443 265.216923 
L 269.477881 265.207517 
L 270.24187 265.315707 
L 270.581421 265.044134 
L 270.920971 264.379539 
L 272.109399 261.579323 
L 272.279174 261.668556 
L 272.533837 262.104735 
L 272.958276 263.427376 
L 274.316478 268.167861 
L 274.740917 268.799174 
L 274.99558 268.88532 
L 275.250243 268.763943 
L 275.589794 268.273341 
L 275.929344 267.440501 
L 276.608446 264.854358 
L 277.117772 263.150413 
L 277.372435 262.796329 
L 277.54221 262.78478 
L 277.796873 263.073686 
L 278.136424 263.884279 
L 279.239964 266.959504 
L 279.74929 267.711206 
L 280.003953 267.808003 
L 280.258616 267.664015 
L 280.598166 267.089029 
L 281.447043 265.328035 
L 281.786594 265.156394 
L 283.059909 265.096719 
L 283.569235 264.705424 
L 284.333224 264.070397 
L 284.587887 264.107346 
L 284.84255 264.3781 
L 285.182101 265.110495 
L 285.776315 267.118238 
L 287.898506 274.810437 
L 288.662496 276.729443 
L 289.511372 278.294829 
L 290.445137 279.530801 
L 291.463789 280.528198 
L 292.652216 281.392518 
L 293.24643 281.620908 
L 293.585981 281.566587 
L 293.925531 281.296223 
L 294.34997 280.665787 
L 295.45351 278.907406 
L 295.79306 278.736999 
L 296.132611 278.779948 
L 296.557049 279.058625 
L 297.321038 279.901061 
L 298.933904 281.719715 
L 299.44323 281.992284 
L 299.952556 282.036978 
L 301.65031 281.932557 
L 302.414299 282.287553 
L 303.517839 282.805145 
L 303.942277 282.799441 
L 304.281828 282.618677 
L 304.621379 282.217003 
L 305.045817 281.306523 
L 305.470255 279.861579 
L 306.064469 276.961871 
L 307.252896 269.668525 
L 308.186661 264.377515 
L 309.290201 258.391343 
L 309.799527 253.945107 
L 310.648403 246.224519 
L 311.242617 243.198491 
L 311.667056 242.072778 
L 312.006606 241.722444 
L 312.346157 241.68894 
L 312.855483 241.656543 
L 313.195034 241.441332 
L 314.892787 239.846724 
L 315.232338 239.937201 
L 315.826552 240.462325 
L 316.335878 241.231993 
L 316.760316 242.342181 
L 317.099867 243.178015 
L 317.184754 243.223759 
L 317.269642 243.139091 
L 317.439417 242.45046 
L 317.694081 239.939876 
L 318.45807 231.965454 
L 318.627845 231.673156 
L 318.712733 231.843058 
L 318.882508 232.968869 
L 319.222059 238.15009 
L 320.070935 253.448289 
L 320.580261 259.133267 
L 321.174475 263.363906 
L 321.683801 265.787029 
L 322.278015 267.643911 
L 322.872229 268.851236 
L 323.636218 269.882709 
L 324.485095 270.66447 
L 325.418859 271.23102 
L 326.352623 271.548589 
L 327.965489 271.957716 
L 328.559703 272.447729 
L 329.323692 273.493212 
L 332.634311 278.655781 
L 333.652963 279.610185 
L 335.096054 280.609088 
L 337.81246 282.194857 
L 340.443978 283.451234 
L 343.669709 284.698662 
L 347.914093 286.043718 
L 353.262017 287.468522 
L 361.835672 289.415713 
L 373.380396 291.752707 
L 379.06787 292.76001 
L 386.707761 293.830344 
L 402.07243 295.728336 
L 415.824233 297.232721 
L 463.955545 302.449671 
L 470.322121 303.368769 
L 474.311842 304.131692 
L 478.641113 304.921812 
L 481.612182 305.24429 
L 499.94792 306.703512 
L 511.662419 307.713357 
L 522.443154 308.768201 
L 541.712656 310.499627 
L 558.605303 312.316077 
L 568.537161 313.701041 
L 574.903737 314.821504 
L 582.798291 316.182665 
L 587.976439 316.803502 
L 594.343015 317.349738 
L 606.142402 318.026334 
L 620.573306 318.577002 
L 639.588146 319.140853 
L 670.911698 319.894607 
L 671.675687 319.911136 
L 671.675687 319.911136 
" clip-path="url(#p1e5fab4789)" style="fill: none; stroke: #1f77b4; stroke-width: 1.5; stroke-linecap: square"/>
   </g>
   <g id="line2d_16">
    <path d="M 60.654199 328.615272 
L 62.351953 328.535195 
L 62.861279 328.198953 
L 64.134594 326.951595 
L 69.227855 321.895925 
L 69.737181 321.776993 
L 70.331394 321.889588 
L 71.519822 322.412809 
L 73.981564 323.510305 
L 74.49089 323.467852 
L 75.000217 323.154978 
L 75.59443 322.433261 
L 76.273532 321.157749 
L 77.461959 318.151091 
L 78.310836 315.121635 
L 79.414376 310.228635 
L 81.281905 300.585784 
L 81.961006 295.771298 
L 83.573872 280.813528 
L 85.780951 261.252633 
L 88.497357 242.496476 
L 89.006683 240.01859 
L 89.516009 238.767678 
L 90.19511 237.597649 
L 90.364886 236.282731 
L 90.704436 230.852651 
L 91.128875 224.484043 
L 91.383538 222.919692 
L 91.553313 222.754922 
L 91.723089 223.099944 
L 92.062639 224.771458 
L 92.741741 229.831168 
L 93.84528 238.040043 
L 93.930168 237.647321 
L 94.099943 235.054336 
L 94.439494 224.368287 
L 96.816349 128.79894 
L 97.665226 106.84997 
L 98.174552 97.365346 
L 99.023429 86.980531 
L 99.70253 80.667535 
L 100.211856 77.47205 
L 100.636294 75.859651 
L 100.975845 75.101465 
L 101.145621 75.087824 
L 101.485171 75.65753 
L 102.164273 77.438244 
L 102.673599 79.22406 
L 103.267812 82.030068 
L 104.031802 86.854323 
L 104.795791 91.832964 
L 105.135341 92.723119 
L 105.305117 92.80421 
L 105.474892 92.691141 
L 105.644667 92.218513 
L 105.89933 91.022864 
L 106.153993 89.035229 
L 106.578432 82.92017 
L 106.917982 74.884638 
L 107.512196 59.040342 
L 107.766859 57.02 
L 107.851747 57.032967 
L 108.021522 57.841494 
L 108.361073 61.459101 
L 109.20995 74.390531 
L 114.812536 161.718607 
L 116.425402 181.674513 
L 117.95338 198.098408 
L 119.566246 212.995713 
L 121.009337 224.54944 
L 122.537315 234.981061 
L 122.791978 235.959985 
L 122.961753 236.019314 
L 123.555967 235.326518 
L 123.725742 235.573907 
L 124.065293 236.734838 
L 124.829282 240.660505 
L 126.527035 249.246992 
L 127.800351 254.516043 
L 129.328329 259.878097 
L 130.346981 262.738651 
L 131.450521 265.23625 
L 132.893611 267.972822 
L 133.6576 268.924452 
L 134.591365 269.726167 
L 135.779792 270.581985 
L 136.543781 270.633792 
L 137.137995 270.488394 
L 138.581085 269.943705 
L 139.260187 269.273223 
L 139.854401 268.64708 
L 140.109064 268.659441 
L 140.363727 268.918717 
L 140.703277 269.594565 
L 141.212603 271.163835 
L 142.316143 275.463729 
L 145.032549 286.124144 
L 146.730302 291.831284 
L 148.25828 296.286553 
L 148.597831 296.784876 
L 148.852494 296.837681 
L 149.107157 296.590907 
L 150.380472 294.716159 
L 150.720023 294.666704 
L 150.974686 294.833282 
L 151.484012 295.59673 
L 152.078226 296.329483 
L 152.587552 296.525865 
L 153.860867 296.716662 
L 154.200418 297.036413 
L 154.624856 297.432627 
L 154.879519 297.432724 
L 155.134182 297.250815 
L 156.577273 295.644656 
L 157.256374 295.660568 
L 157.680812 295.813733 
L 158.275026 296.167777 
L 159.039015 295.981796 
L 159.887892 296.635951 
L 160.057667 296.522789 
L 160.397218 295.912828 
L 160.906544 295.039911 
L 161.585645 294.560749 
L 162.349635 294.227105 
L 162.689185 294.437837 
L 163.198511 295.155535 
L 164.302051 296.893141 
L 164.556714 296.842592 
L 165.235815 296.417006 
L 165.575366 296.346347 
L 165.914917 295.939186 
L 166.339355 295.533874 
L 166.594018 295.580427 
L 166.933569 295.973402 
L 167.867333 297.249269 
L 168.037109 297.147686 
L 168.376659 296.568022 
L 169.140649 295.293742 
L 169.81975 294.088714 
L 170.413964 292.935213 
L 170.668627 292.908015 
L 171.432616 293.560872 
L 171.857054 294.085811 
L 172.36638 294.787401 
L 172.705931 294.871368 
L 173.045482 294.670704 
L 173.46992 294.407353 
L 173.724583 294.475718 
L 174.064134 294.839683 
L 175.167674 296.296625 
L 175.677 296.365845 
L 175.931663 296.26677 
L 176.695652 295.599134 
L 177.289865 295.826706 
L 177.714304 295.574407 
L 178.22363 294.833996 
L 178.902731 293.93401 
L 179.157394 293.951753 
L 179.581833 294.364957 
L 180.685372 295.548153 
L 181.8738 297.445996 
L 182.128463 297.404129 
L 182.468014 297.045961 
L 183.401778 295.588017 
L 183.826216 294.994537 
L 184.080879 294.907062 
L 185.099532 294.952869 
L 185.439082 294.48675 
L 185.948408 293.387062 
L 186.457734 292.399214 
L 186.882173 292.06517 
L 187.900825 291.499343 
L 188.664814 291.549014 
L 188.919477 291.266217 
L 189.428803 290.630761 
L 189.683466 290.672229 
L 191.041669 291.619172 
L 191.72077 291.921024 
L 192.060321 292.398717 
L 192.484759 293.002243 
L 193.503411 293.732154 
L 194.352288 295.071782 
L 194.606951 294.87347 
L 194.946502 294.149942 
L 195.540716 292.79686 
L 195.795379 292.760426 
L 196.134929 293.093189 
L 196.898918 293.904678 
L 197.662907 294.278073 
L 197.917571 294.197479 
L 198.257121 293.623991 
L 198.851335 292.633194 
L 199.105998 292.594342 
L 199.360661 292.858086 
L 199.785099 293.754328 
L 203.689932 303.472339 
L 205.472574 307.008005 
L 207.255215 310.046481 
L 208.698305 312.193576 
L 208.783193 312.03711 
L 208.952968 310.931417 
L 209.207631 307.252965 
L 209.716957 295.228665 
L 210.990273 263.626361 
L 211.669374 251.849091 
L 212.772914 236.551551 
L 213.536903 228.706739 
L 214.216004 223.719526 
L 214.895106 220.820401 
L 215.743982 218.152307 
L 216.253308 217.214218 
L 216.592859 216.861206 
L 217.017297 216.728966 
L 217.271961 216.875961 
L 217.866174 217.798958 
L 218.884826 219.906693 
L 219.224377 220.534076 
L 219.394152 220.487158 
L 219.563928 220.269402 
L 219.818591 219.372246 
L 220.243029 216.481091 
L 220.667468 212.429709 
L 221.007018 207.369034 
L 221.431457 196.921337 
L 221.855895 180.970938 
L 222.534996 152.563264 
L 222.789659 148.834417 
L 222.959435 148.245734 
L 223.044322 148.355144 
L 223.214098 149.165019 
L 223.553648 152.207001 
L 225.845616 177.986938 
L 229.665561 219.111449 
L 231.363315 233.828628 
L 233.061068 246.569546 
L 234.419271 255.3045 
L 235.353035 259.896168 
L 236.117024 262.472165 
L 237.135677 265.511849 
L 238.493879 270.224212 
L 239.257868 271.997653 
L 239.682307 272.506661 
L 240.276521 272.916894 
L 240.870734 273.734589 
L 241.295173 274.185084 
L 241.719611 274.144606 
L 242.059162 273.975382 
L 242.738263 273.288317 
L 243.247589 272.882181 
L 243.58714 272.877336 
L 243.926691 273.204355 
L 244.351129 274.0392 
L 245.794219 277.203366 
L 246.13377 277.303439 
L 246.473321 277.071485 
L 246.982647 276.731638 
L 247.23731 276.788859 
L 247.491973 277.114626 
L 248.510625 278.989863 
L 249.274614 279.415242 
L 250.038603 280.481201 
L 250.293266 280.36209 
L 250.717705 279.788052 
L 250.972368 279.536785 
L 251.142143 279.549857 
L 251.396806 279.871282 
L 251.906132 280.596639 
L 252.160795 280.640202 
L 252.415458 280.39583 
L 253.009672 279.632625 
L 253.179447 279.683056 
L 253.43411 280.023553 
L 253.858549 281.074265 
L 254.877201 283.870719 
L 255.216751 284.030129 
L 255.471414 284.191052 
L 255.810965 284.740817 
L 256.74473 286.634488 
L 257.08428 286.620447 
L 257.423831 286.316928 
L 257.933157 285.76885 
L 258.272708 285.711514 
L 258.697146 285.916306 
L 260.310012 286.959836 
L 260.564675 286.817456 
L 261.074001 286.121351 
L 261.498439 285.630481 
L 261.83799 285.525614 
L 262.94153 285.680348 
L 263.281081 285.980788 
L 264.129957 287.021319 
L 264.724171 286.956385 
L 265.063722 287.325435 
L 265.827711 288.6259 
L 266.421925 289.563974 
L 266.5917 289.524234 
L 267.016138 288.993375 
L 267.440577 288.562375 
L 267.780127 288.536826 
L 268.204566 288.645929 
L 268.544116 288.380611 
L 268.883667 288.152065 
L 269.13833 288.235637 
L 269.732544 288.633915 
L 270.072095 288.583556 
L 270.496533 288.252528 
L 270.836084 287.657214 
L 271.430297 286.075104 
L 271.854736 285.11823 
L 272.109399 285.051842 
L 272.364062 285.345682 
L 273.043163 286.699168 
L 274.316478 289.396288 
L 274.571141 289.438547 
L 275.674681 289.021845 
L 276.014232 288.522431 
L 276.523558 287.260115 
L 277.032884 286.188199 
L 277.287547 285.98008 
L 277.457322 286.029857 
L 277.796873 286.535141 
L 278.730638 288.263476 
L 279.579514 288.943394 
L 279.834177 289.201426 
L 280.003953 289.168285 
L 280.258616 288.873449 
L 280.767942 287.721991 
L 281.107492 287.258576 
L 281.362155 287.350672 
L 282.126145 288.028706 
L 282.380808 287.901522 
L 283.144797 287.157042 
L 283.484347 287.084154 
L 283.823898 286.642972 
L 284.333224 286.054504 
L 284.587887 286.098748 
L 284.84255 286.44381 
L 285.266989 287.507218 
L 289.341597 299.427062 
L 291.03935 303.349921 
L 292.821992 306.916962 
L 293.161542 307.34894 
L 293.331318 307.264866 
L 293.670868 306.598335 
L 294.010419 306.051018 
L 294.265082 305.992248 
L 294.519745 306.185089 
L 295.029071 306.94131 
L 297.745477 311.388486 
L 298.679241 312.609635 
L 298.933904 312.619695 
L 299.613006 312.343978 
L 299.952556 312.536024 
L 300.631658 313.300104 
L 302.329411 315.263541 
L 302.923625 315.605986 
L 303.348063 315.65411 
L 303.772502 315.496132 
L 304.281828 315.028653 
L 304.876042 314.128705 
L 305.724918 312.222513 
L 306.74357 309.412594 
L 307.592447 306.169688 
L 308.611099 301.465601 
L 309.375088 297.185543 
L 310.05419 290.984017 
L 312.176382 270.715009 
L 315.317226 247.084836 
L 316.505653 240.812043 
L 317.099867 239.137494 
L 317.524305 238.238957 
L 317.694081 236.898014 
L 318.033631 231.446559 
L 318.45807 225.179984 
L 318.712733 223.644215 
L 318.882508 223.474843 
L 319.052283 223.801343 
L 319.391834 225.400655 
L 320.070935 230.307424 
L 321.514026 240.663931 
L 322.957116 249.346847 
L 324.485095 257.231033 
L 325.843297 263.262311 
L 327.371276 268.975426 
L 328.559703 273.778544 
L 331.106333 284.236355 
L 332.549424 289.272076 
L 335.690268 298.228884 
L 337.388021 302.312772 
L 339.085775 305.847796 
L 340.868416 309.049425 
L 342.651057 311.800832 
L 344.518586 314.269231 
L 346.386115 316.375264 
L 348.338531 318.247218 
L 350.375836 319.896031 
L 352.498027 321.335362 
L 354.789995 322.624192 
L 357.251737 323.755498 
L 359.968143 324.757606 
L 363.024099 325.640205 
L 366.419606 326.386157 
L 370.409327 327.027349 
L 375.163037 327.555239 
L 381.020286 327.971005 
L 388.660177 328.278763 
L 399.695575 328.483579 
L 419.134853 328.590046 
L 482.885497 328.615161 
L 671.675687 328.615272 
L 671.675687 328.615272 
" clip-path="url(#p1e5fab4789)" style="fill: none; stroke: #ff7f0e; stroke-width: 1.5; stroke-linecap: square"/>
   </g>
   <g id="patch_3">
    <path d="M 30.103125 342.2 
L 30.103125 43.44 
" style="fill: none; stroke: #000000; stroke-width: 0.8; stroke-linejoin: miter; stroke-linecap: square"/>
   </g>
   <g id="patch_4">
    <path d="M 702.226761 342.2 
L 702.226761 43.44 
" style="fill: none; stroke: #000000; stroke-width: 0.8; stroke-linejoin: miter; stroke-linecap: square"/>
   </g>
   <g id="patch_5">
    <path d="M 30.103125 342.2 
L 702.226761 342.2 
" style="fill: none; stroke: #000000; stroke-width: 0.8; stroke-linejoin: miter; stroke-linecap: square"/>
   </g>
   <g id="patch_6">
    <path d="M 30.103125 43.44 
L 702.226761 43.44 
" style="fill: none; stroke: #000000; stroke-width: 0.8; stroke-linejoin: miter; stroke-linecap: square"/>
   </g>
   <g id="text_15">
    <!-- 1 transformation(s) -->
    <g transform="translate(308.050256 37.44) scale(0.12 -0.12)">
     <defs>
      <path id="DejaVuSans-20" transform="scale(0.015625)"/>
      <path id="DejaVuSans-74" d="M 1172 4494 
L 1172 3500 
L 2356 3500 
L 2356 3053 
L 1172 3053 
L 1172 1153 
Q 1172 725 1289 603 
Q 1406 481 1766 481 
L 2356 481 
L 2356 0 
L 1766 0 
Q 1100 0 847 248 
Q 594 497 594 1153 
L 594 3053 
L 172 3053 
L 172 3500 
L 594 3500 
L 594 4494 
L 1172 4494 
z
" transform="scale(0.015625)"/>
      <path id="DejaVuSans-72" d="M 2631 2963 
Q 2534 3019 2420 3045 
Q 2306 3072 2169 3072 
Q 1681 3072 1420 2755 
Q 1159 2438 1159 1844 
L 1159 0 
L 581 0 
L 581 3500 
L 1159 3500 
L 1159 2956 
Q 1341 3275 1631 3429 
Q 1922 3584 2338 3584 
Q 2397 3584 2469 3576 
Q 2541 3569 2628 3553 
L 2631 2963 
z
" transform="scale(0.015625)"/>
      <path id="DejaVuSans-61" d="M 2194 1759 
Q 1497 1759 1228 1600 
Q 959 1441 959 1056 
Q 959 750 1161 570 
Q 1363 391 1709 391 
Q 2188 391 2477 730 
Q 2766 1069 2766 1631 
L 2766 1759 
L 2194 1759 
z
M 3341 1997 
L 3341 0 
L 2766 0 
L 2766 531 
Q 2569 213 2275 61 
Q 1981 -91 1556 -91 
Q 1019 -91 701 211 
Q 384 513 384 1019 
Q 384 1609 779 1909 
Q 1175 2209 1959 2209 
L 2766 2209 
L 2766 2266 
Q 2766 2663 2505 2880 
Q 2244 3097 1772 3097 
Q 1472 3097 1187 3025 
Q 903 2953 641 2809 
L 641 3341 
Q 956 3463 1253 3523 
Q 1550 3584 1831 3584 
Q 2591 3584 2966 3190 
Q 3341 2797 3341 1997 
z
" transform="scale(0.015625)"/>
      <path id="DejaVuSans-6e" d="M 3513 2113 
L 3513 0 
L 2938 0 
L 2938 2094 
Q 2938 2591 2744 2837 
Q 2550 3084 2163 3084 
Q 1697 3084 1428 2787 
Q 1159 2491 1159 1978 
L 1159 0 
L 581 0 
L 581 3500 
L 1159 3500 
L 1159 2956 
Q 1366 3272 1645 3428 
Q 1925 3584 2291 3584 
Q 2894 3584 3203 3211 
Q 3513 2838 3513 2113 
z
" transform="scale(0.015625)"/>
      <path id="DejaVuSans-73" d="M 2834 3397 
L 2834 2853 
Q 2591 2978 2328 3040 
Q 2066 3103 1784 3103 
Q 1356 3103 1142 2972 
Q 928 2841 928 2578 
Q 928 2378 1081 2264 
Q 1234 2150 1697 2047 
L 1894 2003 
Q 2506 1872 2764 1633 
Q 3022 1394 3022 966 
Q 3022 478 2636 193 
Q 2250 -91 1575 -91 
Q 1294 -91 989 -36 
Q 684 19 347 128 
L 347 722 
Q 666 556 975 473 
Q 1284 391 1588 391 
Q 1994 391 2212 530 
Q 2431 669 2431 922 
Q 2431 1156 2273 1281 
Q 2116 1406 1581 1522 
L 1381 1569 
Q 847 1681 609 1914 
Q 372 2147 372 2553 
Q 372 3047 722 3315 
Q 1072 3584 1716 3584 
Q 2034 3584 2315 3537 
Q 2597 3491 2834 3397 
z
" transform="scale(0.015625)"/>
      <path id="DejaVuSans-66" d="M 2375 4863 
L 2375 4384 
L 1825 4384 
Q 1516 4384 1395 4259 
Q 1275 4134 1275 3809 
L 1275 3500 
L 2222 3500 
L 2222 3053 
L 1275 3053 
L 1275 0 
L 697 0 
L 697 3053 
L 147 3053 
L 147 3500 
L 697 3500 
L 697 3744 
Q 697 4328 969 4595 
Q 1241 4863 1831 4863 
L 2375 4863 
z
" transform="scale(0.015625)"/>
      <path id="DejaVuSans-6f" d="M 1959 3097 
Q 1497 3097 1228 2736 
Q 959 2375 959 1747 
Q 959 1119 1226 758 
Q 1494 397 1959 397 
Q 2419 397 2687 759 
Q 2956 1122 2956 1747 
Q 2956 2369 2687 2733 
Q 2419 3097 1959 3097 
z
M 1959 3584 
Q 2709 3584 3137 3096 
Q 3566 2609 3566 1747 
Q 3566 888 3137 398 
Q 2709 -91 1959 -91 
Q 1206 -91 779 398 
Q 353 888 353 1747 
Q 353 2609 779 3096 
Q 1206 3584 1959 3584 
z
" transform="scale(0.015625)"/>
      <path id="DejaVuSans-6d" d="M 3328 2828 
Q 3544 3216 3844 3400 
Q 4144 3584 4550 3584 
Q 5097 3584 5394 3201 
Q 5691 2819 5691 2113 
L 5691 0 
L 5113 0 
L 5113 2094 
Q 5113 2597 4934 2840 
Q 4756 3084 4391 3084 
Q 3944 3084 3684 2787 
Q 3425 2491 3425 1978 
L 3425 0 
L 2847 0 
L 2847 2094 
Q 2847 2600 2669 2842 
Q 2491 3084 2119 3084 
Q 1678 3084 1418 2786 
Q 1159 2488 1159 1978 
L 1159 0 
L 581 0 
L 581 3500 
L 1159 3500 
L 1159 2956 
Q 1356 3278 1631 3431 
Q 1906 3584 2284 3584 
Q 2666 3584 2933 3390 
Q 3200 3197 3328 2828 
z
" transform="scale(0.015625)"/>
      <path id="DejaVuSans-69" d="M 603 3500 
L 1178 3500 
L 1178 0 
L 603 0 
L 603 3500 
z
M 603 4863 
L 1178 4863 
L 1178 4134 
L 603 4134 
L 603 4863 
z
" transform="scale(0.015625)"/>
      <path id="DejaVuSans-28" d="M 1984 4856 
Q 1566 4138 1362 3434 
Q 1159 2731 1159 2009 
Q 1159 1288 1364 580 
Q 1569 -128 1984 -844 
L 1484 -844 
Q 1016 -109 783 600 
Q 550 1309 550 2009 
Q 550 2706 781 3412 
Q 1013 4119 1484 4856 
L 1984 4856 
z
" transform="scale(0.015625)"/>
      <path id="DejaVuSans-29" d="M 513 4856 
L 1013 4856 
Q 1481 4119 1714 3412 
Q 1947 2706 1947 2009 
Q 1947 1309 1714 600 
Q 1481 -109 1013 -844 
L 513 -844 
Q 928 -128 1133 580 
Q 1338 1288 1338 2009 
Q 1338 2731 1133 3434 
Q 928 4138 513 4856 
z
" transform="scale(0.015625)"/>
     </defs>
     <use xlink:href="#DejaVuSans-31"/>
     <use xlink:href="#DejaVuSans-20" x="63.623047"/>
     <use xlink:href="#DejaVuSans-74" x="95.410156"/>
     <use xlink:href="#DejaVuSans-72" x="134.619141"/>
     <use xlink:href="#DejaVuSans-61" x="175.732422"/>
     <use xlink:href="#DejaVuSans-6e" x="237.011719"/>
     <use xlink:href="#DejaVuSans-73" x="300.390625"/>
     <use xlink:href="#DejaVuSans-66" x="352.490234"/>
     <use xlink:href="#DejaVuSans-6f" x="387.695312"/>
     <use xlink:href="#DejaVuSans-72" x="448.876953"/>
     <use xlink:href="#DejaVuSans-6d" x="488.240234"/>
     <use xlink:href="#DejaVuSans-61" x="585.652344"/>
     <use xlink:href="#DejaVuSans-74" x="646.931641"/>
     <use xlink:href="#DejaVuSans-69" x="686.140625"/>
     <use xlink:href="#DejaVuSans-6f" x="713.923828"/>
     <use xlink:href="#DejaVuSans-6e" x="775.105469"/>
     <use xlink:href="#DejaVuSans-28" x="838.484375"/>
     <use xlink:href="#DejaVuSans-73" x="877.498047"/>
     <use xlink:href="#DejaVuSans-29" x="929.597656"/>
    </g>
   </g>
   <g id="legend_1">
    <g id="patch_7">
     <path d="M 613.833011 80.79625 
L 695.226761 80.79625 
Q 697.226761 80.79625 697.226761 78.79625 
L 697.226761 50.44 
Q 697.226761 48.44 695.226761 48.44 
L 613.833011 48.44 
Q 611.833011 48.44 611.833011 50.44 
L 611.833011 78.79625 
Q 611.833011 80.79625 613.833011 80.79625 
z
" style="fill: #ffffff; opacity: 0.8; stroke: #cccccc; stroke-linejoin: miter"/>
    </g>
    <g id="line2d_17">
     <path d="M 615.833011 56.538437 
L 625.833011 56.538437 
L 635.833011 56.538437 
" style="fill: none; stroke: #1f77b4; stroke-width: 1.5; stroke-linecap: square"/>
    </g>
    <g id="text_16">
     <!-- observed -->
     <g transform="translate(643.833011 60.038437) scale(0.1 -0.1)">
      <defs>
       <path id="DejaVuSans-62" d="M 3116 1747 
Q 3116 2381 2855 2742 
Q 2594 3103 2138 3103 
Q 1681 3103 1420 2742 
Q 1159 2381 1159 1747 
Q 1159 1113 1420 752 
Q 1681 391 2138 391 
Q 2594 391 2855 752 
Q 3116 1113 3116 1747 
z
M 1159 2969 
Q 1341 3281 1617 3432 
Q 1894 3584 2278 3584 
Q 2916 3584 3314 3078 
Q 3713 2572 3713 1747 
Q 3713 922 3314 415 
Q 2916 -91 2278 -91 
Q 1894 -91 1617 61 
Q 1341 213 1159 525 
L 1159 0 
L 581 0 
L 581 4863 
L 1159 4863 
L 1159 2969 
z
" transform="scale(0.015625)"/>
       <path id="DejaVuSans-65" d="M 3597 1894 
L 3597 1613 
L 953 1613 
Q 991 1019 1311 708 
Q 1631 397 2203 397 
Q 2534 397 2845 478 
Q 3156 559 3463 722 
L 3463 178 
Q 3153 47 2828 -22 
Q 2503 -91 2169 -91 
Q 1331 -91 842 396 
Q 353 884 353 1716 
Q 353 2575 817 3079 
Q 1281 3584 2069 3584 
Q 2775 3584 3186 3129 
Q 3597 2675 3597 1894 
z
M 3022 2063 
Q 3016 2534 2758 2815 
Q 2500 3097 2075 3097 
Q 1594 3097 1305 2825 
Q 1016 2553 972 2059 
L 3022 2063 
z
" transform="scale(0.015625)"/>
       <path id="DejaVuSans-76" d="M 191 3500 
L 800 3500 
L 1894 563 
L 2988 3500 
L 3597 3500 
L 2284 0 
L 1503 0 
L 191 3500 
z
" transform="scale(0.015625)"/>
       <path id="DejaVuSans-64" d="M 2906 2969 
L 2906 4863 
L 3481 4863 
L 3481 0 
L 2906 0 
L 2906 525 
Q 2725 213 2448 61 
Q 2172 -91 1784 -91 
Q 1150 -91 751 415 
Q 353 922 353 1747 
Q 353 2572 751 3078 
Q 1150 3584 1784 3584 
Q 2172 3584 2448 3432 
Q 2725 3281 2906 2969 
z
M 947 1747 
Q 947 1113 1208 752 
Q 1469 391 1925 391 
Q 2381 391 2643 752 
Q 2906 1113 2906 1747 
Q 2906 2381 2643 2742 
Q 2381 3103 1925 3103 
Q 1469 3103 1208 2742 
Q 947 2381 947 1747 
z
" transform="scale(0.015625)"/>
      </defs>
      <use xlink:href="#DejaVuSans-6f"/>
      <use xlink:href="#DejaVuSans-62" x="61.181641"/>
      <use xlink:href="#DejaVuSans-73" x="124.658203"/>
      <use xlink:href="#DejaVuSans-65" x="176.757812"/>
      <use xlink:href="#DejaVuSans-72" x="238.28125"/>
      <use xlink:href="#DejaVuSans-76" x="279.394531"/>
      <use xlink:href="#DejaVuSans-65" x="338.574219"/>
      <use xlink:href="#DejaVuSans-64" x="400.097656"/>
     </g>
    </g>
    <g id="line2d_18">
     <path d="M 615.833011 71.216563 
L 625.833011 71.216563 
L 635.833011 71.216563 
" style="fill: none; stroke: #ff7f0e; stroke-width: 1.5; stroke-linecap: square"/>
    </g>
    <g id="text_17">
     <!-- simulated -->
     <g transform="translate(643.833011 74.716563) scale(0.1 -0.1)">
      <defs>
       <path id="DejaVuSans-75" d="M 544 1381 
L 544 3500 
L 1119 3500 
L 1119 1403 
Q 1119 906 1312 657 
Q 1506 409 1894 409 
Q 2359 409 2629 706 
Q 2900 1003 2900 1516 
L 2900 3500 
L 3475 3500 
L 3475 0 
L 2900 0 
L 2900 538 
Q 2691 219 2414 64 
Q 2138 -91 1772 -91 
Q 1169 -91 856 284 
Q 544 659 544 1381 
z
M 1991 3584 
L 1991 3584 
z
" transform="scale(0.015625)"/>
       <path id="DejaVuSans-6c" d="M 603 4863 
L 1178 4863 
L 1178 0 
L 603 0 
L 603 4863 
z
" transform="scale(0.015625)"/>
      </defs>
      <use xlink:href="#DejaVuSans-73"/>
      <use xlink:href="#DejaVuSans-69" x="52.099609"/>
      <use xlink:href="#DejaVuSans-6d" x="79.882812"/>
      <use xlink:href="#DejaVuSans-75" x="177.294922"/>
      <use xlink:href="#DejaVuSans-6c" x="240.673828"/>
      <use xlink:href="#DejaVuSans-61" x="268.457031"/>
      <use xlink:href="#DejaVuSans-74" x="329.736328"/>
      <use xlink:href="#DejaVuSans-65" x="368.945312"/>
      <use xlink:href="#DejaVuSans-64" x="430.46875"/>
     </g>
    </g>
   </g>
  </g>
  <g id="axes_2">
   <g id="patch_8">
    <path d="M 30.103125 684.92 
L 702.226761 684.92 
L 702.226761 386.16 
L 30.103125 386.16 
z
" style="fill: #ffffff"/>
   </g>
   <g id="matplotlib.axis_3">
    <g id="xtick_7">
     <g id="line2d_19">
      <g>
       <use xlink:href="#m85e9380287" x="60.484424" y="684.92" style="stroke: #000000; stroke-width: 0.8"/>
      </g>
     </g>
     <g id="text_18">
      <!-- 2014-07-01 -->
      <g transform="translate(31.426612 699.518437) scale(0.1 -0.1)">
       <use xlink:href="#DejaVuSans-32"/>
       <use xlink:href="#DejaVuSans-30" x="63.623047"/>
       <use xlink:href="#DejaVuSans-31" x="127.246094"/>
       <use xlink:href="#DejaVuSans-34" x="190.869141"/>
       <use xlink:href="#DejaVuSans-2d" x="254.492188"/>
       <use xlink:href="#DejaVuSans-30" x="290.576172"/>
       <use xlink:href="#DejaVuSans-37" x="354.199219"/>
       <use xlink:href="#DejaVuSans-2d" x="417.822266"/>
       <use xlink:href="#DejaVuSans-30" x="453.90625"/>
       <use xlink:href="#DejaVuSans-31" x="517.529297"/>
      </g>
     </g>
    </g>
    <g id="xtick_8">
     <g id="line2d_20">
      <g>
       <use xlink:href="#m85e9380287" x="182.722677" y="684.92" style="stroke: #000000; stroke-width: 0.8"/>
      </g>
     </g>
     <g id="text_19">
      <!-- 2014-07-02 -->
      <g transform="translate(153.664864 699.518437) scale(0.1 -0.1)">
       <use xlink:href="#DejaVuSans-32"/>
       <use xlink:href="#DejaVuSans-30" x="63.623047"/>
       <use xlink:href="#DejaVuSans-31" x="127.246094"/>
       <use xlink:href="#DejaVuSans-34" x="190.869141"/>
       <use xlink:href="#DejaVuSans-2d" x="254.492188"/>
       <use xlink:href="#DejaVuSans-30" x="290.576172"/>
       <use xlink:href="#DejaVuSans-37" x="354.199219"/>
       <use xlink:href="#DejaVuSans-2d" x="417.822266"/>
       <use xlink:href="#DejaVuSans-30" x="453.90625"/>
       <use xlink:href="#DejaVuSans-32" x="517.529297"/>
      </g>
     </g>
    </g>
    <g id="xtick_9">
     <g id="line2d_21">
      <g>
       <use xlink:href="#m85e9380287" x="304.960929" y="684.92" style="stroke: #000000; stroke-width: 0.8"/>
      </g>
     </g>
     <g id="text_20">
      <!-- 2014-07-03 -->
      <g transform="translate(275.903117 699.518437) scale(0.1 -0.1)">
       <use xlink:href="#DejaVuSans-32"/>
       <use xlink:href="#DejaVuSans-30" x="63.623047"/>
       <use xlink:href="#DejaVuSans-31" x="127.246094"/>
       <use xlink:href="#DejaVuSans-34" x="190.869141"/>
       <use xlink:href="#DejaVuSans-2d" x="254.492188"/>
       <use xlink:href="#DejaVuSans-30" x="290.576172"/>
       <use xlink:href="#DejaVuSans-37" x="354.199219"/>
       <use xlink:href="#DejaVuSans-2d" x="417.822266"/>
       <use xlink:href="#DejaVuSans-30" x="453.90625"/>
       <use xlink:href="#DejaVuSans-33" x="517.529297"/>
      </g>
     </g>
    </g>
    <g id="xtick_10">
     <g id="line2d_22">
      <g>
       <use xlink:href="#m85e9380287" x="427.199182" y="684.92" style="stroke: #000000; stroke-width: 0.8"/>
      </g>
     </g>
     <g id="text_21">
      <!-- 2014-07-04 -->
      <g transform="translate(398.141369 699.518437) scale(0.1 -0.1)">
       <use xlink:href="#DejaVuSans-32"/>
       <use xlink:href="#DejaVuSans-30" x="63.623047"/>
       <use xlink:href="#DejaVuSans-31" x="127.246094"/>
       <use xlink:href="#DejaVuSans-34" x="190.869141"/>
       <use xlink:href="#DejaVuSans-2d" x="254.492188"/>
       <use xlink:href="#DejaVuSans-30" x="290.576172"/>
       <use xlink:href="#DejaVuSans-37" x="354.199219"/>
       <use xlink:href="#DejaVuSans-2d" x="417.822266"/>
       <use xlink:href="#DejaVuSans-30" x="453.90625"/>
       <use xlink:href="#DejaVuSans-34" x="517.529297"/>
      </g>
     </g>
    </g>
    <g id="xtick_11">
     <g id="line2d_23">
      <g>
       <use xlink:href="#m85e9380287" x="549.437434" y="684.92" style="stroke: #000000; stroke-width: 0.8"/>
      </g>
     </g>
     <g id="text_22">
      <!-- 2014-07-05 -->
      <g transform="translate(520.379622 699.518437) scale(0.1 -0.1)">
       <use xlink:href="#DejaVuSans-32"/>
       <use xlink:href="#DejaVuSans-30" x="63.623047"/>
       <use xlink:href="#DejaVuSans-31" x="127.246094"/>
       <use xlink:href="#DejaVuSans-34" x="190.869141"/>
       <use xlink:href="#DejaVuSans-2d" x="254.492188"/>
       <use xlink:href="#DejaVuSans-30" x="290.576172"/>
       <use xlink:href="#DejaVuSans-37" x="354.199219"/>
       <use xlink:href="#DejaVuSans-2d" x="417.822266"/>
       <use xlink:href="#DejaVuSans-30" x="453.90625"/>
       <use xlink:href="#DejaVuSans-35" x="517.529297"/>
      </g>
     </g>
    </g>
    <g id="xtick_12">
     <g id="line2d_24">
      <g>
       <use xlink:href="#m85e9380287" x="671.675687" y="684.92" style="stroke: #000000; stroke-width: 0.8"/>
      </g>
     </g>
     <g id="text_23">
      <!-- 2014-07-06 -->
      <g transform="translate(642.617874 699.518437) scale(0.1 -0.1)">
       <use xlink:href="#DejaVuSans-32"/>
       <use xlink:href="#DejaVuSans-30" x="63.623047"/>
       <use xlink:href="#DejaVuSans-31" x="127.246094"/>
       <use xlink:href="#DejaVuSans-34" x="190.869141"/>
       <use xlink:href="#DejaVuSans-2d" x="254.492188"/>
       <use xlink:href="#DejaVuSans-30" x="290.576172"/>
       <use xlink:href="#DejaVuSans-37" x="354.199219"/>
       <use xlink:href="#DejaVuSans-2d" x="417.822266"/>
       <use xlink:href="#DejaVuSans-30" x="453.90625"/>
       <use xlink:href="#DejaVuSans-36" x="517.529297"/>
      </g>
     </g>
    </g>
   </g>
   <g id="matplotlib.axis_4">
    <g id="ytick_9">
     <g id="line2d_25">
      <g>
       <use xlink:href="#m4f3bca2c11" x="30.103125" y="671.339699" style="stroke: #000000; stroke-width: 0.8"/>
      </g>
     </g>
     <g id="text_24">
      <!-- 0.0 -->
      <g transform="translate(7.2 675.138917) scale(0.1 -0.1)">
       <use xlink:href="#DejaVuSans-30"/>
       <use xlink:href="#DejaVuSans-2e" x="63.623047"/>
       <use xlink:href="#DejaVuSans-30" x="95.410156"/>
      </g>
     </g>
    </g>
    <g id="ytick_10">
     <g id="line2d_26">
      <g>
       <use xlink:href="#m4f3bca2c11" x="30.103125" y="630.997632" style="stroke: #000000; stroke-width: 0.8"/>
      </g>
     </g>
     <g id="text_25">
      <!-- 0.5 -->
      <g transform="translate(7.2 634.796851) scale(0.1 -0.1)">
       <use xlink:href="#DejaVuSans-30"/>
       <use xlink:href="#DejaVuSans-2e" x="63.623047"/>
       <use xlink:href="#DejaVuSans-35" x="95.410156"/>
      </g>
     </g>
    </g>
    <g id="ytick_11">
     <g id="line2d_27">
      <g>
       <use xlink:href="#m4f3bca2c11" x="30.103125" y="590.655565" style="stroke: #000000; stroke-width: 0.8"/>
      </g>
     </g>
     <g id="text_26">
      <!-- 1.0 -->
      <g transform="translate(7.2 594.454784) scale(0.1 -0.1)">
       <use xlink:href="#DejaVuSans-31"/>
       <use xlink:href="#DejaVuSans-2e" x="63.623047"/>
       <use xlink:href="#DejaVuSans-30" x="95.410156"/>
      </g>
     </g>
    </g>
    <g id="ytick_12">
     <g id="line2d_28">
      <g>
       <use xlink:href="#m4f3bca2c11" x="30.103125" y="550.313498" style="stroke: #000000; stroke-width: 0.8"/>
      </g>
     </g>
     <g id="text_27">
      <!-- 1.5 -->
      <g transform="translate(7.2 554.112717) scale(0.1 -0.1)">
       <use xlink:href="#DejaVuSans-31"/>
       <use xlink:href="#DejaVuSans-2e" x="63.623047"/>
       <use xlink:href="#DejaVuSans-35" x="95.410156"/>
      </g>
     </g>
    </g>
    <g id="ytick_13">
     <g id="line2d_29">
      <g>
       <use xlink:href="#m4f3bca2c11" x="30.103125" y="509.971431" style="stroke: #000000; stroke-width: 0.8"/>
      </g>
     </g>
     <g id="text_28">
      <!-- 2.0 -->
      <g transform="translate(7.2 513.77065) scale(0.1 -0.1)">
       <use xlink:href="#DejaVuSans-32"/>
       <use xlink:href="#DejaVuSans-2e" x="63.623047"/>
       <use xlink:href="#DejaVuSans-30" x="95.410156"/>
      </g>
     </g>
    </g>
    <g id="ytick_14">
     <g id="line2d_30">
      <g>
       <use xlink:href="#m4f3bca2c11" x="30.103125" y="469.629364" style="stroke: #000000; stroke-width: 0.8"/>
      </g>
     </g>
     <g id="text_29">
      <!-- 2.5 -->
      <g transform="translate(7.2 473.428583) scale(0.1 -0.1)">
       <use xlink:href="#DejaVuSans-32"/>
       <use xlink:href="#DejaVuSans-2e" x="63.623047"/>
       <use xlink:href="#DejaVuSans-35" x="95.410156"/>
      </g>
     </g>
    </g>
    <g id="ytick_15">
     <g id="line2d_31">
      <g>
       <use xlink:href="#m4f3bca2c11" x="30.103125" y="429.287297" style="stroke: #000000; stroke-width: 0.8"/>
      </g>
     </g>
     <g id="text_30">
      <!-- 3.0 -->
      <g transform="translate(7.2 433.086516) scale(0.1 -0.1)">
       <use xlink:href="#DejaVuSans-33"/>
       <use xlink:href="#DejaVuSans-2e" x="63.623047"/>
       <use xlink:href="#DejaVuSans-30" x="95.410156"/>
      </g>
     </g>
    </g>
    <g id="ytick_16">
     <g id="line2d_32">
      <g>
       <use xlink:href="#m4f3bca2c11" x="30.103125" y="388.94523" style="stroke: #000000; stroke-width: 0.8"/>
      </g>
     </g>
     <g id="text_31">
      <!-- 3.5 -->
      <g transform="translate(7.2 392.744449) scale(0.1 -0.1)">
       <use xlink:href="#DejaVuSans-33"/>
       <use xlink:href="#DejaVuSans-2e" x="63.623047"/>
       <use xlink:href="#DejaVuSans-35" x="95.410156"/>
      </g>
     </g>
    </g>
   </g>
   <g id="line2d_33">
    <path d="M 60.654199 671.339699 
L 70.416282 671.241861 
L 71.095383 671.011876 
L 71.60471 670.619315 
L 72.114036 669.952718 
L 72.708249 668.778769 
L 73.472238 666.785473 
L 75.424655 661.180072 
L 77.461959 656.518936 
L 78.310836 655.017671 
L 78.820162 653.904615 
L 79.159713 652.640635 
L 79.499263 649.973108 
L 79.838814 644.415829 
L 80.263252 632.473427 
L 81.112129 608.450754 
L 81.45168 603.908681 
L 83.404096 587.07776 
L 83.99831 584.293311 
L 84.677412 582.332611 
L 85.271625 581.302751 
L 85.611176 581.076144 
L 85.950727 581.131612 
L 86.629828 581.412332 
L 86.884491 581.310869 
L 87.393817 580.671569 
L 88.157806 579.65102 
L 88.412469 579.587904 
L 88.582245 579.730794 
L 88.836908 580.281903 
L 89.261346 582.016929 
L 89.770672 584.111756 
L 89.85556 584.186759 
L 89.940447 584.079707 
L 90.110223 583.23675 
L 90.364886 580.230378 
L 91.043987 570.319818 
L 91.213763 569.397356 
L 91.29865 569.346129 
L 91.468426 570.166146 
L 91.723089 573.804595 
L 92.232415 584.390879 
L 92.826628 594.614971 
L 93.335954 599.987079 
L 93.50573 600.789827 
L 93.590617 600.692177 
L 93.760393 598.600808 
L 94.015056 589.546411 
L 94.94882 540.992655 
L 95.967472 476.001006 
L 96.901237 418.240778 
L 97.750114 402.602002 
L 98.089664 400.164898 
L 98.344327 399.74 
L 98.514103 400.003311 
L 98.768766 401.009269 
L 99.193204 403.647126 
L 99.872305 408.460122 
L 100.126968 408.790838 
L 100.721182 408.845124 
L 100.890958 409.124766 
L 101.060733 409.980756 
L 101.400284 414.098503 
L 101.739834 421.114129 
L 102.758486 449.660988 
L 103.013149 461.88673 
L 103.777138 505.409991 
L 104.45624 520.146504 
L 104.965566 525.908364 
L 105.305117 527.428315 
L 105.390004 527.469414 
L 105.55978 527.001955 
L 105.729555 525.836381 
L 105.89933 523.635705 
L 106.238881 513.781989 
L 107.00287 483.812814 
L 107.427309 461.274217 
L 107.936635 431.782226 
L 108.276185 425.791219 
L 108.361073 425.501842 
L 108.445961 425.65914 
L 108.615736 427.161865 
L 108.870399 431.972668 
L 109.294837 444.785703 
L 109.464613 452.71122 
L 109.719276 474.620934 
L 110.143714 510.897894 
L 110.65304 534.867819 
L 111.162366 549.897372 
L 111.75658 561.1392 
L 112.265906 567.575179 
L 112.775232 571.35038 
L 113.284558 573.233008 
L 116.849841 581.878743 
L 117.868493 583.662167 
L 118.972032 585.170471 
L 120.500011 586.845218 
L 121.688438 587.836576 
L 122.112876 588.040859 
L 122.367539 587.917024 
L 122.622202 587.289661 
L 122.876865 586.042562 
L 123.555967 581.817022 
L 123.81063 581.114723 
L 123.980405 581.034785 
L 124.150181 581.22164 
L 124.489731 582.154451 
L 125.083945 584.424033 
L 125.932822 587.261287 
L 126.442148 588.406355 
L 127.036362 589.271828 
L 127.630575 589.777693 
L 128.56434 590.215297 
L 129.752767 590.571309 
L 130.601644 590.561161 
L 133.572713 590.129617 
L 135.015803 589.562214 
L 135.86468 589.306348 
L 136.628669 588.759115 
L 137.817096 587.838115 
L 139.005524 587.128641 
L 139.599738 586.700963 
L 139.854401 586.768474 
L 140.109064 587.100488 
L 140.448614 587.996086 
L 140.95794 590.028288 
L 142.740582 597.697174 
L 143.589458 600.217418 
L 144.438335 602.059207 
L 145.372099 603.54357 
L 146.475639 604.866601 
L 147.833842 606.145228 
L 148.428056 606.504818 
L 148.767606 606.509055 
L 149.022269 606.324095 
L 149.36182 605.738432 
L 149.786259 604.437937 
L 150.804911 601.075794 
L 151.144461 600.688421 
L 151.399124 600.680053 
L 151.738675 600.928523 
L 152.927103 602.041418 
L 153.606204 602.193507 
L 154.285305 602.394457 
L 154.879519 602.542685 
L 155.21907 602.384733 
L 155.643508 601.835615 
L 156.577273 600.407783 
L 156.916823 600.263471 
L 157.256374 600.365992 
L 157.680812 600.753191 
L 158.699464 601.811117 
L 159.97278 602.711395 
L 160.227443 602.622296 
L 160.566993 602.233245 
L 161.755421 600.552996 
L 162.094971 600.464753 
L 162.434522 600.628773 
L 162.774073 601.067286 
L 163.283399 602.147637 
L 164.217163 604.464041 
L 164.641602 605.059221 
L 164.981152 605.177656 
L 165.320703 605.018454 
L 165.745142 604.500014 
L 166.594018 603.369411 
L 166.848681 603.325884 
L 167.188232 603.559791 
L 168.206884 604.589517 
L 168.461547 604.450763 
L 168.801098 603.9407 
L 169.395312 602.448834 
L 170.413964 599.945696 
L 170.668627 599.824135 
L 170.92329 599.994048 
L 171.26284 600.59661 
L 171.857054 602.200326 
L 172.621043 604.109915 
L 173.045482 604.623777 
L 173.46992 604.755836 
L 174.064134 604.882985 
L 174.488572 605.246398 
L 175.592112 606.375399 
L 175.931663 606.364506 
L 176.356101 606.006571 
L 178.478293 603.344062 
L 178.987619 602.675615 
L 179.242282 602.601208 
L 179.496945 602.736297 
L 179.836496 603.172001 
L 180.430709 604.394198 
L 182.043575 607.953011 
L 182.383126 608.143305 
L 182.637789 607.980063 
L 182.97734 607.348304 
L 183.656441 605.230773 
L 184.165767 604.005104 
L 184.505318 603.63869 
L 185.014644 603.501576 
L 185.439082 603.293547 
L 185.863521 602.694207 
L 186.882173 600.988445 
L 187.221723 600.845969 
L 187.561274 600.935386 
L 187.985712 601.310975 
L 188.834589 602.159559 
L 189.343915 602.283881 
L 189.768354 602.449652 
L 190.192792 602.890247 
L 192.909198 606.532975 
L 194.522064 608.12151 
L 194.776727 607.959562 
L 195.03139 607.492454 
L 196.219817 604.645769 
L 196.47448 604.644841 
L 196.814031 604.940594 
L 197.662907 605.971022 
L 198.002458 606.047242 
L 198.257121 605.870102 
L 198.766447 605.082325 
L 199.190886 604.560926 
L 199.445549 604.549307 
L 199.700212 604.812474 
L 200.12465 605.765354 
L 200.973527 608.758039 
L 202.246842 613.501221 
L 203.095719 615.838458 
L 203.944595 617.537747 
L 204.708585 618.669599 
L 205.727237 619.802375 
L 206.915664 620.800827 
L 208.104092 621.554382 
L 208.443642 621.480864 
L 208.613418 621.262947 
L 208.783193 620.661443 
L 209.037856 618.14002 
L 209.292519 611.674831 
L 209.63207 594.508852 
L 210.141396 571.118185 
L 210.820497 557.532694 
L 211.329823 551.378041 
L 211.839149 548.022544 
L 212.263588 546.50546 
L 212.688026 545.657616 
L 212.942689 545.465731 
L 213.197352 545.56882 
L 213.452015 546.034932 
L 213.791566 547.242019 
L 214.216004 549.717692 
L 214.895106 555.664619 
L 215.574207 564.381971 
L 216.168421 571.653578 
L 216.677747 574.872697 
L 218.290613 582.108024 
L 218.715051 583.14983 
L 218.969714 583.289122 
L 219.139489 582.922972 
L 219.394152 581.647644 
L 219.733703 578.606742 
L 220.243029 571.123792 
L 220.922131 556.332513 
L 221.431457 539.724867 
L 222.110558 510.713021 
L 222.704772 488.21055 
L 223.044322 482.279157 
L 223.12921 481.795453 
L 223.214098 481.817325 
L 223.383873 483.136417 
L 223.638536 487.96438 
L 224.062975 501.56802 
L 224.657188 529.473271 
L 225.67584 580.130915 
L 226.185166 589.189428 
L 226.694492 593.270597 
L 227.203819 595.652045 
L 228.052695 598.375961 
L 228.901572 600.346486 
L 229.665561 601.696236 
L 230.853989 603.242686 
L 232.381967 604.72058 
L 233.909945 605.91222 
L 234.843709 606.428112 
L 235.353035 606.504236 
L 235.777474 606.346929 
L 236.201912 605.91475 
L 236.796126 604.933991 
L 237.475227 603.894922 
L 237.984553 603.496339 
L 239.257868 602.711284 
L 239.767194 601.915683 
L 241.125397 599.467806 
L 241.804499 598.256526 
L 242.568488 596.250539 
L 243.162702 594.911869 
L 243.417365 594.690138 
L 243.672028 594.748747 
L 243.926691 595.09075 
L 244.351129 596.132854 
L 245.794219 600.325605 
L 246.048882 600.481599 
L 246.303546 600.356388 
L 246.643096 599.8491 
L 247.322198 598.815527 
L 247.576861 598.792645 
L 247.916411 599.098166 
L 249.019951 600.40648 
L 249.78394 600.86573 
L 250.123491 600.831407 
L 250.463042 600.473539 
L 251.311918 599.274907 
L 251.651469 599.245225 
L 252.245683 599.339267 
L 252.585233 599.107702 
L 253.09456 598.709485 
L 253.349223 598.783546 
L 253.603886 599.1308 
L 254.028324 600.283996 
L 255.216751 603.809598 
L 255.726077 604.536087 
L 256.490067 605.299236 
L 256.829617 605.432762 
L 257.08428 605.336387 
L 257.338943 605.029453 
L 257.933157 603.683636 
L 258.527371 602.434479 
L 258.866921 602.104437 
L 259.206472 602.036623 
L 259.630911 602.188794 
L 260.310012 602.493569 
L 260.564675 602.42552 
L 260.989113 601.964115 
L 261.83799 600.628312 
L 262.177541 600.414824 
L 262.517092 600.442275 
L 262.856642 600.681862 
L 263.365968 601.390134 
L 264.38462 602.979312 
L 265.742823 604.41517 
L 266.421925 605.313135 
L 266.676588 605.406269 
L 266.931251 605.291806 
L 267.355689 604.711549 
L 268.459229 602.977273 
L 268.968555 602.524083 
L 269.392993 602.459294 
L 270.326758 602.549552 
L 270.581421 602.299857 
L 270.920971 601.57809 
L 272.109399 598.536986 
L 272.279174 598.633895 
L 272.533837 599.107596 
L 272.958276 600.544017 
L 274.316478 605.692303 
L 274.740917 606.377924 
L 274.99558 606.471481 
L 275.250243 606.339662 
L 275.589794 605.806856 
L 275.929344 604.902371 
L 276.608446 602.093756 
L 277.117772 600.243229 
L 277.372435 599.858684 
L 277.54221 599.846142 
L 277.796873 600.159901 
L 278.136424 601.040225 
L 279.239964 604.379996 
L 279.664402 605.114661 
L 280.003953 605.301487 
L 280.258616 605.145113 
L 280.598166 604.520664 
L 281.447043 602.608181 
L 281.786594 602.421773 
L 282.975021 602.403826 
L 283.484347 602.021003 
L 284.333224 601.242354 
L 284.587887 601.282481 
L 284.84255 601.576527 
L 285.182101 602.371927 
L 285.776315 604.552385 
L 287.898506 612.906305 
L 288.662496 614.990393 
L 289.511372 616.690442 
L 290.445137 618.032738 
L 291.463789 619.115936 
L 292.652216 620.05461 
L 293.24643 620.302647 
L 293.585981 620.243653 
L 293.925531 619.95003 
L 294.34997 619.265361 
L 295.45351 617.355716 
L 295.79306 617.17065 
L 296.132611 617.217294 
L 296.557049 617.519943 
L 297.321038 618.43485 
L 298.933904 620.409953 
L 299.44323 620.705971 
L 299.952556 620.75451 
L 301.65031 620.641105 
L 302.414299 621.02664 
L 303.517839 621.588757 
L 303.942277 621.582563 
L 304.281828 621.386249 
L 304.621379 620.950021 
L 305.045817 619.961216 
L 305.470255 618.391972 
L 306.064469 615.242816 
L 307.252896 607.322061 
L 308.186661 601.575892 
L 309.290201 595.074759 
L 309.799527 590.246037 
L 310.648403 581.861285 
L 311.242617 578.574944 
L 311.667056 577.352391 
L 312.006606 576.97192 
L 312.346157 576.935534 
L 312.770595 576.925377 
L 313.110146 576.746053 
L 313.70436 576.072426 
L 314.468349 575.139268 
L 314.8079 574.943757 
L 315.14745 574.988367 
L 315.571889 575.329335 
L 316.081215 575.957266 
L 316.505653 576.873553 
L 317.184754 578.602385 
L 317.269642 578.510434 
L 317.439417 577.762563 
L 317.694081 575.036006 
L 318.45807 566.375585 
L 318.627845 566.058142 
L 318.712733 566.24266 
L 318.882508 567.465319 
L 319.222059 573.092254 
L 320.070935 589.706479 
L 320.580261 595.880508 
L 321.174475 600.475087 
L 321.683801 603.106659 
L 322.278015 605.123279 
L 322.872229 606.434465 
L 323.636218 607.55467 
L 324.485095 608.403682 
L 325.418859 609.018969 
L 326.352623 609.363857 
L 327.880602 609.757847 
L 328.389928 610.156544 
L 328.984141 610.919458 
L 330.087681 612.8961 
L 331.700547 615.792377 
L 332.719199 617.182274 
L 333.737851 618.191743 
L 335.265829 619.320085 
L 337.897347 620.974355 
L 340.274202 622.211922 
L 343.924372 623.742049 
L 347.829205 625.079526 
L 353.262017 626.653301 
L 361.581009 628.710338 
L 376.351464 631.912447 
L 381.020286 632.710035 
L 392.734786 634.411632 
L 403.17597 635.761111 
L 415.824233 637.257466 
L 463.615995 642.874294 
L 471.850099 644.205979 
L 480.084204 645.798399 
L 484.328587 646.200526 
L 512.00197 648.67963 
L 520.320962 649.575091 
L 552.917829 652.910228 
L 561.746147 654.07707 
L 571.083792 655.590363 
L 585.684472 658.239489 
L 591.032395 658.822324 
L 598.926949 659.431335 
L 608.604144 659.956752 
L 625.411904 660.607409 
L 654.528377 661.464181 
L 671.675687 661.88679 
L 671.675687 661.88679 
" clip-path="url(#pbe87fbeb17)" style="fill: none; stroke: #1f77b4; stroke-width: 1.5; stroke-linecap: square"/>
   </g>
   <g id="line2d_34">
    <path d="M 60.654199 671.339699 
L 62.182178 671.240576 
L 62.691504 670.901638 
L 63.370605 670.105556 
L 66.087011 666.458471 
L 67.614989 665.33479 
L 68.973192 664.570754 
L 69.39763 664.6013 
L 69.822068 664.852234 
L 70.416282 665.518 
L 71.350046 667.011655 
L 72.368699 668.547987 
L 73.0478 669.177005 
L 73.642014 669.45434 
L 74.066452 669.437593 
L 74.406003 669.255156 
L 74.830441 668.792716 
L 75.339767 667.845562 
L 75.933981 666.188319 
L 76.782858 663.027237 
L 78.056173 657.272318 
L 80.263252 645.926752 
L 81.536568 638.839711 
L 82.215669 633.290747 
L 84.422748 612.593663 
L 85.271625 607.034855 
L 85.780951 604.858052 
L 86.460053 602.989429 
L 87.478705 600.593549 
L 88.157806 599.027163 
L 88.667132 598.110158 
L 88.921795 598.071381 
L 89.261346 598.261343 
L 89.431121 598.536894 
L 89.770672 599.509104 
L 90.025335 600.194976 
L 90.19511 599.62173 
L 90.534661 596.436078 
L 91.128875 590.659191 
L 91.383538 589.574357 
L 91.553313 589.396261 
L 91.723089 589.631439 
L 91.977752 590.6914 
L 92.317302 593.301255 
L 92.741741 598.44466 
L 93.420842 610.537284 
L 93.760393 615.335261 
L 93.84528 615.35969 
L 94.015056 613.943836 
L 94.184831 610.818252 
L 94.524382 597.990621 
L 95.118596 563.52156 
L 96.901237 447.411009 
L 97.325675 434.770316 
L 97.665226 430.331415 
L 97.835001 430.012152 
L 98.004777 430.82464 
L 98.25944 433.204191 
L 98.768766 441.333981 
L 101.994497 497.364998 
L 103.267812 513.502184 
L 104.201577 522.999739 
L 104.710903 526.10959 
L 104.965566 526.537334 
L 105.050454 526.548695 
L 105.305117 525.978225 
L 105.55978 524.255947 
L 105.89933 520.345826 
L 106.323769 511.578327 
L 106.663319 500.663031 
L 107.681972 462.157918 
L 108.021522 457.29256 
L 108.191298 456.653631 
L 108.276185 456.763554 
L 108.445961 457.785895 
L 108.700624 461.192658 
L 109.040174 469.059499 
L 109.5495 486.637107 
L 110.907703 537.541248 
L 111.501917 550.206325 
L 112.096131 558.005289 
L 112.775232 563.930514 
L 113.624109 569.289988 
L 114.30321 572.267318 
L 114.897424 573.936685 
L 115.491638 574.9872 
L 116.255627 575.877753 
L 117.528942 577.077024 
L 119.566246 578.674951 
L 121.60355 580.060662 
L 122.112876 580.266077 
L 122.367539 580.369362 
L 122.537315 580.099513 
L 122.791978 578.934017 
L 124.065293 571.455372 
L 124.489731 570.422887 
L 124.744394 570.181754 
L 124.999057 570.224983 
L 125.25372 570.602878 
L 125.593271 571.680259 
L 126.187485 574.614461 
L 127.036362 578.564699 
L 127.545688 579.88757 
L 127.970126 580.455895 
L 128.56434 580.784518 
L 129.328329 580.926759 
L 130.601644 580.794268 
L 132.723836 580.144063 
L 133.402937 579.809208 
L 134.336702 579.121478 
L 136.374006 577.494939 
L 136.96822 576.82349 
L 139.769513 573.235419 
L 140.024176 573.260968 
L 140.278839 573.54335 
L 140.61839 574.348909 
L 141.042828 576.045852 
L 141.637042 579.475347 
L 143.929009 594.098412 
L 144.60811 596.361581 
L 145.287212 597.886674 
L 146.136089 599.244331 
L 147.324516 600.696369 
L 148.173393 601.467324 
L 148.428056 601.368613 
L 148.682719 601.028211 
L 149.022269 600.022651 
L 149.531596 597.795154 
L 150.550248 593.330948 
L 150.974686 592.379246 
L 151.229349 592.214013 
L 151.484012 592.299715 
L 151.823563 592.744597 
L 152.417776 593.951121 
L 153.351541 595.712672 
L 154.370193 596.722113 
L 154.709744 596.745604 
L 154.964407 596.587048 
L 155.55862 595.784113 
L 156.237722 594.79767 
L 156.831936 594.290136 
L 157.256374 594.116895 
L 157.511037 594.227186 
L 158.529689 595.373602 
L 158.954128 596.118369 
L 159.718117 597.52225 
L 159.97278 597.540347 
L 160.31233 597.1863 
L 161.670533 595.438236 
L 162.094971 595.040447 
L 162.349635 595.02457 
L 162.604298 595.235965 
L 162.943848 595.884321 
L 163.453174 597.462093 
L 164.386939 600.534625 
L 164.896265 601.157814 
L 165.235815 601.387752 
L 165.490479 601.23609 
L 165.914917 600.544099 
L 166.424243 599.754471 
L 166.763794 599.61383 
L 167.018457 599.732495 
L 167.358007 600.156465 
L 167.782446 600.69456 
L 168.121996 600.708672 
L 168.546435 600.493171 
L 168.970873 600.078929 
L 169.480199 599.071583 
L 170.583739 596.155796 
L 170.838402 596.113899 
L 171.093065 596.285208 
L 171.347728 596.690657 
L 171.772166 597.940154 
L 172.705931 601.017457 
L 173.300145 602.031116 
L 175.082786 604.317136 
L 175.761887 604.638429 
L 176.186326 604.35519 
L 176.610764 604.192575 
L 176.950315 604.034131 
L 177.459641 603.440568 
L 178.138742 602.082448 
L 178.648068 601.156372 
L 178.902731 600.991166 
L 179.157394 601.06763 
L 179.66672 601.548954 
L 180.176046 602.423583 
L 180.685372 603.91371 
L 181.8738 607.929561 
L 182.128463 608.148043 
L 182.383126 608.101222 
L 182.722677 607.669857 
L 183.062227 606.892599 
L 184.165767 603.833548 
L 184.675093 603.14672 
L 185.439082 602.363283 
L 186.457734 601.156335 
L 186.96706 600.774131 
L 187.476386 600.428078 
L 187.815937 600.482128 
L 188.155488 600.768855 
L 188.664814 601.307774 
L 189.259028 601.677675 
L 189.683466 602.338848 
L 190.871893 604.312017 
L 191.635883 605.518505 
L 192.654535 607.660324 
L 193.503411 608.943476 
L 194.097625 610.056041 
L 194.352288 610.115129 
L 194.522064 609.992091 
L 194.776727 609.457061 
L 195.710491 607.143064 
L 196.219817 606.705768 
L 196.729143 606.583094 
L 196.983806 606.64233 
L 197.323357 606.942439 
L 197.832683 607.449826 
L 198.172234 607.422782 
L 199.190886 606.963502 
L 199.530436 607.314322 
L 199.954875 608.233911 
L 200.464201 610.026063 
L 201.22819 613.791143 
L 202.161954 618.227269 
L 202.756168 620.017039 
L 203.350382 621.078066 
L 204.029483 621.824826 
L 205.387686 622.90076 
L 207.849429 624.561874 
L 208.019204 624.608058 
L 208.443642 624.827073 
L 208.613418 624.449669 
L 208.783193 623.097233 
L 209.122744 617.714511 
L 209.547182 606.259374 
L 210.311171 578.135701 
L 211.414711 538.3709 
L 211.924037 527.077874 
L 212.263588 523.057331 
L 212.518251 521.667826 
L 212.688026 521.496058 
L 212.857801 521.863813 
L 213.112464 522.989658 
L 213.536903 526.222376 
L 214.300892 533.627978 
L 215.998645 549.752722 
L 217.271961 559.374881 
L 218.630163 567.938755 
L 219.054602 569.996022 
L 219.309265 570.475113 
L 219.394152 570.557634 
L 219.563928 570.279819 
L 219.733703 569.609001 
L 220.073254 567.155045 
L 220.412805 563.154265 
L 220.837243 554.857416 
L 221.261681 541.370529 
L 221.601232 525.682275 
L 222.619884 471.483258 
L 222.959435 463.768999 
L 223.214098 462.028815 
L 223.298985 462.16889 
L 223.468761 463.445163 
L 223.723424 467.76809 
L 224.062975 477.699572 
L 224.572301 499.772492 
L 225.760728 554.572504 
L 226.270054 568.381801 
L 226.77938 576.476768 
L 227.288706 581.18055 
L 227.88292 584.701535 
L 228.646909 587.93605 
L 229.32601 589.98384 
L 230.005112 591.378513 
L 230.853989 592.60127 
L 232.721517 594.783597 
L 234.07972 596.156132 
L 234.673934 596.37388 
L 235.013485 596.263754 
L 235.437923 595.831392 
L 235.777474 595.222196 
L 237.220564 592.234899 
L 237.72989 591.966534 
L 238.324104 591.957399 
L 239.257868 592.104022 
L 239.597419 591.743452 
L 240.785847 589.825607 
L 241.210285 588.976756 
L 242.568488 585.408875 
L 243.332477 583.662676 
L 243.672028 583.349843 
L 243.926691 583.416966 
L 244.181354 583.752692 
L 244.520904 584.620421 
L 245.200006 587.22678 
L 245.794219 589.265583 
L 246.13377 589.855832 
L 246.473321 589.987986 
L 246.812872 589.77499 
L 247.322198 589.433082 
L 247.661748 589.52907 
L 248.086187 589.634884 
L 248.850176 589.801611 
L 249.189726 590.286302 
L 249.78394 591.404624 
L 250.038603 591.540068 
L 250.208379 591.456555 
L 250.547929 590.933809 
L 250.972368 590.308487 
L 251.227031 590.216661 
L 251.906132 590.156872 
L 252.160795 589.882622 
L 252.839897 588.885203 
L 253.09456 588.908429 
L 253.349223 589.23025 
L 253.773661 590.293062 
L 256.150516 597.860754 
L 256.490067 598.416883 
L 256.74473 598.46279 
L 256.999393 598.241768 
L 257.423831 597.314067 
L 258.272708 595.485738 
L 258.866921 594.695555 
L 259.29136 594.316378 
L 259.630911 594.28633 
L 260.564675 594.703837 
L 260.904226 594.479981 
L 262.092653 593.494133 
L 262.686867 593.246818 
L 262.94153 593.336883 
L 263.281081 593.831578 
L 264.38462 596.014568 
L 265.063722 597.403192 
L 266.252149 599.924272 
L 266.506812 599.968514 
L 266.846363 599.74506 
L 268.289453 598.054258 
L 268.798779 597.124107 
L 269.13833 596.931877 
L 269.647656 596.958851 
L 270.072095 597.022327 
L 270.411645 596.917986 
L 270.836084 596.322141 
L 271.175634 595.458204 
L 271.769848 593.880624 
L 272.024511 593.606856 
L 272.279174 593.624471 
L 272.533837 593.87988 
L 272.873388 594.616281 
L 273.297826 596.198535 
L 274.656029 602.074168 
L 275.080467 602.698453 
L 275.33513 602.737462 
L 275.589794 602.380271 
L 275.929344 601.41614 
L 276.693333 597.867016 
L 277.202659 596.05645 
L 277.457322 595.74065 
L 277.627098 595.727103 
L 277.881761 595.993669 
L 278.221311 596.787514 
L 279.239964 599.979088 
L 279.74929 601.719413 
L 280.08884 602.150074 
L 280.258616 602.056222 
L 280.598166 601.42317 
L 281.19238 600.293053 
L 281.786594 599.765376 
L 282.126145 599.4268 
L 282.720358 598.657507 
L 282.975021 598.612826 
L 283.314572 598.645844 
L 283.823898 598.36357 
L 284.248336 598.118364 
L 284.502999 598.194466 
L 284.757662 598.532712 
L 285.097213 599.414475 
L 285.606539 601.527882 
L 286.455416 606.341161 
L 287.558956 612.451678 
L 288.153169 614.547143 
L 288.747383 615.806141 
L 289.426485 616.668103 
L 290.614912 617.707459 
L 292.821992 619.377225 
L 292.991767 619.321049 
L 293.24643 618.861503 
L 294.519745 615.767976 
L 294.859296 615.509557 
L 295.198847 615.505223 
L 295.538397 615.77338 
L 295.877948 616.346761 
L 296.387274 617.724592 
L 297.660589 621.408279 
L 298.339691 622.47827 
L 298.594354 622.582987 
L 298.849017 622.442906 
L 300.037444 621.477475 
L 300.461882 621.476153 
L 300.886321 621.671913 
L 301.395647 622.202305 
L 303.008513 624.36398 
L 303.348063 624.352948 
L 303.687614 624.067762 
L 304.112052 623.375857 
L 304.706266 621.844214 
L 305.555143 618.814621 
L 307.168009 612.227904 
L 308.95065 603.611503 
L 309.544864 599.24018 
L 310.478628 589.63548 
L 311.921719 574.907436 
L 312.515932 571.19159 
L 313.110146 568.775738 
L 313.789247 566.953318 
L 314.8079 564.687146 
L 315.826552 563.392939 
L 316.081215 563.306794 
L 316.420765 563.467831 
L 316.845204 564.18333 
L 317.35453 565.759924 
L 317.439417 565.605813 
L 317.609193 564.600645 
L 318.712733 555.347509 
L 318.882508 555.234603 
L 319.052283 555.548311 
L 319.306946 556.757708 
L 319.646497 559.616013 
L 320.070935 565.046419 
L 320.665149 575.768185 
L 321.768689 596.480134 
L 322.278015 602.071506 
L 322.702453 604.637694 
L 323.126892 605.925537 
L 323.55133 606.497316 
L 324.145544 606.803318 
L 325.588634 607.182223 
L 327.625939 607.710263 
L 328.135265 608.276602 
L 328.729478 609.322473 
L 329.663243 611.538354 
L 330.936558 614.506244 
L 331.700547 615.758894 
L 332.379648 616.494622 
L 333.652963 617.26566 
L 334.841391 618.158087 
L 336.454257 619.740896 
L 337.897347 620.953113 
L 341.547517 623.599644 
L 346.725666 627.104723 
L 352.073589 630.454805 
L 357.591288 633.645532 
L 363.278762 636.674028 
L 369.136012 639.538809 
L 375.163037 642.23969 
L 381.444725 644.810859 
L 387.981076 647.245378 
L 394.77209 649.538398 
L 401.902655 651.711587 
L 409.37277 653.756292 
L 417.267324 655.686144 
L 425.671204 657.508318 
L 434.58441 659.209702 
L 444.091829 660.794483 
L 454.27835 662.263436 
L 465.22886 663.615161 
L 477.113135 664.855355 
L 490.100949 665.984177 
L 504.446966 667.00408 
L 520.405849 667.912137 
L 538.486924 668.713384 
L 559.284405 669.406238 
L 583.732055 669.9908 
L 613.272966 670.466629 
L 650.708431 670.836629 
L 671.675687 670.97027 
L 671.675687 670.97027 
" clip-path="url(#pbe87fbeb17)" style="fill: none; stroke: #ff7f0e; stroke-width: 1.5; stroke-linecap: square"/>
   </g>
   <g id="patch_9">
    <path d="M 30.103125 684.92 
L 30.103125 386.16 
" style="fill: none; stroke: #000000; stroke-width: 0.8; stroke-linejoin: miter; stroke-linecap: square"/>
   </g>
   <g id="patch_10">
    <path d="M 702.226761 684.92 
L 702.226761 386.16 
" style="fill: none; stroke: #000000; stroke-width: 0.8; stroke-linejoin: miter; stroke-linecap: square"/>
   </g>
   <g id="patch_11">
    <path d="M 30.103125 684.92 
L 702.226761 684.92 
" style="fill: none; stroke: #000000; stroke-width: 0.8; stroke-linejoin: miter; stroke-linecap: square"/>
   </g>
   <g id="patch_12">
    <path d="M 30.103125 386.16 
L 702.226761 386.16 
" style="fill: none; stroke: #000000; stroke-width: 0.8; stroke-linejoin: miter; stroke-linecap: square"/>
   </g>
   <g id="text_32">
    <!-- 2 transformation(s) -->
    <g transform="translate(308.050256 380.16) scale(0.12 -0.12)">
     <use xlink:href="#DejaVuSans-32"/>
     <use xlink:href="#DejaVuSans-20" x="63.623047"/>
     <use xlink:href="#DejaVuSans-74" x="95.410156"/>
     <use xlink:href="#DejaVuSans-72" x="134.619141"/>
     <use xlink:href="#DejaVuSans-61" x="175.732422"/>
     <use xlink:href="#DejaVuSans-6e" x="237.011719"/>
     <use xlink:href="#DejaVuSans-73" x="300.390625"/>
     <use xlink:href="#DejaVuSans-66" x="352.490234"/>
     <use xlink:href="#DejaVuSans-6f" x="387.695312"/>
     <use xlink:href="#DejaVuSans-72" x="448.876953"/>
     <use xlink:href="#DejaVuSans-6d" x="488.240234"/>
     <use xlink:href="#DejaVuSans-61" x="585.652344"/>
     <use xlink:href="#DejaVuSans-74" x="646.931641"/>
     <use xlink:href="#DejaVuSans-69" x="686.140625"/>
     <use xlink:href="#DejaVuSans-6f" x="713.923828"/>
     <use xlink:href="#DejaVuSans-6e" x="775.105469"/>
     <use xlink:href="#DejaVuSans-28" x="838.484375"/>
     <use xlink:href="#DejaVuSans-73" x="877.498047"/>
     <use xlink:href="#DejaVuSans-29" x="929.597656"/>
    </g>
   </g>
  </g>
  <g id="text_33">
   <!-- training -->
   <g transform="translate(333.219687 16.318125) scale(0.12 -0.12)">
    <defs>
     <path id="DejaVuSans-67" d="M 2906 1791 
Q 2906 2416 2648 2759 
Q 2391 3103 1925 3103 
Q 1463 3103 1205 2759 
Q 947 2416 947 1791 
Q 947 1169 1205 825 
Q 1463 481 1925 481 
Q 2391 481 2648 825 
Q 2906 1169 2906 1791 
z
M 3481 434 
Q 3481 -459 3084 -895 
Q 2688 -1331 1869 -1331 
Q 1566 -1331 1297 -1286 
Q 1028 -1241 775 -1147 
L 775 -588 
Q 1028 -725 1275 -790 
Q 1522 -856 1778 -856 
Q 2344 -856 2625 -561 
Q 2906 -266 2906 331 
L 2906 616 
Q 2728 306 2450 153 
Q 2172 0 1784 0 
Q 1141 0 747 490 
Q 353 981 353 1791 
Q 353 2603 747 3093 
Q 1141 3584 1784 3584 
Q 2172 3584 2450 3431 
Q 2728 3278 2906 2969 
L 2906 3500 
L 3481 3500 
L 3481 434 
z
" transform="scale(0.015625)"/>
    </defs>
    <use xlink:href="#DejaVuSans-74"/>
    <use xlink:href="#DejaVuSans-72" x="39.208984"/>
    <use xlink:href="#DejaVuSans-61" x="80.322266"/>
    <use xlink:href="#DejaVuSans-69" x="141.601562"/>
    <use xlink:href="#DejaVuSans-6e" x="169.384766"/>
    <use xlink:href="#DejaVuSans-69" x="232.763672"/>
    <use xlink:href="#DejaVuSans-6e" x="260.546875"/>
    <use xlink:href="#DejaVuSans-67" x="323.925781"/>
   </g>
  </g>
 </g>
 <defs>
  <clipPath id="p1e5fab4789">
   <rect x="30.103125" y="43.44" width="672.123636" height="298.76"/>
  </clipPath>
  <clipPath id="pbe87fbeb17">
   <rect x="30.103125" y="386.16" width="672.123636" height="298.76"/>
  </clipPath>
 </defs>
</svg>
