<?xml version="1.0" encoding="utf-8" standalone="no"?>
<!DOCTYPE svg PUBLIC "-//W3C//DTD SVG 1.1//EN"
  "http://www.w3.org/Graphics/SVG/1.1/DTD/svg11.dtd">
<svg xmlns:xlink="http://www.w3.org/1999/xlink" width="709.336136pt" height="708.798125pt" viewBox="0 0 709.336136 708.798125" xmlns="http://www.w3.org/2000/svg" version="1.1">
 <metadata>
  <rdf:RDF xmlns:dc="http://purl.org/dc/elements/1.1/" xmlns:cc="http://creativecommons.org/ns#" xmlns:rdf="http://www.w3.org/1999/02/22-rdf-syntax-ns#">
   <cc:Work>
    <dc:type rdf:resource="http://purl.org/dc/dcmitype/StillImage"/>
    <dc:date>2023-06-13T12:24:28.252029</dc:date>
    <dc:format>image/svg+xml</dc:format>
    <dc:creator>
     <cc:Agent>
      <dc:title>Matplotlib v3.7.1, https://matplotlib.org/</dc:title>
     </cc:Agent>
    </dc:creator>
   </cc:Work>
  </rdf:RDF>
 </metadata>
 <defs>
  <style type="text/css">*{stroke-linejoin: round; stroke-linecap: butt}</style>
 </defs>
 <g id="figure_1">
  <g id="patch_1">
   <path d="M 0 708.798125 
L 709.336136 708.798125 
L 709.336136 0 
L 0 0 
z
" style="fill: #ffffff"/>
  </g>
  <g id="axes_1">
   <g id="patch_2">
    <path d="M 20.5625 342.2 
L 702.136136 342.2 
L 702.136136 43.44 
L 20.5625 43.44 
z
" style="fill: #ffffff"/>
   </g>
   <g id="matplotlib.axis_1">
    <g id="xtick_1">
     <g id="line2d_1">
      <defs>
       <path id="m305e7b49ef" d="M 0 0 
L 0 3.5 
" style="stroke: #000000; stroke-width: 0.8"/>
      </defs>
      <g>
       <use xlink:href="#m305e7b49ef" x="51.370957" y="342.2" style="stroke: #000000; stroke-width: 0.8"/>
      </g>
     </g>
     <g id="text_1">
      <!-- 2014-07-01 -->
      <g transform="translate(22.313145 356.798437) scale(0.1 -0.1)">
       <defs>
        <path id="DejaVuSans-32" d="M 1228 531 
L 3431 531 
L 3431 0 
L 469 0 
L 469 531 
Q 828 903 1448 1529 
Q 2069 2156 2228 2338 
Q 2531 2678 2651 2914 
Q 2772 3150 2772 3378 
Q 2772 3750 2511 3984 
Q 2250 4219 1831 4219 
Q 1534 4219 1204 4116 
Q 875 4013 500 3803 
L 500 4441 
Q 881 4594 1212 4672 
Q 1544 4750 1819 4750 
Q 2544 4750 2975 4387 
Q 3406 4025 3406 3419 
Q 3406 3131 3298 2873 
Q 3191 2616 2906 2266 
Q 2828 2175 2409 1742 
Q 1991 1309 1228 531 
z
" transform="scale(0.015625)"/>
        <path id="DejaVuSans-30" d="M 2034 4250 
Q 1547 4250 1301 3770 
Q 1056 3291 1056 2328 
Q 1056 1369 1301 889 
Q 1547 409 2034 409 
Q 2525 409 2770 889 
Q 3016 1369 3016 2328 
Q 3016 3291 2770 3770 
Q 2525 4250 2034 4250 
z
M 2034 4750 
Q 2819 4750 3233 4129 
Q 3647 3509 3647 2328 
Q 3647 1150 3233 529 
Q 2819 -91 2034 -91 
Q 1250 -91 836 529 
Q 422 1150 422 2328 
Q 422 3509 836 4129 
Q 1250 4750 2034 4750 
z
" transform="scale(0.015625)"/>
        <path id="DejaVuSans-31" d="M 794 531 
L 1825 531 
L 1825 4091 
L 703 3866 
L 703 4441 
L 1819 4666 
L 2450 4666 
L 2450 531 
L 3481 531 
L 3481 0 
L 794 0 
L 794 531 
z
" transform="scale(0.015625)"/>
        <path id="DejaVuSans-34" d="M 2419 4116 
L 825 1625 
L 2419 1625 
L 2419 4116 
z
M 2253 4666 
L 3047 4666 
L 3047 1625 
L 3713 1625 
L 3713 1100 
L 3047 1100 
L 3047 0 
L 2419 0 
L 2419 1100 
L 313 1100 
L 313 1709 
L 2253 4666 
z
" transform="scale(0.015625)"/>
        <path id="DejaVuSans-2d" d="M 313 2009 
L 1997 2009 
L 1997 1497 
L 313 1497 
L 313 2009 
z
" transform="scale(0.015625)"/>
        <path id="DejaVuSans-37" d="M 525 4666 
L 3525 4666 
L 3525 4397 
L 1831 0 
L 1172 0 
L 2766 4134 
L 525 4134 
L 525 4666 
z
" transform="scale(0.015625)"/>
       </defs>
       <use xlink:href="#DejaVuSans-32"/>
       <use xlink:href="#DejaVuSans-30" x="63.623047"/>
       <use xlink:href="#DejaVuSans-31" x="127.246094"/>
       <use xlink:href="#DejaVuSans-34" x="190.869141"/>
       <use xlink:href="#DejaVuSans-2d" x="254.492188"/>
       <use xlink:href="#DejaVuSans-30" x="290.576172"/>
       <use xlink:href="#DejaVuSans-37" x="354.199219"/>
       <use xlink:href="#DejaVuSans-2d" x="417.822266"/>
       <use xlink:href="#DejaVuSans-30" x="453.90625"/>
       <use xlink:href="#DejaVuSans-31" x="517.529297"/>
      </g>
     </g>
    </g>
    <g id="xtick_2">
     <g id="line2d_2">
      <g>
       <use xlink:href="#m305e7b49ef" x="175.327869" y="342.2" style="stroke: #000000; stroke-width: 0.8"/>
      </g>
     </g>
     <g id="text_2">
      <!-- 2014-07-02 -->
      <g transform="translate(146.270057 356.798437) scale(0.1 -0.1)">
       <use xlink:href="#DejaVuSans-32"/>
       <use xlink:href="#DejaVuSans-30" x="63.623047"/>
       <use xlink:href="#DejaVuSans-31" x="127.246094"/>
       <use xlink:href="#DejaVuSans-34" x="190.869141"/>
       <use xlink:href="#DejaVuSans-2d" x="254.492188"/>
       <use xlink:href="#DejaVuSans-30" x="290.576172"/>
       <use xlink:href="#DejaVuSans-37" x="354.199219"/>
       <use xlink:href="#DejaVuSans-2d" x="417.822266"/>
       <use xlink:href="#DejaVuSans-30" x="453.90625"/>
       <use xlink:href="#DejaVuSans-32" x="517.529297"/>
      </g>
     </g>
    </g>
    <g id="xtick_3">
     <g id="line2d_3">
      <g>
       <use xlink:href="#m305e7b49ef" x="299.284781" y="342.2" style="stroke: #000000; stroke-width: 0.8"/>
      </g>
     </g>
     <g id="text_3">
      <!-- 2014-07-03 -->
      <g transform="translate(270.226969 356.798437) scale(0.1 -0.1)">
       <defs>
        <path id="DejaVuSans-33" d="M 2597 2516 
Q 3050 2419 3304 2112 
Q 3559 1806 3559 1356 
Q 3559 666 3084 287 
Q 2609 -91 1734 -91 
Q 1441 -91 1130 -33 
Q 819 25 488 141 
L 488 750 
Q 750 597 1062 519 
Q 1375 441 1716 441 
Q 2309 441 2620 675 
Q 2931 909 2931 1356 
Q 2931 1769 2642 2001 
Q 2353 2234 1838 2234 
L 1294 2234 
L 1294 2753 
L 1863 2753 
Q 2328 2753 2575 2939 
Q 2822 3125 2822 3475 
Q 2822 3834 2567 4026 
Q 2313 4219 1838 4219 
Q 1578 4219 1281 4162 
Q 984 4106 628 3988 
L 628 4550 
Q 988 4650 1302 4700 
Q 1616 4750 1894 4750 
Q 2613 4750 3031 4423 
Q 3450 4097 3450 3541 
Q 3450 3153 3228 2886 
Q 3006 2619 2597 2516 
z
" transform="scale(0.015625)"/>
       </defs>
       <use xlink:href="#DejaVuSans-32"/>
       <use xlink:href="#DejaVuSans-30" x="63.623047"/>
       <use xlink:href="#DejaVuSans-31" x="127.246094"/>
       <use xlink:href="#DejaVuSans-34" x="190.869141"/>
       <use xlink:href="#DejaVuSans-2d" x="254.492188"/>
       <use xlink:href="#DejaVuSans-30" x="290.576172"/>
       <use xlink:href="#DejaVuSans-37" x="354.199219"/>
       <use xlink:href="#DejaVuSans-2d" x="417.822266"/>
       <use xlink:href="#DejaVuSans-30" x="453.90625"/>
       <use xlink:href="#DejaVuSans-33" x="517.529297"/>
      </g>
     </g>
    </g>
    <g id="xtick_4">
     <g id="line2d_4">
      <g>
       <use xlink:href="#m305e7b49ef" x="423.241693" y="342.2" style="stroke: #000000; stroke-width: 0.8"/>
      </g>
     </g>
     <g id="text_4">
      <!-- 2014-07-04 -->
      <g transform="translate(394.18388 356.798437) scale(0.1 -0.1)">
       <use xlink:href="#DejaVuSans-32"/>
       <use xlink:href="#DejaVuSans-30" x="63.623047"/>
       <use xlink:href="#DejaVuSans-31" x="127.246094"/>
       <use xlink:href="#DejaVuSans-34" x="190.869141"/>
       <use xlink:href="#DejaVuSans-2d" x="254.492188"/>
       <use xlink:href="#DejaVuSans-30" x="290.576172"/>
       <use xlink:href="#DejaVuSans-37" x="354.199219"/>
       <use xlink:href="#DejaVuSans-2d" x="417.822266"/>
       <use xlink:href="#DejaVuSans-30" x="453.90625"/>
       <use xlink:href="#DejaVuSans-34" x="517.529297"/>
      </g>
     </g>
    </g>
    <g id="xtick_5">
     <g id="line2d_5">
      <g>
       <use xlink:href="#m305e7b49ef" x="547.198605" y="342.2" style="stroke: #000000; stroke-width: 0.8"/>
      </g>
     </g>
     <g id="text_5">
      <!-- 2014-07-05 -->
      <g transform="translate(518.140792 356.798437) scale(0.1 -0.1)">
       <defs>
        <path id="DejaVuSans-35" d="M 691 4666 
L 3169 4666 
L 3169 4134 
L 1269 4134 
L 1269 2991 
Q 1406 3038 1543 3061 
Q 1681 3084 1819 3084 
Q 2600 3084 3056 2656 
Q 3513 2228 3513 1497 
Q 3513 744 3044 326 
Q 2575 -91 1722 -91 
Q 1428 -91 1123 -41 
Q 819 9 494 109 
L 494 744 
Q 775 591 1075 516 
Q 1375 441 1709 441 
Q 2250 441 2565 725 
Q 2881 1009 2881 1497 
Q 2881 1984 2565 2268 
Q 2250 2553 1709 2553 
Q 1456 2553 1204 2497 
Q 953 2441 691 2322 
L 691 4666 
z
" transform="scale(0.015625)"/>
       </defs>
       <use xlink:href="#DejaVuSans-32"/>
       <use xlink:href="#DejaVuSans-30" x="63.623047"/>
       <use xlink:href="#DejaVuSans-31" x="127.246094"/>
       <use xlink:href="#DejaVuSans-34" x="190.869141"/>
       <use xlink:href="#DejaVuSans-2d" x="254.492188"/>
       <use xlink:href="#DejaVuSans-30" x="290.576172"/>
       <use xlink:href="#DejaVuSans-37" x="354.199219"/>
       <use xlink:href="#DejaVuSans-2d" x="417.822266"/>
       <use xlink:href="#DejaVuSans-30" x="453.90625"/>
       <use xlink:href="#DejaVuSans-35" x="517.529297"/>
      </g>
     </g>
    </g>
    <g id="xtick_6">
     <g id="line2d_6">
      <g>
       <use xlink:href="#m305e7b49ef" x="671.155517" y="342.2" style="stroke: #000000; stroke-width: 0.8"/>
      </g>
     </g>
     <g id="text_6">
      <!-- 2014-07-06 -->
      <g transform="translate(642.097704 356.798437) scale(0.1 -0.1)">
       <defs>
        <path id="DejaVuSans-36" d="M 2113 2584 
Q 1688 2584 1439 2293 
Q 1191 2003 1191 1497 
Q 1191 994 1439 701 
Q 1688 409 2113 409 
Q 2538 409 2786 701 
Q 3034 994 3034 1497 
Q 3034 2003 2786 2293 
Q 2538 2584 2113 2584 
z
M 3366 4563 
L 3366 3988 
Q 3128 4100 2886 4159 
Q 2644 4219 2406 4219 
Q 1781 4219 1451 3797 
Q 1122 3375 1075 2522 
Q 1259 2794 1537 2939 
Q 1816 3084 2150 3084 
Q 2853 3084 3261 2657 
Q 3669 2231 3669 1497 
Q 3669 778 3244 343 
Q 2819 -91 2113 -91 
Q 1303 -91 875 529 
Q 447 1150 447 2328 
Q 447 3434 972 4092 
Q 1497 4750 2381 4750 
Q 2619 4750 2861 4703 
Q 3103 4656 3366 4563 
z
" transform="scale(0.015625)"/>
       </defs>
       <use xlink:href="#DejaVuSans-32"/>
       <use xlink:href="#DejaVuSans-30" x="63.623047"/>
       <use xlink:href="#DejaVuSans-31" x="127.246094"/>
       <use xlink:href="#DejaVuSans-34" x="190.869141"/>
       <use xlink:href="#DejaVuSans-2d" x="254.492188"/>
       <use xlink:href="#DejaVuSans-30" x="290.576172"/>
       <use xlink:href="#DejaVuSans-37" x="354.199219"/>
       <use xlink:href="#DejaVuSans-2d" x="417.822266"/>
       <use xlink:href="#DejaVuSans-30" x="453.90625"/>
       <use xlink:href="#DejaVuSans-36" x="517.529297"/>
      </g>
     </g>
    </g>
   </g>
   <g id="matplotlib.axis_2">
    <g id="ytick_1">
     <g id="line2d_7">
      <defs>
       <path id="md58dd51d45" d="M 0 0 
L -3.5 0 
" style="stroke: #000000; stroke-width: 0.8"/>
      </defs>
      <g>
       <use xlink:href="#md58dd51d45" x="20.5625" y="328.62" style="stroke: #000000; stroke-width: 0.8"/>
      </g>
     </g>
     <g id="text_7">
      <!-- 0 -->
      <g transform="translate(7.2 332.419219) scale(0.1 -0.1)">
       <use xlink:href="#DejaVuSans-30"/>
      </g>
     </g>
    </g>
    <g id="ytick_2">
     <g id="line2d_8">
      <g>
       <use xlink:href="#md58dd51d45" x="20.5625" y="292.85899" style="stroke: #000000; stroke-width: 0.8"/>
      </g>
     </g>
     <g id="text_8">
      <!-- 1 -->
      <g transform="translate(7.2 296.658209) scale(0.1 -0.1)">
       <use xlink:href="#DejaVuSans-31"/>
      </g>
     </g>
    </g>
    <g id="ytick_3">
     <g id="line2d_9">
      <g>
       <use xlink:href="#md58dd51d45" x="20.5625" y="257.097981" style="stroke: #000000; stroke-width: 0.8"/>
      </g>
     </g>
     <g id="text_9">
      <!-- 2 -->
      <g transform="translate(7.2 260.8972) scale(0.1 -0.1)">
       <use xlink:href="#DejaVuSans-32"/>
      </g>
     </g>
    </g>
    <g id="ytick_4">
     <g id="line2d_10">
      <g>
       <use xlink:href="#md58dd51d45" x="20.5625" y="221.336971" style="stroke: #000000; stroke-width: 0.8"/>
      </g>
     </g>
     <g id="text_10">
      <!-- 3 -->
      <g transform="translate(7.2 225.13619) scale(0.1 -0.1)">
       <use xlink:href="#DejaVuSans-33"/>
      </g>
     </g>
    </g>
    <g id="ytick_5">
     <g id="line2d_11">
      <g>
       <use xlink:href="#md58dd51d45" x="20.5625" y="185.575962" style="stroke: #000000; stroke-width: 0.8"/>
      </g>
     </g>
     <g id="text_11">
      <!-- 4 -->
      <g transform="translate(7.2 189.375181) scale(0.1 -0.1)">
       <use xlink:href="#DejaVuSans-34"/>
      </g>
     </g>
    </g>
    <g id="ytick_6">
     <g id="line2d_12">
      <g>
       <use xlink:href="#md58dd51d45" x="20.5625" y="149.814952" style="stroke: #000000; stroke-width: 0.8"/>
      </g>
     </g>
     <g id="text_12">
      <!-- 5 -->
      <g transform="translate(7.2 153.614171) scale(0.1 -0.1)">
       <use xlink:href="#DejaVuSans-35"/>
      </g>
     </g>
    </g>
    <g id="ytick_7">
     <g id="line2d_13">
      <g>
       <use xlink:href="#md58dd51d45" x="20.5625" y="114.053943" style="stroke: #000000; stroke-width: 0.8"/>
      </g>
     </g>
     <g id="text_13">
      <!-- 6 -->
      <g transform="translate(7.2 117.853162) scale(0.1 -0.1)">
       <use xlink:href="#DejaVuSans-36"/>
      </g>
     </g>
    </g>
    <g id="ytick_8">
     <g id="line2d_14">
      <g>
       <use xlink:href="#md58dd51d45" x="20.5625" y="78.292933" style="stroke: #000000; stroke-width: 0.8"/>
      </g>
     </g>
     <g id="text_14">
      <!-- 7 -->
      <g transform="translate(7.2 82.092152) scale(0.1 -0.1)">
       <use xlink:href="#DejaVuSans-37"/>
      </g>
     </g>
    </g>
   </g>
   <g id="line2d_15">
    <path d="M 51.54312 328.585598 
L 52.059607 328.426096 
L 52.403932 328.242469 
L 52.748256 328.047656 
L 53.178662 327.799644 
L 53.867312 327.388068 
L 54.383799 327.035192 
L 54.900286 326.671382 
L 57.052316 325.190887 
L 57.568803 324.5386 
L 58.860021 323.728224 
L 59.720833 323.286616 
L 60.495563 323.092788 
L 61.270294 323.1331 
L 62.303268 323.426888 
L 65.230029 324.440479 
L 65.918678 324.434055 
L 66.263003 324.369142 
L 66.77949 324.022295 
L 67.46814 323.384807 
L 67.898546 322.728916 
L 68.156789 322.237971 
L 69.361926 316.419641 
L 69.964494 312.556693 
L 71.08355 305.460314 
L 71.255712 304.794038 
L 71.513956 303.567658 
L 71.85828 302.697598 
L 72.202605 300.958242 
L 72.374768 300.339129 
L 72.977336 297.288096 
L 73.924229 294.489601 
L 74.01031 294.250199 
L 74.096391 294.287413 
L 74.268554 294.149013 
L 74.526797 293.773793 
L 74.612878 293.602627 
L 74.785041 293.726 
L 75.215447 293.081615 
L 75.301528 293.199071 
L 75.47369 293.161413 
L 75.645853 293.005918 
L 75.818015 292.78819 
L 75.990177 293.017687 
L 76.076259 292.980347 
L 76.334502 293.351545 
L 76.506665 293.238862 
L 76.764908 293.640432 
L 76.850989 293.683144 
L 77.109233 293.457586 
L 77.281395 293.730423 
L 77.539639 293.588649 
L 77.711801 293.394393 
L 77.883964 293.579876 
L 78.31437 293.02646 
L 78.400451 293.15975 
L 78.572613 293.12801 
L 78.916938 293.068698 
L 80.208156 296.50837 
L 80.466399 297.605729 
L 80.55248 297.397321 
L 81.155049 289.128861 
L 81.327211 288.854346 
L 81.585455 288.186749 
L 81.757617 288.408496 
L 81.929779 288.871799 
L 82.101942 290.098307 
L 82.618429 296.514334 
L 83.220997 303.862424 
L 83.737484 308.41811 
L 84.16789 311.261236 
L 84.253972 310.539882 
L 85.114783 269.34662 
L 85.717352 211.050765 
L 86.492082 141.418528 
L 87.094651 76.654833 
L 87.180732 76.405854 
L 87.266813 76.952956 
L 87.352894 76.576615 
L 87.611138 70.682666 
L 87.869381 66.389643 
L 88.385869 57.02 
L 88.47195 57.084321 
L 88.902356 65.602191 
L 89.160599 80.612763 
L 89.504924 130.697977 
L 89.677086 171.376477 
L 89.849249 199.702609 
L 90.279655 210.765056 
L 90.796142 221.545161 
L 91.656954 236.795811 
L 92.345603 250.488548 
L 94.841958 281.697159 
L 95.01412 282.440625 
L 95.444526 285.028647 
L 95.70277 283.996279 
L 95.788851 284.005845 
L 96.047094 282.646347 
L 96.735744 267.384605 
L 97.338312 234.669225 
L 98.026962 172.573267 
L 98.113043 171.840501 
L 98.371287 184.827712 
L 99.490342 263.349045 
L 100.09291 282.988218 
L 100.609397 293.817238 
L 101.125885 300.715466 
L 101.556291 304.272284 
L 102.072778 306.996056 
L 103.277914 311.527302 
L 104.39697 314.763153 
L 105.257782 316.539618 
L 105.774269 317.295582 
L 106.635081 318.048518 
L 107.409811 318.449647 
L 108.098461 318.614817 
L 108.959273 318.594504 
L 109.992247 318.346699 
L 112.919007 317.212716 
L 113.349413 317.026311 
L 113.435495 316.823399 
L 114.296306 310.586064 
L 115.157118 308.510441 
L 115.587524 307.800996 
L 115.759687 307.939764 
L 116.190093 308.919606 
L 117.309148 312.117211 
L 117.997798 313.129181 
L 118.686447 313.478452 
L 119.289015 313.468963 
L 120.838477 312.985737 
L 121.354964 312.663765 
L 121.613207 312.509926 
L 121.957532 312.281317 
L 122.215776 312.101169 
L 122.560101 311.85009 
L 122.732263 311.830917 
L 123.162669 311.48114 
L 123.334831 311.461387 
L 123.765237 311.06873 
L 123.9374 311.042409 
L 124.367806 310.63177 
L 124.539968 310.607211 
L 124.970374 310.180958 
L 125.142536 310.146273 
L 125.572942 309.656345 
L 125.831186 309.604197 
L 126.17551 309.239786 
L 126.433754 309.231784 
L 126.778079 308.786256 
L 127.036322 308.783715 
L 127.380647 308.30881 
L 127.638891 308.278184 
L 127.983215 307.776775 
L 128.241459 307.718408 
L 128.585784 307.144932 
L 128.930109 307.046931 
L 129.188352 306.721795 
L 129.360514 306.708488 
L 129.532677 306.666065 
L 129.79092 306.234924 
L 129.963083 306.229345 
L 130.135245 306.170296 
L 130.393489 305.684375 
L 130.565651 305.684341 
L 130.737813 305.639869 
L 130.909976 305.507791 
L 131.082138 305.581265 
L 131.856869 306.832649 
L 132.545518 309.036618 
L 134.525386 315.83182 
L 135.386198 317.886463 
L 136.419172 319.816039 
L 137.624309 321.533624 
L 138.915526 322.780565 
L 139.432014 323.133803 
L 139.690257 323.021196 
L 139.948501 322.845118 
L 140.120663 322.295364 
L 140.63715 320.593034 
L 141.153637 318.149794 
L 142.78918 313.508196 
L 143.047423 313.139391 
L 143.477829 313.059499 
L 144.25256 313.480736 
L 144.596885 313.663268 
L 145.199453 313.844769 
L 145.71594 313.989629 
L 145.974184 313.8847 
L 146.40459 313.538649 
L 147.351483 312.139507 
L 147.609726 311.881403 
L 148.470538 311.236659 
L 148.728782 311.20632 
L 149.073107 311.33887 
L 149.503513 311.653446 
L 149.847837 311.709538 
L 150.364325 312.135285 
L 150.880812 312.681653 
L 151.311218 312.757992 
L 151.48338 312.568963 
L 151.827705 312.099246 
L 152.172029 311.577165 
L 152.602435 311.349296 
L 153.377166 310.51174 
L 153.63541 310.440379 
L 153.979734 310.51093 
L 154.237978 310.815259 
L 155.012709 312.254542 
L 155.701358 313.51751 
L 156.734332 313.868071 
L 156.820414 313.876683 
L 157.853388 312.567562 
L 158.455956 312.459281 
L 159.058525 312.789124 
L 159.230687 312.944107 
L 159.747174 312.531574 
L 159.919336 312.49476 
L 160.263661 312.068738 
L 160.521905 312.010127 
L 162.071366 309.012804 
L 162.760016 309.446721 
L 163.362584 310.564058 
L 163.965152 311.810695 
L 164.395558 312.406887 
L 165.25637 312.803121 
L 166.375426 313.592812 
L 166.805832 313.687403 
L 167.322319 313.773062 
L 167.924887 313.211039 
L 168.269212 313.090886 
L 168.527455 313.15864 
L 169.388267 312.065548 
L 169.732592 311.473092 
L 169.990836 311.000388 
L 170.249079 310.613384 
L 170.765566 310.522579 
L 171.798541 311.263801 
L 172.228946 311.959199 
L 173.520164 314.523725 
L 174.036651 314.453593 
L 174.208814 314.285697 
L 174.467057 313.934454 
L 174.897463 313.268202 
L 175.500032 311.983808 
L 175.844356 311.52706 
L 176.1026 311.231464 
L 176.533006 310.801333 
L 176.705168 310.63659 
L 177.393818 310.004966 
L 177.652061 309.681783 
L 177.824224 309.605504 
L 178.168549 309.221992 
L 178.512873 309.208606 
L 178.857198 308.787402 
L 179.459766 308.707368 
L 180.492741 309.650822 
L 180.750984 309.561051 
L 181.009228 309.610528 
L 181.267471 309.73315 
L 181.956121 310.448875 
L 182.558689 310.895116 
L 183.33342 311.564025 
L 184.280313 312.812087 
L 184.538556 312.917041 
L 186.088018 314.215694 
L 186.518424 313.89367 
L 187.293155 312.04117 
L 187.551398 311.845059 
L 187.895723 311.77974 
L 188.842616 311.414631 
L 189.445184 311.908149 
L 189.617347 312.119576 
L 190.392077 311.501646 
L 190.650321 311.26245 
L 191.425052 311.392427 
L 191.855458 311.832382 
L 192.285863 312.613039 
L 192.888432 314.227308 
L 194.610056 318.835055 
L 195.64303 320.756078 
L 196.245598 321.590286 
L 197.364654 322.753051 
L 198.56979 323.630725 
L 199.947089 324.34779 
L 200.72182 324.693742 
L 200.807901 323.839913 
L 201.066145 317.892932 
L 202.787768 277.111641 
L 203.132093 275.159252 
L 203.304256 275.113616 
L 203.476418 274.040288 
L 203.906824 272.891768 
L 204.165068 271.694445 
L 204.251149 271.729428 
L 204.767636 270.222245 
L 204.853717 270.428466 
L 204.939798 270.377616 
L 205.111961 270.643447 
L 205.198042 270.461381 
L 205.284123 270.602134 
L 206.058854 274.93314 
L 206.661422 279.933022 
L 207.091828 283.968735 
L 208.124802 291.757437 
L 208.899533 295.192879 
L 210.10467 299.487323 
L 210.276832 299.787849 
L 210.448994 300.248599 
L 210.707238 300.903758 
L 210.8794 301.129738 
L 211.051563 301.503115 
L 211.309806 301.993233 
L 211.654131 301.095214 
L 211.740212 301.054715 
L 211.912374 300.250905 
L 212.428862 296.107882 
L 212.601024 295.048927 
L 213.203592 286.547506 
L 213.892242 263.720591 
L 214.666973 192.811943 
L 214.753054 193.175862 
L 214.925216 199.693153 
L 215.95819 266.253129 
L 216.474677 284.225682 
L 216.991165 295.988477 
L 217.507652 303.614211 
L 218.024139 307.995503 
L 218.454545 310.476293 
L 219.229276 313.494638 
L 220.26225 316.292774 
L 221.381305 318.740633 
L 222.586442 320.861389 
L 223.102929 321.544983 
L 224.308066 322.793366 
L 225.599284 323.718764 
L 226.632258 324.193585 
L 227.062664 324.214077 
L 227.406988 324.180475 
L 227.751313 323.840452 
L 228.095638 323.375868 
L 228.870369 321.160717 
L 229.645099 319.476316 
L 230.41983 317.853594 
L 231.538886 315.045729 
L 233.949159 310.774361 
L 235.842945 307.156029 
L 236.445513 307.13381 
L 236.962 308.007327 
L 238.425381 311.065194 
L 238.597543 311.25243 
L 239.974842 310.120448 
L 240.233086 310.117447 
L 240.57741 310.170029 
L 241.438222 310.212135 
L 241.782547 310.561191 
L 242.471197 311.250375 
L 242.987684 310.746042 
L 243.504171 309.906413 
L 243.762414 309.69768 
L 244.020658 309.831156 
L 244.19282 309.927916 
L 244.623226 309.633094 
L 244.795389 309.620448 
L 245.225795 308.846906 
L 245.484038 308.671185 
L 245.6562 308.657092 
L 245.914444 308.979627 
L 246.861337 310.444149 
L 247.636068 311.873913 
L 247.980393 312.416211 
L 249.099448 314.187578 
L 249.788098 313.898644 
L 250.390666 312.651985 
L 250.821072 311.864962 
L 251.165397 311.55484 
L 251.940127 310.673938 
L 252.284452 310.578177 
L 252.628777 310.653831 
L 252.973102 310.867179 
L 253.145264 310.792871 
L 253.317426 310.696176 
L 253.489589 310.68029 
L 253.919995 310.100469 
L 254.092157 310.035225 
L 254.436482 309.672148 
L 254.780806 309.54985 
L 255.211212 309.293784 
L 255.813781 309.368332 
L 256.50243 310.451669 
L 256.760674 310.708166 
L 257.104999 310.844817 
L 258.310135 312.073474 
L 259.084866 313.014467 
L 260.290003 312.036821 
L 261.064733 311.439538 
L 261.58122 310.494082 
L 261.839464 310.2302 
L 262.097708 310.340596 
L 262.355951 310.347468 
L 262.614195 310.353472 
L 262.786357 310.457412 
L 263.216763 310.243377 
L 263.388925 310.243407 
L 263.819331 309.511139 
L 263.991494 309.297167 
L 264.335818 308.256777 
L 264.507981 308.06702 
L 264.852306 307.548822 
L 265.110549 307.625812 
L 265.540955 307.966425 
L 265.88528 308.703352 
L 266.573929 310.813984 
L 267.176498 312.606563 
L 267.434741 312.986617 
L 267.865147 313.308149 
L 268.295553 313.321298 
L 268.381634 313.306511 
L 269.070284 311.758106 
L 269.931096 308.795935 
L 270.447583 308.1557 
L 270.705826 308.304849 
L 271.136232 308.891075 
L 272.771775 312.246121 
L 272.943937 312.310014 
L 273.374343 311.983521 
L 274.149074 310.53981 
L 274.407318 310.479652 
L 274.57948 310.459447 
L 275.009886 310.113936 
L 275.182048 310.091881 
L 275.612454 309.53553 
L 275.870698 309.481422 
L 276.128941 309.527465 
L 276.387185 309.818243 
L 277.334078 308.889396 
L 277.678403 309.031242 
L 277.936646 309.278138 
L 278.367052 310.133721 
L 278.969621 311.78792 
L 281.035569 318.05335 
L 281.982462 320.025816 
L 283.015436 321.626741 
L 284.134492 322.791024 
L 285.339629 323.666839 
L 286.20044 324.138496 
L 286.286522 324.101952 
L 286.544765 323.541655 
L 286.803009 322.937169 
L 287.233415 321.820226 
L 287.749902 320.961309 
L 288.008145 320.915637 
L 288.35247 320.911825 
L 288.696795 320.612218 
L 289.299363 320.029009 
L 290.074094 319.709653 
L 290.418419 319.821209 
L 290.934906 320.297237 
L 292.140042 321.54006 
L 292.484367 321.497603 
L 293.000854 321.500504 
L 293.947747 321.582867 
L 294.722478 321.731709 
L 296.185858 321.769406 
L 296.874508 321.538419 
L 297.304914 321.181824 
L 297.563157 320.788583 
L 298.079644 319.827588 
L 299.887349 313.592875 
L 301.436811 307.210658 
L 302.297623 304.938572 
L 302.469785 304.461414 
L 302.81411 302.818758 
L 302.986272 302.22819 
L 303.588841 298.872678 
L 304.27749 295.307589 
L 304.621815 294.086801 
L 304.880058 293.589766 
L 305.138302 293.058546 
L 305.310464 293.192307 
L 305.396545 293.112228 
L 305.654789 293.419628 
L 305.826951 293.275096 
L 306.085195 293.653784 
L 306.171276 293.682334 
L 306.42952 293.455529 
L 306.601682 293.721924 
L 306.946007 293.521728 
L 307.032088 293.388851 
L 307.20425 293.569133 
L 307.634656 293.02452 
L 307.720738 293.176048 
L 307.8929 293.128978 
L 307.978981 293.116289 
L 308.237225 292.781181 
L 308.409387 293.012648 
L 308.495468 292.971774 
L 308.753712 293.347842 
L 308.925874 293.240207 
L 309.184118 293.642811 
L 309.442361 293.724478 
L 309.528443 293.746539 
L 309.786686 294.240364 
L 310.217092 294.943046 
L 310.991823 297.101427 
L 311.077904 296.844074 
L 311.680472 288.743895 
L 311.852635 288.583464 
L 312.110878 288.071412 
L 312.369122 288.604361 
L 312.541284 289.427807 
L 312.885609 293.149892 
L 313.832502 304.697585 
L 314.43507 309.390694 
L 315.037639 312.563289 
L 315.640207 314.695768 
L 316.414938 316.359659 
L 316.931425 317.036693 
L 317.533993 317.44163 
L 318.308724 317.647618 
L 319.169536 317.583746 
L 319.944266 317.342964 
L 321.66589 316.920818 
L 322.268458 317.160329 
L 322.957108 317.683587 
L 323.731839 318.583812 
L 326.658599 322.042989 
L 328.380223 323.1969 
L 329.929684 323.911158 
L 331.909552 324.59792 
L 334.319825 325.351367 
L 336.557936 326.046597 
L 337.246585 326.248364 
L 350.58917 327.803619 
L 357.13134 328.125426 
L 366.858514 328.341198 
L 384.591239 328.491047 
L 425.22156 328.581207 
L 505.621391 328.611674 
L 540.570353 328.612187 
L 552.966044 328.611428 
L 567.513765 328.610731 
L 573.195124 328.610926 
L 671.155517 328.6108 
L 671.155517 328.6108 
" clip-path="url(#p9efa91da99)" style="fill: none; stroke: #1f77b4; stroke-width: 1.5; stroke-linecap: square"/>
   </g>
   <g id="line2d_16">
    <path d="M 51.54312 328.609247 
L 52.317851 328.52624 
L 52.920419 327.845163 
L 53.867312 326.591548 
L 55.847179 324.867593 
L 56.62191 324.289819 
L 57.482722 323.639865 
L 58.257453 323.30681 
L 58.601777 323.12794 
L 58.946102 322.909291 
L 59.376508 322.968865 
L 59.806914 323.354392 
L 60.667726 324.488022 
L 61.786781 325.859435 
L 62.819756 326.764212 
L 63.85273 327.382451 
L 64.197055 327.42805 
L 64.713542 327.17244 
L 65.402191 326.15249 
L 66.607328 323.072606 
L 67.037734 321.828599 
L 67.295977 321.098102 
L 69.189764 313.59381 
L 70.050575 309.867903 
L 70.308819 309.241506 
L 72.116524 300.613468 
L 73.149498 290.806614 
L 73.407742 289.648242 
L 73.924229 286.393446 
L 74.957203 279.99035 
L 75.215447 279.168596 
L 75.559771 277.35652 
L 75.731934 277.103362 
L 76.248421 275.297209 
L 76.420583 275.655922 
L 76.506665 275.615645 
L 76.850989 274.862024 
L 77.023152 274.942047 
L 77.195314 274.423636 
L 77.453558 273.626385 
L 77.62572 273.644204 
L 77.797882 273.12194 
L 78.056126 272.382455 
L 78.228288 272.459703 
L 78.400451 272.003169 
L 78.658694 271.364433 
L 78.916938 271.549495 
L 79.175181 271.334579 
L 79.347344 271.833929 
L 79.77775 273.893624 
L 80.035993 275.226968 
L 80.638562 278.512188 
L 80.724643 278.336172 
L 80.896805 274.928961 
L 81.413292 262.066466 
L 81.585455 261.128221 
L 81.671536 261.288838 
L 81.843698 262.633042 
L 82.274104 269.114453 
L 83.823566 295.071751 
L 84.340053 300.936792 
L 84.426134 300.189839 
L 84.598296 292.754666 
L 86.147758 198.378312 
L 87.266813 164.941584 
L 87.7833 158.968455 
L 87.955463 157.684193 
L 88.127625 158.071011 
L 88.213706 157.889956 
L 88.47195 156.753137 
L 88.558031 157.049548 
L 90.62398 179.804269 
L 91.743035 195.28902 
L 92.259522 204.481001 
L 93.206415 218.862864 
L 94.153308 231.237235 
L 95.01412 243.016462 
L 95.272364 244.754985 
L 95.616688 246.53406 
L 95.70277 246.509872 
L 96.305338 244.034725 
L 96.993987 233.168141 
L 97.682637 207.962337 
L 98.026962 193.391204 
L 98.199124 191.657983 
L 98.285205 191.899726 
L 98.457368 194.218142 
L 98.887774 206.238098 
L 100.265073 246.019198 
L 101.125885 264.046628 
L 101.900615 276.910697 
L 103.105752 294.570751 
L 103.880483 302.653384 
L 104.741294 309.203693 
L 105.429944 312.966067 
L 106.118594 315.763985 
L 106.893324 318.032484 
L 108.01238 320.314584 
L 108.701029 321.147089 
L 109.906166 321.982409 
L 110.422653 322.202145 
L 110.766978 322.335488 
L 111.886033 322.428245 
L 112.316439 322.390145 
L 113.521576 322.066478 
L 113.607657 321.755975 
L 113.8659 318.556225 
L 114.296306 312.959767 
L 114.55455 311.583045 
L 114.726712 311.416354 
L 114.984956 311.674549 
L 115.329281 312.46242 
L 116.104011 314.341769 
L 117.48131 316.548937 
L 117.825635 316.807058 
L 118.083879 316.948632 
L 118.428204 317.078912 
L 118.686447 317.140232 
L 118.944691 317.129951 
L 119.202934 317.209269 
L 119.63334 317.148673 
L 119.891584 317.306571 
L 121.09672 316.92726 
L 121.527126 316.60725 
L 121.699289 316.522251 
L 122.129695 316.155136 
L 122.301857 316.055721 
L 122.732263 315.665047 
L 122.990507 315.702659 
L 124.281724 314.495262 
L 124.626049 314.084467 
L 124.798211 313.923496 
L 125.228617 313.338374 
L 125.40078 313.170149 
L 125.831186 312.579723 
L 126.089429 312.579696 
L 127.466728 310.652316 
L 127.724972 310.301753 
L 127.897134 310.08093 
L 128.32754 309.299998 
L 128.499703 309.073186 
L 128.930109 308.292742 
L 129.102271 308.350532 
L 129.274433 308.132392 
L 129.618758 307.677101 
L 129.79092 307.45716 
L 130.221326 306.55856 
L 130.393489 306.283492 
L 130.823895 305.326413 
L 131.168219 305.39855 
L 131.340382 305.694005 
L 131.770788 307.180819 
L 132.373356 310.162525 
L 133.836736 317.159126 
L 134.697548 320.271434 
L 135.55836 322.610335 
L 136.419172 324.324944 
L 137.279984 325.563972 
L 138.226877 326.519688 
L 139.259851 327.224971 
L 139.604176 327.290856 
L 139.776338 326.856637 
L 140.292825 324.68537 
L 141.067556 320.086916 
L 141.411881 319.008372 
L 142.014449 318.177644 
L 142.186612 318.260899 
L 142.444855 318.680292 
L 142.961342 319.590531 
L 143.391748 319.840809 
L 144.166479 319.093892 
L 144.424723 318.87581 
L 144.682966 318.8406 
L 145.113372 318.562396 
L 145.371616 318.744379 
L 145.888103 319.449725 
L 146.146346 319.062479 
L 146.490671 318.411709 
L 147.179321 316.32772 
L 147.523645 315.648404 
L 148.040132 315.612517 
L 148.55662 315.81872 
L 148.814863 315.916311 
L 149.245269 316.547265 
L 149.503513 317.043308 
L 149.675675 316.899166 
L 150.106081 316.135249 
L 150.278243 316.178926 
L 150.536487 316.629482 
L 150.966893 317.48304 
L 151.397299 317.465485 
L 151.569461 316.884094 
L 152.085948 314.915769 
L 152.344192 314.501879 
L 152.94676 314.283156 
L 153.63541 314.073775 
L 153.807572 314.249532 
L 154.237978 315.184518 
L 155.615277 318.905766 
L 155.787439 318.9634 
L 156.131764 318.043995 
L 156.56217 317.30539 
L 156.734332 317.252284 
L 156.992576 317.38612 
L 157.164738 317.014715 
L 157.595144 315.760579 
L 157.853388 315.606219 
L 158.02555 315.77121 
L 158.369875 316.551591 
L 159.144606 318.457132 
L 159.402849 318.715259 
L 159.575012 318.196742 
L 160.091499 316.132777 
L 160.607986 314.962527 
L 160.780148 314.674264 
L 161.899204 311.783662 
L 162.071366 311.935092 
L 162.32961 312.685867 
L 162.673935 313.719411 
L 163.190422 314.677094 
L 163.965152 316.690354 
L 164.395558 316.500292 
L 164.739883 315.808202 
L 164.998127 315.564058 
L 165.170289 315.618122 
L 165.428533 315.989811 
L 166.031101 317.59946 
L 166.375426 318.433521 
L 166.633669 318.423774 
L 167.064075 318.273246 
L 167.4084 318.10656 
L 167.580562 317.85742 
L 168.183131 316.269519 
L 168.355293 316.374675 
L 168.785699 317.066895 
L 169.043942 316.665012 
L 169.646511 315.53921 
L 170.076917 314.507076 
L 170.421242 313.798586 
L 170.593404 313.787045 
L 170.851647 314.176576 
L 171.540297 315.70079 
L 172.056784 316.53296 
L 172.48719 317.597504 
L 173.261921 319.574617 
L 173.692327 319.575303 
L 173.95057 318.846045 
L 174.725301 316.526255 
L 174.983545 315.970436 
L 175.41395 314.68436 
L 175.672194 314.602161 
L 175.930438 314.807082 
L 176.360844 315.365817 
L 176.877331 315.269786 
L 177.652061 312.939387 
L 177.996386 312.032681 
L 178.340711 311.620073 
L 178.512873 311.723173 
L 178.771117 311.980684 
L 179.287604 311.732307 
L 179.631929 311.983705 
L 180.148416 312.742856 
L 180.578822 312.952356 
L 181.095309 311.775392 
L 181.267471 311.820766 
L 181.525715 312.337504 
L 182.042202 313.715799 
L 182.558689 314.384749 
L 182.816933 314.484963 
L 183.161257 314.730559 
L 183.419501 314.866019 
L 183.677745 315.325265 
L 184.366394 316.971669 
L 184.7968 316.714151 
L 185.055044 316.919505 
L 185.399368 317.544685 
L 186.088018 319.346037 
L 186.174099 319.276698 
L 186.432343 318.378465 
L 186.862749 316.414534 
L 187.293155 314.316942 
L 187.465317 314.132218 
L 187.637479 314.276327 
L 187.981804 315.184085 
L 188.498291 316.224631 
L 188.756535 316.505565 
L 189.100859 316.683294 
L 189.359103 316.790684 
L 189.789509 316.870639 
L 189.961671 316.330126 
L 190.478158 314.335807 
L 190.822483 313.741145 
L 190.994646 313.854472 
L 191.252889 314.496845 
L 191.941539 317.316482 
L 192.802351 320.53073 
L 193.577081 322.62154 
L 194.437893 324.338975 
L 195.298705 325.574893 
L 196.245598 326.527239 
L 197.278572 327.229978 
L 198.483709 327.757603 
L 199.947089 328.136977 
L 200.807901 328.269386 
L 200.893982 328.121065 
L 201.066145 325.448304 
L 201.668713 303.184835 
L 202.271281 280.311884 
L 202.787768 265.852408 
L 203.304256 255.763042 
L 203.64858 253.082721 
L 203.992905 250.41474 
L 204.165068 249.576851 
L 204.509392 247.311939 
L 204.681555 247.277352 
L 204.939798 246.366408 
L 205.111961 246.186853 
L 205.370204 246.821215 
L 205.628448 246.794874 
L 205.80061 247.562027 
L 206.058854 248.541148 
L 206.231016 248.977513 
L 206.403178 250.124687 
L 206.833584 253.523816 
L 207.608315 258.598311 
L 208.038721 261.489956 
L 208.383046 264.070333 
L 210.10467 276.765405 
L 210.621157 280.248857 
L 211.481969 285.499192 
L 211.56805 285.526653 
L 211.826293 284.432965 
L 212.084537 283.431162 
L 212.34278 280.173947 
L 212.687105 276.702797 
L 212.859268 274.526664 
L 213.461836 259.97183 
L 214.150485 225.556666 
L 214.580891 196.653767 
L 214.753054 192.776815 
L 214.839135 192.443577 
L 214.925216 193.008992 
L 215.18346 198.599544 
L 215.872109 222.690398 
L 216.732921 249.594615 
L 217.593733 269.383444 
L 218.454545 284.1577 
L 219.401438 297.648097 
L 220.176169 305.81587 
L 220.950899 311.841204 
L 221.72563 316.275078 
L 222.500361 319.537303 
L 223.275091 321.937465 
L 224.135903 323.868186 
L 224.996715 325.241082 
L 225.857527 326.21732 
L 226.460095 326.662695 
L 226.976583 326.577147 
L 227.49307 326.181523 
L 227.665232 325.928309 
L 228.612125 323.367855 
L 229.128612 322.038134 
L 229.386856 321.691508 
L 229.731181 321.64455 
L 230.333749 321.862898 
L 230.850236 321.561421 
L 231.280642 321.041425 
L 231.452804 320.851406 
L 232.141454 319.235177 
L 232.57186 317.6848 
L 232.916185 316.985312 
L 233.776996 316.275283 
L 234.03524 315.337731 
L 234.379565 314.261094 
L 234.551727 313.788012 
L 235.412539 310.638129 
L 235.756864 310.011888 
L 236.101189 309.618703 
L 236.359432 309.87306 
L 236.703757 310.573309 
L 237.908893 314.109445 
L 238.253218 314.460888 
L 238.769705 313.754293 
L 239.11403 312.527139 
L 239.458355 311.752047 
L 239.716598 311.377735 
L 239.888761 311.423075 
L 240.147004 311.971607 
L 240.835654 314.079167 
L 241.782547 313.313291 
L 242.040791 313.670983 
L 242.557278 314.725458 
L 242.815521 314.00774 
L 243.332008 312.222861 
L 243.590252 311.439955 
L 243.762414 311.400927 
L 243.934577 311.669523 
L 244.537145 313.135666 
L 244.967551 312.653591 
L 245.225795 311.591133 
L 245.570119 310.493721 
L 245.742282 310.438167 
L 245.914444 310.673181 
L 246.258769 311.80399 
L 247.549987 316.71653 
L 247.722149 316.428855 
L 248.066474 315.806584 
L 248.238636 315.831969 
L 248.49688 316.281142 
L 249.357692 318.314582 
L 249.615935 317.652618 
L 250.907153 314.246439 
L 251.079315 314.277038 
L 251.940127 314.697073 
L 252.198371 314.652196 
L 252.88702 315.106412 
L 253.059183 315.309859 
L 253.231345 315.001228 
L 254.092157 312.428111 
L 254.436482 312.117741 
L 254.608644 312.085183 
L 255.03905 312.346543 
L 255.297294 312.299711 
L 255.985943 312.8199 
L 256.50243 314.173947 
L 256.846755 314.898757 
L 257.104999 314.385196 
L 257.363242 314.008372 
L 257.535405 314.013133 
L 257.707567 314.222102 
L 259.257028 317.599877 
L 259.34311 317.498586 
L 259.859597 315.593507 
L 260.290003 314.478989 
L 260.548246 314.408563 
L 260.80649 314.501644 
L 261.064733 314.772743 
L 261.236896 314.48469 
L 261.667302 313.478467 
L 261.839464 313.41437 
L 262.011626 313.553768 
L 262.528113 314.406742 
L 263.044601 314.145135 
L 263.73325 312.638604 
L 264.594062 309.021816 
L 264.766224 308.729231 
L 264.938387 308.837143 
L 265.19663 309.596525 
L 266.746092 315.887489 
L 267.262579 316.963319 
L 267.434741 316.78848 
L 268.03731 315.623618 
L 268.295553 315.326471 
L 268.553797 315.361986 
L 268.725959 314.93345 
L 270.017177 310.272122 
L 270.189339 310.066648 
L 270.361502 310.19291 
L 270.619745 310.906443 
L 271.738801 314.921376 
L 271.910963 314.844098 
L 272.169207 314.675155 
L 272.341369 314.800717 
L 272.599613 315.372787 
L 272.857856 316.05801 
L 272.943937 316.022094 
L 273.202181 315.211922 
L 273.718668 313.069314 
L 274.062993 311.91995 
L 274.235155 311.904625 
L 274.407318 312.196192 
L 275.009886 313.635723 
L 275.354211 313.783614 
L 275.526373 313.387471 
L 275.956779 312.255025 
L 276.215022 312.133783 
L 276.387185 312.312408 
L 276.559347 312.529162 
L 276.73151 312.222548 
L 277.161916 311.072627 
L 277.420159 310.816352 
L 277.592322 310.902155 
L 277.850565 311.530471 
L 278.367052 313.882911 
L 279.400026 318.67732 
L 280.174757 321.301386 
L 280.949488 323.235237 
L 281.8103 324.791 
L 282.671112 325.897276 
L 283.618005 326.748828 
L 284.650979 327.377159 
L 285.856116 327.848917 
L 286.372603 327.958181 
L 286.544765 327.460677 
L 287.319496 323.18165 
L 287.491658 323.031463 
L 287.663821 323.087772 
L 288.008145 323.5181 
L 289.557607 325.781936 
L 290.5045 326.669359 
L 291.537474 327.324372 
L 292.053961 327.464212 
L 292.226124 327.074961 
L 292.742611 325.55462 
L 293.000854 325.33045 
L 293.259098 325.38718 
L 293.775585 325.828186 
L 294.980722 326.864945 
L 295.58329 327.14467 
L 295.841534 327.161739 
L 296.530183 326.763073 
L 297.218833 325.666381 
L 298.423969 322.430407 
L 299.370862 319.133518 
L 299.629106 318.506463 
L 301.436811 311.111681 
L 302.297623 306.883692 
L 302.81411 304.429023 
L 304.27749 289.453899 
L 304.621815 286.902413 
L 304.96614 284.451561 
L 305.224383 282.847799 
L 305.568708 280.975874 
L 305.74087 280.960259 
L 305.913033 280.363984 
L 306.171276 279.334945 
L 306.343439 279.120109 
L 307.462494 275.118688 
L 307.548575 275.051855 
L 307.806819 274.017203 
L 307.978981 273.549851 
L 308.151144 273.547631 
L 308.323306 273.018096 
L 308.581549 272.282128 
L 308.753712 272.693373 
L 308.925874 272.999537 
L 309.270199 272.57989 
L 309.528443 272.86915 
L 309.786686 272.628775 
L 309.958848 273.032205 
L 310.217092 273.666375 
L 310.389254 274.025475 
L 310.905742 276.542877 
L 311.163985 278.00825 
L 311.250066 277.83971 
L 311.422229 274.453433 
L 311.938716 261.85495 
L 312.110878 261.079516 
L 312.196959 261.266491 
L 312.369122 262.589553 
L 312.799528 269.026003 
L 314.348989 294.389277 
L 315.12372 302.439852 
L 315.898451 308.140402 
L 316.673181 312.206251 
L 317.361831 314.851918 
L 318.05048 316.827927 
L 318.566967 317.982606 
L 318.997373 318.708672 
L 320.030348 319.86957 
L 321.235484 320.59424 
L 321.838053 321.465771 
L 324.162245 325.364866 
L 325.109138 326.368111 
L 326.056031 327.065073 
L 326.400356 327.089143 
L 326.916843 327.034917 
L 327.519411 327.250268 
L 329.154954 327.88968 
L 330.704415 328.224641 
L 332.942526 328.457078 
L 336.644017 328.582397 
L 346.715516 328.619304 
L 671.155517 328.62 
L 671.155517 328.62 
" clip-path="url(#p9efa91da99)" style="fill: none; stroke: #ff7f0e; stroke-width: 1.5; stroke-linecap: square"/>
   </g>
   <g id="patch_3">
    <path d="M 20.5625 342.2 
L 20.5625 43.44 
" style="fill: none; stroke: #000000; stroke-width: 0.8; stroke-linejoin: miter; stroke-linecap: square"/>
   </g>
   <g id="patch_4">
    <path d="M 702.136136 342.2 
L 702.136136 43.44 
" style="fill: none; stroke: #000000; stroke-width: 0.8; stroke-linejoin: miter; stroke-linecap: square"/>
   </g>
   <g id="patch_5">
    <path d="M 20.5625 342.2 
L 702.136136 342.2 
" style="fill: none; stroke: #000000; stroke-width: 0.8; stroke-linejoin: miter; stroke-linecap: square"/>
   </g>
   <g id="patch_6">
    <path d="M 20.5625 43.44 
L 702.136136 43.44 
" style="fill: none; stroke: #000000; stroke-width: 0.8; stroke-linejoin: miter; stroke-linecap: square"/>
   </g>
   <g id="text_15">
    <!-- 1 transformation(s) -->
    <g transform="translate(303.234631 37.44) scale(0.12 -0.12)">
     <defs>
      <path id="DejaVuSans-20" transform="scale(0.015625)"/>
      <path id="DejaVuSans-74" d="M 1172 4494 
L 1172 3500 
L 2356 3500 
L 2356 3053 
L 1172 3053 
L 1172 1153 
Q 1172 725 1289 603 
Q 1406 481 1766 481 
L 2356 481 
L 2356 0 
L 1766 0 
Q 1100 0 847 248 
Q 594 497 594 1153 
L 594 3053 
L 172 3053 
L 172 3500 
L 594 3500 
L 594 4494 
L 1172 4494 
z
" transform="scale(0.015625)"/>
      <path id="DejaVuSans-72" d="M 2631 2963 
Q 2534 3019 2420 3045 
Q 2306 3072 2169 3072 
Q 1681 3072 1420 2755 
Q 1159 2438 1159 1844 
L 1159 0 
L 581 0 
L 581 3500 
L 1159 3500 
L 1159 2956 
Q 1341 3275 1631 3429 
Q 1922 3584 2338 3584 
Q 2397 3584 2469 3576 
Q 2541 3569 2628 3553 
L 2631 2963 
z
" transform="scale(0.015625)"/>
      <path id="DejaVuSans-61" d="M 2194 1759 
Q 1497 1759 1228 1600 
Q 959 1441 959 1056 
Q 959 750 1161 570 
Q 1363 391 1709 391 
Q 2188 391 2477 730 
Q 2766 1069 2766 1631 
L 2766 1759 
L 2194 1759 
z
M 3341 1997 
L 3341 0 
L 2766 0 
L 2766 531 
Q 2569 213 2275 61 
Q 1981 -91 1556 -91 
Q 1019 -91 701 211 
Q 384 513 384 1019 
Q 384 1609 779 1909 
Q 1175 2209 1959 2209 
L 2766 2209 
L 2766 2266 
Q 2766 2663 2505 2880 
Q 2244 3097 1772 3097 
Q 1472 3097 1187 3025 
Q 903 2953 641 2809 
L 641 3341 
Q 956 3463 1253 3523 
Q 1550 3584 1831 3584 
Q 2591 3584 2966 3190 
Q 3341 2797 3341 1997 
z
" transform="scale(0.015625)"/>
      <path id="DejaVuSans-6e" d="M 3513 2113 
L 3513 0 
L 2938 0 
L 2938 2094 
Q 2938 2591 2744 2837 
Q 2550 3084 2163 3084 
Q 1697 3084 1428 2787 
Q 1159 2491 1159 1978 
L 1159 0 
L 581 0 
L 581 3500 
L 1159 3500 
L 1159 2956 
Q 1366 3272 1645 3428 
Q 1925 3584 2291 3584 
Q 2894 3584 3203 3211 
Q 3513 2838 3513 2113 
z
" transform="scale(0.015625)"/>
      <path id="DejaVuSans-73" d="M 2834 3397 
L 2834 2853 
Q 2591 2978 2328 3040 
Q 2066 3103 1784 3103 
Q 1356 3103 1142 2972 
Q 928 2841 928 2578 
Q 928 2378 1081 2264 
Q 1234 2150 1697 2047 
L 1894 2003 
Q 2506 1872 2764 1633 
Q 3022 1394 3022 966 
Q 3022 478 2636 193 
Q 2250 -91 1575 -91 
Q 1294 -91 989 -36 
Q 684 19 347 128 
L 347 722 
Q 666 556 975 473 
Q 1284 391 1588 391 
Q 1994 391 2212 530 
Q 2431 669 2431 922 
Q 2431 1156 2273 1281 
Q 2116 1406 1581 1522 
L 1381 1569 
Q 847 1681 609 1914 
Q 372 2147 372 2553 
Q 372 3047 722 3315 
Q 1072 3584 1716 3584 
Q 2034 3584 2315 3537 
Q 2597 3491 2834 3397 
z
" transform="scale(0.015625)"/>
      <path id="DejaVuSans-66" d="M 2375 4863 
L 2375 4384 
L 1825 4384 
Q 1516 4384 1395 4259 
Q 1275 4134 1275 3809 
L 1275 3500 
L 2222 3500 
L 2222 3053 
L 1275 3053 
L 1275 0 
L 697 0 
L 697 3053 
L 147 3053 
L 147 3500 
L 697 3500 
L 697 3744 
Q 697 4328 969 4595 
Q 1241 4863 1831 4863 
L 2375 4863 
z
" transform="scale(0.015625)"/>
      <path id="DejaVuSans-6f" d="M 1959 3097 
Q 1497 3097 1228 2736 
Q 959 2375 959 1747 
Q 959 1119 1226 758 
Q 1494 397 1959 397 
Q 2419 397 2687 759 
Q 2956 1122 2956 1747 
Q 2956 2369 2687 2733 
Q 2419 3097 1959 3097 
z
M 1959 3584 
Q 2709 3584 3137 3096 
Q 3566 2609 3566 1747 
Q 3566 888 3137 398 
Q 2709 -91 1959 -91 
Q 1206 -91 779 398 
Q 353 888 353 1747 
Q 353 2609 779 3096 
Q 1206 3584 1959 3584 
z
" transform="scale(0.015625)"/>
      <path id="DejaVuSans-6d" d="M 3328 2828 
Q 3544 3216 3844 3400 
Q 4144 3584 4550 3584 
Q 5097 3584 5394 3201 
Q 5691 2819 5691 2113 
L 5691 0 
L 5113 0 
L 5113 2094 
Q 5113 2597 4934 2840 
Q 4756 3084 4391 3084 
Q 3944 3084 3684 2787 
Q 3425 2491 3425 1978 
L 3425 0 
L 2847 0 
L 2847 2094 
Q 2847 2600 2669 2842 
Q 2491 3084 2119 3084 
Q 1678 3084 1418 2786 
Q 1159 2488 1159 1978 
L 1159 0 
L 581 0 
L 581 3500 
L 1159 3500 
L 1159 2956 
Q 1356 3278 1631 3431 
Q 1906 3584 2284 3584 
Q 2666 3584 2933 3390 
Q 3200 3197 3328 2828 
z
" transform="scale(0.015625)"/>
      <path id="DejaVuSans-69" d="M 603 3500 
L 1178 3500 
L 1178 0 
L 603 0 
L 603 3500 
z
M 603 4863 
L 1178 4863 
L 1178 4134 
L 603 4134 
L 603 4863 
z
" transform="scale(0.015625)"/>
      <path id="DejaVuSans-28" d="M 1984 4856 
Q 1566 4138 1362 3434 
Q 1159 2731 1159 2009 
Q 1159 1288 1364 580 
Q 1569 -128 1984 -844 
L 1484 -844 
Q 1016 -109 783 600 
Q 550 1309 550 2009 
Q 550 2706 781 3412 
Q 1013 4119 1484 4856 
L 1984 4856 
z
" transform="scale(0.015625)"/>
      <path id="DejaVuSans-29" d="M 513 4856 
L 1013 4856 
Q 1481 4119 1714 3412 
Q 1947 2706 1947 2009 
Q 1947 1309 1714 600 
Q 1481 -109 1013 -844 
L 513 -844 
Q 928 -128 1133 580 
Q 1338 1288 1338 2009 
Q 1338 2731 1133 3434 
Q 928 4138 513 4856 
z
" transform="scale(0.015625)"/>
     </defs>
     <use xlink:href="#DejaVuSans-31"/>
     <use xlink:href="#DejaVuSans-20" x="63.623047"/>
     <use xlink:href="#DejaVuSans-74" x="95.410156"/>
     <use xlink:href="#DejaVuSans-72" x="134.619141"/>
     <use xlink:href="#DejaVuSans-61" x="175.732422"/>
     <use xlink:href="#DejaVuSans-6e" x="237.011719"/>
     <use xlink:href="#DejaVuSans-73" x="300.390625"/>
     <use xlink:href="#DejaVuSans-66" x="352.490234"/>
     <use xlink:href="#DejaVuSans-6f" x="387.695312"/>
     <use xlink:href="#DejaVuSans-72" x="448.876953"/>
     <use xlink:href="#DejaVuSans-6d" x="488.240234"/>
     <use xlink:href="#DejaVuSans-61" x="585.652344"/>
     <use xlink:href="#DejaVuSans-74" x="646.931641"/>
     <use xlink:href="#DejaVuSans-69" x="686.140625"/>
     <use xlink:href="#DejaVuSans-6f" x="713.923828"/>
     <use xlink:href="#DejaVuSans-6e" x="775.105469"/>
     <use xlink:href="#DejaVuSans-28" x="838.484375"/>
     <use xlink:href="#DejaVuSans-73" x="877.498047"/>
     <use xlink:href="#DejaVuSans-29" x="929.597656"/>
    </g>
   </g>
   <g id="legend_1">
    <g id="patch_7">
     <path d="M 613.742386 80.79625 
L 695.136136 80.79625 
Q 697.136136 80.79625 697.136136 78.79625 
L 697.136136 50.44 
Q 697.136136 48.44 695.136136 48.44 
L 613.742386 48.44 
Q 611.742386 48.44 611.742386 50.44 
L 611.742386 78.79625 
Q 611.742386 80.79625 613.742386 80.79625 
z
" style="fill: #ffffff; opacity: 0.8; stroke: #cccccc; stroke-linejoin: miter"/>
    </g>
    <g id="line2d_17">
     <path d="M 615.742386 56.538437 
L 625.742386 56.538437 
L 635.742386 56.538437 
" style="fill: none; stroke: #1f77b4; stroke-width: 1.5; stroke-linecap: square"/>
    </g>
    <g id="text_16">
     <!-- observed -->
     <g transform="translate(643.742386 60.038437) scale(0.1 -0.1)">
      <defs>
       <path id="DejaVuSans-62" d="M 3116 1747 
Q 3116 2381 2855 2742 
Q 2594 3103 2138 3103 
Q 1681 3103 1420 2742 
Q 1159 2381 1159 1747 
Q 1159 1113 1420 752 
Q 1681 391 2138 391 
Q 2594 391 2855 752 
Q 3116 1113 3116 1747 
z
M 1159 2969 
Q 1341 3281 1617 3432 
Q 1894 3584 2278 3584 
Q 2916 3584 3314 3078 
Q 3713 2572 3713 1747 
Q 3713 922 3314 415 
Q 2916 -91 2278 -91 
Q 1894 -91 1617 61 
Q 1341 213 1159 525 
L 1159 0 
L 581 0 
L 581 4863 
L 1159 4863 
L 1159 2969 
z
" transform="scale(0.015625)"/>
       <path id="DejaVuSans-65" d="M 3597 1894 
L 3597 1613 
L 953 1613 
Q 991 1019 1311 708 
Q 1631 397 2203 397 
Q 2534 397 2845 478 
Q 3156 559 3463 722 
L 3463 178 
Q 3153 47 2828 -22 
Q 2503 -91 2169 -91 
Q 1331 -91 842 396 
Q 353 884 353 1716 
Q 353 2575 817 3079 
Q 1281 3584 2069 3584 
Q 2775 3584 3186 3129 
Q 3597 2675 3597 1894 
z
M 3022 2063 
Q 3016 2534 2758 2815 
Q 2500 3097 2075 3097 
Q 1594 3097 1305 2825 
Q 1016 2553 972 2059 
L 3022 2063 
z
" transform="scale(0.015625)"/>
       <path id="DejaVuSans-76" d="M 191 3500 
L 800 3500 
L 1894 563 
L 2988 3500 
L 3597 3500 
L 2284 0 
L 1503 0 
L 191 3500 
z
" transform="scale(0.015625)"/>
       <path id="DejaVuSans-64" d="M 2906 2969 
L 2906 4863 
L 3481 4863 
L 3481 0 
L 2906 0 
L 2906 525 
Q 2725 213 2448 61 
Q 2172 -91 1784 -91 
Q 1150 -91 751 415 
Q 353 922 353 1747 
Q 353 2572 751 3078 
Q 1150 3584 1784 3584 
Q 2172 3584 2448 3432 
Q 2725 3281 2906 2969 
z
M 947 1747 
Q 947 1113 1208 752 
Q 1469 391 1925 391 
Q 2381 391 2643 752 
Q 2906 1113 2906 1747 
Q 2906 2381 2643 2742 
Q 2381 3103 1925 3103 
Q 1469 3103 1208 2742 
Q 947 2381 947 1747 
z
" transform="scale(0.015625)"/>
      </defs>
      <use xlink:href="#DejaVuSans-6f"/>
      <use xlink:href="#DejaVuSans-62" x="61.181641"/>
      <use xlink:href="#DejaVuSans-73" x="124.658203"/>
      <use xlink:href="#DejaVuSans-65" x="176.757812"/>
      <use xlink:href="#DejaVuSans-72" x="238.28125"/>
      <use xlink:href="#DejaVuSans-76" x="279.394531"/>
      <use xlink:href="#DejaVuSans-65" x="338.574219"/>
      <use xlink:href="#DejaVuSans-64" x="400.097656"/>
     </g>
    </g>
    <g id="line2d_18">
     <path d="M 615.742386 71.216563 
L 625.742386 71.216563 
L 635.742386 71.216563 
" style="fill: none; stroke: #ff7f0e; stroke-width: 1.5; stroke-linecap: square"/>
    </g>
    <g id="text_17">
     <!-- simulated -->
     <g transform="translate(643.742386 74.716563) scale(0.1 -0.1)">
      <defs>
       <path id="DejaVuSans-75" d="M 544 1381 
L 544 3500 
L 1119 3500 
L 1119 1403 
Q 1119 906 1312 657 
Q 1506 409 1894 409 
Q 2359 409 2629 706 
Q 2900 1003 2900 1516 
L 2900 3500 
L 3475 3500 
L 3475 0 
L 2900 0 
L 2900 538 
Q 2691 219 2414 64 
Q 2138 -91 1772 -91 
Q 1169 -91 856 284 
Q 544 659 544 1381 
z
M 1991 3584 
L 1991 3584 
z
" transform="scale(0.015625)"/>
       <path id="DejaVuSans-6c" d="M 603 4863 
L 1178 4863 
L 1178 0 
L 603 0 
L 603 4863 
z
" transform="scale(0.015625)"/>
      </defs>
      <use xlink:href="#DejaVuSans-73"/>
      <use xlink:href="#DejaVuSans-69" x="52.099609"/>
      <use xlink:href="#DejaVuSans-6d" x="79.882812"/>
      <use xlink:href="#DejaVuSans-75" x="177.294922"/>
      <use xlink:href="#DejaVuSans-6c" x="240.673828"/>
      <use xlink:href="#DejaVuSans-61" x="268.457031"/>
      <use xlink:href="#DejaVuSans-74" x="329.736328"/>
      <use xlink:href="#DejaVuSans-65" x="368.945312"/>
      <use xlink:href="#DejaVuSans-64" x="430.46875"/>
     </g>
    </g>
   </g>
  </g>
  <g id="axes_2">
   <g id="patch_8">
    <path d="M 20.5625 684.92 
L 702.136136 684.92 
L 702.136136 386.16 
L 20.5625 386.16 
z
" style="fill: #ffffff"/>
   </g>
   <g id="matplotlib.axis_3">
    <g id="xtick_7">
     <g id="line2d_19">
      <g>
       <use xlink:href="#m305e7b49ef" x="51.370957" y="684.92" style="stroke: #000000; stroke-width: 0.8"/>
      </g>
     </g>
     <g id="text_18">
      <!-- 2014-07-01 -->
      <g transform="translate(22.313145 699.518437) scale(0.1 -0.1)">
       <use xlink:href="#DejaVuSans-32"/>
       <use xlink:href="#DejaVuSans-30" x="63.623047"/>
       <use xlink:href="#DejaVuSans-31" x="127.246094"/>
       <use xlink:href="#DejaVuSans-34" x="190.869141"/>
       <use xlink:href="#DejaVuSans-2d" x="254.492188"/>
       <use xlink:href="#DejaVuSans-30" x="290.576172"/>
       <use xlink:href="#DejaVuSans-37" x="354.199219"/>
       <use xlink:href="#DejaVuSans-2d" x="417.822266"/>
       <use xlink:href="#DejaVuSans-30" x="453.90625"/>
       <use xlink:href="#DejaVuSans-31" x="517.529297"/>
      </g>
     </g>
    </g>
    <g id="xtick_8">
     <g id="line2d_20">
      <g>
       <use xlink:href="#m305e7b49ef" x="175.327869" y="684.92" style="stroke: #000000; stroke-width: 0.8"/>
      </g>
     </g>
     <g id="text_19">
      <!-- 2014-07-02 -->
      <g transform="translate(146.270057 699.518437) scale(0.1 -0.1)">
       <use xlink:href="#DejaVuSans-32"/>
       <use xlink:href="#DejaVuSans-30" x="63.623047"/>
       <use xlink:href="#DejaVuSans-31" x="127.246094"/>
       <use xlink:href="#DejaVuSans-34" x="190.869141"/>
       <use xlink:href="#DejaVuSans-2d" x="254.492188"/>
       <use xlink:href="#DejaVuSans-30" x="290.576172"/>
       <use xlink:href="#DejaVuSans-37" x="354.199219"/>
       <use xlink:href="#DejaVuSans-2d" x="417.822266"/>
       <use xlink:href="#DejaVuSans-30" x="453.90625"/>
       <use xlink:href="#DejaVuSans-32" x="517.529297"/>
      </g>
     </g>
    </g>
    <g id="xtick_9">
     <g id="line2d_21">
      <g>
       <use xlink:href="#m305e7b49ef" x="299.284781" y="684.92" style="stroke: #000000; stroke-width: 0.8"/>
      </g>
     </g>
     <g id="text_20">
      <!-- 2014-07-03 -->
      <g transform="translate(270.226969 699.518437) scale(0.1 -0.1)">
       <use xlink:href="#DejaVuSans-32"/>
       <use xlink:href="#DejaVuSans-30" x="63.623047"/>
       <use xlink:href="#DejaVuSans-31" x="127.246094"/>
       <use xlink:href="#DejaVuSans-34" x="190.869141"/>
       <use xlink:href="#DejaVuSans-2d" x="254.492188"/>
       <use xlink:href="#DejaVuSans-30" x="290.576172"/>
       <use xlink:href="#DejaVuSans-37" x="354.199219"/>
       <use xlink:href="#DejaVuSans-2d" x="417.822266"/>
       <use xlink:href="#DejaVuSans-30" x="453.90625"/>
       <use xlink:href="#DejaVuSans-33" x="517.529297"/>
      </g>
     </g>
    </g>
    <g id="xtick_10">
     <g id="line2d_22">
      <g>
       <use xlink:href="#m305e7b49ef" x="423.241693" y="684.92" style="stroke: #000000; stroke-width: 0.8"/>
      </g>
     </g>
     <g id="text_21">
      <!-- 2014-07-04 -->
      <g transform="translate(394.18388 699.518437) scale(0.1 -0.1)">
       <use xlink:href="#DejaVuSans-32"/>
       <use xlink:href="#DejaVuSans-30" x="63.623047"/>
       <use xlink:href="#DejaVuSans-31" x="127.246094"/>
       <use xlink:href="#DejaVuSans-34" x="190.869141"/>
       <use xlink:href="#DejaVuSans-2d" x="254.492188"/>
       <use xlink:href="#DejaVuSans-30" x="290.576172"/>
       <use xlink:href="#DejaVuSans-37" x="354.199219"/>
       <use xlink:href="#DejaVuSans-2d" x="417.822266"/>
       <use xlink:href="#DejaVuSans-30" x="453.90625"/>
       <use xlink:href="#DejaVuSans-34" x="517.529297"/>
      </g>
     </g>
    </g>
    <g id="xtick_11">
     <g id="line2d_23">
      <g>
       <use xlink:href="#m305e7b49ef" x="547.198605" y="684.92" style="stroke: #000000; stroke-width: 0.8"/>
      </g>
     </g>
     <g id="text_22">
      <!-- 2014-07-05 -->
      <g transform="translate(518.140792 699.518437) scale(0.1 -0.1)">
       <use xlink:href="#DejaVuSans-32"/>
       <use xlink:href="#DejaVuSans-30" x="63.623047"/>
       <use xlink:href="#DejaVuSans-31" x="127.246094"/>
       <use xlink:href="#DejaVuSans-34" x="190.869141"/>
       <use xlink:href="#DejaVuSans-2d" x="254.492188"/>
       <use xlink:href="#DejaVuSans-30" x="290.576172"/>
       <use xlink:href="#DejaVuSans-37" x="354.199219"/>
       <use xlink:href="#DejaVuSans-2d" x="417.822266"/>
       <use xlink:href="#DejaVuSans-30" x="453.90625"/>
       <use xlink:href="#DejaVuSans-35" x="517.529297"/>
      </g>
     </g>
    </g>
    <g id="xtick_12">
     <g id="line2d_24">
      <g>
       <use xlink:href="#m305e7b49ef" x="671.155517" y="684.92" style="stroke: #000000; stroke-width: 0.8"/>
      </g>
     </g>
     <g id="text_23">
      <!-- 2014-07-06 -->
      <g transform="translate(642.097704 699.518437) scale(0.1 -0.1)">
       <use xlink:href="#DejaVuSans-32"/>
       <use xlink:href="#DejaVuSans-30" x="63.623047"/>
       <use xlink:href="#DejaVuSans-31" x="127.246094"/>
       <use xlink:href="#DejaVuSans-34" x="190.869141"/>
       <use xlink:href="#DejaVuSans-2d" x="254.492188"/>
       <use xlink:href="#DejaVuSans-30" x="290.576172"/>
       <use xlink:href="#DejaVuSans-37" x="354.199219"/>
       <use xlink:href="#DejaVuSans-2d" x="417.822266"/>
       <use xlink:href="#DejaVuSans-30" x="453.90625"/>
       <use xlink:href="#DejaVuSans-36" x="517.529297"/>
      </g>
     </g>
    </g>
   </g>
   <g id="matplotlib.axis_4">
    <g id="ytick_9">
     <g id="line2d_25">
      <g>
       <use xlink:href="#md58dd51d45" x="20.5625" y="665.156121" style="stroke: #000000; stroke-width: 0.8"/>
      </g>
     </g>
     <g id="text_24">
      <!-- 0 -->
      <g transform="translate(7.2 668.955339) scale(0.1 -0.1)">
       <use xlink:href="#DejaVuSans-30"/>
      </g>
     </g>
    </g>
    <g id="ytick_10">
     <g id="line2d_26">
      <g>
       <use xlink:href="#md58dd51d45" x="20.5625" y="630.20933" style="stroke: #000000; stroke-width: 0.8"/>
      </g>
     </g>
     <g id="text_25">
      <!-- 1 -->
      <g transform="translate(7.2 634.008548) scale(0.1 -0.1)">
       <use xlink:href="#DejaVuSans-31"/>
      </g>
     </g>
    </g>
    <g id="ytick_11">
     <g id="line2d_27">
      <g>
       <use xlink:href="#md58dd51d45" x="20.5625" y="595.262539" style="stroke: #000000; stroke-width: 0.8"/>
      </g>
     </g>
     <g id="text_26">
      <!-- 2 -->
      <g transform="translate(7.2 599.061757) scale(0.1 -0.1)">
       <use xlink:href="#DejaVuSans-32"/>
      </g>
     </g>
    </g>
    <g id="ytick_12">
     <g id="line2d_28">
      <g>
       <use xlink:href="#md58dd51d45" x="20.5625" y="560.315748" style="stroke: #000000; stroke-width: 0.8"/>
      </g>
     </g>
     <g id="text_27">
      <!-- 3 -->
      <g transform="translate(7.2 564.114967) scale(0.1 -0.1)">
       <use xlink:href="#DejaVuSans-33"/>
      </g>
     </g>
    </g>
    <g id="ytick_13">
     <g id="line2d_29">
      <g>
       <use xlink:href="#md58dd51d45" x="20.5625" y="525.368957" style="stroke: #000000; stroke-width: 0.8"/>
      </g>
     </g>
     <g id="text_28">
      <!-- 4 -->
      <g transform="translate(7.2 529.168176) scale(0.1 -0.1)">
       <use xlink:href="#DejaVuSans-34"/>
      </g>
     </g>
    </g>
    <g id="ytick_14">
     <g id="line2d_30">
      <g>
       <use xlink:href="#md58dd51d45" x="20.5625" y="490.422166" style="stroke: #000000; stroke-width: 0.8"/>
      </g>
     </g>
     <g id="text_29">
      <!-- 5 -->
      <g transform="translate(7.2 494.221385) scale(0.1 -0.1)">
       <use xlink:href="#DejaVuSans-35"/>
      </g>
     </g>
    </g>
    <g id="ytick_15">
     <g id="line2d_31">
      <g>
       <use xlink:href="#md58dd51d45" x="20.5625" y="455.475375" style="stroke: #000000; stroke-width: 0.8"/>
      </g>
     </g>
     <g id="text_30">
      <!-- 6 -->
      <g transform="translate(7.2 459.274594) scale(0.1 -0.1)">
       <use xlink:href="#DejaVuSans-36"/>
      </g>
     </g>
    </g>
    <g id="ytick_16">
     <g id="line2d_32">
      <g>
       <use xlink:href="#md58dd51d45" x="20.5625" y="420.528584" style="stroke: #000000; stroke-width: 0.8"/>
      </g>
     </g>
     <g id="text_31">
      <!-- 7 -->
      <g transform="translate(7.2 424.327803) scale(0.1 -0.1)">
       <use xlink:href="#DejaVuSans-37"/>
      </g>
     </g>
    </g>
   </g>
   <g id="line2d_33">
    <path d="M 51.54312 665.122502 
L 52.059607 664.966631 
L 52.403932 664.787185 
L 52.748256 664.596808 
L 53.178662 664.354442 
L 53.867312 663.952238 
L 54.383799 663.607396 
L 54.900286 663.251869 
L 57.052316 661.805083 
L 57.568803 661.167647 
L 58.860021 660.375722 
L 59.806914 659.912849 
L 60.581645 659.748866 
L 61.442457 659.827313 
L 62.561512 660.178291 
L 65.143948 661.068429 
L 66.263003 661.002048 
L 66.77949 660.663098 
L 67.46814 660.040124 
L 67.898546 659.399167 
L 68.156789 658.9194 
L 69.361926 653.233543 
L 69.964494 649.458548 
L 71.08355 642.523742 
L 71.255712 641.872636 
L 71.513956 640.674179 
L 71.85828 639.823929 
L 72.202605 638.124175 
L 72.374768 637.519158 
L 72.977336 634.537591 
L 73.924229 631.802814 
L 74.01031 631.568862 
L 74.096391 631.605229 
L 74.268554 631.469981 
L 74.526797 631.103304 
L 74.612878 630.936035 
L 74.785041 631.056599 
L 75.215447 630.426886 
L 75.301528 630.541667 
L 75.47369 630.504866 
L 75.645853 630.352912 
L 75.818015 630.140141 
L 75.990177 630.364412 
L 76.076259 630.327923 
L 76.334502 630.690669 
L 76.506665 630.580552 
L 76.764908 630.972979 
L 76.850989 631.014718 
L 77.109233 630.794296 
L 77.281395 631.060921 
L 77.539639 630.922375 
L 77.711801 630.732542 
L 77.883964 630.913801 
L 78.31437 630.372986 
L 78.400451 630.503242 
L 78.572613 630.472224 
L 78.916938 630.414263 
L 80.208156 633.775619 
L 80.466399 634.847992 
L 80.55248 634.64433 
L 81.155049 626.564129 
L 81.327211 626.295864 
L 81.585455 625.643467 
L 81.757617 625.860165 
L 81.929779 626.31292 
L 82.101942 627.511502 
L 82.618429 633.781447 
L 83.220997 640.962234 
L 83.737484 645.414194 
L 84.16789 648.192587 
L 84.253972 647.487657 
L 85.114783 607.232297 
L 85.717352 550.263741 
L 86.492082 482.216914 
L 87.094651 418.92778 
L 87.180732 418.68447 
L 87.266813 419.219116 
L 87.352894 418.851343 
L 87.611138 413.091589 
L 87.869381 408.896312 
L 88.385869 399.74 
L 88.47195 399.802856 
L 88.902356 408.126789 
L 89.160599 422.795595 
L 89.504924 471.740452 
L 89.677086 511.49277 
L 89.849249 539.173963 
L 90.279655 549.984537 
L 90.796142 560.519198 
L 91.656954 575.422615 
L 92.345603 588.803592 
L 94.841958 619.301634 
L 95.01412 620.028173 
L 95.444526 622.55727 
L 95.70277 621.548407 
L 95.788851 621.557755 
L 96.047094 620.229211 
L 96.735744 605.314954 
L 97.338312 573.344449 
L 98.026962 512.662311 
L 98.113043 511.946229 
L 98.371287 524.637744 
L 99.490342 601.371277 
L 100.09291 620.563298 
L 100.609397 631.145759 
L 101.125885 637.886926 
L 101.556291 641.362761 
L 102.072778 644.024518 
L 103.277914 648.452594 
L 104.39697 651.614771 
L 105.257782 653.350789 
L 105.774269 654.089541 
L 106.635081 654.825334 
L 107.409811 655.21733 
L 108.098461 655.378739 
L 108.959273 655.358889 
L 109.992247 655.116725 
L 112.919007 654.008562 
L 113.349413 653.826401 
L 113.435495 653.628109 
L 114.296306 647.532787 
L 115.157118 645.504423 
L 115.587524 644.81113 
L 115.759687 644.946739 
L 116.190093 645.904271 
L 117.309148 649.029073 
L 117.997798 650.018002 
L 118.686447 650.359321 
L 119.289015 650.350047 
L 120.838477 649.877824 
L 121.354964 649.563183 
L 121.613207 649.412846 
L 121.957532 649.189442 
L 122.215776 649.013396 
L 122.560101 648.768033 
L 122.732263 648.749297 
L 123.162669 648.407484 
L 123.334831 648.388181 
L 123.765237 648.004464 
L 123.9374 647.978742 
L 124.367806 647.577453 
L 124.539968 647.553453 
L 124.970374 647.136904 
L 125.142536 647.10301 
L 125.572942 646.624237 
L 125.831186 646.573276 
L 126.17551 646.217162 
L 126.433754 646.209342 
L 126.778079 645.773957 
L 127.036322 645.771475 
L 127.380647 645.307382 
L 127.638891 645.277454 
L 127.983215 644.787461 
L 128.241459 644.730423 
L 128.585784 644.170004 
L 128.930109 644.074235 
L 129.188352 643.756501 
L 129.360514 643.743497 
L 129.532677 643.70204 
L 129.79092 643.280715 
L 129.963083 643.275264 
L 130.135245 643.217559 
L 130.393489 642.742701 
L 130.996057 642.574112 
L 131.426463 643.028284 
L 131.770788 643.64493 
L 132.373356 645.405745 
L 134.353223 652.177157 
L 135.214035 654.321872 
L 136.419172 656.552611 
L 137.624309 658.23109 
L 138.915526 659.44964 
L 139.432014 659.794835 
L 139.690257 659.684792 
L 139.948501 659.512723 
L 140.120663 658.975486 
L 140.63715 657.311915 
L 141.153637 654.924304 
L 142.78918 650.388387 
L 143.047423 650.027979 
L 143.477829 649.949907 
L 144.25256 650.361553 
L 144.596885 650.539929 
L 145.199453 650.717297 
L 145.802022 650.855639 
L 146.232427 650.634413 
L 147.265402 649.107585 
L 147.781889 648.641193 
L 148.55662 648.128007 
L 148.987026 648.214836 
L 150.536487 649.291201 
L 150.880812 649.580663 
L 151.311218 649.655265 
L 151.48338 649.470539 
L 151.827705 649.011516 
L 152.172029 648.501323 
L 152.602435 648.278642 
L 153.377166 647.460155 
L 153.63541 647.390419 
L 153.979734 647.459364 
L 154.237978 647.756764 
L 155.012709 649.163277 
L 155.701358 650.397489 
L 156.820414 650.748484 
L 157.853388 649.46917 
L 158.455956 649.363354 
L 159.058525 649.685688 
L 159.230687 649.837142 
L 159.747174 649.434001 
L 159.919336 649.398026 
L 160.263661 648.981703 
L 160.607986 648.752972 
L 161.124473 647.939317 
L 161.64096 646.533958 
L 161.985285 645.995496 
L 162.243529 646.09916 
L 162.846097 646.54942 
L 163.448665 647.718119 
L 163.879071 648.608954 
L 164.481639 649.340612 
L 164.739883 649.426818 
L 166.633669 650.52391 
L 166.977994 650.600041 
L 167.494481 650.51017 
L 168.097049 650.008936 
L 168.355293 650.005255 
L 168.527455 650.04679 
L 169.388267 648.978586 
L 169.904754 648.093009 
L 170.33516 647.535333 
L 170.765566 647.470747 
L 171.798541 648.195093 
L 172.228946 648.874658 
L 173.520164 651.380795 
L 174.036651 651.312259 
L 174.294895 651.072864 
L 174.983545 649.9322 
L 175.41395 649.094014 
L 175.758275 648.524883 
L 176.188681 648.053917 
L 176.533006 647.743155 
L 176.705168 647.582162 
L 177.393818 646.96492 
L 177.652061 646.649095 
L 177.824224 646.574553 
L 178.168549 646.199773 
L 178.512873 646.186692 
L 178.857198 645.775078 
L 179.459766 645.696866 
L 180.492741 646.618839 
L 180.750984 646.531112 
L 181.009228 646.579463 
L 181.267471 646.699293 
L 181.956121 647.398722 
L 182.558689 647.834802 
L 183.33342 648.488481 
L 184.280313 649.708128 
L 184.538556 649.810692 
L 186.088018 651.079776 
L 186.518424 650.765084 
L 187.293155 648.954763 
L 187.551398 648.763117 
L 187.981804 648.657237 
L 188.498291 648.403058 
L 188.928697 648.40172 
L 189.789509 648.978845 
L 190.736402 648.19943 
L 191.425052 648.320791 
L 191.855458 648.750729 
L 192.285863 649.513612 
L 192.888432 651.091126 
L 194.610056 655.593963 
L 195.64303 657.471247 
L 196.245598 658.286462 
L 197.364654 659.422752 
L 198.56979 660.280443 
L 199.947089 660.981182 
L 200.72182 661.319257 
L 200.807901 660.484868 
L 201.066145 654.67329 
L 202.787768 614.820521 
L 203.132093 612.912584 
L 203.304256 612.867987 
L 203.476418 611.819097 
L 203.906824 610.696728 
L 204.165068 609.526666 
L 204.251149 609.560852 
L 204.767636 608.087985 
L 204.853717 608.289511 
L 204.939798 608.239819 
L 205.111961 608.499597 
L 205.198042 608.321676 
L 205.284123 608.459224 
L 206.058854 612.691621 
L 206.661422 617.577664 
L 207.091828 621.521491 
L 208.124802 629.132857 
L 208.899533 632.49008 
L 210.10467 636.686747 
L 210.276832 636.98043 
L 210.448994 637.430689 
L 210.707238 638.070932 
L 210.8794 638.291766 
L 211.051563 638.656642 
L 211.309806 639.1356 
L 211.654131 638.258028 
L 211.740212 638.218451 
L 211.912374 637.432943 
L 212.428862 633.38425 
L 212.601024 632.349405 
L 213.203592 624.041547 
L 213.892242 601.734363 
L 214.666973 532.440187 
L 214.753054 532.79582 
L 214.925216 539.164723 
L 215.95819 604.209239 
L 216.474677 621.772587 
L 216.991165 633.267563 
L 217.507652 640.719671 
L 218.024139 645.001209 
L 218.454545 647.425515 
L 219.229276 650.375138 
L 220.26225 653.109565 
L 221.381305 655.50169 
L 222.586442 657.57416 
L 223.102929 658.242189 
L 224.308066 659.462149 
L 225.599284 660.366477 
L 226.632258 660.830488 
L 227.062664 660.850513 
L 227.406988 660.817676 
L 227.751313 660.485395 
L 228.095638 660.031389 
L 228.870369 657.866673 
L 229.645099 656.220623 
L 230.41983 654.634847 
L 231.538886 651.890913 
L 233.949159 647.716797 
L 235.842945 644.180848 
L 236.445513 644.159135 
L 236.962 645.012764 
L 238.425381 648.001008 
L 238.597543 648.183981 
L 239.974842 647.077772 
L 240.233086 647.07484 
L 240.57741 647.126225 
L 241.438222 647.167372 
L 241.782547 647.508481 
L 242.471197 648.181973 
L 242.987684 647.689123 
L 243.504171 646.868611 
L 243.762414 646.66463 
L 244.020658 646.795067 
L 244.19282 646.889624 
L 244.623226 646.601515 
L 244.795389 646.589157 
L 245.225795 645.833227 
L 245.484038 645.661507 
L 245.6562 645.647734 
L 245.914444 645.962926 
L 246.861337 647.394104 
L 247.636068 648.791314 
L 248.066474 649.460302 
L 249.27161 651.039218 
L 249.788098 650.769945 
L 250.390666 649.551671 
L 250.821072 648.782567 
L 251.165397 648.479506 
L 251.940127 647.618661 
L 252.284452 647.52508 
L 252.628777 647.599012 
L 252.973102 647.807501 
L 253.145264 647.734885 
L 253.317426 647.640392 
L 253.489589 647.624868 
L 253.919995 647.058249 
L 254.092157 646.99449 
L 254.436482 646.63968 
L 254.780806 646.520166 
L 255.211212 646.26993 
L 255.813781 646.342781 
L 256.50243 647.401453 
L 256.760674 647.652109 
L 257.104999 647.785649 
L 258.310135 648.986332 
L 259.084866 649.905899 
L 260.376084 648.891775 
L 260.978652 648.485383 
L 261.495139 647.600853 
L 261.839464 647.185026 
L 262.097708 647.292908 
L 262.355951 647.299623 
L 262.614195 647.305491 
L 262.786357 647.407064 
L 263.216763 647.197903 
L 263.388925 647.197932 
L 263.819331 646.482337 
L 263.991494 646.273236 
L 264.335818 645.256534 
L 264.507981 645.071098 
L 264.852306 644.564698 
L 265.110549 644.639935 
L 265.540955 644.972793 
L 265.88528 645.692942 
L 266.573929 647.755518 
L 267.176498 649.507283 
L 267.434741 649.878684 
L 267.865147 650.192895 
L 268.295553 650.205745 
L 268.381634 650.191294 
L 269.070284 648.678144 
L 269.931096 645.783416 
L 270.447583 645.157759 
L 270.705826 645.303512 
L 271.136232 645.876391 
L 272.771775 649.155048 
L 272.943937 649.217485 
L 273.374343 648.898426 
L 274.149074 647.487586 
L 274.407318 647.428798 
L 274.57948 647.409053 
L 275.009886 647.071409 
L 275.182048 647.049856 
L 275.612454 646.506173 
L 275.870698 646.453296 
L 276.128941 646.498291 
L 276.387185 646.782448 
L 277.334078 645.874749 
L 277.678403 646.013366 
L 277.936646 646.254641 
L 278.367052 647.090743 
L 278.969621 648.707279 
L 281.035569 654.830056 
L 281.982462 656.757612 
L 283.015436 658.322087 
L 284.134492 659.459861 
L 285.339629 660.315735 
L 286.20044 660.776653 
L 286.286522 660.740941 
L 286.544765 660.193401 
L 286.803009 659.602678 
L 287.233415 658.511166 
L 287.749902 657.671806 
L 288.008145 657.627173 
L 288.438551 657.580274 
L 288.868957 657.119761 
L 289.299363 656.760732 
L 290.074094 656.448648 
L 290.418419 656.557663 
L 290.934906 657.022853 
L 292.140042 658.237379 
L 292.484367 658.195889 
L 293.000854 658.198724 
L 293.947747 658.279211 
L 294.722478 658.424665 
L 296.185858 658.461503 
L 296.874508 658.235775 
L 297.304914 657.8873 
L 297.563157 657.503011 
L 298.079644 656.563898 
L 299.887349 650.471138 
L 301.436811 644.234233 
L 302.297623 642.013879 
L 302.469785 641.547585 
L 302.81411 639.94233 
L 302.986272 639.365208 
L 303.588841 636.086095 
L 304.27749 632.602178 
L 304.621815 631.409185 
L 304.880058 630.923466 
L 305.138302 630.404341 
L 305.310464 630.535057 
L 305.396545 630.456801 
L 305.654789 630.757202 
L 305.826951 630.615961 
L 306.085195 630.986027 
L 306.171276 631.013927 
L 306.42952 630.792286 
L 306.601682 631.052616 
L 306.946007 630.856977 
L 307.032088 630.727126 
L 307.20425 630.903303 
L 307.634656 630.371091 
L 307.720738 630.519168 
L 307.8929 630.47317 
L 307.978981 630.46077 
L 308.237225 630.133292 
L 308.409387 630.359488 
L 308.495468 630.319545 
L 308.753712 630.687051 
L 308.925874 630.581866 
L 309.184118 630.975304 
L 309.442361 631.055111 
L 309.528443 631.07667 
L 309.786686 631.559252 
L 310.217092 632.245935 
L 310.991823 634.355173 
L 311.077904 634.103679 
L 311.680472 626.187928 
L 311.852635 626.03115 
L 312.110878 625.530757 
L 312.369122 626.051571 
L 312.541284 626.856268 
L 312.885609 630.493608 
L 313.832502 641.778379 
L 314.43507 646.364633 
L 315.037639 649.464994 
L 315.640207 651.54892 
L 316.414938 653.174927 
L 316.931425 653.836546 
L 317.533993 654.232263 
L 318.394805 654.436325 
L 319.083455 654.386224 
L 320.030348 654.110212 
L 321.063322 653.724633 
L 321.66589 653.72331 
L 322.268458 653.957367 
L 322.957108 654.468711 
L 323.731839 655.348439 
L 326.658599 658.728857 
L 328.380223 659.856495 
L 329.929684 660.554491 
L 331.995633 661.255843 
L 334.491987 662.007366 
L 338.193478 662.914921 
L 340.517671 663.22965 
L 346.457273 664.010839 
L 351.277819 664.402333 
L 357.819989 664.694599 
L 368.580138 664.906576 
L 388.895299 665.048709 
L 432.194137 665.123267 
L 502.005981 665.147764 
L 538.332242 665.148881 
L 671.155517 665.14713 
L 671.155517 665.14713 
" clip-path="url(#paa66f40dd4)" style="fill: none; stroke: #1f77b4; stroke-width: 1.5; stroke-linecap: square"/>
   </g>
   <g id="line2d_34">
    <path d="M 51.54312 665.145613 
L 52.231769 665.082059 
L 52.834338 664.408003 
L 54.555961 661.974551 
L 54.986367 661.466106 
L 55.761098 660.690518 
L 57.396641 659.807247 
L 58.946102 659.32409 
L 59.290427 659.456926 
L 59.720833 659.897515 
L 60.753807 661.642874 
L 62.905837 664.895609 
L 63.508405 665.244524 
L 64.024892 665.345869 
L 64.541379 665.017344 
L 64.885704 664.486958 
L 65.402191 663.425162 
L 66.435165 660.243425 
L 72.030443 635.885723 
L 73.579904 622.853187 
L 74.957203 614.315732 
L 75.645853 612.259857 
L 76.076259 611.538436 
L 76.592746 612.204415 
L 76.764908 612.284853 
L 77.023152 612.554895 
L 77.281395 612.296223 
L 77.711801 612.468128 
L 77.883964 612.314175 
L 78.31437 612.536219 
L 78.486532 612.400541 
L 78.658694 612.605832 
L 79.261263 613.850294 
L 80.380318 620.483605 
L 80.638562 621.864363 
L 80.724643 621.154662 
L 81.068968 612.112533 
L 81.413292 606.265039 
L 81.499374 606.017799 
L 81.585455 606.130034 
L 81.757617 607.174502 
L 82.015861 610.127016 
L 83.995728 642.606668 
L 84.340053 649.743953 
L 84.426134 648.796694 
L 84.684378 635.524863 
L 85.200865 599.604957 
L 85.631271 570.448088 
L 87.352894 477.183137 
L 87.697219 469.255776 
L 87.869381 468.557213 
L 88.127625 470.166051 
L 88.385869 473.856163 
L 88.902356 487.38966 
L 91.312629 551.189195 
L 92.689928 579.359003 
L 93.895065 597.596222 
L 95.01412 611.359538 
L 95.358445 612.571907 
L 95.530607 612.962257 
L 95.616688 612.809123 
L 96.133176 609.77276 
L 96.305338 607.492942 
L 96.907906 595.504883 
L 97.510475 571.902491 
L 98.026962 544.368613 
L 98.199124 541.487666 
L 98.285205 541.208923 
L 98.371287 541.489406 
L 98.62953 544.641337 
L 98.973855 552.263195 
L 99.920748 579.545528 
L 100.695479 609.337048 
L 101.298047 635.184759 
L 101.814534 647.847337 
L 102.331021 655.913186 
L 102.93359 661.742452 
L 103.622239 665.658929 
L 104.224807 667.823724 
L 104.913457 669.295165 
L 105.257782 669.486999 
L 105.602106 669.417703 
L 106.204675 668.884702 
L 109.647922 664.743791 
L 113.521576 661.055795 
L 113.693738 659.355771 
L 114.296306 651.138521 
L 114.55455 649.719379 
L 114.812794 649.253002 
L 115.071037 649.163536 
L 115.501443 649.503134 
L 116.276174 650.208244 
L 116.620499 650.619925 
L 116.792661 651.15471 
L 117.739554 656.123605 
L 118.083879 656.866392 
L 118.514285 657.300183 
L 119.116853 657.255668 
L 119.63334 656.990437 
L 119.891584 656.884736 
L 121.78537 655.045047 
L 122.560101 654.192431 
L 123.076588 653.863822 
L 127.294566 648.830508 
L 127.638891 648.288573 
L 127.897134 647.901571 
L 128.241459 647.344858 
L 128.499703 646.946788 
L 128.844027 646.402476 
L 129.102271 646.2941 
L 130.47957 643.90959 
L 130.737813 643.470675 
L 130.996057 643.455505 
L 131.254301 643.890205 
L 131.598625 645.026035 
L 132.373356 649.20538 
L 134.525386 662.492197 
L 135.127954 664.547818 
L 135.730522 665.674971 
L 136.333091 666.247555 
L 136.935659 666.487426 
L 137.71039 666.532151 
L 139.087689 666.34142 
L 139.518095 666.178036 
L 139.690257 665.702452 
L 140.292825 662.639958 
L 141.067556 657.309932 
L 141.497962 655.605096 
L 142.014449 654.11918 
L 142.272693 653.959072 
L 142.530936 654.094419 
L 143.047423 654.55074 
L 144.682966 656.361311 
L 145.113372 656.621905 
L 145.802022 657.366403 
L 146.060265 656.926779 
L 146.490671 655.897104 
L 147.093239 654.116391 
L 147.437564 653.413644 
L 147.86797 653.230163 
L 148.126214 653.300491 
L 148.298376 653.352832 
L 148.900944 653.073405 
L 149.159188 653.47706 
L 149.503513 654.063452 
L 149.761756 653.871365 
L 150.02 653.74191 
L 150.192162 653.940571 
L 150.622568 655.286059 
L 150.880812 655.85201 
L 151.225136 656.083356 
L 151.311218 656.058065 
L 151.48338 655.621864 
L 152.085948 653.465081 
L 152.430273 652.912006 
L 153.032841 652.520268 
L 153.205004 652.509246 
L 153.721491 652.07917 
L 153.893653 652.162286 
L 154.151897 652.595635 
L 154.582303 653.73425 
L 155.615277 657.686558 
L 155.787439 657.726548 
L 156.476089 656.941813 
L 156.734332 657.085458 
L 156.906495 657.197312 
L 156.992576 657.116054 
L 157.336901 655.842306 
L 157.681226 654.923596 
L 157.939469 654.716986 
L 158.197713 654.843852 
L 158.628119 655.427673 
L 159.058525 656.177217 
L 159.316768 656.632316 
L 159.402849 656.576878 
L 159.661093 655.593406 
L 160.091499 654.157279 
L 160.435824 653.652965 
L 160.694067 653.493754 
L 161.296636 651.91172 
L 161.899204 649.508478 
L 162.071366 649.490574 
L 162.32961 649.900745 
L 162.932178 651.201365 
L 163.362584 652.709402 
L 163.879071 654.568591 
L 164.309477 655.083708 
L 164.912045 655.311518 
L 165.514614 656.163993 
L 165.94502 657.212256 
L 166.289344 657.931313 
L 166.461507 657.847511 
L 167.236238 657.087214 
L 167.4084 657.013265 
L 167.580562 656.675883 
L 168.010968 655.665211 
L 168.183131 655.617564 
L 168.441374 655.92544 
L 168.699618 656.149433 
L 168.957861 655.513871 
L 170.421242 651.440179 
L 170.593404 651.398969 
L 170.765566 651.761818 
L 171.368135 653.441564 
L 171.884622 653.971833 
L 172.401109 655.427466 
L 172.745434 656.880673 
L 173.17584 658.495267 
L 173.606245 659.242827 
L 173.692327 659.215974 
L 173.95057 658.516161 
L 175.155707 654.523385 
L 175.500032 653.522105 
L 175.930438 653.045074 
L 176.274762 652.857391 
L 176.877331 652.083548 
L 177.910305 649.617404 
L 178.168549 649.445705 
L 178.340711 649.553244 
L 178.685036 650.013894 
L 178.943279 649.736472 
L 179.287604 649.480487 
L 179.545848 649.577334 
L 180.234497 650.549215 
L 180.492741 650.817118 
L 181.095309 650.404656 
L 181.353552 650.94594 
L 182.214364 653.28631 
L 182.472608 653.654122 
L 183.505582 654.302132 
L 183.677745 654.748771 
L 184.280313 656.905215 
L 184.538556 656.759787 
L 184.7968 656.663308 
L 184.968962 656.741811 
L 185.313287 657.263276 
L 185.657612 658.107922 
L 186.001937 659.032716 
L 186.088018 659.036674 
L 186.26018 658.59655 
L 186.776667 656.361724 
L 187.293155 653.390281 
L 187.465317 653.219452 
L 187.637479 653.383866 
L 188.240048 654.316296 
L 188.584372 654.528967 
L 189.359103 654.087531 
L 189.789509 654.405404 
L 190.822483 652.80044 
L 190.994646 652.888019 
L 191.252889 653.420439 
L 191.941539 655.795467 
L 193.749244 663.231164 
L 194.265731 664.942388 
L 194.696137 665.696829 
L 195.126543 666.063265 
L 195.64303 666.222768 
L 196.503842 666.217302 
L 198.914115 665.881028 
L 200.72182 665.690145 
L 200.807901 665.494771 
L 200.893982 664.909616 
L 201.066145 660.938314 
L 202.271281 612.26471 
L 202.787768 594.636451 
L 203.304256 580.470198 
L 203.734662 572.182954 
L 204.165068 566.345285 
L 204.33723 565.559845 
L 204.423311 565.595961 
L 204.681555 566.505572 
L 204.939798 568.417546 
L 205.628448 577.151587 
L 207.177909 599.659713 
L 208.813452 617.690167 
L 209.932507 627.544212 
L 210.707238 632.97286 
L 211.395887 636.901271 
L 211.481969 636.985513 
L 211.654131 636.401096 
L 212.084537 633.939151 
L 212.859268 622.481064 
L 213.461836 603.901859 
L 214.150485 561.944662 
L 214.580891 531.207093 
L 214.839135 526.126783 
L 214.925216 526.122295 
L 215.097378 527.675186 
L 215.355622 533.187217 
L 216.130353 557.728284 
L 217.077246 596.082073 
L 218.11022 646.523389 
L 218.626707 657.91851 
L 219.057113 663.242915 
L 219.487519 666.469207 
L 220.004006 668.749429 
L 220.606575 670.240794 
L 221.295224 671.184488 
L 221.639549 671.33627 
L 222.069955 671.253812 
L 222.672523 670.863507 
L 226.115771 668.234879 
L 226.460095 667.933477 
L 227.234826 666.688878 
L 227.665232 665.689006 
L 229.386856 659.481747 
L 229.731181 659.079203 
L 230.247668 658.799507 
L 231.969291 656.998203 
L 232.830103 654.531478 
L 233.776996 652.988753 
L 235.240377 647.614552 
L 235.584701 646.921307 
L 236.101189 646.380461 
L 236.359432 646.563867 
L 236.703757 647.291947 
L 237.048082 648.46049 
L 237.994975 652.279611 
L 238.253218 652.791433 
L 238.683624 653.120962 
L 238.855787 652.920234 
L 239.372274 652.005639 
L 239.716598 651.560034 
L 239.888761 651.570546 
L 240.060923 651.778968 
L 240.663492 653.079552 
L 240.749573 653.013025 
L 241.610385 651.831026 
L 241.782547 651.912074 
L 241.954709 652.256966 
L 242.471197 654.011706 
L 242.643359 653.839364 
L 243.159846 652.494912 
L 243.590252 650.71795 
L 243.762414 650.510376 
L 243.934577 650.760587 
L 244.451064 651.908667 
L 244.795389 651.598975 
L 244.967551 651.248107 
L 245.6562 648.565006 
L 245.828363 648.828806 
L 246.172688 649.980148 
L 247.377824 655.508781 
L 247.549987 655.538902 
L 248.066474 655.111756 
L 248.238636 655.578407 
L 249.185529 659.104895 
L 249.27161 659.130942 
L 249.443773 658.712781 
L 250.132422 655.99524 
L 250.562828 653.926002 
L 250.821072 653.446963 
L 251.079315 653.454432 
L 251.337559 653.374393 
L 251.940127 652.897154 
L 252.284452 652.407756 
L 252.456614 652.323012 
L 252.714858 652.530682 
L 253.059183 652.888813 
L 253.57567 652.075763 
L 254.436482 650.70845 
L 254.694725 650.744167 
L 254.952969 650.740818 
L 255.297294 650.636238 
L 255.985943 650.878494 
L 256.244187 651.405447 
L 256.846755 653.179935 
L 257.363242 653.035146 
L 257.621486 653.470188 
L 259.170947 657.34175 
L 259.257028 657.294004 
L 259.515272 656.245458 
L 260.031759 654.311588 
L 260.290003 654.035799 
L 261.064733 653.986458 
L 261.839464 651.854254 
L 262.011626 651.822604 
L 262.528113 652.022463 
L 263.044601 652.087207 
L 263.561088 651.514604 
L 264.766224 647.20725 
L 264.938387 647.372131 
L 265.282712 648.294142 
L 266.143523 651.314978 
L 267.176498 655.960771 
L 267.434741 656.379742 
L 267.951228 656.676669 
L 268.553797 656.313004 
L 269.070284 654.071984 
L 269.414609 651.798638 
L 269.931096 649.100746 
L 270.27542 648.164416 
L 270.361502 648.14373 
L 270.533664 648.480086 
L 271.824882 652.412107 
L 272.169207 652.736958 
L 272.341369 653.242574 
L 272.943937 655.578819 
L 273.202181 655.211216 
L 273.460424 654.628869 
L 274.062993 652.017527 
L 274.235155 651.870253 
L 274.407318 651.970528 
L 274.837723 652.422894 
L 275.268129 652.463141 
L 275.440292 652.032868 
L 275.956779 650.094173 
L 276.128941 650.047357 
L 276.559347 650.608862 
L 276.645428 650.529207 
L 277.161916 649.964994 
L 277.50624 649.840543 
L 277.764484 650.137542 
L 278.022727 650.963858 
L 278.625296 653.918009 
L 279.400026 658.198657 
L 280.34692 662.85218 
L 280.863407 664.880182 
L 281.293813 665.816742 
L 281.724219 666.27981 
L 282.240706 666.485277 
L 282.929355 666.487634 
L 284.73706 666.16752 
L 286.286522 665.879513 
L 286.458684 665.456592 
L 287.405577 660.351499 
L 287.663821 660.176483 
L 288.008145 660.276966 
L 288.868957 660.927684 
L 289.557607 661.478138 
L 289.901932 662.580116 
L 290.5045 664.303899 
L 291.020987 665.067783 
L 291.537474 665.416182 
L 291.881799 665.504694 
L 292.053961 665.335248 
L 293.000854 662.873167 
L 293.345179 662.790901 
L 293.947747 662.957704 
L 295.238965 663.492255 
L 295.927615 664.263549 
L 296.444102 664.200542 
L 296.960589 663.456251 
L 297.304914 662.571123 
L 297.907482 660.680286 
L 298.854375 656.979217 
L 299.456943 654.4616 
L 300.059512 651.976492 
L 300.920324 647.926189 
L 301.781136 643.983818 
L 302.12546 642.362624 
L 302.469785 641.043254 
L 302.641947 640.277462 
L 303.330597 633.397977 
L 304.019246 625.949938 
L 304.621815 620.515147 
L 305.052221 617.469709 
L 305.482627 614.492301 
L 305.913033 613.205807 
L 306.171276 612.73066 
L 306.343439 612.523483 
L 306.687763 611.863965 
L 306.946007 611.883853 
L 307.20425 611.516646 
L 307.376413 611.650551 
L 307.548575 611.748598 
L 307.806819 611.509477 
L 308.237225 611.774431 
L 308.409387 611.661151 
L 308.495468 611.727073 
L 308.925874 612.719724 
L 309.184118 612.865271 
L 309.614524 613.483094 
L 309.786686 613.874827 
L 310.389254 616.383886 
L 311.163985 621.278697 
L 311.250066 620.589707 
L 311.594391 611.621281 
L 311.938716 605.792789 
L 312.024797 605.473583 
L 312.110878 605.574227 
L 312.283041 606.608502 
L 312.627365 610.666047 
L 314.693314 645.923488 
L 315.209801 656.272113 
L 315.640207 661.477707 
L 316.070613 664.240896 
L 316.414938 665.2633 
L 316.759262 665.611785 
L 317.017506 665.583309 
L 317.620074 665.153191 
L 320.374672 662.431018 
L 321.321565 661.794251 
L 321.751971 661.979098 
L 322.182377 662.413621 
L 323.043189 663.579877 
L 324.506569 665.656662 
L 325.109138 666.112301 
L 325.711706 666.312965 
L 326.142112 666.308173 
L 327.43333 665.676177 
L 329.327116 665.547709 
L 330.790496 665.716803 
L 333.200769 665.551797 
L 337.935235 665.317744 
L 345.596461 665.193854 
L 366.428108 665.156843 
L 671.155517 665.156121 
L 671.155517 665.156121 
" clip-path="url(#paa66f40dd4)" style="fill: none; stroke: #ff7f0e; stroke-width: 1.5; stroke-linecap: square"/>
   </g>
   <g id="patch_9">
    <path d="M 20.5625 684.92 
L 20.5625 386.16 
" style="fill: none; stroke: #000000; stroke-width: 0.8; stroke-linejoin: miter; stroke-linecap: square"/>
   </g>
   <g id="patch_10">
    <path d="M 702.136136 684.92 
L 702.136136 386.16 
" style="fill: none; stroke: #000000; stroke-width: 0.8; stroke-linejoin: miter; stroke-linecap: square"/>
   </g>
   <g id="patch_11">
    <path d="M 20.5625 684.92 
L 702.136136 684.92 
" style="fill: none; stroke: #000000; stroke-width: 0.8; stroke-linejoin: miter; stroke-linecap: square"/>
   </g>
   <g id="patch_12">
    <path d="M 20.5625 386.16 
L 702.136136 386.16 
" style="fill: none; stroke: #000000; stroke-width: 0.8; stroke-linejoin: miter; stroke-linecap: square"/>
   </g>
   <g id="text_32">
    <!-- 2 transformation(s) -->
    <g transform="translate(303.234631 380.16) scale(0.12 -0.12)">
     <use xlink:href="#DejaVuSans-32"/>
     <use xlink:href="#DejaVuSans-20" x="63.623047"/>
     <use xlink:href="#DejaVuSans-74" x="95.410156"/>
     <use xlink:href="#DejaVuSans-72" x="134.619141"/>
     <use xlink:href="#DejaVuSans-61" x="175.732422"/>
     <use xlink:href="#DejaVuSans-6e" x="237.011719"/>
     <use xlink:href="#DejaVuSans-73" x="300.390625"/>
     <use xlink:href="#DejaVuSans-66" x="352.490234"/>
     <use xlink:href="#DejaVuSans-6f" x="387.695312"/>
     <use xlink:href="#DejaVuSans-72" x="448.876953"/>
     <use xlink:href="#DejaVuSans-6d" x="488.240234"/>
     <use xlink:href="#DejaVuSans-61" x="585.652344"/>
     <use xlink:href="#DejaVuSans-74" x="646.931641"/>
     <use xlink:href="#DejaVuSans-69" x="686.140625"/>
     <use xlink:href="#DejaVuSans-6f" x="713.923828"/>
     <use xlink:href="#DejaVuSans-6e" x="775.105469"/>
     <use xlink:href="#DejaVuSans-28" x="838.484375"/>
     <use xlink:href="#DejaVuSans-73" x="877.498047"/>
     <use xlink:href="#DejaVuSans-29" x="929.597656"/>
    </g>
   </g>
  </g>
  <g id="text_33">
   <!-- training -->
   <g transform="translate(333.129063 16.318125) scale(0.12 -0.12)">
    <defs>
     <path id="DejaVuSans-67" d="M 2906 1791 
Q 2906 2416 2648 2759 
Q 2391 3103 1925 3103 
Q 1463 3103 1205 2759 
Q 947 2416 947 1791 
Q 947 1169 1205 825 
Q 1463 481 1925 481 
Q 2391 481 2648 825 
Q 2906 1169 2906 1791 
z
M 3481 434 
Q 3481 -459 3084 -895 
Q 2688 -1331 1869 -1331 
Q 1566 -1331 1297 -1286 
Q 1028 -1241 775 -1147 
L 775 -588 
Q 1028 -725 1275 -790 
Q 1522 -856 1778 -856 
Q 2344 -856 2625 -561 
Q 2906 -266 2906 331 
L 2906 616 
Q 2728 306 2450 153 
Q 2172 0 1784 0 
Q 1141 0 747 490 
Q 353 981 353 1791 
Q 353 2603 747 3093 
Q 1141 3584 1784 3584 
Q 2172 3584 2450 3431 
Q 2728 3278 2906 2969 
L 2906 3500 
L 3481 3500 
L 3481 434 
z
" transform="scale(0.015625)"/>
    </defs>
    <use xlink:href="#DejaVuSans-74"/>
    <use xlink:href="#DejaVuSans-72" x="39.208984"/>
    <use xlink:href="#DejaVuSans-61" x="80.322266"/>
    <use xlink:href="#DejaVuSans-69" x="141.601562"/>
    <use xlink:href="#DejaVuSans-6e" x="169.384766"/>
    <use xlink:href="#DejaVuSans-69" x="232.763672"/>
    <use xlink:href="#DejaVuSans-6e" x="260.546875"/>
    <use xlink:href="#DejaVuSans-67" x="323.925781"/>
   </g>
  </g>
 </g>
 <defs>
  <clipPath id="p9efa91da99">
   <rect x="20.5625" y="43.44" width="681.573636" height="298.76"/>
  </clipPath>
  <clipPath id="paa66f40dd4">
   <rect x="20.5625" y="386.16" width="681.573636" height="298.76"/>
  </clipPath>
 </defs>
</svg>
