<?xml version="1.0" encoding="utf-8" standalone="no"?>
<!DOCTYPE svg PUBLIC "-//W3C//DTD SVG 1.1//EN"
  "http://www.w3.org/Graphics/SVG/1.1/DTD/svg11.dtd">
<svg xmlns:xlink="http://www.w3.org/1999/xlink" width="709.489261pt" height="708.798125pt" viewBox="0 0 709.489261 708.798125" xmlns="http://www.w3.org/2000/svg" version="1.1">
 <metadata>
  <rdf:RDF xmlns:dc="http://purl.org/dc/elements/1.1/" xmlns:cc="http://creativecommons.org/ns#" xmlns:rdf="http://www.w3.org/1999/02/22-rdf-syntax-ns#">
   <cc:Work>
    <dc:type rdf:resource="http://purl.org/dc/dcmitype/StillImage"/>
    <dc:date>2023-06-08T09:02:46.538247</dc:date>
    <dc:format>image/svg+xml</dc:format>
    <dc:creator>
     <cc:Agent>
      <dc:title>Matplotlib v3.7.1, https://matplotlib.org/</dc:title>
     </cc:Agent>
    </dc:creator>
   </cc:Work>
  </rdf:RDF>
 </metadata>
 <defs>
  <style type="text/css">*{stroke-linejoin: round; stroke-linecap: butt}</style>
 </defs>
 <g id="figure_1">
  <g id="patch_1">
   <path d="M 0 708.798125 
L 709.489261 708.798125 
L 709.489261 0 
L 0 0 
z
" style="fill: #ffffff"/>
  </g>
  <g id="axes_1">
   <g id="patch_2">
    <path d="M 36.465625 342.2 
L 702.289261 342.2 
L 702.289261 43.44 
L 36.465625 43.44 
z
" style="fill: #ffffff"/>
   </g>
   <g id="matplotlib.axis_1">
    <g id="xtick_1">
     <g id="line2d_1">
      <defs>
       <path id="mef849f9ff6" d="M 0 0 
L 0 3.5 
" style="stroke: #000000; stroke-width: 0.8"/>
      </defs>
      <g>
       <use xlink:href="#mef849f9ff6" x="66.562152" y="342.2" style="stroke: #000000; stroke-width: 0.8"/>
      </g>
     </g>
     <g id="text_1">
      <!-- 2014-07-01 -->
      <g transform="translate(37.504339 356.798437) scale(0.1 -0.1)">
       <defs>
        <path id="DejaVuSans-32" d="M 1228 531 
L 3431 531 
L 3431 0 
L 469 0 
L 469 531 
Q 828 903 1448 1529 
Q 2069 2156 2228 2338 
Q 2531 2678 2651 2914 
Q 2772 3150 2772 3378 
Q 2772 3750 2511 3984 
Q 2250 4219 1831 4219 
Q 1534 4219 1204 4116 
Q 875 4013 500 3803 
L 500 4441 
Q 881 4594 1212 4672 
Q 1544 4750 1819 4750 
Q 2544 4750 2975 4387 
Q 3406 4025 3406 3419 
Q 3406 3131 3298 2873 
Q 3191 2616 2906 2266 
Q 2828 2175 2409 1742 
Q 1991 1309 1228 531 
z
" transform="scale(0.015625)"/>
        <path id="DejaVuSans-30" d="M 2034 4250 
Q 1547 4250 1301 3770 
Q 1056 3291 1056 2328 
Q 1056 1369 1301 889 
Q 1547 409 2034 409 
Q 2525 409 2770 889 
Q 3016 1369 3016 2328 
Q 3016 3291 2770 3770 
Q 2525 4250 2034 4250 
z
M 2034 4750 
Q 2819 4750 3233 4129 
Q 3647 3509 3647 2328 
Q 3647 1150 3233 529 
Q 2819 -91 2034 -91 
Q 1250 -91 836 529 
Q 422 1150 422 2328 
Q 422 3509 836 4129 
Q 1250 4750 2034 4750 
z
" transform="scale(0.015625)"/>
        <path id="DejaVuSans-31" d="M 794 531 
L 1825 531 
L 1825 4091 
L 703 3866 
L 703 4441 
L 1819 4666 
L 2450 4666 
L 2450 531 
L 3481 531 
L 3481 0 
L 794 0 
L 794 531 
z
" transform="scale(0.015625)"/>
        <path id="DejaVuSans-34" d="M 2419 4116 
L 825 1625 
L 2419 1625 
L 2419 4116 
z
M 2253 4666 
L 3047 4666 
L 3047 1625 
L 3713 1625 
L 3713 1100 
L 3047 1100 
L 3047 0 
L 2419 0 
L 2419 1100 
L 313 1100 
L 313 1709 
L 2253 4666 
z
" transform="scale(0.015625)"/>
        <path id="DejaVuSans-2d" d="M 313 2009 
L 1997 2009 
L 1997 1497 
L 313 1497 
L 313 2009 
z
" transform="scale(0.015625)"/>
        <path id="DejaVuSans-37" d="M 525 4666 
L 3525 4666 
L 3525 4397 
L 1831 0 
L 1172 0 
L 2766 4134 
L 525 4134 
L 525 4666 
z
" transform="scale(0.015625)"/>
       </defs>
       <use xlink:href="#DejaVuSans-32"/>
       <use xlink:href="#DejaVuSans-30" x="63.623047"/>
       <use xlink:href="#DejaVuSans-31" x="127.246094"/>
       <use xlink:href="#DejaVuSans-34" x="190.869141"/>
       <use xlink:href="#DejaVuSans-2d" x="254.492188"/>
       <use xlink:href="#DejaVuSans-30" x="290.576172"/>
       <use xlink:href="#DejaVuSans-37" x="354.199219"/>
       <use xlink:href="#DejaVuSans-2d" x="417.822266"/>
       <use xlink:href="#DejaVuSans-30" x="453.90625"/>
       <use xlink:href="#DejaVuSans-31" x="517.529297"/>
      </g>
     </g>
    </g>
    <g id="xtick_2">
     <g id="line2d_2">
      <g>
       <use xlink:href="#mef849f9ff6" x="187.654632" y="342.2" style="stroke: #000000; stroke-width: 0.8"/>
      </g>
     </g>
     <g id="text_2">
      <!-- 2014-07-02 -->
      <g transform="translate(158.596819 356.798437) scale(0.1 -0.1)">
       <use xlink:href="#DejaVuSans-32"/>
       <use xlink:href="#DejaVuSans-30" x="63.623047"/>
       <use xlink:href="#DejaVuSans-31" x="127.246094"/>
       <use xlink:href="#DejaVuSans-34" x="190.869141"/>
       <use xlink:href="#DejaVuSans-2d" x="254.492188"/>
       <use xlink:href="#DejaVuSans-30" x="290.576172"/>
       <use xlink:href="#DejaVuSans-37" x="354.199219"/>
       <use xlink:href="#DejaVuSans-2d" x="417.822266"/>
       <use xlink:href="#DejaVuSans-30" x="453.90625"/>
       <use xlink:href="#DejaVuSans-32" x="517.529297"/>
      </g>
     </g>
    </g>
    <g id="xtick_3">
     <g id="line2d_3">
      <g>
       <use xlink:href="#mef849f9ff6" x="308.747111" y="342.2" style="stroke: #000000; stroke-width: 0.8"/>
      </g>
     </g>
     <g id="text_3">
      <!-- 2014-07-03 -->
      <g transform="translate(279.689299 356.798437) scale(0.1 -0.1)">
       <defs>
        <path id="DejaVuSans-33" d="M 2597 2516 
Q 3050 2419 3304 2112 
Q 3559 1806 3559 1356 
Q 3559 666 3084 287 
Q 2609 -91 1734 -91 
Q 1441 -91 1130 -33 
Q 819 25 488 141 
L 488 750 
Q 750 597 1062 519 
Q 1375 441 1716 441 
Q 2309 441 2620 675 
Q 2931 909 2931 1356 
Q 2931 1769 2642 2001 
Q 2353 2234 1838 2234 
L 1294 2234 
L 1294 2753 
L 1863 2753 
Q 2328 2753 2575 2939 
Q 2822 3125 2822 3475 
Q 2822 3834 2567 4026 
Q 2313 4219 1838 4219 
Q 1578 4219 1281 4162 
Q 984 4106 628 3988 
L 628 4550 
Q 988 4650 1302 4700 
Q 1616 4750 1894 4750 
Q 2613 4750 3031 4423 
Q 3450 4097 3450 3541 
Q 3450 3153 3228 2886 
Q 3006 2619 2597 2516 
z
" transform="scale(0.015625)"/>
       </defs>
       <use xlink:href="#DejaVuSans-32"/>
       <use xlink:href="#DejaVuSans-30" x="63.623047"/>
       <use xlink:href="#DejaVuSans-31" x="127.246094"/>
       <use xlink:href="#DejaVuSans-34" x="190.869141"/>
       <use xlink:href="#DejaVuSans-2d" x="254.492188"/>
       <use xlink:href="#DejaVuSans-30" x="290.576172"/>
       <use xlink:href="#DejaVuSans-37" x="354.199219"/>
       <use xlink:href="#DejaVuSans-2d" x="417.822266"/>
       <use xlink:href="#DejaVuSans-30" x="453.90625"/>
       <use xlink:href="#DejaVuSans-33" x="517.529297"/>
      </g>
     </g>
    </g>
    <g id="xtick_4">
     <g id="line2d_4">
      <g>
       <use xlink:href="#mef849f9ff6" x="429.839591" y="342.2" style="stroke: #000000; stroke-width: 0.8"/>
      </g>
     </g>
     <g id="text_4">
      <!-- 2014-07-04 -->
      <g transform="translate(400.781779 356.798437) scale(0.1 -0.1)">
       <use xlink:href="#DejaVuSans-32"/>
       <use xlink:href="#DejaVuSans-30" x="63.623047"/>
       <use xlink:href="#DejaVuSans-31" x="127.246094"/>
       <use xlink:href="#DejaVuSans-34" x="190.869141"/>
       <use xlink:href="#DejaVuSans-2d" x="254.492188"/>
       <use xlink:href="#DejaVuSans-30" x="290.576172"/>
       <use xlink:href="#DejaVuSans-37" x="354.199219"/>
       <use xlink:href="#DejaVuSans-2d" x="417.822266"/>
       <use xlink:href="#DejaVuSans-30" x="453.90625"/>
       <use xlink:href="#DejaVuSans-34" x="517.529297"/>
      </g>
     </g>
    </g>
    <g id="xtick_5">
     <g id="line2d_5">
      <g>
       <use xlink:href="#mef849f9ff6" x="550.932071" y="342.2" style="stroke: #000000; stroke-width: 0.8"/>
      </g>
     </g>
     <g id="text_5">
      <!-- 2014-07-05 -->
      <g transform="translate(521.874258 356.798437) scale(0.1 -0.1)">
       <defs>
        <path id="DejaVuSans-35" d="M 691 4666 
L 3169 4666 
L 3169 4134 
L 1269 4134 
L 1269 2991 
Q 1406 3038 1543 3061 
Q 1681 3084 1819 3084 
Q 2600 3084 3056 2656 
Q 3513 2228 3513 1497 
Q 3513 744 3044 326 
Q 2575 -91 1722 -91 
Q 1428 -91 1123 -41 
Q 819 9 494 109 
L 494 744 
Q 775 591 1075 516 
Q 1375 441 1709 441 
Q 2250 441 2565 725 
Q 2881 1009 2881 1497 
Q 2881 1984 2565 2268 
Q 2250 2553 1709 2553 
Q 1456 2553 1204 2497 
Q 953 2441 691 2322 
L 691 4666 
z
" transform="scale(0.015625)"/>
       </defs>
       <use xlink:href="#DejaVuSans-32"/>
       <use xlink:href="#DejaVuSans-30" x="63.623047"/>
       <use xlink:href="#DejaVuSans-31" x="127.246094"/>
       <use xlink:href="#DejaVuSans-34" x="190.869141"/>
       <use xlink:href="#DejaVuSans-2d" x="254.492188"/>
       <use xlink:href="#DejaVuSans-30" x="290.576172"/>
       <use xlink:href="#DejaVuSans-37" x="354.199219"/>
       <use xlink:href="#DejaVuSans-2d" x="417.822266"/>
       <use xlink:href="#DejaVuSans-30" x="453.90625"/>
       <use xlink:href="#DejaVuSans-35" x="517.529297"/>
      </g>
     </g>
    </g>
    <g id="xtick_6">
     <g id="line2d_6">
      <g>
       <use xlink:href="#mef849f9ff6" x="672.024551" y="342.2" style="stroke: #000000; stroke-width: 0.8"/>
      </g>
     </g>
     <g id="text_6">
      <!-- 2014-07-06 -->
      <g transform="translate(642.966738 356.798437) scale(0.1 -0.1)">
       <defs>
        <path id="DejaVuSans-36" d="M 2113 2584 
Q 1688 2584 1439 2293 
Q 1191 2003 1191 1497 
Q 1191 994 1439 701 
Q 1688 409 2113 409 
Q 2538 409 2786 701 
Q 3034 994 3034 1497 
Q 3034 2003 2786 2293 
Q 2538 2584 2113 2584 
z
M 3366 4563 
L 3366 3988 
Q 3128 4100 2886 4159 
Q 2644 4219 2406 4219 
Q 1781 4219 1451 3797 
Q 1122 3375 1075 2522 
Q 1259 2794 1537 2939 
Q 1816 3084 2150 3084 
Q 2853 3084 3261 2657 
Q 3669 2231 3669 1497 
Q 3669 778 3244 343 
Q 2819 -91 2113 -91 
Q 1303 -91 875 529 
Q 447 1150 447 2328 
Q 447 3434 972 4092 
Q 1497 4750 2381 4750 
Q 2619 4750 2861 4703 
Q 3103 4656 3366 4563 
z
" transform="scale(0.015625)"/>
       </defs>
       <use xlink:href="#DejaVuSans-32"/>
       <use xlink:href="#DejaVuSans-30" x="63.623047"/>
       <use xlink:href="#DejaVuSans-31" x="127.246094"/>
       <use xlink:href="#DejaVuSans-34" x="190.869141"/>
       <use xlink:href="#DejaVuSans-2d" x="254.492188"/>
       <use xlink:href="#DejaVuSans-30" x="290.576172"/>
       <use xlink:href="#DejaVuSans-37" x="354.199219"/>
       <use xlink:href="#DejaVuSans-2d" x="417.822266"/>
       <use xlink:href="#DejaVuSans-30" x="453.90625"/>
       <use xlink:href="#DejaVuSans-36" x="517.529297"/>
      </g>
     </g>
    </g>
   </g>
   <g id="matplotlib.axis_2">
    <g id="ytick_1">
     <g id="line2d_7">
      <defs>
       <path id="mc47ab6fa70" d="M 0 0 
L -3.5 0 
" style="stroke: #000000; stroke-width: 0.8"/>
      </defs>
      <g>
       <use xlink:href="#mc47ab6fa70" x="36.465625" y="328.630475" style="stroke: #000000; stroke-width: 0.8"/>
      </g>
     </g>
     <g id="text_7">
      <!-- 0.00 -->
      <g transform="translate(7.2 332.429693) scale(0.1 -0.1)">
       <defs>
        <path id="DejaVuSans-2e" d="M 684 794 
L 1344 794 
L 1344 0 
L 684 0 
L 684 794 
z
" transform="scale(0.015625)"/>
       </defs>
       <use xlink:href="#DejaVuSans-30"/>
       <use xlink:href="#DejaVuSans-2e" x="63.623047"/>
       <use xlink:href="#DejaVuSans-30" x="95.410156"/>
       <use xlink:href="#DejaVuSans-30" x="159.033203"/>
      </g>
     </g>
    </g>
    <g id="ytick_2">
     <g id="line2d_8">
      <g>
       <use xlink:href="#mc47ab6fa70" x="36.465625" y="290.484397" style="stroke: #000000; stroke-width: 0.8"/>
      </g>
     </g>
     <g id="text_8">
      <!-- 0.25 -->
      <g transform="translate(7.2 294.283616) scale(0.1 -0.1)">
       <use xlink:href="#DejaVuSans-30"/>
       <use xlink:href="#DejaVuSans-2e" x="63.623047"/>
       <use xlink:href="#DejaVuSans-32" x="95.410156"/>
       <use xlink:href="#DejaVuSans-35" x="159.033203"/>
      </g>
     </g>
    </g>
    <g id="ytick_3">
     <g id="line2d_9">
      <g>
       <use xlink:href="#mc47ab6fa70" x="36.465625" y="252.33832" style="stroke: #000000; stroke-width: 0.8"/>
      </g>
     </g>
     <g id="text_9">
      <!-- 0.50 -->
      <g transform="translate(7.2 256.137539) scale(0.1 -0.1)">
       <use xlink:href="#DejaVuSans-30"/>
       <use xlink:href="#DejaVuSans-2e" x="63.623047"/>
       <use xlink:href="#DejaVuSans-35" x="95.410156"/>
       <use xlink:href="#DejaVuSans-30" x="159.033203"/>
      </g>
     </g>
    </g>
    <g id="ytick_4">
     <g id="line2d_10">
      <g>
       <use xlink:href="#mc47ab6fa70" x="36.465625" y="214.192242" style="stroke: #000000; stroke-width: 0.8"/>
      </g>
     </g>
     <g id="text_10">
      <!-- 0.75 -->
      <g transform="translate(7.2 217.991461) scale(0.1 -0.1)">
       <use xlink:href="#DejaVuSans-30"/>
       <use xlink:href="#DejaVuSans-2e" x="63.623047"/>
       <use xlink:href="#DejaVuSans-37" x="95.410156"/>
       <use xlink:href="#DejaVuSans-35" x="159.033203"/>
      </g>
     </g>
    </g>
    <g id="ytick_5">
     <g id="line2d_11">
      <g>
       <use xlink:href="#mc47ab6fa70" x="36.465625" y="176.046165" style="stroke: #000000; stroke-width: 0.8"/>
      </g>
     </g>
     <g id="text_11">
      <!-- 1.00 -->
      <g transform="translate(7.2 179.845384) scale(0.1 -0.1)">
       <use xlink:href="#DejaVuSans-31"/>
       <use xlink:href="#DejaVuSans-2e" x="63.623047"/>
       <use xlink:href="#DejaVuSans-30" x="95.410156"/>
       <use xlink:href="#DejaVuSans-30" x="159.033203"/>
      </g>
     </g>
    </g>
    <g id="ytick_6">
     <g id="line2d_12">
      <g>
       <use xlink:href="#mc47ab6fa70" x="36.465625" y="137.900088" style="stroke: #000000; stroke-width: 0.8"/>
      </g>
     </g>
     <g id="text_12">
      <!-- 1.25 -->
      <g transform="translate(7.2 141.699306) scale(0.1 -0.1)">
       <use xlink:href="#DejaVuSans-31"/>
       <use xlink:href="#DejaVuSans-2e" x="63.623047"/>
       <use xlink:href="#DejaVuSans-32" x="95.410156"/>
       <use xlink:href="#DejaVuSans-35" x="159.033203"/>
      </g>
     </g>
    </g>
    <g id="ytick_7">
     <g id="line2d_13">
      <g>
       <use xlink:href="#mc47ab6fa70" x="36.465625" y="99.75401" style="stroke: #000000; stroke-width: 0.8"/>
      </g>
     </g>
     <g id="text_13">
      <!-- 1.50 -->
      <g transform="translate(7.2 103.553229) scale(0.1 -0.1)">
       <use xlink:href="#DejaVuSans-31"/>
       <use xlink:href="#DejaVuSans-2e" x="63.623047"/>
       <use xlink:href="#DejaVuSans-35" x="95.410156"/>
       <use xlink:href="#DejaVuSans-30" x="159.033203"/>
      </g>
     </g>
    </g>
    <g id="ytick_8">
     <g id="line2d_14">
      <g>
       <use xlink:href="#mc47ab6fa70" x="36.465625" y="61.607933" style="stroke: #000000; stroke-width: 0.8"/>
      </g>
     </g>
     <g id="text_14">
      <!-- 1.75 -->
      <g transform="translate(7.2 65.407151) scale(0.1 -0.1)">
       <use xlink:href="#DejaVuSans-31"/>
       <use xlink:href="#DejaVuSans-2e" x="63.623047"/>
       <use xlink:href="#DejaVuSans-37" x="95.410156"/>
       <use xlink:href="#DejaVuSans-35" x="159.033203"/>
      </g>
     </g>
    </g>
   </g>
   <g id="line2d_15">
    <path d="M 66.730336 328.613785 
L 67.991716 328.456969 
L 69.084912 328.033716 
L 72.112224 325.971927 
L 72.700868 325.54988 
L 73.878156 324.695586 
L 74.550892 324.414956 
L 75.223628 324.334201 
L 76.232732 324.434036 
L 79.764596 324.959171 
L 80.185056 324.802841 
L 80.689608 324.476035 
L 81.782804 323.245189 
L 82.960092 320.635043 
L 83.380552 318.523401 
L 83.548736 318.082188 
L 83.969196 315.308058 
L 84.13738 314.81679 
L 84.473748 312.253027 
L 84.641932 311.940884 
L 84.810116 311.811329 
L 85.146484 309.720126 
L 85.39876 309.563947 
L 85.651036 307.628402 
L 85.81922 307.406529 
L 85.987404 307.401434 
L 86.23968 305.362115 
L 86.407864 305.125488 
L 86.491956 305.162818 
L 86.576048 304.866443 
L 86.828324 301.180989 
L 87.164692 299.816412 
L 87.416968 295.25896 
L 87.92152 290.138602 
L 88.257888 285.041959 
L 88.426072 282.895774 
L 88.76244 276.256632 
L 89.014716 272.864351 
L 89.351084 266.095605 
L 89.687452 260.322073 
L 90.107912 253.657284 
L 91.201108 236.533119 
L 91.453384 234.126671 
L 91.70566 230.560289 
L 92.042028 227.98718 
L 92.294304 224.637517 
L 92.630672 222.407806 
L 92.882948 219.632557 
L 93.219316 217.940328 
L 93.471592 215.884881 
L 93.892052 214.693299 
L 94.144328 213.498569 
L 94.480696 213.286416 
L 94.64888 212.765215 
L 94.817064 212.885393 
L 94.985248 213.127304 
L 95.06934 212.476403 
L 95.237524 208.52284 
L 95.321616 208.416623 
L 95.4898 208.532599 
L 95.573892 208.435103 
L 95.742076 207.63845 
L 96.582996 203.417557 
L 96.75118 203.245003 
L 96.919364 203.421495 
L 97.255732 204.552189 
L 97.760284 207.553114 
L 98.601204 213.683419 
L 98.685296 212.968582 
L 98.85348 206.2651 
L 99.189848 207.436702 
L 99.27394 205.465536 
L 99.442124 196.578827 
L 99.6944 195.95581 
L 99.862584 193.793064 
L 99.946676 190.620912 
L 100.198952 178.072781 
L 100.451228 171.955045 
L 101.628516 118.147072 
L 102.133068 99.943199 
L 102.301252 95.439159 
L 102.553528 86.600606 
L 102.973988 80.632169 
L 103.142172 74.859651 
L 103.562632 71.915776 
L 103.730816 67.794316 
L 103.983092 67.370138 
L 104.067184 67.32812 
L 104.151276 66.551794 
L 104.31946 63.509096 
L 104.403552 63.548203 
L 104.655828 64.153239 
L 104.73992 63.777099 
L 104.908104 61.603385 
L 105.16038 62.7618 
L 105.244472 63.235253 
L 105.328564 63.182668 
L 105.496748 61.80989 
L 106.0013 65.350798 
L 106.085392 64.664745 
L 106.169484 64.910085 
L 106.589944 69.057356 
L 106.674036 68.75201 
L 106.84222 70.162621 
L 107.178588 73.819031 
L 107.26268 73.720372 
L 107.430864 75.240702 
L 107.851324 79.047212 
L 108.1036 81.561014 
L 108.608152 86.045809 
L 109.028612 90.10548 
L 109.112704 89.917383 
L 109.280888 91.162779 
L 109.617256 93.76551 
L 109.701348 93.123695 
L 109.78544 93.307208 
L 110.121808 95.512536 
L 110.2059 95.467426 
L 110.374084 93.573447 
L 110.710452 94.689681 
L 110.794544 93.829028 
L 110.962728 89.578622 
L 111.215004 89.643104 
L 111.299096 89.473669 
L 111.383188 87.244113 
L 111.551372 77.932143 
L 111.803648 76.136424 
L 112.055924 72.471519 
L 112.392292 66.996399 
L 112.812752 63.542601 
L 112.896844 63.495035 
L 113.065028 63.913611 
L 113.485488 66.782181 
L 114.074132 74.083142 
L 115.25142 89.419155 
L 116.09234 97.943103 
L 116.680984 103.560029 
L 118.026456 116.772258 
L 119.203744 125.963359 
L 119.87648 129.967097 
L 120.969676 134.928256 
L 121.894688 137.994091 
L 122.903792 140.687551 
L 123.744712 142.474957 
L 124.753816 144.322788 
L 127.192484 147.90344 
L 127.360668 147.492085 
L 128.117496 148.407542 
L 128.537956 148.609482 
L 129.378876 149.23931 
L 130.051612 150.131704 
L 131.312992 152.732616 
L 133.835752 158.339083 
L 134.088028 158.773156 
L 135.01304 160.546793 
L 135.265316 160.914929 
L 136.358512 162.640364 
L 136.69488 163.185939 
L 137.11534 163.718817 
L 137.788076 164.946752 
L 138.292628 167.757025 
L 139.049456 172.278071 
L 139.722192 175.315458 
L 140.142652 176.660005 
L 140.563112 177.809388 
L 140.89948 178.641011 
L 141.151756 179.02128 
L 141.404032 179.480009 
L 141.656308 179.945196 
L 141.824492 179.972634 
L 142.329044 180.787595 
L 142.413136 180.717702 
L 142.58132 180.889611 
L 142.917688 181.402536 
L 143.085872 181.335498 
L 143.506332 181.890414 
L 143.674516 181.766798 
L 144.179068 182.282415 
L 144.431344 182.592618 
L 145.10408 183.910281 
L 145.692724 185.727573 
L 146.617736 189.685137 
L 150.906428 210.293448 
L 152.588268 216.631759 
L 153.09282 218.228267 
L 153.765556 219.919906 
L 154.017832 220.286542 
L 154.438292 221.044187 
L 154.606476 221.128077 
L 156.624684 223.597707 
L 157.465604 224.917243 
L 157.71788 225.210285 
L 158.726984 226.806529 
L 158.97926 227.138696 
L 159.231536 227.514108 
L 159.39972 227.481367 
L 159.904272 227.859944 
L 160.072456 227.894377 
L 160.492916 228.138462 
L 160.745192 228.084975 
L 161.165652 228.14029 
L 161.417928 228.175786 
L 162.258848 228.604803 
L 162.427032 228.449292 
L 162.847492 228.77593 
L 164.108872 229.766901 
L 164.192964 229.594201 
L 164.361148 229.583906 
L 164.697516 229.855429 
L 164.949792 229.826608 
L 165.28616 229.929024 
L 165.538436 229.741708 
L 165.874804 229.801579 
L 166.12708 229.629407 
L 167.052092 229.892763 
L 167.640736 230.37603 
L 169.574852 232.554419 
L 169.743036 232.396461 
L 171.929428 233.877448 
L 172.097612 233.642294 
L 172.43398 233.924622 
L 172.602164 234.022481 
L 172.770348 233.874437 
L 173.190808 233.966685 
L 173.443084 233.62978 
L 173.779452 233.549482 
L 174.031728 233.023889 
L 174.95674 232.48981 
L 175.209016 232.237485 
L 175.713568 232.284078 
L 176.134028 232.522496 
L 176.302212 232.505252 
L 176.470396 232.576637 
L 176.890856 232.856418 
L 177.05904 232.93275 
L 179.834076 235.936814 
L 179.918168 235.83106 
L 180.086352 235.880144 
L 180.927272 236.624039 
L 181.011364 236.640346 
L 181.179548 236.468746 
L 181.515916 236.658281 
L 181.6841 236.707456 
L 181.852284 236.438525 
L 182.356836 236.313136 
L 182.609112 236.176987 
L 183.450032 236.012382 
L 183.702308 235.869722 
L 184.375044 236.076354 
L 185.04778 236.670559 
L 185.972792 237.619394 
L 186.140976 237.743328 
L 186.477344 238.192162 
L 186.645528 238.135647 
L 187.065988 238.444468 
L 187.234172 238.197473 
L 188.243276 238.122696 
L 188.41146 237.952961 
L 188.663736 237.845898 
L 188.916012 237.802689 
L 189.168288 237.394736 
L 189.504656 237.303588 
L 189.756932 236.777576 
L 190.0933 236.595936 
L 190.345576 236.18309 
L 190.766036 235.85598 
L 191.018312 235.333724 
L 192.61606 234.224539 
L 192.784244 234.066436 
L 194.2979 234.354921 
L 195.391096 235.060163 
L 197.493396 237.773404 
L 197.997947 238.628036 
L 198.082039 238.552123 
L 198.250223 238.676739 
L 198.586591 239.155549 
L 198.754775 238.917331 
L 199.847971 239.364109 
L 200.100247 239.296226 
L 200.520707 239.354069 
L 200.772983 239.40911 
L 201.109351 239.516755 
L 201.361627 239.617752 
L 201.613903 239.739758 
L 201.782087 239.393767 
L 202.034363 239.478867 
L 202.202547 239.524277 
L 202.454823 239.339745 
L 203.463927 239.45814 
L 203.884387 239.751227 
L 204.388939 240.36122 
L 205.145767 241.744238 
L 206.659423 245.405841 
L 208.509447 249.894056 
L 210.023103 253.07749 
L 210.779931 254.469039 
L 212.125403 256.609684 
L 212.461771 257.090136 
L 212.545863 256.640524 
L 212.798139 252.747369 
L 213.050415 252.895927 
L 213.134507 252.058939 
L 213.386783 246.215772 
L 213.639059 244.795948 
L 213.723151 243.5583 
L 213.975427 236.344967 
L 214.311795 231.539474 
L 214.564071 224.403118 
L 214.984531 216.67264 
L 215.236807 209.047333 
L 215.573175 202.676536 
L 215.825451 196.599672 
L 216.666371 184.480912 
L 217.255015 178.97436 
L 217.759567 176.122188 
L 218.011843 175.776961 
L 218.180027 174.746455 
L 218.348211 174.900447 
L 218.600487 175.241663 
L 218.768671 174.815447 
L 219.020947 175.648016 
L 219.189131 176.113302 
L 219.273223 175.892118 
L 219.357315 176.004966 
L 219.777775 177.707718 
L 219.861867 177.617171 
L 219.945959 177.768171 
L 220.450511 179.684122 
L 220.618695 180.32651 
L 221.627799 184.813234 
L 221.711891 184.909838 
L 222.132351 186.951878 
L 223.057363 191.403759 
L 223.393731 193.695332 
L 223.477823 193.002141 
L 223.561915 193.015901 
L 223.982375 194.574711 
L 224.066467 194.175125 
L 224.234651 191.465085 
L 224.402835 191.487895 
L 224.486927 191.493925 
L 224.571019 191.384779 
L 224.655111 190.29663 
L 224.823295 184.214645 
L 225.159663 183.295413 
L 225.243755 180.017708 
L 225.411939 169.309423 
L 225.664215 167.667842 
L 226.000583 159.532348 
L 226.589227 145.13513 
L 226.925595 141.355923 
L 227.177871 140.711779 
L 227.346055 141.256772 
L 227.598331 143.344104 
L 228.439251 154.631378 
L 229.700631 173.199422 
L 230.793827 186.115163 
L 231.718839 194.993587 
L 232.391575 201.398235 
L 233.737047 217.742399 
L 234.662059 226.332193 
L 235.418887 231.580655 
L 236.427991 236.638763 
L 237.521187 240.988229 
L 238.614383 244.080029 
L 239.623487 245.778379 
L 239.959855 246.065336 
L 240.548499 246.422168 
L 241.053051 246.486705 
L 241.389419 246.462458 
L 241.557603 246.449334 
L 241.809879 246.260073 
L 242.230339 246.174046 
L 242.482615 245.87954 
L 242.818983 245.709196 
L 243.071259 245.180064 
L 243.491719 244.719589 
L 244.416731 243.299082 
L 244.584915 243.032598 
L 244.837191 242.21951 
L 245.257651 241.559278 
L 245.509927 240.618928 
L 245.846295 239.952684 
L 246.098571 238.956811 
L 246.519031 237.814139 
L 246.855399 236.958707 
L 247.864503 235.239775 
L 248.537239 234.90699 
L 248.873607 235.02875 
L 249.041791 234.849993 
L 249.462251 235.088075 
L 249.630435 234.798544 
L 249.882711 234.917394 
L 250.050895 234.974691 
L 250.303171 234.794852 
L 251.396367 234.945379 
L 251.564551 234.920068 
L 251.985011 235.094741 
L 252.153195 235.12319 
L 253.078207 235.781521 
L 253.246391 235.524749 
L 253.498667 235.717903 
L 253.666851 235.801739 
L 253.835035 235.50244 
L 254.171403 235.611095 
L 254.844139 235.724106 
L 254.928231 235.70237 
L 255.096415 235.417986 
L 255.348691 235.496929 
L 255.516875 235.506578 
L 255.685059 235.062 
L 255.937335 235.069622 
L 256.189611 235.024403 
L 256.610071 234.974527 
L 257.114623 235.076033 
L 257.619175 235.506869 
L 257.955543 235.934749 
L 258.039635 235.86452 
L 258.207819 235.987562 
L 259.721475 238.58259 
L 259.889659 238.598315 
L 260.394211 239.44277 
L 260.478303 239.325084 
L 260.646487 239.384282 
L 260.982855 239.752636 
L 261.235131 239.750454 
L 261.571499 239.916351 
L 261.823775 239.825185 
L 262.160143 239.92218 
L 262.412419 239.766242 
L 262.832879 239.798692 
L 263.085155 239.816718 
L 263.421523 239.895615 
L 263.673799 239.542121 
L 264.010167 239.603037 
L 264.262443 239.24947 
L 264.598811 239.18789 
L 264.851087 238.905471 
L 265.187455 238.808803 
L 265.439731 238.438748 
L 265.860191 238.247749 
L 266.112467 238.146061 
L 266.869295 238.292823 
L 267.037479 238.352821 
L 267.205663 238.121423 
L 267.457939 238.286811 
L 268.214767 238.85927 
L 268.467043 239.000693 
L 269.476147 240.266343 
L 269.560239 240.120982 
L 269.728423 240.174277 
L 270.148883 240.56888 
L 270.317067 240.638554 
L 270.737527 240.887987 
L 270.989803 240.986783 
L 271.242079 241.089089 
L 271.410263 240.762889 
L 271.662539 240.822705 
L 271.914815 240.834582 
L 272.251183 240.854636 
L 272.503459 240.881166 
L 272.755735 240.646558 
L 273.092103 240.731193 
L 273.344379 240.461971 
L 273.680747 240.465827 
L 273.933023 239.928756 
L 274.269391 239.788351 
L 274.521667 239.069185 
L 275.698955 237.960519 
L 276.035323 237.959382 
L 276.455783 238.196409 
L 277.044427 238.864663 
L 277.380795 239.241476 
L 277.548979 239.412875 
L 277.969439 240.043832 
L 278.221715 240.375589 
L 278.558083 240.84405 
L 278.726267 240.632525 
L 279.146727 240.975442 
L 279.314911 240.588424 
L 279.735371 240.605459 
L 279.987647 240.196541 
L 281.164935 239.726216 
L 281.669487 239.795727 
L 281.837671 239.80484 
L 282.510407 240.514675 
L 282.762683 240.78538 
L 282.930867 240.563805 
L 283.351327 240.979652 
L 283.519511 240.678426 
L 283.855879 240.860912 
L 284.528615 241.021761 
L 284.612707 241.017105 
L 284.780891 240.836101 
L 285.201351 240.967838 
L 285.369535 240.61177 
L 285.621811 240.670286 
L 285.789995 240.71505 
L 286.042271 240.623703 
L 286.378639 240.632315 
L 286.630915 240.116398 
L 286.967283 240.122747 
L 287.219559 239.888439 
L 287.808203 239.886384 
L 288.228663 240.0974 
L 288.649123 240.554956 
L 289.237767 241.606261 
L 289.994595 243.474893 
L 291.760527 248.7242 
L 293.526459 253.739991 
L 294.956023 257.164768 
L 296.049219 259.296996 
L 296.217403 259.251622 
L 296.553771 259.728309 
L 297.142415 260.461195 
L 297.815151 260.963883 
L 301.178831 263.000958 
L 301.599291 263.221533 
L 301.851567 263.311493 
L 303.197039 264.097856 
L 306.476627 265.608837 
L 306.812995 265.676129 
L 306.981179 265.71655 
L 307.233455 265.56771 
L 307.569823 265.573281 
L 307.822099 265.255079 
L 308.158467 265.118453 
L 308.410743 264.586761 
L 308.831203 264.1921 
L 309.083479 263.440216 
L 309.419847 262.923648 
L 309.756215 261.736099 
L 310.008491 261.086762 
L 310.344859 259.433199 
L 310.597135 258.586547 
L 310.933503 256.656386 
L 311.185779 255.679416 
L 311.522147 253.48874 
L 311.858515 251.902928 
L 312.110791 249.149088 
L 312.447159 247.307923 
L 312.699435 244.206482 
L 313.035803 241.765301 
L 313.288079 238.264974 
L 313.624447 235.312087 
L 313.876723 231.981405 
L 314.213091 229.057912 
L 314.465367 225.490239 
L 316.315391 209.278331 
L 316.651759 207.691509 
L 316.904035 205.538658 
L 317.240403 204.349813 
L 317.492679 202.441601 
L 317.913139 201.46047 
L 318.081323 200.137278 
L 318.333599 199.893193 
L 318.501783 199.694664 
L 318.669967 198.696935 
L 318.838151 198.658756 
L 319.090427 198.63772 
L 319.258611 198.041232 
L 319.510887 198.357384 
L 319.679071 198.566972 
L 319.847255 198.408241 
L 320.183623 199.370455 
L 320.267715 198.875438 
L 320.435899 195.429143 
L 320.519991 195.450434 
L 320.688175 195.714472 
L 320.856359 195.573504 
L 321.192727 194.019596 
L 321.781371 191.941295 
L 321.949555 192.068148 
L 322.201831 192.936413 
L 322.622291 195.6935 
L 323.463211 203.667808 
L 325.817787 226.527293 
L 326.658707 232.503997 
L 327.583719 237.603105 
L 328.845099 243.129447 
L 330.022387 246.776063 
L 331.872411 251.052725 
L 334.815631 257.363069 
L 337.842943 262.609548 
L 339.104323 264.161551 
L 341.038439 266.240971 
L 342.888463 267.924315 
L 344.738487 269.379818 
L 347.008971 270.877971 
L 349.531731 272.260593 
L 352.390859 273.552495 
L 356.090907 274.936109 
L 360.631875 276.394449 
L 369.545627 278.999527 
L 374.843423 280.380398 
L 383.504899 282.558341 
L 394.773227 285.005848 
L 415.880319 289.383271 
L 432.278259 293.210587 
L 434.464651 293.629338 
L 443.546587 295.274118 
L 458.514963 297.866079 
L 471.381039 299.824209 
L 480.210699 300.85537 
L 486.685783 301.638899 
L 492.067671 302.218932 
L 514.352051 304.230282 
L 533.272751 305.806581 
L 559.425363 307.825351 
L 578.934707 309.377965 
L 602.900927 311.316497 
L 619.635235 312.431404 
L 659.831211 314.625251 
L 672.024551 315.214638 
L 672.024551 315.214638 
" clip-path="url(#pc5e0fc8dc4)" style="fill: none; stroke: #1f77b4; stroke-width: 1.5; stroke-linecap: square"/>
   </g>
   <g id="line2d_16">
    <path d="M 66.730336 328.619495 
L 67.487164 328.526377 
L 68.412176 328.111931 
L 70.850844 326.267495 
L 74.550892 322.697363 
L 75.30772 322.340882 
L 76.316824 322.133544 
L 77.914572 322.070197 
L 79.260044 321.987934 
L 79.596412 321.824073 
L 80.185056 321.400731 
L 80.7737 320.728778 
L 81.446436 319.637221 
L 82.119172 318.309449 
L 82.623724 317.048638 
L 83.632828 313.993093 
L 84.55784 310.299893 
L 85.146484 307.828346 
L 85.987404 303.937058 
L 87.164692 296.527809 
L 91.2852 261.690923 
L 91.70566 258.194353 
L 93.639776 242.977953 
L 94.901156 236.297086 
L 95.06934 235.87226 
L 96.162536 223.760144 
L 96.582996 221.98597 
L 96.919364 221.320934 
L 97.17164 221.151806 
L 97.423916 221.1952 
L 97.760284 221.502197 
L 98.264836 222.331796 
L 98.601204 223.100283 
L 98.685296 223.834191 
L 98.85348 220.500277 
L 99.442124 204.689295 
L 99.862584 191.250651 
L 100.030768 184.615548 
L 100.451228 167.875832 
L 100.619412 160.429904 
L 100.95578 145.910281 
L 101.208056 136.721502 
L 101.544424 123.766602 
L 101.7967 115.961109 
L 102.133068 105.219598 
L 102.385344 99.038774 
L 102.721712 90.601739 
L 103.983092 72.970481 
L 104.151276 72.092739 
L 104.571736 68.151654 
L 104.73992 67.753544 
L 105.076288 65.446329 
L 105.244472 65.2895 
L 105.328564 65.29217 
L 105.664932 64.019191 
L 105.749024 64.051587 
L 105.917208 64.492149 
L 106.0013 64.780346 
L 106.085392 64.727285 
L 106.253576 64.579982 
L 106.42176 64.961983 
L 106.674036 65.775308 
L 106.758128 65.756358 
L 106.926312 66.128873 
L 108.187692 71.463393 
L 109.112704 77.07096 
L 109.280888 77.57239 
L 109.701348 79.63646 
L 109.78544 79.577827 
L 109.953624 79.849066 
L 110.2059 80.892965 
L 110.289992 80.687205 
L 110.542268 79.78608 
L 110.62636 79.76478 
L 110.794544 80.051898 
L 111.46728 71.988408 
L 111.803648 62.141637 
L 112.140016 58.20418 
L 112.392292 57.047429 
L 112.476384 57.02 
L 112.72866 57.523366 
L 112.896844 58.112419 
L 113.233212 60.368864 
L 113.737764 64.690181 
L 115.335512 82.226635 
L 119.708296 131.448038 
L 121.13786 144.087093 
L 122.8197 156.848725 
L 124.249264 166.204308 
L 126.099288 176.570666 
L 127.276576 182.037312 
L 127.44476 181.960579 
L 127.697036 182.145888 
L 128.201588 183.005631 
L 129.1266 185.661683 
L 130.472072 190.288178 
L 132.238004 196.0324 
L 133.919844 200.765263 
L 134.928948 203.116745 
L 135.601684 204.523849 
L 136.778972 206.678916 
L 137.199432 207.287977 
L 138.040352 208.51997 
L 139.133548 209.61634 
L 139.469916 209.953206 
L 139.806284 210.283618 
L 139.974468 210.419907 
L 140.226744 210.5033 
L 140.647204 210.748114 
L 140.89948 210.849737 
L 141.151756 210.994465 
L 141.404032 210.962352 
L 141.7404 211.100557 
L 141.992676 211.013965 
L 142.58132 211.104276 
L 142.833596 211.173063 
L 143.00178 211.162989 
L 143.254056 210.992011 
L 143.590424 210.972618 
L 143.8427 210.735117 
L 144.347252 210.709089 
L 144.599528 210.860941 
L 145.188172 211.556575 
L 145.945 213.144596 
L 146.954104 215.904836 
L 152.67236 232.670607 
L 153.345096 233.352525 
L 153.681464 233.425285 
L 153.849648 233.442192 
L 154.101924 233.379926 
L 154.942844 233.646114 
L 155.447396 234.169492 
L 156.204224 235.078501 
L 158.390616 236.791285 
L 158.811076 237.17185 
L 159.483812 237.295019 
L 160.6611 237.198537 
L 160.997468 237.29798 
L 161.249744 237.332571 
L 161.586112 237.449357 
L 162.427032 237.928035 
L 162.7634 237.930527 
L 163.18386 238.188435 
L 163.856596 238.69414 
L 164.192964 238.823931 
L 164.529332 238.538545 
L 166.463448 238.206593 
L 167.052092 238.588343 
L 168.145288 239.844878 
L 168.397564 240.091054 
L 168.733932 240.079994 
L 169.658944 240.411642 
L 169.995312 240.185193 
L 170.499864 240.206062 
L 171.004416 240.550809 
L 172.01352 241.42886 
L 172.349888 241.165956 
L 172.770348 241.000771 
L 173.106716 240.881171 
L 173.2749 240.782249 
L 173.611268 240.451185 
L 173.863544 240.259973 
L 174.199912 239.771934 
L 174.53628 239.6259 
L 174.872648 239.722975 
L 175.124924 239.736968 
L 175.461292 239.814673 
L 176.049936 240.303787 
L 176.302212 240.516617 
L 176.63858 240.586445 
L 176.890856 240.657238 
L 177.227224 240.568442 
L 177.815868 240.79314 
L 178.488604 241.449638 
L 178.824972 241.728856 
L 179.918168 242.235662 
L 180.254536 242.028798 
L 180.590904 242.072249 
L 181.179548 242.266644 
L 181.515916 242.217553 
L 181.768192 242.189026 
L 182.10456 241.904959 
L 182.356836 241.780453 
L 182.693204 241.510009 
L 183.113664 241.506484 
L 184.375044 242.105773 
L 184.963688 242.75695 
L 185.636424 243.474375 
L 185.972792 243.701659 
L 186.30916 243.615141 
L 186.561436 243.593329 
L 186.897804 243.409731 
L 187.15008 243.309926 
L 187.486448 242.966706 
L 187.991 242.838645 
L 189.000104 242.796827 
L 189.336472 242.479209 
L 189.588748 242.291941 
L 189.925116 241.80722 
L 191.691048 240.619506 
L 192.531968 240.564334 
L 193.204704 239.971606 
L 193.541072 239.973794 
L 194.381992 240.237705 
L 194.886544 240.294874 
L 195.222912 240.329928 
L 195.55928 240.48517 
L 196.063832 240.980087 
L 196.232016 241.084804 
L 196.568384 241.118653 
L 197.157028 241.508315 
L 197.745672 242.18807 
L 198.082039 242.522331 
L 198.418407 242.388421 
L 198.586591 242.396093 
L 199.259327 241.68072 
L 199.595695 241.673994 
L 201.697995 242.375286 
L 202.034363 241.998701 
L 202.959375 241.676271 
L 203.379835 241.995836 
L 203.968479 242.750935 
L 205.061675 244.606919 
L 211.116299 255.473117 
L 212.545863 257.808843 
L 212.714047 256.339027 
L 213.386783 248.683176 
L 214.564071 229.964586 
L 215.404991 218.032974 
L 215.825451 212.424123 
L 216.666371 203.060631 
L 217.002739 199.529521 
L 217.759567 193.371014 
L 219.020947 186.741682 
L 219.273223 185.894988 
L 219.609591 184.586938 
L 219.861867 183.976162 
L 220.198235 183.008111 
L 220.450511 182.613378 
L 220.702787 182.037161 
L 220.955063 181.917931 
L 221.123247 181.824861 
L 221.375523 181.548876 
L 222.132351 181.559864 
L 222.300535 181.630633 
L 222.468719 181.595419 
L 222.720995 181.830742 
L 222.805087 181.933215 
L 223.477823 180.563646 
L 223.814191 178.738966 
L 224.150559 177.378058 
L 224.486927 173.896483 
L 224.655111 172.90026 
L 225.243755 161.470767 
L 225.748307 137.169647 
L 226.168767 128.215121 
L 226.505135 124.995453 
L 226.757411 123.808958 
L 226.925595 123.549626 
L 227.093779 123.606376 
L 227.346055 123.96411 
L 227.682423 125.172951 
L 228.186975 127.721492 
L 229.364263 135.62043 
L 231.214287 150.410462 
L 233.148403 165.010664 
L 234.914335 176.683002 
L 236.680267 186.912199 
L 238.109831 194.058804 
L 239.118935 198.041781 
L 239.707579 199.790984 
L 241.893971 206.16429 
L 242.818983 208.36164 
L 243.828087 209.765872 
L 244.332639 210.51808 
L 244.669007 210.994623 
L 244.921283 211.061165 
L 245.425835 211.371754 
L 245.678111 211.409439 
L 245.930387 211.495386 
L 246.182663 211.395488 
L 247.023583 211.703127 
L 247.444043 212.112727 
L 248.621331 214.116532 
L 249.041791 214.726612 
L 249.714527 215.191118 
L 250.303171 215.42741 
L 250.639539 215.727794 
L 251.144091 216.545845 
L 251.396367 216.955677 
L 251.648643 217.118898 
L 252.910023 218.599407 
L 253.162299 218.939656 
L 253.414575 218.950513 
L 253.750943 219.091591 
L 254.003219 218.96895 
L 254.255495 219.05939 
L 254.675955 219.478599 
L 255.012323 219.891483 
L 255.264599 219.942398 
L 255.600967 220.090629 
L 255.853243 219.884279 
L 256.189611 219.922191 
L 256.525979 220.144697 
L 257.114623 220.973114 
L 258.207819 222.842432 
L 258.628279 223.308344 
L 259.216923 224.319074 
L 259.889659 225.405728 
L 260.226027 225.666242 
L 260.478303 225.847949 
L 260.730579 225.775301 
L 261.487407 226.052232 
L 262.244235 226.541687 
L 262.496511 226.63871 
L 263.589707 227.387613 
L 263.926075 227.37974 
L 264.094259 227.352857 
L 264.346535 227.200161 
L 265.019271 227.227269 
L 265.271547 227.31398 
L 265.523823 227.285016 
L 266.364743 227.681547 
L 267.205663 228.430263 
L 267.542031 228.499885 
L 268.130675 228.999187 
L 269.644331 230.732962 
L 269.980699 230.744842 
L 270.232975 230.715848 
L 270.569343 230.771814 
L 271.326171 231.076945 
L 271.578447 230.910182 
L 271.998907 230.944389 
L 272.335275 231.147586 
L 272.587551 231.315665 
L 272.839827 231.315078 
L 273.176195 231.41855 
L 273.428471 231.322977 
L 273.764839 231.278678 
L 274.101207 230.877279 
L 274.269391 230.8014 
L 274.858035 229.971406 
L 275.194403 229.916492 
L 275.698955 230.20733 
L 276.119415 230.61709 
L 277.044427 231.922176 
L 277.380795 232.332883 
L 277.633071 232.369207 
L 278.642175 232.782599 
L 278.978543 232.550174 
L 279.146727 232.536732 
L 279.987647 231.544965 
L 280.324015 231.409458 
L 280.660383 231.529825 
L 281.417211 232.225896 
L 281.669487 232.464363 
L 281.921763 232.490623 
L 282.342223 232.817987 
L 282.846775 233.343385 
L 283.099051 233.199544 
L 283.435419 233.115376 
L 283.771787 232.732669 
L 284.108155 232.664812 
L 284.444523 232.819443 
L 284.696799 232.965745 
L 284.949075 232.971371 
L 285.285443 233.03555 
L 285.621811 232.7656 
L 286.294547 232.786374 
L 286.462731 232.735264 
L 286.799099 232.37042 
L 287.555927 232.20744 
L 287.976387 232.577984 
L 288.565031 233.474264 
L 289.574135 235.519243 
L 295.208299 247.64055 
L 296.133311 249.223016 
L 296.469679 249.084211 
L 296.890139 249.207301 
L 297.394691 249.634282 
L 298.151519 250.598805 
L 299.665175 252.971927 
L 301.599291 256.004346 
L 302.019751 256.205809 
L 302.692487 256.822675 
L 303.785683 258.189511 
L 305.803891 260.74589 
L 306.560719 261.198856 
L 307.317547 261.244191 
L 307.653915 261.183557 
L 307.990283 260.936195 
L 308.242559 260.771675 
L 308.663019 260.299261 
L 308.915295 260.06671 
L 309.335755 259.448398 
L 309.503939 259.174683 
L 309.924399 258.342949 
L 310.092583 257.991357 
L 310.513043 256.959005 
L 310.681227 256.534054 
L 311.101687 255.310292 
L 311.269871 254.815398 
L 311.690331 253.402062 
L 311.858515 253.030369 
L 312.699435 248.237313 
L 314.297183 237.462759 
L 314.717643 234.370223 
L 315.054011 232.182115 
L 315.894931 226.51749 
L 316.231299 224.272708 
L 317.072219 218.683951 
L 317.408587 216.521511 
L 317.829047 214.142031 
L 317.997231 213.248548 
L 318.417691 210.77788 
L 318.669967 209.326773 
L 319.174519 206.996852 
L 319.510887 205.49195 
L 320.267715 203.53987 
L 321.276819 193.790144 
L 321.613187 192.73798 
L 321.865463 192.373778 
L 322.117739 192.365868 
L 322.370015 192.630558 
L 322.790475 193.492097 
L 323.379119 195.172995 
L 324.304131 198.279308 
L 326.574615 205.994253 
L 328.508731 211.78159 
L 329.938295 215.482313 
L 331.872411 220.978549 
L 335.067907 230.243078 
L 339.104323 240.140038 
L 341.458899 245.223952 
L 343.897567 249.964534 
L 346.420327 254.384506 
L 349.027179 258.508123 
L 351.718123 262.358132 
L 354.577251 266.059195 
L 357.520471 269.507742 
L 360.631875 272.809693 
L 363.911463 275.960312 
L 367.359235 278.957829 
L 370.975191 281.802822 
L 374.759331 284.4977 
L 378.795747 287.097797 
L 383.084439 289.593125 
L 387.625407 291.977202 
L 392.502743 294.284205 
L 397.716447 296.501534 
L 403.350611 298.650974 
L 409.405235 300.717693 
L 415.880319 302.691413 
L 422.944047 304.608762 
L 430.596419 306.451917 
L 438.921527 308.225281 
L 448.003463 309.929745 
L 457.926319 311.563867 
L 468.858279 313.13613 
L 480.967527 314.64842 
L 494.338155 316.089754 
L 509.222439 317.465738 
L 525.788563 318.769532 
L 544.372895 320.004532 
L 565.311803 321.168152 
L 589.025747 322.258042 
L 616.019279 323.27096 
L 646.965135 324.204737 
L 672.024551 324.823267 
L 672.024551 324.823267 
" clip-path="url(#pc5e0fc8dc4)" style="fill: none; stroke: #ff7f0e; stroke-width: 1.5; stroke-linecap: square"/>
   </g>
   <g id="patch_3">
    <path d="M 36.465625 342.2 
L 36.465625 43.44 
" style="fill: none; stroke: #000000; stroke-width: 0.8; stroke-linejoin: miter; stroke-linecap: square"/>
   </g>
   <g id="patch_4">
    <path d="M 702.289261 342.2 
L 702.289261 43.44 
" style="fill: none; stroke: #000000; stroke-width: 0.8; stroke-linejoin: miter; stroke-linecap: square"/>
   </g>
   <g id="patch_5">
    <path d="M 36.465625 342.2 
L 702.289261 342.2 
" style="fill: none; stroke: #000000; stroke-width: 0.8; stroke-linejoin: miter; stroke-linecap: square"/>
   </g>
   <g id="patch_6">
    <path d="M 36.465625 43.44 
L 702.289261 43.44 
" style="fill: none; stroke: #000000; stroke-width: 0.8; stroke-linejoin: miter; stroke-linecap: square"/>
   </g>
   <g id="text_15">
    <!-- 1 transformation(s) -->
    <g transform="translate(311.262756 37.44) scale(0.12 -0.12)">
     <defs>
      <path id="DejaVuSans-20" transform="scale(0.015625)"/>
      <path id="DejaVuSans-74" d="M 1172 4494 
L 1172 3500 
L 2356 3500 
L 2356 3053 
L 1172 3053 
L 1172 1153 
Q 1172 725 1289 603 
Q 1406 481 1766 481 
L 2356 481 
L 2356 0 
L 1766 0 
Q 1100 0 847 248 
Q 594 497 594 1153 
L 594 3053 
L 172 3053 
L 172 3500 
L 594 3500 
L 594 4494 
L 1172 4494 
z
" transform="scale(0.015625)"/>
      <path id="DejaVuSans-72" d="M 2631 2963 
Q 2534 3019 2420 3045 
Q 2306 3072 2169 3072 
Q 1681 3072 1420 2755 
Q 1159 2438 1159 1844 
L 1159 0 
L 581 0 
L 581 3500 
L 1159 3500 
L 1159 2956 
Q 1341 3275 1631 3429 
Q 1922 3584 2338 3584 
Q 2397 3584 2469 3576 
Q 2541 3569 2628 3553 
L 2631 2963 
z
" transform="scale(0.015625)"/>
      <path id="DejaVuSans-61" d="M 2194 1759 
Q 1497 1759 1228 1600 
Q 959 1441 959 1056 
Q 959 750 1161 570 
Q 1363 391 1709 391 
Q 2188 391 2477 730 
Q 2766 1069 2766 1631 
L 2766 1759 
L 2194 1759 
z
M 3341 1997 
L 3341 0 
L 2766 0 
L 2766 531 
Q 2569 213 2275 61 
Q 1981 -91 1556 -91 
Q 1019 -91 701 211 
Q 384 513 384 1019 
Q 384 1609 779 1909 
Q 1175 2209 1959 2209 
L 2766 2209 
L 2766 2266 
Q 2766 2663 2505 2880 
Q 2244 3097 1772 3097 
Q 1472 3097 1187 3025 
Q 903 2953 641 2809 
L 641 3341 
Q 956 3463 1253 3523 
Q 1550 3584 1831 3584 
Q 2591 3584 2966 3190 
Q 3341 2797 3341 1997 
z
" transform="scale(0.015625)"/>
      <path id="DejaVuSans-6e" d="M 3513 2113 
L 3513 0 
L 2938 0 
L 2938 2094 
Q 2938 2591 2744 2837 
Q 2550 3084 2163 3084 
Q 1697 3084 1428 2787 
Q 1159 2491 1159 1978 
L 1159 0 
L 581 0 
L 581 3500 
L 1159 3500 
L 1159 2956 
Q 1366 3272 1645 3428 
Q 1925 3584 2291 3584 
Q 2894 3584 3203 3211 
Q 3513 2838 3513 2113 
z
" transform="scale(0.015625)"/>
      <path id="DejaVuSans-73" d="M 2834 3397 
L 2834 2853 
Q 2591 2978 2328 3040 
Q 2066 3103 1784 3103 
Q 1356 3103 1142 2972 
Q 928 2841 928 2578 
Q 928 2378 1081 2264 
Q 1234 2150 1697 2047 
L 1894 2003 
Q 2506 1872 2764 1633 
Q 3022 1394 3022 966 
Q 3022 478 2636 193 
Q 2250 -91 1575 -91 
Q 1294 -91 989 -36 
Q 684 19 347 128 
L 347 722 
Q 666 556 975 473 
Q 1284 391 1588 391 
Q 1994 391 2212 530 
Q 2431 669 2431 922 
Q 2431 1156 2273 1281 
Q 2116 1406 1581 1522 
L 1381 1569 
Q 847 1681 609 1914 
Q 372 2147 372 2553 
Q 372 3047 722 3315 
Q 1072 3584 1716 3584 
Q 2034 3584 2315 3537 
Q 2597 3491 2834 3397 
z
" transform="scale(0.015625)"/>
      <path id="DejaVuSans-66" d="M 2375 4863 
L 2375 4384 
L 1825 4384 
Q 1516 4384 1395 4259 
Q 1275 4134 1275 3809 
L 1275 3500 
L 2222 3500 
L 2222 3053 
L 1275 3053 
L 1275 0 
L 697 0 
L 697 3053 
L 147 3053 
L 147 3500 
L 697 3500 
L 697 3744 
Q 697 4328 969 4595 
Q 1241 4863 1831 4863 
L 2375 4863 
z
" transform="scale(0.015625)"/>
      <path id="DejaVuSans-6f" d="M 1959 3097 
Q 1497 3097 1228 2736 
Q 959 2375 959 1747 
Q 959 1119 1226 758 
Q 1494 397 1959 397 
Q 2419 397 2687 759 
Q 2956 1122 2956 1747 
Q 2956 2369 2687 2733 
Q 2419 3097 1959 3097 
z
M 1959 3584 
Q 2709 3584 3137 3096 
Q 3566 2609 3566 1747 
Q 3566 888 3137 398 
Q 2709 -91 1959 -91 
Q 1206 -91 779 398 
Q 353 888 353 1747 
Q 353 2609 779 3096 
Q 1206 3584 1959 3584 
z
" transform="scale(0.015625)"/>
      <path id="DejaVuSans-6d" d="M 3328 2828 
Q 3544 3216 3844 3400 
Q 4144 3584 4550 3584 
Q 5097 3584 5394 3201 
Q 5691 2819 5691 2113 
L 5691 0 
L 5113 0 
L 5113 2094 
Q 5113 2597 4934 2840 
Q 4756 3084 4391 3084 
Q 3944 3084 3684 2787 
Q 3425 2491 3425 1978 
L 3425 0 
L 2847 0 
L 2847 2094 
Q 2847 2600 2669 2842 
Q 2491 3084 2119 3084 
Q 1678 3084 1418 2786 
Q 1159 2488 1159 1978 
L 1159 0 
L 581 0 
L 581 3500 
L 1159 3500 
L 1159 2956 
Q 1356 3278 1631 3431 
Q 1906 3584 2284 3584 
Q 2666 3584 2933 3390 
Q 3200 3197 3328 2828 
z
" transform="scale(0.015625)"/>
      <path id="DejaVuSans-69" d="M 603 3500 
L 1178 3500 
L 1178 0 
L 603 0 
L 603 3500 
z
M 603 4863 
L 1178 4863 
L 1178 4134 
L 603 4134 
L 603 4863 
z
" transform="scale(0.015625)"/>
      <path id="DejaVuSans-28" d="M 1984 4856 
Q 1566 4138 1362 3434 
Q 1159 2731 1159 2009 
Q 1159 1288 1364 580 
Q 1569 -128 1984 -844 
L 1484 -844 
Q 1016 -109 783 600 
Q 550 1309 550 2009 
Q 550 2706 781 3412 
Q 1013 4119 1484 4856 
L 1984 4856 
z
" transform="scale(0.015625)"/>
      <path id="DejaVuSans-29" d="M 513 4856 
L 1013 4856 
Q 1481 4119 1714 3412 
Q 1947 2706 1947 2009 
Q 1947 1309 1714 600 
Q 1481 -109 1013 -844 
L 513 -844 
Q 928 -128 1133 580 
Q 1338 1288 1338 2009 
Q 1338 2731 1133 3434 
Q 928 4138 513 4856 
z
" transform="scale(0.015625)"/>
     </defs>
     <use xlink:href="#DejaVuSans-31"/>
     <use xlink:href="#DejaVuSans-20" x="63.623047"/>
     <use xlink:href="#DejaVuSans-74" x="95.410156"/>
     <use xlink:href="#DejaVuSans-72" x="134.619141"/>
     <use xlink:href="#DejaVuSans-61" x="175.732422"/>
     <use xlink:href="#DejaVuSans-6e" x="237.011719"/>
     <use xlink:href="#DejaVuSans-73" x="300.390625"/>
     <use xlink:href="#DejaVuSans-66" x="352.490234"/>
     <use xlink:href="#DejaVuSans-6f" x="387.695312"/>
     <use xlink:href="#DejaVuSans-72" x="448.876953"/>
     <use xlink:href="#DejaVuSans-6d" x="488.240234"/>
     <use xlink:href="#DejaVuSans-61" x="585.652344"/>
     <use xlink:href="#DejaVuSans-74" x="646.931641"/>
     <use xlink:href="#DejaVuSans-69" x="686.140625"/>
     <use xlink:href="#DejaVuSans-6f" x="713.923828"/>
     <use xlink:href="#DejaVuSans-6e" x="775.105469"/>
     <use xlink:href="#DejaVuSans-28" x="838.484375"/>
     <use xlink:href="#DejaVuSans-73" x="877.498047"/>
     <use xlink:href="#DejaVuSans-29" x="929.597656"/>
    </g>
   </g>
   <g id="legend_1">
    <g id="patch_7">
     <path d="M 613.895511 80.79625 
L 695.289261 80.79625 
Q 697.289261 80.79625 697.289261 78.79625 
L 697.289261 50.44 
Q 697.289261 48.44 695.289261 48.44 
L 613.895511 48.44 
Q 611.895511 48.44 611.895511 50.44 
L 611.895511 78.79625 
Q 611.895511 80.79625 613.895511 80.79625 
z
" style="fill: #ffffff; opacity: 0.8; stroke: #cccccc; stroke-linejoin: miter"/>
    </g>
    <g id="line2d_17">
     <path d="M 615.895511 56.538437 
L 625.895511 56.538437 
L 635.895511 56.538437 
" style="fill: none; stroke: #1f77b4; stroke-width: 1.5; stroke-linecap: square"/>
    </g>
    <g id="text_16">
     <!-- observed -->
     <g transform="translate(643.895511 60.038437) scale(0.1 -0.1)">
      <defs>
       <path id="DejaVuSans-62" d="M 3116 1747 
Q 3116 2381 2855 2742 
Q 2594 3103 2138 3103 
Q 1681 3103 1420 2742 
Q 1159 2381 1159 1747 
Q 1159 1113 1420 752 
Q 1681 391 2138 391 
Q 2594 391 2855 752 
Q 3116 1113 3116 1747 
z
M 1159 2969 
Q 1341 3281 1617 3432 
Q 1894 3584 2278 3584 
Q 2916 3584 3314 3078 
Q 3713 2572 3713 1747 
Q 3713 922 3314 415 
Q 2916 -91 2278 -91 
Q 1894 -91 1617 61 
Q 1341 213 1159 525 
L 1159 0 
L 581 0 
L 581 4863 
L 1159 4863 
L 1159 2969 
z
" transform="scale(0.015625)"/>
       <path id="DejaVuSans-65" d="M 3597 1894 
L 3597 1613 
L 953 1613 
Q 991 1019 1311 708 
Q 1631 397 2203 397 
Q 2534 397 2845 478 
Q 3156 559 3463 722 
L 3463 178 
Q 3153 47 2828 -22 
Q 2503 -91 2169 -91 
Q 1331 -91 842 396 
Q 353 884 353 1716 
Q 353 2575 817 3079 
Q 1281 3584 2069 3584 
Q 2775 3584 3186 3129 
Q 3597 2675 3597 1894 
z
M 3022 2063 
Q 3016 2534 2758 2815 
Q 2500 3097 2075 3097 
Q 1594 3097 1305 2825 
Q 1016 2553 972 2059 
L 3022 2063 
z
" transform="scale(0.015625)"/>
       <path id="DejaVuSans-76" d="M 191 3500 
L 800 3500 
L 1894 563 
L 2988 3500 
L 3597 3500 
L 2284 0 
L 1503 0 
L 191 3500 
z
" transform="scale(0.015625)"/>
       <path id="DejaVuSans-64" d="M 2906 2969 
L 2906 4863 
L 3481 4863 
L 3481 0 
L 2906 0 
L 2906 525 
Q 2725 213 2448 61 
Q 2172 -91 1784 -91 
Q 1150 -91 751 415 
Q 353 922 353 1747 
Q 353 2572 751 3078 
Q 1150 3584 1784 3584 
Q 2172 3584 2448 3432 
Q 2725 3281 2906 2969 
z
M 947 1747 
Q 947 1113 1208 752 
Q 1469 391 1925 391 
Q 2381 391 2643 752 
Q 2906 1113 2906 1747 
Q 2906 2381 2643 2742 
Q 2381 3103 1925 3103 
Q 1469 3103 1208 2742 
Q 947 2381 947 1747 
z
" transform="scale(0.015625)"/>
      </defs>
      <use xlink:href="#DejaVuSans-6f"/>
      <use xlink:href="#DejaVuSans-62" x="61.181641"/>
      <use xlink:href="#DejaVuSans-73" x="124.658203"/>
      <use xlink:href="#DejaVuSans-65" x="176.757812"/>
      <use xlink:href="#DejaVuSans-72" x="238.28125"/>
      <use xlink:href="#DejaVuSans-76" x="279.394531"/>
      <use xlink:href="#DejaVuSans-65" x="338.574219"/>
      <use xlink:href="#DejaVuSans-64" x="400.097656"/>
     </g>
    </g>
    <g id="line2d_18">
     <path d="M 615.895511 71.216563 
L 625.895511 71.216563 
L 635.895511 71.216563 
" style="fill: none; stroke: #ff7f0e; stroke-width: 1.5; stroke-linecap: square"/>
    </g>
    <g id="text_17">
     <!-- simulated -->
     <g transform="translate(643.895511 74.716563) scale(0.1 -0.1)">
      <defs>
       <path id="DejaVuSans-75" d="M 544 1381 
L 544 3500 
L 1119 3500 
L 1119 1403 
Q 1119 906 1312 657 
Q 1506 409 1894 409 
Q 2359 409 2629 706 
Q 2900 1003 2900 1516 
L 2900 3500 
L 3475 3500 
L 3475 0 
L 2900 0 
L 2900 538 
Q 2691 219 2414 64 
Q 2138 -91 1772 -91 
Q 1169 -91 856 284 
Q 544 659 544 1381 
z
M 1991 3584 
L 1991 3584 
z
" transform="scale(0.015625)"/>
       <path id="DejaVuSans-6c" d="M 603 4863 
L 1178 4863 
L 1178 0 
L 603 0 
L 603 4863 
z
" transform="scale(0.015625)"/>
      </defs>
      <use xlink:href="#DejaVuSans-73"/>
      <use xlink:href="#DejaVuSans-69" x="52.099609"/>
      <use xlink:href="#DejaVuSans-6d" x="79.882812"/>
      <use xlink:href="#DejaVuSans-75" x="177.294922"/>
      <use xlink:href="#DejaVuSans-6c" x="240.673828"/>
      <use xlink:href="#DejaVuSans-61" x="268.457031"/>
      <use xlink:href="#DejaVuSans-74" x="329.736328"/>
      <use xlink:href="#DejaVuSans-65" x="368.945312"/>
      <use xlink:href="#DejaVuSans-64" x="430.46875"/>
     </g>
    </g>
   </g>
  </g>
  <g id="axes_2">
   <g id="patch_8">
    <path d="M 36.465625 684.92 
L 702.289261 684.92 
L 702.289261 386.16 
L 36.465625 386.16 
z
" style="fill: #ffffff"/>
   </g>
   <g id="matplotlib.axis_3">
    <g id="xtick_7">
     <g id="line2d_19">
      <g>
       <use xlink:href="#mef849f9ff6" x="66.562152" y="684.92" style="stroke: #000000; stroke-width: 0.8"/>
      </g>
     </g>
     <g id="text_18">
      <!-- 2014-07-01 -->
      <g transform="translate(37.504339 699.518437) scale(0.1 -0.1)">
       <use xlink:href="#DejaVuSans-32"/>
       <use xlink:href="#DejaVuSans-30" x="63.623047"/>
       <use xlink:href="#DejaVuSans-31" x="127.246094"/>
       <use xlink:href="#DejaVuSans-34" x="190.869141"/>
       <use xlink:href="#DejaVuSans-2d" x="254.492188"/>
       <use xlink:href="#DejaVuSans-30" x="290.576172"/>
       <use xlink:href="#DejaVuSans-37" x="354.199219"/>
       <use xlink:href="#DejaVuSans-2d" x="417.822266"/>
       <use xlink:href="#DejaVuSans-30" x="453.90625"/>
       <use xlink:href="#DejaVuSans-31" x="517.529297"/>
      </g>
     </g>
    </g>
    <g id="xtick_8">
     <g id="line2d_20">
      <g>
       <use xlink:href="#mef849f9ff6" x="187.654632" y="684.92" style="stroke: #000000; stroke-width: 0.8"/>
      </g>
     </g>
     <g id="text_19">
      <!-- 2014-07-02 -->
      <g transform="translate(158.596819 699.518437) scale(0.1 -0.1)">
       <use xlink:href="#DejaVuSans-32"/>
       <use xlink:href="#DejaVuSans-30" x="63.623047"/>
       <use xlink:href="#DejaVuSans-31" x="127.246094"/>
       <use xlink:href="#DejaVuSans-34" x="190.869141"/>
       <use xlink:href="#DejaVuSans-2d" x="254.492188"/>
       <use xlink:href="#DejaVuSans-30" x="290.576172"/>
       <use xlink:href="#DejaVuSans-37" x="354.199219"/>
       <use xlink:href="#DejaVuSans-2d" x="417.822266"/>
       <use xlink:href="#DejaVuSans-30" x="453.90625"/>
       <use xlink:href="#DejaVuSans-32" x="517.529297"/>
      </g>
     </g>
    </g>
    <g id="xtick_9">
     <g id="line2d_21">
      <g>
       <use xlink:href="#mef849f9ff6" x="308.747111" y="684.92" style="stroke: #000000; stroke-width: 0.8"/>
      </g>
     </g>
     <g id="text_20">
      <!-- 2014-07-03 -->
      <g transform="translate(279.689299 699.518437) scale(0.1 -0.1)">
       <use xlink:href="#DejaVuSans-32"/>
       <use xlink:href="#DejaVuSans-30" x="63.623047"/>
       <use xlink:href="#DejaVuSans-31" x="127.246094"/>
       <use xlink:href="#DejaVuSans-34" x="190.869141"/>
       <use xlink:href="#DejaVuSans-2d" x="254.492188"/>
       <use xlink:href="#DejaVuSans-30" x="290.576172"/>
       <use xlink:href="#DejaVuSans-37" x="354.199219"/>
       <use xlink:href="#DejaVuSans-2d" x="417.822266"/>
       <use xlink:href="#DejaVuSans-30" x="453.90625"/>
       <use xlink:href="#DejaVuSans-33" x="517.529297"/>
      </g>
     </g>
    </g>
    <g id="xtick_10">
     <g id="line2d_22">
      <g>
       <use xlink:href="#mef849f9ff6" x="429.839591" y="684.92" style="stroke: #000000; stroke-width: 0.8"/>
      </g>
     </g>
     <g id="text_21">
      <!-- 2014-07-04 -->
      <g transform="translate(400.781779 699.518437) scale(0.1 -0.1)">
       <use xlink:href="#DejaVuSans-32"/>
       <use xlink:href="#DejaVuSans-30" x="63.623047"/>
       <use xlink:href="#DejaVuSans-31" x="127.246094"/>
       <use xlink:href="#DejaVuSans-34" x="190.869141"/>
       <use xlink:href="#DejaVuSans-2d" x="254.492188"/>
       <use xlink:href="#DejaVuSans-30" x="290.576172"/>
       <use xlink:href="#DejaVuSans-37" x="354.199219"/>
       <use xlink:href="#DejaVuSans-2d" x="417.822266"/>
       <use xlink:href="#DejaVuSans-30" x="453.90625"/>
       <use xlink:href="#DejaVuSans-34" x="517.529297"/>
      </g>
     </g>
    </g>
    <g id="xtick_11">
     <g id="line2d_23">
      <g>
       <use xlink:href="#mef849f9ff6" x="550.932071" y="684.92" style="stroke: #000000; stroke-width: 0.8"/>
      </g>
     </g>
     <g id="text_22">
      <!-- 2014-07-05 -->
      <g transform="translate(521.874258 699.518437) scale(0.1 -0.1)">
       <use xlink:href="#DejaVuSans-32"/>
       <use xlink:href="#DejaVuSans-30" x="63.623047"/>
       <use xlink:href="#DejaVuSans-31" x="127.246094"/>
       <use xlink:href="#DejaVuSans-34" x="190.869141"/>
       <use xlink:href="#DejaVuSans-2d" x="254.492188"/>
       <use xlink:href="#DejaVuSans-30" x="290.576172"/>
       <use xlink:href="#DejaVuSans-37" x="354.199219"/>
       <use xlink:href="#DejaVuSans-2d" x="417.822266"/>
       <use xlink:href="#DejaVuSans-30" x="453.90625"/>
       <use xlink:href="#DejaVuSans-35" x="517.529297"/>
      </g>
     </g>
    </g>
    <g id="xtick_12">
     <g id="line2d_24">
      <g>
       <use xlink:href="#mef849f9ff6" x="672.024551" y="684.92" style="stroke: #000000; stroke-width: 0.8"/>
      </g>
     </g>
     <g id="text_23">
      <!-- 2014-07-06 -->
      <g transform="translate(642.966738 699.518437) scale(0.1 -0.1)">
       <use xlink:href="#DejaVuSans-32"/>
       <use xlink:href="#DejaVuSans-30" x="63.623047"/>
       <use xlink:href="#DejaVuSans-31" x="127.246094"/>
       <use xlink:href="#DejaVuSans-34" x="190.869141"/>
       <use xlink:href="#DejaVuSans-2d" x="254.492188"/>
       <use xlink:href="#DejaVuSans-30" x="290.576172"/>
       <use xlink:href="#DejaVuSans-37" x="354.199219"/>
       <use xlink:href="#DejaVuSans-2d" x="417.822266"/>
       <use xlink:href="#DejaVuSans-30" x="453.90625"/>
       <use xlink:href="#DejaVuSans-36" x="517.529297"/>
      </g>
     </g>
    </g>
   </g>
   <g id="matplotlib.axis_4">
    <g id="ytick_9">
     <g id="line2d_25">
      <g>
       <use xlink:href="#mc47ab6fa70" x="36.465625" y="671.350858" style="stroke: #000000; stroke-width: 0.8"/>
      </g>
     </g>
     <g id="text_24">
      <!-- 0.00 -->
      <g transform="translate(7.2 675.150077) scale(0.1 -0.1)">
       <use xlink:href="#DejaVuSans-30"/>
       <use xlink:href="#DejaVuSans-2e" x="63.623047"/>
       <use xlink:href="#DejaVuSans-30" x="95.410156"/>
       <use xlink:href="#DejaVuSans-30" x="159.033203"/>
      </g>
     </g>
    </g>
    <g id="ytick_10">
     <g id="line2d_26">
      <g>
       <use xlink:href="#mc47ab6fa70" x="36.465625" y="632.793252" style="stroke: #000000; stroke-width: 0.8"/>
      </g>
     </g>
     <g id="text_25">
      <!-- 0.25 -->
      <g transform="translate(7.2 636.59247) scale(0.1 -0.1)">
       <use xlink:href="#DejaVuSans-30"/>
       <use xlink:href="#DejaVuSans-2e" x="63.623047"/>
       <use xlink:href="#DejaVuSans-32" x="95.410156"/>
       <use xlink:href="#DejaVuSans-35" x="159.033203"/>
      </g>
     </g>
    </g>
    <g id="ytick_11">
     <g id="line2d_27">
      <g>
       <use xlink:href="#mc47ab6fa70" x="36.465625" y="594.235645" style="stroke: #000000; stroke-width: 0.8"/>
      </g>
     </g>
     <g id="text_26">
      <!-- 0.50 -->
      <g transform="translate(7.2 598.034864) scale(0.1 -0.1)">
       <use xlink:href="#DejaVuSans-30"/>
       <use xlink:href="#DejaVuSans-2e" x="63.623047"/>
       <use xlink:href="#DejaVuSans-35" x="95.410156"/>
       <use xlink:href="#DejaVuSans-30" x="159.033203"/>
      </g>
     </g>
    </g>
    <g id="ytick_12">
     <g id="line2d_28">
      <g>
       <use xlink:href="#mc47ab6fa70" x="36.465625" y="555.678039" style="stroke: #000000; stroke-width: 0.8"/>
      </g>
     </g>
     <g id="text_27">
      <!-- 0.75 -->
      <g transform="translate(7.2 559.477257) scale(0.1 -0.1)">
       <use xlink:href="#DejaVuSans-30"/>
       <use xlink:href="#DejaVuSans-2e" x="63.623047"/>
       <use xlink:href="#DejaVuSans-37" x="95.410156"/>
       <use xlink:href="#DejaVuSans-35" x="159.033203"/>
      </g>
     </g>
    </g>
    <g id="ytick_13">
     <g id="line2d_29">
      <g>
       <use xlink:href="#mc47ab6fa70" x="36.465625" y="517.120432" style="stroke: #000000; stroke-width: 0.8"/>
      </g>
     </g>
     <g id="text_28">
      <!-- 1.00 -->
      <g transform="translate(7.2 520.919651) scale(0.1 -0.1)">
       <use xlink:href="#DejaVuSans-31"/>
       <use xlink:href="#DejaVuSans-2e" x="63.623047"/>
       <use xlink:href="#DejaVuSans-30" x="95.410156"/>
       <use xlink:href="#DejaVuSans-30" x="159.033203"/>
      </g>
     </g>
    </g>
    <g id="ytick_14">
     <g id="line2d_30">
      <g>
       <use xlink:href="#mc47ab6fa70" x="36.465625" y="478.562826" style="stroke: #000000; stroke-width: 0.8"/>
      </g>
     </g>
     <g id="text_29">
      <!-- 1.25 -->
      <g transform="translate(7.2 482.362044) scale(0.1 -0.1)">
       <use xlink:href="#DejaVuSans-31"/>
       <use xlink:href="#DejaVuSans-2e" x="63.623047"/>
       <use xlink:href="#DejaVuSans-32" x="95.410156"/>
       <use xlink:href="#DejaVuSans-35" x="159.033203"/>
      </g>
     </g>
    </g>
    <g id="ytick_15">
     <g id="line2d_31">
      <g>
       <use xlink:href="#mc47ab6fa70" x="36.465625" y="440.005219" style="stroke: #000000; stroke-width: 0.8"/>
      </g>
     </g>
     <g id="text_30">
      <!-- 1.50 -->
      <g transform="translate(7.2 443.804438) scale(0.1 -0.1)">
       <use xlink:href="#DejaVuSans-31"/>
       <use xlink:href="#DejaVuSans-2e" x="63.623047"/>
       <use xlink:href="#DejaVuSans-35" x="95.410156"/>
       <use xlink:href="#DejaVuSans-30" x="159.033203"/>
      </g>
     </g>
    </g>
    <g id="ytick_16">
     <g id="line2d_32">
      <g>
       <use xlink:href="#mc47ab6fa70" x="36.465625" y="401.447613" style="stroke: #000000; stroke-width: 0.8"/>
      </g>
     </g>
     <g id="text_31">
      <!-- 1.75 -->
      <g transform="translate(7.2 405.246832) scale(0.1 -0.1)">
       <use xlink:href="#DejaVuSans-31"/>
       <use xlink:href="#DejaVuSans-2e" x="63.623047"/>
       <use xlink:href="#DejaVuSans-37" x="95.410156"/>
       <use xlink:href="#DejaVuSans-35" x="159.033203"/>
      </g>
     </g>
    </g>
   </g>
   <g id="line2d_33">
    <path d="M 66.730336 671.333988 
L 67.991716 671.175481 
L 69.084912 670.747661 
L 72.112224 668.663629 
L 72.616776 668.286264 
L 73.373604 667.734073 
L 73.878156 667.373519 
L 74.550892 667.089861 
L 75.223628 667.008235 
L 76.232732 667.109147 
L 79.764596 667.639947 
L 80.100964 667.526837 
L 80.7737 667.066759 
L 81.362344 666.3852 
L 82.371448 664.887584 
L 82.876 663.465264 
L 82.960092 663.26917 
L 83.380552 661.134747 
L 83.548736 660.688774 
L 83.969196 657.884716 
L 84.13738 657.388148 
L 84.473748 654.796727 
L 84.641932 654.481216 
L 84.810116 654.350264 
L 85.146484 652.2365 
L 85.39876 652.078636 
L 85.651036 650.12221 
L 85.81922 649.897944 
L 85.987404 649.892793 
L 86.23968 647.831474 
L 86.407864 647.592294 
L 86.491956 647.630026 
L 86.576048 647.330454 
L 86.828324 643.60524 
L 87.164692 642.225943 
L 87.416968 637.619323 
L 87.92152 632.443726 
L 88.257888 627.292099 
L 88.426072 625.122761 
L 88.76244 618.411994 
L 89.014716 614.983116 
L 89.351084 608.141347 
L 89.687452 602.305529 
L 90.107912 595.568838 
L 91.201108 578.259934 
L 91.453384 575.827524 
L 91.70566 572.222668 
L 92.042028 569.621799 
L 92.294304 566.235999 
L 92.630672 563.982234 
L 92.882948 561.177045 
L 93.219316 559.466559 
L 93.471592 557.388938 
L 93.892052 556.1845 
L 94.144328 554.976882 
L 94.480696 554.76244 
L 94.64888 554.235616 
L 94.817064 554.357091 
L 94.985248 554.601611 
L 95.06934 553.943688 
L 95.237524 549.947474 
L 95.321616 549.84011 
L 95.4898 549.957337 
L 95.573892 549.85879 
L 95.742076 549.053542 
L 96.582996 544.787113 
L 96.75118 544.612697 
L 96.919364 544.791094 
L 97.255732 545.933986 
L 97.760284 548.967286 
L 98.601204 555.163726 
L 98.685296 554.441178 
L 98.85348 547.665376 
L 99.189848 548.849617 
L 99.27394 546.857187 
L 99.442124 537.874605 
L 99.6944 537.244867 
L 99.862584 535.058789 
L 99.946676 531.852415 
L 100.198952 519.168912 
L 100.451228 512.985176 
L 101.628516 458.59671 
L 102.133068 440.196449 
L 102.301252 435.643819 
L 102.553528 426.709913 
L 102.973988 420.677087 
L 103.142172 414.842294 
L 103.562632 411.86666 
L 103.730816 407.700736 
L 103.983092 407.271982 
L 104.067184 407.229511 
L 104.151276 406.444809 
L 104.31946 403.369286 
L 104.403552 403.408815 
L 104.655828 404.020379 
L 104.73992 403.640181 
L 104.908104 401.443016 
L 105.16038 402.613928 
L 105.244472 403.092489 
L 105.328564 403.039336 
L 105.496748 401.651749 
L 106.0013 405.230857 
L 106.085392 404.537403 
L 106.169484 404.785389 
L 106.589944 408.977402 
L 106.674036 408.668762 
L 106.84222 410.094591 
L 107.178588 413.790448 
L 107.26268 413.690724 
L 107.430864 415.227456 
L 107.851324 419.075031 
L 108.1036 421.615953 
L 108.608152 426.149131 
L 109.028612 430.252598 
L 109.112704 430.062472 
L 109.280888 431.321304 
L 109.617256 433.952114 
L 109.701348 433.303374 
L 109.78544 433.488868 
L 110.121808 435.717987 
L 110.2059 435.67239 
L 110.374084 433.757979 
L 110.710452 434.886254 
L 110.794544 434.016317 
L 110.962728 429.720057 
L 111.215004 429.785234 
L 111.299096 429.613971 
L 111.383188 427.360362 
L 111.551372 417.947932 
L 111.803648 416.132841 
L 112.055924 412.428398 
L 112.392292 406.894211 
L 112.812752 403.403153 
L 112.896844 403.355074 
L 113.065028 403.778166 
L 113.485488 406.677682 
L 114.074132 414.057408 
L 115.25142 429.558869 
L 116.09234 438.174776 
L 116.680984 443.852298 
L 118.026456 457.207064 
L 119.203744 466.497321 
L 119.87648 470.544252 
L 120.969676 475.558933 
L 121.894688 478.657843 
L 122.903792 481.380361 
L 123.744712 483.18705 
L 124.753816 485.054816 
L 127.192484 488.674096 
L 127.360668 488.258304 
L 128.117496 489.183638 
L 128.537956 489.387756 
L 129.378876 490.024379 
L 130.051612 490.9264 
L 131.312992 493.555371 
L 133.835752 499.222321 
L 134.088028 499.661078 
L 135.01304 501.453849 
L 135.265316 501.825957 
L 136.358512 503.570006 
L 136.69488 504.121467 
L 137.11534 504.660094 
L 137.788076 505.901276 
L 138.292628 508.741867 
L 139.049456 513.311687 
L 139.722192 516.381842 
L 140.142652 517.740894 
L 140.563112 518.902678 
L 140.89948 519.743272 
L 141.151756 520.127643 
L 141.404032 520.591321 
L 141.656308 521.061526 
L 141.824492 521.089261 
L 142.329044 521.913014 
L 142.413136 521.842367 
L 142.58132 522.01613 
L 142.917688 522.534589 
L 143.085872 522.466828 
L 143.506332 523.02773 
L 143.674516 522.902781 
L 144.179068 523.42396 
L 144.431344 523.73751 
L 145.10408 525.069388 
L 145.692724 526.906285 
L 146.617736 530.906544 
L 150.906428 551.737183 
L 152.588268 558.143874 
L 153.09282 559.757605 
L 153.765556 561.467493 
L 154.017832 561.838085 
L 154.438292 562.603904 
L 154.606476 562.688699 
L 156.624684 565.184971 
L 157.465604 566.518744 
L 157.71788 566.814946 
L 158.726984 568.428411 
L 158.97926 568.764161 
L 159.231536 569.143624 
L 159.39972 569.11053 
L 159.904272 569.493191 
L 160.072456 569.527995 
L 160.492916 569.774713 
L 160.745192 569.72065 
L 161.165652 569.776561 
L 161.417928 569.81244 
L 162.258848 570.246086 
L 162.427032 570.088897 
L 162.847492 570.419058 
L 164.108872 571.42072 
L 164.192964 571.246157 
L 164.361148 571.235751 
L 164.697516 571.510204 
L 164.949792 571.481071 
L 165.28616 571.584592 
L 165.454344 571.395936 
L 166.968 571.492627 
L 167.640736 572.036421 
L 169.574852 574.23831 
L 169.743036 574.078649 
L 171.929428 575.575613 
L 172.097612 575.337922 
L 172.43398 575.623296 
L 172.602164 575.722211 
L 172.770348 575.57257 
L 173.190808 575.665813 
L 173.443084 575.325273 
L 173.779452 575.244109 
L 174.031728 574.712845 
L 174.95674 574.173004 
L 175.209016 573.917958 
L 175.713568 573.965053 
L 176.134028 574.206043 
L 176.302212 574.188614 
L 176.470396 574.260769 
L 176.890856 574.543568 
L 177.05904 574.620724 
L 179.834076 577.657196 
L 179.918168 577.550301 
L 180.086352 577.599915 
L 180.927272 578.351835 
L 181.011364 578.368318 
L 181.179548 578.194867 
L 181.515916 578.386446 
L 181.6841 578.436152 
L 181.852284 578.164319 
L 182.356836 578.037577 
L 182.609112 577.89996 
L 183.450032 577.733579 
L 183.702308 577.58938 
L 184.375044 577.798241 
L 185.04778 578.398856 
L 185.972792 579.357928 
L 186.140976 579.483199 
L 186.477344 579.936875 
L 186.645528 579.879751 
L 187.065988 580.191903 
L 187.234172 579.942244 
L 188.243276 579.86666 
L 188.41146 579.695094 
L 188.663736 579.586876 
L 188.916012 579.543201 
L 189.168288 579.130846 
L 189.504656 579.038715 
L 189.756932 578.507029 
L 190.0933 578.323429 
L 190.345576 577.906129 
L 190.766036 577.57549 
L 191.018312 577.047599 
L 192.61606 575.926449 
L 192.784244 575.76664 
L 194.2979 576.058237 
L 195.391096 576.771088 
L 197.493396 579.5136 
L 197.997947 580.377452 
L 198.082039 580.300719 
L 198.250223 580.426679 
L 198.586591 580.910655 
L 198.754775 580.669867 
L 199.847971 581.121466 
L 200.100247 581.05285 
L 200.520707 581.111317 
L 200.772983 581.166952 
L 201.109351 581.275759 
L 201.361627 581.377845 
L 201.613903 581.501167 
L 201.782087 581.151444 
L 202.034363 581.237461 
L 202.202547 581.283361 
L 202.454823 581.096838 
L 203.463927 581.216511 
L 203.884387 581.512759 
L 204.388939 582.129333 
L 205.145767 583.527271 
L 206.659423 587.228377 
L 208.509447 591.765012 
L 210.023103 594.982789 
L 210.779931 596.389351 
L 212.125403 598.55309 
L 212.461771 599.038725 
L 212.545863 598.584263 
L 212.798139 594.649107 
L 213.050415 594.799268 
L 213.134507 593.95325 
L 213.386783 588.047046 
L 213.639059 586.611905 
L 213.723151 585.360905 
L 213.975427 578.069752 
L 214.311795 573.212416 
L 214.564071 565.999072 
L 214.984531 558.185195 
L 215.236807 550.477625 
L 215.573175 544.038098 
L 215.825451 537.895675 
L 216.666371 525.646175 
L 217.255015 520.080217 
L 217.759567 517.197275 
L 218.011843 516.848324 
L 218.180027 515.8067 
L 218.348211 515.962354 
L 218.600487 516.307251 
L 218.768671 515.876437 
L 219.020947 516.717988 
L 219.189131 517.188294 
L 219.273223 516.964724 
L 219.357315 517.078789 
L 219.777775 518.799911 
L 219.861867 518.708387 
L 219.945959 518.861016 
L 220.450511 520.797636 
L 220.618695 521.446955 
L 221.627799 525.982082 
L 221.711891 526.079728 
L 222.132351 528.143799 
L 223.057363 532.643708 
L 223.393731 534.960003 
L 223.477823 534.259333 
L 223.561915 534.273242 
L 223.982375 535.848869 
L 224.066467 535.444972 
L 224.234651 532.705695 
L 224.402835 532.728751 
L 224.486927 532.734846 
L 224.571019 532.624523 
L 224.655111 531.524635 
L 224.823295 525.377036 
L 225.159663 524.447887 
L 225.243755 521.134821 
L 225.411939 510.311013 
L 225.664215 508.651722 
L 226.000583 500.42846 
L 226.589227 485.875922 
L 226.925595 482.055943 
L 227.177871 481.40485 
L 227.346055 481.955723 
L 227.598331 484.065574 
L 228.439251 495.474617 
L 229.700631 514.242978 
L 230.793827 527.298057 
L 231.718839 536.272264 
L 232.391575 542.746006 
L 233.737047 559.266495 
L 234.662059 567.948958 
L 235.418887 573.254041 
L 236.427991 578.366718 
L 237.521187 582.763107 
L 238.614383 585.888262 
L 239.623487 587.604935 
L 239.959855 587.894987 
L 240.548499 588.255669 
L 241.053051 588.320901 
L 241.389419 588.296393 
L 241.557603 588.283128 
L 241.809879 588.091825 
L 242.230339 588.004869 
L 242.482615 587.707187 
L 242.818983 587.535005 
L 243.071259 587.000165 
L 243.491719 586.534721 
L 244.416731 585.09889 
L 244.584915 584.82953 
L 244.837191 584.007671 
L 245.257651 583.340316 
L 245.509927 582.389822 
L 245.846295 581.71639 
L 246.098571 580.709773 
L 246.519031 579.554774 
L 246.855399 578.690113 
L 247.864503 576.952637 
L 248.537239 576.616262 
L 248.873607 576.739335 
L 249.041791 576.55865 
L 249.462251 576.7993 
L 249.630435 576.506646 
L 249.882711 576.626778 
L 250.050895 576.684693 
L 250.303171 576.502914 
L 251.396367 576.655065 
L 251.564551 576.629481 
L 251.900919 576.884178 
L 252.069103 576.791698 
L 252.741839 577.254356 
L 253.078207 577.500228 
L 253.246391 577.240686 
L 253.498667 577.435924 
L 253.666851 577.520663 
L 253.835035 577.218136 
L 254.171403 577.327963 
L 254.844139 577.442193 
L 254.928231 577.420222 
L 255.096415 577.132771 
L 255.348691 577.212565 
L 255.516875 577.222319 
L 255.685059 576.772945 
L 255.937335 576.780648 
L 256.189611 576.734941 
L 256.610071 576.684528 
L 257.114623 576.787129 
L 257.619175 577.222613 
L 257.955543 577.655109 
L 258.039635 577.584122 
L 258.207819 577.708492 
L 259.721475 580.331515 
L 259.889659 580.34741 
L 260.394211 581.200975 
L 260.478303 581.082019 
L 260.646487 581.141856 
L 260.982855 581.514184 
L 261.151039 581.47164 
L 261.655591 581.599632 
L 261.907867 581.616841 
L 262.160143 581.685557 
L 262.412419 581.527937 
L 262.832879 581.560737 
L 263.085155 581.578957 
L 263.421523 581.658705 
L 263.673799 581.301397 
L 264.010167 581.362971 
L 264.262443 581.00559 
L 264.598811 580.943345 
L 264.851087 580.65788 
L 265.187455 580.560169 
L 265.439731 580.186121 
L 265.860191 579.993062 
L 266.112467 579.890277 
L 266.869295 580.038622 
L 267.037479 580.099267 
L 267.205663 579.865373 
L 267.457939 580.032545 
L 268.214767 580.61118 
L 268.467043 580.754129 
L 269.476147 582.033433 
L 269.560239 581.886504 
L 269.728423 581.940374 
L 270.148883 582.339233 
L 270.317067 582.40966 
L 270.737527 582.661783 
L 270.989803 582.761645 
L 271.242079 582.865055 
L 271.410263 582.535335 
L 271.662539 582.595797 
L 271.914815 582.607803 
L 272.251183 582.628073 
L 272.503459 582.654888 
L 272.755735 582.41775 
L 273.092103 582.503298 
L 273.344379 582.231172 
L 273.680747 582.235069 
L 273.933023 581.692204 
L 274.269391 581.550285 
L 274.521667 580.82336 
L 275.698955 579.702733 
L 276.035323 579.701584 
L 276.455783 579.941168 
L 277.044427 580.616631 
L 277.380795 580.997509 
L 277.548979 581.170758 
L 277.969439 581.808521 
L 278.221715 582.143858 
L 278.558083 582.617372 
L 278.726267 582.403565 
L 279.146727 582.750181 
L 279.314911 582.358989 
L 279.735371 582.376207 
L 279.987647 581.962878 
L 281.164935 581.487479 
L 281.669487 581.55774 
L 281.837671 581.566951 
L 282.510407 582.284444 
L 282.762683 582.558069 
L 282.930867 582.334104 
L 283.351327 582.754438 
L 283.519511 582.449961 
L 283.855879 582.634416 
L 284.528615 582.797001 
L 284.612707 582.792294 
L 284.780891 582.609338 
L 285.201351 582.742496 
L 285.369535 582.382587 
L 285.621811 582.441734 
L 285.789995 582.486981 
L 286.042271 582.394648 
L 286.378639 582.403354 
L 286.630915 581.881871 
L 286.967283 581.888287 
L 287.219559 581.651452 
L 287.808203 581.649374 
L 288.228663 581.862667 
L 288.649123 582.325159 
L 289.237767 583.387807 
L 289.994595 585.276597 
L 291.760527 590.582535 
L 293.526459 595.652438 
L 294.956023 599.114162 
L 296.049219 601.269393 
L 296.217403 601.22353 
L 296.553771 601.70536 
L 297.142415 602.446152 
L 297.815151 602.954263 
L 301.178831 605.013315 
L 301.599291 605.236269 
L 301.851567 605.3272 
L 303.197039 606.122046 
L 306.476627 607.649328 
L 306.812995 607.717345 
L 306.981179 607.758203 
L 307.233455 607.607757 
L 307.569823 607.613388 
L 307.822099 607.291753 
L 308.158467 607.153654 
L 308.410743 606.616226 
L 308.831203 606.217307 
L 309.083479 605.457311 
L 309.419847 604.935171 
L 309.756215 603.73481 
L 310.008491 603.078468 
L 310.344859 601.407065 
L 310.597135 600.55128 
L 310.933503 598.600295 
L 311.185779 597.612786 
L 311.522147 595.398476 
L 311.858515 593.795556 
L 312.110791 591.012007 
L 312.447159 589.150979 
L 312.699435 586.016079 
L 313.035803 583.548562 
L 313.288079 580.010473 
L 313.624447 577.02573 
L 313.876723 573.659115 
L 314.213091 570.704083 
L 314.465367 567.097921 
L 316.315391 550.711114 
L 316.651759 549.107174 
L 316.904035 546.931097 
L 317.240403 545.729426 
L 317.492679 543.800629 
L 317.913139 542.808913 
L 318.081323 541.471445 
L 318.333599 541.224728 
L 318.501783 541.024057 
L 318.669967 540.015565 
L 318.838151 539.976973 
L 319.090427 539.95571 
L 319.258611 539.352788 
L 319.510887 539.67235 
L 319.679071 539.884199 
L 319.847255 539.723756 
L 320.183623 540.69635 
L 320.267715 540.195993 
L 320.435899 536.712519 
L 320.519991 536.734039 
L 320.688175 537.000926 
L 320.856359 536.858437 
L 321.192727 535.287765 
L 321.781371 533.187042 
L 321.949555 533.315264 
L 322.201831 534.192896 
L 322.622291 536.979727 
L 323.463211 545.040064 
L 325.817787 568.146163 
L 326.658707 574.187345 
L 327.583719 579.341464 
L 328.845099 584.927425 
L 330.022387 588.613381 
L 331.872411 592.936181 
L 334.815631 599.314603 
L 337.842943 604.617682 
L 339.104323 606.186428 
L 341.038439 608.288281 
L 342.888463 609.989786 
L 344.738487 611.460991 
L 347.008971 612.975306 
L 349.531731 614.372845 
L 352.390859 615.678684 
L 356.090907 617.077225 
L 360.631875 618.551298 
L 369.545627 621.18448 
L 374.759331 622.557859 
L 383.757175 624.841303 
L 394.016399 627.101296 
L 412.264363 630.842984 
L 427.316831 634.3772 
L 434.128283 635.915072 
L 442.117023 637.365844 
L 449.937579 638.781791 
L 470.203751 642.062209 
L 474.744719 642.639734 
L 497.449559 645.154238 
L 520.827135 647.249736 
L 545.550183 649.237798 
L 577.673327 651.779853 
L 593.566715 653.131843 
L 610.048747 654.360721 
L 627.119423 655.41252 
L 660.251671 657.21575 
L 672.024551 657.790288 
L 672.024551 657.790288 
" clip-path="url(#p19da648c83)" style="fill: none; stroke: #1f77b4; stroke-width: 1.5; stroke-linecap: square"/>
   </g>
   <g id="line2d_34">
    <path d="M 66.730336 671.33976 
L 67.73944 671.232322 
L 67.991716 671.131005 
L 69.757648 670.067171 
L 70.178108 669.728772 
L 70.850844 669.190425 
L 74.298616 665.829582 
L 75.30772 665.170099 
L 76.14864 664.942079 
L 77.494112 664.863853 
L 79.428228 664.780192 
L 79.764596 664.637284 
L 80.016872 664.529278 
L 80.35324 664.242196 
L 80.605516 664.042108 
L 80.941884 663.588479 
L 81.19416 663.286259 
L 81.530528 662.6578 
L 81.782804 662.349681 
L 83.632828 657.428283 
L 83.969196 656.098237 
L 84.221472 655.278601 
L 84.55784 653.76907 
L 84.894208 652.584329 
L 85.230576 650.916863 
L 85.482852 649.941498 
L 85.81922 648.148796 
L 86.071496 647.069554 
L 86.407864 645.079985 
L 86.576048 644.437649 
L 87.669244 636.314155 
L 87.92152 634.487934 
L 88.173796 631.754212 
L 88.510164 629.465321 
L 88.846532 626.220325 
L 89.098808 624.359019 
L 89.435176 621.039535 
L 89.687452 619.142061 
L 90.02382 615.803702 
L 90.276096 613.910712 
L 90.612464 610.597962 
L 90.948832 608.214451 
L 91.201108 605.485352 
L 91.537476 603.303262 
L 91.789752 600.693225 
L 92.12612 598.551848 
L 92.378396 595.941757 
L 92.714764 593.801402 
L 92.96704 591.202459 
L 93.303408 589.160509 
L 93.639776 586.375392 
L 93.976144 584.497316 
L 94.312512 582.182775 
L 94.564788 581.06928 
L 94.901156 579.312394 
L 95.06934 578.688431 
L 95.573892 571.86367 
L 95.742076 571.074606 
L 96.75118 563.574659 
L 97.087548 562.587076 
L 97.339824 562.307341 
L 97.5921 562.342067 
L 97.928468 562.74742 
L 98.43302 563.829323 
L 98.601204 564.27225 
L 98.685296 564.155381 
L 99.021664 555.063841 
L 99.105756 555.225609 
L 99.189848 555.468877 
L 99.27394 555.179765 
L 99.442124 548.276909 
L 99.6944 542.417925 
L 99.946676 537.871908 
L 101.039872 490.275814 
L 101.208056 483.58085 
L 101.544424 468.119759 
L 101.7967 460.268495 
L 102.048976 449.242901 
L 102.385344 441.317514 
L 102.63762 432.644708 
L 103.05808 425.913506 
L 103.310356 419.730062 
L 103.646724 416.932099 
L 103.899 412.744601 
L 104.151276 412.214463 
L 104.571736 408.189673 
L 104.73992 408.29741 
L 105.076288 405.527915 
L 105.16038 405.697952 
L 105.328564 406.164397 
L 105.412656 405.793482 
L 105.58084 404.34232 
L 105.749024 404.815864 
L 106.0013 405.96873 
L 106.085392 405.809148 
L 106.253576 404.941827 
L 106.505852 406.433198 
L 106.674036 407.077503 
L 106.84222 406.734817 
L 107.26268 409.352972 
L 107.346772 409.159315 
L 107.430864 409.292021 
L 107.851324 412.169375 
L 107.935416 412.11299 
L 108.019508 412.342804 
L 109.112704 419.640633 
L 109.196796 419.392048 
L 109.280888 419.548802 
L 109.701348 422.641156 
L 109.869532 422.086438 
L 110.2059 424.582589 
L 110.289992 424.33424 
L 110.458176 422.666911 
L 110.62636 423.500328 
L 110.794544 424.389286 
L 110.878636 423.480802 
L 111.04682 419.844646 
L 111.130912 419.824442 
L 111.299096 420.46937 
L 111.383188 420.395311 
L 111.551372 414.104384 
L 111.719556 410.684004 
L 111.971832 410.196907 
L 112.140016 408.261731 
L 112.560476 401.962761 
L 112.896844 399.74 
L 112.980936 399.766078 
L 113.14912 400.374211 
L 113.56958 403.030911 
L 114.494592 413.546992 
L 115.25142 422.918222 
L 116.849168 442.984663 
L 118.783284 465.351201 
L 120.549216 482.358267 
L 122.567424 498.340085 
L 123.996988 507.937238 
L 125.258368 515.386596 
L 126.435656 521.554842 
L 127.192484 525.152518 
L 127.276576 525.147483 
L 127.44476 524.662971 
L 128.201588 526.919778 
L 129.210692 528.868228 
L 130.219796 532.316465 
L 133.75166 543.308144 
L 134.424396 545.022203 
L 136.947156 549.938571 
L 137.11534 550.043822 
L 137.619892 550.842204 
L 137.788076 551.045273 
L 138.124444 551.615065 
L 138.292628 551.628494 
L 138.79718 552.216809 
L 138.965364 552.349067 
L 139.385824 552.93409 
L 139.554008 552.863527 
L 139.974468 553.408308 
L 140.05856 553.325073 
L 140.226744 553.413995 
L 140.563112 553.797455 
L 140.731296 553.655368 
L 141.151756 554.046981 
L 141.31994 553.854001 
L 141.7404 554.167115 
L 141.908584 553.92653 
L 142.16086 554.159759 
L 142.329044 554.313728 
L 142.749504 554.082152 
L 142.917688 554.259122 
L 143.085872 553.9872 
L 143.254056 553.918326 
L 143.506332 554.144932 
L 143.674516 553.817049 
L 143.8427 553.701528 
L 144.179068 553.863133 
L 144.431344 553.738394 
L 145.188172 554.25906 
L 145.860908 555.395133 
L 146.78592 557.774983 
L 148.804128 563.993886 
L 151.158704 570.936182 
L 152.67236 574.885167 
L 152.840544 575.043447 
L 153.261004 575.865789 
L 153.429188 575.761248 
L 153.849648 576.222833 
L 154.101924 576.104449 
L 154.522384 576.221681 
L 154.77466 576.086629 
L 155.531488 576.551711 
L 156.708776 577.704597 
L 156.961052 577.866683 
L 157.129236 577.985024 
L 157.549696 578.409484 
L 157.71788 578.390035 
L 158.811076 579.233948 
L 158.97926 579.321625 
L 159.315628 579.658604 
L 159.483812 579.504756 
L 159.904272 579.74471 
L 160.156548 579.568076 
L 160.577008 579.653875 
L 160.829284 579.528972 
L 161.165652 579.619557 
L 161.333836 579.517411 
L 162.006572 579.889362 
L 162.34294 580.052824 
L 162.511124 579.86409 
L 163.688412 580.618007 
L 163.856596 580.693395 
L 164.192964 580.921822 
L 164.361148 580.625337 
L 164.8657 580.828904 
L 165.117976 580.784454 
L 165.370252 580.716427 
L 165.622528 580.467033 
L 165.958896 580.505153 
L 166.211172 580.337102 
L 167.38846 580.82894 
L 168.145288 581.713021 
L 168.397564 581.952554 
L 168.565748 581.834623 
L 169.154392 582.393574 
L 169.574852 582.655167 
L 169.995312 582.337292 
L 170.247588 582.488195 
L 170.668048 582.506042 
L 171.256692 582.746044 
L 172.01352 583.263619 
L 172.181704 582.978454 
L 172.686256 583.363848 
L 172.938532 583.133381 
L 173.190808 583.166979 
L 173.611268 582.673105 
L 173.779452 582.679059 
L 174.284004 582.027832 
L 174.620372 581.905436 
L 175.3772 581.62423 
L 176.302212 582.264147 
L 176.470396 582.190871 
L 176.890856 582.603019 
L 177.05904 582.481388 
L 178.152236 583.012212 
L 178.488604 583.273829 
L 178.74088 583.465373 
L 178.909064 583.45343 
L 179.5818 584.029344 
L 179.918168 584.221324 
L 180.086352 583.973888 
L 181.095456 584.263426 
L 181.26364 584.011035 
L 181.515916 584.179638 
L 181.6841 584.288516 
L 182.10456 583.949832 
L 182.272744 584.018805 
L 182.777296 583.662031 
L 183.450032 583.598852 
L 183.7864 583.498759 
L 185.04778 584.556207 
L 185.46824 584.941447 
L 185.720516 585.236963 
L 185.972792 585.487745 
L 186.140976 585.35868 
L 186.561436 585.677914 
L 186.813712 585.500791 
L 187.065988 585.582327 
L 187.57054 585.122201 
L 187.822816 585.062833 
L 188.075092 584.889417 
L 188.41146 584.817633 
L 188.663736 584.644341 
L 189.000104 584.680338 
L 189.168288 584.371103 
L 189.588748 584.374345 
L 189.841024 583.936897 
L 190.177392 583.8277 
L 190.429668 583.476383 
L 190.850128 583.205329 
L 191.102404 582.787174 
L 191.438772 582.763506 
L 191.691048 582.590185 
L 192.027416 582.545786 
L 192.279692 582.371466 
L 192.531968 582.475773 
L 192.952428 582.033105 
L 193.204704 582.119157 
L 193.625164 582.038351 
L 193.87744 581.997471 
L 194.045624 581.863176 
L 195.811556 582.584678 
L 196.232016 582.823388 
L 196.4002 582.707473 
L 198.082039 584.175755 
L 198.250223 583.954102 
L 198.670683 584.309305 
L 198.922959 583.951275 
L 199.259327 584.017435 
L 200.100247 583.612566 
L 200.857075 583.868712 
L 201.109351 584.045286 
L 201.277535 584.024169 
L 201.697995 584.1856 
L 201.866179 583.818507 
L 202.118455 583.979202 
L 202.286639 583.987479 
L 202.538915 583.767445 
L 203.379835 583.756224 
L 203.800295 584.057292 
L 204.388939 584.864776 
L 205.566227 587.029584 
L 208.761723 592.95685 
L 211.284483 597.141161 
L 212.545863 598.935395 
L 212.714047 596.045453 
L 212.882231 594.760992 
L 213.050415 594.954874 
L 213.134507 594.816869 
L 213.302691 591.586943 
L 213.554967 588.879729 
L 213.723151 587.66834 
L 215.404991 558.827665 
L 215.657267 555.886161 
L 215.909543 551.628177 
L 216.245911 548.413901 
L 216.498187 544.739092 
L 216.834555 542.026814 
L 217.086831 538.907421 
L 217.423199 536.703446 
L 217.675475 534.111575 
L 218.095935 532.06115 
L 218.348211 530.02165 
L 218.684579 528.920694 
L 218.936855 527.367137 
L 219.273223 526.604861 
L 219.525499 525.355991 
L 219.777775 525.151282 
L 220.198235 523.843022 
L 220.366419 523.82897 
L 220.786879 522.910419 
L 221.039155 523.044268 
L 221.375523 522.439844 
L 221.711891 522.706695 
L 221.880075 522.413609 
L 222.132351 522.792134 
L 222.300535 522.916602 
L 222.468719 522.735307 
L 222.805087 523.311468 
L 222.889179 523.093498 
L 223.057363 522.217631 
L 223.225547 522.466319 
L 223.393731 522.76322 
L 223.477823 522.32545 
L 223.646007 520.693151 
L 223.814191 520.651637 
L 223.982375 520.754813 
L 224.066467 520.576646 
L 224.571019 515.863077 
L 224.655111 515.497936 
L 225.159663 506.545981 
L 225.243755 505.669918 
L 225.748307 488.886273 
L 225.916491 485.624457 
L 226.757411 462.988557 
L 227.009687 461.109135 
L 227.261963 460.533176 
L 227.346055 460.568202 
L 227.514239 461.042355 
L 228.018791 463.681653 
L 229.196079 473.007728 
L 232.475667 500.583027 
L 234.157507 512.685093 
L 235.839347 523.23779 
L 237.521187 532.461632 
L 238.782567 538.147181 
L 239.539395 540.82488 
L 240.212131 542.901981 
L 241.641695 547.086427 
L 241.893971 547.694931 
L 242.398523 549.024853 
L 242.650799 549.640994 
L 242.903075 550.217884 
L 243.071259 550.288512 
L 243.912179 551.853445 
L 244.164455 552.095942 
L 244.332639 552.306278 
L 244.669007 552.828941 
L 244.837191 552.713727 
L 245.341743 553.445628 
L 245.509927 553.229647 
L 245.930387 553.626274 
L 246.098571 553.392877 
L 246.603123 553.565964 
L 246.771307 553.560052 
L 248.032687 554.786301 
L 248.957699 556.446797 
L 249.125883 556.50219 
L 249.546343 557.247222 
L 249.714527 557.117628 
L 250.219079 557.620437 
L 250.387263 557.682041 
L 251.480459 558.679094 
L 251.564551 558.698745 
L 252.573655 560.175928 
L 253.162299 560.836612 
L 253.330483 560.656901 
L 253.750943 561.259274 
L 253.919127 561.072751 
L 255.012323 561.845447 
L 255.180507 561.68321 
L 255.600967 562.147306 
L 255.769151 561.866629 
L 257.282807 563.115182 
L 259.805567 567.1872 
L 259.973751 567.145947 
L 260.478303 567.970131 
L 260.646487 567.795995 
L 261.151039 568.162398 
L 261.319223 568.188043 
L 261.655591 568.356231 
L 261.823775 568.293759 
L 263.253339 569.282179 
L 263.421523 569.473093 
L 263.589707 569.247727 
L 263.757891 569.251841 
L 264.094259 569.567538 
L 264.262443 569.368411 
L 264.766995 569.447553 
L 264.935179 569.413299 
L 265.271547 569.481468 
L 265.439731 569.306256 
L 266.364743 569.766604 
L 267.121571 570.338275 
L 267.289755 570.167966 
L 268.382951 571.242541 
L 268.635227 571.493116 
L 269.560239 572.625649 
L 269.728423 572.416112 
L 270.232975 572.930075 
L 270.401159 572.955099 
L 270.737527 573.123393 
L 270.989803 573.092197 
L 271.326171 573.157103 
L 271.494355 572.859317 
L 271.746631 573.063122 
L 271.998907 573.162011 
L 272.335275 573.282689 
L 272.587551 573.326662 
L 272.755735 573.1642 
L 273.176195 573.46728 
L 273.344379 573.301783 
L 273.764839 573.451037 
L 273.933023 573.051502 
L 274.185299 573.156796 
L 274.269391 573.174879 
L 274.773943 572.478211 
L 275.026219 572.362353 
L 275.446679 572.188566 
L 275.951231 572.233921 
L 276.623967 573.062713 
L 277.380795 574.118467 
L 277.548979 574.069329 
L 278.053531 574.647087 
L 278.221715 574.72446 
L 278.558083 575.021036 
L 278.978543 574.69749 
L 279.146727 574.83015 
L 279.314911 574.459081 
L 279.483095 574.277419 
L 279.735371 574.323679 
L 280.239923 573.790904 
L 281.164935 573.72918 
L 281.753579 574.125146 
L 281.921763 574.222315 
L 282.678591 575.197203 
L 282.846775 575.203288 
L 283.014959 574.92385 
L 283.435419 575.287572 
L 283.603603 574.963701 
L 284.612707 575.015943 
L 284.949075 574.815159 
L 285.285443 574.975985 
L 285.453627 574.680855 
L 286.294547 574.929135 
L 286.378639 574.934827 
L 286.799099 574.42104 
L 287.051375 574.505281 
L 287.303651 574.34083 
L 287.976387 574.501699 
L 288.396847 574.875447 
L 288.901399 575.674394 
L 289.826411 577.656944 
L 293.358275 585.525364 
L 295.712851 590.152032 
L 296.133311 590.7345 
L 296.301495 590.528664 
L 297.058323 591.298135 
L 297.646967 591.535667 
L 298.151519 592.019462 
L 298.992439 593.221421 
L 301.683383 597.322252 
L 301.851567 597.464704 
L 302.440211 598.156983 
L 303.449315 599.049741 
L 304.542511 600.458793 
L 305.887983 602.114681 
L 306.140259 602.284719 
L 306.476627 602.581041 
L 306.728903 602.629895 
L 307.065271 602.804145 
L 307.317547 602.709481 
L 307.653915 602.748 
L 307.906191 602.505437 
L 308.158467 602.518429 
L 308.663019 601.983516 
L 308.831203 601.911009 
L 309.335755 601.138022 
L 309.503939 600.886739 
L 309.756215 600.238759 
L 310.008491 600.028273 
L 311.101687 597.219863 
L 311.269871 596.740647 
L 311.522147 595.649716 
L 311.858515 595.012203 
L 312.363067 592.436078 
L 312.447159 592.21853 
L 315.054011 573.955765 
L 315.306287 572.341567 
L 315.474471 571.686846 
L 315.979023 568.146758 
L 316.147207 567.109247 
L 316.399483 564.874724 
L 316.735851 563.236812 
L 316.988127 561.018782 
L 317.324495 559.418217 
L 317.576771 557.237433 
L 317.997231 555.387142 
L 318.249507 553.293738 
L 318.585875 552.030116 
L 318.838151 550.273025 
L 319.174519 549.15121 
L 319.426795 547.687815 
L 319.763163 546.802506 
L 320.015439 545.721865 
L 320.267715 545.248584 
L 320.688175 539.333075 
L 320.856359 539.2077 
L 321.024543 538.440534 
L 321.697279 534.172649 
L 322.033647 533.165445 
L 322.285923 532.984529 
L 322.538199 533.171741 
L 322.874567 533.831765 
L 323.379119 535.477746 
L 324.135947 538.398343 
L 326.910983 548.490703 
L 328.172363 552.365645 
L 332.965607 565.655664 
L 335.151999 571.871541 
L 336.749747 575.901109 
L 339.524783 582.423478 
L 341.879359 587.362003 
L 344.318027 591.959178 
L 346.840787 596.241528 
L 349.447639 600.23382 
L 352.138583 603.958867 
L 354.997711 607.537848 
L 357.940931 610.871111 
L 361.052335 614.061499 
L 364.331923 617.104818 
L 367.779695 619.999713 
L 371.395651 622.747081 
L 375.263883 625.404517 
L 379.384391 627.96012 
L 383.757175 630.405944 
L 388.382235 632.737318 
L 393.343663 634.988446 
L 398.641459 637.148496 
L 404.359715 639.239527 
L 410.582523 641.274426 
L 417.309883 643.235922 
L 424.625887 645.132508 
L 432.530535 646.949513 
L 441.192011 648.709408 
L 450.694407 650.40931 
L 461.121815 652.045114 
L 472.642419 653.623068 
L 485.340311 655.134617 
L 499.467767 656.588901 
L 515.192971 657.980845 
L 532.852291 659.316517 
L 552.698003 660.590158 
L 575.150567 661.803515 
L 600.630443 662.953184 
L 629.810367 664.041848 
L 663.363075 665.065424 
L 672.024551 665.297582 
L 672.024551 665.297582 
" clip-path="url(#p19da648c83)" style="fill: none; stroke: #ff7f0e; stroke-width: 1.5; stroke-linecap: square"/>
   </g>
   <g id="patch_9">
    <path d="M 36.465625 684.92 
L 36.465625 386.16 
" style="fill: none; stroke: #000000; stroke-width: 0.8; stroke-linejoin: miter; stroke-linecap: square"/>
   </g>
   <g id="patch_10">
    <path d="M 702.289261 684.92 
L 702.289261 386.16 
" style="fill: none; stroke: #000000; stroke-width: 0.8; stroke-linejoin: miter; stroke-linecap: square"/>
   </g>
   <g id="patch_11">
    <path d="M 36.465625 684.92 
L 702.289261 684.92 
" style="fill: none; stroke: #000000; stroke-width: 0.8; stroke-linejoin: miter; stroke-linecap: square"/>
   </g>
   <g id="patch_12">
    <path d="M 36.465625 386.16 
L 702.289261 386.16 
" style="fill: none; stroke: #000000; stroke-width: 0.8; stroke-linejoin: miter; stroke-linecap: square"/>
   </g>
   <g id="text_32">
    <!-- 2 transformation(s) -->
    <g transform="translate(311.262756 380.16) scale(0.12 -0.12)">
     <use xlink:href="#DejaVuSans-32"/>
     <use xlink:href="#DejaVuSans-20" x="63.623047"/>
     <use xlink:href="#DejaVuSans-74" x="95.410156"/>
     <use xlink:href="#DejaVuSans-72" x="134.619141"/>
     <use xlink:href="#DejaVuSans-61" x="175.732422"/>
     <use xlink:href="#DejaVuSans-6e" x="237.011719"/>
     <use xlink:href="#DejaVuSans-73" x="300.390625"/>
     <use xlink:href="#DejaVuSans-66" x="352.490234"/>
     <use xlink:href="#DejaVuSans-6f" x="387.695312"/>
     <use xlink:href="#DejaVuSans-72" x="448.876953"/>
     <use xlink:href="#DejaVuSans-6d" x="488.240234"/>
     <use xlink:href="#DejaVuSans-61" x="585.652344"/>
     <use xlink:href="#DejaVuSans-74" x="646.931641"/>
     <use xlink:href="#DejaVuSans-69" x="686.140625"/>
     <use xlink:href="#DejaVuSans-6f" x="713.923828"/>
     <use xlink:href="#DejaVuSans-6e" x="775.105469"/>
     <use xlink:href="#DejaVuSans-28" x="838.484375"/>
     <use xlink:href="#DejaVuSans-73" x="877.498047"/>
     <use xlink:href="#DejaVuSans-29" x="929.597656"/>
    </g>
   </g>
  </g>
  <g id="text_33">
   <!-- training -->
   <g transform="translate(333.282187 16.318125) scale(0.12 -0.12)">
    <defs>
     <path id="DejaVuSans-67" d="M 2906 1791 
Q 2906 2416 2648 2759 
Q 2391 3103 1925 3103 
Q 1463 3103 1205 2759 
Q 947 2416 947 1791 
Q 947 1169 1205 825 
Q 1463 481 1925 481 
Q 2391 481 2648 825 
Q 2906 1169 2906 1791 
z
M 3481 434 
Q 3481 -459 3084 -895 
Q 2688 -1331 1869 -1331 
Q 1566 -1331 1297 -1286 
Q 1028 -1241 775 -1147 
L 775 -588 
Q 1028 -725 1275 -790 
Q 1522 -856 1778 -856 
Q 2344 -856 2625 -561 
Q 2906 -266 2906 331 
L 2906 616 
Q 2728 306 2450 153 
Q 2172 0 1784 0 
Q 1141 0 747 490 
Q 353 981 353 1791 
Q 353 2603 747 3093 
Q 1141 3584 1784 3584 
Q 2172 3584 2450 3431 
Q 2728 3278 2906 2969 
L 2906 3500 
L 3481 3500 
L 3481 434 
z
" transform="scale(0.015625)"/>
    </defs>
    <use xlink:href="#DejaVuSans-74"/>
    <use xlink:href="#DejaVuSans-72" x="39.208984"/>
    <use xlink:href="#DejaVuSans-61" x="80.322266"/>
    <use xlink:href="#DejaVuSans-69" x="141.601562"/>
    <use xlink:href="#DejaVuSans-6e" x="169.384766"/>
    <use xlink:href="#DejaVuSans-69" x="232.763672"/>
    <use xlink:href="#DejaVuSans-6e" x="260.546875"/>
    <use xlink:href="#DejaVuSans-67" x="323.925781"/>
   </g>
  </g>
 </g>
 <defs>
  <clipPath id="pc5e0fc8dc4">
   <rect x="36.465625" y="43.44" width="665.823636" height="298.76"/>
  </clipPath>
  <clipPath id="p19da648c83">
   <rect x="36.465625" y="386.16" width="665.823636" height="298.76"/>
  </clipPath>
 </defs>
</svg>
