<?xml version="1.0" encoding="utf-8" standalone="no"?>
<!DOCTYPE svg PUBLIC "-//W3C//DTD SVG 1.1//EN"
  "http://www.w3.org/Graphics/SVG/1.1/DTD/svg11.dtd">
<svg xmlns:xlink="http://www.w3.org/1999/xlink" width="709.398636pt" height="708.798125pt" viewBox="0 0 709.398636 708.798125" xmlns="http://www.w3.org/2000/svg" version="1.1">
 <metadata>
  <rdf:RDF xmlns:dc="http://purl.org/dc/elements/1.1/" xmlns:cc="http://creativecommons.org/ns#" xmlns:rdf="http://www.w3.org/1999/02/22-rdf-syntax-ns#">
   <cc:Work>
    <dc:type rdf:resource="http://purl.org/dc/dcmitype/StillImage"/>
    <dc:date>2023-06-17T05:46:07.841242</dc:date>
    <dc:format>image/svg+xml</dc:format>
    <dc:creator>
     <cc:Agent>
      <dc:title>Matplotlib v3.7.1, https://matplotlib.org/</dc:title>
     </cc:Agent>
    </dc:creator>
   </cc:Work>
  </rdf:RDF>
 </metadata>
 <defs>
  <style type="text/css">*{stroke-linejoin: round; stroke-linecap: butt}</style>
 </defs>
 <g id="figure_1">
  <g id="patch_1">
   <path d="M 0 708.798125 
L 709.398636 708.798125 
L 709.398636 0 
L 0 0 
z
" style="fill: #ffffff"/>
  </g>
  <g id="axes_1">
   <g id="patch_2">
    <path d="M 26.925 342.2 
L 702.198636 342.2 
L 702.198636 43.44 
L 26.925 43.44 
z
" style="fill: #ffffff"/>
   </g>
   <g id="matplotlib.axis_1">
    <g id="xtick_1">
     <g id="line2d_1">
      <defs>
       <path id="m48fbdc04d9" d="M 0 0 
L 0 3.5 
" style="stroke: #000000; stroke-width: 0.8"/>
      </defs>
      <g>
       <use xlink:href="#m48fbdc04d9" x="57.448685" y="342.2" style="stroke: #000000; stroke-width: 0.8"/>
      </g>
     </g>
     <g id="text_1">
      <!-- 2014-07-01 -->
      <g transform="translate(28.390873 356.798437) scale(0.1 -0.1)">
       <defs>
        <path id="DejaVuSans-32" d="M 1228 531 
L 3431 531 
L 3431 0 
L 469 0 
L 469 531 
Q 828 903 1448 1529 
Q 2069 2156 2228 2338 
Q 2531 2678 2651 2914 
Q 2772 3150 2772 3378 
Q 2772 3750 2511 3984 
Q 2250 4219 1831 4219 
Q 1534 4219 1204 4116 
Q 875 4013 500 3803 
L 500 4441 
Q 881 4594 1212 4672 
Q 1544 4750 1819 4750 
Q 2544 4750 2975 4387 
Q 3406 4025 3406 3419 
Q 3406 3131 3298 2873 
Q 3191 2616 2906 2266 
Q 2828 2175 2409 1742 
Q 1991 1309 1228 531 
z
" transform="scale(0.015625)"/>
        <path id="DejaVuSans-30" d="M 2034 4250 
Q 1547 4250 1301 3770 
Q 1056 3291 1056 2328 
Q 1056 1369 1301 889 
Q 1547 409 2034 409 
Q 2525 409 2770 889 
Q 3016 1369 3016 2328 
Q 3016 3291 2770 3770 
Q 2525 4250 2034 4250 
z
M 2034 4750 
Q 2819 4750 3233 4129 
Q 3647 3509 3647 2328 
Q 3647 1150 3233 529 
Q 2819 -91 2034 -91 
Q 1250 -91 836 529 
Q 422 1150 422 2328 
Q 422 3509 836 4129 
Q 1250 4750 2034 4750 
z
" transform="scale(0.015625)"/>
        <path id="DejaVuSans-31" d="M 794 531 
L 1825 531 
L 1825 4091 
L 703 3866 
L 703 4441 
L 1819 4666 
L 2450 4666 
L 2450 531 
L 3481 531 
L 3481 0 
L 794 0 
L 794 531 
z
" transform="scale(0.015625)"/>
        <path id="DejaVuSans-34" d="M 2419 4116 
L 825 1625 
L 2419 1625 
L 2419 4116 
z
M 2253 4666 
L 3047 4666 
L 3047 1625 
L 3713 1625 
L 3713 1100 
L 3047 1100 
L 3047 0 
L 2419 0 
L 2419 1100 
L 313 1100 
L 313 1709 
L 2253 4666 
z
" transform="scale(0.015625)"/>
        <path id="DejaVuSans-2d" d="M 313 2009 
L 1997 2009 
L 1997 1497 
L 313 1497 
L 313 2009 
z
" transform="scale(0.015625)"/>
        <path id="DejaVuSans-37" d="M 525 4666 
L 3525 4666 
L 3525 4397 
L 1831 0 
L 1172 0 
L 2766 4134 
L 525 4134 
L 525 4666 
z
" transform="scale(0.015625)"/>
       </defs>
       <use xlink:href="#DejaVuSans-32"/>
       <use xlink:href="#DejaVuSans-30" x="63.623047"/>
       <use xlink:href="#DejaVuSans-31" x="127.246094"/>
       <use xlink:href="#DejaVuSans-34" x="190.869141"/>
       <use xlink:href="#DejaVuSans-2d" x="254.492188"/>
       <use xlink:href="#DejaVuSans-30" x="290.576172"/>
       <use xlink:href="#DejaVuSans-37" x="354.199219"/>
       <use xlink:href="#DejaVuSans-2d" x="417.822266"/>
       <use xlink:href="#DejaVuSans-30" x="453.90625"/>
       <use xlink:href="#DejaVuSans-31" x="517.529297"/>
      </g>
     </g>
    </g>
    <g id="xtick_2">
     <g id="line2d_2">
      <g>
       <use xlink:href="#m48fbdc04d9" x="180.259824" y="342.2" style="stroke: #000000; stroke-width: 0.8"/>
      </g>
     </g>
     <g id="text_2">
      <!-- 2014-07-02 -->
      <g transform="translate(151.202012 356.798437) scale(0.1 -0.1)">
       <use xlink:href="#DejaVuSans-32"/>
       <use xlink:href="#DejaVuSans-30" x="63.623047"/>
       <use xlink:href="#DejaVuSans-31" x="127.246094"/>
       <use xlink:href="#DejaVuSans-34" x="190.869141"/>
       <use xlink:href="#DejaVuSans-2d" x="254.492188"/>
       <use xlink:href="#DejaVuSans-30" x="290.576172"/>
       <use xlink:href="#DejaVuSans-37" x="354.199219"/>
       <use xlink:href="#DejaVuSans-2d" x="417.822266"/>
       <use xlink:href="#DejaVuSans-30" x="453.90625"/>
       <use xlink:href="#DejaVuSans-32" x="517.529297"/>
      </g>
     </g>
    </g>
    <g id="xtick_3">
     <g id="line2d_3">
      <g>
       <use xlink:href="#m48fbdc04d9" x="303.070963" y="342.2" style="stroke: #000000; stroke-width: 0.8"/>
      </g>
     </g>
     <g id="text_3">
      <!-- 2014-07-03 -->
      <g transform="translate(274.013151 356.798437) scale(0.1 -0.1)">
       <defs>
        <path id="DejaVuSans-33" d="M 2597 2516 
Q 3050 2419 3304 2112 
Q 3559 1806 3559 1356 
Q 3559 666 3084 287 
Q 2609 -91 1734 -91 
Q 1441 -91 1130 -33 
Q 819 25 488 141 
L 488 750 
Q 750 597 1062 519 
Q 1375 441 1716 441 
Q 2309 441 2620 675 
Q 2931 909 2931 1356 
Q 2931 1769 2642 2001 
Q 2353 2234 1838 2234 
L 1294 2234 
L 1294 2753 
L 1863 2753 
Q 2328 2753 2575 2939 
Q 2822 3125 2822 3475 
Q 2822 3834 2567 4026 
Q 2313 4219 1838 4219 
Q 1578 4219 1281 4162 
Q 984 4106 628 3988 
L 628 4550 
Q 988 4650 1302 4700 
Q 1616 4750 1894 4750 
Q 2613 4750 3031 4423 
Q 3450 4097 3450 3541 
Q 3450 3153 3228 2886 
Q 3006 2619 2597 2516 
z
" transform="scale(0.015625)"/>
       </defs>
       <use xlink:href="#DejaVuSans-32"/>
       <use xlink:href="#DejaVuSans-30" x="63.623047"/>
       <use xlink:href="#DejaVuSans-31" x="127.246094"/>
       <use xlink:href="#DejaVuSans-34" x="190.869141"/>
       <use xlink:href="#DejaVuSans-2d" x="254.492188"/>
       <use xlink:href="#DejaVuSans-30" x="290.576172"/>
       <use xlink:href="#DejaVuSans-37" x="354.199219"/>
       <use xlink:href="#DejaVuSans-2d" x="417.822266"/>
       <use xlink:href="#DejaVuSans-30" x="453.90625"/>
       <use xlink:href="#DejaVuSans-33" x="517.529297"/>
      </g>
     </g>
    </g>
    <g id="xtick_4">
     <g id="line2d_4">
      <g>
       <use xlink:href="#m48fbdc04d9" x="425.882102" y="342.2" style="stroke: #000000; stroke-width: 0.8"/>
      </g>
     </g>
     <g id="text_4">
      <!-- 2014-07-04 -->
      <g transform="translate(396.82429 356.798437) scale(0.1 -0.1)">
       <use xlink:href="#DejaVuSans-32"/>
       <use xlink:href="#DejaVuSans-30" x="63.623047"/>
       <use xlink:href="#DejaVuSans-31" x="127.246094"/>
       <use xlink:href="#DejaVuSans-34" x="190.869141"/>
       <use xlink:href="#DejaVuSans-2d" x="254.492188"/>
       <use xlink:href="#DejaVuSans-30" x="290.576172"/>
       <use xlink:href="#DejaVuSans-37" x="354.199219"/>
       <use xlink:href="#DejaVuSans-2d" x="417.822266"/>
       <use xlink:href="#DejaVuSans-30" x="453.90625"/>
       <use xlink:href="#DejaVuSans-34" x="517.529297"/>
      </g>
     </g>
    </g>
    <g id="xtick_5">
     <g id="line2d_5">
      <g>
       <use xlink:href="#m48fbdc04d9" x="548.693241" y="342.2" style="stroke: #000000; stroke-width: 0.8"/>
      </g>
     </g>
     <g id="text_5">
      <!-- 2014-07-05 -->
      <g transform="translate(519.635429 356.798437) scale(0.1 -0.1)">
       <defs>
        <path id="DejaVuSans-35" d="M 691 4666 
L 3169 4666 
L 3169 4134 
L 1269 4134 
L 1269 2991 
Q 1406 3038 1543 3061 
Q 1681 3084 1819 3084 
Q 2600 3084 3056 2656 
Q 3513 2228 3513 1497 
Q 3513 744 3044 326 
Q 2575 -91 1722 -91 
Q 1428 -91 1123 -41 
Q 819 9 494 109 
L 494 744 
Q 775 591 1075 516 
Q 1375 441 1709 441 
Q 2250 441 2565 725 
Q 2881 1009 2881 1497 
Q 2881 1984 2565 2268 
Q 2250 2553 1709 2553 
Q 1456 2553 1204 2497 
Q 953 2441 691 2322 
L 691 4666 
z
" transform="scale(0.015625)"/>
       </defs>
       <use xlink:href="#DejaVuSans-32"/>
       <use xlink:href="#DejaVuSans-30" x="63.623047"/>
       <use xlink:href="#DejaVuSans-31" x="127.246094"/>
       <use xlink:href="#DejaVuSans-34" x="190.869141"/>
       <use xlink:href="#DejaVuSans-2d" x="254.492188"/>
       <use xlink:href="#DejaVuSans-30" x="290.576172"/>
       <use xlink:href="#DejaVuSans-37" x="354.199219"/>
       <use xlink:href="#DejaVuSans-2d" x="417.822266"/>
       <use xlink:href="#DejaVuSans-30" x="453.90625"/>
       <use xlink:href="#DejaVuSans-35" x="517.529297"/>
      </g>
     </g>
    </g>
    <g id="xtick_6">
     <g id="line2d_6">
      <g>
       <use xlink:href="#m48fbdc04d9" x="671.50438" y="342.2" style="stroke: #000000; stroke-width: 0.8"/>
      </g>
     </g>
     <g id="text_6">
      <!-- 2014-07-06 -->
      <g transform="translate(642.446568 356.798437) scale(0.1 -0.1)">
       <defs>
        <path id="DejaVuSans-36" d="M 2113 2584 
Q 1688 2584 1439 2293 
Q 1191 2003 1191 1497 
Q 1191 994 1439 701 
Q 1688 409 2113 409 
Q 2538 409 2786 701 
Q 3034 994 3034 1497 
Q 3034 2003 2786 2293 
Q 2538 2584 2113 2584 
z
M 3366 4563 
L 3366 3988 
Q 3128 4100 2886 4159 
Q 2644 4219 2406 4219 
Q 1781 4219 1451 3797 
Q 1122 3375 1075 2522 
Q 1259 2794 1537 2939 
Q 1816 3084 2150 3084 
Q 2853 3084 3261 2657 
Q 3669 2231 3669 1497 
Q 3669 778 3244 343 
Q 2819 -91 2113 -91 
Q 1303 -91 875 529 
Q 447 1150 447 2328 
Q 447 3434 972 4092 
Q 1497 4750 2381 4750 
Q 2619 4750 2861 4703 
Q 3103 4656 3366 4563 
z
" transform="scale(0.015625)"/>
       </defs>
       <use xlink:href="#DejaVuSans-32"/>
       <use xlink:href="#DejaVuSans-30" x="63.623047"/>
       <use xlink:href="#DejaVuSans-31" x="127.246094"/>
       <use xlink:href="#DejaVuSans-34" x="190.869141"/>
       <use xlink:href="#DejaVuSans-2d" x="254.492188"/>
       <use xlink:href="#DejaVuSans-30" x="290.576172"/>
       <use xlink:href="#DejaVuSans-37" x="354.199219"/>
       <use xlink:href="#DejaVuSans-2d" x="417.822266"/>
       <use xlink:href="#DejaVuSans-30" x="453.90625"/>
       <use xlink:href="#DejaVuSans-36" x="517.529297"/>
      </g>
     </g>
    </g>
   </g>
   <g id="matplotlib.axis_2">
    <g id="ytick_1">
     <g id="line2d_7">
      <defs>
       <path id="md961170253" d="M 0 0 
L -3.5 0 
" style="stroke: #000000; stroke-width: 0.8"/>
      </defs>
      <g>
       <use xlink:href="#md961170253" x="26.925" y="328.608927" style="stroke: #000000; stroke-width: 0.8"/>
      </g>
     </g>
     <g id="text_7">
      <!-- 0 -->
      <g transform="translate(13.5625 332.408146) scale(0.1 -0.1)">
       <use xlink:href="#DejaVuSans-30"/>
      </g>
     </g>
    </g>
    <g id="ytick_2">
     <g id="line2d_8">
      <g>
       <use xlink:href="#md961170253" x="26.925" y="277.215813" style="stroke: #000000; stroke-width: 0.8"/>
      </g>
     </g>
     <g id="text_8">
      <!-- 2 -->
      <g transform="translate(13.5625 281.015031) scale(0.1 -0.1)">
       <use xlink:href="#DejaVuSans-32"/>
      </g>
     </g>
    </g>
    <g id="ytick_3">
     <g id="line2d_9">
      <g>
       <use xlink:href="#md961170253" x="26.925" y="225.822699" style="stroke: #000000; stroke-width: 0.8"/>
      </g>
     </g>
     <g id="text_9">
      <!-- 4 -->
      <g transform="translate(13.5625 229.621917) scale(0.1 -0.1)">
       <use xlink:href="#DejaVuSans-34"/>
      </g>
     </g>
    </g>
    <g id="ytick_4">
     <g id="line2d_10">
      <g>
       <use xlink:href="#md961170253" x="26.925" y="174.429585" style="stroke: #000000; stroke-width: 0.8"/>
      </g>
     </g>
     <g id="text_10">
      <!-- 6 -->
      <g transform="translate(13.5625 178.228803) scale(0.1 -0.1)">
       <use xlink:href="#DejaVuSans-36"/>
      </g>
     </g>
    </g>
    <g id="ytick_5">
     <g id="line2d_11">
      <g>
       <use xlink:href="#md961170253" x="26.925" y="123.036471" style="stroke: #000000; stroke-width: 0.8"/>
      </g>
     </g>
     <g id="text_11">
      <!-- 8 -->
      <g transform="translate(13.5625 126.835689) scale(0.1 -0.1)">
       <defs>
        <path id="DejaVuSans-38" d="M 2034 2216 
Q 1584 2216 1326 1975 
Q 1069 1734 1069 1313 
Q 1069 891 1326 650 
Q 1584 409 2034 409 
Q 2484 409 2743 651 
Q 3003 894 3003 1313 
Q 3003 1734 2745 1975 
Q 2488 2216 2034 2216 
z
M 1403 2484 
Q 997 2584 770 2862 
Q 544 3141 544 3541 
Q 544 4100 942 4425 
Q 1341 4750 2034 4750 
Q 2731 4750 3128 4425 
Q 3525 4100 3525 3541 
Q 3525 3141 3298 2862 
Q 3072 2584 2669 2484 
Q 3125 2378 3379 2068 
Q 3634 1759 3634 1313 
Q 3634 634 3220 271 
Q 2806 -91 2034 -91 
Q 1263 -91 848 271 
Q 434 634 434 1313 
Q 434 1759 690 2068 
Q 947 2378 1403 2484 
z
M 1172 3481 
Q 1172 3119 1398 2916 
Q 1625 2713 2034 2713 
Q 2441 2713 2670 2916 
Q 2900 3119 2900 3481 
Q 2900 3844 2670 4047 
Q 2441 4250 2034 4250 
Q 1625 4250 1398 4047 
Q 1172 3844 1172 3481 
z
" transform="scale(0.015625)"/>
       </defs>
       <use xlink:href="#DejaVuSans-38"/>
      </g>
     </g>
    </g>
    <g id="ytick_6">
     <g id="line2d_12">
      <g>
       <use xlink:href="#md961170253" x="26.925" y="71.643357" style="stroke: #000000; stroke-width: 0.8"/>
      </g>
     </g>
     <g id="text_12">
      <!-- 10 -->
      <g transform="translate(7.2 75.442575) scale(0.1 -0.1)">
       <use xlink:href="#DejaVuSans-31"/>
       <use xlink:href="#DejaVuSans-30" x="63.623047"/>
      </g>
     </g>
    </g>
   </g>
   <g id="line2d_13">
    <path d="M 57.619256 328.607878 
L 58.216255 328.510502 
L 58.727968 328.176134 
L 60.177822 326.981036 
L 61.371819 326.401137 
L 63.077529 325.868568 
L 65.039096 325.529644 
L 67.938803 325.269421 
L 72.288364 325.122412 
L 83.20491 324.841076 
L 83.546052 324.532846 
L 83.97248 323.87955 
L 84.995906 321.565138 
L 86.275189 317.784978 
L 86.786902 315.244203 
L 88.492612 306.243976 
L 89.516038 302.490028 
L 90.283608 300.477506 
L 91.051177 298.458295 
L 91.648176 296.200856 
L 91.904033 294.92241 
L 92.415746 290.637253 
L 92.842173 285.691169 
L 94.377312 265.54473 
L 94.547883 261.573521 
L 95.059596 248.260147 
L 95.827166 239.319667 
L 96.338879 233.373147 
L 96.424165 231.884417 
L 96.50945 232.154242 
L 96.765307 240.304961 
L 96.850592 229.752719 
L 96.935878 205.159508 
L 97.021163 210.296156 
L 97.106449 210.292615 
L 97.191734 199.187728 
L 97.27702 209.208095 
L 97.362305 195.858837 
L 97.532876 203.654904 
L 97.703447 204.414497 
L 97.788733 204.324584 
L 97.959304 203.458218 
L 98.385732 200.559227 
L 98.98273 197.510637 
L 99.153301 197.361174 
L 99.323872 195.577654 
L 99.579729 190.788724 
L 99.7503 180.543464 
L 100.006156 178.365198 
L 100.262013 177.120703 
L 100.432584 182.584287 
L 100.517869 181.040694 
L 100.603155 173.956873 
L 100.68844 175.880496 
L 100.773726 192.137775 
L 100.859011 173.359389 
L 100.944297 173.663118 
L 101.029582 197.398277 
L 101.114868 164.170699 
L 101.285439 186.531051 
L 101.370724 151.9642 
L 101.45601 190.243377 
L 101.541295 145.177921 
L 101.626581 184.840984 
L 101.797152 156.800047 
L 101.882438 175.396193 
L 101.967723 139.918191 
L 102.053009 188.412816 
L 102.138294 131.516333 
L 102.22358 168.598629 
L 102.394151 144.672727 
L 102.479436 182.958814 
L 102.564722 126.501297 
L 102.650007 170.24592 
L 102.820578 137.00778 
L 102.905864 181.697765 
L 102.991149 124.751889 
L 103.076435 171.731237 
L 103.247006 138.514418 
L 103.332291 179.738192 
L 103.417577 124.924302 
L 103.502862 169.80552 
L 103.673433 139.275077 
L 103.758719 181.132628 
L 103.844004 123.182968 
L 103.92929 165.506983 
L 104.014575 158.547605 
L 104.099861 134.969138 
L 104.185146 180.529937 
L 104.270432 129.614313 
L 104.355717 164.880017 
L 104.441003 157.245507 
L 104.526288 141.683504 
L 104.611574 176.291317 
L 104.696859 135.003116 
L 104.782145 175.020097 
L 104.867431 146.770367 
L 104.952716 153.129773 
L 105.038002 166.051766 
L 105.123287 136.374799 
L 105.208573 175.5714 
L 105.293858 134.125821 
L 105.379144 171.394143 
L 105.464429 150.796347 
L 105.549715 155.131668 
L 105.635 169.4939 
L 105.720286 135.218133 
L 105.805571 176.536231 
L 105.890857 140.595149 
L 105.976142 163.452265 
L 106.146713 142.554955 
L 106.231999 173.50286 
L 106.317284 133.043164 
L 106.40257 176.811558 
L 106.487855 140.045452 
L 106.658426 162.388747 
L 106.743712 131.177413 
L 106.828997 179.767281 
L 106.914283 122.265213 
L 106.999568 166.731359 
L 107.084854 164.806376 
L 107.170139 137.834372 
L 107.255425 177.878862 
L 107.34071 124.806819 
L 107.425996 166.22565 
L 107.511281 162.856655 
L 107.596567 134.46376 
L 107.681852 180.469909 
L 107.767138 129.914721 
L 107.852423 162.85891 
L 107.937709 161.108154 
L 108.022994 130.351727 
L 108.10828 181.5087 
L 108.193566 129.687304 
L 108.278851 165.754666 
L 108.364137 161.960061 
L 108.449422 143.978566 
L 108.534708 183.392009 
L 108.619993 125.630165 
L 108.705279 171.361133 
L 108.87585 140.014537 
L 108.961135 182.634537 
L 109.046421 127.691585 
L 109.131706 172.360678 
L 109.302277 131.235112 
L 109.387563 178.453347 
L 109.472848 124.155017 
L 109.558134 174.291689 
L 109.643419 142.742439 
L 109.728705 143.293423 
L 109.81399 175.695511 
L 109.899276 123.586107 
L 109.984561 176.306192 
L 110.069847 141.873512 
L 110.240418 173.836524 
L 110.325703 122.943127 
L 110.410989 179.662934 
L 110.496274 135.655788 
L 110.58156 146.678518 
L 110.666845 177.291033 
L 110.752131 126.705788 
L 110.837416 177.072193 
L 110.922702 129.117389 
L 111.093273 164.173076 
L 111.178558 133.853655 
L 111.263844 181.115462 
L 111.34913 123.534423 
L 111.434415 170.220948 
L 111.519701 142.596113 
L 111.604986 146.072555 
L 111.690272 166.30527 
L 111.775557 125.440034 
L 111.860843 175.704382 
L 111.946128 135.802666 
L 112.116699 167.956752 
L 112.201985 127.328502 
L 112.28727 181.667426 
L 112.372556 135.089218 
L 112.543127 179.286874 
L 112.628412 130.890397 
L 112.713698 183.354748 
L 112.798983 140.062116 
L 112.969554 172.467463 
L 113.05484 138.31147 
L 113.140125 182.883004 
L 113.225411 135.412479 
L 113.310696 180.984121 
L 113.481267 150.543848 
L 113.566553 184.326306 
L 113.651838 135.824354 
L 113.737124 186.094229 
L 113.822409 152.922746 
L 113.907695 157.088594 
L 113.99298 182.054023 
L 114.078266 141.204923 
L 114.163551 192.089964 
L 114.248837 143.220554 
L 114.334122 181.662464 
L 114.419408 158.015797 
L 114.504693 162.888366 
L 114.589979 177.116377 
L 114.675265 141.167846 
L 114.76055 191.134101 
L 114.845836 146.088655 
L 114.931121 185.13148 
L 115.101692 157.643512 
L 115.186978 192.027792 
L 115.272263 148.340157 
L 115.357549 197.867386 
L 115.52812 162.544839 
L 115.613405 190.542119 
L 115.698691 151.338864 
L 115.783976 194.783716 
L 115.869262 155.768019 
L 115.954547 182.621622 
L 116.125118 166.089151 
L 116.210404 193.43676 
L 116.295689 153.217469 
L 116.380975 192.649047 
L 116.551546 165.920168 
L 116.636831 185.371212 
L 116.722117 157.887066 
L 116.807402 194.34682 
L 116.892688 153.431738 
L 116.977973 191.551074 
L 117.063259 165.765449 
L 117.148544 172.753511 
L 117.23383 181.00652 
L 117.319115 158.301832 
L 117.404401 201.126507 
L 117.489686 165.80809 
L 117.574972 174.259598 
L 117.660257 183.772063 
L 117.745543 163.43598 
L 117.830829 193.52187 
L 117.916114 160.30842 
L 118.0014 197.436862 
L 118.171971 167.873382 
L 118.257256 199.725515 
L 118.342542 167.958271 
L 118.513113 193.708129 
L 118.598398 173.830017 
L 118.854255 204.331029 
L 119.024826 200.10242 
L 119.621824 212.025236 
L 119.962966 214.715447 
L 120.133537 215.655589 
L 120.304108 195.815217 
L 120.389394 214.215693 
L 120.474679 203.521248 
L 120.559965 216.161702 
L 120.730536 200.044855 
L 120.901107 212.115627 
L 120.986393 209.254485 
L 121.071678 210.940042 
L 121.156964 210.296033 
L 121.242249 194.153332 
L 121.41282 209.630495 
L 121.583391 214.055864 
L 121.668677 210.973199 
L 121.753962 203.677989 
L 121.924533 238.713128 
L 122.095104 213.693235 
L 122.265675 219.505713 
L 122.350961 197.925674 
L 122.436246 216.446451 
L 122.521532 202.452853 
L 122.606817 221.353268 
L 122.692103 202.971048 
L 122.777388 207.492359 
L 122.862674 208.982675 
L 122.947959 205.065809 
L 123.033245 214.173518 
L 123.11853 203.981424 
L 123.203816 223.478992 
L 123.289101 203.678173 
L 123.374387 224.499563 
L 123.459672 204.506383 
L 123.544958 232.419141 
L 123.630243 212.542242 
L 123.800814 230.783692 
L 123.8861 203.245284 
L 124.056671 238.603267 
L 124.141956 208.271201 
L 124.312528 239.050908 
L 124.483099 212.350494 
L 124.65367 238.661487 
L 124.738955 230.821738 
L 124.824241 210.088871 
L 124.909526 235.082947 
L 124.994812 204.083505 
L 125.165383 238.140444 
L 125.250668 237.035216 
L 125.335954 190.280957 
L 125.421239 226.40551 
L 125.506525 226.182228 
L 125.59181 204.49783 
L 125.762381 240.084988 
L 125.847667 239.434142 
L 125.932952 215.245613 
L 126.103523 239.042619 
L 126.188809 238.481643 
L 126.274094 234.091391 
L 126.35938 206.155377 
L 126.529951 238.421799 
L 126.615236 237.834521 
L 126.700522 233.678358 
L 126.785807 203.875496 
L 126.956378 239.636005 
L 127.041664 240.872309 
L 127.126949 240.828995 
L 127.29752 238.249692 
L 127.553377 236.659568 
L 127.638663 208.20376 
L 127.809234 240.08576 
L 127.979805 240.951433 
L 128.235661 238.462932 
L 128.406232 238.411157 
L 128.917945 239.205977 
L 129.003231 239.052029 
L 129.088516 239.267978 
L 129.259087 239.937406 
L 129.344373 240.147564 
L 129.429658 239.903103 
L 129.600229 240.75373 
L 129.7708 240.735933 
L 130.282513 240.984474 
L 131.561796 241.865188 
L 132.073509 241.868184 
L 132.414651 241.716264 
L 132.755793 241.203148 
L 132.926364 240.654327 
L 133.096935 239.35389 
L 133.267506 236.821835 
L 133.352792 236.856426 
L 134.120362 242.699579 
L 134.632075 244.606023 
L 135.058502 245.462335 
L 135.570215 245.971211 
L 136.252499 246.30705 
L 138.214066 246.926032 
L 139.834491 247.581081 
L 141.36963 248.446638 
L 142.648913 249.424605 
L 145.378049 252.036427 
L 145.633906 254.025291 
L 145.804477 255.240906 
L 145.889762 255.046438 
L 146.31619 250.864611 
L 146.486761 252.139439 
L 146.827903 255.473175 
L 146.913189 255.617511 
L 147.08376 253.863489 
L 147.339616 251.752223 
L 147.510187 252.967771 
L 147.936615 256.59639 
L 148.0219 256.756703 
L 148.192471 254.992818 
L 148.448328 252.431344 
L 148.618899 253.555471 
L 149.045326 256.984292 
L 149.130612 257.297921 
L 149.215897 257.266762 
L 149.386468 255.314719 
L 149.557039 253.237124 
L 149.642325 253.186562 
L 149.898181 255.368124 
L 150.239324 257.506928 
L 150.324609 257.741293 
L 150.409895 257.642705 
L 150.580466 255.727696 
L 150.751037 253.885134 
L 150.836322 253.850238 
L 151.603892 258.189706 
L 151.689177 258.116206 
L 151.859748 256.406817 
L 152.115605 254.054024 
L 152.371461 255.905004 
L 152.627318 257.32769 
L 152.797889 257.547069 
L 152.883174 257.372972 
L 152.96846 256.876551 
L 153.053745 255.683254 
L 153.139031 251.523894 
L 153.309602 57.02 
L 153.565459 86.470507 
L 153.906601 272.671564 
L 153.991886 268.854083 
L 154.247743 260.545433 
L 154.418314 260.089894 
L 154.759456 260.394488 
L 155.100598 260.255593 
L 155.527025 259.743359 
L 155.782882 259.278318 
L 155.953453 258.454575 
L 156.294595 255.31236 
L 156.465166 256.248464 
L 156.891594 258.721722 
L 157.318021 259.417176 
L 157.659163 259.459596 
L 158.341447 259.254272 
L 159.023731 259.119819 
L 159.791301 259.183688 
L 161.667582 259.629589 
L 163.032151 260.063685 
L 166.955284 261.68367 
L 170.622561 263.244393 
L 172.839985 263.977923 
L 174.460409 264.52729 
L 176.677833 265.296771 
L 179.236398 266.152151 
L 183.074246 267.376748 
L 187.509093 268.484971 
L 190.238229 269.072218 
L 192.455653 269.783772 
L 193.990792 270.466618 
L 198.340353 272.412492 
L 200.728347 273.204843 
L 202.689914 273.961556 
L 204.395624 274.871126 
L 207.210046 276.382794 
L 207.89233 276.545747 
L 208.489329 276.451601 
L 209.342184 275.953507 
L 210.195039 275.26747 
L 210.706752 274.58936 
L 211.389036 273.234526 
L 212.327177 270.667201 
L 213.777031 266.626456 
L 214.885743 264.312579 
L 215.653312 263.190908 
L 216.165025 262.79038 
L 216.591453 262.657704 
L 217.273737 262.75552 
L 217.956021 263.138759 
L 218.894162 263.701739 
L 219.150018 263.608358 
L 219.661731 263.014427 
L 222.049726 259.790772 
L 222.135011 259.49861 
L 222.390868 255.997503 
L 222.561439 254.200216 
L 222.646724 254.213431 
L 222.902581 255.911823 
L 223.073152 256.657055 
L 223.158437 256.187144 
L 223.67015 250.072529 
L 224.011292 250.854202 
L 224.523006 249.784968 
L 225.20529 250.239471 
L 225.546432 251.217132 
L 225.717003 252.126959 
L 226.14343 255.508023 
L 226.228716 255.344506 
L 226.484572 252.944386 
L 226.569858 253.140729 
L 226.825714 255.667785 
L 227.252142 258.754567 
L 227.593284 259.898226 
L 228.957852 263.150669 
L 232.454558 273.95603 
L 233.904412 276.795257 
L 234.842553 278.266989 
L 235.865979 279.475286 
L 236.97469 280.432477 
L 238.168688 281.168823 
L 239.277399 281.596905 
L 240.471396 281.824947 
L 242.006536 281.860006 
L 243.968103 281.875332 
L 244.650387 282.086967 
L 245.247385 282.565452 
L 246.356097 283.495813 
L 247.208952 283.812858 
L 249.511661 284.300494 
L 255.737503 285.320204 
L 260.513492 286.350715 
L 262.901486 286.513671 
L 266.483478 286.791675 
L 270.236041 287.255227 
L 273.391605 287.286865 
L 275.438457 287.3864 
L 286.525574 288.602964 
L 287.890142 289.069764 
L 289.425281 289.849537 
L 294.030699 292.438694 
L 295.90698 293.109926 
L 298.124403 293.660273 
L 301.450538 294.249882 
L 304.606102 294.649253 
L 306.055956 294.618114 
L 307.164668 294.376285 
L 308.188094 293.888937 
L 308.870378 293.398002 
L 309.97909 292.210042 
L 311.258372 290.23961 
L 312.708226 287.596044 
L 314.92565 283.798534 
L 316.204932 282.071194 
L 317.825357 280.450575 
L 318.678212 280.018342 
L 319.786924 279.721888 
L 320.469208 279.723404 
L 321.066206 279.924575 
L 321.748491 280.413163 
L 322.51606 281.283628 
L 323.454201 282.730878 
L 325.671624 286.783996 
L 326.69505 288.53099 
L 327.974333 290.258973 
L 329.083045 291.397167 
L 330.447613 292.450362 
L 332.153323 293.460778 
L 334.370747 294.519587 
L 337.52631 295.772305 
L 341.193588 296.913737 
L 345.031436 297.840345 
L 349.722139 298.732378 
L 353.986415 299.318638 
L 357.994834 299.90012 
L 361.576825 300.699287 
L 366.182243 301.94718 
L 370.702375 303.315703 
L 372.578656 304.267293 
L 374.79608 305.584497 
L 377.951644 307.380923 
L 380.595495 308.616669 
L 383.15406 309.560602 
L 386.309624 310.442134 
L 389.465188 311.097107 
L 394.070606 311.824517 
L 400.211163 312.545849 
L 409.677855 313.356402 
L 422.811824 314.17798 
L 439.186642 314.90575 
L 461.787303 315.654462 
L 503.833061 316.855703 
L 549.972524 317.863946 
L 576.496318 318.269977 
L 668.434102 319.234835 
L 671.50438 319.259751 
L 671.50438 319.259751 
" clip-path="url(#p0f5092dc77)" style="fill: none; stroke: #1f77b4; stroke-width: 1.5; stroke-linecap: square"/>
   </g>
   <g id="line2d_14">
    <path d="M 57.619256 328.608632 
L 67.682947 328.496603 
L 75.785071 328.259698 
L 77.746637 327.859183 
L 77.917208 327.826062 
L 78.343636 327.63364 
L 78.514207 327.564023 
L 79.02592 327.221114 
L 79.196491 327.119759 
L 79.622919 326.768268 
L 79.79349 326.63097 
L 80.219917 326.196423 
L 80.390488 326.024631 
L 81.413914 324.717785 
L 81.584485 324.483021 
L 82.607912 322.801998 
L 82.778483 322.654349 
L 83.290196 321.702196 
L 83.460767 321.399067 
L 84.484193 319.381732 
L 84.740049 318.832475 
L 85.67819 316.907095 
L 86.189903 315.951004 
L 86.275189 315.78742 
L 86.44576 316.431046 
L 87.128044 314.180516 
L 87.980899 312.006698 
L 88.748469 310.610348 
L 89.516038 309.635951 
L 89.942466 309.244702 
L 90.113037 311.784896 
L 90.539464 310.148148 
L 90.710035 311.703601 
L 91.221748 308.092247 
L 91.392319 308.752458 
L 91.818747 304.456892 
L 91.904033 304.48845 
L 91.989318 304.302758 
L 92.501031 298.577039 
L 92.586317 298.061599 
L 93.09803 291.221518 
L 93.268601 288.964285 
L 94.292027 273.507986 
L 94.547883 270.13285 
L 95.57131 254.836725 
L 96.338879 243.73841 
L 97.27702 231.068067 
L 98.471017 217.708041 
L 99.579729 207.614365 
L 100.432584 201.364319 
L 100.773726 199.304871 
L 101.626581 194.14246 
L 101.797152 193.664109 
L 102.22358 190.561126 
L 102.308865 190.609239 
L 102.394151 190.483987 
L 102.820578 186.60089 
L 102.991149 187.521411 
L 103.673433 178.885514 
L 104.355717 172.236573 
L 105.038002 167.220821 
L 105.720286 163.542212 
L 106.40257 160.965106 
L 106.999568 159.479641 
L 107.511281 158.692477 
L 107.937709 158.370968 
L 108.364137 158.295007 
L 108.87585 158.489701 
L 109.387563 158.938749 
L 110.069847 159.856961 
L 110.922702 161.39704 
L 112.201985 164.262518 
L 113.822409 168.458469 
L 116.892688 177.103539 
L 121.071678 188.686413 
L 126.35938 202.152043 
L 130.794227 212.41017 
L 134.461504 219.937156 
L 148.363042 245.113496 
L 150.154038 247.988359 
L 153.394888 252.877767 
L 158.682589 259.967885 
L 165.334859 267.881142 
L 169.599135 272.22975 
L 176.592547 278.733172 
L 181.027394 282.469838 
L 185.973954 285.896452 
L 189.214803 287.988289 
L 205.419051 298.11447 
L 205.674907 298.989244 
L 206.016049 299.06781 
L 206.18662 299.725714 
L 206.271906 299.671846 
L 206.613048 299.527828 
L 206.783619 299.967355 
L 207.210046 299.460501 
L 207.380617 299.696553 
L 207.89233 298.769359 
L 208.062901 298.841999 
L 208.489329 297.850312 
L 208.6599 297.779877 
L 209.171613 296.543687 
L 209.342184 296.148024 
L 210.280325 293.553168 
L 210.536181 292.942475 
L 211.389036 290.536247 
L 212.668319 287.239548 
L 213.777031 284.767373 
L 214.629886 283.191879 
L 215.397456 282.07398 
L 215.909169 281.466836 
L 215.994454 281.432424 
L 216.420882 280.75682 
L 216.591453 280.807972 
L 217.103166 279.797596 
L 217.273737 280.088896 
L 217.700164 278.844064 
L 217.870735 279.737651 
L 218.297163 277.554688 
L 218.467734 280.134046 
L 219.150018 273.417437 
L 219.917588 267.689238 
L 220.685157 263.494131 
L 221.452727 260.480699 
L 222.220297 258.365748 
L 222.902581 257.100894 
L 223.499579 256.417658 
L 224.096578 256.045957 
L 224.693577 255.92217 
L 225.375861 256.019407 
L 226.14343 256.362508 
L 227.081571 257.027849 
L 228.360854 258.22836 
L 230.237135 260.336627 
L 238.168688 269.635656 
L 241.92125 273.168665 
L 247.038381 277.593604 
L 258.46664 286.067978 
L 262.816201 288.765949 
L 267.080477 291.312179 
L 275.353171 295.284169 
L 281.664299 297.915342 
L 283.540581 298.693114 
L 286.610859 300.244127 
L 294.712983 304.402069 
L 300.341827 306.997723 
L 304.520817 308.676189 
L 306.226527 309.120192 
L 306.397098 309.182225 
L 306.823526 309.222617 
L 306.994097 309.248428 
L 307.420524 309.203342 
L 307.591095 309.191745 
L 308.017523 309.059164 
L 308.188094 309.010242 
L 308.614522 308.790943 
L 308.785093 308.70568 
L 309.296806 308.335527 
L 309.467377 308.222723 
L 309.893804 307.85607 
L 310.064375 307.710138 
L 310.490803 307.267478 
L 310.661374 307.090663 
L 311.087801 306.577371 
L 311.258372 306.372057 
L 312.281799 304.841108 
L 312.45237 304.73068 
L 312.964083 303.871834 
L 313.219939 303.439195 
L 314.15808 301.917315 
L 314.669793 301.105208 
L 314.840364 301.807416 
L 315.437363 300.025134 
L 316.375503 297.919845 
L 317.143073 296.76339 
L 317.910642 296.011356 
L 318.678212 295.538762 
L 319.531067 295.263315 
L 320.469208 295.186521 
L 321.57792 295.30292 
L 323.454201 295.832659 
L 325.159911 296.502747 
L 327.718476 297.772094 
L 342.814012 305.764384 
L 348.016429 308.090503 
L 353.389416 310.248386 
L 359.01826 312.2674 
L 364.90296 314.141674 
L 371.128803 315.891249 
L 377.781073 317.527524 
L 384.85977 319.038123 
L 392.450181 320.42988 
L 400.722876 321.71726 
L 409.677855 322.883426 
L 419.570974 323.943729 
L 430.572805 324.893911 
L 442.939205 325.732949 
L 457.011314 326.459723 
L 473.471419 327.080292 
L 493.172372 327.592217 
L 517.649314 327.996355 
L 549.972524 328.295177 
L 597.220698 328.490937 
L 671.50438 328.583572 
L 671.50438 328.583572 
" clip-path="url(#p0f5092dc77)" style="fill: none; stroke: #ff7f0e; stroke-width: 1.5; stroke-linecap: square"/>
   </g>
   <g id="patch_3">
    <path d="M 26.925 342.2 
L 26.925 43.44 
" style="fill: none; stroke: #000000; stroke-width: 0.8; stroke-linejoin: miter; stroke-linecap: square"/>
   </g>
   <g id="patch_4">
    <path d="M 702.198636 342.2 
L 702.198636 43.44 
" style="fill: none; stroke: #000000; stroke-width: 0.8; stroke-linejoin: miter; stroke-linecap: square"/>
   </g>
   <g id="patch_5">
    <path d="M 26.925 342.2 
L 702.198636 342.2 
" style="fill: none; stroke: #000000; stroke-width: 0.8; stroke-linejoin: miter; stroke-linecap: square"/>
   </g>
   <g id="patch_6">
    <path d="M 26.925 43.44 
L 702.198636 43.44 
" style="fill: none; stroke: #000000; stroke-width: 0.8; stroke-linejoin: miter; stroke-linecap: square"/>
   </g>
   <g id="text_13">
    <!-- 1 transformation(s) -->
    <g transform="translate(306.447131 37.44) scale(0.12 -0.12)">
     <defs>
      <path id="DejaVuSans-20" transform="scale(0.015625)"/>
      <path id="DejaVuSans-74" d="M 1172 4494 
L 1172 3500 
L 2356 3500 
L 2356 3053 
L 1172 3053 
L 1172 1153 
Q 1172 725 1289 603 
Q 1406 481 1766 481 
L 2356 481 
L 2356 0 
L 1766 0 
Q 1100 0 847 248 
Q 594 497 594 1153 
L 594 3053 
L 172 3053 
L 172 3500 
L 594 3500 
L 594 4494 
L 1172 4494 
z
" transform="scale(0.015625)"/>
      <path id="DejaVuSans-72" d="M 2631 2963 
Q 2534 3019 2420 3045 
Q 2306 3072 2169 3072 
Q 1681 3072 1420 2755 
Q 1159 2438 1159 1844 
L 1159 0 
L 581 0 
L 581 3500 
L 1159 3500 
L 1159 2956 
Q 1341 3275 1631 3429 
Q 1922 3584 2338 3584 
Q 2397 3584 2469 3576 
Q 2541 3569 2628 3553 
L 2631 2963 
z
" transform="scale(0.015625)"/>
      <path id="DejaVuSans-61" d="M 2194 1759 
Q 1497 1759 1228 1600 
Q 959 1441 959 1056 
Q 959 750 1161 570 
Q 1363 391 1709 391 
Q 2188 391 2477 730 
Q 2766 1069 2766 1631 
L 2766 1759 
L 2194 1759 
z
M 3341 1997 
L 3341 0 
L 2766 0 
L 2766 531 
Q 2569 213 2275 61 
Q 1981 -91 1556 -91 
Q 1019 -91 701 211 
Q 384 513 384 1019 
Q 384 1609 779 1909 
Q 1175 2209 1959 2209 
L 2766 2209 
L 2766 2266 
Q 2766 2663 2505 2880 
Q 2244 3097 1772 3097 
Q 1472 3097 1187 3025 
Q 903 2953 641 2809 
L 641 3341 
Q 956 3463 1253 3523 
Q 1550 3584 1831 3584 
Q 2591 3584 2966 3190 
Q 3341 2797 3341 1997 
z
" transform="scale(0.015625)"/>
      <path id="DejaVuSans-6e" d="M 3513 2113 
L 3513 0 
L 2938 0 
L 2938 2094 
Q 2938 2591 2744 2837 
Q 2550 3084 2163 3084 
Q 1697 3084 1428 2787 
Q 1159 2491 1159 1978 
L 1159 0 
L 581 0 
L 581 3500 
L 1159 3500 
L 1159 2956 
Q 1366 3272 1645 3428 
Q 1925 3584 2291 3584 
Q 2894 3584 3203 3211 
Q 3513 2838 3513 2113 
z
" transform="scale(0.015625)"/>
      <path id="DejaVuSans-73" d="M 2834 3397 
L 2834 2853 
Q 2591 2978 2328 3040 
Q 2066 3103 1784 3103 
Q 1356 3103 1142 2972 
Q 928 2841 928 2578 
Q 928 2378 1081 2264 
Q 1234 2150 1697 2047 
L 1894 2003 
Q 2506 1872 2764 1633 
Q 3022 1394 3022 966 
Q 3022 478 2636 193 
Q 2250 -91 1575 -91 
Q 1294 -91 989 -36 
Q 684 19 347 128 
L 347 722 
Q 666 556 975 473 
Q 1284 391 1588 391 
Q 1994 391 2212 530 
Q 2431 669 2431 922 
Q 2431 1156 2273 1281 
Q 2116 1406 1581 1522 
L 1381 1569 
Q 847 1681 609 1914 
Q 372 2147 372 2553 
Q 372 3047 722 3315 
Q 1072 3584 1716 3584 
Q 2034 3584 2315 3537 
Q 2597 3491 2834 3397 
z
" transform="scale(0.015625)"/>
      <path id="DejaVuSans-66" d="M 2375 4863 
L 2375 4384 
L 1825 4384 
Q 1516 4384 1395 4259 
Q 1275 4134 1275 3809 
L 1275 3500 
L 2222 3500 
L 2222 3053 
L 1275 3053 
L 1275 0 
L 697 0 
L 697 3053 
L 147 3053 
L 147 3500 
L 697 3500 
L 697 3744 
Q 697 4328 969 4595 
Q 1241 4863 1831 4863 
L 2375 4863 
z
" transform="scale(0.015625)"/>
      <path id="DejaVuSans-6f" d="M 1959 3097 
Q 1497 3097 1228 2736 
Q 959 2375 959 1747 
Q 959 1119 1226 758 
Q 1494 397 1959 397 
Q 2419 397 2687 759 
Q 2956 1122 2956 1747 
Q 2956 2369 2687 2733 
Q 2419 3097 1959 3097 
z
M 1959 3584 
Q 2709 3584 3137 3096 
Q 3566 2609 3566 1747 
Q 3566 888 3137 398 
Q 2709 -91 1959 -91 
Q 1206 -91 779 398 
Q 353 888 353 1747 
Q 353 2609 779 3096 
Q 1206 3584 1959 3584 
z
" transform="scale(0.015625)"/>
      <path id="DejaVuSans-6d" d="M 3328 2828 
Q 3544 3216 3844 3400 
Q 4144 3584 4550 3584 
Q 5097 3584 5394 3201 
Q 5691 2819 5691 2113 
L 5691 0 
L 5113 0 
L 5113 2094 
Q 5113 2597 4934 2840 
Q 4756 3084 4391 3084 
Q 3944 3084 3684 2787 
Q 3425 2491 3425 1978 
L 3425 0 
L 2847 0 
L 2847 2094 
Q 2847 2600 2669 2842 
Q 2491 3084 2119 3084 
Q 1678 3084 1418 2786 
Q 1159 2488 1159 1978 
L 1159 0 
L 581 0 
L 581 3500 
L 1159 3500 
L 1159 2956 
Q 1356 3278 1631 3431 
Q 1906 3584 2284 3584 
Q 2666 3584 2933 3390 
Q 3200 3197 3328 2828 
z
" transform="scale(0.015625)"/>
      <path id="DejaVuSans-69" d="M 603 3500 
L 1178 3500 
L 1178 0 
L 603 0 
L 603 3500 
z
M 603 4863 
L 1178 4863 
L 1178 4134 
L 603 4134 
L 603 4863 
z
" transform="scale(0.015625)"/>
      <path id="DejaVuSans-28" d="M 1984 4856 
Q 1566 4138 1362 3434 
Q 1159 2731 1159 2009 
Q 1159 1288 1364 580 
Q 1569 -128 1984 -844 
L 1484 -844 
Q 1016 -109 783 600 
Q 550 1309 550 2009 
Q 550 2706 781 3412 
Q 1013 4119 1484 4856 
L 1984 4856 
z
" transform="scale(0.015625)"/>
      <path id="DejaVuSans-29" d="M 513 4856 
L 1013 4856 
Q 1481 4119 1714 3412 
Q 1947 2706 1947 2009 
Q 1947 1309 1714 600 
Q 1481 -109 1013 -844 
L 513 -844 
Q 928 -128 1133 580 
Q 1338 1288 1338 2009 
Q 1338 2731 1133 3434 
Q 928 4138 513 4856 
z
" transform="scale(0.015625)"/>
     </defs>
     <use xlink:href="#DejaVuSans-31"/>
     <use xlink:href="#DejaVuSans-20" x="63.623047"/>
     <use xlink:href="#DejaVuSans-74" x="95.410156"/>
     <use xlink:href="#DejaVuSans-72" x="134.619141"/>
     <use xlink:href="#DejaVuSans-61" x="175.732422"/>
     <use xlink:href="#DejaVuSans-6e" x="237.011719"/>
     <use xlink:href="#DejaVuSans-73" x="300.390625"/>
     <use xlink:href="#DejaVuSans-66" x="352.490234"/>
     <use xlink:href="#DejaVuSans-6f" x="387.695312"/>
     <use xlink:href="#DejaVuSans-72" x="448.876953"/>
     <use xlink:href="#DejaVuSans-6d" x="488.240234"/>
     <use xlink:href="#DejaVuSans-61" x="585.652344"/>
     <use xlink:href="#DejaVuSans-74" x="646.931641"/>
     <use xlink:href="#DejaVuSans-69" x="686.140625"/>
     <use xlink:href="#DejaVuSans-6f" x="713.923828"/>
     <use xlink:href="#DejaVuSans-6e" x="775.105469"/>
     <use xlink:href="#DejaVuSans-28" x="838.484375"/>
     <use xlink:href="#DejaVuSans-73" x="877.498047"/>
     <use xlink:href="#DejaVuSans-29" x="929.597656"/>
    </g>
   </g>
   <g id="legend_1">
    <g id="patch_7">
     <path d="M 613.804886 80.79625 
L 695.198636 80.79625 
Q 697.198636 80.79625 697.198636 78.79625 
L 697.198636 50.44 
Q 697.198636 48.44 695.198636 48.44 
L 613.804886 48.44 
Q 611.804886 48.44 611.804886 50.44 
L 611.804886 78.79625 
Q 611.804886 80.79625 613.804886 80.79625 
z
" style="fill: #ffffff; opacity: 0.8; stroke: #cccccc; stroke-linejoin: miter"/>
    </g>
    <g id="line2d_15">
     <path d="M 615.804886 56.538437 
L 625.804886 56.538437 
L 635.804886 56.538437 
" style="fill: none; stroke: #1f77b4; stroke-width: 1.5; stroke-linecap: square"/>
    </g>
    <g id="text_14">
     <!-- observed -->
     <g transform="translate(643.804886 60.038437) scale(0.1 -0.1)">
      <defs>
       <path id="DejaVuSans-62" d="M 3116 1747 
Q 3116 2381 2855 2742 
Q 2594 3103 2138 3103 
Q 1681 3103 1420 2742 
Q 1159 2381 1159 1747 
Q 1159 1113 1420 752 
Q 1681 391 2138 391 
Q 2594 391 2855 752 
Q 3116 1113 3116 1747 
z
M 1159 2969 
Q 1341 3281 1617 3432 
Q 1894 3584 2278 3584 
Q 2916 3584 3314 3078 
Q 3713 2572 3713 1747 
Q 3713 922 3314 415 
Q 2916 -91 2278 -91 
Q 1894 -91 1617 61 
Q 1341 213 1159 525 
L 1159 0 
L 581 0 
L 581 4863 
L 1159 4863 
L 1159 2969 
z
" transform="scale(0.015625)"/>
       <path id="DejaVuSans-65" d="M 3597 1894 
L 3597 1613 
L 953 1613 
Q 991 1019 1311 708 
Q 1631 397 2203 397 
Q 2534 397 2845 478 
Q 3156 559 3463 722 
L 3463 178 
Q 3153 47 2828 -22 
Q 2503 -91 2169 -91 
Q 1331 -91 842 396 
Q 353 884 353 1716 
Q 353 2575 817 3079 
Q 1281 3584 2069 3584 
Q 2775 3584 3186 3129 
Q 3597 2675 3597 1894 
z
M 3022 2063 
Q 3016 2534 2758 2815 
Q 2500 3097 2075 3097 
Q 1594 3097 1305 2825 
Q 1016 2553 972 2059 
L 3022 2063 
z
" transform="scale(0.015625)"/>
       <path id="DejaVuSans-76" d="M 191 3500 
L 800 3500 
L 1894 563 
L 2988 3500 
L 3597 3500 
L 2284 0 
L 1503 0 
L 191 3500 
z
" transform="scale(0.015625)"/>
       <path id="DejaVuSans-64" d="M 2906 2969 
L 2906 4863 
L 3481 4863 
L 3481 0 
L 2906 0 
L 2906 525 
Q 2725 213 2448 61 
Q 2172 -91 1784 -91 
Q 1150 -91 751 415 
Q 353 922 353 1747 
Q 353 2572 751 3078 
Q 1150 3584 1784 3584 
Q 2172 3584 2448 3432 
Q 2725 3281 2906 2969 
z
M 947 1747 
Q 947 1113 1208 752 
Q 1469 391 1925 391 
Q 2381 391 2643 752 
Q 2906 1113 2906 1747 
Q 2906 2381 2643 2742 
Q 2381 3103 1925 3103 
Q 1469 3103 1208 2742 
Q 947 2381 947 1747 
z
" transform="scale(0.015625)"/>
      </defs>
      <use xlink:href="#DejaVuSans-6f"/>
      <use xlink:href="#DejaVuSans-62" x="61.181641"/>
      <use xlink:href="#DejaVuSans-73" x="124.658203"/>
      <use xlink:href="#DejaVuSans-65" x="176.757812"/>
      <use xlink:href="#DejaVuSans-72" x="238.28125"/>
      <use xlink:href="#DejaVuSans-76" x="279.394531"/>
      <use xlink:href="#DejaVuSans-65" x="338.574219"/>
      <use xlink:href="#DejaVuSans-64" x="400.097656"/>
     </g>
    </g>
    <g id="line2d_16">
     <path d="M 615.804886 71.216563 
L 625.804886 71.216563 
L 635.804886 71.216563 
" style="fill: none; stroke: #ff7f0e; stroke-width: 1.5; stroke-linecap: square"/>
    </g>
    <g id="text_15">
     <!-- simulated -->
     <g transform="translate(643.804886 74.716563) scale(0.1 -0.1)">
      <defs>
       <path id="DejaVuSans-75" d="M 544 1381 
L 544 3500 
L 1119 3500 
L 1119 1403 
Q 1119 906 1312 657 
Q 1506 409 1894 409 
Q 2359 409 2629 706 
Q 2900 1003 2900 1516 
L 2900 3500 
L 3475 3500 
L 3475 0 
L 2900 0 
L 2900 538 
Q 2691 219 2414 64 
Q 2138 -91 1772 -91 
Q 1169 -91 856 284 
Q 544 659 544 1381 
z
M 1991 3584 
L 1991 3584 
z
" transform="scale(0.015625)"/>
       <path id="DejaVuSans-6c" d="M 603 4863 
L 1178 4863 
L 1178 0 
L 603 0 
L 603 4863 
z
" transform="scale(0.015625)"/>
      </defs>
      <use xlink:href="#DejaVuSans-73"/>
      <use xlink:href="#DejaVuSans-69" x="52.099609"/>
      <use xlink:href="#DejaVuSans-6d" x="79.882812"/>
      <use xlink:href="#DejaVuSans-75" x="177.294922"/>
      <use xlink:href="#DejaVuSans-6c" x="240.673828"/>
      <use xlink:href="#DejaVuSans-61" x="268.457031"/>
      <use xlink:href="#DejaVuSans-74" x="329.736328"/>
      <use xlink:href="#DejaVuSans-65" x="368.945312"/>
      <use xlink:href="#DejaVuSans-64" x="430.46875"/>
     </g>
    </g>
   </g>
  </g>
  <g id="axes_2">
   <g id="patch_8">
    <path d="M 26.925 684.92 
L 702.198636 684.92 
L 702.198636 386.16 
L 26.925 386.16 
z
" style="fill: #ffffff"/>
   </g>
   <g id="matplotlib.axis_3">
    <g id="xtick_7">
     <g id="line2d_17">
      <g>
       <use xlink:href="#m48fbdc04d9" x="57.448685" y="684.92" style="stroke: #000000; stroke-width: 0.8"/>
      </g>
     </g>
     <g id="text_16">
      <!-- 2014-07-01 -->
      <g transform="translate(28.390873 699.518437) scale(0.1 -0.1)">
       <use xlink:href="#DejaVuSans-32"/>
       <use xlink:href="#DejaVuSans-30" x="63.623047"/>
       <use xlink:href="#DejaVuSans-31" x="127.246094"/>
       <use xlink:href="#DejaVuSans-34" x="190.869141"/>
       <use xlink:href="#DejaVuSans-2d" x="254.492188"/>
       <use xlink:href="#DejaVuSans-30" x="290.576172"/>
       <use xlink:href="#DejaVuSans-37" x="354.199219"/>
       <use xlink:href="#DejaVuSans-2d" x="417.822266"/>
       <use xlink:href="#DejaVuSans-30" x="453.90625"/>
       <use xlink:href="#DejaVuSans-31" x="517.529297"/>
      </g>
     </g>
    </g>
    <g id="xtick_8">
     <g id="line2d_18">
      <g>
       <use xlink:href="#m48fbdc04d9" x="180.259824" y="684.92" style="stroke: #000000; stroke-width: 0.8"/>
      </g>
     </g>
     <g id="text_17">
      <!-- 2014-07-02 -->
      <g transform="translate(151.202012 699.518437) scale(0.1 -0.1)">
       <use xlink:href="#DejaVuSans-32"/>
       <use xlink:href="#DejaVuSans-30" x="63.623047"/>
       <use xlink:href="#DejaVuSans-31" x="127.246094"/>
       <use xlink:href="#DejaVuSans-34" x="190.869141"/>
       <use xlink:href="#DejaVuSans-2d" x="254.492188"/>
       <use xlink:href="#DejaVuSans-30" x="290.576172"/>
       <use xlink:href="#DejaVuSans-37" x="354.199219"/>
       <use xlink:href="#DejaVuSans-2d" x="417.822266"/>
       <use xlink:href="#DejaVuSans-30" x="453.90625"/>
       <use xlink:href="#DejaVuSans-32" x="517.529297"/>
      </g>
     </g>
    </g>
    <g id="xtick_9">
     <g id="line2d_19">
      <g>
       <use xlink:href="#m48fbdc04d9" x="303.070963" y="684.92" style="stroke: #000000; stroke-width: 0.8"/>
      </g>
     </g>
     <g id="text_18">
      <!-- 2014-07-03 -->
      <g transform="translate(274.013151 699.518437) scale(0.1 -0.1)">
       <use xlink:href="#DejaVuSans-32"/>
       <use xlink:href="#DejaVuSans-30" x="63.623047"/>
       <use xlink:href="#DejaVuSans-31" x="127.246094"/>
       <use xlink:href="#DejaVuSans-34" x="190.869141"/>
       <use xlink:href="#DejaVuSans-2d" x="254.492188"/>
       <use xlink:href="#DejaVuSans-30" x="290.576172"/>
       <use xlink:href="#DejaVuSans-37" x="354.199219"/>
       <use xlink:href="#DejaVuSans-2d" x="417.822266"/>
       <use xlink:href="#DejaVuSans-30" x="453.90625"/>
       <use xlink:href="#DejaVuSans-33" x="517.529297"/>
      </g>
     </g>
    </g>
    <g id="xtick_10">
     <g id="line2d_20">
      <g>
       <use xlink:href="#m48fbdc04d9" x="425.882102" y="684.92" style="stroke: #000000; stroke-width: 0.8"/>
      </g>
     </g>
     <g id="text_19">
      <!-- 2014-07-04 -->
      <g transform="translate(396.82429 699.518437) scale(0.1 -0.1)">
       <use xlink:href="#DejaVuSans-32"/>
       <use xlink:href="#DejaVuSans-30" x="63.623047"/>
       <use xlink:href="#DejaVuSans-31" x="127.246094"/>
       <use xlink:href="#DejaVuSans-34" x="190.869141"/>
       <use xlink:href="#DejaVuSans-2d" x="254.492188"/>
       <use xlink:href="#DejaVuSans-30" x="290.576172"/>
       <use xlink:href="#DejaVuSans-37" x="354.199219"/>
       <use xlink:href="#DejaVuSans-2d" x="417.822266"/>
       <use xlink:href="#DejaVuSans-30" x="453.90625"/>
       <use xlink:href="#DejaVuSans-34" x="517.529297"/>
      </g>
     </g>
    </g>
    <g id="xtick_11">
     <g id="line2d_21">
      <g>
       <use xlink:href="#m48fbdc04d9" x="548.693241" y="684.92" style="stroke: #000000; stroke-width: 0.8"/>
      </g>
     </g>
     <g id="text_20">
      <!-- 2014-07-05 -->
      <g transform="translate(519.635429 699.518437) scale(0.1 -0.1)">
       <use xlink:href="#DejaVuSans-32"/>
       <use xlink:href="#DejaVuSans-30" x="63.623047"/>
       <use xlink:href="#DejaVuSans-31" x="127.246094"/>
       <use xlink:href="#DejaVuSans-34" x="190.869141"/>
       <use xlink:href="#DejaVuSans-2d" x="254.492188"/>
       <use xlink:href="#DejaVuSans-30" x="290.576172"/>
       <use xlink:href="#DejaVuSans-37" x="354.199219"/>
       <use xlink:href="#DejaVuSans-2d" x="417.822266"/>
       <use xlink:href="#DejaVuSans-30" x="453.90625"/>
       <use xlink:href="#DejaVuSans-35" x="517.529297"/>
      </g>
     </g>
    </g>
    <g id="xtick_12">
     <g id="line2d_22">
      <g>
       <use xlink:href="#m48fbdc04d9" x="671.50438" y="684.92" style="stroke: #000000; stroke-width: 0.8"/>
      </g>
     </g>
     <g id="text_21">
      <!-- 2014-07-06 -->
      <g transform="translate(642.446568 699.518437) scale(0.1 -0.1)">
       <use xlink:href="#DejaVuSans-32"/>
       <use xlink:href="#DejaVuSans-30" x="63.623047"/>
       <use xlink:href="#DejaVuSans-31" x="127.246094"/>
       <use xlink:href="#DejaVuSans-34" x="190.869141"/>
       <use xlink:href="#DejaVuSans-2d" x="254.492188"/>
       <use xlink:href="#DejaVuSans-30" x="290.576172"/>
       <use xlink:href="#DejaVuSans-37" x="354.199219"/>
       <use xlink:href="#DejaVuSans-2d" x="417.822266"/>
       <use xlink:href="#DejaVuSans-30" x="453.90625"/>
       <use xlink:href="#DejaVuSans-36" x="517.529297"/>
      </g>
     </g>
    </g>
   </g>
   <g id="matplotlib.axis_4">
    <g id="ytick_7">
     <g id="line2d_23">
      <g>
       <use xlink:href="#md961170253" x="26.925" y="671.250131" style="stroke: #000000; stroke-width: 0.8"/>
      </g>
     </g>
     <g id="text_22">
      <!-- 0 -->
      <g transform="translate(13.5625 675.04935) scale(0.1 -0.1)">
       <use xlink:href="#DejaVuSans-30"/>
      </g>
     </g>
    </g>
    <g id="ytick_8">
     <g id="line2d_24">
      <g>
       <use xlink:href="#md961170253" x="26.925" y="619.871928" style="stroke: #000000; stroke-width: 0.8"/>
      </g>
     </g>
     <g id="text_23">
      <!-- 2 -->
      <g transform="translate(13.5625 623.671146) scale(0.1 -0.1)">
       <use xlink:href="#DejaVuSans-32"/>
      </g>
     </g>
    </g>
    <g id="ytick_9">
     <g id="line2d_25">
      <g>
       <use xlink:href="#md961170253" x="26.925" y="568.493724" style="stroke: #000000; stroke-width: 0.8"/>
      </g>
     </g>
     <g id="text_24">
      <!-- 4 -->
      <g transform="translate(13.5625 572.292943) scale(0.1 -0.1)">
       <use xlink:href="#DejaVuSans-34"/>
      </g>
     </g>
    </g>
    <g id="ytick_10">
     <g id="line2d_26">
      <g>
       <use xlink:href="#md961170253" x="26.925" y="517.115521" style="stroke: #000000; stroke-width: 0.8"/>
      </g>
     </g>
     <g id="text_25">
      <!-- 6 -->
      <g transform="translate(13.5625 520.91474) scale(0.1 -0.1)">
       <use xlink:href="#DejaVuSans-36"/>
      </g>
     </g>
    </g>
    <g id="ytick_11">
     <g id="line2d_27">
      <g>
       <use xlink:href="#md961170253" x="26.925" y="465.737317" style="stroke: #000000; stroke-width: 0.8"/>
      </g>
     </g>
     <g id="text_26">
      <!-- 8 -->
      <g transform="translate(13.5625 469.536536) scale(0.1 -0.1)">
       <use xlink:href="#DejaVuSans-38"/>
      </g>
     </g>
    </g>
    <g id="ytick_12">
     <g id="line2d_28">
      <g>
       <use xlink:href="#md961170253" x="26.925" y="414.359114" style="stroke: #000000; stroke-width: 0.8"/>
      </g>
     </g>
     <g id="text_27">
      <!-- 10 -->
      <g transform="translate(7.2 418.158333) scale(0.1 -0.1)">
       <use xlink:href="#DejaVuSans-31"/>
       <use xlink:href="#DejaVuSans-30" x="63.623047"/>
      </g>
     </g>
    </g>
   </g>
   <g id="line2d_29">
    <path d="M 57.619256 671.249082 
L 58.216255 671.151734 
L 58.727968 670.817464 
L 60.177822 669.622713 
L 61.371819 669.042981 
L 63.077529 668.510567 
L 65.039096 668.171742 
L 67.938803 667.911594 
L 72.288364 667.764628 
L 83.20491 667.483373 
L 83.546052 667.175233 
L 83.97248 666.522127 
L 84.995906 664.208386 
L 86.275189 660.429322 
L 86.786902 657.889284 
L 88.492612 648.891669 
L 89.516038 645.13881 
L 90.283608 643.126872 
L 91.051177 641.108247 
L 91.648176 638.851463 
L 91.904033 637.573388 
L 92.415746 633.289474 
L 92.842173 628.344824 
L 94.377312 608.204231 
L 94.547883 604.234174 
L 95.059596 590.924662 
L 95.827166 581.986777 
L 96.338879 576.041981 
L 96.424165 574.553683 
L 96.50945 574.82343 
L 96.765307 582.971785 
L 96.850592 572.422604 
L 96.935878 547.836529 
L 97.021163 552.971686 
L 97.106449 552.968146 
L 97.191734 541.866481 
L 97.27702 551.883941 
L 97.362305 538.538556 
L 97.532876 546.332361 
L 97.703447 547.091733 
L 97.788733 547.001846 
L 97.959304 546.135732 
L 98.385732 543.237582 
L 98.98273 540.189877 
L 99.153301 540.040457 
L 99.323872 538.257454 
L 99.579729 533.469914 
L 99.7503 523.227626 
L 100.006156 521.049993 
L 100.262013 519.805858 
L 100.432584 525.267857 
L 100.517869 523.724712 
L 100.603155 516.642947 
L 100.68844 518.566011 
L 100.773726 534.818574 
L 100.859011 516.045636 
L 100.944297 516.349277 
L 101.029582 540.077549 
L 101.114868 506.859612 
L 101.285439 529.213476 
L 101.370724 494.656654 
L 101.45601 532.924725 
L 101.541295 487.872344 
L 101.626581 527.5239 
L 101.797152 499.491098 
L 101.882438 518.081849 
L 101.967723 482.61414 
L 102.053009 531.094696 
L 102.138294 474.214719 
L 102.22358 511.286257 
L 102.394151 487.367296 
L 102.479436 525.642276 
L 102.564722 469.201138 
L 102.650007 512.93307 
L 102.820578 479.704573 
L 102.905864 524.381592 
L 102.991149 467.452238 
L 103.076435 514.417956 
L 103.247006 481.210774 
L 103.332291 522.422588 
L 103.417577 467.624601 
L 103.502862 512.492798 
L 103.673433 481.971212 
L 103.758719 523.81662 
L 103.844004 465.883773 
L 103.92929 508.195507 
L 104.014575 501.238148 
L 104.099861 477.666523 
L 104.185146 523.214103 
L 104.270432 472.313251 
L 104.355717 507.568724 
L 104.441003 499.936429 
L 104.526288 484.378941 
L 104.611574 518.976713 
L 104.696859 477.700491 
L 104.782145 517.705862 
L 104.867431 489.464328 
L 104.952716 495.821889 
L 105.038002 508.740133 
L 105.123287 479.071775 
L 105.208573 518.257004 
L 105.293858 476.82345 
L 105.379144 514.08096 
L 105.464429 493.48914 
L 105.549715 497.823203 
L 105.635 512.181268 
L 105.720286 477.915445 
L 105.805571 519.221556 
L 105.890857 483.290902 
L 105.976142 506.141386 
L 106.146713 485.250139 
L 106.231999 516.189065 
L 106.317284 475.741107 
L 106.40257 519.496803 
L 106.487855 482.741364 
L 106.658426 505.078176 
L 106.743712 473.875897 
L 106.828997 522.451668 
L 106.914283 464.966284 
L 106.999568 509.419528 
L 107.084854 507.495104 
L 107.170139 480.530926 
L 107.255425 520.563797 
L 107.34071 467.507152 
L 107.425996 508.913966 
L 107.511281 505.545949 
L 107.596567 477.161292 
L 107.681852 523.154092 
L 107.767138 472.613572 
L 107.852423 505.548203 
L 107.937709 503.797955 
L 108.022994 473.050451 
L 108.10828 524.192582 
L 108.193566 472.386221 
L 108.278851 508.443119 
L 108.364137 504.649615 
L 108.449422 486.673337 
L 108.534708 526.075345 
L 108.619993 468.330259 
L 108.705279 514.04796 
L 108.87585 482.710458 
L 108.961135 525.318092 
L 109.046421 470.391081 
L 109.131706 515.047214 
L 109.302277 473.93358 
L 109.387563 521.138116 
L 109.472848 466.855539 
L 109.558134 516.977665 
L 109.643419 485.437568 
L 109.728705 485.988392 
L 109.81399 518.38108 
L 109.899276 466.286794 
L 109.984561 518.991584 
L 110.069847 484.568894 
L 110.240418 516.522632 
L 110.325703 465.644001 
L 110.410989 522.347351 
L 110.496274 478.352974 
L 110.58156 489.372506 
L 110.666845 519.976139 
L 110.752131 469.40557 
L 110.837416 519.757362 
L 110.922702 471.816472 
L 111.093273 506.861988 
L 111.178558 476.551364 
L 111.263844 523.799458 
L 111.34913 466.235126 
L 111.434415 512.908105 
L 111.519701 485.291285 
L 111.604986 488.766718 
L 111.690272 508.993563 
L 111.775557 468.140183 
L 111.860843 518.389948 
L 111.946128 478.499809 
L 112.116699 510.644566 
L 112.201985 470.028103 
L 112.28727 524.351262 
L 112.372556 477.786568 
L 112.543127 521.971401 
L 112.628412 473.588965 
L 112.713698 526.038094 
L 112.798983 482.758023 
L 112.969554 515.153969 
L 113.05484 481.007885 
L 113.140125 525.566488 
L 113.225411 478.109735 
L 113.310696 523.668156 
L 113.481267 493.236714 
L 113.566553 527.009371 
L 113.651838 478.52149 
L 113.737124 528.77678 
L 113.822409 495.614921 
L 113.907695 499.779562 
L 113.99298 524.737747 
L 114.078266 483.900499 
L 114.163551 534.770776 
L 114.248837 485.915545 
L 114.334122 524.346301 
L 114.419408 500.706495 
L 114.504693 505.577651 
L 114.589979 519.801534 
L 114.675265 483.863432 
L 114.76055 533.815191 
L 114.845836 488.782814 
L 114.931121 527.814311 
L 115.101692 500.334318 
L 115.186978 534.708622 
L 115.272263 491.033663 
L 115.357549 540.546522 
L 115.52812 505.234223 
L 115.613405 533.22338 
L 115.698691 494.0315 
L 115.783976 537.463747 
L 115.869262 498.45937 
L 115.954547 525.305181 
L 116.125118 508.777506 
L 116.210404 536.117182 
L 116.295689 495.909559 
L 116.380975 535.329697 
L 116.551546 508.608573 
L 116.636831 528.053973 
L 116.722117 500.577801 
L 116.807402 537.026978 
L 116.892688 496.123766 
L 116.977973 534.232042 
L 117.063259 508.453899 
L 117.148544 515.439934 
L 117.23383 523.690548 
L 117.319115 500.992448 
L 117.404401 543.804698 
L 117.489686 508.496527 
L 117.574972 516.945583 
L 117.660257 526.455288 
L 117.745543 506.125106 
L 117.830829 536.202267 
L 117.916114 502.998453 
L 118.0014 540.116123 
L 118.171971 510.56122 
L 118.257256 542.404112 
L 118.342542 510.646085 
L 118.513113 536.388472 
L 118.598398 516.516127 
L 118.854255 547.00829 
L 119.024826 542.780907 
L 119.621824 554.700264 
L 119.962966 557.389695 
L 120.133537 558.329564 
L 120.304108 538.494948 
L 120.389394 556.890086 
L 120.474679 546.198743 
L 120.559965 558.83553 
L 120.730536 542.723359 
L 120.901107 554.790629 
L 120.986393 551.930318 
L 121.071678 553.615386 
L 121.156964 552.971563 
L 121.242249 536.833546 
L 121.41282 552.306219 
L 121.583391 556.730304 
L 121.668677 553.648533 
L 121.753962 546.355439 
L 121.924533 581.380413 
L 122.095104 556.367779 
L 122.265675 562.178571 
L 122.350961 540.604793 
L 122.436246 559.120197 
L 122.521532 545.130659 
L 122.606817 564.02559 
L 122.692103 545.648703 
L 122.777388 550.168702 
L 122.862674 551.658587 
L 122.947959 547.742857 
L 123.033245 556.847923 
L 123.11853 546.658786 
L 123.203816 566.150698 
L 123.289101 546.355623 
L 123.374387 567.170972 
L 123.459672 547.183593 
L 123.544958 575.088252 
L 123.630243 555.217121 
L 123.800814 573.453278 
L 123.8861 545.92286 
L 124.056671 581.270584 
L 124.141956 550.947318 
L 124.312528 581.718096 
L 124.483099 555.025428 
L 124.65367 581.328788 
L 124.738955 573.491313 
L 124.824241 552.764461 
L 124.909526 577.751285 
L 124.994812 546.760837 
L 125.165383 580.807895 
L 125.250668 579.702989 
L 125.335954 532.962294 
L 125.421239 569.076366 
L 125.506525 568.85315 
L 125.59181 547.175042 
L 125.762381 582.751876 
L 125.847667 582.101218 
L 125.932952 557.919707 
L 126.103523 581.709809 
L 126.188809 581.148995 
L 126.274094 576.760018 
L 126.35938 548.832108 
L 126.529951 581.089169 
L 126.615236 580.502062 
L 126.700522 576.347105 
L 126.785807 546.552889 
L 126.956378 582.303023 
L 127.041664 583.538968 
L 127.126949 583.495666 
L 127.29752 580.917112 
L 127.553377 579.327449 
L 127.638663 550.879897 
L 127.809234 582.752647 
L 127.979805 583.61807 
L 128.235661 581.13029 
L 128.406232 581.07853 
L 128.917945 581.87312 
L 129.003231 581.719217 
L 129.088516 581.935102 
L 129.259087 582.604336 
L 129.344373 582.814434 
L 129.429658 582.570044 
L 129.600229 583.420424 
L 129.7708 583.402631 
L 130.282513 583.6511 
L 131.561796 584.531559 
L 132.073509 584.534554 
L 132.414651 584.382678 
L 132.755793 583.869711 
L 132.926364 583.321049 
L 133.096935 582.02099 
L 133.267506 579.48967 
L 133.352792 579.52425 
L 134.120362 585.365708 
L 134.632075 587.271599 
L 135.058502 588.127662 
L 135.570215 588.636391 
L 136.252499 588.972132 
L 138.214066 589.590935 
L 139.834491 590.245794 
L 141.36963 591.1111 
L 142.648913 592.088783 
L 145.378049 594.699847 
L 145.633906 596.688134 
L 145.804477 597.903397 
L 145.889762 597.708984 
L 146.31619 593.528371 
L 146.486761 594.802829 
L 146.827903 598.135598 
L 146.913189 598.279892 
L 147.08376 596.526379 
L 147.339616 594.415726 
L 147.510187 595.630921 
L 147.936615 599.258487 
L 148.0219 599.418754 
L 148.192471 597.655381 
L 148.448328 595.094649 
L 148.618899 596.218451 
L 149.045326 599.646276 
L 149.130612 599.959815 
L 149.215897 599.928664 
L 149.386468 597.977188 
L 149.557039 595.900196 
L 149.642325 595.849648 
L 149.898181 598.030577 
L 150.239324 600.168761 
L 150.324609 600.403058 
L 150.409895 600.304498 
L 150.580466 598.390045 
L 150.751037 596.548018 
L 150.836322 596.513131 
L 151.603892 600.851341 
L 151.689177 600.777862 
L 151.859748 599.068969 
L 152.115605 596.716859 
L 152.371461 598.567302 
L 152.627318 599.989575 
L 152.797889 600.208891 
L 152.883174 600.034843 
L 152.96846 599.538566 
L 153.053745 598.345616 
L 153.139031 594.187462 
L 153.309602 399.74 
L 153.565459 429.181962 
L 153.906601 615.328998 
L 153.991886 611.512624 
L 154.247743 603.206384 
L 154.418314 602.750978 
L 154.759456 603.055483 
L 155.100598 602.916628 
L 155.527025 602.404543 
L 155.782882 601.939637 
L 155.953453 601.116133 
L 156.294595 597.97483 
L 156.465166 598.910662 
L 156.891594 601.383203 
L 157.318021 602.078455 
L 157.659163 602.120863 
L 158.341447 601.915598 
L 159.023731 601.781184 
L 159.791301 601.845034 
L 161.667582 602.290806 
L 163.032151 602.724776 
L 166.955284 604.344291 
L 170.622561 605.904561 
L 172.839985 606.637879 
L 174.460409 607.187086 
L 176.677833 607.956343 
L 179.236398 608.811476 
L 183.074246 610.035717 
L 187.509093 611.143619 
L 190.238229 611.730696 
L 192.455653 612.442043 
L 193.990792 613.124691 
L 198.340353 615.07 
L 200.728347 615.862121 
L 202.689914 616.618615 
L 204.395624 617.527921 
L 207.210046 619.03915 
L 207.89233 619.202056 
L 208.489329 619.107937 
L 209.342184 618.609988 
L 210.195039 617.92415 
L 210.706752 617.246237 
L 211.389036 615.891796 
L 212.327177 613.325215 
L 213.777031 609.285643 
L 214.885743 606.972438 
L 215.653312 605.851092 
L 216.165025 605.45068 
L 216.591453 605.318042 
L 217.273737 605.41583 
L 217.956021 605.798958 
L 218.894162 606.361775 
L 219.150018 606.268421 
L 219.661731 605.674662 
L 222.049726 602.451943 
L 222.135011 602.159865 
L 222.390868 598.659774 
L 222.561439 596.863008 
L 222.646724 596.876219 
L 222.902581 598.574119 
L 223.073152 599.319135 
L 223.158437 598.849359 
L 223.67015 592.736519 
L 224.011292 593.517965 
L 224.523006 592.449041 
L 225.20529 592.903413 
L 225.546432 593.880789 
L 225.717003 594.790353 
L 226.14343 598.170436 
L 226.228716 598.006966 
L 226.484572 595.607543 
L 226.569858 595.803829 
L 226.825714 598.330151 
L 227.252142 601.416038 
L 227.593284 602.559365 
L 228.957852 605.810865 
L 232.454558 616.61309 
L 233.904412 619.451493 
L 234.842553 620.922798 
L 235.865979 622.130745 
L 236.97469 623.087659 
L 238.168688 623.823791 
L 239.277399 624.251749 
L 240.471396 624.479725 
L 242.006536 624.514774 
L 243.968103 624.530095 
L 244.650387 624.741668 
L 245.247385 625.220015 
L 246.356097 626.150106 
L 247.208952 626.467059 
L 249.511661 626.954553 
L 255.737503 627.973967 
L 260.513492 629.004179 
L 262.901486 629.167089 
L 266.483478 629.445012 
L 270.236041 629.908429 
L 273.391605 629.940058 
L 275.438457 630.039564 
L 286.525574 631.255775 
L 287.890142 631.722439 
L 289.425281 632.501986 
L 294.030699 635.090392 
L 295.90698 635.76143 
L 298.124403 636.311617 
L 301.450538 636.901055 
L 304.606102 637.300309 
L 306.055956 637.26918 
L 307.164668 637.027421 
L 308.188094 636.540214 
L 308.870378 636.049422 
L 309.97909 634.861807 
L 311.258372 632.891947 
L 312.708226 630.249147 
L 314.92565 626.452739 
L 316.204932 624.7259 
L 317.825357 623.105751 
L 318.678212 622.673643 
L 319.786924 622.377276 
L 320.469208 622.378791 
L 321.066206 622.579904 
L 321.748491 623.06835 
L 322.51606 623.938562 
L 323.454201 625.385393 
L 325.671624 629.437334 
L 326.69505 631.183822 
L 327.974333 632.911304 
L 329.083045 634.049168 
L 330.447613 635.102057 
L 332.153323 636.11218 
L 334.370747 637.170682 
L 337.52631 638.423036 
L 341.193588 639.564137 
L 345.031436 640.490476 
L 349.722139 641.38225 
L 353.986415 641.96834 
L 357.994834 642.549654 
L 361.576825 643.348589 
L 366.182243 644.596119 
L 370.702375 645.964245 
L 372.578656 646.915559 
L 374.79608 648.232381 
L 377.951644 650.028286 
L 380.595495 651.263673 
L 383.15406 652.207333 
L 386.309624 653.088609 
L 389.465188 653.743392 
L 394.070606 654.470591 
L 400.211163 655.191714 
L 409.677855 656.002032 
L 422.811824 656.823371 
L 439.186642 657.55093 
L 461.787303 658.299424 
L 503.833061 659.500317 
L 549.972524 660.508268 
L 576.496318 660.91418 
L 668.519387 661.879452 
L 671.50438 661.903667 
L 671.50438 661.903667 
" clip-path="url(#p3a9c3d0b1c)" style="fill: none; stroke: #1f77b4; stroke-width: 1.5; stroke-linecap: square"/>
   </g>
   <g id="line2d_30">
    <path d="M 57.619256 671.249836 
L 60.007251 671.207259 
L 60.263107 671.11461 
L 60.689535 671.032116 
L 61.54239 670.91929 
L 61.883532 670.920126 
L 62.054103 670.814478 
L 62.48053 670.823553 
L 62.651101 670.713963 
L 63.077529 670.726385 
L 63.2481 670.61242 
L 63.674528 670.600206 
L 63.930384 670.518606 
L 64.271526 670.497444 
L 64.527383 670.41311 
L 64.95381 670.397947 
L 65.124381 670.27096 
L 65.550809 670.240613 
L 65.72138 670.107276 
L 66.659521 670.122746 
L 67.682947 670.179597 
L 71.691366 670.539381 
L 71.861937 670.424127 
L 72.288364 670.471297 
L 72.458935 670.297036 
L 72.885363 670.26906 
L 73.14122 670.123292 
L 73.482362 670.066629 
L 73.652933 669.862009 
L 74.164646 669.92328 
L 74.335217 669.583129 
L 74.761644 669.62601 
L 74.932215 669.23296 
L 75.358643 669.27529 
L 75.529214 668.829628 
L 75.870356 668.878625 
L 76.211498 668.39547 
L 76.467355 668.422789 
L 76.808497 667.884652 
L 77.064353 667.928028 
L 77.149639 668.090557 
L 77.234924 667.914544 
L 77.405495 667.31392 
L 77.661352 667.346253 
L 77.746637 667.595965 
L 77.831923 667.481349 
L 78.002494 666.820337 
L 78.25835 666.845859 
L 78.343636 667.086326 
L 78.428921 666.938196 
L 78.599492 666.2177 
L 78.940634 666.193746 
L 79.281777 665.106704 
L 79.537633 665.063453 
L 79.878775 663.940517 
L 80.134632 663.906541 
L 80.219917 664.107726 
L 80.646345 662.706769 
L 80.73163 662.651781 
L 80.816916 662.841996 
L 81.243343 661.397006 
L 81.328629 661.332915 
L 81.413914 661.512696 
L 81.840342 660.014599 
L 82.010913 659.869892 
L 82.352055 658.612837 
L 82.607912 658.458204 
L 82.949054 657.16406 
L 83.20491 657.018989 
L 83.290196 657.174506 
L 83.716623 655.584259 
L 83.801909 655.491068 
L 83.887194 655.638108 
L 84.313622 654.01294 
L 84.398907 653.91838 
L 84.484193 654.018776 
L 84.91062 652.320472 
L 85.081191 652.125203 
L 85.422333 650.621105 
L 85.67819 650.429749 
L 86.019332 649.062321 
L 86.275189 648.856444 
L 86.44576 649.896709 
L 86.616331 648.976783 
L 86.957473 648.686578 
L 87.298615 647.212067 
L 87.554471 646.787053 
L 87.895613 644.243786 
L 88.236755 643.776533 
L 88.407326 643.364182 
L 89.430753 642.917957 
L 89.942466 642.853068 
L 90.113037 645.918893 
L 90.198322 645.766481 
L 90.454179 645.920091 
L 90.539464 645.695806 
L 90.710035 647.971722 
L 90.795321 647.640998 
L 91.051177 647.224018 
L 91.136463 646.93376 
L 91.221748 646.158579 
L 91.392319 649.246443 
L 91.477605 647.937944 
L 91.818747 646.064427 
L 91.904033 646.194464 
L 91.989318 647.225989 
L 92.245175 644.442952 
L 92.671602 641.568869 
L 93.012744 637.405514 
L 93.183315 636.069105 
L 93.695028 629.287238 
L 94.462598 617.06603 
L 94.80374 612.026853 
L 98.21516 561.127019 
L 98.726874 556.410545 
L 98.98273 553.072102 
L 99.323872 550.238644 
L 99.579729 547.264195 
L 99.920871 544.816963 
L 100.176727 542.205607 
L 100.517869 540.046613 
L 100.859011 537.751152 
L 101.114868 536.420979 
L 101.45601 534.400254 
L 101.797152 533.263214 
L 102.053009 530.948074 
L 102.394151 530.152581 
L 102.650007 527.542256 
L 102.735293 527.271315 
L 102.820578 526.616191 
L 102.905864 527.307804 
L 102.991149 527.270779 
L 103.247006 524.065078 
L 103.417577 522.878677 
L 104.185146 513.154182 
L 104.270432 513.543571 
L 104.526288 510.880735 
L 105.805571 503.214383 
L 106.061428 502.33119 
L 106.317284 501.279163 
L 106.658426 500.515962 
L 106.914283 499.875203 
L 107.170139 499.714874 
L 107.511281 499.054694 
L 107.937709 499.050515 
L 108.10828 498.843629 
L 108.790564 499.701736 
L 109.81399 501.735302 
L 110.666845 503.927371 
L 113.651838 512.952806 
L 115.783976 519.730817 
L 117.489686 524.92175 
L 120.133537 533.024741 
L 120.389394 532.110158 
L 121.41282 535.002102 
L 121.583391 535.340638 
L 122.606817 538.111449 
L 122.862674 538.715864 
L 123.8861 541.432485 
L 124.056671 541.711949 
L 124.994812 544.126957 
L 125.506525 545.310675 
L 126.35938 547.357755 
L 126.444665 547.390845 
L 126.785807 548.272235 
L 126.956378 548.699578 
L 127.041664 548.72064 
L 127.382806 549.58944 
L 127.553377 550.010357 
L 127.638663 550.01909 
L 128.491518 551.90901 
L 128.83266 552.530896 
L 129.088516 553.133799 
L 129.429658 553.980457 
L 129.514944 553.949172 
L 129.856086 554.766677 
L 130.026657 555.161674 
L 130.111942 555.116328 
L 130.453084 555.921456 
L 130.623655 556.310211 
L 130.708941 556.250407 
L 130.964798 556.833036 
L 131.220654 557.344369 
L 131.391225 557.484146 
L 131.817653 558.422482 
L 131.988224 558.544532 
L 132.499937 559.770339 
L 132.585222 559.663394 
L 132.841079 560.218253 
L 133.096935 560.779189 
L 133.182221 560.655512 
L 133.352792 560.983797 
L 133.693934 561.751387 
L 133.779219 561.610455 
L 133.949791 561.930835 
L 134.290933 562.581733 
L 134.376218 562.542416 
L 134.546789 562.839487 
L 134.887931 563.474497 
L 135.058502 563.49842 
L 135.570215 564.64472 
L 135.655501 564.447508 
L 135.826072 564.738129 
L 136.081928 565.376781 
L 136.167214 565.335332 
L 136.252499 565.127394 
L 136.337785 565.205767 
L 136.678927 566.014907 
L 136.764212 565.931297 
L 136.849498 565.71011 
L 136.934783 565.781022 
L 137.361211 566.6232 
L 137.446497 566.61501 
L 137.702353 567.148236 
L 138.640494 569.082289 
L 138.981636 569.798983 
L 141.625487 575.635432 
L 145.975048 584.739269 
L 146.060333 584.635758 
L 146.31619 585.060716 
L 146.486761 585.375447 
L 146.742617 585.209873 
L 147.169045 585.848738 
L 147.254331 585.761163 
L 147.510187 586.181973 
L 147.851329 586.751694 
L 147.936615 586.710286 
L 148.277757 587.301812 
L 148.874755 588.497963 
L 149.130612 588.835822 
L 150.324609 590.388262 
L 150.580466 590.804543 
L 150.921608 591.419078 
L 151.006893 591.371948 
L 151.348035 591.931407 
L 151.774463 592.793409 
L 152.115605 593.327083 
L 152.20089 593.199746 
L 152.371461 593.42843 
L 152.712603 593.840888 
L 152.883174 593.780221 
L 153.309602 594.39143 
L 153.480173 594.404007 
L 153.991886 595.214044 
L 154.077172 595.184577 
L 154.418314 595.72528 
L 154.588885 596.05416 
L 154.67417 595.995823 
L 155.015312 596.536816 
L 155.697596 597.569119 
L 155.953453 597.423681 
L 157.062165 599.384121 
L 157.14745 599.309732 
L 157.403307 599.682807 
L 157.573878 600.009397 
L 157.659163 599.908874 
L 157.829734 599.642863 
L 158.341447 600.297509 
L 158.682589 600.818242 
L 158.85316 600.917408 
L 159.023731 600.88033 
L 159.450159 601.431626 
L 159.62073 601.441518 
L 161.32644 604.116807 
L 161.582297 604.445661 
L 161.923439 604.80495 
L 162.09401 604.709136 
L 162.520437 605.296135 
L 162.691008 605.406238 
L 163.117436 606.065682 
L 163.373293 605.692874 
L 165.50543 608.810046 
L 165.761287 608.457497 
L 166.273 609.215866 
L 166.358286 609.06879 
L 166.443571 609.121514 
L 166.784713 609.617152 
L 167.04057 609.328688 
L 167.381712 609.865236 
L 167.466997 609.764864 
L 167.637568 609.519883 
L 168.660994 610.906948 
L 168.831565 610.941643 
L 169.940277 612.423489 
L 170.110848 612.320631 
L 170.45199 612.803401 
L 170.707847 612.60947 
L 172.413557 614.923852 
L 172.584128 614.861387 
L 173.010556 615.313359 
L 173.181127 615.317499 
L 173.522269 615.840453 
L 173.607554 615.777177 
L 173.778125 615.53538 
L 174.801551 616.846528 
L 174.972122 616.714537 
L 175.39855 617.278249 
L 175.654406 616.927317 
L 176.080834 617.371982 
L 176.251405 617.246948 
L 177.189546 618.411642 
L 177.445402 618.37746 
L 179.151112 620.572447 
L 179.321684 620.543232 
L 179.748111 620.987148 
L 179.918682 620.76892 
L 180.259824 621.177835 
L 180.515681 620.995577 
L 180.856823 621.399084 
L 181.112679 621.144518 
L 182.221391 622.450508 
L 182.391962 622.355033 
L 182.733104 622.801818 
L 182.81839 622.696854 
L 182.988961 622.433097 
L 183.330103 622.81937 
L 183.585959 622.524193 
L 184.012387 622.90457 
L 184.182958 622.857473 
L 184.609385 623.406318 
L 184.694671 623.326701 
L 184.865242 623.107761 
L 185.803383 624.100158 
L 186.059239 623.971638 
L 186.400381 624.349947 
L 186.656238 623.926581 
L 187.764949 625.106138 
L 187.93552 625.040564 
L 188.361948 625.379039 
L 188.532519 625.306505 
L 188.958947 625.796907 
L 189.129518 625.748367 
L 190.067658 626.800163 
L 190.323515 626.510358 
L 191.346941 627.80456 
L 191.602797 628.155977 
L 191.943939 628.519733 
L 192.199796 627.980409 
L 192.540938 628.331537 
L 192.796795 627.826073 
L 193.905506 628.992813 
L 194.076077 628.982486 
L 194.843647 629.635618 
L 195.099503 629.875728 
L 195.270074 629.836173 
L 195.611217 630.177952 
L 195.867073 629.558382 
L 196.208215 629.912052 
L 196.464072 629.764396 
L 199.449065 632.774485 
L 202.348772 635.385522 
L 205.333765 637.799455 
L 205.419051 637.776611 
L 205.589622 639.255961 
L 205.674907 639.22996 
L 206.016049 639.440245 
L 206.271906 640.772441 
L 206.613048 640.987838 
L 206.698333 641.481909 
L 206.783619 641.193147 
L 206.95419 639.76732 
L 207.210046 639.818421 
L 207.295332 640.217233 
L 207.380617 639.829577 
L 207.551188 638.319164 
L 207.807045 638.33059 
L 207.89233 638.156871 
L 208.233472 636.530357 
L 208.489329 636.33847 
L 208.830471 634.547137 
L 209.086328 634.326964 
L 209.171613 634.501368 
L 209.598041 632.251093 
L 209.683326 632.104763 
L 209.768612 632.229241 
L 210.195039 629.973304 
L 210.280325 629.819992 
L 210.36561 629.908505 
L 210.792038 627.69355 
L 210.962609 627.371675 
L 211.303751 625.589649 
L 211.559608 625.252832 
L 211.90075 623.563157 
L 212.241892 623.332465 
L 212.668319 621.541386 
L 212.924176 621.046224 
L 213.094747 619.96684 
L 213.435889 619.813269 
L 213.862316 618.358429 
L 214.032887 618.206627 
L 214.374029 617.096743 
L 214.629886 616.989859 
L 214.971028 616.021099 
L 215.31217 616.061534 
L 215.653312 615.137323 
L 215.823883 615.127173 
L 215.909169 615.379685 
L 215.994454 615.31885 
L 216.165025 614.728721 
L 216.420882 614.739601 
L 216.591453 615.161026 
L 216.762024 614.588779 
L 217.01788 614.613207 
L 217.529593 613.782834 
L 217.614879 613.812143 
L 217.700164 613.586896 
L 217.870735 613.676028 
L 218.041307 613.046586 
L 218.297163 612.566838 
L 218.467734 614.607097 
L 218.638305 612.486671 
L 218.894162 611.560459 
L 219.150018 608.376545 
L 219.405875 605.872904 
L 219.576446 604.609272 
L 219.661731 605.000941 
L 219.747017 607.106677 
L 220.002873 604.96592 
L 221.111585 600.026429 
L 221.96444 598.040569 
L 222.135011 597.761478 
L 222.390868 597.286814 
L 222.73201 596.943169 
L 222.902581 596.673574 
L 223.329008 596.523345 
L 223.499579 596.369992 
L 224.096578 596.641688 
L 224.864148 597.292634 
L 225.887574 598.513568 
L 227.422713 600.755452 
L 233.136842 609.505964 
L 233.307413 609.546196 
L 233.819126 610.13715 
L 233.989697 610.07007 
L 234.501411 610.622705 
L 234.842553 611.068896 
L 235.183695 611.534135 
L 236.03655 612.564693 
L 236.889405 613.433282 
L 237.059976 613.372642 
L 237.401118 613.887117 
L 237.486404 613.815185 
L 237.656975 613.605818 
L 238.595115 614.709025 
L 239.106828 615.144596 
L 239.192114 615.231835 
L 239.44797 614.954326 
L 239.874398 615.584838 
L 239.959683 615.4733 
L 240.130254 615.170777 
L 240.471396 615.647358 
L 240.727253 615.265137 
L 241.068395 615.738695 
L 241.153681 615.674905 
L 241.324252 615.540763 
L 241.835965 616.07392 
L 242.091821 616.369756 
L 243.029962 617.58979 
L 243.200533 617.549464 
L 243.62696 617.976107 
L 243.797531 617.783 
L 244.138674 618.215701 
L 244.39453 617.754415 
L 244.820958 618.206029 
L 244.991529 618.196221 
L 246.014955 619.568064 
L 246.270811 619.203972 
L 246.697239 619.782682 
L 246.86781 619.679077 
L 247.805951 620.891908 
L 248.061807 620.360625 
L 248.402949 620.759765 
L 248.658806 620.486565 
L 248.744091 620.597795 
L 249.085233 621.128272 
L 249.34109 621.466107 
L 249.682232 621.886244 
L 249.938088 621.489919 
L 250.279231 621.897056 
L 250.535087 621.315193 
L 251.387942 622.207696 
L 251.81437 622.796653 
L 252.75251 623.829235 
L 253.008367 623.402926 
L 254.031793 624.778828 
L 254.372935 625.197539 
L 254.543506 625.374364 
L 254.799363 625.019661 
L 255.22579 625.53982 
L 255.481647 625.11329 
L 255.566932 625.211104 
L 255.908074 625.56964 
L 256.078645 625.51748 
L 256.505073 625.938529 
L 256.675644 625.886947 
L 257.102072 626.29315 
L 257.272643 626.284664 
L 257.784356 626.73157 
L 257.954927 626.865721 
L 258.296069 627.273339 
L 258.551925 626.772373 
L 258.637211 626.866834 
L 258.978353 627.12811 
L 259.148924 626.898251 
L 259.575351 627.30979 
L 259.745922 627.235431 
L 260.087065 627.600381 
L 260.342921 627.384738 
L 260.854634 627.800065 
L 261.025205 627.919763 
L 261.963346 628.811821 
L 262.219202 628.346593 
L 263.327914 629.437207 
L 263.583771 629.657932 
L 264.436626 630.507253 
L 264.692482 629.916682 
L 265.11891 630.380424 
L 265.289481 630.245038 
L 265.715908 630.620319 
L 265.886479 630.603003 
L 266.227621 630.933267 
L 266.483478 630.547462 
L 267.59219 631.638797 
L 267.762761 631.429669 
L 268.189188 631.851193 
L 268.359759 631.617951 
L 268.700901 631.951579 
L 268.956758 631.327507 
L 269.2979 631.650265 
L 269.553756 631.079812 
L 270.662468 632.096794 
L 270.833039 632.109303 
L 272.368178 633.532829 
L 272.70932 633.403602 
L 273.135748 633.668211 
L 273.306319 633.7605 
L 273.647461 634.136699 
L 273.903318 633.608599 
L 273.988603 633.690831 
L 274.24446 633.924241 
L 274.500316 633.312163 
L 274.841458 633.658411 
L 275.097315 633.366925 
L 276.547169 634.651774 
L 276.803025 634.879251 
L 276.973596 634.629427 
L 277.314738 635.050429 
L 277.570595 635.368516 
L 277.911737 635.679903 
L 278.167593 635.038876 
L 278.508735 635.335609 
L 278.764592 634.881065 
L 279.873304 635.880387 
L 280.043875 635.69822 
L 280.385017 636.105605 
L 280.470302 636.011532 
L 280.640873 635.640011 
L 281.067301 636.01354 
L 281.237872 635.985415 
L 281.579014 636.280426 
L 281.83487 635.618596 
L 282.261298 635.872846 
L 282.431869 635.793154 
L 285.758004 638.767859 
L 288.657711 641.051296 
L 290.192851 642.256625 
L 290.448707 642.540993 
L 291.386848 643.19293 
L 291.642704 642.470644 
L 294.627697 644.499079 
L 297.015692 645.900187 
L 297.186263 645.698515 
L 300.768254 647.783483 
L 301.194682 647.993035 
L 301.365253 648.109023 
L 301.535824 648.056035 
L 301.962251 648.301085 
L 302.132823 648.188826 
L 302.55925 648.428921 
L 302.729821 648.259064 
L 303.156249 648.407633 
L 303.32682 648.267201 
L 303.667962 648.460942 
L 304.009104 648.278751 
L 304.435531 648.509621 
L 304.606102 648.175551 
L 305.03253 648.403068 
L 305.203101 648.015911 
L 305.629529 648.238475 
L 305.8001 647.798078 
L 306.141242 647.98046 
L 306.311813 647.810472 
L 306.397098 647.689997 
L 306.482384 647.758329 
L 306.73824 647.87747 
L 306.908811 647.632565 
L 306.994097 647.494683 
L 307.079382 647.559582 
L 307.335239 647.682719 
L 307.420524 647.944441 
L 307.50581 647.661366 
L 307.676381 646.717485 
L 307.932237 646.822517 
L 308.017523 647.074601 
L 308.102808 646.783171 
L 308.273379 645.823736 
L 308.529236 645.906784 
L 308.614522 646.148409 
L 308.699807 645.847348 
L 308.870378 644.869501 
L 309.21152 644.907824 
L 309.467377 643.842219 
L 309.552662 643.877757 
L 309.808519 643.883518 
L 310.064375 642.784814 
L 310.149661 642.811693 
L 310.405517 642.823251 
L 310.490803 643.034837 
L 310.576088 642.705783 
L 310.746659 641.676474 
L 311.002516 641.662274 
L 311.087801 641.863182 
L 311.514229 640.488791 
L 311.599514 640.438484 
L 311.6848 640.629696 
L 312.111228 639.204888 
L 312.281799 639.087154 
L 312.622941 637.890107 
L 312.878797 637.790953 
L 313.219939 636.485719 
L 313.475796 636.40652 
L 313.561081 636.506983 
L 313.902223 634.970599 
L 314.15808 634.992647 
L 314.499222 633.623806 
L 314.584507 633.645566 
L 314.669793 633.527964 
L 314.840364 634.62787 
L 315.010935 633.767011 
L 315.266792 633.703004 
L 315.352077 633.535522 
L 315.693219 632.242531 
L 315.949076 631.894839 
L 316.290218 629.490089 
L 316.716645 629.111651 
L 316.887216 628.765301 
L 317.825357 628.694068 
L 319.10464 629.27987 
L 319.360496 629.385742 
L 320.383922 630.077263 
L 320.554493 630.121118 
L 321.57792 630.890992 
L 321.833776 631.044127 
L 322.771917 631.837566 
L 323.28363 632.166686 
L 323.454201 632.312711 
L 323.624772 632.346067 
L 324.136485 632.714133 
L 326.098052 634.069902 
L 328.486046 636.240823 
L 330.788755 638.18618 
L 331.044611 638.329651 
L 334.11489 640.658161 
L 337.441025 642.890535 
L 341.193588 645.134842 
L 345.372578 647.373496 
L 349.977995 649.588941 
L 355.009841 651.759885 
L 360.382828 653.831448 
L 366.011672 655.763102 
L 371.981658 657.577197 
L 378.378071 659.285328 
L 385.200912 660.87265 
L 392.450181 662.329043 
L 400.296448 663.675933 
L 408.825 664.910331 
L 418.12112 666.027831 
L 428.440668 667.039205 
L 439.954212 667.938226 
L 452.91761 668.7229 
L 467.92786 669.402264 
L 485.581961 669.971494 
L 507.073911 670.433439 
L 534.45056 670.788747 
L 572.061472 671.039579 
L 631.420189 671.189086 
L 671.50438 671.223674 
L 671.50438 671.223674 
" clip-path="url(#p3a9c3d0b1c)" style="fill: none; stroke: #ff7f0e; stroke-width: 1.5; stroke-linecap: square"/>
   </g>
   <g id="patch_9">
    <path d="M 26.925 684.92 
L 26.925 386.16 
" style="fill: none; stroke: #000000; stroke-width: 0.8; stroke-linejoin: miter; stroke-linecap: square"/>
   </g>
   <g id="patch_10">
    <path d="M 702.198636 684.92 
L 702.198636 386.16 
" style="fill: none; stroke: #000000; stroke-width: 0.8; stroke-linejoin: miter; stroke-linecap: square"/>
   </g>
   <g id="patch_11">
    <path d="M 26.925 684.92 
L 702.198636 684.92 
" style="fill: none; stroke: #000000; stroke-width: 0.8; stroke-linejoin: miter; stroke-linecap: square"/>
   </g>
   <g id="patch_12">
    <path d="M 26.925 386.16 
L 702.198636 386.16 
" style="fill: none; stroke: #000000; stroke-width: 0.8; stroke-linejoin: miter; stroke-linecap: square"/>
   </g>
   <g id="text_28">
    <!-- 2 transformation(s) -->
    <g transform="translate(306.447131 380.16) scale(0.12 -0.12)">
     <use xlink:href="#DejaVuSans-32"/>
     <use xlink:href="#DejaVuSans-20" x="63.623047"/>
     <use xlink:href="#DejaVuSans-74" x="95.410156"/>
     <use xlink:href="#DejaVuSans-72" x="134.619141"/>
     <use xlink:href="#DejaVuSans-61" x="175.732422"/>
     <use xlink:href="#DejaVuSans-6e" x="237.011719"/>
     <use xlink:href="#DejaVuSans-73" x="300.390625"/>
     <use xlink:href="#DejaVuSans-66" x="352.490234"/>
     <use xlink:href="#DejaVuSans-6f" x="387.695312"/>
     <use xlink:href="#DejaVuSans-72" x="448.876953"/>
     <use xlink:href="#DejaVuSans-6d" x="488.240234"/>
     <use xlink:href="#DejaVuSans-61" x="585.652344"/>
     <use xlink:href="#DejaVuSans-74" x="646.931641"/>
     <use xlink:href="#DejaVuSans-69" x="686.140625"/>
     <use xlink:href="#DejaVuSans-6f" x="713.923828"/>
     <use xlink:href="#DejaVuSans-6e" x="775.105469"/>
     <use xlink:href="#DejaVuSans-28" x="838.484375"/>
     <use xlink:href="#DejaVuSans-73" x="877.498047"/>
     <use xlink:href="#DejaVuSans-29" x="929.597656"/>
    </g>
   </g>
  </g>
  <g id="text_29">
   <!-- training -->
   <g transform="translate(333.191563 16.318125) scale(0.12 -0.12)">
    <defs>
     <path id="DejaVuSans-67" d="M 2906 1791 
Q 2906 2416 2648 2759 
Q 2391 3103 1925 3103 
Q 1463 3103 1205 2759 
Q 947 2416 947 1791 
Q 947 1169 1205 825 
Q 1463 481 1925 481 
Q 2391 481 2648 825 
Q 2906 1169 2906 1791 
z
M 3481 434 
Q 3481 -459 3084 -895 
Q 2688 -1331 1869 -1331 
Q 1566 -1331 1297 -1286 
Q 1028 -1241 775 -1147 
L 775 -588 
Q 1028 -725 1275 -790 
Q 1522 -856 1778 -856 
Q 2344 -856 2625 -561 
Q 2906 -266 2906 331 
L 2906 616 
Q 2728 306 2450 153 
Q 2172 0 1784 0 
Q 1141 0 747 490 
Q 353 981 353 1791 
Q 353 2603 747 3093 
Q 1141 3584 1784 3584 
Q 2172 3584 2450 3431 
Q 2728 3278 2906 2969 
L 2906 3500 
L 3481 3500 
L 3481 434 
z
" transform="scale(0.015625)"/>
    </defs>
    <use xlink:href="#DejaVuSans-74"/>
    <use xlink:href="#DejaVuSans-72" x="39.208984"/>
    <use xlink:href="#DejaVuSans-61" x="80.322266"/>
    <use xlink:href="#DejaVuSans-69" x="141.601562"/>
    <use xlink:href="#DejaVuSans-6e" x="169.384766"/>
    <use xlink:href="#DejaVuSans-69" x="232.763672"/>
    <use xlink:href="#DejaVuSans-6e" x="260.546875"/>
    <use xlink:href="#DejaVuSans-67" x="323.925781"/>
   </g>
  </g>
 </g>
 <defs>
  <clipPath id="p0f5092dc77">
   <rect x="26.925" y="43.44" width="675.273636" height="298.76"/>
  </clipPath>
  <clipPath id="p3a9c3d0b1c">
   <rect x="26.925" y="386.16" width="675.273636" height="298.76"/>
  </clipPath>
 </defs>
</svg>
