<?xml version="1.0" encoding="utf-8" standalone="no"?>
<!DOCTYPE svg PUBLIC "-//W3C//DTD SVG 1.1//EN"
  "http://www.w3.org/Graphics/SVG/1.1/DTD/svg11.dtd">
<svg xmlns:xlink="http://www.w3.org/1999/xlink" width="709.345824pt" height="708.798125pt" viewBox="0 0 709.345824 708.798125" xmlns="http://www.w3.org/2000/svg" version="1.1">
 <metadata>
  <rdf:RDF xmlns:dc="http://purl.org/dc/elements/1.1/" xmlns:cc="http://creativecommons.org/ns#" xmlns:rdf="http://www.w3.org/1999/02/22-rdf-syntax-ns#">
   <cc:Work>
    <dc:type rdf:resource="http://purl.org/dc/dcmitype/StillImage"/>
    <dc:date>2023-06-12T14:17:07.487577</dc:date>
    <dc:format>image/svg+xml</dc:format>
    <dc:creator>
     <cc:Agent>
      <dc:title>Matplotlib v3.7.1, https://matplotlib.org/</dc:title>
     </cc:Agent>
    </dc:creator>
   </cc:Work>
  </rdf:RDF>
 </metadata>
 <defs>
  <style type="text/css">*{stroke-linejoin: round; stroke-linecap: butt}</style>
 </defs>
 <g id="figure_1">
  <g id="patch_1">
   <path d="M 0 708.798125 
L 709.345824 708.798125 
L 709.345824 0 
L 0 0 
z
" style="fill: #ffffff"/>
  </g>
  <g id="axes_1">
   <g id="patch_2">
    <path d="M 28.942187 342.2 
L 702.145824 342.2 
L 702.145824 43.44 
L 28.942187 43.44 
z
" style="fill: #ffffff"/>
   </g>
   <g id="matplotlib.axis_1">
    <g id="xtick_1">
     <g id="line2d_1">
      <defs>
       <path id="m0d3fabbfa8" d="M 0 0 
L 0 3.5 
" style="stroke: #000000; stroke-width: 0.8"/>
      </defs>
      <g>
       <use xlink:href="#m0d3fabbfa8" x="59.372305" y="342.2" style="stroke: #000000; stroke-width: 0.8"/>
      </g>
     </g>
     <g id="text_1">
      <!-- 2014-07-01 -->
      <g transform="translate(30.314492 356.798437) scale(0.1 -0.1)">
       <defs>
        <path id="DejaVuSans-32" d="M 1228 531 
L 3431 531 
L 3431 0 
L 469 0 
L 469 531 
Q 828 903 1448 1529 
Q 2069 2156 2228 2338 
Q 2531 2678 2651 2914 
Q 2772 3150 2772 3378 
Q 2772 3750 2511 3984 
Q 2250 4219 1831 4219 
Q 1534 4219 1204 4116 
Q 875 4013 500 3803 
L 500 4441 
Q 881 4594 1212 4672 
Q 1544 4750 1819 4750 
Q 2544 4750 2975 4387 
Q 3406 4025 3406 3419 
Q 3406 3131 3298 2873 
Q 3191 2616 2906 2266 
Q 2828 2175 2409 1742 
Q 1991 1309 1228 531 
z
" transform="scale(0.015625)"/>
        <path id="DejaVuSans-30" d="M 2034 4250 
Q 1547 4250 1301 3770 
Q 1056 3291 1056 2328 
Q 1056 1369 1301 889 
Q 1547 409 2034 409 
Q 2525 409 2770 889 
Q 3016 1369 3016 2328 
Q 3016 3291 2770 3770 
Q 2525 4250 2034 4250 
z
M 2034 4750 
Q 2819 4750 3233 4129 
Q 3647 3509 3647 2328 
Q 3647 1150 3233 529 
Q 2819 -91 2034 -91 
Q 1250 -91 836 529 
Q 422 1150 422 2328 
Q 422 3509 836 4129 
Q 1250 4750 2034 4750 
z
" transform="scale(0.015625)"/>
        <path id="DejaVuSans-31" d="M 794 531 
L 1825 531 
L 1825 4091 
L 703 3866 
L 703 4441 
L 1819 4666 
L 2450 4666 
L 2450 531 
L 3481 531 
L 3481 0 
L 794 0 
L 794 531 
z
" transform="scale(0.015625)"/>
        <path id="DejaVuSans-34" d="M 2419 4116 
L 825 1625 
L 2419 1625 
L 2419 4116 
z
M 2253 4666 
L 3047 4666 
L 3047 1625 
L 3713 1625 
L 3713 1100 
L 3047 1100 
L 3047 0 
L 2419 0 
L 2419 1100 
L 313 1100 
L 313 1709 
L 2253 4666 
z
" transform="scale(0.015625)"/>
        <path id="DejaVuSans-2d" d="M 313 2009 
L 1997 2009 
L 1997 1497 
L 313 1497 
L 313 2009 
z
" transform="scale(0.015625)"/>
        <path id="DejaVuSans-37" d="M 525 4666 
L 3525 4666 
L 3525 4397 
L 1831 0 
L 1172 0 
L 2766 4134 
L 525 4134 
L 525 4666 
z
" transform="scale(0.015625)"/>
       </defs>
       <use xlink:href="#DejaVuSans-32"/>
       <use xlink:href="#DejaVuSans-30" x="63.623047"/>
       <use xlink:href="#DejaVuSans-31" x="127.246094"/>
       <use xlink:href="#DejaVuSans-34" x="190.869141"/>
       <use xlink:href="#DejaVuSans-2d" x="254.492188"/>
       <use xlink:href="#DejaVuSans-30" x="290.576172"/>
       <use xlink:href="#DejaVuSans-37" x="354.199219"/>
       <use xlink:href="#DejaVuSans-2d" x="417.822266"/>
       <use xlink:href="#DejaVuSans-30" x="453.90625"/>
       <use xlink:href="#DejaVuSans-31" x="517.529297"/>
      </g>
     </g>
    </g>
    <g id="xtick_2">
     <g id="line2d_2">
      <g>
       <use xlink:href="#m0d3fabbfa8" x="181.806975" y="342.2" style="stroke: #000000; stroke-width: 0.8"/>
      </g>
     </g>
     <g id="text_2">
      <!-- 2014-07-02 -->
      <g transform="translate(152.749163 356.798437) scale(0.1 -0.1)">
       <use xlink:href="#DejaVuSans-32"/>
       <use xlink:href="#DejaVuSans-30" x="63.623047"/>
       <use xlink:href="#DejaVuSans-31" x="127.246094"/>
       <use xlink:href="#DejaVuSans-34" x="190.869141"/>
       <use xlink:href="#DejaVuSans-2d" x="254.492188"/>
       <use xlink:href="#DejaVuSans-30" x="290.576172"/>
       <use xlink:href="#DejaVuSans-37" x="354.199219"/>
       <use xlink:href="#DejaVuSans-2d" x="417.822266"/>
       <use xlink:href="#DejaVuSans-30" x="453.90625"/>
       <use xlink:href="#DejaVuSans-32" x="517.529297"/>
      </g>
     </g>
    </g>
    <g id="xtick_3">
     <g id="line2d_3">
      <g>
       <use xlink:href="#m0d3fabbfa8" x="304.241646" y="342.2" style="stroke: #000000; stroke-width: 0.8"/>
      </g>
     </g>
     <g id="text_3">
      <!-- 2014-07-03 -->
      <g transform="translate(275.183834 356.798437) scale(0.1 -0.1)">
       <defs>
        <path id="DejaVuSans-33" d="M 2597 2516 
Q 3050 2419 3304 2112 
Q 3559 1806 3559 1356 
Q 3559 666 3084 287 
Q 2609 -91 1734 -91 
Q 1441 -91 1130 -33 
Q 819 25 488 141 
L 488 750 
Q 750 597 1062 519 
Q 1375 441 1716 441 
Q 2309 441 2620 675 
Q 2931 909 2931 1356 
Q 2931 1769 2642 2001 
Q 2353 2234 1838 2234 
L 1294 2234 
L 1294 2753 
L 1863 2753 
Q 2328 2753 2575 2939 
Q 2822 3125 2822 3475 
Q 2822 3834 2567 4026 
Q 2313 4219 1838 4219 
Q 1578 4219 1281 4162 
Q 984 4106 628 3988 
L 628 4550 
Q 988 4650 1302 4700 
Q 1616 4750 1894 4750 
Q 2613 4750 3031 4423 
Q 3450 4097 3450 3541 
Q 3450 3153 3228 2886 
Q 3006 2619 2597 2516 
z
" transform="scale(0.015625)"/>
       </defs>
       <use xlink:href="#DejaVuSans-32"/>
       <use xlink:href="#DejaVuSans-30" x="63.623047"/>
       <use xlink:href="#DejaVuSans-31" x="127.246094"/>
       <use xlink:href="#DejaVuSans-34" x="190.869141"/>
       <use xlink:href="#DejaVuSans-2d" x="254.492188"/>
       <use xlink:href="#DejaVuSans-30" x="290.576172"/>
       <use xlink:href="#DejaVuSans-37" x="354.199219"/>
       <use xlink:href="#DejaVuSans-2d" x="417.822266"/>
       <use xlink:href="#DejaVuSans-30" x="453.90625"/>
       <use xlink:href="#DejaVuSans-33" x="517.529297"/>
      </g>
     </g>
    </g>
    <g id="xtick_4">
     <g id="line2d_4">
      <g>
       <use xlink:href="#m0d3fabbfa8" x="426.676317" y="342.2" style="stroke: #000000; stroke-width: 0.8"/>
      </g>
     </g>
     <g id="text_4">
      <!-- 2014-07-04 -->
      <g transform="translate(397.618504 356.798437) scale(0.1 -0.1)">
       <use xlink:href="#DejaVuSans-32"/>
       <use xlink:href="#DejaVuSans-30" x="63.623047"/>
       <use xlink:href="#DejaVuSans-31" x="127.246094"/>
       <use xlink:href="#DejaVuSans-34" x="190.869141"/>
       <use xlink:href="#DejaVuSans-2d" x="254.492188"/>
       <use xlink:href="#DejaVuSans-30" x="290.576172"/>
       <use xlink:href="#DejaVuSans-37" x="354.199219"/>
       <use xlink:href="#DejaVuSans-2d" x="417.822266"/>
       <use xlink:href="#DejaVuSans-30" x="453.90625"/>
       <use xlink:href="#DejaVuSans-34" x="517.529297"/>
      </g>
     </g>
    </g>
    <g id="xtick_5">
     <g id="line2d_5">
      <g>
       <use xlink:href="#m0d3fabbfa8" x="549.110988" y="342.2" style="stroke: #000000; stroke-width: 0.8"/>
      </g>
     </g>
     <g id="text_5">
      <!-- 2014-07-05 -->
      <g transform="translate(520.053175 356.798437) scale(0.1 -0.1)">
       <defs>
        <path id="DejaVuSans-35" d="M 691 4666 
L 3169 4666 
L 3169 4134 
L 1269 4134 
L 1269 2991 
Q 1406 3038 1543 3061 
Q 1681 3084 1819 3084 
Q 2600 3084 3056 2656 
Q 3513 2228 3513 1497 
Q 3513 744 3044 326 
Q 2575 -91 1722 -91 
Q 1428 -91 1123 -41 
Q 819 9 494 109 
L 494 744 
Q 775 591 1075 516 
Q 1375 441 1709 441 
Q 2250 441 2565 725 
Q 2881 1009 2881 1497 
Q 2881 1984 2565 2268 
Q 2250 2553 1709 2553 
Q 1456 2553 1204 2497 
Q 953 2441 691 2322 
L 691 4666 
z
" transform="scale(0.015625)"/>
       </defs>
       <use xlink:href="#DejaVuSans-32"/>
       <use xlink:href="#DejaVuSans-30" x="63.623047"/>
       <use xlink:href="#DejaVuSans-31" x="127.246094"/>
       <use xlink:href="#DejaVuSans-34" x="190.869141"/>
       <use xlink:href="#DejaVuSans-2d" x="254.492188"/>
       <use xlink:href="#DejaVuSans-30" x="290.576172"/>
       <use xlink:href="#DejaVuSans-37" x="354.199219"/>
       <use xlink:href="#DejaVuSans-2d" x="417.822266"/>
       <use xlink:href="#DejaVuSans-30" x="453.90625"/>
       <use xlink:href="#DejaVuSans-35" x="517.529297"/>
      </g>
     </g>
    </g>
    <g id="xtick_6">
     <g id="line2d_6">
      <g>
       <use xlink:href="#m0d3fabbfa8" x="671.545659" y="342.2" style="stroke: #000000; stroke-width: 0.8"/>
      </g>
     </g>
     <g id="text_6">
      <!-- 2014-07-06 -->
      <g transform="translate(642.487846 356.798437) scale(0.1 -0.1)">
       <defs>
        <path id="DejaVuSans-36" d="M 2113 2584 
Q 1688 2584 1439 2293 
Q 1191 2003 1191 1497 
Q 1191 994 1439 701 
Q 1688 409 2113 409 
Q 2538 409 2786 701 
Q 3034 994 3034 1497 
Q 3034 2003 2786 2293 
Q 2538 2584 2113 2584 
z
M 3366 4563 
L 3366 3988 
Q 3128 4100 2886 4159 
Q 2644 4219 2406 4219 
Q 1781 4219 1451 3797 
Q 1122 3375 1075 2522 
Q 1259 2794 1537 2939 
Q 1816 3084 2150 3084 
Q 2853 3084 3261 2657 
Q 3669 2231 3669 1497 
Q 3669 778 3244 343 
Q 2819 -91 2113 -91 
Q 1303 -91 875 529 
Q 447 1150 447 2328 
Q 447 3434 972 4092 
Q 1497 4750 2381 4750 
Q 2619 4750 2861 4703 
Q 3103 4656 3366 4563 
z
" transform="scale(0.015625)"/>
       </defs>
       <use xlink:href="#DejaVuSans-32"/>
       <use xlink:href="#DejaVuSans-30" x="63.623047"/>
       <use xlink:href="#DejaVuSans-31" x="127.246094"/>
       <use xlink:href="#DejaVuSans-34" x="190.869141"/>
       <use xlink:href="#DejaVuSans-2d" x="254.492188"/>
       <use xlink:href="#DejaVuSans-30" x="290.576172"/>
       <use xlink:href="#DejaVuSans-37" x="354.199219"/>
       <use xlink:href="#DejaVuSans-2d" x="417.822266"/>
       <use xlink:href="#DejaVuSans-30" x="453.90625"/>
       <use xlink:href="#DejaVuSans-36" x="517.529297"/>
      </g>
     </g>
    </g>
   </g>
   <g id="matplotlib.axis_2">
    <g id="ytick_1">
     <g id="line2d_7">
      <defs>
       <path id="m745e5eaf6a" d="M 0 0 
L -3.5 0 
" style="stroke: #000000; stroke-width: 0.8"/>
      </defs>
      <g>
       <use xlink:href="#m745e5eaf6a" x="28.942187" y="327.025438" style="stroke: #000000; stroke-width: 0.8"/>
      </g>
     </g>
     <g id="text_7">
      <!-- 0 -->
      <g transform="translate(15.579687 330.824657) scale(0.1 -0.1)">
       <use xlink:href="#DejaVuSans-30"/>
      </g>
     </g>
    </g>
    <g id="ytick_2">
     <g id="line2d_8">
      <g>
       <use xlink:href="#m745e5eaf6a" x="28.942187" y="287.828645" style="stroke: #000000; stroke-width: 0.8"/>
      </g>
     </g>
     <g id="text_8">
      <!-- 1 -->
      <g transform="translate(15.579687 291.627864) scale(0.1 -0.1)">
       <use xlink:href="#DejaVuSans-31"/>
      </g>
     </g>
    </g>
    <g id="ytick_3">
     <g id="line2d_9">
      <g>
       <use xlink:href="#m745e5eaf6a" x="28.942187" y="248.631851" style="stroke: #000000; stroke-width: 0.8"/>
      </g>
     </g>
     <g id="text_9">
      <!-- 2 -->
      <g transform="translate(15.579687 252.43107) scale(0.1 -0.1)">
       <use xlink:href="#DejaVuSans-32"/>
      </g>
     </g>
    </g>
    <g id="ytick_4">
     <g id="line2d_10">
      <g>
       <use xlink:href="#m745e5eaf6a" x="28.942187" y="209.435058" style="stroke: #000000; stroke-width: 0.8"/>
      </g>
     </g>
     <g id="text_10">
      <!-- 3 -->
      <g transform="translate(15.579687 213.234277) scale(0.1 -0.1)">
       <use xlink:href="#DejaVuSans-33"/>
      </g>
     </g>
    </g>
    <g id="ytick_5">
     <g id="line2d_11">
      <g>
       <use xlink:href="#m745e5eaf6a" x="28.942187" y="170.238264" style="stroke: #000000; stroke-width: 0.8"/>
      </g>
     </g>
     <g id="text_11">
      <!-- 4 -->
      <g transform="translate(15.579687 174.037483) scale(0.1 -0.1)">
       <use xlink:href="#DejaVuSans-34"/>
      </g>
     </g>
    </g>
    <g id="ytick_6">
     <g id="line2d_12">
      <g>
       <use xlink:href="#m745e5eaf6a" x="28.942187" y="131.041471" style="stroke: #000000; stroke-width: 0.8"/>
      </g>
     </g>
     <g id="text_12">
      <!-- 5 -->
      <g transform="translate(15.579687 134.84069) scale(0.1 -0.1)">
       <use xlink:href="#DejaVuSans-35"/>
      </g>
     </g>
    </g>
    <g id="ytick_7">
     <g id="line2d_13">
      <g>
       <use xlink:href="#m745e5eaf6a" x="28.942187" y="91.844677" style="stroke: #000000; stroke-width: 0.8"/>
      </g>
     </g>
     <g id="text_13">
      <!-- 6 -->
      <g transform="translate(15.579687 95.643896) scale(0.1 -0.1)">
       <use xlink:href="#DejaVuSans-36"/>
      </g>
     </g>
    </g>
    <g id="ytick_8">
     <g id="line2d_14">
      <g>
       <use xlink:href="#m745e5eaf6a" x="28.942187" y="52.647884" style="stroke: #000000; stroke-width: 0.8"/>
      </g>
     </g>
     <g id="text_14">
      <!-- 7 -->
      <g transform="translate(15.579687 56.447103) scale(0.1 -0.1)">
       <use xlink:href="#DejaVuSans-37"/>
      </g>
     </g>
    </g>
   </g>
   <g id="line2d_15">
    <path d="M 59.542353 327.025438 
L 66.344279 326.923892 
L 67.449592 326.624929 
L 69.150073 326.111674 
L 70.595483 325.968459 
L 73.316253 325.986441 
L 75.016735 325.89003 
L 76.122048 325.599979 
L 76.632192 325.229328 
L 77.142337 324.484251 
L 77.737505 323.176036 
L 78.842818 320.367671 
L 80.288228 313.753123 
L 80.883396 312.422511 
L 81.478565 311.717866 
L 81.818661 311.465933 
L 82.158757 311.185499 
L 82.243781 311.192461 
L 82.498854 310.993342 
L 82.753926 310.773901 
L 82.83895 310.809917 
L 83.179046 310.512129 
L 83.26407 310.592117 
L 83.349094 310.402574 
L 83.434118 310.491386 
L 83.604167 310.349972 
L 84.284359 309.907049 
L 84.369383 310.017875 
L 84.454407 309.824295 
L 84.539431 309.933834 
L 84.624455 309.74342 
L 84.70948 309.86348 
L 84.794504 309.667949 
L 84.879528 309.778696 
L 84.964552 309.594791 
L 85.049576 309.688193 
L 85.1346 309.529628 
L 85.219624 309.624292 
L 85.389672 309.517075 
L 85.644744 309.374441 
L 85.899817 309.203901 
L 85.984841 309.292789 
L 86.069865 309.12824 
L 86.154889 309.211397 
L 86.324937 309.087742 
L 86.580009 309.030301 
L 86.665033 308.892053 
L 86.750057 308.957273 
L 86.920106 308.847635 
L 87.00513 308.864365 
L 87.090154 308.753836 
L 87.175178 308.821743 
L 87.345226 308.725268 
L 87.685322 308.624517 
L 89.045707 308.151421 
L 89.555852 307.864713 
L 89.980972 307.719585 
L 90.916237 307.752348 
L 92.106574 307.994888 
L 92.361646 307.892699 
L 92.531695 307.767331 
L 92.956815 307.037167 
L 93.296911 306.244144 
L 93.551984 304.828606 
L 93.89208 301.386264 
L 94.3172 295.19069 
L 97.463091 241.161525 
L 102.479512 165.800115 
L 103.414776 153.363894 
L 104.775162 136.703081 
L 107.155836 108.552497 
L 108.686269 95.578345 
L 110.131679 85.281905 
L 111.747136 75.723758 
L 113.022497 69.630341 
L 113.872738 66.292463 
L 114.978051 62.811621 
L 116.508484 59.499985 
L 117.358725 58.304336 
L 118.123942 57.579631 
L 118.889158 57.158403 
L 119.569351 57.022598 
L 120.334568 57.10764 
L 121.099784 57.417416 
L 122.120073 58.079975 
L 123.31041 59.128511 
L 124.75582 60.880184 
L 126.031181 62.895766 
L 127.391566 65.519481 
L 128.922 68.971931 
L 131.472722 75.66864 
L 136.319094 89.867654 
L 139.890105 100.253995 
L 142.015707 106.809104 
L 143.801213 112.94078 
L 146.351935 122.637368 
L 146.86208 125.049917 
L 148.647585 135.446613 
L 150.603139 145.628948 
L 151.45338 150.203856 
L 154.004102 164.622427 
L 156.214728 175.886315 
L 160.380908 195.665234 
L 168.118099 229.424618 
L 176.110362 259.806852 
L 177.555772 264.23204 
L 179.086205 268.798313 
L 179.596349 271.957332 
L 180.361566 278.392841 
L 182.062048 292.878177 
L 183.932577 307.006611 
L 184.442722 311.577456 
L 184.782818 312.789686 
L 185.122914 313.32065 
L 185.548035 313.585303 
L 189.20407 314.841434 
L 193.115178 317.026249 
L 193.540298 316.88235 
L 194.220491 316.295824 
L 194.815659 315.874884 
L 195.24078 315.792247 
L 195.835948 315.924465 
L 196.431117 316.0622 
L 196.941261 315.939658 
L 198.046574 315.488212 
L 198.471695 315.627026 
L 198.981839 316.067919 
L 199.917104 317.278803 
L 201.447537 319.24276 
L 202.637874 320.417057 
L 203.913235 321.369447 
L 205.443669 322.220562 
L 207.059126 322.869811 
L 207.484247 322.427252 
L 207.654295 321.023784 
L 207.994391 316.36013 
L 208.079415 316.391636 
L 208.249463 315.939593 
L 209.694873 310.447303 
L 210.545113 308.957565 
L 211.650426 307.825794 
L 213.60598 306.915453 
L 215.731582 306.64701 
L 217.176991 306.493947 
L 217.432064 305.972039 
L 217.77216 304.544681 
L 218.282304 300.937683 
L 219.047521 292.919548 
L 222.788581 244.775396 
L 224.063942 233.072824 
L 225.934471 220.305866 
L 226.869736 215.676784 
L 227.294857 214.390906 
L 228.145097 212.64356 
L 228.655242 211.965853 
L 229.505483 211.424342 
L 230.015627 211.413539 
L 230.610796 211.692607 
L 231.205964 212.246406 
L 231.971181 213.347239 
L 232.99147 215.415528 
L 233.926735 217.833582 
L 235.28712 221.973768 
L 238.262963 232.17968 
L 240.813685 240.809602 
L 242.514166 245.721714 
L 243.874552 249.610027 
L 249.486141 265.930206 
L 251.441694 270.342628 
L 252.461983 272.825519 
L 253.057152 276.103121 
L 253.907393 282.712147 
L 257.39338 313.237088 
L 257.8185 314.215642 
L 258.328645 314.790892 
L 258.753765 315.058649 
L 259.26391 315.136374 
L 259.774054 314.950337 
L 260.964391 314.309675 
L 261.644584 314.306476 
L 262.239752 314.574527 
L 263.089993 315.027129 
L 265.640715 316.206465 
L 266.235884 316.017439 
L 267.001101 315.545202 
L 267.681293 315.197438 
L 268.361486 315.047264 
L 269.126702 314.91668 
L 269.551823 314.628275 
L 269.806895 314.36812 
L 270.657136 313.346583 
L 270.997232 313.233195 
L 271.337328 313.353308 
L 271.762449 313.779291 
L 273.632979 316.185064 
L 274.058099 316.30356 
L 274.398195 316.195831 
L 274.90834 315.671035 
L 276.098677 313.993887 
L 276.438773 313.896782 
L 276.778869 314.019476 
L 277.374038 314.534458 
L 278.564375 315.610645 
L 278.989495 315.652767 
L 279.414616 315.43311 
L 280.349881 314.844998 
L 281.455194 314.654153 
L 282.135386 314.46757 
L 283.325723 314.044399 
L 283.750844 314.215959 
L 284.260988 314.737215 
L 285.026205 315.908311 
L 286.81171 318.669847 
L 287.746975 319.766865 
L 288.937312 320.842342 
L 290.297698 321.756112 
L 291.743107 322.454061 
L 292.338275 322.602045 
L 293.018468 322.577663 
L 293.783685 322.28574 
L 294.974022 321.829463 
L 295.824263 321.744313 
L 296.844552 321.866884 
L 298.970153 322.199642 
L 302.626189 322.354488 
L 303.306381 322.16522 
L 303.731502 321.856484 
L 304.241646 321.150384 
L 304.921839 319.727725 
L 305.942128 316.925831 
L 307.387537 312.931372 
L 307.982706 312.167003 
L 308.577874 311.749765 
L 309.513139 311.318103 
L 309.768211 311.231969 
L 310.108308 310.955315 
L 310.278356 310.912924 
L 310.533428 310.715736 
L 310.618452 310.784144 
L 310.7885 310.628024 
L 310.873524 310.632722 
L 310.958548 310.471228 
L 311.043572 310.580503 
L 311.128596 310.377677 
L 311.213621 310.49994 
L 311.298645 310.291774 
L 311.383669 310.360529 
L 311.723765 310.103144 
L 311.808789 310.172364 
L 311.893813 309.978799 
L 311.978837 310.108775 
L 312.063861 309.890304 
L 312.148885 310.044064 
L 312.233909 309.802855 
L 312.318934 309.954243 
L 312.403958 309.723145 
L 312.488982 309.873755 
L 312.574006 309.633061 
L 312.65903 309.78684 
L 312.744054 309.562078 
L 312.829078 309.704439 
L 312.914102 309.510108 
L 312.999126 309.605419 
L 313.08415 309.444019 
L 313.169174 309.495423 
L 313.424247 309.332068 
L 313.679319 309.164429 
L 313.764343 309.270613 
L 313.849367 309.104676 
L 313.934391 309.176082 
L 314.274487 308.952395 
L 314.359511 309.034656 
L 314.444535 308.889205 
L 314.52956 308.963582 
L 314.869656 308.742528 
L 314.95468 308.817163 
L 315.124728 308.702012 
L 315.209752 308.752096 
L 315.294776 308.633592 
L 315.3798 308.705004 
L 315.719897 308.54418 
L 315.889945 308.57275 
L 316.145017 308.466511 
L 316.570137 308.271681 
L 316.995258 307.97518 
L 318.355643 307.705351 
L 319.460956 307.957387 
L 320.056125 308.160842 
L 320.736317 308.39157 
L 321.246462 308.605534 
L 321.84163 308.826141 
L 327.963364 311.078946 
L 329.833893 311.615213 
L 330.17399 312.295731 
L 331.194279 315.548242 
L 331.789447 317.152228 
L 333.149832 319.542531 
L 333.915049 320.440962 
L 334.935338 321.327127 
L 336.040651 322.036399 
L 337.48606 322.717616 
L 339.35659 323.352146 
L 341.822288 323.944792 
L 344.883155 324.454426 
L 349.219383 324.94096 
L 354.745948 325.339064 
L 363.418404 325.727233 
L 376.68216 326.063257 
L 396.747842 326.331497 
L 440.280169 326.59487 
L 516.63179 326.772663 
L 666.35919 326.890799 
L 671.545659 326.893018 
L 671.545659 326.893018 
" clip-path="url(#pdb3bdbfca3)" style="fill: none; stroke: #1f77b4; stroke-width: 1.5; stroke-linecap: square"/>
   </g>
   <g id="line2d_16">
    <path d="M 59.542353 327.025438 
L 64.048629 327.134419 
L 73.146205 327.762089 
L 76.462144 328.101501 
L 80.883396 328.615321 
L 82.158757 328.477102 
L 83.094022 328.190967 
L 84.369383 327.49845 
L 85.55972 326.520099 
L 86.920106 324.964381 
L 88.535563 322.782512 
L 89.555852 320.59793 
L 90.746189 318.527564 
L 92.276622 316.11228 
L 92.786767 314.323028 
L 93.722032 308.620143 
L 94.572272 301.182095 
L 95.337489 292.310514 
L 96.867923 270.823374 
L 98.313332 248.013784 
L 100.183862 217.739267 
L 101.714295 194.496422 
L 105.115258 145.146505 
L 106.305595 122.900239 
L 107.410908 105.634568 
L 108.601245 90.405613 
L 109.706558 79.224956 
L 110.641823 71.941999 
L 111.577088 66.385996 
L 112.427329 62.639677 
L 113.192545 60.180903 
L 113.872738 58.641545 
L 114.552931 57.641121 
L 115.148099 57.16561 
L 115.658244 57.023448 
L 116.168388 57.105049 
L 116.678532 57.391626 
L 117.273701 57.957779 
L 117.953894 58.885209 
L 118.804134 60.409244 
L 119.909447 62.908695 
L 122.120073 68.747321 
L 123.650507 73.339379 
L 125.691085 80.250152 
L 129.007024 92.505374 
L 137.084311 122.595182 
L 145.076574 150.871031 
L 148.987682 164.466621 
L 152.813765 176.891634 
L 156.299752 187.42405 
L 159.530667 196.559705 
L 163.526799 207.087949 
L 166.927762 215.436736 
L 170.413749 223.349694 
L 173.814712 230.609614 
L 177.045627 237.054624 
L 181.211807 244.808405 
L 184.357698 250.199445 
L 187.673637 255.421387 
L 192.264937 262.159566 
L 195.24078 266.229918 
L 198.896815 270.923359 
L 204.253332 277.527428 
L 207.314199 280.983867 
L 208.164439 281.727369 
L 209.099704 282.203413 
L 210.119993 282.138837 
L 210.545113 281.964848 
L 211.565402 281.179035 
L 213.60598 278.503925 
L 217.517088 272.638068 
L 218.027232 271.864011 
L 218.537377 270.965949 
L 219.302593 269.092652 
L 219.64269 267.984457 
L 220.152834 265.388506 
L 221.088099 258.319963 
L 222.278436 250.884782 
L 223.383749 245.348123 
L 224.404038 241.272418 
L 225.339303 238.397482 
L 226.189544 236.422945 
L 227.039784 234.974284 
L 227.805001 234.061875 
L 228.570218 233.473095 
L 229.335434 233.167575 
L 230.100651 233.109383 
L 230.865868 233.266552 
L 231.716109 233.659313 
L 232.736398 234.380982 
L 234.181807 235.716272 
L 235.967312 237.650366 
L 238.773107 241.149098 
L 244.639768 248.540431 
L 248.040731 252.868715 
L 250.93155 256.472686 
L 254.162465 260.479695 
L 258.498693 265.808372 
L 261.304487 269.019745 
L 267.681293 275.975347 
L 270.232015 278.485496 
L 277.544086 285.145694 
L 281.030073 288.015994 
L 289.447457 294.719568 
L 294.208805 298.482267 
L 298.460009 301.569234 
L 302.541165 304.261433 
L 307.302513 307.136851 
L 309.002995 307.899492 
L 310.193332 308.155801 
L 311.468693 308.125484 
L 312.574006 307.794558 
L 314.104439 306.806893 
L 315.464824 305.565702 
L 316.145017 304.836227 
L 316.570137 304.048389 
L 317.845499 301.935976 
L 318.865787 300.676505 
L 319.886076 299.751078 
L 320.991389 299.047858 
L 322.181726 298.577161 
L 323.457088 298.340361 
L 324.902497 298.332106 
L 326.347906 298.538863 
L 327.87834 298.987323 
L 329.663845 299.752189 
L 332.129543 301.077168 
L 336.040651 303.471565 
L 342.672529 307.512924 
L 346.753685 309.724419 
L 350.749816 311.634137 
L 354.830972 313.332351 
L 359.082176 314.858404 
L 363.673476 316.267836 
L 368.689897 317.572702 
L 374.301486 318.797851 
L 380.593267 319.939699 
L 387.820314 321.018331 
L 396.067649 322.018602 
L 405.590346 322.944525 
L 416.643476 323.790512 
L 429.567136 324.550003 
L 444.701421 325.210581 
L 462.81155 325.77118 
L 485.002834 326.226902 
L 513.4859 326.577843 
L 552.767023 326.82393 
L 615.344744 326.96892 
L 671.545659 327.007394 
L 671.545659 327.007394 
" clip-path="url(#pdb3bdbfca3)" style="fill: none; stroke: #ff7f0e; stroke-width: 1.5; stroke-linecap: square"/>
   </g>
   <g id="patch_3">
    <path d="M 28.942187 342.2 
L 28.942187 43.44 
" style="fill: none; stroke: #000000; stroke-width: 0.8; stroke-linejoin: miter; stroke-linecap: square"/>
   </g>
   <g id="patch_4">
    <path d="M 702.145824 342.2 
L 702.145824 43.44 
" style="fill: none; stroke: #000000; stroke-width: 0.8; stroke-linejoin: miter; stroke-linecap: square"/>
   </g>
   <g id="patch_5">
    <path d="M 28.942187 342.2 
L 702.145824 342.2 
" style="fill: none; stroke: #000000; stroke-width: 0.8; stroke-linejoin: miter; stroke-linecap: square"/>
   </g>
   <g id="patch_6">
    <path d="M 28.942187 43.44 
L 702.145824 43.44 
" style="fill: none; stroke: #000000; stroke-width: 0.8; stroke-linejoin: miter; stroke-linecap: square"/>
   </g>
   <g id="text_15">
    <!-- 1 transformation(s) -->
    <g transform="translate(307.429318 37.44) scale(0.12 -0.12)">
     <defs>
      <path id="DejaVuSans-20" transform="scale(0.015625)"/>
      <path id="DejaVuSans-74" d="M 1172 4494 
L 1172 3500 
L 2356 3500 
L 2356 3053 
L 1172 3053 
L 1172 1153 
Q 1172 725 1289 603 
Q 1406 481 1766 481 
L 2356 481 
L 2356 0 
L 1766 0 
Q 1100 0 847 248 
Q 594 497 594 1153 
L 594 3053 
L 172 3053 
L 172 3500 
L 594 3500 
L 594 4494 
L 1172 4494 
z
" transform="scale(0.015625)"/>
      <path id="DejaVuSans-72" d="M 2631 2963 
Q 2534 3019 2420 3045 
Q 2306 3072 2169 3072 
Q 1681 3072 1420 2755 
Q 1159 2438 1159 1844 
L 1159 0 
L 581 0 
L 581 3500 
L 1159 3500 
L 1159 2956 
Q 1341 3275 1631 3429 
Q 1922 3584 2338 3584 
Q 2397 3584 2469 3576 
Q 2541 3569 2628 3553 
L 2631 2963 
z
" transform="scale(0.015625)"/>
      <path id="DejaVuSans-61" d="M 2194 1759 
Q 1497 1759 1228 1600 
Q 959 1441 959 1056 
Q 959 750 1161 570 
Q 1363 391 1709 391 
Q 2188 391 2477 730 
Q 2766 1069 2766 1631 
L 2766 1759 
L 2194 1759 
z
M 3341 1997 
L 3341 0 
L 2766 0 
L 2766 531 
Q 2569 213 2275 61 
Q 1981 -91 1556 -91 
Q 1019 -91 701 211 
Q 384 513 384 1019 
Q 384 1609 779 1909 
Q 1175 2209 1959 2209 
L 2766 2209 
L 2766 2266 
Q 2766 2663 2505 2880 
Q 2244 3097 1772 3097 
Q 1472 3097 1187 3025 
Q 903 2953 641 2809 
L 641 3341 
Q 956 3463 1253 3523 
Q 1550 3584 1831 3584 
Q 2591 3584 2966 3190 
Q 3341 2797 3341 1997 
z
" transform="scale(0.015625)"/>
      <path id="DejaVuSans-6e" d="M 3513 2113 
L 3513 0 
L 2938 0 
L 2938 2094 
Q 2938 2591 2744 2837 
Q 2550 3084 2163 3084 
Q 1697 3084 1428 2787 
Q 1159 2491 1159 1978 
L 1159 0 
L 581 0 
L 581 3500 
L 1159 3500 
L 1159 2956 
Q 1366 3272 1645 3428 
Q 1925 3584 2291 3584 
Q 2894 3584 3203 3211 
Q 3513 2838 3513 2113 
z
" transform="scale(0.015625)"/>
      <path id="DejaVuSans-73" d="M 2834 3397 
L 2834 2853 
Q 2591 2978 2328 3040 
Q 2066 3103 1784 3103 
Q 1356 3103 1142 2972 
Q 928 2841 928 2578 
Q 928 2378 1081 2264 
Q 1234 2150 1697 2047 
L 1894 2003 
Q 2506 1872 2764 1633 
Q 3022 1394 3022 966 
Q 3022 478 2636 193 
Q 2250 -91 1575 -91 
Q 1294 -91 989 -36 
Q 684 19 347 128 
L 347 722 
Q 666 556 975 473 
Q 1284 391 1588 391 
Q 1994 391 2212 530 
Q 2431 669 2431 922 
Q 2431 1156 2273 1281 
Q 2116 1406 1581 1522 
L 1381 1569 
Q 847 1681 609 1914 
Q 372 2147 372 2553 
Q 372 3047 722 3315 
Q 1072 3584 1716 3584 
Q 2034 3584 2315 3537 
Q 2597 3491 2834 3397 
z
" transform="scale(0.015625)"/>
      <path id="DejaVuSans-66" d="M 2375 4863 
L 2375 4384 
L 1825 4384 
Q 1516 4384 1395 4259 
Q 1275 4134 1275 3809 
L 1275 3500 
L 2222 3500 
L 2222 3053 
L 1275 3053 
L 1275 0 
L 697 0 
L 697 3053 
L 147 3053 
L 147 3500 
L 697 3500 
L 697 3744 
Q 697 4328 969 4595 
Q 1241 4863 1831 4863 
L 2375 4863 
z
" transform="scale(0.015625)"/>
      <path id="DejaVuSans-6f" d="M 1959 3097 
Q 1497 3097 1228 2736 
Q 959 2375 959 1747 
Q 959 1119 1226 758 
Q 1494 397 1959 397 
Q 2419 397 2687 759 
Q 2956 1122 2956 1747 
Q 2956 2369 2687 2733 
Q 2419 3097 1959 3097 
z
M 1959 3584 
Q 2709 3584 3137 3096 
Q 3566 2609 3566 1747 
Q 3566 888 3137 398 
Q 2709 -91 1959 -91 
Q 1206 -91 779 398 
Q 353 888 353 1747 
Q 353 2609 779 3096 
Q 1206 3584 1959 3584 
z
" transform="scale(0.015625)"/>
      <path id="DejaVuSans-6d" d="M 3328 2828 
Q 3544 3216 3844 3400 
Q 4144 3584 4550 3584 
Q 5097 3584 5394 3201 
Q 5691 2819 5691 2113 
L 5691 0 
L 5113 0 
L 5113 2094 
Q 5113 2597 4934 2840 
Q 4756 3084 4391 3084 
Q 3944 3084 3684 2787 
Q 3425 2491 3425 1978 
L 3425 0 
L 2847 0 
L 2847 2094 
Q 2847 2600 2669 2842 
Q 2491 3084 2119 3084 
Q 1678 3084 1418 2786 
Q 1159 2488 1159 1978 
L 1159 0 
L 581 0 
L 581 3500 
L 1159 3500 
L 1159 2956 
Q 1356 3278 1631 3431 
Q 1906 3584 2284 3584 
Q 2666 3584 2933 3390 
Q 3200 3197 3328 2828 
z
" transform="scale(0.015625)"/>
      <path id="DejaVuSans-69" d="M 603 3500 
L 1178 3500 
L 1178 0 
L 603 0 
L 603 3500 
z
M 603 4863 
L 1178 4863 
L 1178 4134 
L 603 4134 
L 603 4863 
z
" transform="scale(0.015625)"/>
      <path id="DejaVuSans-28" d="M 1984 4856 
Q 1566 4138 1362 3434 
Q 1159 2731 1159 2009 
Q 1159 1288 1364 580 
Q 1569 -128 1984 -844 
L 1484 -844 
Q 1016 -109 783 600 
Q 550 1309 550 2009 
Q 550 2706 781 3412 
Q 1013 4119 1484 4856 
L 1984 4856 
z
" transform="scale(0.015625)"/>
      <path id="DejaVuSans-29" d="M 513 4856 
L 1013 4856 
Q 1481 4119 1714 3412 
Q 1947 2706 1947 2009 
Q 1947 1309 1714 600 
Q 1481 -109 1013 -844 
L 513 -844 
Q 928 -128 1133 580 
Q 1338 1288 1338 2009 
Q 1338 2731 1133 3434 
Q 928 4138 513 4856 
z
" transform="scale(0.015625)"/>
     </defs>
     <use xlink:href="#DejaVuSans-31"/>
     <use xlink:href="#DejaVuSans-20" x="63.623047"/>
     <use xlink:href="#DejaVuSans-74" x="95.410156"/>
     <use xlink:href="#DejaVuSans-72" x="134.619141"/>
     <use xlink:href="#DejaVuSans-61" x="175.732422"/>
     <use xlink:href="#DejaVuSans-6e" x="237.011719"/>
     <use xlink:href="#DejaVuSans-73" x="300.390625"/>
     <use xlink:href="#DejaVuSans-66" x="352.490234"/>
     <use xlink:href="#DejaVuSans-6f" x="387.695312"/>
     <use xlink:href="#DejaVuSans-72" x="448.876953"/>
     <use xlink:href="#DejaVuSans-6d" x="488.240234"/>
     <use xlink:href="#DejaVuSans-61" x="585.652344"/>
     <use xlink:href="#DejaVuSans-74" x="646.931641"/>
     <use xlink:href="#DejaVuSans-69" x="686.140625"/>
     <use xlink:href="#DejaVuSans-6f" x="713.923828"/>
     <use xlink:href="#DejaVuSans-6e" x="775.105469"/>
     <use xlink:href="#DejaVuSans-28" x="838.484375"/>
     <use xlink:href="#DejaVuSans-73" x="877.498047"/>
     <use xlink:href="#DejaVuSans-29" x="929.597656"/>
    </g>
   </g>
   <g id="legend_1">
    <g id="patch_7">
     <path d="M 613.752074 80.79625 
L 695.145824 80.79625 
Q 697.145824 80.79625 697.145824 78.79625 
L 697.145824 50.44 
Q 697.145824 48.44 695.145824 48.44 
L 613.752074 48.44 
Q 611.752074 48.44 611.752074 50.44 
L 611.752074 78.79625 
Q 611.752074 80.79625 613.752074 80.79625 
z
" style="fill: #ffffff; opacity: 0.8; stroke: #cccccc; stroke-linejoin: miter"/>
    </g>
    <g id="line2d_17">
     <path d="M 615.752074 56.538437 
L 625.752074 56.538437 
L 635.752074 56.538437 
" style="fill: none; stroke: #1f77b4; stroke-width: 1.5; stroke-linecap: square"/>
    </g>
    <g id="text_16">
     <!-- observed -->
     <g transform="translate(643.752074 60.038437) scale(0.1 -0.1)">
      <defs>
       <path id="DejaVuSans-62" d="M 3116 1747 
Q 3116 2381 2855 2742 
Q 2594 3103 2138 3103 
Q 1681 3103 1420 2742 
Q 1159 2381 1159 1747 
Q 1159 1113 1420 752 
Q 1681 391 2138 391 
Q 2594 391 2855 752 
Q 3116 1113 3116 1747 
z
M 1159 2969 
Q 1341 3281 1617 3432 
Q 1894 3584 2278 3584 
Q 2916 3584 3314 3078 
Q 3713 2572 3713 1747 
Q 3713 922 3314 415 
Q 2916 -91 2278 -91 
Q 1894 -91 1617 61 
Q 1341 213 1159 525 
L 1159 0 
L 581 0 
L 581 4863 
L 1159 4863 
L 1159 2969 
z
" transform="scale(0.015625)"/>
       <path id="DejaVuSans-65" d="M 3597 1894 
L 3597 1613 
L 953 1613 
Q 991 1019 1311 708 
Q 1631 397 2203 397 
Q 2534 397 2845 478 
Q 3156 559 3463 722 
L 3463 178 
Q 3153 47 2828 -22 
Q 2503 -91 2169 -91 
Q 1331 -91 842 396 
Q 353 884 353 1716 
Q 353 2575 817 3079 
Q 1281 3584 2069 3584 
Q 2775 3584 3186 3129 
Q 3597 2675 3597 1894 
z
M 3022 2063 
Q 3016 2534 2758 2815 
Q 2500 3097 2075 3097 
Q 1594 3097 1305 2825 
Q 1016 2553 972 2059 
L 3022 2063 
z
" transform="scale(0.015625)"/>
       <path id="DejaVuSans-76" d="M 191 3500 
L 800 3500 
L 1894 563 
L 2988 3500 
L 3597 3500 
L 2284 0 
L 1503 0 
L 191 3500 
z
" transform="scale(0.015625)"/>
       <path id="DejaVuSans-64" d="M 2906 2969 
L 2906 4863 
L 3481 4863 
L 3481 0 
L 2906 0 
L 2906 525 
Q 2725 213 2448 61 
Q 2172 -91 1784 -91 
Q 1150 -91 751 415 
Q 353 922 353 1747 
Q 353 2572 751 3078 
Q 1150 3584 1784 3584 
Q 2172 3584 2448 3432 
Q 2725 3281 2906 2969 
z
M 947 1747 
Q 947 1113 1208 752 
Q 1469 391 1925 391 
Q 2381 391 2643 752 
Q 2906 1113 2906 1747 
Q 2906 2381 2643 2742 
Q 2381 3103 1925 3103 
Q 1469 3103 1208 2742 
Q 947 2381 947 1747 
z
" transform="scale(0.015625)"/>
      </defs>
      <use xlink:href="#DejaVuSans-6f"/>
      <use xlink:href="#DejaVuSans-62" x="61.181641"/>
      <use xlink:href="#DejaVuSans-73" x="124.658203"/>
      <use xlink:href="#DejaVuSans-65" x="176.757812"/>
      <use xlink:href="#DejaVuSans-72" x="238.28125"/>
      <use xlink:href="#DejaVuSans-76" x="279.394531"/>
      <use xlink:href="#DejaVuSans-65" x="338.574219"/>
      <use xlink:href="#DejaVuSans-64" x="400.097656"/>
     </g>
    </g>
    <g id="line2d_18">
     <path d="M 615.752074 71.216563 
L 625.752074 71.216563 
L 635.752074 71.216563 
" style="fill: none; stroke: #ff7f0e; stroke-width: 1.5; stroke-linecap: square"/>
    </g>
    <g id="text_17">
     <!-- simulated -->
     <g transform="translate(643.752074 74.716563) scale(0.1 -0.1)">
      <defs>
       <path id="DejaVuSans-75" d="M 544 1381 
L 544 3500 
L 1119 3500 
L 1119 1403 
Q 1119 906 1312 657 
Q 1506 409 1894 409 
Q 2359 409 2629 706 
Q 2900 1003 2900 1516 
L 2900 3500 
L 3475 3500 
L 3475 0 
L 2900 0 
L 2900 538 
Q 2691 219 2414 64 
Q 2138 -91 1772 -91 
Q 1169 -91 856 284 
Q 544 659 544 1381 
z
M 1991 3584 
L 1991 3584 
z
" transform="scale(0.015625)"/>
       <path id="DejaVuSans-6c" d="M 603 4863 
L 1178 4863 
L 1178 0 
L 603 0 
L 603 4863 
z
" transform="scale(0.015625)"/>
      </defs>
      <use xlink:href="#DejaVuSans-73"/>
      <use xlink:href="#DejaVuSans-69" x="52.099609"/>
      <use xlink:href="#DejaVuSans-6d" x="79.882812"/>
      <use xlink:href="#DejaVuSans-75" x="177.294922"/>
      <use xlink:href="#DejaVuSans-6c" x="240.673828"/>
      <use xlink:href="#DejaVuSans-61" x="268.457031"/>
      <use xlink:href="#DejaVuSans-74" x="329.736328"/>
      <use xlink:href="#DejaVuSans-65" x="368.945312"/>
      <use xlink:href="#DejaVuSans-64" x="430.46875"/>
     </g>
    </g>
   </g>
  </g>
  <g id="axes_2">
   <g id="patch_8">
    <path d="M 28.942187 684.92 
L 702.145824 684.92 
L 702.145824 386.16 
L 28.942187 386.16 
z
" style="fill: #ffffff"/>
   </g>
   <g id="matplotlib.axis_3">
    <g id="xtick_7">
     <g id="line2d_19">
      <g>
       <use xlink:href="#m0d3fabbfa8" x="59.372305" y="684.92" style="stroke: #000000; stroke-width: 0.8"/>
      </g>
     </g>
     <g id="text_18">
      <!-- 2014-07-01 -->
      <g transform="translate(30.314492 699.518437) scale(0.1 -0.1)">
       <use xlink:href="#DejaVuSans-32"/>
       <use xlink:href="#DejaVuSans-30" x="63.623047"/>
       <use xlink:href="#DejaVuSans-31" x="127.246094"/>
       <use xlink:href="#DejaVuSans-34" x="190.869141"/>
       <use xlink:href="#DejaVuSans-2d" x="254.492188"/>
       <use xlink:href="#DejaVuSans-30" x="290.576172"/>
       <use xlink:href="#DejaVuSans-37" x="354.199219"/>
       <use xlink:href="#DejaVuSans-2d" x="417.822266"/>
       <use xlink:href="#DejaVuSans-30" x="453.90625"/>
       <use xlink:href="#DejaVuSans-31" x="517.529297"/>
      </g>
     </g>
    </g>
    <g id="xtick_8">
     <g id="line2d_20">
      <g>
       <use xlink:href="#m0d3fabbfa8" x="181.806975" y="684.92" style="stroke: #000000; stroke-width: 0.8"/>
      </g>
     </g>
     <g id="text_19">
      <!-- 2014-07-02 -->
      <g transform="translate(152.749163 699.518437) scale(0.1 -0.1)">
       <use xlink:href="#DejaVuSans-32"/>
       <use xlink:href="#DejaVuSans-30" x="63.623047"/>
       <use xlink:href="#DejaVuSans-31" x="127.246094"/>
       <use xlink:href="#DejaVuSans-34" x="190.869141"/>
       <use xlink:href="#DejaVuSans-2d" x="254.492188"/>
       <use xlink:href="#DejaVuSans-30" x="290.576172"/>
       <use xlink:href="#DejaVuSans-37" x="354.199219"/>
       <use xlink:href="#DejaVuSans-2d" x="417.822266"/>
       <use xlink:href="#DejaVuSans-30" x="453.90625"/>
       <use xlink:href="#DejaVuSans-32" x="517.529297"/>
      </g>
     </g>
    </g>
    <g id="xtick_9">
     <g id="line2d_21">
      <g>
       <use xlink:href="#m0d3fabbfa8" x="304.241646" y="684.92" style="stroke: #000000; stroke-width: 0.8"/>
      </g>
     </g>
     <g id="text_20">
      <!-- 2014-07-03 -->
      <g transform="translate(275.183834 699.518437) scale(0.1 -0.1)">
       <use xlink:href="#DejaVuSans-32"/>
       <use xlink:href="#DejaVuSans-30" x="63.623047"/>
       <use xlink:href="#DejaVuSans-31" x="127.246094"/>
       <use xlink:href="#DejaVuSans-34" x="190.869141"/>
       <use xlink:href="#DejaVuSans-2d" x="254.492188"/>
       <use xlink:href="#DejaVuSans-30" x="290.576172"/>
       <use xlink:href="#DejaVuSans-37" x="354.199219"/>
       <use xlink:href="#DejaVuSans-2d" x="417.822266"/>
       <use xlink:href="#DejaVuSans-30" x="453.90625"/>
       <use xlink:href="#DejaVuSans-33" x="517.529297"/>
      </g>
     </g>
    </g>
    <g id="xtick_10">
     <g id="line2d_22">
      <g>
       <use xlink:href="#m0d3fabbfa8" x="426.676317" y="684.92" style="stroke: #000000; stroke-width: 0.8"/>
      </g>
     </g>
     <g id="text_21">
      <!-- 2014-07-04 -->
      <g transform="translate(397.618504 699.518437) scale(0.1 -0.1)">
       <use xlink:href="#DejaVuSans-32"/>
       <use xlink:href="#DejaVuSans-30" x="63.623047"/>
       <use xlink:href="#DejaVuSans-31" x="127.246094"/>
       <use xlink:href="#DejaVuSans-34" x="190.869141"/>
       <use xlink:href="#DejaVuSans-2d" x="254.492188"/>
       <use xlink:href="#DejaVuSans-30" x="290.576172"/>
       <use xlink:href="#DejaVuSans-37" x="354.199219"/>
       <use xlink:href="#DejaVuSans-2d" x="417.822266"/>
       <use xlink:href="#DejaVuSans-30" x="453.90625"/>
       <use xlink:href="#DejaVuSans-34" x="517.529297"/>
      </g>
     </g>
    </g>
    <g id="xtick_11">
     <g id="line2d_23">
      <g>
       <use xlink:href="#m0d3fabbfa8" x="549.110988" y="684.92" style="stroke: #000000; stroke-width: 0.8"/>
      </g>
     </g>
     <g id="text_22">
      <!-- 2014-07-05 -->
      <g transform="translate(520.053175 699.518437) scale(0.1 -0.1)">
       <use xlink:href="#DejaVuSans-32"/>
       <use xlink:href="#DejaVuSans-30" x="63.623047"/>
       <use xlink:href="#DejaVuSans-31" x="127.246094"/>
       <use xlink:href="#DejaVuSans-34" x="190.869141"/>
       <use xlink:href="#DejaVuSans-2d" x="254.492188"/>
       <use xlink:href="#DejaVuSans-30" x="290.576172"/>
       <use xlink:href="#DejaVuSans-37" x="354.199219"/>
       <use xlink:href="#DejaVuSans-2d" x="417.822266"/>
       <use xlink:href="#DejaVuSans-30" x="453.90625"/>
       <use xlink:href="#DejaVuSans-35" x="517.529297"/>
      </g>
     </g>
    </g>
    <g id="xtick_12">
     <g id="line2d_24">
      <g>
       <use xlink:href="#m0d3fabbfa8" x="671.545659" y="684.92" style="stroke: #000000; stroke-width: 0.8"/>
      </g>
     </g>
     <g id="text_23">
      <!-- 2014-07-06 -->
      <g transform="translate(642.487846 699.518437) scale(0.1 -0.1)">
       <use xlink:href="#DejaVuSans-32"/>
       <use xlink:href="#DejaVuSans-30" x="63.623047"/>
       <use xlink:href="#DejaVuSans-31" x="127.246094"/>
       <use xlink:href="#DejaVuSans-34" x="190.869141"/>
       <use xlink:href="#DejaVuSans-2d" x="254.492188"/>
       <use xlink:href="#DejaVuSans-30" x="290.576172"/>
       <use xlink:href="#DejaVuSans-37" x="354.199219"/>
       <use xlink:href="#DejaVuSans-2d" x="417.822266"/>
       <use xlink:href="#DejaVuSans-30" x="453.90625"/>
       <use xlink:href="#DejaVuSans-36" x="517.529297"/>
      </g>
     </g>
    </g>
   </g>
   <g id="matplotlib.axis_4">
    <g id="ytick_9">
     <g id="line2d_25">
      <g>
       <use xlink:href="#m745e5eaf6a" x="28.942187" y="684.083615" style="stroke: #000000; stroke-width: 0.8"/>
      </g>
     </g>
     <g id="text_24">
      <!-- −1 -->
      <g transform="translate(7.2 687.882834) scale(0.1 -0.1)">
       <defs>
        <path id="DejaVuSans-2212" d="M 678 2272 
L 4684 2272 
L 4684 1741 
L 678 1741 
L 678 2272 
z
" transform="scale(0.015625)"/>
       </defs>
       <use xlink:href="#DejaVuSans-2212"/>
       <use xlink:href="#DejaVuSans-31" x="83.789062"/>
      </g>
     </g>
    </g>
    <g id="ytick_10">
     <g id="line2d_26">
      <g>
       <use xlink:href="#m745e5eaf6a" x="28.942187" y="649.241822" style="stroke: #000000; stroke-width: 0.8"/>
      </g>
     </g>
     <g id="text_25">
      <!-- 0 -->
      <g transform="translate(15.579687 653.041041) scale(0.1 -0.1)">
       <use xlink:href="#DejaVuSans-30"/>
      </g>
     </g>
    </g>
    <g id="ytick_11">
     <g id="line2d_27">
      <g>
       <use xlink:href="#m745e5eaf6a" x="28.942187" y="614.400029" style="stroke: #000000; stroke-width: 0.8"/>
      </g>
     </g>
     <g id="text_26">
      <!-- 1 -->
      <g transform="translate(15.579687 618.199248) scale(0.1 -0.1)">
       <use xlink:href="#DejaVuSans-31"/>
      </g>
     </g>
    </g>
    <g id="ytick_12">
     <g id="line2d_28">
      <g>
       <use xlink:href="#m745e5eaf6a" x="28.942187" y="579.558236" style="stroke: #000000; stroke-width: 0.8"/>
      </g>
     </g>
     <g id="text_27">
      <!-- 2 -->
      <g transform="translate(15.579687 583.357455) scale(0.1 -0.1)">
       <use xlink:href="#DejaVuSans-32"/>
      </g>
     </g>
    </g>
    <g id="ytick_13">
     <g id="line2d_29">
      <g>
       <use xlink:href="#m745e5eaf6a" x="28.942187" y="544.716444" style="stroke: #000000; stroke-width: 0.8"/>
      </g>
     </g>
     <g id="text_28">
      <!-- 3 -->
      <g transform="translate(15.579687 548.515662) scale(0.1 -0.1)">
       <use xlink:href="#DejaVuSans-33"/>
      </g>
     </g>
    </g>
    <g id="ytick_14">
     <g id="line2d_30">
      <g>
       <use xlink:href="#m745e5eaf6a" x="28.942187" y="509.874651" style="stroke: #000000; stroke-width: 0.8"/>
      </g>
     </g>
     <g id="text_29">
      <!-- 4 -->
      <g transform="translate(15.579687 513.673869) scale(0.1 -0.1)">
       <use xlink:href="#DejaVuSans-34"/>
      </g>
     </g>
    </g>
    <g id="ytick_15">
     <g id="line2d_31">
      <g>
       <use xlink:href="#m745e5eaf6a" x="28.942187" y="475.032858" style="stroke: #000000; stroke-width: 0.8"/>
      </g>
     </g>
     <g id="text_30">
      <!-- 5 -->
      <g transform="translate(15.579687 478.832077) scale(0.1 -0.1)">
       <use xlink:href="#DejaVuSans-35"/>
      </g>
     </g>
    </g>
    <g id="ytick_16">
     <g id="line2d_32">
      <g>
       <use xlink:href="#m745e5eaf6a" x="28.942187" y="440.191065" style="stroke: #000000; stroke-width: 0.8"/>
      </g>
     </g>
     <g id="text_31">
      <!-- 6 -->
      <g transform="translate(15.579687 443.990284) scale(0.1 -0.1)">
       <use xlink:href="#DejaVuSans-36"/>
      </g>
     </g>
    </g>
    <g id="ytick_17">
     <g id="line2d_33">
      <g>
       <use xlink:href="#m745e5eaf6a" x="28.942187" y="405.349272" style="stroke: #000000; stroke-width: 0.8"/>
      </g>
     </g>
     <g id="text_32">
      <!-- 7 -->
      <g transform="translate(15.579687 409.148491) scale(0.1 -0.1)">
       <use xlink:href="#DejaVuSans-37"/>
      </g>
     </g>
    </g>
   </g>
   <g id="line2d_34">
    <path d="M 59.542353 649.241822 
L 66.429303 649.13808 
L 67.789688 648.77749 
L 69.235098 648.416251 
L 70.765531 648.297587 
L 75.781951 648.084636 
L 76.462144 647.771612 
L 76.887264 647.34446 
L 77.312385 646.684407 
L 78.842818 643.323773 
L 80.288228 637.444141 
L 80.883396 636.261368 
L 81.478565 635.635013 
L 81.988709 635.308652 
L 82.413829 635.045579 
L 83.179046 634.563241 
L 83.26407 634.634342 
L 83.349094 634.465859 
L 83.434118 634.544803 
L 83.604167 634.419101 
L 84.284359 634.025389 
L 84.369383 634.123902 
L 84.454407 633.95183 
L 84.539431 634.049199 
L 84.624455 633.879941 
L 84.70948 633.986661 
L 84.794504 633.812855 
L 84.879528 633.911297 
L 84.964552 633.747825 
L 85.049576 633.83085 
L 85.1346 633.689902 
L 85.219624 633.774048 
L 85.389672 633.678744 
L 85.644744 633.551957 
L 85.899817 633.400365 
L 85.984841 633.479377 
L 86.069865 633.333111 
L 86.154889 633.407028 
L 86.324937 633.297112 
L 86.580009 633.246053 
L 86.750057 633.181139 
L 87.090154 633.000305 
L 87.175178 633.060668 
L 87.345226 632.974911 
L 87.685322 632.885354 
L 89.045707 632.464822 
L 89.555852 632.209969 
L 90.065996 632.075487 
L 90.916237 632.110089 
L 92.191598 632.322688 
L 92.616719 632.018545 
L 92.956815 631.474369 
L 93.296911 630.769455 
L 93.551984 629.511192 
L 93.89208 626.451315 
L 94.3172 620.944107 
L 97.463091 572.917909 
L 102.479512 505.929606 
L 103.414776 494.875125 
L 104.775162 480.065429 
L 107.155836 455.042545 
L 108.686269 443.5099 
L 110.131679 434.357456 
L 111.747136 425.861277 
L 113.022497 420.444876 
L 113.872738 417.477856 
L 114.978051 414.383757 
L 116.508484 411.440063 
L 117.358725 410.377258 
L 118.123942 409.733072 
L 118.889158 409.358645 
L 119.569351 409.237929 
L 120.334568 409.313522 
L 121.184809 409.629368 
L 122.290122 410.295202 
L 123.395435 411.193214 
L 124.585772 412.458659 
L 125.776109 414.068874 
L 127.05147 416.165361 
L 128.666927 419.324005 
L 130.622481 423.74512 
L 132.833107 429.266986 
L 141.505563 452.037978 
L 143.631165 458.395621 
L 146.351935 467.562501 
L 146.86208 469.707002 
L 148.647585 478.948562 
L 150.603139 487.999578 
L 151.45338 492.066186 
L 154.004102 504.882767 
L 156.214728 514.895169 
L 160.380908 532.47653 
L 168.118099 562.485043 
L 176.195386 589.741312 
L 177.810844 594.106845 
L 178.406012 595.543936 
L 179.086205 597.484082 
L 179.596349 600.292115 
L 180.361566 606.0126 
L 182.062048 618.888528 
L 183.932577 631.447207 
L 184.442722 635.510204 
L 184.782818 636.587748 
L 185.122914 637.059719 
L 185.548035 637.294967 
L 189.289094 638.455775 
L 193.030154 640.339512 
L 193.37025 640.305588 
L 193.965418 639.920226 
L 194.815659 639.330162 
L 195.325804 639.261538 
L 196.09102 639.443013 
L 196.516141 639.493398 
L 197.026285 639.350193 
L 198.046574 638.986451 
L 198.471695 639.109842 
L 198.981839 639.50175 
L 200.002128 640.684432 
L 201.872658 642.729036 
L 203.148019 643.739652 
L 205.103573 644.82194 
L 206.889078 645.508974 
L 207.14415 645.478752 
L 207.484247 645.154522 
L 207.654295 643.906988 
L 207.994391 639.761494 
L 208.079415 639.7895 
L 208.249463 639.387681 
L 209.694873 634.505618 
L 210.545113 633.181398 
L 211.735451 632.135626 
L 213.010812 631.532397 
L 213.691004 631.352772 
L 215.646558 631.121023 
L 217.006943 631.115599 
L 217.176991 630.991504 
L 217.432064 630.527582 
L 217.77216 629.258813 
L 218.282304 626.052574 
L 219.047521 618.925302 
L 222.788581 576.130257 
L 224.063942 565.727911 
L 225.934471 554.379439 
L 226.869736 550.264676 
L 227.294857 549.121667 
L 228.145097 547.568462 
L 228.655242 546.966052 
L 229.505483 546.484707 
L 230.015627 546.475104 
L 230.610796 546.723165 
L 231.205964 547.215434 
L 231.971181 548.193957 
L 232.99147 550.032447 
L 233.926735 552.181841 
L 235.28712 555.862027 
L 238.262963 564.934001 
L 240.813685 572.605086 
L 242.514166 576.971433 
L 243.874552 580.427731 
L 249.486141 594.934639 
L 251.526719 599.021284 
L 252.376959 600.754778 
L 252.887104 603.007933 
L 253.567296 607.373275 
L 255.182754 619.710567 
L 256.713187 632.650236 
L 257.053284 635.562363 
L 257.39338 636.985441 
L 257.8185 637.855271 
L 258.328645 638.366607 
L 258.838789 638.632315 
L 259.348934 638.658043 
L 259.944102 638.420639 
L 260.964391 637.938857 
L 261.644584 637.936014 
L 262.324776 638.22512 
L 265.555691 639.629239 
L 266.15086 639.492289 
L 267.086125 638.985687 
L 267.851341 638.684341 
L 268.701582 638.566203 
L 269.211727 638.447634 
L 269.721871 638.062005 
L 270.146991 637.56698 
L 270.74216 637.030654 
L 271.16728 637.010136 
L 271.592401 637.291856 
L 272.102545 637.903135 
L 273.292882 639.377006 
L 273.888051 639.691049 
L 274.228147 639.683914 
L 274.568243 639.504997 
L 275.163412 638.805827 
L 275.928629 637.781856 
L 276.353749 637.574315 
L 276.693845 637.637469 
L 277.289014 638.062657 
L 278.564375 639.095281 
L 278.989495 639.132723 
L 279.49964 638.881255 
L 280.349881 638.414703 
L 281.540218 638.235077 
L 282.135386 638.079208 
L 283.325723 637.703055 
L 283.750844 637.855554 
L 284.260988 638.318895 
L 285.026205 639.359874 
L 286.81171 641.814588 
L 287.746975 642.78972 
L 288.937312 643.745705 
L 290.382722 644.601035 
L 291.913155 645.230184 
L 292.763396 645.318655 
L 293.443588 645.167876 
L 295.314118 644.570765 
L 296.334407 644.580496 
L 301.435852 645.060513 
L 302.966285 645.040157 
L 303.47643 644.83593 
L 303.986574 644.374987 
L 304.496718 643.592357 
L 305.261935 641.980936 
L 307.727633 636.264654 
L 308.577874 635.663368 
L 309.513139 635.279667 
L 309.853235 635.116054 
L 310.958548 634.526884 
L 311.043572 634.624018 
L 311.128596 634.443728 
L 311.213621 634.552406 
L 311.298645 634.367369 
L 311.383669 634.428485 
L 311.723765 634.199697 
L 311.808789 634.261226 
L 311.893813 634.089167 
L 311.978837 634.204702 
L 312.063861 634.010505 
L 312.148885 634.147181 
L 312.233909 633.932772 
L 312.318934 634.06734 
L 312.403958 633.861918 
L 312.488982 633.995794 
L 312.574006 633.781843 
L 312.65903 633.918536 
L 312.744054 633.718747 
L 312.829078 633.84529 
L 312.914102 633.672551 
L 312.999126 633.757272 
L 313.169174 633.659498 
L 313.424247 633.514292 
L 313.679319 633.365279 
L 313.764343 633.459665 
L 313.849367 633.312165 
L 313.934391 633.375637 
L 314.274487 633.176803 
L 314.359511 633.249924 
L 314.444535 633.120634 
L 314.52956 633.186747 
L 314.869656 632.990254 
L 315.039704 632.98744 
L 315.549848 632.850858 
L 315.634873 632.904971 
L 315.804921 632.84677 
L 316.315065 632.718 
L 316.655161 632.493464 
L 318.100571 632.053475 
L 319.716028 632.367824 
L 320.651293 632.674744 
L 320.991389 632.771711 
L 322.096702 633.154014 
L 322.946943 633.435235 
L 324.477377 633.948329 
L 328.30346 635.144105 
L 329.833893 635.543766 
L 330.17399 636.148675 
L 331.194279 639.039812 
L 331.789447 640.465585 
L 333.149832 642.590311 
L 334.000073 643.466016 
L 335.105386 644.287883 
L 336.550795 645.043433 
L 338.336301 645.689796 
L 340.121807 646.160356 
L 343.012625 646.700261 
L 347.093781 647.200456 
L 352.535322 647.619822 
L 360.867681 648.004279 
L 372.856076 648.317915 
L 393.261855 648.593625 
L 429.227039 648.817702 
L 496.39606 648.988662 
L 651.650025 649.116204 
L 671.545659 649.124114 
L 671.545659 649.124114 
" clip-path="url(#p4b9242164f)" style="fill: none; stroke: #1f77b4; stroke-width: 1.5; stroke-linecap: square"/>
   </g>
   <g id="line2d_35">
    <path d="M 59.542353 649.241822 
L 63.708533 649.134669 
L 71.530748 648.748053 
L 74.931711 648.640059 
L 76.80224 648.369845 
L 78.332674 647.955081 
L 79.778083 647.290287 
L 80.883396 646.500093 
L 82.668902 644.580732 
L 84.70948 641.465297 
L 86.324937 638.403368 
L 88.875659 632.634503 
L 89.980972 629.909262 
L 91.001261 627.964917 
L 91.936526 626.332536 
L 92.616719 623.641905 
L 93.466959 618.497073 
L 94.062128 613.660773 
L 94.912369 605.332134 
L 96.527826 585.679823 
L 98.398356 560.505221 
L 101.629271 519.073927 
L 104.94521 479.092382 
L 106.220571 460.046608 
L 107.495932 444.227912 
L 108.686269 432.061203 
L 109.791582 422.919696 
L 110.811871 416.223493 
L 111.83216 410.946595 
L 112.767425 407.189078 
L 113.70269 404.318407 
L 114.552931 402.392016 
L 115.318147 401.145852 
L 116.083364 400.315488 
L 116.763557 399.892918 
L 117.443749 399.74 
L 118.123942 399.837959 
L 118.889158 400.213801 
L 119.654375 400.845201 
L 120.58964 401.939986 
L 122.800266 404.808509 
L 124.075627 407.176476 
L 125.606061 410.571698 
L 127.221518 414.688537 
L 129.602192 421.520219 
L 132.748083 431.475011 
L 140.82537 458.678441 
L 143.461117 468.86692 
L 147.882369 487.047604 
L 154.344199 512.897897 
L 158.850475 529.684322 
L 162.761582 543.237605 
L 166.247569 554.550959 
L 168.883316 562.388225 
L 172.709399 573.064356 
L 175.940314 581.398657 
L 179.851422 590.600889 
L 181.806975 594.85352 
L 184.357698 599.943165 
L 187.163492 604.940705 
L 191.329672 611.760867 
L 193.965418 615.771156 
L 196.601165 619.467868 
L 199.662032 623.622437 
L 207.484247 634.454292 
L 208.164439 634.69239 
L 209.184728 634.320499 
L 209.609849 633.978749 
L 210.460089 632.945335 
L 210.970234 632.121288 
L 211.820475 630.544322 
L 218.792449 615.044098 
L 219.387617 612.856783 
L 219.897762 610.154024 
L 221.003075 602.037574 
L 222.193412 594.786823 
L 223.383749 588.890523 
L 224.489062 584.507743 
L 225.509351 581.375536 
L 226.444616 579.169893 
L 227.379881 577.515675 
L 228.230121 576.430485 
L 229.080362 575.695988 
L 229.845579 575.30114 
L 230.610796 575.131311 
L 231.461036 575.178343 
L 232.396301 575.47662 
L 233.586638 576.126437 
L 235.202096 577.306973 
L 236.732529 578.760984 
L 242.59919 585.039476 
L 246.680346 589.915159 
L 253.567296 598.563253 
L 260.11415 607.193434 
L 268.87163 617.841897 
L 275.75858 624.864321 
L 280.264857 629.01166 
L 281.880314 630.31804 
L 284.260988 632.260677 
L 286.471614 634.407118 
L 289.447457 637.628552 
L 296.249383 645.11844 
L 299.905418 648.965393 
L 302.881261 651.87414 
L 304.496718 653.199573 
L 306.027152 654.208637 
L 307.387537 654.820958 
L 308.747922 654.920806 
L 309.683187 654.66909 
L 310.618452 654.125429 
L 311.638741 653.27005 
L 313.169174 651.343952 
L 314.274487 649.616568 
L 316.059993 646.329664 
L 317.335354 643.157225 
L 318.440667 640.978011 
L 319.54598 639.294022 
L 320.651293 638.012387 
L 321.756606 637.069321 
L 322.861919 636.414779 
L 323.967232 636.003278 
L 325.157569 635.782506 
L 326.262882 635.768053 
L 327.453219 635.973135 
L 328.72858 636.420583 
L 330.17399 637.164364 
L 332.044519 638.404123 
L 334.085097 640.039502 
L 336.720844 642.452046 
L 340.716975 646.450666 
L 348.709238 654.484615 
L 352.450298 657.899433 
L 355.766237 660.635052 
L 358.912128 662.944635 
L 361.88797 664.859172 
L 364.778789 666.463525 
L 367.669608 667.818665 
L 370.560426 668.931957 
L 373.536269 669.83704 
L 376.512112 670.512597 
L 379.658002 670.996204 
L 382.888917 671.268762 
L 386.374905 671.336043 
L 390.115964 671.180544 
L 394.19712 670.784361 
L 398.78842 670.110525 
L 404.144937 669.093727 
L 410.946863 667.56393 
L 422.255065 664.754069 
L 436.53911 661.263186 
L 445.976782 659.192758 
L 454.819286 657.481434 
L 463.576766 656.014484 
L 472.589319 654.733078 
L 482.026991 653.618315 
L 492.144856 652.649553 
L 503.28301 651.811277 
L 515.696526 651.104402 
L 530.065595 650.515651 
L 547.155434 650.045826 
L 568.581501 649.689016 
L 597.74476 649.440616 
L 643.657761 649.296313 
L 671.545659 649.266491 
L 671.545659 649.266491 
" clip-path="url(#p4b9242164f)" style="fill: none; stroke: #ff7f0e; stroke-width: 1.5; stroke-linecap: square"/>
   </g>
   <g id="patch_9">
    <path d="M 28.942187 684.92 
L 28.942187 386.16 
" style="fill: none; stroke: #000000; stroke-width: 0.8; stroke-linejoin: miter; stroke-linecap: square"/>
   </g>
   <g id="patch_10">
    <path d="M 702.145824 684.92 
L 702.145824 386.16 
" style="fill: none; stroke: #000000; stroke-width: 0.8; stroke-linejoin: miter; stroke-linecap: square"/>
   </g>
   <g id="patch_11">
    <path d="M 28.942187 684.92 
L 702.145824 684.92 
" style="fill: none; stroke: #000000; stroke-width: 0.8; stroke-linejoin: miter; stroke-linecap: square"/>
   </g>
   <g id="patch_12">
    <path d="M 28.942187 386.16 
L 702.145824 386.16 
" style="fill: none; stroke: #000000; stroke-width: 0.8; stroke-linejoin: miter; stroke-linecap: square"/>
   </g>
   <g id="text_33">
    <!-- 2 transformation(s) -->
    <g transform="translate(307.429318 380.16) scale(0.12 -0.12)">
     <use xlink:href="#DejaVuSans-32"/>
     <use xlink:href="#DejaVuSans-20" x="63.623047"/>
     <use xlink:href="#DejaVuSans-74" x="95.410156"/>
     <use xlink:href="#DejaVuSans-72" x="134.619141"/>
     <use xlink:href="#DejaVuSans-61" x="175.732422"/>
     <use xlink:href="#DejaVuSans-6e" x="237.011719"/>
     <use xlink:href="#DejaVuSans-73" x="300.390625"/>
     <use xlink:href="#DejaVuSans-66" x="352.490234"/>
     <use xlink:href="#DejaVuSans-6f" x="387.695312"/>
     <use xlink:href="#DejaVuSans-72" x="448.876953"/>
     <use xlink:href="#DejaVuSans-6d" x="488.240234"/>
     <use xlink:href="#DejaVuSans-61" x="585.652344"/>
     <use xlink:href="#DejaVuSans-74" x="646.931641"/>
     <use xlink:href="#DejaVuSans-69" x="686.140625"/>
     <use xlink:href="#DejaVuSans-6f" x="713.923828"/>
     <use xlink:href="#DejaVuSans-6e" x="775.105469"/>
     <use xlink:href="#DejaVuSans-28" x="838.484375"/>
     <use xlink:href="#DejaVuSans-73" x="877.498047"/>
     <use xlink:href="#DejaVuSans-29" x="929.597656"/>
    </g>
   </g>
  </g>
  <g id="text_34">
   <!-- training -->
   <g transform="translate(333.13875 16.318125) scale(0.12 -0.12)">
    <defs>
     <path id="DejaVuSans-67" d="M 2906 1791 
Q 2906 2416 2648 2759 
Q 2391 3103 1925 3103 
Q 1463 3103 1205 2759 
Q 947 2416 947 1791 
Q 947 1169 1205 825 
Q 1463 481 1925 481 
Q 2391 481 2648 825 
Q 2906 1169 2906 1791 
z
M 3481 434 
Q 3481 -459 3084 -895 
Q 2688 -1331 1869 -1331 
Q 1566 -1331 1297 -1286 
Q 1028 -1241 775 -1147 
L 775 -588 
Q 1028 -725 1275 -790 
Q 1522 -856 1778 -856 
Q 2344 -856 2625 -561 
Q 2906 -266 2906 331 
L 2906 616 
Q 2728 306 2450 153 
Q 2172 0 1784 0 
Q 1141 0 747 490 
Q 353 981 353 1791 
Q 353 2603 747 3093 
Q 1141 3584 1784 3584 
Q 2172 3584 2450 3431 
Q 2728 3278 2906 2969 
L 2906 3500 
L 3481 3500 
L 3481 434 
z
" transform="scale(0.015625)"/>
    </defs>
    <use xlink:href="#DejaVuSans-74"/>
    <use xlink:href="#DejaVuSans-72" x="39.208984"/>
    <use xlink:href="#DejaVuSans-61" x="80.322266"/>
    <use xlink:href="#DejaVuSans-69" x="141.601562"/>
    <use xlink:href="#DejaVuSans-6e" x="169.384766"/>
    <use xlink:href="#DejaVuSans-69" x="232.763672"/>
    <use xlink:href="#DejaVuSans-6e" x="260.546875"/>
    <use xlink:href="#DejaVuSans-67" x="323.925781"/>
   </g>
  </g>
 </g>
 <defs>
  <clipPath id="pdb3bdbfca3">
   <rect x="28.942187" y="43.44" width="673.203636" height="298.76"/>
  </clipPath>
  <clipPath id="p4b9242164f">
   <rect x="28.942187" y="386.16" width="673.203636" height="298.76"/>
  </clipPath>
 </defs>
</svg>
