<?xml version="1.0" encoding="utf-8" standalone="no"?>
<!DOCTYPE svg PUBLIC "-//W3C//DTD SVG 1.1//EN"
  "http://www.w3.org/Graphics/SVG/1.1/DTD/svg11.dtd">
<svg xmlns:xlink="http://www.w3.org/1999/xlink" width="709.426761pt" height="708.798125pt" viewBox="0 0 709.426761 708.798125" xmlns="http://www.w3.org/2000/svg" version="1.1">
 <metadata>
  <rdf:RDF xmlns:dc="http://purl.org/dc/elements/1.1/" xmlns:cc="http://creativecommons.org/ns#" xmlns:rdf="http://www.w3.org/1999/02/22-rdf-syntax-ns#">
   <cc:Work>
    <dc:type rdf:resource="http://purl.org/dc/dcmitype/StillImage"/>
    <dc:date>2023-06-10T00:09:56.621770</dc:date>
    <dc:format>image/svg+xml</dc:format>
    <dc:creator>
     <cc:Agent>
      <dc:title>Matplotlib v3.7.1, https://matplotlib.org/</dc:title>
     </cc:Agent>
    </dc:creator>
   </cc:Work>
  </rdf:RDF>
 </metadata>
 <defs>
  <style type="text/css">*{stroke-linejoin: round; stroke-linecap: butt}</style>
 </defs>
 <g id="figure_1">
  <g id="patch_1">
   <path d="M 0 708.798125 
L 709.426761 708.798125 
L 709.426761 0 
L 0 0 
z
" style="fill: #ffffff"/>
  </g>
  <g id="axes_1">
   <g id="patch_2">
    <path d="M 30.103125 342.2 
L 702.226761 342.2 
L 702.226761 43.44 
L 30.103125 43.44 
z
" style="fill: #ffffff"/>
   </g>
   <g id="matplotlib.axis_1">
    <g id="xtick_1">
     <g id="line2d_1">
      <defs>
       <path id="m0e34b01b19" d="M 0 0 
L 0 3.5 
" style="stroke: #000000; stroke-width: 0.8"/>
      </defs>
      <g>
       <use xlink:href="#m0e34b01b19" x="60.484424" y="342.2" style="stroke: #000000; stroke-width: 0.8"/>
      </g>
     </g>
     <g id="text_1">
      <!-- 2014-07-01 -->
      <g transform="translate(31.426612 356.798437) scale(0.1 -0.1)">
       <defs>
        <path id="DejaVuSans-32" d="M 1228 531 
L 3431 531 
L 3431 0 
L 469 0 
L 469 531 
Q 828 903 1448 1529 
Q 2069 2156 2228 2338 
Q 2531 2678 2651 2914 
Q 2772 3150 2772 3378 
Q 2772 3750 2511 3984 
Q 2250 4219 1831 4219 
Q 1534 4219 1204 4116 
Q 875 4013 500 3803 
L 500 4441 
Q 881 4594 1212 4672 
Q 1544 4750 1819 4750 
Q 2544 4750 2975 4387 
Q 3406 4025 3406 3419 
Q 3406 3131 3298 2873 
Q 3191 2616 2906 2266 
Q 2828 2175 2409 1742 
Q 1991 1309 1228 531 
z
" transform="scale(0.015625)"/>
        <path id="DejaVuSans-30" d="M 2034 4250 
Q 1547 4250 1301 3770 
Q 1056 3291 1056 2328 
Q 1056 1369 1301 889 
Q 1547 409 2034 409 
Q 2525 409 2770 889 
Q 3016 1369 3016 2328 
Q 3016 3291 2770 3770 
Q 2525 4250 2034 4250 
z
M 2034 4750 
Q 2819 4750 3233 4129 
Q 3647 3509 3647 2328 
Q 3647 1150 3233 529 
Q 2819 -91 2034 -91 
Q 1250 -91 836 529 
Q 422 1150 422 2328 
Q 422 3509 836 4129 
Q 1250 4750 2034 4750 
z
" transform="scale(0.015625)"/>
        <path id="DejaVuSans-31" d="M 794 531 
L 1825 531 
L 1825 4091 
L 703 3866 
L 703 4441 
L 1819 4666 
L 2450 4666 
L 2450 531 
L 3481 531 
L 3481 0 
L 794 0 
L 794 531 
z
" transform="scale(0.015625)"/>
        <path id="DejaVuSans-34" d="M 2419 4116 
L 825 1625 
L 2419 1625 
L 2419 4116 
z
M 2253 4666 
L 3047 4666 
L 3047 1625 
L 3713 1625 
L 3713 1100 
L 3047 1100 
L 3047 0 
L 2419 0 
L 2419 1100 
L 313 1100 
L 313 1709 
L 2253 4666 
z
" transform="scale(0.015625)"/>
        <path id="DejaVuSans-2d" d="M 313 2009 
L 1997 2009 
L 1997 1497 
L 313 1497 
L 313 2009 
z
" transform="scale(0.015625)"/>
        <path id="DejaVuSans-37" d="M 525 4666 
L 3525 4666 
L 3525 4397 
L 1831 0 
L 1172 0 
L 2766 4134 
L 525 4134 
L 525 4666 
z
" transform="scale(0.015625)"/>
       </defs>
       <use xlink:href="#DejaVuSans-32"/>
       <use xlink:href="#DejaVuSans-30" x="63.623047"/>
       <use xlink:href="#DejaVuSans-31" x="127.246094"/>
       <use xlink:href="#DejaVuSans-34" x="190.869141"/>
       <use xlink:href="#DejaVuSans-2d" x="254.492188"/>
       <use xlink:href="#DejaVuSans-30" x="290.576172"/>
       <use xlink:href="#DejaVuSans-37" x="354.199219"/>
       <use xlink:href="#DejaVuSans-2d" x="417.822266"/>
       <use xlink:href="#DejaVuSans-30" x="453.90625"/>
       <use xlink:href="#DejaVuSans-31" x="517.529297"/>
      </g>
     </g>
    </g>
    <g id="xtick_2">
     <g id="line2d_2">
      <g>
       <use xlink:href="#m0e34b01b19" x="182.722677" y="342.2" style="stroke: #000000; stroke-width: 0.8"/>
      </g>
     </g>
     <g id="text_2">
      <!-- 2014-07-02 -->
      <g transform="translate(153.664864 356.798437) scale(0.1 -0.1)">
       <use xlink:href="#DejaVuSans-32"/>
       <use xlink:href="#DejaVuSans-30" x="63.623047"/>
       <use xlink:href="#DejaVuSans-31" x="127.246094"/>
       <use xlink:href="#DejaVuSans-34" x="190.869141"/>
       <use xlink:href="#DejaVuSans-2d" x="254.492188"/>
       <use xlink:href="#DejaVuSans-30" x="290.576172"/>
       <use xlink:href="#DejaVuSans-37" x="354.199219"/>
       <use xlink:href="#DejaVuSans-2d" x="417.822266"/>
       <use xlink:href="#DejaVuSans-30" x="453.90625"/>
       <use xlink:href="#DejaVuSans-32" x="517.529297"/>
      </g>
     </g>
    </g>
    <g id="xtick_3">
     <g id="line2d_3">
      <g>
       <use xlink:href="#m0e34b01b19" x="304.960929" y="342.2" style="stroke: #000000; stroke-width: 0.8"/>
      </g>
     </g>
     <g id="text_3">
      <!-- 2014-07-03 -->
      <g transform="translate(275.903117 356.798437) scale(0.1 -0.1)">
       <defs>
        <path id="DejaVuSans-33" d="M 2597 2516 
Q 3050 2419 3304 2112 
Q 3559 1806 3559 1356 
Q 3559 666 3084 287 
Q 2609 -91 1734 -91 
Q 1441 -91 1130 -33 
Q 819 25 488 141 
L 488 750 
Q 750 597 1062 519 
Q 1375 441 1716 441 
Q 2309 441 2620 675 
Q 2931 909 2931 1356 
Q 2931 1769 2642 2001 
Q 2353 2234 1838 2234 
L 1294 2234 
L 1294 2753 
L 1863 2753 
Q 2328 2753 2575 2939 
Q 2822 3125 2822 3475 
Q 2822 3834 2567 4026 
Q 2313 4219 1838 4219 
Q 1578 4219 1281 4162 
Q 984 4106 628 3988 
L 628 4550 
Q 988 4650 1302 4700 
Q 1616 4750 1894 4750 
Q 2613 4750 3031 4423 
Q 3450 4097 3450 3541 
Q 3450 3153 3228 2886 
Q 3006 2619 2597 2516 
z
" transform="scale(0.015625)"/>
       </defs>
       <use xlink:href="#DejaVuSans-32"/>
       <use xlink:href="#DejaVuSans-30" x="63.623047"/>
       <use xlink:href="#DejaVuSans-31" x="127.246094"/>
       <use xlink:href="#DejaVuSans-34" x="190.869141"/>
       <use xlink:href="#DejaVuSans-2d" x="254.492188"/>
       <use xlink:href="#DejaVuSans-30" x="290.576172"/>
       <use xlink:href="#DejaVuSans-37" x="354.199219"/>
       <use xlink:href="#DejaVuSans-2d" x="417.822266"/>
       <use xlink:href="#DejaVuSans-30" x="453.90625"/>
       <use xlink:href="#DejaVuSans-33" x="517.529297"/>
      </g>
     </g>
    </g>
    <g id="xtick_4">
     <g id="line2d_4">
      <g>
       <use xlink:href="#m0e34b01b19" x="427.199182" y="342.2" style="stroke: #000000; stroke-width: 0.8"/>
      </g>
     </g>
     <g id="text_4">
      <!-- 2014-07-04 -->
      <g transform="translate(398.141369 356.798437) scale(0.1 -0.1)">
       <use xlink:href="#DejaVuSans-32"/>
       <use xlink:href="#DejaVuSans-30" x="63.623047"/>
       <use xlink:href="#DejaVuSans-31" x="127.246094"/>
       <use xlink:href="#DejaVuSans-34" x="190.869141"/>
       <use xlink:href="#DejaVuSans-2d" x="254.492188"/>
       <use xlink:href="#DejaVuSans-30" x="290.576172"/>
       <use xlink:href="#DejaVuSans-37" x="354.199219"/>
       <use xlink:href="#DejaVuSans-2d" x="417.822266"/>
       <use xlink:href="#DejaVuSans-30" x="453.90625"/>
       <use xlink:href="#DejaVuSans-34" x="517.529297"/>
      </g>
     </g>
    </g>
    <g id="xtick_5">
     <g id="line2d_5">
      <g>
       <use xlink:href="#m0e34b01b19" x="549.437434" y="342.2" style="stroke: #000000; stroke-width: 0.8"/>
      </g>
     </g>
     <g id="text_5">
      <!-- 2014-07-05 -->
      <g transform="translate(520.379622 356.798437) scale(0.1 -0.1)">
       <defs>
        <path id="DejaVuSans-35" d="M 691 4666 
L 3169 4666 
L 3169 4134 
L 1269 4134 
L 1269 2991 
Q 1406 3038 1543 3061 
Q 1681 3084 1819 3084 
Q 2600 3084 3056 2656 
Q 3513 2228 3513 1497 
Q 3513 744 3044 326 
Q 2575 -91 1722 -91 
Q 1428 -91 1123 -41 
Q 819 9 494 109 
L 494 744 
Q 775 591 1075 516 
Q 1375 441 1709 441 
Q 2250 441 2565 725 
Q 2881 1009 2881 1497 
Q 2881 1984 2565 2268 
Q 2250 2553 1709 2553 
Q 1456 2553 1204 2497 
Q 953 2441 691 2322 
L 691 4666 
z
" transform="scale(0.015625)"/>
       </defs>
       <use xlink:href="#DejaVuSans-32"/>
       <use xlink:href="#DejaVuSans-30" x="63.623047"/>
       <use xlink:href="#DejaVuSans-31" x="127.246094"/>
       <use xlink:href="#DejaVuSans-34" x="190.869141"/>
       <use xlink:href="#DejaVuSans-2d" x="254.492188"/>
       <use xlink:href="#DejaVuSans-30" x="290.576172"/>
       <use xlink:href="#DejaVuSans-37" x="354.199219"/>
       <use xlink:href="#DejaVuSans-2d" x="417.822266"/>
       <use xlink:href="#DejaVuSans-30" x="453.90625"/>
       <use xlink:href="#DejaVuSans-35" x="517.529297"/>
      </g>
     </g>
    </g>
    <g id="xtick_6">
     <g id="line2d_6">
      <g>
       <use xlink:href="#m0e34b01b19" x="671.675687" y="342.2" style="stroke: #000000; stroke-width: 0.8"/>
      </g>
     </g>
     <g id="text_6">
      <!-- 2014-07-06 -->
      <g transform="translate(642.617874 356.798437) scale(0.1 -0.1)">
       <defs>
        <path id="DejaVuSans-36" d="M 2113 2584 
Q 1688 2584 1439 2293 
Q 1191 2003 1191 1497 
Q 1191 994 1439 701 
Q 1688 409 2113 409 
Q 2538 409 2786 701 
Q 3034 994 3034 1497 
Q 3034 2003 2786 2293 
Q 2538 2584 2113 2584 
z
M 3366 4563 
L 3366 3988 
Q 3128 4100 2886 4159 
Q 2644 4219 2406 4219 
Q 1781 4219 1451 3797 
Q 1122 3375 1075 2522 
Q 1259 2794 1537 2939 
Q 1816 3084 2150 3084 
Q 2853 3084 3261 2657 
Q 3669 2231 3669 1497 
Q 3669 778 3244 343 
Q 2819 -91 2113 -91 
Q 1303 -91 875 529 
Q 447 1150 447 2328 
Q 447 3434 972 4092 
Q 1497 4750 2381 4750 
Q 2619 4750 2861 4703 
Q 3103 4656 3366 4563 
z
" transform="scale(0.015625)"/>
       </defs>
       <use xlink:href="#DejaVuSans-32"/>
       <use xlink:href="#DejaVuSans-30" x="63.623047"/>
       <use xlink:href="#DejaVuSans-31" x="127.246094"/>
       <use xlink:href="#DejaVuSans-34" x="190.869141"/>
       <use xlink:href="#DejaVuSans-2d" x="254.492188"/>
       <use xlink:href="#DejaVuSans-30" x="290.576172"/>
       <use xlink:href="#DejaVuSans-37" x="354.199219"/>
       <use xlink:href="#DejaVuSans-2d" x="417.822266"/>
       <use xlink:href="#DejaVuSans-30" x="453.90625"/>
       <use xlink:href="#DejaVuSans-36" x="517.529297"/>
      </g>
     </g>
    </g>
   </g>
   <g id="matplotlib.axis_2">
    <g id="ytick_1">
     <g id="line2d_7">
      <defs>
       <path id="mc6e36eb8f6" d="M 0 0 
L -3.5 0 
" style="stroke: #000000; stroke-width: 0.8"/>
      </defs>
      <g>
       <use xlink:href="#mc6e36eb8f6" x="30.103125" y="328.62" style="stroke: #000000; stroke-width: 0.8"/>
      </g>
     </g>
     <g id="text_7">
      <!-- 0.0 -->
      <g transform="translate(7.2 332.419219) scale(0.1 -0.1)">
       <defs>
        <path id="DejaVuSans-2e" d="M 684 794 
L 1344 794 
L 1344 0 
L 684 0 
L 684 794 
z
" transform="scale(0.015625)"/>
       </defs>
       <use xlink:href="#DejaVuSans-30"/>
       <use xlink:href="#DejaVuSans-2e" x="63.623047"/>
       <use xlink:href="#DejaVuSans-30" x="95.410156"/>
      </g>
     </g>
    </g>
    <g id="ytick_2">
     <g id="line2d_8">
      <g>
       <use xlink:href="#mc6e36eb8f6" x="30.103125" y="273.709693" style="stroke: #000000; stroke-width: 0.8"/>
      </g>
     </g>
     <g id="text_8">
      <!-- 0.5 -->
      <g transform="translate(7.2 277.508912) scale(0.1 -0.1)">
       <use xlink:href="#DejaVuSans-30"/>
       <use xlink:href="#DejaVuSans-2e" x="63.623047"/>
       <use xlink:href="#DejaVuSans-35" x="95.410156"/>
      </g>
     </g>
    </g>
    <g id="ytick_3">
     <g id="line2d_9">
      <g>
       <use xlink:href="#mc6e36eb8f6" x="30.103125" y="218.799386" style="stroke: #000000; stroke-width: 0.8"/>
      </g>
     </g>
     <g id="text_9">
      <!-- 1.0 -->
      <g transform="translate(7.2 222.598604) scale(0.1 -0.1)">
       <use xlink:href="#DejaVuSans-31"/>
       <use xlink:href="#DejaVuSans-2e" x="63.623047"/>
       <use xlink:href="#DejaVuSans-30" x="95.410156"/>
      </g>
     </g>
    </g>
    <g id="ytick_4">
     <g id="line2d_10">
      <g>
       <use xlink:href="#mc6e36eb8f6" x="30.103125" y="163.889078" style="stroke: #000000; stroke-width: 0.8"/>
      </g>
     </g>
     <g id="text_10">
      <!-- 1.5 -->
      <g transform="translate(7.2 167.688297) scale(0.1 -0.1)">
       <use xlink:href="#DejaVuSans-31"/>
       <use xlink:href="#DejaVuSans-2e" x="63.623047"/>
       <use xlink:href="#DejaVuSans-35" x="95.410156"/>
      </g>
     </g>
    </g>
    <g id="ytick_5">
     <g id="line2d_11">
      <g>
       <use xlink:href="#mc6e36eb8f6" x="30.103125" y="108.978771" style="stroke: #000000; stroke-width: 0.8"/>
      </g>
     </g>
     <g id="text_11">
      <!-- 2.0 -->
      <g transform="translate(7.2 112.77799) scale(0.1 -0.1)">
       <use xlink:href="#DejaVuSans-32"/>
       <use xlink:href="#DejaVuSans-2e" x="63.623047"/>
       <use xlink:href="#DejaVuSans-30" x="95.410156"/>
      </g>
     </g>
    </g>
    <g id="ytick_6">
     <g id="line2d_12">
      <g>
       <use xlink:href="#mc6e36eb8f6" x="30.103125" y="54.068464" style="stroke: #000000; stroke-width: 0.8"/>
      </g>
     </g>
     <g id="text_12">
      <!-- 2.5 -->
      <g transform="translate(7.2 57.867683) scale(0.1 -0.1)">
       <use xlink:href="#DejaVuSans-32"/>
       <use xlink:href="#DejaVuSans-2e" x="63.623047"/>
       <use xlink:href="#DejaVuSans-35" x="95.410156"/>
      </g>
     </g>
    </g>
   </g>
   <g id="line2d_13">
    <path d="M 60.654199 328.62 
L 80.178365 328.523453 
L 80.433028 328.294588 
L 80.687691 327.645878 
L 80.942354 326.188709 
L 81.197017 323.300315 
L 81.621455 315.174528 
L 82.130781 306.099374 
L 82.55522 302.422986 
L 83.149433 299.987597 
L 83.658759 297.848823 
L 85.186738 290.774469 
L 86.120502 288.432084 
L 87.054266 287.010155 
L 87.903143 286.093881 
L 88.157806 286.034226 
L 88.75202 286.389876 
L 89.431121 287.309613 
L 89.516009 287.198396 
L 89.770672 285.882186 
L 90.110223 284.25285 
L 90.364886 283.799621 
L 90.704436 283.598739 
L 90.9591 283.662515 
L 91.213763 284.086897 
L 91.468426 284.86601 
L 91.977752 287.350979 
L 93.081291 293.818248 
L 93.166179 293.749517 
L 93.335954 292.496353 
L 93.84528 285.119975 
L 94.439494 268.263087 
L 94.94882 240.035154 
L 96.476798 73.261721 
L 96.986124 57.809164 
L 97.1559 57.18142 
L 97.240787 57.72289 
L 97.410563 57.02 
L 97.665226 59.417864 
L 98.25944 69.783954 
L 99.872305 108.533446 
L 100.80607 159.943272 
L 101.315396 176.159622 
L 101.739834 186.874053 
L 102.503823 205.654007 
L 103.182925 220.446811 
L 103.862026 232.310721 
L 104.031802 234.299505 
L 104.116689 234.538663 
L 104.541128 239.296491 
L 104.795791 236.905991 
L 104.880678 237.37962 
L 104.965566 237.241425 
L 105.050454 237.342898 
L 105.135341 236.846509 
L 105.474892 223.381708 
L 105.729555 215.753826 
L 106.153993 169.949315 
L 106.663319 119.617573 
L 107.00287 91.421262 
L 107.172646 89.799418 
L 107.342421 92.136511 
L 107.597084 100.577082 
L 107.766859 111.271759 
L 108.276185 157.99322 
L 108.700624 180.304198 
L 109.20995 198.782665 
L 109.804163 214.374517 
L 110.483265 224.959636 
L 111.077479 229.451292 
L 111.417029 230.728859 
L 111.841468 231.454122 
L 112.096131 231.515077 
L 112.350794 231.368215 
L 112.690344 230.828669 
L 113.114783 229.709053 
L 113.793884 226.804464 
L 114.557873 222.086748 
L 115.321862 216.277138 
L 117.444054 197.760025 
L 118.972032 182.423774 
L 120.924449 165.591921 
L 121.943101 155.821985 
L 122.452427 148.385595 
L 123.131528 137.774181 
L 124.489731 118.004866 
L 124.91417 111.083396 
L 125.678159 97.88408 
L 126.442148 93.277971 
L 127.885238 86.394807 
L 129.158553 81.372619 
L 130.431869 77.20953 
L 131.280745 75.075201 
L 132.299397 73.171232 
L 133.402937 71.855077 
L 133.912263 71.577796 
L 134.336702 71.457379 
L 135.270466 71.488982 
L 136.034455 71.822322 
L 137.222883 72.878686 
L 138.920636 75.315982 
L 139.599738 77.093434 
L 140.448614 80.334923 
L 142.910357 90.237124 
L 145.202324 98.224829 
L 145.966313 100.809092 
L 146.305864 102.349349 
L 146.730302 107.628421 
L 147.748954 121.090971 
L 148.25828 125.093778 
L 148.852494 128.358584 
L 149.701371 132.035501 
L 150.295585 135.010013 
L 152.587552 147.796078 
L 154.455081 156.42479 
L 155.303957 158.755245 
L 155.813284 160.176421 
L 157.7657 166.625545 
L 159.208791 171.166982 
L 160.057667 173.4211 
L 160.821656 175.139992 
L 161.161207 176.008256 
L 162.179859 179.277657 
L 164.047388 185.605382 
L 166.594018 193.004631 
L 167.188232 194.861196 
L 168.121996 197.465083 
L 168.461547 198.041338 
L 168.885986 198.718175 
L 169.225536 199.373674 
L 169.904638 201.149423 
L 170.413964 202.67257 
L 173.045482 211.494422 
L 176.01655 219.744294 
L 176.356101 220.336324 
L 177.374753 222.328904 
L 177.629416 222.772586 
L 178.393405 224.559444 
L 179.751608 228.587682 
L 181.109811 233.033039 
L 182.213351 235.477471 
L 182.383126 235.586203 
L 183.571553 237.480596 
L 185.948408 241.003935 
L 186.203071 241.190956 
L 186.882173 241.789793 
L 187.985712 243.021618 
L 188.749702 243.747785 
L 193.673187 249.657619 
L 194.2674 249.934278 
L 194.776727 250.080832 
L 195.965154 250.9355 
L 197.408244 252.202699 
L 198.257121 252.623339 
L 198.766447 253.089762 
L 199.360661 253.865153 
L 200.549088 255.857569 
L 201.822404 257.877157 
L 203.350382 259.885722 
L 205.387686 262.149234 
L 206.406338 263.161204 
L 207.934316 264.553729 
L 208.019204 264.51575 
L 208.188979 263.845367 
L 208.952968 258.426541 
L 209.547182 252.097023 
L 210.141396 246.008796 
L 210.73561 242.749253 
L 211.244936 240.699633 
L 211.414711 240.780389 
L 211.499599 240.667912 
L 211.754262 238.843016 
L 212.093812 239.143777 
L 212.348475 237.977633 
L 212.688026 238.804704 
L 212.857801 238.102848 
L 212.942689 238.192807 
L 213.367127 239.956532 
L 213.536903 239.721635 
L 213.706678 240.500968 
L 214.046229 242.158624 
L 214.131117 242.168724 
L 214.895106 244.793035 
L 216.338196 248.370253 
L 218.290613 252.441621 
L 218.545276 252.63215 
L 218.969714 252.526736 
L 219.139489 252.209663 
L 219.818591 250.025441 
L 220.327917 246.197283 
L 220.667468 241.584706 
L 221.007018 224.10182 
L 221.601232 196.259291 
L 222.02567 174.578911 
L 222.195446 171.947296 
L 222.280333 172.075266 
L 222.450109 174.353185 
L 222.874547 186.629423 
L 224.317638 235.893019 
L 224.742076 244.590638 
L 225.081627 246.988168 
L 225.930503 251.188607 
L 226.694492 253.886126 
L 227.458482 255.924428 
L 228.392246 257.791885 
L 229.410898 259.353685 
L 231.617978 261.872234 
L 232.891293 263.095504 
L 234.589046 264.37783 
L 235.522811 264.687172 
L 237.984553 265.149169 
L 238.748542 265.230514 
L 239.852082 265.079116 
L 241.125397 264.756401 
L 242.059162 264.225705 
L 242.823151 263.955827 
L 243.247589 264.068972 
L 243.841803 264.53203 
L 245.284893 266.007791 
L 245.709332 266.122323 
L 246.897759 266.404716 
L 247.576861 266.790141 
L 248.6804 267.416058 
L 249.189726 267.684705 
L 250.632817 267.816106 
L 251.057255 267.939881 
L 252.670121 268.138115 
L 253.179447 268.506598 
L 255.98074 271.148916 
L 256.914505 271.277836 
L 258.866921 271.370512 
L 259.800686 271.577831 
L 262.007765 271.519331 
L 262.517092 271.739794 
L 263.535744 272.30731 
L 264.04507 272.644485 
L 265.573048 273.813899 
L 266.082374 273.904346 
L 267.440577 274.091851 
L 268.119678 273.936028 
L 269.732544 274.142483 
L 270.072095 274.023211 
L 271.430297 273.363779 
L 272.024511 273.566097 
L 272.44895 273.930493 
L 274.146703 275.727091 
L 274.825804 276.061756 
L 275.33513 275.90228 
L 276.778221 275.054819 
L 277.287547 275.200094 
L 278.221311 275.804319 
L 278.730638 276.286235 
L 279.155076 276.594481 
L 279.74929 276.567388 
L 280.343503 276.455081 
L 281.531931 276.523812 
L 282.211032 276.462792 
L 282.805246 276.495976 
L 283.39946 276.292598 
L 283.908786 276.364032 
L 284.418112 276.685127 
L 285.012325 277.310574 
L 285.94609 278.670134 
L 287.38918 280.697092 
L 288.577608 282.026957 
L 289.766035 283.035462 
L 291.294013 284.013204 
L 292.482441 284.59462 
L 293.585981 284.565249 
L 294.519745 284.716739 
L 295.538397 284.92918 
L 296.726825 285.465067 
L 298.339691 286.189061 
L 299.10368 286.417402 
L 301.310759 287.180359 
L 302.838737 287.663847 
L 303.602726 287.684482 
L 304.281828 287.480256 
L 304.960929 286.997659 
L 305.809806 286.116942 
L 306.658683 284.831484 
L 308.271549 281.795952 
L 308.611099 280.835573 
L 309.629751 277.073995 
L 310.648403 273.127377 
L 311.49728 270.889113 
L 312.091494 269.829561 
L 312.515932 269.212958 
L 313.195034 268.352922 
L 313.789247 267.670272 
L 314.298574 267.186104 
L 314.553237 267.116718 
L 314.977675 266.883962 
L 315.741664 266.882227 
L 316.081215 267.02435 
L 316.760316 267.629432 
L 316.930091 266.957524 
L 317.439417 264.327401 
L 318.033631 263.204184 
L 318.203407 263.221262 
L 318.45807 263.728052 
L 318.882508 265.356083 
L 320.834925 274.420173 
L 321.683801 277.021668 
L 322.44779 278.714875 
L 323.211779 279.873026 
L 324.145544 280.881102 
L 325.079308 281.558984 
L 326.09796 282.035598 
L 327.880602 282.739466 
L 329.238804 283.526261 
L 332.549424 285.545881 
L 334.926279 286.660467 
L 338.661336 288.146719 
L 345.961676 290.651918 
L 353.85623 293.066687 
L 360.901907 295.037463 
L 368.711573 297.042961 
L 375.672363 298.614906 
L 388.320626 301.205098 
L 399.780463 303.240306 
L 404.873723 304.01016 
L 414.46603 305.281631 
L 428.72716 306.960807 
L 448.505988 308.937694 
L 462.342679 310.177323 
L 482.121508 311.709481 
L 498.504829 312.78837 
L 518.283658 313.950405 
L 544.8535 315.285447 
L 570.40469 316.374369 
L 602.662007 317.566575 
L 654.358601 319.05928 
L 671.675687 319.446128 
L 671.675687 319.446128 
" clip-path="url(#p1e3a3138b9)" style="fill: none; stroke: #1f77b4; stroke-width: 1.5; stroke-linecap: square"/>
   </g>
   <g id="patch_3">
    <path d="M 30.103125 342.2 
L 30.103125 43.44 
" style="fill: none; stroke: #000000; stroke-width: 0.8; stroke-linejoin: miter; stroke-linecap: square"/>
   </g>
   <g id="patch_4">
    <path d="M 702.226761 342.2 
L 702.226761 43.44 
" style="fill: none; stroke: #000000; stroke-width: 0.8; stroke-linejoin: miter; stroke-linecap: square"/>
   </g>
   <g id="patch_5">
    <path d="M 30.103125 342.2 
L 702.226761 342.2 
" style="fill: none; stroke: #000000; stroke-width: 0.8; stroke-linejoin: miter; stroke-linecap: square"/>
   </g>
   <g id="patch_6">
    <path d="M 30.103125 43.44 
L 702.226761 43.44 
" style="fill: none; stroke: #000000; stroke-width: 0.8; stroke-linejoin: miter; stroke-linecap: square"/>
   </g>
   <g id="text_13">
    <!-- 1 transformation(s) -->
    <g transform="translate(308.050256 37.44) scale(0.12 -0.12)">
     <defs>
      <path id="DejaVuSans-20" transform="scale(0.015625)"/>
      <path id="DejaVuSans-74" d="M 1172 4494 
L 1172 3500 
L 2356 3500 
L 2356 3053 
L 1172 3053 
L 1172 1153 
Q 1172 725 1289 603 
Q 1406 481 1766 481 
L 2356 481 
L 2356 0 
L 1766 0 
Q 1100 0 847 248 
Q 594 497 594 1153 
L 594 3053 
L 172 3053 
L 172 3500 
L 594 3500 
L 594 4494 
L 1172 4494 
z
" transform="scale(0.015625)"/>
      <path id="DejaVuSans-72" d="M 2631 2963 
Q 2534 3019 2420 3045 
Q 2306 3072 2169 3072 
Q 1681 3072 1420 2755 
Q 1159 2438 1159 1844 
L 1159 0 
L 581 0 
L 581 3500 
L 1159 3500 
L 1159 2956 
Q 1341 3275 1631 3429 
Q 1922 3584 2338 3584 
Q 2397 3584 2469 3576 
Q 2541 3569 2628 3553 
L 2631 2963 
z
" transform="scale(0.015625)"/>
      <path id="DejaVuSans-61" d="M 2194 1759 
Q 1497 1759 1228 1600 
Q 959 1441 959 1056 
Q 959 750 1161 570 
Q 1363 391 1709 391 
Q 2188 391 2477 730 
Q 2766 1069 2766 1631 
L 2766 1759 
L 2194 1759 
z
M 3341 1997 
L 3341 0 
L 2766 0 
L 2766 531 
Q 2569 213 2275 61 
Q 1981 -91 1556 -91 
Q 1019 -91 701 211 
Q 384 513 384 1019 
Q 384 1609 779 1909 
Q 1175 2209 1959 2209 
L 2766 2209 
L 2766 2266 
Q 2766 2663 2505 2880 
Q 2244 3097 1772 3097 
Q 1472 3097 1187 3025 
Q 903 2953 641 2809 
L 641 3341 
Q 956 3463 1253 3523 
Q 1550 3584 1831 3584 
Q 2591 3584 2966 3190 
Q 3341 2797 3341 1997 
z
" transform="scale(0.015625)"/>
      <path id="DejaVuSans-6e" d="M 3513 2113 
L 3513 0 
L 2938 0 
L 2938 2094 
Q 2938 2591 2744 2837 
Q 2550 3084 2163 3084 
Q 1697 3084 1428 2787 
Q 1159 2491 1159 1978 
L 1159 0 
L 581 0 
L 581 3500 
L 1159 3500 
L 1159 2956 
Q 1366 3272 1645 3428 
Q 1925 3584 2291 3584 
Q 2894 3584 3203 3211 
Q 3513 2838 3513 2113 
z
" transform="scale(0.015625)"/>
      <path id="DejaVuSans-73" d="M 2834 3397 
L 2834 2853 
Q 2591 2978 2328 3040 
Q 2066 3103 1784 3103 
Q 1356 3103 1142 2972 
Q 928 2841 928 2578 
Q 928 2378 1081 2264 
Q 1234 2150 1697 2047 
L 1894 2003 
Q 2506 1872 2764 1633 
Q 3022 1394 3022 966 
Q 3022 478 2636 193 
Q 2250 -91 1575 -91 
Q 1294 -91 989 -36 
Q 684 19 347 128 
L 347 722 
Q 666 556 975 473 
Q 1284 391 1588 391 
Q 1994 391 2212 530 
Q 2431 669 2431 922 
Q 2431 1156 2273 1281 
Q 2116 1406 1581 1522 
L 1381 1569 
Q 847 1681 609 1914 
Q 372 2147 372 2553 
Q 372 3047 722 3315 
Q 1072 3584 1716 3584 
Q 2034 3584 2315 3537 
Q 2597 3491 2834 3397 
z
" transform="scale(0.015625)"/>
      <path id="DejaVuSans-66" d="M 2375 4863 
L 2375 4384 
L 1825 4384 
Q 1516 4384 1395 4259 
Q 1275 4134 1275 3809 
L 1275 3500 
L 2222 3500 
L 2222 3053 
L 1275 3053 
L 1275 0 
L 697 0 
L 697 3053 
L 147 3053 
L 147 3500 
L 697 3500 
L 697 3744 
Q 697 4328 969 4595 
Q 1241 4863 1831 4863 
L 2375 4863 
z
" transform="scale(0.015625)"/>
      <path id="DejaVuSans-6f" d="M 1959 3097 
Q 1497 3097 1228 2736 
Q 959 2375 959 1747 
Q 959 1119 1226 758 
Q 1494 397 1959 397 
Q 2419 397 2687 759 
Q 2956 1122 2956 1747 
Q 2956 2369 2687 2733 
Q 2419 3097 1959 3097 
z
M 1959 3584 
Q 2709 3584 3137 3096 
Q 3566 2609 3566 1747 
Q 3566 888 3137 398 
Q 2709 -91 1959 -91 
Q 1206 -91 779 398 
Q 353 888 353 1747 
Q 353 2609 779 3096 
Q 1206 3584 1959 3584 
z
" transform="scale(0.015625)"/>
      <path id="DejaVuSans-6d" d="M 3328 2828 
Q 3544 3216 3844 3400 
Q 4144 3584 4550 3584 
Q 5097 3584 5394 3201 
Q 5691 2819 5691 2113 
L 5691 0 
L 5113 0 
L 5113 2094 
Q 5113 2597 4934 2840 
Q 4756 3084 4391 3084 
Q 3944 3084 3684 2787 
Q 3425 2491 3425 1978 
L 3425 0 
L 2847 0 
L 2847 2094 
Q 2847 2600 2669 2842 
Q 2491 3084 2119 3084 
Q 1678 3084 1418 2786 
Q 1159 2488 1159 1978 
L 1159 0 
L 581 0 
L 581 3500 
L 1159 3500 
L 1159 2956 
Q 1356 3278 1631 3431 
Q 1906 3584 2284 3584 
Q 2666 3584 2933 3390 
Q 3200 3197 3328 2828 
z
" transform="scale(0.015625)"/>
      <path id="DejaVuSans-69" d="M 603 3500 
L 1178 3500 
L 1178 0 
L 603 0 
L 603 3500 
z
M 603 4863 
L 1178 4863 
L 1178 4134 
L 603 4134 
L 603 4863 
z
" transform="scale(0.015625)"/>
      <path id="DejaVuSans-28" d="M 1984 4856 
Q 1566 4138 1362 3434 
Q 1159 2731 1159 2009 
Q 1159 1288 1364 580 
Q 1569 -128 1984 -844 
L 1484 -844 
Q 1016 -109 783 600 
Q 550 1309 550 2009 
Q 550 2706 781 3412 
Q 1013 4119 1484 4856 
L 1984 4856 
z
" transform="scale(0.015625)"/>
      <path id="DejaVuSans-29" d="M 513 4856 
L 1013 4856 
Q 1481 4119 1714 3412 
Q 1947 2706 1947 2009 
Q 1947 1309 1714 600 
Q 1481 -109 1013 -844 
L 513 -844 
Q 928 -128 1133 580 
Q 1338 1288 1338 2009 
Q 1338 2731 1133 3434 
Q 928 4138 513 4856 
z
" transform="scale(0.015625)"/>
     </defs>
     <use xlink:href="#DejaVuSans-31"/>
     <use xlink:href="#DejaVuSans-20" x="63.623047"/>
     <use xlink:href="#DejaVuSans-74" x="95.410156"/>
     <use xlink:href="#DejaVuSans-72" x="134.619141"/>
     <use xlink:href="#DejaVuSans-61" x="175.732422"/>
     <use xlink:href="#DejaVuSans-6e" x="237.011719"/>
     <use xlink:href="#DejaVuSans-73" x="300.390625"/>
     <use xlink:href="#DejaVuSans-66" x="352.490234"/>
     <use xlink:href="#DejaVuSans-6f" x="387.695312"/>
     <use xlink:href="#DejaVuSans-72" x="448.876953"/>
     <use xlink:href="#DejaVuSans-6d" x="488.240234"/>
     <use xlink:href="#DejaVuSans-61" x="585.652344"/>
     <use xlink:href="#DejaVuSans-74" x="646.931641"/>
     <use xlink:href="#DejaVuSans-69" x="686.140625"/>
     <use xlink:href="#DejaVuSans-6f" x="713.923828"/>
     <use xlink:href="#DejaVuSans-6e" x="775.105469"/>
     <use xlink:href="#DejaVuSans-28" x="838.484375"/>
     <use xlink:href="#DejaVuSans-73" x="877.498047"/>
     <use xlink:href="#DejaVuSans-29" x="929.597656"/>
    </g>
   </g>
   <g id="legend_1">
    <g id="patch_7">
     <path d="M 616.865824 66.118125 
L 695.226761 66.118125 
Q 697.226761 66.118125 697.226761 64.118125 
L 697.226761 50.44 
Q 697.226761 48.44 695.226761 48.44 
L 616.865824 48.44 
Q 614.865824 48.44 614.865824 50.44 
L 614.865824 64.118125 
Q 614.865824 66.118125 616.865824 66.118125 
z
" style="fill: #ffffff; opacity: 0.8; stroke: #cccccc; stroke-linejoin: miter"/>
    </g>
    <g id="line2d_14">
     <path d="M 618.865824 56.538438 
L 628.865824 56.538438 
L 638.865824 56.538438 
" style="fill: none; stroke: #1f77b4; stroke-width: 1.5; stroke-linecap: square"/>
    </g>
    <g id="text_14">
     <!-- observed -->
     <g transform="translate(646.865824 60.038438) scale(0.1 -0.1)">
      <defs>
       <path id="DejaVuSans-62" d="M 3116 1747 
Q 3116 2381 2855 2742 
Q 2594 3103 2138 3103 
Q 1681 3103 1420 2742 
Q 1159 2381 1159 1747 
Q 1159 1113 1420 752 
Q 1681 391 2138 391 
Q 2594 391 2855 752 
Q 3116 1113 3116 1747 
z
M 1159 2969 
Q 1341 3281 1617 3432 
Q 1894 3584 2278 3584 
Q 2916 3584 3314 3078 
Q 3713 2572 3713 1747 
Q 3713 922 3314 415 
Q 2916 -91 2278 -91 
Q 1894 -91 1617 61 
Q 1341 213 1159 525 
L 1159 0 
L 581 0 
L 581 4863 
L 1159 4863 
L 1159 2969 
z
" transform="scale(0.015625)"/>
       <path id="DejaVuSans-65" d="M 3597 1894 
L 3597 1613 
L 953 1613 
Q 991 1019 1311 708 
Q 1631 397 2203 397 
Q 2534 397 2845 478 
Q 3156 559 3463 722 
L 3463 178 
Q 3153 47 2828 -22 
Q 2503 -91 2169 -91 
Q 1331 -91 842 396 
Q 353 884 353 1716 
Q 353 2575 817 3079 
Q 1281 3584 2069 3584 
Q 2775 3584 3186 3129 
Q 3597 2675 3597 1894 
z
M 3022 2063 
Q 3016 2534 2758 2815 
Q 2500 3097 2075 3097 
Q 1594 3097 1305 2825 
Q 1016 2553 972 2059 
L 3022 2063 
z
" transform="scale(0.015625)"/>
       <path id="DejaVuSans-76" d="M 191 3500 
L 800 3500 
L 1894 563 
L 2988 3500 
L 3597 3500 
L 2284 0 
L 1503 0 
L 191 3500 
z
" transform="scale(0.015625)"/>
       <path id="DejaVuSans-64" d="M 2906 2969 
L 2906 4863 
L 3481 4863 
L 3481 0 
L 2906 0 
L 2906 525 
Q 2725 213 2448 61 
Q 2172 -91 1784 -91 
Q 1150 -91 751 415 
Q 353 922 353 1747 
Q 353 2572 751 3078 
Q 1150 3584 1784 3584 
Q 2172 3584 2448 3432 
Q 2725 3281 2906 2969 
z
M 947 1747 
Q 947 1113 1208 752 
Q 1469 391 1925 391 
Q 2381 391 2643 752 
Q 2906 1113 2906 1747 
Q 2906 2381 2643 2742 
Q 2381 3103 1925 3103 
Q 1469 3103 1208 2742 
Q 947 2381 947 1747 
z
" transform="scale(0.015625)"/>
      </defs>
      <use xlink:href="#DejaVuSans-6f"/>
      <use xlink:href="#DejaVuSans-62" x="61.181641"/>
      <use xlink:href="#DejaVuSans-73" x="124.658203"/>
      <use xlink:href="#DejaVuSans-65" x="176.757812"/>
      <use xlink:href="#DejaVuSans-72" x="238.28125"/>
      <use xlink:href="#DejaVuSans-76" x="279.394531"/>
      <use xlink:href="#DejaVuSans-65" x="338.574219"/>
      <use xlink:href="#DejaVuSans-64" x="400.097656"/>
     </g>
    </g>
   </g>
  </g>
  <g id="axes_2">
   <g id="patch_8">
    <path d="M 30.103125 684.92 
L 702.226761 684.92 
L 702.226761 386.16 
L 30.103125 386.16 
z
" style="fill: #ffffff"/>
   </g>
   <g id="matplotlib.axis_3">
    <g id="xtick_7">
     <g id="line2d_15">
      <g>
       <use xlink:href="#m0e34b01b19" x="60.484424" y="684.92" style="stroke: #000000; stroke-width: 0.8"/>
      </g>
     </g>
     <g id="text_15">
      <!-- 2014-07-01 -->
      <g transform="translate(31.426612 699.518437) scale(0.1 -0.1)">
       <use xlink:href="#DejaVuSans-32"/>
       <use xlink:href="#DejaVuSans-30" x="63.623047"/>
       <use xlink:href="#DejaVuSans-31" x="127.246094"/>
       <use xlink:href="#DejaVuSans-34" x="190.869141"/>
       <use xlink:href="#DejaVuSans-2d" x="254.492188"/>
       <use xlink:href="#DejaVuSans-30" x="290.576172"/>
       <use xlink:href="#DejaVuSans-37" x="354.199219"/>
       <use xlink:href="#DejaVuSans-2d" x="417.822266"/>
       <use xlink:href="#DejaVuSans-30" x="453.90625"/>
       <use xlink:href="#DejaVuSans-31" x="517.529297"/>
      </g>
     </g>
    </g>
    <g id="xtick_8">
     <g id="line2d_16">
      <g>
       <use xlink:href="#m0e34b01b19" x="182.722677" y="684.92" style="stroke: #000000; stroke-width: 0.8"/>
      </g>
     </g>
     <g id="text_16">
      <!-- 2014-07-02 -->
      <g transform="translate(153.664864 699.518437) scale(0.1 -0.1)">
       <use xlink:href="#DejaVuSans-32"/>
       <use xlink:href="#DejaVuSans-30" x="63.623047"/>
       <use xlink:href="#DejaVuSans-31" x="127.246094"/>
       <use xlink:href="#DejaVuSans-34" x="190.869141"/>
       <use xlink:href="#DejaVuSans-2d" x="254.492188"/>
       <use xlink:href="#DejaVuSans-30" x="290.576172"/>
       <use xlink:href="#DejaVuSans-37" x="354.199219"/>
       <use xlink:href="#DejaVuSans-2d" x="417.822266"/>
       <use xlink:href="#DejaVuSans-30" x="453.90625"/>
       <use xlink:href="#DejaVuSans-32" x="517.529297"/>
      </g>
     </g>
    </g>
    <g id="xtick_9">
     <g id="line2d_17">
      <g>
       <use xlink:href="#m0e34b01b19" x="304.960929" y="684.92" style="stroke: #000000; stroke-width: 0.8"/>
      </g>
     </g>
     <g id="text_17">
      <!-- 2014-07-03 -->
      <g transform="translate(275.903117 699.518437) scale(0.1 -0.1)">
       <use xlink:href="#DejaVuSans-32"/>
       <use xlink:href="#DejaVuSans-30" x="63.623047"/>
       <use xlink:href="#DejaVuSans-31" x="127.246094"/>
       <use xlink:href="#DejaVuSans-34" x="190.869141"/>
       <use xlink:href="#DejaVuSans-2d" x="254.492188"/>
       <use xlink:href="#DejaVuSans-30" x="290.576172"/>
       <use xlink:href="#DejaVuSans-37" x="354.199219"/>
       <use xlink:href="#DejaVuSans-2d" x="417.822266"/>
       <use xlink:href="#DejaVuSans-30" x="453.90625"/>
       <use xlink:href="#DejaVuSans-33" x="517.529297"/>
      </g>
     </g>
    </g>
    <g id="xtick_10">
     <g id="line2d_18">
      <g>
       <use xlink:href="#m0e34b01b19" x="427.199182" y="684.92" style="stroke: #000000; stroke-width: 0.8"/>
      </g>
     </g>
     <g id="text_18">
      <!-- 2014-07-04 -->
      <g transform="translate(398.141369 699.518437) scale(0.1 -0.1)">
       <use xlink:href="#DejaVuSans-32"/>
       <use xlink:href="#DejaVuSans-30" x="63.623047"/>
       <use xlink:href="#DejaVuSans-31" x="127.246094"/>
       <use xlink:href="#DejaVuSans-34" x="190.869141"/>
       <use xlink:href="#DejaVuSans-2d" x="254.492188"/>
       <use xlink:href="#DejaVuSans-30" x="290.576172"/>
       <use xlink:href="#DejaVuSans-37" x="354.199219"/>
       <use xlink:href="#DejaVuSans-2d" x="417.822266"/>
       <use xlink:href="#DejaVuSans-30" x="453.90625"/>
       <use xlink:href="#DejaVuSans-34" x="517.529297"/>
      </g>
     </g>
    </g>
    <g id="xtick_11">
     <g id="line2d_19">
      <g>
       <use xlink:href="#m0e34b01b19" x="549.437434" y="684.92" style="stroke: #000000; stroke-width: 0.8"/>
      </g>
     </g>
     <g id="text_19">
      <!-- 2014-07-05 -->
      <g transform="translate(520.379622 699.518437) scale(0.1 -0.1)">
       <use xlink:href="#DejaVuSans-32"/>
       <use xlink:href="#DejaVuSans-30" x="63.623047"/>
       <use xlink:href="#DejaVuSans-31" x="127.246094"/>
       <use xlink:href="#DejaVuSans-34" x="190.869141"/>
       <use xlink:href="#DejaVuSans-2d" x="254.492188"/>
       <use xlink:href="#DejaVuSans-30" x="290.576172"/>
       <use xlink:href="#DejaVuSans-37" x="354.199219"/>
       <use xlink:href="#DejaVuSans-2d" x="417.822266"/>
       <use xlink:href="#DejaVuSans-30" x="453.90625"/>
       <use xlink:href="#DejaVuSans-35" x="517.529297"/>
      </g>
     </g>
    </g>
    <g id="xtick_12">
     <g id="line2d_20">
      <g>
       <use xlink:href="#m0e34b01b19" x="671.675687" y="684.92" style="stroke: #000000; stroke-width: 0.8"/>
      </g>
     </g>
     <g id="text_20">
      <!-- 2014-07-06 -->
      <g transform="translate(642.617874 699.518437) scale(0.1 -0.1)">
       <use xlink:href="#DejaVuSans-32"/>
       <use xlink:href="#DejaVuSans-30" x="63.623047"/>
       <use xlink:href="#DejaVuSans-31" x="127.246094"/>
       <use xlink:href="#DejaVuSans-34" x="190.869141"/>
       <use xlink:href="#DejaVuSans-2d" x="254.492188"/>
       <use xlink:href="#DejaVuSans-30" x="290.576172"/>
       <use xlink:href="#DejaVuSans-37" x="354.199219"/>
       <use xlink:href="#DejaVuSans-2d" x="417.822266"/>
       <use xlink:href="#DejaVuSans-30" x="453.90625"/>
       <use xlink:href="#DejaVuSans-36" x="517.529297"/>
      </g>
     </g>
    </g>
   </g>
   <g id="matplotlib.axis_4">
    <g id="ytick_7">
     <g id="line2d_21">
      <g>
       <use xlink:href="#mc6e36eb8f6" x="30.103125" y="660.371801" style="stroke: #000000; stroke-width: 0.8"/>
      </g>
     </g>
     <g id="text_21">
      <!-- 0.0 -->
      <g transform="translate(7.2 664.171019) scale(0.1 -0.1)">
       <use xlink:href="#DejaVuSans-30"/>
       <use xlink:href="#DejaVuSans-2e" x="63.623047"/>
       <use xlink:href="#DejaVuSans-30" x="95.410156"/>
      </g>
     </g>
    </g>
    <g id="ytick_8">
     <g id="line2d_22">
      <g>
       <use xlink:href="#mc6e36eb8f6" x="30.103125" y="607.678972" style="stroke: #000000; stroke-width: 0.8"/>
      </g>
     </g>
     <g id="text_22">
      <!-- 0.5 -->
      <g transform="translate(7.2 611.478191) scale(0.1 -0.1)">
       <use xlink:href="#DejaVuSans-30"/>
       <use xlink:href="#DejaVuSans-2e" x="63.623047"/>
       <use xlink:href="#DejaVuSans-35" x="95.410156"/>
      </g>
     </g>
    </g>
    <g id="ytick_9">
     <g id="line2d_23">
      <g>
       <use xlink:href="#mc6e36eb8f6" x="30.103125" y="554.986143" style="stroke: #000000; stroke-width: 0.8"/>
      </g>
     </g>
     <g id="text_23">
      <!-- 1.0 -->
      <g transform="translate(7.2 558.785362) scale(0.1 -0.1)">
       <use xlink:href="#DejaVuSans-31"/>
       <use xlink:href="#DejaVuSans-2e" x="63.623047"/>
       <use xlink:href="#DejaVuSans-30" x="95.410156"/>
      </g>
     </g>
    </g>
    <g id="ytick_10">
     <g id="line2d_24">
      <g>
       <use xlink:href="#mc6e36eb8f6" x="30.103125" y="502.293315" style="stroke: #000000; stroke-width: 0.8"/>
      </g>
     </g>
     <g id="text_24">
      <!-- 1.5 -->
      <g transform="translate(7.2 506.092534) scale(0.1 -0.1)">
       <use xlink:href="#DejaVuSans-31"/>
       <use xlink:href="#DejaVuSans-2e" x="63.623047"/>
       <use xlink:href="#DejaVuSans-35" x="95.410156"/>
      </g>
     </g>
    </g>
    <g id="ytick_11">
     <g id="line2d_25">
      <g>
       <use xlink:href="#mc6e36eb8f6" x="30.103125" y="449.600486" style="stroke: #000000; stroke-width: 0.8"/>
      </g>
     </g>
     <g id="text_25">
      <!-- 2.0 -->
      <g transform="translate(7.2 453.399705) scale(0.1 -0.1)">
       <use xlink:href="#DejaVuSans-32"/>
       <use xlink:href="#DejaVuSans-2e" x="63.623047"/>
       <use xlink:href="#DejaVuSans-30" x="95.410156"/>
      </g>
     </g>
    </g>
    <g id="ytick_12">
     <g id="line2d_26">
      <g>
       <use xlink:href="#mc6e36eb8f6" x="30.103125" y="396.907658" style="stroke: #000000; stroke-width: 0.8"/>
      </g>
     </g>
     <g id="text_26">
      <!-- 2.5 -->
      <g transform="translate(7.2 400.706877) scale(0.1 -0.1)">
       <use xlink:href="#DejaVuSans-32"/>
       <use xlink:href="#DejaVuSans-2e" x="63.623047"/>
       <use xlink:href="#DejaVuSans-35" x="95.410156"/>
      </g>
     </g>
    </g>
   </g>
   <g id="line2d_27">
    <path d="M 60.654199 660.371801 
L 80.178365 660.279153 
L 80.433028 660.05953 
L 80.687691 659.437017 
L 80.942354 658.038694 
L 81.197017 655.266944 
L 81.621455 647.469305 
L 82.130781 638.76064 
L 82.55522 635.232717 
L 83.149433 632.895679 
L 83.658759 630.843276 
L 85.186738 624.05461 
L 86.120502 621.806819 
L 87.054266 620.442313 
L 87.903143 619.563042 
L 88.157806 619.505795 
L 88.75202 619.847084 
L 89.431121 620.729678 
L 89.516009 620.622952 
L 89.770672 619.359895 
L 90.110223 617.796358 
L 90.364886 617.361432 
L 90.704436 617.168663 
L 90.9591 617.229863 
L 91.213763 617.637107 
L 91.468426 618.384756 
L 91.977752 620.769374 
L 93.081291 626.975471 
L 93.166179 626.909515 
L 93.335954 625.706958 
L 93.84528 618.628465 
L 94.439494 602.45232 
L 94.94882 575.364334 
L 96.476798 415.325821 
L 96.986124 400.497295 
L 97.1559 399.894901 
L 97.240787 400.414505 
L 97.410563 399.74 
L 97.665226 402.04103 
L 98.25944 411.988499 
L 99.872305 449.173145 
L 100.80607 498.506855 
L 101.315396 514.068329 
L 101.739834 524.350073 
L 102.503823 542.371623 
L 103.182925 556.56704 
L 103.862026 567.951842 
L 104.031802 569.860311 
L 104.116689 570.089811 
L 104.541128 574.655501 
L 104.795791 572.361538 
L 104.880678 572.81604 
L 104.965566 572.683426 
L 105.050454 572.780801 
L 105.135341 572.304458 
L 105.474892 559.383414 
L 105.729555 552.063574 
L 106.153993 508.108817 
L 106.663319 459.809654 
L 107.00287 432.752014 
L 107.172646 431.195665 
L 107.342421 433.438378 
L 107.597084 441.538088 
L 107.766859 451.800874 
L 108.276185 496.635553 
L 108.700624 518.045532 
L 109.20995 535.777771 
L 109.804163 550.739967 
L 110.483265 560.89762 
L 111.077479 565.207887 
L 111.417029 566.433861 
L 111.841468 567.129836 
L 112.096131 567.188329 
L 112.350794 567.047398 
L 112.690344 566.529641 
L 113.114783 565.455239 
L 113.793884 562.667947 
L 114.557873 558.14075 
L 115.321862 552.565753 
L 117.444054 534.796429 
L 118.972032 520.079511 
L 120.924449 503.92739 
L 121.943101 494.552 
L 122.452427 487.415919 
L 123.131528 477.233033 
L 124.489731 458.262075 
L 124.91417 451.620119 
L 125.678159 438.953839 
L 126.442148 434.533741 
L 127.885238 427.928545 
L 129.158553 423.109171 
L 130.431869 419.114204 
L 131.280745 417.066066 
L 132.299397 415.238986 
L 133.402937 413.975982 
L 133.912263 413.709899 
L 134.336702 413.594345 
L 135.270466 413.624672 
L 136.034455 413.94455 
L 137.222883 414.958254 
L 138.920636 417.297124 
L 139.599738 419.002795 
L 140.448614 422.113382 
L 142.910357 431.615695 
L 145.202324 439.280828 
L 145.966313 441.760729 
L 146.305864 443.238785 
L 146.730302 448.304668 
L 147.748954 461.223551 
L 148.25828 465.064711 
L 148.852494 468.197672 
L 149.701371 471.726102 
L 150.295585 474.580492 
L 152.587552 486.850209 
L 154.455081 495.130461 
L 155.303957 497.366805 
L 155.813284 498.730588 
L 157.7657 504.919273 
L 159.293678 509.526571 
L 160.821656 513.089876 
L 161.161207 513.923076 
L 162.179859 517.060446 
L 164.047388 523.132635 
L 166.594018 530.233076 
L 167.188232 532.014665 
L 168.121996 534.513398 
L 168.461547 535.066381 
L 168.885986 535.715886 
L 169.225536 536.344913 
L 169.904638 538.048951 
L 170.413964 539.510587 
L 173.045482 547.976181 
L 176.01655 555.892893 
L 176.356101 556.461015 
L 177.374753 558.373127 
L 177.629416 558.798892 
L 178.393405 560.51359 
L 179.751608 564.379153 
L 181.109811 568.64499 
L 182.213351 570.990706 
L 182.383126 571.095048 
L 183.571553 572.912938 
L 185.948408 576.293992 
L 186.203071 576.47346 
L 186.882173 577.048115 
L 187.985712 578.230194 
L 188.749702 578.927036 
L 193.758074 584.65287 
L 194.2674 584.863695 
L 194.776727 585.004331 
L 195.965154 585.824484 
L 197.408244 587.040509 
L 198.257121 587.444162 
L 198.766447 587.891749 
L 199.360661 588.635827 
L 200.549088 590.547783 
L 201.822404 592.485812 
L 203.350382 594.413264 
L 205.387686 596.585366 
L 206.406338 597.55647 
L 207.934316 598.892759 
L 208.019204 598.856314 
L 208.188979 598.213003 
L 208.952968 593.01301 
L 209.547182 586.939101 
L 210.141396 581.096739 
L 210.73561 577.968828 
L 211.244936 576.001979 
L 211.414711 576.079474 
L 211.499599 575.971539 
L 211.754262 574.220339 
L 212.093812 574.508954 
L 212.348475 573.389903 
L 212.688026 574.183574 
L 212.857801 573.510061 
L 212.942689 573.596388 
L 213.367127 575.288887 
L 213.536903 575.063476 
L 213.706678 575.811336 
L 214.046229 577.402051 
L 214.131117 577.411743 
L 214.895106 579.930074 
L 216.338196 583.362831 
L 218.290613 587.269782 
L 218.545276 587.452617 
L 218.969714 587.35146 
L 219.139489 587.047192 
L 219.818591 584.951177 
L 220.327917 581.277614 
L 220.667468 576.85131 
L 221.007018 560.074446 
L 221.601232 533.3563 
L 222.02567 512.551453 
L 222.195446 510.026112 
L 222.280333 510.148915 
L 222.450109 512.334843 
L 222.874547 524.115321 
L 224.317638 571.389473 
L 224.742076 579.735851 
L 225.081627 582.03656 
L 225.930503 586.06737 
L 226.694492 588.655953 
L 227.458482 590.611942 
L 228.392246 592.403983 
L 229.410898 593.902712 
L 231.617978 596.319553 
L 232.891293 597.493423 
L 234.589046 598.723964 
L 235.522811 599.020813 
L 238.069441 599.485033 
L 238.83343 599.522798 
L 239.682307 599.406992 
L 240.531184 599.290264 
L 242.908038 598.322376 
L 243.332477 598.47854 
L 243.926691 598.962817 
L 245.115118 600.168646 
L 245.539556 600.37417 
L 246.897759 600.668997 
L 247.661748 601.076225 
L 248.765288 601.703286 
L 249.189726 601.897295 
L 250.632817 602.02339 
L 251.142143 602.147587 
L 251.821244 602.110658 
L 252.245683 602.144063 
L 253.009672 602.544155 
L 253.603886 603.131549 
L 254.282987 603.784891 
L 254.877201 604.322171 
L 255.726077 605.123285 
L 256.320291 605.326038 
L 256.829617 605.347069 
L 258.782034 605.414978 
L 260.140237 605.613786 
L 261.158889 605.545645 
L 262.177541 605.623334 
L 262.686867 605.902489 
L 263.365968 606.287029 
L 263.790407 606.468789 
L 265.912599 607.841084 
L 267.69524 607.942043 
L 268.119678 607.896167 
L 269.732544 608.094284 
L 270.072095 607.97983 
L 271.515185 607.359666 
L 272.109399 607.592696 
L 272.618725 608.083596 
L 273.807152 609.382574 
L 274.740917 609.931389 
L 275.165355 609.850647 
L 275.589794 609.596722 
L 276.523558 608.998914 
L 276.947996 608.996596 
L 277.457322 609.199045 
L 278.64575 610.062245 
L 279.155076 610.447262 
L 279.74929 610.421263 
L 280.343503 610.313492 
L 281.531931 610.379447 
L 282.211032 610.320891 
L 282.805246 610.352735 
L 283.39946 610.15757 
L 283.908786 610.226119 
L 284.502999 610.600944 
L 285.182101 611.348386 
L 288.322945 615.415277 
L 289.681148 616.568449 
L 291.209126 617.519577 
L 292.482441 618.124326 
L 293.585981 618.096141 
L 294.519745 618.241513 
L 295.538397 618.445376 
L 296.726825 618.959621 
L 298.424578 619.668077 
L 299.273455 619.938686 
L 302.074748 620.872823 
L 303.0934 621.095432 
L 303.857389 621.043051 
L 304.366715 620.849748 
L 304.960929 620.430322 
L 305.809806 619.585171 
L 306.658683 618.351625 
L 308.271549 615.438679 
L 308.611099 614.517083 
L 309.629751 610.907411 
L 310.648403 607.120172 
L 311.49728 604.972297 
L 312.091494 603.955534 
L 312.515932 603.363831 
L 313.195034 602.538527 
L 313.789247 601.883445 
L 314.298574 601.418829 
L 314.553237 601.352246 
L 314.977675 601.128889 
L 315.741664 601.127224 
L 316.081215 601.263608 
L 316.760316 601.844255 
L 316.930091 601.19948 
L 317.439417 598.675571 
L 318.033631 597.597714 
L 318.203407 597.614102 
L 318.45807 598.100427 
L 318.882508 599.662711 
L 320.834925 608.36076 
L 321.683801 610.857197 
L 322.44779 612.482026 
L 323.211779 613.593408 
L 324.145544 614.560773 
L 325.079308 615.21128 
L 326.182848 615.69599 
L 327.710826 616.265289 
L 329.153917 617.048231 
L 333.228525 619.370068 
L 336.70892 620.811997 
L 340.783528 622.26715 
L 346.131452 623.989195 
L 355.384208 626.680536 
L 364.127639 628.966142 
L 371.088428 630.610645 
L 380.680736 632.602111 
L 391.46147 634.626803 
L 400.884002 636.187296 
L 410.306534 637.463569 
L 423.294349 638.997445 
L 435.178623 640.250783 
L 461.748466 642.626328 
L 484.2437 644.284022 
L 518.368545 646.29905 
L 544.938388 647.579571 
L 578.044581 648.904138 
L 626.770107 650.506708 
L 651.642196 651.136188 
L 671.675687 651.568403 
L 671.675687 651.568403 
" clip-path="url(#p6b7730ef6c)" style="fill: none; stroke: #1f77b4; stroke-width: 1.5; stroke-linecap: square"/>
   </g>
   <g id="line2d_28">
    <path d="M 60.654199 660.371801 
L 62.09729 660.482182 
L 62.861279 660.773379 
L 64.304369 661.451484 
L 66.426561 662.14562 
L 69.312742 662.682397 
L 70.246507 662.448695 
L 72.538474 661.786351 
L 73.557126 661.725866 
L 74.15134 661.870134 
L 74.830441 662.257396 
L 75.509543 662.839075 
L 76.018869 663.371953 
L 79.074825 666.239172 
L 80.857466 667.145147 
L 81.536568 667.109002 
L 82.045894 666.684789 
L 82.470332 666.066472 
L 82.640107 665.905788 
L 83.064546 665.153074 
L 83.234321 664.930645 
L 83.573872 664.237365 
L 84.507636 662.715471 
L 84.762299 662.381741 
L 84.932075 662.188609 
L 85.356513 661.769584 
L 85.696064 661.944707 
L 85.950727 661.843305 
L 86.290277 662.062012 
L 86.54494 661.934195 
L 86.884491 662.097309 
L 87.139154 661.922243 
L 87.393817 662.043332 
L 88.072919 661.893035 
L 88.412469 662.059283 
L 89.176458 663.775547 
L 89.516009 665.176689 
L 89.770672 665.962182 
L 89.85556 665.780495 
L 90.110223 663.763116 
L 90.704436 658.969771 
L 90.9591 658.336244 
L 91.128875 658.455516 
L 91.383538 659.337755 
L 91.807976 662.048713 
L 92.741741 668.238291 
L 92.826628 668.55967 
L 93.081291 670.345278 
L 93.50573 671.34 
L 93.590617 671.138277 
L 93.930168 666.234656 
L 94.099943 661.144083 
L 94.524382 636.73569 
L 94.863933 611.858543 
L 96.307023 479.617739 
L 96.986124 448.929619 
L 97.1559 446.174329 
L 97.410563 442.42801 
L 97.495451 442.591356 
L 97.665226 445.938441 
L 98.768766 480.566973 
L 99.532755 509.97575 
L 100.466519 539.466644 
L 101.654947 571.65022 
L 102.588711 587.749139 
L 103.267812 595.65458 
L 104.031802 602.59764 
L 104.541128 604.384051 
L 104.626015 604.323183 
L 105.220229 601.684785 
L 105.814443 592.663695 
L 106.323769 574.939124 
L 107.172646 522.224152 
L 107.427309 517.206886 
L 107.512196 516.909221 
L 107.597084 517.115644 
L 107.766859 518.941421 
L 108.021522 525.029297 
L 108.700624 549.618909 
L 109.464613 574.607863 
L 110.058826 586.971711 
L 110.568153 593.181958 
L 111.077479 596.838911 
L 111.501917 598.56703 
L 111.926355 599.495075 
L 112.350794 599.909428 
L 112.86012 600.071538 
L 114.982312 600.320913 
L 116.764953 600.972408 
L 118.038268 601.467704 
L 120.754674 602.336916 
L 121.60355 602.581857 
L 121.858213 602.851333 
L 122.282652 603.064502 
L 123.131528 604.38474 
L 123.725742 604.850915 
L 124.489731 605.094674 
L 126.102597 605.147478 
L 127.121249 605.229204 
L 128.055014 605.478608 
L 128.988778 605.777358 
L 129.667879 606.081215 
L 131.450521 606.90049 
L 131.874959 607.090999 
L 132.469173 607.378713 
L 133.063387 607.681125 
L 133.6576 607.990455 
L 134.506477 608.426281 
L 134.930915 608.62834 
L 135.440241 608.898191 
L 136.289118 609.341891 
L 136.628669 609.518174 
L 137.562433 609.987475 
L 137.901984 610.151974 
L 141.127716 611.313843 
L 141.721929 611.185964 
L 142.570806 610.759773 
L 144.098784 609.99081 
L 145.117436 609.753816 
L 146.390752 609.704117 
L 147.833842 609.826638 
L 148.597831 610.67524 
L 149.786259 612.419786 
L 150.380472 612.89477 
L 150.804911 613.008587 
L 152.078226 613.111301 
L 152.927103 613.331041 
L 153.860867 613.522111 
L 154.11553 613.610263 
L 154.624856 613.788532 
L 155.388845 614.30573 
L 156.407497 614.804775 
L 157.341262 615.088692 
L 158.020363 615.211143 
L 159.378566 615.496296 
L 159.633229 615.615511 
L 161.925196 616.769338 
L 162.51941 616.837277 
L 163.453174 616.75069 
L 163.877613 616.711671 
L 164.471826 616.929573 
L 164.811377 617.087164 
L 165.235815 617.301889 
L 166.084692 617.759625 
L 167.103344 617.912714 
L 167.527783 617.968523 
L 168.461547 618.585883 
L 169.395312 619.225208 
L 170.244188 619.661362 
L 171.517503 619.802493 
L 171.941942 619.811573 
L 172.705931 619.967337 
L 173.809471 620.199244 
L 174.743235 620.224196 
L 175.252561 620.408232 
L 175.677 620.63376 
L 176.525876 621.057237 
L 176.950315 621.306136 
L 177.629416 621.69668 
L 178.987619 622.293939 
L 179.836496 622.376168 
L 180.685372 622.238416 
L 181.109811 622.186662 
L 181.534249 622.200072 
L 184.250655 623.911004 
L 184.759981 624.149415 
L 187.985712 625.613741 
L 188.579926 625.810308 
L 189.853241 626.164337 
L 191.041669 626.384409 
L 193.418524 626.645952 
L 193.758074 626.648869 
L 194.182513 626.877946 
L 194.606951 627.237582 
L 195.37094 627.786549 
L 196.559368 628.088202 
L 197.323357 628.25956 
L 198.766447 628.998971 
L 199.360661 628.994506 
L 200.039762 628.72344 
L 202.586393 627.407585 
L 203.689932 627.245452 
L 205.387686 627.26122 
L 207.764541 627.338158 
L 208.019204 627.76171 
L 208.358755 627.809334 
L 208.783193 629.593829 
L 209.037856 630.073067 
L 209.122744 630.043642 
L 209.462294 628.075715 
L 209.716957 625.299234 
L 211.414711 598.031323 
L 211.924037 594.945629 
L 212.093812 594.852098 
L 212.348475 594.590317 
L 212.518251 595.174827 
L 213.28224 599.589012 
L 213.791566 603.937578 
L 214.640443 612.272259 
L 215.998645 621.855772 
L 217.017297 626.783675 
L 217.696399 629.233294 
L 218.884826 632.070018 
L 219.394152 631.759243 
L 219.563928 631.545953 
L 220.243029 628.182477 
L 220.667468 623.044656 
L 220.922131 615.600235 
L 221.261681 601.750197 
L 222.280333 526.113698 
L 222.534996 522.99466 
L 222.619884 523.46385 
L 222.789659 526.349785 
L 223.12921 538.018989 
L 224.572301 596.475184 
L 225.081627 606.993775 
L 225.590953 612.811775 
L 226.015391 615.364408 
L 226.439829 616.618779 
L 226.77938 617.053655 
L 227.203819 617.209823 
L 227.88292 617.117231 
L 228.901572 617.009157 
L 229.920224 617.169795 
L 234.504159 618.433146 
L 234.843709 618.713976 
L 235.777474 619.606949 
L 236.711238 620.375865 
L 237.645003 620.657741 
L 238.324104 620.890926 
L 238.83343 621.170036 
L 239.172981 621.413312 
L 240.531184 622.317374 
L 240.870734 622.516393 
L 241.210285 622.753756 
L 241.974274 623.245679 
L 242.4836 623.565894 
L 244.181354 624.173678 
L 245.200006 624.34219 
L 245.709332 624.481568 
L 246.303546 624.781043 
L 247.23731 625.181415 
L 248.086187 625.383055 
L 250.547929 626.411365 
L 250.972368 626.62091 
L 251.396806 626.814555 
L 253.518998 627.505887 
L 254.53765 627.454445 
L 255.895853 627.581585 
L 256.150516 627.644327 
L 256.574954 627.843017 
L 256.914505 628.088208 
L 258.18782 628.926251 
L 260.649563 629.975941 
L 262.347316 630.721391 
L 264.469508 631.197395 
L 266.082374 631.412478 
L 267.101026 632.020771 
L 267.440577 632.206853 
L 268.03479 632.505061 
L 269.392993 633.055463 
L 269.562769 633.145043 
L 269.902319 633.319251 
L 270.24187 633.551278 
L 272.194287 634.397698 
L 272.958276 634.398522 
L 273.807152 634.284281 
L 275.080467 634.80333 
L 275.420018 635.061155 
L 277.372435 636.156777 
L 279.324851 636.395408 
L 279.74929 636.590818 
L 280.343503 636.961637 
L 281.447043 637.486367 
L 282.211032 637.788821 
L 282.890134 638.103887 
L 283.823898 638.54306 
L 284.502999 638.696355 
L 285.097213 638.606757 
L 285.776315 638.265938 
L 287.813619 637.087813 
L 288.747383 636.877772 
L 290.020698 636.837691 
L 292.14289 636.987927 
L 292.397553 637.040341 
L 292.737104 637.132262 
L 294.095307 638.60261 
L 294.604633 638.686761 
L 295.283734 638.533195 
L 297.830364 637.717708 
L 298.339691 637.736113 
L 299.697893 638.401144 
L 300.461882 638.393577 
L 302.499187 638.201096 
L 303.432951 638.673826 
L 304.027165 639.172936 
L 304.960929 640.080088 
L 305.470255 640.628531 
L 305.809806 640.988967 
L 307.762222 642.591417 
L 308.101773 642.813923 
L 308.271549 642.947073 
L 309.120425 643.156575 
L 309.544864 642.89766 
L 310.139077 641.992104 
L 311.667056 638.962572 
L 311.836831 638.854545 
L 312.091494 638.498446 
L 312.431045 638.413904 
L 312.685708 638.114646 
L 313.025258 638.08835 
L 313.279921 637.816068 
L 313.619472 637.832024 
L 313.874135 637.586927 
L 314.128798 637.582193 
L 314.553237 637.462705 
L 314.892787 637.81406 
L 315.062563 637.778836 
L 315.232338 637.9354 
L 315.571889 638.192511 
L 315.741664 638.317291 
L 316.505653 639.675645 
L 316.845204 640.958613 
L 317.099867 641.695651 
L 317.269642 640.932681 
L 318.118519 634.367555 
L 318.288294 634.086553 
L 318.45807 634.247231 
L 318.712733 635.157917 
L 319.137171 637.911561 
L 320.070935 644.163255 
L 320.580261 646.01859 
L 321.0047 646.776322 
L 321.429138 647.053243 
L 321.853577 647.108877 
L 323.381555 647.07251 
L 325.588634 647.766564 
L 327.880602 648.398044 
L 328.814366 648.223237 
L 331.276109 647.64702 
L 332.549424 647.675624 
L 334.077402 647.744074 
L 343.245271 647.704368 
L 444.770931 647.877508 
L 671.675687 648.251413 
L 671.675687 648.251413 
" clip-path="url(#p6b7730ef6c)" style="fill: none; stroke: #ff7f0e; stroke-width: 1.5; stroke-linecap: square"/>
   </g>
   <g id="patch_9">
    <path d="M 30.103125 684.92 
L 30.103125 386.16 
" style="fill: none; stroke: #000000; stroke-width: 0.8; stroke-linejoin: miter; stroke-linecap: square"/>
   </g>
   <g id="patch_10">
    <path d="M 702.226761 684.92 
L 702.226761 386.16 
" style="fill: none; stroke: #000000; stroke-width: 0.8; stroke-linejoin: miter; stroke-linecap: square"/>
   </g>
   <g id="patch_11">
    <path d="M 30.103125 684.92 
L 702.226761 684.92 
" style="fill: none; stroke: #000000; stroke-width: 0.8; stroke-linejoin: miter; stroke-linecap: square"/>
   </g>
   <g id="patch_12">
    <path d="M 30.103125 386.16 
L 702.226761 386.16 
" style="fill: none; stroke: #000000; stroke-width: 0.8; stroke-linejoin: miter; stroke-linecap: square"/>
   </g>
   <g id="text_27">
    <!-- 2 transformation(s) -->
    <g transform="translate(308.050256 380.16) scale(0.12 -0.12)">
     <use xlink:href="#DejaVuSans-32"/>
     <use xlink:href="#DejaVuSans-20" x="63.623047"/>
     <use xlink:href="#DejaVuSans-74" x="95.410156"/>
     <use xlink:href="#DejaVuSans-72" x="134.619141"/>
     <use xlink:href="#DejaVuSans-61" x="175.732422"/>
     <use xlink:href="#DejaVuSans-6e" x="237.011719"/>
     <use xlink:href="#DejaVuSans-73" x="300.390625"/>
     <use xlink:href="#DejaVuSans-66" x="352.490234"/>
     <use xlink:href="#DejaVuSans-6f" x="387.695312"/>
     <use xlink:href="#DejaVuSans-72" x="448.876953"/>
     <use xlink:href="#DejaVuSans-6d" x="488.240234"/>
     <use xlink:href="#DejaVuSans-61" x="585.652344"/>
     <use xlink:href="#DejaVuSans-74" x="646.931641"/>
     <use xlink:href="#DejaVuSans-69" x="686.140625"/>
     <use xlink:href="#DejaVuSans-6f" x="713.923828"/>
     <use xlink:href="#DejaVuSans-6e" x="775.105469"/>
     <use xlink:href="#DejaVuSans-28" x="838.484375"/>
     <use xlink:href="#DejaVuSans-73" x="877.498047"/>
     <use xlink:href="#DejaVuSans-29" x="929.597656"/>
    </g>
   </g>
  </g>
  <g id="text_28">
   <!-- training -->
   <g transform="translate(333.219687 16.318125) scale(0.12 -0.12)">
    <defs>
     <path id="DejaVuSans-67" d="M 2906 1791 
Q 2906 2416 2648 2759 
Q 2391 3103 1925 3103 
Q 1463 3103 1205 2759 
Q 947 2416 947 1791 
Q 947 1169 1205 825 
Q 1463 481 1925 481 
Q 2391 481 2648 825 
Q 2906 1169 2906 1791 
z
M 3481 434 
Q 3481 -459 3084 -895 
Q 2688 -1331 1869 -1331 
Q 1566 -1331 1297 -1286 
Q 1028 -1241 775 -1147 
L 775 -588 
Q 1028 -725 1275 -790 
Q 1522 -856 1778 -856 
Q 2344 -856 2625 -561 
Q 2906 -266 2906 331 
L 2906 616 
Q 2728 306 2450 153 
Q 2172 0 1784 0 
Q 1141 0 747 490 
Q 353 981 353 1791 
Q 353 2603 747 3093 
Q 1141 3584 1784 3584 
Q 2172 3584 2450 3431 
Q 2728 3278 2906 2969 
L 2906 3500 
L 3481 3500 
L 3481 434 
z
" transform="scale(0.015625)"/>
    </defs>
    <use xlink:href="#DejaVuSans-74"/>
    <use xlink:href="#DejaVuSans-72" x="39.208984"/>
    <use xlink:href="#DejaVuSans-61" x="80.322266"/>
    <use xlink:href="#DejaVuSans-69" x="141.601562"/>
    <use xlink:href="#DejaVuSans-6e" x="169.384766"/>
    <use xlink:href="#DejaVuSans-69" x="232.763672"/>
    <use xlink:href="#DejaVuSans-6e" x="260.546875"/>
    <use xlink:href="#DejaVuSans-67" x="323.925781"/>
   </g>
  </g>
 </g>
 <defs>
  <clipPath id="p1e3a3138b9">
   <rect x="30.103125" y="43.44" width="672.123636" height="298.76"/>
  </clipPath>
  <clipPath id="p6b7730ef6c">
   <rect x="30.103125" y="386.16" width="672.123636" height="298.76"/>
  </clipPath>
 </defs>
</svg>
