<?xml version="1.0" encoding="utf-8" standalone="no"?>
<!DOCTYPE svg PUBLIC "-//W3C//DTD SVG 1.1//EN"
  "http://www.w3.org/Graphics/SVG/1.1/DTD/svg11.dtd">
<svg xmlns:xlink="http://www.w3.org/1999/xlink" width="709.336136pt" height="708.798125pt" viewBox="0 0 709.336136 708.798125" xmlns="http://www.w3.org/2000/svg" version="1.1">
 <metadata>
  <rdf:RDF xmlns:dc="http://purl.org/dc/elements/1.1/" xmlns:cc="http://creativecommons.org/ns#" xmlns:rdf="http://www.w3.org/1999/02/22-rdf-syntax-ns#">
   <cc:Work>
    <dc:type rdf:resource="http://purl.org/dc/dcmitype/StillImage"/>
    <dc:date>2023-06-07T02:12:41.428465</dc:date>
    <dc:format>image/svg+xml</dc:format>
    <dc:creator>
     <cc:Agent>
      <dc:title>Matplotlib v3.7.1, https://matplotlib.org/</dc:title>
     </cc:Agent>
    </dc:creator>
   </cc:Work>
  </rdf:RDF>
 </metadata>
 <defs>
  <style type="text/css">*{stroke-linejoin: round; stroke-linecap: butt}</style>
 </defs>
 <g id="figure_1">
  <g id="patch_1">
   <path d="M 0 708.798125 
L 709.336136 708.798125 
L 709.336136 0 
L 0 0 
z
" style="fill: #ffffff"/>
  </g>
  <g id="axes_1">
   <g id="patch_2">
    <path d="M 20.5625 342.2 
L 702.136136 342.2 
L 702.136136 43.44 
L 20.5625 43.44 
z
" style="fill: #ffffff"/>
   </g>
   <g id="matplotlib.axis_1">
    <g id="xtick_1">
     <g id="line2d_1">
      <defs>
       <path id="m69c1294bd1" d="M 0 0 
L 0 3.5 
" style="stroke: #000000; stroke-width: 0.8"/>
      </defs>
      <g>
       <use xlink:href="#m69c1294bd1" x="51.370957" y="342.2" style="stroke: #000000; stroke-width: 0.8"/>
      </g>
     </g>
     <g id="text_1">
      <!-- 2014-07-01 -->
      <g transform="translate(22.313145 356.798437) scale(0.1 -0.1)">
       <defs>
        <path id="DejaVuSans-32" d="M 1228 531 
L 3431 531 
L 3431 0 
L 469 0 
L 469 531 
Q 828 903 1448 1529 
Q 2069 2156 2228 2338 
Q 2531 2678 2651 2914 
Q 2772 3150 2772 3378 
Q 2772 3750 2511 3984 
Q 2250 4219 1831 4219 
Q 1534 4219 1204 4116 
Q 875 4013 500 3803 
L 500 4441 
Q 881 4594 1212 4672 
Q 1544 4750 1819 4750 
Q 2544 4750 2975 4387 
Q 3406 4025 3406 3419 
Q 3406 3131 3298 2873 
Q 3191 2616 2906 2266 
Q 2828 2175 2409 1742 
Q 1991 1309 1228 531 
z
" transform="scale(0.015625)"/>
        <path id="DejaVuSans-30" d="M 2034 4250 
Q 1547 4250 1301 3770 
Q 1056 3291 1056 2328 
Q 1056 1369 1301 889 
Q 1547 409 2034 409 
Q 2525 409 2770 889 
Q 3016 1369 3016 2328 
Q 3016 3291 2770 3770 
Q 2525 4250 2034 4250 
z
M 2034 4750 
Q 2819 4750 3233 4129 
Q 3647 3509 3647 2328 
Q 3647 1150 3233 529 
Q 2819 -91 2034 -91 
Q 1250 -91 836 529 
Q 422 1150 422 2328 
Q 422 3509 836 4129 
Q 1250 4750 2034 4750 
z
" transform="scale(0.015625)"/>
        <path id="DejaVuSans-31" d="M 794 531 
L 1825 531 
L 1825 4091 
L 703 3866 
L 703 4441 
L 1819 4666 
L 2450 4666 
L 2450 531 
L 3481 531 
L 3481 0 
L 794 0 
L 794 531 
z
" transform="scale(0.015625)"/>
        <path id="DejaVuSans-34" d="M 2419 4116 
L 825 1625 
L 2419 1625 
L 2419 4116 
z
M 2253 4666 
L 3047 4666 
L 3047 1625 
L 3713 1625 
L 3713 1100 
L 3047 1100 
L 3047 0 
L 2419 0 
L 2419 1100 
L 313 1100 
L 313 1709 
L 2253 4666 
z
" transform="scale(0.015625)"/>
        <path id="DejaVuSans-2d" d="M 313 2009 
L 1997 2009 
L 1997 1497 
L 313 1497 
L 313 2009 
z
" transform="scale(0.015625)"/>
        <path id="DejaVuSans-37" d="M 525 4666 
L 3525 4666 
L 3525 4397 
L 1831 0 
L 1172 0 
L 2766 4134 
L 525 4134 
L 525 4666 
z
" transform="scale(0.015625)"/>
       </defs>
       <use xlink:href="#DejaVuSans-32"/>
       <use xlink:href="#DejaVuSans-30" x="63.623047"/>
       <use xlink:href="#DejaVuSans-31" x="127.246094"/>
       <use xlink:href="#DejaVuSans-34" x="190.869141"/>
       <use xlink:href="#DejaVuSans-2d" x="254.492188"/>
       <use xlink:href="#DejaVuSans-30" x="290.576172"/>
       <use xlink:href="#DejaVuSans-37" x="354.199219"/>
       <use xlink:href="#DejaVuSans-2d" x="417.822266"/>
       <use xlink:href="#DejaVuSans-30" x="453.90625"/>
       <use xlink:href="#DejaVuSans-31" x="517.529297"/>
      </g>
     </g>
    </g>
    <g id="xtick_2">
     <g id="line2d_2">
      <g>
       <use xlink:href="#m69c1294bd1" x="175.327869" y="342.2" style="stroke: #000000; stroke-width: 0.8"/>
      </g>
     </g>
     <g id="text_2">
      <!-- 2014-07-02 -->
      <g transform="translate(146.270057 356.798437) scale(0.1 -0.1)">
       <use xlink:href="#DejaVuSans-32"/>
       <use xlink:href="#DejaVuSans-30" x="63.623047"/>
       <use xlink:href="#DejaVuSans-31" x="127.246094"/>
       <use xlink:href="#DejaVuSans-34" x="190.869141"/>
       <use xlink:href="#DejaVuSans-2d" x="254.492188"/>
       <use xlink:href="#DejaVuSans-30" x="290.576172"/>
       <use xlink:href="#DejaVuSans-37" x="354.199219"/>
       <use xlink:href="#DejaVuSans-2d" x="417.822266"/>
       <use xlink:href="#DejaVuSans-30" x="453.90625"/>
       <use xlink:href="#DejaVuSans-32" x="517.529297"/>
      </g>
     </g>
    </g>
    <g id="xtick_3">
     <g id="line2d_3">
      <g>
       <use xlink:href="#m69c1294bd1" x="299.284781" y="342.2" style="stroke: #000000; stroke-width: 0.8"/>
      </g>
     </g>
     <g id="text_3">
      <!-- 2014-07-03 -->
      <g transform="translate(270.226969 356.798437) scale(0.1 -0.1)">
       <defs>
        <path id="DejaVuSans-33" d="M 2597 2516 
Q 3050 2419 3304 2112 
Q 3559 1806 3559 1356 
Q 3559 666 3084 287 
Q 2609 -91 1734 -91 
Q 1441 -91 1130 -33 
Q 819 25 488 141 
L 488 750 
Q 750 597 1062 519 
Q 1375 441 1716 441 
Q 2309 441 2620 675 
Q 2931 909 2931 1356 
Q 2931 1769 2642 2001 
Q 2353 2234 1838 2234 
L 1294 2234 
L 1294 2753 
L 1863 2753 
Q 2328 2753 2575 2939 
Q 2822 3125 2822 3475 
Q 2822 3834 2567 4026 
Q 2313 4219 1838 4219 
Q 1578 4219 1281 4162 
Q 984 4106 628 3988 
L 628 4550 
Q 988 4650 1302 4700 
Q 1616 4750 1894 4750 
Q 2613 4750 3031 4423 
Q 3450 4097 3450 3541 
Q 3450 3153 3228 2886 
Q 3006 2619 2597 2516 
z
" transform="scale(0.015625)"/>
       </defs>
       <use xlink:href="#DejaVuSans-32"/>
       <use xlink:href="#DejaVuSans-30" x="63.623047"/>
       <use xlink:href="#DejaVuSans-31" x="127.246094"/>
       <use xlink:href="#DejaVuSans-34" x="190.869141"/>
       <use xlink:href="#DejaVuSans-2d" x="254.492188"/>
       <use xlink:href="#DejaVuSans-30" x="290.576172"/>
       <use xlink:href="#DejaVuSans-37" x="354.199219"/>
       <use xlink:href="#DejaVuSans-2d" x="417.822266"/>
       <use xlink:href="#DejaVuSans-30" x="453.90625"/>
       <use xlink:href="#DejaVuSans-33" x="517.529297"/>
      </g>
     </g>
    </g>
    <g id="xtick_4">
     <g id="line2d_4">
      <g>
       <use xlink:href="#m69c1294bd1" x="423.241693" y="342.2" style="stroke: #000000; stroke-width: 0.8"/>
      </g>
     </g>
     <g id="text_4">
      <!-- 2014-07-04 -->
      <g transform="translate(394.18388 356.798437) scale(0.1 -0.1)">
       <use xlink:href="#DejaVuSans-32"/>
       <use xlink:href="#DejaVuSans-30" x="63.623047"/>
       <use xlink:href="#DejaVuSans-31" x="127.246094"/>
       <use xlink:href="#DejaVuSans-34" x="190.869141"/>
       <use xlink:href="#DejaVuSans-2d" x="254.492188"/>
       <use xlink:href="#DejaVuSans-30" x="290.576172"/>
       <use xlink:href="#DejaVuSans-37" x="354.199219"/>
       <use xlink:href="#DejaVuSans-2d" x="417.822266"/>
       <use xlink:href="#DejaVuSans-30" x="453.90625"/>
       <use xlink:href="#DejaVuSans-34" x="517.529297"/>
      </g>
     </g>
    </g>
    <g id="xtick_5">
     <g id="line2d_5">
      <g>
       <use xlink:href="#m69c1294bd1" x="547.198605" y="342.2" style="stroke: #000000; stroke-width: 0.8"/>
      </g>
     </g>
     <g id="text_5">
      <!-- 2014-07-05 -->
      <g transform="translate(518.140792 356.798437) scale(0.1 -0.1)">
       <defs>
        <path id="DejaVuSans-35" d="M 691 4666 
L 3169 4666 
L 3169 4134 
L 1269 4134 
L 1269 2991 
Q 1406 3038 1543 3061 
Q 1681 3084 1819 3084 
Q 2600 3084 3056 2656 
Q 3513 2228 3513 1497 
Q 3513 744 3044 326 
Q 2575 -91 1722 -91 
Q 1428 -91 1123 -41 
Q 819 9 494 109 
L 494 744 
Q 775 591 1075 516 
Q 1375 441 1709 441 
Q 2250 441 2565 725 
Q 2881 1009 2881 1497 
Q 2881 1984 2565 2268 
Q 2250 2553 1709 2553 
Q 1456 2553 1204 2497 
Q 953 2441 691 2322 
L 691 4666 
z
" transform="scale(0.015625)"/>
       </defs>
       <use xlink:href="#DejaVuSans-32"/>
       <use xlink:href="#DejaVuSans-30" x="63.623047"/>
       <use xlink:href="#DejaVuSans-31" x="127.246094"/>
       <use xlink:href="#DejaVuSans-34" x="190.869141"/>
       <use xlink:href="#DejaVuSans-2d" x="254.492188"/>
       <use xlink:href="#DejaVuSans-30" x="290.576172"/>
       <use xlink:href="#DejaVuSans-37" x="354.199219"/>
       <use xlink:href="#DejaVuSans-2d" x="417.822266"/>
       <use xlink:href="#DejaVuSans-30" x="453.90625"/>
       <use xlink:href="#DejaVuSans-35" x="517.529297"/>
      </g>
     </g>
    </g>
    <g id="xtick_6">
     <g id="line2d_6">
      <g>
       <use xlink:href="#m69c1294bd1" x="671.155517" y="342.2" style="stroke: #000000; stroke-width: 0.8"/>
      </g>
     </g>
     <g id="text_6">
      <!-- 2014-07-06 -->
      <g transform="translate(642.097704 356.798437) scale(0.1 -0.1)">
       <defs>
        <path id="DejaVuSans-36" d="M 2113 2584 
Q 1688 2584 1439 2293 
Q 1191 2003 1191 1497 
Q 1191 994 1439 701 
Q 1688 409 2113 409 
Q 2538 409 2786 701 
Q 3034 994 3034 1497 
Q 3034 2003 2786 2293 
Q 2538 2584 2113 2584 
z
M 3366 4563 
L 3366 3988 
Q 3128 4100 2886 4159 
Q 2644 4219 2406 4219 
Q 1781 4219 1451 3797 
Q 1122 3375 1075 2522 
Q 1259 2794 1537 2939 
Q 1816 3084 2150 3084 
Q 2853 3084 3261 2657 
Q 3669 2231 3669 1497 
Q 3669 778 3244 343 
Q 2819 -91 2113 -91 
Q 1303 -91 875 529 
Q 447 1150 447 2328 
Q 447 3434 972 4092 
Q 1497 4750 2381 4750 
Q 2619 4750 2861 4703 
Q 3103 4656 3366 4563 
z
" transform="scale(0.015625)"/>
       </defs>
       <use xlink:href="#DejaVuSans-32"/>
       <use xlink:href="#DejaVuSans-30" x="63.623047"/>
       <use xlink:href="#DejaVuSans-31" x="127.246094"/>
       <use xlink:href="#DejaVuSans-34" x="190.869141"/>
       <use xlink:href="#DejaVuSans-2d" x="254.492188"/>
       <use xlink:href="#DejaVuSans-30" x="290.576172"/>
       <use xlink:href="#DejaVuSans-37" x="354.199219"/>
       <use xlink:href="#DejaVuSans-2d" x="417.822266"/>
       <use xlink:href="#DejaVuSans-30" x="453.90625"/>
       <use xlink:href="#DejaVuSans-36" x="517.529297"/>
      </g>
     </g>
    </g>
   </g>
   <g id="matplotlib.axis_2">
    <g id="ytick_1">
     <g id="line2d_7">
      <defs>
       <path id="mcc7f314f3b" d="M 0 0 
L -3.5 0 
" style="stroke: #000000; stroke-width: 0.8"/>
      </defs>
      <g>
       <use xlink:href="#mcc7f314f3b" x="20.5625" y="328.619791" style="stroke: #000000; stroke-width: 0.8"/>
      </g>
     </g>
     <g id="text_7">
      <!-- 0 -->
      <g transform="translate(7.2 332.41901) scale(0.1 -0.1)">
       <use xlink:href="#DejaVuSans-30"/>
      </g>
     </g>
    </g>
    <g id="ytick_2">
     <g id="line2d_8">
      <g>
       <use xlink:href="#mcc7f314f3b" x="20.5625" y="289.826359" style="stroke: #000000; stroke-width: 0.8"/>
      </g>
     </g>
     <g id="text_8">
      <!-- 1 -->
      <g transform="translate(7.2 293.625577) scale(0.1 -0.1)">
       <use xlink:href="#DejaVuSans-31"/>
      </g>
     </g>
    </g>
    <g id="ytick_3">
     <g id="line2d_9">
      <g>
       <use xlink:href="#mcc7f314f3b" x="20.5625" y="251.032926" style="stroke: #000000; stroke-width: 0.8"/>
      </g>
     </g>
     <g id="text_9">
      <!-- 2 -->
      <g transform="translate(7.2 254.832145) scale(0.1 -0.1)">
       <use xlink:href="#DejaVuSans-32"/>
      </g>
     </g>
    </g>
    <g id="ytick_4">
     <g id="line2d_10">
      <g>
       <use xlink:href="#mcc7f314f3b" x="20.5625" y="212.239494" style="stroke: #000000; stroke-width: 0.8"/>
      </g>
     </g>
     <g id="text_10">
      <!-- 3 -->
      <g transform="translate(7.2 216.038713) scale(0.1 -0.1)">
       <use xlink:href="#DejaVuSans-33"/>
      </g>
     </g>
    </g>
    <g id="ytick_5">
     <g id="line2d_11">
      <g>
       <use xlink:href="#mcc7f314f3b" x="20.5625" y="173.446062" style="stroke: #000000; stroke-width: 0.8"/>
      </g>
     </g>
     <g id="text_11">
      <!-- 4 -->
      <g transform="translate(7.2 177.24528) scale(0.1 -0.1)">
       <use xlink:href="#DejaVuSans-34"/>
      </g>
     </g>
    </g>
    <g id="ytick_6">
     <g id="line2d_12">
      <g>
       <use xlink:href="#mcc7f314f3b" x="20.5625" y="134.652629" style="stroke: #000000; stroke-width: 0.8"/>
      </g>
     </g>
     <g id="text_12">
      <!-- 5 -->
      <g transform="translate(7.2 138.451848) scale(0.1 -0.1)">
       <use xlink:href="#DejaVuSans-35"/>
      </g>
     </g>
    </g>
    <g id="ytick_7">
     <g id="line2d_13">
      <g>
       <use xlink:href="#mcc7f314f3b" x="20.5625" y="95.859197" style="stroke: #000000; stroke-width: 0.8"/>
      </g>
     </g>
     <g id="text_13">
      <!-- 6 -->
      <g transform="translate(7.2 99.658416) scale(0.1 -0.1)">
       <use xlink:href="#DejaVuSans-36"/>
      </g>
     </g>
    </g>
    <g id="ytick_8">
     <g id="line2d_14">
      <g>
       <use xlink:href="#mcc7f314f3b" x="20.5625" y="57.065764" style="stroke: #000000; stroke-width: 0.8"/>
      </g>
     </g>
     <g id="text_14">
      <!-- 7 -->
      <g transform="translate(7.2 60.864983) scale(0.1 -0.1)">
       <use xlink:href="#DejaVuSans-37"/>
      </g>
     </g>
    </g>
   </g>
   <g id="line2d_15">
    <path d="M 51.54312 328.619681 
L 60.409482 328.403403 
L 63.680567 327.943306 
L 67.812465 327.187917 
L 68.93152 326.772623 
L 69.534088 326.311176 
L 70.050575 325.580993 
L 70.567063 324.365265 
L 71.08355 322.517297 
L 71.600037 319.973367 
L 72.460849 314.354922 
L 73.493823 305.413926 
L 75.731934 282.795526 
L 77.453558 269.242972 
L 77.711801 268.660613 
L 77.970045 267.139834 
L 78.142207 267.162661 
L 78.486532 265.989934 
L 78.572613 266.036341 
L 78.744775 265.567727 
L 78.916938 265.279924 
L 79.0891 265.345357 
L 79.347344 264.82147 
L 79.605587 265.063246 
L 79.863831 264.797233 
L 80.035993 265.020039 
L 80.294237 264.865972 
L 80.55248 265.066247 
L 80.896805 264.627157 
L 81.24113 262.866276 
L 81.585455 261.802975 
L 81.671536 261.869485 
L 81.843698 262.041235 
L 82.015861 262.070819 
L 82.618429 263.576591 
L 82.790591 263.791789 
L 83.220997 263.444954 
L 83.565322 262.773882 
L 83.909647 262.676647 
L 84.340053 263.586502 
L 84.512215 263.903551 
L 84.684378 262.459876 
L 84.85654 261.09808 
L 85.028702 260.093579 
L 85.889514 247.627491 
L 86.406001 237.548099 
L 86.922488 209.287624 
L 87.352894 191.453909 
L 88.041544 169.713727 
L 88.47195 163.907046 
L 88.644112 163.512296 
L 88.816275 163.632441 
L 88.902356 163.571176 
L 89.074518 163.9463 
L 89.160599 164.153553 
L 89.93533 170.062972 
L 90.62398 175.805778 
L 90.710061 175.670039 
L 90.796142 174.663721 
L 90.968304 168.175384 
L 91.312629 140.834248 
L 91.829116 103.827182 
L 92.345603 80.948652 
L 92.776009 71.992939 
L 93.292496 63.655342 
L 93.808984 58.324083 
L 94.153308 57.094437 
L 94.325471 57.038295 
L 94.497633 57.342774 
L 94.755877 58.51256 
L 95.272364 62.656442 
L 95.961013 70.160975 
L 97.424393 84.961585 
L 97.510475 84.989425 
L 97.596556 84.881266 
L 97.854799 85.288836 
L 98.026962 85.234285 
L 98.199124 85.348252 
L 98.457368 84.937427 
L 98.801692 83.605689 
L 100.351154 77.330858 
L 102.072778 73.034829 
L 102.24494 73.092266 
L 102.503184 73.707977 
L 102.847508 75.731101 
L 103.277914 80.036545 
L 103.794401 87.245052 
L 104.655213 103.152351 
L 105.429944 120.95967 
L 106.118594 135.25406 
L 106.979405 145.249868 
L 107.581974 149.275417 
L 108.098461 151.639684 
L 108.78711 153.977018 
L 111.713871 162.107528 
L 112.316439 164.565507 
L 113.177251 168.672521 
L 114.124144 173.025025 
L 115.157118 177.155098 
L 116.104011 180.282525 
L 116.878742 182.241127 
L 117.653473 183.534268 
L 117.739554 183.523326 
L 118.16996 184.117635 
L 118.686447 185.331761 
L 118.858609 185.231575 
L 119.030772 186.169505 
L 119.116853 186.52331 
L 119.289015 185.453312 
L 119.375097 185.707042 
L 119.547259 187.941943 
L 119.719421 185.698404 
L 119.805503 186.181918 
L 119.977665 188.532727 
L 120.149827 186.277821 
L 120.235908 186.490014 
L 120.408071 188.866869 
L 120.580233 186.511286 
L 120.838477 189.43454 
L 121.010639 186.972492 
L 121.182802 189.66917 
L 121.268883 189.561548 
L 121.441045 187.754501 
L 121.613207 190.420325 
L 121.78537 188.045079 
L 121.871451 188.501724 
L 122.043613 191.029977 
L 122.215776 188.744457 
L 122.301857 189.012634 
L 122.474019 191.507073 
L 122.646182 189.275807 
L 122.732263 189.616793 
L 122.904425 191.905606 
L 122.990507 191.442653 
L 123.162669 190.050343 
L 123.420912 192.226234 
L 123.679156 190.862504 
L 123.9374 192.568496 
L 124.023481 192.507388 
L 124.195643 191.260094 
L 124.453887 193.070462 
L 124.539968 192.849557 
L 124.71213 191.620152 
L 124.970374 193.27138 
L 125.056455 193.19821 
L 125.228617 191.922735 
L 125.486861 193.496715 
L 125.572942 193.488419 
L 125.745105 192.156802 
L 126.089429 193.775094 
L 126.261592 192.436179 
L 126.347673 192.74618 
L 126.519835 193.863894 
L 126.605916 194.01778 
L 126.778079 192.703755 
L 126.86416 192.813532 
L 127.036322 193.968677 
L 127.122404 194.140913 
L 127.380647 192.867926 
L 127.55281 194.00472 
L 127.638891 194.194206 
L 127.897134 192.854487 
L 128.069297 194.018807 
L 128.155378 194.221722 
L 128.413621 192.817352 
L 128.585784 193.992234 
L 128.671865 194.203909 
L 128.930109 192.664326 
L 129.102271 193.973866 
L 129.188352 194.228456 
L 129.446596 192.664955 
L 129.618758 193.936666 
L 129.704839 194.20783 
L 129.963083 192.590065 
L 130.221326 194.118632 
L 130.47957 192.497362 
L 130.651732 193.739318 
L 130.737813 193.975253 
L 130.996057 192.411697 
L 131.168219 193.712468 
L 131.254301 193.937498 
L 131.512544 192.464574 
L 131.684707 193.841262 
L 131.770788 194.021304 
L 131.94295 192.621003 
L 132.029031 192.699769 
L 132.201194 194.041624 
L 132.287275 194.24798 
L 132.459437 192.891224 
L 132.545518 193.030932 
L 132.717681 194.333858 
L 132.803762 194.515575 
L 132.975924 193.274599 
L 133.062006 193.337594 
L 133.234168 194.664355 
L 133.320249 194.837674 
L 133.492412 193.692768 
L 133.578493 193.752313 
L 133.750655 195.044095 
L 133.836736 195.236929 
L 134.008899 194.202604 
L 134.09498 194.241506 
L 134.267142 195.533065 
L 134.353223 195.735185 
L 134.611467 194.926687 
L 134.783629 196.15514 
L 134.869711 196.353061 
L 135.127954 195.682752 
L 135.386198 197.004066 
L 135.55836 196.725919 
L 135.644441 196.726779 
L 135.902685 197.637369 
L 135.988766 197.59954 
L 136.074847 197.69031 
L 136.505253 198.680378 
L 138.054715 201.92401 
L 139.690257 205.119019 
L 140.551069 206.30956 
L 143.047423 208.675317 
L 144.166479 209.51036 
L 146.146346 210.528628 
L 148.900944 211.52454 
L 150.622568 212.923102 
L 151.569461 213.708339 
L 152.085948 213.982695 
L 155.615277 215.781649 
L 155.873521 215.777607 
L 156.476089 215.357163 
L 157.853388 214.006705 
L 158.197713 214.002886 
L 158.628119 214.245683 
L 159.230687 214.924473 
L 159.919336 215.784128 
L 160.86623 216.901074 
L 162.071366 217.99105 
L 163.965152 219.961491 
L 164.653802 220.232619 
L 165.342451 220.507852 
L 166.031101 221.051754 
L 167.838806 222.64092 
L 168.613537 223.233194 
L 170.162998 224.525919 
L 171.109891 225.369065 
L 172.831515 226.920634 
L 173.692327 227.541182 
L 174.467057 227.840954 
L 175.758275 228.285196 
L 176.705168 228.874917 
L 177.307737 229.163313 
L 177.738143 229.256053 
L 179.02936 229.292846 
L 179.890172 229.012026 
L 180.320578 228.698167 
L 180.923147 228.061859 
L 181.525715 227.570381 
L 182.042202 227.500468 
L 182.64477 227.678105 
L 183.419501 228.113589 
L 184.710719 229.161528 
L 185.48545 229.933298 
L 186.94883 231.528135 
L 187.551398 231.989497 
L 188.498291 233.080388 
L 189.789509 234.581402 
L 190.219915 234.836344 
L 191.941539 235.66631 
L 194.610056 237.765877 
L 195.470867 238.491236 
L 196.417761 239.593707 
L 197.967222 241.864623 
L 201.066145 246.742428 
L 201.238307 246.3899 
L 201.754794 244.750381 
L 202.271281 241.908529 
L 203.992905 229.523943 
L 204.33723 224.708227 
L 205.111961 215.415867 
L 206.058854 209.329328 
L 207.177909 198.179605 
L 207.436153 194.490297 
L 207.522234 194.207543 
L 207.780477 189.30102 
L 207.866559 189.571213 
L 207.95264 189.996606 
L 208.210883 185.599494 
L 208.296965 185.734595 
L 208.383046 186.440022 
L 208.469127 185.868744 
L 208.641289 184.168357 
L 208.727371 184.124313 
L 208.985614 183.464697 
L 209.071695 183.542962 
L 209.157776 184.644823 
L 209.329939 183.158117 
L 209.41602 183.538587 
L 209.674264 184.640374 
L 209.846426 184.360451 
L 209.932507 185.608521 
L 210.018588 185.341315 
L 210.10467 185.059339 
L 210.276832 186.404136 
L 210.362913 186.623977 
L 210.448994 187.374123 
L 210.535075 186.664951 
L 210.621157 186.791728 
L 210.793319 188.820281 
L 210.965481 188.994478 
L 211.051563 188.630832 
L 211.309806 191.029127 
L 211.395887 190.784822 
L 211.56805 190.606675 
L 211.740212 193.396289 
L 211.826293 192.990643 
L 211.998456 191.99251 
L 212.170618 194.702896 
L 212.256699 194.105434 
L 212.34278 192.639853 
L 212.428862 192.979997 
L 212.601024 195.858938 
L 212.859268 194.161483 
L 213.03143 195.942531 
L 213.203592 193.867233 
L 213.289674 194.235836 
L 213.461836 195.965645 
L 213.720079 192.131783 
L 213.806161 192.289711 
L 213.978323 193.047515 
L 214.150485 189.639953 
L 214.408729 184.749578 
L 214.925216 178.727061 
L 216.130353 163.592707 
L 216.732921 160.355883 
L 217.249408 154.951204 
L 218.540626 140.044618 
L 218.79887 139.484938 
L 218.971032 139.772344 
L 219.229276 141.315977 
L 219.659681 146.01854 
L 220.520493 159.793391 
L 221.639549 178.533127 
L 222.41428 188.150666 
L 223.016848 195.103918 
L 223.102929 194.967318 
L 223.18901 194.512245 
L 223.447254 197.437727 
L 223.619416 197.374972 
L 223.791579 198.614376 
L 223.963741 199.367491 
L 224.135903 199.693642 
L 224.480228 200.794883 
L 225.254959 201.980105 
L 227.406988 204.517654 
L 228.95645 207.287567 
L 230.41983 210.392731 
L 232.227535 214.335566 
L 234.379565 217.682343 
L 234.809971 218.084493 
L 235.584701 218.608435 
L 236.617676 219.530854 
L 237.736731 220.647245 
L 238.597543 221.11425 
L 239.544436 221.43128 
L 240.147004 221.689061 
L 241.954709 222.870769 
L 244.19282 224.373929 
L 244.967551 225.153931 
L 245.484038 225.418519 
L 247.0335 226.413951 
L 248.410799 227.355673 
L 251.681884 229.624407 
L 253.403507 231.140561 
L 254.006076 231.38667 
L 255.297294 231.621273 
L 255.813781 231.50898 
L 256.674593 231.018936 
L 257.96581 230.217707 
L 258.482298 230.371149 
L 259.170947 230.937396 
L 259.859597 231.460061 
L 262.355951 233.339492 
L 263.216763 234.02446 
L 263.905413 234.283823 
L 264.507981 234.262383 
L 265.024468 234.266379 
L 265.713117 234.548503 
L 267.176498 235.135801 
L 267.865147 235.116692 
L 269.328527 235.052365 
L 269.931096 234.952706 
L 270.361502 234.97052 
L 270.96407 235.244098 
L 272.083125 235.895178 
L 273.202181 236.180891 
L 274.321236 236.366575 
L 275.784617 236.940064 
L 276.73151 236.928633 
L 277.764484 236.522043 
L 278.280971 236.616273 
L 278.969621 237.017609 
L 281.8103 239.219841 
L 283.101518 240.193621 
L 284.478817 241.041132 
L 285.081385 241.799066 
L 285.856116 243.190895 
L 288.35247 248.025053 
L 289.557607 249.922991 
L 290.848825 251.471471 
L 292.053961 252.516358 
L 292.914773 252.954079 
L 296.013696 254.001139 
L 299.026538 254.596169 
L 300.748161 254.425464 
L 301.953298 253.684169 
L 303.158435 251.711068 
L 303.588841 250.176813 
L 304.105328 247.878538 
L 304.707896 245.170132 
L 305.913033 239.21099 
L 307.548575 229.664668 
L 309.35628 218.161741 
L 309.786686 215.62669 
L 310.561417 213.511538 
L 311.077904 212.675653 
L 311.163985 212.739749 
L 311.250066 212.790341 
L 311.422229 211.739156 
L 311.680472 210.418776 
L 312.369122 209.409776 
L 313.402096 209.215574 
L 313.746421 208.970908 
L 314.004664 209.108423 
L 314.262908 209.578221 
L 315.295882 211.820881 
L 316.070613 213.301047 
L 317.017506 215.573859 
L 317.706155 217.636015 
L 318.911292 221.969373 
L 319.772104 224.995513 
L 320.546835 226.918914 
L 321.407647 228.438056 
L 322.526702 229.994083 
L 324.248326 231.981931 
L 326.486437 234.58746 
L 327.863736 236.534289 
L 329.58536 239.534615 
L 333.372932 246.814368 
L 334.491987 248.320413 
L 335.869286 249.843449 
L 337.504829 251.3485 
L 338.882128 252.364858 
L 341.120239 253.644685 
L 342.153213 254.337681 
L 343.960918 256.021151 
L 347.232003 259.62029 
L 347.318084 259.577194 
L 347.576328 260.222386 
L 347.662409 260.121978 
L 347.74849 259.976708 
L 347.834572 260.126779 
L 348.006734 260.795898 
L 348.264977 260.364323 
L 348.43714 261.422986 
L 348.523221 261.317195 
L 348.695383 260.833329 
L 348.867546 261.997076 
L 348.953627 261.872694 
L 349.125789 261.378165 
L 349.297952 262.418575 
L 349.470114 261.749825 
L 349.556195 261.797495 
L 349.728358 262.807216 
L 349.90052 262.13738 
L 349.986601 262.232053 
L 350.158764 263.193966 
L 350.330926 262.530327 
L 350.417007 262.687464 
L 350.58917 263.587963 
L 350.761332 262.938983 
L 350.847413 263.137195 
L 351.019576 263.974986 
L 351.191738 263.350234 
L 351.449981 264.356307 
L 351.536063 264.010659 
L 351.622144 263.757619 
L 351.880387 264.746604 
L 352.05255 264.177952 
L 352.310793 265.123841 
L 352.482956 264.588241 
L 352.741199 265.489457 
L 352.913362 264.985706 
L 353.171605 265.860063 
L 353.343768 265.391491 
L 353.602011 266.235048 
L 353.774174 265.785765 
L 354.032417 266.580446 
L 354.20458 266.161735 
L 354.462823 266.951782 
L 354.634985 266.55299 
L 354.893229 267.316589 
L 355.065391 266.952221 
L 355.323635 267.679379 
L 355.495797 267.324247 
L 355.754041 268.027514 
L 355.926203 267.695269 
L 356.184447 268.385703 
L 356.356609 268.071327 
L 356.614853 268.725958 
L 356.787015 268.422737 
L 357.045259 269.068923 
L 357.217421 268.782405 
L 357.475665 269.422404 
L 357.647827 269.145538 
L 357.906071 269.770618 
L 358.078233 269.498492 
L 358.336477 270.106591 
L 358.508639 269.838973 
L 358.766883 270.438979 
L 358.939045 270.175843 
L 359.197288 270.759834 
L 359.369451 270.494728 
L 359.627694 271.073128 
L 359.799857 270.816258 
L 360.0581 271.383967 
L 360.230263 271.127957 
L 360.488506 271.687253 
L 360.574587 271.529061 
L 360.660669 271.438721 
L 360.918912 271.982174 
L 361.004993 271.845398 
L 361.091075 271.743423 
L 361.263237 272.11654 
L 361.349318 272.27555 
L 361.521481 272.050196 
L 361.607562 272.134788 
L 361.779724 272.561346 
L 362.037968 272.413981 
L 362.21013 272.835512 
L 362.296211 272.786862 
L 362.468374 272.689219 
L 362.726617 273.094079 
L 362.89878 272.957637 
L 363.157023 273.380819 
L 363.329186 273.226956 
L 363.587429 273.658707 
L 363.67351 273.563414 
L 363.759591 273.503628 
L 363.931754 273.774686 
L 364.017835 273.91825 
L 364.103916 273.866044 
L 364.276079 273.821514 
L 364.534322 274.160086 
L 364.706485 274.069352 
L 365.050809 274.372565 
L 365.222972 274.383964 
L 365.481215 274.663961 
L 365.653378 274.612033 
L 365.997702 274.889972 
L 366.169865 274.908928 
L 366.428108 275.155753 
L 366.600271 275.125985 
L 367.030677 275.370998 
L 367.202839 275.468543 
L 367.461083 275.616066 
L 367.719326 275.719637 
L 368.063651 275.865472 
L 369.010544 276.331029 
L 370.301762 276.828375 
L 371.679061 277.114684 
L 373.658928 277.27055 
L 380.373261 277.435303 
L 402.323964 278.076898 
L 428.406564 279.082767 
L 464.560664 280.840304 
L 497.443678 282.760431 
L 535.405482 285.365604 
L 546.596036 286.323854 
L 565.447817 288.085114 
L 582.147567 289.891611 
L 588.173251 290.927498 
L 614.255851 295.947209 
L 640.25237 301.642359 
L 647.397108 302.918727 
L 655.746984 304.213734 
L 663.752534 305.261474 
L 671.155517 306.059695 
L 671.155517 306.059695 
" clip-path="url(#p42d842427b)" style="fill: none; stroke: #1f77b4; stroke-width: 1.5; stroke-linecap: square"/>
   </g>
   <g id="line2d_16">
    <path d="M 51.54312 328.619791 
L 53.522987 328.510501 
L 54.900286 328.187924 
L 56.535829 327.568932 
L 58.08529 326.786529 
L 61.442457 325.023879 
L 62.991918 324.593379 
L 66.263003 323.830956 
L 67.382059 323.115276 
L 68.24287 322.25062 
L 68.93152 321.341429 
L 69.620169 320.20286 
L 70.480981 318.443944 
L 71.513956 315.833556 
L 72.374768 313.117202 
L 73.493823 308.434997 
L 74.785041 301.57354 
L 76.420583 291.18936 
L 77.970045 280.661603 
L 80.122075 265.917307 
L 81.327211 258.028881 
L 82.446267 249.942925 
L 83.220997 245.966773 
L 83.909647 243.56007 
L 84.253972 242.834773 
L 84.426134 242.617297 
L 84.598296 242.150051 
L 85.114783 239.096677 
L 85.459108 235.335827 
L 86.061677 226.812485 
L 86.836407 211.36408 
L 87.7833 188.037473 
L 89.504924 144.577665 
L 90.710061 120.001473 
L 91.656954 105.291292 
L 92.345603 97.490148 
L 93.034253 91.809995 
L 93.722902 87.996464 
L 94.411552 85.79001 
L 94.928039 84.99945 
L 95.616688 84.896341 
L 95.874932 84.951695 
L 96.649663 84.806383 
L 96.993987 84.53085 
L 97.596556 82.703951 
L 99.146017 71.787993 
L 99.490342 70.812345 
L 99.834667 70.388132 
L 100.09291 70.473602 
L 100.351154 70.799369 
L 100.695479 71.661489 
L 101.211966 73.637105 
L 101.986696 77.892013 
L 102.93359 84.642125 
L 104.569132 98.33853 
L 107.668055 124.322059 
L 109.561841 138.266582 
L 111.455627 150.46792 
L 113.263332 160.590777 
L 114.210225 165.004713 
L 115.759687 170.733056 
L 119.116853 182.128027 
L 120.924558 187.542566 
L 122.474019 191.640154 
L 124.281724 195.749213 
L 125.831186 198.63405 
L 127.466728 201.120712 
L 128.671865 202.512105 
L 130.049164 203.699065 
L 132.201194 205.04327 
L 133.062006 206.010964 
L 134.008899 207.464679 
L 135.214035 209.767498 
L 137.107821 213.945241 
L 140.464988 221.423254 
L 141.411881 222.838876 
L 142.875261 224.625744 
L 144.855128 226.827334 
L 147.093239 228.888362 
L 148.470538 229.704785 
L 150.966893 231.180284 
L 152.085948 231.760666 
L 153.63541 232.233507 
L 154.582303 232.572328 
L 155.701358 233.2399 
L 156.56217 233.753644 
L 157.939469 234.378626 
L 158.972443 234.8936 
L 160.17758 235.478644 
L 161.038392 235.669951 
L 163.448665 235.760412 
L 166.203263 236.643414 
L 167.838806 237.425834 
L 170.162998 238.04616 
L 171.626378 238.189834 
L 172.573271 238.471086 
L 175.241788 239.535599 
L 177.738143 239.62392 
L 180.492741 238.915082 
L 181.18139 238.732444 
L 182.214364 238.577347 
L 183.33342 238.578574 
L 184.194232 238.713007 
L 187.465317 239.67244 
L 188.670454 239.844319 
L 190.392077 240.134027 
L 192.02762 240.268637 
L 192.888432 240.689881 
L 193.921406 241.479902 
L 195.298705 242.859522 
L 197.450735 245.381679 
L 201.152226 249.840756 
L 201.410469 249.725979 
L 201.754794 249.313908 
L 202.271281 247.626893 
L 202.701687 245.330423 
L 203.218174 241.830013 
L 204.423311 231.598175 
L 206.661422 211.122824 
L 207.866559 202.333004 
L 208.899533 196.449697 
L 209.846426 192.510161 
L 210.621157 190.199256 
L 211.223725 188.908521 
L 212.945349 185.397736 
L 213.633998 182.395327 
L 214.236567 177.530979 
L 216.044272 153.65929 
L 216.64684 149.302284 
L 217.163327 146.993409 
L 217.593733 145.905575 
L 217.938058 145.510435 
L 218.196301 145.439315 
L 218.454545 145.554419 
L 218.79887 145.968274 
L 219.229276 146.843923 
L 219.831844 148.600614 
L 220.692656 151.866863 
L 222.069955 158.11348 
L 227.234826 182.360937 
L 228.698206 188.048005 
L 230.41983 193.651494 
L 232.141454 198.445539 
L 233.518753 201.471958 
L 234.809971 203.714497 
L 236.101189 205.24032 
L 237.392406 206.676996 
L 240.147004 209.898635 
L 244.106739 213.992533 
L 245.914444 215.351687 
L 246.775256 216.030967 
L 248.410799 217.770302 
L 251.165397 220.660437 
L 253.231345 222.298675 
L 254.350401 222.907507 
L 257.879729 224.685007 
L 259.257028 225.724099 
L 259.945678 226.214684 
L 261.409058 227.007024 
L 264.335818 227.992094 
L 265.713117 227.936634 
L 266.487848 228.172889 
L 267.434741 228.719806 
L 268.984203 229.459536 
L 270.017177 229.577429 
L 270.96407 229.609636 
L 272.255288 230.018262 
L 274.062993 230.603762 
L 275.354211 230.85634 
L 275.956779 230.93098 
L 277.334078 230.976104 
L 278.19489 231.002172 
L 278.883539 231.250923 
L 279.65827 231.776165 
L 280.605163 232.699861 
L 281.896381 234.295173 
L 284.048411 237.368195 
L 287.061252 241.633213 
L 290.934906 245.746528 
L 293.173017 248.186614 
L 297.993563 252.693673 
L 299.026538 253.144137 
L 299.887349 253.22054 
L 300.834242 252.952832 
L 301.436811 252.557208 
L 302.12546 251.880187 
L 302.986272 250.644817 
L 303.847084 248.610019 
L 304.363571 246.965036 
L 305.138302 244.058053 
L 306.343439 238.669251 
L 307.376413 233.566726 
L 310.733579 216.509373 
L 311.766553 211.651035 
L 312.799528 205.886182 
L 313.488177 203.283746 
L 314.004664 202.061717 
L 314.521151 201.364601 
L 314.951557 201.107621 
L 315.381963 201.105012 
L 315.812369 201.300531 
L 316.414938 201.838179 
L 317.189668 202.861812 
L 318.222643 204.601822 
L 320.460754 208.974248 
L 324.334407 217.023075 
L 328.638466 226.190036 
L 331.565227 231.855719 
L 334.319825 236.703445 
L 337.074423 241.092833 
L 339.829021 245.069944 
L 342.755781 248.900179 
L 345.768623 252.473699 
L 348.867546 255.810915 
L 352.138631 259.011168 
L 355.581879 262.070123 
L 359.197288 264.986135 
L 363.070942 267.819685 
L 367.116758 270.501797 
L 371.420817 273.086736 
L 375.98312 275.566405 
L 380.889748 277.976012 
L 386.140701 280.301358 
L 391.735978 282.532466 
L 397.761661 284.692176 
L 404.21775 286.768001 
L 411.190326 288.774996 
L 418.765471 290.721572 
L 427.029265 292.611168 
L 435.981709 294.427242 
L 445.794964 296.187622 
L 456.555113 297.887951 
L 468.348236 299.523378 
L 481.346495 301.098936 
L 495.808135 302.623615 
L 511.819236 304.084365 
L 529.724123 305.490358 
L 549.78104 306.837665 
L 572.334312 308.12531 
L 597.814344 309.353049 
L 626.823704 310.523289 
L 659.964962 311.632576 
L 671.155517 311.96267 
L 671.155517 311.96267 
" clip-path="url(#p42d842427b)" style="fill: none; stroke: #ff7f0e; stroke-width: 1.5; stroke-linecap: square"/>
   </g>
   <g id="patch_3">
    <path d="M 20.5625 342.2 
L 20.5625 43.44 
" style="fill: none; stroke: #000000; stroke-width: 0.8; stroke-linejoin: miter; stroke-linecap: square"/>
   </g>
   <g id="patch_4">
    <path d="M 702.136136 342.2 
L 702.136136 43.44 
" style="fill: none; stroke: #000000; stroke-width: 0.8; stroke-linejoin: miter; stroke-linecap: square"/>
   </g>
   <g id="patch_5">
    <path d="M 20.5625 342.2 
L 702.136136 342.2 
" style="fill: none; stroke: #000000; stroke-width: 0.8; stroke-linejoin: miter; stroke-linecap: square"/>
   </g>
   <g id="patch_6">
    <path d="M 20.5625 43.44 
L 702.136136 43.44 
" style="fill: none; stroke: #000000; stroke-width: 0.8; stroke-linejoin: miter; stroke-linecap: square"/>
   </g>
   <g id="text_15">
    <!-- 1 transformation(s) -->
    <g transform="translate(303.234631 37.44) scale(0.12 -0.12)">
     <defs>
      <path id="DejaVuSans-20" transform="scale(0.015625)"/>
      <path id="DejaVuSans-74" d="M 1172 4494 
L 1172 3500 
L 2356 3500 
L 2356 3053 
L 1172 3053 
L 1172 1153 
Q 1172 725 1289 603 
Q 1406 481 1766 481 
L 2356 481 
L 2356 0 
L 1766 0 
Q 1100 0 847 248 
Q 594 497 594 1153 
L 594 3053 
L 172 3053 
L 172 3500 
L 594 3500 
L 594 4494 
L 1172 4494 
z
" transform="scale(0.015625)"/>
      <path id="DejaVuSans-72" d="M 2631 2963 
Q 2534 3019 2420 3045 
Q 2306 3072 2169 3072 
Q 1681 3072 1420 2755 
Q 1159 2438 1159 1844 
L 1159 0 
L 581 0 
L 581 3500 
L 1159 3500 
L 1159 2956 
Q 1341 3275 1631 3429 
Q 1922 3584 2338 3584 
Q 2397 3584 2469 3576 
Q 2541 3569 2628 3553 
L 2631 2963 
z
" transform="scale(0.015625)"/>
      <path id="DejaVuSans-61" d="M 2194 1759 
Q 1497 1759 1228 1600 
Q 959 1441 959 1056 
Q 959 750 1161 570 
Q 1363 391 1709 391 
Q 2188 391 2477 730 
Q 2766 1069 2766 1631 
L 2766 1759 
L 2194 1759 
z
M 3341 1997 
L 3341 0 
L 2766 0 
L 2766 531 
Q 2569 213 2275 61 
Q 1981 -91 1556 -91 
Q 1019 -91 701 211 
Q 384 513 384 1019 
Q 384 1609 779 1909 
Q 1175 2209 1959 2209 
L 2766 2209 
L 2766 2266 
Q 2766 2663 2505 2880 
Q 2244 3097 1772 3097 
Q 1472 3097 1187 3025 
Q 903 2953 641 2809 
L 641 3341 
Q 956 3463 1253 3523 
Q 1550 3584 1831 3584 
Q 2591 3584 2966 3190 
Q 3341 2797 3341 1997 
z
" transform="scale(0.015625)"/>
      <path id="DejaVuSans-6e" d="M 3513 2113 
L 3513 0 
L 2938 0 
L 2938 2094 
Q 2938 2591 2744 2837 
Q 2550 3084 2163 3084 
Q 1697 3084 1428 2787 
Q 1159 2491 1159 1978 
L 1159 0 
L 581 0 
L 581 3500 
L 1159 3500 
L 1159 2956 
Q 1366 3272 1645 3428 
Q 1925 3584 2291 3584 
Q 2894 3584 3203 3211 
Q 3513 2838 3513 2113 
z
" transform="scale(0.015625)"/>
      <path id="DejaVuSans-73" d="M 2834 3397 
L 2834 2853 
Q 2591 2978 2328 3040 
Q 2066 3103 1784 3103 
Q 1356 3103 1142 2972 
Q 928 2841 928 2578 
Q 928 2378 1081 2264 
Q 1234 2150 1697 2047 
L 1894 2003 
Q 2506 1872 2764 1633 
Q 3022 1394 3022 966 
Q 3022 478 2636 193 
Q 2250 -91 1575 -91 
Q 1294 -91 989 -36 
Q 684 19 347 128 
L 347 722 
Q 666 556 975 473 
Q 1284 391 1588 391 
Q 1994 391 2212 530 
Q 2431 669 2431 922 
Q 2431 1156 2273 1281 
Q 2116 1406 1581 1522 
L 1381 1569 
Q 847 1681 609 1914 
Q 372 2147 372 2553 
Q 372 3047 722 3315 
Q 1072 3584 1716 3584 
Q 2034 3584 2315 3537 
Q 2597 3491 2834 3397 
z
" transform="scale(0.015625)"/>
      <path id="DejaVuSans-66" d="M 2375 4863 
L 2375 4384 
L 1825 4384 
Q 1516 4384 1395 4259 
Q 1275 4134 1275 3809 
L 1275 3500 
L 2222 3500 
L 2222 3053 
L 1275 3053 
L 1275 0 
L 697 0 
L 697 3053 
L 147 3053 
L 147 3500 
L 697 3500 
L 697 3744 
Q 697 4328 969 4595 
Q 1241 4863 1831 4863 
L 2375 4863 
z
" transform="scale(0.015625)"/>
      <path id="DejaVuSans-6f" d="M 1959 3097 
Q 1497 3097 1228 2736 
Q 959 2375 959 1747 
Q 959 1119 1226 758 
Q 1494 397 1959 397 
Q 2419 397 2687 759 
Q 2956 1122 2956 1747 
Q 2956 2369 2687 2733 
Q 2419 3097 1959 3097 
z
M 1959 3584 
Q 2709 3584 3137 3096 
Q 3566 2609 3566 1747 
Q 3566 888 3137 398 
Q 2709 -91 1959 -91 
Q 1206 -91 779 398 
Q 353 888 353 1747 
Q 353 2609 779 3096 
Q 1206 3584 1959 3584 
z
" transform="scale(0.015625)"/>
      <path id="DejaVuSans-6d" d="M 3328 2828 
Q 3544 3216 3844 3400 
Q 4144 3584 4550 3584 
Q 5097 3584 5394 3201 
Q 5691 2819 5691 2113 
L 5691 0 
L 5113 0 
L 5113 2094 
Q 5113 2597 4934 2840 
Q 4756 3084 4391 3084 
Q 3944 3084 3684 2787 
Q 3425 2491 3425 1978 
L 3425 0 
L 2847 0 
L 2847 2094 
Q 2847 2600 2669 2842 
Q 2491 3084 2119 3084 
Q 1678 3084 1418 2786 
Q 1159 2488 1159 1978 
L 1159 0 
L 581 0 
L 581 3500 
L 1159 3500 
L 1159 2956 
Q 1356 3278 1631 3431 
Q 1906 3584 2284 3584 
Q 2666 3584 2933 3390 
Q 3200 3197 3328 2828 
z
" transform="scale(0.015625)"/>
      <path id="DejaVuSans-69" d="M 603 3500 
L 1178 3500 
L 1178 0 
L 603 0 
L 603 3500 
z
M 603 4863 
L 1178 4863 
L 1178 4134 
L 603 4134 
L 603 4863 
z
" transform="scale(0.015625)"/>
      <path id="DejaVuSans-28" d="M 1984 4856 
Q 1566 4138 1362 3434 
Q 1159 2731 1159 2009 
Q 1159 1288 1364 580 
Q 1569 -128 1984 -844 
L 1484 -844 
Q 1016 -109 783 600 
Q 550 1309 550 2009 
Q 550 2706 781 3412 
Q 1013 4119 1484 4856 
L 1984 4856 
z
" transform="scale(0.015625)"/>
      <path id="DejaVuSans-29" d="M 513 4856 
L 1013 4856 
Q 1481 4119 1714 3412 
Q 1947 2706 1947 2009 
Q 1947 1309 1714 600 
Q 1481 -109 1013 -844 
L 513 -844 
Q 928 -128 1133 580 
Q 1338 1288 1338 2009 
Q 1338 2731 1133 3434 
Q 928 4138 513 4856 
z
" transform="scale(0.015625)"/>
     </defs>
     <use xlink:href="#DejaVuSans-31"/>
     <use xlink:href="#DejaVuSans-20" x="63.623047"/>
     <use xlink:href="#DejaVuSans-74" x="95.410156"/>
     <use xlink:href="#DejaVuSans-72" x="134.619141"/>
     <use xlink:href="#DejaVuSans-61" x="175.732422"/>
     <use xlink:href="#DejaVuSans-6e" x="237.011719"/>
     <use xlink:href="#DejaVuSans-73" x="300.390625"/>
     <use xlink:href="#DejaVuSans-66" x="352.490234"/>
     <use xlink:href="#DejaVuSans-6f" x="387.695312"/>
     <use xlink:href="#DejaVuSans-72" x="448.876953"/>
     <use xlink:href="#DejaVuSans-6d" x="488.240234"/>
     <use xlink:href="#DejaVuSans-61" x="585.652344"/>
     <use xlink:href="#DejaVuSans-74" x="646.931641"/>
     <use xlink:href="#DejaVuSans-69" x="686.140625"/>
     <use xlink:href="#DejaVuSans-6f" x="713.923828"/>
     <use xlink:href="#DejaVuSans-6e" x="775.105469"/>
     <use xlink:href="#DejaVuSans-28" x="838.484375"/>
     <use xlink:href="#DejaVuSans-73" x="877.498047"/>
     <use xlink:href="#DejaVuSans-29" x="929.597656"/>
    </g>
   </g>
   <g id="legend_1">
    <g id="patch_7">
     <path d="M 613.742386 80.79625 
L 695.136136 80.79625 
Q 697.136136 80.79625 697.136136 78.79625 
L 697.136136 50.44 
Q 697.136136 48.44 695.136136 48.44 
L 613.742386 48.44 
Q 611.742386 48.44 611.742386 50.44 
L 611.742386 78.79625 
Q 611.742386 80.79625 613.742386 80.79625 
z
" style="fill: #ffffff; opacity: 0.8; stroke: #cccccc; stroke-linejoin: miter"/>
    </g>
    <g id="line2d_17">
     <path d="M 615.742386 56.538437 
L 625.742386 56.538437 
L 635.742386 56.538437 
" style="fill: none; stroke: #1f77b4; stroke-width: 1.5; stroke-linecap: square"/>
    </g>
    <g id="text_16">
     <!-- observed -->
     <g transform="translate(643.742386 60.038437) scale(0.1 -0.1)">
      <defs>
       <path id="DejaVuSans-62" d="M 3116 1747 
Q 3116 2381 2855 2742 
Q 2594 3103 2138 3103 
Q 1681 3103 1420 2742 
Q 1159 2381 1159 1747 
Q 1159 1113 1420 752 
Q 1681 391 2138 391 
Q 2594 391 2855 752 
Q 3116 1113 3116 1747 
z
M 1159 2969 
Q 1341 3281 1617 3432 
Q 1894 3584 2278 3584 
Q 2916 3584 3314 3078 
Q 3713 2572 3713 1747 
Q 3713 922 3314 415 
Q 2916 -91 2278 -91 
Q 1894 -91 1617 61 
Q 1341 213 1159 525 
L 1159 0 
L 581 0 
L 581 4863 
L 1159 4863 
L 1159 2969 
z
" transform="scale(0.015625)"/>
       <path id="DejaVuSans-65" d="M 3597 1894 
L 3597 1613 
L 953 1613 
Q 991 1019 1311 708 
Q 1631 397 2203 397 
Q 2534 397 2845 478 
Q 3156 559 3463 722 
L 3463 178 
Q 3153 47 2828 -22 
Q 2503 -91 2169 -91 
Q 1331 -91 842 396 
Q 353 884 353 1716 
Q 353 2575 817 3079 
Q 1281 3584 2069 3584 
Q 2775 3584 3186 3129 
Q 3597 2675 3597 1894 
z
M 3022 2063 
Q 3016 2534 2758 2815 
Q 2500 3097 2075 3097 
Q 1594 3097 1305 2825 
Q 1016 2553 972 2059 
L 3022 2063 
z
" transform="scale(0.015625)"/>
       <path id="DejaVuSans-76" d="M 191 3500 
L 800 3500 
L 1894 563 
L 2988 3500 
L 3597 3500 
L 2284 0 
L 1503 0 
L 191 3500 
z
" transform="scale(0.015625)"/>
       <path id="DejaVuSans-64" d="M 2906 2969 
L 2906 4863 
L 3481 4863 
L 3481 0 
L 2906 0 
L 2906 525 
Q 2725 213 2448 61 
Q 2172 -91 1784 -91 
Q 1150 -91 751 415 
Q 353 922 353 1747 
Q 353 2572 751 3078 
Q 1150 3584 1784 3584 
Q 2172 3584 2448 3432 
Q 2725 3281 2906 2969 
z
M 947 1747 
Q 947 1113 1208 752 
Q 1469 391 1925 391 
Q 2381 391 2643 752 
Q 2906 1113 2906 1747 
Q 2906 2381 2643 2742 
Q 2381 3103 1925 3103 
Q 1469 3103 1208 2742 
Q 947 2381 947 1747 
z
" transform="scale(0.015625)"/>
      </defs>
      <use xlink:href="#DejaVuSans-6f"/>
      <use xlink:href="#DejaVuSans-62" x="61.181641"/>
      <use xlink:href="#DejaVuSans-73" x="124.658203"/>
      <use xlink:href="#DejaVuSans-65" x="176.757812"/>
      <use xlink:href="#DejaVuSans-72" x="238.28125"/>
      <use xlink:href="#DejaVuSans-76" x="279.394531"/>
      <use xlink:href="#DejaVuSans-65" x="338.574219"/>
      <use xlink:href="#DejaVuSans-64" x="400.097656"/>
     </g>
    </g>
    <g id="line2d_18">
     <path d="M 615.742386 71.216563 
L 625.742386 71.216563 
L 635.742386 71.216563 
" style="fill: none; stroke: #ff7f0e; stroke-width: 1.5; stroke-linecap: square"/>
    </g>
    <g id="text_17">
     <!-- simulated -->
     <g transform="translate(643.742386 74.716563) scale(0.1 -0.1)">
      <defs>
       <path id="DejaVuSans-75" d="M 544 1381 
L 544 3500 
L 1119 3500 
L 1119 1403 
Q 1119 906 1312 657 
Q 1506 409 1894 409 
Q 2359 409 2629 706 
Q 2900 1003 2900 1516 
L 2900 3500 
L 3475 3500 
L 3475 0 
L 2900 0 
L 2900 538 
Q 2691 219 2414 64 
Q 2138 -91 1772 -91 
Q 1169 -91 856 284 
Q 544 659 544 1381 
z
M 1991 3584 
L 1991 3584 
z
" transform="scale(0.015625)"/>
       <path id="DejaVuSans-6c" d="M 603 4863 
L 1178 4863 
L 1178 0 
L 603 0 
L 603 4863 
z
" transform="scale(0.015625)"/>
      </defs>
      <use xlink:href="#DejaVuSans-73"/>
      <use xlink:href="#DejaVuSans-69" x="52.099609"/>
      <use xlink:href="#DejaVuSans-6d" x="79.882812"/>
      <use xlink:href="#DejaVuSans-75" x="177.294922"/>
      <use xlink:href="#DejaVuSans-6c" x="240.673828"/>
      <use xlink:href="#DejaVuSans-61" x="268.457031"/>
      <use xlink:href="#DejaVuSans-74" x="329.736328"/>
      <use xlink:href="#DejaVuSans-65" x="368.945312"/>
      <use xlink:href="#DejaVuSans-64" x="430.46875"/>
     </g>
    </g>
   </g>
  </g>
  <g id="axes_2">
   <g id="patch_8">
    <path d="M 20.5625 684.92 
L 702.136136 684.92 
L 702.136136 386.16 
L 20.5625 386.16 
z
" style="fill: #ffffff"/>
   </g>
   <g id="matplotlib.axis_3">
    <g id="xtick_7">
     <g id="line2d_19">
      <g>
       <use xlink:href="#m69c1294bd1" x="51.370957" y="684.92" style="stroke: #000000; stroke-width: 0.8"/>
      </g>
     </g>
     <g id="text_18">
      <!-- 2014-07-01 -->
      <g transform="translate(22.313145 699.518437) scale(0.1 -0.1)">
       <use xlink:href="#DejaVuSans-32"/>
       <use xlink:href="#DejaVuSans-30" x="63.623047"/>
       <use xlink:href="#DejaVuSans-31" x="127.246094"/>
       <use xlink:href="#DejaVuSans-34" x="190.869141"/>
       <use xlink:href="#DejaVuSans-2d" x="254.492188"/>
       <use xlink:href="#DejaVuSans-30" x="290.576172"/>
       <use xlink:href="#DejaVuSans-37" x="354.199219"/>
       <use xlink:href="#DejaVuSans-2d" x="417.822266"/>
       <use xlink:href="#DejaVuSans-30" x="453.90625"/>
       <use xlink:href="#DejaVuSans-31" x="517.529297"/>
      </g>
     </g>
    </g>
    <g id="xtick_8">
     <g id="line2d_20">
      <g>
       <use xlink:href="#m69c1294bd1" x="175.327869" y="684.92" style="stroke: #000000; stroke-width: 0.8"/>
      </g>
     </g>
     <g id="text_19">
      <!-- 2014-07-02 -->
      <g transform="translate(146.270057 699.518437) scale(0.1 -0.1)">
       <use xlink:href="#DejaVuSans-32"/>
       <use xlink:href="#DejaVuSans-30" x="63.623047"/>
       <use xlink:href="#DejaVuSans-31" x="127.246094"/>
       <use xlink:href="#DejaVuSans-34" x="190.869141"/>
       <use xlink:href="#DejaVuSans-2d" x="254.492188"/>
       <use xlink:href="#DejaVuSans-30" x="290.576172"/>
       <use xlink:href="#DejaVuSans-37" x="354.199219"/>
       <use xlink:href="#DejaVuSans-2d" x="417.822266"/>
       <use xlink:href="#DejaVuSans-30" x="453.90625"/>
       <use xlink:href="#DejaVuSans-32" x="517.529297"/>
      </g>
     </g>
    </g>
    <g id="xtick_9">
     <g id="line2d_21">
      <g>
       <use xlink:href="#m69c1294bd1" x="299.284781" y="684.92" style="stroke: #000000; stroke-width: 0.8"/>
      </g>
     </g>
     <g id="text_20">
      <!-- 2014-07-03 -->
      <g transform="translate(270.226969 699.518437) scale(0.1 -0.1)">
       <use xlink:href="#DejaVuSans-32"/>
       <use xlink:href="#DejaVuSans-30" x="63.623047"/>
       <use xlink:href="#DejaVuSans-31" x="127.246094"/>
       <use xlink:href="#DejaVuSans-34" x="190.869141"/>
       <use xlink:href="#DejaVuSans-2d" x="254.492188"/>
       <use xlink:href="#DejaVuSans-30" x="290.576172"/>
       <use xlink:href="#DejaVuSans-37" x="354.199219"/>
       <use xlink:href="#DejaVuSans-2d" x="417.822266"/>
       <use xlink:href="#DejaVuSans-30" x="453.90625"/>
       <use xlink:href="#DejaVuSans-33" x="517.529297"/>
      </g>
     </g>
    </g>
    <g id="xtick_10">
     <g id="line2d_22">
      <g>
       <use xlink:href="#m69c1294bd1" x="423.241693" y="684.92" style="stroke: #000000; stroke-width: 0.8"/>
      </g>
     </g>
     <g id="text_21">
      <!-- 2014-07-04 -->
      <g transform="translate(394.18388 699.518437) scale(0.1 -0.1)">
       <use xlink:href="#DejaVuSans-32"/>
       <use xlink:href="#DejaVuSans-30" x="63.623047"/>
       <use xlink:href="#DejaVuSans-31" x="127.246094"/>
       <use xlink:href="#DejaVuSans-34" x="190.869141"/>
       <use xlink:href="#DejaVuSans-2d" x="254.492188"/>
       <use xlink:href="#DejaVuSans-30" x="290.576172"/>
       <use xlink:href="#DejaVuSans-37" x="354.199219"/>
       <use xlink:href="#DejaVuSans-2d" x="417.822266"/>
       <use xlink:href="#DejaVuSans-30" x="453.90625"/>
       <use xlink:href="#DejaVuSans-34" x="517.529297"/>
      </g>
     </g>
    </g>
    <g id="xtick_11">
     <g id="line2d_23">
      <g>
       <use xlink:href="#m69c1294bd1" x="547.198605" y="684.92" style="stroke: #000000; stroke-width: 0.8"/>
      </g>
     </g>
     <g id="text_22">
      <!-- 2014-07-05 -->
      <g transform="translate(518.140792 699.518437) scale(0.1 -0.1)">
       <use xlink:href="#DejaVuSans-32"/>
       <use xlink:href="#DejaVuSans-30" x="63.623047"/>
       <use xlink:href="#DejaVuSans-31" x="127.246094"/>
       <use xlink:href="#DejaVuSans-34" x="190.869141"/>
       <use xlink:href="#DejaVuSans-2d" x="254.492188"/>
       <use xlink:href="#DejaVuSans-30" x="290.576172"/>
       <use xlink:href="#DejaVuSans-37" x="354.199219"/>
       <use xlink:href="#DejaVuSans-2d" x="417.822266"/>
       <use xlink:href="#DejaVuSans-30" x="453.90625"/>
       <use xlink:href="#DejaVuSans-35" x="517.529297"/>
      </g>
     </g>
    </g>
    <g id="xtick_12">
     <g id="line2d_24">
      <g>
       <use xlink:href="#m69c1294bd1" x="671.155517" y="684.92" style="stroke: #000000; stroke-width: 0.8"/>
      </g>
     </g>
     <g id="text_23">
      <!-- 2014-07-06 -->
      <g transform="translate(642.097704 699.518437) scale(0.1 -0.1)">
       <use xlink:href="#DejaVuSans-32"/>
       <use xlink:href="#DejaVuSans-30" x="63.623047"/>
       <use xlink:href="#DejaVuSans-31" x="127.246094"/>
       <use xlink:href="#DejaVuSans-34" x="190.869141"/>
       <use xlink:href="#DejaVuSans-2d" x="254.492188"/>
       <use xlink:href="#DejaVuSans-30" x="290.576172"/>
       <use xlink:href="#DejaVuSans-37" x="354.199219"/>
       <use xlink:href="#DejaVuSans-2d" x="417.822266"/>
       <use xlink:href="#DejaVuSans-30" x="453.90625"/>
       <use xlink:href="#DejaVuSans-36" x="517.529297"/>
      </g>
     </g>
    </g>
   </g>
   <g id="matplotlib.axis_4">
    <g id="ytick_9">
     <g id="line2d_25">
      <g>
       <use xlink:href="#mcc7f314f3b" x="20.5625" y="671.333078" style="stroke: #000000; stroke-width: 0.8"/>
      </g>
     </g>
     <g id="text_24">
      <!-- 0 -->
      <g transform="translate(7.2 675.132296) scale(0.1 -0.1)">
       <use xlink:href="#DejaVuSans-30"/>
      </g>
     </g>
    </g>
    <g id="ytick_10">
     <g id="line2d_26">
      <g>
       <use xlink:href="#mcc7f314f3b" x="20.5625" y="632.540604" style="stroke: #000000; stroke-width: 0.8"/>
      </g>
     </g>
     <g id="text_25">
      <!-- 1 -->
      <g transform="translate(7.2 636.339823) scale(0.1 -0.1)">
       <use xlink:href="#DejaVuSans-31"/>
      </g>
     </g>
    </g>
    <g id="ytick_11">
     <g id="line2d_27">
      <g>
       <use xlink:href="#mcc7f314f3b" x="20.5625" y="593.748131" style="stroke: #000000; stroke-width: 0.8"/>
      </g>
     </g>
     <g id="text_26">
      <!-- 2 -->
      <g transform="translate(7.2 597.547349) scale(0.1 -0.1)">
       <use xlink:href="#DejaVuSans-32"/>
      </g>
     </g>
    </g>
    <g id="ytick_12">
     <g id="line2d_28">
      <g>
       <use xlink:href="#mcc7f314f3b" x="20.5625" y="554.955657" style="stroke: #000000; stroke-width: 0.8"/>
      </g>
     </g>
     <g id="text_27">
      <!-- 3 -->
      <g transform="translate(7.2 558.754876) scale(0.1 -0.1)">
       <use xlink:href="#DejaVuSans-33"/>
      </g>
     </g>
    </g>
    <g id="ytick_13">
     <g id="line2d_29">
      <g>
       <use xlink:href="#mcc7f314f3b" x="20.5625" y="516.163184" style="stroke: #000000; stroke-width: 0.8"/>
      </g>
     </g>
     <g id="text_28">
      <!-- 4 -->
      <g transform="translate(7.2 519.962402) scale(0.1 -0.1)">
       <use xlink:href="#DejaVuSans-34"/>
      </g>
     </g>
    </g>
    <g id="ytick_14">
     <g id="line2d_30">
      <g>
       <use xlink:href="#mcc7f314f3b" x="20.5625" y="477.37071" style="stroke: #000000; stroke-width: 0.8"/>
      </g>
     </g>
     <g id="text_29">
      <!-- 5 -->
      <g transform="translate(7.2 481.169929) scale(0.1 -0.1)">
       <use xlink:href="#DejaVuSans-35"/>
      </g>
     </g>
    </g>
    <g id="ytick_15">
     <g id="line2d_31">
      <g>
       <use xlink:href="#mcc7f314f3b" x="20.5625" y="438.578237" style="stroke: #000000; stroke-width: 0.8"/>
      </g>
     </g>
     <g id="text_30">
      <!-- 6 -->
      <g transform="translate(7.2 442.377456) scale(0.1 -0.1)">
       <use xlink:href="#DejaVuSans-36"/>
      </g>
     </g>
    </g>
    <g id="ytick_16">
     <g id="line2d_32">
      <g>
       <use xlink:href="#mcc7f314f3b" x="20.5625" y="399.785763" style="stroke: #000000; stroke-width: 0.8"/>
      </g>
     </g>
     <g id="text_31">
      <!-- 7 -->
      <g transform="translate(7.2 403.584982) scale(0.1 -0.1)">
       <use xlink:href="#DejaVuSans-37"/>
      </g>
     </g>
    </g>
   </g>
   <g id="line2d_33">
    <path d="M 51.54312 671.332967 
L 60.409482 671.116695 
L 63.680567 670.656609 
L 67.812465 669.901239 
L 68.93152 669.485955 
L 69.534088 669.02452 
L 70.050575 668.294354 
L 70.567063 667.078657 
L 71.08355 665.230734 
L 71.600037 662.686868 
L 72.460849 657.068561 
L 73.493823 648.127787 
L 75.731934 625.509946 
L 77.453558 611.957727 
L 77.711801 611.375382 
L 77.970045 609.854641 
L 78.142207 609.877467 
L 78.486532 608.704769 
L 78.572613 608.751175 
L 78.744775 608.282573 
L 78.916938 607.994776 
L 79.0891 608.060207 
L 79.347344 607.536334 
L 79.605587 607.778103 
L 79.863831 607.512097 
L 80.035993 607.734898 
L 80.294237 607.580835 
L 80.55248 607.781105 
L 80.896805 607.342025 
L 81.24113 605.581188 
L 81.585455 604.517913 
L 81.671536 604.584421 
L 81.843698 604.756168 
L 82.015861 604.78575 
L 82.618429 606.291486 
L 82.790591 606.506678 
L 83.220997 606.159851 
L 83.565322 605.488797 
L 83.909647 605.391564 
L 84.340053 606.301396 
L 84.512215 606.618437 
L 84.684378 605.174798 
L 84.85654 603.813035 
L 85.028702 602.80856 
L 85.889514 590.342779 
L 86.406001 580.263636 
L 86.922488 552.00386 
L 87.352894 534.170586 
L 88.041544 512.430941 
L 88.47195 506.624404 
L 88.644112 506.229664 
L 88.816275 506.349806 
L 88.902356 506.288542 
L 89.074518 506.663657 
L 89.160599 506.870905 
L 89.93533 512.780178 
L 90.62398 518.522842 
L 90.710061 518.387106 
L 90.796142 517.380813 
L 90.968304 510.892636 
L 91.312629 483.552177 
L 91.829116 446.546025 
L 92.345603 423.66806 
L 92.776009 414.712569 
L 93.292496 406.375178 
L 93.808984 401.04405 
L 94.153308 399.814435 
L 94.325471 399.758294 
L 94.497633 400.062766 
L 94.755877 401.232523 
L 95.272364 405.376302 
L 95.961013 412.88065 
L 97.424393 427.680894 
L 97.510475 427.708734 
L 97.596556 427.600577 
L 97.854799 428.008137 
L 98.026962 427.953587 
L 98.199124 428.067552 
L 98.457368 427.656736 
L 98.801692 426.325032 
L 100.351154 420.050356 
L 102.072778 415.754433 
L 102.24494 415.811868 
L 102.503184 416.427564 
L 102.847508 418.450638 
L 103.277914 422.755976 
L 103.794401 429.964305 
L 104.655213 445.871211 
L 105.429944 463.678089 
L 106.118594 477.972126 
L 106.979405 487.967687 
L 107.581974 491.993136 
L 108.098461 494.357345 
L 108.78711 496.694621 
L 111.713871 504.82493 
L 112.316439 507.282848 
L 113.177251 511.389762 
L 114.124144 515.742158 
L 115.157118 519.872128 
L 116.104011 522.999478 
L 116.878742 524.958032 
L 117.653473 526.251141 
L 117.739554 526.2402 
L 118.16996 526.834493 
L 118.686447 528.04859 
L 118.858609 527.948406 
L 119.030772 528.886313 
L 119.116853 529.240109 
L 119.289015 528.170138 
L 119.375097 528.423861 
L 119.547259 530.658706 
L 119.719421 528.415223 
L 119.805503 528.898725 
L 119.977665 531.249477 
L 120.149827 528.994626 
L 120.235908 529.206813 
L 120.408071 531.58361 
L 120.580233 529.228086 
L 120.838477 532.151267 
L 121.010639 529.689279 
L 121.182802 532.385892 
L 121.268883 532.278272 
L 121.441045 530.471269 
L 121.613207 533.137027 
L 121.78537 530.76184 
L 121.871451 531.218474 
L 122.043613 533.746665 
L 122.215776 531.461201 
L 122.301857 531.729371 
L 122.474019 534.223748 
L 122.646182 531.992538 
L 122.732263 532.333515 
L 122.904425 534.622272 
L 122.990507 534.15933 
L 123.162669 532.767055 
L 123.420912 534.942892 
L 123.679156 533.579196 
L 123.9374 535.285146 
L 124.023481 535.224039 
L 124.195643 533.976776 
L 124.453887 535.787099 
L 124.539968 535.5662 
L 124.71213 534.336825 
L 124.970374 535.988012 
L 125.056455 535.914844 
L 125.228617 534.639401 
L 125.486861 536.213342 
L 125.572942 536.205045 
L 125.745105 534.873461 
L 126.089429 536.491713 
L 126.261592 535.152832 
L 126.347673 535.462826 
L 126.519835 536.580512 
L 126.605916 536.734394 
L 126.778079 535.420401 
L 126.86416 535.530176 
L 127.036322 536.685292 
L 127.122404 536.857524 
L 127.380647 535.584568 
L 127.55281 536.721335 
L 127.638891 536.910816 
L 127.897134 535.57113 
L 128.069297 536.735421 
L 128.155378 536.938331 
L 128.413621 535.533995 
L 128.585784 536.708849 
L 128.671865 536.920518 
L 128.930109 535.380973 
L 129.102271 536.69048 
L 129.188352 536.945064 
L 129.446596 535.381602 
L 129.618758 536.653282 
L 129.704839 536.924439 
L 129.963083 535.306714 
L 130.221326 536.835243 
L 130.47957 535.214013 
L 130.651732 536.455939 
L 130.737813 536.691868 
L 130.996057 535.12835 
L 131.168219 536.429089 
L 131.254301 536.654114 
L 131.512544 535.181226 
L 131.684707 536.55788 
L 131.770788 536.737918 
L 131.94295 535.337652 
L 132.029031 535.416415 
L 132.201194 536.758237 
L 132.287275 536.964588 
L 132.459437 535.607866 
L 132.545518 535.74757 
L 132.717681 537.050464 
L 132.803762 537.232176 
L 132.975924 535.991231 
L 133.062006 536.054224 
L 133.234168 537.380953 
L 133.320249 537.554267 
L 133.492412 536.409389 
L 133.578493 536.468934 
L 133.750655 537.760683 
L 133.836736 537.953512 
L 134.008899 536.919214 
L 134.09498 536.958114 
L 134.267142 538.249642 
L 134.353223 538.451757 
L 134.611467 537.643278 
L 134.783629 538.871701 
L 134.869711 539.069617 
L 135.127954 538.399325 
L 135.386198 539.720606 
L 135.55836 539.442465 
L 135.644441 539.443326 
L 135.902685 540.353893 
L 135.988766 540.316065 
L 136.074847 540.406833 
L 136.505253 541.396876 
L 138.054715 544.640428 
L 139.690257 547.835359 
L 140.551069 549.02587 
L 143.047423 551.391568 
L 144.166479 552.226591 
L 146.146346 553.244833 
L 148.900944 554.240721 
L 150.622568 555.639249 
L 151.569461 556.424466 
L 152.085948 556.698815 
L 155.615277 558.497725 
L 155.873521 558.493683 
L 156.476089 558.073249 
L 157.853388 556.722825 
L 158.197713 556.719005 
L 158.628119 556.961797 
L 159.230687 557.64057 
L 159.919336 558.500204 
L 160.86623 559.617122 
L 162.071366 560.707071 
L 163.965152 562.677464 
L 164.653802 562.948584 
L 165.342451 563.223811 
L 166.031101 563.767699 
L 167.838806 565.356827 
L 168.613537 565.949086 
L 170.162998 567.241779 
L 171.109891 568.084903 
L 172.831515 569.636434 
L 173.692327 570.256967 
L 174.467057 570.556732 
L 175.758275 571.000963 
L 176.705168 571.590669 
L 177.307737 571.879058 
L 177.738143 571.971796 
L 179.02936 572.008588 
L 179.890172 571.727774 
L 180.320578 571.413924 
L 180.923147 570.777631 
L 181.525715 570.286166 
L 182.042202 570.216254 
L 182.64477 570.393887 
L 183.419501 570.82936 
L 184.710719 571.877273 
L 185.48545 572.649024 
L 186.94883 574.243821 
L 187.551398 574.705172 
L 188.498291 575.796037 
L 189.789509 577.297013 
L 190.219915 577.551949 
L 191.941539 578.381894 
L 194.610056 580.48141 
L 195.470867 581.20675 
L 196.417761 582.309194 
L 197.967222 584.580054 
L 201.066145 589.457739 
L 201.238307 589.105219 
L 201.754794 587.465741 
L 202.271281 584.623959 
L 203.992905 572.239679 
L 204.33723 567.424083 
L 205.111961 558.131952 
L 206.058854 552.045563 
L 207.177909 540.896116 
L 207.436153 537.206899 
L 207.522234 536.924152 
L 207.780477 532.01775 
L 207.866559 532.287937 
L 207.95264 532.713319 
L 208.210883 528.316316 
L 208.296965 528.451414 
L 208.383046 529.156823 
L 208.469127 528.585559 
L 208.641289 526.885214 
L 208.727371 526.841171 
L 208.985614 526.181571 
L 209.071695 526.259835 
L 209.157776 527.361668 
L 209.329939 525.875 
L 209.41602 526.25546 
L 209.674264 527.35722 
L 209.846426 527.077303 
L 209.932507 528.325343 
L 210.018588 528.058144 
L 210.10467 527.776174 
L 210.276832 529.120938 
L 210.362913 529.340774 
L 210.448994 530.090901 
L 210.535075 529.381746 
L 210.621157 529.50852 
L 210.793319 531.537023 
L 210.965481 531.711216 
L 211.051563 531.347579 
L 211.309806 533.745814 
L 211.395887 533.501515 
L 211.56805 533.323373 
L 211.740212 536.112918 
L 211.826293 535.707282 
L 211.998456 534.709174 
L 212.170618 537.419493 
L 212.256699 536.822045 
L 212.34278 535.356501 
L 212.428862 535.696636 
L 212.601024 538.575506 
L 212.859268 536.878093 
L 213.03143 538.659097 
L 213.203592 536.58385 
L 213.289674 536.952445 
L 213.461836 538.68221 
L 213.720079 534.848443 
L 213.806161 535.006367 
L 213.978323 535.764153 
L 214.150485 532.356674 
L 214.408729 527.466421 
L 214.925216 521.444053 
L 216.130353 506.310073 
L 216.732921 503.073328 
L 217.249408 497.668784 
L 218.540626 482.762566 
L 218.79887 482.2029 
L 218.971032 482.490298 
L 219.229276 484.033894 
L 219.659681 488.73634 
L 220.520493 502.510851 
L 221.639549 521.250123 
L 222.41428 530.867425 
L 223.016848 537.820504 
L 223.102929 537.683908 
L 223.18901 537.228846 
L 223.447254 540.154257 
L 223.619416 540.091503 
L 223.791579 541.330876 
L 223.963741 542.083973 
L 224.135903 542.410115 
L 224.480228 543.511329 
L 225.254959 544.696522 
L 227.406988 547.234008 
L 228.95645 550.003853 
L 230.41983 553.10894 
L 232.227535 557.051677 
L 234.379565 560.398372 
L 234.809971 560.800512 
L 235.584701 561.324441 
L 236.617676 562.246837 
L 237.736731 563.363201 
L 238.597543 563.830194 
L 239.544436 564.147216 
L 240.147004 564.404991 
L 241.954709 565.58667 
L 244.19282 567.089792 
L 244.967551 567.869775 
L 245.484038 568.134357 
L 247.0335 569.129764 
L 248.410799 570.071463 
L 251.681884 572.34014 
L 253.403507 573.856258 
L 254.006076 574.10236 
L 255.297294 574.336957 
L 255.813781 574.224667 
L 256.674593 573.734635 
L 257.96581 572.933426 
L 258.482298 573.086864 
L 259.170947 573.653097 
L 259.859597 574.17575 
L 262.355951 576.055134 
L 263.216763 576.740085 
L 263.905413 576.999441 
L 264.507981 576.978002 
L 265.024468 576.981998 
L 265.713117 577.264115 
L 267.176498 577.851398 
L 267.865147 577.83229 
L 269.328527 577.767965 
L 269.931096 577.668308 
L 270.361502 577.686122 
L 270.96407 577.959693 
L 272.083125 578.610756 
L 273.202181 578.896463 
L 274.321236 579.082142 
L 275.784617 579.655617 
L 276.73151 579.644186 
L 277.764484 579.237606 
L 278.280971 579.331834 
L 278.969621 579.733159 
L 281.8103 581.935338 
L 283.101518 582.909093 
L 284.478817 583.756583 
L 285.081385 584.514499 
L 285.856116 585.906293 
L 288.35247 590.740332 
L 289.557607 592.638223 
L 290.848825 594.186665 
L 292.053961 595.231525 
L 292.914773 595.669236 
L 296.013696 596.71627 
L 299.026538 597.311286 
L 300.748161 597.140584 
L 301.953298 596.399308 
L 303.158435 594.426256 
L 303.588841 592.892039 
L 304.105328 590.593821 
L 304.707896 587.885481 
L 305.913033 581.926486 
L 307.548575 572.380401 
L 309.35628 560.877758 
L 309.786686 558.34277 
L 310.561417 556.22767 
L 311.077904 555.391805 
L 311.163985 555.4559 
L 311.250066 555.506491 
L 311.422229 554.455332 
L 311.680472 553.134985 
L 312.369122 552.12601 
L 313.402096 551.931812 
L 313.746421 551.687152 
L 314.004664 551.824664 
L 314.262908 552.29445 
L 315.295882 554.537054 
L 316.070613 556.017184 
L 317.017506 558.28994 
L 317.706155 560.352045 
L 318.911292 564.685296 
L 319.772104 567.711361 
L 320.546835 569.634714 
L 321.407647 571.153819 
L 322.526702 572.709808 
L 324.248326 574.697607 
L 326.486437 577.303071 
L 327.863736 579.249852 
L 329.58536 582.250104 
L 333.372932 589.529676 
L 334.491987 591.035684 
L 335.869286 592.558683 
L 337.504829 594.063697 
L 338.882128 595.080029 
L 341.120239 596.359825 
L 342.153213 597.052804 
L 343.960918 598.736232 
L 347.232003 602.335282 
L 347.318084 602.292187 
L 347.576328 602.937364 
L 347.662409 602.836958 
L 347.74849 602.691691 
L 347.834572 602.841758 
L 348.006734 603.510861 
L 348.264977 603.079296 
L 348.43714 604.137933 
L 348.523221 604.032145 
L 348.695383 603.548292 
L 348.867546 604.712009 
L 348.953627 604.587631 
L 349.125789 604.093113 
L 349.297952 605.133498 
L 349.470114 604.464764 
L 349.556195 604.512433 
L 349.728358 605.52213 
L 349.90052 604.85231 
L 349.986601 604.946981 
L 350.158764 605.90887 
L 350.330926 605.245247 
L 350.417007 605.40238 
L 350.58917 606.302857 
L 350.761332 605.653893 
L 350.847413 605.852101 
L 351.019576 606.68987 
L 351.191738 606.065134 
L 351.449981 607.071182 
L 351.536063 606.725543 
L 351.622144 606.472509 
L 351.880387 607.461469 
L 352.05255 606.892832 
L 352.310793 607.838697 
L 352.482956 607.30311 
L 352.741199 608.204304 
L 352.913362 607.700566 
L 353.171605 608.574901 
L 353.343768 608.10634 
L 353.602011 608.949877 
L 353.774174 608.500605 
L 354.032417 609.295266 
L 354.20458 608.876566 
L 354.462823 609.666593 
L 354.634985 609.267811 
L 354.893229 610.031391 
L 355.065391 609.667032 
L 355.323635 610.394172 
L 355.495797 610.039049 
L 355.754041 610.742299 
L 355.926203 610.410062 
L 356.184447 611.100479 
L 356.356609 610.78611 
L 356.614853 611.440725 
L 356.787015 611.137511 
L 357.045259 611.783682 
L 357.217421 611.497171 
L 357.475665 612.137154 
L 357.647827 611.860295 
L 357.906071 612.485359 
L 358.078233 612.21324 
L 358.336477 612.821324 
L 358.508639 612.553713 
L 358.766883 613.153704 
L 358.939045 612.890574 
L 359.197288 613.474551 
L 359.369451 613.209452 
L 359.627694 613.787837 
L 359.799857 613.530974 
L 360.0581 614.098668 
L 360.230263 613.842665 
L 360.488506 614.401947 
L 360.574587 614.243759 
L 360.660669 614.153421 
L 360.918912 614.69686 
L 361.004993 614.560088 
L 361.091075 614.458115 
L 361.263237 614.831223 
L 361.349318 614.990229 
L 361.521481 614.764881 
L 361.607562 614.849471 
L 361.779724 615.276018 
L 362.037968 615.128657 
L 362.21013 615.550177 
L 362.296211 615.501528 
L 362.468374 615.403888 
L 362.726617 615.808738 
L 362.89878 615.672299 
L 363.157023 616.095471 
L 363.329186 615.941612 
L 363.587429 616.373352 
L 363.67351 616.278062 
L 363.759591 616.218277 
L 363.931754 616.489328 
L 364.017835 616.632889 
L 364.103916 616.580684 
L 364.276079 616.536155 
L 364.534322 616.874719 
L 364.706485 616.783987 
L 365.050809 617.087192 
L 365.222972 617.098591 
L 365.481215 617.378582 
L 365.653378 617.326654 
L 365.997702 617.604587 
L 366.169865 617.623542 
L 366.428108 617.870361 
L 366.600271 617.840594 
L 367.030677 618.085601 
L 367.202839 618.183144 
L 367.461083 618.330663 
L 367.719326 618.434231 
L 368.063651 618.580062 
L 369.010544 619.045608 
L 370.301762 619.542941 
L 371.679061 619.829244 
L 373.658928 619.985106 
L 380.373261 620.149855 
L 402.323964 620.791434 
L 428.406564 621.797278 
L 464.560664 623.554772 
L 497.443678 625.474851 
L 535.405482 628.07996 
L 546.596036 629.038186 
L 565.447817 630.799402 
L 582.147567 632.605855 
L 588.173251 633.641716 
L 614.255851 638.661303 
L 640.25237 644.356313 
L 647.397108 645.632649 
L 655.746984 646.927624 
L 663.752534 647.975338 
L 671.155517 648.773539 
L 671.155517 648.773539 
" clip-path="url(#p8acf8990a3)" style="fill: none; stroke: #1f77b4; stroke-width: 1.5; stroke-linecap: square"/>
   </g>
   <g id="line2d_34">
    <path d="M 51.54312 671.333077 
L 53.522987 671.233762 
L 54.211637 670.945271 
L 54.900286 670.411125 
L 55.675017 669.51364 
L 57.138397 667.392251 
L 58.171371 666.168012 
L 60.23732 664.316361 
L 60.925969 663.991419 
L 61.442457 663.955527 
L 62.045025 664.148565 
L 62.647593 664.61183 
L 63.508405 665.647662 
L 64.627461 666.93362 
L 65.31611 667.383136 
L 65.832597 667.463705 
L 66.349084 667.271042 
L 66.865571 666.724344 
L 67.295977 666.015429 
L 67.898546 664.559062 
L 68.673276 661.951616 
L 69.534088 658.380292 
L 71.341793 649.585574 
L 73.407742 638.074491 
L 74.612878 629.582249 
L 77.367476 608.605031 
L 79.347344 597.642773 
L 81.068968 589.9504 
L 81.843698 586.58235 
L 83.479241 578.995597 
L 83.995728 577.68853 
L 84.598296 576.968664 
L 85.373027 577.574334 
L 85.545189 577.317946 
L 85.803433 576.435233 
L 86.147758 574.188017 
L 86.578164 569.637695 
L 87.266813 559.122457 
L 88.902356 532.812235 
L 89.677086 526.977183 
L 90.107492 520.23248 
L 90.537898 509.679508 
L 91.312629 483.511692 
L 92.689928 436.737616 
L 93.292496 423.30392 
L 93.895065 414.522553 
L 94.411552 410.060233 
L 94.841958 408.154874 
L 95.186283 407.68366 
L 95.358445 407.703426 
L 95.616688 408.164448 
L 95.961013 409.275051 
L 96.821825 413.707676 
L 97.510475 417.067019 
L 98.026962 418.974634 
L 98.457368 419.797936 
L 98.801692 420.162148 
L 99.576423 420.474785 
L 100.006829 420.742773 
L 100.351154 421.151034 
L 100.867641 422.24081 
L 101.556291 423.905515 
L 101.728453 423.897857 
L 102.072778 423.40087 
L 102.331021 423.171601 
L 102.503184 423.367042 
L 102.761427 424.393941 
L 103.105752 427.224706 
L 103.622239 433.987097 
L 106.548999 477.325936 
L 107.409811 485.71594 
L 108.356704 492.889946 
L 109.47576 499.699032 
L 110.93914 507.168099 
L 112.40252 513.627746 
L 114.124144 520.207532 
L 114.640631 521.425283 
L 115.071037 521.932759 
L 115.501443 522.090764 
L 116.104011 521.987477 
L 116.964823 521.813012 
L 117.395229 521.902238 
L 117.653473 522.178919 
L 117.997798 523.186274 
L 118.514285 525.657518 
L 120.149827 534.010178 
L 120.924558 536.758964 
L 121.78537 538.959095 
L 122.818344 540.956656 
L 124.195643 542.979618 
L 125.917267 544.850239 
L 127.638891 546.135628 
L 128.241459 546.437108 
L 128.757946 546.634106 
L 130.393489 546.989366 
L 132.029031 546.899537 
L 132.459437 547.124307 
L 132.889843 547.633263 
L 133.320249 548.451883 
L 133.836736 549.939969 
L 134.439305 552.48243 
L 135.300116 557.423093 
L 136.763497 565.889767 
L 137.624309 569.521837 
L 138.399039 571.913526 
L 139.259851 573.877216 
L 140.292825 575.637923 
L 140.809313 576.105858 
L 141.153637 576.145505 
L 141.497962 575.961151 
L 141.928368 575.385378 
L 142.530936 574.082285 
L 144.25256 569.971612 
L 144.510804 569.836716 
L 144.769047 569.867514 
L 145.113372 570.17721 
L 145.629859 570.964783 
L 146.576752 572.601006 
L 147.093239 573.105593 
L 147.695808 573.304831 
L 148.55662 573.224289 
L 149.675675 572.84283 
L 150.364325 572.565091 
L 150.708649 572.628668 
L 151.052974 572.838098 
L 151.48338 573.358242 
L 152.688517 574.76309 
L 153.205004 574.976443 
L 154.151897 574.828264 
L 154.840546 574.530368 
L 155.443115 574.359161 
L 155.873521 574.702598 
L 156.390008 575.514946 
L 157.336901 577.429751 
L 158.02555 578.627147 
L 158.455956 579.026602 
L 158.886362 579.162994 
L 159.488931 579.03245 
L 160.005418 578.87449 
L 160.780148 578.849562 
L 161.296636 578.883969 
L 161.899204 578.891771 
L 162.32961 578.640513 
L 162.673935 578.225166 
L 163.965152 576.408946 
L 164.223396 576.382091 
L 164.739883 576.664851 
L 165.25637 577.340628 
L 165.858939 578.572432 
L 166.977994 580.805859 
L 167.580562 581.592432 
L 168.355293 582.078132 
L 169.130024 582.594691 
L 169.56043 582.795989 
L 169.990836 582.738012 
L 170.507323 582.279388 
L 171.970703 580.707056 
L 172.659352 580.541173 
L 173.003677 580.630158 
L 173.434083 580.950095 
L 174.036651 581.995197 
L 175.155707 584.381897 
L 175.672194 584.897089 
L 176.1026 584.970527 
L 176.446925 584.769906 
L 176.963412 584.105626 
L 178.943279 580.813757 
L 179.631929 580.31688 
L 180.320578 579.800019 
L 181.525715 579.104705 
L 182.042202 579.281868 
L 182.730852 579.808727 
L 184.7968 582.088991 
L 187.120992 585.636145 
L 187.551398 585.972698 
L 187.895723 586.019036 
L 188.584372 585.685048 
L 189.445184 585.057312 
L 190.736402 583.813168 
L 191.080727 583.831776 
L 193.060594 584.602628 
L 193.577081 585.105746 
L 193.921406 585.69434 
L 194.351812 586.883052 
L 195.126543 589.90917 
L 196.159517 593.713459 
L 196.848166 595.460759 
L 197.536816 596.651472 
L 198.311547 597.553452 
L 199.25844 598.30971 
L 200.635739 599.132546 
L 200.980064 599.343592 
L 201.324388 599.40986 
L 201.496551 599.384289 
L 201.754794 598.910844 
L 202.099119 597.563881 
L 202.529525 594.148467 
L 202.959931 588.91295 
L 203.64858 577.049224 
L 204.767636 552.673492 
L 205.370204 541.06365 
L 205.886691 534.858373 
L 206.48926 530.341042 
L 207.522234 524.306003 
L 208.469127 520.072918 
L 208.985614 518.58002 
L 209.41602 517.814941 
L 209.846426 517.560067 
L 210.10467 517.615722 
L 210.621157 518.144626 
L 211.223725 519.376795 
L 212.945349 524.161089 
L 213.203592 524.421101 
L 213.375755 524.423149 
L 213.547917 524.303048 
L 213.720079 523.961266 
L 214.408729 520.159825 
L 214.839135 516.000373 
L 217.077246 491.395153 
L 217.507652 489.201862 
L 218.196301 486.379768 
L 218.626707 482.37027 
L 219.143194 478.007291 
L 219.401438 477.428363 
L 219.5736 477.777305 
L 219.831844 479.306394 
L 220.26225 483.817457 
L 222.586442 512.153016 
L 223.447254 518.844335 
L 224.308066 523.822719 
L 225.34104 528.477033 
L 226.718339 533.613666 
L 228.009557 537.711677 
L 228.784287 539.603333 
L 229.386856 540.562326 
L 229.989424 541.092001 
L 230.850236 541.417988 
L 231.624967 541.737293 
L 232.141454 542.173003 
L 232.744022 542.925156 
L 233.949159 544.470867 
L 234.551727 544.769186 
L 235.154295 544.740389 
L 235.929026 544.315362 
L 236.617676 543.990948 
L 237.478488 543.86223 
L 237.822812 543.964188 
L 238.167137 544.319216 
L 238.597543 545.046023 
L 239.372274 547.143015 
L 240.835654 551.35515 
L 241.438222 552.414847 
L 242.040791 552.983148 
L 242.643359 553.522444 
L 243.073765 554.147516 
L 244.537145 556.400995 
L 245.6562 557.094586 
L 246.172688 557.160512 
L 246.775256 557.106962 
L 247.119581 557.292609 
L 247.463905 557.785594 
L 248.582961 559.968616 
L 249.185529 561.511282 
L 250.821072 566.344313 
L 251.251478 566.732552 
L 252.026208 566.846449 
L 252.628777 566.722484 
L 253.231345 566.286707 
L 253.833913 565.931261 
L 254.264319 565.899295 
L 254.866888 566.099399 
L 255.813781 566.321839 
L 257.449323 566.50306 
L 257.879729 566.91618 
L 258.482298 567.836618 
L 259.34311 569.541968 
L 260.376084 571.542726 
L 261.150814 572.307715 
L 261.753383 572.708409 
L 262.26987 572.743832 
L 262.786357 572.46043 
L 263.216763 572.030068 
L 263.647169 571.733854 
L 264.077575 571.626073 
L 264.852306 571.33573 
L 266.401767 570.275957 
L 266.918254 570.132044 
L 267.176498 570.238682 
L 267.520822 570.52233 
L 267.865147 571.105727 
L 268.295553 572.158473 
L 269.50069 575.708565 
L 269.845015 576.210313 
L 270.103258 576.323794 
L 270.361502 576.221259 
L 270.705826 575.778595 
L 271.308395 574.553523 
L 271.910963 573.544263 
L 272.42745 573.052788 
L 272.685694 572.992913 
L 273.1161 573.217336 
L 273.460424 573.743754 
L 275.009886 576.447218 
L 275.440292 576.579212 
L 276.04286 576.356587 
L 276.559347 575.945487 
L 277.420159 575.042591 
L 277.850565 574.91039 
L 278.969621 574.979159 
L 279.400026 575.187671 
L 279.744351 575.64302 
L 280.260838 576.766584 
L 280.777326 578.371583 
L 281.465975 581.391143 
L 282.757193 587.215707 
L 283.445842 589.35628 
L 284.134492 590.827652 
L 284.909223 591.943764 
L 285.856116 592.886175 
L 286.975171 593.718766 
L 287.405577 593.777859 
L 287.835983 593.60399 
L 288.438551 593.05023 
L 290.418419 590.933511 
L 290.676662 590.985141 
L 291.020987 591.397854 
L 291.623555 592.677487 
L 292.742611 595.1257 
L 293.259098 595.785102 
L 293.775585 596.110066 
L 294.378153 596.194523 
L 295.497209 596.029337 
L 296.185858 596.026124 
L 296.702345 596.42248 
L 297.993563 597.592821 
L 298.337888 597.648965 
L 298.768294 597.464469 
L 299.1987 596.949834 
L 299.801268 595.762904 
L 300.66208 593.315061 
L 302.12546 587.922141 
L 303.933165 580.215137 
L 304.96614 574.167355 
L 307.8929 554.82503 
L 309.184118 549.842252 
L 311.250066 544.124685 
L 312.283041 541.946908 
L 313.057771 539.564818 
L 313.746421 537.694504 
L 314.176827 537.059016 
L 314.521151 536.956093 
L 314.779395 537.129883 
L 315.12372 537.724258 
L 315.381963 538.678047 
L 315.812369 541.372614 
L 316.501019 547.412839 
L 317.964399 560.62815 
L 318.566967 564.161532 
L 319.169536 566.517079 
L 319.772104 568.042851 
L 320.374672 569.061893 
L 321.063322 569.878074 
L 322.35454 571.032321 
L 323.215352 571.961703 
L 323.904001 573.027449 
L 324.678732 574.641154 
L 327.43333 580.999513 
L 328.294142 582.201642 
L 329.499278 583.461664 
L 331.220902 585.211971 
L 333.200769 587.296485 
L 335.352799 589.180551 
L 338.537803 591.6514 
L 342.153213 594.1716 
L 345.940785 596.539178 
L 349.986601 598.803932 
L 354.290661 600.956814 
L 358.939045 603.028534 
L 363.931754 605.004324 
L 369.268788 606.874095 
L 375.036227 608.656659 
L 381.320154 610.361821 
L 388.120568 611.973623 
L 395.52355 613.498037 
L 403.701263 614.950631 
L 412.653707 616.311443 
L 422.553043 617.588014 
L 433.571436 618.780541 
L 445.881046 619.884671 
L 459.740117 620.899569 
L 475.406893 621.819637 
L 493.397862 622.648219 
L 514.229509 623.379488 
L 538.848729 624.014235 
L 568.460658 624.547682 
L 605.303407 624.979958 
L 653.422792 625.31026 
L 671.155517 625.389512 
L 671.155517 625.389512 
" clip-path="url(#p8acf8990a3)" style="fill: none; stroke: #ff7f0e; stroke-width: 1.5; stroke-linecap: square"/>
   </g>
   <g id="patch_9">
    <path d="M 20.5625 684.92 
L 20.5625 386.16 
" style="fill: none; stroke: #000000; stroke-width: 0.8; stroke-linejoin: miter; stroke-linecap: square"/>
   </g>
   <g id="patch_10">
    <path d="M 702.136136 684.92 
L 702.136136 386.16 
" style="fill: none; stroke: #000000; stroke-width: 0.8; stroke-linejoin: miter; stroke-linecap: square"/>
   </g>
   <g id="patch_11">
    <path d="M 20.5625 684.92 
L 702.136136 684.92 
" style="fill: none; stroke: #000000; stroke-width: 0.8; stroke-linejoin: miter; stroke-linecap: square"/>
   </g>
   <g id="patch_12">
    <path d="M 20.5625 386.16 
L 702.136136 386.16 
" style="fill: none; stroke: #000000; stroke-width: 0.8; stroke-linejoin: miter; stroke-linecap: square"/>
   </g>
   <g id="text_32">
    <!-- 2 transformation(s) -->
    <g transform="translate(303.234631 380.16) scale(0.12 -0.12)">
     <use xlink:href="#DejaVuSans-32"/>
     <use xlink:href="#DejaVuSans-20" x="63.623047"/>
     <use xlink:href="#DejaVuSans-74" x="95.410156"/>
     <use xlink:href="#DejaVuSans-72" x="134.619141"/>
     <use xlink:href="#DejaVuSans-61" x="175.732422"/>
     <use xlink:href="#DejaVuSans-6e" x="237.011719"/>
     <use xlink:href="#DejaVuSans-73" x="300.390625"/>
     <use xlink:href="#DejaVuSans-66" x="352.490234"/>
     <use xlink:href="#DejaVuSans-6f" x="387.695312"/>
     <use xlink:href="#DejaVuSans-72" x="448.876953"/>
     <use xlink:href="#DejaVuSans-6d" x="488.240234"/>
     <use xlink:href="#DejaVuSans-61" x="585.652344"/>
     <use xlink:href="#DejaVuSans-74" x="646.931641"/>
     <use xlink:href="#DejaVuSans-69" x="686.140625"/>
     <use xlink:href="#DejaVuSans-6f" x="713.923828"/>
     <use xlink:href="#DejaVuSans-6e" x="775.105469"/>
     <use xlink:href="#DejaVuSans-28" x="838.484375"/>
     <use xlink:href="#DejaVuSans-73" x="877.498047"/>
     <use xlink:href="#DejaVuSans-29" x="929.597656"/>
    </g>
   </g>
  </g>
  <g id="text_33">
   <!-- training -->
   <g transform="translate(333.129063 16.318125) scale(0.12 -0.12)">
    <defs>
     <path id="DejaVuSans-67" d="M 2906 1791 
Q 2906 2416 2648 2759 
Q 2391 3103 1925 3103 
Q 1463 3103 1205 2759 
Q 947 2416 947 1791 
Q 947 1169 1205 825 
Q 1463 481 1925 481 
Q 2391 481 2648 825 
Q 2906 1169 2906 1791 
z
M 3481 434 
Q 3481 -459 3084 -895 
Q 2688 -1331 1869 -1331 
Q 1566 -1331 1297 -1286 
Q 1028 -1241 775 -1147 
L 775 -588 
Q 1028 -725 1275 -790 
Q 1522 -856 1778 -856 
Q 2344 -856 2625 -561 
Q 2906 -266 2906 331 
L 2906 616 
Q 2728 306 2450 153 
Q 2172 0 1784 0 
Q 1141 0 747 490 
Q 353 981 353 1791 
Q 353 2603 747 3093 
Q 1141 3584 1784 3584 
Q 2172 3584 2450 3431 
Q 2728 3278 2906 2969 
L 2906 3500 
L 3481 3500 
L 3481 434 
z
" transform="scale(0.015625)"/>
    </defs>
    <use xlink:href="#DejaVuSans-74"/>
    <use xlink:href="#DejaVuSans-72" x="39.208984"/>
    <use xlink:href="#DejaVuSans-61" x="80.322266"/>
    <use xlink:href="#DejaVuSans-69" x="141.601562"/>
    <use xlink:href="#DejaVuSans-6e" x="169.384766"/>
    <use xlink:href="#DejaVuSans-69" x="232.763672"/>
    <use xlink:href="#DejaVuSans-6e" x="260.546875"/>
    <use xlink:href="#DejaVuSans-67" x="323.925781"/>
   </g>
  </g>
 </g>
 <defs>
  <clipPath id="p42d842427b">
   <rect x="20.5625" y="43.44" width="681.573636" height="298.76"/>
  </clipPath>
  <clipPath id="p8acf8990a3">
   <rect x="20.5625" y="386.16" width="681.573636" height="298.76"/>
  </clipPath>
 </defs>
</svg>
