<?xml version="1.0" encoding="utf-8" standalone="no"?>
<!DOCTYPE svg PUBLIC "-//W3C//DTD SVG 1.1//EN"
  "http://www.w3.org/Graphics/SVG/1.1/DTD/svg11.dtd">
<svg xmlns:xlink="http://www.w3.org/1999/xlink" width="709.336136pt" height="708.798125pt" viewBox="0 0 709.336136 708.798125" xmlns="http://www.w3.org/2000/svg" version="1.1">
 <metadata>
  <rdf:RDF xmlns:dc="http://purl.org/dc/elements/1.1/" xmlns:cc="http://creativecommons.org/ns#" xmlns:rdf="http://www.w3.org/1999/02/22-rdf-syntax-ns#">
   <cc:Work>
    <dc:type rdf:resource="http://purl.org/dc/dcmitype/StillImage"/>
    <dc:date>2023-05-25T04:46:39.610135</dc:date>
    <dc:format>image/svg+xml</dc:format>
    <dc:creator>
     <cc:Agent>
      <dc:title>Matplotlib v3.7.1, https://matplotlib.org/</dc:title>
     </cc:Agent>
    </dc:creator>
   </cc:Work>
  </rdf:RDF>
 </metadata>
 <defs>
  <style type="text/css">*{stroke-linejoin: round; stroke-linecap: butt}</style>
 </defs>
 <g id="figure_1">
  <g id="patch_1">
   <path d="M 0 708.798125 
L 709.336136 708.798125 
L 709.336136 0 
L 0 0 
z
" style="fill: #ffffff"/>
  </g>
  <g id="axes_1">
   <g id="patch_2">
    <path d="M 20.5625 342.2 
L 702.136136 342.2 
L 702.136136 43.44 
L 20.5625 43.44 
z
" style="fill: #ffffff"/>
   </g>
   <g id="matplotlib.axis_1">
    <g id="xtick_1">
     <g id="line2d_1">
      <defs>
       <path id="ma628b36a98" d="M 0 0 
L 0 3.5 
" style="stroke: #000000; stroke-width: 0.8"/>
      </defs>
      <g>
       <use xlink:href="#ma628b36a98" x="51.370957" y="342.2" style="stroke: #000000; stroke-width: 0.8"/>
      </g>
     </g>
     <g id="text_1">
      <!-- 2014-07-01 -->
      <g transform="translate(22.313145 356.798437) scale(0.1 -0.1)">
       <defs>
        <path id="DejaVuSans-32" d="M 1228 531 
L 3431 531 
L 3431 0 
L 469 0 
L 469 531 
Q 828 903 1448 1529 
Q 2069 2156 2228 2338 
Q 2531 2678 2651 2914 
Q 2772 3150 2772 3378 
Q 2772 3750 2511 3984 
Q 2250 4219 1831 4219 
Q 1534 4219 1204 4116 
Q 875 4013 500 3803 
L 500 4441 
Q 881 4594 1212 4672 
Q 1544 4750 1819 4750 
Q 2544 4750 2975 4387 
Q 3406 4025 3406 3419 
Q 3406 3131 3298 2873 
Q 3191 2616 2906 2266 
Q 2828 2175 2409 1742 
Q 1991 1309 1228 531 
z
" transform="scale(0.015625)"/>
        <path id="DejaVuSans-30" d="M 2034 4250 
Q 1547 4250 1301 3770 
Q 1056 3291 1056 2328 
Q 1056 1369 1301 889 
Q 1547 409 2034 409 
Q 2525 409 2770 889 
Q 3016 1369 3016 2328 
Q 3016 3291 2770 3770 
Q 2525 4250 2034 4250 
z
M 2034 4750 
Q 2819 4750 3233 4129 
Q 3647 3509 3647 2328 
Q 3647 1150 3233 529 
Q 2819 -91 2034 -91 
Q 1250 -91 836 529 
Q 422 1150 422 2328 
Q 422 3509 836 4129 
Q 1250 4750 2034 4750 
z
" transform="scale(0.015625)"/>
        <path id="DejaVuSans-31" d="M 794 531 
L 1825 531 
L 1825 4091 
L 703 3866 
L 703 4441 
L 1819 4666 
L 2450 4666 
L 2450 531 
L 3481 531 
L 3481 0 
L 794 0 
L 794 531 
z
" transform="scale(0.015625)"/>
        <path id="DejaVuSans-34" d="M 2419 4116 
L 825 1625 
L 2419 1625 
L 2419 4116 
z
M 2253 4666 
L 3047 4666 
L 3047 1625 
L 3713 1625 
L 3713 1100 
L 3047 1100 
L 3047 0 
L 2419 0 
L 2419 1100 
L 313 1100 
L 313 1709 
L 2253 4666 
z
" transform="scale(0.015625)"/>
        <path id="DejaVuSans-2d" d="M 313 2009 
L 1997 2009 
L 1997 1497 
L 313 1497 
L 313 2009 
z
" transform="scale(0.015625)"/>
        <path id="DejaVuSans-37" d="M 525 4666 
L 3525 4666 
L 3525 4397 
L 1831 0 
L 1172 0 
L 2766 4134 
L 525 4134 
L 525 4666 
z
" transform="scale(0.015625)"/>
       </defs>
       <use xlink:href="#DejaVuSans-32"/>
       <use xlink:href="#DejaVuSans-30" x="63.623047"/>
       <use xlink:href="#DejaVuSans-31" x="127.246094"/>
       <use xlink:href="#DejaVuSans-34" x="190.869141"/>
       <use xlink:href="#DejaVuSans-2d" x="254.492188"/>
       <use xlink:href="#DejaVuSans-30" x="290.576172"/>
       <use xlink:href="#DejaVuSans-37" x="354.199219"/>
       <use xlink:href="#DejaVuSans-2d" x="417.822266"/>
       <use xlink:href="#DejaVuSans-30" x="453.90625"/>
       <use xlink:href="#DejaVuSans-31" x="517.529297"/>
      </g>
     </g>
    </g>
    <g id="xtick_2">
     <g id="line2d_2">
      <g>
       <use xlink:href="#ma628b36a98" x="175.327869" y="342.2" style="stroke: #000000; stroke-width: 0.8"/>
      </g>
     </g>
     <g id="text_2">
      <!-- 2014-07-02 -->
      <g transform="translate(146.270057 356.798437) scale(0.1 -0.1)">
       <use xlink:href="#DejaVuSans-32"/>
       <use xlink:href="#DejaVuSans-30" x="63.623047"/>
       <use xlink:href="#DejaVuSans-31" x="127.246094"/>
       <use xlink:href="#DejaVuSans-34" x="190.869141"/>
       <use xlink:href="#DejaVuSans-2d" x="254.492188"/>
       <use xlink:href="#DejaVuSans-30" x="290.576172"/>
       <use xlink:href="#DejaVuSans-37" x="354.199219"/>
       <use xlink:href="#DejaVuSans-2d" x="417.822266"/>
       <use xlink:href="#DejaVuSans-30" x="453.90625"/>
       <use xlink:href="#DejaVuSans-32" x="517.529297"/>
      </g>
     </g>
    </g>
    <g id="xtick_3">
     <g id="line2d_3">
      <g>
       <use xlink:href="#ma628b36a98" x="299.284781" y="342.2" style="stroke: #000000; stroke-width: 0.8"/>
      </g>
     </g>
     <g id="text_3">
      <!-- 2014-07-03 -->
      <g transform="translate(270.226969 356.798437) scale(0.1 -0.1)">
       <defs>
        <path id="DejaVuSans-33" d="M 2597 2516 
Q 3050 2419 3304 2112 
Q 3559 1806 3559 1356 
Q 3559 666 3084 287 
Q 2609 -91 1734 -91 
Q 1441 -91 1130 -33 
Q 819 25 488 141 
L 488 750 
Q 750 597 1062 519 
Q 1375 441 1716 441 
Q 2309 441 2620 675 
Q 2931 909 2931 1356 
Q 2931 1769 2642 2001 
Q 2353 2234 1838 2234 
L 1294 2234 
L 1294 2753 
L 1863 2753 
Q 2328 2753 2575 2939 
Q 2822 3125 2822 3475 
Q 2822 3834 2567 4026 
Q 2313 4219 1838 4219 
Q 1578 4219 1281 4162 
Q 984 4106 628 3988 
L 628 4550 
Q 988 4650 1302 4700 
Q 1616 4750 1894 4750 
Q 2613 4750 3031 4423 
Q 3450 4097 3450 3541 
Q 3450 3153 3228 2886 
Q 3006 2619 2597 2516 
z
" transform="scale(0.015625)"/>
       </defs>
       <use xlink:href="#DejaVuSans-32"/>
       <use xlink:href="#DejaVuSans-30" x="63.623047"/>
       <use xlink:href="#DejaVuSans-31" x="127.246094"/>
       <use xlink:href="#DejaVuSans-34" x="190.869141"/>
       <use xlink:href="#DejaVuSans-2d" x="254.492188"/>
       <use xlink:href="#DejaVuSans-30" x="290.576172"/>
       <use xlink:href="#DejaVuSans-37" x="354.199219"/>
       <use xlink:href="#DejaVuSans-2d" x="417.822266"/>
       <use xlink:href="#DejaVuSans-30" x="453.90625"/>
       <use xlink:href="#DejaVuSans-33" x="517.529297"/>
      </g>
     </g>
    </g>
    <g id="xtick_4">
     <g id="line2d_4">
      <g>
       <use xlink:href="#ma628b36a98" x="423.241693" y="342.2" style="stroke: #000000; stroke-width: 0.8"/>
      </g>
     </g>
     <g id="text_4">
      <!-- 2014-07-04 -->
      <g transform="translate(394.18388 356.798437) scale(0.1 -0.1)">
       <use xlink:href="#DejaVuSans-32"/>
       <use xlink:href="#DejaVuSans-30" x="63.623047"/>
       <use xlink:href="#DejaVuSans-31" x="127.246094"/>
       <use xlink:href="#DejaVuSans-34" x="190.869141"/>
       <use xlink:href="#DejaVuSans-2d" x="254.492188"/>
       <use xlink:href="#DejaVuSans-30" x="290.576172"/>
       <use xlink:href="#DejaVuSans-37" x="354.199219"/>
       <use xlink:href="#DejaVuSans-2d" x="417.822266"/>
       <use xlink:href="#DejaVuSans-30" x="453.90625"/>
       <use xlink:href="#DejaVuSans-34" x="517.529297"/>
      </g>
     </g>
    </g>
    <g id="xtick_5">
     <g id="line2d_5">
      <g>
       <use xlink:href="#ma628b36a98" x="547.198605" y="342.2" style="stroke: #000000; stroke-width: 0.8"/>
      </g>
     </g>
     <g id="text_5">
      <!-- 2014-07-05 -->
      <g transform="translate(518.140792 356.798437) scale(0.1 -0.1)">
       <defs>
        <path id="DejaVuSans-35" d="M 691 4666 
L 3169 4666 
L 3169 4134 
L 1269 4134 
L 1269 2991 
Q 1406 3038 1543 3061 
Q 1681 3084 1819 3084 
Q 2600 3084 3056 2656 
Q 3513 2228 3513 1497 
Q 3513 744 3044 326 
Q 2575 -91 1722 -91 
Q 1428 -91 1123 -41 
Q 819 9 494 109 
L 494 744 
Q 775 591 1075 516 
Q 1375 441 1709 441 
Q 2250 441 2565 725 
Q 2881 1009 2881 1497 
Q 2881 1984 2565 2268 
Q 2250 2553 1709 2553 
Q 1456 2553 1204 2497 
Q 953 2441 691 2322 
L 691 4666 
z
" transform="scale(0.015625)"/>
       </defs>
       <use xlink:href="#DejaVuSans-32"/>
       <use xlink:href="#DejaVuSans-30" x="63.623047"/>
       <use xlink:href="#DejaVuSans-31" x="127.246094"/>
       <use xlink:href="#DejaVuSans-34" x="190.869141"/>
       <use xlink:href="#DejaVuSans-2d" x="254.492188"/>
       <use xlink:href="#DejaVuSans-30" x="290.576172"/>
       <use xlink:href="#DejaVuSans-37" x="354.199219"/>
       <use xlink:href="#DejaVuSans-2d" x="417.822266"/>
       <use xlink:href="#DejaVuSans-30" x="453.90625"/>
       <use xlink:href="#DejaVuSans-35" x="517.529297"/>
      </g>
     </g>
    </g>
    <g id="xtick_6">
     <g id="line2d_6">
      <g>
       <use xlink:href="#ma628b36a98" x="671.155517" y="342.2" style="stroke: #000000; stroke-width: 0.8"/>
      </g>
     </g>
     <g id="text_6">
      <!-- 2014-07-06 -->
      <g transform="translate(642.097704 356.798437) scale(0.1 -0.1)">
       <defs>
        <path id="DejaVuSans-36" d="M 2113 2584 
Q 1688 2584 1439 2293 
Q 1191 2003 1191 1497 
Q 1191 994 1439 701 
Q 1688 409 2113 409 
Q 2538 409 2786 701 
Q 3034 994 3034 1497 
Q 3034 2003 2786 2293 
Q 2538 2584 2113 2584 
z
M 3366 4563 
L 3366 3988 
Q 3128 4100 2886 4159 
Q 2644 4219 2406 4219 
Q 1781 4219 1451 3797 
Q 1122 3375 1075 2522 
Q 1259 2794 1537 2939 
Q 1816 3084 2150 3084 
Q 2853 3084 3261 2657 
Q 3669 2231 3669 1497 
Q 3669 778 3244 343 
Q 2819 -91 2113 -91 
Q 1303 -91 875 529 
Q 447 1150 447 2328 
Q 447 3434 972 4092 
Q 1497 4750 2381 4750 
Q 2619 4750 2861 4703 
Q 3103 4656 3366 4563 
z
" transform="scale(0.015625)"/>
       </defs>
       <use xlink:href="#DejaVuSans-32"/>
       <use xlink:href="#DejaVuSans-30" x="63.623047"/>
       <use xlink:href="#DejaVuSans-31" x="127.246094"/>
       <use xlink:href="#DejaVuSans-34" x="190.869141"/>
       <use xlink:href="#DejaVuSans-2d" x="254.492188"/>
       <use xlink:href="#DejaVuSans-30" x="290.576172"/>
       <use xlink:href="#DejaVuSans-37" x="354.199219"/>
       <use xlink:href="#DejaVuSans-2d" x="417.822266"/>
       <use xlink:href="#DejaVuSans-30" x="453.90625"/>
       <use xlink:href="#DejaVuSans-36" x="517.529297"/>
      </g>
     </g>
    </g>
   </g>
   <g id="matplotlib.axis_2">
    <g id="ytick_1">
     <g id="line2d_7">
      <defs>
       <path id="mb797f546f2" d="M 0 0 
L -3.5 0 
" style="stroke: #000000; stroke-width: 0.8"/>
      </defs>
      <g>
       <use xlink:href="#mb797f546f2" x="20.5625" y="325.793237" style="stroke: #000000; stroke-width: 0.8"/>
      </g>
     </g>
     <g id="text_7">
      <!-- 0 -->
      <g transform="translate(7.2 329.592456) scale(0.1 -0.1)">
       <use xlink:href="#DejaVuSans-30"/>
      </g>
     </g>
    </g>
    <g id="ytick_2">
     <g id="line2d_8">
      <g>
       <use xlink:href="#mb797f546f2" x="20.5625" y="284.078487" style="stroke: #000000; stroke-width: 0.8"/>
      </g>
     </g>
     <g id="text_8">
      <!-- 1 -->
      <g transform="translate(7.2 287.877706) scale(0.1 -0.1)">
       <use xlink:href="#DejaVuSans-31"/>
      </g>
     </g>
    </g>
    <g id="ytick_3">
     <g id="line2d_9">
      <g>
       <use xlink:href="#mb797f546f2" x="20.5625" y="242.363738" style="stroke: #000000; stroke-width: 0.8"/>
      </g>
     </g>
     <g id="text_9">
      <!-- 2 -->
      <g transform="translate(7.2 246.162956) scale(0.1 -0.1)">
       <use xlink:href="#DejaVuSans-32"/>
      </g>
     </g>
    </g>
    <g id="ytick_4">
     <g id="line2d_10">
      <g>
       <use xlink:href="#mb797f546f2" x="20.5625" y="200.648988" style="stroke: #000000; stroke-width: 0.8"/>
      </g>
     </g>
     <g id="text_10">
      <!-- 3 -->
      <g transform="translate(7.2 204.448207) scale(0.1 -0.1)">
       <use xlink:href="#DejaVuSans-33"/>
      </g>
     </g>
    </g>
    <g id="ytick_5">
     <g id="line2d_11">
      <g>
       <use xlink:href="#mb797f546f2" x="20.5625" y="158.934239" style="stroke: #000000; stroke-width: 0.8"/>
      </g>
     </g>
     <g id="text_11">
      <!-- 4 -->
      <g transform="translate(7.2 162.733457) scale(0.1 -0.1)">
       <use xlink:href="#DejaVuSans-34"/>
      </g>
     </g>
    </g>
    <g id="ytick_6">
     <g id="line2d_12">
      <g>
       <use xlink:href="#mb797f546f2" x="20.5625" y="117.219489" style="stroke: #000000; stroke-width: 0.8"/>
      </g>
     </g>
     <g id="text_12">
      <!-- 5 -->
      <g transform="translate(7.2 121.018708) scale(0.1 -0.1)">
       <use xlink:href="#DejaVuSans-35"/>
      </g>
     </g>
    </g>
    <g id="ytick_7">
     <g id="line2d_13">
      <g>
       <use xlink:href="#mb797f546f2" x="20.5625" y="75.504739" style="stroke: #000000; stroke-width: 0.8"/>
      </g>
     </g>
     <g id="text_13">
      <!-- 6 -->
      <g transform="translate(7.2 79.303958) scale(0.1 -0.1)">
       <use xlink:href="#DejaVuSans-36"/>
      </g>
     </g>
    </g>
   </g>
   <g id="line2d_14">
    <path d="M 51.54312 325.793237 
L 56.191504 325.706017 
L 56.62191 325.158007 
L 56.966235 324.300591 
L 57.568803 321.849002 
L 58.343534 318.647472 
L 58.601777 317.983623 
L 58.77394 318.086246 
L 59.290427 318.4684 
L 59.634752 318.22748 
L 60.151239 317.948663 
L 60.581645 317.96765 
L 61.012051 318.205818 
L 61.614619 318.80972 
L 63.422324 320.894606 
L 64.283136 321.390945 
L 65.488272 321.811727 
L 66.00476 321.784967 
L 66.435165 321.547181 
L 66.865571 320.988004 
L 67.382059 319.819491 
L 68.070708 317.762967 
L 68.673276 315.526566 
L 69.189764 312.57906 
L 70.653144 302.363139 
L 71.341793 299.795981 
L 72.202605 297.40382 
L 73.407742 290.798459 
L 74.785041 286.45431 
L 75.129366 285.62071 
L 76.248421 283.126378 
L 77.195314 282.758531 
L 77.453558 282.436374 
L 77.62572 282.493163 
L 78.744775 281.235108 
L 78.916938 281.170338 
L 79.175181 281.01272 
L 79.433425 281.364719 
L 80.035993 283.075014 
L 80.638562 285.526632 
L 80.724643 285.886838 
L 80.810724 285.771335 
L 81.068968 282.45724 
L 81.499374 277.274806 
L 81.757617 276.220641 
L 81.929779 276.207791 
L 82.101942 276.679574 
L 82.360185 278.21437 
L 82.790591 282.895974 
L 84.426134 303.045443 
L 84.512215 303.194064 
L 84.684378 299.064897 
L 85.028702 275.007699 
L 85.286946 257.874607 
L 85.631271 250.441426 
L 85.975595 232.348796 
L 86.233839 222.954935 
L 86.492082 205.906953 
L 86.836407 194.009643 
L 87.094651 172.87238 
L 87.352894 166.052383 
L 87.525057 139.549365 
L 87.7833 109.8097 
L 87.869381 110.471299 
L 88.213706 69.69752 
L 88.299787 68.770374 
L 88.385869 68.952756 
L 88.47195 69.505551 
L 88.558031 75.17214 
L 88.730193 63.929586 
L 88.902356 57.02 
L 89.246681 68.461604 
L 89.504924 58.613082 
L 89.591005 60.668533 
L 89.849249 72.253154 
L 90.021411 66.005207 
L 90.107492 65.577687 
L 90.451817 82.491265 
L 90.62398 74.65316 
L 90.710061 74.44112 
L 90.968304 92.042156 
L 91.054385 91.35623 
L 91.226548 85.080853 
L 91.484791 99.825281 
L 91.743035 113.610719 
L 91.829116 110.354897 
L 92.001279 113.473589 
L 92.345603 134.015411 
L 92.431684 132.72728 
L 92.603847 140.980533 
L 92.948172 161.950671 
L 93.034253 162.147832 
L 93.206415 165.319723 
L 93.55074 173.829572 
L 93.722902 174.894643 
L 94.928039 194.215844 
L 95.01412 194.191398 
L 95.530607 200.442816 
L 95.616688 199.988453 
L 95.788851 201.283496 
L 96.133176 203.795866 
L 96.305338 202.193207 
L 96.649663 204.196792 
L 96.735744 202.747524 
L 96.907906 197.203952 
L 96.993987 196.939519 
L 97.080069 196.075895 
L 97.16615 196.178941 
L 97.252231 195.925269 
L 97.338312 190.41595 
L 97.596556 167.838538 
L 97.768718 163.340743 
L 97.940881 155.956037 
L 98.113043 152.861771 
L 98.285205 153.377946 
L 98.457368 157.885558 
L 98.973855 171.273838 
L 99.834667 190.714536 
L 101.039803 210.245619 
L 101.900615 218.665977 
L 102.589265 223.352311 
L 103.363995 227.277728 
L 104.138726 230.306264 
L 104.913457 232.763984 
L 105.343863 234.185375 
L 105.688188 236.64768 
L 105.946431 238.899974 
L 106.721162 244.173598 
L 108.01238 251.472593 
L 108.356704 253.163768 
L 109.820085 265.480895 
L 110.680897 269.166172 
L 111.541708 271.75772 
L 112.316439 273.57948 
L 112.919007 274.846297 
L 113.607657 276.206647 
L 113.779819 275.986378 
L 114.468469 274.401725 
L 114.898875 274.233252 
L 115.157118 274.362345 
L 115.587524 274.940248 
L 116.620499 277.270197 
L 116.878742 278.960979 
L 117.223067 283.565286 
L 118.342122 300.730134 
L 118.944691 306.35098 
L 119.289015 307.764567 
L 119.547259 308.077948 
L 120.32199 308.350373 
L 120.838477 308.30976 
L 122.646182 307.261152 
L 122.990507 307.09783 
L 123.334831 306.955325 
L 124.281724 306.393105 
L 125.659023 305.080319 
L 125.917267 304.848766 
L 126.347673 304.649183 
L 127.294566 303.982271 
L 128.069297 303.067236 
L 128.413621 302.689511 
L 128.671865 302.387568 
L 128.930109 302.076848 
L 129.877002 301.611597 
L 130.393489 301.017595 
L 131.082138 300.240727 
L 131.254301 300.27947 
L 131.598625 300.861293 
L 132.029031 302.12962 
L 133.320249 307.01174 
L 134.267142 310.047275 
L 135.127954 312.195563 
L 136.160928 314.130405 
L 137.882552 316.663881 
L 139.17377 317.981708 
L 139.948501 318.569392 
L 140.120663 318.543219 
L 140.378907 318.169418 
L 140.63715 317.18466 
L 140.981475 314.334407 
L 141.584043 308.959743 
L 141.928368 307.588826 
L 142.186612 307.148953 
L 142.358774 307.15842 
L 142.617018 307.535168 
L 143.133505 309.107414 
L 143.563911 310.165904 
L 143.822154 310.294512 
L 144.166479 310.212582 
L 145.285534 309.415515 
L 145.629859 309.463521 
L 146.318509 309.806816 
L 146.662833 309.449085 
L 147.179321 308.00994 
L 147.695808 306.643473 
L 147.954051 306.49628 
L 148.212295 306.574003 
L 148.642701 306.913872 
L 148.987026 307.070137 
L 149.503513 307.626272 
L 149.761756 307.951639 
L 149.933919 307.897398 
L 150.450406 307.504177 
L 150.622568 307.56026 
L 150.966893 308.07595 
L 151.311218 308.46157 
L 151.569461 308.571239 
L 151.741624 308.283152 
L 152.172029 306.990079 
L 152.516354 306.224586 
L 152.94676 306.025657 
L 153.291085 305.933686 
L 154.065816 306.024583 
L 154.41014 306.535371 
L 155.959602 309.854099 
L 156.131764 309.809576 
L 156.648251 309.002451 
L 156.992576 308.631828 
L 157.25082 308.511536 
L 157.595144 307.760495 
L 158.02555 307.061996 
L 158.197713 307.052794 
L 158.455956 307.354329 
L 158.886362 308.218931 
L 159.488931 309.385808 
L 159.661093 309.472764 
L 159.833255 309.177495 
L 161.124473 305.812334 
L 162.071366 303.951173 
L 162.243529 303.961256 
L 162.415691 304.23089 
L 163.362584 306.36263 
L 164.395558 308.20619 
L 164.653802 308.152521 
L 165.342451 307.362481 
L 165.514614 307.38144 
L 165.772857 307.684755 
L 166.375426 308.891712 
L 166.71975 309.434854 
L 167.064075 309.593487 
L 167.322319 309.516554 
L 167.752725 309.225132 
L 168.097049 308.355928 
L 168.441374 307.733303 
L 168.613537 307.687712 
L 169.130024 307.953945 
L 169.646511 307.50263 
L 170.593404 305.663357 
L 170.851647 305.56953 
L 171.02381 305.678793 
L 171.368135 306.369754 
L 171.884622 307.245267 
L 172.831515 308.890436 
L 173.606245 310.415767 
L 173.864489 310.563909 
L 174.036651 310.435431 
L 174.467057 309.451128 
L 175.241788 307.065996 
L 175.672194 305.876481 
L 175.930438 305.730099 
L 176.1026 305.918473 
L 176.533006 306.579625 
L 176.963412 306.820711 
L 177.135574 306.64899 
L 177.738143 305.382371 
L 178.168549 304.346945 
L 178.512873 303.951561 
L 179.71801 304.324398 
L 180.750984 305.350198 
L 181.525715 304.5388 
L 181.783958 304.945331 
L 182.472608 306.281192 
L 182.816933 306.581368 
L 183.849907 307.204822 
L 184.194232 307.797121 
L 184.538556 308.404075 
L 184.882881 308.458851 
L 185.313287 308.517784 
L 185.571531 308.771644 
L 186.432343 310.110473 
L 186.604505 309.873024 
L 186.94883 308.89094 
L 187.809642 305.398902 
L 187.981804 305.655557 
L 188.670454 307.313397 
L 189.014778 307.747378 
L 189.703428 308.117153 
L 189.961671 308.171231 
L 190.133834 307.916443 
L 190.994646 305.669087 
L 191.166808 305.639764 
L 191.33897 305.78019 
L 191.597214 306.324897 
L 192.630188 309.733865 
L 193.491 312.106452 
L 194.523974 314.102831 
L 195.815192 316.144241 
L 196.934248 317.407066 
L 198.655871 318.867743 
L 200.03317 319.708776 
L 201.066145 320.186931 
L 201.152226 320.1113 
L 201.238307 319.806626 
L 201.410469 317.344684 
L 201.754794 301.923746 
L 202.099119 285.651934 
L 202.529525 275.477095 
L 202.87385 272.213202 
L 203.132093 268.196917 
L 203.390337 269.327395 
L 203.562499 267.363632 
L 203.820743 265.148599 
L 203.992905 265.231068 
L 204.423311 263.041734 
L 204.595473 263.276266 
L 204.939798 262.052766 
L 205.111961 262.124559 
L 205.198042 262.201488 
L 205.456285 261.609577 
L 205.542367 261.641298 
L 205.80061 262.225581 
L 205.886691 262.128039 
L 205.972772 262.025993 
L 206.144935 262.324892 
L 206.661422 264.274045 
L 207.005747 266.277625 
L 208.038721 272.538387 
L 209.243858 279.970822 
L 209.674264 282.683676 
L 210.535075 287.74074 
L 211.395887 291.817557 
L 211.654131 292.680243 
L 211.826293 292.409383 
L 212.170618 291.533993 
L 212.514943 288.372823 
L 213.117511 281.751119 
L 213.375755 278.148177 
L 213.978323 256.204154 
L 214.236567 243.908723 
L 214.666973 233.465783 
L 215.011297 229.933723 
L 215.18346 229.208004 
L 215.269541 229.194608 
L 215.441703 229.548203 
L 215.95819 231.888595 
L 216.388596 234.552705 
L 216.560759 237.64173 
L 216.991165 245.593443 
L 218.282382 270.307606 
L 219.057113 286.376695 
L 219.917925 299.851696 
L 220.692656 308.992602 
L 221.036981 311.392404 
L 221.467386 312.833746 
L 222.156036 314.270468 
L 223.016848 315.722522 
L 223.963741 316.913552 
L 225.427121 318.328806 
L 226.718339 319.246555 
L 227.320907 319.47004 
L 227.751313 319.411558 
L 228.009557 319.150389 
L 228.353882 318.294977 
L 228.698206 316.860493 
L 229.817262 311.436331 
L 230.075505 311.055966 
L 230.333749 311.002591 
L 231.194561 311.141286 
L 231.797129 310.62336 
L 232.313616 309.613624 
L 233.174428 306.950171 
L 233.518753 306.824147 
L 233.863078 306.828381 
L 234.03524 306.761758 
L 234.293484 306.142992 
L 235.670783 302.650052 
L 236.101189 302.339712 
L 236.445513 302.522696 
L 236.703757 302.857827 
L 237.65065 305.386574 
L 238.167137 306.499717 
L 238.425381 306.752432 
L 238.683624 306.577077 
L 238.941868 306.319517 
L 239.974842 304.215447 
L 240.233086 304.328876 
L 240.491329 304.826215 
L 241.007816 306.134615 
L 241.26606 306.213931 
L 241.524303 306.104766 
L 241.868628 305.828715 
L 242.212953 305.93601 
L 242.471197 306.303965 
L 242.72944 306.658604 
L 242.901602 306.502102 
L 243.332008 305.598977 
L 243.762414 304.329819 
L 244.020658 304.097058 
L 244.19282 304.268097 
L 244.795389 305.316646 
L 245.053632 305.298526 
L 245.225795 305.046759 
L 245.828363 303.529208 
L 246.000525 303.457269 
L 246.172688 303.674087 
L 246.603094 304.79228 
L 247.80823 308.418477 
L 247.980393 308.337961 
L 248.49688 307.936473 
L 248.669042 308.013922 
L 249.013367 308.547795 
L 249.529854 309.474504 
L 249.702016 309.428771 
L 250.046341 308.908128 
L 250.304585 308.240061 
L 250.993234 306.114692 
L 251.165397 305.927903 
L 251.509721 306.01043 
L 251.767965 306.139846 
L 252.11229 306.341445 
L 252.456614 306.431902 
L 253.059183 306.717312 
L 253.317426 306.83462 
L 253.57567 306.408975 
L 254.006076 305.423641 
L 254.350401 304.689461 
L 254.780806 304.374027 
L 255.297294 304.581807 
L 256.072024 305.008429 
L 256.50243 305.680015 
L 257.104999 306.743324 
L 257.535405 306.35608 
L 257.793648 306.241614 
L 258.051892 306.489482 
L 259.515272 308.851099 
L 259.687434 308.638251 
L 260.720409 306.30846 
L 260.978652 306.238189 
L 261.322977 306.371381 
L 262.183789 305.453505 
L 262.442032 305.806169 
L 262.700276 306.095736 
L 263.130682 306.20416 
L 263.388925 305.911151 
L 263.819331 305.320756 
L 264.938387 301.93853 
L 265.110549 301.935907 
L 265.368793 302.520769 
L 267.434741 308.753273 
L 267.606904 308.795984 
L 267.865147 308.489975 
L 269.070284 306.576643 
L 269.50069 305.162029 
L 270.017177 303.192033 
L 270.27542 302.755736 
L 270.533664 302.914251 
L 270.791908 303.397705 
L 271.997044 306.950365 
L 272.341369 307.025172 
L 272.685694 307.167916 
L 273.202181 307.71031 
L 273.460424 307.230652 
L 273.718668 306.473248 
L 274.321236 304.477722 
L 274.493399 304.398478 
L 274.665561 304.604826 
L 275.268129 305.718504 
L 275.526373 305.924776 
L 275.698535 305.724151 
L 276.215022 304.823517 
L 276.473266 304.691649 
L 276.817591 304.823102 
L 277.678403 303.720337 
L 277.936646 303.97282 
L 278.19489 304.557515 
L 280.433001 312.075007 
L 281.293813 313.823266 
L 282.671112 316.067153 
L 283.876248 317.429031 
L 285.167466 318.57762 
L 286.544765 319.487667 
L 286.803009 319.541502 
L 286.975171 319.364636 
L 287.147333 318.881302 
L 287.491658 316.798912 
L 287.922064 313.854244 
L 288.180308 313.055358 
L 288.438551 312.831025 
L 288.696795 312.989873 
L 289.127201 313.726811 
L 290.676662 316.945851 
L 291.451393 317.827359 
L 292.312205 318.550326 
L 292.570448 318.585255 
L 292.828692 318.30904 
L 293.345179 317.094714 
L 293.775585 316.255509 
L 294.11991 315.999707 
L 294.464235 316.069448 
L 294.89464 316.447474 
L 296.530183 318.192668 
L 296.874508 318.224773 
L 297.218833 317.990788 
L 297.477076 317.56886 
L 297.907482 316.340729 
L 298.51005 313.615933 
L 299.887349 307.445812 
L 300.748161 304.607952 
L 301.608973 302.06649 
L 301.953298 301.090153 
L 302.211542 300.465159 
L 302.555866 299.635658 
L 302.728029 299.442505 
L 302.900191 298.865346 
L 304.535734 289.082753 
L 305.052221 287.187903 
L 305.310464 286.36067 
L 305.568708 285.620019 
L 305.913033 285.359417 
L 306.257357 284.842807 
L 306.42952 284.710016 
L 306.859926 283.920273 
L 307.032088 283.787296 
L 307.376413 283.014555 
L 307.548575 282.928884 
L 308.495468 281.422413 
L 308.753712 281.435939 
L 309.011955 281.510998 
L 309.270199 281.530119 
L 309.528443 281.707085 
L 309.786686 281.665632 
L 309.958848 281.883699 
L 310.217092 282.28719 
L 310.475336 282.689001 
L 311.250066 285.415408 
L 311.336148 285.281464 
L 311.594391 281.982811 
L 312.110878 276.520962 
L 312.283041 276.01517 
L 312.455203 276.040636 
L 312.713447 276.904602 
L 313.057771 279.684927 
L 313.832502 289.624807 
L 314.779395 300.734741 
L 315.381963 305.862211 
L 315.812369 307.641879 
L 316.414938 309.118728 
L 317.017506 310.180842 
L 317.706155 311.016858 
L 318.911292 311.955239 
L 319.51386 312.18494 
L 320.20251 312.275474 
L 321.149403 312.17959 
L 321.579809 312.23479 
L 322.096296 312.543727 
L 322.871027 313.393018 
L 324.420488 315.617869 
L 325.453462 316.866967 
L 326.74468 318.081593 
L 327.43333 318.403665 
L 328.810629 318.997291 
L 331.306983 320.150565 
L 333.286851 320.796696 
L 335.783205 321.359405 
L 341.120239 322.293235 
L 348.867546 323.11821 
L 358.680801 323.877156 
L 368.321894 324.386792 
L 381.75056 324.833915 
L 400.516259 325.223954 
L 428.148321 325.52211 
L 463.785933 325.666973 
L 563.467949 325.756944 
L 671.155517 325.77838 
L 671.155517 325.77838 
" clip-path="url(#p7d8e1c50a9)" style="fill: none; stroke: #1f77b4; stroke-width: 1.5; stroke-linecap: square"/>
   </g>
   <g id="line2d_15">
    <path d="M 51.54312 325.793237 
L 53.350825 325.894983 
L 59.892995 326.879093 
L 61.7007 326.907932 
L 65.918678 326.873475 
L 68.156789 327.180853 
L 70.050575 326.921804 
L 71.255712 326.249191 
L 71.944362 325.507637 
L 73.407742 321.479461 
L 75.043284 315.345918 
L 75.47369 313.405299 
L 75.645853 312.806319 
L 76.076259 310.868074 
L 76.420583 309.747555 
L 76.764908 308.526869 
L 76.937071 308.034964 
L 77.367476 306.361027 
L 77.539639 305.871881 
L 77.970045 304.207843 
L 78.142207 303.732862 
L 78.572613 302.106641 
L 78.744775 301.685838 
L 79.0891 300.556821 
L 79.77775 299.628636 
L 80.466399 299.513302 
L 80.55248 299.549612 
L 80.638562 299.16122 
L 81.155049 293.543776 
L 81.585455 291.286426 
L 81.843698 290.884854 
L 82.015861 290.853103 
L 82.274104 291.122609 
L 82.70451 292.108652 
L 83.737484 295.383104 
L 84.253972 296.976948 
L 84.340053 296.72151 
L 84.942621 284.709807 
L 85.459108 257.943185 
L 85.631271 250.838355 
L 86.147758 217.250401 
L 87.869381 113.406459 
L 88.041544 108.631135 
L 88.385869 95.345701 
L 88.644112 92.737957 
L 88.816275 89.465251 
L 89.074518 85.907743 
L 89.160599 85.804683 
L 89.246681 86.25656 
L 89.332762 86.009581 
L 89.591005 83.598295 
L 89.677086 83.730346 
L 89.93533 85.697502 
L 90.021411 85.313863 
L 90.107492 85.246689 
L 90.279655 86.286508 
L 91.570873 102.898109 
L 92.603847 122.902107 
L 95.616688 177.860533 
L 96.305338 183.612332 
L 96.4775 184.247968 
L 96.649663 185.494196 
L 96.735744 185.325265 
L 97.080069 180.647464 
L 97.252231 180.036237 
L 97.338312 178.033529 
L 97.768718 157.527435 
L 98.113043 150.655911 
L 98.285205 149.27446 
L 98.371287 149.148403 
L 98.457368 149.34073 
L 98.801692 151.789411 
L 99.146017 156.624795 
L 100.006829 172.39732 
L 101.900615 207.343742 
L 103.105752 225.348155 
L 104.224807 238.976406 
L 105.429944 251.030776 
L 106.635081 261.009723 
L 107.926298 269.926992 
L 109.217516 277.417615 
L 110.594815 284.158584 
L 111.972114 289.867962 
L 113.349413 294.752128 
L 116.70658 303.582951 
L 118.256041 306.966384 
L 120.32199 310.700938 
L 121.78537 312.926015 
L 123.24875 314.844929 
L 125.40078 317.103645 
L 126.950241 318.409119 
L 128.413621 319.286587 
L 130.737813 320.15164 
L 131.426463 320.453913 
L 132.889843 321.434955 
L 134.267142 322.209364 
L 135.816604 322.802904 
L 137.968633 323.360277 
L 140.378907 323.983093 
L 142.444855 324.783465 
L 148.470538 326.399976 
L 151.139055 326.934544 
L 151.999867 327.00653 
L 159.230687 327.855285 
L 159.833255 327.892128 
L 162.932178 327.941421 
L 166.977994 328.254825 
L 169.130024 328.368897 
L 170.507323 328.348328 
L 174.122733 328.505341 
L 175.586113 328.500813 
L 177.307737 328.481742 
L 178.857198 328.344557 
L 182.042202 328.356397 
L 184.022069 328.461704 
L 184.7968 328.503203 
L 186.518424 328.535821 
L 187.293155 328.494056 
L 192.458026 328.61131 
L 194.17965 328.427538 
L 200.807901 327.307256 
L 200.980064 326.92026 
L 201.496551 324.882257 
L 202.701687 308.111694 
L 203.132093 299.908132 
L 203.562499 293.393342 
L 204.33723 282.649228 
L 205.628448 270.769011 
L 205.80061 270.005089 
L 206.144935 268.005051 
L 206.403178 267.641437 
L 206.919666 266.714513 
L 207.091828 266.758498 
L 207.350071 266.496535 
L 207.522234 266.669166 
L 207.694396 266.914556 
L 207.866559 266.936106 
L 208.038721 267.178225 
L 209.329939 270.469402 
L 211.395887 278.505739 
L 211.998456 279.851026 
L 212.084537 279.704379 
L 212.34278 279.442708 
L 212.514943 279.541967 
L 212.601024 279.632234 
L 212.687105 279.358864 
L 213.117511 276.062971 
L 213.203592 275.73872 
L 213.375755 271.785442 
L 213.892242 257.626502 
L 214.408729 218.400743 
L 214.839135 202.926706 
L 215.18346 198.580075 
L 215.355622 197.999642 
L 215.441703 198.059073 
L 215.613866 198.737496 
L 215.95819 201.444724 
L 216.560759 208.638994 
L 219.057113 240.380698 
L 220.26225 252.21834 
L 221.467386 261.931061 
L 222.758604 270.545324 
L 224.049822 277.736327 
L 225.427121 284.180784 
L 226.890501 289.953661 
L 228.439963 295.296738 
L 229.903343 299.673726 
L 231.711048 304.210973 
L 233.863078 308.525191 
L 234.982133 310.268219 
L 237.220244 313.32873 
L 238.511462 314.981735 
L 242.212953 318.652826 
L 247.0335 321.793784 
L 249.099448 322.922458 
L 250.046341 323.346569 
L 253.231345 324.567621 
L 254.952969 324.986002 
L 260.376084 326.343116 
L 262.183789 326.64458 
L 264.249737 326.677383 
L 264.852306 326.641516 
L 266.573929 326.948865 
L 268.381634 327.214802 
L 270.447583 327.154786 
L 273.288262 327.496522 
L 274.062993 327.475234 
L 276.387185 327.605623 
L 277.247997 327.548052 
L 278.453133 327.691903 
L 279.916514 327.756516 
L 281.982462 327.581537 
L 286.803009 327.126784 
L 288.35247 327.295432 
L 290.160175 327.236269 
L 292.828692 327.145031 
L 294.550316 327.131589 
L 297.132751 327.089598 
L 300.231674 327.384342 
L 301.178567 327.267001 
L 302.555866 326.563074 
L 303.416678 324.745029 
L 303.847084 323.519181 
L 304.793977 319.942648 
L 304.96614 319.341273 
L 305.396545 317.382631 
L 305.74087 316.177155 
L 306.171276 314.629056 
L 309.184118 303.254847 
L 309.35628 302.872642 
L 309.700605 301.814657 
L 310.733579 300.440577 
L 310.991823 300.442356 
L 311.077904 300.461392 
L 311.163985 300.048459 
L 311.680472 294.266378 
L 312.110878 292.042922 
L 312.369122 291.605901 
L 312.627365 291.597697 
L 312.885609 291.929242 
L 313.316015 292.955148 
L 314.865476 297.735958 
L 316.414938 301.98568 
L 317.878318 305.357923 
L 319.772104 309.009182 
L 321.751971 312.173181 
L 323.12927 313.932243 
L 324.678732 315.537657 
L 326.572518 317.161365 
L 328.294142 318.413271 
L 330.36009 319.635816 
L 332.684282 320.753084 
L 335.266718 321.750629 
L 338.193478 322.640122 
L 341.550645 323.418942 
L 345.424298 324.07948 
L 349.986601 324.62439 
L 355.581879 325.061253 
L 362.812698 325.392921 
L 373.05636 325.622752 
L 390.014354 325.751684 
L 434.001841 325.792168 
L 671.155517 325.793237 
L 671.155517 325.793237 
" clip-path="url(#p7d8e1c50a9)" style="fill: none; stroke: #ff7f0e; stroke-width: 1.5; stroke-linecap: square"/>
   </g>
   <g id="patch_3">
    <path d="M 20.5625 342.2 
L 20.5625 43.44 
" style="fill: none; stroke: #000000; stroke-width: 0.8; stroke-linejoin: miter; stroke-linecap: square"/>
   </g>
   <g id="patch_4">
    <path d="M 702.136136 342.2 
L 702.136136 43.44 
" style="fill: none; stroke: #000000; stroke-width: 0.8; stroke-linejoin: miter; stroke-linecap: square"/>
   </g>
   <g id="patch_5">
    <path d="M 20.5625 342.2 
L 702.136136 342.2 
" style="fill: none; stroke: #000000; stroke-width: 0.8; stroke-linejoin: miter; stroke-linecap: square"/>
   </g>
   <g id="patch_6">
    <path d="M 20.5625 43.44 
L 702.136136 43.44 
" style="fill: none; stroke: #000000; stroke-width: 0.8; stroke-linejoin: miter; stroke-linecap: square"/>
   </g>
   <g id="text_14">
    <!-- 1 transformation(s) -->
    <g transform="translate(303.234631 37.44) scale(0.12 -0.12)">
     <defs>
      <path id="DejaVuSans-20" transform="scale(0.015625)"/>
      <path id="DejaVuSans-74" d="M 1172 4494 
L 1172 3500 
L 2356 3500 
L 2356 3053 
L 1172 3053 
L 1172 1153 
Q 1172 725 1289 603 
Q 1406 481 1766 481 
L 2356 481 
L 2356 0 
L 1766 0 
Q 1100 0 847 248 
Q 594 497 594 1153 
L 594 3053 
L 172 3053 
L 172 3500 
L 594 3500 
L 594 4494 
L 1172 4494 
z
" transform="scale(0.015625)"/>
      <path id="DejaVuSans-72" d="M 2631 2963 
Q 2534 3019 2420 3045 
Q 2306 3072 2169 3072 
Q 1681 3072 1420 2755 
Q 1159 2438 1159 1844 
L 1159 0 
L 581 0 
L 581 3500 
L 1159 3500 
L 1159 2956 
Q 1341 3275 1631 3429 
Q 1922 3584 2338 3584 
Q 2397 3584 2469 3576 
Q 2541 3569 2628 3553 
L 2631 2963 
z
" transform="scale(0.015625)"/>
      <path id="DejaVuSans-61" d="M 2194 1759 
Q 1497 1759 1228 1600 
Q 959 1441 959 1056 
Q 959 750 1161 570 
Q 1363 391 1709 391 
Q 2188 391 2477 730 
Q 2766 1069 2766 1631 
L 2766 1759 
L 2194 1759 
z
M 3341 1997 
L 3341 0 
L 2766 0 
L 2766 531 
Q 2569 213 2275 61 
Q 1981 -91 1556 -91 
Q 1019 -91 701 211 
Q 384 513 384 1019 
Q 384 1609 779 1909 
Q 1175 2209 1959 2209 
L 2766 2209 
L 2766 2266 
Q 2766 2663 2505 2880 
Q 2244 3097 1772 3097 
Q 1472 3097 1187 3025 
Q 903 2953 641 2809 
L 641 3341 
Q 956 3463 1253 3523 
Q 1550 3584 1831 3584 
Q 2591 3584 2966 3190 
Q 3341 2797 3341 1997 
z
" transform="scale(0.015625)"/>
      <path id="DejaVuSans-6e" d="M 3513 2113 
L 3513 0 
L 2938 0 
L 2938 2094 
Q 2938 2591 2744 2837 
Q 2550 3084 2163 3084 
Q 1697 3084 1428 2787 
Q 1159 2491 1159 1978 
L 1159 0 
L 581 0 
L 581 3500 
L 1159 3500 
L 1159 2956 
Q 1366 3272 1645 3428 
Q 1925 3584 2291 3584 
Q 2894 3584 3203 3211 
Q 3513 2838 3513 2113 
z
" transform="scale(0.015625)"/>
      <path id="DejaVuSans-73" d="M 2834 3397 
L 2834 2853 
Q 2591 2978 2328 3040 
Q 2066 3103 1784 3103 
Q 1356 3103 1142 2972 
Q 928 2841 928 2578 
Q 928 2378 1081 2264 
Q 1234 2150 1697 2047 
L 1894 2003 
Q 2506 1872 2764 1633 
Q 3022 1394 3022 966 
Q 3022 478 2636 193 
Q 2250 -91 1575 -91 
Q 1294 -91 989 -36 
Q 684 19 347 128 
L 347 722 
Q 666 556 975 473 
Q 1284 391 1588 391 
Q 1994 391 2212 530 
Q 2431 669 2431 922 
Q 2431 1156 2273 1281 
Q 2116 1406 1581 1522 
L 1381 1569 
Q 847 1681 609 1914 
Q 372 2147 372 2553 
Q 372 3047 722 3315 
Q 1072 3584 1716 3584 
Q 2034 3584 2315 3537 
Q 2597 3491 2834 3397 
z
" transform="scale(0.015625)"/>
      <path id="DejaVuSans-66" d="M 2375 4863 
L 2375 4384 
L 1825 4384 
Q 1516 4384 1395 4259 
Q 1275 4134 1275 3809 
L 1275 3500 
L 2222 3500 
L 2222 3053 
L 1275 3053 
L 1275 0 
L 697 0 
L 697 3053 
L 147 3053 
L 147 3500 
L 697 3500 
L 697 3744 
Q 697 4328 969 4595 
Q 1241 4863 1831 4863 
L 2375 4863 
z
" transform="scale(0.015625)"/>
      <path id="DejaVuSans-6f" d="M 1959 3097 
Q 1497 3097 1228 2736 
Q 959 2375 959 1747 
Q 959 1119 1226 758 
Q 1494 397 1959 397 
Q 2419 397 2687 759 
Q 2956 1122 2956 1747 
Q 2956 2369 2687 2733 
Q 2419 3097 1959 3097 
z
M 1959 3584 
Q 2709 3584 3137 3096 
Q 3566 2609 3566 1747 
Q 3566 888 3137 398 
Q 2709 -91 1959 -91 
Q 1206 -91 779 398 
Q 353 888 353 1747 
Q 353 2609 779 3096 
Q 1206 3584 1959 3584 
z
" transform="scale(0.015625)"/>
      <path id="DejaVuSans-6d" d="M 3328 2828 
Q 3544 3216 3844 3400 
Q 4144 3584 4550 3584 
Q 5097 3584 5394 3201 
Q 5691 2819 5691 2113 
L 5691 0 
L 5113 0 
L 5113 2094 
Q 5113 2597 4934 2840 
Q 4756 3084 4391 3084 
Q 3944 3084 3684 2787 
Q 3425 2491 3425 1978 
L 3425 0 
L 2847 0 
L 2847 2094 
Q 2847 2600 2669 2842 
Q 2491 3084 2119 3084 
Q 1678 3084 1418 2786 
Q 1159 2488 1159 1978 
L 1159 0 
L 581 0 
L 581 3500 
L 1159 3500 
L 1159 2956 
Q 1356 3278 1631 3431 
Q 1906 3584 2284 3584 
Q 2666 3584 2933 3390 
Q 3200 3197 3328 2828 
z
" transform="scale(0.015625)"/>
      <path id="DejaVuSans-69" d="M 603 3500 
L 1178 3500 
L 1178 0 
L 603 0 
L 603 3500 
z
M 603 4863 
L 1178 4863 
L 1178 4134 
L 603 4134 
L 603 4863 
z
" transform="scale(0.015625)"/>
      <path id="DejaVuSans-28" d="M 1984 4856 
Q 1566 4138 1362 3434 
Q 1159 2731 1159 2009 
Q 1159 1288 1364 580 
Q 1569 -128 1984 -844 
L 1484 -844 
Q 1016 -109 783 600 
Q 550 1309 550 2009 
Q 550 2706 781 3412 
Q 1013 4119 1484 4856 
L 1984 4856 
z
" transform="scale(0.015625)"/>
      <path id="DejaVuSans-29" d="M 513 4856 
L 1013 4856 
Q 1481 4119 1714 3412 
Q 1947 2706 1947 2009 
Q 1947 1309 1714 600 
Q 1481 -109 1013 -844 
L 513 -844 
Q 928 -128 1133 580 
Q 1338 1288 1338 2009 
Q 1338 2731 1133 3434 
Q 928 4138 513 4856 
z
" transform="scale(0.015625)"/>
     </defs>
     <use xlink:href="#DejaVuSans-31"/>
     <use xlink:href="#DejaVuSans-20" x="63.623047"/>
     <use xlink:href="#DejaVuSans-74" x="95.410156"/>
     <use xlink:href="#DejaVuSans-72" x="134.619141"/>
     <use xlink:href="#DejaVuSans-61" x="175.732422"/>
     <use xlink:href="#DejaVuSans-6e" x="237.011719"/>
     <use xlink:href="#DejaVuSans-73" x="300.390625"/>
     <use xlink:href="#DejaVuSans-66" x="352.490234"/>
     <use xlink:href="#DejaVuSans-6f" x="387.695312"/>
     <use xlink:href="#DejaVuSans-72" x="448.876953"/>
     <use xlink:href="#DejaVuSans-6d" x="488.240234"/>
     <use xlink:href="#DejaVuSans-61" x="585.652344"/>
     <use xlink:href="#DejaVuSans-74" x="646.931641"/>
     <use xlink:href="#DejaVuSans-69" x="686.140625"/>
     <use xlink:href="#DejaVuSans-6f" x="713.923828"/>
     <use xlink:href="#DejaVuSans-6e" x="775.105469"/>
     <use xlink:href="#DejaVuSans-28" x="838.484375"/>
     <use xlink:href="#DejaVuSans-73" x="877.498047"/>
     <use xlink:href="#DejaVuSans-29" x="929.597656"/>
    </g>
   </g>
   <g id="legend_1">
    <g id="patch_7">
     <path d="M 613.742386 80.79625 
L 695.136136 80.79625 
Q 697.136136 80.79625 697.136136 78.79625 
L 697.136136 50.44 
Q 697.136136 48.44 695.136136 48.44 
L 613.742386 48.44 
Q 611.742386 48.44 611.742386 50.44 
L 611.742386 78.79625 
Q 611.742386 80.79625 613.742386 80.79625 
z
" style="fill: #ffffff; opacity: 0.8; stroke: #cccccc; stroke-linejoin: miter"/>
    </g>
    <g id="line2d_16">
     <path d="M 615.742386 56.538437 
L 625.742386 56.538437 
L 635.742386 56.538437 
" style="fill: none; stroke: #1f77b4; stroke-width: 1.5; stroke-linecap: square"/>
    </g>
    <g id="text_15">
     <!-- observed -->
     <g transform="translate(643.742386 60.038437) scale(0.1 -0.1)">
      <defs>
       <path id="DejaVuSans-62" d="M 3116 1747 
Q 3116 2381 2855 2742 
Q 2594 3103 2138 3103 
Q 1681 3103 1420 2742 
Q 1159 2381 1159 1747 
Q 1159 1113 1420 752 
Q 1681 391 2138 391 
Q 2594 391 2855 752 
Q 3116 1113 3116 1747 
z
M 1159 2969 
Q 1341 3281 1617 3432 
Q 1894 3584 2278 3584 
Q 2916 3584 3314 3078 
Q 3713 2572 3713 1747 
Q 3713 922 3314 415 
Q 2916 -91 2278 -91 
Q 1894 -91 1617 61 
Q 1341 213 1159 525 
L 1159 0 
L 581 0 
L 581 4863 
L 1159 4863 
L 1159 2969 
z
" transform="scale(0.015625)"/>
       <path id="DejaVuSans-65" d="M 3597 1894 
L 3597 1613 
L 953 1613 
Q 991 1019 1311 708 
Q 1631 397 2203 397 
Q 2534 397 2845 478 
Q 3156 559 3463 722 
L 3463 178 
Q 3153 47 2828 -22 
Q 2503 -91 2169 -91 
Q 1331 -91 842 396 
Q 353 884 353 1716 
Q 353 2575 817 3079 
Q 1281 3584 2069 3584 
Q 2775 3584 3186 3129 
Q 3597 2675 3597 1894 
z
M 3022 2063 
Q 3016 2534 2758 2815 
Q 2500 3097 2075 3097 
Q 1594 3097 1305 2825 
Q 1016 2553 972 2059 
L 3022 2063 
z
" transform="scale(0.015625)"/>
       <path id="DejaVuSans-76" d="M 191 3500 
L 800 3500 
L 1894 563 
L 2988 3500 
L 3597 3500 
L 2284 0 
L 1503 0 
L 191 3500 
z
" transform="scale(0.015625)"/>
       <path id="DejaVuSans-64" d="M 2906 2969 
L 2906 4863 
L 3481 4863 
L 3481 0 
L 2906 0 
L 2906 525 
Q 2725 213 2448 61 
Q 2172 -91 1784 -91 
Q 1150 -91 751 415 
Q 353 922 353 1747 
Q 353 2572 751 3078 
Q 1150 3584 1784 3584 
Q 2172 3584 2448 3432 
Q 2725 3281 2906 2969 
z
M 947 1747 
Q 947 1113 1208 752 
Q 1469 391 1925 391 
Q 2381 391 2643 752 
Q 2906 1113 2906 1747 
Q 2906 2381 2643 2742 
Q 2381 3103 1925 3103 
Q 1469 3103 1208 2742 
Q 947 2381 947 1747 
z
" transform="scale(0.015625)"/>
      </defs>
      <use xlink:href="#DejaVuSans-6f"/>
      <use xlink:href="#DejaVuSans-62" x="61.181641"/>
      <use xlink:href="#DejaVuSans-73" x="124.658203"/>
      <use xlink:href="#DejaVuSans-65" x="176.757812"/>
      <use xlink:href="#DejaVuSans-72" x="238.28125"/>
      <use xlink:href="#DejaVuSans-76" x="279.394531"/>
      <use xlink:href="#DejaVuSans-65" x="338.574219"/>
      <use xlink:href="#DejaVuSans-64" x="400.097656"/>
     </g>
    </g>
    <g id="line2d_17">
     <path d="M 615.742386 71.216563 
L 625.742386 71.216563 
L 635.742386 71.216563 
" style="fill: none; stroke: #ff7f0e; stroke-width: 1.5; stroke-linecap: square"/>
    </g>
    <g id="text_16">
     <!-- simulated -->
     <g transform="translate(643.742386 74.716563) scale(0.1 -0.1)">
      <defs>
       <path id="DejaVuSans-75" d="M 544 1381 
L 544 3500 
L 1119 3500 
L 1119 1403 
Q 1119 906 1312 657 
Q 1506 409 1894 409 
Q 2359 409 2629 706 
Q 2900 1003 2900 1516 
L 2900 3500 
L 3475 3500 
L 3475 0 
L 2900 0 
L 2900 538 
Q 2691 219 2414 64 
Q 2138 -91 1772 -91 
Q 1169 -91 856 284 
Q 544 659 544 1381 
z
M 1991 3584 
L 1991 3584 
z
" transform="scale(0.015625)"/>
       <path id="DejaVuSans-6c" d="M 603 4863 
L 1178 4863 
L 1178 0 
L 603 0 
L 603 4863 
z
" transform="scale(0.015625)"/>
      </defs>
      <use xlink:href="#DejaVuSans-73"/>
      <use xlink:href="#DejaVuSans-69" x="52.099609"/>
      <use xlink:href="#DejaVuSans-6d" x="79.882812"/>
      <use xlink:href="#DejaVuSans-75" x="177.294922"/>
      <use xlink:href="#DejaVuSans-6c" x="240.673828"/>
      <use xlink:href="#DejaVuSans-61" x="268.457031"/>
      <use xlink:href="#DejaVuSans-74" x="329.736328"/>
      <use xlink:href="#DejaVuSans-65" x="368.945312"/>
      <use xlink:href="#DejaVuSans-64" x="430.46875"/>
     </g>
    </g>
   </g>
  </g>
  <g id="axes_2">
   <g id="patch_8">
    <path d="M 20.5625 684.92 
L 702.136136 684.92 
L 702.136136 386.16 
L 20.5625 386.16 
z
" style="fill: #ffffff"/>
   </g>
   <g id="matplotlib.axis_3">
    <g id="xtick_7">
     <g id="line2d_18">
      <g>
       <use xlink:href="#ma628b36a98" x="51.370957" y="684.92" style="stroke: #000000; stroke-width: 0.8"/>
      </g>
     </g>
     <g id="text_17">
      <!-- 2014-07-01 -->
      <g transform="translate(22.313145 699.518437) scale(0.1 -0.1)">
       <use xlink:href="#DejaVuSans-32"/>
       <use xlink:href="#DejaVuSans-30" x="63.623047"/>
       <use xlink:href="#DejaVuSans-31" x="127.246094"/>
       <use xlink:href="#DejaVuSans-34" x="190.869141"/>
       <use xlink:href="#DejaVuSans-2d" x="254.492188"/>
       <use xlink:href="#DejaVuSans-30" x="290.576172"/>
       <use xlink:href="#DejaVuSans-37" x="354.199219"/>
       <use xlink:href="#DejaVuSans-2d" x="417.822266"/>
       <use xlink:href="#DejaVuSans-30" x="453.90625"/>
       <use xlink:href="#DejaVuSans-31" x="517.529297"/>
      </g>
     </g>
    </g>
    <g id="xtick_8">
     <g id="line2d_19">
      <g>
       <use xlink:href="#ma628b36a98" x="175.327869" y="684.92" style="stroke: #000000; stroke-width: 0.8"/>
      </g>
     </g>
     <g id="text_18">
      <!-- 2014-07-02 -->
      <g transform="translate(146.270057 699.518437) scale(0.1 -0.1)">
       <use xlink:href="#DejaVuSans-32"/>
       <use xlink:href="#DejaVuSans-30" x="63.623047"/>
       <use xlink:href="#DejaVuSans-31" x="127.246094"/>
       <use xlink:href="#DejaVuSans-34" x="190.869141"/>
       <use xlink:href="#DejaVuSans-2d" x="254.492188"/>
       <use xlink:href="#DejaVuSans-30" x="290.576172"/>
       <use xlink:href="#DejaVuSans-37" x="354.199219"/>
       <use xlink:href="#DejaVuSans-2d" x="417.822266"/>
       <use xlink:href="#DejaVuSans-30" x="453.90625"/>
       <use xlink:href="#DejaVuSans-32" x="517.529297"/>
      </g>
     </g>
    </g>
    <g id="xtick_9">
     <g id="line2d_20">
      <g>
       <use xlink:href="#ma628b36a98" x="299.284781" y="684.92" style="stroke: #000000; stroke-width: 0.8"/>
      </g>
     </g>
     <g id="text_19">
      <!-- 2014-07-03 -->
      <g transform="translate(270.226969 699.518437) scale(0.1 -0.1)">
       <use xlink:href="#DejaVuSans-32"/>
       <use xlink:href="#DejaVuSans-30" x="63.623047"/>
       <use xlink:href="#DejaVuSans-31" x="127.246094"/>
       <use xlink:href="#DejaVuSans-34" x="190.869141"/>
       <use xlink:href="#DejaVuSans-2d" x="254.492188"/>
       <use xlink:href="#DejaVuSans-30" x="290.576172"/>
       <use xlink:href="#DejaVuSans-37" x="354.199219"/>
       <use xlink:href="#DejaVuSans-2d" x="417.822266"/>
       <use xlink:href="#DejaVuSans-30" x="453.90625"/>
       <use xlink:href="#DejaVuSans-33" x="517.529297"/>
      </g>
     </g>
    </g>
    <g id="xtick_10">
     <g id="line2d_21">
      <g>
       <use xlink:href="#ma628b36a98" x="423.241693" y="684.92" style="stroke: #000000; stroke-width: 0.8"/>
      </g>
     </g>
     <g id="text_20">
      <!-- 2014-07-04 -->
      <g transform="translate(394.18388 699.518437) scale(0.1 -0.1)">
       <use xlink:href="#DejaVuSans-32"/>
       <use xlink:href="#DejaVuSans-30" x="63.623047"/>
       <use xlink:href="#DejaVuSans-31" x="127.246094"/>
       <use xlink:href="#DejaVuSans-34" x="190.869141"/>
       <use xlink:href="#DejaVuSans-2d" x="254.492188"/>
       <use xlink:href="#DejaVuSans-30" x="290.576172"/>
       <use xlink:href="#DejaVuSans-37" x="354.199219"/>
       <use xlink:href="#DejaVuSans-2d" x="417.822266"/>
       <use xlink:href="#DejaVuSans-30" x="453.90625"/>
       <use xlink:href="#DejaVuSans-34" x="517.529297"/>
      </g>
     </g>
    </g>
    <g id="xtick_11">
     <g id="line2d_22">
      <g>
       <use xlink:href="#ma628b36a98" x="547.198605" y="684.92" style="stroke: #000000; stroke-width: 0.8"/>
      </g>
     </g>
     <g id="text_21">
      <!-- 2014-07-05 -->
      <g transform="translate(518.140792 699.518437) scale(0.1 -0.1)">
       <use xlink:href="#DejaVuSans-32"/>
       <use xlink:href="#DejaVuSans-30" x="63.623047"/>
       <use xlink:href="#DejaVuSans-31" x="127.246094"/>
       <use xlink:href="#DejaVuSans-34" x="190.869141"/>
       <use xlink:href="#DejaVuSans-2d" x="254.492188"/>
       <use xlink:href="#DejaVuSans-30" x="290.576172"/>
       <use xlink:href="#DejaVuSans-37" x="354.199219"/>
       <use xlink:href="#DejaVuSans-2d" x="417.822266"/>
       <use xlink:href="#DejaVuSans-30" x="453.90625"/>
       <use xlink:href="#DejaVuSans-35" x="517.529297"/>
      </g>
     </g>
    </g>
    <g id="xtick_12">
     <g id="line2d_23">
      <g>
       <use xlink:href="#ma628b36a98" x="671.155517" y="684.92" style="stroke: #000000; stroke-width: 0.8"/>
      </g>
     </g>
     <g id="text_22">
      <!-- 2014-07-06 -->
      <g transform="translate(642.097704 699.518437) scale(0.1 -0.1)">
       <use xlink:href="#DejaVuSans-32"/>
       <use xlink:href="#DejaVuSans-30" x="63.623047"/>
       <use xlink:href="#DejaVuSans-31" x="127.246094"/>
       <use xlink:href="#DejaVuSans-34" x="190.869141"/>
       <use xlink:href="#DejaVuSans-2d" x="254.492188"/>
       <use xlink:href="#DejaVuSans-30" x="290.576172"/>
       <use xlink:href="#DejaVuSans-37" x="354.199219"/>
       <use xlink:href="#DejaVuSans-2d" x="417.822266"/>
       <use xlink:href="#DejaVuSans-30" x="453.90625"/>
       <use xlink:href="#DejaVuSans-36" x="517.529297"/>
      </g>
     </g>
    </g>
   </g>
   <g id="matplotlib.axis_4">
    <g id="ytick_8">
     <g id="line2d_24">
      <g>
       <use xlink:href="#mb797f546f2" x="20.5625" y="671.34" style="stroke: #000000; stroke-width: 0.8"/>
      </g>
     </g>
     <g id="text_23">
      <!-- 0 -->
      <g transform="translate(7.2 675.139219) scale(0.1 -0.1)">
       <use xlink:href="#DejaVuSans-30"/>
      </g>
     </g>
    </g>
    <g id="ytick_9">
     <g id="line2d_25">
      <g>
       <use xlink:href="#mb797f546f2" x="20.5625" y="629.186525" style="stroke: #000000; stroke-width: 0.8"/>
      </g>
     </g>
     <g id="text_24">
      <!-- 1 -->
      <g transform="translate(7.2 632.985744) scale(0.1 -0.1)">
       <use xlink:href="#DejaVuSans-31"/>
      </g>
     </g>
    </g>
    <g id="ytick_10">
     <g id="line2d_26">
      <g>
       <use xlink:href="#mb797f546f2" x="20.5625" y="587.03305" style="stroke: #000000; stroke-width: 0.8"/>
      </g>
     </g>
     <g id="text_25">
      <!-- 2 -->
      <g transform="translate(7.2 590.832268) scale(0.1 -0.1)">
       <use xlink:href="#DejaVuSans-32"/>
      </g>
     </g>
    </g>
    <g id="ytick_11">
     <g id="line2d_27">
      <g>
       <use xlink:href="#mb797f546f2" x="20.5625" y="544.879574" style="stroke: #000000; stroke-width: 0.8"/>
      </g>
     </g>
     <g id="text_26">
      <!-- 3 -->
      <g transform="translate(7.2 548.678793) scale(0.1 -0.1)">
       <use xlink:href="#DejaVuSans-33"/>
      </g>
     </g>
    </g>
    <g id="ytick_12">
     <g id="line2d_28">
      <g>
       <use xlink:href="#mb797f546f2" x="20.5625" y="502.726099" style="stroke: #000000; stroke-width: 0.8"/>
      </g>
     </g>
     <g id="text_27">
      <!-- 4 -->
      <g transform="translate(7.2 506.525318) scale(0.1 -0.1)">
       <use xlink:href="#DejaVuSans-34"/>
      </g>
     </g>
    </g>
    <g id="ytick_13">
     <g id="line2d_29">
      <g>
       <use xlink:href="#mb797f546f2" x="20.5625" y="460.572624" style="stroke: #000000; stroke-width: 0.8"/>
      </g>
     </g>
     <g id="text_28">
      <!-- 5 -->
      <g transform="translate(7.2 464.371843) scale(0.1 -0.1)">
       <use xlink:href="#DejaVuSans-35"/>
      </g>
     </g>
    </g>
    <g id="ytick_14">
     <g id="line2d_30">
      <g>
       <use xlink:href="#mb797f546f2" x="20.5625" y="418.419149" style="stroke: #000000; stroke-width: 0.8"/>
      </g>
     </g>
     <g id="text_29">
      <!-- 6 -->
      <g transform="translate(7.2 422.218367) scale(0.1 -0.1)">
       <use xlink:href="#DejaVuSans-36"/>
      </g>
     </g>
    </g>
   </g>
   <g id="line2d_31">
    <path d="M 51.54312 671.34 
L 56.191504 671.251863 
L 56.62191 670.698089 
L 56.966235 669.831655 
L 57.568803 667.354283 
L 58.343534 664.119081 
L 58.601777 663.44825 
L 58.77394 663.551952 
L 59.290427 663.938126 
L 59.634752 663.694672 
L 60.151239 663.412923 
L 60.581645 663.432109 
L 61.012051 663.672782 
L 61.614619 664.283036 
L 63.422324 666.389849 
L 64.283136 666.891408 
L 65.488272 667.316616 
L 66.00476 667.289574 
L 66.435165 667.049287 
L 66.865571 666.484229 
L 67.382059 665.303427 
L 68.070708 663.225273 
L 68.673276 660.965352 
L 69.189764 657.986846 
L 70.653144 647.663481 
L 71.341793 645.069324 
L 72.202605 642.652004 
L 73.407742 635.977172 
L 74.785041 631.587335 
L 75.129366 630.744967 
L 76.248421 628.224402 
L 77.195314 627.852686 
L 77.453558 627.527141 
L 77.62572 627.584527 
L 78.744775 626.313241 
L 78.916938 626.247789 
L 79.175181 626.088514 
L 79.433425 626.444215 
L 80.035993 628.172498 
L 80.638562 630.6499 
L 80.724643 631.013895 
L 80.810724 630.897177 
L 81.068968 627.548226 
L 81.499374 622.311288 
L 81.757617 621.246035 
L 81.929779 621.23305 
L 82.101942 621.709795 
L 82.360185 623.260732 
L 82.790591 627.991574 
L 84.426134 648.352961 
L 84.512215 648.503146 
L 84.684378 644.330551 
L 85.028702 620.020336 
L 85.286946 602.707051 
L 85.631271 595.195693 
L 85.975595 576.912778 
L 86.233839 567.420119 
L 86.492082 550.192839 
L 86.836407 538.170401 
L 87.094651 516.810832 
L 87.352894 509.919107 
L 87.525057 483.13735 
L 87.7833 453.084904 
L 87.869381 453.753462 
L 88.213706 412.550853 
L 88.299787 411.613956 
L 88.385869 411.798256 
L 88.47195 412.356865 
L 88.558031 418.083051 
L 88.730193 406.722256 
L 88.902356 399.74 
L 89.246681 411.301939 
L 89.504924 401.349836 
L 89.591005 403.426905 
L 89.849249 415.133366 
L 90.021411 408.819707 
L 90.107492 408.38769 
L 90.451817 425.479153 
L 90.62398 417.558613 
L 90.710061 417.344343 
L 90.968304 435.130494 
L 91.054385 434.437353 
L 91.226548 428.095976 
L 91.484791 442.995477 
L 91.743035 456.925899 
L 91.829116 453.635835 
L 92.001279 456.787327 
L 92.345603 477.545193 
L 92.431684 476.243515 
L 92.603847 484.583569 
L 92.948172 505.774256 
L 93.034253 505.97349 
L 93.206415 509.178741 
L 93.55074 517.77809 
L 93.722902 518.854363 
L 94.928039 538.378771 
L 95.01412 538.354068 
L 95.530607 544.671234 
L 95.616688 544.212092 
L 95.788851 545.520755 
L 96.133176 548.059549 
L 96.305338 546.440034 
L 96.649663 548.464692 
L 96.735744 547.000181 
L 96.907906 541.398305 
L 96.993987 541.131091 
L 97.080069 540.258385 
L 97.16615 540.362515 
L 97.252231 540.106175 
L 97.338312 534.538912 
L 97.596556 511.724048 
L 97.768718 507.178948 
L 97.940881 499.716575 
L 98.113043 496.589766 
L 98.285205 497.11137 
L 98.457368 501.666389 
L 98.973855 515.195478 
L 99.834667 534.840639 
L 101.039803 554.577136 
L 101.900615 563.086053 
L 102.589265 567.821674 
L 103.363995 571.788376 
L 104.138726 574.848764 
L 104.913457 577.332332 
L 105.343863 578.768673 
L 105.688188 581.256874 
L 105.946431 583.532856 
L 106.721162 588.861945 
L 108.01238 596.237705 
L 108.356704 597.946667 
L 109.820085 610.393337 
L 110.680897 614.117373 
L 111.541708 616.736176 
L 112.316439 618.577096 
L 112.919007 619.857237 
L 113.607657 621.231894 
L 113.779819 621.009308 
L 114.468469 619.407989 
L 114.898875 619.237744 
L 115.157118 619.368195 
L 115.587524 619.952176 
L 116.620499 622.306629 
L 116.878742 624.015194 
L 117.223067 628.667926 
L 118.342122 646.013301 
L 118.944691 651.693264 
L 119.289015 653.121717 
L 119.547259 653.438394 
L 120.32199 653.713685 
L 120.838477 653.672645 
L 122.646182 652.613008 
L 122.990507 652.447969 
L 123.334831 652.303965 
L 124.281724 651.735831 
L 125.659023 650.409239 
L 125.917267 650.175251 
L 126.347673 649.973569 
L 127.294566 649.299642 
L 128.069297 648.374983 
L 128.413621 647.993285 
L 128.585784 647.835045 
L 128.930109 647.37418 
L 129.877002 646.904035 
L 130.393489 646.303786 
L 131.082138 645.518747 
L 131.254301 645.557898 
L 131.598625 646.14584 
L 132.029031 647.427506 
L 133.320249 652.360973 
L 134.267142 655.428434 
L 135.127954 657.599316 
L 136.160928 659.554507 
L 137.882552 662.114628 
L 139.17377 663.446315 
L 139.948501 664.04018 
L 140.120663 664.013732 
L 140.378907 663.635999 
L 140.63715 662.640885 
L 140.981475 659.760655 
L 141.584043 654.329464 
L 141.928368 652.944128 
L 142.186612 652.499629 
L 142.358774 652.509196 
L 142.617018 652.889906 
L 143.133505 654.478688 
L 143.563911 655.54831 
L 143.822154 655.678271 
L 144.166479 655.595479 
L 145.285534 654.790029 
L 145.629859 654.83854 
L 146.318509 655.185446 
L 146.662833 654.823952 
L 147.179321 653.369671 
L 147.695808 651.988833 
L 147.954051 651.840092 
L 148.212295 651.918632 
L 148.642701 652.262076 
L 148.987026 652.419984 
L 149.503513 652.981968 
L 149.761756 653.310757 
L 149.933919 653.255946 
L 150.450406 652.858589 
L 150.622568 652.915261 
L 150.966893 653.436375 
L 151.311218 653.826051 
L 151.569461 653.936874 
L 151.741624 653.645757 
L 152.172029 652.339084 
L 152.516354 651.56554 
L 152.94676 651.364519 
L 153.291085 651.271581 
L 154.065816 651.363433 
L 154.41014 651.879594 
L 155.959602 655.233226 
L 156.131764 655.188235 
L 156.648251 654.372621 
L 156.992576 653.9981 
L 157.25082 653.876543 
L 157.595144 653.117603 
L 158.02555 652.411758 
L 158.197713 652.402459 
L 158.455956 652.707165 
L 158.886362 653.58086 
L 159.488931 654.760009 
L 159.661093 654.847881 
L 159.833255 654.549506 
L 161.124473 651.148953 
L 162.071366 649.268217 
L 162.243529 649.278406 
L 162.415691 649.550876 
L 163.362584 651.705036 
L 164.395558 653.567985 
L 164.653802 653.513752 
L 165.342451 652.715403 
L 165.514614 652.734561 
L 165.772857 653.041066 
L 166.375426 654.260717 
L 166.71975 654.809572 
L 167.064075 654.969873 
L 167.322319 654.89213 
L 167.752725 654.597644 
L 168.097049 653.719298 
L 168.441374 653.090124 
L 168.613537 653.044054 
L 169.130024 653.313087 
L 169.646511 652.857026 
L 170.593404 650.998409 
L 170.851647 650.903595 
L 171.02381 651.014006 
L 171.368135 651.712235 
L 171.884622 652.596956 
L 172.831515 654.259428 
L 173.606245 655.800801 
L 173.864489 655.950501 
L 174.036651 655.820672 
L 174.467057 654.826016 
L 175.241788 652.415799 
L 175.672194 651.213774 
L 175.930438 651.065853 
L 176.1026 651.256208 
L 176.533006 651.924313 
L 176.963412 652.167934 
L 177.135574 651.994408 
L 177.738143 650.714467 
L 178.168549 649.668152 
L 178.512873 649.268609 
L 179.71801 649.645368 
L 180.750984 650.681956 
L 181.525715 649.862024 
L 181.783958 650.272831 
L 182.472608 651.622742 
L 182.816933 651.926075 
L 183.849907 652.556086 
L 184.194232 653.154614 
L 184.538556 653.767952 
L 184.7968 653.826558 
L 185.313287 653.882857 
L 185.571531 654.139386 
L 186.432343 655.492296 
L 186.604505 655.25235 
L 186.94883 654.259937 
L 187.809642 650.731172 
L 187.981804 650.990527 
L 188.670454 652.665802 
L 189.014778 653.104348 
L 189.703428 653.478012 
L 189.961671 653.532659 
L 190.133834 653.275191 
L 190.994646 651.004199 
L 191.166808 650.974567 
L 191.33897 651.11647 
L 191.597214 651.666906 
L 192.630188 655.111728 
L 193.491 657.509268 
L 194.523974 659.526643 
L 195.815192 661.589523 
L 196.934248 662.865629 
L 198.655871 664.341669 
L 200.03317 665.191547 
L 201.066145 665.674731 
L 201.152226 665.598305 
L 201.238307 665.290427 
L 201.410469 662.802591 
L 201.754794 647.219467 
L 202.099119 630.77652 
L 202.529525 620.494669 
L 202.87385 617.196449 
L 203.132093 613.137923 
L 203.390337 614.280291 
L 203.562499 612.295875 
L 203.820743 610.057546 
L 203.992905 610.140882 
L 204.423311 607.928522 
L 204.595473 608.16552 
L 204.939798 606.929153 
L 205.111961 607.0017 
L 205.198042 607.079439 
L 205.456285 606.481303 
L 205.542367 606.513358 
L 205.80061 607.103785 
L 205.886691 607.005218 
L 205.972772 606.902098 
L 206.144935 607.204141 
L 206.661422 609.173794 
L 207.005747 611.198446 
L 208.038721 617.525054 
L 209.243858 625.035658 
L 209.674264 627.777043 
L 210.535075 632.887294 
L 211.395887 637.006988 
L 211.654131 637.878747 
L 211.826293 637.605038 
L 212.170618 636.720442 
L 212.514943 633.526026 
L 213.117511 626.834679 
L 213.375755 623.193844 
L 213.978323 601.019029 
L 214.236567 588.594283 
L 214.666973 578.041513 
L 215.011297 574.472305 
L 215.18346 573.738954 
L 215.269541 573.725416 
L 215.441703 574.08273 
L 215.95819 576.447736 
L 216.388596 579.139866 
L 216.560759 582.261379 
L 216.991165 590.296722 
L 218.282382 615.270811 
L 219.057113 631.508903 
L 219.917925 645.125625 
L 220.692656 654.362668 
L 221.036981 656.787709 
L 221.467386 658.24421 
L 222.156036 659.696043 
L 223.016848 661.163369 
L 223.963741 662.366925 
L 225.427121 663.797064 
L 226.718339 664.724465 
L 227.320907 664.9503 
L 227.751313 664.891204 
L 228.009557 664.627287 
L 228.353882 663.762879 
L 228.698206 662.313308 
L 229.817262 656.832099 
L 230.075505 656.447734 
L 230.333749 656.393797 
L 231.194561 656.53395 
L 231.797129 656.010577 
L 232.313616 654.990221 
L 233.174428 652.298756 
L 233.518753 652.171407 
L 233.863078 652.175686 
L 234.03524 652.108362 
L 234.293484 651.483088 
L 235.670783 647.953411 
L 236.101189 647.639808 
L 236.445513 647.824716 
L 236.703757 648.163372 
L 237.65065 650.718715 
L 238.167137 651.843565 
L 238.425381 652.098938 
L 238.683624 651.921738 
L 238.941868 651.66147 
L 239.974842 649.535271 
L 240.233086 649.649893 
L 240.491329 650.152462 
L 241.007816 651.474623 
L 241.26606 651.554774 
L 241.524303 651.44446 
L 241.868628 651.165505 
L 242.212953 651.273929 
L 242.471197 651.645754 
L 242.72944 652.004123 
L 242.901602 651.845975 
L 243.332008 650.933351 
L 243.762414 649.650845 
L 244.020658 649.415636 
L 244.19282 649.588474 
L 244.795389 650.648051 
L 245.053632 650.629741 
L 245.225795 650.375326 
L 245.828363 648.841814 
L 246.000525 648.769118 
L 246.172688 648.988217 
L 246.603094 650.118171 
L 247.80823 653.782505 
L 247.980393 653.701142 
L 248.49688 653.295432 
L 248.669042 653.373695 
L 249.013367 653.913183 
L 249.529854 654.849638 
L 249.702016 654.803425 
L 250.046341 654.277306 
L 250.304585 653.602212 
L 250.993234 651.45449 
L 251.165397 651.265737 
L 251.509721 651.349132 
L 251.767965 651.479909 
L 252.11229 651.683628 
L 252.456614 651.775037 
L 253.059183 652.063448 
L 253.317426 652.18199 
L 253.57567 651.751869 
L 254.006076 650.756172 
L 254.350401 650.014269 
L 254.780806 649.695518 
L 255.297294 649.905484 
L 256.072024 650.336592 
L 256.50243 651.015241 
L 257.104999 652.089734 
L 257.535405 651.698417 
L 257.793648 651.582747 
L 258.051892 651.833222 
L 259.515272 654.219677 
L 259.687434 654.004591 
L 260.720409 651.650297 
L 260.978652 651.579286 
L 261.322977 651.713879 
L 262.183789 650.78635 
L 262.442032 651.142723 
L 262.700276 651.435335 
L 263.130682 651.544899 
L 263.388925 651.248809 
L 263.819331 650.652204 
L 264.938387 647.234407 
L 265.110549 647.231756 
L 265.368793 647.822769 
L 267.434741 654.120822 
L 267.606904 654.163983 
L 267.865147 653.854755 
L 269.070284 651.9213 
L 269.50069 650.491808 
L 270.017177 648.501093 
L 270.27542 648.060207 
L 270.533664 648.220389 
L 270.791908 648.708928 
L 271.997044 652.298952 
L 272.341369 652.374546 
L 272.685694 652.518791 
L 273.202181 653.06689 
L 273.460424 652.582187 
L 273.718668 651.816818 
L 274.321236 649.800304 
L 274.493399 649.720226 
L 274.665561 649.928745 
L 275.268129 651.054136 
L 275.526373 651.262577 
L 275.698535 651.059841 
L 276.215022 650.149736 
L 276.473266 650.01648 
L 276.817591 650.149316 
L 277.678403 649.034953 
L 277.936646 649.290092 
L 278.19489 649.880936 
L 280.433001 657.477492 
L 281.293813 659.244137 
L 282.671112 661.511624 
L 283.876248 662.887826 
L 285.167466 664.048495 
L 286.544765 664.968113 
L 286.803009 665.022514 
L 286.975171 664.843788 
L 287.147333 664.355371 
L 287.491658 662.251079 
L 287.922064 659.275441 
L 288.180308 658.468153 
L 288.438551 658.241461 
L 288.696795 658.401979 
L 289.04112 658.968088 
L 291.020987 662.833647 
L 292.140042 663.903146 
L 292.484367 664.075586 
L 292.742611 663.911265 
L 293.086935 663.21198 
L 293.775585 661.701961 
L 294.11991 661.443468 
L 294.464235 661.513943 
L 294.89464 661.895945 
L 296.530183 663.659494 
L 296.874508 663.691936 
L 297.218833 663.45549 
L 297.477076 663.029125 
L 297.907482 661.788078 
L 298.51005 659.034624 
L 299.887349 652.79961 
L 300.748161 649.931903 
L 301.608973 647.363712 
L 301.953298 646.377107 
L 302.211542 645.745539 
L 302.555866 644.907315 
L 302.728029 644.71213 
L 302.900191 644.128901 
L 304.535734 634.243422 
L 305.052221 632.328643 
L 305.310464 631.49271 
L 305.568708 630.744269 
L 305.913033 630.480927 
L 306.257357 629.958883 
L 306.42952 629.824696 
L 306.859926 629.026647 
L 307.032088 628.892271 
L 307.376413 628.111403 
L 307.548575 628.02483 
L 308.495468 626.502516 
L 308.753712 626.516184 
L 309.011955 626.592033 
L 309.270199 626.611354 
L 309.528443 626.790182 
L 309.786686 626.748293 
L 309.958848 626.968653 
L 310.217092 627.376388 
L 310.475336 627.782425 
L 311.250066 630.537507 
L 311.336148 630.402153 
L 311.594391 627.068808 
L 312.110878 621.549515 
L 312.283041 621.038403 
L 312.455203 621.064137 
L 312.713447 621.93719 
L 313.057771 624.746756 
L 313.832502 634.791176 
L 314.779395 646.017957 
L 315.381963 651.199354 
L 315.812369 652.997739 
L 316.414938 654.490121 
L 317.017506 655.563405 
L 317.706155 656.408214 
L 318.911292 657.356464 
L 319.51386 657.588581 
L 320.20251 657.680067 
L 321.149403 657.583174 
L 321.579809 657.638955 
L 322.096296 657.951141 
L 322.871027 658.809364 
L 324.420488 661.057615 
L 325.453462 662.31985 
L 326.74468 663.54725 
L 327.43333 663.87271 
L 328.810629 664.47258 
L 331.306983 665.637982 
L 333.286851 666.290909 
L 335.783205 666.859536 
L 341.120239 667.803187 
L 348.781465 668.629147 
L 358.680801 669.403767 
L 368.321894 669.918763 
L 381.664479 670.368134 
L 398.019905 670.724345 
L 422.639125 671.020776 
L 451.30416 671.182757 
L 534.286426 671.289981 
L 671.155517 671.324987 
L 671.155517 671.324987 
" clip-path="url(#p7710f1ea37)" style="fill: none; stroke: #1f77b4; stroke-width: 1.5; stroke-linecap: square"/>
   </g>
   <g id="patch_9">
    <path d="M 20.5625 684.92 
L 20.5625 386.16 
" style="fill: none; stroke: #000000; stroke-width: 0.8; stroke-linejoin: miter; stroke-linecap: square"/>
   </g>
   <g id="patch_10">
    <path d="M 702.136136 684.92 
L 702.136136 386.16 
" style="fill: none; stroke: #000000; stroke-width: 0.8; stroke-linejoin: miter; stroke-linecap: square"/>
   </g>
   <g id="patch_11">
    <path d="M 20.5625 684.92 
L 702.136136 684.92 
" style="fill: none; stroke: #000000; stroke-width: 0.8; stroke-linejoin: miter; stroke-linecap: square"/>
   </g>
   <g id="patch_12">
    <path d="M 20.5625 386.16 
L 702.136136 386.16 
" style="fill: none; stroke: #000000; stroke-width: 0.8; stroke-linejoin: miter; stroke-linecap: square"/>
   </g>
   <g id="text_30">
    <!-- 2 transformation(s) -->
    <g transform="translate(303.234631 380.16) scale(0.12 -0.12)">
     <use xlink:href="#DejaVuSans-32"/>
     <use xlink:href="#DejaVuSans-20" x="63.623047"/>
     <use xlink:href="#DejaVuSans-74" x="95.410156"/>
     <use xlink:href="#DejaVuSans-72" x="134.619141"/>
     <use xlink:href="#DejaVuSans-61" x="175.732422"/>
     <use xlink:href="#DejaVuSans-6e" x="237.011719"/>
     <use xlink:href="#DejaVuSans-73" x="300.390625"/>
     <use xlink:href="#DejaVuSans-66" x="352.490234"/>
     <use xlink:href="#DejaVuSans-6f" x="387.695312"/>
     <use xlink:href="#DejaVuSans-72" x="448.876953"/>
     <use xlink:href="#DejaVuSans-6d" x="488.240234"/>
     <use xlink:href="#DejaVuSans-61" x="585.652344"/>
     <use xlink:href="#DejaVuSans-74" x="646.931641"/>
     <use xlink:href="#DejaVuSans-69" x="686.140625"/>
     <use xlink:href="#DejaVuSans-6f" x="713.923828"/>
     <use xlink:href="#DejaVuSans-6e" x="775.105469"/>
     <use xlink:href="#DejaVuSans-28" x="838.484375"/>
     <use xlink:href="#DejaVuSans-73" x="877.498047"/>
     <use xlink:href="#DejaVuSans-29" x="929.597656"/>
    </g>
   </g>
  </g>
  <g id="text_31">
   <!-- training -->
   <g transform="translate(333.129063 16.318125) scale(0.12 -0.12)">
    <defs>
     <path id="DejaVuSans-67" d="M 2906 1791 
Q 2906 2416 2648 2759 
Q 2391 3103 1925 3103 
Q 1463 3103 1205 2759 
Q 947 2416 947 1791 
Q 947 1169 1205 825 
Q 1463 481 1925 481 
Q 2391 481 2648 825 
Q 2906 1169 2906 1791 
z
M 3481 434 
Q 3481 -459 3084 -895 
Q 2688 -1331 1869 -1331 
Q 1566 -1331 1297 -1286 
Q 1028 -1241 775 -1147 
L 775 -588 
Q 1028 -725 1275 -790 
Q 1522 -856 1778 -856 
Q 2344 -856 2625 -561 
Q 2906 -266 2906 331 
L 2906 616 
Q 2728 306 2450 153 
Q 2172 0 1784 0 
Q 1141 0 747 490 
Q 353 981 353 1791 
Q 353 2603 747 3093 
Q 1141 3584 1784 3584 
Q 2172 3584 2450 3431 
Q 2728 3278 2906 2969 
L 2906 3500 
L 3481 3500 
L 3481 434 
z
" transform="scale(0.015625)"/>
    </defs>
    <use xlink:href="#DejaVuSans-74"/>
    <use xlink:href="#DejaVuSans-72" x="39.208984"/>
    <use xlink:href="#DejaVuSans-61" x="80.322266"/>
    <use xlink:href="#DejaVuSans-69" x="141.601562"/>
    <use xlink:href="#DejaVuSans-6e" x="169.384766"/>
    <use xlink:href="#DejaVuSans-69" x="232.763672"/>
    <use xlink:href="#DejaVuSans-6e" x="260.546875"/>
    <use xlink:href="#DejaVuSans-67" x="323.925781"/>
   </g>
  </g>
 </g>
 <defs>
  <clipPath id="p7d8e1c50a9">
   <rect x="20.5625" y="43.44" width="681.573636" height="298.76"/>
  </clipPath>
  <clipPath id="p7710f1ea37">
   <rect x="20.5625" y="386.16" width="681.573636" height="298.76"/>
  </clipPath>
 </defs>
</svg>
