<?xml version="1.0" encoding="utf-8" standalone="no"?>
<!DOCTYPE svg PUBLIC "-//W3C//DTD SVG 1.1//EN"
  "http://www.w3.org/Graphics/SVG/1.1/DTD/svg11.dtd">
<svg xmlns:xlink="http://www.w3.org/1999/xlink" width="709.336136pt" height="708.798125pt" viewBox="0 0 709.336136 708.798125" xmlns="http://www.w3.org/2000/svg" version="1.1">
 <metadata>
  <rdf:RDF xmlns:dc="http://purl.org/dc/elements/1.1/" xmlns:cc="http://creativecommons.org/ns#" xmlns:rdf="http://www.w3.org/1999/02/22-rdf-syntax-ns#">
   <cc:Work>
    <dc:type rdf:resource="http://purl.org/dc/dcmitype/StillImage"/>
    <dc:date>2023-06-07T00:15:24.937248</dc:date>
    <dc:format>image/svg+xml</dc:format>
    <dc:creator>
     <cc:Agent>
      <dc:title>Matplotlib v3.7.1, https://matplotlib.org/</dc:title>
     </cc:Agent>
    </dc:creator>
   </cc:Work>
  </rdf:RDF>
 </metadata>
 <defs>
  <style type="text/css">*{stroke-linejoin: round; stroke-linecap: butt}</style>
 </defs>
 <g id="figure_1">
  <g id="patch_1">
   <path d="M 0 708.798125 
L 709.336136 708.798125 
L 709.336136 0 
L 0 0 
z
" style="fill: #ffffff"/>
  </g>
  <g id="axes_1">
   <g id="patch_2">
    <path d="M 20.5625 342.2 
L 702.136136 342.2 
L 702.136136 43.44 
L 20.5625 43.44 
z
" style="fill: #ffffff"/>
   </g>
   <g id="matplotlib.axis_1">
    <g id="xtick_1">
     <g id="line2d_1">
      <defs>
       <path id="ma7e3d6f790" d="M 0 0 
L 0 3.5 
" style="stroke: #000000; stroke-width: 0.8"/>
      </defs>
      <g>
       <use xlink:href="#ma7e3d6f790" x="51.370957" y="342.2" style="stroke: #000000; stroke-width: 0.8"/>
      </g>
     </g>
     <g id="text_1">
      <!-- 2014-07-01 -->
      <g transform="translate(22.313145 356.798437) scale(0.1 -0.1)">
       <defs>
        <path id="DejaVuSans-32" d="M 1228 531 
L 3431 531 
L 3431 0 
L 469 0 
L 469 531 
Q 828 903 1448 1529 
Q 2069 2156 2228 2338 
Q 2531 2678 2651 2914 
Q 2772 3150 2772 3378 
Q 2772 3750 2511 3984 
Q 2250 4219 1831 4219 
Q 1534 4219 1204 4116 
Q 875 4013 500 3803 
L 500 4441 
Q 881 4594 1212 4672 
Q 1544 4750 1819 4750 
Q 2544 4750 2975 4387 
Q 3406 4025 3406 3419 
Q 3406 3131 3298 2873 
Q 3191 2616 2906 2266 
Q 2828 2175 2409 1742 
Q 1991 1309 1228 531 
z
" transform="scale(0.015625)"/>
        <path id="DejaVuSans-30" d="M 2034 4250 
Q 1547 4250 1301 3770 
Q 1056 3291 1056 2328 
Q 1056 1369 1301 889 
Q 1547 409 2034 409 
Q 2525 409 2770 889 
Q 3016 1369 3016 2328 
Q 3016 3291 2770 3770 
Q 2525 4250 2034 4250 
z
M 2034 4750 
Q 2819 4750 3233 4129 
Q 3647 3509 3647 2328 
Q 3647 1150 3233 529 
Q 2819 -91 2034 -91 
Q 1250 -91 836 529 
Q 422 1150 422 2328 
Q 422 3509 836 4129 
Q 1250 4750 2034 4750 
z
" transform="scale(0.015625)"/>
        <path id="DejaVuSans-31" d="M 794 531 
L 1825 531 
L 1825 4091 
L 703 3866 
L 703 4441 
L 1819 4666 
L 2450 4666 
L 2450 531 
L 3481 531 
L 3481 0 
L 794 0 
L 794 531 
z
" transform="scale(0.015625)"/>
        <path id="DejaVuSans-34" d="M 2419 4116 
L 825 1625 
L 2419 1625 
L 2419 4116 
z
M 2253 4666 
L 3047 4666 
L 3047 1625 
L 3713 1625 
L 3713 1100 
L 3047 1100 
L 3047 0 
L 2419 0 
L 2419 1100 
L 313 1100 
L 313 1709 
L 2253 4666 
z
" transform="scale(0.015625)"/>
        <path id="DejaVuSans-2d" d="M 313 2009 
L 1997 2009 
L 1997 1497 
L 313 1497 
L 313 2009 
z
" transform="scale(0.015625)"/>
        <path id="DejaVuSans-37" d="M 525 4666 
L 3525 4666 
L 3525 4397 
L 1831 0 
L 1172 0 
L 2766 4134 
L 525 4134 
L 525 4666 
z
" transform="scale(0.015625)"/>
       </defs>
       <use xlink:href="#DejaVuSans-32"/>
       <use xlink:href="#DejaVuSans-30" x="63.623047"/>
       <use xlink:href="#DejaVuSans-31" x="127.246094"/>
       <use xlink:href="#DejaVuSans-34" x="190.869141"/>
       <use xlink:href="#DejaVuSans-2d" x="254.492188"/>
       <use xlink:href="#DejaVuSans-30" x="290.576172"/>
       <use xlink:href="#DejaVuSans-37" x="354.199219"/>
       <use xlink:href="#DejaVuSans-2d" x="417.822266"/>
       <use xlink:href="#DejaVuSans-30" x="453.90625"/>
       <use xlink:href="#DejaVuSans-31" x="517.529297"/>
      </g>
     </g>
    </g>
    <g id="xtick_2">
     <g id="line2d_2">
      <g>
       <use xlink:href="#ma7e3d6f790" x="175.327869" y="342.2" style="stroke: #000000; stroke-width: 0.8"/>
      </g>
     </g>
     <g id="text_2">
      <!-- 2014-07-02 -->
      <g transform="translate(146.270057 356.798437) scale(0.1 -0.1)">
       <use xlink:href="#DejaVuSans-32"/>
       <use xlink:href="#DejaVuSans-30" x="63.623047"/>
       <use xlink:href="#DejaVuSans-31" x="127.246094"/>
       <use xlink:href="#DejaVuSans-34" x="190.869141"/>
       <use xlink:href="#DejaVuSans-2d" x="254.492188"/>
       <use xlink:href="#DejaVuSans-30" x="290.576172"/>
       <use xlink:href="#DejaVuSans-37" x="354.199219"/>
       <use xlink:href="#DejaVuSans-2d" x="417.822266"/>
       <use xlink:href="#DejaVuSans-30" x="453.90625"/>
       <use xlink:href="#DejaVuSans-32" x="517.529297"/>
      </g>
     </g>
    </g>
    <g id="xtick_3">
     <g id="line2d_3">
      <g>
       <use xlink:href="#ma7e3d6f790" x="299.284781" y="342.2" style="stroke: #000000; stroke-width: 0.8"/>
      </g>
     </g>
     <g id="text_3">
      <!-- 2014-07-03 -->
      <g transform="translate(270.226969 356.798437) scale(0.1 -0.1)">
       <defs>
        <path id="DejaVuSans-33" d="M 2597 2516 
Q 3050 2419 3304 2112 
Q 3559 1806 3559 1356 
Q 3559 666 3084 287 
Q 2609 -91 1734 -91 
Q 1441 -91 1130 -33 
Q 819 25 488 141 
L 488 750 
Q 750 597 1062 519 
Q 1375 441 1716 441 
Q 2309 441 2620 675 
Q 2931 909 2931 1356 
Q 2931 1769 2642 2001 
Q 2353 2234 1838 2234 
L 1294 2234 
L 1294 2753 
L 1863 2753 
Q 2328 2753 2575 2939 
Q 2822 3125 2822 3475 
Q 2822 3834 2567 4026 
Q 2313 4219 1838 4219 
Q 1578 4219 1281 4162 
Q 984 4106 628 3988 
L 628 4550 
Q 988 4650 1302 4700 
Q 1616 4750 1894 4750 
Q 2613 4750 3031 4423 
Q 3450 4097 3450 3541 
Q 3450 3153 3228 2886 
Q 3006 2619 2597 2516 
z
" transform="scale(0.015625)"/>
       </defs>
       <use xlink:href="#DejaVuSans-32"/>
       <use xlink:href="#DejaVuSans-30" x="63.623047"/>
       <use xlink:href="#DejaVuSans-31" x="127.246094"/>
       <use xlink:href="#DejaVuSans-34" x="190.869141"/>
       <use xlink:href="#DejaVuSans-2d" x="254.492188"/>
       <use xlink:href="#DejaVuSans-30" x="290.576172"/>
       <use xlink:href="#DejaVuSans-37" x="354.199219"/>
       <use xlink:href="#DejaVuSans-2d" x="417.822266"/>
       <use xlink:href="#DejaVuSans-30" x="453.90625"/>
       <use xlink:href="#DejaVuSans-33" x="517.529297"/>
      </g>
     </g>
    </g>
    <g id="xtick_4">
     <g id="line2d_4">
      <g>
       <use xlink:href="#ma7e3d6f790" x="423.241693" y="342.2" style="stroke: #000000; stroke-width: 0.8"/>
      </g>
     </g>
     <g id="text_4">
      <!-- 2014-07-04 -->
      <g transform="translate(394.18388 356.798437) scale(0.1 -0.1)">
       <use xlink:href="#DejaVuSans-32"/>
       <use xlink:href="#DejaVuSans-30" x="63.623047"/>
       <use xlink:href="#DejaVuSans-31" x="127.246094"/>
       <use xlink:href="#DejaVuSans-34" x="190.869141"/>
       <use xlink:href="#DejaVuSans-2d" x="254.492188"/>
       <use xlink:href="#DejaVuSans-30" x="290.576172"/>
       <use xlink:href="#DejaVuSans-37" x="354.199219"/>
       <use xlink:href="#DejaVuSans-2d" x="417.822266"/>
       <use xlink:href="#DejaVuSans-30" x="453.90625"/>
       <use xlink:href="#DejaVuSans-34" x="517.529297"/>
      </g>
     </g>
    </g>
    <g id="xtick_5">
     <g id="line2d_5">
      <g>
       <use xlink:href="#ma7e3d6f790" x="547.198605" y="342.2" style="stroke: #000000; stroke-width: 0.8"/>
      </g>
     </g>
     <g id="text_5">
      <!-- 2014-07-05 -->
      <g transform="translate(518.140792 356.798437) scale(0.1 -0.1)">
       <defs>
        <path id="DejaVuSans-35" d="M 691 4666 
L 3169 4666 
L 3169 4134 
L 1269 4134 
L 1269 2991 
Q 1406 3038 1543 3061 
Q 1681 3084 1819 3084 
Q 2600 3084 3056 2656 
Q 3513 2228 3513 1497 
Q 3513 744 3044 326 
Q 2575 -91 1722 -91 
Q 1428 -91 1123 -41 
Q 819 9 494 109 
L 494 744 
Q 775 591 1075 516 
Q 1375 441 1709 441 
Q 2250 441 2565 725 
Q 2881 1009 2881 1497 
Q 2881 1984 2565 2268 
Q 2250 2553 1709 2553 
Q 1456 2553 1204 2497 
Q 953 2441 691 2322 
L 691 4666 
z
" transform="scale(0.015625)"/>
       </defs>
       <use xlink:href="#DejaVuSans-32"/>
       <use xlink:href="#DejaVuSans-30" x="63.623047"/>
       <use xlink:href="#DejaVuSans-31" x="127.246094"/>
       <use xlink:href="#DejaVuSans-34" x="190.869141"/>
       <use xlink:href="#DejaVuSans-2d" x="254.492188"/>
       <use xlink:href="#DejaVuSans-30" x="290.576172"/>
       <use xlink:href="#DejaVuSans-37" x="354.199219"/>
       <use xlink:href="#DejaVuSans-2d" x="417.822266"/>
       <use xlink:href="#DejaVuSans-30" x="453.90625"/>
       <use xlink:href="#DejaVuSans-35" x="517.529297"/>
      </g>
     </g>
    </g>
    <g id="xtick_6">
     <g id="line2d_6">
      <g>
       <use xlink:href="#ma7e3d6f790" x="671.155517" y="342.2" style="stroke: #000000; stroke-width: 0.8"/>
      </g>
     </g>
     <g id="text_6">
      <!-- 2014-07-06 -->
      <g transform="translate(642.097704 356.798437) scale(0.1 -0.1)">
       <defs>
        <path id="DejaVuSans-36" d="M 2113 2584 
Q 1688 2584 1439 2293 
Q 1191 2003 1191 1497 
Q 1191 994 1439 701 
Q 1688 409 2113 409 
Q 2538 409 2786 701 
Q 3034 994 3034 1497 
Q 3034 2003 2786 2293 
Q 2538 2584 2113 2584 
z
M 3366 4563 
L 3366 3988 
Q 3128 4100 2886 4159 
Q 2644 4219 2406 4219 
Q 1781 4219 1451 3797 
Q 1122 3375 1075 2522 
Q 1259 2794 1537 2939 
Q 1816 3084 2150 3084 
Q 2853 3084 3261 2657 
Q 3669 2231 3669 1497 
Q 3669 778 3244 343 
Q 2819 -91 2113 -91 
Q 1303 -91 875 529 
Q 447 1150 447 2328 
Q 447 3434 972 4092 
Q 1497 4750 2381 4750 
Q 2619 4750 2861 4703 
Q 3103 4656 3366 4563 
z
" transform="scale(0.015625)"/>
       </defs>
       <use xlink:href="#DejaVuSans-32"/>
       <use xlink:href="#DejaVuSans-30" x="63.623047"/>
       <use xlink:href="#DejaVuSans-31" x="127.246094"/>
       <use xlink:href="#DejaVuSans-34" x="190.869141"/>
       <use xlink:href="#DejaVuSans-2d" x="254.492188"/>
       <use xlink:href="#DejaVuSans-30" x="290.576172"/>
       <use xlink:href="#DejaVuSans-37" x="354.199219"/>
       <use xlink:href="#DejaVuSans-2d" x="417.822266"/>
       <use xlink:href="#DejaVuSans-30" x="453.90625"/>
       <use xlink:href="#DejaVuSans-36" x="517.529297"/>
      </g>
     </g>
    </g>
   </g>
   <g id="matplotlib.axis_2">
    <g id="ytick_1">
     <g id="line2d_7">
      <defs>
       <path id="m8fabf7df05" d="M 0 0 
L -3.5 0 
" style="stroke: #000000; stroke-width: 0.8"/>
      </defs>
      <g>
       <use xlink:href="#m8fabf7df05" x="20.5625" y="328.617572" style="stroke: #000000; stroke-width: 0.8"/>
      </g>
     </g>
     <g id="text_7">
      <!-- 0 -->
      <g transform="translate(7.2 332.416791) scale(0.1 -0.1)">
       <use xlink:href="#DejaVuSans-30"/>
      </g>
     </g>
    </g>
    <g id="ytick_2">
     <g id="line2d_8">
      <g>
       <use xlink:href="#m8fabf7df05" x="20.5625" y="289.824457" style="stroke: #000000; stroke-width: 0.8"/>
      </g>
     </g>
     <g id="text_8">
      <!-- 1 -->
      <g transform="translate(7.2 293.623675) scale(0.1 -0.1)">
       <use xlink:href="#DejaVuSans-31"/>
      </g>
     </g>
    </g>
    <g id="ytick_3">
     <g id="line2d_9">
      <g>
       <use xlink:href="#m8fabf7df05" x="20.5625" y="251.031341" style="stroke: #000000; stroke-width: 0.8"/>
      </g>
     </g>
     <g id="text_9">
      <!-- 2 -->
      <g transform="translate(7.2 254.83056) scale(0.1 -0.1)">
       <use xlink:href="#DejaVuSans-32"/>
      </g>
     </g>
    </g>
    <g id="ytick_4">
     <g id="line2d_10">
      <g>
       <use xlink:href="#m8fabf7df05" x="20.5625" y="212.238226" style="stroke: #000000; stroke-width: 0.8"/>
      </g>
     </g>
     <g id="text_10">
      <!-- 3 -->
      <g transform="translate(7.2 216.037445) scale(0.1 -0.1)">
       <use xlink:href="#DejaVuSans-33"/>
      </g>
     </g>
    </g>
    <g id="ytick_5">
     <g id="line2d_11">
      <g>
       <use xlink:href="#m8fabf7df05" x="20.5625" y="173.44511" style="stroke: #000000; stroke-width: 0.8"/>
      </g>
     </g>
     <g id="text_11">
      <!-- 4 -->
      <g transform="translate(7.2 177.244329) scale(0.1 -0.1)">
       <use xlink:href="#DejaVuSans-34"/>
      </g>
     </g>
    </g>
    <g id="ytick_6">
     <g id="line2d_12">
      <g>
       <use xlink:href="#m8fabf7df05" x="20.5625" y="134.651995" style="stroke: #000000; stroke-width: 0.8"/>
      </g>
     </g>
     <g id="text_12">
      <!-- 5 -->
      <g transform="translate(7.2 138.451214) scale(0.1 -0.1)">
       <use xlink:href="#DejaVuSans-35"/>
      </g>
     </g>
    </g>
    <g id="ytick_7">
     <g id="line2d_13">
      <g>
       <use xlink:href="#m8fabf7df05" x="20.5625" y="95.858879" style="stroke: #000000; stroke-width: 0.8"/>
      </g>
     </g>
     <g id="text_13">
      <!-- 6 -->
      <g transform="translate(7.2 99.658098) scale(0.1 -0.1)">
       <use xlink:href="#DejaVuSans-36"/>
      </g>
     </g>
    </g>
    <g id="ytick_8">
     <g id="line2d_14">
      <g>
       <use xlink:href="#m8fabf7df05" x="20.5625" y="57.065764" style="stroke: #000000; stroke-width: 0.8"/>
      </g>
     </g>
     <g id="text_14">
      <!-- 7 -->
      <g transform="translate(7.2 60.864983) scale(0.1 -0.1)">
       <use xlink:href="#DejaVuSans-37"/>
      </g>
     </g>
    </g>
   </g>
   <g id="line2d_15">
    <path d="M 51.54312 328.617462 
L 60.409482 328.401185 
L 63.680567 327.941092 
L 67.812465 327.18571 
L 68.93152 326.770419 
L 69.534088 326.308976 
L 70.050575 325.578799 
L 70.567063 324.363081 
L 71.08355 322.515128 
L 71.600037 319.971219 
L 72.460849 314.352819 
L 73.493823 305.411897 
L 75.731934 282.793682 
L 77.453558 269.241238 
L 77.711801 268.658884 
L 77.970045 267.138118 
L 78.142207 267.160944 
L 78.486532 265.988227 
L 78.572613 266.034633 
L 78.744775 265.566024 
L 78.916938 265.278223 
L 79.0891 265.343655 
L 79.347344 264.819773 
L 79.605587 265.061546 
L 79.863831 264.795536 
L 80.035993 265.018339 
L 80.294237 264.864274 
L 80.55248 265.064547 
L 80.896805 264.62546 
L 81.24113 262.864594 
L 81.585455 261.801302 
L 81.671536 261.867811 
L 81.843698 262.03956 
L 82.015861 262.069143 
L 82.618429 263.574904 
L 82.790591 263.7901 
L 83.220997 263.443267 
L 83.565322 262.772201 
L 83.909647 262.674967 
L 84.340053 263.584814 
L 84.512215 263.90186 
L 84.684378 262.458198 
L 84.85654 261.096412 
L 85.028702 260.09192 
L 85.889514 247.625934 
L 86.406001 237.546624 
L 86.922488 209.28638 
L 87.352894 191.452811 
L 88.041544 169.712806 
L 88.47195 163.906173 
L 88.644112 163.511426 
L 88.816275 163.63157 
L 88.902356 163.570305 
L 89.074518 163.945426 
L 89.160599 164.152678 
L 89.93533 170.062048 
L 90.62398 175.804808 
L 90.710061 175.669069 
L 90.796142 174.66276 
L 90.968304 168.174476 
L 91.312629 140.833564 
L 91.829116 103.8268 
L 92.345603 80.948456 
L 92.776009 71.992817 
L 93.292496 63.655288 
L 93.808984 58.324072 
L 94.153308 57.094436 
L 94.325471 57.038295 
L 94.497633 57.342772 
L 94.755877 58.512548 
L 95.272364 62.656396 
L 95.961013 70.160867 
L 97.424393 84.961357 
L 97.510475 84.989196 
L 97.596556 84.881039 
L 97.854799 85.288605 
L 98.026962 85.234054 
L 98.199124 85.348021 
L 98.457368 84.937198 
L 98.801692 83.605472 
L 100.351154 77.330692 
L 102.072778 73.034698 
L 102.24494 73.092134 
L 102.503184 73.70784 
L 102.847508 75.730948 
L 103.277914 80.036357 
L 103.794401 87.244805 
L 104.655213 103.151975 
L 105.429944 120.959147 
L 106.118594 135.25342 
L 106.979405 145.249147 
L 107.581974 149.274663 
L 108.098461 151.638911 
L 108.78711 153.976225 
L 111.713871 162.106669 
L 112.316439 164.564628 
L 113.177251 168.671609 
L 114.124144 173.024077 
L 115.157118 177.154116 
L 116.104011 180.281518 
L 116.878742 182.240104 
L 117.653473 183.533235 
L 117.739554 183.522293 
L 118.16996 184.116597 
L 118.686447 185.330713 
L 118.858609 185.230528 
L 119.030772 186.16845 
L 119.116853 186.522252 
L 119.289015 185.452263 
L 119.375097 185.705991 
L 119.547259 187.940873 
L 119.719421 185.697352 
L 119.805503 186.180862 
L 119.977665 188.531653 
L 120.149827 186.276765 
L 120.235908 186.488956 
L 120.408071 188.865791 
L 120.580233 186.510228 
L 120.838477 189.433458 
L 121.010639 186.97143 
L 121.182802 189.668087 
L 121.268883 189.560465 
L 121.441045 187.753433 
L 121.613207 190.419235 
L 121.78537 188.044009 
L 121.871451 188.50065 
L 122.043613 191.028883 
L 122.215776 188.743381 
L 122.301857 189.011556 
L 122.474019 191.505974 
L 122.646182 189.274727 
L 122.732263 189.61571 
L 122.904425 191.904504 
L 122.990507 191.441555 
L 123.162669 190.049256 
L 123.420912 192.22513 
L 123.679156 190.861411 
L 123.9374 192.567389 
L 124.023481 192.506281 
L 124.195643 191.258998 
L 124.453887 193.069351 
L 124.539968 192.848448 
L 124.71213 191.619052 
L 124.970374 193.270267 
L 125.056455 193.197098 
L 125.228617 191.921633 
L 125.486861 193.4956 
L 125.572942 193.487304 
L 125.745105 192.155698 
L 126.089429 193.773976 
L 126.261592 192.435073 
L 126.347673 192.745072 
L 126.519835 193.862776 
L 126.605916 194.016661 
L 126.778079 192.702646 
L 126.86416 192.812423 
L 127.036322 193.967558 
L 127.122404 194.139793 
L 127.380647 192.866816 
L 127.55281 194.003601 
L 127.638891 194.193086 
L 127.897134 192.853377 
L 128.069297 194.017688 
L 128.155378 194.220601 
L 128.413621 192.816243 
L 128.585784 193.991115 
L 128.671865 194.202788 
L 128.930109 192.663218 
L 129.102271 193.972747 
L 129.188352 194.227335 
L 129.446596 192.663847 
L 129.618758 193.935547 
L 129.704839 194.206709 
L 129.963083 192.588958 
L 130.221326 194.117512 
L 130.47957 192.496255 
L 130.651732 193.738201 
L 130.737813 193.974134 
L 130.996057 192.410591 
L 131.168219 193.711351 
L 131.254301 193.93638 
L 131.512544 192.463467 
L 131.684707 193.840144 
L 131.770788 194.020185 
L 131.94295 192.619896 
L 132.029031 192.69866 
L 132.201194 194.040505 
L 132.287275 194.246859 
L 132.459437 192.890114 
L 132.545518 193.02982 
L 132.717681 194.332736 
L 132.803762 194.514451 
L 132.975924 193.273485 
L 133.062006 193.33648 
L 133.234168 194.663231 
L 133.320249 194.836548 
L 133.492412 193.691651 
L 133.578493 193.751196 
L 133.750655 195.042967 
L 133.836736 195.235799 
L 134.008899 194.201484 
L 134.09498 194.240385 
L 134.267142 195.531934 
L 134.353223 195.734052 
L 134.611467 194.92556 
L 134.783629 196.154003 
L 134.869711 196.351922 
L 135.127954 195.68162 
L 135.386198 197.002922 
L 135.55836 196.724777 
L 135.644441 196.725637 
L 135.902685 197.63622 
L 135.988766 197.598391 
L 136.074847 197.689161 
L 136.505253 198.67922 
L 138.054715 201.922826 
L 139.690257 205.11781 
L 140.551069 206.308341 
L 143.047423 208.674078 
L 144.166479 209.509114 
L 146.146346 210.527374 
L 148.900944 211.523278 
L 150.622568 212.921829 
L 151.569461 213.707059 
L 152.085948 213.981412 
L 155.615277 215.780352 
L 155.873521 215.77631 
L 156.476089 215.355869 
L 157.853388 214.005423 
L 158.197713 214.001603 
L 158.628119 214.244398 
L 159.230687 214.923183 
L 159.919336 215.782831 
L 160.86623 216.899768 
L 162.071366 217.989735 
L 163.965152 219.96016 
L 164.653802 220.231285 
L 165.342451 220.506517 
L 166.031101 221.050413 
L 167.838806 222.639567 
L 168.613537 223.231836 
L 170.162998 224.52455 
L 171.109891 225.367689 
L 172.831515 226.919246 
L 173.692327 227.539789 
L 174.467057 227.839558 
L 175.758275 228.283797 
L 176.705168 228.873513 
L 177.307737 229.161906 
L 177.738143 229.254646 
L 179.02936 229.291438 
L 179.890172 229.01062 
L 180.320578 228.696765 
L 180.923147 228.060461 
L 181.525715 227.568988 
L 182.042202 227.499075 
L 182.64477 227.676711 
L 183.419501 228.112191 
L 184.710719 229.160121 
L 185.48545 229.931885 
L 186.94883 231.526709 
L 187.551398 231.988068 
L 188.498291 233.07895 
L 189.789509 234.579952 
L 190.219915 234.834891 
L 191.941539 235.66485 
L 194.610056 237.764401 
L 195.470867 238.489753 
L 196.417761 239.592216 
L 197.967222 241.863113 
L 201.066145 246.740878 
L 201.238307 246.388353 
L 201.754794 244.748847 
L 202.271281 241.907018 
L 203.992905 229.522534 
L 204.33723 224.706857 
L 205.111961 215.414573 
L 206.058854 209.328084 
L 207.177909 198.178452 
L 207.436153 194.489174 
L 207.522234 194.206423 
L 207.780477 189.299939 
L 207.866559 189.57013 
L 207.95264 189.99552 
L 208.210883 185.598444 
L 208.296965 185.733544 
L 208.383046 186.438965 
L 208.469127 185.867691 
L 208.641289 184.167318 
L 208.727371 184.123274 
L 208.985614 183.463664 
L 209.071695 183.541929 
L 209.157776 184.64378 
L 209.329939 183.157087 
L 209.41602 183.537554 
L 209.674264 184.639332 
L 209.846426 184.359411 
L 209.932507 185.607471 
L 210.018588 185.340267 
L 210.10467 185.058293 
L 210.276832 186.403079 
L 210.362913 186.622918 
L 210.448994 187.373058 
L 210.535075 186.663891 
L 210.621157 186.790667 
L 210.793319 188.819204 
L 210.965481 188.9934 
L 211.051563 188.629757 
L 211.309806 191.028032 
L 211.395887 190.783729 
L 211.56805 190.605584 
L 211.740212 193.395174 
L 211.826293 192.989532 
L 211.998456 191.991408 
L 212.170618 194.701771 
L 212.256699 194.104314 
L 212.34278 192.638745 
L 212.428862 192.978886 
L 212.601024 195.857804 
L 212.859268 194.160363 
L 213.03143 195.941396 
L 213.203592 193.866115 
L 213.289674 194.234715 
L 213.461836 195.964509 
L 213.720079 192.130679 
L 213.806161 192.288606 
L 213.978323 193.046404 
L 214.150485 189.638869 
L 214.408729 184.748535 
L 214.925216 178.726067 
L 216.130353 163.591837 
L 216.732921 160.355038 
L 217.249408 154.950404 
L 218.540626 140.04394 
L 218.79887 139.484264 
L 218.971032 139.771668 
L 219.229276 141.315289 
L 219.659681 146.017813 
L 220.520493 159.792551 
L 221.639549 178.532134 
L 222.41428 188.149595 
L 223.016848 195.102789 
L 223.102929 194.966191 
L 223.18901 194.511122 
L 223.447254 197.43658 
L 223.619416 197.373826 
L 223.791579 198.613219 
L 223.963741 199.366328 
L 224.135903 199.692476 
L 224.480228 200.793708 
L 225.254959 201.978921 
L 227.406988 204.516449 
L 228.95645 207.286339 
L 230.41983 210.391478 
L 232.227535 214.33428 
L 234.379565 217.681031 
L 234.809971 218.083177 
L 235.584701 218.607115 
L 236.617676 219.529527 
L 237.736731 220.645908 
L 238.597543 221.112909 
L 239.544436 221.429937 
L 240.147004 221.687716 
L 241.954709 222.869414 
L 244.19282 224.372562 
L 244.967551 225.152557 
L 245.484038 225.417144 
L 247.0335 226.412567 
L 248.410799 227.354282 
L 251.681884 229.622997 
L 253.403507 231.139139 
L 254.006076 231.385245 
L 255.297294 231.619846 
L 255.813781 231.507554 
L 256.674593 231.017515 
L 257.96581 230.216292 
L 258.482298 230.369733 
L 259.170947 230.935975 
L 259.859597 231.458636 
L 262.355951 233.338051 
L 263.216763 234.023014 
L 263.905413 234.282374 
L 264.507981 234.260935 
L 265.024468 234.264931 
L 265.713117 234.547053 
L 267.176498 235.134346 
L 267.865147 235.115237 
L 269.328527 235.050911 
L 269.931096 234.951253 
L 270.361502 234.969066 
L 270.96407 235.242642 
L 272.083125 235.893717 
L 273.202181 236.179427 
L 274.321236 236.36511 
L 275.784617 236.938594 
L 276.73151 236.927163 
L 277.764484 236.520577 
L 278.280971 236.614806 
L 278.969621 237.016138 
L 281.8103 239.218353 
L 283.101518 240.192124 
L 284.478817 241.039629 
L 285.081385 241.797556 
L 285.856116 243.189374 
L 288.35247 248.023493 
L 289.557607 249.921415 
L 290.848825 251.469883 
L 292.053961 252.51476 
L 292.914773 252.952479 
L 296.013696 253.99953 
L 299.026538 254.594555 
L 300.748161 254.423851 
L 301.953298 253.682562 
L 303.158435 251.709478 
L 303.588841 250.175235 
L 304.105328 247.876979 
L 304.707896 245.168595 
L 305.913033 239.209501 
L 307.548575 229.663258 
L 309.35628 218.160425 
L 309.786686 215.625394 
L 310.561417 213.510259 
L 311.077904 212.674381 
L 311.163985 212.738476 
L 311.250066 212.789068 
L 311.422229 211.737892 
L 311.680472 210.417523 
L 312.369122 209.408531 
L 313.402096 209.21433 
L 313.746421 208.969666 
L 314.004664 209.10718 
L 314.262908 209.576974 
L 315.295882 211.819616 
L 316.070613 213.29977 
L 317.017506 215.572564 
L 317.706155 217.634702 
L 318.911292 221.968025 
L 319.772104 224.994141 
L 320.546835 226.917526 
L 321.407647 228.436655 
L 322.526702 229.99267 
L 324.248326 231.980502 
L 326.486437 234.58601 
L 327.863736 236.532822 
L 329.58536 239.533124 
L 333.372932 246.812817 
L 334.491987 248.31885 
L 335.869286 249.841874 
L 337.504829 251.346912 
L 338.882128 252.363262 
L 341.120239 253.643078 
L 342.153213 254.336069 
L 343.960918 256.019525 
L 347.232003 259.618635 
L 347.318084 259.575539 
L 347.576328 260.220726 
L 347.662409 260.120319 
L 347.74849 259.97505 
L 347.834572 260.125119 
L 348.006734 260.794234 
L 348.264977 260.362661 
L 348.43714 261.421316 
L 348.523221 261.315526 
L 348.695383 260.831664 
L 348.867546 261.995401 
L 348.953627 261.871021 
L 349.125789 261.376495 
L 349.297952 262.416897 
L 349.470114 261.748152 
L 349.556195 261.795822 
L 349.728358 262.805535 
L 349.90052 262.135704 
L 349.986601 262.230377 
L 350.158764 263.192282 
L 350.330926 262.528648 
L 350.417007 262.685783 
L 350.58917 263.586275 
L 350.761332 262.937301 
L 350.847413 263.135511 
L 351.019576 263.973295 
L 351.191738 263.348548 
L 351.449981 264.354613 
L 351.536063 264.008968 
L 351.622144 263.75593 
L 351.880387 264.744907 
L 352.05255 264.17626 
L 352.310793 265.122141 
L 352.482956 264.586545 
L 352.741199 265.487754 
L 352.913362 264.984007 
L 353.171605 265.858357 
L 353.343768 265.389789 
L 353.602011 266.233339 
L 353.774174 265.78406 
L 354.032417 266.578734 
L 354.20458 266.160027 
L 354.462823 266.950067 
L 354.634985 266.551278 
L 354.893229 267.314871 
L 355.065391 266.950506 
L 355.323635 267.677658 
L 355.495797 267.322529 
L 355.754041 268.02579 
L 355.926203 267.693548 
L 356.184447 268.383976 
L 356.356609 268.069603 
L 356.614853 268.724229 
L 356.787015 268.421009 
L 357.045259 269.067191 
L 357.217421 268.780675 
L 357.475665 269.420669 
L 357.647827 269.143805 
L 357.906071 269.76888 
L 358.078233 269.496756 
L 358.336477 270.10485 
L 358.508639 269.837235 
L 358.766883 270.437236 
L 358.939045 270.174102 
L 359.197288 270.758088 
L 359.369451 270.492984 
L 359.627694 271.07138 
L 359.799857 270.814512 
L 360.0581 271.382215 
L 360.230263 271.126208 
L 360.488506 271.685499 
L 360.574587 271.527309 
L 360.660669 271.436969 
L 360.918912 271.980417 
L 361.004993 271.843643 
L 361.091075 271.741668 
L 361.263237 272.114782 
L 361.349318 272.273791 
L 361.521481 272.048439 
L 361.607562 272.133031 
L 361.779724 272.559585 
L 362.037968 272.412221 
L 362.21013 272.833749 
L 362.296211 272.785099 
L 362.468374 272.687457 
L 362.726617 273.092314 
L 362.89878 272.955872 
L 363.157023 273.379051 
L 363.329186 273.225189 
L 363.587429 273.656937 
L 363.67351 273.561645 
L 363.759591 273.501859 
L 363.931754 273.772915 
L 364.017835 273.916478 
L 364.103916 273.864272 
L 364.276079 273.819743 
L 364.534322 274.158312 
L 364.706485 274.067579 
L 365.050809 274.370789 
L 365.222972 274.382188 
L 365.481215 274.662183 
L 365.653378 274.610255 
L 365.997702 274.888192 
L 366.169865 274.907148 
L 366.428108 275.153971 
L 366.600271 275.124203 
L 367.030677 275.369214 
L 367.202839 275.466758 
L 367.461083 275.61428 
L 367.719326 275.71785 
L 368.063651 275.863684 
L 369.010544 276.329237 
L 370.301762 276.826579 
L 371.679061 277.112886 
L 373.658928 277.26875 
L 380.373261 277.433503 
L 402.323964 278.075092 
L 428.406564 279.080953 
L 464.560664 280.838476 
L 497.443678 282.758586 
L 535.405482 285.363738 
L 546.596036 286.321981 
L 565.447817 288.083226 
L 582.147567 289.889708 
L 588.173251 290.925587 
L 614.255851 295.945257 
L 640.25237 301.640361 
L 647.397108 302.916718 
L 655.746984 304.211715 
L 663.752534 305.259446 
L 671.155517 306.05766 
L 671.155517 306.05766 
" clip-path="url(#p43336a1e26)" style="fill: none; stroke: #1f77b4; stroke-width: 1.5; stroke-linecap: square"/>
   </g>
   <g id="line2d_16">
    <path d="M 51.54312 328.617572 
L 53.264744 328.520481 
L 54.297718 328.20213 
L 55.93326 327.39219 
L 57.654884 326.287404 
L 60.925969 324.207492 
L 61.958944 323.971638 
L 63.250162 323.915938 
L 65.574354 323.871664 
L 66.263003 323.598272 
L 66.865571 323.169046 
L 67.640302 322.383335 
L 68.415033 321.279257 
L 69.275845 319.625088 
L 70.136657 317.549421 
L 71.255712 314.306184 
L 72.202605 311.021706 
L 73.063417 307.161555 
L 74.182472 301.092274 
L 76.420583 286.863108 
L 80.122075 263.822132 
L 81.413292 256.66387 
L 82.532348 249.214492 
L 83.134916 246.63362 
L 83.651403 245.329462 
L 84.081809 244.780266 
L 84.253972 244.746006 
L 84.426134 244.769131 
L 84.598296 244.580993 
L 84.85654 243.710659 
L 85.114783 242.23672 
L 85.459108 238.756347 
L 85.975595 231.593104 
L 86.836407 215.207452 
L 90.021411 149.331193 
L 91.140467 132.695568 
L 92.08736 121.576352 
L 92.948172 113.780725 
L 93.895065 107.243886 
L 94.755877 102.792138 
L 95.961013 98.32049 
L 96.563582 95.804559 
L 97.080069 92.969262 
L 97.682637 88.006779 
L 99.662504 66.316362 
L 100.178991 63.775494 
L 100.609397 62.647027 
L 100.953722 62.262825 
L 101.211966 62.253249 
L 101.556291 62.52529 
L 101.986696 63.260403 
L 102.503184 64.667798 
L 103.191833 67.267229 
L 104.224807 72.172304 
L 106.376837 83.818233 
L 109.734003 101.59338 
L 112.40252 114.440086 
L 114.038063 121.48471 
L 114.812794 123.599839 
L 116.276174 127.540223 
L 117.653473 131.998968 
L 121.268883 143.956979 
L 123.334831 149.868842 
L 124.884293 153.767686 
L 126.605916 157.451586 
L 127.897134 159.797396 
L 129.188352 161.68659 
L 130.47957 163.215291 
L 132.029031 164.796451 
L 132.717681 165.981232 
L 133.492412 167.798097 
L 134.525386 170.844049 
L 136.24701 176.757291 
L 140.464988 191.433241 
L 141.3258 193.375349 
L 146.40459 202.865861 
L 147.265402 204.215639 
L 151.052974 209.368972 
L 152.258111 210.988552 
L 155.09879 214.024951 
L 157.681226 217.78095 
L 158.886362 219.162381 
L 160.435824 221.104428 
L 161.210554 221.68946 
L 161.899204 221.953948 
L 162.587853 222.228278 
L 163.448665 222.835638 
L 164.309477 223.785671 
L 169.302186 229.254145 
L 170.076917 229.786479 
L 171.884622 230.796162 
L 172.745434 231.641341 
L 175.069626 234.290757 
L 176.274762 234.840736 
L 177.652061 235.415914 
L 178.943279 235.418004 
L 179.976253 235.45083 
L 182.128283 235.900739 
L 183.591663 236.687103 
L 184.366394 237.309405 
L 186.001937 238.858895 
L 186.862749 239.719469 
L 187.465317 239.953798 
L 188.41221 240.300446 
L 189.87559 241.222305 
L 190.478158 241.472994 
L 191.855458 241.881603 
L 192.458026 242.399919 
L 193.232757 243.392914 
L 194.351812 245.242002 
L 196.676004 249.6465 
L 200.549658 256.874731 
L 201.238307 257.957972 
L 201.496551 257.848278 
L 201.754794 257.301817 
L 202.1852 255.403475 
L 202.701687 251.75187 
L 203.562499 243.5694 
L 206.144935 218.110315 
L 207.091828 210.891894 
L 208.124802 204.702965 
L 209.071695 200.354717 
L 209.932507 197.368271 
L 210.621157 195.628058 
L 211.395887 194.246575 
L 212.170618 192.974575 
L 212.687105 191.621801 
L 213.117511 189.966172 
L 213.547917 187.709852 
L 214.064404 183.400965 
L 214.49481 177.483951 
L 215.872109 156.629405 
L 216.474677 151.085624 
L 216.991165 148.189541 
L 217.421571 146.824563 
L 217.765895 146.282038 
L 218.11022 146.115957 
L 218.368464 146.201316 
L 218.712788 146.560666 
L 219.143194 147.343822 
L 219.745763 148.919637 
L 220.692656 152.122119 
L 222.500361 159.256016 
L 226.80442 176.325095 
L 228.353882 181.700766 
L 229.472937 184.779547 
L 232.141454 191.219777 
L 233.260509 193.210021 
L 234.465646 194.968216 
L 235.154295 195.658655 
L 236.015107 196.192093 
L 236.962 196.805861 
L 237.65065 197.560022 
L 239.974842 200.432599 
L 240.749573 201.310023 
L 243.41809 204.5681 
L 244.967551 205.987739 
L 245.570119 206.427576 
L 246.517012 207.099697 
L 247.205662 207.933114 
L 250.734991 213.245905 
L 254.006076 216.316715 
L 256.932836 218.266907 
L 258.826622 220.176353 
L 260.376084 221.973533 
L 261.839464 223.040475 
L 262.958519 223.802654 
L 263.819331 224.302245 
L 264.507981 224.406339 
L 265.627036 224.341739 
L 266.229605 224.618564 
L 266.832173 225.171071 
L 268.984203 227.404315 
L 269.50069 227.639063 
L 270.103258 227.68096 
L 270.877989 227.694875 
L 271.480557 227.960754 
L 272.943937 229.149502 
L 273.718668 229.716475 
L 276.817591 230.767575 
L 278.453133 231.052549 
L 279.055702 231.568175 
L 279.744351 232.491081 
L 280.691244 234.164213 
L 282.412868 237.7529 
L 286.803009 247.00786 
L 287.577739 248.010956 
L 288.955038 249.741623 
L 290.332337 251.919967 
L 293.345179 256.855719 
L 295.238965 259.583818 
L 297.304914 262.595668 
L 298.251807 263.536555 
L 298.940456 263.925227 
L 299.629106 264.043713 
L 300.317755 263.918101 
L 301.006405 263.506797 
L 301.867217 262.578335 
L 302.728029 261.204571 
L 303.330597 259.820102 
L 304.019246 257.552698 
L 304.96614 253.430031 
L 306.687763 244.575495 
L 311.077904 222.269848 
L 311.50831 220.523934 
L 312.283041 215.805726 
L 313.057771 211.578125 
L 313.574258 209.752466 
L 314.004664 208.876349 
L 314.348989 208.537962 
L 314.693314 208.459242 
L 315.037639 208.592907 
L 315.554126 209.090501 
L 316.242775 210.120705 
L 317.447912 212.412248 
L 324.850894 227.703804 
L 329.068872 237.433398 
L 332.856445 245.596044 
L 336.041449 251.931593 
L 339.226453 257.785553 
L 342.497538 263.333004 
L 345.768623 268.445992 
L 349.125789 273.277437 
L 352.482956 277.720944 
L 355.926203 281.908017 
L 359.369451 285.750636 
L 362.89878 289.361479 
L 366.51419 292.745239 
L 370.215681 295.907606 
L 374.003253 298.855135 
L 377.962988 301.653051 
L 382.008803 304.240314 
L 386.226782 306.673722 
L 390.616922 308.948828 
L 395.179225 311.063564 
L 399.999772 313.051477 
L 405.078562 314.902855 
L 410.415596 316.611588 
L 416.096954 318.197269 
L 422.208719 319.670056 
L 428.750889 321.016685 
L 435.895628 322.256923 
L 443.729016 323.3854 
L 452.337135 324.396004 
L 461.978228 325.298012 
L 472.824458 326.084554 
L 485.30623 326.761964 
L 500.026113 327.331989 
L 517.931001 327.794899 
L 540.742516 328.151744 
L 572.076068 328.404293 
L 621.400589 328.555218 
L 671.155517 328.599537 
L 671.155517 328.599537 
" clip-path="url(#p43336a1e26)" style="fill: none; stroke: #ff7f0e; stroke-width: 1.5; stroke-linecap: square"/>
   </g>
   <g id="patch_3">
    <path d="M 20.5625 342.2 
L 20.5625 43.44 
" style="fill: none; stroke: #000000; stroke-width: 0.8; stroke-linejoin: miter; stroke-linecap: square"/>
   </g>
   <g id="patch_4">
    <path d="M 702.136136 342.2 
L 702.136136 43.44 
" style="fill: none; stroke: #000000; stroke-width: 0.8; stroke-linejoin: miter; stroke-linecap: square"/>
   </g>
   <g id="patch_5">
    <path d="M 20.5625 342.2 
L 702.136136 342.2 
" style="fill: none; stroke: #000000; stroke-width: 0.8; stroke-linejoin: miter; stroke-linecap: square"/>
   </g>
   <g id="patch_6">
    <path d="M 20.5625 43.44 
L 702.136136 43.44 
" style="fill: none; stroke: #000000; stroke-width: 0.8; stroke-linejoin: miter; stroke-linecap: square"/>
   </g>
   <g id="text_15">
    <!-- 1 transformation(s) -->
    <g transform="translate(303.234631 37.44) scale(0.12 -0.12)">
     <defs>
      <path id="DejaVuSans-20" transform="scale(0.015625)"/>
      <path id="DejaVuSans-74" d="M 1172 4494 
L 1172 3500 
L 2356 3500 
L 2356 3053 
L 1172 3053 
L 1172 1153 
Q 1172 725 1289 603 
Q 1406 481 1766 481 
L 2356 481 
L 2356 0 
L 1766 0 
Q 1100 0 847 248 
Q 594 497 594 1153 
L 594 3053 
L 172 3053 
L 172 3500 
L 594 3500 
L 594 4494 
L 1172 4494 
z
" transform="scale(0.015625)"/>
      <path id="DejaVuSans-72" d="M 2631 2963 
Q 2534 3019 2420 3045 
Q 2306 3072 2169 3072 
Q 1681 3072 1420 2755 
Q 1159 2438 1159 1844 
L 1159 0 
L 581 0 
L 581 3500 
L 1159 3500 
L 1159 2956 
Q 1341 3275 1631 3429 
Q 1922 3584 2338 3584 
Q 2397 3584 2469 3576 
Q 2541 3569 2628 3553 
L 2631 2963 
z
" transform="scale(0.015625)"/>
      <path id="DejaVuSans-61" d="M 2194 1759 
Q 1497 1759 1228 1600 
Q 959 1441 959 1056 
Q 959 750 1161 570 
Q 1363 391 1709 391 
Q 2188 391 2477 730 
Q 2766 1069 2766 1631 
L 2766 1759 
L 2194 1759 
z
M 3341 1997 
L 3341 0 
L 2766 0 
L 2766 531 
Q 2569 213 2275 61 
Q 1981 -91 1556 -91 
Q 1019 -91 701 211 
Q 384 513 384 1019 
Q 384 1609 779 1909 
Q 1175 2209 1959 2209 
L 2766 2209 
L 2766 2266 
Q 2766 2663 2505 2880 
Q 2244 3097 1772 3097 
Q 1472 3097 1187 3025 
Q 903 2953 641 2809 
L 641 3341 
Q 956 3463 1253 3523 
Q 1550 3584 1831 3584 
Q 2591 3584 2966 3190 
Q 3341 2797 3341 1997 
z
" transform="scale(0.015625)"/>
      <path id="DejaVuSans-6e" d="M 3513 2113 
L 3513 0 
L 2938 0 
L 2938 2094 
Q 2938 2591 2744 2837 
Q 2550 3084 2163 3084 
Q 1697 3084 1428 2787 
Q 1159 2491 1159 1978 
L 1159 0 
L 581 0 
L 581 3500 
L 1159 3500 
L 1159 2956 
Q 1366 3272 1645 3428 
Q 1925 3584 2291 3584 
Q 2894 3584 3203 3211 
Q 3513 2838 3513 2113 
z
" transform="scale(0.015625)"/>
      <path id="DejaVuSans-73" d="M 2834 3397 
L 2834 2853 
Q 2591 2978 2328 3040 
Q 2066 3103 1784 3103 
Q 1356 3103 1142 2972 
Q 928 2841 928 2578 
Q 928 2378 1081 2264 
Q 1234 2150 1697 2047 
L 1894 2003 
Q 2506 1872 2764 1633 
Q 3022 1394 3022 966 
Q 3022 478 2636 193 
Q 2250 -91 1575 -91 
Q 1294 -91 989 -36 
Q 684 19 347 128 
L 347 722 
Q 666 556 975 473 
Q 1284 391 1588 391 
Q 1994 391 2212 530 
Q 2431 669 2431 922 
Q 2431 1156 2273 1281 
Q 2116 1406 1581 1522 
L 1381 1569 
Q 847 1681 609 1914 
Q 372 2147 372 2553 
Q 372 3047 722 3315 
Q 1072 3584 1716 3584 
Q 2034 3584 2315 3537 
Q 2597 3491 2834 3397 
z
" transform="scale(0.015625)"/>
      <path id="DejaVuSans-66" d="M 2375 4863 
L 2375 4384 
L 1825 4384 
Q 1516 4384 1395 4259 
Q 1275 4134 1275 3809 
L 1275 3500 
L 2222 3500 
L 2222 3053 
L 1275 3053 
L 1275 0 
L 697 0 
L 697 3053 
L 147 3053 
L 147 3500 
L 697 3500 
L 697 3744 
Q 697 4328 969 4595 
Q 1241 4863 1831 4863 
L 2375 4863 
z
" transform="scale(0.015625)"/>
      <path id="DejaVuSans-6f" d="M 1959 3097 
Q 1497 3097 1228 2736 
Q 959 2375 959 1747 
Q 959 1119 1226 758 
Q 1494 397 1959 397 
Q 2419 397 2687 759 
Q 2956 1122 2956 1747 
Q 2956 2369 2687 2733 
Q 2419 3097 1959 3097 
z
M 1959 3584 
Q 2709 3584 3137 3096 
Q 3566 2609 3566 1747 
Q 3566 888 3137 398 
Q 2709 -91 1959 -91 
Q 1206 -91 779 398 
Q 353 888 353 1747 
Q 353 2609 779 3096 
Q 1206 3584 1959 3584 
z
" transform="scale(0.015625)"/>
      <path id="DejaVuSans-6d" d="M 3328 2828 
Q 3544 3216 3844 3400 
Q 4144 3584 4550 3584 
Q 5097 3584 5394 3201 
Q 5691 2819 5691 2113 
L 5691 0 
L 5113 0 
L 5113 2094 
Q 5113 2597 4934 2840 
Q 4756 3084 4391 3084 
Q 3944 3084 3684 2787 
Q 3425 2491 3425 1978 
L 3425 0 
L 2847 0 
L 2847 2094 
Q 2847 2600 2669 2842 
Q 2491 3084 2119 3084 
Q 1678 3084 1418 2786 
Q 1159 2488 1159 1978 
L 1159 0 
L 581 0 
L 581 3500 
L 1159 3500 
L 1159 2956 
Q 1356 3278 1631 3431 
Q 1906 3584 2284 3584 
Q 2666 3584 2933 3390 
Q 3200 3197 3328 2828 
z
" transform="scale(0.015625)"/>
      <path id="DejaVuSans-69" d="M 603 3500 
L 1178 3500 
L 1178 0 
L 603 0 
L 603 3500 
z
M 603 4863 
L 1178 4863 
L 1178 4134 
L 603 4134 
L 603 4863 
z
" transform="scale(0.015625)"/>
      <path id="DejaVuSans-28" d="M 1984 4856 
Q 1566 4138 1362 3434 
Q 1159 2731 1159 2009 
Q 1159 1288 1364 580 
Q 1569 -128 1984 -844 
L 1484 -844 
Q 1016 -109 783 600 
Q 550 1309 550 2009 
Q 550 2706 781 3412 
Q 1013 4119 1484 4856 
L 1984 4856 
z
" transform="scale(0.015625)"/>
      <path id="DejaVuSans-29" d="M 513 4856 
L 1013 4856 
Q 1481 4119 1714 3412 
Q 1947 2706 1947 2009 
Q 1947 1309 1714 600 
Q 1481 -109 1013 -844 
L 513 -844 
Q 928 -128 1133 580 
Q 1338 1288 1338 2009 
Q 1338 2731 1133 3434 
Q 928 4138 513 4856 
z
" transform="scale(0.015625)"/>
     </defs>
     <use xlink:href="#DejaVuSans-31"/>
     <use xlink:href="#DejaVuSans-20" x="63.623047"/>
     <use xlink:href="#DejaVuSans-74" x="95.410156"/>
     <use xlink:href="#DejaVuSans-72" x="134.619141"/>
     <use xlink:href="#DejaVuSans-61" x="175.732422"/>
     <use xlink:href="#DejaVuSans-6e" x="237.011719"/>
     <use xlink:href="#DejaVuSans-73" x="300.390625"/>
     <use xlink:href="#DejaVuSans-66" x="352.490234"/>
     <use xlink:href="#DejaVuSans-6f" x="387.695312"/>
     <use xlink:href="#DejaVuSans-72" x="448.876953"/>
     <use xlink:href="#DejaVuSans-6d" x="488.240234"/>
     <use xlink:href="#DejaVuSans-61" x="585.652344"/>
     <use xlink:href="#DejaVuSans-74" x="646.931641"/>
     <use xlink:href="#DejaVuSans-69" x="686.140625"/>
     <use xlink:href="#DejaVuSans-6f" x="713.923828"/>
     <use xlink:href="#DejaVuSans-6e" x="775.105469"/>
     <use xlink:href="#DejaVuSans-28" x="838.484375"/>
     <use xlink:href="#DejaVuSans-73" x="877.498047"/>
     <use xlink:href="#DejaVuSans-29" x="929.597656"/>
    </g>
   </g>
   <g id="legend_1">
    <g id="patch_7">
     <path d="M 613.742386 80.79625 
L 695.136136 80.79625 
Q 697.136136 80.79625 697.136136 78.79625 
L 697.136136 50.44 
Q 697.136136 48.44 695.136136 48.44 
L 613.742386 48.44 
Q 611.742386 48.44 611.742386 50.44 
L 611.742386 78.79625 
Q 611.742386 80.79625 613.742386 80.79625 
z
" style="fill: #ffffff; opacity: 0.8; stroke: #cccccc; stroke-linejoin: miter"/>
    </g>
    <g id="line2d_17">
     <path d="M 615.742386 56.538437 
L 625.742386 56.538437 
L 635.742386 56.538437 
" style="fill: none; stroke: #1f77b4; stroke-width: 1.5; stroke-linecap: square"/>
    </g>
    <g id="text_16">
     <!-- observed -->
     <g transform="translate(643.742386 60.038437) scale(0.1 -0.1)">
      <defs>
       <path id="DejaVuSans-62" d="M 3116 1747 
Q 3116 2381 2855 2742 
Q 2594 3103 2138 3103 
Q 1681 3103 1420 2742 
Q 1159 2381 1159 1747 
Q 1159 1113 1420 752 
Q 1681 391 2138 391 
Q 2594 391 2855 752 
Q 3116 1113 3116 1747 
z
M 1159 2969 
Q 1341 3281 1617 3432 
Q 1894 3584 2278 3584 
Q 2916 3584 3314 3078 
Q 3713 2572 3713 1747 
Q 3713 922 3314 415 
Q 2916 -91 2278 -91 
Q 1894 -91 1617 61 
Q 1341 213 1159 525 
L 1159 0 
L 581 0 
L 581 4863 
L 1159 4863 
L 1159 2969 
z
" transform="scale(0.015625)"/>
       <path id="DejaVuSans-65" d="M 3597 1894 
L 3597 1613 
L 953 1613 
Q 991 1019 1311 708 
Q 1631 397 2203 397 
Q 2534 397 2845 478 
Q 3156 559 3463 722 
L 3463 178 
Q 3153 47 2828 -22 
Q 2503 -91 2169 -91 
Q 1331 -91 842 396 
Q 353 884 353 1716 
Q 353 2575 817 3079 
Q 1281 3584 2069 3584 
Q 2775 3584 3186 3129 
Q 3597 2675 3597 1894 
z
M 3022 2063 
Q 3016 2534 2758 2815 
Q 2500 3097 2075 3097 
Q 1594 3097 1305 2825 
Q 1016 2553 972 2059 
L 3022 2063 
z
" transform="scale(0.015625)"/>
       <path id="DejaVuSans-76" d="M 191 3500 
L 800 3500 
L 1894 563 
L 2988 3500 
L 3597 3500 
L 2284 0 
L 1503 0 
L 191 3500 
z
" transform="scale(0.015625)"/>
       <path id="DejaVuSans-64" d="M 2906 2969 
L 2906 4863 
L 3481 4863 
L 3481 0 
L 2906 0 
L 2906 525 
Q 2725 213 2448 61 
Q 2172 -91 1784 -91 
Q 1150 -91 751 415 
Q 353 922 353 1747 
Q 353 2572 751 3078 
Q 1150 3584 1784 3584 
Q 2172 3584 2448 3432 
Q 2725 3281 2906 2969 
z
M 947 1747 
Q 947 1113 1208 752 
Q 1469 391 1925 391 
Q 2381 391 2643 752 
Q 2906 1113 2906 1747 
Q 2906 2381 2643 2742 
Q 2381 3103 1925 3103 
Q 1469 3103 1208 2742 
Q 947 2381 947 1747 
z
" transform="scale(0.015625)"/>
      </defs>
      <use xlink:href="#DejaVuSans-6f"/>
      <use xlink:href="#DejaVuSans-62" x="61.181641"/>
      <use xlink:href="#DejaVuSans-73" x="124.658203"/>
      <use xlink:href="#DejaVuSans-65" x="176.757812"/>
      <use xlink:href="#DejaVuSans-72" x="238.28125"/>
      <use xlink:href="#DejaVuSans-76" x="279.394531"/>
      <use xlink:href="#DejaVuSans-65" x="338.574219"/>
      <use xlink:href="#DejaVuSans-64" x="400.097656"/>
     </g>
    </g>
    <g id="line2d_18">
     <path d="M 615.742386 71.216563 
L 625.742386 71.216563 
L 635.742386 71.216563 
" style="fill: none; stroke: #ff7f0e; stroke-width: 1.5; stroke-linecap: square"/>
    </g>
    <g id="text_17">
     <!-- simulated -->
     <g transform="translate(643.742386 74.716563) scale(0.1 -0.1)">
      <defs>
       <path id="DejaVuSans-75" d="M 544 1381 
L 544 3500 
L 1119 3500 
L 1119 1403 
Q 1119 906 1312 657 
Q 1506 409 1894 409 
Q 2359 409 2629 706 
Q 2900 1003 2900 1516 
L 2900 3500 
L 3475 3500 
L 3475 0 
L 2900 0 
L 2900 538 
Q 2691 219 2414 64 
Q 2138 -91 1772 -91 
Q 1169 -91 856 284 
Q 544 659 544 1381 
z
M 1991 3584 
L 1991 3584 
z
" transform="scale(0.015625)"/>
       <path id="DejaVuSans-6c" d="M 603 4863 
L 1178 4863 
L 1178 0 
L 603 0 
L 603 4863 
z
" transform="scale(0.015625)"/>
      </defs>
      <use xlink:href="#DejaVuSans-73"/>
      <use xlink:href="#DejaVuSans-69" x="52.099609"/>
      <use xlink:href="#DejaVuSans-6d" x="79.882812"/>
      <use xlink:href="#DejaVuSans-75" x="177.294922"/>
      <use xlink:href="#DejaVuSans-6c" x="240.673828"/>
      <use xlink:href="#DejaVuSans-61" x="268.457031"/>
      <use xlink:href="#DejaVuSans-74" x="329.736328"/>
      <use xlink:href="#DejaVuSans-65" x="368.945312"/>
      <use xlink:href="#DejaVuSans-64" x="430.46875"/>
     </g>
    </g>
   </g>
  </g>
  <g id="axes_2">
   <g id="patch_8">
    <path d="M 20.5625 684.92 
L 702.136136 684.92 
L 702.136136 386.16 
L 20.5625 386.16 
z
" style="fill: #ffffff"/>
   </g>
   <g id="matplotlib.axis_3">
    <g id="xtick_7">
     <g id="line2d_19">
      <g>
       <use xlink:href="#ma7e3d6f790" x="51.370957" y="684.92" style="stroke: #000000; stroke-width: 0.8"/>
      </g>
     </g>
     <g id="text_18">
      <!-- 2014-07-01 -->
      <g transform="translate(22.313145 699.518437) scale(0.1 -0.1)">
       <use xlink:href="#DejaVuSans-32"/>
       <use xlink:href="#DejaVuSans-30" x="63.623047"/>
       <use xlink:href="#DejaVuSans-31" x="127.246094"/>
       <use xlink:href="#DejaVuSans-34" x="190.869141"/>
       <use xlink:href="#DejaVuSans-2d" x="254.492188"/>
       <use xlink:href="#DejaVuSans-30" x="290.576172"/>
       <use xlink:href="#DejaVuSans-37" x="354.199219"/>
       <use xlink:href="#DejaVuSans-2d" x="417.822266"/>
       <use xlink:href="#DejaVuSans-30" x="453.90625"/>
       <use xlink:href="#DejaVuSans-31" x="517.529297"/>
      </g>
     </g>
    </g>
    <g id="xtick_8">
     <g id="line2d_20">
      <g>
       <use xlink:href="#ma7e3d6f790" x="175.327869" y="684.92" style="stroke: #000000; stroke-width: 0.8"/>
      </g>
     </g>
     <g id="text_19">
      <!-- 2014-07-02 -->
      <g transform="translate(146.270057 699.518437) scale(0.1 -0.1)">
       <use xlink:href="#DejaVuSans-32"/>
       <use xlink:href="#DejaVuSans-30" x="63.623047"/>
       <use xlink:href="#DejaVuSans-31" x="127.246094"/>
       <use xlink:href="#DejaVuSans-34" x="190.869141"/>
       <use xlink:href="#DejaVuSans-2d" x="254.492188"/>
       <use xlink:href="#DejaVuSans-30" x="290.576172"/>
       <use xlink:href="#DejaVuSans-37" x="354.199219"/>
       <use xlink:href="#DejaVuSans-2d" x="417.822266"/>
       <use xlink:href="#DejaVuSans-30" x="453.90625"/>
       <use xlink:href="#DejaVuSans-32" x="517.529297"/>
      </g>
     </g>
    </g>
    <g id="xtick_9">
     <g id="line2d_21">
      <g>
       <use xlink:href="#ma7e3d6f790" x="299.284781" y="684.92" style="stroke: #000000; stroke-width: 0.8"/>
      </g>
     </g>
     <g id="text_20">
      <!-- 2014-07-03 -->
      <g transform="translate(270.226969 699.518437) scale(0.1 -0.1)">
       <use xlink:href="#DejaVuSans-32"/>
       <use xlink:href="#DejaVuSans-30" x="63.623047"/>
       <use xlink:href="#DejaVuSans-31" x="127.246094"/>
       <use xlink:href="#DejaVuSans-34" x="190.869141"/>
       <use xlink:href="#DejaVuSans-2d" x="254.492188"/>
       <use xlink:href="#DejaVuSans-30" x="290.576172"/>
       <use xlink:href="#DejaVuSans-37" x="354.199219"/>
       <use xlink:href="#DejaVuSans-2d" x="417.822266"/>
       <use xlink:href="#DejaVuSans-30" x="453.90625"/>
       <use xlink:href="#DejaVuSans-33" x="517.529297"/>
      </g>
     </g>
    </g>
    <g id="xtick_10">
     <g id="line2d_22">
      <g>
       <use xlink:href="#ma7e3d6f790" x="423.241693" y="684.92" style="stroke: #000000; stroke-width: 0.8"/>
      </g>
     </g>
     <g id="text_21">
      <!-- 2014-07-04 -->
      <g transform="translate(394.18388 699.518437) scale(0.1 -0.1)">
       <use xlink:href="#DejaVuSans-32"/>
       <use xlink:href="#DejaVuSans-30" x="63.623047"/>
       <use xlink:href="#DejaVuSans-31" x="127.246094"/>
       <use xlink:href="#DejaVuSans-34" x="190.869141"/>
       <use xlink:href="#DejaVuSans-2d" x="254.492188"/>
       <use xlink:href="#DejaVuSans-30" x="290.576172"/>
       <use xlink:href="#DejaVuSans-37" x="354.199219"/>
       <use xlink:href="#DejaVuSans-2d" x="417.822266"/>
       <use xlink:href="#DejaVuSans-30" x="453.90625"/>
       <use xlink:href="#DejaVuSans-34" x="517.529297"/>
      </g>
     </g>
    </g>
    <g id="xtick_11">
     <g id="line2d_23">
      <g>
       <use xlink:href="#ma7e3d6f790" x="547.198605" y="684.92" style="stroke: #000000; stroke-width: 0.8"/>
      </g>
     </g>
     <g id="text_22">
      <!-- 2014-07-05 -->
      <g transform="translate(518.140792 699.518437) scale(0.1 -0.1)">
       <use xlink:href="#DejaVuSans-32"/>
       <use xlink:href="#DejaVuSans-30" x="63.623047"/>
       <use xlink:href="#DejaVuSans-31" x="127.246094"/>
       <use xlink:href="#DejaVuSans-34" x="190.869141"/>
       <use xlink:href="#DejaVuSans-2d" x="254.492188"/>
       <use xlink:href="#DejaVuSans-30" x="290.576172"/>
       <use xlink:href="#DejaVuSans-37" x="354.199219"/>
       <use xlink:href="#DejaVuSans-2d" x="417.822266"/>
       <use xlink:href="#DejaVuSans-30" x="453.90625"/>
       <use xlink:href="#DejaVuSans-35" x="517.529297"/>
      </g>
     </g>
    </g>
    <g id="xtick_12">
     <g id="line2d_24">
      <g>
       <use xlink:href="#ma7e3d6f790" x="671.155517" y="684.92" style="stroke: #000000; stroke-width: 0.8"/>
      </g>
     </g>
     <g id="text_23">
      <!-- 2014-07-06 -->
      <g transform="translate(642.097704 699.518437) scale(0.1 -0.1)">
       <use xlink:href="#DejaVuSans-32"/>
       <use xlink:href="#DejaVuSans-30" x="63.623047"/>
       <use xlink:href="#DejaVuSans-31" x="127.246094"/>
       <use xlink:href="#DejaVuSans-34" x="190.869141"/>
       <use xlink:href="#DejaVuSans-2d" x="254.492188"/>
       <use xlink:href="#DejaVuSans-30" x="290.576172"/>
       <use xlink:href="#DejaVuSans-37" x="354.199219"/>
       <use xlink:href="#DejaVuSans-2d" x="417.822266"/>
       <use xlink:href="#DejaVuSans-30" x="453.90625"/>
       <use xlink:href="#DejaVuSans-36" x="517.529297"/>
      </g>
     </g>
    </g>
   </g>
   <g id="matplotlib.axis_4">
    <g id="ytick_9">
     <g id="line2d_25">
      <g>
       <use xlink:href="#m8fabf7df05" x="20.5625" y="671.33778" style="stroke: #000000; stroke-width: 0.8"/>
      </g>
     </g>
     <g id="text_24">
      <!-- 0 -->
      <g transform="translate(7.2 675.136999) scale(0.1 -0.1)">
       <use xlink:href="#DejaVuSans-30"/>
      </g>
     </g>
    </g>
    <g id="ytick_10">
     <g id="line2d_26">
      <g>
       <use xlink:href="#m8fabf7df05" x="20.5625" y="632.544635" style="stroke: #000000; stroke-width: 0.8"/>
      </g>
     </g>
     <g id="text_25">
      <!-- 1 -->
      <g transform="translate(7.2 636.343853) scale(0.1 -0.1)">
       <use xlink:href="#DejaVuSans-31"/>
      </g>
     </g>
    </g>
    <g id="ytick_11">
     <g id="line2d_27">
      <g>
       <use xlink:href="#m8fabf7df05" x="20.5625" y="593.75149" style="stroke: #000000; stroke-width: 0.8"/>
      </g>
     </g>
     <g id="text_26">
      <!-- 2 -->
      <g transform="translate(7.2 597.550708) scale(0.1 -0.1)">
       <use xlink:href="#DejaVuSans-32"/>
      </g>
     </g>
    </g>
    <g id="ytick_12">
     <g id="line2d_28">
      <g>
       <use xlink:href="#m8fabf7df05" x="20.5625" y="554.958344" style="stroke: #000000; stroke-width: 0.8"/>
      </g>
     </g>
     <g id="text_27">
      <!-- 3 -->
      <g transform="translate(7.2 558.757563) scale(0.1 -0.1)">
       <use xlink:href="#DejaVuSans-33"/>
      </g>
     </g>
    </g>
    <g id="ytick_13">
     <g id="line2d_29">
      <g>
       <use xlink:href="#m8fabf7df05" x="20.5625" y="516.165199" style="stroke: #000000; stroke-width: 0.8"/>
      </g>
     </g>
     <g id="text_28">
      <!-- 4 -->
      <g transform="translate(7.2 519.964418) scale(0.1 -0.1)">
       <use xlink:href="#DejaVuSans-34"/>
      </g>
     </g>
    </g>
    <g id="ytick_14">
     <g id="line2d_30">
      <g>
       <use xlink:href="#m8fabf7df05" x="20.5625" y="477.372054" style="stroke: #000000; stroke-width: 0.8"/>
      </g>
     </g>
     <g id="text_29">
      <!-- 5 -->
      <g transform="translate(7.2 481.171273) scale(0.1 -0.1)">
       <use xlink:href="#DejaVuSans-35"/>
      </g>
     </g>
    </g>
    <g id="ytick_15">
     <g id="line2d_31">
      <g>
       <use xlink:href="#m8fabf7df05" x="20.5625" y="438.578909" style="stroke: #000000; stroke-width: 0.8"/>
      </g>
     </g>
     <g id="text_30">
      <!-- 6 -->
      <g transform="translate(7.2 442.378128) scale(0.1 -0.1)">
       <use xlink:href="#DejaVuSans-36"/>
      </g>
     </g>
    </g>
    <g id="ytick_16">
     <g id="line2d_32">
      <g>
       <use xlink:href="#m8fabf7df05" x="20.5625" y="399.785764" style="stroke: #000000; stroke-width: 0.8"/>
      </g>
     </g>
     <g id="text_31">
      <!-- 7 -->
      <g transform="translate(7.2 403.584983) scale(0.1 -0.1)">
       <use xlink:href="#DejaVuSans-37"/>
      </g>
     </g>
    </g>
   </g>
   <g id="line2d_33">
    <path d="M 51.54312 671.337669 
L 60.409482 671.121393 
L 63.680567 670.661299 
L 67.812465 669.905916 
L 68.93152 669.490625 
L 69.534088 669.029182 
L 70.050575 668.299004 
L 70.567063 667.083285 
L 71.08355 665.235331 
L 71.600037 662.69142 
L 72.460849 657.073016 
L 73.493823 648.132087 
L 75.731934 625.513854 
L 77.453558 611.961401 
L 77.711801 611.379046 
L 77.970045 609.858278 
L 78.142207 609.881105 
L 78.486532 608.708386 
L 78.572613 608.754793 
L 78.744775 608.286183 
L 78.916938 607.998382 
L 79.0891 608.063814 
L 79.347344 607.539932 
L 79.605587 607.781705 
L 79.863831 607.515695 
L 80.035993 607.738499 
L 80.294237 607.584433 
L 80.55248 607.784707 
L 80.896805 607.345619 
L 81.24113 605.584752 
L 81.585455 604.521458 
L 81.671536 604.587968 
L 81.843698 604.759717 
L 82.015861 604.7893 
L 82.618429 606.295062 
L 82.790591 606.510258 
L 83.220997 606.163425 
L 83.565322 605.492359 
L 83.909647 605.395124 
L 84.340053 606.304972 
L 84.512215 606.622019 
L 84.684378 605.178355 
L 84.85654 603.816568 
L 85.028702 602.812075 
L 85.889514 590.346079 
L 86.406001 580.266762 
L 86.922488 552.006496 
L 87.352894 534.172913 
L 88.041544 512.432892 
L 88.47195 506.626255 
L 88.644112 506.231507 
L 88.816275 506.351652 
L 88.902356 506.290387 
L 89.074518 506.665508 
L 89.160599 506.87276 
L 89.93533 512.782135 
L 90.62398 518.524898 
L 90.710061 518.38916 
L 90.796142 517.38285 
L 90.968304 510.894561 
L 91.312629 483.553628 
L 91.829116 446.546836 
L 92.345603 423.668475 
L 92.776009 414.712828 
L 93.292496 406.375293 
L 93.808984 401.044073 
L 94.153308 399.814436 
L 94.325471 399.758295 
L 94.497633 400.062772 
L 94.755877 401.232549 
L 95.272364 405.3764 
L 95.961013 412.880877 
L 97.424393 427.681378 
L 97.510475 427.709218 
L 97.596556 427.60106 
L 97.854799 428.008627 
L 98.026962 427.954076 
L 98.199124 428.068042 
L 98.457368 427.65722 
L 98.801692 426.325492 
L 100.351154 420.050707 
L 102.072778 415.75471 
L 102.24494 415.812147 
L 102.503184 416.427853 
L 102.847508 418.450962 
L 103.277914 422.756375 
L 103.794401 429.964828 
L 104.655213 445.87201 
L 105.429944 463.679196 
L 106.118594 477.97348 
L 106.979405 487.969214 
L 107.581974 491.994734 
L 108.098461 494.358983 
L 108.78711 496.6963 
L 111.713871 504.82675 
L 112.316439 507.28471 
L 113.177251 511.391695 
L 114.124144 515.744166 
L 115.157118 519.874208 
L 116.104011 523.001612 
L 116.878742 524.9602 
L 117.653473 526.253331 
L 117.739554 526.24239 
L 118.16996 526.836694 
L 118.686447 528.050811 
L 118.858609 527.950626 
L 119.030772 528.888549 
L 119.116853 529.242351 
L 119.289015 528.172361 
L 119.375097 528.426089 
L 119.547259 530.660973 
L 119.719421 528.417451 
L 119.805503 528.900961 
L 119.977665 531.251753 
L 120.149827 528.996864 
L 120.235908 529.209055 
L 120.408071 531.585892 
L 120.580233 529.230328 
L 120.838477 532.153559 
L 121.010639 529.691529 
L 121.182802 532.388188 
L 121.268883 532.280567 
L 121.441045 530.473533 
L 121.613207 533.139337 
L 121.78537 530.764109 
L 121.871451 531.220751 
L 122.043613 533.748985 
L 122.215776 531.463482 
L 122.301857 531.731657 
L 122.474019 534.226077 
L 122.646182 531.994828 
L 122.732263 532.335811 
L 122.904425 534.624607 
L 122.990507 534.161657 
L 123.162669 532.769358 
L 123.420912 534.945233 
L 123.679156 533.581513 
L 123.9374 535.287493 
L 124.023481 535.226384 
L 124.195643 533.9791 
L 124.453887 535.789455 
L 124.539968 535.568551 
L 124.71213 534.339155 
L 124.970374 535.990371 
L 125.056455 535.917202 
L 125.228617 534.641736 
L 125.486861 536.215704 
L 125.572942 536.207408 
L 125.745105 534.875801 
L 126.089429 536.494081 
L 126.261592 535.155176 
L 126.347673 535.465175 
L 126.519835 536.582881 
L 126.605916 536.736766 
L 126.778079 535.42275 
L 126.86416 535.532527 
L 127.036322 536.687663 
L 127.122404 536.859898 
L 127.380647 535.58692 
L 127.55281 536.723706 
L 127.638891 536.913191 
L 127.897134 535.573481 
L 128.069297 536.737792 
L 128.155378 536.940706 
L 128.413621 535.536346 
L 128.585784 536.71122 
L 128.671865 536.922893 
L 128.930109 535.383322 
L 129.102271 536.692851 
L 129.188352 536.94744 
L 129.446596 535.383951 
L 129.618758 536.655652 
L 129.704839 536.926814 
L 129.963083 535.309061 
L 130.221326 536.837617 
L 130.47957 535.216359 
L 130.651732 536.458306 
L 130.737813 536.694239 
L 130.996057 535.130694 
L 131.168219 536.431456 
L 131.254301 536.656484 
L 131.512544 535.183571 
L 131.684707 536.560248 
L 131.770788 536.74029 
L 131.94295 535.339999 
L 132.029031 535.418764 
L 132.201194 536.76061 
L 132.287275 536.966964 
L 132.459437 535.610218 
L 132.545518 535.749924 
L 132.717681 537.052841 
L 132.803762 537.234556 
L 132.975924 535.99359 
L 133.062006 536.056585 
L 133.234168 537.383336 
L 133.320249 537.556653 
L 133.492412 536.411756 
L 133.578493 536.471301 
L 133.750655 537.763072 
L 133.836736 537.955905 
L 134.008899 536.921589 
L 134.09498 536.96049 
L 134.267142 538.25204 
L 134.353223 538.454158 
L 134.611467 537.645666 
L 134.783629 538.874109 
L 134.869711 539.072029 
L 135.127954 538.401726 
L 135.386198 539.723029 
L 135.55836 539.444884 
L 135.644441 539.445744 
L 135.902685 540.356327 
L 135.988766 540.318499 
L 136.074847 540.409269 
L 136.505253 541.399329 
L 138.054715 544.642937 
L 139.690257 547.837923 
L 140.551069 549.028455 
L 143.047423 551.394194 
L 144.166479 552.229231 
L 146.146346 553.247491 
L 148.900944 554.243396 
L 150.622568 555.641948 
L 151.569461 556.427179 
L 152.085948 556.701532 
L 155.615277 558.500473 
L 155.873521 558.496432 
L 156.476089 558.07599 
L 157.853388 556.725543 
L 158.197713 556.721723 
L 158.628119 556.964519 
L 159.230687 557.643303 
L 159.919336 558.502952 
L 160.86623 559.61989 
L 162.071366 560.709858 
L 163.965152 562.680285 
L 164.653802 562.95141 
L 165.342451 563.226642 
L 166.031101 563.770539 
L 167.838806 565.359694 
L 168.613537 565.951963 
L 170.162998 567.244679 
L 171.109891 568.087818 
L 172.831515 569.639376 
L 173.692327 570.259919 
L 174.467057 570.559689 
L 175.758275 571.003928 
L 176.705168 571.593645 
L 177.307737 571.882038 
L 177.738143 571.974778 
L 179.02936 572.01157 
L 179.890172 571.730752 
L 180.320578 571.416896 
L 180.923147 570.780592 
L 181.525715 570.289118 
L 182.042202 570.219205 
L 182.64477 570.396842 
L 183.419501 570.832322 
L 184.710719 571.880253 
L 185.48545 572.652018 
L 186.94883 574.246842 
L 187.551398 574.708201 
L 188.498291 575.799085 
L 189.789509 577.300087 
L 190.219915 577.555027 
L 191.941539 578.384987 
L 194.610056 580.484539 
L 195.470867 581.209892 
L 196.417761 582.312355 
L 197.967222 584.583255 
L 201.066145 589.461023 
L 201.238307 589.108498 
L 201.754794 587.468991 
L 202.271281 584.62716 
L 203.992905 572.242666 
L 204.33723 567.426986 
L 205.111961 558.134694 
L 206.058854 552.0482 
L 207.177909 540.89856 
L 207.436153 537.209279 
L 207.522234 536.926528 
L 207.780477 532.020041 
L 207.866559 532.290232 
L 207.95264 532.715621 
L 208.210883 528.318542 
L 208.296965 528.453642 
L 208.383046 529.159064 
L 208.469127 528.58779 
L 208.641289 526.887415 
L 208.727371 526.843372 
L 208.985614 526.18376 
L 209.071695 526.262025 
L 209.157776 527.363878 
L 209.329939 525.877183 
L 209.41602 526.257651 
L 209.674264 527.359429 
L 209.846426 527.079508 
L 209.932507 528.327569 
L 210.018588 528.060365 
L 210.10467 527.778391 
L 210.276832 529.123178 
L 210.362913 529.343017 
L 210.448994 530.093158 
L 210.535075 529.38399 
L 210.621157 529.510767 
L 210.793319 531.539305 
L 210.965481 531.713501 
L 211.051563 531.349858 
L 211.309806 533.748134 
L 211.395887 533.503831 
L 211.56805 533.325686 
L 211.740212 536.115279 
L 211.826293 535.709636 
L 211.998456 534.711511 
L 212.170618 537.421877 
L 212.256699 536.824419 
L 212.34278 535.358849 
L 212.428862 535.69899 
L 212.601024 538.57791 
L 212.859268 536.880468 
L 213.03143 538.661502 
L 213.203592 536.58622 
L 213.289674 536.95482 
L 213.461836 538.684616 
L 213.720079 534.850782 
L 213.806161 535.008709 
L 213.978323 535.766508 
L 214.150485 532.35897 
L 214.408729 527.468632 
L 214.925216 521.44616 
L 216.130353 506.311918 
L 216.732921 503.075117 
L 217.249408 497.670479 
L 218.540626 482.764003 
L 218.79887 482.204327 
L 218.971032 482.491731 
L 219.229276 484.035353 
L 219.659681 488.737881 
L 220.520493 502.51263 
L 221.639549 521.252227 
L 222.41428 530.869695 
L 223.016848 537.822895 
L 223.102929 537.686296 
L 223.18901 537.231227 
L 223.447254 540.156688 
L 223.619416 540.093933 
L 223.791579 541.333328 
L 223.963741 542.086437 
L 224.135903 542.412585 
L 224.480228 543.513818 
L 225.254959 544.699032 
L 227.406988 547.236562 
L 228.95645 550.006454 
L 230.41983 553.111595 
L 232.227535 557.054401 
L 234.379565 560.401154 
L 234.809971 560.8033 
L 235.584701 561.327238 
L 236.617676 562.249651 
L 237.736731 563.366034 
L 238.597543 563.833034 
L 239.544436 564.150063 
L 240.147004 564.407842 
L 241.954709 565.589541 
L 244.19282 567.09269 
L 244.967551 567.872686 
L 245.484038 568.137272 
L 247.0335 569.132697 
L 248.410799 570.074412 
L 251.681884 572.343129 
L 253.403507 573.859272 
L 254.006076 574.105379 
L 255.297294 574.33998 
L 255.813781 574.227688 
L 256.674593 573.737648 
L 257.96581 572.936425 
L 258.482298 573.089866 
L 259.170947 573.656108 
L 259.859597 574.17877 
L 262.355951 576.058186 
L 263.216763 576.743149 
L 263.905413 577.00251 
L 264.507981 576.981071 
L 265.024468 576.985066 
L 265.713117 577.267189 
L 267.176498 577.854482 
L 267.865147 577.835374 
L 269.328527 577.771047 
L 269.931096 577.671389 
L 270.361502 577.689202 
L 270.96407 577.962779 
L 272.083125 578.613853 
L 273.202181 578.899564 
L 274.321236 579.085247 
L 275.784617 579.658732 
L 276.73151 579.6473 
L 277.764484 579.240714 
L 278.280971 579.334943 
L 278.969621 579.736276 
L 281.8103 581.938492 
L 283.101518 582.912264 
L 284.478817 583.759769 
L 285.081385 584.517698 
L 285.856116 585.909516 
L 288.35247 590.743639 
L 289.557607 592.641563 
L 290.848825 594.190031 
L 292.053961 595.23491 
L 292.914773 595.672628 
L 296.013696 596.719681 
L 299.026538 597.314706 
L 300.748161 597.144002 
L 301.953298 596.402713 
L 303.158435 594.429627 
L 303.588841 592.895383 
L 304.105328 590.597125 
L 304.707896 587.888739 
L 305.913033 581.929641 
L 307.548575 572.38339 
L 309.35628 560.880548 
L 309.786686 558.345516 
L 310.561417 556.230379 
L 311.077904 555.3945 
L 311.163985 555.458595 
L 311.250066 555.509188 
L 311.422229 554.45801 
L 311.680472 553.137641 
L 312.369122 552.128648 
L 313.402096 551.934447 
L 313.746421 551.689783 
L 314.004664 551.827297 
L 314.262908 552.297091 
L 315.295882 554.539734 
L 316.070613 556.01989 
L 317.017506 558.292685 
L 317.706155 560.354825 
L 318.911292 564.688151 
L 319.772104 567.714269 
L 320.546835 569.637655 
L 321.407647 571.156786 
L 322.526702 572.712802 
L 324.248326 574.700636 
L 326.486437 577.306146 
L 327.863736 579.25296 
L 329.58536 582.253263 
L 333.372932 589.532962 
L 334.491987 591.038996 
L 335.869286 592.562021 
L 337.504829 594.067061 
L 338.882128 595.083411 
L 341.120239 596.363229 
L 342.153213 597.05622 
L 343.960918 598.739678 
L 347.232003 602.33879 
L 347.318084 602.295694 
L 347.576328 602.940882 
L 347.662409 602.840474 
L 347.74849 602.695205 
L 347.834572 602.845275 
L 348.006734 603.514389 
L 348.264977 603.082817 
L 348.43714 604.141472 
L 348.523221 604.035682 
L 348.695383 603.55182 
L 348.867546 604.715558 
L 348.953627 604.591177 
L 349.125789 604.096651 
L 349.297952 605.137054 
L 349.470114 604.468309 
L 349.556195 604.515978 
L 349.728358 605.525692 
L 349.90052 604.855861 
L 349.986601 604.950534 
L 350.158764 605.912439 
L 350.330926 605.248805 
L 350.417007 605.405941 
L 350.58917 606.306433 
L 350.761332 605.657458 
L 350.847413 605.855669 
L 351.019576 606.693453 
L 351.191738 606.068706 
L 351.449981 607.074771 
L 351.536063 606.729127 
L 351.622144 606.476088 
L 351.880387 607.465066 
L 352.05255 606.896418 
L 352.310793 607.8423 
L 352.482956 607.306704 
L 352.741199 608.207913 
L 352.913362 607.704166 
L 353.171605 608.578516 
L 353.343768 608.109948 
L 353.602011 608.953499 
L 353.774174 608.504219 
L 354.032417 609.298894 
L 354.20458 608.880187 
L 354.462823 609.670228 
L 354.634985 609.271438 
L 354.893229 610.035031 
L 355.065391 609.670667 
L 355.323635 610.397819 
L 355.495797 610.04269 
L 355.754041 610.745952 
L 355.926203 610.413709 
L 356.184447 611.104138 
L 356.356609 610.789764 
L 356.614853 611.44439 
L 356.787015 611.141171 
L 357.045259 611.787353 
L 357.217421 611.500837 
L 357.475665 612.140831 
L 357.647827 611.863967 
L 357.906071 612.489043 
L 358.078233 612.216918 
L 358.336477 612.825013 
L 358.508639 612.557397 
L 358.766883 613.157399 
L 358.939045 612.894265 
L 359.197288 613.478252 
L 359.369451 613.213147 
L 359.627694 613.791543 
L 359.799857 613.534675 
L 360.0581 614.102379 
L 360.230263 613.846371 
L 360.488506 614.405663 
L 360.574587 614.247473 
L 360.660669 614.157133 
L 360.918912 614.700582 
L 361.004993 614.563808 
L 361.091075 614.461833 
L 361.263237 614.834947 
L 361.349318 614.993956 
L 361.521481 614.768604 
L 361.607562 614.853195 
L 361.779724 615.27975 
L 362.037968 615.132386 
L 362.21013 615.553914 
L 362.296211 615.505264 
L 362.468374 615.407622 
L 362.726617 615.812479 
L 362.89878 615.676038 
L 363.157023 616.099217 
L 363.329186 615.945355 
L 363.587429 616.377103 
L 363.67351 616.281811 
L 363.759591 616.222025 
L 363.931754 616.493081 
L 364.017835 616.636644 
L 364.103916 616.584438 
L 364.276079 616.539909 
L 364.534322 616.878478 
L 364.706485 616.787745 
L 365.050809 617.090955 
L 365.222972 617.102355 
L 365.481215 617.38235 
L 365.653378 617.330421 
L 365.997702 617.608359 
L 366.169865 617.627314 
L 366.428108 617.874138 
L 366.600271 617.84437 
L 367.030677 618.089381 
L 367.202839 618.186925 
L 367.461083 618.334447 
L 367.719326 618.438018 
L 368.063651 618.583851 
L 369.010544 619.049405 
L 370.301762 619.546747 
L 371.679061 619.833054 
L 373.658928 619.988919 
L 380.373261 620.153671 
L 402.323964 620.795261 
L 428.406564 621.801123 
L 464.560664 623.558647 
L 497.443678 625.478759 
L 535.405482 628.083913 
L 546.596036 629.042156 
L 565.447817 630.803403 
L 582.147567 632.609886 
L 588.173251 633.645766 
L 614.255851 638.66544 
L 640.25237 644.360548 
L 647.397108 645.636906 
L 655.746984 646.931904 
L 663.752534 647.979636 
L 671.155517 648.77785 
L 671.155517 648.77785 
" clip-path="url(#p6faa50357a)" style="fill: none; stroke: #1f77b4; stroke-width: 1.5; stroke-linecap: square"/>
   </g>
   <g id="line2d_34">
    <path d="M 51.54312 671.33778 
L 53.264744 671.234849 
L 54.211637 670.94486 
L 55.675017 670.210652 
L 57.310559 669.129762 
L 60.667726 666.737267 
L 61.614619 666.427645 
L 62.733674 666.312023 
L 64.283136 666.410664 
L 65.488272 666.402014 
L 66.349084 666.103309 
L 67.037734 665.601597 
L 67.812465 664.761109 
L 68.587195 663.557275 
L 69.620169 661.370271 
L 70.739225 658.27096 
L 71.772199 654.779532 
L 72.54693 651.647347 
L 73.407742 647.262652 
L 74.69896 639.447387 
L 80.380318 602.367772 
L 81.413292 596.449896 
L 82.532348 589.194125 
L 83.134916 586.718127 
L 83.651403 585.516058 
L 84.081809 585.085355 
L 84.253972 585.105056 
L 84.426134 585.191385 
L 84.512215 585.169789 
L 84.684378 584.803547 
L 85.114783 582.795436 
L 85.545189 578.458768 
L 86.061677 571.097093 
L 86.750326 558.173133 
L 87.869381 533.085419 
L 89.591005 496.132243 
L 90.62398 478.404124 
L 91.656954 464.340612 
L 92.517766 455.661227 
L 93.378578 449.295658 
L 94.067227 445.627624 
L 94.755877 443.087 
L 95.444526 441.546507 
L 96.219257 440.08468 
L 96.649663 438.922852 
L 96.993987 437.71781 
L 97.596556 434.215591 
L 98.199124 427.949259 
L 99.059936 419.259668 
L 99.662504 415.307941 
L 100.09291 413.712981 
L 100.437235 413.100925 
L 100.695479 412.998851 
L 100.953722 413.155267 
L 101.298047 413.771786 
L 101.728453 415.044222 
L 102.331021 417.675613 
L 103.105752 422.264317 
L 104.224807 430.442642 
L 107.409811 456.365942 
L 109.734003 474.031344 
L 111.886033 488.675542 
L 113.779819 500.164658 
L 114.55455 503.549606 
L 118.686447 519.859623 
L 121.09672 529.137308 
L 122.818344 534.85284 
L 124.367806 539.304741 
L 125.917267 542.994262 
L 127.208485 545.559022 
L 128.241459 547.20846 
L 129.188352 548.420957 
L 130.307408 549.530448 
L 131.168219 550.098325 
L 131.856869 550.628637 
L 132.459437 551.361451 
L 133.148087 552.579815 
L 134.008899 554.628468 
L 135.127954 557.924434 
L 137.279984 565.131858 
L 140.120663 574.456011 
L 140.809313 576.107149 
L 141.584043 577.393405 
L 145.113372 582.092442 
L 147.179321 584.455191 
L 148.728782 585.409833 
L 150.364325 586.529544 
L 151.397299 587.37708 
L 151.999867 587.740257 
L 153.118923 588.102856 
L 154.668384 588.580648 
L 155.443115 589.165946 
L 156.56217 590.16041 
L 157.681226 590.837876 
L 158.800281 591.372366 
L 160.263661 592.276526 
L 161.124473 592.381765 
L 161.64096 592.280244 
L 162.673935 591.967852 
L 163.448665 591.974403 
L 164.137315 592.228129 
L 165.25637 592.614013 
L 166.031101 592.951264 
L 168.183131 594.227583 
L 169.990836 594.666193 
L 172.228946 594.63397 
L 172.917596 594.967225 
L 174.553139 596.022006 
L 175.327869 596.11628 
L 177.56598 595.8098 
L 178.598954 595.207213 
L 180.578822 594.161351 
L 182.300446 593.523122 
L 183.591663 593.505316 
L 184.280313 593.696886 
L 185.829774 594.358845 
L 186.690586 594.904004 
L 187.120992 594.965809 
L 188.928697 594.931918 
L 190.478158 595.091203 
L 191.769376 594.877948 
L 192.371945 595.090617 
L 193.060594 595.619235 
L 193.921406 596.605354 
L 195.212624 598.489535 
L 201.152226 607.748581 
L 201.410469 607.586046 
L 201.668713 607.099928 
L 202.013038 605.647604 
L 202.443444 602.892051 
L 203.132093 596.572021 
L 205.198042 573.14642 
L 206.575341 558.989372 
L 207.608315 550.641538 
L 208.641289 544.198998 
L 209.502101 540.124445 
L 210.276832 537.475994 
L 211.051563 535.613273 
L 211.912374 534.165016 
L 212.34278 533.290715 
L 213.03143 531.139501 
L 213.633998 527.865799 
L 214.236567 522.028593 
L 215.011297 509.538208 
L 215.872109 497.050332 
L 216.474677 491.08402 
L 216.991165 487.790961 
L 217.421571 486.150242 
L 217.765895 485.452088 
L 218.11022 485.198244 
L 218.368464 485.267724 
L 218.712788 485.671303 
L 219.143194 486.607132 
L 219.745763 488.555597 
L 220.606575 492.228132 
L 222.069955 499.674845 
L 226.460095 522.49771 
L 228.095638 529.848604 
L 229.128612 533.646053 
L 231.022398 539.487267 
L 232.399697 543.065302 
L 233.518753 545.261981 
L 234.379565 546.648925 
L 235.154295 547.519677 
L 235.929026 548.037099 
L 236.962 548.667861 
L 237.65065 549.364842 
L 239.888761 551.899288 
L 240.663492 552.669649 
L 242.901602 555.168242 
L 243.504171 555.677094 
L 244.795389 556.633395 
L 245.397957 557.003301 
L 246.603094 557.605605 
L 247.205662 558.210068 
L 250.821072 562.76907 
L 253.747832 564.805469 
L 254.694725 565.061978 
L 256.674593 565.683321 
L 259.084866 567.340075 
L 259.859597 568.05213 
L 260.720409 568.521378 
L 261.925545 568.962663 
L 264.249737 569.425316 
L 264.938387 569.06775 
L 265.627036 568.81751 
L 266.229605 568.843355 
L 266.746092 569.085422 
L 269.242446 570.615579 
L 269.845015 570.541381 
L 271.222314 570.189331 
L 271.824882 570.350639 
L 272.771775 570.744432 
L 273.546506 571.099535 
L 274.149074 571.098011 
L 275.009886 571.117805 
L 276.473266 571.114459 
L 277.161916 570.981784 
L 278.280971 570.737734 
L 278.797458 570.899915 
L 279.400026 571.361889 
L 280.088676 572.194005 
L 281.035569 573.709272 
L 282.671112 576.823309 
L 286.630846 584.480309 
L 287.233415 585.214798 
L 289.81585 587.900161 
L 291.623555 590.369171 
L 292.828692 591.913211 
L 296.185858 595.527254 
L 297.304914 596.624625 
L 298.165726 597.138117 
L 298.768294 597.257946 
L 299.284781 597.173313 
L 299.887349 596.899695 
L 300.489918 596.406087 
L 301.092486 595.670835 
L 301.781136 594.528992 
L 302.555866 592.873333 
L 303.158435 591.224299 
L 303.847084 588.661297 
L 304.621815 584.946505 
L 306.085195 576.42933 
L 309.098037 557.727713 
L 310.475336 549.849079 
L 312.110878 540.943272 
L 312.97169 535.695321 
L 313.574258 533.257848 
L 314.090746 532.086341 
L 314.521151 531.672661 
L 314.865476 531.639343 
L 315.209801 531.831718 
L 315.640207 532.319739 
L 316.328856 533.519064 
L 317.361831 535.884086 
L 324.162245 553.170042 
L 328.380223 564.2707 
L 331.134821 570.758294 
L 333.631175 576.076891 
L 336.041449 580.697369 
L 338.451722 584.852371 
L 340.948076 588.714517 
L 343.444431 592.175402 
L 346.026867 595.379606 
L 348.695383 598.333879 
L 351.449981 601.047082 
L 354.290661 603.529819 
L 357.217421 605.794072 
L 360.316344 607.908 
L 363.587429 609.865169 
L 367.030677 611.663812 
L 370.732168 613.34261 
L 374.691902 614.892417 
L 378.995962 616.337273 
L 383.730427 617.690947 
L 389.067461 618.980294 
L 395.093144 620.201717 
L 402.06572 621.382626 
L 410.415596 622.562686 
L 420.745338 623.787939 
L 434.432247 625.173807 
L 454.747408 626.986699 
L 493.139618 630.152079 
L 556.925779 635.192268 
L 607.283274 638.95612 
L 652.820223 642.13774 
L 671.155517 643.35318 
L 671.155517 643.35318 
" clip-path="url(#p6faa50357a)" style="fill: none; stroke: #ff7f0e; stroke-width: 1.5; stroke-linecap: square"/>
   </g>
   <g id="patch_9">
    <path d="M 20.5625 684.92 
L 20.5625 386.16 
" style="fill: none; stroke: #000000; stroke-width: 0.8; stroke-linejoin: miter; stroke-linecap: square"/>
   </g>
   <g id="patch_10">
    <path d="M 702.136136 684.92 
L 702.136136 386.16 
" style="fill: none; stroke: #000000; stroke-width: 0.8; stroke-linejoin: miter; stroke-linecap: square"/>
   </g>
   <g id="patch_11">
    <path d="M 20.5625 684.92 
L 702.136136 684.92 
" style="fill: none; stroke: #000000; stroke-width: 0.8; stroke-linejoin: miter; stroke-linecap: square"/>
   </g>
   <g id="patch_12">
    <path d="M 20.5625 386.16 
L 702.136136 386.16 
" style="fill: none; stroke: #000000; stroke-width: 0.8; stroke-linejoin: miter; stroke-linecap: square"/>
   </g>
   <g id="text_32">
    <!-- 2 transformation(s) -->
    <g transform="translate(303.234631 380.16) scale(0.12 -0.12)">
     <use xlink:href="#DejaVuSans-32"/>
     <use xlink:href="#DejaVuSans-20" x="63.623047"/>
     <use xlink:href="#DejaVuSans-74" x="95.410156"/>
     <use xlink:href="#DejaVuSans-72" x="134.619141"/>
     <use xlink:href="#DejaVuSans-61" x="175.732422"/>
     <use xlink:href="#DejaVuSans-6e" x="237.011719"/>
     <use xlink:href="#DejaVuSans-73" x="300.390625"/>
     <use xlink:href="#DejaVuSans-66" x="352.490234"/>
     <use xlink:href="#DejaVuSans-6f" x="387.695312"/>
     <use xlink:href="#DejaVuSans-72" x="448.876953"/>
     <use xlink:href="#DejaVuSans-6d" x="488.240234"/>
     <use xlink:href="#DejaVuSans-61" x="585.652344"/>
     <use xlink:href="#DejaVuSans-74" x="646.931641"/>
     <use xlink:href="#DejaVuSans-69" x="686.140625"/>
     <use xlink:href="#DejaVuSans-6f" x="713.923828"/>
     <use xlink:href="#DejaVuSans-6e" x="775.105469"/>
     <use xlink:href="#DejaVuSans-28" x="838.484375"/>
     <use xlink:href="#DejaVuSans-73" x="877.498047"/>
     <use xlink:href="#DejaVuSans-29" x="929.597656"/>
    </g>
   </g>
  </g>
  <g id="text_33">
   <!-- training -->
   <g transform="translate(333.129063 16.318125) scale(0.12 -0.12)">
    <defs>
     <path id="DejaVuSans-67" d="M 2906 1791 
Q 2906 2416 2648 2759 
Q 2391 3103 1925 3103 
Q 1463 3103 1205 2759 
Q 947 2416 947 1791 
Q 947 1169 1205 825 
Q 1463 481 1925 481 
Q 2391 481 2648 825 
Q 2906 1169 2906 1791 
z
M 3481 434 
Q 3481 -459 3084 -895 
Q 2688 -1331 1869 -1331 
Q 1566 -1331 1297 -1286 
Q 1028 -1241 775 -1147 
L 775 -588 
Q 1028 -725 1275 -790 
Q 1522 -856 1778 -856 
Q 2344 -856 2625 -561 
Q 2906 -266 2906 331 
L 2906 616 
Q 2728 306 2450 153 
Q 2172 0 1784 0 
Q 1141 0 747 490 
Q 353 981 353 1791 
Q 353 2603 747 3093 
Q 1141 3584 1784 3584 
Q 2172 3584 2450 3431 
Q 2728 3278 2906 2969 
L 2906 3500 
L 3481 3500 
L 3481 434 
z
" transform="scale(0.015625)"/>
    </defs>
    <use xlink:href="#DejaVuSans-74"/>
    <use xlink:href="#DejaVuSans-72" x="39.208984"/>
    <use xlink:href="#DejaVuSans-61" x="80.322266"/>
    <use xlink:href="#DejaVuSans-69" x="141.601562"/>
    <use xlink:href="#DejaVuSans-6e" x="169.384766"/>
    <use xlink:href="#DejaVuSans-69" x="232.763672"/>
    <use xlink:href="#DejaVuSans-6e" x="260.546875"/>
    <use xlink:href="#DejaVuSans-67" x="323.925781"/>
   </g>
  </g>
 </g>
 <defs>
  <clipPath id="p43336a1e26">
   <rect x="20.5625" y="43.44" width="681.573636" height="298.76"/>
  </clipPath>
  <clipPath id="p6faa50357a">
   <rect x="20.5625" y="386.16" width="681.573636" height="298.76"/>
  </clipPath>
 </defs>
</svg>
