<?xml version="1.0" encoding="utf-8" standalone="no"?>
<!DOCTYPE svg PUBLIC "-//W3C//DTD SVG 1.1//EN"
  "http://www.w3.org/Graphics/SVG/1.1/DTD/svg11.dtd">
<svg xmlns:xlink="http://www.w3.org/1999/xlink" width="709.489261pt" height="708.798125pt" viewBox="0 0 709.489261 708.798125" xmlns="http://www.w3.org/2000/svg" version="1.1">
 <metadata>
  <rdf:RDF xmlns:dc="http://purl.org/dc/elements/1.1/" xmlns:cc="http://creativecommons.org/ns#" xmlns:rdf="http://www.w3.org/1999/02/22-rdf-syntax-ns#">
   <cc:Work>
    <dc:type rdf:resource="http://purl.org/dc/dcmitype/StillImage"/>
    <dc:date>2023-06-11T03:23:01.788792</dc:date>
    <dc:format>image/svg+xml</dc:format>
    <dc:creator>
     <cc:Agent>
      <dc:title>Matplotlib v3.7.1, https://matplotlib.org/</dc:title>
     </cc:Agent>
    </dc:creator>
   </cc:Work>
  </rdf:RDF>
 </metadata>
 <defs>
  <style type="text/css">*{stroke-linejoin: round; stroke-linecap: butt}</style>
 </defs>
 <g id="figure_1">
  <g id="patch_1">
   <path d="M 0 708.798125 
L 709.489261 708.798125 
L 709.489261 0 
L 0 0 
z
" style="fill: #ffffff"/>
  </g>
  <g id="axes_1">
   <g id="patch_2">
    <path d="M 36.465625 342.2 
L 702.289261 342.2 
L 702.289261 43.44 
L 36.465625 43.44 
z
" style="fill: #ffffff"/>
   </g>
   <g id="matplotlib.axis_1">
    <g id="xtick_1">
     <g id="line2d_1">
      <defs>
       <path id="m7de4af2ab9" d="M 0 0 
L 0 3.5 
" style="stroke: #000000; stroke-width: 0.8"/>
      </defs>
      <g>
       <use xlink:href="#m7de4af2ab9" x="66.562152" y="342.2" style="stroke: #000000; stroke-width: 0.8"/>
      </g>
     </g>
     <g id="text_1">
      <!-- 2014-07-01 -->
      <g transform="translate(37.504339 356.798437) scale(0.1 -0.1)">
       <defs>
        <path id="DejaVuSans-32" d="M 1228 531 
L 3431 531 
L 3431 0 
L 469 0 
L 469 531 
Q 828 903 1448 1529 
Q 2069 2156 2228 2338 
Q 2531 2678 2651 2914 
Q 2772 3150 2772 3378 
Q 2772 3750 2511 3984 
Q 2250 4219 1831 4219 
Q 1534 4219 1204 4116 
Q 875 4013 500 3803 
L 500 4441 
Q 881 4594 1212 4672 
Q 1544 4750 1819 4750 
Q 2544 4750 2975 4387 
Q 3406 4025 3406 3419 
Q 3406 3131 3298 2873 
Q 3191 2616 2906 2266 
Q 2828 2175 2409 1742 
Q 1991 1309 1228 531 
z
" transform="scale(0.015625)"/>
        <path id="DejaVuSans-30" d="M 2034 4250 
Q 1547 4250 1301 3770 
Q 1056 3291 1056 2328 
Q 1056 1369 1301 889 
Q 1547 409 2034 409 
Q 2525 409 2770 889 
Q 3016 1369 3016 2328 
Q 3016 3291 2770 3770 
Q 2525 4250 2034 4250 
z
M 2034 4750 
Q 2819 4750 3233 4129 
Q 3647 3509 3647 2328 
Q 3647 1150 3233 529 
Q 2819 -91 2034 -91 
Q 1250 -91 836 529 
Q 422 1150 422 2328 
Q 422 3509 836 4129 
Q 1250 4750 2034 4750 
z
" transform="scale(0.015625)"/>
        <path id="DejaVuSans-31" d="M 794 531 
L 1825 531 
L 1825 4091 
L 703 3866 
L 703 4441 
L 1819 4666 
L 2450 4666 
L 2450 531 
L 3481 531 
L 3481 0 
L 794 0 
L 794 531 
z
" transform="scale(0.015625)"/>
        <path id="DejaVuSans-34" d="M 2419 4116 
L 825 1625 
L 2419 1625 
L 2419 4116 
z
M 2253 4666 
L 3047 4666 
L 3047 1625 
L 3713 1625 
L 3713 1100 
L 3047 1100 
L 3047 0 
L 2419 0 
L 2419 1100 
L 313 1100 
L 313 1709 
L 2253 4666 
z
" transform="scale(0.015625)"/>
        <path id="DejaVuSans-2d" d="M 313 2009 
L 1997 2009 
L 1997 1497 
L 313 1497 
L 313 2009 
z
" transform="scale(0.015625)"/>
        <path id="DejaVuSans-37" d="M 525 4666 
L 3525 4666 
L 3525 4397 
L 1831 0 
L 1172 0 
L 2766 4134 
L 525 4134 
L 525 4666 
z
" transform="scale(0.015625)"/>
       </defs>
       <use xlink:href="#DejaVuSans-32"/>
       <use xlink:href="#DejaVuSans-30" x="63.623047"/>
       <use xlink:href="#DejaVuSans-31" x="127.246094"/>
       <use xlink:href="#DejaVuSans-34" x="190.869141"/>
       <use xlink:href="#DejaVuSans-2d" x="254.492188"/>
       <use xlink:href="#DejaVuSans-30" x="290.576172"/>
       <use xlink:href="#DejaVuSans-37" x="354.199219"/>
       <use xlink:href="#DejaVuSans-2d" x="417.822266"/>
       <use xlink:href="#DejaVuSans-30" x="453.90625"/>
       <use xlink:href="#DejaVuSans-31" x="517.529297"/>
      </g>
     </g>
    </g>
    <g id="xtick_2">
     <g id="line2d_2">
      <g>
       <use xlink:href="#m7de4af2ab9" x="187.654632" y="342.2" style="stroke: #000000; stroke-width: 0.8"/>
      </g>
     </g>
     <g id="text_2">
      <!-- 2014-07-02 -->
      <g transform="translate(158.596819 356.798437) scale(0.1 -0.1)">
       <use xlink:href="#DejaVuSans-32"/>
       <use xlink:href="#DejaVuSans-30" x="63.623047"/>
       <use xlink:href="#DejaVuSans-31" x="127.246094"/>
       <use xlink:href="#DejaVuSans-34" x="190.869141"/>
       <use xlink:href="#DejaVuSans-2d" x="254.492188"/>
       <use xlink:href="#DejaVuSans-30" x="290.576172"/>
       <use xlink:href="#DejaVuSans-37" x="354.199219"/>
       <use xlink:href="#DejaVuSans-2d" x="417.822266"/>
       <use xlink:href="#DejaVuSans-30" x="453.90625"/>
       <use xlink:href="#DejaVuSans-32" x="517.529297"/>
      </g>
     </g>
    </g>
    <g id="xtick_3">
     <g id="line2d_3">
      <g>
       <use xlink:href="#m7de4af2ab9" x="308.747111" y="342.2" style="stroke: #000000; stroke-width: 0.8"/>
      </g>
     </g>
     <g id="text_3">
      <!-- 2014-07-03 -->
      <g transform="translate(279.689299 356.798437) scale(0.1 -0.1)">
       <defs>
        <path id="DejaVuSans-33" d="M 2597 2516 
Q 3050 2419 3304 2112 
Q 3559 1806 3559 1356 
Q 3559 666 3084 287 
Q 2609 -91 1734 -91 
Q 1441 -91 1130 -33 
Q 819 25 488 141 
L 488 750 
Q 750 597 1062 519 
Q 1375 441 1716 441 
Q 2309 441 2620 675 
Q 2931 909 2931 1356 
Q 2931 1769 2642 2001 
Q 2353 2234 1838 2234 
L 1294 2234 
L 1294 2753 
L 1863 2753 
Q 2328 2753 2575 2939 
Q 2822 3125 2822 3475 
Q 2822 3834 2567 4026 
Q 2313 4219 1838 4219 
Q 1578 4219 1281 4162 
Q 984 4106 628 3988 
L 628 4550 
Q 988 4650 1302 4700 
Q 1616 4750 1894 4750 
Q 2613 4750 3031 4423 
Q 3450 4097 3450 3541 
Q 3450 3153 3228 2886 
Q 3006 2619 2597 2516 
z
" transform="scale(0.015625)"/>
       </defs>
       <use xlink:href="#DejaVuSans-32"/>
       <use xlink:href="#DejaVuSans-30" x="63.623047"/>
       <use xlink:href="#DejaVuSans-31" x="127.246094"/>
       <use xlink:href="#DejaVuSans-34" x="190.869141"/>
       <use xlink:href="#DejaVuSans-2d" x="254.492188"/>
       <use xlink:href="#DejaVuSans-30" x="290.576172"/>
       <use xlink:href="#DejaVuSans-37" x="354.199219"/>
       <use xlink:href="#DejaVuSans-2d" x="417.822266"/>
       <use xlink:href="#DejaVuSans-30" x="453.90625"/>
       <use xlink:href="#DejaVuSans-33" x="517.529297"/>
      </g>
     </g>
    </g>
    <g id="xtick_4">
     <g id="line2d_4">
      <g>
       <use xlink:href="#m7de4af2ab9" x="429.839591" y="342.2" style="stroke: #000000; stroke-width: 0.8"/>
      </g>
     </g>
     <g id="text_4">
      <!-- 2014-07-04 -->
      <g transform="translate(400.781779 356.798437) scale(0.1 -0.1)">
       <use xlink:href="#DejaVuSans-32"/>
       <use xlink:href="#DejaVuSans-30" x="63.623047"/>
       <use xlink:href="#DejaVuSans-31" x="127.246094"/>
       <use xlink:href="#DejaVuSans-34" x="190.869141"/>
       <use xlink:href="#DejaVuSans-2d" x="254.492188"/>
       <use xlink:href="#DejaVuSans-30" x="290.576172"/>
       <use xlink:href="#DejaVuSans-37" x="354.199219"/>
       <use xlink:href="#DejaVuSans-2d" x="417.822266"/>
       <use xlink:href="#DejaVuSans-30" x="453.90625"/>
       <use xlink:href="#DejaVuSans-34" x="517.529297"/>
      </g>
     </g>
    </g>
    <g id="xtick_5">
     <g id="line2d_5">
      <g>
       <use xlink:href="#m7de4af2ab9" x="550.932071" y="342.2" style="stroke: #000000; stroke-width: 0.8"/>
      </g>
     </g>
     <g id="text_5">
      <!-- 2014-07-05 -->
      <g transform="translate(521.874258 356.798437) scale(0.1 -0.1)">
       <defs>
        <path id="DejaVuSans-35" d="M 691 4666 
L 3169 4666 
L 3169 4134 
L 1269 4134 
L 1269 2991 
Q 1406 3038 1543 3061 
Q 1681 3084 1819 3084 
Q 2600 3084 3056 2656 
Q 3513 2228 3513 1497 
Q 3513 744 3044 326 
Q 2575 -91 1722 -91 
Q 1428 -91 1123 -41 
Q 819 9 494 109 
L 494 744 
Q 775 591 1075 516 
Q 1375 441 1709 441 
Q 2250 441 2565 725 
Q 2881 1009 2881 1497 
Q 2881 1984 2565 2268 
Q 2250 2553 1709 2553 
Q 1456 2553 1204 2497 
Q 953 2441 691 2322 
L 691 4666 
z
" transform="scale(0.015625)"/>
       </defs>
       <use xlink:href="#DejaVuSans-32"/>
       <use xlink:href="#DejaVuSans-30" x="63.623047"/>
       <use xlink:href="#DejaVuSans-31" x="127.246094"/>
       <use xlink:href="#DejaVuSans-34" x="190.869141"/>
       <use xlink:href="#DejaVuSans-2d" x="254.492188"/>
       <use xlink:href="#DejaVuSans-30" x="290.576172"/>
       <use xlink:href="#DejaVuSans-37" x="354.199219"/>
       <use xlink:href="#DejaVuSans-2d" x="417.822266"/>
       <use xlink:href="#DejaVuSans-30" x="453.90625"/>
       <use xlink:href="#DejaVuSans-35" x="517.529297"/>
      </g>
     </g>
    </g>
    <g id="xtick_6">
     <g id="line2d_6">
      <g>
       <use xlink:href="#m7de4af2ab9" x="672.024551" y="342.2" style="stroke: #000000; stroke-width: 0.8"/>
      </g>
     </g>
     <g id="text_6">
      <!-- 2014-07-06 -->
      <g transform="translate(642.966738 356.798437) scale(0.1 -0.1)">
       <defs>
        <path id="DejaVuSans-36" d="M 2113 2584 
Q 1688 2584 1439 2293 
Q 1191 2003 1191 1497 
Q 1191 994 1439 701 
Q 1688 409 2113 409 
Q 2538 409 2786 701 
Q 3034 994 3034 1497 
Q 3034 2003 2786 2293 
Q 2538 2584 2113 2584 
z
M 3366 4563 
L 3366 3988 
Q 3128 4100 2886 4159 
Q 2644 4219 2406 4219 
Q 1781 4219 1451 3797 
Q 1122 3375 1075 2522 
Q 1259 2794 1537 2939 
Q 1816 3084 2150 3084 
Q 2853 3084 3261 2657 
Q 3669 2231 3669 1497 
Q 3669 778 3244 343 
Q 2819 -91 2113 -91 
Q 1303 -91 875 529 
Q 447 1150 447 2328 
Q 447 3434 972 4092 
Q 1497 4750 2381 4750 
Q 2619 4750 2861 4703 
Q 3103 4656 3366 4563 
z
" transform="scale(0.015625)"/>
       </defs>
       <use xlink:href="#DejaVuSans-32"/>
       <use xlink:href="#DejaVuSans-30" x="63.623047"/>
       <use xlink:href="#DejaVuSans-31" x="127.246094"/>
       <use xlink:href="#DejaVuSans-34" x="190.869141"/>
       <use xlink:href="#DejaVuSans-2d" x="254.492188"/>
       <use xlink:href="#DejaVuSans-30" x="290.576172"/>
       <use xlink:href="#DejaVuSans-37" x="354.199219"/>
       <use xlink:href="#DejaVuSans-2d" x="417.822266"/>
       <use xlink:href="#DejaVuSans-30" x="453.90625"/>
       <use xlink:href="#DejaVuSans-36" x="517.529297"/>
      </g>
     </g>
    </g>
   </g>
   <g id="matplotlib.axis_2">
    <g id="ytick_1">
     <g id="line2d_7">
      <defs>
       <path id="m9e9242b073" d="M 0 0 
L -3.5 0 
" style="stroke: #000000; stroke-width: 0.8"/>
      </defs>
      <g>
       <use xlink:href="#m9e9242b073" x="36.465625" y="320.65588" style="stroke: #000000; stroke-width: 0.8"/>
      </g>
     </g>
     <g id="text_7">
      <!-- 0.00 -->
      <g transform="translate(7.2 324.455099) scale(0.1 -0.1)">
       <defs>
        <path id="DejaVuSans-2e" d="M 684 794 
L 1344 794 
L 1344 0 
L 684 0 
L 684 794 
z
" transform="scale(0.015625)"/>
       </defs>
       <use xlink:href="#DejaVuSans-30"/>
       <use xlink:href="#DejaVuSans-2e" x="63.623047"/>
       <use xlink:href="#DejaVuSans-30" x="95.410156"/>
       <use xlink:href="#DejaVuSans-30" x="159.033203"/>
      </g>
     </g>
    </g>
    <g id="ytick_2">
     <g id="line2d_8">
      <g>
       <use xlink:href="#m9e9242b073" x="36.465625" y="284.317487" style="stroke: #000000; stroke-width: 0.8"/>
      </g>
     </g>
     <g id="text_8">
      <!-- 0.25 -->
      <g transform="translate(7.2 288.116706) scale(0.1 -0.1)">
       <use xlink:href="#DejaVuSans-30"/>
       <use xlink:href="#DejaVuSans-2e" x="63.623047"/>
       <use xlink:href="#DejaVuSans-32" x="95.410156"/>
       <use xlink:href="#DejaVuSans-35" x="159.033203"/>
      </g>
     </g>
    </g>
    <g id="ytick_3">
     <g id="line2d_9">
      <g>
       <use xlink:href="#m9e9242b073" x="36.465625" y="247.979093" style="stroke: #000000; stroke-width: 0.8"/>
      </g>
     </g>
     <g id="text_9">
      <!-- 0.50 -->
      <g transform="translate(7.2 251.778312) scale(0.1 -0.1)">
       <use xlink:href="#DejaVuSans-30"/>
       <use xlink:href="#DejaVuSans-2e" x="63.623047"/>
       <use xlink:href="#DejaVuSans-35" x="95.410156"/>
       <use xlink:href="#DejaVuSans-30" x="159.033203"/>
      </g>
     </g>
    </g>
    <g id="ytick_4">
     <g id="line2d_10">
      <g>
       <use xlink:href="#m9e9242b073" x="36.465625" y="211.6407" style="stroke: #000000; stroke-width: 0.8"/>
      </g>
     </g>
     <g id="text_10">
      <!-- 0.75 -->
      <g transform="translate(7.2 215.439919) scale(0.1 -0.1)">
       <use xlink:href="#DejaVuSans-30"/>
       <use xlink:href="#DejaVuSans-2e" x="63.623047"/>
       <use xlink:href="#DejaVuSans-37" x="95.410156"/>
       <use xlink:href="#DejaVuSans-35" x="159.033203"/>
      </g>
     </g>
    </g>
    <g id="ytick_5">
     <g id="line2d_11">
      <g>
       <use xlink:href="#m9e9242b073" x="36.465625" y="175.302307" style="stroke: #000000; stroke-width: 0.8"/>
      </g>
     </g>
     <g id="text_11">
      <!-- 1.00 -->
      <g transform="translate(7.2 179.101525) scale(0.1 -0.1)">
       <use xlink:href="#DejaVuSans-31"/>
       <use xlink:href="#DejaVuSans-2e" x="63.623047"/>
       <use xlink:href="#DejaVuSans-30" x="95.410156"/>
       <use xlink:href="#DejaVuSans-30" x="159.033203"/>
      </g>
     </g>
    </g>
    <g id="ytick_6">
     <g id="line2d_12">
      <g>
       <use xlink:href="#m9e9242b073" x="36.465625" y="138.963913" style="stroke: #000000; stroke-width: 0.8"/>
      </g>
     </g>
     <g id="text_12">
      <!-- 1.25 -->
      <g transform="translate(7.2 142.763132) scale(0.1 -0.1)">
       <use xlink:href="#DejaVuSans-31"/>
       <use xlink:href="#DejaVuSans-2e" x="63.623047"/>
       <use xlink:href="#DejaVuSans-32" x="95.410156"/>
       <use xlink:href="#DejaVuSans-35" x="159.033203"/>
      </g>
     </g>
    </g>
    <g id="ytick_7">
     <g id="line2d_13">
      <g>
       <use xlink:href="#m9e9242b073" x="36.465625" y="102.62552" style="stroke: #000000; stroke-width: 0.8"/>
      </g>
     </g>
     <g id="text_13">
      <!-- 1.50 -->
      <g transform="translate(7.2 106.424738) scale(0.1 -0.1)">
       <use xlink:href="#DejaVuSans-31"/>
       <use xlink:href="#DejaVuSans-2e" x="63.623047"/>
       <use xlink:href="#DejaVuSans-35" x="95.410156"/>
       <use xlink:href="#DejaVuSans-30" x="159.033203"/>
      </g>
     </g>
    </g>
    <g id="ytick_8">
     <g id="line2d_14">
      <g>
       <use xlink:href="#m9e9242b073" x="36.465625" y="66.287126" style="stroke: #000000; stroke-width: 0.8"/>
      </g>
     </g>
     <g id="text_14">
      <!-- 1.75 -->
      <g transform="translate(7.2 70.086345) scale(0.1 -0.1)">
       <use xlink:href="#DejaVuSans-31"/>
       <use xlink:href="#DejaVuSans-2e" x="63.623047"/>
       <use xlink:href="#DejaVuSans-37" x="95.410156"/>
       <use xlink:href="#DejaVuSans-35" x="159.033203"/>
      </g>
     </g>
    </g>
   </g>
   <g id="line2d_15">
    <path d="M 66.730336 320.655877 
L 69.757648 320.546457 
L 71.691764 320.149332 
L 74.04634 319.333949 
L 75.72818 318.841425 
L 77.157744 318.678118 
L 79.007768 318.705628 
L 81.362344 318.740122 
L 82.287356 318.487609 
L 82.876 318.129416 
L 83.29646 317.641314 
L 83.801012 316.517822 
L 84.389656 314.403855 
L 85.230576 310.952675 
L 85.987404 308.692001 
L 86.323772 307.729214 
L 86.828324 305.425585 
L 88.173796 293.960317 
L 89.435176 283.509493 
L 90.276096 278.589017 
L 90.780648 276.321424 
L 91.957936 273.532333 
L 92.210212 273.204623 
L 92.54658 272.709576 
L 92.798856 272.492749 
L 93.135224 272.147546 
L 93.3875 272.071703 
L 93.639776 271.949791 
L 93.80796 272.010135 
L 94.732972 273.146138 
L 95.153432 273.796565 
L 95.826168 269.901183 
L 96.078444 269.376316 
L 96.246628 269.4019 
L 96.498904 269.781398 
L 97.087548 271.529431 
L 97.844376 275.157159 
L 98.769388 280.045709 
L 98.937572 278.101022 
L 99.358032 270.795273 
L 99.946676 239.68041 
L 100.283044 211.789803 
L 101.460332 112.699778 
L 102.133068 73.514425 
L 102.63762 58.828471 
L 102.805804 57.045471 
L 102.889896 57.02 
L 103.142172 57.807899 
L 103.226264 57.987048 
L 103.47854 60.524919 
L 103.814908 65.230288 
L 104.067184 69.584618 
L 104.403552 75.743347 
L 105.16038 89.482718 
L 107.094496 135.287694 
L 108.1036 160.223971 
L 108.355876 165.425703 
L 108.860428 174.748849 
L 109.36498 182.390994 
L 109.869532 187.02253 
L 109.953624 186.590685 
L 110.121808 187.505854 
L 110.2059 186.809765 
L 110.289992 186.878148 
L 110.374084 186.601506 
L 110.878636 179.312704 
L 111.46728 156.943391 
L 112.224108 107.459163 
L 112.560476 96.840042 
L 112.812752 94.643955 
L 112.896844 94.701101 
L 113.065028 96.513488 
L 113.821856 115.267817 
L 115.25142 158.317721 
L 116.09234 168.917142 
L 116.93326 173.918983 
L 117.017352 173.870709 
L 117.101444 173.704885 
L 117.269628 174.742854 
L 117.35372 174.327739 
L 117.521904 175.640998 
L 117.605996 175.233828 
L 117.77418 176.170215 
L 117.858272 176.01179 
L 117.942364 175.841815 
L 118.026456 176.716265 
L 118.19464 175.956523 
L 118.278732 176.985586 
L 118.362824 176.839871 
L 118.446916 176.499212 
L 118.6151 177.392349 
L 118.699192 176.794577 
L 118.867376 178.003949 
L 118.951468 177.187157 
L 119.119652 178.121993 
L 119.287836 177.365301 
L 119.371928 178.436218 
L 119.540112 177.697599 
L 119.708296 178.586863 
L 119.792388 178.036525 
L 119.87648 178.888111 
L 120.044664 178.371699 
L 120.212848 179.023074 
L 120.29694 178.635458 
L 120.381032 178.834023 
L 120.465124 179.488309 
L 120.549216 178.838502 
L 120.7174 179.700034 
L 120.801492 179.209189 
L 120.885584 179.33613 
L 120.969676 180.093827 
L 121.13786 179.395668 
L 121.221952 180.403114 
L 121.390136 179.688008 
L 121.55832 180.683135 
L 121.642412 180.03831 
L 121.810596 180.900197 
L 121.894688 180.317837 
L 122.062872 181.27208 
L 122.146964 180.740602 
L 122.315148 181.713151 
L 122.39924 181.161314 
L 122.483332 181.194539 
L 122.567424 182.062092 
L 122.651516 181.793715 
L 122.735608 181.55969 
L 122.8197 182.478428 
L 122.903792 182.039714 
L 122.987884 182.161491 
L 123.071976 182.841873 
L 123.24016 182.191502 
L 123.324252 183.262992 
L 123.492436 182.727988 
L 123.576528 183.672232 
L 123.66062 183.517862 
L 123.744712 183.240968 
L 123.828804 184.144641 
L 123.996988 183.66019 
L 124.08108 184.642728 
L 124.165172 184.141998 
L 124.249264 184.20449 
L 124.333356 185.126434 
L 124.417448 184.663859 
L 124.50154 184.716855 
L 124.585632 185.688183 
L 124.669724 185.013892 
L 125.090184 186.727494 
L 125.174276 186.125693 
L 125.34246 187.247917 
L 125.426552 186.693931 
L 125.594736 187.703899 
L 125.678828 187.34872 
L 125.76292 188.526288 
L 125.931104 188.07806 
L 126.267472 189.102479 
L 126.687932 190.328269 
L 127.44476 192.34143 
L 127.781128 192.657804 
L 128.537956 193.139361 
L 128.874324 193.793422 
L 129.462968 195.640377 
L 130.303888 199.266858 
L 133.919844 216.10344 
L 134.928948 219.5122 
L 135.769868 221.688612 
L 137.031248 224.26528 
L 138.292628 226.2953 
L 139.974468 228.531795 
L 141.7404 230.333733 
L 142.665412 231.112153 
L 144.68362 232.984996 
L 145.188172 233.968089 
L 145.860908 235.808503 
L 146.870012 239.277814 
L 148.720036 245.466407 
L 149.813232 248.195748 
L 151.326888 251.209671 
L 152.924636 253.817052 
L 153.51328 254.48844 
L 153.93374 254.679532 
L 154.438292 254.624119 
L 155.531488 254.365918 
L 156.120132 254.595901 
L 157.045144 255.318592 
L 158.97926 257.195567 
L 159.736088 257.786881 
L 160.24064 257.971869 
L 161.333836 258.338393 
L 162.090664 258.861818 
L 164.697516 261.239636 
L 165.454344 261.5078 
L 166.379356 261.748969 
L 166.968 262.107037 
L 167.640736 262.825695 
L 169.995312 265.915772 
L 171.088508 266.60461 
L 171.845336 267.375168 
L 172.43398 267.884631 
L 173.106716 268.22114 
L 173.527176 268.261699 
L 174.11582 268.138825 
L 174.704464 267.996155 
L 175.293108 268.138418 
L 175.79766 268.47847 
L 176.470396 269.267404 
L 177.647684 270.490487 
L 180.170444 272.780459 
L 181.6841 273.06262 
L 182.10456 272.989086 
L 183.7864 272.633071 
L 184.375044 272.876908 
L 185.131872 273.523496 
L 186.393252 274.855929 
L 186.813712 275.07108 
L 187.234172 275.119571 
L 189.756932 274.196878 
L 190.766036 273.465666 
L 191.859232 273.11082 
L 193.709256 273.426025 
L 194.970636 274.277268 
L 196.988844 276.029663 
L 198.418407 277.315749 
L 198.754775 277.418969 
L 199.511603 277.13491 
L 200.352523 276.929003 
L 201.445719 277.011582 
L 201.866179 277.015962 
L 203.463927 276.603883 
L 203.968479 276.84941 
L 204.641215 277.482847 
L 205.566227 278.741447 
L 207.920803 282.233548 
L 208.845815 283.203511 
L 209.854919 283.96025 
L 211.032207 284.552818 
L 212.461771 285.017483 
L 212.629955 284.977415 
L 212.798139 284.281567 
L 213.302691 280.208908 
L 215.657267 243.768884 
L 216.245911 238.796317 
L 216.666371 236.628258 
L 217.255015 235.890037 
L 217.759567 236.836084 
L 218.011843 237.921496 
L 221.123247 256.932202 
L 221.711891 259.461783 
L 222.384627 261.966468 
L 222.973271 263.602162 
L 223.393731 263.987192 
L 223.477823 263.97135 
L 224.066467 262.411949 
L 224.234651 261.457295 
L 224.823295 255.758736 
L 225.327847 245.540075 
L 225.580123 227.36821 
L 226.084675 190.491356 
L 226.505135 176.686505 
L 226.757411 174.814659 
L 226.841503 175.120177 
L 227.009687 177.136223 
L 227.346055 185.561025 
L 229.111987 242.541318 
L 229.784723 254.899258 
L 230.457459 263.085235 
L 231.130195 268.69626 
L 231.971115 273.237298 
L 232.727943 275.904112 
L 233.484771 277.815651 
L 234.241599 279.180491 
L 235.082519 280.25642 
L 236.007531 281.050816 
L 237.016635 281.610165 
L 238.278015 282.007194 
L 239.034843 282.043539 
L 239.539395 281.887054 
L 240.128039 281.458675 
L 243.239443 278.365501 
L 245.762203 274.850544 
L 247.444043 272.412778 
L 247.864503 272.296701 
L 248.284963 272.41555 
L 249.125883 273.026838 
L 249.798619 273.396685 
L 250.555447 273.427901 
L 251.144091 273.549028 
L 251.985011 273.837557 
L 252.994115 274.123145 
L 253.414575 274.218 
L 253.919127 274.153043 
L 254.760047 273.897918 
L 255.600967 273.806896 
L 256.778255 273.278538 
L 257.198715 273.360904 
L 257.703267 273.726397 
L 260.394211 276.220521 
L 260.730579 276.296745 
L 261.235131 276.190181 
L 264.598811 274.747641 
L 265.944283 274.078552 
L 266.532927 274.032617 
L 267.121571 274.23952 
L 268.130675 274.577814 
L 269.223871 275.336078 
L 269.812515 275.778336 
L 270.317067 275.895462 
L 271.326171 275.818974 
L 273.092103 275.184857 
L 273.764839 274.957676 
L 274.437575 274.3171 
L 275.362587 273.315952 
L 275.867139 273.228491 
L 276.287599 273.383178 
L 276.792151 273.84081 
L 278.642175 275.784704 
L 279.062635 275.821551 
L 279.314911 275.743742 
L 280.239923 274.810492 
L 280.744475 274.423881 
L 281.249027 274.308501 
L 281.837671 274.445064 
L 282.426315 274.722317 
L 283.435419 275.289922 
L 285.537719 274.939365 
L 287.976387 274.085509 
L 288.396847 274.295965 
L 288.901399 274.794083 
L 289.658227 275.919932 
L 292.769631 281.199387 
L 293.778735 282.258664 
L 294.703747 282.896333 
L 295.796943 283.358293 
L 296.385587 283.443029 
L 296.974231 283.253999 
L 299.244715 282.326701 
L 300.169727 282.374585 
L 301.347015 282.687832 
L 302.356119 282.925504 
L 303.785683 282.983443 
L 305.299339 283.117328 
L 306.728903 283.187284 
L 307.401639 282.982871 
L 307.906191 282.630456 
L 308.494835 281.963858 
L 309.251663 280.720489 
L 310.008491 279.063448 
L 310.765319 277.011829 
L 312.531251 271.098336 
L 314.969919 260.183802 
L 315.390379 259.11784 
L 315.810839 258.398732 
L 316.231299 257.870118 
L 316.651759 257.431212 
L 316.904035 257.170633 
L 317.240403 256.94492 
L 317.492679 256.737675 
L 317.829047 256.568303 
L 318.081323 256.61053 
L 318.417691 256.563061 
L 318.838151 256.682751 
L 319.090427 256.843039 
L 319.763163 257.608468 
L 320.267715 258.598756 
L 320.351807 258.527267 
L 321.192727 254.175094 
L 321.445003 253.812599 
L 321.613187 253.859036 
L 321.865463 254.251903 
L 322.201831 255.368261 
L 322.706383 258.084117 
L 325.229143 273.327834 
L 325.985971 275.836436 
L 326.658707 277.413454 
L 327.331443 278.499927 
L 327.835995 279.062356 
L 328.592823 279.596528 
L 329.349651 279.85508 
L 330.274663 279.932742 
L 331.536043 280.094811 
L 332.545147 280.471614 
L 334.395171 281.536155 
L 335.824735 282.316469 
L 337.086115 282.746598 
L 338.936139 283.119429 
L 341.795267 283.461725 
L 346.420327 283.836891 
L 375.347975 285.613653 
L 455.151283 290.323379 
L 471.128763 291.121678 
L 485.424403 291.742393 
L 600.882719 295.71458 
L 647.806055 297.073132 
L 672.024551 297.700262 
L 672.024551 297.700262 
" clip-path="url(#pc3997f7b78)" style="fill: none; stroke: #1f77b4; stroke-width: 1.5; stroke-linecap: square"/>
   </g>
   <g id="line2d_16">
    <path d="M 66.730336 320.65588 
L 68.1599 320.7614 
L 69.757648 321.201216 
L 71.859948 321.9419 
L 75.644088 323.291473 
L 77.325928 323.420665 
L 79.93278 323.620672 
L 80.857792 323.983274 
L 82.03508 324.722006 
L 83.464644 325.889218 
L 85.81922 327.948188 
L 86.828324 328.595211 
L 87.416968 328.551838 
L 88.76244 327.422849 
L 90.44428 324.84274 
L 90.948832 324.055494 
L 92.210212 322.286909 
L 93.80796 319.689307 
L 94.480696 319.351143 
L 95.06934 319.318484 
L 95.237524 319.151062 
L 95.405708 318.482887 
L 96.33072 313.004659 
L 96.582996 312.656971 
L 96.835272 312.638839 
L 97.255732 312.918771 
L 98.096652 313.460263 
L 98.601204 313.574854 
L 98.937572 313.321621 
L 99.105756 311.91245 
L 99.358032 307.464277 
L 99.610308 295.712738 
L 100.283044 245.390782 
L 101.628516 124.523894 
L 102.301252 88.062092 
L 102.889896 72.07519 
L 103.142172 70.993018 
L 103.394448 70.120862 
L 103.47854 70.254517 
L 104.151276 74.741886 
L 105.749024 95.899356 
L 109.196796 148.335613 
L 109.953624 156.094707 
L 110.458176 159.158689 
L 110.794544 159.50272 
L 110.878636 159.494874 
L 111.04682 158.491642 
L 111.46728 152.833508 
L 111.635464 147.358592 
L 112.392292 115.858961 
L 112.560476 114.186676 
L 112.644568 114.10129 
L 112.812752 114.950248 
L 113.065028 117.856519 
L 113.737764 129.697777 
L 114.915052 149.514668 
L 115.924156 162.926142 
L 116.93326 173.645556 
L 118.026456 183.031079 
L 119.287836 191.950547 
L 120.633308 199.910199 
L 122.062872 207.063609 
L 123.576528 213.557561 
L 125.258368 219.765994 
L 127.0243 225.449391 
L 130.892532 236.478282 
L 133.3312 241.88099 
L 136.526696 248.185513 
L 139.722192 253.884303 
L 143.338148 259.695602 
L 145.776816 263.073755 
L 146.78592 263.998552 
L 147.963208 264.76099 
L 149.981416 265.765864 
L 153.261004 267.385815 
L 154.017832 268.217891 
L 155.61558 269.938805 
L 160.745192 274.55519 
L 162.427032 276.035967 
L 167.977104 280.601411 
L 168.986208 281.21851 
L 174.368096 285.413985 
L 175.629476 286.398151 
L 178.656788 288.266325 
L 180.00226 289.019497 
L 184.795504 292.317841 
L 186.645528 293.171324 
L 190.681944 296.229462 
L 192.531968 297.611969 
L 194.970636 299.272142 
L 196.316108 300.005044 
L 199.259327 301.603114 
L 200.436615 302.38061 
L 202.538915 303.697685 
L 203.548019 304.336219 
L 204.304847 304.545998 
L 205.482135 304.603647 
L 208.845815 304.450967 
L 213.050415 304.156421 
L 213.218599 303.807853 
L 213.386783 302.932367 
L 213.807243 298.780753 
L 214.311795 290.796027 
L 215.825451 269.130156 
L 216.414095 263.499968 
L 216.918647 259.802661 
L 217.507291 256.645696 
L 218.011843 254.832915 
L 218.768671 253.712346 
L 219.189131 253.395998 
L 220.114143 253.430664 
L 220.534603 253.701782 
L 221.039155 254.1543 
L 223.477823 257.28718 
L 223.646007 257.27271 
L 224.066467 256.752938 
L 224.234651 256.374889 
L 224.486927 254.96018 
L 224.823295 251.896962 
L 225.159663 243.821281 
L 225.411939 235.042411 
L 225.748307 206.309029 
L 226.252859 168.562929 
L 226.589227 159.489186 
L 226.841503 158.052349 
L 227.009687 158.555545 
L 227.346055 161.297649 
L 229.700631 184.178397 
L 230.793827 191.89932 
L 232.055207 199.187282 
L 233.484771 206.093777 
L 234.998427 212.283515 
L 236.596175 217.863844 
L 238.614383 223.992281 
L 241.725787 232.840104 
L 245.173559 241.289837 
L 247.191767 245.785264 
L 248.537239 248.335607 
L 252.994115 255.821888 
L 257.619175 262.397857 
L 260.310119 265.206385 
L 265.776099 271.504457 
L 267.037479 272.752584 
L 274.605759 279.719506 
L 276.287599 281.195169 
L 278.894451 282.981499 
L 281.585395 285.258018 
L 283.519511 286.606814 
L 286.126363 288.741917 
L 288.396847 290.47347 
L 289.237767 290.715412 
L 290.583239 290.809385 
L 296.553771 291.021322 
L 297.731059 291.6354 
L 298.656071 291.819329 
L 300.337911 291.87162 
L 302.019751 291.975845 
L 303.365223 292.336621 
L 304.794787 292.41649 
L 306.140259 292.546668 
L 307.149363 292.893594 
L 308.242559 293.541214 
L 309.588031 294.55622 
L 312.194883 296.548575 
L 312.699435 296.617007 
L 313.288079 296.244398 
L 314.465367 294.582629 
L 314.969919 293.807622 
L 316.147207 292.150716 
L 317.408587 290.024719 
L 318.081323 288.956702 
L 319.006335 287.765345 
L 319.763163 287.317572 
L 320.351807 287.173971 
L 320.519991 286.791126 
L 320.856359 284.521734 
L 321.360911 281.469624 
L 321.613187 280.841579 
L 321.865463 280.665293 
L 322.117739 280.753821 
L 324.304131 282.241781 
L 330.190571 284.846537 
L 331.367859 285.252439 
L 332.797423 285.471104 
L 339.272507 285.956535 
L 359.202311 286.806899 
L 383.504899 287.620652 
L 412.012087 288.346596 
L 445.985255 288.98271 
L 487.274427 289.52576 
L 538.906915 289.972955 
L 606.096423 290.320932 
L 672.024551 290.514317 
L 672.024551 290.514317 
" clip-path="url(#pc3997f7b78)" style="fill: none; stroke: #ff7f0e; stroke-width: 1.5; stroke-linecap: square"/>
   </g>
   <g id="patch_3">
    <path d="M 36.465625 342.2 
L 36.465625 43.44 
" style="fill: none; stroke: #000000; stroke-width: 0.8; stroke-linejoin: miter; stroke-linecap: square"/>
   </g>
   <g id="patch_4">
    <path d="M 702.289261 342.2 
L 702.289261 43.44 
" style="fill: none; stroke: #000000; stroke-width: 0.8; stroke-linejoin: miter; stroke-linecap: square"/>
   </g>
   <g id="patch_5">
    <path d="M 36.465625 342.2 
L 702.289261 342.2 
" style="fill: none; stroke: #000000; stroke-width: 0.8; stroke-linejoin: miter; stroke-linecap: square"/>
   </g>
   <g id="patch_6">
    <path d="M 36.465625 43.44 
L 702.289261 43.44 
" style="fill: none; stroke: #000000; stroke-width: 0.8; stroke-linejoin: miter; stroke-linecap: square"/>
   </g>
   <g id="text_15">
    <!-- 1 transformation(s) -->
    <g transform="translate(311.262756 37.44) scale(0.12 -0.12)">
     <defs>
      <path id="DejaVuSans-20" transform="scale(0.015625)"/>
      <path id="DejaVuSans-74" d="M 1172 4494 
L 1172 3500 
L 2356 3500 
L 2356 3053 
L 1172 3053 
L 1172 1153 
Q 1172 725 1289 603 
Q 1406 481 1766 481 
L 2356 481 
L 2356 0 
L 1766 0 
Q 1100 0 847 248 
Q 594 497 594 1153 
L 594 3053 
L 172 3053 
L 172 3500 
L 594 3500 
L 594 4494 
L 1172 4494 
z
" transform="scale(0.015625)"/>
      <path id="DejaVuSans-72" d="M 2631 2963 
Q 2534 3019 2420 3045 
Q 2306 3072 2169 3072 
Q 1681 3072 1420 2755 
Q 1159 2438 1159 1844 
L 1159 0 
L 581 0 
L 581 3500 
L 1159 3500 
L 1159 2956 
Q 1341 3275 1631 3429 
Q 1922 3584 2338 3584 
Q 2397 3584 2469 3576 
Q 2541 3569 2628 3553 
L 2631 2963 
z
" transform="scale(0.015625)"/>
      <path id="DejaVuSans-61" d="M 2194 1759 
Q 1497 1759 1228 1600 
Q 959 1441 959 1056 
Q 959 750 1161 570 
Q 1363 391 1709 391 
Q 2188 391 2477 730 
Q 2766 1069 2766 1631 
L 2766 1759 
L 2194 1759 
z
M 3341 1997 
L 3341 0 
L 2766 0 
L 2766 531 
Q 2569 213 2275 61 
Q 1981 -91 1556 -91 
Q 1019 -91 701 211 
Q 384 513 384 1019 
Q 384 1609 779 1909 
Q 1175 2209 1959 2209 
L 2766 2209 
L 2766 2266 
Q 2766 2663 2505 2880 
Q 2244 3097 1772 3097 
Q 1472 3097 1187 3025 
Q 903 2953 641 2809 
L 641 3341 
Q 956 3463 1253 3523 
Q 1550 3584 1831 3584 
Q 2591 3584 2966 3190 
Q 3341 2797 3341 1997 
z
" transform="scale(0.015625)"/>
      <path id="DejaVuSans-6e" d="M 3513 2113 
L 3513 0 
L 2938 0 
L 2938 2094 
Q 2938 2591 2744 2837 
Q 2550 3084 2163 3084 
Q 1697 3084 1428 2787 
Q 1159 2491 1159 1978 
L 1159 0 
L 581 0 
L 581 3500 
L 1159 3500 
L 1159 2956 
Q 1366 3272 1645 3428 
Q 1925 3584 2291 3584 
Q 2894 3584 3203 3211 
Q 3513 2838 3513 2113 
z
" transform="scale(0.015625)"/>
      <path id="DejaVuSans-73" d="M 2834 3397 
L 2834 2853 
Q 2591 2978 2328 3040 
Q 2066 3103 1784 3103 
Q 1356 3103 1142 2972 
Q 928 2841 928 2578 
Q 928 2378 1081 2264 
Q 1234 2150 1697 2047 
L 1894 2003 
Q 2506 1872 2764 1633 
Q 3022 1394 3022 966 
Q 3022 478 2636 193 
Q 2250 -91 1575 -91 
Q 1294 -91 989 -36 
Q 684 19 347 128 
L 347 722 
Q 666 556 975 473 
Q 1284 391 1588 391 
Q 1994 391 2212 530 
Q 2431 669 2431 922 
Q 2431 1156 2273 1281 
Q 2116 1406 1581 1522 
L 1381 1569 
Q 847 1681 609 1914 
Q 372 2147 372 2553 
Q 372 3047 722 3315 
Q 1072 3584 1716 3584 
Q 2034 3584 2315 3537 
Q 2597 3491 2834 3397 
z
" transform="scale(0.015625)"/>
      <path id="DejaVuSans-66" d="M 2375 4863 
L 2375 4384 
L 1825 4384 
Q 1516 4384 1395 4259 
Q 1275 4134 1275 3809 
L 1275 3500 
L 2222 3500 
L 2222 3053 
L 1275 3053 
L 1275 0 
L 697 0 
L 697 3053 
L 147 3053 
L 147 3500 
L 697 3500 
L 697 3744 
Q 697 4328 969 4595 
Q 1241 4863 1831 4863 
L 2375 4863 
z
" transform="scale(0.015625)"/>
      <path id="DejaVuSans-6f" d="M 1959 3097 
Q 1497 3097 1228 2736 
Q 959 2375 959 1747 
Q 959 1119 1226 758 
Q 1494 397 1959 397 
Q 2419 397 2687 759 
Q 2956 1122 2956 1747 
Q 2956 2369 2687 2733 
Q 2419 3097 1959 3097 
z
M 1959 3584 
Q 2709 3584 3137 3096 
Q 3566 2609 3566 1747 
Q 3566 888 3137 398 
Q 2709 -91 1959 -91 
Q 1206 -91 779 398 
Q 353 888 353 1747 
Q 353 2609 779 3096 
Q 1206 3584 1959 3584 
z
" transform="scale(0.015625)"/>
      <path id="DejaVuSans-6d" d="M 3328 2828 
Q 3544 3216 3844 3400 
Q 4144 3584 4550 3584 
Q 5097 3584 5394 3201 
Q 5691 2819 5691 2113 
L 5691 0 
L 5113 0 
L 5113 2094 
Q 5113 2597 4934 2840 
Q 4756 3084 4391 3084 
Q 3944 3084 3684 2787 
Q 3425 2491 3425 1978 
L 3425 0 
L 2847 0 
L 2847 2094 
Q 2847 2600 2669 2842 
Q 2491 3084 2119 3084 
Q 1678 3084 1418 2786 
Q 1159 2488 1159 1978 
L 1159 0 
L 581 0 
L 581 3500 
L 1159 3500 
L 1159 2956 
Q 1356 3278 1631 3431 
Q 1906 3584 2284 3584 
Q 2666 3584 2933 3390 
Q 3200 3197 3328 2828 
z
" transform="scale(0.015625)"/>
      <path id="DejaVuSans-69" d="M 603 3500 
L 1178 3500 
L 1178 0 
L 603 0 
L 603 3500 
z
M 603 4863 
L 1178 4863 
L 1178 4134 
L 603 4134 
L 603 4863 
z
" transform="scale(0.015625)"/>
      <path id="DejaVuSans-28" d="M 1984 4856 
Q 1566 4138 1362 3434 
Q 1159 2731 1159 2009 
Q 1159 1288 1364 580 
Q 1569 -128 1984 -844 
L 1484 -844 
Q 1016 -109 783 600 
Q 550 1309 550 2009 
Q 550 2706 781 3412 
Q 1013 4119 1484 4856 
L 1984 4856 
z
" transform="scale(0.015625)"/>
      <path id="DejaVuSans-29" d="M 513 4856 
L 1013 4856 
Q 1481 4119 1714 3412 
Q 1947 2706 1947 2009 
Q 1947 1309 1714 600 
Q 1481 -109 1013 -844 
L 513 -844 
Q 928 -128 1133 580 
Q 1338 1288 1338 2009 
Q 1338 2731 1133 3434 
Q 928 4138 513 4856 
z
" transform="scale(0.015625)"/>
     </defs>
     <use xlink:href="#DejaVuSans-31"/>
     <use xlink:href="#DejaVuSans-20" x="63.623047"/>
     <use xlink:href="#DejaVuSans-74" x="95.410156"/>
     <use xlink:href="#DejaVuSans-72" x="134.619141"/>
     <use xlink:href="#DejaVuSans-61" x="175.732422"/>
     <use xlink:href="#DejaVuSans-6e" x="237.011719"/>
     <use xlink:href="#DejaVuSans-73" x="300.390625"/>
     <use xlink:href="#DejaVuSans-66" x="352.490234"/>
     <use xlink:href="#DejaVuSans-6f" x="387.695312"/>
     <use xlink:href="#DejaVuSans-72" x="448.876953"/>
     <use xlink:href="#DejaVuSans-6d" x="488.240234"/>
     <use xlink:href="#DejaVuSans-61" x="585.652344"/>
     <use xlink:href="#DejaVuSans-74" x="646.931641"/>
     <use xlink:href="#DejaVuSans-69" x="686.140625"/>
     <use xlink:href="#DejaVuSans-6f" x="713.923828"/>
     <use xlink:href="#DejaVuSans-6e" x="775.105469"/>
     <use xlink:href="#DejaVuSans-28" x="838.484375"/>
     <use xlink:href="#DejaVuSans-73" x="877.498047"/>
     <use xlink:href="#DejaVuSans-29" x="929.597656"/>
    </g>
   </g>
   <g id="legend_1">
    <g id="patch_7">
     <path d="M 613.895511 80.79625 
L 695.289261 80.79625 
Q 697.289261 80.79625 697.289261 78.79625 
L 697.289261 50.44 
Q 697.289261 48.44 695.289261 48.44 
L 613.895511 48.44 
Q 611.895511 48.44 611.895511 50.44 
L 611.895511 78.79625 
Q 611.895511 80.79625 613.895511 80.79625 
z
" style="fill: #ffffff; opacity: 0.8; stroke: #cccccc; stroke-linejoin: miter"/>
    </g>
    <g id="line2d_17">
     <path d="M 615.895511 56.538437 
L 625.895511 56.538437 
L 635.895511 56.538437 
" style="fill: none; stroke: #1f77b4; stroke-width: 1.5; stroke-linecap: square"/>
    </g>
    <g id="text_16">
     <!-- observed -->
     <g transform="translate(643.895511 60.038437) scale(0.1 -0.1)">
      <defs>
       <path id="DejaVuSans-62" d="M 3116 1747 
Q 3116 2381 2855 2742 
Q 2594 3103 2138 3103 
Q 1681 3103 1420 2742 
Q 1159 2381 1159 1747 
Q 1159 1113 1420 752 
Q 1681 391 2138 391 
Q 2594 391 2855 752 
Q 3116 1113 3116 1747 
z
M 1159 2969 
Q 1341 3281 1617 3432 
Q 1894 3584 2278 3584 
Q 2916 3584 3314 3078 
Q 3713 2572 3713 1747 
Q 3713 922 3314 415 
Q 2916 -91 2278 -91 
Q 1894 -91 1617 61 
Q 1341 213 1159 525 
L 1159 0 
L 581 0 
L 581 4863 
L 1159 4863 
L 1159 2969 
z
" transform="scale(0.015625)"/>
       <path id="DejaVuSans-65" d="M 3597 1894 
L 3597 1613 
L 953 1613 
Q 991 1019 1311 708 
Q 1631 397 2203 397 
Q 2534 397 2845 478 
Q 3156 559 3463 722 
L 3463 178 
Q 3153 47 2828 -22 
Q 2503 -91 2169 -91 
Q 1331 -91 842 396 
Q 353 884 353 1716 
Q 353 2575 817 3079 
Q 1281 3584 2069 3584 
Q 2775 3584 3186 3129 
Q 3597 2675 3597 1894 
z
M 3022 2063 
Q 3016 2534 2758 2815 
Q 2500 3097 2075 3097 
Q 1594 3097 1305 2825 
Q 1016 2553 972 2059 
L 3022 2063 
z
" transform="scale(0.015625)"/>
       <path id="DejaVuSans-76" d="M 191 3500 
L 800 3500 
L 1894 563 
L 2988 3500 
L 3597 3500 
L 2284 0 
L 1503 0 
L 191 3500 
z
" transform="scale(0.015625)"/>
       <path id="DejaVuSans-64" d="M 2906 2969 
L 2906 4863 
L 3481 4863 
L 3481 0 
L 2906 0 
L 2906 525 
Q 2725 213 2448 61 
Q 2172 -91 1784 -91 
Q 1150 -91 751 415 
Q 353 922 353 1747 
Q 353 2572 751 3078 
Q 1150 3584 1784 3584 
Q 2172 3584 2448 3432 
Q 2725 3281 2906 2969 
z
M 947 1747 
Q 947 1113 1208 752 
Q 1469 391 1925 391 
Q 2381 391 2643 752 
Q 2906 1113 2906 1747 
Q 2906 2381 2643 2742 
Q 2381 3103 1925 3103 
Q 1469 3103 1208 2742 
Q 947 2381 947 1747 
z
" transform="scale(0.015625)"/>
      </defs>
      <use xlink:href="#DejaVuSans-6f"/>
      <use xlink:href="#DejaVuSans-62" x="61.181641"/>
      <use xlink:href="#DejaVuSans-73" x="124.658203"/>
      <use xlink:href="#DejaVuSans-65" x="176.757812"/>
      <use xlink:href="#DejaVuSans-72" x="238.28125"/>
      <use xlink:href="#DejaVuSans-76" x="279.394531"/>
      <use xlink:href="#DejaVuSans-65" x="338.574219"/>
      <use xlink:href="#DejaVuSans-64" x="400.097656"/>
     </g>
    </g>
    <g id="line2d_18">
     <path d="M 615.895511 71.216563 
L 625.895511 71.216563 
L 635.895511 71.216563 
" style="fill: none; stroke: #ff7f0e; stroke-width: 1.5; stroke-linecap: square"/>
    </g>
    <g id="text_17">
     <!-- simulated -->
     <g transform="translate(643.895511 74.716563) scale(0.1 -0.1)">
      <defs>
       <path id="DejaVuSans-75" d="M 544 1381 
L 544 3500 
L 1119 3500 
L 1119 1403 
Q 1119 906 1312 657 
Q 1506 409 1894 409 
Q 2359 409 2629 706 
Q 2900 1003 2900 1516 
L 2900 3500 
L 3475 3500 
L 3475 0 
L 2900 0 
L 2900 538 
Q 2691 219 2414 64 
Q 2138 -91 1772 -91 
Q 1169 -91 856 284 
Q 544 659 544 1381 
z
M 1991 3584 
L 1991 3584 
z
" transform="scale(0.015625)"/>
       <path id="DejaVuSans-6c" d="M 603 4863 
L 1178 4863 
L 1178 0 
L 603 0 
L 603 4863 
z
" transform="scale(0.015625)"/>
      </defs>
      <use xlink:href="#DejaVuSans-73"/>
      <use xlink:href="#DejaVuSans-69" x="52.099609"/>
      <use xlink:href="#DejaVuSans-6d" x="79.882812"/>
      <use xlink:href="#DejaVuSans-75" x="177.294922"/>
      <use xlink:href="#DejaVuSans-6c" x="240.673828"/>
      <use xlink:href="#DejaVuSans-61" x="268.457031"/>
      <use xlink:href="#DejaVuSans-74" x="329.736328"/>
      <use xlink:href="#DejaVuSans-65" x="368.945312"/>
      <use xlink:href="#DejaVuSans-64" x="430.46875"/>
     </g>
    </g>
   </g>
  </g>
  <g id="axes_2">
   <g id="patch_8">
    <path d="M 36.465625 684.92 
L 702.289261 684.92 
L 702.289261 386.16 
L 36.465625 386.16 
z
" style="fill: #ffffff"/>
   </g>
   <g id="matplotlib.axis_3">
    <g id="xtick_7">
     <g id="line2d_19">
      <g>
       <use xlink:href="#m7de4af2ab9" x="66.562152" y="684.92" style="stroke: #000000; stroke-width: 0.8"/>
      </g>
     </g>
     <g id="text_18">
      <!-- 2014-07-01 -->
      <g transform="translate(37.504339 699.518437) scale(0.1 -0.1)">
       <use xlink:href="#DejaVuSans-32"/>
       <use xlink:href="#DejaVuSans-30" x="63.623047"/>
       <use xlink:href="#DejaVuSans-31" x="127.246094"/>
       <use xlink:href="#DejaVuSans-34" x="190.869141"/>
       <use xlink:href="#DejaVuSans-2d" x="254.492188"/>
       <use xlink:href="#DejaVuSans-30" x="290.576172"/>
       <use xlink:href="#DejaVuSans-37" x="354.199219"/>
       <use xlink:href="#DejaVuSans-2d" x="417.822266"/>
       <use xlink:href="#DejaVuSans-30" x="453.90625"/>
       <use xlink:href="#DejaVuSans-31" x="517.529297"/>
      </g>
     </g>
    </g>
    <g id="xtick_8">
     <g id="line2d_20">
      <g>
       <use xlink:href="#m7de4af2ab9" x="187.654632" y="684.92" style="stroke: #000000; stroke-width: 0.8"/>
      </g>
     </g>
     <g id="text_19">
      <!-- 2014-07-02 -->
      <g transform="translate(158.596819 699.518437) scale(0.1 -0.1)">
       <use xlink:href="#DejaVuSans-32"/>
       <use xlink:href="#DejaVuSans-30" x="63.623047"/>
       <use xlink:href="#DejaVuSans-31" x="127.246094"/>
       <use xlink:href="#DejaVuSans-34" x="190.869141"/>
       <use xlink:href="#DejaVuSans-2d" x="254.492188"/>
       <use xlink:href="#DejaVuSans-30" x="290.576172"/>
       <use xlink:href="#DejaVuSans-37" x="354.199219"/>
       <use xlink:href="#DejaVuSans-2d" x="417.822266"/>
       <use xlink:href="#DejaVuSans-30" x="453.90625"/>
       <use xlink:href="#DejaVuSans-32" x="517.529297"/>
      </g>
     </g>
    </g>
    <g id="xtick_9">
     <g id="line2d_21">
      <g>
       <use xlink:href="#m7de4af2ab9" x="308.747111" y="684.92" style="stroke: #000000; stroke-width: 0.8"/>
      </g>
     </g>
     <g id="text_20">
      <!-- 2014-07-03 -->
      <g transform="translate(279.689299 699.518437) scale(0.1 -0.1)">
       <use xlink:href="#DejaVuSans-32"/>
       <use xlink:href="#DejaVuSans-30" x="63.623047"/>
       <use xlink:href="#DejaVuSans-31" x="127.246094"/>
       <use xlink:href="#DejaVuSans-34" x="190.869141"/>
       <use xlink:href="#DejaVuSans-2d" x="254.492188"/>
       <use xlink:href="#DejaVuSans-30" x="290.576172"/>
       <use xlink:href="#DejaVuSans-37" x="354.199219"/>
       <use xlink:href="#DejaVuSans-2d" x="417.822266"/>
       <use xlink:href="#DejaVuSans-30" x="453.90625"/>
       <use xlink:href="#DejaVuSans-33" x="517.529297"/>
      </g>
     </g>
    </g>
    <g id="xtick_10">
     <g id="line2d_22">
      <g>
       <use xlink:href="#m7de4af2ab9" x="429.839591" y="684.92" style="stroke: #000000; stroke-width: 0.8"/>
      </g>
     </g>
     <g id="text_21">
      <!-- 2014-07-04 -->
      <g transform="translate(400.781779 699.518437) scale(0.1 -0.1)">
       <use xlink:href="#DejaVuSans-32"/>
       <use xlink:href="#DejaVuSans-30" x="63.623047"/>
       <use xlink:href="#DejaVuSans-31" x="127.246094"/>
       <use xlink:href="#DejaVuSans-34" x="190.869141"/>
       <use xlink:href="#DejaVuSans-2d" x="254.492188"/>
       <use xlink:href="#DejaVuSans-30" x="290.576172"/>
       <use xlink:href="#DejaVuSans-37" x="354.199219"/>
       <use xlink:href="#DejaVuSans-2d" x="417.822266"/>
       <use xlink:href="#DejaVuSans-30" x="453.90625"/>
       <use xlink:href="#DejaVuSans-34" x="517.529297"/>
      </g>
     </g>
    </g>
    <g id="xtick_11">
     <g id="line2d_23">
      <g>
       <use xlink:href="#m7de4af2ab9" x="550.932071" y="684.92" style="stroke: #000000; stroke-width: 0.8"/>
      </g>
     </g>
     <g id="text_22">
      <!-- 2014-07-05 -->
      <g transform="translate(521.874258 699.518437) scale(0.1 -0.1)">
       <use xlink:href="#DejaVuSans-32"/>
       <use xlink:href="#DejaVuSans-30" x="63.623047"/>
       <use xlink:href="#DejaVuSans-31" x="127.246094"/>
       <use xlink:href="#DejaVuSans-34" x="190.869141"/>
       <use xlink:href="#DejaVuSans-2d" x="254.492188"/>
       <use xlink:href="#DejaVuSans-30" x="290.576172"/>
       <use xlink:href="#DejaVuSans-37" x="354.199219"/>
       <use xlink:href="#DejaVuSans-2d" x="417.822266"/>
       <use xlink:href="#DejaVuSans-30" x="453.90625"/>
       <use xlink:href="#DejaVuSans-35" x="517.529297"/>
      </g>
     </g>
    </g>
    <g id="xtick_12">
     <g id="line2d_24">
      <g>
       <use xlink:href="#m7de4af2ab9" x="672.024551" y="684.92" style="stroke: #000000; stroke-width: 0.8"/>
      </g>
     </g>
     <g id="text_23">
      <!-- 2014-07-06 -->
      <g transform="translate(642.966738 699.518437) scale(0.1 -0.1)">
       <use xlink:href="#DejaVuSans-32"/>
       <use xlink:href="#DejaVuSans-30" x="63.623047"/>
       <use xlink:href="#DejaVuSans-31" x="127.246094"/>
       <use xlink:href="#DejaVuSans-34" x="190.869141"/>
       <use xlink:href="#DejaVuSans-2d" x="254.492188"/>
       <use xlink:href="#DejaVuSans-30" x="290.576172"/>
       <use xlink:href="#DejaVuSans-37" x="354.199219"/>
       <use xlink:href="#DejaVuSans-2d" x="417.822266"/>
       <use xlink:href="#DejaVuSans-30" x="453.90625"/>
       <use xlink:href="#DejaVuSans-36" x="517.529297"/>
      </g>
     </g>
    </g>
   </g>
   <g id="matplotlib.axis_4">
    <g id="ytick_9">
     <g id="line2d_25">
      <g>
       <use xlink:href="#m9e9242b073" x="36.465625" y="671.339977" style="stroke: #000000; stroke-width: 0.8"/>
      </g>
     </g>
     <g id="text_24">
      <!-- 0.00 -->
      <g transform="translate(7.2 675.139196) scale(0.1 -0.1)">
       <use xlink:href="#DejaVuSans-30"/>
       <use xlink:href="#DejaVuSans-2e" x="63.623047"/>
       <use xlink:href="#DejaVuSans-30" x="95.410156"/>
       <use xlink:href="#DejaVuSans-30" x="159.033203"/>
      </g>
     </g>
    </g>
    <g id="ytick_10">
     <g id="line2d_26">
      <g>
       <use xlink:href="#m9e9242b073" x="36.465625" y="633.903848" style="stroke: #000000; stroke-width: 0.8"/>
      </g>
     </g>
     <g id="text_25">
      <!-- 0.25 -->
      <g transform="translate(7.2 637.703067) scale(0.1 -0.1)">
       <use xlink:href="#DejaVuSans-30"/>
       <use xlink:href="#DejaVuSans-2e" x="63.623047"/>
       <use xlink:href="#DejaVuSans-32" x="95.410156"/>
       <use xlink:href="#DejaVuSans-35" x="159.033203"/>
      </g>
     </g>
    </g>
    <g id="ytick_11">
     <g id="line2d_27">
      <g>
       <use xlink:href="#m9e9242b073" x="36.465625" y="596.467719" style="stroke: #000000; stroke-width: 0.8"/>
      </g>
     </g>
     <g id="text_26">
      <!-- 0.50 -->
      <g transform="translate(7.2 600.266938) scale(0.1 -0.1)">
       <use xlink:href="#DejaVuSans-30"/>
       <use xlink:href="#DejaVuSans-2e" x="63.623047"/>
       <use xlink:href="#DejaVuSans-35" x="95.410156"/>
       <use xlink:href="#DejaVuSans-30" x="159.033203"/>
      </g>
     </g>
    </g>
    <g id="ytick_12">
     <g id="line2d_28">
      <g>
       <use xlink:href="#m9e9242b073" x="36.465625" y="559.03159" style="stroke: #000000; stroke-width: 0.8"/>
      </g>
     </g>
     <g id="text_27">
      <!-- 0.75 -->
      <g transform="translate(7.2 562.830809) scale(0.1 -0.1)">
       <use xlink:href="#DejaVuSans-30"/>
       <use xlink:href="#DejaVuSans-2e" x="63.623047"/>
       <use xlink:href="#DejaVuSans-37" x="95.410156"/>
       <use xlink:href="#DejaVuSans-35" x="159.033203"/>
      </g>
     </g>
    </g>
    <g id="ytick_13">
     <g id="line2d_29">
      <g>
       <use xlink:href="#m9e9242b073" x="36.465625" y="521.595461" style="stroke: #000000; stroke-width: 0.8"/>
      </g>
     </g>
     <g id="text_28">
      <!-- 1.00 -->
      <g transform="translate(7.2 525.39468) scale(0.1 -0.1)">
       <use xlink:href="#DejaVuSans-31"/>
       <use xlink:href="#DejaVuSans-2e" x="63.623047"/>
       <use xlink:href="#DejaVuSans-30" x="95.410156"/>
       <use xlink:href="#DejaVuSans-30" x="159.033203"/>
      </g>
     </g>
    </g>
    <g id="ytick_14">
     <g id="line2d_30">
      <g>
       <use xlink:href="#m9e9242b073" x="36.465625" y="484.159332" style="stroke: #000000; stroke-width: 0.8"/>
      </g>
     </g>
     <g id="text_29">
      <!-- 1.25 -->
      <g transform="translate(7.2 487.958551) scale(0.1 -0.1)">
       <use xlink:href="#DejaVuSans-31"/>
       <use xlink:href="#DejaVuSans-2e" x="63.623047"/>
       <use xlink:href="#DejaVuSans-32" x="95.410156"/>
       <use xlink:href="#DejaVuSans-35" x="159.033203"/>
      </g>
     </g>
    </g>
    <g id="ytick_15">
     <g id="line2d_31">
      <g>
       <use xlink:href="#m9e9242b073" x="36.465625" y="446.723203" style="stroke: #000000; stroke-width: 0.8"/>
      </g>
     </g>
     <g id="text_30">
      <!-- 1.50 -->
      <g transform="translate(7.2 450.522422) scale(0.1 -0.1)">
       <use xlink:href="#DejaVuSans-31"/>
       <use xlink:href="#DejaVuSans-2e" x="63.623047"/>
       <use xlink:href="#DejaVuSans-35" x="95.410156"/>
       <use xlink:href="#DejaVuSans-30" x="159.033203"/>
      </g>
     </g>
    </g>
    <g id="ytick_16">
     <g id="line2d_32">
      <g>
       <use xlink:href="#m9e9242b073" x="36.465625" y="409.287074" style="stroke: #000000; stroke-width: 0.8"/>
      </g>
     </g>
     <g id="text_31">
      <!-- 1.75 -->
      <g transform="translate(7.2 413.086293) scale(0.1 -0.1)">
       <use xlink:href="#DejaVuSans-31"/>
       <use xlink:href="#DejaVuSans-2e" x="63.623047"/>
       <use xlink:href="#DejaVuSans-37" x="95.410156"/>
       <use xlink:href="#DejaVuSans-35" x="159.033203"/>
      </g>
     </g>
    </g>
   </g>
   <g id="line2d_33">
    <path d="M 66.730336 671.339974 
L 69.757648 671.227249 
L 71.691764 670.818127 
L 73.962248 670.010334 
L 75.559996 669.506047 
L 76.98956 669.311187 
L 78.755492 669.316304 
L 81.446436 669.352096 
L 82.371448 669.06917 
L 82.876 668.737191 
L 83.29646 668.234345 
L 83.801012 667.076914 
L 84.389656 664.899087 
L 85.230576 661.343651 
L 85.987404 659.014685 
L 86.323772 658.022813 
L 86.828324 655.649595 
L 88.173796 643.837975 
L 89.435176 633.071446 
L 90.276096 628.002328 
L 90.780648 625.666234 
L 91.957936 622.792889 
L 92.210212 622.455279 
L 92.54658 621.945278 
L 92.798856 621.7219 
L 93.135224 621.366269 
L 93.3875 621.288136 
L 93.639776 621.162541 
L 93.80796 621.224707 
L 94.732972 622.395028 
L 95.153432 623.065103 
L 95.826168 619.052047 
L 96.078444 618.511324 
L 96.246628 618.537681 
L 96.498904 618.928643 
L 97.003456 620.451761 
L 97.339824 621.8288 
L 98.096652 625.951528 
L 98.769388 629.503025 
L 98.937572 627.499592 
L 99.358032 619.973146 
L 99.946676 587.918343 
L 100.283044 559.185197 
L 101.460332 457.101792 
L 102.133068 416.7327 
L 102.63762 401.603102 
L 102.805804 399.766241 
L 102.889896 399.74 
L 103.142172 400.5517 
L 103.226264 400.736261 
L 103.47854 403.350798 
L 103.814908 408.19831 
L 104.067184 412.684179 
L 104.403552 419.028955 
L 105.16038 433.183374 
L 107.094496 480.372059 
L 108.1036 506.061629 
L 108.355876 511.420498 
L 108.860428 521.025284 
L 109.36498 528.898289 
L 109.869532 533.669737 
L 109.953624 533.224847 
L 110.121808 534.167662 
L 110.2059 533.450545 
L 110.289992 533.520994 
L 110.374084 533.235995 
L 110.878636 525.727007 
L 111.46728 502.681947 
L 112.224108 451.702865 
L 112.560476 440.762954 
L 112.812752 438.500526 
L 112.896844 438.559398 
L 113.065028 440.426535 
L 113.821856 459.747408 
L 115.25142 504.097794 
L 116.09234 515.017409 
L 116.93326 520.170349 
L 117.017352 520.120617 
L 117.101444 519.949783 
L 117.269628 521.019108 
L 117.35372 520.591453 
L 117.521904 521.944384 
L 117.605996 521.524914 
L 117.77418 522.489588 
L 117.858272 522.326377 
L 117.942364 522.151268 
L 118.026456 523.052133 
L 118.19464 522.269441 
L 118.278732 523.32959 
L 118.362824 523.179473 
L 118.446916 522.828524 
L 118.6151 523.748641 
L 118.699192 523.132811 
L 118.867376 524.378717 
L 118.951468 523.53725 
L 119.119652 524.500326 
L 119.287836 523.720776 
L 119.371928 524.824044 
L 119.540112 524.063112 
L 119.708296 524.97924 
L 119.792388 524.412277 
L 119.87648 525.289588 
L 120.044664 524.757576 
L 120.212848 525.428629 
L 120.29694 525.029303 
L 120.381032 525.233866 
L 120.465124 525.907917 
L 120.549216 525.23848 
L 120.7174 526.126038 
L 120.801492 525.620366 
L 120.885584 525.751141 
L 120.969676 526.531727 
L 121.13786 525.812477 
L 121.221952 526.850358 
L 121.390136 526.113649 
L 121.55832 527.138838 
L 121.642412 526.474533 
L 121.810596 527.362456 
L 121.894688 526.762504 
L 122.062872 527.745573 
L 122.146964 527.19804 
L 122.315148 528.199969 
L 122.39924 527.631461 
L 122.483332 527.66569 
L 122.567424 528.559451 
L 122.651516 528.282967 
L 122.735608 528.041872 
L 122.8197 528.988364 
L 122.903792 528.536396 
L 122.987884 528.661853 
L 123.071976 529.362788 
L 123.24016 528.692771 
L 123.324252 529.796628 
L 123.492436 529.245462 
L 123.576528 530.218231 
L 123.66062 530.059197 
L 123.744712 529.773939 
L 123.828804 530.70491 
L 123.996988 530.205825 
L 124.08108 531.218045 
L 124.165172 530.702188 
L 124.249264 530.766568 
L 124.333356 531.716362 
L 124.417448 531.239814 
L 124.50154 531.294411 
L 124.585632 532.295081 
L 124.669724 531.600421 
L 125.090184 533.365789 
L 125.174276 532.745808 
L 125.34246 533.901933 
L 125.426552 533.331212 
L 125.594736 534.371689 
L 125.678828 534.005781 
L 125.76292 535.218922 
L 125.931104 534.757154 
L 126.267472 535.812519 
L 126.687932 537.075339 
L 127.44476 539.149314 
L 127.781128 539.475246 
L 128.537956 539.97135 
L 128.874324 540.645169 
L 129.462968 542.547919 
L 130.303888 546.28395 
L 133.919844 563.629144 
L 134.928948 567.140878 
L 135.769868 569.383036 
L 137.031248 572.037542 
L 138.292628 574.128887 
L 139.974468 576.432943 
L 141.7404 578.289315 
L 142.665412 579.091251 
L 144.68362 581.020669 
L 145.188172 582.03346 
L 145.860908 583.929471 
L 146.870012 587.503585 
L 148.720036 593.879128 
L 149.813232 596.690918 
L 151.326888 599.795888 
L 152.840544 602.356953 
L 153.51328 603.173705 
L 153.93374 603.37057 
L 154.438292 603.313482 
L 155.531488 603.047481 
L 156.120132 603.284412 
L 157.045144 604.028934 
L 158.895168 605.876569 
L 159.651996 606.521322 
L 160.24064 606.762364 
L 161.333836 607.13996 
L 162.090664 607.679197 
L 164.697516 610.128845 
L 165.454344 610.405111 
L 166.379356 610.653565 
L 166.968 611.02245 
L 167.640736 611.762817 
L 169.995312 614.946242 
L 171.088508 615.655888 
L 171.845336 616.449724 
L 172.349888 616.916334 
L 173.106716 617.321251 
L 173.527176 617.363036 
L 174.11582 617.23645 
L 174.704464 617.08947 
L 175.293108 617.236031 
L 175.79766 617.586355 
L 176.470396 618.399122 
L 177.647684 619.659153 
L 180.170444 622.018301 
L 181.6841 622.308986 
L 182.10456 622.233231 
L 183.702308 621.853323 
L 184.20686 622.021912 
L 184.795504 622.447094 
L 185.636424 623.383166 
L 186.393252 624.156469 
L 186.813712 624.378119 
L 187.234172 624.428075 
L 189.756932 623.477508 
L 190.766036 622.724208 
L 191.859232 622.358643 
L 193.709256 622.683369 
L 194.886544 623.489053 
L 197.325212 625.691315 
L 198.502499 626.733992 
L 198.838867 626.776995 
L 200.857075 626.296055 
L 202.034363 626.323702 
L 203.211651 625.921324 
L 203.716203 626.05372 
L 204.220755 626.417826 
L 204.893491 627.177436 
L 206.238963 629.248194 
L 207.584435 631.311941 
L 208.593539 632.515148 
L 209.602643 633.367793 
L 210.695839 633.996488 
L 212.041311 634.506453 
L 212.629955 634.583712 
L 212.798139 633.866843 
L 213.302691 629.671154 
L 215.657267 592.130325 
L 216.245911 587.007544 
L 216.666371 584.77399 
L 217.255015 584.013468 
L 217.759567 584.988094 
L 218.011843 586.106294 
L 221.123247 605.69129 
L 221.711891 608.297285 
L 222.384627 610.877634 
L 222.973271 612.56274 
L 223.393731 612.959401 
L 223.477823 612.943081 
L 224.066467 611.336573 
L 224.234651 610.35308 
L 224.823295 604.482375 
L 225.327847 593.955021 
L 225.580123 575.234208 
L 226.084675 537.243352 
L 226.505135 523.021474 
L 226.757411 521.093082 
L 226.841503 521.40783 
L 227.009687 523.484778 
L 227.346055 532.164082 
L 229.111987 590.865676 
L 229.784723 603.596933 
L 230.457459 612.030198 
L 231.130195 617.810724 
L 231.971115 622.488941 
L 232.727943 625.236317 
L 233.484771 627.205601 
L 234.241599 628.61167 
L 235.082519 629.720102 
L 235.923439 630.479128 
L 236.932543 631.074497 
L 237.941647 631.447537 
L 238.782567 631.577942 
L 239.455303 631.444052 
L 240.043947 631.03979 
L 243.155351 627.884851 
L 245.594019 624.449278 
L 247.191767 621.833584 
L 247.612227 621.564535 
L 248.032687 621.538428 
L 248.537239 621.794933 
L 249.966803 622.6812 
L 250.639539 622.687578 
L 251.144091 622.810089 
L 251.985011 623.107334 
L 252.910023 623.356341 
L 253.330483 623.495524 
L 253.919127 623.43235 
L 254.760047 623.169517 
L 255.600967 623.075746 
L 256.778255 622.531427 
L 257.198715 622.616281 
L 257.703267 622.992815 
L 260.394211 625.562284 
L 260.730579 625.64081 
L 261.235131 625.531027 
L 264.598811 624.044909 
L 265.944283 623.355609 
L 266.532927 623.308286 
L 267.037479 623.483047 
L 267.710215 623.670691 
L 268.382951 624.022337 
L 269.139779 624.573712 
L 269.896607 625.142336 
L 270.485251 625.22964 
L 271.410263 625.111833 
L 272.419367 624.6781 
L 273.260287 624.442169 
L 274.101207 623.964491 
L 274.521667 623.496743 
L 275.026219 622.812793 
L 275.446679 622.535256 
L 275.951231 622.493069 
L 276.371691 622.696981 
L 276.960335 623.310129 
L 278.221715 624.776258 
L 278.810359 625.150494 
L 279.230819 625.127783 
L 279.819463 624.617826 
L 280.660383 623.75684 
L 281.164935 623.596007 
L 281.585395 623.659624 
L 282.510407 624.078648 
L 283.183143 624.524805 
L 283.603603 624.571905 
L 284.696799 624.371947 
L 285.874087 624.1143 
L 286.967283 623.608481 
L 287.724111 623.330961 
L 288.144571 623.42521 
L 288.649123 623.804837 
L 289.321859 624.689904 
L 290.330963 626.509196 
L 291.760527 629.199903 
L 292.769631 630.691554 
L 293.778735 631.782831 
L 294.703747 632.439763 
L 295.796943 632.915678 
L 296.385587 633.002974 
L 296.974231 632.808234 
L 299.244715 631.852923 
L 300.169727 631.902254 
L 301.262923 632.195125 
L 302.356119 632.469815 
L 303.701591 632.528639 
L 305.131155 632.645509 
L 306.644811 632.750959 
L 307.317547 632.570557 
L 307.906191 632.165854 
L 308.494835 631.47912 
L 309.251663 630.19819 
L 310.008491 628.491091 
L 310.681227 626.640985 
L 312.278975 621.310699 
L 313.203987 616.98157 
L 314.213091 611.83996 
L 315.054011 608.769644 
L 315.474471 607.831862 
L 315.810839 607.202122 
L 316.231299 606.657539 
L 316.651759 606.205374 
L 316.904035 605.936923 
L 317.240403 605.704392 
L 317.492679 605.490886 
L 317.829047 605.316398 
L 318.081323 605.3599 
L 318.417691 605.310998 
L 318.754059 605.417229 
L 319.006335 605.509696 
L 319.847255 606.52911 
L 320.267715 607.408188 
L 320.351807 607.33454 
L 321.192727 602.850893 
L 321.445003 602.477447 
L 321.613187 602.525288 
L 321.865463 602.930022 
L 322.201831 604.080104 
L 322.706383 606.878002 
L 325.229143 622.582212 
L 325.985971 625.166595 
L 326.658707 626.791254 
L 327.331443 627.910548 
L 327.835995 628.489967 
L 328.508731 628.995171 
L 329.265559 629.286422 
L 330.106479 629.379631 
L 331.451951 629.532529 
L 332.376963 629.860986 
L 333.722435 630.61812 
L 335.992919 631.91616 
L 337.170207 632.308095 
L 339.104323 632.695826 
L 342.047543 633.048614 
L 347.093063 633.454094 
L 387.373131 635.974421 
L 431.773707 638.810714 
L 448.928475 639.776702 
L 486.433507 641.590199 
L 580.364271 644.961071 
L 667.567675 647.575812 
L 672.024551 647.690899 
L 672.024551 647.690899 
" clip-path="url(#p7237e3b7f3)" style="fill: none; stroke: #1f77b4; stroke-width: 1.5; stroke-linecap: square"/>
   </g>
   <g id="line2d_34">
    <path d="M 66.730336 671.339977 
L 69.337188 671.229009 
L 71.94404 670.881276 
L 75.980456 670.23823 
L 81.446436 669.727808 
L 82.539632 669.253216 
L 83.380552 668.607133 
L 84.221472 667.704113 
L 85.314668 666.225365 
L 86.155588 664.877933 
L 86.912416 663.204972 
L 87.669244 660.443856 
L 89.351084 653.459593 
L 89.771544 651.904782 
L 90.360188 650.108433 
L 90.948832 648.712769 
L 91.201108 648.316038 
L 91.453384 647.964548 
L 91.70566 647.78044 
L 92.042028 647.34402 
L 92.294304 647.207086 
L 92.630672 646.8142 
L 92.798856 646.795027 
L 93.303408 646.392803 
L 93.471592 646.36178 
L 93.80796 646.078066 
L 94.564788 647.002984 
L 95.06934 647.922042 
L 95.237524 647.960034 
L 95.405708 647.173734 
L 96.078444 642.34048 
L 96.33072 641.779396 
L 96.582996 641.830785 
L 96.835272 642.121563 
L 97.928468 645.229573 
L 98.096652 646.326679 
L 98.85348 652.765945 
L 98.937572 652.622878 
L 99.105756 650.825777 
L 99.358032 645.180318 
L 99.610308 631.941181 
L 100.451228 566.778089 
L 102.133068 434.964841 
L 102.469436 424.725356 
L 102.889896 415.403583 
L 102.973988 415.34215 
L 103.142172 415.6653 
L 103.394448 415.542793 
L 103.562632 416.978776 
L 104.655828 432.146383 
L 107.767232 497.270406 
L 108.52406 510.307555 
L 109.280888 520.5299 
L 109.953624 526.280483 
L 110.374084 527.736473 
L 110.458176 527.6348 
L 110.794544 526.213242 
L 110.962728 524.859234 
L 111.299096 518.410079 
L 111.551372 511.675696 
L 112.560476 466.465703 
L 112.812752 464.564004 
L 112.980936 464.418305 
L 113.065028 464.539454 
L 113.233212 465.872617 
L 113.737764 472.723835 
L 114.4105 489.763721 
L 115.335512 520.450679 
L 115.924156 532.46144 
L 116.5128 539.899675 
L 117.101444 544.609928 
L 117.77418 548.195987 
L 118.6151 551.288089 
L 119.45602 553.530378 
L 121.053768 557.0226 
L 123.576528 562.006491 
L 126.099288 566.509276 
L 127.360668 568.454063 
L 127.697036 568.604316 
L 128.369772 568.726439 
L 128.874324 569.152269 
L 129.799336 570.334344 
L 130.38798 571.330445 
L 131.565268 573.686425 
L 132.742556 575.445068 
L 134.676672 577.848099 
L 137.199432 580.496043 
L 139.6381 582.596841 
L 141.908584 584.14594 
L 144.515436 585.488639 
L 144.935896 585.932709 
L 145.608632 586.858219 
L 146.533644 588.476823 
L 147.542748 590.339355 
L 148.551852 591.71799 
L 150.317784 593.617252 
L 153.345096 596.620863 
L 154.101924 596.987064 
L 155.111028 597.452081 
L 156.288316 598.30983 
L 158.474708 599.939526 
L 159.483812 600.561127 
L 162.174756 601.756921 
L 164.44524 603.231061 
L 166.883908 604.03955 
L 167.472552 604.473106 
L 169.406668 605.898984 
L 170.079404 606.149256 
L 171.004416 606.451533 
L 173.190808 607.410119 
L 173.863544 607.456475 
L 174.95674 607.451961 
L 176.049936 608.088956 
L 177.815868 609.299069 
L 180.590904 610.604166 
L 182.188652 610.968885 
L 183.281848 611.115396 
L 184.711412 611.799617 
L 186.30916 612.856733 
L 187.15008 613.001905 
L 189.000104 613.151294 
L 189.756932 613.203679 
L 190.597852 613.187529 
L 192.279692 613.479243 
L 193.961532 614.147822 
L 195.222912 614.741542 
L 195.811556 615.054379 
L 196.736568 615.544361 
L 198.754775 616.324433 
L 199.932063 616.240721 
L 201.613903 616.726045 
L 202.202547 616.882607 
L 203.463927 617.042302 
L 204.641215 617.659198 
L 206.407147 618.856581 
L 212.461771 621.871276 
L 212.882231 621.175801 
L 213.134507 619.796341 
L 213.386783 617.158359 
L 213.975427 606.745392 
L 215.236807 580.107161 
L 215.741359 572.499363 
L 216.161819 568.192234 
L 216.666371 566.545936 
L 217.255015 568.441193 
L 219.189131 584.324064 
L 219.861867 590.028682 
L 220.618695 595.588123 
L 221.795983 602.033083 
L 222.636903 605.484792 
L 223.141455 606.93789 
L 223.561915 607.192811 
L 223.730099 606.849624 
L 224.150559 605.283764 
L 224.402835 603.292427 
L 224.823295 597.606173 
L 225.243755 585.027526 
L 225.411939 577.258497 
L 226.505135 503.947653 
L 226.841503 499.61031 
L 227.009687 499.142589 
L 227.261963 500.855592 
L 227.598331 504.390118 
L 228.186975 517.95306 
L 229.364263 558.819923 
L 229.868815 568.324634 
L 230.373367 573.841891 
L 230.877919 577.033916 
L 231.382471 578.981665 
L 231.971115 580.4819 
L 232.727943 581.828762 
L 234.157507 583.767141 
L 238.446199 589.155727 
L 239.791671 590.5244 
L 243.155351 593.35605 
L 245.341743 594.357977 
L 246.182663 594.460825 
L 247.023583 594.568774 
L 247.612227 594.86986 
L 248.537239 595.822348 
L 249.882711 597.218312 
L 252.825931 599.007535 
L 253.750943 599.658749 
L 255.096415 600.148377 
L 255.685059 600.397786 
L 256.610071 600.601851 
L 257.787359 601.635444 
L 260.310119 603.744258 
L 261.066947 603.922854 
L 262.664695 604.397631 
L 264.766995 605.169401 
L 265.860191 605.475877 
L 266.701111 605.867361 
L 269.896607 607.933671 
L 271.830723 608.394261 
L 272.587551 608.567974 
L 273.680747 608.955853 
L 274.269391 608.934301 
L 274.858035 608.777768 
L 275.362587 608.748397 
L 275.951231 608.995419 
L 276.623967 609.473085 
L 278.221715 610.954103 
L 278.978543 611.161089 
L 279.483095 611.060571 
L 280.492199 610.73001 
L 280.996751 610.864269 
L 282.089947 611.472208 
L 283.435419 612.425617 
L 283.855879 612.388836 
L 284.528615 612.389728 
L 285.537719 612.600921 
L 286.126363 612.640754 
L 288.060479 613.048008 
L 288.649123 613.492162 
L 290.162779 614.845088 
L 291.003699 615.468369 
L 293.610551 616.909111 
L 296.553771 618.445798 
L 297.646967 618.782663 
L 301.178831 620.495818 
L 304.878879 622.110789 
L 307.065271 622.926647 
L 308.074375 623.094563 
L 308.999387 623.027517 
L 309.840307 622.747053 
L 310.597135 622.269093 
L 311.353963 621.586514 
L 312.110791 620.626627 
L 312.699435 619.162104 
L 313.708539 615.182984 
L 315.306287 608.820548 
L 315.726747 608.042737 
L 316.063115 607.399283 
L 316.315391 607.150509 
L 316.651759 606.696544 
L 316.904035 606.581171 
L 317.240403 606.266882 
L 317.492679 606.246388 
L 317.913139 605.92008 
L 318.165415 606.018698 
L 318.417691 605.881202 
L 318.838151 606.170617 
L 319.006335 606.177771 
L 320.015439 608.157161 
L 320.435899 608.839446 
L 320.604083 608.13384 
L 321.276819 603.545606 
L 321.529095 602.980439 
L 321.697279 603.103239 
L 322.033647 603.716935 
L 323.210935 608.099704 
L 324.472315 619.159001 
L 324.976867 621.089092 
L 325.397327 621.927574 
L 325.901879 622.459655 
L 326.658707 622.872382 
L 328.424639 623.443437 
L 332.124687 624.56111 
L 339.020231 627.261282 
L 347.849891 630.620672 
L 354.745435 632.971025 
L 362.145531 635.254356 
L 370.050179 637.457767 
L 378.543471 639.592143 
L 387.709499 641.663436 
L 397.632355 643.67385 
L 408.312039 645.608482 
L 419.916735 647.482543 
L 432.530535 649.292169 
L 446.321623 651.043075 
L 461.374091 652.727359 
L 477.940215 654.353672 
L 496.188179 655.917305 
L 516.286167 657.412594 
L 538.570547 658.843787 
L 563.377687 660.209862 
L 591.043955 661.50658 
L 622.073903 662.734255 
L 657.056175 663.89143 
L 672.024551 664.326093 
L 672.024551 664.326093 
" clip-path="url(#p7237e3b7f3)" style="fill: none; stroke: #ff7f0e; stroke-width: 1.5; stroke-linecap: square"/>
   </g>
   <g id="patch_9">
    <path d="M 36.465625 684.92 
L 36.465625 386.16 
" style="fill: none; stroke: #000000; stroke-width: 0.8; stroke-linejoin: miter; stroke-linecap: square"/>
   </g>
   <g id="patch_10">
    <path d="M 702.289261 684.92 
L 702.289261 386.16 
" style="fill: none; stroke: #000000; stroke-width: 0.8; stroke-linejoin: miter; stroke-linecap: square"/>
   </g>
   <g id="patch_11">
    <path d="M 36.465625 684.92 
L 702.289261 684.92 
" style="fill: none; stroke: #000000; stroke-width: 0.8; stroke-linejoin: miter; stroke-linecap: square"/>
   </g>
   <g id="patch_12">
    <path d="M 36.465625 386.16 
L 702.289261 386.16 
" style="fill: none; stroke: #000000; stroke-width: 0.8; stroke-linejoin: miter; stroke-linecap: square"/>
   </g>
   <g id="text_32">
    <!-- 2 transformation(s) -->
    <g transform="translate(311.262756 380.16) scale(0.12 -0.12)">
     <use xlink:href="#DejaVuSans-32"/>
     <use xlink:href="#DejaVuSans-20" x="63.623047"/>
     <use xlink:href="#DejaVuSans-74" x="95.410156"/>
     <use xlink:href="#DejaVuSans-72" x="134.619141"/>
     <use xlink:href="#DejaVuSans-61" x="175.732422"/>
     <use xlink:href="#DejaVuSans-6e" x="237.011719"/>
     <use xlink:href="#DejaVuSans-73" x="300.390625"/>
     <use xlink:href="#DejaVuSans-66" x="352.490234"/>
     <use xlink:href="#DejaVuSans-6f" x="387.695312"/>
     <use xlink:href="#DejaVuSans-72" x="448.876953"/>
     <use xlink:href="#DejaVuSans-6d" x="488.240234"/>
     <use xlink:href="#DejaVuSans-61" x="585.652344"/>
     <use xlink:href="#DejaVuSans-74" x="646.931641"/>
     <use xlink:href="#DejaVuSans-69" x="686.140625"/>
     <use xlink:href="#DejaVuSans-6f" x="713.923828"/>
     <use xlink:href="#DejaVuSans-6e" x="775.105469"/>
     <use xlink:href="#DejaVuSans-28" x="838.484375"/>
     <use xlink:href="#DejaVuSans-73" x="877.498047"/>
     <use xlink:href="#DejaVuSans-29" x="929.597656"/>
    </g>
   </g>
  </g>
  <g id="text_33">
   <!-- training -->
   <g transform="translate(333.282187 16.318125) scale(0.12 -0.12)">
    <defs>
     <path id="DejaVuSans-67" d="M 2906 1791 
Q 2906 2416 2648 2759 
Q 2391 3103 1925 3103 
Q 1463 3103 1205 2759 
Q 947 2416 947 1791 
Q 947 1169 1205 825 
Q 1463 481 1925 481 
Q 2391 481 2648 825 
Q 2906 1169 2906 1791 
z
M 3481 434 
Q 3481 -459 3084 -895 
Q 2688 -1331 1869 -1331 
Q 1566 -1331 1297 -1286 
Q 1028 -1241 775 -1147 
L 775 -588 
Q 1028 -725 1275 -790 
Q 1522 -856 1778 -856 
Q 2344 -856 2625 -561 
Q 2906 -266 2906 331 
L 2906 616 
Q 2728 306 2450 153 
Q 2172 0 1784 0 
Q 1141 0 747 490 
Q 353 981 353 1791 
Q 353 2603 747 3093 
Q 1141 3584 1784 3584 
Q 2172 3584 2450 3431 
Q 2728 3278 2906 2969 
L 2906 3500 
L 3481 3500 
L 3481 434 
z
" transform="scale(0.015625)"/>
    </defs>
    <use xlink:href="#DejaVuSans-74"/>
    <use xlink:href="#DejaVuSans-72" x="39.208984"/>
    <use xlink:href="#DejaVuSans-61" x="80.322266"/>
    <use xlink:href="#DejaVuSans-69" x="141.601562"/>
    <use xlink:href="#DejaVuSans-6e" x="169.384766"/>
    <use xlink:href="#DejaVuSans-69" x="232.763672"/>
    <use xlink:href="#DejaVuSans-6e" x="260.546875"/>
    <use xlink:href="#DejaVuSans-67" x="323.925781"/>
   </g>
  </g>
 </g>
 <defs>
  <clipPath id="pc3997f7b78">
   <rect x="36.465625" y="43.44" width="665.823636" height="298.76"/>
  </clipPath>
  <clipPath id="p7237e3b7f3">
   <rect x="36.465625" y="386.16" width="665.823636" height="298.76"/>
  </clipPath>
 </defs>
</svg>
