<?xml version="1.0" encoding="utf-8" standalone="no"?>
<!DOCTYPE svg PUBLIC "-//W3C//DTD SVG 1.1//EN"
  "http://www.w3.org/Graphics/SVG/1.1/DTD/svg11.dtd">
<svg xmlns:xlink="http://www.w3.org/1999/xlink" width="709.336136pt" height="708.798125pt" viewBox="0 0 709.336136 708.798125" xmlns="http://www.w3.org/2000/svg" version="1.1">
 <metadata>
  <rdf:RDF xmlns:dc="http://purl.org/dc/elements/1.1/" xmlns:cc="http://creativecommons.org/ns#" xmlns:rdf="http://www.w3.org/1999/02/22-rdf-syntax-ns#">
   <cc:Work>
    <dc:type rdf:resource="http://purl.org/dc/dcmitype/StillImage"/>
    <dc:date>2023-06-16T16:41:54.449997</dc:date>
    <dc:format>image/svg+xml</dc:format>
    <dc:creator>
     <cc:Agent>
      <dc:title>Matplotlib v3.7.1, https://matplotlib.org/</dc:title>
     </cc:Agent>
    </dc:creator>
   </cc:Work>
  </rdf:RDF>
 </metadata>
 <defs>
  <style type="text/css">*{stroke-linejoin: round; stroke-linecap: butt}</style>
 </defs>
 <g id="figure_1">
  <g id="patch_1">
   <path d="M 0 708.798125 
L 709.336136 708.798125 
L 709.336136 0 
L 0 0 
z
" style="fill: #ffffff"/>
  </g>
  <g id="axes_1">
   <g id="patch_2">
    <path d="M 20.5625 342.2 
L 702.136136 342.2 
L 702.136136 43.44 
L 20.5625 43.44 
z
" style="fill: #ffffff"/>
   </g>
   <g id="matplotlib.axis_1">
    <g id="xtick_1">
     <g id="line2d_1">
      <defs>
       <path id="m375640812c" d="M 0 0 
L 0 3.5 
" style="stroke: #000000; stroke-width: 0.8"/>
      </defs>
      <g>
       <use xlink:href="#m375640812c" x="51.370957" y="342.2" style="stroke: #000000; stroke-width: 0.8"/>
      </g>
     </g>
     <g id="text_1">
      <!-- 2014-07-01 -->
      <g transform="translate(22.313145 356.798437) scale(0.1 -0.1)">
       <defs>
        <path id="DejaVuSans-32" d="M 1228 531 
L 3431 531 
L 3431 0 
L 469 0 
L 469 531 
Q 828 903 1448 1529 
Q 2069 2156 2228 2338 
Q 2531 2678 2651 2914 
Q 2772 3150 2772 3378 
Q 2772 3750 2511 3984 
Q 2250 4219 1831 4219 
Q 1534 4219 1204 4116 
Q 875 4013 500 3803 
L 500 4441 
Q 881 4594 1212 4672 
Q 1544 4750 1819 4750 
Q 2544 4750 2975 4387 
Q 3406 4025 3406 3419 
Q 3406 3131 3298 2873 
Q 3191 2616 2906 2266 
Q 2828 2175 2409 1742 
Q 1991 1309 1228 531 
z
" transform="scale(0.015625)"/>
        <path id="DejaVuSans-30" d="M 2034 4250 
Q 1547 4250 1301 3770 
Q 1056 3291 1056 2328 
Q 1056 1369 1301 889 
Q 1547 409 2034 409 
Q 2525 409 2770 889 
Q 3016 1369 3016 2328 
Q 3016 3291 2770 3770 
Q 2525 4250 2034 4250 
z
M 2034 4750 
Q 2819 4750 3233 4129 
Q 3647 3509 3647 2328 
Q 3647 1150 3233 529 
Q 2819 -91 2034 -91 
Q 1250 -91 836 529 
Q 422 1150 422 2328 
Q 422 3509 836 4129 
Q 1250 4750 2034 4750 
z
" transform="scale(0.015625)"/>
        <path id="DejaVuSans-31" d="M 794 531 
L 1825 531 
L 1825 4091 
L 703 3866 
L 703 4441 
L 1819 4666 
L 2450 4666 
L 2450 531 
L 3481 531 
L 3481 0 
L 794 0 
L 794 531 
z
" transform="scale(0.015625)"/>
        <path id="DejaVuSans-34" d="M 2419 4116 
L 825 1625 
L 2419 1625 
L 2419 4116 
z
M 2253 4666 
L 3047 4666 
L 3047 1625 
L 3713 1625 
L 3713 1100 
L 3047 1100 
L 3047 0 
L 2419 0 
L 2419 1100 
L 313 1100 
L 313 1709 
L 2253 4666 
z
" transform="scale(0.015625)"/>
        <path id="DejaVuSans-2d" d="M 313 2009 
L 1997 2009 
L 1997 1497 
L 313 1497 
L 313 2009 
z
" transform="scale(0.015625)"/>
        <path id="DejaVuSans-37" d="M 525 4666 
L 3525 4666 
L 3525 4397 
L 1831 0 
L 1172 0 
L 2766 4134 
L 525 4134 
L 525 4666 
z
" transform="scale(0.015625)"/>
       </defs>
       <use xlink:href="#DejaVuSans-32"/>
       <use xlink:href="#DejaVuSans-30" x="63.623047"/>
       <use xlink:href="#DejaVuSans-31" x="127.246094"/>
       <use xlink:href="#DejaVuSans-34" x="190.869141"/>
       <use xlink:href="#DejaVuSans-2d" x="254.492188"/>
       <use xlink:href="#DejaVuSans-30" x="290.576172"/>
       <use xlink:href="#DejaVuSans-37" x="354.199219"/>
       <use xlink:href="#DejaVuSans-2d" x="417.822266"/>
       <use xlink:href="#DejaVuSans-30" x="453.90625"/>
       <use xlink:href="#DejaVuSans-31" x="517.529297"/>
      </g>
     </g>
    </g>
    <g id="xtick_2">
     <g id="line2d_2">
      <g>
       <use xlink:href="#m375640812c" x="175.327869" y="342.2" style="stroke: #000000; stroke-width: 0.8"/>
      </g>
     </g>
     <g id="text_2">
      <!-- 2014-07-02 -->
      <g transform="translate(146.270057 356.798437) scale(0.1 -0.1)">
       <use xlink:href="#DejaVuSans-32"/>
       <use xlink:href="#DejaVuSans-30" x="63.623047"/>
       <use xlink:href="#DejaVuSans-31" x="127.246094"/>
       <use xlink:href="#DejaVuSans-34" x="190.869141"/>
       <use xlink:href="#DejaVuSans-2d" x="254.492188"/>
       <use xlink:href="#DejaVuSans-30" x="290.576172"/>
       <use xlink:href="#DejaVuSans-37" x="354.199219"/>
       <use xlink:href="#DejaVuSans-2d" x="417.822266"/>
       <use xlink:href="#DejaVuSans-30" x="453.90625"/>
       <use xlink:href="#DejaVuSans-32" x="517.529297"/>
      </g>
     </g>
    </g>
    <g id="xtick_3">
     <g id="line2d_3">
      <g>
       <use xlink:href="#m375640812c" x="299.284781" y="342.2" style="stroke: #000000; stroke-width: 0.8"/>
      </g>
     </g>
     <g id="text_3">
      <!-- 2014-07-03 -->
      <g transform="translate(270.226969 356.798437) scale(0.1 -0.1)">
       <defs>
        <path id="DejaVuSans-33" d="M 2597 2516 
Q 3050 2419 3304 2112 
Q 3559 1806 3559 1356 
Q 3559 666 3084 287 
Q 2609 -91 1734 -91 
Q 1441 -91 1130 -33 
Q 819 25 488 141 
L 488 750 
Q 750 597 1062 519 
Q 1375 441 1716 441 
Q 2309 441 2620 675 
Q 2931 909 2931 1356 
Q 2931 1769 2642 2001 
Q 2353 2234 1838 2234 
L 1294 2234 
L 1294 2753 
L 1863 2753 
Q 2328 2753 2575 2939 
Q 2822 3125 2822 3475 
Q 2822 3834 2567 4026 
Q 2313 4219 1838 4219 
Q 1578 4219 1281 4162 
Q 984 4106 628 3988 
L 628 4550 
Q 988 4650 1302 4700 
Q 1616 4750 1894 4750 
Q 2613 4750 3031 4423 
Q 3450 4097 3450 3541 
Q 3450 3153 3228 2886 
Q 3006 2619 2597 2516 
z
" transform="scale(0.015625)"/>
       </defs>
       <use xlink:href="#DejaVuSans-32"/>
       <use xlink:href="#DejaVuSans-30" x="63.623047"/>
       <use xlink:href="#DejaVuSans-31" x="127.246094"/>
       <use xlink:href="#DejaVuSans-34" x="190.869141"/>
       <use xlink:href="#DejaVuSans-2d" x="254.492188"/>
       <use xlink:href="#DejaVuSans-30" x="290.576172"/>
       <use xlink:href="#DejaVuSans-37" x="354.199219"/>
       <use xlink:href="#DejaVuSans-2d" x="417.822266"/>
       <use xlink:href="#DejaVuSans-30" x="453.90625"/>
       <use xlink:href="#DejaVuSans-33" x="517.529297"/>
      </g>
     </g>
    </g>
    <g id="xtick_4">
     <g id="line2d_4">
      <g>
       <use xlink:href="#m375640812c" x="423.241693" y="342.2" style="stroke: #000000; stroke-width: 0.8"/>
      </g>
     </g>
     <g id="text_4">
      <!-- 2014-07-04 -->
      <g transform="translate(394.18388 356.798437) scale(0.1 -0.1)">
       <use xlink:href="#DejaVuSans-32"/>
       <use xlink:href="#DejaVuSans-30" x="63.623047"/>
       <use xlink:href="#DejaVuSans-31" x="127.246094"/>
       <use xlink:href="#DejaVuSans-34" x="190.869141"/>
       <use xlink:href="#DejaVuSans-2d" x="254.492188"/>
       <use xlink:href="#DejaVuSans-30" x="290.576172"/>
       <use xlink:href="#DejaVuSans-37" x="354.199219"/>
       <use xlink:href="#DejaVuSans-2d" x="417.822266"/>
       <use xlink:href="#DejaVuSans-30" x="453.90625"/>
       <use xlink:href="#DejaVuSans-34" x="517.529297"/>
      </g>
     </g>
    </g>
    <g id="xtick_5">
     <g id="line2d_5">
      <g>
       <use xlink:href="#m375640812c" x="547.198605" y="342.2" style="stroke: #000000; stroke-width: 0.8"/>
      </g>
     </g>
     <g id="text_5">
      <!-- 2014-07-05 -->
      <g transform="translate(518.140792 356.798437) scale(0.1 -0.1)">
       <defs>
        <path id="DejaVuSans-35" d="M 691 4666 
L 3169 4666 
L 3169 4134 
L 1269 4134 
L 1269 2991 
Q 1406 3038 1543 3061 
Q 1681 3084 1819 3084 
Q 2600 3084 3056 2656 
Q 3513 2228 3513 1497 
Q 3513 744 3044 326 
Q 2575 -91 1722 -91 
Q 1428 -91 1123 -41 
Q 819 9 494 109 
L 494 744 
Q 775 591 1075 516 
Q 1375 441 1709 441 
Q 2250 441 2565 725 
Q 2881 1009 2881 1497 
Q 2881 1984 2565 2268 
Q 2250 2553 1709 2553 
Q 1456 2553 1204 2497 
Q 953 2441 691 2322 
L 691 4666 
z
" transform="scale(0.015625)"/>
       </defs>
       <use xlink:href="#DejaVuSans-32"/>
       <use xlink:href="#DejaVuSans-30" x="63.623047"/>
       <use xlink:href="#DejaVuSans-31" x="127.246094"/>
       <use xlink:href="#DejaVuSans-34" x="190.869141"/>
       <use xlink:href="#DejaVuSans-2d" x="254.492188"/>
       <use xlink:href="#DejaVuSans-30" x="290.576172"/>
       <use xlink:href="#DejaVuSans-37" x="354.199219"/>
       <use xlink:href="#DejaVuSans-2d" x="417.822266"/>
       <use xlink:href="#DejaVuSans-30" x="453.90625"/>
       <use xlink:href="#DejaVuSans-35" x="517.529297"/>
      </g>
     </g>
    </g>
    <g id="xtick_6">
     <g id="line2d_6">
      <g>
       <use xlink:href="#m375640812c" x="671.155517" y="342.2" style="stroke: #000000; stroke-width: 0.8"/>
      </g>
     </g>
     <g id="text_6">
      <!-- 2014-07-06 -->
      <g transform="translate(642.097704 356.798437) scale(0.1 -0.1)">
       <defs>
        <path id="DejaVuSans-36" d="M 2113 2584 
Q 1688 2584 1439 2293 
Q 1191 2003 1191 1497 
Q 1191 994 1439 701 
Q 1688 409 2113 409 
Q 2538 409 2786 701 
Q 3034 994 3034 1497 
Q 3034 2003 2786 2293 
Q 2538 2584 2113 2584 
z
M 3366 4563 
L 3366 3988 
Q 3128 4100 2886 4159 
Q 2644 4219 2406 4219 
Q 1781 4219 1451 3797 
Q 1122 3375 1075 2522 
Q 1259 2794 1537 2939 
Q 1816 3084 2150 3084 
Q 2853 3084 3261 2657 
Q 3669 2231 3669 1497 
Q 3669 778 3244 343 
Q 2819 -91 2113 -91 
Q 1303 -91 875 529 
Q 447 1150 447 2328 
Q 447 3434 972 4092 
Q 1497 4750 2381 4750 
Q 2619 4750 2861 4703 
Q 3103 4656 3366 4563 
z
" transform="scale(0.015625)"/>
       </defs>
       <use xlink:href="#DejaVuSans-32"/>
       <use xlink:href="#DejaVuSans-30" x="63.623047"/>
       <use xlink:href="#DejaVuSans-31" x="127.246094"/>
       <use xlink:href="#DejaVuSans-34" x="190.869141"/>
       <use xlink:href="#DejaVuSans-2d" x="254.492188"/>
       <use xlink:href="#DejaVuSans-30" x="290.576172"/>
       <use xlink:href="#DejaVuSans-37" x="354.199219"/>
       <use xlink:href="#DejaVuSans-2d" x="417.822266"/>
       <use xlink:href="#DejaVuSans-30" x="453.90625"/>
       <use xlink:href="#DejaVuSans-36" x="517.529297"/>
      </g>
     </g>
    </g>
   </g>
   <g id="matplotlib.axis_2">
    <g id="ytick_1">
     <g id="line2d_7">
      <defs>
       <path id="m1a9975fdc4" d="M 0 0 
L -3.5 0 
" style="stroke: #000000; stroke-width: 0.8"/>
      </defs>
      <g>
       <use xlink:href="#m1a9975fdc4" x="20.5625" y="328.620495" style="stroke: #000000; stroke-width: 0.8"/>
      </g>
     </g>
     <g id="text_7">
      <!-- 0 -->
      <g transform="translate(7.2 332.419714) scale(0.1 -0.1)">
       <use xlink:href="#DejaVuSans-30"/>
      </g>
     </g>
    </g>
    <g id="ytick_2">
     <g id="line2d_8">
      <g>
       <use xlink:href="#m1a9975fdc4" x="20.5625" y="285.476034" style="stroke: #000000; stroke-width: 0.8"/>
      </g>
     </g>
     <g id="text_8">
      <!-- 1 -->
      <g transform="translate(7.2 289.275253) scale(0.1 -0.1)">
       <use xlink:href="#DejaVuSans-31"/>
      </g>
     </g>
    </g>
    <g id="ytick_3">
     <g id="line2d_9">
      <g>
       <use xlink:href="#m1a9975fdc4" x="20.5625" y="242.331573" style="stroke: #000000; stroke-width: 0.8"/>
      </g>
     </g>
     <g id="text_9">
      <!-- 2 -->
      <g transform="translate(7.2 246.130792) scale(0.1 -0.1)">
       <use xlink:href="#DejaVuSans-32"/>
      </g>
     </g>
    </g>
    <g id="ytick_4">
     <g id="line2d_10">
      <g>
       <use xlink:href="#m1a9975fdc4" x="20.5625" y="199.187112" style="stroke: #000000; stroke-width: 0.8"/>
      </g>
     </g>
     <g id="text_10">
      <!-- 3 -->
      <g transform="translate(7.2 202.986331) scale(0.1 -0.1)">
       <use xlink:href="#DejaVuSans-33"/>
      </g>
     </g>
    </g>
    <g id="ytick_5">
     <g id="line2d_11">
      <g>
       <use xlink:href="#m1a9975fdc4" x="20.5625" y="156.042651" style="stroke: #000000; stroke-width: 0.8"/>
      </g>
     </g>
     <g id="text_11">
      <!-- 4 -->
      <g transform="translate(7.2 159.84187) scale(0.1 -0.1)">
       <use xlink:href="#DejaVuSans-34"/>
      </g>
     </g>
    </g>
    <g id="ytick_6">
     <g id="line2d_12">
      <g>
       <use xlink:href="#m1a9975fdc4" x="20.5625" y="112.89819" style="stroke: #000000; stroke-width: 0.8"/>
      </g>
     </g>
     <g id="text_12">
      <!-- 5 -->
      <g transform="translate(7.2 116.697409) scale(0.1 -0.1)">
       <use xlink:href="#DejaVuSans-35"/>
      </g>
     </g>
    </g>
    <g id="ytick_7">
     <g id="line2d_13">
      <g>
       <use xlink:href="#m1a9975fdc4" x="20.5625" y="69.753729" style="stroke: #000000; stroke-width: 0.8"/>
      </g>
     </g>
     <g id="text_13">
      <!-- 6 -->
      <g transform="translate(7.2 73.552948) scale(0.1 -0.1)">
       <use xlink:href="#DejaVuSans-36"/>
      </g>
     </g>
    </g>
   </g>
   <g id="line2d_14">
    <path d="M 51.54312 328.619041 
L 55.244611 328.491096 
L 62.991918 328.085731 
L 66.349084 327.957295 
L 67.898546 327.638915 
L 68.415033 327.357637 
L 69.361926 326.372972 
L 70.739225 324.410502 
L 71.686118 322.643543 
L 71.944362 322.167297 
L 72.460849 320.673813 
L 73.407742 316.99918 
L 73.838148 314.084227 
L 74.354635 306.76261 
L 75.645853 284.772308 
L 76.076259 281.673214 
L 76.850989 279.101944 
L 77.367476 278.028697 
L 77.539639 277.832921 
L 77.883964 277.258742 
L 78.142207 277.078112 
L 78.486532 276.590915 
L 78.744775 276.44673 
L 79.175181 276.016037 
L 79.433425 275.916351 
L 79.77775 275.599241 
L 80.55248 275.460399 
L 80.982886 274.000486 
L 81.327211 274.129956 
L 81.499374 273.876946 
L 81.843698 272.846594 
L 82.446267 270.882794 
L 82.790591 270.309145 
L 83.048835 270.253002 
L 83.307078 270.53107 
L 83.737484 271.515873 
L 84.253972 272.964883 
L 84.598296 270.970316 
L 84.85654 271.342135 
L 85.114783 266.686492 
L 85.631271 257.724168 
L 86.578164 221.901251 
L 87.266813 204.900562 
L 87.7833 198.622058 
L 87.955463 197.873791 
L 88.213706 196.243061 
L 88.644112 197.225426 
L 88.730193 197.01869 
L 88.816275 196.99214 
L 89.591005 201.434504 
L 89.849249 203.336406 
L 90.021411 203.529678 
L 90.193574 204.288056 
L 90.279655 204.085639 
L 90.365736 202.759377 
L 90.537898 193.478724 
L 91.484791 105.169123 
L 92.431684 70.996064 
L 93.034253 59.750824 
L 93.378578 57.079168 
L 93.55074 57.034463 
L 93.636821 57.054665 
L 93.895065 58.244045 
L 94.067227 59.406969 
L 94.669795 66.745521 
L 96.907906 98.633263 
L 97.16615 100.420244 
L 97.252231 100.962401 
L 97.596556 99.95758 
L 97.854799 97.29621 
L 98.543449 94.186784 
L 98.887774 92.673689 
L 99.31818 89.498101 
L 99.748586 85.714747 
L 100.09291 84.27121 
L 100.437235 82.19627 
L 101.384128 75.0625 
L 101.642372 74.46169 
L 101.814534 74.661596 
L 101.986696 75.386955 
L 102.331021 78.299684 
L 102.675346 82.977032 
L 103.70832 102.121888 
L 104.655213 122.097375 
L 105.602106 136.942129 
L 106.290756 143.250145 
L 106.807243 146.579146 
L 107.754136 150.411627 
L 108.614948 152.748439 
L 110.680897 157.687145 
L 111.369546 160.126183 
L 111.972114 162.716381 
L 114.55455 174.448633 
L 115.587524 177.693316 
L 116.362255 179.551593 
L 117.395229 181.516395 
L 118.342122 183.018175 
L 119.375097 184.182415 
L 121.010639 186.008412 
L 123.679156 189.187838 
L 124.539968 189.8081 
L 126.691998 190.786968 
L 127.466728 190.924241 
L 129.102271 191.019987 
L 130.737813 190.987996 
L 131.426463 191.067654 
L 132.201194 191.379477 
L 133.320249 192.062867 
L 134.267142 192.920736 
L 135.300116 194.237503 
L 136.333091 195.932647 
L 138.140796 199.56662 
L 139.86242 202.942167 
L 140.723231 204.203933 
L 143.133505 206.732526 
L 144.596885 207.827312 
L 146.748915 209.270263 
L 148.470538 210.101469 
L 149.761756 211.378664 
L 150.622568 212.258669 
L 151.827705 213.306755 
L 153.291085 213.987367 
L 155.270952 214.90644 
L 155.615277 214.790214 
L 156.303927 214.022238 
L 156.992576 213.14174 
L 157.336901 212.924603 
L 157.767307 212.900667 
L 158.197713 213.171807 
L 158.7142 213.822599 
L 161.727041 218.222974 
L 162.846097 219.255054 
L 164.137315 220.183981 
L 164.998127 220.595573 
L 165.858939 221.121611 
L 168.957861 223.58473 
L 169.904754 224.452278 
L 171.195972 225.368265 
L 172.48719 226.370216 
L 174.122733 227.364051 
L 177.910305 228.727663 
L 178.771117 228.625487 
L 179.287604 228.343731 
L 180.837065 227.210659 
L 181.439634 227.163043 
L 182.128283 227.403006 
L 183.849907 228.46291 
L 185.313287 229.753663 
L 187.293155 231.684233 
L 188.240048 232.529295 
L 189.445184 233.736439 
L 189.961671 234.05249 
L 190.56424 234.292802 
L 191.683295 234.782601 
L 195.212624 237.066592 
L 196.503842 238.463995 
L 198.139384 240.661611 
L 200.807901 244.400223 
L 201.238307 244.013345 
L 201.410469 244.03201 
L 202.099119 241.269838 
L 202.443444 238.867172 
L 202.701687 237.244157 
L 203.046012 234.975873 
L 203.476418 232.669807 
L 203.734662 231.579331 
L 203.906824 230.984199 
L 204.853717 224.097417 
L 205.284123 219.980875 
L 206.231016 208.153279 
L 207.522234 189.465922 
L 208.038721 185.829387 
L 208.383046 184.672018 
L 208.641289 184.395632 
L 208.899533 184.484363 
L 209.071695 184.710387 
L 209.41602 185.540605 
L 210.190751 188.214782 
L 211.481969 192.983164 
L 212.084537 194.80154 
L 212.687105 196.066546 
L 212.773186 196.008098 
L 213.203592 196.455034 
L 213.461836 195.340086 
L 213.633998 195.165052 
L 213.806161 194.477363 
L 214.150485 189.949765 
L 214.408729 185.665339 
L 214.839135 178.647785 
L 215.18346 176.087119 
L 215.355622 175.807143 
L 215.699947 175.719358 
L 215.872109 175.260634 
L 216.044272 174.241711 
L 216.388596 170.013202 
L 216.819002 160.860995 
L 217.679814 142.89228 
L 218.11022 138.776901 
L 218.282382 138.387868 
L 218.368464 138.439444 
L 218.540626 139.016164 
L 218.79887 140.894633 
L 219.315357 147.348881 
L 220.176169 162.039945 
L 221.467386 182.149824 
L 222.156036 189.101638 
L 222.672523 192.738111 
L 223.361173 195.702889 
L 223.87766 196.99212 
L 224.480228 197.869677 
L 226.632258 200.330564 
L 227.665232 202.399208 
L 229.214693 206.260789 
L 231.797129 212.886914 
L 233.690915 216.659888 
L 235.068214 218.615546 
L 237.994975 221.549506 
L 238.769705 221.847062 
L 240.233086 222.137767 
L 241.352141 222.743988 
L 242.557278 223.629692 
L 244.19282 225.04595 
L 245.397957 225.799113 
L 246.861337 226.449062 
L 248.152555 227.29471 
L 249.443773 228.053325 
L 250.390666 228.641812 
L 251.509721 229.288572 
L 253.661751 230.94723 
L 254.522563 231.116987 
L 254.866888 231.01585 
L 255.555537 230.490152 
L 256.416349 229.749343 
L 257.018917 229.56142 
L 257.707567 229.727679 
L 258.482298 230.245365 
L 260.290003 231.677834 
L 261.925545 232.767724 
L 263.388925 233.792161 
L 264.4219 234.010367 
L 266.573929 234.44571 
L 267.434741 234.530892 
L 269.070284 234.457467 
L 269.50069 234.394946 
L 270.791908 234.445607 
L 271.394476 234.815137 
L 272.685694 235.689598 
L 273.804749 236.003653 
L 274.751642 236.067069 
L 276.473266 235.962806 
L 276.903672 235.886676 
L 278.022727 235.968546 
L 278.797458 236.368575 
L 281.379894 237.76499 
L 282.154625 238.002895 
L 283.531924 238.225247 
L 283.962329 238.626161 
L 284.564898 239.539237 
L 285.683953 241.764153 
L 286.975171 244.233531 
L 288.008145 245.699313 
L 289.213282 247.069699 
L 290.332337 248.012065 
L 291.881799 248.945086 
L 293.173017 249.461275 
L 295.238965 249.915864 
L 296.788427 250.366575 
L 299.543025 251.432363 
L 300.748161 251.361382 
L 301.953298 250.633169 
L 303.072353 249.203883 
L 304.019246 246.581499 
L 304.363571 245.511071 
L 304.880058 243.590186 
L 306.946007 233.905662 
L 307.978981 227.474784 
L 308.495468 224.0857 
L 309.786686 217.773457 
L 310.475336 215.851754 
L 310.991823 215.004624 
L 311.077904 214.886011 
L 311.422229 213.713861 
L 311.680472 213.103145 
L 312.110878 211.911584 
L 312.455203 211.399443 
L 312.713447 211.27438 
L 312.97169 211.41048 
L 313.574258 212.219324 
L 314.090746 212.714647 
L 314.607233 212.917279 
L 315.295882 213.158044 
L 315.812369 213.646238 
L 316.242775 214.368912 
L 316.759262 215.740804 
L 317.533993 218.765625 
L 318.566967 222.854897 
L 319.255617 224.688208 
L 320.030348 226.056778 
L 321.063322 227.370686 
L 322.526702 228.856377 
L 325.109138 231.457005 
L 326.658599 233.403426 
L 328.121979 235.629052 
L 329.413197 238.115172 
L 331.134821 241.324963 
L 332.426039 243.220353 
L 333.717257 244.695104 
L 336.988342 247.477597 
L 338.537803 248.373068 
L 340.861995 249.561897 
L 342.067132 250.500654 
L 343.616593 252.02011 
L 347.662409 256.093397 
L 350.330926 258.47444 
L 353.51593 261.040326 
L 355.065391 262.358981 
L 358.164314 264.949909 
L 361.435399 267.340211 
L 364.620403 269.410347 
L 367.28892 270.834664 
L 368.838382 271.454617 
L 370.215681 271.751731 
L 372.109467 271.886185 
L 381.578398 272.098194 
L 404.303831 272.792919 
L 430.558594 273.856229 
L 464.044176 275.561695 
L 488.663396 277.031782 
L 517.586676 278.964383 
L 540.139947 280.673933 
L 556.151048 282.020109 
L 570.526607 283.396034 
L 580.770268 284.647019 
L 588.173251 286.025019 
L 609.693548 290.447891 
L 617.268692 292.428419 
L 622.433564 293.763105 
L 636.895203 297.206532 
L 644.470348 298.775482 
L 652.648061 300.261382 
L 661.686586 301.648632 
L 669.433893 302.61585 
L 671.155517 302.804352 
L 671.155517 302.804352 
" clip-path="url(#p00b884acca)" style="fill: none; stroke: #1f77b4; stroke-width: 1.5; stroke-linecap: square"/>
   </g>
   <g id="line2d_15">
    <path d="M 51.54312 328.619467 
L 67.46814 328.526253 
L 68.24287 328.451982 
L 69.275845 328.423958 
L 69.792332 328.368858 
L 70.653144 328.250974 
L 70.997468 328.190841 
L 71.772199 328.009136 
L 72.116524 327.82077 
L 72.460849 327.66527 
L 72.719092 327.51949 
L 73.149498 327.275957 
L 73.493823 327.038633 
L 74.096391 326.526978 
L 74.69896 325.873733 
L 75.215447 325.139537 
L 75.731934 324.217896 
L 76.334502 322.86495 
L 76.850989 321.49917 
L 78.744775 314.566023 
L 80.122075 308.689596 
L 84.598296 288.823007 
L 85.717352 283.948336 
L 86.492082 281.903728 
L 87.094651 280.472203 
L 87.352894 279.655559 
L 87.955463 276.374208 
L 88.47195 270.531872 
L 88.902356 262.205203 
L 89.418843 247.614596 
L 90.107492 221.386714 
L 92.259522 134.744438 
L 92.948172 116.701655 
L 93.55074 105.606961 
L 94.067227 99.17002 
L 94.497633 95.596454 
L 94.928039 93.42808 
L 95.272364 92.687923 
L 95.616688 92.471294 
L 95.874932 92.770903 
L 96.4775 94.317445 
L 97.510475 99.101631 
L 99.059936 107.887406 
L 99.576423 109.512607 
L 99.834667 109.723726 
L 100.006829 109.620839 
L 100.265073 109.026082 
L 100.609397 107.406349 
L 101.211966 103.199501 
L 101.900615 98.913996 
L 102.24494 97.924778 
L 102.417102 97.804058 
L 102.589265 97.938696 
L 102.847508 98.589263 
L 103.191833 100.20418 
L 103.70832 103.843902 
L 104.655213 112.538729 
L 107.151568 135.924828 
L 108.701029 147.921988 
L 110.164409 157.583823 
L 111.713871 166.378162 
L 113.349413 174.398181 
L 114.382388 178.792364 
L 116.01793 185.149107 
L 117.48131 190.045737 
L 119.116853 194.703051 
L 121.268883 200.297319 
L 122.818344 203.891357 
L 124.367806 207.14737 
L 125.745105 209.742177 
L 129.188352 215.059581 
L 130.393489 216.560044 
L 131.856869 218.20362 
L 133.320249 219.598516 
L 135.55836 221.697047 
L 138.226877 224.774827 
L 140.034582 226.667504 
L 140.723231 227.309989 
L 142.530936 229.002765 
L 146.060265 231.775139 
L 147.437564 232.702691 
L 149.073107 233.763275 
L 150.79473 234.725979 
L 153.032841 235.819191 
L 153.893653 236.253306 
L 155.615277 237.015198 
L 156.992576 237.540002 
L 162.32961 239.670479 
L 163.362584 240.030816 
L 164.653802 240.324957 
L 168.87178 241.460699 
L 171.02381 242.097799 
L 172.142865 242.397686 
L 173.864489 242.727754 
L 179.976253 243.901025 
L 181.353552 243.981412 
L 186.26018 244.378535 
L 192.888432 245.481865 
L 196.073436 246.036318 
L 200.72182 247.069288 
L 200.980064 246.920002 
L 201.410469 246.912793 
L 201.582632 246.864212 
L 202.013038 246.864037 
L 202.1852 246.821128 
L 202.615606 246.828217 
L 202.787768 246.791609 
L 203.304256 246.82865 
L 203.476418 246.798607 
L 203.906824 246.791951 
L 204.165068 246.701701 
L 204.423311 246.586076 
L 205.025879 245.436588 
L 205.628448 242.725354 
L 206.317097 237.541694 
L 209.243858 210.596811 
L 210.018588 206.376638 
L 210.621157 204.089031 
L 211.137644 202.704095 
L 211.998456 201.212551 
L 212.859268 200.744499 
L 213.203592 200.719173 
L 213.289674 200.619539 
L 213.720079 200.933039 
L 213.892242 200.766623 
L 214.236567 201.061244 
L 214.839135 201.392405 
L 215.18346 201.424233 
L 215.527784 201.250645 
L 215.786028 200.856204 
L 216.130353 199.845453 
L 216.474677 197.945262 
L 216.905083 193.929569 
L 217.421571 186.574628 
L 218.79887 164.830318 
L 219.229276 161.185046 
L 219.5736 159.682104 
L 219.831844 159.258262 
L 220.004006 159.253218 
L 220.26225 159.583679 
L 220.606575 160.505076 
L 221.209143 162.926019 
L 223.102929 172.145885 
L 224.824553 179.75895 
L 226.546177 186.338357 
L 228.181719 191.761572 
L 229.817262 196.606174 
L 232.055373 202.347174 
L 233.604834 205.823722 
L 237.564569 212.991847 
L 238.769705 214.608228 
L 242.557278 219.385461 
L 244.364983 221.416733 
L 246.34485 223.479461 
L 248.066474 225.038283 
L 253.403507 229.537417 
L 254.264319 230.132377 
L 256.330268 231.493143 
L 258.051892 232.434244 
L 263.388925 235.261972 
L 263.819331 235.456379 
L 264.766224 235.855028 
L 266.746092 236.642038 
L 268.123391 236.986818 
L 270.27542 237.71774 
L 271.997044 238.399842 
L 273.202181 238.702302 
L 273.718668 238.79204 
L 279.830432 240.429856 
L 281.8103 240.944506 
L 291.795718 244.382492 
L 292.570448 244.585792 
L 296.702345 245.682986 
L 298.596132 246.085923 
L 299.1987 246.19369 
L 300.145593 246.339282 
L 301.695054 246.583121 
L 302.12546 246.597737 
L 302.728029 246.581774 
L 303.072353 246.562543 
L 303.330597 246.525376 
L 303.674922 246.476643 
L 303.933165 246.414257 
L 304.27749 246.327619 
L 304.535734 246.233195 
L 304.880058 246.097215 
L 305.138302 245.958672 
L 305.568708 245.699474 
L 305.999114 245.338902 
L 306.171276 245.13439 
L 307.634656 242.520611 
L 308.323306 240.695326 
L 309.270199 237.800349 
L 310.389254 234.176995 
L 311.938716 229.027612 
L 313.229934 225.519898 
L 314.521151 222.121167 
L 315.812369 218.610157 
L 316.328856 217.877431 
L 316.759262 217.668087 
L 317.189668 217.775753 
L 317.620074 218.088387 
L 318.480886 219.065174 
L 321.149403 222.472848 
L 323.473595 225.182943 
L 326.056031 227.855701 
L 328.466304 230.075811 
L 331.220902 232.314965 
L 334.147663 234.407227 
L 337.332667 236.402341 
L 340.689833 238.242232 
L 344.305243 239.969522 
L 348.178896 241.574218 
L 352.396875 243.079386 
L 356.959178 244.470907 
L 361.951887 245.761014 
L 367.461083 246.953451 
L 373.572847 248.046479 
L 380.459342 249.046708 
L 388.206649 249.941852 
L 397.073012 250.736478 
L 407.316673 251.425912 
L 419.454121 252.013624 
L 434.260085 252.499117 
L 453.025784 252.880553 
L 478.333654 253.157868 
L 516.553702 253.33314 
L 591.358255 253.412821 
L 671.155517 253.422746 
L 671.155517 253.422746 
" clip-path="url(#p00b884acca)" style="fill: none; stroke: #ff7f0e; stroke-width: 1.5; stroke-linecap: square"/>
   </g>
   <g id="patch_3">
    <path d="M 20.5625 342.2 
L 20.5625 43.44 
" style="fill: none; stroke: #000000; stroke-width: 0.8; stroke-linejoin: miter; stroke-linecap: square"/>
   </g>
   <g id="patch_4">
    <path d="M 702.136136 342.2 
L 702.136136 43.44 
" style="fill: none; stroke: #000000; stroke-width: 0.8; stroke-linejoin: miter; stroke-linecap: square"/>
   </g>
   <g id="patch_5">
    <path d="M 20.5625 342.2 
L 702.136136 342.2 
" style="fill: none; stroke: #000000; stroke-width: 0.8; stroke-linejoin: miter; stroke-linecap: square"/>
   </g>
   <g id="patch_6">
    <path d="M 20.5625 43.44 
L 702.136136 43.44 
" style="fill: none; stroke: #000000; stroke-width: 0.8; stroke-linejoin: miter; stroke-linecap: square"/>
   </g>
   <g id="text_14">
    <!-- 1 transformation(s) -->
    <g transform="translate(303.234631 37.44) scale(0.12 -0.12)">
     <defs>
      <path id="DejaVuSans-20" transform="scale(0.015625)"/>
      <path id="DejaVuSans-74" d="M 1172 4494 
L 1172 3500 
L 2356 3500 
L 2356 3053 
L 1172 3053 
L 1172 1153 
Q 1172 725 1289 603 
Q 1406 481 1766 481 
L 2356 481 
L 2356 0 
L 1766 0 
Q 1100 0 847 248 
Q 594 497 594 1153 
L 594 3053 
L 172 3053 
L 172 3500 
L 594 3500 
L 594 4494 
L 1172 4494 
z
" transform="scale(0.015625)"/>
      <path id="DejaVuSans-72" d="M 2631 2963 
Q 2534 3019 2420 3045 
Q 2306 3072 2169 3072 
Q 1681 3072 1420 2755 
Q 1159 2438 1159 1844 
L 1159 0 
L 581 0 
L 581 3500 
L 1159 3500 
L 1159 2956 
Q 1341 3275 1631 3429 
Q 1922 3584 2338 3584 
Q 2397 3584 2469 3576 
Q 2541 3569 2628 3553 
L 2631 2963 
z
" transform="scale(0.015625)"/>
      <path id="DejaVuSans-61" d="M 2194 1759 
Q 1497 1759 1228 1600 
Q 959 1441 959 1056 
Q 959 750 1161 570 
Q 1363 391 1709 391 
Q 2188 391 2477 730 
Q 2766 1069 2766 1631 
L 2766 1759 
L 2194 1759 
z
M 3341 1997 
L 3341 0 
L 2766 0 
L 2766 531 
Q 2569 213 2275 61 
Q 1981 -91 1556 -91 
Q 1019 -91 701 211 
Q 384 513 384 1019 
Q 384 1609 779 1909 
Q 1175 2209 1959 2209 
L 2766 2209 
L 2766 2266 
Q 2766 2663 2505 2880 
Q 2244 3097 1772 3097 
Q 1472 3097 1187 3025 
Q 903 2953 641 2809 
L 641 3341 
Q 956 3463 1253 3523 
Q 1550 3584 1831 3584 
Q 2591 3584 2966 3190 
Q 3341 2797 3341 1997 
z
" transform="scale(0.015625)"/>
      <path id="DejaVuSans-6e" d="M 3513 2113 
L 3513 0 
L 2938 0 
L 2938 2094 
Q 2938 2591 2744 2837 
Q 2550 3084 2163 3084 
Q 1697 3084 1428 2787 
Q 1159 2491 1159 1978 
L 1159 0 
L 581 0 
L 581 3500 
L 1159 3500 
L 1159 2956 
Q 1366 3272 1645 3428 
Q 1925 3584 2291 3584 
Q 2894 3584 3203 3211 
Q 3513 2838 3513 2113 
z
" transform="scale(0.015625)"/>
      <path id="DejaVuSans-73" d="M 2834 3397 
L 2834 2853 
Q 2591 2978 2328 3040 
Q 2066 3103 1784 3103 
Q 1356 3103 1142 2972 
Q 928 2841 928 2578 
Q 928 2378 1081 2264 
Q 1234 2150 1697 2047 
L 1894 2003 
Q 2506 1872 2764 1633 
Q 3022 1394 3022 966 
Q 3022 478 2636 193 
Q 2250 -91 1575 -91 
Q 1294 -91 989 -36 
Q 684 19 347 128 
L 347 722 
Q 666 556 975 473 
Q 1284 391 1588 391 
Q 1994 391 2212 530 
Q 2431 669 2431 922 
Q 2431 1156 2273 1281 
Q 2116 1406 1581 1522 
L 1381 1569 
Q 847 1681 609 1914 
Q 372 2147 372 2553 
Q 372 3047 722 3315 
Q 1072 3584 1716 3584 
Q 2034 3584 2315 3537 
Q 2597 3491 2834 3397 
z
" transform="scale(0.015625)"/>
      <path id="DejaVuSans-66" d="M 2375 4863 
L 2375 4384 
L 1825 4384 
Q 1516 4384 1395 4259 
Q 1275 4134 1275 3809 
L 1275 3500 
L 2222 3500 
L 2222 3053 
L 1275 3053 
L 1275 0 
L 697 0 
L 697 3053 
L 147 3053 
L 147 3500 
L 697 3500 
L 697 3744 
Q 697 4328 969 4595 
Q 1241 4863 1831 4863 
L 2375 4863 
z
" transform="scale(0.015625)"/>
      <path id="DejaVuSans-6f" d="M 1959 3097 
Q 1497 3097 1228 2736 
Q 959 2375 959 1747 
Q 959 1119 1226 758 
Q 1494 397 1959 397 
Q 2419 397 2687 759 
Q 2956 1122 2956 1747 
Q 2956 2369 2687 2733 
Q 2419 3097 1959 3097 
z
M 1959 3584 
Q 2709 3584 3137 3096 
Q 3566 2609 3566 1747 
Q 3566 888 3137 398 
Q 2709 -91 1959 -91 
Q 1206 -91 779 398 
Q 353 888 353 1747 
Q 353 2609 779 3096 
Q 1206 3584 1959 3584 
z
" transform="scale(0.015625)"/>
      <path id="DejaVuSans-6d" d="M 3328 2828 
Q 3544 3216 3844 3400 
Q 4144 3584 4550 3584 
Q 5097 3584 5394 3201 
Q 5691 2819 5691 2113 
L 5691 0 
L 5113 0 
L 5113 2094 
Q 5113 2597 4934 2840 
Q 4756 3084 4391 3084 
Q 3944 3084 3684 2787 
Q 3425 2491 3425 1978 
L 3425 0 
L 2847 0 
L 2847 2094 
Q 2847 2600 2669 2842 
Q 2491 3084 2119 3084 
Q 1678 3084 1418 2786 
Q 1159 2488 1159 1978 
L 1159 0 
L 581 0 
L 581 3500 
L 1159 3500 
L 1159 2956 
Q 1356 3278 1631 3431 
Q 1906 3584 2284 3584 
Q 2666 3584 2933 3390 
Q 3200 3197 3328 2828 
z
" transform="scale(0.015625)"/>
      <path id="DejaVuSans-69" d="M 603 3500 
L 1178 3500 
L 1178 0 
L 603 0 
L 603 3500 
z
M 603 4863 
L 1178 4863 
L 1178 4134 
L 603 4134 
L 603 4863 
z
" transform="scale(0.015625)"/>
      <path id="DejaVuSans-28" d="M 1984 4856 
Q 1566 4138 1362 3434 
Q 1159 2731 1159 2009 
Q 1159 1288 1364 580 
Q 1569 -128 1984 -844 
L 1484 -844 
Q 1016 -109 783 600 
Q 550 1309 550 2009 
Q 550 2706 781 3412 
Q 1013 4119 1484 4856 
L 1984 4856 
z
" transform="scale(0.015625)"/>
      <path id="DejaVuSans-29" d="M 513 4856 
L 1013 4856 
Q 1481 4119 1714 3412 
Q 1947 2706 1947 2009 
Q 1947 1309 1714 600 
Q 1481 -109 1013 -844 
L 513 -844 
Q 928 -128 1133 580 
Q 1338 1288 1338 2009 
Q 1338 2731 1133 3434 
Q 928 4138 513 4856 
z
" transform="scale(0.015625)"/>
     </defs>
     <use xlink:href="#DejaVuSans-31"/>
     <use xlink:href="#DejaVuSans-20" x="63.623047"/>
     <use xlink:href="#DejaVuSans-74" x="95.410156"/>
     <use xlink:href="#DejaVuSans-72" x="134.619141"/>
     <use xlink:href="#DejaVuSans-61" x="175.732422"/>
     <use xlink:href="#DejaVuSans-6e" x="237.011719"/>
     <use xlink:href="#DejaVuSans-73" x="300.390625"/>
     <use xlink:href="#DejaVuSans-66" x="352.490234"/>
     <use xlink:href="#DejaVuSans-6f" x="387.695312"/>
     <use xlink:href="#DejaVuSans-72" x="448.876953"/>
     <use xlink:href="#DejaVuSans-6d" x="488.240234"/>
     <use xlink:href="#DejaVuSans-61" x="585.652344"/>
     <use xlink:href="#DejaVuSans-74" x="646.931641"/>
     <use xlink:href="#DejaVuSans-69" x="686.140625"/>
     <use xlink:href="#DejaVuSans-6f" x="713.923828"/>
     <use xlink:href="#DejaVuSans-6e" x="775.105469"/>
     <use xlink:href="#DejaVuSans-28" x="838.484375"/>
     <use xlink:href="#DejaVuSans-73" x="877.498047"/>
     <use xlink:href="#DejaVuSans-29" x="929.597656"/>
    </g>
   </g>
   <g id="legend_1">
    <g id="patch_7">
     <path d="M 613.742386 80.79625 
L 695.136136 80.79625 
Q 697.136136 80.79625 697.136136 78.79625 
L 697.136136 50.44 
Q 697.136136 48.44 695.136136 48.44 
L 613.742386 48.44 
Q 611.742386 48.44 611.742386 50.44 
L 611.742386 78.79625 
Q 611.742386 80.79625 613.742386 80.79625 
z
" style="fill: #ffffff; opacity: 0.8; stroke: #cccccc; stroke-linejoin: miter"/>
    </g>
    <g id="line2d_16">
     <path d="M 615.742386 56.538437 
L 625.742386 56.538437 
L 635.742386 56.538437 
" style="fill: none; stroke: #1f77b4; stroke-width: 1.5; stroke-linecap: square"/>
    </g>
    <g id="text_15">
     <!-- observed -->
     <g transform="translate(643.742386 60.038437) scale(0.1 -0.1)">
      <defs>
       <path id="DejaVuSans-62" d="M 3116 1747 
Q 3116 2381 2855 2742 
Q 2594 3103 2138 3103 
Q 1681 3103 1420 2742 
Q 1159 2381 1159 1747 
Q 1159 1113 1420 752 
Q 1681 391 2138 391 
Q 2594 391 2855 752 
Q 3116 1113 3116 1747 
z
M 1159 2969 
Q 1341 3281 1617 3432 
Q 1894 3584 2278 3584 
Q 2916 3584 3314 3078 
Q 3713 2572 3713 1747 
Q 3713 922 3314 415 
Q 2916 -91 2278 -91 
Q 1894 -91 1617 61 
Q 1341 213 1159 525 
L 1159 0 
L 581 0 
L 581 4863 
L 1159 4863 
L 1159 2969 
z
" transform="scale(0.015625)"/>
       <path id="DejaVuSans-65" d="M 3597 1894 
L 3597 1613 
L 953 1613 
Q 991 1019 1311 708 
Q 1631 397 2203 397 
Q 2534 397 2845 478 
Q 3156 559 3463 722 
L 3463 178 
Q 3153 47 2828 -22 
Q 2503 -91 2169 -91 
Q 1331 -91 842 396 
Q 353 884 353 1716 
Q 353 2575 817 3079 
Q 1281 3584 2069 3584 
Q 2775 3584 3186 3129 
Q 3597 2675 3597 1894 
z
M 3022 2063 
Q 3016 2534 2758 2815 
Q 2500 3097 2075 3097 
Q 1594 3097 1305 2825 
Q 1016 2553 972 2059 
L 3022 2063 
z
" transform="scale(0.015625)"/>
       <path id="DejaVuSans-76" d="M 191 3500 
L 800 3500 
L 1894 563 
L 2988 3500 
L 3597 3500 
L 2284 0 
L 1503 0 
L 191 3500 
z
" transform="scale(0.015625)"/>
       <path id="DejaVuSans-64" d="M 2906 2969 
L 2906 4863 
L 3481 4863 
L 3481 0 
L 2906 0 
L 2906 525 
Q 2725 213 2448 61 
Q 2172 -91 1784 -91 
Q 1150 -91 751 415 
Q 353 922 353 1747 
Q 353 2572 751 3078 
Q 1150 3584 1784 3584 
Q 2172 3584 2448 3432 
Q 2725 3281 2906 2969 
z
M 947 1747 
Q 947 1113 1208 752 
Q 1469 391 1925 391 
Q 2381 391 2643 752 
Q 2906 1113 2906 1747 
Q 2906 2381 2643 2742 
Q 2381 3103 1925 3103 
Q 1469 3103 1208 2742 
Q 947 2381 947 1747 
z
" transform="scale(0.015625)"/>
      </defs>
      <use xlink:href="#DejaVuSans-6f"/>
      <use xlink:href="#DejaVuSans-62" x="61.181641"/>
      <use xlink:href="#DejaVuSans-73" x="124.658203"/>
      <use xlink:href="#DejaVuSans-65" x="176.757812"/>
      <use xlink:href="#DejaVuSans-72" x="238.28125"/>
      <use xlink:href="#DejaVuSans-76" x="279.394531"/>
      <use xlink:href="#DejaVuSans-65" x="338.574219"/>
      <use xlink:href="#DejaVuSans-64" x="400.097656"/>
     </g>
    </g>
    <g id="line2d_17">
     <path d="M 615.742386 71.216563 
L 625.742386 71.216563 
L 635.742386 71.216563 
" style="fill: none; stroke: #ff7f0e; stroke-width: 1.5; stroke-linecap: square"/>
    </g>
    <g id="text_16">
     <!-- simulated -->
     <g transform="translate(643.742386 74.716563) scale(0.1 -0.1)">
      <defs>
       <path id="DejaVuSans-75" d="M 544 1381 
L 544 3500 
L 1119 3500 
L 1119 1403 
Q 1119 906 1312 657 
Q 1506 409 1894 409 
Q 2359 409 2629 706 
Q 2900 1003 2900 1516 
L 2900 3500 
L 3475 3500 
L 3475 0 
L 2900 0 
L 2900 538 
Q 2691 219 2414 64 
Q 2138 -91 1772 -91 
Q 1169 -91 856 284 
Q 544 659 544 1381 
z
M 1991 3584 
L 1991 3584 
z
" transform="scale(0.015625)"/>
       <path id="DejaVuSans-6c" d="M 603 4863 
L 1178 4863 
L 1178 0 
L 603 0 
L 603 4863 
z
" transform="scale(0.015625)"/>
      </defs>
      <use xlink:href="#DejaVuSans-73"/>
      <use xlink:href="#DejaVuSans-69" x="52.099609"/>
      <use xlink:href="#DejaVuSans-6d" x="79.882812"/>
      <use xlink:href="#DejaVuSans-75" x="177.294922"/>
      <use xlink:href="#DejaVuSans-6c" x="240.673828"/>
      <use xlink:href="#DejaVuSans-61" x="268.457031"/>
      <use xlink:href="#DejaVuSans-74" x="329.736328"/>
      <use xlink:href="#DejaVuSans-65" x="368.945312"/>
      <use xlink:href="#DejaVuSans-64" x="430.46875"/>
     </g>
    </g>
   </g>
  </g>
  <g id="axes_2">
   <g id="patch_8">
    <path d="M 20.5625 684.92 
L 702.136136 684.92 
L 702.136136 386.16 
L 20.5625 386.16 
z
" style="fill: #ffffff"/>
   </g>
   <g id="matplotlib.axis_3">
    <g id="xtick_7">
     <g id="line2d_18">
      <g>
       <use xlink:href="#m375640812c" x="51.370957" y="684.92" style="stroke: #000000; stroke-width: 0.8"/>
      </g>
     </g>
     <g id="text_17">
      <!-- 2014-07-01 -->
      <g transform="translate(22.313145 699.518437) scale(0.1 -0.1)">
       <use xlink:href="#DejaVuSans-32"/>
       <use xlink:href="#DejaVuSans-30" x="63.623047"/>
       <use xlink:href="#DejaVuSans-31" x="127.246094"/>
       <use xlink:href="#DejaVuSans-34" x="190.869141"/>
       <use xlink:href="#DejaVuSans-2d" x="254.492188"/>
       <use xlink:href="#DejaVuSans-30" x="290.576172"/>
       <use xlink:href="#DejaVuSans-37" x="354.199219"/>
       <use xlink:href="#DejaVuSans-2d" x="417.822266"/>
       <use xlink:href="#DejaVuSans-30" x="453.90625"/>
       <use xlink:href="#DejaVuSans-31" x="517.529297"/>
      </g>
     </g>
    </g>
    <g id="xtick_8">
     <g id="line2d_19">
      <g>
       <use xlink:href="#m375640812c" x="175.327869" y="684.92" style="stroke: #000000; stroke-width: 0.8"/>
      </g>
     </g>
     <g id="text_18">
      <!-- 2014-07-02 -->
      <g transform="translate(146.270057 699.518437) scale(0.1 -0.1)">
       <use xlink:href="#DejaVuSans-32"/>
       <use xlink:href="#DejaVuSans-30" x="63.623047"/>
       <use xlink:href="#DejaVuSans-31" x="127.246094"/>
       <use xlink:href="#DejaVuSans-34" x="190.869141"/>
       <use xlink:href="#DejaVuSans-2d" x="254.492188"/>
       <use xlink:href="#DejaVuSans-30" x="290.576172"/>
       <use xlink:href="#DejaVuSans-37" x="354.199219"/>
       <use xlink:href="#DejaVuSans-2d" x="417.822266"/>
       <use xlink:href="#DejaVuSans-30" x="453.90625"/>
       <use xlink:href="#DejaVuSans-32" x="517.529297"/>
      </g>
     </g>
    </g>
    <g id="xtick_9">
     <g id="line2d_20">
      <g>
       <use xlink:href="#m375640812c" x="299.284781" y="684.92" style="stroke: #000000; stroke-width: 0.8"/>
      </g>
     </g>
     <g id="text_19">
      <!-- 2014-07-03 -->
      <g transform="translate(270.226969 699.518437) scale(0.1 -0.1)">
       <use xlink:href="#DejaVuSans-32"/>
       <use xlink:href="#DejaVuSans-30" x="63.623047"/>
       <use xlink:href="#DejaVuSans-31" x="127.246094"/>
       <use xlink:href="#DejaVuSans-34" x="190.869141"/>
       <use xlink:href="#DejaVuSans-2d" x="254.492188"/>
       <use xlink:href="#DejaVuSans-30" x="290.576172"/>
       <use xlink:href="#DejaVuSans-37" x="354.199219"/>
       <use xlink:href="#DejaVuSans-2d" x="417.822266"/>
       <use xlink:href="#DejaVuSans-30" x="453.90625"/>
       <use xlink:href="#DejaVuSans-33" x="517.529297"/>
      </g>
     </g>
    </g>
    <g id="xtick_10">
     <g id="line2d_21">
      <g>
       <use xlink:href="#m375640812c" x="423.241693" y="684.92" style="stroke: #000000; stroke-width: 0.8"/>
      </g>
     </g>
     <g id="text_20">
      <!-- 2014-07-04 -->
      <g transform="translate(394.18388 699.518437) scale(0.1 -0.1)">
       <use xlink:href="#DejaVuSans-32"/>
       <use xlink:href="#DejaVuSans-30" x="63.623047"/>
       <use xlink:href="#DejaVuSans-31" x="127.246094"/>
       <use xlink:href="#DejaVuSans-34" x="190.869141"/>
       <use xlink:href="#DejaVuSans-2d" x="254.492188"/>
       <use xlink:href="#DejaVuSans-30" x="290.576172"/>
       <use xlink:href="#DejaVuSans-37" x="354.199219"/>
       <use xlink:href="#DejaVuSans-2d" x="417.822266"/>
       <use xlink:href="#DejaVuSans-30" x="453.90625"/>
       <use xlink:href="#DejaVuSans-34" x="517.529297"/>
      </g>
     </g>
    </g>
    <g id="xtick_11">
     <g id="line2d_22">
      <g>
       <use xlink:href="#m375640812c" x="547.198605" y="684.92" style="stroke: #000000; stroke-width: 0.8"/>
      </g>
     </g>
     <g id="text_21">
      <!-- 2014-07-05 -->
      <g transform="translate(518.140792 699.518437) scale(0.1 -0.1)">
       <use xlink:href="#DejaVuSans-32"/>
       <use xlink:href="#DejaVuSans-30" x="63.623047"/>
       <use xlink:href="#DejaVuSans-31" x="127.246094"/>
       <use xlink:href="#DejaVuSans-34" x="190.869141"/>
       <use xlink:href="#DejaVuSans-2d" x="254.492188"/>
       <use xlink:href="#DejaVuSans-30" x="290.576172"/>
       <use xlink:href="#DejaVuSans-37" x="354.199219"/>
       <use xlink:href="#DejaVuSans-2d" x="417.822266"/>
       <use xlink:href="#DejaVuSans-30" x="453.90625"/>
       <use xlink:href="#DejaVuSans-35" x="517.529297"/>
      </g>
     </g>
    </g>
    <g id="xtick_12">
     <g id="line2d_23">
      <g>
       <use xlink:href="#m375640812c" x="671.155517" y="684.92" style="stroke: #000000; stroke-width: 0.8"/>
      </g>
     </g>
     <g id="text_22">
      <!-- 2014-07-06 -->
      <g transform="translate(642.097704 699.518437) scale(0.1 -0.1)">
       <use xlink:href="#DejaVuSans-32"/>
       <use xlink:href="#DejaVuSans-30" x="63.623047"/>
       <use xlink:href="#DejaVuSans-31" x="127.246094"/>
       <use xlink:href="#DejaVuSans-34" x="190.869141"/>
       <use xlink:href="#DejaVuSans-2d" x="254.492188"/>
       <use xlink:href="#DejaVuSans-30" x="290.576172"/>
       <use xlink:href="#DejaVuSans-37" x="354.199219"/>
       <use xlink:href="#DejaVuSans-2d" x="417.822266"/>
       <use xlink:href="#DejaVuSans-30" x="453.90625"/>
       <use xlink:href="#DejaVuSans-36" x="517.529297"/>
      </g>
     </g>
    </g>
   </g>
   <g id="matplotlib.axis_4">
    <g id="ytick_8">
     <g id="line2d_24">
      <g>
       <use xlink:href="#m1a9975fdc4" x="20.5625" y="671.322974" style="stroke: #000000; stroke-width: 0.8"/>
      </g>
     </g>
     <g id="text_23">
      <!-- 0 -->
      <g transform="translate(7.2 675.122193) scale(0.1 -0.1)">
       <use xlink:href="#DejaVuSans-30"/>
      </g>
     </g>
    </g>
    <g id="ytick_9">
     <g id="line2d_25">
      <g>
       <use xlink:href="#m1a9975fdc4" x="20.5625" y="628.181296" style="stroke: #000000; stroke-width: 0.8"/>
      </g>
     </g>
     <g id="text_24">
      <!-- 1 -->
      <g transform="translate(7.2 631.980515) scale(0.1 -0.1)">
       <use xlink:href="#DejaVuSans-31"/>
      </g>
     </g>
    </g>
    <g id="ytick_10">
     <g id="line2d_26">
      <g>
       <use xlink:href="#m1a9975fdc4" x="20.5625" y="585.039619" style="stroke: #000000; stroke-width: 0.8"/>
      </g>
     </g>
     <g id="text_25">
      <!-- 2 -->
      <g transform="translate(7.2 588.838837) scale(0.1 -0.1)">
       <use xlink:href="#DejaVuSans-32"/>
      </g>
     </g>
    </g>
    <g id="ytick_11">
     <g id="line2d_27">
      <g>
       <use xlink:href="#m1a9975fdc4" x="20.5625" y="541.897941" style="stroke: #000000; stroke-width: 0.8"/>
      </g>
     </g>
     <g id="text_26">
      <!-- 3 -->
      <g transform="translate(7.2 545.69716) scale(0.1 -0.1)">
       <use xlink:href="#DejaVuSans-33"/>
      </g>
     </g>
    </g>
    <g id="ytick_12">
     <g id="line2d_28">
      <g>
       <use xlink:href="#m1a9975fdc4" x="20.5625" y="498.756263" style="stroke: #000000; stroke-width: 0.8"/>
      </g>
     </g>
     <g id="text_27">
      <!-- 4 -->
      <g transform="translate(7.2 502.555482) scale(0.1 -0.1)">
       <use xlink:href="#DejaVuSans-34"/>
      </g>
     </g>
    </g>
    <g id="ytick_13">
     <g id="line2d_29">
      <g>
       <use xlink:href="#m1a9975fdc4" x="20.5625" y="455.614586" style="stroke: #000000; stroke-width: 0.8"/>
      </g>
     </g>
     <g id="text_28">
      <!-- 5 -->
      <g transform="translate(7.2 459.413804) scale(0.1 -0.1)">
       <use xlink:href="#DejaVuSans-35"/>
      </g>
     </g>
    </g>
    <g id="ytick_14">
     <g id="line2d_30">
      <g>
       <use xlink:href="#m1a9975fdc4" x="20.5625" y="412.472908" style="stroke: #000000; stroke-width: 0.8"/>
      </g>
     </g>
     <g id="text_29">
      <!-- 6 -->
      <g transform="translate(7.2 416.272127) scale(0.1 -0.1)">
       <use xlink:href="#DejaVuSans-36"/>
      </g>
     </g>
    </g>
   </g>
   <g id="line2d_31">
    <path d="M 51.54312 671.321519 
L 55.244611 671.193583 
L 62.991918 670.788244 
L 66.349084 670.659816 
L 67.898546 670.341456 
L 68.415033 670.060197 
L 69.361926 669.075596 
L 70.739225 667.113252 
L 71.686118 665.346407 
L 71.944362 664.870192 
L 72.460849 663.376804 
L 73.407742 659.702408 
L 73.838148 656.787643 
L 74.354635 649.466499 
L 75.645853 627.477615 
L 76.076259 624.378721 
L 76.850989 621.807616 
L 77.367476 620.73444 
L 77.539639 620.538675 
L 77.883964 619.964534 
L 78.142207 619.783915 
L 78.486532 619.29675 
L 78.744775 619.152574 
L 79.175181 618.721909 
L 79.433425 618.622229 
L 79.77775 618.305139 
L 80.55248 618.166307 
L 80.982886 616.706488 
L 81.327211 616.83595 
L 81.499374 616.582956 
L 81.843698 615.552671 
L 82.446267 613.588997 
L 82.790591 613.015385 
L 83.048835 612.959245 
L 83.307078 613.237296 
L 83.737484 614.222036 
L 84.253972 615.670952 
L 84.598296 613.676514 
L 84.85654 614.048309 
L 85.114783 609.392966 
L 85.631271 600.43122 
L 86.578164 564.610614 
L 87.266813 547.611022 
L 87.7833 541.332923 
L 87.955463 540.584704 
L 88.213706 538.954079 
L 88.644112 539.936381 
L 88.730193 539.729658 
L 88.816275 539.70311 
L 89.591005 544.145188 
L 89.849249 546.046966 
L 90.021411 546.240226 
L 90.193574 546.998555 
L 90.279655 546.796152 
L 90.365736 545.469975 
L 90.537898 536.189921 
L 91.484791 447.886017 
L 92.431684 413.715162 
L 93.034253 402.470648 
L 93.378578 399.799164 
L 93.55074 399.754462 
L 93.636821 399.774663 
L 93.895065 400.963966 
L 94.067227 402.126815 
L 94.669795 409.464894 
L 96.907906 441.350578 
L 97.16615 443.137444 
L 97.252231 443.679566 
L 97.596556 442.67481 
L 97.854799 440.013612 
L 98.543449 436.904386 
L 98.887774 435.391389 
L 99.31818 432.216005 
L 99.748586 428.432896 
L 100.09291 426.989452 
L 100.437235 424.914646 
L 101.384128 417.781336 
L 101.642372 417.180564 
L 101.814534 417.380458 
L 101.986696 418.10577 
L 102.331021 421.018311 
L 102.675346 425.695357 
L 103.70832 444.838979 
L 104.655213 464.813177 
L 105.602106 479.656973 
L 106.290756 485.964582 
L 106.807243 489.293369 
L 107.754136 493.125602 
L 108.614948 495.462264 
L 110.680897 500.40065 
L 111.369546 502.839532 
L 111.972114 505.429563 
L 114.55455 517.161057 
L 115.587524 520.405531 
L 116.362255 522.263688 
L 117.395229 524.228364 
L 118.342122 525.730046 
L 119.375097 526.894211 
L 121.010639 528.720091 
L 123.679156 531.899311 
L 124.539968 532.519534 
L 126.691998 533.498338 
L 127.466728 533.635602 
L 129.102271 533.731342 
L 130.737813 533.699353 
L 131.426463 533.779006 
L 132.201194 534.090809 
L 133.320249 534.774155 
L 134.267142 535.631969 
L 135.300116 536.948651 
L 136.333091 538.643685 
L 138.140796 542.277424 
L 139.86242 545.652754 
L 140.723231 546.914438 
L 143.133505 549.442867 
L 144.596885 550.537583 
L 146.748915 551.980441 
L 148.470538 552.811593 
L 149.761756 554.088706 
L 150.622568 554.968654 
L 151.827705 556.016672 
L 153.291085 556.697241 
L 155.270952 557.616255 
L 155.615277 557.500036 
L 156.303927 556.73211 
L 156.992576 555.851668 
L 157.336901 555.634545 
L 157.767307 555.61061 
L 158.197713 555.881733 
L 158.7142 556.532483 
L 161.727041 560.932574 
L 162.846097 561.964588 
L 164.137315 562.893455 
L 164.998127 563.30502 
L 165.858939 563.831024 
L 168.957861 566.293984 
L 169.904754 567.161477 
L 171.195972 568.077405 
L 172.48719 569.079291 
L 174.122733 570.073061 
L 177.910305 571.436585 
L 178.771117 571.334417 
L 179.287604 571.052679 
L 180.837065 569.91968 
L 181.439634 569.872067 
L 182.128283 570.112014 
L 183.849907 571.17185 
L 185.313287 572.46252 
L 187.293155 574.392965 
L 188.240048 575.237972 
L 189.445184 576.445039 
L 189.961671 576.761069 
L 190.56424 577.001366 
L 191.683295 577.491133 
L 195.212624 579.774977 
L 196.503842 581.17229 
L 198.139384 583.369764 
L 200.807901 587.108135 
L 201.238307 586.721281 
L 201.410469 586.739945 
L 202.099119 583.977951 
L 202.443444 581.575441 
L 202.701687 579.95253 
L 203.046012 577.684393 
L 203.476418 575.378476 
L 203.734662 574.28807 
L 203.906824 573.692976 
L 204.853717 566.806638 
L 205.284123 562.690362 
L 206.231016 550.863529 
L 207.522234 532.177377 
L 208.038721 528.541077 
L 208.383046 527.383783 
L 208.641289 527.107415 
L 208.899533 527.19614 
L 209.071695 527.422149 
L 209.41602 528.252314 
L 210.190751 530.926318 
L 211.481969 535.694393 
L 212.084537 537.512651 
L 212.687105 538.777575 
L 212.773186 538.719132 
L 213.203592 539.166038 
L 213.461836 538.051163 
L 213.633998 537.87614 
L 213.806161 537.188495 
L 214.150485 532.661189 
L 214.408729 528.37704 
L 214.839135 521.359938 
L 215.18346 518.799438 
L 215.355622 518.51948 
L 215.699947 518.431701 
L 215.872109 517.973006 
L 216.044272 516.954149 
L 216.388596 512.725912 
L 216.819002 503.574296 
L 217.679814 485.60674 
L 218.11022 481.491627 
L 218.282382 481.102619 
L 218.368464 481.154192 
L 218.540626 481.730874 
L 218.79887 483.609222 
L 219.315357 490.063053 
L 220.176169 504.75317 
L 221.467386 524.861752 
L 222.156036 531.813117 
L 222.672523 535.449355 
L 223.361173 538.413942 
L 223.87766 539.70309 
L 224.480228 540.58059 
L 226.632258 543.041318 
L 227.665232 545.109829 
L 229.214693 548.971161 
L 231.797129 555.596858 
L 233.690915 559.369589 
L 235.068214 561.325121 
L 237.994975 564.258892 
L 238.769705 564.556429 
L 240.233086 564.847115 
L 241.352141 565.453297 
L 242.557278 566.338944 
L 244.19282 567.75511 
L 245.397957 568.508224 
L 246.861337 569.158131 
L 248.152555 570.003725 
L 249.443773 570.762291 
L 250.390666 571.35074 
L 251.509721 571.997458 
L 253.661751 573.656009 
L 254.522563 573.825755 
L 254.866888 573.724626 
L 255.555537 573.198961 
L 256.416349 572.458199 
L 257.018917 572.270289 
L 257.707567 572.436538 
L 258.482298 572.95419 
L 260.290003 574.386567 
L 261.925545 575.476386 
L 263.388925 576.500757 
L 264.4219 576.718949 
L 266.573929 577.154264 
L 267.434741 577.23944 
L 269.070284 577.16602 
L 269.50069 577.103503 
L 270.791908 577.154161 
L 271.394476 577.523667 
L 272.685694 578.398071 
L 273.804749 578.712106 
L 274.751642 578.775518 
L 276.473266 578.671262 
L 276.903672 578.595137 
L 278.022727 578.677001 
L 278.797458 579.077005 
L 281.379894 580.47333 
L 282.154625 580.711219 
L 283.531924 580.933557 
L 283.962329 581.334445 
L 284.564898 582.247462 
L 285.683953 584.472234 
L 286.975171 586.941454 
L 288.008145 588.407141 
L 289.213282 589.777438 
L 290.332337 590.719744 
L 291.881799 591.652705 
L 293.173017 592.168861 
L 295.238965 592.62342 
L 296.788427 593.074102 
L 299.543025 594.139821 
L 300.748161 594.068844 
L 301.953298 593.340678 
L 303.072353 591.911485 
L 304.019246 589.28927 
L 304.363571 588.218911 
L 304.880058 586.29815 
L 306.946007 576.61425 
L 307.978981 570.183788 
L 308.495468 566.794922 
L 309.786686 560.483086 
L 310.475336 558.561507 
L 310.991823 557.714432 
L 311.077904 557.595827 
L 311.422229 556.423752 
L 311.680472 555.813076 
L 312.110878 554.621592 
L 312.455203 554.109483 
L 312.713447 553.984429 
L 312.97169 554.12052 
L 313.574258 554.929311 
L 314.090746 555.424602 
L 314.607233 555.627222 
L 315.295882 555.867971 
L 315.812369 556.356134 
L 316.242775 557.078761 
L 316.759262 558.450565 
L 317.533993 561.47519 
L 318.566967 565.564198 
L 319.255617 567.397391 
L 320.030348 568.765873 
L 321.063322 570.079696 
L 322.526702 571.565291 
L 325.109138 574.165752 
L 326.658599 576.112047 
L 328.121979 578.337529 
L 329.413197 580.823489 
L 331.134821 584.033073 
L 332.426039 585.928341 
L 333.717257 587.402997 
L 336.988342 590.18531 
L 338.537803 591.080723 
L 340.861995 592.269476 
L 342.067132 593.208172 
L 343.616593 594.72753 
L 347.662409 598.800554 
L 350.330926 601.181444 
L 353.51593 603.747164 
L 355.065391 605.065734 
L 358.164314 607.656495 
L 361.435399 610.046642 
L 364.620403 612.116645 
L 367.28892 613.54087 
L 368.838382 614.160784 
L 370.215681 614.457878 
L 372.109467 614.592324 
L 381.578398 614.804319 
L 404.303831 615.498999 
L 430.558594 616.56224 
L 464.044176 618.267596 
L 488.663396 619.737588 
L 517.586676 621.670065 
L 540.139947 623.379504 
L 556.151048 624.725594 
L 570.526607 626.10143 
L 580.770268 627.352334 
L 588.173251 628.730246 
L 609.693548 633.152832 
L 617.268692 635.133232 
L 622.433564 636.467832 
L 636.895203 639.911037 
L 644.470348 641.479886 
L 652.648061 642.96569 
L 661.686586 644.35285 
L 669.433893 645.320006 
L 671.155517 645.508496 
L 671.155517 645.508496 
" clip-path="url(#p3d68726c89)" style="fill: none; stroke: #1f77b4; stroke-width: 1.5; stroke-linecap: square"/>
   </g>
   <g id="line2d_32">
    <path d="M 51.54312 671.321945 
L 53.436906 671.232327 
L 54.125555 670.887235 
L 54.814205 670.254138 
L 55.93326 668.805415 
L 57.224478 667.160641 
L 58.257453 666.150579 
L 60.495563 664.594473 
L 61.012051 664.543369 
L 61.528538 664.707151 
L 62.131106 665.167059 
L 62.991918 666.174845 
L 64.283136 667.684828 
L 65.057866 668.222637 
L 65.402191 668.304496 
L 65.918678 668.210055 
L 66.435165 667.792361 
L 67.037734 666.835815 
L 67.812465 664.850043 
L 68.845439 661.261255 
L 70.739225 652.965 
L 73.579904 638.433352 
L 76.076259 620.432114 
L 76.937071 614.879385 
L 77.970045 608.863455 
L 78.830857 604.432242 
L 80.294237 597.157988 
L 81.068968 594.280078 
L 81.585455 592.131744 
L 82.446267 587.27255 
L 83.220997 583.27095 
L 83.651403 581.983217 
L 83.909647 581.693567 
L 84.16789 581.746031 
L 84.598296 582.930003 
L 85.114783 584.55051 
L 85.286946 584.593332 
L 85.373027 584.488266 
L 85.717352 583.033762 
L 86.061677 579.904763 
L 86.492082 574.794204 
L 87.697219 559.877273 
L 88.041544 557.670683 
L 88.385869 556.299411 
L 88.902356 554.735253 
L 89.160599 552.565304 
L 89.418843 549.06928 
L 89.763168 541.009114 
L 90.193574 526.321895 
L 91.054385 486.738219 
L 92.173441 438.582651 
L 92.776009 421.255201 
L 93.292496 411.490917 
L 93.808984 405.624699 
L 94.153308 403.445244 
L 94.583714 402.326833 
L 94.755877 402.27696 
L 95.186283 403.327554 
L 95.444526 404.502746 
L 96.649663 412.917158 
L 97.080069 415.986172 
L 98.026962 420.606646 
L 99.232098 423.744849 
L 100.437235 426.133973 
L 100.867641 426.484779 
L 101.211966 426.359914 
L 101.900615 425.623213 
L 102.072778 425.79212 
L 102.24494 426.283696 
L 102.503184 427.74174 
L 102.847508 431.119841 
L 103.363995 438.713069 
L 105.602106 474.962561 
L 106.548999 485.540791 
L 107.409811 492.882829 
L 108.442786 499.757716 
L 109.647922 506.319495 
L 111.025221 512.764068 
L 112.832926 520.076854 
L 114.210225 524.815165 
L 114.640631 525.480924 
L 114.898875 525.593182 
L 115.2432 525.483723 
L 115.673605 525.126438 
L 116.276174 524.678889 
L 116.534417 524.643668 
L 116.878742 524.853728 
L 117.136986 525.266608 
L 117.567392 526.471438 
L 118.083879 528.68578 
L 120.32199 539.142801 
L 121.182802 541.467158 
L 122.215776 543.468478 
L 123.506994 545.320022 
L 125.40078 547.443361 
L 127.208485 548.83971 
L 128.757946 549.583531 
L 129.532677 549.792015 
L 129.79092 549.841107 
L 132.115113 549.964612 
L 132.459437 550.247003 
L 132.889843 550.935615 
L 133.320249 552.058661 
L 133.836736 554.015561 
L 134.611467 558.015058 
L 136.591334 568.947368 
L 137.366065 571.824524 
L 138.140796 573.841668 
L 138.915526 575.272395 
L 140.120663 576.955772 
L 140.63715 577.262786 
L 140.895394 577.239066 
L 141.239719 576.923136 
L 141.584043 576.360065 
L 142.186612 574.751397 
L 143.391748 571.329039 
L 143.822154 570.746233 
L 144.166479 570.592597 
L 144.424723 570.680534 
L 145.027291 571.309905 
L 147.007158 573.960188 
L 147.523645 574.10493 
L 147.86797 574.047658 
L 148.642701 573.647035 
L 149.675675 573.141829 
L 150.192162 573.161025 
L 150.622568 573.372944 
L 151.397299 574.24213 
L 152.344192 575.336386 
L 152.688517 575.549869 
L 153.205004 575.586713 
L 153.807572 575.3138 
L 154.754465 574.757325 
L 155.09879 574.768041 
L 155.443115 574.971319 
L 156.131764 576.117229 
L 157.509063 578.914879 
L 157.939469 579.323087 
L 158.283794 579.415504 
L 158.800281 579.283924 
L 159.402849 579.129314 
L 159.919336 579.145127 
L 160.349742 579.245171 
L 161.554879 579.290151 
L 161.985285 578.885639 
L 162.760016 577.662226 
L 163.362584 576.812582 
L 163.706909 576.638093 
L 163.965152 576.637783 
L 164.223396 576.820892 
L 164.998127 578.01741 
L 166.805832 581.207988 
L 167.838806 582.376736 
L 168.527455 582.77524 
L 168.87178 582.866318 
L 169.56043 582.815927 
L 170.162998 582.426654 
L 171.109891 581.285646 
L 171.712459 580.687319 
L 172.142865 580.481965 
L 172.573271 580.52212 
L 172.917596 580.777988 
L 173.434083 581.541599 
L 174.897463 584.743864 
L 175.327869 585.114911 
L 175.586113 585.146845 
L 175.930438 584.915782 
L 176.274762 584.512194 
L 178.426792 581.245264 
L 179.287604 580.421464 
L 180.234497 579.65043 
L 181.611796 579.622158 
L 182.64477 580.325872 
L 183.591663 581.315497 
L 184.366394 582.297193 
L 186.518424 585.507006 
L 186.862749 585.970601 
L 187.293155 586.276919 
L 187.637479 586.255786 
L 188.153966 585.888297 
L 189.789509 584.260913 
L 190.219915 584.141365 
L 190.994646 584.170568 
L 192.630188 584.231815 
L 193.060594 584.644779 
L 193.491 585.415812 
L 194.007487 586.837776 
L 194.95438 590.296124 
L 195.901273 593.454308 
L 196.589923 595.001253 
L 197.192491 595.863079 
L 197.881141 596.47072 
L 198.828034 596.968518 
L 200.635739 597.593106 
L 200.72182 597.577514 
L 200.980064 597.904655 
L 201.238307 597.941823 
L 201.410469 597.933279 
L 201.496551 597.954091 
L 201.840875 596.84066 
L 202.271281 593.854725 
L 202.787768 587.313436 
L 203.562499 573.141696 
L 204.681555 552.325952 
L 205.284123 544.888238 
L 205.972772 539.187335 
L 207.95264 524.874407 
L 208.555208 522.093504 
L 208.985614 520.888955 
L 209.41602 520.181634 
L 209.932507 520.155076 
L 210.10467 520.310627 
L 210.793319 521.547628 
L 211.223725 522.641862 
L 212.170618 526.017392 
L 212.859268 527.762675 
L 213.289674 528.009908 
L 213.633998 527.237004 
L 214.150485 524.321106 
L 214.666973 519.671138 
L 215.872109 508.029445 
L 216.732921 501.916404 
L 217.679814 495.446645 
L 218.971032 484.365742 
L 219.143194 484.352126 
L 219.315357 484.914167 
L 219.5736 486.755422 
L 220.004006 491.810586 
L 221.72563 514.388019 
L 222.500361 521.015569 
L 223.275091 525.927048 
L 224.135903 530.074045 
L 225.254959 534.313313 
L 226.80442 539.232362 
L 227.837394 542.040983 
L 228.612125 543.593361 
L 229.042531 544.127746 
L 229.559018 544.408742 
L 230.333749 544.440099 
L 230.850236 544.515399 
L 231.280642 544.740837 
L 231.711048 545.081304 
L 232.916185 546.644927 
L 233.432672 547.15224 
L 234.465646 547.650054 
L 235.240377 547.518712 
L 236.359432 546.886132 
L 236.962 546.60205 
L 237.306325 546.600316 
L 237.736731 546.93951 
L 238.081056 547.533196 
L 238.511462 548.541684 
L 239.974842 553.043302 
L 240.663492 554.407071 
L 241.524303 555.482807 
L 242.385115 556.443003 
L 242.815521 557.041117 
L 243.41809 558.084724 
L 244.020658 558.790818 
L 245.311876 559.588066 
L 245.828363 559.658629 
L 246.603094 559.687008 
L 247.0335 559.951463 
L 247.377824 560.443972 
L 247.80823 561.244541 
L 248.669042 563.444315 
L 250.562828 568.607972 
L 250.993234 568.990667 
L 251.251478 569.047456 
L 251.767965 568.888479 
L 253.489589 567.880367 
L 254.350401 568.038828 
L 255.555537 568.142416 
L 256.588511 568.070764 
L 257.621486 568.89719 
L 258.310135 569.908426 
L 259.429191 572.075594 
L 260.290003 573.591632 
L 260.720409 574.016514 
L 261.409058 574.313624 
L 261.753383 574.256762 
L 262.442032 573.814663 
L 263.130682 573.340883 
L 263.561088 573.228767 
L 264.852306 572.810538 
L 265.627036 571.988971 
L 266.229605 571.44971 
L 266.573929 571.396046 
L 266.832173 571.502657 
L 267.090416 571.80946 
L 267.692985 573.138598 
L 269.156365 577.313263 
L 269.586771 577.83285 
L 269.758933 577.888954 
L 270.017177 577.755714 
L 270.361502 577.273887 
L 271.136232 575.543925 
L 271.652719 574.633506 
L 272.083125 574.2729 
L 272.42745 574.302837 
L 272.685694 574.545779 
L 273.546506 576.214673 
L 274.235155 577.452449 
L 274.665561 577.830892 
L 275.268129 577.871099 
L 276.04286 577.369022 
L 276.903672 576.712632 
L 278.625296 576.06841 
L 278.969621 576.202951 
L 279.313945 576.55829 
L 279.744351 577.368221 
L 280.260838 578.894544 
L 281.035569 582.078517 
L 282.498949 588.234248 
L 283.187599 590.126652 
L 283.790167 591.202144 
L 284.478817 591.974416 
L 285.339629 592.574275 
L 286.88909 593.35034 
L 287.233415 593.308803 
L 287.577739 593.062572 
L 288.094227 592.361024 
L 289.557607 590.099172 
L 289.901932 589.910432 
L 290.246256 589.966957 
L 290.590581 590.273599 
L 291.107068 591.111016 
L 292.828692 594.341143 
L 293.259098 594.615017 
L 293.689504 594.625116 
L 294.292072 594.383577 
L 295.238965 593.989867 
L 295.669371 594.014156 
L 296.185858 594.259665 
L 297.649238 595.419637 
L 298.165726 595.420101 
L 298.596132 595.05283 
L 298.940456 594.60346 
L 299.543025 593.338614 
L 300.403837 590.82068 
L 303.244516 580.735533 
L 304.105328 576.792723 
L 305.396545 568.90228 
L 306.515601 561.678306 
L 307.290332 557.592844 
L 309.442361 549.909102 
L 310.389254 547.173197 
L 311.422229 545.260924 
L 312.024797 544.140081 
L 312.541284 542.492716 
L 313.66034 538.682017 
L 314.004664 538.18613 
L 314.176827 538.159305 
L 314.43507 538.42587 
L 314.693314 539.085382 
L 315.037639 540.605408 
L 315.554126 544.080184 
L 316.328856 551.121162 
L 317.620074 562.846843 
L 318.222643 566.363835 
L 318.825211 568.519207 
L 319.427779 569.76537 
L 320.116429 570.603134 
L 321.149403 571.396609 
L 322.526702 572.31693 
L 323.215352 573.102279 
L 323.904001 574.255997 
L 324.850894 576.338546 
L 326.486437 579.939067 
L 327.261167 581.127435 
L 328.035898 581.936669 
L 329.327116 582.898844 
L 330.790496 584.073216 
L 333.114688 585.992758 
L 335.266718 587.396687 
L 338.796047 589.421611 
L 342.6697 591.392791 
L 346.887678 593.286629 
L 351.3639 595.052391 
L 356.270528 596.744489 
L 361.521481 598.318392 
L 367.28892 599.811368 
L 373.572847 601.204808 
L 380.459342 602.501694 
L 388.120568 603.713457 
L 396.642606 604.83037 
L 406.197618 605.851944 
L 416.957766 606.773036 
L 429.267376 607.597221 
L 443.470772 608.319253 
L 460.170523 608.939552 
L 480.313521 609.458206 
L 505.535309 609.875321 
L 538.676567 610.188537 
L 586.451627 610.399735 
L 669.175649 610.512272 
L 671.155517 610.513359 
L 671.155517 610.513359 
" clip-path="url(#p3d68726c89)" style="fill: none; stroke: #ff7f0e; stroke-width: 1.5; stroke-linecap: square"/>
   </g>
   <g id="patch_9">
    <path d="M 20.5625 684.92 
L 20.5625 386.16 
" style="fill: none; stroke: #000000; stroke-width: 0.8; stroke-linejoin: miter; stroke-linecap: square"/>
   </g>
   <g id="patch_10">
    <path d="M 702.136136 684.92 
L 702.136136 386.16 
" style="fill: none; stroke: #000000; stroke-width: 0.8; stroke-linejoin: miter; stroke-linecap: square"/>
   </g>
   <g id="patch_11">
    <path d="M 20.5625 684.92 
L 702.136136 684.92 
" style="fill: none; stroke: #000000; stroke-width: 0.8; stroke-linejoin: miter; stroke-linecap: square"/>
   </g>
   <g id="patch_12">
    <path d="M 20.5625 386.16 
L 702.136136 386.16 
" style="fill: none; stroke: #000000; stroke-width: 0.8; stroke-linejoin: miter; stroke-linecap: square"/>
   </g>
   <g id="text_30">
    <!-- 2 transformation(s) -->
    <g transform="translate(303.234631 380.16) scale(0.12 -0.12)">
     <use xlink:href="#DejaVuSans-32"/>
     <use xlink:href="#DejaVuSans-20" x="63.623047"/>
     <use xlink:href="#DejaVuSans-74" x="95.410156"/>
     <use xlink:href="#DejaVuSans-72" x="134.619141"/>
     <use xlink:href="#DejaVuSans-61" x="175.732422"/>
     <use xlink:href="#DejaVuSans-6e" x="237.011719"/>
     <use xlink:href="#DejaVuSans-73" x="300.390625"/>
     <use xlink:href="#DejaVuSans-66" x="352.490234"/>
     <use xlink:href="#DejaVuSans-6f" x="387.695312"/>
     <use xlink:href="#DejaVuSans-72" x="448.876953"/>
     <use xlink:href="#DejaVuSans-6d" x="488.240234"/>
     <use xlink:href="#DejaVuSans-61" x="585.652344"/>
     <use xlink:href="#DejaVuSans-74" x="646.931641"/>
     <use xlink:href="#DejaVuSans-69" x="686.140625"/>
     <use xlink:href="#DejaVuSans-6f" x="713.923828"/>
     <use xlink:href="#DejaVuSans-6e" x="775.105469"/>
     <use xlink:href="#DejaVuSans-28" x="838.484375"/>
     <use xlink:href="#DejaVuSans-73" x="877.498047"/>
     <use xlink:href="#DejaVuSans-29" x="929.597656"/>
    </g>
   </g>
  </g>
  <g id="text_31">
   <!-- training -->
   <g transform="translate(333.129063 16.318125) scale(0.12 -0.12)">
    <defs>
     <path id="DejaVuSans-67" d="M 2906 1791 
Q 2906 2416 2648 2759 
Q 2391 3103 1925 3103 
Q 1463 3103 1205 2759 
Q 947 2416 947 1791 
Q 947 1169 1205 825 
Q 1463 481 1925 481 
Q 2391 481 2648 825 
Q 2906 1169 2906 1791 
z
M 3481 434 
Q 3481 -459 3084 -895 
Q 2688 -1331 1869 -1331 
Q 1566 -1331 1297 -1286 
Q 1028 -1241 775 -1147 
L 775 -588 
Q 1028 -725 1275 -790 
Q 1522 -856 1778 -856 
Q 2344 -856 2625 -561 
Q 2906 -266 2906 331 
L 2906 616 
Q 2728 306 2450 153 
Q 2172 0 1784 0 
Q 1141 0 747 490 
Q 353 981 353 1791 
Q 353 2603 747 3093 
Q 1141 3584 1784 3584 
Q 2172 3584 2450 3431 
Q 2728 3278 2906 2969 
L 2906 3500 
L 3481 3500 
L 3481 434 
z
" transform="scale(0.015625)"/>
    </defs>
    <use xlink:href="#DejaVuSans-74"/>
    <use xlink:href="#DejaVuSans-72" x="39.208984"/>
    <use xlink:href="#DejaVuSans-61" x="80.322266"/>
    <use xlink:href="#DejaVuSans-69" x="141.601562"/>
    <use xlink:href="#DejaVuSans-6e" x="169.384766"/>
    <use xlink:href="#DejaVuSans-69" x="232.763672"/>
    <use xlink:href="#DejaVuSans-6e" x="260.546875"/>
    <use xlink:href="#DejaVuSans-67" x="323.925781"/>
   </g>
  </g>
 </g>
 <defs>
  <clipPath id="p00b884acca">
   <rect x="20.5625" y="43.44" width="681.573636" height="298.76"/>
  </clipPath>
  <clipPath id="p3d68726c89">
   <rect x="20.5625" y="386.16" width="681.573636" height="298.76"/>
  </clipPath>
 </defs>
</svg>
