<?xml version="1.0" encoding="utf-8" standalone="no"?>
<!DOCTYPE svg PUBLIC "-//W3C//DTD SVG 1.1//EN"
  "http://www.w3.org/Graphics/SVG/1.1/DTD/svg11.dtd">
<svg xmlns:xlink="http://www.w3.org/1999/xlink" width="711.461548pt" height="708.798125pt" viewBox="0 0 711.461548 708.798125" xmlns="http://www.w3.org/2000/svg" version="1.1">
 <metadata>
  <rdf:RDF xmlns:dc="http://purl.org/dc/elements/1.1/" xmlns:cc="http://creativecommons.org/ns#" xmlns:rdf="http://www.w3.org/1999/02/22-rdf-syntax-ns#">
   <cc:Work>
    <dc:type rdf:resource="http://purl.org/dc/dcmitype/StillImage"/>
    <dc:date>2023-07-13T05:59:10.441507</dc:date>
    <dc:format>image/svg+xml</dc:format>
    <dc:creator>
     <cc:Agent>
      <dc:title>Matplotlib v3.7.1, https://matplotlib.org/</dc:title>
     </cc:Agent>
    </dc:creator>
   </cc:Work>
  </rdf:RDF>
 </metadata>
 <defs>
  <style type="text/css">*{stroke-linejoin: round; stroke-linecap: butt}</style>
 </defs>
 <g id="figure_1">
  <g id="patch_1">
   <path d="M 0 708.798125 
L 711.461548 708.798125 
L 711.461548 0 
L 0 0 
z
" style="fill: #ffffff"/>
  </g>
  <g id="axes_1">
   <g id="patch_2">
    <path d="M 46.0125 342.2 
L 704.261548 342.2 
L 704.261548 43.44 
L 46.0125 43.44 
z
" style="fill: #ffffff"/>
   </g>
   <g id="matplotlib.axis_1">
    <g id="xtick_1">
     <g id="line2d_1">
      <defs>
       <path id="m4c1cfcb4c5" d="M 0 0 
L 0 3.5 
" style="stroke: #000000; stroke-width: 0.8"/>
      </defs>
      <g>
       <use xlink:href="#m4c1cfcb4c5" x="92.413722" y="342.2" style="stroke: #000000; stroke-width: 0.8"/>
      </g>
     </g>
     <g id="text_1">
      <!-- 2000 -->
      <g transform="translate(79.688722 356.798437) scale(0.1 -0.1)">
       <defs>
        <path id="DejaVuSans-32" d="M 1228 531 
L 3431 531 
L 3431 0 
L 469 0 
L 469 531 
Q 828 903 1448 1529 
Q 2069 2156 2228 2338 
Q 2531 2678 2651 2914 
Q 2772 3150 2772 3378 
Q 2772 3750 2511 3984 
Q 2250 4219 1831 4219 
Q 1534 4219 1204 4116 
Q 875 4013 500 3803 
L 500 4441 
Q 881 4594 1212 4672 
Q 1544 4750 1819 4750 
Q 2544 4750 2975 4387 
Q 3406 4025 3406 3419 
Q 3406 3131 3298 2873 
Q 3191 2616 2906 2266 
Q 2828 2175 2409 1742 
Q 1991 1309 1228 531 
z
" transform="scale(0.015625)"/>
        <path id="DejaVuSans-30" d="M 2034 4250 
Q 1547 4250 1301 3770 
Q 1056 3291 1056 2328 
Q 1056 1369 1301 889 
Q 1547 409 2034 409 
Q 2525 409 2770 889 
Q 3016 1369 3016 2328 
Q 3016 3291 2770 3770 
Q 2525 4250 2034 4250 
z
M 2034 4750 
Q 2819 4750 3233 4129 
Q 3647 3509 3647 2328 
Q 3647 1150 3233 529 
Q 2819 -91 2034 -91 
Q 1250 -91 836 529 
Q 422 1150 422 2328 
Q 422 3509 836 4129 
Q 1250 4750 2034 4750 
z
" transform="scale(0.015625)"/>
       </defs>
       <use xlink:href="#DejaVuSans-32"/>
       <use xlink:href="#DejaVuSans-30" x="63.623047"/>
       <use xlink:href="#DejaVuSans-30" x="127.246094"/>
       <use xlink:href="#DejaVuSans-30" x="190.869141"/>
      </g>
     </g>
    </g>
    <g id="xtick_2">
     <g id="line2d_2">
      <g>
       <use xlink:href="#m4c1cfcb4c5" x="159.065399" y="342.2" style="stroke: #000000; stroke-width: 0.8"/>
      </g>
     </g>
     <g id="text_2">
      <!-- 2001 -->
      <g transform="translate(146.340399 356.798437) scale(0.1 -0.1)">
       <defs>
        <path id="DejaVuSans-31" d="M 794 531 
L 1825 531 
L 1825 4091 
L 703 3866 
L 703 4441 
L 1819 4666 
L 2450 4666 
L 2450 531 
L 3481 531 
L 3481 0 
L 794 0 
L 794 531 
z
" transform="scale(0.015625)"/>
       </defs>
       <use xlink:href="#DejaVuSans-32"/>
       <use xlink:href="#DejaVuSans-30" x="63.623047"/>
       <use xlink:href="#DejaVuSans-30" x="127.246094"/>
       <use xlink:href="#DejaVuSans-31" x="190.869141"/>
      </g>
     </g>
    </g>
    <g id="xtick_3">
     <g id="line2d_3">
      <g>
       <use xlink:href="#m4c1cfcb4c5" x="225.534968" y="342.2" style="stroke: #000000; stroke-width: 0.8"/>
      </g>
     </g>
     <g id="text_3">
      <!-- 2002 -->
      <g transform="translate(212.809968 356.798437) scale(0.1 -0.1)">
       <use xlink:href="#DejaVuSans-32"/>
       <use xlink:href="#DejaVuSans-30" x="63.623047"/>
       <use xlink:href="#DejaVuSans-30" x="127.246094"/>
       <use xlink:href="#DejaVuSans-32" x="190.869141"/>
      </g>
     </g>
    </g>
    <g id="xtick_4">
     <g id="line2d_4">
      <g>
       <use xlink:href="#m4c1cfcb4c5" x="292.004536" y="342.2" style="stroke: #000000; stroke-width: 0.8"/>
      </g>
     </g>
     <g id="text_4">
      <!-- 2003 -->
      <g transform="translate(279.279536 356.798437) scale(0.1 -0.1)">
       <defs>
        <path id="DejaVuSans-33" d="M 2597 2516 
Q 3050 2419 3304 2112 
Q 3559 1806 3559 1356 
Q 3559 666 3084 287 
Q 2609 -91 1734 -91 
Q 1441 -91 1130 -33 
Q 819 25 488 141 
L 488 750 
Q 750 597 1062 519 
Q 1375 441 1716 441 
Q 2309 441 2620 675 
Q 2931 909 2931 1356 
Q 2931 1769 2642 2001 
Q 2353 2234 1838 2234 
L 1294 2234 
L 1294 2753 
L 1863 2753 
Q 2328 2753 2575 2939 
Q 2822 3125 2822 3475 
Q 2822 3834 2567 4026 
Q 2313 4219 1838 4219 
Q 1578 4219 1281 4162 
Q 984 4106 628 3988 
L 628 4550 
Q 988 4650 1302 4700 
Q 1616 4750 1894 4750 
Q 2613 4750 3031 4423 
Q 3450 4097 3450 3541 
Q 3450 3153 3228 2886 
Q 3006 2619 2597 2516 
z
" transform="scale(0.015625)"/>
       </defs>
       <use xlink:href="#DejaVuSans-32"/>
       <use xlink:href="#DejaVuSans-30" x="63.623047"/>
       <use xlink:href="#DejaVuSans-30" x="127.246094"/>
       <use xlink:href="#DejaVuSans-33" x="190.869141"/>
      </g>
     </g>
    </g>
    <g id="xtick_5">
     <g id="line2d_5">
      <g>
       <use xlink:href="#m4c1cfcb4c5" x="358.474105" y="342.2" style="stroke: #000000; stroke-width: 0.8"/>
      </g>
     </g>
     <g id="text_5">
      <!-- 2004 -->
      <g transform="translate(345.749105 356.798437) scale(0.1 -0.1)">
       <defs>
        <path id="DejaVuSans-34" d="M 2419 4116 
L 825 1625 
L 2419 1625 
L 2419 4116 
z
M 2253 4666 
L 3047 4666 
L 3047 1625 
L 3713 1625 
L 3713 1100 
L 3047 1100 
L 3047 0 
L 2419 0 
L 2419 1100 
L 313 1100 
L 313 1709 
L 2253 4666 
z
" transform="scale(0.015625)"/>
       </defs>
       <use xlink:href="#DejaVuSans-32"/>
       <use xlink:href="#DejaVuSans-30" x="63.623047"/>
       <use xlink:href="#DejaVuSans-30" x="127.246094"/>
       <use xlink:href="#DejaVuSans-34" x="190.869141"/>
      </g>
     </g>
    </g>
    <g id="xtick_6">
     <g id="line2d_6">
      <g>
       <use xlink:href="#m4c1cfcb4c5" x="425.125782" y="342.2" style="stroke: #000000; stroke-width: 0.8"/>
      </g>
     </g>
     <g id="text_6">
      <!-- 2005 -->
      <g transform="translate(412.400782 356.798437) scale(0.1 -0.1)">
       <defs>
        <path id="DejaVuSans-35" d="M 691 4666 
L 3169 4666 
L 3169 4134 
L 1269 4134 
L 1269 2991 
Q 1406 3038 1543 3061 
Q 1681 3084 1819 3084 
Q 2600 3084 3056 2656 
Q 3513 2228 3513 1497 
Q 3513 744 3044 326 
Q 2575 -91 1722 -91 
Q 1428 -91 1123 -41 
Q 819 9 494 109 
L 494 744 
Q 775 591 1075 516 
Q 1375 441 1709 441 
Q 2250 441 2565 725 
Q 2881 1009 2881 1497 
Q 2881 1984 2565 2268 
Q 2250 2553 1709 2553 
Q 1456 2553 1204 2497 
Q 953 2441 691 2322 
L 691 4666 
z
" transform="scale(0.015625)"/>
       </defs>
       <use xlink:href="#DejaVuSans-32"/>
       <use xlink:href="#DejaVuSans-30" x="63.623047"/>
       <use xlink:href="#DejaVuSans-30" x="127.246094"/>
       <use xlink:href="#DejaVuSans-35" x="190.869141"/>
      </g>
     </g>
    </g>
    <g id="xtick_7">
     <g id="line2d_7">
      <g>
       <use xlink:href="#m4c1cfcb4c5" x="491.59535" y="342.2" style="stroke: #000000; stroke-width: 0.8"/>
      </g>
     </g>
     <g id="text_7">
      <!-- 2006 -->
      <g transform="translate(478.87035 356.798437) scale(0.1 -0.1)">
       <defs>
        <path id="DejaVuSans-36" d="M 2113 2584 
Q 1688 2584 1439 2293 
Q 1191 2003 1191 1497 
Q 1191 994 1439 701 
Q 1688 409 2113 409 
Q 2538 409 2786 701 
Q 3034 994 3034 1497 
Q 3034 2003 2786 2293 
Q 2538 2584 2113 2584 
z
M 3366 4563 
L 3366 3988 
Q 3128 4100 2886 4159 
Q 2644 4219 2406 4219 
Q 1781 4219 1451 3797 
Q 1122 3375 1075 2522 
Q 1259 2794 1537 2939 
Q 1816 3084 2150 3084 
Q 2853 3084 3261 2657 
Q 3669 2231 3669 1497 
Q 3669 778 3244 343 
Q 2819 -91 2113 -91 
Q 1303 -91 875 529 
Q 447 1150 447 2328 
Q 447 3434 972 4092 
Q 1497 4750 2381 4750 
Q 2619 4750 2861 4703 
Q 3103 4656 3366 4563 
z
" transform="scale(0.015625)"/>
       </defs>
       <use xlink:href="#DejaVuSans-32"/>
       <use xlink:href="#DejaVuSans-30" x="63.623047"/>
       <use xlink:href="#DejaVuSans-30" x="127.246094"/>
       <use xlink:href="#DejaVuSans-36" x="190.869141"/>
      </g>
     </g>
    </g>
    <g id="xtick_8">
     <g id="line2d_8">
      <g>
       <use xlink:href="#m4c1cfcb4c5" x="558.064919" y="342.2" style="stroke: #000000; stroke-width: 0.8"/>
      </g>
     </g>
     <g id="text_8">
      <!-- 2007 -->
      <g transform="translate(545.339919 356.798437) scale(0.1 -0.1)">
       <defs>
        <path id="DejaVuSans-37" d="M 525 4666 
L 3525 4666 
L 3525 4397 
L 1831 0 
L 1172 0 
L 2766 4134 
L 525 4134 
L 525 4666 
z
" transform="scale(0.015625)"/>
       </defs>
       <use xlink:href="#DejaVuSans-32"/>
       <use xlink:href="#DejaVuSans-30" x="63.623047"/>
       <use xlink:href="#DejaVuSans-30" x="127.246094"/>
       <use xlink:href="#DejaVuSans-37" x="190.869141"/>
      </g>
     </g>
    </g>
    <g id="xtick_9">
     <g id="line2d_9">
      <g>
       <use xlink:href="#m4c1cfcb4c5" x="624.534487" y="342.2" style="stroke: #000000; stroke-width: 0.8"/>
      </g>
     </g>
     <g id="text_9">
      <!-- 2008 -->
      <g transform="translate(611.809487 356.798437) scale(0.1 -0.1)">
       <defs>
        <path id="DejaVuSans-38" d="M 2034 2216 
Q 1584 2216 1326 1975 
Q 1069 1734 1069 1313 
Q 1069 891 1326 650 
Q 1584 409 2034 409 
Q 2484 409 2743 651 
Q 3003 894 3003 1313 
Q 3003 1734 2745 1975 
Q 2488 2216 2034 2216 
z
M 1403 2484 
Q 997 2584 770 2862 
Q 544 3141 544 3541 
Q 544 4100 942 4425 
Q 1341 4750 2034 4750 
Q 2731 4750 3128 4425 
Q 3525 4100 3525 3541 
Q 3525 3141 3298 2862 
Q 3072 2584 2669 2484 
Q 3125 2378 3379 2068 
Q 3634 1759 3634 1313 
Q 3634 634 3220 271 
Q 2806 -91 2034 -91 
Q 1263 -91 848 271 
Q 434 634 434 1313 
Q 434 1759 690 2068 
Q 947 2378 1403 2484 
z
M 1172 3481 
Q 1172 3119 1398 2916 
Q 1625 2713 2034 2713 
Q 2441 2713 2670 2916 
Q 2900 3119 2900 3481 
Q 2900 3844 2670 4047 
Q 2441 4250 2034 4250 
Q 1625 4250 1398 4047 
Q 1172 3844 1172 3481 
z
" transform="scale(0.015625)"/>
       </defs>
       <use xlink:href="#DejaVuSans-32"/>
       <use xlink:href="#DejaVuSans-30" x="63.623047"/>
       <use xlink:href="#DejaVuSans-30" x="127.246094"/>
       <use xlink:href="#DejaVuSans-38" x="190.869141"/>
      </g>
     </g>
    </g>
    <g id="xtick_10">
     <g id="line2d_10">
      <g>
       <use xlink:href="#m4c1cfcb4c5" x="691.186164" y="342.2" style="stroke: #000000; stroke-width: 0.8"/>
      </g>
     </g>
     <g id="text_10">
      <!-- 2009 -->
      <g transform="translate(678.461164 356.798437) scale(0.1 -0.1)">
       <defs>
        <path id="DejaVuSans-39" d="M 703 97 
L 703 672 
Q 941 559 1184 500 
Q 1428 441 1663 441 
Q 2288 441 2617 861 
Q 2947 1281 2994 2138 
Q 2813 1869 2534 1725 
Q 2256 1581 1919 1581 
Q 1219 1581 811 2004 
Q 403 2428 403 3163 
Q 403 3881 828 4315 
Q 1253 4750 1959 4750 
Q 2769 4750 3195 4129 
Q 3622 3509 3622 2328 
Q 3622 1225 3098 567 
Q 2575 -91 1691 -91 
Q 1453 -91 1209 -44 
Q 966 3 703 97 
z
M 1959 2075 
Q 2384 2075 2632 2365 
Q 2881 2656 2881 3163 
Q 2881 3666 2632 3958 
Q 2384 4250 1959 4250 
Q 1534 4250 1286 3958 
Q 1038 3666 1038 3163 
Q 1038 2656 1286 2365 
Q 1534 2075 1959 2075 
z
" transform="scale(0.015625)"/>
       </defs>
       <use xlink:href="#DejaVuSans-32"/>
       <use xlink:href="#DejaVuSans-30" x="63.623047"/>
       <use xlink:href="#DejaVuSans-30" x="127.246094"/>
       <use xlink:href="#DejaVuSans-39" x="190.869141"/>
      </g>
     </g>
    </g>
   </g>
   <g id="matplotlib.axis_2">
    <g id="ytick_1">
     <g id="line2d_11">
      <defs>
       <path id="m778402a676" d="M 0 0 
L -3.5 0 
" style="stroke: #000000; stroke-width: 0.8"/>
      </defs>
      <g>
       <use xlink:href="#m778402a676" x="46.0125" y="322.798379" style="stroke: #000000; stroke-width: 0.8"/>
      </g>
     </g>
     <g id="text_11">
      <!-- 0 -->
      <g transform="translate(32.65 326.597598) scale(0.1 -0.1)">
       <use xlink:href="#DejaVuSans-30"/>
      </g>
     </g>
    </g>
    <g id="ytick_2">
     <g id="line2d_12">
      <g>
       <use xlink:href="#m778402a676" x="46.0125" y="272.60511" style="stroke: #000000; stroke-width: 0.8"/>
      </g>
     </g>
     <g id="text_12">
      <!-- 1 -->
      <g transform="translate(32.65 276.404329) scale(0.1 -0.1)">
       <use xlink:href="#DejaVuSans-31"/>
      </g>
     </g>
    </g>
    <g id="ytick_3">
     <g id="line2d_13">
      <g>
       <use xlink:href="#m778402a676" x="46.0125" y="222.411841" style="stroke: #000000; stroke-width: 0.8"/>
      </g>
     </g>
     <g id="text_13">
      <!-- 2 -->
      <g transform="translate(32.65 226.21106) scale(0.1 -0.1)">
       <use xlink:href="#DejaVuSans-32"/>
      </g>
     </g>
    </g>
    <g id="ytick_4">
     <g id="line2d_14">
      <g>
       <use xlink:href="#m778402a676" x="46.0125" y="172.218572" style="stroke: #000000; stroke-width: 0.8"/>
      </g>
     </g>
     <g id="text_14">
      <!-- 3 -->
      <g transform="translate(32.65 176.017791) scale(0.1 -0.1)">
       <use xlink:href="#DejaVuSans-33"/>
      </g>
     </g>
    </g>
    <g id="ytick_5">
     <g id="line2d_15">
      <g>
       <use xlink:href="#m778402a676" x="46.0125" y="122.025303" style="stroke: #000000; stroke-width: 0.8"/>
      </g>
     </g>
     <g id="text_15">
      <!-- 4 -->
      <g transform="translate(32.65 125.824522) scale(0.1 -0.1)">
       <use xlink:href="#DejaVuSans-34"/>
      </g>
     </g>
    </g>
    <g id="ytick_6">
     <g id="line2d_16">
      <g>
       <use xlink:href="#m778402a676" x="46.0125" y="71.832034" style="stroke: #000000; stroke-width: 0.8"/>
      </g>
     </g>
     <g id="text_16">
      <!-- 5 -->
      <g transform="translate(32.65 75.631252) scale(0.1 -0.1)">
       <use xlink:href="#DejaVuSans-35"/>
      </g>
     </g>
    </g>
   </g>
   <g id="line2d_17">
    <path d="M 75.932911 322.788341 
L 80.121405 322.79336 
L 84.492006 322.783321 
L 84.856223 322.783321 
L 85.038332 321.116905 
L 85.22044 320.584856 
L 85.584657 322.502239 
L 85.766765 322.426949 
L 86.130982 322.677916 
L 87.405741 322.783321 
L 99.971221 322.703012 
L 100.153329 322.632742 
L 100.517546 322.72309 
L 101.792305 322.753205 
L 103.249172 322.687954 
L 103.613389 318.552029 
L 103.977606 321.413045 
L 104.341823 322.025403 
L 104.523931 322.115751 
L 104.70604 319.847015 
L 104.888148 277.393548 
L 105.070256 281.268469 
L 105.252365 313.939267 
L 105.434473 313.939267 
L 105.616582 296.587454 
L 105.79869 314.862824 
L 105.980798 319.28987 
L 106.345015 321.653973 
L 106.89134 322.522316 
L 107.983991 322.748186 
L 110.715617 322.788341 
L 112.172484 322.79336 
L 112.354593 316.524221 
L 112.900918 79.16527 
L 113.265135 288.099772 
L 113.447243 306.370122 
L 113.629352 269.457992 
L 113.81146 303.970884 
L 113.993568 314.491393 
L 114.175677 317.999903 
L 114.357785 317.447777 
L 114.539894 236.606498 
L 115.086219 316.338506 
L 115.450436 320.027711 
L 115.814652 321.30262 
L 116.725194 322.261311 
L 117.27152 322.482162 
L 117.453628 322.426949 
L 117.999953 322.542394 
L 119.092604 322.687954 
L 119.456821 322.612664 
L 119.638929 322.005326 
L 120.185254 322.677916 
L 121.095796 322.768263 
L 123.463206 322.79336 
L 124.373748 322.79336 
L 124.555856 322.226176 
L 124.737964 317.076347 
L 124.920073 321.4532 
L 125.102181 322.411891 
L 125.466398 322.748186 
L 125.648506 322.778302 
L 125.830615 320.027711 
L 126.012723 322.135828 
L 126.194832 322.577529 
L 126.559048 322.758225 
L 127.287482 322.798379 
L 127.46959 318.737744 
L 128.015916 322.522316 
L 128.198024 320.584856 
L 128.380132 320.951267 
L 128.744349 322.206099 
L 128.926458 319.847015 
L 129.108566 321.046634 
L 129.290675 321.433123 
L 129.472783 320.399141 
L 129.654891 322.115751 
L 130.019108 322.687954 
L 130.383325 322.788341 
L 134.753927 322.798379 
L 148.229949 322.798379 
L 148.412057 311.90644 
L 148.594166 321.247407 
L 148.776274 322.356679 
L 148.958382 322.703012 
L 149.504708 322.788341 
L 153.875309 322.798379 
L 160.795429 322.768263 
L 160.977537 321.689108 
L 161.341754 322.612664 
L 161.888079 322.778302 
L 165.166031 322.763244 
L 165.348139 322.426949 
L 165.530248 320.951267 
L 166.076573 322.612664 
L 166.44079 322.778302 
L 167.53344 322.798379 
L 170.629283 322.778302 
L 170.811391 321.874823 
L 170.9935 315.41495 
L 171.175608 285.886249 
L 171.357717 193.600905 
L 171.539825 175.14484 
L 171.721933 212.05697 
L 171.904042 285.886249 
L 172.08615 280.349932 
L 172.268259 258.199642 
L 172.632475 299.729553 
L 173.360909 316.709936 
L 173.725126 319.6613 
L 174.089343 321.342775 
L 174.453559 322.226176 
L 174.817776 322.522316 
L 175.364102 322.708032 
L 175.728318 322.703012 
L 176.092535 322.672896 
L 176.456752 322.672896 
L 177.003077 322.281389 
L 177.185186 322.301466 
L 177.549402 322.657838 
L 178.095728 322.743167 
L 179.00627 322.79336 
L 179.552595 322.743167 
L 179.734703 318.552029 
L 179.916812 274.442184 
L 180.281028 316.890632 
L 180.645245 321.52347 
L 181.009462 322.482162 
L 181.373679 322.743167 
L 181.920004 322.733128 
L 182.102113 322.662858 
L 182.284221 322.191041 
L 182.466329 322.261311 
L 182.830546 322.672896 
L 183.012655 322.617684 
L 183.194763 320.770571 
L 183.376871 322.170964 
L 183.741088 322.687954 
L 184.287413 322.783321 
L 186.290606 322.778302 
L 186.472714 322.135828 
L 186.836931 322.703012 
L 187.201148 322.692974 
L 187.383256 316.524221 
L 187.565365 302.128791 
L 187.747473 317.628473 
L 187.929582 320.951267 
L 188.11169 321.764398 
L 188.293798 315.600665 
L 188.475907 302.309487 
L 188.658015 317.447777 
L 188.840124 321.026557 
L 189.022232 321.930036 
L 189.20434 321.874823 
L 189.386449 320.027711 
L 189.568557 321.799533 
L 189.932774 322.637761 
L 191.207533 322.79336 
L 191.935967 322.79336 
L 192.118075 321.819611 
L 192.482292 317.628473 
L 192.6644 321.267485 
L 192.846509 322.226176 
L 193.210725 322.692974 
L 193.757051 322.788341 
L 194.121267 322.758225 
L 194.303376 316.524221 
L 194.485484 315.78638 
L 194.667593 321.729263 
L 194.849701 322.426949 
L 195.213918 322.728109 
L 195.760243 322.788341 
L 196.12446 322.522316 
L 196.488677 322.150886 
L 196.670785 322.557452 
L 196.852894 322.426949 
L 197.035002 312.829996 
L 197.581327 322.542394 
L 197.945544 322.768263 
L 199.58452 322.798379 
L 226.536564 322.798379 
L 226.718672 322.612664 
L 226.900781 322.060538 
L 227.264998 322.281389 
L 227.447106 322.206099 
L 227.811323 322.522316 
L 228.539756 322.763244 
L 229.814515 322.687954 
L 229.996624 322.577529 
L 232.910358 322.798379 
L 241.287345 322.733128 
L 241.469453 317.262062 
L 241.651562 317.447777 
L 241.83367 321.433123 
L 242.379995 322.677916 
L 242.926321 322.798379 
L 243.472646 322.743167 
L 244.018971 322.798379 
L 247.479031 322.798379 
L 247.661139 322.356679 
L 247.843248 314.491393 
L 248.025356 320.399141 
L 248.207464 321.784475 
L 248.571681 322.557452 
L 249.300115 322.612664 
L 249.482223 318.923459 
L 249.664332 309.326506 
L 249.84644 320.399141 
L 250.028548 321.839688 
L 250.392765 322.617684 
L 250.93909 322.783321 
L 255.491801 322.798379 
L 265.325655 322.798379 
L 265.507763 321.282543 
L 265.689871 321.4532 
L 265.87198 322.246253 
L 266.236197 322.657838 
L 266.782522 322.79336 
L 270.971015 322.798379 
L 271.335232 322.798379 
L 271.51734 319.847015 
L 271.699449 286.438375 
L 271.881557 319.475585 
L 272.063666 321.59876 
L 272.427882 322.542394 
L 272.609991 322.71807 
L 272.792099 322.467104 
L 273.156316 322.743167 
L 273.338424 322.577529 
L 273.88475 322.783321 
L 274.248967 322.778302 
L 275.705834 322.798379 
L 282.079628 322.798379 
L 282.443845 319.6613 
L 282.808062 322.135828 
L 283.172278 322.577529 
L 283.536495 322.758225 
L 284.629146 322.798379 
L 297.012517 322.778302 
L 297.740951 322.206099 
L 297.923059 322.115751 
L 298.469385 322.522316 
L 298.833601 322.612664 
L 300.472577 322.426949 
L 300.654686 322.060538 
L 300.836794 320.951267 
L 301.018902 304.342314 
L 301.383119 319.109174 
L 301.747336 321.689108 
L 302.111553 322.246253 
L 302.657878 322.542394 
L 303.204203 322.667877 
L 304.66107 322.743167 
L 304.843179 322.426949 
L 305.207396 319.847015 
L 305.389504 321.59876 
L 305.571613 320.213426 
L 305.935829 321.854746 
L 306.117938 320.770571 
L 306.300046 294.373931 
L 306.664263 320.399141 
L 306.846371 322.005326 
L 307.210588 322.753205 
L 307.939022 322.798379 
L 311.58119 322.738148 
L 311.763298 320.770571 
L 311.945407 315.41495 
L 312.127515 320.399141 
L 312.309624 322.040461 
L 312.67384 322.597606 
L 312.855949 322.692974 
L 313.038057 319.475585 
L 313.220166 321.653973 
L 313.584382 322.632742 
L 313.948599 322.713051 
L 314.130708 309.878632 
L 314.312816 308.03152 
L 314.494924 319.6613 
L 314.677033 321.563625 
L 314.859141 317.814188 
L 315.04125 318.923459 
L 315.223358 321.136982 
L 315.405467 321.192195 
L 315.587575 310.250062 
L 315.951792 320.770571 
L 316.1339 321.116905 
L 316.498117 322.577529 
L 316.862334 322.768263 
L 319.411851 322.798379 
L 325.785646 322.798379 
L 326.149863 302.866632 
L 326.331971 318.366314 
L 326.514079 321.172118 
L 326.878296 322.667877 
L 327.242513 322.79336 
L 331.431006 322.798379 
L 371.130639 322.798379 
L 371.312747 317.999903 
L 371.494856 318.737744 
L 371.859073 321.799533 
L 372.041181 322.371737 
L 372.22329 322.080616 
L 372.405398 322.356679 
L 372.587506 322.411891 
L 372.951723 322.743167 
L 373.680157 322.773283 
L 376.047566 322.798379 
L 384.970878 322.798379 
L 385.152986 321.578683 
L 385.335095 321.322697 
L 385.517203 322.281389 
L 385.88142 322.703012 
L 386.609854 322.798379 
L 388.066721 322.798379 
L 388.248829 299.910249 
L 388.430938 319.28987 
L 388.613046 321.633896 
L 388.795155 322.261311 
L 389.159371 322.612664 
L 389.523588 322.768263 
L 391.162564 322.798379 
L 403.910152 322.798379 
L 404.092261 283.487011 
L 404.274369 318.923459 
L 404.456478 321.709185 
L 404.638586 322.356679 
L 404.820694 322.577529 
L 405.184911 318.366314 
L 405.36702 321.894901 
L 405.731236 322.687954 
L 406.095453 322.788341 
L 407.005995 322.79336 
L 407.188104 321.618838 
L 407.370212 309.507202 
L 407.55232 319.847015 
L 407.734429 321.930036 
L 407.916537 322.467104 
L 408.280754 322.758225 
L 409.373405 322.798379 
L 413.744006 322.798379 
L 413.926115 305.446566 
L 414.108223 302.495202 
L 414.290332 319.6613 
L 414.654548 322.115751 
L 415.018765 322.627722 
L 415.382982 322.758225 
L 417.204066 322.798379 
L 429.587438 322.798379 
L 429.951655 320.584856 
L 430.133763 321.633896 
L 430.315871 321.854746 
L 430.49798 321.689108 
L 430.862197 322.356679 
L 431.044305 322.356679 
L 431.408522 322.617684 
L 432.865389 322.788341 
L 436.507557 322.798379 
L 440.513942 322.798379 
L 440.878159 319.475585 
L 441.060267 319.847015 
L 441.242376 321.709185 
L 441.606593 322.597606 
L 441.970809 322.743167 
L 442.699243 322.798379 
L 443.609785 322.79336 
L 443.791893 322.060538 
L 443.974002 320.770571 
L 444.15611 322.226176 
L 444.338219 322.617684 
L 444.702435 322.783321 
L 445.066652 322.783321 
L 445.248761 322.612664 
L 445.430869 316.524221 
L 445.612978 285.329104 
L 445.795086 317.262062 
L 445.977194 321.116905 
L 446.341411 322.542394 
L 446.705628 322.788341 
L 448.70882 322.788341 
L 448.890929 322.261311 
L 449.073037 266.135198 
L 449.255146 108.69899 
L 449.437254 263.73596 
L 449.619362 309.140791 
L 449.801471 317.628473 
L 450.165688 321.578683 
L 450.529905 322.447027 
L 450.894121 322.713051 
L 451.622555 322.743167 
L 451.804663 322.778302 
L 451.986772 321.689108 
L 452.350989 322.622703 
L 452.715205 322.703012 
L 452.897314 316.152791 
L 453.079422 314.491393 
L 453.261531 319.6613 
L 453.443639 321.413045 
L 453.625747 320.213426 
L 453.807856 320.971344 
L 453.989964 322.336601 
L 454.172073 312.092155 
L 454.536289 321.212272 
L 454.718398 321.894901 
L 454.900506 321.909959 
L 455.082615 318.366314 
L 455.264723 318.552029 
L 455.446832 319.28987 
L 455.62894 321.784475 
L 455.811048 322.447027 
L 456.175265 322.738148 
L 456.72159 322.798379 
L 465.827011 322.798379 
L 466.009119 319.475585 
L 466.191228 321.433123 
L 466.555444 322.482162 
L 466.737553 322.652819 
L 467.10177 322.677916 
L 467.465986 322.798379 
L 507.347728 322.798379 
L 507.529836 313.753552 
L 507.711944 291.422567 
L 507.894053 294.745361 
L 508.076161 313.567837 
L 508.25827 320.584856 
L 508.440378 321.950113 
L 508.804595 322.703012 
L 509.168812 322.743167 
L 509.35092 321.97019 
L 509.533028 315.229234 
L 509.715137 321.413045 
L 509.897245 322.411891 
L 510.079354 322.71807 
L 510.625679 322.798379 
L 511.536221 322.798379 
L 511.718329 321.136982 
L 512.082546 322.467104 
L 512.446763 322.743167 
L 512.628871 320.213426 
L 512.81098 311.725744 
L 512.993088 320.584856 
L 513.175197 322.095674 
L 513.539413 322.703012 
L 513.90363 322.798379 
L 518.638449 322.798379 
L 518.820557 321.950113 
L 519.002666 316.338506 
L 519.184774 321.653973 
L 519.548991 322.612664 
L 520.095316 322.798379 
L 535.392422 322.798379 
L 535.574531 320.584856 
L 535.938747 322.301466 
L 536.302964 322.733128 
L 536.485073 321.543548 
L 536.849289 322.597606 
L 537.213506 322.783321 
L 539.398807 322.798379 
L 539.945132 322.798379 
L 540.127241 305.817996 
L 540.309349 303.790188 
L 540.491458 319.847015 
L 540.673566 321.709185 
L 540.855674 322.426949 
L 541.219891 322.748186 
L 541.948325 322.798379 
L 549.596878 322.798379 
L 549.778986 322.542394 
L 549.961095 322.697993 
L 550.143203 322.482162 
L 550.871637 322.713051 
L 551.235854 322.738148 
L 553.239046 322.798379 
L 566.897177 322.687954 
L 567.079285 322.336601 
L 567.62561 320.027711 
L 567.989827 320.951267 
L 568.354044 321.874823 
L 569.628803 322.482162 
L 570.357236 322.557452 
L 570.539345 322.627722 
L 570.903562 322.150886 
L 571.08567 321.894901 
L 571.449887 322.447027 
L 571.814104 322.64278 
L 572.724646 322.783321 
L 573.999404 322.748186 
L 574.181513 321.247407 
L 574.363621 301.385931 
L 574.54573 304.156599 
L 574.727838 320.399141 
L 574.909947 322.025403 
L 575.274163 322.542394 
L 575.456272 322.467104 
L 576.366814 322.743167 
L 580.737416 322.798379 
L 580.919524 296.958884 
L 581.101632 226.452399 
L 581.283741 312.463585 
L 581.465849 319.847015 
L 581.830066 322.095674 
L 582.194283 322.542394 
L 582.740608 322.743167 
L 583.65115 322.798379 
L 586.018559 322.798379 
L 586.200668 321.744321 
L 586.564885 322.426949 
L 586.746993 318.366314 
L 586.929101 321.413045 
L 587.293318 320.951267 
L 587.657535 322.246253 
L 588.021752 322.577529 
L 588.20386 322.64278 
L 588.385969 322.261311 
L 588.750185 322.577529 
L 589.114402 322.662858 
L 589.296511 321.764398 
L 589.660727 322.577529 
L 590.207053 322.79336 
L 594.395546 322.798379 
L 601.315666 322.798379 
L 601.497774 320.971344 
L 601.861991 322.467104 
L 602.226208 322.72309 
L 602.772533 322.798379 
L 610.421086 322.798379 
L 610.603194 321.192195 
L 610.785303 321.4532 
L 611.14952 322.356679 
L 611.331628 322.542394 
L 611.877953 322.637761 
L 612.424278 322.748186 
L 612.970604 322.748186 
L 635.187829 322.708032 
L 635.369938 322.612664 
L 635.552046 322.336601 
L 636.644696 322.763244 
L 642.836382 322.703012 
L 643.018491 320.027711 
L 643.200599 307.293679 
L 643.382708 318.185618 
L 643.564816 321.950113 
L 643.929033 322.557452 
L 644.839575 322.788341 
L 646.660659 322.798379 
L 646.842767 321.729263 
L 647.024876 301.01952 
L 647.206984 299.729553 
L 647.389093 306.927268 
L 647.571201 320.213426 
L 647.753309 321.784475 
L 647.935418 322.301466 
L 648.117526 322.371737 
L 648.299635 322.191041 
L 648.663851 315.41495 
L 648.84596 320.971344 
L 649.028068 322.080616 
L 649.392285 322.522316 
L 649.756502 322.692974 
L 650.302827 322.788341 
L 650.484935 322.748186 
L 650.667044 309.507202 
L 650.849152 247.493418 
L 651.031261 231.436591 
L 651.395477 314.862824 
L 651.577586 304.342314 
L 651.759694 304.156599 
L 651.941803 317.628473 
L 652.30602 321.839688 
L 652.670236 322.356679 
L 652.852345 321.784475 
L 653.034453 315.967075 
L 653.39867 57.02 
L 653.580778 248.045544 
L 653.762887 306.555838 
L 653.944995 315.600665 
L 654.309212 320.770571 
L 654.673429 322.095674 
L 655.037646 322.467104 
L 655.401862 322.612664 
L 655.583971 322.080616 
L 655.766079 322.336601 
L 656.130296 321.839688 
L 656.312404 322.411891 
L 656.494513 322.597606 
L 656.85873 322.672896 
L 657.040838 321.709185 
L 657.222946 321.950113 
L 657.405055 320.584856 
L 657.587163 322.301466 
L 657.95138 322.622703 
L 658.133489 322.677916 
L 658.497705 322.206099 
L 658.679814 322.502239 
L 658.861922 322.502239 
L 659.044031 322.632742 
L 659.226139 321.172118 
L 659.590356 322.502239 
L 659.954573 322.708032 
L 660.683006 322.788341 
L 661.047223 322.743167 
L 661.229331 313.753552 
L 661.41144 280.530627 
L 661.593548 320.027711 
L 661.775657 322.025403 
L 662.139873 322.577529 
L 662.321982 321.930036 
L 662.50409 319.109174 
L 662.686199 322.336601 
L 663.050416 322.682935 
L 663.778849 322.788341 
L 663.960958 322.627722 
L 664.325174 322.743167 
L 665.235716 322.783321 
L 666.692584 322.798379 
L 674.341137 322.798379 
L 674.341137 322.798379 
" clip-path="url(#p75e35a558e)" style="fill: none; stroke: #1f77b4; stroke-width: 1.5; stroke-linecap: square"/>
   </g>
   <g id="line2d_18">
    <path d="M 75.932911 322.788341 
L 76.843453 323.30087 
L 77.389779 324.422405 
L 77.753995 324.288372 
L 78.846646 323.805425 
L 80.485621 323.554123 
L 81.396163 323.376278 
L 81.942489 323.392978 
L 83.763573 323.099995 
L 84.309898 323.022364 
L 84.492006 323.193257 
L 84.856223 324.025094 
L 85.584657 324.751236 
L 86.495199 326.363435 
L 87.587849 325.184443 
L 88.6805 324.385945 
L 89.408933 324.046671 
L 89.955259 323.971028 
L 90.319475 324.577361 
L 90.501584 324.85369 
L 91.047909 324.624726 
L 91.230017 324.746033 
L 91.594234 325.129101 
L 92.140559 324.665749 
L 93.051102 324.144377 
L 93.961644 323.872328 
L 94.143752 324.038763 
L 94.507969 324.698798 
L 94.690077 324.727414 
L 95.054294 324.499838 
L 96.146944 324.174995 
L 97.603812 323.675286 
L 98.332245 323.477362 
L 98.514354 323.650011 
L 98.696462 324.207295 
L 98.878571 323.923411 
L 99.060679 324.097291 
L 99.242787 323.847797 
L 99.424896 323.959384 
L 99.971221 324.963146 
L 101.428088 324.16953 
L 101.610197 324.175742 
L 102.156522 324.752064 
L 102.33863 324.549959 
L 102.520739 324.608367 
L 102.884956 325.350837 
L 103.249172 325.683593 
L 104.341823 324.732506 
L 104.523931 324.772494 
L 104.70604 324.536805 
L 104.888148 320.05476 
L 105.070256 300.840287 
L 105.252365 297.969441 
L 105.434473 299.095613 
L 106.162907 306.044284 
L 106.527124 308.568812 
L 107.619774 313.875611 
L 108.348208 316.066039 
L 109.987183 320.109782 
L 110.3514 320.838332 
L 110.715617 321.66513 
L 111.261942 322.064544 
L 111.990376 322.307011 
L 112.172484 322.587557 
L 112.354593 321.211891 
L 112.536701 309.157883 
L 112.900918 228.520236 
L 113.81146 255.9175 
L 114.539894 273.209314 
L 114.722002 274.708222 
L 115.996761 294.306203 
L 116.725194 302.594847 
L 117.817845 311.100161 
L 118.182062 313.107477 
L 120.185254 320.496494 
L 120.549471 321.321526 
L 121.095796 321.760877 
L 122.006338 322.285888 
L 122.370555 323.292111 
L 123.098989 325.326875 
L 123.463206 325.789684 
L 124.009531 326.398097 
L 124.191639 326.561648 
L 124.373748 326.939446 
L 124.555856 326.687208 
L 124.737964 322.904237 
L 124.920073 322.040728 
L 125.466398 323.898619 
L 126.012723 324.629577 
L 126.37694 324.971228 
L 126.923265 324.677253 
L 127.105374 324.778602 
L 128.015916 326.503151 
L 128.744349 327.88409 
L 128.926458 327.914512 
L 129.108566 328.402316 
L 129.290675 328.495129 
L 129.472783 328.447882 
L 129.654891 328.605015 
L 129.837 328.548168 
L 130.383325 327.555565 
L 130.565433 327.513252 
L 130.747542 327.869366 
L 131.111759 327.986609 
L 131.475975 327.601554 
L 131.658084 327.646269 
L 132.568626 328.62 
L 132.932843 327.997215 
L 133.843385 326.507312 
L 134.753927 325.527368 
L 135.846577 324.678965 
L 136.575011 324.28543 
L 136.757119 324.389334 
L 137.485553 325.629499 
L 137.84977 325.364114 
L 138.94242 324.526829 
L 140.035071 323.956736 
L 140.399287 324.05722 
L 140.763504 324.372048 
L 141.127721 324.530874 
L 141.491938 324.772749 
L 142.038263 324.453313 
L 142.40248 324.29958 
L 142.584588 324.460094 
L 143.313022 326.305719 
L 143.49513 326.399967 
L 145.316214 324.69038 
L 146.590973 323.984363 
L 147.137298 323.82341 
L 147.319407 323.943032 
L 147.501515 324.523571 
L 147.683624 324.248592 
L 147.865732 322.627462 
L 148.04784 322.644007 
L 148.229949 320.978403 
L 148.412057 317.447995 
L 148.594166 317.650642 
L 148.958382 318.477665 
L 149.868925 319.834369 
L 150.779467 320.75121 
L 151.690009 321.400651 
L 152.236334 321.659527 
L 152.418442 321.927837 
L 153.146876 324.008955 
L 153.328984 324.360633 
L 153.875309 324.152331 
L 155.150068 323.723277 
L 156.971152 323.379312 
L 159.52067 323.123556 
L 159.702779 323.319466 
L 159.884887 323.983497 
L 160.066995 322.938723 
L 160.249104 320.27258 
L 160.431212 320.107478 
L 160.795429 321.024851 
L 162.252296 322.300067 
L 164.07338 322.648593 
L 165.348139 322.830491 
L 165.530248 323.212847 
L 165.712356 323.887234 
L 165.894464 323.758603 
L 166.076573 324.057015 
L 166.622898 323.86694 
L 168.261874 323.482365 
L 170.447175 323.226213 
L 171.357717 323.149229 
L 171.539825 323.32247 
L 172.268259 325.276992 
L 172.450367 324.460386 
L 172.814584 314.935516 
L 173.178801 317.093146 
L 173.360909 316.511976 
L 173.543017 316.732479 
L 174.089343 319.008688 
L 175.181993 321.092179 
L 176.092535 322.819018 
L 177.003077 325.280143 
L 177.549402 326.192247 
L 177.913619 326.196165 
L 179.00627 325.150027 
L 179.370486 325.839582 
L 179.552595 322.396205 
L 179.734703 315.932596 
L 179.916812 315.953329 
L 180.281028 317.5051 
L 180.463137 317.648466 
L 181.555787 320.682814 
L 181.737896 321.088939 
L 181.920004 321.934976 
L 182.284221 320.012534 
L 182.648438 320.870754 
L 183.55898 323.13503 
L 183.741088 323.172311 
L 184.105305 323.637961 
L 184.287413 323.867572 
L 185.380064 323.920936 
L 185.744281 324.253808 
L 185.926389 324.284664 
L 186.290606 325.258696 
L 186.654823 323.141878 
L 187.201148 324.396512 
L 187.383256 321.54489 
L 187.565365 311.646026 
L 187.747473 308.431615 
L 188.293798 312.44582 
L 188.475907 311.897447 
L 188.658015 311.778413 
L 189.386449 316.308764 
L 189.932774 318.409258 
L 190.661208 320.733815 
L 191.025425 321.175068 
L 191.753858 321.571346 
L 192.118075 322.548848 
L 192.482292 311.878242 
L 193.574942 316.005478 
L 193.939159 318.098038 
L 194.121267 317.182924 
L 194.485484 310.058842 
L 194.849701 312.113466 
L 195.578135 315.018375 
L 196.306568 319.092711 
L 196.670785 320.907212 
L 196.852894 320.047836 
L 197.035002 313.702181 
L 197.21711 302.963993 
L 197.399219 299.671604 
L 197.945544 304.513858 
L 198.673978 308.874182 
L 199.402411 312.693153 
L 199.766628 314.887447 
L 200.312953 317.334256 
L 201.405604 321.031228 
L 202.680363 321.808837 
L 203.408796 323.403868 
L 204.501447 323.198131 
L 205.411989 323.154044 
L 205.594097 323.311712 
L 205.776205 323.919465 
L 205.958314 323.972566 
L 206.140422 323.594203 
L 206.322531 323.980322 
L 206.686748 324.147446 
L 207.050964 324.523537 
L 207.779398 324.152185 
L 209.054157 323.642798 
L 209.236265 323.606025 
L 209.418374 323.758797 
L 209.964699 325.020041 
L 210.328916 324.976787 
L 210.511024 325.444092 
L 210.693132 325.597707 
L 210.875241 325.326315 
L 211.057349 325.622466 
L 211.603675 325.439681 
L 211.967891 325.256859 
L 212.332108 325.346598 
L 214.699517 324.147215 
L 215.063734 324.085813 
L 216.338493 323.600005 
L 217.79536 323.287682 
L 218.523794 323.242371 
L 218.705902 323.367103 
L 219.434336 324.400948 
L 220.16277 324.074966 
L 220.344878 324.108685 
L 220.709095 325.068551 
L 220.891203 323.941462 
L 221.073312 323.773589 
L 221.437528 324.357566 
L 221.801745 324.607731 
L 221.983854 324.633589 
L 222.712287 324.182225 
L 223.987046 323.658594 
L 225.626022 323.265223 
L 227.629214 323.006769 
L 227.811323 323.1134 
L 228.357648 324.273366 
L 229.632407 323.964984 
L 229.996624 324.155436 
L 230.725057 323.824372 
L 232.546141 323.343727 
L 232.72825 323.387164 
L 233.456683 323.927309 
L 234.185117 324.07428 
L 235.095659 323.699803 
L 235.459876 323.621679 
L 236.188309 323.828849 
L 237.098851 323.668697 
L 237.463068 324.232988 
L 237.645177 324.501369 
L 238.37361 324.350789 
L 238.555719 324.906401 
L 238.919936 324.584626 
L 239.284152 325.129532 
L 240.74102 324.26189 
L 241.287345 324.179111 
L 241.469453 324.650768 
L 241.83367 315.087155 
L 242.562104 317.315908 
L 243.472646 319.998709 
L 243.836863 320.758731 
L 244.747405 321.384902 
L 245.475838 321.769929 
L 245.840055 322.53969 
L 246.204272 323.184198 
L 246.568489 323.199695 
L 246.932705 324.221005 
L 247.114814 322.211873 
L 247.296922 321.507779 
L 247.661139 322.794749 
L 247.843248 320.045265 
L 248.025356 319.481531 
L 248.389573 320.640096 
L 249.118006 322.323715 
L 249.300115 323.077162 
L 249.482223 322.79608 
L 249.664332 319.6434 
L 249.84644 319.439298 
L 250.756982 321.387848 
L 251.303307 321.691367 
L 252.578066 322.39172 
L 252.942283 322.804276 
L 253.124391 322.924523 
L 254.034933 324.13047 
L 254.581259 324.150109 
L 254.945475 324.122534 
L 255.491801 323.982858 
L 256.220234 325.057835 
L 256.766559 324.675001 
L 258.223427 324.30657 
L 259.133969 323.923106 
L 259.316077 324.022581 
L 260.044511 325.195599 
L 260.408728 324.985941 
L 261.501378 324.252362 
L 261.865595 324.04118 
L 262.047703 324.146557 
L 262.229812 324.720619 
L 262.41192 324.518265 
L 262.594028 323.694238 
L 262.958245 324.327416 
L 263.686679 325.067594 
L 264.597221 324.455369 
L 264.779329 324.303689 
L 264.961438 324.407741 
L 265.143546 324.92308 
L 265.325655 322.843858 
L 265.507763 317.434169 
L 265.689871 317.325116 
L 266.054088 319.074066 
L 266.418305 320.132082 
L 267.328847 321.073246 
L 268.057281 321.645198 
L 268.603606 322.655362 
L 268.967823 323.14167 
L 269.33204 323.994837 
L 269.696256 324.168205 
L 270.060473 324.180586 
L 271.153124 323.954024 
L 271.335232 323.688867 
L 271.51734 318.031093 
L 271.881557 279.163579 
L 272.609991 291.255855 
L 273.88475 305.088445 
L 274.9774 311.940184 
L 275.523725 314.707377 
L 276.070051 316.347842 
L 276.616376 317.850809 
L 277.162701 320.112379 
L 277.709026 320.879231 
L 278.073243 321.291612 
L 278.801677 322.607 
L 278.983785 322.624085 
L 279.165894 322.829373 
L 279.712219 324.038378 
L 279.894327 323.881752 
L 280.076436 323.95641 
L 280.258544 324.26045 
L 280.804869 325.668465 
L 280.986978 325.799818 
L 281.715411 325.083848 
L 281.89752 325.129477 
L 282.079628 325.593548 
L 282.261736 323.505834 
L 282.625953 322.775867 
L 282.99017 322.821705 
L 285.357579 322.929963 
L 285.721796 323.171705 
L 286.268121 323.244573 
L 287.360772 323.252454 
L 288.089205 323.259311 
L 288.271314 323.510836 
L 288.635531 324.342796 
L 288.817639 324.42362 
L 289.363964 324.116904 
L 293.370349 323.172848 
L 295.191433 323.030785 
L 295.737759 323.091336 
L 296.101975 323.257375 
L 296.830409 323.15112 
L 297.012517 323.337575 
L 297.194626 323.933022 
L 297.376734 322.529275 
L 297.740951 322.276918 
L 298.469385 324.038437 
L 298.651493 323.846774 
L 299.562035 323.626677 
L 300.472577 323.408187 
L 300.654686 323.586554 
L 300.836794 324.164879 
L 301.018902 323.767991 
L 301.201011 323.875843 
L 301.383119 323.74233 
L 302.111553 323.897782 
L 303.932637 323.464051 
L 304.843179 323.374247 
L 305.025287 323.696475 
L 305.207396 324.301232 
L 305.389504 324.40097 
L 305.571613 324.692818 
L 305.753721 324.637172 
L 305.935829 325.187151 
L 306.117938 325.199204 
L 306.482155 318.504708 
L 306.846371 319.486572 
L 307.756913 320.442104 
L 308.667455 321.1215 
L 309.395889 321.620751 
L 310.124323 323.585187 
L 311.034865 323.456951 
L 311.399082 324.250855 
L 311.945407 317.421892 
L 312.127515 316.560254 
L 313.220166 320.7704 
L 313.584382 321.399219 
L 313.948599 323.042574 
L 314.130708 322.994918 
L 314.312816 321.163161 
L 314.494924 321.250511 
L 315.405467 324.509046 
L 315.769683 323.037115 
L 316.1339 323.873385 
L 316.316009 323.962279 
L 316.862334 323.836824 
L 317.044442 324.041984 
L 317.590767 325.437808 
L 317.772876 325.587442 
L 319.59396 324.377136 
L 319.776068 324.360552 
L 319.958177 324.580684 
L 320.68661 326.475814 
L 320.868719 326.695998 
L 321.232936 326.367718 
L 321.779261 325.803896 
L 321.961369 325.953551 
L 322.143478 326.485815 
L 322.507694 325.902708 
L 322.689803 325.789342 
L 323.05402 325.892084 
L 323.418236 325.707762 
L 323.600345 325.943913 
L 323.964562 326.862852 
L 324.14667 326.733325 
L 324.875104 327.847943 
L 325.057212 327.90652 
L 325.421429 327.608146 
L 325.785646 328.402654 
L 325.967754 326.673593 
L 326.149863 323.78199 
L 326.878296 325.142944 
L 328.69938 324.092448 
L 330.156247 324.042088 
L 330.338356 324.285908 
L 330.884681 325.518231 
L 331.06679 325.719305 
L 331.431006 325.416799 
L 332.341548 324.66856 
L 333.616307 323.965771 
L 333.798416 323.974928 
L 333.980524 324.186222 
L 334.344741 324.931201 
L 334.526849 324.980556 
L 334.891066 324.807236 
L 335.6195 324.876477 
L 335.801608 324.83053 
L 335.983717 324.916898 
L 336.347933 325.277189 
L 336.71215 325.086169 
L 337.622692 324.440577 
L 337.804801 324.473651 
L 338.169017 325.247236 
L 338.897451 326.752506 
L 339.079559 326.818025 
L 339.261668 326.693188 
L 339.443776 326.88685 
L 339.625885 327.333434 
L 339.807993 327.085352 
L 339.990101 327.19936 
L 340.17221 327.076806 
L 341.082752 325.967579 
L 341.993294 325.167453 
L 343.085944 324.380481 
L 343.450161 324.260126 
L 343.63227 324.565246 
L 343.996486 325.461572 
L 344.178595 325.796778 
L 344.542812 325.89348 
L 345.089137 326.461716 
L 345.635462 325.847914 
L 346.363896 325.131069 
L 346.728113 325.022942 
L 347.456546 325.305491 
L 347.820763 325.076377 
L 349.095522 324.246532 
L 349.27763 324.368387 
L 349.459739 324.897176 
L 349.641847 323.934578 
L 349.823955 323.896861 
L 350.006064 323.598459 
L 350.370281 323.602736 
L 351.098714 323.51285 
L 351.64504 324.385562 
L 352.009256 324.169832 
L 352.555582 323.942351 
L 352.73769 323.982918 
L 352.919798 324.258457 
L 353.466124 325.48495 
L 353.648232 325.535229 
L 353.83034 325.341006 
L 354.012449 325.353514 
L 354.558774 326.11653 
L 354.922991 325.670676 
L 355.469316 325.253912 
L 355.651424 325.336805 
L 356.015641 325.650209 
L 356.561966 325.090366 
L 357.472509 324.459685 
L 360.386243 323.694112 
L 360.568351 323.762872 
L 360.75046 323.987302 
L 361.661002 326.097312 
L 362.025219 325.775414 
L 362.935761 324.974373 
L 364.028411 324.303611 
L 365.121062 323.869983 
L 366.760037 323.483521 
L 366.942146 323.434823 
L 367.124254 323.526235 
L 367.852688 324.861339 
L 368.581121 324.354946 
L 369.127447 324.061042 
L 369.309555 324.190277 
L 369.673772 324.923309 
L 369.85588 325.182184 
L 370.220097 324.829694 
L 370.584314 324.642606 
L 370.766422 324.939765 
L 370.948531 325.506785 
L 371.312747 321.428551 
L 371.494856 321.869004 
L 371.676964 321.844753 
L 372.041181 322.042825 
L 372.22329 322.318561 
L 372.769615 323.777727 
L 372.951723 323.946122 
L 374.226482 323.690821 
L 374.772807 324.431803 
L 375.865458 323.911893 
L 376.776 323.610881 
L 377.140216 323.707765 
L 377.504433 323.852789 
L 378.414975 323.678571 
L 378.597084 323.860191 
L 378.961301 324.542162 
L 379.143409 324.642579 
L 380.236059 324.165027 
L 380.964493 324.571123 
L 381.32871 324.52524 
L 381.692927 324.78748 
L 382.42136 324.690863 
L 382.603469 324.757031 
L 383.149794 325.564845 
L 383.331902 325.628851 
L 383.878228 326.501904 
L 384.242444 326.37005 
L 384.424553 326.672201 
L 384.606661 327.26724 
L 384.78877 327.430613 
L 385.335095 321.104982 
L 385.88142 322.179116 
L 386.427745 322.585201 
L 386.791962 322.646301 
L 386.97407 322.903817 
L 387.520396 324.419433 
L 387.702504 324.745622 
L 387.884613 325.320761 
L 388.066721 324.126626 
L 388.430938 313.185798 
L 388.795155 314.810291 
L 389.34148 316.891246 
L 389.705697 318.217505 
L 390.43413 319.737587 
L 391.162564 320.483469 
L 391.890997 321.197488 
L 392.073106 321.618431 
L 392.437323 323.199976 
L 392.619431 322.689201 
L 392.801539 319.000303 
L 392.983648 318.080767 
L 393.347865 319.212041 
L 394.258407 320.613705 
L 394.98684 321.376987 
L 395.715274 322.722319 
L 396.079491 323.353554 
L 396.443708 323.405 
L 396.807924 323.399593 
L 397.172141 324.042652 
L 397.35425 324.371796 
L 397.718466 324.353697 
L 398.082683 325.044487 
L 398.264792 325.417763 
L 398.811117 325.618217 
L 399.175334 325.499158 
L 400.450093 324.504639 
L 401.178526 324.347737 
L 401.360635 324.500439 
L 401.90696 325.618875 
L 402.089068 325.654212 
L 402.453285 326.11405 
L 402.635393 326.301263 
L 403.363827 325.691385 
L 403.545936 326.019031 
L 403.728044 325.341289 
L 403.910152 314.826249 
L 404.092261 281.300161 
L 404.274369 270.245681 
L 405.002803 283.395532 
L 405.731236 293.564436 
L 406.45967 300.796382 
L 407.188104 306.985726 
L 407.370212 301.160443 
L 407.55232 299.518079 
L 408.098646 304.064643 
L 409.191296 311.331936 
L 410.101838 314.636549 
L 411.01238 317.539906 
L 411.376597 318.83382 
L 412.469247 320.91591 
L 412.833464 322.137373 
L 413.561898 323.2006 
L 413.744006 323.86187 
L 414.108223 318.236138 
L 414.654548 319.844819 
L 415.382982 320.570555 
L 416.475632 321.35097 
L 417.750391 321.898529 
L 419.935692 322.485899 
L 421.574668 322.635156 
L 424.306294 322.853585 
L 424.670511 323.018195 
L 425.94527 322.945655 
L 428.312679 322.944448 
L 428.494787 323.153734 
L 428.676896 323.829757 
L 429.041112 321.525771 
L 429.223221 321.926688 
L 429.769546 322.053329 
L 431.59063 322.443658 
L 432.683281 322.646139 
L 433.411714 323.130338 
L 436.871774 322.94346 
L 437.053882 322.998518 
L 437.964424 323.713612 
L 438.692858 323.578093 
L 439.057075 323.645688 
L 439.421292 323.857567 
L 439.6034 323.98335 
L 439.785509 324.580823 
L 439.967617 324.254975 
L 440.149725 324.186674 
L 440.331834 324.847841 
L 440.513942 324.833207 
L 440.878159 325.705732 
L 441.060267 322.181129 
L 441.242376 321.334067 
L 441.424484 321.065284 
L 441.788701 321.356093 
L 442.699243 321.785503 
L 443.245568 321.959667 
L 443.609785 322.700571 
L 443.974002 313.225972 
L 444.338219 314.684491 
L 444.884544 316.331278 
L 445.066652 317.34175 
L 445.248761 317.687573 
L 445.430869 312.795494 
L 445.795086 282.119824 
L 446.341411 289.811338 
L 447.251953 299.519551 
L 448.890929 312.825704 
L 449.073037 307.505882 
L 449.437254 248.118046 
L 449.619362 245.875478 
L 450.347796 264.844368 
L 451.07623 278.833286 
L 451.986772 292.241638 
L 452.715205 300.890116 
L 452.897314 300.945088 
L 453.079422 301.748498 
L 453.443639 305.923183 
L 453.807856 307.965577 
L 454.172073 310.591632 
L 454.354181 310.955814 
L 455.082615 316.440052 
L 455.264723 316.981986 
L 455.446832 317.035401 
L 455.811048 318.263605 
L 456.72159 319.56738 
L 457.814241 320.850207 
L 458.360566 322.612533 
L 458.724783 322.762752 
L 459.817433 322.938821 
L 460.545867 324.630934 
L 461.274301 324.233136 
L 461.638517 324.088578 
L 461.820626 324.222503 
L 462.002734 324.598374 
L 462.366951 325.813823 
L 462.549059 322.89831 
L 462.731168 318.017086 
L 462.913276 318.020149 
L 463.277493 319.568934 
L 463.823818 320.79225 
L 465.098577 321.820955 
L 465.644902 322.066886 
L 465.827011 322.381388 
L 466.009119 323.075458 
L 466.191228 323.210047 
L 466.373336 320.315647 
L 466.555444 319.728374 
L 466.919661 320.60886 
L 467.830203 321.585973 
L 468.19442 321.791645 
L 468.376528 322.09323 
L 468.922854 323.516736 
L 470.015504 323.689825 
L 470.379721 323.555779 
L 470.561829 323.667407 
L 470.926046 324.530137 
L 471.290263 324.943793 
L 473.475564 323.794138 
L 473.657672 323.883272 
L 474.750323 326.221796 
L 474.932431 326.275585 
L 475.478756 325.799521 
L 475.842973 326.461718 
L 476.025082 326.156966 
L 476.20719 326.382201 
L 476.571407 326.037253 
L 478.028274 324.713951 
L 479.120924 324.072884 
L 480.031466 323.713671 
L 480.213575 323.739436 
L 480.942008 324.269709 
L 482.034659 323.776369 
L 482.398876 323.680643 
L 482.580984 323.743814 
L 482.945201 324.12688 
L 483.309418 324.114889 
L 483.855743 324.015013 
L 484.584177 324.321276 
L 485.31261 324.023382 
L 486.405261 323.875902 
L 487.68002 323.51458 
L 487.862128 323.681806 
L 488.044236 324.2915 
L 488.408453 323.786217 
L 488.590562 324.027714 
L 488.954778 324.076095 
L 489.86532 323.793183 
L 490.047429 323.867489 
L 490.411646 324.272211 
L 490.775862 324.252692 
L 490.957971 324.22878 
L 491.140079 324.478777 
L 491.504296 325.41817 
L 491.868513 325.74265 
L 492.23273 325.360368 
L 492.414838 325.397478 
L 492.961163 326.470035 
L 493.143272 325.917837 
L 493.32538 326.009408 
L 493.871705 325.410412 
L 494.782247 324.660771 
L 495.874898 324.104194 
L 497.149657 323.618165 
L 499.334958 323.417325 
L 499.517066 323.510003 
L 500.2455 324.414957 
L 501.33815 323.934205 
L 501.520258 323.987523 
L 501.884475 324.606608 
L 502.248692 325.167684 
L 502.612909 325.667907 
L 502.977126 325.250779 
L 503.887668 324.543064 
L 504.251885 324.387163 
L 504.433993 324.626477 
L 504.79821 325.4803 
L 504.980318 325.688015 
L 506.072969 324.808386 
L 507.165619 324.23068 
L 507.347728 324.409771 
L 507.529836 324.404203 
L 507.711944 318.349849 
L 508.076161 248.976631 
L 508.25827 250.427319 
L 509.35092 274.907108 
L 509.533028 276.906889 
L 510.079354 285.806836 
L 510.989896 296.742423 
L 511.900438 306.400517 
L 512.446763 310.605726 
L 512.81098 307.758183 
L 513.721522 313.735213 
L 514.085739 315.224929 
L 515.178389 318.449268 
L 515.724714 320.736501 
L 516.088931 321.198761 
L 518.092124 322.241264 
L 518.45634 322.366978 
L 518.638449 322.76956 
L 518.820557 323.508331 
L 519.002666 323.683165 
L 519.366882 324.143585 
L 520.095316 323.839181 
L 520.277424 323.888532 
L 520.641641 324.654416 
L 521.005858 325.907024 
L 521.552183 326.120085 
L 522.098508 325.566414 
L 522.280617 325.475944 
L 522.462725 325.577588 
L 523.009051 326.39468 
L 523.191159 326.459683 
L 523.373267 326.405734 
L 524.465918 325.269456 
L 524.648026 325.291065 
L 525.012243 325.606341 
L 525.194351 325.583136 
L 525.37646 325.677702 
L 525.740677 326.187724 
L 526.287002 326.248097 
L 527.925978 324.704321 
L 528.108086 324.626109 
L 528.290194 324.704551 
L 528.83652 325.363497 
L 529.564953 324.953976 
L 529.92917 324.789894 
L 530.475495 324.523017 
L 530.839712 324.649008 
L 531.203929 324.963085 
L 531.386037 324.834927 
L 531.568146 324.886522 
L 531.750254 325.370333 
L 532.114471 325.34371 
L 532.296579 325.416589 
L 532.660796 325.178582 
L 532.842904 325.379542 
L 533.38923 326.352369 
L 533.935555 326.862576 
L 534.299772 326.643742 
L 535.028205 326.581082 
L 535.210314 326.875259 
L 535.574531 316.63346 
L 536.667181 320.663167 
L 537.94194 321.497871 
L 538.852482 322.039451 
L 539.763024 323.558887 
L 539.945132 319.990152 
L 540.309349 283.084477 
L 540.491458 284.162175 
L 541.219891 294.466506 
L 541.948325 301.322334 
L 542.676758 306.654727 
L 543.951517 313.588574 
L 545.044168 317.534748 
L 545.590493 319.6493 
L 546.136818 321.239137 
L 546.501035 321.39204 
L 547.957902 321.978858 
L 548.504228 322.197631 
L 548.868444 323.220981 
L 549.596878 325.181411 
L 549.961095 325.893389 
L 550.143203 325.869897 
L 550.871637 325.125319 
L 551.964287 324.346522 
L 553.239046 323.760718 
L 554.149588 323.561567 
L 554.695913 323.513745 
L 556.516997 323.161783 
L 558.155973 323.037779 
L 558.52019 323.067086 
L 558.702298 323.370888 
L 559.066515 324.252899 
L 559.248624 324.548942 
L 559.61284 324.281181 
L 560.887599 323.786409 
L 562.162358 323.531658 
L 562.890792 323.790776 
L 564.347659 323.417378 
L 566.350851 323.201903 
L 566.897177 323.19777 
L 567.079285 323.556515 
L 567.261393 324.170934 
L 567.62561 321.122118 
L 567.989827 322.174624 
L 568.536152 322.466794 
L 569.810911 322.812473 
L 570.175128 323.144403 
L 570.903562 323.064973 
L 571.08567 323.085025 
L 571.267778 323.260255 
L 571.996212 324.674137 
L 573.088862 324.154596 
L 573.270971 324.415927 
L 573.817296 325.632892 
L 573.999404 325.957914 
L 574.181513 322.969512 
L 574.363621 312.519894 
L 574.54573 310.04575 
L 575.274163 314.263687 
L 575.63838 315.715548 
L 576.184705 317.200333 
L 576.731031 319.511455 
L 577.095247 320.235516 
L 577.641573 320.742024 
L 577.823681 321.03711 
L 578.734223 323.730894 
L 579.826874 325.692969 
L 580.555307 325.132451 
L 580.737416 323.582224 
L 580.919524 316.677893 
L 581.283741 223.117867 
L 582.376391 256.110102 
L 583.104825 272.342696 
L 584.379584 293.751368 
L 585.654343 307.008425 
L 585.836451 308.815277 
L 586.018559 309.154098 
L 586.200668 309.829159 
L 586.929101 315.514977 
L 587.839643 318.739224 
L 588.20386 320.29908 
L 588.750185 321.655349 
L 588.932294 322.434502 
L 589.114402 321.331672 
L 589.296511 321.073556 
L 589.478619 321.508321 
L 590.57127 321.955721 
L 591.299703 322.285323 
L 591.66392 322.723337 
L 592.392354 322.79931 
L 592.574462 323.04942 
L 593.120787 324.57286 
L 593.302896 324.797686 
L 595.488197 323.772146 
L 595.670305 323.801433 
L 596.21663 324.165575 
L 596.580847 324.108345 
L 596.945064 324.090645 
L 597.309281 325.198533 
L 597.491389 324.335026 
L 597.673497 324.078422 
L 598.037714 324.509512 
L 598.401931 325.423915 
L 598.584039 325.686503 
L 598.948256 325.426011 
L 599.494581 325.049754 
L 599.67669 325.174348 
L 600.040907 326.128089 
L 600.405124 324.372305 
L 600.587232 324.511209 
L 601.133557 326.075973 
L 601.315666 324.653168 
L 601.497774 324.294349 
L 601.679882 324.457163 
L 603.13675 323.915936 
L 603.318858 324.084098 
L 603.500966 324.664498 
L 603.683075 324.794884 
L 604.047292 325.592275 
L 604.411508 326.320535 
L 604.593617 326.452893 
L 605.868376 325.225663 
L 606.596809 324.928672 
L 607.143135 325.619472 
L 608.78211 324.509992 
L 608.964219 324.709275 
L 609.328435 325.586338 
L 609.510544 325.8271 
L 609.692652 325.720096 
L 609.874761 325.483354 
L 610.056869 325.525327 
L 610.238977 325.939598 
L 610.421086 323.169483 
L 610.603194 316.053153 
L 610.785303 315.205304 
L 611.331628 317.542697 
L 611.877953 319.432433 
L 612.24217 320.066607 
L 613.33482 320.979917 
L 614.427471 321.588484 
L 615.884338 322.130495 
L 617.705422 322.488347 
L 619.344398 322.636423 
L 619.526506 322.818936 
L 620.072831 324.028503 
L 620.437048 323.825376 
L 621.711807 323.515315 
L 622.622349 323.438243 
L 622.986566 323.955591 
L 623.168674 324.169658 
L 624.443433 323.740365 
L 625.171867 323.509309 
L 625.353975 323.670249 
L 625.536084 324.241503 
L 625.718192 322.756289 
L 626.082409 322.317698 
L 626.446626 322.420189 
L 629.178252 322.780925 
L 629.36036 322.756833 
L 629.542469 322.961262 
L 629.906685 323.696192 
L 630.088794 324.011379 
L 630.270902 323.822377 
L 631.545661 323.521379 
L 633.366745 323.288721 
L 634.459396 323.321963 
L 634.823612 324.292726 
L 635.005721 323.452286 
L 635.369938 323.891212 
L 635.552046 324.486514 
L 635.734154 324.559401 
L 635.916263 324.822067 
L 636.28048 324.531133 
L 637.555239 324.169186 
L 637.919455 324.14845 
L 638.283672 324.025235 
L 638.465781 324.072402 
L 638.829997 324.366025 
L 639.740539 323.943563 
L 640.104756 323.821122 
L 640.286865 323.851486 
L 640.651081 324.302486 
L 641.015298 325.118413 
L 641.197407 325.612337 
L 641.379515 325.410717 
L 641.561623 325.706212 
L 641.743732 325.619691 
L 642.107949 326.028938 
L 642.654274 326.181008 
L 642.836382 326.574022 
L 643.018491 323.472262 
L 643.200599 318.116296 
L 643.382708 318.268767 
L 643.746924 319.286214 
L 644.475358 320.215593 
L 645.203792 320.921765 
L 645.932225 323.013519 
L 646.296442 323.089429 
L 646.842767 322.657596 
L 647.206984 293.776426 
L 647.389093 294.371636 
L 648.299635 305.120211 
L 649.210177 310.657701 
L 650.120719 314.68965 
L 650.484935 315.727302 
L 650.667044 313.507205 
L 651.031261 252.020573 
L 651.213369 252.928973 
L 651.759694 266.414477 
L 652.488128 280.916444 
L 653.034453 289.598373 
L 653.216562 288.080094 
L 653.580778 255.133216 
L 654.855537 281.26241 
L 656.130296 299.94168 
L 656.494513 304.004276 
L 656.676621 303.470751 
L 656.85873 303.493515 
L 658.133489 312.275381 
L 658.497705 310.458763 
L 659.044031 314.490722 
L 659.772464 317.88478 
L 660.683006 319.514436 
L 660.865115 320.310951 
L 661.047223 319.872811 
L 661.229331 308.553641 
L 661.41144 281.0479 
L 661.593548 274.0127 
L 662.50409 289.327108 
L 663.050416 295.810194 
L 664.143066 305.346982 
L 664.325174 306.13401 
L 665.053608 310.94535 
L 665.782042 314.839118 
L 666.692584 317.300223 
L 667.603126 318.882997 
L 668.513668 320.010195 
L 669.42421 321.078795 
L 670.152643 322.240659 
L 671.245294 323.290776 
L 671.609511 324.047285 
L 671.791619 324.171266 
L 672.884269 323.795267 
L 673.066378 324.006879 
L 673.248486 323.919634 
L 673.612703 309.337992 
L 673.97692 311.27933 
L 674.341137 312.750653 
L 674.341137 312.750653 
" clip-path="url(#p75e35a558e)" style="fill: none; stroke: #ff7f0e; stroke-width: 1.5; stroke-linecap: square"/>
   </g>
   <g id="patch_3">
    <path d="M 46.0125 342.2 
L 46.0125 43.44 
" style="fill: none; stroke: #000000; stroke-width: 0.8; stroke-linejoin: miter; stroke-linecap: square"/>
   </g>
   <g id="patch_4">
    <path d="M 704.261548 342.2 
L 704.261548 43.44 
" style="fill: none; stroke: #000000; stroke-width: 0.8; stroke-linejoin: miter; stroke-linecap: square"/>
   </g>
   <g id="patch_5">
    <path d="M 46.0125 342.2 
L 704.261548 342.2 
" style="fill: none; stroke: #000000; stroke-width: 0.8; stroke-linejoin: miter; stroke-linecap: square"/>
   </g>
   <g id="patch_6">
    <path d="M 46.0125 43.44 
L 704.261548 43.44 
" style="fill: none; stroke: #000000; stroke-width: 0.8; stroke-linejoin: miter; stroke-linecap: square"/>
   </g>
   <g id="text_17">
    <!-- 1 transformation(s) -->
    <g transform="translate(317.022337 37.44) scale(0.12 -0.12)">
     <defs>
      <path id="DejaVuSans-20" transform="scale(0.015625)"/>
      <path id="DejaVuSans-74" d="M 1172 4494 
L 1172 3500 
L 2356 3500 
L 2356 3053 
L 1172 3053 
L 1172 1153 
Q 1172 725 1289 603 
Q 1406 481 1766 481 
L 2356 481 
L 2356 0 
L 1766 0 
Q 1100 0 847 248 
Q 594 497 594 1153 
L 594 3053 
L 172 3053 
L 172 3500 
L 594 3500 
L 594 4494 
L 1172 4494 
z
" transform="scale(0.015625)"/>
      <path id="DejaVuSans-72" d="M 2631 2963 
Q 2534 3019 2420 3045 
Q 2306 3072 2169 3072 
Q 1681 3072 1420 2755 
Q 1159 2438 1159 1844 
L 1159 0 
L 581 0 
L 581 3500 
L 1159 3500 
L 1159 2956 
Q 1341 3275 1631 3429 
Q 1922 3584 2338 3584 
Q 2397 3584 2469 3576 
Q 2541 3569 2628 3553 
L 2631 2963 
z
" transform="scale(0.015625)"/>
      <path id="DejaVuSans-61" d="M 2194 1759 
Q 1497 1759 1228 1600 
Q 959 1441 959 1056 
Q 959 750 1161 570 
Q 1363 391 1709 391 
Q 2188 391 2477 730 
Q 2766 1069 2766 1631 
L 2766 1759 
L 2194 1759 
z
M 3341 1997 
L 3341 0 
L 2766 0 
L 2766 531 
Q 2569 213 2275 61 
Q 1981 -91 1556 -91 
Q 1019 -91 701 211 
Q 384 513 384 1019 
Q 384 1609 779 1909 
Q 1175 2209 1959 2209 
L 2766 2209 
L 2766 2266 
Q 2766 2663 2505 2880 
Q 2244 3097 1772 3097 
Q 1472 3097 1187 3025 
Q 903 2953 641 2809 
L 641 3341 
Q 956 3463 1253 3523 
Q 1550 3584 1831 3584 
Q 2591 3584 2966 3190 
Q 3341 2797 3341 1997 
z
" transform="scale(0.015625)"/>
      <path id="DejaVuSans-6e" d="M 3513 2113 
L 3513 0 
L 2938 0 
L 2938 2094 
Q 2938 2591 2744 2837 
Q 2550 3084 2163 3084 
Q 1697 3084 1428 2787 
Q 1159 2491 1159 1978 
L 1159 0 
L 581 0 
L 581 3500 
L 1159 3500 
L 1159 2956 
Q 1366 3272 1645 3428 
Q 1925 3584 2291 3584 
Q 2894 3584 3203 3211 
Q 3513 2838 3513 2113 
z
" transform="scale(0.015625)"/>
      <path id="DejaVuSans-73" d="M 2834 3397 
L 2834 2853 
Q 2591 2978 2328 3040 
Q 2066 3103 1784 3103 
Q 1356 3103 1142 2972 
Q 928 2841 928 2578 
Q 928 2378 1081 2264 
Q 1234 2150 1697 2047 
L 1894 2003 
Q 2506 1872 2764 1633 
Q 3022 1394 3022 966 
Q 3022 478 2636 193 
Q 2250 -91 1575 -91 
Q 1294 -91 989 -36 
Q 684 19 347 128 
L 347 722 
Q 666 556 975 473 
Q 1284 391 1588 391 
Q 1994 391 2212 530 
Q 2431 669 2431 922 
Q 2431 1156 2273 1281 
Q 2116 1406 1581 1522 
L 1381 1569 
Q 847 1681 609 1914 
Q 372 2147 372 2553 
Q 372 3047 722 3315 
Q 1072 3584 1716 3584 
Q 2034 3584 2315 3537 
Q 2597 3491 2834 3397 
z
" transform="scale(0.015625)"/>
      <path id="DejaVuSans-66" d="M 2375 4863 
L 2375 4384 
L 1825 4384 
Q 1516 4384 1395 4259 
Q 1275 4134 1275 3809 
L 1275 3500 
L 2222 3500 
L 2222 3053 
L 1275 3053 
L 1275 0 
L 697 0 
L 697 3053 
L 147 3053 
L 147 3500 
L 697 3500 
L 697 3744 
Q 697 4328 969 4595 
Q 1241 4863 1831 4863 
L 2375 4863 
z
" transform="scale(0.015625)"/>
      <path id="DejaVuSans-6f" d="M 1959 3097 
Q 1497 3097 1228 2736 
Q 959 2375 959 1747 
Q 959 1119 1226 758 
Q 1494 397 1959 397 
Q 2419 397 2687 759 
Q 2956 1122 2956 1747 
Q 2956 2369 2687 2733 
Q 2419 3097 1959 3097 
z
M 1959 3584 
Q 2709 3584 3137 3096 
Q 3566 2609 3566 1747 
Q 3566 888 3137 398 
Q 2709 -91 1959 -91 
Q 1206 -91 779 398 
Q 353 888 353 1747 
Q 353 2609 779 3096 
Q 1206 3584 1959 3584 
z
" transform="scale(0.015625)"/>
      <path id="DejaVuSans-6d" d="M 3328 2828 
Q 3544 3216 3844 3400 
Q 4144 3584 4550 3584 
Q 5097 3584 5394 3201 
Q 5691 2819 5691 2113 
L 5691 0 
L 5113 0 
L 5113 2094 
Q 5113 2597 4934 2840 
Q 4756 3084 4391 3084 
Q 3944 3084 3684 2787 
Q 3425 2491 3425 1978 
L 3425 0 
L 2847 0 
L 2847 2094 
Q 2847 2600 2669 2842 
Q 2491 3084 2119 3084 
Q 1678 3084 1418 2786 
Q 1159 2488 1159 1978 
L 1159 0 
L 581 0 
L 581 3500 
L 1159 3500 
L 1159 2956 
Q 1356 3278 1631 3431 
Q 1906 3584 2284 3584 
Q 2666 3584 2933 3390 
Q 3200 3197 3328 2828 
z
" transform="scale(0.015625)"/>
      <path id="DejaVuSans-69" d="M 603 3500 
L 1178 3500 
L 1178 0 
L 603 0 
L 603 3500 
z
M 603 4863 
L 1178 4863 
L 1178 4134 
L 603 4134 
L 603 4863 
z
" transform="scale(0.015625)"/>
      <path id="DejaVuSans-28" d="M 1984 4856 
Q 1566 4138 1362 3434 
Q 1159 2731 1159 2009 
Q 1159 1288 1364 580 
Q 1569 -128 1984 -844 
L 1484 -844 
Q 1016 -109 783 600 
Q 550 1309 550 2009 
Q 550 2706 781 3412 
Q 1013 4119 1484 4856 
L 1984 4856 
z
" transform="scale(0.015625)"/>
      <path id="DejaVuSans-29" d="M 513 4856 
L 1013 4856 
Q 1481 4119 1714 3412 
Q 1947 2706 1947 2009 
Q 1947 1309 1714 600 
Q 1481 -109 1013 -844 
L 513 -844 
Q 928 -128 1133 580 
Q 1338 1288 1338 2009 
Q 1338 2731 1133 3434 
Q 928 4138 513 4856 
z
" transform="scale(0.015625)"/>
     </defs>
     <use xlink:href="#DejaVuSans-31"/>
     <use xlink:href="#DejaVuSans-20" x="63.623047"/>
     <use xlink:href="#DejaVuSans-74" x="95.410156"/>
     <use xlink:href="#DejaVuSans-72" x="134.619141"/>
     <use xlink:href="#DejaVuSans-61" x="175.732422"/>
     <use xlink:href="#DejaVuSans-6e" x="237.011719"/>
     <use xlink:href="#DejaVuSans-73" x="300.390625"/>
     <use xlink:href="#DejaVuSans-66" x="352.490234"/>
     <use xlink:href="#DejaVuSans-6f" x="387.695312"/>
     <use xlink:href="#DejaVuSans-72" x="448.876953"/>
     <use xlink:href="#DejaVuSans-6d" x="488.240234"/>
     <use xlink:href="#DejaVuSans-61" x="585.652344"/>
     <use xlink:href="#DejaVuSans-74" x="646.931641"/>
     <use xlink:href="#DejaVuSans-69" x="686.140625"/>
     <use xlink:href="#DejaVuSans-6f" x="713.923828"/>
     <use xlink:href="#DejaVuSans-6e" x="775.105469"/>
     <use xlink:href="#DejaVuSans-28" x="838.484375"/>
     <use xlink:href="#DejaVuSans-73" x="877.498047"/>
     <use xlink:href="#DejaVuSans-29" x="929.597656"/>
    </g>
   </g>
   <g id="legend_1">
    <g id="patch_7">
     <path d="M 334.440149 80.79625 
L 415.833899 80.79625 
Q 417.833899 80.79625 417.833899 78.79625 
L 417.833899 50.44 
Q 417.833899 48.44 415.833899 48.44 
L 334.440149 48.44 
Q 332.440149 48.44 332.440149 50.44 
L 332.440149 78.79625 
Q 332.440149 80.79625 334.440149 80.79625 
z
" style="fill: #ffffff; opacity: 0.8; stroke: #cccccc; stroke-linejoin: miter"/>
    </g>
    <g id="line2d_19">
     <path d="M 336.440149 56.538437 
L 346.440149 56.538437 
L 356.440149 56.538437 
" style="fill: none; stroke: #1f77b4; stroke-width: 1.5; stroke-linecap: square"/>
    </g>
    <g id="text_18">
     <!-- observed -->
     <g transform="translate(364.440149 60.038437) scale(0.1 -0.1)">
      <defs>
       <path id="DejaVuSans-62" d="M 3116 1747 
Q 3116 2381 2855 2742 
Q 2594 3103 2138 3103 
Q 1681 3103 1420 2742 
Q 1159 2381 1159 1747 
Q 1159 1113 1420 752 
Q 1681 391 2138 391 
Q 2594 391 2855 752 
Q 3116 1113 3116 1747 
z
M 1159 2969 
Q 1341 3281 1617 3432 
Q 1894 3584 2278 3584 
Q 2916 3584 3314 3078 
Q 3713 2572 3713 1747 
Q 3713 922 3314 415 
Q 2916 -91 2278 -91 
Q 1894 -91 1617 61 
Q 1341 213 1159 525 
L 1159 0 
L 581 0 
L 581 4863 
L 1159 4863 
L 1159 2969 
z
" transform="scale(0.015625)"/>
       <path id="DejaVuSans-65" d="M 3597 1894 
L 3597 1613 
L 953 1613 
Q 991 1019 1311 708 
Q 1631 397 2203 397 
Q 2534 397 2845 478 
Q 3156 559 3463 722 
L 3463 178 
Q 3153 47 2828 -22 
Q 2503 -91 2169 -91 
Q 1331 -91 842 396 
Q 353 884 353 1716 
Q 353 2575 817 3079 
Q 1281 3584 2069 3584 
Q 2775 3584 3186 3129 
Q 3597 2675 3597 1894 
z
M 3022 2063 
Q 3016 2534 2758 2815 
Q 2500 3097 2075 3097 
Q 1594 3097 1305 2825 
Q 1016 2553 972 2059 
L 3022 2063 
z
" transform="scale(0.015625)"/>
       <path id="DejaVuSans-76" d="M 191 3500 
L 800 3500 
L 1894 563 
L 2988 3500 
L 3597 3500 
L 2284 0 
L 1503 0 
L 191 3500 
z
" transform="scale(0.015625)"/>
       <path id="DejaVuSans-64" d="M 2906 2969 
L 2906 4863 
L 3481 4863 
L 3481 0 
L 2906 0 
L 2906 525 
Q 2725 213 2448 61 
Q 2172 -91 1784 -91 
Q 1150 -91 751 415 
Q 353 922 353 1747 
Q 353 2572 751 3078 
Q 1150 3584 1784 3584 
Q 2172 3584 2448 3432 
Q 2725 3281 2906 2969 
z
M 947 1747 
Q 947 1113 1208 752 
Q 1469 391 1925 391 
Q 2381 391 2643 752 
Q 2906 1113 2906 1747 
Q 2906 2381 2643 2742 
Q 2381 3103 1925 3103 
Q 1469 3103 1208 2742 
Q 947 2381 947 1747 
z
" transform="scale(0.015625)"/>
      </defs>
      <use xlink:href="#DejaVuSans-6f"/>
      <use xlink:href="#DejaVuSans-62" x="61.181641"/>
      <use xlink:href="#DejaVuSans-73" x="124.658203"/>
      <use xlink:href="#DejaVuSans-65" x="176.757812"/>
      <use xlink:href="#DejaVuSans-72" x="238.28125"/>
      <use xlink:href="#DejaVuSans-76" x="279.394531"/>
      <use xlink:href="#DejaVuSans-65" x="338.574219"/>
      <use xlink:href="#DejaVuSans-64" x="400.097656"/>
     </g>
    </g>
    <g id="line2d_20">
     <path d="M 336.440149 71.216563 
L 346.440149 71.216563 
L 356.440149 71.216563 
" style="fill: none; stroke: #ff7f0e; stroke-width: 1.5; stroke-linecap: square"/>
    </g>
    <g id="text_19">
     <!-- simulated -->
     <g transform="translate(364.440149 74.716563) scale(0.1 -0.1)">
      <defs>
       <path id="DejaVuSans-75" d="M 544 1381 
L 544 3500 
L 1119 3500 
L 1119 1403 
Q 1119 906 1312 657 
Q 1506 409 1894 409 
Q 2359 409 2629 706 
Q 2900 1003 2900 1516 
L 2900 3500 
L 3475 3500 
L 3475 0 
L 2900 0 
L 2900 538 
Q 2691 219 2414 64 
Q 2138 -91 1772 -91 
Q 1169 -91 856 284 
Q 544 659 544 1381 
z
M 1991 3584 
L 1991 3584 
z
" transform="scale(0.015625)"/>
       <path id="DejaVuSans-6c" d="M 603 4863 
L 1178 4863 
L 1178 0 
L 603 0 
L 603 4863 
z
" transform="scale(0.015625)"/>
      </defs>
      <use xlink:href="#DejaVuSans-73"/>
      <use xlink:href="#DejaVuSans-69" x="52.099609"/>
      <use xlink:href="#DejaVuSans-6d" x="79.882812"/>
      <use xlink:href="#DejaVuSans-75" x="177.294922"/>
      <use xlink:href="#DejaVuSans-6c" x="240.673828"/>
      <use xlink:href="#DejaVuSans-61" x="268.457031"/>
      <use xlink:href="#DejaVuSans-74" x="329.736328"/>
      <use xlink:href="#DejaVuSans-65" x="368.945312"/>
      <use xlink:href="#DejaVuSans-64" x="430.46875"/>
     </g>
    </g>
   </g>
  </g>
  <g id="axes_2">
   <g id="patch_8">
    <path d="M 46.0125 684.92 
L 704.261548 684.92 
L 704.261548 386.16 
L 46.0125 386.16 
z
" style="fill: #ffffff"/>
   </g>
   <g id="matplotlib.axis_3">
    <g id="xtick_11">
     <g id="line2d_21">
      <g>
       <use xlink:href="#m4c1cfcb4c5" x="92.413722" y="684.92" style="stroke: #000000; stroke-width: 0.8"/>
      </g>
     </g>
     <g id="text_20">
      <!-- 2000 -->
      <g transform="translate(79.688722 699.518437) scale(0.1 -0.1)">
       <use xlink:href="#DejaVuSans-32"/>
       <use xlink:href="#DejaVuSans-30" x="63.623047"/>
       <use xlink:href="#DejaVuSans-30" x="127.246094"/>
       <use xlink:href="#DejaVuSans-30" x="190.869141"/>
      </g>
     </g>
    </g>
    <g id="xtick_12">
     <g id="line2d_22">
      <g>
       <use xlink:href="#m4c1cfcb4c5" x="159.065399" y="684.92" style="stroke: #000000; stroke-width: 0.8"/>
      </g>
     </g>
     <g id="text_21">
      <!-- 2001 -->
      <g transform="translate(146.340399 699.518437) scale(0.1 -0.1)">
       <use xlink:href="#DejaVuSans-32"/>
       <use xlink:href="#DejaVuSans-30" x="63.623047"/>
       <use xlink:href="#DejaVuSans-30" x="127.246094"/>
       <use xlink:href="#DejaVuSans-31" x="190.869141"/>
      </g>
     </g>
    </g>
    <g id="xtick_13">
     <g id="line2d_23">
      <g>
       <use xlink:href="#m4c1cfcb4c5" x="225.534968" y="684.92" style="stroke: #000000; stroke-width: 0.8"/>
      </g>
     </g>
     <g id="text_22">
      <!-- 2002 -->
      <g transform="translate(212.809968 699.518437) scale(0.1 -0.1)">
       <use xlink:href="#DejaVuSans-32"/>
       <use xlink:href="#DejaVuSans-30" x="63.623047"/>
       <use xlink:href="#DejaVuSans-30" x="127.246094"/>
       <use xlink:href="#DejaVuSans-32" x="190.869141"/>
      </g>
     </g>
    </g>
    <g id="xtick_14">
     <g id="line2d_24">
      <g>
       <use xlink:href="#m4c1cfcb4c5" x="292.004536" y="684.92" style="stroke: #000000; stroke-width: 0.8"/>
      </g>
     </g>
     <g id="text_23">
      <!-- 2003 -->
      <g transform="translate(279.279536 699.518437) scale(0.1 -0.1)">
       <use xlink:href="#DejaVuSans-32"/>
       <use xlink:href="#DejaVuSans-30" x="63.623047"/>
       <use xlink:href="#DejaVuSans-30" x="127.246094"/>
       <use xlink:href="#DejaVuSans-33" x="190.869141"/>
      </g>
     </g>
    </g>
    <g id="xtick_15">
     <g id="line2d_25">
      <g>
       <use xlink:href="#m4c1cfcb4c5" x="358.474105" y="684.92" style="stroke: #000000; stroke-width: 0.8"/>
      </g>
     </g>
     <g id="text_24">
      <!-- 2004 -->
      <g transform="translate(345.749105 699.518437) scale(0.1 -0.1)">
       <use xlink:href="#DejaVuSans-32"/>
       <use xlink:href="#DejaVuSans-30" x="63.623047"/>
       <use xlink:href="#DejaVuSans-30" x="127.246094"/>
       <use xlink:href="#DejaVuSans-34" x="190.869141"/>
      </g>
     </g>
    </g>
    <g id="xtick_16">
     <g id="line2d_26">
      <g>
       <use xlink:href="#m4c1cfcb4c5" x="425.125782" y="684.92" style="stroke: #000000; stroke-width: 0.8"/>
      </g>
     </g>
     <g id="text_25">
      <!-- 2005 -->
      <g transform="translate(412.400782 699.518437) scale(0.1 -0.1)">
       <use xlink:href="#DejaVuSans-32"/>
       <use xlink:href="#DejaVuSans-30" x="63.623047"/>
       <use xlink:href="#DejaVuSans-30" x="127.246094"/>
       <use xlink:href="#DejaVuSans-35" x="190.869141"/>
      </g>
     </g>
    </g>
    <g id="xtick_17">
     <g id="line2d_27">
      <g>
       <use xlink:href="#m4c1cfcb4c5" x="491.59535" y="684.92" style="stroke: #000000; stroke-width: 0.8"/>
      </g>
     </g>
     <g id="text_26">
      <!-- 2006 -->
      <g transform="translate(478.87035 699.518437) scale(0.1 -0.1)">
       <use xlink:href="#DejaVuSans-32"/>
       <use xlink:href="#DejaVuSans-30" x="63.623047"/>
       <use xlink:href="#DejaVuSans-30" x="127.246094"/>
       <use xlink:href="#DejaVuSans-36" x="190.869141"/>
      </g>
     </g>
    </g>
    <g id="xtick_18">
     <g id="line2d_28">
      <g>
       <use xlink:href="#m4c1cfcb4c5" x="558.064919" y="684.92" style="stroke: #000000; stroke-width: 0.8"/>
      </g>
     </g>
     <g id="text_27">
      <!-- 2007 -->
      <g transform="translate(545.339919 699.518437) scale(0.1 -0.1)">
       <use xlink:href="#DejaVuSans-32"/>
       <use xlink:href="#DejaVuSans-30" x="63.623047"/>
       <use xlink:href="#DejaVuSans-30" x="127.246094"/>
       <use xlink:href="#DejaVuSans-37" x="190.869141"/>
      </g>
     </g>
    </g>
    <g id="xtick_19">
     <g id="line2d_29">
      <g>
       <use xlink:href="#m4c1cfcb4c5" x="624.534487" y="684.92" style="stroke: #000000; stroke-width: 0.8"/>
      </g>
     </g>
     <g id="text_28">
      <!-- 2008 -->
      <g transform="translate(611.809487 699.518437) scale(0.1 -0.1)">
       <use xlink:href="#DejaVuSans-32"/>
       <use xlink:href="#DejaVuSans-30" x="63.623047"/>
       <use xlink:href="#DejaVuSans-30" x="127.246094"/>
       <use xlink:href="#DejaVuSans-38" x="190.869141"/>
      </g>
     </g>
    </g>
    <g id="xtick_20">
     <g id="line2d_30">
      <g>
       <use xlink:href="#m4c1cfcb4c5" x="691.186164" y="684.92" style="stroke: #000000; stroke-width: 0.8"/>
      </g>
     </g>
     <g id="text_29">
      <!-- 2009 -->
      <g transform="translate(678.461164 699.518437) scale(0.1 -0.1)">
       <use xlink:href="#DejaVuSans-32"/>
       <use xlink:href="#DejaVuSans-30" x="63.623047"/>
       <use xlink:href="#DejaVuSans-30" x="127.246094"/>
       <use xlink:href="#DejaVuSans-39" x="190.869141"/>
      </g>
     </g>
    </g>
   </g>
   <g id="matplotlib.axis_4">
    <g id="ytick_7">
     <g id="line2d_31">
      <g>
       <use xlink:href="#m778402a676" x="46.0125" y="671.339664" style="stroke: #000000; stroke-width: 0.8"/>
      </g>
     </g>
     <g id="text_30">
      <!-- 0 -->
      <g transform="translate(32.65 675.138883) scale(0.1 -0.1)">
       <use xlink:href="#DejaVuSans-30"/>
      </g>
     </g>
    </g>
    <g id="ytick_8">
     <g id="line2d_32">
      <g>
       <use xlink:href="#m778402a676" x="46.0125" y="614.217142" style="stroke: #000000; stroke-width: 0.8"/>
      </g>
     </g>
     <g id="text_31">
      <!-- 5000 -->
      <g transform="translate(13.5625 618.01636) scale(0.1 -0.1)">
       <use xlink:href="#DejaVuSans-35"/>
       <use xlink:href="#DejaVuSans-30" x="63.623047"/>
       <use xlink:href="#DejaVuSans-30" x="127.246094"/>
       <use xlink:href="#DejaVuSans-30" x="190.869141"/>
      </g>
     </g>
    </g>
    <g id="ytick_9">
     <g id="line2d_33">
      <g>
       <use xlink:href="#m778402a676" x="46.0125" y="557.094619" style="stroke: #000000; stroke-width: 0.8"/>
      </g>
     </g>
     <g id="text_32">
      <!-- 10000 -->
      <g transform="translate(7.2 560.893837) scale(0.1 -0.1)">
       <use xlink:href="#DejaVuSans-31"/>
       <use xlink:href="#DejaVuSans-30" x="63.623047"/>
       <use xlink:href="#DejaVuSans-30" x="127.246094"/>
       <use xlink:href="#DejaVuSans-30" x="190.869141"/>
       <use xlink:href="#DejaVuSans-30" x="254.492188"/>
      </g>
     </g>
    </g>
    <g id="ytick_10">
     <g id="line2d_34">
      <g>
       <use xlink:href="#m778402a676" x="46.0125" y="499.972096" style="stroke: #000000; stroke-width: 0.8"/>
      </g>
     </g>
     <g id="text_33">
      <!-- 15000 -->
      <g transform="translate(7.2 503.771314) scale(0.1 -0.1)">
       <use xlink:href="#DejaVuSans-31"/>
       <use xlink:href="#DejaVuSans-35" x="63.623047"/>
       <use xlink:href="#DejaVuSans-30" x="127.246094"/>
       <use xlink:href="#DejaVuSans-30" x="190.869141"/>
       <use xlink:href="#DejaVuSans-30" x="254.492188"/>
      </g>
     </g>
    </g>
    <g id="ytick_11">
     <g id="line2d_35">
      <g>
       <use xlink:href="#m778402a676" x="46.0125" y="442.849573" style="stroke: #000000; stroke-width: 0.8"/>
      </g>
     </g>
     <g id="text_34">
      <!-- 20000 -->
      <g transform="translate(7.2 446.648792) scale(0.1 -0.1)">
       <use xlink:href="#DejaVuSans-32"/>
       <use xlink:href="#DejaVuSans-30" x="63.623047"/>
       <use xlink:href="#DejaVuSans-30" x="127.246094"/>
       <use xlink:href="#DejaVuSans-30" x="190.869141"/>
       <use xlink:href="#DejaVuSans-30" x="254.492188"/>
      </g>
     </g>
    </g>
   </g>
   <g id="line2d_36">
    <path d="M 75.932911 671.339662 
L 674.341137 671.339664 
L 674.341137 671.339664 
" clip-path="url(#pf3461a7835)" style="fill: none; stroke: #1f77b4; stroke-width: 1.5; stroke-linecap: square"/>
   </g>
   <g id="line2d_37">
    <path d="M 75.932911 671.339662 
L 193.757051 671.24109 
L 227.629214 671.031886 
L 249.482223 670.697909 
L 269.514148 670.083345 
L 281.533303 669.460696 
L 291.367157 668.731155 
L 299.744144 667.893701 
L 307.210588 666.927084 
L 313.948599 665.829519 
L 319.958177 664.627574 
L 325.421429 663.315779 
L 330.520464 661.868815 
L 335.255283 660.302202 
L 339.807993 658.56424 
L 344.178595 656.653039 
L 348.367088 654.570506 
L 352.373473 652.32348 
L 356.19775 649.922212 
L 360.022026 647.246519 
L 363.664194 644.421579 
L 367.306363 641.305815 
L 370.766422 638.057403 
L 374.226482 634.51085 
L 377.686542 630.651577 
L 381.146601 626.465105 
L 384.606661 621.940246 
L 388.248829 616.800147 
L 392.073106 610.986689 
L 395.897382 604.741931 
L 399.721659 598.074507 
L 403.728044 590.654897 
L 408.644971 580.983422 
L 413.561898 570.763927 
L 419.207259 558.486655 
L 426.673703 541.671747 
L 440.878159 509.591543 
L 446.52352 497.43609 
L 451.440447 487.358066 
L 455.993157 478.534437 
L 460.18165 470.897242 
L 464.188035 464.054171 
L 468.012312 457.957351 
L 471.65448 452.551704 
L 475.296648 447.53471 
L 478.938816 442.899381 
L 482.580984 438.635196 
L 486.223152 434.727023 
L 489.86532 431.157506 
L 493.507489 427.908428 
L 497.149657 424.958779 
L 500.791825 422.288982 
L 504.616101 419.76378 
L 508.622486 417.396582 
L 513.175197 415.025238 
L 517.545798 413.031188 
L 521.9164 411.284577 
L 526.46911 409.697865 
L 531.386037 408.218885 
L 536.667181 406.865355 
L 542.312542 405.649315 
L 548.504228 404.546069 
L 555.424347 403.548715 
L 563.0729 402.679179 
L 571.631995 401.933057 
L 582.194283 401.257451 
L 593.667112 400.750919 
L 607.68946 400.344992 
L 626.264517 400.030832 
L 651.395477 399.815137 
L 655.401862 399.805517 
L 674.341137 399.740798 
L 674.341137 399.740798 
" clip-path="url(#pf3461a7835)" style="fill: none; stroke: #ff7f0e; stroke-width: 1.5; stroke-linecap: square"/>
   </g>
   <g id="patch_9">
    <path d="M 46.0125 684.92 
L 46.0125 386.16 
" style="fill: none; stroke: #000000; stroke-width: 0.8; stroke-linejoin: miter; stroke-linecap: square"/>
   </g>
   <g id="patch_10">
    <path d="M 704.261548 684.92 
L 704.261548 386.16 
" style="fill: none; stroke: #000000; stroke-width: 0.8; stroke-linejoin: miter; stroke-linecap: square"/>
   </g>
   <g id="patch_11">
    <path d="M 46.0125 684.92 
L 704.261548 684.92 
" style="fill: none; stroke: #000000; stroke-width: 0.8; stroke-linejoin: miter; stroke-linecap: square"/>
   </g>
   <g id="patch_12">
    <path d="M 46.0125 386.16 
L 704.261548 386.16 
" style="fill: none; stroke: #000000; stroke-width: 0.8; stroke-linejoin: miter; stroke-linecap: square"/>
   </g>
   <g id="text_35">
    <!-- 2 transformation(s) -->
    <g transform="translate(317.022337 380.16) scale(0.12 -0.12)">
     <use xlink:href="#DejaVuSans-32"/>
     <use xlink:href="#DejaVuSans-20" x="63.623047"/>
     <use xlink:href="#DejaVuSans-74" x="95.410156"/>
     <use xlink:href="#DejaVuSans-72" x="134.619141"/>
     <use xlink:href="#DejaVuSans-61" x="175.732422"/>
     <use xlink:href="#DejaVuSans-6e" x="237.011719"/>
     <use xlink:href="#DejaVuSans-73" x="300.390625"/>
     <use xlink:href="#DejaVuSans-66" x="352.490234"/>
     <use xlink:href="#DejaVuSans-6f" x="387.695312"/>
     <use xlink:href="#DejaVuSans-72" x="448.876953"/>
     <use xlink:href="#DejaVuSans-6d" x="488.240234"/>
     <use xlink:href="#DejaVuSans-61" x="585.652344"/>
     <use xlink:href="#DejaVuSans-74" x="646.931641"/>
     <use xlink:href="#DejaVuSans-69" x="686.140625"/>
     <use xlink:href="#DejaVuSans-6f" x="713.923828"/>
     <use xlink:href="#DejaVuSans-6e" x="775.105469"/>
     <use xlink:href="#DejaVuSans-28" x="838.484375"/>
     <use xlink:href="#DejaVuSans-73" x="877.498047"/>
     <use xlink:href="#DejaVuSans-29" x="929.597656"/>
    </g>
   </g>
  </g>
  <g id="text_36">
   <!-- training -->
   <g transform="translate(333.379063 16.318125) scale(0.12 -0.12)">
    <defs>
     <path id="DejaVuSans-67" d="M 2906 1791 
Q 2906 2416 2648 2759 
Q 2391 3103 1925 3103 
Q 1463 3103 1205 2759 
Q 947 2416 947 1791 
Q 947 1169 1205 825 
Q 1463 481 1925 481 
Q 2391 481 2648 825 
Q 2906 1169 2906 1791 
z
M 3481 434 
Q 3481 -459 3084 -895 
Q 2688 -1331 1869 -1331 
Q 1566 -1331 1297 -1286 
Q 1028 -1241 775 -1147 
L 775 -588 
Q 1028 -725 1275 -790 
Q 1522 -856 1778 -856 
Q 2344 -856 2625 -561 
Q 2906 -266 2906 331 
L 2906 616 
Q 2728 306 2450 153 
Q 2172 0 1784 0 
Q 1141 0 747 490 
Q 353 981 353 1791 
Q 353 2603 747 3093 
Q 1141 3584 1784 3584 
Q 2172 3584 2450 3431 
Q 2728 3278 2906 2969 
L 2906 3500 
L 3481 3500 
L 3481 434 
z
" transform="scale(0.015625)"/>
    </defs>
    <use xlink:href="#DejaVuSans-74"/>
    <use xlink:href="#DejaVuSans-72" x="39.208984"/>
    <use xlink:href="#DejaVuSans-61" x="80.322266"/>
    <use xlink:href="#DejaVuSans-69" x="141.601562"/>
    <use xlink:href="#DejaVuSans-6e" x="169.384766"/>
    <use xlink:href="#DejaVuSans-69" x="232.763672"/>
    <use xlink:href="#DejaVuSans-6e" x="260.546875"/>
    <use xlink:href="#DejaVuSans-67" x="323.925781"/>
   </g>
  </g>
 </g>
 <defs>
  <clipPath id="p75e35a558e">
   <rect x="46.0125" y="43.44" width="658.249048" height="298.76"/>
  </clipPath>
  <clipPath id="pf3461a7835">
   <rect x="46.0125" y="386.16" width="658.249048" height="298.76"/>
  </clipPath>
 </defs>
</svg>
