<?xml version="1.0" encoding="utf-8" standalone="no"?>
<!DOCTYPE svg PUBLIC "-//W3C//DTD SVG 1.1//EN"
  "http://www.w3.org/Graphics/SVG/1.1/DTD/svg11.dtd">
<svg xmlns:xlink="http://www.w3.org/1999/xlink" width="709.426761pt" height="708.798125pt" viewBox="0 0 709.426761 708.798125" xmlns="http://www.w3.org/2000/svg" version="1.1">
 <metadata>
  <rdf:RDF xmlns:dc="http://purl.org/dc/elements/1.1/" xmlns:cc="http://creativecommons.org/ns#" xmlns:rdf="http://www.w3.org/1999/02/22-rdf-syntax-ns#">
   <cc:Work>
    <dc:type rdf:resource="http://purl.org/dc/dcmitype/StillImage"/>
    <dc:date>2023-06-17T00:45:10.107144</dc:date>
    <dc:format>image/svg+xml</dc:format>
    <dc:creator>
     <cc:Agent>
      <dc:title>Matplotlib v3.7.1, https://matplotlib.org/</dc:title>
     </cc:Agent>
    </dc:creator>
   </cc:Work>
  </rdf:RDF>
 </metadata>
 <defs>
  <style type="text/css">*{stroke-linejoin: round; stroke-linecap: butt}</style>
 </defs>
 <g id="figure_1">
  <g id="patch_1">
   <path d="M 0 708.798125 
L 709.426761 708.798125 
L 709.426761 0 
L 0 0 
z
" style="fill: #ffffff"/>
  </g>
  <g id="axes_1">
   <g id="patch_2">
    <path d="M 30.103125 342.2 
L 702.226761 342.2 
L 702.226761 43.44 
L 30.103125 43.44 
z
" style="fill: #ffffff"/>
   </g>
   <g id="matplotlib.axis_1">
    <g id="xtick_1">
     <g id="line2d_1">
      <defs>
       <path id="mf3e884d9f4" d="M 0 0 
L 0 3.5 
" style="stroke: #000000; stroke-width: 0.8"/>
      </defs>
      <g>
       <use xlink:href="#mf3e884d9f4" x="60.484424" y="342.2" style="stroke: #000000; stroke-width: 0.8"/>
      </g>
     </g>
     <g id="text_1">
      <!-- 2014-07-01 -->
      <g transform="translate(31.426612 356.798437) scale(0.1 -0.1)">
       <defs>
        <path id="DejaVuSans-32" d="M 1228 531 
L 3431 531 
L 3431 0 
L 469 0 
L 469 531 
Q 828 903 1448 1529 
Q 2069 2156 2228 2338 
Q 2531 2678 2651 2914 
Q 2772 3150 2772 3378 
Q 2772 3750 2511 3984 
Q 2250 4219 1831 4219 
Q 1534 4219 1204 4116 
Q 875 4013 500 3803 
L 500 4441 
Q 881 4594 1212 4672 
Q 1544 4750 1819 4750 
Q 2544 4750 2975 4387 
Q 3406 4025 3406 3419 
Q 3406 3131 3298 2873 
Q 3191 2616 2906 2266 
Q 2828 2175 2409 1742 
Q 1991 1309 1228 531 
z
" transform="scale(0.015625)"/>
        <path id="DejaVuSans-30" d="M 2034 4250 
Q 1547 4250 1301 3770 
Q 1056 3291 1056 2328 
Q 1056 1369 1301 889 
Q 1547 409 2034 409 
Q 2525 409 2770 889 
Q 3016 1369 3016 2328 
Q 3016 3291 2770 3770 
Q 2525 4250 2034 4250 
z
M 2034 4750 
Q 2819 4750 3233 4129 
Q 3647 3509 3647 2328 
Q 3647 1150 3233 529 
Q 2819 -91 2034 -91 
Q 1250 -91 836 529 
Q 422 1150 422 2328 
Q 422 3509 836 4129 
Q 1250 4750 2034 4750 
z
" transform="scale(0.015625)"/>
        <path id="DejaVuSans-31" d="M 794 531 
L 1825 531 
L 1825 4091 
L 703 3866 
L 703 4441 
L 1819 4666 
L 2450 4666 
L 2450 531 
L 3481 531 
L 3481 0 
L 794 0 
L 794 531 
z
" transform="scale(0.015625)"/>
        <path id="DejaVuSans-34" d="M 2419 4116 
L 825 1625 
L 2419 1625 
L 2419 4116 
z
M 2253 4666 
L 3047 4666 
L 3047 1625 
L 3713 1625 
L 3713 1100 
L 3047 1100 
L 3047 0 
L 2419 0 
L 2419 1100 
L 313 1100 
L 313 1709 
L 2253 4666 
z
" transform="scale(0.015625)"/>
        <path id="DejaVuSans-2d" d="M 313 2009 
L 1997 2009 
L 1997 1497 
L 313 1497 
L 313 2009 
z
" transform="scale(0.015625)"/>
        <path id="DejaVuSans-37" d="M 525 4666 
L 3525 4666 
L 3525 4397 
L 1831 0 
L 1172 0 
L 2766 4134 
L 525 4134 
L 525 4666 
z
" transform="scale(0.015625)"/>
       </defs>
       <use xlink:href="#DejaVuSans-32"/>
       <use xlink:href="#DejaVuSans-30" x="63.623047"/>
       <use xlink:href="#DejaVuSans-31" x="127.246094"/>
       <use xlink:href="#DejaVuSans-34" x="190.869141"/>
       <use xlink:href="#DejaVuSans-2d" x="254.492188"/>
       <use xlink:href="#DejaVuSans-30" x="290.576172"/>
       <use xlink:href="#DejaVuSans-37" x="354.199219"/>
       <use xlink:href="#DejaVuSans-2d" x="417.822266"/>
       <use xlink:href="#DejaVuSans-30" x="453.90625"/>
       <use xlink:href="#DejaVuSans-31" x="517.529297"/>
      </g>
     </g>
    </g>
    <g id="xtick_2">
     <g id="line2d_2">
      <g>
       <use xlink:href="#mf3e884d9f4" x="182.722677" y="342.2" style="stroke: #000000; stroke-width: 0.8"/>
      </g>
     </g>
     <g id="text_2">
      <!-- 2014-07-02 -->
      <g transform="translate(153.664864 356.798437) scale(0.1 -0.1)">
       <use xlink:href="#DejaVuSans-32"/>
       <use xlink:href="#DejaVuSans-30" x="63.623047"/>
       <use xlink:href="#DejaVuSans-31" x="127.246094"/>
       <use xlink:href="#DejaVuSans-34" x="190.869141"/>
       <use xlink:href="#DejaVuSans-2d" x="254.492188"/>
       <use xlink:href="#DejaVuSans-30" x="290.576172"/>
       <use xlink:href="#DejaVuSans-37" x="354.199219"/>
       <use xlink:href="#DejaVuSans-2d" x="417.822266"/>
       <use xlink:href="#DejaVuSans-30" x="453.90625"/>
       <use xlink:href="#DejaVuSans-32" x="517.529297"/>
      </g>
     </g>
    </g>
    <g id="xtick_3">
     <g id="line2d_3">
      <g>
       <use xlink:href="#mf3e884d9f4" x="304.960929" y="342.2" style="stroke: #000000; stroke-width: 0.8"/>
      </g>
     </g>
     <g id="text_3">
      <!-- 2014-07-03 -->
      <g transform="translate(275.903117 356.798437) scale(0.1 -0.1)">
       <defs>
        <path id="DejaVuSans-33" d="M 2597 2516 
Q 3050 2419 3304 2112 
Q 3559 1806 3559 1356 
Q 3559 666 3084 287 
Q 2609 -91 1734 -91 
Q 1441 -91 1130 -33 
Q 819 25 488 141 
L 488 750 
Q 750 597 1062 519 
Q 1375 441 1716 441 
Q 2309 441 2620 675 
Q 2931 909 2931 1356 
Q 2931 1769 2642 2001 
Q 2353 2234 1838 2234 
L 1294 2234 
L 1294 2753 
L 1863 2753 
Q 2328 2753 2575 2939 
Q 2822 3125 2822 3475 
Q 2822 3834 2567 4026 
Q 2313 4219 1838 4219 
Q 1578 4219 1281 4162 
Q 984 4106 628 3988 
L 628 4550 
Q 988 4650 1302 4700 
Q 1616 4750 1894 4750 
Q 2613 4750 3031 4423 
Q 3450 4097 3450 3541 
Q 3450 3153 3228 2886 
Q 3006 2619 2597 2516 
z
" transform="scale(0.015625)"/>
       </defs>
       <use xlink:href="#DejaVuSans-32"/>
       <use xlink:href="#DejaVuSans-30" x="63.623047"/>
       <use xlink:href="#DejaVuSans-31" x="127.246094"/>
       <use xlink:href="#DejaVuSans-34" x="190.869141"/>
       <use xlink:href="#DejaVuSans-2d" x="254.492188"/>
       <use xlink:href="#DejaVuSans-30" x="290.576172"/>
       <use xlink:href="#DejaVuSans-37" x="354.199219"/>
       <use xlink:href="#DejaVuSans-2d" x="417.822266"/>
       <use xlink:href="#DejaVuSans-30" x="453.90625"/>
       <use xlink:href="#DejaVuSans-33" x="517.529297"/>
      </g>
     </g>
    </g>
    <g id="xtick_4">
     <g id="line2d_4">
      <g>
       <use xlink:href="#mf3e884d9f4" x="427.199182" y="342.2" style="stroke: #000000; stroke-width: 0.8"/>
      </g>
     </g>
     <g id="text_4">
      <!-- 2014-07-04 -->
      <g transform="translate(398.141369 356.798437) scale(0.1 -0.1)">
       <use xlink:href="#DejaVuSans-32"/>
       <use xlink:href="#DejaVuSans-30" x="63.623047"/>
       <use xlink:href="#DejaVuSans-31" x="127.246094"/>
       <use xlink:href="#DejaVuSans-34" x="190.869141"/>
       <use xlink:href="#DejaVuSans-2d" x="254.492188"/>
       <use xlink:href="#DejaVuSans-30" x="290.576172"/>
       <use xlink:href="#DejaVuSans-37" x="354.199219"/>
       <use xlink:href="#DejaVuSans-2d" x="417.822266"/>
       <use xlink:href="#DejaVuSans-30" x="453.90625"/>
       <use xlink:href="#DejaVuSans-34" x="517.529297"/>
      </g>
     </g>
    </g>
    <g id="xtick_5">
     <g id="line2d_5">
      <g>
       <use xlink:href="#mf3e884d9f4" x="549.437434" y="342.2" style="stroke: #000000; stroke-width: 0.8"/>
      </g>
     </g>
     <g id="text_5">
      <!-- 2014-07-05 -->
      <g transform="translate(520.379622 356.798437) scale(0.1 -0.1)">
       <defs>
        <path id="DejaVuSans-35" d="M 691 4666 
L 3169 4666 
L 3169 4134 
L 1269 4134 
L 1269 2991 
Q 1406 3038 1543 3061 
Q 1681 3084 1819 3084 
Q 2600 3084 3056 2656 
Q 3513 2228 3513 1497 
Q 3513 744 3044 326 
Q 2575 -91 1722 -91 
Q 1428 -91 1123 -41 
Q 819 9 494 109 
L 494 744 
Q 775 591 1075 516 
Q 1375 441 1709 441 
Q 2250 441 2565 725 
Q 2881 1009 2881 1497 
Q 2881 1984 2565 2268 
Q 2250 2553 1709 2553 
Q 1456 2553 1204 2497 
Q 953 2441 691 2322 
L 691 4666 
z
" transform="scale(0.015625)"/>
       </defs>
       <use xlink:href="#DejaVuSans-32"/>
       <use xlink:href="#DejaVuSans-30" x="63.623047"/>
       <use xlink:href="#DejaVuSans-31" x="127.246094"/>
       <use xlink:href="#DejaVuSans-34" x="190.869141"/>
       <use xlink:href="#DejaVuSans-2d" x="254.492188"/>
       <use xlink:href="#DejaVuSans-30" x="290.576172"/>
       <use xlink:href="#DejaVuSans-37" x="354.199219"/>
       <use xlink:href="#DejaVuSans-2d" x="417.822266"/>
       <use xlink:href="#DejaVuSans-30" x="453.90625"/>
       <use xlink:href="#DejaVuSans-35" x="517.529297"/>
      </g>
     </g>
    </g>
    <g id="xtick_6">
     <g id="line2d_6">
      <g>
       <use xlink:href="#mf3e884d9f4" x="671.675687" y="342.2" style="stroke: #000000; stroke-width: 0.8"/>
      </g>
     </g>
     <g id="text_6">
      <!-- 2014-07-06 -->
      <g transform="translate(642.617874 356.798437) scale(0.1 -0.1)">
       <defs>
        <path id="DejaVuSans-36" d="M 2113 2584 
Q 1688 2584 1439 2293 
Q 1191 2003 1191 1497 
Q 1191 994 1439 701 
Q 1688 409 2113 409 
Q 2538 409 2786 701 
Q 3034 994 3034 1497 
Q 3034 2003 2786 2293 
Q 2538 2584 2113 2584 
z
M 3366 4563 
L 3366 3988 
Q 3128 4100 2886 4159 
Q 2644 4219 2406 4219 
Q 1781 4219 1451 3797 
Q 1122 3375 1075 2522 
Q 1259 2794 1537 2939 
Q 1816 3084 2150 3084 
Q 2853 3084 3261 2657 
Q 3669 2231 3669 1497 
Q 3669 778 3244 343 
Q 2819 -91 2113 -91 
Q 1303 -91 875 529 
Q 447 1150 447 2328 
Q 447 3434 972 4092 
Q 1497 4750 2381 4750 
Q 2619 4750 2861 4703 
Q 3103 4656 3366 4563 
z
" transform="scale(0.015625)"/>
       </defs>
       <use xlink:href="#DejaVuSans-32"/>
       <use xlink:href="#DejaVuSans-30" x="63.623047"/>
       <use xlink:href="#DejaVuSans-31" x="127.246094"/>
       <use xlink:href="#DejaVuSans-34" x="190.869141"/>
       <use xlink:href="#DejaVuSans-2d" x="254.492188"/>
       <use xlink:href="#DejaVuSans-30" x="290.576172"/>
       <use xlink:href="#DejaVuSans-37" x="354.199219"/>
       <use xlink:href="#DejaVuSans-2d" x="417.822266"/>
       <use xlink:href="#DejaVuSans-30" x="453.90625"/>
       <use xlink:href="#DejaVuSans-36" x="517.529297"/>
      </g>
     </g>
    </g>
   </g>
   <g id="matplotlib.axis_2">
    <g id="ytick_1">
     <g id="line2d_7">
      <defs>
       <path id="m0450d45136" d="M 0 0 
L -3.5 0 
" style="stroke: #000000; stroke-width: 0.8"/>
      </defs>
      <g>
       <use xlink:href="#m0450d45136" x="30.103125" y="328.619628" style="stroke: #000000; stroke-width: 0.8"/>
      </g>
     </g>
     <g id="text_7">
      <!-- 0.0 -->
      <g transform="translate(7.2 332.418847) scale(0.1 -0.1)">
       <defs>
        <path id="DejaVuSans-2e" d="M 684 794 
L 1344 794 
L 1344 0 
L 684 0 
L 684 794 
z
" transform="scale(0.015625)"/>
       </defs>
       <use xlink:href="#DejaVuSans-30"/>
       <use xlink:href="#DejaVuSans-2e" x="63.623047"/>
       <use xlink:href="#DejaVuSans-30" x="95.410156"/>
      </g>
     </g>
    </g>
    <g id="ytick_2">
     <g id="line2d_8">
      <g>
       <use xlink:href="#m0450d45136" x="30.103125" y="285.623032" style="stroke: #000000; stroke-width: 0.8"/>
      </g>
     </g>
     <g id="text_8">
      <!-- 0.5 -->
      <g transform="translate(7.2 289.422251) scale(0.1 -0.1)">
       <use xlink:href="#DejaVuSans-30"/>
       <use xlink:href="#DejaVuSans-2e" x="63.623047"/>
       <use xlink:href="#DejaVuSans-35" x="95.410156"/>
      </g>
     </g>
    </g>
    <g id="ytick_3">
     <g id="line2d_9">
      <g>
       <use xlink:href="#m0450d45136" x="30.103125" y="242.626437" style="stroke: #000000; stroke-width: 0.8"/>
      </g>
     </g>
     <g id="text_9">
      <!-- 1.0 -->
      <g transform="translate(7.2 246.425656) scale(0.1 -0.1)">
       <use xlink:href="#DejaVuSans-31"/>
       <use xlink:href="#DejaVuSans-2e" x="63.623047"/>
       <use xlink:href="#DejaVuSans-30" x="95.410156"/>
      </g>
     </g>
    </g>
    <g id="ytick_4">
     <g id="line2d_10">
      <g>
       <use xlink:href="#m0450d45136" x="30.103125" y="199.629842" style="stroke: #000000; stroke-width: 0.8"/>
      </g>
     </g>
     <g id="text_10">
      <!-- 1.5 -->
      <g transform="translate(7.2 203.42906) scale(0.1 -0.1)">
       <use xlink:href="#DejaVuSans-31"/>
       <use xlink:href="#DejaVuSans-2e" x="63.623047"/>
       <use xlink:href="#DejaVuSans-35" x="95.410156"/>
      </g>
     </g>
    </g>
    <g id="ytick_5">
     <g id="line2d_11">
      <g>
       <use xlink:href="#m0450d45136" x="30.103125" y="156.633246" style="stroke: #000000; stroke-width: 0.8"/>
      </g>
     </g>
     <g id="text_11">
      <!-- 2.0 -->
      <g transform="translate(7.2 160.432465) scale(0.1 -0.1)">
       <use xlink:href="#DejaVuSans-32"/>
       <use xlink:href="#DejaVuSans-2e" x="63.623047"/>
       <use xlink:href="#DejaVuSans-30" x="95.410156"/>
      </g>
     </g>
    </g>
    <g id="ytick_6">
     <g id="line2d_12">
      <g>
       <use xlink:href="#m0450d45136" x="30.103125" y="113.636651" style="stroke: #000000; stroke-width: 0.8"/>
      </g>
     </g>
     <g id="text_12">
      <!-- 2.5 -->
      <g transform="translate(7.2 117.43587) scale(0.1 -0.1)">
       <use xlink:href="#DejaVuSans-32"/>
       <use xlink:href="#DejaVuSans-2e" x="63.623047"/>
       <use xlink:href="#DejaVuSans-35" x="95.410156"/>
      </g>
     </g>
    </g>
    <g id="ytick_7">
     <g id="line2d_13">
      <g>
       <use xlink:href="#m0450d45136" x="30.103125" y="70.640055" style="stroke: #000000; stroke-width: 0.8"/>
      </g>
     </g>
     <g id="text_13">
      <!-- 3.0 -->
      <g transform="translate(7.2 74.439274) scale(0.1 -0.1)">
       <use xlink:href="#DejaVuSans-33"/>
       <use xlink:href="#DejaVuSans-2e" x="63.623047"/>
       <use xlink:href="#DejaVuSans-30" x="95.410156"/>
      </g>
     </g>
    </g>
   </g>
   <g id="line2d_14">
    <path d="M 60.654199 328.619628 
L 80.687691 328.525137 
L 81.112129 328.286711 
L 81.281905 327.923202 
L 81.536568 326.527542 
L 81.876118 321.910635 
L 82.300557 311.471092 
L 83.149433 288.296301 
L 84.083198 271.53683 
L 84.762299 262.544263 
L 85.611176 253.064857 
L 88.921795 214.918975 
L 89.940447 207.432656 
L 90.534661 200.36643 
L 92.147527 178.135593 
L 93.420842 165.587146 
L 94.354607 158.845319 
L 95.288371 153.451216 
L 96.05236 149.354083 
L 96.816349 143.945536 
L 97.325675 138.639768 
L 97.835001 129.363981 
L 99.787418 87.173355 
L 100.296744 78.39516 
L 101.060733 69.845547 
L 101.739834 64.863962 
L 102.418936 61.28146 
L 103.098037 58.736664 
L 103.607363 57.563887 
L 104.031802 57.082327 
L 104.371352 57.035787 
L 104.710903 57.256454 
L 105.220229 57.90886 
L 105.89933 59.117167 
L 107.936635 62.928866 
L 108.276185 63.089605 
L 108.530848 62.908159 
L 108.870399 62.3336 
L 110.143714 59.83391 
L 110.398377 59.845125 
L 110.65304 60.177858 
L 110.992591 61.222905 
L 111.417029 63.544266 
L 113.19967 74.667562 
L 114.982312 88.535061 
L 116.000964 96.064824 
L 117.274279 103.323423 
L 118.038268 108.737895 
L 118.972032 117.449928 
L 120.839561 136.720992 
L 121.858213 145.071363 
L 122.622202 149.815797 
L 123.471079 153.515963 
L 124.319956 156.124316 
L 125.168833 158.325256 
L 126.187485 160.24352 
L 126.951474 161.124517 
L 128.56434 162.845865 
L 129.752767 164.112031 
L 130.431869 164.542109 
L 131.11097 164.718932 
L 133.31805 165.033048 
L 136.374006 166.22355 
L 137.392658 166.658815 
L 138.241535 166.772941 
L 139.005524 166.645724 
L 139.939288 166.243088 
L 141.806817 165.404828 
L 142.740582 165.224787 
L 143.419683 165.285248 
L 144.098784 165.581733 
L 144.692998 166.036189 
L 145.71165 167.124014 
L 148.852494 171.02744 
L 150.040922 172.989805 
L 152.078226 176.903995 
L 153.266653 178.962792 
L 154.794631 180.688979 
L 156.067947 181.704944 
L 157.341262 182.341276 
L 158.190138 182.466269 
L 158.954128 182.361758 
L 159.97278 181.973207 
L 161.500758 181.349545 
L 162.604298 181.169452 
L 163.9625 181.198576 
L 166.16958 181.429576 
L 166.933569 181.752837 
L 167.782446 182.372419 
L 169.81975 183.960748 
L 171.093065 184.48769 
L 175.252561 185.977464 
L 178.22363 186.870886 
L 179.412057 186.863474 
L 181.364474 186.812444 
L 183.741329 187.238791 
L 188.495039 188.026349 
L 189.768354 187.834785 
L 192.145209 187.334865 
L 195.03139 187.122706 
L 197.408244 186.713807 
L 198.511784 186.839343 
L 200.549088 187.304388 
L 201.822404 187.799039 
L 202.925943 188.509354 
L 204.284146 189.643514 
L 205.048135 190.602134 
L 205.9819 192.171242 
L 207.679653 195.621802 
L 209.037856 198.218448 
L 209.462294 198.700448 
L 209.886733 198.868917 
L 210.226283 198.780674 
L 210.650722 198.388771 
L 211.244936 197.386964 
L 211.839149 195.992813 
L 212.348475 194.29335 
L 212.772914 192.210627 
L 213.367127 187.866051 
L 216.423084 159.301702 
L 217.187073 151.473004 
L 218.290613 142.768495 
L 219.054602 138.766637 
L 219.563928 136.975549 
L 220.073254 135.847016 
L 220.497692 135.310285 
L 221.091906 134.965209 
L 221.940783 134.51916 
L 222.619884 133.934862 
L 223.12921 133.225398 
L 223.553648 132.410449 
L 224.062975 130.850219 
L 224.402525 128.965497 
L 226.015391 117.395003 
L 226.270054 117.031126 
L 226.439829 117.051916 
L 226.694492 117.382045 
L 227.203819 118.668097 
L 228.477134 121.94614 
L 228.98646 122.650684 
L 229.495786 122.986287 
L 231.023764 123.780549 
L 231.363315 124.125378 
L 231.617978 124.655918 
L 231.957528 126.079542 
L 232.551742 129.978068 
L 233.145956 135.053821 
L 234.843709 151.159543 
L 236.201912 161.854637 
L 237.220564 168.122449 
L 238.239216 173.027017 
L 239.342756 177.045964 
L 240.106745 179.062587 
L 240.870734 180.517436 
L 241.634723 181.53419 
L 242.4836 182.296591 
L 243.332477 182.771498 
L 244.520904 183.102386 
L 245.963995 183.285769 
L 246.982647 183.180633 
L 249.104839 182.65937 
L 249.953716 182.252613 
L 250.88748 181.503364 
L 252.33057 180.367 
L 253.179447 179.954492 
L 253.943436 179.821001 
L 254.792313 179.900612 
L 255.726077 180.195549 
L 257.678494 181.159601 
L 260.3949 182.614808 
L 261.498439 182.854532 
L 263.365968 183.149316 
L 264.554396 183.684961 
L 266.337037 184.542513 
L 267.610352 184.981356 
L 268.629004 185.126565 
L 270.411645 185.062802 
L 271.769848 184.725825 
L 272.958276 184.479151 
L 273.807152 184.527659 
L 276.693333 184.936569 
L 279.834177 184.981387 
L 280.852829 184.521765 
L 281.701706 184.238381 
L 282.465695 184.25016 
L 283.314572 184.517705 
L 285.097213 185.146298 
L 286.540304 185.308062 
L 287.813619 185.541973 
L 288.747383 185.955988 
L 290.445137 187.02122 
L 291.80334 188.128686 
L 293.331318 189.677036 
L 294.34997 191.166677 
L 295.283734 192.955294 
L 296.387274 195.532739 
L 297.660589 199.109789 
L 298.849017 202.359753 
L 299.697893 203.882321 
L 300.631658 205.163135 
L 303.517839 208.97835 
L 305.724918 212.088499 
L 306.74357 213.154223 
L 307.592447 213.735834 
L 308.271549 213.96012 
L 308.865762 213.950894 
L 309.459976 213.709816 
L 310.05419 213.1937 
L 310.563516 212.540105 
L 311.49728 210.932801 
L 313.025258 207.777495 
L 313.364809 206.504575 
L 313.959023 202.641948 
L 314.8079 194.97897 
L 316.166102 181.444584 
L 317.609193 168.206488 
L 318.373182 160.951846 
L 319.137171 154.932451 
L 319.816272 151.304105 
L 320.495374 149.084108 
L 321.0047 148.048656 
L 321.344251 147.686051 
L 321.683801 147.610766 
L 322.023352 147.811567 
L 322.44779 148.396438 
L 323.042004 149.616227 
L 326.352623 157.70265 
L 326.861949 159.479663 
L 327.795714 163.453505 
L 328.984141 168.598647 
L 332.294761 182.414715 
L 333.652963 186.61843 
L 335.690268 192.830291 
L 338.236898 201.762745 
L 339.170662 203.639153 
L 340.189315 205.095539 
L 343.584822 209.68355 
L 350.036285 219.549518 
L 351.903814 221.847332 
L 353.346904 223.328239 
L 355.808647 225.714315 
L 356.997074 227.508571 
L 358.355277 229.928579 
L 363.703201 239.835121 
L 365.655617 242.702865 
L 366.844045 244.120829 
L 369.305787 246.565369 
L 372.361743 249.286803 
L 374.144385 250.554613 
L 376.606127 251.995274 
L 384.16113 255.823129 
L 387.641525 257.571089 
L 391.546358 258.901391 
L 400.799115 261.960294 
L 405.7226 263.039944 
L 410.81586 264.456904 
L 418.031313 266.106064 
L 421.766371 267.095165 
L 426.350305 268.005901 
L 429.915587 268.808999 
L 436.791489 270.046892 
L 440.017221 270.916608 
L 442.478963 271.535323 
L 449.779303 272.86707 
L 452.410821 273.402136 
L 458.268071 274.424082 
L 461.069364 274.969353 
L 468.624367 276.138347 
L 471.510548 276.617775 
L 478.216675 277.522683 
L 483.055272 278.316022 
L 486.281004 278.764055 
L 489.252073 279.208362 
L 494.175558 279.83575 
L 499.608369 280.608787 
L 504.531854 281.253879 
L 510.134441 282.019207 
L 515.737027 282.615201 
L 521.424502 283.320067 
L 525.668885 283.713718 
L 529.828381 284.126677 
L 533.478551 284.491604 
L 538.741587 284.969084 
L 543.325522 285.433698 
L 553.087604 286.041424 
L 555.80401 286.192109 
L 562.934575 286.963362 
L 570.319803 287.721163 
L 576.771266 288.302985 
L 581.100537 288.57539 
L 586.703124 289.010373 
L 620.233756 291.371363 
L 633.730896 292.898807 
L 637.550841 293.158455 
L 660.470514 294.371193 
L 671.505912 295.064637 
L 671.675687 295.077643 
L 671.675687 295.077643 
" clip-path="url(#pe4d21ae32b)" style="fill: none; stroke: #1f77b4; stroke-width: 1.5; stroke-linecap: square"/>
   </g>
   <g id="line2d_15">
    <path d="M 60.654199 328.619628 
L 64.049706 328.517879 
L 64.983471 328.291579 
L 65.917235 327.881278 
L 67.19055 326.994686 
L 68.633641 325.570966 
L 70.076731 323.788198 
L 72.453586 320.812903 
L 73.726901 319.613805 
L 75.25488 318.538012 
L 76.443307 317.734376 
L 77.631734 316.506804 
L 78.735274 314.683046 
L 79.414376 313.113203 
L 80.517915 309.662682 
L 81.281905 306.580166 
L 82.640107 299.676375 
L 83.488984 294.275027 
L 84.507636 286.407302 
L 85.696064 275.517284 
L 87.139154 260.494326 
L 92.741741 201.090765 
L 94.015056 190.299749 
L 95.882585 177.433743 
L 96.731461 167.558615 
L 97.580338 154.663987 
L 99.617642 119.070567 
L 100.80607 100.454553 
L 101.739834 88.231762 
L 102.673599 78.629168 
L 103.437588 72.729203 
L 104.201577 68.601095 
L 104.880678 66.274676 
L 105.390004 65.261719 
L 105.89933 64.833447 
L 106.323769 64.789026 
L 106.833095 64.846817 
L 107.257533 64.82379 
L 107.597084 64.619238 
L 108.10641 63.827898 
L 108.870399 61.806765 
L 109.889051 59.259798 
L 110.313489 58.683436 
L 110.65304 58.526422 
L 110.907703 58.604522 
L 111.247254 58.98427 
L 111.671692 59.908845 
L 112.181018 61.672382 
L 112.775232 64.594487 
L 113.539221 69.565673 
L 114.557873 77.819504 
L 116.340514 94.512563 
L 118.802257 117.139017 
L 120.415123 129.977688 
L 121.943101 140.376784 
L 123.386192 148.804887 
L 124.404844 153.513845 
L 125.338608 156.73421 
L 126.696811 160.398931 
L 129.498104 167.136334 
L 131.959847 172.363452 
L 133.742488 175.269012 
L 134.676252 176.423102 
L 135.610017 177.329147 
L 137.053107 178.17031 
L 137.732209 178.3575 
L 138.496198 178.387883 
L 139.260187 178.257261 
L 140.278839 177.817743 
L 142.485918 176.657204 
L 143.080132 176.722158 
L 143.589458 176.996876 
L 144.183672 177.582808 
L 144.862773 178.584895 
L 145.71165 180.265731 
L 146.81519 182.974981 
L 149.022269 189.167318 
L 150.295585 192.511895 
L 151.144461 194.113028 
L 151.993338 195.226858 
L 153.01199 196.190447 
L 154.030642 196.903821 
L 156.916823 198.164729 
L 157.680812 198.19255 
L 159.293678 198.040195 
L 162.604298 197.625217 
L 164.641602 197.038881 
L 165.660254 197.113309 
L 168.121996 197.355275 
L 168.885986 197.454513 
L 169.989525 197.520464 
L 170.753514 197.369772 
L 171.687279 196.922043 
L 172.621043 196.426152 
L 173.809471 196.049052 
L 175.167674 195.883964 
L 176.271213 196.063184 
L 178.308517 196.535322 
L 179.157394 196.582536 
L 180.260934 196.435471 
L 181.364474 196.246027 
L 182.383126 196.324159 
L 184.590205 196.878165 
L 186.797285 196.524976 
L 187.646162 196.046566 
L 189.004365 195.043313 
L 191.72077 193.236587 
L 192.739422 192.931926 
L 193.842962 192.88125 
L 194.861614 193.196193 
L 196.304705 193.755055 
L 197.408244 193.950817 
L 198.426897 194.138741 
L 199.615324 194.253478 
L 201.143302 194.326983 
L 201.822404 194.604505 
L 202.501505 195.116489 
L 203.265494 195.973942 
L 204.199258 197.370744 
L 205.472574 199.710539 
L 209.886733 208.213451 
L 210.226283 208.428592 
L 210.650722 208.020979 
L 210.905385 207.423483 
L 211.414711 205.391167 
L 212.093812 200.857884 
L 213.027577 192.181969 
L 214.470667 176.041649 
L 215.913758 160.28988 
L 217.102185 149.592732 
L 218.120837 142.567696 
L 218.884826 138.507303 
L 219.733703 135.375617 
L 220.58258 133.357748 
L 222.195446 129.537478 
L 222.619884 127.523125 
L 223.214098 123.390601 
L 224.317638 113.534622 
L 225.33629 105.299831 
L 226.015391 101.470129 
L 226.524717 99.680953 
L 226.949156 98.921805 
L 227.203819 98.780351 
L 227.458482 98.866357 
L 227.798032 99.318279 
L 228.222471 100.38537 
L 228.731797 102.317397 
L 229.410898 105.799834 
L 230.42955 112.387995 
L 232.297079 126.335766 
L 234.758822 144.230463 
L 236.541463 155.342476 
L 237.814778 161.75169 
L 239.172981 167.232598 
L 240.276521 170.858517 
L 241.210285 173.337081 
L 242.144049 175.261167 
L 242.908038 176.46359 
L 243.58714 177.199678 
L 244.266241 177.635046 
L 245.115118 177.903183 
L 245.709332 178.066635 
L 246.388433 178.332665 
L 248.765288 179.340308 
L 249.444389 179.624114 
L 252.160795 180.948218 
L 253.518998 181.372884 
L 255.726077 181.937439 
L 256.829617 182.67023 
L 259.715798 185.105597 
L 262.262428 186.19248 
L 263.450856 186.255982 
L 264.978834 186.298789 
L 266.421925 186.558703 
L 267.270801 186.918328 
L 268.968555 187.693361 
L 271.430297 188.138146 
L 272.364062 187.996602 
L 273.382714 187.525077 
L 274.316478 187.205405 
L 275.33513 187.201416 
L 277.796873 187.689241 
L 279.239964 187.442976 
L 279.74929 187.388535 
L 280.937717 187.521353 
L 282.041257 187.607732 
L 283.569235 187.585523 
L 284.84255 187.409948 
L 286.370528 187.131517 
L 286.964742 187.256148 
L 287.558956 187.599241 
L 288.238057 188.274017 
L 289.002046 189.367613 
L 290.020698 191.267 
L 291.463789 194.497926 
L 294.944184 202.504578 
L 296.132611 204.428536 
L 301.989861 212.835185 
L 305.215592 216.626291 
L 305.979581 217.154499 
L 306.573795 217.336875 
L 307.083121 217.310018 
L 307.507559 217.141612 
L 308.016886 216.819628 
L 309.205313 215.125468 
L 310.39374 212.195694 
L 311.412393 208.32112 
L 312.176382 204.499182 
L 313.025258 199.359243 
L 314.213686 191.276666 
L 317.439417 167.989805 
L 319.391834 155.816071 
L 320.665149 148.633996 
L 321.344251 145.918362 
L 321.938464 144.412099 
L 322.362903 143.8456 
L 322.702453 143.687917 
L 323.042004 143.77367 
L 323.466442 144.18772 
L 323.975769 145.085639 
L 324.569982 146.570999 
L 325.418859 149.286559 
L 326.946837 155.093336 
L 330.597007 169.074048 
L 334.671616 183.851522 
L 336.878695 190.934487 
L 339.000887 197.026908 
L 341.123079 202.44319 
L 343.245271 207.2374 
L 345.367463 211.484206 
L 347.574542 215.401802 
L 349.86651 219.011408 
L 352.243364 222.335603 
L 354.705107 225.396291 
L 357.251737 228.21402 
L 359.968143 230.886661 
L 362.769436 233.335678 
L 365.740505 235.642389 
L 368.881349 237.803239 
L 372.276856 239.866022 
L 375.842138 241.77233 
L 379.662084 243.564736 
L 383.82158 245.267974 
L 388.320626 246.865139 
L 393.159224 248.345199 
L 398.507148 249.743086 
L 404.364397 251.03783 
L 410.81586 252.230589 
L 417.946425 253.319023 
L 425.925867 254.308805 
L 435.008848 255.205397 
L 445.365144 255.998172 
L 457.419194 256.690826 
L 471.680324 257.279803 
L 488.99741 257.764329 
L 510.983317 258.146263 
L 540.609116 258.424334 
L 585.344921 258.600767 
L 671.675687 258.681194 
L 671.675687 258.681194 
" clip-path="url(#pe4d21ae32b)" style="fill: none; stroke: #ff7f0e; stroke-width: 1.5; stroke-linecap: square"/>
   </g>
   <g id="patch_3">
    <path d="M 30.103125 342.2 
L 30.103125 43.44 
" style="fill: none; stroke: #000000; stroke-width: 0.8; stroke-linejoin: miter; stroke-linecap: square"/>
   </g>
   <g id="patch_4">
    <path d="M 702.226761 342.2 
L 702.226761 43.44 
" style="fill: none; stroke: #000000; stroke-width: 0.8; stroke-linejoin: miter; stroke-linecap: square"/>
   </g>
   <g id="patch_5">
    <path d="M 30.103125 342.2 
L 702.226761 342.2 
" style="fill: none; stroke: #000000; stroke-width: 0.8; stroke-linejoin: miter; stroke-linecap: square"/>
   </g>
   <g id="patch_6">
    <path d="M 30.103125 43.44 
L 702.226761 43.44 
" style="fill: none; stroke: #000000; stroke-width: 0.8; stroke-linejoin: miter; stroke-linecap: square"/>
   </g>
   <g id="text_14">
    <!-- 1 transformation(s) -->
    <g transform="translate(308.050256 37.44) scale(0.12 -0.12)">
     <defs>
      <path id="DejaVuSans-20" transform="scale(0.015625)"/>
      <path id="DejaVuSans-74" d="M 1172 4494 
L 1172 3500 
L 2356 3500 
L 2356 3053 
L 1172 3053 
L 1172 1153 
Q 1172 725 1289 603 
Q 1406 481 1766 481 
L 2356 481 
L 2356 0 
L 1766 0 
Q 1100 0 847 248 
Q 594 497 594 1153 
L 594 3053 
L 172 3053 
L 172 3500 
L 594 3500 
L 594 4494 
L 1172 4494 
z
" transform="scale(0.015625)"/>
      <path id="DejaVuSans-72" d="M 2631 2963 
Q 2534 3019 2420 3045 
Q 2306 3072 2169 3072 
Q 1681 3072 1420 2755 
Q 1159 2438 1159 1844 
L 1159 0 
L 581 0 
L 581 3500 
L 1159 3500 
L 1159 2956 
Q 1341 3275 1631 3429 
Q 1922 3584 2338 3584 
Q 2397 3584 2469 3576 
Q 2541 3569 2628 3553 
L 2631 2963 
z
" transform="scale(0.015625)"/>
      <path id="DejaVuSans-61" d="M 2194 1759 
Q 1497 1759 1228 1600 
Q 959 1441 959 1056 
Q 959 750 1161 570 
Q 1363 391 1709 391 
Q 2188 391 2477 730 
Q 2766 1069 2766 1631 
L 2766 1759 
L 2194 1759 
z
M 3341 1997 
L 3341 0 
L 2766 0 
L 2766 531 
Q 2569 213 2275 61 
Q 1981 -91 1556 -91 
Q 1019 -91 701 211 
Q 384 513 384 1019 
Q 384 1609 779 1909 
Q 1175 2209 1959 2209 
L 2766 2209 
L 2766 2266 
Q 2766 2663 2505 2880 
Q 2244 3097 1772 3097 
Q 1472 3097 1187 3025 
Q 903 2953 641 2809 
L 641 3341 
Q 956 3463 1253 3523 
Q 1550 3584 1831 3584 
Q 2591 3584 2966 3190 
Q 3341 2797 3341 1997 
z
" transform="scale(0.015625)"/>
      <path id="DejaVuSans-6e" d="M 3513 2113 
L 3513 0 
L 2938 0 
L 2938 2094 
Q 2938 2591 2744 2837 
Q 2550 3084 2163 3084 
Q 1697 3084 1428 2787 
Q 1159 2491 1159 1978 
L 1159 0 
L 581 0 
L 581 3500 
L 1159 3500 
L 1159 2956 
Q 1366 3272 1645 3428 
Q 1925 3584 2291 3584 
Q 2894 3584 3203 3211 
Q 3513 2838 3513 2113 
z
" transform="scale(0.015625)"/>
      <path id="DejaVuSans-73" d="M 2834 3397 
L 2834 2853 
Q 2591 2978 2328 3040 
Q 2066 3103 1784 3103 
Q 1356 3103 1142 2972 
Q 928 2841 928 2578 
Q 928 2378 1081 2264 
Q 1234 2150 1697 2047 
L 1894 2003 
Q 2506 1872 2764 1633 
Q 3022 1394 3022 966 
Q 3022 478 2636 193 
Q 2250 -91 1575 -91 
Q 1294 -91 989 -36 
Q 684 19 347 128 
L 347 722 
Q 666 556 975 473 
Q 1284 391 1588 391 
Q 1994 391 2212 530 
Q 2431 669 2431 922 
Q 2431 1156 2273 1281 
Q 2116 1406 1581 1522 
L 1381 1569 
Q 847 1681 609 1914 
Q 372 2147 372 2553 
Q 372 3047 722 3315 
Q 1072 3584 1716 3584 
Q 2034 3584 2315 3537 
Q 2597 3491 2834 3397 
z
" transform="scale(0.015625)"/>
      <path id="DejaVuSans-66" d="M 2375 4863 
L 2375 4384 
L 1825 4384 
Q 1516 4384 1395 4259 
Q 1275 4134 1275 3809 
L 1275 3500 
L 2222 3500 
L 2222 3053 
L 1275 3053 
L 1275 0 
L 697 0 
L 697 3053 
L 147 3053 
L 147 3500 
L 697 3500 
L 697 3744 
Q 697 4328 969 4595 
Q 1241 4863 1831 4863 
L 2375 4863 
z
" transform="scale(0.015625)"/>
      <path id="DejaVuSans-6f" d="M 1959 3097 
Q 1497 3097 1228 2736 
Q 959 2375 959 1747 
Q 959 1119 1226 758 
Q 1494 397 1959 397 
Q 2419 397 2687 759 
Q 2956 1122 2956 1747 
Q 2956 2369 2687 2733 
Q 2419 3097 1959 3097 
z
M 1959 3584 
Q 2709 3584 3137 3096 
Q 3566 2609 3566 1747 
Q 3566 888 3137 398 
Q 2709 -91 1959 -91 
Q 1206 -91 779 398 
Q 353 888 353 1747 
Q 353 2609 779 3096 
Q 1206 3584 1959 3584 
z
" transform="scale(0.015625)"/>
      <path id="DejaVuSans-6d" d="M 3328 2828 
Q 3544 3216 3844 3400 
Q 4144 3584 4550 3584 
Q 5097 3584 5394 3201 
Q 5691 2819 5691 2113 
L 5691 0 
L 5113 0 
L 5113 2094 
Q 5113 2597 4934 2840 
Q 4756 3084 4391 3084 
Q 3944 3084 3684 2787 
Q 3425 2491 3425 1978 
L 3425 0 
L 2847 0 
L 2847 2094 
Q 2847 2600 2669 2842 
Q 2491 3084 2119 3084 
Q 1678 3084 1418 2786 
Q 1159 2488 1159 1978 
L 1159 0 
L 581 0 
L 581 3500 
L 1159 3500 
L 1159 2956 
Q 1356 3278 1631 3431 
Q 1906 3584 2284 3584 
Q 2666 3584 2933 3390 
Q 3200 3197 3328 2828 
z
" transform="scale(0.015625)"/>
      <path id="DejaVuSans-69" d="M 603 3500 
L 1178 3500 
L 1178 0 
L 603 0 
L 603 3500 
z
M 603 4863 
L 1178 4863 
L 1178 4134 
L 603 4134 
L 603 4863 
z
" transform="scale(0.015625)"/>
      <path id="DejaVuSans-28" d="M 1984 4856 
Q 1566 4138 1362 3434 
Q 1159 2731 1159 2009 
Q 1159 1288 1364 580 
Q 1569 -128 1984 -844 
L 1484 -844 
Q 1016 -109 783 600 
Q 550 1309 550 2009 
Q 550 2706 781 3412 
Q 1013 4119 1484 4856 
L 1984 4856 
z
" transform="scale(0.015625)"/>
      <path id="DejaVuSans-29" d="M 513 4856 
L 1013 4856 
Q 1481 4119 1714 3412 
Q 1947 2706 1947 2009 
Q 1947 1309 1714 600 
Q 1481 -109 1013 -844 
L 513 -844 
Q 928 -128 1133 580 
Q 1338 1288 1338 2009 
Q 1338 2731 1133 3434 
Q 928 4138 513 4856 
z
" transform="scale(0.015625)"/>
     </defs>
     <use xlink:href="#DejaVuSans-31"/>
     <use xlink:href="#DejaVuSans-20" x="63.623047"/>
     <use xlink:href="#DejaVuSans-74" x="95.410156"/>
     <use xlink:href="#DejaVuSans-72" x="134.619141"/>
     <use xlink:href="#DejaVuSans-61" x="175.732422"/>
     <use xlink:href="#DejaVuSans-6e" x="237.011719"/>
     <use xlink:href="#DejaVuSans-73" x="300.390625"/>
     <use xlink:href="#DejaVuSans-66" x="352.490234"/>
     <use xlink:href="#DejaVuSans-6f" x="387.695312"/>
     <use xlink:href="#DejaVuSans-72" x="448.876953"/>
     <use xlink:href="#DejaVuSans-6d" x="488.240234"/>
     <use xlink:href="#DejaVuSans-61" x="585.652344"/>
     <use xlink:href="#DejaVuSans-74" x="646.931641"/>
     <use xlink:href="#DejaVuSans-69" x="686.140625"/>
     <use xlink:href="#DejaVuSans-6f" x="713.923828"/>
     <use xlink:href="#DejaVuSans-6e" x="775.105469"/>
     <use xlink:href="#DejaVuSans-28" x="838.484375"/>
     <use xlink:href="#DejaVuSans-73" x="877.498047"/>
     <use xlink:href="#DejaVuSans-29" x="929.597656"/>
    </g>
   </g>
   <g id="legend_1">
    <g id="patch_7">
     <path d="M 613.833011 80.79625 
L 695.226761 80.79625 
Q 697.226761 80.79625 697.226761 78.79625 
L 697.226761 50.44 
Q 697.226761 48.44 695.226761 48.44 
L 613.833011 48.44 
Q 611.833011 48.44 611.833011 50.44 
L 611.833011 78.79625 
Q 611.833011 80.79625 613.833011 80.79625 
z
" style="fill: #ffffff; opacity: 0.8; stroke: #cccccc; stroke-linejoin: miter"/>
    </g>
    <g id="line2d_16">
     <path d="M 615.833011 56.538437 
L 625.833011 56.538437 
L 635.833011 56.538437 
" style="fill: none; stroke: #1f77b4; stroke-width: 1.5; stroke-linecap: square"/>
    </g>
    <g id="text_15">
     <!-- observed -->
     <g transform="translate(643.833011 60.038437) scale(0.1 -0.1)">
      <defs>
       <path id="DejaVuSans-62" d="M 3116 1747 
Q 3116 2381 2855 2742 
Q 2594 3103 2138 3103 
Q 1681 3103 1420 2742 
Q 1159 2381 1159 1747 
Q 1159 1113 1420 752 
Q 1681 391 2138 391 
Q 2594 391 2855 752 
Q 3116 1113 3116 1747 
z
M 1159 2969 
Q 1341 3281 1617 3432 
Q 1894 3584 2278 3584 
Q 2916 3584 3314 3078 
Q 3713 2572 3713 1747 
Q 3713 922 3314 415 
Q 2916 -91 2278 -91 
Q 1894 -91 1617 61 
Q 1341 213 1159 525 
L 1159 0 
L 581 0 
L 581 4863 
L 1159 4863 
L 1159 2969 
z
" transform="scale(0.015625)"/>
       <path id="DejaVuSans-65" d="M 3597 1894 
L 3597 1613 
L 953 1613 
Q 991 1019 1311 708 
Q 1631 397 2203 397 
Q 2534 397 2845 478 
Q 3156 559 3463 722 
L 3463 178 
Q 3153 47 2828 -22 
Q 2503 -91 2169 -91 
Q 1331 -91 842 396 
Q 353 884 353 1716 
Q 353 2575 817 3079 
Q 1281 3584 2069 3584 
Q 2775 3584 3186 3129 
Q 3597 2675 3597 1894 
z
M 3022 2063 
Q 3016 2534 2758 2815 
Q 2500 3097 2075 3097 
Q 1594 3097 1305 2825 
Q 1016 2553 972 2059 
L 3022 2063 
z
" transform="scale(0.015625)"/>
       <path id="DejaVuSans-76" d="M 191 3500 
L 800 3500 
L 1894 563 
L 2988 3500 
L 3597 3500 
L 2284 0 
L 1503 0 
L 191 3500 
z
" transform="scale(0.015625)"/>
       <path id="DejaVuSans-64" d="M 2906 2969 
L 2906 4863 
L 3481 4863 
L 3481 0 
L 2906 0 
L 2906 525 
Q 2725 213 2448 61 
Q 2172 -91 1784 -91 
Q 1150 -91 751 415 
Q 353 922 353 1747 
Q 353 2572 751 3078 
Q 1150 3584 1784 3584 
Q 2172 3584 2448 3432 
Q 2725 3281 2906 2969 
z
M 947 1747 
Q 947 1113 1208 752 
Q 1469 391 1925 391 
Q 2381 391 2643 752 
Q 2906 1113 2906 1747 
Q 2906 2381 2643 2742 
Q 2381 3103 1925 3103 
Q 1469 3103 1208 2742 
Q 947 2381 947 1747 
z
" transform="scale(0.015625)"/>
      </defs>
      <use xlink:href="#DejaVuSans-6f"/>
      <use xlink:href="#DejaVuSans-62" x="61.181641"/>
      <use xlink:href="#DejaVuSans-73" x="124.658203"/>
      <use xlink:href="#DejaVuSans-65" x="176.757812"/>
      <use xlink:href="#DejaVuSans-72" x="238.28125"/>
      <use xlink:href="#DejaVuSans-76" x="279.394531"/>
      <use xlink:href="#DejaVuSans-65" x="338.574219"/>
      <use xlink:href="#DejaVuSans-64" x="400.097656"/>
     </g>
    </g>
    <g id="line2d_17">
     <path d="M 615.833011 71.216563 
L 625.833011 71.216563 
L 635.833011 71.216563 
" style="fill: none; stroke: #ff7f0e; stroke-width: 1.5; stroke-linecap: square"/>
    </g>
    <g id="text_16">
     <!-- simulated -->
     <g transform="translate(643.833011 74.716563) scale(0.1 -0.1)">
      <defs>
       <path id="DejaVuSans-75" d="M 544 1381 
L 544 3500 
L 1119 3500 
L 1119 1403 
Q 1119 906 1312 657 
Q 1506 409 1894 409 
Q 2359 409 2629 706 
Q 2900 1003 2900 1516 
L 2900 3500 
L 3475 3500 
L 3475 0 
L 2900 0 
L 2900 538 
Q 2691 219 2414 64 
Q 2138 -91 1772 -91 
Q 1169 -91 856 284 
Q 544 659 544 1381 
z
M 1991 3584 
L 1991 3584 
z
" transform="scale(0.015625)"/>
       <path id="DejaVuSans-6c" d="M 603 4863 
L 1178 4863 
L 1178 0 
L 603 0 
L 603 4863 
z
" transform="scale(0.015625)"/>
      </defs>
      <use xlink:href="#DejaVuSans-73"/>
      <use xlink:href="#DejaVuSans-69" x="52.099609"/>
      <use xlink:href="#DejaVuSans-6d" x="79.882812"/>
      <use xlink:href="#DejaVuSans-75" x="177.294922"/>
      <use xlink:href="#DejaVuSans-6c" x="240.673828"/>
      <use xlink:href="#DejaVuSans-61" x="268.457031"/>
      <use xlink:href="#DejaVuSans-74" x="329.736328"/>
      <use xlink:href="#DejaVuSans-65" x="368.945312"/>
      <use xlink:href="#DejaVuSans-64" x="430.46875"/>
     </g>
    </g>
   </g>
  </g>
  <g id="axes_2">
   <g id="patch_8">
    <path d="M 30.103125 684.92 
L 702.226761 684.92 
L 702.226761 386.16 
L 30.103125 386.16 
z
" style="fill: #ffffff"/>
   </g>
   <g id="matplotlib.axis_3">
    <g id="xtick_7">
     <g id="line2d_18">
      <g>
       <use xlink:href="#mf3e884d9f4" x="60.484424" y="684.92" style="stroke: #000000; stroke-width: 0.8"/>
      </g>
     </g>
     <g id="text_17">
      <!-- 2014-07-01 -->
      <g transform="translate(31.426612 699.518437) scale(0.1 -0.1)">
       <use xlink:href="#DejaVuSans-32"/>
       <use xlink:href="#DejaVuSans-30" x="63.623047"/>
       <use xlink:href="#DejaVuSans-31" x="127.246094"/>
       <use xlink:href="#DejaVuSans-34" x="190.869141"/>
       <use xlink:href="#DejaVuSans-2d" x="254.492188"/>
       <use xlink:href="#DejaVuSans-30" x="290.576172"/>
       <use xlink:href="#DejaVuSans-37" x="354.199219"/>
       <use xlink:href="#DejaVuSans-2d" x="417.822266"/>
       <use xlink:href="#DejaVuSans-30" x="453.90625"/>
       <use xlink:href="#DejaVuSans-31" x="517.529297"/>
      </g>
     </g>
    </g>
    <g id="xtick_8">
     <g id="line2d_19">
      <g>
       <use xlink:href="#mf3e884d9f4" x="182.722677" y="684.92" style="stroke: #000000; stroke-width: 0.8"/>
      </g>
     </g>
     <g id="text_18">
      <!-- 2014-07-02 -->
      <g transform="translate(153.664864 699.518437) scale(0.1 -0.1)">
       <use xlink:href="#DejaVuSans-32"/>
       <use xlink:href="#DejaVuSans-30" x="63.623047"/>
       <use xlink:href="#DejaVuSans-31" x="127.246094"/>
       <use xlink:href="#DejaVuSans-34" x="190.869141"/>
       <use xlink:href="#DejaVuSans-2d" x="254.492188"/>
       <use xlink:href="#DejaVuSans-30" x="290.576172"/>
       <use xlink:href="#DejaVuSans-37" x="354.199219"/>
       <use xlink:href="#DejaVuSans-2d" x="417.822266"/>
       <use xlink:href="#DejaVuSans-30" x="453.90625"/>
       <use xlink:href="#DejaVuSans-32" x="517.529297"/>
      </g>
     </g>
    </g>
    <g id="xtick_9">
     <g id="line2d_20">
      <g>
       <use xlink:href="#mf3e884d9f4" x="304.960929" y="684.92" style="stroke: #000000; stroke-width: 0.8"/>
      </g>
     </g>
     <g id="text_19">
      <!-- 2014-07-03 -->
      <g transform="translate(275.903117 699.518437) scale(0.1 -0.1)">
       <use xlink:href="#DejaVuSans-32"/>
       <use xlink:href="#DejaVuSans-30" x="63.623047"/>
       <use xlink:href="#DejaVuSans-31" x="127.246094"/>
       <use xlink:href="#DejaVuSans-34" x="190.869141"/>
       <use xlink:href="#DejaVuSans-2d" x="254.492188"/>
       <use xlink:href="#DejaVuSans-30" x="290.576172"/>
       <use xlink:href="#DejaVuSans-37" x="354.199219"/>
       <use xlink:href="#DejaVuSans-2d" x="417.822266"/>
       <use xlink:href="#DejaVuSans-30" x="453.90625"/>
       <use xlink:href="#DejaVuSans-33" x="517.529297"/>
      </g>
     </g>
    </g>
    <g id="xtick_10">
     <g id="line2d_21">
      <g>
       <use xlink:href="#mf3e884d9f4" x="427.199182" y="684.92" style="stroke: #000000; stroke-width: 0.8"/>
      </g>
     </g>
     <g id="text_20">
      <!-- 2014-07-04 -->
      <g transform="translate(398.141369 699.518437) scale(0.1 -0.1)">
       <use xlink:href="#DejaVuSans-32"/>
       <use xlink:href="#DejaVuSans-30" x="63.623047"/>
       <use xlink:href="#DejaVuSans-31" x="127.246094"/>
       <use xlink:href="#DejaVuSans-34" x="190.869141"/>
       <use xlink:href="#DejaVuSans-2d" x="254.492188"/>
       <use xlink:href="#DejaVuSans-30" x="290.576172"/>
       <use xlink:href="#DejaVuSans-37" x="354.199219"/>
       <use xlink:href="#DejaVuSans-2d" x="417.822266"/>
       <use xlink:href="#DejaVuSans-30" x="453.90625"/>
       <use xlink:href="#DejaVuSans-34" x="517.529297"/>
      </g>
     </g>
    </g>
    <g id="xtick_11">
     <g id="line2d_22">
      <g>
       <use xlink:href="#mf3e884d9f4" x="549.437434" y="684.92" style="stroke: #000000; stroke-width: 0.8"/>
      </g>
     </g>
     <g id="text_21">
      <!-- 2014-07-05 -->
      <g transform="translate(520.379622 699.518437) scale(0.1 -0.1)">
       <use xlink:href="#DejaVuSans-32"/>
       <use xlink:href="#DejaVuSans-30" x="63.623047"/>
       <use xlink:href="#DejaVuSans-31" x="127.246094"/>
       <use xlink:href="#DejaVuSans-34" x="190.869141"/>
       <use xlink:href="#DejaVuSans-2d" x="254.492188"/>
       <use xlink:href="#DejaVuSans-30" x="290.576172"/>
       <use xlink:href="#DejaVuSans-37" x="354.199219"/>
       <use xlink:href="#DejaVuSans-2d" x="417.822266"/>
       <use xlink:href="#DejaVuSans-30" x="453.90625"/>
       <use xlink:href="#DejaVuSans-35" x="517.529297"/>
      </g>
     </g>
    </g>
    <g id="xtick_12">
     <g id="line2d_23">
      <g>
       <use xlink:href="#mf3e884d9f4" x="671.675687" y="684.92" style="stroke: #000000; stroke-width: 0.8"/>
      </g>
     </g>
     <g id="text_22">
      <!-- 2014-07-06 -->
      <g transform="translate(642.617874 699.518437) scale(0.1 -0.1)">
       <use xlink:href="#DejaVuSans-32"/>
       <use xlink:href="#DejaVuSans-30" x="63.623047"/>
       <use xlink:href="#DejaVuSans-31" x="127.246094"/>
       <use xlink:href="#DejaVuSans-34" x="190.869141"/>
       <use xlink:href="#DejaVuSans-2d" x="254.492188"/>
       <use xlink:href="#DejaVuSans-30" x="290.576172"/>
       <use xlink:href="#DejaVuSans-37" x="354.199219"/>
       <use xlink:href="#DejaVuSans-2d" x="417.822266"/>
       <use xlink:href="#DejaVuSans-30" x="453.90625"/>
       <use xlink:href="#DejaVuSans-36" x="517.529297"/>
      </g>
     </g>
    </g>
   </g>
   <g id="matplotlib.axis_4">
    <g id="ytick_8">
     <g id="line2d_24">
      <g>
       <use xlink:href="#m0450d45136" x="30.103125" y="671.339881" style="stroke: #000000; stroke-width: 0.8"/>
      </g>
     </g>
     <g id="text_23">
      <!-- 0.0 -->
      <g transform="translate(7.2 675.1391) scale(0.1 -0.1)">
       <use xlink:href="#DejaVuSans-30"/>
       <use xlink:href="#DejaVuSans-2e" x="63.623047"/>
       <use xlink:href="#DejaVuSans-30" x="95.410156"/>
      </g>
     </g>
    </g>
    <g id="ytick_9">
     <g id="line2d_25">
      <g>
       <use xlink:href="#m0450d45136" x="30.103125" y="628.343246" style="stroke: #000000; stroke-width: 0.8"/>
      </g>
     </g>
     <g id="text_24">
      <!-- 0.5 -->
      <g transform="translate(7.2 632.142464) scale(0.1 -0.1)">
       <use xlink:href="#DejaVuSans-30"/>
       <use xlink:href="#DejaVuSans-2e" x="63.623047"/>
       <use xlink:href="#DejaVuSans-35" x="95.410156"/>
      </g>
     </g>
    </g>
    <g id="ytick_10">
     <g id="line2d_26">
      <g>
       <use xlink:href="#m0450d45136" x="30.103125" y="585.34661" style="stroke: #000000; stroke-width: 0.8"/>
      </g>
     </g>
     <g id="text_25">
      <!-- 1.0 -->
      <g transform="translate(7.2 589.145829) scale(0.1 -0.1)">
       <use xlink:href="#DejaVuSans-31"/>
       <use xlink:href="#DejaVuSans-2e" x="63.623047"/>
       <use xlink:href="#DejaVuSans-30" x="95.410156"/>
      </g>
     </g>
    </g>
    <g id="ytick_11">
     <g id="line2d_27">
      <g>
       <use xlink:href="#m0450d45136" x="30.103125" y="542.349975" style="stroke: #000000; stroke-width: 0.8"/>
      </g>
     </g>
     <g id="text_26">
      <!-- 1.5 -->
      <g transform="translate(7.2 546.149193) scale(0.1 -0.1)">
       <use xlink:href="#DejaVuSans-31"/>
       <use xlink:href="#DejaVuSans-2e" x="63.623047"/>
       <use xlink:href="#DejaVuSans-35" x="95.410156"/>
      </g>
     </g>
    </g>
    <g id="ytick_12">
     <g id="line2d_28">
      <g>
       <use xlink:href="#m0450d45136" x="30.103125" y="499.353339" style="stroke: #000000; stroke-width: 0.8"/>
      </g>
     </g>
     <g id="text_27">
      <!-- 2.0 -->
      <g transform="translate(7.2 503.152558) scale(0.1 -0.1)">
       <use xlink:href="#DejaVuSans-32"/>
       <use xlink:href="#DejaVuSans-2e" x="63.623047"/>
       <use xlink:href="#DejaVuSans-30" x="95.410156"/>
      </g>
     </g>
    </g>
    <g id="ytick_13">
     <g id="line2d_29">
      <g>
       <use xlink:href="#m0450d45136" x="30.103125" y="456.356704" style="stroke: #000000; stroke-width: 0.8"/>
      </g>
     </g>
     <g id="text_28">
      <!-- 2.5 -->
      <g transform="translate(7.2 460.155922) scale(0.1 -0.1)">
       <use xlink:href="#DejaVuSans-32"/>
       <use xlink:href="#DejaVuSans-2e" x="63.623047"/>
       <use xlink:href="#DejaVuSans-35" x="95.410156"/>
      </g>
     </g>
    </g>
    <g id="ytick_14">
     <g id="line2d_30">
      <g>
       <use xlink:href="#m0450d45136" x="30.103125" y="413.360068" style="stroke: #000000; stroke-width: 0.8"/>
      </g>
     </g>
     <g id="text_29">
      <!-- 3.0 -->
      <g transform="translate(7.2 417.159287) scale(0.1 -0.1)">
       <use xlink:href="#DejaVuSans-33"/>
       <use xlink:href="#DejaVuSans-2e" x="63.623047"/>
       <use xlink:href="#DejaVuSans-30" x="95.410156"/>
      </g>
     </g>
    </g>
   </g>
   <g id="line2d_31">
    <path d="M 60.654199 671.339881 
L 80.687691 671.24539 
L 81.112129 671.006964 
L 81.281905 670.643454 
L 81.536568 669.247794 
L 81.876118 664.630882 
L 82.300557 654.191329 
L 83.149433 631.016517 
L 84.083198 614.25703 
L 84.762299 605.264455 
L 85.611176 595.78504 
L 88.921795 557.639122 
L 89.940447 550.152796 
L 90.534661 543.086564 
L 92.147527 520.855706 
L 93.420842 508.307247 
L 94.354607 501.565414 
L 95.288371 496.171306 
L 96.05236 492.074169 
L 96.816349 486.665617 
L 97.325675 481.359844 
L 97.835001 472.084049 
L 99.787418 429.893383 
L 100.296744 421.11518 
L 101.060733 412.565559 
L 101.739834 407.58397 
L 102.418936 404.001463 
L 103.098037 401.456665 
L 103.607363 400.283887 
L 104.031802 399.802327 
L 104.371352 399.755787 
L 104.710903 399.976454 
L 105.220229 400.628861 
L 105.89933 401.837169 
L 107.936635 405.648872 
L 108.276185 405.809611 
L 108.530848 405.628164 
L 108.870399 405.053605 
L 110.143714 402.553913 
L 110.398377 402.565127 
L 110.65304 402.897861 
L 110.992591 403.942909 
L 111.417029 406.264272 
L 113.19967 417.387579 
L 114.982312 431.25509 
L 116.000964 438.784861 
L 117.274279 446.043467 
L 118.038268 451.457944 
L 118.972032 460.169985 
L 120.839561 479.441066 
L 121.858213 487.791445 
L 122.622202 492.535883 
L 123.471079 496.236053 
L 124.319956 498.844408 
L 125.168833 501.04535 
L 126.187485 502.963616 
L 126.951474 503.844614 
L 128.56434 505.565964 
L 129.752767 506.83213 
L 130.431869 507.262209 
L 131.11097 507.439032 
L 133.31805 507.753149 
L 136.374006 508.943651 
L 137.392658 509.378917 
L 138.241535 509.493044 
L 139.005524 509.365826 
L 139.939288 508.96319 
L 141.806817 508.124929 
L 142.740582 507.944888 
L 143.419683 508.005349 
L 144.098784 508.301834 
L 144.692998 508.75629 
L 145.71165 509.844117 
L 148.852494 513.747547 
L 150.040922 515.709913 
L 152.078226 519.624107 
L 153.266653 521.682906 
L 154.794631 523.409095 
L 156.067947 524.42506 
L 157.341262 525.061393 
L 158.190138 525.186386 
L 158.954128 525.081875 
L 159.97278 524.693324 
L 161.500758 524.069661 
L 162.604298 523.889568 
L 163.9625 523.918692 
L 166.16958 524.149692 
L 166.933569 524.472954 
L 167.782446 525.092536 
L 169.81975 526.680867 
L 171.093065 527.207809 
L 175.252561 528.697585 
L 178.22363 529.591007 
L 179.412057 529.583595 
L 181.364474 529.532565 
L 183.741329 529.958912 
L 188.495039 530.746471 
L 189.768354 530.554907 
L 192.145209 530.054987 
L 195.03139 529.842828 
L 197.408244 529.433928 
L 198.511784 529.559464 
L 200.549088 530.02451 
L 201.822404 530.519161 
L 202.925943 531.229476 
L 204.284146 532.363638 
L 205.048135 533.322258 
L 205.9819 534.891368 
L 207.679653 538.341931 
L 209.037856 540.93858 
L 209.462294 541.420581 
L 209.886733 541.589049 
L 210.226283 541.500806 
L 210.650722 541.108903 
L 211.244936 540.107095 
L 211.839149 538.712942 
L 212.348475 537.013478 
L 212.772914 534.930753 
L 213.367127 530.586173 
L 216.423084 502.021797 
L 217.187073 494.193092 
L 218.290613 485.488575 
L 219.054602 481.486713 
L 219.563928 479.695624 
L 220.073254 478.56709 
L 220.497692 478.030358 
L 221.091906 477.685282 
L 221.940783 477.239232 
L 222.619884 476.654934 
L 223.12921 475.945469 
L 223.553648 475.13052 
L 224.062975 473.570288 
L 224.402525 471.685564 
L 226.015391 460.115059 
L 226.270054 459.751182 
L 226.439829 459.771972 
L 226.694492 460.102101 
L 227.203819 461.388155 
L 228.477134 464.666201 
L 228.98646 465.370745 
L 229.495786 465.706349 
L 231.023764 466.500611 
L 231.363315 466.845441 
L 231.617978 467.375981 
L 231.957528 468.799606 
L 232.551742 472.698136 
L 233.145956 477.773893 
L 234.843709 493.879631 
L 236.201912 504.574735 
L 237.220564 510.842552 
L 238.239216 515.747125 
L 239.342756 519.766076 
L 240.106745 521.782701 
L 240.870734 523.237551 
L 241.634723 524.254306 
L 242.4836 525.016708 
L 243.332477 525.491615 
L 244.520904 525.822503 
L 245.963995 526.005887 
L 246.982647 525.900751 
L 249.104839 525.379487 
L 249.953716 524.97273 
L 250.88748 524.22348 
L 252.33057 523.087115 
L 253.179447 522.674607 
L 253.943436 522.541116 
L 254.792313 522.620726 
L 255.726077 522.915664 
L 257.678494 523.879717 
L 260.3949 525.334925 
L 261.498439 525.57465 
L 263.365968 525.869433 
L 264.554396 526.405079 
L 266.337037 527.262632 
L 267.610352 527.701476 
L 268.629004 527.846684 
L 270.411645 527.782922 
L 271.769848 527.445944 
L 272.958276 527.19927 
L 273.807152 527.247778 
L 276.693333 527.656688 
L 279.834177 527.701507 
L 280.852829 527.241884 
L 281.701706 526.9585 
L 282.465695 526.970278 
L 283.314572 527.237824 
L 285.097213 527.866418 
L 286.540304 528.028181 
L 287.813619 528.262093 
L 288.747383 528.676108 
L 290.445137 529.741341 
L 291.80334 530.848808 
L 293.331318 532.397159 
L 294.34997 533.886802 
L 295.283734 535.67542 
L 296.387274 538.252869 
L 297.660589 541.829921 
L 298.849017 545.079889 
L 299.697893 546.602458 
L 300.631658 547.883273 
L 303.517839 551.698492 
L 305.724918 554.808644 
L 306.74357 555.874368 
L 307.592447 556.45598 
L 308.271549 556.680266 
L 308.865762 556.67104 
L 309.459976 556.429963 
L 310.05419 555.913846 
L 310.563516 555.26025 
L 311.49728 553.652944 
L 313.025258 550.497636 
L 313.364809 549.224714 
L 313.959023 545.362084 
L 314.8079 537.699099 
L 316.166102 524.1647 
L 317.609193 510.926592 
L 318.373182 503.671943 
L 319.137171 497.652543 
L 319.816272 494.024193 
L 320.495374 491.804194 
L 321.0047 490.768741 
L 321.344251 490.406136 
L 321.683801 490.330851 
L 322.023352 490.531651 
L 322.44779 491.116523 
L 323.042004 492.336313 
L 326.352623 500.422744 
L 326.861949 502.199758 
L 327.795714 506.173604 
L 328.984141 511.318751 
L 332.294761 525.134832 
L 333.652963 529.338551 
L 335.690268 535.550417 
L 338.236898 544.48288 
L 339.170662 546.359289 
L 340.189315 547.815677 
L 343.584822 552.403692 
L 350.036285 562.26967 
L 351.903814 564.567486 
L 353.346904 566.048394 
L 355.808647 568.434473 
L 356.997074 570.228729 
L 358.355277 572.64874 
L 363.703201 582.555291 
L 365.655617 585.423038 
L 366.844045 586.841004 
L 369.305787 589.285545 
L 372.361743 592.006982 
L 374.144385 593.274793 
L 376.606127 594.715456 
L 384.16113 598.543314 
L 387.641525 600.291276 
L 391.546358 601.621579 
L 400.799115 604.680485 
L 405.7226 605.760136 
L 410.81586 607.177097 
L 418.031313 608.826259 
L 421.766371 609.815361 
L 426.350305 610.726098 
L 429.915587 611.529197 
L 436.791489 612.76709 
L 440.017221 613.636807 
L 442.478963 614.255523 
L 449.779303 615.587272 
L 452.410821 616.122338 
L 458.268071 617.144285 
L 461.069364 617.689556 
L 468.624367 618.858551 
L 471.510548 619.337979 
L 478.216675 620.242888 
L 483.055272 621.036229 
L 486.281004 621.484262 
L 489.252073 621.92857 
L 494.175558 622.555958 
L 499.608369 623.328996 
L 504.531854 623.974088 
L 510.134441 624.739417 
L 515.737027 625.335411 
L 521.424502 626.040278 
L 525.668885 626.43393 
L 529.828381 626.846889 
L 533.478551 627.211816 
L 538.741587 627.689296 
L 543.325522 628.153911 
L 553.087604 628.761638 
L 555.80401 628.912323 
L 562.934575 629.683577 
L 570.319803 630.441379 
L 576.771266 631.023201 
L 581.100537 631.295606 
L 586.703124 631.73059 
L 620.233756 634.091581 
L 633.730896 635.619027 
L 637.550841 635.878675 
L 660.470514 637.091415 
L 671.505912 637.784859 
L 671.675687 637.797865 
L 671.675687 637.797865 
" clip-path="url(#p92549950db)" style="fill: none; stroke: #1f77b4; stroke-width: 1.5; stroke-linecap: square"/>
   </g>
   <g id="line2d_32">
    <path d="M 60.654199 671.339881 
L 62.861279 671.242898 
L 64.304369 670.789669 
L 65.492797 670.202786 
L 66.511449 669.437724 
L 67.614989 668.334635 
L 68.803416 666.879013 
L 70.84072 664.31315 
L 72.708249 662.249781 
L 73.981564 661.164123 
L 75.679318 659.668074 
L 76.613082 658.533845 
L 77.546847 657.07266 
L 78.395724 655.201863 
L 79.2446 652.760561 
L 80.178365 649.357621 
L 81.027241 645.529088 
L 81.961006 640.350698 
L 83.149433 631.951464 
L 84.422748 621.222285 
L 85.780951 607.739202 
L 87.818256 585.129159 
L 90.364886 557.166686 
L 91.977752 540.270069 
L 93.251067 530.98086 
L 94.354607 522.904557 
L 94.863933 519.570514 
L 95.458146 516.477503 
L 96.05236 512.528078 
L 96.561686 508.045426 
L 97.240787 499.95771 
L 98.174552 485.58041 
L 101.315396 434.239933 
L 102.334048 422.306741 
L 103.182925 414.780045 
L 103.946914 409.947299 
L 104.541128 407.422721 
L 105.220229 405.31384 
L 105.89933 403.889279 
L 106.493544 403.09286 
L 106.833095 402.887197 
L 107.087758 403.015151 
L 107.427309 403.370922 
L 107.597084 403.312795 
L 108.361073 402.729916 
L 109.040174 402.399496 
L 110.313489 401.51229 
L 110.65304 401.589089 
L 110.992591 401.88824 
L 111.332142 402.477167 
L 111.75658 403.702995 
L 112.350794 406.230975 
L 113.114783 410.646036 
L 114.048547 417.543733 
L 115.40675 429.531535 
L 119.226695 464.255707 
L 120.839561 476.434916 
L 122.282652 485.722612 
L 123.131528 490.07755 
L 124.319956 494.824962 
L 125.338608 498.758125 
L 126.442148 502.033298 
L 128.055014 505.934171 
L 130.516756 511.3658 
L 132.044734 514.239691 
L 133.233162 516.076337 
L 134.506477 517.535253 
L 135.86468 518.590025 
L 136.713557 518.902999 
L 137.477546 518.982321 
L 138.750861 518.758071 
L 139.684625 518.203114 
L 140.448614 517.799089 
L 141.127716 517.71039 
L 141.976592 517.830201 
L 142.740582 518.158844 
L 143.419683 518.715105 
L 144.098784 519.569398 
L 144.862773 520.895933 
L 145.796538 522.985515 
L 147.069853 526.432783 
L 149.192045 532.320949 
L 151.5689 536.764578 
L 152.248001 537.69251 
L 153.096878 538.377488 
L 154.964407 539.538436 
L 155.55862 539.608243 
L 156.831936 539.713861 
L 158.275026 539.900942 
L 160.482106 539.556015 
L 161.161207 539.25021 
L 163.283399 538.90365 
L 164.641602 538.922775 
L 165.405591 538.735881 
L 166.084692 538.646068 
L 166.594018 538.623703 
L 167.27312 538.896788 
L 167.952221 539.155732 
L 168.291772 539.091327 
L 169.565087 538.703467 
L 170.329076 538.348446 
L 170.838402 538.228365 
L 171.602391 538.14595 
L 172.960594 537.781777 
L 173.809471 537.386336 
L 174.403684 537.442655 
L 175.337449 537.595607 
L 177.204978 537.729528 
L 177.884079 537.793016 
L 179.66672 537.707429 
L 182.298238 538.109657 
L 183.995992 537.912279 
L 185.52397 537.979049 
L 186.287959 537.512529 
L 189.259028 535.608869 
L 189.853241 535.160356 
L 192.314984 534.247829 
L 192.909198 534.193099 
L 193.503411 534.208006 
L 194.182513 534.536553 
L 194.606951 534.640616 
L 195.201165 534.500755 
L 195.625603 534.445662 
L 196.050042 534.632815 
L 196.983806 535.138648 
L 198.002458 535.368527 
L 198.596672 535.192034 
L 199.105998 535.121511 
L 199.615324 535.306541 
L 201.143302 536.310209 
L 202.077067 537.101361 
L 202.925943 538.111167 
L 203.944595 539.710355 
L 205.217911 542.17465 
L 207.594766 547.387612 
L 208.952968 550.143073 
L 209.122744 550.09208 
L 209.377407 549.763365 
L 210.056508 548.392899 
L 210.650722 546.771096 
L 211.160048 544.703002 
L 211.754262 541.294223 
L 212.433363 535.891455 
L 213.367127 526.463034 
L 216.423084 493.659288 
L 217.356848 486.061475 
L 218.290613 480.297252 
L 219.054602 476.800678 
L 221.431457 468.245756 
L 221.940783 466.961548 
L 222.365221 466.808481 
L 222.619884 465.8707 
L 224.147862 457.35386 
L 225.845616 447.086133 
L 226.354942 445.23314 
L 226.77938 444.392223 
L 227.118931 444.159893 
L 227.373594 444.22999 
L 227.713145 444.635829 
L 228.137583 445.61781 
L 228.646909 447.428717 
L 229.32601 450.750036 
L 230.259775 456.563195 
L 231.872641 468.327796 
L 234.589046 488.049215 
L 235.947249 496.318811 
L 237.475227 504.039386 
L 238.493879 508.417502 
L 239.597419 512.153188 
L 240.870734 515.389707 
L 241.719611 517.045682 
L 242.4836 518.01353 
L 243.247589 518.640978 
L 245.709332 520.249919 
L 246.473321 520.277054 
L 247.23731 520.265214 
L 247.746636 520.52229 
L 248.510625 521.009255 
L 249.614165 521.399694 
L 250.208379 521.711296 
L 251.566581 521.999737 
L 252.160795 522.322323 
L 252.585233 522.325368 
L 253.179447 522.272328 
L 253.688773 522.507022 
L 255.386527 523.467323 
L 255.810965 523.650674 
L 256.574954 524.369668 
L 257.169168 524.739834 
L 258.612258 525.573292 
L 259.800686 526.479112 
L 260.73445 526.9439 
L 263.450856 527.307839 
L 264.299733 527.477323 
L 264.978834 527.447072 
L 265.827711 527.789496 
L 266.846363 528.163032 
L 267.610352 528.202122 
L 270.326758 529.030294 
L 270.920971 528.925858 
L 272.44895 528.378086 
L 274.061815 528.62621 
L 274.571141 528.575685 
L 275.504906 528.405871 
L 276.09912 528.35132 
L 277.54221 528.099457 
L 278.221311 528.407353 
L 278.815525 528.564407 
L 280.513279 528.43408 
L 281.19238 528.17116 
L 281.616818 528.285002 
L 282.211032 528.457943 
L 282.635471 528.38269 
L 283.39946 528.241733 
L 283.908786 528.114419 
L 284.672775 527.893119 
L 285.182101 528.024729 
L 286.370528 528.688549 
L 287.304293 529.432524 
L 288.068282 530.333575 
L 288.917159 531.690116 
L 289.935811 533.750676 
L 291.463789 537.41083 
L 293.585981 542.557111 
L 294.434857 544.035279 
L 296.302386 547.782221 
L 298.679241 551.64606 
L 299.44323 552.614741 
L 300.207219 553.726031 
L 302.329411 556.925478 
L 303.602726 558.469727 
L 304.536491 559.291333 
L 305.30048 559.710759 
L 305.894694 559.832214 
L 306.488907 559.790088 
L 306.998233 559.539056 
L 307.592447 558.976033 
L 308.271549 557.976847 
L 308.95065 556.595053 
L 309.544864 554.977727 
L 310.308853 552.050465 
L 311.242617 547.678392 
L 312.346157 541.460868 
L 313.619472 532.83978 
L 319.137171 493.346844 
L 319.986048 489.974179 
L 321.089588 486.469377 
L 321.683801 485.193707 
L 322.193127 484.601328 
L 322.532678 484.482695 
L 322.872229 484.581744 
L 323.296667 485.003074 
L 323.805993 485.894538 
L 324.485095 487.639917 
L 325.418859 490.776454 
L 327.116612 497.462991 
L 333.313413 522.088487 
L 335.860043 531.063879 
L 337.982235 537.699708 
L 340.104427 543.61279 
L 342.226619 548.858043 
L 344.348811 553.507249 
L 346.55589 557.795655 
L 348.76297 561.608169 
L 351.054937 565.138761 
L 353.51668 568.517052 
L 356.06331 571.62807 
L 358.694828 574.493653 
L 361.496121 577.211609 
L 364.382302 579.705661 
L 367.438258 582.057067 
L 370.66399 584.263216 
L 374.144385 586.37255 
L 377.879442 588.370137 
L 381.869163 590.24603 
L 386.113547 591.994472 
L 390.697481 593.641605 
L 395.705854 595.201086 
L 401.138665 596.656249 
L 407.080803 598.01445 
L 413.617154 599.276983 
L 420.832606 600.441337 
L 428.896935 601.51335 
L 437.979917 602.490654 
L 448.251325 603.366654 
L 460.050712 604.14374 
L 473.802516 604.819707 
L 490.185837 605.394101 
L 510.219328 605.864536 
L 535.770519 606.230992 
L 570.659353 606.494266 
L 624.647915 606.656517 
L 671.675687 606.703985 
L 671.675687 606.703985 
" clip-path="url(#p92549950db)" style="fill: none; stroke: #ff7f0e; stroke-width: 1.5; stroke-linecap: square"/>
   </g>
   <g id="patch_9">
    <path d="M 30.103125 684.92 
L 30.103125 386.16 
" style="fill: none; stroke: #000000; stroke-width: 0.8; stroke-linejoin: miter; stroke-linecap: square"/>
   </g>
   <g id="patch_10">
    <path d="M 702.226761 684.92 
L 702.226761 386.16 
" style="fill: none; stroke: #000000; stroke-width: 0.8; stroke-linejoin: miter; stroke-linecap: square"/>
   </g>
   <g id="patch_11">
    <path d="M 30.103125 684.92 
L 702.226761 684.92 
" style="fill: none; stroke: #000000; stroke-width: 0.8; stroke-linejoin: miter; stroke-linecap: square"/>
   </g>
   <g id="patch_12">
    <path d="M 30.103125 386.16 
L 702.226761 386.16 
" style="fill: none; stroke: #000000; stroke-width: 0.8; stroke-linejoin: miter; stroke-linecap: square"/>
   </g>
   <g id="text_30">
    <!-- 2 transformation(s) -->
    <g transform="translate(308.050256 380.16) scale(0.12 -0.12)">
     <use xlink:href="#DejaVuSans-32"/>
     <use xlink:href="#DejaVuSans-20" x="63.623047"/>
     <use xlink:href="#DejaVuSans-74" x="95.410156"/>
     <use xlink:href="#DejaVuSans-72" x="134.619141"/>
     <use xlink:href="#DejaVuSans-61" x="175.732422"/>
     <use xlink:href="#DejaVuSans-6e" x="237.011719"/>
     <use xlink:href="#DejaVuSans-73" x="300.390625"/>
     <use xlink:href="#DejaVuSans-66" x="352.490234"/>
     <use xlink:href="#DejaVuSans-6f" x="387.695312"/>
     <use xlink:href="#DejaVuSans-72" x="448.876953"/>
     <use xlink:href="#DejaVuSans-6d" x="488.240234"/>
     <use xlink:href="#DejaVuSans-61" x="585.652344"/>
     <use xlink:href="#DejaVuSans-74" x="646.931641"/>
     <use xlink:href="#DejaVuSans-69" x="686.140625"/>
     <use xlink:href="#DejaVuSans-6f" x="713.923828"/>
     <use xlink:href="#DejaVuSans-6e" x="775.105469"/>
     <use xlink:href="#DejaVuSans-28" x="838.484375"/>
     <use xlink:href="#DejaVuSans-73" x="877.498047"/>
     <use xlink:href="#DejaVuSans-29" x="929.597656"/>
    </g>
   </g>
  </g>
  <g id="text_31">
   <!-- training -->
   <g transform="translate(333.219687 16.318125) scale(0.12 -0.12)">
    <defs>
     <path id="DejaVuSans-67" d="M 2906 1791 
Q 2906 2416 2648 2759 
Q 2391 3103 1925 3103 
Q 1463 3103 1205 2759 
Q 947 2416 947 1791 
Q 947 1169 1205 825 
Q 1463 481 1925 481 
Q 2391 481 2648 825 
Q 2906 1169 2906 1791 
z
M 3481 434 
Q 3481 -459 3084 -895 
Q 2688 -1331 1869 -1331 
Q 1566 -1331 1297 -1286 
Q 1028 -1241 775 -1147 
L 775 -588 
Q 1028 -725 1275 -790 
Q 1522 -856 1778 -856 
Q 2344 -856 2625 -561 
Q 2906 -266 2906 331 
L 2906 616 
Q 2728 306 2450 153 
Q 2172 0 1784 0 
Q 1141 0 747 490 
Q 353 981 353 1791 
Q 353 2603 747 3093 
Q 1141 3584 1784 3584 
Q 2172 3584 2450 3431 
Q 2728 3278 2906 2969 
L 2906 3500 
L 3481 3500 
L 3481 434 
z
" transform="scale(0.015625)"/>
    </defs>
    <use xlink:href="#DejaVuSans-74"/>
    <use xlink:href="#DejaVuSans-72" x="39.208984"/>
    <use xlink:href="#DejaVuSans-61" x="80.322266"/>
    <use xlink:href="#DejaVuSans-69" x="141.601562"/>
    <use xlink:href="#DejaVuSans-6e" x="169.384766"/>
    <use xlink:href="#DejaVuSans-69" x="232.763672"/>
    <use xlink:href="#DejaVuSans-6e" x="260.546875"/>
    <use xlink:href="#DejaVuSans-67" x="323.925781"/>
   </g>
  </g>
 </g>
 <defs>
  <clipPath id="pe4d21ae32b">
   <rect x="30.103125" y="43.44" width="672.123636" height="298.76"/>
  </clipPath>
  <clipPath id="p92549950db">
   <rect x="30.103125" y="386.16" width="672.123636" height="298.76"/>
  </clipPath>
 </defs>
</svg>
