<?xml version="1.0" encoding="utf-8" standalone="no"?>
<!DOCTYPE svg PUBLIC "-//W3C//DTD SVG 1.1//EN"
  "http://www.w3.org/Graphics/SVG/1.1/DTD/svg11.dtd">
<svg xmlns:xlink="http://www.w3.org/1999/xlink" width="709.489261pt" height="708.798125pt" viewBox="0 0 709.489261 708.798125" xmlns="http://www.w3.org/2000/svg" version="1.1">
 <metadata>
  <rdf:RDF xmlns:dc="http://purl.org/dc/elements/1.1/" xmlns:cc="http://creativecommons.org/ns#" xmlns:rdf="http://www.w3.org/1999/02/22-rdf-syntax-ns#">
   <cc:Work>
    <dc:type rdf:resource="http://purl.org/dc/dcmitype/StillImage"/>
    <dc:date>2023-05-26T09:48:37.841304</dc:date>
    <dc:format>image/svg+xml</dc:format>
    <dc:creator>
     <cc:Agent>
      <dc:title>Matplotlib v3.7.1, https://matplotlib.org/</dc:title>
     </cc:Agent>
    </dc:creator>
   </cc:Work>
  </rdf:RDF>
 </metadata>
 <defs>
  <style type="text/css">*{stroke-linejoin: round; stroke-linecap: butt}</style>
 </defs>
 <g id="figure_1">
  <g id="patch_1">
   <path d="M 0 708.798125 
L 709.489261 708.798125 
L 709.489261 0 
L 0 0 
z
" style="fill: #ffffff"/>
  </g>
  <g id="axes_1">
   <g id="patch_2">
    <path d="M 36.465625 342.2 
L 702.289261 342.2 
L 702.289261 43.44 
L 36.465625 43.44 
z
" style="fill: #ffffff"/>
   </g>
   <g id="matplotlib.axis_1">
    <g id="xtick_1">
     <g id="line2d_1">
      <defs>
       <path id="m95a5b6e81f" d="M 0 0 
L 0 3.5 
" style="stroke: #000000; stroke-width: 0.8"/>
      </defs>
      <g>
       <use xlink:href="#m95a5b6e81f" x="66.562152" y="342.2" style="stroke: #000000; stroke-width: 0.8"/>
      </g>
     </g>
     <g id="text_1">
      <!-- 2014-07-01 -->
      <g transform="translate(37.504339 356.798437) scale(0.1 -0.1)">
       <defs>
        <path id="DejaVuSans-32" d="M 1228 531 
L 3431 531 
L 3431 0 
L 469 0 
L 469 531 
Q 828 903 1448 1529 
Q 2069 2156 2228 2338 
Q 2531 2678 2651 2914 
Q 2772 3150 2772 3378 
Q 2772 3750 2511 3984 
Q 2250 4219 1831 4219 
Q 1534 4219 1204 4116 
Q 875 4013 500 3803 
L 500 4441 
Q 881 4594 1212 4672 
Q 1544 4750 1819 4750 
Q 2544 4750 2975 4387 
Q 3406 4025 3406 3419 
Q 3406 3131 3298 2873 
Q 3191 2616 2906 2266 
Q 2828 2175 2409 1742 
Q 1991 1309 1228 531 
z
" transform="scale(0.015625)"/>
        <path id="DejaVuSans-30" d="M 2034 4250 
Q 1547 4250 1301 3770 
Q 1056 3291 1056 2328 
Q 1056 1369 1301 889 
Q 1547 409 2034 409 
Q 2525 409 2770 889 
Q 3016 1369 3016 2328 
Q 3016 3291 2770 3770 
Q 2525 4250 2034 4250 
z
M 2034 4750 
Q 2819 4750 3233 4129 
Q 3647 3509 3647 2328 
Q 3647 1150 3233 529 
Q 2819 -91 2034 -91 
Q 1250 -91 836 529 
Q 422 1150 422 2328 
Q 422 3509 836 4129 
Q 1250 4750 2034 4750 
z
" transform="scale(0.015625)"/>
        <path id="DejaVuSans-31" d="M 794 531 
L 1825 531 
L 1825 4091 
L 703 3866 
L 703 4441 
L 1819 4666 
L 2450 4666 
L 2450 531 
L 3481 531 
L 3481 0 
L 794 0 
L 794 531 
z
" transform="scale(0.015625)"/>
        <path id="DejaVuSans-34" d="M 2419 4116 
L 825 1625 
L 2419 1625 
L 2419 4116 
z
M 2253 4666 
L 3047 4666 
L 3047 1625 
L 3713 1625 
L 3713 1100 
L 3047 1100 
L 3047 0 
L 2419 0 
L 2419 1100 
L 313 1100 
L 313 1709 
L 2253 4666 
z
" transform="scale(0.015625)"/>
        <path id="DejaVuSans-2d" d="M 313 2009 
L 1997 2009 
L 1997 1497 
L 313 1497 
L 313 2009 
z
" transform="scale(0.015625)"/>
        <path id="DejaVuSans-37" d="M 525 4666 
L 3525 4666 
L 3525 4397 
L 1831 0 
L 1172 0 
L 2766 4134 
L 525 4134 
L 525 4666 
z
" transform="scale(0.015625)"/>
       </defs>
       <use xlink:href="#DejaVuSans-32"/>
       <use xlink:href="#DejaVuSans-30" x="63.623047"/>
       <use xlink:href="#DejaVuSans-31" x="127.246094"/>
       <use xlink:href="#DejaVuSans-34" x="190.869141"/>
       <use xlink:href="#DejaVuSans-2d" x="254.492188"/>
       <use xlink:href="#DejaVuSans-30" x="290.576172"/>
       <use xlink:href="#DejaVuSans-37" x="354.199219"/>
       <use xlink:href="#DejaVuSans-2d" x="417.822266"/>
       <use xlink:href="#DejaVuSans-30" x="453.90625"/>
       <use xlink:href="#DejaVuSans-31" x="517.529297"/>
      </g>
     </g>
    </g>
    <g id="xtick_2">
     <g id="line2d_2">
      <g>
       <use xlink:href="#m95a5b6e81f" x="187.654632" y="342.2" style="stroke: #000000; stroke-width: 0.8"/>
      </g>
     </g>
     <g id="text_2">
      <!-- 2014-07-02 -->
      <g transform="translate(158.596819 356.798437) scale(0.1 -0.1)">
       <use xlink:href="#DejaVuSans-32"/>
       <use xlink:href="#DejaVuSans-30" x="63.623047"/>
       <use xlink:href="#DejaVuSans-31" x="127.246094"/>
       <use xlink:href="#DejaVuSans-34" x="190.869141"/>
       <use xlink:href="#DejaVuSans-2d" x="254.492188"/>
       <use xlink:href="#DejaVuSans-30" x="290.576172"/>
       <use xlink:href="#DejaVuSans-37" x="354.199219"/>
       <use xlink:href="#DejaVuSans-2d" x="417.822266"/>
       <use xlink:href="#DejaVuSans-30" x="453.90625"/>
       <use xlink:href="#DejaVuSans-32" x="517.529297"/>
      </g>
     </g>
    </g>
    <g id="xtick_3">
     <g id="line2d_3">
      <g>
       <use xlink:href="#m95a5b6e81f" x="308.747111" y="342.2" style="stroke: #000000; stroke-width: 0.8"/>
      </g>
     </g>
     <g id="text_3">
      <!-- 2014-07-03 -->
      <g transform="translate(279.689299 356.798437) scale(0.1 -0.1)">
       <defs>
        <path id="DejaVuSans-33" d="M 2597 2516 
Q 3050 2419 3304 2112 
Q 3559 1806 3559 1356 
Q 3559 666 3084 287 
Q 2609 -91 1734 -91 
Q 1441 -91 1130 -33 
Q 819 25 488 141 
L 488 750 
Q 750 597 1062 519 
Q 1375 441 1716 441 
Q 2309 441 2620 675 
Q 2931 909 2931 1356 
Q 2931 1769 2642 2001 
Q 2353 2234 1838 2234 
L 1294 2234 
L 1294 2753 
L 1863 2753 
Q 2328 2753 2575 2939 
Q 2822 3125 2822 3475 
Q 2822 3834 2567 4026 
Q 2313 4219 1838 4219 
Q 1578 4219 1281 4162 
Q 984 4106 628 3988 
L 628 4550 
Q 988 4650 1302 4700 
Q 1616 4750 1894 4750 
Q 2613 4750 3031 4423 
Q 3450 4097 3450 3541 
Q 3450 3153 3228 2886 
Q 3006 2619 2597 2516 
z
" transform="scale(0.015625)"/>
       </defs>
       <use xlink:href="#DejaVuSans-32"/>
       <use xlink:href="#DejaVuSans-30" x="63.623047"/>
       <use xlink:href="#DejaVuSans-31" x="127.246094"/>
       <use xlink:href="#DejaVuSans-34" x="190.869141"/>
       <use xlink:href="#DejaVuSans-2d" x="254.492188"/>
       <use xlink:href="#DejaVuSans-30" x="290.576172"/>
       <use xlink:href="#DejaVuSans-37" x="354.199219"/>
       <use xlink:href="#DejaVuSans-2d" x="417.822266"/>
       <use xlink:href="#DejaVuSans-30" x="453.90625"/>
       <use xlink:href="#DejaVuSans-33" x="517.529297"/>
      </g>
     </g>
    </g>
    <g id="xtick_4">
     <g id="line2d_4">
      <g>
       <use xlink:href="#m95a5b6e81f" x="429.839591" y="342.2" style="stroke: #000000; stroke-width: 0.8"/>
      </g>
     </g>
     <g id="text_4">
      <!-- 2014-07-04 -->
      <g transform="translate(400.781779 356.798437) scale(0.1 -0.1)">
       <use xlink:href="#DejaVuSans-32"/>
       <use xlink:href="#DejaVuSans-30" x="63.623047"/>
       <use xlink:href="#DejaVuSans-31" x="127.246094"/>
       <use xlink:href="#DejaVuSans-34" x="190.869141"/>
       <use xlink:href="#DejaVuSans-2d" x="254.492188"/>
       <use xlink:href="#DejaVuSans-30" x="290.576172"/>
       <use xlink:href="#DejaVuSans-37" x="354.199219"/>
       <use xlink:href="#DejaVuSans-2d" x="417.822266"/>
       <use xlink:href="#DejaVuSans-30" x="453.90625"/>
       <use xlink:href="#DejaVuSans-34" x="517.529297"/>
      </g>
     </g>
    </g>
    <g id="xtick_5">
     <g id="line2d_5">
      <g>
       <use xlink:href="#m95a5b6e81f" x="550.932071" y="342.2" style="stroke: #000000; stroke-width: 0.8"/>
      </g>
     </g>
     <g id="text_5">
      <!-- 2014-07-05 -->
      <g transform="translate(521.874258 356.798437) scale(0.1 -0.1)">
       <defs>
        <path id="DejaVuSans-35" d="M 691 4666 
L 3169 4666 
L 3169 4134 
L 1269 4134 
L 1269 2991 
Q 1406 3038 1543 3061 
Q 1681 3084 1819 3084 
Q 2600 3084 3056 2656 
Q 3513 2228 3513 1497 
Q 3513 744 3044 326 
Q 2575 -91 1722 -91 
Q 1428 -91 1123 -41 
Q 819 9 494 109 
L 494 744 
Q 775 591 1075 516 
Q 1375 441 1709 441 
Q 2250 441 2565 725 
Q 2881 1009 2881 1497 
Q 2881 1984 2565 2268 
Q 2250 2553 1709 2553 
Q 1456 2553 1204 2497 
Q 953 2441 691 2322 
L 691 4666 
z
" transform="scale(0.015625)"/>
       </defs>
       <use xlink:href="#DejaVuSans-32"/>
       <use xlink:href="#DejaVuSans-30" x="63.623047"/>
       <use xlink:href="#DejaVuSans-31" x="127.246094"/>
       <use xlink:href="#DejaVuSans-34" x="190.869141"/>
       <use xlink:href="#DejaVuSans-2d" x="254.492188"/>
       <use xlink:href="#DejaVuSans-30" x="290.576172"/>
       <use xlink:href="#DejaVuSans-37" x="354.199219"/>
       <use xlink:href="#DejaVuSans-2d" x="417.822266"/>
       <use xlink:href="#DejaVuSans-30" x="453.90625"/>
       <use xlink:href="#DejaVuSans-35" x="517.529297"/>
      </g>
     </g>
    </g>
    <g id="xtick_6">
     <g id="line2d_6">
      <g>
       <use xlink:href="#m95a5b6e81f" x="672.024551" y="342.2" style="stroke: #000000; stroke-width: 0.8"/>
      </g>
     </g>
     <g id="text_6">
      <!-- 2014-07-06 -->
      <g transform="translate(642.966738 356.798437) scale(0.1 -0.1)">
       <defs>
        <path id="DejaVuSans-36" d="M 2113 2584 
Q 1688 2584 1439 2293 
Q 1191 2003 1191 1497 
Q 1191 994 1439 701 
Q 1688 409 2113 409 
Q 2538 409 2786 701 
Q 3034 994 3034 1497 
Q 3034 2003 2786 2293 
Q 2538 2584 2113 2584 
z
M 3366 4563 
L 3366 3988 
Q 3128 4100 2886 4159 
Q 2644 4219 2406 4219 
Q 1781 4219 1451 3797 
Q 1122 3375 1075 2522 
Q 1259 2794 1537 2939 
Q 1816 3084 2150 3084 
Q 2853 3084 3261 2657 
Q 3669 2231 3669 1497 
Q 3669 778 3244 343 
Q 2819 -91 2113 -91 
Q 1303 -91 875 529 
Q 447 1150 447 2328 
Q 447 3434 972 4092 
Q 1497 4750 2381 4750 
Q 2619 4750 2861 4703 
Q 3103 4656 3366 4563 
z
" transform="scale(0.015625)"/>
       </defs>
       <use xlink:href="#DejaVuSans-32"/>
       <use xlink:href="#DejaVuSans-30" x="63.623047"/>
       <use xlink:href="#DejaVuSans-31" x="127.246094"/>
       <use xlink:href="#DejaVuSans-34" x="190.869141"/>
       <use xlink:href="#DejaVuSans-2d" x="254.492188"/>
       <use xlink:href="#DejaVuSans-30" x="290.576172"/>
       <use xlink:href="#DejaVuSans-37" x="354.199219"/>
       <use xlink:href="#DejaVuSans-2d" x="417.822266"/>
       <use xlink:href="#DejaVuSans-30" x="453.90625"/>
       <use xlink:href="#DejaVuSans-36" x="517.529297"/>
      </g>
     </g>
    </g>
   </g>
   <g id="matplotlib.axis_2">
    <g id="ytick_1">
     <g id="line2d_7">
      <defs>
       <path id="m2734b3c5b1" d="M 0 0 
L -3.5 0 
" style="stroke: #000000; stroke-width: 0.8"/>
      </defs>
      <g>
       <use xlink:href="#m2734b3c5b1" x="36.465625" y="328.570313" style="stroke: #000000; stroke-width: 0.8"/>
      </g>
     </g>
     <g id="text_7">
      <!-- 0.00 -->
      <g transform="translate(7.2 332.369532) scale(0.1 -0.1)">
       <defs>
        <path id="DejaVuSans-2e" d="M 684 794 
L 1344 794 
L 1344 0 
L 684 0 
L 684 794 
z
" transform="scale(0.015625)"/>
       </defs>
       <use xlink:href="#DejaVuSans-30"/>
       <use xlink:href="#DejaVuSans-2e" x="63.623047"/>
       <use xlink:href="#DejaVuSans-30" x="95.410156"/>
       <use xlink:href="#DejaVuSans-30" x="159.033203"/>
      </g>
     </g>
    </g>
    <g id="ytick_2">
     <g id="line2d_8">
      <g>
       <use xlink:href="#m2734b3c5b1" x="36.465625" y="288.836727" style="stroke: #000000; stroke-width: 0.8"/>
      </g>
     </g>
     <g id="text_8">
      <!-- 0.25 -->
      <g transform="translate(7.2 292.635946) scale(0.1 -0.1)">
       <use xlink:href="#DejaVuSans-30"/>
       <use xlink:href="#DejaVuSans-2e" x="63.623047"/>
       <use xlink:href="#DejaVuSans-32" x="95.410156"/>
       <use xlink:href="#DejaVuSans-35" x="159.033203"/>
      </g>
     </g>
    </g>
    <g id="ytick_3">
     <g id="line2d_9">
      <g>
       <use xlink:href="#m2734b3c5b1" x="36.465625" y="249.103141" style="stroke: #000000; stroke-width: 0.8"/>
      </g>
     </g>
     <g id="text_9">
      <!-- 0.50 -->
      <g transform="translate(7.2 252.90236) scale(0.1 -0.1)">
       <use xlink:href="#DejaVuSans-30"/>
       <use xlink:href="#DejaVuSans-2e" x="63.623047"/>
       <use xlink:href="#DejaVuSans-35" x="95.410156"/>
       <use xlink:href="#DejaVuSans-30" x="159.033203"/>
      </g>
     </g>
    </g>
    <g id="ytick_4">
     <g id="line2d_10">
      <g>
       <use xlink:href="#m2734b3c5b1" x="36.465625" y="209.369556" style="stroke: #000000; stroke-width: 0.8"/>
      </g>
     </g>
     <g id="text_10">
      <!-- 0.75 -->
      <g transform="translate(7.2 213.168774) scale(0.1 -0.1)">
       <use xlink:href="#DejaVuSans-30"/>
       <use xlink:href="#DejaVuSans-2e" x="63.623047"/>
       <use xlink:href="#DejaVuSans-37" x="95.410156"/>
       <use xlink:href="#DejaVuSans-35" x="159.033203"/>
      </g>
     </g>
    </g>
    <g id="ytick_5">
     <g id="line2d_11">
      <g>
       <use xlink:href="#m2734b3c5b1" x="36.465625" y="169.63597" style="stroke: #000000; stroke-width: 0.8"/>
      </g>
     </g>
     <g id="text_11">
      <!-- 1.00 -->
      <g transform="translate(7.2 173.435188) scale(0.1 -0.1)">
       <use xlink:href="#DejaVuSans-31"/>
       <use xlink:href="#DejaVuSans-2e" x="63.623047"/>
       <use xlink:href="#DejaVuSans-30" x="95.410156"/>
       <use xlink:href="#DejaVuSans-30" x="159.033203"/>
      </g>
     </g>
    </g>
    <g id="ytick_6">
     <g id="line2d_12">
      <g>
       <use xlink:href="#m2734b3c5b1" x="36.465625" y="129.902384" style="stroke: #000000; stroke-width: 0.8"/>
      </g>
     </g>
     <g id="text_12">
      <!-- 1.25 -->
      <g transform="translate(7.2 133.701603) scale(0.1 -0.1)">
       <use xlink:href="#DejaVuSans-31"/>
       <use xlink:href="#DejaVuSans-2e" x="63.623047"/>
       <use xlink:href="#DejaVuSans-32" x="95.410156"/>
       <use xlink:href="#DejaVuSans-35" x="159.033203"/>
      </g>
     </g>
    </g>
    <g id="ytick_7">
     <g id="line2d_13">
      <g>
       <use xlink:href="#m2734b3c5b1" x="36.465625" y="90.168798" style="stroke: #000000; stroke-width: 0.8"/>
      </g>
     </g>
     <g id="text_13">
      <!-- 1.50 -->
      <g transform="translate(7.2 93.968017) scale(0.1 -0.1)">
       <use xlink:href="#DejaVuSans-31"/>
       <use xlink:href="#DejaVuSans-2e" x="63.623047"/>
       <use xlink:href="#DejaVuSans-35" x="95.410156"/>
       <use xlink:href="#DejaVuSans-30" x="159.033203"/>
      </g>
     </g>
    </g>
    <g id="ytick_8">
     <g id="line2d_14">
      <g>
       <use xlink:href="#m2734b3c5b1" x="36.465625" y="50.435212" style="stroke: #000000; stroke-width: 0.8"/>
      </g>
     </g>
     <g id="text_14">
      <!-- 1.75 -->
      <g transform="translate(7.2 54.234431) scale(0.1 -0.1)">
       <use xlink:href="#DejaVuSans-31"/>
       <use xlink:href="#DejaVuSans-2e" x="63.623047"/>
       <use xlink:href="#DejaVuSans-37" x="95.410156"/>
       <use xlink:href="#DejaVuSans-35" x="159.033203"/>
      </g>
     </g>
    </g>
   </g>
   <g id="line2d_15">
    <path d="M 66.730336 328.564177 
L 68.748544 328.423387 
L 71.439488 328.034032 
L 73.121328 327.720999 
L 76.232732 327.390484 
L 80.521424 327.164645 
L 82.45554 326.364442 
L 83.128276 325.376685 
L 84.13738 322.871535 
L 84.55784 321.273254 
L 84.810116 320.852598 
L 85.146484 319.438577 
L 85.39876 318.983252 
L 85.735128 317.49072 
L 85.987404 317.133354 
L 86.323772 315.711329 
L 86.576048 315.434459 
L 86.828324 313.53073 
L 86.996508 313.252959 
L 87.0806 313.258435 
L 87.164692 313.143015 
L 87.416968 311.220806 
L 87.837428 310.05599 
L 89.1829 290.93974 
L 89.771544 286.035188 
L 90.02382 285.029998 
L 90.192004 284.515744 
L 90.44428 283.002188 
L 90.86474 282.389735 
L 91.117016 281.096317 
L 91.453384 280.70315 
L 91.70566 279.472204 
L 92.042028 278.957486 
L 92.294304 277.410627 
L 92.630672 276.145681 
L 93.051132 273.019668 
L 93.303408 270.700959 
L 93.892052 264.086829 
L 94.817064 251.335432 
L 95.06934 248.120367 
L 95.321616 243.577832 
L 95.742076 238.542974 
L 96.414812 230.015859 
L 97.17164 225.735761 
L 98.01256 221.283762 
L 98.685296 217.145848 
L 98.937572 210.223819 
L 99.189848 194.353268 
L 99.442124 192.476679 
L 99.6944 187.309925 
L 99.946676 185.740676 
L 100.11486 185.101243 
L 100.283044 184.771982 
L 100.367136 184.76987 
L 100.53532 184.044694 
L 100.703504 181.926367 
L 100.95578 181.029082 
L 101.123964 179.68756 
L 101.37624 175.766071 
L 101.628516 173.47877 
L 102.385344 159.699586 
L 103.05808 142.548596 
L 105.16038 70.382041 
L 105.749024 60.37445 
L 106.085392 57.83142 
L 106.337668 57.02 
L 106.505852 57.092072 
L 106.926312 58.410992 
L 107.514956 63.043209 
L 108.439968 74.192134 
L 109.196796 85.068723 
L 110.2059 100.397386 
L 111.04682 110.998853 
L 111.383188 115.007335 
L 111.46728 114.978025 
L 111.971832 116.161477 
L 112.224108 116.857247 
L 112.476384 117.309726 
L 112.72866 117.772683 
L 112.812752 117.76914 
L 113.065028 118.307465 
L 113.14912 118.370292 
L 113.233212 118.598691 
L 113.317304 118.480674 
L 113.401396 118.72082 
L 113.485488 118.563868 
L 113.56958 118.766822 
L 113.653672 118.571011 
L 113.737764 118.665781 
L 114.074132 117.655992 
L 114.158224 117.570657 
L 114.494592 115.805757 
L 114.578684 115.505229 
L 114.915052 113.516155 
L 114.999144 113.419736 
L 115.167328 112.567013 
L 115.25142 112.514228 
L 115.335512 112.141836 
L 115.419604 112.180525 
L 115.503696 112.267849 
L 115.587788 112.083576 
L 116.008248 113.94425 
L 116.260524 115.586774 
L 116.765076 122.777918 
L 116.849168 122.994078 
L 117.017352 126.521396 
L 117.437812 137.041299 
L 118.026456 145.308866 
L 119.287836 159.307262 
L 120.633308 171.266678 
L 121.221952 175.486857 
L 122.231056 181.556552 
L 123.24016 186.177468 
L 124.249264 189.863452 
L 125.34246 193.080228 
L 126.435656 195.642839 
L 127.276576 197.182636 
L 127.86522 197.887691 
L 128.117496 198.017966 
L 128.537956 198.695217 
L 129.54706 200.396996 
L 130.724348 202.156942 
L 132.06982 205.744405 
L 132.994832 207.492641 
L 134.424396 209.664094 
L 136.358512 212.189049 
L 137.199432 213.532618 
L 138.124444 214.839051 
L 138.628996 215.573094 
L 140.731296 218.481592 
L 141.235848 218.927146 
L 141.908584 219.464827 
L 142.329044 219.749753 
L 142.749504 220.152176 
L 143.00178 220.292938 
L 143.169964 220.412983 
L 144.179068 220.447485 
L 144.767712 221.291587 
L 145.52454 222.655589 
L 146.029092 223.273774 
L 146.533644 223.624406 
L 147.122288 223.778147 
L 148.131392 223.728754 
L 149.056404 223.780478 
L 149.72914 224.020169 
L 150.401876 224.497544 
L 151.242796 225.502142 
L 152.167808 227.114883 
L 155.867856 234.549309 
L 156.87696 236.710255 
L 158.306524 238.93688 
L 159.231536 239.987622 
L 159.567904 240.234096 
L 159.988364 240.485724 
L 160.24064 240.470472 
L 160.6611 240.370198 
L 161.754296 240.807823 
L 162.511124 241.337016 
L 163.18386 241.217957 
L 164.02478 241.615624 
L 164.277056 241.494528 
L 164.44524 241.276132 
L 164.8657 240.567667 
L 165.202068 240.373817 
L 166.54754 240.253384 
L 168.22938 241.25459 
L 168.565748 241.198016 
L 168.818024 241.006552 
L 169.406668 240.485032 
L 169.827128 240.226006 
L 170.33168 239.580339 
L 170.668048 239.59867 
L 171.1726 239.991411 
L 171.845336 240.518937 
L 172.097612 240.510212 
L 172.265796 240.405779 
L 172.770348 239.782744 
L 174.11582 238.945378 
L 174.368096 238.708964 
L 174.620372 238.978032 
L 175.545384 240.344933 
L 176.63858 241.20244 
L 177.05904 241.050252 
L 177.731776 240.673104 
L 178.152236 240.802253 
L 178.909064 241.147628 
L 179.329524 241.099059 
L 179.918168 240.860257 
L 180.170444 240.642345 
L 180.506812 240.222728 
L 180.759088 240.227958 
L 181.431824 240.432001 
L 181.852284 240.326081 
L 182.020468 240.203962 
L 182.356836 239.92705 
L 182.94548 239.877278 
L 183.618216 240.828617 
L 183.954584 241.173783 
L 185.8887 242.682963 
L 186.477344 242.399827 
L 187.654632 241.143185 
L 187.906908 241.232233 
L 189.000104 242.018113 
L 189.168288 242.026923 
L 190.261484 241.210123 
L 190.766036 241.564308 
L 191.102404 241.80093 
L 191.35468 241.800039 
L 191.859232 242.197697 
L 192.363784 242.545146 
L 192.700152 242.569796 
L 192.952428 242.224317 
L 193.204704 241.974811 
L 193.541072 242.124942 
L 194.129716 242.606609 
L 194.71836 242.630462 
L 195.55928 242.321029 
L 195.97974 242.373075 
L 196.4002 242.405511 
L 197.577488 242.097072 
L 198.250223 242.148995 
L 198.502499 241.909967 
L 198.838867 241.325099 
L 199.259327 240.380448 
L 199.511603 240.449015 
L 199.847971 240.863564 
L 200.688891 241.816958 
L 201.361627 242.218216 
L 201.782087 242.301182 
L 201.950271 242.144154 
L 202.286639 241.680591 
L 202.791191 241.715472 
L 203.211651 242.364748 
L 204.136663 243.914719 
L 204.809399 244.585442 
L 205.734411 245.0811 
L 208.929907 246.607966 
L 209.854919 247.417785 
L 211.200391 248.925903 
L 212.461771 250.50285 
L 212.545863 250.411253 
L 212.714047 249.573195 
L 212.966323 250.293619 
L 213.050415 250.137766 
L 213.218599 247.899271 
L 213.386783 242.884146 
L 213.639059 234.142557 
L 213.723151 233.706334 
L 213.807243 233.845154 
L 213.891335 233.830234 
L 214.143611 230.242373 
L 214.227703 230.48412 
L 214.479979 233.018947 
L 214.732255 231.033804 
L 214.816347 231.480211 
L 214.984531 233.712378 
L 215.152715 235.873514 
L 215.236807 235.527883 
L 215.404991 233.970949 
L 215.489083 234.105488 
L 215.741359 236.241928 
L 215.825451 235.857637 
L 215.993635 234.409048 
L 216.077727 234.612656 
L 216.330003 236.895694 
L 216.414095 236.659517 
L 216.582279 235.528291 
L 216.666371 235.683292 
L 216.918647 237.473485 
L 217.086831 236.545914 
L 217.255015 236.036861 
L 217.507291 236.952514 
L 217.927751 234.870224 
L 218.011843 234.905549 
L 218.095935 234.836281 
L 218.180027 234.606536 
L 218.936855 226.759409 
L 220.198235 206.293028 
L 220.618695 198.984169 
L 221.039155 196.602487 
L 221.711891 193.954038 
L 222.300535 192.462687 
L 223.057363 191.208953 
L 223.309639 190.526388 
L 223.561915 190.314018 
L 223.814191 189.054079 
L 223.898283 189.070145 
L 224.150559 189.579938 
L 224.234651 189.344414 
L 224.486927 187.128513 
L 224.739203 187.795845 
L 224.823295 187.172564 
L 225.075571 183.265938 
L 225.159663 183.632997 
L 225.243755 184.516072 
L 225.327847 184.505841 
L 225.748307 178.493091 
L 225.832399 178.157729 
L 225.916491 178.201779 
L 226.084675 177.976762 
L 226.252859 178.367845 
L 226.336951 178.353739 
L 226.505135 178.871887 
L 226.589227 178.779618 
L 226.757411 179.08458 
L 226.841503 178.853888 
L 226.925595 178.892141 
L 227.009687 179.061522 
L 227.177871 178.37854 
L 227.261963 178.441717 
L 227.346055 179.110195 
L 227.598331 177.694384 
L 227.682423 179.04538 
L 227.766515 178.723252 
L 227.934699 177.011526 
L 228.271067 182.248684 
L 228.355159 182.390631 
L 228.439251 182.174026 
L 228.691527 180.11736 
L 229.868815 168.013534 
L 230.205183 166.704808 
L 230.457459 166.436337 
L 230.625643 166.526011 
L 230.877919 167.00996 
L 231.298379 168.538218 
L 231.971115 172.125852 
L 234.662059 187.726122 
L 236.007531 193.905573 
L 237.353003 199.079489 
L 238.193923 201.886974 
L 238.614383 205.153863 
L 240.043947 217.127868 
L 241.053051 223.403879 
L 241.893971 227.624296 
L 242.818983 231.219299 
L 244.416731 236.037571 
L 245.257651 238.220373 
L 245.930387 238.963604 
L 246.098571 238.931319 
L 246.434939 238.75202 
L 246.687215 238.94318 
L 247.023583 239.298577 
L 247.780411 241.0199 
L 248.369055 242.179196 
L 248.789515 242.646936 
L 249.125883 242.731238 
L 249.630435 242.280834 
L 250.471355 241.074618 
L 250.723631 241.065021 
L 251.059999 241.360036 
L 251.480459 241.683774 
L 251.648643 241.631065 
L 252.573655 240.786366 
L 253.330483 240.756687 
L 254.087311 239.21436 
L 254.339587 238.899878 
L 254.591863 239.05413 
L 255.180507 239.566196 
L 255.685059 239.141928 
L 256.273703 238.198338 
L 256.610071 238.495987 
L 257.955543 240.105933 
L 258.376003 240.022966 
L 258.796463 239.72617 
L 259.216923 239.763968 
L 259.973751 239.949378 
L 260.394211 239.610493 
L 261.319223 238.5765 
L 261.655591 238.672141 
L 262.412419 239.215639 
L 263.085155 239.599125 
L 263.673799 239.945258 
L 264.178351 239.565694 
L 264.682903 239.374666 
L 265.607915 240.124785 
L 266.028375 240.437392 
L 266.532927 240.875784 
L 267.205663 241.580876 
L 267.373847 241.545579 
L 267.710215 241.301426 
L 268.130675 241.470314 
L 269.476147 242.27371 
L 269.812515 242.103031 
L 270.401159 241.257583 
L 270.737527 241.055946 
L 271.494355 241.220088 
L 271.914815 240.812806 
L 272.251183 241.003843 
L 272.923919 241.505147 
L 273.512563 241.392975 
L 273.933023 241.141262 
L 274.353483 240.478581 
L 274.521667 240.343512 
L 274.773943 239.859913 
L 274.942127 239.917861 
L 275.362587 240.813498 
L 275.951231 242.058128 
L 276.708059 243.017529 
L 277.296703 243.367508 
L 277.717163 243.195701 
L 278.642175 242.334661 
L 278.810359 242.17283 
L 279.819463 240.214742 
L 280.408107 240.245625 
L 280.828567 241.012729 
L 281.333119 241.852047 
L 281.837671 242.301097 
L 282.510407 242.335201 
L 282.930867 242.525944 
L 283.099051 242.425528 
L 284.108155 240.931278 
L 284.444523 241.333511 
L 284.864983 241.886852 
L 285.285443 241.943104 
L 285.453627 241.877057 
L 285.874087 241.360406 
L 286.294547 241.541354 
L 286.546823 241.645379 
L 286.715007 241.459998 
L 287.051375 241.072221 
L 287.555927 241.356863 
L 288.144571 242.337758 
L 288.649123 243.093978 
L 289.237767 243.664408 
L 289.826411 243.94329 
L 291.171883 244.21844 
L 292.433263 244.533671 
L 293.274183 244.960506 
L 294.115103 245.629543 
L 295.124207 246.742363 
L 296.637863 248.818648 
L 299.833359 254.111694 
L 300.674279 255.397376 
L 303.197039 258.445917 
L 308.074375 263.624323 
L 308.831203 264.067565 
L 309.083479 264.046497 
L 309.419847 264.20523 
L 309.672123 264.118555 
L 310.008491 264.24237 
L 310.260767 264.097899 
L 310.597135 264.190551 
L 310.849411 263.990591 
L 311.185779 264.060517 
L 311.438055 263.817112 
L 311.606239 263.810813 
L 311.774423 263.500299 
L 312.026699 262.179987 
L 312.278975 259.45194 
L 312.531251 257.336749 
L 312.699435 256.518878 
L 312.951711 254.608744 
L 313.119895 254.689371 
L 313.203987 254.935651 
L 313.288079 254.760297 
L 313.540355 253.459211 
L 313.708539 253.788226 
L 313.792631 254.042672 
L 313.876723 253.877127 
L 314.128999 252.647678 
L 314.297183 252.918309 
L 314.381275 253.172584 
L 314.465367 253.016698 
L 314.717643 251.871266 
L 314.801735 251.97406 
L 315.054011 253.011393 
L 315.138103 252.932414 
L 315.474471 251.614528 
L 315.642655 251.599641 
L 316.147207 249.319786 
L 316.231299 249.386458 
L 316.399483 248.430008 
L 316.651759 247.16503 
L 316.819943 246.951153 
L 317.324495 243.818831 
L 317.408587 243.701268 
L 317.913139 240.532882 
L 318.081323 240.183547 
L 319.090427 232.411022 
L 319.426795 230.800592 
L 319.763163 229.024211 
L 320.099531 227.107332 
L 320.267715 226.032955 
L 320.435899 223.489318 
L 320.856359 209.182778 
L 320.940451 208.876802 
L 321.108635 209.800859 
L 321.613187 213.017558 
L 321.865463 213.797271 
L 322.117739 213.954716 
L 322.285923 213.824185 
L 322.538199 213.357193 
L 323.042751 211.651339 
L 324.135947 206.461802 
L 325.229143 201.451101 
L 325.481419 201.011695 
L 325.901879 200.827337 
L 326.322339 200.862558 
L 326.742799 201.082943 
L 327.163259 201.468333 
L 327.415535 202.090118 
L 327.751903 203.379888 
L 328.424639 207.020069 
L 331.788319 226.928251 
L 332.881515 231.455685 
L 335.404275 240.304861 
L 337.086115 245.118501 
L 338.599771 248.856701 
L 340.617979 253.362722 
L 341.711175 255.450961 
L 348.018075 264.290939 
L 351.297663 268.10783 
L 353.736331 270.629664 
L 356.006815 272.670414 
L 358.697759 274.799938 
L 361.556887 276.767485 
L 364.920567 278.758984 
L 367.695603 280.184074 
L 371.143375 281.723246 
L 375.432067 283.366647 
L 381.907151 285.469916 
L 387.373131 287.020332 
L 395.950515 289.226912 
L 415.543951 294.094063 
L 425.046347 296.729782 
L 430.764603 298.339839 
L 439.930631 301.089417 
L 450.358039 304.097552 
L 458.851331 306.084449 
L 466.251427 307.499602 
L 475.669731 308.959473 
L 483.069827 309.890981 
L 490.890383 310.729468 
L 503.083723 311.819862 
L 514.015683 312.629132 
L 530.581807 313.630442 
L 547.820667 314.469553 
L 572.375531 315.435174 
L 597.434947 316.23571 
L 632.333127 317.138866 
L 672.024551 317.967959 
L 672.024551 317.967959 
" clip-path="url(#p0983efcf0e)" style="fill: none; stroke: #1f77b4; stroke-width: 1.5; stroke-linecap: square"/>
   </g>
   <g id="line2d_16">
    <path d="M 66.730336 328.570313 
L 69.925832 328.474075 
L 71.271304 328.030507 
L 73.037236 326.97295 
L 74.719076 325.506416 
L 77.325928 323.049763 
L 78.503216 322.275704 
L 79.428228 321.905269 
L 80.437332 321.625724 
L 80.857792 321.559683 
L 82.539632 320.977244 
L 83.632828 320.088777 
L 85.062392 317.844347 
L 86.323772 314.82203 
L 87.585152 310.779019 
L 88.76244 305.863155 
L 90.02382 299.189782 
L 92.378396 283.325346 
L 96.582996 250.514329 
L 98.348928 237.447378 
L 100.11486 226.819762 
L 100.53532 224.086196 
L 101.123964 218.783066 
L 101.628516 212.077164 
L 102.133068 202.421142 
L 102.805804 183.369931 
L 103.646724 150.320187 
L 105.076288 91.672428 
L 105.664932 75.393448 
L 106.169484 66.683801 
L 106.589944 62.917059 
L 106.926312 61.918735 
L 107.094496 61.953183 
L 107.430864 63.215921 
L 107.767232 65.488278 
L 108.52406 73.409598 
L 109.617256 88.11144 
L 110.710452 102.863679 
L 111.46728 111.161174 
L 112.476384 118.57858 
L 112.896844 119.723058 
L 113.14912 119.832688 
L 113.317304 119.855989 
L 114.4105 118.770719 
L 114.83096 119.149821 
L 115.083236 119.792016 
L 115.587788 121.955894 
L 116.176432 125.801765 
L 117.101444 133.714925 
L 120.885584 167.806728 
L 122.567424 180.358529 
L 124.165172 190.5324 
L 125.426552 197.406549 
L 126.940208 204.378731 
L 128.28568 209.572341 
L 129.042508 211.795965 
L 130.051612 213.965798 
L 131.817544 216.818882 
L 133.247108 218.901758 
L 134.003936 219.994161 
L 137.031248 223.869766 
L 138.881272 225.549711 
L 140.731296 226.533973 
L 142.665412 226.774956 
L 144.347252 226.331255 
L 147.038196 224.799162 
L 147.710932 224.752522 
L 148.299576 224.921354 
L 148.972312 225.367681 
L 149.72914 226.178347 
L 150.654152 227.553813 
L 151.83144 229.75924 
L 153.176912 232.748551 
L 153.765556 234.094473 
L 154.3542 235.287627 
L 154.942844 236.334211 
L 155.783764 237.444469 
L 156.961052 238.532441 
L 158.306524 239.303427 
L 159.82018 240.00228 
L 160.156548 240.117615 
L 161.754296 240.343289 
L 164.108872 240.177471 
L 164.277056 240.198262 
L 166.883908 239.794128 
L 168.313472 239.387707 
L 168.565748 239.370403 
L 169.49076 239.270653 
L 169.827128 239.354886 
L 171.845336 239.337585 
L 172.181704 239.446888 
L 173.106716 239.508707 
L 173.443084 239.58939 
L 175.124924 239.37526 
L 177.984052 238.355724 
L 179.245432 238.188153 
L 179.665892 238.188997 
L 179.834076 238.229759 
L 180.086352 238.279236 
L 181.011364 238.383785 
L 181.26364 238.443632 
L 182.272744 238.62011 
L 182.52502 238.655483 
L 184.20686 238.5048 
L 185.636424 238.301923 
L 186.393252 238.377302 
L 186.813712 238.493845 
L 189.756932 238.853753 
L 191.522864 238.364566 
L 196.147924 235.949059 
L 196.4002 235.897576 
L 197.325212 235.708404 
L 197.997947 235.72687 
L 198.250223 235.789845 
L 198.586591 235.878934 
L 198.838867 235.971076 
L 203.043467 236.587817 
L 205.313951 236.544671 
L 206.070779 236.810286 
L 206.827607 237.305668 
L 207.668527 238.121801 
L 208.677631 239.415601 
L 210.107195 241.653582 
L 213.807243 247.687117 
L 214.479979 247.379173 
L 214.816347 246.737789 
L 215.657267 243.880119 
L 216.582279 238.247388 
L 217.759567 228.118076 
L 220.282327 204.052419 
L 221.459615 196.455442 
L 222.048259 193.829103 
L 222.552811 192.16656 
L 223.057363 191.032887 
L 223.393731 190.470218 
L 223.477823 190.432117 
L 223.814191 189.952003 
L 224.739203 188.974797 
L 224.991479 188.659014 
L 225.075571 188.612856 
L 225.411939 187.706837 
L 225.664215 187.306633 
L 226.084675 186.182877 
L 226.505135 184.200581 
L 227.009687 180.365271 
L 227.682423 173.422002 
L 228.859711 161.566551 
L 229.364263 158.586778 
L 229.784723 157.317496 
L 230.036999 157.0496 
L 230.289275 157.107931 
L 230.541551 157.451342 
L 230.962011 158.545539 
L 231.550655 160.888139 
L 232.475667 165.71805 
L 234.073415 175.482168 
L 237.437095 196.177274 
L 239.287119 205.993323 
L 240.716683 212.143249 
L 241.978063 216.457069 
L 243.323535 220.134857 
L 244.080363 221.837817 
L 245.594019 224.337309 
L 246.687215 225.46566 
L 247.612227 225.876852 
L 248.116779 225.957868 
L 248.789515 226.026533 
L 249.125883 226.122275 
L 249.462251 226.184817 
L 249.714527 226.249192 
L 251.228183 226.431573 
L 251.564551 226.550012 
L 252.489563 226.711472 
L 255.516875 227.522232 
L 255.769151 227.596729 
L 259.301015 227.916045 
L 259.721475 228.090933 
L 259.973751 228.232083 
L 260.394211 228.467381 
L 260.730579 228.683616 
L 264.178351 230.458342 
L 265.944283 230.794846 
L 269.392055 230.749382 
L 269.728423 230.900611 
L 270.569343 231.120653 
L 271.073895 231.281299 
L 271.242079 231.364073 
L 271.494355 231.465532 
L 274.858035 232.022594 
L 275.614863 231.856788 
L 277.296703 231.287754 
L 277.548979 231.265413 
L 278.221715 231.227905 
L 278.558083 231.26934 
L 278.810359 231.325686 
L 279.146727 231.396099 
L 279.399003 231.466091 
L 281.249027 231.468638 
L 282.678591 231.256838 
L 283.014959 231.331618 
L 283.351327 231.355984 
L 283.603603 231.395001 
L 285.117259 231.398096 
L 285.453627 231.47607 
L 286.378639 231.46051 
L 286.546823 231.48446 
L 288.060479 231.191629 
L 289.490043 230.88936 
L 290.246871 230.973568 
L 290.919607 231.27003 
L 291.676435 231.87041 
L 292.517355 232.847259 
L 293.610551 234.510941 
L 295.124207 237.280707 
L 298.235611 243.091773 
L 299.665175 244.961157 
L 302.272027 248.328459 
L 304.374327 250.921525 
L 308.578927 255.633985 
L 309.672123 256.230575 
L 310.765319 256.198939 
L 311.522147 255.713944 
L 312.699435 254.299317 
L 313.876723 251.773687 
L 315.054011 247.895811 
L 316.315391 242.371443 
L 318.754059 229.286145 
L 320.688175 218.471681 
L 323.126843 206.373462 
L 323.883671 203.704685 
L 324.556407 202.209778 
L 325.145051 201.549106 
L 325.649603 201.41076 
L 326.154155 201.642094 
L 326.574615 202.070662 
L 327.163259 202.95895 
L 327.920087 204.495769 
L 328.929191 207.033015 
L 331.956503 215.357171 
L 338.767955 233.451093 
L 341.206623 239.104361 
L 343.561199 244.016044 
L 345.915775 248.422546 
L 348.354443 252.521018 
L 350.961295 256.463754 
L 353.736331 260.251434 
L 356.679551 263.890612 
L 359.875047 267.480023 
L 363.238727 270.922836 
L 366.854683 274.305848 
L 370.722915 277.620798 
L 374.843423 280.862071 
L 379.300299 284.084005 
L 384.093543 287.269521 
L 389.139063 290.354778 
L 394.520951 293.383998 
L 400.239207 296.344044 
L 406.209739 299.183772 
L 412.516639 301.935085 
L 419.075815 304.552428 
L 425.887267 307.031067 
L 432.950995 309.365833 
L 440.351091 311.575489 
L 448.003463 313.626817 
L 455.992203 315.535906 
L 464.317311 317.294798 
L 473.062879 318.912854 
L 482.312999 320.39451 
L 492.067671 321.730233 
L 502.579171 322.942179 
L 513.931591 324.023991 
L 526.377207 324.982872 
L 540.252387 325.823479 
L 555.893499 326.543286 
L 574.057371 327.150189 
L 595.753107 327.644637 
L 622.830731 328.029326 
L 658.990291 328.307071 
L 672.024551 328.367373 
L 672.024551 328.367373 
" clip-path="url(#p0983efcf0e)" style="fill: none; stroke: #ff7f0e; stroke-width: 1.5; stroke-linecap: square"/>
   </g>
   <g id="patch_3">
    <path d="M 36.465625 342.2 
L 36.465625 43.44 
" style="fill: none; stroke: #000000; stroke-width: 0.8; stroke-linejoin: miter; stroke-linecap: square"/>
   </g>
   <g id="patch_4">
    <path d="M 702.289261 342.2 
L 702.289261 43.44 
" style="fill: none; stroke: #000000; stroke-width: 0.8; stroke-linejoin: miter; stroke-linecap: square"/>
   </g>
   <g id="patch_5">
    <path d="M 36.465625 342.2 
L 702.289261 342.2 
" style="fill: none; stroke: #000000; stroke-width: 0.8; stroke-linejoin: miter; stroke-linecap: square"/>
   </g>
   <g id="patch_6">
    <path d="M 36.465625 43.44 
L 702.289261 43.44 
" style="fill: none; stroke: #000000; stroke-width: 0.8; stroke-linejoin: miter; stroke-linecap: square"/>
   </g>
   <g id="text_15">
    <!-- 1 transformation(s) -->
    <g transform="translate(311.262756 37.44) scale(0.12 -0.12)">
     <defs>
      <path id="DejaVuSans-20" transform="scale(0.015625)"/>
      <path id="DejaVuSans-74" d="M 1172 4494 
L 1172 3500 
L 2356 3500 
L 2356 3053 
L 1172 3053 
L 1172 1153 
Q 1172 725 1289 603 
Q 1406 481 1766 481 
L 2356 481 
L 2356 0 
L 1766 0 
Q 1100 0 847 248 
Q 594 497 594 1153 
L 594 3053 
L 172 3053 
L 172 3500 
L 594 3500 
L 594 4494 
L 1172 4494 
z
" transform="scale(0.015625)"/>
      <path id="DejaVuSans-72" d="M 2631 2963 
Q 2534 3019 2420 3045 
Q 2306 3072 2169 3072 
Q 1681 3072 1420 2755 
Q 1159 2438 1159 1844 
L 1159 0 
L 581 0 
L 581 3500 
L 1159 3500 
L 1159 2956 
Q 1341 3275 1631 3429 
Q 1922 3584 2338 3584 
Q 2397 3584 2469 3576 
Q 2541 3569 2628 3553 
L 2631 2963 
z
" transform="scale(0.015625)"/>
      <path id="DejaVuSans-61" d="M 2194 1759 
Q 1497 1759 1228 1600 
Q 959 1441 959 1056 
Q 959 750 1161 570 
Q 1363 391 1709 391 
Q 2188 391 2477 730 
Q 2766 1069 2766 1631 
L 2766 1759 
L 2194 1759 
z
M 3341 1997 
L 3341 0 
L 2766 0 
L 2766 531 
Q 2569 213 2275 61 
Q 1981 -91 1556 -91 
Q 1019 -91 701 211 
Q 384 513 384 1019 
Q 384 1609 779 1909 
Q 1175 2209 1959 2209 
L 2766 2209 
L 2766 2266 
Q 2766 2663 2505 2880 
Q 2244 3097 1772 3097 
Q 1472 3097 1187 3025 
Q 903 2953 641 2809 
L 641 3341 
Q 956 3463 1253 3523 
Q 1550 3584 1831 3584 
Q 2591 3584 2966 3190 
Q 3341 2797 3341 1997 
z
" transform="scale(0.015625)"/>
      <path id="DejaVuSans-6e" d="M 3513 2113 
L 3513 0 
L 2938 0 
L 2938 2094 
Q 2938 2591 2744 2837 
Q 2550 3084 2163 3084 
Q 1697 3084 1428 2787 
Q 1159 2491 1159 1978 
L 1159 0 
L 581 0 
L 581 3500 
L 1159 3500 
L 1159 2956 
Q 1366 3272 1645 3428 
Q 1925 3584 2291 3584 
Q 2894 3584 3203 3211 
Q 3513 2838 3513 2113 
z
" transform="scale(0.015625)"/>
      <path id="DejaVuSans-73" d="M 2834 3397 
L 2834 2853 
Q 2591 2978 2328 3040 
Q 2066 3103 1784 3103 
Q 1356 3103 1142 2972 
Q 928 2841 928 2578 
Q 928 2378 1081 2264 
Q 1234 2150 1697 2047 
L 1894 2003 
Q 2506 1872 2764 1633 
Q 3022 1394 3022 966 
Q 3022 478 2636 193 
Q 2250 -91 1575 -91 
Q 1294 -91 989 -36 
Q 684 19 347 128 
L 347 722 
Q 666 556 975 473 
Q 1284 391 1588 391 
Q 1994 391 2212 530 
Q 2431 669 2431 922 
Q 2431 1156 2273 1281 
Q 2116 1406 1581 1522 
L 1381 1569 
Q 847 1681 609 1914 
Q 372 2147 372 2553 
Q 372 3047 722 3315 
Q 1072 3584 1716 3584 
Q 2034 3584 2315 3537 
Q 2597 3491 2834 3397 
z
" transform="scale(0.015625)"/>
      <path id="DejaVuSans-66" d="M 2375 4863 
L 2375 4384 
L 1825 4384 
Q 1516 4384 1395 4259 
Q 1275 4134 1275 3809 
L 1275 3500 
L 2222 3500 
L 2222 3053 
L 1275 3053 
L 1275 0 
L 697 0 
L 697 3053 
L 147 3053 
L 147 3500 
L 697 3500 
L 697 3744 
Q 697 4328 969 4595 
Q 1241 4863 1831 4863 
L 2375 4863 
z
" transform="scale(0.015625)"/>
      <path id="DejaVuSans-6f" d="M 1959 3097 
Q 1497 3097 1228 2736 
Q 959 2375 959 1747 
Q 959 1119 1226 758 
Q 1494 397 1959 397 
Q 2419 397 2687 759 
Q 2956 1122 2956 1747 
Q 2956 2369 2687 2733 
Q 2419 3097 1959 3097 
z
M 1959 3584 
Q 2709 3584 3137 3096 
Q 3566 2609 3566 1747 
Q 3566 888 3137 398 
Q 2709 -91 1959 -91 
Q 1206 -91 779 398 
Q 353 888 353 1747 
Q 353 2609 779 3096 
Q 1206 3584 1959 3584 
z
" transform="scale(0.015625)"/>
      <path id="DejaVuSans-6d" d="M 3328 2828 
Q 3544 3216 3844 3400 
Q 4144 3584 4550 3584 
Q 5097 3584 5394 3201 
Q 5691 2819 5691 2113 
L 5691 0 
L 5113 0 
L 5113 2094 
Q 5113 2597 4934 2840 
Q 4756 3084 4391 3084 
Q 3944 3084 3684 2787 
Q 3425 2491 3425 1978 
L 3425 0 
L 2847 0 
L 2847 2094 
Q 2847 2600 2669 2842 
Q 2491 3084 2119 3084 
Q 1678 3084 1418 2786 
Q 1159 2488 1159 1978 
L 1159 0 
L 581 0 
L 581 3500 
L 1159 3500 
L 1159 2956 
Q 1356 3278 1631 3431 
Q 1906 3584 2284 3584 
Q 2666 3584 2933 3390 
Q 3200 3197 3328 2828 
z
" transform="scale(0.015625)"/>
      <path id="DejaVuSans-69" d="M 603 3500 
L 1178 3500 
L 1178 0 
L 603 0 
L 603 3500 
z
M 603 4863 
L 1178 4863 
L 1178 4134 
L 603 4134 
L 603 4863 
z
" transform="scale(0.015625)"/>
      <path id="DejaVuSans-28" d="M 1984 4856 
Q 1566 4138 1362 3434 
Q 1159 2731 1159 2009 
Q 1159 1288 1364 580 
Q 1569 -128 1984 -844 
L 1484 -844 
Q 1016 -109 783 600 
Q 550 1309 550 2009 
Q 550 2706 781 3412 
Q 1013 4119 1484 4856 
L 1984 4856 
z
" transform="scale(0.015625)"/>
      <path id="DejaVuSans-29" d="M 513 4856 
L 1013 4856 
Q 1481 4119 1714 3412 
Q 1947 2706 1947 2009 
Q 1947 1309 1714 600 
Q 1481 -109 1013 -844 
L 513 -844 
Q 928 -128 1133 580 
Q 1338 1288 1338 2009 
Q 1338 2731 1133 3434 
Q 928 4138 513 4856 
z
" transform="scale(0.015625)"/>
     </defs>
     <use xlink:href="#DejaVuSans-31"/>
     <use xlink:href="#DejaVuSans-20" x="63.623047"/>
     <use xlink:href="#DejaVuSans-74" x="95.410156"/>
     <use xlink:href="#DejaVuSans-72" x="134.619141"/>
     <use xlink:href="#DejaVuSans-61" x="175.732422"/>
     <use xlink:href="#DejaVuSans-6e" x="237.011719"/>
     <use xlink:href="#DejaVuSans-73" x="300.390625"/>
     <use xlink:href="#DejaVuSans-66" x="352.490234"/>
     <use xlink:href="#DejaVuSans-6f" x="387.695312"/>
     <use xlink:href="#DejaVuSans-72" x="448.876953"/>
     <use xlink:href="#DejaVuSans-6d" x="488.240234"/>
     <use xlink:href="#DejaVuSans-61" x="585.652344"/>
     <use xlink:href="#DejaVuSans-74" x="646.931641"/>
     <use xlink:href="#DejaVuSans-69" x="686.140625"/>
     <use xlink:href="#DejaVuSans-6f" x="713.923828"/>
     <use xlink:href="#DejaVuSans-6e" x="775.105469"/>
     <use xlink:href="#DejaVuSans-28" x="838.484375"/>
     <use xlink:href="#DejaVuSans-73" x="877.498047"/>
     <use xlink:href="#DejaVuSans-29" x="929.597656"/>
    </g>
   </g>
   <g id="legend_1">
    <g id="patch_7">
     <path d="M 613.895511 80.79625 
L 695.289261 80.79625 
Q 697.289261 80.79625 697.289261 78.79625 
L 697.289261 50.44 
Q 697.289261 48.44 695.289261 48.44 
L 613.895511 48.44 
Q 611.895511 48.44 611.895511 50.44 
L 611.895511 78.79625 
Q 611.895511 80.79625 613.895511 80.79625 
z
" style="fill: #ffffff; opacity: 0.8; stroke: #cccccc; stroke-linejoin: miter"/>
    </g>
    <g id="line2d_17">
     <path d="M 615.895511 56.538437 
L 625.895511 56.538437 
L 635.895511 56.538437 
" style="fill: none; stroke: #1f77b4; stroke-width: 1.5; stroke-linecap: square"/>
    </g>
    <g id="text_16">
     <!-- observed -->
     <g transform="translate(643.895511 60.038437) scale(0.1 -0.1)">
      <defs>
       <path id="DejaVuSans-62" d="M 3116 1747 
Q 3116 2381 2855 2742 
Q 2594 3103 2138 3103 
Q 1681 3103 1420 2742 
Q 1159 2381 1159 1747 
Q 1159 1113 1420 752 
Q 1681 391 2138 391 
Q 2594 391 2855 752 
Q 3116 1113 3116 1747 
z
M 1159 2969 
Q 1341 3281 1617 3432 
Q 1894 3584 2278 3584 
Q 2916 3584 3314 3078 
Q 3713 2572 3713 1747 
Q 3713 922 3314 415 
Q 2916 -91 2278 -91 
Q 1894 -91 1617 61 
Q 1341 213 1159 525 
L 1159 0 
L 581 0 
L 581 4863 
L 1159 4863 
L 1159 2969 
z
" transform="scale(0.015625)"/>
       <path id="DejaVuSans-65" d="M 3597 1894 
L 3597 1613 
L 953 1613 
Q 991 1019 1311 708 
Q 1631 397 2203 397 
Q 2534 397 2845 478 
Q 3156 559 3463 722 
L 3463 178 
Q 3153 47 2828 -22 
Q 2503 -91 2169 -91 
Q 1331 -91 842 396 
Q 353 884 353 1716 
Q 353 2575 817 3079 
Q 1281 3584 2069 3584 
Q 2775 3584 3186 3129 
Q 3597 2675 3597 1894 
z
M 3022 2063 
Q 3016 2534 2758 2815 
Q 2500 3097 2075 3097 
Q 1594 3097 1305 2825 
Q 1016 2553 972 2059 
L 3022 2063 
z
" transform="scale(0.015625)"/>
       <path id="DejaVuSans-76" d="M 191 3500 
L 800 3500 
L 1894 563 
L 2988 3500 
L 3597 3500 
L 2284 0 
L 1503 0 
L 191 3500 
z
" transform="scale(0.015625)"/>
       <path id="DejaVuSans-64" d="M 2906 2969 
L 2906 4863 
L 3481 4863 
L 3481 0 
L 2906 0 
L 2906 525 
Q 2725 213 2448 61 
Q 2172 -91 1784 -91 
Q 1150 -91 751 415 
Q 353 922 353 1747 
Q 353 2572 751 3078 
Q 1150 3584 1784 3584 
Q 2172 3584 2448 3432 
Q 2725 3281 2906 2969 
z
M 947 1747 
Q 947 1113 1208 752 
Q 1469 391 1925 391 
Q 2381 391 2643 752 
Q 2906 1113 2906 1747 
Q 2906 2381 2643 2742 
Q 2381 3103 1925 3103 
Q 1469 3103 1208 2742 
Q 947 2381 947 1747 
z
" transform="scale(0.015625)"/>
      </defs>
      <use xlink:href="#DejaVuSans-6f"/>
      <use xlink:href="#DejaVuSans-62" x="61.181641"/>
      <use xlink:href="#DejaVuSans-73" x="124.658203"/>
      <use xlink:href="#DejaVuSans-65" x="176.757812"/>
      <use xlink:href="#DejaVuSans-72" x="238.28125"/>
      <use xlink:href="#DejaVuSans-76" x="279.394531"/>
      <use xlink:href="#DejaVuSans-65" x="338.574219"/>
      <use xlink:href="#DejaVuSans-64" x="400.097656"/>
     </g>
    </g>
    <g id="line2d_18">
     <path d="M 615.895511 71.216563 
L 625.895511 71.216563 
L 635.895511 71.216563 
" style="fill: none; stroke: #ff7f0e; stroke-width: 1.5; stroke-linecap: square"/>
    </g>
    <g id="text_17">
     <!-- simulated -->
     <g transform="translate(643.895511 74.716563) scale(0.1 -0.1)">
      <defs>
       <path id="DejaVuSans-75" d="M 544 1381 
L 544 3500 
L 1119 3500 
L 1119 1403 
Q 1119 906 1312 657 
Q 1506 409 1894 409 
Q 2359 409 2629 706 
Q 2900 1003 2900 1516 
L 2900 3500 
L 3475 3500 
L 3475 0 
L 2900 0 
L 2900 538 
Q 2691 219 2414 64 
Q 2138 -91 1772 -91 
Q 1169 -91 856 284 
Q 544 659 544 1381 
z
M 1991 3584 
L 1991 3584 
z
" transform="scale(0.015625)"/>
       <path id="DejaVuSans-6c" d="M 603 4863 
L 1178 4863 
L 1178 0 
L 603 0 
L 603 4863 
z
" transform="scale(0.015625)"/>
      </defs>
      <use xlink:href="#DejaVuSans-73"/>
      <use xlink:href="#DejaVuSans-69" x="52.099609"/>
      <use xlink:href="#DejaVuSans-6d" x="79.882812"/>
      <use xlink:href="#DejaVuSans-75" x="177.294922"/>
      <use xlink:href="#DejaVuSans-6c" x="240.673828"/>
      <use xlink:href="#DejaVuSans-61" x="268.457031"/>
      <use xlink:href="#DejaVuSans-74" x="329.736328"/>
      <use xlink:href="#DejaVuSans-65" x="368.945312"/>
      <use xlink:href="#DejaVuSans-64" x="430.46875"/>
     </g>
    </g>
   </g>
  </g>
  <g id="axes_2">
   <g id="patch_8">
    <path d="M 36.465625 684.92 
L 702.289261 684.92 
L 702.289261 386.16 
L 36.465625 386.16 
z
" style="fill: #ffffff"/>
   </g>
   <g id="matplotlib.axis_3">
    <g id="xtick_7">
     <g id="line2d_19">
      <g>
       <use xlink:href="#m95a5b6e81f" x="66.562152" y="684.92" style="stroke: #000000; stroke-width: 0.8"/>
      </g>
     </g>
     <g id="text_18">
      <!-- 2014-07-01 -->
      <g transform="translate(37.504339 699.518437) scale(0.1 -0.1)">
       <use xlink:href="#DejaVuSans-32"/>
       <use xlink:href="#DejaVuSans-30" x="63.623047"/>
       <use xlink:href="#DejaVuSans-31" x="127.246094"/>
       <use xlink:href="#DejaVuSans-34" x="190.869141"/>
       <use xlink:href="#DejaVuSans-2d" x="254.492188"/>
       <use xlink:href="#DejaVuSans-30" x="290.576172"/>
       <use xlink:href="#DejaVuSans-37" x="354.199219"/>
       <use xlink:href="#DejaVuSans-2d" x="417.822266"/>
       <use xlink:href="#DejaVuSans-30" x="453.90625"/>
       <use xlink:href="#DejaVuSans-31" x="517.529297"/>
      </g>
     </g>
    </g>
    <g id="xtick_8">
     <g id="line2d_20">
      <g>
       <use xlink:href="#m95a5b6e81f" x="187.654632" y="684.92" style="stroke: #000000; stroke-width: 0.8"/>
      </g>
     </g>
     <g id="text_19">
      <!-- 2014-07-02 -->
      <g transform="translate(158.596819 699.518437) scale(0.1 -0.1)">
       <use xlink:href="#DejaVuSans-32"/>
       <use xlink:href="#DejaVuSans-30" x="63.623047"/>
       <use xlink:href="#DejaVuSans-31" x="127.246094"/>
       <use xlink:href="#DejaVuSans-34" x="190.869141"/>
       <use xlink:href="#DejaVuSans-2d" x="254.492188"/>
       <use xlink:href="#DejaVuSans-30" x="290.576172"/>
       <use xlink:href="#DejaVuSans-37" x="354.199219"/>
       <use xlink:href="#DejaVuSans-2d" x="417.822266"/>
       <use xlink:href="#DejaVuSans-30" x="453.90625"/>
       <use xlink:href="#DejaVuSans-32" x="517.529297"/>
      </g>
     </g>
    </g>
    <g id="xtick_9">
     <g id="line2d_21">
      <g>
       <use xlink:href="#m95a5b6e81f" x="308.747111" y="684.92" style="stroke: #000000; stroke-width: 0.8"/>
      </g>
     </g>
     <g id="text_20">
      <!-- 2014-07-03 -->
      <g transform="translate(279.689299 699.518437) scale(0.1 -0.1)">
       <use xlink:href="#DejaVuSans-32"/>
       <use xlink:href="#DejaVuSans-30" x="63.623047"/>
       <use xlink:href="#DejaVuSans-31" x="127.246094"/>
       <use xlink:href="#DejaVuSans-34" x="190.869141"/>
       <use xlink:href="#DejaVuSans-2d" x="254.492188"/>
       <use xlink:href="#DejaVuSans-30" x="290.576172"/>
       <use xlink:href="#DejaVuSans-37" x="354.199219"/>
       <use xlink:href="#DejaVuSans-2d" x="417.822266"/>
       <use xlink:href="#DejaVuSans-30" x="453.90625"/>
       <use xlink:href="#DejaVuSans-33" x="517.529297"/>
      </g>
     </g>
    </g>
    <g id="xtick_10">
     <g id="line2d_22">
      <g>
       <use xlink:href="#m95a5b6e81f" x="429.839591" y="684.92" style="stroke: #000000; stroke-width: 0.8"/>
      </g>
     </g>
     <g id="text_21">
      <!-- 2014-07-04 -->
      <g transform="translate(400.781779 699.518437) scale(0.1 -0.1)">
       <use xlink:href="#DejaVuSans-32"/>
       <use xlink:href="#DejaVuSans-30" x="63.623047"/>
       <use xlink:href="#DejaVuSans-31" x="127.246094"/>
       <use xlink:href="#DejaVuSans-34" x="190.869141"/>
       <use xlink:href="#DejaVuSans-2d" x="254.492188"/>
       <use xlink:href="#DejaVuSans-30" x="290.576172"/>
       <use xlink:href="#DejaVuSans-37" x="354.199219"/>
       <use xlink:href="#DejaVuSans-2d" x="417.822266"/>
       <use xlink:href="#DejaVuSans-30" x="453.90625"/>
       <use xlink:href="#DejaVuSans-34" x="517.529297"/>
      </g>
     </g>
    </g>
    <g id="xtick_11">
     <g id="line2d_23">
      <g>
       <use xlink:href="#m95a5b6e81f" x="550.932071" y="684.92" style="stroke: #000000; stroke-width: 0.8"/>
      </g>
     </g>
     <g id="text_22">
      <!-- 2014-07-05 -->
      <g transform="translate(521.874258 699.518437) scale(0.1 -0.1)">
       <use xlink:href="#DejaVuSans-32"/>
       <use xlink:href="#DejaVuSans-30" x="63.623047"/>
       <use xlink:href="#DejaVuSans-31" x="127.246094"/>
       <use xlink:href="#DejaVuSans-34" x="190.869141"/>
       <use xlink:href="#DejaVuSans-2d" x="254.492188"/>
       <use xlink:href="#DejaVuSans-30" x="290.576172"/>
       <use xlink:href="#DejaVuSans-37" x="354.199219"/>
       <use xlink:href="#DejaVuSans-2d" x="417.822266"/>
       <use xlink:href="#DejaVuSans-30" x="453.90625"/>
       <use xlink:href="#DejaVuSans-35" x="517.529297"/>
      </g>
     </g>
    </g>
    <g id="xtick_12">
     <g id="line2d_24">
      <g>
       <use xlink:href="#m95a5b6e81f" x="672.024551" y="684.92" style="stroke: #000000; stroke-width: 0.8"/>
      </g>
     </g>
     <g id="text_23">
      <!-- 2014-07-06 -->
      <g transform="translate(642.966738 699.518437) scale(0.1 -0.1)">
       <use xlink:href="#DejaVuSans-32"/>
       <use xlink:href="#DejaVuSans-30" x="63.623047"/>
       <use xlink:href="#DejaVuSans-31" x="127.246094"/>
       <use xlink:href="#DejaVuSans-34" x="190.869141"/>
       <use xlink:href="#DejaVuSans-2d" x="254.492188"/>
       <use xlink:href="#DejaVuSans-30" x="290.576172"/>
       <use xlink:href="#DejaVuSans-37" x="354.199219"/>
       <use xlink:href="#DejaVuSans-2d" x="417.822266"/>
       <use xlink:href="#DejaVuSans-30" x="453.90625"/>
       <use xlink:href="#DejaVuSans-36" x="517.529297"/>
      </g>
     </g>
    </g>
   </g>
   <g id="matplotlib.axis_4">
    <g id="ytick_9">
     <g id="line2d_25">
      <g>
       <use xlink:href="#m2734b3c5b1" x="36.465625" y="671.33074" style="stroke: #000000; stroke-width: 0.8"/>
      </g>
     </g>
     <g id="text_24">
      <!-- 0.00 -->
      <g transform="translate(7.2 675.129959) scale(0.1 -0.1)">
       <use xlink:href="#DejaVuSans-30"/>
       <use xlink:href="#DejaVuSans-2e" x="63.623047"/>
       <use xlink:href="#DejaVuSans-30" x="95.410156"/>
       <use xlink:href="#DejaVuSans-30" x="159.033203"/>
      </g>
     </g>
    </g>
    <g id="ytick_10">
     <g id="line2d_26">
      <g>
       <use xlink:href="#m2734b3c5b1" x="36.465625" y="631.591239" style="stroke: #000000; stroke-width: 0.8"/>
      </g>
     </g>
     <g id="text_25">
      <!-- 0.25 -->
      <g transform="translate(7.2 635.390458) scale(0.1 -0.1)">
       <use xlink:href="#DejaVuSans-30"/>
       <use xlink:href="#DejaVuSans-2e" x="63.623047"/>
       <use xlink:href="#DejaVuSans-32" x="95.410156"/>
       <use xlink:href="#DejaVuSans-35" x="159.033203"/>
      </g>
     </g>
    </g>
    <g id="ytick_11">
     <g id="line2d_27">
      <g>
       <use xlink:href="#m2734b3c5b1" x="36.465625" y="591.851738" style="stroke: #000000; stroke-width: 0.8"/>
      </g>
     </g>
     <g id="text_26">
      <!-- 0.50 -->
      <g transform="translate(7.2 595.650957) scale(0.1 -0.1)">
       <use xlink:href="#DejaVuSans-30"/>
       <use xlink:href="#DejaVuSans-2e" x="63.623047"/>
       <use xlink:href="#DejaVuSans-35" x="95.410156"/>
       <use xlink:href="#DejaVuSans-30" x="159.033203"/>
      </g>
     </g>
    </g>
    <g id="ytick_12">
     <g id="line2d_28">
      <g>
       <use xlink:href="#m2734b3c5b1" x="36.465625" y="552.112237" style="stroke: #000000; stroke-width: 0.8"/>
      </g>
     </g>
     <g id="text_27">
      <!-- 0.75 -->
      <g transform="translate(7.2 555.911455) scale(0.1 -0.1)">
       <use xlink:href="#DejaVuSans-30"/>
       <use xlink:href="#DejaVuSans-2e" x="63.623047"/>
       <use xlink:href="#DejaVuSans-37" x="95.410156"/>
       <use xlink:href="#DejaVuSans-35" x="159.033203"/>
      </g>
     </g>
    </g>
    <g id="ytick_13">
     <g id="line2d_29">
      <g>
       <use xlink:href="#m2734b3c5b1" x="36.465625" y="512.372735" style="stroke: #000000; stroke-width: 0.8"/>
      </g>
     </g>
     <g id="text_28">
      <!-- 1.00 -->
      <g transform="translate(7.2 516.171954) scale(0.1 -0.1)">
       <use xlink:href="#DejaVuSans-31"/>
       <use xlink:href="#DejaVuSans-2e" x="63.623047"/>
       <use xlink:href="#DejaVuSans-30" x="95.410156"/>
       <use xlink:href="#DejaVuSans-30" x="159.033203"/>
      </g>
     </g>
    </g>
    <g id="ytick_14">
     <g id="line2d_30">
      <g>
       <use xlink:href="#m2734b3c5b1" x="36.465625" y="472.633234" style="stroke: #000000; stroke-width: 0.8"/>
      </g>
     </g>
     <g id="text_29">
      <!-- 1.25 -->
      <g transform="translate(7.2 476.432453) scale(0.1 -0.1)">
       <use xlink:href="#DejaVuSans-31"/>
       <use xlink:href="#DejaVuSans-2e" x="63.623047"/>
       <use xlink:href="#DejaVuSans-32" x="95.410156"/>
       <use xlink:href="#DejaVuSans-35" x="159.033203"/>
      </g>
     </g>
    </g>
    <g id="ytick_15">
     <g id="line2d_31">
      <g>
       <use xlink:href="#m2734b3c5b1" x="36.465625" y="432.893733" style="stroke: #000000; stroke-width: 0.8"/>
      </g>
     </g>
     <g id="text_30">
      <!-- 1.50 -->
      <g transform="translate(7.2 436.692952) scale(0.1 -0.1)">
       <use xlink:href="#DejaVuSans-31"/>
       <use xlink:href="#DejaVuSans-2e" x="63.623047"/>
       <use xlink:href="#DejaVuSans-35" x="95.410156"/>
       <use xlink:href="#DejaVuSans-30" x="159.033203"/>
      </g>
     </g>
    </g>
    <g id="ytick_16">
     <g id="line2d_32">
      <g>
       <use xlink:href="#m2734b3c5b1" x="36.465625" y="393.154232" style="stroke: #000000; stroke-width: 0.8"/>
      </g>
     </g>
     <g id="text_31">
      <!-- 1.75 -->
      <g transform="translate(7.2 396.95345) scale(0.1 -0.1)">
       <use xlink:href="#DejaVuSans-31"/>
       <use xlink:href="#DejaVuSans-2e" x="63.623047"/>
       <use xlink:href="#DejaVuSans-37" x="95.410156"/>
       <use xlink:href="#DejaVuSans-35" x="159.033203"/>
      </g>
     </g>
    </g>
   </g>
   <g id="line2d_33">
    <path d="M 66.730336 671.324603 
L 68.748544 671.183792 
L 71.439488 670.794379 
L 73.121328 670.4813 
L 76.232732 670.150735 
L 80.521424 669.924862 
L 82.45554 669.124541 
L 83.128276 668.136636 
L 84.13738 665.631113 
L 84.55784 664.032594 
L 84.810116 663.611876 
L 85.146484 662.197645 
L 85.39876 661.742252 
L 85.735128 660.249498 
L 85.987404 659.892078 
L 86.323772 658.469842 
L 86.576048 658.19293 
L 86.828324 656.288918 
L 86.996508 656.011105 
L 87.0806 656.016583 
L 87.164692 655.901145 
L 87.416968 653.97865 
L 87.837428 652.813661 
L 89.1829 633.694564 
L 89.771544 628.789283 
L 90.02382 627.783943 
L 90.192004 627.269613 
L 90.44428 625.755831 
L 90.86474 625.143287 
L 91.117016 623.849677 
L 91.453384 623.456451 
L 91.70566 622.225322 
L 92.042028 621.710527 
L 92.294304 620.163437 
L 92.630672 618.898303 
L 93.051132 615.771825 
L 93.303408 613.452771 
L 93.892052 606.837656 
L 94.817064 594.084361 
L 95.06934 590.868817 
L 95.321616 586.325606 
L 95.742076 581.289998 
L 96.414812 572.761614 
L 97.17164 568.480879 
L 98.01256 564.028217 
L 98.685296 559.889687 
L 98.937572 552.966627 
L 99.189848 537.093714 
L 99.442124 535.216845 
L 99.6944 530.049322 
L 99.946676 528.47984 
L 100.11486 527.840311 
L 100.283044 527.511001 
L 100.367136 527.508888 
L 100.53532 526.783605 
L 100.703504 524.664963 
L 100.95578 523.767544 
L 101.123964 522.425822 
L 101.37624 518.50375 
L 101.628516 516.216108 
L 102.385344 502.434872 
L 103.05808 485.281329 
L 105.16038 413.10403 
L 105.749024 403.094949 
L 106.085392 400.55154 
L 106.337668 399.74 
L 106.505852 399.812083 
L 106.926312 401.131199 
L 107.514956 405.764106 
L 108.439968 416.914691 
L 109.196796 427.792898 
L 110.2059 443.123844 
L 111.04682 453.726889 
L 111.383188 457.735968 
L 111.46728 457.706653 
L 111.971832 458.890282 
L 112.224108 459.586156 
L 112.476384 460.038702 
L 112.72866 460.501728 
L 112.812752 460.498184 
L 113.065028 461.03659 
L 113.14912 461.099425 
L 113.233212 461.327859 
L 113.317304 461.209824 
L 113.401396 461.450006 
L 113.485488 461.29303 
L 113.56958 461.496015 
L 113.653672 461.300174 
L 113.737764 461.394958 
L 114.074132 460.385019 
L 114.158224 460.299671 
L 114.494592 458.534509 
L 114.578684 458.233936 
L 114.915052 456.244565 
L 114.999144 456.148133 
L 115.167328 455.295283 
L 115.25142 455.24249 
L 115.335512 454.870042 
L 115.419604 454.908737 
L 115.503696 454.996074 
L 115.587788 454.811773 
L 116.008248 456.672724 
L 116.260524 458.315493 
L 116.765076 465.507708 
L 116.849168 465.7239 
L 117.017352 469.251743 
L 117.437812 479.773212 
L 118.026456 488.04201 
L 119.287836 502.04249 
L 120.633308 514.003686 
L 121.221952 518.224494 
L 122.231056 524.295092 
L 123.24016 528.916696 
L 124.249264 532.603229 
L 125.34246 535.820484 
L 126.435656 538.383477 
L 127.276576 539.923503 
L 127.86522 540.628662 
L 128.117496 540.758958 
L 128.537956 541.436309 
L 129.54706 543.138342 
L 130.724348 544.898549 
L 132.06982 548.486546 
L 132.994832 550.235043 
L 134.424396 552.406818 
L 136.358512 554.93215 
L 137.199432 556.275919 
L 138.124444 557.582547 
L 138.628996 558.316698 
L 140.731296 561.225629 
L 141.235848 561.67125 
L 141.908584 562.209011 
L 142.329044 562.49398 
L 142.749504 562.896462 
L 143.00178 563.037246 
L 143.169964 563.157308 
L 144.179068 563.191815 
L 144.767712 564.036043 
L 145.52454 565.400248 
L 146.029092 566.018525 
L 146.533644 566.36921 
L 147.122288 566.522974 
L 148.131392 566.473573 
L 149.056404 566.525304 
L 149.72914 566.765032 
L 150.401876 567.242477 
L 151.242796 568.247225 
L 152.167808 569.860205 
L 155.867856 577.295738 
L 156.87696 579.457007 
L 158.306524 581.683963 
L 159.231536 582.734861 
L 159.567904 582.981372 
L 159.988364 583.233037 
L 160.24064 583.217783 
L 160.6611 583.117494 
L 161.754296 583.555185 
L 162.511124 584.084457 
L 163.18386 583.965379 
L 164.02478 584.363106 
L 164.277056 584.241991 
L 164.44524 584.023563 
L 164.8657 583.314993 
L 165.202068 583.121114 
L 166.54754 583.000663 
L 168.22938 584.002018 
L 168.565748 583.945435 
L 168.818024 583.753943 
L 169.406668 583.232346 
L 169.827128 582.973281 
L 170.33168 582.327518 
L 170.668048 582.345852 
L 171.1726 582.738651 
L 171.845336 583.266256 
L 172.097612 583.257529 
L 172.265796 583.153081 
L 172.770348 582.529953 
L 174.11582 581.692462 
L 174.368096 581.456013 
L 174.620372 581.725121 
L 175.545384 583.092225 
L 176.63858 583.94986 
L 177.05904 583.79765 
L 177.731776 583.420446 
L 178.152236 583.549613 
L 178.909064 583.89504 
L 179.329524 583.846463 
L 179.918168 583.607627 
L 180.170444 583.389682 
L 180.506812 582.970003 
L 180.759088 582.975233 
L 181.431824 583.179307 
L 181.852284 583.073371 
L 182.020468 582.951233 
L 182.356836 582.67428 
L 182.94548 582.624501 
L 183.618216 583.575981 
L 183.954584 583.921199 
L 185.8887 585.430603 
L 186.477344 585.147425 
L 187.654632 583.890596 
L 187.906908 583.979658 
L 189.000104 584.765655 
L 189.168288 584.774466 
L 190.261484 583.957544 
L 190.766036 584.311782 
L 191.102404 584.548439 
L 191.35468 584.547548 
L 191.859232 584.945265 
L 192.363784 585.292766 
L 192.700152 585.317419 
L 192.952428 584.971889 
L 193.204704 584.722346 
L 193.541072 584.8725 
L 194.129716 585.354238 
L 194.71836 585.378095 
L 195.55928 585.068615 
L 195.97974 585.120669 
L 196.4002 585.15311 
L 197.577488 584.844626 
L 198.250223 584.896556 
L 198.502499 584.657492 
L 198.838867 584.072538 
L 199.259327 583.127746 
L 199.511603 583.196323 
L 199.847971 583.610933 
L 200.688891 584.56447 
L 201.361627 584.965787 
L 201.782087 585.048766 
L 201.950271 584.891715 
L 202.286639 584.428083 
L 202.791191 584.462968 
L 203.211651 585.112341 
L 204.136663 586.662543 
L 204.809399 587.333366 
L 205.734411 587.829098 
L 208.929907 589.356191 
L 209.854919 590.16613 
L 211.200391 591.674473 
L 212.461771 593.251654 
L 212.545863 593.160044 
L 212.714047 592.321861 
L 212.966323 593.042393 
L 213.050415 592.886516 
L 213.218599 590.647688 
L 213.386783 585.631816 
L 213.639059 576.888926 
L 213.723151 576.452638 
L 213.807243 576.591479 
L 213.891335 576.576557 
L 214.143611 572.988162 
L 214.227703 573.229945 
L 214.479979 575.765149 
L 214.732255 573.779711 
L 214.816347 574.226184 
L 214.984531 576.458683 
L 215.152715 578.620141 
L 215.236807 578.274459 
L 215.404991 576.717293 
L 215.489083 576.851852 
L 215.741359 578.988609 
L 215.825451 578.604261 
L 215.993635 577.155457 
L 216.077727 577.359095 
L 216.330003 579.642473 
L 216.414095 579.406261 
L 216.582279 578.274866 
L 216.666371 578.42989 
L 216.918647 580.22035 
L 217.086831 579.292641 
L 217.255015 578.783512 
L 217.507291 579.699302 
L 217.927751 577.616701 
L 218.011843 577.652032 
L 218.095935 577.582753 
L 218.180027 577.352975 
L 218.936855 569.504679 
L 220.198235 549.035251 
L 220.618695 541.725304 
L 221.039155 539.343267 
L 221.711891 536.694424 
L 222.300535 535.202851 
L 223.057363 533.948931 
L 223.309639 533.266264 
L 223.561915 533.053862 
L 223.814191 531.793735 
L 223.898283 531.809804 
L 224.150559 532.319672 
L 224.234651 532.084114 
L 224.486927 529.867883 
L 224.739203 530.535314 
L 224.823295 529.91194 
L 225.075571 526.004733 
L 225.159663 526.371847 
L 225.243755 527.255053 
L 225.327847 527.244821 
L 225.748307 521.231175 
L 225.832399 520.895763 
L 225.916491 520.93982 
L 226.084675 520.714769 
L 226.252859 521.105911 
L 226.336951 521.091803 
L 226.505135 521.610028 
L 226.589227 521.517745 
L 226.757411 521.822752 
L 226.841503 521.592026 
L 226.925595 521.630284 
L 227.009687 521.799691 
L 227.177871 521.116608 
L 227.261963 521.179794 
L 227.346055 521.848372 
L 227.598331 520.432349 
L 227.682423 521.783546 
L 227.766515 521.461371 
L 227.934699 519.749389 
L 228.271067 524.987328 
L 228.355159 525.129296 
L 228.439251 524.912658 
L 228.691527 522.855686 
L 229.868815 510.750058 
L 230.205183 509.441138 
L 230.457459 509.172626 
L 230.625643 509.262313 
L 230.877919 509.746335 
L 231.298379 511.274821 
L 231.971115 514.862988 
L 234.662059 530.465581 
L 236.007531 536.645952 
L 237.353003 541.820638 
L 238.193923 544.628541 
L 238.614383 547.895916 
L 240.043947 559.871704 
L 241.053051 566.14865 
L 241.893971 570.369695 
L 242.818983 573.965233 
L 244.416731 578.784222 
L 245.257651 580.967349 
L 245.930387 581.710691 
L 246.098571 581.678401 
L 246.434939 581.499075 
L 246.687215 581.690264 
L 247.023583 582.045714 
L 247.780411 583.767293 
L 248.369055 584.926761 
L 248.789515 585.394571 
L 249.125883 585.478886 
L 249.630435 585.028415 
L 250.471355 583.822019 
L 250.723631 583.812421 
L 251.059999 584.10748 
L 251.480459 584.431266 
L 251.648643 584.378549 
L 252.573655 583.533725 
L 253.330483 583.50404 
L 254.087311 581.961485 
L 254.339587 581.646955 
L 254.591863 581.801231 
L 255.180507 582.313373 
L 255.685059 581.889042 
L 256.273703 580.945311 
L 256.610071 581.243004 
L 257.955543 582.85319 
L 258.376003 582.770211 
L 258.796463 582.473371 
L 259.216923 582.511174 
L 259.973751 582.696612 
L 260.394211 582.357676 
L 261.319223 581.323529 
L 261.655591 581.419185 
L 262.412419 581.962764 
L 263.085155 582.346306 
L 263.673799 582.692491 
L 264.178351 582.31287 
L 264.682903 582.121814 
L 265.607915 582.872044 
L 266.028375 583.184698 
L 266.532927 583.623156 
L 267.205663 584.328353 
L 267.373847 584.29305 
L 267.710215 584.04886 
L 268.130675 584.217774 
L 269.476147 585.02129 
L 269.812515 584.850585 
L 270.401159 584.005012 
L 270.737527 583.803344 
L 271.494355 583.967511 
L 271.914815 583.560168 
L 272.251183 583.751234 
L 272.923919 584.252612 
L 273.512563 584.140423 
L 273.933023 583.888673 
L 274.353483 583.225894 
L 274.521667 583.090804 
L 274.773943 582.607134 
L 274.942127 582.66509 
L 275.362587 583.56086 
L 275.951231 584.805675 
L 276.708059 585.765219 
L 277.296703 586.11525 
L 277.717163 585.943418 
L 278.642175 585.082249 
L 278.810359 584.920394 
L 279.819463 582.962016 
L 280.408107 582.992903 
L 280.828567 583.760121 
L 281.333119 584.599564 
L 281.837671 585.048681 
L 282.510407 585.08279 
L 282.930867 585.273561 
L 283.099051 585.17313 
L 284.108155 583.678658 
L 284.444523 584.080951 
L 284.864983 584.634374 
L 285.285443 584.690634 
L 285.453627 584.624577 
L 285.874087 584.10785 
L 286.294547 584.288825 
L 286.546823 584.392866 
L 286.715007 584.207456 
L 287.051375 583.819622 
L 287.555927 584.104306 
L 288.144571 585.085348 
L 288.649123 585.841679 
L 289.237767 586.412195 
L 289.826411 586.691118 
L 291.171883 586.966309 
L 292.433263 587.281587 
L 293.274183 587.708486 
L 294.115103 588.377622 
L 295.124207 589.490608 
L 296.637863 591.567202 
L 299.833359 596.861036 
L 300.674279 598.146909 
L 303.197039 601.195904 
L 308.074375 606.375081 
L 308.831203 606.81839 
L 309.083479 606.797318 
L 309.419847 606.956075 
L 309.672123 606.869387 
L 310.008491 606.99322 
L 310.260767 606.848727 
L 310.597135 606.941394 
L 310.849411 606.741403 
L 311.185779 606.81134 
L 311.438055 606.567899 
L 311.606239 606.561598 
L 311.774423 606.251039 
L 312.026699 604.930531 
L 312.278975 602.202077 
L 312.531251 600.086571 
L 312.699435 599.268578 
L 312.951711 597.35816 
L 313.119895 597.438799 
L 313.203987 597.685116 
L 313.288079 597.509736 
L 313.540355 596.208456 
L 313.708539 596.53752 
L 313.792631 596.792003 
L 313.876723 596.626434 
L 314.128999 595.396802 
L 314.297183 595.667473 
L 314.381275 595.921787 
L 314.465367 595.765877 
L 314.717643 594.620275 
L 314.801735 594.723084 
L 315.054011 595.760571 
L 315.138103 595.681581 
L 315.474471 594.363498 
L 315.642655 594.348609 
L 316.147207 592.068415 
L 316.231299 592.135097 
L 316.399483 591.178505 
L 316.651759 589.913338 
L 316.819943 589.699429 
L 317.324495 586.566641 
L 317.408587 586.44906 
L 317.913139 583.280202 
L 318.081323 582.930816 
L 319.090427 575.157133 
L 319.426795 573.546464 
L 319.763163 571.769818 
L 320.099531 569.852654 
L 320.267715 568.778117 
L 320.435899 566.234101 
L 320.856359 551.925431 
L 320.940451 551.61941 
L 321.108635 552.543604 
L 321.613187 555.760783 
L 321.865463 556.540611 
L 322.117739 556.69808 
L 322.285923 556.567529 
L 322.538199 556.100467 
L 323.042751 554.39436 
L 324.135947 549.204051 
L 325.229143 544.192603 
L 325.481419 543.753132 
L 325.901879 543.568746 
L 326.322339 543.603973 
L 326.742799 543.824391 
L 327.163259 544.209838 
L 327.415535 544.831715 
L 327.751903 546.121677 
L 328.424639 549.7624 
L 331.788319 569.673546 
L 332.881515 574.201654 
L 335.404275 583.052148 
L 337.086115 587.866504 
L 338.599771 591.605261 
L 340.617979 596.111952 
L 341.711175 598.200503 
L 348.018075 607.041797 
L 351.297663 610.859255 
L 353.736331 613.381465 
L 356.006815 615.422519 
L 358.697759 617.55236 
L 361.556887 619.520199 
L 364.920567 621.511995 
L 367.695603 622.937298 
L 371.143375 624.476699 
L 375.432067 626.120344 
L 381.907151 628.223926 
L 387.373131 629.774574 
L 395.950515 631.981482 
L 415.543951 636.849357 
L 425.046347 639.485469 
L 430.764603 641.095766 
L 439.930631 643.845753 
L 450.358039 646.854336 
L 458.851331 648.841529 
L 466.251427 650.256893 
L 475.669731 651.71698 
L 483.069827 652.648627 
L 490.890383 653.487239 
L 503.083723 654.577795 
L 514.015683 655.387186 
L 530.581807 656.388645 
L 547.820667 657.227881 
L 572.375531 658.193645 
L 597.434947 658.994301 
L 632.249035 659.89562 
L 672.024551 660.726808 
L 672.024551 660.726808 
" clip-path="url(#pfe35ea8f27)" style="fill: none; stroke: #1f77b4; stroke-width: 1.5; stroke-linecap: square"/>
   </g>
   <g id="line2d_34">
    <path d="M 66.730336 671.33074 
L 67.991716 671.233225 
L 71.10312 670.442661 
L 76.232732 668.001961 
L 78.082756 667.415247 
L 80.689608 666.716357 
L 82.203264 665.750716 
L 83.801012 663.956082 
L 84.726024 662.237781 
L 85.062392 661.749789 
L 86.912416 656.540838 
L 87.669244 653.13081 
L 89.1829 646.251091 
L 90.612464 637.663647 
L 93.051132 620.264949 
L 93.892052 614.00053 
L 94.312512 611.098849 
L 95.321616 603.519164 
L 95.826168 596.700759 
L 96.33072 593.703021 
L 98.601204 583.333066 
L 98.769388 582.604145 
L 98.937572 580.223183 
L 99.442124 569.90664 
L 100.030768 559.594002 
L 100.198952 557.559729 
L 100.619412 551.047883 
L 100.871688 547.435907 
L 101.208056 542.84939 
L 101.460332 539.262283 
L 102.721712 514.92416 
L 103.47854 490.884432 
L 104.487644 449.508554 
L 105.16038 424.971259 
L 105.664932 412.286854 
L 106.0013 406.751733 
L 106.505852 402.559388 
L 106.674036 402.334165 
L 107.010404 402.429632 
L 107.178588 403.134387 
L 107.851324 408.747354 
L 108.860428 421.706402 
L 110.121808 438.694732 
L 110.710452 445.093282 
L 111.130912 448.772119 
L 111.299096 449.409802 
L 111.551372 451.501386 
L 111.635464 451.473472 
L 111.88774 450.29766 
L 111.971832 450.547427 
L 112.224108 453.166915 
L 113.065028 462.519877 
L 113.56958 465.530174 
L 113.905948 466.304803 
L 114.074132 466.379176 
L 114.494592 465.97377 
L 115.083236 465.271482 
L 115.419604 465.510157 
L 115.67188 466.067481 
L 116.008248 467.59861 
L 116.5128 471.188218 
L 117.269628 478.393451 
L 120.549216 511.480414 
L 121.894688 522.051325 
L 123.24016 530.830829 
L 124.753816 539.002254 
L 125.847012 543.954906 
L 127.0243 548.595696 
L 127.44476 549.882844 
L 127.697036 549.841316 
L 127.86522 550.105016 
L 128.369772 551.556708 
L 129.294784 554.341727 
L 130.640256 557.480185 
L 132.49028 560.675082 
L 133.667568 562.597958 
L 137.11534 567.396304 
L 137.5358 567.8358 
L 138.292628 568.546693 
L 138.628996 568.781279 
L 138.965364 569.053169 
L 139.301732 569.297614 
L 139.554008 569.540199 
L 139.890376 569.69565 
L 140.142652 569.876295 
L 140.47902 569.976888 
L 140.731296 570.128174 
L 141.067664 570.184982 
L 141.31994 570.308598 
L 141.656308 570.321994 
L 141.908584 570.417846 
L 142.244952 570.363497 
L 142.58132 570.534375 
L 142.917688 570.465754 
L 143.169964 570.500516 
L 143.506332 570.369911 
L 143.758608 570.373402 
L 144.094976 570.186451 
L 145.776816 570.77994 
L 147.038196 571.526143 
L 148.0473 572.364066 
L 148.972312 573.4227 
L 150.1496 575.150981 
L 151.915532 578.219465 
L 153.008728 580.007331 
L 154.942844 581.967577 
L 156.624684 583.807538 
L 158.222432 584.640204 
L 159.063352 585.103526 
L 159.315628 585.190331 
L 159.567904 585.170408 
L 159.82018 585.148127 
L 160.156548 585.198416 
L 160.492916 585.254479 
L 160.913376 585.417831 
L 162.006572 585.814211 
L 162.595216 585.980004 
L 162.931584 585.886846 
L 163.436136 586.100328 
L 163.772504 586.269762 
L 164.529332 586.092929 
L 164.781608 585.99893 
L 165.958896 586.072613 
L 167.220276 586.357764 
L 168.481656 586.830734 
L 169.322576 586.610067 
L 169.91122 586.679692 
L 170.247588 586.555238 
L 170.75214 586.732354 
L 172.097612 587.451389 
L 172.938532 587.11936 
L 173.190808 587.101956 
L 173.443084 587.119011 
L 173.779452 586.994692 
L 174.031728 586.972558 
L 174.452188 586.755834 
L 174.872648 586.924274 
L 175.209016 587.079276 
L 175.713568 587.079128 
L 176.554488 587.228282 
L 176.890856 587.143921 
L 177.227224 586.969094 
L 177.563592 586.909524 
L 178.152236 587.045121 
L 179.16134 587.285158 
L 180.086352 587.39653 
L 180.506812 587.223109 
L 180.927272 587.422959 
L 181.26364 587.599768 
L 181.6841 587.528828 
L 181.936376 587.565764 
L 182.272744 587.431969 
L 182.52502 587.442893 
L 182.94548 587.392677 
L 185.720516 588.236237 
L 186.813712 588.039026 
L 187.065988 587.99927 
L 187.318264 588.008681 
L 187.654632 587.865968 
L 188.327368 588.118244 
L 188.579644 588.21539 
L 189.756932 587.990144 
L 190.0933 587.747873 
L 190.51376 587.653766 
L 190.850128 587.697472 
L 191.102404 587.598298 
L 191.438772 587.458963 
L 192.700152 587.245936 
L 193.45698 586.717291 
L 194.802452 586.541625 
L 195.391096 586.42124 
L 195.811556 586.429951 
L 196.484292 586.532002 
L 196.82066 586.423828 
L 197.66158 586.695039 
L 198.250223 586.939238 
L 198.586591 586.717622 
L 198.754775 586.710445 
L 199.343419 586.40846 
L 199.847971 586.695464 
L 200.184339 586.875655 
L 201.866179 587.240271 
L 202.286639 586.941998 
L 202.959375 586.92775 
L 204.388939 587.729202 
L 206.407147 588.90902 
L 207.500343 589.852971 
L 208.929907 591.417391 
L 211.957219 595.185917 
L 212.629955 595.955221 
L 212.714047 595.824161 
L 212.966323 593.872964 
L 213.218599 592.461935 
L 213.386783 591.522849 
L 213.723151 589.038102 
L 213.975427 587.992183 
L 214.311795 585.832118 
L 214.479979 585.339673 
L 216.414095 574.691772 
L 218.095935 558.61927 
L 220.450511 535.69924 
L 221.207339 531.731375 
L 221.795983 529.74919 
L 222.300535 528.709169 
L 222.889179 528.23759 
L 223.057363 528.033985 
L 223.393731 527.358228 
L 223.561915 527.298227 
L 224.066467 526.123433 
L 224.234651 526.135998 
L 224.402835 525.315582 
L 224.655111 524.113694 
L 224.823295 523.698889 
L 225.496031 517.33459 
L 225.832399 510.77894 
L 226.000583 510.04231 
L 226.084675 510.050805 
L 226.336951 510.622158 
L 226.757411 511.711979 
L 227.009687 511.855423 
L 227.177871 511.764951 
L 227.346055 511.37705 
L 227.682423 509.76089 
L 228.102883 506.380811 
L 229.532447 493.249505 
L 229.868815 492.164851 
L 230.036999 492.015481 
L 230.205183 492.105734 
L 230.457459 492.645473 
L 230.793827 493.998838 
L 231.382471 497.594296 
L 232.475667 506.148946 
L 234.662059 523.198862 
L 236.175715 533.167688 
L 237.605279 541.144975 
L 238.950751 547.27335 
L 240.716683 553.729478 
L 241.809879 557.197589 
L 243.239443 560.477098 
L 243.743995 561.448865 
L 244.921283 563.523042 
L 245.173559 563.74869 
L 245.594019 564.297254 
L 245.846295 564.498453 
L 246.182663 564.817278 
L 246.434939 565.001757 
L 246.855399 565.402234 
L 247.275859 565.882224 
L 249.125883 567.746115 
L 249.462251 567.820587 
L 249.714527 567.933106 
L 250.050895 567.903166 
L 251.228183 568.876994 
L 251.564551 569.251278 
L 251.900919 569.326822 
L 252.321379 569.553111 
L 252.657747 569.81809 
L 253.414575 570.44269 
L 253.666851 570.431304 
L 253.919127 570.524317 
L 254.255495 570.504254 
L 254.675955 570.89578 
L 255.264599 571.418699 
L 255.516875 571.468645 
L 255.769151 571.550031 
L 256.105519 571.423519 
L 256.610071 571.762482 
L 258.207819 573.227156 
L 258.628279 573.194093 
L 259.132831 573.608018 
L 259.973751 574.384609 
L 260.310119 574.372648 
L 260.646487 574.586686 
L 260.982855 574.588823 
L 263.673799 576.512017 
L 264.010167 576.428168 
L 264.262443 576.491533 
L 264.598811 576.478803 
L 265.355639 576.837122 
L 266.448835 577.151214 
L 267.205663 577.628334 
L 267.962491 577.560297 
L 269.392055 578.357684 
L 269.644331 578.556448 
L 270.569343 578.390483 
L 271.578447 578.844041 
L 271.830723 578.785736 
L 272.419367 579.10281 
L 272.755735 579.34375 
L 273.176195 579.413677 
L 273.428471 579.402571 
L 273.680747 579.395566 
L 273.848931 579.444858 
L 275.026219 578.910534 
L 275.530771 579.192114 
L 275.951231 579.388644 
L 276.708059 579.729513 
L 277.044427 579.836746 
L 277.717163 579.788721 
L 277.969439 579.74907 
L 278.978543 579.684438 
L 279.146727 579.636893 
L 279.399003 579.612109 
L 279.735371 579.413069 
L 280.071739 579.424 
L 280.408107 579.465498 
L 281.921763 580.265576 
L 282.258131 580.196456 
L 282.678591 580.376705 
L 282.930867 580.532768 
L 283.771787 579.995263 
L 284.024063 579.919946 
L 284.444523 580.104588 
L 285.033167 580.3457 
L 286.378639 580.327287 
L 286.546823 580.395974 
L 287.387743 580.071828 
L 287.724111 580.167389 
L 290.078687 581.576872 
L 291.171883 582.42618 
L 292.265079 583.587676 
L 293.694643 585.478624 
L 296.385587 589.181614 
L 296.637863 589.179242 
L 296.974231 589.512797 
L 299.496991 592.710784 
L 301.767475 595.000455 
L 302.272027 595.237675 
L 303.281131 596.318481 
L 305.299339 598.393778 
L 306.728903 599.453259 
L 308.494835 600.103655 
L 308.831203 600.13347 
L 309.083479 600.203286 
L 309.419847 600.103248 
L 309.672123 600.084734 
L 310.008491 599.876941 
L 310.176675 599.862259 
L 311.017595 599.076254 
L 311.269871 598.890284 
L 311.522147 598.535001 
L 311.858515 598.090874 
L 312.026699 597.956935 
L 312.783527 595.706316 
L 313.119895 594.713957 
L 313.372171 593.841319 
L 313.708539 592.779194 
L 313.960815 591.846252 
L 314.381275 590.433756 
L 316.231299 582.495561 
L 320.519991 559.02342 
L 320.940451 553.966785 
L 321.360911 552.317179 
L 321.949555 551.036197 
L 323.967763 547.259348 
L 324.556407 546.714314 
L 325.060959 546.700966 
L 325.565511 547.114038 
L 326.070063 547.873033 
L 326.658707 549.069449 
L 327.499627 551.155412 
L 332.040595 563.375931 
L 334.479263 569.211991 
L 337.170207 575.129374 
L 339.440691 579.688208 
L 341.879359 584.088423 
L 344.402119 588.182949 
L 347.008971 591.990461 
L 349.784007 595.651044 
L 352.811319 599.267742 
L 356.006815 602.737697 
L 359.454587 606.154241 
L 363.154635 609.510492 
L 367.191051 612.870413 
L 371.563835 616.217488 
L 376.272987 619.540103 
L 381.402599 622.882696 
L 386.868579 626.178499 
L 392.755019 629.46837 
L 399.061919 632.737713 
L 405.789279 635.972117 
L 412.853007 639.120199 
L 420.253103 642.173174 
L 427.905475 645.088894 
L 435.810123 647.861291 
L 443.882955 650.45655 
L 452.123971 652.872877 
L 460.533171 655.108259 
L 469.194647 657.180457 
L 478.108399 659.08335 
L 487.358519 660.828276 
L 496.945007 662.408947 
L 507.036047 663.84519 
L 517.715731 665.137858 
L 529.152243 666.294824 
L 541.513767 667.318712 
L 555.136671 668.219432 
L 570.357323 668.997586 
L 587.764367 669.658258 
L 608.198723 670.203519 
L 633.089955 670.636264 
L 665.213099 670.960444 
L 672.024551 671.006787 
L 672.024551 671.006787 
" clip-path="url(#pfe35ea8f27)" style="fill: none; stroke: #ff7f0e; stroke-width: 1.5; stroke-linecap: square"/>
   </g>
   <g id="patch_9">
    <path d="M 36.465625 684.92 
L 36.465625 386.16 
" style="fill: none; stroke: #000000; stroke-width: 0.8; stroke-linejoin: miter; stroke-linecap: square"/>
   </g>
   <g id="patch_10">
    <path d="M 702.289261 684.92 
L 702.289261 386.16 
" style="fill: none; stroke: #000000; stroke-width: 0.8; stroke-linejoin: miter; stroke-linecap: square"/>
   </g>
   <g id="patch_11">
    <path d="M 36.465625 684.92 
L 702.289261 684.92 
" style="fill: none; stroke: #000000; stroke-width: 0.8; stroke-linejoin: miter; stroke-linecap: square"/>
   </g>
   <g id="patch_12">
    <path d="M 36.465625 386.16 
L 702.289261 386.16 
" style="fill: none; stroke: #000000; stroke-width: 0.8; stroke-linejoin: miter; stroke-linecap: square"/>
   </g>
   <g id="text_32">
    <!-- 2 transformation(s) -->
    <g transform="translate(311.262756 380.16) scale(0.12 -0.12)">
     <use xlink:href="#DejaVuSans-32"/>
     <use xlink:href="#DejaVuSans-20" x="63.623047"/>
     <use xlink:href="#DejaVuSans-74" x="95.410156"/>
     <use xlink:href="#DejaVuSans-72" x="134.619141"/>
     <use xlink:href="#DejaVuSans-61" x="175.732422"/>
     <use xlink:href="#DejaVuSans-6e" x="237.011719"/>
     <use xlink:href="#DejaVuSans-73" x="300.390625"/>
     <use xlink:href="#DejaVuSans-66" x="352.490234"/>
     <use xlink:href="#DejaVuSans-6f" x="387.695312"/>
     <use xlink:href="#DejaVuSans-72" x="448.876953"/>
     <use xlink:href="#DejaVuSans-6d" x="488.240234"/>
     <use xlink:href="#DejaVuSans-61" x="585.652344"/>
     <use xlink:href="#DejaVuSans-74" x="646.931641"/>
     <use xlink:href="#DejaVuSans-69" x="686.140625"/>
     <use xlink:href="#DejaVuSans-6f" x="713.923828"/>
     <use xlink:href="#DejaVuSans-6e" x="775.105469"/>
     <use xlink:href="#DejaVuSans-28" x="838.484375"/>
     <use xlink:href="#DejaVuSans-73" x="877.498047"/>
     <use xlink:href="#DejaVuSans-29" x="929.597656"/>
    </g>
   </g>
  </g>
  <g id="text_33">
   <!-- training -->
   <g transform="translate(333.282187 16.318125) scale(0.12 -0.12)">
    <defs>
     <path id="DejaVuSans-67" d="M 2906 1791 
Q 2906 2416 2648 2759 
Q 2391 3103 1925 3103 
Q 1463 3103 1205 2759 
Q 947 2416 947 1791 
Q 947 1169 1205 825 
Q 1463 481 1925 481 
Q 2391 481 2648 825 
Q 2906 1169 2906 1791 
z
M 3481 434 
Q 3481 -459 3084 -895 
Q 2688 -1331 1869 -1331 
Q 1566 -1331 1297 -1286 
Q 1028 -1241 775 -1147 
L 775 -588 
Q 1028 -725 1275 -790 
Q 1522 -856 1778 -856 
Q 2344 -856 2625 -561 
Q 2906 -266 2906 331 
L 2906 616 
Q 2728 306 2450 153 
Q 2172 0 1784 0 
Q 1141 0 747 490 
Q 353 981 353 1791 
Q 353 2603 747 3093 
Q 1141 3584 1784 3584 
Q 2172 3584 2450 3431 
Q 2728 3278 2906 2969 
L 2906 3500 
L 3481 3500 
L 3481 434 
z
" transform="scale(0.015625)"/>
    </defs>
    <use xlink:href="#DejaVuSans-74"/>
    <use xlink:href="#DejaVuSans-72" x="39.208984"/>
    <use xlink:href="#DejaVuSans-61" x="80.322266"/>
    <use xlink:href="#DejaVuSans-69" x="141.601562"/>
    <use xlink:href="#DejaVuSans-6e" x="169.384766"/>
    <use xlink:href="#DejaVuSans-69" x="232.763672"/>
    <use xlink:href="#DejaVuSans-6e" x="260.546875"/>
    <use xlink:href="#DejaVuSans-67" x="323.925781"/>
   </g>
  </g>
 </g>
 <defs>
  <clipPath id="p0983efcf0e">
   <rect x="36.465625" y="43.44" width="665.823636" height="298.76"/>
  </clipPath>
  <clipPath id="pfe35ea8f27">
   <rect x="36.465625" y="386.16" width="665.823636" height="298.76"/>
  </clipPath>
 </defs>
</svg>
