<?xml version="1.0" encoding="utf-8" standalone="no"?>
<!DOCTYPE svg PUBLIC "-//W3C//DTD SVG 1.1//EN"
  "http://www.w3.org/Graphics/SVG/1.1/DTD/svg11.dtd">
<svg xmlns:xlink="http://www.w3.org/1999/xlink" width="709.336136pt" height="708.798125pt" viewBox="0 0 709.336136 708.798125" xmlns="http://www.w3.org/2000/svg" version="1.1">
 <metadata>
  <rdf:RDF xmlns:dc="http://purl.org/dc/elements/1.1/" xmlns:cc="http://creativecommons.org/ns#" xmlns:rdf="http://www.w3.org/1999/02/22-rdf-syntax-ns#">
   <cc:Work>
    <dc:type rdf:resource="http://purl.org/dc/dcmitype/StillImage"/>
    <dc:date>2023-06-12T20:09:24.286055</dc:date>
    <dc:format>image/svg+xml</dc:format>
    <dc:creator>
     <cc:Agent>
      <dc:title>Matplotlib v3.7.1, https://matplotlib.org/</dc:title>
     </cc:Agent>
    </dc:creator>
   </cc:Work>
  </rdf:RDF>
 </metadata>
 <defs>
  <style type="text/css">*{stroke-linejoin: round; stroke-linecap: butt}</style>
 </defs>
 <g id="figure_1">
  <g id="patch_1">
   <path d="M 0 708.798125 
L 709.336136 708.798125 
L 709.336136 0 
L 0 0 
z
" style="fill: #ffffff"/>
  </g>
  <g id="axes_1">
   <g id="patch_2">
    <path d="M 20.5625 342.2 
L 702.136136 342.2 
L 702.136136 43.44 
L 20.5625 43.44 
z
" style="fill: #ffffff"/>
   </g>
   <g id="matplotlib.axis_1">
    <g id="xtick_1">
     <g id="line2d_1">
      <defs>
       <path id="m01c437d600" d="M 0 0 
L 0 3.5 
" style="stroke: #000000; stroke-width: 0.8"/>
      </defs>
      <g>
       <use xlink:href="#m01c437d600" x="51.370957" y="342.2" style="stroke: #000000; stroke-width: 0.8"/>
      </g>
     </g>
     <g id="text_1">
      <!-- 2014-07-01 -->
      <g transform="translate(22.313145 356.798437) scale(0.1 -0.1)">
       <defs>
        <path id="DejaVuSans-32" d="M 1228 531 
L 3431 531 
L 3431 0 
L 469 0 
L 469 531 
Q 828 903 1448 1529 
Q 2069 2156 2228 2338 
Q 2531 2678 2651 2914 
Q 2772 3150 2772 3378 
Q 2772 3750 2511 3984 
Q 2250 4219 1831 4219 
Q 1534 4219 1204 4116 
Q 875 4013 500 3803 
L 500 4441 
Q 881 4594 1212 4672 
Q 1544 4750 1819 4750 
Q 2544 4750 2975 4387 
Q 3406 4025 3406 3419 
Q 3406 3131 3298 2873 
Q 3191 2616 2906 2266 
Q 2828 2175 2409 1742 
Q 1991 1309 1228 531 
z
" transform="scale(0.015625)"/>
        <path id="DejaVuSans-30" d="M 2034 4250 
Q 1547 4250 1301 3770 
Q 1056 3291 1056 2328 
Q 1056 1369 1301 889 
Q 1547 409 2034 409 
Q 2525 409 2770 889 
Q 3016 1369 3016 2328 
Q 3016 3291 2770 3770 
Q 2525 4250 2034 4250 
z
M 2034 4750 
Q 2819 4750 3233 4129 
Q 3647 3509 3647 2328 
Q 3647 1150 3233 529 
Q 2819 -91 2034 -91 
Q 1250 -91 836 529 
Q 422 1150 422 2328 
Q 422 3509 836 4129 
Q 1250 4750 2034 4750 
z
" transform="scale(0.015625)"/>
        <path id="DejaVuSans-31" d="M 794 531 
L 1825 531 
L 1825 4091 
L 703 3866 
L 703 4441 
L 1819 4666 
L 2450 4666 
L 2450 531 
L 3481 531 
L 3481 0 
L 794 0 
L 794 531 
z
" transform="scale(0.015625)"/>
        <path id="DejaVuSans-34" d="M 2419 4116 
L 825 1625 
L 2419 1625 
L 2419 4116 
z
M 2253 4666 
L 3047 4666 
L 3047 1625 
L 3713 1625 
L 3713 1100 
L 3047 1100 
L 3047 0 
L 2419 0 
L 2419 1100 
L 313 1100 
L 313 1709 
L 2253 4666 
z
" transform="scale(0.015625)"/>
        <path id="DejaVuSans-2d" d="M 313 2009 
L 1997 2009 
L 1997 1497 
L 313 1497 
L 313 2009 
z
" transform="scale(0.015625)"/>
        <path id="DejaVuSans-37" d="M 525 4666 
L 3525 4666 
L 3525 4397 
L 1831 0 
L 1172 0 
L 2766 4134 
L 525 4134 
L 525 4666 
z
" transform="scale(0.015625)"/>
       </defs>
       <use xlink:href="#DejaVuSans-32"/>
       <use xlink:href="#DejaVuSans-30" x="63.623047"/>
       <use xlink:href="#DejaVuSans-31" x="127.246094"/>
       <use xlink:href="#DejaVuSans-34" x="190.869141"/>
       <use xlink:href="#DejaVuSans-2d" x="254.492188"/>
       <use xlink:href="#DejaVuSans-30" x="290.576172"/>
       <use xlink:href="#DejaVuSans-37" x="354.199219"/>
       <use xlink:href="#DejaVuSans-2d" x="417.822266"/>
       <use xlink:href="#DejaVuSans-30" x="453.90625"/>
       <use xlink:href="#DejaVuSans-31" x="517.529297"/>
      </g>
     </g>
    </g>
    <g id="xtick_2">
     <g id="line2d_2">
      <g>
       <use xlink:href="#m01c437d600" x="175.327869" y="342.2" style="stroke: #000000; stroke-width: 0.8"/>
      </g>
     </g>
     <g id="text_2">
      <!-- 2014-07-02 -->
      <g transform="translate(146.270057 356.798437) scale(0.1 -0.1)">
       <use xlink:href="#DejaVuSans-32"/>
       <use xlink:href="#DejaVuSans-30" x="63.623047"/>
       <use xlink:href="#DejaVuSans-31" x="127.246094"/>
       <use xlink:href="#DejaVuSans-34" x="190.869141"/>
       <use xlink:href="#DejaVuSans-2d" x="254.492188"/>
       <use xlink:href="#DejaVuSans-30" x="290.576172"/>
       <use xlink:href="#DejaVuSans-37" x="354.199219"/>
       <use xlink:href="#DejaVuSans-2d" x="417.822266"/>
       <use xlink:href="#DejaVuSans-30" x="453.90625"/>
       <use xlink:href="#DejaVuSans-32" x="517.529297"/>
      </g>
     </g>
    </g>
    <g id="xtick_3">
     <g id="line2d_3">
      <g>
       <use xlink:href="#m01c437d600" x="299.284781" y="342.2" style="stroke: #000000; stroke-width: 0.8"/>
      </g>
     </g>
     <g id="text_3">
      <!-- 2014-07-03 -->
      <g transform="translate(270.226969 356.798437) scale(0.1 -0.1)">
       <defs>
        <path id="DejaVuSans-33" d="M 2597 2516 
Q 3050 2419 3304 2112 
Q 3559 1806 3559 1356 
Q 3559 666 3084 287 
Q 2609 -91 1734 -91 
Q 1441 -91 1130 -33 
Q 819 25 488 141 
L 488 750 
Q 750 597 1062 519 
Q 1375 441 1716 441 
Q 2309 441 2620 675 
Q 2931 909 2931 1356 
Q 2931 1769 2642 2001 
Q 2353 2234 1838 2234 
L 1294 2234 
L 1294 2753 
L 1863 2753 
Q 2328 2753 2575 2939 
Q 2822 3125 2822 3475 
Q 2822 3834 2567 4026 
Q 2313 4219 1838 4219 
Q 1578 4219 1281 4162 
Q 984 4106 628 3988 
L 628 4550 
Q 988 4650 1302 4700 
Q 1616 4750 1894 4750 
Q 2613 4750 3031 4423 
Q 3450 4097 3450 3541 
Q 3450 3153 3228 2886 
Q 3006 2619 2597 2516 
z
" transform="scale(0.015625)"/>
       </defs>
       <use xlink:href="#DejaVuSans-32"/>
       <use xlink:href="#DejaVuSans-30" x="63.623047"/>
       <use xlink:href="#DejaVuSans-31" x="127.246094"/>
       <use xlink:href="#DejaVuSans-34" x="190.869141"/>
       <use xlink:href="#DejaVuSans-2d" x="254.492188"/>
       <use xlink:href="#DejaVuSans-30" x="290.576172"/>
       <use xlink:href="#DejaVuSans-37" x="354.199219"/>
       <use xlink:href="#DejaVuSans-2d" x="417.822266"/>
       <use xlink:href="#DejaVuSans-30" x="453.90625"/>
       <use xlink:href="#DejaVuSans-33" x="517.529297"/>
      </g>
     </g>
    </g>
    <g id="xtick_4">
     <g id="line2d_4">
      <g>
       <use xlink:href="#m01c437d600" x="423.241693" y="342.2" style="stroke: #000000; stroke-width: 0.8"/>
      </g>
     </g>
     <g id="text_4">
      <!-- 2014-07-04 -->
      <g transform="translate(394.18388 356.798437) scale(0.1 -0.1)">
       <use xlink:href="#DejaVuSans-32"/>
       <use xlink:href="#DejaVuSans-30" x="63.623047"/>
       <use xlink:href="#DejaVuSans-31" x="127.246094"/>
       <use xlink:href="#DejaVuSans-34" x="190.869141"/>
       <use xlink:href="#DejaVuSans-2d" x="254.492188"/>
       <use xlink:href="#DejaVuSans-30" x="290.576172"/>
       <use xlink:href="#DejaVuSans-37" x="354.199219"/>
       <use xlink:href="#DejaVuSans-2d" x="417.822266"/>
       <use xlink:href="#DejaVuSans-30" x="453.90625"/>
       <use xlink:href="#DejaVuSans-34" x="517.529297"/>
      </g>
     </g>
    </g>
    <g id="xtick_5">
     <g id="line2d_5">
      <g>
       <use xlink:href="#m01c437d600" x="547.198605" y="342.2" style="stroke: #000000; stroke-width: 0.8"/>
      </g>
     </g>
     <g id="text_5">
      <!-- 2014-07-05 -->
      <g transform="translate(518.140792 356.798437) scale(0.1 -0.1)">
       <defs>
        <path id="DejaVuSans-35" d="M 691 4666 
L 3169 4666 
L 3169 4134 
L 1269 4134 
L 1269 2991 
Q 1406 3038 1543 3061 
Q 1681 3084 1819 3084 
Q 2600 3084 3056 2656 
Q 3513 2228 3513 1497 
Q 3513 744 3044 326 
Q 2575 -91 1722 -91 
Q 1428 -91 1123 -41 
Q 819 9 494 109 
L 494 744 
Q 775 591 1075 516 
Q 1375 441 1709 441 
Q 2250 441 2565 725 
Q 2881 1009 2881 1497 
Q 2881 1984 2565 2268 
Q 2250 2553 1709 2553 
Q 1456 2553 1204 2497 
Q 953 2441 691 2322 
L 691 4666 
z
" transform="scale(0.015625)"/>
       </defs>
       <use xlink:href="#DejaVuSans-32"/>
       <use xlink:href="#DejaVuSans-30" x="63.623047"/>
       <use xlink:href="#DejaVuSans-31" x="127.246094"/>
       <use xlink:href="#DejaVuSans-34" x="190.869141"/>
       <use xlink:href="#DejaVuSans-2d" x="254.492188"/>
       <use xlink:href="#DejaVuSans-30" x="290.576172"/>
       <use xlink:href="#DejaVuSans-37" x="354.199219"/>
       <use xlink:href="#DejaVuSans-2d" x="417.822266"/>
       <use xlink:href="#DejaVuSans-30" x="453.90625"/>
       <use xlink:href="#DejaVuSans-35" x="517.529297"/>
      </g>
     </g>
    </g>
    <g id="xtick_6">
     <g id="line2d_6">
      <g>
       <use xlink:href="#m01c437d600" x="671.155517" y="342.2" style="stroke: #000000; stroke-width: 0.8"/>
      </g>
     </g>
     <g id="text_6">
      <!-- 2014-07-06 -->
      <g transform="translate(642.097704 356.798437) scale(0.1 -0.1)">
       <defs>
        <path id="DejaVuSans-36" d="M 2113 2584 
Q 1688 2584 1439 2293 
Q 1191 2003 1191 1497 
Q 1191 994 1439 701 
Q 1688 409 2113 409 
Q 2538 409 2786 701 
Q 3034 994 3034 1497 
Q 3034 2003 2786 2293 
Q 2538 2584 2113 2584 
z
M 3366 4563 
L 3366 3988 
Q 3128 4100 2886 4159 
Q 2644 4219 2406 4219 
Q 1781 4219 1451 3797 
Q 1122 3375 1075 2522 
Q 1259 2794 1537 2939 
Q 1816 3084 2150 3084 
Q 2853 3084 3261 2657 
Q 3669 2231 3669 1497 
Q 3669 778 3244 343 
Q 2819 -91 2113 -91 
Q 1303 -91 875 529 
Q 447 1150 447 2328 
Q 447 3434 972 4092 
Q 1497 4750 2381 4750 
Q 2619 4750 2861 4703 
Q 3103 4656 3366 4563 
z
" transform="scale(0.015625)"/>
       </defs>
       <use xlink:href="#DejaVuSans-32"/>
       <use xlink:href="#DejaVuSans-30" x="63.623047"/>
       <use xlink:href="#DejaVuSans-31" x="127.246094"/>
       <use xlink:href="#DejaVuSans-34" x="190.869141"/>
       <use xlink:href="#DejaVuSans-2d" x="254.492188"/>
       <use xlink:href="#DejaVuSans-30" x="290.576172"/>
       <use xlink:href="#DejaVuSans-37" x="354.199219"/>
       <use xlink:href="#DejaVuSans-2d" x="417.822266"/>
       <use xlink:href="#DejaVuSans-30" x="453.90625"/>
       <use xlink:href="#DejaVuSans-36" x="517.529297"/>
      </g>
     </g>
    </g>
   </g>
   <g id="matplotlib.axis_2">
    <g id="ytick_1">
     <g id="line2d_7">
      <defs>
       <path id="m8159f79e8a" d="M 0 0 
L -3.5 0 
" style="stroke: #000000; stroke-width: 0.8"/>
      </defs>
      <g>
       <use xlink:href="#m8159f79e8a" x="20.5625" y="328.619336" style="stroke: #000000; stroke-width: 0.8"/>
      </g>
     </g>
     <g id="text_7">
      <!-- 0 -->
      <g transform="translate(7.2 332.418555) scale(0.1 -0.1)">
       <use xlink:href="#DejaVuSans-30"/>
      </g>
     </g>
    </g>
    <g id="ytick_2">
     <g id="line2d_8">
      <g>
       <use xlink:href="#m8159f79e8a" x="20.5625" y="280.770946" style="stroke: #000000; stroke-width: 0.8"/>
      </g>
     </g>
     <g id="text_8">
      <!-- 1 -->
      <g transform="translate(7.2 284.570165) scale(0.1 -0.1)">
       <use xlink:href="#DejaVuSans-31"/>
      </g>
     </g>
    </g>
    <g id="ytick_3">
     <g id="line2d_9">
      <g>
       <use xlink:href="#m8159f79e8a" x="20.5625" y="232.922556" style="stroke: #000000; stroke-width: 0.8"/>
      </g>
     </g>
     <g id="text_9">
      <!-- 2 -->
      <g transform="translate(7.2 236.721775) scale(0.1 -0.1)">
       <use xlink:href="#DejaVuSans-32"/>
      </g>
     </g>
    </g>
    <g id="ytick_4">
     <g id="line2d_10">
      <g>
       <use xlink:href="#m8159f79e8a" x="20.5625" y="185.074166" style="stroke: #000000; stroke-width: 0.8"/>
      </g>
     </g>
     <g id="text_10">
      <!-- 3 -->
      <g transform="translate(7.2 188.873385) scale(0.1 -0.1)">
       <use xlink:href="#DejaVuSans-33"/>
      </g>
     </g>
    </g>
    <g id="ytick_5">
     <g id="line2d_11">
      <g>
       <use xlink:href="#m8159f79e8a" x="20.5625" y="137.225776" style="stroke: #000000; stroke-width: 0.8"/>
      </g>
     </g>
     <g id="text_11">
      <!-- 4 -->
      <g transform="translate(7.2 141.024994) scale(0.1 -0.1)">
       <use xlink:href="#DejaVuSans-34"/>
      </g>
     </g>
    </g>
    <g id="ytick_6">
     <g id="line2d_12">
      <g>
       <use xlink:href="#m8159f79e8a" x="20.5625" y="89.377386" style="stroke: #000000; stroke-width: 0.8"/>
      </g>
     </g>
     <g id="text_12">
      <!-- 5 -->
      <g transform="translate(7.2 93.176604) scale(0.1 -0.1)">
       <use xlink:href="#DejaVuSans-35"/>
      </g>
     </g>
    </g>
   </g>
   <g id="line2d_13">
    <path d="M 51.54312 328.617114 
L 52.231769 328.432452 
L 53.953393 327.426192 
L 56.019342 325.911392 
L 56.535829 325.541131 
L 56.880154 325.099879 
L 57.999209 324.746299 
L 59.290427 324.491241 
L 59.979076 324.600559 
L 61.012051 325.058127 
L 63.766649 326.304919 
L 65.057866 326.467078 
L 65.488272 326.375497 
L 66.521247 325.205345 
L 67.46814 323.894638 
L 67.812465 323.337533 
L 68.328952 322.019564 
L 70.136657 314.024946 
L 70.653144 312.798796 
L 70.997468 311.752933 
L 71.255712 311.266548 
L 71.427874 310.876264 
L 71.772199 309.973128 
L 71.85828 309.949006 
L 72.030443 309.150666 
L 72.460849 306.735466 
L 72.719092 305.414924 
L 72.977336 304.147251 
L 73.063417 304.219478 
L 73.235579 304.516972 
L 73.493823 303.371902 
L 73.665985 302.70904 
L 73.752067 302.704734 
L 73.838148 302.575642 
L 74.871122 297.873888 
L 75.043284 297.719373 
L 75.301528 296.330185 
L 75.47369 295.600373 
L 75.559771 295.610033 
L 75.645853 295.480855 
L 76.076259 293.437975 
L 76.16234 293.527267 
L 76.334502 293.831768 
L 76.506665 293.094915 
L 76.764908 292.010011 
L 76.850989 292.02518 
L 76.937071 291.890353 
L 77.711801 287.57094 
L 79.175181 274.365002 
L 79.519506 272.644913 
L 80.122075 268.137365 
L 80.55248 264.9749 
L 80.638562 262.043817 
L 81.068968 230.627357 
L 81.327211 229.230009 
L 81.671536 229.464032 
L 81.843698 229.36314 
L 82.015861 228.923968 
L 82.618429 226.378582 
L 83.995728 221.648928 
L 84.253972 220.281537 
L 84.426134 211.919525 
L 84.512215 212.392133 
L 84.598296 211.126011 
L 84.684378 211.423313 
L 84.85654 210.102273 
L 85.028702 202.035156 
L 85.114783 202.915964 
L 85.200865 201.546531 
L 85.373027 196.066394 
L 85.545189 194.808178 
L 85.631271 189.544563 
L 85.717352 191.268577 
L 86.061677 180.021758 
L 86.147758 178.85185 
L 86.233839 172.666303 
L 86.31992 172.872479 
L 86.664245 164.244513 
L 86.750326 161.92416 
L 87.094651 145.756158 
L 87.525057 128.505816 
L 88.47195 103.009401 
L 88.988437 96.943181 
L 89.074518 97.2185 
L 89.246681 95.980464 
L 89.332762 95.32291 
L 89.418843 96.365186 
L 89.504924 95.056808 
L 89.591005 95.709252 
L 89.677086 95.205796 
L 89.763168 95.78808 
L 89.93533 94.783246 
L 90.021411 95.998626 
L 90.107492 94.775876 
L 90.193574 95.538429 
L 90.279655 95.062398 
L 90.365736 95.578425 
L 90.537898 94.551459 
L 90.62398 95.579589 
L 90.710061 94.28773 
L 90.796142 94.908117 
L 90.882223 94.322365 
L 90.968304 94.693374 
L 91.140467 93.668895 
L 91.226548 94.445753 
L 91.312629 93.163067 
L 91.39871 93.58021 
L 91.484791 92.980494 
L 91.570873 93.27669 
L 91.743035 92.745353 
L 91.829116 92.236445 
L 91.915197 92.90527 
L 92.001279 91.845768 
L 92.08736 92.186296 
L 92.173441 91.736457 
L 92.259522 91.989965 
L 92.431684 91.316303 
L 92.517766 91.779214 
L 92.603847 91.079953 
L 92.689928 91.446604 
L 92.776009 91.140917 
L 92.86209 91.479665 
L 93.034253 91.098137 
L 93.206415 91.693381 
L 93.292496 90.597967 
L 93.378578 92.619957 
L 93.464659 91.766894 
L 93.55074 91.986976 
L 93.722902 92.680579 
L 93.808984 92.569169 
L 94.153308 93.361633 
L 94.239389 93.420019 
L 94.841958 94.864151 
L 94.928039 94.853884 
L 95.444526 96.005607 
L 95.530607 95.93935 
L 95.961013 97.101477 
L 96.047094 96.937203 
L 96.133176 96.494324 
L 96.305338 96.86207 
L 96.391419 96.457042 
L 96.563582 96.976766 
L 96.735744 94.676855 
L 96.821825 96.212912 
L 96.993987 94.439616 
L 97.16615 93.837984 
L 97.338312 88.998094 
L 97.424393 91.205258 
L 97.510475 87.060135 
L 97.596556 88.30189 
L 97.682637 84.473954 
L 97.768718 86.248095 
L 98.026962 82.294124 
L 98.113043 81.862014 
L 98.371287 77.128538 
L 98.715611 70.093646 
L 98.801692 71.435951 
L 98.887774 68.439015 
L 98.973855 69.878492 
L 99.059936 68.038368 
L 99.146017 68.404814 
L 99.31818 69.380376 
L 99.662504 73.458123 
L 101.384128 98.466734 
L 102.503184 107.207685 
L 103.622239 113.884116 
L 103.794401 114.648517 
L 104.310889 117.213844 
L 104.483051 117.986641 
L 106.118594 125.760357 
L 106.721162 128.259427 
L 107.668055 132.25287 
L 110.508734 141.66017 
L 112.144277 145.857461 
L 113.263332 147.809029 
L 113.435495 147.915522 
L 113.521576 147.725261 
L 113.607657 147.974387 
L 113.693738 147.681374 
L 113.779819 147.891543 
L 113.8659 147.677929 
L 114.640631 148.471272 
L 114.898875 148.464575 
L 115.2432 148.433774 
L 115.931849 148.294848 
L 118.428204 149.082612 
L 118.686447 149.192379 
L 119.461178 149.393182 
L 119.805503 149.507524 
L 120.149827 149.568785 
L 123.851318 150.75172 
L 124.281724 150.941354 
L 125.056455 151.237436 
L 125.314699 151.390211 
L 125.486861 151.425154 
L 126.089429 151.650084 
L 126.347673 151.772389 
L 126.778079 151.944877 
L 129.963083 152.819285 
L 130.221326 152.790354 
L 130.307408 152.936764 
L 130.393489 152.821692 
L 130.565651 152.89979 
L 130.823895 152.946666 
L 130.996057 153.034267 
L 132.889843 154.283312 
L 133.750655 155.421608 
L 135.644441 158.421167 
L 135.816604 158.382266 
L 135.988766 158.896343 
L 136.24701 159.634208 
L 137.538227 162.06191 
L 139.17377 164.553143 
L 140.034582 165.555388 
L 140.120663 165.576961 
L 140.378907 165.85293 
L 141.067556 166.525246 
L 141.670124 167.092073 
L 142.272693 167.652351 
L 144.338641 169.376217 
L 146.060265 171.305689 
L 146.748915 171.889422 
L 147.093239 172.269523 
L 147.437564 172.648894 
L 147.954051 173.203092 
L 148.642701 173.805899 
L 149.761756 174.788717 
L 149.933919 174.93726 
L 150.450406 175.651808 
L 150.880812 176.117183 
L 152.258111 177.405597 
L 152.774598 177.996517 
L 154.840546 180.713924 
L 157.595144 185.803966 
L 158.972443 188.834749 
L 159.575012 189.860974 
L 159.747174 190.024164 
L 160.263661 191.10817 
L 161.124473 192.421179 
L 161.210554 192.437139 
L 161.468798 192.868051 
L 161.64096 192.976746 
L 162.760016 194.746666 
L 163.362584 195.470021 
L 163.448665 195.395424 
L 163.620828 194.675321 
L 163.79299 195.899131 
L 163.965152 196.56086 
L 164.051234 196.629137 
L 164.395558 197.249866 
L 165.084208 198.453461 
L 166.117182 200.177749 
L 166.375426 200.416951 
L 168.699618 202.951135 
L 169.818673 203.638338 
L 169.990836 203.647715 
L 170.679485 204.174888 
L 171.195972 204.511262 
L 172.48719 205.469815 
L 172.917596 205.943518 
L 173.17584 206.08946 
L 173.606245 206.343287 
L 173.95057 206.626421 
L 174.208814 206.740979 
L 174.553139 207.037746 
L 174.725301 207.197331 
L 174.897463 207.138581 
L 175.500032 207.608611 
L 175.672194 208.194819 
L 176.274762 210.789773 
L 176.619087 211.612035 
L 176.705168 211.567556 
L 177.824224 212.640735 
L 177.996386 212.637952 
L 178.512873 213.075697 
L 178.685036 212.95985 
L 179.71801 213.560124 
L 179.890172 213.516169 
L 180.320578 213.78931 
L 180.492741 213.55717 
L 181.525715 214.243426 
L 182.214364 214.646594 
L 182.386527 214.641563 
L 184.108151 215.974912 
L 184.280313 216.070009 
L 185.141125 216.905185 
L 185.915855 217.751768 
L 186.088018 217.602815 
L 186.518424 218.038051 
L 186.690586 217.771459 
L 187.120992 218.170794 
L 187.551398 218.520265 
L 188.41221 219.192489 
L 188.670454 219.296073 
L 189.617347 219.983014 
L 189.789509 219.681787 
L 190.219915 220.018162 
L 190.392077 219.950661 
L 191.166808 220.601405 
L 192.458026 221.940047 
L 194.093568 224.131148 
L 196.073436 227.409621 
L 196.676004 228.598214 
L 197.278572 229.423374 
L 198.914115 232.554832 
L 199.516683 234.22256 
L 200.03317 236.271176 
L 200.635739 239.677987 
L 200.807901 240.619417 
L 201.324388 233.531352 
L 201.410469 232.755156 
L 201.582632 227.077889 
L 201.668713 227.109044 
L 202.013038 227.996491 
L 202.1852 224.187914 
L 202.271281 224.428325 
L 202.443444 223.729395 
L 202.529525 223.849155 
L 202.615606 223.732897 
L 202.87385 220.212257 
L 203.132093 218.81378 
L 203.304256 218.330128 
L 203.562499 214.678194 
L 204.509392 204.553152 
L 204.853717 199.071349 
L 205.542367 190.529012 
L 205.886691 187.823777 
L 206.231016 185.570046 
L 206.403178 185.148774 
L 206.661422 183.546836 
L 206.919666 182.751679 
L 207.005747 182.581667 
L 207.177909 181.913195 
L 207.436153 181.71391 
L 207.608315 181.824236 
L 207.694396 181.523226 
L 207.780477 181.581635 
L 208.038721 181.777737 
L 208.210883 182.040645 
L 208.296965 181.861757 
L 208.813452 182.569072 
L 208.985614 182.381514 
L 209.243858 182.658305 
L 209.502101 183.183367 
L 209.674264 183.065786 
L 209.932507 183.172051 
L 210.10467 183.249921 
L 210.276832 183.083491 
L 211.223725 182.95838 
L 211.309806 182.874269 
L 211.481969 182.198987 
L 211.740212 181.962751 
L 211.826293 181.932132 
L 211.912374 181.768269 
L 212.084537 180.684959 
L 212.34278 180.327936 
L 212.601024 179.981796 
L 212.773186 178.079955 
L 213.203592 176.680337 
L 213.375755 172.970005 
L 213.720079 170.682632 
L 213.806161 168.643017 
L 213.892242 162.988555 
L 213.978323 174.284189 
L 214.236567 156.603825 
L 214.408729 157.074254 
L 214.49481 156.676984 
L 215.527784 135.570004 
L 215.872109 128.897862 
L 215.95819 129.526645 
L 216.130353 128.631965 
L 216.216434 128.835757 
L 216.474677 130.377814 
L 217.077246 135.94423 
L 218.540626 149.929652 
L 218.971032 152.345695 
L 219.5736 154.083935 
L 220.26225 155.298471 
L 221.036981 156.670265 
L 221.72563 158.434595 
L 223.18901 163.684964 
L 224.394147 168.740316 
L 226.80442 181.865567 
L 227.320907 183.731006 
L 227.406988 183.512236 
L 227.49307 182.169885 
L 227.837394 186.570843 
L 228.2678 188.066778 
L 229.989424 194.021292 
L 230.936317 196.53485 
L 231.711048 198.181758 
L 232.055373 198.624774 
L 233.34659 200.404413 
L 233.604834 200.671736 
L 233.690915 200.553607 
L 233.863078 200.594915 
L 234.207402 200.810091 
L 234.293484 200.866561 
L 234.465646 200.78002 
L 234.72389 200.65232 
L 234.896052 200.741404 
L 235.068214 200.612357 
L 235.326458 200.478189 
L 235.49862 200.52398 
L 235.756864 200.364223 
L 236.359432 200.280512 
L 237.306325 200.286273 
L 237.65065 200.282656 
L 238.511462 200.552089 
L 238.597543 200.605889 
L 238.683624 200.504005 
L 238.855787 200.555808 
L 239.11403 200.805083 
L 239.716598 201.398205 
L 240.491329 202.438849 
L 240.57741 202.38724 
L 240.835654 202.592537 
L 241.524303 203.403414 
L 241.868628 204.010693 
L 242.299034 204.764884 
L 242.385115 204.671726 
L 242.815521 205.239306 
L 242.987684 205.349689 
L 243.245927 205.641573 
L 244.19282 207.496927 
L 244.278901 207.469662 
L 244.795389 208.151925 
L 244.88147 208.02613 
L 245.397957 208.738796 
L 246.603094 210.765714 
L 247.377824 211.924145 
L 247.636068 212.32097 
L 249.099448 214.92367 
L 249.27161 214.96321 
L 249.788098 215.8553 
L 249.874179 215.796663 
L 250.046341 215.980434 
L 251.079315 217.265402 
L 251.42364 217.699007 
L 251.854046 218.094657 
L 252.88702 219.226006 
L 253.059183 219.038197 
L 253.489589 219.504428 
L 253.661751 219.358395 
L 254.092157 219.789775 
L 254.264319 219.758472 
L 254.694725 220.153255 
L 254.866888 220.065094 
L 255.297294 220.444557 
L 255.469456 220.437758 
L 256.588511 221.334901 
L 256.760674 221.125086 
L 257.104999 221.448502 
L 258.65446 222.675974 
L 259.084866 223.114107 
L 259.257028 222.845827 
L 259.601353 223.219003 
L 259.773515 223.217018 
L 259.859597 223.185658 
L 260.290003 223.559279 
L 260.548246 223.638371 
L 260.892571 223.883687 
L 261.064733 223.586955 
L 261.322977 223.797877 
L 261.58122 223.917375 
L 261.839464 224.039052 
L 262.183789 224.241783 
L 262.355951 224.05848 
L 262.700276 224.269937 
L 262.786357 224.293449 
L 262.958519 224.061058 
L 263.302844 224.26769 
L 263.388925 224.274261 
L 263.561088 223.813323 
L 263.73325 223.897833 
L 263.991494 223.991161 
L 264.163656 223.502046 
L 264.335818 223.554979 
L 264.680143 223.638337 
L 265.024468 223.695456 
L 265.540955 223.744122 
L 266.143523 223.938069 
L 267.090416 224.357174 
L 267.262579 224.147621 
L 267.606904 224.424937 
L 267.779066 224.416997 
L 267.865147 224.379385 
L 268.381634 224.761962 
L 268.553797 224.420944 
L 268.81204 224.646947 
L 268.984203 224.753942 
L 269.156365 224.332772 
L 269.328527 224.463793 
L 269.586771 224.629117 
L 269.758933 224.391352 
L 270.103258 224.583211 
L 271.566638 224.889971 
L 271.652719 224.780911 
L 271.997044 224.951151 
L 272.685694 225.238118 
L 272.857856 224.84467 
L 273.1161 225.000514 
L 273.288262 225.088366 
L 273.460424 224.673322 
L 273.718668 224.841487 
L 274.062993 224.961156 
L 274.57948 225.21804 
L 274.837723 225.12559 
L 275.182048 225.27832 
L 275.354211 224.898378 
L 275.612454 225.046385 
L 275.784617 225.129503 
L 276.04286 225.107098 
L 276.387185 225.220584 
L 276.559347 224.743869 
L 276.73151 224.817405 
L 276.989753 224.913905 
L 277.247997 224.824694 
L 277.764484 224.988045 
L 278.625296 225.380079 
L 279.572189 226.065114 
L 280.519082 227.016663 
L 280.949488 227.641305 
L 281.552056 228.561082 
L 282.068543 229.146286 
L 283.27368 231.101357 
L 284.134492 232.900812 
L 284.73706 234.800053 
L 285.253547 237.200484 
L 286.20044 242.910577 
L 286.716928 246.716724 
L 286.975171 250.659332 
L 287.577739 254.679367 
L 288.094227 262.134225 
L 288.438551 265.560567 
L 288.782876 266.843932 
L 289.901932 268.62643 
L 290.074094 268.584865 
L 290.418419 269.323096 
L 291.020987 270.477369 
L 292.226124 272.196637 
L 293.517341 273.760324 
L 295.497209 276.243372 
L 296.530183 277.259791 
L 297.218833 277.720439 
L 297.73532 277.89093 
L 298.251807 277.91321 
L 299.026538 277.632375 
L 299.973431 277.136106 
L 301.781136 274.177 
L 302.383704 272.666628 
L 302.469785 272.59097 
L 303.330597 266.65168 
L 304.105328 259.747763 
L 304.363571 255.080088 
L 304.707896 247.828976 
L 304.880058 244.305763 
L 305.224383 234.067297 
L 305.74087 229.20579 
L 305.826951 229.250703 
L 305.913033 229.139339 
L 306.687763 224.901778 
L 306.773845 224.676836 
L 307.032088 222.74522 
L 307.376413 221.718334 
L 307.634656 219.775698 
L 309.098037 213.055106 
L 309.270199 212.601321 
L 309.528443 211.002965 
L 309.872767 209.966576 
L 310.131011 208.508515 
L 310.475336 207.183265 
L 310.733579 206.048665 
L 310.991823 205.318625 
L 311.077904 204.78697 
L 311.250066 201.302686 
L 311.50831 198.500245 
L 311.594391 198.495841 
L 311.680472 198.612556 
L 311.852635 199.028364 
L 311.938716 198.996662 
L 312.196959 198.303127 
L 312.97169 196.004574 
L 313.746421 193.79214 
L 314.004664 193.448248 
L 314.262908 193.395714 
L 314.521151 193.574385 
L 314.865476 194.158951 
L 315.468045 195.696377 
L 317.620074 201.320278 
L 318.394805 202.670009 
L 320.116429 204.976421 
L 320.632916 205.565482 
L 320.977241 206.066097 
L 321.407647 206.684921 
L 321.838053 207.337159 
L 322.35454 208.188944 
L 322.698864 208.821538 
L 322.871027 209.077897 
L 323.559676 210.498882 
L 324.936975 213.510283 
L 328.035898 221.003307 
L 333.114688 234.04435 
L 333.631175 236.706195 
L 334.405906 242.656094 
L 334.750231 246.197822 
L 335.094556 252.504704 
L 335.524962 258.512128 
L 336.041449 266.934409 
L 336.385773 268.927885 
L 336.644017 269.496919 
L 337.160504 271.231919 
L 337.935235 272.849417 
L 339.398615 275.385791 
L 341.292401 278.193332 
L 343.100106 280.539319 
L 345.166055 282.840801 
L 347.145922 284.668696 
L 350.072682 286.868088 
L 352.569037 288.402622 
L 356.528772 290.508149 
L 359.541613 291.880408 
L 363.501348 293.432864 
L 367.547164 294.749189 
L 372.625954 296.075312 
L 377.360419 297.121808 
L 383.386103 298.22476 
L 389.842192 299.224449 
L 404.389913 301.142071 
L 415.838711 302.367361 
L 427.029265 303.292691 
L 442.60996 304.244131 
L 482.982038 306.296243 
L 502.69463 307.22375 
L 531.531828 308.713106 
L 547.887254 309.371474 
L 566.997278 309.923694 
L 593.16596 310.367646 
L 628.459247 310.707787 
L 671.155517 310.939699 
L 671.155517 310.939699 
" clip-path="url(#p40e37fdeb7)" style="fill: none; stroke: #1f77b4; stroke-width: 1.5; stroke-linecap: square"/>
   </g>
   <g id="line2d_14">
    <path d="M 51.54312 328.619336 
L 52.403932 328.518628 
L 53.264744 328.197111 
L 55.330692 326.996692 
L 59.376508 324.145539 
L 60.323401 323.874245 
L 61.442457 323.823866 
L 63.594486 323.986842 
L 64.455298 323.967928 
L 65.143948 323.701363 
L 66.607328 322.180856 
L 67.554221 320.784578 
L 68.501114 318.575844 
L 69.103682 316.949787 
L 70.136657 313.947422 
L 70.567063 312.421821 
L 70.739225 311.881746 
L 71.169631 310.16589 
L 71.341793 309.563941 
L 71.772199 307.675996 
L 71.944362 306.953317 
L 72.374768 304.396526 
L 72.54693 303.48968 
L 72.977336 300.61583 
L 73.321661 298.562583 
L 74.268554 292.414954 
L 74.440716 291.394648 
L 74.871122 288.344555 
L 75.043284 287.316109 
L 75.47369 284.26272 
L 75.645853 283.238077 
L 76.076259 280.20833 
L 76.506665 277.516197 
L 79.0891 261.376391 
L 80.380318 255.905984 
L 80.55248 255.491178 
L 80.810724 252.116518 
L 81.327211 247.093189 
L 81.757617 244.665134 
L 82.188023 243.31118 
L 82.532348 242.838963 
L 82.876673 242.735077 
L 83.220997 242.882921 
L 83.737484 243.408251 
L 84.253972 244.196419 
L 84.426134 241.178549 
L 85.631271 216.103021 
L 86.061677 204.671257 
L 86.31992 197.942754 
L 87.094651 178.539216 
L 88.558031 148.857701 
L 88.816275 144.554395 
L 89.504924 134.009649 
L 90.279655 124.021137 
L 92.08736 107.524832 
L 93.378578 100.413788 
L 93.722902 99.037852 
L 94.067227 97.83081 
L 94.239389 97.412781 
L 94.583714 96.219149 
L 94.928039 95.717613 
L 95.272364 94.270379 
L 95.530607 93.559495 
L 95.874932 91.472758 
L 96.133176 90.312021 
L 96.4775 87.172571 
L 96.735744 85.252236 
L 97.16615 79.369496 
L 97.252231 78.696644 
L 98.199124 61.727447 
L 98.62953 58.858784 
L 98.973855 57.550723 
L 99.404261 57.031516 
L 99.576423 57.060744 
L 100.09291 57.649308 
L 100.78156 59.316602 
L 101.814534 63.074886 
L 102.761427 67.751554 
L 108.270623 96.861794 
L 110.422653 107.085212 
L 113.521576 120.22458 
L 113.693738 120.102263 
L 113.951982 120.247097 
L 114.468469 121.082146 
L 115.2432 123.217532 
L 116.448336 127.20029 
L 117.653473 131.358779 
L 118.600366 134.457173 
L 121.09672 142.023152 
L 123.420912 148.049049 
L 123.851318 148.988129 
L 124.281724 149.871757 
L 125.314699 151.933698 
L 125.745105 152.772981 
L 126.089429 153.367861 
L 127.724972 155.946572 
L 127.983215 156.154814 
L 128.585784 156.822808 
L 129.704839 158.037082 
L 129.963083 158.213878 
L 130.221326 158.495409 
L 130.393489 158.471648 
L 130.651732 158.669117 
L 131.684707 160.208008 
L 132.373356 161.99597 
L 133.492412 165.595371 
L 136.160928 175.22146 
L 139.432014 186.701087 
L 140.120663 188.247566 
L 140.378907 188.484222 
L 142.10053 190.972005 
L 144.080398 194.978221 
L 146.490671 199.150012 
L 147.437564 200.121411 
L 148.212295 201.162609 
L 148.55662 201.581335 
L 151.311218 205.867618 
L 151.569461 205.882716 
L 152.258111 206.412685 
L 152.688517 206.780094 
L 153.549329 207.576777 
L 154.324059 208.810768 
L 155.443115 211.043573 
L 155.701358 211.392761 
L 156.131764 211.865094 
L 157.164738 212.886983 
L 157.681226 213.335972 
L 158.197713 214.08331 
L 159.402849 215.963081 
L 159.747174 216.087833 
L 160.091499 216.276621 
L 160.435824 216.461286 
L 160.607986 216.566738 
L 160.86623 216.522711 
L 161.296636 216.562716 
L 161.554879 216.491127 
L 161.899204 216.664467 
L 162.846097 217.671913 
L 163.534746 218.770808 
L 163.79299 219.096776 
L 165.342451 220.625126 
L 166.891913 222.883846 
L 167.580562 223.441195 
L 167.924887 223.628067 
L 168.441374 224.24441 
L 168.613537 224.444009 
L 168.87178 224.509708 
L 169.474348 224.78062 
L 170.249079 224.907822 
L 170.679485 225.222367 
L 172.056784 226.814021 
L 173.692327 229.226935 
L 174.036651 229.412744 
L 174.208814 229.519793 
L 174.467057 229.519867 
L 174.897463 229.603782 
L 175.241788 229.589319 
L 175.930438 230.01692 
L 176.188681 230.174688 
L 176.533006 230.392117 
L 176.705168 230.488697 
L 176.963412 230.387715 
L 177.307737 230.431978 
L 177.56598 230.211097 
L 178.25463 230.115532 
L 178.685036 230.182828 
L 179.02936 230.170003 
L 180.406659 230.761843 
L 180.664903 230.582193 
L 181.009228 230.626369 
L 181.353552 230.814852 
L 182.300446 231.591164 
L 182.64477 231.770214 
L 183.935988 233.060718 
L 184.194232 233.288216 
L 184.624638 233.607417 
L 185.571531 234.817941 
L 186.001937 235.456478 
L 186.26018 235.429745 
L 186.604505 235.522673 
L 186.862749 235.262644 
L 187.207073 235.225869 
L 187.551398 235.382856 
L 189.703428 237.077527 
L 189.961671 236.876693 
L 190.650321 236.798874 
L 190.994646 236.997296 
L 191.511133 237.596577 
L 192.371945 239.025672 
L 194.437893 243.073495 
L 198.311547 250.58806 
L 200.807901 255.117597 
L 200.980064 253.770873 
L 201.840875 245.431928 
L 202.1852 241.362136 
L 203.046012 230.58169 
L 205.456285 207.556049 
L 206.575341 200.561196 
L 207.005747 198.577093 
L 207.95264 194.308042 
L 209.157776 190.708304 
L 209.846426 189.51939 
L 211.051563 188.179172 
L 211.395887 187.950026 
L 211.740212 186.793674 
L 211.998456 186.10287 
L 212.34278 183.968572 
L 212.687105 182.416127 
L 213.117511 178.275735 
L 213.203592 177.791867 
L 213.806161 168.305748 
L 214.753054 146.13052 
L 215.18346 141.982475 
L 215.527784 140.149264 
L 215.95819 139.106427 
L 216.216434 138.947943 
L 216.64684 139.12356 
L 217.163327 139.923431 
L 217.765895 141.313575 
L 218.368464 143.12439 
L 219.487519 147.356646 
L 226.115771 173.602836 
L 227.320907 177.656061 
L 227.923476 179.288525 
L 228.526044 180.653529 
L 231.88321 188.127335 
L 232.141454 188.344667 
L 233.518753 190.304379 
L 233.690915 190.535007 
L 233.949159 190.599739 
L 234.551727 190.972569 
L 234.809971 191.099489 
L 234.982133 191.196905 
L 235.240377 191.130307 
L 236.015107 191.500198 
L 236.962 192.740922 
L 238.425381 195.084672 
L 238.683624 195.3972 
L 238.941868 195.415463 
L 239.716598 195.988831 
L 240.233086 196.809628 
L 240.663492 197.501575 
L 241.007816 197.877896 
L 241.352141 198.214322 
L 241.782547 198.786381 
L 242.557278 199.81561 
L 243.762414 200.518354 
L 244.537145 201.406936 
L 244.88147 201.701308 
L 245.139713 201.574685 
L 245.484038 201.732954 
L 245.828363 202.052497 
L 246.430931 203.021072 
L 247.636068 205.198495 
L 248.152555 205.951805 
L 249.013367 207.695913 
L 249.27161 208.042243 
L 249.702016 208.50616 
L 249.874179 208.688591 
L 250.132422 208.698316 
L 250.821072 209.170232 
L 252.973102 211.49256 
L 253.231345 211.47957 
L 253.747832 211.611756 
L 254.006076 211.701964 
L 254.350401 211.844452 
L 255.641618 212.711009 
L 256.158106 213.342422 
L 256.846755 214.104325 
L 257.19108 214.358455 
L 257.707567 214.972596 
L 259.170947 217.242941 
L 259.429191 217.240531 
L 260.634327 217.956343 
L 260.978652 218.291126 
L 261.236896 218.229379 
L 261.667302 218.451988 
L 262.097708 218.896844 
L 262.355951 219.092453 
L 262.700276 219.326546 
L 262.872438 219.454266 
L 263.130682 219.460288 
L 263.475007 219.612898 
L 263.73325 219.388873 
L 264.077575 219.32559 
L 264.335818 218.98887 
L 264.680143 218.915117 
L 265.024468 219.08329 
L 265.799199 219.940388 
L 267.434741 222.249605 
L 268.467716 223.048219 
L 268.725959 222.931859 
L 269.070284 222.965917 
L 269.328527 222.688815 
L 270.103258 222.457805 
L 270.447583 222.661096 
L 271.222314 223.561757 
L 271.652719 224.042332 
L 271.997044 224.276123 
L 272.513531 224.946542 
L 272.771775 225.273756 
L 273.030019 225.204526 
L 273.374343 225.285122 
L 273.632587 225.055985 
L 273.976912 225.070194 
L 274.321236 225.280522 
L 274.837723 225.665732 
L 275.354211 225.851962 
L 275.698535 225.80199 
L 276.473266 226.11829 
L 276.73151 225.900238 
L 277.334078 225.871775 
L 277.678403 226.088534 
L 278.19489 226.75411 
L 279.055702 228.349392 
L 280.949488 232.512275 
L 284.823141 240.952161 
L 286.372603 244.020531 
L 286.630846 243.977668 
L 286.975171 244.1393 
L 287.491658 244.671661 
L 288.35247 245.973519 
L 290.246256 249.397627 
L 292.053961 252.547801 
L 292.65653 253.141444 
L 293.603423 254.484836 
L 296.616264 259.032567 
L 297.218833 259.556652 
L 297.73532 259.829854 
L 298.423969 259.924662 
L 298.854375 259.859623 
L 299.1987 259.726623 
L 299.456943 259.692119 
L 299.801268 259.372932 
L 300.059512 259.233466 
L 300.403837 258.754325 
L 300.66208 258.519735 
L 301.006405 257.890587 
L 301.264648 257.566626 
L 301.608973 256.79352 
L 301.867217 256.383823 
L 302.211542 255.469765 
L 302.555866 254.821243 
L 302.986272 253.025129 
L 303.158435 252.394338 
L 303.588841 250.155524 
L 303.761003 249.402184 
L 304.191409 246.950727 
L 304.363571 246.140647 
L 304.793977 243.595974 
L 304.96614 242.763282 
L 305.396545 240.19266 
L 305.74087 238.467252 
L 306.601682 233.799651 
L 306.946007 231.968133 
L 307.720738 227.642506 
L 310.303173 215.491833 
L 311.077904 213.454944 
L 311.336148 210.316602 
L 311.766553 206.453355 
L 312.196959 204.109413 
L 312.627365 202.997967 
L 312.885609 202.738368 
L 313.143852 202.732211 
L 313.488177 203.011122 
L 314.090746 203.914508 
L 315.898451 207.660245 
L 317.792237 211.68716 
L 319.169536 214.481578 
L 322.440621 220.840012 
L 325.453462 228.054131 
L 327.519411 232.687391 
L 331.565227 241.462899 
L 334.836312 247.999685 
L 338.107397 254.046694 
L 341.464564 259.781538 
L 344.82173 265.075358 
L 348.178896 269.962067 
L 351.622144 274.58396 
L 355.065391 278.841671 
L 358.59472 282.857887 
L 362.21013 286.636291 
L 365.911621 290.181671 
L 369.699193 293.499783 
L 373.572847 296.597232 
L 377.532582 299.481342 
L 381.664479 302.214269 
L 385.882457 304.739915 
L 390.272598 307.112421 
L 394.920982 309.368075 
L 399.741528 311.457725 
L 404.820319 313.414432 
L 410.157352 315.23071 
L 415.838711 316.926389 
L 421.864394 318.490779 
L 428.320483 319.935418 
L 435.293059 321.265104 
L 442.868204 322.480002 
L 451.131998 323.577642 
L 460.256604 324.563123 
L 470.500266 325.44187 
L 482.121226 326.210631 
L 495.549891 326.870402 
L 511.474911 327.422812 
L 530.92926 327.866787 
L 555.978886 328.20512 
L 591.01393 328.439634 
L 648.171839 328.573324 
L 671.155517 328.592732 
L 671.155517 328.592732 
" clip-path="url(#p40e37fdeb7)" style="fill: none; stroke: #ff7f0e; stroke-width: 1.5; stroke-linecap: square"/>
   </g>
   <g id="patch_3">
    <path d="M 20.5625 342.2 
L 20.5625 43.44 
" style="fill: none; stroke: #000000; stroke-width: 0.8; stroke-linejoin: miter; stroke-linecap: square"/>
   </g>
   <g id="patch_4">
    <path d="M 702.136136 342.2 
L 702.136136 43.44 
" style="fill: none; stroke: #000000; stroke-width: 0.8; stroke-linejoin: miter; stroke-linecap: square"/>
   </g>
   <g id="patch_5">
    <path d="M 20.5625 342.2 
L 702.136136 342.2 
" style="fill: none; stroke: #000000; stroke-width: 0.8; stroke-linejoin: miter; stroke-linecap: square"/>
   </g>
   <g id="patch_6">
    <path d="M 20.5625 43.44 
L 702.136136 43.44 
" style="fill: none; stroke: #000000; stroke-width: 0.8; stroke-linejoin: miter; stroke-linecap: square"/>
   </g>
   <g id="text_13">
    <!-- 1 transformation(s) -->
    <g transform="translate(303.234631 37.44) scale(0.12 -0.12)">
     <defs>
      <path id="DejaVuSans-20" transform="scale(0.015625)"/>
      <path id="DejaVuSans-74" d="M 1172 4494 
L 1172 3500 
L 2356 3500 
L 2356 3053 
L 1172 3053 
L 1172 1153 
Q 1172 725 1289 603 
Q 1406 481 1766 481 
L 2356 481 
L 2356 0 
L 1766 0 
Q 1100 0 847 248 
Q 594 497 594 1153 
L 594 3053 
L 172 3053 
L 172 3500 
L 594 3500 
L 594 4494 
L 1172 4494 
z
" transform="scale(0.015625)"/>
      <path id="DejaVuSans-72" d="M 2631 2963 
Q 2534 3019 2420 3045 
Q 2306 3072 2169 3072 
Q 1681 3072 1420 2755 
Q 1159 2438 1159 1844 
L 1159 0 
L 581 0 
L 581 3500 
L 1159 3500 
L 1159 2956 
Q 1341 3275 1631 3429 
Q 1922 3584 2338 3584 
Q 2397 3584 2469 3576 
Q 2541 3569 2628 3553 
L 2631 2963 
z
" transform="scale(0.015625)"/>
      <path id="DejaVuSans-61" d="M 2194 1759 
Q 1497 1759 1228 1600 
Q 959 1441 959 1056 
Q 959 750 1161 570 
Q 1363 391 1709 391 
Q 2188 391 2477 730 
Q 2766 1069 2766 1631 
L 2766 1759 
L 2194 1759 
z
M 3341 1997 
L 3341 0 
L 2766 0 
L 2766 531 
Q 2569 213 2275 61 
Q 1981 -91 1556 -91 
Q 1019 -91 701 211 
Q 384 513 384 1019 
Q 384 1609 779 1909 
Q 1175 2209 1959 2209 
L 2766 2209 
L 2766 2266 
Q 2766 2663 2505 2880 
Q 2244 3097 1772 3097 
Q 1472 3097 1187 3025 
Q 903 2953 641 2809 
L 641 3341 
Q 956 3463 1253 3523 
Q 1550 3584 1831 3584 
Q 2591 3584 2966 3190 
Q 3341 2797 3341 1997 
z
" transform="scale(0.015625)"/>
      <path id="DejaVuSans-6e" d="M 3513 2113 
L 3513 0 
L 2938 0 
L 2938 2094 
Q 2938 2591 2744 2837 
Q 2550 3084 2163 3084 
Q 1697 3084 1428 2787 
Q 1159 2491 1159 1978 
L 1159 0 
L 581 0 
L 581 3500 
L 1159 3500 
L 1159 2956 
Q 1366 3272 1645 3428 
Q 1925 3584 2291 3584 
Q 2894 3584 3203 3211 
Q 3513 2838 3513 2113 
z
" transform="scale(0.015625)"/>
      <path id="DejaVuSans-73" d="M 2834 3397 
L 2834 2853 
Q 2591 2978 2328 3040 
Q 2066 3103 1784 3103 
Q 1356 3103 1142 2972 
Q 928 2841 928 2578 
Q 928 2378 1081 2264 
Q 1234 2150 1697 2047 
L 1894 2003 
Q 2506 1872 2764 1633 
Q 3022 1394 3022 966 
Q 3022 478 2636 193 
Q 2250 -91 1575 -91 
Q 1294 -91 989 -36 
Q 684 19 347 128 
L 347 722 
Q 666 556 975 473 
Q 1284 391 1588 391 
Q 1994 391 2212 530 
Q 2431 669 2431 922 
Q 2431 1156 2273 1281 
Q 2116 1406 1581 1522 
L 1381 1569 
Q 847 1681 609 1914 
Q 372 2147 372 2553 
Q 372 3047 722 3315 
Q 1072 3584 1716 3584 
Q 2034 3584 2315 3537 
Q 2597 3491 2834 3397 
z
" transform="scale(0.015625)"/>
      <path id="DejaVuSans-66" d="M 2375 4863 
L 2375 4384 
L 1825 4384 
Q 1516 4384 1395 4259 
Q 1275 4134 1275 3809 
L 1275 3500 
L 2222 3500 
L 2222 3053 
L 1275 3053 
L 1275 0 
L 697 0 
L 697 3053 
L 147 3053 
L 147 3500 
L 697 3500 
L 697 3744 
Q 697 4328 969 4595 
Q 1241 4863 1831 4863 
L 2375 4863 
z
" transform="scale(0.015625)"/>
      <path id="DejaVuSans-6f" d="M 1959 3097 
Q 1497 3097 1228 2736 
Q 959 2375 959 1747 
Q 959 1119 1226 758 
Q 1494 397 1959 397 
Q 2419 397 2687 759 
Q 2956 1122 2956 1747 
Q 2956 2369 2687 2733 
Q 2419 3097 1959 3097 
z
M 1959 3584 
Q 2709 3584 3137 3096 
Q 3566 2609 3566 1747 
Q 3566 888 3137 398 
Q 2709 -91 1959 -91 
Q 1206 -91 779 398 
Q 353 888 353 1747 
Q 353 2609 779 3096 
Q 1206 3584 1959 3584 
z
" transform="scale(0.015625)"/>
      <path id="DejaVuSans-6d" d="M 3328 2828 
Q 3544 3216 3844 3400 
Q 4144 3584 4550 3584 
Q 5097 3584 5394 3201 
Q 5691 2819 5691 2113 
L 5691 0 
L 5113 0 
L 5113 2094 
Q 5113 2597 4934 2840 
Q 4756 3084 4391 3084 
Q 3944 3084 3684 2787 
Q 3425 2491 3425 1978 
L 3425 0 
L 2847 0 
L 2847 2094 
Q 2847 2600 2669 2842 
Q 2491 3084 2119 3084 
Q 1678 3084 1418 2786 
Q 1159 2488 1159 1978 
L 1159 0 
L 581 0 
L 581 3500 
L 1159 3500 
L 1159 2956 
Q 1356 3278 1631 3431 
Q 1906 3584 2284 3584 
Q 2666 3584 2933 3390 
Q 3200 3197 3328 2828 
z
" transform="scale(0.015625)"/>
      <path id="DejaVuSans-69" d="M 603 3500 
L 1178 3500 
L 1178 0 
L 603 0 
L 603 3500 
z
M 603 4863 
L 1178 4863 
L 1178 4134 
L 603 4134 
L 603 4863 
z
" transform="scale(0.015625)"/>
      <path id="DejaVuSans-28" d="M 1984 4856 
Q 1566 4138 1362 3434 
Q 1159 2731 1159 2009 
Q 1159 1288 1364 580 
Q 1569 -128 1984 -844 
L 1484 -844 
Q 1016 -109 783 600 
Q 550 1309 550 2009 
Q 550 2706 781 3412 
Q 1013 4119 1484 4856 
L 1984 4856 
z
" transform="scale(0.015625)"/>
      <path id="DejaVuSans-29" d="M 513 4856 
L 1013 4856 
Q 1481 4119 1714 3412 
Q 1947 2706 1947 2009 
Q 1947 1309 1714 600 
Q 1481 -109 1013 -844 
L 513 -844 
Q 928 -128 1133 580 
Q 1338 1288 1338 2009 
Q 1338 2731 1133 3434 
Q 928 4138 513 4856 
z
" transform="scale(0.015625)"/>
     </defs>
     <use xlink:href="#DejaVuSans-31"/>
     <use xlink:href="#DejaVuSans-20" x="63.623047"/>
     <use xlink:href="#DejaVuSans-74" x="95.410156"/>
     <use xlink:href="#DejaVuSans-72" x="134.619141"/>
     <use xlink:href="#DejaVuSans-61" x="175.732422"/>
     <use xlink:href="#DejaVuSans-6e" x="237.011719"/>
     <use xlink:href="#DejaVuSans-73" x="300.390625"/>
     <use xlink:href="#DejaVuSans-66" x="352.490234"/>
     <use xlink:href="#DejaVuSans-6f" x="387.695312"/>
     <use xlink:href="#DejaVuSans-72" x="448.876953"/>
     <use xlink:href="#DejaVuSans-6d" x="488.240234"/>
     <use xlink:href="#DejaVuSans-61" x="585.652344"/>
     <use xlink:href="#DejaVuSans-74" x="646.931641"/>
     <use xlink:href="#DejaVuSans-69" x="686.140625"/>
     <use xlink:href="#DejaVuSans-6f" x="713.923828"/>
     <use xlink:href="#DejaVuSans-6e" x="775.105469"/>
     <use xlink:href="#DejaVuSans-28" x="838.484375"/>
     <use xlink:href="#DejaVuSans-73" x="877.498047"/>
     <use xlink:href="#DejaVuSans-29" x="929.597656"/>
    </g>
   </g>
   <g id="legend_1">
    <g id="patch_7">
     <path d="M 613.742386 80.79625 
L 695.136136 80.79625 
Q 697.136136 80.79625 697.136136 78.79625 
L 697.136136 50.44 
Q 697.136136 48.44 695.136136 48.44 
L 613.742386 48.44 
Q 611.742386 48.44 611.742386 50.44 
L 611.742386 78.79625 
Q 611.742386 80.79625 613.742386 80.79625 
z
" style="fill: #ffffff; opacity: 0.8; stroke: #cccccc; stroke-linejoin: miter"/>
    </g>
    <g id="line2d_15">
     <path d="M 615.742386 56.538437 
L 625.742386 56.538437 
L 635.742386 56.538437 
" style="fill: none; stroke: #1f77b4; stroke-width: 1.5; stroke-linecap: square"/>
    </g>
    <g id="text_14">
     <!-- observed -->
     <g transform="translate(643.742386 60.038437) scale(0.1 -0.1)">
      <defs>
       <path id="DejaVuSans-62" d="M 3116 1747 
Q 3116 2381 2855 2742 
Q 2594 3103 2138 3103 
Q 1681 3103 1420 2742 
Q 1159 2381 1159 1747 
Q 1159 1113 1420 752 
Q 1681 391 2138 391 
Q 2594 391 2855 752 
Q 3116 1113 3116 1747 
z
M 1159 2969 
Q 1341 3281 1617 3432 
Q 1894 3584 2278 3584 
Q 2916 3584 3314 3078 
Q 3713 2572 3713 1747 
Q 3713 922 3314 415 
Q 2916 -91 2278 -91 
Q 1894 -91 1617 61 
Q 1341 213 1159 525 
L 1159 0 
L 581 0 
L 581 4863 
L 1159 4863 
L 1159 2969 
z
" transform="scale(0.015625)"/>
       <path id="DejaVuSans-65" d="M 3597 1894 
L 3597 1613 
L 953 1613 
Q 991 1019 1311 708 
Q 1631 397 2203 397 
Q 2534 397 2845 478 
Q 3156 559 3463 722 
L 3463 178 
Q 3153 47 2828 -22 
Q 2503 -91 2169 -91 
Q 1331 -91 842 396 
Q 353 884 353 1716 
Q 353 2575 817 3079 
Q 1281 3584 2069 3584 
Q 2775 3584 3186 3129 
Q 3597 2675 3597 1894 
z
M 3022 2063 
Q 3016 2534 2758 2815 
Q 2500 3097 2075 3097 
Q 1594 3097 1305 2825 
Q 1016 2553 972 2059 
L 3022 2063 
z
" transform="scale(0.015625)"/>
       <path id="DejaVuSans-76" d="M 191 3500 
L 800 3500 
L 1894 563 
L 2988 3500 
L 3597 3500 
L 2284 0 
L 1503 0 
L 191 3500 
z
" transform="scale(0.015625)"/>
       <path id="DejaVuSans-64" d="M 2906 2969 
L 2906 4863 
L 3481 4863 
L 3481 0 
L 2906 0 
L 2906 525 
Q 2725 213 2448 61 
Q 2172 -91 1784 -91 
Q 1150 -91 751 415 
Q 353 922 353 1747 
Q 353 2572 751 3078 
Q 1150 3584 1784 3584 
Q 2172 3584 2448 3432 
Q 2725 3281 2906 2969 
z
M 947 1747 
Q 947 1113 1208 752 
Q 1469 391 1925 391 
Q 2381 391 2643 752 
Q 2906 1113 2906 1747 
Q 2906 2381 2643 2742 
Q 2381 3103 1925 3103 
Q 1469 3103 1208 2742 
Q 947 2381 947 1747 
z
" transform="scale(0.015625)"/>
      </defs>
      <use xlink:href="#DejaVuSans-6f"/>
      <use xlink:href="#DejaVuSans-62" x="61.181641"/>
      <use xlink:href="#DejaVuSans-73" x="124.658203"/>
      <use xlink:href="#DejaVuSans-65" x="176.757812"/>
      <use xlink:href="#DejaVuSans-72" x="238.28125"/>
      <use xlink:href="#DejaVuSans-76" x="279.394531"/>
      <use xlink:href="#DejaVuSans-65" x="338.574219"/>
      <use xlink:href="#DejaVuSans-64" x="400.097656"/>
     </g>
    </g>
    <g id="line2d_16">
     <path d="M 615.742386 71.216563 
L 625.742386 71.216563 
L 635.742386 71.216563 
" style="fill: none; stroke: #ff7f0e; stroke-width: 1.5; stroke-linecap: square"/>
    </g>
    <g id="text_15">
     <!-- simulated -->
     <g transform="translate(643.742386 74.716563) scale(0.1 -0.1)">
      <defs>
       <path id="DejaVuSans-75" d="M 544 1381 
L 544 3500 
L 1119 3500 
L 1119 1403 
Q 1119 906 1312 657 
Q 1506 409 1894 409 
Q 2359 409 2629 706 
Q 2900 1003 2900 1516 
L 2900 3500 
L 3475 3500 
L 3475 0 
L 2900 0 
L 2900 538 
Q 2691 219 2414 64 
Q 2138 -91 1772 -91 
Q 1169 -91 856 284 
Q 544 659 544 1381 
z
M 1991 3584 
L 1991 3584 
z
" transform="scale(0.015625)"/>
       <path id="DejaVuSans-6c" d="M 603 4863 
L 1178 4863 
L 1178 0 
L 603 0 
L 603 4863 
z
" transform="scale(0.015625)"/>
      </defs>
      <use xlink:href="#DejaVuSans-73"/>
      <use xlink:href="#DejaVuSans-69" x="52.099609"/>
      <use xlink:href="#DejaVuSans-6d" x="79.882812"/>
      <use xlink:href="#DejaVuSans-75" x="177.294922"/>
      <use xlink:href="#DejaVuSans-6c" x="240.673828"/>
      <use xlink:href="#DejaVuSans-61" x="268.457031"/>
      <use xlink:href="#DejaVuSans-74" x="329.736328"/>
      <use xlink:href="#DejaVuSans-65" x="368.945312"/>
      <use xlink:href="#DejaVuSans-64" x="430.46875"/>
     </g>
    </g>
   </g>
  </g>
  <g id="axes_2">
   <g id="patch_8">
    <path d="M 20.5625 684.92 
L 702.136136 684.92 
L 702.136136 386.16 
L 20.5625 386.16 
z
" style="fill: #ffffff"/>
   </g>
   <g id="matplotlib.axis_3">
    <g id="xtick_7">
     <g id="line2d_17">
      <g>
       <use xlink:href="#m01c437d600" x="51.370957" y="684.92" style="stroke: #000000; stroke-width: 0.8"/>
      </g>
     </g>
     <g id="text_16">
      <!-- 2014-07-01 -->
      <g transform="translate(22.313145 699.518437) scale(0.1 -0.1)">
       <use xlink:href="#DejaVuSans-32"/>
       <use xlink:href="#DejaVuSans-30" x="63.623047"/>
       <use xlink:href="#DejaVuSans-31" x="127.246094"/>
       <use xlink:href="#DejaVuSans-34" x="190.869141"/>
       <use xlink:href="#DejaVuSans-2d" x="254.492188"/>
       <use xlink:href="#DejaVuSans-30" x="290.576172"/>
       <use xlink:href="#DejaVuSans-37" x="354.199219"/>
       <use xlink:href="#DejaVuSans-2d" x="417.822266"/>
       <use xlink:href="#DejaVuSans-30" x="453.90625"/>
       <use xlink:href="#DejaVuSans-31" x="517.529297"/>
      </g>
     </g>
    </g>
    <g id="xtick_8">
     <g id="line2d_18">
      <g>
       <use xlink:href="#m01c437d600" x="175.327869" y="684.92" style="stroke: #000000; stroke-width: 0.8"/>
      </g>
     </g>
     <g id="text_17">
      <!-- 2014-07-02 -->
      <g transform="translate(146.270057 699.518437) scale(0.1 -0.1)">
       <use xlink:href="#DejaVuSans-32"/>
       <use xlink:href="#DejaVuSans-30" x="63.623047"/>
       <use xlink:href="#DejaVuSans-31" x="127.246094"/>
       <use xlink:href="#DejaVuSans-34" x="190.869141"/>
       <use xlink:href="#DejaVuSans-2d" x="254.492188"/>
       <use xlink:href="#DejaVuSans-30" x="290.576172"/>
       <use xlink:href="#DejaVuSans-37" x="354.199219"/>
       <use xlink:href="#DejaVuSans-2d" x="417.822266"/>
       <use xlink:href="#DejaVuSans-30" x="453.90625"/>
       <use xlink:href="#DejaVuSans-32" x="517.529297"/>
      </g>
     </g>
    </g>
    <g id="xtick_9">
     <g id="line2d_19">
      <g>
       <use xlink:href="#m01c437d600" x="299.284781" y="684.92" style="stroke: #000000; stroke-width: 0.8"/>
      </g>
     </g>
     <g id="text_18">
      <!-- 2014-07-03 -->
      <g transform="translate(270.226969 699.518437) scale(0.1 -0.1)">
       <use xlink:href="#DejaVuSans-32"/>
       <use xlink:href="#DejaVuSans-30" x="63.623047"/>
       <use xlink:href="#DejaVuSans-31" x="127.246094"/>
       <use xlink:href="#DejaVuSans-34" x="190.869141"/>
       <use xlink:href="#DejaVuSans-2d" x="254.492188"/>
       <use xlink:href="#DejaVuSans-30" x="290.576172"/>
       <use xlink:href="#DejaVuSans-37" x="354.199219"/>
       <use xlink:href="#DejaVuSans-2d" x="417.822266"/>
       <use xlink:href="#DejaVuSans-30" x="453.90625"/>
       <use xlink:href="#DejaVuSans-33" x="517.529297"/>
      </g>
     </g>
    </g>
    <g id="xtick_10">
     <g id="line2d_20">
      <g>
       <use xlink:href="#m01c437d600" x="423.241693" y="684.92" style="stroke: #000000; stroke-width: 0.8"/>
      </g>
     </g>
     <g id="text_19">
      <!-- 2014-07-04 -->
      <g transform="translate(394.18388 699.518437) scale(0.1 -0.1)">
       <use xlink:href="#DejaVuSans-32"/>
       <use xlink:href="#DejaVuSans-30" x="63.623047"/>
       <use xlink:href="#DejaVuSans-31" x="127.246094"/>
       <use xlink:href="#DejaVuSans-34" x="190.869141"/>
       <use xlink:href="#DejaVuSans-2d" x="254.492188"/>
       <use xlink:href="#DejaVuSans-30" x="290.576172"/>
       <use xlink:href="#DejaVuSans-37" x="354.199219"/>
       <use xlink:href="#DejaVuSans-2d" x="417.822266"/>
       <use xlink:href="#DejaVuSans-30" x="453.90625"/>
       <use xlink:href="#DejaVuSans-34" x="517.529297"/>
      </g>
     </g>
    </g>
    <g id="xtick_11">
     <g id="line2d_21">
      <g>
       <use xlink:href="#m01c437d600" x="547.198605" y="684.92" style="stroke: #000000; stroke-width: 0.8"/>
      </g>
     </g>
     <g id="text_20">
      <!-- 2014-07-05 -->
      <g transform="translate(518.140792 699.518437) scale(0.1 -0.1)">
       <use xlink:href="#DejaVuSans-32"/>
       <use xlink:href="#DejaVuSans-30" x="63.623047"/>
       <use xlink:href="#DejaVuSans-31" x="127.246094"/>
       <use xlink:href="#DejaVuSans-34" x="190.869141"/>
       <use xlink:href="#DejaVuSans-2d" x="254.492188"/>
       <use xlink:href="#DejaVuSans-30" x="290.576172"/>
       <use xlink:href="#DejaVuSans-37" x="354.199219"/>
       <use xlink:href="#DejaVuSans-2d" x="417.822266"/>
       <use xlink:href="#DejaVuSans-30" x="453.90625"/>
       <use xlink:href="#DejaVuSans-35" x="517.529297"/>
      </g>
     </g>
    </g>
    <g id="xtick_12">
     <g id="line2d_22">
      <g>
       <use xlink:href="#m01c437d600" x="671.155517" y="684.92" style="stroke: #000000; stroke-width: 0.8"/>
      </g>
     </g>
     <g id="text_21">
      <!-- 2014-07-06 -->
      <g transform="translate(642.097704 699.518437) scale(0.1 -0.1)">
       <use xlink:href="#DejaVuSans-32"/>
       <use xlink:href="#DejaVuSans-30" x="63.623047"/>
       <use xlink:href="#DejaVuSans-31" x="127.246094"/>
       <use xlink:href="#DejaVuSans-34" x="190.869141"/>
       <use xlink:href="#DejaVuSans-2d" x="254.492188"/>
       <use xlink:href="#DejaVuSans-30" x="290.576172"/>
       <use xlink:href="#DejaVuSans-37" x="354.199219"/>
       <use xlink:href="#DejaVuSans-2d" x="417.822266"/>
       <use xlink:href="#DejaVuSans-30" x="453.90625"/>
       <use xlink:href="#DejaVuSans-36" x="517.529297"/>
      </g>
     </g>
    </g>
   </g>
   <g id="matplotlib.axis_4">
    <g id="ytick_7">
     <g id="line2d_23">
      <g>
       <use xlink:href="#m8159f79e8a" x="20.5625" y="671.338758" style="stroke: #000000; stroke-width: 0.8"/>
      </g>
     </g>
     <g id="text_22">
      <!-- 0 -->
      <g transform="translate(7.2 675.137977) scale(0.1 -0.1)">
       <use xlink:href="#DejaVuSans-30"/>
      </g>
     </g>
    </g>
    <g id="ytick_8">
     <g id="line2d_24">
      <g>
       <use xlink:href="#m8159f79e8a" x="20.5625" y="621.46726" style="stroke: #000000; stroke-width: 0.8"/>
      </g>
     </g>
     <g id="text_23">
      <!-- 1 -->
      <g transform="translate(7.2 625.266479) scale(0.1 -0.1)">
       <use xlink:href="#DejaVuSans-31"/>
      </g>
     </g>
    </g>
    <g id="ytick_9">
     <g id="line2d_25">
      <g>
       <use xlink:href="#m8159f79e8a" x="20.5625" y="571.595762" style="stroke: #000000; stroke-width: 0.8"/>
      </g>
     </g>
     <g id="text_24">
      <!-- 2 -->
      <g transform="translate(7.2 575.39498) scale(0.1 -0.1)">
       <use xlink:href="#DejaVuSans-32"/>
      </g>
     </g>
    </g>
    <g id="ytick_10">
     <g id="line2d_26">
      <g>
       <use xlink:href="#m8159f79e8a" x="20.5625" y="521.724263" style="stroke: #000000; stroke-width: 0.8"/>
      </g>
     </g>
     <g id="text_25">
      <!-- 3 -->
      <g transform="translate(7.2 525.523482) scale(0.1 -0.1)">
       <use xlink:href="#DejaVuSans-33"/>
      </g>
     </g>
    </g>
    <g id="ytick_11">
     <g id="line2d_27">
      <g>
       <use xlink:href="#m8159f79e8a" x="20.5625" y="471.852765" style="stroke: #000000; stroke-width: 0.8"/>
      </g>
     </g>
     <g id="text_26">
      <!-- 4 -->
      <g transform="translate(7.2 475.651984) scale(0.1 -0.1)">
       <use xlink:href="#DejaVuSans-34"/>
      </g>
     </g>
    </g>
    <g id="ytick_12">
     <g id="line2d_28">
      <g>
       <use xlink:href="#m8159f79e8a" x="20.5625" y="421.981266" style="stroke: #000000; stroke-width: 0.8"/>
      </g>
     </g>
     <g id="text_27">
      <!-- 5 -->
      <g transform="translate(7.2 425.780485) scale(0.1 -0.1)">
       <use xlink:href="#DejaVuSans-35"/>
      </g>
     </g>
    </g>
   </g>
   <g id="line2d_29">
    <path d="M 51.54312 671.336442 
L 52.231769 671.143973 
L 53.867312 670.163519 
L 57.396641 667.481722 
L 59.118264 667.049121 
L 59.720833 667.078498 
L 60.409482 667.329142 
L 62.303268 668.346022 
L 63.16408 668.787817 
L 64.885704 669.096367 
L 65.488272 669.000046 
L 66.521247 667.780418 
L 67.46814 666.414292 
L 67.812465 665.833632 
L 68.328952 664.459937 
L 70.136657 656.127294 
L 70.653144 654.8493 
L 70.997468 653.759216 
L 71.255712 653.252266 
L 71.427874 652.84548 
L 71.772199 651.904158 
L 71.85828 651.879016 
L 72.030443 651.046922 
L 72.460849 648.529603 
L 72.719092 647.153226 
L 72.977336 645.831954 
L 73.063417 645.907235 
L 73.235579 646.217307 
L 73.493823 645.023822 
L 73.665985 644.332933 
L 73.752067 644.328445 
L 73.838148 644.193894 
L 74.871122 639.293343 
L 75.043284 639.132295 
L 75.301528 637.68437 
L 75.47369 636.9237 
L 75.559771 636.933768 
L 75.645853 636.799128 
L 76.076259 634.669871 
L 76.16234 634.76294 
L 76.334502 635.080315 
L 76.506665 634.312307 
L 76.764908 633.181531 
L 76.850989 633.197342 
L 76.937071 633.056814 
L 77.711801 628.554769 
L 79.175181 614.790463 
L 79.519506 612.997645 
L 80.122075 608.299511 
L 80.55248 605.003332 
L 80.638562 601.948318 
L 81.068968 569.203518 
L 81.327211 567.747088 
L 81.671536 567.991006 
L 81.843698 567.885848 
L 82.015861 567.428107 
L 82.618429 564.775098 
L 83.995728 559.845466 
L 84.253972 558.42026 
L 84.426134 549.704688 
L 84.512215 550.197279 
L 84.598296 548.877623 
L 84.684378 549.187496 
L 84.85654 547.8106 
L 85.028702 539.402392 
L 85.114783 540.320442 
L 85.200865 538.893107 
L 85.373027 533.181261 
L 85.545189 531.869845 
L 85.631271 526.383676 
L 85.717352 528.180585 
L 86.061677 516.458231 
L 86.147758 515.238858 
L 86.233839 508.791775 
L 86.31992 509.006669 
L 86.664245 500.013898 
L 86.750326 497.595437 
L 87.094651 480.743826 
L 87.525057 462.764111 
L 88.47195 436.189666 
L 88.988437 429.866955 
L 89.074518 430.153916 
L 89.246681 428.863534 
L 89.332762 428.178177 
L 89.418843 429.264522 
L 89.504924 427.900824 
L 89.591005 428.580854 
L 89.677086 428.056112 
L 89.763168 428.663016 
L 89.93533 427.615695 
L 90.021411 428.882463 
L 90.107492 427.608014 
L 90.193574 428.402809 
L 90.279655 427.906651 
L 90.365736 428.444496 
L 90.537898 427.374108 
L 90.62398 428.445709 
L 90.710061 427.099228 
L 90.796142 427.745846 
L 90.882223 427.135327 
L 90.968304 427.522023 
L 91.140467 426.454228 
L 91.226548 427.263933 
L 91.312629 425.927012 
L 91.39871 426.361793 
L 91.484791 425.73672 
L 91.570873 426.045439 
L 91.743035 425.491637 
L 91.829116 424.961211 
L 91.915197 425.658315 
L 92.001279 424.554016 
L 92.08736 424.908942 
L 92.173441 424.440084 
L 92.259522 424.70431 
L 92.431684 424.002164 
L 92.517766 424.484648 
L 92.603847 423.755821 
L 92.689928 424.137975 
L 92.776009 423.819363 
L 92.86209 424.172433 
L 93.034253 423.774774 
L 93.206415 424.395186 
L 93.292496 423.253456 
L 93.378578 425.360939 
L 93.464659 424.471807 
L 93.55074 424.701194 
L 93.722902 425.424124 
L 93.808984 425.308004 
L 94.153308 426.133975 
L 94.239389 426.194829 
L 94.841958 427.700021 
L 94.928039 427.68932 
L 95.444526 428.88974 
L 95.530607 428.820681 
L 95.961013 430.031945 
L 96.047094 429.860725 
L 96.133176 429.39912 
L 96.305338 429.782415 
L 96.391419 429.360263 
L 96.563582 429.90196 
L 96.735744 427.504806 
L 96.821825 429.10581 
L 96.993987 427.257536 
L 97.16615 426.630466 
L 97.338312 421.585938 
L 97.424393 423.886424 
L 97.510475 419.566039 
L 97.596556 420.860297 
L 97.682637 416.87051 
L 97.768718 418.719664 
L 98.026962 414.598513 
L 98.113043 414.148132 
L 98.371287 409.214517 
L 98.715611 401.882179 
L 98.801692 403.281238 
L 98.887774 400.157587 
L 98.973855 401.657928 
L 99.059936 399.74 
L 99.146017 400.12194 
L 99.31818 401.13875 
L 99.662504 405.388911 
L 101.384128 431.454928 
L 102.503184 440.56546 
L 103.622239 447.524181 
L 103.794401 448.320902 
L 104.310889 450.994696 
L 104.483051 451.800168 
L 106.118594 459.90257 
L 106.721162 462.507305 
L 107.668055 466.669596 
L 110.508734 476.474652 
L 112.144277 480.849411 
L 113.263332 482.883496 
L 113.435495 482.994491 
L 113.521576 482.796185 
L 113.607657 483.055845 
L 113.693738 482.750443 
L 113.779819 482.969498 
L 113.8659 482.746852 
L 114.640631 483.573739 
L 114.898875 483.566759 
L 115.2432 483.534655 
L 115.759687 483.425574 
L 116.620499 483.483967 
L 118.944691 484.409484 
L 119.289015 484.503203 
L 119.891584 484.644911 
L 120.235908 484.743767 
L 120.580233 484.831399 
L 121.09672 484.944701 
L 121.441045 485.08037 
L 121.699289 485.124685 
L 122.043613 485.275109 
L 122.301857 485.325631 
L 122.732263 485.530774 
L 123.162669 485.67907 
L 127.638891 487.537819 
L 127.724972 487.4914 
L 127.897134 487.563134 
L 128.241459 487.736007 
L 128.32754 487.681407 
L 128.413621 487.817634 
L 128.499703 487.741797 
L 128.671865 487.82176 
L 129.01619 487.920045 
L 129.102271 488.021469 
L 129.188352 487.947155 
L 129.360514 488.024786 
L 131.254301 488.434086 
L 131.684707 488.666291 
L 132.545518 489.267298 
L 133.320249 490.178035 
L 134.525386 492.152929 
L 135.55836 493.957317 
L 135.816604 493.903787 
L 135.988766 494.439599 
L 136.24701 495.208663 
L 137.538227 497.739012 
L 139.17377 500.335578 
L 140.034582 501.3802 
L 140.120663 501.402684 
L 140.378907 501.690322 
L 141.067556 502.391065 
L 141.670124 502.981858 
L 142.272693 503.565826 
L 144.338641 505.36258 
L 146.060265 507.373632 
L 146.748915 507.982047 
L 147.093239 508.378219 
L 147.437564 508.773631 
L 147.954051 509.351261 
L 148.642701 509.979556 
L 149.761756 511.003929 
L 149.933919 511.158752 
L 150.450406 511.903512 
L 150.880812 512.388565 
L 152.258111 513.731454 
L 152.774598 514.34736 
L 154.840546 517.179663 
L 157.595144 522.484921 
L 158.972443 525.64385 
L 159.575012 526.713465 
L 159.747174 526.883556 
L 160.263661 528.013395 
L 161.124473 529.38192 
L 161.210554 529.398555 
L 161.468798 529.847687 
L 161.64096 529.960977 
L 162.760016 531.805732 
L 163.362584 532.559672 
L 163.448665 532.481921 
L 163.620828 531.731371 
L 163.79299 533.006925 
L 163.965152 533.696634 
L 164.051234 533.767797 
L 164.395558 534.414772 
L 165.084208 535.669257 
L 166.117182 537.466451 
L 166.375426 537.715766 
L 168.699618 540.3571 
L 169.818673 541.073359 
L 169.990836 541.083133 
L 170.679485 541.632595 
L 171.195972 541.983192 
L 172.48719 542.982274 
L 172.917596 543.476006 
L 173.17584 543.628119 
L 173.606245 543.892678 
L 173.95057 544.187783 
L 174.208814 544.307185 
L 174.553139 544.616499 
L 174.725301 544.782833 
L 174.897463 544.721598 
L 175.500032 545.211501 
L 175.672194 545.822496 
L 176.274762 548.527169 
L 176.619087 549.384197 
L 176.705168 549.337837 
L 177.824224 550.456392 
L 177.996386 550.453491 
L 178.512873 550.909745 
L 178.685036 550.788999 
L 179.71801 551.414655 
L 179.890172 551.368841 
L 180.320578 551.653531 
L 180.492741 551.411575 
L 181.525715 552.126848 
L 182.214364 552.547062 
L 182.386527 552.541819 
L 184.108151 553.931544 
L 184.280313 554.030662 
L 185.141125 554.90115 
L 185.915855 555.783528 
L 186.088018 555.628277 
L 186.518424 556.081915 
L 186.690586 555.804051 
L 187.120992 556.220271 
L 187.465317 556.501179 
L 188.41221 557.285165 
L 188.670454 557.393129 
L 189.617347 558.109115 
L 189.789509 557.795152 
L 190.219915 558.145749 
L 190.392077 558.075394 
L 191.166808 558.753652 
L 192.458026 560.148894 
L 194.007487 562.295485 
L 195.987355 565.653755 
L 196.762085 567.18847 
L 197.192491 567.79503 
L 198.655871 570.631625 
L 199.344521 572.380467 
L 199.947089 574.675401 
L 200.549658 578.086571 
L 200.807901 579.618058 
L 201.324388 572.230299 
L 201.410469 571.421283 
L 201.582632 565.503973 
L 201.668713 565.536445 
L 202.013038 566.461415 
L 202.1852 562.491805 
L 202.271281 562.742381 
L 202.443444 562.013899 
L 202.529525 562.138723 
L 202.615606 562.017549 
L 202.87385 558.34805 
L 203.132093 556.890443 
L 203.304256 556.386342 
L 203.562499 552.579998 
L 204.509392 542.026853 
L 204.853717 536.313271 
L 205.542367 527.409749 
L 205.886691 524.590133 
L 206.231016 522.24111 
L 206.403178 521.802026 
L 206.661422 520.132355 
L 206.919666 519.303578 
L 207.005747 519.126377 
L 207.177909 518.429642 
L 207.436153 518.22193 
L 207.608315 518.336921 
L 207.694396 518.023184 
L 207.780477 518.084062 
L 208.038721 518.288456 
L 208.210883 518.56248 
L 208.296965 518.376028 
L 208.813452 519.11325 
L 208.899533 518.884291 
L 208.985614 518.917762 
L 209.243858 519.206256 
L 209.502101 519.753519 
L 209.674264 519.630965 
L 209.932507 519.741724 
L 210.10467 519.822887 
L 210.276832 519.649419 
L 211.223725 519.519018 
L 211.309806 519.431351 
L 211.481969 518.727517 
L 211.740212 518.481293 
L 211.826293 518.44938 
L 211.912374 518.278587 
L 212.084537 517.149473 
L 212.34278 516.777355 
L 212.601024 516.41658 
L 212.773186 514.434325 
L 213.203592 512.975529 
L 213.375755 509.108319 
L 213.720079 506.724232 
L 213.806161 504.598379 
L 213.892242 498.704837 
L 213.978323 510.478069 
L 214.236567 492.050149 
L 214.408729 492.540469 
L 214.49481 492.126402 
L 215.527784 470.126984 
L 215.872109 463.172733 
L 215.95819 463.828102 
L 216.130353 462.895594 
L 216.216434 463.108002 
L 216.474677 464.71526 
L 217.077246 470.517033 
L 218.540626 485.093782 
L 218.971032 487.611979 
L 219.487519 489.203423 
L 220.004006 490.259733 
L 221.209143 492.527343 
L 221.811711 494.257701 
L 222.844685 498.051334 
L 224.308066 504.214429 
L 227.234826 520.176171 
L 227.320907 520.324312 
L 227.406988 520.096292 
L 227.49307 518.697185 
L 227.837394 523.284222 
L 228.2678 524.843408 
L 229.989424 531.049688 
L 230.936317 533.669524 
L 231.711048 535.386066 
L 232.055373 535.847813 
L 233.34659 537.702699 
L 233.604834 537.981324 
L 233.690915 537.8582 
L 233.863078 537.901255 
L 234.207402 538.12553 
L 234.293484 538.184387 
L 234.465646 538.094187 
L 234.72389 537.961087 
L 234.896052 538.053938 
L 235.068214 537.919435 
L 235.326458 537.779593 
L 235.49862 537.827321 
L 235.670783 537.731271 
L 235.929026 537.596887 
L 236.359432 537.573558 
L 237.306325 537.579563 
L 237.65065 537.575794 
L 238.511462 537.856619 
L 238.597543 537.912693 
L 238.683624 537.806501 
L 238.855787 537.860495 
L 239.11403 538.12031 
L 239.716598 538.73851 
L 240.491329 539.823154 
L 240.57741 539.769362 
L 240.749573 539.936813 
L 240.921735 540.070651 
L 241.093897 540.335174 
L 241.179979 540.365066 
L 242.299034 542.247537 
L 242.385115 542.150441 
L 242.815521 542.742019 
L 242.987684 542.857069 
L 243.245927 543.161294 
L 244.19282 545.095095 
L 244.278901 545.066678 
L 244.795389 545.777788 
L 244.88147 545.646674 
L 245.397957 546.389473 
L 246.603094 548.502092 
L 247.377824 549.709504 
L 247.549987 549.94398 
L 248.669042 552.024805 
L 249.185529 552.803536 
L 249.357692 553.02793 
L 249.788098 553.806874 
L 249.874179 553.745758 
L 250.046341 553.937299 
L 251.079315 555.276598 
L 251.42364 555.728536 
L 251.854046 556.140915 
L 252.88702 557.320099 
L 253.059183 557.124349 
L 253.489589 557.610293 
L 253.661751 557.458086 
L 254.092157 557.907705 
L 254.264319 557.875078 
L 254.694725 558.286554 
L 254.866888 558.194666 
L 255.297294 558.590172 
L 255.469456 558.583086 
L 256.588511 559.518162 
L 256.760674 559.299476 
L 257.104999 559.636566 
L 258.65446 560.915937 
L 259.084866 561.372596 
L 259.257028 561.092972 
L 259.601353 561.481927 
L 259.773515 561.479858 
L 259.859597 561.447172 
L 260.290003 561.836591 
L 260.548246 561.919026 
L 260.892571 562.174715 
L 261.064733 561.865436 
L 261.322977 562.085276 
L 261.58122 562.209827 
L 261.839464 562.336649 
L 262.183789 562.547951 
L 262.355951 562.356898 
L 262.700276 562.577296 
L 262.786357 562.601802 
L 262.958519 562.359585 
L 263.302844 562.574954 
L 263.388925 562.581803 
L 263.561088 562.101376 
L 263.73325 562.189459 
L 263.991494 562.286733 
L 264.163656 561.776937 
L 264.335818 561.832108 
L 264.594062 561.920762 
L 265.110549 562.005659 
L 266.918254 562.568153 
L 267.090416 562.668221 
L 267.262579 562.449809 
L 267.606904 562.73885 
L 267.779066 562.730574 
L 267.865147 562.691372 
L 268.381634 563.090125 
L 268.553797 562.734688 
L 268.81204 562.970247 
L 268.984203 563.081766 
L 269.156365 562.642788 
L 269.328527 562.779348 
L 269.586771 562.951662 
L 269.758933 562.703845 
L 270.103258 562.903816 
L 271.566638 563.223546 
L 271.652719 563.109874 
L 271.997044 563.287313 
L 272.685694 563.586414 
L 272.857856 563.176329 
L 273.1161 563.338763 
L 273.288262 563.43033 
L 273.460424 562.997737 
L 273.718668 563.173012 
L 274.062993 563.297741 
L 274.57948 563.565487 
L 274.751642 563.395099 
L 275.182048 563.628315 
L 275.354211 563.232309 
L 275.612454 563.386573 
L 275.784617 563.473206 
L 276.04286 563.449854 
L 276.387185 563.568138 
L 276.559347 563.071267 
L 276.73151 563.147911 
L 276.989753 563.248491 
L 277.247997 563.155509 
L 277.764484 563.325766 
L 278.625296 563.734376 
L 279.572189 564.448376 
L 280.433001 565.333335 
L 280.949488 566.09121 
L 281.552056 567.049877 
L 282.068543 567.659825 
L 283.27368 569.69756 
L 284.048411 571.337588 
L 284.650979 573.222157 
L 285.167466 575.582368 
L 286.028278 580.861705 
L 286.716928 585.97317 
L 286.975171 590.082478 
L 287.577739 594.272486 
L 288.094227 602.042548 
L 288.438551 605.613762 
L 288.782876 606.95139 
L 289.901932 608.809254 
L 290.074094 608.765931 
L 290.418419 609.535376 
L 291.020987 610.738454 
L 292.226124 612.530416 
L 293.517341 614.160218 
L 295.497209 616.748253 
L 296.530183 617.807648 
L 297.218833 618.287772 
L 297.73532 618.465473 
L 298.251807 618.488694 
L 299.026538 618.195985 
L 299.973431 617.678734 
L 301.781136 614.594511 
L 302.383704 613.020278 
L 302.469785 612.941421 
L 303.330597 606.751009 
L 304.105328 599.555182 
L 304.363571 594.690151 
L 304.707896 587.132449 
L 304.880058 583.460269 
L 305.224383 572.788905 
L 305.74087 567.721845 
L 305.826951 567.768657 
L 305.913033 567.652584 
L 306.687763 563.235852 
L 306.773845 563.001399 
L 307.032088 560.988111 
L 307.376413 559.917807 
L 307.634656 557.893033 
L 309.098037 550.888283 
L 309.270199 550.415311 
L 309.528443 548.749374 
L 309.872767 547.669165 
L 310.131011 546.149455 
L 310.475336 544.768172 
L 310.733579 543.585599 
L 310.991823 542.824692 
L 311.077904 542.270557 
L 311.250066 538.638952 
L 311.50831 535.718019 
L 311.594391 535.713429 
L 311.680472 535.835079 
L 311.852635 536.268468 
L 311.938716 536.235425 
L 312.196959 535.512567 
L 312.97169 533.116827 
L 313.746421 530.810848 
L 314.004664 530.452415 
L 314.262908 530.39766 
L 314.521151 530.583886 
L 314.865476 531.193168 
L 315.468045 532.795599 
L 317.620074 538.657287 
L 318.394805 540.064087 
L 320.116429 542.468019 
L 320.632916 543.081986 
L 320.977241 543.603767 
L 321.321565 544.136928 
L 321.924134 545.048688 
L 322.698864 546.475713 
L 322.871027 546.742912 
L 323.559676 548.223978 
L 324.936975 551.362706 
L 328.035898 559.172547 
L 333.114688 572.764988 
L 333.631175 575.539379 
L 334.405906 581.74085 
L 334.750231 585.432328 
L 335.094556 592.005876 
L 335.524962 598.267303 
L 336.041449 607.045692 
L 336.385773 609.123455 
L 336.644017 609.716548 
L 337.160504 611.524907 
L 337.935235 613.210796 
L 339.398615 615.854412 
L 341.292401 618.78066 
L 343.100106 621.22584 
L 345.079974 623.533148 
L 346.97376 625.383782 
L 349.642277 627.511155 
L 351.966469 629.061655 
L 356.098366 631.393561 
L 359.025126 632.817108 
L 362.554455 634.301992 
L 367.030677 635.877883 
L 370.473924 636.856059 
L 374.950146 637.979915 
L 380.545423 639.138921 
L 381.147992 639.258409 
L 382.955697 639.584168 
L 391.219491 640.906014 
L 400.344097 642.184203 
L 412.739788 643.659824 
L 420.745338 644.430098 
L 429.869944 645.141446 
L 442.007392 645.898171 
L 466.970937 647.261387 
L 493.828268 648.575094 
L 508.806395 649.386662 
L 529.46588 650.491364 
L 545.993468 651.206198 
L 564.759167 651.800973 
L 589.636631 652.266231 
L 620.970183 652.610511 
L 663.236047 652.875232 
L 671.155517 652.911597 
L 671.155517 652.911597 
" clip-path="url(#p08c1ab9275)" style="fill: none; stroke: #1f77b4; stroke-width: 1.5; stroke-linecap: square"/>
   </g>
   <g id="line2d_30">
    <path d="M 51.54312 671.338758 
L 52.490013 671.231078 
L 53.178662 670.955877 
L 53.69515 670.655074 
L 54.642043 670.014552 
L 55.761098 669.132938 
L 58.08529 667.401196 
L 59.892995 666.381539 
L 60.667726 666.337848 
L 61.614619 666.528833 
L 64.110973 667.209639 
L 64.713542 667.104258 
L 65.31611 666.777543 
L 66.00476 666.089783 
L 66.521247 665.343878 
L 67.640302 663.240799 
L 68.673276 660.436888 
L 68.93152 659.639866 
L 71.427874 650.577592 
L 72.54693 644.889561 
L 73.063417 641.47822 
L 73.321661 639.783818 
L 75.47369 624.563438 
L 75.731934 622.793857 
L 76.248421 619.750657 
L 78.658694 606.021776 
L 79.605587 601.4516 
L 80.294237 599.096769 
L 80.638562 597.962816 
L 81.068968 593.336386 
L 81.671536 589.164812 
L 82.188023 587.240835 
L 82.532348 586.636515 
L 82.876673 586.453133 
L 83.134916 586.548299 
L 83.479241 586.982217 
L 83.823566 587.807951 
L 84.253972 589.509751 
L 84.340053 589.019058 
L 84.770459 583.408665 
L 84.942621 581.054242 
L 85.459108 569.102237 
L 85.631271 565.302223 
L 87.352894 510.350872 
L 88.213706 486.118863 
L 88.644112 478.757834 
L 89.246681 471.113127 
L 89.849249 465.991374 
L 90.710061 460.601755 
L 91.054385 459.388902 
L 91.743035 456.834044 
L 93.292496 452.254114 
L 94.067227 451.023832 
L 94.153308 451.048702 
L 94.755877 450.381458 
L 94.841958 450.481269 
L 94.928039 450.355077 
L 95.272364 449.430836 
L 95.530607 449.004863 
L 95.874932 447.2967 
L 96.133176 446.289629 
L 96.563582 442.794054 
L 96.649663 442.381796 
L 97.080069 436.40822 
L 97.338312 432.898711 
L 97.854799 420.845445 
L 98.457368 411.557713 
L 99.059936 406.193638 
L 99.490342 404.450668 
L 99.662504 404.282239 
L 99.920748 404.47565 
L 100.178991 405.257872 
L 100.609397 407.887493 
L 101.125885 412.817192 
L 102.675346 427.512474 
L 103.450077 432.111507 
L 104.827376 438.609022 
L 106.721162 446.359217 
L 110.680897 460.55733 
L 112.919007 467.935793 
L 113.521576 469.694106 
L 113.779819 469.477858 
L 114.210225 469.480961 
L 114.55455 469.673467 
L 115.501443 470.822105 
L 116.190093 472.088302 
L 116.878742 473.854748 
L 117.825635 477.14169 
L 119.375097 481.926659 
L 120.408071 484.371983 
L 123.506994 490.254591 
L 126.519835 494.417235 
L 126.778079 494.5981 
L 127.724972 495.518284 
L 127.983215 495.611822 
L 128.585784 495.980713 
L 129.704839 496.620603 
L 129.963083 496.669632 
L 130.307408 496.75923 
L 130.565651 496.758549 
L 131.168219 497.113881 
L 131.684707 497.832446 
L 132.287275 499.186108 
L 132.975924 501.286917 
L 134.008899 505.286849 
L 135.902685 512.763769 
L 137.452146 517.737683 
L 139.604176 523.90155 
L 140.206744 524.8617 
L 141.584043 525.559266 
L 142.014449 525.821382 
L 142.530936 526.418203 
L 143.477829 527.742738 
L 144.855128 530.336668 
L 146.146346 532.734041 
L 146.40459 532.985743 
L 147.351483 533.609214 
L 149.159188 535.478537 
L 149.589594 535.966977 
L 150.02 536.467876 
L 150.536487 537.399718 
L 151.052974 538.29527 
L 151.397299 538.721743 
L 151.827705 538.998861 
L 153.979734 540.444983 
L 154.582303 541.320321 
L 155.270952 542.712726 
L 155.787439 543.70514 
L 156.734332 545.186909 
L 156.992576 545.456082 
L 157.509063 545.78867 
L 158.02555 546.23211 
L 158.886362 547.289039 
L 159.402849 547.863772 
L 159.747174 547.994426 
L 160.521905 548.476169 
L 161.124473 548.596281 
L 161.382717 548.435041 
L 161.727041 548.329298 
L 162.157447 548.442812 
L 163.10434 549.117852 
L 163.534746 549.807551 
L 163.879071 550.317895 
L 165.686776 553.032318 
L 166.547588 554.356883 
L 167.322319 555.242715 
L 167.666643 555.325864 
L 168.097049 555.631567 
L 168.87178 556.281353 
L 169.388267 556.458615 
L 169.732592 556.411937 
L 169.904754 556.419413 
L 170.249079 556.3001 
L 170.679485 556.451686 
L 171.454216 557.123954 
L 172.228946 558.141618 
L 173.348002 560.296404 
L 173.778408 560.909511 
L 174.467057 561.43834 
L 174.897463 561.551115 
L 175.327869 561.476808 
L 176.188681 561.558351 
L 176.533006 561.580331 
L 176.705168 561.604107 
L 177.049493 561.416342 
L 177.393818 561.290609 
L 177.738143 561.124809 
L 177.996386 561.069221 
L 178.340711 561.08125 
L 178.685036 561.133902 
L 179.02936 561.116853 
L 180.492741 561.548936 
L 180.837065 561.53574 
L 181.353552 561.867677 
L 182.816933 563.330486 
L 183.677745 564.20318 
L 184.452475 565.179345 
L 185.313287 566.302339 
L 186.174099 567.435002 
L 186.690586 567.528653 
L 187.120992 567.335729 
L 187.551398 567.369774 
L 189.445184 568.285131 
L 189.703428 568.468117 
L 189.961671 568.353 
L 190.650321 568.454523 
L 191.080727 568.758358 
L 191.769376 569.589209 
L 192.544107 570.888223 
L 193.404919 572.831005 
L 195.64303 578.343758 
L 197.192491 581.139147 
L 200.807901 587.291339 
L 200.893982 586.991174 
L 202.013038 576.092957 
L 202.87385 562.483333 
L 203.906824 546.828251 
L 204.767636 535.801374 
L 205.284123 531.705864 
L 205.628448 529.787442 
L 205.80061 529.178655 
L 206.144935 527.721197 
L 206.919666 526.223094 
L 207.005747 526.203344 
L 208.038721 524.53183 
L 208.296965 524.407325 
L 208.555208 523.998654 
L 209.41602 523.567391 
L 209.588182 523.61535 
L 209.846426 523.433416 
L 211.223725 523.540655 
L 211.309806 523.645079 
L 211.395887 523.559567 
L 211.740212 522.801839 
L 211.998456 522.340367 
L 212.428862 520.170076 
L 212.687105 519.014618 
L 213.633998 506.778016 
L 213.892242 502.148892 
L 214.408729 486.48693 
L 215.011297 474.185738 
L 215.527784 467.675983 
L 215.95819 464.778415 
L 216.216434 464.053885 
L 216.388596 464.000605 
L 216.560759 464.216992 
L 216.819002 465.241422 
L 217.249408 468.498442 
L 217.938058 476.486594 
L 218.884951 486.987676 
L 219.487519 491.207439 
L 220.176169 494.345172 
L 221.467386 498.838971 
L 223.87766 506.50047 
L 227.234826 516.484387 
L 227.923476 517.995653 
L 228.439963 518.848508 
L 230.505911 522.073999 
L 232.055373 524.341066 
L 232.916185 525.255536 
L 233.260509 525.566987 
L 233.776996 525.918553 
L 234.121321 525.96439 
L 234.379565 526.075278 
L 234.637808 525.93162 
L 235.154295 525.805611 
L 235.412539 525.761538 
L 235.584701 525.780194 
L 235.842945 525.703865 
L 236.273351 525.864756 
L 236.617676 526.139222 
L 237.306325 527.113222 
L 238.167137 528.660669 
L 239.286193 530.074621 
L 239.630517 530.338956 
L 240.233086 531.119722 
L 240.663492 531.659315 
L 241.438222 532.17411 
L 241.868628 532.648654 
L 242.72944 533.713265 
L 243.073765 533.928736 
L 243.41809 534.011861 
L 243.934577 534.440874 
L 244.364983 534.84652 
L 244.709307 535.024574 
L 244.88147 535.114065 
L 245.225795 534.9435 
L 245.6562 535.048313 
L 246.000525 535.356396 
L 246.517012 536.133932 
L 249.702016 542.154588 
L 249.874179 542.343357 
L 250.218503 542.370504 
L 252.11229 543.188154 
L 252.973102 543.884455 
L 253.231345 543.879679 
L 255.899862 545.129384 
L 257.793648 547.357597 
L 258.998785 549.464997 
L 259.170947 549.745629 
L 259.515272 549.876276 
L 260.031759 550.110493 
L 260.80649 550.634607 
L 260.978652 550.75647 
L 261.322977 550.674033 
L 261.925545 550.840613 
L 262.528113 551.103144 
L 263.475007 551.45064 
L 263.819331 551.257218 
L 264.077575 551.219677 
L 264.4219 550.845667 
L 264.852306 550.751612 
L 265.19663 550.9033 
L 266.057442 551.710592 
L 266.746092 552.895825 
L 267.779066 554.674339 
L 268.295553 555.391096 
L 268.467716 555.608174 
L 268.81204 555.630841 
L 269.070284 555.661127 
L 269.50069 555.225768 
L 269.672852 555.097768 
L 270.103258 554.634962 
L 270.533664 554.542852 
L 271.050151 554.796814 
L 271.480557 555.276405 
L 272.255288 556.022944 
L 273.030019 557.134423 
L 273.460424 557.405892 
L 273.89083 557.430348 
L 274.407318 557.664523 
L 274.751642 557.820081 
L 275.440292 557.779788 
L 275.784617 557.684424 
L 276.215022 557.695767 
L 276.473266 557.80078 
L 276.73151 557.623884 
L 277.247997 557.61735 
L 277.592322 557.761366 
L 278.022727 558.189562 
L 278.625296 559.14638 
L 279.400026 560.891124 
L 280.519082 564.100398 
L 281.896381 567.913804 
L 283.101518 570.468813 
L 286.286522 576.473757 
L 286.458684 576.522017 
L 286.975171 576.619525 
L 287.577739 577.001956 
L 288.35247 577.790596 
L 289.299363 579.093958 
L 290.074094 580.544618 
L 292.140042 584.71402 
L 293.259098 585.885156 
L 294.550316 587.574396 
L 296.185858 590.121352 
L 296.788427 590.91056 
L 297.132751 591.214352 
L 297.73532 591.513123 
L 298.337888 591.481372 
L 298.940456 591.14287 
L 300.059512 590.076367 
L 300.489918 589.364957 
L 300.66208 589.132278 
L 301.092486 588.264383 
L 301.264648 587.9809 
L 301.695054 586.964429 
L 301.867217 586.631073 
L 302.297623 585.466934 
L 302.555866 584.902133 
L 302.986272 583.069578 
L 303.158435 582.413004 
L 303.588841 580.06987 
L 303.761003 579.253017 
L 304.27749 576.22441 
L 306.687763 561.790875 
L 306.859926 561.036313 
L 307.290332 558.763929 
L 307.462494 558.078312 
L 307.8929 555.936523 
L 308.065062 555.284347 
L 308.495468 553.18645 
L 308.839793 551.830165 
L 309.528443 548.938302 
L 310.217092 546.542434 
L 310.905742 544.99611 
L 311.077904 544.885764 
L 311.250066 543.301336 
L 311.766553 538.975846 
L 312.283041 536.274011 
L 312.713447 535.138382 
L 313.057771 534.835312 
L 313.316015 534.907776 
L 313.66034 535.332977 
L 314.004664 536.069296 
L 314.521151 537.859278 
L 315.209801 541.41757 
L 316.242775 546.697848 
L 316.845344 548.630882 
L 317.533993 549.999822 
L 318.997373 552.085027 
L 322.268458 557.031058 
L 323.559676 559.863062 
L 326.572518 566.711186 
L 333.459013 579.866953 
L 337.160504 586.299746 
L 340.861995 592.2853 
L 344.563486 597.850221 
L 348.351059 603.139359 
L 352.138631 608.047835 
L 356.012284 612.702662 
L 359.885938 617.015143 
L 363.845673 621.09582 
L 367.891489 624.948783 
L 372.023386 628.578925 
L 376.241364 631.991851 
L 380.631504 635.255088 
L 385.107726 638.303816 
L 389.75611 641.197464 
L 394.490576 643.884294 
L 399.397204 646.416376 
L 404.562075 648.829853 
L 409.899109 651.078513 
L 415.494386 653.195167 
L 421.433988 655.200643 
L 427.631834 657.057365 
L 434.260085 658.807286 
L 441.232661 660.4172 
L 448.721725 661.916747 
L 456.813357 663.306423 
L 465.507557 664.572021 
L 475.062569 665.734164 
L 485.564474 666.782594 
L 497.185434 667.715743 
L 510.269775 668.539727 
L 525.247902 669.255583 
L 542.808464 669.86534 
L 563.898355 670.366685 
L 590.239199 670.76053 
L 625.274243 671.048999 
L 671.155517 671.221517 
L 671.155517 671.221517 
" clip-path="url(#p08c1ab9275)" style="fill: none; stroke: #ff7f0e; stroke-width: 1.5; stroke-linecap: square"/>
   </g>
   <g id="patch_9">
    <path d="M 20.5625 684.92 
L 20.5625 386.16 
" style="fill: none; stroke: #000000; stroke-width: 0.8; stroke-linejoin: miter; stroke-linecap: square"/>
   </g>
   <g id="patch_10">
    <path d="M 702.136136 684.92 
L 702.136136 386.16 
" style="fill: none; stroke: #000000; stroke-width: 0.8; stroke-linejoin: miter; stroke-linecap: square"/>
   </g>
   <g id="patch_11">
    <path d="M 20.5625 684.92 
L 702.136136 684.92 
" style="fill: none; stroke: #000000; stroke-width: 0.8; stroke-linejoin: miter; stroke-linecap: square"/>
   </g>
   <g id="patch_12">
    <path d="M 20.5625 386.16 
L 702.136136 386.16 
" style="fill: none; stroke: #000000; stroke-width: 0.8; stroke-linejoin: miter; stroke-linecap: square"/>
   </g>
   <g id="text_28">
    <!-- 2 transformation(s) -->
    <g transform="translate(303.234631 380.16) scale(0.12 -0.12)">
     <use xlink:href="#DejaVuSans-32"/>
     <use xlink:href="#DejaVuSans-20" x="63.623047"/>
     <use xlink:href="#DejaVuSans-74" x="95.410156"/>
     <use xlink:href="#DejaVuSans-72" x="134.619141"/>
     <use xlink:href="#DejaVuSans-61" x="175.732422"/>
     <use xlink:href="#DejaVuSans-6e" x="237.011719"/>
     <use xlink:href="#DejaVuSans-73" x="300.390625"/>
     <use xlink:href="#DejaVuSans-66" x="352.490234"/>
     <use xlink:href="#DejaVuSans-6f" x="387.695312"/>
     <use xlink:href="#DejaVuSans-72" x="448.876953"/>
     <use xlink:href="#DejaVuSans-6d" x="488.240234"/>
     <use xlink:href="#DejaVuSans-61" x="585.652344"/>
     <use xlink:href="#DejaVuSans-74" x="646.931641"/>
     <use xlink:href="#DejaVuSans-69" x="686.140625"/>
     <use xlink:href="#DejaVuSans-6f" x="713.923828"/>
     <use xlink:href="#DejaVuSans-6e" x="775.105469"/>
     <use xlink:href="#DejaVuSans-28" x="838.484375"/>
     <use xlink:href="#DejaVuSans-73" x="877.498047"/>
     <use xlink:href="#DejaVuSans-29" x="929.597656"/>
    </g>
   </g>
  </g>
  <g id="text_29">
   <!-- training -->
   <g transform="translate(333.129063 16.318125) scale(0.12 -0.12)">
    <defs>
     <path id="DejaVuSans-67" d="M 2906 1791 
Q 2906 2416 2648 2759 
Q 2391 3103 1925 3103 
Q 1463 3103 1205 2759 
Q 947 2416 947 1791 
Q 947 1169 1205 825 
Q 1463 481 1925 481 
Q 2391 481 2648 825 
Q 2906 1169 2906 1791 
z
M 3481 434 
Q 3481 -459 3084 -895 
Q 2688 -1331 1869 -1331 
Q 1566 -1331 1297 -1286 
Q 1028 -1241 775 -1147 
L 775 -588 
Q 1028 -725 1275 -790 
Q 1522 -856 1778 -856 
Q 2344 -856 2625 -561 
Q 2906 -266 2906 331 
L 2906 616 
Q 2728 306 2450 153 
Q 2172 0 1784 0 
Q 1141 0 747 490 
Q 353 981 353 1791 
Q 353 2603 747 3093 
Q 1141 3584 1784 3584 
Q 2172 3584 2450 3431 
Q 2728 3278 2906 2969 
L 2906 3500 
L 3481 3500 
L 3481 434 
z
" transform="scale(0.015625)"/>
    </defs>
    <use xlink:href="#DejaVuSans-74"/>
    <use xlink:href="#DejaVuSans-72" x="39.208984"/>
    <use xlink:href="#DejaVuSans-61" x="80.322266"/>
    <use xlink:href="#DejaVuSans-69" x="141.601562"/>
    <use xlink:href="#DejaVuSans-6e" x="169.384766"/>
    <use xlink:href="#DejaVuSans-69" x="232.763672"/>
    <use xlink:href="#DejaVuSans-6e" x="260.546875"/>
    <use xlink:href="#DejaVuSans-67" x="323.925781"/>
   </g>
  </g>
 </g>
 <defs>
  <clipPath id="p40e37fdeb7">
   <rect x="20.5625" y="43.44" width="681.573636" height="298.76"/>
  </clipPath>
  <clipPath id="p08c1ab9275">
   <rect x="20.5625" y="386.16" width="681.573636" height="298.76"/>
  </clipPath>
 </defs>
</svg>
