<?xml version="1.0" encoding="utf-8" standalone="no"?>
<!DOCTYPE svg PUBLIC "-//W3C//DTD SVG 1.1//EN"
  "http://www.w3.org/Graphics/SVG/1.1/DTD/svg11.dtd">
<svg xmlns:xlink="http://www.w3.org/1999/xlink" width="709.426761pt" height="708.798125pt" viewBox="0 0 709.426761 708.798125" xmlns="http://www.w3.org/2000/svg" version="1.1">
 <metadata>
  <rdf:RDF xmlns:dc="http://purl.org/dc/elements/1.1/" xmlns:cc="http://creativecommons.org/ns#" xmlns:rdf="http://www.w3.org/1999/02/22-rdf-syntax-ns#">
   <cc:Work>
    <dc:type rdf:resource="http://purl.org/dc/dcmitype/StillImage"/>
    <dc:date>2023-06-16T17:57:50.860636</dc:date>
    <dc:format>image/svg+xml</dc:format>
    <dc:creator>
     <cc:Agent>
      <dc:title>Matplotlib v3.7.1, https://matplotlib.org/</dc:title>
     </cc:Agent>
    </dc:creator>
   </cc:Work>
  </rdf:RDF>
 </metadata>
 <defs>
  <style type="text/css">*{stroke-linejoin: round; stroke-linecap: butt}</style>
 </defs>
 <g id="figure_1">
  <g id="patch_1">
   <path d="M 0 708.798125 
L 709.426761 708.798125 
L 709.426761 0 
L 0 0 
z
" style="fill: #ffffff"/>
  </g>
  <g id="axes_1">
   <g id="patch_2">
    <path d="M 30.103125 342.2 
L 702.226761 342.2 
L 702.226761 43.44 
L 30.103125 43.44 
z
" style="fill: #ffffff"/>
   </g>
   <g id="matplotlib.axis_1">
    <g id="xtick_1">
     <g id="line2d_1">
      <defs>
       <path id="m33cae1b3e8" d="M 0 0 
L 0 3.5 
" style="stroke: #000000; stroke-width: 0.8"/>
      </defs>
      <g>
       <use xlink:href="#m33cae1b3e8" x="60.484424" y="342.2" style="stroke: #000000; stroke-width: 0.8"/>
      </g>
     </g>
     <g id="text_1">
      <!-- 2014-07-01 -->
      <g transform="translate(31.426612 356.798437) scale(0.1 -0.1)">
       <defs>
        <path id="DejaVuSans-32" d="M 1228 531 
L 3431 531 
L 3431 0 
L 469 0 
L 469 531 
Q 828 903 1448 1529 
Q 2069 2156 2228 2338 
Q 2531 2678 2651 2914 
Q 2772 3150 2772 3378 
Q 2772 3750 2511 3984 
Q 2250 4219 1831 4219 
Q 1534 4219 1204 4116 
Q 875 4013 500 3803 
L 500 4441 
Q 881 4594 1212 4672 
Q 1544 4750 1819 4750 
Q 2544 4750 2975 4387 
Q 3406 4025 3406 3419 
Q 3406 3131 3298 2873 
Q 3191 2616 2906 2266 
Q 2828 2175 2409 1742 
Q 1991 1309 1228 531 
z
" transform="scale(0.015625)"/>
        <path id="DejaVuSans-30" d="M 2034 4250 
Q 1547 4250 1301 3770 
Q 1056 3291 1056 2328 
Q 1056 1369 1301 889 
Q 1547 409 2034 409 
Q 2525 409 2770 889 
Q 3016 1369 3016 2328 
Q 3016 3291 2770 3770 
Q 2525 4250 2034 4250 
z
M 2034 4750 
Q 2819 4750 3233 4129 
Q 3647 3509 3647 2328 
Q 3647 1150 3233 529 
Q 2819 -91 2034 -91 
Q 1250 -91 836 529 
Q 422 1150 422 2328 
Q 422 3509 836 4129 
Q 1250 4750 2034 4750 
z
" transform="scale(0.015625)"/>
        <path id="DejaVuSans-31" d="M 794 531 
L 1825 531 
L 1825 4091 
L 703 3866 
L 703 4441 
L 1819 4666 
L 2450 4666 
L 2450 531 
L 3481 531 
L 3481 0 
L 794 0 
L 794 531 
z
" transform="scale(0.015625)"/>
        <path id="DejaVuSans-34" d="M 2419 4116 
L 825 1625 
L 2419 1625 
L 2419 4116 
z
M 2253 4666 
L 3047 4666 
L 3047 1625 
L 3713 1625 
L 3713 1100 
L 3047 1100 
L 3047 0 
L 2419 0 
L 2419 1100 
L 313 1100 
L 313 1709 
L 2253 4666 
z
" transform="scale(0.015625)"/>
        <path id="DejaVuSans-2d" d="M 313 2009 
L 1997 2009 
L 1997 1497 
L 313 1497 
L 313 2009 
z
" transform="scale(0.015625)"/>
        <path id="DejaVuSans-37" d="M 525 4666 
L 3525 4666 
L 3525 4397 
L 1831 0 
L 1172 0 
L 2766 4134 
L 525 4134 
L 525 4666 
z
" transform="scale(0.015625)"/>
       </defs>
       <use xlink:href="#DejaVuSans-32"/>
       <use xlink:href="#DejaVuSans-30" x="63.623047"/>
       <use xlink:href="#DejaVuSans-31" x="127.246094"/>
       <use xlink:href="#DejaVuSans-34" x="190.869141"/>
       <use xlink:href="#DejaVuSans-2d" x="254.492188"/>
       <use xlink:href="#DejaVuSans-30" x="290.576172"/>
       <use xlink:href="#DejaVuSans-37" x="354.199219"/>
       <use xlink:href="#DejaVuSans-2d" x="417.822266"/>
       <use xlink:href="#DejaVuSans-30" x="453.90625"/>
       <use xlink:href="#DejaVuSans-31" x="517.529297"/>
      </g>
     </g>
    </g>
    <g id="xtick_2">
     <g id="line2d_2">
      <g>
       <use xlink:href="#m33cae1b3e8" x="182.722677" y="342.2" style="stroke: #000000; stroke-width: 0.8"/>
      </g>
     </g>
     <g id="text_2">
      <!-- 2014-07-02 -->
      <g transform="translate(153.664864 356.798437) scale(0.1 -0.1)">
       <use xlink:href="#DejaVuSans-32"/>
       <use xlink:href="#DejaVuSans-30" x="63.623047"/>
       <use xlink:href="#DejaVuSans-31" x="127.246094"/>
       <use xlink:href="#DejaVuSans-34" x="190.869141"/>
       <use xlink:href="#DejaVuSans-2d" x="254.492188"/>
       <use xlink:href="#DejaVuSans-30" x="290.576172"/>
       <use xlink:href="#DejaVuSans-37" x="354.199219"/>
       <use xlink:href="#DejaVuSans-2d" x="417.822266"/>
       <use xlink:href="#DejaVuSans-30" x="453.90625"/>
       <use xlink:href="#DejaVuSans-32" x="517.529297"/>
      </g>
     </g>
    </g>
    <g id="xtick_3">
     <g id="line2d_3">
      <g>
       <use xlink:href="#m33cae1b3e8" x="304.960929" y="342.2" style="stroke: #000000; stroke-width: 0.8"/>
      </g>
     </g>
     <g id="text_3">
      <!-- 2014-07-03 -->
      <g transform="translate(275.903117 356.798437) scale(0.1 -0.1)">
       <defs>
        <path id="DejaVuSans-33" d="M 2597 2516 
Q 3050 2419 3304 2112 
Q 3559 1806 3559 1356 
Q 3559 666 3084 287 
Q 2609 -91 1734 -91 
Q 1441 -91 1130 -33 
Q 819 25 488 141 
L 488 750 
Q 750 597 1062 519 
Q 1375 441 1716 441 
Q 2309 441 2620 675 
Q 2931 909 2931 1356 
Q 2931 1769 2642 2001 
Q 2353 2234 1838 2234 
L 1294 2234 
L 1294 2753 
L 1863 2753 
Q 2328 2753 2575 2939 
Q 2822 3125 2822 3475 
Q 2822 3834 2567 4026 
Q 2313 4219 1838 4219 
Q 1578 4219 1281 4162 
Q 984 4106 628 3988 
L 628 4550 
Q 988 4650 1302 4700 
Q 1616 4750 1894 4750 
Q 2613 4750 3031 4423 
Q 3450 4097 3450 3541 
Q 3450 3153 3228 2886 
Q 3006 2619 2597 2516 
z
" transform="scale(0.015625)"/>
       </defs>
       <use xlink:href="#DejaVuSans-32"/>
       <use xlink:href="#DejaVuSans-30" x="63.623047"/>
       <use xlink:href="#DejaVuSans-31" x="127.246094"/>
       <use xlink:href="#DejaVuSans-34" x="190.869141"/>
       <use xlink:href="#DejaVuSans-2d" x="254.492188"/>
       <use xlink:href="#DejaVuSans-30" x="290.576172"/>
       <use xlink:href="#DejaVuSans-37" x="354.199219"/>
       <use xlink:href="#DejaVuSans-2d" x="417.822266"/>
       <use xlink:href="#DejaVuSans-30" x="453.90625"/>
       <use xlink:href="#DejaVuSans-33" x="517.529297"/>
      </g>
     </g>
    </g>
    <g id="xtick_4">
     <g id="line2d_4">
      <g>
       <use xlink:href="#m33cae1b3e8" x="427.199182" y="342.2" style="stroke: #000000; stroke-width: 0.8"/>
      </g>
     </g>
     <g id="text_4">
      <!-- 2014-07-04 -->
      <g transform="translate(398.141369 356.798437) scale(0.1 -0.1)">
       <use xlink:href="#DejaVuSans-32"/>
       <use xlink:href="#DejaVuSans-30" x="63.623047"/>
       <use xlink:href="#DejaVuSans-31" x="127.246094"/>
       <use xlink:href="#DejaVuSans-34" x="190.869141"/>
       <use xlink:href="#DejaVuSans-2d" x="254.492188"/>
       <use xlink:href="#DejaVuSans-30" x="290.576172"/>
       <use xlink:href="#DejaVuSans-37" x="354.199219"/>
       <use xlink:href="#DejaVuSans-2d" x="417.822266"/>
       <use xlink:href="#DejaVuSans-30" x="453.90625"/>
       <use xlink:href="#DejaVuSans-34" x="517.529297"/>
      </g>
     </g>
    </g>
    <g id="xtick_5">
     <g id="line2d_5">
      <g>
       <use xlink:href="#m33cae1b3e8" x="549.437434" y="342.2" style="stroke: #000000; stroke-width: 0.8"/>
      </g>
     </g>
     <g id="text_5">
      <!-- 2014-07-05 -->
      <g transform="translate(520.379622 356.798437) scale(0.1 -0.1)">
       <defs>
        <path id="DejaVuSans-35" d="M 691 4666 
L 3169 4666 
L 3169 4134 
L 1269 4134 
L 1269 2991 
Q 1406 3038 1543 3061 
Q 1681 3084 1819 3084 
Q 2600 3084 3056 2656 
Q 3513 2228 3513 1497 
Q 3513 744 3044 326 
Q 2575 -91 1722 -91 
Q 1428 -91 1123 -41 
Q 819 9 494 109 
L 494 744 
Q 775 591 1075 516 
Q 1375 441 1709 441 
Q 2250 441 2565 725 
Q 2881 1009 2881 1497 
Q 2881 1984 2565 2268 
Q 2250 2553 1709 2553 
Q 1456 2553 1204 2497 
Q 953 2441 691 2322 
L 691 4666 
z
" transform="scale(0.015625)"/>
       </defs>
       <use xlink:href="#DejaVuSans-32"/>
       <use xlink:href="#DejaVuSans-30" x="63.623047"/>
       <use xlink:href="#DejaVuSans-31" x="127.246094"/>
       <use xlink:href="#DejaVuSans-34" x="190.869141"/>
       <use xlink:href="#DejaVuSans-2d" x="254.492188"/>
       <use xlink:href="#DejaVuSans-30" x="290.576172"/>
       <use xlink:href="#DejaVuSans-37" x="354.199219"/>
       <use xlink:href="#DejaVuSans-2d" x="417.822266"/>
       <use xlink:href="#DejaVuSans-30" x="453.90625"/>
       <use xlink:href="#DejaVuSans-35" x="517.529297"/>
      </g>
     </g>
    </g>
    <g id="xtick_6">
     <g id="line2d_6">
      <g>
       <use xlink:href="#m33cae1b3e8" x="671.675687" y="342.2" style="stroke: #000000; stroke-width: 0.8"/>
      </g>
     </g>
     <g id="text_6">
      <!-- 2014-07-06 -->
      <g transform="translate(642.617874 356.798437) scale(0.1 -0.1)">
       <defs>
        <path id="DejaVuSans-36" d="M 2113 2584 
Q 1688 2584 1439 2293 
Q 1191 2003 1191 1497 
Q 1191 994 1439 701 
Q 1688 409 2113 409 
Q 2538 409 2786 701 
Q 3034 994 3034 1497 
Q 3034 2003 2786 2293 
Q 2538 2584 2113 2584 
z
M 3366 4563 
L 3366 3988 
Q 3128 4100 2886 4159 
Q 2644 4219 2406 4219 
Q 1781 4219 1451 3797 
Q 1122 3375 1075 2522 
Q 1259 2794 1537 2939 
Q 1816 3084 2150 3084 
Q 2853 3084 3261 2657 
Q 3669 2231 3669 1497 
Q 3669 778 3244 343 
Q 2819 -91 2113 -91 
Q 1303 -91 875 529 
Q 447 1150 447 2328 
Q 447 3434 972 4092 
Q 1497 4750 2381 4750 
Q 2619 4750 2861 4703 
Q 3103 4656 3366 4563 
z
" transform="scale(0.015625)"/>
       </defs>
       <use xlink:href="#DejaVuSans-32"/>
       <use xlink:href="#DejaVuSans-30" x="63.623047"/>
       <use xlink:href="#DejaVuSans-31" x="127.246094"/>
       <use xlink:href="#DejaVuSans-34" x="190.869141"/>
       <use xlink:href="#DejaVuSans-2d" x="254.492188"/>
       <use xlink:href="#DejaVuSans-30" x="290.576172"/>
       <use xlink:href="#DejaVuSans-37" x="354.199219"/>
       <use xlink:href="#DejaVuSans-2d" x="417.822266"/>
       <use xlink:href="#DejaVuSans-30" x="453.90625"/>
       <use xlink:href="#DejaVuSans-36" x="517.529297"/>
      </g>
     </g>
    </g>
   </g>
   <g id="matplotlib.axis_2">
    <g id="ytick_1">
     <g id="line2d_7">
      <defs>
       <path id="m5d191b5582" d="M 0 0 
L -3.5 0 
" style="stroke: #000000; stroke-width: 0.8"/>
      </defs>
      <g>
       <use xlink:href="#m5d191b5582" x="30.103125" y="328.61946" style="stroke: #000000; stroke-width: 0.8"/>
      </g>
     </g>
     <g id="text_7">
      <!-- 0.0 -->
      <g transform="translate(7.2 332.418678) scale(0.1 -0.1)">
       <defs>
        <path id="DejaVuSans-2e" d="M 684 794 
L 1344 794 
L 1344 0 
L 684 0 
L 684 794 
z
" transform="scale(0.015625)"/>
       </defs>
       <use xlink:href="#DejaVuSans-30"/>
       <use xlink:href="#DejaVuSans-2e" x="63.623047"/>
       <use xlink:href="#DejaVuSans-30" x="95.410156"/>
      </g>
     </g>
    </g>
    <g id="ytick_2">
     <g id="line2d_8">
      <g>
       <use xlink:href="#m5d191b5582" x="30.103125" y="274.736978" style="stroke: #000000; stroke-width: 0.8"/>
      </g>
     </g>
     <g id="text_8">
      <!-- 0.5 -->
      <g transform="translate(7.2 278.536197) scale(0.1 -0.1)">
       <use xlink:href="#DejaVuSans-30"/>
       <use xlink:href="#DejaVuSans-2e" x="63.623047"/>
       <use xlink:href="#DejaVuSans-35" x="95.410156"/>
      </g>
     </g>
    </g>
    <g id="ytick_3">
     <g id="line2d_9">
      <g>
       <use xlink:href="#m5d191b5582" x="30.103125" y="220.854497" style="stroke: #000000; stroke-width: 0.8"/>
      </g>
     </g>
     <g id="text_9">
      <!-- 1.0 -->
      <g transform="translate(7.2 224.653716) scale(0.1 -0.1)">
       <use xlink:href="#DejaVuSans-31"/>
       <use xlink:href="#DejaVuSans-2e" x="63.623047"/>
       <use xlink:href="#DejaVuSans-30" x="95.410156"/>
      </g>
     </g>
    </g>
    <g id="ytick_4">
     <g id="line2d_10">
      <g>
       <use xlink:href="#m5d191b5582" x="30.103125" y="166.972016" style="stroke: #000000; stroke-width: 0.8"/>
      </g>
     </g>
     <g id="text_10">
      <!-- 1.5 -->
      <g transform="translate(7.2 170.771235) scale(0.1 -0.1)">
       <use xlink:href="#DejaVuSans-31"/>
       <use xlink:href="#DejaVuSans-2e" x="63.623047"/>
       <use xlink:href="#DejaVuSans-35" x="95.410156"/>
      </g>
     </g>
    </g>
    <g id="ytick_5">
     <g id="line2d_11">
      <g>
       <use xlink:href="#m5d191b5582" x="30.103125" y="113.089535" style="stroke: #000000; stroke-width: 0.8"/>
      </g>
     </g>
     <g id="text_11">
      <!-- 2.0 -->
      <g transform="translate(7.2 116.888754) scale(0.1 -0.1)">
       <use xlink:href="#DejaVuSans-32"/>
       <use xlink:href="#DejaVuSans-2e" x="63.623047"/>
       <use xlink:href="#DejaVuSans-30" x="95.410156"/>
      </g>
     </g>
    </g>
    <g id="ytick_6">
     <g id="line2d_12">
      <g>
       <use xlink:href="#m5d191b5582" x="30.103125" y="59.207054" style="stroke: #000000; stroke-width: 0.8"/>
      </g>
     </g>
     <g id="text_12">
      <!-- 2.5 -->
      <g transform="translate(7.2 63.006273) scale(0.1 -0.1)">
       <use xlink:href="#DejaVuSans-32"/>
       <use xlink:href="#DejaVuSans-2e" x="63.623047"/>
       <use xlink:href="#DejaVuSans-35" x="95.410156"/>
      </g>
     </g>
    </g>
   </g>
   <g id="line2d_13">
    <path d="M 60.654199 328.619297 
L 64.049706 328.513643 
L 65.323022 328.286961 
L 66.426561 327.901412 
L 67.530101 327.225972 
L 68.29409 326.34317 
L 69.227855 325.446249 
L 69.906956 325.06525 
L 70.50117 324.975419 
L 71.010496 325.108315 
L 72.793137 325.779185 
L 75.000217 326.293438 
L 76.103756 326.343331 
L 76.782858 326.153884 
L 77.207296 325.693378 
L 77.631734 324.944151 
L 77.971285 323.809572 
L 78.310836 321.936798 
L 78.90505 317.096315 
L 79.499263 312.607515 
L 79.923702 310.647203 
L 81.281905 305.674491 
L 82.130781 301.238079 
L 83.99831 295.822961 
L 84.337861 294.279685 
L 84.932075 291.025388 
L 87.988031 276.623981 
L 89.261346 273.848945 
L 89.431121 272.386034 
L 90.025335 266.702686 
L 90.279998 266.028041 
L 90.449773 266.177235 
L 91.213763 267.656269 
L 91.553313 267.682302 
L 91.892864 267.485114 
L 92.656853 266.542219 
L 92.911516 266.139928 
L 93.420842 258.951095 
L 93.590617 255.141357 
L 94.099943 239.33262 
L 94.439494 233.181939 
L 94.779045 224.649083 
L 94.94882 221.249697 
L 95.288371 212.495302 
L 95.373259 212.249393 
L 95.543034 209.691676 
L 95.882585 204.004185 
L 95.967472 204.057819 
L 96.05236 203.589818 
L 96.476798 198.272488 
L 96.561686 198.482543 
L 96.646574 198.135775 
L 97.071012 194.131302 
L 97.240787 194.57826 
L 97.325675 194.413092 
L 97.495451 192.965192 
L 97.665226 191.316692 
L 97.750114 191.093598 
L 97.919889 187.82896 
L 98.004777 188.811904 
L 98.174552 182.043758 
L 98.25944 183.405598 
L 98.344327 183.279124 
L 98.429215 176.319589 
L 98.514103 177.646038 
L 98.59899 180.551678 
L 98.768766 171.269854 
L 98.853653 176.496975 
L 99.023429 165.567319 
L 99.108316 173.221546 
L 99.278092 160.257543 
L 99.362979 169.624322 
L 99.532755 155.958447 
L 99.617642 166.454826 
L 99.787418 151.39128 
L 99.872305 162.832256 
L 100.042081 147.746807 
L 100.126968 159.616434 
L 100.296744 145.75163 
L 100.381631 157.305783 
L 100.551407 143.458591 
L 100.636294 155.106127 
L 100.80607 141.795794 
L 100.890958 152.827413 
L 101.060733 140.297895 
L 101.145621 150.167771 
L 101.315396 137.999255 
L 101.400284 147.597697 
L 101.570059 136.643889 
L 101.654947 145.000246 
L 101.824722 135.048665 
L 101.90961 142.428269 
L 102.079385 133.131132 
L 102.164273 140.220725 
L 102.334048 131.965857 
L 102.418936 138.13381 
L 102.588711 129.425445 
L 102.673599 136.482575 
L 102.843374 128.046724 
L 102.928262 134.774685 
L 103.098037 126.956537 
L 103.182925 133.114007 
L 103.3527 125.267956 
L 103.437588 131.727309 
L 103.607363 124.20837 
L 103.692251 129.438445 
L 103.862026 121.540725 
L 103.946914 127.629569 
L 104.116689 119.484218 
L 104.201577 125.374827 
L 104.371352 117.154451 
L 104.45624 122.755961 
L 104.626015 114.712791 
L 104.710903 119.709072 
L 104.880678 111.054508 
L 104.965566 116.340183 
L 105.135341 108.113462 
L 105.220229 112.095775 
L 105.390004 103.12873 
L 105.474892 106.279355 
L 105.644667 96.538715 
L 105.729555 99.355251 
L 105.89933 88.187998 
L 105.984218 87.643457 
L 106.153993 74.06174 
L 106.238881 72.159443 
L 106.408656 62.195504 
L 106.493544 63.504314 
L 106.578432 57.028248 
L 106.748207 62.984181 
L 106.833095 57.02 
L 107.00287 65.705987 
L 107.087758 59.942007 
L 107.257533 68.635214 
L 107.342421 63.68933 
L 107.427309 73.266356 
L 107.512196 70.455138 
L 107.597084 67.598726 
L 107.681972 77.771705 
L 107.851747 71.99123 
L 107.936635 81.019989 
L 108.021522 74.855967 
L 108.10641 75.452382 
L 108.191298 82.98102 
L 108.276185 74.691556 
L 108.445961 83.924345 
L 108.530848 74.588732 
L 108.700624 84.271306 
L 108.785511 75.20154 
L 108.955287 83.190497 
L 109.040174 75.898364 
L 109.125062 83.674222 
L 109.20995 82.142627 
L 109.294837 76.551048 
L 109.379725 83.486945 
L 109.5495 76.716409 
L 109.634388 84.136776 
L 109.804163 77.564053 
L 109.889051 83.920234 
L 110.058826 78.05749 
L 110.143714 83.913323 
L 110.313489 77.330116 
L 110.398377 83.782724 
L 110.483265 77.525564 
L 110.568153 78.02265 
L 110.65304 83.790381 
L 110.737928 77.526875 
L 110.822816 78.531734 
L 110.907703 83.764688 
L 110.992591 77.569011 
L 111.077479 79.349882 
L 111.162366 83.64876 
L 111.247254 77.120126 
L 111.417029 83.764405 
L 111.501917 77.344915 
L 111.671692 83.787375 
L 111.75658 77.31691 
L 111.926355 83.72494 
L 112.011243 77.465468 
L 112.181018 83.758419 
L 112.265906 77.734809 
L 112.435681 84.405039 
L 112.520569 78.171336 
L 112.605457 84.498074 
L 112.690344 84.484585 
L 112.775232 78.798943 
L 112.86012 85.16846 
L 112.945007 83.739303 
L 113.029895 79.624439 
L 113.114783 86.028282 
L 113.19967 84.360564 
L 113.284558 80.741938 
L 113.369446 87.145909 
L 113.454333 85.180047 
L 113.539221 81.648753 
L 113.624109 88.291439 
L 113.793884 82.568517 
L 113.878772 89.467724 
L 114.048547 83.81294 
L 114.133435 90.624661 
L 114.30321 84.768648 
L 114.388098 91.357867 
L 114.472986 85.144051 
L 114.557873 86.606455 
L 114.642761 92.390707 
L 114.727649 86.347031 
L 114.812536 88.15786 
L 114.897424 93.110655 
L 114.982312 86.806451 
L 115.152087 93.684923 
L 115.236975 87.839059 
L 115.40675 94.8609 
L 115.491638 88.507955 
L 115.661413 95.741327 
L 115.746301 89.061746 
L 115.916076 96.291598 
L 116.000964 89.556391 
L 116.170739 97.149904 
L 116.255627 90.310459 
L 116.425402 97.531961 
L 116.51029 91.384511 
L 116.680065 98.269201 
L 116.764953 92.179021 
L 116.934728 98.618474 
L 117.019616 93.046499 
L 117.104504 99.842702 
L 117.189391 99.198086 
L 117.274279 93.940005 
L 117.359167 100.785179 
L 117.444054 100.70756 
L 117.528942 94.967192 
L 117.61383 101.850572 
L 117.698717 99.980109 
L 117.783605 96.00237 
L 117.868493 102.912574 
L 117.95338 100.811823 
L 118.038268 96.996464 
L 118.123156 104.528057 
L 118.292931 97.98059 
L 118.377819 105.122469 
L 118.547594 99.192048 
L 118.632482 106.118516 
L 118.802257 100.283982 
L 118.887145 107.136787 
L 119.05692 101.222759 
L 119.141808 108.196759 
L 119.311583 102.659444 
L 119.396471 109.185227 
L 119.566246 103.561557 
L 119.651134 110.358711 
L 119.820909 104.588796 
L 119.905797 111.086367 
L 119.990684 104.554727 
L 120.075572 105.955852 
L 120.16046 111.930927 
L 120.245348 105.967543 
L 120.330235 107.07628 
L 120.415123 112.831678 
L 120.500011 106.498132 
L 120.584898 108.33635 
L 120.669786 113.754564 
L 120.754674 107.258573 
L 120.839561 109.452307 
L 120.924449 114.74158 
L 121.009337 107.921483 
L 121.179112 115.405119 
L 121.264 108.461784 
L 121.433775 116.117244 
L 121.518663 109.229239 
L 121.688438 117.020192 
L 121.773326 109.680103 
L 121.943101 117.388657 
L 122.027989 110.193118 
L 122.197764 117.466893 
L 122.282652 110.256735 
L 122.452427 117.07926 
L 122.537315 110.714741 
L 122.70709 118.024396 
L 122.791978 111.296126 
L 122.961753 117.628156 
L 123.046641 111.893338 
L 123.216416 119.183261 
L 123.301304 112.621046 
L 123.471079 119.872339 
L 123.555967 113.525355 
L 123.725742 120.795379 
L 123.81063 114.354204 
L 123.980405 121.715618 
L 124.065293 115.162691 
L 124.235068 122.224035 
L 124.319956 115.817058 
L 124.489731 122.773907 
L 124.574619 116.773242 
L 124.744394 124.099649 
L 124.829282 117.637123 
L 124.999057 124.394337 
L 125.083945 118.358446 
L 125.25372 125.687911 
L 125.338608 119.017386 
L 125.508383 125.956469 
L 125.593271 119.685344 
L 125.763046 126.63455 
L 125.847934 120.535441 
L 125.932822 127.200455 
L 126.017709 126.6341 
L 126.102597 121.163241 
L 126.187485 127.855631 
L 126.272372 127.825672 
L 126.35726 122.013942 
L 126.442148 128.534637 
L 126.527035 128.425788 
L 126.611923 122.739607 
L 126.781699 129.22094 
L 126.866586 123.358709 
L 127.036362 129.989859 
L 127.121249 123.974523 
L 127.291025 130.704682 
L 127.375912 124.48398 
L 127.545688 131.60235 
L 127.630575 125.130485 
L 127.800351 132.214605 
L 127.885238 125.698959 
L 128.055014 133.002782 
L 128.139901 126.206296 
L 128.309677 133.582805 
L 128.394564 126.879393 
L 128.56434 134.219443 
L 128.649227 127.472186 
L 128.819003 135.162151 
L 128.90389 128.036074 
L 129.073666 135.833167 
L 129.158553 128.714489 
L 129.328329 136.483461 
L 129.413216 129.347607 
L 129.582992 136.998725 
L 129.667879 129.705449 
L 129.837655 137.21659 
L 129.922543 130.280436 
L 130.092318 137.908674 
L 130.177206 130.536494 
L 130.346981 138.486385 
L 130.431869 131.445185 
L 130.601644 139.243344 
L 130.686532 132.185867 
L 130.856307 140.254409 
L 130.941195 133.027704 
L 131.11097 140.809972 
L 131.195858 133.592684 
L 131.365633 141.489377 
L 131.450521 134.295405 
L 131.535408 136.042553 
L 131.620296 142.00491 
L 131.705184 134.919415 
L 131.790071 136.382975 
L 131.874959 142.44154 
L 131.959847 135.498038 
L 132.044734 136.623001 
L 132.129622 142.937213 
L 132.21451 136.149848 
L 132.299397 136.826324 
L 132.384285 143.394988 
L 132.55406 136.98223 
L 132.638948 143.984081 
L 132.808723 137.774466 
L 132.893611 144.447097 
L 133.063387 137.651755 
L 133.148274 145.175152 
L 133.31805 137.956245 
L 133.402937 145.530887 
L 133.572713 138.043255 
L 133.6576 146.036824 
L 133.827376 138.533288 
L 133.912263 146.440091 
L 134.082039 138.623753 
L 134.166926 146.595432 
L 134.336702 139.037272 
L 134.421589 146.982332 
L 134.506477 144.702924 
L 134.591365 139.394459 
L 134.676252 147.029659 
L 134.76114 145.589416 
L 134.846028 139.733917 
L 134.930915 146.991158 
L 135.015803 146.577524 
L 135.100691 139.897338 
L 135.185578 147.68418 
L 135.270466 147.455202 
L 135.355354 140.630274 
L 135.525129 148.373707 
L 135.610017 141.130148 
L 135.779792 149.390168 
L 135.86468 141.725381 
L 136.034455 150.245558 
L 136.119343 142.366053 
L 136.289118 151.218905 
L 136.374006 143.103126 
L 136.543781 152.020146 
L 136.628669 143.931294 
L 136.798444 152.935876 
L 136.883332 144.838404 
L 136.96822 147.100983 
L 137.053107 153.72359 
L 137.137995 146.168578 
L 137.222883 147.563627 
L 137.30777 154.373396 
L 137.392658 146.723576 
L 137.477546 147.634078 
L 137.562433 155.173584 
L 137.732209 147.428391 
L 137.817096 155.485063 
L 137.986872 147.539347 
L 138.071759 155.874122 
L 138.241535 147.230708 
L 138.326422 156.203791 
L 138.496198 147.490864 
L 138.581085 156.37623 
L 138.750861 147.711312 
L 138.835748 156.518943 
L 138.920636 153.933902 
L 139.005524 148.044912 
L 139.090411 156.563778 
L 139.175299 155.315565 
L 139.260187 148.530988 
L 139.429962 156.78903 
L 139.51485 149.161229 
L 139.684625 157.926042 
L 139.769513 149.903312 
L 139.939288 159.820798 
L 140.024176 150.982592 
L 140.193951 161.285013 
L 140.278839 152.173997 
L 140.448614 162.430967 
L 140.533502 153.281051 
L 140.703277 163.698308 
L 140.788165 155.145078 
L 140.873053 156.191741 
L 140.95794 164.714486 
L 141.127716 156.347724 
L 141.212603 165.017563 
L 141.382379 156.09358 
L 141.467266 165.670657 
L 141.637042 156.180461 
L 141.721929 165.621134 
L 141.806817 162.929273 
L 141.891705 156.597616 
L 141.976592 166.037414 
L 142.06148 165.405722 
L 142.146368 157.25283 
L 142.316143 167.166616 
L 142.401031 158.16725 
L 142.570806 168.942785 
L 142.655694 159.431585 
L 142.825469 170.503966 
L 142.910357 161.239395 
L 142.995245 163.239403 
L 143.080132 171.479472 
L 143.249908 162.915412 
L 143.334795 172.062129 
L 143.504571 162.62057 
L 143.589458 172.131731 
L 143.759234 162.579885 
L 143.844121 171.657127 
L 143.929009 171.085249 
L 144.013897 163.207003 
L 144.183672 173.957539 
L 144.26856 164.559042 
L 144.438335 175.399183 
L 144.523223 166.306152 
L 144.60811 168.463338 
L 144.692998 176.667064 
L 144.862773 168.066198 
L 144.947661 177.099891 
L 145.117436 167.803935 
L 145.202324 177.727973 
L 145.287212 175.260466 
L 145.372099 168.074138 
L 145.541875 177.564899 
L 145.626762 169.199524 
L 145.796538 180.045716 
L 145.881425 171.319172 
L 145.966313 173.179422 
L 146.051201 181.319005 
L 146.220976 172.548192 
L 146.305864 181.363775 
L 146.475639 172.356097 
L 146.645415 180.878765 
L 146.730302 173.410814 
L 146.900078 183.190251 
L 146.984965 175.71941 
L 147.069853 177.854217 
L 147.154741 184.411499 
L 147.324516 177.066156 
L 147.409404 184.487088 
L 147.579179 177.14064 
L 147.748954 184.678682 
L 147.833842 178.562539 
L 148.003617 186.559191 
L 148.173393 180.854023 
L 148.25828 186.855729 
L 148.428056 180.746779 
L 148.597831 186.8769 
L 148.682719 181.955592 
L 148.852494 188.41109 
L 149.022269 183.697781 
L 149.107157 188.561228 
L 149.276933 183.883556 
L 149.446708 189.182001 
L 149.531596 185.401726 
L 149.616483 186.650646 
L 149.701371 190.176455 
L 149.871146 186.348044 
L 150.040922 190.136605 
L 150.125809 187.4329 
L 150.295585 191.524422 
L 150.46536 189.208516 
L 150.550248 191.904372 
L 150.635135 191.626423 
L 150.720023 190.184767 
L 150.889798 193.029784 
L 150.974686 191.87954 
L 151.144461 193.726699 
L 151.229349 193.524391 
L 151.314237 193.360455 
L 151.484012 194.415661 
L 151.5689 194.37486 
L 151.823563 194.978663 
L 153.521316 197.388669 
L 156.916823 201.59256 
L 157.7657 202.651645 
L 160.142555 205.34718 
L 161.246095 206.498542 
L 162.689185 208.386874 
L 163.877613 209.825396 
L 165.660254 211.597814 
L 168.037109 214.334046 
L 168.801098 215.002274 
L 169.140649 215.264319 
L 170.159301 216.457356 
L 171.857054 218.764654 
L 172.536156 219.478885 
L 173.724583 220.955176 
L 175.846775 223.334274 
L 176.865427 224.36096 
L 178.22363 225.628622 
L 181.704025 229.57086 
L 183.486666 230.829979 
L 186.96706 233.477378 
L 187.731049 234.194487 
L 188.0706 234.416669 
L 193.92785 239.337746 
L 194.352288 239.49202 
L 194.946502 239.78103 
L 196.644255 241.139588 
L 196.983806 241.319576 
L 197.917571 241.686956 
L 198.596672 242.147949 
L 199.785099 243.338108 
L 202.501505 245.879214 
L 207.849429 250.733938 
L 207.934316 250.574647 
L 208.188979 249.726432 
L 208.443642 249.442953 
L 209.547182 241.863481 
L 209.63207 241.88532 
L 209.886733 241.204406 
L 210.056508 240.91907 
L 210.226283 241.019364 
L 210.311171 241.168564 
L 210.396059 241.100239 
L 210.73561 240.562443 
L 210.990273 240.46538 
L 211.414711 239.54947 
L 211.499599 239.51991 
L 212.518251 237.759658 
L 212.772914 237.616933 
L 213.112464 237.116655 
L 213.706678 236.654216 
L 214.300892 235.890191 
L 214.895106 234.823995 
L 215.743982 233.224737 
L 216.338196 232.080543 
L 217.102185 230.83481 
L 217.441736 230.269599 
L 218.205725 229.160514 
L 218.884826 227.375469 
L 219.309265 225.810074 
L 219.563928 224.804552 
L 219.988366 222.485301 
L 220.073254 222.175672 
L 220.752355 214.772179 
L 221.431457 197.390352 
L 221.601232 198.494041 
L 222.365221 206.455788 
L 222.789659 208.611098 
L 223.12921 209.31468 
L 223.383873 209.350445 
L 223.723424 209.106129 
L 224.147862 208.299839 
L 224.826964 206.570406 
L 225.590953 204.671616 
L 226.270054 203.452912 
L 226.864268 202.723021 
L 227.458482 202.309746 
L 228.137583 202.098831 
L 228.901572 202.098702 
L 229.750449 202.324558 
L 230.599326 202.764798 
L 231.617978 203.560644 
L 233.061068 205.154686 
L 233.825057 206.221454 
L 236.117024 209.802812 
L 240.785847 217.530829 
L 241.549836 218.456657 
L 241.889386 218.824891 
L 243.417365 220.931378 
L 244.860455 223.039926 
L 245.369781 223.535123 
L 249.699053 227.60372 
L 252.670121 230.111618 
L 256.235404 233.981099 
L 256.574954 234.195476 
L 260.564675 237.33522 
L 262.177541 238.637266 
L 263.535744 239.831832 
L 264.38462 240.533968 
L 265.573048 241.519828 
L 267.101026 242.344258 
L 267.949903 242.702677 
L 269.647656 243.684349 
L 269.987207 243.71195 
L 270.24187 243.739326 
L 270.496533 243.664456 
L 271.090747 243.801035 
L 271.939623 244.503165 
L 273.297826 245.670084 
L 274.231591 246.025369 
L 274.656029 246.099443 
L 276.353783 245.987504 
L 276.778221 246.225879 
L 278.136424 247.119982 
L 278.985301 247.459954 
L 279.494627 247.477502 
L 279.834177 247.437517 
L 280.598166 247.571661 
L 282.465695 247.971473 
L 282.805246 247.92078 
L 283.908786 248.149064 
L 284.927438 248.857996 
L 286.625191 250.01645 
L 291.378901 252.912237 
L 292.652216 253.649059 
L 295.45351 255.290705 
L 299.952556 258.553821 
L 303.348063 260.921858 
L 304.536491 261.260205 
L 306.40402 261.135162 
L 306.74357 261.054743 
L 306.913346 261.008065 
L 307.252896 260.81527 
L 307.507559 260.742873 
L 307.84711 260.520473 
L 308.186661 260.38762 
L 308.526212 259.885363 
L 308.780875 259.511675 
L 309.205313 258.640593 
L 309.375088 258.343715 
L 309.714639 257.609482 
L 311.49728 255.398115 
L 311.921719 254.888999 
L 312.261269 254.424588 
L 312.431045 254.205715 
L 312.770595 253.571588 
L 313.110146 253.019564 
L 313.449697 252.512959 
L 313.619472 252.274661 
L 314.04391 251.537049 
L 314.298574 251.296779 
L 314.638124 250.733546 
L 315.487001 249.51515 
L 315.741664 249.108421 
L 316.590541 248.266578 
L 317.609193 242.681101 
L 317.863856 242.967086 
L 318.45807 243.823587 
L 318.882508 243.965741 
L 319.306946 243.883568 
L 319.986048 243.420898 
L 321.0047 242.473822 
L 322.10824 241.407041 
L 323.211779 240.538388 
L 324.315319 240.006199 
L 325.503747 239.751592 
L 326.861949 239.78148 
L 327.965489 240.097852 
L 329.323692 240.720803 
L 331.021446 241.73382 
L 333.143637 243.300827 
L 336.029818 245.937197 
L 338.236898 248.22396 
L 340.613753 250.784721 
L 351.818926 262.71774 
L 355.893534 266.678958 
L 359.543704 270.017818 
L 363.703201 273.631151 
L 367.608034 276.980859 
L 370.154664 279.222685 
L 372.022193 280.545497 
L 374.059497 281.72976 
L 376.436352 282.837319 
L 379.322533 283.94401 
L 382.548265 284.956507 
L 391.631246 287.431668 
L 399.5258 289.223169 
L 406.316814 290.539408 
L 432.37733 295.022339 
L 442.478963 296.323066 
L 459.456498 298.190866 
L 480.338867 300.041384 
L 521.933828 303.266388 
L 545.95704 304.993349 
L 564.802104 306.006795 
L 586.024022 306.861019 
L 611.914763 307.6614 
L 632.882019 308.10525 
L 666.921977 308.608534 
L 671.675687 308.666116 
L 671.675687 308.666116 
" clip-path="url(#p7683e310ee)" style="fill: none; stroke: #1f77b4; stroke-width: 1.5; stroke-linecap: square"/>
   </g>
   <g id="line2d_14">
    <path d="M 60.654199 328.619359 
L 61.842627 328.518182 
L 63.370605 328.170285 
L 67.020775 327.191353 
L 68.633641 326.785275 
L 70.331394 326.754071 
L 73.726901 326.698977 
L 74.745553 326.352149 
L 75.849093 325.680862 
L 76.69797 325.009427 
L 78.141061 323.297298 
L 80.178365 320.031657 
L 80.602803 319.165756 
L 81.112129 317.729705 
L 82.89477 311.789508 
L 83.828535 308.465028 
L 84.252973 306.937634 
L 85.526288 302.806061 
L 88.157806 294.368297 
L 88.582245 293.524526 
L 89.431121 291.834861 
L 89.770672 287.939335 
L 90.110223 285.320292 
L 90.449773 284.423677 
L 90.789324 284.2232 
L 91.213763 284.267248 
L 92.147527 284.714412 
L 92.996404 285.194761 
L 93.081291 284.770541 
L 93.335954 278.979105 
L 95.543034 223.816167 
L 96.307023 209.134703 
L 96.731461 202.914476 
L 97.325675 195.368366 
L 97.580338 192.8246 
L 98.174552 187.048694 
L 98.59899 183.501256 
L 99.362979 177.690175 
L 99.787418 175.246681 
L 100.381631 172.357903 
L 100.551407 171.822909 
L 101.145621 169.674242 
L 101.570059 168.224799 
L 101.824722 167.493787 
L 102.24916 166.481338 
L 102.928262 165.114092 
L 103.3527 164.480248 
L 103.607363 164.145364 
L 104.286465 161.902017 
L 105.050454 157.301658 
L 105.390004 154.42265 
L 106.069106 142.356889 
L 106.408656 133.412608 
L 106.663319 130.959145 
L 106.917982 130.137441 
L 107.087758 130.021402 
L 107.597084 130.284812 
L 108.445961 131.251013 
L 109.294837 132.371651 
L 110.568153 134.596754 
L 118.123156 150.58372 
L 121.60355 157.111664 
L 121.943101 157.368615 
L 122.452427 156.952826 
L 122.70709 157.11404 
L 123.301304 157.976232 
L 126.696811 163.485642 
L 129.498104 167.493611 
L 132.978499 171.636758 
L 136.034455 174.367472 
L 137.137995 175.140722 
L 138.071759 175.649451 
L 138.920636 176.0437 
L 139.51485 176.653147 
L 140.363727 177.938038 
L 142.401031 181.526788 
L 147.409404 190.331226 
L 147.91873 190.909899 
L 148.682719 191.391634 
L 149.36182 191.959183 
L 150.210697 192.983864 
L 151.229349 194.36297 
L 153.521316 197.003321 
L 154.030642 197.50077 
L 155.983059 199.076227 
L 157.511037 200.674042 
L 157.935475 201.039568 
L 159.208791 202.392245 
L 159.803004 202.617472 
L 161.076319 203.618482 
L 161.670533 204.206687 
L 163.792725 206.617518 
L 164.386939 207.132193 
L 164.981152 207.498848 
L 165.405591 207.798207 
L 166.084692 208.601698 
L 166.933569 209.586036 
L 167.188232 209.717912 
L 167.697558 209.880602 
L 169.055761 210.435009 
L 169.395312 210.534793 
L 169.904638 211.041707 
L 171.772166 212.9242 
L 172.790819 213.647611 
L 174.743235 215.635971 
L 176.186326 216.659598 
L 176.950315 217.07281 
L 177.884079 217.41207 
L 178.393405 217.883924 
L 181.364474 220.743818 
L 183.401778 221.697894 
L 184.250655 222.23603 
L 185.863521 222.601723 
L 188.0706 223.690182 
L 188.410151 223.77603 
L 188.919477 224.18255 
L 189.938129 224.939491 
L 191.126556 225.873301 
L 191.635883 226.314443 
L 192.230096 226.711366 
L 193.673187 227.896454 
L 194.606951 227.891425 
L 195.201165 228.407871 
L 196.304705 229.247011 
L 196.983806 229.665999 
L 198.087346 229.851469 
L 198.68156 230.445555 
L 207.764541 240.85761 
L 207.934316 240.838599 
L 208.019204 240.74461 
L 208.273867 238.926226 
L 208.868081 233.302959 
L 209.716957 225.679075 
L 211.329823 215.853635 
L 212.1787 212.126636 
L 212.518251 210.823547 
L 213.28224 208.551524 
L 214.640443 206.0315 
L 214.895106 205.656523 
L 215.319544 205.132843 
L 216.083533 204.367592 
L 216.423084 204.171465 
L 218.3755 203.747823 
L 218.715051 203.111531 
L 219.054602 202.232723 
L 219.903478 197.951053 
L 220.327917 194.022977 
L 220.922131 182.1617 
L 221.346569 165.922607 
L 221.601232 162.51497 
L 221.855895 161.560342 
L 222.02567 161.475246 
L 222.280333 161.607989 
L 222.789659 162.279047 
L 224.657188 165.108526 
L 225.506065 166.620074 
L 232.127304 179.393866 
L 234.07972 182.778478 
L 235.18326 184.205819 
L 236.201912 185.495942 
L 237.72989 187.601846 
L 238.748542 188.64692 
L 239.342756 189.123325 
L 240.616071 190.24293 
L 242.738263 191.293239 
L 243.756915 192.50873 
L 244.605792 193.523249 
L 245.03023 193.86656 
L 246.388433 194.659487 
L 247.831524 196.17107 
L 248.425737 196.721497 
L 249.104839 197.414799 
L 250.123491 197.805461 
L 251.396806 198.941697 
L 252.075907 199.140208 
L 252.585233 199.711069 
L 254.113212 201.626173 
L 254.53765 201.966876 
L 256.235404 203.741006 
L 256.574954 203.882471 
L 257.169168 204.217573 
L 259.715798 206.303804 
L 260.3949 206.522671 
L 261.074001 206.98948 
L 261.922878 207.61138 
L 262.517092 208.196939 
L 263.196193 208.831171 
L 263.705519 209.123814 
L 264.639283 210.128961 
L 265.657935 211.125831 
L 266.252149 211.295108 
L 266.761475 211.63479 
L 267.525464 212.124959 
L 267.949903 212.337458 
L 269.477881 213.408641 
L 270.156982 213.45504 
L 270.920971 213.451357 
L 271.34541 213.83506 
L 273.722265 216.259302 
L 274.316478 216.579349 
L 274.740917 216.82854 
L 275.504906 216.817968 
L 276.09912 216.873767 
L 276.43867 217.070081 
L 277.287547 217.986653 
L 277.966648 218.551568 
L 278.391087 218.857624 
L 279.070188 219.403626 
L 280.173728 219.505317 
L 281.531931 220.42341 
L 281.956369 220.503414 
L 282.890134 220.854562 
L 283.314572 220.959176 
L 283.73901 221.260007 
L 284.587887 222.286034 
L 290.190474 229.393379 
L 292.312666 231.863686 
L 293.331318 232.297076 
L 294.859296 234.055053 
L 297.915252 237.470772 
L 298.764129 238.095876 
L 302.923625 242.202426 
L 304.027165 242.734443 
L 305.470255 242.976459 
L 305.979581 242.927522 
L 307.252896 242.39219 
L 307.84711 241.975242 
L 308.356436 241.540186 
L 309.459976 238.895978 
L 311.072842 234.572346 
L 312.091494 232.255793 
L 312.940371 230.036093 
L 313.874135 227.669369 
L 314.298574 226.742704 
L 314.468349 226.446209 
L 315.232338 224.739298 
L 315.996327 223.573495 
L 316.760316 222.678979 
L 317.014979 220.040404 
L 317.35453 217.144974 
L 317.609193 216.394764 
L 317.863856 216.207101 
L 318.118519 216.300907 
L 318.627845 216.777777 
L 322.617566 221.40479 
L 328.30504 227.386562 
L 332.973862 232.961563 
L 337.982235 238.694719 
L 342.90572 243.993351 
L 347.914093 249.060625 
L 353.007353 253.900439 
L 358.185502 258.517127 
L 363.448538 262.915413 
L 368.881349 267.164586 
L 374.399048 271.197392 
L 380.086522 275.076039 
L 385.858884 278.743474 
L 391.801021 282.255371 
L 397.912934 285.608714 
L 404.194622 288.801656 
L 410.730973 291.871751 
L 417.437099 294.77492 
L 424.397889 297.545255 
L 431.613341 300.177158 
L 439.168344 302.693733 
L 446.97801 305.060781 
L 455.212115 307.322327 
L 463.870658 309.466228 
L 472.953639 311.483276 
L 482.545946 313.382931 
L 492.732467 315.169941 
L 503.513202 316.833179 
L 515.057926 318.386677 
L 527.451526 319.827068 
L 540.863779 321.158157 
L 555.379572 322.372536 
L 571.338455 323.480708 
L 588.995091 324.479113 
L 608.689032 325.365591 
L 631.01449 326.143227 
L 656.820344 326.813524 
L 671.675687 327.113583 
L 671.675687 327.113583 
" clip-path="url(#p7683e310ee)" style="fill: none; stroke: #ff7f0e; stroke-width: 1.5; stroke-linecap: square"/>
   </g>
   <g id="patch_3">
    <path d="M 30.103125 342.2 
L 30.103125 43.44 
" style="fill: none; stroke: #000000; stroke-width: 0.8; stroke-linejoin: miter; stroke-linecap: square"/>
   </g>
   <g id="patch_4">
    <path d="M 702.226761 342.2 
L 702.226761 43.44 
" style="fill: none; stroke: #000000; stroke-width: 0.8; stroke-linejoin: miter; stroke-linecap: square"/>
   </g>
   <g id="patch_5">
    <path d="M 30.103125 342.2 
L 702.226761 342.2 
" style="fill: none; stroke: #000000; stroke-width: 0.8; stroke-linejoin: miter; stroke-linecap: square"/>
   </g>
   <g id="patch_6">
    <path d="M 30.103125 43.44 
L 702.226761 43.44 
" style="fill: none; stroke: #000000; stroke-width: 0.8; stroke-linejoin: miter; stroke-linecap: square"/>
   </g>
   <g id="text_13">
    <!-- 1 transformation(s) -->
    <g transform="translate(308.050256 37.44) scale(0.12 -0.12)">
     <defs>
      <path id="DejaVuSans-20" transform="scale(0.015625)"/>
      <path id="DejaVuSans-74" d="M 1172 4494 
L 1172 3500 
L 2356 3500 
L 2356 3053 
L 1172 3053 
L 1172 1153 
Q 1172 725 1289 603 
Q 1406 481 1766 481 
L 2356 481 
L 2356 0 
L 1766 0 
Q 1100 0 847 248 
Q 594 497 594 1153 
L 594 3053 
L 172 3053 
L 172 3500 
L 594 3500 
L 594 4494 
L 1172 4494 
z
" transform="scale(0.015625)"/>
      <path id="DejaVuSans-72" d="M 2631 2963 
Q 2534 3019 2420 3045 
Q 2306 3072 2169 3072 
Q 1681 3072 1420 2755 
Q 1159 2438 1159 1844 
L 1159 0 
L 581 0 
L 581 3500 
L 1159 3500 
L 1159 2956 
Q 1341 3275 1631 3429 
Q 1922 3584 2338 3584 
Q 2397 3584 2469 3576 
Q 2541 3569 2628 3553 
L 2631 2963 
z
" transform="scale(0.015625)"/>
      <path id="DejaVuSans-61" d="M 2194 1759 
Q 1497 1759 1228 1600 
Q 959 1441 959 1056 
Q 959 750 1161 570 
Q 1363 391 1709 391 
Q 2188 391 2477 730 
Q 2766 1069 2766 1631 
L 2766 1759 
L 2194 1759 
z
M 3341 1997 
L 3341 0 
L 2766 0 
L 2766 531 
Q 2569 213 2275 61 
Q 1981 -91 1556 -91 
Q 1019 -91 701 211 
Q 384 513 384 1019 
Q 384 1609 779 1909 
Q 1175 2209 1959 2209 
L 2766 2209 
L 2766 2266 
Q 2766 2663 2505 2880 
Q 2244 3097 1772 3097 
Q 1472 3097 1187 3025 
Q 903 2953 641 2809 
L 641 3341 
Q 956 3463 1253 3523 
Q 1550 3584 1831 3584 
Q 2591 3584 2966 3190 
Q 3341 2797 3341 1997 
z
" transform="scale(0.015625)"/>
      <path id="DejaVuSans-6e" d="M 3513 2113 
L 3513 0 
L 2938 0 
L 2938 2094 
Q 2938 2591 2744 2837 
Q 2550 3084 2163 3084 
Q 1697 3084 1428 2787 
Q 1159 2491 1159 1978 
L 1159 0 
L 581 0 
L 581 3500 
L 1159 3500 
L 1159 2956 
Q 1366 3272 1645 3428 
Q 1925 3584 2291 3584 
Q 2894 3584 3203 3211 
Q 3513 2838 3513 2113 
z
" transform="scale(0.015625)"/>
      <path id="DejaVuSans-73" d="M 2834 3397 
L 2834 2853 
Q 2591 2978 2328 3040 
Q 2066 3103 1784 3103 
Q 1356 3103 1142 2972 
Q 928 2841 928 2578 
Q 928 2378 1081 2264 
Q 1234 2150 1697 2047 
L 1894 2003 
Q 2506 1872 2764 1633 
Q 3022 1394 3022 966 
Q 3022 478 2636 193 
Q 2250 -91 1575 -91 
Q 1294 -91 989 -36 
Q 684 19 347 128 
L 347 722 
Q 666 556 975 473 
Q 1284 391 1588 391 
Q 1994 391 2212 530 
Q 2431 669 2431 922 
Q 2431 1156 2273 1281 
Q 2116 1406 1581 1522 
L 1381 1569 
Q 847 1681 609 1914 
Q 372 2147 372 2553 
Q 372 3047 722 3315 
Q 1072 3584 1716 3584 
Q 2034 3584 2315 3537 
Q 2597 3491 2834 3397 
z
" transform="scale(0.015625)"/>
      <path id="DejaVuSans-66" d="M 2375 4863 
L 2375 4384 
L 1825 4384 
Q 1516 4384 1395 4259 
Q 1275 4134 1275 3809 
L 1275 3500 
L 2222 3500 
L 2222 3053 
L 1275 3053 
L 1275 0 
L 697 0 
L 697 3053 
L 147 3053 
L 147 3500 
L 697 3500 
L 697 3744 
Q 697 4328 969 4595 
Q 1241 4863 1831 4863 
L 2375 4863 
z
" transform="scale(0.015625)"/>
      <path id="DejaVuSans-6f" d="M 1959 3097 
Q 1497 3097 1228 2736 
Q 959 2375 959 1747 
Q 959 1119 1226 758 
Q 1494 397 1959 397 
Q 2419 397 2687 759 
Q 2956 1122 2956 1747 
Q 2956 2369 2687 2733 
Q 2419 3097 1959 3097 
z
M 1959 3584 
Q 2709 3584 3137 3096 
Q 3566 2609 3566 1747 
Q 3566 888 3137 398 
Q 2709 -91 1959 -91 
Q 1206 -91 779 398 
Q 353 888 353 1747 
Q 353 2609 779 3096 
Q 1206 3584 1959 3584 
z
" transform="scale(0.015625)"/>
      <path id="DejaVuSans-6d" d="M 3328 2828 
Q 3544 3216 3844 3400 
Q 4144 3584 4550 3584 
Q 5097 3584 5394 3201 
Q 5691 2819 5691 2113 
L 5691 0 
L 5113 0 
L 5113 2094 
Q 5113 2597 4934 2840 
Q 4756 3084 4391 3084 
Q 3944 3084 3684 2787 
Q 3425 2491 3425 1978 
L 3425 0 
L 2847 0 
L 2847 2094 
Q 2847 2600 2669 2842 
Q 2491 3084 2119 3084 
Q 1678 3084 1418 2786 
Q 1159 2488 1159 1978 
L 1159 0 
L 581 0 
L 581 3500 
L 1159 3500 
L 1159 2956 
Q 1356 3278 1631 3431 
Q 1906 3584 2284 3584 
Q 2666 3584 2933 3390 
Q 3200 3197 3328 2828 
z
" transform="scale(0.015625)"/>
      <path id="DejaVuSans-69" d="M 603 3500 
L 1178 3500 
L 1178 0 
L 603 0 
L 603 3500 
z
M 603 4863 
L 1178 4863 
L 1178 4134 
L 603 4134 
L 603 4863 
z
" transform="scale(0.015625)"/>
      <path id="DejaVuSans-28" d="M 1984 4856 
Q 1566 4138 1362 3434 
Q 1159 2731 1159 2009 
Q 1159 1288 1364 580 
Q 1569 -128 1984 -844 
L 1484 -844 
Q 1016 -109 783 600 
Q 550 1309 550 2009 
Q 550 2706 781 3412 
Q 1013 4119 1484 4856 
L 1984 4856 
z
" transform="scale(0.015625)"/>
      <path id="DejaVuSans-29" d="M 513 4856 
L 1013 4856 
Q 1481 4119 1714 3412 
Q 1947 2706 1947 2009 
Q 1947 1309 1714 600 
Q 1481 -109 1013 -844 
L 513 -844 
Q 928 -128 1133 580 
Q 1338 1288 1338 2009 
Q 1338 2731 1133 3434 
Q 928 4138 513 4856 
z
" transform="scale(0.015625)"/>
     </defs>
     <use xlink:href="#DejaVuSans-31"/>
     <use xlink:href="#DejaVuSans-20" x="63.623047"/>
     <use xlink:href="#DejaVuSans-74" x="95.410156"/>
     <use xlink:href="#DejaVuSans-72" x="134.619141"/>
     <use xlink:href="#DejaVuSans-61" x="175.732422"/>
     <use xlink:href="#DejaVuSans-6e" x="237.011719"/>
     <use xlink:href="#DejaVuSans-73" x="300.390625"/>
     <use xlink:href="#DejaVuSans-66" x="352.490234"/>
     <use xlink:href="#DejaVuSans-6f" x="387.695312"/>
     <use xlink:href="#DejaVuSans-72" x="448.876953"/>
     <use xlink:href="#DejaVuSans-6d" x="488.240234"/>
     <use xlink:href="#DejaVuSans-61" x="585.652344"/>
     <use xlink:href="#DejaVuSans-74" x="646.931641"/>
     <use xlink:href="#DejaVuSans-69" x="686.140625"/>
     <use xlink:href="#DejaVuSans-6f" x="713.923828"/>
     <use xlink:href="#DejaVuSans-6e" x="775.105469"/>
     <use xlink:href="#DejaVuSans-28" x="838.484375"/>
     <use xlink:href="#DejaVuSans-73" x="877.498047"/>
     <use xlink:href="#DejaVuSans-29" x="929.597656"/>
    </g>
   </g>
   <g id="legend_1">
    <g id="patch_7">
     <path d="M 613.833011 80.79625 
L 695.226761 80.79625 
Q 697.226761 80.79625 697.226761 78.79625 
L 697.226761 50.44 
Q 697.226761 48.44 695.226761 48.44 
L 613.833011 48.44 
Q 611.833011 48.44 611.833011 50.44 
L 611.833011 78.79625 
Q 611.833011 80.79625 613.833011 80.79625 
z
" style="fill: #ffffff; opacity: 0.8; stroke: #cccccc; stroke-linejoin: miter"/>
    </g>
    <g id="line2d_15">
     <path d="M 615.833011 56.538437 
L 625.833011 56.538437 
L 635.833011 56.538437 
" style="fill: none; stroke: #1f77b4; stroke-width: 1.5; stroke-linecap: square"/>
    </g>
    <g id="text_14">
     <!-- observed -->
     <g transform="translate(643.833011 60.038437) scale(0.1 -0.1)">
      <defs>
       <path id="DejaVuSans-62" d="M 3116 1747 
Q 3116 2381 2855 2742 
Q 2594 3103 2138 3103 
Q 1681 3103 1420 2742 
Q 1159 2381 1159 1747 
Q 1159 1113 1420 752 
Q 1681 391 2138 391 
Q 2594 391 2855 752 
Q 3116 1113 3116 1747 
z
M 1159 2969 
Q 1341 3281 1617 3432 
Q 1894 3584 2278 3584 
Q 2916 3584 3314 3078 
Q 3713 2572 3713 1747 
Q 3713 922 3314 415 
Q 2916 -91 2278 -91 
Q 1894 -91 1617 61 
Q 1341 213 1159 525 
L 1159 0 
L 581 0 
L 581 4863 
L 1159 4863 
L 1159 2969 
z
" transform="scale(0.015625)"/>
       <path id="DejaVuSans-65" d="M 3597 1894 
L 3597 1613 
L 953 1613 
Q 991 1019 1311 708 
Q 1631 397 2203 397 
Q 2534 397 2845 478 
Q 3156 559 3463 722 
L 3463 178 
Q 3153 47 2828 -22 
Q 2503 -91 2169 -91 
Q 1331 -91 842 396 
Q 353 884 353 1716 
Q 353 2575 817 3079 
Q 1281 3584 2069 3584 
Q 2775 3584 3186 3129 
Q 3597 2675 3597 1894 
z
M 3022 2063 
Q 3016 2534 2758 2815 
Q 2500 3097 2075 3097 
Q 1594 3097 1305 2825 
Q 1016 2553 972 2059 
L 3022 2063 
z
" transform="scale(0.015625)"/>
       <path id="DejaVuSans-76" d="M 191 3500 
L 800 3500 
L 1894 563 
L 2988 3500 
L 3597 3500 
L 2284 0 
L 1503 0 
L 191 3500 
z
" transform="scale(0.015625)"/>
       <path id="DejaVuSans-64" d="M 2906 2969 
L 2906 4863 
L 3481 4863 
L 3481 0 
L 2906 0 
L 2906 525 
Q 2725 213 2448 61 
Q 2172 -91 1784 -91 
Q 1150 -91 751 415 
Q 353 922 353 1747 
Q 353 2572 751 3078 
Q 1150 3584 1784 3584 
Q 2172 3584 2448 3432 
Q 2725 3281 2906 2969 
z
M 947 1747 
Q 947 1113 1208 752 
Q 1469 391 1925 391 
Q 2381 391 2643 752 
Q 2906 1113 2906 1747 
Q 2906 2381 2643 2742 
Q 2381 3103 1925 3103 
Q 1469 3103 1208 2742 
Q 947 2381 947 1747 
z
" transform="scale(0.015625)"/>
      </defs>
      <use xlink:href="#DejaVuSans-6f"/>
      <use xlink:href="#DejaVuSans-62" x="61.181641"/>
      <use xlink:href="#DejaVuSans-73" x="124.658203"/>
      <use xlink:href="#DejaVuSans-65" x="176.757812"/>
      <use xlink:href="#DejaVuSans-72" x="238.28125"/>
      <use xlink:href="#DejaVuSans-76" x="279.394531"/>
      <use xlink:href="#DejaVuSans-65" x="338.574219"/>
      <use xlink:href="#DejaVuSans-64" x="400.097656"/>
     </g>
    </g>
    <g id="line2d_16">
     <path d="M 615.833011 71.216563 
L 625.833011 71.216563 
L 635.833011 71.216563 
" style="fill: none; stroke: #ff7f0e; stroke-width: 1.5; stroke-linecap: square"/>
    </g>
    <g id="text_15">
     <!-- simulated -->
     <g transform="translate(643.833011 74.716563) scale(0.1 -0.1)">
      <defs>
       <path id="DejaVuSans-75" d="M 544 1381 
L 544 3500 
L 1119 3500 
L 1119 1403 
Q 1119 906 1312 657 
Q 1506 409 1894 409 
Q 2359 409 2629 706 
Q 2900 1003 2900 1516 
L 2900 3500 
L 3475 3500 
L 3475 0 
L 2900 0 
L 2900 538 
Q 2691 219 2414 64 
Q 2138 -91 1772 -91 
Q 1169 -91 856 284 
Q 544 659 544 1381 
z
M 1991 3584 
L 1991 3584 
z
" transform="scale(0.015625)"/>
       <path id="DejaVuSans-6c" d="M 603 4863 
L 1178 4863 
L 1178 0 
L 603 0 
L 603 4863 
z
" transform="scale(0.015625)"/>
      </defs>
      <use xlink:href="#DejaVuSans-73"/>
      <use xlink:href="#DejaVuSans-69" x="52.099609"/>
      <use xlink:href="#DejaVuSans-6d" x="79.882812"/>
      <use xlink:href="#DejaVuSans-75" x="177.294922"/>
      <use xlink:href="#DejaVuSans-6c" x="240.673828"/>
      <use xlink:href="#DejaVuSans-61" x="268.457031"/>
      <use xlink:href="#DejaVuSans-74" x="329.736328"/>
      <use xlink:href="#DejaVuSans-65" x="368.945312"/>
      <use xlink:href="#DejaVuSans-64" x="430.46875"/>
     </g>
    </g>
   </g>
  </g>
  <g id="axes_2">
   <g id="patch_8">
    <path d="M 30.103125 684.92 
L 702.226761 684.92 
L 702.226761 386.16 
L 30.103125 386.16 
z
" style="fill: #ffffff"/>
   </g>
   <g id="matplotlib.axis_3">
    <g id="xtick_7">
     <g id="line2d_17">
      <g>
       <use xlink:href="#m33cae1b3e8" x="60.484424" y="684.92" style="stroke: #000000; stroke-width: 0.8"/>
      </g>
     </g>
     <g id="text_16">
      <!-- 2014-07-01 -->
      <g transform="translate(31.426612 699.518437) scale(0.1 -0.1)">
       <use xlink:href="#DejaVuSans-32"/>
       <use xlink:href="#DejaVuSans-30" x="63.623047"/>
       <use xlink:href="#DejaVuSans-31" x="127.246094"/>
       <use xlink:href="#DejaVuSans-34" x="190.869141"/>
       <use xlink:href="#DejaVuSans-2d" x="254.492188"/>
       <use xlink:href="#DejaVuSans-30" x="290.576172"/>
       <use xlink:href="#DejaVuSans-37" x="354.199219"/>
       <use xlink:href="#DejaVuSans-2d" x="417.822266"/>
       <use xlink:href="#DejaVuSans-30" x="453.90625"/>
       <use xlink:href="#DejaVuSans-31" x="517.529297"/>
      </g>
     </g>
    </g>
    <g id="xtick_8">
     <g id="line2d_18">
      <g>
       <use xlink:href="#m33cae1b3e8" x="182.722677" y="684.92" style="stroke: #000000; stroke-width: 0.8"/>
      </g>
     </g>
     <g id="text_17">
      <!-- 2014-07-02 -->
      <g transform="translate(153.664864 699.518437) scale(0.1 -0.1)">
       <use xlink:href="#DejaVuSans-32"/>
       <use xlink:href="#DejaVuSans-30" x="63.623047"/>
       <use xlink:href="#DejaVuSans-31" x="127.246094"/>
       <use xlink:href="#DejaVuSans-34" x="190.869141"/>
       <use xlink:href="#DejaVuSans-2d" x="254.492188"/>
       <use xlink:href="#DejaVuSans-30" x="290.576172"/>
       <use xlink:href="#DejaVuSans-37" x="354.199219"/>
       <use xlink:href="#DejaVuSans-2d" x="417.822266"/>
       <use xlink:href="#DejaVuSans-30" x="453.90625"/>
       <use xlink:href="#DejaVuSans-32" x="517.529297"/>
      </g>
     </g>
    </g>
    <g id="xtick_9">
     <g id="line2d_19">
      <g>
       <use xlink:href="#m33cae1b3e8" x="304.960929" y="684.92" style="stroke: #000000; stroke-width: 0.8"/>
      </g>
     </g>
     <g id="text_18">
      <!-- 2014-07-03 -->
      <g transform="translate(275.903117 699.518437) scale(0.1 -0.1)">
       <use xlink:href="#DejaVuSans-32"/>
       <use xlink:href="#DejaVuSans-30" x="63.623047"/>
       <use xlink:href="#DejaVuSans-31" x="127.246094"/>
       <use xlink:href="#DejaVuSans-34" x="190.869141"/>
       <use xlink:href="#DejaVuSans-2d" x="254.492188"/>
       <use xlink:href="#DejaVuSans-30" x="290.576172"/>
       <use xlink:href="#DejaVuSans-37" x="354.199219"/>
       <use xlink:href="#DejaVuSans-2d" x="417.822266"/>
       <use xlink:href="#DejaVuSans-30" x="453.90625"/>
       <use xlink:href="#DejaVuSans-33" x="517.529297"/>
      </g>
     </g>
    </g>
    <g id="xtick_10">
     <g id="line2d_20">
      <g>
       <use xlink:href="#m33cae1b3e8" x="427.199182" y="684.92" style="stroke: #000000; stroke-width: 0.8"/>
      </g>
     </g>
     <g id="text_19">
      <!-- 2014-07-04 -->
      <g transform="translate(398.141369 699.518437) scale(0.1 -0.1)">
       <use xlink:href="#DejaVuSans-32"/>
       <use xlink:href="#DejaVuSans-30" x="63.623047"/>
       <use xlink:href="#DejaVuSans-31" x="127.246094"/>
       <use xlink:href="#DejaVuSans-34" x="190.869141"/>
       <use xlink:href="#DejaVuSans-2d" x="254.492188"/>
       <use xlink:href="#DejaVuSans-30" x="290.576172"/>
       <use xlink:href="#DejaVuSans-37" x="354.199219"/>
       <use xlink:href="#DejaVuSans-2d" x="417.822266"/>
       <use xlink:href="#DejaVuSans-30" x="453.90625"/>
       <use xlink:href="#DejaVuSans-34" x="517.529297"/>
      </g>
     </g>
    </g>
    <g id="xtick_11">
     <g id="line2d_21">
      <g>
       <use xlink:href="#m33cae1b3e8" x="549.437434" y="684.92" style="stroke: #000000; stroke-width: 0.8"/>
      </g>
     </g>
     <g id="text_20">
      <!-- 2014-07-05 -->
      <g transform="translate(520.379622 699.518437) scale(0.1 -0.1)">
       <use xlink:href="#DejaVuSans-32"/>
       <use xlink:href="#DejaVuSans-30" x="63.623047"/>
       <use xlink:href="#DejaVuSans-31" x="127.246094"/>
       <use xlink:href="#DejaVuSans-34" x="190.869141"/>
       <use xlink:href="#DejaVuSans-2d" x="254.492188"/>
       <use xlink:href="#DejaVuSans-30" x="290.576172"/>
       <use xlink:href="#DejaVuSans-37" x="354.199219"/>
       <use xlink:href="#DejaVuSans-2d" x="417.822266"/>
       <use xlink:href="#DejaVuSans-30" x="453.90625"/>
       <use xlink:href="#DejaVuSans-35" x="517.529297"/>
      </g>
     </g>
    </g>
    <g id="xtick_12">
     <g id="line2d_22">
      <g>
       <use xlink:href="#m33cae1b3e8" x="671.675687" y="684.92" style="stroke: #000000; stroke-width: 0.8"/>
      </g>
     </g>
     <g id="text_21">
      <!-- 2014-07-06 -->
      <g transform="translate(642.617874 699.518437) scale(0.1 -0.1)">
       <use xlink:href="#DejaVuSans-32"/>
       <use xlink:href="#DejaVuSans-30" x="63.623047"/>
       <use xlink:href="#DejaVuSans-31" x="127.246094"/>
       <use xlink:href="#DejaVuSans-34" x="190.869141"/>
       <use xlink:href="#DejaVuSans-2d" x="254.492188"/>
       <use xlink:href="#DejaVuSans-30" x="290.576172"/>
       <use xlink:href="#DejaVuSans-37" x="354.199219"/>
       <use xlink:href="#DejaVuSans-2d" x="417.822266"/>
       <use xlink:href="#DejaVuSans-30" x="453.90625"/>
       <use xlink:href="#DejaVuSans-36" x="517.529297"/>
      </g>
     </g>
    </g>
   </g>
   <g id="matplotlib.axis_4">
    <g id="ytick_7">
     <g id="line2d_23">
      <g>
       <use xlink:href="#m5d191b5582" x="30.103125" y="671.339567" style="stroke: #000000; stroke-width: 0.8"/>
      </g>
     </g>
     <g id="text_22">
      <!-- 0.0 -->
      <g transform="translate(7.2 675.138785) scale(0.1 -0.1)">
       <use xlink:href="#DejaVuSans-30"/>
       <use xlink:href="#DejaVuSans-2e" x="63.623047"/>
       <use xlink:href="#DejaVuSans-30" x="95.410156"/>
      </g>
     </g>
    </g>
    <g id="ytick_8">
     <g id="line2d_24">
      <g>
       <use xlink:href="#m5d191b5582" x="30.103125" y="617.457064" style="stroke: #000000; stroke-width: 0.8"/>
      </g>
     </g>
     <g id="text_23">
      <!-- 0.5 -->
      <g transform="translate(7.2 621.256283) scale(0.1 -0.1)">
       <use xlink:href="#DejaVuSans-30"/>
       <use xlink:href="#DejaVuSans-2e" x="63.623047"/>
       <use xlink:href="#DejaVuSans-35" x="95.410156"/>
      </g>
     </g>
    </g>
    <g id="ytick_9">
     <g id="line2d_25">
      <g>
       <use xlink:href="#m5d191b5582" x="30.103125" y="563.574562" style="stroke: #000000; stroke-width: 0.8"/>
      </g>
     </g>
     <g id="text_24">
      <!-- 1.0 -->
      <g transform="translate(7.2 567.373781) scale(0.1 -0.1)">
       <use xlink:href="#DejaVuSans-31"/>
       <use xlink:href="#DejaVuSans-2e" x="63.623047"/>
       <use xlink:href="#DejaVuSans-30" x="95.410156"/>
      </g>
     </g>
    </g>
    <g id="ytick_10">
     <g id="line2d_26">
      <g>
       <use xlink:href="#m5d191b5582" x="30.103125" y="509.69206" style="stroke: #000000; stroke-width: 0.8"/>
      </g>
     </g>
     <g id="text_25">
      <!-- 1.5 -->
      <g transform="translate(7.2 513.491278) scale(0.1 -0.1)">
       <use xlink:href="#DejaVuSans-31"/>
       <use xlink:href="#DejaVuSans-2e" x="63.623047"/>
       <use xlink:href="#DejaVuSans-35" x="95.410156"/>
      </g>
     </g>
    </g>
    <g id="ytick_11">
     <g id="line2d_27">
      <g>
       <use xlink:href="#m5d191b5582" x="30.103125" y="455.809557" style="stroke: #000000; stroke-width: 0.8"/>
      </g>
     </g>
     <g id="text_26">
      <!-- 2.0 -->
      <g transform="translate(7.2 459.608776) scale(0.1 -0.1)">
       <use xlink:href="#DejaVuSans-32"/>
       <use xlink:href="#DejaVuSans-2e" x="63.623047"/>
       <use xlink:href="#DejaVuSans-30" x="95.410156"/>
      </g>
     </g>
    </g>
    <g id="ytick_12">
     <g id="line2d_28">
      <g>
       <use xlink:href="#m5d191b5582" x="30.103125" y="401.927055" style="stroke: #000000; stroke-width: 0.8"/>
      </g>
     </g>
     <g id="text_27">
      <!-- 2.5 -->
      <g transform="translate(7.2 405.726274) scale(0.1 -0.1)">
       <use xlink:href="#DejaVuSans-32"/>
       <use xlink:href="#DejaVuSans-2e" x="63.623047"/>
       <use xlink:href="#DejaVuSans-35" x="95.410156"/>
      </g>
     </g>
    </g>
   </g>
   <g id="line2d_29">
    <path d="M 60.654199 671.339404 
L 64.049706 671.23375 
L 65.323022 671.007068 
L 66.426561 670.621519 
L 67.530101 669.946079 
L 68.29409 669.063276 
L 69.227855 668.166355 
L 69.906956 667.785355 
L 70.50117 667.695525 
L 71.010496 667.828421 
L 72.793137 668.49929 
L 75.000217 669.013544 
L 76.103756 669.063437 
L 76.782858 668.87399 
L 77.207296 668.413484 
L 77.631734 667.664256 
L 77.971285 666.529677 
L 78.310836 664.656902 
L 78.90505 659.816417 
L 79.499263 655.327616 
L 79.923702 653.367303 
L 81.281905 648.394589 
L 82.130781 643.958175 
L 83.99831 638.543055 
L 84.337861 636.999778 
L 84.932075 633.74548 
L 87.988031 619.344068 
L 89.261346 616.569031 
L 89.431121 615.106119 
L 90.025335 609.422769 
L 90.279998 608.748123 
L 90.449773 608.897317 
L 91.213763 610.376352 
L 91.553313 610.402385 
L 91.892864 610.205197 
L 92.656853 609.262302 
L 92.911516 608.860011 
L 93.420842 601.671175 
L 93.590617 597.861435 
L 94.099943 582.052692 
L 94.439494 575.902008 
L 94.779045 567.369149 
L 94.94882 563.969762 
L 95.288371 555.215363 
L 95.373259 554.969454 
L 95.543034 552.411736 
L 95.882585 546.724243 
L 95.967472 546.777877 
L 96.05236 546.309876 
L 96.476798 540.992544 
L 96.561686 541.202599 
L 96.646574 540.855831 
L 97.071012 536.851356 
L 97.240787 537.298314 
L 97.325675 537.133146 
L 97.495451 535.685245 
L 97.665226 534.036745 
L 97.750114 533.813651 
L 97.919889 530.549012 
L 98.004777 531.531956 
L 98.174552 524.763807 
L 98.25944 526.125648 
L 98.344327 525.999174 
L 98.429215 519.039636 
L 98.514103 520.366085 
L 98.59899 523.271727 
L 98.768766 513.989899 
L 98.853653 519.217022 
L 99.023429 508.287362 
L 99.108316 515.941591 
L 99.278092 502.977584 
L 99.362979 512.344366 
L 99.532755 498.678486 
L 99.617642 509.174869 
L 99.787418 494.111317 
L 99.872305 505.552297 
L 100.042081 490.466843 
L 100.126968 502.336475 
L 100.296744 488.471665 
L 100.381631 500.025823 
L 100.551407 486.178625 
L 100.636294 497.826166 
L 100.80607 484.515827 
L 100.890958 495.54745 
L 101.060733 483.017927 
L 101.145621 492.887808 
L 101.315396 480.719287 
L 101.400284 490.317732 
L 101.570059 479.363921 
L 101.654947 487.72028 
L 101.824722 477.768695 
L 101.90961 485.148303 
L 102.079385 475.851162 
L 102.164273 482.940758 
L 102.334048 474.685886 
L 102.418936 480.853842 
L 102.588711 472.145473 
L 102.673599 479.202606 
L 102.843374 470.766752 
L 102.928262 477.494716 
L 103.098037 469.676564 
L 103.182925 475.834037 
L 103.3527 467.987983 
L 103.437588 474.447338 
L 103.607363 466.928396 
L 103.692251 472.158474 
L 103.862026 464.26075 
L 103.946914 470.349597 
L 104.116689 462.204243 
L 104.201577 468.094854 
L 104.371352 459.874475 
L 104.45624 465.475986 
L 104.626015 457.432814 
L 104.710903 462.429097 
L 104.880678 453.774529 
L 104.965566 459.060207 
L 105.135341 450.833482 
L 105.220229 454.815796 
L 105.390004 445.848748 
L 105.474892 448.999374 
L 105.644667 439.25873 
L 105.729555 442.075268 
L 105.89933 430.90801 
L 105.984218 430.363469 
L 106.153993 416.781746 
L 106.238881 414.879449 
L 106.408656 404.915506 
L 106.493544 406.224316 
L 106.578432 399.748248 
L 106.748207 405.704183 
L 106.833095 399.74 
L 107.00287 408.42599 
L 107.087758 402.662008 
L 107.257533 411.355218 
L 107.342421 406.409333 
L 107.427309 415.986363 
L 107.512196 413.175143 
L 107.597084 410.31873 
L 107.681972 420.491713 
L 107.851747 414.711236 
L 107.936635 423.739999 
L 108.021522 417.575974 
L 108.10641 418.17239 
L 108.191298 425.701031 
L 108.276185 417.411563 
L 108.445961 426.644356 
L 108.530848 417.308739 
L 108.700624 426.991316 
L 108.785511 417.921547 
L 108.955287 425.910507 
L 109.040174 418.618372 
L 109.125062 426.394233 
L 109.20995 424.862637 
L 109.294837 419.271056 
L 109.379725 426.206955 
L 109.5495 419.436417 
L 109.634388 426.856787 
L 109.804163 420.284061 
L 109.889051 426.640245 
L 110.058826 420.777498 
L 110.143714 426.633333 
L 110.313489 420.050124 
L 110.398377 426.502735 
L 110.483265 420.245572 
L 110.568153 420.742658 
L 110.65304 426.510392 
L 110.737928 420.246883 
L 110.822816 421.251743 
L 110.907703 426.484698 
L 110.992591 420.289019 
L 111.077479 422.069891 
L 111.162366 426.368771 
L 111.247254 419.840134 
L 111.417029 426.484416 
L 111.501917 420.064924 
L 111.671692 426.507385 
L 111.75658 420.036918 
L 111.926355 426.444951 
L 112.011243 420.185476 
L 112.181018 426.478429 
L 112.265906 420.454817 
L 112.435681 427.125049 
L 112.520569 420.891345 
L 112.605457 427.218084 
L 112.690344 427.204596 
L 112.775232 421.518952 
L 112.86012 427.888471 
L 112.945007 426.459314 
L 113.029895 422.344448 
L 113.114783 428.748293 
L 113.19967 427.080575 
L 113.284558 423.461947 
L 113.369446 429.865921 
L 113.454333 427.900059 
L 113.539221 424.368762 
L 113.624109 431.011451 
L 113.793884 425.288527 
L 113.878772 432.187736 
L 114.048547 426.53295 
L 114.133435 433.344674 
L 114.30321 427.488659 
L 114.388098 434.077881 
L 114.472986 427.864062 
L 114.557873 429.326467 
L 114.642761 435.110721 
L 114.727649 429.067043 
L 114.812536 430.877872 
L 114.897424 435.830669 
L 114.982312 429.526462 
L 115.152087 436.404938 
L 115.236975 430.559071 
L 115.40675 437.580914 
L 115.491638 431.227968 
L 115.661413 438.461343 
L 115.746301 431.781758 
L 115.916076 439.011613 
L 116.000964 432.276403 
L 116.170739 439.86992 
L 116.255627 433.030473 
L 116.425402 440.251977 
L 116.51029 434.104525 
L 116.680065 440.989217 
L 116.764953 434.899035 
L 116.934728 441.338491 
L 117.019616 435.766514 
L 117.104504 442.562719 
L 117.189391 441.918103 
L 117.274279 436.66002 
L 117.359167 443.505196 
L 117.444054 443.427577 
L 117.528942 437.687207 
L 117.61383 444.57059 
L 117.698717 442.700126 
L 117.783605 438.722385 
L 117.868493 445.632592 
L 117.95338 443.53184 
L 118.038268 439.71648 
L 118.123156 447.248076 
L 118.292931 440.700606 
L 118.377819 447.842488 
L 118.547594 441.912065 
L 118.632482 448.838535 
L 118.802257 443.004 
L 118.887145 449.856807 
L 119.05692 443.942777 
L 119.141808 450.916779 
L 119.311583 445.379462 
L 119.396471 451.905247 
L 119.566246 446.281576 
L 119.651134 453.078732 
L 119.820909 447.308815 
L 119.905797 453.806388 
L 119.990684 447.274745 
L 120.075572 448.675872 
L 120.16046 454.650949 
L 120.245348 448.687562 
L 120.330235 449.7963 
L 120.415123 455.5517 
L 120.500011 449.218152 
L 120.584898 451.05637 
L 120.669786 456.474587 
L 120.754674 449.978593 
L 120.839561 452.172328 
L 120.924449 457.461603 
L 121.009337 450.641503 
L 121.179112 458.125142 
L 121.264 451.181804 
L 121.433775 458.837267 
L 121.518663 451.94926 
L 121.688438 459.740215 
L 121.773326 452.400124 
L 121.943101 460.108681 
L 122.027989 452.913139 
L 122.197764 460.186917 
L 122.282652 452.976756 
L 122.452427 459.799284 
L 122.537315 453.434762 
L 122.70709 460.74442 
L 122.791978 454.016148 
L 122.961753 460.34818 
L 123.046641 454.61336 
L 123.216416 461.903286 
L 123.301304 455.341068 
L 123.471079 462.592364 
L 123.555967 456.245378 
L 123.725742 463.515404 
L 123.81063 457.074227 
L 123.980405 464.435644 
L 124.065293 457.882714 
L 124.235068 464.944061 
L 124.319956 458.537081 
L 124.489731 465.493933 
L 124.574619 459.493265 
L 124.744394 466.819675 
L 124.829282 460.357147 
L 124.999057 467.114363 
L 125.083945 461.07847 
L 125.25372 468.407938 
L 125.338608 461.73741 
L 125.508383 468.676496 
L 125.593271 462.405369 
L 125.763046 469.354577 
L 125.847934 463.255466 
L 125.932822 469.920482 
L 126.017709 469.354128 
L 126.102597 463.883266 
L 126.187485 470.575659 
L 126.272372 470.5457 
L 126.35726 464.733967 
L 126.442148 471.254665 
L 126.527035 471.145816 
L 126.611923 465.459633 
L 126.781699 471.940968 
L 126.866586 466.078736 
L 127.036362 472.709888 
L 127.121249 466.69455 
L 127.291025 473.424711 
L 127.375912 467.204007 
L 127.545688 474.322379 
L 127.630575 467.850511 
L 127.800351 474.934635 
L 127.885238 468.418986 
L 128.055014 475.722812 
L 128.139901 468.926323 
L 128.309677 476.302835 
L 128.394564 469.599421 
L 128.56434 476.939474 
L 128.649227 470.192214 
L 128.819003 477.882182 
L 128.90389 470.756102 
L 129.073666 478.553198 
L 129.158553 471.434517 
L 129.328329 479.203492 
L 129.413216 472.067636 
L 129.582992 479.718756 
L 129.667879 472.425478 
L 129.837655 479.936622 
L 129.922543 473.000465 
L 130.092318 480.628706 
L 130.177206 473.256523 
L 130.346981 481.206417 
L 130.431869 474.165214 
L 130.601644 481.963377 
L 130.686532 474.905897 
L 130.856307 482.974442 
L 130.941195 475.747734 
L 131.11097 483.530005 
L 131.195858 476.312714 
L 131.365633 484.20941 
L 131.450521 477.015436 
L 131.535408 478.762585 
L 131.620296 484.724944 
L 131.705184 477.639446 
L 131.790071 479.103006 
L 131.874959 485.161574 
L 131.959847 478.218069 
L 132.044734 479.343032 
L 132.129622 485.657246 
L 132.21451 478.869879 
L 132.299397 479.546355 
L 132.384285 486.115022 
L 132.55406 479.702261 
L 132.638948 486.704115 
L 132.808723 480.494498 
L 132.893611 487.167132 
L 133.063387 480.371787 
L 133.148274 487.895187 
L 133.31805 480.676277 
L 133.402937 488.250922 
L 133.572713 480.763287 
L 133.6576 488.756859 
L 133.827376 481.25332 
L 133.912263 489.160126 
L 134.082039 481.343786 
L 134.166926 489.315467 
L 134.336702 481.757305 
L 134.421589 489.702368 
L 134.506477 487.422959 
L 134.591365 482.114491 
L 134.676252 489.749695 
L 134.76114 488.309451 
L 134.846028 482.453949 
L 134.930915 489.711193 
L 135.015803 489.297559 
L 135.100691 482.617371 
L 135.185578 490.404216 
L 135.270466 490.175238 
L 135.355354 483.350307 
L 135.525129 491.093743 
L 135.610017 483.850181 
L 135.779792 492.110204 
L 135.86468 484.445415 
L 136.034455 492.965594 
L 136.119343 485.086087 
L 136.289118 493.938942 
L 136.374006 485.82316 
L 136.543781 494.740184 
L 136.628669 486.651328 
L 136.798444 495.655914 
L 136.883332 487.558439 
L 136.96822 489.821019 
L 137.053107 496.443629 
L 137.137995 488.888613 
L 137.222883 490.283663 
L 137.30777 497.093435 
L 137.392658 489.443612 
L 137.477546 490.354114 
L 137.562433 497.893623 
L 137.732209 490.148427 
L 137.817096 498.205102 
L 137.986872 490.259383 
L 138.071759 498.594161 
L 138.241535 489.950744 
L 138.326422 498.92383 
L 138.496198 490.2109 
L 138.581085 499.096269 
L 138.750861 490.431348 
L 138.835748 499.238982 
L 138.920636 496.65394 
L 139.005524 490.764948 
L 139.090411 499.283817 
L 139.175299 498.035604 
L 139.260187 491.251024 
L 139.429962 499.509069 
L 139.51485 491.881265 
L 139.684625 500.646082 
L 139.769513 492.623348 
L 139.939288 502.540838 
L 140.024176 493.702629 
L 140.193951 504.005054 
L 140.278839 494.894034 
L 140.448614 505.151008 
L 140.533502 496.001089 
L 140.703277 506.41835 
L 140.788165 497.865117 
L 140.873053 498.91178 
L 140.95794 507.434528 
L 141.127716 499.067763 
L 141.212603 507.737605 
L 141.382379 498.813619 
L 141.467266 508.3907 
L 141.637042 498.9005 
L 141.721929 508.341176 
L 141.806817 505.649315 
L 141.891705 499.317655 
L 141.976592 508.757457 
L 142.06148 508.125765 
L 142.146368 499.972869 
L 142.316143 509.88666 
L 142.401031 500.88729 
L 142.570806 511.662829 
L 142.655694 502.151625 
L 142.825469 513.224011 
L 142.910357 503.959436 
L 142.995245 505.959444 
L 143.080132 514.199517 
L 143.249908 505.635453 
L 143.334795 514.782174 
L 143.504571 505.340611 
L 143.589458 514.851777 
L 143.759234 505.299926 
L 143.844121 514.377172 
L 143.929009 513.805293 
L 144.013897 505.927045 
L 144.183672 516.677585 
L 144.26856 507.279085 
L 144.438335 518.11923 
L 144.523223 509.026195 
L 144.60811 511.183382 
L 144.692998 519.387111 
L 144.862773 510.786242 
L 144.947661 519.819938 
L 145.117436 510.523979 
L 145.202324 520.448021 
L 145.287212 517.980512 
L 145.372099 510.794181 
L 145.541875 520.284946 
L 145.626762 511.919568 
L 145.796538 522.765764 
L 145.881425 514.039217 
L 145.966313 515.899467 
L 146.051201 524.039054 
L 146.220976 515.268237 
L 146.305864 524.083824 
L 146.475639 515.076142 
L 146.645415 523.598814 
L 146.730302 516.13086 
L 146.900078 525.910301 
L 146.984965 518.439457 
L 147.069853 520.574264 
L 147.154741 527.131549 
L 147.324516 519.786203 
L 147.409404 527.207138 
L 147.579179 519.860688 
L 147.748954 527.398732 
L 147.833842 521.282587 
L 148.003617 529.279242 
L 148.173393 523.574071 
L 148.25828 529.57578 
L 148.428056 523.466828 
L 148.597831 529.596951 
L 148.682719 524.675641 
L 148.852494 531.131142 
L 149.022269 526.417831 
L 149.107157 531.28128 
L 149.276933 526.603606 
L 149.446708 531.902053 
L 149.531596 528.121777 
L 149.616483 529.370697 
L 149.701371 532.896508 
L 149.871146 529.068095 
L 150.040922 532.856657 
L 150.125809 530.152951 
L 150.295585 534.244475 
L 150.46536 531.928568 
L 150.550248 534.624425 
L 150.635135 534.346476 
L 150.720023 532.904819 
L 150.889798 535.749838 
L 150.974686 534.599593 
L 151.144461 536.446753 
L 151.229349 536.244444 
L 151.314237 536.080509 
L 151.484012 537.135715 
L 151.5689 537.094914 
L 151.823563 537.698717 
L 153.521316 540.108724 
L 156.916823 544.312617 
L 157.7657 545.371702 
L 160.142555 548.067238 
L 161.246095 549.218601 
L 162.689185 551.106934 
L 163.877613 552.545456 
L 165.660254 554.317875 
L 168.037109 557.054108 
L 168.801098 557.722337 
L 169.140649 557.984381 
L 170.159301 559.177418 
L 171.857054 561.484717 
L 172.536156 562.198949 
L 173.724583 563.675241 
L 175.846775 566.054339 
L 176.865427 567.081026 
L 178.22363 568.348689 
L 181.704025 572.290928 
L 183.486666 573.550048 
L 186.96706 576.197447 
L 187.731049 576.914557 
L 188.0706 577.136739 
L 193.92785 582.057818 
L 194.352288 582.212092 
L 194.946502 582.501102 
L 196.644255 583.859661 
L 196.983806 584.039648 
L 197.917571 584.407028 
L 198.596672 584.868022 
L 199.785099 586.058181 
L 202.501505 588.599288 
L 207.849429 593.454014 
L 207.934316 593.294723 
L 208.188979 592.446508 
L 208.443642 592.163029 
L 209.547182 584.583553 
L 209.63207 584.605393 
L 209.886733 583.924478 
L 210.056508 583.639143 
L 210.226283 583.739436 
L 210.311171 583.888636 
L 210.396059 583.820312 
L 210.73561 583.282515 
L 210.990273 583.185453 
L 211.414711 582.269542 
L 211.499599 582.239982 
L 212.518251 580.47973 
L 212.772914 580.337004 
L 213.112464 579.836726 
L 213.706678 579.374287 
L 214.300892 578.610262 
L 214.895106 577.544066 
L 215.743982 575.944806 
L 216.338196 574.800612 
L 217.102185 573.554878 
L 217.441736 572.989667 
L 218.205725 571.880582 
L 218.884826 570.095536 
L 219.309265 568.53014 
L 219.563928 567.524618 
L 219.988366 565.205366 
L 220.073254 564.895737 
L 220.752355 557.492241 
L 221.431457 540.110407 
L 221.601232 541.214096 
L 222.365221 549.175847 
L 222.789659 551.331158 
L 223.12921 552.03474 
L 223.383873 552.070505 
L 223.723424 551.826189 
L 224.147862 551.019898 
L 224.826964 549.290465 
L 225.590953 547.391674 
L 226.270054 546.17297 
L 226.864268 545.443078 
L 227.458482 545.029803 
L 228.137583 544.818888 
L 228.901572 544.818759 
L 229.750449 545.044615 
L 230.599326 545.484855 
L 231.617978 546.280701 
L 233.061068 547.874745 
L 233.825057 548.941513 
L 236.117024 552.522872 
L 240.785847 560.250892 
L 241.549836 561.17672 
L 241.889386 561.544955 
L 243.417365 563.651442 
L 244.860455 565.759992 
L 245.369781 566.255189 
L 249.699053 570.323788 
L 252.670121 572.831686 
L 256.235404 576.701169 
L 256.574954 576.915546 
L 260.564675 580.055291 
L 262.177541 581.357338 
L 263.535744 582.551904 
L 264.38462 583.254041 
L 265.573048 584.239901 
L 267.101026 585.064331 
L 267.949903 585.422751 
L 269.647656 586.404423 
L 269.987207 586.432024 
L 270.24187 586.4594 
L 270.496533 586.38453 
L 271.090747 586.521108 
L 271.939623 587.223239 
L 273.297826 588.390159 
L 274.231591 588.745444 
L 274.656029 588.819517 
L 276.353783 588.707579 
L 276.778221 588.945953 
L 278.136424 589.840057 
L 278.985301 590.180029 
L 279.494627 590.197577 
L 279.834177 590.157592 
L 280.598166 590.291736 
L 282.465695 590.691548 
L 282.805246 590.640855 
L 283.908786 590.869139 
L 284.927438 591.578072 
L 286.625191 592.736526 
L 291.378901 595.632314 
L 292.652216 596.369137 
L 295.45351 598.010783 
L 299.952556 601.273901 
L 303.348063 603.641938 
L 304.536491 603.980285 
L 306.40402 603.855243 
L 306.74357 603.774823 
L 306.913346 603.728145 
L 307.252896 603.53535 
L 307.507559 603.462953 
L 307.84711 603.240553 
L 308.186661 603.1077 
L 308.526212 602.605443 
L 308.780875 602.231755 
L 309.205313 601.360673 
L 309.375088 601.063795 
L 309.714639 600.329561 
L 311.49728 598.118194 
L 311.921719 597.609077 
L 312.261269 597.144666 
L 312.431045 596.925792 
L 312.770595 596.291665 
L 313.110146 595.739641 
L 313.449697 595.233036 
L 313.619472 594.994738 
L 314.04391 594.257125 
L 314.298574 594.016856 
L 314.638124 593.453623 
L 315.487001 592.235226 
L 315.741664 591.828497 
L 316.590541 590.986653 
L 317.609193 585.401175 
L 317.863856 585.687159 
L 318.45807 586.54366 
L 318.882508 586.685814 
L 319.306946 586.603641 
L 319.986048 586.140971 
L 321.0047 585.193895 
L 322.10824 584.127114 
L 323.211779 583.25846 
L 324.315319 582.726271 
L 325.503747 582.471664 
L 326.861949 582.501552 
L 327.965489 582.817925 
L 329.323692 583.440875 
L 331.021446 584.453893 
L 333.143637 586.020901 
L 336.029818 588.657271 
L 338.236898 590.944035 
L 340.613753 593.504797 
L 351.818926 605.437821 
L 355.893534 609.399041 
L 359.543704 612.737902 
L 363.703201 616.351236 
L 367.608034 619.700946 
L 370.154664 621.942772 
L 372.022193 623.265586 
L 374.059497 624.449848 
L 376.436352 625.557408 
L 379.322533 626.664099 
L 382.548265 627.676597 
L 391.631246 630.151759 
L 399.5258 631.943261 
L 406.316814 633.2595 
L 432.37733 637.742433 
L 442.478963 639.04316 
L 459.456498 640.910961 
L 480.338867 642.76148 
L 521.933828 645.986485 
L 545.95704 647.713447 
L 564.802104 648.726894 
L 586.024022 649.581118 
L 611.914763 650.381499 
L 632.882019 650.825349 
L 666.921977 651.328633 
L 671.675687 651.386215 
L 671.675687 651.386215 
" clip-path="url(#p4f5b04915b)" style="fill: none; stroke: #1f77b4; stroke-width: 1.5; stroke-linecap: square"/>
   </g>
   <g id="line2d_30">
    <path d="M 60.654199 671.339466 
L 62.267065 671.240004 
L 68.039427 670.491908 
L 69.482518 670.499038 
L 74.406003 670.666387 
L 75.339767 670.443644 
L 76.69797 669.904772 
L 78.141061 668.930276 
L 80.602803 666.506077 
L 81.197017 665.408362 
L 86.54494 652.903612 
L 87.478705 650.375614 
L 89.431121 646.431878 
L 89.685784 643.840192 
L 90.025335 640.933464 
L 90.364886 639.81534 
L 90.789324 639.306536 
L 91.468426 638.905246 
L 92.996404 638.249706 
L 93.081291 637.848677 
L 93.251067 634.579338 
L 94.779045 594.618108 
L 95.118596 587.109215 
L 95.458146 580.177267 
L 97.240787 552.67162 
L 97.580338 549.471363 
L 98.514103 539.357691 
L 99.108316 532.58105 
L 99.787418 524.622513 
L 102.079385 497.262234 
L 103.3527 484.609482 
L 104.45624 474.62863 
L 105.220229 466.878843 
L 105.474892 463.096679 
L 106.069106 451.216065 
L 106.408656 441.810816 
L 106.663319 439.224465 
L 106.917982 438.226315 
L 107.172646 437.89532 
L 107.597084 437.727635 
L 109.464613 437.563278 
L 110.907703 436.919527 
L 111.417029 436.970443 
L 111.926355 437.266894 
L 112.435681 437.861156 
L 113.029895 438.933794 
L 113.708997 440.611959 
L 114.642761 443.544149 
L 116.170739 449.194656 
L 120.330235 464.694042 
L 121.943101 469.925304 
L 122.537315 470.899879 
L 123.301304 473.165245 
L 126.272372 482.239262 
L 129.243441 490.54573 
L 132.044734 497.571923 
L 135.015803 504.16613 
L 138.41131 510.517553 
L 139.175299 511.866459 
L 140.448614 514.721323 
L 145.456987 526.253636 
L 147.664067 530.878727 
L 148.597831 532.238303 
L 150.295585 534.9835 
L 152.163113 538.076913 
L 157.426149 545.991079 
L 158.190138 547.093941 
L 159.123903 548.470144 
L 160.821656 550.501094 
L 162.774073 553.378979 
L 163.707837 554.651046 
L 164.556714 555.705471 
L 165.235815 556.44226 
L 166.254468 557.881363 
L 167.188232 559.064026 
L 167.952221 559.761089 
L 168.885986 560.635168 
L 169.649975 561.354982 
L 171.941942 564.205301 
L 173.045482 565.442555 
L 174.488572 567.218544 
L 176.525876 569.274451 
L 177.289865 569.892686 
L 178.053854 570.553448 
L 181.8738 574.615894 
L 183.31689 575.776488 
L 184.505318 576.74813 
L 185.52397 577.315821 
L 187.391499 578.823952 
L 188.155488 579.322005 
L 188.664814 579.717181 
L 190.362567 581.254161 
L 191.466107 582.329441 
L 194.012737 584.403124 
L 194.522064 584.590398 
L 195.286053 585.284012 
L 196.814031 586.548645 
L 198.511784 587.60074 
L 205.812124 594.974965 
L 207.849429 596.716636 
L 208.019204 596.659038 
L 208.188979 595.827824 
L 210.396059 580.584894 
L 210.650722 579.538635 
L 211.07516 577.919672 
L 211.839149 575.153194 
L 212.1787 574.194346 
L 212.433363 573.552092 
L 212.857801 572.644529 
L 213.452015 571.509451 
L 213.62179 571.293572 
L 217.102185 564.763057 
L 218.460388 562.713213 
L 219.139489 560.653546 
L 219.563928 559.093358 
L 219.733703 558.274414 
L 220.327917 553.30834 
L 220.922131 541.950382 
L 221.346569 525.721179 
L 221.601232 522.66016 
L 221.855895 521.941057 
L 222.02567 521.921517 
L 222.365221 522.159383 
L 223.468761 523.19457 
L 223.978087 523.348348 
L 224.402525 523.230798 
L 224.826964 522.912484 
L 225.760728 521.856881 
L 226.694492 520.885278 
L 227.203819 520.621108 
L 227.713145 520.61644 
L 228.222471 520.877892 
L 228.816684 521.487631 
L 229.580673 522.651827 
L 230.684213 524.798343 
L 234.843709 533.28109 
L 237.135677 537.14861 
L 238.918318 539.786396 
L 239.767194 540.981233 
L 240.785847 542.278452 
L 242.823151 544.550439 
L 245.709332 548.531188 
L 246.473321 549.4871 
L 247.831524 551.358102 
L 248.765288 552.631151 
L 249.529277 553.429745 
L 250.208379 554.107333 
L 251.311918 555.465712 
L 252.924784 557.329719 
L 254.113212 558.963904 
L 254.792313 559.798419 
L 256.065628 561.414217 
L 257.423831 562.703096 
L 259.206472 564.720494 
L 260.140237 565.479239 
L 260.819338 566.082268 
L 265.827711 571.349611 
L 266.421925 571.7844 
L 268.459229 573.624976 
L 269.13833 574.223539 
L 269.987207 574.731703 
L 271.260522 575.457276 
L 273.552489 577.925258 
L 275.504906 579.117691 
L 276.268895 579.507396 
L 276.947996 580.183339 
L 277.881761 581.094354 
L 278.560862 581.685418 
L 279.070188 582.095212 
L 280.343503 582.72135 
L 281.362155 583.556138 
L 283.39946 584.656352 
L 284.078561 585.287421 
L 291.03935 592.6421 
L 292.397553 593.806165 
L 293.076655 594.059702 
L 294.180194 594.976405 
L 298.085028 598.201146 
L 298.849017 598.717246 
L 302.584074 601.560066 
L 304.112052 602.27957 
L 305.640031 602.644466 
L 306.828458 602.609206 
L 308.101773 602.293995 
L 308.441324 602.044717 
L 310.139077 599.291883 
L 310.903066 597.923589 
L 311.242617 597.494842 
L 311.412393 597.314483 
L 315.402113 590.570085 
L 316.335878 589.496161 
L 316.760316 588.900711 
L 317.014979 586.502281 
L 317.35453 583.888561 
L 317.694081 583.084105 
L 318.033631 582.90255 
L 318.627845 582.946612 
L 320.495374 583.296281 
L 322.193127 583.540022 
L 323.211779 583.998501 
L 324.485095 584.932192 
L 326.013073 586.286155 
L 327.625939 587.895439 
L 331.700547 592.024223 
L 337.303134 596.973475 
L 341.632405 600.40157 
L 346.640778 604.077572 
L 351.988701 607.727913 
L 357.591288 611.281952 
L 363.448538 614.730403 
L 369.475563 618.020949 
L 375.757251 621.198887 
L 382.378489 624.297476 
L 389.254391 627.269172 
L 396.469843 630.144809 
L 404.024846 632.916068 
L 412.004288 635.603974 
L 420.408168 638.196976 
L 429.236486 640.685977 
L 438.57413 643.084922 
L 448.421101 645.383201 
L 458.862285 647.589847 
L 469.98257 649.709464 
L 481.781957 651.729372 
L 494.345333 653.652402 
L 507.757586 655.478828 
L 522.188491 657.216699 
L 537.722935 658.859735 
L 554.445807 660.401681 
L 572.526882 661.843117 
L 592.220823 663.187284 
L 613.782292 664.432615 
L 637.550841 665.578417 
L 663.866021 666.620199 
L 671.675687 666.890402 
L 671.675687 666.890402 
" clip-path="url(#p4f5b04915b)" style="fill: none; stroke: #ff7f0e; stroke-width: 1.5; stroke-linecap: square"/>
   </g>
   <g id="patch_9">
    <path d="M 30.103125 684.92 
L 30.103125 386.16 
" style="fill: none; stroke: #000000; stroke-width: 0.8; stroke-linejoin: miter; stroke-linecap: square"/>
   </g>
   <g id="patch_10">
    <path d="M 702.226761 684.92 
L 702.226761 386.16 
" style="fill: none; stroke: #000000; stroke-width: 0.8; stroke-linejoin: miter; stroke-linecap: square"/>
   </g>
   <g id="patch_11">
    <path d="M 30.103125 684.92 
L 702.226761 684.92 
" style="fill: none; stroke: #000000; stroke-width: 0.8; stroke-linejoin: miter; stroke-linecap: square"/>
   </g>
   <g id="patch_12">
    <path d="M 30.103125 386.16 
L 702.226761 386.16 
" style="fill: none; stroke: #000000; stroke-width: 0.8; stroke-linejoin: miter; stroke-linecap: square"/>
   </g>
   <g id="text_28">
    <!-- 2 transformation(s) -->
    <g transform="translate(308.050256 380.16) scale(0.12 -0.12)">
     <use xlink:href="#DejaVuSans-32"/>
     <use xlink:href="#DejaVuSans-20" x="63.623047"/>
     <use xlink:href="#DejaVuSans-74" x="95.410156"/>
     <use xlink:href="#DejaVuSans-72" x="134.619141"/>
     <use xlink:href="#DejaVuSans-61" x="175.732422"/>
     <use xlink:href="#DejaVuSans-6e" x="237.011719"/>
     <use xlink:href="#DejaVuSans-73" x="300.390625"/>
     <use xlink:href="#DejaVuSans-66" x="352.490234"/>
     <use xlink:href="#DejaVuSans-6f" x="387.695312"/>
     <use xlink:href="#DejaVuSans-72" x="448.876953"/>
     <use xlink:href="#DejaVuSans-6d" x="488.240234"/>
     <use xlink:href="#DejaVuSans-61" x="585.652344"/>
     <use xlink:href="#DejaVuSans-74" x="646.931641"/>
     <use xlink:href="#DejaVuSans-69" x="686.140625"/>
     <use xlink:href="#DejaVuSans-6f" x="713.923828"/>
     <use xlink:href="#DejaVuSans-6e" x="775.105469"/>
     <use xlink:href="#DejaVuSans-28" x="838.484375"/>
     <use xlink:href="#DejaVuSans-73" x="877.498047"/>
     <use xlink:href="#DejaVuSans-29" x="929.597656"/>
    </g>
   </g>
  </g>
  <g id="text_29">
   <!-- training -->
   <g transform="translate(333.219687 16.318125) scale(0.12 -0.12)">
    <defs>
     <path id="DejaVuSans-67" d="M 2906 1791 
Q 2906 2416 2648 2759 
Q 2391 3103 1925 3103 
Q 1463 3103 1205 2759 
Q 947 2416 947 1791 
Q 947 1169 1205 825 
Q 1463 481 1925 481 
Q 2391 481 2648 825 
Q 2906 1169 2906 1791 
z
M 3481 434 
Q 3481 -459 3084 -895 
Q 2688 -1331 1869 -1331 
Q 1566 -1331 1297 -1286 
Q 1028 -1241 775 -1147 
L 775 -588 
Q 1028 -725 1275 -790 
Q 1522 -856 1778 -856 
Q 2344 -856 2625 -561 
Q 2906 -266 2906 331 
L 2906 616 
Q 2728 306 2450 153 
Q 2172 0 1784 0 
Q 1141 0 747 490 
Q 353 981 353 1791 
Q 353 2603 747 3093 
Q 1141 3584 1784 3584 
Q 2172 3584 2450 3431 
Q 2728 3278 2906 2969 
L 2906 3500 
L 3481 3500 
L 3481 434 
z
" transform="scale(0.015625)"/>
    </defs>
    <use xlink:href="#DejaVuSans-74"/>
    <use xlink:href="#DejaVuSans-72" x="39.208984"/>
    <use xlink:href="#DejaVuSans-61" x="80.322266"/>
    <use xlink:href="#DejaVuSans-69" x="141.601562"/>
    <use xlink:href="#DejaVuSans-6e" x="169.384766"/>
    <use xlink:href="#DejaVuSans-69" x="232.763672"/>
    <use xlink:href="#DejaVuSans-6e" x="260.546875"/>
    <use xlink:href="#DejaVuSans-67" x="323.925781"/>
   </g>
  </g>
 </g>
 <defs>
  <clipPath id="p7683e310ee">
   <rect x="30.103125" y="43.44" width="672.123636" height="298.76"/>
  </clipPath>
  <clipPath id="p4f5b04915b">
   <rect x="30.103125" y="386.16" width="672.123636" height="298.76"/>
  </clipPath>
 </defs>
</svg>
