<?xml version="1.0" encoding="utf-8" standalone="no"?>
<!DOCTYPE svg PUBLIC "-//W3C//DTD SVG 1.1//EN"
  "http://www.w3.org/Graphics/SVG/1.1/DTD/svg11.dtd">
<svg xmlns:xlink="http://www.w3.org/1999/xlink" width="709.523636pt" height="708.798125pt" viewBox="0 0 709.523636 708.798125" xmlns="http://www.w3.org/2000/svg" version="1.1">
 <metadata>
  <rdf:RDF xmlns:dc="http://purl.org/dc/elements/1.1/" xmlns:cc="http://creativecommons.org/ns#" xmlns:rdf="http://www.w3.org/1999/02/22-rdf-syntax-ns#">
   <cc:Work>
    <dc:type rdf:resource="http://purl.org/dc/dcmitype/StillImage"/>
    <dc:date>2023-06-12T16:49:42.887352</dc:date>
    <dc:format>image/svg+xml</dc:format>
    <dc:creator>
     <cc:Agent>
      <dc:title>Matplotlib v3.7.1, https://matplotlib.org/</dc:title>
     </cc:Agent>
    </dc:creator>
   </cc:Work>
  </rdf:RDF>
 </metadata>
 <defs>
  <style type="text/css">*{stroke-linejoin: round; stroke-linecap: butt}</style>
 </defs>
 <g id="figure_1">
  <g id="patch_1">
   <path d="M 0 708.798125 
L 709.523636 708.798125 
L 709.523636 0 
L 0 0 
z
" style="fill: #ffffff"/>
  </g>
  <g id="axes_1">
   <g id="patch_2">
    <path d="M 39.65 342.2 
L 702.323636 342.2 
L 702.323636 43.44 
L 39.65 43.44 
z
" style="fill: #ffffff"/>
   </g>
   <g id="matplotlib.axis_1">
    <g id="xtick_1">
     <g id="line2d_1">
      <defs>
       <path id="med2f720da4" d="M 0 0 
L 0 3.5 
" style="stroke: #000000; stroke-width: 0.8"/>
      </defs>
      <g>
       <use xlink:href="#med2f720da4" x="69.604141" y="342.2" style="stroke: #000000; stroke-width: 0.8"/>
      </g>
     </g>
     <g id="text_1">
      <!-- 2014-07-01 -->
      <g transform="translate(40.546328 356.798437) scale(0.1 -0.1)">
       <defs>
        <path id="DejaVuSans-32" d="M 1228 531 
L 3431 531 
L 3431 0 
L 469 0 
L 469 531 
Q 828 903 1448 1529 
Q 2069 2156 2228 2338 
Q 2531 2678 2651 2914 
Q 2772 3150 2772 3378 
Q 2772 3750 2511 3984 
Q 2250 4219 1831 4219 
Q 1534 4219 1204 4116 
Q 875 4013 500 3803 
L 500 4441 
Q 881 4594 1212 4672 
Q 1544 4750 1819 4750 
Q 2544 4750 2975 4387 
Q 3406 4025 3406 3419 
Q 3406 3131 3298 2873 
Q 3191 2616 2906 2266 
Q 2828 2175 2409 1742 
Q 1991 1309 1228 531 
z
" transform="scale(0.015625)"/>
        <path id="DejaVuSans-30" d="M 2034 4250 
Q 1547 4250 1301 3770 
Q 1056 3291 1056 2328 
Q 1056 1369 1301 889 
Q 1547 409 2034 409 
Q 2525 409 2770 889 
Q 3016 1369 3016 2328 
Q 3016 3291 2770 3770 
Q 2525 4250 2034 4250 
z
M 2034 4750 
Q 2819 4750 3233 4129 
Q 3647 3509 3647 2328 
Q 3647 1150 3233 529 
Q 2819 -91 2034 -91 
Q 1250 -91 836 529 
Q 422 1150 422 2328 
Q 422 3509 836 4129 
Q 1250 4750 2034 4750 
z
" transform="scale(0.015625)"/>
        <path id="DejaVuSans-31" d="M 794 531 
L 1825 531 
L 1825 4091 
L 703 3866 
L 703 4441 
L 1819 4666 
L 2450 4666 
L 2450 531 
L 3481 531 
L 3481 0 
L 794 0 
L 794 531 
z
" transform="scale(0.015625)"/>
        <path id="DejaVuSans-34" d="M 2419 4116 
L 825 1625 
L 2419 1625 
L 2419 4116 
z
M 2253 4666 
L 3047 4666 
L 3047 1625 
L 3713 1625 
L 3713 1100 
L 3047 1100 
L 3047 0 
L 2419 0 
L 2419 1100 
L 313 1100 
L 313 1709 
L 2253 4666 
z
" transform="scale(0.015625)"/>
        <path id="DejaVuSans-2d" d="M 313 2009 
L 1997 2009 
L 1997 1497 
L 313 1497 
L 313 2009 
z
" transform="scale(0.015625)"/>
        <path id="DejaVuSans-37" d="M 525 4666 
L 3525 4666 
L 3525 4397 
L 1831 0 
L 1172 0 
L 2766 4134 
L 525 4134 
L 525 4666 
z
" transform="scale(0.015625)"/>
       </defs>
       <use xlink:href="#DejaVuSans-32"/>
       <use xlink:href="#DejaVuSans-30" x="63.623047"/>
       <use xlink:href="#DejaVuSans-31" x="127.246094"/>
       <use xlink:href="#DejaVuSans-34" x="190.869141"/>
       <use xlink:href="#DejaVuSans-2d" x="254.492188"/>
       <use xlink:href="#DejaVuSans-30" x="290.576172"/>
       <use xlink:href="#DejaVuSans-37" x="354.199219"/>
       <use xlink:href="#DejaVuSans-2d" x="417.822266"/>
       <use xlink:href="#DejaVuSans-30" x="453.90625"/>
       <use xlink:href="#DejaVuSans-31" x="517.529297"/>
      </g>
     </g>
    </g>
    <g id="xtick_2">
     <g id="line2d_2">
      <g>
       <use xlink:href="#med2f720da4" x="190.123734" y="342.2" style="stroke: #000000; stroke-width: 0.8"/>
      </g>
     </g>
     <g id="text_2">
      <!-- 2014-07-02 -->
      <g transform="translate(161.065921 356.798437) scale(0.1 -0.1)">
       <use xlink:href="#DejaVuSans-32"/>
       <use xlink:href="#DejaVuSans-30" x="63.623047"/>
       <use xlink:href="#DejaVuSans-31" x="127.246094"/>
       <use xlink:href="#DejaVuSans-34" x="190.869141"/>
       <use xlink:href="#DejaVuSans-2d" x="254.492188"/>
       <use xlink:href="#DejaVuSans-30" x="290.576172"/>
       <use xlink:href="#DejaVuSans-37" x="354.199219"/>
       <use xlink:href="#DejaVuSans-2d" x="417.822266"/>
       <use xlink:href="#DejaVuSans-30" x="453.90625"/>
       <use xlink:href="#DejaVuSans-32" x="517.529297"/>
      </g>
     </g>
    </g>
    <g id="xtick_3">
     <g id="line2d_3">
      <g>
       <use xlink:href="#med2f720da4" x="310.643327" y="342.2" style="stroke: #000000; stroke-width: 0.8"/>
      </g>
     </g>
     <g id="text_3">
      <!-- 2014-07-03 -->
      <g transform="translate(281.585515 356.798437) scale(0.1 -0.1)">
       <defs>
        <path id="DejaVuSans-33" d="M 2597 2516 
Q 3050 2419 3304 2112 
Q 3559 1806 3559 1356 
Q 3559 666 3084 287 
Q 2609 -91 1734 -91 
Q 1441 -91 1130 -33 
Q 819 25 488 141 
L 488 750 
Q 750 597 1062 519 
Q 1375 441 1716 441 
Q 2309 441 2620 675 
Q 2931 909 2931 1356 
Q 2931 1769 2642 2001 
Q 2353 2234 1838 2234 
L 1294 2234 
L 1294 2753 
L 1863 2753 
Q 2328 2753 2575 2939 
Q 2822 3125 2822 3475 
Q 2822 3834 2567 4026 
Q 2313 4219 1838 4219 
Q 1578 4219 1281 4162 
Q 984 4106 628 3988 
L 628 4550 
Q 988 4650 1302 4700 
Q 1616 4750 1894 4750 
Q 2613 4750 3031 4423 
Q 3450 4097 3450 3541 
Q 3450 3153 3228 2886 
Q 3006 2619 2597 2516 
z
" transform="scale(0.015625)"/>
       </defs>
       <use xlink:href="#DejaVuSans-32"/>
       <use xlink:href="#DejaVuSans-30" x="63.623047"/>
       <use xlink:href="#DejaVuSans-31" x="127.246094"/>
       <use xlink:href="#DejaVuSans-34" x="190.869141"/>
       <use xlink:href="#DejaVuSans-2d" x="254.492188"/>
       <use xlink:href="#DejaVuSans-30" x="290.576172"/>
       <use xlink:href="#DejaVuSans-37" x="354.199219"/>
       <use xlink:href="#DejaVuSans-2d" x="417.822266"/>
       <use xlink:href="#DejaVuSans-30" x="453.90625"/>
       <use xlink:href="#DejaVuSans-33" x="517.529297"/>
      </g>
     </g>
    </g>
    <g id="xtick_4">
     <g id="line2d_4">
      <g>
       <use xlink:href="#med2f720da4" x="431.162921" y="342.2" style="stroke: #000000; stroke-width: 0.8"/>
      </g>
     </g>
     <g id="text_4">
      <!-- 2014-07-04 -->
      <g transform="translate(402.105108 356.798437) scale(0.1 -0.1)">
       <use xlink:href="#DejaVuSans-32"/>
       <use xlink:href="#DejaVuSans-30" x="63.623047"/>
       <use xlink:href="#DejaVuSans-31" x="127.246094"/>
       <use xlink:href="#DejaVuSans-34" x="190.869141"/>
       <use xlink:href="#DejaVuSans-2d" x="254.492188"/>
       <use xlink:href="#DejaVuSans-30" x="290.576172"/>
       <use xlink:href="#DejaVuSans-37" x="354.199219"/>
       <use xlink:href="#DejaVuSans-2d" x="417.822266"/>
       <use xlink:href="#DejaVuSans-30" x="453.90625"/>
       <use xlink:href="#DejaVuSans-34" x="517.529297"/>
      </g>
     </g>
    </g>
    <g id="xtick_5">
     <g id="line2d_5">
      <g>
       <use xlink:href="#med2f720da4" x="551.682514" y="342.2" style="stroke: #000000; stroke-width: 0.8"/>
      </g>
     </g>
     <g id="text_5">
      <!-- 2014-07-05 -->
      <g transform="translate(522.624702 356.798437) scale(0.1 -0.1)">
       <defs>
        <path id="DejaVuSans-35" d="M 691 4666 
L 3169 4666 
L 3169 4134 
L 1269 4134 
L 1269 2991 
Q 1406 3038 1543 3061 
Q 1681 3084 1819 3084 
Q 2600 3084 3056 2656 
Q 3513 2228 3513 1497 
Q 3513 744 3044 326 
Q 2575 -91 1722 -91 
Q 1428 -91 1123 -41 
Q 819 9 494 109 
L 494 744 
Q 775 591 1075 516 
Q 1375 441 1709 441 
Q 2250 441 2565 725 
Q 2881 1009 2881 1497 
Q 2881 1984 2565 2268 
Q 2250 2553 1709 2553 
Q 1456 2553 1204 2497 
Q 953 2441 691 2322 
L 691 4666 
z
" transform="scale(0.015625)"/>
       </defs>
       <use xlink:href="#DejaVuSans-32"/>
       <use xlink:href="#DejaVuSans-30" x="63.623047"/>
       <use xlink:href="#DejaVuSans-31" x="127.246094"/>
       <use xlink:href="#DejaVuSans-34" x="190.869141"/>
       <use xlink:href="#DejaVuSans-2d" x="254.492188"/>
       <use xlink:href="#DejaVuSans-30" x="290.576172"/>
       <use xlink:href="#DejaVuSans-37" x="354.199219"/>
       <use xlink:href="#DejaVuSans-2d" x="417.822266"/>
       <use xlink:href="#DejaVuSans-30" x="453.90625"/>
       <use xlink:href="#DejaVuSans-35" x="517.529297"/>
      </g>
     </g>
    </g>
    <g id="xtick_6">
     <g id="line2d_6">
      <g>
       <use xlink:href="#med2f720da4" x="672.202107" y="342.2" style="stroke: #000000; stroke-width: 0.8"/>
      </g>
     </g>
     <g id="text_6">
      <!-- 2014-07-06 -->
      <g transform="translate(643.144295 356.798437) scale(0.1 -0.1)">
       <defs>
        <path id="DejaVuSans-36" d="M 2113 2584 
Q 1688 2584 1439 2293 
Q 1191 2003 1191 1497 
Q 1191 994 1439 701 
Q 1688 409 2113 409 
Q 2538 409 2786 701 
Q 3034 994 3034 1497 
Q 3034 2003 2786 2293 
Q 2538 2584 2113 2584 
z
M 3366 4563 
L 3366 3988 
Q 3128 4100 2886 4159 
Q 2644 4219 2406 4219 
Q 1781 4219 1451 3797 
Q 1122 3375 1075 2522 
Q 1259 2794 1537 2939 
Q 1816 3084 2150 3084 
Q 2853 3084 3261 2657 
Q 3669 2231 3669 1497 
Q 3669 778 3244 343 
Q 2819 -91 2113 -91 
Q 1303 -91 875 529 
Q 447 1150 447 2328 
Q 447 3434 972 4092 
Q 1497 4750 2381 4750 
Q 2619 4750 2861 4703 
Q 3103 4656 3366 4563 
z
" transform="scale(0.015625)"/>
       </defs>
       <use xlink:href="#DejaVuSans-32"/>
       <use xlink:href="#DejaVuSans-30" x="63.623047"/>
       <use xlink:href="#DejaVuSans-31" x="127.246094"/>
       <use xlink:href="#DejaVuSans-34" x="190.869141"/>
       <use xlink:href="#DejaVuSans-2d" x="254.492188"/>
       <use xlink:href="#DejaVuSans-30" x="290.576172"/>
       <use xlink:href="#DejaVuSans-37" x="354.199219"/>
       <use xlink:href="#DejaVuSans-2d" x="417.822266"/>
       <use xlink:href="#DejaVuSans-30" x="453.90625"/>
       <use xlink:href="#DejaVuSans-36" x="517.529297"/>
      </g>
     </g>
    </g>
   </g>
   <g id="matplotlib.axis_2">
    <g id="ytick_1">
     <g id="line2d_7">
      <defs>
       <path id="m12b49ec04d" d="M 0 0 
L -3.5 0 
" style="stroke: #000000; stroke-width: 0.8"/>
      </defs>
      <g>
       <use xlink:href="#m12b49ec04d" x="39.65" y="328.617311" style="stroke: #000000; stroke-width: 0.8"/>
      </g>
     </g>
     <g id="text_7">
      <!-- 0.0 -->
      <g transform="translate(16.746875 332.41653) scale(0.1 -0.1)">
       <defs>
        <path id="DejaVuSans-2e" d="M 684 794 
L 1344 794 
L 1344 0 
L 684 0 
L 684 794 
z
" transform="scale(0.015625)"/>
       </defs>
       <use xlink:href="#DejaVuSans-30"/>
       <use xlink:href="#DejaVuSans-2e" x="63.623047"/>
       <use xlink:href="#DejaVuSans-30" x="95.410156"/>
      </g>
     </g>
    </g>
    <g id="ytick_2">
     <g id="line2d_8">
      <g>
       <use xlink:href="#m12b49ec04d" x="39.65" y="272.978533" style="stroke: #000000; stroke-width: 0.8"/>
      </g>
     </g>
     <g id="text_8">
      <!-- 0.5 -->
      <g transform="translate(16.746875 276.777752) scale(0.1 -0.1)">
       <use xlink:href="#DejaVuSans-30"/>
       <use xlink:href="#DejaVuSans-2e" x="63.623047"/>
       <use xlink:href="#DejaVuSans-35" x="95.410156"/>
      </g>
     </g>
    </g>
    <g id="ytick_3">
     <g id="line2d_9">
      <g>
       <use xlink:href="#m12b49ec04d" x="39.65" y="217.339756" style="stroke: #000000; stroke-width: 0.8"/>
      </g>
     </g>
     <g id="text_9">
      <!-- 1.0 -->
      <g transform="translate(16.746875 221.138974) scale(0.1 -0.1)">
       <use xlink:href="#DejaVuSans-31"/>
       <use xlink:href="#DejaVuSans-2e" x="63.623047"/>
       <use xlink:href="#DejaVuSans-30" x="95.410156"/>
      </g>
     </g>
    </g>
    <g id="ytick_4">
     <g id="line2d_10">
      <g>
       <use xlink:href="#m12b49ec04d" x="39.65" y="161.700978" style="stroke: #000000; stroke-width: 0.8"/>
      </g>
     </g>
     <g id="text_10">
      <!-- 1.5 -->
      <g transform="translate(16.746875 165.500197) scale(0.1 -0.1)">
       <use xlink:href="#DejaVuSans-31"/>
       <use xlink:href="#DejaVuSans-2e" x="63.623047"/>
       <use xlink:href="#DejaVuSans-35" x="95.410156"/>
      </g>
     </g>
    </g>
    <g id="ytick_5">
     <g id="line2d_11">
      <g>
       <use xlink:href="#m12b49ec04d" x="39.65" y="106.0622" style="stroke: #000000; stroke-width: 0.8"/>
      </g>
     </g>
     <g id="text_11">
      <!-- 2.0 -->
      <g transform="translate(16.746875 109.861419) scale(0.1 -0.1)">
       <use xlink:href="#DejaVuSans-32"/>
       <use xlink:href="#DejaVuSans-2e" x="63.623047"/>
       <use xlink:href="#DejaVuSans-30" x="95.410156"/>
      </g>
     </g>
    </g>
    <g id="ytick_6">
     <g id="line2d_12">
      <g>
       <use xlink:href="#m12b49ec04d" x="39.65" y="50.423423" style="stroke: #000000; stroke-width: 0.8"/>
      </g>
     </g>
     <g id="text_12">
      <!-- 2.5 -->
      <g transform="translate(16.746875 54.222641) scale(0.1 -0.1)">
       <use xlink:href="#DejaVuSans-32"/>
       <use xlink:href="#DejaVuSans-2e" x="63.623047"/>
       <use xlink:href="#DejaVuSans-35" x="95.410156"/>
      </g>
     </g>
    </g>
   </g>
   <g id="line2d_13">
    <path d="M 69.771529 328.596099 
L 70.273694 327.623221 
L 70.441082 327.411243 
L 71.6128 324.966773 
L 71.947577 324.272413 
L 73.119295 322.439049 
L 73.872543 321.637543 
L 74.20732 321.372133 
L 76.215979 318.785168 
L 76.969227 318.334647 
L 77.722474 318.471548 
L 78.140945 318.799131 
L 79.563746 320.514139 
L 82.158265 323.730412 
L 82.576736 323.884881 
L 83.078901 323.520222 
L 83.329983 323.004916 
L 84.250619 320.691401 
L 85.254949 317.040053 
L 85.506031 316.397554 
L 86.091891 311.541343 
L 86.426667 305.798397 
L 86.594055 304.859187 
L 86.928832 298.480587 
L 87.012526 298.533625 
L 87.09622 298.367932 
L 87.179915 297.431994 
L 87.430997 292.104416 
L 87.598385 292.398057 
L 87.849468 290.888836 
L 88.016856 288.338459 
L 88.10055 288.435004 
L 88.267939 289.273899 
L 88.435327 287.974392 
L 88.602715 285.13246 
L 88.853798 286.888201 
L 89.021186 285.626381 
L 89.188575 282.705398 
L 89.439657 284.21837 
L 89.607045 282.40337 
L 89.774434 277.321383 
L 89.941822 278.448093 
L 90.360293 272.775242 
L 90.443987 273.608732 
L 90.527681 273.690569 
L 90.695069 271.185712 
L 90.862458 274.456303 
L 91.029846 272.178913 
L 91.11354 272.464701 
L 91.197234 272.351966 
L 91.280929 271.421291 
L 91.364623 271.550383 
L 91.448317 272.390336 
L 91.615705 271.274093 
L 91.783094 272.652691 
L 91.950482 270.690584 
L 92.034176 271.17575 
L 92.201564 269.921229 
L 92.368953 271.268064 
L 92.536341 269.778766 
L 92.620035 270.567423 
L 92.787423 269.661899 
L 92.954812 271.023584 
L 93.1222 269.675031 
L 93.205894 270.487181 
L 93.373283 269.62258 
L 93.540671 271.016971 
L 93.708059 269.67338 
L 93.875448 273.777142 
L 94.042836 271.719084 
L 94.210224 272.07429 
L 94.293918 271.269304 
L 94.377613 271.341845 
L 94.461307 272.302122 
L 94.628695 271.202738 
L 94.796083 272.610248 
L 94.963472 270.61011 
L 95.047166 271.134793 
L 95.214554 269.92436 
L 95.381943 271.222152 
L 95.549331 269.771033 
L 95.633025 270.552094 
L 95.800413 269.675622 
L 95.967802 271.031729 
L 96.13519 269.6811 
L 96.218884 270.787163 
L 96.302578 270.759849 
L 96.386272 271.076287 
L 96.553661 272.846311 
L 96.721049 271.989989 
L 96.972132 276.039453 
L 97.055826 276.187513 
L 97.223214 277.530677 
L 97.306908 277.453615 
L 97.390602 277.692242 
L 97.892767 282.424425 
L 97.976462 282.206662 
L 98.060156 277.404659 
L 98.227544 255.996492 
L 98.311238 255.74061 
L 98.478627 246.06571 
L 98.729709 258.36067 
L 98.813403 256.837075 
L 98.897097 254.410736 
L 98.980791 255.589426 
L 99.566651 283.101759 
L 100.068816 294.302801 
L 100.654675 302.818494 
L 101.324228 308.944463 
L 101.575311 310.404782 
L 101.659005 297.969534 
L 101.826393 247.694843 
L 101.910087 245.65085 
L 102.077475 227.82075 
L 102.16117 239.294342 
L 102.244864 230.678624 
L 102.495946 157.298604 
L 102.57964 160.705774 
L 102.663335 169.52599 
L 102.747029 168.153879 
L 102.830723 161.545057 
L 103.1655 105.646624 
L 103.332888 120.755928 
L 103.416582 118.128626 
L 103.667665 66.654468 
L 103.751359 66.65155 
L 104.002441 89.902257 
L 104.253524 57.02 
L 104.337218 59.428186 
L 104.5883 89.30423 
L 104.839383 63.837737 
L 104.923077 66.963789 
L 105.174159 96.652898 
L 105.425242 80.440636 
L 105.59263 95.344486 
L 105.927407 121.20277 
L 106.178489 116.816911 
L 106.429572 142.555502 
L 106.513266 140.093552 
L 106.680654 133.083614 
L 106.764349 132.032165 
L 107.015431 157.573063 
L 107.182819 148.453714 
L 107.266514 148.955607 
L 107.350208 148.515092 
L 107.60129 172.721964 
L 107.684984 169.683012 
L 107.768679 164.519208 
L 107.852373 166.144183 
L 107.936067 165.859655 
L 108.103455 181.284037 
L 108.187149 188.870764 
L 108.270843 187.956572 
L 108.354538 182.559829 
L 108.438232 182.959155 
L 108.521926 183.878587 
L 108.60562 187.356356 
L 108.940397 210.910719 
L 109.024091 207.606726 
L 109.275173 214.633684 
L 109.526256 231.59864 
L 109.693644 226.499233 
L 109.777338 226.62575 
L 109.861033 227.690624 
L 110.112115 242.630742 
L 110.195809 242.54199 
L 110.363198 241.359347 
L 110.446892 242.025671 
L 110.949057 255.436423 
L 111.032751 255.751919 
L 111.116445 256.669899 
L 111.367527 264.125665 
L 111.534916 266.120894 
L 111.61861 266.083718 
L 111.702304 265.739019 
L 111.785998 266.846534 
L 111.953387 271.635161 
L 112.120775 267.505542 
L 112.204469 267.692284 
L 112.288163 267.23477 
L 112.371857 265.963137 
L 112.455552 266.274852 
L 112.539246 266.985594 
L 112.706634 261.913839 
L 112.790328 261.809567 
L 112.957717 256.679583 
L 113.041411 257.65199 
L 113.125105 258.417764 
L 113.459882 244.138736 
L 113.543576 242.601571 
L 113.62727 246.883629 
L 113.710964 244.289033 
L 114.045741 196.911895 
L 114.213129 210.049641 
L 114.547906 101.388298 
L 114.6316 109.382363 
L 114.715294 113.67713 
L 114.882682 103.752921 
L 115.217459 143.265276 
L 115.719624 208.76516 
L 116.305483 261.502753 
L 116.807648 278.87438 
L 117.309813 288.382533 
L 117.477201 288.769575 
L 117.979366 293.111088 
L 118.146755 292.961319 
L 118.983696 298.398435 
L 119.402167 301.488036 
L 120.573885 308.413704 
L 121.243439 310.606131 
L 121.829298 311.72334 
L 122.08038 312.026502 
L 122.331463 312.22649 
L 122.498851 312.165995 
L 123.001016 312.311477 
L 123.168404 312.271 
L 123.419487 312.424466 
L 123.754263 312.115028 
L 124.08904 312.32269 
L 124.423817 311.978538 
L 124.674899 312.128443 
L 125.009676 311.730541 
L 125.260758 311.794518 
L 125.595535 311.341758 
L 125.846618 311.435888 
L 126.181394 310.96072 
L 126.432477 311.027643 
L 126.767253 310.504312 
L 127.10203 310.679709 
L 127.353112 310.176522 
L 127.520501 310.287905 
L 127.687889 310.355851 
L 128.022666 309.7972 
L 128.190054 309.938788 
L 128.357442 309.630747 
L 128.524831 309.288867 
L 128.692219 309.396188 
L 128.775913 309.493279 
L 128.859607 309.415799 
L 129.11069 308.792296 
L 129.278078 308.894948 
L 129.361772 308.981125 
L 129.445466 308.884618 
L 129.696549 308.2194 
L 129.863937 308.355662 
L 129.947631 308.463752 
L 130.031326 307.556642 
L 130.366102 293.657444 
L 130.449796 292.785355 
L 130.700879 287.619094 
L 131.035656 291.761581 
L 131.11935 291.247881 
L 131.286738 289.308034 
L 131.370432 289.310425 
L 131.705209 294.176137 
L 132.12368 298.37092 
L 132.458456 300.994612 
L 132.625845 301.414433 
L 133.12801 303.793936 
L 133.295398 303.665312 
L 133.630175 304.853868 
L 133.713869 304.72444 
L 133.881257 304.116542 
L 133.964951 304.161256 
L 134.216034 304.807895 
L 134.383422 304.166927 
L 134.467116 303.90982 
L 134.55081 303.938472 
L 134.801893 304.48644 
L 135.136669 303.358659 
L 135.387752 303.864705 
L 135.722529 302.658532 
L 136.057305 303.372605 
L 136.308388 302.306814 
L 136.392082 302.428235 
L 136.643164 303.117113 
L 136.894247 301.689743 
L 136.977941 301.720772 
L 137.229024 302.381713 
L 137.480106 300.98179 
L 137.5638 301.048012 
L 137.814883 301.691429 
L 138.065965 300.107207 
L 138.149659 300.177019 
L 138.400742 300.831304 
L 138.651824 299.194427 
L 138.735518 299.322726 
L 139.070295 300.194228 
L 139.321378 298.885236 
L 139.656154 299.9545 
L 139.907237 298.094251 
L 140.074625 298.644649 
L 140.242013 299.071527 
L 140.493096 297.351811 
L 140.744178 298.199528 
L 140.827873 298.161626 
L 141.078955 296.305977 
L 141.330037 297.286367 
L 141.413732 297.192306 
L 141.664814 295.378983 
L 141.999591 296.596511 
L 142.083285 296.547814 
L 142.250673 295.252568 
L 142.334367 295.285712 
L 142.58545 296.462839 
L 142.669144 296.255609 
L 142.920227 294.225375 
L 143.171309 295.566887 
L 143.255003 295.383646 
L 143.506086 293.341072 
L 143.757168 294.493039 
L 143.840862 294.237463 
L 144.091945 292.106406 
L 144.343027 293.405592 
L 144.426721 293.139983 
L 144.59411 291.019327 
L 144.677804 291.074487 
L 144.928886 292.489794 
L 145.096275 292.443863 
L 145.263663 290.947939 
L 145.347357 291.194419 
L 145.59844 292.448711 
L 145.682134 292.027836 
L 145.849522 289.681532 
L 145.933216 289.889927 
L 146.184299 291.509404 
L 146.267993 291.137458 
L 146.435381 288.538327 
L 146.519076 288.746732 
L 146.770158 290.012088 
L 147.021241 289.43765 
L 149.197289 306.737484 
L 149.866842 310.404356 
L 150.703784 313.893377 
L 151.540725 316.477635 
L 152.461361 318.697034 
L 153.967856 321.319306 
L 154.972186 322.637715 
L 155.306963 322.9621 
L 155.390657 322.717211 
L 155.892822 317.496354 
L 156.06021 314.244747 
L 156.311292 308.989512 
L 156.562375 305.771513 
L 156.813457 302.396194 
L 157.06454 302.820409 
L 157.231928 301.351179 
L 157.483011 299.172632 
L 157.734093 299.457482 
L 157.901482 299.765824 
L 158.152564 301.363552 
L 158.487341 303.471778 
L 158.822117 304.98096 
L 158.905812 305.292215 
L 158.989506 305.196574 
L 159.156894 304.636954 
L 159.324282 305.033923 
L 159.491671 305.544016 
L 159.659059 304.672408 
L 159.826447 304.264639 
L 160.161224 304.838845 
L 160.496001 303.376533 
L 160.830777 303.790281 
L 160.998166 303.777336 
L 161.249248 304.712138 
L 161.332942 305.05014 
L 161.416636 304.805241 
L 161.667719 303.705617 
L 161.835107 303.963768 
L 161.918801 303.810135 
L 162.253578 300.501519 
L 162.420966 300.947288 
L 162.50466 300.838168 
L 162.755743 298.421706 
L 162.839437 298.465236 
L 163.006825 298.854046 
L 163.09052 298.829551 
L 163.257908 298.29225 
L 163.341602 297.94112 
L 163.425296 297.973995 
L 163.760073 299.470236 
L 163.843767 299.281352 
L 164.011155 298.854208 
L 164.262238 300.18918 
L 164.51332 301.063278 
L 164.680709 301.801165 
L 164.931791 303.261123 
L 165.266568 301.217967 
L 165.350262 301.397473 
L 165.51765 301.419321 
L 165.685039 301.137513 
L 165.768733 301.30036 
L 166.187204 304.134389 
L 166.270898 304.093323 
L 166.52198 303.30223 
L 166.689369 303.560793 
L 166.773063 303.413077 
L 167.107839 299.213155 
L 167.275228 299.47023 
L 167.442616 298.357585 
L 167.610004 297.680602 
L 167.944781 299.103659 
L 168.195864 296.948108 
L 168.279558 296.98348 
L 168.53064 297.588926 
L 168.698028 296.919263 
L 168.781723 297.049024 
L 169.283888 299.494452 
L 169.451276 300.134716 
L 170.455606 305.624777 
L 170.957771 307.84817 
L 171.292548 305.089253 
L 171.376242 305.123855 
L 171.459936 305.178769 
L 171.54363 305.011906 
L 171.878407 303.110248 
L 172.213183 304.223004 
L 172.631654 299.882347 
L 172.799042 299.195442 
L 172.966431 298.282881 
L 173.050125 298.439972 
L 173.719678 302.066818 
L 174.389232 305.159527 
L 174.55662 305.84226 
L 174.891396 301.750778 
L 174.975091 301.823452 
L 175.058785 301.797127 
L 175.226173 300.833352 
L 175.477256 298.620105 
L 175.728338 299.770006 
L 175.812032 299.462164 
L 176.063115 295.559597 
L 176.146809 295.591623 
L 176.314197 295.958698 
L 176.397891 295.681698 
L 176.648974 293.121246 
L 176.900056 294.166696 
L 177.067445 294.115422 
L 177.234833 295.225646 
L 177.56961 298.306258 
L 177.653304 298.398123 
L 177.736998 298.248464 
L 177.820692 298.304225 
L 178.071775 299.777753 
L 178.825022 305.286594 
L 178.908716 305.253398 
L 179.159799 304.390884 
L 179.327187 304.667441 
L 179.410881 304.57038 
L 179.745658 301.694003 
L 179.99674 302.19703 
L 180.247823 301.78434 
L 180.498905 302.675159 
L 180.749988 303.315176 
L 180.917376 303.673457 
L 181.335847 305.123592 
L 181.503235 304.752077 
L 181.670624 305.244596 
L 181.838012 305.795155 
L 182.0054 305.024258 
L 182.172789 304.671742 
L 182.423871 305.198627 
L 182.842342 301.494905 
L 182.926036 301.39458 
L 183.177119 300.34589 
L 183.260813 300.414133 
L 183.595589 302.321429 
L 183.679283 301.885302 
L 183.930366 300.107771 
L 184.181448 300.246261 
L 184.265143 300.019036 
L 184.516225 297.773131 
L 184.767308 298.891514 
L 184.851002 298.719157 
L 185.102084 296.363217 
L 185.436861 297.292867 
L 185.520555 297.262214 
L 185.604249 297.357545 
L 185.855332 298.808294 
L 186.106414 300.244583 
L 186.190108 300.181208 
L 186.273803 300.280237 
L 187.02705 303.923656 
L 187.529215 306.837063 
L 187.947686 308.235707 
L 188.198768 307.822452 
L 188.449851 308.20492 
L 188.868322 304.56228 
L 188.952016 304.58212 
L 189.03571 304.319503 
L 189.370487 300.937173 
L 189.537875 301.299224 
L 189.621569 301.051277 
L 189.956346 297.032293 
L 190.123734 296.978131 
L 190.374816 296.612645 
L 190.458511 296.762337 
L 190.876981 299.288024 
L 190.960676 299.086487 
L 191.128064 298.534889 
L 191.295452 299.298096 
L 191.462841 299.999728 
L 191.713923 297.706742 
L 191.797617 297.9119 
L 191.965006 298.482352 
L 192.0487 298.203481 
L 192.299782 294.94018 
L 192.550865 295.567656 
L 192.718253 294.392107 
L 192.801947 293.781116 
L 192.885641 293.889981 
L 193.220418 295.607611 
L 193.304112 295.640788 
L 193.4715 294.383113 
L 193.555195 294.504093 
L 193.889971 296.113196 
L 194.05736 295.930051 
L 194.224748 297.046822 
L 194.47583 298.764077 
L 194.559525 298.655689 
L 194.726913 298.180068 
L 195.06169 299.29591 
L 195.312772 296.362865 
L 195.563855 296.968178 
L 195.731243 296.557743 
L 195.814937 296.621334 
L 196.149714 299.041773 
L 196.317102 299.86284 
L 196.568184 299.193757 
L 196.651879 299.440996 
L 196.902961 300.788647 
L 196.986655 300.720509 
L 197.154044 300.4258 
L 197.48882 302.162287 
L 197.572514 302.047837 
L 197.739903 301.491969 
L 197.907291 301.976805 
L 198.242068 302.880216 
L 198.49315 303.820798 
L 198.660538 304.624033 
L 198.744233 304.381623 
L 198.911621 303.300823 
L 198.995315 303.285839 
L 199.246398 303.688608 
L 199.49748 303.483753 
L 199.581174 303.643534 
L 200.334422 306.982126 
L 200.50181 307.263167 
L 200.836587 303.555469 
L 200.920281 303.612818 
L 201.003975 303.647818 
L 201.087669 303.143456 
L 201.422446 297.601073 
L 201.589834 297.821215 
L 201.840917 296.859486 
L 202.008305 297.552028 
L 202.343082 298.811391 
L 202.51047 298.679809 
L 202.594164 298.864098 
L 203.5148 303.622986 
L 203.598494 303.629356 
L 203.765882 303.254205 
L 203.933271 303.724631 
L 204.016965 304.047864 
L 204.100659 303.967776 
L 204.435436 299.294852 
L 204.51913 299.272212 
L 204.602824 299.071116 
L 204.937601 296.456724 
L 205.272377 298.070861 
L 205.439766 298.128532 
L 205.607154 298.712064 
L 206.109319 302.800148 
L 207.197343 311.060818 
L 207.95059 314.835107 
L 208.703838 317.414031 
L 209.373391 319.065013 
L 210.377721 320.970205 
L 211.382051 322.411318 
L 212.470075 323.596086 
L 214.813512 325.383533 
L 214.897206 325.334317 
L 214.9809 319.675129 
L 215.231983 282.448986 
L 215.315677 281.134419 
L 215.734148 257.332747 
L 215.817842 253.249138 
L 215.98523 240.255467 
L 216.152618 249.555795 
L 216.487395 239.251481 
L 216.571089 241.490196 
L 216.738478 250.910987 
L 217.073254 243.364771 
L 217.156948 245.085031 
L 217.408031 258.056815 
L 217.659113 250.098798 
L 217.742807 250.047759 
L 217.826502 251.017341 
L 217.99389 257.972785 
L 218.412361 250.882632 
L 218.579749 257.36666 
L 218.99822 253.393856 
L 219.165608 259.946943 
L 219.249302 259.715928 
L 219.416691 259.281701 
L 219.584079 257.375342 
L 219.835162 262.92579 
L 219.918856 263.087587 
L 220.00255 263.583498 
L 220.169938 262.285539 
L 220.337326 267.158488 
L 220.421021 269.778707 
L 220.504715 269.186039 
L 220.588409 268.485418 
L 220.672103 268.705496 
L 220.755797 268.717488 
L 220.839491 268.475648 
L 221.00688 271.109715 
L 221.090574 271.063612 
L 221.174268 271.339743 
L 221.341656 273.420405 
L 221.509045 272.319353 
L 221.592739 273.002235 
L 221.676433 272.770911 
L 221.760127 273.175792 
L 221.927516 275.371544 
L 222.094904 274.810892 
L 222.178598 275.333005 
L 222.262292 275.152324 
L 222.345986 275.537231 
L 222.513375 277.758717 
L 222.680763 277.404285 
L 222.764457 277.725256 
L 222.848151 277.425718 
L 222.931845 277.709453 
L 223.182928 280.236735 
L 223.266622 280.054115 
L 223.852481 283.762269 
L 224.01987 283.69246 
L 224.103564 283.10993 
L 224.187258 283.150555 
L 224.43834 286.000065 
L 224.522035 285.959792 
L 224.605729 285.707983 
L 224.773117 284.646246 
L 225.107894 287.19655 
L 225.191588 286.19477 
L 225.358976 279.590223 
L 225.44267 279.758079 
L 225.526365 280.345597 
L 225.693753 278.093325 
L 225.777447 276.138518 
L 225.944835 268.955401 
L 226.028529 269.101054 
L 226.112224 268.026345 
L 226.279612 263.875156 
L 226.363306 267.198032 
L 226.447 266.915553 
L 226.698083 252.474629 
L 226.865471 247.800303 
L 226.949165 251.383292 
L 227.032859 250.461253 
L 227.283942 226.199125 
L 227.367636 220.846131 
L 227.535024 234.50204 
L 227.618719 217.726705 
L 227.869801 128.418772 
L 228.037189 138.893876 
L 228.204578 122.56931 
L 228.288272 125.62617 
L 229.543684 268.731827 
L 230.045849 287.373659 
L 230.715403 298.094553 
L 230.966485 299.521109 
L 231.301262 301.62342 
L 231.384956 301.619002 
L 231.46865 301.750536 
L 232.221897 305.328745 
L 233.058839 309.72965 
L 234.314252 315.398268 
L 235.234887 318.284659 
L 236.239217 320.390519 
L 237.243547 322.030641 
L 238.247877 323.234737 
L 239.586984 324.456955 
L 239.838066 324.523997 
L 240.340231 323.731315 
L 240.675008 322.452059 
L 240.92609 321.451186 
L 241.679338 314.278636 
L 241.93042 310.919347 
L 242.181503 309.922427 
L 242.516279 307.313666 
L 242.851056 306.538507 
L 243.102139 306.099838 
L 243.269527 306.237023 
L 243.436915 305.887951 
L 243.520609 305.755276 
L 243.604304 305.824685 
L 243.855386 306.437291 
L 244.022774 305.72139 
L 244.190163 305.397749 
L 244.524939 306.067046 
L 244.859716 304.335363 
L 245.027104 304.671481 
L 245.110798 304.548668 
L 245.445575 300.494757 
L 245.529269 300.507001 
L 245.612963 300.499118 
L 245.696658 300.222194 
L 245.94774 298.48588 
L 246.115128 299.149663 
L 246.282517 299.688779 
L 246.533599 298.121167 
L 246.617293 298.200523 
L 246.868376 298.751044 
L 247.119458 295.792967 
L 247.370541 296.472497 
L 247.454235 296.340039 
L 247.537929 295.990916 
L 247.789012 293.620039 
L 247.9564 294.351465 
L 248.040094 294.171786 
L 248.207482 291.926004 
L 248.291177 290.734918 
L 248.374871 290.756823 
L 248.625953 292.155312 
L 248.709647 291.920204 
L 248.877036 290.678806 
L 248.96073 291.013108 
L 249.295507 293.185235 
L 249.379201 293.192179 
L 249.462895 293.350998 
L 249.797672 296.47505 
L 250.048754 297.733319 
L 250.299836 299.443971 
L 250.634613 301.583917 
L 250.718307 301.541606 
L 250.802001 301.673085 
L 251.136778 303.292232 
L 251.471555 300.980564 
L 251.638943 301.400516 
L 251.722637 301.137493 
L 251.97372 297.059782 
L 252.057414 297.070965 
L 252.141108 297.226318 
L 252.224802 297.124414 
L 252.392191 295.592061 
L 252.559579 294.732193 
L 252.894356 295.921366 
L 252.97805 295.944587 
L 253.145438 296.634546 
L 253.563909 300.129301 
L 253.647603 299.875508 
L 253.814991 298.909385 
L 254.149768 300.099112 
L 254.40085 298.545027 
L 254.98671 300.5038 
L 255.321486 301.63922 
L 255.656263 298.21485 
L 255.823651 298.305684 
L 255.907345 297.741308 
L 256.158428 294.485153 
L 256.40951 295.648631 
L 256.576899 295.333938 
L 256.660593 295.394404 
L 256.827981 296.258355 
L 257.162758 298.235955 
L 257.41384 296.554112 
L 257.664923 297.798478 
L 257.748617 297.637556 
L 257.999699 294.257606 
L 258.250782 295.176024 
L 258.501864 294.544781 
L 258.752947 296.356876 
L 259.004029 297.291633 
L 259.171418 297.820207 
L 259.4225 299.906473 
L 260.175748 306.29319 
L 260.259442 305.889611 
L 260.510524 304.119054 
L 260.677913 304.42319 
L 260.761607 304.372 
L 261.012689 303.707431 
L 261.180078 304.448682 
L 261.514854 306.200261 
L 261.765937 306.478349 
L 261.849631 306.522688 
L 261.933325 306.417809 
L 262.268102 303.138452 
L 262.519184 303.361482 
L 262.602878 302.915382 
L 262.853961 299.128989 
L 262.937655 299.225017 
L 263.105043 299.700565 
L 263.188737 299.375552 
L 263.43982 297.088846 
L 263.774597 298.043777 
L 264.025679 297.15249 
L 264.360456 298.661208 
L 264.44415 298.493899 
L 264.611538 298.173426 
L 264.946315 299.891818 
L 265.030009 299.817532 
L 265.113703 299.546887 
L 265.197397 299.590006 
L 265.615868 301.419563 
L 265.866951 298.146984 
L 265.950645 298.158293 
L 266.118033 298.310738 
L 266.201727 297.794147 
L 266.45281 295.085349 
L 266.703892 296.306216 
L 266.787586 296.130726 
L 266.954975 294.867118 
L 267.038669 294.904785 
L 267.373446 296.384219 
L 267.540834 295.334667 
L 267.624528 295.416392 
L 267.959305 297.178457 
L 268.126693 296.813259 
L 268.294081 297.566053 
L 268.628858 299.430875 
L 268.87994 300.216308 
L 269.214717 302.22254 
L 269.549494 299.807454 
L 269.716882 300.18594 
L 269.800576 300.093109 
L 269.967965 299.5963 
L 270.051659 299.764852 
L 270.47013 302.415485 
L 270.553824 302.346179 
L 270.721212 302.305987 
L 271.223377 303.476331 
L 271.641848 305.666991 
L 271.976624 301.766806 
L 272.060319 301.823743 
L 272.144013 301.776613 
L 272.227707 301.272802 
L 272.478789 298.282894 
L 272.562484 298.478979 
L 272.813566 299.582955 
L 273.148343 298.370797 
L 273.399425 298.933794 
L 273.650508 296.270343 
L 273.90159 296.945591 
L 273.985284 296.850744 
L 274.068979 296.667291 
L 274.152673 296.718051 
L 274.403755 298.568135 
L 274.654838 300.087177 
L 274.90592 298.40598 
L 274.989614 298.504405 
L 275.240697 299.233802 
L 275.491779 297.37476 
L 275.742862 298.535897 
L 275.826556 298.345752 
L 276.077638 294.400742 
L 276.245027 294.720878 
L 276.328721 294.507508 
L 276.496109 291.701237 
L 276.663498 290.310998 
L 276.830886 291.124113 
L 277.081968 290.473462 
L 277.249357 291.845902 
L 277.667827 296.102749 
L 277.91891 297.5699 
L 279.006934 306.436558 
L 279.258017 307.286709 
L 279.425405 307.748848 
L 279.843876 304.545745 
L 279.92757 304.57947 
L 280.011264 304.373881 
L 280.346041 301.805247 
L 280.597123 302.554705 
L 280.680817 302.312651 
L 281.015594 297.666979 
L 281.099288 297.58291 
L 281.182982 297.289143 
L 281.266676 296.471701 
L 281.517759 292.601196 
L 281.685147 293.487299 
L 281.768841 293.432261 
L 282.019924 291.153028 
L 282.103618 291.31582 
L 282.354701 292.824033 
L 282.522089 293.112481 
L 282.689477 294.385471 
L 283.191642 299.163164 
L 283.693807 302.949852 
L 283.777501 302.774818 
L 283.94489 301.95778 
L 284.698137 304.166666 
L 284.865525 305.005988 
L 285.535079 297.540962 
L 285.702467 294.899465 
L 285.95355 295.807367 
L 286.204632 295.200993 
L 286.37202 296.111352 
L 286.706797 297.886334 
L 286.874185 297.245599 
L 286.957879 297.319981 
L 287.292656 299.160093 
L 287.543739 296.597672 
L 287.794821 297.511549 
L 287.962209 296.926323 
L 288.045904 296.659929 
L 288.213292 297.444715 
L 288.464374 298.420462 
L 288.715457 294.414535 
L 288.799151 294.452063 
L 288.882845 294.637439 
L 288.966539 294.594486 
L 289.217622 293.828118 
L 290.305646 301.303112 
L 291.309976 309.582596 
L 292.063223 313.871734 
L 292.732777 316.495934 
L 293.569718 318.837711 
L 294.825131 321.264113 
L 295.745766 322.570689 
L 296.833791 323.728364 
L 298.005509 324.706469 
L 298.089203 324.581566 
L 298.256591 321.115799 
L 298.507674 314.5772 
L 299.177227 309.318861 
L 299.260921 309.521557 
L 299.763086 311.83375 
L 299.84678 311.772531 
L 300.265251 310.715 
L 300.43264 311.060628 
L 300.934805 313.283424 
L 301.688052 316.306656 
L 302.441299 318.534005 
L 303.529324 320.733927 
L 303.613018 320.641142 
L 303.780406 319.376079 
L 304.031489 317.40408 
L 304.952124 315.174325 
L 305.203207 315.724946 
L 305.621678 316.585 
L 305.789066 316.617324 
L 306.291231 316.439806 
L 306.542313 316.726015 
L 307.462949 318.15327 
L 307.88142 318.303245 
L 308.048808 317.829907 
L 308.634667 315.312985 
L 308.88575 313.989796 
L 309.053138 313.136965 
L 309.387915 309.97737 
L 309.555303 309.457585 
L 310.559633 300.679473 
L 310.643327 300.679659 
L 310.727021 300.536755 
L 310.810716 300.141946 
L 311.061798 297.242359 
L 311.312881 297.686459 
L 311.396575 297.215394 
L 311.647657 293.921788 
L 311.89874 294.800158 
L 311.982434 294.335222 
L 312.233516 291.182294 
L 312.400905 292.060183 
L 312.484599 292.005331 
L 312.568293 291.361419 
L 312.735681 288.283106 
L 312.819376 288.32204 
L 312.986764 289.407173 
L 313.070458 289.239837 
L 313.154152 288.565995 
L 313.321541 285.76894 
L 313.572623 287.212771 
L 313.656317 286.927175 
L 313.740011 286.796803 
L 313.823705 286.268857 
L 313.991094 281.059235 
L 314.074788 281.174819 
L 314.158482 281.499484 
L 314.409565 277.944657 
L 314.576953 274.687786 
L 314.744341 275.605438 
L 314.995424 272.31871 
L 315.162812 270.504061 
L 315.3302 271.742498 
L 315.497589 270.034309 
L 315.581283 270.720664 
L 315.748671 269.665858 
L 315.91606 271.064567 
L 316.083448 269.695102 
L 316.167142 270.489549 
L 316.33453 269.606436 
L 316.501919 271.038507 
L 316.669307 269.640654 
L 316.836695 273.644214 
L 317.004084 271.679912 
L 317.087778 272.040205 
L 317.171472 271.995162 
L 317.255166 271.139788 
L 317.33886 271.317039 
L 317.422554 272.205112 
L 317.589943 271.135125 
L 317.757331 272.529808 
L 317.924719 270.579792 
L 318.008414 271.095097 
L 318.175802 269.865256 
L 318.34319 271.277402 
L 318.510579 269.757721 
L 318.594273 270.573664 
L 318.761661 269.677565 
L 318.929049 271.093631 
L 319.096438 269.633193 
L 319.180132 270.497368 
L 319.34752 269.637311 
L 319.514909 271.048058 
L 319.682297 269.61817 
L 319.849685 273.747398 
L 320.017073 271.71348 
L 320.100768 272.09056 
L 320.184462 272.020101 
L 320.268156 271.169721 
L 320.35185 271.284101 
L 320.435544 272.529582 
L 320.519238 272.359129 
L 320.602933 272.659761 
L 320.770321 274.412027 
L 320.937709 272.988373 
L 321.35618 276.64386 
L 321.439874 276.409674 
L 321.523568 276.354487 
L 321.858345 279.421154 
L 322.025733 281.034462 
L 322.109428 280.976061 
L 322.193122 275.884882 
L 322.36051 255.595017 
L 322.444204 255.37923 
L 322.611593 245.980102 
L 322.862675 259.028824 
L 322.946369 257.239127 
L 323.030063 254.721071 
L 323.113757 255.808788 
L 323.615922 280.422695 
L 324.118087 292.624171 
L 324.787641 302.28162 
L 325.3735 307.145574 
L 326.043053 310.126038 
L 326.294136 310.686506 
L 326.545218 311.379942 
L 326.879995 311.441869 
L 327.131077 311.708685 
L 327.465854 311.363727 
L 327.716936 311.492737 
L 328.051713 311.002923 
L 328.302796 311.071729 
L 328.637572 310.503648 
L 328.972349 310.670941 
L 329.223431 310.138423 
L 329.39082 310.2563 
L 329.558208 310.318471 
L 329.892985 309.748016 
L 330.144067 309.815515 
L 330.39515 309.217073 
L 330.562538 309.334533 
L 330.646232 309.429685 
L 330.729926 309.354204 
L 330.981009 308.707453 
L 331.148397 308.8178 
L 331.232091 308.907719 
L 331.315785 308.807467 
L 331.566868 308.130183 
L 331.734256 308.286609 
L 331.985339 308.534865 
L 332.152727 308.528026 
L 332.320115 308.802696 
L 333.910304 313.433465 
L 334.914634 316.449516 
L 335.83527 318.691922 
L 336.8396 320.468778 
L 339.099342 321.793323 
L 340.187367 322.741415 
L 342.698191 324.302686 
L 344.623157 325.564844 
L 346.045958 326.249498 
L 347.887229 326.853543 
L 350.146972 327.356627 
L 353.32735 327.791733 
L 357.428364 328.103822 
L 373.162866 328.50153 
L 377.431269 328.53556 
L 385.800685 328.568129 
L 397.183091 328.58967 
L 404.715565 328.592189 
L 405.887284 328.588495 
L 414.340394 328.587812 
L 417.688161 328.587972 
L 459.618936 328.589936 
L 466.565551 328.591373 
L 469.076376 328.589458 
L 513.1832 328.589745 
L 517.535296 328.591688 
L 672.202107 328.589138 
L 672.202107 328.589138 
" clip-path="url(#p7640a75ef2)" style="fill: none; stroke: #1f77b4; stroke-width: 1.5; stroke-linecap: square"/>
   </g>
   <g id="line2d_14">
    <path d="M 69.771529 328.617311 
L 70.357388 328.554899 
L 72.533436 325.596209 
L 72.868213 325.482708 
L 73.119295 325.109108 
L 73.454072 324.939666 
L 73.705155 324.558399 
L 74.039931 324.415452 
L 74.291014 324.043292 
L 74.62579 323.929087 
L 74.876873 323.562438 
L 75.211649 323.472027 
L 75.462732 323.107956 
L 75.713814 323.187037 
L 75.881203 323.151104 
L 76.132285 322.802939 
L 76.467062 322.743326 
L 76.718144 322.360646 
L 76.969227 322.459109 
L 77.387698 322.710394 
L 80.065911 326.088777 
L 81.153935 326.911974 
L 81.823488 327.239485 
L 82.409347 326.903713 
L 83.078901 325.774929 
L 83.413677 324.842526 
L 83.66476 324.322481 
L 83.915842 323.242633 
L 84.166925 322.846652 
L 84.66909 320.987955 
L 84.836478 320.851432 
L 86.175585 314.70144 
L 86.426667 313.527763 
L 86.594055 313.299763 
L 87.09622 310.50809 
L 87.179915 310.422682 
L 87.598385 307.543476 
L 87.68208 307.643825 
L 87.849468 307.795448 
L 88.016856 306.257416 
L 88.267939 304.997655 
L 88.435327 304.924562 
L 88.937492 301.701562 
L 89.021186 301.698505 
L 89.523351 298.342023 
L 89.607045 298.244991 
L 90.611375 284.752769 
L 90.862458 285.640689 
L 91.029846 282.807446 
L 91.197234 280.804061 
L 91.280929 280.784478 
L 91.448317 281.155554 
L 91.615705 278.274817 
L 91.783094 276.410673 
L 91.866788 276.500608 
L 92.034176 277.120979 
L 92.201564 274.495568 
L 92.368953 272.887207 
L 92.536341 273.510876 
L 92.620035 273.960816 
L 92.703729 273.287083 
L 92.954812 270.16119 
L 93.205894 271.523349 
L 93.289588 270.938441 
L 93.540671 268.074437 
L 93.624365 268.409739 
L 93.875448 270.996282 
L 93.959142 270.652365 
L 94.210224 268.164014 
L 94.461307 269.843194 
L 94.545001 269.338786 
L 94.796083 266.661884 
L 95.047166 268.405385 
L 95.13086 267.937059 
L 95.298248 265.566067 
L 95.381943 265.38564 
L 95.633025 267.259806 
L 95.716719 266.832868 
L 95.884107 264.541134 
L 95.967802 264.400468 
L 96.218884 266.463462 
L 96.302578 266.376127 
L 96.469967 265.077009 
L 96.553661 265.271813 
L 96.804743 268.221602 
L 96.972132 269.735334 
L 97.055826 269.398539 
L 97.13952 269.458127 
L 97.306908 270.767538 
L 97.557991 273.223256 
L 97.641685 273.189069 
L 97.809073 274.060928 
L 98.060156 276.354875 
L 98.227544 260.165206 
L 98.478627 244.571571 
L 98.562321 243.727109 
L 98.646015 243.992747 
L 98.897097 247.113656 
L 99.650345 265.282521 
L 100.570981 284.550504 
L 101.324228 295.830523 
L 101.659005 300.336181 
L 101.826393 256.857745 
L 102.077475 214.296749 
L 102.244864 209.915114 
L 102.663335 134.022118 
L 102.747029 135.123123 
L 102.914417 142.204612 
L 102.998111 134.564975 
L 103.249194 101.903219 
L 103.332888 102.772683 
L 103.500276 110.806246 
L 103.58397 105.527003 
L 103.751359 84.971023 
L 103.835053 83.421765 
L 104.002441 91.526273 
L 104.086135 96.930166 
L 104.16983 94.560114 
L 104.337218 81.451937 
L 104.420912 81.877475 
L 104.671995 97.606768 
L 104.755689 97.059381 
L 104.923077 88.860145 
L 105.006771 90.350826 
L 105.341548 106.938733 
L 105.508936 101.871563 
L 105.676324 108.183584 
L 106.011101 127.960122 
L 106.178489 125.379238 
L 106.345878 131.404368 
L 106.59696 141.998862 
L 106.764349 139.675761 
L 106.931737 145.197219 
L 107.182819 155.067612 
L 107.266514 153.488494 
L 107.350208 153.740411 
L 107.517596 159.025885 
L 107.768679 168.228968 
L 107.852373 167.160928 
L 107.936067 167.620356 
L 108.103455 172.589495 
L 108.354538 181.061824 
L 108.438232 180.357107 
L 108.521926 180.928941 
L 108.689314 185.476964 
L 109.024091 197.655766 
L 109.107785 197.33542 
L 109.191479 197.982441 
L 109.442562 204.791863 
L 109.60995 208.633968 
L 109.693644 208.221521 
L 109.777338 208.73123 
L 109.944727 212.312084 
L 110.195809 218.276507 
L 110.279503 218.021317 
L 110.363198 218.562814 
L 110.61428 224.097786 
L 110.781668 227.342399 
L 110.865362 227.216376 
L 111.032751 228.98331 
L 111.367527 235.831181 
L 111.451222 235.79926 
L 111.61861 237.491654 
L 111.953387 244.989771 
L 112.037081 244.962413 
L 112.204469 242.395466 
L 112.288163 242.394698 
L 112.539246 245.489774 
L 112.62294 244.299051 
L 112.874022 238.323329 
L 113.041411 239.738461 
L 113.125105 240.535387 
L 113.292493 232.046019 
L 113.459882 226.338478 
L 113.543576 226.286406 
L 113.710964 227.808635 
L 113.878352 210.242824 
L 114.045741 198.112579 
L 114.129435 197.126333 
L 114.296823 199.595293 
L 114.464211 158.214231 
L 114.715294 127.478483 
L 114.798988 128.618028 
L 115.133765 146.072647 
L 116.305483 211.165364 
L 117.226119 242.99523 
L 117.811978 257.490583 
L 118.314143 267.474235 
L 119.569555 289.51831 
L 120.322803 298.639271 
L 121.159744 305.879096 
L 122.08038 311.426218 
L 122.666239 313.969989 
L 123.168404 315.659144 
L 123.586875 316.798613 
L 124.674899 319.257359 
L 124.925982 319.492081 
L 125.344453 320.041586 
L 125.595535 320.299183 
L 125.846618 320.60796 
L 126.014006 320.597644 
L 126.265088 320.873079 
L 126.432477 321.009852 
L 126.599865 320.949804 
L 126.767253 321.075352 
L 127.10203 321.451701 
L 127.353112 321.381485 
L 127.687889 321.599404 
L 127.938972 321.455151 
L 128.273748 321.623387 
L 128.524831 321.43616 
L 128.859607 321.572489 
L 129.11069 321.348742 
L 129.445466 321.460067 
L 129.696549 321.207413 
L 129.947631 321.252023 
L 130.031326 320.854142 
L 130.617185 309.027377 
L 130.868267 308.584599 
L 131.035656 309.027715 
L 131.788903 311.565774 
L 132.54215 313.213868 
L 132.709539 313.452024 
L 133.12801 314.622939 
L 133.211704 314.58281 
L 133.379092 314.721443 
L 133.713869 315.338252 
L 133.881257 315.20903 
L 134.048645 315.425843 
L 134.299728 315.753737 
L 134.467116 315.548102 
L 134.634505 315.712275 
L 134.885587 315.970137 
L 135.052975 315.700204 
L 135.220364 315.822829 
L 135.471446 316.025146 
L 135.638834 315.697825 
L 135.806223 315.778338 
L 136.140999 316.240116 
L 136.392082 315.861449 
L 136.643164 316.144871 
L 136.726859 316.055914 
L 136.977941 315.564108 
L 137.229024 315.813831 
L 137.312718 315.708101 
L 137.5638 315.160745 
L 137.814883 315.400113 
L 137.898577 315.28149 
L 138.149659 314.68508 
L 138.400742 314.919601 
L 138.484436 314.78894 
L 138.735518 314.148291 
L 138.902907 314.367247 
L 139.070295 314.664119 
L 139.153989 314.558908 
L 139.405072 313.909751 
L 139.656154 314.134633 
L 139.739848 313.97401 
L 139.990931 313.210227 
L 140.242013 313.421692 
L 140.409402 312.82159 
L 140.57679 312.438295 
L 140.827873 312.660689 
L 140.911567 312.478036 
L 141.162649 311.624698 
L 141.413732 311.860558 
L 141.497426 311.668116 
L 141.748508 310.773583 
L 141.832202 310.819714 
L 142.083285 311.369949 
L 142.166979 311.215682 
L 142.418062 310.324796 
L 142.669144 310.578391 
L 142.836532 309.818809 
L 143.003921 309.32558 
L 143.255003 309.572698 
L 143.422392 308.770326 
L 143.58978 308.253865 
L 143.840862 308.524167 
L 143.924557 308.27798 
L 144.175639 307.145229 
L 144.426721 307.440619 
L 144.510416 307.183436 
L 144.761498 306.001553 
L 144.845192 306.057058 
L 145.096275 306.764638 
L 145.179969 306.558644 
L 145.431051 305.385769 
L 145.682134 305.715882 
L 145.765828 305.42163 
L 146.016911 304.068871 
L 146.267993 304.396099 
L 146.351687 304.084883 
L 146.60277 302.66769 
L 146.770158 302.938145 
L 146.937546 303.344992 
L 147.021241 303.302707 
L 147.188629 303.659531 
L 147.941876 307.512646 
L 148.778818 312.227151 
L 150.117925 318.182155 
L 151.03856 321.115029 
L 151.875502 323.084134 
L 152.712444 324.550347 
L 153.633079 325.717209 
L 154.637409 326.610429 
L 155.223268 326.926966 
L 155.306963 326.82236 
L 155.976516 323.171268 
L 156.311292 320.213625 
L 156.562375 319.266685 
L 156.813457 317.877986 
L 156.980846 317.757994 
L 157.148234 317.832952 
L 157.315622 317.382804 
L 157.483011 317.091391 
L 157.650399 317.221111 
L 158.06887 318.283888 
L 158.403647 319.037591 
L 158.571035 318.922622 
L 158.738423 319.054841 
L 158.905812 319.203261 
L 159.0732 318.761781 
L 159.240588 318.437111 
L 159.575365 318.352269 
L 159.826447 317.743403 
L 159.993836 317.863739 
L 160.161224 318.057872 
L 160.244918 317.966473 
L 160.496001 317.44784 
L 160.663389 317.585373 
L 161.332942 318.958827 
L 161.416636 318.747642 
L 161.667719 317.625292 
L 161.918801 317.403236 
L 162.420966 315.33771 
L 162.50466 315.312337 
L 162.923131 314.132661 
L 163.257908 314.595795 
L 163.425296 314.399998 
L 163.592685 314.599593 
L 163.843767 314.890855 
L 164.011155 314.590125 
L 164.178544 314.714728 
L 164.931791 316.383033 
L 165.09918 315.449939 
L 165.350262 314.551991 
L 165.51765 314.705312 
L 165.852427 315.636665 
L 166.187204 316.771651 
L 166.270898 316.750626 
L 166.52198 316.290176 
L 166.689369 316.373134 
L 166.773063 316.319803 
L 167.358922 313.167028 
L 167.693699 312.896358 
L 167.944781 313.403656 
L 168.028475 313.302654 
L 168.279558 312.658952 
L 168.614334 312.922879 
L 168.781723 312.539342 
L 168.865417 312.541058 
L 169.032805 312.889015 
L 170.622994 317.615862 
L 170.957771 318.289354 
L 171.125159 317.203316 
L 171.376242 316.087539 
L 171.794712 315.807494 
L 171.962101 316.006323 
L 172.213183 316.419995 
L 172.380572 315.207065 
L 172.631654 314.002968 
L 172.799042 314.036304 
L 173.050125 314.304582 
L 173.384902 315.363034 
L 174.054455 317.43702 
L 174.221843 317.494168 
L 174.55662 317.8076 
L 174.724008 316.161529 
L 174.975091 314.430864 
L 175.309867 314.097328 
L 175.56095 313.242524 
L 175.812032 313.37464 
L 175.979421 312.459286 
L 176.146809 311.795417 
L 176.397891 311.771146 
L 176.816362 309.689634 
L 176.900056 309.792012 
L 177.151139 310.69011 
L 177.653304 312.835085 
L 177.820692 312.690583 
L 177.98808 312.93058 
L 178.490245 314.738085 
L 178.825022 315.913937 
L 178.908716 315.817902 
L 179.159799 315.03602 
L 179.410881 315.114327 
L 179.57827 314.380971 
L 179.745658 313.870054 
L 179.913046 313.951133 
L 180.415211 315.080743 
L 181.252153 317.728802 
L 181.335847 317.66548 
L 181.586929 317.071701 
L 181.921706 317.137412 
L 182.172789 316.751327 
L 182.423871 316.869597 
L 182.591259 315.691291 
L 182.842342 314.57158 
L 182.926036 314.563718 
L 183.093424 314.854736 
L 183.595589 316.379283 
L 183.679283 316.155873 
L 183.930366 314.886032 
L 184.097754 314.861593 
L 184.265143 314.932168 
L 184.432531 313.898859 
L 184.683613 313.017303 
L 184.851002 313.015389 
L 185.185778 311.995008 
L 185.269473 312.050954 
L 185.520555 312.711374 
L 186.106414 314.660565 
L 186.190108 314.554699 
L 186.357497 314.588527 
L 186.943356 315.869029 
L 187.947686 318.831128 
L 188.198768 318.431502 
L 188.449851 318.464264 
L 189.370487 314.746526 
L 189.621569 314.689475 
L 190.04004 312.818806 
L 190.123734 312.897349 
L 190.960676 314.425761 
L 191.211758 314.000386 
L 191.462841 314.224142 
L 191.630229 313.158871 
L 191.881311 312.252923 
L 192.0487 312.169004 
L 192.467171 310.053686 
L 192.550865 310.085778 
L 192.718253 310.132588 
L 192.885641 309.829539 
L 193.05303 310.081044 
L 193.304112 310.873142 
L 193.387806 310.744765 
L 193.638889 309.855601 
L 193.806277 310.065008 
L 193.973665 310.379017 
L 194.141054 310.474534 
L 194.559525 311.55259 
L 194.643219 311.391078 
L 194.810607 311.402247 
L 195.06169 311.839023 
L 195.229078 310.676704 
L 195.48016 309.677459 
L 195.647549 309.931126 
L 195.982325 310.963831 
L 196.400796 312.610393 
L 196.568184 312.518437 
L 196.735573 312.805072 
L 196.986655 313.201721 
L 197.154044 312.930103 
L 197.237738 312.960971 
L 197.572514 313.502647 
L 197.739903 313.341521 
L 197.907291 313.581265 
L 198.325762 315.079422 
L 198.660538 316.264758 
L 198.744233 316.12313 
L 198.995315 315.15189 
L 199.079009 315.117739 
L 199.246398 315.359168 
L 200.083339 317.62884 
L 200.50181 318.699398 
L 200.669198 317.304855 
L 200.920281 315.807249 
L 201.087669 315.381364 
L 201.589834 312.092107 
L 201.840917 312.54349 
L 202.259387 314.204259 
L 202.426776 314.679162 
L 202.594164 314.756036 
L 203.012635 315.483202 
L 203.180023 315.240631 
L 203.347412 315.384544 
L 203.598494 315.679458 
L 203.765882 315.491669 
L 203.933271 315.680609 
L 204.100659 315.732628 
L 204.268047 314.173583 
L 204.51913 312.625882 
L 205.021295 311.957686 
L 205.188683 312.334316 
L 205.607154 314.197712 
L 206.611484 318.63164 
L 207.364731 321.030948 
L 208.285367 323.191768 
L 209.122309 324.630093 
L 210.042945 325.773966 
L 211.047274 326.649635 
L 212.135299 327.29598 
L 213.390711 327.782316 
L 214.813512 328.219757 
L 214.897206 328.020552 
L 214.9809 327.116834 
L 216.068924 262.947886 
L 216.152618 262.15147 
L 216.571089 243.573391 
L 216.654783 243.615337 
L 216.738478 243.86109 
L 217.073254 232.282883 
L 217.156948 232.331022 
L 217.408031 236.32886 
L 217.491725 235.395169 
L 217.742807 230.064394 
L 217.910196 231.983405 
L 217.99389 233.266587 
L 218.077584 232.589099 
L 218.244972 228.89603 
L 218.328667 228.81288 
L 218.579749 232.725659 
L 218.663443 232.532349 
L 218.830832 230.104855 
L 218.914526 230.391675 
L 219.249302 234.924745 
L 219.416691 233.418726 
L 219.500385 233.942168 
L 219.835162 238.871908 
L 220.00255 238.008028 
L 220.169938 239.996249 
L 220.504715 246.170386 
L 220.588409 245.731907 
L 220.672103 245.876097 
L 220.839491 247.895088 
L 221.090574 251.313931 
L 221.174268 250.906164 
L 221.257962 251.055582 
L 221.425351 252.961705 
L 221.676433 256.239638 
L 221.760127 255.98271 
L 221.843821 256.21277 
L 222.01121 258.083266 
L 222.262292 261.23433 
L 222.345986 261.095672 
L 222.429681 261.380833 
L 222.597069 263.186906 
L 222.848151 266.177074 
L 222.931845 266.124261 
L 223.099234 267.121258 
L 223.685093 272.968668 
L 223.936175 275.538548 
L 224.103564 277.036515 
L 224.187258 277.039709 
L 224.354646 277.891436 
L 224.773117 281.082424 
L 224.940505 281.902927 
L 225.191588 283.994393 
L 225.275282 283.22012 
L 225.526365 279.098684 
L 225.610059 279.086876 
L 225.777447 279.248392 
L 226.195918 268.696122 
L 226.279612 269.002695 
L 226.447 269.64773 
L 226.614389 259.170479 
L 226.865471 250.017937 
L 226.949165 250.050149 
L 227.032859 249.680614 
L 227.45133 204.909834 
L 227.535024 206.252913 
L 227.618719 206.645707 
L 228.037189 95.81644 
L 228.120884 96.451105 
L 228.371966 111.724493 
L 229.543684 198.059519 
L 230.296932 232.005864 
L 231.050179 255.823503 
L 231.719733 271.294544 
L 232.640368 288.627003 
L 233.393616 298.795912 
L 234.146863 306.276918 
L 234.900111 311.822641 
L 235.737052 316.348685 
L 236.573994 319.634082 
L 237.410936 322.028529 
L 238.247877 323.778762 
L 239.084819 325.060845 
L 239.670678 325.701838 
L 240.256537 325.612825 
L 240.842396 325.12641 
L 241.428255 323.558737 
L 241.511949 323.457533 
L 242.097809 321.395543 
L 242.516279 320.694173 
L 243.018444 321.054038 
L 243.269527 321.388073 
L 243.353221 321.341423 
L 243.604304 320.99562 
L 243.855386 321.048964 
L 244.022774 320.523477 
L 244.273857 320.076447 
L 244.524939 320.161252 
L 244.692328 319.508654 
L 244.94341 318.940775 
L 245.110798 318.766678 
L 245.696658 316.203977 
L 246.031434 315.653012 
L 246.282517 315.936189 
L 246.366211 315.803629 
L 246.617293 315.123143 
L 246.868376 315.157542 
L 247.286847 312.499409 
L 247.370541 312.520255 
L 247.537929 312.534983 
L 247.705317 311.225013 
L 247.9564 310.112963 
L 248.123788 310.045069 
L 248.542259 308.162732 
L 248.625953 308.23303 
L 248.709647 308.355029 
L 248.793342 308.241018 
L 248.96073 307.708003 
L 249.044424 307.704292 
L 249.546589 308.927577 
L 250.299836 311.736655 
L 250.634613 312.920257 
L 250.802001 312.821262 
L 250.96939 313.102485 
L 251.136778 313.386429 
L 251.220472 313.17637 
L 251.471555 312.086876 
L 251.722637 312.105185 
L 251.890026 310.861788 
L 252.141108 309.845072 
L 252.392191 309.843206 
L 252.559579 309.432829 
L 252.643273 309.460821 
L 252.810661 309.905519 
L 253.563909 313.338584 
L 253.647603 313.170516 
L 253.898685 311.983499 
L 254.066074 311.997215 
L 254.149768 312.077611 
L 254.233462 311.963618 
L 254.40085 311.484039 
L 254.484545 311.464724 
L 254.651933 311.795624 
L 255.321486 313.922951 
L 255.488875 312.649315 
L 255.739957 311.397841 
L 255.907345 311.231306 
L 256.325816 309.0874 
L 256.40951 309.207604 
L 256.744287 310.450501 
L 257.162758 312.2892 
L 257.246452 312.113249 
L 257.497534 310.900954 
L 257.748617 310.865113 
L 258.167088 308.063015 
L 258.250782 308.103344 
L 258.585559 308.946049 
L 259.255112 312.172806 
L 260.008359 315.530813 
L 260.175748 315.908143 
L 260.259442 315.610044 
L 260.510524 314.023263 
L 260.677913 313.902438 
L 260.928995 314.439872 
L 261.933325 317.549855 
L 262.100713 316.443765 
L 262.351796 315.30013 
L 262.602878 315.248057 
L 263.105043 312.813926 
L 263.272432 312.781455 
L 263.43982 312.502357 
L 263.607208 312.718191 
L 263.858291 313.143208 
L 264.025679 312.983294 
L 264.193067 313.237978 
L 264.360456 313.588364 
L 264.44415 313.540168 
L 264.695232 313.110388 
L 265.030009 313.595332 
L 265.113703 313.504459 
L 265.281091 313.60624 
L 265.615868 314.335222 
L 265.783256 313.090463 
L 266.034339 311.89838 
L 266.201727 311.79008 
L 266.620198 310.313163 
L 266.871281 310.570818 
L 267.038669 310.398349 
L 267.206057 310.721475 
L 267.373446 311.14996 
L 267.45714 311.097369 
L 267.624528 310.619483 
L 267.708222 310.596817 
L 268.042999 311.157151 
L 268.210387 311.03488 
L 268.377775 311.355149 
L 269.214717 314.101704 
L 269.298411 313.803793 
L 269.549494 312.218859 
L 269.716882 312.144829 
L 270.051659 312.802603 
L 270.637518 314.393254 
L 271.307071 316.031432 
L 271.641848 316.787148 
L 271.809236 315.279515 
L 272.060319 313.698537 
L 272.311401 313.272563 
L 272.562484 312.577831 
L 272.729872 312.799903 
L 272.89726 313.057057 
L 273.064649 313.07072 
L 273.399425 313.702871 
L 273.566814 312.572662 
L 273.817896 311.539977 
L 273.985284 311.693879 
L 274.320061 312.309937 
L 274.654838 313.502804 
L 274.738532 313.415147 
L 274.989614 312.647459 
L 275.240697 312.835247 
L 275.408085 312.087366 
L 275.575473 311.578826 
L 275.826556 311.62269 
L 275.993944 310.153464 
L 276.245027 308.888337 
L 276.412415 308.759903 
L 276.830886 306.207001 
L 276.91458 306.32155 
L 277.249357 307.669017 
L 278.002604 311.2597 
L 279.006934 315.216577 
L 279.174322 315.462908 
L 279.425405 315.930576 
L 279.592793 315.003972 
L 279.843876 314.156457 
L 280.094958 314.052199 
L 280.262347 313.610396 
L 280.346041 313.589323 
L 280.680817 314.103591 
L 280.848206 312.808707 
L 281.099288 311.593527 
L 281.266676 311.390941 
L 281.768841 308.642421 
L 281.852536 308.700421 
L 282.019924 308.146643 
L 282.187312 307.920128 
L 282.354701 308.340279 
L 282.856866 310.954064 
L 283.191642 312.345369 
L 283.526419 313.52848 
L 283.693807 314.018685 
L 283.777501 313.87519 
L 284.028584 312.891054 
L 284.112278 312.886141 
L 284.279666 313.221927 
L 284.865525 315.270443 
L 285.032914 313.89287 
L 285.283996 312.472781 
L 285.451385 312.19553 
L 285.869855 309.571334 
L 285.95355 309.62297 
L 286.288326 310.630936 
L 286.790491 312.563523 
L 287.041574 312.110619 
L 287.292656 312.370982 
L 287.460044 311.154336 
L 287.711127 310.110643 
L 287.878515 310.276153 
L 288.213292 310.669575 
L 288.464374 311.340135 
L 288.631763 310.04374 
L 288.882845 308.858709 
L 289.301316 308.913394 
L 289.468704 309.333935 
L 289.887175 311.504355 
L 290.891505 316.775138 
L 291.728447 319.943479 
L 292.565388 322.254424 
L 293.40233 323.944105 
L 294.322966 325.28607 
L 295.243602 326.240886 
L 296.247931 326.972293 
L 297.41965 327.545725 
L 297.921815 327.743421 
L 298.089203 327.395699 
L 298.675062 322.209753 
L 298.84245 322.131889 
L 299.093533 322.422304 
L 300.934805 325.39354 
L 301.85544 326.317397 
L 302.85977 327.025185 
L 303.445629 327.268466 
L 303.529324 327.169787 
L 304.115183 324.807269 
L 304.366265 324.852807 
L 304.952124 325.459552 
L 305.956454 326.424955 
L 306.709702 326.879527 
L 307.211867 326.907973 
L 307.546643 326.587867 
L 307.797726 326.521379 
L 308.467279 325.284051 
L 308.718362 324.38939 
L 308.969444 324.039931 
L 310.392245 318.404059 
L 310.559633 317.889797 
L 310.810716 317.785076 
L 312.233516 310.335397 
L 312.400905 309.774945 
L 312.568293 309.604037 
L 313.070458 306.631413 
L 313.154152 306.582167 
L 313.572623 303.499329 
L 313.656317 303.673766 
L 313.823705 303.701306 
L 314.91173 288.704722 
L 314.995424 288.616731 
L 315.413895 282.686097 
L 315.497589 282.750606 
L 315.581283 282.868614 
L 315.748671 279.836538 
L 315.91606 277.847743 
L 315.999754 277.882221 
L 316.167142 278.401061 
L 316.33453 275.683529 
L 316.501919 273.999952 
L 316.585613 274.117399 
L 316.836695 276.099657 
L 316.920389 275.569533 
L 317.171472 272.558793 
L 317.422554 273.770703 
L 317.506249 273.122166 
L 317.757331 270.040907 
L 318.008414 271.423 
L 318.092108 270.843282 
L 318.34319 267.97961 
L 318.594273 269.575005 
L 318.677967 269.062244 
L 318.929049 266.387984 
L 319.180132 268.153805 
L 319.263826 267.693309 
L 319.431214 265.33581 
L 319.514909 265.178047 
L 319.682297 266.57442 
L 319.849685 268.506675 
L 319.933379 268.254637 
L 320.100768 266.147288 
L 320.184462 266.025041 
L 320.435544 268.016506 
L 320.519238 267.88938 
L 320.686627 266.502738 
L 320.770321 266.639611 
L 321.105098 269.299212 
L 321.272486 268.829448 
L 321.439874 270.08214 
L 321.690957 272.551965 
L 321.774651 272.532209 
L 321.942039 273.440352 
L 322.193122 275.793591 
L 322.36051 259.641907 
L 322.611593 244.095249 
L 322.695287 243.350494 
L 322.778981 243.715978 
L 323.113757 249.010278 
L 324.955029 288.058249 
L 325.624582 296.454865 
L 326.294136 302.771256 
L 326.963689 307.455581 
L 327.549548 310.556466 
L 328.051713 312.603194 
L 328.470184 313.977528 
L 329.558208 316.956242 
L 329.725596 317.08442 
L 330.729926 318.551566 
L 330.897315 318.519365 
L 331.148397 318.85277 
L 331.315785 319.015178 
L 331.483174 318.921591 
L 331.650562 319.071675 
L 332.989669 321.758103 
L 333.993999 323.725034 
L 334.914634 325.100874 
L 335.83527 326.100636 
L 336.672212 326.721561 
L 337.341765 326.603558 
L 340.103672 327.858781 
L 341.777556 328.205726 
L 344.120992 328.442345 
L 347.970924 328.574373 
L 357.846835 328.616142 
L 624.9986 328.617311 
L 672.202107 328.617311 
L 672.202107 328.617311 
" clip-path="url(#p7640a75ef2)" style="fill: none; stroke: #ff7f0e; stroke-width: 1.5; stroke-linecap: square"/>
   </g>
   <g id="patch_3">
    <path d="M 39.65 342.2 
L 39.65 43.44 
" style="fill: none; stroke: #000000; stroke-width: 0.8; stroke-linejoin: miter; stroke-linecap: square"/>
   </g>
   <g id="patch_4">
    <path d="M 702.323636 342.2 
L 702.323636 43.44 
" style="fill: none; stroke: #000000; stroke-width: 0.8; stroke-linejoin: miter; stroke-linecap: square"/>
   </g>
   <g id="patch_5">
    <path d="M 39.65 342.2 
L 702.323636 342.2 
" style="fill: none; stroke: #000000; stroke-width: 0.8; stroke-linejoin: miter; stroke-linecap: square"/>
   </g>
   <g id="patch_6">
    <path d="M 39.65 43.44 
L 702.323636 43.44 
" style="fill: none; stroke: #000000; stroke-width: 0.8; stroke-linejoin: miter; stroke-linecap: square"/>
   </g>
   <g id="text_13">
    <!-- 1 transformation(s) -->
    <g transform="translate(312.872131 37.44) scale(0.12 -0.12)">
     <defs>
      <path id="DejaVuSans-20" transform="scale(0.015625)"/>
      <path id="DejaVuSans-74" d="M 1172 4494 
L 1172 3500 
L 2356 3500 
L 2356 3053 
L 1172 3053 
L 1172 1153 
Q 1172 725 1289 603 
Q 1406 481 1766 481 
L 2356 481 
L 2356 0 
L 1766 0 
Q 1100 0 847 248 
Q 594 497 594 1153 
L 594 3053 
L 172 3053 
L 172 3500 
L 594 3500 
L 594 4494 
L 1172 4494 
z
" transform="scale(0.015625)"/>
      <path id="DejaVuSans-72" d="M 2631 2963 
Q 2534 3019 2420 3045 
Q 2306 3072 2169 3072 
Q 1681 3072 1420 2755 
Q 1159 2438 1159 1844 
L 1159 0 
L 581 0 
L 581 3500 
L 1159 3500 
L 1159 2956 
Q 1341 3275 1631 3429 
Q 1922 3584 2338 3584 
Q 2397 3584 2469 3576 
Q 2541 3569 2628 3553 
L 2631 2963 
z
" transform="scale(0.015625)"/>
      <path id="DejaVuSans-61" d="M 2194 1759 
Q 1497 1759 1228 1600 
Q 959 1441 959 1056 
Q 959 750 1161 570 
Q 1363 391 1709 391 
Q 2188 391 2477 730 
Q 2766 1069 2766 1631 
L 2766 1759 
L 2194 1759 
z
M 3341 1997 
L 3341 0 
L 2766 0 
L 2766 531 
Q 2569 213 2275 61 
Q 1981 -91 1556 -91 
Q 1019 -91 701 211 
Q 384 513 384 1019 
Q 384 1609 779 1909 
Q 1175 2209 1959 2209 
L 2766 2209 
L 2766 2266 
Q 2766 2663 2505 2880 
Q 2244 3097 1772 3097 
Q 1472 3097 1187 3025 
Q 903 2953 641 2809 
L 641 3341 
Q 956 3463 1253 3523 
Q 1550 3584 1831 3584 
Q 2591 3584 2966 3190 
Q 3341 2797 3341 1997 
z
" transform="scale(0.015625)"/>
      <path id="DejaVuSans-6e" d="M 3513 2113 
L 3513 0 
L 2938 0 
L 2938 2094 
Q 2938 2591 2744 2837 
Q 2550 3084 2163 3084 
Q 1697 3084 1428 2787 
Q 1159 2491 1159 1978 
L 1159 0 
L 581 0 
L 581 3500 
L 1159 3500 
L 1159 2956 
Q 1366 3272 1645 3428 
Q 1925 3584 2291 3584 
Q 2894 3584 3203 3211 
Q 3513 2838 3513 2113 
z
" transform="scale(0.015625)"/>
      <path id="DejaVuSans-73" d="M 2834 3397 
L 2834 2853 
Q 2591 2978 2328 3040 
Q 2066 3103 1784 3103 
Q 1356 3103 1142 2972 
Q 928 2841 928 2578 
Q 928 2378 1081 2264 
Q 1234 2150 1697 2047 
L 1894 2003 
Q 2506 1872 2764 1633 
Q 3022 1394 3022 966 
Q 3022 478 2636 193 
Q 2250 -91 1575 -91 
Q 1294 -91 989 -36 
Q 684 19 347 128 
L 347 722 
Q 666 556 975 473 
Q 1284 391 1588 391 
Q 1994 391 2212 530 
Q 2431 669 2431 922 
Q 2431 1156 2273 1281 
Q 2116 1406 1581 1522 
L 1381 1569 
Q 847 1681 609 1914 
Q 372 2147 372 2553 
Q 372 3047 722 3315 
Q 1072 3584 1716 3584 
Q 2034 3584 2315 3537 
Q 2597 3491 2834 3397 
z
" transform="scale(0.015625)"/>
      <path id="DejaVuSans-66" d="M 2375 4863 
L 2375 4384 
L 1825 4384 
Q 1516 4384 1395 4259 
Q 1275 4134 1275 3809 
L 1275 3500 
L 2222 3500 
L 2222 3053 
L 1275 3053 
L 1275 0 
L 697 0 
L 697 3053 
L 147 3053 
L 147 3500 
L 697 3500 
L 697 3744 
Q 697 4328 969 4595 
Q 1241 4863 1831 4863 
L 2375 4863 
z
" transform="scale(0.015625)"/>
      <path id="DejaVuSans-6f" d="M 1959 3097 
Q 1497 3097 1228 2736 
Q 959 2375 959 1747 
Q 959 1119 1226 758 
Q 1494 397 1959 397 
Q 2419 397 2687 759 
Q 2956 1122 2956 1747 
Q 2956 2369 2687 2733 
Q 2419 3097 1959 3097 
z
M 1959 3584 
Q 2709 3584 3137 3096 
Q 3566 2609 3566 1747 
Q 3566 888 3137 398 
Q 2709 -91 1959 -91 
Q 1206 -91 779 398 
Q 353 888 353 1747 
Q 353 2609 779 3096 
Q 1206 3584 1959 3584 
z
" transform="scale(0.015625)"/>
      <path id="DejaVuSans-6d" d="M 3328 2828 
Q 3544 3216 3844 3400 
Q 4144 3584 4550 3584 
Q 5097 3584 5394 3201 
Q 5691 2819 5691 2113 
L 5691 0 
L 5113 0 
L 5113 2094 
Q 5113 2597 4934 2840 
Q 4756 3084 4391 3084 
Q 3944 3084 3684 2787 
Q 3425 2491 3425 1978 
L 3425 0 
L 2847 0 
L 2847 2094 
Q 2847 2600 2669 2842 
Q 2491 3084 2119 3084 
Q 1678 3084 1418 2786 
Q 1159 2488 1159 1978 
L 1159 0 
L 581 0 
L 581 3500 
L 1159 3500 
L 1159 2956 
Q 1356 3278 1631 3431 
Q 1906 3584 2284 3584 
Q 2666 3584 2933 3390 
Q 3200 3197 3328 2828 
z
" transform="scale(0.015625)"/>
      <path id="DejaVuSans-69" d="M 603 3500 
L 1178 3500 
L 1178 0 
L 603 0 
L 603 3500 
z
M 603 4863 
L 1178 4863 
L 1178 4134 
L 603 4134 
L 603 4863 
z
" transform="scale(0.015625)"/>
      <path id="DejaVuSans-28" d="M 1984 4856 
Q 1566 4138 1362 3434 
Q 1159 2731 1159 2009 
Q 1159 1288 1364 580 
Q 1569 -128 1984 -844 
L 1484 -844 
Q 1016 -109 783 600 
Q 550 1309 550 2009 
Q 550 2706 781 3412 
Q 1013 4119 1484 4856 
L 1984 4856 
z
" transform="scale(0.015625)"/>
      <path id="DejaVuSans-29" d="M 513 4856 
L 1013 4856 
Q 1481 4119 1714 3412 
Q 1947 2706 1947 2009 
Q 1947 1309 1714 600 
Q 1481 -109 1013 -844 
L 513 -844 
Q 928 -128 1133 580 
Q 1338 1288 1338 2009 
Q 1338 2731 1133 3434 
Q 928 4138 513 4856 
z
" transform="scale(0.015625)"/>
     </defs>
     <use xlink:href="#DejaVuSans-31"/>
     <use xlink:href="#DejaVuSans-20" x="63.623047"/>
     <use xlink:href="#DejaVuSans-74" x="95.410156"/>
     <use xlink:href="#DejaVuSans-72" x="134.619141"/>
     <use xlink:href="#DejaVuSans-61" x="175.732422"/>
     <use xlink:href="#DejaVuSans-6e" x="237.011719"/>
     <use xlink:href="#DejaVuSans-73" x="300.390625"/>
     <use xlink:href="#DejaVuSans-66" x="352.490234"/>
     <use xlink:href="#DejaVuSans-6f" x="387.695312"/>
     <use xlink:href="#DejaVuSans-72" x="448.876953"/>
     <use xlink:href="#DejaVuSans-6d" x="488.240234"/>
     <use xlink:href="#DejaVuSans-61" x="585.652344"/>
     <use xlink:href="#DejaVuSans-74" x="646.931641"/>
     <use xlink:href="#DejaVuSans-69" x="686.140625"/>
     <use xlink:href="#DejaVuSans-6f" x="713.923828"/>
     <use xlink:href="#DejaVuSans-6e" x="775.105469"/>
     <use xlink:href="#DejaVuSans-28" x="838.484375"/>
     <use xlink:href="#DejaVuSans-73" x="877.498047"/>
     <use xlink:href="#DejaVuSans-29" x="929.597656"/>
    </g>
   </g>
   <g id="legend_1">
    <g id="patch_7">
     <path d="M 613.929886 80.79625 
L 695.323636 80.79625 
Q 697.323636 80.79625 697.323636 78.79625 
L 697.323636 50.44 
Q 697.323636 48.44 695.323636 48.44 
L 613.929886 48.44 
Q 611.929886 48.44 611.929886 50.44 
L 611.929886 78.79625 
Q 611.929886 80.79625 613.929886 80.79625 
z
" style="fill: #ffffff; opacity: 0.8; stroke: #cccccc; stroke-linejoin: miter"/>
    </g>
    <g id="line2d_15">
     <path d="M 615.929886 56.538437 
L 625.929886 56.538437 
L 635.929886 56.538437 
" style="fill: none; stroke: #1f77b4; stroke-width: 1.5; stroke-linecap: square"/>
    </g>
    <g id="text_14">
     <!-- observed -->
     <g transform="translate(643.929886 60.038437) scale(0.1 -0.1)">
      <defs>
       <path id="DejaVuSans-62" d="M 3116 1747 
Q 3116 2381 2855 2742 
Q 2594 3103 2138 3103 
Q 1681 3103 1420 2742 
Q 1159 2381 1159 1747 
Q 1159 1113 1420 752 
Q 1681 391 2138 391 
Q 2594 391 2855 752 
Q 3116 1113 3116 1747 
z
M 1159 2969 
Q 1341 3281 1617 3432 
Q 1894 3584 2278 3584 
Q 2916 3584 3314 3078 
Q 3713 2572 3713 1747 
Q 3713 922 3314 415 
Q 2916 -91 2278 -91 
Q 1894 -91 1617 61 
Q 1341 213 1159 525 
L 1159 0 
L 581 0 
L 581 4863 
L 1159 4863 
L 1159 2969 
z
" transform="scale(0.015625)"/>
       <path id="DejaVuSans-65" d="M 3597 1894 
L 3597 1613 
L 953 1613 
Q 991 1019 1311 708 
Q 1631 397 2203 397 
Q 2534 397 2845 478 
Q 3156 559 3463 722 
L 3463 178 
Q 3153 47 2828 -22 
Q 2503 -91 2169 -91 
Q 1331 -91 842 396 
Q 353 884 353 1716 
Q 353 2575 817 3079 
Q 1281 3584 2069 3584 
Q 2775 3584 3186 3129 
Q 3597 2675 3597 1894 
z
M 3022 2063 
Q 3016 2534 2758 2815 
Q 2500 3097 2075 3097 
Q 1594 3097 1305 2825 
Q 1016 2553 972 2059 
L 3022 2063 
z
" transform="scale(0.015625)"/>
       <path id="DejaVuSans-76" d="M 191 3500 
L 800 3500 
L 1894 563 
L 2988 3500 
L 3597 3500 
L 2284 0 
L 1503 0 
L 191 3500 
z
" transform="scale(0.015625)"/>
       <path id="DejaVuSans-64" d="M 2906 2969 
L 2906 4863 
L 3481 4863 
L 3481 0 
L 2906 0 
L 2906 525 
Q 2725 213 2448 61 
Q 2172 -91 1784 -91 
Q 1150 -91 751 415 
Q 353 922 353 1747 
Q 353 2572 751 3078 
Q 1150 3584 1784 3584 
Q 2172 3584 2448 3432 
Q 2725 3281 2906 2969 
z
M 947 1747 
Q 947 1113 1208 752 
Q 1469 391 1925 391 
Q 2381 391 2643 752 
Q 2906 1113 2906 1747 
Q 2906 2381 2643 2742 
Q 2381 3103 1925 3103 
Q 1469 3103 1208 2742 
Q 947 2381 947 1747 
z
" transform="scale(0.015625)"/>
      </defs>
      <use xlink:href="#DejaVuSans-6f"/>
      <use xlink:href="#DejaVuSans-62" x="61.181641"/>
      <use xlink:href="#DejaVuSans-73" x="124.658203"/>
      <use xlink:href="#DejaVuSans-65" x="176.757812"/>
      <use xlink:href="#DejaVuSans-72" x="238.28125"/>
      <use xlink:href="#DejaVuSans-76" x="279.394531"/>
      <use xlink:href="#DejaVuSans-65" x="338.574219"/>
      <use xlink:href="#DejaVuSans-64" x="400.097656"/>
     </g>
    </g>
    <g id="line2d_16">
     <path d="M 615.929886 71.216563 
L 625.929886 71.216563 
L 635.929886 71.216563 
" style="fill: none; stroke: #ff7f0e; stroke-width: 1.5; stroke-linecap: square"/>
    </g>
    <g id="text_15">
     <!-- simulated -->
     <g transform="translate(643.929886 74.716563) scale(0.1 -0.1)">
      <defs>
       <path id="DejaVuSans-75" d="M 544 1381 
L 544 3500 
L 1119 3500 
L 1119 1403 
Q 1119 906 1312 657 
Q 1506 409 1894 409 
Q 2359 409 2629 706 
Q 2900 1003 2900 1516 
L 2900 3500 
L 3475 3500 
L 3475 0 
L 2900 0 
L 2900 538 
Q 2691 219 2414 64 
Q 2138 -91 1772 -91 
Q 1169 -91 856 284 
Q 544 659 544 1381 
z
M 1991 3584 
L 1991 3584 
z
" transform="scale(0.015625)"/>
       <path id="DejaVuSans-6c" d="M 603 4863 
L 1178 4863 
L 1178 0 
L 603 0 
L 603 4863 
z
" transform="scale(0.015625)"/>
      </defs>
      <use xlink:href="#DejaVuSans-73"/>
      <use xlink:href="#DejaVuSans-69" x="52.099609"/>
      <use xlink:href="#DejaVuSans-6d" x="79.882812"/>
      <use xlink:href="#DejaVuSans-75" x="177.294922"/>
      <use xlink:href="#DejaVuSans-6c" x="240.673828"/>
      <use xlink:href="#DejaVuSans-61" x="268.457031"/>
      <use xlink:href="#DejaVuSans-74" x="329.736328"/>
      <use xlink:href="#DejaVuSans-65" x="368.945312"/>
      <use xlink:href="#DejaVuSans-64" x="430.46875"/>
     </g>
    </g>
   </g>
  </g>
  <g id="axes_2">
   <g id="patch_8">
    <path d="M 39.65 684.92 
L 702.323636 684.92 
L 702.323636 386.16 
L 39.65 386.16 
z
" style="fill: #ffffff"/>
   </g>
   <g id="matplotlib.axis_3">
    <g id="xtick_7">
     <g id="line2d_17">
      <g>
       <use xlink:href="#med2f720da4" x="69.604141" y="684.92" style="stroke: #000000; stroke-width: 0.8"/>
      </g>
     </g>
     <g id="text_16">
      <!-- 2014-07-01 -->
      <g transform="translate(40.546328 699.518437) scale(0.1 -0.1)">
       <use xlink:href="#DejaVuSans-32"/>
       <use xlink:href="#DejaVuSans-30" x="63.623047"/>
       <use xlink:href="#DejaVuSans-31" x="127.246094"/>
       <use xlink:href="#DejaVuSans-34" x="190.869141"/>
       <use xlink:href="#DejaVuSans-2d" x="254.492188"/>
       <use xlink:href="#DejaVuSans-30" x="290.576172"/>
       <use xlink:href="#DejaVuSans-37" x="354.199219"/>
       <use xlink:href="#DejaVuSans-2d" x="417.822266"/>
       <use xlink:href="#DejaVuSans-30" x="453.90625"/>
       <use xlink:href="#DejaVuSans-31" x="517.529297"/>
      </g>
     </g>
    </g>
    <g id="xtick_8">
     <g id="line2d_18">
      <g>
       <use xlink:href="#med2f720da4" x="190.123734" y="684.92" style="stroke: #000000; stroke-width: 0.8"/>
      </g>
     </g>
     <g id="text_17">
      <!-- 2014-07-02 -->
      <g transform="translate(161.065921 699.518437) scale(0.1 -0.1)">
       <use xlink:href="#DejaVuSans-32"/>
       <use xlink:href="#DejaVuSans-30" x="63.623047"/>
       <use xlink:href="#DejaVuSans-31" x="127.246094"/>
       <use xlink:href="#DejaVuSans-34" x="190.869141"/>
       <use xlink:href="#DejaVuSans-2d" x="254.492188"/>
       <use xlink:href="#DejaVuSans-30" x="290.576172"/>
       <use xlink:href="#DejaVuSans-37" x="354.199219"/>
       <use xlink:href="#DejaVuSans-2d" x="417.822266"/>
       <use xlink:href="#DejaVuSans-30" x="453.90625"/>
       <use xlink:href="#DejaVuSans-32" x="517.529297"/>
      </g>
     </g>
    </g>
    <g id="xtick_9">
     <g id="line2d_19">
      <g>
       <use xlink:href="#med2f720da4" x="310.643327" y="684.92" style="stroke: #000000; stroke-width: 0.8"/>
      </g>
     </g>
     <g id="text_18">
      <!-- 2014-07-03 -->
      <g transform="translate(281.585515 699.518437) scale(0.1 -0.1)">
       <use xlink:href="#DejaVuSans-32"/>
       <use xlink:href="#DejaVuSans-30" x="63.623047"/>
       <use xlink:href="#DejaVuSans-31" x="127.246094"/>
       <use xlink:href="#DejaVuSans-34" x="190.869141"/>
       <use xlink:href="#DejaVuSans-2d" x="254.492188"/>
       <use xlink:href="#DejaVuSans-30" x="290.576172"/>
       <use xlink:href="#DejaVuSans-37" x="354.199219"/>
       <use xlink:href="#DejaVuSans-2d" x="417.822266"/>
       <use xlink:href="#DejaVuSans-30" x="453.90625"/>
       <use xlink:href="#DejaVuSans-33" x="517.529297"/>
      </g>
     </g>
    </g>
    <g id="xtick_10">
     <g id="line2d_20">
      <g>
       <use xlink:href="#med2f720da4" x="431.162921" y="684.92" style="stroke: #000000; stroke-width: 0.8"/>
      </g>
     </g>
     <g id="text_19">
      <!-- 2014-07-04 -->
      <g transform="translate(402.105108 699.518437) scale(0.1 -0.1)">
       <use xlink:href="#DejaVuSans-32"/>
       <use xlink:href="#DejaVuSans-30" x="63.623047"/>
       <use xlink:href="#DejaVuSans-31" x="127.246094"/>
       <use xlink:href="#DejaVuSans-34" x="190.869141"/>
       <use xlink:href="#DejaVuSans-2d" x="254.492188"/>
       <use xlink:href="#DejaVuSans-30" x="290.576172"/>
       <use xlink:href="#DejaVuSans-37" x="354.199219"/>
       <use xlink:href="#DejaVuSans-2d" x="417.822266"/>
       <use xlink:href="#DejaVuSans-30" x="453.90625"/>
       <use xlink:href="#DejaVuSans-34" x="517.529297"/>
      </g>
     </g>
    </g>
    <g id="xtick_11">
     <g id="line2d_21">
      <g>
       <use xlink:href="#med2f720da4" x="551.682514" y="684.92" style="stroke: #000000; stroke-width: 0.8"/>
      </g>
     </g>
     <g id="text_20">
      <!-- 2014-07-05 -->
      <g transform="translate(522.624702 699.518437) scale(0.1 -0.1)">
       <use xlink:href="#DejaVuSans-32"/>
       <use xlink:href="#DejaVuSans-30" x="63.623047"/>
       <use xlink:href="#DejaVuSans-31" x="127.246094"/>
       <use xlink:href="#DejaVuSans-34" x="190.869141"/>
       <use xlink:href="#DejaVuSans-2d" x="254.492188"/>
       <use xlink:href="#DejaVuSans-30" x="290.576172"/>
       <use xlink:href="#DejaVuSans-37" x="354.199219"/>
       <use xlink:href="#DejaVuSans-2d" x="417.822266"/>
       <use xlink:href="#DejaVuSans-30" x="453.90625"/>
       <use xlink:href="#DejaVuSans-35" x="517.529297"/>
      </g>
     </g>
    </g>
    <g id="xtick_12">
     <g id="line2d_22">
      <g>
       <use xlink:href="#med2f720da4" x="672.202107" y="684.92" style="stroke: #000000; stroke-width: 0.8"/>
      </g>
     </g>
     <g id="text_21">
      <!-- 2014-07-06 -->
      <g transform="translate(643.144295 699.518437) scale(0.1 -0.1)">
       <use xlink:href="#DejaVuSans-32"/>
       <use xlink:href="#DejaVuSans-30" x="63.623047"/>
       <use xlink:href="#DejaVuSans-31" x="127.246094"/>
       <use xlink:href="#DejaVuSans-34" x="190.869141"/>
       <use xlink:href="#DejaVuSans-2d" x="254.492188"/>
       <use xlink:href="#DejaVuSans-30" x="290.576172"/>
       <use xlink:href="#DejaVuSans-37" x="354.199219"/>
       <use xlink:href="#DejaVuSans-2d" x="417.822266"/>
       <use xlink:href="#DejaVuSans-30" x="453.90625"/>
       <use xlink:href="#DejaVuSans-36" x="517.529297"/>
      </g>
     </g>
    </g>
   </g>
   <g id="matplotlib.axis_4">
    <g id="ytick_7">
     <g id="line2d_23">
      <g>
       <use xlink:href="#m12b49ec04d" x="39.65" y="671.339999" style="stroke: #000000; stroke-width: 0.8"/>
      </g>
     </g>
     <g id="text_22">
      <!-- 0 -->
      <g transform="translate(26.2875 675.139218) scale(0.1 -0.1)">
       <use xlink:href="#DejaVuSans-30"/>
      </g>
     </g>
    </g>
    <g id="ytick_8">
     <g id="line2d_24">
      <g>
       <use xlink:href="#m12b49ec04d" x="39.65" y="631.092796" style="stroke: #000000; stroke-width: 0.8"/>
      </g>
     </g>
     <g id="text_23">
      <!-- 1000 -->
      <g transform="translate(7.2 634.892014) scale(0.1 -0.1)">
       <use xlink:href="#DejaVuSans-31"/>
       <use xlink:href="#DejaVuSans-30" x="63.623047"/>
       <use xlink:href="#DejaVuSans-30" x="127.246094"/>
       <use xlink:href="#DejaVuSans-30" x="190.869141"/>
      </g>
     </g>
    </g>
    <g id="ytick_9">
     <g id="line2d_25">
      <g>
       <use xlink:href="#m12b49ec04d" x="39.65" y="590.845592" style="stroke: #000000; stroke-width: 0.8"/>
      </g>
     </g>
     <g id="text_24">
      <!-- 2000 -->
      <g transform="translate(7.2 594.64481) scale(0.1 -0.1)">
       <use xlink:href="#DejaVuSans-32"/>
       <use xlink:href="#DejaVuSans-30" x="63.623047"/>
       <use xlink:href="#DejaVuSans-30" x="127.246094"/>
       <use xlink:href="#DejaVuSans-30" x="190.869141"/>
      </g>
     </g>
    </g>
    <g id="ytick_10">
     <g id="line2d_26">
      <g>
       <use xlink:href="#m12b49ec04d" x="39.65" y="550.598388" style="stroke: #000000; stroke-width: 0.8"/>
      </g>
     </g>
     <g id="text_25">
      <!-- 3000 -->
      <g transform="translate(7.2 554.397607) scale(0.1 -0.1)">
       <use xlink:href="#DejaVuSans-33"/>
       <use xlink:href="#DejaVuSans-30" x="63.623047"/>
       <use xlink:href="#DejaVuSans-30" x="127.246094"/>
       <use xlink:href="#DejaVuSans-30" x="190.869141"/>
      </g>
     </g>
    </g>
    <g id="ytick_11">
     <g id="line2d_27">
      <g>
       <use xlink:href="#m12b49ec04d" x="39.65" y="510.351184" style="stroke: #000000; stroke-width: 0.8"/>
      </g>
     </g>
     <g id="text_26">
      <!-- 4000 -->
      <g transform="translate(7.2 514.150403) scale(0.1 -0.1)">
       <use xlink:href="#DejaVuSans-34"/>
       <use xlink:href="#DejaVuSans-30" x="63.623047"/>
       <use xlink:href="#DejaVuSans-30" x="127.246094"/>
       <use xlink:href="#DejaVuSans-30" x="190.869141"/>
      </g>
     </g>
    </g>
    <g id="ytick_12">
     <g id="line2d_28">
      <g>
       <use xlink:href="#m12b49ec04d" x="39.65" y="470.10398" style="stroke: #000000; stroke-width: 0.8"/>
      </g>
     </g>
     <g id="text_27">
      <!-- 5000 -->
      <g transform="translate(7.2 473.903199) scale(0.1 -0.1)">
       <use xlink:href="#DejaVuSans-35"/>
       <use xlink:href="#DejaVuSans-30" x="63.623047"/>
       <use xlink:href="#DejaVuSans-30" x="127.246094"/>
       <use xlink:href="#DejaVuSans-30" x="190.869141"/>
      </g>
     </g>
    </g>
    <g id="ytick_13">
     <g id="line2d_29">
      <g>
       <use xlink:href="#m12b49ec04d" x="39.65" y="429.856777" style="stroke: #000000; stroke-width: 0.8"/>
      </g>
     </g>
     <g id="text_28">
      <!-- 6000 -->
      <g transform="translate(7.2 433.655995) scale(0.1 -0.1)">
       <use xlink:href="#DejaVuSans-36"/>
       <use xlink:href="#DejaVuSans-30" x="63.623047"/>
       <use xlink:href="#DejaVuSans-30" x="127.246094"/>
       <use xlink:href="#DejaVuSans-30" x="190.869141"/>
      </g>
     </g>
    </g>
    <g id="ytick_14">
     <g id="line2d_30">
      <g>
       <use xlink:href="#m12b49ec04d" x="39.65" y="389.609573" style="stroke: #000000; stroke-width: 0.8"/>
      </g>
     </g>
     <g id="text_29">
      <!-- 7000 -->
      <g transform="translate(7.2 393.408792) scale(0.1 -0.1)">
       <use xlink:href="#DejaVuSans-37"/>
       <use xlink:href="#DejaVuSans-30" x="63.623047"/>
       <use xlink:href="#DejaVuSans-30" x="127.246094"/>
       <use xlink:href="#DejaVuSans-30" x="190.869141"/>
      </g>
     </g>
    </g>
   </g>
   <g id="line2d_31">
    <path d="M 69.771529 671.339992 
L 203.5148 671.330959 
L 672.202107 671.339989 
L 672.202107 671.339989 
" clip-path="url(#pf5793fb5d5)" style="fill: none; stroke: #1f77b4; stroke-width: 1.5; stroke-linecap: square"/>
   </g>
   <g id="line2d_32">
    <path d="M 69.771529 671.339999 
L 114.464211 671.229196 
L 115.803318 671.20135 
L 117.811978 671.078581 
L 118.481531 670.878595 
L 118.816308 670.557575 
L 118.983696 670.118552 
L 119.06739 669.632134 
L 119.151085 668.486121 
L 119.234779 662.640368 
L 119.402167 399.740219 
L 672.202107 399.740217 
L 672.202107 399.740217 
" clip-path="url(#pf5793fb5d5)" style="fill: none; stroke: #ff7f0e; stroke-width: 1.5; stroke-linecap: square"/>
   </g>
   <g id="patch_9">
    <path d="M 39.65 684.92 
L 39.65 386.16 
" style="fill: none; stroke: #000000; stroke-width: 0.8; stroke-linejoin: miter; stroke-linecap: square"/>
   </g>
   <g id="patch_10">
    <path d="M 702.323636 684.92 
L 702.323636 386.16 
" style="fill: none; stroke: #000000; stroke-width: 0.8; stroke-linejoin: miter; stroke-linecap: square"/>
   </g>
   <g id="patch_11">
    <path d="M 39.65 684.92 
L 702.323636 684.92 
" style="fill: none; stroke: #000000; stroke-width: 0.8; stroke-linejoin: miter; stroke-linecap: square"/>
   </g>
   <g id="patch_12">
    <path d="M 39.65 386.16 
L 702.323636 386.16 
" style="fill: none; stroke: #000000; stroke-width: 0.8; stroke-linejoin: miter; stroke-linecap: square"/>
   </g>
   <g id="text_30">
    <!-- 2 transformation(s) -->
    <g transform="translate(312.872131 380.16) scale(0.12 -0.12)">
     <use xlink:href="#DejaVuSans-32"/>
     <use xlink:href="#DejaVuSans-20" x="63.623047"/>
     <use xlink:href="#DejaVuSans-74" x="95.410156"/>
     <use xlink:href="#DejaVuSans-72" x="134.619141"/>
     <use xlink:href="#DejaVuSans-61" x="175.732422"/>
     <use xlink:href="#DejaVuSans-6e" x="237.011719"/>
     <use xlink:href="#DejaVuSans-73" x="300.390625"/>
     <use xlink:href="#DejaVuSans-66" x="352.490234"/>
     <use xlink:href="#DejaVuSans-6f" x="387.695312"/>
     <use xlink:href="#DejaVuSans-72" x="448.876953"/>
     <use xlink:href="#DejaVuSans-6d" x="488.240234"/>
     <use xlink:href="#DejaVuSans-61" x="585.652344"/>
     <use xlink:href="#DejaVuSans-74" x="646.931641"/>
     <use xlink:href="#DejaVuSans-69" x="686.140625"/>
     <use xlink:href="#DejaVuSans-6f" x="713.923828"/>
     <use xlink:href="#DejaVuSans-6e" x="775.105469"/>
     <use xlink:href="#DejaVuSans-28" x="838.484375"/>
     <use xlink:href="#DejaVuSans-73" x="877.498047"/>
     <use xlink:href="#DejaVuSans-29" x="929.597656"/>
    </g>
   </g>
  </g>
  <g id="text_31">
   <!-- training -->
   <g transform="translate(333.316563 16.318125) scale(0.12 -0.12)">
    <defs>
     <path id="DejaVuSans-67" d="M 2906 1791 
Q 2906 2416 2648 2759 
Q 2391 3103 1925 3103 
Q 1463 3103 1205 2759 
Q 947 2416 947 1791 
Q 947 1169 1205 825 
Q 1463 481 1925 481 
Q 2391 481 2648 825 
Q 2906 1169 2906 1791 
z
M 3481 434 
Q 3481 -459 3084 -895 
Q 2688 -1331 1869 -1331 
Q 1566 -1331 1297 -1286 
Q 1028 -1241 775 -1147 
L 775 -588 
Q 1028 -725 1275 -790 
Q 1522 -856 1778 -856 
Q 2344 -856 2625 -561 
Q 2906 -266 2906 331 
L 2906 616 
Q 2728 306 2450 153 
Q 2172 0 1784 0 
Q 1141 0 747 490 
Q 353 981 353 1791 
Q 353 2603 747 3093 
Q 1141 3584 1784 3584 
Q 2172 3584 2450 3431 
Q 2728 3278 2906 2969 
L 2906 3500 
L 3481 3500 
L 3481 434 
z
" transform="scale(0.015625)"/>
    </defs>
    <use xlink:href="#DejaVuSans-74"/>
    <use xlink:href="#DejaVuSans-72" x="39.208984"/>
    <use xlink:href="#DejaVuSans-61" x="80.322266"/>
    <use xlink:href="#DejaVuSans-69" x="141.601562"/>
    <use xlink:href="#DejaVuSans-6e" x="169.384766"/>
    <use xlink:href="#DejaVuSans-69" x="232.763672"/>
    <use xlink:href="#DejaVuSans-6e" x="260.546875"/>
    <use xlink:href="#DejaVuSans-67" x="323.925781"/>
   </g>
  </g>
 </g>
 <defs>
  <clipPath id="p7640a75ef2">
   <rect x="39.65" y="43.44" width="662.673636" height="298.76"/>
  </clipPath>
  <clipPath id="pf5793fb5d5">
   <rect x="39.65" y="386.16" width="662.673636" height="298.76"/>
  </clipPath>
 </defs>
</svg>
