<?xml version="1.0" encoding="utf-8" standalone="no"?>
<!DOCTYPE svg PUBLIC "-//W3C//DTD SVG 1.1//EN"
  "http://www.w3.org/Graphics/SVG/1.1/DTD/svg11.dtd">
<svg xmlns:xlink="http://www.w3.org/1999/xlink" width="711.336548pt" height="708.798125pt" viewBox="0 0 711.336548 708.798125" xmlns="http://www.w3.org/2000/svg" version="1.1">
 <metadata>
  <rdf:RDF xmlns:dc="http://purl.org/dc/elements/1.1/" xmlns:cc="http://creativecommons.org/ns#" xmlns:rdf="http://www.w3.org/1999/02/22-rdf-syntax-ns#">
   <cc:Work>
    <dc:type rdf:resource="http://purl.org/dc/dcmitype/StillImage"/>
    <dc:date>2023-07-16T19:15:17.857494</dc:date>
    <dc:format>image/svg+xml</dc:format>
    <dc:creator>
     <cc:Agent>
      <dc:title>Matplotlib v3.7.1, https://matplotlib.org/</dc:title>
     </cc:Agent>
    </dc:creator>
   </cc:Work>
  </rdf:RDF>
 </metadata>
 <defs>
  <style type="text/css">*{stroke-linejoin: round; stroke-linecap: butt}</style>
 </defs>
 <g id="figure_1">
  <g id="patch_1">
   <path d="M 0 708.798125 
L 711.336548 708.798125 
L 711.336548 0 
L 0 0 
z
" style="fill: #ffffff"/>
  </g>
  <g id="axes_1">
   <g id="patch_2">
    <path d="M 33.2875 342.2 
L 704.136548 342.2 
L 704.136548 43.44 
L 33.2875 43.44 
z
" style="fill: #ffffff"/>
   </g>
   <g id="matplotlib.axis_1">
    <g id="xtick_1">
     <g id="line2d_1">
      <defs>
       <path id="ma1a2e2a450" d="M 0 0 
L 0 3.5 
" style="stroke: #000000; stroke-width: 0.8"/>
      </defs>
      <g>
       <use xlink:href="#ma1a2e2a450" x="80.57692" y="342.2" style="stroke: #000000; stroke-width: 0.8"/>
      </g>
     </g>
     <g id="text_1">
      <!-- 2000 -->
      <g transform="translate(67.85192 356.798437) scale(0.1 -0.1)">
       <defs>
        <path id="DejaVuSans-32" d="M 1228 531 
L 3431 531 
L 3431 0 
L 469 0 
L 469 531 
Q 828 903 1448 1529 
Q 2069 2156 2228 2338 
Q 2531 2678 2651 2914 
Q 2772 3150 2772 3378 
Q 2772 3750 2511 3984 
Q 2250 4219 1831 4219 
Q 1534 4219 1204 4116 
Q 875 4013 500 3803 
L 500 4441 
Q 881 4594 1212 4672 
Q 1544 4750 1819 4750 
Q 2544 4750 2975 4387 
Q 3406 4025 3406 3419 
Q 3406 3131 3298 2873 
Q 3191 2616 2906 2266 
Q 2828 2175 2409 1742 
Q 1991 1309 1228 531 
z
" transform="scale(0.015625)"/>
        <path id="DejaVuSans-30" d="M 2034 4250 
Q 1547 4250 1301 3770 
Q 1056 3291 1056 2328 
Q 1056 1369 1301 889 
Q 1547 409 2034 409 
Q 2525 409 2770 889 
Q 3016 1369 3016 2328 
Q 3016 3291 2770 3770 
Q 2525 4250 2034 4250 
z
M 2034 4750 
Q 2819 4750 3233 4129 
Q 3647 3509 3647 2328 
Q 3647 1150 3233 529 
Q 2819 -91 2034 -91 
Q 1250 -91 836 529 
Q 422 1150 422 2328 
Q 422 3509 836 4129 
Q 1250 4750 2034 4750 
z
" transform="scale(0.015625)"/>
       </defs>
       <use xlink:href="#DejaVuSans-32"/>
       <use xlink:href="#DejaVuSans-30" x="63.623047"/>
       <use xlink:href="#DejaVuSans-30" x="127.246094"/>
       <use xlink:href="#DejaVuSans-30" x="190.869141"/>
      </g>
     </g>
    </g>
    <g id="xtick_2">
     <g id="line2d_2">
      <g>
       <use xlink:href="#ma1a2e2a450" x="148.504423" y="342.2" style="stroke: #000000; stroke-width: 0.8"/>
      </g>
     </g>
     <g id="text_2">
      <!-- 2001 -->
      <g transform="translate(135.779423 356.798437) scale(0.1 -0.1)">
       <defs>
        <path id="DejaVuSans-31" d="M 794 531 
L 1825 531 
L 1825 4091 
L 703 3866 
L 703 4441 
L 1819 4666 
L 2450 4666 
L 2450 531 
L 3481 531 
L 3481 0 
L 794 0 
L 794 531 
z
" transform="scale(0.015625)"/>
       </defs>
       <use xlink:href="#DejaVuSans-32"/>
       <use xlink:href="#DejaVuSans-30" x="63.623047"/>
       <use xlink:href="#DejaVuSans-30" x="127.246094"/>
       <use xlink:href="#DejaVuSans-31" x="190.869141"/>
      </g>
     </g>
    </g>
    <g id="xtick_3">
     <g id="line2d_3">
      <g>
       <use xlink:href="#ma1a2e2a450" x="216.246331" y="342.2" style="stroke: #000000; stroke-width: 0.8"/>
      </g>
     </g>
     <g id="text_3">
      <!-- 2002 -->
      <g transform="translate(203.521331 356.798437) scale(0.1 -0.1)">
       <use xlink:href="#DejaVuSans-32"/>
       <use xlink:href="#DejaVuSans-30" x="63.623047"/>
       <use xlink:href="#DejaVuSans-30" x="127.246094"/>
       <use xlink:href="#DejaVuSans-32" x="190.869141"/>
      </g>
     </g>
    </g>
    <g id="xtick_4">
     <g id="line2d_4">
      <g>
       <use xlink:href="#ma1a2e2a450" x="283.98824" y="342.2" style="stroke: #000000; stroke-width: 0.8"/>
      </g>
     </g>
     <g id="text_4">
      <!-- 2003 -->
      <g transform="translate(271.26324 356.798437) scale(0.1 -0.1)">
       <defs>
        <path id="DejaVuSans-33" d="M 2597 2516 
Q 3050 2419 3304 2112 
Q 3559 1806 3559 1356 
Q 3559 666 3084 287 
Q 2609 -91 1734 -91 
Q 1441 -91 1130 -33 
Q 819 25 488 141 
L 488 750 
Q 750 597 1062 519 
Q 1375 441 1716 441 
Q 2309 441 2620 675 
Q 2931 909 2931 1356 
Q 2931 1769 2642 2001 
Q 2353 2234 1838 2234 
L 1294 2234 
L 1294 2753 
L 1863 2753 
Q 2328 2753 2575 2939 
Q 2822 3125 2822 3475 
Q 2822 3834 2567 4026 
Q 2313 4219 1838 4219 
Q 1578 4219 1281 4162 
Q 984 4106 628 3988 
L 628 4550 
Q 988 4650 1302 4700 
Q 1616 4750 1894 4750 
Q 2613 4750 3031 4423 
Q 3450 4097 3450 3541 
Q 3450 3153 3228 2886 
Q 3006 2619 2597 2516 
z
" transform="scale(0.015625)"/>
       </defs>
       <use xlink:href="#DejaVuSans-32"/>
       <use xlink:href="#DejaVuSans-30" x="63.623047"/>
       <use xlink:href="#DejaVuSans-30" x="127.246094"/>
       <use xlink:href="#DejaVuSans-33" x="190.869141"/>
      </g>
     </g>
    </g>
    <g id="xtick_5">
     <g id="line2d_5">
      <g>
       <use xlink:href="#ma1a2e2a450" x="351.730148" y="342.2" style="stroke: #000000; stroke-width: 0.8"/>
      </g>
     </g>
     <g id="text_5">
      <!-- 2004 -->
      <g transform="translate(339.005148 356.798437) scale(0.1 -0.1)">
       <defs>
        <path id="DejaVuSans-34" d="M 2419 4116 
L 825 1625 
L 2419 1625 
L 2419 4116 
z
M 2253 4666 
L 3047 4666 
L 3047 1625 
L 3713 1625 
L 3713 1100 
L 3047 1100 
L 3047 0 
L 2419 0 
L 2419 1100 
L 313 1100 
L 313 1709 
L 2253 4666 
z
" transform="scale(0.015625)"/>
       </defs>
       <use xlink:href="#DejaVuSans-32"/>
       <use xlink:href="#DejaVuSans-30" x="63.623047"/>
       <use xlink:href="#DejaVuSans-30" x="127.246094"/>
       <use xlink:href="#DejaVuSans-34" x="190.869141"/>
      </g>
     </g>
    </g>
    <g id="xtick_6">
     <g id="line2d_6">
      <g>
       <use xlink:href="#ma1a2e2a450" x="419.657651" y="342.2" style="stroke: #000000; stroke-width: 0.8"/>
      </g>
     </g>
     <g id="text_6">
      <!-- 2005 -->
      <g transform="translate(406.932651 356.798437) scale(0.1 -0.1)">
       <defs>
        <path id="DejaVuSans-35" d="M 691 4666 
L 3169 4666 
L 3169 4134 
L 1269 4134 
L 1269 2991 
Q 1406 3038 1543 3061 
Q 1681 3084 1819 3084 
Q 2600 3084 3056 2656 
Q 3513 2228 3513 1497 
Q 3513 744 3044 326 
Q 2575 -91 1722 -91 
Q 1428 -91 1123 -41 
Q 819 9 494 109 
L 494 744 
Q 775 591 1075 516 
Q 1375 441 1709 441 
Q 2250 441 2565 725 
Q 2881 1009 2881 1497 
Q 2881 1984 2565 2268 
Q 2250 2553 1709 2553 
Q 1456 2553 1204 2497 
Q 953 2441 691 2322 
L 691 4666 
z
" transform="scale(0.015625)"/>
       </defs>
       <use xlink:href="#DejaVuSans-32"/>
       <use xlink:href="#DejaVuSans-30" x="63.623047"/>
       <use xlink:href="#DejaVuSans-30" x="127.246094"/>
       <use xlink:href="#DejaVuSans-35" x="190.869141"/>
      </g>
     </g>
    </g>
    <g id="xtick_7">
     <g id="line2d_7">
      <g>
       <use xlink:href="#ma1a2e2a450" x="487.39956" y="342.2" style="stroke: #000000; stroke-width: 0.8"/>
      </g>
     </g>
     <g id="text_7">
      <!-- 2006 -->
      <g transform="translate(474.67456 356.798437) scale(0.1 -0.1)">
       <defs>
        <path id="DejaVuSans-36" d="M 2113 2584 
Q 1688 2584 1439 2293 
Q 1191 2003 1191 1497 
Q 1191 994 1439 701 
Q 1688 409 2113 409 
Q 2538 409 2786 701 
Q 3034 994 3034 1497 
Q 3034 2003 2786 2293 
Q 2538 2584 2113 2584 
z
M 3366 4563 
L 3366 3988 
Q 3128 4100 2886 4159 
Q 2644 4219 2406 4219 
Q 1781 4219 1451 3797 
Q 1122 3375 1075 2522 
Q 1259 2794 1537 2939 
Q 1816 3084 2150 3084 
Q 2853 3084 3261 2657 
Q 3669 2231 3669 1497 
Q 3669 778 3244 343 
Q 2819 -91 2113 -91 
Q 1303 -91 875 529 
Q 447 1150 447 2328 
Q 447 3434 972 4092 
Q 1497 4750 2381 4750 
Q 2619 4750 2861 4703 
Q 3103 4656 3366 4563 
z
" transform="scale(0.015625)"/>
       </defs>
       <use xlink:href="#DejaVuSans-32"/>
       <use xlink:href="#DejaVuSans-30" x="63.623047"/>
       <use xlink:href="#DejaVuSans-30" x="127.246094"/>
       <use xlink:href="#DejaVuSans-36" x="190.869141"/>
      </g>
     </g>
    </g>
    <g id="xtick_8">
     <g id="line2d_8">
      <g>
       <use xlink:href="#ma1a2e2a450" x="555.141468" y="342.2" style="stroke: #000000; stroke-width: 0.8"/>
      </g>
     </g>
     <g id="text_8">
      <!-- 2007 -->
      <g transform="translate(542.416468 356.798437) scale(0.1 -0.1)">
       <defs>
        <path id="DejaVuSans-37" d="M 525 4666 
L 3525 4666 
L 3525 4397 
L 1831 0 
L 1172 0 
L 2766 4134 
L 525 4134 
L 525 4666 
z
" transform="scale(0.015625)"/>
       </defs>
       <use xlink:href="#DejaVuSans-32"/>
       <use xlink:href="#DejaVuSans-30" x="63.623047"/>
       <use xlink:href="#DejaVuSans-30" x="127.246094"/>
       <use xlink:href="#DejaVuSans-37" x="190.869141"/>
      </g>
     </g>
    </g>
    <g id="xtick_9">
     <g id="line2d_9">
      <g>
       <use xlink:href="#ma1a2e2a450" x="622.883377" y="342.2" style="stroke: #000000; stroke-width: 0.8"/>
      </g>
     </g>
     <g id="text_9">
      <!-- 2008 -->
      <g transform="translate(610.158377 356.798437) scale(0.1 -0.1)">
       <defs>
        <path id="DejaVuSans-38" d="M 2034 2216 
Q 1584 2216 1326 1975 
Q 1069 1734 1069 1313 
Q 1069 891 1326 650 
Q 1584 409 2034 409 
Q 2484 409 2743 651 
Q 3003 894 3003 1313 
Q 3003 1734 2745 1975 
Q 2488 2216 2034 2216 
z
M 1403 2484 
Q 997 2584 770 2862 
Q 544 3141 544 3541 
Q 544 4100 942 4425 
Q 1341 4750 2034 4750 
Q 2731 4750 3128 4425 
Q 3525 4100 3525 3541 
Q 3525 3141 3298 2862 
Q 3072 2584 2669 2484 
Q 3125 2378 3379 2068 
Q 3634 1759 3634 1313 
Q 3634 634 3220 271 
Q 2806 -91 2034 -91 
Q 1263 -91 848 271 
Q 434 634 434 1313 
Q 434 1759 690 2068 
Q 947 2378 1403 2484 
z
M 1172 3481 
Q 1172 3119 1398 2916 
Q 1625 2713 2034 2713 
Q 2441 2713 2670 2916 
Q 2900 3119 2900 3481 
Q 2900 3844 2670 4047 
Q 2441 4250 2034 4250 
Q 1625 4250 1398 4047 
Q 1172 3844 1172 3481 
z
" transform="scale(0.015625)"/>
       </defs>
       <use xlink:href="#DejaVuSans-32"/>
       <use xlink:href="#DejaVuSans-30" x="63.623047"/>
       <use xlink:href="#DejaVuSans-30" x="127.246094"/>
       <use xlink:href="#DejaVuSans-38" x="190.869141"/>
      </g>
     </g>
    </g>
    <g id="xtick_10">
     <g id="line2d_10">
      <g>
       <use xlink:href="#ma1a2e2a450" x="690.810879" y="342.2" style="stroke: #000000; stroke-width: 0.8"/>
      </g>
     </g>
     <g id="text_10">
      <!-- 2009 -->
      <g transform="translate(678.085879 356.798437) scale(0.1 -0.1)">
       <defs>
        <path id="DejaVuSans-39" d="M 703 97 
L 703 672 
Q 941 559 1184 500 
Q 1428 441 1663 441 
Q 2288 441 2617 861 
Q 2947 1281 2994 2138 
Q 2813 1869 2534 1725 
Q 2256 1581 1919 1581 
Q 1219 1581 811 2004 
Q 403 2428 403 3163 
Q 403 3881 828 4315 
Q 1253 4750 1959 4750 
Q 2769 4750 3195 4129 
Q 3622 3509 3622 2328 
Q 3622 1225 3098 567 
Q 2575 -91 1691 -91 
Q 1453 -91 1209 -44 
Q 966 3 703 97 
z
M 1959 2075 
Q 2384 2075 2632 2365 
Q 2881 2656 2881 3163 
Q 2881 3666 2632 3958 
Q 2384 4250 1959 4250 
Q 1534 4250 1286 3958 
Q 1038 3666 1038 3163 
Q 1038 2656 1286 2365 
Q 1534 2075 1959 2075 
z
" transform="scale(0.015625)"/>
       </defs>
       <use xlink:href="#DejaVuSans-32"/>
       <use xlink:href="#DejaVuSans-30" x="63.623047"/>
       <use xlink:href="#DejaVuSans-30" x="127.246094"/>
       <use xlink:href="#DejaVuSans-39" x="190.869141"/>
      </g>
     </g>
    </g>
   </g>
   <g id="matplotlib.axis_2">
    <g id="ytick_1">
     <g id="line2d_11">
      <defs>
       <path id="m80b8a30a3b" d="M 0 0 
L -3.5 0 
" style="stroke: #000000; stroke-width: 0.8"/>
      </defs>
      <g>
       <use xlink:href="#m80b8a30a3b" x="33.2875" y="328.62" style="stroke: #000000; stroke-width: 0.8"/>
      </g>
     </g>
     <g id="text_11">
      <!-- 0 -->
      <g transform="translate(19.925 332.419219) scale(0.1 -0.1)">
       <use xlink:href="#DejaVuSans-30"/>
      </g>
     </g>
    </g>
    <g id="ytick_2">
     <g id="line2d_12">
      <g>
       <use xlink:href="#m80b8a30a3b" x="33.2875" y="280.547587" style="stroke: #000000; stroke-width: 0.8"/>
      </g>
     </g>
     <g id="text_12">
      <!-- 20 -->
      <g transform="translate(13.5625 284.346806) scale(0.1 -0.1)">
       <use xlink:href="#DejaVuSans-32"/>
       <use xlink:href="#DejaVuSans-30" x="63.623047"/>
      </g>
     </g>
    </g>
    <g id="ytick_3">
     <g id="line2d_13">
      <g>
       <use xlink:href="#m80b8a30a3b" x="33.2875" y="232.475174" style="stroke: #000000; stroke-width: 0.8"/>
      </g>
     </g>
     <g id="text_13">
      <!-- 40 -->
      <g transform="translate(13.5625 236.274393) scale(0.1 -0.1)">
       <use xlink:href="#DejaVuSans-34"/>
       <use xlink:href="#DejaVuSans-30" x="63.623047"/>
      </g>
     </g>
    </g>
    <g id="ytick_4">
     <g id="line2d_14">
      <g>
       <use xlink:href="#m80b8a30a3b" x="33.2875" y="184.402761" style="stroke: #000000; stroke-width: 0.8"/>
      </g>
     </g>
     <g id="text_14">
      <!-- 60 -->
      <g transform="translate(13.5625 188.20198) scale(0.1 -0.1)">
       <use xlink:href="#DejaVuSans-36"/>
       <use xlink:href="#DejaVuSans-30" x="63.623047"/>
      </g>
     </g>
    </g>
    <g id="ytick_5">
     <g id="line2d_15">
      <g>
       <use xlink:href="#m80b8a30a3b" x="33.2875" y="136.330348" style="stroke: #000000; stroke-width: 0.8"/>
      </g>
     </g>
     <g id="text_15">
      <!-- 80 -->
      <g transform="translate(13.5625 140.129567) scale(0.1 -0.1)">
       <use xlink:href="#DejaVuSans-38"/>
       <use xlink:href="#DejaVuSans-30" x="63.623047"/>
      </g>
     </g>
    </g>
    <g id="ytick_6">
     <g id="line2d_16">
      <g>
       <use xlink:href="#m80b8a30a3b" x="33.2875" y="88.257935" style="stroke: #000000; stroke-width: 0.8"/>
      </g>
     </g>
     <g id="text_16">
      <!-- 100 -->
      <g transform="translate(7.2 92.057153) scale(0.1 -0.1)">
       <use xlink:href="#DejaVuSans-31"/>
       <use xlink:href="#DejaVuSans-30" x="63.623047"/>
       <use xlink:href="#DejaVuSans-30" x="127.246094"/>
      </g>
     </g>
    </g>
   </g>
   <g id="line2d_17">
    <path d="M 63.780639 328.382522 
L 68.234901 328.362332 
L 68.420495 328.260899 
L 68.60609 325.137634 
L 68.791684 327.693164 
L 68.977278 328.139276 
L 69.905249 328.240709 
L 70.462032 328.179897 
L 70.647627 328.037843 
L 71.018815 328.159466 
L 71.946786 328.159466 
L 72.503569 328.159466 
L 72.874758 327.753975 
L 73.245946 327.956841 
L 73.617135 328.017653 
L 79.92734 328.119085 
L 81.2265 328.159466 
L 83.082443 328.098655 
L 83.453631 327.652543 
L 83.639225 327.834977 
L 83.82482 327.328054 
L 84.010414 325.948856 
L 84.196008 325.745991 
L 84.381603 325.745991 
L 84.752791 326.151722 
L 84.938385 325.948856 
L 85.12398 325.3405 
L 86.051951 326.354588 
L 86.237545 326.354588 
L 86.423139 326.557213 
L 86.608734 326.354588 
L 86.979922 326.354588 
L 87.165517 326.557213 
L 87.907894 326.557213 
L 88.093488 326.354588 
L 88.464676 326.354588 
L 88.650271 325.745991 
L 88.835865 311.549246 
L 89.021459 321.28415 
L 89.207054 323.51519 
L 89.578242 324.731903 
L 89.763836 324.934769 
L 89.949431 324.934769 
L 90.135025 325.137634 
L 90.320619 325.137634 
L 90.691808 325.543366 
L 91.24859 325.543366 
L 91.434185 325.745991 
L 91.805373 325.137634 
L 92.176562 325.745991 
L 92.362156 325.745991 
L 92.54775 325.543366 
L 92.918939 325.948856 
L 93.104533 325.948856 
L 93.290127 325.745991 
L 93.475722 325.948856 
L 93.84691 325.948856 
L 94.218099 325.543366 
L 94.589287 324.934769 
L 94.774882 324.934769 
L 94.960476 324.731903 
L 95.14607 323.718056 
L 95.331664 323.51519 
L 95.517259 323.920681 
L 95.702853 323.920681 
L 96.259636 322.095372 
L 96.630824 320.270062 
L 96.816419 320.270062 
L 97.373201 321.28415 
L 97.558796 320.878659 
L 97.74439 319.661706 
L 97.929984 317.025174 
L 98.115578 312.157602 
L 98.301173 311.34638 
L 98.486767 312.157602 
L 98.672361 312.360468 
L 98.857956 311.752111 
L 99.04355 312.766199 
L 99.229144 312.360468 
L 99.600333 309.926802 
L 99.785927 300.800254 
L 100.157115 312.766199 
L 100.34271 314.794134 
L 100.528304 314.388643 
L 100.899493 316.416818 
L 101.085087 315.605356 
L 101.270681 313.374555 
L 101.456275 312.563333 
L 101.64187 312.360468 
L 101.827464 311.752111 
L 102.013058 310.129427 
L 102.198652 307.087405 
L 102.384247 301.814342 
L 102.569841 301.408611 
L 102.755435 306.073317 
L 102.941029 306.276183 
L 103.312218 301.814342 
L 103.497812 300.800254 
L 103.869001 297.555126 
L 104.054595 302.828429 
L 104.240189 299.583301 
L 104.425784 262.874245 
L 104.611378 297.960857 
L 104.796972 299.17781 
L 104.982566 305.667586 
L 105.353755 309.723936 
L 105.724944 308.506983 
L 106.096132 311.549246 
L 106.281726 310.129427 
L 107.209698 289.848397 
L 107.395292 279.302031 
L 107.766481 294.715729 
L 107.952075 296.338413 
L 108.137669 296.743904 
L 108.323263 297.960857 
L 108.694452 307.29027 
L 108.880046 308.912714 
L 109.251235 309.521071 
L 109.436829 308.506983 
L 109.622423 308.506983 
L 109.808017 310.738024 
L 110.179206 311.954737 
L 110.550395 316.011087 
L 110.735989 316.822309 
L 110.921583 316.011087 
L 111.292772 313.17169 
L 111.478366 313.577421 
L 112.220743 318.647618 
L 112.406337 319.45884 
L 112.591932 319.661706 
L 113.519903 322.501103 
L 114.819063 325.137634 
L 116.118223 326.557213 
L 116.303817 326.557213 
L 116.675005 326.983134 
L 117.046194 327.145379 
L 117.417383 327.206431 
L 119.830108 327.91622 
L 120.386891 327.977031 
L 121.129268 328.159466 
L 122.985211 328.260899 
L 124.655559 328.342141 
L 125.954719 328.240709 
L 126.140313 328.119085 
L 126.511502 328.28133 
L 129.109822 328.382522 
L 129.666604 328.402953 
L 130.037793 328.321711 
L 131.522547 328.402953 
L 132.264924 328.423143 
L 133.007301 328.402953 
L 133.37849 328.321711 
L 134.863244 328.402953 
L 135.605621 328.423143 
L 135.97681 328.402953 
L 136.533592 328.159466 
L 138.203941 328.240709 
L 144.69974 328.159466 
L 145.627712 328.058033 
L 147.112466 327.997222 
L 151.937917 328.098655 
L 153.237077 328.159466 
L 153.793859 328.139276 
L 154.350642 328.139276 
L 154.721831 328.139276 
L 158.804905 328.058033 
L 160.104065 327.672733 
L 161.403225 327.003565 
L 161.960007 326.557213 
L 162.331196 326.151722 
L 162.702384 325.137634 
L 163.073573 323.718056 
L 163.259167 322.906594 
L 163.444761 322.703968 
L 163.630356 322.906594 
L 163.81595 322.298237 
L 164.001544 320.675793 
L 164.187139 322.095372 
L 164.372733 322.298237 
L 164.558327 318.444753 
L 164.743921 317.836396 
L 164.929516 320.270062 
L 165.11511 319.053349 
L 165.300704 318.647618 
L 165.671893 322.501103 
L 166.043081 323.718056 
L 166.228676 323.920681 
L 166.41427 323.920681 
L 166.599864 324.731903 
L 166.785458 324.934769 
L 166.971053 324.934769 
L 167.156647 325.3405 
L 167.342241 325.137634 
L 167.527835 325.3405 
L 167.71343 325.3405 
L 167.899024 325.137634 
L 168.084618 324.529278 
L 168.455807 322.298237 
L 168.641401 322.298237 
L 169.01259 323.718056 
L 169.198184 323.920681 
L 169.383778 323.109459 
L 169.569372 321.081284 
L 169.940561 313.577421 
L 170.126155 311.954737 
L 170.311749 313.17169 
L 170.497344 315.199865 
L 170.868532 309.318205 
L 171.054127 311.34638 
L 171.239721 314.996999 
L 171.425315 316.011087 
L 171.982098 310.535158 
L 172.167692 306.479048 
L 172.353286 306.479048 
L 172.538881 307.29027 
L 172.724475 306.479048 
L 172.910069 307.29027 
L 173.281258 311.143515 
L 173.466852 305.464961 
L 173.652446 304.045142 
L 174.023635 311.143515 
L 174.394823 313.374555 
L 174.580418 313.780046 
L 174.766012 314.794134 
L 174.951606 314.794134 
L 176.250766 322.703968 
L 176.621955 323.312325 
L 176.993143 325.137634 
L 177.364332 325.745991 
L 177.73552 326.151722 
L 177.921115 326.151722 
L 178.292303 326.557213 
L 178.477897 326.557213 
L 178.849086 326.82089 
L 180.705029 327.733545 
L 181.261811 327.895789 
L 181.447406 328.017653 
L 181.818594 327.956841 
L 182.189783 328.058033 
L 183.860131 328.139276 
L 184.973697 328.28133 
L 187.200828 328.362332 
L 187.572017 328.342141 
L 188.871176 328.423143 
L 189.242365 328.565197 
L 204.461095 328.544767 
L 204.646689 328.28133 
L 205.017878 328.565197 
L 206.688226 328.565197 
L 207.059415 328.402953 
L 208.544169 328.544767 
L 208.729763 327.834977 
L 208.915358 325.3405 
L 209.100952 327.753975 
L 209.286546 325.137634 
L 209.657735 327.875599 
L 210.028923 327.997222 
L 210.400112 327.956841 
L 210.956895 327.368675 
L 211.328083 327.814787 
L 211.513677 327.875599 
L 211.699272 327.672733 
L 212.07046 327.855408 
L 212.441649 327.855408 
L 215.411157 327.794356 
L 215.782346 327.652543 
L 215.96794 327.145379 
L 216.153534 325.137634 
L 216.339128 325.543366 
L 216.524723 325.543366 
L 216.710317 325.3405 
L 217.081505 325.745991 
L 217.2671 321.28415 
L 218.195071 324.934769 
L 218.751854 325.543366 
L 219.123042 325.543366 
L 219.308637 325.745991 
L 219.494231 325.745991 
L 219.679825 325.948856 
L 219.86542 325.948856 
L 220.422202 326.557213 
L 220.607797 326.557213 
L 220.793391 326.760078 
L 221.535768 326.861511 
L 222.092551 327.125188 
L 222.463739 327.246812 
L 223.577305 327.328054 
L 225.062059 327.5713 
L 225.247653 327.510489 
L 225.433248 327.246812 
L 225.618842 324.731903 
L 225.99003 325.137634 
L 226.175625 324.934769 
L 226.546813 325.3405 
L 226.732408 325.3405 
L 226.918002 325.543366 
L 227.28919 325.543366 
L 227.474785 325.745991 
L 228.031567 325.745991 
L 228.217162 324.731903 
L 228.402756 324.529278 
L 228.58835 325.3405 
L 228.773944 325.543366 
L 229.516322 324.731903 
L 230.073104 325.3405 
L 230.444293 325.3405 
L 230.815481 324.934769 
L 231.18667 324.326412 
L 231.372264 324.123547 
L 231.743453 324.529278 
L 231.929047 324.529278 
L 232.114641 324.326412 
L 232.300236 323.920681 
L 232.48583 323.109459 
L 233.042613 318.242127 
L 233.599396 311.143515 
L 233.78499 311.549246 
L 233.970584 313.577421 
L 234.341773 311.34638 
L 234.712961 310.535158 
L 235.269744 303.639651 
L 235.455338 293.904507 
L 236.012121 311.34638 
L 236.38331 316.213952 
L 236.568904 317.430665 
L 236.754498 317.836396 
L 236.940092 317.22804 
L 237.125687 316.213952 
L 237.682469 311.752111 
L 238.610441 318.850484 
L 238.796035 318.444753 
L 239.724006 303.031055 
L 240.280789 308.101492 
L 240.466384 309.723936 
L 240.651978 308.304118 
L 241.579949 295.324326 
L 241.765543 296.541038 
L 242.322326 310.940889 
L 242.50792 312.968824 
L 242.693515 313.577421 
L 242.879109 313.17169 
L 243.621486 303.23392 
L 244.178269 296.743904 
L 244.363863 299.17781 
L 244.735052 306.884539 
L 245.10624 304.248008 
L 245.291835 304.653739 
L 245.477429 306.276183 
L 246.034212 314.185777 
L 246.219806 314.996999 
L 246.4054 314.591508 
L 246.590994 313.374555 
L 246.776589 313.780046 
L 247.147777 317.025174 
L 247.333371 317.836396 
L 247.518966 317.633531 
L 247.890154 318.647618 
L 248.818126 322.501103 
L 249.00372 322.703968 
L 249.746097 324.934769 
L 249.931691 325.137634 
L 250.117286 325.543366 
L 250.30288 325.543366 
L 250.488474 325.948856 
L 250.674068 325.948856 
L 251.045257 326.354588 
L 251.230851 326.354588 
L 251.787634 326.841321 
L 252.158823 326.881702 
L 252.715605 327.267242 
L 254.014765 327.652543 
L 255.128331 327.91622 
L 260.32497 328.382522 
L 265.336016 328.483955 
L 266.449581 328.504386 
L 267.748741 328.463765 
L 269.047901 328.504386 
L 273.687758 328.483955 
L 273.873352 328.139276 
L 274.058946 325.3405 
L 274.615729 328.260899 
L 275.543701 328.159466 
L 276.471672 328.078464 
L 276.84286 327.997222 
L 280.369152 328.078464 
L 280.554746 327.5713 
L 280.74034 325.137634 
L 280.925934 326.760078 
L 281.111529 326.557213 
L 281.297123 325.948856 
L 281.482717 326.151722 
L 281.668311 326.557213 
L 281.853906 326.557213 
L 282.410689 327.16581 
L 282.967471 327.145379 
L 283.524254 326.557213 
L 284.081037 326.557213 
L 284.266631 326.760078 
L 287.421734 326.760078 
L 287.607328 326.557213 
L 287.792922 326.557213 
L 287.978517 326.151722 
L 288.349705 321.081284 
L 288.535299 321.487015 
L 288.720894 322.298237 
L 289.092082 320.878659 
L 289.463271 322.095372 
L 289.648865 322.298237 
L 289.834459 321.487015 
L 290.205648 322.906594 
L 290.762431 323.920681 
L 291.133619 324.326412 
L 291.504808 324.934769 
L 291.690402 324.934769 
L 291.875996 325.137634 
L 292.061591 324.934769 
L 292.618373 324.934769 
L 292.989562 325.3405 
L 293.175156 325.3405 
L 293.36075 325.543366 
L 293.546345 325.543366 
L 293.731939 325.745991 
L 294.288722 325.745991 
L 294.474316 325.948856 
L 295.031099 325.948856 
L 295.216693 326.151722 
L 296.144664 326.151722 
L 296.330259 325.948856 
L 296.887042 325.948856 
L 297.072636 325.3405 
L 297.629419 321.689881 
L 298.000607 323.718056 
L 298.371796 324.326412 
L 298.742984 324.326412 
L 298.928579 323.920681 
L 299.114173 318.850484 
L 299.299767 318.444753 
L 299.485361 319.45884 
L 299.670956 304.450873 
L 300.042144 315.605356 
L 300.227738 317.430665 
L 300.413333 317.025174 
L 300.598927 314.591508 
L 300.784521 313.982912 
L 301.15571 319.053349 
L 301.712493 321.487015 
L 301.898087 321.689881 
L 302.083681 321.081284 
L 302.640464 317.025174 
L 302.826058 317.025174 
L 303.197247 319.864571 
L 303.568435 321.487015 
L 303.939624 322.095372 
L 304.125218 322.298237 
L 304.496407 322.298237 
L 304.682001 322.703968 
L 304.867595 322.703968 
L 305.053189 322.095372 
L 305.238784 322.703968 
L 305.609972 323.109459 
L 305.795567 323.109459 
L 306.166755 323.51519 
L 306.352349 323.51519 
L 306.537944 323.312325 
L 306.909132 321.689881 
L 307.094726 321.689881 
L 307.280321 320.878659 
L 307.465915 320.675793 
L 307.651509 320.878659 
L 307.837103 321.689881 
L 308.022698 321.689881 
L 308.208292 320.472928 
L 308.579481 313.17169 
L 308.950669 300.597389 
L 309.136263 301.205745 
L 309.321858 302.625564 
L 309.507452 302.422698 
L 309.693046 303.23392 
L 309.87864 301.00312 
L 310.435423 279.910627 
L 310.621018 277.679587 
L 310.992206 288.631444 
L 311.363395 273.217746 
L 311.548989 273.420611 
L 311.734583 277.476721 
L 311.920177 285.386556 
L 312.105772 288.225953 
L 312.291366 286.400644 
L 312.47696 287.009 
L 312.662555 285.792047 
L 312.848149 290.659619 
L 313.033743 292.484929 
L 313.219337 290.862485 
L 313.404932 291.876572 
L 314.147309 305.870452 
L 314.704091 311.34638 
L 314.889686 310.940889 
L 315.07528 309.926802 
L 315.260874 311.143515 
L 315.632063 315.40273 
L 316.188846 318.850484 
L 316.745628 320.472928 
L 316.931223 320.472928 
L 317.116817 320.675793 
L 317.302411 321.081284 
L 317.6736 322.501103 
L 318.97276 325.137634 
L 320.27192 326.557213 
L 320.457514 326.557213 
L 320.828702 326.82089 
L 321.199891 327.023756 
L 322.499051 327.510489 
L 324.354994 327.855408 
L 324.726182 327.875599 
L 325.097371 328.058033 
L 326.025342 328.200087 
L 326.582125 328.179897 
L 326.953313 328.260899 
L 327.138908 327.753975 
L 328.252473 328.119085 
L 328.809256 328.159466 
L 330.108416 328.098655 
L 330.665199 328.139276 
L 331.036387 328.179897 
L 333.820301 328.382522 
L 340.501695 328.342141 
L 340.872884 328.220278 
L 341.800855 328.240709 
L 341.986449 328.220278 
L 342.357638 328.362332 
L 342.91442 328.321711 
L 343.656798 328.260899 
L 344.584769 328.240709 
L 345.327146 328.220278 
L 346.069523 328.058033 
L 346.255117 327.956841 
L 346.626306 328.017653 
L 346.8119 327.774166 
L 346.997494 326.780509 
L 347.183089 326.780509 
L 347.368683 327.733545 
L 347.739872 328.139276 
L 348.667843 327.895789 
L 348.853437 327.895789 
L 349.039031 328.037843 
L 349.41022 327.997222 
L 349.781408 327.774166 
L 350.152597 327.834977 
L 350.338191 327.469868 
L 350.523786 327.774166 
L 351.266163 327.956841 
L 352.379728 327.855408 
L 353.493294 327.693164 
L 354.978048 327.753975 
L 355.906019 327.753975 
L 358.318745 327.855408 
L 359.246716 327.956841 
L 359.989093 327.977031 
L 360.174688 327.91622 
L 360.360282 327.226621 
L 360.545876 325.948856 
L 360.73147 326.557213 
L 360.917065 326.760078 
L 361.102659 327.145379 
L 361.473847 327.348244 
L 361.845036 327.307623 
L 362.216225 326.942754 
L 362.401819 326.760078 
L 362.587413 326.760078 
L 362.958602 326.354588 
L 363.144196 326.557213 
L 363.515384 326.557213 
L 363.700979 326.354588 
L 364.072167 326.354588 
L 364.257762 326.151722 
L 364.814544 324.529278 
L 365.000139 324.326412 
L 365.371327 322.906594 
L 365.556921 322.095372 
L 365.742516 322.501103 
L 365.92811 322.095372 
L 366.484893 317.430665 
L 366.856081 310.940889 
L 367.041676 307.898627 
L 367.22727 309.926802 
L 367.598458 317.633531 
L 367.784053 318.850484 
L 367.969647 319.255975 
L 368.155241 318.647618 
L 368.340835 316.822309 
L 368.52643 316.213952 
L 368.712024 316.822309 
L 368.897618 317.836396 
L 369.083213 316.822309 
L 369.454401 309.11558 
L 369.639995 308.912714 
L 369.82559 310.535158 
L 370.011184 308.709849 
L 370.196778 308.506983 
L 370.382372 308.709849 
L 370.567967 309.318205 
L 370.753561 308.101492 
L 370.939155 307.898627 
L 371.495938 315.808221 
L 371.867127 318.242127 
L 372.052721 318.850484 
L 372.238315 318.647618 
L 372.423909 318.647618 
L 372.609504 319.053349 
L 372.795098 319.053349 
L 372.980692 317.836396 
L 373.166286 315.605356 
L 373.723069 301.611476 
L 374.094258 307.29027 
L 374.279852 305.262095 
L 374.836635 292.282063 
L 375.022229 292.282063 
L 375.393418 300.191657 
L 375.579012 300.191657 
L 375.764606 301.814342 
L 375.950201 305.05923 
L 376.321389 313.577421 
L 376.506983 312.968824 
L 376.878172 308.912714 
L 377.24936 306.884539 
L 377.620549 311.34638 
L 377.806143 311.954737 
L 377.991738 313.374555 
L 378.362926 312.360468 
L 378.54852 313.17169 
L 378.734115 313.374555 
L 378.919709 313.17169 
L 379.105303 309.723936 
L 379.290897 300.800254 
L 379.476492 308.709849 
L 379.662086 310.332293 
L 380.033274 310.940889 
L 380.218869 310.940889 
L 380.404463 311.549246 
L 380.775652 314.591508 
L 380.961246 314.794134 
L 381.14684 315.808221 
L 381.518029 318.850484 
L 381.889217 320.067437 
L 382.260406 320.067437 
L 382.446 319.864571 
L 382.631594 319.864571 
L 382.817189 320.067437 
L 383.559566 321.892747 
L 383.74516 322.501103 
L 384.116348 322.906594 
L 385.04432 324.731903 
L 385.229914 324.934769 
L 385.415508 324.934769 
L 385.786697 325.3405 
L 385.972291 325.3405 
L 386.714668 326.151722 
L 386.900262 326.151722 
L 387.64264 326.8007 
L 388.199422 327.145379 
L 391.354525 328.078464 
L 394.880816 328.362332 
L 399.891861 328.463765 
L 400.819833 328.463765 
L 405.459689 328.504386 
L 405.645284 328.260899 
L 406.016472 328.260899 
L 406.202067 328.260899 
L 406.573255 328.382522 
L 406.944444 328.28133 
L 407.130038 328.362332 
L 407.315632 328.058033 
L 407.501226 328.382522 
L 408.429198 328.382522 
L 411.769895 328.119085 
L 412.697866 328.220278 
L 413.254649 328.179897 
L 415.110591 328.078464 
L 415.296186 327.753975 
L 415.852969 327.713354 
L 416.409751 327.672733 
L 416.78094 327.794356 
L 417.708911 327.895789 
L 418.451288 327.91622 
L 419.193665 327.895789 
L 419.37926 326.151722 
L 419.564854 326.151722 
L 419.750448 326.760078 
L 420.307231 327.16581 
L 422.163174 327.875599 
L 424.204711 327.774166 
L 424.575899 327.652543 
L 425.875059 327.713354 
L 426.431842 327.632112 
L 426.988625 327.672733 
L 427.731002 327.591731 
L 428.10219 327.510489 
L 431.442887 327.409056 
L 431.814076 327.246812 
L 432.185264 326.760078 
L 432.927641 324.529278 
L 433.29883 325.137634 
L 433.670018 325.543366 
L 434.041207 325.543366 
L 434.226801 325.3405 
L 434.412396 325.745991 
L 434.59799 325.3405 
L 434.783584 325.3405 
L 435.154773 325.745991 
L 435.340367 325.745991 
L 435.711555 324.934769 
L 436.082744 325.3405 
L 436.268338 325.3405 
L 436.825121 324.731903 
L 437.010715 324.934769 
L 437.19631 324.731903 
L 437.567498 323.109459 
L 438.124281 324.123547 
L 438.309875 323.718056 
L 438.49547 322.906594 
L 438.681064 322.906594 
L 438.866658 323.109459 
L 439.052252 322.906594 
L 439.237847 321.892747 
L 439.423441 319.45884 
L 439.609035 318.850484 
L 439.794629 319.255975 
L 440.165818 321.081284 
L 440.537006 319.053349 
L 440.908195 320.067437 
L 441.464978 316.011087 
L 441.650572 316.213952 
L 442.021761 311.34638 
L 442.207355 312.968824 
L 442.764138 304.045142 
L 442.949732 306.276183 
L 443.135326 310.129427 
L 443.320921 306.276183 
L 443.506515 297.555126 
L 443.692109 307.492896 
L 443.877703 310.940889 
L 444.063298 310.940889 
L 444.434486 297.757992 
L 444.62008 290.051263 
L 444.805675 245.229747 
L 444.991269 285.792047 
L 445.176863 258.412404 
L 445.362457 209.129047 
L 445.733646 274.637324 
L 445.91924 279.910627 
L 446.104835 275.245921 
L 446.290429 280.113253 
L 446.476023 279.099406 
L 446.847212 272.812015 
L 447.032806 278.287943 
L 447.2184 289.037175 
L 447.403994 290.253888 
L 447.589589 279.302031 
L 447.775183 280.518984 
L 448.146372 290.456753 
L 448.331966 291.470841 
L 448.51756 281.735937 
L 448.703154 285.386556 
L 448.888749 293.499016 
L 449.259937 272.000793 
L 449.445531 289.442666 
L 449.631126 291.470841 
L 449.81672 291.06511 
L 450.187909 284.575334 
L 451.11588 308.304118 
L 451.301474 308.304118 
L 451.487068 302.422698 
L 451.672663 302.219833 
L 452.41504 307.492896 
L 452.786228 308.709849 
L 452.971823 309.11558 
L 453.157417 308.709849 
L 453.528605 310.129427 
L 453.7142 312.563333 
L 453.899794 312.968824 
L 454.456577 315.808221 
L 455.01336 319.053349 
L 455.198954 319.661706 
L 455.384548 320.878659 
L 455.570142 321.081284 
L 455.941331 322.095372 
L 456.312519 323.718056 
L 457.240491 325.543366 
L 458.354056 326.760078 
L 458.539651 326.780509 
L 459.467622 327.672733 
L 461.13797 327.93641 
L 461.509159 327.956841 
L 461.880348 327.855408 
L 463.73629 328.179897 
L 465.777827 328.28133 
L 466.520204 328.342141 
L 468.561741 328.443574 
L 469.118524 328.423143 
L 469.860901 328.342141 
L 470.417684 328.402953 
L 471.716844 328.362332 
L 474.686352 328.342141 
L 474.871946 328.220278 
L 475.057541 328.260899 
L 475.243135 328.179897 
L 475.799918 328.28133 
L 476.542295 328.260899 
L 476.727889 328.119085 
L 477.099078 328.220278 
L 477.284672 328.200087 
L 477.470266 327.91622 
L 479.326209 328.220278 
L 480.439775 328.28133 
L 480.625369 328.119085 
L 481.182152 328.017653 
L 481.367746 327.632112 
L 481.55334 327.672733 
L 481.738934 316.416818 
L 481.924529 315.199865 
L 482.110123 323.718056 
L 482.295717 325.543366 
L 482.481311 325.745991 
L 482.666906 326.354588 
L 482.8525 326.557213 
L 483.038094 326.557213 
L 483.409283 326.841321 
L 484.15166 326.902132 
L 484.337254 326.557213 
L 484.522848 326.557213 
L 484.708443 326.354588 
L 484.894037 324.326412 
L 485.079631 319.864571 
L 485.265226 320.878659 
L 485.45082 317.22804 
L 485.636414 243.201571 
L 486.007603 303.436786 
L 486.193197 307.087405 
L 486.378791 308.304118 
L 486.564385 306.681674 
L 486.74998 276.868365 
L 486.935574 298.772079 
L 487.121168 251.314031 
L 487.306762 57.02 
L 487.492357 275.854277 
L 487.863545 302.219833 
L 488.04914 308.912714 
L 488.420328 313.17169 
L 489.162705 318.444753 
L 489.348299 317.025174 
L 489.719488 318.850484 
L 490.090677 319.864571 
L 490.276271 320.675793 
L 490.461865 320.675793 
L 491.204242 321.487015 
L 491.575431 322.095372 
L 491.946619 322.501103 
L 492.132214 322.501103 
L 492.317808 322.703968 
L 492.503402 322.703968 
L 492.688996 323.109459 
L 492.874591 322.703968 
L 493.060185 322.906594 
L 493.245779 322.703968 
L 493.431373 312.563333 
L 493.802562 318.444753 
L 494.17375 320.878659 
L 494.544939 320.878659 
L 494.916128 321.28415 
L 495.658505 321.28415 
L 495.844099 321.487015 
L 496.029693 321.487015 
L 496.400882 322.095372 
L 496.586476 322.298237 
L 496.77207 322.298237 
L 497.328853 322.906594 
L 497.885636 322.906594 
L 498.256824 279.099406 
L 498.442419 302.625564 
L 498.628013 309.11558 
L 498.813607 311.34638 
L 498.999201 315.40273 
L 499.555984 320.270062 
L 500.298361 322.501103 
L 500.483956 322.501103 
L 500.855144 323.109459 
L 501.040738 323.109459 
L 501.226333 323.312325 
L 501.411927 323.312325 
L 501.96871 323.920681 
L 502.154304 323.920681 
L 502.339898 324.123547 
L 502.525493 324.123547 
L 502.711087 323.920681 
L 502.896681 323.51519 
L 503.082275 323.718056 
L 503.453464 323.718056 
L 503.639058 324.123547 
L 503.824653 324.123547 
L 504.010247 324.326412 
L 504.381435 324.326412 
L 504.56703 318.242127 
L 504.752624 317.22804 
L 505.123812 321.28415 
L 505.309407 321.28415 
L 505.495001 321.081284 
L 505.866189 321.689881 
L 506.051784 321.892747 
L 506.422972 320.472928 
L 506.794161 315.605356 
L 506.979755 318.647618 
L 507.350944 320.270062 
L 507.536538 320.472928 
L 507.722132 319.45884 
L 508.464509 313.17169 
L 508.650104 312.360468 
L 509.021292 302.625564 
L 509.392481 287.617356 
L 509.578075 279.302031 
L 509.763669 278.490809 
L 510.134858 288.023088 
L 510.320452 287.617356 
L 510.506046 284.980825 
L 510.69164 288.428578 
L 510.877235 288.83431 
L 511.062829 284.169603 
L 511.248423 283.358381 
L 511.434018 288.225953 
L 511.619612 282.750025 
L 511.805206 281.735937 
L 511.9908 281.735937 
L 512.176395 280.113253 
L 512.547583 274.434699 
L 512.733177 278.287943 
L 512.918772 266.72773 
L 513.104366 265.105286 
L 513.28996 264.699555 
L 513.661149 285.589181 
L 513.846743 291.876572 
L 514.032337 290.862485 
L 514.217932 285.792047 
L 514.58912 295.12146 
L 514.774714 303.436786 
L 514.960309 305.464961 
L 515.145903 303.639651 
L 515.702686 288.023088 
L 516.073874 273.01488 
L 516.259469 278.490809 
L 516.445063 277.274096 
L 516.630657 280.113253 
L 517.001846 287.617356 
L 517.373034 293.093285 
L 517.558628 294.715729 
L 517.744223 298.366348 
L 517.929817 305.05923 
L 518.115411 305.870452 
L 518.301006 304.045142 
L 518.4866 299.583301 
L 518.672194 298.974945 
L 519.043383 303.436786 
L 519.78576 293.701882 
L 519.971354 293.904507 
L 520.899325 305.05923 
L 521.270514 313.17169 
L 521.827297 317.633531 
L 522.012891 316.822309 
L 522.38408 320.472928 
L 523.126457 322.298237 
L 523.683239 323.920681 
L 524.054428 324.326412 
L 524.425616 324.934769 
L 525.167994 325.745991 
L 525.539182 326.354588 
L 525.724776 326.354588 
L 526.652748 327.267242 
L 527.023936 327.368675 
L 527.766313 327.652543 
L 528.50869 327.834977 
L 528.879879 327.93641 
L 529.251067 327.956841 
L 529.622256 327.91622 
L 529.993445 327.956841 
L 531.292604 328.28133 
L 532.220576 328.402953 
L 533.890924 328.504386 
L 534.818896 328.524576 
L 535.746867 328.524576 
L 535.932461 328.524576 
L 536.489244 328.28133 
L 537.60281 328.240709 
L 538.159592 328.28133 
L 539.273158 328.260899 
L 540.015535 328.321711 
L 540.757912 328.342141 
L 541.500289 328.200087 
L 542.242666 328.179897 
L 543.913015 328.098655 
L 544.098609 327.834977 
L 545.02658 328.037843 
L 545.212175 327.91622 
L 545.397769 328.017653 
L 545.583363 327.956841 
L 545.768958 327.774166 
L 545.954552 327.814787 
L 546.32574 325.543366 
L 546.696929 327.449677 
L 547.996089 327.956841 
L 548.552872 327.997222 
L 548.92406 328.179897 
L 549.480843 328.037843 
L 549.852031 327.997222 
L 550.22322 328.037843 
L 550.780003 328.037843 
L 550.965597 327.91622 
L 551.52238 327.875599 
L 551.707974 326.151722 
L 551.893568 322.703968 
L 552.635945 326.902132 
L 553.192728 327.328054 
L 553.563917 327.429487 
L 553.749511 327.287433 
L 553.935105 327.307623 
L 554.306294 327.044186 
L 554.677482 327.246812 
L 555.41986 327.469868 
L 555.605454 327.429487 
L 555.791048 325.745991 
L 555.976642 326.354588 
L 556.162237 326.557213 
L 556.533425 326.557213 
L 556.719019 326.760078 
L 557.461397 326.841321 
L 558.574962 327.409056 
L 558.760556 327.368675 
L 559.131745 327.469868 
L 559.502933 327.449677 
L 559.874122 327.368675 
L 560.802093 327.429487 
L 561.358876 327.510489 
L 561.915659 327.469868 
L 562.286848 327.287433 
L 562.472442 325.948856 
L 562.658036 322.906594 
L 562.84363 321.689881 
L 563.214819 324.731903 
L 563.586007 325.3405 
L 563.771602 325.3405 
L 564.14279 324.731903 
L 564.699573 325.3405 
L 565.44195 325.3405 
L 565.813139 324.934769 
L 566.369921 325.948856 
L 566.926704 325.948856 
L 567.112299 326.354588 
L 567.297893 326.151722 
L 567.854676 326.151722 
L 568.04027 325.948856 
L 568.411458 324.529278 
L 568.782647 322.298237 
L 568.968241 320.067437 
L 569.153836 315.808221 
L 569.33943 314.794134 
L 569.525024 315.199865 
L 569.710618 316.213952 
L 570.081807 321.081284 
L 570.267401 321.28415 
L 570.452995 320.270062 
L 570.63859 318.242127 
L 570.824184 317.836396 
L 571.195372 321.28415 
L 571.380967 321.892747 
L 571.566561 322.095372 
L 571.752155 321.487015 
L 572.123344 319.053349 
L 572.308938 318.850484 
L 572.680127 316.416818 
L 573.051315 311.143515 
L 573.236909 307.898627 
L 573.608098 313.17169 
L 574.164881 319.053349 
L 574.350475 318.850484 
L 574.721664 320.878659 
L 574.907258 320.472928 
L 575.092852 320.675793 
L 575.464041 322.095372 
L 575.649635 322.298237 
L 575.835229 322.095372 
L 576.020824 322.298237 
L 576.392012 319.864571 
L 576.763201 315.40273 
L 577.134389 306.884539 
L 577.319983 306.073317 
L 577.505578 306.073317 
L 577.691172 307.898627 
L 578.06236 314.591508 
L 578.247955 316.213952 
L 578.433549 316.822309 
L 578.804738 311.752111 
L 578.990332 306.479048 
L 579.175926 305.870452 
L 579.36152 306.073317 
L 579.547115 305.870452 
L 579.918303 310.738024 
L 580.103897 310.940889 
L 580.289492 309.11558 
L 580.475086 309.318205 
L 580.846275 311.34638 
L 581.217463 312.360468 
L 581.588652 317.025174 
L 581.774246 317.633531 
L 582.331029 315.605356 
L 582.516623 316.011087 
L 582.702217 316.822309 
L 583.259 317.430665 
L 583.444594 317.836396 
L 583.815783 320.878659 
L 584.001377 320.675793 
L 584.55816 323.109459 
L 585.85732 324.529278 
L 586.414103 325.543366 
L 587.713263 326.922323 
L 590.682771 327.834977 
L 591.053959 327.855408 
L 591.796336 327.93641 
L 592.167525 327.956841 
L 593.281091 328.119085 
L 594.023468 328.220278 
L 597.364165 328.483955 
L 603.67437 328.483955 
L 603.859964 328.260899 
L 604.045558 328.362332 
L 604.416747 328.139276 
L 605.344718 328.382522 
L 605.530312 328.342141 
L 605.901501 328.483955 
L 607.200661 328.524576 
L 608.685415 328.463765 
L 609.056604 328.382522 
L 609.427792 328.200087 
L 609.613386 328.382522 
L 610.912546 328.30152 
L 611.098141 328.220278 
L 612.026112 328.321711 
L 620.377854 328.28133 
L 620.749043 328.179897 
L 622.048202 328.220278 
L 622.419391 328.30152 
L 623.347362 328.321711 
L 623.532957 327.774166 
L 623.718551 327.591731 
L 624.089739 328.017653 
L 624.460928 328.342141 
L 624.646522 328.321711 
L 624.832116 328.139276 
L 625.945682 328.098655 
L 627.616031 328.179897 
L 632.255887 328.078464 
L 633.926236 327.855408 
L 634.297424 327.733545 
L 635.596584 327.368675 
L 636.153367 327.023756 
L 636.338961 326.557213 
L 636.524555 326.557213 
L 636.895744 326.861511 
L 637.266933 326.841321 
L 637.452527 326.557213 
L 637.823715 326.557213 
L 638.380498 325.948856 
L 638.566092 325.3405 
L 638.751687 325.137634 
L 638.937281 325.137634 
L 639.122875 325.3405 
L 639.865252 325.3405 
L 640.236441 324.934769 
L 640.422035 324.326412 
L 640.607629 324.123547 
L 640.793224 323.718056 
L 640.978818 323.718056 
L 641.164412 323.51519 
L 641.350007 323.51519 
L 641.535601 323.109459 
L 641.906789 320.067437 
L 642.277978 317.025174 
L 642.649166 319.45884 
L 642.834761 318.647618 
L 643.205949 313.780046 
L 643.577138 317.025174 
L 643.762732 317.22804 
L 644.133921 319.45884 
L 644.319515 318.039262 
L 644.505109 314.388643 
L 644.690703 307.492896 
L 645.061892 305.667586 
L 645.43308 310.535158 
L 645.618675 310.940889 
L 645.804269 309.723936 
L 645.989863 309.521071 
L 646.175458 307.898627 
L 646.546646 300.597389 
L 646.917835 303.23392 
L 647.103429 303.031055 
L 647.289023 299.989032 
L 647.474617 300.597389 
L 647.660212 304.248008 
L 647.845806 302.016967 
L 648.0314 285.18369 
L 648.216995 280.924715 
L 648.402589 281.938562 
L 648.588183 278.287943 
L 648.959372 301.00312 
L 649.33056 306.276183 
L 649.516154 310.535158 
L 650.072937 314.591508 
L 650.62972 316.011087 
L 650.815314 315.605356 
L 651.000909 314.591508 
L 651.186503 314.388643 
L 651.372097 314.591508 
L 651.557691 315.199865 
L 651.743286 315.199865 
L 652.114474 316.619443 
L 652.300068 317.22804 
L 652.485663 318.242127 
L 652.671257 318.242127 
L 652.856851 317.633531 
L 653.22804 319.864571 
L 653.599228 320.472928 
L 653.784823 320.675793 
L 654.712794 323.51519 
L 654.898388 323.51519 
L 655.083982 323.718056 
L 655.82636 325.137634 
L 656.197548 325.543366 
L 656.568737 326.151722 
L 656.754331 326.354588 
L 656.939925 326.354588 
L 657.496708 326.82089 
L 658.610274 327.429487 
L 659.167056 327.5713 
L 662.322159 328.159466 
L 664.920479 328.342141 
L 669.189147 328.443574 
L 670.302713 328.463765 
L 673.643409 328.483955 
L 673.643409 328.483955 
" clip-path="url(#pdc3c963c3f)" style="fill: none; stroke: #1f77b4; stroke-width: 1.5; stroke-linecap: square"/>
   </g>
   <g id="patch_3">
    <path d="M 33.2875 342.2 
L 33.2875 43.44 
" style="fill: none; stroke: #000000; stroke-width: 0.8; stroke-linejoin: miter; stroke-linecap: square"/>
   </g>
   <g id="patch_4">
    <path d="M 704.136548 342.2 
L 704.136548 43.44 
" style="fill: none; stroke: #000000; stroke-width: 0.8; stroke-linejoin: miter; stroke-linecap: square"/>
   </g>
   <g id="patch_5">
    <path d="M 33.2875 342.2 
L 704.136548 342.2 
" style="fill: none; stroke: #000000; stroke-width: 0.8; stroke-linejoin: miter; stroke-linecap: square"/>
   </g>
   <g id="patch_6">
    <path d="M 33.2875 43.44 
L 704.136548 43.44 
" style="fill: none; stroke: #000000; stroke-width: 0.8; stroke-linejoin: miter; stroke-linecap: square"/>
   </g>
   <g id="text_17">
    <!-- 1 transformation(s) -->
    <g transform="translate(310.597337 37.44) scale(0.12 -0.12)">
     <defs>
      <path id="DejaVuSans-20" transform="scale(0.015625)"/>
      <path id="DejaVuSans-74" d="M 1172 4494 
L 1172 3500 
L 2356 3500 
L 2356 3053 
L 1172 3053 
L 1172 1153 
Q 1172 725 1289 603 
Q 1406 481 1766 481 
L 2356 481 
L 2356 0 
L 1766 0 
Q 1100 0 847 248 
Q 594 497 594 1153 
L 594 3053 
L 172 3053 
L 172 3500 
L 594 3500 
L 594 4494 
L 1172 4494 
z
" transform="scale(0.015625)"/>
      <path id="DejaVuSans-72" d="M 2631 2963 
Q 2534 3019 2420 3045 
Q 2306 3072 2169 3072 
Q 1681 3072 1420 2755 
Q 1159 2438 1159 1844 
L 1159 0 
L 581 0 
L 581 3500 
L 1159 3500 
L 1159 2956 
Q 1341 3275 1631 3429 
Q 1922 3584 2338 3584 
Q 2397 3584 2469 3576 
Q 2541 3569 2628 3553 
L 2631 2963 
z
" transform="scale(0.015625)"/>
      <path id="DejaVuSans-61" d="M 2194 1759 
Q 1497 1759 1228 1600 
Q 959 1441 959 1056 
Q 959 750 1161 570 
Q 1363 391 1709 391 
Q 2188 391 2477 730 
Q 2766 1069 2766 1631 
L 2766 1759 
L 2194 1759 
z
M 3341 1997 
L 3341 0 
L 2766 0 
L 2766 531 
Q 2569 213 2275 61 
Q 1981 -91 1556 -91 
Q 1019 -91 701 211 
Q 384 513 384 1019 
Q 384 1609 779 1909 
Q 1175 2209 1959 2209 
L 2766 2209 
L 2766 2266 
Q 2766 2663 2505 2880 
Q 2244 3097 1772 3097 
Q 1472 3097 1187 3025 
Q 903 2953 641 2809 
L 641 3341 
Q 956 3463 1253 3523 
Q 1550 3584 1831 3584 
Q 2591 3584 2966 3190 
Q 3341 2797 3341 1997 
z
" transform="scale(0.015625)"/>
      <path id="DejaVuSans-6e" d="M 3513 2113 
L 3513 0 
L 2938 0 
L 2938 2094 
Q 2938 2591 2744 2837 
Q 2550 3084 2163 3084 
Q 1697 3084 1428 2787 
Q 1159 2491 1159 1978 
L 1159 0 
L 581 0 
L 581 3500 
L 1159 3500 
L 1159 2956 
Q 1366 3272 1645 3428 
Q 1925 3584 2291 3584 
Q 2894 3584 3203 3211 
Q 3513 2838 3513 2113 
z
" transform="scale(0.015625)"/>
      <path id="DejaVuSans-73" d="M 2834 3397 
L 2834 2853 
Q 2591 2978 2328 3040 
Q 2066 3103 1784 3103 
Q 1356 3103 1142 2972 
Q 928 2841 928 2578 
Q 928 2378 1081 2264 
Q 1234 2150 1697 2047 
L 1894 2003 
Q 2506 1872 2764 1633 
Q 3022 1394 3022 966 
Q 3022 478 2636 193 
Q 2250 -91 1575 -91 
Q 1294 -91 989 -36 
Q 684 19 347 128 
L 347 722 
Q 666 556 975 473 
Q 1284 391 1588 391 
Q 1994 391 2212 530 
Q 2431 669 2431 922 
Q 2431 1156 2273 1281 
Q 2116 1406 1581 1522 
L 1381 1569 
Q 847 1681 609 1914 
Q 372 2147 372 2553 
Q 372 3047 722 3315 
Q 1072 3584 1716 3584 
Q 2034 3584 2315 3537 
Q 2597 3491 2834 3397 
z
" transform="scale(0.015625)"/>
      <path id="DejaVuSans-66" d="M 2375 4863 
L 2375 4384 
L 1825 4384 
Q 1516 4384 1395 4259 
Q 1275 4134 1275 3809 
L 1275 3500 
L 2222 3500 
L 2222 3053 
L 1275 3053 
L 1275 0 
L 697 0 
L 697 3053 
L 147 3053 
L 147 3500 
L 697 3500 
L 697 3744 
Q 697 4328 969 4595 
Q 1241 4863 1831 4863 
L 2375 4863 
z
" transform="scale(0.015625)"/>
      <path id="DejaVuSans-6f" d="M 1959 3097 
Q 1497 3097 1228 2736 
Q 959 2375 959 1747 
Q 959 1119 1226 758 
Q 1494 397 1959 397 
Q 2419 397 2687 759 
Q 2956 1122 2956 1747 
Q 2956 2369 2687 2733 
Q 2419 3097 1959 3097 
z
M 1959 3584 
Q 2709 3584 3137 3096 
Q 3566 2609 3566 1747 
Q 3566 888 3137 398 
Q 2709 -91 1959 -91 
Q 1206 -91 779 398 
Q 353 888 353 1747 
Q 353 2609 779 3096 
Q 1206 3584 1959 3584 
z
" transform="scale(0.015625)"/>
      <path id="DejaVuSans-6d" d="M 3328 2828 
Q 3544 3216 3844 3400 
Q 4144 3584 4550 3584 
Q 5097 3584 5394 3201 
Q 5691 2819 5691 2113 
L 5691 0 
L 5113 0 
L 5113 2094 
Q 5113 2597 4934 2840 
Q 4756 3084 4391 3084 
Q 3944 3084 3684 2787 
Q 3425 2491 3425 1978 
L 3425 0 
L 2847 0 
L 2847 2094 
Q 2847 2600 2669 2842 
Q 2491 3084 2119 3084 
Q 1678 3084 1418 2786 
Q 1159 2488 1159 1978 
L 1159 0 
L 581 0 
L 581 3500 
L 1159 3500 
L 1159 2956 
Q 1356 3278 1631 3431 
Q 1906 3584 2284 3584 
Q 2666 3584 2933 3390 
Q 3200 3197 3328 2828 
z
" transform="scale(0.015625)"/>
      <path id="DejaVuSans-69" d="M 603 3500 
L 1178 3500 
L 1178 0 
L 603 0 
L 603 3500 
z
M 603 4863 
L 1178 4863 
L 1178 4134 
L 603 4134 
L 603 4863 
z
" transform="scale(0.015625)"/>
      <path id="DejaVuSans-28" d="M 1984 4856 
Q 1566 4138 1362 3434 
Q 1159 2731 1159 2009 
Q 1159 1288 1364 580 
Q 1569 -128 1984 -844 
L 1484 -844 
Q 1016 -109 783 600 
Q 550 1309 550 2009 
Q 550 2706 781 3412 
Q 1013 4119 1484 4856 
L 1984 4856 
z
" transform="scale(0.015625)"/>
      <path id="DejaVuSans-29" d="M 513 4856 
L 1013 4856 
Q 1481 4119 1714 3412 
Q 1947 2706 1947 2009 
Q 1947 1309 1714 600 
Q 1481 -109 1013 -844 
L 513 -844 
Q 928 -128 1133 580 
Q 1338 1288 1338 2009 
Q 1338 2731 1133 3434 
Q 928 4138 513 4856 
z
" transform="scale(0.015625)"/>
     </defs>
     <use xlink:href="#DejaVuSans-31"/>
     <use xlink:href="#DejaVuSans-20" x="63.623047"/>
     <use xlink:href="#DejaVuSans-74" x="95.410156"/>
     <use xlink:href="#DejaVuSans-72" x="134.619141"/>
     <use xlink:href="#DejaVuSans-61" x="175.732422"/>
     <use xlink:href="#DejaVuSans-6e" x="237.011719"/>
     <use xlink:href="#DejaVuSans-73" x="300.390625"/>
     <use xlink:href="#DejaVuSans-66" x="352.490234"/>
     <use xlink:href="#DejaVuSans-6f" x="387.695312"/>
     <use xlink:href="#DejaVuSans-72" x="448.876953"/>
     <use xlink:href="#DejaVuSans-6d" x="488.240234"/>
     <use xlink:href="#DejaVuSans-61" x="585.652344"/>
     <use xlink:href="#DejaVuSans-74" x="646.931641"/>
     <use xlink:href="#DejaVuSans-69" x="686.140625"/>
     <use xlink:href="#DejaVuSans-6f" x="713.923828"/>
     <use xlink:href="#DejaVuSans-6e" x="775.105469"/>
     <use xlink:href="#DejaVuSans-28" x="838.484375"/>
     <use xlink:href="#DejaVuSans-73" x="877.498047"/>
     <use xlink:href="#DejaVuSans-29" x="929.597656"/>
    </g>
   </g>
   <g id="legend_1">
    <g id="patch_7">
     <path d="M 618.775611 66.118125 
L 697.136548 66.118125 
Q 699.136548 66.118125 699.136548 64.118125 
L 699.136548 50.44 
Q 699.136548 48.44 697.136548 48.44 
L 618.775611 48.44 
Q 616.775611 48.44 616.775611 50.44 
L 616.775611 64.118125 
Q 616.775611 66.118125 618.775611 66.118125 
z
" style="fill: #ffffff; opacity: 0.8; stroke: #cccccc; stroke-linejoin: miter"/>
    </g>
    <g id="line2d_18">
     <path d="M 620.775611 56.538438 
L 630.775611 56.538438 
L 640.775611 56.538438 
" style="fill: none; stroke: #1f77b4; stroke-width: 1.5; stroke-linecap: square"/>
    </g>
    <g id="text_18">
     <!-- observed -->
     <g transform="translate(648.775611 60.038438) scale(0.1 -0.1)">
      <defs>
       <path id="DejaVuSans-62" d="M 3116 1747 
Q 3116 2381 2855 2742 
Q 2594 3103 2138 3103 
Q 1681 3103 1420 2742 
Q 1159 2381 1159 1747 
Q 1159 1113 1420 752 
Q 1681 391 2138 391 
Q 2594 391 2855 752 
Q 3116 1113 3116 1747 
z
M 1159 2969 
Q 1341 3281 1617 3432 
Q 1894 3584 2278 3584 
Q 2916 3584 3314 3078 
Q 3713 2572 3713 1747 
Q 3713 922 3314 415 
Q 2916 -91 2278 -91 
Q 1894 -91 1617 61 
Q 1341 213 1159 525 
L 1159 0 
L 581 0 
L 581 4863 
L 1159 4863 
L 1159 2969 
z
" transform="scale(0.015625)"/>
       <path id="DejaVuSans-65" d="M 3597 1894 
L 3597 1613 
L 953 1613 
Q 991 1019 1311 708 
Q 1631 397 2203 397 
Q 2534 397 2845 478 
Q 3156 559 3463 722 
L 3463 178 
Q 3153 47 2828 -22 
Q 2503 -91 2169 -91 
Q 1331 -91 842 396 
Q 353 884 353 1716 
Q 353 2575 817 3079 
Q 1281 3584 2069 3584 
Q 2775 3584 3186 3129 
Q 3597 2675 3597 1894 
z
M 3022 2063 
Q 3016 2534 2758 2815 
Q 2500 3097 2075 3097 
Q 1594 3097 1305 2825 
Q 1016 2553 972 2059 
L 3022 2063 
z
" transform="scale(0.015625)"/>
       <path id="DejaVuSans-76" d="M 191 3500 
L 800 3500 
L 1894 563 
L 2988 3500 
L 3597 3500 
L 2284 0 
L 1503 0 
L 191 3500 
z
" transform="scale(0.015625)"/>
       <path id="DejaVuSans-64" d="M 2906 2969 
L 2906 4863 
L 3481 4863 
L 3481 0 
L 2906 0 
L 2906 525 
Q 2725 213 2448 61 
Q 2172 -91 1784 -91 
Q 1150 -91 751 415 
Q 353 922 353 1747 
Q 353 2572 751 3078 
Q 1150 3584 1784 3584 
Q 2172 3584 2448 3432 
Q 2725 3281 2906 2969 
z
M 947 1747 
Q 947 1113 1208 752 
Q 1469 391 1925 391 
Q 2381 391 2643 752 
Q 2906 1113 2906 1747 
Q 2906 2381 2643 2742 
Q 2381 3103 1925 3103 
Q 1469 3103 1208 2742 
Q 947 2381 947 1747 
z
" transform="scale(0.015625)"/>
      </defs>
      <use xlink:href="#DejaVuSans-6f"/>
      <use xlink:href="#DejaVuSans-62" x="61.181641"/>
      <use xlink:href="#DejaVuSans-73" x="124.658203"/>
      <use xlink:href="#DejaVuSans-65" x="176.757812"/>
      <use xlink:href="#DejaVuSans-72" x="238.28125"/>
      <use xlink:href="#DejaVuSans-76" x="279.394531"/>
      <use xlink:href="#DejaVuSans-65" x="338.574219"/>
      <use xlink:href="#DejaVuSans-64" x="400.097656"/>
     </g>
    </g>
   </g>
  </g>
  <g id="axes_2">
   <g id="patch_8">
    <path d="M 33.2875 684.92 
L 704.136548 684.92 
L 704.136548 386.16 
L 33.2875 386.16 
z
" style="fill: #ffffff"/>
   </g>
   <g id="matplotlib.axis_3">
    <g id="xtick_11">
     <g id="line2d_19">
      <g>
       <use xlink:href="#ma1a2e2a450" x="80.57692" y="684.92" style="stroke: #000000; stroke-width: 0.8"/>
      </g>
     </g>
     <g id="text_19">
      <!-- 2000 -->
      <g transform="translate(67.85192 699.518437) scale(0.1 -0.1)">
       <use xlink:href="#DejaVuSans-32"/>
       <use xlink:href="#DejaVuSans-30" x="63.623047"/>
       <use xlink:href="#DejaVuSans-30" x="127.246094"/>
       <use xlink:href="#DejaVuSans-30" x="190.869141"/>
      </g>
     </g>
    </g>
    <g id="xtick_12">
     <g id="line2d_20">
      <g>
       <use xlink:href="#ma1a2e2a450" x="148.504423" y="684.92" style="stroke: #000000; stroke-width: 0.8"/>
      </g>
     </g>
     <g id="text_20">
      <!-- 2001 -->
      <g transform="translate(135.779423 699.518437) scale(0.1 -0.1)">
       <use xlink:href="#DejaVuSans-32"/>
       <use xlink:href="#DejaVuSans-30" x="63.623047"/>
       <use xlink:href="#DejaVuSans-30" x="127.246094"/>
       <use xlink:href="#DejaVuSans-31" x="190.869141"/>
      </g>
     </g>
    </g>
    <g id="xtick_13">
     <g id="line2d_21">
      <g>
       <use xlink:href="#ma1a2e2a450" x="216.246331" y="684.92" style="stroke: #000000; stroke-width: 0.8"/>
      </g>
     </g>
     <g id="text_21">
      <!-- 2002 -->
      <g transform="translate(203.521331 699.518437) scale(0.1 -0.1)">
       <use xlink:href="#DejaVuSans-32"/>
       <use xlink:href="#DejaVuSans-30" x="63.623047"/>
       <use xlink:href="#DejaVuSans-30" x="127.246094"/>
       <use xlink:href="#DejaVuSans-32" x="190.869141"/>
      </g>
     </g>
    </g>
    <g id="xtick_14">
     <g id="line2d_22">
      <g>
       <use xlink:href="#ma1a2e2a450" x="283.98824" y="684.92" style="stroke: #000000; stroke-width: 0.8"/>
      </g>
     </g>
     <g id="text_22">
      <!-- 2003 -->
      <g transform="translate(271.26324 699.518437) scale(0.1 -0.1)">
       <use xlink:href="#DejaVuSans-32"/>
       <use xlink:href="#DejaVuSans-30" x="63.623047"/>
       <use xlink:href="#DejaVuSans-30" x="127.246094"/>
       <use xlink:href="#DejaVuSans-33" x="190.869141"/>
      </g>
     </g>
    </g>
    <g id="xtick_15">
     <g id="line2d_23">
      <g>
       <use xlink:href="#ma1a2e2a450" x="351.730148" y="684.92" style="stroke: #000000; stroke-width: 0.8"/>
      </g>
     </g>
     <g id="text_23">
      <!-- 2004 -->
      <g transform="translate(339.005148 699.518437) scale(0.1 -0.1)">
       <use xlink:href="#DejaVuSans-32"/>
       <use xlink:href="#DejaVuSans-30" x="63.623047"/>
       <use xlink:href="#DejaVuSans-30" x="127.246094"/>
       <use xlink:href="#DejaVuSans-34" x="190.869141"/>
      </g>
     </g>
    </g>
    <g id="xtick_16">
     <g id="line2d_24">
      <g>
       <use xlink:href="#ma1a2e2a450" x="419.657651" y="684.92" style="stroke: #000000; stroke-width: 0.8"/>
      </g>
     </g>
     <g id="text_24">
      <!-- 2005 -->
      <g transform="translate(406.932651 699.518437) scale(0.1 -0.1)">
       <use xlink:href="#DejaVuSans-32"/>
       <use xlink:href="#DejaVuSans-30" x="63.623047"/>
       <use xlink:href="#DejaVuSans-30" x="127.246094"/>
       <use xlink:href="#DejaVuSans-35" x="190.869141"/>
      </g>
     </g>
    </g>
    <g id="xtick_17">
     <g id="line2d_25">
      <g>
       <use xlink:href="#ma1a2e2a450" x="487.39956" y="684.92" style="stroke: #000000; stroke-width: 0.8"/>
      </g>
     </g>
     <g id="text_25">
      <!-- 2006 -->
      <g transform="translate(474.67456 699.518437) scale(0.1 -0.1)">
       <use xlink:href="#DejaVuSans-32"/>
       <use xlink:href="#DejaVuSans-30" x="63.623047"/>
       <use xlink:href="#DejaVuSans-30" x="127.246094"/>
       <use xlink:href="#DejaVuSans-36" x="190.869141"/>
      </g>
     </g>
    </g>
    <g id="xtick_18">
     <g id="line2d_26">
      <g>
       <use xlink:href="#ma1a2e2a450" x="555.141468" y="684.92" style="stroke: #000000; stroke-width: 0.8"/>
      </g>
     </g>
     <g id="text_26">
      <!-- 2007 -->
      <g transform="translate(542.416468 699.518437) scale(0.1 -0.1)">
       <use xlink:href="#DejaVuSans-32"/>
       <use xlink:href="#DejaVuSans-30" x="63.623047"/>
       <use xlink:href="#DejaVuSans-30" x="127.246094"/>
       <use xlink:href="#DejaVuSans-37" x="190.869141"/>
      </g>
     </g>
    </g>
    <g id="xtick_19">
     <g id="line2d_27">
      <g>
       <use xlink:href="#ma1a2e2a450" x="622.883377" y="684.92" style="stroke: #000000; stroke-width: 0.8"/>
      </g>
     </g>
     <g id="text_27">
      <!-- 2008 -->
      <g transform="translate(610.158377 699.518437) scale(0.1 -0.1)">
       <use xlink:href="#DejaVuSans-32"/>
       <use xlink:href="#DejaVuSans-30" x="63.623047"/>
       <use xlink:href="#DejaVuSans-30" x="127.246094"/>
       <use xlink:href="#DejaVuSans-38" x="190.869141"/>
      </g>
     </g>
    </g>
    <g id="xtick_20">
     <g id="line2d_28">
      <g>
       <use xlink:href="#ma1a2e2a450" x="690.810879" y="684.92" style="stroke: #000000; stroke-width: 0.8"/>
      </g>
     </g>
     <g id="text_28">
      <!-- 2009 -->
      <g transform="translate(678.085879 699.518437) scale(0.1 -0.1)">
       <use xlink:href="#DejaVuSans-32"/>
       <use xlink:href="#DejaVuSans-30" x="63.623047"/>
       <use xlink:href="#DejaVuSans-30" x="127.246094"/>
       <use xlink:href="#DejaVuSans-39" x="190.869141"/>
      </g>
     </g>
    </g>
   </g>
   <g id="matplotlib.axis_4">
    <g id="ytick_7">
     <g id="line2d_29">
      <g>
       <use xlink:href="#m80b8a30a3b" x="33.2875" y="671.34" style="stroke: #000000; stroke-width: 0.8"/>
      </g>
     </g>
     <g id="text_29">
      <!-- 0 -->
      <g transform="translate(19.925 675.139219) scale(0.1 -0.1)">
       <use xlink:href="#DejaVuSans-30"/>
      </g>
     </g>
    </g>
    <g id="ytick_8">
     <g id="line2d_30">
      <g>
       <use xlink:href="#m80b8a30a3b" x="33.2875" y="623.267587" style="stroke: #000000; stroke-width: 0.8"/>
      </g>
     </g>
     <g id="text_30">
      <!-- 20 -->
      <g transform="translate(13.5625 627.066806) scale(0.1 -0.1)">
       <use xlink:href="#DejaVuSans-32"/>
       <use xlink:href="#DejaVuSans-30" x="63.623047"/>
      </g>
     </g>
    </g>
    <g id="ytick_9">
     <g id="line2d_31">
      <g>
       <use xlink:href="#m80b8a30a3b" x="33.2875" y="575.195174" style="stroke: #000000; stroke-width: 0.8"/>
      </g>
     </g>
     <g id="text_31">
      <!-- 40 -->
      <g transform="translate(13.5625 578.994393) scale(0.1 -0.1)">
       <use xlink:href="#DejaVuSans-34"/>
       <use xlink:href="#DejaVuSans-30" x="63.623047"/>
      </g>
     </g>
    </g>
    <g id="ytick_10">
     <g id="line2d_32">
      <g>
       <use xlink:href="#m80b8a30a3b" x="33.2875" y="527.122761" style="stroke: #000000; stroke-width: 0.8"/>
      </g>
     </g>
     <g id="text_32">
      <!-- 60 -->
      <g transform="translate(13.5625 530.92198) scale(0.1 -0.1)">
       <use xlink:href="#DejaVuSans-36"/>
       <use xlink:href="#DejaVuSans-30" x="63.623047"/>
      </g>
     </g>
    </g>
    <g id="ytick_11">
     <g id="line2d_33">
      <g>
       <use xlink:href="#m80b8a30a3b" x="33.2875" y="479.050348" style="stroke: #000000; stroke-width: 0.8"/>
      </g>
     </g>
     <g id="text_33">
      <!-- 80 -->
      <g transform="translate(13.5625 482.849567) scale(0.1 -0.1)">
       <use xlink:href="#DejaVuSans-38"/>
       <use xlink:href="#DejaVuSans-30" x="63.623047"/>
      </g>
     </g>
    </g>
    <g id="ytick_12">
     <g id="line2d_34">
      <g>
       <use xlink:href="#m80b8a30a3b" x="33.2875" y="430.977935" style="stroke: #000000; stroke-width: 0.8"/>
      </g>
     </g>
     <g id="text_34">
      <!-- 100 -->
      <g transform="translate(7.2 434.777153) scale(0.1 -0.1)">
       <use xlink:href="#DejaVuSans-31"/>
       <use xlink:href="#DejaVuSans-30" x="63.623047"/>
       <use xlink:href="#DejaVuSans-30" x="127.246094"/>
      </g>
     </g>
    </g>
   </g>
   <g id="line2d_35">
    <path d="M 63.780639 671.102522 
L 68.234901 671.082332 
L 68.420495 670.980899 
L 68.60609 667.857634 
L 68.791684 670.413164 
L 68.977278 670.859276 
L 69.905249 670.960709 
L 70.462032 670.899897 
L 70.647627 670.757843 
L 71.018815 670.879466 
L 71.946786 670.879466 
L 72.503569 670.879466 
L 72.874758 670.473975 
L 73.245946 670.676841 
L 73.617135 670.737653 
L 79.92734 670.839085 
L 81.2265 670.879466 
L 83.082443 670.818655 
L 83.453631 670.372543 
L 83.639225 670.554977 
L 83.82482 670.048054 
L 84.010414 668.668856 
L 84.196008 668.465991 
L 84.381603 668.465991 
L 84.752791 668.871722 
L 84.938385 668.668856 
L 85.12398 668.0605 
L 86.051951 669.074588 
L 86.237545 669.074588 
L 86.423139 669.277213 
L 86.608734 669.074588 
L 86.979922 669.074588 
L 87.165517 669.277213 
L 87.907894 669.277213 
L 88.093488 669.074588 
L 88.464676 669.074588 
L 88.650271 668.465991 
L 88.835865 654.269246 
L 89.021459 664.00415 
L 89.207054 666.23519 
L 89.578242 667.451903 
L 89.763836 667.654769 
L 89.949431 667.654769 
L 90.135025 667.857634 
L 90.320619 667.857634 
L 90.691808 668.263366 
L 91.24859 668.263366 
L 91.434185 668.465991 
L 91.805373 667.857634 
L 92.176562 668.465991 
L 92.362156 668.465991 
L 92.54775 668.263366 
L 92.918939 668.668856 
L 93.104533 668.668856 
L 93.290127 668.465991 
L 93.475722 668.668856 
L 93.84691 668.668856 
L 94.218099 668.263366 
L 94.589287 667.654769 
L 94.774882 667.654769 
L 94.960476 667.451903 
L 95.14607 666.438056 
L 95.331664 666.23519 
L 95.517259 666.640681 
L 95.702853 666.640681 
L 96.259636 664.815372 
L 96.630824 662.990062 
L 96.816419 662.990062 
L 97.373201 664.00415 
L 97.558796 663.598659 
L 97.74439 662.381706 
L 97.929984 659.745174 
L 98.115578 654.877602 
L 98.301173 654.06638 
L 98.486767 654.877602 
L 98.672361 655.080468 
L 98.857956 654.472111 
L 99.04355 655.486199 
L 99.229144 655.080468 
L 99.600333 652.646802 
L 99.785927 643.520254 
L 100.157115 655.486199 
L 100.34271 657.514134 
L 100.528304 657.108643 
L 100.899493 659.136818 
L 101.085087 658.325356 
L 101.270681 656.094555 
L 101.456275 655.283333 
L 101.64187 655.080468 
L 101.827464 654.472111 
L 102.013058 652.849427 
L 102.198652 649.807405 
L 102.384247 644.534342 
L 102.569841 644.128611 
L 102.755435 648.793317 
L 102.941029 648.996183 
L 103.312218 644.534342 
L 103.497812 643.520254 
L 103.869001 640.275126 
L 104.054595 645.548429 
L 104.240189 642.303301 
L 104.425784 605.594245 
L 104.611378 640.680857 
L 104.796972 641.89781 
L 104.982566 648.387586 
L 105.353755 652.443936 
L 105.724944 651.226983 
L 106.096132 654.269246 
L 106.281726 652.849427 
L 107.209698 632.568397 
L 107.395292 622.022031 
L 107.766481 637.435729 
L 107.952075 639.058413 
L 108.137669 639.463904 
L 108.323263 640.680857 
L 108.694452 650.01027 
L 108.880046 651.632714 
L 109.251235 652.241071 
L 109.436829 651.226983 
L 109.622423 651.226983 
L 109.808017 653.458024 
L 110.179206 654.674737 
L 110.550395 658.731087 
L 110.735989 659.542309 
L 110.921583 658.731087 
L 111.292772 655.89169 
L 111.478366 656.297421 
L 112.220743 661.367618 
L 112.406337 662.17884 
L 112.591932 662.381706 
L 113.519903 665.221103 
L 114.819063 667.857634 
L 116.118223 669.277213 
L 116.303817 669.277213 
L 116.675005 669.703134 
L 117.046194 669.865379 
L 117.417383 669.926431 
L 119.830108 670.63622 
L 120.386891 670.697031 
L 121.129268 670.879466 
L 122.985211 670.980899 
L 124.655559 671.062141 
L 125.954719 670.960709 
L 126.140313 670.839085 
L 126.511502 671.00133 
L 129.109822 671.102522 
L 129.666604 671.122953 
L 130.037793 671.041711 
L 131.522547 671.122953 
L 132.264924 671.143143 
L 133.007301 671.122953 
L 133.37849 671.041711 
L 134.863244 671.122953 
L 135.605621 671.143143 
L 135.97681 671.122953 
L 136.533592 670.879466 
L 138.203941 670.960709 
L 144.69974 670.879466 
L 145.627712 670.778033 
L 147.112466 670.717222 
L 151.937917 670.818655 
L 153.237077 670.879466 
L 153.793859 670.859276 
L 154.350642 670.859276 
L 154.721831 670.859276 
L 158.804905 670.778033 
L 160.104065 670.392733 
L 161.403225 669.723565 
L 161.960007 669.277213 
L 162.331196 668.871722 
L 162.702384 667.857634 
L 163.073573 666.438056 
L 163.259167 665.626594 
L 163.444761 665.423968 
L 163.630356 665.626594 
L 163.81595 665.018237 
L 164.001544 663.395793 
L 164.187139 664.815372 
L 164.372733 665.018237 
L 164.558327 661.164753 
L 164.743921 660.556396 
L 164.929516 662.990062 
L 165.11511 661.773349 
L 165.300704 661.367618 
L 165.671893 665.221103 
L 166.043081 666.438056 
L 166.228676 666.640681 
L 166.41427 666.640681 
L 166.599864 667.451903 
L 166.785458 667.654769 
L 166.971053 667.654769 
L 167.156647 668.0605 
L 167.342241 667.857634 
L 167.527835 668.0605 
L 167.71343 668.0605 
L 167.899024 667.857634 
L 168.084618 667.249278 
L 168.455807 665.018237 
L 168.641401 665.018237 
L 169.01259 666.438056 
L 169.198184 666.640681 
L 169.383778 665.829459 
L 169.569372 663.801284 
L 169.940561 656.297421 
L 170.126155 654.674737 
L 170.311749 655.89169 
L 170.497344 657.919865 
L 170.868532 652.038205 
L 171.054127 654.06638 
L 171.239721 657.716999 
L 171.425315 658.731087 
L 171.982098 653.255158 
L 172.167692 649.199048 
L 172.353286 649.199048 
L 172.538881 650.01027 
L 172.724475 649.199048 
L 172.910069 650.01027 
L 173.281258 653.863515 
L 173.466852 648.184961 
L 173.652446 646.765142 
L 174.023635 653.863515 
L 174.394823 656.094555 
L 174.580418 656.500046 
L 174.766012 657.514134 
L 174.951606 657.514134 
L 176.250766 665.423968 
L 176.621955 666.032325 
L 176.993143 667.857634 
L 177.364332 668.465991 
L 177.73552 668.871722 
L 177.921115 668.871722 
L 178.292303 669.277213 
L 178.477897 669.277213 
L 178.849086 669.54089 
L 180.705029 670.453545 
L 181.261811 670.615789 
L 181.447406 670.737653 
L 181.818594 670.676841 
L 182.189783 670.778033 
L 183.860131 670.859276 
L 184.973697 671.00133 
L 187.200828 671.082332 
L 187.572017 671.062141 
L 188.871176 671.143143 
L 189.242365 671.285197 
L 204.461095 671.264767 
L 204.646689 671.00133 
L 205.017878 671.285197 
L 206.688226 671.285197 
L 207.059415 671.122953 
L 208.544169 671.264767 
L 208.729763 670.554977 
L 208.915358 668.0605 
L 209.100952 670.473975 
L 209.286546 667.857634 
L 209.657735 670.595599 
L 210.028923 670.717222 
L 210.400112 670.676841 
L 210.956895 670.088675 
L 211.328083 670.534787 
L 211.513677 670.595599 
L 211.699272 670.392733 
L 212.07046 670.575408 
L 212.441649 670.575408 
L 215.411157 670.514356 
L 215.782346 670.372543 
L 215.96794 669.865379 
L 216.153534 667.857634 
L 216.339128 668.263366 
L 216.524723 668.263366 
L 216.710317 668.0605 
L 217.081505 668.465991 
L 217.2671 664.00415 
L 218.195071 667.654769 
L 218.751854 668.263366 
L 219.123042 668.263366 
L 219.308637 668.465991 
L 219.494231 668.465991 
L 219.679825 668.668856 
L 219.86542 668.668856 
L 220.422202 669.277213 
L 220.607797 669.277213 
L 220.793391 669.480078 
L 221.535768 669.581511 
L 222.092551 669.845188 
L 222.463739 669.966812 
L 223.577305 670.048054 
L 225.062059 670.2913 
L 225.247653 670.230489 
L 225.433248 669.966812 
L 225.618842 667.451903 
L 225.99003 667.857634 
L 226.175625 667.654769 
L 226.546813 668.0605 
L 226.732408 668.0605 
L 226.918002 668.263366 
L 227.28919 668.263366 
L 227.474785 668.465991 
L 228.031567 668.465991 
L 228.217162 667.451903 
L 228.402756 667.249278 
L 228.58835 668.0605 
L 228.773944 668.263366 
L 229.516322 667.451903 
L 230.073104 668.0605 
L 230.444293 668.0605 
L 230.815481 667.654769 
L 231.18667 667.046412 
L 231.372264 666.843547 
L 231.743453 667.249278 
L 231.929047 667.249278 
L 232.114641 667.046412 
L 232.300236 666.640681 
L 232.48583 665.829459 
L 233.042613 660.962127 
L 233.599396 653.863515 
L 233.78499 654.269246 
L 233.970584 656.297421 
L 234.341773 654.06638 
L 234.712961 653.255158 
L 235.269744 646.359651 
L 235.455338 636.624507 
L 236.012121 654.06638 
L 236.38331 658.933952 
L 236.568904 660.150665 
L 236.754498 660.556396 
L 236.940092 659.94804 
L 237.125687 658.933952 
L 237.682469 654.472111 
L 238.610441 661.570484 
L 238.796035 661.164753 
L 239.724006 645.751055 
L 240.280789 650.821492 
L 240.466384 652.443936 
L 240.651978 651.024118 
L 241.579949 638.044326 
L 241.765543 639.261038 
L 242.322326 653.660889 
L 242.50792 655.688824 
L 242.693515 656.297421 
L 242.879109 655.89169 
L 243.621486 645.95392 
L 244.178269 639.463904 
L 244.363863 641.89781 
L 244.735052 649.604539 
L 245.10624 646.968008 
L 245.291835 647.373739 
L 245.477429 648.996183 
L 246.034212 656.905777 
L 246.219806 657.716999 
L 246.4054 657.311508 
L 246.590994 656.094555 
L 246.776589 656.500046 
L 247.147777 659.745174 
L 247.333371 660.556396 
L 247.518966 660.353531 
L 247.890154 661.367618 
L 248.818126 665.221103 
L 249.00372 665.423968 
L 249.746097 667.654769 
L 249.931691 667.857634 
L 250.117286 668.263366 
L 250.30288 668.263366 
L 250.488474 668.668856 
L 250.674068 668.668856 
L 251.045257 669.074588 
L 251.230851 669.074588 
L 251.787634 669.561321 
L 252.158823 669.601702 
L 252.715605 669.987242 
L 254.014765 670.372543 
L 255.128331 670.63622 
L 260.32497 671.102522 
L 265.336016 671.203955 
L 266.449581 671.224386 
L 267.748741 671.183765 
L 269.047901 671.224386 
L 273.687758 671.203955 
L 273.873352 670.859276 
L 274.058946 668.0605 
L 274.615729 670.980899 
L 275.543701 670.879466 
L 276.471672 670.798464 
L 276.84286 670.717222 
L 280.369152 670.798464 
L 280.554746 670.2913 
L 280.74034 667.857634 
L 280.925934 669.480078 
L 281.111529 669.277213 
L 281.297123 668.668856 
L 281.482717 668.871722 
L 281.668311 669.277213 
L 281.853906 669.277213 
L 282.410689 669.88581 
L 282.967471 669.865379 
L 283.524254 669.277213 
L 284.081037 669.277213 
L 284.266631 669.480078 
L 287.421734 669.480078 
L 287.607328 669.277213 
L 287.792922 669.277213 
L 287.978517 668.871722 
L 288.349705 663.801284 
L 288.535299 664.207015 
L 288.720894 665.018237 
L 289.092082 663.598659 
L 289.463271 664.815372 
L 289.648865 665.018237 
L 289.834459 664.207015 
L 290.205648 665.626594 
L 290.762431 666.640681 
L 291.133619 667.046412 
L 291.504808 667.654769 
L 291.690402 667.654769 
L 291.875996 667.857634 
L 292.061591 667.654769 
L 292.618373 667.654769 
L 292.989562 668.0605 
L 293.175156 668.0605 
L 293.36075 668.263366 
L 293.546345 668.263366 
L 293.731939 668.465991 
L 294.288722 668.465991 
L 294.474316 668.668856 
L 295.031099 668.668856 
L 295.216693 668.871722 
L 296.144664 668.871722 
L 296.330259 668.668856 
L 296.887042 668.668856 
L 297.072636 668.0605 
L 297.629419 664.409881 
L 298.000607 666.438056 
L 298.371796 667.046412 
L 298.742984 667.046412 
L 298.928579 666.640681 
L 299.114173 661.570484 
L 299.299767 661.164753 
L 299.485361 662.17884 
L 299.670956 647.170873 
L 300.042144 658.325356 
L 300.227738 660.150665 
L 300.413333 659.745174 
L 300.598927 657.311508 
L 300.784521 656.702912 
L 301.15571 661.773349 
L 301.712493 664.207015 
L 301.898087 664.409881 
L 302.083681 663.801284 
L 302.640464 659.745174 
L 302.826058 659.745174 
L 303.197247 662.584571 
L 303.568435 664.207015 
L 303.939624 664.815372 
L 304.125218 665.018237 
L 304.496407 665.018237 
L 304.682001 665.423968 
L 304.867595 665.423968 
L 305.053189 664.815372 
L 305.238784 665.423968 
L 305.609972 665.829459 
L 305.795567 665.829459 
L 306.166755 666.23519 
L 306.352349 666.23519 
L 306.537944 666.032325 
L 306.909132 664.409881 
L 307.094726 664.409881 
L 307.280321 663.598659 
L 307.465915 663.395793 
L 307.651509 663.598659 
L 307.837103 664.409881 
L 308.022698 664.409881 
L 308.208292 663.192928 
L 308.579481 655.89169 
L 308.950669 643.317389 
L 309.136263 643.925745 
L 309.321858 645.345564 
L 309.507452 645.142698 
L 309.693046 645.95392 
L 309.87864 643.72312 
L 310.435423 622.630627 
L 310.621018 620.399587 
L 310.992206 631.351444 
L 311.363395 615.937746 
L 311.548989 616.140611 
L 311.734583 620.196721 
L 311.920177 628.106556 
L 312.105772 630.945953 
L 312.291366 629.120644 
L 312.47696 629.729 
L 312.662555 628.512047 
L 312.848149 633.379619 
L 313.033743 635.204929 
L 313.219337 633.582485 
L 313.404932 634.596572 
L 314.147309 648.590452 
L 314.704091 654.06638 
L 314.889686 653.660889 
L 315.07528 652.646802 
L 315.260874 653.863515 
L 315.632063 658.12273 
L 316.188846 661.570484 
L 316.745628 663.192928 
L 316.931223 663.192928 
L 317.116817 663.395793 
L 317.302411 663.801284 
L 317.6736 665.221103 
L 318.97276 667.857634 
L 320.27192 669.277213 
L 320.457514 669.277213 
L 320.828702 669.54089 
L 321.199891 669.743756 
L 322.499051 670.230489 
L 324.354994 670.575408 
L 324.726182 670.595599 
L 325.097371 670.778033 
L 326.025342 670.920087 
L 326.582125 670.899897 
L 326.953313 670.980899 
L 327.138908 670.473975 
L 328.252473 670.839085 
L 328.809256 670.879466 
L 330.108416 670.818655 
L 330.665199 670.859276 
L 331.036387 670.899897 
L 333.820301 671.102522 
L 340.501695 671.062141 
L 340.872884 670.940278 
L 341.800855 670.960709 
L 341.986449 670.940278 
L 342.357638 671.082332 
L 342.91442 671.041711 
L 343.656798 670.980899 
L 344.584769 670.960709 
L 345.327146 670.940278 
L 346.069523 670.778033 
L 346.255117 670.676841 
L 346.626306 670.737653 
L 346.8119 670.494166 
L 346.997494 669.500509 
L 347.183089 669.500509 
L 347.368683 670.453545 
L 347.739872 670.859276 
L 348.667843 670.615789 
L 348.853437 670.615789 
L 349.039031 670.757843 
L 349.41022 670.717222 
L 349.781408 670.494166 
L 350.152597 670.554977 
L 350.338191 670.189868 
L 350.523786 670.494166 
L 351.266163 670.676841 
L 352.379728 670.575408 
L 353.493294 670.413164 
L 354.978048 670.473975 
L 355.906019 670.473975 
L 358.318745 670.575408 
L 359.246716 670.676841 
L 359.989093 670.697031 
L 360.174688 670.63622 
L 360.360282 669.946621 
L 360.545876 668.668856 
L 360.73147 669.277213 
L 360.917065 669.480078 
L 361.102659 669.865379 
L 361.473847 670.068244 
L 361.845036 670.027623 
L 362.216225 669.662754 
L 362.401819 669.480078 
L 362.587413 669.480078 
L 362.958602 669.074588 
L 363.144196 669.277213 
L 363.515384 669.277213 
L 363.700979 669.074588 
L 364.072167 669.074588 
L 364.257762 668.871722 
L 364.814544 667.249278 
L 365.000139 667.046412 
L 365.371327 665.626594 
L 365.556921 664.815372 
L 365.742516 665.221103 
L 365.92811 664.815372 
L 366.484893 660.150665 
L 366.856081 653.660889 
L 367.041676 650.618627 
L 367.22727 652.646802 
L 367.598458 660.353531 
L 367.784053 661.570484 
L 367.969647 661.975975 
L 368.155241 661.367618 
L 368.340835 659.542309 
L 368.52643 658.933952 
L 368.712024 659.542309 
L 368.897618 660.556396 
L 369.083213 659.542309 
L 369.454401 651.83558 
L 369.639995 651.632714 
L 369.82559 653.255158 
L 370.011184 651.429849 
L 370.196778 651.226983 
L 370.382372 651.429849 
L 370.567967 652.038205 
L 370.753561 650.821492 
L 370.939155 650.618627 
L 371.495938 658.528221 
L 371.867127 660.962127 
L 372.052721 661.570484 
L 372.238315 661.367618 
L 372.423909 661.367618 
L 372.609504 661.773349 
L 372.795098 661.773349 
L 372.980692 660.556396 
L 373.166286 658.325356 
L 373.723069 644.331476 
L 374.094258 650.01027 
L 374.279852 647.982095 
L 374.836635 635.002063 
L 375.022229 635.002063 
L 375.393418 642.911657 
L 375.579012 642.911657 
L 375.764606 644.534342 
L 375.950201 647.77923 
L 376.321389 656.297421 
L 376.506983 655.688824 
L 376.878172 651.632714 
L 377.24936 649.604539 
L 377.620549 654.06638 
L 377.806143 654.674737 
L 377.991738 656.094555 
L 378.362926 655.080468 
L 378.54852 655.89169 
L 378.734115 656.094555 
L 378.919709 655.89169 
L 379.105303 652.443936 
L 379.290897 643.520254 
L 379.476492 651.429849 
L 379.662086 653.052293 
L 380.033274 653.660889 
L 380.218869 653.660889 
L 380.404463 654.269246 
L 380.775652 657.311508 
L 380.961246 657.514134 
L 381.14684 658.528221 
L 381.518029 661.570484 
L 381.889217 662.787437 
L 382.260406 662.787437 
L 382.446 662.584571 
L 382.631594 662.584571 
L 382.817189 662.787437 
L 383.559566 664.612747 
L 383.74516 665.221103 
L 384.116348 665.626594 
L 385.04432 667.451903 
L 385.229914 667.654769 
L 385.415508 667.654769 
L 385.786697 668.0605 
L 385.972291 668.0605 
L 386.714668 668.871722 
L 386.900262 668.871722 
L 387.64264 669.5207 
L 388.199422 669.865379 
L 391.354525 670.798464 
L 394.880816 671.082332 
L 399.891861 671.183765 
L 400.819833 671.183765 
L 405.459689 671.224386 
L 405.645284 670.980899 
L 406.016472 670.980899 
L 406.202067 670.980899 
L 406.573255 671.102522 
L 406.944444 671.00133 
L 407.130038 671.082332 
L 407.315632 670.778033 
L 407.501226 671.102522 
L 408.429198 671.102522 
L 411.769895 670.839085 
L 412.697866 670.940278 
L 413.254649 670.899897 
L 415.110591 670.798464 
L 415.296186 670.473975 
L 415.852969 670.433354 
L 416.409751 670.392733 
L 416.78094 670.514356 
L 417.708911 670.615789 
L 418.451288 670.63622 
L 419.193665 670.615789 
L 419.37926 668.871722 
L 419.564854 668.871722 
L 419.750448 669.480078 
L 420.307231 669.88581 
L 422.163174 670.595599 
L 424.204711 670.494166 
L 424.575899 670.372543 
L 425.875059 670.433354 
L 426.431842 670.352112 
L 426.988625 670.392733 
L 427.731002 670.311731 
L 428.10219 670.230489 
L 431.442887 670.129056 
L 431.814076 669.966812 
L 432.185264 669.480078 
L 432.927641 667.249278 
L 433.29883 667.857634 
L 433.670018 668.263366 
L 434.041207 668.263366 
L 434.226801 668.0605 
L 434.412396 668.465991 
L 434.59799 668.0605 
L 434.783584 668.0605 
L 435.154773 668.465991 
L 435.340367 668.465991 
L 435.711555 667.654769 
L 436.082744 668.0605 
L 436.268338 668.0605 
L 436.825121 667.451903 
L 437.010715 667.654769 
L 437.19631 667.451903 
L 437.567498 665.829459 
L 438.124281 666.843547 
L 438.309875 666.438056 
L 438.49547 665.626594 
L 438.681064 665.626594 
L 438.866658 665.829459 
L 439.052252 665.626594 
L 439.237847 664.612747 
L 439.423441 662.17884 
L 439.609035 661.570484 
L 439.794629 661.975975 
L 440.165818 663.801284 
L 440.537006 661.773349 
L 440.908195 662.787437 
L 441.464978 658.731087 
L 441.650572 658.933952 
L 442.021761 654.06638 
L 442.207355 655.688824 
L 442.764138 646.765142 
L 442.949732 648.996183 
L 443.135326 652.849427 
L 443.320921 648.996183 
L 443.506515 640.275126 
L 443.692109 650.212896 
L 443.877703 653.660889 
L 444.063298 653.660889 
L 444.434486 640.477992 
L 444.62008 632.771263 
L 444.805675 587.949747 
L 444.991269 628.512047 
L 445.176863 601.132404 
L 445.362457 551.849047 
L 445.733646 617.357324 
L 445.91924 622.630627 
L 446.104835 617.965921 
L 446.290429 622.833253 
L 446.476023 621.819406 
L 446.847212 615.532015 
L 447.032806 621.007943 
L 447.2184 631.757175 
L 447.403994 632.973888 
L 447.589589 622.022031 
L 447.775183 623.238984 
L 448.146372 633.176753 
L 448.331966 634.190841 
L 448.51756 624.455937 
L 448.703154 628.106556 
L 448.888749 636.219016 
L 449.259937 614.720793 
L 449.445531 632.162666 
L 449.631126 634.190841 
L 449.81672 633.78511 
L 450.187909 627.295334 
L 451.11588 651.024118 
L 451.301474 651.024118 
L 451.487068 645.142698 
L 451.672663 644.939833 
L 452.41504 650.212896 
L 452.786228 651.429849 
L 452.971823 651.83558 
L 453.157417 651.429849 
L 453.528605 652.849427 
L 453.7142 655.283333 
L 453.899794 655.688824 
L 454.456577 658.528221 
L 455.01336 661.773349 
L 455.198954 662.381706 
L 455.384548 663.598659 
L 455.570142 663.801284 
L 455.941331 664.815372 
L 456.312519 666.438056 
L 457.240491 668.263366 
L 458.354056 669.480078 
L 458.539651 669.500509 
L 459.467622 670.392733 
L 461.13797 670.65641 
L 461.509159 670.676841 
L 461.880348 670.575408 
L 463.73629 670.899897 
L 465.777827 671.00133 
L 466.520204 671.062141 
L 468.561741 671.163574 
L 469.118524 671.143143 
L 469.860901 671.062141 
L 470.417684 671.122953 
L 471.716844 671.082332 
L 474.686352 671.062141 
L 474.871946 670.940278 
L 475.057541 670.980899 
L 475.243135 670.899897 
L 475.799918 671.00133 
L 476.542295 670.980899 
L 476.727889 670.839085 
L 477.099078 670.940278 
L 477.284672 670.920087 
L 477.470266 670.63622 
L 479.326209 670.940278 
L 480.439775 671.00133 
L 480.625369 670.839085 
L 481.182152 670.737653 
L 481.367746 670.352112 
L 481.55334 670.392733 
L 481.738934 659.136818 
L 481.924529 657.919865 
L 482.110123 666.438056 
L 482.295717 668.263366 
L 482.481311 668.465991 
L 482.666906 669.074588 
L 482.8525 669.277213 
L 483.038094 669.277213 
L 483.409283 669.561321 
L 484.15166 669.622132 
L 484.337254 669.277213 
L 484.522848 669.277213 
L 484.708443 669.074588 
L 484.894037 667.046412 
L 485.079631 662.584571 
L 485.265226 663.598659 
L 485.45082 659.94804 
L 485.636414 585.921571 
L 486.007603 646.156786 
L 486.193197 649.807405 
L 486.378791 651.024118 
L 486.564385 649.401674 
L 486.74998 619.588365 
L 486.935574 641.492079 
L 487.121168 594.034031 
L 487.306762 399.74 
L 487.492357 618.574277 
L 487.863545 644.939833 
L 488.04914 651.632714 
L 488.420328 655.89169 
L 489.162705 661.164753 
L 489.348299 659.745174 
L 489.719488 661.570484 
L 490.090677 662.584571 
L 490.276271 663.395793 
L 490.461865 663.395793 
L 491.204242 664.207015 
L 491.575431 664.815372 
L 491.946619 665.221103 
L 492.132214 665.221103 
L 492.317808 665.423968 
L 492.503402 665.423968 
L 492.688996 665.829459 
L 492.874591 665.423968 
L 493.060185 665.626594 
L 493.245779 665.423968 
L 493.431373 655.283333 
L 493.802562 661.164753 
L 494.17375 663.598659 
L 494.544939 663.598659 
L 494.916128 664.00415 
L 495.658505 664.00415 
L 495.844099 664.207015 
L 496.029693 664.207015 
L 496.400882 664.815372 
L 496.586476 665.018237 
L 496.77207 665.018237 
L 497.328853 665.626594 
L 497.885636 665.626594 
L 498.256824 621.819406 
L 498.442419 645.345564 
L 498.628013 651.83558 
L 498.813607 654.06638 
L 498.999201 658.12273 
L 499.555984 662.990062 
L 500.298361 665.221103 
L 500.483956 665.221103 
L 500.855144 665.829459 
L 501.040738 665.829459 
L 501.226333 666.032325 
L 501.411927 666.032325 
L 501.96871 666.640681 
L 502.154304 666.640681 
L 502.339898 666.843547 
L 502.525493 666.843547 
L 502.711087 666.640681 
L 502.896681 666.23519 
L 503.082275 666.438056 
L 503.453464 666.438056 
L 503.639058 666.843547 
L 503.824653 666.843547 
L 504.010247 667.046412 
L 504.381435 667.046412 
L 504.56703 660.962127 
L 504.752624 659.94804 
L 505.123812 664.00415 
L 505.309407 664.00415 
L 505.495001 663.801284 
L 505.866189 664.409881 
L 506.051784 664.612747 
L 506.422972 663.192928 
L 506.794161 658.325356 
L 506.979755 661.367618 
L 507.350944 662.990062 
L 507.536538 663.192928 
L 507.722132 662.17884 
L 508.464509 655.89169 
L 508.650104 655.080468 
L 509.021292 645.345564 
L 509.392481 630.337356 
L 509.578075 622.022031 
L 509.763669 621.210809 
L 510.134858 630.743088 
L 510.320452 630.337356 
L 510.506046 627.700825 
L 510.69164 631.148578 
L 510.877235 631.55431 
L 511.062829 626.889603 
L 511.248423 626.078381 
L 511.434018 630.945953 
L 511.619612 625.470025 
L 511.805206 624.455937 
L 511.9908 624.455937 
L 512.176395 622.833253 
L 512.547583 617.154699 
L 512.733177 621.007943 
L 512.918772 609.44773 
L 513.104366 607.825286 
L 513.28996 607.419555 
L 513.661149 628.309181 
L 513.846743 634.596572 
L 514.032337 633.582485 
L 514.217932 628.512047 
L 514.58912 637.84146 
L 514.774714 646.156786 
L 514.960309 648.184961 
L 515.145903 646.359651 
L 515.702686 630.743088 
L 516.073874 615.73488 
L 516.259469 621.210809 
L 516.445063 619.994096 
L 516.630657 622.833253 
L 517.001846 630.337356 
L 517.373034 635.813285 
L 517.558628 637.435729 
L 517.744223 641.086348 
L 517.929817 647.77923 
L 518.115411 648.590452 
L 518.301006 646.765142 
L 518.4866 642.303301 
L 518.672194 641.694945 
L 519.043383 646.156786 
L 519.78576 636.421882 
L 519.971354 636.624507 
L 520.899325 647.77923 
L 521.270514 655.89169 
L 521.827297 660.353531 
L 522.012891 659.542309 
L 522.38408 663.192928 
L 523.126457 665.018237 
L 523.683239 666.640681 
L 524.054428 667.046412 
L 524.425616 667.654769 
L 525.167994 668.465991 
L 525.539182 669.074588 
L 525.724776 669.074588 
L 526.652748 669.987242 
L 527.023936 670.088675 
L 527.766313 670.372543 
L 528.50869 670.554977 
L 528.879879 670.65641 
L 529.251067 670.676841 
L 529.622256 670.63622 
L 529.993445 670.676841 
L 531.292604 671.00133 
L 532.220576 671.122953 
L 533.890924 671.224386 
L 534.818896 671.244576 
L 535.746867 671.244576 
L 535.932461 671.244576 
L 536.489244 671.00133 
L 537.60281 670.960709 
L 538.159592 671.00133 
L 539.273158 670.980899 
L 540.015535 671.041711 
L 540.757912 671.062141 
L 541.500289 670.920087 
L 542.242666 670.899897 
L 543.913015 670.818655 
L 544.098609 670.554977 
L 545.02658 670.757843 
L 545.212175 670.63622 
L 545.397769 670.737653 
L 545.583363 670.676841 
L 545.768958 670.494166 
L 545.954552 670.534787 
L 546.32574 668.263366 
L 546.696929 670.169677 
L 547.996089 670.676841 
L 548.552872 670.717222 
L 548.92406 670.899897 
L 549.480843 670.757843 
L 549.852031 670.717222 
L 550.22322 670.757843 
L 550.780003 670.757843 
L 550.965597 670.63622 
L 551.52238 670.595599 
L 551.707974 668.871722 
L 551.893568 665.423968 
L 552.635945 669.622132 
L 553.192728 670.048054 
L 553.563917 670.149487 
L 553.749511 670.007433 
L 553.935105 670.027623 
L 554.306294 669.764186 
L 554.677482 669.966812 
L 555.41986 670.189868 
L 555.605454 670.149487 
L 555.791048 668.465991 
L 555.976642 669.074588 
L 556.162237 669.277213 
L 556.533425 669.277213 
L 556.719019 669.480078 
L 557.461397 669.561321 
L 558.574962 670.129056 
L 558.760556 670.088675 
L 559.131745 670.189868 
L 559.502933 670.169677 
L 559.874122 670.088675 
L 560.802093 670.149487 
L 561.358876 670.230489 
L 561.915659 670.189868 
L 562.286848 670.007433 
L 562.472442 668.668856 
L 562.658036 665.626594 
L 562.84363 664.409881 
L 563.214819 667.451903 
L 563.586007 668.0605 
L 563.771602 668.0605 
L 564.14279 667.451903 
L 564.699573 668.0605 
L 565.44195 668.0605 
L 565.813139 667.654769 
L 566.369921 668.668856 
L 566.926704 668.668856 
L 567.112299 669.074588 
L 567.297893 668.871722 
L 567.854676 668.871722 
L 568.04027 668.668856 
L 568.411458 667.249278 
L 568.782647 665.018237 
L 568.968241 662.787437 
L 569.153836 658.528221 
L 569.33943 657.514134 
L 569.525024 657.919865 
L 569.710618 658.933952 
L 570.081807 663.801284 
L 570.267401 664.00415 
L 570.452995 662.990062 
L 570.63859 660.962127 
L 570.824184 660.556396 
L 571.195372 664.00415 
L 571.380967 664.612747 
L 571.566561 664.815372 
L 571.752155 664.207015 
L 572.123344 661.773349 
L 572.308938 661.570484 
L 572.680127 659.136818 
L 573.051315 653.863515 
L 573.236909 650.618627 
L 573.608098 655.89169 
L 574.164881 661.773349 
L 574.350475 661.570484 
L 574.721664 663.598659 
L 574.907258 663.192928 
L 575.092852 663.395793 
L 575.464041 664.815372 
L 575.649635 665.018237 
L 575.835229 664.815372 
L 576.020824 665.018237 
L 576.392012 662.584571 
L 576.763201 658.12273 
L 577.134389 649.604539 
L 577.319983 648.793317 
L 577.505578 648.793317 
L 577.691172 650.618627 
L 578.06236 657.311508 
L 578.247955 658.933952 
L 578.433549 659.542309 
L 578.804738 654.472111 
L 578.990332 649.199048 
L 579.175926 648.590452 
L 579.36152 648.793317 
L 579.547115 648.590452 
L 579.918303 653.458024 
L 580.103897 653.660889 
L 580.289492 651.83558 
L 580.475086 652.038205 
L 580.846275 654.06638 
L 581.217463 655.080468 
L 581.588652 659.745174 
L 581.774246 660.353531 
L 582.331029 658.325356 
L 582.516623 658.731087 
L 582.702217 659.542309 
L 583.259 660.150665 
L 583.444594 660.556396 
L 583.815783 663.598659 
L 584.001377 663.395793 
L 584.55816 665.829459 
L 585.85732 667.249278 
L 586.414103 668.263366 
L 587.713263 669.642323 
L 590.682771 670.554977 
L 591.053959 670.575408 
L 591.796336 670.65641 
L 592.167525 670.676841 
L 593.281091 670.839085 
L 594.023468 670.940278 
L 597.364165 671.203955 
L 603.67437 671.203955 
L 603.859964 670.980899 
L 604.045558 671.082332 
L 604.416747 670.859276 
L 605.344718 671.102522 
L 605.530312 671.062141 
L 605.901501 671.203955 
L 607.200661 671.244576 
L 608.685415 671.183765 
L 609.056604 671.102522 
L 609.427792 670.920087 
L 609.613386 671.102522 
L 610.912546 671.02152 
L 611.098141 670.940278 
L 612.026112 671.041711 
L 620.377854 671.00133 
L 620.749043 670.899897 
L 622.048202 670.940278 
L 622.419391 671.02152 
L 623.347362 671.041711 
L 623.532957 670.494166 
L 623.718551 670.311731 
L 624.089739 670.737653 
L 624.460928 671.062141 
L 624.646522 671.041711 
L 624.832116 670.859276 
L 625.945682 670.818655 
L 627.616031 670.899897 
L 632.255887 670.798464 
L 633.926236 670.575408 
L 634.297424 670.453545 
L 635.596584 670.088675 
L 636.153367 669.743756 
L 636.338961 669.277213 
L 636.524555 669.277213 
L 636.895744 669.581511 
L 637.266933 669.561321 
L 637.452527 669.277213 
L 637.823715 669.277213 
L 638.380498 668.668856 
L 638.566092 668.0605 
L 638.751687 667.857634 
L 638.937281 667.857634 
L 639.122875 668.0605 
L 639.865252 668.0605 
L 640.236441 667.654769 
L 640.422035 667.046412 
L 640.607629 666.843547 
L 640.793224 666.438056 
L 640.978818 666.438056 
L 641.164412 666.23519 
L 641.350007 666.23519 
L 641.535601 665.829459 
L 641.906789 662.787437 
L 642.277978 659.745174 
L 642.649166 662.17884 
L 642.834761 661.367618 
L 643.205949 656.500046 
L 643.577138 659.745174 
L 643.762732 659.94804 
L 644.133921 662.17884 
L 644.319515 660.759262 
L 644.505109 657.108643 
L 644.690703 650.212896 
L 645.061892 648.387586 
L 645.43308 653.255158 
L 645.618675 653.660889 
L 645.804269 652.443936 
L 645.989863 652.241071 
L 646.175458 650.618627 
L 646.546646 643.317389 
L 646.917835 645.95392 
L 647.103429 645.751055 
L 647.289023 642.709032 
L 647.474617 643.317389 
L 647.660212 646.968008 
L 647.845806 644.736967 
L 648.0314 627.90369 
L 648.216995 623.644715 
L 648.402589 624.658562 
L 648.588183 621.007943 
L 648.959372 643.72312 
L 649.33056 648.996183 
L 649.516154 653.255158 
L 650.072937 657.311508 
L 650.62972 658.731087 
L 650.815314 658.325356 
L 651.000909 657.311508 
L 651.186503 657.108643 
L 651.372097 657.311508 
L 651.557691 657.919865 
L 651.743286 657.919865 
L 652.114474 659.339443 
L 652.300068 659.94804 
L 652.485663 660.962127 
L 652.671257 660.962127 
L 652.856851 660.353531 
L 653.22804 662.584571 
L 653.599228 663.192928 
L 653.784823 663.395793 
L 654.712794 666.23519 
L 654.898388 666.23519 
L 655.083982 666.438056 
L 655.82636 667.857634 
L 656.197548 668.263366 
L 656.568737 668.871722 
L 656.754331 669.074588 
L 656.939925 669.074588 
L 657.496708 669.54089 
L 658.610274 670.149487 
L 659.167056 670.2913 
L 662.322159 670.879466 
L 664.920479 671.062141 
L 669.189147 671.163574 
L 670.302713 671.183765 
L 673.643409 671.203955 
L 673.643409 671.203955 
" clip-path="url(#p8dd9548b9d)" style="fill: none; stroke: #1f77b4; stroke-width: 1.5; stroke-linecap: square"/>
   </g>
   <g id="patch_9">
    <path d="M 33.2875 684.92 
L 33.2875 386.16 
" style="fill: none; stroke: #000000; stroke-width: 0.8; stroke-linejoin: miter; stroke-linecap: square"/>
   </g>
   <g id="patch_10">
    <path d="M 704.136548 684.92 
L 704.136548 386.16 
" style="fill: none; stroke: #000000; stroke-width: 0.8; stroke-linejoin: miter; stroke-linecap: square"/>
   </g>
   <g id="patch_11">
    <path d="M 33.2875 684.92 
L 704.136548 684.92 
" style="fill: none; stroke: #000000; stroke-width: 0.8; stroke-linejoin: miter; stroke-linecap: square"/>
   </g>
   <g id="patch_12">
    <path d="M 33.2875 386.16 
L 704.136548 386.16 
" style="fill: none; stroke: #000000; stroke-width: 0.8; stroke-linejoin: miter; stroke-linecap: square"/>
   </g>
   <g id="text_35">
    <!-- 2 transformation(s) -->
    <g transform="translate(310.597337 380.16) scale(0.12 -0.12)">
     <use xlink:href="#DejaVuSans-32"/>
     <use xlink:href="#DejaVuSans-20" x="63.623047"/>
     <use xlink:href="#DejaVuSans-74" x="95.410156"/>
     <use xlink:href="#DejaVuSans-72" x="134.619141"/>
     <use xlink:href="#DejaVuSans-61" x="175.732422"/>
     <use xlink:href="#DejaVuSans-6e" x="237.011719"/>
     <use xlink:href="#DejaVuSans-73" x="300.390625"/>
     <use xlink:href="#DejaVuSans-66" x="352.490234"/>
     <use xlink:href="#DejaVuSans-6f" x="387.695312"/>
     <use xlink:href="#DejaVuSans-72" x="448.876953"/>
     <use xlink:href="#DejaVuSans-6d" x="488.240234"/>
     <use xlink:href="#DejaVuSans-61" x="585.652344"/>
     <use xlink:href="#DejaVuSans-74" x="646.931641"/>
     <use xlink:href="#DejaVuSans-69" x="686.140625"/>
     <use xlink:href="#DejaVuSans-6f" x="713.923828"/>
     <use xlink:href="#DejaVuSans-6e" x="775.105469"/>
     <use xlink:href="#DejaVuSans-28" x="838.484375"/>
     <use xlink:href="#DejaVuSans-73" x="877.498047"/>
     <use xlink:href="#DejaVuSans-29" x="929.597656"/>
    </g>
   </g>
  </g>
  <g id="text_36">
   <!-- training -->
   <g transform="translate(333.254063 16.318125) scale(0.12 -0.12)">
    <defs>
     <path id="DejaVuSans-67" d="M 2906 1791 
Q 2906 2416 2648 2759 
Q 2391 3103 1925 3103 
Q 1463 3103 1205 2759 
Q 947 2416 947 1791 
Q 947 1169 1205 825 
Q 1463 481 1925 481 
Q 2391 481 2648 825 
Q 2906 1169 2906 1791 
z
M 3481 434 
Q 3481 -459 3084 -895 
Q 2688 -1331 1869 -1331 
Q 1566 -1331 1297 -1286 
Q 1028 -1241 775 -1147 
L 775 -588 
Q 1028 -725 1275 -790 
Q 1522 -856 1778 -856 
Q 2344 -856 2625 -561 
Q 2906 -266 2906 331 
L 2906 616 
Q 2728 306 2450 153 
Q 2172 0 1784 0 
Q 1141 0 747 490 
Q 353 981 353 1791 
Q 353 2603 747 3093 
Q 1141 3584 1784 3584 
Q 2172 3584 2450 3431 
Q 2728 3278 2906 2969 
L 2906 3500 
L 3481 3500 
L 3481 434 
z
" transform="scale(0.015625)"/>
    </defs>
    <use xlink:href="#DejaVuSans-74"/>
    <use xlink:href="#DejaVuSans-72" x="39.208984"/>
    <use xlink:href="#DejaVuSans-61" x="80.322266"/>
    <use xlink:href="#DejaVuSans-69" x="141.601562"/>
    <use xlink:href="#DejaVuSans-6e" x="169.384766"/>
    <use xlink:href="#DejaVuSans-69" x="232.763672"/>
    <use xlink:href="#DejaVuSans-6e" x="260.546875"/>
    <use xlink:href="#DejaVuSans-67" x="323.925781"/>
   </g>
  </g>
 </g>
 <defs>
  <clipPath id="pdc3c963c3f">
   <rect x="33.2875" y="43.44" width="670.849048" height="298.76"/>
  </clipPath>
  <clipPath id="p8dd9548b9d">
   <rect x="33.2875" y="386.16" width="670.849048" height="298.76"/>
  </clipPath>
 </defs>
</svg>
