<?xml version="1.0" encoding="utf-8" standalone="no"?>
<!DOCTYPE svg PUBLIC "-//W3C//DTD SVG 1.1//EN"
  "http://www.w3.org/Graphics/SVG/1.1/DTD/svg11.dtd">
<svg xmlns:xlink="http://www.w3.org/1999/xlink" width="709.426761pt" height="708.798125pt" viewBox="0 0 709.426761 708.798125" xmlns="http://www.w3.org/2000/svg" version="1.1">
 <metadata>
  <rdf:RDF xmlns:dc="http://purl.org/dc/elements/1.1/" xmlns:cc="http://creativecommons.org/ns#" xmlns:rdf="http://www.w3.org/1999/02/22-rdf-syntax-ns#">
   <cc:Work>
    <dc:type rdf:resource="http://purl.org/dc/dcmitype/StillImage"/>
    <dc:date>2023-06-10T19:40:48.475538</dc:date>
    <dc:format>image/svg+xml</dc:format>
    <dc:creator>
     <cc:Agent>
      <dc:title>Matplotlib v3.7.1, https://matplotlib.org/</dc:title>
     </cc:Agent>
    </dc:creator>
   </cc:Work>
  </rdf:RDF>
 </metadata>
 <defs>
  <style type="text/css">*{stroke-linejoin: round; stroke-linecap: butt}</style>
 </defs>
 <g id="figure_1">
  <g id="patch_1">
   <path d="M 0 708.798125 
L 709.426761 708.798125 
L 709.426761 0 
L 0 0 
z
" style="fill: #ffffff"/>
  </g>
  <g id="axes_1">
   <g id="patch_2">
    <path d="M 30.103125 342.2 
L 702.226761 342.2 
L 702.226761 43.44 
L 30.103125 43.44 
z
" style="fill: #ffffff"/>
   </g>
   <g id="matplotlib.axis_1">
    <g id="xtick_1">
     <g id="line2d_1">
      <defs>
       <path id="ma60fb44187" d="M 0 0 
L 0 3.5 
" style="stroke: #000000; stroke-width: 0.8"/>
      </defs>
      <g>
       <use xlink:href="#ma60fb44187" x="60.484424" y="342.2" style="stroke: #000000; stroke-width: 0.8"/>
      </g>
     </g>
     <g id="text_1">
      <!-- 2014-07-01 -->
      <g transform="translate(31.426612 356.798437) scale(0.1 -0.1)">
       <defs>
        <path id="DejaVuSans-32" d="M 1228 531 
L 3431 531 
L 3431 0 
L 469 0 
L 469 531 
Q 828 903 1448 1529 
Q 2069 2156 2228 2338 
Q 2531 2678 2651 2914 
Q 2772 3150 2772 3378 
Q 2772 3750 2511 3984 
Q 2250 4219 1831 4219 
Q 1534 4219 1204 4116 
Q 875 4013 500 3803 
L 500 4441 
Q 881 4594 1212 4672 
Q 1544 4750 1819 4750 
Q 2544 4750 2975 4387 
Q 3406 4025 3406 3419 
Q 3406 3131 3298 2873 
Q 3191 2616 2906 2266 
Q 2828 2175 2409 1742 
Q 1991 1309 1228 531 
z
" transform="scale(0.015625)"/>
        <path id="DejaVuSans-30" d="M 2034 4250 
Q 1547 4250 1301 3770 
Q 1056 3291 1056 2328 
Q 1056 1369 1301 889 
Q 1547 409 2034 409 
Q 2525 409 2770 889 
Q 3016 1369 3016 2328 
Q 3016 3291 2770 3770 
Q 2525 4250 2034 4250 
z
M 2034 4750 
Q 2819 4750 3233 4129 
Q 3647 3509 3647 2328 
Q 3647 1150 3233 529 
Q 2819 -91 2034 -91 
Q 1250 -91 836 529 
Q 422 1150 422 2328 
Q 422 3509 836 4129 
Q 1250 4750 2034 4750 
z
" transform="scale(0.015625)"/>
        <path id="DejaVuSans-31" d="M 794 531 
L 1825 531 
L 1825 4091 
L 703 3866 
L 703 4441 
L 1819 4666 
L 2450 4666 
L 2450 531 
L 3481 531 
L 3481 0 
L 794 0 
L 794 531 
z
" transform="scale(0.015625)"/>
        <path id="DejaVuSans-34" d="M 2419 4116 
L 825 1625 
L 2419 1625 
L 2419 4116 
z
M 2253 4666 
L 3047 4666 
L 3047 1625 
L 3713 1625 
L 3713 1100 
L 3047 1100 
L 3047 0 
L 2419 0 
L 2419 1100 
L 313 1100 
L 313 1709 
L 2253 4666 
z
" transform="scale(0.015625)"/>
        <path id="DejaVuSans-2d" d="M 313 2009 
L 1997 2009 
L 1997 1497 
L 313 1497 
L 313 2009 
z
" transform="scale(0.015625)"/>
        <path id="DejaVuSans-37" d="M 525 4666 
L 3525 4666 
L 3525 4397 
L 1831 0 
L 1172 0 
L 2766 4134 
L 525 4134 
L 525 4666 
z
" transform="scale(0.015625)"/>
       </defs>
       <use xlink:href="#DejaVuSans-32"/>
       <use xlink:href="#DejaVuSans-30" x="63.623047"/>
       <use xlink:href="#DejaVuSans-31" x="127.246094"/>
       <use xlink:href="#DejaVuSans-34" x="190.869141"/>
       <use xlink:href="#DejaVuSans-2d" x="254.492188"/>
       <use xlink:href="#DejaVuSans-30" x="290.576172"/>
       <use xlink:href="#DejaVuSans-37" x="354.199219"/>
       <use xlink:href="#DejaVuSans-2d" x="417.822266"/>
       <use xlink:href="#DejaVuSans-30" x="453.90625"/>
       <use xlink:href="#DejaVuSans-31" x="517.529297"/>
      </g>
     </g>
    </g>
    <g id="xtick_2">
     <g id="line2d_2">
      <g>
       <use xlink:href="#ma60fb44187" x="182.722677" y="342.2" style="stroke: #000000; stroke-width: 0.8"/>
      </g>
     </g>
     <g id="text_2">
      <!-- 2014-07-02 -->
      <g transform="translate(153.664864 356.798437) scale(0.1 -0.1)">
       <use xlink:href="#DejaVuSans-32"/>
       <use xlink:href="#DejaVuSans-30" x="63.623047"/>
       <use xlink:href="#DejaVuSans-31" x="127.246094"/>
       <use xlink:href="#DejaVuSans-34" x="190.869141"/>
       <use xlink:href="#DejaVuSans-2d" x="254.492188"/>
       <use xlink:href="#DejaVuSans-30" x="290.576172"/>
       <use xlink:href="#DejaVuSans-37" x="354.199219"/>
       <use xlink:href="#DejaVuSans-2d" x="417.822266"/>
       <use xlink:href="#DejaVuSans-30" x="453.90625"/>
       <use xlink:href="#DejaVuSans-32" x="517.529297"/>
      </g>
     </g>
    </g>
    <g id="xtick_3">
     <g id="line2d_3">
      <g>
       <use xlink:href="#ma60fb44187" x="304.960929" y="342.2" style="stroke: #000000; stroke-width: 0.8"/>
      </g>
     </g>
     <g id="text_3">
      <!-- 2014-07-03 -->
      <g transform="translate(275.903117 356.798437) scale(0.1 -0.1)">
       <defs>
        <path id="DejaVuSans-33" d="M 2597 2516 
Q 3050 2419 3304 2112 
Q 3559 1806 3559 1356 
Q 3559 666 3084 287 
Q 2609 -91 1734 -91 
Q 1441 -91 1130 -33 
Q 819 25 488 141 
L 488 750 
Q 750 597 1062 519 
Q 1375 441 1716 441 
Q 2309 441 2620 675 
Q 2931 909 2931 1356 
Q 2931 1769 2642 2001 
Q 2353 2234 1838 2234 
L 1294 2234 
L 1294 2753 
L 1863 2753 
Q 2328 2753 2575 2939 
Q 2822 3125 2822 3475 
Q 2822 3834 2567 4026 
Q 2313 4219 1838 4219 
Q 1578 4219 1281 4162 
Q 984 4106 628 3988 
L 628 4550 
Q 988 4650 1302 4700 
Q 1616 4750 1894 4750 
Q 2613 4750 3031 4423 
Q 3450 4097 3450 3541 
Q 3450 3153 3228 2886 
Q 3006 2619 2597 2516 
z
" transform="scale(0.015625)"/>
       </defs>
       <use xlink:href="#DejaVuSans-32"/>
       <use xlink:href="#DejaVuSans-30" x="63.623047"/>
       <use xlink:href="#DejaVuSans-31" x="127.246094"/>
       <use xlink:href="#DejaVuSans-34" x="190.869141"/>
       <use xlink:href="#DejaVuSans-2d" x="254.492188"/>
       <use xlink:href="#DejaVuSans-30" x="290.576172"/>
       <use xlink:href="#DejaVuSans-37" x="354.199219"/>
       <use xlink:href="#DejaVuSans-2d" x="417.822266"/>
       <use xlink:href="#DejaVuSans-30" x="453.90625"/>
       <use xlink:href="#DejaVuSans-33" x="517.529297"/>
      </g>
     </g>
    </g>
    <g id="xtick_4">
     <g id="line2d_4">
      <g>
       <use xlink:href="#ma60fb44187" x="427.199182" y="342.2" style="stroke: #000000; stroke-width: 0.8"/>
      </g>
     </g>
     <g id="text_4">
      <!-- 2014-07-04 -->
      <g transform="translate(398.141369 356.798437) scale(0.1 -0.1)">
       <use xlink:href="#DejaVuSans-32"/>
       <use xlink:href="#DejaVuSans-30" x="63.623047"/>
       <use xlink:href="#DejaVuSans-31" x="127.246094"/>
       <use xlink:href="#DejaVuSans-34" x="190.869141"/>
       <use xlink:href="#DejaVuSans-2d" x="254.492188"/>
       <use xlink:href="#DejaVuSans-30" x="290.576172"/>
       <use xlink:href="#DejaVuSans-37" x="354.199219"/>
       <use xlink:href="#DejaVuSans-2d" x="417.822266"/>
       <use xlink:href="#DejaVuSans-30" x="453.90625"/>
       <use xlink:href="#DejaVuSans-34" x="517.529297"/>
      </g>
     </g>
    </g>
    <g id="xtick_5">
     <g id="line2d_5">
      <g>
       <use xlink:href="#ma60fb44187" x="549.437434" y="342.2" style="stroke: #000000; stroke-width: 0.8"/>
      </g>
     </g>
     <g id="text_5">
      <!-- 2014-07-05 -->
      <g transform="translate(520.379622 356.798437) scale(0.1 -0.1)">
       <defs>
        <path id="DejaVuSans-35" d="M 691 4666 
L 3169 4666 
L 3169 4134 
L 1269 4134 
L 1269 2991 
Q 1406 3038 1543 3061 
Q 1681 3084 1819 3084 
Q 2600 3084 3056 2656 
Q 3513 2228 3513 1497 
Q 3513 744 3044 326 
Q 2575 -91 1722 -91 
Q 1428 -91 1123 -41 
Q 819 9 494 109 
L 494 744 
Q 775 591 1075 516 
Q 1375 441 1709 441 
Q 2250 441 2565 725 
Q 2881 1009 2881 1497 
Q 2881 1984 2565 2268 
Q 2250 2553 1709 2553 
Q 1456 2553 1204 2497 
Q 953 2441 691 2322 
L 691 4666 
z
" transform="scale(0.015625)"/>
       </defs>
       <use xlink:href="#DejaVuSans-32"/>
       <use xlink:href="#DejaVuSans-30" x="63.623047"/>
       <use xlink:href="#DejaVuSans-31" x="127.246094"/>
       <use xlink:href="#DejaVuSans-34" x="190.869141"/>
       <use xlink:href="#DejaVuSans-2d" x="254.492188"/>
       <use xlink:href="#DejaVuSans-30" x="290.576172"/>
       <use xlink:href="#DejaVuSans-37" x="354.199219"/>
       <use xlink:href="#DejaVuSans-2d" x="417.822266"/>
       <use xlink:href="#DejaVuSans-30" x="453.90625"/>
       <use xlink:href="#DejaVuSans-35" x="517.529297"/>
      </g>
     </g>
    </g>
    <g id="xtick_6">
     <g id="line2d_6">
      <g>
       <use xlink:href="#ma60fb44187" x="671.675687" y="342.2" style="stroke: #000000; stroke-width: 0.8"/>
      </g>
     </g>
     <g id="text_6">
      <!-- 2014-07-06 -->
      <g transform="translate(642.617874 356.798437) scale(0.1 -0.1)">
       <defs>
        <path id="DejaVuSans-36" d="M 2113 2584 
Q 1688 2584 1439 2293 
Q 1191 2003 1191 1497 
Q 1191 994 1439 701 
Q 1688 409 2113 409 
Q 2538 409 2786 701 
Q 3034 994 3034 1497 
Q 3034 2003 2786 2293 
Q 2538 2584 2113 2584 
z
M 3366 4563 
L 3366 3988 
Q 3128 4100 2886 4159 
Q 2644 4219 2406 4219 
Q 1781 4219 1451 3797 
Q 1122 3375 1075 2522 
Q 1259 2794 1537 2939 
Q 1816 3084 2150 3084 
Q 2853 3084 3261 2657 
Q 3669 2231 3669 1497 
Q 3669 778 3244 343 
Q 2819 -91 2113 -91 
Q 1303 -91 875 529 
Q 447 1150 447 2328 
Q 447 3434 972 4092 
Q 1497 4750 2381 4750 
Q 2619 4750 2861 4703 
Q 3103 4656 3366 4563 
z
" transform="scale(0.015625)"/>
       </defs>
       <use xlink:href="#DejaVuSans-32"/>
       <use xlink:href="#DejaVuSans-30" x="63.623047"/>
       <use xlink:href="#DejaVuSans-31" x="127.246094"/>
       <use xlink:href="#DejaVuSans-34" x="190.869141"/>
       <use xlink:href="#DejaVuSans-2d" x="254.492188"/>
       <use xlink:href="#DejaVuSans-30" x="290.576172"/>
       <use xlink:href="#DejaVuSans-37" x="354.199219"/>
       <use xlink:href="#DejaVuSans-2d" x="417.822266"/>
       <use xlink:href="#DejaVuSans-30" x="453.90625"/>
       <use xlink:href="#DejaVuSans-36" x="517.529297"/>
      </g>
     </g>
    </g>
   </g>
   <g id="matplotlib.axis_2">
    <g id="ytick_1">
     <g id="line2d_7">
      <defs>
       <path id="maddeb95473" d="M 0 0 
L -3.5 0 
" style="stroke: #000000; stroke-width: 0.8"/>
      </defs>
      <g>
       <use xlink:href="#maddeb95473" x="30.103125" y="328.615953" style="stroke: #000000; stroke-width: 0.8"/>
      </g>
     </g>
     <g id="text_7">
      <!-- 0.0 -->
      <g transform="translate(7.2 332.415171) scale(0.1 -0.1)">
       <defs>
        <path id="DejaVuSans-2e" d="M 684 794 
L 1344 794 
L 1344 0 
L 684 0 
L 684 794 
z
" transform="scale(0.015625)"/>
       </defs>
       <use xlink:href="#DejaVuSans-30"/>
       <use xlink:href="#DejaVuSans-2e" x="63.623047"/>
       <use xlink:href="#DejaVuSans-30" x="95.410156"/>
      </g>
     </g>
    </g>
    <g id="ytick_2">
     <g id="line2d_8">
      <g>
       <use xlink:href="#maddeb95473" x="30.103125" y="288.892746" style="stroke: #000000; stroke-width: 0.8"/>
      </g>
     </g>
     <g id="text_8">
      <!-- 0.2 -->
      <g transform="translate(7.2 292.691965) scale(0.1 -0.1)">
       <use xlink:href="#DejaVuSans-30"/>
       <use xlink:href="#DejaVuSans-2e" x="63.623047"/>
       <use xlink:href="#DejaVuSans-32" x="95.410156"/>
      </g>
     </g>
    </g>
    <g id="ytick_3">
     <g id="line2d_9">
      <g>
       <use xlink:href="#maddeb95473" x="30.103125" y="249.16954" style="stroke: #000000; stroke-width: 0.8"/>
      </g>
     </g>
     <g id="text_9">
      <!-- 0.4 -->
      <g transform="translate(7.2 252.968759) scale(0.1 -0.1)">
       <use xlink:href="#DejaVuSans-30"/>
       <use xlink:href="#DejaVuSans-2e" x="63.623047"/>
       <use xlink:href="#DejaVuSans-34" x="95.410156"/>
      </g>
     </g>
    </g>
    <g id="ytick_4">
     <g id="line2d_10">
      <g>
       <use xlink:href="#maddeb95473" x="30.103125" y="209.446334" style="stroke: #000000; stroke-width: 0.8"/>
      </g>
     </g>
     <g id="text_10">
      <!-- 0.6 -->
      <g transform="translate(7.2 213.245553) scale(0.1 -0.1)">
       <use xlink:href="#DejaVuSans-30"/>
       <use xlink:href="#DejaVuSans-2e" x="63.623047"/>
       <use xlink:href="#DejaVuSans-36" x="95.410156"/>
      </g>
     </g>
    </g>
    <g id="ytick_5">
     <g id="line2d_11">
      <g>
       <use xlink:href="#maddeb95473" x="30.103125" y="169.723128" style="stroke: #000000; stroke-width: 0.8"/>
      </g>
     </g>
     <g id="text_11">
      <!-- 0.8 -->
      <g transform="translate(7.2 173.522346) scale(0.1 -0.1)">
       <defs>
        <path id="DejaVuSans-38" d="M 2034 2216 
Q 1584 2216 1326 1975 
Q 1069 1734 1069 1313 
Q 1069 891 1326 650 
Q 1584 409 2034 409 
Q 2484 409 2743 651 
Q 3003 894 3003 1313 
Q 3003 1734 2745 1975 
Q 2488 2216 2034 2216 
z
M 1403 2484 
Q 997 2584 770 2862 
Q 544 3141 544 3541 
Q 544 4100 942 4425 
Q 1341 4750 2034 4750 
Q 2731 4750 3128 4425 
Q 3525 4100 3525 3541 
Q 3525 3141 3298 2862 
Q 3072 2584 2669 2484 
Q 3125 2378 3379 2068 
Q 3634 1759 3634 1313 
Q 3634 634 3220 271 
Q 2806 -91 2034 -91 
Q 1263 -91 848 271 
Q 434 634 434 1313 
Q 434 1759 690 2068 
Q 947 2378 1403 2484 
z
M 1172 3481 
Q 1172 3119 1398 2916 
Q 1625 2713 2034 2713 
Q 2441 2713 2670 2916 
Q 2900 3119 2900 3481 
Q 2900 3844 2670 4047 
Q 2441 4250 2034 4250 
Q 1625 4250 1398 4047 
Q 1172 3844 1172 3481 
z
" transform="scale(0.015625)"/>
       </defs>
       <use xlink:href="#DejaVuSans-30"/>
       <use xlink:href="#DejaVuSans-2e" x="63.623047"/>
       <use xlink:href="#DejaVuSans-38" x="95.410156"/>
      </g>
     </g>
    </g>
    <g id="ytick_6">
     <g id="line2d_12">
      <g>
       <use xlink:href="#maddeb95473" x="30.103125" y="129.999921" style="stroke: #000000; stroke-width: 0.8"/>
      </g>
     </g>
     <g id="text_12">
      <!-- 1.0 -->
      <g transform="translate(7.2 133.79914) scale(0.1 -0.1)">
       <use xlink:href="#DejaVuSans-31"/>
       <use xlink:href="#DejaVuSans-2e" x="63.623047"/>
       <use xlink:href="#DejaVuSans-30" x="95.410156"/>
      </g>
     </g>
    </g>
    <g id="ytick_7">
     <g id="line2d_13">
      <g>
       <use xlink:href="#maddeb95473" x="30.103125" y="90.276715" style="stroke: #000000; stroke-width: 0.8"/>
      </g>
     </g>
     <g id="text_13">
      <!-- 1.2 -->
      <g transform="translate(7.2 94.075934) scale(0.1 -0.1)">
       <use xlink:href="#DejaVuSans-31"/>
       <use xlink:href="#DejaVuSans-2e" x="63.623047"/>
       <use xlink:href="#DejaVuSans-32" x="95.410156"/>
      </g>
     </g>
    </g>
    <g id="ytick_8">
     <g id="line2d_14">
      <g>
       <use xlink:href="#maddeb95473" x="30.103125" y="50.553509" style="stroke: #000000; stroke-width: 0.8"/>
      </g>
     </g>
     <g id="text_14">
      <!-- 1.4 -->
      <g transform="translate(7.2 54.352728) scale(0.1 -0.1)">
       <use xlink:href="#DejaVuSans-31"/>
       <use xlink:href="#DejaVuSans-2e" x="63.623047"/>
       <use xlink:href="#DejaVuSans-34" x="95.410156"/>
      </g>
     </g>
    </g>
   </g>
   <g id="line2d_15">
    <path d="M 60.654199 328.615953 
L 64.64392 328.512245 
L 66.426561 328.174831 
L 70.670945 327.138042 
L 75.085104 326.877457 
L 76.188644 326.574644 
L 77.037521 326.146782 
L 77.461959 325.715993 
L 77.886397 325.013957 
L 78.395724 323.653789 
L 78.989937 320.997415 
L 80.772578 310.447379 
L 85.526288 268.785878 
L 85.696064 267.638432 
L 86.035614 264.492455 
L 86.290277 262.919731 
L 86.629828 259.767847 
L 86.884491 258.239505 
L 87.224042 255.163648 
L 87.563592 252.921856 
L 87.903143 250.761442 
L 88.157806 249.75276 
L 88.497357 247.855401 
L 88.836908 246.480621 
L 89.176458 245.324698 
L 89.261346 245.032194 
L 89.85556 234.127643 
L 90.19511 232.083044 
L 90.534661 231.332049 
L 90.789324 231.080051 
L 91.043987 231.096086 
L 91.468426 231.459396 
L 92.062639 232.33618 
L 92.826628 233.7315 
L 92.911516 233.649021 
L 93.335954 218.133766 
L 93.50573 215.372213 
L 93.930168 189.770289 
L 94.184831 184.331509 
L 94.524382 162.758691 
L 94.863933 150.911682 
L 95.118596 137.567596 
L 95.458146 127.878781 
L 95.712809 117.136985 
L 96.05236 109.86655 
L 96.307023 101.343917 
L 96.646574 95.882727 
L 96.901237 89.369526 
L 97.071012 88.181492 
L 97.240787 87.981753 
L 97.580338 81.59333 
L 97.750114 81.131394 
L 97.835001 81.031927 
L 98.174552 75.912797 
L 98.25944 75.650979 
L 98.344327 75.699777 
L 98.429215 75.728497 
L 98.768766 71.944151 
L 98.853653 71.913015 
L 99.023429 72.302453 
L 99.362979 69.751648 
L 99.447867 69.876946 
L 99.617642 70.542124 
L 99.872305 68.974976 
L 99.957193 69.007342 
L 100.126968 69.710734 
L 100.296744 70.916006 
L 100.551407 70.44673 
L 100.721182 71.15822 
L 100.890958 72.325182 
L 100.975845 72.234903 
L 101.060733 72.096251 
L 101.230508 72.573387 
L 101.654947 74.454657 
L 101.824722 75.18355 
L 102.334048 77.9599 
L 102.588711 79.822773 
L 102.843374 81.258018 
L 103.182925 83.830463 
L 103.437588 85.554092 
L 103.522475 85.610964 
L 103.777138 86.99457 
L 103.946914 88.235617 
L 104.201577 87.609979 
L 104.371352 88.200291 
L 104.541128 89.144549 
L 104.880678 86.124492 
L 104.965566 86.153875 
L 105.135341 86.432149 
L 105.474892 78.4189 
L 105.729555 76.885254 
L 106.069106 60.143051 
L 106.323769 57.362297 
L 106.578432 57.02 
L 106.748207 57.640808 
L 107.172646 61.077648 
L 107.851747 68.330917 
L 110.313489 96.409443 
L 111.586805 111.367475 
L 113.19967 128.500796 
L 114.642761 142.132343 
L 115.661413 150.865381 
L 117.359167 163.703339 
L 118.377819 170.450408 
L 119.820909 179.079339 
L 121.264 186.498867 
L 121.688438 188.500581 
L 121.773326 188.45228 
L 122.027989 188.132938 
L 122.197764 188.298522 
L 122.70709 189.389884 
L 123.980405 193.711695 
L 125.338608 198.552729 
L 127.291025 204.446223 
L 129.667879 210.178016 
L 130.092318 210.97054 
L 130.516756 211.675412 
L 131.535408 213.462756 
L 131.874959 213.882417 
L 132.21451 214.329152 
L 132.55406 214.765292 
L 132.808723 215.010206 
L 133.063387 215.25802 
L 133.402937 215.576699 
L 133.6576 215.78206 
L 134.082039 216.217608 
L 134.336702 216.410077 
L 134.591365 216.659336 
L 134.846028 216.693253 
L 135.270466 216.914466 
L 135.525129 216.990918 
L 135.779792 217.145351 
L 136.034455 217.060315 
L 136.374006 217.217766 
L 136.628669 217.078819 
L 136.883332 217.252098 
L 137.053107 217.317991 
L 137.30777 217.169146 
L 137.647321 217.260847 
L 137.901984 217.032957 
L 138.241535 217.057734 
L 138.496198 216.753735 
L 139.005524 216.826731 
L 139.260187 217.041291 
L 140.024176 218.19761 
L 140.873053 220.053404 
L 142.570806 224.424167 
L 146.220976 233.582246 
L 147.579179 236.459236 
L 148.003617 237.007462 
L 148.343168 237.007178 
L 148.597831 237.084642 
L 148.852494 236.993427 
L 149.701371 237.218322 
L 150.210697 237.681406 
L 151.059574 238.5313 
L 151.484012 238.792994 
L 151.738675 238.918233 
L 152.078226 239.092974 
L 152.502664 239.303053 
L 152.927103 239.580375 
L 153.775979 240.150845 
L 154.11553 240.256225 
L 154.455081 240.071498 
L 154.709744 240.046702 
L 155.049294 239.854914 
L 156.32261 240.008151 
L 157.256374 240.43891 
L 157.595925 240.384714 
L 158.020363 240.591892 
L 158.614577 240.981898 
L 159.039015 241.110268 
L 159.378566 240.723743 
L 160.057667 240.53328 
L 160.227443 240.518849 
L 160.566993 240.355822 
L 160.906544 240.293818 
L 161.246095 240.258208 
L 161.840308 240.567517 
L 163.028736 241.729542 
L 163.283399 241.948619 
L 163.62295 241.883856 
L 164.556714 242.134133 
L 164.896265 241.826825 
L 165.405591 241.820189 
L 165.914917 242.128066 
L 166.933569 242.890751 
L 167.27312 242.540481 
L 167.782446 242.28003 
L 168.71621 241.672641 
L 169.310424 240.889996 
L 169.649975 240.912418 
L 170.159301 241.050513 
L 170.498851 241.181831 
L 171.687279 241.885733 
L 171.857054 241.913606 
L 172.196605 241.777606 
L 172.790819 241.969922 
L 173.46992 242.539368 
L 173.809471 242.796718 
L 174.743235 243.204517 
L 174.91301 243.203653 
L 175.252561 242.92497 
L 175.592112 242.948961 
L 176.186326 243.117333 
L 176.525876 243.029823 
L 176.780539 243.003861 
L 177.12009 242.658801 
L 177.374753 242.544495 
L 177.714304 242.23856 
L 178.138742 242.255536 
L 179.496945 242.91196 
L 180.091159 243.50358 
L 180.77026 244.102557 
L 181.024923 244.24363 
L 181.364474 244.11098 
L 181.619137 244.087854 
L 181.958688 243.856549 
L 182.213351 243.76206 
L 182.552901 243.356505 
L 183.062227 243.249728 
L 184.080879 243.234924 
L 184.42043 242.862493 
L 184.675093 242.688722 
L 185.014644 242.131629 
L 186.62751 241.131979 
L 186.96706 241.126842 
L 187.136836 241.142812 
L 187.476386 241.066525 
L 187.731049 241.027067 
L 188.0706 240.570518 
L 188.495039 240.475153 
L 188.834589 240.617043 
L 189.089252 240.682533 
L 189.428803 240.78506 
L 189.683466 240.821232 
L 190.023017 240.889398 
L 190.27768 240.929116 
L 190.61723 241.018757 
L 191.126556 241.429284 
L 191.38122 241.632467 
L 191.72077 241.637712 
L 192.314984 241.984217 
L 192.994085 242.680749 
L 193.248748 242.882677 
L 193.588299 242.701301 
L 193.758074 242.710854 
L 194.437176 241.901212 
L 194.776727 241.921224 
L 196.389592 242.55139 
L 196.898918 242.633827 
L 197.238469 242.186216 
L 198.087346 241.847802 
L 198.511784 242.127586 
L 199.190886 242.891722 
L 200.464201 244.720234 
L 202.33173 247.588279 
L 205.472574 252.205589 
L 207.764541 255.281115 
L 207.849429 255.319667 
L 208.104092 251.496846 
L 208.613418 244.320284 
L 208.952968 239.207316 
L 209.037856 238.533555 
L 209.547182 229.596742 
L 209.63207 228.862528 
L 210.141396 220.010561 
L 210.311171 219.097971 
L 210.73561 212.095878 
L 210.905385 210.952178 
L 211.329823 204.640113 
L 211.499599 203.677068 
L 211.924037 198.49414 
L 212.093812 197.819847 
L 212.518251 193.666615 
L 212.688026 193.23772 
L 213.112464 190.149332 
L 213.28224 189.989134 
L 213.367127 189.99748 
L 213.706678 188.2732 
L 213.876453 188.137756 
L 213.961341 188.140077 
L 214.38578 186.785534 
L 214.555555 186.847674 
L 214.895106 185.903168 
L 215.064881 185.949468 
L 215.149769 186.031201 
L 215.489319 185.387806 
L 215.659095 185.517271 
L 215.743982 185.636223 
L 216.083533 185.264414 
L 216.253308 185.458599 
L 216.507971 185.79751 
L 216.677747 185.743278 
L 216.847522 185.944035 
L 217.102185 186.322095 
L 217.271961 186.305178 
L 217.526624 186.726449 
L 217.696399 186.981378 
L 217.866174 187.049141 
L 218.120837 187.531581 
L 218.205725 187.724524 
L 218.630163 186.56064 
L 218.799939 186.610195 
L 219.224377 183.58493 
L 219.47904 183.333754 
L 219.903478 177.69713 
L 220.073254 176.967184 
L 220.412805 166.429198 
L 220.667468 163.28704 
L 221.091906 133.445286 
L 221.346569 128.601139 
L 221.601232 127.045 
L 221.68612 127.048196 
L 221.940783 127.845918 
L 222.195446 129.177245 
L 223.044322 135.609364 
L 223.723424 140.971632 
L 224.826964 149.320809 
L 226.524717 162.307042 
L 228.307358 174.746021 
L 229.920224 184.677547 
L 231.448202 193.027801 
L 233.485507 202.639949 
L 234.504159 206.558733 
L 235.18326 208.582786 
L 236.965901 213.392128 
L 237.814778 215.396328 
L 238.578767 216.602771 
L 238.83343 216.841162 
L 240.191633 218.631797 
L 240.785847 218.806106 
L 240.955622 218.871644 
L 241.210285 218.710309 
L 241.549836 218.79055 
L 241.804499 218.597856 
L 242.568488 218.796766 
L 243.502252 219.947604 
L 244.69068 221.749177 
L 244.945343 221.943837 
L 245.200006 222.133157 
L 245.454669 222.004674 
L 246.218658 222.310296 
L 246.727984 223.017855 
L 247.152422 223.568721 
L 247.491973 223.823568 
L 247.746636 223.982735 
L 248.001299 224.152534 
L 248.595513 224.934771 
L 248.850176 225.231501 
L 249.104839 225.140073 
L 249.444389 225.219947 
L 249.699053 224.987215 
L 249.953716 225.051912 
L 250.463042 225.582321 
L 250.717705 225.865142 
L 250.972368 225.854025 
L 251.311918 225.95908 
L 251.566581 225.622892 
L 251.821244 225.625544 
L 252.160795 225.784605 
L 252.670121 226.415949 
L 253.349223 227.593187 
L 253.858549 228.307873 
L 254.198099 228.532981 
L 254.792313 229.339167 
L 255.64119 230.523638 
L 255.98074 230.700942 
L 256.235404 230.843051 
L 256.490067 230.670701 
L 257.169168 230.782349 
L 258.018045 231.270957 
L 258.272708 231.322401 
L 259.29136 232.01154 
L 259.546023 231.807659 
L 259.970461 231.666438 
L 260.225124 231.534587 
L 262.092653 231.851597 
L 263.026418 232.596726 
L 263.281081 232.566414 
L 263.790407 232.865175 
L 265.063722 234.243388 
L 265.403272 234.599198 
L 265.657935 234.430932 
L 266.676588 234.4532 
L 267.016138 234.62719 
L 267.185914 234.648369 
L 267.440577 234.40384 
L 267.780127 234.409676 
L 268.119678 234.53424 
L 268.544116 234.736826 
L 268.798779 234.759668 
L 269.053443 234.825561 
L 269.308106 234.670359 
L 269.647656 234.597517 
L 269.987207 234.078443 
L 270.156982 234.009993 
L 270.666308 233.106844 
L 271.005859 233.058111 
L 271.34541 233.273405 
L 272.533837 234.577818 
L 273.212939 235.450204 
L 273.89204 235.622376 
L 274.146703 235.626437 
L 274.571141 235.783888 
L 274.910692 235.449707 
L 275.080467 235.434056 
L 275.929344 234.293666 
L 276.184007 234.178034 
L 276.523558 234.296797 
L 277.202659 234.90048 
L 277.711985 235.311386 
L 278.051536 235.414061 
L 278.560862 235.907689 
L 278.815525 236.101827 
L 279.155076 235.865923 
L 279.409739 235.771114 
L 279.74929 235.277244 
L 280.08884 235.226901 
L 280.428391 235.403762 
L 280.683054 235.574626 
L 280.937717 235.56499 
L 281.277268 235.632634 
L 281.531931 235.320372 
L 281.956369 235.227896 
L 282.29592 235.312434 
L 282.380808 235.361274 
L 283.229684 234.632565 
L 283.484347 234.656413 
L 283.908786 234.994489 
L 284.587887 235.9274 
L 285.94609 238.305132 
L 290.275361 246.067436 
L 292.227778 249.114313 
L 292.652216 249.119391 
L 293.161542 249.411552 
L 293.925531 250.13887 
L 295.198847 251.648028 
L 298.00014 254.963199 
L 298.849017 255.630159 
L 300.376995 257.16184 
L 302.074748 258.833901 
L 303.0934 259.337638 
L 303.348063 259.338964 
L 304.366715 258.937748 
L 305.215592 257.946071 
L 305.555143 257.457156 
L 305.724918 257.211952 
L 306.149357 256.301363 
L 306.319132 255.980607 
L 306.658683 255.009014 
L 306.913346 254.482973 
L 307.252896 253.34553 
L 307.507559 252.733814 
L 307.84711 251.450729 
L 308.186661 250.472235 
L 308.526212 248.284308 
L 308.780875 246.965944 
L 309.120425 244.390948 
L 309.375088 243.053145 
L 309.714639 240.365003 
L 309.969302 238.974033 
L 310.308853 236.341218 
L 310.563516 235.000184 
L 310.903066 232.477957 
L 311.242617 231.08623 
L 311.582168 228.763795 
L 311.836831 227.636018 
L 312.176382 225.241978 
L 312.431045 224.090986 
L 312.685708 222.149968 
L 313.025258 220.643858 
L 313.279921 218.752892 
L 313.619472 217.331037 
L 313.959023 215.249543 
L 314.298574 214.205618 
L 314.638124 212.307395 
L 314.892787 211.522247 
L 315.14745 210.116349 
L 315.571889 208.858314 
L 315.826552 208.192698 
L 316.081215 207.884449 
L 316.335878 207.287602 
L 316.590541 207.114844 
L 317.014979 198.922254 
L 317.269642 197.557968 
L 317.524305 196.836356 
L 317.694081 196.768889 
L 317.948744 197.010239 
L 318.288294 197.634824 
L 318.79762 199.147812 
L 323.126892 213.508961 
L 325.249084 219.066137 
L 327.286388 223.703668 
L 332.040098 235.112199 
L 334.671616 240.526692 
L 337.218246 245.218733 
L 340.019539 249.792211 
L 342.481282 253.373931 
L 344.858137 256.499355 
L 347.744318 259.904593 
L 350.800274 263.128638 
L 354.195781 266.306394 
L 358.185502 269.609514 
L 361.665896 272.159028 
L 364.636965 274.135579 
L 367.353371 275.804355 
L 373.635059 279.210454 
L 377.96433 281.287269 
L 382.71804 283.395567 
L 390.103268 286.29597 
L 396.384956 288.464277 
L 403.770183 290.724164 
L 411.664737 292.853508 
L 432.801768 297.465885 
L 443.412728 299.33975 
L 456.400542 301.326613 
L 479.150439 304.207877 
L 492.392917 305.602756 
L 511.068205 307.334867 
L 531.865686 308.985771 
L 563.868339 311.052931 
L 586.278686 312.219614 
L 616.668473 313.62049 
L 651.896859 315.010804 
L 671.675687 315.696711 
L 671.675687 315.696711 
" clip-path="url(#p23bad036fa)" style="fill: none; stroke: #1f77b4; stroke-width: 1.5; stroke-linecap: square"/>
   </g>
   <g id="line2d_16">
    <path d="M 60.654199 328.615953 
L 61.587964 328.505547 
L 62.521728 328.1348 
L 63.370605 327.636582 
L 65.068359 326.614705 
L 66.681224 325.457077 
L 66.935887 325.263786 
L 68.124315 324.349585 
L 68.803416 324.034087 
L 69.737181 323.842146 
L 71.689597 323.749364 
L 73.472238 323.625021 
L 74.15134 323.271067 
L 74.575778 322.890874 
L 74.745553 322.752792 
L 75.169992 322.210319 
L 75.339767 322.020552 
L 75.764206 321.308167 
L 76.018869 320.99462 
L 76.443307 320.14757 
L 76.613082 319.859346 
L 77.037521 318.814556 
L 77.207296 318.465796 
L 77.631734 317.23235 
L 77.80151 316.825414 
L 78.225948 315.405757 
L 78.395724 314.941372 
L 78.820162 313.333121 
L 79.074825 312.657497 
L 79.499263 310.951544 
L 79.669039 310.393838 
L 80.008589 308.731091 
L 80.34814 307.231819 
L 81.45168 300.789807 
L 81.791231 297.793234 
L 82.300557 294.181084 
L 85.611176 268.980564 
L 85.780951 267.981249 
L 86.120502 265.051568 
L 86.460053 262.61005 
L 86.799603 260.19181 
L 86.969379 259.196067 
L 87.308929 256.297718 
L 87.64848 254.081324 
L 87.988031 252.021195 
L 88.327582 250.424516 
L 88.667132 248.933835 
L 88.836908 248.396358 
L 89.176458 246.990589 
L 89.346234 246.795029 
L 89.516009 243.12046 
L 89.85556 237.380518 
L 90.364886 233.274657 
L 90.704436 232.194482 
L 90.9591 231.836618 
L 91.213763 231.79069 
L 91.553313 232.031811 
L 92.062639 232.750916 
L 92.911516 234.355802 
L 92.996404 234.747443 
L 93.081291 232.908253 
L 93.420842 220.268747 
L 93.675505 213.396689 
L 94.015056 194.884596 
L 94.439494 178.767766 
L 94.779045 165.211503 
L 94.94882 159.911913 
L 95.288371 143.974961 
L 95.543034 137.244045 
L 95.882585 123.795593 
L 96.137248 118.454646 
L 96.391911 109.351612 
L 97.240787 93.969138 
L 97.325675 93.861318 
L 97.835001 86.815614 
L 97.919889 86.82234 
L 98.429215 81.495217 
L 98.514103 81.663714 
L 98.683878 79.600339 
L 98.938541 78.079629 
L 99.023429 78.092188 
L 99.108316 78.417322 
L 99.193204 78.028998 
L 99.447867 76.226231 
L 99.532755 76.221385 
L 99.70253 76.868974 
L 99.787418 76.710052 
L 99.957193 75.731459 
L 100.042081 75.679205 
L 100.211856 76.177526 
L 100.466519 77.482651 
L 100.551407 77.150612 
L 100.636294 77.173008 
L 100.80607 77.725352 
L 101.060733 79.126058 
L 101.145621 78.932225 
L 101.315396 79.323905 
L 103.267812 89.677045 
L 103.522475 91.67078 
L 103.607363 91.606607 
L 103.777138 92.132976 
L 104.116689 93.943344 
L 104.286465 93.370031 
L 104.371352 93.421901 
L 104.541128 93.998447 
L 104.626015 94.589136 
L 104.710903 94.289969 
L 104.965566 92.17423 
L 105.050454 92.053842 
L 105.135341 92.114853 
L 105.220229 92.535262 
L 105.305117 91.493592 
L 105.55978 86.254412 
L 105.729555 85.008051 
L 105.814443 85.136062 
L 105.984218 77.132437 
L 106.323769 66.980634 
L 106.578432 64.811363 
L 106.748207 64.187999 
L 106.833095 64.282532 
L 107.00287 65.053434 
L 107.681972 70.930086 
L 108.785511 83.603483 
L 109.973939 97.483271 
L 112.435681 124.87655 
L 113.878772 138.37226 
L 115.661413 152.52569 
L 117.189391 162.834713 
L 118.802257 172.309865 
L 121.094224 183.572202 
L 121.858213 186.619301 
L 122.112876 186.122024 
L 122.282652 186.172206 
L 122.70709 186.804063 
L 123.386192 188.743433 
L 126.102597 197.774956 
L 126.951474 200.146368 
L 128.309677 203.710948 
L 129.158553 205.723238 
L 129.498104 206.363328 
L 130.262093 207.942067 
L 132.299397 211.238796 
L 132.638948 211.697561 
L 132.893611 211.984667 
L 133.233162 212.389508 
L 133.402937 212.633616 
L 133.572713 212.686245 
L 133.912263 213.128613 
L 134.082039 213.380005 
L 134.251814 213.423835 
L 134.506477 213.713255 
L 134.676252 213.92268 
L 134.846028 213.917076 
L 135.100691 214.153411 
L 135.270466 214.332137 
L 135.440241 214.285655 
L 135.694904 214.478498 
L 135.86468 214.631161 
L 136.034455 214.546856 
L 136.289118 214.699967 
L 136.458894 214.828373 
L 136.628669 214.706904 
L 136.883332 214.819758 
L 137.137995 215.059426 
L 137.30777 214.933838 
L 137.562433 215.043932 
L 137.732209 215.140539 
L 137.986872 214.935706 
L 138.156647 215.005095 
L 138.326422 215.067366 
L 138.581085 214.79542 
L 138.835748 214.910712 
L 139.260187 215.067119 
L 139.939288 216.054723 
L 141.042828 218.562447 
L 146.81519 232.917662 
L 147.579179 234.367979 
L 148.173393 234.729845 
L 148.428056 234.661192 
L 148.767606 234.647781 
L 149.022269 234.61882 
L 149.956034 235.108875 
L 150.974686 236.367489 
L 151.229349 236.589217 
L 151.5689 236.862562 
L 151.823563 237.024277 
L 152.163113 237.24609 
L 152.587552 237.530032 
L 153.01199 237.890512 
L 153.860867 238.610032 
L 154.200418 238.794327 
L 154.455081 238.631025 
L 155.813284 238.759819 
L 156.237722 238.924192 
L 156.577273 239.13674 
L 157.341262 239.645705 
L 157.595925 239.603876 
L 158.020363 239.848038 
L 159.039015 240.703985 
L 159.123903 240.663052 
L 159.378566 240.323448 
L 159.887892 240.167383 
L 160.142555 240.21835 
L 160.31233 240.268909 
L 160.566993 240.14358 
L 161.500758 240.320027 
L 162.094971 240.838505 
L 163.113624 242.008427 
L 163.368287 242.284221 
L 163.62295 242.157667 
L 164.217163 242.28953 
L 164.641602 242.535795 
L 164.896265 242.257984 
L 165.235815 242.242256 
L 165.490479 242.296254 
L 165.999805 242.703463 
L 167.018457 243.647706 
L 167.27312 243.305444 
L 167.527783 243.236658 
L 167.697558 243.223117 
L 167.952221 243.014915 
L 168.376659 242.836035 
L 168.71621 242.621085 
L 168.801098 242.646928 
L 169.480199 241.984443 
L 169.81975 242.133141 
L 170.159301 242.29881 
L 170.498851 242.422499 
L 171.093065 242.98204 
L 171.347728 243.245974 
L 171.602391 243.228913 
L 172.02683 243.285866 
L 172.36638 243.241728 
L 173.045482 243.632071 
L 174.318797 244.666516 
L 174.997898 244.876923 
L 175.252561 244.607469 
L 175.592112 244.599427 
L 175.931663 244.799328 
L 176.186326 244.972751 
L 176.440989 244.803697 
L 176.695652 244.839086 
L 176.865427 244.849014 
L 177.12009 244.55008 
L 178.053854 244.211209 
L 178.393405 244.376614 
L 178.732956 244.561294 
L 179.072507 244.711465 
L 180.176046 245.745718 
L 180.685372 246.221713 
L 181.109811 246.495256 
L 181.364474 246.307608 
L 181.788912 246.18298 
L 182.128463 246.048893 
L 182.298238 246.010896 
L 182.552901 245.668996 
L 182.807564 245.58784 
L 183.741329 245.673066 
L 183.995992 245.719042 
L 184.165767 245.728802 
L 184.42043 245.408207 
L 184.759981 245.264346 
L 185.014644 244.816086 
L 185.693745 244.358278 
L 186.033296 244.369626 
L 186.287959 244.087259 
L 186.797285 243.972406 
L 187.646162 244.053303 
L 187.815937 244.053683 
L 188.0706 243.66199 
L 188.410151 243.549739 
L 188.664814 243.56965 
L 189.768354 243.979985 
L 190.107904 244.057137 
L 190.27768 244.134556 
L 190.532343 244.126601 
L 190.956781 244.399292 
L 191.550995 244.845722 
L 191.890546 244.883031 
L 192.569647 245.35429 
L 193.333636 246.165366 
L 193.588299 245.911655 
L 193.92785 245.808271 
L 194.2674 245.213244 
L 194.606951 245.077014 
L 194.946502 245.181984 
L 195.795379 245.644254 
L 196.050042 245.664011 
L 196.983806 245.989902 
L 197.238469 245.565266 
L 197.832683 245.178108 
L 198.172234 245.21688 
L 198.596672 245.548444 
L 199.360661 246.505001 
L 206.236563 256.017627 
L 207.934316 258.175534 
L 208.019204 257.459993 
L 208.358755 252.568131 
L 208.613418 249.871232 
L 208.952968 242.902236 
L 209.207631 239.467098 
L 209.547182 232.362567 
L 209.886733 226.811458 
L 210.226283 221.60824 
L 210.480946 219.121775 
L 210.820497 214.014511 
L 211.160048 210.169685 
L 211.499599 206.624171 
L 211.669374 205.320777 
L 212.008925 201.555627 
L 212.348475 198.903899 
L 212.688026 196.547944 
L 212.772914 196.331498 
L 213.367127 192.816451 
L 213.452015 192.760323 
L 214.38578 188.986708 
L 214.555555 188.714928 
L 214.640443 188.728934 
L 215.149769 187.42384 
L 215.234656 187.483331 
L 215.743982 186.624216 
L 215.82887 186.725409 
L 215.913758 186.634803 
L 216.168421 186.193476 
L 216.338196 186.258548 
L 216.592859 186.549051 
L 216.762634 186.373511 
L 216.93241 186.463894 
L 217.187073 186.796737 
L 217.356848 186.70083 
L 217.526624 186.846645 
L 217.866174 187.201252 
L 218.03595 187.319111 
L 218.290613 187.857866 
L 218.3755 187.742045 
L 218.630163 186.853515 
L 218.799939 186.732507 
L 218.884826 186.844463 
L 219.054602 185.472875 
L 219.394152 183.710904 
L 219.47904 183.555496 
L 219.563928 183.603818 
L 219.733703 181.003094 
L 220.073254 177.405116 
L 220.158141 177.186216 
L 220.412805 168.960701 
L 220.837243 158.807846 
L 221.176794 136.688096 
L 221.516344 127.873128 
L 221.771007 125.157518 
L 222.02567 124.438559 
L 222.195446 124.424066 
L 222.365221 124.8738 
L 222.789659 127.041457 
L 223.468761 131.71593 
L 228.98646 171.857967 
L 230.684213 181.590915 
L 232.466854 190.559854 
L 233.825057 196.425796 
L 234.843709 199.953369 
L 238.239216 208.871112 
L 238.663655 209.618359 
L 239.003205 210.052449 
L 239.767194 211.353175 
L 240.021858 211.663322 
L 240.361408 212.240176 
L 240.446296 212.191077 
L 240.700959 212.322005 
L 241.04051 212.73441 
L 241.125397 212.647765 
L 241.38006 212.694937 
L 241.634723 212.902538 
L 241.804499 212.781708 
L 242.059162 212.905065 
L 242.228937 213.051264 
L 242.398712 213.041291 
L 242.653375 213.274236 
L 243.841803 215.276725 
L 244.436017 216.396398 
L 244.775567 216.879786 
L 245.115118 217.241912 
L 245.284893 217.428404 
L 245.454669 217.327274 
L 245.709332 217.451658 
L 245.879107 217.59684 
L 246.048882 217.616328 
L 246.303546 217.858436 
L 246.897759 218.908253 
L 247.23731 219.407135 
L 247.576861 219.723712 
L 247.831524 219.94443 
L 248.171074 220.279887 
L 248.935063 221.520212 
L 249.019951 221.444047 
L 249.274614 221.485321 
L 249.529277 221.646042 
L 249.78394 221.457653 
L 250.038603 221.578426 
L 250.547929 222.239325 
L 250.802592 222.634048 
L 250.972368 222.608847 
L 251.227031 222.790271 
L 251.396806 222.888211 
L 251.651469 222.599843 
L 251.906132 222.65795 
L 252.33057 222.998136 
L 253.009672 224.121626 
L 253.943436 225.784815 
L 254.198099 225.922224 
L 254.622538 226.45458 
L 255.471414 227.986305 
L 255.64119 228.247281 
L 255.895853 228.257384 
L 256.405179 228.495107 
L 256.659842 228.441236 
L 257.763382 229.012305 
L 258.697146 229.76696 
L 258.951809 229.928151 
L 259.376248 230.386462 
L 259.630911 230.196828 
L 260.055349 230.154544 
L 260.310012 230.073607 
L 262.092653 230.718511 
L 262.771755 231.502378 
L 263.026418 231.812559 
L 263.281081 231.696786 
L 263.620631 231.877862 
L 263.960182 232.180696 
L 265.48816 234.094315 
L 265.742823 233.880722 
L 266.506812 233.907611 
L 266.846363 234.044033 
L 267.270801 234.337627 
L 267.525464 234.102509 
L 267.865015 234.166153 
L 268.119678 234.271823 
L 268.713892 234.623407 
L 268.968555 234.732264 
L 269.13833 234.810179 
L 269.392993 234.671473 
L 269.732544 234.716435 
L 269.987207 234.292933 
L 270.326758 234.113231 
L 270.581421 233.580286 
L 270.836084 233.429791 
L 271.175634 233.494381 
L 271.854736 234.118747 
L 272.533837 235.053206 
L 273.297826 236.117897 
L 273.467602 236.093014 
L 273.722265 236.113524 
L 274.061815 236.212562 
L 274.401366 236.332887 
L 274.656029 236.47664 
L 274.910692 236.170383 
L 275.250243 236.076978 
L 275.504906 235.599806 
L 276.184007 235.110918 
L 276.523558 235.217263 
L 276.947996 235.659491 
L 277.796873 236.436352 
L 278.136424 236.533451 
L 278.64575 237.068797 
L 278.900413 237.331761 
L 279.155076 237.070578 
L 279.494627 237.016112 
L 279.74929 236.592444 
L 280.003953 236.498131 
L 280.343503 236.587878 
L 280.937717 236.922371 
L 281.19238 237.038038 
L 281.362155 237.086414 
L 281.616818 236.771897 
L 282.041257 236.716944 
L 282.29592 236.782678 
L 282.550583 236.879796 
L 282.805246 236.490341 
L 283.314572 236.301883 
L 283.569235 236.352175 
L 283.993673 236.745653 
L 284.672775 237.769641 
L 286.879854 241.752658 
L 289.426485 246.088647 
L 291.973115 249.998355 
L 292.312666 250.384107 
L 292.567329 250.077563 
L 292.906879 250.017177 
L 293.331318 250.244816 
L 294.010419 250.941393 
L 295.708173 253.138366 
L 297.830364 255.80663 
L 298.169915 255.82004 
L 298.679241 256.128961 
L 299.613006 257.050481 
L 302.074748 259.598102 
L 302.75385 259.935054 
L 303.0934 259.945421 
L 303.348063 260.008573 
L 303.687614 259.877629 
L 303.942277 259.864401 
L 304.281828 259.590224 
L 304.536491 259.500531 
L 304.876042 259.081793 
L 305.215592 258.917741 
L 305.555143 258.395533 
L 305.809806 258.172985 
L 306.149357 257.48041 
L 306.40402 257.171325 
L 306.74357 256.322125 
L 306.998233 255.933889 
L 307.337784 254.933822 
L 307.592447 254.470094 
L 307.931998 253.321123 
L 308.271549 252.611704 
L 308.611099 250.61047 
L 308.865762 249.601404 
L 309.205313 247.162978 
L 309.459976 245.97624 
L 309.799527 243.383865 
L 310.05419 242.147115 
L 310.39374 239.524516 
L 310.648403 238.292954 
L 310.987954 235.692014 
L 311.412393 233.495223 
L 311.751943 231.617011 
L 311.836831 231.41064 
L 313.534584 221.196403 
L 313.619472 221.010219 
L 314.213686 217.640861 
L 314.298574 217.532248 
L 315.402113 212.21805 
L 315.487001 212.113529 
L 316.081215 210.301269 
L 316.590541 209.252878 
L 316.675428 209.402642 
L 316.845204 206.032908 
L 317.184754 200.942076 
L 317.609193 198.247761 
L 317.863856 197.668567 
L 318.118519 197.577905 
L 318.373182 197.809775 
L 318.712733 198.525804 
L 319.476722 200.864399 
L 321.768689 208.194923 
L 324.145544 214.69288 
L 326.946837 220.985801 
L 332.549424 234.176685 
L 335.350717 239.774884 
L 337.81246 244.177691 
L 340.35909 248.275611 
L 342.990608 252.092577 
L 345.707013 255.651084 
L 348.593194 259.067389 
L 351.649151 262.333117 
L 354.789995 265.365951 
L 358.100614 268.257501 
L 361.581009 271.006723 
L 365.316066 273.672319 
L 369.305787 276.240251 
L 373.550171 278.700878 
L 378.049218 281.048237 
L 382.887815 283.317112 
L 388.065963 285.495361 
L 393.66855 287.605232 
L 399.695575 289.632478 
L 406.231926 291.591537 
L 413.277603 293.468704 
L 421.002381 295.292785 
L 429.406261 297.045584 
L 438.659018 298.744042 
L 448.845539 300.38274 
L 460.050712 301.956046 
L 472.444313 303.468408 
L 486.281004 304.928211 
L 501.730561 306.329356 
L 519.047647 307.671419 
L 538.486924 308.950836 
L 560.55772 310.175676 
L 585.684472 311.341842 
L 614.376506 312.445922 
L 647.482699 313.491828 
L 671.675687 314.136526 
L 671.675687 314.136526 
" clip-path="url(#p23bad036fa)" style="fill: none; stroke: #ff7f0e; stroke-width: 1.5; stroke-linecap: square"/>
   </g>
   <g id="patch_3">
    <path d="M 30.103125 342.2 
L 30.103125 43.44 
" style="fill: none; stroke: #000000; stroke-width: 0.8; stroke-linejoin: miter; stroke-linecap: square"/>
   </g>
   <g id="patch_4">
    <path d="M 702.226761 342.2 
L 702.226761 43.44 
" style="fill: none; stroke: #000000; stroke-width: 0.8; stroke-linejoin: miter; stroke-linecap: square"/>
   </g>
   <g id="patch_5">
    <path d="M 30.103125 342.2 
L 702.226761 342.2 
" style="fill: none; stroke: #000000; stroke-width: 0.8; stroke-linejoin: miter; stroke-linecap: square"/>
   </g>
   <g id="patch_6">
    <path d="M 30.103125 43.44 
L 702.226761 43.44 
" style="fill: none; stroke: #000000; stroke-width: 0.8; stroke-linejoin: miter; stroke-linecap: square"/>
   </g>
   <g id="text_15">
    <!-- 1 transformation(s) -->
    <g transform="translate(308.050256 37.44) scale(0.12 -0.12)">
     <defs>
      <path id="DejaVuSans-20" transform="scale(0.015625)"/>
      <path id="DejaVuSans-74" d="M 1172 4494 
L 1172 3500 
L 2356 3500 
L 2356 3053 
L 1172 3053 
L 1172 1153 
Q 1172 725 1289 603 
Q 1406 481 1766 481 
L 2356 481 
L 2356 0 
L 1766 0 
Q 1100 0 847 248 
Q 594 497 594 1153 
L 594 3053 
L 172 3053 
L 172 3500 
L 594 3500 
L 594 4494 
L 1172 4494 
z
" transform="scale(0.015625)"/>
      <path id="DejaVuSans-72" d="M 2631 2963 
Q 2534 3019 2420 3045 
Q 2306 3072 2169 3072 
Q 1681 3072 1420 2755 
Q 1159 2438 1159 1844 
L 1159 0 
L 581 0 
L 581 3500 
L 1159 3500 
L 1159 2956 
Q 1341 3275 1631 3429 
Q 1922 3584 2338 3584 
Q 2397 3584 2469 3576 
Q 2541 3569 2628 3553 
L 2631 2963 
z
" transform="scale(0.015625)"/>
      <path id="DejaVuSans-61" d="M 2194 1759 
Q 1497 1759 1228 1600 
Q 959 1441 959 1056 
Q 959 750 1161 570 
Q 1363 391 1709 391 
Q 2188 391 2477 730 
Q 2766 1069 2766 1631 
L 2766 1759 
L 2194 1759 
z
M 3341 1997 
L 3341 0 
L 2766 0 
L 2766 531 
Q 2569 213 2275 61 
Q 1981 -91 1556 -91 
Q 1019 -91 701 211 
Q 384 513 384 1019 
Q 384 1609 779 1909 
Q 1175 2209 1959 2209 
L 2766 2209 
L 2766 2266 
Q 2766 2663 2505 2880 
Q 2244 3097 1772 3097 
Q 1472 3097 1187 3025 
Q 903 2953 641 2809 
L 641 3341 
Q 956 3463 1253 3523 
Q 1550 3584 1831 3584 
Q 2591 3584 2966 3190 
Q 3341 2797 3341 1997 
z
" transform="scale(0.015625)"/>
      <path id="DejaVuSans-6e" d="M 3513 2113 
L 3513 0 
L 2938 0 
L 2938 2094 
Q 2938 2591 2744 2837 
Q 2550 3084 2163 3084 
Q 1697 3084 1428 2787 
Q 1159 2491 1159 1978 
L 1159 0 
L 581 0 
L 581 3500 
L 1159 3500 
L 1159 2956 
Q 1366 3272 1645 3428 
Q 1925 3584 2291 3584 
Q 2894 3584 3203 3211 
Q 3513 2838 3513 2113 
z
" transform="scale(0.015625)"/>
      <path id="DejaVuSans-73" d="M 2834 3397 
L 2834 2853 
Q 2591 2978 2328 3040 
Q 2066 3103 1784 3103 
Q 1356 3103 1142 2972 
Q 928 2841 928 2578 
Q 928 2378 1081 2264 
Q 1234 2150 1697 2047 
L 1894 2003 
Q 2506 1872 2764 1633 
Q 3022 1394 3022 966 
Q 3022 478 2636 193 
Q 2250 -91 1575 -91 
Q 1294 -91 989 -36 
Q 684 19 347 128 
L 347 722 
Q 666 556 975 473 
Q 1284 391 1588 391 
Q 1994 391 2212 530 
Q 2431 669 2431 922 
Q 2431 1156 2273 1281 
Q 2116 1406 1581 1522 
L 1381 1569 
Q 847 1681 609 1914 
Q 372 2147 372 2553 
Q 372 3047 722 3315 
Q 1072 3584 1716 3584 
Q 2034 3584 2315 3537 
Q 2597 3491 2834 3397 
z
" transform="scale(0.015625)"/>
      <path id="DejaVuSans-66" d="M 2375 4863 
L 2375 4384 
L 1825 4384 
Q 1516 4384 1395 4259 
Q 1275 4134 1275 3809 
L 1275 3500 
L 2222 3500 
L 2222 3053 
L 1275 3053 
L 1275 0 
L 697 0 
L 697 3053 
L 147 3053 
L 147 3500 
L 697 3500 
L 697 3744 
Q 697 4328 969 4595 
Q 1241 4863 1831 4863 
L 2375 4863 
z
" transform="scale(0.015625)"/>
      <path id="DejaVuSans-6f" d="M 1959 3097 
Q 1497 3097 1228 2736 
Q 959 2375 959 1747 
Q 959 1119 1226 758 
Q 1494 397 1959 397 
Q 2419 397 2687 759 
Q 2956 1122 2956 1747 
Q 2956 2369 2687 2733 
Q 2419 3097 1959 3097 
z
M 1959 3584 
Q 2709 3584 3137 3096 
Q 3566 2609 3566 1747 
Q 3566 888 3137 398 
Q 2709 -91 1959 -91 
Q 1206 -91 779 398 
Q 353 888 353 1747 
Q 353 2609 779 3096 
Q 1206 3584 1959 3584 
z
" transform="scale(0.015625)"/>
      <path id="DejaVuSans-6d" d="M 3328 2828 
Q 3544 3216 3844 3400 
Q 4144 3584 4550 3584 
Q 5097 3584 5394 3201 
Q 5691 2819 5691 2113 
L 5691 0 
L 5113 0 
L 5113 2094 
Q 5113 2597 4934 2840 
Q 4756 3084 4391 3084 
Q 3944 3084 3684 2787 
Q 3425 2491 3425 1978 
L 3425 0 
L 2847 0 
L 2847 2094 
Q 2847 2600 2669 2842 
Q 2491 3084 2119 3084 
Q 1678 3084 1418 2786 
Q 1159 2488 1159 1978 
L 1159 0 
L 581 0 
L 581 3500 
L 1159 3500 
L 1159 2956 
Q 1356 3278 1631 3431 
Q 1906 3584 2284 3584 
Q 2666 3584 2933 3390 
Q 3200 3197 3328 2828 
z
" transform="scale(0.015625)"/>
      <path id="DejaVuSans-69" d="M 603 3500 
L 1178 3500 
L 1178 0 
L 603 0 
L 603 3500 
z
M 603 4863 
L 1178 4863 
L 1178 4134 
L 603 4134 
L 603 4863 
z
" transform="scale(0.015625)"/>
      <path id="DejaVuSans-28" d="M 1984 4856 
Q 1566 4138 1362 3434 
Q 1159 2731 1159 2009 
Q 1159 1288 1364 580 
Q 1569 -128 1984 -844 
L 1484 -844 
Q 1016 -109 783 600 
Q 550 1309 550 2009 
Q 550 2706 781 3412 
Q 1013 4119 1484 4856 
L 1984 4856 
z
" transform="scale(0.015625)"/>
      <path id="DejaVuSans-29" d="M 513 4856 
L 1013 4856 
Q 1481 4119 1714 3412 
Q 1947 2706 1947 2009 
Q 1947 1309 1714 600 
Q 1481 -109 1013 -844 
L 513 -844 
Q 928 -128 1133 580 
Q 1338 1288 1338 2009 
Q 1338 2731 1133 3434 
Q 928 4138 513 4856 
z
" transform="scale(0.015625)"/>
     </defs>
     <use xlink:href="#DejaVuSans-31"/>
     <use xlink:href="#DejaVuSans-20" x="63.623047"/>
     <use xlink:href="#DejaVuSans-74" x="95.410156"/>
     <use xlink:href="#DejaVuSans-72" x="134.619141"/>
     <use xlink:href="#DejaVuSans-61" x="175.732422"/>
     <use xlink:href="#DejaVuSans-6e" x="237.011719"/>
     <use xlink:href="#DejaVuSans-73" x="300.390625"/>
     <use xlink:href="#DejaVuSans-66" x="352.490234"/>
     <use xlink:href="#DejaVuSans-6f" x="387.695312"/>
     <use xlink:href="#DejaVuSans-72" x="448.876953"/>
     <use xlink:href="#DejaVuSans-6d" x="488.240234"/>
     <use xlink:href="#DejaVuSans-61" x="585.652344"/>
     <use xlink:href="#DejaVuSans-74" x="646.931641"/>
     <use xlink:href="#DejaVuSans-69" x="686.140625"/>
     <use xlink:href="#DejaVuSans-6f" x="713.923828"/>
     <use xlink:href="#DejaVuSans-6e" x="775.105469"/>
     <use xlink:href="#DejaVuSans-28" x="838.484375"/>
     <use xlink:href="#DejaVuSans-73" x="877.498047"/>
     <use xlink:href="#DejaVuSans-29" x="929.597656"/>
    </g>
   </g>
   <g id="legend_1">
    <g id="patch_7">
     <path d="M 613.833011 80.79625 
L 695.226761 80.79625 
Q 697.226761 80.79625 697.226761 78.79625 
L 697.226761 50.44 
Q 697.226761 48.44 695.226761 48.44 
L 613.833011 48.44 
Q 611.833011 48.44 611.833011 50.44 
L 611.833011 78.79625 
Q 611.833011 80.79625 613.833011 80.79625 
z
" style="fill: #ffffff; opacity: 0.8; stroke: #cccccc; stroke-linejoin: miter"/>
    </g>
    <g id="line2d_17">
     <path d="M 615.833011 56.538437 
L 625.833011 56.538437 
L 635.833011 56.538437 
" style="fill: none; stroke: #1f77b4; stroke-width: 1.5; stroke-linecap: square"/>
    </g>
    <g id="text_16">
     <!-- observed -->
     <g transform="translate(643.833011 60.038437) scale(0.1 -0.1)">
      <defs>
       <path id="DejaVuSans-62" d="M 3116 1747 
Q 3116 2381 2855 2742 
Q 2594 3103 2138 3103 
Q 1681 3103 1420 2742 
Q 1159 2381 1159 1747 
Q 1159 1113 1420 752 
Q 1681 391 2138 391 
Q 2594 391 2855 752 
Q 3116 1113 3116 1747 
z
M 1159 2969 
Q 1341 3281 1617 3432 
Q 1894 3584 2278 3584 
Q 2916 3584 3314 3078 
Q 3713 2572 3713 1747 
Q 3713 922 3314 415 
Q 2916 -91 2278 -91 
Q 1894 -91 1617 61 
Q 1341 213 1159 525 
L 1159 0 
L 581 0 
L 581 4863 
L 1159 4863 
L 1159 2969 
z
" transform="scale(0.015625)"/>
       <path id="DejaVuSans-65" d="M 3597 1894 
L 3597 1613 
L 953 1613 
Q 991 1019 1311 708 
Q 1631 397 2203 397 
Q 2534 397 2845 478 
Q 3156 559 3463 722 
L 3463 178 
Q 3153 47 2828 -22 
Q 2503 -91 2169 -91 
Q 1331 -91 842 396 
Q 353 884 353 1716 
Q 353 2575 817 3079 
Q 1281 3584 2069 3584 
Q 2775 3584 3186 3129 
Q 3597 2675 3597 1894 
z
M 3022 2063 
Q 3016 2534 2758 2815 
Q 2500 3097 2075 3097 
Q 1594 3097 1305 2825 
Q 1016 2553 972 2059 
L 3022 2063 
z
" transform="scale(0.015625)"/>
       <path id="DejaVuSans-76" d="M 191 3500 
L 800 3500 
L 1894 563 
L 2988 3500 
L 3597 3500 
L 2284 0 
L 1503 0 
L 191 3500 
z
" transform="scale(0.015625)"/>
       <path id="DejaVuSans-64" d="M 2906 2969 
L 2906 4863 
L 3481 4863 
L 3481 0 
L 2906 0 
L 2906 525 
Q 2725 213 2448 61 
Q 2172 -91 1784 -91 
Q 1150 -91 751 415 
Q 353 922 353 1747 
Q 353 2572 751 3078 
Q 1150 3584 1784 3584 
Q 2172 3584 2448 3432 
Q 2725 3281 2906 2969 
z
M 947 1747 
Q 947 1113 1208 752 
Q 1469 391 1925 391 
Q 2381 391 2643 752 
Q 2906 1113 2906 1747 
Q 2906 2381 2643 2742 
Q 2381 3103 1925 3103 
Q 1469 3103 1208 2742 
Q 947 2381 947 1747 
z
" transform="scale(0.015625)"/>
      </defs>
      <use xlink:href="#DejaVuSans-6f"/>
      <use xlink:href="#DejaVuSans-62" x="61.181641"/>
      <use xlink:href="#DejaVuSans-73" x="124.658203"/>
      <use xlink:href="#DejaVuSans-65" x="176.757812"/>
      <use xlink:href="#DejaVuSans-72" x="238.28125"/>
      <use xlink:href="#DejaVuSans-76" x="279.394531"/>
      <use xlink:href="#DejaVuSans-65" x="338.574219"/>
      <use xlink:href="#DejaVuSans-64" x="400.097656"/>
     </g>
    </g>
    <g id="line2d_18">
     <path d="M 615.833011 71.216563 
L 625.833011 71.216563 
L 635.833011 71.216563 
" style="fill: none; stroke: #ff7f0e; stroke-width: 1.5; stroke-linecap: square"/>
    </g>
    <g id="text_17">
     <!-- simulated -->
     <g transform="translate(643.833011 74.716563) scale(0.1 -0.1)">
      <defs>
       <path id="DejaVuSans-75" d="M 544 1381 
L 544 3500 
L 1119 3500 
L 1119 1403 
Q 1119 906 1312 657 
Q 1506 409 1894 409 
Q 2359 409 2629 706 
Q 2900 1003 2900 1516 
L 2900 3500 
L 3475 3500 
L 3475 0 
L 2900 0 
L 2900 538 
Q 2691 219 2414 64 
Q 2138 -91 1772 -91 
Q 1169 -91 856 284 
Q 544 659 544 1381 
z
M 1991 3584 
L 1991 3584 
z
" transform="scale(0.015625)"/>
       <path id="DejaVuSans-6c" d="M 603 4863 
L 1178 4863 
L 1178 0 
L 603 0 
L 603 4863 
z
" transform="scale(0.015625)"/>
      </defs>
      <use xlink:href="#DejaVuSans-73"/>
      <use xlink:href="#DejaVuSans-69" x="52.099609"/>
      <use xlink:href="#DejaVuSans-6d" x="79.882812"/>
      <use xlink:href="#DejaVuSans-75" x="177.294922"/>
      <use xlink:href="#DejaVuSans-6c" x="240.673828"/>
      <use xlink:href="#DejaVuSans-61" x="268.457031"/>
      <use xlink:href="#DejaVuSans-74" x="329.736328"/>
      <use xlink:href="#DejaVuSans-65" x="368.945312"/>
      <use xlink:href="#DejaVuSans-64" x="430.46875"/>
     </g>
    </g>
   </g>
  </g>
  <g id="axes_2">
   <g id="patch_8">
    <path d="M 30.103125 684.92 
L 702.226761 684.92 
L 702.226761 386.16 
L 30.103125 386.16 
z
" style="fill: #ffffff"/>
   </g>
   <g id="matplotlib.axis_3">
    <g id="xtick_7">
     <g id="line2d_19">
      <g>
       <use xlink:href="#ma60fb44187" x="60.484424" y="684.92" style="stroke: #000000; stroke-width: 0.8"/>
      </g>
     </g>
     <g id="text_18">
      <!-- 2014-07-01 -->
      <g transform="translate(31.426612 699.518437) scale(0.1 -0.1)">
       <use xlink:href="#DejaVuSans-32"/>
       <use xlink:href="#DejaVuSans-30" x="63.623047"/>
       <use xlink:href="#DejaVuSans-31" x="127.246094"/>
       <use xlink:href="#DejaVuSans-34" x="190.869141"/>
       <use xlink:href="#DejaVuSans-2d" x="254.492188"/>
       <use xlink:href="#DejaVuSans-30" x="290.576172"/>
       <use xlink:href="#DejaVuSans-37" x="354.199219"/>
       <use xlink:href="#DejaVuSans-2d" x="417.822266"/>
       <use xlink:href="#DejaVuSans-30" x="453.90625"/>
       <use xlink:href="#DejaVuSans-31" x="517.529297"/>
      </g>
     </g>
    </g>
    <g id="xtick_8">
     <g id="line2d_20">
      <g>
       <use xlink:href="#ma60fb44187" x="182.722677" y="684.92" style="stroke: #000000; stroke-width: 0.8"/>
      </g>
     </g>
     <g id="text_19">
      <!-- 2014-07-02 -->
      <g transform="translate(153.664864 699.518437) scale(0.1 -0.1)">
       <use xlink:href="#DejaVuSans-32"/>
       <use xlink:href="#DejaVuSans-30" x="63.623047"/>
       <use xlink:href="#DejaVuSans-31" x="127.246094"/>
       <use xlink:href="#DejaVuSans-34" x="190.869141"/>
       <use xlink:href="#DejaVuSans-2d" x="254.492188"/>
       <use xlink:href="#DejaVuSans-30" x="290.576172"/>
       <use xlink:href="#DejaVuSans-37" x="354.199219"/>
       <use xlink:href="#DejaVuSans-2d" x="417.822266"/>
       <use xlink:href="#DejaVuSans-30" x="453.90625"/>
       <use xlink:href="#DejaVuSans-32" x="517.529297"/>
      </g>
     </g>
    </g>
    <g id="xtick_9">
     <g id="line2d_21">
      <g>
       <use xlink:href="#ma60fb44187" x="304.960929" y="684.92" style="stroke: #000000; stroke-width: 0.8"/>
      </g>
     </g>
     <g id="text_20">
      <!-- 2014-07-03 -->
      <g transform="translate(275.903117 699.518437) scale(0.1 -0.1)">
       <use xlink:href="#DejaVuSans-32"/>
       <use xlink:href="#DejaVuSans-30" x="63.623047"/>
       <use xlink:href="#DejaVuSans-31" x="127.246094"/>
       <use xlink:href="#DejaVuSans-34" x="190.869141"/>
       <use xlink:href="#DejaVuSans-2d" x="254.492188"/>
       <use xlink:href="#DejaVuSans-30" x="290.576172"/>
       <use xlink:href="#DejaVuSans-37" x="354.199219"/>
       <use xlink:href="#DejaVuSans-2d" x="417.822266"/>
       <use xlink:href="#DejaVuSans-30" x="453.90625"/>
       <use xlink:href="#DejaVuSans-33" x="517.529297"/>
      </g>
     </g>
    </g>
    <g id="xtick_10">
     <g id="line2d_22">
      <g>
       <use xlink:href="#ma60fb44187" x="427.199182" y="684.92" style="stroke: #000000; stroke-width: 0.8"/>
      </g>
     </g>
     <g id="text_21">
      <!-- 2014-07-04 -->
      <g transform="translate(398.141369 699.518437) scale(0.1 -0.1)">
       <use xlink:href="#DejaVuSans-32"/>
       <use xlink:href="#DejaVuSans-30" x="63.623047"/>
       <use xlink:href="#DejaVuSans-31" x="127.246094"/>
       <use xlink:href="#DejaVuSans-34" x="190.869141"/>
       <use xlink:href="#DejaVuSans-2d" x="254.492188"/>
       <use xlink:href="#DejaVuSans-30" x="290.576172"/>
       <use xlink:href="#DejaVuSans-37" x="354.199219"/>
       <use xlink:href="#DejaVuSans-2d" x="417.822266"/>
       <use xlink:href="#DejaVuSans-30" x="453.90625"/>
       <use xlink:href="#DejaVuSans-34" x="517.529297"/>
      </g>
     </g>
    </g>
    <g id="xtick_11">
     <g id="line2d_23">
      <g>
       <use xlink:href="#ma60fb44187" x="549.437434" y="684.92" style="stroke: #000000; stroke-width: 0.8"/>
      </g>
     </g>
     <g id="text_22">
      <!-- 2014-07-05 -->
      <g transform="translate(520.379622 699.518437) scale(0.1 -0.1)">
       <use xlink:href="#DejaVuSans-32"/>
       <use xlink:href="#DejaVuSans-30" x="63.623047"/>
       <use xlink:href="#DejaVuSans-31" x="127.246094"/>
       <use xlink:href="#DejaVuSans-34" x="190.869141"/>
       <use xlink:href="#DejaVuSans-2d" x="254.492188"/>
       <use xlink:href="#DejaVuSans-30" x="290.576172"/>
       <use xlink:href="#DejaVuSans-37" x="354.199219"/>
       <use xlink:href="#DejaVuSans-2d" x="417.822266"/>
       <use xlink:href="#DejaVuSans-30" x="453.90625"/>
       <use xlink:href="#DejaVuSans-35" x="517.529297"/>
      </g>
     </g>
    </g>
    <g id="xtick_12">
     <g id="line2d_24">
      <g>
       <use xlink:href="#ma60fb44187" x="671.675687" y="684.92" style="stroke: #000000; stroke-width: 0.8"/>
      </g>
     </g>
     <g id="text_23">
      <!-- 2014-07-06 -->
      <g transform="translate(642.617874 699.518437) scale(0.1 -0.1)">
       <use xlink:href="#DejaVuSans-32"/>
       <use xlink:href="#DejaVuSans-30" x="63.623047"/>
       <use xlink:href="#DejaVuSans-31" x="127.246094"/>
       <use xlink:href="#DejaVuSans-34" x="190.869141"/>
       <use xlink:href="#DejaVuSans-2d" x="254.492188"/>
       <use xlink:href="#DejaVuSans-30" x="290.576172"/>
       <use xlink:href="#DejaVuSans-37" x="354.199219"/>
       <use xlink:href="#DejaVuSans-2d" x="417.822266"/>
       <use xlink:href="#DejaVuSans-30" x="453.90625"/>
       <use xlink:href="#DejaVuSans-36" x="517.529297"/>
      </g>
     </g>
    </g>
   </g>
   <g id="matplotlib.axis_4">
    <g id="ytick_9">
     <g id="line2d_25">
      <g>
       <use xlink:href="#maddeb95473" x="30.103125" y="671.339943" style="stroke: #000000; stroke-width: 0.8"/>
      </g>
     </g>
     <g id="text_24">
      <!-- 0.0 -->
      <g transform="translate(7.2 675.139162) scale(0.1 -0.1)">
       <use xlink:href="#DejaVuSans-30"/>
       <use xlink:href="#DejaVuSans-2e" x="63.623047"/>
       <use xlink:href="#DejaVuSans-30" x="95.410156"/>
      </g>
     </g>
    </g>
    <g id="ytick_10">
     <g id="line2d_26">
      <g>
       <use xlink:href="#maddeb95473" x="30.103125" y="631.616153" style="stroke: #000000; stroke-width: 0.8"/>
      </g>
     </g>
     <g id="text_25">
      <!-- 0.2 -->
      <g transform="translate(7.2 635.415372) scale(0.1 -0.1)">
       <use xlink:href="#DejaVuSans-30"/>
       <use xlink:href="#DejaVuSans-2e" x="63.623047"/>
       <use xlink:href="#DejaVuSans-32" x="95.410156"/>
      </g>
     </g>
    </g>
    <g id="ytick_11">
     <g id="line2d_27">
      <g>
       <use xlink:href="#maddeb95473" x="30.103125" y="591.892364" style="stroke: #000000; stroke-width: 0.8"/>
      </g>
     </g>
     <g id="text_26">
      <!-- 0.4 -->
      <g transform="translate(7.2 595.691582) scale(0.1 -0.1)">
       <use xlink:href="#DejaVuSans-30"/>
       <use xlink:href="#DejaVuSans-2e" x="63.623047"/>
       <use xlink:href="#DejaVuSans-34" x="95.410156"/>
      </g>
     </g>
    </g>
    <g id="ytick_12">
     <g id="line2d_28">
      <g>
       <use xlink:href="#maddeb95473" x="30.103125" y="552.168574" style="stroke: #000000; stroke-width: 0.8"/>
      </g>
     </g>
     <g id="text_27">
      <!-- 0.6 -->
      <g transform="translate(7.2 555.967792) scale(0.1 -0.1)">
       <use xlink:href="#DejaVuSans-30"/>
       <use xlink:href="#DejaVuSans-2e" x="63.623047"/>
       <use xlink:href="#DejaVuSans-36" x="95.410156"/>
      </g>
     </g>
    </g>
    <g id="ytick_13">
     <g id="line2d_29">
      <g>
       <use xlink:href="#maddeb95473" x="30.103125" y="512.444784" style="stroke: #000000; stroke-width: 0.8"/>
      </g>
     </g>
     <g id="text_28">
      <!-- 0.8 -->
      <g transform="translate(7.2 516.244002) scale(0.1 -0.1)">
       <use xlink:href="#DejaVuSans-30"/>
       <use xlink:href="#DejaVuSans-2e" x="63.623047"/>
       <use xlink:href="#DejaVuSans-38" x="95.410156"/>
      </g>
     </g>
    </g>
    <g id="ytick_14">
     <g id="line2d_30">
      <g>
       <use xlink:href="#maddeb95473" x="30.103125" y="472.720994" style="stroke: #000000; stroke-width: 0.8"/>
      </g>
     </g>
     <g id="text_29">
      <!-- 1.0 -->
      <g transform="translate(7.2 476.520213) scale(0.1 -0.1)">
       <use xlink:href="#DejaVuSans-31"/>
       <use xlink:href="#DejaVuSans-2e" x="63.623047"/>
       <use xlink:href="#DejaVuSans-30" x="95.410156"/>
      </g>
     </g>
    </g>
    <g id="ytick_15">
     <g id="line2d_31">
      <g>
       <use xlink:href="#maddeb95473" x="30.103125" y="432.997204" style="stroke: #000000; stroke-width: 0.8"/>
      </g>
     </g>
     <g id="text_30">
      <!-- 1.2 -->
      <g transform="translate(7.2 436.796423) scale(0.1 -0.1)">
       <use xlink:href="#DejaVuSans-31"/>
       <use xlink:href="#DejaVuSans-2e" x="63.623047"/>
       <use xlink:href="#DejaVuSans-32" x="95.410156"/>
      </g>
     </g>
    </g>
    <g id="ytick_16">
     <g id="line2d_32">
      <g>
       <use xlink:href="#maddeb95473" x="30.103125" y="393.273414" style="stroke: #000000; stroke-width: 0.8"/>
      </g>
     </g>
     <g id="text_31">
      <!-- 1.4 -->
      <g transform="translate(7.2 397.072633) scale(0.1 -0.1)">
       <use xlink:href="#DejaVuSans-31"/>
       <use xlink:href="#DejaVuSans-2e" x="63.623047"/>
       <use xlink:href="#DejaVuSans-34" x="95.410156"/>
      </g>
     </g>
    </g>
   </g>
   <g id="line2d_33">
    <path d="M 60.654199 671.339943 
L 64.64392 671.236235 
L 66.426561 670.898815 
L 70.670945 669.862011 
L 75.085104 669.601423 
L 76.188644 669.298605 
L 77.037521 668.870736 
L 77.461959 668.439941 
L 77.886397 667.737895 
L 78.395724 666.377707 
L 78.989937 663.721293 
L 80.772578 653.171103 
L 85.526288 611.50899 
L 85.696064 610.361526 
L 86.035614 607.215504 
L 86.290277 605.642756 
L 86.629828 602.490826 
L 86.884491 600.962462 
L 87.224042 597.886559 
L 87.563592 595.644735 
L 87.903143 593.484289 
L 88.157806 592.475592 
L 88.497357 590.578205 
L 88.836908 589.203405 
L 89.176458 588.047465 
L 89.261346 587.754957 
L 89.85556 576.850246 
L 90.19511 574.805617 
L 90.534661 574.054611 
L 90.789324 573.802608 
L 91.043987 573.818644 
L 91.468426 574.181959 
L 92.062639 575.058756 
L 92.826628 576.454096 
L 92.911516 576.371617 
L 93.335954 560.856133 
L 93.50573 558.09454 
L 93.930168 532.492239 
L 94.184831 527.05338 
L 94.524382 505.480244 
L 94.863933 493.633061 
L 95.118596 480.288779 
L 95.458146 470.599822 
L 95.712809 459.857868 
L 96.05236 452.587327 
L 96.307023 444.064568 
L 96.646574 438.603298 
L 96.901237 432.090002 
L 97.071012 430.901949 
L 97.240787 430.702208 
L 97.580338 424.313691 
L 97.750114 423.851748 
L 97.835001 423.75228 
L 98.174552 418.633075 
L 98.25944 418.371252 
L 98.344327 418.420051 
L 98.429215 418.448772 
L 98.768766 414.66437 
L 98.853653 414.633234 
L 99.023429 415.022677 
L 99.362979 412.471835 
L 99.447867 412.597135 
L 99.617642 413.262323 
L 99.872305 411.695151 
L 99.957193 411.727518 
L 100.126968 412.430921 
L 100.296744 413.63621 
L 100.551407 413.166927 
L 100.721182 413.878428 
L 100.890958 415.045407 
L 100.975845 414.955126 
L 101.060733 414.816472 
L 101.230508 415.293616 
L 101.654947 417.174913 
L 101.824722 417.903817 
L 102.334048 420.680208 
L 102.588711 422.543108 
L 102.843374 423.978374 
L 103.182925 426.550857 
L 103.437588 428.274512 
L 103.522475 428.331384 
L 103.777138 429.71501 
L 103.946914 430.956076 
L 104.201577 430.330429 
L 104.371352 430.920749 
L 104.541128 431.865021 
L 104.880678 428.84492 
L 104.965566 428.874303 
L 105.135341 429.152581 
L 105.474892 421.139214 
L 105.729555 419.605546 
L 106.069106 402.863097 
L 106.323769 400.082302 
L 106.578432 399.74 
L 106.748207 400.360817 
L 107.172646 403.797708 
L 107.851747 411.051083 
L 110.313489 439.130022 
L 111.586805 454.088273 
L 113.19967 471.221847 
L 114.642761 484.853594 
L 115.661413 493.58676 
L 117.359167 506.424906 
L 118.377819 513.172075 
L 119.820909 521.801132 
L 121.264 529.220769 
L 121.688438 531.222513 
L 121.773326 531.174211 
L 122.027989 530.854865 
L 122.197764 531.020451 
L 122.70709 532.111829 
L 123.980405 536.433704 
L 125.338608 541.274808 
L 127.291025 547.168389 
L 129.667879 552.900266 
L 130.092318 553.692802 
L 130.516756 554.397685 
L 131.535408 556.185055 
L 131.874959 556.604722 
L 132.21451 557.051464 
L 132.55406 557.48761 
L 132.808723 557.732527 
L 133.063387 557.980345 
L 133.402937 558.299028 
L 133.6576 558.504393 
L 134.082039 558.939947 
L 134.336702 559.132419 
L 134.591365 559.381681 
L 134.846028 559.415599 
L 135.270466 559.636815 
L 135.525129 559.713269 
L 135.779792 559.867704 
L 136.034455 559.782667 
L 136.374006 559.94012 
L 136.628669 559.801171 
L 136.883332 559.974452 
L 137.053107 560.040346 
L 137.30777 559.891499 
L 137.647321 559.983201 
L 137.901984 559.755308 
L 138.241535 559.780086 
L 138.496198 559.476082 
L 139.005524 559.549079 
L 139.260187 559.763642 
L 140.024176 560.919979 
L 140.873053 562.775799 
L 142.570806 567.146627 
L 146.220976 576.304841 
L 147.579179 579.181872 
L 148.003617 579.730106 
L 148.343168 579.729822 
L 148.597831 579.807288 
L 148.852494 579.716072 
L 149.701371 579.94097 
L 150.210697 580.404061 
L 151.059574 581.253967 
L 151.484012 581.515665 
L 151.738675 581.640906 
L 152.078226 581.81565 
L 152.502664 582.025732 
L 152.927103 582.303057 
L 153.775979 582.873536 
L 154.11553 582.978917 
L 154.455081 582.794188 
L 154.709744 582.769392 
L 155.049294 582.5776 
L 156.32261 582.730839 
L 157.256374 583.161605 
L 157.595925 583.107408 
L 158.020363 583.314589 
L 158.614577 583.704601 
L 159.039015 583.832973 
L 159.378566 583.446442 
L 160.057667 583.255977 
L 160.227443 583.241545 
L 160.566993 583.078516 
L 160.906544 583.016511 
L 161.246095 582.9809 
L 161.840308 583.290214 
L 163.028736 584.452256 
L 163.283399 584.671336 
L 163.62295 584.606573 
L 164.556714 584.856853 
L 164.896265 584.54954 
L 165.405591 584.542905 
L 165.914917 584.850786 
L 166.933569 585.613482 
L 167.27312 585.263207 
L 167.782446 585.002752 
L 168.71621 584.395354 
L 169.310424 583.612698 
L 169.649975 583.63512 
L 170.159301 583.773217 
L 170.498851 583.904537 
L 171.687279 584.608449 
L 171.857054 584.636323 
L 172.196605 584.500321 
L 172.790819 584.692639 
L 173.46992 585.262094 
L 173.809471 585.519448 
L 174.743235 585.927253 
L 174.91301 585.926389 
L 175.252561 585.647702 
L 175.592112 585.671693 
L 176.186326 585.840067 
L 176.525876 585.752556 
L 176.780539 585.726594 
L 177.12009 585.381528 
L 177.374753 585.267221 
L 177.714304 584.961281 
L 178.138742 584.978258 
L 179.496945 585.634691 
L 180.091159 586.22632 
L 180.77026 586.825306 
L 181.024923 586.966381 
L 181.364474 586.833729 
L 181.619137 586.810603 
L 181.958688 586.579294 
L 182.213351 586.484804 
L 182.552901 586.079243 
L 183.062227 585.972464 
L 184.080879 585.95766 
L 184.42043 585.585223 
L 184.675093 585.41145 
L 185.014644 584.854349 
L 186.62751 583.854685 
L 186.96706 583.849547 
L 187.136836 583.865517 
L 187.476386 583.789229 
L 187.731049 583.749771 
L 188.0706 583.293215 
L 188.495039 583.197849 
L 188.834589 583.339741 
L 189.089252 583.405232 
L 189.428803 583.50776 
L 189.683466 583.543933 
L 190.023017 583.6121 
L 190.27768 583.651818 
L 190.61723 583.74146 
L 191.126556 584.151994 
L 191.38122 584.35518 
L 191.72077 584.360424 
L 192.314984 584.706935 
L 192.994085 585.403477 
L 193.248748 585.605408 
L 193.588299 585.424029 
L 193.758074 585.433583 
L 194.437176 584.623928 
L 194.776727 584.643941 
L 196.389592 585.274117 
L 196.898918 585.356555 
L 197.238469 584.908937 
L 198.087346 584.570518 
L 198.511784 584.850306 
L 199.190886 585.614453 
L 200.464201 587.442992 
L 202.33173 590.311079 
L 205.472574 594.928457 
L 207.764541 598.004028 
L 207.849429 598.04258 
L 208.104092 594.219703 
L 208.613418 587.043036 
L 208.952968 581.929993 
L 209.037856 581.256222 
L 209.547182 572.319277 
L 209.63207 571.585053 
L 210.141396 562.732955 
L 210.311171 561.820352 
L 210.73561 554.818157 
L 210.905385 553.67444 
L 211.329823 547.362282 
L 211.499599 546.399223 
L 211.924037 541.216219 
L 212.093812 540.541915 
L 212.518251 536.388623 
L 212.688026 535.959721 
L 213.112464 532.871288 
L 213.28224 532.711088 
L 213.367127 532.719434 
L 213.706678 530.995129 
L 213.876453 530.859683 
L 213.961341 530.862003 
L 214.38578 529.507441 
L 214.555555 529.569582 
L 214.895106 528.625062 
L 215.064881 528.671363 
L 215.149769 528.753097 
L 215.489319 528.109692 
L 215.659095 528.239159 
L 215.743982 528.358113 
L 216.083533 527.986298 
L 216.253308 528.180487 
L 216.507971 528.519402 
L 216.677747 528.46517 
L 216.847522 528.665929 
L 217.102185 529.043995 
L 217.271961 529.027078 
L 217.526624 529.448355 
L 217.696399 529.703287 
L 217.866174 529.771052 
L 218.120837 530.253499 
L 218.205725 530.446444 
L 218.630163 529.282543 
L 218.799939 529.3321 
L 219.224377 526.30679 
L 219.47904 526.05561 
L 219.903478 520.418903 
L 220.073254 519.688946 
L 220.412805 509.150806 
L 220.667468 506.008602 
L 221.091906 476.166409 
L 221.346569 471.322191 
L 221.601232 469.766029 
L 221.68612 469.769225 
L 221.940783 470.566958 
L 222.195446 471.898305 
L 223.044322 478.330519 
L 223.723424 483.692865 
L 224.826964 492.042165 
L 226.524717 505.028589 
L 228.307358 517.46775 
L 229.920224 527.399422 
L 231.448202 535.749799 
L 233.485507 545.362089 
L 234.504159 549.28093 
L 235.18326 551.305013 
L 236.965901 556.114426 
L 237.814778 558.118655 
L 238.578767 559.325116 
L 238.83343 559.56351 
L 240.191633 561.354172 
L 240.785847 561.528483 
L 240.955622 561.594022 
L 241.210285 561.432685 
L 241.549836 561.512927 
L 241.804499 561.32023 
L 242.568488 561.519143 
L 243.502252 562.669998 
L 244.69068 564.471598 
L 244.945343 564.66626 
L 245.200006 564.855583 
L 245.454669 564.727099 
L 246.218658 565.032724 
L 246.727984 565.740294 
L 247.152422 566.291169 
L 247.491973 566.546018 
L 247.746636 566.705189 
L 248.001299 566.87499 
L 248.595513 567.657238 
L 248.850176 567.953973 
L 249.104839 567.862543 
L 249.444389 567.942418 
L 249.699053 567.709683 
L 249.953716 567.774381 
L 250.463042 568.304798 
L 250.717705 568.587623 
L 250.972368 568.576506 
L 251.311918 568.681562 
L 251.566581 568.345369 
L 251.821244 568.348021 
L 252.160795 568.507085 
L 252.670121 569.138438 
L 253.349223 570.315693 
L 253.858549 571.03039 
L 254.198099 571.255501 
L 254.792313 572.061699 
L 255.64119 573.246187 
L 255.98074 573.423494 
L 256.235404 573.565605 
L 256.490067 573.393253 
L 257.169168 573.504903 
L 258.018045 573.993518 
L 258.272708 574.044962 
L 259.29136 574.734112 
L 259.546023 574.530227 
L 259.970461 574.389004 
L 260.225124 574.257152 
L 262.092653 574.574166 
L 263.026418 575.319306 
L 263.281081 575.288993 
L 263.790407 575.587758 
L 265.063722 576.965992 
L 265.403272 577.321807 
L 265.657935 577.153539 
L 266.676588 577.175808 
L 267.016138 577.3498 
L 267.185914 577.370979 
L 267.440577 577.126446 
L 267.780127 577.132283 
L 268.119678 577.256849 
L 268.544116 577.459437 
L 268.798779 577.48228 
L 269.053443 577.548173 
L 269.308106 577.392969 
L 269.647656 577.320126 
L 269.987207 576.801044 
L 270.156982 576.732594 
L 270.666308 575.829432 
L 271.005859 575.780698 
L 271.34541 575.995995 
L 272.533837 577.300427 
L 273.212939 578.172826 
L 273.89204 578.345001 
L 274.146703 578.349061 
L 274.571141 578.506515 
L 274.910692 578.172329 
L 275.080467 578.156678 
L 275.929344 577.01627 
L 276.184007 576.900637 
L 276.523558 577.019402 
L 277.202659 577.623094 
L 277.711985 578.034006 
L 278.051536 578.136683 
L 278.560862 578.630317 
L 278.815525 578.824459 
L 279.155076 578.588551 
L 279.409739 578.493741 
L 279.74929 577.999864 
L 280.08884 577.94952 
L 280.428391 578.126383 
L 280.683054 578.29725 
L 280.937717 578.287613 
L 281.277268 578.355259 
L 281.531931 578.042992 
L 281.956369 577.950514 
L 282.29592 578.035054 
L 282.380808 578.083894 
L 283.229684 577.355174 
L 283.484347 577.379023 
L 283.908786 577.717104 
L 284.587887 578.650028 
L 285.94609 581.027796 
L 290.275361 588.790214 
L 292.227778 591.837135 
L 292.652216 591.842214 
L 293.161542 592.134379 
L 293.925531 592.861708 
L 295.198847 594.370888 
L 298.00014 597.686108 
L 298.849017 598.353078 
L 300.376995 599.884781 
L 302.074748 601.556866 
L 303.0934 602.060611 
L 303.348063 602.061937 
L 304.366715 601.660715 
L 305.215592 600.669024 
L 305.555143 600.180101 
L 305.724918 599.934894 
L 306.149357 599.024291 
L 306.319132 598.70353 
L 306.658683 597.731923 
L 306.913346 597.205875 
L 307.252896 596.068415 
L 307.507559 595.45669 
L 307.84711 594.173586 
L 308.186661 593.195077 
L 308.526212 591.007118 
L 308.780875 589.688735 
L 309.120425 587.113701 
L 309.375088 585.775878 
L 309.714639 583.087697 
L 309.969302 581.696707 
L 310.308853 579.063853 
L 310.563516 577.722799 
L 310.903066 575.200535 
L 311.242617 573.808788 
L 311.582168 571.486319 
L 311.836831 570.358525 
L 312.176382 567.96445 
L 312.431045 566.813441 
L 312.685708 564.872394 
L 313.025258 563.366262 
L 313.279921 561.475269 
L 313.619472 560.053392 
L 313.959023 557.971868 
L 314.298574 556.927928 
L 314.638124 555.029677 
L 314.892787 554.244517 
L 315.14745 552.838599 
L 315.571889 551.580545 
L 315.826552 550.914919 
L 316.081215 550.606665 
L 316.335878 550.00981 
L 316.590541 549.837049 
L 317.014979 541.644339 
L 317.269642 540.280033 
L 317.524305 539.558411 
L 317.694081 539.490943 
L 317.948744 539.732296 
L 318.288294 540.35689 
L 318.79762 541.8699 
L 323.126892 556.231261 
L 325.249084 561.788518 
L 327.286388 566.426117 
L 332.040098 577.834816 
L 334.671616 583.249388 
L 337.218246 587.941498 
L 340.019539 592.515044 
L 342.481282 596.096816 
L 344.858137 599.222286 
L 347.744318 602.627574 
L 350.800274 605.851666 
L 354.195781 609.029469 
L 358.185502 612.332637 
L 361.665896 614.882189 
L 364.636965 616.85877 
L 367.353371 618.52757 
L 373.635059 621.933719 
L 377.96433 624.010564 
L 382.71804 626.118893 
L 390.103268 629.019338 
L 396.384956 631.187678 
L 403.770183 633.447598 
L 411.664737 635.576974 
L 432.801768 640.189418 
L 443.412728 642.063311 
L 456.400542 644.050203 
L 479.150439 646.931509 
L 492.392917 648.326408 
L 511.068205 650.058545 
L 531.865686 651.709474 
L 563.868339 653.776664 
L 586.278686 654.943364 
L 616.668473 656.344261 
L 651.896859 657.734595 
L 671.675687 658.420512 
L 671.675687 658.420512 
" clip-path="url(#pac6dbaab2f)" style="fill: none; stroke: #1f77b4; stroke-width: 1.5; stroke-linecap: square"/>
   </g>
   <g id="line2d_34">
    <path d="M 60.654199 671.339943 
L 61.503076 671.237153 
L 62.521728 670.816262 
L 63.455493 670.294713 
L 64.304369 669.844279 
L 66.596337 668.26194 
L 67.020775 667.943995 
L 68.548753 666.954608 
L 69.39763 666.748886 
L 70.925608 666.655992 
L 73.472238 666.500852 
L 74.575778 665.757262 
L 74.915329 665.325676 
L 75.509543 664.496876 
L 76.528195 662.858168 
L 78.395724 657.692374 
L 78.820162 656.2254 
L 79.074825 655.434242 
L 79.499263 653.86981 
L 79.753926 652.682312 
L 80.942354 646.741385 
L 81.961006 639.743245 
L 82.130781 638.514614 
L 82.470332 635.794977 
L 82.724995 634.028168 
L 83.064546 631.183019 
L 83.319209 629.375144 
L 83.658759 626.503197 
L 83.913422 624.696396 
L 84.252973 621.837818 
L 84.507636 620.049709 
L 84.847187 617.219845 
L 85.186738 615.218596 
L 85.526288 612.611901 
L 85.780951 610.956408 
L 86.120502 608.279429 
L 86.375165 606.610766 
L 86.714716 603.937186 
L 86.969379 602.286783 
L 87.308929 599.646198 
L 87.563592 598.137171 
L 87.903143 595.877794 
L 89.346234 589.931547 
L 89.940447 579.25923 
L 90.279998 576.761172 
L 90.619549 575.740153 
L 90.874212 575.424228 
L 91.128875 575.433697 
L 91.468426 575.742937 
L 92.062639 576.687462 
L 92.911516 578.360086 
L 92.996404 577.187858 
L 93.84528 540.059662 
L 94.184831 528.438207 
L 94.354607 521.3931 
L 94.694157 504.663094 
L 94.94882 495.739733 
L 95.288371 480.59432 
L 95.543034 473.026564 
L 95.797697 462.447215 
L 96.222135 450.828638 
L 96.561686 443.764805 
L 96.731461 440.398256 
L 96.986124 433.983403 
L 97.240787 432.084129 
L 97.325675 431.639919 
L 97.750114 425.604708 
L 97.919889 425.106993 
L 98.344327 420.529115 
L 98.514103 420.42128 
L 98.853653 417.401435 
L 98.938541 417.367079 
L 99.108316 417.635275 
L 99.447867 415.782121 
L 99.617642 416.256887 
L 99.70253 416.524442 
L 99.957193 415.560028 
L 100.042081 415.650491 
L 100.211856 416.427919 
L 100.466519 417.559373 
L 100.551407 417.374622 
L 100.721182 417.817629 
L 101.060733 419.540319 
L 101.145621 419.476689 
L 101.315396 420.072886 
L 101.739834 422.106649 
L 101.994497 423.459522 
L 102.334048 425.265063 
L 102.588711 426.813545 
L 102.928262 428.868144 
L 103.267812 431.31614 
L 103.522475 432.987787 
L 103.607363 433.014874 
L 103.777138 433.669636 
L 104.031802 435.214108 
L 104.116689 435.103915 
L 104.286465 434.678858 
L 104.45624 435.108204 
L 104.626015 435.690106 
L 105.050454 433.154354 
L 105.135341 433.286054 
L 105.220229 433.015785 
L 105.644667 425.702759 
L 105.729555 425.338748 
L 105.814443 424.174815 
L 106.323769 405.161599 
L 106.578432 403.48639 
L 106.663319 403.236854 
L 106.748207 403.311465 
L 106.917982 404.119993 
L 107.512196 409.515654 
L 111.841468 460.770584 
L 113.284558 475.159369 
L 114.982312 489.57679 
L 116.764953 502.376473 
L 118.208043 511.247363 
L 119.990684 520.81199 
L 121.773326 528.795898 
L 122.197764 528.284717 
L 122.537315 528.720024 
L 122.876865 529.601736 
L 124.150181 533.923458 
L 127.206137 543.655362 
L 130.262093 550.805602 
L 130.771419 551.715961 
L 131.195858 552.461986 
L 132.21451 554.122756 
L 132.469173 554.404052 
L 132.893611 554.953825 
L 133.233162 555.422539 
L 133.487825 555.628029 
L 133.742488 555.911714 
L 134.166926 556.409255 
L 134.421589 556.681356 
L 134.676252 556.945828 
L 134.846028 556.987132 
L 135.779792 557.70431 
L 136.119343 557.703947 
L 136.458894 557.91245 
L 136.628669 557.845595 
L 136.883332 558.027874 
L 137.137995 558.185414 
L 137.30777 558.115096 
L 137.817096 558.186901 
L 138.071759 558.202156 
L 138.241535 558.302294 
L 138.581085 558.039432 
L 139.175299 558.331834 
L 139.769513 559.194208 
L 140.61839 561.08093 
L 143.16502 567.734748 
L 145.541875 573.591624 
L 147.409404 577.710777 
L 148.088505 578.179551 
L 148.343168 578.043765 
L 148.767606 578.011904 
L 149.022269 578.028007 
L 150.040922 578.712381 
L 151.144461 580.082395 
L 151.484012 580.329794 
L 151.823563 580.553035 
L 152.163113 580.813953 
L 152.502664 581.040883 
L 152.842215 581.300274 
L 153.775979 582.157688 
L 154.200418 582.304263 
L 154.455081 582.186894 
L 154.794631 582.201471 
L 155.049294 582.109104 
L 155.813284 582.401606 
L 156.152834 582.541264 
L 156.492385 582.739344 
L 157.256374 583.352037 
L 157.511037 583.262695 
L 157.850588 583.429231 
L 158.275026 583.868855 
L 158.529689 584.101099 
L 158.86924 584.27726 
L 159.039015 584.371359 
L 159.548341 583.951094 
L 161.246095 583.941659 
L 161.840308 584.398752 
L 163.368287 586.070027 
L 163.62295 585.976128 
L 164.302051 586.188755 
L 164.556714 586.358155 
L 165.06604 586.040308 
L 165.575366 586.219691 
L 166.254468 586.923032 
L 166.848681 587.491965 
L 166.933569 587.525392 
L 167.442895 587.08891 
L 167.697558 587.020346 
L 167.952221 586.862484 
L 168.291772 586.769771 
L 168.546435 586.51647 
L 168.885986 586.316111 
L 169.140649 585.944885 
L 169.395312 585.870614 
L 169.734862 586.024711 
L 170.159301 586.246328 
L 170.498851 586.416524 
L 171.517503 587.203501 
L 172.02683 587.236668 
L 172.281493 587.206443 
L 172.875706 587.510735 
L 174.149021 588.575299 
L 174.488572 588.703155 
L 174.997898 588.810757 
L 175.252561 588.583868 
L 175.592112 588.618275 
L 176.271213 588.869419 
L 176.525876 588.820672 
L 176.780539 588.877839 
L 177.204978 588.516828 
L 177.459641 588.40981 
L 177.714304 588.214827 
L 178.053854 588.261699 
L 178.393405 588.477868 
L 178.732956 588.644643 
L 179.157394 588.895713 
L 179.66672 589.313535 
L 180.855148 590.481054 
L 181.024923 590.585682 
L 181.534249 590.387603 
L 181.704025 590.307638 
L 181.958688 590.125839 
L 182.298238 589.993503 
L 182.552901 589.705036 
L 182.892452 589.677442 
L 183.31689 589.756412 
L 183.571553 589.827646 
L 183.826216 589.794653 
L 184.080879 589.857994 
L 184.590205 589.450586 
L 184.759981 589.265771 
L 185.014644 588.877635 
L 185.693745 588.488081 
L 186.033296 588.443562 
L 186.287959 588.218813 
L 186.882173 588.161775 
L 187.306611 588.208988 
L 187.815937 588.155595 
L 188.0706 587.817751 
L 188.410151 587.742185 
L 188.749702 587.857706 
L 189.17414 588.05217 
L 190.61723 588.4378 
L 191.126556 588.883409 
L 191.466107 589.136921 
L 191.72077 589.098521 
L 192.230096 589.371508 
L 192.739422 589.85387 
L 193.333636 590.355938 
L 193.588299 590.134162 
L 193.842962 590.066067 
L 194.352288 589.332895 
L 194.691839 589.30828 
L 195.455828 589.705284 
L 195.880266 589.895238 
L 196.644255 590.162599 
L 196.898918 590.263736 
L 197.408244 589.674359 
L 198.087346 589.454303 
L 198.511784 589.790681 
L 199.275773 590.759449 
L 205.133023 598.863623 
L 207.849429 602.101798 
L 207.934316 601.701935 
L 208.783193 587.884334 
L 210.226283 563.714093 
L 210.480946 560.903451 
L 210.820497 556.251913 
L 211.07516 553.704734 
L 211.414711 549.658273 
L 211.669374 547.519049 
L 212.008925 544.164298 
L 212.263588 542.444565 
L 212.603138 539.744787 
L 212.857801 538.410107 
L 213.112464 536.597054 
L 213.961341 533.818878 
L 214.046229 533.677977 
L 214.470667 532.184156 
L 214.640443 532.047766 
L 215.064881 530.957555 
L 215.234656 530.930286 
L 215.574207 530.215759 
L 215.913758 530.151961 
L 216.083533 529.872748 
L 216.253308 529.903471 
L 216.592859 530.207294 
L 216.762634 530.117319 
L 216.93241 530.279544 
L 217.187073 530.531112 
L 217.356848 530.510632 
L 217.611511 530.880412 
L 217.781287 531.049002 
L 217.951062 531.106627 
L 218.290613 531.59648 
L 218.715051 530.499241 
L 218.799939 530.486242 
L 218.884826 530.313008 
L 219.394152 527.195064 
L 219.47904 527.064941 
L 219.563928 526.64248 
L 220.243029 516.529244 
L 220.58258 506.508786 
L 220.752355 502.823196 
L 221.261681 471.791507 
L 221.601232 465.60745 
L 221.855895 464.40835 
L 222.02567 464.42169 
L 222.195446 464.768488 
L 222.534996 466.546284 
L 223.553648 474.031475 
L 226.609605 498.060418 
L 228.307358 509.892131 
L 230.005112 520.208766 
L 231.787753 529.691725 
L 233.400619 537.172796 
L 234.334383 540.701774 
L 235.692586 544.57767 
L 238.408992 551.887168 
L 238.663655 552.184821 
L 239.003205 552.68087 
L 240.276521 554.83675 
L 240.700959 555.029592 
L 241.04051 555.366858 
L 241.210285 555.317057 
L 242.568488 556.019862 
L 243.417365 557.425021 
L 245.115118 560.303736 
L 245.284893 560.379018 
L 245.454669 560.322064 
L 245.709332 560.498216 
L 246.558209 561.397779 
L 247.23731 562.548037 
L 247.576861 562.915314 
L 248.765288 564.557299 
L 248.935063 564.67466 
L 249.189726 564.6528 
L 249.529277 564.777486 
L 249.78394 564.655894 
L 250.038603 564.834578 
L 250.547929 565.585241 
L 250.802592 565.888055 
L 251.057255 565.955034 
L 251.311918 566.167361 
L 251.736357 565.877175 
L 252.160795 566.169083 
L 252.670121 566.949085 
L 253.603886 568.860985 
L 253.858549 569.218233 
L 254.113212 569.303225 
L 254.53765 569.820606 
L 255.386527 571.370547 
L 255.64119 571.684256 
L 255.895853 571.731975 
L 256.320291 571.987506 
L 256.574954 571.870167 
L 257.254056 572.16736 
L 258.018045 572.831574 
L 258.442483 573.077288 
L 259.29136 573.923728 
L 259.715798 573.763427 
L 259.970461 573.758118 
L 260.225124 573.624016 
L 260.989113 573.917473 
L 261.158889 573.974428 
L 261.413552 573.998615 
L 262.432204 574.815517 
L 263.026418 575.459428 
L 263.281081 575.389609 
L 263.705519 575.662513 
L 264.469508 576.536747 
L 265.48816 577.771466 
L 265.742823 577.599764 
L 266.761475 577.769406 
L 267.270801 578.025747 
L 267.525464 577.84546 
L 267.949903 577.968087 
L 268.289453 578.268425 
L 268.544116 578.446439 
L 268.798779 578.459961 
L 269.13833 578.570458 
L 269.392993 578.482327 
L 269.647656 578.541533 
L 270.072095 578.017592 
L 270.24187 577.951154 
L 270.666308 577.265792 
L 271.005859 577.264769 
L 271.34541 577.547099 
L 273.128051 579.86022 
L 273.382714 580.053069 
L 273.637377 580.019155 
L 274.571141 580.393551 
L 274.99558 580.039035 
L 275.165355 580.00738 
L 275.589794 579.395441 
L 275.844457 579.240883 
L 276.09912 579.031033 
L 276.353783 579.084577 
L 276.693333 579.369653 
L 277.711985 580.465375 
L 277.966648 580.466616 
L 278.306199 580.729005 
L 278.900413 581.266944 
L 279.155076 581.048711 
L 279.409739 581.023398 
L 279.834177 580.48198 
L 280.173728 580.512294 
L 280.513279 580.787427 
L 280.767942 580.960167 
L 281.022605 580.98977 
L 281.277268 581.119227 
L 281.701706 580.749998 
L 282.29592 580.855061 
L 282.465695 580.930963 
L 282.975021 580.447065 
L 283.569235 580.44362 
L 283.993673 580.899654 
L 284.84255 582.273789 
L 289.426485 590.198073 
L 292.058003 594.163875 
L 292.227778 594.328054 
L 292.821992 593.91875 
L 293.161542 594.069811 
L 293.755756 594.639039 
L 295.113959 596.366733 
L 297.745477 599.693131 
L 298.424578 599.866696 
L 299.10368 600.462691 
L 302.244524 603.571504 
L 303.0934 603.829907 
L 303.348063 603.837813 
L 303.687614 603.742262 
L 303.942277 603.664828 
L 304.281828 603.43899 
L 304.451603 603.386564 
L 304.960929 602.88809 
L 305.130705 602.819731 
L 305.640031 602.183028 
L 305.809806 601.918689 
L 306.149357 601.311 
L 306.319132 601.122096 
L 306.828458 600.047816 
L 306.998233 599.64811 
L 307.337784 598.759697 
L 307.507559 598.475904 
L 308.016886 597.016535 
L 308.186661 596.682599 
L 310.733291 580.896559 
L 311.072842 579.035202 
L 311.242617 578.44395 
L 311.751943 575.407033 
L 311.921719 574.408326 
L 312.261269 572.224501 
L 312.431045 571.572095 
L 312.940371 568.471323 
L 313.110146 567.490778 
L 313.449697 565.365641 
L 313.619472 564.756044 
L 314.128798 561.817157 
L 314.298574 561.371097 
L 314.8079 558.774901 
L 314.977675 558.030929 
L 315.317226 556.474657 
L 315.571889 555.746458 
L 315.826552 554.784412 
L 316.590541 553.555351 
L 316.675428 553.00113 
L 317.269642 543.464999 
L 317.694081 541.540804 
L 317.948744 541.376722 
L 318.203407 541.532521 
L 318.542957 542.207102 
L 319.222059 544.301272 
L 322.362903 554.101018 
L 324.65487 560.012413 
L 327.625939 566.684801 
L 331.106333 575.096366 
L 332.549424 578.076617 
L 335.350717 583.613332 
L 337.81246 587.968688 
L 340.35909 592.028487 
L 342.990608 595.815471 
L 345.791901 599.455833 
L 348.678082 602.844362 
L 351.734038 606.088106 
L 354.95977 609.182057 
L 358.355277 612.124346 
L 361.920559 614.915587 
L 365.655617 617.558306 
L 369.645338 620.108056 
L 373.889722 622.554866 
L 378.388768 624.892393 
L 383.227366 627.154935 
L 388.405514 629.330105 
L 394.008101 631.439873 
L 400.035126 633.469771 
L 406.571477 635.434049 
L 413.702041 637.340168 
L 421.42682 639.171657 
L 429.915587 640.950898 
L 439.168344 642.659349 
L 449.354865 644.310401 
L 460.560038 645.898284 
L 472.953639 647.427409 
L 486.79033 648.906238 
L 502.239887 650.328618 
L 519.472085 651.687973 
L 538.911363 652.994059 
L 560.897271 654.2436 
L 585.854247 655.434818 
L 614.461394 656.572266 
L 647.312924 657.650677 
L 671.675687 658.328506 
L 671.675687 658.328506 
" clip-path="url(#pac6dbaab2f)" style="fill: none; stroke: #ff7f0e; stroke-width: 1.5; stroke-linecap: square"/>
   </g>
   <g id="patch_9">
    <path d="M 30.103125 684.92 
L 30.103125 386.16 
" style="fill: none; stroke: #000000; stroke-width: 0.8; stroke-linejoin: miter; stroke-linecap: square"/>
   </g>
   <g id="patch_10">
    <path d="M 702.226761 684.92 
L 702.226761 386.16 
" style="fill: none; stroke: #000000; stroke-width: 0.8; stroke-linejoin: miter; stroke-linecap: square"/>
   </g>
   <g id="patch_11">
    <path d="M 30.103125 684.92 
L 702.226761 684.92 
" style="fill: none; stroke: #000000; stroke-width: 0.8; stroke-linejoin: miter; stroke-linecap: square"/>
   </g>
   <g id="patch_12">
    <path d="M 30.103125 386.16 
L 702.226761 386.16 
" style="fill: none; stroke: #000000; stroke-width: 0.8; stroke-linejoin: miter; stroke-linecap: square"/>
   </g>
   <g id="text_32">
    <!-- 2 transformation(s) -->
    <g transform="translate(308.050256 380.16) scale(0.12 -0.12)">
     <use xlink:href="#DejaVuSans-32"/>
     <use xlink:href="#DejaVuSans-20" x="63.623047"/>
     <use xlink:href="#DejaVuSans-74" x="95.410156"/>
     <use xlink:href="#DejaVuSans-72" x="134.619141"/>
     <use xlink:href="#DejaVuSans-61" x="175.732422"/>
     <use xlink:href="#DejaVuSans-6e" x="237.011719"/>
     <use xlink:href="#DejaVuSans-73" x="300.390625"/>
     <use xlink:href="#DejaVuSans-66" x="352.490234"/>
     <use xlink:href="#DejaVuSans-6f" x="387.695312"/>
     <use xlink:href="#DejaVuSans-72" x="448.876953"/>
     <use xlink:href="#DejaVuSans-6d" x="488.240234"/>
     <use xlink:href="#DejaVuSans-61" x="585.652344"/>
     <use xlink:href="#DejaVuSans-74" x="646.931641"/>
     <use xlink:href="#DejaVuSans-69" x="686.140625"/>
     <use xlink:href="#DejaVuSans-6f" x="713.923828"/>
     <use xlink:href="#DejaVuSans-6e" x="775.105469"/>
     <use xlink:href="#DejaVuSans-28" x="838.484375"/>
     <use xlink:href="#DejaVuSans-73" x="877.498047"/>
     <use xlink:href="#DejaVuSans-29" x="929.597656"/>
    </g>
   </g>
  </g>
  <g id="text_33">
   <!-- training -->
   <g transform="translate(333.219687 16.318125) scale(0.12 -0.12)">
    <defs>
     <path id="DejaVuSans-67" d="M 2906 1791 
Q 2906 2416 2648 2759 
Q 2391 3103 1925 3103 
Q 1463 3103 1205 2759 
Q 947 2416 947 1791 
Q 947 1169 1205 825 
Q 1463 481 1925 481 
Q 2391 481 2648 825 
Q 2906 1169 2906 1791 
z
M 3481 434 
Q 3481 -459 3084 -895 
Q 2688 -1331 1869 -1331 
Q 1566 -1331 1297 -1286 
Q 1028 -1241 775 -1147 
L 775 -588 
Q 1028 -725 1275 -790 
Q 1522 -856 1778 -856 
Q 2344 -856 2625 -561 
Q 2906 -266 2906 331 
L 2906 616 
Q 2728 306 2450 153 
Q 2172 0 1784 0 
Q 1141 0 747 490 
Q 353 981 353 1791 
Q 353 2603 747 3093 
Q 1141 3584 1784 3584 
Q 2172 3584 2450 3431 
Q 2728 3278 2906 2969 
L 2906 3500 
L 3481 3500 
L 3481 434 
z
" transform="scale(0.015625)"/>
    </defs>
    <use xlink:href="#DejaVuSans-74"/>
    <use xlink:href="#DejaVuSans-72" x="39.208984"/>
    <use xlink:href="#DejaVuSans-61" x="80.322266"/>
    <use xlink:href="#DejaVuSans-69" x="141.601562"/>
    <use xlink:href="#DejaVuSans-6e" x="169.384766"/>
    <use xlink:href="#DejaVuSans-69" x="232.763672"/>
    <use xlink:href="#DejaVuSans-6e" x="260.546875"/>
    <use xlink:href="#DejaVuSans-67" x="323.925781"/>
   </g>
  </g>
 </g>
 <defs>
  <clipPath id="p23bad036fa">
   <rect x="30.103125" y="43.44" width="672.123636" height="298.76"/>
  </clipPath>
  <clipPath id="pac6dbaab2f">
   <rect x="30.103125" y="386.16" width="672.123636" height="298.76"/>
  </clipPath>
 </defs>
</svg>
