<?xml version="1.0" encoding="utf-8" standalone="no"?>
<!DOCTYPE svg PUBLIC "-//W3C//DTD SVG 1.1//EN"
  "http://www.w3.org/Graphics/SVG/1.1/DTD/svg11.dtd">
<svg xmlns:xlink="http://www.w3.org/1999/xlink" width="709.426761pt" height="708.798125pt" viewBox="0 0 709.426761 708.798125" xmlns="http://www.w3.org/2000/svg" version="1.1">
 <metadata>
  <rdf:RDF xmlns:dc="http://purl.org/dc/elements/1.1/" xmlns:cc="http://creativecommons.org/ns#" xmlns:rdf="http://www.w3.org/1999/02/22-rdf-syntax-ns#">
   <cc:Work>
    <dc:type rdf:resource="http://purl.org/dc/dcmitype/StillImage"/>
    <dc:date>2023-06-08T16:59:05.753523</dc:date>
    <dc:format>image/svg+xml</dc:format>
    <dc:creator>
     <cc:Agent>
      <dc:title>Matplotlib v3.7.1, https://matplotlib.org/</dc:title>
     </cc:Agent>
    </dc:creator>
   </cc:Work>
  </rdf:RDF>
 </metadata>
 <defs>
  <style type="text/css">*{stroke-linejoin: round; stroke-linecap: butt}</style>
 </defs>
 <g id="figure_1">
  <g id="patch_1">
   <path d="M 0 708.798125 
L 709.426761 708.798125 
L 709.426761 0 
L 0 0 
z
" style="fill: #ffffff"/>
  </g>
  <g id="axes_1">
   <g id="patch_2">
    <path d="M 30.103125 342.2 
L 702.226761 342.2 
L 702.226761 43.44 
L 30.103125 43.44 
z
" style="fill: #ffffff"/>
   </g>
   <g id="matplotlib.axis_1">
    <g id="xtick_1">
     <g id="line2d_1">
      <defs>
       <path id="m32093eade7" d="M 0 0 
L 0 3.5 
" style="stroke: #000000; stroke-width: 0.8"/>
      </defs>
      <g>
       <use xlink:href="#m32093eade7" x="60.484424" y="342.2" style="stroke: #000000; stroke-width: 0.8"/>
      </g>
     </g>
     <g id="text_1">
      <!-- 2014-07-01 -->
      <g transform="translate(31.426612 356.798437) scale(0.1 -0.1)">
       <defs>
        <path id="DejaVuSans-32" d="M 1228 531 
L 3431 531 
L 3431 0 
L 469 0 
L 469 531 
Q 828 903 1448 1529 
Q 2069 2156 2228 2338 
Q 2531 2678 2651 2914 
Q 2772 3150 2772 3378 
Q 2772 3750 2511 3984 
Q 2250 4219 1831 4219 
Q 1534 4219 1204 4116 
Q 875 4013 500 3803 
L 500 4441 
Q 881 4594 1212 4672 
Q 1544 4750 1819 4750 
Q 2544 4750 2975 4387 
Q 3406 4025 3406 3419 
Q 3406 3131 3298 2873 
Q 3191 2616 2906 2266 
Q 2828 2175 2409 1742 
Q 1991 1309 1228 531 
z
" transform="scale(0.015625)"/>
        <path id="DejaVuSans-30" d="M 2034 4250 
Q 1547 4250 1301 3770 
Q 1056 3291 1056 2328 
Q 1056 1369 1301 889 
Q 1547 409 2034 409 
Q 2525 409 2770 889 
Q 3016 1369 3016 2328 
Q 3016 3291 2770 3770 
Q 2525 4250 2034 4250 
z
M 2034 4750 
Q 2819 4750 3233 4129 
Q 3647 3509 3647 2328 
Q 3647 1150 3233 529 
Q 2819 -91 2034 -91 
Q 1250 -91 836 529 
Q 422 1150 422 2328 
Q 422 3509 836 4129 
Q 1250 4750 2034 4750 
z
" transform="scale(0.015625)"/>
        <path id="DejaVuSans-31" d="M 794 531 
L 1825 531 
L 1825 4091 
L 703 3866 
L 703 4441 
L 1819 4666 
L 2450 4666 
L 2450 531 
L 3481 531 
L 3481 0 
L 794 0 
L 794 531 
z
" transform="scale(0.015625)"/>
        <path id="DejaVuSans-34" d="M 2419 4116 
L 825 1625 
L 2419 1625 
L 2419 4116 
z
M 2253 4666 
L 3047 4666 
L 3047 1625 
L 3713 1625 
L 3713 1100 
L 3047 1100 
L 3047 0 
L 2419 0 
L 2419 1100 
L 313 1100 
L 313 1709 
L 2253 4666 
z
" transform="scale(0.015625)"/>
        <path id="DejaVuSans-2d" d="M 313 2009 
L 1997 2009 
L 1997 1497 
L 313 1497 
L 313 2009 
z
" transform="scale(0.015625)"/>
        <path id="DejaVuSans-37" d="M 525 4666 
L 3525 4666 
L 3525 4397 
L 1831 0 
L 1172 0 
L 2766 4134 
L 525 4134 
L 525 4666 
z
" transform="scale(0.015625)"/>
       </defs>
       <use xlink:href="#DejaVuSans-32"/>
       <use xlink:href="#DejaVuSans-30" x="63.623047"/>
       <use xlink:href="#DejaVuSans-31" x="127.246094"/>
       <use xlink:href="#DejaVuSans-34" x="190.869141"/>
       <use xlink:href="#DejaVuSans-2d" x="254.492188"/>
       <use xlink:href="#DejaVuSans-30" x="290.576172"/>
       <use xlink:href="#DejaVuSans-37" x="354.199219"/>
       <use xlink:href="#DejaVuSans-2d" x="417.822266"/>
       <use xlink:href="#DejaVuSans-30" x="453.90625"/>
       <use xlink:href="#DejaVuSans-31" x="517.529297"/>
      </g>
     </g>
    </g>
    <g id="xtick_2">
     <g id="line2d_2">
      <g>
       <use xlink:href="#m32093eade7" x="182.722677" y="342.2" style="stroke: #000000; stroke-width: 0.8"/>
      </g>
     </g>
     <g id="text_2">
      <!-- 2014-07-02 -->
      <g transform="translate(153.664864 356.798437) scale(0.1 -0.1)">
       <use xlink:href="#DejaVuSans-32"/>
       <use xlink:href="#DejaVuSans-30" x="63.623047"/>
       <use xlink:href="#DejaVuSans-31" x="127.246094"/>
       <use xlink:href="#DejaVuSans-34" x="190.869141"/>
       <use xlink:href="#DejaVuSans-2d" x="254.492188"/>
       <use xlink:href="#DejaVuSans-30" x="290.576172"/>
       <use xlink:href="#DejaVuSans-37" x="354.199219"/>
       <use xlink:href="#DejaVuSans-2d" x="417.822266"/>
       <use xlink:href="#DejaVuSans-30" x="453.90625"/>
       <use xlink:href="#DejaVuSans-32" x="517.529297"/>
      </g>
     </g>
    </g>
    <g id="xtick_3">
     <g id="line2d_3">
      <g>
       <use xlink:href="#m32093eade7" x="304.960929" y="342.2" style="stroke: #000000; stroke-width: 0.8"/>
      </g>
     </g>
     <g id="text_3">
      <!-- 2014-07-03 -->
      <g transform="translate(275.903117 356.798437) scale(0.1 -0.1)">
       <defs>
        <path id="DejaVuSans-33" d="M 2597 2516 
Q 3050 2419 3304 2112 
Q 3559 1806 3559 1356 
Q 3559 666 3084 287 
Q 2609 -91 1734 -91 
Q 1441 -91 1130 -33 
Q 819 25 488 141 
L 488 750 
Q 750 597 1062 519 
Q 1375 441 1716 441 
Q 2309 441 2620 675 
Q 2931 909 2931 1356 
Q 2931 1769 2642 2001 
Q 2353 2234 1838 2234 
L 1294 2234 
L 1294 2753 
L 1863 2753 
Q 2328 2753 2575 2939 
Q 2822 3125 2822 3475 
Q 2822 3834 2567 4026 
Q 2313 4219 1838 4219 
Q 1578 4219 1281 4162 
Q 984 4106 628 3988 
L 628 4550 
Q 988 4650 1302 4700 
Q 1616 4750 1894 4750 
Q 2613 4750 3031 4423 
Q 3450 4097 3450 3541 
Q 3450 3153 3228 2886 
Q 3006 2619 2597 2516 
z
" transform="scale(0.015625)"/>
       </defs>
       <use xlink:href="#DejaVuSans-32"/>
       <use xlink:href="#DejaVuSans-30" x="63.623047"/>
       <use xlink:href="#DejaVuSans-31" x="127.246094"/>
       <use xlink:href="#DejaVuSans-34" x="190.869141"/>
       <use xlink:href="#DejaVuSans-2d" x="254.492188"/>
       <use xlink:href="#DejaVuSans-30" x="290.576172"/>
       <use xlink:href="#DejaVuSans-37" x="354.199219"/>
       <use xlink:href="#DejaVuSans-2d" x="417.822266"/>
       <use xlink:href="#DejaVuSans-30" x="453.90625"/>
       <use xlink:href="#DejaVuSans-33" x="517.529297"/>
      </g>
     </g>
    </g>
    <g id="xtick_4">
     <g id="line2d_4">
      <g>
       <use xlink:href="#m32093eade7" x="427.199182" y="342.2" style="stroke: #000000; stroke-width: 0.8"/>
      </g>
     </g>
     <g id="text_4">
      <!-- 2014-07-04 -->
      <g transform="translate(398.141369 356.798437) scale(0.1 -0.1)">
       <use xlink:href="#DejaVuSans-32"/>
       <use xlink:href="#DejaVuSans-30" x="63.623047"/>
       <use xlink:href="#DejaVuSans-31" x="127.246094"/>
       <use xlink:href="#DejaVuSans-34" x="190.869141"/>
       <use xlink:href="#DejaVuSans-2d" x="254.492188"/>
       <use xlink:href="#DejaVuSans-30" x="290.576172"/>
       <use xlink:href="#DejaVuSans-37" x="354.199219"/>
       <use xlink:href="#DejaVuSans-2d" x="417.822266"/>
       <use xlink:href="#DejaVuSans-30" x="453.90625"/>
       <use xlink:href="#DejaVuSans-34" x="517.529297"/>
      </g>
     </g>
    </g>
    <g id="xtick_5">
     <g id="line2d_5">
      <g>
       <use xlink:href="#m32093eade7" x="549.437434" y="342.2" style="stroke: #000000; stroke-width: 0.8"/>
      </g>
     </g>
     <g id="text_5">
      <!-- 2014-07-05 -->
      <g transform="translate(520.379622 356.798437) scale(0.1 -0.1)">
       <defs>
        <path id="DejaVuSans-35" d="M 691 4666 
L 3169 4666 
L 3169 4134 
L 1269 4134 
L 1269 2991 
Q 1406 3038 1543 3061 
Q 1681 3084 1819 3084 
Q 2600 3084 3056 2656 
Q 3513 2228 3513 1497 
Q 3513 744 3044 326 
Q 2575 -91 1722 -91 
Q 1428 -91 1123 -41 
Q 819 9 494 109 
L 494 744 
Q 775 591 1075 516 
Q 1375 441 1709 441 
Q 2250 441 2565 725 
Q 2881 1009 2881 1497 
Q 2881 1984 2565 2268 
Q 2250 2553 1709 2553 
Q 1456 2553 1204 2497 
Q 953 2441 691 2322 
L 691 4666 
z
" transform="scale(0.015625)"/>
       </defs>
       <use xlink:href="#DejaVuSans-32"/>
       <use xlink:href="#DejaVuSans-30" x="63.623047"/>
       <use xlink:href="#DejaVuSans-31" x="127.246094"/>
       <use xlink:href="#DejaVuSans-34" x="190.869141"/>
       <use xlink:href="#DejaVuSans-2d" x="254.492188"/>
       <use xlink:href="#DejaVuSans-30" x="290.576172"/>
       <use xlink:href="#DejaVuSans-37" x="354.199219"/>
       <use xlink:href="#DejaVuSans-2d" x="417.822266"/>
       <use xlink:href="#DejaVuSans-30" x="453.90625"/>
       <use xlink:href="#DejaVuSans-35" x="517.529297"/>
      </g>
     </g>
    </g>
    <g id="xtick_6">
     <g id="line2d_6">
      <g>
       <use xlink:href="#m32093eade7" x="671.675687" y="342.2" style="stroke: #000000; stroke-width: 0.8"/>
      </g>
     </g>
     <g id="text_6">
      <!-- 2014-07-06 -->
      <g transform="translate(642.617874 356.798437) scale(0.1 -0.1)">
       <defs>
        <path id="DejaVuSans-36" d="M 2113 2584 
Q 1688 2584 1439 2293 
Q 1191 2003 1191 1497 
Q 1191 994 1439 701 
Q 1688 409 2113 409 
Q 2538 409 2786 701 
Q 3034 994 3034 1497 
Q 3034 2003 2786 2293 
Q 2538 2584 2113 2584 
z
M 3366 4563 
L 3366 3988 
Q 3128 4100 2886 4159 
Q 2644 4219 2406 4219 
Q 1781 4219 1451 3797 
Q 1122 3375 1075 2522 
Q 1259 2794 1537 2939 
Q 1816 3084 2150 3084 
Q 2853 3084 3261 2657 
Q 3669 2231 3669 1497 
Q 3669 778 3244 343 
Q 2819 -91 2113 -91 
Q 1303 -91 875 529 
Q 447 1150 447 2328 
Q 447 3434 972 4092 
Q 1497 4750 2381 4750 
Q 2619 4750 2861 4703 
Q 3103 4656 3366 4563 
z
" transform="scale(0.015625)"/>
       </defs>
       <use xlink:href="#DejaVuSans-32"/>
       <use xlink:href="#DejaVuSans-30" x="63.623047"/>
       <use xlink:href="#DejaVuSans-31" x="127.246094"/>
       <use xlink:href="#DejaVuSans-34" x="190.869141"/>
       <use xlink:href="#DejaVuSans-2d" x="254.492188"/>
       <use xlink:href="#DejaVuSans-30" x="290.576172"/>
       <use xlink:href="#DejaVuSans-37" x="354.199219"/>
       <use xlink:href="#DejaVuSans-2d" x="417.822266"/>
       <use xlink:href="#DejaVuSans-30" x="453.90625"/>
       <use xlink:href="#DejaVuSans-36" x="517.529297"/>
      </g>
     </g>
    </g>
   </g>
   <g id="matplotlib.axis_2">
    <g id="ytick_1">
     <g id="line2d_7">
      <defs>
       <path id="m390780d188" d="M 0 0 
L -3.5 0 
" style="stroke: #000000; stroke-width: 0.8"/>
      </defs>
      <g>
       <use xlink:href="#m390780d188" x="30.103125" y="328.617892" style="stroke: #000000; stroke-width: 0.8"/>
      </g>
     </g>
     <g id="text_7">
      <!-- 0.0 -->
      <g transform="translate(7.2 332.417111) scale(0.1 -0.1)">
       <defs>
        <path id="DejaVuSans-2e" d="M 684 794 
L 1344 794 
L 1344 0 
L 684 0 
L 684 794 
z
" transform="scale(0.015625)"/>
       </defs>
       <use xlink:href="#DejaVuSans-30"/>
       <use xlink:href="#DejaVuSans-2e" x="63.623047"/>
       <use xlink:href="#DejaVuSans-30" x="95.410156"/>
      </g>
     </g>
    </g>
    <g id="ytick_2">
     <g id="line2d_8">
      <g>
       <use xlink:href="#m390780d188" x="30.103125" y="279.624206" style="stroke: #000000; stroke-width: 0.8"/>
      </g>
     </g>
     <g id="text_8">
      <!-- 0.5 -->
      <g transform="translate(7.2 283.423425) scale(0.1 -0.1)">
       <use xlink:href="#DejaVuSans-30"/>
       <use xlink:href="#DejaVuSans-2e" x="63.623047"/>
       <use xlink:href="#DejaVuSans-35" x="95.410156"/>
      </g>
     </g>
    </g>
    <g id="ytick_3">
     <g id="line2d_9">
      <g>
       <use xlink:href="#m390780d188" x="30.103125" y="230.630521" style="stroke: #000000; stroke-width: 0.8"/>
      </g>
     </g>
     <g id="text_9">
      <!-- 1.0 -->
      <g transform="translate(7.2 234.42974) scale(0.1 -0.1)">
       <use xlink:href="#DejaVuSans-31"/>
       <use xlink:href="#DejaVuSans-2e" x="63.623047"/>
       <use xlink:href="#DejaVuSans-30" x="95.410156"/>
      </g>
     </g>
    </g>
    <g id="ytick_4">
     <g id="line2d_10">
      <g>
       <use xlink:href="#m390780d188" x="30.103125" y="181.636836" style="stroke: #000000; stroke-width: 0.8"/>
      </g>
     </g>
     <g id="text_10">
      <!-- 1.5 -->
      <g transform="translate(7.2 185.436054) scale(0.1 -0.1)">
       <use xlink:href="#DejaVuSans-31"/>
       <use xlink:href="#DejaVuSans-2e" x="63.623047"/>
       <use xlink:href="#DejaVuSans-35" x="95.410156"/>
      </g>
     </g>
    </g>
    <g id="ytick_5">
     <g id="line2d_11">
      <g>
       <use xlink:href="#m390780d188" x="30.103125" y="132.64315" style="stroke: #000000; stroke-width: 0.8"/>
      </g>
     </g>
     <g id="text_11">
      <!-- 2.0 -->
      <g transform="translate(7.2 136.442369) scale(0.1 -0.1)">
       <use xlink:href="#DejaVuSans-32"/>
       <use xlink:href="#DejaVuSans-2e" x="63.623047"/>
       <use xlink:href="#DejaVuSans-30" x="95.410156"/>
      </g>
     </g>
    </g>
    <g id="ytick_6">
     <g id="line2d_12">
      <g>
       <use xlink:href="#m390780d188" x="30.103125" y="83.649465" style="stroke: #000000; stroke-width: 0.8"/>
      </g>
     </g>
     <g id="text_12">
      <!-- 2.5 -->
      <g transform="translate(7.2 87.448684) scale(0.1 -0.1)">
       <use xlink:href="#DejaVuSans-32"/>
       <use xlink:href="#DejaVuSans-2e" x="63.623047"/>
       <use xlink:href="#DejaVuSans-35" x="95.410156"/>
      </g>
     </g>
    </g>
   </g>
   <g id="line2d_13">
    <path d="M 60.654199 328.617892 
L 75.25488 328.511874 
L 76.273532 328.293812 
L 76.952633 327.972555 
L 77.461959 327.519844 
L 77.886397 326.804908 
L 78.225948 325.762108 
L 78.480611 324.300078 
L 78.820162 320.525395 
L 79.499263 307.30483 
L 80.093477 286.292597 
L 80.857466 260.75842 
L 81.45168 247.891542 
L 82.130781 241.069893 
L 82.470332 238.409013 
L 83.149433 232.865751 
L 83.743647 229.900844 
L 84.422748 227.611121 
L 84.762299 226.999352 
L 85.016962 226.0716 
L 85.186738 226.030588 
L 85.271625 226.05673 
L 85.441401 225.646587 
L 86.290277 221.841347 
L 86.629828 220.873331 
L 86.969379 219.697591 
L 87.139154 219.463679 
L 87.478705 218.384471 
L 87.818256 218.385125 
L 87.988031 218.186782 
L 88.072919 218.216977 
L 88.242694 218.663039 
L 88.582245 219.526242 
L 88.75202 219.85845 
L 89.431121 222.605437 
L 89.516009 222.441763 
L 89.685784 219.668564 
L 89.940447 214.922583 
L 90.025335 214.557342 
L 90.110223 214.670986 
L 90.364886 215.629179 
L 90.449773 215.646537 
L 90.619549 215.112832 
L 90.9591 213.930048 
L 91.043987 213.99232 
L 91.213763 214.809032 
L 91.468426 217.23068 
L 93.081291 236.796567 
L 93.166179 236.403496 
L 93.335954 231.436662 
L 93.675505 218.457536 
L 93.84528 213.861457 
L 94.694157 164.790117 
L 95.288371 127.376115 
L 95.627922 118.781629 
L 96.137248 107.391317 
L 96.307023 105.579827 
L 96.646574 101.220032 
L 96.816349 101.24024 
L 96.986124 100.603906 
L 97.1559 100.037798 
L 97.240787 100.318399 
L 97.919889 108.557502 
L 99.023429 128.004203 
L 100.042081 143.963352 
L 100.466519 149.547386 
L 101.315396 166.298403 
L 102.843374 184.956425 
L 103.098037 186.496834 
L 103.3527 187.656291 
L 103.692251 189.847157 
L 103.862026 189.873299 
L 103.946914 190.063244 
L 104.286465 191.658098 
L 104.541128 191.012547 
L 104.710903 191.32401 
L 104.795791 191.115223 
L 104.965566 188.978721 
L 105.474892 181.840879 
L 105.814443 172.145015 
L 105.984218 168.086449 
L 106.238881 151.162729 
L 106.493544 137.241728 
L 106.748207 133.514004 
L 107.087758 131.755324 
L 107.172646 131.655942 
L 107.257533 131.755324 
L 107.427309 132.860207 
L 107.681972 138.17622 
L 108.021522 149.058408 
L 108.700624 178.044214 
L 109.379725 193.111414 
L 109.889051 202.533067 
L 110.398377 208.719269 
L 110.907703 213.332191 
L 111.671692 218.92446 
L 112.690344 224.894353 
L 113.284558 227.075454 
L 114.048547 228.703295 
L 114.642761 229.486156 
L 115.236975 229.991231 
L 116.170739 230.448765 
L 117.274279 230.685229 
L 119.396471 230.947929 
L 119.820909 231.349767 
L 120.415123 232.378519 
L 121.60355 234.561214 
L 121.943101 234.862123 
L 122.112876 234.204996 
L 122.537315 231.760746 
L 122.70709 231.564517 
L 123.216416 231.6079 
L 123.555967 230.90708 
L 123.980405 230.180954 
L 124.150181 230.113006 
L 124.404844 230.307121 
L 124.829282 230.982814 
L 125.763046 232.815932 
L 126.611923 233.879803 
L 127.206137 234.333207 
L 127.715463 234.553522 
L 128.988778 234.769043 
L 130.601644 234.464904 
L 131.11097 234.314073 
L 131.450521 234.201971 
L 133.6576 233.119311 
L 134.082039 232.845905 
L 134.336702 232.790567 
L 135.86468 231.705571 
L 136.119343 231.539846 
L 136.96822 230.655723 
L 137.986872 229.916298 
L 138.326422 229.541641 
L 138.581085 229.360819 
L 138.920636 228.975159 
L 139.345074 229.030492 
L 139.684625 229.31698 
L 140.109064 229.918494 
L 140.61839 231.1851 
L 141.467266 233.979424 
L 142.570806 237.44043 
L 143.504571 239.620514 
L 144.438335 241.212542 
L 145.372099 242.385087 
L 146.390752 243.333316 
L 147.579179 244.15963 
L 147.833842 244.154257 
L 148.25828 243.858032 
L 149.276933 242.347369 
L 149.701371 242.064134 
L 150.635135 241.019268 
L 151.314237 240.702047 
L 151.738675 240.700838 
L 152.417776 241.130728 
L 153.01199 241.626733 
L 153.436429 242.098447 
L 153.860867 242.603119 
L 154.370193 242.67574 
L 155.21907 242.599165 
L 155.55862 242.699195 
L 156.152834 242.879526 
L 156.747048 243.095082 
L 157.086599 243.642489 
L 158.020363 246.037988 
L 158.529689 248.658563 
L 159.378566 253.194105 
L 159.718117 254.124859 
L 160.397218 256.013088 
L 160.736769 256.691807 
L 160.991432 256.752851 
L 161.246095 256.517024 
L 161.925196 255.639488 
L 162.264747 255.643816 
L 162.689185 255.986046 
L 163.113624 256.694213 
L 165.235815 261.22566 
L 166.424243 260.880393 
L 166.848681 260.572517 
L 167.358007 259.967417 
L 167.867333 259.093953 
L 168.121996 259.086477 
L 168.71621 259.26432 
L 168.970873 258.886661 
L 169.225536 258.139287 
L 169.989525 255.323873 
L 171.008177 253.415156 
L 171.177953 253.455648 
L 171.432616 253.858882 
L 172.790819 257.146787 
L 173.979246 260.401495 
L 174.318797 260.659201 
L 174.997898 260.953446 
L 175.422337 261.262327 
L 175.931663 261.3835 
L 176.610764 261.98374 
L 176.865427 261.619707 
L 177.204978 260.728219 
L 177.968967 258.452227 
L 178.393405 257.781837 
L 179.242282 256.932546 
L 179.581833 256.604281 
L 179.836496 256.659976 
L 180.091159 257.041472 
L 180.430709 257.96409 
L 181.449361 261.047262 
L 182.043575 261.945385 
L 182.637789 262.482717 
L 182.892452 262.335741 
L 183.401778 261.619199 
L 183.826216 260.60544 
L 184.590205 257.571485 
L 185.099532 255.888317 
L 185.52397 255.006413 
L 186.372847 253.971902 
L 187.221723 252.007461 
L 187.561274 251.904031 
L 188.664814 251.917616 
L 189.004365 252.614201 
L 189.513691 253.74174 
L 189.938129 254.07699 
L 190.362567 254.356441 
L 190.787006 255.042641 
L 191.211444 256.124139 
L 191.975433 258.172117 
L 192.484759 258.922464 
L 192.994085 260.212023 
L 193.673187 261.956646 
L 193.92785 262.011424 
L 194.182513 261.793643 
L 194.861614 260.87259 
L 195.116277 261.032567 
L 195.455828 261.243328 
L 195.625603 261.113995 
L 195.880266 260.554061 
L 196.729143 258.2762 
L 196.983806 258.208585 
L 197.323357 258.280587 
L 198.002458 257.992083 
L 198.342009 258.197482 
L 198.936223 258.621473 
L 199.360661 258.547451 
L 199.700212 258.577845 
L 199.954875 258.871383 
L 200.294425 259.717274 
L 200.718864 261.397488 
L 201.482853 265.518196 
L 202.67128 272.023797 
L 203.605045 275.920872 
L 204.538809 278.875577 
L 205.557461 281.347137 
L 206.576113 283.218653 
L 207.764541 284.882253 
L 208.104092 285.23075 
L 208.188979 285.171118 
L 208.358755 284.30218 
L 208.613418 280.438492 
L 208.952968 269.137783 
L 210.820497 194.056244 
L 210.990273 191.993039 
L 211.499599 190.250444 
L 211.584486 190.439045 
L 211.839149 191.24431 
L 212.093812 191.009499 
L 213.367127 196.235604 
L 213.791566 199.432765 
L 214.046229 200.606974 
L 214.470667 203.496843 
L 217.017297 216.119653 
L 217.356848 217.930979 
L 218.545276 223.732841 
L 218.715051 223.41437 
L 218.884826 223.117976 
L 219.054602 223.091215 
L 219.224377 222.175634 
L 219.563928 220.006822 
L 219.648815 219.825965 
L 219.733703 219.375674 
L 219.903478 216.693225 
L 220.837243 193.558609 
L 221.091906 175.88227 
L 221.346569 158.001654 
L 221.601232 151.629864 
L 222.110558 146.696135 
L 222.365221 144.761469 
L 222.450109 144.821976 
L 222.619884 146.251941 
L 222.789659 150.805045 
L 223.893199 201.669829 
L 224.402525 210.687717 
L 224.826964 215.423815 
L 225.506065 220.748239 
L 226.864268 230.697003 
L 227.628257 234.735857 
L 228.307358 237.229822 
L 228.98646 238.924817 
L 229.920224 240.65617 
L 232.97618 245.640846 
L 234.758822 248.767623 
L 235.18326 250.339069 
L 235.692586 253.144297 
L 236.965901 260.949959 
L 237.39034 262.12501 
L 237.645003 262.370293 
L 237.899666 262.337522 
L 238.408992 261.997173 
L 238.918318 261.361031 
L 240.361408 258.086682 
L 240.700959 256.759451 
L 241.634723 252.562682 
L 243.077814 247.584022 
L 243.502252 246.893353 
L 243.756915 246.791361 
L 244.011578 246.935977 
L 244.351129 247.520214 
L 244.860455 248.874049 
L 245.794219 251.188745 
L 246.558209 252.368854 
L 246.982647 252.64838 
L 247.23731 252.648316 
L 247.491973 252.355742 
L 248.001299 251.478095 
L 248.255962 251.436289 
L 248.510625 251.783314 
L 249.359502 253.559913 
L 249.699053 253.29111 
L 250.293266 252.687108 
L 250.547929 252.866902 
L 250.972368 253.190145 
L 251.142143 252.991673 
L 251.566581 251.823543 
L 252.160795 250.280115 
L 252.33057 250.314667 
L 252.670121 250.808464 
L 253.09456 251.35034 
L 253.773661 251.94613 
L 254.53765 253.493337 
L 254.877201 254.732008 
L 255.98074 259.643135 
L 256.235404 259.848259 
L 256.574954 259.869606 
L 258.018045 259.081682 
L 258.442483 258.026829 
L 259.036697 256.346878 
L 259.376248 255.91759 
L 259.715798 255.685178 
L 260.479787 254.690225 
L 260.819338 254.537707 
L 261.328664 254.293328 
L 261.668215 253.687919 
L 262.092653 252.784505 
L 262.432204 252.377059 
L 262.686867 252.423538 
L 263.026418 252.831369 
L 263.365968 253.22916 
L 263.790407 253.3959 
L 264.04507 253.853585 
L 265.573048 257.688418 
L 265.827711 257.964043 
L 266.5917 257.996143 
L 267.440577 258.854802 
L 267.610352 258.620913 
L 268.629004 256.192163 
L 268.968555 255.864494 
L 270.581421 253.171677 
L 271.34541 251.402093 
L 271.939623 250.446662 
L 272.364062 249.810515 
L 272.533837 249.844974 
L 272.7885 250.27053 
L 273.212939 251.850836 
L 274.316478 256.620406 
L 274.99558 258.915397 
L 275.250243 259.032919 
L 275.420018 258.892706 
L 275.674681 258.27557 
L 277.457322 252.297675 
L 277.796873 251.813673 
L 278.136424 251.803557 
L 278.391087 252.117677 
L 278.64575 252.887946 
L 279.494627 256.032589 
L 279.74929 256.260731 
L 280.08884 256.158014 
L 280.343503 256.202419 
L 281.022605 256.591852 
L 281.19238 256.306789 
L 281.616818 254.981649 
L 282.126145 253.303965 
L 282.380808 253.189999 
L 282.890134 253.492841 
L 283.229684 252.923865 
L 283.654123 252.363328 
L 283.908786 252.308877 
L 284.248336 252.504044 
L 284.757662 253.011087 
L 285.097213 253.624112 
L 285.521652 255.010752 
L 286.030978 257.58844 
L 289.002046 274.541252 
L 289.935811 277.788963 
L 290.869575 280.243492 
L 291.80334 282.138858 
L 292.652216 283.382684 
L 292.821992 283.404512 
L 293.076655 283.137607 
L 293.840644 281.920082 
L 294.095307 281.867999 
L 295.029071 282.049712 
L 295.283734 281.774507 
L 295.708173 280.917197 
L 296.557049 279.012408 
L 296.8966 278.695485 
L 297.151263 278.681625 
L 297.490814 278.9174 
L 298.00014 279.622326 
L 298.509466 280.260225 
L 299.867669 281.38807 
L 300.716545 282.341556 
L 301.225871 282.563813 
L 301.735198 282.519682 
L 302.668962 282.148288 
L 303.432951 281.692112 
L 303.942277 281.14757 
L 304.451603 280.287652 
L 304.960929 278.893384 
L 305.470255 276.658423 
L 305.894694 273.810232 
L 306.40402 268.855996 
L 308.101773 250.777404 
L 309.629751 236.838753 
L 311.15773 222.202653 
L 312.346157 218.45736 
L 312.515932 218.372638 
L 312.685708 218.36077 
L 313.110146 217.557993 
L 313.195034 217.589882 
L 313.364809 217.321663 
L 313.619472 216.696554 
L 313.874135 216.735697 
L 314.213686 216.046576 
L 314.383461 216.388059 
L 314.553237 216.692384 
L 314.892787 216.207774 
L 314.977675 216.314375 
L 315.232338 216.620277 
L 315.402113 216.63885 
L 315.571889 217.007222 
L 315.911439 217.719939 
L 316.081215 218.006544 
L 316.760316 220.151772 
L 316.845204 219.864045 
L 317.014979 216.972506 
L 317.269642 212.195104 
L 317.35453 211.844627 
L 317.524305 212.36845 
L 317.694081 212.866574 
L 317.778968 212.752766 
L 318.033631 211.230545 
L 318.288294 210.08097 
L 318.373182 210.078844 
L 318.542957 210.767054 
L 318.79762 213.246931 
L 320.580261 235.85033 
L 321.344251 241.298467 
L 322.872229 251.340113 
L 324.230432 261.588139 
L 324.909533 264.876161 
L 325.503747 266.71957 
L 326.013073 267.622389 
L 326.437511 268.001992 
L 328.559703 269.23984 
L 329.153917 270.085153 
L 329.833018 271.498835 
L 331.106333 274.829983 
L 332.464536 278.151851 
L 333.822739 280.783207 
L 334.841391 282.367482 
L 336.029818 283.762401 
L 337.727572 285.32084 
L 339.425325 286.551661 
L 340.868416 287.346063 
L 342.735945 288.099637 
L 344.943024 288.752757 
L 348.76297 289.626934 
L 352.582915 290.305747 
L 357.591288 290.928849 
L 371.76753 292.363814 
L 385.094895 293.715257 
L 395.11164 295.021307 
L 401.647992 295.747319 
L 410.391422 296.75904 
L 419.898842 298.124696 
L 425.925867 299.214861 
L 429.151598 299.94733 
L 435.518174 301.510566 
L 439.507895 302.036174 
L 447.996662 303.141959 
L 457.249419 304.573428 
L 465.059085 306.059183 
L 469.388356 307.131083 
L 473.208302 307.984483 
L 477.28291 308.661313 
L 498.335054 311.642923 
L 506.569158 313.300402 
L 515.567252 315.061356 
L 524.650233 316.548529 
L 529.998157 317.263651 
L 538.317149 318.151678 
L 546.126815 318.788047 
L 553.59693 319.265792 
L 565.990531 319.863571 
L 583.816943 320.463463 
L 611.150774 321.111006 
L 652.236409 321.817828 
L 671.675687 322.118811 
L 671.675687 322.118811 
" clip-path="url(#pe12c043598)" style="fill: none; stroke: #1f77b4; stroke-width: 1.5; stroke-linecap: square"/>
   </g>
   <g id="line2d_14">
    <path d="M 60.654199 328.617892 
L 61.587964 328.541084 
L 63.370605 327.068793 
L 63.964819 326.602208 
L 65.238134 325.479367 
L 66.256786 324.506692 
L 67.614989 323.282196 
L 68.378978 322.617192 
L 68.803416 322.532774 
L 69.567405 322.638219 
L 71.180271 323.141255 
L 73.217575 323.73702 
L 73.896677 323.490182 
L 74.745553 322.590372 
L 75.085104 322.071131 
L 76.867745 318.071417 
L 79.414376 308.222536 
L 81.197017 298.088652 
L 82.045894 290.240027 
L 82.55522 286.546773 
L 83.913422 275.196325 
L 84.252973 272.618913 
L 84.677412 269.461818 
L 85.356513 264.935523 
L 86.120502 259.582649 
L 86.54494 256.769676 
L 87.988031 247.327356 
L 88.242694 246.374506 
L 88.412469 246.195676 
L 89.346234 244.136686 
L 89.516009 243.823528 
L 89.685784 241.498528 
L 90.19511 230.212574 
L 90.449773 229.000946 
L 90.534661 229.006946 
L 90.704436 229.395983 
L 91.213763 231.571955 
L 92.317302 237.801126 
L 93.081291 242.104887 
L 93.166179 242.067675 
L 93.335954 238.271208 
L 94.524382 188.965665 
L 96.137248 137.454796 
L 96.561686 127.628876 
L 97.1559 115.995613 
L 97.410563 112.399287 
L 97.580338 111.329326 
L 99.193204 93.816236 
L 99.447867 92.659724 
L 99.787418 90.32193 
L 99.957193 90.052421 
L 100.381631 88.176317 
L 100.466519 88.330275 
L 100.721182 88.89172 
L 101.060733 88.34052 
L 101.315396 88.632999 
L 101.570059 88.239324 
L 101.739834 88.629813 
L 101.90961 88.963665 
L 102.164273 88.97426 
L 102.928262 91.254743 
L 103.182925 92.177457 
L 103.3527 92.65021 
L 103.777138 94.948405 
L 103.862026 94.883146 
L 104.031802 94.698174 
L 104.286465 95.004496 
L 104.45624 94.30655 
L 104.710903 93.262523 
L 104.795791 93.192762 
L 104.880678 92.92891 
L 105.135341 90.300181 
L 105.644667 84.260954 
L 106.323769 66.318232 
L 106.578432 58.475242 
L 106.748207 57.034535 
L 106.833095 57.02 
L 107.00287 57.776428 
L 107.342421 61.228543 
L 109.719276 88.468958 
L 114.30321 144.219988 
L 116.255627 163.908343 
L 117.95338 178.931995 
L 119.905797 194.148072 
L 121.518663 205.089655 
L 122.027989 207.947223 
L 122.112876 207.85756 
L 122.537315 206.217487 
L 122.70709 206.43171 
L 122.961753 207.444848 
L 126.35726 225.288978 
L 128.90389 235.420755 
L 131.874959 243.977781 
L 132.384285 245.057038 
L 133.6576 247.287623 
L 133.997151 247.692615 
L 134.506477 248.616658 
L 135.694904 249.778722 
L 135.86468 249.902741 
L 136.119343 250.163155 
L 136.458894 250.222467 
L 136.713557 250.428575 
L 137.053107 250.408721 
L 137.477546 250.842382 
L 137.732209 250.83157 
L 137.986872 250.934897 
L 138.326422 250.730792 
L 138.581085 250.767029 
L 138.920636 250.468249 
L 139.260187 250.811438 
L 139.51485 251.247858 
L 140.193951 253.323365 
L 146.220976 276.20966 
L 147.664067 280.606861 
L 147.833842 280.698056 
L 148.343168 280.605312 
L 148.767606 279.937564 
L 149.36182 279.704753 
L 149.701371 279.972309 
L 149.956034 280.108836 
L 150.295585 280.719487 
L 150.974686 282.163363 
L 151.484012 282.740825 
L 151.823563 282.941551 
L 152.163113 283.079908 
L 152.417776 283.27182 
L 152.757327 283.580529 
L 153.01199 283.699366 
L 153.351541 284.215223 
L 153.860867 285.080863 
L 154.455081 284.828631 
L 154.879519 284.352744 
L 155.134182 284.178946 
L 155.388845 284.027288 
L 156.067947 284.434788 
L 156.407497 284.639229 
L 156.66216 284.717499 
L 157.086599 285.261973 
L 157.426149 285.759173 
L 157.595925 285.620552 
L 157.935475 285.254944 
L 158.105251 285.37427 
L 158.444801 285.989072 
L 158.784352 286.572252 
L 159.293678 286.632586 
L 159.548341 285.984744 
L 159.803004 285.463653 
L 160.142555 285.297275 
L 160.736769 285.344434 
L 160.991432 285.303746 
L 161.246095 285.263686 
L 161.500758 285.227405 
L 161.755421 285.512392 
L 162.604298 286.953601 
L 163.62295 288.485298 
L 164.132276 287.864662 
L 164.471826 287.935548 
L 164.811377 288.240294 
L 164.981152 287.983192 
L 165.320703 287.375498 
L 165.575366 287.416543 
L 165.830029 287.704885 
L 167.103344 289.707437 
L 167.188232 289.691105 
L 167.358007 289.297665 
L 167.697558 288.416959 
L 168.546435 287.748464 
L 169.565087 285.964067 
L 169.734862 286.036207 
L 170.074413 286.646989 
L 170.329076 287.028448 
L 170.838402 287.281345 
L 171.687279 288.463056 
L 172.02683 288.315593 
L 172.196605 288.220211 
L 172.536156 287.850152 
L 172.790819 287.949844 
L 173.130369 288.36822 
L 174.149021 289.942758 
L 174.488572 289.947213 
L 175.082786 290.055719 
L 175.252561 289.93191 
L 175.677 289.18862 
L 175.846775 289.253898 
L 176.186326 289.810455 
L 176.356101 290.030533 
L 176.525876 289.90488 
L 176.865427 289.539014 
L 177.035202 289.49775 
L 177.289865 289.033198 
L 177.629416 288.614418 
L 178.138742 288.144987 
L 178.393405 288.383084 
L 178.987619 289.182083 
L 179.32717 289.337823 
L 179.921383 290.099587 
L 180.855148 291.688441 
L 181.364474 291.686311 
L 181.8738 290.962203 
L 183.062227 289.506398 
L 183.486666 289.766959 
L 183.826216 290.029221 
L 184.42043 289.766342 
L 185.439082 287.717988 
L 185.948408 287.38558 
L 186.287959 287.452429 
L 186.712397 286.960248 
L 187.136836 286.997784 
L 187.561274 287.191267 
L 188.0706 287.006439 
L 188.495039 286.076857 
L 188.664814 286.074824 
L 188.919477 286.330469 
L 189.428803 287.003924 
L 189.768354 287.137605 
L 190.023017 287.172299 
L 190.27768 287.16976 
L 190.702118 287.286563 
L 190.956781 287.436042 
L 191.296332 288.020068 
L 191.635883 288.656806 
L 191.805658 288.60981 
L 192.145209 288.404483 
L 192.484759 288.737701 
L 192.909198 289.438225 
L 193.503411 290.525936 
L 193.673187 290.248357 
L 194.606951 287.87935 
L 194.776727 287.858908 
L 195.03139 288.14905 
L 195.625603 289.005311 
L 196.219817 289.350588 
L 196.559368 289.513226 
L 197.153581 289.642632 
L 197.408244 288.931775 
L 197.747795 288.216627 
L 198.087346 287.92128 
L 198.257121 287.982797 
L 198.511784 288.370754 
L 199.445549 290.561678 
L 201.313078 294.714169 
L 203.350382 298.759913 
L 205.387686 302.323068 
L 207.509878 305.583383 
L 208.019204 306.342422 
L 208.104092 306.213015 
L 208.273867 304.094931 
L 209.886733 268.062417 
L 211.160048 249.584292 
L 212.942689 231.730365 
L 213.197352 229.983785 
L 213.536903 228.01999 
L 213.706678 227.723908 
L 215.319544 221.865022 
L 215.574207 221.580361 
L 215.913758 220.874021 
L 216.168421 220.801328 
L 216.507971 220.41382 
L 216.93241 220.90441 
L 217.102185 220.860434 
L 218.3755 222.032098 
L 218.545276 222.14129 
L 218.715051 221.403482 
L 219.394152 216.642515 
L 219.648815 214.669428 
L 219.818591 213.650927 
L 220.243029 206.587064 
L 220.497692 201.506076 
L 221.176794 176.449888 
L 221.516344 159.202479 
L 221.771007 155.158693 
L 221.855895 154.940492 
L 221.940783 155.061743 
L 222.195446 156.543202 
L 223.214098 164.672769 
L 229.495786 215.003601 
L 231.448202 228.030764 
L 233.315731 239.033468 
L 234.504159 244.451208 
L 236.711238 251.418687 
L 237.305452 253.453263 
L 237.814778 254.771542 
L 238.663655 256.713625 
L 238.918318 256.91877 
L 239.172981 256.969907 
L 239.682307 257.780341 
L 240.191633 258.751349 
L 240.616071 259.277569 
L 240.955622 259.029285 
L 241.295173 259.233549 
L 241.634723 258.932776 
L 241.889386 258.913967 
L 242.228937 258.665965 
L 242.908038 259.122781 
L 243.502252 260.455189 
L 244.605792 263.305715 
L 244.945343 263.835648 
L 245.369781 263.938124 
L 245.539556 263.916247 
L 245.879107 263.536069 
L 246.388433 263.734242 
L 246.643096 264.195818 
L 247.491973 266.393862 
L 247.746636 266.345865 
L 248.425737 266.840538 
L 248.850176 267.893421 
L 249.104839 268.492368 
L 249.274614 268.380248 
L 249.614165 267.981267 
L 249.78394 267.824716 
L 250.123491 267.354874 
L 250.293266 267.489915 
L 250.632817 268.297476 
L 251.057255 269.270772 
L 251.651469 268.934018 
L 252.075907 268.155763 
L 252.245683 268.276365 
L 252.585233 268.951051 
L 254.113212 273.155194 
L 254.198099 273.09227 
L 254.452762 272.864507 
L 254.622538 272.978693 
L 254.962088 273.726932 
L 255.810965 275.970289 
L 255.98074 275.907179 
L 256.235404 275.652071 
L 256.574954 275.6391 
L 256.999393 275.123793 
L 257.423831 275.253233 
L 258.442483 276.262098 
L 258.697146 276.370777 
L 259.630911 277.291354 
L 260.225124 276.467402 
L 260.564675 276.085055 
L 261.074001 276.232853 
L 261.498439 276.487969 
L 261.753102 276.479565 
L 262.517092 277.153922 
L 263.196193 278.441815 
L 263.365968 278.30177 
L 263.705519 277.915766 
L 263.960182 278.132951 
L 264.809059 279.650097 
L 265.657935 281.191746 
L 265.827711 280.929825 
L 266.167262 280.234978 
L 266.676588 279.962714 
L 267.270801 280.49667 
L 267.440577 280.63086 
L 267.610352 280.408179 
L 267.949903 279.912795 
L 268.204566 280.03408 
L 268.459229 280.402096 
L 268.798779 280.885099 
L 269.562769 280.502783 
L 269.987207 280.127893 
L 270.836084 277.931085 
L 271.005859 277.690941 
L 271.175634 277.755134 
L 271.430297 278.182403 
L 273.043163 281.696532 
L 273.552489 282.370023 
L 273.722265 282.242912 
L 274.061815 281.931373 
L 274.571141 281.915731 
L 274.825804 282.098762 
L 274.99558 281.820479 
L 275.844457 279.893793 
L 276.43867 279.307509 
L 276.608446 279.447125 
L 276.947996 280.148317 
L 277.54221 281.374931 
L 277.966648 281.966898 
L 278.391087 281.739797 
L 278.64575 282.096877 
L 279.070188 282.948358 
L 279.239964 282.691018 
L 280.003953 280.882155 
L 280.173728 280.671128 
L 280.343503 280.736554 
L 280.598166 281.133938 
L 281.022605 281.901127 
L 281.531931 281.863374 
L 281.786594 281.318828 
L 282.041257 280.93127 
L 282.29592 280.937303 
L 282.805246 281.153947 
L 283.314572 280.149682 
L 283.654123 280.100116 
L 283.908786 280.428273 
L 284.418112 281.744804 
L 286.710079 287.980473 
L 288.747383 292.830012 
L 290.784687 297.100822 
L 292.397553 300.075614 
L 292.482441 300.064146 
L 292.652216 299.626614 
L 292.991767 298.551657 
L 293.161542 298.447588 
L 293.416205 298.679201 
L 294.265082 300.153606 
L 296.302386 303.550282 
L 297.915252 305.928649 
L 298.085028 305.932152 
L 298.594354 305.471759 
L 298.849017 305.651937 
L 299.697893 306.778054 
L 301.395647 308.91779 
L 301.904973 309.307212 
L 302.584074 309.542285 
L 303.0934 309.42073 
L 304.19694 308.33157 
L 305.30048 306.289054 
L 305.470255 305.990822 
L 306.828458 301.808298 
L 308.526212 294.941751 
L 310.648403 276.549274 
L 310.987954 273.945712 
L 311.327505 271.387683 
L 311.582168 270.134695 
L 312.515932 263.054266 
L 312.855483 260.731886 
L 313.279921 257.885255 
L 314.383461 250.406634 
L 314.553237 249.932237 
L 315.996327 242.797357 
L 316.25099 242.241514 
L 316.420765 242.01659 
L 316.675428 241.591367 
L 316.845204 241.304304 
L 317.014979 239.005499 
L 317.524305 227.878579 
L 317.778968 226.862523 
L 317.863856 226.873144 
L 318.033631 227.225094 
L 318.542957 229.392525 
L 319.391834 234.168216 
L 320.665149 240.595351 
L 322.193127 247.233754 
L 323.805993 253.497697 
L 325.673522 259.62211 
L 326.946837 263.450337 
L 328.474815 268.959639 
L 330.597007 276.315144 
L 331.95521 280.37359 
L 333.05875 283.44236 
L 335.011166 288.62204 
L 337.048471 293.395017 
L 339.085775 297.598401 
L 341.123079 301.300167 
L 343.160383 304.560177 
L 345.282575 307.543035 
L 347.489655 310.253552 
L 349.696734 312.615459 
L 351.988701 314.747233 
L 354.365556 316.658514 
L 356.912187 318.415056 
L 359.543704 319.959572 
L 362.344998 321.347678 
L 365.400954 322.609448 
L 368.711573 323.730491 
L 372.361743 324.725687 
L 376.436352 325.599224 
L 381.020286 326.349921 
L 386.36821 326.993228 
L 392.734786 327.525712 
L 400.544452 327.946877 
L 410.730973 328.26244 
L 425.331653 328.474919 
L 450.543293 328.588225 
L 526.60265 328.617634 
L 671.675687 328.617892 
L 671.675687 328.617892 
" clip-path="url(#pe12c043598)" style="fill: none; stroke: #ff7f0e; stroke-width: 1.5; stroke-linecap: square"/>
   </g>
   <g id="patch_3">
    <path d="M 30.103125 342.2 
L 30.103125 43.44 
" style="fill: none; stroke: #000000; stroke-width: 0.8; stroke-linejoin: miter; stroke-linecap: square"/>
   </g>
   <g id="patch_4">
    <path d="M 702.226761 342.2 
L 702.226761 43.44 
" style="fill: none; stroke: #000000; stroke-width: 0.8; stroke-linejoin: miter; stroke-linecap: square"/>
   </g>
   <g id="patch_5">
    <path d="M 30.103125 342.2 
L 702.226761 342.2 
" style="fill: none; stroke: #000000; stroke-width: 0.8; stroke-linejoin: miter; stroke-linecap: square"/>
   </g>
   <g id="patch_6">
    <path d="M 30.103125 43.44 
L 702.226761 43.44 
" style="fill: none; stroke: #000000; stroke-width: 0.8; stroke-linejoin: miter; stroke-linecap: square"/>
   </g>
   <g id="text_13">
    <!-- 1 transformation(s) -->
    <g transform="translate(308.050256 37.44) scale(0.12 -0.12)">
     <defs>
      <path id="DejaVuSans-20" transform="scale(0.015625)"/>
      <path id="DejaVuSans-74" d="M 1172 4494 
L 1172 3500 
L 2356 3500 
L 2356 3053 
L 1172 3053 
L 1172 1153 
Q 1172 725 1289 603 
Q 1406 481 1766 481 
L 2356 481 
L 2356 0 
L 1766 0 
Q 1100 0 847 248 
Q 594 497 594 1153 
L 594 3053 
L 172 3053 
L 172 3500 
L 594 3500 
L 594 4494 
L 1172 4494 
z
" transform="scale(0.015625)"/>
      <path id="DejaVuSans-72" d="M 2631 2963 
Q 2534 3019 2420 3045 
Q 2306 3072 2169 3072 
Q 1681 3072 1420 2755 
Q 1159 2438 1159 1844 
L 1159 0 
L 581 0 
L 581 3500 
L 1159 3500 
L 1159 2956 
Q 1341 3275 1631 3429 
Q 1922 3584 2338 3584 
Q 2397 3584 2469 3576 
Q 2541 3569 2628 3553 
L 2631 2963 
z
" transform="scale(0.015625)"/>
      <path id="DejaVuSans-61" d="M 2194 1759 
Q 1497 1759 1228 1600 
Q 959 1441 959 1056 
Q 959 750 1161 570 
Q 1363 391 1709 391 
Q 2188 391 2477 730 
Q 2766 1069 2766 1631 
L 2766 1759 
L 2194 1759 
z
M 3341 1997 
L 3341 0 
L 2766 0 
L 2766 531 
Q 2569 213 2275 61 
Q 1981 -91 1556 -91 
Q 1019 -91 701 211 
Q 384 513 384 1019 
Q 384 1609 779 1909 
Q 1175 2209 1959 2209 
L 2766 2209 
L 2766 2266 
Q 2766 2663 2505 2880 
Q 2244 3097 1772 3097 
Q 1472 3097 1187 3025 
Q 903 2953 641 2809 
L 641 3341 
Q 956 3463 1253 3523 
Q 1550 3584 1831 3584 
Q 2591 3584 2966 3190 
Q 3341 2797 3341 1997 
z
" transform="scale(0.015625)"/>
      <path id="DejaVuSans-6e" d="M 3513 2113 
L 3513 0 
L 2938 0 
L 2938 2094 
Q 2938 2591 2744 2837 
Q 2550 3084 2163 3084 
Q 1697 3084 1428 2787 
Q 1159 2491 1159 1978 
L 1159 0 
L 581 0 
L 581 3500 
L 1159 3500 
L 1159 2956 
Q 1366 3272 1645 3428 
Q 1925 3584 2291 3584 
Q 2894 3584 3203 3211 
Q 3513 2838 3513 2113 
z
" transform="scale(0.015625)"/>
      <path id="DejaVuSans-73" d="M 2834 3397 
L 2834 2853 
Q 2591 2978 2328 3040 
Q 2066 3103 1784 3103 
Q 1356 3103 1142 2972 
Q 928 2841 928 2578 
Q 928 2378 1081 2264 
Q 1234 2150 1697 2047 
L 1894 2003 
Q 2506 1872 2764 1633 
Q 3022 1394 3022 966 
Q 3022 478 2636 193 
Q 2250 -91 1575 -91 
Q 1294 -91 989 -36 
Q 684 19 347 128 
L 347 722 
Q 666 556 975 473 
Q 1284 391 1588 391 
Q 1994 391 2212 530 
Q 2431 669 2431 922 
Q 2431 1156 2273 1281 
Q 2116 1406 1581 1522 
L 1381 1569 
Q 847 1681 609 1914 
Q 372 2147 372 2553 
Q 372 3047 722 3315 
Q 1072 3584 1716 3584 
Q 2034 3584 2315 3537 
Q 2597 3491 2834 3397 
z
" transform="scale(0.015625)"/>
      <path id="DejaVuSans-66" d="M 2375 4863 
L 2375 4384 
L 1825 4384 
Q 1516 4384 1395 4259 
Q 1275 4134 1275 3809 
L 1275 3500 
L 2222 3500 
L 2222 3053 
L 1275 3053 
L 1275 0 
L 697 0 
L 697 3053 
L 147 3053 
L 147 3500 
L 697 3500 
L 697 3744 
Q 697 4328 969 4595 
Q 1241 4863 1831 4863 
L 2375 4863 
z
" transform="scale(0.015625)"/>
      <path id="DejaVuSans-6f" d="M 1959 3097 
Q 1497 3097 1228 2736 
Q 959 2375 959 1747 
Q 959 1119 1226 758 
Q 1494 397 1959 397 
Q 2419 397 2687 759 
Q 2956 1122 2956 1747 
Q 2956 2369 2687 2733 
Q 2419 3097 1959 3097 
z
M 1959 3584 
Q 2709 3584 3137 3096 
Q 3566 2609 3566 1747 
Q 3566 888 3137 398 
Q 2709 -91 1959 -91 
Q 1206 -91 779 398 
Q 353 888 353 1747 
Q 353 2609 779 3096 
Q 1206 3584 1959 3584 
z
" transform="scale(0.015625)"/>
      <path id="DejaVuSans-6d" d="M 3328 2828 
Q 3544 3216 3844 3400 
Q 4144 3584 4550 3584 
Q 5097 3584 5394 3201 
Q 5691 2819 5691 2113 
L 5691 0 
L 5113 0 
L 5113 2094 
Q 5113 2597 4934 2840 
Q 4756 3084 4391 3084 
Q 3944 3084 3684 2787 
Q 3425 2491 3425 1978 
L 3425 0 
L 2847 0 
L 2847 2094 
Q 2847 2600 2669 2842 
Q 2491 3084 2119 3084 
Q 1678 3084 1418 2786 
Q 1159 2488 1159 1978 
L 1159 0 
L 581 0 
L 581 3500 
L 1159 3500 
L 1159 2956 
Q 1356 3278 1631 3431 
Q 1906 3584 2284 3584 
Q 2666 3584 2933 3390 
Q 3200 3197 3328 2828 
z
" transform="scale(0.015625)"/>
      <path id="DejaVuSans-69" d="M 603 3500 
L 1178 3500 
L 1178 0 
L 603 0 
L 603 3500 
z
M 603 4863 
L 1178 4863 
L 1178 4134 
L 603 4134 
L 603 4863 
z
" transform="scale(0.015625)"/>
      <path id="DejaVuSans-28" d="M 1984 4856 
Q 1566 4138 1362 3434 
Q 1159 2731 1159 2009 
Q 1159 1288 1364 580 
Q 1569 -128 1984 -844 
L 1484 -844 
Q 1016 -109 783 600 
Q 550 1309 550 2009 
Q 550 2706 781 3412 
Q 1013 4119 1484 4856 
L 1984 4856 
z
" transform="scale(0.015625)"/>
      <path id="DejaVuSans-29" d="M 513 4856 
L 1013 4856 
Q 1481 4119 1714 3412 
Q 1947 2706 1947 2009 
Q 1947 1309 1714 600 
Q 1481 -109 1013 -844 
L 513 -844 
Q 928 -128 1133 580 
Q 1338 1288 1338 2009 
Q 1338 2731 1133 3434 
Q 928 4138 513 4856 
z
" transform="scale(0.015625)"/>
     </defs>
     <use xlink:href="#DejaVuSans-31"/>
     <use xlink:href="#DejaVuSans-20" x="63.623047"/>
     <use xlink:href="#DejaVuSans-74" x="95.410156"/>
     <use xlink:href="#DejaVuSans-72" x="134.619141"/>
     <use xlink:href="#DejaVuSans-61" x="175.732422"/>
     <use xlink:href="#DejaVuSans-6e" x="237.011719"/>
     <use xlink:href="#DejaVuSans-73" x="300.390625"/>
     <use xlink:href="#DejaVuSans-66" x="352.490234"/>
     <use xlink:href="#DejaVuSans-6f" x="387.695312"/>
     <use xlink:href="#DejaVuSans-72" x="448.876953"/>
     <use xlink:href="#DejaVuSans-6d" x="488.240234"/>
     <use xlink:href="#DejaVuSans-61" x="585.652344"/>
     <use xlink:href="#DejaVuSans-74" x="646.931641"/>
     <use xlink:href="#DejaVuSans-69" x="686.140625"/>
     <use xlink:href="#DejaVuSans-6f" x="713.923828"/>
     <use xlink:href="#DejaVuSans-6e" x="775.105469"/>
     <use xlink:href="#DejaVuSans-28" x="838.484375"/>
     <use xlink:href="#DejaVuSans-73" x="877.498047"/>
     <use xlink:href="#DejaVuSans-29" x="929.597656"/>
    </g>
   </g>
   <g id="legend_1">
    <g id="patch_7">
     <path d="M 613.833011 80.79625 
L 695.226761 80.79625 
Q 697.226761 80.79625 697.226761 78.79625 
L 697.226761 50.44 
Q 697.226761 48.44 695.226761 48.44 
L 613.833011 48.44 
Q 611.833011 48.44 611.833011 50.44 
L 611.833011 78.79625 
Q 611.833011 80.79625 613.833011 80.79625 
z
" style="fill: #ffffff; opacity: 0.8; stroke: #cccccc; stroke-linejoin: miter"/>
    </g>
    <g id="line2d_15">
     <path d="M 615.833011 56.538437 
L 625.833011 56.538437 
L 635.833011 56.538437 
" style="fill: none; stroke: #1f77b4; stroke-width: 1.5; stroke-linecap: square"/>
    </g>
    <g id="text_14">
     <!-- observed -->
     <g transform="translate(643.833011 60.038437) scale(0.1 -0.1)">
      <defs>
       <path id="DejaVuSans-62" d="M 3116 1747 
Q 3116 2381 2855 2742 
Q 2594 3103 2138 3103 
Q 1681 3103 1420 2742 
Q 1159 2381 1159 1747 
Q 1159 1113 1420 752 
Q 1681 391 2138 391 
Q 2594 391 2855 752 
Q 3116 1113 3116 1747 
z
M 1159 2969 
Q 1341 3281 1617 3432 
Q 1894 3584 2278 3584 
Q 2916 3584 3314 3078 
Q 3713 2572 3713 1747 
Q 3713 922 3314 415 
Q 2916 -91 2278 -91 
Q 1894 -91 1617 61 
Q 1341 213 1159 525 
L 1159 0 
L 581 0 
L 581 4863 
L 1159 4863 
L 1159 2969 
z
" transform="scale(0.015625)"/>
       <path id="DejaVuSans-65" d="M 3597 1894 
L 3597 1613 
L 953 1613 
Q 991 1019 1311 708 
Q 1631 397 2203 397 
Q 2534 397 2845 478 
Q 3156 559 3463 722 
L 3463 178 
Q 3153 47 2828 -22 
Q 2503 -91 2169 -91 
Q 1331 -91 842 396 
Q 353 884 353 1716 
Q 353 2575 817 3079 
Q 1281 3584 2069 3584 
Q 2775 3584 3186 3129 
Q 3597 2675 3597 1894 
z
M 3022 2063 
Q 3016 2534 2758 2815 
Q 2500 3097 2075 3097 
Q 1594 3097 1305 2825 
Q 1016 2553 972 2059 
L 3022 2063 
z
" transform="scale(0.015625)"/>
       <path id="DejaVuSans-76" d="M 191 3500 
L 800 3500 
L 1894 563 
L 2988 3500 
L 3597 3500 
L 2284 0 
L 1503 0 
L 191 3500 
z
" transform="scale(0.015625)"/>
       <path id="DejaVuSans-64" d="M 2906 2969 
L 2906 4863 
L 3481 4863 
L 3481 0 
L 2906 0 
L 2906 525 
Q 2725 213 2448 61 
Q 2172 -91 1784 -91 
Q 1150 -91 751 415 
Q 353 922 353 1747 
Q 353 2572 751 3078 
Q 1150 3584 1784 3584 
Q 2172 3584 2448 3432 
Q 2725 3281 2906 2969 
z
M 947 1747 
Q 947 1113 1208 752 
Q 1469 391 1925 391 
Q 2381 391 2643 752 
Q 2906 1113 2906 1747 
Q 2906 2381 2643 2742 
Q 2381 3103 1925 3103 
Q 1469 3103 1208 2742 
Q 947 2381 947 1747 
z
" transform="scale(0.015625)"/>
      </defs>
      <use xlink:href="#DejaVuSans-6f"/>
      <use xlink:href="#DejaVuSans-62" x="61.181641"/>
      <use xlink:href="#DejaVuSans-73" x="124.658203"/>
      <use xlink:href="#DejaVuSans-65" x="176.757812"/>
      <use xlink:href="#DejaVuSans-72" x="238.28125"/>
      <use xlink:href="#DejaVuSans-76" x="279.394531"/>
      <use xlink:href="#DejaVuSans-65" x="338.574219"/>
      <use xlink:href="#DejaVuSans-64" x="400.097656"/>
     </g>
    </g>
    <g id="line2d_16">
     <path d="M 615.833011 71.216563 
L 625.833011 71.216563 
L 635.833011 71.216563 
" style="fill: none; stroke: #ff7f0e; stroke-width: 1.5; stroke-linecap: square"/>
    </g>
    <g id="text_15">
     <!-- simulated -->
     <g transform="translate(643.833011 74.716563) scale(0.1 -0.1)">
      <defs>
       <path id="DejaVuSans-75" d="M 544 1381 
L 544 3500 
L 1119 3500 
L 1119 1403 
Q 1119 906 1312 657 
Q 1506 409 1894 409 
Q 2359 409 2629 706 
Q 2900 1003 2900 1516 
L 2900 3500 
L 3475 3500 
L 3475 0 
L 2900 0 
L 2900 538 
Q 2691 219 2414 64 
Q 2138 -91 1772 -91 
Q 1169 -91 856 284 
Q 544 659 544 1381 
z
M 1991 3584 
L 1991 3584 
z
" transform="scale(0.015625)"/>
       <path id="DejaVuSans-6c" d="M 603 4863 
L 1178 4863 
L 1178 0 
L 603 0 
L 603 4863 
z
" transform="scale(0.015625)"/>
      </defs>
      <use xlink:href="#DejaVuSans-73"/>
      <use xlink:href="#DejaVuSans-69" x="52.099609"/>
      <use xlink:href="#DejaVuSans-6d" x="79.882812"/>
      <use xlink:href="#DejaVuSans-75" x="177.294922"/>
      <use xlink:href="#DejaVuSans-6c" x="240.673828"/>
      <use xlink:href="#DejaVuSans-61" x="268.457031"/>
      <use xlink:href="#DejaVuSans-74" x="329.736328"/>
      <use xlink:href="#DejaVuSans-65" x="368.945312"/>
      <use xlink:href="#DejaVuSans-64" x="430.46875"/>
     </g>
    </g>
   </g>
  </g>
  <g id="axes_2">
   <g id="patch_8">
    <path d="M 30.103125 684.92 
L 702.226761 684.92 
L 702.226761 386.16 
L 30.103125 386.16 
z
" style="fill: #ffffff"/>
   </g>
   <g id="matplotlib.axis_3">
    <g id="xtick_7">
     <g id="line2d_17">
      <g>
       <use xlink:href="#m32093eade7" x="60.484424" y="684.92" style="stroke: #000000; stroke-width: 0.8"/>
      </g>
     </g>
     <g id="text_16">
      <!-- 2014-07-01 -->
      <g transform="translate(31.426612 699.518437) scale(0.1 -0.1)">
       <use xlink:href="#DejaVuSans-32"/>
       <use xlink:href="#DejaVuSans-30" x="63.623047"/>
       <use xlink:href="#DejaVuSans-31" x="127.246094"/>
       <use xlink:href="#DejaVuSans-34" x="190.869141"/>
       <use xlink:href="#DejaVuSans-2d" x="254.492188"/>
       <use xlink:href="#DejaVuSans-30" x="290.576172"/>
       <use xlink:href="#DejaVuSans-37" x="354.199219"/>
       <use xlink:href="#DejaVuSans-2d" x="417.822266"/>
       <use xlink:href="#DejaVuSans-30" x="453.90625"/>
       <use xlink:href="#DejaVuSans-31" x="517.529297"/>
      </g>
     </g>
    </g>
    <g id="xtick_8">
     <g id="line2d_18">
      <g>
       <use xlink:href="#m32093eade7" x="182.722677" y="684.92" style="stroke: #000000; stroke-width: 0.8"/>
      </g>
     </g>
     <g id="text_17">
      <!-- 2014-07-02 -->
      <g transform="translate(153.664864 699.518437) scale(0.1 -0.1)">
       <use xlink:href="#DejaVuSans-32"/>
       <use xlink:href="#DejaVuSans-30" x="63.623047"/>
       <use xlink:href="#DejaVuSans-31" x="127.246094"/>
       <use xlink:href="#DejaVuSans-34" x="190.869141"/>
       <use xlink:href="#DejaVuSans-2d" x="254.492188"/>
       <use xlink:href="#DejaVuSans-30" x="290.576172"/>
       <use xlink:href="#DejaVuSans-37" x="354.199219"/>
       <use xlink:href="#DejaVuSans-2d" x="417.822266"/>
       <use xlink:href="#DejaVuSans-30" x="453.90625"/>
       <use xlink:href="#DejaVuSans-32" x="517.529297"/>
      </g>
     </g>
    </g>
    <g id="xtick_9">
     <g id="line2d_19">
      <g>
       <use xlink:href="#m32093eade7" x="304.960929" y="684.92" style="stroke: #000000; stroke-width: 0.8"/>
      </g>
     </g>
     <g id="text_18">
      <!-- 2014-07-03 -->
      <g transform="translate(275.903117 699.518437) scale(0.1 -0.1)">
       <use xlink:href="#DejaVuSans-32"/>
       <use xlink:href="#DejaVuSans-30" x="63.623047"/>
       <use xlink:href="#DejaVuSans-31" x="127.246094"/>
       <use xlink:href="#DejaVuSans-34" x="190.869141"/>
       <use xlink:href="#DejaVuSans-2d" x="254.492188"/>
       <use xlink:href="#DejaVuSans-30" x="290.576172"/>
       <use xlink:href="#DejaVuSans-37" x="354.199219"/>
       <use xlink:href="#DejaVuSans-2d" x="417.822266"/>
       <use xlink:href="#DejaVuSans-30" x="453.90625"/>
       <use xlink:href="#DejaVuSans-33" x="517.529297"/>
      </g>
     </g>
    </g>
    <g id="xtick_10">
     <g id="line2d_20">
      <g>
       <use xlink:href="#m32093eade7" x="427.199182" y="684.92" style="stroke: #000000; stroke-width: 0.8"/>
      </g>
     </g>
     <g id="text_19">
      <!-- 2014-07-04 -->
      <g transform="translate(398.141369 699.518437) scale(0.1 -0.1)">
       <use xlink:href="#DejaVuSans-32"/>
       <use xlink:href="#DejaVuSans-30" x="63.623047"/>
       <use xlink:href="#DejaVuSans-31" x="127.246094"/>
       <use xlink:href="#DejaVuSans-34" x="190.869141"/>
       <use xlink:href="#DejaVuSans-2d" x="254.492188"/>
       <use xlink:href="#DejaVuSans-30" x="290.576172"/>
       <use xlink:href="#DejaVuSans-37" x="354.199219"/>
       <use xlink:href="#DejaVuSans-2d" x="417.822266"/>
       <use xlink:href="#DejaVuSans-30" x="453.90625"/>
       <use xlink:href="#DejaVuSans-34" x="517.529297"/>
      </g>
     </g>
    </g>
    <g id="xtick_11">
     <g id="line2d_21">
      <g>
       <use xlink:href="#m32093eade7" x="549.437434" y="684.92" style="stroke: #000000; stroke-width: 0.8"/>
      </g>
     </g>
     <g id="text_20">
      <!-- 2014-07-05 -->
      <g transform="translate(520.379622 699.518437) scale(0.1 -0.1)">
       <use xlink:href="#DejaVuSans-32"/>
       <use xlink:href="#DejaVuSans-30" x="63.623047"/>
       <use xlink:href="#DejaVuSans-31" x="127.246094"/>
       <use xlink:href="#DejaVuSans-34" x="190.869141"/>
       <use xlink:href="#DejaVuSans-2d" x="254.492188"/>
       <use xlink:href="#DejaVuSans-30" x="290.576172"/>
       <use xlink:href="#DejaVuSans-37" x="354.199219"/>
       <use xlink:href="#DejaVuSans-2d" x="417.822266"/>
       <use xlink:href="#DejaVuSans-30" x="453.90625"/>
       <use xlink:href="#DejaVuSans-35" x="517.529297"/>
      </g>
     </g>
    </g>
    <g id="xtick_12">
     <g id="line2d_22">
      <g>
       <use xlink:href="#m32093eade7" x="671.675687" y="684.92" style="stroke: #000000; stroke-width: 0.8"/>
      </g>
     </g>
     <g id="text_21">
      <!-- 2014-07-06 -->
      <g transform="translate(642.617874 699.518437) scale(0.1 -0.1)">
       <use xlink:href="#DejaVuSans-32"/>
       <use xlink:href="#DejaVuSans-30" x="63.623047"/>
       <use xlink:href="#DejaVuSans-31" x="127.246094"/>
       <use xlink:href="#DejaVuSans-34" x="190.869141"/>
       <use xlink:href="#DejaVuSans-2d" x="254.492188"/>
       <use xlink:href="#DejaVuSans-30" x="290.576172"/>
       <use xlink:href="#DejaVuSans-37" x="354.199219"/>
       <use xlink:href="#DejaVuSans-2d" x="417.822266"/>
       <use xlink:href="#DejaVuSans-30" x="453.90625"/>
       <use xlink:href="#DejaVuSans-36" x="517.529297"/>
      </g>
     </g>
    </g>
   </g>
   <g id="matplotlib.axis_4">
    <g id="ytick_7">
     <g id="line2d_23">
      <g>
       <use xlink:href="#m390780d188" x="30.103125" y="671.339512" style="stroke: #000000; stroke-width: 0.8"/>
      </g>
     </g>
     <g id="text_22">
      <!-- 0.0 -->
      <g transform="translate(7.2 675.138731) scale(0.1 -0.1)">
       <use xlink:href="#DejaVuSans-30"/>
       <use xlink:href="#DejaVuSans-2e" x="63.623047"/>
       <use xlink:href="#DejaVuSans-30" x="95.410156"/>
      </g>
     </g>
    </g>
    <g id="ytick_8">
     <g id="line2d_24">
      <g>
       <use xlink:href="#m390780d188" x="30.103125" y="613.125077" style="stroke: #000000; stroke-width: 0.8"/>
      </g>
     </g>
     <g id="text_23">
      <!-- 0.5 -->
      <g transform="translate(7.2 616.924296) scale(0.1 -0.1)">
       <use xlink:href="#DejaVuSans-30"/>
       <use xlink:href="#DejaVuSans-2e" x="63.623047"/>
       <use xlink:href="#DejaVuSans-35" x="95.410156"/>
      </g>
     </g>
    </g>
    <g id="ytick_9">
     <g id="line2d_25">
      <g>
       <use xlink:href="#m390780d188" x="30.103125" y="554.910642" style="stroke: #000000; stroke-width: 0.8"/>
      </g>
     </g>
     <g id="text_24">
      <!-- 1.0 -->
      <g transform="translate(7.2 558.709861) scale(0.1 -0.1)">
       <use xlink:href="#DejaVuSans-31"/>
       <use xlink:href="#DejaVuSans-2e" x="63.623047"/>
       <use xlink:href="#DejaVuSans-30" x="95.410156"/>
      </g>
     </g>
    </g>
    <g id="ytick_10">
     <g id="line2d_26">
      <g>
       <use xlink:href="#m390780d188" x="30.103125" y="496.696207" style="stroke: #000000; stroke-width: 0.8"/>
      </g>
     </g>
     <g id="text_25">
      <!-- 1.5 -->
      <g transform="translate(7.2 500.495426) scale(0.1 -0.1)">
       <use xlink:href="#DejaVuSans-31"/>
       <use xlink:href="#DejaVuSans-2e" x="63.623047"/>
       <use xlink:href="#DejaVuSans-35" x="95.410156"/>
      </g>
     </g>
    </g>
    <g id="ytick_11">
     <g id="line2d_27">
      <g>
       <use xlink:href="#m390780d188" x="30.103125" y="438.481772" style="stroke: #000000; stroke-width: 0.8"/>
      </g>
     </g>
     <g id="text_26">
      <!-- 2.0 -->
      <g transform="translate(7.2 442.28099) scale(0.1 -0.1)">
       <use xlink:href="#DejaVuSans-32"/>
       <use xlink:href="#DejaVuSans-2e" x="63.623047"/>
       <use xlink:href="#DejaVuSans-30" x="95.410156"/>
      </g>
     </g>
    </g>
   </g>
   <g id="line2d_28">
    <path d="M 60.654199 671.339512 
L 75.085104 671.237669 
L 76.188644 670.986412 
L 76.867745 670.637283 
L 77.377071 670.151177 
L 77.80151 669.409341 
L 78.141061 668.336385 
L 78.395724 666.904782 
L 78.735274 663.223815 
L 79.329488 650.883476 
L 79.669039 639.645726 
L 81.112129 583.150737 
L 81.536568 574.257614 
L 82.130781 567.314734 
L 82.470332 564.153068 
L 83.149433 557.566549 
L 83.743647 554.043637 
L 84.422748 551.322983 
L 84.762299 550.596077 
L 85.016962 549.493719 
L 85.186738 549.444989 
L 85.271625 549.476051 
L 85.441401 548.988717 
L 86.290277 544.467321 
L 86.629828 543.317121 
L 86.969379 541.920104 
L 87.139154 541.642169 
L 87.478705 540.359851 
L 87.818256 540.360628 
L 87.988031 540.124956 
L 88.072919 540.160834 
L 88.242694 540.690847 
L 88.497357 541.577879 
L 88.75202 542.111237 
L 89.431121 545.375215 
L 89.516009 545.180736 
L 89.685784 541.885613 
L 89.940447 536.246426 
L 90.025335 535.812445 
L 90.110223 535.947477 
L 90.364886 537.086005 
L 90.449773 537.10663 
L 90.619549 536.47248 
L 90.9591 535.067093 
L 91.043987 535.141084 
L 91.213763 536.111504 
L 91.468426 538.988913 
L 93.081291 562.237155 
L 93.166179 561.770107 
L 93.335954 555.868501 
L 93.675505 540.446666 
L 93.84528 534.985593 
L 94.694157 476.678888 
L 95.288371 432.223466 
L 95.627922 422.011473 
L 96.137248 408.477473 
L 96.307023 406.325055 
L 96.646574 401.144734 
L 96.816349 401.168746 
L 96.986124 400.412651 
L 97.1559 399.74 
L 97.240787 400.073411 
L 97.919889 409.863137 
L 99.023429 432.969761 
L 100.042081 451.932468 
L 100.466519 458.567433 
L 101.315396 478.471038 
L 102.843374 500.640553 
L 103.098037 502.470871 
L 103.3527 503.848541 
L 103.692251 506.451734 
L 103.862026 506.482796 
L 103.946914 506.708489 
L 104.286465 508.603499 
L 104.541128 507.836454 
L 104.710903 508.206534 
L 104.795791 507.958454 
L 104.965566 505.419856 
L 105.474892 496.938652 
L 105.814443 485.417998 
L 105.984218 480.5956 
L 106.238881 460.486788 
L 106.493544 443.945815 
L 106.748207 439.516523 
L 107.087758 437.426854 
L 107.172646 437.308768 
L 107.257533 437.426854 
L 107.427309 438.739679 
L 107.681972 445.056181 
L 108.021522 457.986427 
L 108.700624 492.427444 
L 109.379725 510.330333 
L 109.889051 521.525168 
L 110.398377 528.87563 
L 110.907703 534.356717 
L 111.671692 541.001468 
L 112.690344 548.094911 
L 113.284558 550.686501 
L 113.96366 552.449782 
L 114.557873 553.446587 
L 115.321862 554.213882 
L 116.255627 554.726129 
L 117.189391 554.966097 
L 119.396471 555.287787 
L 119.820909 555.765252 
L 120.330235 556.795111 
L 121.773326 559.853035 
L 121.943101 559.938643 
L 122.112876 559.157843 
L 122.537315 556.253578 
L 122.70709 556.020418 
L 123.216416 556.071966 
L 123.471079 555.481703 
L 123.895518 554.480075 
L 124.150181 554.295729 
L 124.404844 554.526377 
L 124.829282 555.329238 
L 125.763046 557.507353 
L 126.611923 558.771448 
L 127.206137 559.310184 
L 127.715463 559.571963 
L 128.988778 559.828045 
L 130.516756 559.510179 
L 131.195858 559.284188 
L 131.874959 558.966488 
L 132.299397 558.726465 
L 132.638948 558.512167 
L 135.015803 556.901427 
L 135.355354 556.649703 
L 135.610017 556.420645 
L 135.949567 556.15042 
L 136.20423 555.868709 
L 136.543781 555.522502 
L 136.798444 555.190708 
L 137.053107 554.877026 
L 137.392658 554.745435 
L 138.241535 553.673654 
L 138.581085 553.401979 
L 138.920636 552.943736 
L 139.260187 552.978143 
L 139.51485 553.137062 
L 140.024176 553.885745 
L 140.448614 555.018929 
L 141.127716 557.509845 
L 142.740582 563.522062 
L 143.589458 565.787937 
L 144.523223 567.630053 
L 145.626762 569.192298 
L 146.730302 570.315655 
L 147.664067 571.013733 
L 147.91873 570.927841 
L 148.25828 570.627608 
L 149.276933 568.832634 
L 149.701371 568.496093 
L 150.635135 567.25458 
L 151.314237 566.877657 
L 151.738675 566.876221 
L 152.417776 567.387018 
L 152.927103 567.902235 
L 153.351541 568.402539 
L 153.945755 569.166107 
L 154.539968 569.161062 
L 154.794631 569.086335 
L 156.577273 569.572406 
L 156.831936 569.841313 
L 157.171486 570.606588 
L 158.105251 573.641951 
L 158.614577 576.946498 
L 159.463454 582.124168 
L 160.142555 584.165127 
L 160.651881 585.757282 
L 160.906544 585.964605 
L 161.076319 585.895625 
L 161.330982 585.511769 
L 161.840308 584.684848 
L 162.094971 584.583723 
L 162.349635 584.684307 
L 162.689185 585.038148 
L 163.113624 585.879594 
L 165.235815 591.263872 
L 166.339355 590.89339 
L 166.763794 590.577009 
L 167.27312 589.957855 
L 167.952221 588.698709 
L 168.206884 588.770646 
L 168.631323 589.002356 
L 168.885986 588.67111 
L 169.140649 587.957146 
L 170.244188 583.67365 
L 171.008177 581.98341 
L 171.177953 582.031523 
L 171.432616 582.510647 
L 172.790819 586.417345 
L 173.979246 590.284597 
L 174.318797 590.590805 
L 174.91301 590.854881 
L 175.507224 591.314741 
L 175.846775 591.379925 
L 176.101438 591.680588 
L 176.525876 592.203459 
L 176.695652 592.065075 
L 177.035202 591.27694 
L 178.308517 587.277507 
L 179.66672 585.752563 
L 179.836496 585.838914 
L 180.091159 586.292208 
L 180.430709 587.388466 
L 181.449361 591.051899 
L 182.043575 592.119052 
L 182.637789 592.757511 
L 182.892452 592.582874 
L 183.401778 591.731477 
L 183.826216 590.526925 
L 184.590205 586.921972 
L 185.099532 584.922026 
L 185.52397 583.874145 
L 186.372847 582.644937 
L 187.221723 580.310782 
L 187.561274 580.187887 
L 187.900825 580.264251 
L 188.155488 580.236395 
L 188.495039 580.054402 
L 188.664814 580.204029 
L 189.004365 581.031713 
L 189.513691 582.371457 
L 189.938129 582.769803 
L 190.362567 583.101847 
L 190.787006 583.917192 
L 191.211444 585.202231 
L 191.975433 587.635644 
L 192.484759 588.527208 
L 192.994085 590.059466 
L 193.673187 592.132432 
L 193.842962 592.219331 
L 194.097625 592.061425 
L 194.437176 591.376205 
L 194.776727 590.855971 
L 194.946502 590.875888 
L 195.540716 591.236662 
L 195.710491 590.966097 
L 196.050042 589.818694 
L 196.559368 588.037092 
L 196.814031 587.68715 
L 196.983806 587.678975 
L 197.323357 587.764528 
L 197.917571 587.406169 
L 198.257121 587.580126 
L 198.936223 588.169571 
L 199.275773 588.110479 
L 199.615324 588.070895 
L 199.869987 588.309572 
L 200.12465 588.889662 
L 200.549088 590.573067 
L 201.22819 594.617698 
L 202.925943 605.481322 
L 203.859708 609.780731 
L 204.793472 613.043903 
L 205.812124 615.789458 
L 206.830776 617.866829 
L 207.934316 619.610773 
L 208.104092 619.786788 
L 208.188979 619.715934 
L 208.358755 618.683459 
L 208.613418 614.092614 
L 208.952968 600.665079 
L 210.820497 511.452982 
L 210.990273 509.001477 
L 211.499599 506.93092 
L 211.584486 507.155017 
L 211.839149 508.111835 
L 212.008925 507.787335 
L 212.093812 507.832832 
L 213.367127 514.042504 
L 213.791566 517.84138 
L 214.046229 519.236579 
L 214.470667 522.67033 
L 217.017297 537.668787 
L 217.356848 539.821011 
L 218.545276 546.714799 
L 218.715051 546.336391 
L 218.884826 545.984215 
L 219.054602 545.952417 
L 219.224377 544.864522 
L 219.563928 542.287533 
L 219.648815 542.072638 
L 219.733703 541.537601 
L 219.903478 538.350307 
L 220.837243 510.861692 
L 221.091906 489.858616 
L 221.346569 468.612817 
L 221.601232 461.041839 
L 222.110558 455.179568 
L 222.365221 452.880792 
L 222.450109 452.952687 
L 222.619884 454.651776 
L 222.789659 460.061787 
L 223.893199 520.499466 
L 224.402525 531.214546 
L 224.826964 536.841991 
L 225.506065 543.168487 
L 226.864268 554.989637 
L 227.628257 559.788614 
L 228.307358 562.751949 
L 228.98646 564.765948 
L 229.920224 566.823146 
L 232.891293 572.60423 
L 234.249496 575.078962 
L 234.843709 576.762881 
L 235.268148 578.795901 
L 235.777474 582.330728 
L 236.965901 590.936284 
L 237.39034 592.332482 
L 237.645003 592.623929 
L 237.899666 592.58499 
L 238.408992 592.180586 
L 238.918318 591.424721 
L 240.361408 587.53413 
L 240.700959 585.957111 
L 241.634723 580.970498 
L 243.077814 575.05484 
L 243.502252 574.234185 
L 243.756915 574.112997 
L 244.011578 574.284831 
L 244.351129 574.979023 
L 244.860455 576.587653 
L 245.794219 579.337982 
L 246.558209 580.74019 
L 246.982647 581.072324 
L 247.23731 581.072248 
L 247.407085 580.888942 
L 248.171074 579.601885 
L 248.34085 579.717021 
L 248.595513 580.270927 
L 249.189726 582.090892 
L 249.359502 582.15541 
L 249.699053 581.836017 
L 250.293266 581.118341 
L 250.547929 581.331973 
L 250.972368 581.716051 
L 251.142143 581.480226 
L 251.566581 580.092251 
L 252.160795 578.258345 
L 252.33057 578.2994 
L 252.670121 578.886131 
L 253.09456 579.529989 
L 253.773661 580.237908 
L 254.53765 582.076305 
L 254.877201 583.548097 
L 255.98074 589.383512 
L 256.235404 589.627241 
L 256.574954 589.652606 
L 257.593606 589.19605 
L 257.848269 589.01568 
L 258.18782 588.297657 
L 258.697146 586.48484 
L 259.036697 585.46689 
L 259.376248 584.956808 
L 259.715798 584.680657 
L 260.479787 583.498451 
L 260.819338 583.317227 
L 261.243776 583.106482 
L 261.498439 582.725174 
L 262.347316 580.814736 
L 262.601979 580.749836 
L 262.856642 581.007389 
L 263.450856 581.788682 
L 263.705519 581.87116 
L 263.960182 582.278111 
L 264.38462 583.71472 
L 264.978834 585.659057 
L 265.742823 587.336626 
L 265.912599 587.387133 
L 266.337037 587.274405 
L 266.5917 587.426551 
L 267.016138 588.090673 
L 267.355689 588.459359 
L 267.525464 588.353993 
L 267.780127 587.582514 
L 268.374341 585.580306 
L 268.713892 585.217109 
L 269.053443 584.735709 
L 270.751196 581.151936 
L 271.260522 579.73911 
L 272.109399 578.051423 
L 272.364062 577.700365 
L 272.533837 577.741309 
L 272.7885 578.246956 
L 273.128051 579.681906 
L 274.825804 588.042984 
L 275.080467 588.625273 
L 275.250243 588.658452 
L 275.420018 588.49185 
L 275.674681 587.758567 
L 277.457322 580.655616 
L 277.796873 580.080523 
L 278.051536 580.036511 
L 278.221311 580.141092 
L 278.475974 580.670148 
L 278.815525 582.241685 
L 279.324851 584.730248 
L 279.664402 585.320511 
L 279.919065 585.331219 
L 280.258616 585.244015 
L 280.598166 585.575649 
L 280.937717 585.828566 
L 281.107492 585.630556 
L 281.447043 584.554472 
L 282.211032 581.74263 
L 282.380808 581.715877 
L 282.890134 582.075715 
L 283.229684 581.399656 
L 283.654123 580.733625 
L 283.908786 580.668926 
L 284.248336 580.900823 
L 284.757662 581.503293 
L 285.097213 582.231691 
L 285.521652 583.879301 
L 286.030978 586.942118 
L 289.002046 607.085497 
L 289.935811 610.944436 
L 290.869575 613.860914 
L 291.80334 616.112993 
L 292.567329 617.51049 
L 292.821992 617.616847 
L 292.991767 617.448254 
L 293.501093 616.333138 
L 293.840644 615.853043 
L 294.095307 615.791158 
L 294.604633 616.044839 
L 294.944184 616.060977 
L 295.198847 615.815624 
L 295.538397 615.126692 
L 296.726825 612.154844 
L 297.066375 611.986876 
L 297.321038 612.107675 
L 297.660589 612.524501 
L 298.679241 614.02084 
L 299.44323 614.629577 
L 300.207219 615.736934 
L 300.801433 616.423458 
L 301.225871 616.617926 
L 301.735198 616.56549 
L 302.584074 616.170864 
L 303.432951 615.582169 
L 303.942277 614.935142 
L 304.451603 613.913386 
L 304.960929 612.256712 
L 305.470255 609.601124 
L 305.894694 606.216896 
L 306.40402 600.330259 
L 308.101773 578.849225 
L 309.629751 562.287281 
L 311.15773 544.896625 
L 312.346157 540.446458 
L 312.515932 540.345791 
L 312.685708 540.331689 
L 313.110146 539.377827 
L 313.195034 539.415718 
L 313.364809 539.097019 
L 313.619472 538.354263 
L 313.874135 538.400773 
L 314.213686 537.581958 
L 314.383461 537.987708 
L 314.553237 538.349308 
L 314.892787 537.773493 
L 314.977675 537.900157 
L 315.232338 538.263631 
L 315.402113 538.285699 
L 315.571889 538.7234 
L 315.826552 539.460313 
L 316.081215 539.910797 
L 316.760316 542.459763 
L 316.845204 542.117885 
L 317.014979 538.68215 
L 317.269642 533.005627 
L 317.35453 532.589189 
L 317.439417 532.768997 
L 317.694081 533.803471 
L 317.778968 533.668244 
L 318.033631 531.859535 
L 318.288294 530.493608 
L 318.373182 530.491082 
L 318.542957 531.308814 
L 318.79762 534.255412 
L 320.580261 561.112834 
L 321.344251 567.586326 
L 322.872229 579.517838 
L 324.230432 591.694571 
L 324.909533 595.601408 
L 325.503747 597.791751 
L 325.928185 598.729007 
L 326.352623 599.260706 
L 327.286388 599.736769 
L 328.135265 600.323334 
L 328.729478 601.028449 
L 329.323692 602.160127 
L 330.087681 604.210656 
L 332.888974 612.410545 
L 334.247177 615.353242 
L 335.350717 617.149636 
L 336.70892 618.832461 
L 338.236898 620.373824 
L 340.104427 621.832327 
L 341.632405 622.701653 
L 343.330158 623.427227 
L 346.046564 624.297712 
L 349.86651 625.270013 
L 353.092241 625.905287 
L 358.015726 626.612394 
L 371.173316 628.197272 
L 383.227366 629.618416 
L 390.782369 630.73959 
L 399.101361 631.959597 
L 412.004288 633.733631 
L 419.898842 635.107411 
L 425.501428 636.300831 
L 429.321374 637.325957 
L 435.263511 639.082909 
L 438.828793 639.656049 
L 449.354865 641.300126 
L 460.644926 643.483325 
L 465.738186 644.72468 
L 475.754932 647.357838 
L 481.527294 648.271979 
L 494.260445 650.326521 
L 502.579438 652.160183 
L 520.405849 656.220552 
L 527.366639 657.44802 
L 533.733214 658.359454 
L 541.627768 659.247791 
L 550.880525 660.035726 
L 560.727495 660.664321 
L 574.564186 661.314289 
L 597.229196 662.057478 
L 610.980999 662.415827 
L 651.896859 663.253238 
L 671.675687 663.617287 
L 671.675687 663.617287 
" clip-path="url(#pd15160a87f)" style="fill: none; stroke: #1f77b4; stroke-width: 1.5; stroke-linecap: square"/>
   </g>
   <g id="line2d_29">
    <path d="M 60.654199 671.339512 
L 61.587964 671.252827 
L 62.182178 670.706784 
L 64.474145 667.67274 
L 66.766112 665.88826 
L 67.275438 665.624091 
L 68.29409 665.107472 
L 68.633641 665.131087 
L 69.142967 665.492324 
L 69.737181 666.264761 
L 71.350046 668.551949 
L 72.029148 669.099212 
L 72.793137 669.42752 
L 73.302463 669.444527 
L 73.811789 669.135147 
L 74.406003 668.232725 
L 75.169992 666.172181 
L 76.443307 661.60728 
L 78.056173 654.680114 
L 78.989937 649.922941 
L 79.414376 648.213716 
L 80.263252 644.183085 
L 80.433028 643.555853 
L 81.366792 636.929852 
L 81.791231 632.926591 
L 82.215669 629.087818 
L 82.55522 625.724313 
L 83.319209 619.517055 
L 83.488984 618.653617 
L 83.913422 615.517979 
L 84.083198 614.897624 
L 84.507636 612.317522 
L 84.677412 611.894026 
L 85.10185 609.741946 
L 85.186738 609.70245 
L 85.356513 609.734376 
L 85.780951 608.523828 
L 85.865839 608.612452 
L 85.950727 608.530421 
L 86.375165 607.185035 
L 86.460053 607.244237 
L 86.54494 607.132344 
L 86.969379 605.628912 
L 87.054266 605.65553 
L 87.139154 605.511326 
L 87.563592 603.883369 
L 87.64848 603.891891 
L 87.733368 603.779026 
L 88.072919 602.808062 
L 88.157806 602.786985 
L 88.836908 604.178229 
L 89.176458 605.563845 
L 89.346234 606.017503 
L 89.516009 607.102391 
L 89.600897 606.845449 
L 90.619549 591.76628 
L 90.789324 591.453115 
L 90.874212 591.509626 
L 91.043987 592.080889 
L 91.29865 594.043437 
L 91.723089 599.826192 
L 92.656853 617.623815 
L 93.166179 625.646758 
L 93.251067 625.228267 
L 93.50573 615.629327 
L 94.015056 586.622859 
L 95.118596 508.592706 
L 95.627922 479.564965 
L 96.222135 459.537688 
L 96.731461 452.122271 
L 96.901237 452.584138 
L 97.071012 451.894661 
L 97.1559 451.91888 
L 97.240787 452.194323 
L 97.410563 454.233613 
L 97.750114 459.101113 
L 98.004777 462.832461 
L 98.344327 468.354001 
L 98.59899 472.191381 
L 98.938541 477.491473 
L 99.193204 481.022717 
L 99.532755 485.763541 
L 99.787418 488.891199 
L 100.126968 493.124262 
L 100.466519 497.368037 
L 100.80607 502.072516 
L 101.145621 506.564214 
L 101.739834 513.169038 
L 102.334048 518.869563 
L 102.758486 522.07241 
L 103.267812 526.135241 
L 103.522475 528.225724 
L 103.777138 530.068709 
L 104.116689 530.719994 
L 104.286465 531.166121 
L 104.880678 527.610773 
L 105.55978 515.022676 
L 106.238881 488.923064 
L 106.748207 465.4399 
L 107.087758 458.880846 
L 107.172646 458.475108 
L 107.257533 458.526597 
L 107.427309 459.482762 
L 107.681972 463.253617 
L 108.10641 474.981233 
L 110.058826 536.978648 
L 110.737928 547.215798 
L 111.417029 554.337518 
L 112.096131 559.505929 
L 112.775232 563.187811 
L 113.369446 565.386336 
L 113.96366 566.819281 
L 114.557873 567.760973 
L 115.236975 568.521089 
L 119.226695 571.616809 
L 121.009337 572.672338 
L 121.943101 573.067303 
L 122.027989 572.806761 
L 122.622202 567.089088 
L 123.046641 564.191751 
L 123.471079 562.863594 
L 123.640855 562.732012 
L 123.895518 562.911839 
L 124.150181 563.404163 
L 124.744394 565.728766 
L 125.847934 570.554219 
L 126.527035 572.107192 
L 127.036362 572.708358 
L 127.375912 572.941989 
L 127.630575 572.976462 
L 127.970126 573.070691 
L 128.224789 573.204586 
L 128.56434 573.237713 
L 128.819003 573.305806 
L 129.158553 573.25598 
L 129.328329 573.32192 
L 129.752767 573.157985 
L 129.922543 573.197966 
L 130.346981 572.96246 
L 130.516756 572.984102 
L 130.941195 572.699687 
L 131.280745 572.772931 
L 131.620296 572.66494 
L 131.790071 572.721388 
L 132.21451 572.462767 
L 132.384285 572.487149 
L 132.808723 572.132994 
L 132.978499 572.127238 
L 133.402937 571.686472 
L 133.572713 571.658523 
L 133.997151 571.157487 
L 134.336702 571.141259 
L 134.676252 570.894261 
L 134.846028 570.911911 
L 135.270466 570.446385 
L 135.440241 570.423532 
L 135.86468 569.837113 
L 136.034455 569.776204 
L 136.458894 569.080258 
L 136.628669 568.991427 
L 137.053107 568.219563 
L 137.392658 568.093443 
L 137.732209 567.673248 
L 137.901984 567.643463 
L 138.326422 566.919026 
L 138.496198 566.837828 
L 138.920636 565.984749 
L 139.429962 565.961681 
L 139.684625 566.504649 
L 140.024176 567.610835 
L 140.533502 570.319974 
L 142.825469 583.756475 
L 143.504571 585.955511 
L 144.26856 587.651815 
L 145.117436 588.994851 
L 146.305864 590.440057 
L 147.579179 591.750377 
L 147.664067 591.74571 
L 147.91873 591.278038 
L 148.343168 590.047061 
L 149.531596 584.149469 
L 149.956034 582.900699 
L 150.210697 582.736278 
L 150.46536 582.993751 
L 151.144461 584.661126 
L 151.484012 585.481316 
L 152.163113 586.441769 
L 152.927103 586.792703 
L 153.266653 586.985357 
L 153.606204 587.438388 
L 153.860867 587.707728 
L 154.370193 587.587038 
L 155.728396 585.166203 
L 155.983059 584.965956 
L 156.66216 585.176373 
L 157.086599 585.9022 
L 157.595925 586.818956 
L 157.935475 586.908226 
L 158.275026 587.337382 
L 159.208791 588.841822 
L 159.293678 588.840778 
L 160.736769 586.239776 
L 160.991432 586.053784 
L 161.585645 585.844605 
L 161.925196 586.396002 
L 162.349635 587.637299 
L 163.198511 590.786507 
L 163.62295 592.059601 
L 163.9625 592.023986 
L 164.217163 591.939443 
L 164.641602 591.746841 
L 164.811377 591.691958 
L 165.660254 589.727459 
L 165.830029 589.67955 
L 166.084692 589.87446 
L 166.424243 590.524708 
L 167.188232 592.396754 
L 167.442895 592.066375 
L 168.631323 589.667153 
L 169.480199 586.933512 
L 169.734862 586.599952 
L 169.904638 586.661255 
L 170.159301 587.156352 
L 170.92329 589.09108 
L 171.941942 592.572594 
L 172.196605 592.877918 
L 172.790819 592.805103 
L 173.045482 592.920287 
L 173.46992 593.491444 
L 174.488572 595.207612 
L 174.743235 595.351479 
L 174.997898 595.436145 
L 175.167674 595.475326 
L 175.931663 594.11149 
L 176.101438 594.077044 
L 176.356101 594.212978 
L 177.289865 592.895037 
L 177.968967 591.618825 
L 178.22363 591.441615 
L 178.478293 591.56934 
L 178.732956 592.04348 
L 179.66672 594.109921 
L 180.345822 596.596227 
L 180.855148 598.313306 
L 181.279586 599.00587 
L 181.534249 598.670349 
L 182.043575 597.598876 
L 183.147115 594.089615 
L 183.486666 593.694373 
L 184.165767 593.893242 
L 184.335542 594.043913 
L 185.014644 593.285096 
L 185.52397 592.20926 
L 185.948408 591.577276 
L 186.287959 591.532362 
L 186.62751 591.270036 
L 187.136836 591.616036 
L 187.985712 593.131277 
L 188.664814 592.856757 
L 188.919477 593.126712 
L 190.702118 596.067837 
L 191.041669 596.623114 
L 191.890546 598.30885 
L 192.230096 598.552052 
L 192.739422 599.230395 
L 193.333636 600.587741 
L 193.503411 600.932496 
L 193.673187 600.749661 
L 194.182513 599.557873 
L 194.776727 597.110392 
L 195.116277 596.57209 
L 195.455828 596.618231 
L 195.710491 596.759553 
L 196.898918 598.63823 
L 197.153581 599.035727 
L 197.408244 598.508051 
L 198.172234 596.936085 
L 198.426897 596.855956 
L 198.68156 597.148849 
L 199.02111 598.036401 
L 199.530436 600.146578 
L 201.143302 607.443088 
L 201.737516 609.011911 
L 202.416617 610.159674 
L 203.265494 611.094615 
L 204.708585 612.277664 
L 207.764541 614.530356 
L 207.934316 614.385028 
L 208.104092 614.488072 
L 208.188979 613.737436 
L 208.613418 602.899688 
L 208.868081 594.640413 
L 210.226283 541.836183 
L 210.565834 533.916354 
L 211.160048 525.667836 
L 211.584486 523.151837 
L 211.669374 523.261195 
L 211.839149 523.852597 
L 212.008925 523.827599 
L 212.093812 523.900855 
L 212.263588 524.697561 
L 212.518251 526.283431 
L 212.772914 527.416274 
L 215.064881 545.637892 
L 215.404432 548.014314 
L 216.083533 552.07535 
L 216.592859 554.73398 
L 217.017297 557.246948 
L 218.460388 564.450169 
L 218.545276 564.635774 
L 218.715051 564.173576 
L 219.224377 561.498437 
L 219.988366 550.072891 
L 220.58258 532.127214 
L 221.261681 493.664074 
L 221.68612 467.771042 
L 222.02567 458.086118 
L 222.195446 456.77603 
L 222.280333 456.803847 
L 222.450109 458.245627 
L 222.704772 463.58877 
L 223.12921 478.672274 
L 224.742076 544.530058 
L 225.33629 557.02324 
L 225.930503 564.687323 
L 226.524717 569.550751 
L 227.203819 573.259724 
L 227.88292 575.769746 
L 228.562021 577.468002 
L 229.32601 578.794708 
L 230.514438 580.342239 
L 233.230843 583.398875 
L 233.825057 583.676933 
L 234.419271 583.546841 
L 235.18326 582.234544 
L 235.947249 580.252064 
L 236.2868 579.790911 
L 236.541463 579.6719 
L 236.796126 579.8139 
L 237.72989 580.394469 
L 237.984553 580.531881 
L 238.154329 580.666942 
L 238.748542 580.369465 
L 239.682307 578.269321 
L 240.616071 577.262079 
L 241.04051 576.277746 
L 241.210285 576.071462 
L 242.228937 573.071218 
L 242.568488 572.417832 
L 242.823151 572.139747 
L 243.162702 572.352773 
L 243.417365 572.876926 
L 244.011578 575.109305 
L 244.775567 578.439035 
L 245.03023 578.970357 
L 245.454669 579.362618 
L 246.13377 578.001187 
L 246.473321 577.350046 
L 246.727984 577.297243 
L 246.982647 577.604774 
L 247.576861 578.605925 
L 247.831524 578.875339 
L 248.086187 578.993541 
L 248.34085 579.15882 
L 248.850176 580.03639 
L 249.104839 580.6269 
L 249.359502 580.33755 
L 249.868828 579.396206 
L 250.208379 578.533308 
L 250.463042 578.359561 
L 250.717705 578.515024 
L 251.057255 578.938946 
L 251.396806 578.845621 
L 251.566581 578.864251 
L 252.160795 577.688689 
L 252.415458 577.651524 
L 252.670121 578.006839 
L 253.09456 579.200763 
L 253.688773 581.862972 
L 254.198099 583.831999 
L 254.877201 584.814155 
L 255.810965 586.790234 
L 255.895853 586.743154 
L 256.490067 586.082698 
L 257.423831 583.391682 
L 257.933157 582.794023 
L 258.102932 582.756239 
L 258.357595 582.795723 
L 258.612258 582.785923 
L 259.206472 583.418921 
L 259.546023 584.064163 
L 259.630911 584.01054 
L 260.225124 583.297163 
L 260.649563 582.501533 
L 261.158889 581.976006 
L 261.328664 582.009813 
L 261.668215 581.801872 
L 262.177541 582.119504 
L 262.432204 582.540207 
L 263.026418 584.301962 
L 263.281081 584.930705 
L 263.875294 585.265645 
L 264.214845 585.785831 
L 265.657935 588.99603 
L 265.827711 588.820584 
L 267.101026 586.689274 
L 267.270801 586.608606 
L 267.440577 586.559746 
L 268.03479 585.393291 
L 268.289453 585.315129 
L 268.459229 585.439527 
L 268.798779 585.913192 
L 269.13833 586.0582 
L 269.308106 586.2107 
L 269.987207 585.67969 
L 270.836084 582.682497 
L 271.175634 581.857538 
L 271.34541 581.788634 
L 271.515185 581.948744 
L 271.854736 582.817116 
L 272.279174 584.443827 
L 273.722265 591.127669 
L 274.146703 591.26533 
L 274.825804 590.617572 
L 275.504906 588.022015 
L 276.09912 585.264065 
L 276.43867 584.171578 
L 276.693333 584.001244 
L 276.863109 584.178858 
L 277.117772 584.856791 
L 277.711985 587.187489 
L 278.051536 588.425148 
L 278.64575 590.052271 
L 279.155076 591.353331 
L 279.579514 590.791127 
L 279.74929 590.25212 
L 280.258616 588.403396 
L 280.513279 588.011247 
L 280.683054 587.963058 
L 281.107492 588.184179 
L 281.277268 588.191348 
L 281.531931 588.414965 
L 282.041257 587.8374 
L 282.465695 587.825802 
L 282.720358 588.073555 
L 283.569235 586.763342 
L 283.73901 586.773109 
L 283.993673 587.144166 
L 284.333224 588.222462 
L 284.84255 590.707506 
L 286.540304 599.734637 
L 287.134517 601.590263 
L 287.728731 602.801781 
L 288.49272 603.820659 
L 289.681148 604.952558 
L 292.312666 607.082229 
L 292.397553 607.144475 
L 292.482441 607.050457 
L 292.906879 605.206668 
L 293.416205 603.492008 
L 293.755756 602.996227 
L 294.010419 602.926197 
L 294.265082 603.091599 
L 294.604633 603.636115 
L 295.113959 604.948807 
L 296.387274 608.441449 
L 297.066375 609.636208 
L 297.830364 610.514735 
L 298.00014 610.594005 
L 298.339691 610.034354 
L 298.849017 609.299279 
L 299.188567 609.120523 
L 299.528118 609.171259 
L 299.952556 609.521148 
L 300.54677 610.420805 
L 301.735198 612.326739 
L 302.329411 612.625803 
L 302.838737 612.335668 
L 303.0934 611.959525 
L 304.027165 609.901921 
L 304.451603 608.468365 
L 304.960929 606.723326 
L 305.724918 604.16412 
L 306.149357 602.711221 
L 306.998233 599.301755 
L 307.168009 598.761304 
L 308.186661 593.918087 
L 308.441324 593.165166 
L 309.290201 585.313552 
L 310.648403 571.39491 
L 310.903066 569.499261 
L 311.242617 566.870036 
L 311.667056 565.370415 
L 311.921719 564.477388 
L 312.006606 564.486968 
L 312.091494 564.338175 
L 312.515932 562.812939 
L 312.60082 562.861283 
L 312.685708 562.745179 
L 313.110146 561.299161 
L 313.195034 561.349302 
L 313.279921 561.231741 
L 313.70436 559.75619 
L 313.789247 559.801149 
L 313.874135 559.678981 
L 314.298574 558.211534 
L 314.553237 558.52123 
L 314.892787 557.707578 
L 315.14745 557.956309 
L 315.232338 557.790855 
L 315.487001 557.486787 
L 316.166102 558.639515 
L 316.505653 559.932606 
L 316.675428 560.35464 
L 316.845204 561.421521 
L 316.930091 561.161664 
L 317.948744 546.70917 
L 318.118519 546.538204 
L 318.288294 546.971088 
L 318.542957 548.685742 
L 318.882508 552.852369 
L 319.476722 563.631642 
L 320.495374 581.872745 
L 321.0047 587.704917 
L 321.514026 591.234389 
L 322.023352 593.140094 
L 322.532678 594.093455 
L 323.211779 594.641013 
L 324.230432 595.17246 
L 324.909533 595.412991 
L 325.928185 595.590119 
L 326.182848 595.651926 
L 326.522399 595.675371 
L 327.031725 596.067875 
L 327.456163 596.671193 
L 328.050377 597.868435 
L 330.257456 602.661813 
L 331.191221 603.928129 
L 331.785435 604.461864 
L 332.888974 605.047781 
L 333.822739 605.844693 
L 336.963583 608.798388 
L 340.783528 611.744886 
L 346.301227 615.739946 
L 351.903814 619.522529 
L 357.676176 623.15077 
L 363.618313 626.62054 
L 369.730226 629.928983 
L 376.011914 633.074444 
L 382.463377 636.056394 
L 389.169503 638.90999 
L 396.130293 641.628102 
L 403.345745 644.205432 
L 410.900748 646.664781 
L 418.710414 648.972968 
L 426.944519 651.173166 
L 435.603062 653.253725 
L 444.686043 655.205978 
L 454.27835 657.039387 
L 464.464871 658.758813 
L 475.330494 660.365619 
L 486.960105 661.858733 
L 499.523481 663.244314 
L 513.105509 664.515381 
L 527.960853 665.678254 
L 544.259286 666.727432 
L 562.425249 667.669386 
L 582.883179 668.501938 
L 606.227289 669.223831 
L 633.476233 669.837662 
L 666.157988 670.343807 
L 671.675687 670.410556 
L 671.675687 670.410556 
" clip-path="url(#pd15160a87f)" style="fill: none; stroke: #ff7f0e; stroke-width: 1.5; stroke-linecap: square"/>
   </g>
   <g id="patch_9">
    <path d="M 30.103125 684.92 
L 30.103125 386.16 
" style="fill: none; stroke: #000000; stroke-width: 0.8; stroke-linejoin: miter; stroke-linecap: square"/>
   </g>
   <g id="patch_10">
    <path d="M 702.226761 684.92 
L 702.226761 386.16 
" style="fill: none; stroke: #000000; stroke-width: 0.8; stroke-linejoin: miter; stroke-linecap: square"/>
   </g>
   <g id="patch_11">
    <path d="M 30.103125 684.92 
L 702.226761 684.92 
" style="fill: none; stroke: #000000; stroke-width: 0.8; stroke-linejoin: miter; stroke-linecap: square"/>
   </g>
   <g id="patch_12">
    <path d="M 30.103125 386.16 
L 702.226761 386.16 
" style="fill: none; stroke: #000000; stroke-width: 0.8; stroke-linejoin: miter; stroke-linecap: square"/>
   </g>
   <g id="text_27">
    <!-- 2 transformation(s) -->
    <g transform="translate(308.050256 380.16) scale(0.12 -0.12)">
     <use xlink:href="#DejaVuSans-32"/>
     <use xlink:href="#DejaVuSans-20" x="63.623047"/>
     <use xlink:href="#DejaVuSans-74" x="95.410156"/>
     <use xlink:href="#DejaVuSans-72" x="134.619141"/>
     <use xlink:href="#DejaVuSans-61" x="175.732422"/>
     <use xlink:href="#DejaVuSans-6e" x="237.011719"/>
     <use xlink:href="#DejaVuSans-73" x="300.390625"/>
     <use xlink:href="#DejaVuSans-66" x="352.490234"/>
     <use xlink:href="#DejaVuSans-6f" x="387.695312"/>
     <use xlink:href="#DejaVuSans-72" x="448.876953"/>
     <use xlink:href="#DejaVuSans-6d" x="488.240234"/>
     <use xlink:href="#DejaVuSans-61" x="585.652344"/>
     <use xlink:href="#DejaVuSans-74" x="646.931641"/>
     <use xlink:href="#DejaVuSans-69" x="686.140625"/>
     <use xlink:href="#DejaVuSans-6f" x="713.923828"/>
     <use xlink:href="#DejaVuSans-6e" x="775.105469"/>
     <use xlink:href="#DejaVuSans-28" x="838.484375"/>
     <use xlink:href="#DejaVuSans-73" x="877.498047"/>
     <use xlink:href="#DejaVuSans-29" x="929.597656"/>
    </g>
   </g>
  </g>
  <g id="text_28">
   <!-- training -->
   <g transform="translate(333.219687 16.318125) scale(0.12 -0.12)">
    <defs>
     <path id="DejaVuSans-67" d="M 2906 1791 
Q 2906 2416 2648 2759 
Q 2391 3103 1925 3103 
Q 1463 3103 1205 2759 
Q 947 2416 947 1791 
Q 947 1169 1205 825 
Q 1463 481 1925 481 
Q 2391 481 2648 825 
Q 2906 1169 2906 1791 
z
M 3481 434 
Q 3481 -459 3084 -895 
Q 2688 -1331 1869 -1331 
Q 1566 -1331 1297 -1286 
Q 1028 -1241 775 -1147 
L 775 -588 
Q 1028 -725 1275 -790 
Q 1522 -856 1778 -856 
Q 2344 -856 2625 -561 
Q 2906 -266 2906 331 
L 2906 616 
Q 2728 306 2450 153 
Q 2172 0 1784 0 
Q 1141 0 747 490 
Q 353 981 353 1791 
Q 353 2603 747 3093 
Q 1141 3584 1784 3584 
Q 2172 3584 2450 3431 
Q 2728 3278 2906 2969 
L 2906 3500 
L 3481 3500 
L 3481 434 
z
" transform="scale(0.015625)"/>
    </defs>
    <use xlink:href="#DejaVuSans-74"/>
    <use xlink:href="#DejaVuSans-72" x="39.208984"/>
    <use xlink:href="#DejaVuSans-61" x="80.322266"/>
    <use xlink:href="#DejaVuSans-69" x="141.601562"/>
    <use xlink:href="#DejaVuSans-6e" x="169.384766"/>
    <use xlink:href="#DejaVuSans-69" x="232.763672"/>
    <use xlink:href="#DejaVuSans-6e" x="260.546875"/>
    <use xlink:href="#DejaVuSans-67" x="323.925781"/>
   </g>
  </g>
 </g>
 <defs>
  <clipPath id="pe12c043598">
   <rect x="30.103125" y="43.44" width="672.123636" height="298.76"/>
  </clipPath>
  <clipPath id="pd15160a87f">
   <rect x="30.103125" y="386.16" width="672.123636" height="298.76"/>
  </clipPath>
 </defs>
</svg>
