<?xml version="1.0" encoding="utf-8" standalone="no"?>
<!DOCTYPE svg PUBLIC "-//W3C//DTD SVG 1.1//EN"
  "http://www.w3.org/Graphics/SVG/1.1/DTD/svg11.dtd">
<svg xmlns:xlink="http://www.w3.org/1999/xlink" width="709.426761pt" height="708.798125pt" viewBox="0 0 709.426761 708.798125" xmlns="http://www.w3.org/2000/svg" version="1.1">
 <metadata>
  <rdf:RDF xmlns:dc="http://purl.org/dc/elements/1.1/" xmlns:cc="http://creativecommons.org/ns#" xmlns:rdf="http://www.w3.org/1999/02/22-rdf-syntax-ns#">
   <cc:Work>
    <dc:type rdf:resource="http://purl.org/dc/dcmitype/StillImage"/>
    <dc:date>2023-06-10T04:17:06.708047</dc:date>
    <dc:format>image/svg+xml</dc:format>
    <dc:creator>
     <cc:Agent>
      <dc:title>Matplotlib v3.7.1, https://matplotlib.org/</dc:title>
     </cc:Agent>
    </dc:creator>
   </cc:Work>
  </rdf:RDF>
 </metadata>
 <defs>
  <style type="text/css">*{stroke-linejoin: round; stroke-linecap: butt}</style>
 </defs>
 <g id="figure_1">
  <g id="patch_1">
   <path d="M 0 708.798125 
L 709.426761 708.798125 
L 709.426761 0 
L 0 0 
z
" style="fill: #ffffff"/>
  </g>
  <g id="axes_1">
   <g id="patch_2">
    <path d="M 30.103125 342.2 
L 702.226761 342.2 
L 702.226761 43.44 
L 30.103125 43.44 
z
" style="fill: #ffffff"/>
   </g>
   <g id="matplotlib.axis_1">
    <g id="xtick_1">
     <g id="line2d_1">
      <defs>
       <path id="m81601949db" d="M 0 0 
L 0 3.5 
" style="stroke: #000000; stroke-width: 0.8"/>
      </defs>
      <g>
       <use xlink:href="#m81601949db" x="60.484424" y="342.2" style="stroke: #000000; stroke-width: 0.8"/>
      </g>
     </g>
     <g id="text_1">
      <!-- 2014-07-01 -->
      <g transform="translate(31.426612 356.798437) scale(0.1 -0.1)">
       <defs>
        <path id="DejaVuSans-32" d="M 1228 531 
L 3431 531 
L 3431 0 
L 469 0 
L 469 531 
Q 828 903 1448 1529 
Q 2069 2156 2228 2338 
Q 2531 2678 2651 2914 
Q 2772 3150 2772 3378 
Q 2772 3750 2511 3984 
Q 2250 4219 1831 4219 
Q 1534 4219 1204 4116 
Q 875 4013 500 3803 
L 500 4441 
Q 881 4594 1212 4672 
Q 1544 4750 1819 4750 
Q 2544 4750 2975 4387 
Q 3406 4025 3406 3419 
Q 3406 3131 3298 2873 
Q 3191 2616 2906 2266 
Q 2828 2175 2409 1742 
Q 1991 1309 1228 531 
z
" transform="scale(0.015625)"/>
        <path id="DejaVuSans-30" d="M 2034 4250 
Q 1547 4250 1301 3770 
Q 1056 3291 1056 2328 
Q 1056 1369 1301 889 
Q 1547 409 2034 409 
Q 2525 409 2770 889 
Q 3016 1369 3016 2328 
Q 3016 3291 2770 3770 
Q 2525 4250 2034 4250 
z
M 2034 4750 
Q 2819 4750 3233 4129 
Q 3647 3509 3647 2328 
Q 3647 1150 3233 529 
Q 2819 -91 2034 -91 
Q 1250 -91 836 529 
Q 422 1150 422 2328 
Q 422 3509 836 4129 
Q 1250 4750 2034 4750 
z
" transform="scale(0.015625)"/>
        <path id="DejaVuSans-31" d="M 794 531 
L 1825 531 
L 1825 4091 
L 703 3866 
L 703 4441 
L 1819 4666 
L 2450 4666 
L 2450 531 
L 3481 531 
L 3481 0 
L 794 0 
L 794 531 
z
" transform="scale(0.015625)"/>
        <path id="DejaVuSans-34" d="M 2419 4116 
L 825 1625 
L 2419 1625 
L 2419 4116 
z
M 2253 4666 
L 3047 4666 
L 3047 1625 
L 3713 1625 
L 3713 1100 
L 3047 1100 
L 3047 0 
L 2419 0 
L 2419 1100 
L 313 1100 
L 313 1709 
L 2253 4666 
z
" transform="scale(0.015625)"/>
        <path id="DejaVuSans-2d" d="M 313 2009 
L 1997 2009 
L 1997 1497 
L 313 1497 
L 313 2009 
z
" transform="scale(0.015625)"/>
        <path id="DejaVuSans-37" d="M 525 4666 
L 3525 4666 
L 3525 4397 
L 1831 0 
L 1172 0 
L 2766 4134 
L 525 4134 
L 525 4666 
z
" transform="scale(0.015625)"/>
       </defs>
       <use xlink:href="#DejaVuSans-32"/>
       <use xlink:href="#DejaVuSans-30" x="63.623047"/>
       <use xlink:href="#DejaVuSans-31" x="127.246094"/>
       <use xlink:href="#DejaVuSans-34" x="190.869141"/>
       <use xlink:href="#DejaVuSans-2d" x="254.492188"/>
       <use xlink:href="#DejaVuSans-30" x="290.576172"/>
       <use xlink:href="#DejaVuSans-37" x="354.199219"/>
       <use xlink:href="#DejaVuSans-2d" x="417.822266"/>
       <use xlink:href="#DejaVuSans-30" x="453.90625"/>
       <use xlink:href="#DejaVuSans-31" x="517.529297"/>
      </g>
     </g>
    </g>
    <g id="xtick_2">
     <g id="line2d_2">
      <g>
       <use xlink:href="#m81601949db" x="182.722677" y="342.2" style="stroke: #000000; stroke-width: 0.8"/>
      </g>
     </g>
     <g id="text_2">
      <!-- 2014-07-02 -->
      <g transform="translate(153.664864 356.798437) scale(0.1 -0.1)">
       <use xlink:href="#DejaVuSans-32"/>
       <use xlink:href="#DejaVuSans-30" x="63.623047"/>
       <use xlink:href="#DejaVuSans-31" x="127.246094"/>
       <use xlink:href="#DejaVuSans-34" x="190.869141"/>
       <use xlink:href="#DejaVuSans-2d" x="254.492188"/>
       <use xlink:href="#DejaVuSans-30" x="290.576172"/>
       <use xlink:href="#DejaVuSans-37" x="354.199219"/>
       <use xlink:href="#DejaVuSans-2d" x="417.822266"/>
       <use xlink:href="#DejaVuSans-30" x="453.90625"/>
       <use xlink:href="#DejaVuSans-32" x="517.529297"/>
      </g>
     </g>
    </g>
    <g id="xtick_3">
     <g id="line2d_3">
      <g>
       <use xlink:href="#m81601949db" x="304.960929" y="342.2" style="stroke: #000000; stroke-width: 0.8"/>
      </g>
     </g>
     <g id="text_3">
      <!-- 2014-07-03 -->
      <g transform="translate(275.903117 356.798437) scale(0.1 -0.1)">
       <defs>
        <path id="DejaVuSans-33" d="M 2597 2516 
Q 3050 2419 3304 2112 
Q 3559 1806 3559 1356 
Q 3559 666 3084 287 
Q 2609 -91 1734 -91 
Q 1441 -91 1130 -33 
Q 819 25 488 141 
L 488 750 
Q 750 597 1062 519 
Q 1375 441 1716 441 
Q 2309 441 2620 675 
Q 2931 909 2931 1356 
Q 2931 1769 2642 2001 
Q 2353 2234 1838 2234 
L 1294 2234 
L 1294 2753 
L 1863 2753 
Q 2328 2753 2575 2939 
Q 2822 3125 2822 3475 
Q 2822 3834 2567 4026 
Q 2313 4219 1838 4219 
Q 1578 4219 1281 4162 
Q 984 4106 628 3988 
L 628 4550 
Q 988 4650 1302 4700 
Q 1616 4750 1894 4750 
Q 2613 4750 3031 4423 
Q 3450 4097 3450 3541 
Q 3450 3153 3228 2886 
Q 3006 2619 2597 2516 
z
" transform="scale(0.015625)"/>
       </defs>
       <use xlink:href="#DejaVuSans-32"/>
       <use xlink:href="#DejaVuSans-30" x="63.623047"/>
       <use xlink:href="#DejaVuSans-31" x="127.246094"/>
       <use xlink:href="#DejaVuSans-34" x="190.869141"/>
       <use xlink:href="#DejaVuSans-2d" x="254.492188"/>
       <use xlink:href="#DejaVuSans-30" x="290.576172"/>
       <use xlink:href="#DejaVuSans-37" x="354.199219"/>
       <use xlink:href="#DejaVuSans-2d" x="417.822266"/>
       <use xlink:href="#DejaVuSans-30" x="453.90625"/>
       <use xlink:href="#DejaVuSans-33" x="517.529297"/>
      </g>
     </g>
    </g>
    <g id="xtick_4">
     <g id="line2d_4">
      <g>
       <use xlink:href="#m81601949db" x="427.199182" y="342.2" style="stroke: #000000; stroke-width: 0.8"/>
      </g>
     </g>
     <g id="text_4">
      <!-- 2014-07-04 -->
      <g transform="translate(398.141369 356.798437) scale(0.1 -0.1)">
       <use xlink:href="#DejaVuSans-32"/>
       <use xlink:href="#DejaVuSans-30" x="63.623047"/>
       <use xlink:href="#DejaVuSans-31" x="127.246094"/>
       <use xlink:href="#DejaVuSans-34" x="190.869141"/>
       <use xlink:href="#DejaVuSans-2d" x="254.492188"/>
       <use xlink:href="#DejaVuSans-30" x="290.576172"/>
       <use xlink:href="#DejaVuSans-37" x="354.199219"/>
       <use xlink:href="#DejaVuSans-2d" x="417.822266"/>
       <use xlink:href="#DejaVuSans-30" x="453.90625"/>
       <use xlink:href="#DejaVuSans-34" x="517.529297"/>
      </g>
     </g>
    </g>
    <g id="xtick_5">
     <g id="line2d_5">
      <g>
       <use xlink:href="#m81601949db" x="549.437434" y="342.2" style="stroke: #000000; stroke-width: 0.8"/>
      </g>
     </g>
     <g id="text_5">
      <!-- 2014-07-05 -->
      <g transform="translate(520.379622 356.798437) scale(0.1 -0.1)">
       <defs>
        <path id="DejaVuSans-35" d="M 691 4666 
L 3169 4666 
L 3169 4134 
L 1269 4134 
L 1269 2991 
Q 1406 3038 1543 3061 
Q 1681 3084 1819 3084 
Q 2600 3084 3056 2656 
Q 3513 2228 3513 1497 
Q 3513 744 3044 326 
Q 2575 -91 1722 -91 
Q 1428 -91 1123 -41 
Q 819 9 494 109 
L 494 744 
Q 775 591 1075 516 
Q 1375 441 1709 441 
Q 2250 441 2565 725 
Q 2881 1009 2881 1497 
Q 2881 1984 2565 2268 
Q 2250 2553 1709 2553 
Q 1456 2553 1204 2497 
Q 953 2441 691 2322 
L 691 4666 
z
" transform="scale(0.015625)"/>
       </defs>
       <use xlink:href="#DejaVuSans-32"/>
       <use xlink:href="#DejaVuSans-30" x="63.623047"/>
       <use xlink:href="#DejaVuSans-31" x="127.246094"/>
       <use xlink:href="#DejaVuSans-34" x="190.869141"/>
       <use xlink:href="#DejaVuSans-2d" x="254.492188"/>
       <use xlink:href="#DejaVuSans-30" x="290.576172"/>
       <use xlink:href="#DejaVuSans-37" x="354.199219"/>
       <use xlink:href="#DejaVuSans-2d" x="417.822266"/>
       <use xlink:href="#DejaVuSans-30" x="453.90625"/>
       <use xlink:href="#DejaVuSans-35" x="517.529297"/>
      </g>
     </g>
    </g>
    <g id="xtick_6">
     <g id="line2d_6">
      <g>
       <use xlink:href="#m81601949db" x="671.675687" y="342.2" style="stroke: #000000; stroke-width: 0.8"/>
      </g>
     </g>
     <g id="text_6">
      <!-- 2014-07-06 -->
      <g transform="translate(642.617874 356.798437) scale(0.1 -0.1)">
       <defs>
        <path id="DejaVuSans-36" d="M 2113 2584 
Q 1688 2584 1439 2293 
Q 1191 2003 1191 1497 
Q 1191 994 1439 701 
Q 1688 409 2113 409 
Q 2538 409 2786 701 
Q 3034 994 3034 1497 
Q 3034 2003 2786 2293 
Q 2538 2584 2113 2584 
z
M 3366 4563 
L 3366 3988 
Q 3128 4100 2886 4159 
Q 2644 4219 2406 4219 
Q 1781 4219 1451 3797 
Q 1122 3375 1075 2522 
Q 1259 2794 1537 2939 
Q 1816 3084 2150 3084 
Q 2853 3084 3261 2657 
Q 3669 2231 3669 1497 
Q 3669 778 3244 343 
Q 2819 -91 2113 -91 
Q 1303 -91 875 529 
Q 447 1150 447 2328 
Q 447 3434 972 4092 
Q 1497 4750 2381 4750 
Q 2619 4750 2861 4703 
Q 3103 4656 3366 4563 
z
" transform="scale(0.015625)"/>
       </defs>
       <use xlink:href="#DejaVuSans-32"/>
       <use xlink:href="#DejaVuSans-30" x="63.623047"/>
       <use xlink:href="#DejaVuSans-31" x="127.246094"/>
       <use xlink:href="#DejaVuSans-34" x="190.869141"/>
       <use xlink:href="#DejaVuSans-2d" x="254.492188"/>
       <use xlink:href="#DejaVuSans-30" x="290.576172"/>
       <use xlink:href="#DejaVuSans-37" x="354.199219"/>
       <use xlink:href="#DejaVuSans-2d" x="417.822266"/>
       <use xlink:href="#DejaVuSans-30" x="453.90625"/>
       <use xlink:href="#DejaVuSans-36" x="517.529297"/>
      </g>
     </g>
    </g>
   </g>
   <g id="matplotlib.axis_2">
    <g id="ytick_1">
     <g id="line2d_7">
      <defs>
       <path id="m1ea1bcf7e0" d="M 0 0 
L -3.5 0 
" style="stroke: #000000; stroke-width: 0.8"/>
      </defs>
      <g>
       <use xlink:href="#m1ea1bcf7e0" x="30.103125" y="328.617802" style="stroke: #000000; stroke-width: 0.8"/>
      </g>
     </g>
     <g id="text_7">
      <!-- 0.0 -->
      <g transform="translate(7.2 332.417021) scale(0.1 -0.1)">
       <defs>
        <path id="DejaVuSans-2e" d="M 684 794 
L 1344 794 
L 1344 0 
L 684 0 
L 684 794 
z
" transform="scale(0.015625)"/>
       </defs>
       <use xlink:href="#DejaVuSans-30"/>
       <use xlink:href="#DejaVuSans-2e" x="63.623047"/>
       <use xlink:href="#DejaVuSans-30" x="95.410156"/>
      </g>
     </g>
    </g>
    <g id="ytick_2">
     <g id="line2d_8">
      <g>
       <use xlink:href="#m1ea1bcf7e0" x="30.103125" y="268.036434" style="stroke: #000000; stroke-width: 0.8"/>
      </g>
     </g>
     <g id="text_8">
      <!-- 0.5 -->
      <g transform="translate(7.2 271.835653) scale(0.1 -0.1)">
       <use xlink:href="#DejaVuSans-30"/>
       <use xlink:href="#DejaVuSans-2e" x="63.623047"/>
       <use xlink:href="#DejaVuSans-35" x="95.410156"/>
      </g>
     </g>
    </g>
    <g id="ytick_3">
     <g id="line2d_9">
      <g>
       <use xlink:href="#m1ea1bcf7e0" x="30.103125" y="207.455066" style="stroke: #000000; stroke-width: 0.8"/>
      </g>
     </g>
     <g id="text_9">
      <!-- 1.0 -->
      <g transform="translate(7.2 211.254285) scale(0.1 -0.1)">
       <use xlink:href="#DejaVuSans-31"/>
       <use xlink:href="#DejaVuSans-2e" x="63.623047"/>
       <use xlink:href="#DejaVuSans-30" x="95.410156"/>
      </g>
     </g>
    </g>
    <g id="ytick_4">
     <g id="line2d_10">
      <g>
       <use xlink:href="#m1ea1bcf7e0" x="30.103125" y="146.873698" style="stroke: #000000; stroke-width: 0.8"/>
      </g>
     </g>
     <g id="text_10">
      <!-- 1.5 -->
      <g transform="translate(7.2 150.672916) scale(0.1 -0.1)">
       <use xlink:href="#DejaVuSans-31"/>
       <use xlink:href="#DejaVuSans-2e" x="63.623047"/>
       <use xlink:href="#DejaVuSans-35" x="95.410156"/>
      </g>
     </g>
    </g>
    <g id="ytick_5">
     <g id="line2d_11">
      <g>
       <use xlink:href="#m1ea1bcf7e0" x="30.103125" y="86.292329" style="stroke: #000000; stroke-width: 0.8"/>
      </g>
     </g>
     <g id="text_11">
      <!-- 2.0 -->
      <g transform="translate(7.2 90.091548) scale(0.1 -0.1)">
       <use xlink:href="#DejaVuSans-32"/>
       <use xlink:href="#DejaVuSans-2e" x="63.623047"/>
       <use xlink:href="#DejaVuSans-30" x="95.410156"/>
      </g>
     </g>
    </g>
   </g>
   <g id="line2d_12">
    <path d="M 60.654199 328.617802 
L 66.935887 328.513561 
L 68.378978 328.26819 
L 69.906956 327.780264 
L 71.859373 327.171661 
L 73.217575 326.970938 
L 75.085104 326.957965 
L 76.952633 326.926358 
L 77.631734 326.729094 
L 78.056173 326.383491 
L 78.395724 325.780816 
L 78.735274 324.709195 
L 79.2446 321.970472 
L 80.433028 315.13212 
L 81.112129 311.92139 
L 81.366792 309.184929 
L 81.621455 304.0004 
L 81.961006 291.68771 
L 82.385444 277.00686 
L 82.809883 267.845604 
L 83.404096 261.011939 
L 83.743647 258.244499 
L 83.99831 256.865182 
L 84.168085 256.140749 
L 84.507636 254.365724 
L 84.762299 253.828223 
L 85.10185 252.562916 
L 85.356513 252.685486 
L 85.526288 252.198674 
L 85.780951 251.556376 
L 85.950727 251.523098 
L 86.20539 250.654055 
L 86.375165 250.323207 
L 86.54494 250.282151 
L 86.969379 249.232143 
L 87.054266 249.276492 
L 87.139154 249.249418 
L 87.308929 248.739554 
L 87.478705 248.246193 
L 87.818256 248.191177 
L 88.072919 247.68452 
L 88.242694 247.897882 
L 88.497357 248.276358 
L 88.75202 248.314714 
L 89.176458 249.354257 
L 89.516009 250.04396 
L 89.600897 249.592001 
L 89.940447 244.578057 
L 90.025335 244.693181 
L 90.449773 246.25475 
L 90.789324 247.068776 
L 90.874212 247.068343 
L 91.043987 246.676593 
L 91.638201 244.350627 
L 91.807976 244.68406 
L 92.062639 246.662056 
L 92.571965 254.007664 
L 93.166179 262.395842 
L 93.251067 262.374502 
L 93.335954 260.82178 
L 93.590617 251.345021 
L 93.760393 250.186295 
L 93.930168 240.928518 
L 94.184831 229.469049 
L 94.269719 227.59439 
L 94.863933 187.866372 
L 95.203483 161.513567 
L 96.561686 87.780148 
L 96.901237 78.330371 
L 97.071012 77.088095 
L 97.240787 77.870454 
L 97.495451 74.527541 
L 97.665226 73.864805 
L 97.750114 73.955309 
L 97.835001 74.24843 
L 98.089664 70.809293 
L 98.25944 70.036669 
L 98.344327 70.104295 
L 98.429215 70.43263 
L 98.683878 68.116521 
L 98.853653 68.061057 
L 99.023429 68.860517 
L 99.193204 67.475335 
L 99.532755 69.26393 
L 99.617642 70.047733 
L 99.70253 69.899887 
L 99.787418 69.679707 
L 100.211856 74.09862 
L 100.381631 75.747313 
L 100.466519 76.004469 
L 100.975845 81.274204 
L 101.060733 81.580296 
L 102.24916 95.20532 
L 103.182925 113.873732 
L 103.692251 128.175575 
L 104.626015 167.710055 
L 104.795791 171.889115 
L 105.135341 180.403589 
L 105.220229 180.031331 
L 105.305117 178.876801 
L 105.474892 180.308289 
L 105.729555 178.616164 
L 106.153993 151.314334 
L 106.408656 144.676157 
L 106.663319 143.597153 
L 106.833095 142.876021 
L 107.087758 140.296575 
L 107.851747 129.487585 
L 108.361073 126.222812 
L 108.530848 125.973788 
L 108.700624 126.221787 
L 108.955287 127.277825 
L 109.20995 129.8703 
L 109.5495 136.445387 
L 110.313489 159.646022 
L 111.501917 215.254344 
L 111.926355 233.373129 
L 112.350794 241.700846 
L 112.86012 247.132748 
L 113.284558 250.146799 
L 113.878772 252.64986 
L 114.557873 254.419715 
L 116.000964 257.196824 
L 117.868493 259.488848 
L 119.05692 260.472444 
L 120.245348 261.371919 
L 121.009337 262.280097 
L 121.943101 263.432468 
L 122.112876 263.245747 
L 122.367539 262.321905 
L 122.622202 261.443864 
L 123.471079 260.16498 
L 124.574619 257.828065 
L 124.744394 257.901699 
L 124.999057 258.31726 
L 125.593271 259.933787 
L 126.527035 262.358433 
L 127.206137 263.503105 
L 127.800351 264.099183 
L 128.56434 264.5473 
L 129.243441 264.688827 
L 130.177206 264.686407 
L 131.535408 264.40573 
L 133.148274 263.780194 
L 135.100691 262.666929 
L 135.949567 262.069927 
L 136.543781 261.610212 
L 136.96822 261.196493 
L 137.30777 260.9673 
L 137.647321 260.622435 
L 139.090411 259.233179 
L 139.684625 259.311118 
L 140.109064 259.65355 
L 140.448614 260.176846 
L 140.873053 261.190333 
L 141.467266 263.277595 
L 143.419683 270.925919 
L 144.183672 273.031197 
L 145.032549 274.8072 
L 145.966313 276.302913 
L 146.984965 277.556361 
L 147.833842 278.36227 
L 148.343168 278.53197 
L 148.597831 278.359833 
L 149.022269 277.671557 
L 149.701371 276.634418 
L 150.720023 275.232662 
L 151.90845 273.35622 
L 152.332889 273.23724 
L 152.67244 273.387151 
L 153.521316 274.134076 
L 154.030642 274.594701 
L 154.455081 274.633749 
L 155.21907 274.385397 
L 155.728396 274.329081 
L 156.237722 274.328492 
L 157.426149 274.126331 
L 158.105251 274.388072 
L 158.444801 275.078468 
L 159.718117 278.17626 
L 160.142555 278.870772 
L 160.736769 279.959046 
L 161.161207 280.267979 
L 161.500758 280.333629 
L 162.858961 280.144387 
L 163.198511 280.387735 
L 164.386939 281.832332 
L 165.320703 283.183217 
L 165.660254 283.467209 
L 166.424243 284.288028 
L 166.848681 284.392139 
L 167.188232 284.250615 
L 167.527783 283.796024 
L 168.037109 282.973942 
L 169.480199 281.922038 
L 169.904638 281.385891 
L 170.413964 280.895299 
L 170.753514 280.179601 
L 171.26284 279.237903 
L 171.602391 279.100337 
L 171.941942 279.177734 
L 172.281493 279.514399 
L 172.790819 280.420086 
L 174.488572 284.03795 
L 175.167674 284.513935 
L 175.507224 284.55419 
L 175.931663 284.526169 
L 176.356101 285.012016 
L 176.695652 285.229723 
L 177.035202 285.091908 
L 177.374753 284.803593 
L 178.732956 282.984309 
L 179.157394 282.705245 
L 179.836496 282.156528 
L 180.176046 282.131819 
L 180.515597 282.347539 
L 181.024923 283.046789 
L 181.958688 284.424724 
L 182.722677 285.216835 
L 183.911104 285.669798 
L 184.165767 285.385491 
L 184.505318 284.654112 
L 185.184419 282.442673 
L 185.693745 281.052161 
L 186.118184 280.526781 
L 186.542622 280.116764 
L 187.561274 278.625995 
L 188.410151 277.796156 
L 188.664814 277.705901 
L 188.919477 277.983386 
L 190.107904 279.684683 
L 191.211444 280.8105 
L 193.92785 285.393948 
L 194.2674 285.3634 
L 194.946502 285.098531 
L 195.880266 285.789367 
L 196.219817 285.607166 
L 196.559368 285.139063 
L 198.002458 282.866444 
L 198.342009 282.932091 
L 198.68156 283.278787 
L 199.445549 284.135495 
L 200.633976 284.880116 
L 201.058415 285.707554 
L 201.652628 287.47466 
L 204.284146 296.20605 
L 205.133023 298.137873 
L 206.066787 299.671042 
L 207.170327 301.089049 
L 208.104092 302.002158 
L 208.273867 301.943388 
L 208.358755 301.692551 
L 208.52853 299.554069 
L 208.952968 289.944891 
L 209.292519 282.567896 
L 209.547182 279.149944 
L 209.886733 274.811237 
L 210.056508 271.732092 
L 210.396059 255.850965 
L 211.160048 226.494241 
L 211.754262 215.934904 
L 212.348475 211.713935 
L 212.772914 211.601996 
L 212.857801 211.238347 
L 213.027577 211.664256 
L 213.706678 214.382774 
L 214.895106 223.477684 
L 215.574207 230.165763 
L 216.168421 236.400245 
L 217.017297 243.623732 
L 218.715051 251.51181 
L 218.884826 251.493878 
L 219.139489 251.634596 
L 219.309265 250.726635 
L 219.563928 249.516157 
L 219.648815 249.512987 
L 219.733703 249.344782 
L 219.903478 247.40403 
L 220.158141 243.210497 
L 220.327917 241.522004 
L 220.667468 229.805912 
L 221.007018 210.201901 
L 221.346569 186.974934 
L 221.601232 182.129166 
L 221.771007 181.433975 
L 221.855895 181.43672 
L 222.02567 179.993647 
L 222.619884 171.022795 
L 223.383873 153.388178 
L 223.553648 152.87921 
L 223.723424 154.073403 
L 223.978087 158.333348 
L 224.487413 172.21667 
L 224.826964 184.496117 
L 226.270054 251.897956 
L 226.694492 258.801774 
L 227.118931 262.853441 
L 227.713145 266.537255 
L 228.477134 269.773371 
L 229.241123 272.101775 
L 229.920224 273.571775 
L 231.023764 275.453467 
L 233.400619 278.840513 
L 234.843709 280.451869 
L 236.201912 281.889258 
L 236.796126 282.977282 
L 237.475227 284.167806 
L 237.899666 284.504991 
L 238.324104 284.542982 
L 238.663655 284.387444 
L 239.088093 283.893491 
L 239.767194 282.954735 
L 240.361408 282.224898 
L 240.785847 281.33563 
L 241.549836 278.847608 
L 242.228937 276.353101 
L 242.992926 274.455871 
L 243.756915 273.115566 
L 244.096466 272.849762 
L 244.351129 272.878934 
L 244.69068 273.159078 
L 245.200006 273.992975 
L 247.322198 277.867598 
L 247.491973 277.899147 
L 247.746636 277.642586 
L 248.255962 277.032216 
L 248.595513 276.921595 
L 248.850176 277.127184 
L 249.444389 277.762173 
L 250.547929 277.830214 
L 251.057255 278.265533 
L 251.227031 278.209618 
L 251.566581 277.761614 
L 251.906132 277.03413 
L 252.245683 276.327597 
L 252.500346 276.239198 
L 252.839897 276.388167 
L 253.518998 277.032642 
L 254.282987 277.71127 
L 254.622538 277.939246 
L 254.877201 278.434597 
L 255.471414 280.471559 
L 256.065628 282.217715 
L 256.574954 282.87736 
L 256.914505 283.068852 
L 257.423831 283.17576 
L 258.102932 283.334721 
L 258.442483 283.168163 
L 258.866921 282.621461 
L 260.819338 279.599552 
L 261.83799 279.293901 
L 262.771755 278.473162 
L 263.111305 278.474469 
L 263.450856 278.493221 
L 263.790407 278.414279 
L 264.04507 278.660591 
L 264.809059 280.200696 
L 265.742823 281.937052 
L 265.997486 282.084891 
L 266.5917 282.125861 
L 267.101026 282.539637 
L 267.610352 282.936962 
L 267.865015 282.808565 
L 268.374341 282.420689 
L 268.883667 282.072906 
L 269.308106 281.433923 
L 270.24187 279.782399 
L 270.666308 278.912695 
L 271.175634 278.08182 
L 271.939623 277.894427 
L 272.958276 276.903299 
L 273.212939 277.092306 
L 273.552489 277.751268 
L 274.316478 279.955037 
L 274.99558 281.988385 
L 275.33513 282.410918 
L 275.674681 282.564578 
L 276.184007 282.306844 
L 276.523558 281.964019 
L 277.372435 280.822203 
L 277.881761 279.408855 
L 278.391087 278.188386 
L 278.560862 278.092378 
L 278.730638 278.233949 
L 279.070188 279.004193 
L 279.494627 279.872065 
L 280.173728 280.662906 
L 280.428391 280.945162 
L 281.19238 282.017063 
L 281.447043 281.963286 
L 281.701706 281.658256 
L 283.144797 279.057342 
L 283.39946 278.749413 
L 283.73901 278.760556 
L 284.248336 278.939055 
L 285.012325 279.445589 
L 285.436764 279.92801 
L 285.861202 280.812312 
L 286.455416 282.744305 
L 287.38918 286.545095 
L 288.577608 291.316539 
L 289.766035 295.272415 
L 290.6998 297.552805 
L 291.548676 298.997182 
L 292.567329 300.31384 
L 292.991767 300.601414 
L 293.24643 300.578474 
L 293.840644 300.322112 
L 294.434857 300.518031 
L 295.113959 300.671521 
L 295.708173 300.60843 
L 296.387274 300.279751 
L 297.660589 299.562932 
L 298.254803 299.557384 
L 299.358343 299.827628 
L 300.037444 300.332933 
L 301.140984 301.145425 
L 301.989861 301.547328 
L 302.75385 301.68436 
L 303.348063 301.59108 
L 303.942277 301.240502 
L 304.536491 300.585853 
L 305.215592 299.435311 
L 306.064469 297.539628 
L 306.488907 295.972943 
L 306.998233 293.153734 
L 307.762222 287.193658 
L 308.695987 278.343656 
L 309.375088 270.253094 
L 311.242617 251.761968 
L 312.431045 246.439832 
L 312.770595 246.197156 
L 313.025258 245.569244 
L 313.279921 245.749674 
L 313.449697 245.385989 
L 313.619472 245.048359 
L 313.874135 245.162479 
L 314.04391 244.744781 
L 314.213686 244.376307 
L 314.383461 244.592869 
L 314.553237 244.759962 
L 314.892787 244.127789 
L 314.977675 244.196599 
L 315.14745 244.40084 
L 315.317226 244.266846 
L 315.487001 244.169444 
L 316.335878 245.89261 
L 316.760316 246.905223 
L 316.845204 246.824006 
L 317.014979 245.020591 
L 317.269642 241.186556 
L 317.35453 241.26718 
L 317.778968 242.640699 
L 318.118519 243.270084 
L 318.203407 243.246924 
L 318.373182 242.80314 
L 318.882508 240.534436 
L 318.967396 240.502681 
L 319.137171 240.970651 
L 319.306946 242.151519 
L 319.646497 246.364082 
L 321.089588 266.925495 
L 322.023352 273.809572 
L 323.296667 280.249928 
L 324.060656 283.395724 
L 325.164196 286.889484 
L 325.928185 288.54971 
L 326.607286 289.416514 
L 327.710826 290.390693 
L 329.663243 291.981409 
L 330.427232 293.002718 
L 331.615659 295.038968 
L 333.313413 297.84421 
L 334.50184 299.283728 
L 335.860043 300.617046 
L 337.388021 301.781421 
L 339.000887 302.767157 
L 340.528865 303.553024 
L 342.566169 304.398799 
L 345.45235 305.311459 
L 349.10252 306.204048 
L 354.026006 307.174213 
L 359.968143 308.120732 
L 380.850511 310.718889 
L 397.912934 312.35318 
L 413.02294 313.596815 
L 430.764464 315.153932 
L 442.648739 316.251018 
L 459.286723 317.545295 
L 474.566505 319.025549 
L 483.394823 319.933012 
L 490.270725 320.340608 
L 516.585904 321.887053 
L 531.016809 322.691019 
L 549.437434 323.505784 
L 579.91211 324.93333 
L 594.682565 325.646619 
L 607.67038 326.00798 
L 628.46786 326.322175 
L 669.977933 326.684948 
L 671.675687 326.697088 
L 671.675687 326.697088 
" clip-path="url(#pc40c001a68)" style="fill: none; stroke: #1f77b4; stroke-width: 1.5; stroke-linecap: square"/>
   </g>
   <g id="line2d_13">
    <path d="M 60.654199 328.617802 
L 61.503076 328.529488 
L 62.09729 328.272491 
L 62.861279 327.752917 
L 65.917235 324.732668 
L 67.105663 323.388813 
L 69.058079 321.629464 
L 69.737181 321.476254 
L 70.586057 321.539098 
L 71.859373 321.903217 
L 73.387351 322.34413 
L 74.236227 322.106987 
L 74.660666 321.757121 
L 75.169992 321.16601 
L 76.613082 318.232375 
L 77.546847 315.409242 
L 79.499263 307.149045 
L 81.281905 296.793519 
L 85.696064 260.414182 
L 87.903143 246.623966 
L 88.836908 243.514419 
L 89.091571 243.057783 
L 89.261346 243.072526 
L 89.431121 242.467097 
L 90.534661 233.788171 
L 90.874212 233.013191 
L 91.043987 232.982515 
L 91.213763 233.162571 
L 91.468426 233.773813 
L 91.892864 235.50831 
L 92.571965 239.478431 
L 92.996404 242.276003 
L 93.081291 242.237606 
L 93.420842 238.792971 
L 93.590617 236.22314 
L 93.930168 224.079456 
L 94.524382 196.291429 
L 96.476798 84.803763 
L 97.240787 63.676589 
L 97.750114 58.141699 
L 97.919889 57.884968 
L 98.25944 57.02 
L 98.853653 59.742198 
L 99.70253 68.757864 
L 100.381631 78.63219 
L 103.946914 136.40582 
L 104.626015 143.411911 
L 104.965566 145.025325 
L 105.220229 146.200636 
L 105.305117 146.058572 
L 105.814443 142.79908 
L 106.069106 135.655916 
L 106.578432 121.597802 
L 106.917982 117.612632 
L 107.087758 117.123004 
L 107.257533 117.485252 
L 107.512196 119.285649 
L 107.936635 124.34047 
L 108.785511 138.425096 
L 112.265906 197.442959 
L 113.539221 214.35894 
L 114.727649 227.414327 
L 115.916076 238.278541 
L 117.104504 247.353047 
L 118.292931 254.934928 
L 119.566246 261.76998 
L 120.754674 267.075828 
L 121.688438 270.579556 
L 122.027989 270.96038 
L 122.367539 270.87309 
L 122.961753 270.840964 
L 123.386192 271.164723 
L 123.725742 271.546894 
L 124.489731 272.875033 
L 127.4608 278.879737 
L 128.56434 280.594033 
L 129.582992 281.790199 
L 130.00743 282.164865 
L 130.346981 282.403969 
L 131.620296 283.153816 
L 132.55406 283.402366 
L 133.063387 283.345694 
L 133.233162 283.321456 
L 133.572713 283.224385 
L 134.506477 282.976884 
L 134.846028 282.796492 
L 135.355354 282.45683 
L 136.034455 281.875054 
L 136.883332 281.018619 
L 137.392658 280.403977 
L 137.562433 280.203131 
L 137.986872 279.622736 
L 138.156647 279.381997 
L 138.581085 278.699888 
L 139.429962 277.812832 
L 139.769513 277.833817 
L 140.193951 278.162148 
L 140.703277 278.952976 
L 141.382379 280.511255 
L 142.485918 283.717038 
L 145.796538 293.646602 
L 147.324516 297.465005 
L 147.91873 298.246329 
L 148.597831 298.087062 
L 149.107157 297.709179 
L 149.616483 297.251464 
L 150.040922 297.073202 
L 150.635135 297.132819 
L 151.5689 297.321469 
L 151.993338 297.312203 
L 154.11553 297.341209 
L 154.539968 297.112463 
L 155.303957 296.348477 
L 155.728396 296.018628 
L 157.680812 295.343974 
L 158.105251 295.319029 
L 158.954128 295.420444 
L 159.97278 294.559391 
L 160.227443 294.296708 
L 161.755421 293.340835 
L 162.264747 293.503678 
L 162.858961 293.984812 
L 163.368287 294.392592 
L 163.877613 294.475296 
L 164.471826 294.527735 
L 164.896265 294.3138 
L 165.660254 294.020277 
L 165.999805 294.098523 
L 166.678906 294.513431 
L 166.848681 294.592308 
L 168.037109 293.951708 
L 169.734862 291.742372 
L 170.668627 291.540663 
L 172.111717 292.038154 
L 172.790819 292.087658 
L 173.385032 292.46874 
L 174.149021 293.095076 
L 175.082786 293.338826 
L 175.846775 293.253145 
L 176.01655 293.265306 
L 176.356101 293.203481 
L 176.780539 293.022062 
L 177.204978 292.765675 
L 177.799191 292.169493 
L 178.22363 291.954553 
L 178.902731 291.960977 
L 179.581833 292.286119 
L 180.176046 292.934888 
L 180.685372 293.526562 
L 181.109811 293.828314 
L 181.534249 293.884695 
L 181.958688 293.725134 
L 182.128463 293.618167 
L 182.552901 293.216598 
L 183.232003 292.755417 
L 183.571553 292.612465 
L 184.250655 292.276393 
L 184.590205 291.974571 
L 185.269307 291.004651 
L 186.62751 289.546418 
L 187.306611 289.202908 
L 187.731049 288.993792 
L 188.0706 288.759669 
L 188.664814 288.457283 
L 189.343915 288.523001 
L 189.683466 288.588031 
L 190.702118 288.927389 
L 191.126556 289.292185 
L 191.466107 289.562244 
L 192.484759 290.356017 
L 193.588299 291.449309 
L 193.758074 291.440767 
L 194.437176 290.906552 
L 194.861614 290.732506 
L 195.880266 290.899816 
L 196.814031 291.229594 
L 197.238469 291.042689 
L 197.493132 290.820986 
L 198.172234 290.475521 
L 198.511784 290.560184 
L 198.936223 290.930916 
L 199.530436 291.831553 
L 200.464201 293.751184 
L 204.538809 302.631066 
L 206.32145 305.804209 
L 207.849429 308.237664 
L 208.019204 307.946305 
L 208.443642 304.980371 
L 208.783193 300.527757 
L 209.462294 287.901593 
L 212.008925 239.457815 
L 212.772914 230.643949 
L 213.452015 225.48607 
L 214.131117 222.497364 
L 214.555555 221.373873 
L 214.895106 220.762746 
L 215.319544 220.449817 
L 215.574207 220.445231 
L 215.743982 220.534969 
L 215.913758 220.629453 
L 216.168421 220.920281 
L 216.762634 222.138717 
L 217.696399 224.842466 
L 218.460388 227.228342 
L 218.799939 227.802493 
L 219.054602 227.662586 
L 219.563928 226.796343 
L 219.733703 225.871625 
L 220.243029 221.78465 
L 220.752355 210.953417 
L 221.091906 192.869208 
L 221.601232 167.468683 
L 221.940783 158.602288 
L 222.280333 154.983561 
L 222.450109 154.627083 
L 222.534996 154.686079 
L 222.704772 155.255348 
L 223.044322 157.755841 
L 223.553648 163.467002 
L 224.911851 182.771156 
L 227.118931 213.654556 
L 228.477134 229.356643 
L 229.750449 241.642327 
L 231.108652 252.591964 
L 232.466854 261.763983 
L 233.655282 268.415959 
L 234.504159 272.1172 
L 235.18326 274.297914 
L 236.032137 276.418761 
L 237.645003 280.243971 
L 238.154329 281.144298 
L 238.578767 281.670184 
L 239.342756 282.188705 
L 240.106745 282.655587 
L 241.125397 282.376285 
L 241.634723 281.904589 
L 242.738263 280.802259 
L 243.162702 280.755631 
L 243.502252 280.866219 
L 244.096466 281.408123 
L 244.945343 282.169607 
L 245.115118 282.238299 
L 245.454669 282.218089 
L 246.558209 282.111396 
L 248.001299 282.899283 
L 248.595513 283.312717 
L 248.765288 283.444532 
L 249.019951 283.52455 
L 249.359502 283.533869 
L 249.699053 283.346813 
L 250.208379 283.175978 
L 251.311918 283.211165 
L 251.566581 283.06915 
L 252.160795 282.735003 
L 252.500346 282.774402 
L 252.924784 283.115025 
L 253.518998 283.997363 
L 253.858549 284.457148 
L 255.131864 285.985931 
L 255.726077 286.780023 
L 256.150516 287.076317 
L 256.490067 287.074037 
L 258.357595 286.909439 
L 259.206472 287.131883 
L 259.546023 287.0774 
L 259.885574 286.876469 
L 260.310012 286.61531 
L 260.73445 286.304379 
L 262.007765 285.851111 
L 262.517092 286.013218 
L 263.111305 286.299483 
L 263.875294 286.519115 
L 264.893946 287.405479 
L 265.48816 288.014324 
L 265.912599 288.087634 
L 266.252149 288.012162 
L 267.610352 287.713191 
L 268.03479 287.572305 
L 269.13833 287.504104 
L 269.562769 287.333052 
L 269.987207 286.884166 
L 270.156982 286.649413 
L 270.666308 285.750546 
L 271.090747 285.220642 
L 271.515185 285.055436 
L 271.939623 285.207473 
L 272.364062 285.611227 
L 273.722265 287.220425 
L 274.316478 287.447554 
L 274.486254 287.48522 
L 274.825804 287.394908 
L 275.080467 287.24048 
L 275.929344 286.106714 
L 276.43867 285.605071 
L 276.778221 285.570404 
L 277.117772 285.674162 
L 278.560862 286.729898 
L 278.730638 286.877684 
L 279.070188 286.981791 
L 279.324851 286.948888 
L 279.834177 286.554726 
L 280.258616 286.326006 
L 281.022605 286.350239 
L 281.19238 286.340913 
L 281.531931 286.18587 
L 282.975021 285.376493 
L 283.314572 285.118096 
L 283.654123 285.03242 
L 283.993673 285.171005 
L 284.418112 285.644027 
L 285.012325 286.734847 
L 285.94609 289.018948 
L 289.59626 298.399543 
L 291.294013 302.004671 
L 292.14289 303.544443 
L 292.821992 303.683839 
L 293.416205 303.715848 
L 293.925531 303.971281 
L 294.604633 304.603243 
L 295.623285 305.909017 
L 297.915252 308.927252 
L 299.867669 310.098321 
L 302.329411 312.225138 
L 302.75385 312.299674 
L 303.178288 312.234664 
L 304.281828 311.249339 
L 305.640031 308.520458 
L 307.337784 302.90853 
L 308.695987 296.235628 
L 310.05419 285.390359 
L 311.582168 272.187481 
L 312.346157 266.201556 
L 313.279921 259.131518 
L 314.468349 251.348626 
L 315.487001 246.102453 
L 316.25099 243.639791 
L 316.505653 243.330005 
L 316.590541 243.274012 
L 316.760316 242.623183 
L 317.863856 233.872038 
L 318.118519 233.170057 
L 318.373182 233.016168 
L 318.542957 233.180273 
L 318.79762 233.768778 
L 319.222059 235.439094 
L 319.90116 239.201771 
L 323.466442 260.601995 
L 324.65487 266.13138 
L 325.75841 270.487006 
L 328.389928 279.788663 
L 330.766783 288.03635 
L 332.040098 291.774909 
L 334.077402 296.942622 
L 335.860043 300.898117 
L 337.642684 304.314514 
L 339.425325 307.259484 
L 341.292854 309.918781 
L 343.245271 312.308987 
L 345.282575 314.448112 
L 347.404767 316.354501 
L 349.696734 318.106212 
L 352.073589 319.642957 
L 354.620219 321.028137 
L 357.421513 322.295469 
L 360.477469 323.42922 
L 363.872976 324.445172 
L 367.692921 325.346881 
L 372.022193 326.131477 
L 377.030566 326.804426 
L 382.972703 327.368712 
L 390.188155 327.822123 
L 399.440912 328.170789 
L 412.258951 328.416352 
L 432.716881 328.561245 
L 479.659765 328.61473 
L 671.675687 328.617802 
L 671.675687 328.617802 
" clip-path="url(#pc40c001a68)" style="fill: none; stroke: #ff7f0e; stroke-width: 1.5; stroke-linecap: square"/>
   </g>
   <g id="patch_3">
    <path d="M 30.103125 342.2 
L 30.103125 43.44 
" style="fill: none; stroke: #000000; stroke-width: 0.8; stroke-linejoin: miter; stroke-linecap: square"/>
   </g>
   <g id="patch_4">
    <path d="M 702.226761 342.2 
L 702.226761 43.44 
" style="fill: none; stroke: #000000; stroke-width: 0.8; stroke-linejoin: miter; stroke-linecap: square"/>
   </g>
   <g id="patch_5">
    <path d="M 30.103125 342.2 
L 702.226761 342.2 
" style="fill: none; stroke: #000000; stroke-width: 0.8; stroke-linejoin: miter; stroke-linecap: square"/>
   </g>
   <g id="patch_6">
    <path d="M 30.103125 43.44 
L 702.226761 43.44 
" style="fill: none; stroke: #000000; stroke-width: 0.8; stroke-linejoin: miter; stroke-linecap: square"/>
   </g>
   <g id="text_12">
    <!-- 1 transformation(s) -->
    <g transform="translate(308.050256 37.44) scale(0.12 -0.12)">
     <defs>
      <path id="DejaVuSans-20" transform="scale(0.015625)"/>
      <path id="DejaVuSans-74" d="M 1172 4494 
L 1172 3500 
L 2356 3500 
L 2356 3053 
L 1172 3053 
L 1172 1153 
Q 1172 725 1289 603 
Q 1406 481 1766 481 
L 2356 481 
L 2356 0 
L 1766 0 
Q 1100 0 847 248 
Q 594 497 594 1153 
L 594 3053 
L 172 3053 
L 172 3500 
L 594 3500 
L 594 4494 
L 1172 4494 
z
" transform="scale(0.015625)"/>
      <path id="DejaVuSans-72" d="M 2631 2963 
Q 2534 3019 2420 3045 
Q 2306 3072 2169 3072 
Q 1681 3072 1420 2755 
Q 1159 2438 1159 1844 
L 1159 0 
L 581 0 
L 581 3500 
L 1159 3500 
L 1159 2956 
Q 1341 3275 1631 3429 
Q 1922 3584 2338 3584 
Q 2397 3584 2469 3576 
Q 2541 3569 2628 3553 
L 2631 2963 
z
" transform="scale(0.015625)"/>
      <path id="DejaVuSans-61" d="M 2194 1759 
Q 1497 1759 1228 1600 
Q 959 1441 959 1056 
Q 959 750 1161 570 
Q 1363 391 1709 391 
Q 2188 391 2477 730 
Q 2766 1069 2766 1631 
L 2766 1759 
L 2194 1759 
z
M 3341 1997 
L 3341 0 
L 2766 0 
L 2766 531 
Q 2569 213 2275 61 
Q 1981 -91 1556 -91 
Q 1019 -91 701 211 
Q 384 513 384 1019 
Q 384 1609 779 1909 
Q 1175 2209 1959 2209 
L 2766 2209 
L 2766 2266 
Q 2766 2663 2505 2880 
Q 2244 3097 1772 3097 
Q 1472 3097 1187 3025 
Q 903 2953 641 2809 
L 641 3341 
Q 956 3463 1253 3523 
Q 1550 3584 1831 3584 
Q 2591 3584 2966 3190 
Q 3341 2797 3341 1997 
z
" transform="scale(0.015625)"/>
      <path id="DejaVuSans-6e" d="M 3513 2113 
L 3513 0 
L 2938 0 
L 2938 2094 
Q 2938 2591 2744 2837 
Q 2550 3084 2163 3084 
Q 1697 3084 1428 2787 
Q 1159 2491 1159 1978 
L 1159 0 
L 581 0 
L 581 3500 
L 1159 3500 
L 1159 2956 
Q 1366 3272 1645 3428 
Q 1925 3584 2291 3584 
Q 2894 3584 3203 3211 
Q 3513 2838 3513 2113 
z
" transform="scale(0.015625)"/>
      <path id="DejaVuSans-73" d="M 2834 3397 
L 2834 2853 
Q 2591 2978 2328 3040 
Q 2066 3103 1784 3103 
Q 1356 3103 1142 2972 
Q 928 2841 928 2578 
Q 928 2378 1081 2264 
Q 1234 2150 1697 2047 
L 1894 2003 
Q 2506 1872 2764 1633 
Q 3022 1394 3022 966 
Q 3022 478 2636 193 
Q 2250 -91 1575 -91 
Q 1294 -91 989 -36 
Q 684 19 347 128 
L 347 722 
Q 666 556 975 473 
Q 1284 391 1588 391 
Q 1994 391 2212 530 
Q 2431 669 2431 922 
Q 2431 1156 2273 1281 
Q 2116 1406 1581 1522 
L 1381 1569 
Q 847 1681 609 1914 
Q 372 2147 372 2553 
Q 372 3047 722 3315 
Q 1072 3584 1716 3584 
Q 2034 3584 2315 3537 
Q 2597 3491 2834 3397 
z
" transform="scale(0.015625)"/>
      <path id="DejaVuSans-66" d="M 2375 4863 
L 2375 4384 
L 1825 4384 
Q 1516 4384 1395 4259 
Q 1275 4134 1275 3809 
L 1275 3500 
L 2222 3500 
L 2222 3053 
L 1275 3053 
L 1275 0 
L 697 0 
L 697 3053 
L 147 3053 
L 147 3500 
L 697 3500 
L 697 3744 
Q 697 4328 969 4595 
Q 1241 4863 1831 4863 
L 2375 4863 
z
" transform="scale(0.015625)"/>
      <path id="DejaVuSans-6f" d="M 1959 3097 
Q 1497 3097 1228 2736 
Q 959 2375 959 1747 
Q 959 1119 1226 758 
Q 1494 397 1959 397 
Q 2419 397 2687 759 
Q 2956 1122 2956 1747 
Q 2956 2369 2687 2733 
Q 2419 3097 1959 3097 
z
M 1959 3584 
Q 2709 3584 3137 3096 
Q 3566 2609 3566 1747 
Q 3566 888 3137 398 
Q 2709 -91 1959 -91 
Q 1206 -91 779 398 
Q 353 888 353 1747 
Q 353 2609 779 3096 
Q 1206 3584 1959 3584 
z
" transform="scale(0.015625)"/>
      <path id="DejaVuSans-6d" d="M 3328 2828 
Q 3544 3216 3844 3400 
Q 4144 3584 4550 3584 
Q 5097 3584 5394 3201 
Q 5691 2819 5691 2113 
L 5691 0 
L 5113 0 
L 5113 2094 
Q 5113 2597 4934 2840 
Q 4756 3084 4391 3084 
Q 3944 3084 3684 2787 
Q 3425 2491 3425 1978 
L 3425 0 
L 2847 0 
L 2847 2094 
Q 2847 2600 2669 2842 
Q 2491 3084 2119 3084 
Q 1678 3084 1418 2786 
Q 1159 2488 1159 1978 
L 1159 0 
L 581 0 
L 581 3500 
L 1159 3500 
L 1159 2956 
Q 1356 3278 1631 3431 
Q 1906 3584 2284 3584 
Q 2666 3584 2933 3390 
Q 3200 3197 3328 2828 
z
" transform="scale(0.015625)"/>
      <path id="DejaVuSans-69" d="M 603 3500 
L 1178 3500 
L 1178 0 
L 603 0 
L 603 3500 
z
M 603 4863 
L 1178 4863 
L 1178 4134 
L 603 4134 
L 603 4863 
z
" transform="scale(0.015625)"/>
      <path id="DejaVuSans-28" d="M 1984 4856 
Q 1566 4138 1362 3434 
Q 1159 2731 1159 2009 
Q 1159 1288 1364 580 
Q 1569 -128 1984 -844 
L 1484 -844 
Q 1016 -109 783 600 
Q 550 1309 550 2009 
Q 550 2706 781 3412 
Q 1013 4119 1484 4856 
L 1984 4856 
z
" transform="scale(0.015625)"/>
      <path id="DejaVuSans-29" d="M 513 4856 
L 1013 4856 
Q 1481 4119 1714 3412 
Q 1947 2706 1947 2009 
Q 1947 1309 1714 600 
Q 1481 -109 1013 -844 
L 513 -844 
Q 928 -128 1133 580 
Q 1338 1288 1338 2009 
Q 1338 2731 1133 3434 
Q 928 4138 513 4856 
z
" transform="scale(0.015625)"/>
     </defs>
     <use xlink:href="#DejaVuSans-31"/>
     <use xlink:href="#DejaVuSans-20" x="63.623047"/>
     <use xlink:href="#DejaVuSans-74" x="95.410156"/>
     <use xlink:href="#DejaVuSans-72" x="134.619141"/>
     <use xlink:href="#DejaVuSans-61" x="175.732422"/>
     <use xlink:href="#DejaVuSans-6e" x="237.011719"/>
     <use xlink:href="#DejaVuSans-73" x="300.390625"/>
     <use xlink:href="#DejaVuSans-66" x="352.490234"/>
     <use xlink:href="#DejaVuSans-6f" x="387.695312"/>
     <use xlink:href="#DejaVuSans-72" x="448.876953"/>
     <use xlink:href="#DejaVuSans-6d" x="488.240234"/>
     <use xlink:href="#DejaVuSans-61" x="585.652344"/>
     <use xlink:href="#DejaVuSans-74" x="646.931641"/>
     <use xlink:href="#DejaVuSans-69" x="686.140625"/>
     <use xlink:href="#DejaVuSans-6f" x="713.923828"/>
     <use xlink:href="#DejaVuSans-6e" x="775.105469"/>
     <use xlink:href="#DejaVuSans-28" x="838.484375"/>
     <use xlink:href="#DejaVuSans-73" x="877.498047"/>
     <use xlink:href="#DejaVuSans-29" x="929.597656"/>
    </g>
   </g>
   <g id="legend_1">
    <g id="patch_7">
     <path d="M 613.833011 80.79625 
L 695.226761 80.79625 
Q 697.226761 80.79625 697.226761 78.79625 
L 697.226761 50.44 
Q 697.226761 48.44 695.226761 48.44 
L 613.833011 48.44 
Q 611.833011 48.44 611.833011 50.44 
L 611.833011 78.79625 
Q 611.833011 80.79625 613.833011 80.79625 
z
" style="fill: #ffffff; opacity: 0.8; stroke: #cccccc; stroke-linejoin: miter"/>
    </g>
    <g id="line2d_14">
     <path d="M 615.833011 56.538437 
L 625.833011 56.538437 
L 635.833011 56.538437 
" style="fill: none; stroke: #1f77b4; stroke-width: 1.5; stroke-linecap: square"/>
    </g>
    <g id="text_13">
     <!-- observed -->
     <g transform="translate(643.833011 60.038437) scale(0.1 -0.1)">
      <defs>
       <path id="DejaVuSans-62" d="M 3116 1747 
Q 3116 2381 2855 2742 
Q 2594 3103 2138 3103 
Q 1681 3103 1420 2742 
Q 1159 2381 1159 1747 
Q 1159 1113 1420 752 
Q 1681 391 2138 391 
Q 2594 391 2855 752 
Q 3116 1113 3116 1747 
z
M 1159 2969 
Q 1341 3281 1617 3432 
Q 1894 3584 2278 3584 
Q 2916 3584 3314 3078 
Q 3713 2572 3713 1747 
Q 3713 922 3314 415 
Q 2916 -91 2278 -91 
Q 1894 -91 1617 61 
Q 1341 213 1159 525 
L 1159 0 
L 581 0 
L 581 4863 
L 1159 4863 
L 1159 2969 
z
" transform="scale(0.015625)"/>
       <path id="DejaVuSans-65" d="M 3597 1894 
L 3597 1613 
L 953 1613 
Q 991 1019 1311 708 
Q 1631 397 2203 397 
Q 2534 397 2845 478 
Q 3156 559 3463 722 
L 3463 178 
Q 3153 47 2828 -22 
Q 2503 -91 2169 -91 
Q 1331 -91 842 396 
Q 353 884 353 1716 
Q 353 2575 817 3079 
Q 1281 3584 2069 3584 
Q 2775 3584 3186 3129 
Q 3597 2675 3597 1894 
z
M 3022 2063 
Q 3016 2534 2758 2815 
Q 2500 3097 2075 3097 
Q 1594 3097 1305 2825 
Q 1016 2553 972 2059 
L 3022 2063 
z
" transform="scale(0.015625)"/>
       <path id="DejaVuSans-76" d="M 191 3500 
L 800 3500 
L 1894 563 
L 2988 3500 
L 3597 3500 
L 2284 0 
L 1503 0 
L 191 3500 
z
" transform="scale(0.015625)"/>
       <path id="DejaVuSans-64" d="M 2906 2969 
L 2906 4863 
L 3481 4863 
L 3481 0 
L 2906 0 
L 2906 525 
Q 2725 213 2448 61 
Q 2172 -91 1784 -91 
Q 1150 -91 751 415 
Q 353 922 353 1747 
Q 353 2572 751 3078 
Q 1150 3584 1784 3584 
Q 2172 3584 2448 3432 
Q 2725 3281 2906 2969 
z
M 947 1747 
Q 947 1113 1208 752 
Q 1469 391 1925 391 
Q 2381 391 2643 752 
Q 2906 1113 2906 1747 
Q 2906 2381 2643 2742 
Q 2381 3103 1925 3103 
Q 1469 3103 1208 2742 
Q 947 2381 947 1747 
z
" transform="scale(0.015625)"/>
      </defs>
      <use xlink:href="#DejaVuSans-6f"/>
      <use xlink:href="#DejaVuSans-62" x="61.181641"/>
      <use xlink:href="#DejaVuSans-73" x="124.658203"/>
      <use xlink:href="#DejaVuSans-65" x="176.757812"/>
      <use xlink:href="#DejaVuSans-72" x="238.28125"/>
      <use xlink:href="#DejaVuSans-76" x="279.394531"/>
      <use xlink:href="#DejaVuSans-65" x="338.574219"/>
      <use xlink:href="#DejaVuSans-64" x="400.097656"/>
     </g>
    </g>
    <g id="line2d_15">
     <path d="M 615.833011 71.216563 
L 625.833011 71.216563 
L 635.833011 71.216563 
" style="fill: none; stroke: #ff7f0e; stroke-width: 1.5; stroke-linecap: square"/>
    </g>
    <g id="text_14">
     <!-- simulated -->
     <g transform="translate(643.833011 74.716563) scale(0.1 -0.1)">
      <defs>
       <path id="DejaVuSans-75" d="M 544 1381 
L 544 3500 
L 1119 3500 
L 1119 1403 
Q 1119 906 1312 657 
Q 1506 409 1894 409 
Q 2359 409 2629 706 
Q 2900 1003 2900 1516 
L 2900 3500 
L 3475 3500 
L 3475 0 
L 2900 0 
L 2900 538 
Q 2691 219 2414 64 
Q 2138 -91 1772 -91 
Q 1169 -91 856 284 
Q 544 659 544 1381 
z
M 1991 3584 
L 1991 3584 
z
" transform="scale(0.015625)"/>
       <path id="DejaVuSans-6c" d="M 603 4863 
L 1178 4863 
L 1178 0 
L 603 0 
L 603 4863 
z
" transform="scale(0.015625)"/>
      </defs>
      <use xlink:href="#DejaVuSans-73"/>
      <use xlink:href="#DejaVuSans-69" x="52.099609"/>
      <use xlink:href="#DejaVuSans-6d" x="79.882812"/>
      <use xlink:href="#DejaVuSans-75" x="177.294922"/>
      <use xlink:href="#DejaVuSans-6c" x="240.673828"/>
      <use xlink:href="#DejaVuSans-61" x="268.457031"/>
      <use xlink:href="#DejaVuSans-74" x="329.736328"/>
      <use xlink:href="#DejaVuSans-65" x="368.945312"/>
      <use xlink:href="#DejaVuSans-64" x="430.46875"/>
     </g>
    </g>
   </g>
  </g>
  <g id="axes_2">
   <g id="patch_8">
    <path d="M 30.103125 684.92 
L 702.226761 684.92 
L 702.226761 386.16 
L 30.103125 386.16 
z
" style="fill: #ffffff"/>
   </g>
   <g id="matplotlib.axis_3">
    <g id="xtick_7">
     <g id="line2d_16">
      <g>
       <use xlink:href="#m81601949db" x="60.484424" y="684.92" style="stroke: #000000; stroke-width: 0.8"/>
      </g>
     </g>
     <g id="text_15">
      <!-- 2014-07-01 -->
      <g transform="translate(31.426612 699.518437) scale(0.1 -0.1)">
       <use xlink:href="#DejaVuSans-32"/>
       <use xlink:href="#DejaVuSans-30" x="63.623047"/>
       <use xlink:href="#DejaVuSans-31" x="127.246094"/>
       <use xlink:href="#DejaVuSans-34" x="190.869141"/>
       <use xlink:href="#DejaVuSans-2d" x="254.492188"/>
       <use xlink:href="#DejaVuSans-30" x="290.576172"/>
       <use xlink:href="#DejaVuSans-37" x="354.199219"/>
       <use xlink:href="#DejaVuSans-2d" x="417.822266"/>
       <use xlink:href="#DejaVuSans-30" x="453.90625"/>
       <use xlink:href="#DejaVuSans-31" x="517.529297"/>
      </g>
     </g>
    </g>
    <g id="xtick_8">
     <g id="line2d_17">
      <g>
       <use xlink:href="#m81601949db" x="182.722677" y="684.92" style="stroke: #000000; stroke-width: 0.8"/>
      </g>
     </g>
     <g id="text_16">
      <!-- 2014-07-02 -->
      <g transform="translate(153.664864 699.518437) scale(0.1 -0.1)">
       <use xlink:href="#DejaVuSans-32"/>
       <use xlink:href="#DejaVuSans-30" x="63.623047"/>
       <use xlink:href="#DejaVuSans-31" x="127.246094"/>
       <use xlink:href="#DejaVuSans-34" x="190.869141"/>
       <use xlink:href="#DejaVuSans-2d" x="254.492188"/>
       <use xlink:href="#DejaVuSans-30" x="290.576172"/>
       <use xlink:href="#DejaVuSans-37" x="354.199219"/>
       <use xlink:href="#DejaVuSans-2d" x="417.822266"/>
       <use xlink:href="#DejaVuSans-30" x="453.90625"/>
       <use xlink:href="#DejaVuSans-32" x="517.529297"/>
      </g>
     </g>
    </g>
    <g id="xtick_9">
     <g id="line2d_18">
      <g>
       <use xlink:href="#m81601949db" x="304.960929" y="684.92" style="stroke: #000000; stroke-width: 0.8"/>
      </g>
     </g>
     <g id="text_17">
      <!-- 2014-07-03 -->
      <g transform="translate(275.903117 699.518437) scale(0.1 -0.1)">
       <use xlink:href="#DejaVuSans-32"/>
       <use xlink:href="#DejaVuSans-30" x="63.623047"/>
       <use xlink:href="#DejaVuSans-31" x="127.246094"/>
       <use xlink:href="#DejaVuSans-34" x="190.869141"/>
       <use xlink:href="#DejaVuSans-2d" x="254.492188"/>
       <use xlink:href="#DejaVuSans-30" x="290.576172"/>
       <use xlink:href="#DejaVuSans-37" x="354.199219"/>
       <use xlink:href="#DejaVuSans-2d" x="417.822266"/>
       <use xlink:href="#DejaVuSans-30" x="453.90625"/>
       <use xlink:href="#DejaVuSans-33" x="517.529297"/>
      </g>
     </g>
    </g>
    <g id="xtick_10">
     <g id="line2d_19">
      <g>
       <use xlink:href="#m81601949db" x="427.199182" y="684.92" style="stroke: #000000; stroke-width: 0.8"/>
      </g>
     </g>
     <g id="text_18">
      <!-- 2014-07-04 -->
      <g transform="translate(398.141369 699.518437) scale(0.1 -0.1)">
       <use xlink:href="#DejaVuSans-32"/>
       <use xlink:href="#DejaVuSans-30" x="63.623047"/>
       <use xlink:href="#DejaVuSans-31" x="127.246094"/>
       <use xlink:href="#DejaVuSans-34" x="190.869141"/>
       <use xlink:href="#DejaVuSans-2d" x="254.492188"/>
       <use xlink:href="#DejaVuSans-30" x="290.576172"/>
       <use xlink:href="#DejaVuSans-37" x="354.199219"/>
       <use xlink:href="#DejaVuSans-2d" x="417.822266"/>
       <use xlink:href="#DejaVuSans-30" x="453.90625"/>
       <use xlink:href="#DejaVuSans-34" x="517.529297"/>
      </g>
     </g>
    </g>
    <g id="xtick_11">
     <g id="line2d_20">
      <g>
       <use xlink:href="#m81601949db" x="549.437434" y="684.92" style="stroke: #000000; stroke-width: 0.8"/>
      </g>
     </g>
     <g id="text_19">
      <!-- 2014-07-05 -->
      <g transform="translate(520.379622 699.518437) scale(0.1 -0.1)">
       <use xlink:href="#DejaVuSans-32"/>
       <use xlink:href="#DejaVuSans-30" x="63.623047"/>
       <use xlink:href="#DejaVuSans-31" x="127.246094"/>
       <use xlink:href="#DejaVuSans-34" x="190.869141"/>
       <use xlink:href="#DejaVuSans-2d" x="254.492188"/>
       <use xlink:href="#DejaVuSans-30" x="290.576172"/>
       <use xlink:href="#DejaVuSans-37" x="354.199219"/>
       <use xlink:href="#DejaVuSans-2d" x="417.822266"/>
       <use xlink:href="#DejaVuSans-30" x="453.90625"/>
       <use xlink:href="#DejaVuSans-35" x="517.529297"/>
      </g>
     </g>
    </g>
    <g id="xtick_12">
     <g id="line2d_21">
      <g>
       <use xlink:href="#m81601949db" x="671.675687" y="684.92" style="stroke: #000000; stroke-width: 0.8"/>
      </g>
     </g>
     <g id="text_20">
      <!-- 2014-07-06 -->
      <g transform="translate(642.617874 699.518437) scale(0.1 -0.1)">
       <use xlink:href="#DejaVuSans-32"/>
       <use xlink:href="#DejaVuSans-30" x="63.623047"/>
       <use xlink:href="#DejaVuSans-31" x="127.246094"/>
       <use xlink:href="#DejaVuSans-34" x="190.869141"/>
       <use xlink:href="#DejaVuSans-2d" x="254.492188"/>
       <use xlink:href="#DejaVuSans-30" x="290.576172"/>
       <use xlink:href="#DejaVuSans-37" x="354.199219"/>
       <use xlink:href="#DejaVuSans-2d" x="417.822266"/>
       <use xlink:href="#DejaVuSans-30" x="453.90625"/>
       <use xlink:href="#DejaVuSans-36" x="517.529297"/>
      </g>
     </g>
    </g>
   </g>
   <g id="matplotlib.axis_4">
    <g id="ytick_6">
     <g id="line2d_22">
      <g>
       <use xlink:href="#m1ea1bcf7e0" x="30.103125" y="671.338979" style="stroke: #000000; stroke-width: 0.8"/>
      </g>
     </g>
     <g id="text_21">
      <!-- 0.0 -->
      <g transform="translate(7.2 675.138198) scale(0.1 -0.1)">
       <use xlink:href="#DejaVuSans-30"/>
       <use xlink:href="#DejaVuSans-2e" x="63.623047"/>
       <use xlink:href="#DejaVuSans-30" x="95.410156"/>
      </g>
     </g>
    </g>
    <g id="ytick_7">
     <g id="line2d_23">
      <g>
       <use xlink:href="#m1ea1bcf7e0" x="30.103125" y="608.599982" style="stroke: #000000; stroke-width: 0.8"/>
      </g>
     </g>
     <g id="text_22">
      <!-- 0.5 -->
      <g transform="translate(7.2 612.399201) scale(0.1 -0.1)">
       <use xlink:href="#DejaVuSans-30"/>
       <use xlink:href="#DejaVuSans-2e" x="63.623047"/>
       <use xlink:href="#DejaVuSans-35" x="95.410156"/>
      </g>
     </g>
    </g>
    <g id="ytick_8">
     <g id="line2d_24">
      <g>
       <use xlink:href="#m1ea1bcf7e0" x="30.103125" y="545.860985" style="stroke: #000000; stroke-width: 0.8"/>
      </g>
     </g>
     <g id="text_23">
      <!-- 1.0 -->
      <g transform="translate(7.2 549.660203) scale(0.1 -0.1)">
       <use xlink:href="#DejaVuSans-31"/>
       <use xlink:href="#DejaVuSans-2e" x="63.623047"/>
       <use xlink:href="#DejaVuSans-30" x="95.410156"/>
      </g>
     </g>
    </g>
    <g id="ytick_9">
     <g id="line2d_25">
      <g>
       <use xlink:href="#m1ea1bcf7e0" x="30.103125" y="483.121987" style="stroke: #000000; stroke-width: 0.8"/>
      </g>
     </g>
     <g id="text_24">
      <!-- 1.5 -->
      <g transform="translate(7.2 486.921206) scale(0.1 -0.1)">
       <use xlink:href="#DejaVuSans-31"/>
       <use xlink:href="#DejaVuSans-2e" x="63.623047"/>
       <use xlink:href="#DejaVuSans-35" x="95.410156"/>
      </g>
     </g>
    </g>
    <g id="ytick_10">
     <g id="line2d_26">
      <g>
       <use xlink:href="#m1ea1bcf7e0" x="30.103125" y="420.38299" style="stroke: #000000; stroke-width: 0.8"/>
      </g>
     </g>
     <g id="text_25">
      <!-- 2.0 -->
      <g transform="translate(7.2 424.182209) scale(0.1 -0.1)">
       <use xlink:href="#DejaVuSans-32"/>
       <use xlink:href="#DejaVuSans-2e" x="63.623047"/>
       <use xlink:href="#DejaVuSans-30" x="95.410156"/>
      </g>
     </g>
    </g>
   </g>
   <g id="line2d_27">
    <path d="M 60.654199 671.338979 
L 66.935887 671.231025 
L 68.378978 670.976916 
L 69.906956 670.471611 
L 71.859373 669.841333 
L 73.217575 669.633462 
L 75.000217 669.616977 
L 76.952633 669.587293 
L 77.631734 669.383004 
L 78.056173 669.025092 
L 78.395724 668.400952 
L 78.735274 667.291166 
L 79.2446 664.454902 
L 80.433028 657.372999 
L 81.112129 654.047918 
L 81.366792 651.213997 
L 81.621455 645.844818 
L 81.961006 633.093608 
L 82.385444 617.889893 
L 82.809883 608.402355 
L 83.404096 601.325306 
L 83.743647 598.459304 
L 83.99831 597.030861 
L 84.168085 596.280628 
L 84.507636 594.442384 
L 84.762299 593.885739 
L 85.10185 592.575369 
L 85.356513 592.702303 
L 85.526288 592.198154 
L 85.780951 591.532981 
L 85.950727 591.498517 
L 86.20539 590.598523 
L 86.375165 590.255892 
L 86.54494 590.213373 
L 86.969379 589.125969 
L 87.054266 589.171898 
L 87.139154 589.143859 
L 87.308929 588.615836 
L 87.478705 588.104903 
L 87.818256 588.047928 
L 88.072919 587.523226 
L 88.242694 587.744188 
L 88.497357 588.136143 
L 88.75202 588.175865 
L 89.176458 589.252432 
L 89.516009 589.966699 
L 89.600897 589.498643 
L 89.940447 584.306126 
L 90.025335 584.42535 
L 90.449773 586.042535 
L 90.789324 586.885553 
L 90.874212 586.885104 
L 91.043987 586.479402 
L 91.638201 584.070595 
L 91.807976 584.415904 
L 92.062639 586.464347 
L 92.571965 594.071572 
L 93.166179 602.758498 
L 93.251067 602.736398 
L 93.335954 601.128375 
L 93.590617 591.314098 
L 93.760393 590.114104 
L 93.930168 580.526607 
L 94.184831 568.659004 
L 94.269719 566.717579 
L 94.863933 525.574632 
L 95.203483 498.283262 
L 96.561686 421.923799 
L 96.901237 412.137464 
L 97.071012 410.850944 
L 97.240787 411.661166 
L 97.495451 408.199194 
L 97.665226 407.512855 
L 97.750114 407.606582 
L 97.835001 407.910143 
L 98.089664 404.34852 
L 98.25944 403.548379 
L 98.344327 403.618413 
L 98.429215 403.958441 
L 98.683878 401.559843 
L 98.853653 401.502404 
L 99.023429 402.330337 
L 99.193204 400.895821 
L 99.532755 402.748118 
L 99.617642 403.559836 
L 99.70253 403.406725 
L 99.787418 403.178703 
L 100.211856 407.754997 
L 100.381631 409.462409 
L 100.466519 409.728724 
L 100.975845 415.186143 
L 101.060733 415.503136 
L 102.24916 429.613421 
L 103.182925 448.946715 
L 103.692251 463.757924 
L 104.626015 504.700439 
L 104.795791 509.028339 
L 105.135341 517.846059 
L 105.220229 517.460543 
L 105.305117 516.264894 
L 105.474892 517.747365 
L 105.729555 515.994974 
L 106.153993 487.720779 
L 106.408656 480.846181 
L 106.663319 479.728748 
L 106.833095 478.981933 
L 107.087758 476.310618 
L 107.851747 465.116662 
L 108.361073 461.735613 
L 108.530848 461.47772 
L 108.700624 461.734551 
L 108.955287 462.828201 
L 109.20995 465.513008 
L 109.5495 472.322268 
L 110.313489 496.349204 
L 111.501917 553.938038 
L 111.926355 572.70213 
L 112.350794 581.326442 
L 112.86012 586.951803 
L 113.284558 590.073201 
L 113.878772 592.665409 
L 114.557873 594.498298 
L 116.000964 597.374315 
L 117.868493 599.74797 
L 119.05692 600.766597 
L 120.245348 601.698108 
L 121.009337 602.638631 
L 121.943101 603.832044 
L 122.112876 603.638673 
L 122.367539 602.681927 
L 122.622202 601.772615 
L 123.471079 600.448183 
L 124.574619 598.028038 
L 124.744394 598.104295 
L 124.999057 598.534655 
L 125.593271 600.208756 
L 126.527035 602.719757 
L 127.206137 603.905197 
L 127.800351 604.522504 
L 128.56434 604.986581 
L 129.243441 605.133148 
L 130.092318 605.142033 
L 131.535408 604.839969 
L 133.148274 604.192154 
L 135.100691 603.03924 
L 135.949567 602.420975 
L 136.543781 601.944887 
L 136.96822 601.516434 
L 137.30777 601.279078 
L 137.647321 600.92193 
L 139.005524 599.496785 
L 139.51485 599.493689 
L 139.854401 599.678063 
L 140.278839 600.152954 
L 140.703277 601.035387 
L 141.212603 602.662504 
L 141.976592 605.928323 
L 143.334795 611.308644 
L 144.183672 613.772635 
L 145.032549 615.611892 
L 145.966313 617.160875 
L 146.984965 618.458965 
L 147.833842 619.293577 
L 148.343168 619.46932 
L 148.597831 619.291053 
L 149.022269 618.578263 
L 149.701371 617.504187 
L 150.720023 616.052506 
L 151.90845 614.109234 
L 152.248001 613.982905 
L 152.587552 614.086546 
L 153.351541 614.709037 
L 154.030642 615.391824 
L 154.455081 615.432263 
L 155.21907 615.175065 
L 155.728396 615.116744 
L 156.237722 615.116134 
L 156.831936 614.852343 
L 157.171486 614.818501 
L 158.105251 615.177836 
L 158.444801 615.892821 
L 159.718117 619.100942 
L 160.142555 619.820189 
L 160.736769 620.947222 
L 161.161207 621.267158 
L 161.500758 621.335146 
L 162.858961 621.139165 
L 163.198511 621.39118 
L 164.386939 622.887226 
L 165.320703 624.286223 
L 165.660254 624.58033 
L 166.424243 625.430383 
L 166.763794 625.542165 
L 167.103344 625.452319 
L 167.358007 625.204519 
L 168.291772 623.914409 
L 169.225536 623.340801 
L 169.649975 622.69507 
L 170.074413 622.295799 
L 170.413964 621.91682 
L 170.753514 621.175633 
L 171.26284 620.200395 
L 171.602391 620.05793 
L 171.941942 620.138084 
L 172.281493 620.486739 
L 172.790819 621.424682 
L 174.488572 625.171398 
L 175.167674 625.664336 
L 175.507224 625.706024 
L 175.931663 625.677005 
L 176.356101 626.180156 
L 176.695652 626.405616 
L 177.035202 626.262893 
L 177.374753 625.96431 
L 178.732956 624.080231 
L 179.157394 623.791228 
L 179.836496 623.222969 
L 180.176046 623.197379 
L 180.515597 623.420783 
L 181.024923 624.144936 
L 181.958688 625.571947 
L 182.722677 626.39227 
L 183.911104 626.861365 
L 184.165767 626.566932 
L 184.505318 625.809504 
L 185.184419 623.519304 
L 185.693745 622.079269 
L 186.118184 621.535178 
L 186.542622 621.110557 
L 187.561274 619.566694 
L 188.410151 618.7073 
L 188.664814 618.61383 
L 188.919477 618.901199 
L 190.107904 620.663088 
L 191.211444 621.829001 
L 193.92785 626.57569 
L 194.2674 626.544054 
L 194.946502 626.269752 
L 195.880266 626.985192 
L 196.219817 626.796503 
L 196.559368 626.311728 
L 198.002458 623.958169 
L 198.342009 624.026154 
L 198.68156 624.385198 
L 199.445549 625.272417 
L 200.633976 626.043558 
L 201.058415 626.900465 
L 201.652628 628.730508 
L 204.284146 637.77287 
L 205.133023 639.773495 
L 206.066787 641.361268 
L 207.170327 642.829778 
L 208.104092 643.775408 
L 208.273867 643.714545 
L 208.358755 643.454775 
L 208.52853 641.24013 
L 208.952968 631.288717 
L 209.292519 623.648988 
L 209.547182 620.109304 
L 209.886733 615.616073 
L 210.056508 612.427262 
L 210.396059 595.980523 
L 211.160048 565.578247 
L 211.754262 554.642835 
L 212.348475 550.271535 
L 212.772914 550.15561 
L 212.857801 549.779008 
L 213.027577 550.220087 
L 213.706678 553.035426 
L 214.895106 562.454254 
L 215.574207 569.380532 
L 216.168421 575.837058 
L 217.017297 583.317812 
L 218.715051 591.486827 
L 218.884826 591.468257 
L 219.139489 591.613986 
L 219.309265 590.673688 
L 219.563928 589.420098 
L 219.648815 589.416815 
L 219.733703 589.24262 
L 219.903478 587.232746 
L 220.158141 582.889859 
L 220.327917 581.14123 
L 220.667468 569.007865 
L 221.007018 548.705649 
L 221.346569 524.651445 
L 221.601232 519.633093 
L 221.771007 518.913143 
L 221.855895 518.915985 
L 222.02567 517.421517 
L 222.619884 508.131164 
L 223.383873 489.868484 
L 223.553648 489.341389 
L 223.723424 490.578113 
L 223.978087 494.989778 
L 224.487413 509.367559 
L 224.826964 522.084344 
L 226.270054 591.886726 
L 226.694492 599.036426 
L 227.118931 603.232395 
L 227.713145 607.047409 
L 228.477134 610.398781 
L 229.241123 612.810112 
L 229.920224 614.332466 
L 231.023764 616.281175 
L 233.400619 619.788852 
L 234.843709 621.457597 
L 236.201912 622.946179 
L 236.796126 624.072954 
L 237.475227 625.305879 
L 237.899666 625.655073 
L 238.324104 625.694417 
L 238.663655 625.53334 
L 239.088093 625.021794 
L 239.767194 624.049604 
L 240.361408 623.293773 
L 240.785847 622.372834 
L 241.549836 619.7962 
L 242.228937 617.212851 
L 242.992926 615.24805 
L 243.756915 613.860009 
L 244.096466 613.584738 
L 244.351129 613.61495 
L 244.69068 613.90507 
L 245.200006 614.768668 
L 247.322198 618.781287 
L 247.491973 618.813959 
L 247.746636 618.548261 
L 248.255962 617.916152 
L 248.510625 617.789349 
L 248.765288 617.922424 
L 249.529277 618.672844 
L 250.547929 618.742571 
L 251.057255 619.193395 
L 251.227031 619.135488 
L 251.566581 618.671527 
L 251.906132 617.918134 
L 252.245683 617.186438 
L 252.500346 617.094891 
L 252.839897 617.249165 
L 253.518998 617.916594 
L 254.282987 618.619391 
L 254.622538 618.855486 
L 254.877201 619.36848 
L 255.471414 621.477989 
L 256.065628 623.286335 
L 256.574954 623.969473 
L 256.914505 624.167785 
L 257.423831 624.278501 
L 258.102932 624.443123 
L 258.442483 624.270633 
L 258.866921 623.70446 
L 260.819338 620.574925 
L 261.753102 620.326896 
L 262.432204 619.64132 
L 262.771755 619.408418 
L 263.111305 619.409772 
L 263.450856 619.429191 
L 263.790407 619.347437 
L 264.04507 619.602522 
L 264.809059 621.197479 
L 265.742823 622.995676 
L 265.997486 623.14878 
L 266.5917 623.191209 
L 267.101026 623.619722 
L 267.610352 624.031198 
L 267.865015 623.898228 
L 268.374341 623.496538 
L 268.883667 623.136368 
L 269.308106 622.474628 
L 270.24187 620.764284 
L 270.666308 619.863605 
L 271.175634 619.003138 
L 271.939623 618.809071 
L 272.958276 617.782644 
L 273.212939 617.978382 
L 273.552489 618.660814 
L 274.316478 620.943071 
L 274.99558 623.048837 
L 275.33513 623.486419 
L 275.674681 623.645551 
L 276.184007 623.378638 
L 276.523558 623.023603 
L 277.372435 621.84112 
L 277.796873 620.638557 
L 278.391087 619.113499 
L 278.560862 619.014073 
L 278.730638 619.160685 
L 279.070188 619.958362 
L 279.494627 620.857144 
L 280.173728 621.676151 
L 280.428391 621.968459 
L 281.19238 623.078537 
L 281.447043 623.022844 
L 281.701706 622.70695 
L 283.144797 620.013404 
L 283.39946 619.694507 
L 283.73901 619.706048 
L 284.248336 619.890904 
L 285.012325 620.415479 
L 285.436764 620.915081 
L 285.861202 621.830878 
L 286.455416 623.831679 
L 287.38918 627.767836 
L 288.577608 632.709217 
L 289.766035 636.805983 
L 290.6998 639.16759 
L 291.548676 640.663409 
L 292.567329 642.02696 
L 292.991767 642.324777 
L 293.24643 642.301019 
L 293.840644 642.035527 
L 294.34997 642.204932 
L 295.113959 642.39738 
L 295.708173 642.332043 
L 296.302386 642.046798 
L 297.745477 641.233322 
L 298.339691 641.257423 
L 299.358343 641.523432 
L 300.037444 642.046733 
L 301.140984 642.888162 
L 301.989861 643.30438 
L 302.75385 643.446291 
L 303.348063 643.34969 
L 303.942277 642.986626 
L 304.536491 642.308661 
L 305.215592 641.117142 
L 306.064469 639.153944 
L 306.488907 637.53146 
L 306.998233 634.611844 
L 307.762222 628.439497 
L 308.695987 619.274299 
L 309.375088 610.895589 
L 311.242617 591.745895 
L 312.431045 586.234208 
L 312.770595 585.982889 
L 313.025258 585.332614 
L 313.279921 585.519471 
L 313.449697 585.142832 
L 313.619472 584.793178 
L 313.874135 584.911362 
L 314.04391 584.478788 
L 314.213686 584.097191 
L 314.383461 584.321466 
L 314.553237 584.494509 
L 314.892787 583.839821 
L 314.977675 583.911081 
L 315.14745 584.122597 
L 315.317226 583.98383 
L 315.487001 583.88296 
L 316.25099 585.39911 
L 316.760316 586.716174 
L 316.845204 586.632065 
L 317.014979 584.764421 
L 317.269642 580.793834 
L 317.35453 580.877331 
L 317.778968 582.299768 
L 318.118519 582.951569 
L 318.203407 582.927584 
L 318.373182 582.467995 
L 318.882508 580.118489 
L 318.967396 580.085604 
L 319.137171 580.57024 
L 319.306946 581.793166 
L 319.646497 586.15576 
L 321.089588 607.449476 
L 322.023352 614.578733 
L 323.296667 621.248464 
L 324.060656 624.506299 
L 325.164196 628.12449 
L 325.928185 629.843846 
L 326.607286 630.741522 
L 327.710826 631.750396 
L 329.663243 633.397766 
L 330.427232 634.455449 
L 331.615659 636.564222 
L 333.313413 639.469374 
L 334.50184 640.96016 
L 335.860043 642.340965 
L 337.388021 643.54681 
L 339.000887 644.567653 
L 340.528865 645.381509 
L 342.566169 646.257407 
L 345.367463 647.17826 
L 348.932745 648.088775 
L 354.280669 649.177678 
L 360.392581 650.165304 
L 365.400954 650.854901 
L 374.483935 652.046883 
L 382.71804 652.996265 
L 407.250578 655.297777 
L 433.82042 657.728493 
L 440.866098 658.394288 
L 463.955545 660.292067 
L 472.274537 661.143999 
L 483.819261 662.376823 
L 491.798703 662.848119 
L 507.078484 663.76261 
L 532.290124 665.264514 
L 552.832941 666.194278 
L 574.05486 667.202878 
L 596.804757 668.33892 
L 610.301898 668.690407 
L 631.523817 668.996535 
L 671.675687 669.349858 
L 671.675687 669.349858 
" clip-path="url(#pa25d932821)" style="fill: none; stroke: #1f77b4; stroke-width: 1.5; stroke-linecap: square"/>
   </g>
   <g id="line2d_28">
    <path d="M 60.654199 671.338979 
L 61.418188 671.245825 
L 62.012402 670.856961 
L 62.946167 669.865435 
L 64.983471 667.147088 
L 68.039427 662.590254 
L 68.633641 662.004396 
L 69.142967 661.768176 
L 69.737181 661.744738 
L 70.50117 661.975196 
L 71.774485 662.649614 
L 73.132688 663.310108 
L 73.557126 663.306438 
L 74.15134 662.948289 
L 74.830441 661.976846 
L 75.509543 660.412973 
L 76.443307 657.608844 
L 77.292184 654.060285 
L 78.480611 647.798993 
L 80.857466 632.636784 
L 84.762299 598.961706 
L 85.441401 595.441664 
L 86.629828 591.705057 
L 86.969379 591.221595 
L 87.224042 590.804959 
L 87.903143 590.660263 
L 88.582245 591.961608 
L 89.176458 593.986807 
L 89.346234 594.45628 
L 89.431121 594.29362 
L 90.19511 590.545026 
L 90.449773 590.318099 
L 90.619549 590.50438 
L 90.874212 591.246787 
L 91.213763 593.030651 
L 91.723089 596.989036 
L 92.571965 605.631312 
L 92.996404 609.854287 
L 93.081291 609.703763 
L 93.50573 605.094824 
L 93.675505 601.060853 
L 94.524382 563.926669 
L 95.627922 494.673236 
L 96.391911 446.646612 
L 97.1559 412.493781 
L 97.750114 401.288962 
L 98.174552 399.74 
L 98.25944 399.813595 
L 99.278092 403.946557 
L 99.447867 404.251453 
L 99.872305 405.477034 
L 100.042081 405.981605 
L 100.296744 407.712726 
L 100.80607 412.67798 
L 101.485171 423.427153 
L 102.503823 444.829234 
L 103.946914 476.065775 
L 104.541128 484.729239 
L 104.880678 487.471323 
L 105.220229 489.275667 
L 105.305117 489.111613 
L 105.814443 485.139672 
L 106.069106 476.274346 
L 106.493544 462.673183 
L 106.917982 455.598992 
L 107.257533 453.068892 
L 107.512196 452.357975 
L 107.681972 452.32432 
L 107.851747 452.622747 
L 108.10641 453.764932 
L 108.445961 456.537914 
L 108.870399 462.43032 
L 109.379725 473.383292 
L 110.143714 496.301587 
L 111.926355 553.33506 
L 112.520569 564.860882 
L 113.114783 572.123475 
L 113.708997 576.566272 
L 114.30321 579.370024 
L 114.982312 581.478223 
L 115.831188 583.334576 
L 117.019616 585.332827 
L 118.972032 587.968629 
L 120.330235 589.505277 
L 121.348887 590.414709 
L 121.688438 590.692126 
L 121.858213 590.345303 
L 123.131528 585.021199 
L 123.640855 584.045482 
L 124.065293 583.596197 
L 124.574619 583.320147 
L 125.423496 583.442265 
L 125.932822 583.7397 
L 126.611923 584.401013 
L 127.885238 585.640077 
L 128.479452 585.916104 
L 129.073666 585.907669 
L 129.752767 585.628112 
L 132.044734 583.669733 
L 133.148274 582.110084 
L 134.506477 579.934346 
L 135.610017 577.715534 
L 136.458894 575.711297 
L 137.222883 573.849 
L 139.429962 568.34746 
L 139.769513 568.19383 
L 140.024176 568.33323 
L 140.363727 568.783026 
L 140.788165 569.742396 
L 141.382379 571.667055 
L 142.231255 575.246761 
L 144.26856 584.175717 
L 145.456987 588.136462 
L 147.324516 593.51538 
L 147.664067 593.99969 
L 148.003617 594.172614 
L 148.25828 593.907873 
L 148.852494 592.908269 
L 149.616483 591.666465 
L 150.040922 591.316854 
L 150.380472 591.337322 
L 151.5689 591.469561 
L 152.757327 591.287163 
L 153.096878 591.44817 
L 153.775979 591.912424 
L 154.11553 591.892115 
L 154.539968 591.475935 
L 156.32261 589.613807 
L 156.747048 589.513367 
L 157.341262 589.49943 
L 157.850588 589.200963 
L 158.190138 589.299318 
L 158.614577 589.560086 
L 159.039015 589.678562 
L 159.293678 589.391558 
L 160.142555 588.394221 
L 161.500758 587.075571 
L 161.840308 587.087734 
L 162.349635 587.451157 
L 162.858961 588.134831 
L 163.368287 588.870948 
L 164.641602 589.080218 
L 165.405591 588.490947 
L 165.745142 588.49891 
L 166.16958 588.786502 
L 166.933569 589.405467 
L 167.103344 589.263836 
L 168.291772 587.529508 
L 169.734862 584.656579 
L 170.668627 584.353342 
L 171.008177 584.600294 
L 171.347728 584.914456 
L 172.02683 585.045395 
L 172.451268 585.010793 
L 172.790819 585.189501 
L 173.215257 585.718834 
L 174.233909 587.191963 
L 174.828123 587.51631 
L 175.082786 587.377884 
L 175.592112 586.969784 
L 175.931663 587.002399 
L 176.186326 586.974961 
L 176.950315 586.283874 
L 178.138742 584.412018 
L 178.478293 584.325098 
L 179.157394 584.343663 
L 179.581833 584.634183 
L 180.006271 585.2435 
L 181.024923 586.924496 
L 181.279586 586.979812 
L 181.704025 586.902062 
L 182.383126 586.216498 
L 182.97734 585.407881 
L 183.401778 585.118648 
L 184.080879 584.57149 
L 184.590205 583.681258 
L 186.287959 580.125236 
L 186.882173 579.444493 
L 187.731049 579.001477 
L 188.664814 578.048656 
L 189.17414 578.239367 
L 190.532343 578.930944 
L 190.956781 579.350952 
L 191.635883 580.209967 
L 192.145209 580.628512 
L 192.654535 581.312453 
L 193.418524 582.461785 
L 193.758074 582.360087 
L 194.012737 581.951072 
L 194.606951 580.873193 
L 194.946502 580.645943 
L 195.540716 580.589933 
L 196.389592 580.603253 
L 196.983806 580.442573 
L 198.002458 578.837559 
L 198.257121 578.754734 
L 198.511784 578.874666 
L 198.851335 579.300093 
L 199.360661 580.350742 
L 200.209538 582.723978 
L 201.482853 587.003491 
L 203.350382 593.231338 
L 205.387686 598.986654 
L 207.849429 605.570726 
L 207.934316 605.418243 
L 208.188979 603.165843 
L 208.698305 596.18389 
L 209.716957 575.164995 
L 211.07516 546.158927 
L 211.924037 530.602064 
L 212.518251 523.617957 
L 212.857801 522.107201 
L 213.027577 521.906273 
L 213.197352 522.311571 
L 213.536903 524.606156 
L 213.876453 528.118245 
L 214.640443 539.061345 
L 217.102185 576.926055 
L 217.951062 586.241131 
L 218.460388 590.238552 
L 218.884826 591.953171 
L 219.054602 591.963995 
L 219.563928 591.222043 
L 219.818591 589.331517 
L 220.243029 584.768494 
L 220.752355 572.001263 
L 221.091906 549.596494 
L 221.516344 526.34571 
L 221.940783 513.950662 
L 222.365221 507.426664 
L 222.704772 504.856222 
L 222.959435 504.176864 
L 223.12921 504.354417 
L 223.298985 505.025306 
L 223.553648 507.070453 
L 223.893199 512.017051 
L 224.317638 521.929277 
L 224.996739 544.542048 
L 226.864268 611.191533 
L 227.373594 621.643702 
L 227.88292 628.048253 
L 228.392246 631.783615 
L 228.901572 634.03511 
L 229.495786 635.743509 
L 230.344663 637.486843 
L 231.957528 640.195794 
L 233.315731 642.164678 
L 233.825057 642.59817 
L 234.249496 642.750357 
L 234.843709 642.452929 
L 235.353035 641.736576 
L 236.201912 640.561262 
L 237.984553 638.873799 
L 238.663655 637.56437 
L 239.682307 635.031998 
L 240.446296 633.108699 
L 241.719611 628.383872 
L 242.568488 625.095827 
L 243.162702 623.622946 
L 243.58714 623.096292 
L 243.926691 622.983746 
L 244.860455 622.682193 
L 245.284893 622.280567 
L 246.13377 620.858667 
L 246.473321 620.569002 
L 246.812872 620.576312 
L 247.067535 620.645853 
L 247.322198 620.467103 
L 247.916411 619.790047 
L 248.34085 619.360166 
L 248.6804 619.270666 
L 248.935063 619.086078 
L 249.614165 617.734234 
L 250.123491 616.585616 
L 250.463042 616.220038 
L 250.717705 616.054995 
L 251.227031 615.312006 
L 251.651469 614.148724 
L 252.245683 612.823423 
L 252.585233 612.519074 
L 252.839897 612.493494 
L 253.179447 612.723135 
L 254.028324 613.495024 
L 254.452762 613.49921 
L 254.792313 613.734481 
L 255.301639 614.420171 
L 255.64119 614.822812 
L 256.150516 614.746145 
L 256.405179 614.429062 
L 257.763382 612.252302 
L 258.272708 611.598676 
L 259.036697 610.771499 
L 259.29136 610.559597 
L 259.715798 609.737039 
L 261.413552 606.393851 
L 262.262428 605.546097 
L 262.601979 605.520473 
L 263.026418 605.564544 
L 263.620631 605.091033 
L 263.960182 605.088814 
L 264.469508 605.352709 
L 265.148609 606.13019 
L 265.403272 606.420694 
L 265.573048 606.369098 
L 266.167262 605.742258 
L 266.761475 605.073745 
L 267.355689 604.455485 
L 268.03479 603.367684 
L 269.223218 602.096687 
L 269.817432 600.905706 
L 271.260522 596.940623 
L 271.68496 596.733339 
L 272.024511 596.813496 
L 272.364062 597.137652 
L 273.552489 598.64626 
L 274.656029 598.851401 
L 275.165355 598.228741 
L 275.674681 596.961953 
L 276.43867 595.087595 
L 276.778221 594.758994 
L 277.202659 594.650478 
L 277.881761 594.660818 
L 278.221311 594.581206 
L 278.560862 594.778425 
L 278.815525 594.983756 
L 278.985301 594.919709 
L 279.494627 594.434362 
L 280.08884 593.469133 
L 280.428391 593.300109 
L 280.767942 593.280972 
L 281.362155 592.893118 
L 282.211032 591.504181 
L 282.465695 591.201937 
L 283.73901 589.053198 
L 283.993673 589.124457 
L 284.333224 589.518409 
L 284.84255 590.596841 
L 285.606539 592.905928 
L 286.964742 597.942213 
L 288.407833 603.016703 
L 289.766035 606.853008 
L 292.14289 612.841016 
L 292.312666 612.968134 
L 292.652216 612.710386 
L 293.076655 612.453133 
L 293.416205 612.482883 
L 293.840644 612.804394 
L 294.34997 613.50493 
L 295.198847 615.116119 
L 296.811712 618.756518 
L 297.830364 621.00102 
L 299.273455 622.343098 
L 300.122332 623.776931 
L 302.074748 627.206016 
L 302.668962 627.713559 
L 303.178288 627.785228 
L 303.517839 627.596067 
L 303.942277 627.206335 
L 304.706266 625.792841 
L 305.640031 623.391414 
L 306.40402 620.552648 
L 307.84711 613.384037 
L 308.441324 609.751172 
L 309.290201 602.628413 
L 312.091494 577.244085 
L 312.855483 572.382068 
L 313.619472 569.113541 
L 314.128798 567.874019 
L 314.892787 567.361748 
L 315.317226 567.465846 
L 315.826552 568.104677 
L 316.420765 569.795972 
L 316.675428 570.685717 
L 316.760316 570.529356 
L 317.524305 566.976606 
L 317.694081 566.778982 
L 317.863856 566.860289 
L 318.118519 567.433488 
L 318.45807 568.98117 
L 318.967396 572.695598 
L 319.816272 581.023784 
L 320.665149 591.468269 
L 322.278015 612.463892 
L 322.872229 617.003444 
L 323.381555 619.291526 
L 323.890881 620.585184 
L 324.400207 621.287874 
L 324.909533 621.696618 
L 325.75841 622.079018 
L 326.777062 622.440427 
L 327.371276 622.991348 
L 328.050377 623.950444 
L 329.069029 625.825604 
L 332.294761 632.07728 
L 335.690268 637.918447 
L 338.321786 642.121833 
L 340.868416 645.779303 
L 343.415046 649.048524 
L 345.961676 651.95339 
L 348.508307 654.521331 
L 351.054937 656.781094 
L 353.686455 658.823163 
L 356.402861 660.651424 
L 359.204154 662.273445 
L 362.175222 663.738334 
L 365.316066 665.040379 
L 368.711573 666.20619 
L 372.446631 667.24717 
L 376.52124 668.148212 
L 381.105174 668.930443 
L 386.36821 669.597562 
L 392.56501 670.151972 
L 400.120013 670.596107 
L 409.882096 670.934126 
L 423.464124 671.165238 
L 445.789583 671.295792 
L 502.749213 671.337743 
L 671.675687 671.338979 
L 671.675687 671.338979 
" clip-path="url(#pa25d932821)" style="fill: none; stroke: #ff7f0e; stroke-width: 1.5; stroke-linecap: square"/>
   </g>
   <g id="patch_9">
    <path d="M 30.103125 684.92 
L 30.103125 386.16 
" style="fill: none; stroke: #000000; stroke-width: 0.8; stroke-linejoin: miter; stroke-linecap: square"/>
   </g>
   <g id="patch_10">
    <path d="M 702.226761 684.92 
L 702.226761 386.16 
" style="fill: none; stroke: #000000; stroke-width: 0.8; stroke-linejoin: miter; stroke-linecap: square"/>
   </g>
   <g id="patch_11">
    <path d="M 30.103125 684.92 
L 702.226761 684.92 
" style="fill: none; stroke: #000000; stroke-width: 0.8; stroke-linejoin: miter; stroke-linecap: square"/>
   </g>
   <g id="patch_12">
    <path d="M 30.103125 386.16 
L 702.226761 386.16 
" style="fill: none; stroke: #000000; stroke-width: 0.8; stroke-linejoin: miter; stroke-linecap: square"/>
   </g>
   <g id="text_26">
    <!-- 2 transformation(s) -->
    <g transform="translate(308.050256 380.16) scale(0.12 -0.12)">
     <use xlink:href="#DejaVuSans-32"/>
     <use xlink:href="#DejaVuSans-20" x="63.623047"/>
     <use xlink:href="#DejaVuSans-74" x="95.410156"/>
     <use xlink:href="#DejaVuSans-72" x="134.619141"/>
     <use xlink:href="#DejaVuSans-61" x="175.732422"/>
     <use xlink:href="#DejaVuSans-6e" x="237.011719"/>
     <use xlink:href="#DejaVuSans-73" x="300.390625"/>
     <use xlink:href="#DejaVuSans-66" x="352.490234"/>
     <use xlink:href="#DejaVuSans-6f" x="387.695312"/>
     <use xlink:href="#DejaVuSans-72" x="448.876953"/>
     <use xlink:href="#DejaVuSans-6d" x="488.240234"/>
     <use xlink:href="#DejaVuSans-61" x="585.652344"/>
     <use xlink:href="#DejaVuSans-74" x="646.931641"/>
     <use xlink:href="#DejaVuSans-69" x="686.140625"/>
     <use xlink:href="#DejaVuSans-6f" x="713.923828"/>
     <use xlink:href="#DejaVuSans-6e" x="775.105469"/>
     <use xlink:href="#DejaVuSans-28" x="838.484375"/>
     <use xlink:href="#DejaVuSans-73" x="877.498047"/>
     <use xlink:href="#DejaVuSans-29" x="929.597656"/>
    </g>
   </g>
  </g>
  <g id="text_27">
   <!-- training -->
   <g transform="translate(333.219687 16.318125) scale(0.12 -0.12)">
    <defs>
     <path id="DejaVuSans-67" d="M 2906 1791 
Q 2906 2416 2648 2759 
Q 2391 3103 1925 3103 
Q 1463 3103 1205 2759 
Q 947 2416 947 1791 
Q 947 1169 1205 825 
Q 1463 481 1925 481 
Q 2391 481 2648 825 
Q 2906 1169 2906 1791 
z
M 3481 434 
Q 3481 -459 3084 -895 
Q 2688 -1331 1869 -1331 
Q 1566 -1331 1297 -1286 
Q 1028 -1241 775 -1147 
L 775 -588 
Q 1028 -725 1275 -790 
Q 1522 -856 1778 -856 
Q 2344 -856 2625 -561 
Q 2906 -266 2906 331 
L 2906 616 
Q 2728 306 2450 153 
Q 2172 0 1784 0 
Q 1141 0 747 490 
Q 353 981 353 1791 
Q 353 2603 747 3093 
Q 1141 3584 1784 3584 
Q 2172 3584 2450 3431 
Q 2728 3278 2906 2969 
L 2906 3500 
L 3481 3500 
L 3481 434 
z
" transform="scale(0.015625)"/>
    </defs>
    <use xlink:href="#DejaVuSans-74"/>
    <use xlink:href="#DejaVuSans-72" x="39.208984"/>
    <use xlink:href="#DejaVuSans-61" x="80.322266"/>
    <use xlink:href="#DejaVuSans-69" x="141.601562"/>
    <use xlink:href="#DejaVuSans-6e" x="169.384766"/>
    <use xlink:href="#DejaVuSans-69" x="232.763672"/>
    <use xlink:href="#DejaVuSans-6e" x="260.546875"/>
    <use xlink:href="#DejaVuSans-67" x="323.925781"/>
   </g>
  </g>
 </g>
 <defs>
  <clipPath id="pc40c001a68">
   <rect x="30.103125" y="43.44" width="672.123636" height="298.76"/>
  </clipPath>
  <clipPath id="pa25d932821">
   <rect x="30.103125" y="386.16" width="672.123636" height="298.76"/>
  </clipPath>
 </defs>
</svg>
