<?xml version="1.0" encoding="utf-8" standalone="no"?>
<!DOCTYPE svg PUBLIC "-//W3C//DTD SVG 1.1//EN"
  "http://www.w3.org/Graphics/SVG/1.1/DTD/svg11.dtd">
<svg xmlns:xlink="http://www.w3.org/1999/xlink" width="709.398636pt" height="708.798125pt" viewBox="0 0 709.398636 708.798125" xmlns="http://www.w3.org/2000/svg" version="1.1">
 <metadata>
  <rdf:RDF xmlns:dc="http://purl.org/dc/elements/1.1/" xmlns:cc="http://creativecommons.org/ns#" xmlns:rdf="http://www.w3.org/1999/02/22-rdf-syntax-ns#">
   <cc:Work>
    <dc:type rdf:resource="http://purl.org/dc/dcmitype/StillImage"/>
    <dc:date>2023-06-08T14:23:45.840553</dc:date>
    <dc:format>image/svg+xml</dc:format>
    <dc:creator>
     <cc:Agent>
      <dc:title>Matplotlib v3.7.1, https://matplotlib.org/</dc:title>
     </cc:Agent>
    </dc:creator>
   </cc:Work>
  </rdf:RDF>
 </metadata>
 <defs>
  <style type="text/css">*{stroke-linejoin: round; stroke-linecap: butt}</style>
 </defs>
 <g id="figure_1">
  <g id="patch_1">
   <path d="M 0 708.798125 
L 709.398636 708.798125 
L 709.398636 0 
L 0 0 
z
" style="fill: #ffffff"/>
  </g>
  <g id="axes_1">
   <g id="patch_2">
    <path d="M 26.925 342.2 
L 702.198636 342.2 
L 702.198636 43.44 
L 26.925 43.44 
z
" style="fill: #ffffff"/>
   </g>
   <g id="matplotlib.axis_1">
    <g id="xtick_1">
     <g id="line2d_1">
      <defs>
       <path id="m5b208cff45" d="M 0 0 
L 0 3.5 
" style="stroke: #000000; stroke-width: 0.8"/>
      </defs>
      <g>
       <use xlink:href="#m5b208cff45" x="57.448685" y="342.2" style="stroke: #000000; stroke-width: 0.8"/>
      </g>
     </g>
     <g id="text_1">
      <!-- 2014-07-01 -->
      <g transform="translate(28.390873 356.798437) scale(0.1 -0.1)">
       <defs>
        <path id="DejaVuSans-32" d="M 1228 531 
L 3431 531 
L 3431 0 
L 469 0 
L 469 531 
Q 828 903 1448 1529 
Q 2069 2156 2228 2338 
Q 2531 2678 2651 2914 
Q 2772 3150 2772 3378 
Q 2772 3750 2511 3984 
Q 2250 4219 1831 4219 
Q 1534 4219 1204 4116 
Q 875 4013 500 3803 
L 500 4441 
Q 881 4594 1212 4672 
Q 1544 4750 1819 4750 
Q 2544 4750 2975 4387 
Q 3406 4025 3406 3419 
Q 3406 3131 3298 2873 
Q 3191 2616 2906 2266 
Q 2828 2175 2409 1742 
Q 1991 1309 1228 531 
z
" transform="scale(0.015625)"/>
        <path id="DejaVuSans-30" d="M 2034 4250 
Q 1547 4250 1301 3770 
Q 1056 3291 1056 2328 
Q 1056 1369 1301 889 
Q 1547 409 2034 409 
Q 2525 409 2770 889 
Q 3016 1369 3016 2328 
Q 3016 3291 2770 3770 
Q 2525 4250 2034 4250 
z
M 2034 4750 
Q 2819 4750 3233 4129 
Q 3647 3509 3647 2328 
Q 3647 1150 3233 529 
Q 2819 -91 2034 -91 
Q 1250 -91 836 529 
Q 422 1150 422 2328 
Q 422 3509 836 4129 
Q 1250 4750 2034 4750 
z
" transform="scale(0.015625)"/>
        <path id="DejaVuSans-31" d="M 794 531 
L 1825 531 
L 1825 4091 
L 703 3866 
L 703 4441 
L 1819 4666 
L 2450 4666 
L 2450 531 
L 3481 531 
L 3481 0 
L 794 0 
L 794 531 
z
" transform="scale(0.015625)"/>
        <path id="DejaVuSans-34" d="M 2419 4116 
L 825 1625 
L 2419 1625 
L 2419 4116 
z
M 2253 4666 
L 3047 4666 
L 3047 1625 
L 3713 1625 
L 3713 1100 
L 3047 1100 
L 3047 0 
L 2419 0 
L 2419 1100 
L 313 1100 
L 313 1709 
L 2253 4666 
z
" transform="scale(0.015625)"/>
        <path id="DejaVuSans-2d" d="M 313 2009 
L 1997 2009 
L 1997 1497 
L 313 1497 
L 313 2009 
z
" transform="scale(0.015625)"/>
        <path id="DejaVuSans-37" d="M 525 4666 
L 3525 4666 
L 3525 4397 
L 1831 0 
L 1172 0 
L 2766 4134 
L 525 4134 
L 525 4666 
z
" transform="scale(0.015625)"/>
       </defs>
       <use xlink:href="#DejaVuSans-32"/>
       <use xlink:href="#DejaVuSans-30" x="63.623047"/>
       <use xlink:href="#DejaVuSans-31" x="127.246094"/>
       <use xlink:href="#DejaVuSans-34" x="190.869141"/>
       <use xlink:href="#DejaVuSans-2d" x="254.492188"/>
       <use xlink:href="#DejaVuSans-30" x="290.576172"/>
       <use xlink:href="#DejaVuSans-37" x="354.199219"/>
       <use xlink:href="#DejaVuSans-2d" x="417.822266"/>
       <use xlink:href="#DejaVuSans-30" x="453.90625"/>
       <use xlink:href="#DejaVuSans-31" x="517.529297"/>
      </g>
     </g>
    </g>
    <g id="xtick_2">
     <g id="line2d_2">
      <g>
       <use xlink:href="#m5b208cff45" x="180.259824" y="342.2" style="stroke: #000000; stroke-width: 0.8"/>
      </g>
     </g>
     <g id="text_2">
      <!-- 2014-07-02 -->
      <g transform="translate(151.202012 356.798437) scale(0.1 -0.1)">
       <use xlink:href="#DejaVuSans-32"/>
       <use xlink:href="#DejaVuSans-30" x="63.623047"/>
       <use xlink:href="#DejaVuSans-31" x="127.246094"/>
       <use xlink:href="#DejaVuSans-34" x="190.869141"/>
       <use xlink:href="#DejaVuSans-2d" x="254.492188"/>
       <use xlink:href="#DejaVuSans-30" x="290.576172"/>
       <use xlink:href="#DejaVuSans-37" x="354.199219"/>
       <use xlink:href="#DejaVuSans-2d" x="417.822266"/>
       <use xlink:href="#DejaVuSans-30" x="453.90625"/>
       <use xlink:href="#DejaVuSans-32" x="517.529297"/>
      </g>
     </g>
    </g>
    <g id="xtick_3">
     <g id="line2d_3">
      <g>
       <use xlink:href="#m5b208cff45" x="303.070963" y="342.2" style="stroke: #000000; stroke-width: 0.8"/>
      </g>
     </g>
     <g id="text_3">
      <!-- 2014-07-03 -->
      <g transform="translate(274.013151 356.798437) scale(0.1 -0.1)">
       <defs>
        <path id="DejaVuSans-33" d="M 2597 2516 
Q 3050 2419 3304 2112 
Q 3559 1806 3559 1356 
Q 3559 666 3084 287 
Q 2609 -91 1734 -91 
Q 1441 -91 1130 -33 
Q 819 25 488 141 
L 488 750 
Q 750 597 1062 519 
Q 1375 441 1716 441 
Q 2309 441 2620 675 
Q 2931 909 2931 1356 
Q 2931 1769 2642 2001 
Q 2353 2234 1838 2234 
L 1294 2234 
L 1294 2753 
L 1863 2753 
Q 2328 2753 2575 2939 
Q 2822 3125 2822 3475 
Q 2822 3834 2567 4026 
Q 2313 4219 1838 4219 
Q 1578 4219 1281 4162 
Q 984 4106 628 3988 
L 628 4550 
Q 988 4650 1302 4700 
Q 1616 4750 1894 4750 
Q 2613 4750 3031 4423 
Q 3450 4097 3450 3541 
Q 3450 3153 3228 2886 
Q 3006 2619 2597 2516 
z
" transform="scale(0.015625)"/>
       </defs>
       <use xlink:href="#DejaVuSans-32"/>
       <use xlink:href="#DejaVuSans-30" x="63.623047"/>
       <use xlink:href="#DejaVuSans-31" x="127.246094"/>
       <use xlink:href="#DejaVuSans-34" x="190.869141"/>
       <use xlink:href="#DejaVuSans-2d" x="254.492188"/>
       <use xlink:href="#DejaVuSans-30" x="290.576172"/>
       <use xlink:href="#DejaVuSans-37" x="354.199219"/>
       <use xlink:href="#DejaVuSans-2d" x="417.822266"/>
       <use xlink:href="#DejaVuSans-30" x="453.90625"/>
       <use xlink:href="#DejaVuSans-33" x="517.529297"/>
      </g>
     </g>
    </g>
    <g id="xtick_4">
     <g id="line2d_4">
      <g>
       <use xlink:href="#m5b208cff45" x="425.882102" y="342.2" style="stroke: #000000; stroke-width: 0.8"/>
      </g>
     </g>
     <g id="text_4">
      <!-- 2014-07-04 -->
      <g transform="translate(396.82429 356.798437) scale(0.1 -0.1)">
       <use xlink:href="#DejaVuSans-32"/>
       <use xlink:href="#DejaVuSans-30" x="63.623047"/>
       <use xlink:href="#DejaVuSans-31" x="127.246094"/>
       <use xlink:href="#DejaVuSans-34" x="190.869141"/>
       <use xlink:href="#DejaVuSans-2d" x="254.492188"/>
       <use xlink:href="#DejaVuSans-30" x="290.576172"/>
       <use xlink:href="#DejaVuSans-37" x="354.199219"/>
       <use xlink:href="#DejaVuSans-2d" x="417.822266"/>
       <use xlink:href="#DejaVuSans-30" x="453.90625"/>
       <use xlink:href="#DejaVuSans-34" x="517.529297"/>
      </g>
     </g>
    </g>
    <g id="xtick_5">
     <g id="line2d_5">
      <g>
       <use xlink:href="#m5b208cff45" x="548.693241" y="342.2" style="stroke: #000000; stroke-width: 0.8"/>
      </g>
     </g>
     <g id="text_5">
      <!-- 2014-07-05 -->
      <g transform="translate(519.635429 356.798437) scale(0.1 -0.1)">
       <defs>
        <path id="DejaVuSans-35" d="M 691 4666 
L 3169 4666 
L 3169 4134 
L 1269 4134 
L 1269 2991 
Q 1406 3038 1543 3061 
Q 1681 3084 1819 3084 
Q 2600 3084 3056 2656 
Q 3513 2228 3513 1497 
Q 3513 744 3044 326 
Q 2575 -91 1722 -91 
Q 1428 -91 1123 -41 
Q 819 9 494 109 
L 494 744 
Q 775 591 1075 516 
Q 1375 441 1709 441 
Q 2250 441 2565 725 
Q 2881 1009 2881 1497 
Q 2881 1984 2565 2268 
Q 2250 2553 1709 2553 
Q 1456 2553 1204 2497 
Q 953 2441 691 2322 
L 691 4666 
z
" transform="scale(0.015625)"/>
       </defs>
       <use xlink:href="#DejaVuSans-32"/>
       <use xlink:href="#DejaVuSans-30" x="63.623047"/>
       <use xlink:href="#DejaVuSans-31" x="127.246094"/>
       <use xlink:href="#DejaVuSans-34" x="190.869141"/>
       <use xlink:href="#DejaVuSans-2d" x="254.492188"/>
       <use xlink:href="#DejaVuSans-30" x="290.576172"/>
       <use xlink:href="#DejaVuSans-37" x="354.199219"/>
       <use xlink:href="#DejaVuSans-2d" x="417.822266"/>
       <use xlink:href="#DejaVuSans-30" x="453.90625"/>
       <use xlink:href="#DejaVuSans-35" x="517.529297"/>
      </g>
     </g>
    </g>
    <g id="xtick_6">
     <g id="line2d_6">
      <g>
       <use xlink:href="#m5b208cff45" x="671.50438" y="342.2" style="stroke: #000000; stroke-width: 0.8"/>
      </g>
     </g>
     <g id="text_6">
      <!-- 2014-07-06 -->
      <g transform="translate(642.446568 356.798437) scale(0.1 -0.1)">
       <defs>
        <path id="DejaVuSans-36" d="M 2113 2584 
Q 1688 2584 1439 2293 
Q 1191 2003 1191 1497 
Q 1191 994 1439 701 
Q 1688 409 2113 409 
Q 2538 409 2786 701 
Q 3034 994 3034 1497 
Q 3034 2003 2786 2293 
Q 2538 2584 2113 2584 
z
M 3366 4563 
L 3366 3988 
Q 3128 4100 2886 4159 
Q 2644 4219 2406 4219 
Q 1781 4219 1451 3797 
Q 1122 3375 1075 2522 
Q 1259 2794 1537 2939 
Q 1816 3084 2150 3084 
Q 2853 3084 3261 2657 
Q 3669 2231 3669 1497 
Q 3669 778 3244 343 
Q 2819 -91 2113 -91 
Q 1303 -91 875 529 
Q 447 1150 447 2328 
Q 447 3434 972 4092 
Q 1497 4750 2381 4750 
Q 2619 4750 2861 4703 
Q 3103 4656 3366 4563 
z
" transform="scale(0.015625)"/>
       </defs>
       <use xlink:href="#DejaVuSans-32"/>
       <use xlink:href="#DejaVuSans-30" x="63.623047"/>
       <use xlink:href="#DejaVuSans-31" x="127.246094"/>
       <use xlink:href="#DejaVuSans-34" x="190.869141"/>
       <use xlink:href="#DejaVuSans-2d" x="254.492188"/>
       <use xlink:href="#DejaVuSans-30" x="290.576172"/>
       <use xlink:href="#DejaVuSans-37" x="354.199219"/>
       <use xlink:href="#DejaVuSans-2d" x="417.822266"/>
       <use xlink:href="#DejaVuSans-30" x="453.90625"/>
       <use xlink:href="#DejaVuSans-36" x="517.529297"/>
      </g>
     </g>
    </g>
   </g>
   <g id="matplotlib.axis_2">
    <g id="ytick_1">
     <g id="line2d_7">
      <defs>
       <path id="m1d3e0989a6" d="M 0 0 
L -3.5 0 
" style="stroke: #000000; stroke-width: 0.8"/>
      </defs>
      <g>
       <use xlink:href="#m1d3e0989a6" x="26.925" y="328.609425" style="stroke: #000000; stroke-width: 0.8"/>
      </g>
     </g>
     <g id="text_7">
      <!-- 0 -->
      <g transform="translate(13.5625 332.408643) scale(0.1 -0.1)">
       <use xlink:href="#DejaVuSans-30"/>
      </g>
     </g>
    </g>
    <g id="ytick_2">
     <g id="line2d_8">
      <g>
       <use xlink:href="#m1d3e0989a6" x="26.925" y="273.176109" style="stroke: #000000; stroke-width: 0.8"/>
      </g>
     </g>
     <g id="text_8">
      <!-- 2 -->
      <g transform="translate(13.5625 276.975328) scale(0.1 -0.1)">
       <use xlink:href="#DejaVuSans-32"/>
      </g>
     </g>
    </g>
    <g id="ytick_3">
     <g id="line2d_9">
      <g>
       <use xlink:href="#m1d3e0989a6" x="26.925" y="217.742793" style="stroke: #000000; stroke-width: 0.8"/>
      </g>
     </g>
     <g id="text_9">
      <!-- 4 -->
      <g transform="translate(13.5625 221.542012) scale(0.1 -0.1)">
       <use xlink:href="#DejaVuSans-34"/>
      </g>
     </g>
    </g>
    <g id="ytick_4">
     <g id="line2d_10">
      <g>
       <use xlink:href="#m1d3e0989a6" x="26.925" y="162.309477" style="stroke: #000000; stroke-width: 0.8"/>
      </g>
     </g>
     <g id="text_10">
      <!-- 6 -->
      <g transform="translate(13.5625 166.108696) scale(0.1 -0.1)">
       <use xlink:href="#DejaVuSans-36"/>
      </g>
     </g>
    </g>
    <g id="ytick_5">
     <g id="line2d_11">
      <g>
       <use xlink:href="#m1d3e0989a6" x="26.925" y="106.876161" style="stroke: #000000; stroke-width: 0.8"/>
      </g>
     </g>
     <g id="text_11">
      <!-- 8 -->
      <g transform="translate(13.5625 110.67538) scale(0.1 -0.1)">
       <defs>
        <path id="DejaVuSans-38" d="M 2034 2216 
Q 1584 2216 1326 1975 
Q 1069 1734 1069 1313 
Q 1069 891 1326 650 
Q 1584 409 2034 409 
Q 2484 409 2743 651 
Q 3003 894 3003 1313 
Q 3003 1734 2745 1975 
Q 2488 2216 2034 2216 
z
M 1403 2484 
Q 997 2584 770 2862 
Q 544 3141 544 3541 
Q 544 4100 942 4425 
Q 1341 4750 2034 4750 
Q 2731 4750 3128 4425 
Q 3525 4100 3525 3541 
Q 3525 3141 3298 2862 
Q 3072 2584 2669 2484 
Q 3125 2378 3379 2068 
Q 3634 1759 3634 1313 
Q 3634 634 3220 271 
Q 2806 -91 2034 -91 
Q 1263 -91 848 271 
Q 434 634 434 1313 
Q 434 1759 690 2068 
Q 947 2378 1403 2484 
z
M 1172 3481 
Q 1172 3119 1398 2916 
Q 1625 2713 2034 2713 
Q 2441 2713 2670 2916 
Q 2900 3119 2900 3481 
Q 2900 3844 2670 4047 
Q 2441 4250 2034 4250 
Q 1625 4250 1398 4047 
Q 1172 3844 1172 3481 
z
" transform="scale(0.015625)"/>
       </defs>
       <use xlink:href="#DejaVuSans-38"/>
      </g>
     </g>
    </g>
    <g id="ytick_6">
     <g id="line2d_12">
      <g>
       <use xlink:href="#m1d3e0989a6" x="26.925" y="51.442845" style="stroke: #000000; stroke-width: 0.8"/>
      </g>
     </g>
     <g id="text_12">
      <!-- 10 -->
      <g transform="translate(7.2 55.242064) scale(0.1 -0.1)">
       <use xlink:href="#DejaVuSans-31"/>
       <use xlink:href="#DejaVuSans-30" x="63.623047"/>
      </g>
     </g>
    </g>
   </g>
   <g id="line2d_13">
    <path d="M 57.619256 328.609425 
L 61.201248 328.499634 
L 62.48053 328.223443 
L 63.930384 327.741799 
L 67.171234 326.773353 
L 68.706373 326.69018 
L 71.179653 326.822201 
L 72.544221 326.786994 
L 73.397076 326.560822 
L 74.164646 326.147491 
L 74.591073 325.690288 
L 75.017501 324.772628 
L 75.358643 323.641532 
L 76.296784 319.865935 
L 77.32021 315.824858 
L 77.661352 314.699945 
L 78.684778 311.007153 
L 79.367062 305.558324 
L 79.79349 301.417085 
L 80.561059 295.894974 
L 80.816916 294.147405 
L 80.987487 293.804887 
L 81.158058 292.049983 
L 81.328629 290.107595 
L 81.4992 290.041543 
L 81.584485 289.29672 
L 81.840342 284.942808 
L 82.010913 285.871374 
L 82.26677 281.242433 
L 82.352055 281.821953 
L 82.437341 282.759658 
L 82.522626 282.220732 
L 82.693197 278.201487 
L 82.778483 278.592251 
L 82.949054 280.519176 
L 83.119625 275.876589 
L 83.20491 275.904994 
L 83.375481 279.1301 
L 83.631338 274.047072 
L 83.716623 275.281781 
L 83.887194 277.360555 
L 84.057765 274.000861 
L 84.143051 274.057423 
L 84.313622 276.310045 
L 84.569478 273.651338 
L 84.740049 275.738858 
L 84.825335 275.369128 
L 84.995906 273.369731 
L 85.251762 275.639732 
L 85.507619 273.66777 
L 85.67819 275.370449 
L 85.763476 275.322639 
L 85.934047 274.142239 
L 86.189903 275.315546 
L 86.275189 275.023005 
L 86.360474 274.593527 
L 86.44576 274.631716 
L 86.531045 274.887736 
L 86.701616 271.509866 
L 86.786902 270.180521 
L 86.957473 271.944479 
L 87.042758 271.742104 
L 87.213329 269.987669 
L 87.298615 270.472615 
L 87.469186 272.254917 
L 87.639757 271.465948 
L 87.725042 271.733447 
L 87.980899 273.773001 
L 88.15147 273.131735 
L 88.407326 274.37899 
L 88.663183 273.064477 
L 88.748469 273.236346 
L 88.833754 273.117944 
L 89.089611 271.693124 
L 89.174896 271.816023 
L 89.345467 272.17398 
L 89.516038 272.035856 
L 90.198322 274.882123 
L 90.454179 266.606144 
L 90.62475 270.735455 
L 90.795321 266.169397 
L 90.965892 258.988257 
L 91.136463 260.413268 
L 91.307034 259.373183 
L 91.392319 259.809209 
L 91.477605 258.058587 
L 91.648176 250.670981 
L 91.733461 251.726537 
L 91.818747 251.003742 
L 92.074604 243.655653 
L 92.33046 228.388337 
L 92.842173 198.992121 
L 93.780314 167.206736 
L 94.03617 163.509295 
L 94.121456 162.078244 
L 94.206741 162.254484 
L 94.292027 162.041754 
L 94.377312 162.919331 
L 94.462598 162.403406 
L 94.547883 162.673798 
L 94.633169 162.365646 
L 94.718454 163.185931 
L 94.80374 162.857069 
L 95.059596 165.714837 
L 95.144882 165.396759 
L 96.253594 176.514655 
L 96.424165 174.938753 
L 96.680021 159.891338 
L 97.447591 97.996372 
L 97.874018 81.528319 
L 98.385732 70.973941 
L 98.726874 67.470635 
L 98.98273 66.008433 
L 99.238587 65.557016 
L 99.323872 65.641997 
L 99.494443 65.522918 
L 99.835585 66.800329 
L 100.347298 70.135471 
L 100.859011 74.515707 
L 101.370724 79.825633 
L 102.479436 89.546536 
L 102.564722 89.455211 
L 102.650007 89.812792 
L 102.820578 91.808168 
L 102.991149 92.08735 
L 103.076435 91.871236 
L 103.16172 90.501125 
L 103.247006 90.83793 
L 103.332291 91.244756 
L 103.588148 90.050105 
L 103.758719 90.031153 
L 104.441003 85.725086 
L 105.549715 80.986741 
L 105.720286 80.907548 
L 105.890857 80.887909 
L 106.061428 80.597255 
L 106.146713 80.657707 
L 106.317284 80.246282 
L 106.658426 79.469611 
L 107.255425 78.083985 
L 107.511281 78.217496 
L 107.681852 78.626647 
L 107.852423 79.234731 
L 108.193566 81.411989 
L 108.790564 87.7839 
L 109.387563 95.558672 
L 110.069847 106.801198 
L 111.007987 123.970681 
L 112.116699 139.642396 
L 112.884269 145.950618 
L 113.481267 149.198241 
L 114.334122 152.421387 
L 115.869262 156.745811 
L 116.807402 159.791131 
L 117.745543 163.929879 
L 120.304108 176.878025 
L 121.41282 181.270949 
L 122.009819 183.093825 
L 122.777388 184.887308 
L 122.862674 184.83435 
L 123.033245 185.421618 
L 123.203816 185.235941 
L 123.374387 185.863096 
L 123.459672 185.494664 
L 123.715529 186.476479 
L 123.800814 186.478686 
L 124.056671 187.353462 
L 124.141956 186.904067 
L 124.227242 187.013525 
L 124.312528 187.388856 
L 124.483099 189.036073 
L 124.65367 186.794319 
L 124.738955 186.991995 
L 124.909526 191.200723 
L 125.080097 186.262335 
L 125.165383 187.601295 
L 125.335954 191.745606 
L 125.506525 187.110295 
L 125.59181 187.634666 
L 125.762381 192.485549 
L 125.932952 186.962986 
L 126.188809 192.676419 
L 126.35938 187.402072 
L 126.529951 193.448214 
L 126.615236 192.857391 
L 126.700522 188.517887 
L 126.785807 188.868477 
L 126.956378 194.174173 
L 127.126949 188.22578 
L 127.212235 189.991019 
L 127.382806 194.358092 
L 127.553377 189.277906 
L 127.638663 190.682273 
L 127.809234 195.042182 
L 127.979805 189.937136 
L 128.06509 191.443124 
L 128.235661 195.205127 
L 128.320947 194.325025 
L 128.406232 191.272766 
L 128.491518 191.800295 
L 128.662089 195.296465 
L 128.83266 194.513926 
L 128.917945 192.659886 
L 129.003231 192.894238 
L 129.173802 195.492146 
L 129.259087 195.000234 
L 129.344373 195.79139 
L 129.514944 193.058781 
L 129.685515 196.378763 
L 129.7708 195.540861 
L 129.856086 196.140446 
L 130.026657 193.78297 
L 130.197228 196.932792 
L 130.282513 195.620846 
L 130.367799 196.560752 
L 130.53837 194.146009 
L 130.623655 195.063395 
L 130.708941 197.27943 
L 130.794227 195.901085 
L 130.879512 196.93488 
L 131.050083 194.5063 
L 131.135369 194.915676 
L 131.220654 197.568987 
L 131.30594 196.146024 
L 131.391225 197.221239 
L 131.561796 194.879331 
L 131.647082 194.87337 
L 131.732367 197.719243 
L 131.817653 196.526628 
L 131.902938 197.434656 
L 132.073509 195.116049 
L 132.158795 194.91138 
L 132.24408 197.784505 
L 132.329366 196.740032 
L 132.414651 197.562233 
L 132.585222 195.280962 
L 132.670508 194.850242 
L 132.755793 197.695599 
L 132.841079 196.828462 
L 132.926364 197.534783 
L 133.182221 194.809813 
L 133.267506 197.667686 
L 133.352792 196.934629 
L 133.438077 197.518302 
L 133.693934 194.765142 
L 133.779219 197.597785 
L 133.864505 196.954255 
L 133.949791 197.39806 
L 134.205647 194.640631 
L 134.290933 197.300655 
L 134.376218 197.189876 
L 134.461504 197.319053 
L 134.71736 194.612374 
L 134.802646 197.348247 
L 134.887931 197.049624 
L 134.973217 197.410457 
L 135.229073 194.504344 
L 135.314359 197.224384 
L 135.399644 196.970749 
L 135.48493 197.315788 
L 135.740786 194.400913 
L 135.826072 197.123702 
L 135.911357 196.736159 
L 135.996643 197.223089 
L 136.252499 194.280922 
L 136.337785 197.208934 
L 136.42307 196.647002 
L 136.508356 197.248147 
L 136.764212 194.407785 
L 136.849498 197.42218 
L 136.934783 196.744777 
L 137.020069 197.444806 
L 137.19064 195.02142 
L 137.275926 194.657363 
L 137.361211 197.796347 
L 137.446497 196.978336 
L 137.531782 197.641676 
L 137.702353 195.434047 
L 137.787639 195.109163 
L 137.872924 198.246429 
L 137.95821 197.288615 
L 138.043495 197.995187 
L 138.214066 195.888847 
L 138.299352 195.405037 
L 138.384637 198.541986 
L 138.469923 197.694277 
L 138.555208 198.283105 
L 138.725779 196.434272 
L 138.811065 195.904852 
L 138.89635 198.979804 
L 138.981636 198.192057 
L 139.066921 198.770668 
L 139.237492 197.129967 
L 139.322778 196.549941 
L 139.408063 199.428392 
L 139.493349 198.829679 
L 139.578634 199.221517 
L 139.834491 197.325859 
L 139.919776 199.98558 
L 140.005062 199.735091 
L 140.090347 199.706358 
L 140.346204 198.501267 
L 140.516775 200.918574 
L 140.772632 199.704349 
L 141.028488 201.784521 
L 141.113774 200.870982 
L 141.199059 201.083897 
L 141.284345 200.971915 
L 141.454916 201.819478 
L 141.710772 202.299733 
L 144.695765 209.777098 
L 145.54862 211.541333 
L 147.936615 214.831737 
L 149.130612 216.191632 
L 151.177464 217.619233 
L 152.286176 218.016093 
L 152.627318 218.121348 
L 153.906601 218.851835 
L 155.612311 220.612957 
L 156.550452 221.629181 
L 156.976879 221.887316 
L 157.829734 222.502946 
L 158.597304 222.956187 
L 160.814727 224.468439 
L 161.32644 224.114063 
L 162.09401 223.105538 
L 162.605723 222.374205 
L 162.946865 222.150301 
L 163.288007 222.202102 
L 163.629149 222.467989 
L 164.226148 223.319041 
L 165.249574 224.855843 
L 167.296426 227.599428 
L 168.149281 228.664473 
L 168.74628 229.277406 
L 169.51385 229.542486 
L 169.769706 229.605819 
L 170.281419 229.889924 
L 170.707847 230.246904 
L 172.584128 231.998359 
L 172.754699 232.066416 
L 174.289838 233.429112 
L 174.972122 233.981568 
L 175.313264 234.219343 
L 175.739692 234.653355 
L 177.189546 236.000152 
L 177.786544 236.548048 
L 178.554114 237.052496 
L 179.236398 237.289075 
L 179.57754 237.362194 
L 179.918682 237.47676 
L 180.259824 237.589898 
L 182.306676 238.717608 
L 182.647819 238.674007 
L 182.988961 238.705495 
L 184.182958 238.56788 
L 185.291669 237.793958 
L 186.144525 236.883406 
L 186.485667 236.841523 
L 187.082665 236.9691 
L 188.788375 238.136241 
L 189.300089 238.545888 
L 189.982373 239.220827 
L 191.517512 241.028715 
L 191.773368 241.105033 
L 192.285082 241.578257 
L 194.58779 244.353105 
L 195.014218 244.451798 
L 195.270074 244.516466 
L 195.611217 244.603237 
L 196.549357 245.259435 
L 198.255067 246.805812 
L 199.53435 247.700313 
L 200.30192 248.509846 
L 201.410631 250.036379 
L 202.945771 252.534808 
L 204.225053 254.72412 
L 205.589622 257.082204 
L 205.674907 256.973758 
L 205.930764 255.285292 
L 206.016049 255.462067 
L 206.101335 255.324042 
L 206.442477 252.525067 
L 206.613048 251.579108 
L 206.698333 251.527651 
L 206.868904 250.583919 
L 207.210046 247.659759 
L 207.465903 246.553525 
L 207.721759 243.629802 
L 208.062901 242.728976 
L 208.318758 240.062713 
L 208.915757 231.071312 
L 209.256899 227.794858 
L 209.683326 223.726388 
L 210.536181 216.629053 
L 211.730179 201.883789 
L 211.90075 197.099992 
L 211.986035 197.643315 
L 212.071321 197.319779 
L 212.156606 196.112164 
L 212.327177 190.596182 
L 212.497748 193.501819 
L 212.753605 186.651186 
L 212.83889 187.195408 
L 212.924176 189.445515 
L 213.009461 188.436461 
L 213.094747 184.707116 
L 213.180032 185.232902 
L 213.265318 186.185019 
L 213.435889 184.668194 
L 213.521174 185.612409 
L 213.60646 183.793247 
L 213.691745 187.97344 
L 213.862316 183.693252 
L 213.947602 184.109315 
L 214.032887 187.210395 
L 214.118173 183.99432 
L 214.203458 187.615132 
L 214.374029 185.194178 
L 214.5446 188.119692 
L 214.629886 185.01088 
L 214.800457 189.054854 
L 214.885743 187.519287 
L 214.971028 190.385659 
L 215.141599 187.810417 
L 215.31217 192.256629 
L 215.397456 189.681479 
L 215.482741 192.008717 
L 215.568027 189.585093 
L 215.823883 194.876807 
L 215.909169 191.511743 
L 215.994454 193.777102 
L 216.07974 191.617381 
L 216.250311 196.981864 
L 216.335596 196.218317 
L 216.420882 192.979338 
L 216.506167 193.734823 
L 216.676738 198.895417 
L 216.847309 193.85303 
L 216.932595 194.675918 
L 217.103166 199.528189 
L 217.273737 195.093435 
L 217.359022 195.872129 
L 217.529593 199.35824 
L 217.614879 197.966904 
L 217.700164 194.581078 
L 217.78545 195.821536 
L 217.956021 198.976275 
L 218.211878 193.091491 
L 218.382449 195.379186 
L 218.467734 194.895336 
L 218.638305 189.724922 
L 218.808876 184.975421 
L 218.894162 185.249686 
L 218.979447 184.653577 
L 219.320589 179.825796 
L 219.576446 177.181023 
L 220.002873 168.959275 
L 220.25873 165.240199 
L 220.855728 161.040524 
L 220.941014 160.884426 
L 221.538013 155.259462 
L 222.305582 143.656884 
L 222.73201 138.278167 
L 222.987866 136.500531 
L 223.158437 136.080317 
L 223.243723 136.115896 
L 223.414294 136.610821 
L 223.67015 138.405639 
L 224.096578 143.698106 
L 224.864148 157.445827 
L 226.314001 183.750095 
L 227.081571 193.530498 
L 227.252142 194.95888 
L 227.422713 198.862945 
L 227.507998 198.210547 
L 227.593284 195.936452 
L 227.763855 201.106047 
L 227.934426 200.667067 
L 228.019712 200.178974 
L 228.275568 203.561087 
L 228.360854 202.777107 
L 228.872567 204.708013 
L 229.128423 205.32926 
L 229.469565 205.955754 
L 231.772274 209.405587 
L 233.051557 212.426232 
L 234.501411 216.595417 
L 236.377692 222.019274 
L 238.424544 226.335616 
L 238.936257 227.066671 
L 240.130254 228.195253 
L 240.471396 228.545605 
L 241.92125 230.040643 
L 243.115247 230.643262 
L 243.371104 230.646592 
L 244.223959 230.985994 
L 245.1621 231.692619 
L 245.332671 231.793889 
L 245.673813 232.014357 
L 245.844384 232.098637 
L 246.86781 232.791933 
L 247.208952 232.97942 
L 247.891236 233.373782 
L 249.255804 234.78947 
L 249.511661 234.808342 
L 250.790944 235.621101 
L 251.984941 236.50374 
L 252.581939 236.894309 
L 254.202364 238.091253 
L 254.543506 238.230077 
L 257.784356 240.871176 
L 259.148924 241.097083 
L 259.916493 240.883064 
L 261.025205 240.072269 
L 261.366347 239.744378 
L 261.87806 239.597016 
L 262.389773 239.779408 
L 262.986772 240.283387 
L 263.583771 240.786209 
L 264.521911 241.488187 
L 267.59219 243.862488 
L 267.762761 243.830241 
L 268.018617 243.82089 
L 268.274474 243.867233 
L 268.615616 243.710282 
L 269.127329 243.837714 
L 271.174181 244.699056 
L 271.430038 244.665995 
L 271.77118 244.62743 
L 272.027036 244.626472 
L 272.368178 244.638413 
L 272.70932 244.642715 
L 273.050463 244.599206 
L 273.221034 244.60479 
L 273.47689 244.44926 
L 274.24446 244.475006 
L 275.438457 245.249351 
L 275.694313 245.435959 
L 276.120741 245.53487 
L 276.803025 245.778956 
L 277.058882 245.732824 
L 277.911737 245.829984 
L 278.338164 246.075755 
L 279.446876 246.55371 
L 279.702733 246.534124 
L 280.640873 246.447788 
L 280.982015 246.237159 
L 281.920156 246.102881 
L 283.37001 247.136874 
L 284.393436 247.926544 
L 285.416862 248.832378 
L 287.463714 250.251885 
L 288.231284 250.853148 
L 288.913568 251.872167 
L 289.936994 254.019815 
L 291.216277 256.634732 
L 292.836702 259.566723 
L 294.286555 261.455607 
L 295.054125 262.20648 
L 295.992266 262.902657 
L 296.759835 263.204782 
L 299.659543 264.186188 
L 300.171256 264.296366 
L 302.132823 264.761825 
L 302.388679 264.713308 
L 302.55925 264.832255 
L 302.900392 264.75825 
L 303.070963 264.788304 
L 303.241534 264.72622 
L 303.412105 264.854716 
L 303.667962 264.646638 
L 303.838533 264.845927 
L 304.094389 264.469354 
L 304.26496 264.682269 
L 304.520817 264.329591 
L 304.606102 264.40772 
L 304.691388 264.414473 
L 304.947244 264.074609 
L 305.117815 264.21309 
L 305.373672 263.587012 
L 305.544243 263.843865 
L 305.8001 263.082783 
L 305.885385 263.141912 
L 305.970671 263.150615 
L 306.226527 262.52198 
L 306.397098 262.651355 
L 306.652955 261.199277 
L 306.823526 261.39051 
L 307.164668 259.496769 
L 307.249953 259.341318 
L 307.932237 255.83747 
L 308.102808 255.259427 
L 309.467377 248.18826 
L 309.808519 245.985296 
L 310.064375 244.608213 
L 310.320232 242.723366 
L 311.173087 238.064087 
L 311.599514 235.13022 
L 311.770086 234.222938 
L 312.793512 227.317312 
L 314.15808 221.269941 
L 314.840364 219.924195 
L 315.352077 216.577919 
L 315.607934 215.873211 
L 315.778505 215.749096 
L 316.204932 215.814147 
L 316.546074 215.933622 
L 317.057787 215.708257 
L 317.228358 215.575328 
L 317.5695 215.781397 
L 317.910642 216.636718 
L 319.275211 220.240719 
L 319.701638 221.337728 
L 320.639779 224.276326 
L 321.322063 227.04649 
L 323.368915 235.097106 
L 324.136485 236.806824 
L 325.330482 238.685909 
L 327.292049 241.087283 
L 329.253616 243.36188 
L 330.788755 245.515343 
L 332.153323 247.830791 
L 333.603177 250.908875 
L 335.564744 255.008694 
L 337.185168 257.657234 
L 340.596589 261.318759 
L 343.069869 263.046048 
L 343.666867 263.341492 
L 344.434437 263.803059 
L 345.031436 264.233648 
L 345.543149 264.686525 
L 346.225433 265.229657 
L 346.566575 265.59982 
L 346.737146 265.809781 
L 346.907717 266.050292 
L 347.078288 266.108245 
L 347.41943 266.531895 
L 347.504716 266.56826 
L 347.845858 267.022499 
L 347.931143 267.032398 
L 348.187 267.591495 
L 348.272285 267.522426 
L 348.357571 267.491566 
L 348.613427 268.14773 
L 348.698713 268.040103 
L 348.783998 267.93991 
L 349.039855 268.728562 
L 349.12514 268.571109 
L 349.210426 268.370816 
L 349.295711 268.520702 
L 349.466282 269.342639 
L 349.636853 268.787712 
L 349.722139 268.868192 
L 349.89271 270.000072 
L 349.977995 269.769778 
L 350.148566 269.121226 
L 350.319137 270.728074 
L 350.404423 270.487134 
L 350.574994 269.265356 
L 350.745565 271.52868 
L 350.830851 271.325115 
L 351.001422 269.233128 
L 351.257278 272.464429 
L 351.427849 268.947748 
L 351.513135 269.798695 
L 351.683706 274.32776 
L 351.854277 268.915467 
L 351.939562 269.795682 
L 352.110133 275.401868 
L 352.280704 269.145041 
L 352.36599 270.36814 
L 352.536561 275.416601 
L 352.707132 269.393191 
L 352.962988 275.653937 
L 353.133559 269.852036 
L 353.389416 275.803615 
L 353.559987 270.344952 
L 353.730558 276.059414 
L 353.815844 275.968941 
L 353.986415 270.893575 
L 354.156986 276.556222 
L 354.242271 276.109503 
L 354.412842 271.473521 
L 354.583413 277.012285 
L 354.668699 276.249996 
L 354.83927 272.060274 
L 355.009841 277.470901 
L 355.095126 276.506889 
L 355.265697 272.654685 
L 355.436268 277.842954 
L 355.521554 276.703132 
L 355.692125 273.187789 
L 355.862696 278.211726 
L 355.947981 276.877544 
L 356.033267 273.612578 
L 356.118552 273.735721 
L 356.289123 278.566258 
L 356.459694 273.995637 
L 356.54498 274.286902 
L 356.715551 278.923994 
L 356.886122 274.322087 
L 356.971408 274.763146 
L 357.141979 279.192976 
L 357.31255 274.699129 
L 357.397835 275.253561 
L 357.568406 279.531972 
L 357.738977 275.123364 
L 357.824263 275.650956 
L 357.994834 279.844839 
L 358.165405 275.551933 
L 358.25069 276.141622 
L 358.421261 280.139342 
L 358.591832 275.944154 
L 358.677118 276.533913 
L 358.847689 280.415969 
L 359.01826 276.350146 
L 359.103545 277.025785 
L 359.274116 280.741679 
L 359.444687 276.724304 
L 359.529973 277.376434 
L 359.700544 280.99279 
L 359.871115 277.115253 
L 359.9564 277.847144 
L 360.126971 281.286205 
L 360.297543 277.547685 
L 360.382828 278.212202 
L 360.553399 281.604848 
L 360.72397 277.96963 
L 360.809256 278.626528 
L 360.979827 281.870202 
L 361.150398 278.384745 
L 361.235683 278.971675 
L 361.406254 282.142835 
L 361.576825 278.800874 
L 361.662111 279.288395 
L 361.832682 282.412425 
L 361.917967 281.52256 
L 362.003253 279.227629 
L 362.088538 279.648943 
L 362.259109 282.648604 
L 362.344395 281.893047 
L 362.42968 279.614062 
L 362.514966 279.914809 
L 362.685537 282.894884 
L 362.770822 282.344427 
L 362.856108 280.080423 
L 362.941393 280.230848 
L 363.111964 283.147194 
L 363.19725 282.723128 
L 363.282535 280.482907 
L 363.367821 280.523184 
L 363.538392 283.355467 
L 363.623678 283.162009 
L 363.794249 280.800938 
L 363.96482 283.559983 
L 364.050105 283.550196 
L 364.220676 281.058082 
L 364.476533 283.869318 
L 364.647104 281.354521 
L 364.90296 284.218834 
L 365.073531 281.675198 
L 365.329388 284.497417 
L 365.499959 282.016322 
L 365.755815 284.716164 
L 365.926386 282.399262 
L 366.011672 282.972464 
L 366.182243 284.881448 
L 366.267528 284.382703 
L 366.352814 282.847808 
L 366.438099 283.139406 
L 366.60867 285.03409 
L 366.693956 284.960293 
L 366.864527 283.277236 
L 367.120384 285.414786 
L 367.290955 283.488116 
L 367.546811 285.674368 
L 367.717382 283.833769 
L 367.802668 284.254927 
L 367.973239 285.788584 
L 368.058524 285.58038 
L 368.229095 284.383932 
L 368.484952 286.048721 
L 368.655523 284.630331 
L 368.826094 285.523097 
L 368.911379 286.211863 
L 368.996665 285.939617 
L 369.167236 285.095516 
L 369.423092 286.418292 
L 369.593663 285.353158 
L 369.678949 285.503937 
L 369.84952 286.482567 
L 369.934806 286.405469 
L 370.105377 285.770616 
L 370.190662 285.888542 
L 370.361233 286.634541 
L 370.61709 286.135066 
L 370.702375 286.250481 
L 370.872946 286.727003 
L 371.128803 286.505639 
L 371.981658 287.089216 
L 373.260941 287.559298 
L 374.540223 287.795646 
L 376.075362 287.914857 
L 396.970313 288.474711 
L 422.214825 289.409968 
L 454.282178 290.946786 
L 482.341112 292.562806 
L 515.090749 294.766974 
L 547.840386 297.388638 
L 572.65847 299.73378 
L 583.063303 300.915804 
L 589.374431 301.995128 
L 608.307815 305.458202 
L 616.239368 307.151024 
L 627.667626 309.61375 
L 637.646031 311.529633 
L 647.198009 313.09033 
L 656.238273 314.315437 
L 664.681539 315.25546 
L 671.50438 315.871653 
L 671.50438 315.871653 
" clip-path="url(#p90420b3f02)" style="fill: none; stroke: #1f77b4; stroke-width: 1.5; stroke-linecap: square"/>
   </g>
   <g id="line2d_14">
    <path d="M 57.619256 328.609425 
L 58.983824 328.506705 
L 60.945391 327.665705 
L 63.418671 326.047047 
L 65.72138 324.35483 
L 66.574235 323.974751 
L 67.597661 323.756618 
L 68.962229 323.705643 
L 71.179653 323.662499 
L 71.947222 323.269494 
L 73.14122 322.145384 
L 74.932215 318.929574 
L 76.040927 315.927522 
L 76.382069 314.832357 
L 78.087779 308.535372 
L 80.049346 297.215383 
L 82.181484 282.90334 
L 82.949054 277.853103 
L 83.716623 272.531836 
L 84.91062 264.624339 
L 85.67819 260.173073 
L 86.701616 255.014913 
L 87.3839 248.927586 
L 87.980899 245.297971 
L 88.492612 243.309934 
L 89.004325 242.181572 
L 89.430753 241.741421 
L 89.771895 241.640798 
L 89.942466 241.62014 
L 90.198322 242.479239 
L 90.283608 241.99738 
L 90.710035 237.663832 
L 90.880606 235.539576 
L 91.392319 226.537136 
L 91.648176 221.390912 
L 94.377312 160.571783 
L 96.850592 120.726613 
L 98.129875 107.503768 
L 99.579729 97.604606 
L 100.006156 95.694913 
L 100.603155 93.508226 
L 100.773726 93.031993 
L 101.114868 91.722099 
L 101.285439 91.380728 
L 102.053009 87.839812 
L 102.394151 86.076554 
L 102.564722 84.956267 
L 102.905864 81.543981 
L 103.076435 80.418909 
L 103.417577 74.537519 
L 104.014575 66.367703 
L 104.526288 61.789734 
L 104.952716 59.35779 
L 105.379144 57.800018 
L 105.890857 57.028444 
L 106.146713 57.079837 
L 106.487855 57.271347 
L 106.743712 57.728502 
L 107.425996 59.473332 
L 108.022994 61.859759 
L 108.87585 66.249733 
L 110.240418 74.584979 
L 115.698691 109.34754 
L 118.342542 124.282084 
L 119.280682 128.982673 
L 120.133537 131.425024 
L 121.753962 137.332349 
L 127.638663 159.756611 
L 129.685515 165.961347 
L 132.24408 172.212776 
L 134.546789 176.36387 
L 134.887931 176.797816 
L 135.229073 177.266203 
L 135.570215 177.708976 
L 135.826072 177.956109 
L 136.167214 178.28907 
L 137.19064 179.734322 
L 137.872924 181.270206 
L 138.811065 183.982517 
L 140.090347 188.397403 
L 142.990055 199.437488 
L 145.378049 208.134658 
L 145.804477 209.113839 
L 146.486761 210.443455 
L 151.177464 219.850522 
L 152.371461 221.621999 
L 152.96846 222.364254 
L 153.480173 223.043259 
L 154.503599 224.49366 
L 154.844741 225.008517 
L 155.44174 225.742596 
L 157.14745 228.065925 
L 159.109017 229.848268 
L 159.706015 230.649147 
L 160.473585 231.898241 
L 161.411726 233.316176 
L 162.691008 234.700913 
L 163.373293 235.427157 
L 164.226148 236.666803 
L 164.652575 237.269347 
L 165.079003 237.594928 
L 165.420145 237.793608 
L 166.614142 238.250112 
L 167.04057 238.287414 
L 167.466997 238.568723 
L 169.257993 240.289675 
L 169.599135 240.598168 
L 170.196134 241.050483 
L 170.878418 241.810981 
L 172.584128 243.944078 
L 173.010556 244.145845 
L 173.522269 244.617456 
L 173.863411 244.935016 
L 174.289838 245.249694 
L 174.545695 245.357215 
L 174.972122 245.519725 
L 175.910263 245.794822 
L 177.786544 247.611638 
L 178.639399 248.804708 
L 179.321684 249.313433 
L 179.662826 249.447177 
L 179.918682 249.591398 
L 180.34511 249.597783 
L 181.624392 250.209478 
L 181.880249 250.253803 
L 182.221391 250.30763 
L 182.391962 250.312386 
L 182.733104 250.15635 
L 183.159532 250.05007 
L 183.500674 250.06927 
L 183.75653 250.022993 
L 184.182958 249.963607 
L 184.779956 250.027575 
L 185.632812 250.074935 
L 186.059239 250.010183 
L 186.485667 250.102089 
L 186.99738 250.301436 
L 187.93552 250.771339 
L 188.361948 250.955158 
L 188.873661 251.395964 
L 189.214803 251.697638 
L 189.811802 252.107619 
L 190.4088 252.677759 
L 191.432226 253.688286 
L 191.602797 253.749427 
L 192.029225 253.629552 
L 192.540938 253.713527 
L 194.843647 254.950742 
L 195.525931 254.891678 
L 195.952359 254.969286 
L 196.464072 255.298271 
L 197.146356 256.037185 
L 198.084496 257.415751 
L 199.619636 260.12766 
L 205.504336 271.221494 
L 205.674907 271.703993 
L 205.760193 271.58425 
L 206.101335 270.148602 
L 206.271906 269.639002 
L 206.868904 265.095663 
L 207.721759 256.030721 
L 208.745186 245.302341 
L 210.280325 229.524647 
L 211.815464 217.832801 
L 212.83889 211.789975 
L 214.5446 205.180091 
L 215.141599 203.744193 
L 215.653312 202.813182 
L 215.909169 202.447723 
L 216.07974 202.337224 
L 216.335596 201.602738 
L 216.591453 201.154921 
L 216.762024 200.685361 
L 217.188451 198.834298 
L 217.359022 198.411661 
L 217.956021 194.661085 
L 218.55302 188.057788 
L 218.979447 178.649031 
L 219.661731 166.956596 
L 220.25873 160.365747 
L 220.855728 156.370133 
L 221.367442 154.418045 
L 221.793869 153.610322 
L 222.135011 153.3661 
L 222.561439 153.437474 
L 222.902581 153.804172 
L 223.329008 154.614965 
L 223.926007 156.251325 
L 224.864148 159.606862 
L 226.314001 165.758924 
L 232.113416 191.168672 
L 233.733841 196.263075 
L 236.03655 202.705922 
L 237.230547 205.136695 
L 238.850972 207.820432 
L 239.533256 208.421882 
L 239.874398 208.578094 
L 240.300825 208.849813 
L 240.727253 209.206335 
L 241.153681 209.660289 
L 242.177107 211.230359 
L 243.371104 212.906194 
L 244.053388 213.520098 
L 244.650387 214.262797 
L 245.929669 216.020555 
L 246.611953 217.037537 
L 246.953095 217.534174 
L 248.402949 218.795522 
L 248.829377 219.355034 
L 249.170519 219.724564 
L 249.426375 219.86555 
L 249.852803 220.032044 
L 250.364516 220.441442 
L 251.0468 221.370273 
L 254.28765 226.712568 
L 254.628792 226.961577 
L 256.163931 228.48293 
L 256.931501 229.274226 
L 257.869641 230.170785 
L 259.660637 231.113131 
L 260.428207 231.696449 
L 260.854634 232.232207 
L 261.110491 232.454299 
L 261.622204 232.823674 
L 262.133917 233.377757 
L 263.157343 234.706806 
L 263.583771 235.319397 
L 264.521911 235.978202 
L 265.460052 236.660799 
L 265.886479 236.86007 
L 266.312907 237.169041 
L 266.654049 237.449663 
L 267.933332 238.009428 
L 268.189188 238.043479 
L 268.359759 238.022231 
L 268.786187 237.742645 
L 269.212614 237.712425 
L 269.639042 237.921668 
L 270.06547 238.201946 
L 270.662468 238.872879 
L 271.600609 239.995118 
L 272.453464 240.705466 
L 272.70932 240.948641 
L 273.050463 241.007822 
L 273.306319 241.10401 
L 273.647461 240.970289 
L 273.988603 240.905091 
L 274.415031 240.830056 
L 274.841458 240.985595 
L 276.632454 242.399693 
L 276.973596 242.838008 
L 277.314738 242.937074 
L 277.570595 243.058073 
L 277.911737 242.95474 
L 278.42345 243.051323 
L 279.191019 243.489177 
L 279.446876 243.642144 
L 279.788018 243.587613 
L 280.89673 243.725902 
L 281.83487 243.750983 
L 282.346583 244.117316 
L 283.028868 244.957352 
L 283.967008 246.541703 
L 285.416862 249.491638 
L 290.619278 260.501984 
L 291.386848 261.247052 
L 292.324989 262.49634 
L 293.774842 264.841038 
L 296.503979 269.326412 
L 297.783261 271.047509 
L 301.024111 275.608741 
L 302.132823 276.388157 
L 302.55925 276.474192 
L 302.815107 276.452007 
L 303.241534 276.409678 
L 303.497391 276.303319 
L 304.691388 275.339502 
L 306.055956 272.991784 
L 306.994097 270.59118 
L 307.761666 267.16103 
L 314.413936 230.853842 
L 314.755078 229.600544 
L 314.840364 229.513696 
L 315.010935 228.702251 
L 315.607934 223.48159 
L 316.204932 219.864415 
L 316.716645 217.916944 
L 317.143073 217.014518 
L 317.5695 216.62093 
L 317.910642 216.578884 
L 318.422356 216.821088 
L 319.10464 217.625772 
L 320.213351 219.551567 
L 322.686631 224.876426 
L 324.392341 228.52784 
L 325.75691 231.489206 
L 327.633191 236.140717 
L 332.068038 247.307342 
L 335.394173 255.064588 
L 338.29388 261.27449 
L 341.193588 266.967998 
L 344.093295 272.181491 
L 347.078288 277.088375 
L 350.063281 281.568607 
L 353.133559 285.770744 
L 356.203838 289.597506 
L 359.359402 293.174651 
L 362.600251 296.507345 
L 365.926386 299.60209 
L 369.337807 302.466534 
L 372.834513 305.109279 
L 376.416505 307.539711 
L 380.169067 309.816732 
L 384.092201 311.934585 
L 388.185905 313.890482 
L 392.535467 315.717879 
L 397.140884 317.406102 
L 402.002158 318.94887 
L 407.204575 320.36535 
L 412.833419 321.664981 
L 418.973976 322.850255 
L 425.711531 323.919344 
L 433.131371 324.868578 
L 441.489351 325.709798 
L 451.041329 326.442168 
L 462.128445 327.063604 
L 475.432985 327.578901 
L 491.978375 327.987039 
L 513.726181 328.288649 
L 545.452392 328.487451 
L 602.423114 328.587937 
L 671.50438 328.606808 
L 671.50438 328.606808 
" clip-path="url(#p90420b3f02)" style="fill: none; stroke: #ff7f0e; stroke-width: 1.5; stroke-linecap: square"/>
   </g>
   <g id="patch_3">
    <path d="M 26.925 342.2 
L 26.925 43.44 
" style="fill: none; stroke: #000000; stroke-width: 0.8; stroke-linejoin: miter; stroke-linecap: square"/>
   </g>
   <g id="patch_4">
    <path d="M 702.198636 342.2 
L 702.198636 43.44 
" style="fill: none; stroke: #000000; stroke-width: 0.8; stroke-linejoin: miter; stroke-linecap: square"/>
   </g>
   <g id="patch_5">
    <path d="M 26.925 342.2 
L 702.198636 342.2 
" style="fill: none; stroke: #000000; stroke-width: 0.8; stroke-linejoin: miter; stroke-linecap: square"/>
   </g>
   <g id="patch_6">
    <path d="M 26.925 43.44 
L 702.198636 43.44 
" style="fill: none; stroke: #000000; stroke-width: 0.8; stroke-linejoin: miter; stroke-linecap: square"/>
   </g>
   <g id="text_13">
    <!-- 1 transformation(s) -->
    <g transform="translate(306.447131 37.44) scale(0.12 -0.12)">
     <defs>
      <path id="DejaVuSans-20" transform="scale(0.015625)"/>
      <path id="DejaVuSans-74" d="M 1172 4494 
L 1172 3500 
L 2356 3500 
L 2356 3053 
L 1172 3053 
L 1172 1153 
Q 1172 725 1289 603 
Q 1406 481 1766 481 
L 2356 481 
L 2356 0 
L 1766 0 
Q 1100 0 847 248 
Q 594 497 594 1153 
L 594 3053 
L 172 3053 
L 172 3500 
L 594 3500 
L 594 4494 
L 1172 4494 
z
" transform="scale(0.015625)"/>
      <path id="DejaVuSans-72" d="M 2631 2963 
Q 2534 3019 2420 3045 
Q 2306 3072 2169 3072 
Q 1681 3072 1420 2755 
Q 1159 2438 1159 1844 
L 1159 0 
L 581 0 
L 581 3500 
L 1159 3500 
L 1159 2956 
Q 1341 3275 1631 3429 
Q 1922 3584 2338 3584 
Q 2397 3584 2469 3576 
Q 2541 3569 2628 3553 
L 2631 2963 
z
" transform="scale(0.015625)"/>
      <path id="DejaVuSans-61" d="M 2194 1759 
Q 1497 1759 1228 1600 
Q 959 1441 959 1056 
Q 959 750 1161 570 
Q 1363 391 1709 391 
Q 2188 391 2477 730 
Q 2766 1069 2766 1631 
L 2766 1759 
L 2194 1759 
z
M 3341 1997 
L 3341 0 
L 2766 0 
L 2766 531 
Q 2569 213 2275 61 
Q 1981 -91 1556 -91 
Q 1019 -91 701 211 
Q 384 513 384 1019 
Q 384 1609 779 1909 
Q 1175 2209 1959 2209 
L 2766 2209 
L 2766 2266 
Q 2766 2663 2505 2880 
Q 2244 3097 1772 3097 
Q 1472 3097 1187 3025 
Q 903 2953 641 2809 
L 641 3341 
Q 956 3463 1253 3523 
Q 1550 3584 1831 3584 
Q 2591 3584 2966 3190 
Q 3341 2797 3341 1997 
z
" transform="scale(0.015625)"/>
      <path id="DejaVuSans-6e" d="M 3513 2113 
L 3513 0 
L 2938 0 
L 2938 2094 
Q 2938 2591 2744 2837 
Q 2550 3084 2163 3084 
Q 1697 3084 1428 2787 
Q 1159 2491 1159 1978 
L 1159 0 
L 581 0 
L 581 3500 
L 1159 3500 
L 1159 2956 
Q 1366 3272 1645 3428 
Q 1925 3584 2291 3584 
Q 2894 3584 3203 3211 
Q 3513 2838 3513 2113 
z
" transform="scale(0.015625)"/>
      <path id="DejaVuSans-73" d="M 2834 3397 
L 2834 2853 
Q 2591 2978 2328 3040 
Q 2066 3103 1784 3103 
Q 1356 3103 1142 2972 
Q 928 2841 928 2578 
Q 928 2378 1081 2264 
Q 1234 2150 1697 2047 
L 1894 2003 
Q 2506 1872 2764 1633 
Q 3022 1394 3022 966 
Q 3022 478 2636 193 
Q 2250 -91 1575 -91 
Q 1294 -91 989 -36 
Q 684 19 347 128 
L 347 722 
Q 666 556 975 473 
Q 1284 391 1588 391 
Q 1994 391 2212 530 
Q 2431 669 2431 922 
Q 2431 1156 2273 1281 
Q 2116 1406 1581 1522 
L 1381 1569 
Q 847 1681 609 1914 
Q 372 2147 372 2553 
Q 372 3047 722 3315 
Q 1072 3584 1716 3584 
Q 2034 3584 2315 3537 
Q 2597 3491 2834 3397 
z
" transform="scale(0.015625)"/>
      <path id="DejaVuSans-66" d="M 2375 4863 
L 2375 4384 
L 1825 4384 
Q 1516 4384 1395 4259 
Q 1275 4134 1275 3809 
L 1275 3500 
L 2222 3500 
L 2222 3053 
L 1275 3053 
L 1275 0 
L 697 0 
L 697 3053 
L 147 3053 
L 147 3500 
L 697 3500 
L 697 3744 
Q 697 4328 969 4595 
Q 1241 4863 1831 4863 
L 2375 4863 
z
" transform="scale(0.015625)"/>
      <path id="DejaVuSans-6f" d="M 1959 3097 
Q 1497 3097 1228 2736 
Q 959 2375 959 1747 
Q 959 1119 1226 758 
Q 1494 397 1959 397 
Q 2419 397 2687 759 
Q 2956 1122 2956 1747 
Q 2956 2369 2687 2733 
Q 2419 3097 1959 3097 
z
M 1959 3584 
Q 2709 3584 3137 3096 
Q 3566 2609 3566 1747 
Q 3566 888 3137 398 
Q 2709 -91 1959 -91 
Q 1206 -91 779 398 
Q 353 888 353 1747 
Q 353 2609 779 3096 
Q 1206 3584 1959 3584 
z
" transform="scale(0.015625)"/>
      <path id="DejaVuSans-6d" d="M 3328 2828 
Q 3544 3216 3844 3400 
Q 4144 3584 4550 3584 
Q 5097 3584 5394 3201 
Q 5691 2819 5691 2113 
L 5691 0 
L 5113 0 
L 5113 2094 
Q 5113 2597 4934 2840 
Q 4756 3084 4391 3084 
Q 3944 3084 3684 2787 
Q 3425 2491 3425 1978 
L 3425 0 
L 2847 0 
L 2847 2094 
Q 2847 2600 2669 2842 
Q 2491 3084 2119 3084 
Q 1678 3084 1418 2786 
Q 1159 2488 1159 1978 
L 1159 0 
L 581 0 
L 581 3500 
L 1159 3500 
L 1159 2956 
Q 1356 3278 1631 3431 
Q 1906 3584 2284 3584 
Q 2666 3584 2933 3390 
Q 3200 3197 3328 2828 
z
" transform="scale(0.015625)"/>
      <path id="DejaVuSans-69" d="M 603 3500 
L 1178 3500 
L 1178 0 
L 603 0 
L 603 3500 
z
M 603 4863 
L 1178 4863 
L 1178 4134 
L 603 4134 
L 603 4863 
z
" transform="scale(0.015625)"/>
      <path id="DejaVuSans-28" d="M 1984 4856 
Q 1566 4138 1362 3434 
Q 1159 2731 1159 2009 
Q 1159 1288 1364 580 
Q 1569 -128 1984 -844 
L 1484 -844 
Q 1016 -109 783 600 
Q 550 1309 550 2009 
Q 550 2706 781 3412 
Q 1013 4119 1484 4856 
L 1984 4856 
z
" transform="scale(0.015625)"/>
      <path id="DejaVuSans-29" d="M 513 4856 
L 1013 4856 
Q 1481 4119 1714 3412 
Q 1947 2706 1947 2009 
Q 1947 1309 1714 600 
Q 1481 -109 1013 -844 
L 513 -844 
Q 928 -128 1133 580 
Q 1338 1288 1338 2009 
Q 1338 2731 1133 3434 
Q 928 4138 513 4856 
z
" transform="scale(0.015625)"/>
     </defs>
     <use xlink:href="#DejaVuSans-31"/>
     <use xlink:href="#DejaVuSans-20" x="63.623047"/>
     <use xlink:href="#DejaVuSans-74" x="95.410156"/>
     <use xlink:href="#DejaVuSans-72" x="134.619141"/>
     <use xlink:href="#DejaVuSans-61" x="175.732422"/>
     <use xlink:href="#DejaVuSans-6e" x="237.011719"/>
     <use xlink:href="#DejaVuSans-73" x="300.390625"/>
     <use xlink:href="#DejaVuSans-66" x="352.490234"/>
     <use xlink:href="#DejaVuSans-6f" x="387.695312"/>
     <use xlink:href="#DejaVuSans-72" x="448.876953"/>
     <use xlink:href="#DejaVuSans-6d" x="488.240234"/>
     <use xlink:href="#DejaVuSans-61" x="585.652344"/>
     <use xlink:href="#DejaVuSans-74" x="646.931641"/>
     <use xlink:href="#DejaVuSans-69" x="686.140625"/>
     <use xlink:href="#DejaVuSans-6f" x="713.923828"/>
     <use xlink:href="#DejaVuSans-6e" x="775.105469"/>
     <use xlink:href="#DejaVuSans-28" x="838.484375"/>
     <use xlink:href="#DejaVuSans-73" x="877.498047"/>
     <use xlink:href="#DejaVuSans-29" x="929.597656"/>
    </g>
   </g>
   <g id="legend_1">
    <g id="patch_7">
     <path d="M 613.804886 80.79625 
L 695.198636 80.79625 
Q 697.198636 80.79625 697.198636 78.79625 
L 697.198636 50.44 
Q 697.198636 48.44 695.198636 48.44 
L 613.804886 48.44 
Q 611.804886 48.44 611.804886 50.44 
L 611.804886 78.79625 
Q 611.804886 80.79625 613.804886 80.79625 
z
" style="fill: #ffffff; opacity: 0.8; stroke: #cccccc; stroke-linejoin: miter"/>
    </g>
    <g id="line2d_15">
     <path d="M 615.804886 56.538437 
L 625.804886 56.538437 
L 635.804886 56.538437 
" style="fill: none; stroke: #1f77b4; stroke-width: 1.5; stroke-linecap: square"/>
    </g>
    <g id="text_14">
     <!-- observed -->
     <g transform="translate(643.804886 60.038437) scale(0.1 -0.1)">
      <defs>
       <path id="DejaVuSans-62" d="M 3116 1747 
Q 3116 2381 2855 2742 
Q 2594 3103 2138 3103 
Q 1681 3103 1420 2742 
Q 1159 2381 1159 1747 
Q 1159 1113 1420 752 
Q 1681 391 2138 391 
Q 2594 391 2855 752 
Q 3116 1113 3116 1747 
z
M 1159 2969 
Q 1341 3281 1617 3432 
Q 1894 3584 2278 3584 
Q 2916 3584 3314 3078 
Q 3713 2572 3713 1747 
Q 3713 922 3314 415 
Q 2916 -91 2278 -91 
Q 1894 -91 1617 61 
Q 1341 213 1159 525 
L 1159 0 
L 581 0 
L 581 4863 
L 1159 4863 
L 1159 2969 
z
" transform="scale(0.015625)"/>
       <path id="DejaVuSans-65" d="M 3597 1894 
L 3597 1613 
L 953 1613 
Q 991 1019 1311 708 
Q 1631 397 2203 397 
Q 2534 397 2845 478 
Q 3156 559 3463 722 
L 3463 178 
Q 3153 47 2828 -22 
Q 2503 -91 2169 -91 
Q 1331 -91 842 396 
Q 353 884 353 1716 
Q 353 2575 817 3079 
Q 1281 3584 2069 3584 
Q 2775 3584 3186 3129 
Q 3597 2675 3597 1894 
z
M 3022 2063 
Q 3016 2534 2758 2815 
Q 2500 3097 2075 3097 
Q 1594 3097 1305 2825 
Q 1016 2553 972 2059 
L 3022 2063 
z
" transform="scale(0.015625)"/>
       <path id="DejaVuSans-76" d="M 191 3500 
L 800 3500 
L 1894 563 
L 2988 3500 
L 3597 3500 
L 2284 0 
L 1503 0 
L 191 3500 
z
" transform="scale(0.015625)"/>
       <path id="DejaVuSans-64" d="M 2906 2969 
L 2906 4863 
L 3481 4863 
L 3481 0 
L 2906 0 
L 2906 525 
Q 2725 213 2448 61 
Q 2172 -91 1784 -91 
Q 1150 -91 751 415 
Q 353 922 353 1747 
Q 353 2572 751 3078 
Q 1150 3584 1784 3584 
Q 2172 3584 2448 3432 
Q 2725 3281 2906 2969 
z
M 947 1747 
Q 947 1113 1208 752 
Q 1469 391 1925 391 
Q 2381 391 2643 752 
Q 2906 1113 2906 1747 
Q 2906 2381 2643 2742 
Q 2381 3103 1925 3103 
Q 1469 3103 1208 2742 
Q 947 2381 947 1747 
z
" transform="scale(0.015625)"/>
      </defs>
      <use xlink:href="#DejaVuSans-6f"/>
      <use xlink:href="#DejaVuSans-62" x="61.181641"/>
      <use xlink:href="#DejaVuSans-73" x="124.658203"/>
      <use xlink:href="#DejaVuSans-65" x="176.757812"/>
      <use xlink:href="#DejaVuSans-72" x="238.28125"/>
      <use xlink:href="#DejaVuSans-76" x="279.394531"/>
      <use xlink:href="#DejaVuSans-65" x="338.574219"/>
      <use xlink:href="#DejaVuSans-64" x="400.097656"/>
     </g>
    </g>
    <g id="line2d_16">
     <path d="M 615.804886 71.216563 
L 625.804886 71.216563 
L 635.804886 71.216563 
" style="fill: none; stroke: #ff7f0e; stroke-width: 1.5; stroke-linecap: square"/>
    </g>
    <g id="text_15">
     <!-- simulated -->
     <g transform="translate(643.804886 74.716563) scale(0.1 -0.1)">
      <defs>
       <path id="DejaVuSans-75" d="M 544 1381 
L 544 3500 
L 1119 3500 
L 1119 1403 
Q 1119 906 1312 657 
Q 1506 409 1894 409 
Q 2359 409 2629 706 
Q 2900 1003 2900 1516 
L 2900 3500 
L 3475 3500 
L 3475 0 
L 2900 0 
L 2900 538 
Q 2691 219 2414 64 
Q 2138 -91 1772 -91 
Q 1169 -91 856 284 
Q 544 659 544 1381 
z
M 1991 3584 
L 1991 3584 
z
" transform="scale(0.015625)"/>
       <path id="DejaVuSans-6c" d="M 603 4863 
L 1178 4863 
L 1178 0 
L 603 0 
L 603 4863 
z
" transform="scale(0.015625)"/>
      </defs>
      <use xlink:href="#DejaVuSans-73"/>
      <use xlink:href="#DejaVuSans-69" x="52.099609"/>
      <use xlink:href="#DejaVuSans-6d" x="79.882812"/>
      <use xlink:href="#DejaVuSans-75" x="177.294922"/>
      <use xlink:href="#DejaVuSans-6c" x="240.673828"/>
      <use xlink:href="#DejaVuSans-61" x="268.457031"/>
      <use xlink:href="#DejaVuSans-74" x="329.736328"/>
      <use xlink:href="#DejaVuSans-65" x="368.945312"/>
      <use xlink:href="#DejaVuSans-64" x="430.46875"/>
     </g>
    </g>
   </g>
  </g>
  <g id="axes_2">
   <g id="patch_8">
    <path d="M 26.925 684.92 
L 702.198636 684.92 
L 702.198636 386.16 
L 26.925 386.16 
z
" style="fill: #ffffff"/>
   </g>
   <g id="matplotlib.axis_3">
    <g id="xtick_7">
     <g id="line2d_17">
      <g>
       <use xlink:href="#m5b208cff45" x="57.448685" y="684.92" style="stroke: #000000; stroke-width: 0.8"/>
      </g>
     </g>
     <g id="text_16">
      <!-- 2014-07-01 -->
      <g transform="translate(28.390873 699.518437) scale(0.1 -0.1)">
       <use xlink:href="#DejaVuSans-32"/>
       <use xlink:href="#DejaVuSans-30" x="63.623047"/>
       <use xlink:href="#DejaVuSans-31" x="127.246094"/>
       <use xlink:href="#DejaVuSans-34" x="190.869141"/>
       <use xlink:href="#DejaVuSans-2d" x="254.492188"/>
       <use xlink:href="#DejaVuSans-30" x="290.576172"/>
       <use xlink:href="#DejaVuSans-37" x="354.199219"/>
       <use xlink:href="#DejaVuSans-2d" x="417.822266"/>
       <use xlink:href="#DejaVuSans-30" x="453.90625"/>
       <use xlink:href="#DejaVuSans-31" x="517.529297"/>
      </g>
     </g>
    </g>
    <g id="xtick_8">
     <g id="line2d_18">
      <g>
       <use xlink:href="#m5b208cff45" x="180.259824" y="684.92" style="stroke: #000000; stroke-width: 0.8"/>
      </g>
     </g>
     <g id="text_17">
      <!-- 2014-07-02 -->
      <g transform="translate(151.202012 699.518437) scale(0.1 -0.1)">
       <use xlink:href="#DejaVuSans-32"/>
       <use xlink:href="#DejaVuSans-30" x="63.623047"/>
       <use xlink:href="#DejaVuSans-31" x="127.246094"/>
       <use xlink:href="#DejaVuSans-34" x="190.869141"/>
       <use xlink:href="#DejaVuSans-2d" x="254.492188"/>
       <use xlink:href="#DejaVuSans-30" x="290.576172"/>
       <use xlink:href="#DejaVuSans-37" x="354.199219"/>
       <use xlink:href="#DejaVuSans-2d" x="417.822266"/>
       <use xlink:href="#DejaVuSans-30" x="453.90625"/>
       <use xlink:href="#DejaVuSans-32" x="517.529297"/>
      </g>
     </g>
    </g>
    <g id="xtick_9">
     <g id="line2d_19">
      <g>
       <use xlink:href="#m5b208cff45" x="303.070963" y="684.92" style="stroke: #000000; stroke-width: 0.8"/>
      </g>
     </g>
     <g id="text_18">
      <!-- 2014-07-03 -->
      <g transform="translate(274.013151 699.518437) scale(0.1 -0.1)">
       <use xlink:href="#DejaVuSans-32"/>
       <use xlink:href="#DejaVuSans-30" x="63.623047"/>
       <use xlink:href="#DejaVuSans-31" x="127.246094"/>
       <use xlink:href="#DejaVuSans-34" x="190.869141"/>
       <use xlink:href="#DejaVuSans-2d" x="254.492188"/>
       <use xlink:href="#DejaVuSans-30" x="290.576172"/>
       <use xlink:href="#DejaVuSans-37" x="354.199219"/>
       <use xlink:href="#DejaVuSans-2d" x="417.822266"/>
       <use xlink:href="#DejaVuSans-30" x="453.90625"/>
       <use xlink:href="#DejaVuSans-33" x="517.529297"/>
      </g>
     </g>
    </g>
    <g id="xtick_10">
     <g id="line2d_20">
      <g>
       <use xlink:href="#m5b208cff45" x="425.882102" y="684.92" style="stroke: #000000; stroke-width: 0.8"/>
      </g>
     </g>
     <g id="text_19">
      <!-- 2014-07-04 -->
      <g transform="translate(396.82429 699.518437) scale(0.1 -0.1)">
       <use xlink:href="#DejaVuSans-32"/>
       <use xlink:href="#DejaVuSans-30" x="63.623047"/>
       <use xlink:href="#DejaVuSans-31" x="127.246094"/>
       <use xlink:href="#DejaVuSans-34" x="190.869141"/>
       <use xlink:href="#DejaVuSans-2d" x="254.492188"/>
       <use xlink:href="#DejaVuSans-30" x="290.576172"/>
       <use xlink:href="#DejaVuSans-37" x="354.199219"/>
       <use xlink:href="#DejaVuSans-2d" x="417.822266"/>
       <use xlink:href="#DejaVuSans-30" x="453.90625"/>
       <use xlink:href="#DejaVuSans-34" x="517.529297"/>
      </g>
     </g>
    </g>
    <g id="xtick_11">
     <g id="line2d_21">
      <g>
       <use xlink:href="#m5b208cff45" x="548.693241" y="684.92" style="stroke: #000000; stroke-width: 0.8"/>
      </g>
     </g>
     <g id="text_20">
      <!-- 2014-07-05 -->
      <g transform="translate(519.635429 699.518437) scale(0.1 -0.1)">
       <use xlink:href="#DejaVuSans-32"/>
       <use xlink:href="#DejaVuSans-30" x="63.623047"/>
       <use xlink:href="#DejaVuSans-31" x="127.246094"/>
       <use xlink:href="#DejaVuSans-34" x="190.869141"/>
       <use xlink:href="#DejaVuSans-2d" x="254.492188"/>
       <use xlink:href="#DejaVuSans-30" x="290.576172"/>
       <use xlink:href="#DejaVuSans-37" x="354.199219"/>
       <use xlink:href="#DejaVuSans-2d" x="417.822266"/>
       <use xlink:href="#DejaVuSans-30" x="453.90625"/>
       <use xlink:href="#DejaVuSans-35" x="517.529297"/>
      </g>
     </g>
    </g>
    <g id="xtick_12">
     <g id="line2d_22">
      <g>
       <use xlink:href="#m5b208cff45" x="671.50438" y="684.92" style="stroke: #000000; stroke-width: 0.8"/>
      </g>
     </g>
     <g id="text_21">
      <!-- 2014-07-06 -->
      <g transform="translate(642.446568 699.518437) scale(0.1 -0.1)">
       <use xlink:href="#DejaVuSans-32"/>
       <use xlink:href="#DejaVuSans-30" x="63.623047"/>
       <use xlink:href="#DejaVuSans-31" x="127.246094"/>
       <use xlink:href="#DejaVuSans-34" x="190.869141"/>
       <use xlink:href="#DejaVuSans-2d" x="254.492188"/>
       <use xlink:href="#DejaVuSans-30" x="290.576172"/>
       <use xlink:href="#DejaVuSans-37" x="354.199219"/>
       <use xlink:href="#DejaVuSans-2d" x="417.822266"/>
       <use xlink:href="#DejaVuSans-30" x="453.90625"/>
       <use xlink:href="#DejaVuSans-36" x="517.529297"/>
      </g>
     </g>
    </g>
   </g>
   <g id="matplotlib.axis_4">
    <g id="ytick_7">
     <g id="line2d_23">
      <g>
       <use xlink:href="#m1d3e0989a6" x="26.925" y="671.331291" style="stroke: #000000; stroke-width: 0.8"/>
      </g>
     </g>
     <g id="text_22">
      <!-- 0 -->
      <g transform="translate(13.5625 675.130509) scale(0.1 -0.1)">
       <use xlink:href="#DejaVuSans-30"/>
      </g>
     </g>
    </g>
    <g id="ytick_8">
     <g id="line2d_24">
      <g>
       <use xlink:href="#m1d3e0989a6" x="26.925" y="614.107313" style="stroke: #000000; stroke-width: 0.8"/>
      </g>
     </g>
     <g id="text_23">
      <!-- 2 -->
      <g transform="translate(13.5625 617.906532) scale(0.1 -0.1)">
       <use xlink:href="#DejaVuSans-32"/>
      </g>
     </g>
    </g>
    <g id="ytick_9">
     <g id="line2d_25">
      <g>
       <use xlink:href="#m1d3e0989a6" x="26.925" y="556.883335" style="stroke: #000000; stroke-width: 0.8"/>
      </g>
     </g>
     <g id="text_24">
      <!-- 4 -->
      <g transform="translate(13.5625 560.682554) scale(0.1 -0.1)">
       <use xlink:href="#DejaVuSans-34"/>
      </g>
     </g>
    </g>
    <g id="ytick_10">
     <g id="line2d_26">
      <g>
       <use xlink:href="#m1d3e0989a6" x="26.925" y="499.659358" style="stroke: #000000; stroke-width: 0.8"/>
      </g>
     </g>
     <g id="text_25">
      <!-- 6 -->
      <g transform="translate(13.5625 503.458576) scale(0.1 -0.1)">
       <use xlink:href="#DejaVuSans-36"/>
      </g>
     </g>
    </g>
    <g id="ytick_11">
     <g id="line2d_27">
      <g>
       <use xlink:href="#m1d3e0989a6" x="26.925" y="442.43538" style="stroke: #000000; stroke-width: 0.8"/>
      </g>
     </g>
     <g id="text_26">
      <!-- 8 -->
      <g transform="translate(13.5625 446.234599) scale(0.1 -0.1)">
       <use xlink:href="#DejaVuSans-38"/>
      </g>
     </g>
    </g>
   </g>
   <g id="line2d_28">
    <path d="M 57.619256 671.331291 
L 61.115962 671.229506 
L 62.48053 670.93284 
L 63.930384 670.435638 
L 67.171234 669.435909 
L 68.706373 669.350049 
L 71.094367 669.481821 
L 72.544221 669.44999 
L 73.397076 669.216512 
L 74.164646 668.789829 
L 74.591073 668.317858 
L 75.017501 667.370554 
L 75.358643 666.20292 
L 76.296784 662.30536 
L 77.32021 658.133745 
L 77.661352 656.972493 
L 78.684778 653.160413 
L 79.367062 647.53557 
L 79.79349 643.260557 
L 80.561059 637.560066 
L 80.816916 635.756045 
L 80.987487 635.402463 
L 81.158058 633.59087 
L 81.328629 631.585737 
L 81.4992 631.517551 
L 81.584485 630.748668 
L 81.840342 626.254111 
L 82.010913 627.212673 
L 82.26677 622.434203 
L 82.352055 623.032443 
L 82.437341 624.000439 
L 82.522626 623.444105 
L 82.693197 619.295026 
L 82.778483 619.698413 
L 82.949054 621.687583 
L 83.119625 616.895026 
L 83.20491 616.924349 
L 83.375481 620.253635 
L 83.631338 615.006411 
L 83.716623 616.281005 
L 83.887194 618.426929 
L 84.057765 614.958707 
L 84.143051 615.017097 
L 84.313622 617.342484 
L 84.569478 614.597894 
L 84.740049 616.752847 
L 84.825335 616.371173 
L 84.995906 614.30719 
L 85.251762 616.650519 
L 85.507619 614.614856 
L 85.67819 616.372537 
L 85.763476 616.323183 
L 85.934047 615.104652 
L 86.189903 616.31586 
L 86.275189 616.01387 
L 86.360474 615.570518 
L 86.44576 615.609941 
L 86.531045 615.874231 
L 86.701616 612.387246 
L 86.786902 611.014959 
L 86.957473 612.835898 
L 87.042758 612.626985 
L 87.213329 610.815877 
L 87.298615 611.316489 
L 87.469186 613.156364 
L 87.639757 612.341909 
L 87.725042 612.618049 
L 87.980899 614.723487 
L 88.15147 614.061506 
L 88.407326 615.349051 
L 88.663183 613.992075 
L 88.748469 614.169496 
L 88.833754 614.047269 
L 89.089611 612.576423 
L 89.174896 612.703292 
L 89.345467 613.072813 
L 89.516038 612.930227 
L 90.198322 615.868436 
L 90.454179 607.325119 
L 90.62475 611.587819 
L 90.795321 606.874264 
L 90.965892 599.461151 
L 91.136463 600.932195 
L 91.307034 599.858511 
L 91.392319 600.308623 
L 91.477605 598.50145 
L 91.648176 590.875202 
L 91.733461 591.964855 
L 91.818747 591.218712 
L 92.074604 583.633258 
L 92.33046 567.872762 
L 92.842173 537.526961 
L 93.780314 504.714813 
L 94.03617 500.897934 
L 94.121456 499.420655 
L 94.206741 499.602588 
L 94.292027 499.382986 
L 94.377312 500.288912 
L 94.462598 499.75632 
L 94.547883 500.035448 
L 94.633169 499.717341 
L 94.718454 500.564124 
L 94.80374 500.224639 
L 95.059596 503.174721 
L 95.144882 502.846368 
L 96.253594 514.323406 
L 96.424165 512.696597 
L 96.680021 497.163105 
L 97.447591 433.268747 
L 97.874018 416.268727 
L 98.385732 405.373411 
L 98.726874 401.756938 
L 98.98273 400.247502 
L 99.238587 399.781503 
L 99.323872 399.869229 
L 99.494443 399.746303 
L 99.835585 401.064979 
L 100.347298 404.507855 
L 100.859011 409.029586 
L 101.370724 414.511039 
L 102.479436 424.545956 
L 102.564722 424.451681 
L 102.650007 424.820813 
L 102.820578 426.880645 
L 102.991149 427.168845 
L 103.076435 426.945751 
L 103.16172 425.531381 
L 103.247006 425.879066 
L 103.332291 426.299033 
L 103.588148 425.065792 
L 103.758719 425.046227 
L 104.441003 420.601062 
L 105.549715 415.709653 
L 105.635 415.72698 
L 105.805571 415.633579 
L 105.890857 415.607629 
L 106.061428 415.307587 
L 106.146713 415.369991 
L 106.317284 414.945276 
L 106.658426 414.143516 
L 107.255425 412.71313 
L 107.511281 412.850954 
L 107.681852 413.273322 
L 107.852423 413.901048 
L 108.193566 416.148639 
L 108.790564 422.726382 
L 109.387563 430.752302 
L 110.069847 442.357995 
L 111.007987 460.082104 
L 112.116699 476.260062 
L 112.884269 482.772058 
L 113.481267 486.124589 
L 114.334122 489.451853 
L 115.869262 493.915968 
L 116.807402 497.059662 
L 117.745543 501.332103 
L 120.304108 514.698513 
L 121.41282 519.233342 
L 122.009819 521.115102 
L 122.777388 522.96652 
L 122.862674 522.911851 
L 123.033245 523.518089 
L 123.203816 523.326415 
L 123.374387 523.973829 
L 123.459672 523.593496 
L 123.715529 524.607026 
L 123.800814 524.609305 
L 124.056671 525.512338 
L 124.141956 525.048426 
L 124.227242 525.16142 
L 124.312528 525.548875 
L 124.483099 527.249303 
L 124.65367 524.935133 
L 124.738955 525.139195 
L 124.909526 529.483877 
L 125.080097 524.385964 
L 125.165383 525.768177 
L 125.335954 530.046362 
L 125.506525 525.261316 
L 125.59181 525.802626 
L 125.762381 530.810207 
L 125.932952 525.109248 
L 126.188809 531.007243 
L 126.35938 525.562518 
L 126.529951 531.803968 
L 126.615236 531.19406 
L 126.700522 526.714378 
L 126.785807 527.076292 
L 126.956378 532.553379 
L 127.126949 526.412834 
L 127.212235 528.235096 
L 127.382806 532.743238 
L 127.553377 527.498947 
L 127.638663 528.94868 
L 127.809234 533.449427 
L 127.979805 528.179473 
L 128.06509 529.734108 
L 128.235661 533.617635 
L 128.320947 532.709103 
L 128.406232 529.558247 
L 128.491518 530.102818 
L 128.662089 533.711924 
L 128.83266 532.904106 
L 128.917945 530.990175 
L 129.003231 531.232097 
L 129.173802 533.913926 
L 129.259087 533.406124 
L 129.344373 534.222836 
L 129.514944 531.401956 
L 129.685515 534.829184 
L 129.7708 533.964215 
L 129.856086 534.583168 
L 130.026657 532.149538 
L 130.197228 535.401109 
L 130.282513 534.046784 
L 130.367799 535.017051 
L 130.53837 532.524305 
L 130.623655 533.471325 
L 130.708941 535.758945 
L 130.794227 534.336075 
L 130.879512 535.403265 
L 131.050083 532.896234 
L 131.135369 533.318834 
L 131.220654 536.057855 
L 131.30594 534.588926 
L 131.391225 535.698873 
L 131.561796 533.281315 
L 131.647082 533.275162 
L 131.732367 536.212965 
L 131.817653 534.981824 
L 131.902938 535.919185 
L 132.073509 533.525679 
L 132.158795 533.3144 
L 132.24408 536.280335 
L 132.329366 535.202122 
L 132.414651 536.050883 
L 132.585222 533.69592 
L 132.670508 533.251286 
L 132.755793 536.188557 
L 132.841079 535.293409 
L 132.926364 536.022546 
L 133.182221 533.209551 
L 133.267506 536.159743 
L 133.352792 535.403006 
L 133.438077 536.005533 
L 133.693934 533.163437 
L 133.779219 536.087583 
L 133.864505 535.423266 
L 133.949791 535.881406 
L 134.205647 533.034904 
L 134.290933 535.780856 
L 134.376218 535.666498 
L 134.461504 535.799847 
L 134.71736 533.005735 
L 134.802646 535.829985 
L 134.887931 535.521716 
L 134.973217 535.894204 
L 135.229073 532.894215 
L 135.314359 535.70212 
L 135.399644 535.440293 
L 135.48493 535.796477 
L 135.740786 532.787443 
L 135.826072 535.598186 
L 135.911357 535.198125 
L 135.996643 535.700783 
L 136.252499 532.663575 
L 136.337785 535.686171 
L 136.42307 535.106087 
L 136.508356 535.726651 
L 136.764212 532.794537 
L 136.849498 535.906305 
L 136.934783 535.20702 
L 137.020069 535.929663 
L 137.19064 533.427994 
L 137.275926 533.052176 
L 137.361211 536.29256 
L 137.446497 535.448124 
L 137.531782 536.132893 
L 137.702353 533.85395 
L 137.787639 533.518571 
L 137.872924 536.757181 
L 137.95821 535.768427 
L 138.043495 536.497823 
L 138.214066 534.323442 
L 138.299352 533.824003 
L 138.384637 537.062285 
L 138.469923 536.187193 
L 138.555208 536.795041 
L 138.725779 534.886485 
L 138.811065 534.339964 
L 138.89635 537.514245 
L 138.981636 536.701053 
L 139.066921 537.298354 
L 139.237492 535.604653 
L 139.322778 535.005891 
L 139.408063 537.977325 
L 139.493349 537.359272 
L 139.578634 537.763767 
L 139.834491 535.806873 
L 139.919776 538.552511 
L 140.005062 538.29393 
L 140.090347 538.26427 
L 140.346204 537.02025 
L 140.516775 539.515643 
L 140.772632 538.262196 
L 141.028488 540.409563 
L 141.113774 539.466514 
L 141.199059 539.686307 
L 141.284345 539.570708 
L 141.454916 540.44565 
L 141.710772 540.941419 
L 144.695765 548.660324 
L 145.54862 550.48155 
L 147.936615 553.878244 
L 149.130612 555.282067 
L 151.092179 556.725606 
L 153.309602 557.611456 
L 154.333028 558.46652 
L 155.271169 559.43968 
L 156.891594 561.094266 
L 158.426733 562.17254 
L 158.85316 562.471628 
L 160.729442 563.842673 
L 160.985298 563.720859 
L 161.497011 563.245624 
L 162.179295 562.253356 
L 162.605723 561.664356 
L 162.946865 561.433219 
L 163.288007 561.486694 
L 163.629149 561.761169 
L 164.226148 562.639713 
L 165.249574 564.226158 
L 167.296426 567.058369 
L 168.149281 568.157818 
L 168.74628 568.790551 
L 169.51385 569.064194 
L 169.769706 569.129573 
L 170.196134 569.349243 
L 171.645987 570.721455 
L 172.072415 571.166163 
L 173.181127 571.983108 
L 173.863411 572.647787 
L 174.119267 572.904437 
L 175.824977 574.41403 
L 176.251405 574.884525 
L 176.421976 575.01213 
L 177.360117 575.897591 
L 178.639399 576.861324 
L 178.980541 576.935495 
L 179.833397 577.264905 
L 180.174539 577.310815 
L 181.709678 578.330764 
L 182.05082 578.412842 
L 182.306676 578.5357 
L 182.647819 578.490691 
L 182.988961 578.523196 
L 184.182958 578.381135 
L 185.291669 577.582213 
L 186.144525 576.642247 
L 186.485667 576.599012 
L 187.082665 576.73071 
L 188.788375 577.935553 
L 189.300089 578.358433 
L 189.982373 579.055174 
L 191.517512 580.921462 
L 191.773368 581.000245 
L 192.285082 581.488756 
L 194.58779 584.35324 
L 195.014218 584.455121 
L 195.270074 584.521878 
L 195.611217 584.611452 
L 196.549357 585.288847 
L 198.255067 586.885177 
L 199.53435 587.808573 
L 200.30192 588.644257 
L 201.325346 590.082863 
L 203.542769 593.861494 
L 205.589622 597.493527 
L 205.674907 597.381577 
L 205.930764 595.638569 
L 206.016049 595.821054 
L 206.101335 595.678571 
L 206.442477 592.789181 
L 206.613048 591.812665 
L 206.698333 591.759545 
L 206.868904 590.785327 
L 207.210046 587.766708 
L 207.465903 586.62474 
L 207.721759 583.606572 
L 208.062901 582.676647 
L 208.318758 579.924256 
L 208.915757 570.642406 
L 209.256899 567.260112 
L 209.683326 563.060219 
L 210.536181 555.733618 
L 211.730179 540.512038 
L 211.90075 535.57371 
L 211.986035 536.134584 
L 212.071321 535.800597 
L 212.156606 534.553972 
L 212.327177 528.859807 
L 212.497748 531.859305 
L 212.753605 524.787376 
L 212.83889 525.349179 
L 212.924176 527.671971 
L 213.009461 526.630322 
L 213.094747 522.780507 
L 213.180032 523.323277 
L 213.265318 524.306151 
L 213.435889 522.740328 
L 213.521174 523.715043 
L 213.60646 521.837117 
L 213.691745 526.152344 
L 213.862316 521.733892 
L 213.947602 522.163396 
L 214.032887 525.36465 
L 214.118173 522.044686 
L 214.203458 525.782461 
L 214.374029 523.283303 
L 214.5446 526.30332 
L 214.629886 523.094084 
L 214.800457 527.26869 
L 214.885743 525.68352 
L 214.971028 528.642484 
L 215.141599 525.984054 
L 215.31217 530.573892 
L 215.397456 527.915557 
L 215.482741 530.317972 
L 215.568027 527.816057 
L 215.823883 533.278709 
L 215.909169 529.804944 
L 215.994454 532.143481 
L 216.07974 529.913995 
L 216.250311 535.451767 
L 216.335596 534.663555 
L 216.420882 531.319946 
L 216.506167 532.099836 
L 216.676738 537.427133 
L 216.847309 532.221861 
L 216.932595 533.071332 
L 217.103166 538.080345 
L 217.273737 533.502336 
L 217.359022 534.306183 
L 217.529593 537.904906 
L 217.614879 536.468626 
L 217.700164 532.973428 
L 217.78545 534.253957 
L 217.956021 537.510603 
L 218.211878 531.435723 
L 218.382449 533.797317 
L 218.467734 533.297837 
L 218.638305 527.960403 
L 218.808876 523.057479 
L 218.894162 523.340604 
L 218.979447 522.725239 
L 219.320589 517.741506 
L 219.576446 515.011299 
L 220.002873 506.523964 
L 220.25873 502.68475 
L 220.855728 498.349414 
L 220.941014 498.188273 
L 221.538013 492.381606 
L 222.305582 480.40423 
L 222.73201 474.851764 
L 222.987866 473.016705 
L 223.158437 472.582918 
L 223.243723 472.619645 
L 223.414294 473.130558 
L 223.67015 474.983354 
L 224.096578 480.446783 
L 224.864148 494.638597 
L 226.314001 521.792572 
L 227.081571 531.888911 
L 227.252142 533.363434 
L 227.422713 537.393612 
L 227.507998 536.720139 
L 227.593284 534.372585 
L 227.763855 539.709173 
L 227.934426 539.256012 
L 228.019712 538.752153 
L 228.275568 542.243518 
L 228.360854 541.434213 
L 228.872567 543.427493 
L 229.128423 544.068808 
L 229.469565 544.71554 
L 231.772274 548.276812 
L 233.051557 551.395034 
L 234.501411 555.698896 
L 236.377692 561.29796 
L 238.424544 565.753732 
L 238.936257 566.508402 
L 240.044969 567.632382 
L 240.300825 567.834302 
L 242.091821 569.682295 
L 242.944676 570.113565 
L 243.115247 570.200528 
L 243.371104 570.203966 
L 244.053388 570.490645 
L 244.735672 570.981604 
L 245.076814 571.253282 
L 245.503242 571.506952 
L 246.185526 571.968974 
L 246.441382 572.16545 
L 248.061807 573.184438 
L 249.170519 574.43047 
L 249.426375 574.45835 
L 250.279231 574.993084 
L 251.387942 575.854308 
L 251.984941 576.250317 
L 252.496654 576.592708 
L 253.349509 577.32177 
L 253.690651 577.505497 
L 255.140505 578.461392 
L 256.078645 579.288944 
L 256.590358 579.807299 
L 257.528499 580.580306 
L 257.954927 580.756106 
L 258.210783 580.799055 
L 258.722496 580.929737 
L 259.234209 580.978061 
L 259.745922 580.863226 
L 260.854634 580.129103 
L 261.707489 579.439095 
L 262.133917 579.520709 
L 262.475059 579.688514 
L 264.095484 581.043515 
L 264.436626 581.304804 
L 265.204195 581.997806 
L 265.460052 582.077613 
L 266.142336 582.682732 
L 266.995191 583.509746 
L 267.677475 583.864211 
L 267.933332 583.784282 
L 268.359759 583.775659 
L 268.53033 583.692238 
L 269.042043 583.760877 
L 269.980184 584.294444 
L 270.747754 584.664115 
L 271.430038 584.676237 
L 271.77118 584.636426 
L 272.027036 584.635437 
L 272.368178 584.647764 
L 272.70932 584.652205 
L 272.965177 584.591751 
L 273.221034 584.613055 
L 273.47689 584.452502 
L 274.24446 584.479079 
L 275.438457 585.278437 
L 275.694313 585.471073 
L 276.120741 585.573179 
L 276.803025 585.82515 
L 277.058882 585.777528 
L 277.911737 585.877827 
L 278.338164 586.131537 
L 279.446876 586.624931 
L 279.702733 586.604712 
L 280.640873 586.515587 
L 280.982015 586.298155 
L 281.920156 586.159539 
L 283.37001 587.226933 
L 284.393436 588.042111 
L 285.416862 588.977207 
L 287.463714 590.442568 
L 288.231284 591.063254 
L 288.913568 592.11519 
L 289.936994 594.332213 
L 291.216277 597.0316 
L 292.836702 600.058303 
L 294.20127 601.9147 
L 295.395267 603.091056 
L 296.589264 603.756233 
L 300.171256 604.940728 
L 302.132823 605.421223 
L 302.388679 605.371138 
L 302.55925 605.493928 
L 302.900392 605.417532 
L 303.070963 605.448557 
L 303.241534 605.384468 
L 303.412105 605.517114 
L 303.667962 605.302315 
L 303.838533 605.508042 
L 304.094389 605.119304 
L 304.26496 605.339097 
L 304.520817 604.975027 
L 304.606102 605.055679 
L 304.691388 605.062651 
L 304.947244 604.711807 
L 305.117815 604.854761 
L 305.373672 604.20846 
L 305.544243 604.47361 
L 305.8001 603.687942 
L 305.885385 603.748982 
L 305.970671 603.757966 
L 306.226527 603.109024 
L 306.397098 603.242578 
L 306.652955 601.743593 
L 306.823526 601.941005 
L 307.164668 599.986089 
L 307.249953 599.825617 
L 307.932237 596.208584 
L 308.102808 595.611869 
L 309.467377 588.312282 
L 309.808519 586.038155 
L 310.064375 584.616589 
L 310.320232 582.670856 
L 311.173087 577.861068 
L 311.599514 574.832428 
L 311.770086 573.895839 
L 312.793512 566.76714 
L 314.15808 560.524421 
L 314.840364 559.135203 
L 315.352077 555.680832 
L 315.607934 554.95336 
L 315.778505 554.825236 
L 316.119647 554.863396 
L 316.63136 554.988396 
L 316.887216 554.937097 
L 316.972502 554.951641 
L 317.228358 554.645854 
L 317.5695 554.85858 
L 317.910642 555.741531 
L 319.275211 559.461952 
L 319.701638 560.594397 
L 320.639779 563.627921 
L 321.322063 566.487569 
L 323.368915 574.798245 
L 324.136485 576.563191 
L 325.330482 578.502976 
L 327.292049 580.981922 
L 329.253616 583.329996 
L 330.788755 585.553021 
L 332.153323 587.943266 
L 333.603177 591.120781 
L 335.564744 595.353036 
L 337.185168 598.087132 
L 340.596589 601.866935 
L 343.069869 603.650021 
L 343.666867 603.955009 
L 344.434437 604.431486 
L 345.031436 604.875983 
L 345.543149 605.34349 
L 346.225433 605.904167 
L 346.566575 606.286287 
L 346.737146 606.503031 
L 346.907717 606.751311 
L 347.078288 606.811137 
L 347.41943 607.248471 
L 347.504716 607.286011 
L 347.760572 607.790791 
L 347.931143 607.765141 
L 348.187 608.342299 
L 348.272285 608.270999 
L 348.357571 608.239142 
L 348.613427 608.916503 
L 348.698713 608.805399 
L 348.783998 608.70197 
L 349.039855 609.516097 
L 349.12514 609.353558 
L 349.210426 609.146794 
L 349.295711 609.301523 
L 349.466282 610.15001 
L 349.636853 609.577157 
L 349.722139 609.660238 
L 349.89271 610.828681 
L 349.977995 610.590947 
L 350.148566 609.921445 
L 350.319137 611.580199 
L 350.404423 611.331476 
L 350.574994 610.070232 
L 350.745565 612.406667 
L 350.830851 612.196527 
L 351.001422 610.036962 
L 351.257278 613.372644 
L 351.427849 609.742364 
L 351.513135 610.620798 
L 351.683706 615.296166 
L 351.854277 609.70904 
L 351.939562 610.617688 
L 352.110133 616.404971 
L 352.280704 609.94603 
L 352.36599 611.208639 
L 352.536561 616.42018 
L 352.707132 610.202196 
L 352.962988 616.665182 
L 353.133559 610.675863 
L 353.389416 616.819695 
L 353.559987 611.184702 
L 353.730558 617.083757 
L 353.815844 616.990362 
L 353.986415 611.751047 
L 354.156986 617.596614 
L 354.242271 617.135465 
L 354.412842 612.349727 
L 354.583413 618.067409 
L 354.668699 617.280496 
L 354.83927 612.955433 
L 355.009841 618.54084 
L 355.095126 617.545687 
L 355.265697 613.569045 
L 355.436268 618.924912 
L 355.521554 617.748269 
L 355.692125 614.11937 
L 355.862696 619.305596 
L 355.947981 617.928316 
L 356.033267 614.557882 
L 356.118552 614.685003 
L 356.289123 619.67158 
L 356.459694 614.953314 
L 356.54498 615.253988 
L 356.715551 620.040872 
L 356.886122 615.29031 
L 356.971408 615.745616 
L 357.141979 620.318543 
L 357.31255 615.679531 
L 357.397835 616.251873 
L 357.568406 620.668489 
L 357.738977 616.11747 
L 357.824263 616.662105 
L 357.994834 620.991463 
L 358.165405 616.559883 
L 358.25069 617.168622 
L 358.421261 621.295479 
L 358.591832 616.964774 
L 358.677118 617.573584 
L 358.847689 621.581043 
L 359.01826 617.383882 
L 359.103545 618.081345 
L 359.274116 621.917274 
L 359.444687 617.770126 
L 359.529973 618.443322 
L 359.700544 622.176496 
L 359.871115 618.173703 
L 359.9564 618.929236 
L 360.126971 622.47939 
L 360.297543 618.620104 
L 360.382828 619.306087 
L 360.553399 622.808326 
L 360.72397 619.055679 
L 360.809256 619.733797 
L 360.979827 623.082251 
L 361.150398 619.484203 
L 361.235683 620.090094 
L 361.406254 623.363691 
L 361.576825 619.913775 
L 361.662111 620.417044 
L 361.832682 623.64199 
L 361.917967 622.723379 
L 362.003253 620.354316 
L 362.088538 620.789239 
L 362.259109 623.885799 
L 362.344395 623.105834 
L 362.42968 620.753231 
L 362.514966 621.063694 
L 362.685537 624.140034 
L 362.770822 623.571796 
L 362.856108 621.234657 
L 362.941393 621.389942 
L 363.111964 624.400494 
L 363.19725 623.962729 
L 363.282535 621.650142 
L 363.367821 621.69172 
L 363.538392 624.615495 
L 363.623678 624.415788 
L 363.794249 621.978447 
L 363.96482 624.826617 
L 364.050105 624.816514 
L 364.220676 622.243897 
L 364.476533 625.145945 
L 364.647104 622.549912 
L 364.90296 625.506751 
L 365.073531 622.880949 
L 365.329388 625.794334 
L 365.499959 623.233091 
L 365.755815 626.020147 
L 365.926386 623.628401 
L 366.011672 624.22012 
L 366.182243 626.190769 
L 366.267528 625.675914 
L 366.352814 624.091437 
L 366.438099 624.392455 
L 366.60867 626.348342 
L 366.693956 626.272162 
L 366.864527 624.534737 
L 367.120384 626.741336 
L 367.290955 624.752429 
L 367.546811 627.009303 
L 367.717382 625.109248 
L 367.802668 625.544011 
L 367.973239 627.127208 
L 368.058524 626.912279 
L 368.229095 625.677182 
L 368.484952 627.395749 
L 368.655523 625.93154 
L 368.826094 626.853146 
L 368.911379 627.564161 
L 368.996665 627.28312 
L 369.167236 626.411753 
L 369.423092 627.777259 
L 369.593663 626.677718 
L 369.678949 626.833367 
L 369.84952 627.843609 
L 369.934806 627.764021 
L 370.105377 627.10866 
L 370.190662 627.230396 
L 370.361233 628.000493 
L 370.61709 627.484884 
L 370.702375 627.604027 
L 370.872946 628.095941 
L 371.043517 627.818304 
L 373.175655 628.924653 
L 374.02851 629.127539 
L 376.331219 629.332433 
L 381.704206 629.46346 
L 406.266434 630.224471 
L 429.037666 631.171306 
L 455.817317 632.53703 
L 481.914684 634.092778 
L 507.670909 635.84828 
L 535.729843 638.032586 
L 554.322085 639.706434 
L 582.295733 642.623547 
L 588.862718 643.762515 
L 615.301227 648.957824 
L 621.953497 650.488268 
L 633.040614 652.821825 
L 644.042445 654.808012 
L 654.958991 656.411459 
L 668.348816 657.903565 
L 671.50438 658.182051 
L 671.50438 658.182051 
" clip-path="url(#pf35ea80111)" style="fill: none; stroke: #1f77b4; stroke-width: 1.5; stroke-linecap: square"/>
   </g>
   <g id="line2d_29">
    <path d="M 57.619256 671.331291 
L 58.983824 671.245522 
L 60.433678 670.677519 
L 61.968817 669.711843 
L 63.333386 668.520108 
L 66.233093 665.664785 
L 67.000663 665.300964 
L 67.768232 665.198549 
L 68.706373 665.325828 
L 69.815085 665.718793 
L 71.179653 666.274218 
L 71.947222 666.331932 
L 72.714792 666.057265 
L 73.482362 665.396679 
L 73.823504 664.92185 
L 74.761644 662.985654 
L 75.273357 661.49453 
L 75.699785 660.071184 
L 77.064353 654.572149 
L 77.831923 650.921619 
L 78.25835 648.350402 
L 78.855349 644.507039 
L 81.072772 628.281844 
L 82.096198 620.008544 
L 82.949054 613.585717 
L 83.887194 606.35765 
L 84.825335 599.539899 
L 85.507619 595.286182 
L 86.104618 592.385981 
L 86.44576 591.411659 
L 86.616331 590.701616 
L 87.213329 586.368595 
L 87.810328 583.2526 
L 88.322041 581.598665 
L 88.748469 580.915419 
L 89.089611 580.762237 
L 89.430753 580.911959 
L 89.771895 581.324316 
L 89.942466 581.587027 
L 90.198322 582.757206 
L 90.283608 582.55722 
L 90.710035 579.927254 
L 90.880606 578.471292 
L 92.245175 555.892031 
L 96.338879 457.428027 
L 97.618162 428.271681 
L 98.129875 420.781733 
L 98.556303 417.444851 
L 98.726874 417.121236 
L 98.98273 417.117476 
L 99.153301 417.509867 
L 99.579729 420.09417 
L 100.006156 423.889198 
L 101.967723 441.778473 
L 102.308865 442.97899 
L 102.564722 443.804704 
L 102.820578 443.143097 
L 102.991149 443.400356 
L 103.076435 443.280645 
L 103.247006 441.832763 
L 104.099861 434.137108 
L 104.952716 428.790518 
L 105.635 425.800364 
L 106.146713 424.255521 
L 106.658426 423.236611 
L 107.255425 422.782218 
L 107.596567 422.875209 
L 107.937709 423.275308 
L 108.364137 424.237252 
L 108.790564 425.848329 
L 109.216992 428.274668 
L 109.728705 432.549158 
L 110.325703 439.845562 
L 111.093273 452.525191 
L 112.201985 470.827067 
L 112.798983 477.500343 
L 113.395982 481.919254 
L 114.078266 485.337248 
L 114.931121 488.522097 
L 116.039833 491.757578 
L 117.23383 494.465425 
L 119.280682 498.497899 
L 120.133537 498.590234 
L 121.327535 499.178786 
L 122.947959 500.72125 
L 123.8861 501.842435 
L 126.274094 505.158777 
L 127.212235 507.386116 
L 129.088516 512.230578 
L 130.026657 513.457899 
L 130.623655 513.968916 
L 131.050083 514.226843 
L 133.182221 515.395879 
L 134.035076 515.474317 
L 134.376218 515.546881 
L 134.632075 515.545632 
L 134.973217 515.572055 
L 135.229073 515.528799 
L 135.570215 515.497007 
L 135.826072 515.405152 
L 136.252499 515.265946 
L 136.849498 515.197714 
L 137.361211 515.394645 
L 137.95821 516.00498 
L 138.640494 517.152884 
L 139.408063 518.957824 
L 140.260918 521.539222 
L 141.36963 525.69446 
L 142.819484 532.113659 
L 145.036907 542.138073 
L 145.719191 543.965165 
L 146.401475 544.894351 
L 147.169045 545.426007 
L 149.72761 546.600889 
L 150.324609 546.69154 
L 152.286176 547.036357 
L 152.627318 547.013828 
L 153.224316 547.325335 
L 154.077172 548.320017 
L 155.271169 549.899439 
L 156.806308 551.288583 
L 157.488592 551.543516 
L 158.000305 551.776062 
L 158.767875 552.066568 
L 159.364873 552.509839 
L 160.047158 553.390366 
L 161.582297 555.671322 
L 162.605723 556.614253 
L 163.543864 557.384993 
L 164.226148 558.264872 
L 164.652575 558.901446 
L 165.50543 559.799092 
L 165.931858 560.217831 
L 166.614142 560.49431 
L 167.381712 560.473705 
L 167.808139 560.466769 
L 168.319852 560.486193 
L 168.74628 560.695003 
L 169.684421 561.23243 
L 170.281419 561.659743 
L 171.134274 562.513377 
L 171.645987 562.996597 
L 173.436983 564.937598 
L 174.119267 566.011189 
L 174.63098 566.691427 
L 175.39855 567.211357 
L 177.360117 568.157262 
L 178.468828 569.295677 
L 178.80997 569.56487 
L 181.453821 570.694597 
L 181.880249 570.994489 
L 183.585959 571.401056 
L 184.097672 571.225772 
L 184.865242 570.872233 
L 186.400381 569.734436 
L 187.082665 569.802259 
L 188.617804 570.814311 
L 189.982373 572.326567 
L 190.664657 573.475826 
L 191.17637 574.396118 
L 191.943939 575.158626 
L 192.796795 575.840244 
L 194.758361 577.502444 
L 196.208215 577.54074 
L 196.890499 577.871892 
L 197.658069 578.52752 
L 198.425638 579.490013 
L 199.107923 580.743417 
L 200.046063 583.056137 
L 204.736766 595.139397 
L 205.674907 596.891854 
L 205.760193 596.804439 
L 206.527762 593.258747 
L 207.465903 584.73959 
L 208.6599 569.407433 
L 209.598041 555.911826 
L 211.218465 533.010853 
L 212.583034 515.994233 
L 213.180032 510.412648 
L 213.60646 507.878793 
L 213.947602 506.733909 
L 214.118173 506.611383 
L 214.374029 506.897493 
L 214.629886 507.45313 
L 215.226885 510.185011 
L 216.676738 518.297739 
L 217.01788 519.040281 
L 217.188451 519.509361 
L 217.444308 520.057577 
L 217.700164 519.52826 
L 217.870735 519.683925 
L 217.956021 519.573582 
L 218.126592 518.445733 
L 218.723591 513.152314 
L 219.747017 496.594617 
L 220.599872 486.390655 
L 221.367442 479.743562 
L 222.135011 475.033133 
L 222.817295 472.167111 
L 223.243723 471.114549 
L 223.584865 470.746023 
L 223.840721 470.785154 
L 224.096578 471.131604 
L 224.43772 472.140481 
L 224.778862 473.876845 
L 225.20529 477.269403 
L 225.717003 483.451006 
L 226.399287 495.241241 
L 227.763855 520.337094 
L 228.360854 526.934729 
L 228.872567 530.375215 
L 229.469565 532.883617 
L 230.32242 535.345696 
L 231.431132 537.878434 
L 232.369273 539.461623 
L 233.307413 540.538936 
L 235.865979 542.633377 
L 237.059976 542.909846 
L 237.912831 542.810635 
L 238.253973 542.806624 
L 238.680401 542.547134 
L 238.936257 542.453897 
L 239.362685 542.12641 
L 239.703827 541.818058 
L 240.300825 541.385747 
L 240.727253 541.19979 
L 241.153681 541.124734 
L 241.92125 541.297974 
L 243.285818 541.616225 
L 243.712246 541.631604 
L 244.309245 541.736929 
L 244.735672 542.059969 
L 245.332671 542.68239 
L 246.526668 544.153525 
L 247.038381 545.047539 
L 248.829377 547.255369 
L 249.511661 547.489185 
L 250.023374 547.428907 
L 250.449802 547.548991 
L 250.876229 547.87289 
L 251.473228 548.670091 
L 251.984941 549.430212 
L 252.837796 550.458729 
L 254.458221 552.568335 
L 255.140505 553.251985 
L 257.69907 556.377585 
L 258.040212 556.58955 
L 259.063638 556.671776 
L 260.598778 556.387007 
L 261.707489 556.666994 
L 262.133917 557.005362 
L 262.816201 557.789328 
L 264.095484 559.276713 
L 264.607197 559.618486 
L 266.05705 560.827823 
L 267.506904 562.155672 
L 267.762761 562.289651 
L 268.189188 562.228268 
L 268.359759 562.176986 
L 268.871472 561.771287 
L 269.383185 561.566188 
L 270.491897 561.589779 
L 271.259467 562.080981 
L 271.856465 562.488545 
L 273.221034 563.547443 
L 273.732747 563.561836 
L 274.073889 563.514747 
L 274.500316 563.523673 
L 274.926744 563.749289 
L 275.523742 564.372079 
L 276.120741 565.151709 
L 277.314738 566.612246 
L 277.570595 566.705973 
L 278.508735 566.254739 
L 279.532162 566.102147 
L 279.873304 566.038104 
L 280.385017 566.185537 
L 280.726159 566.370937 
L 281.152586 566.552625 
L 282.005441 567.107618 
L 283.540581 568.604255 
L 284.222865 569.538498 
L 284.905149 570.873016 
L 285.758004 573.100165 
L 287.719571 579.034859 
L 290.192851 586.749141 
L 290.533993 587.382435 
L 291.301562 587.986753 
L 293.177844 589.360991 
L 294.542412 590.696212 
L 296.759835 592.925261 
L 297.61269 593.782026 
L 298.294974 594.795183 
L 300.597683 598.639751 
L 301.109396 599.080649 
L 301.962251 599.448919 
L 302.303394 599.427451 
L 303.412105 599.06939 
L 303.923818 598.718641 
L 304.606102 597.977367 
L 305.8001 595.573757 
L 307.079382 590.973146 
L 309.126235 578.069663 
L 312.878797 551.569885 
L 314.328651 543.524583 
L 314.755078 542.051292 
L 314.92565 541.786928 
L 315.181506 540.092865 
L 315.778505 536.653876 
L 316.290218 534.741639 
L 316.716645 533.817837 
L 317.057787 533.506538 
L 317.313644 533.501463 
L 317.654786 533.738885 
L 317.995928 534.264075 
L 318.507641 535.479569 
L 319.189925 537.859944 
L 320.213351 542.49412 
L 322.004347 552.039118 
L 322.857202 557.72175 
L 324.22177 567.054083 
L 324.818769 569.402343 
L 325.330482 570.546878 
L 325.927481 571.3306 
L 327.718476 573.381546 
L 328.827188 575.146366 
L 330.618184 578.504294 
L 334.797174 586.626918 
L 338.890879 592.869793 
L 341.620015 596.813489 
L 345.71372 602.342082 
L 349.722139 607.383645 
L 353.730558 612.064225 
L 357.738977 616.404383 
L 361.832682 620.509657 
L 366.011672 624.38433 
L 370.275948 628.033782 
L 374.625509 631.464133 
L 379.060355 634.682074 
L 383.665773 637.749155 
L 388.441762 640.659005 
L 393.303036 643.362025 
L 398.420167 645.950374 
L 403.707869 648.373624 
L 409.251427 650.666096 
L 415.050842 652.81975 
L 421.106113 654.829277 
L 427.502527 656.715587 
L 434.240082 658.469811 
L 441.404066 660.104705 
L 449.079762 661.626481 
L 457.352457 663.036487 
L 466.307435 664.332838 
L 476.029984 665.511976 
L 486.690673 666.57783 
L 498.545359 667.535456 
L 511.849899 668.382421 
L 527.030721 669.120539 
L 544.684822 669.749895 
L 565.750344 670.270999 
L 591.847711 670.685132 
L 626.132487 670.994178 
L 671.50438 671.188784 
L 671.50438 671.188784 
" clip-path="url(#pf35ea80111)" style="fill: none; stroke: #ff7f0e; stroke-width: 1.5; stroke-linecap: square"/>
   </g>
   <g id="patch_9">
    <path d="M 26.925 684.92 
L 26.925 386.16 
" style="fill: none; stroke: #000000; stroke-width: 0.8; stroke-linejoin: miter; stroke-linecap: square"/>
   </g>
   <g id="patch_10">
    <path d="M 702.198636 684.92 
L 702.198636 386.16 
" style="fill: none; stroke: #000000; stroke-width: 0.8; stroke-linejoin: miter; stroke-linecap: square"/>
   </g>
   <g id="patch_11">
    <path d="M 26.925 684.92 
L 702.198636 684.92 
" style="fill: none; stroke: #000000; stroke-width: 0.8; stroke-linejoin: miter; stroke-linecap: square"/>
   </g>
   <g id="patch_12">
    <path d="M 26.925 386.16 
L 702.198636 386.16 
" style="fill: none; stroke: #000000; stroke-width: 0.8; stroke-linejoin: miter; stroke-linecap: square"/>
   </g>
   <g id="text_27">
    <!-- 2 transformation(s) -->
    <g transform="translate(306.447131 380.16) scale(0.12 -0.12)">
     <use xlink:href="#DejaVuSans-32"/>
     <use xlink:href="#DejaVuSans-20" x="63.623047"/>
     <use xlink:href="#DejaVuSans-74" x="95.410156"/>
     <use xlink:href="#DejaVuSans-72" x="134.619141"/>
     <use xlink:href="#DejaVuSans-61" x="175.732422"/>
     <use xlink:href="#DejaVuSans-6e" x="237.011719"/>
     <use xlink:href="#DejaVuSans-73" x="300.390625"/>
     <use xlink:href="#DejaVuSans-66" x="352.490234"/>
     <use xlink:href="#DejaVuSans-6f" x="387.695312"/>
     <use xlink:href="#DejaVuSans-72" x="448.876953"/>
     <use xlink:href="#DejaVuSans-6d" x="488.240234"/>
     <use xlink:href="#DejaVuSans-61" x="585.652344"/>
     <use xlink:href="#DejaVuSans-74" x="646.931641"/>
     <use xlink:href="#DejaVuSans-69" x="686.140625"/>
     <use xlink:href="#DejaVuSans-6f" x="713.923828"/>
     <use xlink:href="#DejaVuSans-6e" x="775.105469"/>
     <use xlink:href="#DejaVuSans-28" x="838.484375"/>
     <use xlink:href="#DejaVuSans-73" x="877.498047"/>
     <use xlink:href="#DejaVuSans-29" x="929.597656"/>
    </g>
   </g>
  </g>
  <g id="text_28">
   <!-- training -->
   <g transform="translate(333.191563 16.318125) scale(0.12 -0.12)">
    <defs>
     <path id="DejaVuSans-67" d="M 2906 1791 
Q 2906 2416 2648 2759 
Q 2391 3103 1925 3103 
Q 1463 3103 1205 2759 
Q 947 2416 947 1791 
Q 947 1169 1205 825 
Q 1463 481 1925 481 
Q 2391 481 2648 825 
Q 2906 1169 2906 1791 
z
M 3481 434 
Q 3481 -459 3084 -895 
Q 2688 -1331 1869 -1331 
Q 1566 -1331 1297 -1286 
Q 1028 -1241 775 -1147 
L 775 -588 
Q 1028 -725 1275 -790 
Q 1522 -856 1778 -856 
Q 2344 -856 2625 -561 
Q 2906 -266 2906 331 
L 2906 616 
Q 2728 306 2450 153 
Q 2172 0 1784 0 
Q 1141 0 747 490 
Q 353 981 353 1791 
Q 353 2603 747 3093 
Q 1141 3584 1784 3584 
Q 2172 3584 2450 3431 
Q 2728 3278 2906 2969 
L 2906 3500 
L 3481 3500 
L 3481 434 
z
" transform="scale(0.015625)"/>
    </defs>
    <use xlink:href="#DejaVuSans-74"/>
    <use xlink:href="#DejaVuSans-72" x="39.208984"/>
    <use xlink:href="#DejaVuSans-61" x="80.322266"/>
    <use xlink:href="#DejaVuSans-69" x="141.601562"/>
    <use xlink:href="#DejaVuSans-6e" x="169.384766"/>
    <use xlink:href="#DejaVuSans-69" x="232.763672"/>
    <use xlink:href="#DejaVuSans-6e" x="260.546875"/>
    <use xlink:href="#DejaVuSans-67" x="323.925781"/>
   </g>
  </g>
 </g>
 <defs>
  <clipPath id="p90420b3f02">
   <rect x="26.925" y="43.44" width="675.273636" height="298.76"/>
  </clipPath>
  <clipPath id="pf35ea80111">
   <rect x="26.925" y="386.16" width="675.273636" height="298.76"/>
  </clipPath>
 </defs>
</svg>
