<?xml version="1.0" encoding="utf-8" standalone="no"?>
<!DOCTYPE svg PUBLIC "-//W3C//DTD SVG 1.1//EN"
  "http://www.w3.org/Graphics/SVG/1.1/DTD/svg11.dtd">
<svg xmlns:xlink="http://www.w3.org/1999/xlink" width="709.426761pt" height="708.798125pt" viewBox="0 0 709.426761 708.798125" xmlns="http://www.w3.org/2000/svg" version="1.1">
 <metadata>
  <rdf:RDF xmlns:dc="http://purl.org/dc/elements/1.1/" xmlns:cc="http://creativecommons.org/ns#" xmlns:rdf="http://www.w3.org/1999/02/22-rdf-syntax-ns#">
   <cc:Work>
    <dc:type rdf:resource="http://purl.org/dc/dcmitype/StillImage"/>
    <dc:date>2023-06-04T09:04:38.158486</dc:date>
    <dc:format>image/svg+xml</dc:format>
    <dc:creator>
     <cc:Agent>
      <dc:title>Matplotlib v3.7.1, https://matplotlib.org/</dc:title>
     </cc:Agent>
    </dc:creator>
   </cc:Work>
  </rdf:RDF>
 </metadata>
 <defs>
  <style type="text/css">*{stroke-linejoin: round; stroke-linecap: butt}</style>
 </defs>
 <g id="figure_1">
  <g id="patch_1">
   <path d="M 0 708.798125 
L 709.426761 708.798125 
L 709.426761 0 
L 0 0 
z
" style="fill: #ffffff"/>
  </g>
  <g id="axes_1">
   <g id="patch_2">
    <path d="M 30.103125 342.2 
L 702.226761 342.2 
L 702.226761 43.44 
L 30.103125 43.44 
z
" style="fill: #ffffff"/>
   </g>
   <g id="matplotlib.axis_1">
    <g id="xtick_1">
     <g id="line2d_1">
      <defs>
       <path id="m95eeef28a8" d="M 0 0 
L 0 3.5 
" style="stroke: #000000; stroke-width: 0.8"/>
      </defs>
      <g>
       <use xlink:href="#m95eeef28a8" x="60.484424" y="342.2" style="stroke: #000000; stroke-width: 0.8"/>
      </g>
     </g>
     <g id="text_1">
      <!-- 2014-07-01 -->
      <g transform="translate(31.426612 356.798437) scale(0.1 -0.1)">
       <defs>
        <path id="DejaVuSans-32" d="M 1228 531 
L 3431 531 
L 3431 0 
L 469 0 
L 469 531 
Q 828 903 1448 1529 
Q 2069 2156 2228 2338 
Q 2531 2678 2651 2914 
Q 2772 3150 2772 3378 
Q 2772 3750 2511 3984 
Q 2250 4219 1831 4219 
Q 1534 4219 1204 4116 
Q 875 4013 500 3803 
L 500 4441 
Q 881 4594 1212 4672 
Q 1544 4750 1819 4750 
Q 2544 4750 2975 4387 
Q 3406 4025 3406 3419 
Q 3406 3131 3298 2873 
Q 3191 2616 2906 2266 
Q 2828 2175 2409 1742 
Q 1991 1309 1228 531 
z
" transform="scale(0.015625)"/>
        <path id="DejaVuSans-30" d="M 2034 4250 
Q 1547 4250 1301 3770 
Q 1056 3291 1056 2328 
Q 1056 1369 1301 889 
Q 1547 409 2034 409 
Q 2525 409 2770 889 
Q 3016 1369 3016 2328 
Q 3016 3291 2770 3770 
Q 2525 4250 2034 4250 
z
M 2034 4750 
Q 2819 4750 3233 4129 
Q 3647 3509 3647 2328 
Q 3647 1150 3233 529 
Q 2819 -91 2034 -91 
Q 1250 -91 836 529 
Q 422 1150 422 2328 
Q 422 3509 836 4129 
Q 1250 4750 2034 4750 
z
" transform="scale(0.015625)"/>
        <path id="DejaVuSans-31" d="M 794 531 
L 1825 531 
L 1825 4091 
L 703 3866 
L 703 4441 
L 1819 4666 
L 2450 4666 
L 2450 531 
L 3481 531 
L 3481 0 
L 794 0 
L 794 531 
z
" transform="scale(0.015625)"/>
        <path id="DejaVuSans-34" d="M 2419 4116 
L 825 1625 
L 2419 1625 
L 2419 4116 
z
M 2253 4666 
L 3047 4666 
L 3047 1625 
L 3713 1625 
L 3713 1100 
L 3047 1100 
L 3047 0 
L 2419 0 
L 2419 1100 
L 313 1100 
L 313 1709 
L 2253 4666 
z
" transform="scale(0.015625)"/>
        <path id="DejaVuSans-2d" d="M 313 2009 
L 1997 2009 
L 1997 1497 
L 313 1497 
L 313 2009 
z
" transform="scale(0.015625)"/>
        <path id="DejaVuSans-37" d="M 525 4666 
L 3525 4666 
L 3525 4397 
L 1831 0 
L 1172 0 
L 2766 4134 
L 525 4134 
L 525 4666 
z
" transform="scale(0.015625)"/>
       </defs>
       <use xlink:href="#DejaVuSans-32"/>
       <use xlink:href="#DejaVuSans-30" x="63.623047"/>
       <use xlink:href="#DejaVuSans-31" x="127.246094"/>
       <use xlink:href="#DejaVuSans-34" x="190.869141"/>
       <use xlink:href="#DejaVuSans-2d" x="254.492188"/>
       <use xlink:href="#DejaVuSans-30" x="290.576172"/>
       <use xlink:href="#DejaVuSans-37" x="354.199219"/>
       <use xlink:href="#DejaVuSans-2d" x="417.822266"/>
       <use xlink:href="#DejaVuSans-30" x="453.90625"/>
       <use xlink:href="#DejaVuSans-31" x="517.529297"/>
      </g>
     </g>
    </g>
    <g id="xtick_2">
     <g id="line2d_2">
      <g>
       <use xlink:href="#m95eeef28a8" x="182.722677" y="342.2" style="stroke: #000000; stroke-width: 0.8"/>
      </g>
     </g>
     <g id="text_2">
      <!-- 2014-07-02 -->
      <g transform="translate(153.664864 356.798437) scale(0.1 -0.1)">
       <use xlink:href="#DejaVuSans-32"/>
       <use xlink:href="#DejaVuSans-30" x="63.623047"/>
       <use xlink:href="#DejaVuSans-31" x="127.246094"/>
       <use xlink:href="#DejaVuSans-34" x="190.869141"/>
       <use xlink:href="#DejaVuSans-2d" x="254.492188"/>
       <use xlink:href="#DejaVuSans-30" x="290.576172"/>
       <use xlink:href="#DejaVuSans-37" x="354.199219"/>
       <use xlink:href="#DejaVuSans-2d" x="417.822266"/>
       <use xlink:href="#DejaVuSans-30" x="453.90625"/>
       <use xlink:href="#DejaVuSans-32" x="517.529297"/>
      </g>
     </g>
    </g>
    <g id="xtick_3">
     <g id="line2d_3">
      <g>
       <use xlink:href="#m95eeef28a8" x="304.960929" y="342.2" style="stroke: #000000; stroke-width: 0.8"/>
      </g>
     </g>
     <g id="text_3">
      <!-- 2014-07-03 -->
      <g transform="translate(275.903117 356.798437) scale(0.1 -0.1)">
       <defs>
        <path id="DejaVuSans-33" d="M 2597 2516 
Q 3050 2419 3304 2112 
Q 3559 1806 3559 1356 
Q 3559 666 3084 287 
Q 2609 -91 1734 -91 
Q 1441 -91 1130 -33 
Q 819 25 488 141 
L 488 750 
Q 750 597 1062 519 
Q 1375 441 1716 441 
Q 2309 441 2620 675 
Q 2931 909 2931 1356 
Q 2931 1769 2642 2001 
Q 2353 2234 1838 2234 
L 1294 2234 
L 1294 2753 
L 1863 2753 
Q 2328 2753 2575 2939 
Q 2822 3125 2822 3475 
Q 2822 3834 2567 4026 
Q 2313 4219 1838 4219 
Q 1578 4219 1281 4162 
Q 984 4106 628 3988 
L 628 4550 
Q 988 4650 1302 4700 
Q 1616 4750 1894 4750 
Q 2613 4750 3031 4423 
Q 3450 4097 3450 3541 
Q 3450 3153 3228 2886 
Q 3006 2619 2597 2516 
z
" transform="scale(0.015625)"/>
       </defs>
       <use xlink:href="#DejaVuSans-32"/>
       <use xlink:href="#DejaVuSans-30" x="63.623047"/>
       <use xlink:href="#DejaVuSans-31" x="127.246094"/>
       <use xlink:href="#DejaVuSans-34" x="190.869141"/>
       <use xlink:href="#DejaVuSans-2d" x="254.492188"/>
       <use xlink:href="#DejaVuSans-30" x="290.576172"/>
       <use xlink:href="#DejaVuSans-37" x="354.199219"/>
       <use xlink:href="#DejaVuSans-2d" x="417.822266"/>
       <use xlink:href="#DejaVuSans-30" x="453.90625"/>
       <use xlink:href="#DejaVuSans-33" x="517.529297"/>
      </g>
     </g>
    </g>
    <g id="xtick_4">
     <g id="line2d_4">
      <g>
       <use xlink:href="#m95eeef28a8" x="427.199182" y="342.2" style="stroke: #000000; stroke-width: 0.8"/>
      </g>
     </g>
     <g id="text_4">
      <!-- 2014-07-04 -->
      <g transform="translate(398.141369 356.798437) scale(0.1 -0.1)">
       <use xlink:href="#DejaVuSans-32"/>
       <use xlink:href="#DejaVuSans-30" x="63.623047"/>
       <use xlink:href="#DejaVuSans-31" x="127.246094"/>
       <use xlink:href="#DejaVuSans-34" x="190.869141"/>
       <use xlink:href="#DejaVuSans-2d" x="254.492188"/>
       <use xlink:href="#DejaVuSans-30" x="290.576172"/>
       <use xlink:href="#DejaVuSans-37" x="354.199219"/>
       <use xlink:href="#DejaVuSans-2d" x="417.822266"/>
       <use xlink:href="#DejaVuSans-30" x="453.90625"/>
       <use xlink:href="#DejaVuSans-34" x="517.529297"/>
      </g>
     </g>
    </g>
    <g id="xtick_5">
     <g id="line2d_5">
      <g>
       <use xlink:href="#m95eeef28a8" x="549.437434" y="342.2" style="stroke: #000000; stroke-width: 0.8"/>
      </g>
     </g>
     <g id="text_5">
      <!-- 2014-07-05 -->
      <g transform="translate(520.379622 356.798437) scale(0.1 -0.1)">
       <defs>
        <path id="DejaVuSans-35" d="M 691 4666 
L 3169 4666 
L 3169 4134 
L 1269 4134 
L 1269 2991 
Q 1406 3038 1543 3061 
Q 1681 3084 1819 3084 
Q 2600 3084 3056 2656 
Q 3513 2228 3513 1497 
Q 3513 744 3044 326 
Q 2575 -91 1722 -91 
Q 1428 -91 1123 -41 
Q 819 9 494 109 
L 494 744 
Q 775 591 1075 516 
Q 1375 441 1709 441 
Q 2250 441 2565 725 
Q 2881 1009 2881 1497 
Q 2881 1984 2565 2268 
Q 2250 2553 1709 2553 
Q 1456 2553 1204 2497 
Q 953 2441 691 2322 
L 691 4666 
z
" transform="scale(0.015625)"/>
       </defs>
       <use xlink:href="#DejaVuSans-32"/>
       <use xlink:href="#DejaVuSans-30" x="63.623047"/>
       <use xlink:href="#DejaVuSans-31" x="127.246094"/>
       <use xlink:href="#DejaVuSans-34" x="190.869141"/>
       <use xlink:href="#DejaVuSans-2d" x="254.492188"/>
       <use xlink:href="#DejaVuSans-30" x="290.576172"/>
       <use xlink:href="#DejaVuSans-37" x="354.199219"/>
       <use xlink:href="#DejaVuSans-2d" x="417.822266"/>
       <use xlink:href="#DejaVuSans-30" x="453.90625"/>
       <use xlink:href="#DejaVuSans-35" x="517.529297"/>
      </g>
     </g>
    </g>
    <g id="xtick_6">
     <g id="line2d_6">
      <g>
       <use xlink:href="#m95eeef28a8" x="671.675687" y="342.2" style="stroke: #000000; stroke-width: 0.8"/>
      </g>
     </g>
     <g id="text_6">
      <!-- 2014-07-06 -->
      <g transform="translate(642.617874 356.798437) scale(0.1 -0.1)">
       <defs>
        <path id="DejaVuSans-36" d="M 2113 2584 
Q 1688 2584 1439 2293 
Q 1191 2003 1191 1497 
Q 1191 994 1439 701 
Q 1688 409 2113 409 
Q 2538 409 2786 701 
Q 3034 994 3034 1497 
Q 3034 2003 2786 2293 
Q 2538 2584 2113 2584 
z
M 3366 4563 
L 3366 3988 
Q 3128 4100 2886 4159 
Q 2644 4219 2406 4219 
Q 1781 4219 1451 3797 
Q 1122 3375 1075 2522 
Q 1259 2794 1537 2939 
Q 1816 3084 2150 3084 
Q 2853 3084 3261 2657 
Q 3669 2231 3669 1497 
Q 3669 778 3244 343 
Q 2819 -91 2113 -91 
Q 1303 -91 875 529 
Q 447 1150 447 2328 
Q 447 3434 972 4092 
Q 1497 4750 2381 4750 
Q 2619 4750 2861 4703 
Q 3103 4656 3366 4563 
z
" transform="scale(0.015625)"/>
       </defs>
       <use xlink:href="#DejaVuSans-32"/>
       <use xlink:href="#DejaVuSans-30" x="63.623047"/>
       <use xlink:href="#DejaVuSans-31" x="127.246094"/>
       <use xlink:href="#DejaVuSans-34" x="190.869141"/>
       <use xlink:href="#DejaVuSans-2d" x="254.492188"/>
       <use xlink:href="#DejaVuSans-30" x="290.576172"/>
       <use xlink:href="#DejaVuSans-37" x="354.199219"/>
       <use xlink:href="#DejaVuSans-2d" x="417.822266"/>
       <use xlink:href="#DejaVuSans-30" x="453.90625"/>
       <use xlink:href="#DejaVuSans-36" x="517.529297"/>
      </g>
     </g>
    </g>
   </g>
   <g id="matplotlib.axis_2">
    <g id="ytick_1">
     <g id="line2d_7">
      <defs>
       <path id="m0d3252495d" d="M 0 0 
L -3.5 0 
" style="stroke: #000000; stroke-width: 0.8"/>
      </defs>
      <g>
       <use xlink:href="#m0d3252495d" x="30.103125" y="328.62" style="stroke: #000000; stroke-width: 0.8"/>
      </g>
     </g>
     <g id="text_7">
      <!-- 0.0 -->
      <g transform="translate(7.2 332.419219) scale(0.1 -0.1)">
       <defs>
        <path id="DejaVuSans-2e" d="M 684 794 
L 1344 794 
L 1344 0 
L 684 0 
L 684 794 
z
" transform="scale(0.015625)"/>
       </defs>
       <use xlink:href="#DejaVuSans-30"/>
       <use xlink:href="#DejaVuSans-2e" x="63.623047"/>
       <use xlink:href="#DejaVuSans-30" x="95.410156"/>
      </g>
     </g>
    </g>
    <g id="ytick_2">
     <g id="line2d_8">
      <g>
       <use xlink:href="#m0d3252495d" x="30.103125" y="266.26457" style="stroke: #000000; stroke-width: 0.8"/>
      </g>
     </g>
     <g id="text_8">
      <!-- 0.5 -->
      <g transform="translate(7.2 270.063789) scale(0.1 -0.1)">
       <use xlink:href="#DejaVuSans-30"/>
       <use xlink:href="#DejaVuSans-2e" x="63.623047"/>
       <use xlink:href="#DejaVuSans-35" x="95.410156"/>
      </g>
     </g>
    </g>
    <g id="ytick_3">
     <g id="line2d_9">
      <g>
       <use xlink:href="#m0d3252495d" x="30.103125" y="203.909141" style="stroke: #000000; stroke-width: 0.8"/>
      </g>
     </g>
     <g id="text_9">
      <!-- 1.0 -->
      <g transform="translate(7.2 207.708359) scale(0.1 -0.1)">
       <use xlink:href="#DejaVuSans-31"/>
       <use xlink:href="#DejaVuSans-2e" x="63.623047"/>
       <use xlink:href="#DejaVuSans-30" x="95.410156"/>
      </g>
     </g>
    </g>
    <g id="ytick_4">
     <g id="line2d_10">
      <g>
       <use xlink:href="#m0d3252495d" x="30.103125" y="141.553711" style="stroke: #000000; stroke-width: 0.8"/>
      </g>
     </g>
     <g id="text_10">
      <!-- 1.5 -->
      <g transform="translate(7.2 145.35293) scale(0.1 -0.1)">
       <use xlink:href="#DejaVuSans-31"/>
       <use xlink:href="#DejaVuSans-2e" x="63.623047"/>
       <use xlink:href="#DejaVuSans-35" x="95.410156"/>
      </g>
     </g>
    </g>
    <g id="ytick_5">
     <g id="line2d_11">
      <g>
       <use xlink:href="#m0d3252495d" x="30.103125" y="79.198281" style="stroke: #000000; stroke-width: 0.8"/>
      </g>
     </g>
     <g id="text_11">
      <!-- 2.0 -->
      <g transform="translate(7.2 82.9975) scale(0.1 -0.1)">
       <use xlink:href="#DejaVuSans-32"/>
       <use xlink:href="#DejaVuSans-2e" x="63.623047"/>
       <use xlink:href="#DejaVuSans-30" x="95.410156"/>
      </g>
     </g>
    </g>
   </g>
   <g id="line2d_12">
    <path d="M 60.654199 328.607201 
L 63.54038 328.475211 
L 69.567405 328.222528 
L 74.15134 328.363836 
L 76.018869 328.116047 
L 77.037521 327.825533 
L 77.461959 327.398282 
L 77.631734 327.318061 
L 77.971285 326.859887 
L 78.310836 326.656836 
L 78.565499 326.445826 
L 79.074825 326.452834 
L 79.2446 326.481488 
L 79.499263 326.652806 
L 79.753926 326.407197 
L 80.178365 326.426514 
L 80.34814 326.288398 
L 80.687691 326.445047 
L 80.942354 325.834008 
L 81.112129 325.924239 
L 81.281905 326.061903 
L 81.536568 325.528584 
L 81.791231 325.834268 
L 81.961006 326.037835 
L 82.215669 325.562699 
L 82.55522 325.911674 
L 82.809883 325.452192 
L 83.149433 325.848457 
L 83.404096 325.404136 
L 83.743647 325.827017 
L 83.913422 325.399696 
L 84.083198 325.470601 
L 84.337861 325.818579 
L 84.592524 325.389639 
L 84.847187 325.758812 
L 85.016962 325.978298 
L 85.271625 325.531838 
L 85.611176 325.905953 
L 85.865839 325.441996 
L 86.20539 325.851196 
L 86.460053 325.403024 
L 86.799603 325.824875 
L 87.054266 325.393983 
L 87.393817 325.833033 
L 87.563592 325.520705 
L 87.733368 325.566259 
L 87.903143 325.605882 
L 87.988031 325.453384 
L 88.157806 324.123524 
L 89.091571 312.579182 
L 89.261346 310.811261 
L 89.516009 307.28395 
L 89.770672 306.280004 
L 90.110223 302.988238 
L 91.892864 286.49556 
L 92.487078 283.105092 
L 92.826628 281.356531 
L 92.911516 280.236567 
L 93.081291 276.283391 
L 93.420842 277.542362 
L 93.50573 276.695128 
L 93.760393 271.761121 
L 93.930168 268.669644 
L 94.184831 255.594931 
L 94.524382 227.579101 
L 95.118596 201.946916 
L 95.203483 201.825276 
L 95.288371 201.981852 
L 95.373259 201.022475 
L 95.543034 193.536084 
L 95.627922 193.049007 
L 95.712809 193.209002 
L 95.797697 193.241367 
L 95.882585 192.911237 
L 95.967472 191.251029 
L 96.222135 183.52521 
L 96.391911 182.302395 
L 96.476798 181.285052 
L 97.835001 139.472537 
L 98.089664 128.209694 
L 98.429215 118.848272 
L 98.768766 108.782004 
L 100.126968 80.657135 
L 101.230508 66.463502 
L 102.24916 58.798235 
L 102.928262 57.238392 
L 103.3527 57.348138 
L 103.437588 57.02 
L 103.522475 57.09136 
L 103.946914 58.220842 
L 104.031802 58.004859 
L 104.286465 59.154084 
L 104.541128 60.319306 
L 104.626015 60.075611 
L 104.880678 61.94813 
L 105.135341 63.686433 
L 105.220229 63.101994 
L 105.474892 65.690999 
L 105.644667 67.515796 
L 105.729555 67.479848 
L 105.814443 65.596506 
L 105.984218 67.579901 
L 106.663319 76.163157 
L 107.597084 86.470517 
L 108.276185 93.139508 
L 108.785511 98.265796 
L 109.294837 101.122193 
L 109.634388 101.838366 
L 109.889051 101.955115 
L 110.313489 101.753968 
L 110.65304 101.708372 
L 110.907703 101.976419 
L 111.162366 102.69338 
L 111.417029 103.877408 
L 111.75658 106.499773 
L 112.181018 112.474013 
L 112.775232 125.438617 
L 113.19967 140.194063 
L 113.624109 152.528452 
L 114.218323 162.532518 
L 115.152087 175.701583 
L 117.104504 196.137235 
L 117.528942 199.985984 
L 119.226695 221.152579 
L 120.16046 231.212008 
L 121.179112 240.151098 
L 121.773326 244.081874 
L 122.027989 245.351415 
L 122.961753 251.135718 
L 123.725742 253.210997 
L 125.678159 262.049164 
L 126.35726 263.594943 
L 127.375912 265.766439 
L 128.394564 267.496696 
L 129.158553 268.529953 
L 130.856307 270.592659 
L 131.195858 270.924621 
L 134.591365 275.477731 
L 134.846028 275.715502 
L 135.270466 276.069459 
L 136.289118 276.916173 
L 136.458894 276.910568 
L 137.562433 277.619858 
L 137.732209 277.594726 
L 138.241535 277.899226 
L 138.41131 277.959662 
L 138.835748 278.169179 
L 139.51485 278.284812 
L 139.854401 278.508251 
L 140.448614 279.1846 
L 141.467266 280.382967 
L 142.06148 280.771199 
L 142.740582 280.95196 
L 143.929009 280.956877 
L 144.947661 281.062769 
L 145.71165 281.348588 
L 146.81519 282.070809 
L 147.579179 282.855629 
L 150.210697 286.561196 
L 152.502664 290.159832 
L 153.436429 291.371111 
L 153.775979 291.706793 
L 154.285305 292.171206 
L 154.709744 292.503406 
L 155.049294 292.744046 
L 155.55862 293.067203 
L 155.983059 293.217305 
L 156.747048 293.349971 
L 159.718117 294.019965 
L 160.142555 293.996687 
L 160.482106 293.784432 
L 161.840308 293.320985 
L 162.51941 293.367384 
L 164.302051 293.892888 
L 164.471826 293.838446 
L 164.726489 293.648149 
L 165.405591 293.470737 
L 166.763794 293.024722 
L 167.27312 293.104671 
L 167.61267 293.214796 
L 168.631323 293.024383 
L 169.565087 292.644971 
L 170.498851 292.422725 
L 171.093065 292.840873 
L 172.536156 293.715729 
L 173.215257 293.719732 
L 174.064134 293.702643 
L 174.828123 293.845523 
L 175.082786 293.761563 
L 175.677 293.762805 
L 176.101438 293.556228 
L 176.440989 293.415615 
L 179.157394 293.165669 
L 180.091159 293.830913 
L 181.024923 294.36598 
L 181.449361 294.609533 
L 182.043575 294.779278 
L 182.807564 294.612826 
L 183.826216 294.081561 
L 184.844869 294.145258 
L 185.184419 294.294319 
L 185.608858 294.246623 
L 185.863521 294.178756 
L 186.118184 294.008246 
L 186.797285 294.060466 
L 187.646162 294.315745 
L 187.815937 294.263838 
L 188.834589 294.722052 
L 189.853241 294.638427 
L 190.447455 294.788815 
L 191.126556 294.858406 
L 193.163861 294.681124 
L 193.418524 294.554352 
L 193.842962 294.494439 
L 194.097625 294.500992 
L 194.437176 294.470894 
L 194.861614 294.27895 
L 195.795379 293.640563 
L 196.389592 293.877854 
L 196.898918 294.069616 
L 197.153581 294.192114 
L 197.493132 294.357524 
L 198.511784 294.425837 
L 199.02111 294.425588 
L 199.530436 294.764002 
L 201.822404 296.373901 
L 203.265494 296.799576 
L 205.133023 297.380782 
L 206.406338 298.02839 
L 207.764541 298.772453 
L 207.849429 298.627991 
L 208.019204 297.84193 
L 208.358755 298.726201 
L 208.443642 298.648329 
L 208.613418 297.905925 
L 208.952968 298.933362 
L 209.037856 298.886159 
L 209.207631 298.022118 
L 209.377407 298.110428 
L 209.462294 297.985466 
L 209.547182 297.62461 
L 210.565834 288.316094 
L 210.905385 287.829905 
L 211.07516 287.279042 
L 211.499599 288.318161 
L 211.584486 288.061952 
L 211.669374 288.100263 
L 212.093812 289.050126 
L 212.263588 288.798076 
L 212.688026 289.654929 
L 212.857801 289.459629 
L 213.28224 290.234459 
L 213.367127 290.251909 
L 213.536903 289.949141 
L 213.876453 290.151399 
L 213.961341 290.052717 
L 214.216004 289.517509 
L 214.470667 289.093489 
L 214.72533 287.789743 
L 215.149769 285.347376 
L 215.743982 278.908473 
L 216.93241 255.23981 
L 217.441736 245.280493 
L 218.290613 235.231494 
L 218.630163 232.758858 
L 218.799939 231.992606 
L 219.139489 229.675528 
L 219.47904 227.803105 
L 219.818591 224.095686 
L 220.073254 223.044663 
L 220.327917 219.517013 
L 220.58258 218.625041 
L 220.667468 217.275368 
L 220.922131 210.008491 
L 221.346569 206.209323 
L 222.02567 193.852388 
L 222.195446 193.628659 
L 222.365221 193.74062 
L 222.874547 194.338915 
L 223.044322 194.292278 
L 223.383873 193.881928 
L 223.808312 193.269346 
L 223.893199 193.305293 
L 224.062975 194.275509 
L 224.487413 197.886004 
L 224.572301 197.837063 
L 224.742076 196.702318 
L 225.081627 192.680253 
L 225.845616 181.443947 
L 226.270054 178.380308 
L 226.524717 177.695519 
L 226.694492 177.682451 
L 226.864268 177.964695 
L 227.203819 179.241461 
L 227.628257 181.838331 
L 228.392246 187.978126 
L 230.174887 204.75093 
L 232.297079 237.079357 
L 233.485507 252.07759 
L 234.334383 260.612283 
L 235.013485 265.178707 
L 236.117024 273.560946 
L 236.626351 276.701725 
L 238.154329 282.343348 
L 240.191633 287.87597 
L 240.446296 288.353666 
L 241.04051 289.543998 
L 241.974274 291.327432 
L 242.4836 291.880373 
L 242.823151 292.045839 
L 243.672028 292.503157 
L 244.351129 293.306341 
L 245.03023 294.183651 
L 245.624444 294.594492 
L 245.963995 294.639534 
L 246.303546 294.608809 
L 246.982647 294.181815 
L 247.23731 293.968192 
L 247.831524 294.007968 
L 248.34085 294.07169 
L 248.765288 293.964494 
L 249.019951 293.744612 
L 249.444389 293.622478 
L 249.699053 293.567746 
L 250.038603 293.515103 
L 250.547929 293.130836 
L 251.057255 292.632118 
L 251.311918 292.473472 
L 251.481694 292.449373 
L 251.99102 292.557108 
L 252.415458 292.434127 
L 253.009672 292.120288 
L 253.349223 292.160662 
L 254.198099 292.687523 
L 254.707425 292.999292 
L 255.301639 293.007175 
L 256.235404 292.94533 
L 256.574954 292.939197 
L 256.914505 292.828864 
L 257.338943 292.689288 
L 257.763382 292.406925 
L 258.442483 292.207845 
L 259.461135 292.374438 
L 259.885574 292.563917 
L 260.140237 292.668438 
L 260.479787 292.75934 
L 261.83799 292.741849 
L 264.554396 294.007585 
L 265.742823 294.336756 
L 266.082374 294.421213 
L 266.5917 294.4258 
L 267.101026 294.220914 
L 267.355689 293.97874 
L 269.223218 293.736004 
L 269.562769 293.878126 
L 269.732544 293.788743 
L 270.156982 293.949371 
L 270.326758 293.811341 
L 270.920971 293.771145 
L 271.939623 293.349195 
L 272.279174 293.583174 
L 273.297826 294.58988 
L 274.486254 295.221744 
L 274.740917 295.072386 
L 275.080467 295.023775 
L 275.33513 294.789294 
L 275.674681 294.676408 
L 276.014232 294.342513 
L 277.287547 293.418221 
L 277.796873 293.630253 
L 278.64575 294.375673 
L 280.173728 294.593221 
L 280.598166 294.343286 
L 280.937717 294.058421 
L 281.531931 293.977034 
L 282.126145 294.232633 
L 282.380808 294.248154 
L 282.635471 294.070017 
L 283.654123 294.087099 
L 284.418112 294.035831 
L 284.757662 294.218186 
L 286.540304 295.551301 
L 287.38918 295.828461 
L 291.03935 296.681296 
L 292.567329 297.566216 
L 293.670868 298.449784 
L 294.519745 299.083746 
L 295.708173 300.283853 
L 300.292107 305.275811 
L 302.329411 306.868276 
L 303.348063 307.509952 
L 304.027165 308.028426 
L 304.451603 308.380715 
L 304.791154 308.636989 
L 305.130705 308.812761 
L 305.385368 308.947266 
L 305.724918 309.072692 
L 305.979581 309.181648 
L 306.234244 309.323618 
L 306.40402 309.242095 
L 306.913346 309.347918 
L 307.083121 309.34245 
L 307.422672 309.481827 
L 307.592447 309.31711 
L 308.101773 309.449167 
L 308.271549 309.049272 
L 308.526212 309.213151 
L 308.695987 309.241883 
L 308.865762 308.809424 
L 309.205313 308.784606 
L 309.290201 308.596986 
L 309.544864 307.546048 
L 309.884414 306.668529 
L 310.223965 304.954226 
L 310.903066 302.698895 
L 311.15773 302.309581 
L 311.412393 301.705399 
L 311.751943 301.5078 
L 311.921719 301.057796 
L 312.346157 301.088656 
L 312.515932 300.681444 
L 312.855483 300.671773 
L 312.940371 300.535169 
L 313.110146 299.989219 
L 313.534584 299.573799 
L 313.70436 298.958377 
L 314.213686 298.231227 
L 314.553237 296.822378 
L 314.8079 296.011344 
L 315.062563 294.747541 
L 315.402113 293.588846 
L 316.166102 289.87153 
L 316.590541 287.68394 
L 316.760316 285.573587 
L 317.099867 285.203187 
L 317.269642 284.542143 
L 317.609193 281.737665 
L 318.203407 272.277835 
L 318.45807 271.026517 
L 318.542957 271.08569 
L 318.79762 271.937258 
L 319.222059 273.251332 
L 319.391834 273.376889 
L 319.561609 273.295345 
L 319.90116 272.653535 
L 320.410486 270.990108 
L 321.598914 265.969741 
L 322.702453 261.72122 
L 323.042004 260.959904 
L 323.296667 260.815571 
L 323.55133 260.89849 
L 323.890881 261.348296 
L 324.739758 263.225885 
L 325.249084 264.968514 
L 325.928185 268.192695 
L 327.031725 274.657235 
L 327.541051 277.152457 
L 328.559703 281.086741 
L 328.984141 282.312069 
L 330.002793 285.397833 
L 331.615659 289.884307 
L 332.973862 293.051419 
L 334.586728 296.019286 
L 336.029818 298.302979 
L 337.048471 299.473772 
L 341.038191 304.982382 
L 342.735945 306.748631 
L 345.791901 309.536552 
L 347.319879 310.580337 
L 350.545611 312.44152 
L 353.431792 313.748736 
L 356.572636 314.909173 
L 359.968143 315.933645 
L 363.872976 316.88155 
L 368.372023 317.753198 
L 373.974609 318.613532 
L 381.359837 319.497424 
L 391.801021 320.483228 
L 404.364397 321.443223 
L 460.899589 325.312812 
L 475.415381 325.879001 
L 495.873311 326.395652 
L 522.867592 326.813895 
L 559.114629 327.154796 
L 624.138589 327.507141 
L 671.675687 327.649833 
L 671.675687 327.649833 
" clip-path="url(#p048365d914)" style="fill: none; stroke: #1f77b4; stroke-width: 1.5; stroke-linecap: square"/>
   </g>
   <g id="line2d_13">
    <path d="M 60.654199 328.611727 
L 61.842627 328.503987 
L 63.370605 327.923902 
L 64.559032 327.270892 
L 66.002123 326.284684 
L 69.058079 324.009909 
L 70.076731 323.637346 
L 71.180271 323.475094 
L 72.538474 323.511742 
L 73.726901 323.525517 
L 74.406003 323.363767 
L 74.915329 323.106214 
L 75.509543 322.645526 
L 76.273532 321.832072 
L 76.69797 321.215204 
L 77.631734 319.515435 
L 78.650387 316.884204 
L 79.499263 314.403204 
L 80.772578 309.583829 
L 82.979658 296.813252 
L 83.913422 290.457971 
L 85.950727 276.227514 
L 88.497357 259.841335 
L 89.431121 254.819396 
L 90.110223 249.472273 
L 90.704436 246.186878 
L 91.213763 244.342259 
L 91.723089 243.298957 
L 92.147527 242.94473 
L 92.487078 242.949823 
L 92.911516 243.222032 
L 93.081291 241.875308 
L 93.675505 235.795141 
L 94.863933 216.087584 
L 96.307023 185.08155 
L 98.004777 151.934358 
L 98.938541 137.014316 
L 100.296744 120.5883 
L 101.060733 114.10121 
L 101.654947 110.411546 
L 102.164273 108.16642 
L 102.503823 106.93756 
L 103.182925 105.655651 
L 103.437588 105.545545 
L 103.692251 105.199834 
L 104.031802 105.11322 
L 104.286465 104.700035 
L 104.626015 104.471457 
L 104.965566 103.570851 
L 105.135341 103.36648 
L 105.729555 100.388308 
L 106.917982 90.230489 
L 107.427309 88.490762 
L 107.766859 88.085585 
L 107.936635 88.059814 
L 108.191298 88.320888 
L 108.530848 88.950157 
L 109.040174 90.713678 
L 109.634388 93.783101 
L 110.313489 98.404647 
L 111.247254 106.565135 
L 112.605457 120.716669 
L 119.311583 193.434234 
L 121.264 210.427987 
L 122.027989 215.76096 
L 125.678159 235.756884 
L 127.375912 243.8892 
L 129.158553 251.303435 
L 130.856307 257.149874 
L 132.21451 260.960506 
L 133.6576 264.150609 
L 134.591365 265.872651 
L 136.458894 268.0797 
L 138.156647 269.054272 
L 139.260187 269.233964 
L 139.939288 269.743496 
L 140.703277 270.757808 
L 141.467266 272.167959 
L 142.485918 274.528377 
L 144.013897 278.695356 
L 148.003617 289.85888 
L 149.36182 291.51365 
L 150.210697 292.424409 
L 151.229349 293.550475 
L 152.502664 294.603531 
L 153.351541 295.312484 
L 153.775979 295.577884 
L 154.285305 295.774168 
L 155.983059 295.952846 
L 156.492385 296.000147 
L 159.123903 296.470722 
L 159.97278 296.22634 
L 160.482106 296.076145 
L 161.755421 295.832796 
L 162.51941 296.03699 
L 163.538062 296.427874 
L 164.896265 296.517374 
L 165.660254 296.527313 
L 166.424243 296.805023 
L 167.018457 296.970463 
L 168.801098 296.336908 
L 169.310424 295.898573 
L 169.81975 295.711168 
L 171.177953 295.646299 
L 172.111717 295.569408 
L 172.790819 295.580673 
L 173.46992 295.82885 
L 174.149021 296.093754 
L 174.828123 296.31888 
L 175.931663 296.376771 
L 176.186326 296.387718 
L 177.459641 296.093032 
L 178.053854 295.895486 
L 178.987619 295.895449 
L 179.836496 296.149181 
L 181.364474 296.845803 
L 181.788912 296.845465 
L 182.468014 296.684109 
L 183.232003 296.54038 
L 183.995992 296.465505 
L 184.759981 296.022034 
L 185.608858 295.37089 
L 186.542622 294.741446 
L 187.136836 294.444363 
L 188.664814 293.564163 
L 190.532343 293.282321 
L 191.126556 293.433667 
L 191.550995 293.533176 
L 192.145209 293.693271 
L 192.739422 294.021762 
L 193.418524 294.396482 
L 193.92785 294.394021 
L 194.522064 294.229294 
L 195.201165 294.306252 
L 196.47448 294.592954 
L 196.983806 294.637506 
L 197.832683 294.364195 
L 198.342009 294.379617 
L 198.936223 294.638371 
L 199.615324 295.185848 
L 200.549088 296.255898 
L 201.822404 298.106774 
L 204.029483 301.798526 
L 207.594766 307.709228 
L 207.849429 308.079252 
L 208.019204 307.5584 
L 208.52853 305.552849 
L 209.716957 295.403812 
L 210.820497 283.294313 
L 211.754262 272.651671 
L 213.197352 257.665869 
L 214.810218 244.76284 
L 215.659095 239.706459 
L 216.762634 234.919896 
L 217.526624 232.784185 
L 218.799939 230.168593 
L 219.563928 227.386035 
L 220.412805 220.740561 
L 220.752355 216.880946 
L 221.431457 204.809624 
L 222.110558 196.337667 
L 222.704772 191.343556 
L 223.214098 188.530789 
L 223.638536 187.037623 
L 224.062975 186.226041 
L 224.402525 186.033113 
L 224.657188 186.083396 
L 224.996739 186.47245 
L 225.421177 187.41089 
L 226.015391 189.430638 
L 226.77938 192.974414 
L 227.798032 198.863998 
L 229.410898 209.712662 
L 234.07972 241.903824 
L 235.353035 248.855124 
L 237.220564 257.534779 
L 238.663655 262.90772 
L 240.191633 267.217317 
L 241.04051 268.83712 
L 242.144049 270.242155 
L 242.653375 270.773456 
L 243.502252 271.879309 
L 245.284893 274.401197 
L 246.303546 275.281915 
L 249.444389 278.584166 
L 249.868828 278.727572 
L 250.463042 279.190519 
L 250.88748 279.493199 
L 251.481694 279.710554 
L 251.99102 279.824068 
L 252.500346 280.126001 
L 253.09456 280.705118 
L 256.320291 284.319719 
L 257.254056 284.852473 
L 258.102932 285.374421 
L 258.951809 285.896524 
L 259.376248 286.132191 
L 262.432204 286.590499 
L 263.281081 286.902342 
L 263.960182 287.194077 
L 265.233497 288.176047 
L 265.48816 288.307128 
L 266.846363 288.68442 
L 267.270801 288.788305 
L 267.865015 288.808571 
L 269.647656 289.032501 
L 270.072095 288.798465 
L 270.24187 288.70127 
L 270.751196 288.253832 
L 271.260522 288.070307 
L 272.024511 288.124351 
L 272.618725 288.435869 
L 273.807152 289.031549 
L 274.825804 289.202771 
L 275.250243 289.093358 
L 276.184007 288.590402 
L 276.693333 288.539616 
L 278.136424 288.888795 
L 279.239964 289.222201 
L 279.409739 289.206374 
L 279.834177 289.015217 
L 280.428391 289.010495 
L 281.022605 289.066031 
L 281.362155 289.029481 
L 281.956369 288.873721 
L 282.720358 288.662124 
L 283.569235 288.378896 
L 284.078561 288.486588 
L 284.672775 288.874879 
L 285.436764 289.698935 
L 286.370528 291.065664 
L 287.728731 293.491309 
L 290.6998 299.416668 
L 292.312666 302.39798 
L 293.416205 303.468082 
L 294.944184 305.322088 
L 298.254803 309.466462 
L 299.952556 311.078276 
L 302.159636 313.176716 
L 303.0934 313.670702 
L 303.432951 313.722886 
L 304.027165 313.676893 
L 304.621379 313.408497 
L 305.470255 312.698334 
L 305.809806 312.278714 
L 306.913346 310.35657 
L 308.441324 305.975079 
L 309.035538 303.352473 
L 309.884414 298.91306 
L 312.006606 285.295491 
L 315.402113 262.963297 
L 316.335878 257.984882 
L 316.675428 256.268819 
L 317.269642 251.267034 
L 317.948744 247.16361 
L 318.542957 244.87773 
L 319.052283 243.799597 
L 319.476722 243.377504 
L 319.90116 243.32001 
L 320.240711 243.505617 
L 320.750037 244.08543 
L 321.429138 245.333674 
L 322.362903 247.674559 
L 323.55133 251.343112 
L 326.013073 259.773871 
L 328.220152 267.668544 
L 332.294761 282.382238 
L 334.586728 289.613232 
L 336.539144 295.07578 
L 338.406673 299.678565 
L 340.274202 303.702694 
L 342.141731 307.197725 
L 344.00926 310.220063 
L 345.876789 312.82612 
L 347.829205 315.163033 
L 349.781622 317.157752 
L 351.818926 318.926789 
L 353.941118 320.481122 
L 356.233085 321.881861 
L 358.694828 323.119475 
L 361.326346 324.192426 
L 364.212527 325.130274 
L 367.438258 325.945492 
L 371.173316 326.654628 
L 375.502587 327.244835 
L 380.765623 327.729136 
L 387.386862 328.104047 
L 396.300068 328.372657 
L 409.966984 328.539889 
L 437.725254 328.611885 
L 616.41381 328.62 
L 671.675687 328.62 
L 671.675687 328.62 
" clip-path="url(#p048365d914)" style="fill: none; stroke: #ff7f0e; stroke-width: 1.5; stroke-linecap: square"/>
   </g>
   <g id="patch_3">
    <path d="M 30.103125 342.2 
L 30.103125 43.44 
" style="fill: none; stroke: #000000; stroke-width: 0.8; stroke-linejoin: miter; stroke-linecap: square"/>
   </g>
   <g id="patch_4">
    <path d="M 702.226761 342.2 
L 702.226761 43.44 
" style="fill: none; stroke: #000000; stroke-width: 0.8; stroke-linejoin: miter; stroke-linecap: square"/>
   </g>
   <g id="patch_5">
    <path d="M 30.103125 342.2 
L 702.226761 342.2 
" style="fill: none; stroke: #000000; stroke-width: 0.8; stroke-linejoin: miter; stroke-linecap: square"/>
   </g>
   <g id="patch_6">
    <path d="M 30.103125 43.44 
L 702.226761 43.44 
" style="fill: none; stroke: #000000; stroke-width: 0.8; stroke-linejoin: miter; stroke-linecap: square"/>
   </g>
   <g id="text_12">
    <!-- 1 transformation(s) -->
    <g transform="translate(308.050256 37.44) scale(0.12 -0.12)">
     <defs>
      <path id="DejaVuSans-20" transform="scale(0.015625)"/>
      <path id="DejaVuSans-74" d="M 1172 4494 
L 1172 3500 
L 2356 3500 
L 2356 3053 
L 1172 3053 
L 1172 1153 
Q 1172 725 1289 603 
Q 1406 481 1766 481 
L 2356 481 
L 2356 0 
L 1766 0 
Q 1100 0 847 248 
Q 594 497 594 1153 
L 594 3053 
L 172 3053 
L 172 3500 
L 594 3500 
L 594 4494 
L 1172 4494 
z
" transform="scale(0.015625)"/>
      <path id="DejaVuSans-72" d="M 2631 2963 
Q 2534 3019 2420 3045 
Q 2306 3072 2169 3072 
Q 1681 3072 1420 2755 
Q 1159 2438 1159 1844 
L 1159 0 
L 581 0 
L 581 3500 
L 1159 3500 
L 1159 2956 
Q 1341 3275 1631 3429 
Q 1922 3584 2338 3584 
Q 2397 3584 2469 3576 
Q 2541 3569 2628 3553 
L 2631 2963 
z
" transform="scale(0.015625)"/>
      <path id="DejaVuSans-61" d="M 2194 1759 
Q 1497 1759 1228 1600 
Q 959 1441 959 1056 
Q 959 750 1161 570 
Q 1363 391 1709 391 
Q 2188 391 2477 730 
Q 2766 1069 2766 1631 
L 2766 1759 
L 2194 1759 
z
M 3341 1997 
L 3341 0 
L 2766 0 
L 2766 531 
Q 2569 213 2275 61 
Q 1981 -91 1556 -91 
Q 1019 -91 701 211 
Q 384 513 384 1019 
Q 384 1609 779 1909 
Q 1175 2209 1959 2209 
L 2766 2209 
L 2766 2266 
Q 2766 2663 2505 2880 
Q 2244 3097 1772 3097 
Q 1472 3097 1187 3025 
Q 903 2953 641 2809 
L 641 3341 
Q 956 3463 1253 3523 
Q 1550 3584 1831 3584 
Q 2591 3584 2966 3190 
Q 3341 2797 3341 1997 
z
" transform="scale(0.015625)"/>
      <path id="DejaVuSans-6e" d="M 3513 2113 
L 3513 0 
L 2938 0 
L 2938 2094 
Q 2938 2591 2744 2837 
Q 2550 3084 2163 3084 
Q 1697 3084 1428 2787 
Q 1159 2491 1159 1978 
L 1159 0 
L 581 0 
L 581 3500 
L 1159 3500 
L 1159 2956 
Q 1366 3272 1645 3428 
Q 1925 3584 2291 3584 
Q 2894 3584 3203 3211 
Q 3513 2838 3513 2113 
z
" transform="scale(0.015625)"/>
      <path id="DejaVuSans-73" d="M 2834 3397 
L 2834 2853 
Q 2591 2978 2328 3040 
Q 2066 3103 1784 3103 
Q 1356 3103 1142 2972 
Q 928 2841 928 2578 
Q 928 2378 1081 2264 
Q 1234 2150 1697 2047 
L 1894 2003 
Q 2506 1872 2764 1633 
Q 3022 1394 3022 966 
Q 3022 478 2636 193 
Q 2250 -91 1575 -91 
Q 1294 -91 989 -36 
Q 684 19 347 128 
L 347 722 
Q 666 556 975 473 
Q 1284 391 1588 391 
Q 1994 391 2212 530 
Q 2431 669 2431 922 
Q 2431 1156 2273 1281 
Q 2116 1406 1581 1522 
L 1381 1569 
Q 847 1681 609 1914 
Q 372 2147 372 2553 
Q 372 3047 722 3315 
Q 1072 3584 1716 3584 
Q 2034 3584 2315 3537 
Q 2597 3491 2834 3397 
z
" transform="scale(0.015625)"/>
      <path id="DejaVuSans-66" d="M 2375 4863 
L 2375 4384 
L 1825 4384 
Q 1516 4384 1395 4259 
Q 1275 4134 1275 3809 
L 1275 3500 
L 2222 3500 
L 2222 3053 
L 1275 3053 
L 1275 0 
L 697 0 
L 697 3053 
L 147 3053 
L 147 3500 
L 697 3500 
L 697 3744 
Q 697 4328 969 4595 
Q 1241 4863 1831 4863 
L 2375 4863 
z
" transform="scale(0.015625)"/>
      <path id="DejaVuSans-6f" d="M 1959 3097 
Q 1497 3097 1228 2736 
Q 959 2375 959 1747 
Q 959 1119 1226 758 
Q 1494 397 1959 397 
Q 2419 397 2687 759 
Q 2956 1122 2956 1747 
Q 2956 2369 2687 2733 
Q 2419 3097 1959 3097 
z
M 1959 3584 
Q 2709 3584 3137 3096 
Q 3566 2609 3566 1747 
Q 3566 888 3137 398 
Q 2709 -91 1959 -91 
Q 1206 -91 779 398 
Q 353 888 353 1747 
Q 353 2609 779 3096 
Q 1206 3584 1959 3584 
z
" transform="scale(0.015625)"/>
      <path id="DejaVuSans-6d" d="M 3328 2828 
Q 3544 3216 3844 3400 
Q 4144 3584 4550 3584 
Q 5097 3584 5394 3201 
Q 5691 2819 5691 2113 
L 5691 0 
L 5113 0 
L 5113 2094 
Q 5113 2597 4934 2840 
Q 4756 3084 4391 3084 
Q 3944 3084 3684 2787 
Q 3425 2491 3425 1978 
L 3425 0 
L 2847 0 
L 2847 2094 
Q 2847 2600 2669 2842 
Q 2491 3084 2119 3084 
Q 1678 3084 1418 2786 
Q 1159 2488 1159 1978 
L 1159 0 
L 581 0 
L 581 3500 
L 1159 3500 
L 1159 2956 
Q 1356 3278 1631 3431 
Q 1906 3584 2284 3584 
Q 2666 3584 2933 3390 
Q 3200 3197 3328 2828 
z
" transform="scale(0.015625)"/>
      <path id="DejaVuSans-69" d="M 603 3500 
L 1178 3500 
L 1178 0 
L 603 0 
L 603 3500 
z
M 603 4863 
L 1178 4863 
L 1178 4134 
L 603 4134 
L 603 4863 
z
" transform="scale(0.015625)"/>
      <path id="DejaVuSans-28" d="M 1984 4856 
Q 1566 4138 1362 3434 
Q 1159 2731 1159 2009 
Q 1159 1288 1364 580 
Q 1569 -128 1984 -844 
L 1484 -844 
Q 1016 -109 783 600 
Q 550 1309 550 2009 
Q 550 2706 781 3412 
Q 1013 4119 1484 4856 
L 1984 4856 
z
" transform="scale(0.015625)"/>
      <path id="DejaVuSans-29" d="M 513 4856 
L 1013 4856 
Q 1481 4119 1714 3412 
Q 1947 2706 1947 2009 
Q 1947 1309 1714 600 
Q 1481 -109 1013 -844 
L 513 -844 
Q 928 -128 1133 580 
Q 1338 1288 1338 2009 
Q 1338 2731 1133 3434 
Q 928 4138 513 4856 
z
" transform="scale(0.015625)"/>
     </defs>
     <use xlink:href="#DejaVuSans-31"/>
     <use xlink:href="#DejaVuSans-20" x="63.623047"/>
     <use xlink:href="#DejaVuSans-74" x="95.410156"/>
     <use xlink:href="#DejaVuSans-72" x="134.619141"/>
     <use xlink:href="#DejaVuSans-61" x="175.732422"/>
     <use xlink:href="#DejaVuSans-6e" x="237.011719"/>
     <use xlink:href="#DejaVuSans-73" x="300.390625"/>
     <use xlink:href="#DejaVuSans-66" x="352.490234"/>
     <use xlink:href="#DejaVuSans-6f" x="387.695312"/>
     <use xlink:href="#DejaVuSans-72" x="448.876953"/>
     <use xlink:href="#DejaVuSans-6d" x="488.240234"/>
     <use xlink:href="#DejaVuSans-61" x="585.652344"/>
     <use xlink:href="#DejaVuSans-74" x="646.931641"/>
     <use xlink:href="#DejaVuSans-69" x="686.140625"/>
     <use xlink:href="#DejaVuSans-6f" x="713.923828"/>
     <use xlink:href="#DejaVuSans-6e" x="775.105469"/>
     <use xlink:href="#DejaVuSans-28" x="838.484375"/>
     <use xlink:href="#DejaVuSans-73" x="877.498047"/>
     <use xlink:href="#DejaVuSans-29" x="929.597656"/>
    </g>
   </g>
   <g id="legend_1">
    <g id="patch_7">
     <path d="M 613.833011 80.79625 
L 695.226761 80.79625 
Q 697.226761 80.79625 697.226761 78.79625 
L 697.226761 50.44 
Q 697.226761 48.44 695.226761 48.44 
L 613.833011 48.44 
Q 611.833011 48.44 611.833011 50.44 
L 611.833011 78.79625 
Q 611.833011 80.79625 613.833011 80.79625 
z
" style="fill: #ffffff; opacity: 0.8; stroke: #cccccc; stroke-linejoin: miter"/>
    </g>
    <g id="line2d_14">
     <path d="M 615.833011 56.538437 
L 625.833011 56.538437 
L 635.833011 56.538437 
" style="fill: none; stroke: #1f77b4; stroke-width: 1.5; stroke-linecap: square"/>
    </g>
    <g id="text_13">
     <!-- observed -->
     <g transform="translate(643.833011 60.038437) scale(0.1 -0.1)">
      <defs>
       <path id="DejaVuSans-62" d="M 3116 1747 
Q 3116 2381 2855 2742 
Q 2594 3103 2138 3103 
Q 1681 3103 1420 2742 
Q 1159 2381 1159 1747 
Q 1159 1113 1420 752 
Q 1681 391 2138 391 
Q 2594 391 2855 752 
Q 3116 1113 3116 1747 
z
M 1159 2969 
Q 1341 3281 1617 3432 
Q 1894 3584 2278 3584 
Q 2916 3584 3314 3078 
Q 3713 2572 3713 1747 
Q 3713 922 3314 415 
Q 2916 -91 2278 -91 
Q 1894 -91 1617 61 
Q 1341 213 1159 525 
L 1159 0 
L 581 0 
L 581 4863 
L 1159 4863 
L 1159 2969 
z
" transform="scale(0.015625)"/>
       <path id="DejaVuSans-65" d="M 3597 1894 
L 3597 1613 
L 953 1613 
Q 991 1019 1311 708 
Q 1631 397 2203 397 
Q 2534 397 2845 478 
Q 3156 559 3463 722 
L 3463 178 
Q 3153 47 2828 -22 
Q 2503 -91 2169 -91 
Q 1331 -91 842 396 
Q 353 884 353 1716 
Q 353 2575 817 3079 
Q 1281 3584 2069 3584 
Q 2775 3584 3186 3129 
Q 3597 2675 3597 1894 
z
M 3022 2063 
Q 3016 2534 2758 2815 
Q 2500 3097 2075 3097 
Q 1594 3097 1305 2825 
Q 1016 2553 972 2059 
L 3022 2063 
z
" transform="scale(0.015625)"/>
       <path id="DejaVuSans-76" d="M 191 3500 
L 800 3500 
L 1894 563 
L 2988 3500 
L 3597 3500 
L 2284 0 
L 1503 0 
L 191 3500 
z
" transform="scale(0.015625)"/>
       <path id="DejaVuSans-64" d="M 2906 2969 
L 2906 4863 
L 3481 4863 
L 3481 0 
L 2906 0 
L 2906 525 
Q 2725 213 2448 61 
Q 2172 -91 1784 -91 
Q 1150 -91 751 415 
Q 353 922 353 1747 
Q 353 2572 751 3078 
Q 1150 3584 1784 3584 
Q 2172 3584 2448 3432 
Q 2725 3281 2906 2969 
z
M 947 1747 
Q 947 1113 1208 752 
Q 1469 391 1925 391 
Q 2381 391 2643 752 
Q 2906 1113 2906 1747 
Q 2906 2381 2643 2742 
Q 2381 3103 1925 3103 
Q 1469 3103 1208 2742 
Q 947 2381 947 1747 
z
" transform="scale(0.015625)"/>
      </defs>
      <use xlink:href="#DejaVuSans-6f"/>
      <use xlink:href="#DejaVuSans-62" x="61.181641"/>
      <use xlink:href="#DejaVuSans-73" x="124.658203"/>
      <use xlink:href="#DejaVuSans-65" x="176.757812"/>
      <use xlink:href="#DejaVuSans-72" x="238.28125"/>
      <use xlink:href="#DejaVuSans-76" x="279.394531"/>
      <use xlink:href="#DejaVuSans-65" x="338.574219"/>
      <use xlink:href="#DejaVuSans-64" x="400.097656"/>
     </g>
    </g>
    <g id="line2d_15">
     <path d="M 615.833011 71.216563 
L 625.833011 71.216563 
L 635.833011 71.216563 
" style="fill: none; stroke: #ff7f0e; stroke-width: 1.5; stroke-linecap: square"/>
    </g>
    <g id="text_14">
     <!-- simulated -->
     <g transform="translate(643.833011 74.716563) scale(0.1 -0.1)">
      <defs>
       <path id="DejaVuSans-75" d="M 544 1381 
L 544 3500 
L 1119 3500 
L 1119 1403 
Q 1119 906 1312 657 
Q 1506 409 1894 409 
Q 2359 409 2629 706 
Q 2900 1003 2900 1516 
L 2900 3500 
L 3475 3500 
L 3475 0 
L 2900 0 
L 2900 538 
Q 2691 219 2414 64 
Q 2138 -91 1772 -91 
Q 1169 -91 856 284 
Q 544 659 544 1381 
z
M 1991 3584 
L 1991 3584 
z
" transform="scale(0.015625)"/>
       <path id="DejaVuSans-6c" d="M 603 4863 
L 1178 4863 
L 1178 0 
L 603 0 
L 603 4863 
z
" transform="scale(0.015625)"/>
      </defs>
      <use xlink:href="#DejaVuSans-73"/>
      <use xlink:href="#DejaVuSans-69" x="52.099609"/>
      <use xlink:href="#DejaVuSans-6d" x="79.882812"/>
      <use xlink:href="#DejaVuSans-75" x="177.294922"/>
      <use xlink:href="#DejaVuSans-6c" x="240.673828"/>
      <use xlink:href="#DejaVuSans-61" x="268.457031"/>
      <use xlink:href="#DejaVuSans-74" x="329.736328"/>
      <use xlink:href="#DejaVuSans-65" x="368.945312"/>
      <use xlink:href="#DejaVuSans-64" x="430.46875"/>
     </g>
    </g>
   </g>
  </g>
  <g id="axes_2">
   <g id="patch_8">
    <path d="M 30.103125 684.92 
L 702.226761 684.92 
L 702.226761 386.16 
L 30.103125 386.16 
z
" style="fill: #ffffff"/>
   </g>
   <g id="matplotlib.axis_3">
    <g id="xtick_7">
     <g id="line2d_16">
      <g>
       <use xlink:href="#m95eeef28a8" x="60.484424" y="684.92" style="stroke: #000000; stroke-width: 0.8"/>
      </g>
     </g>
     <g id="text_15">
      <!-- 2014-07-01 -->
      <g transform="translate(31.426612 699.518437) scale(0.1 -0.1)">
       <use xlink:href="#DejaVuSans-32"/>
       <use xlink:href="#DejaVuSans-30" x="63.623047"/>
       <use xlink:href="#DejaVuSans-31" x="127.246094"/>
       <use xlink:href="#DejaVuSans-34" x="190.869141"/>
       <use xlink:href="#DejaVuSans-2d" x="254.492188"/>
       <use xlink:href="#DejaVuSans-30" x="290.576172"/>
       <use xlink:href="#DejaVuSans-37" x="354.199219"/>
       <use xlink:href="#DejaVuSans-2d" x="417.822266"/>
       <use xlink:href="#DejaVuSans-30" x="453.90625"/>
       <use xlink:href="#DejaVuSans-31" x="517.529297"/>
      </g>
     </g>
    </g>
    <g id="xtick_8">
     <g id="line2d_17">
      <g>
       <use xlink:href="#m95eeef28a8" x="182.722677" y="684.92" style="stroke: #000000; stroke-width: 0.8"/>
      </g>
     </g>
     <g id="text_16">
      <!-- 2014-07-02 -->
      <g transform="translate(153.664864 699.518437) scale(0.1 -0.1)">
       <use xlink:href="#DejaVuSans-32"/>
       <use xlink:href="#DejaVuSans-30" x="63.623047"/>
       <use xlink:href="#DejaVuSans-31" x="127.246094"/>
       <use xlink:href="#DejaVuSans-34" x="190.869141"/>
       <use xlink:href="#DejaVuSans-2d" x="254.492188"/>
       <use xlink:href="#DejaVuSans-30" x="290.576172"/>
       <use xlink:href="#DejaVuSans-37" x="354.199219"/>
       <use xlink:href="#DejaVuSans-2d" x="417.822266"/>
       <use xlink:href="#DejaVuSans-30" x="453.90625"/>
       <use xlink:href="#DejaVuSans-32" x="517.529297"/>
      </g>
     </g>
    </g>
    <g id="xtick_9">
     <g id="line2d_18">
      <g>
       <use xlink:href="#m95eeef28a8" x="304.960929" y="684.92" style="stroke: #000000; stroke-width: 0.8"/>
      </g>
     </g>
     <g id="text_17">
      <!-- 2014-07-03 -->
      <g transform="translate(275.903117 699.518437) scale(0.1 -0.1)">
       <use xlink:href="#DejaVuSans-32"/>
       <use xlink:href="#DejaVuSans-30" x="63.623047"/>
       <use xlink:href="#DejaVuSans-31" x="127.246094"/>
       <use xlink:href="#DejaVuSans-34" x="190.869141"/>
       <use xlink:href="#DejaVuSans-2d" x="254.492188"/>
       <use xlink:href="#DejaVuSans-30" x="290.576172"/>
       <use xlink:href="#DejaVuSans-37" x="354.199219"/>
       <use xlink:href="#DejaVuSans-2d" x="417.822266"/>
       <use xlink:href="#DejaVuSans-30" x="453.90625"/>
       <use xlink:href="#DejaVuSans-33" x="517.529297"/>
      </g>
     </g>
    </g>
    <g id="xtick_10">
     <g id="line2d_19">
      <g>
       <use xlink:href="#m95eeef28a8" x="427.199182" y="684.92" style="stroke: #000000; stroke-width: 0.8"/>
      </g>
     </g>
     <g id="text_18">
      <!-- 2014-07-04 -->
      <g transform="translate(398.141369 699.518437) scale(0.1 -0.1)">
       <use xlink:href="#DejaVuSans-32"/>
       <use xlink:href="#DejaVuSans-30" x="63.623047"/>
       <use xlink:href="#DejaVuSans-31" x="127.246094"/>
       <use xlink:href="#DejaVuSans-34" x="190.869141"/>
       <use xlink:href="#DejaVuSans-2d" x="254.492188"/>
       <use xlink:href="#DejaVuSans-30" x="290.576172"/>
       <use xlink:href="#DejaVuSans-37" x="354.199219"/>
       <use xlink:href="#DejaVuSans-2d" x="417.822266"/>
       <use xlink:href="#DejaVuSans-30" x="453.90625"/>
       <use xlink:href="#DejaVuSans-34" x="517.529297"/>
      </g>
     </g>
    </g>
    <g id="xtick_11">
     <g id="line2d_20">
      <g>
       <use xlink:href="#m95eeef28a8" x="549.437434" y="684.92" style="stroke: #000000; stroke-width: 0.8"/>
      </g>
     </g>
     <g id="text_19">
      <!-- 2014-07-05 -->
      <g transform="translate(520.379622 699.518437) scale(0.1 -0.1)">
       <use xlink:href="#DejaVuSans-32"/>
       <use xlink:href="#DejaVuSans-30" x="63.623047"/>
       <use xlink:href="#DejaVuSans-31" x="127.246094"/>
       <use xlink:href="#DejaVuSans-34" x="190.869141"/>
       <use xlink:href="#DejaVuSans-2d" x="254.492188"/>
       <use xlink:href="#DejaVuSans-30" x="290.576172"/>
       <use xlink:href="#DejaVuSans-37" x="354.199219"/>
       <use xlink:href="#DejaVuSans-2d" x="417.822266"/>
       <use xlink:href="#DejaVuSans-30" x="453.90625"/>
       <use xlink:href="#DejaVuSans-35" x="517.529297"/>
      </g>
     </g>
    </g>
    <g id="xtick_12">
     <g id="line2d_21">
      <g>
       <use xlink:href="#m95eeef28a8" x="671.675687" y="684.92" style="stroke: #000000; stroke-width: 0.8"/>
      </g>
     </g>
     <g id="text_20">
      <!-- 2014-07-06 -->
      <g transform="translate(642.617874 699.518437) scale(0.1 -0.1)">
       <use xlink:href="#DejaVuSans-32"/>
       <use xlink:href="#DejaVuSans-30" x="63.623047"/>
       <use xlink:href="#DejaVuSans-31" x="127.246094"/>
       <use xlink:href="#DejaVuSans-34" x="190.869141"/>
       <use xlink:href="#DejaVuSans-2d" x="254.492188"/>
       <use xlink:href="#DejaVuSans-30" x="290.576172"/>
       <use xlink:href="#DejaVuSans-37" x="354.199219"/>
       <use xlink:href="#DejaVuSans-2d" x="417.822266"/>
       <use xlink:href="#DejaVuSans-30" x="453.90625"/>
       <use xlink:href="#DejaVuSans-36" x="517.529297"/>
      </g>
     </g>
    </g>
   </g>
   <g id="matplotlib.axis_4">
    <g id="ytick_6">
     <g id="line2d_22">
      <g>
       <use xlink:href="#m0d3252495d" x="30.103125" y="671.348241" style="stroke: #000000; stroke-width: 0.8"/>
      </g>
     </g>
     <g id="text_21">
      <!-- 0.0 -->
      <g transform="translate(7.2 675.147459) scale(0.1 -0.1)">
       <use xlink:href="#DejaVuSans-30"/>
       <use xlink:href="#DejaVuSans-2e" x="63.623047"/>
       <use xlink:href="#DejaVuSans-30" x="95.410156"/>
      </g>
     </g>
    </g>
    <g id="ytick_7">
     <g id="line2d_23">
      <g>
       <use xlink:href="#m0d3252495d" x="30.103125" y="608.990919" style="stroke: #000000; stroke-width: 0.8"/>
      </g>
     </g>
     <g id="text_22">
      <!-- 0.5 -->
      <g transform="translate(7.2 612.790138) scale(0.1 -0.1)">
       <use xlink:href="#DejaVuSans-30"/>
       <use xlink:href="#DejaVuSans-2e" x="63.623047"/>
       <use xlink:href="#DejaVuSans-35" x="95.410156"/>
      </g>
     </g>
    </g>
    <g id="ytick_8">
     <g id="line2d_24">
      <g>
       <use xlink:href="#m0d3252495d" x="30.103125" y="546.633597" style="stroke: #000000; stroke-width: 0.8"/>
      </g>
     </g>
     <g id="text_23">
      <!-- 1.0 -->
      <g transform="translate(7.2 550.432816) scale(0.1 -0.1)">
       <use xlink:href="#DejaVuSans-31"/>
       <use xlink:href="#DejaVuSans-2e" x="63.623047"/>
       <use xlink:href="#DejaVuSans-30" x="95.410156"/>
      </g>
     </g>
    </g>
    <g id="ytick_9">
     <g id="line2d_25">
      <g>
       <use xlink:href="#m0d3252495d" x="30.103125" y="484.276276" style="stroke: #000000; stroke-width: 0.8"/>
      </g>
     </g>
     <g id="text_24">
      <!-- 1.5 -->
      <g transform="translate(7.2 488.075495) scale(0.1 -0.1)">
       <use xlink:href="#DejaVuSans-31"/>
       <use xlink:href="#DejaVuSans-2e" x="63.623047"/>
       <use xlink:href="#DejaVuSans-35" x="95.410156"/>
      </g>
     </g>
    </g>
    <g id="ytick_10">
     <g id="line2d_26">
      <g>
       <use xlink:href="#m0d3252495d" x="30.103125" y="421.918954" style="stroke: #000000; stroke-width: 0.8"/>
      </g>
     </g>
     <g id="text_25">
      <!-- 2.0 -->
      <g transform="translate(7.2 425.718173) scale(0.1 -0.1)">
       <use xlink:href="#DejaVuSans-32"/>
       <use xlink:href="#DejaVuSans-2e" x="63.623047"/>
       <use xlink:href="#DejaVuSans-30" x="95.410156"/>
      </g>
     </g>
    </g>
   </g>
   <g id="line2d_27">
    <path d="M 60.654199 671.335442 
L 63.54038 671.203448 
L 69.567405 670.950756 
L 74.15134 671.092069 
L 76.018869 670.844273 
L 77.037521 670.553749 
L 77.461959 670.126485 
L 77.631734 670.046262 
L 77.971285 669.588074 
L 78.310836 669.385017 
L 78.565499 669.174001 
L 79.074825 669.181009 
L 79.2446 669.209664 
L 79.499263 669.380987 
L 79.753926 669.135371 
L 80.178365 669.154689 
L 80.34814 669.016568 
L 80.687691 669.173222 
L 80.942354 668.562164 
L 81.112129 668.652398 
L 81.281905 668.790067 
L 81.536568 668.256731 
L 81.791231 668.562424 
L 81.961006 668.765997 
L 82.215669 668.290847 
L 82.55522 668.639832 
L 82.809883 668.180337 
L 83.149433 668.576614 
L 83.404096 668.13228 
L 83.743647 668.555173 
L 83.913422 668.127839 
L 84.083198 668.198747 
L 84.337861 668.546735 
L 84.592524 668.117782 
L 84.847187 668.486966 
L 85.016962 668.706458 
L 85.271625 668.259985 
L 85.611176 668.634111 
L 85.865839 668.17014 
L 86.20539 668.579353 
L 86.460053 668.131167 
L 86.799603 668.553031 
L 87.054266 668.122126 
L 87.393817 668.561189 
L 87.563592 668.248851 
L 87.733368 668.294407 
L 87.903143 668.334031 
L 87.988031 668.181529 
L 88.157806 666.851628 
L 89.091571 655.306936 
L 89.261346 653.538961 
L 89.516009 650.011544 
L 89.770672 649.007567 
L 90.110223 645.715701 
L 91.892864 629.222523 
L 92.487078 625.831951 
L 92.826628 624.083337 
L 92.911516 622.96334 
L 93.081291 619.010044 
L 93.420842 620.269053 
L 93.50573 619.421793 
L 93.760393 614.487637 
L 93.930168 611.396066 
L 94.184831 598.320956 
L 94.524382 570.304276 
L 95.118596 544.671313 
L 95.203483 544.54967 
L 95.288371 544.706251 
L 95.373259 543.746844 
L 95.543034 536.260226 
L 95.627922 535.773134 
L 95.712809 535.933134 
L 95.797697 535.9655 
L 95.882585 535.63536 
L 95.967472 533.975101 
L 96.222135 526.249048 
L 96.391911 525.026196 
L 96.476798 524.008822 
L 97.835001 482.195039 
L 98.089664 470.931854 
L 98.429215 461.570148 
L 98.768766 451.503575 
L 100.126968 423.377852 
L 101.230508 409.183788 
L 102.24916 401.518289 
L 102.928262 399.958398 
L 103.3527 400.068148 
L 103.437588 399.74 
L 103.522475 399.811362 
L 103.946914 400.940879 
L 104.031802 400.724889 
L 104.286465 401.874149 
L 104.541128 403.039406 
L 104.626015 402.795704 
L 104.880678 404.66828 
L 105.135341 406.406636 
L 105.220229 405.822178 
L 105.474892 408.411262 
L 105.644667 410.236114 
L 105.729555 410.200166 
L 105.814443 408.316766 
L 105.984218 410.300222 
L 106.663319 418.883737 
L 107.597084 429.191411 
L 108.276185 435.860604 
L 108.785511 440.987048 
L 109.294837 443.843531 
L 109.634388 444.559726 
L 109.889051 444.676478 
L 110.313489 444.475326 
L 110.65304 444.429728 
L 110.907703 444.697783 
L 111.162366 445.414766 
L 111.417029 446.598829 
L 111.75658 449.221275 
L 112.181018 455.195696 
L 112.775232 468.160693 
L 113.19967 482.916586 
L 113.624109 495.25135 
L 114.218323 505.255719 
L 115.152087 518.425184 
L 117.104504 538.861456 
L 117.528942 542.710322 
L 119.226695 563.877559 
L 120.16046 573.937293 
L 121.179112 582.876654 
L 121.773326 586.807549 
L 122.027989 588.077129 
L 122.961753 593.861608 
L 123.725742 595.93695 
L 125.678159 604.775385 
L 126.35726 606.321211 
L 127.375912 608.492773 
L 128.394564 610.223082 
L 129.158553 611.256371 
L 130.856307 613.319139 
L 131.195858 613.651111 
L 134.591365 618.20436 
L 134.846028 618.442137 
L 135.270466 618.796105 
L 136.289118 619.642845 
L 136.458894 619.63724 
L 137.562433 620.346551 
L 137.732209 620.321419 
L 138.241535 620.625927 
L 138.41131 620.686366 
L 138.835748 620.895889 
L 139.51485 621.011525 
L 139.854401 621.234971 
L 140.448614 621.911341 
L 141.467266 623.109744 
L 142.06148 623.497988 
L 142.740582 623.678754 
L 143.929009 623.683671 
L 144.947661 623.789566 
L 145.71165 624.075395 
L 146.81519 624.797637 
L 147.579179 625.582481 
L 150.210697 629.288161 
L 152.502664 632.886906 
L 153.436429 634.098221 
L 153.775979 634.433914 
L 154.285305 634.898341 
L 154.709744 635.230551 
L 155.049294 635.471198 
L 155.55862 635.794365 
L 155.983059 635.944471 
L 156.747048 636.077142 
L 159.718117 636.747156 
L 160.142555 636.723878 
L 160.482106 636.511616 
L 161.840308 636.048155 
L 162.51941 636.094555 
L 164.302051 636.620075 
L 164.471826 636.565632 
L 164.726489 636.375329 
L 165.405591 636.197912 
L 166.763794 635.751882 
L 167.27312 635.831834 
L 167.61267 635.941963 
L 168.631323 635.751544 
L 169.565087 635.37212 
L 170.498851 635.149867 
L 171.093065 635.568028 
L 172.536156 636.442911 
L 173.215257 636.446914 
L 174.064134 636.429824 
L 174.828123 636.572709 
L 175.082786 636.488746 
L 175.677 636.489988 
L 176.101438 636.283405 
L 176.440989 636.142788 
L 179.157394 635.892834 
L 180.091159 636.558098 
L 181.024923 637.093181 
L 181.449361 637.336742 
L 182.043575 637.506492 
L 182.807564 637.340035 
L 183.826216 636.808754 
L 184.844869 636.872452 
L 185.184419 637.021518 
L 185.608858 636.97382 
L 185.863521 636.905952 
L 186.118184 636.735437 
L 186.797285 636.787658 
L 187.646162 637.042945 
L 187.815937 636.991037 
L 188.834589 637.449264 
L 189.853241 637.365637 
L 190.447455 637.516029 
L 191.126556 637.585622 
L 193.163861 637.408335 
L 193.418524 637.281559 
L 193.842962 637.221645 
L 194.097625 637.228197 
L 194.437176 637.198099 
L 194.861614 637.006149 
L 195.795379 636.367743 
L 196.389592 636.605041 
L 196.898918 636.796808 
L 197.153581 636.91931 
L 197.493132 637.084726 
L 198.511784 637.15304 
L 199.02111 637.152791 
L 199.530436 637.491216 
L 201.822404 639.101164 
L 203.265494 639.526851 
L 205.133023 640.108075 
L 206.406338 640.755702 
L 207.764541 641.499788 
L 207.849429 641.355322 
L 208.019204 640.569237 
L 208.358755 641.453534 
L 208.443642 641.37566 
L 208.613418 640.633234 
L 208.952968 641.660702 
L 209.037856 641.613497 
L 209.207631 640.74943 
L 209.377407 640.837743 
L 209.462294 640.712777 
L 209.547182 640.351911 
L 210.565834 631.043112 
L 210.905385 630.556908 
L 211.07516 630.006029 
L 211.499599 631.045179 
L 211.584486 630.788962 
L 211.669374 630.827275 
L 212.093812 631.777166 
L 212.263588 631.525109 
L 212.688026 632.381988 
L 212.857801 632.186682 
L 213.28224 632.961535 
L 213.367127 632.978985 
L 213.536903 632.676209 
L 213.876453 632.878472 
L 213.961341 632.779788 
L 214.216004 632.244563 
L 214.470667 631.82053 
L 214.72533 630.516745 
L 215.149769 628.074303 
L 215.743982 621.635206 
L 216.93241 597.965824 
L 217.441736 588.006205 
L 218.290613 577.956901 
L 218.630163 575.48419 
L 218.799939 574.717915 
L 219.139489 572.400766 
L 219.47904 570.528287 
L 219.818591 566.820756 
L 220.073254 565.769701 
L 220.327917 562.241943 
L 220.58258 561.349944 
L 220.667468 560.00023 
L 220.922131 552.733133 
L 221.346569 548.933849 
L 222.02567 536.576539 
L 222.195446 536.352804 
L 222.365221 536.464768 
L 222.874547 537.063082 
L 223.044322 537.016443 
L 223.383873 536.60608 
L 223.808312 535.99348 
L 223.893199 536.029429 
L 224.062975 536.999673 
L 224.487413 540.610278 
L 224.572301 540.561335 
L 224.742076 539.426556 
L 225.081627 535.404369 
L 225.845616 524.167722 
L 226.270054 521.10399 
L 226.524717 520.41918 
L 226.694492 520.406112 
L 226.864268 520.688365 
L 227.203819 521.96517 
L 227.628257 524.562118 
L 228.392246 530.7021 
L 230.174887 547.475412 
L 232.297079 579.80482 
L 233.485507 594.803508 
L 234.334383 603.338461 
L 235.013485 607.905023 
L 236.117024 616.287516 
L 236.626351 619.42839 
L 238.154329 625.070185 
L 240.191633 630.602974 
L 240.446296 631.080685 
L 241.04051 632.271053 
L 241.974274 634.054541 
L 242.4836 634.607499 
L 242.823151 634.77297 
L 243.672028 635.230302 
L 244.351129 636.033511 
L 245.03023 636.910847 
L 245.624444 637.3217 
L 245.963995 637.366744 
L 246.303546 637.336017 
L 246.982647 636.909011 
L 247.23731 636.695381 
L 247.831524 636.735158 
L 248.34085 636.798882 
L 248.765288 636.691683 
L 249.019951 636.471794 
L 249.444389 636.349657 
L 249.699053 636.294923 
L 250.038603 636.242279 
L 250.547929 635.858 
L 251.057255 635.359267 
L 251.311918 635.200616 
L 251.481694 635.176516 
L 251.99102 635.284255 
L 252.415458 635.16127 
L 253.009672 634.847421 
L 253.349223 634.887797 
L 254.198099 635.414673 
L 254.707425 635.726452 
L 255.301639 635.734335 
L 256.235404 635.672488 
L 256.574954 635.666355 
L 256.914505 635.556019 
L 257.338943 635.416439 
L 257.763382 635.134067 
L 258.442483 634.934981 
L 259.461135 635.101579 
L 259.885574 635.291064 
L 260.140237 635.395588 
L 260.479787 635.486493 
L 261.83799 635.469002 
L 264.554396 636.734775 
L 265.742823 637.063956 
L 266.082374 637.148416 
L 266.5917 637.153003 
L 267.101026 636.948111 
L 267.355689 636.705929 
L 269.223218 636.463186 
L 269.562769 636.605312 
L 269.732544 636.515927 
L 270.156982 636.676559 
L 270.326758 636.538525 
L 270.920971 636.498328 
L 271.939623 636.076365 
L 272.279174 636.310352 
L 273.297826 637.317088 
L 274.486254 637.948971 
L 274.740917 637.799608 
L 275.080467 637.750997 
L 275.33513 637.516508 
L 275.674681 637.403618 
L 276.014232 637.069713 
L 277.287547 636.145393 
L 277.796873 636.357432 
L 278.64575 637.102875 
L 280.173728 637.320429 
L 280.598166 637.070487 
L 280.937717 636.785613 
L 281.531931 636.704223 
L 282.126145 636.95983 
L 282.380808 636.975352 
L 282.635471 636.79721 
L 283.654123 636.814292 
L 284.418112 636.763023 
L 284.757662 636.945383 
L 286.540304 638.278539 
L 287.38918 638.555707 
L 291.03935 639.408568 
L 292.567329 640.293514 
L 293.670868 641.17711 
L 294.519745 641.811091 
L 295.708173 643.011234 
L 300.292107 648.003344 
L 302.329411 649.595857 
L 303.348063 650.237552 
L 304.027165 650.756042 
L 304.451603 651.108341 
L 304.791154 651.364623 
L 305.130705 651.540401 
L 305.385368 651.67491 
L 305.724918 651.80034 
L 305.979581 651.909299 
L 306.234244 652.051273 
L 306.40402 651.969747 
L 306.913346 652.075574 
L 307.083121 652.070106 
L 307.422672 652.209487 
L 307.592447 652.044765 
L 308.101773 652.176826 
L 308.271549 651.776919 
L 308.526212 651.940803 
L 308.695987 651.969535 
L 308.865762 651.537063 
L 309.205313 651.512244 
L 309.290201 651.324619 
L 309.544864 650.27365 
L 309.884414 649.396103 
L 310.223965 647.681749 
L 310.903066 645.426349 
L 311.15773 645.037023 
L 311.412393 644.432823 
L 311.751943 644.235218 
L 311.921719 643.785201 
L 312.346157 643.816061 
L 312.515932 643.408837 
L 312.855483 643.399166 
L 312.940371 643.262557 
L 313.110146 642.716591 
L 313.534584 642.301159 
L 313.70436 641.685718 
L 314.213686 640.958546 
L 314.553237 639.549653 
L 314.8079 638.738595 
L 315.062563 637.474754 
L 315.402113 636.316024 
L 316.166102 632.598595 
L 316.590541 630.410939 
L 316.760316 628.300522 
L 317.099867 627.930111 
L 317.269642 627.269047 
L 317.609193 624.464483 
L 318.203407 615.004367 
L 318.45807 613.75301 
L 318.542957 613.812185 
L 318.79762 614.663779 
L 319.222059 615.977893 
L 319.391834 616.103454 
L 319.561609 616.021907 
L 319.90116 615.380078 
L 320.410486 613.716601 
L 321.598914 608.696081 
L 322.702453 604.447431 
L 323.042004 603.686092 
L 323.296667 603.541754 
L 323.55133 603.624675 
L 323.890881 604.074496 
L 324.739758 605.952142 
L 325.249084 607.694824 
L 325.928185 610.919102 
L 327.031725 617.383838 
L 327.541051 619.879136 
L 328.559703 623.81354 
L 328.984141 625.038905 
L 330.002793 628.124762 
L 331.615659 632.611373 
L 332.973862 635.77858 
L 334.586728 638.746538 
L 336.029818 641.0303 
L 337.048471 642.201129 
L 341.038191 647.709905 
L 342.735945 649.476208 
L 345.791901 652.264213 
L 347.319879 653.30803 
L 350.545611 655.16927 
L 353.431792 656.476525 
L 356.572636 657.636998 
L 359.968143 658.661501 
L 363.872976 659.609435 
L 368.372023 660.481109 
L 373.974609 661.341469 
L 381.359837 662.225388 
L 391.801021 663.211221 
L 404.364397 664.171246 
L 460.899589 668.040953 
L 475.415381 668.607158 
L 495.873311 669.123825 
L 522.867592 669.542081 
L 559.114629 669.882992 
L 624.138589 670.235348 
L 671.675687 670.378045 
L 671.675687 670.378045 
" clip-path="url(#pbddb07f536)" style="fill: none; stroke: #1f77b4; stroke-width: 1.5; stroke-linecap: square"/>
   </g>
   <g id="line2d_28">
    <path d="M 60.654199 671.339967 
L 61.842627 671.248232 
L 63.370605 670.735362 
L 64.559032 670.120773 
L 65.832348 669.259095 
L 67.19055 668.162399 
L 69.737181 666.232675 
L 70.84072 665.786008 
L 72.029148 665.54234 
L 74.660666 665.178595 
L 75.933981 664.336722 
L 77.122408 662.846143 
L 78.480611 659.992964 
L 79.669039 656.59878 
L 80.857466 652.034039 
L 82.130781 645.144903 
L 83.828535 633.677278 
L 86.035614 616.692502 
L 90.9591 581.021663 
L 91.553313 578.680579 
L 92.062639 577.441261 
L 92.487078 576.891583 
L 92.911516 576.686508 
L 93.166179 574.743625 
L 93.675505 569.962506 
L 94.863933 552.425894 
L 98.089664 488.626492 
L 99.447867 465.365738 
L 100.721182 448.225733 
L 101.824722 437.552598 
L 102.588711 432.597425 
L 103.267812 429.851628 
L 103.607363 428.85238 
L 104.286465 427.445585 
L 104.710903 426.706937 
L 105.050454 426.05782 
L 105.135341 425.969525 
L 105.814443 423.073365 
L 106.323769 418.976745 
L 106.833095 416.512719 
L 107.257533 415.538108 
L 107.512196 415.398074 
L 107.851747 415.616981 
L 108.10641 416.129872 
L 108.615736 417.844039 
L 109.20995 420.969253 
L 109.973939 426.544237 
L 110.822816 434.625491 
L 111.926355 447.50195 
L 113.454333 468.195002 
L 119.311583 550.470602 
L 120.924449 568.479282 
L 121.943101 577.819989 
L 123.386192 587.424737 
L 124.574619 593.989115 
L 125.678159 599.020458 
L 126.696811 602.77344 
L 127.800351 605.979252 
L 128.819003 608.209129 
L 129.582992 609.505888 
L 130.516756 610.615191 
L 131.450521 611.418389 
L 132.299397 611.759518 
L 133.233162 611.861972 
L 134.421589 611.532428 
L 134.76114 611.336814 
L 135.779792 610.593916 
L 138.241535 607.422231 
L 139.005524 606.104921 
L 139.769513 605.116387 
L 140.448614 604.608243 
L 141.042828 604.442422 
L 141.637042 604.522979 
L 142.231255 604.828285 
L 142.910357 605.422672 
L 143.759234 606.485015 
L 144.777886 608.148811 
L 146.051201 610.682954 
L 148.173393 615.01774 
L 149.192045 616.172031 
L 151.993338 618.600081 
L 152.927103 619.056721 
L 153.945755 619.426415 
L 154.285305 619.38994 
L 155.303957 619.072159 
L 159.039015 617.351626 
L 159.887892 616.556717 
L 162.349635 614.686831 
L 163.113624 614.544932 
L 163.368287 614.455733 
L 164.217163 614.115231 
L 164.726489 613.883077 
L 165.490479 613.49811 
L 166.16958 613.398003 
L 167.018457 613.334374 
L 168.885986 612.217029 
L 169.565087 611.649975 
L 170.668627 611.1552 
L 173.215257 610.69517 
L 175.082786 610.876894 
L 175.677 610.836506 
L 176.440989 610.833834 
L 176.950315 610.728967 
L 178.393405 610.31092 
L 179.921383 610.459036 
L 181.279586 610.950199 
L 182.043575 610.95253 
L 182.383126 610.852381 
L 183.147115 610.691903 
L 184.080879 610.563398 
L 187.900825 608.014037 
L 188.579926 607.516035 
L 190.023017 606.923743 
L 191.211444 606.761749 
L 191.550995 606.739646 
L 192.230096 606.7808 
L 192.909198 607.042484 
L 193.333636 607.205098 
L 194.097625 607.114862 
L 194.691839 607.028031 
L 195.795379 607.208905 
L 197.408244 607.354464 
L 198.172234 607.259566 
L 198.766447 607.442282 
L 199.445549 607.881566 
L 200.294425 608.704982 
L 201.397965 610.123604 
L 202.841056 612.399184 
L 204.963248 616.231001 
L 207.849429 621.574656 
L 208.019204 621.23118 
L 208.52853 619.781622 
L 209.63207 612.133561 
L 210.990273 598.481265 
L 213.112464 574.214646 
L 214.979993 555.290865 
L 216.338196 544.379023 
L 217.526624 537.437413 
L 219.818591 526.795477 
L 220.243029 523.622283 
L 220.837243 516.713843 
L 221.601232 505.183892 
L 222.365221 496.976785 
L 223.044322 492.020161 
L 223.638536 489.178691 
L 224.147862 487.707388 
L 224.572301 487.095523 
L 224.911851 486.986597 
L 225.166514 487.132531 
L 225.506065 487.609416 
L 225.930503 488.625776 
L 226.524717 490.758573 
L 227.203819 494.091938 
L 228.052695 499.404362 
L 229.156235 507.840252 
L 230.684213 521.504692 
L 235.437923 565.507885 
L 237.050789 576.878164 
L 238.069441 582.768681 
L 239.003205 587.060898 
L 240.021858 590.705237 
L 240.616071 592.262213 
L 241.210285 593.405095 
L 241.719611 594.05525 
L 242.4836 594.634264 
L 243.841803 595.377469 
L 244.520904 595.659992 
L 245.200006 595.642119 
L 246.218658 595.118957 
L 246.897759 594.945687 
L 247.152422 594.845431 
L 248.425737 594.249565 
L 249.019951 594.002068 
L 251.821244 591.927178 
L 252.500346 591.502899 
L 253.009672 591.39227 
L 254.707425 591.49316 
L 256.405179 591.976827 
L 257.508719 591.979515 
L 258.782034 592.114175 
L 259.630911 592.157418 
L 260.055349 592.050992 
L 261.498439 591.69421 
L 262.771755 591.645796 
L 263.026418 591.624206 
L 263.705519 591.559155 
L 264.554396 591.731767 
L 265.657935 592.062241 
L 267.355689 592.014208 
L 268.03479 591.920001 
L 269.13833 591.861161 
L 269.987207 591.490086 
L 270.326758 591.221766 
L 270.920971 590.710695 
L 271.515185 590.461311 
L 272.024511 590.365381 
L 272.703613 590.473391 
L 274.571141 590.680693 
L 276.863109 589.642418 
L 278.051536 589.650229 
L 278.64575 589.810069 
L 278.900413 589.814083 
L 282.635471 588.926046 
L 283.484347 588.543306 
L 283.993673 588.526987 
L 284.587887 588.739391 
L 285.266989 589.239699 
L 286.115865 590.181332 
L 287.134517 591.676546 
L 288.407833 593.959548 
L 290.190474 597.647079 
L 292.482441 602.420193 
L 294.180194 604.90823 
L 297.745477 610.187473 
L 302.159636 613.99621 
L 303.008513 614.328897 
L 303.517839 614.358905 
L 304.027165 614.249814 
L 304.621379 613.921581 
L 305.470255 613.117442 
L 305.894694 612.518066 
L 306.74357 610.95402 
L 307.168009 609.919859 
L 308.016886 607.556135 
L 308.271549 606.630046 
L 309.290201 602.00263 
L 310.563516 594.196248 
L 318.45807 535.789112 
L 319.052283 533.531282 
L 319.561609 532.298718 
L 320.070935 531.628356 
L 320.495374 531.469149 
L 320.834925 531.572909 
L 321.259363 531.959929 
L 321.768689 532.785092 
L 322.362903 534.183543 
L 323.126892 536.577252 
L 324.145544 540.631549 
L 325.418859 546.63552 
L 327.286388 556.522709 
L 332.124985 582.928372 
L 333.822739 590.482723 
L 335.350717 596.256029 
L 336.70892 600.573978 
L 338.067123 604.176408 
L 339.425325 607.13628 
L 340.698641 609.401756 
L 341.971956 611.246 
L 343.330158 612.824468 
L 344.688361 614.074439 
L 346.131452 615.115602 
L 347.744318 616.009101 
L 349.611846 616.781861 
L 351.818926 617.44715 
L 354.705107 618.069259 
L 358.864603 618.717017 
L 366.759157 619.680167 
L 390.357931 622.268314 
L 421.766371 625.504539 
L 454.27835 628.629875 
L 487.978757 631.644753 
L 522.95248 634.548759 
L 559.284405 637.340819 
L 597.05942 640.019381 
L 636.447302 642.587886 
L 671.675687 644.706224 
L 671.675687 644.706224 
" clip-path="url(#pbddb07f536)" style="fill: none; stroke: #ff7f0e; stroke-width: 1.5; stroke-linecap: square"/>
   </g>
   <g id="patch_9">
    <path d="M 30.103125 684.92 
L 30.103125 386.16 
" style="fill: none; stroke: #000000; stroke-width: 0.8; stroke-linejoin: miter; stroke-linecap: square"/>
   </g>
   <g id="patch_10">
    <path d="M 702.226761 684.92 
L 702.226761 386.16 
" style="fill: none; stroke: #000000; stroke-width: 0.8; stroke-linejoin: miter; stroke-linecap: square"/>
   </g>
   <g id="patch_11">
    <path d="M 30.103125 684.92 
L 702.226761 684.92 
" style="fill: none; stroke: #000000; stroke-width: 0.8; stroke-linejoin: miter; stroke-linecap: square"/>
   </g>
   <g id="patch_12">
    <path d="M 30.103125 386.16 
L 702.226761 386.16 
" style="fill: none; stroke: #000000; stroke-width: 0.8; stroke-linejoin: miter; stroke-linecap: square"/>
   </g>
   <g id="text_26">
    <!-- 2 transformation(s) -->
    <g transform="translate(308.050256 380.16) scale(0.12 -0.12)">
     <use xlink:href="#DejaVuSans-32"/>
     <use xlink:href="#DejaVuSans-20" x="63.623047"/>
     <use xlink:href="#DejaVuSans-74" x="95.410156"/>
     <use xlink:href="#DejaVuSans-72" x="134.619141"/>
     <use xlink:href="#DejaVuSans-61" x="175.732422"/>
     <use xlink:href="#DejaVuSans-6e" x="237.011719"/>
     <use xlink:href="#DejaVuSans-73" x="300.390625"/>
     <use xlink:href="#DejaVuSans-66" x="352.490234"/>
     <use xlink:href="#DejaVuSans-6f" x="387.695312"/>
     <use xlink:href="#DejaVuSans-72" x="448.876953"/>
     <use xlink:href="#DejaVuSans-6d" x="488.240234"/>
     <use xlink:href="#DejaVuSans-61" x="585.652344"/>
     <use xlink:href="#DejaVuSans-74" x="646.931641"/>
     <use xlink:href="#DejaVuSans-69" x="686.140625"/>
     <use xlink:href="#DejaVuSans-6f" x="713.923828"/>
     <use xlink:href="#DejaVuSans-6e" x="775.105469"/>
     <use xlink:href="#DejaVuSans-28" x="838.484375"/>
     <use xlink:href="#DejaVuSans-73" x="877.498047"/>
     <use xlink:href="#DejaVuSans-29" x="929.597656"/>
    </g>
   </g>
  </g>
  <g id="text_27">
   <!-- training -->
   <g transform="translate(333.219687 16.318125) scale(0.12 -0.12)">
    <defs>
     <path id="DejaVuSans-67" d="M 2906 1791 
Q 2906 2416 2648 2759 
Q 2391 3103 1925 3103 
Q 1463 3103 1205 2759 
Q 947 2416 947 1791 
Q 947 1169 1205 825 
Q 1463 481 1925 481 
Q 2391 481 2648 825 
Q 2906 1169 2906 1791 
z
M 3481 434 
Q 3481 -459 3084 -895 
Q 2688 -1331 1869 -1331 
Q 1566 -1331 1297 -1286 
Q 1028 -1241 775 -1147 
L 775 -588 
Q 1028 -725 1275 -790 
Q 1522 -856 1778 -856 
Q 2344 -856 2625 -561 
Q 2906 -266 2906 331 
L 2906 616 
Q 2728 306 2450 153 
Q 2172 0 1784 0 
Q 1141 0 747 490 
Q 353 981 353 1791 
Q 353 2603 747 3093 
Q 1141 3584 1784 3584 
Q 2172 3584 2450 3431 
Q 2728 3278 2906 2969 
L 2906 3500 
L 3481 3500 
L 3481 434 
z
" transform="scale(0.015625)"/>
    </defs>
    <use xlink:href="#DejaVuSans-74"/>
    <use xlink:href="#DejaVuSans-72" x="39.208984"/>
    <use xlink:href="#DejaVuSans-61" x="80.322266"/>
    <use xlink:href="#DejaVuSans-69" x="141.601562"/>
    <use xlink:href="#DejaVuSans-6e" x="169.384766"/>
    <use xlink:href="#DejaVuSans-69" x="232.763672"/>
    <use xlink:href="#DejaVuSans-6e" x="260.546875"/>
    <use xlink:href="#DejaVuSans-67" x="323.925781"/>
   </g>
  </g>
 </g>
 <defs>
  <clipPath id="p048365d914">
   <rect x="30.103125" y="43.44" width="672.123636" height="298.76"/>
  </clipPath>
  <clipPath id="pbddb07f536">
   <rect x="30.103125" y="386.16" width="672.123636" height="298.76"/>
  </clipPath>
 </defs>
</svg>
