<?xml version="1.0" encoding="utf-8" standalone="no"?>
<!DOCTYPE svg PUBLIC "-//W3C//DTD SVG 1.1//EN"
  "http://www.w3.org/Graphics/SVG/1.1/DTD/svg11.dtd">
<svg xmlns:xlink="http://www.w3.org/1999/xlink" width="709.345824pt" height="708.798125pt" viewBox="0 0 709.345824 708.798125" xmlns="http://www.w3.org/2000/svg" version="1.1">
 <metadata>
  <rdf:RDF xmlns:dc="http://purl.org/dc/elements/1.1/" xmlns:cc="http://creativecommons.org/ns#" xmlns:rdf="http://www.w3.org/1999/02/22-rdf-syntax-ns#">
   <cc:Work>
    <dc:type rdf:resource="http://purl.org/dc/dcmitype/StillImage"/>
    <dc:date>2023-06-02T09:27:48.079023</dc:date>
    <dc:format>image/svg+xml</dc:format>
    <dc:creator>
     <cc:Agent>
      <dc:title>Matplotlib v3.7.1, https://matplotlib.org/</dc:title>
     </cc:Agent>
    </dc:creator>
   </cc:Work>
  </rdf:RDF>
 </metadata>
 <defs>
  <style type="text/css">*{stroke-linejoin: round; stroke-linecap: butt}</style>
 </defs>
 <g id="figure_1">
  <g id="patch_1">
   <path d="M 0 708.798125 
L 709.345824 708.798125 
L 709.345824 0 
L 0 0 
z
" style="fill: #ffffff"/>
  </g>
  <g id="axes_1">
   <g id="patch_2">
    <path d="M 28.942187 342.2 
L 702.145824 342.2 
L 702.145824 43.44 
L 28.942187 43.44 
z
" style="fill: #ffffff"/>
   </g>
   <g id="matplotlib.axis_1">
    <g id="xtick_1">
     <g id="line2d_1">
      <defs>
       <path id="ma437d8d547" d="M 0 0 
L 0 3.5 
" style="stroke: #000000; stroke-width: 0.8"/>
      </defs>
      <g>
       <use xlink:href="#ma437d8d547" x="59.372305" y="342.2" style="stroke: #000000; stroke-width: 0.8"/>
      </g>
     </g>
     <g id="text_1">
      <!-- 2014-07-01 -->
      <g transform="translate(30.314492 356.798437) scale(0.1 -0.1)">
       <defs>
        <path id="DejaVuSans-32" d="M 1228 531 
L 3431 531 
L 3431 0 
L 469 0 
L 469 531 
Q 828 903 1448 1529 
Q 2069 2156 2228 2338 
Q 2531 2678 2651 2914 
Q 2772 3150 2772 3378 
Q 2772 3750 2511 3984 
Q 2250 4219 1831 4219 
Q 1534 4219 1204 4116 
Q 875 4013 500 3803 
L 500 4441 
Q 881 4594 1212 4672 
Q 1544 4750 1819 4750 
Q 2544 4750 2975 4387 
Q 3406 4025 3406 3419 
Q 3406 3131 3298 2873 
Q 3191 2616 2906 2266 
Q 2828 2175 2409 1742 
Q 1991 1309 1228 531 
z
" transform="scale(0.015625)"/>
        <path id="DejaVuSans-30" d="M 2034 4250 
Q 1547 4250 1301 3770 
Q 1056 3291 1056 2328 
Q 1056 1369 1301 889 
Q 1547 409 2034 409 
Q 2525 409 2770 889 
Q 3016 1369 3016 2328 
Q 3016 3291 2770 3770 
Q 2525 4250 2034 4250 
z
M 2034 4750 
Q 2819 4750 3233 4129 
Q 3647 3509 3647 2328 
Q 3647 1150 3233 529 
Q 2819 -91 2034 -91 
Q 1250 -91 836 529 
Q 422 1150 422 2328 
Q 422 3509 836 4129 
Q 1250 4750 2034 4750 
z
" transform="scale(0.015625)"/>
        <path id="DejaVuSans-31" d="M 794 531 
L 1825 531 
L 1825 4091 
L 703 3866 
L 703 4441 
L 1819 4666 
L 2450 4666 
L 2450 531 
L 3481 531 
L 3481 0 
L 794 0 
L 794 531 
z
" transform="scale(0.015625)"/>
        <path id="DejaVuSans-34" d="M 2419 4116 
L 825 1625 
L 2419 1625 
L 2419 4116 
z
M 2253 4666 
L 3047 4666 
L 3047 1625 
L 3713 1625 
L 3713 1100 
L 3047 1100 
L 3047 0 
L 2419 0 
L 2419 1100 
L 313 1100 
L 313 1709 
L 2253 4666 
z
" transform="scale(0.015625)"/>
        <path id="DejaVuSans-2d" d="M 313 2009 
L 1997 2009 
L 1997 1497 
L 313 1497 
L 313 2009 
z
" transform="scale(0.015625)"/>
        <path id="DejaVuSans-37" d="M 525 4666 
L 3525 4666 
L 3525 4397 
L 1831 0 
L 1172 0 
L 2766 4134 
L 525 4134 
L 525 4666 
z
" transform="scale(0.015625)"/>
       </defs>
       <use xlink:href="#DejaVuSans-32"/>
       <use xlink:href="#DejaVuSans-30" x="63.623047"/>
       <use xlink:href="#DejaVuSans-31" x="127.246094"/>
       <use xlink:href="#DejaVuSans-34" x="190.869141"/>
       <use xlink:href="#DejaVuSans-2d" x="254.492188"/>
       <use xlink:href="#DejaVuSans-30" x="290.576172"/>
       <use xlink:href="#DejaVuSans-37" x="354.199219"/>
       <use xlink:href="#DejaVuSans-2d" x="417.822266"/>
       <use xlink:href="#DejaVuSans-30" x="453.90625"/>
       <use xlink:href="#DejaVuSans-31" x="517.529297"/>
      </g>
     </g>
    </g>
    <g id="xtick_2">
     <g id="line2d_2">
      <g>
       <use xlink:href="#ma437d8d547" x="181.806975" y="342.2" style="stroke: #000000; stroke-width: 0.8"/>
      </g>
     </g>
     <g id="text_2">
      <!-- 2014-07-02 -->
      <g transform="translate(152.749163 356.798437) scale(0.1 -0.1)">
       <use xlink:href="#DejaVuSans-32"/>
       <use xlink:href="#DejaVuSans-30" x="63.623047"/>
       <use xlink:href="#DejaVuSans-31" x="127.246094"/>
       <use xlink:href="#DejaVuSans-34" x="190.869141"/>
       <use xlink:href="#DejaVuSans-2d" x="254.492188"/>
       <use xlink:href="#DejaVuSans-30" x="290.576172"/>
       <use xlink:href="#DejaVuSans-37" x="354.199219"/>
       <use xlink:href="#DejaVuSans-2d" x="417.822266"/>
       <use xlink:href="#DejaVuSans-30" x="453.90625"/>
       <use xlink:href="#DejaVuSans-32" x="517.529297"/>
      </g>
     </g>
    </g>
    <g id="xtick_3">
     <g id="line2d_3">
      <g>
       <use xlink:href="#ma437d8d547" x="304.241646" y="342.2" style="stroke: #000000; stroke-width: 0.8"/>
      </g>
     </g>
     <g id="text_3">
      <!-- 2014-07-03 -->
      <g transform="translate(275.183834 356.798437) scale(0.1 -0.1)">
       <defs>
        <path id="DejaVuSans-33" d="M 2597 2516 
Q 3050 2419 3304 2112 
Q 3559 1806 3559 1356 
Q 3559 666 3084 287 
Q 2609 -91 1734 -91 
Q 1441 -91 1130 -33 
Q 819 25 488 141 
L 488 750 
Q 750 597 1062 519 
Q 1375 441 1716 441 
Q 2309 441 2620 675 
Q 2931 909 2931 1356 
Q 2931 1769 2642 2001 
Q 2353 2234 1838 2234 
L 1294 2234 
L 1294 2753 
L 1863 2753 
Q 2328 2753 2575 2939 
Q 2822 3125 2822 3475 
Q 2822 3834 2567 4026 
Q 2313 4219 1838 4219 
Q 1578 4219 1281 4162 
Q 984 4106 628 3988 
L 628 4550 
Q 988 4650 1302 4700 
Q 1616 4750 1894 4750 
Q 2613 4750 3031 4423 
Q 3450 4097 3450 3541 
Q 3450 3153 3228 2886 
Q 3006 2619 2597 2516 
z
" transform="scale(0.015625)"/>
       </defs>
       <use xlink:href="#DejaVuSans-32"/>
       <use xlink:href="#DejaVuSans-30" x="63.623047"/>
       <use xlink:href="#DejaVuSans-31" x="127.246094"/>
       <use xlink:href="#DejaVuSans-34" x="190.869141"/>
       <use xlink:href="#DejaVuSans-2d" x="254.492188"/>
       <use xlink:href="#DejaVuSans-30" x="290.576172"/>
       <use xlink:href="#DejaVuSans-37" x="354.199219"/>
       <use xlink:href="#DejaVuSans-2d" x="417.822266"/>
       <use xlink:href="#DejaVuSans-30" x="453.90625"/>
       <use xlink:href="#DejaVuSans-33" x="517.529297"/>
      </g>
     </g>
    </g>
    <g id="xtick_4">
     <g id="line2d_4">
      <g>
       <use xlink:href="#ma437d8d547" x="426.676317" y="342.2" style="stroke: #000000; stroke-width: 0.8"/>
      </g>
     </g>
     <g id="text_4">
      <!-- 2014-07-04 -->
      <g transform="translate(397.618504 356.798437) scale(0.1 -0.1)">
       <use xlink:href="#DejaVuSans-32"/>
       <use xlink:href="#DejaVuSans-30" x="63.623047"/>
       <use xlink:href="#DejaVuSans-31" x="127.246094"/>
       <use xlink:href="#DejaVuSans-34" x="190.869141"/>
       <use xlink:href="#DejaVuSans-2d" x="254.492188"/>
       <use xlink:href="#DejaVuSans-30" x="290.576172"/>
       <use xlink:href="#DejaVuSans-37" x="354.199219"/>
       <use xlink:href="#DejaVuSans-2d" x="417.822266"/>
       <use xlink:href="#DejaVuSans-30" x="453.90625"/>
       <use xlink:href="#DejaVuSans-34" x="517.529297"/>
      </g>
     </g>
    </g>
    <g id="xtick_5">
     <g id="line2d_5">
      <g>
       <use xlink:href="#ma437d8d547" x="549.110988" y="342.2" style="stroke: #000000; stroke-width: 0.8"/>
      </g>
     </g>
     <g id="text_5">
      <!-- 2014-07-05 -->
      <g transform="translate(520.053175 356.798437) scale(0.1 -0.1)">
       <defs>
        <path id="DejaVuSans-35" d="M 691 4666 
L 3169 4666 
L 3169 4134 
L 1269 4134 
L 1269 2991 
Q 1406 3038 1543 3061 
Q 1681 3084 1819 3084 
Q 2600 3084 3056 2656 
Q 3513 2228 3513 1497 
Q 3513 744 3044 326 
Q 2575 -91 1722 -91 
Q 1428 -91 1123 -41 
Q 819 9 494 109 
L 494 744 
Q 775 591 1075 516 
Q 1375 441 1709 441 
Q 2250 441 2565 725 
Q 2881 1009 2881 1497 
Q 2881 1984 2565 2268 
Q 2250 2553 1709 2553 
Q 1456 2553 1204 2497 
Q 953 2441 691 2322 
L 691 4666 
z
" transform="scale(0.015625)"/>
       </defs>
       <use xlink:href="#DejaVuSans-32"/>
       <use xlink:href="#DejaVuSans-30" x="63.623047"/>
       <use xlink:href="#DejaVuSans-31" x="127.246094"/>
       <use xlink:href="#DejaVuSans-34" x="190.869141"/>
       <use xlink:href="#DejaVuSans-2d" x="254.492188"/>
       <use xlink:href="#DejaVuSans-30" x="290.576172"/>
       <use xlink:href="#DejaVuSans-37" x="354.199219"/>
       <use xlink:href="#DejaVuSans-2d" x="417.822266"/>
       <use xlink:href="#DejaVuSans-30" x="453.90625"/>
       <use xlink:href="#DejaVuSans-35" x="517.529297"/>
      </g>
     </g>
    </g>
    <g id="xtick_6">
     <g id="line2d_6">
      <g>
       <use xlink:href="#ma437d8d547" x="671.545659" y="342.2" style="stroke: #000000; stroke-width: 0.8"/>
      </g>
     </g>
     <g id="text_6">
      <!-- 2014-07-06 -->
      <g transform="translate(642.487846 356.798437) scale(0.1 -0.1)">
       <defs>
        <path id="DejaVuSans-36" d="M 2113 2584 
Q 1688 2584 1439 2293 
Q 1191 2003 1191 1497 
Q 1191 994 1439 701 
Q 1688 409 2113 409 
Q 2538 409 2786 701 
Q 3034 994 3034 1497 
Q 3034 2003 2786 2293 
Q 2538 2584 2113 2584 
z
M 3366 4563 
L 3366 3988 
Q 3128 4100 2886 4159 
Q 2644 4219 2406 4219 
Q 1781 4219 1451 3797 
Q 1122 3375 1075 2522 
Q 1259 2794 1537 2939 
Q 1816 3084 2150 3084 
Q 2853 3084 3261 2657 
Q 3669 2231 3669 1497 
Q 3669 778 3244 343 
Q 2819 -91 2113 -91 
Q 1303 -91 875 529 
Q 447 1150 447 2328 
Q 447 3434 972 4092 
Q 1497 4750 2381 4750 
Q 2619 4750 2861 4703 
Q 3103 4656 3366 4563 
z
" transform="scale(0.015625)"/>
       </defs>
       <use xlink:href="#DejaVuSans-32"/>
       <use xlink:href="#DejaVuSans-30" x="63.623047"/>
       <use xlink:href="#DejaVuSans-31" x="127.246094"/>
       <use xlink:href="#DejaVuSans-34" x="190.869141"/>
       <use xlink:href="#DejaVuSans-2d" x="254.492188"/>
       <use xlink:href="#DejaVuSans-30" x="290.576172"/>
       <use xlink:href="#DejaVuSans-37" x="354.199219"/>
       <use xlink:href="#DejaVuSans-2d" x="417.822266"/>
       <use xlink:href="#DejaVuSans-30" x="453.90625"/>
       <use xlink:href="#DejaVuSans-36" x="517.529297"/>
      </g>
     </g>
    </g>
   </g>
   <g id="matplotlib.axis_2">
    <g id="ytick_1">
     <g id="line2d_7">
      <defs>
       <path id="mb2b20b5e57" d="M 0 0 
L -3.5 0 
" style="stroke: #000000; stroke-width: 0.8"/>
      </defs>
      <g>
       <use xlink:href="#mb2b20b5e57" x="28.942187" y="311.012277" style="stroke: #000000; stroke-width: 0.8"/>
      </g>
     </g>
     <g id="text_7">
      <!-- −2 -->
      <g transform="translate(7.2 314.811495) scale(0.1 -0.1)">
       <defs>
        <path id="DejaVuSans-2212" d="M 678 2272 
L 4684 2272 
L 4684 1741 
L 678 1741 
L 678 2272 
z
" transform="scale(0.015625)"/>
       </defs>
       <use xlink:href="#DejaVuSans-2212"/>
       <use xlink:href="#DejaVuSans-32" x="83.789062"/>
      </g>
     </g>
    </g>
    <g id="ytick_2">
     <g id="line2d_8">
      <g>
       <use xlink:href="#mb2b20b5e57" x="28.942187" y="269.543588" style="stroke: #000000; stroke-width: 0.8"/>
      </g>
     </g>
     <g id="text_8">
      <!-- −1 -->
      <g transform="translate(7.2 273.342807) scale(0.1 -0.1)">
       <use xlink:href="#DejaVuSans-2212"/>
       <use xlink:href="#DejaVuSans-31" x="83.789062"/>
      </g>
     </g>
    </g>
    <g id="ytick_3">
     <g id="line2d_9">
      <g>
       <use xlink:href="#mb2b20b5e57" x="28.942187" y="228.074899" style="stroke: #000000; stroke-width: 0.8"/>
      </g>
     </g>
     <g id="text_9">
      <!-- 0 -->
      <g transform="translate(15.579687 231.874118) scale(0.1 -0.1)">
       <use xlink:href="#DejaVuSans-30"/>
      </g>
     </g>
    </g>
    <g id="ytick_4">
     <g id="line2d_10">
      <g>
       <use xlink:href="#mb2b20b5e57" x="28.942187" y="186.606211" style="stroke: #000000; stroke-width: 0.8"/>
      </g>
     </g>
     <g id="text_10">
      <!-- 1 -->
      <g transform="translate(15.579687 190.40543) scale(0.1 -0.1)">
       <use xlink:href="#DejaVuSans-31"/>
      </g>
     </g>
    </g>
    <g id="ytick_5">
     <g id="line2d_11">
      <g>
       <use xlink:href="#mb2b20b5e57" x="28.942187" y="145.137522" style="stroke: #000000; stroke-width: 0.8"/>
      </g>
     </g>
     <g id="text_11">
      <!-- 2 -->
      <g transform="translate(15.579687 148.936741) scale(0.1 -0.1)">
       <use xlink:href="#DejaVuSans-32"/>
      </g>
     </g>
    </g>
    <g id="ytick_6">
     <g id="line2d_12">
      <g>
       <use xlink:href="#mb2b20b5e57" x="28.942187" y="103.668834" style="stroke: #000000; stroke-width: 0.8"/>
      </g>
     </g>
     <g id="text_12">
      <!-- 3 -->
      <g transform="translate(15.579687 107.468053) scale(0.1 -0.1)">
       <use xlink:href="#DejaVuSans-33"/>
      </g>
     </g>
    </g>
    <g id="ytick_7">
     <g id="line2d_13">
      <g>
       <use xlink:href="#mb2b20b5e57" x="28.942187" y="62.200145" style="stroke: #000000; stroke-width: 0.8"/>
      </g>
     </g>
     <g id="text_13">
      <!-- 4 -->
      <g transform="translate(15.579687 65.999364) scale(0.1 -0.1)">
       <use xlink:href="#DejaVuSans-34"/>
      </g>
     </g>
    </g>
   </g>
   <g id="line2d_14">
    <path d="M 59.542353 228.074899 
L 60.392594 227.944017 
L 61.582931 227.519818 
L 62.60322 226.906175 
L 64.303701 225.426688 
L 66.174231 223.211207 
L 67.279544 222.511835 
L 67.874712 222.414508 
L 68.639929 222.556113 
L 72.636061 223.712391 
L 73.316253 223.607767 
L 73.826398 223.312201 
L 74.251518 222.857935 
L 75.696927 220.63201 
L 76.207072 219.150399 
L 76.717216 216.027123 
L 77.737505 208.743767 
L 78.077602 207.770217 
L 78.332674 206.21652 
L 78.587746 205.794666 
L 78.927842 203.945985 
L 79.182915 203.805672 
L 79.523011 202.121866 
L 79.693059 202.267144 
L 79.778083 201.922111 
L 80.118179 198.596554 
L 80.203203 198.571376 
L 80.288228 198.695662 
L 80.373252 198.362553 
L 80.713348 195.755131 
L 80.883396 196.472735 
L 80.96842 197.011356 
L 81.053444 196.979614 
L 81.308516 195.162329 
L 81.393541 195.230685 
L 81.563589 196.033153 
L 81.648613 195.911005 
L 81.903685 194.19171 
L 81.988709 194.311141 
L 82.158757 195.219043 
L 82.243781 195.177825 
L 82.498854 193.571539 
L 82.583878 193.739767 
L 82.753926 194.775885 
L 82.83895 194.756029 
L 83.094022 193.257748 
L 83.179046 193.460353 
L 83.434118 194.520553 
L 83.689191 193.079603 
L 83.859239 193.809274 
L 84.114311 195.365387 
L 84.369383 193.957088 
L 84.454407 194.107345 
L 84.624455 195.096725 
L 84.70948 195.059026 
L 84.964552 193.446459 
L 85.1346 194.000919 
L 85.219624 194.572138 
L 85.304648 194.540693 
L 85.55972 192.990866 
L 85.644744 193.167668 
L 85.814793 194.20894 
L 85.899817 194.185876 
L 86.154889 192.738846 
L 86.324937 193.478473 
L 86.494985 194.220565 
L 86.750057 193.453217 
L 86.920106 194.304687 
L 87.175178 196.130272 
L 87.345226 195.892141 
L 87.43025 195.976286 
L 88.025419 197.754357 
L 88.280491 198.482795 
L 88.365515 195.946232 
L 88.620587 183.253729 
L 88.705611 182.861516 
L 88.960683 184.864109 
L 89.215756 187.985805 
L 89.980972 198.956605 
L 90.491117 203.736963 
L 91.086285 207.385274 
L 91.766478 209.927229 
L 91.851502 210.159857 
L 91.936526 209.537656 
L 92.106574 192.18777 
L 92.276622 174.30475 
L 92.446671 175.993512 
L 92.531695 173.898111 
L 92.871791 150.401721 
L 92.956815 147.957678 
L 93.041839 149.320979 
L 93.211887 154.602183 
L 93.551984 141.241043 
L 93.637008 141.434253 
L 93.807056 146.381409 
L 94.147152 137.585251 
L 94.402224 143.477679 
L 95.082417 120.369696 
L 95.422513 96.862619 
L 95.677585 85.325104 
L 96.017682 70.860828 
L 96.18773 70.493144 
L 96.272754 68.850869 
L 96.527826 57.478495 
L 96.61285 57.02 
L 96.697874 58.014247 
L 96.867923 62.331246 
L 97.037971 60.011896 
L 97.122995 60.731189 
L 97.463091 71.424045 
L 97.633139 70.735363 
L 97.803187 74.35577 
L 98.05826 80.977614 
L 98.228308 81.034147 
L 98.48338 86.834004 
L 98.738452 90.938365 
L 98.823476 91.179873 
L 99.078549 96.966678 
L 99.418645 103.523536 
L 99.588693 105.333838 
L 100.013813 113.127904 
L 100.183862 114.926243 
L 100.608982 123.377728 
L 100.694006 122.967896 
L 100.77903 123.078096 
L 100.949078 125.509998 
L 101.289175 129.359494 
L 101.544247 132.302104 
L 101.799319 135.060136 
L 101.969367 135.971679 
L 102.479512 141.840635 
L 102.564536 141.745365 
L 102.64956 142.040172 
L 102.989656 146.1601 
L 103.07468 146.025891 
L 103.244728 145.185429 
L 103.414776 146.748544 
L 103.584825 148.237458 
L 103.839897 143.908461 
L 103.924921 144.186214 
L 104.094969 145.769844 
L 104.179993 145.19021 
L 104.520089 134.419741 
L 104.605114 134.59816 
L 104.690138 135.074847 
L 104.775162 133.077673 
L 105.115258 108.465348 
L 105.200282 107.171063 
L 105.37033 110.384623 
L 105.540378 113.005415 
L 105.625402 112.574079 
L 105.795451 109.305804 
L 105.965499 105.900951 
L 106.135547 107.015383 
L 106.305595 108.212816 
L 106.475643 110.976859 
L 107.836028 140.854515 
L 109.96163 171.39748 
L 110.811871 179.459931 
L 111.577088 185.203832 
L 112.597377 190.898715 
L 113.277569 193.823838 
L 114.12781 196.64015 
L 115.488195 199.658162 
L 116.508484 201.160453 
L 117.358725 201.981444 
L 118.71911 202.851645 
L 119.654375 203.17451 
L 120.759688 203.282396 
L 120.844712 203.032551 
L 121.01476 201.276355 
L 121.269833 198.634324 
L 121.524905 198.028091 
L 121.694953 198.012022 
L 122.715242 198.738097 
L 123.055338 198.779224 
L 123.31041 198.846104 
L 123.650507 198.809406 
L 124.160651 198.918968 
L 124.415723 199.048219 
L 127.646638 201.020788 
L 127.986735 201.01449 
L 128.241807 201.095269 
L 128.581903 201.028114 
L 128.836975 201.073011 
L 129.177072 200.956187 
L 129.432144 200.970731 
L 129.687216 200.780929 
L 130.197361 200.822153 
L 130.452433 200.706394 
L 130.622481 200.722641 
L 131.132626 200.384845 
L 131.302674 200.271576 
L 131.557746 199.959389 
L 131.897842 199.856318 
L 132.152914 199.503897 
L 132.493011 199.379567 
L 132.748083 198.992163 
L 132.918131 199.033757 
L 133.088179 199.098855 
L 133.598324 198.629368 
L 133.768372 198.441653 
L 134.023444 197.997036 
L 134.278516 197.960655 
L 134.703637 197.341203 
L 134.873685 197.313554 
L 135.298805 196.663569 
L 135.468853 196.636017 
L 135.893974 195.945204 
L 136.149046 196.083023 
L 136.574166 195.395697 
L 136.744215 195.345796 
L 137.084311 194.551672 
L 137.339383 194.525054 
L 137.679479 193.715855 
L 138.274648 193.97814 
L 139.294937 195.632654 
L 140.060154 197.211677 
L 141.505563 201.052315 
L 142.780924 204.183379 
L 144.226333 206.907968 
L 144.821502 207.929244 
L 145.41667 208.933023 
L 146.181887 209.722385 
L 146.607008 209.990098 
L 146.947104 209.935618 
L 147.117152 209.789888 
L 147.2872 209.423145 
L 148.137441 206.618767 
L 148.817634 205.671692 
L 149.072706 205.72155 
L 149.412802 206.11777 
L 149.752898 206.467245 
L 150.348067 206.672608 
L 150.688163 206.596926 
L 150.943235 206.491745 
L 151.198308 206.348553 
L 151.623428 206.336342 
L 151.8785 206.213203 
L 152.218597 206.396069 
L 152.728741 206.782682 
L 153.408934 205.849546 
L 153.664006 205.300869 
L 153.919078 205.008358 
L 154.259174 204.502287 
L 155.61956 204.869921 
L 156.384776 205.597855 
L 156.809897 204.946584 
L 157.064969 205.042611 
L 157.745162 205.627664 
L 158.255306 205.182046 
L 158.680426 203.817144 
L 159.105547 203.458486 
L 159.360619 203.544389 
L 160.380908 202.579607 
L 160.806028 202.764 
L 161.486221 203.228267 
L 162.166414 203.832723 
L 162.421486 204.019719 
L 162.591534 203.820617 
L 162.93163 203.366019 
L 163.356751 203.334833 
L 163.696847 203.603317 
L 163.866895 203.277437 
L 164.121967 202.759747 
L 164.37704 202.736542 
L 164.632112 202.919848 
L 165.737425 204.16676 
L 166.077521 204.211557 
L 166.332593 203.356192 
L 166.587666 202.77144 
L 166.842738 202.542203 
L 167.09781 202.200711 
L 167.352882 202.162414 
L 168.458195 200.199948 
L 168.713268 200.471185 
L 169.223412 201.125162 
L 169.563508 200.972948 
L 169.818581 201.113522 
L 170.583797 201.672007 
L 170.838869 201.560655 
L 171.093942 201.511582 
L 171.434038 201.242776 
L 171.774134 201.534171 
L 172.284279 202.344635 
L 172.964471 203.341196 
L 174.154808 203.316132 
L 174.494905 202.671936 
L 174.664953 202.680748 
L 174.920025 202.97322 
L 175.260121 203.472877 
L 175.43017 203.302938 
L 175.685242 202.965014 
L 175.940314 202.89958 
L 176.875579 201.380372 
L 177.045627 201.390049 
L 177.385723 201.720161 
L 177.810844 202.174583 
L 178.235964 202.179108 
L 178.831133 202.585183 
L 179.936446 203.799651 
L 180.191518 203.917526 
L 180.361566 203.726157 
L 180.616638 203.384881 
L 180.871711 203.213079 
L 181.211807 202.840196 
L 181.381855 202.804146 
L 181.892 202.095584 
L 182.74224 202.674843 
L 183.337409 202.130398 
L 183.677505 201.289665 
L 183.847553 201.091749 
L 184.357698 199.945624 
L 184.61277 199.751045 
L 184.782818 199.693886 
L 185.207939 199.818592 
L 185.548035 199.32357 
L 186.228227 199.48052 
L 186.398276 199.505009 
L 186.653348 199.387681 
L 186.90842 199.412636 
L 187.418565 198.510654 
L 187.673637 198.738705 
L 188.523878 199.754182 
L 188.948998 199.960422 
L 189.20407 200.026477 
L 189.544166 200.218515 
L 189.799239 200.36148 
L 190.224359 201.061821 
L 190.649479 201.696768 
L 191.0746 201.63785 
L 191.584744 202.246376 
L 192.520009 203.583741 
L 193.115178 202.477606 
L 193.455274 201.40307 
L 193.625322 201.40023 
L 193.880394 201.709095 
L 194.475563 202.604705 
L 195.070731 202.750604 
L 195.325804 202.681447 
L 195.6659 202.664056 
L 195.920972 202.649614 
L 196.09102 202.602078 
L 196.771213 201.117962 
L 197.026285 200.97602 
L 197.281357 201.247156 
L 201.362513 207.872552 
L 202.297778 209.013967 
L 203.318067 209.920395 
L 204.593428 210.746364 
L 205.868789 211.320174 
L 206.974102 211.699133 
L 207.059126 211.618062 
L 207.14415 211.012003 
L 207.314199 205.078495 
L 207.569271 196.552325 
L 207.654295 195.626856 
L 207.824343 188.413565 
L 207.994391 182.568082 
L 208.079415 182.115203 
L 208.249463 182.706484 
L 208.58956 176.397126 
L 208.844632 178.485982 
L 209.184728 172.941845 
L 209.269752 173.044802 
L 209.4398 173.115676 
L 209.524825 172.600331 
L 209.949945 165.415502 
L 210.034969 165.41695 
L 210.119993 165.052247 
L 210.460089 160.237873 
L 210.715162 160.721743 
L 210.970234 157.579007 
L 211.055258 157.602553 
L 211.31033 158.418761 
L 211.565402 156.181878 
L 211.650426 156.319687 
L 211.905499 157.470483 
L 212.160571 156.107089 
L 212.330619 156.903578 
L 212.670715 158.837467 
L 212.840764 158.490955 
L 213.010812 159.419771 
L 213.265884 160.982001 
L 213.350908 160.884946 
L 213.435932 161.00958 
L 213.691004 162.773558 
L 213.861052 163.788468 
L 213.946077 163.837928 
L 214.116125 164.510563 
L 214.541245 167.078129 
L 214.711293 167.737298 
L 215.136414 170.288857 
L 215.306462 170.894449 
L 216.411775 176.565094 
L 216.581823 177.067403 
L 217.432064 180.578955 
L 217.517088 180.531479 
L 217.77216 179.225838 
L 217.857184 179.30091 
L 218.027232 179.747699 
L 218.19728 177.796385 
L 218.367329 175.979809 
L 218.452353 175.983779 
L 218.707425 177.022443 
L 219.047521 169.217057 
L 219.132545 169.39772 
L 219.217569 169.957893 
L 219.302593 169.356146 
L 219.64269 154.590853 
L 219.812738 155.445986 
L 219.897762 152.499916 
L 220.237858 121.116949 
L 220.322882 119.78974 
L 220.918051 132.189977 
L 221.088099 131.152781 
L 221.428195 128.699128 
L 221.513219 128.909284 
L 221.683268 130.535373 
L 224.574086 175.145206 
L 225.339303 182.944966 
L 226.274568 190.138726 
L 227.209833 195.481185 
L 228.060073 199.048852 
L 228.82529 201.600653 
L 229.845579 204.136933 
L 230.780844 205.87366 
L 231.631085 207.154612 
L 232.651373 208.240113 
L 233.246542 208.643107 
L 233.586638 208.720754 
L 234.096783 208.572601 
L 234.351855 208.283427 
L 235.032048 207.372119 
L 235.372144 207.160201 
L 235.797264 207.132708 
L 236.137361 207.066856 
L 237.242674 206.613255 
L 237.922866 205.648639 
L 238.262963 204.933961 
L 238.773107 204.661513 
L 239.028179 204.70767 
L 239.368276 204.530247 
L 239.538324 204.517485 
L 240.048468 203.391132 
L 240.218516 203.353952 
L 240.728661 202.246695 
L 240.898709 201.938698 
L 241.153781 201.325265 
L 241.833974 201.359484 
L 242.939287 203.506005 
L 243.364407 204.205887 
L 243.874552 204.221684 
L 244.129624 203.675684 
L 244.639768 202.553318 
L 244.894841 201.845121 
L 245.234937 201.413936 
L 245.404985 201.24992 
L 245.575033 201.316772 
L 246.085178 201.969691 
L 246.34025 202.196294 
L 246.510298 201.884404 
L 246.76537 201.406027 
L 247.020442 201.137637 
L 247.275515 200.802663 
L 247.530587 200.890466 
L 247.955707 201.359311 
L 248.125755 201.455308 
L 248.295804 201.034022 
L 248.550876 200.434228 
L 248.720924 200.235194 
L 249.146044 199.217473 
L 249.316093 199.324094 
L 249.996285 200.362345 
L 250.081309 200.261602 
L 250.421406 199.683406 
L 250.591454 199.493407 
L 251.016574 198.135829 
L 251.186622 198.158349 
L 251.526719 198.532652 
L 252.972128 200.843165 
L 253.142176 200.849653 
L 253.482272 200.462984 
L 253.65232 200.542059 
L 253.992417 201.07504 
L 254.927682 202.65437 
L 255.352802 202.26597 
L 255.52285 202.249145 
L 256.118019 201.399321 
L 256.458115 201.337533 
L 256.883235 201.573627 
L 257.138308 201.642165 
L 257.308356 201.73008 
L 258.158597 201.433361 
L 258.413669 201.543244 
L 258.583717 201.556928 
L 259.604006 199.62361 
L 259.859078 199.639696 
L 260.11415 199.610856 
L 260.454247 199.714513 
L 260.794343 199.476478 
L 261.049415 199.507555 
L 261.304487 199.428947 
L 261.55956 199.657206 
L 262.239752 200.351247 
L 262.4098 200.068857 
L 262.664873 199.677768 
L 262.919945 199.779591 
L 263.260041 200.246488 
L 263.685162 200.825341 
L 264.450378 201.823239 
L 264.70545 202.097581 
L 264.875499 201.788037 
L 265.130571 201.215988 
L 265.725739 200.848566 
L 266.405932 201.381893 
L 266.490956 201.379685 
L 266.746028 200.751948 
L 267.001101 200.483867 
L 267.341197 200.600516 
L 267.851341 201.008959 
L 268.191438 200.667106 
L 268.361486 200.615892 
L 268.87163 200.010737 
L 269.041678 199.635477 
L 269.381775 198.635926 
L 269.551823 198.432752 
L 269.976943 197.272153 
L 270.146991 197.409915 
L 270.572112 198.153205 
L 270.912208 198.665643 
L 271.422353 199.04837 
L 271.932497 199.782493 
L 272.61269 200.630574 
L 272.782738 200.560592 
L 273.03781 200.448952 
L 273.377906 200.548211 
L 273.547954 200.59688 
L 273.888051 200.955376 
L 274.058099 200.634764 
L 274.313171 200.203208 
L 274.483219 200.07847 
L 274.90834 198.936572 
L 275.078388 198.910885 
L 275.418484 198.555335 
L 275.673556 198.803222 
L 276.523797 199.893498 
L 277.033942 200.112844 
L 277.374038 199.773397 
L 277.62911 199.987453 
L 278.139255 200.843153 
L 278.224279 200.757144 
L 279.159544 198.983218 
L 279.329592 199.105353 
L 279.669688 199.711579 
L 280.009784 200.357921 
L 280.179832 200.304704 
L 280.434905 200.21019 
L 280.604953 200.137744 
L 281.115097 199.049693 
L 281.455194 199.099782 
L 281.79529 199.3498 
L 282.305434 198.272631 
L 282.730555 198.289565 
L 283.070651 198.803 
L 285.791422 204.254076 
L 286.896735 206.508122 
L 288.087072 208.348643 
L 289.107361 209.452654 
L 290.212674 210.31138 
L 291.403011 210.985362 
L 291.658083 210.980122 
L 291.828131 210.795211 
L 292.593348 209.527788 
L 293.018468 209.550326 
L 293.868709 209.822889 
L 295.059046 210.537706 
L 296.419431 211.237127 
L 297.184648 211.464848 
L 297.524744 211.271521 
L 298.034889 210.961673 
L 298.545033 210.971364 
L 300.330539 211.406464 
L 301.350828 211.541777 
L 301.860972 211.421123 
L 302.286092 211.129771 
L 302.881261 210.335298 
L 303.90155 207.987988 
L 304.32667 206.748213 
L 304.496718 206.534955 
L 306.792369 200.567859 
L 306.877393 200.441383 
L 307.217489 199.130241 
L 307.302513 199.138311 
L 307.472561 199.40505 
L 307.557585 199.107991 
L 307.897682 195.944428 
L 308.06773 195.844256 
L 308.152754 195.407888 
L 308.49285 192.58642 
L 308.662898 192.924319 
L 308.747922 192.645605 
L 309.002995 190.549648 
L 309.088019 190.565195 
L 309.258067 191.276864 
L 309.343091 191.070389 
L 309.598163 189.164922 
L 309.683187 189.126388 
L 309.853235 189.436303 
L 310.023283 187.870526 
L 310.278356 185.763852 
L 310.36338 185.688874 
L 310.533428 185.770278 
L 310.703476 184.10779 
L 310.958548 182.154202 
L 311.128596 182.147261 
L 311.298645 180.611909 
L 311.468693 179.389867 
L 311.553717 179.323353 
L 311.723765 179.644633 
L 311.893813 178.444516 
L 312.063861 177.408867 
L 312.148885 177.443724 
L 312.318934 177.918157 
L 312.488982 176.737561 
L 312.65903 175.918708 
L 312.744054 176.016855 
L 312.914102 176.593539 
L 312.999126 176.295206 
L 313.254198 174.768352 
L 313.424247 175.260883 
L 313.594295 176.146329 
L 313.679319 175.925149 
L 313.934391 174.517397 
L 314.104439 174.996309 
L 314.189463 175.363914 
L 314.274487 175.263359 
L 314.52956 174.480752 
L 314.869656 175.59465 
L 315.039704 175.238593 
L 315.209752 175.644248 
L 315.464824 176.629473 
L 315.634873 176.634031 
L 315.804921 177.143182 
L 315.889945 177.525483 
L 315.974969 177.271118 
L 316.145017 170.491958 
L 316.315065 166.432741 
L 316.400089 166.591515 
L 317.335354 173.633641 
L 317.760474 175.127004 
L 318.270619 178.190121 
L 320.141149 190.48522 
L 321.076413 195.175284 
L 322.351775 199.642487 
L 323.372064 202.097069 
L 324.13728 203.375595 
L 326.517954 206.490101 
L 328.72858 209.12985 
L 329.833893 210.087553 
L 331.02423 210.77885 
L 334.000073 211.741799 
L 336.125675 212.210315 
L 338.846446 212.584 
L 343.012625 212.882424 
L 350.579768 213.131836 
L 372.601004 213.531518 
L 509.829864 215.884645 
L 591.793074 217.497828 
L 621.976622 217.821359 
L 650.969832 218.438682 
L 669.250008 219.067118 
L 671.545659 219.163487 
L 671.545659 219.163487 
" clip-path="url(#pcdc91bb110)" style="fill: none; stroke: #1f77b4; stroke-width: 1.5; stroke-linecap: square"/>
   </g>
   <g id="line2d_15">
    <path d="M 59.542353 228.074899 
L 62.433171 228.172437 
L 63.368436 228.255745 
L 64.813846 228.408888 
L 65.409014 228.502919 
L 66.174231 228.645394 
L 66.684375 228.729389 
L 68.214809 228.98434 
L 71.020603 229.337386 
L 75.356831 229.64349 
L 75.611903 229.700673 
L 75.952 229.774986 
L 76.122048 229.84569 
L 76.547168 229.955781 
L 76.717216 230.045369 
L 77.142337 230.195691 
L 77.312385 230.307893 
L 77.822529 230.534388 
L 77.992577 230.675991 
L 78.417698 230.945835 
L 78.587746 231.118521 
L 79.012866 231.459803 
L 79.267939 231.726878 
L 79.523011 231.880997 
L 79.778083 232.423324 
L 80.118179 232.689358 
L 80.373252 233.272712 
L 80.798372 233.689512 
L 81.053444 234.326894 
L 81.393541 234.739635 
L 81.733637 235.58866 
L 81.988709 235.990918 
L 82.328805 236.985623 
L 82.668902 237.870664 
L 82.923974 238.627209 
L 83.26407 239.652519 
L 83.519142 240.50987 
L 83.944263 241.92189 
L 84.284359 243.134989 
L 85.049576 245.955764 
L 85.474696 247.702339 
L 86.324937 250.784493 
L 86.665033 251.866773 
L 88.110443 255.646636 
L 88.365515 257.102741 
L 88.960683 257.897876 
L 89.555852 258.259795 
L 89.980972 258.399484 
L 90.406093 258.860795 
L 91.511406 260.292661 
L 91.681454 260.37918 
L 91.766478 260.259286 
L 91.936526 261.811079 
L 92.191598 261.361865 
L 92.361646 260.979382 
L 92.531695 262.129961 
L 93.041839 260.333954 
L 93.211887 261.141069 
L 93.637008 259.410712 
L 93.807056 260.288663 
L 94.062128 259.754255 
L 94.232176 259.713895 
L 94.487248 261.354017 
L 94.827345 263.021542 
L 95.847634 279.090716 
L 96.527826 295.137834 
L 97.633139 318.842442 
L 98.228308 325.698008 
L 98.738452 328.379301 
L 98.993524 328.528403 
L 99.248597 328.558695 
L 99.333621 328.62 
L 100.098837 325.548144 
L 101.119126 318.516333 
L 102.904632 302.721807 
L 103.159704 300.558606 
L 104.009945 293.425857 
L 104.179993 293.07934 
L 104.605114 289.339855 
L 104.775162 289.60524 
L 105.200282 286.465254 
L 105.625402 284.453618 
L 105.965499 283.578284 
L 106.305595 283.47917 
L 106.475643 283.870342 
L 106.900764 286.313759 
L 108.006077 293.522706 
L 108.261149 294.023788 
L 108.516221 294.067435 
L 108.771293 293.471666 
L 109.11139 292.03192 
L 109.706558 288.1533 
L 110.981919 277.569149 
L 112.427329 266.200318 
L 113.532642 259.234391 
L 114.552931 254.159821 
L 115.743268 249.601391 
L 117.018629 245.944148 
L 118.038918 243.649617 
L 118.974183 241.974767 
L 119.994471 240.460937 
L 120.58964 239.67067 
L 120.674664 239.778569 
L 120.759688 239.883648 
L 121.269833 239.262041 
L 123.225386 237.697189 
L 123.990603 237.469642 
L 124.840844 237.31257 
L 125.265964 237.272019 
L 128.581903 236.597706 
L 128.836975 236.549917 
L 129.77224 236.326067 
L 130.112337 236.316662 
L 130.962577 236.178685 
L 131.302674 236.201667 
L 131.64277 236.180005 
L 131.897842 236.179433 
L 132.237939 236.17132 
L 132.493011 236.18204 
L 132.918131 236.180023 
L 133.173203 236.205471 
L 133.5133 236.233354 
L 133.768372 236.272765 
L 134.108468 236.319028 
L 134.278516 236.371807 
L 134.703637 236.433749 
L 134.873685 236.495115 
L 135.298805 236.575477 
L 135.468853 236.646512 
L 135.978998 236.756763 
L 136.149046 236.839692 
L 136.574166 236.969896 
L 136.744215 237.064655 
L 137.169335 237.220717 
L 137.339383 237.327979 
L 138.359672 237.672627 
L 139.124889 237.969165 
L 140.995418 238.545856 
L 141.760635 238.480055 
L 142.610876 238.17078 
L 143.801213 237.457328 
L 146.947104 235.362748 
L 147.117152 235.309425 
L 148.222465 234.706154 
L 148.477537 234.58716 
L 149.412802 234.164999 
L 150.348067 233.992189 
L 151.283332 233.939332 
L 151.623428 233.924096 
L 152.473669 233.885172 
L 152.728741 233.907234 
L 153.068837 233.931196 
L 153.32391 233.96408 
L 154.259174 233.961132 
L 154.684295 233.98631 
L 155.61956 234.048444 
L 156.129704 234.12613 
L 156.384776 234.198804 
L 157.91521 234.352406 
L 158.170282 234.520585 
L 161.656269 234.85765 
L 163.186703 235.100517 
L 163.526799 235.143691 
L 163.696847 235.1882 
L 165.907473 235.05972 
L 166.077521 235.122194 
L 167.182834 235.144938 
L 167.352882 235.171716 
L 167.778003 235.172263 
L 167.948051 235.211665 
L 169.053364 235.202084 
L 169.818581 235.245104 
L 170.753845 235.445113 
L 171.093942 235.57798 
L 173.644664 235.623066 
L 173.899736 235.65262 
L 174.069784 235.684387 
L 175.770266 235.495998 
L 175.940314 235.519264 
L 177.470747 235.356201 
L 177.895868 235.378808 
L 179.341277 235.37572 
L 179.766398 235.424865 
L 180.616638 235.500303 
L 180.871711 235.500315 
L 181.211807 235.484061 
L 181.381855 235.497769 
L 182.657216 235.311303 
L 183.082337 235.310087 
L 183.252385 235.350205 
L 183.677505 235.380167 
L 183.847553 235.430071 
L 184.867842 235.434494 
L 185.207939 235.546709 
L 186.058179 235.639635 
L 186.398276 235.758442 
L 186.738372 235.876555 
L 186.90842 235.969687 
L 190.819528 236.549142 
L 192.860105 236.437016 
L 193.030154 236.46196 
L 195.325804 235.950844 
L 195.6659 235.92051 
L 195.920972 235.961253 
L 196.09102 236.00864 
L 201.277489 235.20762 
L 203.062995 234.420541 
L 206.889078 232.626813 
L 207.059126 233.510884 
L 207.14415 233.403543 
L 207.484247 233.208207 
L 207.654295 233.986724 
L 207.739319 233.880233 
L 208.079415 233.666773 
L 208.249463 234.349557 
L 208.334487 234.244501 
L 208.674584 234.030693 
L 208.844632 234.657185 
L 208.929656 234.57724 
L 209.354776 234.535832 
L 209.609849 235.273117 
L 209.949945 235.742106 
L 210.375065 237.481079 
L 210.630138 238.824716 
L 212.500667 254.629588 
L 213.095836 260.126214 
L 213.520956 263.465004 
L 214.371197 268.475143 
L 215.05139 270.303556 
L 215.391486 270.570874 
L 215.561534 270.686373 
L 215.731582 270.71499 
L 216.241727 270.366881 
L 217.176991 268.465122 
L 217.34704 268.16247 
L 217.432064 268.105814 
L 217.942208 266.689866 
L 218.027232 266.673169 
L 218.537377 264.767025 
L 218.707425 264.982958 
L 219.132545 263.263687 
L 219.302593 263.928499 
L 219.727714 262.242666 
L 219.897762 263.396047 
L 220.237858 262.254461 
L 220.577955 261.663352 
L 220.833027 261.436065 
L 221.003075 261.531347 
L 221.343171 262.234204 
L 221.598243 263.529322 
L 222.023364 267.721514 
L 223.468773 284.822494 
L 223.808869 286.201895 
L 223.978918 286.407114 
L 224.148966 286.330178 
L 224.404038 285.747284 
L 224.744134 284.275142 
L 225.339303 280.452624 
L 228.485194 258.070053 
L 229.505483 253.071958 
L 230.525772 249.137155 
L 231.54606 246.024343 
L 232.566349 243.547026 
L 233.926735 241.048883 
L 234.266831 240.528252 
L 235.28712 239.116838 
L 236.222385 238.072348 
L 236.732529 237.646208 
L 237.497746 237.075332 
L 237.752818 237.006891 
L 238.688083 236.434419 
L 239.028179 236.323073 
L 239.368276 236.218525 
L 239.538324 236.206283 
L 240.048468 236.071891 
L 240.218516 236.079913 
L 240.643637 236.013295 
L 240.813685 236.028085 
L 241.408853 235.993738 
L 242.259094 235.978208 
L 242.939287 236.08486 
L 243.449431 236.253983 
L 244.214648 236.515195 
L 244.46972 236.698478 
L 245.915129 236.795919 
L 246.170202 236.84953 
L 246.34025 236.902523 
L 247.870683 236.951549 
L 248.125755 237.090787 
L 248.550876 237.115878 
L 248.720924 237.160121 
L 250.336381 237.052574 
L 250.591454 237.196421 
L 252.80208 237.114866 
L 253.057152 237.252711 
L 254.247489 237.180583 
L 254.672609 237.151941 
L 254.842658 237.1709 
L 255.352802 237.101395 
L 255.52285 237.112572 
L 257.733476 236.583865 
L 258.073572 236.530361 
L 258.413669 236.534748 
L 258.583717 236.570929 
L 259.518982 236.508819 
L 259.859078 236.520059 
L 260.454247 236.515863 
L 261.219463 236.513303 
L 262.069704 236.597054 
L 262.239752 236.661563 
L 265.810763 236.688039 
L 266.320908 236.615222 
L 266.490956 236.635286 
L 267.596269 236.471948 
L 267.851341 236.473127 
L 268.191438 236.470779 
L 268.44651 236.488528 
L 268.786606 236.528195 
L 268.956654 236.583212 
L 269.381775 236.610994 
L 269.551823 236.664184 
L 271.082256 236.620683 
L 271.847473 236.755675 
L 272.272593 236.844789 
L 272.442641 236.922907 
L 272.697714 237.002202 
L 275.33346 236.981327 
L 276.268725 236.838741 
L 276.778869 236.86664 
L 277.033942 236.921557 
L 277.969206 237.008195 
L 278.139255 237.073117 
L 278.564375 237.102387 
L 278.734423 237.147625 
L 280.434905 236.988829 
L 280.604953 237.031865 
L 281.625242 237.036206 
L 281.79529 237.090335 
L 283.750844 237.00116 
L 285.706397 236.906765 
L 286.726686 236.560137 
L 288.172096 235.798875 
L 291.403011 234.010886 
L 291.573059 233.99709 
L 294.123781 232.850226 
L 296.674503 232.195106 
L 301.180779 231.259821 
L 301.945996 231.210416 
L 302.796237 231.112165 
L 303.561454 231.054481 
L 303.90155 231.109516 
L 304.32667 231.113076 
L 304.496718 231.15109 
L 304.921839 231.187849 
L 305.091887 231.244268 
L 305.517007 231.320157 
L 305.687056 231.398379 
L 306.112176 231.518578 
L 306.282224 231.620304 
L 306.707344 231.792294 
L 306.877393 231.92135 
L 307.302513 232.03302 
L 307.557585 232.479542 
L 307.897682 232.617883 
L 308.152754 233.101882 
L 308.49285 233.294067 
L 308.747922 233.821035 
L 309.088019 234.072053 
L 309.343091 234.659172 
L 309.683187 235.018718 
L 310.023283 235.838139 
L 310.36338 236.379625 
L 310.703476 237.40389 
L 311.043572 238.352313 
L 311.298645 239.165977 
L 311.638741 240.289411 
L 311.978837 241.472408 
L 312.744054 244.241386 
L 313.169174 245.995191 
L 314.019415 249.084249 
L 314.444535 250.693895 
L 315.889945 255.358687 
L 316.059993 256.131969 
L 316.740186 257.165767 
L 317.335354 257.64065 
L 317.760474 257.951734 
L 318.270619 258.724942 
L 319.035836 259.96245 
L 319.375932 260.192962 
L 319.716028 260.174633 
L 320.056125 259.844104 
L 320.566269 258.915628 
L 321.246462 257.073689 
L 324.477377 247.256791 
L 326.262882 243.397382 
L 327.538243 241.301606 
L 328.983653 239.403252 
L 330.59911 237.660481 
L 333.574953 235.173117 
L 335.445482 234.007546 
L 337.571084 232.947872 
L 339.951759 232.015815 
L 342.672529 231.197207 
L 345.81842 230.486836 
L 349.644503 229.858997 
L 354.320828 229.325695 
L 360.272513 228.882379 
L 368.094728 228.536174 
L 379.147858 228.287406 
L 396.832866 228.137464 
L 436.284038 228.07907 
L 671.545659 228.074899 
L 671.545659 228.074899 
" clip-path="url(#pcdc91bb110)" style="fill: none; stroke: #ff7f0e; stroke-width: 1.5; stroke-linecap: square"/>
   </g>
   <g id="patch_3">
    <path d="M 28.942187 342.2 
L 28.942187 43.44 
" style="fill: none; stroke: #000000; stroke-width: 0.8; stroke-linejoin: miter; stroke-linecap: square"/>
   </g>
   <g id="patch_4">
    <path d="M 702.145824 342.2 
L 702.145824 43.44 
" style="fill: none; stroke: #000000; stroke-width: 0.8; stroke-linejoin: miter; stroke-linecap: square"/>
   </g>
   <g id="patch_5">
    <path d="M 28.942187 342.2 
L 702.145824 342.2 
" style="fill: none; stroke: #000000; stroke-width: 0.8; stroke-linejoin: miter; stroke-linecap: square"/>
   </g>
   <g id="patch_6">
    <path d="M 28.942187 43.44 
L 702.145824 43.44 
" style="fill: none; stroke: #000000; stroke-width: 0.8; stroke-linejoin: miter; stroke-linecap: square"/>
   </g>
   <g id="text_14">
    <!-- 1 transformation(s) -->
    <g transform="translate(307.429318 37.44) scale(0.12 -0.12)">
     <defs>
      <path id="DejaVuSans-20" transform="scale(0.015625)"/>
      <path id="DejaVuSans-74" d="M 1172 4494 
L 1172 3500 
L 2356 3500 
L 2356 3053 
L 1172 3053 
L 1172 1153 
Q 1172 725 1289 603 
Q 1406 481 1766 481 
L 2356 481 
L 2356 0 
L 1766 0 
Q 1100 0 847 248 
Q 594 497 594 1153 
L 594 3053 
L 172 3053 
L 172 3500 
L 594 3500 
L 594 4494 
L 1172 4494 
z
" transform="scale(0.015625)"/>
      <path id="DejaVuSans-72" d="M 2631 2963 
Q 2534 3019 2420 3045 
Q 2306 3072 2169 3072 
Q 1681 3072 1420 2755 
Q 1159 2438 1159 1844 
L 1159 0 
L 581 0 
L 581 3500 
L 1159 3500 
L 1159 2956 
Q 1341 3275 1631 3429 
Q 1922 3584 2338 3584 
Q 2397 3584 2469 3576 
Q 2541 3569 2628 3553 
L 2631 2963 
z
" transform="scale(0.015625)"/>
      <path id="DejaVuSans-61" d="M 2194 1759 
Q 1497 1759 1228 1600 
Q 959 1441 959 1056 
Q 959 750 1161 570 
Q 1363 391 1709 391 
Q 2188 391 2477 730 
Q 2766 1069 2766 1631 
L 2766 1759 
L 2194 1759 
z
M 3341 1997 
L 3341 0 
L 2766 0 
L 2766 531 
Q 2569 213 2275 61 
Q 1981 -91 1556 -91 
Q 1019 -91 701 211 
Q 384 513 384 1019 
Q 384 1609 779 1909 
Q 1175 2209 1959 2209 
L 2766 2209 
L 2766 2266 
Q 2766 2663 2505 2880 
Q 2244 3097 1772 3097 
Q 1472 3097 1187 3025 
Q 903 2953 641 2809 
L 641 3341 
Q 956 3463 1253 3523 
Q 1550 3584 1831 3584 
Q 2591 3584 2966 3190 
Q 3341 2797 3341 1997 
z
" transform="scale(0.015625)"/>
      <path id="DejaVuSans-6e" d="M 3513 2113 
L 3513 0 
L 2938 0 
L 2938 2094 
Q 2938 2591 2744 2837 
Q 2550 3084 2163 3084 
Q 1697 3084 1428 2787 
Q 1159 2491 1159 1978 
L 1159 0 
L 581 0 
L 581 3500 
L 1159 3500 
L 1159 2956 
Q 1366 3272 1645 3428 
Q 1925 3584 2291 3584 
Q 2894 3584 3203 3211 
Q 3513 2838 3513 2113 
z
" transform="scale(0.015625)"/>
      <path id="DejaVuSans-73" d="M 2834 3397 
L 2834 2853 
Q 2591 2978 2328 3040 
Q 2066 3103 1784 3103 
Q 1356 3103 1142 2972 
Q 928 2841 928 2578 
Q 928 2378 1081 2264 
Q 1234 2150 1697 2047 
L 1894 2003 
Q 2506 1872 2764 1633 
Q 3022 1394 3022 966 
Q 3022 478 2636 193 
Q 2250 -91 1575 -91 
Q 1294 -91 989 -36 
Q 684 19 347 128 
L 347 722 
Q 666 556 975 473 
Q 1284 391 1588 391 
Q 1994 391 2212 530 
Q 2431 669 2431 922 
Q 2431 1156 2273 1281 
Q 2116 1406 1581 1522 
L 1381 1569 
Q 847 1681 609 1914 
Q 372 2147 372 2553 
Q 372 3047 722 3315 
Q 1072 3584 1716 3584 
Q 2034 3584 2315 3537 
Q 2597 3491 2834 3397 
z
" transform="scale(0.015625)"/>
      <path id="DejaVuSans-66" d="M 2375 4863 
L 2375 4384 
L 1825 4384 
Q 1516 4384 1395 4259 
Q 1275 4134 1275 3809 
L 1275 3500 
L 2222 3500 
L 2222 3053 
L 1275 3053 
L 1275 0 
L 697 0 
L 697 3053 
L 147 3053 
L 147 3500 
L 697 3500 
L 697 3744 
Q 697 4328 969 4595 
Q 1241 4863 1831 4863 
L 2375 4863 
z
" transform="scale(0.015625)"/>
      <path id="DejaVuSans-6f" d="M 1959 3097 
Q 1497 3097 1228 2736 
Q 959 2375 959 1747 
Q 959 1119 1226 758 
Q 1494 397 1959 397 
Q 2419 397 2687 759 
Q 2956 1122 2956 1747 
Q 2956 2369 2687 2733 
Q 2419 3097 1959 3097 
z
M 1959 3584 
Q 2709 3584 3137 3096 
Q 3566 2609 3566 1747 
Q 3566 888 3137 398 
Q 2709 -91 1959 -91 
Q 1206 -91 779 398 
Q 353 888 353 1747 
Q 353 2609 779 3096 
Q 1206 3584 1959 3584 
z
" transform="scale(0.015625)"/>
      <path id="DejaVuSans-6d" d="M 3328 2828 
Q 3544 3216 3844 3400 
Q 4144 3584 4550 3584 
Q 5097 3584 5394 3201 
Q 5691 2819 5691 2113 
L 5691 0 
L 5113 0 
L 5113 2094 
Q 5113 2597 4934 2840 
Q 4756 3084 4391 3084 
Q 3944 3084 3684 2787 
Q 3425 2491 3425 1978 
L 3425 0 
L 2847 0 
L 2847 2094 
Q 2847 2600 2669 2842 
Q 2491 3084 2119 3084 
Q 1678 3084 1418 2786 
Q 1159 2488 1159 1978 
L 1159 0 
L 581 0 
L 581 3500 
L 1159 3500 
L 1159 2956 
Q 1356 3278 1631 3431 
Q 1906 3584 2284 3584 
Q 2666 3584 2933 3390 
Q 3200 3197 3328 2828 
z
" transform="scale(0.015625)"/>
      <path id="DejaVuSans-69" d="M 603 3500 
L 1178 3500 
L 1178 0 
L 603 0 
L 603 3500 
z
M 603 4863 
L 1178 4863 
L 1178 4134 
L 603 4134 
L 603 4863 
z
" transform="scale(0.015625)"/>
      <path id="DejaVuSans-28" d="M 1984 4856 
Q 1566 4138 1362 3434 
Q 1159 2731 1159 2009 
Q 1159 1288 1364 580 
Q 1569 -128 1984 -844 
L 1484 -844 
Q 1016 -109 783 600 
Q 550 1309 550 2009 
Q 550 2706 781 3412 
Q 1013 4119 1484 4856 
L 1984 4856 
z
" transform="scale(0.015625)"/>
      <path id="DejaVuSans-29" d="M 513 4856 
L 1013 4856 
Q 1481 4119 1714 3412 
Q 1947 2706 1947 2009 
Q 1947 1309 1714 600 
Q 1481 -109 1013 -844 
L 513 -844 
Q 928 -128 1133 580 
Q 1338 1288 1338 2009 
Q 1338 2731 1133 3434 
Q 928 4138 513 4856 
z
" transform="scale(0.015625)"/>
     </defs>
     <use xlink:href="#DejaVuSans-31"/>
     <use xlink:href="#DejaVuSans-20" x="63.623047"/>
     <use xlink:href="#DejaVuSans-74" x="95.410156"/>
     <use xlink:href="#DejaVuSans-72" x="134.619141"/>
     <use xlink:href="#DejaVuSans-61" x="175.732422"/>
     <use xlink:href="#DejaVuSans-6e" x="237.011719"/>
     <use xlink:href="#DejaVuSans-73" x="300.390625"/>
     <use xlink:href="#DejaVuSans-66" x="352.490234"/>
     <use xlink:href="#DejaVuSans-6f" x="387.695312"/>
     <use xlink:href="#DejaVuSans-72" x="448.876953"/>
     <use xlink:href="#DejaVuSans-6d" x="488.240234"/>
     <use xlink:href="#DejaVuSans-61" x="585.652344"/>
     <use xlink:href="#DejaVuSans-74" x="646.931641"/>
     <use xlink:href="#DejaVuSans-69" x="686.140625"/>
     <use xlink:href="#DejaVuSans-6f" x="713.923828"/>
     <use xlink:href="#DejaVuSans-6e" x="775.105469"/>
     <use xlink:href="#DejaVuSans-28" x="838.484375"/>
     <use xlink:href="#DejaVuSans-73" x="877.498047"/>
     <use xlink:href="#DejaVuSans-29" x="929.597656"/>
    </g>
   </g>
   <g id="legend_1">
    <g id="patch_7">
     <path d="M 613.752074 80.79625 
L 695.145824 80.79625 
Q 697.145824 80.79625 697.145824 78.79625 
L 697.145824 50.44 
Q 697.145824 48.44 695.145824 48.44 
L 613.752074 48.44 
Q 611.752074 48.44 611.752074 50.44 
L 611.752074 78.79625 
Q 611.752074 80.79625 613.752074 80.79625 
z
" style="fill: #ffffff; opacity: 0.8; stroke: #cccccc; stroke-linejoin: miter"/>
    </g>
    <g id="line2d_16">
     <path d="M 615.752074 56.538437 
L 625.752074 56.538437 
L 635.752074 56.538437 
" style="fill: none; stroke: #1f77b4; stroke-width: 1.5; stroke-linecap: square"/>
    </g>
    <g id="text_15">
     <!-- observed -->
     <g transform="translate(643.752074 60.038437) scale(0.1 -0.1)">
      <defs>
       <path id="DejaVuSans-62" d="M 3116 1747 
Q 3116 2381 2855 2742 
Q 2594 3103 2138 3103 
Q 1681 3103 1420 2742 
Q 1159 2381 1159 1747 
Q 1159 1113 1420 752 
Q 1681 391 2138 391 
Q 2594 391 2855 752 
Q 3116 1113 3116 1747 
z
M 1159 2969 
Q 1341 3281 1617 3432 
Q 1894 3584 2278 3584 
Q 2916 3584 3314 3078 
Q 3713 2572 3713 1747 
Q 3713 922 3314 415 
Q 2916 -91 2278 -91 
Q 1894 -91 1617 61 
Q 1341 213 1159 525 
L 1159 0 
L 581 0 
L 581 4863 
L 1159 4863 
L 1159 2969 
z
" transform="scale(0.015625)"/>
       <path id="DejaVuSans-65" d="M 3597 1894 
L 3597 1613 
L 953 1613 
Q 991 1019 1311 708 
Q 1631 397 2203 397 
Q 2534 397 2845 478 
Q 3156 559 3463 722 
L 3463 178 
Q 3153 47 2828 -22 
Q 2503 -91 2169 -91 
Q 1331 -91 842 396 
Q 353 884 353 1716 
Q 353 2575 817 3079 
Q 1281 3584 2069 3584 
Q 2775 3584 3186 3129 
Q 3597 2675 3597 1894 
z
M 3022 2063 
Q 3016 2534 2758 2815 
Q 2500 3097 2075 3097 
Q 1594 3097 1305 2825 
Q 1016 2553 972 2059 
L 3022 2063 
z
" transform="scale(0.015625)"/>
       <path id="DejaVuSans-76" d="M 191 3500 
L 800 3500 
L 1894 563 
L 2988 3500 
L 3597 3500 
L 2284 0 
L 1503 0 
L 191 3500 
z
" transform="scale(0.015625)"/>
       <path id="DejaVuSans-64" d="M 2906 2969 
L 2906 4863 
L 3481 4863 
L 3481 0 
L 2906 0 
L 2906 525 
Q 2725 213 2448 61 
Q 2172 -91 1784 -91 
Q 1150 -91 751 415 
Q 353 922 353 1747 
Q 353 2572 751 3078 
Q 1150 3584 1784 3584 
Q 2172 3584 2448 3432 
Q 2725 3281 2906 2969 
z
M 947 1747 
Q 947 1113 1208 752 
Q 1469 391 1925 391 
Q 2381 391 2643 752 
Q 2906 1113 2906 1747 
Q 2906 2381 2643 2742 
Q 2381 3103 1925 3103 
Q 1469 3103 1208 2742 
Q 947 2381 947 1747 
z
" transform="scale(0.015625)"/>
      </defs>
      <use xlink:href="#DejaVuSans-6f"/>
      <use xlink:href="#DejaVuSans-62" x="61.181641"/>
      <use xlink:href="#DejaVuSans-73" x="124.658203"/>
      <use xlink:href="#DejaVuSans-65" x="176.757812"/>
      <use xlink:href="#DejaVuSans-72" x="238.28125"/>
      <use xlink:href="#DejaVuSans-76" x="279.394531"/>
      <use xlink:href="#DejaVuSans-65" x="338.574219"/>
      <use xlink:href="#DejaVuSans-64" x="400.097656"/>
     </g>
    </g>
    <g id="line2d_17">
     <path d="M 615.752074 71.216563 
L 625.752074 71.216563 
L 635.752074 71.216563 
" style="fill: none; stroke: #ff7f0e; stroke-width: 1.5; stroke-linecap: square"/>
    </g>
    <g id="text_16">
     <!-- simulated -->
     <g transform="translate(643.752074 74.716563) scale(0.1 -0.1)">
      <defs>
       <path id="DejaVuSans-75" d="M 544 1381 
L 544 3500 
L 1119 3500 
L 1119 1403 
Q 1119 906 1312 657 
Q 1506 409 1894 409 
Q 2359 409 2629 706 
Q 2900 1003 2900 1516 
L 2900 3500 
L 3475 3500 
L 3475 0 
L 2900 0 
L 2900 538 
Q 2691 219 2414 64 
Q 2138 -91 1772 -91 
Q 1169 -91 856 284 
Q 544 659 544 1381 
z
M 1991 3584 
L 1991 3584 
z
" transform="scale(0.015625)"/>
       <path id="DejaVuSans-6c" d="M 603 4863 
L 1178 4863 
L 1178 0 
L 603 0 
L 603 4863 
z
" transform="scale(0.015625)"/>
      </defs>
      <use xlink:href="#DejaVuSans-73"/>
      <use xlink:href="#DejaVuSans-69" x="52.099609"/>
      <use xlink:href="#DejaVuSans-6d" x="79.882812"/>
      <use xlink:href="#DejaVuSans-75" x="177.294922"/>
      <use xlink:href="#DejaVuSans-6c" x="240.673828"/>
      <use xlink:href="#DejaVuSans-61" x="268.457031"/>
      <use xlink:href="#DejaVuSans-74" x="329.736328"/>
      <use xlink:href="#DejaVuSans-65" x="368.945312"/>
      <use xlink:href="#DejaVuSans-64" x="430.46875"/>
     </g>
    </g>
   </g>
  </g>
  <g id="axes_2">
   <g id="patch_8">
    <path d="M 28.942187 684.92 
L 702.145824 684.92 
L 702.145824 386.16 
L 28.942187 386.16 
z
" style="fill: #ffffff"/>
   </g>
   <g id="matplotlib.axis_3">
    <g id="xtick_7">
     <g id="line2d_18">
      <g>
       <use xlink:href="#ma437d8d547" x="59.372305" y="684.92" style="stroke: #000000; stroke-width: 0.8"/>
      </g>
     </g>
     <g id="text_17">
      <!-- 2014-07-01 -->
      <g transform="translate(30.314492 699.518437) scale(0.1 -0.1)">
       <use xlink:href="#DejaVuSans-32"/>
       <use xlink:href="#DejaVuSans-30" x="63.623047"/>
       <use xlink:href="#DejaVuSans-31" x="127.246094"/>
       <use xlink:href="#DejaVuSans-34" x="190.869141"/>
       <use xlink:href="#DejaVuSans-2d" x="254.492188"/>
       <use xlink:href="#DejaVuSans-30" x="290.576172"/>
       <use xlink:href="#DejaVuSans-37" x="354.199219"/>
       <use xlink:href="#DejaVuSans-2d" x="417.822266"/>
       <use xlink:href="#DejaVuSans-30" x="453.90625"/>
       <use xlink:href="#DejaVuSans-31" x="517.529297"/>
      </g>
     </g>
    </g>
    <g id="xtick_8">
     <g id="line2d_19">
      <g>
       <use xlink:href="#ma437d8d547" x="181.806975" y="684.92" style="stroke: #000000; stroke-width: 0.8"/>
      </g>
     </g>
     <g id="text_18">
      <!-- 2014-07-02 -->
      <g transform="translate(152.749163 699.518437) scale(0.1 -0.1)">
       <use xlink:href="#DejaVuSans-32"/>
       <use xlink:href="#DejaVuSans-30" x="63.623047"/>
       <use xlink:href="#DejaVuSans-31" x="127.246094"/>
       <use xlink:href="#DejaVuSans-34" x="190.869141"/>
       <use xlink:href="#DejaVuSans-2d" x="254.492188"/>
       <use xlink:href="#DejaVuSans-30" x="290.576172"/>
       <use xlink:href="#DejaVuSans-37" x="354.199219"/>
       <use xlink:href="#DejaVuSans-2d" x="417.822266"/>
       <use xlink:href="#DejaVuSans-30" x="453.90625"/>
       <use xlink:href="#DejaVuSans-32" x="517.529297"/>
      </g>
     </g>
    </g>
    <g id="xtick_9">
     <g id="line2d_20">
      <g>
       <use xlink:href="#ma437d8d547" x="304.241646" y="684.92" style="stroke: #000000; stroke-width: 0.8"/>
      </g>
     </g>
     <g id="text_19">
      <!-- 2014-07-03 -->
      <g transform="translate(275.183834 699.518437) scale(0.1 -0.1)">
       <use xlink:href="#DejaVuSans-32"/>
       <use xlink:href="#DejaVuSans-30" x="63.623047"/>
       <use xlink:href="#DejaVuSans-31" x="127.246094"/>
       <use xlink:href="#DejaVuSans-34" x="190.869141"/>
       <use xlink:href="#DejaVuSans-2d" x="254.492188"/>
       <use xlink:href="#DejaVuSans-30" x="290.576172"/>
       <use xlink:href="#DejaVuSans-37" x="354.199219"/>
       <use xlink:href="#DejaVuSans-2d" x="417.822266"/>
       <use xlink:href="#DejaVuSans-30" x="453.90625"/>
       <use xlink:href="#DejaVuSans-33" x="517.529297"/>
      </g>
     </g>
    </g>
    <g id="xtick_10">
     <g id="line2d_21">
      <g>
       <use xlink:href="#ma437d8d547" x="426.676317" y="684.92" style="stroke: #000000; stroke-width: 0.8"/>
      </g>
     </g>
     <g id="text_20">
      <!-- 2014-07-04 -->
      <g transform="translate(397.618504 699.518437) scale(0.1 -0.1)">
       <use xlink:href="#DejaVuSans-32"/>
       <use xlink:href="#DejaVuSans-30" x="63.623047"/>
       <use xlink:href="#DejaVuSans-31" x="127.246094"/>
       <use xlink:href="#DejaVuSans-34" x="190.869141"/>
       <use xlink:href="#DejaVuSans-2d" x="254.492188"/>
       <use xlink:href="#DejaVuSans-30" x="290.576172"/>
       <use xlink:href="#DejaVuSans-37" x="354.199219"/>
       <use xlink:href="#DejaVuSans-2d" x="417.822266"/>
       <use xlink:href="#DejaVuSans-30" x="453.90625"/>
       <use xlink:href="#DejaVuSans-34" x="517.529297"/>
      </g>
     </g>
    </g>
    <g id="xtick_11">
     <g id="line2d_22">
      <g>
       <use xlink:href="#ma437d8d547" x="549.110988" y="684.92" style="stroke: #000000; stroke-width: 0.8"/>
      </g>
     </g>
     <g id="text_21">
      <!-- 2014-07-05 -->
      <g transform="translate(520.053175 699.518437) scale(0.1 -0.1)">
       <use xlink:href="#DejaVuSans-32"/>
       <use xlink:href="#DejaVuSans-30" x="63.623047"/>
       <use xlink:href="#DejaVuSans-31" x="127.246094"/>
       <use xlink:href="#DejaVuSans-34" x="190.869141"/>
       <use xlink:href="#DejaVuSans-2d" x="254.492188"/>
       <use xlink:href="#DejaVuSans-30" x="290.576172"/>
       <use xlink:href="#DejaVuSans-37" x="354.199219"/>
       <use xlink:href="#DejaVuSans-2d" x="417.822266"/>
       <use xlink:href="#DejaVuSans-30" x="453.90625"/>
       <use xlink:href="#DejaVuSans-35" x="517.529297"/>
      </g>
     </g>
    </g>
    <g id="xtick_12">
     <g id="line2d_23">
      <g>
       <use xlink:href="#ma437d8d547" x="671.545659" y="684.92" style="stroke: #000000; stroke-width: 0.8"/>
      </g>
     </g>
     <g id="text_22">
      <!-- 2014-07-06 -->
      <g transform="translate(642.487846 699.518437) scale(0.1 -0.1)">
       <use xlink:href="#DejaVuSans-32"/>
       <use xlink:href="#DejaVuSans-30" x="63.623047"/>
       <use xlink:href="#DejaVuSans-31" x="127.246094"/>
       <use xlink:href="#DejaVuSans-34" x="190.869141"/>
       <use xlink:href="#DejaVuSans-2d" x="254.492188"/>
       <use xlink:href="#DejaVuSans-30" x="290.576172"/>
       <use xlink:href="#DejaVuSans-37" x="354.199219"/>
       <use xlink:href="#DejaVuSans-2d" x="417.822266"/>
       <use xlink:href="#DejaVuSans-30" x="453.90625"/>
       <use xlink:href="#DejaVuSans-36" x="517.529297"/>
      </g>
     </g>
    </g>
   </g>
   <g id="matplotlib.axis_4">
    <g id="ytick_8">
     <g id="line2d_24">
      <g>
       <use xlink:href="#mb2b20b5e57" x="28.942187" y="662.529579" style="stroke: #000000; stroke-width: 0.8"/>
      </g>
     </g>
     <g id="text_23">
      <!-- −3 -->
      <g transform="translate(7.2 666.328798) scale(0.1 -0.1)">
       <use xlink:href="#DejaVuSans-2212"/>
       <use xlink:href="#DejaVuSans-33" x="83.789062"/>
      </g>
     </g>
    </g>
    <g id="ytick_9">
     <g id="line2d_25">
      <g>
       <use xlink:href="#mb2b20b5e57" x="28.942187" y="625.646402" style="stroke: #000000; stroke-width: 0.8"/>
      </g>
     </g>
     <g id="text_24">
      <!-- −2 -->
      <g transform="translate(7.2 629.44562) scale(0.1 -0.1)">
       <use xlink:href="#DejaVuSans-2212"/>
       <use xlink:href="#DejaVuSans-32" x="83.789062"/>
      </g>
     </g>
    </g>
    <g id="ytick_10">
     <g id="line2d_26">
      <g>
       <use xlink:href="#mb2b20b5e57" x="28.942187" y="588.763224" style="stroke: #000000; stroke-width: 0.8"/>
      </g>
     </g>
     <g id="text_25">
      <!-- −1 -->
      <g transform="translate(7.2 592.562443) scale(0.1 -0.1)">
       <use xlink:href="#DejaVuSans-2212"/>
       <use xlink:href="#DejaVuSans-31" x="83.789062"/>
      </g>
     </g>
    </g>
    <g id="ytick_11">
     <g id="line2d_27">
      <g>
       <use xlink:href="#mb2b20b5e57" x="28.942187" y="551.880047" style="stroke: #000000; stroke-width: 0.8"/>
      </g>
     </g>
     <g id="text_26">
      <!-- 0 -->
      <g transform="translate(15.579687 555.679265) scale(0.1 -0.1)">
       <use xlink:href="#DejaVuSans-30"/>
      </g>
     </g>
    </g>
    <g id="ytick_12">
     <g id="line2d_28">
      <g>
       <use xlink:href="#mb2b20b5e57" x="28.942187" y="514.996869" style="stroke: #000000; stroke-width: 0.8"/>
      </g>
     </g>
     <g id="text_27">
      <!-- 1 -->
      <g transform="translate(15.579687 518.796088) scale(0.1 -0.1)">
       <use xlink:href="#DejaVuSans-31"/>
      </g>
     </g>
    </g>
    <g id="ytick_13">
     <g id="line2d_29">
      <g>
       <use xlink:href="#mb2b20b5e57" x="28.942187" y="478.113692" style="stroke: #000000; stroke-width: 0.8"/>
      </g>
     </g>
     <g id="text_28">
      <!-- 2 -->
      <g transform="translate(15.579687 481.912911) scale(0.1 -0.1)">
       <use xlink:href="#DejaVuSans-32"/>
      </g>
     </g>
    </g>
    <g id="ytick_14">
     <g id="line2d_30">
      <g>
       <use xlink:href="#mb2b20b5e57" x="28.942187" y="441.230514" style="stroke: #000000; stroke-width: 0.8"/>
      </g>
     </g>
     <g id="text_29">
      <!-- 3 -->
      <g transform="translate(15.579687 445.029733) scale(0.1 -0.1)">
       <use xlink:href="#DejaVuSans-33"/>
      </g>
     </g>
    </g>
    <g id="ytick_15">
     <g id="line2d_31">
      <g>
       <use xlink:href="#mb2b20b5e57" x="28.942187" y="404.347337" style="stroke: #000000; stroke-width: 0.8"/>
      </g>
     </g>
     <g id="text_30">
      <!-- 4 -->
      <g transform="translate(15.579687 408.146556) scale(0.1 -0.1)">
       <use xlink:href="#DejaVuSans-34"/>
      </g>
     </g>
    </g>
   </g>
   <g id="line2d_32">
    <path d="M 59.542353 551.880047 
L 60.477618 551.743395 
L 61.838003 551.267463 
L 63.113364 550.507343 
L 63.963605 549.858779 
L 65.409014 548.360584 
L 66.089207 547.619375 
L 67.024472 547.034498 
L 67.704664 546.849171 
L 68.469881 546.926718 
L 70.255386 547.490451 
L 72.21094 547.964359 
L 73.061181 547.969651 
L 73.65635 547.755682 
L 74.166494 547.327215 
L 74.761663 546.560352 
L 75.696927 545.260174 
L 76.207072 543.942396 
L 76.717216 541.164485 
L 77.737505 534.686506 
L 78.077602 533.820608 
L 78.332674 532.438716 
L 78.587746 532.063509 
L 78.927842 530.419251 
L 79.182915 530.294454 
L 79.523011 528.796839 
L 79.693059 528.926053 
L 79.778083 528.619172 
L 80.118179 525.661348 
L 80.203203 525.638955 
L 80.288228 525.749497 
L 80.373252 525.453222 
L 80.713348 523.134123 
L 80.883396 523.772376 
L 80.96842 524.251438 
L 81.053444 524.223206 
L 81.308516 522.606872 
L 81.393541 522.667669 
L 81.563589 523.381402 
L 81.648613 523.272761 
L 81.903685 521.743581 
L 81.988709 521.849806 
L 82.158757 522.657314 
L 82.243781 522.620654 
L 82.498854 521.191987 
L 82.583878 521.341613 
L 82.753926 522.26316 
L 82.83895 522.2455 
L 83.094022 520.912895 
L 83.179046 521.093096 
L 83.434118 522.036062 
L 83.689191 520.754449 
L 83.859239 521.403434 
L 84.114311 522.787476 
L 84.369383 521.534904 
L 84.454407 521.668545 
L 84.624455 522.548522 
L 84.70948 522.514992 
L 84.964552 521.080739 
L 85.1346 521.573888 
L 85.219624 522.081943 
L 85.304648 522.053974 
L 85.55972 520.675524 
L 85.644744 520.832776 
L 85.814793 521.758906 
L 85.899817 521.738393 
L 86.154889 520.451372 
L 86.324937 521.109213 
L 86.494985 521.769245 
L 86.750057 521.086749 
L 86.920106 521.844066 
L 87.175178 523.467782 
L 87.43025 523.330823 
L 88.025419 524.912279 
L 88.280491 525.560168 
L 88.365515 523.304093 
L 88.620587 512.015097 
L 88.705611 511.666254 
L 88.960683 513.447404 
L 89.215756 516.223911 
L 89.980972 525.981585 
L 90.491117 530.233343 
L 91.086285 533.478232 
L 91.766478 535.739104 
L 91.851502 535.946008 
L 91.936526 535.392608 
L 92.106574 519.961232 
L 92.276622 504.055675 
L 92.446671 505.557698 
L 92.531695 503.694002 
L 92.871791 482.795788 
L 92.956815 480.622001 
L 93.041839 481.834551 
L 93.211887 486.531772 
L 93.551984 474.648076 
L 93.637008 474.819922 
L 93.807056 479.220032 
L 94.147152 471.396533 
L 94.402224 476.63739 
L 95.082417 456.084634 
L 95.422513 435.176915 
L 95.677585 424.915191 
L 96.017682 412.050341 
L 96.18773 411.723315 
L 96.272754 410.262639 
L 96.527826 400.147796 
L 96.61285 399.74 
L 96.697874 400.624305 
L 96.867923 404.463941 
L 97.037971 402.401059 
L 97.122995 403.040814 
L 97.463091 412.551279 
L 97.633139 411.93875 
L 97.803187 415.158821 
L 98.05826 421.048437 
L 98.228308 421.098719 
L 98.48338 426.257241 
L 98.738452 429.907751 
L 98.823476 430.122553 
L 99.078549 435.269468 
L 99.418645 441.101283 
L 99.588693 442.711406 
L 100.013813 449.643622 
L 100.183862 451.243105 
L 100.608982 458.760045 
L 100.694006 458.395531 
L 100.77903 458.493545 
L 100.949078 460.656533 
L 101.289175 464.080361 
L 101.544247 466.697584 
L 101.799319 469.150639 
L 101.969367 469.961386 
L 102.479512 475.181366 
L 102.564536 475.096631 
L 102.64956 475.35884 
L 102.989656 479.023195 
L 103.07468 478.903826 
L 103.244728 478.156301 
L 103.414776 479.546571 
L 103.584825 480.870844 
L 103.839897 477.020538 
L 103.924921 477.267577 
L 104.094969 478.676093 
L 104.179993 478.160553 
L 104.520089 468.581058 
L 104.605114 468.739748 
L 104.690138 469.163724 
L 104.775162 467.387392 
L 105.115258 445.496641 
L 105.200282 444.345475 
L 105.37033 447.203688 
L 105.540378 449.534678 
L 105.625402 449.151038 
L 105.795451 446.244161 
L 105.965499 443.215809 
L 106.135547 444.20701 
L 106.305595 445.272034 
L 106.475643 447.730435 
L 107.836028 474.304289 
L 109.96163 501.469885 
L 110.811871 508.640808 
L 111.577088 513.749563 
L 112.597377 518.814718 
L 113.277569 521.416388 
L 114.12781 523.921279 
L 115.488195 526.605566 
L 116.508484 527.941737 
L 117.358725 528.671945 
L 118.71911 529.445921 
L 119.739399 529.743476 
L 120.759688 529.82904 
L 120.844712 529.606823 
L 121.01476 528.044823 
L 121.269833 525.694941 
L 121.524905 525.155744 
L 121.694953 525.141453 
L 122.715242 525.787239 
L 123.055338 525.823819 
L 123.31041 525.883303 
L 123.650507 525.850664 
L 124.160651 525.94811 
L 124.500748 526.110825 
L 125.095916 526.432464 
L 127.731662 527.796565 
L 127.986735 527.811915 
L 128.241807 527.883761 
L 128.581903 527.824032 
L 128.836975 527.863964 
L 129.177072 527.760058 
L 129.432144 527.772994 
L 129.77224 527.615729 
L 130.112337 527.71513 
L 130.452433 527.537887 
L 130.622481 527.552337 
L 131.132626 527.251894 
L 131.302674 527.15115 
L 131.557746 526.873484 
L 131.897842 526.781811 
L 132.152914 526.468359 
L 132.493011 526.357777 
L 132.748083 526.013212 
L 133.003155 526.107622 
L 133.173203 526.01898 
L 133.428276 525.684541 
L 133.683348 525.651545 
L 134.108468 525.118235 
L 134.278516 525.095765 
L 134.703637 524.544811 
L 134.873685 524.52022 
L 135.298805 523.942108 
L 135.468853 523.917603 
L 135.893974 523.303178 
L 136.149046 523.425757 
L 136.574166 522.814435 
L 136.744215 522.770051 
L 137.084311 522.06374 
L 137.339383 522.040065 
L 137.679479 521.320346 
L 138.274648 521.553628 
L 139.379961 523.159297 
L 140.145178 524.615817 
L 141.335515 527.420281 
L 142.525852 530.127353 
L 143.546141 531.972163 
L 145.671743 535.117317 
L 146.436959 535.734266 
L 146.777056 535.796356 
L 147.117152 535.616949 
L 147.2872 535.29076 
L 148.137441 532.796483 
L 148.817634 531.954134 
L 149.072706 531.998478 
L 149.497826 532.461661 
L 149.837922 532.693375 
L 150.348067 532.844371 
L 150.688163 532.777058 
L 150.943235 532.683507 
L 151.198308 532.556149 
L 151.623428 532.545288 
L 151.963524 532.452711 
L 152.388645 532.747129 
L 152.643717 532.969482 
L 152.813765 532.854213 
L 153.153861 532.545607 
L 153.32391 532.32395 
L 153.664006 531.624316 
L 153.919078 531.364149 
L 154.259174 530.914038 
L 155.61956 531.241021 
L 156.384776 531.888461 
L 156.809897 531.309207 
L 157.064969 531.394615 
L 157.745162 531.914974 
L 158.255306 531.518632 
L 158.680426 530.304657 
L 159.105547 529.985659 
L 159.360619 530.062063 
L 160.380908 529.203964 
L 160.806028 529.367968 
L 161.486221 529.780897 
L 162.166414 530.318514 
L 162.421486 530.484832 
L 162.591534 530.307746 
L 162.93163 529.903417 
L 163.356751 529.875679 
L 163.696847 530.114475 
L 163.866895 529.82463 
L 164.121967 529.364185 
L 164.37704 529.343546 
L 164.632112 529.506582 
L 165.737425 530.615613 
L 166.077521 530.655457 
L 166.332593 529.894676 
L 166.587666 529.374585 
L 166.842738 529.170696 
L 167.09781 528.866966 
L 167.352882 528.832904 
L 168.458195 527.087442 
L 168.713268 527.328687 
L 169.223412 527.910348 
L 169.648532 527.796101 
L 170.073653 528.119905 
L 170.498773 528.446797 
L 170.923894 528.316794 
L 171.093942 528.254039 
L 171.434038 528.014957 
L 171.774134 528.27413 
L 172.284279 528.994975 
L 172.964471 529.881338 
L 174.154808 529.859046 
L 174.494905 529.286084 
L 174.664953 529.293921 
L 174.920025 529.554052 
L 175.260121 529.998458 
L 175.43017 529.847311 
L 175.685242 529.546754 
L 175.940314 529.488555 
L 176.875579 528.137338 
L 177.045627 528.145945 
L 177.470747 528.540568 
L 177.810844 528.843727 
L 178.235964 528.847752 
L 178.831133 529.208924 
L 180.02147 530.334775 
L 180.191518 530.393939 
L 180.361566 530.223732 
L 180.616638 529.920193 
L 180.871711 529.767388 
L 181.211807 529.435738 
L 181.381855 529.403675 
L 181.892 528.773463 
L 182.74224 529.288669 
L 183.337409 528.804428 
L 183.677505 528.056661 
L 183.847553 527.88063 
L 184.357698 526.861241 
L 184.61277 526.688178 
L 184.782818 526.63734 
L 185.207939 526.748256 
L 185.548035 526.307972 
L 186.90842 526.38719 
L 187.418565 525.584946 
L 187.758661 525.892528 
L 188.353829 526.640794 
L 188.608902 526.752992 
L 188.863974 526.890157 
L 189.20407 526.933153 
L 189.544166 527.103957 
L 189.799239 527.231113 
L 190.224359 527.854012 
L 190.649479 528.418748 
L 191.0746 528.366344 
L 191.584744 528.907582 
L 192.520009 530.097064 
L 193.115178 529.113243 
L 193.455274 528.157526 
L 193.625322 528.155 
L 193.880394 528.429711 
L 194.475563 529.226287 
L 195.070731 529.356053 
L 195.325804 529.294543 
L 195.6659 529.279075 
L 195.920972 529.26623 
L 196.09102 529.22395 
L 196.771213 527.903944 
L 197.026285 527.777698 
L 197.281357 528.018853 
L 201.362513 533.911628 
L 202.382802 535.00476 
L 203.488115 535.844992 
L 204.763476 536.547976 
L 206.208886 537.085891 
L 207.059126 537.242968 
L 207.14415 536.703926 
L 207.314199 531.426531 
L 207.569271 523.843165 
L 207.654295 523.020032 
L 207.824343 516.60437 
L 207.994391 511.405267 
L 208.079415 511.002466 
L 208.249463 511.528365 
L 208.58956 505.916681 
L 208.844632 507.774556 
L 209.184728 502.843477 
L 209.269752 502.935049 
L 209.4398 502.998087 
L 209.524825 502.539727 
L 209.949945 496.14938 
L 210.034969 496.150668 
L 210.119993 495.826293 
L 210.460089 491.544281 
L 210.715162 491.974645 
L 210.970234 489.179426 
L 211.055258 489.200368 
L 211.31033 489.926322 
L 211.565402 487.936789 
L 211.650426 488.059359 
L 211.905499 489.082903 
L 212.160571 487.870269 
L 212.330619 488.578684 
L 212.670715 490.298728 
L 212.840764 489.990533 
L 213.010812 490.816642 
L 213.265884 492.206125 
L 213.350908 492.119802 
L 213.435932 492.230655 
L 213.691004 493.799575 
L 213.861052 494.702259 
L 213.946077 494.74625 
L 214.116125 495.344507 
L 214.541245 497.628157 
L 214.711293 498.214437 
L 215.136414 500.48385 
L 215.306462 501.022478 
L 216.411775 506.066076 
L 216.666847 506.856914 
L 217.006943 508.203074 
L 217.176991 508.617672 
L 217.432064 509.636094 
L 217.517088 509.593867 
L 217.77216 508.432601 
L 217.857184 508.499371 
L 218.027232 508.896756 
L 218.19728 507.161213 
L 218.367329 505.54551 
L 218.452353 505.549041 
L 218.707425 506.472852 
L 219.047521 499.530567 
L 219.132545 499.691253 
L 219.217569 500.189483 
L 219.302593 499.654276 
L 219.64269 486.521695 
L 219.812738 487.28227 
L 219.897762 484.661969 
L 220.237858 456.749257 
L 220.322882 455.568808 
L 220.918051 466.597856 
L 221.088099 465.67535 
L 221.428195 463.493017 
L 221.513219 463.679934 
L 221.683268 465.126214 
L 224.574086 504.803196 
L 225.339303 511.740476 
L 226.274568 518.138767 
L 227.209833 522.890469 
L 228.060073 526.063632 
L 228.82529 528.333261 
L 229.845579 530.589085 
L 230.780844 532.133768 
L 231.631085 533.273076 
L 232.651373 534.238545 
L 233.331566 534.632295 
L 233.756686 534.645515 
L 234.181807 534.473578 
L 235.542192 533.235899 
L 236.562481 533.100837 
L 237.072625 532.865485 
L 237.242674 532.791581 
L 237.922866 531.93363 
L 238.262963 531.29798 
L 238.773107 531.055658 
L 239.028179 531.096711 
L 239.368276 530.938907 
L 239.538324 530.927556 
L 240.048468 529.925753 
L 240.218516 529.892684 
L 240.728661 528.907865 
L 240.898709 528.633926 
L 241.153781 528.088325 
L 241.833974 528.11876 
L 242.939287 530.027924 
L 243.364407 530.650414 
L 243.874552 530.664464 
L 244.46972 529.755853 
L 244.979865 528.48388 
L 245.575033 528.080771 
L 246.085178 528.661492 
L 246.34025 528.863037 
L 246.595322 528.396999 
L 246.935418 528.033483 
L 247.360539 527.618338 
L 247.700635 527.828541 
L 248.125755 528.203988 
L 248.295804 527.829286 
L 248.550876 527.295816 
L 248.720924 527.118791 
L 249.146044 526.213608 
L 249.316093 526.308438 
L 249.996285 527.231882 
L 250.081309 527.142279 
L 250.421406 526.628019 
L 250.591454 526.459029 
L 251.016574 525.251569 
L 251.271646 525.325279 
L 251.526719 525.604512 
L 252.972128 527.659534 
L 253.142176 527.665305 
L 253.482272 527.321392 
L 253.737345 527.474195 
L 254.162465 528.178974 
L 254.842658 529.281764 
L 255.012706 529.178571 
L 255.267778 528.925215 
L 255.52285 528.910044 
L 256.118019 528.154191 
L 256.458115 528.099236 
L 256.883235 528.309223 
L 257.138308 528.370183 
L 257.39338 528.413716 
L 257.733476 528.226864 
L 258.073572 528.20905 
L 258.328645 528.219275 
L 258.583717 528.294371 
L 259.604006 526.574835 
L 259.944102 526.558648 
L 260.199174 526.613162 
L 260.369223 526.716441 
L 260.879367 526.475862 
L 261.134439 526.426192 
L 261.389511 526.444273 
L 262.324776 527.140327 
L 262.664873 526.623004 
L 262.919945 526.713568 
L 263.260041 527.128836 
L 263.685162 527.643681 
L 264.535402 528.648466 
L 264.70545 528.77524 
L 264.875499 528.499924 
L 265.130571 527.991131 
L 265.725739 527.664338 
L 266.490956 528.136727 
L 267.086125 527.34674 
L 267.426221 527.517669 
L 267.766317 527.852849 
L 268.021389 527.592878 
L 268.956654 526.822435 
L 269.466799 525.654768 
L 269.636847 525.294394 
L 269.891919 524.524432 
L 270.061967 524.520736 
L 270.402064 524.972329 
L 270.997232 525.767003 
L 271.422353 526.063204 
L 272.017521 526.828782 
L 272.697714 527.469877 
L 273.03781 527.308912 
L 273.973075 527.663975 
L 274.313171 527.090342 
L 274.483219 526.979397 
L 274.90834 525.963767 
L 275.078388 525.940921 
L 275.418484 525.624687 
L 275.673556 525.845163 
L 276.523797 526.814879 
L 277.033942 527.00997 
L 277.374038 526.708058 
L 277.62911 526.898445 
L 278.139255 527.659523 
L 278.224279 527.583025 
L 279.159544 526.005256 
L 279.329592 526.113886 
L 279.754712 526.817741 
L 280.009784 527.227947 
L 280.179832 527.180615 
L 280.434905 527.096552 
L 280.604953 527.032117 
L 281.115097 526.06438 
L 281.540218 526.172735 
L 281.79529 526.331302 
L 282.305434 525.373244 
L 282.815579 525.476257 
L 283.325723 526.289591 
L 287.746975 533.932315 
L 288.68224 534.946273 
L 289.702529 535.75927 
L 291.062914 536.529601 
L 291.573059 536.703924 
L 291.828131 536.511106 
L 292.593348 535.383832 
L 293.018468 535.403877 
L 293.953733 535.684113 
L 297.099624 537.112361 
L 297.43972 536.996536 
L 298.034889 536.659161 
L 298.630057 536.681472 
L 301.690924 537.124414 
L 302.201068 536.883759 
L 302.796237 536.255831 
L 303.816526 534.237836 
L 304.921839 531.618327 
L 305.091887 531.381515 
L 305.602031 530.080059 
L 305.77208 529.649272 
L 306.027152 528.797732 
L 306.282224 528.586821 
L 306.707344 527.390422 
L 306.792369 527.414671 
L 306.877393 527.30218 
L 307.217489 526.136021 
L 307.302513 526.143199 
L 307.472561 526.380443 
L 307.557585 526.116231 
L 307.897682 523.302488 
L 308.06773 523.213393 
L 308.152754 522.825277 
L 308.49285 520.3158 
L 308.662898 520.616336 
L 308.747922 520.368441 
L 309.002995 518.50425 
L 309.088019 518.518078 
L 309.258067 519.151053 
L 309.343091 518.967409 
L 309.598163 517.272644 
L 309.683187 517.238371 
L 309.853235 517.514016 
L 310.023283 516.121379 
L 310.278356 514.247656 
L 310.36338 514.180969 
L 310.533428 514.253372 
L 310.703476 512.774718 
L 310.958548 511.037153 
L 311.128596 511.03098 
L 311.298645 509.665403 
L 311.468693 508.578492 
L 311.553717 508.519333 
L 311.723765 508.805086 
L 311.893813 507.737675 
L 312.063861 506.816547 
L 312.148885 506.847549 
L 312.318934 507.26952 
L 312.488982 506.219472 
L 312.65903 505.491166 
L 312.744054 505.57846 
L 312.914102 506.091375 
L 312.999126 505.826032 
L 313.254198 504.468013 
L 313.424247 504.906081 
L 313.594295 505.693617 
L 313.679319 505.496895 
L 313.934391 504.244809 
L 314.104439 504.670763 
L 314.189463 504.99772 
L 314.274487 504.908284 
L 314.52956 504.212215 
L 314.869656 505.202941 
L 315.039704 504.886256 
L 315.209752 505.247054 
L 315.464824 506.123336 
L 315.634873 506.127389 
L 315.804921 506.58024 
L 315.889945 506.920267 
L 315.974969 506.694029 
L 316.145017 500.664493 
L 316.315065 497.054135 
L 316.400089 497.195352 
L 317.335354 503.458776 
L 317.760474 504.787006 
L 318.270619 507.511411 
L 320.141149 518.446946 
L 321.076413 522.618394 
L 322.351775 526.591624 
L 323.372064 528.774785 
L 324.222304 530.016688 
L 328.473508 534.802373 
L 329.833893 535.881699 
L 331.02423 536.496554 
L 334.170121 537.393762 
L 336.63582 537.846868 
L 339.696686 538.173462 
L 344.202962 538.415868 
L 353.555611 538.648109 
L 392.836734 539.238468 
L 523.688789 541.286331 
L 591.793074 542.472563 
L 623.422031 542.78195 
L 649.949543 543.284069 
L 668.909912 543.842417 
L 671.37561 543.948536 
L 671.545659 543.954038 
L 671.545659 543.954038 
" clip-path="url(#p97cde04bba)" style="fill: none; stroke: #1f77b4; stroke-width: 1.5; stroke-linecap: square"/>
   </g>
   <g id="line2d_33">
    <path d="M 59.542353 551.880047 
L 60.392594 551.774018 
L 61.327858 551.456334 
L 61.752979 551.274478 
L 63.368436 550.670806 
L 63.793557 550.474872 
L 64.048629 550.33757 
L 64.813846 549.980066 
L 65.664086 549.832153 
L 65.919159 549.793508 
L 66.259255 549.7992 
L 66.514327 549.763515 
L 66.854423 549.786589 
L 68.554905 550.519902 
L 70.765531 551.978227 
L 72.040892 552.754147 
L 72.636061 552.752509 
L 73.65635 552.271154 
L 74.166494 551.753465 
L 74.336542 551.569642 
L 74.676638 551.116559 
L 75.016735 550.80451 
L 75.356831 550.215249 
L 75.526879 550.087105 
L 76.037024 549.101044 
L 76.122048 549.023257 
L 76.547168 547.971306 
L 76.717216 547.822137 
L 77.142337 546.693023 
L 77.312385 546.568294 
L 77.737505 545.449158 
L 77.992577 545.36432 
L 78.417698 544.21605 
L 78.587746 544.170043 
L 79.012866 542.961594 
L 79.182915 542.945593 
L 79.608035 541.66467 
L 79.778083 541.61353 
L 80.203203 539.123071 
L 80.373252 539.055929 
L 80.798372 536.748423 
L 81.053444 536.869221 
L 81.478565 534.742687 
L 81.648613 534.808624 
L 82.073733 532.758222 
L 82.243781 532.870345 
L 82.668902 530.898095 
L 82.83895 531.033641 
L 83.26407 529.16693 
L 83.434118 529.37119 
L 83.774215 527.662087 
L 83.944263 527.913977 
L 84.114311 528.319664 
L 84.454407 526.929704 
L 84.624455 527.294775 
L 84.70948 527.497452 
L 84.964552 526.377064 
L 85.049576 526.422446 
L 85.304648 527.22724 
L 85.389672 526.964166 
L 85.55972 526.239814 
L 85.729768 526.5012 
L 85.899817 527.113084 
L 86.154889 526.113986 
L 86.239913 526.178344 
L 86.494985 527.056823 
L 86.580009 526.949001 
L 86.750057 526.599917 
L 86.920106 527.091907 
L 87.260202 528.390406 
L 87.43025 528.388233 
L 87.685322 529.390338 
L 87.85537 529.970801 
L 88.025419 530.224656 
L 88.280491 531.700282 
L 88.365515 531.581711 
L 88.790635 520.929577 
L 88.875659 520.970109 
L 89.30078 522.52192 
L 90.236045 527.977053 
L 91.936526 538.865537 
L 92.02155 538.04128 
L 92.446671 514.02512 
L 92.531695 513.949945 
L 92.616719 512.61418 
L 93.041839 491.258845 
L 93.126863 491.378572 
L 93.211887 492.138306 
L 93.296911 491.760921 
L 93.722032 475.899822 
L 93.807056 476.433195 
L 93.89208 476.004728 
L 94.3172 461.28577 
L 94.402224 461.476321 
L 94.487248 460.847119 
L 94.912369 446.989712 
L 94.997393 447.027826 
L 95.082417 446.415792 
L 95.507537 434.433604 
L 95.592561 434.510472 
L 95.677585 434.060224 
L 96.102706 424.217236 
L 96.18773 424.351879 
L 96.357778 424.826494 
L 96.697874 418.859033 
L 96.867923 420.457722 
L 96.952947 421.345989 
L 97.208019 419.463625 
L 97.378067 421.476007 
L 97.633139 424.723771 
L 97.718163 424.288129 
L 97.803187 424.429269 
L 98.05826 428.480674 
L 98.228308 430.249854 
L 98.313332 430.082837 
L 98.398356 430.406032 
L 98.653428 434.457165 
L 98.823476 436.372435 
L 98.9085 436.420201 
L 99.078549 437.917426 
L 99.588693 444.886403 
L 99.758741 446.47296 
L 100.183862 451.424564 
L 100.35391 452.989889 
L 100.77903 457.663558 
L 100.949078 459.119749 
L 101.374199 463.340134 
L 101.544247 464.714013 
L 102.054391 469.365391 
L 102.564536 474.375222 
L 102.64956 474.11511 
L 102.734584 474.155458 
L 102.989656 476.310774 
L 103.07468 477.004422 
L 103.329752 475.477853 
L 103.414776 475.718555 
L 103.669849 477.58264 
L 104.009945 473.314922 
L 104.265017 474.502694 
L 104.605114 464.710418 
L 104.690138 464.846702 
L 104.775162 465.695612 
L 104.860186 465.037762 
L 105.285306 444.591524 
L 105.37033 444.666108 
L 106.050523 449.828999 
L 106.645691 454.335761 
L 107.410908 459.863416 
L 107.751004 462.499962 
L 108.856317 474.200446 
L 109.451486 483.184011 
L 110.641823 502.308101 
L 111.066943 505.664548 
L 111.577088 507.821127 
L 112.342305 510.060641 
L 113.617666 512.901573 
L 114.297858 513.839271 
L 114.893027 514.272084 
L 120.759688 516.185718 
L 120.844712 516.079163 
L 121.269833 512.822248 
L 121.524905 512.710152 
L 121.779977 512.729245 
L 122.715242 513.083442 
L 122.970314 513.11315 
L 124.585772 513.758473 
L 124.840844 513.787327 
L 125.436012 514.217415 
L 125.861133 515.20364 
L 126.966446 518.065704 
L 127.646638 518.356614 
L 127.901711 518.331779 
L 128.326831 518.41427 
L 128.581903 518.446519 
L 128.836975 518.530627 
L 129.092048 518.464862 
L 129.517168 518.525684 
L 129.687216 518.520784 
L 130.112337 518.77891 
L 130.367409 518.717603 
L 130.792529 518.788359 
L 130.962577 518.783196 
L 131.302674 518.918179 
L 131.557746 518.81563 
L 131.897842 518.927197 
L 132.152914 518.805035 
L 132.493011 518.928002 
L 132.748083 518.801849 
L 133.173203 519.08952 
L 133.343252 518.942911 
L 133.598324 519.096961 
L 133.768372 519.11702 
L 133.93842 518.950721 
L 134.193492 519.103535 
L 134.36354 519.113152 
L 134.618613 518.937935 
L 134.958709 519.044603 
L 135.128757 518.826875 
L 135.383829 518.966415 
L 135.468853 519.048114 
L 135.80895 518.753423 
L 136.23407 519.078046 
L 136.404118 518.851952 
L 136.659191 519.027002 
L 136.744215 519.120825 
L 137.084311 518.791915 
L 137.424407 518.928526 
L 137.594455 518.638919 
L 137.764504 518.700785 
L 138.1046 519.004994 
L 138.359672 519.303647 
L 139.550009 521.755359 
L 141.420539 526.560327 
L 143.291069 531.468277 
L 143.801213 532.125437 
L 144.396382 532.54814 
L 145.246622 532.854225 
L 146.351935 533.010277 
L 146.521983 532.969579 
L 147.032128 532.256741 
L 147.117152 532.188938 
L 147.542272 531.136253 
L 147.797345 530.856716 
L 148.052417 530.414696 
L 148.562561 530.016755 
L 148.817634 529.800034 
L 150.178019 529.396365 
L 150.688163 528.90802 
L 150.858211 528.785748 
L 151.113284 528.545861 
L 151.793476 528.675289 
L 152.133573 529.213585 
L 152.728741 530.206626 
L 152.898789 530.179928 
L 153.32391 530.401281 
L 153.578982 530.188382 
L 153.919078 530.176475 
L 154.17415 529.928342 
L 155.61956 530.131968 
L 156.299752 530.710479 
L 156.724873 530.29383 
L 157.235017 530.649305 
L 157.660138 530.930638 
L 157.830186 530.901865 
L 158.170282 531.197343 
L 158.510378 530.746411 
L 158.765451 531.006774 
L 159.530667 531.413324 
L 159.700715 531.400173 
L 160.125836 531.488268 
L 160.295884 531.484691 
L 161.061101 532.081641 
L 162.166414 533.181294 
L 162.421486 533.299262 
L 162.761582 532.849582 
L 162.93163 532.965546 
L 163.696847 534.016891 
L 163.781871 533.940699 
L 164.036943 533.685239 
L 164.292016 533.92759 
L 164.972208 534.779038 
L 165.567377 535.360088 
L 166.077521 535.3874 
L 166.502642 534.330626 
L 166.927762 534.042917 
L 167.182834 533.925892 
L 167.352882 534.005795 
L 167.692979 533.69206 
L 168.033075 533.710272 
L 168.288147 533.372295 
L 168.543219 533.610987 
L 169.223412 534.533428 
L 169.478484 534.522362 
L 170.413749 534.951912 
L 170.753845 534.681442 
L 171.434038 534.985219 
L 172.709399 537.339323 
L 172.964471 537.746248 
L 173.219544 537.92136 
L 173.644664 538.228658 
L 174.154808 538.190766 
L 174.409881 537.751791 
L 174.664953 537.803532 
L 175.260121 538.138813 
L 175.600218 537.763112 
L 176.025338 537.944355 
L 176.28041 537.708547 
L 176.620507 537.751309 
L 176.875579 537.525728 
L 177.300699 537.624679 
L 177.895868 537.712239 
L 178.15094 537.759056 
L 178.831133 538.450499 
L 179.681373 539.596356 
L 179.936446 539.6268 
L 180.276542 539.687852 
L 180.531614 539.492701 
L 181.296831 539.935157 
L 181.466879 539.9912 
L 181.721951 539.837339 
L 182.572192 540.337216 
L 182.74224 540.319487 
L 182.997313 540.168004 
L 183.252385 540.169349 
L 183.762529 539.38713 
L 183.847553 539.344246 
L 184.272674 538.445396 
L 184.61277 538.246984 
L 184.782818 538.197255 
L 185.207939 538.398505 
L 185.377987 538.240877 
L 185.548035 538.339586 
L 186.398276 539.344737 
L 186.653348 539.468199 
L 186.90842 539.674625 
L 187.33354 539.090068 
L 187.758661 539.415105 
L 190.139335 542.400223 
L 190.564455 543.019411 
L 190.989576 542.924746 
L 191.584744 543.603244 
L 192.434985 544.992143 
L 192.94513 544.371935 
L 193.030154 544.366946 
L 193.455274 543.582142 
L 193.79537 543.834339 
L 194.475563 544.410031 
L 196.09102 544.63213 
L 196.516141 543.668916 
L 196.771213 543.550705 
L 197.026285 543.363595 
L 197.281357 543.539552 
L 197.706478 544.27602 
L 198.811791 546.553658 
L 199.491983 547.180914 
L 200.342224 548.073235 
L 200.937393 548.965324 
L 202.297778 551.352794 
L 202.722898 551.561697 
L 203.488115 551.627573 
L 206.974102 551.73115 
L 207.059126 551.820021 
L 207.14415 551.338978 
L 207.569271 540.657791 
L 207.739319 539.675898 
L 208.164439 530.020467 
L 208.334487 529.15581 
L 208.759608 520.841999 
L 208.929656 520.095913 
L 209.354776 513.006174 
L 209.609849 512.327767 
L 210.034969 506.380324 
L 210.205017 505.853224 
L 210.630138 500.675604 
L 210.800186 500.243614 
L 211.225306 495.885556 
L 211.395354 495.613227 
L 211.735451 492.763673 
L 211.820475 492.786497 
L 211.990523 493.369644 
L 212.245595 492.802576 
L 212.415643 493.883826 
L 212.840764 497.095905 
L 213.010812 498.192798 
L 213.435932 501.590156 
L 213.60598 502.711845 
L 214.031101 505.879463 
L 214.286173 507.549864 
L 214.626269 509.638147 
L 214.881341 511.168776 
L 215.221438 513.205404 
L 215.47651 514.766338 
L 215.90163 517.441777 
L 216.156703 518.84085 
L 216.496799 520.625597 
L 216.751871 521.893991 
L 217.091967 523.481922 
L 217.34704 524.561079 
L 217.517088 525.345624 
L 217.77216 524.225899 
L 217.857184 524.266853 
L 218.112256 524.970816 
L 218.452353 521.955484 
L 218.537377 522.082813 
L 218.792449 522.782189 
L 219.217569 516.077662 
L 219.302593 516.448957 
L 219.387617 515.866047 
L 219.812738 501.23001 
L 219.897762 501.61915 
L 219.982786 500.073759 
L 220.407906 471.494881 
L 220.577955 470.812509 
L 220.748003 471.096943 
L 221.088099 472.545255 
L 222.023364 476.592972 
L 222.448484 478.820681 
L 222.958629 482.219164 
L 223.808869 490.134447 
L 224.319014 497.078785 
L 226.10452 524.294078 
L 226.444616 525.643151 
L 226.869736 526.492774 
L 227.975049 527.986833 
L 228.995338 529.074912 
L 229.590507 529.381787 
L 230.525772 529.526738 
L 232.396301 529.62192 
L 233.501614 529.279544 
L 233.841711 528.968666 
L 234.181807 528.740182 
L 234.521903 528.28923 
L 234.861999 528.065778 
L 235.202096 527.91319 
L 235.882288 527.791404 
L 237.072625 527.032989 
L 237.242674 526.916937 
L 237.497746 526.639133 
L 237.837842 526.397483 
L 238.092914 525.945801 
L 238.347987 525.964134 
L 238.688083 525.937557 
L 239.113203 526.042344 
L 239.368276 526.094272 
L 239.538324 526.200045 
L 239.963444 525.596778 
L 240.218516 525.633147 
L 240.643637 524.803565 
L 240.813685 524.783438 
L 241.238805 524.110416 
L 241.493877 524.089924 
L 241.74895 523.915181 
L 242.259094 524.233815 
L 242.854263 525.00798 
L 243.449431 525.775018 
L 243.704503 525.96746 
L 243.959576 526.106131 
L 244.129624 525.96974 
L 244.384696 526.182506 
L 244.46972 526.285928 
L 244.809816 526.058094 
L 245.404985 526.798328 
L 246.000154 528.250402 
L 246.34025 528.992701 
L 246.76537 528.93911 
L 247.020442 529.102852 
L 247.275515 529.046627 
L 248.125755 529.547027 
L 248.550876 528.812653 
L 248.720924 528.906711 
L 249.06102 528.553929 
L 249.316093 528.944966 
L 249.996285 530.316255 
L 250.50643 530.139332 
L 250.591454 530.156071 
L 251.016574 529.294245 
L 251.35667 529.509707 
L 251.696767 529.96357 
L 252.547007 531.173197 
L 253.142176 531.69165 
L 253.312224 531.521403 
L 253.482272 531.678656 
L 254.672609 533.705625 
L 254.842658 533.863525 
L 255.182754 533.558194 
L 255.607874 534.017789 
L 255.777922 533.877964 
L 256.032995 534.123188 
L 256.203043 534.277164 
L 256.543139 534.369821 
L 256.798211 534.40628 
L 257.138308 534.229617 
L 257.39338 534.133204 
L 257.648452 533.90718 
L 258.073572 534.0052 
L 258.328645 534.184457 
L 258.583717 534.362868 
L 259.093861 533.5672 
L 259.178885 533.551646 
L 259.604006 533.017141 
L 260.284198 533.451075 
L 260.454247 533.602364 
L 260.624295 533.615275 
L 262.239752 535.221362 
L 262.664873 534.760969 
L 263.260041 535.341269 
L 264.28033 536.952845 
L 264.70545 537.649315 
L 265.130571 537.109316 
L 265.385643 537.243943 
L 265.555691 537.204188 
L 266.490956 537.757348 
L 266.916076 537.117829 
L 267.341197 537.442685 
L 267.851341 537.895781 
L 268.106414 537.703611 
L 268.44651 537.612795 
L 268.701582 537.274786 
L 269.041678 536.96617 
L 269.296751 536.330115 
L 269.466799 536.299187 
L 269.551823 536.322169 
L 269.891919 535.739929 
L 270.061967 535.916124 
L 270.997232 537.292922 
L 271.337328 537.701244 
L 272.187569 538.901561 
L 272.697714 539.128462 
L 272.952786 538.906198 
L 273.46293 539.243616 
L 273.803027 539.796897 
L 273.888051 539.941893 
L 273.973075 539.890727 
L 274.143123 539.72101 
L 274.398195 540.047062 
L 274.483219 540.192487 
L 274.568243 540.130633 
L 274.738292 539.91404 
L 274.993364 540.103474 
L 275.163412 540.161034 
L 275.418484 540.003328 
L 275.843605 540.21049 
L 276.353749 540.39317 
L 276.693845 540.37588 
L 277.033942 540.278772 
L 277.289014 539.956362 
L 277.459062 540.046518 
L 278.139255 540.953818 
L 278.224279 540.811901 
L 278.479351 540.397515 
L 278.649399 540.478504 
L 278.734423 540.551956 
L 279.074519 540.222721 
L 279.329592 540.674525 
L 280.094808 542.291273 
L 280.349881 542.362641 
L 280.604953 542.510401 
L 281.115097 541.74903 
L 281.37017 541.695226 
L 281.625242 541.712889 
L 281.79529 541.762522 
L 282.22041 540.963401 
L 282.560507 540.988301 
L 282.730555 541.0154 
L 282.985627 541.297329 
L 283.410747 542.127674 
L 284.431036 544.347031 
L 285.621373 546.143885 
L 287.746975 550.288914 
L 288.172096 550.636985 
L 288.68224 550.764391 
L 290.297698 550.780179 
L 291.488035 550.709623 
L 291.573059 550.640611 
L 291.998179 549.330384 
L 292.338275 549.211034 
L 294.974022 549.181762 
L 296.079335 549.262441 
L 296.419431 549.527947 
L 297.184648 550.42269 
L 297.43972 550.265093 
L 300.925707 550.234962 
L 301.860972 549.975545 
L 302.201068 549.940971 
L 302.456141 549.940184 
L 302.711213 549.921609 
L 303.051309 549.657403 
L 303.221357 549.601555 
L 303.731502 548.916762 
L 303.90155 548.674636 
L 304.156622 548.142357 
L 304.496718 547.90127 
L 305.006863 546.889957 
L 305.091887 546.812706 
L 305.517007 545.746081 
L 305.687056 545.607678 
L 306.112176 544.470734 
L 306.282224 544.354076 
L 306.707344 543.174245 
L 306.877393 543.092614 
L 307.302513 541.943096 
L 307.557585 541.864435 
L 307.982706 539.247868 
L 308.152754 539.108032 
L 308.577874 536.54463 
L 308.747922 536.454618 
L 309.173043 533.992294 
L 309.343091 533.937411 
L 309.768211 531.593897 
L 309.938259 531.604048 
L 310.36338 529.497288 
L 310.618452 529.740468 
L 311.043572 527.820243 
L 311.213621 527.968942 
L 311.638741 526.130472 
L 311.808789 526.335493 
L 312.148885 524.656751 
L 312.233909 524.695171 
L 312.403958 525.038505 
L 312.744054 523.770194 
L 312.914102 524.249703 
L 312.999126 524.508943 
L 313.254198 523.542376 
L 313.339222 523.603221 
L 313.679319 525.045814 
L 313.764343 524.847104 
L 313.934391 524.217971 
L 314.104439 524.558768 
L 314.274487 525.280146 
L 314.359511 525.190939 
L 314.52956 524.865227 
L 314.699608 525.321883 
L 314.95468 526.118129 
L 315.124728 526.062165 
L 315.3798 526.974072 
L 315.549848 527.485759 
L 315.719897 527.675893 
L 315.974969 529.088809 
L 316.059993 528.962316 
L 316.485113 518.416331 
L 316.570137 518.483203 
L 317.080282 520.779856 
L 320.226173 538.04564 
L 320.736317 540.707083 
L 321.246462 544.997106 
L 321.84163 549.689509 
L 322.181726 551.084252 
L 322.521823 551.611817 
L 322.861919 551.863167 
L 323.627136 551.728952 
L 323.967232 551.686777 
L 324.222304 551.62998 
L 324.562401 551.616023 
L 324.817473 551.570765 
L 325.157569 551.570422 
L 325.412641 551.531854 
L 325.752738 551.5595 
L 327.623267 552.42775 
L 329.323749 553.540653 
L 330.939206 554.592449 
L 333.659977 554.928915 
L 336.210699 555.101829 
L 337.48606 555.194351 
L 402.444455 556.655037 
L 432.713026 557.620433 
L 458.390298 558.655476 
L 480.411534 559.759453 
L 499.456927 560.931086 
L 516.036622 562.168283 
L 530.575739 563.471118 
L 543.414375 564.840675 
L 554.807601 566.276459 
L 564.925466 567.771914 
L 573.938018 569.323366 
L 582.10033 570.95072 
L 589.4124 572.630366 
L 596.044278 574.376376 
L 602.080988 576.190245 
L 607.607553 578.078444 
L 612.708997 580.05458 
L 617.385322 582.102481 
L 621.721549 584.243534 
L 625.717681 586.462792 
L 629.45874 588.794995 
L 632.944728 591.231177 
L 636.175643 593.757317 
L 639.236509 596.431784 
L 642.127328 599.254297 
L 644.848098 602.221385 
L 647.398821 605.325505 
L 649.864519 608.675967 
L 652.245193 612.296377 
L 654.455819 616.059328 
L 656.581421 620.108965 
L 658.621999 624.468273 
L 660.577553 629.161277 
L 662.448082 634.212716 
L 664.318612 639.923243 
L 666.104118 646.115209 
L 667.804599 652.82808 
L 669.420057 660.101728 
L 671.035514 668.4446 
L 671.545659 671.34 
L 671.545659 671.34 
" clip-path="url(#p97cde04bba)" style="fill: none; stroke: #ff7f0e; stroke-width: 1.5; stroke-linecap: square"/>
   </g>
   <g id="patch_9">
    <path d="M 28.942187 684.92 
L 28.942187 386.16 
" style="fill: none; stroke: #000000; stroke-width: 0.8; stroke-linejoin: miter; stroke-linecap: square"/>
   </g>
   <g id="patch_10">
    <path d="M 702.145824 684.92 
L 702.145824 386.16 
" style="fill: none; stroke: #000000; stroke-width: 0.8; stroke-linejoin: miter; stroke-linecap: square"/>
   </g>
   <g id="patch_11">
    <path d="M 28.942187 684.92 
L 702.145824 684.92 
" style="fill: none; stroke: #000000; stroke-width: 0.8; stroke-linejoin: miter; stroke-linecap: square"/>
   </g>
   <g id="patch_12">
    <path d="M 28.942187 386.16 
L 702.145824 386.16 
" style="fill: none; stroke: #000000; stroke-width: 0.8; stroke-linejoin: miter; stroke-linecap: square"/>
   </g>
   <g id="text_31">
    <!-- 2 transformation(s) -->
    <g transform="translate(307.429318 380.16) scale(0.12 -0.12)">
     <use xlink:href="#DejaVuSans-32"/>
     <use xlink:href="#DejaVuSans-20" x="63.623047"/>
     <use xlink:href="#DejaVuSans-74" x="95.410156"/>
     <use xlink:href="#DejaVuSans-72" x="134.619141"/>
     <use xlink:href="#DejaVuSans-61" x="175.732422"/>
     <use xlink:href="#DejaVuSans-6e" x="237.011719"/>
     <use xlink:href="#DejaVuSans-73" x="300.390625"/>
     <use xlink:href="#DejaVuSans-66" x="352.490234"/>
     <use xlink:href="#DejaVuSans-6f" x="387.695312"/>
     <use xlink:href="#DejaVuSans-72" x="448.876953"/>
     <use xlink:href="#DejaVuSans-6d" x="488.240234"/>
     <use xlink:href="#DejaVuSans-61" x="585.652344"/>
     <use xlink:href="#DejaVuSans-74" x="646.931641"/>
     <use xlink:href="#DejaVuSans-69" x="686.140625"/>
     <use xlink:href="#DejaVuSans-6f" x="713.923828"/>
     <use xlink:href="#DejaVuSans-6e" x="775.105469"/>
     <use xlink:href="#DejaVuSans-28" x="838.484375"/>
     <use xlink:href="#DejaVuSans-73" x="877.498047"/>
     <use xlink:href="#DejaVuSans-29" x="929.597656"/>
    </g>
   </g>
  </g>
  <g id="text_32">
   <!-- training -->
   <g transform="translate(333.13875 16.318125) scale(0.12 -0.12)">
    <defs>
     <path id="DejaVuSans-67" d="M 2906 1791 
Q 2906 2416 2648 2759 
Q 2391 3103 1925 3103 
Q 1463 3103 1205 2759 
Q 947 2416 947 1791 
Q 947 1169 1205 825 
Q 1463 481 1925 481 
Q 2391 481 2648 825 
Q 2906 1169 2906 1791 
z
M 3481 434 
Q 3481 -459 3084 -895 
Q 2688 -1331 1869 -1331 
Q 1566 -1331 1297 -1286 
Q 1028 -1241 775 -1147 
L 775 -588 
Q 1028 -725 1275 -790 
Q 1522 -856 1778 -856 
Q 2344 -856 2625 -561 
Q 2906 -266 2906 331 
L 2906 616 
Q 2728 306 2450 153 
Q 2172 0 1784 0 
Q 1141 0 747 490 
Q 353 981 353 1791 
Q 353 2603 747 3093 
Q 1141 3584 1784 3584 
Q 2172 3584 2450 3431 
Q 2728 3278 2906 2969 
L 2906 3500 
L 3481 3500 
L 3481 434 
z
" transform="scale(0.015625)"/>
    </defs>
    <use xlink:href="#DejaVuSans-74"/>
    <use xlink:href="#DejaVuSans-72" x="39.208984"/>
    <use xlink:href="#DejaVuSans-61" x="80.322266"/>
    <use xlink:href="#DejaVuSans-69" x="141.601562"/>
    <use xlink:href="#DejaVuSans-6e" x="169.384766"/>
    <use xlink:href="#DejaVuSans-69" x="232.763672"/>
    <use xlink:href="#DejaVuSans-6e" x="260.546875"/>
    <use xlink:href="#DejaVuSans-67" x="323.925781"/>
   </g>
  </g>
 </g>
 <defs>
  <clipPath id="pcdc91bb110">
   <rect x="28.942187" y="43.44" width="673.203636" height="298.76"/>
  </clipPath>
  <clipPath id="p97cde04bba">
   <rect x="28.942187" y="386.16" width="673.203636" height="298.76"/>
  </clipPath>
 </defs>
</svg>
