<?xml version="1.0" encoding="utf-8" standalone="no"?>
<!DOCTYPE svg PUBLIC "-//W3C//DTD SVG 1.1//EN"
  "http://www.w3.org/Graphics/SVG/1.1/DTD/svg11.dtd">
<svg xmlns:xlink="http://www.w3.org/1999/xlink" width="709.336136pt" height="708.798125pt" viewBox="0 0 709.336136 708.798125" xmlns="http://www.w3.org/2000/svg" version="1.1">
 <metadata>
  <rdf:RDF xmlns:dc="http://purl.org/dc/elements/1.1/" xmlns:cc="http://creativecommons.org/ns#" xmlns:rdf="http://www.w3.org/1999/02/22-rdf-syntax-ns#">
   <cc:Work>
    <dc:type rdf:resource="http://purl.org/dc/dcmitype/StillImage"/>
    <dc:date>2023-06-17T07:42:50.970863</dc:date>
    <dc:format>image/svg+xml</dc:format>
    <dc:creator>
     <cc:Agent>
      <dc:title>Matplotlib v3.7.1, https://matplotlib.org/</dc:title>
     </cc:Agent>
    </dc:creator>
   </cc:Work>
  </rdf:RDF>
 </metadata>
 <defs>
  <style type="text/css">*{stroke-linejoin: round; stroke-linecap: butt}</style>
 </defs>
 <g id="figure_1">
  <g id="patch_1">
   <path d="M 0 708.798125 
L 709.336136 708.798125 
L 709.336136 0 
L 0 0 
z
" style="fill: #ffffff"/>
  </g>
  <g id="axes_1">
   <g id="patch_2">
    <path d="M 20.5625 342.2 
L 702.136136 342.2 
L 702.136136 43.44 
L 20.5625 43.44 
z
" style="fill: #ffffff"/>
   </g>
   <g id="matplotlib.axis_1">
    <g id="xtick_1">
     <g id="line2d_1">
      <defs>
       <path id="m602ec7c7a4" d="M 0 0 
L 0 3.5 
" style="stroke: #000000; stroke-width: 0.8"/>
      </defs>
      <g>
       <use xlink:href="#m602ec7c7a4" x="51.370957" y="342.2" style="stroke: #000000; stroke-width: 0.8"/>
      </g>
     </g>
     <g id="text_1">
      <!-- 2014-07-01 -->
      <g transform="translate(22.313145 356.798437) scale(0.1 -0.1)">
       <defs>
        <path id="DejaVuSans-32" d="M 1228 531 
L 3431 531 
L 3431 0 
L 469 0 
L 469 531 
Q 828 903 1448 1529 
Q 2069 2156 2228 2338 
Q 2531 2678 2651 2914 
Q 2772 3150 2772 3378 
Q 2772 3750 2511 3984 
Q 2250 4219 1831 4219 
Q 1534 4219 1204 4116 
Q 875 4013 500 3803 
L 500 4441 
Q 881 4594 1212 4672 
Q 1544 4750 1819 4750 
Q 2544 4750 2975 4387 
Q 3406 4025 3406 3419 
Q 3406 3131 3298 2873 
Q 3191 2616 2906 2266 
Q 2828 2175 2409 1742 
Q 1991 1309 1228 531 
z
" transform="scale(0.015625)"/>
        <path id="DejaVuSans-30" d="M 2034 4250 
Q 1547 4250 1301 3770 
Q 1056 3291 1056 2328 
Q 1056 1369 1301 889 
Q 1547 409 2034 409 
Q 2525 409 2770 889 
Q 3016 1369 3016 2328 
Q 3016 3291 2770 3770 
Q 2525 4250 2034 4250 
z
M 2034 4750 
Q 2819 4750 3233 4129 
Q 3647 3509 3647 2328 
Q 3647 1150 3233 529 
Q 2819 -91 2034 -91 
Q 1250 -91 836 529 
Q 422 1150 422 2328 
Q 422 3509 836 4129 
Q 1250 4750 2034 4750 
z
" transform="scale(0.015625)"/>
        <path id="DejaVuSans-31" d="M 794 531 
L 1825 531 
L 1825 4091 
L 703 3866 
L 703 4441 
L 1819 4666 
L 2450 4666 
L 2450 531 
L 3481 531 
L 3481 0 
L 794 0 
L 794 531 
z
" transform="scale(0.015625)"/>
        <path id="DejaVuSans-34" d="M 2419 4116 
L 825 1625 
L 2419 1625 
L 2419 4116 
z
M 2253 4666 
L 3047 4666 
L 3047 1625 
L 3713 1625 
L 3713 1100 
L 3047 1100 
L 3047 0 
L 2419 0 
L 2419 1100 
L 313 1100 
L 313 1709 
L 2253 4666 
z
" transform="scale(0.015625)"/>
        <path id="DejaVuSans-2d" d="M 313 2009 
L 1997 2009 
L 1997 1497 
L 313 1497 
L 313 2009 
z
" transform="scale(0.015625)"/>
        <path id="DejaVuSans-37" d="M 525 4666 
L 3525 4666 
L 3525 4397 
L 1831 0 
L 1172 0 
L 2766 4134 
L 525 4134 
L 525 4666 
z
" transform="scale(0.015625)"/>
       </defs>
       <use xlink:href="#DejaVuSans-32"/>
       <use xlink:href="#DejaVuSans-30" x="63.623047"/>
       <use xlink:href="#DejaVuSans-31" x="127.246094"/>
       <use xlink:href="#DejaVuSans-34" x="190.869141"/>
       <use xlink:href="#DejaVuSans-2d" x="254.492188"/>
       <use xlink:href="#DejaVuSans-30" x="290.576172"/>
       <use xlink:href="#DejaVuSans-37" x="354.199219"/>
       <use xlink:href="#DejaVuSans-2d" x="417.822266"/>
       <use xlink:href="#DejaVuSans-30" x="453.90625"/>
       <use xlink:href="#DejaVuSans-31" x="517.529297"/>
      </g>
     </g>
    </g>
    <g id="xtick_2">
     <g id="line2d_2">
      <g>
       <use xlink:href="#m602ec7c7a4" x="175.327869" y="342.2" style="stroke: #000000; stroke-width: 0.8"/>
      </g>
     </g>
     <g id="text_2">
      <!-- 2014-07-02 -->
      <g transform="translate(146.270057 356.798437) scale(0.1 -0.1)">
       <use xlink:href="#DejaVuSans-32"/>
       <use xlink:href="#DejaVuSans-30" x="63.623047"/>
       <use xlink:href="#DejaVuSans-31" x="127.246094"/>
       <use xlink:href="#DejaVuSans-34" x="190.869141"/>
       <use xlink:href="#DejaVuSans-2d" x="254.492188"/>
       <use xlink:href="#DejaVuSans-30" x="290.576172"/>
       <use xlink:href="#DejaVuSans-37" x="354.199219"/>
       <use xlink:href="#DejaVuSans-2d" x="417.822266"/>
       <use xlink:href="#DejaVuSans-30" x="453.90625"/>
       <use xlink:href="#DejaVuSans-32" x="517.529297"/>
      </g>
     </g>
    </g>
    <g id="xtick_3">
     <g id="line2d_3">
      <g>
       <use xlink:href="#m602ec7c7a4" x="299.284781" y="342.2" style="stroke: #000000; stroke-width: 0.8"/>
      </g>
     </g>
     <g id="text_3">
      <!-- 2014-07-03 -->
      <g transform="translate(270.226969 356.798437) scale(0.1 -0.1)">
       <defs>
        <path id="DejaVuSans-33" d="M 2597 2516 
Q 3050 2419 3304 2112 
Q 3559 1806 3559 1356 
Q 3559 666 3084 287 
Q 2609 -91 1734 -91 
Q 1441 -91 1130 -33 
Q 819 25 488 141 
L 488 750 
Q 750 597 1062 519 
Q 1375 441 1716 441 
Q 2309 441 2620 675 
Q 2931 909 2931 1356 
Q 2931 1769 2642 2001 
Q 2353 2234 1838 2234 
L 1294 2234 
L 1294 2753 
L 1863 2753 
Q 2328 2753 2575 2939 
Q 2822 3125 2822 3475 
Q 2822 3834 2567 4026 
Q 2313 4219 1838 4219 
Q 1578 4219 1281 4162 
Q 984 4106 628 3988 
L 628 4550 
Q 988 4650 1302 4700 
Q 1616 4750 1894 4750 
Q 2613 4750 3031 4423 
Q 3450 4097 3450 3541 
Q 3450 3153 3228 2886 
Q 3006 2619 2597 2516 
z
" transform="scale(0.015625)"/>
       </defs>
       <use xlink:href="#DejaVuSans-32"/>
       <use xlink:href="#DejaVuSans-30" x="63.623047"/>
       <use xlink:href="#DejaVuSans-31" x="127.246094"/>
       <use xlink:href="#DejaVuSans-34" x="190.869141"/>
       <use xlink:href="#DejaVuSans-2d" x="254.492188"/>
       <use xlink:href="#DejaVuSans-30" x="290.576172"/>
       <use xlink:href="#DejaVuSans-37" x="354.199219"/>
       <use xlink:href="#DejaVuSans-2d" x="417.822266"/>
       <use xlink:href="#DejaVuSans-30" x="453.90625"/>
       <use xlink:href="#DejaVuSans-33" x="517.529297"/>
      </g>
     </g>
    </g>
    <g id="xtick_4">
     <g id="line2d_4">
      <g>
       <use xlink:href="#m602ec7c7a4" x="423.241693" y="342.2" style="stroke: #000000; stroke-width: 0.8"/>
      </g>
     </g>
     <g id="text_4">
      <!-- 2014-07-04 -->
      <g transform="translate(394.18388 356.798437) scale(0.1 -0.1)">
       <use xlink:href="#DejaVuSans-32"/>
       <use xlink:href="#DejaVuSans-30" x="63.623047"/>
       <use xlink:href="#DejaVuSans-31" x="127.246094"/>
       <use xlink:href="#DejaVuSans-34" x="190.869141"/>
       <use xlink:href="#DejaVuSans-2d" x="254.492188"/>
       <use xlink:href="#DejaVuSans-30" x="290.576172"/>
       <use xlink:href="#DejaVuSans-37" x="354.199219"/>
       <use xlink:href="#DejaVuSans-2d" x="417.822266"/>
       <use xlink:href="#DejaVuSans-30" x="453.90625"/>
       <use xlink:href="#DejaVuSans-34" x="517.529297"/>
      </g>
     </g>
    </g>
    <g id="xtick_5">
     <g id="line2d_5">
      <g>
       <use xlink:href="#m602ec7c7a4" x="547.198605" y="342.2" style="stroke: #000000; stroke-width: 0.8"/>
      </g>
     </g>
     <g id="text_5">
      <!-- 2014-07-05 -->
      <g transform="translate(518.140792 356.798437) scale(0.1 -0.1)">
       <defs>
        <path id="DejaVuSans-35" d="M 691 4666 
L 3169 4666 
L 3169 4134 
L 1269 4134 
L 1269 2991 
Q 1406 3038 1543 3061 
Q 1681 3084 1819 3084 
Q 2600 3084 3056 2656 
Q 3513 2228 3513 1497 
Q 3513 744 3044 326 
Q 2575 -91 1722 -91 
Q 1428 -91 1123 -41 
Q 819 9 494 109 
L 494 744 
Q 775 591 1075 516 
Q 1375 441 1709 441 
Q 2250 441 2565 725 
Q 2881 1009 2881 1497 
Q 2881 1984 2565 2268 
Q 2250 2553 1709 2553 
Q 1456 2553 1204 2497 
Q 953 2441 691 2322 
L 691 4666 
z
" transform="scale(0.015625)"/>
       </defs>
       <use xlink:href="#DejaVuSans-32"/>
       <use xlink:href="#DejaVuSans-30" x="63.623047"/>
       <use xlink:href="#DejaVuSans-31" x="127.246094"/>
       <use xlink:href="#DejaVuSans-34" x="190.869141"/>
       <use xlink:href="#DejaVuSans-2d" x="254.492188"/>
       <use xlink:href="#DejaVuSans-30" x="290.576172"/>
       <use xlink:href="#DejaVuSans-37" x="354.199219"/>
       <use xlink:href="#DejaVuSans-2d" x="417.822266"/>
       <use xlink:href="#DejaVuSans-30" x="453.90625"/>
       <use xlink:href="#DejaVuSans-35" x="517.529297"/>
      </g>
     </g>
    </g>
    <g id="xtick_6">
     <g id="line2d_6">
      <g>
       <use xlink:href="#m602ec7c7a4" x="671.155517" y="342.2" style="stroke: #000000; stroke-width: 0.8"/>
      </g>
     </g>
     <g id="text_6">
      <!-- 2014-07-06 -->
      <g transform="translate(642.097704 356.798437) scale(0.1 -0.1)">
       <defs>
        <path id="DejaVuSans-36" d="M 2113 2584 
Q 1688 2584 1439 2293 
Q 1191 2003 1191 1497 
Q 1191 994 1439 701 
Q 1688 409 2113 409 
Q 2538 409 2786 701 
Q 3034 994 3034 1497 
Q 3034 2003 2786 2293 
Q 2538 2584 2113 2584 
z
M 3366 4563 
L 3366 3988 
Q 3128 4100 2886 4159 
Q 2644 4219 2406 4219 
Q 1781 4219 1451 3797 
Q 1122 3375 1075 2522 
Q 1259 2794 1537 2939 
Q 1816 3084 2150 3084 
Q 2853 3084 3261 2657 
Q 3669 2231 3669 1497 
Q 3669 778 3244 343 
Q 2819 -91 2113 -91 
Q 1303 -91 875 529 
Q 447 1150 447 2328 
Q 447 3434 972 4092 
Q 1497 4750 2381 4750 
Q 2619 4750 2861 4703 
Q 3103 4656 3366 4563 
z
" transform="scale(0.015625)"/>
       </defs>
       <use xlink:href="#DejaVuSans-32"/>
       <use xlink:href="#DejaVuSans-30" x="63.623047"/>
       <use xlink:href="#DejaVuSans-31" x="127.246094"/>
       <use xlink:href="#DejaVuSans-34" x="190.869141"/>
       <use xlink:href="#DejaVuSans-2d" x="254.492188"/>
       <use xlink:href="#DejaVuSans-30" x="290.576172"/>
       <use xlink:href="#DejaVuSans-37" x="354.199219"/>
       <use xlink:href="#DejaVuSans-2d" x="417.822266"/>
       <use xlink:href="#DejaVuSans-30" x="453.90625"/>
       <use xlink:href="#DejaVuSans-36" x="517.529297"/>
      </g>
     </g>
    </g>
   </g>
   <g id="matplotlib.axis_2">
    <g id="ytick_1">
     <g id="line2d_7">
      <defs>
       <path id="m3beed42470" d="M 0 0 
L -3.5 0 
" style="stroke: #000000; stroke-width: 0.8"/>
      </defs>
      <g>
       <use xlink:href="#m3beed42470" x="20.5625" y="328.616589" style="stroke: #000000; stroke-width: 0.8"/>
      </g>
     </g>
     <g id="text_7">
      <!-- 0 -->
      <g transform="translate(7.2 332.415808) scale(0.1 -0.1)">
       <use xlink:href="#DejaVuSans-30"/>
      </g>
     </g>
    </g>
    <g id="ytick_2">
     <g id="line2d_8">
      <g>
       <use xlink:href="#m3beed42470" x="20.5625" y="269.329819" style="stroke: #000000; stroke-width: 0.8"/>
      </g>
     </g>
     <g id="text_8">
      <!-- 1 -->
      <g transform="translate(7.2 273.129037) scale(0.1 -0.1)">
       <use xlink:href="#DejaVuSans-31"/>
      </g>
     </g>
    </g>
    <g id="ytick_3">
     <g id="line2d_9">
      <g>
       <use xlink:href="#m3beed42470" x="20.5625" y="210.043048" style="stroke: #000000; stroke-width: 0.8"/>
      </g>
     </g>
     <g id="text_9">
      <!-- 2 -->
      <g transform="translate(7.2 213.842267) scale(0.1 -0.1)">
       <use xlink:href="#DejaVuSans-32"/>
      </g>
     </g>
    </g>
    <g id="ytick_4">
     <g id="line2d_10">
      <g>
       <use xlink:href="#m3beed42470" x="20.5625" y="150.756277" style="stroke: #000000; stroke-width: 0.8"/>
      </g>
     </g>
     <g id="text_10">
      <!-- 3 -->
      <g transform="translate(7.2 154.555496) scale(0.1 -0.1)">
       <use xlink:href="#DejaVuSans-33"/>
      </g>
     </g>
    </g>
    <g id="ytick_5">
     <g id="line2d_11">
      <g>
       <use xlink:href="#m3beed42470" x="20.5625" y="91.469506" style="stroke: #000000; stroke-width: 0.8"/>
      </g>
     </g>
     <g id="text_11">
      <!-- 4 -->
      <g transform="translate(7.2 95.268725) scale(0.1 -0.1)">
       <use xlink:href="#DejaVuSans-34"/>
      </g>
     </g>
    </g>
   </g>
   <g id="line2d_12">
    <path d="M 51.54312 328.616589 
L 55.761098 328.538767 
L 58.860021 327.205642 
L 59.892995 326.770869 
L 60.925969 326.577632 
L 62.819756 326.480073 
L 65.402191 326.415626 
L 66.090841 326.064588 
L 66.607328 325.589244 
L 67.726383 324.153923 
L 68.328952 322.475012 
L 69.189764 317.338394 
L 70.308819 310.101896 
L 71.08355 304.931861 
L 71.513956 302.102105 
L 72.54693 293.916429 
L 73.063417 289.295185 
L 73.321661 287.466913 
L 73.665985 284.722222 
L 73.924229 282.793562 
L 74.354635 279.755113 
L 75.129366 274.248985 
L 75.47369 271.881612 
L 75.731934 270.294109 
L 76.076259 268.064942 
L 76.420583 266.430759 
L 76.764908 264.504566 
L 77.023152 263.099137 
L 77.367476 261.078953 
L 77.539639 260.352255 
L 78.056126 257.453888 
L 78.400451 255.371722 
L 79.175181 251.834174 
L 80.55248 247.966551 
L 80.724643 245.544182 
L 81.068968 240.917329 
L 81.413292 239.087156 
L 81.757617 238.281945 
L 82.188023 237.911514 
L 82.532348 237.892912 
L 82.962754 238.06577 
L 83.823566 238.731214 
L 84.253972 239.066667 
L 84.426134 235.08619 
L 84.770459 227.851509 
L 84.85654 226.817182 
L 85.028702 218.503925 
L 85.373027 203.107451 
L 85.631271 195.431049 
L 86.061677 175.675016 
L 86.233839 169.744776 
L 86.664245 151.392355 
L 86.836407 146.51611 
L 87.266813 132.784401 
L 87.525057 126.395308 
L 87.955463 117.429067 
L 88.988437 100.926262 
L 90.279655 87.96661 
L 91.570873 79.97094 
L 92.86209 76.305717 
L 93.034253 76.097027 
L 93.378578 75.482377 
L 94.411552 74.870866 
L 95.530607 74.815202 
L 95.788851 74.494336 
L 96.133176 74.289999 
L 96.4775 73.367036 
L 96.649663 73.195606 
L 96.821825 72.057422 
L 97.16615 69.999611 
L 97.252231 69.668907 
L 97.424393 66.835843 
L 97.854799 60.591677 
L 98.285205 58.066221 
L 98.62953 57.303069 
L 98.887774 57.046885 
L 99.146017 57.076993 
L 99.576423 57.326844 
L 101.384128 59.371369 
L 102.24494 60.479275 
L 108.528867 69.100168 
L 110.853059 72.052136 
L 113.435495 75.149666 
L 113.8659 75.391574 
L 114.468469 75.84873 
L 115.673605 77.078509 
L 121.527126 83.001187 
L 124.970374 85.974159 
L 127.466728 87.873517 
L 129.704839 89.372626 
L 131.082138 90.213803 
L 132.287275 91.230454 
L 134.525386 93.484361 
L 140.895394 100.078681 
L 142.272693 101.223311 
L 146.318509 104.899743 
L 148.384457 106.513501 
L 151.311218 109.091328 
L 153.463247 110.687799 
L 155.012709 112.117335 
L 156.390008 113.35886 
L 158.369875 114.990824 
L 160.005418 116.386888 
L 162.243529 117.907539 
L 163.620828 119.161743 
L 165.858939 121.061143 
L 167.064075 122.17329 
L 169.388267 123.998721 
L 169.646511 124.150292 
L 170.162998 124.452103 
L 170.593404 124.780263 
L 174.036651 127.888762 
L 174.63922 128.287287 
L 175.155707 128.607375 
L 175.672194 128.962533 
L 176.016519 129.21866 
L 176.533006 129.630881 
L 177.135574 130.003015 
L 177.996386 130.458914 
L 178.426792 130.727466 
L 183.677745 134.444211 
L 185.227206 135.718756 
L 186.604505 136.806068 
L 187.465317 137.197694 
L 190.650321 139.25535 
L 191.425052 139.787351 
L 192.888432 141.102125 
L 200.893982 148.333738 
L 201.324388 147.078742 
L 201.496551 146.582177 
L 201.840875 144.982681 
L 202.099119 144.337684 
L 202.443444 142.820935 
L 202.701687 142.136416 
L 203.132093 140.406058 
L 203.390337 139.870692 
L 203.906824 138.29001 
L 205.025879 135.113464 
L 205.198042 134.833321 
L 205.628448 133.918754 
L 205.80061 133.721146 
L 206.144935 133.121211 
L 207.005747 132.561293 
L 207.26399 132.358596 
L 207.608315 132.241402 
L 209.157776 131.862936 
L 210.018588 131.982278 
L 210.448994 132.040232 
L 211.481969 132.190869 
L 211.826293 132.029517 
L 211.998456 131.931858 
L 212.34278 131.385594 
L 212.687105 131.097197 
L 213.03143 130.073973 
L 213.203592 129.850159 
L 213.806161 126.698279 
L 214.064404 120.453519 
L 214.408729 114.728124 
L 214.753054 112.223136 
L 215.097378 111.279888 
L 215.441703 111.093178 
L 215.699947 111.16938 
L 217.421571 112.547281 
L 220.26225 115.395158 
L 227.320907 123.263274 
L 228.439963 124.359363 
L 232.313616 127.673966 
L 234.637808 129.132889 
L 235.584701 129.581847 
L 236.445513 130.074765 
L 238.425381 131.641651 
L 239.027949 131.968963 
L 240.060923 132.605041 
L 241.524303 133.663121 
L 245.053632 135.798605 
L 245.742282 136.11181 
L 246.775256 136.935559 
L 247.980393 137.891528 
L 250.390666 139.510502 
L 252.11229 140.460237 
L 253.231345 141.082435 
L 254.866888 141.721029 
L 256.244187 142.43861 
L 257.277161 142.992619 
L 258.482298 143.735997 
L 259.515272 144.336016 
L 263.905413 145.878308 
L 264.335818 145.844595 
L 264.852306 145.923144 
L 265.540955 146.268973 
L 267.004335 147.234369 
L 267.692985 147.561822 
L 268.81204 147.894548 
L 269.328527 147.897629 
L 270.189339 147.957138 
L 270.96407 148.320876 
L 272.771775 149.250808 
L 273.546506 149.345399 
L 274.062993 149.386292 
L 275.009886 149.753352 
L 275.526373 149.856538 
L 276.215022 149.992658 
L 276.73151 150.060196 
L 277.592322 150.194917 
L 278.367052 150.596692 
L 279.916514 151.720543 
L 286.803009 156.857594 
L 287.922064 157.391702 
L 289.988013 158.765786 
L 297.218833 163.636857 
L 298.251807 164.057461 
L 299.715187 164.199645 
L 300.66208 164.070253 
L 302.641947 162.971421 
L 305.568708 158.136691 
L 306.257357 157.072292 
L 306.687763 156.280389 
L 306.859926 156.06309 
L 307.290332 155.287188 
L 307.462494 155.06302 
L 307.8929 154.302879 
L 308.065062 154.082244 
L 308.495468 153.345751 
L 308.839793 152.93794 
L 309.184118 152.433417 
L 309.35628 152.272093 
L 309.786686 151.678505 
L 310.131011 151.312266 
L 310.733579 150.853244 
L 311.077904 150.684612 
L 311.336148 149.17093 
L 311.680472 147.961407 
L 312.024797 147.548196 
L 312.455203 147.457265 
L 312.97169 147.584636 
L 314.348989 148.46559 
L 317.361831 150.553326 
L 323.559676 154.449643 
L 330.962659 159.875007 
L 341.981051 168.301331 
L 352.569037 176.873288 
L 360.230263 183.406912 
L 369.096625 191.398568 
L 376.327445 198.340555 
L 380.975829 203.078318 
L 389.153542 212.004352 
L 397.761661 221.826054 
L 419.798445 248.016017 
L 424.360748 253.648325 
L 431.161162 262.165488 
L 450.012943 286.736695 
L 469.639454 313.411105 
L 471.791483 316.014075 
L 473.340945 317.713907 
L 475.062569 319.317384 
L 477.042436 320.839749 
L 478.850141 321.986736 
L 482.121226 323.58164 
L 484.187175 324.351494 
L 487.45826 325.285044 
L 490.729345 325.968049 
L 493.742186 326.443054 
L 498.562733 326.988861 
L 505.535309 327.489991 
L 514.659915 327.869298 
L 527.141688 328.146017 
L 547.629011 328.356879 
L 584.816084 328.496598 
L 671.155517 328.577227 
L 671.155517 328.577227 
" clip-path="url(#p19bb3b3c19)" style="fill: none; stroke: #1f77b4; stroke-width: 1.5; stroke-linecap: square"/>
   </g>
   <g id="line2d_13">
    <path d="M 51.54312 328.616589 
L 52.490013 328.525686 
L 53.609068 328.086166 
L 58.429615 325.495463 
L 59.118264 325.05386 
L 59.806914 324.820793 
L 60.753807 324.723465 
L 63.508405 324.783581 
L 64.541379 324.722249 
L 65.230029 324.439734 
L 66.607328 323.132504 
L 68.328952 320.535483 
L 69.275845 318.287121 
L 69.706251 317.194365 
L 70.136657 316.210398 
L 70.825306 314.286439 
L 71.341793 312.61059 
L 72.030443 310.167186 
L 72.977336 305.008931 
L 74.096391 299.21812 
L 74.957203 294.456657 
L 75.129366 293.69122 
L 75.645853 290.778649 
L 79.863831 269.308394 
L 80.724643 266.525741 
L 81.327211 259.684163 
L 81.757617 257.256925 
L 82.188023 256.223342 
L 82.532348 255.92841 
L 82.876673 255.911318 
L 83.479241 256.17556 
L 84.253972 256.740881 
L 84.340053 256.979734 
L 84.426134 256.274122 
L 86.406001 214.026197 
L 86.836407 205.315173 
L 88.558031 174.786018 
L 89.074518 168.25666 
L 90.365736 153.565811 
L 92.259522 138.333113 
L 92.776009 135.180224 
L 93.636821 130.847882 
L 94.928039 125.69587 
L 95.100201 124.859805 
L 95.530607 122.933519 
L 95.788851 121.049954 
L 96.821825 112.870741 
L 98.285205 89.111247 
L 98.62953 87.132472 
L 99.059936 85.806697 
L 99.662504 85.23026 
L 100.78156 85.331075 
L 101.039803 85.515098 
L 101.298047 85.723539 
L 101.642372 85.958477 
L 102.24494 86.848378 
L 104.224807 90.8963 
L 106.721162 95.938069 
L 112.488601 106.27631 
L 113.607657 107.971908 
L 114.124144 106.769915 
L 114.468469 106.519983 
L 114.726712 106.629553 
L 115.2432 107.067086 
L 116.792661 109.103031 
L 121.09672 113.976051 
L 121.441045 114.260182 
L 121.78537 114.53356 
L 122.646182 115.183983 
L 123.076588 115.544241 
L 125.40078 116.758705 
L 125.745105 116.837001 
L 126.089429 117.035897 
L 126.433754 117.120704 
L 126.605916 117.227234 
L 126.950241 117.181651 
L 127.294566 117.260351 
L 127.55281 117.209605 
L 127.897134 117.249999 
L 128.155378 117.166983 
L 128.499703 117.171148 
L 128.844027 117.064907 
L 129.188352 117.113307 
L 129.532677 117.016818 
L 129.704839 117.050686 
L 130.049164 116.788856 
L 130.393489 116.686353 
L 130.737813 116.454993 
L 131.598625 116.712758 
L 132.029031 117.185179 
L 133.234168 119.205983 
L 135.816604 124.439082 
L 139.690257 132.193261 
L 140.378907 132.5916 
L 140.63715 132.593833 
L 140.895394 132.630056 
L 141.239719 132.670693 
L 142.272693 133.48958 
L 143.477829 135.031359 
L 145.199453 136.569945 
L 146.318509 137.735755 
L 146.576752 137.740652 
L 146.834996 137.787057 
L 147.093239 137.851638 
L 147.437564 137.908407 
L 149.073107 139.153433 
L 149.675675 139.684604 
L 150.02 139.813324 
L 150.450406 140.241695 
L 151.139055 140.973867 
L 151.397299 141.207866 
L 151.827705 141.024025 
L 153.63541 141.647505 
L 154.237978 142.258122 
L 155.873521 144.303361 
L 156.217845 144.432825 
L 156.820414 144.837477 
L 156.992576 144.996206 
L 157.422982 144.906142 
L 157.939469 145.192974 
L 158.542037 145.921693 
L 159.402849 147.000931 
L 159.833255 146.824632 
L 160.694067 146.949066 
L 161.038392 146.810064 
L 161.382717 146.766777 
L 161.727041 146.575009 
L 162.071366 146.71574 
L 163.362584 147.94903 
L 163.965152 148.608833 
L 165.342451 149.318289 
L 166.117182 150.319611 
L 166.461507 150.669972 
L 167.666643 151.375136 
L 168.010968 151.387307 
L 168.441374 151.735293 
L 168.785699 152.025525 
L 169.130024 152.082463 
L 169.474348 152.186298 
L 169.818673 152.114773 
L 170.076917 152.112483 
L 170.421242 152.088923 
L 170.851647 152.378804 
L 172.831515 154.574656 
L 173.261921 155.109221 
L 173.864489 155.488424 
L 174.208814 155.571267 
L 174.467057 155.519941 
L 174.725301 155.53683 
L 174.897463 155.589495 
L 175.327869 155.41578 
L 175.844356 155.634896 
L 176.791249 156.203775 
L 177.221655 156.058864 
L 177.393818 156.07256 
L 177.824224 155.763977 
L 178.082467 155.719524 
L 178.426792 155.711698 
L 178.771117 155.808183 
L 179.115442 155.759899 
L 180.492741 156.341727 
L 180.923147 156.092576 
L 181.353552 156.218952 
L 183.075176 157.347395 
L 183.505582 157.604218 
L 184.022069 158.210234 
L 184.280313 158.43963 
L 184.710719 158.621483 
L 185.571531 159.511728 
L 186.174099 160.18731 
L 186.518424 160.12884 
L 186.690586 160.137828 
L 187.120992 159.720945 
L 187.465317 159.748715 
L 187.809642 160.013149 
L 188.326129 160.446378 
L 188.842616 160.826763 
L 189.789509 161.468786 
L 190.219915 161.170361 
L 190.56424 161.086198 
L 190.908564 161.146074 
L 191.33897 161.547612 
L 192.113701 162.673583 
L 200.893982 176.915034 
L 200.980064 176.664512 
L 202.271281 164.117855 
L 202.701687 159.756887 
L 203.906824 149.103984 
L 204.078986 148.092456 
L 204.509392 144.664132 
L 204.681555 143.749412 
L 205.111961 140.700388 
L 205.284123 139.903416 
L 205.714529 137.239518 
L 205.886691 136.557686 
L 206.317097 134.242252 
L 206.747503 132.662854 
L 207.091828 131.570658 
L 208.813452 126.380656 
L 208.985614 126.134202 
L 209.41602 125.1562 
L 209.760345 124.781641 
L 210.10467 124.294488 
L 210.276832 124.189038 
L 210.621157 123.661132 
L 210.965481 123.401033 
L 211.309806 123.095861 
L 211.395887 123.128768 
L 211.56805 122.643424 
L 211.912374 121.550892 
L 211.998456 121.44676 
L 212.170618 120.502965 
L 212.601024 118.231641 
L 212.687105 118.066064 
L 212.859268 116.610778 
L 213.633998 107.4893 
L 214.064404 99.983129 
L 214.49481 89.018942 
L 214.925216 83.691316 
L 215.269541 81.988303 
L 215.527784 81.41282 
L 215.786028 81.326237 
L 216.216434 81.467783 
L 217.077246 82.512011 
L 217.593733 83.25066 
L 218.626707 85.064162 
L 220.26225 88.958884 
L 225.427121 101.225844 
L 227.148745 104.955107 
L 228.009557 106.328 
L 228.439963 106.856412 
L 229.042531 107.491349 
L 229.559018 108.19487 
L 231.366723 110.811528 
L 231.797129 111.195133 
L 232.055373 111.377314 
L 232.399697 111.470051 
L 233.776996 112.53132 
L 234.121321 112.438326 
L 234.637808 112.479886 
L 234.896052 112.435504 
L 235.068214 112.47349 
L 235.412539 112.272296 
L 236.273351 112.461517 
L 236.617676 112.712495 
L 237.478488 113.864556 
L 238.167137 114.660809 
L 238.597543 114.825523 
L 238.769705 114.941922 
L 239.11403 114.803096 
L 239.888761 115.048454 
L 240.405248 115.71436 
L 240.749573 116.148676 
L 241.093897 116.310785 
L 241.352141 116.462093 
L 241.696466 116.639496 
L 242.299034 117.366203 
L 242.471197 117.591638 
L 242.901602 117.566332 
L 243.073765 117.62676 
L 243.41809 117.436549 
L 243.676333 117.528118 
L 244.106739 117.963813 
L 244.451064 118.322701 
L 244.795389 118.430411 
L 244.967551 118.520202 
L 245.397957 118.249148 
L 245.828363 118.426722 
L 246.258769 118.930939 
L 246.947418 120.050227 
L 247.549987 120.96136 
L 247.894311 121.097517 
L 248.324717 121.551456 
L 249.529854 123.104107 
L 250.218503 123.292285 
L 250.562828 123.389651 
L 250.907153 123.500564 
L 253.145264 125.271083 
L 253.489589 125.243117 
L 253.661751 125.301133 
L 254.006076 125.190702 
L 254.694725 125.460854 
L 254.952969 125.60795 
L 255.297294 125.745288 
L 255.641618 125.9479 
L 255.985943 126.230388 
L 256.846755 127.198129 
L 257.19108 127.244573 
L 257.707567 127.667765 
L 259.34311 129.678572 
L 259.687434 129.638505 
L 259.945678 129.678558 
L 260.290003 129.755223 
L 261.150814 130.313961 
L 261.495139 130.275928 
L 262.097708 130.682402 
L 262.442032 131.01009 
L 262.786357 131.17219 
L 263.044601 131.278494 
L 263.388925 131.329865 
L 263.561088 131.399671 
L 263.991494 131.097738 
L 264.163656 131.077244 
L 264.507981 130.677526 
L 264.766224 130.647055 
L 265.110549 130.849737 
L 265.971361 131.891504 
L 267.34866 133.771516 
L 267.692985 133.873796 
L 268.03731 134.015119 
L 268.381634 134.239261 
L 268.553797 134.378225 
L 268.984203 134.225331 
L 269.156365 134.240128 
L 269.50069 133.897058 
L 270.27542 133.770641 
L 270.705826 134.170437 
L 271.738801 135.437857 
L 272.169207 135.654511 
L 272.685694 136.293265 
L 272.857856 136.508126 
L 273.288262 136.411527 
L 273.460424 136.435965 
L 273.804749 136.134664 
L 274.062993 136.144794 
L 274.407318 136.367456 
L 275.009886 136.870941 
L 275.440292 137.055294 
L 275.784617 136.944055 
L 276.387185 137.193553 
L 276.559347 137.315239 
L 276.989753 137.072701 
L 277.764484 137.322712 
L 278.280971 138.029596 
L 279.486108 140.213916 
L 285.597872 151.564302 
L 286.458684 153.054461 
L 286.975171 152.975815 
L 287.319496 153.22239 
L 287.922064 154.027352 
L 289.471526 156.659554 
L 292.140042 161.145101 
L 292.65653 161.557216 
L 293.345179 162.486904 
L 297.04667 168.005397 
L 298.423969 168.754005 
L 299.801268 168.705608 
L 300.317755 168.480118 
L 300.575999 168.320693 
L 300.748161 168.269788 
L 301.178567 167.765634 
L 301.35073 167.672032 
L 301.781136 167.029653 
L 301.953298 166.895306 
L 302.383704 166.110839 
L 302.641947 165.891627 
L 303.072353 164.4024 
L 303.244516 163.98064 
L 303.674922 162.107257 
L 303.847084 161.603577 
L 304.27749 159.62198 
L 304.449652 159.098244 
L 304.880058 157.094926 
L 305.052221 156.569073 
L 305.482627 154.557488 
L 305.826951 153.469554 
L 306.171276 152.086526 
L 306.343439 151.603229 
L 306.773845 149.671364 
L 306.946007 149.166652 
L 307.376413 147.20917 
L 307.548575 146.701155 
L 307.978981 144.744144 
L 308.151144 144.238363 
L 308.581549 142.278656 
L 308.925874 141.233012 
L 309.270199 139.891001 
L 309.442361 139.446638 
L 309.872767 137.825274 
L 310.04493 137.450295 
L 310.475336 136.169995 
L 310.647498 135.905437 
L 310.991823 135.118728 
L 311.163985 135.086102 
L 311.336148 133.555449 
L 311.766553 129.139043 
L 312.196959 127.005901 
L 312.455203 126.498485 
L 312.799528 126.306154 
L 313.057771 126.439233 
L 313.488177 126.985939 
L 317.620074 133.462908 
L 322.268458 140.008158 
L 325.195219 145.421771 
L 327.863736 150.156053 
L 333.545094 160.175088 
L 338.623884 168.659115 
L 343.702674 176.715821 
L 348.867546 184.493027 
L 354.032417 191.872046 
L 359.28337 198.986862 
L 364.534322 205.731495 
L 369.871356 212.2272 
L 375.294471 218.47606 
L 380.717586 224.389424 
L 386.226782 230.071661 
L 391.822059 235.525693 
L 397.503417 240.754863 
L 403.270857 245.762903 
L 409.124378 250.553898 
L 415.150061 255.19659 
L 421.261826 259.623624 
L 427.459671 263.840484 
L 433.829679 267.90606 
L 440.371849 271.816061 
L 447.086182 275.56726 
L 453.972677 279.157446 
L 461.031335 282.585374 
L 468.262155 285.850704 
L 475.751218 288.988673 
L 483.498525 291.992759 
L 491.504076 294.857941 
L 499.853951 297.607811 
L 508.46207 300.208435 
L 517.500595 302.704687 
L 526.883444 305.064257 
L 536.6967 307.302517 
L 547.026442 309.429174 
L 557.872672 311.434182 
L 569.32147 313.323732 
L 581.458918 315.100535 
L 594.371096 316.764703 
L 608.230168 318.323626 
L 623.036132 319.763215 
L 639.047233 321.094277 
L 656.435633 322.314171 
L 671.155517 323.190886 
L 671.155517 323.190886 
" clip-path="url(#p19bb3b3c19)" style="fill: none; stroke: #ff7f0e; stroke-width: 1.5; stroke-linecap: square"/>
   </g>
   <g id="patch_3">
    <path d="M 20.5625 342.2 
L 20.5625 43.44 
" style="fill: none; stroke: #000000; stroke-width: 0.8; stroke-linejoin: miter; stroke-linecap: square"/>
   </g>
   <g id="patch_4">
    <path d="M 702.136136 342.2 
L 702.136136 43.44 
" style="fill: none; stroke: #000000; stroke-width: 0.8; stroke-linejoin: miter; stroke-linecap: square"/>
   </g>
   <g id="patch_5">
    <path d="M 20.5625 342.2 
L 702.136136 342.2 
" style="fill: none; stroke: #000000; stroke-width: 0.8; stroke-linejoin: miter; stroke-linecap: square"/>
   </g>
   <g id="patch_6">
    <path d="M 20.5625 43.44 
L 702.136136 43.44 
" style="fill: none; stroke: #000000; stroke-width: 0.8; stroke-linejoin: miter; stroke-linecap: square"/>
   </g>
   <g id="text_12">
    <!-- 1 transformation(s) -->
    <g transform="translate(303.234631 37.44) scale(0.12 -0.12)">
     <defs>
      <path id="DejaVuSans-20" transform="scale(0.015625)"/>
      <path id="DejaVuSans-74" d="M 1172 4494 
L 1172 3500 
L 2356 3500 
L 2356 3053 
L 1172 3053 
L 1172 1153 
Q 1172 725 1289 603 
Q 1406 481 1766 481 
L 2356 481 
L 2356 0 
L 1766 0 
Q 1100 0 847 248 
Q 594 497 594 1153 
L 594 3053 
L 172 3053 
L 172 3500 
L 594 3500 
L 594 4494 
L 1172 4494 
z
" transform="scale(0.015625)"/>
      <path id="DejaVuSans-72" d="M 2631 2963 
Q 2534 3019 2420 3045 
Q 2306 3072 2169 3072 
Q 1681 3072 1420 2755 
Q 1159 2438 1159 1844 
L 1159 0 
L 581 0 
L 581 3500 
L 1159 3500 
L 1159 2956 
Q 1341 3275 1631 3429 
Q 1922 3584 2338 3584 
Q 2397 3584 2469 3576 
Q 2541 3569 2628 3553 
L 2631 2963 
z
" transform="scale(0.015625)"/>
      <path id="DejaVuSans-61" d="M 2194 1759 
Q 1497 1759 1228 1600 
Q 959 1441 959 1056 
Q 959 750 1161 570 
Q 1363 391 1709 391 
Q 2188 391 2477 730 
Q 2766 1069 2766 1631 
L 2766 1759 
L 2194 1759 
z
M 3341 1997 
L 3341 0 
L 2766 0 
L 2766 531 
Q 2569 213 2275 61 
Q 1981 -91 1556 -91 
Q 1019 -91 701 211 
Q 384 513 384 1019 
Q 384 1609 779 1909 
Q 1175 2209 1959 2209 
L 2766 2209 
L 2766 2266 
Q 2766 2663 2505 2880 
Q 2244 3097 1772 3097 
Q 1472 3097 1187 3025 
Q 903 2953 641 2809 
L 641 3341 
Q 956 3463 1253 3523 
Q 1550 3584 1831 3584 
Q 2591 3584 2966 3190 
Q 3341 2797 3341 1997 
z
" transform="scale(0.015625)"/>
      <path id="DejaVuSans-6e" d="M 3513 2113 
L 3513 0 
L 2938 0 
L 2938 2094 
Q 2938 2591 2744 2837 
Q 2550 3084 2163 3084 
Q 1697 3084 1428 2787 
Q 1159 2491 1159 1978 
L 1159 0 
L 581 0 
L 581 3500 
L 1159 3500 
L 1159 2956 
Q 1366 3272 1645 3428 
Q 1925 3584 2291 3584 
Q 2894 3584 3203 3211 
Q 3513 2838 3513 2113 
z
" transform="scale(0.015625)"/>
      <path id="DejaVuSans-73" d="M 2834 3397 
L 2834 2853 
Q 2591 2978 2328 3040 
Q 2066 3103 1784 3103 
Q 1356 3103 1142 2972 
Q 928 2841 928 2578 
Q 928 2378 1081 2264 
Q 1234 2150 1697 2047 
L 1894 2003 
Q 2506 1872 2764 1633 
Q 3022 1394 3022 966 
Q 3022 478 2636 193 
Q 2250 -91 1575 -91 
Q 1294 -91 989 -36 
Q 684 19 347 128 
L 347 722 
Q 666 556 975 473 
Q 1284 391 1588 391 
Q 1994 391 2212 530 
Q 2431 669 2431 922 
Q 2431 1156 2273 1281 
Q 2116 1406 1581 1522 
L 1381 1569 
Q 847 1681 609 1914 
Q 372 2147 372 2553 
Q 372 3047 722 3315 
Q 1072 3584 1716 3584 
Q 2034 3584 2315 3537 
Q 2597 3491 2834 3397 
z
" transform="scale(0.015625)"/>
      <path id="DejaVuSans-66" d="M 2375 4863 
L 2375 4384 
L 1825 4384 
Q 1516 4384 1395 4259 
Q 1275 4134 1275 3809 
L 1275 3500 
L 2222 3500 
L 2222 3053 
L 1275 3053 
L 1275 0 
L 697 0 
L 697 3053 
L 147 3053 
L 147 3500 
L 697 3500 
L 697 3744 
Q 697 4328 969 4595 
Q 1241 4863 1831 4863 
L 2375 4863 
z
" transform="scale(0.015625)"/>
      <path id="DejaVuSans-6f" d="M 1959 3097 
Q 1497 3097 1228 2736 
Q 959 2375 959 1747 
Q 959 1119 1226 758 
Q 1494 397 1959 397 
Q 2419 397 2687 759 
Q 2956 1122 2956 1747 
Q 2956 2369 2687 2733 
Q 2419 3097 1959 3097 
z
M 1959 3584 
Q 2709 3584 3137 3096 
Q 3566 2609 3566 1747 
Q 3566 888 3137 398 
Q 2709 -91 1959 -91 
Q 1206 -91 779 398 
Q 353 888 353 1747 
Q 353 2609 779 3096 
Q 1206 3584 1959 3584 
z
" transform="scale(0.015625)"/>
      <path id="DejaVuSans-6d" d="M 3328 2828 
Q 3544 3216 3844 3400 
Q 4144 3584 4550 3584 
Q 5097 3584 5394 3201 
Q 5691 2819 5691 2113 
L 5691 0 
L 5113 0 
L 5113 2094 
Q 5113 2597 4934 2840 
Q 4756 3084 4391 3084 
Q 3944 3084 3684 2787 
Q 3425 2491 3425 1978 
L 3425 0 
L 2847 0 
L 2847 2094 
Q 2847 2600 2669 2842 
Q 2491 3084 2119 3084 
Q 1678 3084 1418 2786 
Q 1159 2488 1159 1978 
L 1159 0 
L 581 0 
L 581 3500 
L 1159 3500 
L 1159 2956 
Q 1356 3278 1631 3431 
Q 1906 3584 2284 3584 
Q 2666 3584 2933 3390 
Q 3200 3197 3328 2828 
z
" transform="scale(0.015625)"/>
      <path id="DejaVuSans-69" d="M 603 3500 
L 1178 3500 
L 1178 0 
L 603 0 
L 603 3500 
z
M 603 4863 
L 1178 4863 
L 1178 4134 
L 603 4134 
L 603 4863 
z
" transform="scale(0.015625)"/>
      <path id="DejaVuSans-28" d="M 1984 4856 
Q 1566 4138 1362 3434 
Q 1159 2731 1159 2009 
Q 1159 1288 1364 580 
Q 1569 -128 1984 -844 
L 1484 -844 
Q 1016 -109 783 600 
Q 550 1309 550 2009 
Q 550 2706 781 3412 
Q 1013 4119 1484 4856 
L 1984 4856 
z
" transform="scale(0.015625)"/>
      <path id="DejaVuSans-29" d="M 513 4856 
L 1013 4856 
Q 1481 4119 1714 3412 
Q 1947 2706 1947 2009 
Q 1947 1309 1714 600 
Q 1481 -109 1013 -844 
L 513 -844 
Q 928 -128 1133 580 
Q 1338 1288 1338 2009 
Q 1338 2731 1133 3434 
Q 928 4138 513 4856 
z
" transform="scale(0.015625)"/>
     </defs>
     <use xlink:href="#DejaVuSans-31"/>
     <use xlink:href="#DejaVuSans-20" x="63.623047"/>
     <use xlink:href="#DejaVuSans-74" x="95.410156"/>
     <use xlink:href="#DejaVuSans-72" x="134.619141"/>
     <use xlink:href="#DejaVuSans-61" x="175.732422"/>
     <use xlink:href="#DejaVuSans-6e" x="237.011719"/>
     <use xlink:href="#DejaVuSans-73" x="300.390625"/>
     <use xlink:href="#DejaVuSans-66" x="352.490234"/>
     <use xlink:href="#DejaVuSans-6f" x="387.695312"/>
     <use xlink:href="#DejaVuSans-72" x="448.876953"/>
     <use xlink:href="#DejaVuSans-6d" x="488.240234"/>
     <use xlink:href="#DejaVuSans-61" x="585.652344"/>
     <use xlink:href="#DejaVuSans-74" x="646.931641"/>
     <use xlink:href="#DejaVuSans-69" x="686.140625"/>
     <use xlink:href="#DejaVuSans-6f" x="713.923828"/>
     <use xlink:href="#DejaVuSans-6e" x="775.105469"/>
     <use xlink:href="#DejaVuSans-28" x="838.484375"/>
     <use xlink:href="#DejaVuSans-73" x="877.498047"/>
     <use xlink:href="#DejaVuSans-29" x="929.597656"/>
    </g>
   </g>
   <g id="legend_1">
    <g id="patch_7">
     <path d="M 613.742386 80.79625 
L 695.136136 80.79625 
Q 697.136136 80.79625 697.136136 78.79625 
L 697.136136 50.44 
Q 697.136136 48.44 695.136136 48.44 
L 613.742386 48.44 
Q 611.742386 48.44 611.742386 50.44 
L 611.742386 78.79625 
Q 611.742386 80.79625 613.742386 80.79625 
z
" style="fill: #ffffff; opacity: 0.8; stroke: #cccccc; stroke-linejoin: miter"/>
    </g>
    <g id="line2d_14">
     <path d="M 615.742386 56.538437 
L 625.742386 56.538437 
L 635.742386 56.538437 
" style="fill: none; stroke: #1f77b4; stroke-width: 1.5; stroke-linecap: square"/>
    </g>
    <g id="text_13">
     <!-- observed -->
     <g transform="translate(643.742386 60.038437) scale(0.1 -0.1)">
      <defs>
       <path id="DejaVuSans-62" d="M 3116 1747 
Q 3116 2381 2855 2742 
Q 2594 3103 2138 3103 
Q 1681 3103 1420 2742 
Q 1159 2381 1159 1747 
Q 1159 1113 1420 752 
Q 1681 391 2138 391 
Q 2594 391 2855 752 
Q 3116 1113 3116 1747 
z
M 1159 2969 
Q 1341 3281 1617 3432 
Q 1894 3584 2278 3584 
Q 2916 3584 3314 3078 
Q 3713 2572 3713 1747 
Q 3713 922 3314 415 
Q 2916 -91 2278 -91 
Q 1894 -91 1617 61 
Q 1341 213 1159 525 
L 1159 0 
L 581 0 
L 581 4863 
L 1159 4863 
L 1159 2969 
z
" transform="scale(0.015625)"/>
       <path id="DejaVuSans-65" d="M 3597 1894 
L 3597 1613 
L 953 1613 
Q 991 1019 1311 708 
Q 1631 397 2203 397 
Q 2534 397 2845 478 
Q 3156 559 3463 722 
L 3463 178 
Q 3153 47 2828 -22 
Q 2503 -91 2169 -91 
Q 1331 -91 842 396 
Q 353 884 353 1716 
Q 353 2575 817 3079 
Q 1281 3584 2069 3584 
Q 2775 3584 3186 3129 
Q 3597 2675 3597 1894 
z
M 3022 2063 
Q 3016 2534 2758 2815 
Q 2500 3097 2075 3097 
Q 1594 3097 1305 2825 
Q 1016 2553 972 2059 
L 3022 2063 
z
" transform="scale(0.015625)"/>
       <path id="DejaVuSans-76" d="M 191 3500 
L 800 3500 
L 1894 563 
L 2988 3500 
L 3597 3500 
L 2284 0 
L 1503 0 
L 191 3500 
z
" transform="scale(0.015625)"/>
       <path id="DejaVuSans-64" d="M 2906 2969 
L 2906 4863 
L 3481 4863 
L 3481 0 
L 2906 0 
L 2906 525 
Q 2725 213 2448 61 
Q 2172 -91 1784 -91 
Q 1150 -91 751 415 
Q 353 922 353 1747 
Q 353 2572 751 3078 
Q 1150 3584 1784 3584 
Q 2172 3584 2448 3432 
Q 2725 3281 2906 2969 
z
M 947 1747 
Q 947 1113 1208 752 
Q 1469 391 1925 391 
Q 2381 391 2643 752 
Q 2906 1113 2906 1747 
Q 2906 2381 2643 2742 
Q 2381 3103 1925 3103 
Q 1469 3103 1208 2742 
Q 947 2381 947 1747 
z
" transform="scale(0.015625)"/>
      </defs>
      <use xlink:href="#DejaVuSans-6f"/>
      <use xlink:href="#DejaVuSans-62" x="61.181641"/>
      <use xlink:href="#DejaVuSans-73" x="124.658203"/>
      <use xlink:href="#DejaVuSans-65" x="176.757812"/>
      <use xlink:href="#DejaVuSans-72" x="238.28125"/>
      <use xlink:href="#DejaVuSans-76" x="279.394531"/>
      <use xlink:href="#DejaVuSans-65" x="338.574219"/>
      <use xlink:href="#DejaVuSans-64" x="400.097656"/>
     </g>
    </g>
    <g id="line2d_15">
     <path d="M 615.742386 71.216563 
L 625.742386 71.216563 
L 635.742386 71.216563 
" style="fill: none; stroke: #ff7f0e; stroke-width: 1.5; stroke-linecap: square"/>
    </g>
    <g id="text_14">
     <!-- simulated -->
     <g transform="translate(643.742386 74.716563) scale(0.1 -0.1)">
      <defs>
       <path id="DejaVuSans-75" d="M 544 1381 
L 544 3500 
L 1119 3500 
L 1119 1403 
Q 1119 906 1312 657 
Q 1506 409 1894 409 
Q 2359 409 2629 706 
Q 2900 1003 2900 1516 
L 2900 3500 
L 3475 3500 
L 3475 0 
L 2900 0 
L 2900 538 
Q 2691 219 2414 64 
Q 2138 -91 1772 -91 
Q 1169 -91 856 284 
Q 544 659 544 1381 
z
M 1991 3584 
L 1991 3584 
z
" transform="scale(0.015625)"/>
       <path id="DejaVuSans-6c" d="M 603 4863 
L 1178 4863 
L 1178 0 
L 603 0 
L 603 4863 
z
" transform="scale(0.015625)"/>
      </defs>
      <use xlink:href="#DejaVuSans-73"/>
      <use xlink:href="#DejaVuSans-69" x="52.099609"/>
      <use xlink:href="#DejaVuSans-6d" x="79.882812"/>
      <use xlink:href="#DejaVuSans-75" x="177.294922"/>
      <use xlink:href="#DejaVuSans-6c" x="240.673828"/>
      <use xlink:href="#DejaVuSans-61" x="268.457031"/>
      <use xlink:href="#DejaVuSans-74" x="329.736328"/>
      <use xlink:href="#DejaVuSans-65" x="368.945312"/>
      <use xlink:href="#DejaVuSans-64" x="430.46875"/>
     </g>
    </g>
   </g>
  </g>
  <g id="axes_2">
   <g id="patch_8">
    <path d="M 20.5625 684.92 
L 702.136136 684.92 
L 702.136136 386.16 
L 20.5625 386.16 
z
" style="fill: #ffffff"/>
   </g>
   <g id="matplotlib.axis_3">
    <g id="xtick_7">
     <g id="line2d_16">
      <g>
       <use xlink:href="#m602ec7c7a4" x="51.370957" y="684.92" style="stroke: #000000; stroke-width: 0.8"/>
      </g>
     </g>
     <g id="text_15">
      <!-- 2014-07-01 -->
      <g transform="translate(22.313145 699.518437) scale(0.1 -0.1)">
       <use xlink:href="#DejaVuSans-32"/>
       <use xlink:href="#DejaVuSans-30" x="63.623047"/>
       <use xlink:href="#DejaVuSans-31" x="127.246094"/>
       <use xlink:href="#DejaVuSans-34" x="190.869141"/>
       <use xlink:href="#DejaVuSans-2d" x="254.492188"/>
       <use xlink:href="#DejaVuSans-30" x="290.576172"/>
       <use xlink:href="#DejaVuSans-37" x="354.199219"/>
       <use xlink:href="#DejaVuSans-2d" x="417.822266"/>
       <use xlink:href="#DejaVuSans-30" x="453.90625"/>
       <use xlink:href="#DejaVuSans-31" x="517.529297"/>
      </g>
     </g>
    </g>
    <g id="xtick_8">
     <g id="line2d_17">
      <g>
       <use xlink:href="#m602ec7c7a4" x="175.327869" y="684.92" style="stroke: #000000; stroke-width: 0.8"/>
      </g>
     </g>
     <g id="text_16">
      <!-- 2014-07-02 -->
      <g transform="translate(146.270057 699.518437) scale(0.1 -0.1)">
       <use xlink:href="#DejaVuSans-32"/>
       <use xlink:href="#DejaVuSans-30" x="63.623047"/>
       <use xlink:href="#DejaVuSans-31" x="127.246094"/>
       <use xlink:href="#DejaVuSans-34" x="190.869141"/>
       <use xlink:href="#DejaVuSans-2d" x="254.492188"/>
       <use xlink:href="#DejaVuSans-30" x="290.576172"/>
       <use xlink:href="#DejaVuSans-37" x="354.199219"/>
       <use xlink:href="#DejaVuSans-2d" x="417.822266"/>
       <use xlink:href="#DejaVuSans-30" x="453.90625"/>
       <use xlink:href="#DejaVuSans-32" x="517.529297"/>
      </g>
     </g>
    </g>
    <g id="xtick_9">
     <g id="line2d_18">
      <g>
       <use xlink:href="#m602ec7c7a4" x="299.284781" y="684.92" style="stroke: #000000; stroke-width: 0.8"/>
      </g>
     </g>
     <g id="text_17">
      <!-- 2014-07-03 -->
      <g transform="translate(270.226969 699.518437) scale(0.1 -0.1)">
       <use xlink:href="#DejaVuSans-32"/>
       <use xlink:href="#DejaVuSans-30" x="63.623047"/>
       <use xlink:href="#DejaVuSans-31" x="127.246094"/>
       <use xlink:href="#DejaVuSans-34" x="190.869141"/>
       <use xlink:href="#DejaVuSans-2d" x="254.492188"/>
       <use xlink:href="#DejaVuSans-30" x="290.576172"/>
       <use xlink:href="#DejaVuSans-37" x="354.199219"/>
       <use xlink:href="#DejaVuSans-2d" x="417.822266"/>
       <use xlink:href="#DejaVuSans-30" x="453.90625"/>
       <use xlink:href="#DejaVuSans-33" x="517.529297"/>
      </g>
     </g>
    </g>
    <g id="xtick_10">
     <g id="line2d_19">
      <g>
       <use xlink:href="#m602ec7c7a4" x="423.241693" y="684.92" style="stroke: #000000; stroke-width: 0.8"/>
      </g>
     </g>
     <g id="text_18">
      <!-- 2014-07-04 -->
      <g transform="translate(394.18388 699.518437) scale(0.1 -0.1)">
       <use xlink:href="#DejaVuSans-32"/>
       <use xlink:href="#DejaVuSans-30" x="63.623047"/>
       <use xlink:href="#DejaVuSans-31" x="127.246094"/>
       <use xlink:href="#DejaVuSans-34" x="190.869141"/>
       <use xlink:href="#DejaVuSans-2d" x="254.492188"/>
       <use xlink:href="#DejaVuSans-30" x="290.576172"/>
       <use xlink:href="#DejaVuSans-37" x="354.199219"/>
       <use xlink:href="#DejaVuSans-2d" x="417.822266"/>
       <use xlink:href="#DejaVuSans-30" x="453.90625"/>
       <use xlink:href="#DejaVuSans-34" x="517.529297"/>
      </g>
     </g>
    </g>
    <g id="xtick_11">
     <g id="line2d_20">
      <g>
       <use xlink:href="#m602ec7c7a4" x="547.198605" y="684.92" style="stroke: #000000; stroke-width: 0.8"/>
      </g>
     </g>
     <g id="text_19">
      <!-- 2014-07-05 -->
      <g transform="translate(518.140792 699.518437) scale(0.1 -0.1)">
       <use xlink:href="#DejaVuSans-32"/>
       <use xlink:href="#DejaVuSans-30" x="63.623047"/>
       <use xlink:href="#DejaVuSans-31" x="127.246094"/>
       <use xlink:href="#DejaVuSans-34" x="190.869141"/>
       <use xlink:href="#DejaVuSans-2d" x="254.492188"/>
       <use xlink:href="#DejaVuSans-30" x="290.576172"/>
       <use xlink:href="#DejaVuSans-37" x="354.199219"/>
       <use xlink:href="#DejaVuSans-2d" x="417.822266"/>
       <use xlink:href="#DejaVuSans-30" x="453.90625"/>
       <use xlink:href="#DejaVuSans-35" x="517.529297"/>
      </g>
     </g>
    </g>
    <g id="xtick_12">
     <g id="line2d_21">
      <g>
       <use xlink:href="#m602ec7c7a4" x="671.155517" y="684.92" style="stroke: #000000; stroke-width: 0.8"/>
      </g>
     </g>
     <g id="text_20">
      <!-- 2014-07-06 -->
      <g transform="translate(642.097704 699.518437) scale(0.1 -0.1)">
       <use xlink:href="#DejaVuSans-32"/>
       <use xlink:href="#DejaVuSans-30" x="63.623047"/>
       <use xlink:href="#DejaVuSans-31" x="127.246094"/>
       <use xlink:href="#DejaVuSans-34" x="190.869141"/>
       <use xlink:href="#DejaVuSans-2d" x="254.492188"/>
       <use xlink:href="#DejaVuSans-30" x="290.576172"/>
       <use xlink:href="#DejaVuSans-37" x="354.199219"/>
       <use xlink:href="#DejaVuSans-2d" x="417.822266"/>
       <use xlink:href="#DejaVuSans-30" x="453.90625"/>
       <use xlink:href="#DejaVuSans-36" x="517.529297"/>
      </g>
     </g>
    </g>
   </g>
   <g id="matplotlib.axis_4">
    <g id="ytick_6">
     <g id="line2d_22">
      <g>
       <use xlink:href="#m3beed42470" x="20.5625" y="671.339286" style="stroke: #000000; stroke-width: 0.8"/>
      </g>
     </g>
     <g id="text_21">
      <!-- 0 -->
      <g transform="translate(7.2 675.138504) scale(0.1 -0.1)">
       <use xlink:href="#DejaVuSans-30"/>
      </g>
     </g>
    </g>
    <g id="ytick_7">
     <g id="line2d_23">
      <g>
       <use xlink:href="#m3beed42470" x="20.5625" y="612.051926" style="stroke: #000000; stroke-width: 0.8"/>
      </g>
     </g>
     <g id="text_22">
      <!-- 1 -->
      <g transform="translate(7.2 615.851145) scale(0.1 -0.1)">
       <use xlink:href="#DejaVuSans-31"/>
      </g>
     </g>
    </g>
    <g id="ytick_8">
     <g id="line2d_24">
      <g>
       <use xlink:href="#m3beed42470" x="20.5625" y="552.764567" style="stroke: #000000; stroke-width: 0.8"/>
      </g>
     </g>
     <g id="text_23">
      <!-- 2 -->
      <g transform="translate(7.2 556.563786) scale(0.1 -0.1)">
       <use xlink:href="#DejaVuSans-32"/>
      </g>
     </g>
    </g>
    <g id="ytick_9">
     <g id="line2d_25">
      <g>
       <use xlink:href="#m3beed42470" x="20.5625" y="493.477208" style="stroke: #000000; stroke-width: 0.8"/>
      </g>
     </g>
     <g id="text_24">
      <!-- 3 -->
      <g transform="translate(7.2 497.276426) scale(0.1 -0.1)">
       <use xlink:href="#DejaVuSans-33"/>
      </g>
     </g>
    </g>
    <g id="ytick_10">
     <g id="line2d_26">
      <g>
       <use xlink:href="#m3beed42470" x="20.5625" y="434.189848" style="stroke: #000000; stroke-width: 0.8"/>
      </g>
     </g>
     <g id="text_25">
      <!-- 4 -->
      <g transform="translate(7.2 437.989067) scale(0.1 -0.1)">
       <use xlink:href="#DejaVuSans-34"/>
      </g>
     </g>
    </g>
   </g>
   <g id="line2d_27">
    <path d="M 51.54312 671.339286 
L 55.761098 671.261463 
L 58.860021 669.928324 
L 59.892995 669.493547 
L 60.925969 669.300308 
L 62.819756 669.202748 
L 65.402191 669.1383 
L 66.090841 668.787259 
L 66.607328 668.31191 
L 67.726383 666.876575 
L 68.328952 665.197647 
L 69.189764 660.060978 
L 70.308819 652.824409 
L 71.08355 647.654322 
L 71.513956 644.824538 
L 72.54693 636.638781 
L 73.063417 632.01749 
L 73.321661 630.1892 
L 73.665985 627.444482 
L 73.924229 625.515804 
L 74.354635 622.477324 
L 75.129366 616.971141 
L 75.47369 614.603745 
L 75.731934 613.016227 
L 76.076259 610.787037 
L 76.420583 609.152837 
L 76.764908 607.226626 
L 77.023152 605.821183 
L 77.367476 603.800979 
L 77.539639 603.074274 
L 78.056126 600.175878 
L 78.400451 598.093691 
L 79.175181 594.556108 
L 80.55248 590.688446 
L 80.724643 588.266053 
L 81.068968 583.639155 
L 81.413292 581.808963 
L 81.757617 581.003744 
L 82.188023 580.63331 
L 82.532348 580.614708 
L 82.962754 580.787567 
L 83.823566 581.453017 
L 84.253972 581.788474 
L 84.426134 577.807957 
L 84.770459 570.573204 
L 84.85654 569.538868 
L 85.028702 561.225528 
L 85.373027 545.828901 
L 85.631271 538.152423 
L 86.061677 518.396194 
L 86.233839 512.465895 
L 86.664245 494.113292 
L 86.836407 489.236999 
L 87.266813 475.505153 
L 87.525057 469.115996 
L 87.955463 460.149667 
L 88.988437 443.646698 
L 90.279655 430.686918 
L 91.570873 422.691168 
L 92.86209 419.025908 
L 93.034253 418.817216 
L 93.378578 418.202561 
L 94.411552 417.591043 
L 95.530607 417.535379 
L 95.788851 417.214509 
L 96.133176 417.010171 
L 96.4775 416.087198 
L 96.649663 415.915767 
L 96.821825 414.777571 
L 97.16615 412.71974 
L 97.252231 412.389032 
L 97.424393 409.555941 
L 97.854799 403.311713 
L 98.285205 400.786232 
L 98.62953 400.023072 
L 98.887774 399.766885 
L 99.146017 399.796993 
L 99.576423 400.046847 
L 101.384128 402.091392 
L 102.24494 403.199309 
L 108.528867 411.820288 
L 110.853059 414.772285 
L 113.435495 417.869846 
L 113.8659 418.111756 
L 114.468469 418.568917 
L 115.673605 419.798708 
L 121.527126 425.721445 
L 124.970374 428.694447 
L 127.466728 430.593823 
L 129.704839 432.092947 
L 131.082138 432.934133 
L 132.287275 433.950794 
L 134.525386 436.204723 
L 140.895394 442.799109 
L 142.272693 443.94375 
L 146.318509 447.620218 
L 148.384457 449.233993 
L 151.311218 451.811845 
L 153.463247 453.408331 
L 155.012709 454.837882 
L 156.390008 456.079419 
L 158.369875 457.7114 
L 160.005418 459.107478 
L 162.243529 460.628143 
L 163.620828 461.88236 
L 165.858939 463.781779 
L 167.064075 464.893937 
L 169.388267 466.719386 
L 169.646511 466.870958 
L 170.162998 467.172773 
L 170.593404 467.500936 
L 174.036651 470.609466 
L 174.63922 471.007994 
L 175.155707 471.328086 
L 175.672194 471.683247 
L 176.016519 471.939377 
L 176.533006 472.351602 
L 177.135574 472.72374 
L 177.996386 473.179643 
L 178.426792 473.448197 
L 183.677745 477.16498 
L 185.227206 478.439537 
L 186.604505 479.52686 
L 187.465317 479.91849 
L 190.650321 481.976166 
L 191.425052 482.508173 
L 192.888432 483.822959 
L 200.893982 491.054645 
L 201.324388 489.799636 
L 201.496551 489.303067 
L 201.840875 487.703555 
L 202.099119 487.058551 
L 202.443444 485.541787 
L 202.701687 484.857261 
L 203.132093 483.126885 
L 203.390337 482.591514 
L 203.906824 481.010816 
L 205.025879 477.834239 
L 205.198042 477.554094 
L 205.628448 476.639517 
L 205.80061 476.441907 
L 206.144935 475.841967 
L 207.005747 475.282043 
L 207.26399 475.079344 
L 207.608315 474.962149 
L 209.157776 474.583679 
L 210.018588 474.703022 
L 210.448994 474.760977 
L 211.481969 474.911616 
L 211.826293 474.750262 
L 211.998456 474.652602 
L 212.34278 474.106333 
L 212.687105 473.817932 
L 213.03143 472.794698 
L 213.203592 472.570882 
L 213.806161 469.418971 
L 214.064404 463.174149 
L 214.408729 457.448697 
L 214.753054 454.943684 
L 215.097378 454.000427 
L 215.441703 453.813715 
L 215.699947 453.889918 
L 217.421571 455.267832 
L 220.26225 458.115737 
L 227.320907 465.983931 
L 228.439963 467.080032 
L 232.313616 470.394667 
L 234.637808 471.853605 
L 235.584701 472.302567 
L 236.445513 472.79549 
L 238.425381 474.362392 
L 239.027949 474.689707 
L 240.060923 475.325791 
L 241.524303 476.383882 
L 245.053632 478.519387 
L 245.742282 478.832595 
L 246.775256 479.656352 
L 247.980393 480.612331 
L 250.390666 482.231321 
L 252.11229 483.181066 
L 253.231345 483.803269 
L 254.866888 484.44187 
L 256.244187 485.159458 
L 257.277161 485.713473 
L 258.482298 486.456858 
L 259.515272 487.056883 
L 263.905413 488.59919 
L 264.335818 488.565477 
L 264.852306 488.644027 
L 265.540955 488.989859 
L 267.004335 489.955265 
L 267.692985 490.282721 
L 268.81204 490.61545 
L 269.328527 490.618531 
L 270.189339 490.678041 
L 270.96407 491.041782 
L 272.771775 491.971723 
L 273.546506 492.066316 
L 274.062993 492.107209 
L 275.009886 492.474272 
L 275.526373 492.577459 
L 276.215022 492.713581 
L 276.73151 492.781119 
L 277.592322 492.915842 
L 278.367052 493.317621 
L 279.916514 494.441483 
L 286.803009 499.578585 
L 287.922064 500.112698 
L 289.988013 501.486796 
L 297.218833 506.357916 
L 298.251807 506.778523 
L 299.715187 506.920709 
L 300.66208 506.791315 
L 302.641947 505.692473 
L 305.568708 500.857694 
L 306.257357 499.793285 
L 306.687763 499.001374 
L 306.859926 498.784074 
L 307.290332 498.008164 
L 307.462494 497.783993 
L 307.8929 497.023844 
L 308.065062 496.803208 
L 308.495468 496.066707 
L 308.839793 495.658892 
L 309.184118 495.154364 
L 309.35628 494.993039 
L 309.786686 494.399445 
L 310.131011 494.033202 
L 310.733579 493.574175 
L 311.077904 493.405542 
L 311.336148 491.891845 
L 311.680472 490.682309 
L 312.024797 490.269095 
L 312.455203 490.178163 
L 312.97169 490.305535 
L 314.348989 491.186498 
L 317.361831 493.274254 
L 323.559676 497.17061 
L 330.962659 502.596028 
L 341.981051 511.022436 
L 352.569037 519.594478 
L 360.230263 526.128167 
L 369.096625 534.119902 
L 376.327445 541.061958 
L 380.975829 545.799768 
L 389.153542 554.725891 
L 397.761661 564.54769 
L 419.798445 590.737913 
L 424.360748 596.370277 
L 431.161162 604.887524 
L 450.012943 629.458975 
L 469.639454 656.13365 
L 471.791483 658.736646 
L 473.340945 660.436495 
L 475.062569 662.039988 
L 477.042436 663.562368 
L 478.850141 664.709366 
L 482.121226 666.304286 
L 484.187175 667.074148 
L 487.45826 668.007707 
L 490.729345 668.690719 
L 493.742186 669.165729 
L 498.562733 669.711541 
L 505.535309 670.212676 
L 514.659915 670.591987 
L 527.141688 670.868709 
L 547.629011 671.079572 
L 584.816084 671.219293 
L 671.155517 671.299923 
L 671.155517 671.299923 
" clip-path="url(#pdc87721b34)" style="fill: none; stroke: #1f77b4; stroke-width: 1.5; stroke-linecap: square"/>
   </g>
   <g id="line2d_28">
    <path d="M 51.54312 671.339286 
L 52.490013 671.23754 
L 53.436906 670.862027 
L 55.072449 670.000377 
L 56.019342 669.487686 
L 57.568803 668.587882 
L 58.343534 668.164582 
L 59.376508 667.590495 
L 60.23732 667.462255 
L 61.442457 667.531486 
L 64.024892 667.747287 
L 64.885704 667.508492 
L 65.402191 667.197373 
L 66.349084 666.314365 
L 67.726383 664.277263 
L 68.759358 662.096191 
L 69.017601 661.461377 
L 70.050575 658.790404 
L 70.308819 658.080285 
L 72.202605 651.422834 
L 78.658694 617.807964 
L 78.916938 616.569512 
L 79.347344 614.794678 
L 79.605587 613.879784 
L 80.035993 612.577393 
L 80.724643 610.219097 
L 81.327211 603.731679 
L 81.671536 601.748277 
L 82.015861 600.796867 
L 82.360185 600.40893 
L 82.70451 600.423234 
L 83.134916 600.725273 
L 83.651403 601.344941 
L 84.340053 602.618859 
L 84.512215 599.953026 
L 85.631271 575.970337 
L 87.352894 535.79267 
L 89.074518 511.061099 
L 90.451817 498.662524 
L 90.62398 497.483554 
L 91.054385 494.138837 
L 91.226548 493.111115 
L 91.656954 490.127631 
L 91.915197 489.077278 
L 92.345603 486.743038 
L 92.517766 486.022822 
L 92.948172 483.882337 
L 93.120334 483.240037 
L 93.55074 481.359652 
L 93.722902 480.80763 
L 94.153308 479.189713 
L 94.325471 478.724764 
L 94.755877 477.315338 
L 94.928039 477.105787 
L 95.616688 474.128537 
L 96.047094 471.359838 
L 96.219257 470.215599 
L 97.338312 457.193427 
L 98.285205 439.728283 
L 98.62953 437.618705 
L 98.973855 436.456732 
L 99.232098 436.258545 
L 99.576423 436.156355 
L 99.834667 436.502484 
L 100.265073 437.191253 
L 101.728453 441.264826 
L 104.827376 447.98178 
L 106.548999 451.040642 
L 108.184542 453.729164 
L 111.713871 459.054407 
L 113.349413 461.228089 
L 113.521576 461.464812 
L 113.693738 461.074001 
L 114.124144 460.015234 
L 114.468469 459.630461 
L 114.812794 459.6469 
L 115.157118 459.800408 
L 116.534417 461.210924 
L 117.48131 462.57174 
L 118.686447 463.922008 
L 121.182802 465.988919 
L 124.109562 467.584856 
L 124.453887 467.629741 
L 124.798211 467.735488 
L 125.142536 467.812007 
L 125.40078 467.840145 
L 125.745105 467.878195 
L 126.089429 467.98229 
L 126.433754 468.032207 
L 126.605916 468.068813 
L 126.950241 467.98968 
L 127.208485 468.035623 
L 127.55281 467.909747 
L 127.811053 467.929327 
L 128.155378 467.761544 
L 128.413621 467.756542 
L 128.757946 467.544257 
L 129.188352 467.497741 
L 129.532677 467.381667 
L 129.704839 467.338714 
L 130.049164 467.058807 
L 130.307408 466.98364 
L 130.651732 466.645516 
L 131.254301 466.584788 
L 131.856869 467.061035 
L 132.545518 468.099119 
L 133.750655 470.514048 
L 135.902685 474.903239 
L 139.087689 480.758665 
L 139.690257 481.659367 
L 140.292825 481.889437 
L 140.63715 481.77429 
L 140.895394 481.68985 
L 141.239719 481.623919 
L 142.272693 482.078855 
L 144.080398 483.931438 
L 145.113372 484.790703 
L 146.146346 485.712169 
L 146.40459 485.838742 
L 146.748915 485.777496 
L 147.093239 485.797707 
L 147.437564 485.815017 
L 149.245269 486.972118 
L 149.503513 487.237197 
L 149.933919 487.318605 
L 150.364325 487.695153 
L 151.225136 488.571036 
L 151.397299 488.639819 
L 151.827705 488.434401 
L 152.94676 488.566533 
L 153.377166 488.66584 
L 153.721491 488.814403 
L 154.41014 489.512208 
L 155.529196 491.121821 
L 155.787439 491.312581 
L 156.217845 491.457477 
L 156.734332 491.747437 
L 156.992576 491.917728 
L 157.422982 491.78307 
L 157.939469 491.967725 
L 158.542037 492.581193 
L 159.316768 493.525178 
L 159.488931 493.478817 
L 159.833255 493.352095 
L 160.17758 493.347756 
L 160.521905 493.359645 
L 160.694067 493.366628 
L 161.038392 493.200548 
L 161.296636 493.147976 
L 161.727041 492.794338 
L 162.071366 492.861381 
L 163.018259 493.612464 
L 164.309477 494.960976 
L 165.25637 495.361389 
L 165.94502 496.148224 
L 166.461507 496.67405 
L 167.580562 497.281276 
L 167.924887 497.228535 
L 168.269212 497.406416 
L 168.785699 497.756828 
L 169.130024 497.77285 
L 169.388267 497.837586 
L 169.732592 497.671073 
L 170.076917 497.602668 
L 170.421242 497.554417 
L 170.851647 497.824663 
L 172.745434 499.848322 
L 173.348002 500.626244 
L 173.692327 500.930091 
L 174.122733 500.925021 
L 174.380976 500.893231 
L 174.725301 500.855859 
L 174.897463 500.834582 
L 175.327869 500.59996 
L 175.930438 500.744101 
L 176.274762 500.898916 
L 176.619087 501.021812 
L 176.791249 501.05867 
L 177.135574 500.90401 
L 177.393818 500.868155 
L 177.738143 500.583737 
L 178.512873 500.536797 
L 178.685036 500.570131 
L 179.02936 500.449291 
L 179.71801 500.628625 
L 180.062335 500.752203 
L 180.578822 500.870699 
L 180.923147 500.737391 
L 181.353552 500.875319 
L 182.903014 501.908393 
L 183.591663 502.326309 
L 184.452475 503.122616 
L 184.882881 503.400191 
L 185.399368 503.907963 
L 186.174099 504.735676 
L 186.776667 504.485473 
L 187.120992 504.152636 
L 187.465317 504.13663 
L 187.809642 504.363383 
L 188.498291 504.871787 
L 189.87559 505.503951 
L 190.219915 505.334755 
L 191.080727 505.382309 
L 191.597214 505.956623 
L 192.630188 507.573069 
L 195.729111 512.749858 
L 200.291414 519.409623 
L 200.893982 520.20345 
L 201.066145 518.946677 
L 202.099119 508.389221 
L 203.218174 495.259025 
L 203.64858 491.294397 
L 204.33723 485.719473 
L 205.111961 481.199706 
L 205.284123 480.446811 
L 205.714529 478.351649 
L 205.886691 477.741819 
L 206.317097 475.954029 
L 206.575341 475.397009 
L 206.919666 474.219957 
L 207.177909 473.693219 
L 207.522234 472.63293 
L 207.780477 472.179996 
L 208.124802 471.271903 
L 208.383046 470.906724 
L 208.727371 470.151472 
L 208.985614 469.871476 
L 209.329939 469.248247 
L 211.309806 467.909888 
L 211.395887 467.906216 
L 211.654131 467.104992 
L 212.170618 465.257281 
L 212.601024 463.075517 
L 212.773186 462.064427 
L 213.633998 451.422456 
L 213.978323 445.661853 
L 214.49481 431.661602 
L 214.925216 425.904673 
L 215.269541 423.981937 
L 215.527784 423.369827 
L 215.699947 423.314753 
L 216.044272 423.577076 
L 216.302515 424.111066 
L 216.905083 426.109412 
L 218.11022 431.354732 
L 219.057113 434.174862 
L 220.778737 438.420428 
L 223.016848 443.41733 
L 226.718339 451.110797 
L 227.579151 452.534545 
L 230.075505 455.12145 
L 231.969291 457.088201 
L 232.313616 457.094438 
L 233.863078 457.787676 
L 234.207402 457.714324 
L 234.465646 457.755954 
L 234.809971 457.536969 
L 235.068214 457.507255 
L 235.412539 457.284405 
L 235.842945 457.209192 
L 236.101189 457.246976 
L 236.789838 457.760984 
L 237.478488 458.705715 
L 238.253218 459.553726 
L 238.597543 459.757392 
L 238.769705 459.82917 
L 239.11403 459.716773 
L 240.060923 460.040981 
L 240.921735 460.860232 
L 241.868628 461.416044 
L 242.643359 462.121598 
L 243.245927 461.999181 
L 243.504171 461.918979 
L 243.848496 462.097016 
L 244.623226 462.683283 
L 244.967551 462.769285 
L 245.311876 462.479756 
L 245.6562 462.509222 
L 246.000525 462.785527 
L 246.689175 463.816132 
L 247.463905 465.097975 
L 247.894311 465.291127 
L 248.324717 465.791811 
L 249.357692 467.266929 
L 249.788098 467.428485 
L 249.96026 467.47127 
L 250.304585 467.315739 
L 250.993234 467.498686 
L 251.767965 467.977481 
L 252.11229 468.108927 
L 253.145264 468.861667 
L 253.489589 468.860804 
L 253.661751 468.873972 
L 254.006076 468.763869 
L 255.383375 469.242415 
L 255.985943 469.596873 
L 256.932836 470.538385 
L 257.277161 470.680243 
L 257.707567 471.057025 
L 259.257028 473.011862 
L 259.687434 472.933286 
L 260.031759 472.924785 
L 260.376084 473.059878 
L 261.236896 473.367911 
L 261.58122 473.36381 
L 262.011626 473.564323 
L 262.528113 473.93581 
L 263.475007 474.262665 
L 263.819331 473.969626 
L 264.249737 473.689958 
L 264.594062 473.383098 
L 264.938387 473.420107 
L 265.282712 473.720312 
L 266.401767 475.215868 
L 267.176498 476.455548 
L 267.520822 476.622395 
L 268.553797 477.162951 
L 268.984203 476.974692 
L 269.156365 476.894195 
L 269.586771 476.453821 
L 269.845015 476.279062 
L 270.189339 476.15495 
L 270.533664 476.353595 
L 271.308395 477.285112 
L 271.738801 477.765783 
L 272.083125 477.965538 
L 272.599613 478.630693 
L 272.857856 478.951976 
L 273.288262 478.919106 
L 273.460424 478.884052 
L 273.89083 478.545675 
L 274.235155 478.599438 
L 274.57948 478.894823 
L 274.837723 479.066237 
L 275.440292 479.224424 
L 275.784617 479.097502 
L 276.301104 479.252577 
L 276.559347 479.399404 
L 276.989753 479.205557 
L 277.678403 479.333297 
L 278.108809 479.837775 
L 278.797458 481.05599 
L 283.187599 489.385258 
L 286.458684 494.761875 
L 286.975171 494.61574 
L 287.319496 494.793991 
L 287.835983 495.360657 
L 288.955038 497.045773 
L 290.246256 499.307889 
L 291.96788 502.178093 
L 292.484367 502.509774 
L 293.086935 503.137966 
L 294.205991 504.748705 
L 296.530183 508.143848 
L 297.563157 508.977644 
L 298.337888 509.145643 
L 298.682213 509.146623 
L 298.854375 509.142294 
L 299.284781 508.977064 
L 299.543025 508.974923 
L 299.973431 508.735942 
L 300.145593 508.653481 
L 300.575999 508.259557 
L 300.748161 508.126489 
L 301.178567 507.598447 
L 301.35073 507.420335 
L 301.781136 506.766998 
L 301.953298 506.545975 
L 302.383704 505.756641 
L 302.555866 505.629927 
L 303.158435 503.705555 
L 305.138302 495.007752 
L 305.568708 493.304135 
L 305.74087 492.76061 
L 306.171276 491.047718 
L 306.343439 490.48024 
L 306.773845 488.735081 
L 306.946007 488.163428 
L 307.376413 486.418688 
L 307.548575 485.849459 
L 307.978981 484.112846 
L 308.151144 483.547209 
L 308.581549 481.790725 
L 308.839793 481.150722 
L 309.270199 479.575871 
L 309.442361 479.090832 
L 309.872767 477.68629 
L 310.04493 477.297347 
L 310.389254 476.356671 
L 310.81966 475.626728 
L 311.163985 475.268073 
L 311.422229 472.592815 
L 311.852635 468.910727 
L 312.196959 467.368035 
L 312.455203 466.912268 
L 312.713447 466.788602 
L 312.97169 466.941216 
L 313.402096 467.60196 
L 314.176827 469.297397 
L 315.640207 473.202989 
L 316.673181 474.930697 
L 317.620074 476.200112 
L 322.35454 482.331711 
L 324.678732 486.521884 
L 326.74468 490.003978 
L 329.58536 494.720806 
L 333.9755 501.871607 
L 339.312534 510.154541 
L 344.649568 518.032633 
L 350.072682 525.643478 
L 355.495797 532.876486 
L 361.004993 539.856727 
L 366.600271 546.585949 
L 372.195548 552.970773 
L 377.876906 559.119561 
L 383.644346 565.034898 
L 389.497867 570.719782 
L 395.437469 576.177599 
L 401.463152 581.412084 
L 407.574917 586.427297 
L 413.772762 591.227589 
L 420.14277 595.878588 
L 426.598859 600.316993 
L 433.227111 604.602308 
L 439.941444 608.679723 
L 446.827939 612.603044 
L 453.886596 616.369642 
L 461.117416 619.97779 
L 468.606479 623.465326 
L 476.267705 626.788126 
L 484.187175 629.980705 
L 492.364887 633.037484 
L 500.800844 635.954242 
L 509.581125 638.7544 
L 518.705731 641.429824 
L 528.174662 643.974191 
L 538.073999 646.403089 
L 548.403741 648.708042 
L 559.249971 650.899303 
L 570.698769 652.982547 
L 582.750136 654.946475 
L 595.490152 656.794638 
L 609.004898 658.527967 
L 623.380457 660.145569 
L 638.78899 661.653326 
L 655.402659 663.052297 
L 671.155517 664.191673 
L 671.155517 664.191673 
" clip-path="url(#pdc87721b34)" style="fill: none; stroke: #ff7f0e; stroke-width: 1.5; stroke-linecap: square"/>
   </g>
   <g id="patch_9">
    <path d="M 20.5625 684.92 
L 20.5625 386.16 
" style="fill: none; stroke: #000000; stroke-width: 0.8; stroke-linejoin: miter; stroke-linecap: square"/>
   </g>
   <g id="patch_10">
    <path d="M 702.136136 684.92 
L 702.136136 386.16 
" style="fill: none; stroke: #000000; stroke-width: 0.8; stroke-linejoin: miter; stroke-linecap: square"/>
   </g>
   <g id="patch_11">
    <path d="M 20.5625 684.92 
L 702.136136 684.92 
" style="fill: none; stroke: #000000; stroke-width: 0.8; stroke-linejoin: miter; stroke-linecap: square"/>
   </g>
   <g id="patch_12">
    <path d="M 20.5625 386.16 
L 702.136136 386.16 
" style="fill: none; stroke: #000000; stroke-width: 0.8; stroke-linejoin: miter; stroke-linecap: square"/>
   </g>
   <g id="text_26">
    <!-- 2 transformation(s) -->
    <g transform="translate(303.234631 380.16) scale(0.12 -0.12)">
     <use xlink:href="#DejaVuSans-32"/>
     <use xlink:href="#DejaVuSans-20" x="63.623047"/>
     <use xlink:href="#DejaVuSans-74" x="95.410156"/>
     <use xlink:href="#DejaVuSans-72" x="134.619141"/>
     <use xlink:href="#DejaVuSans-61" x="175.732422"/>
     <use xlink:href="#DejaVuSans-6e" x="237.011719"/>
     <use xlink:href="#DejaVuSans-73" x="300.390625"/>
     <use xlink:href="#DejaVuSans-66" x="352.490234"/>
     <use xlink:href="#DejaVuSans-6f" x="387.695312"/>
     <use xlink:href="#DejaVuSans-72" x="448.876953"/>
     <use xlink:href="#DejaVuSans-6d" x="488.240234"/>
     <use xlink:href="#DejaVuSans-61" x="585.652344"/>
     <use xlink:href="#DejaVuSans-74" x="646.931641"/>
     <use xlink:href="#DejaVuSans-69" x="686.140625"/>
     <use xlink:href="#DejaVuSans-6f" x="713.923828"/>
     <use xlink:href="#DejaVuSans-6e" x="775.105469"/>
     <use xlink:href="#DejaVuSans-28" x="838.484375"/>
     <use xlink:href="#DejaVuSans-73" x="877.498047"/>
     <use xlink:href="#DejaVuSans-29" x="929.597656"/>
    </g>
   </g>
  </g>
  <g id="text_27">
   <!-- training -->
   <g transform="translate(333.129063 16.318125) scale(0.12 -0.12)">
    <defs>
     <path id="DejaVuSans-67" d="M 2906 1791 
Q 2906 2416 2648 2759 
Q 2391 3103 1925 3103 
Q 1463 3103 1205 2759 
Q 947 2416 947 1791 
Q 947 1169 1205 825 
Q 1463 481 1925 481 
Q 2391 481 2648 825 
Q 2906 1169 2906 1791 
z
M 3481 434 
Q 3481 -459 3084 -895 
Q 2688 -1331 1869 -1331 
Q 1566 -1331 1297 -1286 
Q 1028 -1241 775 -1147 
L 775 -588 
Q 1028 -725 1275 -790 
Q 1522 -856 1778 -856 
Q 2344 -856 2625 -561 
Q 2906 -266 2906 331 
L 2906 616 
Q 2728 306 2450 153 
Q 2172 0 1784 0 
Q 1141 0 747 490 
Q 353 981 353 1791 
Q 353 2603 747 3093 
Q 1141 3584 1784 3584 
Q 2172 3584 2450 3431 
Q 2728 3278 2906 2969 
L 2906 3500 
L 3481 3500 
L 3481 434 
z
" transform="scale(0.015625)"/>
    </defs>
    <use xlink:href="#DejaVuSans-74"/>
    <use xlink:href="#DejaVuSans-72" x="39.208984"/>
    <use xlink:href="#DejaVuSans-61" x="80.322266"/>
    <use xlink:href="#DejaVuSans-69" x="141.601562"/>
    <use xlink:href="#DejaVuSans-6e" x="169.384766"/>
    <use xlink:href="#DejaVuSans-69" x="232.763672"/>
    <use xlink:href="#DejaVuSans-6e" x="260.546875"/>
    <use xlink:href="#DejaVuSans-67" x="323.925781"/>
   </g>
  </g>
 </g>
 <defs>
  <clipPath id="p19bb3b3c19">
   <rect x="20.5625" y="43.44" width="681.573636" height="298.76"/>
  </clipPath>
  <clipPath id="pdc87721b34">
   <rect x="20.5625" y="386.16" width="681.573636" height="298.76"/>
  </clipPath>
 </defs>
</svg>
