<?xml version="1.0" encoding="utf-8" standalone="no"?>
<!DOCTYPE svg PUBLIC "-//W3C//DTD SVG 1.1//EN"
  "http://www.w3.org/Graphics/SVG/1.1/DTD/svg11.dtd">
<svg xmlns:xlink="http://www.w3.org/1999/xlink" width="709.336136pt" height="708.798125pt" viewBox="0 0 709.336136 708.798125" xmlns="http://www.w3.org/2000/svg" version="1.1">
 <metadata>
  <rdf:RDF xmlns:dc="http://purl.org/dc/elements/1.1/" xmlns:cc="http://creativecommons.org/ns#" xmlns:rdf="http://www.w3.org/1999/02/22-rdf-syntax-ns#">
   <cc:Work>
    <dc:type rdf:resource="http://purl.org/dc/dcmitype/StillImage"/>
    <dc:date>2023-06-13T12:36:34.276288</dc:date>
    <dc:format>image/svg+xml</dc:format>
    <dc:creator>
     <cc:Agent>
      <dc:title>Matplotlib v3.7.1, https://matplotlib.org/</dc:title>
     </cc:Agent>
    </dc:creator>
   </cc:Work>
  </rdf:RDF>
 </metadata>
 <defs>
  <style type="text/css">*{stroke-linejoin: round; stroke-linecap: butt}</style>
 </defs>
 <g id="figure_1">
  <g id="patch_1">
   <path d="M 0 708.798125 
L 709.336136 708.798125 
L 709.336136 0 
L 0 0 
z
" style="fill: #ffffff"/>
  </g>
  <g id="axes_1">
   <g id="patch_2">
    <path d="M 20.5625 342.2 
L 702.136136 342.2 
L 702.136136 43.44 
L 20.5625 43.44 
z
" style="fill: #ffffff"/>
   </g>
   <g id="matplotlib.axis_1">
    <g id="xtick_1">
     <g id="line2d_1">
      <defs>
       <path id="md1fd7e4de2" d="M 0 0 
L 0 3.5 
" style="stroke: #000000; stroke-width: 0.8"/>
      </defs>
      <g>
       <use xlink:href="#md1fd7e4de2" x="51.370957" y="342.2" style="stroke: #000000; stroke-width: 0.8"/>
      </g>
     </g>
     <g id="text_1">
      <!-- 2014-07-01 -->
      <g transform="translate(22.313145 356.798437) scale(0.1 -0.1)">
       <defs>
        <path id="DejaVuSans-32" d="M 1228 531 
L 3431 531 
L 3431 0 
L 469 0 
L 469 531 
Q 828 903 1448 1529 
Q 2069 2156 2228 2338 
Q 2531 2678 2651 2914 
Q 2772 3150 2772 3378 
Q 2772 3750 2511 3984 
Q 2250 4219 1831 4219 
Q 1534 4219 1204 4116 
Q 875 4013 500 3803 
L 500 4441 
Q 881 4594 1212 4672 
Q 1544 4750 1819 4750 
Q 2544 4750 2975 4387 
Q 3406 4025 3406 3419 
Q 3406 3131 3298 2873 
Q 3191 2616 2906 2266 
Q 2828 2175 2409 1742 
Q 1991 1309 1228 531 
z
" transform="scale(0.015625)"/>
        <path id="DejaVuSans-30" d="M 2034 4250 
Q 1547 4250 1301 3770 
Q 1056 3291 1056 2328 
Q 1056 1369 1301 889 
Q 1547 409 2034 409 
Q 2525 409 2770 889 
Q 3016 1369 3016 2328 
Q 3016 3291 2770 3770 
Q 2525 4250 2034 4250 
z
M 2034 4750 
Q 2819 4750 3233 4129 
Q 3647 3509 3647 2328 
Q 3647 1150 3233 529 
Q 2819 -91 2034 -91 
Q 1250 -91 836 529 
Q 422 1150 422 2328 
Q 422 3509 836 4129 
Q 1250 4750 2034 4750 
z
" transform="scale(0.015625)"/>
        <path id="DejaVuSans-31" d="M 794 531 
L 1825 531 
L 1825 4091 
L 703 3866 
L 703 4441 
L 1819 4666 
L 2450 4666 
L 2450 531 
L 3481 531 
L 3481 0 
L 794 0 
L 794 531 
z
" transform="scale(0.015625)"/>
        <path id="DejaVuSans-34" d="M 2419 4116 
L 825 1625 
L 2419 1625 
L 2419 4116 
z
M 2253 4666 
L 3047 4666 
L 3047 1625 
L 3713 1625 
L 3713 1100 
L 3047 1100 
L 3047 0 
L 2419 0 
L 2419 1100 
L 313 1100 
L 313 1709 
L 2253 4666 
z
" transform="scale(0.015625)"/>
        <path id="DejaVuSans-2d" d="M 313 2009 
L 1997 2009 
L 1997 1497 
L 313 1497 
L 313 2009 
z
" transform="scale(0.015625)"/>
        <path id="DejaVuSans-37" d="M 525 4666 
L 3525 4666 
L 3525 4397 
L 1831 0 
L 1172 0 
L 2766 4134 
L 525 4134 
L 525 4666 
z
" transform="scale(0.015625)"/>
       </defs>
       <use xlink:href="#DejaVuSans-32"/>
       <use xlink:href="#DejaVuSans-30" x="63.623047"/>
       <use xlink:href="#DejaVuSans-31" x="127.246094"/>
       <use xlink:href="#DejaVuSans-34" x="190.869141"/>
       <use xlink:href="#DejaVuSans-2d" x="254.492188"/>
       <use xlink:href="#DejaVuSans-30" x="290.576172"/>
       <use xlink:href="#DejaVuSans-37" x="354.199219"/>
       <use xlink:href="#DejaVuSans-2d" x="417.822266"/>
       <use xlink:href="#DejaVuSans-30" x="453.90625"/>
       <use xlink:href="#DejaVuSans-31" x="517.529297"/>
      </g>
     </g>
    </g>
    <g id="xtick_2">
     <g id="line2d_2">
      <g>
       <use xlink:href="#md1fd7e4de2" x="175.327869" y="342.2" style="stroke: #000000; stroke-width: 0.8"/>
      </g>
     </g>
     <g id="text_2">
      <!-- 2014-07-02 -->
      <g transform="translate(146.270057 356.798437) scale(0.1 -0.1)">
       <use xlink:href="#DejaVuSans-32"/>
       <use xlink:href="#DejaVuSans-30" x="63.623047"/>
       <use xlink:href="#DejaVuSans-31" x="127.246094"/>
       <use xlink:href="#DejaVuSans-34" x="190.869141"/>
       <use xlink:href="#DejaVuSans-2d" x="254.492188"/>
       <use xlink:href="#DejaVuSans-30" x="290.576172"/>
       <use xlink:href="#DejaVuSans-37" x="354.199219"/>
       <use xlink:href="#DejaVuSans-2d" x="417.822266"/>
       <use xlink:href="#DejaVuSans-30" x="453.90625"/>
       <use xlink:href="#DejaVuSans-32" x="517.529297"/>
      </g>
     </g>
    </g>
    <g id="xtick_3">
     <g id="line2d_3">
      <g>
       <use xlink:href="#md1fd7e4de2" x="299.284781" y="342.2" style="stroke: #000000; stroke-width: 0.8"/>
      </g>
     </g>
     <g id="text_3">
      <!-- 2014-07-03 -->
      <g transform="translate(270.226969 356.798437) scale(0.1 -0.1)">
       <defs>
        <path id="DejaVuSans-33" d="M 2597 2516 
Q 3050 2419 3304 2112 
Q 3559 1806 3559 1356 
Q 3559 666 3084 287 
Q 2609 -91 1734 -91 
Q 1441 -91 1130 -33 
Q 819 25 488 141 
L 488 750 
Q 750 597 1062 519 
Q 1375 441 1716 441 
Q 2309 441 2620 675 
Q 2931 909 2931 1356 
Q 2931 1769 2642 2001 
Q 2353 2234 1838 2234 
L 1294 2234 
L 1294 2753 
L 1863 2753 
Q 2328 2753 2575 2939 
Q 2822 3125 2822 3475 
Q 2822 3834 2567 4026 
Q 2313 4219 1838 4219 
Q 1578 4219 1281 4162 
Q 984 4106 628 3988 
L 628 4550 
Q 988 4650 1302 4700 
Q 1616 4750 1894 4750 
Q 2613 4750 3031 4423 
Q 3450 4097 3450 3541 
Q 3450 3153 3228 2886 
Q 3006 2619 2597 2516 
z
" transform="scale(0.015625)"/>
       </defs>
       <use xlink:href="#DejaVuSans-32"/>
       <use xlink:href="#DejaVuSans-30" x="63.623047"/>
       <use xlink:href="#DejaVuSans-31" x="127.246094"/>
       <use xlink:href="#DejaVuSans-34" x="190.869141"/>
       <use xlink:href="#DejaVuSans-2d" x="254.492188"/>
       <use xlink:href="#DejaVuSans-30" x="290.576172"/>
       <use xlink:href="#DejaVuSans-37" x="354.199219"/>
       <use xlink:href="#DejaVuSans-2d" x="417.822266"/>
       <use xlink:href="#DejaVuSans-30" x="453.90625"/>
       <use xlink:href="#DejaVuSans-33" x="517.529297"/>
      </g>
     </g>
    </g>
    <g id="xtick_4">
     <g id="line2d_4">
      <g>
       <use xlink:href="#md1fd7e4de2" x="423.241693" y="342.2" style="stroke: #000000; stroke-width: 0.8"/>
      </g>
     </g>
     <g id="text_4">
      <!-- 2014-07-04 -->
      <g transform="translate(394.18388 356.798437) scale(0.1 -0.1)">
       <use xlink:href="#DejaVuSans-32"/>
       <use xlink:href="#DejaVuSans-30" x="63.623047"/>
       <use xlink:href="#DejaVuSans-31" x="127.246094"/>
       <use xlink:href="#DejaVuSans-34" x="190.869141"/>
       <use xlink:href="#DejaVuSans-2d" x="254.492188"/>
       <use xlink:href="#DejaVuSans-30" x="290.576172"/>
       <use xlink:href="#DejaVuSans-37" x="354.199219"/>
       <use xlink:href="#DejaVuSans-2d" x="417.822266"/>
       <use xlink:href="#DejaVuSans-30" x="453.90625"/>
       <use xlink:href="#DejaVuSans-34" x="517.529297"/>
      </g>
     </g>
    </g>
    <g id="xtick_5">
     <g id="line2d_5">
      <g>
       <use xlink:href="#md1fd7e4de2" x="547.198605" y="342.2" style="stroke: #000000; stroke-width: 0.8"/>
      </g>
     </g>
     <g id="text_5">
      <!-- 2014-07-05 -->
      <g transform="translate(518.140792 356.798437) scale(0.1 -0.1)">
       <defs>
        <path id="DejaVuSans-35" d="M 691 4666 
L 3169 4666 
L 3169 4134 
L 1269 4134 
L 1269 2991 
Q 1406 3038 1543 3061 
Q 1681 3084 1819 3084 
Q 2600 3084 3056 2656 
Q 3513 2228 3513 1497 
Q 3513 744 3044 326 
Q 2575 -91 1722 -91 
Q 1428 -91 1123 -41 
Q 819 9 494 109 
L 494 744 
Q 775 591 1075 516 
Q 1375 441 1709 441 
Q 2250 441 2565 725 
Q 2881 1009 2881 1497 
Q 2881 1984 2565 2268 
Q 2250 2553 1709 2553 
Q 1456 2553 1204 2497 
Q 953 2441 691 2322 
L 691 4666 
z
" transform="scale(0.015625)"/>
       </defs>
       <use xlink:href="#DejaVuSans-32"/>
       <use xlink:href="#DejaVuSans-30" x="63.623047"/>
       <use xlink:href="#DejaVuSans-31" x="127.246094"/>
       <use xlink:href="#DejaVuSans-34" x="190.869141"/>
       <use xlink:href="#DejaVuSans-2d" x="254.492188"/>
       <use xlink:href="#DejaVuSans-30" x="290.576172"/>
       <use xlink:href="#DejaVuSans-37" x="354.199219"/>
       <use xlink:href="#DejaVuSans-2d" x="417.822266"/>
       <use xlink:href="#DejaVuSans-30" x="453.90625"/>
       <use xlink:href="#DejaVuSans-35" x="517.529297"/>
      </g>
     </g>
    </g>
    <g id="xtick_6">
     <g id="line2d_6">
      <g>
       <use xlink:href="#md1fd7e4de2" x="671.155517" y="342.2" style="stroke: #000000; stroke-width: 0.8"/>
      </g>
     </g>
     <g id="text_6">
      <!-- 2014-07-06 -->
      <g transform="translate(642.097704 356.798437) scale(0.1 -0.1)">
       <defs>
        <path id="DejaVuSans-36" d="M 2113 2584 
Q 1688 2584 1439 2293 
Q 1191 2003 1191 1497 
Q 1191 994 1439 701 
Q 1688 409 2113 409 
Q 2538 409 2786 701 
Q 3034 994 3034 1497 
Q 3034 2003 2786 2293 
Q 2538 2584 2113 2584 
z
M 3366 4563 
L 3366 3988 
Q 3128 4100 2886 4159 
Q 2644 4219 2406 4219 
Q 1781 4219 1451 3797 
Q 1122 3375 1075 2522 
Q 1259 2794 1537 2939 
Q 1816 3084 2150 3084 
Q 2853 3084 3261 2657 
Q 3669 2231 3669 1497 
Q 3669 778 3244 343 
Q 2819 -91 2113 -91 
Q 1303 -91 875 529 
Q 447 1150 447 2328 
Q 447 3434 972 4092 
Q 1497 4750 2381 4750 
Q 2619 4750 2861 4703 
Q 3103 4656 3366 4563 
z
" transform="scale(0.015625)"/>
       </defs>
       <use xlink:href="#DejaVuSans-32"/>
       <use xlink:href="#DejaVuSans-30" x="63.623047"/>
       <use xlink:href="#DejaVuSans-31" x="127.246094"/>
       <use xlink:href="#DejaVuSans-34" x="190.869141"/>
       <use xlink:href="#DejaVuSans-2d" x="254.492188"/>
       <use xlink:href="#DejaVuSans-30" x="290.576172"/>
       <use xlink:href="#DejaVuSans-37" x="354.199219"/>
       <use xlink:href="#DejaVuSans-2d" x="417.822266"/>
       <use xlink:href="#DejaVuSans-30" x="453.90625"/>
       <use xlink:href="#DejaVuSans-36" x="517.529297"/>
      </g>
     </g>
    </g>
   </g>
   <g id="matplotlib.axis_2">
    <g id="ytick_1">
     <g id="line2d_7">
      <defs>
       <path id="m92436c0645" d="M 0 0 
L -3.5 0 
" style="stroke: #000000; stroke-width: 0.8"/>
      </defs>
      <g>
       <use xlink:href="#m92436c0645" x="20.5625" y="328.62" style="stroke: #000000; stroke-width: 0.8"/>
      </g>
     </g>
     <g id="text_7">
      <!-- 0 -->
      <g transform="translate(7.2 332.419219) scale(0.1 -0.1)">
       <use xlink:href="#DejaVuSans-30"/>
      </g>
     </g>
    </g>
    <g id="ytick_2">
     <g id="line2d_8">
      <g>
       <use xlink:href="#m92436c0645" x="20.5625" y="292.85899" style="stroke: #000000; stroke-width: 0.8"/>
      </g>
     </g>
     <g id="text_8">
      <!-- 1 -->
      <g transform="translate(7.2 296.658209) scale(0.1 -0.1)">
       <use xlink:href="#DejaVuSans-31"/>
      </g>
     </g>
    </g>
    <g id="ytick_3">
     <g id="line2d_9">
      <g>
       <use xlink:href="#m92436c0645" x="20.5625" y="257.097981" style="stroke: #000000; stroke-width: 0.8"/>
      </g>
     </g>
     <g id="text_9">
      <!-- 2 -->
      <g transform="translate(7.2 260.8972) scale(0.1 -0.1)">
       <use xlink:href="#DejaVuSans-32"/>
      </g>
     </g>
    </g>
    <g id="ytick_4">
     <g id="line2d_10">
      <g>
       <use xlink:href="#m92436c0645" x="20.5625" y="221.336971" style="stroke: #000000; stroke-width: 0.8"/>
      </g>
     </g>
     <g id="text_10">
      <!-- 3 -->
      <g transform="translate(7.2 225.13619) scale(0.1 -0.1)">
       <use xlink:href="#DejaVuSans-33"/>
      </g>
     </g>
    </g>
    <g id="ytick_5">
     <g id="line2d_11">
      <g>
       <use xlink:href="#m92436c0645" x="20.5625" y="185.575962" style="stroke: #000000; stroke-width: 0.8"/>
      </g>
     </g>
     <g id="text_11">
      <!-- 4 -->
      <g transform="translate(7.2 189.375181) scale(0.1 -0.1)">
       <use xlink:href="#DejaVuSans-34"/>
      </g>
     </g>
    </g>
    <g id="ytick_6">
     <g id="line2d_12">
      <g>
       <use xlink:href="#m92436c0645" x="20.5625" y="149.814952" style="stroke: #000000; stroke-width: 0.8"/>
      </g>
     </g>
     <g id="text_12">
      <!-- 5 -->
      <g transform="translate(7.2 153.614171) scale(0.1 -0.1)">
       <use xlink:href="#DejaVuSans-35"/>
      </g>
     </g>
    </g>
    <g id="ytick_7">
     <g id="line2d_13">
      <g>
       <use xlink:href="#m92436c0645" x="20.5625" y="114.053943" style="stroke: #000000; stroke-width: 0.8"/>
      </g>
     </g>
     <g id="text_13">
      <!-- 6 -->
      <g transform="translate(7.2 117.853162) scale(0.1 -0.1)">
       <use xlink:href="#DejaVuSans-36"/>
      </g>
     </g>
    </g>
    <g id="ytick_8">
     <g id="line2d_14">
      <g>
       <use xlink:href="#m92436c0645" x="20.5625" y="78.292933" style="stroke: #000000; stroke-width: 0.8"/>
      </g>
     </g>
     <g id="text_14">
      <!-- 7 -->
      <g transform="translate(7.2 82.092152) scale(0.1 -0.1)">
       <use xlink:href="#DejaVuSans-37"/>
      </g>
     </g>
    </g>
   </g>
   <g id="line2d_15">
    <path d="M 51.54312 328.585598 
L 52.059607 328.426096 
L 52.403932 328.242469 
L 52.748256 328.047656 
L 53.178662 327.799644 
L 53.867312 327.388068 
L 54.383799 327.035192 
L 54.900286 326.671382 
L 57.052316 325.190887 
L 57.568803 324.5386 
L 58.860021 323.728224 
L 59.720833 323.286616 
L 60.495563 323.092788 
L 61.270294 323.1331 
L 62.303268 323.426888 
L 65.230029 324.440479 
L 65.918678 324.434055 
L 66.263003 324.369142 
L 66.77949 324.022295 
L 67.46814 323.384807 
L 67.898546 322.728916 
L 68.156789 322.237971 
L 69.361926 316.419641 
L 69.964494 312.556693 
L 71.08355 305.460314 
L 71.255712 304.794038 
L 71.513956 303.567658 
L 71.85828 302.697598 
L 72.202605 300.958242 
L 72.374768 300.339129 
L 72.977336 297.288096 
L 73.924229 294.489601 
L 74.01031 294.250199 
L 74.096391 294.287413 
L 74.268554 294.149013 
L 74.526797 293.773793 
L 74.612878 293.602627 
L 74.785041 293.726 
L 75.215447 293.081615 
L 75.301528 293.199071 
L 75.47369 293.161413 
L 75.645853 293.005918 
L 75.818015 292.78819 
L 75.990177 293.017687 
L 76.076259 292.980347 
L 76.334502 293.351545 
L 76.506665 293.238862 
L 76.764908 293.640432 
L 76.850989 293.683144 
L 77.109233 293.457586 
L 77.281395 293.730423 
L 77.539639 293.588649 
L 77.711801 293.394393 
L 77.883964 293.579876 
L 78.31437 293.02646 
L 78.400451 293.15975 
L 78.572613 293.12801 
L 78.916938 293.068698 
L 80.208156 296.50837 
L 80.466399 297.605729 
L 80.55248 297.397321 
L 81.155049 289.128861 
L 81.327211 288.854346 
L 81.585455 288.186749 
L 81.757617 288.408496 
L 81.929779 288.871799 
L 82.101942 290.098307 
L 82.618429 296.514334 
L 83.220997 303.862424 
L 83.737484 308.41811 
L 84.16789 311.261236 
L 84.253972 310.539882 
L 85.114783 269.34662 
L 85.717352 211.050765 
L 86.492082 141.418528 
L 87.094651 76.654833 
L 87.180732 76.405854 
L 87.266813 76.952956 
L 87.352894 76.576615 
L 87.611138 70.682666 
L 87.869381 66.389643 
L 88.385869 57.02 
L 88.47195 57.084321 
L 88.902356 65.602191 
L 89.160599 80.612763 
L 89.504924 130.697977 
L 89.677086 171.376477 
L 89.849249 199.702609 
L 90.279655 210.765056 
L 90.796142 221.545161 
L 91.656954 236.795811 
L 92.345603 250.488548 
L 94.841958 281.697159 
L 95.01412 282.440625 
L 95.444526 285.028647 
L 95.70277 283.996279 
L 95.788851 284.005845 
L 96.047094 282.646347 
L 96.735744 267.384605 
L 97.338312 234.669225 
L 98.026962 172.573267 
L 98.113043 171.840501 
L 98.371287 184.827712 
L 99.490342 263.349045 
L 100.09291 282.988218 
L 100.609397 293.817238 
L 101.125885 300.715466 
L 101.556291 304.272284 
L 102.072778 306.996056 
L 103.277914 311.527302 
L 104.39697 314.763153 
L 105.257782 316.539618 
L 105.774269 317.295582 
L 106.635081 318.048518 
L 107.409811 318.449647 
L 108.098461 318.614817 
L 108.959273 318.594504 
L 109.992247 318.346699 
L 112.919007 317.212716 
L 113.349413 317.026311 
L 113.435495 316.823399 
L 114.296306 310.586064 
L 115.157118 308.510441 
L 115.587524 307.800996 
L 115.759687 307.939764 
L 116.190093 308.919606 
L 117.309148 312.117211 
L 117.997798 313.129181 
L 118.686447 313.478452 
L 119.289015 313.468963 
L 120.838477 312.985737 
L 121.354964 312.663765 
L 121.613207 312.509926 
L 121.957532 312.281317 
L 122.215776 312.101169 
L 122.560101 311.85009 
L 122.732263 311.830917 
L 123.162669 311.48114 
L 123.334831 311.461387 
L 123.765237 311.06873 
L 123.9374 311.042409 
L 124.367806 310.63177 
L 124.539968 310.607211 
L 124.970374 310.180958 
L 125.142536 310.146273 
L 125.572942 309.656345 
L 125.831186 309.604197 
L 126.17551 309.239786 
L 126.433754 309.231784 
L 126.778079 308.786256 
L 127.036322 308.783715 
L 127.380647 308.30881 
L 127.638891 308.278184 
L 127.983215 307.776775 
L 128.241459 307.718408 
L 128.585784 307.144932 
L 128.930109 307.046931 
L 129.188352 306.721795 
L 129.360514 306.708488 
L 129.532677 306.666065 
L 129.79092 306.234924 
L 129.963083 306.229345 
L 130.135245 306.170296 
L 130.393489 305.684375 
L 130.565651 305.684341 
L 130.737813 305.639869 
L 130.909976 305.507791 
L 131.082138 305.581265 
L 131.856869 306.832649 
L 132.545518 309.036618 
L 134.525386 315.83182 
L 135.386198 317.886463 
L 136.419172 319.816039 
L 137.624309 321.533624 
L 138.915526 322.780565 
L 139.432014 323.133803 
L 139.690257 323.021196 
L 139.948501 322.845118 
L 140.120663 322.295364 
L 140.63715 320.593034 
L 141.153637 318.149794 
L 142.78918 313.508196 
L 143.047423 313.139391 
L 143.477829 313.059499 
L 144.25256 313.480736 
L 144.596885 313.663268 
L 145.199453 313.844769 
L 145.71594 313.989629 
L 145.974184 313.8847 
L 146.40459 313.538649 
L 147.351483 312.139507 
L 147.609726 311.881403 
L 148.470538 311.236659 
L 148.728782 311.20632 
L 149.073107 311.33887 
L 149.503513 311.653446 
L 149.847837 311.709538 
L 150.364325 312.135285 
L 150.880812 312.681653 
L 151.311218 312.757992 
L 151.48338 312.568963 
L 151.827705 312.099246 
L 152.172029 311.577165 
L 152.602435 311.349296 
L 153.377166 310.51174 
L 153.63541 310.440379 
L 153.979734 310.51093 
L 154.237978 310.815259 
L 155.012709 312.254542 
L 155.701358 313.51751 
L 156.734332 313.868071 
L 156.820414 313.876683 
L 157.853388 312.567562 
L 158.455956 312.459281 
L 159.058525 312.789124 
L 159.230687 312.944107 
L 159.747174 312.531574 
L 159.919336 312.49476 
L 160.263661 312.068738 
L 160.521905 312.010127 
L 162.071366 309.012804 
L 162.760016 309.446721 
L 163.362584 310.564058 
L 163.965152 311.810695 
L 164.395558 312.406887 
L 165.25637 312.803121 
L 166.375426 313.592812 
L 166.805832 313.687403 
L 167.322319 313.773062 
L 167.924887 313.211039 
L 168.269212 313.090886 
L 168.527455 313.15864 
L 169.388267 312.065548 
L 169.732592 311.473092 
L 169.990836 311.000388 
L 170.249079 310.613384 
L 170.765566 310.522579 
L 171.798541 311.263801 
L 172.228946 311.959199 
L 173.520164 314.523725 
L 174.036651 314.453593 
L 174.208814 314.285697 
L 174.467057 313.934454 
L 174.897463 313.268202 
L 175.500032 311.983808 
L 175.844356 311.52706 
L 176.1026 311.231464 
L 176.533006 310.801333 
L 176.705168 310.63659 
L 177.393818 310.004966 
L 177.652061 309.681783 
L 177.824224 309.605504 
L 178.168549 309.221992 
L 178.512873 309.208606 
L 178.857198 308.787402 
L 179.459766 308.707368 
L 180.492741 309.650822 
L 180.750984 309.561051 
L 181.009228 309.610528 
L 181.267471 309.73315 
L 181.956121 310.448875 
L 182.558689 310.895116 
L 183.33342 311.564025 
L 184.280313 312.812087 
L 184.538556 312.917041 
L 186.088018 314.215694 
L 186.518424 313.89367 
L 187.293155 312.04117 
L 187.551398 311.845059 
L 187.895723 311.77974 
L 188.842616 311.414631 
L 189.445184 311.908149 
L 189.617347 312.119576 
L 190.392077 311.501646 
L 190.650321 311.26245 
L 191.425052 311.392427 
L 191.855458 311.832382 
L 192.285863 312.613039 
L 192.888432 314.227308 
L 194.610056 318.835055 
L 195.64303 320.756078 
L 196.245598 321.590286 
L 197.364654 322.753051 
L 198.56979 323.630725 
L 199.947089 324.34779 
L 200.72182 324.693742 
L 200.807901 323.839913 
L 201.066145 317.892932 
L 202.787768 277.111641 
L 203.132093 275.159252 
L 203.304256 275.113616 
L 203.476418 274.040288 
L 203.906824 272.891768 
L 204.165068 271.694445 
L 204.251149 271.729428 
L 204.767636 270.222245 
L 204.853717 270.428466 
L 204.939798 270.377616 
L 205.111961 270.643447 
L 205.198042 270.461381 
L 205.284123 270.602134 
L 206.058854 274.93314 
L 206.661422 279.933022 
L 207.091828 283.968735 
L 208.124802 291.757437 
L 208.899533 295.192879 
L 210.10467 299.487323 
L 210.276832 299.787849 
L 210.448994 300.248599 
L 210.707238 300.903758 
L 210.8794 301.129738 
L 211.051563 301.503115 
L 211.309806 301.993233 
L 211.654131 301.095214 
L 211.740212 301.054715 
L 211.912374 300.250905 
L 212.428862 296.107882 
L 212.601024 295.048927 
L 213.203592 286.547506 
L 213.892242 263.720591 
L 214.666973 192.811943 
L 214.753054 193.175862 
L 214.925216 199.693153 
L 215.95819 266.253129 
L 216.474677 284.225682 
L 216.991165 295.988477 
L 217.507652 303.614211 
L 218.024139 307.995503 
L 218.454545 310.476293 
L 219.229276 313.494638 
L 220.26225 316.292774 
L 221.381305 318.740633 
L 222.586442 320.861389 
L 223.102929 321.544983 
L 224.308066 322.793366 
L 225.599284 323.718764 
L 226.632258 324.193585 
L 227.062664 324.214077 
L 227.406988 324.180475 
L 227.751313 323.840452 
L 228.095638 323.375868 
L 228.870369 321.160717 
L 229.645099 319.476316 
L 230.41983 317.853594 
L 231.538886 315.045729 
L 233.949159 310.774361 
L 235.842945 307.156029 
L 236.445513 307.13381 
L 236.962 308.007327 
L 238.425381 311.065194 
L 238.597543 311.25243 
L 239.974842 310.120448 
L 240.233086 310.117447 
L 240.57741 310.170029 
L 241.438222 310.212135 
L 241.782547 310.561191 
L 242.471197 311.250375 
L 242.987684 310.746042 
L 243.504171 309.906413 
L 243.762414 309.69768 
L 244.020658 309.831156 
L 244.19282 309.927916 
L 244.623226 309.633094 
L 244.795389 309.620448 
L 245.225795 308.846906 
L 245.484038 308.671185 
L 245.6562 308.657092 
L 245.914444 308.979627 
L 246.861337 310.444149 
L 247.636068 311.873913 
L 247.980393 312.416211 
L 249.099448 314.187578 
L 249.788098 313.898644 
L 250.390666 312.651985 
L 250.821072 311.864962 
L 251.165397 311.55484 
L 251.940127 310.673938 
L 252.284452 310.578177 
L 252.628777 310.653831 
L 252.973102 310.867179 
L 253.145264 310.792871 
L 253.317426 310.696176 
L 253.489589 310.68029 
L 253.919995 310.100469 
L 254.092157 310.035225 
L 254.436482 309.672148 
L 254.780806 309.54985 
L 255.211212 309.293784 
L 255.813781 309.368332 
L 256.50243 310.451669 
L 256.760674 310.708166 
L 257.104999 310.844817 
L 258.310135 312.073474 
L 259.084866 313.014467 
L 260.290003 312.036821 
L 261.064733 311.439538 
L 261.58122 310.494082 
L 261.839464 310.2302 
L 262.097708 310.340596 
L 262.355951 310.347468 
L 262.614195 310.353472 
L 262.786357 310.457412 
L 263.216763 310.243377 
L 263.388925 310.243407 
L 263.819331 309.511139 
L 263.991494 309.297167 
L 264.335818 308.256777 
L 264.507981 308.06702 
L 264.852306 307.548822 
L 265.110549 307.625812 
L 265.540955 307.966425 
L 265.88528 308.703352 
L 266.573929 310.813984 
L 267.176498 312.606563 
L 267.434741 312.986617 
L 267.865147 313.308149 
L 268.295553 313.321298 
L 268.381634 313.306511 
L 269.070284 311.758106 
L 269.931096 308.795935 
L 270.447583 308.1557 
L 270.705826 308.304849 
L 271.136232 308.891075 
L 272.771775 312.246121 
L 272.943937 312.310014 
L 273.374343 311.983521 
L 274.149074 310.53981 
L 274.407318 310.479652 
L 274.57948 310.459447 
L 275.009886 310.113936 
L 275.182048 310.091881 
L 275.612454 309.53553 
L 275.870698 309.481422 
L 276.128941 309.527465 
L 276.387185 309.818243 
L 277.334078 308.889396 
L 277.678403 309.031242 
L 277.936646 309.278138 
L 278.367052 310.133721 
L 278.969621 311.78792 
L 281.035569 318.05335 
L 281.982462 320.025816 
L 283.015436 321.626741 
L 284.134492 322.791024 
L 285.339629 323.666839 
L 286.20044 324.138496 
L 286.286522 324.101952 
L 286.544765 323.541655 
L 286.803009 322.937169 
L 287.233415 321.820226 
L 287.749902 320.961309 
L 288.008145 320.915637 
L 288.35247 320.911825 
L 288.696795 320.612218 
L 289.299363 320.029009 
L 290.074094 319.709653 
L 290.418419 319.821209 
L 290.934906 320.297237 
L 292.140042 321.54006 
L 292.484367 321.497603 
L 293.000854 321.500504 
L 293.947747 321.582867 
L 294.722478 321.731709 
L 296.185858 321.769406 
L 296.874508 321.538419 
L 297.304914 321.181824 
L 297.563157 320.788583 
L 298.079644 319.827588 
L 299.887349 313.592875 
L 301.436811 307.210658 
L 302.297623 304.938572 
L 302.469785 304.461414 
L 302.81411 302.818758 
L 302.986272 302.22819 
L 303.588841 298.872678 
L 304.27749 295.307589 
L 304.621815 294.086801 
L 304.880058 293.589766 
L 305.138302 293.058546 
L 305.310464 293.192307 
L 305.396545 293.112228 
L 305.654789 293.419628 
L 305.826951 293.275096 
L 306.085195 293.653784 
L 306.171276 293.682334 
L 306.42952 293.455529 
L 306.601682 293.721924 
L 306.946007 293.521728 
L 307.032088 293.388851 
L 307.20425 293.569133 
L 307.634656 293.02452 
L 307.720738 293.176048 
L 307.8929 293.128978 
L 307.978981 293.116289 
L 308.237225 292.781181 
L 308.409387 293.012648 
L 308.495468 292.971774 
L 308.753712 293.347842 
L 308.925874 293.240207 
L 309.184118 293.642811 
L 309.442361 293.724478 
L 309.528443 293.746539 
L 309.786686 294.240364 
L 310.217092 294.943046 
L 310.991823 297.101427 
L 311.077904 296.844074 
L 311.680472 288.743895 
L 311.852635 288.583464 
L 312.110878 288.071412 
L 312.369122 288.604361 
L 312.541284 289.427807 
L 312.885609 293.149892 
L 313.832502 304.697585 
L 314.43507 309.390694 
L 315.037639 312.563289 
L 315.640207 314.695768 
L 316.414938 316.359659 
L 316.931425 317.036693 
L 317.533993 317.44163 
L 318.308724 317.647618 
L 319.169536 317.583746 
L 319.944266 317.342964 
L 321.66589 316.920818 
L 322.268458 317.160329 
L 322.957108 317.683587 
L 323.731839 318.583812 
L 326.658599 322.042989 
L 328.380223 323.1969 
L 329.929684 323.911158 
L 331.909552 324.59792 
L 334.319825 325.351367 
L 336.557936 326.046597 
L 337.246585 326.248364 
L 350.58917 327.803619 
L 357.13134 328.125426 
L 366.858514 328.341198 
L 384.591239 328.491047 
L 425.22156 328.581207 
L 505.621391 328.611674 
L 540.570353 328.612187 
L 552.966044 328.611428 
L 567.513765 328.610731 
L 573.195124 328.610926 
L 671.155517 328.6108 
L 671.155517 328.6108 
" clip-path="url(#p3bea22e4cd)" style="fill: none; stroke: #1f77b4; stroke-width: 1.5; stroke-linecap: square"/>
   </g>
   <g id="line2d_16">
    <path d="M 51.54312 328.609247 
L 52.576094 328.524366 
L 54.211637 328.028368 
L 57.396641 327.345148 
L 59.54867 327.16697 
L 60.925969 327.595035 
L 62.733674 328.087286 
L 64.197055 328.276508 
L 64.971785 328.165827 
L 66.607328 327.108089 
L 67.554221 326.198941 
L 68.328952 325.172796 
L 69.361926 323.450174 
L 69.878413 322.497634 
L 70.050575 322.221745 
L 70.480981 321.51864 
L 70.653144 321.198881 
L 72.116524 317.426814 
L 74.69896 305.160613 
L 75.387609 302.699661 
L 75.731934 301.817775 
L 76.076259 300.847788 
L 76.248421 300.713697 
L 76.678827 300.337525 
L 76.764908 300.339955 
L 77.539639 299.242187 
L 77.62572 299.214904 
L 78.142207 298.361123 
L 78.228288 298.344725 
L 78.658694 297.735215 
L 78.830857 297.70947 
L 79.0891 297.631094 
L 79.261263 297.919702 
L 79.519506 298.554211 
L 80.122075 300.508244 
L 80.466399 301.940546 
L 80.55248 301.871277 
L 80.724643 301.365265 
L 80.982886 296.792349 
L 81.413292 289.581426 
L 81.585455 288.720593 
L 81.671536 288.714562 
L 81.843698 289.310581 
L 82.188023 292.077701 
L 84.16789 310.824505 
L 84.253972 310.730246 
L 84.426134 309.952966 
L 84.598296 304.154399 
L 85.028702 276.747741 
L 85.975595 185.407406 
L 86.664245 138.824978 
L 87.352894 112.842335 
L 87.611138 108.476182 
L 87.869381 104.807003 
L 87.955463 104.890436 
L 88.127625 105.643684 
L 88.299787 105.208737 
L 88.385869 105.384745 
L 88.558031 107.875398 
L 91.054385 169.196442 
L 92.948172 218.81633 
L 94.067227 241.686183 
L 95.186283 260.14398 
L 95.70277 264.537133 
L 96.047094 265.205233 
L 96.219257 265.028952 
L 96.649663 261.013253 
L 96.821825 258.46697 
L 97.338312 241.871496 
L 97.596556 223.334125 
L 98.026962 194.247576 
L 98.199124 190.868318 
L 98.285205 190.629828 
L 98.457368 192.568091 
L 98.801692 201.885953 
L 100.609397 258.437791 
L 101.470209 276.520328 
L 102.417102 291.514773 
L 103.277914 301.708041 
L 104.052645 308.471391 
L 104.913457 313.942682 
L 105.688188 317.509025 
L 106.462918 320.132804 
L 107.409811 322.401408 
L 108.184542 323.721724 
L 108.959273 324.671652 
L 110.336572 325.717479 
L 112.058196 326.371653 
L 113.09117 326.494545 
L 113.349413 326.562969 
L 113.779819 325.409315 
L 114.382388 322.924763 
L 114.726712 322.47442 
L 115.071037 322.539574 
L 116.104011 323.453704 
L 117.136986 324.310975 
L 118.944691 324.952738 
L 119.375097 325.005652 
L 120.408071 325.081706 
L 121.354964 324.997714 
L 121.78537 324.882609 
L 123.9374 324.352041 
L 124.281724 324.217653 
L 126.950241 323.076119 
L 127.380647 322.771595 
L 130.135245 320.923502 
L 130.565651 320.527302 
L 131.082138 320.35669 
L 131.426463 320.562782 
L 132.029031 321.442481 
L 134.439305 325.356645 
L 135.472279 326.403624 
L 136.505253 327.128067 
L 137.71039 327.684676 
L 139.17377 328.090677 
L 139.432014 328.086293 
L 140.206744 327.500504 
L 141.670124 325.519758 
L 142.10053 325.431462 
L 142.703099 325.671528 
L 143.305667 325.851897 
L 143.908235 325.81099 
L 145.199453 325.68217 
L 145.974184 325.810075 
L 146.232427 325.707544 
L 147.093239 324.98479 
L 147.609726 324.665998 
L 148.900944 324.764577 
L 149.589594 324.957684 
L 150.278243 324.90529 
L 151.225136 325.184037 
L 152.258111 324.347646 
L 152.94676 324.164356 
L 153.291085 324.079006 
L 153.807572 324.139954 
L 154.582303 324.72301 
L 155.529196 325.470948 
L 157.164738 325.022181 
L 157.681226 324.711654 
L 158.02555 324.749503 
L 158.455956 325.016136 
L 159.144606 325.505475 
L 159.919336 324.958326 
L 160.349742 324.57538 
L 160.521905 324.428334 
L 160.952311 324.072013 
L 161.124473 323.899475 
L 161.554879 323.430412 
L 161.899204 323.239892 
L 162.157447 323.340339 
L 162.932178 323.899342 
L 164.223396 324.74697 
L 164.653802 324.652193 
L 165.170289 324.634554 
L 165.686776 324.926659 
L 166.461507 325.417961 
L 166.977994 325.473454 
L 167.322319 325.42599 
L 167.924887 325.037789 
L 168.269212 324.976768 
L 168.785699 325.01676 
L 169.216105 324.879145 
L 169.646511 324.588084 
L 170.162998 324.163615 
L 170.507323 324.025674 
L 170.851647 324.147433 
L 171.540297 324.555605 
L 172.142865 324.934859 
L 173.434083 325.851982 
L 174.380976 325.270916 
L 175.672194 324.28484 
L 176.877331 324.333193 
L 177.221655 324.075574 
L 177.652061 323.607433 
L 178.25463 323.161148 
L 179.373685 323.108103 
L 180.578822 323.408669 
L 181.18139 323.213099 
L 181.611796 323.455093 
L 182.042202 323.768829 
L 182.472608 323.981461 
L 183.849907 324.639633 
L 184.108151 324.767107 
L 184.452475 324.912349 
L 185.141125 325.117146 
L 186.174099 325.612544 
L 186.432343 325.491752 
L 187.207073 324.300188 
L 187.551398 324.171456 
L 188.067885 324.404243 
L 188.928697 324.832242 
L 189.445184 324.947817 
L 189.617347 324.921669 
L 190.736402 324.020526 
L 190.994646 324.045854 
L 191.425052 324.387006 
L 193.749244 326.76502 
L 194.868299 327.415077 
L 196.159517 327.889966 
L 197.79506 328.233226 
L 200.03317 328.457854 
L 200.72182 328.56439 
L 201.066145 326.434853 
L 201.410469 320.351331 
L 201.754794 310.408681 
L 202.615606 284.026302 
L 203.218174 271.835663 
L 203.734662 267.453959 
L 204.33723 265.036253 
L 204.595473 264.857586 
L 204.681555 264.973964 
L 204.939798 264.847886 
L 205.542367 266.608877 
L 206.403178 271.753009 
L 208.296965 286.17697 
L 209.157776 292.109564 
L 210.965481 303.264407 
L 211.481969 305.35664 
L 211.654131 305.528403 
L 211.826293 305.585152 
L 212.084537 304.878096 
L 212.601024 301.364492 
L 212.859268 298.487356 
L 213.375755 287.500358 
L 213.892242 261.578548 
L 214.150485 233.207295 
L 214.580891 186.752853 
L 214.839135 179.043519 
L 214.925216 179.233152 
L 215.097378 182.242309 
L 215.527784 197.389651 
L 216.732921 242.957085 
L 217.507652 264.297293 
L 218.368464 281.894433 
L 219.229276 294.97557 
L 220.004006 303.686645 
L 220.778737 310.160714 
L 221.553468 314.956917 
L 222.328198 318.507421 
L 223.102929 321.13535 
L 223.963741 323.262532 
L 224.824553 324.785154 
L 225.685365 325.875035 
L 226.460095 326.552715 
L 227.148745 326.887283 
L 227.579151 326.935863 
L 228.095638 326.83639 
L 228.784287 326.452286 
L 229.559018 326.27054 
L 230.850236 326.346636 
L 231.711048 326.112401 
L 232.57186 325.28424 
L 233.174428 324.972958 
L 233.776996 324.66938 
L 234.293484 324.124912 
L 234.72389 323.582047 
L 235.068214 323.097615 
L 235.756864 322.337503 
L 236.18727 322.200138 
L 236.703757 322.512049 
L 237.134163 322.972183 
L 237.908893 323.768656 
L 238.597543 323.78154 
L 239.286193 323.186082 
L 239.888761 323.027564 
L 240.233086 323.288749 
L 240.749573 323.688485 
L 241.093897 323.733878 
L 241.438222 323.703533 
L 241.868628 323.765879 
L 242.557278 324.011337 
L 242.901602 323.791989 
L 243.41809 323.218946 
L 243.762414 323.098229 
L 244.795389 323.381107 
L 245.484038 322.722422 
L 245.828363 322.712557 
L 246.258769 323.075389 
L 247.549987 324.524356 
L 248.582961 324.820996 
L 249.099448 325.193473 
L 249.874179 324.947034 
L 250.132422 324.740582 
L 250.734991 324.203883 
L 251.251478 324.106036 
L 252.714858 324.327599 
L 252.88702 324.338868 
L 254.006076 323.556493 
L 254.350401 323.349364 
L 255.03905 323.314064 
L 255.813781 323.454897 
L 256.416349 323.902358 
L 256.588511 324.003648 
L 257.449323 324.027639 
L 257.96581 324.274745 
L 259.257028 325.020799 
L 259.601353 324.837799 
L 260.031759 324.421922 
L 260.462165 324.21497 
L 261.236896 324.074763 
L 261.753383 323.852561 
L 262.26987 323.959859 
L 262.614195 324.060436 
L 262.786357 324.037247 
L 263.216763 323.904658 
L 263.388925 323.783271 
L 264.766224 321.991544 
L 265.024468 322.067736 
L 265.540955 322.642596 
L 267.090416 324.554999 
L 268.123391 324.455498 
L 268.553797 324.302982 
L 268.898121 324.041915 
L 269.672852 322.817306 
L 270.189339 322.450081 
L 270.447583 322.546976 
L 270.96407 323.115744 
L 271.652719 323.849568 
L 272.685694 324.373852 
L 273.288262 324.150307 
L 273.89083 323.362246 
L 274.149074 323.240234 
L 274.407318 323.326232 
L 274.837723 323.571743 
L 275.182048 323.665615 
L 275.956779 323.308921 
L 276.817591 323.07865 
L 277.420159 322.793346 
L 277.764484 322.965015 
L 278.280971 323.616385 
L 279.830432 325.74878 
L 280.777326 326.628419 
L 281.8103 327.286271 
L 283.015436 327.784809 
L 284.478817 328.146927 
L 286.20044 328.390908 
L 287.405577 327.132731 
L 287.835983 327.123483 
L 288.696795 327.428678 
L 290.332337 327.974017 
L 291.795718 328.260435 
L 292.914773 327.809724 
L 293.517341 327.82767 
L 296.185858 328.188451 
L 297.477076 327.688522 
L 299.887349 325.301047 
L 300.403837 324.512738 
L 300.575999 324.226843 
L 301.264648 322.949466 
L 301.695054 322.190869 
L 302.297623 320.882938 
L 302.383704 320.799512 
L 302.986272 318.648661 
L 305.310464 305.391366 
L 305.654789 304.45538 
L 305.826951 304.149142 
L 306.601682 302.25264 
L 306.773845 301.874582 
L 307.462494 300.262224 
L 307.634656 299.966476 
L 308.065062 299.096674 
L 308.151144 299.050719 
L 308.495468 298.426841 
L 308.667631 298.449287 
L 308.753712 298.432053 
L 308.925874 298.51448 
L 309.270199 298.436484 
L 309.35628 298.41423 
L 309.528443 298.502545 
L 309.700605 298.509884 
L 310.389254 299.632484 
L 310.733579 300.65565 
L 310.991823 301.699473 
L 311.077904 301.618493 
L 311.250066 301.087907 
L 311.50831 296.480406 
L 311.852635 290.274977 
L 312.110878 288.695438 
L 312.196959 288.69492 
L 312.369122 289.314251 
L 312.713447 292.066723 
L 314.607233 309.821614 
L 315.381963 314.446134 
L 316.242775 318.115282 
L 317.017506 320.494426 
L 317.792237 322.231903 
L 318.480886 323.401681 
L 319.686023 324.735137 
L 324.420488 327.566587 
L 325.797787 327.998797 
L 326.572518 328.090723 
L 335.008474 328.595517 
L 349.470114 328.619911 
L 671.155517 328.62 
L 671.155517 328.62 
" clip-path="url(#p3bea22e4cd)" style="fill: none; stroke: #ff7f0e; stroke-width: 1.5; stroke-linecap: square"/>
   </g>
   <g id="patch_3">
    <path d="M 20.5625 342.2 
L 20.5625 43.44 
" style="fill: none; stroke: #000000; stroke-width: 0.8; stroke-linejoin: miter; stroke-linecap: square"/>
   </g>
   <g id="patch_4">
    <path d="M 702.136136 342.2 
L 702.136136 43.44 
" style="fill: none; stroke: #000000; stroke-width: 0.8; stroke-linejoin: miter; stroke-linecap: square"/>
   </g>
   <g id="patch_5">
    <path d="M 20.5625 342.2 
L 702.136136 342.2 
" style="fill: none; stroke: #000000; stroke-width: 0.8; stroke-linejoin: miter; stroke-linecap: square"/>
   </g>
   <g id="patch_6">
    <path d="M 20.5625 43.44 
L 702.136136 43.44 
" style="fill: none; stroke: #000000; stroke-width: 0.8; stroke-linejoin: miter; stroke-linecap: square"/>
   </g>
   <g id="text_15">
    <!-- 1 transformation(s) -->
    <g transform="translate(303.234631 37.44) scale(0.12 -0.12)">
     <defs>
      <path id="DejaVuSans-20" transform="scale(0.015625)"/>
      <path id="DejaVuSans-74" d="M 1172 4494 
L 1172 3500 
L 2356 3500 
L 2356 3053 
L 1172 3053 
L 1172 1153 
Q 1172 725 1289 603 
Q 1406 481 1766 481 
L 2356 481 
L 2356 0 
L 1766 0 
Q 1100 0 847 248 
Q 594 497 594 1153 
L 594 3053 
L 172 3053 
L 172 3500 
L 594 3500 
L 594 4494 
L 1172 4494 
z
" transform="scale(0.015625)"/>
      <path id="DejaVuSans-72" d="M 2631 2963 
Q 2534 3019 2420 3045 
Q 2306 3072 2169 3072 
Q 1681 3072 1420 2755 
Q 1159 2438 1159 1844 
L 1159 0 
L 581 0 
L 581 3500 
L 1159 3500 
L 1159 2956 
Q 1341 3275 1631 3429 
Q 1922 3584 2338 3584 
Q 2397 3584 2469 3576 
Q 2541 3569 2628 3553 
L 2631 2963 
z
" transform="scale(0.015625)"/>
      <path id="DejaVuSans-61" d="M 2194 1759 
Q 1497 1759 1228 1600 
Q 959 1441 959 1056 
Q 959 750 1161 570 
Q 1363 391 1709 391 
Q 2188 391 2477 730 
Q 2766 1069 2766 1631 
L 2766 1759 
L 2194 1759 
z
M 3341 1997 
L 3341 0 
L 2766 0 
L 2766 531 
Q 2569 213 2275 61 
Q 1981 -91 1556 -91 
Q 1019 -91 701 211 
Q 384 513 384 1019 
Q 384 1609 779 1909 
Q 1175 2209 1959 2209 
L 2766 2209 
L 2766 2266 
Q 2766 2663 2505 2880 
Q 2244 3097 1772 3097 
Q 1472 3097 1187 3025 
Q 903 2953 641 2809 
L 641 3341 
Q 956 3463 1253 3523 
Q 1550 3584 1831 3584 
Q 2591 3584 2966 3190 
Q 3341 2797 3341 1997 
z
" transform="scale(0.015625)"/>
      <path id="DejaVuSans-6e" d="M 3513 2113 
L 3513 0 
L 2938 0 
L 2938 2094 
Q 2938 2591 2744 2837 
Q 2550 3084 2163 3084 
Q 1697 3084 1428 2787 
Q 1159 2491 1159 1978 
L 1159 0 
L 581 0 
L 581 3500 
L 1159 3500 
L 1159 2956 
Q 1366 3272 1645 3428 
Q 1925 3584 2291 3584 
Q 2894 3584 3203 3211 
Q 3513 2838 3513 2113 
z
" transform="scale(0.015625)"/>
      <path id="DejaVuSans-73" d="M 2834 3397 
L 2834 2853 
Q 2591 2978 2328 3040 
Q 2066 3103 1784 3103 
Q 1356 3103 1142 2972 
Q 928 2841 928 2578 
Q 928 2378 1081 2264 
Q 1234 2150 1697 2047 
L 1894 2003 
Q 2506 1872 2764 1633 
Q 3022 1394 3022 966 
Q 3022 478 2636 193 
Q 2250 -91 1575 -91 
Q 1294 -91 989 -36 
Q 684 19 347 128 
L 347 722 
Q 666 556 975 473 
Q 1284 391 1588 391 
Q 1994 391 2212 530 
Q 2431 669 2431 922 
Q 2431 1156 2273 1281 
Q 2116 1406 1581 1522 
L 1381 1569 
Q 847 1681 609 1914 
Q 372 2147 372 2553 
Q 372 3047 722 3315 
Q 1072 3584 1716 3584 
Q 2034 3584 2315 3537 
Q 2597 3491 2834 3397 
z
" transform="scale(0.015625)"/>
      <path id="DejaVuSans-66" d="M 2375 4863 
L 2375 4384 
L 1825 4384 
Q 1516 4384 1395 4259 
Q 1275 4134 1275 3809 
L 1275 3500 
L 2222 3500 
L 2222 3053 
L 1275 3053 
L 1275 0 
L 697 0 
L 697 3053 
L 147 3053 
L 147 3500 
L 697 3500 
L 697 3744 
Q 697 4328 969 4595 
Q 1241 4863 1831 4863 
L 2375 4863 
z
" transform="scale(0.015625)"/>
      <path id="DejaVuSans-6f" d="M 1959 3097 
Q 1497 3097 1228 2736 
Q 959 2375 959 1747 
Q 959 1119 1226 758 
Q 1494 397 1959 397 
Q 2419 397 2687 759 
Q 2956 1122 2956 1747 
Q 2956 2369 2687 2733 
Q 2419 3097 1959 3097 
z
M 1959 3584 
Q 2709 3584 3137 3096 
Q 3566 2609 3566 1747 
Q 3566 888 3137 398 
Q 2709 -91 1959 -91 
Q 1206 -91 779 398 
Q 353 888 353 1747 
Q 353 2609 779 3096 
Q 1206 3584 1959 3584 
z
" transform="scale(0.015625)"/>
      <path id="DejaVuSans-6d" d="M 3328 2828 
Q 3544 3216 3844 3400 
Q 4144 3584 4550 3584 
Q 5097 3584 5394 3201 
Q 5691 2819 5691 2113 
L 5691 0 
L 5113 0 
L 5113 2094 
Q 5113 2597 4934 2840 
Q 4756 3084 4391 3084 
Q 3944 3084 3684 2787 
Q 3425 2491 3425 1978 
L 3425 0 
L 2847 0 
L 2847 2094 
Q 2847 2600 2669 2842 
Q 2491 3084 2119 3084 
Q 1678 3084 1418 2786 
Q 1159 2488 1159 1978 
L 1159 0 
L 581 0 
L 581 3500 
L 1159 3500 
L 1159 2956 
Q 1356 3278 1631 3431 
Q 1906 3584 2284 3584 
Q 2666 3584 2933 3390 
Q 3200 3197 3328 2828 
z
" transform="scale(0.015625)"/>
      <path id="DejaVuSans-69" d="M 603 3500 
L 1178 3500 
L 1178 0 
L 603 0 
L 603 3500 
z
M 603 4863 
L 1178 4863 
L 1178 4134 
L 603 4134 
L 603 4863 
z
" transform="scale(0.015625)"/>
      <path id="DejaVuSans-28" d="M 1984 4856 
Q 1566 4138 1362 3434 
Q 1159 2731 1159 2009 
Q 1159 1288 1364 580 
Q 1569 -128 1984 -844 
L 1484 -844 
Q 1016 -109 783 600 
Q 550 1309 550 2009 
Q 550 2706 781 3412 
Q 1013 4119 1484 4856 
L 1984 4856 
z
" transform="scale(0.015625)"/>
      <path id="DejaVuSans-29" d="M 513 4856 
L 1013 4856 
Q 1481 4119 1714 3412 
Q 1947 2706 1947 2009 
Q 1947 1309 1714 600 
Q 1481 -109 1013 -844 
L 513 -844 
Q 928 -128 1133 580 
Q 1338 1288 1338 2009 
Q 1338 2731 1133 3434 
Q 928 4138 513 4856 
z
" transform="scale(0.015625)"/>
     </defs>
     <use xlink:href="#DejaVuSans-31"/>
     <use xlink:href="#DejaVuSans-20" x="63.623047"/>
     <use xlink:href="#DejaVuSans-74" x="95.410156"/>
     <use xlink:href="#DejaVuSans-72" x="134.619141"/>
     <use xlink:href="#DejaVuSans-61" x="175.732422"/>
     <use xlink:href="#DejaVuSans-6e" x="237.011719"/>
     <use xlink:href="#DejaVuSans-73" x="300.390625"/>
     <use xlink:href="#DejaVuSans-66" x="352.490234"/>
     <use xlink:href="#DejaVuSans-6f" x="387.695312"/>
     <use xlink:href="#DejaVuSans-72" x="448.876953"/>
     <use xlink:href="#DejaVuSans-6d" x="488.240234"/>
     <use xlink:href="#DejaVuSans-61" x="585.652344"/>
     <use xlink:href="#DejaVuSans-74" x="646.931641"/>
     <use xlink:href="#DejaVuSans-69" x="686.140625"/>
     <use xlink:href="#DejaVuSans-6f" x="713.923828"/>
     <use xlink:href="#DejaVuSans-6e" x="775.105469"/>
     <use xlink:href="#DejaVuSans-28" x="838.484375"/>
     <use xlink:href="#DejaVuSans-73" x="877.498047"/>
     <use xlink:href="#DejaVuSans-29" x="929.597656"/>
    </g>
   </g>
   <g id="legend_1">
    <g id="patch_7">
     <path d="M 613.742386 80.79625 
L 695.136136 80.79625 
Q 697.136136 80.79625 697.136136 78.79625 
L 697.136136 50.44 
Q 697.136136 48.44 695.136136 48.44 
L 613.742386 48.44 
Q 611.742386 48.44 611.742386 50.44 
L 611.742386 78.79625 
Q 611.742386 80.79625 613.742386 80.79625 
z
" style="fill: #ffffff; opacity: 0.8; stroke: #cccccc; stroke-linejoin: miter"/>
    </g>
    <g id="line2d_17">
     <path d="M 615.742386 56.538437 
L 625.742386 56.538437 
L 635.742386 56.538437 
" style="fill: none; stroke: #1f77b4; stroke-width: 1.5; stroke-linecap: square"/>
    </g>
    <g id="text_16">
     <!-- observed -->
     <g transform="translate(643.742386 60.038437) scale(0.1 -0.1)">
      <defs>
       <path id="DejaVuSans-62" d="M 3116 1747 
Q 3116 2381 2855 2742 
Q 2594 3103 2138 3103 
Q 1681 3103 1420 2742 
Q 1159 2381 1159 1747 
Q 1159 1113 1420 752 
Q 1681 391 2138 391 
Q 2594 391 2855 752 
Q 3116 1113 3116 1747 
z
M 1159 2969 
Q 1341 3281 1617 3432 
Q 1894 3584 2278 3584 
Q 2916 3584 3314 3078 
Q 3713 2572 3713 1747 
Q 3713 922 3314 415 
Q 2916 -91 2278 -91 
Q 1894 -91 1617 61 
Q 1341 213 1159 525 
L 1159 0 
L 581 0 
L 581 4863 
L 1159 4863 
L 1159 2969 
z
" transform="scale(0.015625)"/>
       <path id="DejaVuSans-65" d="M 3597 1894 
L 3597 1613 
L 953 1613 
Q 991 1019 1311 708 
Q 1631 397 2203 397 
Q 2534 397 2845 478 
Q 3156 559 3463 722 
L 3463 178 
Q 3153 47 2828 -22 
Q 2503 -91 2169 -91 
Q 1331 -91 842 396 
Q 353 884 353 1716 
Q 353 2575 817 3079 
Q 1281 3584 2069 3584 
Q 2775 3584 3186 3129 
Q 3597 2675 3597 1894 
z
M 3022 2063 
Q 3016 2534 2758 2815 
Q 2500 3097 2075 3097 
Q 1594 3097 1305 2825 
Q 1016 2553 972 2059 
L 3022 2063 
z
" transform="scale(0.015625)"/>
       <path id="DejaVuSans-76" d="M 191 3500 
L 800 3500 
L 1894 563 
L 2988 3500 
L 3597 3500 
L 2284 0 
L 1503 0 
L 191 3500 
z
" transform="scale(0.015625)"/>
       <path id="DejaVuSans-64" d="M 2906 2969 
L 2906 4863 
L 3481 4863 
L 3481 0 
L 2906 0 
L 2906 525 
Q 2725 213 2448 61 
Q 2172 -91 1784 -91 
Q 1150 -91 751 415 
Q 353 922 353 1747 
Q 353 2572 751 3078 
Q 1150 3584 1784 3584 
Q 2172 3584 2448 3432 
Q 2725 3281 2906 2969 
z
M 947 1747 
Q 947 1113 1208 752 
Q 1469 391 1925 391 
Q 2381 391 2643 752 
Q 2906 1113 2906 1747 
Q 2906 2381 2643 2742 
Q 2381 3103 1925 3103 
Q 1469 3103 1208 2742 
Q 947 2381 947 1747 
z
" transform="scale(0.015625)"/>
      </defs>
      <use xlink:href="#DejaVuSans-6f"/>
      <use xlink:href="#DejaVuSans-62" x="61.181641"/>
      <use xlink:href="#DejaVuSans-73" x="124.658203"/>
      <use xlink:href="#DejaVuSans-65" x="176.757812"/>
      <use xlink:href="#DejaVuSans-72" x="238.28125"/>
      <use xlink:href="#DejaVuSans-76" x="279.394531"/>
      <use xlink:href="#DejaVuSans-65" x="338.574219"/>
      <use xlink:href="#DejaVuSans-64" x="400.097656"/>
     </g>
    </g>
    <g id="line2d_18">
     <path d="M 615.742386 71.216563 
L 625.742386 71.216563 
L 635.742386 71.216563 
" style="fill: none; stroke: #ff7f0e; stroke-width: 1.5; stroke-linecap: square"/>
    </g>
    <g id="text_17">
     <!-- simulated -->
     <g transform="translate(643.742386 74.716563) scale(0.1 -0.1)">
      <defs>
       <path id="DejaVuSans-75" d="M 544 1381 
L 544 3500 
L 1119 3500 
L 1119 1403 
Q 1119 906 1312 657 
Q 1506 409 1894 409 
Q 2359 409 2629 706 
Q 2900 1003 2900 1516 
L 2900 3500 
L 3475 3500 
L 3475 0 
L 2900 0 
L 2900 538 
Q 2691 219 2414 64 
Q 2138 -91 1772 -91 
Q 1169 -91 856 284 
Q 544 659 544 1381 
z
M 1991 3584 
L 1991 3584 
z
" transform="scale(0.015625)"/>
       <path id="DejaVuSans-6c" d="M 603 4863 
L 1178 4863 
L 1178 0 
L 603 0 
L 603 4863 
z
" transform="scale(0.015625)"/>
      </defs>
      <use xlink:href="#DejaVuSans-73"/>
      <use xlink:href="#DejaVuSans-69" x="52.099609"/>
      <use xlink:href="#DejaVuSans-6d" x="79.882812"/>
      <use xlink:href="#DejaVuSans-75" x="177.294922"/>
      <use xlink:href="#DejaVuSans-6c" x="240.673828"/>
      <use xlink:href="#DejaVuSans-61" x="268.457031"/>
      <use xlink:href="#DejaVuSans-74" x="329.736328"/>
      <use xlink:href="#DejaVuSans-65" x="368.945312"/>
      <use xlink:href="#DejaVuSans-64" x="430.46875"/>
     </g>
    </g>
   </g>
  </g>
  <g id="axes_2">
   <g id="patch_8">
    <path d="M 20.5625 684.92 
L 702.136136 684.92 
L 702.136136 386.16 
L 20.5625 386.16 
z
" style="fill: #ffffff"/>
   </g>
   <g id="matplotlib.axis_3">
    <g id="xtick_7">
     <g id="line2d_19">
      <g>
       <use xlink:href="#md1fd7e4de2" x="51.370957" y="684.92" style="stroke: #000000; stroke-width: 0.8"/>
      </g>
     </g>
     <g id="text_18">
      <!-- 2014-07-01 -->
      <g transform="translate(22.313145 699.518437) scale(0.1 -0.1)">
       <use xlink:href="#DejaVuSans-32"/>
       <use xlink:href="#DejaVuSans-30" x="63.623047"/>
       <use xlink:href="#DejaVuSans-31" x="127.246094"/>
       <use xlink:href="#DejaVuSans-34" x="190.869141"/>
       <use xlink:href="#DejaVuSans-2d" x="254.492188"/>
       <use xlink:href="#DejaVuSans-30" x="290.576172"/>
       <use xlink:href="#DejaVuSans-37" x="354.199219"/>
       <use xlink:href="#DejaVuSans-2d" x="417.822266"/>
       <use xlink:href="#DejaVuSans-30" x="453.90625"/>
       <use xlink:href="#DejaVuSans-31" x="517.529297"/>
      </g>
     </g>
    </g>
    <g id="xtick_8">
     <g id="line2d_20">
      <g>
       <use xlink:href="#md1fd7e4de2" x="175.327869" y="684.92" style="stroke: #000000; stroke-width: 0.8"/>
      </g>
     </g>
     <g id="text_19">
      <!-- 2014-07-02 -->
      <g transform="translate(146.270057 699.518437) scale(0.1 -0.1)">
       <use xlink:href="#DejaVuSans-32"/>
       <use xlink:href="#DejaVuSans-30" x="63.623047"/>
       <use xlink:href="#DejaVuSans-31" x="127.246094"/>
       <use xlink:href="#DejaVuSans-34" x="190.869141"/>
       <use xlink:href="#DejaVuSans-2d" x="254.492188"/>
       <use xlink:href="#DejaVuSans-30" x="290.576172"/>
       <use xlink:href="#DejaVuSans-37" x="354.199219"/>
       <use xlink:href="#DejaVuSans-2d" x="417.822266"/>
       <use xlink:href="#DejaVuSans-30" x="453.90625"/>
       <use xlink:href="#DejaVuSans-32" x="517.529297"/>
      </g>
     </g>
    </g>
    <g id="xtick_9">
     <g id="line2d_21">
      <g>
       <use xlink:href="#md1fd7e4de2" x="299.284781" y="684.92" style="stroke: #000000; stroke-width: 0.8"/>
      </g>
     </g>
     <g id="text_20">
      <!-- 2014-07-03 -->
      <g transform="translate(270.226969 699.518437) scale(0.1 -0.1)">
       <use xlink:href="#DejaVuSans-32"/>
       <use xlink:href="#DejaVuSans-30" x="63.623047"/>
       <use xlink:href="#DejaVuSans-31" x="127.246094"/>
       <use xlink:href="#DejaVuSans-34" x="190.869141"/>
       <use xlink:href="#DejaVuSans-2d" x="254.492188"/>
       <use xlink:href="#DejaVuSans-30" x="290.576172"/>
       <use xlink:href="#DejaVuSans-37" x="354.199219"/>
       <use xlink:href="#DejaVuSans-2d" x="417.822266"/>
       <use xlink:href="#DejaVuSans-30" x="453.90625"/>
       <use xlink:href="#DejaVuSans-33" x="517.529297"/>
      </g>
     </g>
    </g>
    <g id="xtick_10">
     <g id="line2d_22">
      <g>
       <use xlink:href="#md1fd7e4de2" x="423.241693" y="684.92" style="stroke: #000000; stroke-width: 0.8"/>
      </g>
     </g>
     <g id="text_21">
      <!-- 2014-07-04 -->
      <g transform="translate(394.18388 699.518437) scale(0.1 -0.1)">
       <use xlink:href="#DejaVuSans-32"/>
       <use xlink:href="#DejaVuSans-30" x="63.623047"/>
       <use xlink:href="#DejaVuSans-31" x="127.246094"/>
       <use xlink:href="#DejaVuSans-34" x="190.869141"/>
       <use xlink:href="#DejaVuSans-2d" x="254.492188"/>
       <use xlink:href="#DejaVuSans-30" x="290.576172"/>
       <use xlink:href="#DejaVuSans-37" x="354.199219"/>
       <use xlink:href="#DejaVuSans-2d" x="417.822266"/>
       <use xlink:href="#DejaVuSans-30" x="453.90625"/>
       <use xlink:href="#DejaVuSans-34" x="517.529297"/>
      </g>
     </g>
    </g>
    <g id="xtick_11">
     <g id="line2d_23">
      <g>
       <use xlink:href="#md1fd7e4de2" x="547.198605" y="684.92" style="stroke: #000000; stroke-width: 0.8"/>
      </g>
     </g>
     <g id="text_22">
      <!-- 2014-07-05 -->
      <g transform="translate(518.140792 699.518437) scale(0.1 -0.1)">
       <use xlink:href="#DejaVuSans-32"/>
       <use xlink:href="#DejaVuSans-30" x="63.623047"/>
       <use xlink:href="#DejaVuSans-31" x="127.246094"/>
       <use xlink:href="#DejaVuSans-34" x="190.869141"/>
       <use xlink:href="#DejaVuSans-2d" x="254.492188"/>
       <use xlink:href="#DejaVuSans-30" x="290.576172"/>
       <use xlink:href="#DejaVuSans-37" x="354.199219"/>
       <use xlink:href="#DejaVuSans-2d" x="417.822266"/>
       <use xlink:href="#DejaVuSans-30" x="453.90625"/>
       <use xlink:href="#DejaVuSans-35" x="517.529297"/>
      </g>
     </g>
    </g>
    <g id="xtick_12">
     <g id="line2d_24">
      <g>
       <use xlink:href="#md1fd7e4de2" x="671.155517" y="684.92" style="stroke: #000000; stroke-width: 0.8"/>
      </g>
     </g>
     <g id="text_23">
      <!-- 2014-07-06 -->
      <g transform="translate(642.097704 699.518437) scale(0.1 -0.1)">
       <use xlink:href="#DejaVuSans-32"/>
       <use xlink:href="#DejaVuSans-30" x="63.623047"/>
       <use xlink:href="#DejaVuSans-31" x="127.246094"/>
       <use xlink:href="#DejaVuSans-34" x="190.869141"/>
       <use xlink:href="#DejaVuSans-2d" x="254.492188"/>
       <use xlink:href="#DejaVuSans-30" x="290.576172"/>
       <use xlink:href="#DejaVuSans-37" x="354.199219"/>
       <use xlink:href="#DejaVuSans-2d" x="417.822266"/>
       <use xlink:href="#DejaVuSans-30" x="453.90625"/>
       <use xlink:href="#DejaVuSans-36" x="517.529297"/>
      </g>
     </g>
    </g>
   </g>
   <g id="matplotlib.axis_4">
    <g id="ytick_9">
     <g id="line2d_25">
      <g>
       <use xlink:href="#m92436c0645" x="20.5625" y="657.058142" style="stroke: #000000; stroke-width: 0.8"/>
      </g>
     </g>
     <g id="text_24">
      <!-- 0 -->
      <g transform="translate(7.2 660.857361) scale(0.1 -0.1)">
       <use xlink:href="#DejaVuSans-30"/>
      </g>
     </g>
    </g>
    <g id="ytick_10">
     <g id="line2d_26">
      <g>
       <use xlink:href="#m92436c0645" x="20.5625" y="623.177595" style="stroke: #000000; stroke-width: 0.8"/>
      </g>
     </g>
     <g id="text_25">
      <!-- 1 -->
      <g transform="translate(7.2 626.976814) scale(0.1 -0.1)">
       <use xlink:href="#DejaVuSans-31"/>
      </g>
     </g>
    </g>
    <g id="ytick_11">
     <g id="line2d_27">
      <g>
       <use xlink:href="#m92436c0645" x="20.5625" y="589.297048" style="stroke: #000000; stroke-width: 0.8"/>
      </g>
     </g>
     <g id="text_26">
      <!-- 2 -->
      <g transform="translate(7.2 593.096267) scale(0.1 -0.1)">
       <use xlink:href="#DejaVuSans-32"/>
      </g>
     </g>
    </g>
    <g id="ytick_12">
     <g id="line2d_28">
      <g>
       <use xlink:href="#m92436c0645" x="20.5625" y="555.416501" style="stroke: #000000; stroke-width: 0.8"/>
      </g>
     </g>
     <g id="text_27">
      <!-- 3 -->
      <g transform="translate(7.2 559.21572) scale(0.1 -0.1)">
       <use xlink:href="#DejaVuSans-33"/>
      </g>
     </g>
    </g>
    <g id="ytick_13">
     <g id="line2d_29">
      <g>
       <use xlink:href="#m92436c0645" x="20.5625" y="521.535955" style="stroke: #000000; stroke-width: 0.8"/>
      </g>
     </g>
     <g id="text_28">
      <!-- 4 -->
      <g transform="translate(7.2 525.335173) scale(0.1 -0.1)">
       <use xlink:href="#DejaVuSans-34"/>
      </g>
     </g>
    </g>
    <g id="ytick_14">
     <g id="line2d_30">
      <g>
       <use xlink:href="#m92436c0645" x="20.5625" y="487.655408" style="stroke: #000000; stroke-width: 0.8"/>
      </g>
     </g>
     <g id="text_29">
      <!-- 5 -->
      <g transform="translate(7.2 491.454626) scale(0.1 -0.1)">
       <use xlink:href="#DejaVuSans-35"/>
      </g>
     </g>
    </g>
    <g id="ytick_15">
     <g id="line2d_31">
      <g>
       <use xlink:href="#m92436c0645" x="20.5625" y="453.774861" style="stroke: #000000; stroke-width: 0.8"/>
      </g>
     </g>
     <g id="text_30">
      <!-- 6 -->
      <g transform="translate(7.2 457.57408) scale(0.1 -0.1)">
       <use xlink:href="#DejaVuSans-36"/>
      </g>
     </g>
    </g>
    <g id="ytick_16">
     <g id="line2d_32">
      <g>
       <use xlink:href="#m92436c0645" x="20.5625" y="419.894314" style="stroke: #000000; stroke-width: 0.8"/>
      </g>
     </g>
     <g id="text_31">
      <!-- 7 -->
      <g transform="translate(7.2 423.693533) scale(0.1 -0.1)">
       <use xlink:href="#DejaVuSans-37"/>
      </g>
     </g>
    </g>
   </g>
   <g id="line2d_33">
    <path d="M 51.54312 657.025549 
L 52.059607 656.874434 
L 52.403932 656.700463 
L 52.748256 656.515894 
L 53.178662 656.280923 
L 53.867312 655.89099 
L 54.383799 655.55667 
L 54.900286 655.211991 
L 57.052316 653.809346 
L 57.568803 653.191359 
L 58.946102 652.371399 
L 59.979076 651.918601 
L 60.753807 651.81253 
L 61.614619 651.930756 
L 62.991918 652.394373 
L 65.057866 653.099389 
L 66.349084 652.953674 
L 67.209896 652.302403 
L 67.554221 652.004324 
L 67.984627 651.349171 
L 68.156789 651.011706 
L 69.361926 645.499328 
L 69.964494 641.83951 
L 71.08355 635.116288 
L 71.255712 634.485048 
L 71.513956 633.323157 
L 71.85828 632.498848 
L 72.202605 630.850955 
L 72.374768 630.264397 
L 72.977336 627.373799 
L 73.924229 624.722461 
L 74.01031 624.495648 
L 74.096391 624.530905 
L 74.268554 624.399783 
L 74.526797 624.044294 
L 74.612878 623.882129 
L 74.785041 623.999014 
L 75.215447 623.388513 
L 75.301528 623.499792 
L 75.47369 623.464115 
L 75.645853 623.316797 
L 75.818015 623.110518 
L 75.990177 623.327946 
L 76.076259 623.29257 
L 76.334502 623.644249 
L 76.506665 623.537491 
L 76.764908 623.917945 
L 76.850989 623.958411 
L 77.109233 623.744714 
L 77.281395 624.003204 
L 77.539639 623.868885 
L 77.711801 623.684844 
L 77.797882 623.819272 
L 77.970045 623.781542 
L 78.142207 623.586715 
L 78.31437 623.336258 
L 78.486532 623.501776 
L 78.744775 623.396104 
L 78.916938 623.376276 
L 80.208156 626.635075 
L 80.466399 627.67473 
L 80.55248 627.477281 
L 81.155049 619.643611 
L 81.327211 619.383532 
L 81.585455 618.75104 
L 81.757617 618.961126 
L 81.929779 619.400067 
L 82.101942 620.56208 
L 82.618429 626.640725 
L 83.220997 633.602423 
L 83.737484 637.918551 
L 84.16789 640.612175 
L 84.253972 639.928752 
L 85.114783 600.901603 
L 85.717352 545.671187 
L 86.492082 479.700502 
L 87.094651 418.342352 
L 87.180732 418.106465 
L 87.266813 418.624798 
L 87.352894 418.268246 
L 87.611138 412.684226 
L 87.869381 408.616948 
L 88.385869 399.74 
L 88.47195 399.800939 
L 88.902356 407.870903 
L 89.160599 422.092157 
L 89.504924 469.543683 
L 89.677086 508.083137 
L 89.849249 534.919763 
L 90.279655 545.400501 
L 90.796142 555.613744 
L 91.656954 570.062451 
L 92.345603 583.035167 
L 94.841958 612.602699 
L 95.01412 613.307071 
L 95.444526 615.759004 
L 95.70277 614.780922 
L 95.788851 614.789985 
L 96.047094 613.501975 
L 96.735744 599.042759 
L 97.338312 568.04769 
L 98.026962 509.216995 
L 98.113043 508.522761 
L 98.371287 520.827051 
L 99.490342 595.219406 
L 100.09291 613.825869 
L 100.609397 624.085454 
L 101.125885 630.620945 
L 101.556291 633.99073 
L 102.072778 636.571275 
L 103.277914 640.864249 
L 104.39697 643.929945 
L 105.257782 645.612997 
L 105.774269 646.329209 
L 106.635081 647.042553 
L 107.409811 647.422589 
L 108.098461 647.579073 
L 108.959273 647.559829 
L 110.078328 647.296699 
L 111.972114 646.651628 
L 113.177251 646.12424 
L 113.349413 646.074098 
L 113.435495 645.881855 
L 114.296306 639.972505 
L 115.2432 637.831291 
L 115.587524 637.333888 
L 115.759687 637.465359 
L 116.190093 638.393677 
L 117.309148 641.423138 
L 117.997798 642.381895 
L 118.686447 642.7128 
L 119.289015 642.703809 
L 120.838477 642.245994 
L 121.354964 641.940953 
L 121.613207 641.795203 
L 121.957532 641.578615 
L 122.215776 641.40794 
L 122.560101 641.170063 
L 122.732263 641.151899 
L 123.162669 640.820515 
L 123.334831 640.801801 
L 123.765237 640.429791 
L 123.9374 640.404854 
L 124.367806 640.015808 
L 124.539968 639.99254 
L 124.970374 639.588701 
L 125.142536 639.555841 
L 125.572942 639.091675 
L 125.831186 639.042269 
L 126.17551 638.69702 
L 126.433754 638.689439 
L 126.778079 638.267338 
L 127.036322 638.264931 
L 127.380647 637.814998 
L 127.638891 637.785983 
L 127.983215 637.310941 
L 128.241459 637.255642 
L 128.585784 636.712323 
L 128.930109 636.619475 
L 129.188352 636.311436 
L 129.360514 636.298829 
L 129.532677 636.258636 
L 129.79092 635.850166 
L 129.963083 635.844881 
L 130.135245 635.788937 
L 130.393489 635.328568 
L 130.996057 635.165122 
L 131.426463 635.605436 
L 131.770788 636.203269 
L 132.373356 637.91036 
L 134.353223 644.475174 
L 135.214035 646.554451 
L 136.419172 648.71713 
L 137.624309 650.344397 
L 139.001608 651.588845 
L 139.432014 651.860432 
L 139.690257 651.753746 
L 139.948501 651.586927 
L 140.120663 651.066082 
L 140.63715 649.453267 
L 141.153637 647.138503 
L 142.78918 642.740979 
L 143.047423 642.391568 
L 143.477829 642.315877 
L 144.25256 642.714964 
L 144.596885 642.887897 
L 145.199453 643.059854 
L 145.802022 643.193975 
L 146.232427 642.979499 
L 147.265402 641.499255 
L 147.781889 641.047093 
L 148.55662 640.549565 
L 148.987026 640.633744 
L 150.536487 641.67727 
L 150.880812 641.9579 
L 151.311218 642.030225 
L 151.48338 641.851135 
L 151.827705 641.406118 
L 152.172029 640.911491 
L 152.602435 640.695604 
L 153.377166 639.90209 
L 153.63541 639.834481 
L 153.979734 639.901322 
L 154.324059 640.320855 
L 154.926628 641.388513 
L 155.701358 642.749804 
L 156.820414 643.09009 
L 157.853388 641.849808 
L 158.455956 641.747221 
L 159.058525 642.05972 
L 159.230687 642.206553 
L 159.747174 641.815712 
L 159.919336 641.780834 
L 160.263661 641.377214 
L 160.607986 641.155462 
L 161.124473 640.366632 
L 161.64096 639.004151 
L 161.985285 638.482118 
L 162.243529 638.582619 
L 162.846097 639.019141 
L 163.448665 640.152183 
L 163.879071 641.015838 
L 164.481639 641.725173 
L 164.739883 641.808748 
L 166.633669 642.872368 
L 166.977994 642.946175 
L 167.494481 642.859047 
L 168.097049 642.373105 
L 168.355293 642.369537 
L 168.527455 642.409804 
L 169.388267 641.374192 
L 169.904754 640.515634 
L 170.33516 639.974973 
L 170.765566 639.912358 
L 171.798541 640.614604 
L 172.228946 641.273435 
L 173.520164 643.703108 
L 174.036651 643.636664 
L 174.294895 643.404573 
L 174.983545 642.298711 
L 175.41395 641.486098 
L 175.758275 640.934331 
L 176.188681 640.477735 
L 176.533006 640.176455 
L 176.705168 640.020374 
L 177.393818 639.421964 
L 177.652061 639.115775 
L 177.824224 639.043507 
L 178.168549 638.680162 
L 178.512873 638.66748 
L 178.857198 638.268425 
L 179.459766 638.192599 
L 180.492741 639.086443 
L 180.750984 639.001392 
L 181.009228 639.048267 
L 181.267471 639.164441 
L 181.956121 639.84253 
L 182.558689 640.265306 
L 183.33342 640.899041 
L 184.280313 642.081475 
L 184.538556 642.18091 
L 186.088018 643.411274 
L 186.518424 643.106183 
L 187.293155 641.351096 
L 187.551398 641.165298 
L 187.981804 641.062647 
L 188.498291 640.816224 
L 188.928697 640.814927 
L 189.789509 641.374444 
L 190.736402 640.618808 
L 191.511133 640.797197 
L 191.941539 641.274849 
L 192.458026 642.280677 
L 194.437893 647.426966 
L 195.298705 649.027052 
L 196.245598 650.39808 
L 197.364654 651.499702 
L 198.655871 652.381242 
L 200.03317 653.044867 
L 200.72182 653.338343 
L 200.807901 652.529412 
L 201.066145 646.895148 
L 202.787768 608.258307 
L 203.132093 606.408582 
L 203.304256 606.365346 
L 203.476418 605.348458 
L 203.906824 604.260332 
L 204.165068 603.12597 
L 204.251149 603.159113 
L 204.767636 601.731184 
L 204.853717 601.926561 
L 204.939798 601.878385 
L 205.111961 602.130237 
L 205.198042 601.957745 
L 205.284123 602.091097 
L 206.058854 606.19436 
L 206.661422 610.931328 
L 207.091828 614.754826 
L 208.124802 622.133966 
L 208.899533 625.388759 
L 210.10467 629.457383 
L 210.276832 629.742105 
L 210.448994 630.178627 
L 210.707238 630.799336 
L 210.8794 631.013432 
L 211.051563 631.367175 
L 211.309806 631.831521 
L 211.654131 630.980724 
L 211.740212 630.942354 
L 211.912374 630.180812 
L 212.428862 626.255647 
L 212.601024 625.252376 
L 213.203592 617.197995 
L 213.892242 595.571414 
L 214.666973 528.391438 
L 214.753054 528.73622 
L 214.925216 534.910805 
L 215.95819 597.970781 
L 216.474677 614.998262 
L 216.991165 626.14252 
L 217.507652 633.367261 
L 218.024139 637.518167 
L 218.454545 639.868506 
L 219.229276 642.728135 
L 220.26225 645.379133 
L 221.381305 647.698273 
L 222.672523 649.844286 
L 223.791579 651.07622 
L 224.65239 651.799715 
L 225.857527 652.555503 
L 226.80442 652.901769 
L 227.579151 652.649432 
L 228.009557 652.239725 
L 228.353882 651.438245 
L 230.075505 647.609507 
L 230.505911 646.633251 
L 231.10848 645.012287 
L 232.830103 642.029494 
L 233.088347 641.741903 
L 233.690915 640.79817 
L 235.842945 636.722836 
L 236.445513 636.701785 
L 236.962 637.529369 
L 238.425381 640.426441 
L 238.597543 640.603831 
L 239.974842 639.531373 
L 240.233086 639.52853 
L 240.57741 639.578347 
L 241.438222 639.618239 
L 241.782547 639.948941 
L 242.471197 640.601884 
L 242.987684 640.124071 
L 243.504171 639.328593 
L 243.762414 639.130836 
L 244.106739 639.32405 
L 244.278901 639.272693 
L 244.795389 639.057666 
L 245.225795 638.3248 
L 245.742282 638.212105 
L 246.775256 639.675311 
L 247.894311 641.559925 
L 249.013367 643.303963 
L 249.185529 643.349166 
L 249.357692 643.346731 
L 249.96026 642.767262 
L 250.562828 641.570944 
L 250.821072 641.184154 
L 251.165397 640.890339 
L 251.940127 640.055759 
L 252.284452 639.965033 
L 252.628777 640.036709 
L 252.973102 640.238838 
L 253.145264 640.168437 
L 253.317426 640.076828 
L 253.489589 640.061777 
L 253.919995 639.512445 
L 254.092157 639.450632 
L 254.436482 639.106647 
L 254.780806 638.99078 
L 255.211212 638.748179 
L 255.813781 638.818807 
L 256.50243 639.845178 
L 256.760674 640.088187 
L 257.104999 640.217652 
L 258.310135 641.381702 
L 259.084866 642.273213 
L 260.376084 641.29003 
L 260.978652 640.896037 
L 261.495139 640.038495 
L 261.839464 639.635354 
L 262.700276 639.815141 
L 262.872438 639.796544 
L 263.388925 639.647867 
L 263.819331 638.954105 
L 263.991494 638.751384 
L 264.335818 637.765702 
L 264.507981 637.585924 
L 264.852306 637.094974 
L 265.110549 637.167916 
L 265.540955 637.490618 
L 265.88528 638.188794 
L 266.573929 640.188441 
L 267.176498 641.886758 
L 267.434741 642.246828 
L 267.865147 642.551452 
L 268.467716 642.382522 
L 268.725959 641.90432 
L 268.984203 641.452799 
L 269.50069 639.705162 
L 270.189339 637.906921 
L 270.447583 637.66994 
L 270.705826 637.811246 
L 271.136232 638.366646 
L 272.771775 641.54527 
L 272.943937 641.605803 
L 273.374343 641.296478 
L 274.149074 639.928684 
L 274.407318 639.871689 
L 274.57948 639.852547 
L 275.009886 639.525204 
L 275.182048 639.504309 
L 275.612454 638.977213 
L 275.870698 638.92595 
L 276.128941 638.969572 
L 276.387185 639.245059 
L 277.334078 638.365055 
L 277.764484 638.5511 
L 278.022727 638.866104 
L 278.539215 639.928429 
L 279.313945 642.164821 
L 280.605163 646.040369 
L 281.379894 647.808326 
L 282.412868 649.651818 
L 283.101518 650.529508 
L 284.306654 651.670411 
L 285.597872 652.509653 
L 286.286522 652.777672 
L 286.544765 652.246837 
L 286.803009 651.674138 
L 287.233415 650.615928 
L 287.749902 649.802177 
L 288.008145 649.758907 
L 288.438551 649.713439 
L 288.868957 649.266976 
L 289.299363 648.918901 
L 290.074094 648.616339 
L 290.418419 648.722028 
L 290.934906 649.173025 
L 292.140042 650.350495 
L 292.484367 650.31027 
L 293.000854 650.313019 
L 293.947747 650.39105 
L 294.808559 650.539777 
L 296.185858 650.567781 
L 296.874508 650.34894 
L 297.304914 650.011097 
L 297.563157 649.638533 
L 298.079644 648.728072 
L 299.887349 642.821205 
L 301.436811 636.774592 
L 302.297623 634.621982 
L 302.469785 634.169915 
L 302.81411 632.613637 
L 302.986272 632.054124 
L 303.588841 628.875058 
L 304.27749 625.497437 
L 304.621815 624.340842 
L 304.880058 623.869943 
L 305.138302 623.366657 
L 305.310464 623.493385 
L 305.396545 623.417517 
L 305.654789 623.708752 
L 305.826951 623.57182 
L 306.085195 623.930595 
L 306.171276 623.957643 
L 306.42952 623.742765 
L 306.601682 623.995153 
L 306.946007 623.805483 
L 307.032088 623.679593 
L 307.20425 623.850395 
L 307.634656 623.334421 
L 307.720738 623.47798 
L 307.8929 623.433385 
L 307.978981 623.421364 
L 308.237225 623.103878 
L 308.409387 623.323172 
L 308.495468 623.284448 
L 308.753712 623.640741 
L 308.925874 623.538766 
L 309.184118 623.920199 
L 309.442361 623.997572 
L 309.528443 624.018473 
L 309.786686 624.48633 
L 310.217092 625.152062 
L 310.991823 627.196947 
L 311.077904 626.953126 
L 311.680472 619.278888 
L 311.852635 619.126893 
L 312.110878 618.641768 
L 312.369122 619.146692 
L 312.541284 619.926837 
L 312.885609 623.4532 
L 313.832502 634.393667 
L 314.43507 638.839992 
L 315.037639 641.845759 
L 315.640207 643.866104 
L 316.414938 645.4425 
L 316.931425 646.083934 
L 317.533993 646.467577 
L 318.394805 646.665413 
L 319.083455 646.61684 
L 320.030348 646.349249 
L 321.063322 645.975435 
L 321.66589 645.974152 
L 322.268458 646.201068 
L 322.957108 646.696811 
L 323.731839 647.549698 
L 326.658599 650.826978 
L 328.380223 651.920211 
L 330.015765 652.630058 
L 332.426039 653.420868 
L 335.43888 654.25669 
L 338.107397 654.878288 
L 340.431589 655.177653 
L 346.112948 655.912596 
L 351.019576 656.311735 
L 357.819989 656.610702 
L 368.7523 656.818276 
L 390.44476 656.959576 
L 440.630093 657.031698 
L 472.221889 657.046615 
L 504.932741 657.051075 
L 512.85221 657.050506 
L 549.522797 657.050906 
L 559.766458 657.050624 
L 671.155517 657.049426 
L 671.155517 657.049426 
" clip-path="url(#p9f69139158)" style="fill: none; stroke: #1f77b4; stroke-width: 1.5; stroke-linecap: square"/>
   </g>
   <g id="line2d_34">
    <path d="M 51.54312 657.047955 
L 54.297718 657.158959 
L 55.675017 657.111685 
L 56.191504 657.061847 
L 56.966235 656.975228 
L 57.310559 656.943559 
L 58.257453 656.822747 
L 58.601777 656.78332 
L 60.151239 656.601559 
L 64.024892 656.126565 
L 66.951653 656.118009 
L 67.123815 656.05498 
L 67.554221 655.949253 
L 67.726383 655.854332 
L 68.156789 655.674293 
L 68.415033 655.500945 
L 68.759358 655.272438 
L 69.017601 655.035491 
L 69.361926 654.736646 
L 69.620169 654.435503 
L 70.567063 653.52371 
L 70.997468 652.842174 
L 71.255712 652.481246 
L 71.600037 651.87071 
L 71.85828 651.396827 
L 72.288686 650.055704 
L 72.460849 649.469451 
L 72.977336 647.224578 
L 73.149498 646.668738 
L 73.579904 644.93614 
L 73.752067 644.405934 
L 74.182472 642.678382 
L 74.354635 642.212028 
L 74.785041 640.655505 
L 74.957203 640.308153 
L 75.387609 639.026337 
L 75.47369 638.985391 
L 76.076259 637.795358 
L 76.248421 637.925339 
L 76.592746 637.663863 
L 76.678827 637.662332 
L 76.850989 637.776249 
L 77.281395 637.336321 
L 77.453558 637.384222 
L 77.883964 636.8203 
L 78.056126 636.847079 
L 78.486532 636.26467 
L 78.658694 636.327346 
L 78.916938 636.175639 
L 79.0891 636.242577 
L 79.433425 637.089476 
L 80.122075 639.289525 
L 80.466399 640.685881 
L 80.55248 640.574274 
L 80.810724 638.240394 
L 81.413292 630.188602 
L 81.585455 629.380247 
L 81.671536 629.324244 
L 81.843698 629.764324 
L 82.101942 631.549002 
L 82.790591 639.06109 
L 83.39316 644.497983 
L 83.909647 647.173193 
L 84.16789 648.099999 
L 84.426134 645.963588 
L 84.684378 640.38661 
L 84.942621 630.437035 
L 85.286946 603.253227 
L 86.406001 496.989516 
L 86.750326 470.786248 
L 87.352894 441.559425 
L 87.525057 437.924006 
L 87.7833 433.747639 
L 87.955463 437.28269 
L 88.213706 440.484298 
L 88.385869 444.051805 
L 88.644112 457.61625 
L 89.504924 499.971913 
L 91.829116 592.853304 
L 92.689928 615.697493 
L 93.55074 631.965184 
L 94.325471 642.172831 
L 95.186283 649.850139 
L 95.444526 650.931977 
L 95.530607 650.871025 
L 95.70277 650.256161 
L 96.133176 648.09414 
L 96.649663 640.810439 
L 96.907906 633.205785 
L 97.424393 611.349672 
L 98.026962 567.884963 
L 98.285205 562.567101 
L 98.371287 562.932875 
L 98.543449 566.477855 
L 98.887774 579.849944 
L 100.178991 639.60881 
L 100.695479 653.050561 
L 101.211966 661.292728 
L 101.728453 665.991972 
L 102.24494 668.83875 
L 102.761427 670.397719 
L 103.191833 671.016413 
L 103.622239 671.269089 
L 104.138726 671.32511 
L 107.668055 670.662155 
L 108.959273 670.471722 
L 109.47576 670.384343 
L 110.336572 670.240197 
L 110.766978 670.176566 
L 111.541708 670.030555 
L 111.972114 669.966964 
L 112.660764 669.853459 
L 113.09117 669.753632 
L 113.349413 669.759604 
L 113.521576 669.22301 
L 113.607657 669.267995 
L 113.951982 669.08112 
L 114.640631 668.346205 
L 114.984956 668.171831 
L 115.673605 668.119795 
L 116.190093 668.121155 
L 116.964823 668.082927 
L 117.309148 667.99559 
L 118.256041 667.811672 
L 118.600366 667.675744 
L 119.547259 667.452265 
L 119.891584 667.304561 
L 120.752396 667.078531 
L 121.09672 666.913854 
L 121.957532 666.65694 
L 122.301857 666.473152 
L 123.24875 666.184707 
L 123.593075 665.986643 
L 123.9374 665.851847 
L 124.195643 665.723465 
L 124.539968 665.577611 
L 124.798211 665.438998 
L 125.142536 665.283238 
L 125.40078 665.135119 
L 126.347673 664.759655 
L 126.691998 664.503147 
L 127.036322 664.325712 
L 127.294566 664.14845 
L 127.638891 663.952399 
L 127.897134 663.758762 
L 128.241459 663.547658 
L 128.499703 663.339667 
L 129.532677 662.718699 
L 129.79092 662.499598 
L 130.135245 662.260183 
L 130.393489 662.009076 
L 131.082138 661.670049 
L 131.598625 661.769543 
L 133.234168 662.460388 
L 134.09498 662.392767 
L 137.796471 661.776899 
L 140.378907 661.714912 
L 140.63715 661.709431 
L 140.895394 661.663392 
L 141.3258 661.56672 
L 141.584043 661.472442 
L 145.629859 660.595383 
L 145.888103 660.502927 
L 146.232427 660.390992 
L 146.40459 660.297026 
L 146.834996 660.152696 
L 147.093239 660.029429 
L 150.364325 659.246635 
L 151.139055 659.102549 
L 151.397299 658.859211 
L 152.430273 658.458489 
L 152.688517 658.341331 
L 154.582303 658.023552 
L 155.443115 657.968557 
L 155.701358 657.770869 
L 156.734332 657.602395 
L 156.992576 657.380819 
L 158.455956 657.114995 
L 159.144606 657.034969 
L 159.402849 656.78913 
L 159.919336 656.633807 
L 160.17758 656.510292 
L 160.521905 656.350087 
L 160.780148 656.190886 
L 161.124473 655.992185 
L 161.382717 655.788477 
L 161.985285 655.581232 
L 164.137315 655.4733 
L 164.481639 655.298151 
L 167.236238 654.841797 
L 167.494481 654.641277 
L 169.130024 654.277231 
L 169.474348 654.043902 
L 169.818673 653.90017 
L 170.076917 653.764515 
L 170.851647 653.630131 
L 171.195972 653.563179 
L 172.917596 653.440007 
L 173.17584 653.374515 
L 173.520164 653.270535 
L 173.692327 653.18795 
L 174.122733 653.092556 
L 174.380976 652.996756 
L 174.725301 652.861993 
L 174.983545 652.718444 
L 177.221655 651.959693 
L 177.479899 651.779259 
L 179.287604 651.087606 
L 180.320578 650.943288 
L 180.492741 650.835901 
L 181.353552 650.669177 
L 182.128283 650.645627 
L 182.472608 650.550093 
L 183.935988 650.443478 
L 184.280313 650.289078 
L 185.829774 650.16998 
L 186.088018 649.949714 
L 186.518424 649.818436 
L 186.690586 649.696691 
L 188.067885 649.349445 
L 188.928697 649.261221 
L 189.359103 649.165874 
L 189.617347 649.050966 
L 189.789509 648.931067 
L 191.425052 648.595498 
L 192.544107 648.599794 
L 196.589923 648.17037 
L 200.635739 648.292942 
L 200.72182 648.394953 
L 200.893982 647.411181 
L 201.066145 647.645344 
L 201.152226 647.578765 
L 201.324388 647.146614 
L 201.668713 643.128585 
L 202.099119 634.467085 
L 203.390337 604.364605 
L 203.820743 600.139511 
L 203.992905 599.618765 
L 204.33723 598.552418 
L 204.767636 599.912069 
L 204.939798 600.676239 
L 206.575341 616.586149 
L 207.866559 628.239743 
L 208.985614 634.798692 
L 210.621157 641.095377 
L 211.309806 642.35369 
L 211.912374 641.370767 
L 212.601024 636.964176 
L 213.117511 629.573255 
L 213.375755 622.762586 
L 213.892242 599.007075 
L 214.322648 551.632238 
L 214.666973 524.170734 
L 214.839135 519.06259 
L 214.925216 518.693263 
L 215.097378 521.527799 
L 215.355622 532.20907 
L 216.991165 619.468234 
L 217.507652 631.151609 
L 217.938058 636.59783 
L 218.368464 639.783207 
L 218.79887 641.575197 
L 219.229276 642.487665 
L 219.659681 642.881839 
L 220.176169 643.006417 
L 221.209143 642.913723 
L 222.844685 642.833202 
L 225.771446 642.997839 
L 227.923476 643.237267 
L 228.095638 643.222225 
L 228.2678 643.215907 
L 228.95645 643.288049 
L 229.817262 643.293859 
L 230.247668 643.221076 
L 231.194561 643.07317 
L 231.452804 643.019624 
L 231.797129 642.93591 
L 231.969291 642.853748 
L 232.916185 642.669443 
L 233.260509 642.519773 
L 233.604834 642.39603 
L 233.776996 642.277207 
L 234.293484 642.047081 
L 234.551727 641.85421 
L 234.896052 641.628324 
L 235.154295 641.406718 
L 236.18727 640.909102 
L 237.048082 641.10706 
L 237.564569 641.207421 
L 237.994975 641.212532 
L 238.167137 641.151113 
L 238.597543 641.036122 
L 238.769705 640.917694 
L 240.060923 640.523949 
L 240.491329 640.52778 
L 240.663492 640.467236 
L 241.610385 640.309596 
L 242.126872 640.294649 
L 242.212953 640.321093 
L 242.471197 640.11496 
L 242.901602 639.95229 
L 243.159846 639.776986 
L 243.848496 639.589172 
L 244.19282 639.55099 
L 244.364983 639.47953 
L 244.795389 639.347597 
L 244.967551 639.207297 
L 245.742282 638.933289 
L 246.430931 639.050325 
L 247.205662 639.229552 
L 247.463905 639.068603 
L 249.099448 638.935271 
L 249.27161 638.851754 
L 249.788098 638.744457 
L 249.96026 638.645065 
L 250.993234 638.331838 
L 251.251478 638.264001 
L 252.198371 638.097747 
L 252.456614 638.059682 
L 252.88702 637.981557 
L 253.059183 637.881267 
L 253.489589 637.732999 
L 253.747832 637.588772 
L 255.555537 637.108145 
L 257.104999 637.033061 
L 257.621486 636.994958 
L 258.310135 636.98847 
L 258.912704 636.977542 
L 258.998785 636.999088 
L 259.257028 636.780911 
L 259.945678 636.589718 
L 260.892571 636.341275 
L 261.064733 636.236958 
L 262.011626 636.079412 
L 262.183789 636.034371 
L 262.442032 635.971604 
L 262.786357 635.901826 
L 263.044601 635.80796 
L 263.388925 635.670812 
L 263.561088 635.529954 
L 263.991494 635.252459 
L 264.249737 634.990361 
L 264.766224 634.707992 
L 265.19663 634.778321 
L 265.627036 634.90405 
L 266.487848 635.178835 
L 266.918254 635.210504 
L 267.090416 635.149672 
L 267.262579 635.079341 
L 268.295553 634.949667 
L 268.553797 634.725787 
L 268.984203 634.525658 
L 269.242446 634.314698 
L 270.447583 633.774765 
L 271.652719 633.950669 
L 272.685694 633.924009 
L 272.857856 633.825929 
L 273.288262 633.681389 
L 273.460424 633.54829 
L 274.235155 633.296871 
L 275.095967 633.252766 
L 275.354211 633.055014 
L 276.903672 632.567247 
L 277.247997 632.413992 
L 277.764484 632.44152 
L 279.400026 632.790342 
L 283.704086 632.69138 
L 286.286522 632.862097 
L 286.372603 632.767854 
L 286.975171 633.14126 
L 287.663821 633.284315 
L 288.868957 633.256345 
L 291.365312 633.150863 
L 292.570448 633.295643 
L 293.43126 633.435616 
L 295.497209 633.436754 
L 296.013696 633.454626 
L 298.596132 633.673894 
L 298.854375 633.550117 
L 299.370862 633.462048 
L 299.543025 633.373341 
L 299.973431 633.217636 
L 300.145593 633.092254 
L 300.575999 632.850684 
L 300.834242 632.625785 
L 301.178567 632.345987 
L 301.436811 632.053893 
L 301.781136 631.703393 
L 302.039379 631.346018 
L 302.469785 630.831415 
L 302.81411 630.005576 
L 303.072353 629.274798 
L 304.105328 624.597636 
L 304.27749 623.87449 
L 304.707896 621.771708 
L 304.880058 621.183443 
L 305.310464 619.436382 
L 305.999114 618.262218 
L 306.085195 618.291807 
L 306.42952 617.648278 
L 306.601682 617.389712 
L 306.687763 617.424477 
L 306.946007 617.003451 
L 307.20425 616.561605 
L 307.290332 616.610457 
L 307.548575 616.240158 
L 307.806819 615.847286 
L 307.978981 615.856156 
L 308.409387 615.286166 
L 308.495468 615.338055 
L 308.667631 615.616637 
L 309.098037 615.627348 
L 309.270199 615.859447 
L 309.528443 615.893173 
L 309.700605 616.03383 
L 310.04493 616.628001 
L 310.303173 617.134306 
L 310.991823 619.537243 
L 311.077904 619.428071 
L 311.336148 617.067645 
L 311.938716 609.226507 
L 312.110878 608.486596 
L 312.196959 608.447089 
L 312.369122 608.964589 
L 312.627365 610.814916 
L 313.316015 618.419904 
L 313.918583 623.902057 
L 314.348989 626.245917 
L 314.779395 627.588056 
L 315.209801 628.241249 
L 315.640207 628.522173 
L 316.156694 628.620259 
L 316.931425 628.630087 
L 318.566967 628.590483 
L 318.997373 628.599885 
L 319.772104 628.59011 
L 320.116429 628.597236 
L 321.924134 628.622051 
L 326.830761 628.756341 
L 329.671441 629.063317 
L 336.988342 629.973722 
L 356.787015 632.358302 
L 377.532582 634.631916 
L 399.311122 636.793905 
L 422.2948 638.849888 
L 446.483614 640.788788 
L 472.135808 642.619901 
L 499.423545 644.342093 
L 528.518987 645.952696 
L 559.680377 647.452116 
L 593.252041 648.841785 
L 629.578302 650.119943 
L 669.26173 651.290107 
L 671.155517 651.340727 
L 671.155517 651.340727 
" clip-path="url(#p9f69139158)" style="fill: none; stroke: #ff7f0e; stroke-width: 1.5; stroke-linecap: square"/>
   </g>
   <g id="patch_9">
    <path d="M 20.5625 684.92 
L 20.5625 386.16 
" style="fill: none; stroke: #000000; stroke-width: 0.8; stroke-linejoin: miter; stroke-linecap: square"/>
   </g>
   <g id="patch_10">
    <path d="M 702.136136 684.92 
L 702.136136 386.16 
" style="fill: none; stroke: #000000; stroke-width: 0.8; stroke-linejoin: miter; stroke-linecap: square"/>
   </g>
   <g id="patch_11">
    <path d="M 20.5625 684.92 
L 702.136136 684.92 
" style="fill: none; stroke: #000000; stroke-width: 0.8; stroke-linejoin: miter; stroke-linecap: square"/>
   </g>
   <g id="patch_12">
    <path d="M 20.5625 386.16 
L 702.136136 386.16 
" style="fill: none; stroke: #000000; stroke-width: 0.8; stroke-linejoin: miter; stroke-linecap: square"/>
   </g>
   <g id="text_32">
    <!-- 2 transformation(s) -->
    <g transform="translate(303.234631 380.16) scale(0.12 -0.12)">
     <use xlink:href="#DejaVuSans-32"/>
     <use xlink:href="#DejaVuSans-20" x="63.623047"/>
     <use xlink:href="#DejaVuSans-74" x="95.410156"/>
     <use xlink:href="#DejaVuSans-72" x="134.619141"/>
     <use xlink:href="#DejaVuSans-61" x="175.732422"/>
     <use xlink:href="#DejaVuSans-6e" x="237.011719"/>
     <use xlink:href="#DejaVuSans-73" x="300.390625"/>
     <use xlink:href="#DejaVuSans-66" x="352.490234"/>
     <use xlink:href="#DejaVuSans-6f" x="387.695312"/>
     <use xlink:href="#DejaVuSans-72" x="448.876953"/>
     <use xlink:href="#DejaVuSans-6d" x="488.240234"/>
     <use xlink:href="#DejaVuSans-61" x="585.652344"/>
     <use xlink:href="#DejaVuSans-74" x="646.931641"/>
     <use xlink:href="#DejaVuSans-69" x="686.140625"/>
     <use xlink:href="#DejaVuSans-6f" x="713.923828"/>
     <use xlink:href="#DejaVuSans-6e" x="775.105469"/>
     <use xlink:href="#DejaVuSans-28" x="838.484375"/>
     <use xlink:href="#DejaVuSans-73" x="877.498047"/>
     <use xlink:href="#DejaVuSans-29" x="929.597656"/>
    </g>
   </g>
  </g>
  <g id="text_33">
   <!-- training -->
   <g transform="translate(333.129063 16.318125) scale(0.12 -0.12)">
    <defs>
     <path id="DejaVuSans-67" d="M 2906 1791 
Q 2906 2416 2648 2759 
Q 2391 3103 1925 3103 
Q 1463 3103 1205 2759 
Q 947 2416 947 1791 
Q 947 1169 1205 825 
Q 1463 481 1925 481 
Q 2391 481 2648 825 
Q 2906 1169 2906 1791 
z
M 3481 434 
Q 3481 -459 3084 -895 
Q 2688 -1331 1869 -1331 
Q 1566 -1331 1297 -1286 
Q 1028 -1241 775 -1147 
L 775 -588 
Q 1028 -725 1275 -790 
Q 1522 -856 1778 -856 
Q 2344 -856 2625 -561 
Q 2906 -266 2906 331 
L 2906 616 
Q 2728 306 2450 153 
Q 2172 0 1784 0 
Q 1141 0 747 490 
Q 353 981 353 1791 
Q 353 2603 747 3093 
Q 1141 3584 1784 3584 
Q 2172 3584 2450 3431 
Q 2728 3278 2906 2969 
L 2906 3500 
L 3481 3500 
L 3481 434 
z
" transform="scale(0.015625)"/>
    </defs>
    <use xlink:href="#DejaVuSans-74"/>
    <use xlink:href="#DejaVuSans-72" x="39.208984"/>
    <use xlink:href="#DejaVuSans-61" x="80.322266"/>
    <use xlink:href="#DejaVuSans-69" x="141.601562"/>
    <use xlink:href="#DejaVuSans-6e" x="169.384766"/>
    <use xlink:href="#DejaVuSans-69" x="232.763672"/>
    <use xlink:href="#DejaVuSans-6e" x="260.546875"/>
    <use xlink:href="#DejaVuSans-67" x="323.925781"/>
   </g>
  </g>
 </g>
 <defs>
  <clipPath id="p3bea22e4cd">
   <rect x="20.5625" y="43.44" width="681.573636" height="298.76"/>
  </clipPath>
  <clipPath id="p9f69139158">
   <rect x="20.5625" y="386.16" width="681.573636" height="298.76"/>
  </clipPath>
 </defs>
</svg>
