<?xml version="1.0" encoding="utf-8" standalone="no"?>
<!DOCTYPE svg PUBLIC "-//W3C//DTD SVG 1.1//EN"
  "http://www.w3.org/Graphics/SVG/1.1/DTD/svg11.dtd">
<svg xmlns:xlink="http://www.w3.org/1999/xlink" width="709.426761pt" height="708.798125pt" viewBox="0 0 709.426761 708.798125" xmlns="http://www.w3.org/2000/svg" version="1.1">
 <metadata>
  <rdf:RDF xmlns:dc="http://purl.org/dc/elements/1.1/" xmlns:cc="http://creativecommons.org/ns#" xmlns:rdf="http://www.w3.org/1999/02/22-rdf-syntax-ns#">
   <cc:Work>
    <dc:type rdf:resource="http://purl.org/dc/dcmitype/StillImage"/>
    <dc:date>2023-06-11T19:02:49.342037</dc:date>
    <dc:format>image/svg+xml</dc:format>
    <dc:creator>
     <cc:Agent>
      <dc:title>Matplotlib v3.7.1, https://matplotlib.org/</dc:title>
     </cc:Agent>
    </dc:creator>
   </cc:Work>
  </rdf:RDF>
 </metadata>
 <defs>
  <style type="text/css">*{stroke-linejoin: round; stroke-linecap: butt}</style>
 </defs>
 <g id="figure_1">
  <g id="patch_1">
   <path d="M 0 708.798125 
L 709.426761 708.798125 
L 709.426761 0 
L 0 0 
z
" style="fill: #ffffff"/>
  </g>
  <g id="axes_1">
   <g id="patch_2">
    <path d="M 30.103125 342.2 
L 702.226761 342.2 
L 702.226761 43.44 
L 30.103125 43.44 
z
" style="fill: #ffffff"/>
   </g>
   <g id="matplotlib.axis_1">
    <g id="xtick_1">
     <g id="line2d_1">
      <defs>
       <path id="m9f1a013be8" d="M 0 0 
L 0 3.5 
" style="stroke: #000000; stroke-width: 0.8"/>
      </defs>
      <g>
       <use xlink:href="#m9f1a013be8" x="60.484424" y="342.2" style="stroke: #000000; stroke-width: 0.8"/>
      </g>
     </g>
     <g id="text_1">
      <!-- 2014-07-01 -->
      <g transform="translate(31.426612 356.798437) scale(0.1 -0.1)">
       <defs>
        <path id="DejaVuSans-32" d="M 1228 531 
L 3431 531 
L 3431 0 
L 469 0 
L 469 531 
Q 828 903 1448 1529 
Q 2069 2156 2228 2338 
Q 2531 2678 2651 2914 
Q 2772 3150 2772 3378 
Q 2772 3750 2511 3984 
Q 2250 4219 1831 4219 
Q 1534 4219 1204 4116 
Q 875 4013 500 3803 
L 500 4441 
Q 881 4594 1212 4672 
Q 1544 4750 1819 4750 
Q 2544 4750 2975 4387 
Q 3406 4025 3406 3419 
Q 3406 3131 3298 2873 
Q 3191 2616 2906 2266 
Q 2828 2175 2409 1742 
Q 1991 1309 1228 531 
z
" transform="scale(0.015625)"/>
        <path id="DejaVuSans-30" d="M 2034 4250 
Q 1547 4250 1301 3770 
Q 1056 3291 1056 2328 
Q 1056 1369 1301 889 
Q 1547 409 2034 409 
Q 2525 409 2770 889 
Q 3016 1369 3016 2328 
Q 3016 3291 2770 3770 
Q 2525 4250 2034 4250 
z
M 2034 4750 
Q 2819 4750 3233 4129 
Q 3647 3509 3647 2328 
Q 3647 1150 3233 529 
Q 2819 -91 2034 -91 
Q 1250 -91 836 529 
Q 422 1150 422 2328 
Q 422 3509 836 4129 
Q 1250 4750 2034 4750 
z
" transform="scale(0.015625)"/>
        <path id="DejaVuSans-31" d="M 794 531 
L 1825 531 
L 1825 4091 
L 703 3866 
L 703 4441 
L 1819 4666 
L 2450 4666 
L 2450 531 
L 3481 531 
L 3481 0 
L 794 0 
L 794 531 
z
" transform="scale(0.015625)"/>
        <path id="DejaVuSans-34" d="M 2419 4116 
L 825 1625 
L 2419 1625 
L 2419 4116 
z
M 2253 4666 
L 3047 4666 
L 3047 1625 
L 3713 1625 
L 3713 1100 
L 3047 1100 
L 3047 0 
L 2419 0 
L 2419 1100 
L 313 1100 
L 313 1709 
L 2253 4666 
z
" transform="scale(0.015625)"/>
        <path id="DejaVuSans-2d" d="M 313 2009 
L 1997 2009 
L 1997 1497 
L 313 1497 
L 313 2009 
z
" transform="scale(0.015625)"/>
        <path id="DejaVuSans-37" d="M 525 4666 
L 3525 4666 
L 3525 4397 
L 1831 0 
L 1172 0 
L 2766 4134 
L 525 4134 
L 525 4666 
z
" transform="scale(0.015625)"/>
       </defs>
       <use xlink:href="#DejaVuSans-32"/>
       <use xlink:href="#DejaVuSans-30" x="63.623047"/>
       <use xlink:href="#DejaVuSans-31" x="127.246094"/>
       <use xlink:href="#DejaVuSans-34" x="190.869141"/>
       <use xlink:href="#DejaVuSans-2d" x="254.492188"/>
       <use xlink:href="#DejaVuSans-30" x="290.576172"/>
       <use xlink:href="#DejaVuSans-37" x="354.199219"/>
       <use xlink:href="#DejaVuSans-2d" x="417.822266"/>
       <use xlink:href="#DejaVuSans-30" x="453.90625"/>
       <use xlink:href="#DejaVuSans-31" x="517.529297"/>
      </g>
     </g>
    </g>
    <g id="xtick_2">
     <g id="line2d_2">
      <g>
       <use xlink:href="#m9f1a013be8" x="182.722677" y="342.2" style="stroke: #000000; stroke-width: 0.8"/>
      </g>
     </g>
     <g id="text_2">
      <!-- 2014-07-02 -->
      <g transform="translate(153.664864 356.798437) scale(0.1 -0.1)">
       <use xlink:href="#DejaVuSans-32"/>
       <use xlink:href="#DejaVuSans-30" x="63.623047"/>
       <use xlink:href="#DejaVuSans-31" x="127.246094"/>
       <use xlink:href="#DejaVuSans-34" x="190.869141"/>
       <use xlink:href="#DejaVuSans-2d" x="254.492188"/>
       <use xlink:href="#DejaVuSans-30" x="290.576172"/>
       <use xlink:href="#DejaVuSans-37" x="354.199219"/>
       <use xlink:href="#DejaVuSans-2d" x="417.822266"/>
       <use xlink:href="#DejaVuSans-30" x="453.90625"/>
       <use xlink:href="#DejaVuSans-32" x="517.529297"/>
      </g>
     </g>
    </g>
    <g id="xtick_3">
     <g id="line2d_3">
      <g>
       <use xlink:href="#m9f1a013be8" x="304.960929" y="342.2" style="stroke: #000000; stroke-width: 0.8"/>
      </g>
     </g>
     <g id="text_3">
      <!-- 2014-07-03 -->
      <g transform="translate(275.903117 356.798437) scale(0.1 -0.1)">
       <defs>
        <path id="DejaVuSans-33" d="M 2597 2516 
Q 3050 2419 3304 2112 
Q 3559 1806 3559 1356 
Q 3559 666 3084 287 
Q 2609 -91 1734 -91 
Q 1441 -91 1130 -33 
Q 819 25 488 141 
L 488 750 
Q 750 597 1062 519 
Q 1375 441 1716 441 
Q 2309 441 2620 675 
Q 2931 909 2931 1356 
Q 2931 1769 2642 2001 
Q 2353 2234 1838 2234 
L 1294 2234 
L 1294 2753 
L 1863 2753 
Q 2328 2753 2575 2939 
Q 2822 3125 2822 3475 
Q 2822 3834 2567 4026 
Q 2313 4219 1838 4219 
Q 1578 4219 1281 4162 
Q 984 4106 628 3988 
L 628 4550 
Q 988 4650 1302 4700 
Q 1616 4750 1894 4750 
Q 2613 4750 3031 4423 
Q 3450 4097 3450 3541 
Q 3450 3153 3228 2886 
Q 3006 2619 2597 2516 
z
" transform="scale(0.015625)"/>
       </defs>
       <use xlink:href="#DejaVuSans-32"/>
       <use xlink:href="#DejaVuSans-30" x="63.623047"/>
       <use xlink:href="#DejaVuSans-31" x="127.246094"/>
       <use xlink:href="#DejaVuSans-34" x="190.869141"/>
       <use xlink:href="#DejaVuSans-2d" x="254.492188"/>
       <use xlink:href="#DejaVuSans-30" x="290.576172"/>
       <use xlink:href="#DejaVuSans-37" x="354.199219"/>
       <use xlink:href="#DejaVuSans-2d" x="417.822266"/>
       <use xlink:href="#DejaVuSans-30" x="453.90625"/>
       <use xlink:href="#DejaVuSans-33" x="517.529297"/>
      </g>
     </g>
    </g>
    <g id="xtick_4">
     <g id="line2d_4">
      <g>
       <use xlink:href="#m9f1a013be8" x="427.199182" y="342.2" style="stroke: #000000; stroke-width: 0.8"/>
      </g>
     </g>
     <g id="text_4">
      <!-- 2014-07-04 -->
      <g transform="translate(398.141369 356.798437) scale(0.1 -0.1)">
       <use xlink:href="#DejaVuSans-32"/>
       <use xlink:href="#DejaVuSans-30" x="63.623047"/>
       <use xlink:href="#DejaVuSans-31" x="127.246094"/>
       <use xlink:href="#DejaVuSans-34" x="190.869141"/>
       <use xlink:href="#DejaVuSans-2d" x="254.492188"/>
       <use xlink:href="#DejaVuSans-30" x="290.576172"/>
       <use xlink:href="#DejaVuSans-37" x="354.199219"/>
       <use xlink:href="#DejaVuSans-2d" x="417.822266"/>
       <use xlink:href="#DejaVuSans-30" x="453.90625"/>
       <use xlink:href="#DejaVuSans-34" x="517.529297"/>
      </g>
     </g>
    </g>
    <g id="xtick_5">
     <g id="line2d_5">
      <g>
       <use xlink:href="#m9f1a013be8" x="549.437434" y="342.2" style="stroke: #000000; stroke-width: 0.8"/>
      </g>
     </g>
     <g id="text_5">
      <!-- 2014-07-05 -->
      <g transform="translate(520.379622 356.798437) scale(0.1 -0.1)">
       <defs>
        <path id="DejaVuSans-35" d="M 691 4666 
L 3169 4666 
L 3169 4134 
L 1269 4134 
L 1269 2991 
Q 1406 3038 1543 3061 
Q 1681 3084 1819 3084 
Q 2600 3084 3056 2656 
Q 3513 2228 3513 1497 
Q 3513 744 3044 326 
Q 2575 -91 1722 -91 
Q 1428 -91 1123 -41 
Q 819 9 494 109 
L 494 744 
Q 775 591 1075 516 
Q 1375 441 1709 441 
Q 2250 441 2565 725 
Q 2881 1009 2881 1497 
Q 2881 1984 2565 2268 
Q 2250 2553 1709 2553 
Q 1456 2553 1204 2497 
Q 953 2441 691 2322 
L 691 4666 
z
" transform="scale(0.015625)"/>
       </defs>
       <use xlink:href="#DejaVuSans-32"/>
       <use xlink:href="#DejaVuSans-30" x="63.623047"/>
       <use xlink:href="#DejaVuSans-31" x="127.246094"/>
       <use xlink:href="#DejaVuSans-34" x="190.869141"/>
       <use xlink:href="#DejaVuSans-2d" x="254.492188"/>
       <use xlink:href="#DejaVuSans-30" x="290.576172"/>
       <use xlink:href="#DejaVuSans-37" x="354.199219"/>
       <use xlink:href="#DejaVuSans-2d" x="417.822266"/>
       <use xlink:href="#DejaVuSans-30" x="453.90625"/>
       <use xlink:href="#DejaVuSans-35" x="517.529297"/>
      </g>
     </g>
    </g>
    <g id="xtick_6">
     <g id="line2d_6">
      <g>
       <use xlink:href="#m9f1a013be8" x="671.675687" y="342.2" style="stroke: #000000; stroke-width: 0.8"/>
      </g>
     </g>
     <g id="text_6">
      <!-- 2014-07-06 -->
      <g transform="translate(642.617874 356.798437) scale(0.1 -0.1)">
       <defs>
        <path id="DejaVuSans-36" d="M 2113 2584 
Q 1688 2584 1439 2293 
Q 1191 2003 1191 1497 
Q 1191 994 1439 701 
Q 1688 409 2113 409 
Q 2538 409 2786 701 
Q 3034 994 3034 1497 
Q 3034 2003 2786 2293 
Q 2538 2584 2113 2584 
z
M 3366 4563 
L 3366 3988 
Q 3128 4100 2886 4159 
Q 2644 4219 2406 4219 
Q 1781 4219 1451 3797 
Q 1122 3375 1075 2522 
Q 1259 2794 1537 2939 
Q 1816 3084 2150 3084 
Q 2853 3084 3261 2657 
Q 3669 2231 3669 1497 
Q 3669 778 3244 343 
Q 2819 -91 2113 -91 
Q 1303 -91 875 529 
Q 447 1150 447 2328 
Q 447 3434 972 4092 
Q 1497 4750 2381 4750 
Q 2619 4750 2861 4703 
Q 3103 4656 3366 4563 
z
" transform="scale(0.015625)"/>
       </defs>
       <use xlink:href="#DejaVuSans-32"/>
       <use xlink:href="#DejaVuSans-30" x="63.623047"/>
       <use xlink:href="#DejaVuSans-31" x="127.246094"/>
       <use xlink:href="#DejaVuSans-34" x="190.869141"/>
       <use xlink:href="#DejaVuSans-2d" x="254.492188"/>
       <use xlink:href="#DejaVuSans-30" x="290.576172"/>
       <use xlink:href="#DejaVuSans-37" x="354.199219"/>
       <use xlink:href="#DejaVuSans-2d" x="417.822266"/>
       <use xlink:href="#DejaVuSans-30" x="453.90625"/>
       <use xlink:href="#DejaVuSans-36" x="517.529297"/>
      </g>
     </g>
    </g>
   </g>
   <g id="matplotlib.axis_2">
    <g id="ytick_1">
     <g id="line2d_7">
      <defs>
       <path id="m47f2885156" d="M 0 0 
L -3.5 0 
" style="stroke: #000000; stroke-width: 0.8"/>
      </defs>
      <g>
       <use xlink:href="#m47f2885156" x="30.103125" y="328.619954" style="stroke: #000000; stroke-width: 0.8"/>
      </g>
     </g>
     <g id="text_7">
      <!-- 0.0 -->
      <g transform="translate(7.2 332.419173) scale(0.1 -0.1)">
       <defs>
        <path id="DejaVuSans-2e" d="M 684 794 
L 1344 794 
L 1344 0 
L 684 0 
L 684 794 
z
" transform="scale(0.015625)"/>
       </defs>
       <use xlink:href="#DejaVuSans-30"/>
       <use xlink:href="#DejaVuSans-2e" x="63.623047"/>
       <use xlink:href="#DejaVuSans-30" x="95.410156"/>
      </g>
     </g>
    </g>
    <g id="ytick_2">
     <g id="line2d_8">
      <g>
       <use xlink:href="#m47f2885156" x="30.103125" y="292.694995" style="stroke: #000000; stroke-width: 0.8"/>
      </g>
     </g>
     <g id="text_8">
      <!-- 0.5 -->
      <g transform="translate(7.2 296.494214) scale(0.1 -0.1)">
       <use xlink:href="#DejaVuSans-30"/>
       <use xlink:href="#DejaVuSans-2e" x="63.623047"/>
       <use xlink:href="#DejaVuSans-35" x="95.410156"/>
      </g>
     </g>
    </g>
    <g id="ytick_3">
     <g id="line2d_9">
      <g>
       <use xlink:href="#m47f2885156" x="30.103125" y="256.770035" style="stroke: #000000; stroke-width: 0.8"/>
      </g>
     </g>
     <g id="text_9">
      <!-- 1.0 -->
      <g transform="translate(7.2 260.569254) scale(0.1 -0.1)">
       <use xlink:href="#DejaVuSans-31"/>
       <use xlink:href="#DejaVuSans-2e" x="63.623047"/>
       <use xlink:href="#DejaVuSans-30" x="95.410156"/>
      </g>
     </g>
    </g>
    <g id="ytick_4">
     <g id="line2d_10">
      <g>
       <use xlink:href="#m47f2885156" x="30.103125" y="220.845076" style="stroke: #000000; stroke-width: 0.8"/>
      </g>
     </g>
     <g id="text_10">
      <!-- 1.5 -->
      <g transform="translate(7.2 224.644295) scale(0.1 -0.1)">
       <use xlink:href="#DejaVuSans-31"/>
       <use xlink:href="#DejaVuSans-2e" x="63.623047"/>
       <use xlink:href="#DejaVuSans-35" x="95.410156"/>
      </g>
     </g>
    </g>
    <g id="ytick_5">
     <g id="line2d_11">
      <g>
       <use xlink:href="#m47f2885156" x="30.103125" y="184.920117" style="stroke: #000000; stroke-width: 0.8"/>
      </g>
     </g>
     <g id="text_11">
      <!-- 2.0 -->
      <g transform="translate(7.2 188.719335) scale(0.1 -0.1)">
       <use xlink:href="#DejaVuSans-32"/>
       <use xlink:href="#DejaVuSans-2e" x="63.623047"/>
       <use xlink:href="#DejaVuSans-30" x="95.410156"/>
      </g>
     </g>
    </g>
    <g id="ytick_6">
     <g id="line2d_12">
      <g>
       <use xlink:href="#m47f2885156" x="30.103125" y="148.995157" style="stroke: #000000; stroke-width: 0.8"/>
      </g>
     </g>
     <g id="text_12">
      <!-- 2.5 -->
      <g transform="translate(7.2 152.794376) scale(0.1 -0.1)">
       <use xlink:href="#DejaVuSans-32"/>
       <use xlink:href="#DejaVuSans-2e" x="63.623047"/>
       <use xlink:href="#DejaVuSans-35" x="95.410156"/>
      </g>
     </g>
    </g>
    <g id="ytick_7">
     <g id="line2d_13">
      <g>
       <use xlink:href="#m47f2885156" x="30.103125" y="113.070198" style="stroke: #000000; stroke-width: 0.8"/>
      </g>
     </g>
     <g id="text_13">
      <!-- 3.0 -->
      <g transform="translate(7.2 116.869417) scale(0.1 -0.1)">
       <use xlink:href="#DejaVuSans-33"/>
       <use xlink:href="#DejaVuSans-2e" x="63.623047"/>
       <use xlink:href="#DejaVuSans-30" x="95.410156"/>
      </g>
     </g>
    </g>
    <g id="ytick_8">
     <g id="line2d_14">
      <g>
       <use xlink:href="#m47f2885156" x="30.103125" y="77.145238" style="stroke: #000000; stroke-width: 0.8"/>
      </g>
     </g>
     <g id="text_14">
      <!-- 3.5 -->
      <g transform="translate(7.2 80.944457) scale(0.1 -0.1)">
       <use xlink:href="#DejaVuSans-33"/>
       <use xlink:href="#DejaVuSans-2e" x="63.623047"/>
       <use xlink:href="#DejaVuSans-35" x="95.410156"/>
      </g>
     </g>
    </g>
   </g>
   <g id="line2d_15">
    <path d="M 60.654199 328.619954 
L 63.115942 328.51802 
L 64.728808 328.130831 
L 67.869652 327.312684 
L 69.058079 327.167894 
L 70.670945 327.2421 
L 74.575778 327.480699 
L 75.339767 327.257229 
L 76.528195 326.515462 
L 76.867745 326.0723 
L 77.207296 325.467493 
L 79.329488 318.601491 
L 79.669039 318.060211 
L 79.923702 317.314517 
L 80.178365 317.145164 
L 80.517915 316.275594 
L 80.687691 316.281923 
L 80.772578 316.148464 
L 81.112129 314.760758 
L 81.281905 314.823203 
L 81.366792 314.676511 
L 81.706343 313.279699 
L 81.961006 313.190344 
L 82.045894 312.962077 
L 82.385444 311.16867 
L 82.640107 310.51253 
L 82.979658 308.416616 
L 83.234321 307.462258 
L 83.658759 304.849012 
L 83.828535 303.85167 
L 84.337861 299.737485 
L 85.780951 287.646752 
L 86.20539 284.455696 
L 87.478705 274.301331 
L 88.412469 268.359141 
L 89.346234 262.971361 
L 89.516009 261.072662 
L 89.770672 260.40045 
L 90.025335 259.174863 
L 90.9591 254.209176 
L 92.147527 249.364035 
L 92.911516 247.069912 
L 93.166179 244.16152 
L 93.335954 244.331402 
L 93.420842 244.264979 
L 93.50573 243.963082 
L 93.760393 240.162832 
L 94.015056 239.720038 
L 94.184831 238.40023 
L 94.439494 233.100749 
L 94.779045 230.20989 
L 95.118596 222.735548 
L 95.373259 219.4067 
L 95.712809 211.292967 
L 95.967472 207.051063 
L 96.391911 197.95379 
L 97.071012 183.897212 
L 99.193204 140.520393 
L 99.957193 128.073443 
L 101.230508 110.92128 
L 102.164273 101.657886 
L 103.182925 93.845828 
L 105.729555 78.049756 
L 106.663319 68.275106 
L 107.172646 65.083995 
L 107.681972 62.950598 
L 108.530848 60.449206 
L 109.294837 58.732761 
L 110.228602 57.297649 
L 110.65304 57.052342 
L 110.992591 57.044188 
L 111.332142 57.195792 
L 112.011243 57.899318 
L 112.435681 58.553612 
L 113.029895 59.654426 
L 113.624109 61.015981 
L 115.40675 65.353267 
L 119.141808 74.470162 
L 121.943101 81.214263 
L 124.91417 87.148064 
L 126.272372 89.75676 
L 128.479452 93.574551 
L 129.073666 94.540378 
L 130.177206 95.796701 
L 131.11097 97.50494 
L 132.299397 99.019812 
L 133.233162 100.71719 
L 135.100691 103.470809 
L 136.543781 105.81109 
L 137.477546 107.336342 
L 138.241535 108.532658 
L 141.721929 114.881288 
L 143.419683 118.703806 
L 144.26856 120.737848 
L 146.220976 125.837332 
L 147.748954 130.038894 
L 153.775979 144.41856 
L 155.728396 148.348075 
L 159.887892 156.111056 
L 168.885986 171.595527 
L 169.989525 173.375816 
L 173.045482 178.71778 
L 177.204978 185.865858 
L 180.515597 190.99956 
L 181.958688 193.12094 
L 183.486666 195.067206 
L 184.929756 196.767805 
L 186.457734 198.554252 
L 191.550995 204.53499 
L 192.654535 205.819733 
L 194.097625 207.424856 
L 198.002458 211.208446 
L 199.869987 213.047073 
L 202.246842 215.83449 
L 205.048135 219.436284 
L 207.934316 223.272053 
L 208.104092 222.920676 
L 208.358755 223.355675 
L 208.443642 223.3723 
L 208.613418 222.803838 
L 208.698305 222.847152 
L 208.868081 223.005402 
L 209.037856 222.790639 
L 209.377407 221.857583 
L 209.547182 221.549853 
L 210.820497 217.576647 
L 215.064881 202.966783 
L 216.762634 196.845559 
L 218.630163 191.725073 
L 219.47904 189.308314 
L 220.073254 187.027733 
L 220.412805 185.018676 
L 220.667468 183.515376 
L 220.922131 179.813815 
L 221.091906 178.506426 
L 221.601232 172.990777 
L 222.195446 168.290498 
L 222.874547 164.903091 
L 225.845616 152.251706 
L 226.524717 150.553831 
L 227.118931 149.666444 
L 227.713145 149.182735 
L 228.307358 148.997881 
L 228.901572 149.03651 
L 229.665561 149.358612 
L 230.344663 149.874167 
L 231.193539 150.819489 
L 232.042416 152.075315 
L 233.061068 153.977881 
L 233.74017 155.488059 
L 235.522811 160.107722 
L 237.984553 167.069053 
L 240.361408 173.38385 
L 242.568488 178.132213 
L 245.963995 184.358104 
L 247.322198 186.38937 
L 250.632817 191.047876 
L 255.216751 197.437464 
L 256.914505 199.93388 
L 259.29136 203.152948 
L 261.922878 206.232514 
L 267.016138 211.853138 
L 268.713892 213.313878 
L 270.156982 214.367755 
L 273.212939 216.32984 
L 274.316478 217.101031 
L 275.250243 217.579559 
L 277.032884 218.241245 
L 280.683054 219.908037 
L 282.465695 220.445039 
L 283.654123 220.673952 
L 285.182101 221.302011 
L 287.04963 222.505187 
L 289.681148 224.640263 
L 291.718452 226.625081 
L 293.416205 228.255359 
L 296.047723 230.799003 
L 299.613006 234.653873 
L 304.027165 239.269895 
L 305.215592 240.21048 
L 306.40402 240.786197 
L 306.74357 240.913896 
L 306.998233 240.908534 
L 307.252896 240.950186 
L 307.507559 240.967676 
L 307.762222 240.881459 
L 308.101773 240.895378 
L 309.375088 239.82414 
L 309.629751 239.345809 
L 309.884414 239.143773 
L 310.39374 238.284574 
L 310.563516 237.932811 
L 310.818179 237.339073 
L 311.072842 237.013262 
L 313.619472 231.232941 
L 313.959023 230.378042 
L 314.638124 228.534944 
L 316.590541 223.11836 
L 316.930091 221.548209 
L 317.099867 221.049373 
L 318.033631 217.43533 
L 318.79762 215.196898 
L 319.816272 213.017591 
L 321.853577 209.535059 
L 322.617566 208.524265 
L 323.466442 207.723472 
L 324.315319 207.225107 
L 325.164196 206.982738 
L 326.352623 206.970524 
L 327.371276 207.216525 
L 328.389928 207.671952 
L 329.578355 208.449611 
L 331.021446 209.702054 
L 332.719199 211.529186 
L 334.671616 214.013593 
L 336.793807 217.085777 
L 340.189315 222.414979 
L 354.874882 245.829854 
L 359.204154 252.151512 
L 371.173316 268.713885 
L 372.786182 270.34448 
L 374.653711 271.886032 
L 377.455004 273.793026 
L 379.831859 275.143061 
L 382.802928 276.560966 
L 387.047311 278.252302 
L 391.546358 279.760322 
L 397.488495 281.508543 
L 404.449285 283.237865 
L 414.12648 285.295212 
L 422.615247 287.108388 
L 426.689856 288.014964 
L 433.735533 289.247301 
L 441.460311 290.389746 
L 452.410821 291.833261 
L 462.088016 292.888696 
L 485.347239 295.033821 
L 507.24826 296.733281 
L 537.043834 298.940665 
L 550.031648 299.774506 
L 565.566093 300.557577 
L 585.939135 301.358064 
L 613.442742 302.172336 
L 640.606798 302.692568 
L 671.675687 303.107082 
L 671.675687 303.107082 
" clip-path="url(#pfe3a57769f)" style="fill: none; stroke: #1f77b4; stroke-width: 1.5; stroke-linecap: square"/>
   </g>
   <g id="line2d_16">
    <path d="M 60.654199 328.619954 
L 62.776391 328.510872 
L 64.813695 328.197367 
L 67.445213 327.536775 
L 69.652293 326.965455 
L 71.859373 326.645389 
L 74.915329 326.236644 
L 76.018869 325.854482 
L 77.207296 325.185224 
L 78.395724 324.16354 
L 79.753926 322.533382 
L 80.772578 320.917517 
L 82.215669 317.428486 
L 83.404096 313.706967 
L 85.10185 307.370094 
L 89.006683 290.804634 
L 89.431121 288.910485 
L 90.364886 283.782677 
L 91.213763 280.308499 
L 91.977752 278.038377 
L 92.741741 276.38567 
L 92.996404 275.776669 
L 93.760393 269.921598 
L 94.60927 259.556913 
L 95.118596 251.376306 
L 96.137248 232.376627 
L 98.004777 195.147451 
L 99.193204 173.567155 
L 100.211856 157.52952 
L 101.824722 137.513792 
L 102.928262 127.250884 
L 104.116689 118.469509 
L 105.474892 107.246291 
L 105.89933 102.391315 
L 106.663319 91.92467 
L 107.427309 84.253199 
L 108.191298 78.81976 
L 108.870399 75.43018 
L 109.464613 73.39467 
L 110.058826 72.062156 
L 110.568153 71.47496 
L 110.992591 71.310385 
L 111.417029 71.39445 
L 111.926355 71.766594 
L 112.520569 72.506156 
L 113.284558 73.83232 
L 114.30321 76.083621 
L 115.661413 79.640199 
L 117.698717 85.608518 
L 122.367539 99.469566 
L 124.999057 106.067479 
L 129.328329 116.830548 
L 131.705184 122.209557 
L 133.912263 126.701597 
L 135.949567 130.312467 
L 137.817096 133.128859 
L 140.533502 136.960017 
L 141.976592 139.631287 
L 143.929009 143.76836 
L 149.446708 155.77058 
L 154.11553 164.010671 
L 159.039015 171.138866 
L 162.349635 175.244828 
L 164.981152 178.648853 
L 168.885986 183.138153 
L 170.074413 184.251745 
L 171.602391 185.873829 
L 176.780539 191.375444 
L 178.902731 193.267436 
L 180.685372 195.155585 
L 181.958688 196.397533 
L 183.571553 197.753982 
L 185.014644 198.79477 
L 187.985712 200.574659 
L 189.259028 201.361475 
L 191.890546 203.292292 
L 195.116277 205.788611 
L 199.785099 209.258777 
L 201.482853 211.078552 
L 203.944595 214.081969 
L 208.019204 219.152921 
L 208.52853 218.980719 
L 209.377407 217.067697 
L 209.886733 215.277063 
L 211.160048 209.520511 
L 214.555555 192.353597 
L 215.743982 187.62544 
L 216.762634 184.370604 
L 217.866174 181.69782 
L 218.969714 179.18039 
L 219.903478 175.96832 
L 220.158141 174.83855 
L 220.922131 167.872683 
L 221.68612 158.572279 
L 222.450109 151.805496 
L 223.214098 147.024869 
L 223.893199 144.032637 
L 224.572301 141.975735 
L 225.166514 140.815457 
L 225.67584 140.239654 
L 226.185166 139.977257 
L 226.694492 139.972177 
L 227.288706 140.230956 
L 227.967808 140.805459 
L 228.816684 141.844406 
L 229.920224 143.579924 
L 231.448202 146.450037 
L 234.07972 151.985367 
L 236.626351 157.000756 
L 238.918318 161.116244 
L 240.616071 163.702161 
L 241.719611 165.066881 
L 244.181354 167.924855 
L 245.709332 169.686865 
L 247.322198 171.485715 
L 250.208379 174.563948 
L 251.736357 176.025683 
L 253.009672 177.290653 
L 258.018045 182.87681 
L 261.243776 185.836109 
L 263.450856 187.782321 
L 264.978834 189.279486 
L 266.082374 190.321903 
L 269.902319 193.392728 
L 272.533837 195.088971 
L 274.571141 196.785932 
L 278.221311 199.09674 
L 279.579514 200.031332 
L 280.598166 200.658057 
L 282.465695 201.730558 
L 283.569235 202.233464 
L 284.587887 202.946933 
L 285.861202 204.14528 
L 287.558956 206.084376 
L 290.105586 209.378582 
L 293.076655 213.203513 
L 295.79306 216.493853 
L 300.207219 221.861692 
L 303.178288 225.283073 
L 304.536491 226.479194 
L 305.894694 227.30773 
L 306.913346 227.622905 
L 308.186661 227.548943 
L 309.290201 226.644978 
L 310.05419 225.4716 
L 311.49728 222.467919 
L 312.431045 220.13297 
L 316.166102 208.782252 
L 316.760316 206.898464 
L 317.609193 203.161974 
L 318.373182 200.758043 
L 319.052283 199.323079 
L 319.731385 198.388352 
L 320.325598 197.884311 
L 321.0047 197.587565 
L 321.683801 197.522863 
L 322.44779 197.666942 
L 323.381555 198.083785 
L 324.569982 198.874305 
L 326.182848 200.224204 
L 327.710826 201.780639 
L 329.493467 203.932677 
L 332.549424 208.034987 
L 344.433698 224.218606 
L 349.017633 229.914709 
L 353.601567 235.253693 
L 358.270389 240.345802 
L 363.024099 245.19823 
L 367.862697 249.819773 
L 372.87107 254.292827 
L 377.96433 258.543476 
L 383.227366 262.645274 
L 388.660177 266.594665 
L 394.262764 270.389236 
L 400.035126 274.02761 
L 405.977263 277.509339 
L 412.174063 280.879274 
L 418.540639 284.087549 
L 425.161878 287.174605 
L 432.037779 290.134599 
L 439.168344 292.963204 
L 446.638459 295.687142 
L 454.448126 298.297274 
L 462.597342 300.786501 
L 471.170998 303.172151 
L 480.169091 305.444474 
L 489.676511 307.614532 
L 499.693257 309.671629 
L 510.304216 311.62265 
L 521.594277 313.470532 
L 533.648327 315.215198 
L 546.551253 316.854442 
L 560.387945 318.384778 
L 575.328175 319.809727 
L 591.456834 321.122161 
L 609.11347 322.33244 
L 628.46786 323.433032 
L 649.944442 324.42801 
L 671.675687 325.239062 
L 671.675687 325.239062 
" clip-path="url(#pfe3a57769f)" style="fill: none; stroke: #ff7f0e; stroke-width: 1.5; stroke-linecap: square"/>
   </g>
   <g id="patch_3">
    <path d="M 30.103125 342.2 
L 30.103125 43.44 
" style="fill: none; stroke: #000000; stroke-width: 0.8; stroke-linejoin: miter; stroke-linecap: square"/>
   </g>
   <g id="patch_4">
    <path d="M 702.226761 342.2 
L 702.226761 43.44 
" style="fill: none; stroke: #000000; stroke-width: 0.8; stroke-linejoin: miter; stroke-linecap: square"/>
   </g>
   <g id="patch_5">
    <path d="M 30.103125 342.2 
L 702.226761 342.2 
" style="fill: none; stroke: #000000; stroke-width: 0.8; stroke-linejoin: miter; stroke-linecap: square"/>
   </g>
   <g id="patch_6">
    <path d="M 30.103125 43.44 
L 702.226761 43.44 
" style="fill: none; stroke: #000000; stroke-width: 0.8; stroke-linejoin: miter; stroke-linecap: square"/>
   </g>
   <g id="text_15">
    <!-- 1 transformation(s) -->
    <g transform="translate(308.050256 37.44) scale(0.12 -0.12)">
     <defs>
      <path id="DejaVuSans-20" transform="scale(0.015625)"/>
      <path id="DejaVuSans-74" d="M 1172 4494 
L 1172 3500 
L 2356 3500 
L 2356 3053 
L 1172 3053 
L 1172 1153 
Q 1172 725 1289 603 
Q 1406 481 1766 481 
L 2356 481 
L 2356 0 
L 1766 0 
Q 1100 0 847 248 
Q 594 497 594 1153 
L 594 3053 
L 172 3053 
L 172 3500 
L 594 3500 
L 594 4494 
L 1172 4494 
z
" transform="scale(0.015625)"/>
      <path id="DejaVuSans-72" d="M 2631 2963 
Q 2534 3019 2420 3045 
Q 2306 3072 2169 3072 
Q 1681 3072 1420 2755 
Q 1159 2438 1159 1844 
L 1159 0 
L 581 0 
L 581 3500 
L 1159 3500 
L 1159 2956 
Q 1341 3275 1631 3429 
Q 1922 3584 2338 3584 
Q 2397 3584 2469 3576 
Q 2541 3569 2628 3553 
L 2631 2963 
z
" transform="scale(0.015625)"/>
      <path id="DejaVuSans-61" d="M 2194 1759 
Q 1497 1759 1228 1600 
Q 959 1441 959 1056 
Q 959 750 1161 570 
Q 1363 391 1709 391 
Q 2188 391 2477 730 
Q 2766 1069 2766 1631 
L 2766 1759 
L 2194 1759 
z
M 3341 1997 
L 3341 0 
L 2766 0 
L 2766 531 
Q 2569 213 2275 61 
Q 1981 -91 1556 -91 
Q 1019 -91 701 211 
Q 384 513 384 1019 
Q 384 1609 779 1909 
Q 1175 2209 1959 2209 
L 2766 2209 
L 2766 2266 
Q 2766 2663 2505 2880 
Q 2244 3097 1772 3097 
Q 1472 3097 1187 3025 
Q 903 2953 641 2809 
L 641 3341 
Q 956 3463 1253 3523 
Q 1550 3584 1831 3584 
Q 2591 3584 2966 3190 
Q 3341 2797 3341 1997 
z
" transform="scale(0.015625)"/>
      <path id="DejaVuSans-6e" d="M 3513 2113 
L 3513 0 
L 2938 0 
L 2938 2094 
Q 2938 2591 2744 2837 
Q 2550 3084 2163 3084 
Q 1697 3084 1428 2787 
Q 1159 2491 1159 1978 
L 1159 0 
L 581 0 
L 581 3500 
L 1159 3500 
L 1159 2956 
Q 1366 3272 1645 3428 
Q 1925 3584 2291 3584 
Q 2894 3584 3203 3211 
Q 3513 2838 3513 2113 
z
" transform="scale(0.015625)"/>
      <path id="DejaVuSans-73" d="M 2834 3397 
L 2834 2853 
Q 2591 2978 2328 3040 
Q 2066 3103 1784 3103 
Q 1356 3103 1142 2972 
Q 928 2841 928 2578 
Q 928 2378 1081 2264 
Q 1234 2150 1697 2047 
L 1894 2003 
Q 2506 1872 2764 1633 
Q 3022 1394 3022 966 
Q 3022 478 2636 193 
Q 2250 -91 1575 -91 
Q 1294 -91 989 -36 
Q 684 19 347 128 
L 347 722 
Q 666 556 975 473 
Q 1284 391 1588 391 
Q 1994 391 2212 530 
Q 2431 669 2431 922 
Q 2431 1156 2273 1281 
Q 2116 1406 1581 1522 
L 1381 1569 
Q 847 1681 609 1914 
Q 372 2147 372 2553 
Q 372 3047 722 3315 
Q 1072 3584 1716 3584 
Q 2034 3584 2315 3537 
Q 2597 3491 2834 3397 
z
" transform="scale(0.015625)"/>
      <path id="DejaVuSans-66" d="M 2375 4863 
L 2375 4384 
L 1825 4384 
Q 1516 4384 1395 4259 
Q 1275 4134 1275 3809 
L 1275 3500 
L 2222 3500 
L 2222 3053 
L 1275 3053 
L 1275 0 
L 697 0 
L 697 3053 
L 147 3053 
L 147 3500 
L 697 3500 
L 697 3744 
Q 697 4328 969 4595 
Q 1241 4863 1831 4863 
L 2375 4863 
z
" transform="scale(0.015625)"/>
      <path id="DejaVuSans-6f" d="M 1959 3097 
Q 1497 3097 1228 2736 
Q 959 2375 959 1747 
Q 959 1119 1226 758 
Q 1494 397 1959 397 
Q 2419 397 2687 759 
Q 2956 1122 2956 1747 
Q 2956 2369 2687 2733 
Q 2419 3097 1959 3097 
z
M 1959 3584 
Q 2709 3584 3137 3096 
Q 3566 2609 3566 1747 
Q 3566 888 3137 398 
Q 2709 -91 1959 -91 
Q 1206 -91 779 398 
Q 353 888 353 1747 
Q 353 2609 779 3096 
Q 1206 3584 1959 3584 
z
" transform="scale(0.015625)"/>
      <path id="DejaVuSans-6d" d="M 3328 2828 
Q 3544 3216 3844 3400 
Q 4144 3584 4550 3584 
Q 5097 3584 5394 3201 
Q 5691 2819 5691 2113 
L 5691 0 
L 5113 0 
L 5113 2094 
Q 5113 2597 4934 2840 
Q 4756 3084 4391 3084 
Q 3944 3084 3684 2787 
Q 3425 2491 3425 1978 
L 3425 0 
L 2847 0 
L 2847 2094 
Q 2847 2600 2669 2842 
Q 2491 3084 2119 3084 
Q 1678 3084 1418 2786 
Q 1159 2488 1159 1978 
L 1159 0 
L 581 0 
L 581 3500 
L 1159 3500 
L 1159 2956 
Q 1356 3278 1631 3431 
Q 1906 3584 2284 3584 
Q 2666 3584 2933 3390 
Q 3200 3197 3328 2828 
z
" transform="scale(0.015625)"/>
      <path id="DejaVuSans-69" d="M 603 3500 
L 1178 3500 
L 1178 0 
L 603 0 
L 603 3500 
z
M 603 4863 
L 1178 4863 
L 1178 4134 
L 603 4134 
L 603 4863 
z
" transform="scale(0.015625)"/>
      <path id="DejaVuSans-28" d="M 1984 4856 
Q 1566 4138 1362 3434 
Q 1159 2731 1159 2009 
Q 1159 1288 1364 580 
Q 1569 -128 1984 -844 
L 1484 -844 
Q 1016 -109 783 600 
Q 550 1309 550 2009 
Q 550 2706 781 3412 
Q 1013 4119 1484 4856 
L 1984 4856 
z
" transform="scale(0.015625)"/>
      <path id="DejaVuSans-29" d="M 513 4856 
L 1013 4856 
Q 1481 4119 1714 3412 
Q 1947 2706 1947 2009 
Q 1947 1309 1714 600 
Q 1481 -109 1013 -844 
L 513 -844 
Q 928 -128 1133 580 
Q 1338 1288 1338 2009 
Q 1338 2731 1133 3434 
Q 928 4138 513 4856 
z
" transform="scale(0.015625)"/>
     </defs>
     <use xlink:href="#DejaVuSans-31"/>
     <use xlink:href="#DejaVuSans-20" x="63.623047"/>
     <use xlink:href="#DejaVuSans-74" x="95.410156"/>
     <use xlink:href="#DejaVuSans-72" x="134.619141"/>
     <use xlink:href="#DejaVuSans-61" x="175.732422"/>
     <use xlink:href="#DejaVuSans-6e" x="237.011719"/>
     <use xlink:href="#DejaVuSans-73" x="300.390625"/>
     <use xlink:href="#DejaVuSans-66" x="352.490234"/>
     <use xlink:href="#DejaVuSans-6f" x="387.695312"/>
     <use xlink:href="#DejaVuSans-72" x="448.876953"/>
     <use xlink:href="#DejaVuSans-6d" x="488.240234"/>
     <use xlink:href="#DejaVuSans-61" x="585.652344"/>
     <use xlink:href="#DejaVuSans-74" x="646.931641"/>
     <use xlink:href="#DejaVuSans-69" x="686.140625"/>
     <use xlink:href="#DejaVuSans-6f" x="713.923828"/>
     <use xlink:href="#DejaVuSans-6e" x="775.105469"/>
     <use xlink:href="#DejaVuSans-28" x="838.484375"/>
     <use xlink:href="#DejaVuSans-73" x="877.498047"/>
     <use xlink:href="#DejaVuSans-29" x="929.597656"/>
    </g>
   </g>
   <g id="legend_1">
    <g id="patch_7">
     <path d="M 613.833011 80.79625 
L 695.226761 80.79625 
Q 697.226761 80.79625 697.226761 78.79625 
L 697.226761 50.44 
Q 697.226761 48.44 695.226761 48.44 
L 613.833011 48.44 
Q 611.833011 48.44 611.833011 50.44 
L 611.833011 78.79625 
Q 611.833011 80.79625 613.833011 80.79625 
z
" style="fill: #ffffff; opacity: 0.8; stroke: #cccccc; stroke-linejoin: miter"/>
    </g>
    <g id="line2d_17">
     <path d="M 615.833011 56.538437 
L 625.833011 56.538437 
L 635.833011 56.538437 
" style="fill: none; stroke: #1f77b4; stroke-width: 1.5; stroke-linecap: square"/>
    </g>
    <g id="text_16">
     <!-- observed -->
     <g transform="translate(643.833011 60.038437) scale(0.1 -0.1)">
      <defs>
       <path id="DejaVuSans-62" d="M 3116 1747 
Q 3116 2381 2855 2742 
Q 2594 3103 2138 3103 
Q 1681 3103 1420 2742 
Q 1159 2381 1159 1747 
Q 1159 1113 1420 752 
Q 1681 391 2138 391 
Q 2594 391 2855 752 
Q 3116 1113 3116 1747 
z
M 1159 2969 
Q 1341 3281 1617 3432 
Q 1894 3584 2278 3584 
Q 2916 3584 3314 3078 
Q 3713 2572 3713 1747 
Q 3713 922 3314 415 
Q 2916 -91 2278 -91 
Q 1894 -91 1617 61 
Q 1341 213 1159 525 
L 1159 0 
L 581 0 
L 581 4863 
L 1159 4863 
L 1159 2969 
z
" transform="scale(0.015625)"/>
       <path id="DejaVuSans-65" d="M 3597 1894 
L 3597 1613 
L 953 1613 
Q 991 1019 1311 708 
Q 1631 397 2203 397 
Q 2534 397 2845 478 
Q 3156 559 3463 722 
L 3463 178 
Q 3153 47 2828 -22 
Q 2503 -91 2169 -91 
Q 1331 -91 842 396 
Q 353 884 353 1716 
Q 353 2575 817 3079 
Q 1281 3584 2069 3584 
Q 2775 3584 3186 3129 
Q 3597 2675 3597 1894 
z
M 3022 2063 
Q 3016 2534 2758 2815 
Q 2500 3097 2075 3097 
Q 1594 3097 1305 2825 
Q 1016 2553 972 2059 
L 3022 2063 
z
" transform="scale(0.015625)"/>
       <path id="DejaVuSans-76" d="M 191 3500 
L 800 3500 
L 1894 563 
L 2988 3500 
L 3597 3500 
L 2284 0 
L 1503 0 
L 191 3500 
z
" transform="scale(0.015625)"/>
       <path id="DejaVuSans-64" d="M 2906 2969 
L 2906 4863 
L 3481 4863 
L 3481 0 
L 2906 0 
L 2906 525 
Q 2725 213 2448 61 
Q 2172 -91 1784 -91 
Q 1150 -91 751 415 
Q 353 922 353 1747 
Q 353 2572 751 3078 
Q 1150 3584 1784 3584 
Q 2172 3584 2448 3432 
Q 2725 3281 2906 2969 
z
M 947 1747 
Q 947 1113 1208 752 
Q 1469 391 1925 391 
Q 2381 391 2643 752 
Q 2906 1113 2906 1747 
Q 2906 2381 2643 2742 
Q 2381 3103 1925 3103 
Q 1469 3103 1208 2742 
Q 947 2381 947 1747 
z
" transform="scale(0.015625)"/>
      </defs>
      <use xlink:href="#DejaVuSans-6f"/>
      <use xlink:href="#DejaVuSans-62" x="61.181641"/>
      <use xlink:href="#DejaVuSans-73" x="124.658203"/>
      <use xlink:href="#DejaVuSans-65" x="176.757812"/>
      <use xlink:href="#DejaVuSans-72" x="238.28125"/>
      <use xlink:href="#DejaVuSans-76" x="279.394531"/>
      <use xlink:href="#DejaVuSans-65" x="338.574219"/>
      <use xlink:href="#DejaVuSans-64" x="400.097656"/>
     </g>
    </g>
    <g id="line2d_18">
     <path d="M 615.833011 71.216563 
L 625.833011 71.216563 
L 635.833011 71.216563 
" style="fill: none; stroke: #ff7f0e; stroke-width: 1.5; stroke-linecap: square"/>
    </g>
    <g id="text_17">
     <!-- simulated -->
     <g transform="translate(643.833011 74.716563) scale(0.1 -0.1)">
      <defs>
       <path id="DejaVuSans-75" d="M 544 1381 
L 544 3500 
L 1119 3500 
L 1119 1403 
Q 1119 906 1312 657 
Q 1506 409 1894 409 
Q 2359 409 2629 706 
Q 2900 1003 2900 1516 
L 2900 3500 
L 3475 3500 
L 3475 0 
L 2900 0 
L 2900 538 
Q 2691 219 2414 64 
Q 2138 -91 1772 -91 
Q 1169 -91 856 284 
Q 544 659 544 1381 
z
M 1991 3584 
L 1991 3584 
z
" transform="scale(0.015625)"/>
       <path id="DejaVuSans-6c" d="M 603 4863 
L 1178 4863 
L 1178 0 
L 603 0 
L 603 4863 
z
" transform="scale(0.015625)"/>
      </defs>
      <use xlink:href="#DejaVuSans-73"/>
      <use xlink:href="#DejaVuSans-69" x="52.099609"/>
      <use xlink:href="#DejaVuSans-6d" x="79.882812"/>
      <use xlink:href="#DejaVuSans-75" x="177.294922"/>
      <use xlink:href="#DejaVuSans-6c" x="240.673828"/>
      <use xlink:href="#DejaVuSans-61" x="268.457031"/>
      <use xlink:href="#DejaVuSans-74" x="329.736328"/>
      <use xlink:href="#DejaVuSans-65" x="368.945312"/>
      <use xlink:href="#DejaVuSans-64" x="430.46875"/>
     </g>
    </g>
   </g>
  </g>
  <g id="axes_2">
   <g id="patch_8">
    <path d="M 30.103125 684.92 
L 702.226761 684.92 
L 702.226761 386.16 
L 30.103125 386.16 
z
" style="fill: #ffffff"/>
   </g>
   <g id="matplotlib.axis_3">
    <g id="xtick_7">
     <g id="line2d_19">
      <g>
       <use xlink:href="#m9f1a013be8" x="60.484424" y="684.92" style="stroke: #000000; stroke-width: 0.8"/>
      </g>
     </g>
     <g id="text_18">
      <!-- 2014-07-01 -->
      <g transform="translate(31.426612 699.518437) scale(0.1 -0.1)">
       <use xlink:href="#DejaVuSans-32"/>
       <use xlink:href="#DejaVuSans-30" x="63.623047"/>
       <use xlink:href="#DejaVuSans-31" x="127.246094"/>
       <use xlink:href="#DejaVuSans-34" x="190.869141"/>
       <use xlink:href="#DejaVuSans-2d" x="254.492188"/>
       <use xlink:href="#DejaVuSans-30" x="290.576172"/>
       <use xlink:href="#DejaVuSans-37" x="354.199219"/>
       <use xlink:href="#DejaVuSans-2d" x="417.822266"/>
       <use xlink:href="#DejaVuSans-30" x="453.90625"/>
       <use xlink:href="#DejaVuSans-31" x="517.529297"/>
      </g>
     </g>
    </g>
    <g id="xtick_8">
     <g id="line2d_20">
      <g>
       <use xlink:href="#m9f1a013be8" x="182.722677" y="684.92" style="stroke: #000000; stroke-width: 0.8"/>
      </g>
     </g>
     <g id="text_19">
      <!-- 2014-07-02 -->
      <g transform="translate(153.664864 699.518437) scale(0.1 -0.1)">
       <use xlink:href="#DejaVuSans-32"/>
       <use xlink:href="#DejaVuSans-30" x="63.623047"/>
       <use xlink:href="#DejaVuSans-31" x="127.246094"/>
       <use xlink:href="#DejaVuSans-34" x="190.869141"/>
       <use xlink:href="#DejaVuSans-2d" x="254.492188"/>
       <use xlink:href="#DejaVuSans-30" x="290.576172"/>
       <use xlink:href="#DejaVuSans-37" x="354.199219"/>
       <use xlink:href="#DejaVuSans-2d" x="417.822266"/>
       <use xlink:href="#DejaVuSans-30" x="453.90625"/>
       <use xlink:href="#DejaVuSans-32" x="517.529297"/>
      </g>
     </g>
    </g>
    <g id="xtick_9">
     <g id="line2d_21">
      <g>
       <use xlink:href="#m9f1a013be8" x="304.960929" y="684.92" style="stroke: #000000; stroke-width: 0.8"/>
      </g>
     </g>
     <g id="text_20">
      <!-- 2014-07-03 -->
      <g transform="translate(275.903117 699.518437) scale(0.1 -0.1)">
       <use xlink:href="#DejaVuSans-32"/>
       <use xlink:href="#DejaVuSans-30" x="63.623047"/>
       <use xlink:href="#DejaVuSans-31" x="127.246094"/>
       <use xlink:href="#DejaVuSans-34" x="190.869141"/>
       <use xlink:href="#DejaVuSans-2d" x="254.492188"/>
       <use xlink:href="#DejaVuSans-30" x="290.576172"/>
       <use xlink:href="#DejaVuSans-37" x="354.199219"/>
       <use xlink:href="#DejaVuSans-2d" x="417.822266"/>
       <use xlink:href="#DejaVuSans-30" x="453.90625"/>
       <use xlink:href="#DejaVuSans-33" x="517.529297"/>
      </g>
     </g>
    </g>
    <g id="xtick_10">
     <g id="line2d_22">
      <g>
       <use xlink:href="#m9f1a013be8" x="427.199182" y="684.92" style="stroke: #000000; stroke-width: 0.8"/>
      </g>
     </g>
     <g id="text_21">
      <!-- 2014-07-04 -->
      <g transform="translate(398.141369 699.518437) scale(0.1 -0.1)">
       <use xlink:href="#DejaVuSans-32"/>
       <use xlink:href="#DejaVuSans-30" x="63.623047"/>
       <use xlink:href="#DejaVuSans-31" x="127.246094"/>
       <use xlink:href="#DejaVuSans-34" x="190.869141"/>
       <use xlink:href="#DejaVuSans-2d" x="254.492188"/>
       <use xlink:href="#DejaVuSans-30" x="290.576172"/>
       <use xlink:href="#DejaVuSans-37" x="354.199219"/>
       <use xlink:href="#DejaVuSans-2d" x="417.822266"/>
       <use xlink:href="#DejaVuSans-30" x="453.90625"/>
       <use xlink:href="#DejaVuSans-34" x="517.529297"/>
      </g>
     </g>
    </g>
    <g id="xtick_11">
     <g id="line2d_23">
      <g>
       <use xlink:href="#m9f1a013be8" x="549.437434" y="684.92" style="stroke: #000000; stroke-width: 0.8"/>
      </g>
     </g>
     <g id="text_22">
      <!-- 2014-07-05 -->
      <g transform="translate(520.379622 699.518437) scale(0.1 -0.1)">
       <use xlink:href="#DejaVuSans-32"/>
       <use xlink:href="#DejaVuSans-30" x="63.623047"/>
       <use xlink:href="#DejaVuSans-31" x="127.246094"/>
       <use xlink:href="#DejaVuSans-34" x="190.869141"/>
       <use xlink:href="#DejaVuSans-2d" x="254.492188"/>
       <use xlink:href="#DejaVuSans-30" x="290.576172"/>
       <use xlink:href="#DejaVuSans-37" x="354.199219"/>
       <use xlink:href="#DejaVuSans-2d" x="417.822266"/>
       <use xlink:href="#DejaVuSans-30" x="453.90625"/>
       <use xlink:href="#DejaVuSans-35" x="517.529297"/>
      </g>
     </g>
    </g>
    <g id="xtick_12">
     <g id="line2d_24">
      <g>
       <use xlink:href="#m9f1a013be8" x="671.675687" y="684.92" style="stroke: #000000; stroke-width: 0.8"/>
      </g>
     </g>
     <g id="text_23">
      <!-- 2014-07-06 -->
      <g transform="translate(642.617874 699.518437) scale(0.1 -0.1)">
       <use xlink:href="#DejaVuSans-32"/>
       <use xlink:href="#DejaVuSans-30" x="63.623047"/>
       <use xlink:href="#DejaVuSans-31" x="127.246094"/>
       <use xlink:href="#DejaVuSans-34" x="190.869141"/>
       <use xlink:href="#DejaVuSans-2d" x="254.492188"/>
       <use xlink:href="#DejaVuSans-30" x="290.576172"/>
       <use xlink:href="#DejaVuSans-37" x="354.199219"/>
       <use xlink:href="#DejaVuSans-2d" x="417.822266"/>
       <use xlink:href="#DejaVuSans-30" x="453.90625"/>
       <use xlink:href="#DejaVuSans-36" x="517.529297"/>
      </g>
     </g>
    </g>
   </g>
   <g id="matplotlib.axis_4">
    <g id="ytick_9">
     <g id="line2d_25">
      <g>
       <use xlink:href="#m47f2885156" x="30.103125" y="671.339924" style="stroke: #000000; stroke-width: 0.8"/>
      </g>
     </g>
     <g id="text_24">
      <!-- 0.0 -->
      <g transform="translate(7.2 675.139143) scale(0.1 -0.1)">
       <use xlink:href="#DejaVuSans-30"/>
       <use xlink:href="#DejaVuSans-2e" x="63.623047"/>
       <use xlink:href="#DejaVuSans-30" x="95.410156"/>
      </g>
     </g>
    </g>
    <g id="ytick_10">
     <g id="line2d_26">
      <g>
       <use xlink:href="#m47f2885156" x="30.103125" y="635.414969" style="stroke: #000000; stroke-width: 0.8"/>
      </g>
     </g>
     <g id="text_25">
      <!-- 0.5 -->
      <g transform="translate(7.2 639.214188) scale(0.1 -0.1)">
       <use xlink:href="#DejaVuSans-30"/>
       <use xlink:href="#DejaVuSans-2e" x="63.623047"/>
       <use xlink:href="#DejaVuSans-35" x="95.410156"/>
      </g>
     </g>
    </g>
    <g id="ytick_11">
     <g id="line2d_27">
      <g>
       <use xlink:href="#m47f2885156" x="30.103125" y="599.490013" style="stroke: #000000; stroke-width: 0.8"/>
      </g>
     </g>
     <g id="text_26">
      <!-- 1.0 -->
      <g transform="translate(7.2 603.289232) scale(0.1 -0.1)">
       <use xlink:href="#DejaVuSans-31"/>
       <use xlink:href="#DejaVuSans-2e" x="63.623047"/>
       <use xlink:href="#DejaVuSans-30" x="95.410156"/>
      </g>
     </g>
    </g>
    <g id="ytick_12">
     <g id="line2d_28">
      <g>
       <use xlink:href="#m47f2885156" x="30.103125" y="563.565058" style="stroke: #000000; stroke-width: 0.8"/>
      </g>
     </g>
     <g id="text_27">
      <!-- 1.5 -->
      <g transform="translate(7.2 567.364277) scale(0.1 -0.1)">
       <use xlink:href="#DejaVuSans-31"/>
       <use xlink:href="#DejaVuSans-2e" x="63.623047"/>
       <use xlink:href="#DejaVuSans-35" x="95.410156"/>
      </g>
     </g>
    </g>
    <g id="ytick_13">
     <g id="line2d_29">
      <g>
       <use xlink:href="#m47f2885156" x="30.103125" y="527.640103" style="stroke: #000000; stroke-width: 0.8"/>
      </g>
     </g>
     <g id="text_28">
      <!-- 2.0 -->
      <g transform="translate(7.2 531.439321) scale(0.1 -0.1)">
       <use xlink:href="#DejaVuSans-32"/>
       <use xlink:href="#DejaVuSans-2e" x="63.623047"/>
       <use xlink:href="#DejaVuSans-30" x="95.410156"/>
      </g>
     </g>
    </g>
    <g id="ytick_14">
     <g id="line2d_30">
      <g>
       <use xlink:href="#m47f2885156" x="30.103125" y="491.715147" style="stroke: #000000; stroke-width: 0.8"/>
      </g>
     </g>
     <g id="text_29">
      <!-- 2.5 -->
      <g transform="translate(7.2 495.514366) scale(0.1 -0.1)">
       <use xlink:href="#DejaVuSans-32"/>
       <use xlink:href="#DejaVuSans-2e" x="63.623047"/>
       <use xlink:href="#DejaVuSans-35" x="95.410156"/>
      </g>
     </g>
    </g>
    <g id="ytick_15">
     <g id="line2d_31">
      <g>
       <use xlink:href="#m47f2885156" x="30.103125" y="455.790192" style="stroke: #000000; stroke-width: 0.8"/>
      </g>
     </g>
     <g id="text_30">
      <!-- 3.0 -->
      <g transform="translate(7.2 459.58941) scale(0.1 -0.1)">
       <use xlink:href="#DejaVuSans-33"/>
       <use xlink:href="#DejaVuSans-2e" x="63.623047"/>
       <use xlink:href="#DejaVuSans-30" x="95.410156"/>
      </g>
     </g>
    </g>
    <g id="ytick_16">
     <g id="line2d_32">
      <g>
       <use xlink:href="#m47f2885156" x="30.103125" y="419.865236" style="stroke: #000000; stroke-width: 0.8"/>
      </g>
     </g>
     <g id="text_31">
      <!-- 3.5 -->
      <g transform="translate(7.2 423.664455) scale(0.1 -0.1)">
       <use xlink:href="#DejaVuSans-33"/>
       <use xlink:href="#DejaVuSans-2e" x="63.623047"/>
       <use xlink:href="#DejaVuSans-35" x="95.410156"/>
      </g>
     </g>
    </g>
   </g>
   <g id="line2d_33">
    <path d="M 60.654199 671.339924 
L 63.115942 671.23799 
L 64.728808 670.850801 
L 67.869652 670.032655 
L 69.058079 669.887864 
L 70.670945 669.962071 
L 74.575778 670.200669 
L 75.339767 669.9772 
L 76.528195 669.235433 
L 76.867745 668.79227 
L 77.207296 668.187464 
L 79.329488 661.321462 
L 79.669039 660.780182 
L 79.923702 660.034488 
L 80.178365 659.865135 
L 80.517915 658.995566 
L 80.687691 659.001894 
L 80.772578 658.868436 
L 81.112129 657.480729 
L 81.281905 657.543175 
L 81.366792 657.396482 
L 81.706343 655.999671 
L 81.961006 655.910316 
L 82.045894 655.682049 
L 82.385444 653.888642 
L 82.640107 653.232502 
L 82.979658 651.136589 
L 83.234321 650.182231 
L 83.658759 647.568985 
L 83.828535 646.571643 
L 84.337861 642.457459 
L 85.780951 630.366726 
L 86.20539 627.175671 
L 87.478705 617.021307 
L 88.412469 611.079117 
L 89.346234 605.691338 
L 89.516009 603.79264 
L 89.770672 603.120428 
L 90.025335 601.894841 
L 90.9591 596.929154 
L 92.147527 592.084013 
L 92.911516 589.789891 
L 93.166179 586.881499 
L 93.335954 587.051381 
L 93.420842 586.984958 
L 93.50573 586.683061 
L 93.760393 582.882812 
L 94.015056 582.440018 
L 94.184831 581.12021 
L 94.439494 575.82073 
L 94.779045 572.929871 
L 95.118596 565.45553 
L 95.373259 562.126682 
L 95.712809 554.01295 
L 95.967472 549.771046 
L 96.391911 540.673775 
L 97.071012 526.617198 
L 99.193204 483.240384 
L 99.957193 470.793435 
L 101.230508 453.641274 
L 102.164273 444.377882 
L 103.182925 436.565824 
L 105.729555 420.769753 
L 106.663319 410.995105 
L 107.172646 407.803994 
L 107.681972 405.670597 
L 108.530848 403.169206 
L 109.294837 401.452761 
L 110.228602 400.017649 
L 110.65304 399.772342 
L 110.992591 399.764188 
L 111.332142 399.915792 
L 112.011243 400.619318 
L 112.435681 401.273612 
L 113.029895 402.374426 
L 113.624109 403.73598 
L 115.40675 408.073266 
L 119.141808 417.19016 
L 121.943101 423.934261 
L 124.91417 429.868061 
L 126.272372 432.476757 
L 128.479452 436.294547 
L 129.073666 437.260374 
L 130.177206 438.516697 
L 131.11097 440.224936 
L 132.299397 441.739807 
L 133.233162 443.437185 
L 135.100691 446.190804 
L 136.543781 448.531084 
L 137.477546 450.056337 
L 138.241535 451.252652 
L 141.721929 457.601281 
L 143.419683 461.4238 
L 144.26856 463.457841 
L 146.220976 468.557324 
L 147.748954 472.758886 
L 153.775979 487.13855 
L 155.728396 491.068065 
L 159.887892 498.831045 
L 168.885986 514.315514 
L 169.989525 516.095803 
L 173.045482 521.437767 
L 177.204978 528.585844 
L 180.515597 533.719545 
L 181.958688 535.840925 
L 183.486666 537.78719 
L 184.929756 539.487789 
L 186.457734 541.274237 
L 191.550995 547.254974 
L 192.654535 548.539716 
L 194.097625 550.144839 
L 198.002458 553.928429 
L 199.869987 555.767055 
L 202.246842 558.554472 
L 205.048135 562.156266 
L 207.934316 565.992035 
L 208.104092 565.640657 
L 208.358755 566.075657 
L 208.443642 566.092282 
L 208.613418 565.52382 
L 208.698305 565.567134 
L 208.868081 565.725384 
L 209.037856 565.510621 
L 209.377407 564.577565 
L 209.547182 564.269835 
L 210.820497 560.296629 
L 215.064881 545.686767 
L 216.762634 539.565544 
L 218.630163 534.445058 
L 219.47904 532.0283 
L 220.073254 529.747718 
L 220.412805 527.738662 
L 220.667468 526.235362 
L 220.922131 522.533801 
L 221.091906 521.226412 
L 221.601232 515.710764 
L 222.195446 511.010486 
L 222.874547 507.623079 
L 225.845616 494.971696 
L 226.524717 493.273821 
L 227.118931 492.386434 
L 227.713145 491.902724 
L 228.307358 491.717871 
L 228.901572 491.7565 
L 229.665561 492.078602 
L 230.344663 492.594157 
L 231.193539 493.539478 
L 232.042416 494.795305 
L 233.061068 496.69787 
L 233.74017 498.208048 
L 235.522811 502.82771 
L 237.984553 509.789041 
L 240.361408 516.103837 
L 242.568488 520.8522 
L 245.963995 527.07809 
L 247.322198 529.109356 
L 250.632817 533.767861 
L 255.216751 540.157449 
L 256.914505 542.653864 
L 259.29136 545.872932 
L 261.922878 548.952498 
L 267.016138 554.573121 
L 268.713892 556.033861 
L 270.156982 557.087737 
L 273.212939 559.049822 
L 274.316478 559.821014 
L 275.250243 560.299541 
L 277.032884 560.961227 
L 280.683054 562.628019 
L 282.465695 563.165021 
L 283.654123 563.393934 
L 285.182101 564.021993 
L 287.04963 565.225169 
L 289.681148 567.360245 
L 291.718452 569.345062 
L 293.416205 570.975341 
L 296.047723 573.518984 
L 299.613006 577.373853 
L 304.027165 581.989875 
L 305.215592 582.93046 
L 306.40402 583.506177 
L 306.74357 583.633875 
L 306.998233 583.628514 
L 307.252896 583.670166 
L 307.507559 583.687656 
L 307.762222 583.601439 
L 308.101773 583.615357 
L 309.375088 582.544119 
L 309.629751 582.065789 
L 309.884414 581.863753 
L 310.39374 581.004555 
L 310.563516 580.652791 
L 310.818179 580.059053 
L 311.072842 579.733242 
L 313.619472 573.952922 
L 313.959023 573.098023 
L 314.638124 571.254925 
L 316.590541 565.838342 
L 316.930091 564.26819 
L 317.099867 563.769355 
L 318.033631 560.155312 
L 318.79762 557.916881 
L 319.816272 555.737574 
L 321.853577 552.255042 
L 322.617566 551.244248 
L 323.466442 550.443455 
L 324.315319 549.945091 
L 325.164196 549.702722 
L 326.352623 549.690508 
L 327.371276 549.936508 
L 328.389928 550.391936 
L 329.578355 551.169594 
L 331.021446 552.422037 
L 332.719199 554.249169 
L 334.671616 556.733576 
L 336.793807 559.805759 
L 340.189315 565.134961 
L 354.874882 588.549833 
L 359.204154 594.87149 
L 371.173316 611.433861 
L 372.786182 613.064457 
L 374.653711 614.606009 
L 377.455004 616.513003 
L 379.831859 617.863037 
L 382.802928 619.280942 
L 387.047311 620.972278 
L 391.546358 622.480297 
L 397.488495 624.228518 
L 404.449285 625.95784 
L 414.12648 628.015187 
L 422.615247 629.828362 
L 426.689856 630.734939 
L 433.735533 631.967275 
L 441.460311 633.10972 
L 452.410821 634.553235 
L 462.088016 635.60867 
L 485.347239 637.753795 
L 507.24826 639.453255 
L 537.043834 641.660638 
L 550.031648 642.494479 
L 565.566093 643.277551 
L 585.939135 644.078037 
L 613.442742 644.892309 
L 640.606798 645.412541 
L 671.675687 645.827055 
L 671.675687 645.827055 
" clip-path="url(#p745e967abd)" style="fill: none; stroke: #1f77b4; stroke-width: 1.5; stroke-linecap: square"/>
   </g>
   <g id="line2d_34">
    <path d="M 60.654199 671.339924 
L 62.691504 671.229389 
L 64.728808 670.889574 
L 66.681224 670.375226 
L 70.50117 669.274798 
L 73.0478 668.887768 
L 74.660666 668.56936 
L 76.103756 667.977727 
L 77.122408 667.321823 
L 78.480611 665.984559 
L 79.669039 664.402204 
L 80.857466 662.265655 
L 82.045894 659.235828 
L 83.828535 653.128715 
L 86.969379 639.296442 
L 88.75202 630.875117 
L 89.600897 626.530933 
L 90.619549 620.764849 
L 91.468426 617.077858 
L 92.40219 614.003873 
L 92.996404 612.329894 
L 93.84528 605.246645 
L 94.524382 596.959165 
L 95.373259 583.686056 
L 96.731461 557.509123 
L 98.174552 529.687742 
L 99.872305 500.617239 
L 100.890958 486.38362 
L 101.994497 473.321392 
L 103.3527 460.833816 
L 105.644667 441.249549 
L 105.89933 438.090074 
L 106.748207 426.853723 
L 107.512196 419.431126 
L 108.361073 413.497278 
L 109.040174 410.154733 
L 109.719276 407.842524 
L 110.313489 406.539115 
L 110.822816 405.920264 
L 111.247254 405.69524 
L 111.671692 405.687178 
L 112.181018 405.92657 
L 112.775232 406.491993 
L 113.539221 407.572449 
L 114.557873 409.47367 
L 115.831188 412.36443 
L 117.698717 417.213182 
L 121.009337 426.569692 
L 122.282652 429.878724 
L 124.404844 434.985291 
L 132.638948 455.408545 
L 135.440241 461.337426 
L 137.222883 464.651328 
L 141.212603 471.827119 
L 142.910357 475.850665 
L 145.456987 482.549317 
L 148.682719 491.032392 
L 153.691092 502.119513 
L 155.55862 505.745625 
L 159.718117 513.346549 
L 168.461547 527.528152 
L 174.233909 535.466483 
L 176.695652 538.777188 
L 180.176046 543.044899 
L 181.619137 544.924224 
L 184.590205 548.082734 
L 192.230096 554.544337 
L 194.352288 556.537429 
L 196.050042 558.016132 
L 197.408244 559.118504 
L 198.68156 560.102845 
L 200.039762 561.495972 
L 201.822404 563.664024 
L 204.538809 567.355259 
L 208.019204 572.080958 
L 208.52853 571.941255 
L 209.292519 570.365847 
L 209.97162 568.055569 
L 210.990273 563.751281 
L 213.112464 552.774024 
L 214.979993 544.231336 
L 216.423084 539.000466 
L 217.441736 536.099374 
L 219.139489 531.801874 
L 219.733703 529.729271 
L 220.243029 527.195609 
L 220.837243 522.321082 
L 221.68612 512.319548 
L 222.450109 505.726656 
L 223.214098 500.93966 
L 223.893199 497.846203 
L 224.572301 495.627557 
L 225.166514 494.293258 
L 225.760728 493.458704 
L 226.270054 493.06669 
L 226.77938 492.920088 
L 227.373594 493.004997 
L 228.052695 493.375807 
L 228.816684 494.068553 
L 229.835336 495.334854 
L 231.108652 497.30741 
L 232.891293 500.529364 
L 237.135677 508.322527 
L 239.342756 511.964816 
L 240.870734 514.167694 
L 242.653375 516.170388 
L 244.096466 517.92301 
L 245.963995 520.115872 
L 247.491973 521.939751 
L 249.953716 524.746076 
L 254.53765 529.908424 
L 257.423831 533.472511 
L 261.074001 537.350994 
L 262.517092 538.771182 
L 267.185914 543.714427 
L 268.544116 544.990893 
L 270.156982 546.328107 
L 271.430297 547.152135 
L 272.618725 548.221606 
L 274.825804 550.244788 
L 275.844457 550.904087 
L 276.778221 551.54128 
L 280.513279 554.430865 
L 281.616818 555.171846 
L 284.927438 557.397841 
L 286.285641 558.867775 
L 288.153169 561.253151 
L 291.03935 565.356977 
L 292.906879 567.908918 
L 295.45351 571.220723 
L 301.480535 579.1977 
L 303.432951 581.530565 
L 304.706266 582.706797 
L 305.724918 583.411233 
L 306.913346 583.846913 
L 308.186661 583.802642 
L 309.205313 582.987071 
L 309.544864 582.52269 
L 310.478628 580.972895 
L 311.836831 577.916511 
L 314.8079 568.979495 
L 316.420765 563.93488 
L 316.675428 563.163268 
L 317.439417 559.573556 
L 318.203407 556.83101 
L 318.967396 554.89188 
L 319.731385 553.577573 
L 320.410486 552.797085 
L 321.089588 552.297572 
L 321.853577 551.998625 
L 322.702453 551.921405 
L 323.636218 552.061017 
L 324.824645 552.489386 
L 326.352623 553.30012 
L 327.710826 554.277914 
L 329.238804 555.676155 
L 331.191221 557.779402 
L 334.50184 561.71664 
L 341.038191 570.013259 
L 347.489655 578.025011 
L 352.582915 583.997267 
L 357.336625 589.231911 
L 361.920559 593.949475 
L 366.419606 598.258364 
L 370.833765 602.177901 
L 375.247924 605.798394 
L 379.662084 609.129253 
L 384.076243 612.18223 
L 388.575289 615.02175 
L 393.159224 617.64777 
L 397.828046 620.062214 
L 402.581756 622.268675 
L 407.505241 624.305198 
L 412.513614 626.136969 
L 417.77665 627.822446 
L 423.209461 629.327125 
L 428.896935 630.669831 
L 434.839073 631.843173 
L 441.120761 632.854652 
L 447.741999 633.693631 
L 454.787676 634.359624 
L 462.257792 634.841225 
L 470.322121 635.135008 
L 478.980664 635.224657 
L 488.403196 635.095207 
L 498.674604 634.726566 
L 509.964665 634.093619 
L 522.443154 633.167334 
L 536.534508 631.893056 
L 552.663166 630.205483 
L 571.762893 627.976357 
L 595.955881 624.917166 
L 634.494885 619.787453 
L 671.675687 614.830285 
L 671.675687 614.830285 
" clip-path="url(#p745e967abd)" style="fill: none; stroke: #ff7f0e; stroke-width: 1.5; stroke-linecap: square"/>
   </g>
   <g id="patch_9">
    <path d="M 30.103125 684.92 
L 30.103125 386.16 
" style="fill: none; stroke: #000000; stroke-width: 0.8; stroke-linejoin: miter; stroke-linecap: square"/>
   </g>
   <g id="patch_10">
    <path d="M 702.226761 684.92 
L 702.226761 386.16 
" style="fill: none; stroke: #000000; stroke-width: 0.8; stroke-linejoin: miter; stroke-linecap: square"/>
   </g>
   <g id="patch_11">
    <path d="M 30.103125 684.92 
L 702.226761 684.92 
" style="fill: none; stroke: #000000; stroke-width: 0.8; stroke-linejoin: miter; stroke-linecap: square"/>
   </g>
   <g id="patch_12">
    <path d="M 30.103125 386.16 
L 702.226761 386.16 
" style="fill: none; stroke: #000000; stroke-width: 0.8; stroke-linejoin: miter; stroke-linecap: square"/>
   </g>
   <g id="text_32">
    <!-- 2 transformation(s) -->
    <g transform="translate(308.050256 380.16) scale(0.12 -0.12)">
     <use xlink:href="#DejaVuSans-32"/>
     <use xlink:href="#DejaVuSans-20" x="63.623047"/>
     <use xlink:href="#DejaVuSans-74" x="95.410156"/>
     <use xlink:href="#DejaVuSans-72" x="134.619141"/>
     <use xlink:href="#DejaVuSans-61" x="175.732422"/>
     <use xlink:href="#DejaVuSans-6e" x="237.011719"/>
     <use xlink:href="#DejaVuSans-73" x="300.390625"/>
     <use xlink:href="#DejaVuSans-66" x="352.490234"/>
     <use xlink:href="#DejaVuSans-6f" x="387.695312"/>
     <use xlink:href="#DejaVuSans-72" x="448.876953"/>
     <use xlink:href="#DejaVuSans-6d" x="488.240234"/>
     <use xlink:href="#DejaVuSans-61" x="585.652344"/>
     <use xlink:href="#DejaVuSans-74" x="646.931641"/>
     <use xlink:href="#DejaVuSans-69" x="686.140625"/>
     <use xlink:href="#DejaVuSans-6f" x="713.923828"/>
     <use xlink:href="#DejaVuSans-6e" x="775.105469"/>
     <use xlink:href="#DejaVuSans-28" x="838.484375"/>
     <use xlink:href="#DejaVuSans-73" x="877.498047"/>
     <use xlink:href="#DejaVuSans-29" x="929.597656"/>
    </g>
   </g>
  </g>
  <g id="text_33">
   <!-- training -->
   <g transform="translate(333.219687 16.318125) scale(0.12 -0.12)">
    <defs>
     <path id="DejaVuSans-67" d="M 2906 1791 
Q 2906 2416 2648 2759 
Q 2391 3103 1925 3103 
Q 1463 3103 1205 2759 
Q 947 2416 947 1791 
Q 947 1169 1205 825 
Q 1463 481 1925 481 
Q 2391 481 2648 825 
Q 2906 1169 2906 1791 
z
M 3481 434 
Q 3481 -459 3084 -895 
Q 2688 -1331 1869 -1331 
Q 1566 -1331 1297 -1286 
Q 1028 -1241 775 -1147 
L 775 -588 
Q 1028 -725 1275 -790 
Q 1522 -856 1778 -856 
Q 2344 -856 2625 -561 
Q 2906 -266 2906 331 
L 2906 616 
Q 2728 306 2450 153 
Q 2172 0 1784 0 
Q 1141 0 747 490 
Q 353 981 353 1791 
Q 353 2603 747 3093 
Q 1141 3584 1784 3584 
Q 2172 3584 2450 3431 
Q 2728 3278 2906 2969 
L 2906 3500 
L 3481 3500 
L 3481 434 
z
" transform="scale(0.015625)"/>
    </defs>
    <use xlink:href="#DejaVuSans-74"/>
    <use xlink:href="#DejaVuSans-72" x="39.208984"/>
    <use xlink:href="#DejaVuSans-61" x="80.322266"/>
    <use xlink:href="#DejaVuSans-69" x="141.601562"/>
    <use xlink:href="#DejaVuSans-6e" x="169.384766"/>
    <use xlink:href="#DejaVuSans-69" x="232.763672"/>
    <use xlink:href="#DejaVuSans-6e" x="260.546875"/>
    <use xlink:href="#DejaVuSans-67" x="323.925781"/>
   </g>
  </g>
 </g>
 <defs>
  <clipPath id="pfe3a57769f">
   <rect x="30.103125" y="43.44" width="672.123636" height="298.76"/>
  </clipPath>
  <clipPath id="p745e967abd">
   <rect x="30.103125" y="386.16" width="672.123636" height="298.76"/>
  </clipPath>
 </defs>
</svg>
