<?xml version="1.0" encoding="utf-8" standalone="no"?>
<!DOCTYPE svg PUBLIC "-//W3C//DTD SVG 1.1//EN"
  "http://www.w3.org/Graphics/SVG/1.1/DTD/svg11.dtd">
<svg xmlns:xlink="http://www.w3.org/1999/xlink" width="711.524048pt" height="708.798125pt" viewBox="0 0 711.524048 708.798125" xmlns="http://www.w3.org/2000/svg" version="1.1">
 <metadata>
  <rdf:RDF xmlns:dc="http://purl.org/dc/elements/1.1/" xmlns:cc="http://creativecommons.org/ns#" xmlns:rdf="http://www.w3.org/1999/02/22-rdf-syntax-ns#">
   <cc:Work>
    <dc:type rdf:resource="http://purl.org/dc/dcmitype/StillImage"/>
    <dc:date>2023-07-16T05:20:12.286785</dc:date>
    <dc:format>image/svg+xml</dc:format>
    <dc:creator>
     <cc:Agent>
      <dc:title>Matplotlib v3.7.1, https://matplotlib.org/</dc:title>
     </cc:Agent>
    </dc:creator>
   </cc:Work>
  </rdf:RDF>
 </metadata>
 <defs>
  <style type="text/css">*{stroke-linejoin: round; stroke-linecap: butt}</style>
 </defs>
 <g id="figure_1">
  <g id="patch_1">
   <path d="M -0 708.798125 
L 711.524048 708.798125 
L 711.524048 0 
L -0 0 
z
" style="fill: #ffffff"/>
  </g>
  <g id="axes_1">
   <g id="patch_2">
    <path d="M 52.375 342.2 
L 704.324048 342.2 
L 704.324048 43.44 
L 52.375 43.44 
z
" style="fill: #ffffff"/>
   </g>
   <g id="matplotlib.axis_1">
    <g id="xtick_1">
     <g id="line2d_1">
      <defs>
       <path id="m76301f6bdb" d="M 0 0 
L 0 3.5 
" style="stroke: #000000; stroke-width: 0.8"/>
      </defs>
      <g>
       <use xlink:href="#m76301f6bdb" x="98.332123" y="342.2" style="stroke: #000000; stroke-width: 0.8"/>
      </g>
     </g>
     <g id="text_1">
      <!-- 2000 -->
      <g transform="translate(85.607123 356.798437) scale(0.1 -0.1)">
       <defs>
        <path id="DejaVuSans-32" d="M 1228 531 
L 3431 531 
L 3431 0 
L 469 0 
L 469 531 
Q 828 903 1448 1529 
Q 2069 2156 2228 2338 
Q 2531 2678 2651 2914 
Q 2772 3150 2772 3378 
Q 2772 3750 2511 3984 
Q 2250 4219 1831 4219 
Q 1534 4219 1204 4116 
Q 875 4013 500 3803 
L 500 4441 
Q 881 4594 1212 4672 
Q 1544 4750 1819 4750 
Q 2544 4750 2975 4387 
Q 3406 4025 3406 3419 
Q 3406 3131 3298 2873 
Q 3191 2616 2906 2266 
Q 2828 2175 2409 1742 
Q 1991 1309 1228 531 
z
" transform="scale(0.015625)"/>
        <path id="DejaVuSans-30" d="M 2034 4250 
Q 1547 4250 1301 3770 
Q 1056 3291 1056 2328 
Q 1056 1369 1301 889 
Q 1547 409 2034 409 
Q 2525 409 2770 889 
Q 3016 1369 3016 2328 
Q 3016 3291 2770 3770 
Q 2525 4250 2034 4250 
z
M 2034 4750 
Q 2819 4750 3233 4129 
Q 3647 3509 3647 2328 
Q 3647 1150 3233 529 
Q 2819 -91 2034 -91 
Q 1250 -91 836 529 
Q 422 1150 422 2328 
Q 422 3509 836 4129 
Q 1250 4750 2034 4750 
z
" transform="scale(0.015625)"/>
       </defs>
       <use xlink:href="#DejaVuSans-32"/>
       <use xlink:href="#DejaVuSans-30" x="63.623047"/>
       <use xlink:href="#DejaVuSans-30" x="127.246094"/>
       <use xlink:href="#DejaVuSans-30" x="190.869141"/>
      </g>
     </g>
    </g>
    <g id="xtick_2">
     <g id="line2d_2">
      <g>
       <use xlink:href="#m76301f6bdb" x="164.345887" y="342.2" style="stroke: #000000; stroke-width: 0.8"/>
      </g>
     </g>
     <g id="text_2">
      <!-- 2001 -->
      <g transform="translate(151.620887 356.798437) scale(0.1 -0.1)">
       <defs>
        <path id="DejaVuSans-31" d="M 794 531 
L 1825 531 
L 1825 4091 
L 703 3866 
L 703 4441 
L 1819 4666 
L 2450 4666 
L 2450 531 
L 3481 531 
L 3481 0 
L 794 0 
L 794 531 
z
" transform="scale(0.015625)"/>
       </defs>
       <use xlink:href="#DejaVuSans-32"/>
       <use xlink:href="#DejaVuSans-30" x="63.623047"/>
       <use xlink:href="#DejaVuSans-30" x="127.246094"/>
       <use xlink:href="#DejaVuSans-31" x="190.869141"/>
      </g>
     </g>
    </g>
    <g id="xtick_3">
     <g id="line2d_3">
      <g>
       <use xlink:href="#m76301f6bdb" x="230.179286" y="342.2" style="stroke: #000000; stroke-width: 0.8"/>
      </g>
     </g>
     <g id="text_3">
      <!-- 2002 -->
      <g transform="translate(217.454286 356.798437) scale(0.1 -0.1)">
       <use xlink:href="#DejaVuSans-32"/>
       <use xlink:href="#DejaVuSans-30" x="63.623047"/>
       <use xlink:href="#DejaVuSans-30" x="127.246094"/>
       <use xlink:href="#DejaVuSans-32" x="190.869141"/>
      </g>
     </g>
    </g>
    <g id="xtick_4">
     <g id="line2d_4">
      <g>
       <use xlink:href="#m76301f6bdb" x="296.012684" y="342.2" style="stroke: #000000; stroke-width: 0.8"/>
      </g>
     </g>
     <g id="text_4">
      <!-- 2003 -->
      <g transform="translate(283.287684 356.798437) scale(0.1 -0.1)">
       <defs>
        <path id="DejaVuSans-33" d="M 2597 2516 
Q 3050 2419 3304 2112 
Q 3559 1806 3559 1356 
Q 3559 666 3084 287 
Q 2609 -91 1734 -91 
Q 1441 -91 1130 -33 
Q 819 25 488 141 
L 488 750 
Q 750 597 1062 519 
Q 1375 441 1716 441 
Q 2309 441 2620 675 
Q 2931 909 2931 1356 
Q 2931 1769 2642 2001 
Q 2353 2234 1838 2234 
L 1294 2234 
L 1294 2753 
L 1863 2753 
Q 2328 2753 2575 2939 
Q 2822 3125 2822 3475 
Q 2822 3834 2567 4026 
Q 2313 4219 1838 4219 
Q 1578 4219 1281 4162 
Q 984 4106 628 3988 
L 628 4550 
Q 988 4650 1302 4700 
Q 1616 4750 1894 4750 
Q 2613 4750 3031 4423 
Q 3450 4097 3450 3541 
Q 3450 3153 3228 2886 
Q 3006 2619 2597 2516 
z
" transform="scale(0.015625)"/>
       </defs>
       <use xlink:href="#DejaVuSans-32"/>
       <use xlink:href="#DejaVuSans-30" x="63.623047"/>
       <use xlink:href="#DejaVuSans-30" x="127.246094"/>
       <use xlink:href="#DejaVuSans-33" x="190.869141"/>
      </g>
     </g>
    </g>
    <g id="xtick_5">
     <g id="line2d_5">
      <g>
       <use xlink:href="#m76301f6bdb" x="361.846083" y="342.2" style="stroke: #000000; stroke-width: 0.8"/>
      </g>
     </g>
     <g id="text_5">
      <!-- 2004 -->
      <g transform="translate(349.121083 356.798437) scale(0.1 -0.1)">
       <defs>
        <path id="DejaVuSans-34" d="M 2419 4116 
L 825 1625 
L 2419 1625 
L 2419 4116 
z
M 2253 4666 
L 3047 4666 
L 3047 1625 
L 3713 1625 
L 3713 1100 
L 3047 1100 
L 3047 0 
L 2419 0 
L 2419 1100 
L 313 1100 
L 313 1709 
L 2253 4666 
z
" transform="scale(0.015625)"/>
       </defs>
       <use xlink:href="#DejaVuSans-32"/>
       <use xlink:href="#DejaVuSans-30" x="63.623047"/>
       <use xlink:href="#DejaVuSans-30" x="127.246094"/>
       <use xlink:href="#DejaVuSans-34" x="190.869141"/>
      </g>
     </g>
    </g>
    <g id="xtick_6">
     <g id="line2d_6">
      <g>
       <use xlink:href="#m76301f6bdb" x="427.859847" y="342.2" style="stroke: #000000; stroke-width: 0.8"/>
      </g>
     </g>
     <g id="text_6">
      <!-- 2005 -->
      <g transform="translate(415.134847 356.798437) scale(0.1 -0.1)">
       <defs>
        <path id="DejaVuSans-35" d="M 691 4666 
L 3169 4666 
L 3169 4134 
L 1269 4134 
L 1269 2991 
Q 1406 3038 1543 3061 
Q 1681 3084 1819 3084 
Q 2600 3084 3056 2656 
Q 3513 2228 3513 1497 
Q 3513 744 3044 326 
Q 2575 -91 1722 -91 
Q 1428 -91 1123 -41 
Q 819 9 494 109 
L 494 744 
Q 775 591 1075 516 
Q 1375 441 1709 441 
Q 2250 441 2565 725 
Q 2881 1009 2881 1497 
Q 2881 1984 2565 2268 
Q 2250 2553 1709 2553 
Q 1456 2553 1204 2497 
Q 953 2441 691 2322 
L 691 4666 
z
" transform="scale(0.015625)"/>
       </defs>
       <use xlink:href="#DejaVuSans-32"/>
       <use xlink:href="#DejaVuSans-30" x="63.623047"/>
       <use xlink:href="#DejaVuSans-30" x="127.246094"/>
       <use xlink:href="#DejaVuSans-35" x="190.869141"/>
      </g>
     </g>
    </g>
    <g id="xtick_7">
     <g id="line2d_7">
      <g>
       <use xlink:href="#m76301f6bdb" x="493.693246" y="342.2" style="stroke: #000000; stroke-width: 0.8"/>
      </g>
     </g>
     <g id="text_7">
      <!-- 2006 -->
      <g transform="translate(480.968246 356.798437) scale(0.1 -0.1)">
       <defs>
        <path id="DejaVuSans-36" d="M 2113 2584 
Q 1688 2584 1439 2293 
Q 1191 2003 1191 1497 
Q 1191 994 1439 701 
Q 1688 409 2113 409 
Q 2538 409 2786 701 
Q 3034 994 3034 1497 
Q 3034 2003 2786 2293 
Q 2538 2584 2113 2584 
z
M 3366 4563 
L 3366 3988 
Q 3128 4100 2886 4159 
Q 2644 4219 2406 4219 
Q 1781 4219 1451 3797 
Q 1122 3375 1075 2522 
Q 1259 2794 1537 2939 
Q 1816 3084 2150 3084 
Q 2853 3084 3261 2657 
Q 3669 2231 3669 1497 
Q 3669 778 3244 343 
Q 2819 -91 2113 -91 
Q 1303 -91 875 529 
Q 447 1150 447 2328 
Q 447 3434 972 4092 
Q 1497 4750 2381 4750 
Q 2619 4750 2861 4703 
Q 3103 4656 3366 4563 
z
" transform="scale(0.015625)"/>
       </defs>
       <use xlink:href="#DejaVuSans-32"/>
       <use xlink:href="#DejaVuSans-30" x="63.623047"/>
       <use xlink:href="#DejaVuSans-30" x="127.246094"/>
       <use xlink:href="#DejaVuSans-36" x="190.869141"/>
      </g>
     </g>
    </g>
    <g id="xtick_8">
     <g id="line2d_8">
      <g>
       <use xlink:href="#m76301f6bdb" x="559.526644" y="342.2" style="stroke: #000000; stroke-width: 0.8"/>
      </g>
     </g>
     <g id="text_8">
      <!-- 2007 -->
      <g transform="translate(546.801644 356.798437) scale(0.1 -0.1)">
       <defs>
        <path id="DejaVuSans-37" d="M 525 4666 
L 3525 4666 
L 3525 4397 
L 1831 0 
L 1172 0 
L 2766 4134 
L 525 4134 
L 525 4666 
z
" transform="scale(0.015625)"/>
       </defs>
       <use xlink:href="#DejaVuSans-32"/>
       <use xlink:href="#DejaVuSans-30" x="63.623047"/>
       <use xlink:href="#DejaVuSans-30" x="127.246094"/>
       <use xlink:href="#DejaVuSans-37" x="190.869141"/>
      </g>
     </g>
    </g>
    <g id="xtick_9">
     <g id="line2d_9">
      <g>
       <use xlink:href="#m76301f6bdb" x="625.360043" y="342.2" style="stroke: #000000; stroke-width: 0.8"/>
      </g>
     </g>
     <g id="text_9">
      <!-- 2008 -->
      <g transform="translate(612.635043 356.798437) scale(0.1 -0.1)">
       <defs>
        <path id="DejaVuSans-38" d="M 2034 2216 
Q 1584 2216 1326 1975 
Q 1069 1734 1069 1313 
Q 1069 891 1326 650 
Q 1584 409 2034 409 
Q 2484 409 2743 651 
Q 3003 894 3003 1313 
Q 3003 1734 2745 1975 
Q 2488 2216 2034 2216 
z
M 1403 2484 
Q 997 2584 770 2862 
Q 544 3141 544 3541 
Q 544 4100 942 4425 
Q 1341 4750 2034 4750 
Q 2731 4750 3128 4425 
Q 3525 4100 3525 3541 
Q 3525 3141 3298 2862 
Q 3072 2584 2669 2484 
Q 3125 2378 3379 2068 
Q 3634 1759 3634 1313 
Q 3634 634 3220 271 
Q 2806 -91 2034 -91 
Q 1263 -91 848 271 
Q 434 634 434 1313 
Q 434 1759 690 2068 
Q 947 2378 1403 2484 
z
M 1172 3481 
Q 1172 3119 1398 2916 
Q 1625 2713 2034 2713 
Q 2441 2713 2670 2916 
Q 2900 3119 2900 3481 
Q 2900 3844 2670 4047 
Q 2441 4250 2034 4250 
Q 1625 4250 1398 4047 
Q 1172 3844 1172 3481 
z
" transform="scale(0.015625)"/>
       </defs>
       <use xlink:href="#DejaVuSans-32"/>
       <use xlink:href="#DejaVuSans-30" x="63.623047"/>
       <use xlink:href="#DejaVuSans-30" x="127.246094"/>
       <use xlink:href="#DejaVuSans-38" x="190.869141"/>
      </g>
     </g>
    </g>
    <g id="xtick_10">
     <g id="line2d_10">
      <g>
       <use xlink:href="#m76301f6bdb" x="691.373807" y="342.2" style="stroke: #000000; stroke-width: 0.8"/>
      </g>
     </g>
     <g id="text_10">
      <!-- 2009 -->
      <g transform="translate(678.648807 356.798437) scale(0.1 -0.1)">
       <defs>
        <path id="DejaVuSans-39" d="M 703 97 
L 703 672 
Q 941 559 1184 500 
Q 1428 441 1663 441 
Q 2288 441 2617 861 
Q 2947 1281 2994 2138 
Q 2813 1869 2534 1725 
Q 2256 1581 1919 1581 
Q 1219 1581 811 2004 
Q 403 2428 403 3163 
Q 403 3881 828 4315 
Q 1253 4750 1959 4750 
Q 2769 4750 3195 4129 
Q 3622 3509 3622 2328 
Q 3622 1225 3098 567 
Q 2575 -91 1691 -91 
Q 1453 -91 1209 -44 
Q 966 3 703 97 
z
M 1959 2075 
Q 2384 2075 2632 2365 
Q 2881 2656 2881 3163 
Q 2881 3666 2632 3958 
Q 2384 4250 1959 4250 
Q 1534 4250 1286 3958 
Q 1038 3666 1038 3163 
Q 1038 2656 1286 2365 
Q 1534 2075 1959 2075 
z
" transform="scale(0.015625)"/>
       </defs>
       <use xlink:href="#DejaVuSans-32"/>
       <use xlink:href="#DejaVuSans-30" x="63.623047"/>
       <use xlink:href="#DejaVuSans-30" x="127.246094"/>
       <use xlink:href="#DejaVuSans-39" x="190.869141"/>
      </g>
     </g>
    </g>
   </g>
   <g id="matplotlib.axis_2">
    <g id="ytick_1">
     <g id="line2d_11">
      <defs>
       <path id="m413d3768f7" d="M 0 0 
L -3.5 0 
" style="stroke: #000000; stroke-width: 0.8"/>
      </defs>
      <g>
       <use xlink:href="#m413d3768f7" x="52.375" y="324.179933" style="stroke: #000000; stroke-width: 0.8"/>
      </g>
     </g>
     <g id="text_11">
      <!-- 0 -->
      <g transform="translate(39.0125 327.979152) scale(0.1 -0.1)">
       <use xlink:href="#DejaVuSans-30"/>
      </g>
     </g>
    </g>
    <g id="ytick_2">
     <g id="line2d_12">
      <g>
       <use xlink:href="#m413d3768f7" x="52.375" y="259.695588" style="stroke: #000000; stroke-width: 0.8"/>
      </g>
     </g>
     <g id="text_12">
      <!-- 5 -->
      <g transform="translate(39.0125 263.494807) scale(0.1 -0.1)">
       <use xlink:href="#DejaVuSans-35"/>
      </g>
     </g>
    </g>
    <g id="ytick_3">
     <g id="line2d_13">
      <g>
       <use xlink:href="#m413d3768f7" x="52.375" y="195.211242" style="stroke: #000000; stroke-width: 0.8"/>
      </g>
     </g>
     <g id="text_13">
      <!-- 10 -->
      <g transform="translate(32.65 199.010461) scale(0.1 -0.1)">
       <use xlink:href="#DejaVuSans-31"/>
       <use xlink:href="#DejaVuSans-30" x="63.623047"/>
      </g>
     </g>
    </g>
    <g id="ytick_4">
     <g id="line2d_14">
      <g>
       <use xlink:href="#m413d3768f7" x="52.375" y="130.726897" style="stroke: #000000; stroke-width: 0.8"/>
      </g>
     </g>
     <g id="text_14">
      <!-- 15 -->
      <g transform="translate(32.65 134.526115) scale(0.1 -0.1)">
       <use xlink:href="#DejaVuSans-31"/>
       <use xlink:href="#DejaVuSans-35" x="63.623047"/>
      </g>
     </g>
    </g>
    <g id="ytick_5">
     <g id="line2d_15">
      <g>
       <use xlink:href="#m413d3768f7" x="52.375" y="66.242551" style="stroke: #000000; stroke-width: 0.8"/>
      </g>
     </g>
     <g id="text_15">
      <!-- 20 -->
      <g transform="translate(32.65 70.04177) scale(0.1 -0.1)">
       <use xlink:href="#DejaVuSans-32"/>
       <use xlink:href="#DejaVuSans-30" x="63.623047"/>
      </g>
     </g>
    </g>
   </g>
   <g id="line2d_16">
    <path d="M 82.009048 320.474663 
L 82.189413 320.669406 
L 82.73051 320.572679 
L 82.910875 319.110174 
L 83.09124 319.012158 
L 83.993068 320.767422 
L 84.534164 320.962165 
L 84.894895 320.376647 
L 85.075261 320.669406 
L 85.255626 320.572679 
L 86.337819 321.060181 
L 86.878915 321.060181 
L 87.059281 322.035184 
L 87.239646 322.229927 
L 87.780743 322.327943 
L 88.502205 322.619412 
L 89.404032 322.619412 
L 89.584398 322.815445 
L 89.764763 322.619412 
L 90.125494 322.619412 
L 90.30586 322.424669 
L 90.66659 322.912171 
L 91.027321 322.522686 
L 91.207687 322.522686 
L 91.568418 322.815445 
L 92.109514 322.717428 
L 92.650611 322.522686 
L 92.830976 322.522686 
L 93.191707 322.131911 
L 93.552438 322.522686 
L 93.732804 322.035184 
L 94.093535 321.742425 
L 94.2739 322.035184 
L 94.454265 321.742425 
L 95.175727 322.131911 
L 95.716824 321.547682 
L 96.979382 321.547682 
L 97.159748 321.742425 
L 97.340113 321.449666 
L 97.700844 321.547682 
L 97.881209 321.547682 
L 98.061575 321.742425 
L 98.422306 321.742425 
L 98.602671 321.547682 
L 98.963402 322.131911 
L 99.504499 322.035184 
L 100.586692 321.449666 
L 101.127788 321.937168 
L 101.308154 321.937168 
L 101.488519 321.742425 
L 101.668884 321.254923 
L 102.029615 321.937168 
L 102.390346 322.229927 
L 102.570712 322.229927 
L 102.751077 321.937168 
L 102.931443 321.937168 
L 103.111808 322.131911 
L 103.292174 322.619412 
L 103.472539 322.424669 
L 103.652905 323.106914 
L 103.83327 323.106914 
L 104.194001 322.619412 
L 104.554732 322.035184 
L 105.456559 322.035184 
L 105.81729 321.547682 
L 106.538752 321.547682 
L 106.719118 321.742425 
L 106.899483 321.742425 
L 107.079849 321.547682 
L 107.260214 321.937168 
L 107.44058 322.035184 
L 107.620945 321.742425 
L 107.981676 321.840441 
L 108.162042 321.742425 
L 108.522773 321.937168 
L 108.883503 321.644409 
L 109.063869 321.644409 
L 109.244234 321.840441 
L 110.326427 321.156907 
L 110.506793 321.547682 
L 111.228255 321.254923 
L 111.40862 321.449666 
L 111.769351 321.449666 
L 111.949717 321.742425 
L 112.130082 321.644409 
L 112.490813 321.937168 
L 112.671178 321.742425 
L 112.851544 321.742425 
L 113.573006 321.060181 
L 113.753371 321.060181 
L 114.294468 320.27992 
L 114.474833 320.27992 
L 114.835564 320.864148 
L 115.01593 320.864148 
L 115.196295 321.060181 
L 115.376661 320.669406 
L 115.557026 319.304917 
L 115.737392 319.49966 
L 115.917757 319.987161 
L 116.098123 319.206901 
L 116.278488 317.062151 
L 116.458853 316.867409 
L 116.639219 317.647669 
L 116.99995 314.4299 
L 117.360681 314.4299 
L 117.541046 316.379907 
L 117.721412 315.404904 
L 117.901777 312.479894 
L 118.082143 314.4299 
L 118.262508 314.4299 
L 118.442874 313.454897 
L 118.803605 313.454897 
L 118.98397 315.404904 
L 119.164336 315.404904 
L 119.525067 308.57988 
L 119.705432 304.678578 
L 119.885798 304.678578 
L 120.066163 306.629874 
L 120.246528 305.654871 
L 120.607259 287.128518 
L 121.148356 257.877129 
L 121.328721 256.902126 
L 121.509087 261.777142 
L 121.689452 274.453475 
L 121.869818 264.702152 
L 122.050183 237.40206 
L 122.230549 236.427057 
L 122.410914 263.727149 
L 122.59128 269.578459 
L 122.771645 265.678445 
L 122.952011 250.077103 
L 123.132376 250.077103 
L 123.493107 272.503469 
L 123.673472 273.478472 
L 123.853838 273.478472 
L 124.034203 253.977116 
L 124.394934 165.249236 
L 124.5753 155.499203 
L 124.936031 195.475628 
L 125.116396 181.824292 
L 125.296762 130.147827 
L 125.477127 118.447788 
L 126.378955 199.375641 
L 127.641513 269.578459 
L 128.362975 286.153515 
L 128.904071 293.953541 
L 129.264802 287.128518 
L 129.445168 294.928545 
L 129.805899 299.803561 
L 130.16663 301.753568 
L 130.346995 299.803561 
L 130.527361 300.778564 
L 130.888092 305.654871 
L 131.248822 308.57988 
L 131.429188 308.57988 
L 132.331015 313.454897 
L 132.511381 313.454897 
L 132.691746 311.50489 
L 133.052477 314.4299 
L 133.232843 314.4299 
L 133.413208 315.404904 
L 133.593574 315.404904 
L 134.13467 310.529887 
L 134.315036 314.4299 
L 134.675767 316.769392 
L 135.216863 318.135171 
L 135.577594 318.329914 
L 136.299056 319.304917 
L 137.200883 320.181904 
L 137.922345 320.669406 
L 138.283076 320.962165 
L 138.824172 320.669406 
L 139.184903 321.060181 
L 139.726 319.401643 
L 139.906365 319.110174 
L 140.086731 319.110174 
L 140.267096 319.792418 
L 140.447462 319.987161 
L 140.988558 320.962165 
L 141.168924 320.572679 
L 141.529655 321.060181 
L 141.71002 320.864148 
L 141.890386 320.085177 
L 142.070751 320.376647 
L 142.251116 320.376647 
L 142.792213 321.547682 
L 142.972578 321.742425 
L 143.152944 321.547682 
L 143.333309 321.156907 
L 143.513675 321.547682 
L 143.69404 320.864148 
L 143.874406 321.060181 
L 144.235137 321.937168 
L 144.776233 322.424669 
L 145.31733 322.619412 
L 145.497695 322.424669 
L 145.678061 322.619412 
L 145.858426 322.619412 
L 146.038791 320.376647 
L 146.219157 320.181904 
L 146.399522 321.449666 
L 146.579888 321.449666 
L 147.30135 322.327943 
L 147.662081 322.229927 
L 148.203177 322.424669 
L 148.563908 321.35294 
L 148.924639 322.131911 
L 150.006832 322.619412 
L 150.547928 322.717428 
L 150.728294 321.156907 
L 150.908659 317.256894 
L 151.26939 322.619412 
L 151.449756 322.815445 
L 152.712314 322.717428 
L 152.89268 322.424669 
L 153.433776 323.106914 
L 153.614141 322.815445 
L 154.8767 322.717428 
L 155.417796 322.522686 
L 156.319624 322.619412 
L 156.499989 322.717428 
L 156.86072 322.619412 
L 164.616435 322.717428 
L 164.977166 322.815445 
L 166.780821 322.717428 
L 168.043379 322.131911 
L 168.945207 322.035184 
L 169.486303 321.840441 
L 169.847034 321.742425 
L 170.748862 321.35294 
L 172.191785 322.035184 
L 172.732882 322.131911 
L 173.634709 322.522686 
L 174.175806 322.619412 
L 174.356171 322.717428 
L 174.897268 322.522686 
L 175.438364 322.717428 
L 176.700922 322.619412 
L 176.881288 322.522686 
L 177.422384 322.717428 
L 179.947501 322.619412 
L 180.308232 322.522686 
L 182.111887 322.619412 
L 182.652983 322.815445 
L 183.194079 322.131911 
L 183.374445 321.742425 
L 183.915541 316.087148 
L 184.095907 317.062151 
L 184.276272 318.817415 
L 184.637003 319.889145 
L 184.817369 319.49966 
L 184.997734 318.135171 
L 185.538831 311.50489 
L 185.899562 306.629874 
L 186.079927 302.728571 
L 186.260293 302.728571 
L 186.621023 310.529887 
L 186.981754 312.479894 
L 187.16212 311.50489 
L 187.703216 298.828558 
L 188.424678 266.653449 
L 188.785409 239.352066 
L 188.965775 244.227083 
L 189.506871 232.527043 
L 189.867602 260.802139 
L 190.047968 255.927123 
L 190.408698 234.47705 
L 190.589064 227.652027 
L 190.769429 215.950697 
L 190.949795 214.975694 
L 191.13016 220.825714 
L 191.310526 221.800717 
L 191.490891 225.70202 
L 191.851622 221.800717 
L 192.031988 226.677023 
L 192.392719 253.002113 
L 193.114181 265.678445 
L 193.655277 279.328492 
L 193.835642 279.328492 
L 194.016008 284.203508 
L 194.196373 285.178511 
L 194.73747 294.928545 
L 194.917835 295.903548 
L 195.458932 300.778564 
L 196.000028 303.703574 
L 196.180394 302.728571 
L 196.360759 303.703574 
L 196.541125 306.629874 
L 197.803683 313.454897 
L 198.164414 313.454897 
L 198.344779 314.4299 
L 198.525145 313.454897 
L 198.70551 313.454897 
L 198.885876 314.4299 
L 199.607338 314.4299 
L 199.968069 316.672666 
L 200.869896 318.622672 
L 201.050262 318.622672 
L 201.410992 319.304917 
L 201.591358 318.524656 
L 202.31282 320.181904 
L 202.493185 319.889145 
L 202.673551 318.524656 
L 202.853916 318.817415 
L 203.034282 319.694402 
L 203.395013 319.792418 
L 203.755744 316.867409 
L 203.936109 316.964135 
L 204.29684 319.206901 
L 204.657571 320.27992 
L 204.837937 320.474663 
L 205.018302 319.401643 
L 205.198667 319.110174 
L 205.379033 319.401643 
L 205.739764 320.474663 
L 205.920129 320.669406 
L 206.461226 320.669406 
L 206.821957 321.254923 
L 207.723784 321.742425 
L 208.445246 321.449666 
L 208.986342 321.35294 
L 209.527439 321.156907 
L 210.068535 321.35294 
L 210.429266 321.156907 
L 210.789997 321.35294 
L 210.970363 321.254923 
L 211.150728 321.35294 
L 211.331094 321.254923 
L 211.87219 321.937168 
L 212.232921 322.229927 
L 213.85621 322.327943 
L 214.216941 322.424669 
L 214.938403 322.522686 
L 215.118769 321.840441 
L 215.299134 321.644409 
L 215.4795 321.937168 
L 215.659865 321.840441 
L 215.840231 321.937168 
L 216.020596 321.547682 
L 216.561692 322.035184 
L 217.283154 322.327943 
L 217.46352 321.840441 
L 217.643885 321.840441 
L 217.824251 322.424669 
L 218.004616 321.644409 
L 218.184982 321.937168 
L 218.365347 321.937168 
L 218.726078 322.327943 
L 218.906444 322.327943 
L 219.086809 322.131911 
L 220.169002 322.717428 
L 220.529733 322.131911 
L 220.710098 322.327943 
L 220.890464 322.035184 
L 221.43156 323.010187 
L 221.611926 323.106914 
L 222.153022 322.912171 
L 222.513753 323.20493 
L 222.694119 323.985191 
L 222.874484 322.912171 
L 223.05485 322.815445 
L 223.235215 322.327943 
L 223.41558 322.229927 
L 223.595946 322.327943 
L 224.137042 323.692432 
L 224.497773 322.815445 
L 224.678139 322.619412 
L 225.219235 323.106914 
L 225.579966 323.302946 
L 225.760332 323.20493 
L 225.940697 323.887174 
L 226.121063 323.010187 
L 226.481794 323.497689 
L 226.662159 323.106914 
L 226.842525 323.302946 
L 227.02289 323.010187 
L 227.203255 323.20493 
L 227.383621 323.594416 
L 227.563986 323.20493 
L 227.924717 323.106914 
L 228.105083 323.399673 
L 228.285448 323.106914 
L 228.465814 322.522686 
L 229.187276 323.302946 
L 229.367641 322.815445 
L 229.548007 322.912171 
L 229.728372 322.815445 
L 229.908738 323.010187 
L 230.089103 323.010187 
L 230.269469 323.302946 
L 230.449834 324.081917 
L 230.6302 323.302946 
L 230.810565 323.106914 
L 230.99093 323.692432 
L 231.351661 323.497689 
L 231.532027 323.887174 
L 231.712392 323.497689 
L 231.892758 323.497689 
L 232.073123 323.887174 
L 232.433854 323.399673 
L 232.61422 324.081917 
L 232.794585 323.399673 
L 232.974951 323.399673 
L 233.155316 323.20493 
L 233.335682 323.302946 
L 233.696413 322.522686 
L 234.057144 322.619412 
L 234.237509 322.131911 
L 234.417875 322.815445 
L 234.59824 322.035184 
L 234.958971 322.131911 
L 235.319702 322.229927 
L 235.680433 322.229927 
L 236.041164 321.449666 
L 236.942991 322.327943 
L 237.303722 321.840441 
L 237.484088 322.035184 
L 237.844819 321.840441 
L 238.025184 322.035184 
L 238.205549 321.840441 
L 238.385915 321.254923 
L 238.56628 321.644409 
L 238.927011 320.669406 
L 239.107377 321.449666 
L 239.468108 321.156907 
L 239.828839 321.35294 
L 240.009204 321.060181 
L 240.369935 322.035184 
L 240.550301 321.644409 
L 240.730666 322.035184 
L 240.911032 321.937168 
L 241.091397 322.131911 
L 241.271763 321.547682 
L 241.452128 321.937168 
L 241.812859 321.547682 
L 241.993224 321.156907 
L 242.353955 321.644409 
L 242.895052 320.864148 
L 243.075417 320.962165 
L 243.436148 321.742425 
L 243.616514 322.522686 
L 243.796879 322.424669 
L 244.337976 323.010187 
L 244.879072 321.449666 
L 245.059438 322.035184 
L 245.239803 322.229927 
L 245.420169 322.229927 
L 245.780899 321.742425 
L 245.961265 320.962165 
L 246.321996 317.744396 
L 246.502361 316.476633 
L 246.682727 316.476633 
L 246.863092 315.892405 
L 247.223823 313.454897 
L 247.404189 310.529887 
L 247.76492 312.479894 
L 248.125651 306.629874 
L 248.306016 304.678578 
L 248.486382 305.654871 
L 248.666747 304.678578 
L 249.027478 301.753568 
L 249.388209 305.654871 
L 249.568574 305.654871 
L 249.929305 303.703574 
L 250.109671 305.654871 
L 250.470402 316.672666 
L 250.650767 317.256894 
L 250.831133 314.4299 
L 251.011498 313.454897 
L 251.191864 313.454897 
L 251.372229 314.4299 
L 251.552595 313.454897 
L 251.73296 310.529887 
L 251.913326 309.554884 
L 252.093691 311.50489 
L 252.454422 311.50489 
L 252.634788 309.554884 
L 252.995518 300.778564 
L 253.175884 301.753568 
L 253.356249 304.678578 
L 253.536615 304.678578 
L 253.71698 303.703574 
L 254.077711 303.703574 
L 254.438442 293.953541 
L 254.799173 290.053528 
L 255.159904 283.228505 
L 255.520635 276.403482 
L 255.881366 287.128518 
L 256.061732 290.053528 
L 256.242097 291.028531 
L 256.422463 292.978538 
L 256.602828 292.978538 
L 256.783193 292.003535 
L 256.963559 289.078525 
L 257.32429 280.303495 
L 257.504655 279.328492 
L 257.865386 282.253502 
L 258.045752 283.228505 
L 258.406483 290.053528 
L 259.127945 298.828558 
L 259.488676 303.703574 
L 259.669041 304.678578 
L 260.210138 309.554884 
L 261.111965 314.4299 
L 261.29233 314.4299 
L 261.653061 316.379907 
L 261.833427 316.867409 
L 262.013792 316.964135 
L 262.374523 317.939138 
L 262.91562 319.401643 
L 263.276351 319.49966 
L 263.456716 319.012158 
L 263.997812 320.27992 
L 264.178178 319.304917 
L 265.080005 321.449666 
L 266.162198 322.131911 
L 266.522929 321.449666 
L 266.703295 322.035184 
L 266.88366 322.035184 
L 267.064026 322.229927 
L 267.244391 322.131911 
L 267.424757 321.35294 
L 267.785487 322.327943 
L 268.146218 322.619412 
L 268.687315 322.815445 
L 268.86768 322.424669 
L 269.048046 322.717428 
L 269.228411 321.449666 
L 269.408777 321.742425 
L 269.589142 320.669406 
L 269.769508 321.060181 
L 269.949873 322.131911 
L 270.49097 322.912171 
L 271.573162 323.399673 
L 271.753528 323.399673 
L 272.114259 322.912171 
L 273.376817 323.497689 
L 275.360837 323.399673 
L 275.721568 322.522686 
L 275.901934 322.815445 
L 276.082299 321.937168 
L 276.623396 323.010187 
L 276.803761 323.20493 
L 276.984127 323.106914 
L 277.164492 320.669406 
L 277.525223 322.035184 
L 278.06632 323.010187 
L 278.427051 323.106914 
L 278.607416 321.254923 
L 278.787781 321.937168 
L 278.968147 322.035184 
L 279.148512 321.840441 
L 279.328878 321.937168 
L 279.509243 322.229927 
L 279.689609 322.035184 
L 279.869974 321.449666 
L 280.05034 321.742425 
L 280.230705 321.449666 
L 280.591436 321.937168 
L 280.952167 322.424669 
L 281.132533 322.424669 
L 281.493264 322.815445 
L 282.03436 322.912171 
L 282.575456 323.106914 
L 283.477284 323.010187 
L 283.657649 322.815445 
L 284.01838 322.912171 
L 284.198746 322.522686 
L 284.559477 322.912171 
L 287.62569 322.912171 
L 287.806055 323.106914 
L 287.986421 322.912171 
L 288.527517 323.106914 
L 290.331172 323.20493 
L 290.691903 323.302946 
L 292.675923 323.399673 
L 293.036654 323.497689 
L 294.118847 323.399673 
L 294.299212 323.20493 
L 295.922502 323.106914 
L 296.283233 323.010187 
L 297.726156 322.912171 
L 298.267253 322.717428 
L 298.627984 322.717428 
L 298.808349 322.522686 
L 299.16908 322.619412 
L 301.333466 322.522686 
L 301.694197 322.424669 
L 302.596024 322.327943 
L 302.956755 322.229927 
L 303.137121 322.229927 
L 303.317486 322.035184 
L 304.038948 321.937168 
L 304.399679 321.840441 
L 307.105161 321.937168 
L 307.465892 322.035184 
L 307.826623 321.937168 
L 308.548085 321.840441 
L 308.72845 320.962165 
L 308.908816 320.962165 
L 309.089181 320.572679 
L 309.449912 319.49966 
L 309.810643 320.474663 
L 310.171374 320.572679 
L 310.35174 320.181904 
L 310.712471 320.181904 
L 310.892836 319.597676 
L 311.253567 320.085177 
L 311.433933 320.085177 
L 311.614298 320.474663 
L 311.794664 321.156907 
L 311.975029 321.254923 
L 312.155394 320.962165 
L 312.33576 320.962165 
L 312.696491 319.206901 
L 313.057222 318.524656 
L 313.417953 319.694402 
L 313.598318 319.694402 
L 314.139415 319.206901 
L 315.041242 315.989132 
L 315.221608 315.989132 
L 315.401973 316.379907 
L 315.762704 317.451637 
L 316.123435 317.160168 
L 316.664531 315.404904 
L 316.844897 315.404904 
L 317.025262 315.697663 
L 317.566359 311.50489 
L 317.746724 311.50489 
L 317.92709 312.479894 
L 318.107455 312.479894 
L 318.287821 310.529887 
L 318.468186 311.50489 
L 318.648552 311.50489 
L 319.009283 313.454897 
L 319.189648 313.454897 
L 319.550379 315.404904 
L 319.730744 315.404904 
L 319.91111 314.4299 
L 320.091475 312.479894 
L 320.632572 288.103521 
L 320.812937 288.103521 
L 320.993303 283.228505 
L 321.173668 283.228505 
L 321.354034 276.403482 
L 321.534399 258.852133 
L 321.89513 210.100678 
L 322.075496 203.275654 
L 322.255861 203.275654 
L 322.796958 126.247814 
L 322.977323 125.272811 
L 323.157688 128.197821 
L 323.338054 57.02 
L 323.698785 139.89786 
L 324.059516 187.675602 
L 324.420247 212.050684 
L 324.600612 222.775721 
L 324.780978 222.775721 
L 324.961343 221.800717 
L 325.50244 231.55204 
L 326.043536 244.227083 
L 326.404267 255.927123 
L 326.584633 256.902126 
L 326.764998 255.927123 
L 327.125729 271.528465 
L 328.027556 289.078525 
L 329.831211 307.604877 
L 330.733038 312.479894 
L 330.913404 312.479894 
L 331.274135 314.4299 
L 331.4545 313.454897 
L 331.815231 315.404904 
L 331.995597 315.697663 
L 332.356328 316.57465 
L 332.536693 316.185164 
L 332.717059 317.35491 
L 333.07779 317.842412 
L 333.258155 317.451637 
L 333.438521 317.35491 
L 333.618886 318.037155 
L 333.799252 317.842412 
L 333.979617 317.939138 
L 334.340348 318.914142 
L 334.701079 319.304917 
L 334.881444 317.939138 
L 335.06181 318.719399 
L 336.865465 320.767422 
L 337.04583 320.085177 
L 337.226196 318.524656 
L 337.406561 315.599646 
L 337.586927 319.206901 
L 337.947657 320.572679 
L 338.128023 320.669406 
L 338.308388 320.572679 
L 338.488754 320.669406 
L 338.669119 320.27992 
L 339.02985 321.060181 
L 339.210216 320.864148 
L 339.390581 321.35294 
L 339.570947 320.864148 
L 339.751312 321.060181 
L 340.112043 321.644409 
L 340.472774 321.742425 
L 340.65314 321.937168 
L 341.013871 319.694402 
L 341.194236 320.376647 
L 341.554967 317.451637 
L 342.276429 320.669406 
L 342.817525 321.644409 
L 342.997891 321.547682 
L 343.538987 322.035184 
L 343.719353 322.131911 
L 343.899718 321.937168 
L 344.080084 322.229927 
L 344.260449 322.131911 
L 344.62118 322.619412 
L 344.981911 322.619412 
L 345.162277 322.229927 
L 345.342642 322.619412 
L 345.703373 322.522686 
L 345.883738 322.717428 
L 346.244469 322.619412 
L 346.785566 322.815445 
L 346.965931 322.619412 
L 347.146297 321.449666 
L 347.326662 322.424669 
L 347.507028 322.717428 
L 347.687393 322.327943 
L 348.048124 322.815445 
L 349.491048 322.912171 
L 349.671413 323.20493 
L 349.851779 322.815445 
L 350.21251 322.912171 
L 351.114337 322.815445 
L 351.294703 322.424669 
L 351.475068 322.717428 
L 351.655434 322.424669 
L 352.557261 322.327943 
L 352.737626 322.229927 
L 352.917992 322.424669 
L 353.098357 322.131911 
L 355.082378 322.229927 
L 355.443109 322.327943 
L 356.344936 322.229927 
L 356.525301 322.131911 
L 356.886032 322.229927 
L 359.230784 322.327943 
L 359.77188 322.522686 
L 362.116631 322.424669 
L 363.018459 321.840441 
L 363.37919 321.547682 
L 363.559555 321.547682 
L 363.920286 321.254923 
L 364.822113 320.864148 
L 365.36321 320.962165 
L 365.543575 321.156907 
L 366.265037 321.254923 
L 366.806134 321.449666 
L 367.707961 321.547682 
L 368.068692 321.644409 
L 368.249057 321.449666 
L 368.429423 321.742425 
L 368.790154 321.644409 
L 369.33125 321.742425 
L 369.511616 322.035184 
L 369.691981 321.840441 
L 370.413443 321.937168 
L 370.593809 322.229927 
L 370.774174 321.937168 
L 370.95454 322.131911 
L 372.397463 322.035184 
L 373.660022 321.449666 
L 373.840387 321.449666 
L 374.381484 320.962165 
L 375.283311 320.376647 
L 376.004773 319.597676 
L 376.545869 317.842412 
L 376.726235 318.037155 
L 377.086966 317.549653 
L 377.267331 317.451637 
L 377.447697 317.744396 
L 377.628062 318.42664 
L 377.808428 318.037155 
L 378.169159 318.231897 
L 378.529889 316.867409 
L 378.89062 317.35491 
L 379.070986 316.672666 
L 379.251351 316.867409 
L 379.612082 316.087148 
L 379.792448 316.281891 
L 380.153179 317.744396 
L 380.333544 317.939138 
L 380.51391 317.744396 
L 381.235372 314.4299 
L 381.415737 314.4299 
L 381.776468 316.087148 
L 381.956834 316.087148 
L 382.317564 317.160168 
L 382.49793 317.549653 
L 382.858661 317.256894 
L 383.399757 313.454897 
L 383.580123 313.454897 
L 383.760488 314.4299 
L 384.121219 309.554884 
L 384.48195 302.728571 
L 385.023047 288.103521 
L 385.203412 287.128518 
L 385.564143 280.303495 
L 385.744509 283.228505 
L 386.105239 292.978538 
L 386.285605 295.903548 
L 386.46597 294.928545 
L 386.646336 292.978538 
L 386.826701 288.103521 
L 387.187432 271.528465 
L 387.367798 269.578459 
L 388.08926 276.403482 
L 388.449991 278.353488 
L 388.630356 277.378485 
L 388.810722 277.378485 
L 389.532183 285.178511 
L 389.712549 284.203508 
L 390.07328 284.203508 
L 390.434011 281.278498 
L 390.794742 283.228505 
L 391.155473 287.128518 
L 391.516204 293.953541 
L 392.0573 298.828558 
L 392.418031 300.778564 
L 392.778762 303.703574 
L 392.959128 300.778564 
L 393.319858 305.654871 
L 394.221686 310.529887 
L 394.402051 310.529887 
L 394.582417 308.57988 
L 394.762782 309.554884 
L 394.943148 312.479894 
L 395.303879 314.4299 
L 395.66461 314.4299 
L 395.844975 315.50163 
L 396.025341 315.892405 
L 396.386072 316.964135 
L 396.927168 317.939138 
L 397.107533 318.037155 
L 397.287899 315.989132 
L 397.64863 315.50163 
L 398.009361 317.35491 
L 398.189726 316.672666 
L 398.550457 318.524656 
L 398.730823 318.914142 
L 398.911188 318.719399 
L 399.271919 319.49966 
L 400.173747 320.085177 
L 400.534478 320.572679 
L 401.436305 321.156907 
L 402.157767 321.840441 
L 402.518498 321.937168 
L 403.059594 322.229927 
L 403.23996 322.131911 
L 403.420325 321.449666 
L 403.600691 318.914142 
L 403.961422 321.156907 
L 404.502518 321.742425 
L 404.682883 321.35294 
L 404.863249 322.035184 
L 405.765076 322.522686 
L 405.945442 322.327943 
L 406.306173 322.522686 
L 406.486538 322.131911 
L 406.666904 321.35294 
L 406.847269 321.547682 
L 407.208 322.229927 
L 407.568731 322.327943 
L 407.929462 322.424669 
L 408.831289 322.815445 
L 409.011655 322.815445 
L 409.372386 322.131911 
L 409.552751 321.35294 
L 409.733117 321.156907 
L 410.274213 321.156907 
L 410.81531 321.840441 
L 410.995675 321.742425 
L 411.356406 320.085177 
L 411.536772 321.060181 
L 411.897502 321.547682 
L 412.077868 321.35294 
L 412.258233 319.889145 
L 412.618964 320.376647 
L 412.979695 321.156907 
L 413.340426 321.644409 
L 413.520792 321.156907 
L 414.061888 321.644409 
L 414.242254 321.742425 
L 414.422619 321.547682 
L 414.78335 321.644409 
L 415.144081 321.742425 
L 415.504812 321.644409 
L 415.865543 321.644409 
L 416.226274 321.937168 
L 417.849563 322.717428 
L 418.210294 322.815445 
L 419.112121 323.20493 
L 427.228568 323.106914 
L 427.589299 323.010187 
L 428.671492 322.912171 
L 429.032223 322.815445 
L 430.114416 322.717428 
L 430.475146 322.619412 
L 431.196608 322.522686 
L 431.557339 322.424669 
L 432.098436 322.327943 
L 432.639532 322.131911 
L 433.360994 322.035184 
L 433.90209 321.840441 
L 434.623552 321.742425 
L 435.164649 321.547682 
L 435.345014 321.547682 
L 435.52538 321.35294 
L 435.705745 321.35294 
L 435.886111 321.156907 
L 436.066476 321.742425 
L 436.246842 321.547682 
L 436.427207 321.060181 
L 436.607573 321.156907 
L 436.968304 321.060181 
L 437.5094 321.156907 
L 437.689765 321.742425 
L 437.870131 321.742425 
L 438.050496 321.156907 
L 438.411227 322.131911 
L 438.952324 322.229927 
L 439.313055 321.449666 
L 440.034517 321.449666 
L 440.214882 322.131911 
L 440.395248 322.131911 
L 440.755979 321.060181 
L 441.11671 321.840441 
L 441.297075 321.060181 
L 441.657806 320.962165 
L 441.838171 321.547682 
L 442.379268 321.547682 
L 442.739999 321.156907 
L 444.182923 321.060181 
L 444.543654 320.962165 
L 445.08475 320.962165 
L 445.445481 320.181904 
L 445.625846 320.767422 
L 445.806212 320.962165 
L 446.166943 320.864148 
L 446.347308 320.27992 
L 447.429501 313.454897 
L 447.609867 313.454897 
L 447.970598 315.404904 
L 448.331329 311.50489 
L 448.692059 314.4299 
L 448.872425 315.404904 
L 449.05279 315.697663 
L 449.413521 316.964135 
L 449.774252 317.160168 
L 450.315349 315.404904 
L 450.67608 313.454897 
L 450.856445 314.4299 
L 451.036811 313.454897 
L 451.217176 310.529887 
L 451.397542 310.529887 
L 451.577907 312.479894 
L 451.938638 310.529887 
L 452.119004 306.629874 
L 452.299369 299.803561 
L 452.6601 295.903548 
L 453.020831 266.653449 
L 453.561927 192.550618 
L 453.742293 188.650605 
L 454.103024 192.550618 
L 454.824486 222.775721 
L 455.004851 225.70202 
L 455.365582 235.452053 
L 455.545948 235.452053 
L 455.906679 240.32707 
L 456.808506 251.052106 
L 456.988871 258.852133 
L 457.349602 263.727149 
L 457.529968 266.653449 
L 457.890699 261.777142 
L 458.25143 254.952119 
L 458.431795 253.977116 
L 458.612161 254.952119 
L 458.792526 256.902126 
L 459.153257 263.727149 
L 459.333623 266.653449 
L 459.513988 267.628452 
L 460.055084 281.278498 
L 460.23545 281.278498 
L 460.596181 289.078525 
L 461.137277 296.878551 
L 462.039105 305.654871 
L 462.21947 306.629874 
L 462.580201 309.554884 
L 463.301663 313.454897 
L 463.482028 313.454897 
L 463.842759 315.404904 
L 464.564221 316.57465 
L 464.924952 315.404904 
L 465.646414 317.939138 
L 466.007145 318.231897 
L 466.367876 316.964135 
L 466.548242 316.964135 
L 466.728607 315.404904 
L 467.089338 318.037155 
L 467.450069 319.206901 
L 467.630434 319.206901 
L 467.991165 318.719399 
L 468.351896 319.889145 
L 468.712627 320.376647 
L 468.892993 320.181904 
L 469.073358 320.27992 
L 469.253724 320.181904 
L 469.614455 320.669406 
L 469.79482 320.085177 
L 469.975186 320.572679 
L 470.155551 320.669406 
L 470.335917 320.962165 
L 470.516282 320.767422 
L 470.696648 320.864148 
L 470.877013 321.254923 
L 471.057378 321.35294 
L 471.418109 321.742425 
L 471.598475 321.35294 
L 471.959206 322.035184 
L 473.041399 322.035184 
L 473.221764 321.254923 
L 473.40213 321.840441 
L 473.943226 322.327943 
L 474.845053 322.424669 
L 475.205784 322.522686 
L 475.38615 322.131911 
L 475.566515 320.181904 
L 475.746881 321.742425 
L 476.107612 322.035184 
L 476.287977 322.131911 
L 476.468343 319.206901 
L 476.648708 314.4299 
L 476.829074 319.012158 
L 477.189805 320.669406 
L 477.730901 321.644409 
L 477.911267 320.962165 
L 478.091632 320.962165 
L 478.452363 321.840441 
L 478.813094 319.304917 
L 478.993459 320.376647 
L 479.173825 320.669406 
L 479.35419 320.669406 
L 479.714921 320.27992 
L 480.075652 320.572679 
L 480.256018 320.669406 
L 480.436383 319.401643 
L 480.616749 319.012158 
L 481.338211 320.767422 
L 481.879307 321.449666 
L 482.059672 321.449666 
L 482.240038 321.060181 
L 482.600769 321.156907 
L 482.781134 320.864148 
L 483.141865 321.254923 
L 483.502596 321.742425 
L 483.682962 320.474663 
L 484.043693 321.060181 
L 484.765155 321.060181 
L 484.94552 320.669406 
L 485.306251 321.060181 
L 485.666982 320.669406 
L 485.847347 321.060181 
L 486.027713 320.962165 
L 486.208078 321.254923 
L 488.913561 321.35294 
L 489.274291 321.449666 
L 491.619043 321.547682 
L 492.160139 321.742425 
L 495.406718 321.840441 
L 495.767449 321.937168 
L 499.194393 322.035184 
L 499.555124 322.131911 
L 501.719509 322.229927 
L 501.899875 322.327943 
L 502.260606 322.717428 
L 502.440971 322.522686 
L 502.982068 323.010187 
L 503.70353 323.302946 
L 503.883895 323.106914 
L 504.244626 323.010187 
L 504.424991 322.619412 
L 504.605357 322.912171 
L 504.966088 322.327943 
L 505.146453 322.327943 
L 505.507184 321.840441 
L 505.867915 322.035184 
L 506.228646 322.619412 
L 506.409012 322.912171 
L 507.130474 323.010187 
L 507.310839 322.717428 
L 507.851935 322.717428 
L 508.212666 323.010187 
L 508.573397 323.106914 
L 508.934128 322.619412 
L 509.114494 323.010187 
L 509.294859 322.424669 
L 509.475225 322.327943 
L 509.65559 321.644409 
L 509.835956 321.937168 
L 510.016321 321.644409 
L 510.377052 321.644409 
L 510.737783 320.376647 
L 510.918149 320.181904 
L 511.098514 321.060181 
L 511.27888 321.060181 
L 511.819976 317.062151 
L 512.000341 316.964135 
L 512.541438 307.604877 
L 512.721803 311.50489 
L 513.082534 308.57988 
L 513.443265 313.454897 
L 513.803996 308.57988 
L 514.164727 298.828558 
L 514.345093 304.678578 
L 514.525458 305.654871 
L 514.886189 293.953541 
L 515.066555 300.778564 
L 515.24692 301.753568 
L 515.427285 301.753568 
L 515.607651 300.778564 
L 515.968382 297.853554 
L 516.148747 297.853554 
L 516.509478 295.903548 
L 516.689844 295.903548 
L 517.050575 297.853554 
L 517.23094 297.853554 
L 517.411306 293.953541 
L 517.772037 281.278498 
L 518.132768 248.127096 
L 518.854229 188.650605 
L 519.21496 171.099256 
L 519.395326 172.074259 
L 519.575691 181.824292 
L 519.936422 160.374219 
L 520.116788 163.299229 
L 520.657884 212.050684 
L 521.018615 205.225661 
L 521.198981 207.175668 
L 521.379346 201.325648 
L 521.559712 202.300651 
L 521.740077 201.325648 
L 521.920443 193.525621 
L 522.100808 193.525621 
L 522.281174 195.475628 
L 522.461539 204.250658 
L 522.82227 227.652027 
L 523.183001 249.1021 
L 523.363366 252.027109 
L 523.724097 269.578459 
L 524.445559 286.153515 
L 525.167021 296.878551 
L 525.347387 297.853554 
L 526.068849 304.678578 
L 526.79031 308.57988 
L 526.970676 308.57988 
L 527.151041 309.554884 
L 527.331407 308.57988 
L 527.511772 310.529887 
L 527.692138 309.554884 
L 528.052869 309.554884 
L 528.4136 312.479894 
L 528.593965 313.454897 
L 528.774331 313.454897 
L 529.135062 315.404904 
L 529.315427 314.4299 
L 529.495793 315.404904 
L 529.856523 313.454897 
L 530.39762 316.087148 
L 530.577985 316.281891 
L 530.758351 315.50163 
L 530.938716 313.454897 
L 531.299447 316.185164 
L 531.660178 317.451637 
L 532.020909 316.379907 
L 532.38164 318.037155 
L 532.742371 318.622672 
L 532.922737 318.524656 
L 533.103102 318.719399 
L 533.644198 320.27992 
L 534.185295 320.572679 
L 534.546026 321.254923 
L 534.726391 320.376647 
L 534.906757 321.254923 
L 535.087122 320.572679 
L 535.267488 320.767422 
L 535.447853 321.254923 
L 535.628219 321.35294 
L 535.808584 321.254923 
L 536.349681 321.644409 
L 536.530046 321.254923 
L 536.890777 321.547682 
L 537.251508 322.035184 
L 537.431873 322.035184 
L 537.612239 322.229927 
L 537.792604 322.131911 
L 538.514066 322.424669 
L 538.694432 322.035184 
L 539.055163 320.572679 
L 539.235528 321.547682 
L 539.596259 322.035184 
L 539.95699 322.229927 
L 540.317721 321.449666 
L 540.858818 321.937168 
L 541.039183 322.035184 
L 541.399914 319.987161 
L 541.580279 320.27992 
L 541.760645 320.27992 
L 541.94101 320.085177 
L 542.662472 319.987161 
L 543.203569 320.767422 
L 543.383934 320.181904 
L 543.744665 320.572679 
L 544.285762 320.962165 
L 544.466127 321.156907 
L 544.646492 320.962165 
L 545.187589 321.254923 
L 545.54832 320.669406 
L 545.728685 320.864148 
L 545.909051 320.181904 
L 546.089416 320.474663 
L 546.450147 320.572679 
L 546.630513 319.987161 
L 546.991244 319.694402 
L 547.171609 319.401643 
L 547.53234 320.962165 
L 548.253802 320.962165 
L 548.794898 321.449666 
L 548.975264 321.449666 
L 549.155629 321.742425 
L 549.335995 321.742425 
L 549.51636 321.937168 
L 550.057457 321.449666 
L 550.237822 321.644409 
L 550.778919 321.644409 
L 551.320015 321.060181 
L 551.500381 321.156907 
L 551.680746 321.060181 
L 552.402208 321.742425 
L 553.664766 322.424669 
L 553.845132 322.717428 
L 554.025497 322.229927 
L 554.566594 322.424669 
L 556.009517 322.522686 
L 556.189883 322.619412 
L 556.550614 322.327943 
L 556.730979 322.327943 
L 557.09171 322.619412 
L 557.632807 323.010187 
L 557.813172 323.20493 
L 557.993538 322.815445 
L 558.534634 322.424669 
L 559.075731 323.106914 
L 559.977558 323.497689 
L 560.338289 323.106914 
L 561.059751 321.449666 
L 565.027791 321.35294 
L 565.568888 321.156907 
L 567.192177 321.060181 
L 567.733273 320.864148 
L 568.094004 320.767422 
L 568.454735 320.669406 
L 568.635101 320.669406 
L 568.995832 320.962165 
L 569.356563 320.767422 
L 569.717294 321.060181 
L 569.897659 320.864148 
L 570.25839 321.156907 
L 570.438756 320.962165 
L 570.619121 321.156907 
L 570.799486 320.962165 
L 570.979852 321.156907 
L 571.160217 321.156907 
L 571.340583 320.864148 
L 571.881679 321.060181 
L 572.062045 320.864148 
L 572.422776 320.864148 
L 572.783507 320.27992 
L 572.963872 320.376647 
L 573.144238 320.27992 
L 573.324603 319.889145 
L 574.587161 319.889145 
L 575.128258 319.206901 
L 575.488989 319.49966 
L 575.669354 319.49966 
L 576.030085 320.181904 
L 576.210451 319.987161 
L 576.390816 319.597676 
L 576.571182 318.914142 
L 576.931913 319.012158 
L 577.112278 319.012158 
L 577.292644 318.817415 
L 577.473009 318.135171 
L 577.653375 319.206901 
L 578.194471 319.987161 
L 578.735567 318.231897 
L 578.915933 318.037155 
L 579.276664 316.57465 
L 579.457029 316.087148 
L 579.637395 316.476633 
L 579.998126 315.794389 
L 580.178491 316.476633 
L 580.358857 316.57465 
L 580.539222 315.404904 
L 580.899953 305.654871 
L 581.080319 298.828558 
L 581.44105 296.878551 
L 581.80178 291.028531 
L 582.162511 300.778564 
L 582.342877 303.703574 
L 582.523242 304.678578 
L 582.703608 301.753568 
L 582.883973 295.903548 
L 583.42507 266.653449 
L 583.605435 243.25208 
L 583.966166 229.602033 
L 584.326897 235.452053 
L 584.687628 220.825714 
L 584.867994 224.725727 
L 585.048359 234.47705 
L 585.40909 266.653449 
L 585.589455 273.478472 
L 585.769821 273.478472 
L 586.310917 253.977116 
L 586.491283 260.802139 
L 586.671648 262.752146 
L 586.852014 259.827136 
L 587.032379 259.827136 
L 587.212745 257.877129 
L 587.39311 264.702152 
L 587.753841 255.927123 
L 587.934207 269.578459 
L 588.114572 272.503469 
L 588.655669 255.927123 
L 589.016399 264.702152 
L 589.196765 264.702152 
L 589.737861 267.628452 
L 589.918227 270.553462 
L 590.459323 282.253502 
L 591.00042 292.003535 
L 591.361151 296.878551 
L 592.623709 309.554884 
L 592.804074 310.529887 
L 592.98444 310.529887 
L 593.345171 312.479894 
L 593.525536 312.479894 
L 593.705902 313.454897 
L 593.886267 313.454897 
L 594.066633 314.4299 
L 594.246998 314.4299 
L 594.607729 315.892405 
L 594.788095 316.281891 
L 595.329191 316.57465 
L 595.689922 316.281891 
L 595.870288 316.281891 
L 596.231019 317.744396 
L 596.411384 317.939138 
L 596.591749 317.842412 
L 596.772115 318.135171 
L 596.95248 317.256894 
L 597.132846 317.160168 
L 597.493577 318.719399 
L 597.854308 319.401643 
L 598.034673 318.914142 
L 598.215039 316.964135 
L 598.395404 318.719399 
L 598.57577 318.037155 
L 598.756135 315.697663 
L 599.116866 318.329914 
L 599.477597 319.694402 
L 599.838328 320.181904 
L 600.379424 320.376647 
L 600.740155 319.889145 
L 600.920521 320.27992 
L 601.100886 320.085177 
L 601.461617 320.962165 
L 601.822348 321.254923 
L 602.002714 319.49966 
L 602.183079 320.962165 
L 602.363445 321.156907 
L 602.54381 320.767422 
L 602.724176 319.597676 
L 602.904541 320.864148 
L 603.445638 321.35294 
L 603.806368 321.449666 
L 604.167099 321.449666 
L 604.347465 320.962165 
L 604.52783 321.547682 
L 604.708196 321.742425 
L 605.249292 321.840441 
L 605.790389 322.035184 
L 606.15112 321.547682 
L 606.331485 316.379907 
L 606.511851 320.181904 
L 606.872582 321.547682 
L 607.233313 321.937168 
L 607.413678 321.840441 
L 607.594043 321.449666 
L 607.954774 322.035184 
L 608.495871 322.229927 
L 608.676236 321.937168 
L 608.856602 322.035184 
L 609.036967 321.35294 
L 609.397698 322.035184 
L 609.758429 322.229927 
L 609.938795 322.131911 
L 610.840622 322.522686 
L 611.020988 322.522686 
L 611.201353 321.644409 
L 611.381718 321.840441 
L 611.562084 321.840441 
L 611.742449 321.547682 
L 611.922815 321.644409 
L 612.10318 321.254923 
L 612.463911 321.35294 
L 612.644277 321.547682 
L 613.72647 321.644409 
L 614.087201 321.742425 
L 614.267566 321.644409 
L 614.628297 322.035184 
L 614.989028 321.254923 
L 615.890855 322.131911 
L 616.071221 322.131911 
L 616.431952 322.522686 
L 616.612317 322.424669 
L 616.792683 322.619412 
L 617.153414 322.522686 
L 618.055241 322.424669 
L 618.415972 322.327943 
L 619.498165 322.229927 
L 619.858896 322.131911 
L 621.662551 322.035184 
L 622.023282 321.937168 
L 622.925109 321.840441 
L 623.826936 321.449666 
L 624.187667 321.35294 
L 624.548398 321.254923 
L 625.089495 321.156907 
L 625.450226 320.864148 
L 625.810957 320.767422 
L 626.171687 320.767422 
L 626.532418 320.474663 
L 626.893149 320.572679 
L 627.25388 320.474663 
L 627.614611 320.474663 
L 627.794977 320.27992 
L 627.975342 320.27992 
L 628.155708 320.474663 
L 628.336073 320.474663 
L 628.516439 320.27992 
L 628.696804 320.474663 
L 631.943383 320.376647 
L 632.304114 320.27992 
L 635.731058 320.181904 
L 636.091789 320.085177 
L 636.813251 319.987161 
L 637.354347 319.792418 
L 637.895443 319.694402 
L 638.256174 319.597676 
L 638.977636 319.49966 
L 639.338367 319.401643 
L 639.879464 319.304917 
L 640.42056 319.110174 
L 640.961656 319.012158 
L 641.322387 318.914142 
L 641.863484 318.817415 
L 642.945677 318.329914 
L 643.847504 318.231897 
L 644.568966 317.939138 
L 644.929697 317.842412 
L 645.470793 317.451637 
L 645.651159 316.476633 
L 645.831524 314.4299 
L 646.01189 314.4299 
L 646.372621 317.549653 
L 646.552986 317.549653 
L 647.094083 310.529887 
L 647.274448 311.50489 
L 647.454814 315.404904 
L 647.635179 316.185164 
L 647.815545 316.379907 
L 647.99591 315.404904 
L 648.537006 307.604877 
L 648.717372 311.50489 
L 648.897737 312.479894 
L 649.078103 312.479894 
L 649.258468 310.529887 
L 649.438834 310.529887 
L 649.799565 313.454897 
L 649.97993 313.454897 
L 650.160296 308.57988 
L 650.521027 286.153515 
L 650.881758 258.852133 
L 651.062123 266.653449 
L 651.242489 286.153515 
L 651.422854 291.028531 
L 651.60322 288.103521 
L 651.783585 281.278498 
L 651.96395 262.752146 
L 652.144316 228.62703 
L 652.324681 219.850711 
L 652.505047 218.875707 
L 652.685412 214.000691 
L 653.226509 167.199243 
L 653.406874 179.874285 
L 653.767605 214.000691 
L 653.947971 195.475628 
L 654.128336 192.550618 
L 654.308702 209.125674 
L 654.489067 198.400638 
L 654.669433 198.400638 
L 655.030164 233.502047 
L 655.57126 203.275654 
L 656.112356 172.074259 
L 656.292722 177.924279 
L 656.653453 193.525621 
L 657.735646 230.577037 
L 658.096377 238.377063 
L 658.276742 240.32707 
L 658.637473 260.802139 
L 659.719666 287.128518 
L 660.260762 297.853554 
L 660.441128 298.828558 
L 660.982224 304.678578 
L 661.16259 304.678578 
L 661.342955 305.654871 
L 661.703686 308.57988 
L 661.884052 304.678578 
L 662.064417 307.604877 
L 662.785879 311.50489 
L 662.966244 311.50489 
L 663.326975 313.454897 
L 663.507341 313.454897 
L 663.868072 315.404904 
L 664.048437 315.50163 
L 664.769899 316.476633 
L 665.310996 315.794389 
L 665.671727 316.185164 
L 666.032458 318.037155 
L 666.393189 318.622672 
L 666.573554 314.4299 
L 666.753919 313.454897 
L 667.11465 317.842412 
L 667.475381 319.110174 
L 667.836112 319.694402 
L 668.016478 319.889145 
L 668.377209 319.792418 
L 668.73794 320.474663 
L 669.098671 320.864148 
L 669.459402 320.572679 
L 670.000498 321.254923 
L 670.361229 321.547682 
L 670.902325 321.840441 
L 671.082691 321.35294 
L 671.263056 320.27992 
L 671.443422 316.769392 
L 671.623787 316.57465 
L 671.804153 316.867409 
L 671.984518 318.329914 
L 672.164884 321.156907 
L 672.345249 321.644409 
L 672.70598 321.547682 
L 672.886346 321.644409 
L 673.066711 321.449666 
L 673.427442 322.035184 
L 674.148904 322.327943 
L 674.329269 322.229927 
L 674.69 322.327943 
L 674.69 322.327943 
" clip-path="url(#p44b49424f8)" style="fill: none; stroke: #1f77b4; stroke-width: 1.5; stroke-linecap: square"/>
   </g>
   <g id="line2d_17">
    <path d="M 82.009048 320.474663 
L 82.550144 321.110222 
L 82.73051 321.535139 
L 82.910875 321.388464 
L 83.09124 321.903267 
L 83.271606 321.682758 
L 83.812702 322.155179 
L 84.534164 322.835623 
L 84.71453 323.089757 
L 85.435992 323.300794 
L 86.69855 323.749339 
L 87.059281 324.419609 
L 87.420012 324.343994 
L 89.764763 324.250166 
L 90.125494 324.220598 
L 90.846956 324.722033 
L 93.372073 324.409462 
L 96.979382 324.247054 
L 104.735098 324.184707 
L 118.262508 324.252808 
L 118.442874 323.689542 
L 118.623239 319.213113 
L 118.803605 304.735406 
L 118.98397 303.084398 
L 119.164336 306.064347 
L 119.525067 308.232134 
L 119.705432 305.233192 
L 120.066163 286.244915 
L 120.246528 286.49573 
L 120.426894 290.478439 
L 120.607259 290.175952 
L 121.328721 261.395655 
L 121.509087 259.596237 
L 121.869818 267.834979 
L 122.230549 263.47935 
L 122.59128 271.901957 
L 122.771645 274.596869 
L 122.952011 270.891353 
L 123.132376 262.869608 
L 123.312742 263.021715 
L 123.673472 271.6129 
L 124.034203 273.391473 
L 124.394934 260.041807 
L 124.755665 248.498608 
L 125.116396 256.478447 
L 125.296762 252.19036 
L 125.657493 230.137142 
L 125.837858 227.257947 
L 126.378955 235.744612 
L 128.723706 283.519741 
L 129.264802 290.045988 
L 129.986264 299.219137 
L 130.707726 305.83753 
L 131.789919 311.972574 
L 132.691746 315.883015 
L 133.052477 317.306488 
L 134.315036 321.508492 
L 136.479421 323.267403 
L 137.020518 323.519842 
L 137.561614 323.96782 
L 138.283076 323.987934 
L 138.643807 324.344571 
L 139.184903 325.188116 
L 139.906365 325.888306 
L 140.086731 326.32298 
L 140.447462 326.67146 
L 141.349289 327.830495 
L 142.251116 328.444769 
L 142.431482 328.62 
L 142.611847 328.545384 
L 143.152944 327.963703 
L 143.874406 328.496318 
L 144.235137 328.098872 
L 145.136964 327.035039 
L 145.497695 327.063987 
L 145.678061 327.132283 
L 145.858426 327.036109 
L 146.219157 324.591424 
L 146.579888 325.849095 
L 146.760253 325.932303 
L 147.120984 325.658202 
L 148.203177 325.527514 
L 148.744274 326.223298 
L 149.646101 325.679838 
L 151.630121 324.932944 
L 151.810487 325.047759 
L 152.171218 325.601103 
L 152.351583 325.556593 
L 152.531949 325.393563 
L 153.073045 325.957797 
L 153.433776 325.685797 
L 154.515969 325.218772 
L 156.139258 324.777286 
L 158.123278 324.483691 
L 161.189491 324.28675 
L 166.780821 324.195818 
L 185.1781 324.063949 
L 185.358465 323.934013 
L 186.440658 295.623167 
L 186.801389 300.508163 
L 187.522851 305.558962 
L 188.244313 289.385246 
L 188.785409 259.544046 
L 188.965775 254.914811 
L 189.506871 252.335915 
L 190.047968 265.016089 
L 190.228333 265.490923 
L 190.408698 263.903426 
L 190.589064 261.211946 
L 191.13016 248.179151 
L 191.310526 248.898096 
L 191.671257 254.338114 
L 191.851622 252.837344 
L 192.212353 243.466223 
L 192.392719 246.200011 
L 192.75345 254.620831 
L 193.114181 253.663251 
L 193.655277 257.801109 
L 193.835642 260.464185 
L 194.557104 275.89802 
L 196.180394 296.287693 
L 196.360759 297.467433 
L 196.901856 303.362043 
L 197.984048 309.936714 
L 199.066241 316.240118 
L 199.246607 316.550239 
L 199.787703 319.275065 
L 200.689531 320.702357 
L 201.410992 321.757197 
L 201.952089 322.960979 
L 202.31282 323.067386 
L 202.673551 323.73667 
L 203.214647 324.739689 
L 203.755744 325.653902 
L 204.29684 326.600379 
L 204.477206 326.703516 
L 204.837937 326.598603 
L 205.559398 327.201324 
L 205.920129 326.902185 
L 206.28086 327.056108 
L 206.641591 327.444059 
L 207.90415 326.55103 
L 208.264881 326.695602 
L 208.625611 326.495671 
L 209.166708 326.345237 
L 209.347073 326.006692 
L 209.707804 326.656789 
L 209.88817 326.258026 
L 210.248901 326.375364 
L 210.609632 326.595197 
L 211.150728 327.015903 
L 211.331094 327.202934 
L 213.495479 325.633934 
L 214.397307 325.390792 
L 214.938403 325.270837 
L 215.299134 325.640888 
L 215.659865 325.391369 
L 216.922423 324.968909 
L 217.102789 324.904937 
L 217.46352 325.209408 
L 217.824251 325.591719 
L 218.545713 325.262 
L 219.086809 325.196541 
L 219.44754 325.322456 
L 219.988636 325.192094 
L 220.169002 324.742029 
L 220.529733 319.945473 
L 220.710098 320.921443 
L 221.070829 321.208503 
L 222.153022 322.121729 
L 223.235215 322.756495 
L 224.497773 323.25421 
L 226.121063 323.647556 
L 228.285448 323.925336 
L 231.532027 324.095738 
L 238.205549 324.171275 
L 249.027478 324.302668 
L 249.207843 323.858667 
L 249.388209 323.782769 
L 249.568574 324.187595 
L 249.74894 324.110904 
L 250.290036 324.71965 
L 250.831133 324.624277 
L 251.191864 320.824175 
L 251.552595 322.03241 
L 251.73296 322.089805 
L 251.913326 319.858083 
L 252.093691 320.246333 
L 252.274057 320.914904 
L 252.454422 321.044921 
L 252.815153 321.646291 
L 252.995518 320.156927 
L 253.175884 316.611324 
L 253.356249 316.980741 
L 253.71698 318.4942 
L 253.897346 317.550009 
L 254.077711 318.0429 
L 254.258077 319.013448 
L 254.438442 317.761446 
L 254.799173 311.298642 
L 254.979539 309.678521 
L 255.159904 303.33338 
L 255.520635 281.213214 
L 255.701001 278.484304 
L 256.422463 289.878459 
L 256.602828 287.045778 
L 257.32429 260.760339 
L 257.504655 252.21549 
L 257.685021 251.88969 
L 257.865386 253.830101 
L 259.127945 278.667856 
L 259.849407 290.500836 
L 260.390503 296.735195 
L 261.29233 304.219309 
L 262.194158 309.517083 
L 262.91562 312.858648 
L 263.276351 314.347772 
L 263.997812 317.591298 
L 264.538909 319.277191 
L 265.621102 320.897333 
L 266.342564 321.794723 
L 266.88366 323.22403 
L 267.244391 323.698008 
L 267.605122 324.400015 
L 268.506949 324.274188 
L 269.048046 325.019604 
L 269.228411 324.949457 
L 269.408777 324.531756 
L 269.769508 325.582297 
L 269.949873 325.673852 
L 271.392797 325.08966 
L 271.933893 325.042914 
L 272.47499 325.684078 
L 274.278645 325.067746 
L 275.180472 324.9155 
L 276.44303 326.756801 
L 276.984127 326.692292 
L 277.164492 326.788538 
L 277.344858 327.051909 
L 278.427051 326.281947 
L 278.607416 326.319471 
L 278.787781 326.694196 
L 279.148512 326.640345 
L 279.328878 326.589563 
L 279.509243 326.733601 
L 279.689609 326.50888 
L 279.869974 325.768538 
L 280.05034 326.086097 
L 280.230705 325.549324 
L 280.591436 325.429512 
L 282.214726 324.900622 
L 283.296918 324.614524 
L 283.657649 325.082934 
L 284.01838 324.925445 
L 285.461304 324.632423 
L 287.806055 324.383408 
L 291.59373 324.235887 
L 300.431639 324.182685 
L 316.844897 324.157154 
L 317.205628 324.420525 
L 317.385993 324.005541 
L 317.566359 324.136932 
L 317.746724 324.781224 
L 317.92709 324.919606 
L 318.107455 324.798611 
L 318.648552 325.324261 
L 319.730744 324.956806 
L 319.91111 325.04553 
L 320.091475 323.981098 
L 320.632572 291.317223 
L 320.993303 261.749616 
L 321.173668 262.68566 
L 321.354034 265.431928 
L 321.534399 265.942973 
L 321.714765 260.620355 
L 322.436227 224.816464 
L 322.616592 216.811605 
L 323.157688 178.297406 
L 323.338054 172.87173 
L 323.518419 171.517279 
L 324.239881 190.569448 
L 324.780978 211.548812 
L 324.961343 210.589172 
L 325.141709 209.015139 
L 325.50244 211.509863 
L 326.584633 228.576112 
L 326.945363 236.655959 
L 327.48646 250.245667 
L 328.749018 276.482157 
L 330.011577 295.062425 
L 330.552673 300.315543 
L 331.995597 310.91273 
L 332.717059 314.110734 
L 333.258155 316.285684 
L 333.979617 319.257509 
L 334.701079 320.73325 
L 335.06181 321.757326 
L 335.422541 322.112179 
L 336.685099 324.037093 
L 337.04583 323.784239 
L 337.226196 321.75748 
L 337.406561 321.984077 
L 337.586927 322.734689 
L 338.128023 323.140762 
L 338.849485 324.570902 
L 339.210216 325.016286 
L 339.390581 325.004066 
L 339.931678 325.651901 
L 340.112043 325.500432 
L 341.194236 326.163604 
L 341.735332 326.911312 
L 341.915698 327.06162 
L 342.456794 326.540911 
L 342.817525 326.323884 
L 343.178256 326.161721 
L 344.440815 325.475533 
L 345.342642 325.191209 
L 345.883738 325.882837 
L 346.785566 325.390715 
L 347.326662 325.934711 
L 348.048124 325.531434 
L 349.491048 325.00633 
L 350.753606 324.697271 
L 351.114337 324.876789 
L 351.655434 324.723706 
L 353.819819 324.44023 
L 357.066398 324.266009 
L 363.559555 324.189346 
L 379.070986 324.132284 
L 379.431717 324.737651 
L 379.972813 325.81172 
L 380.153179 325.857635 
L 380.874641 325.455207 
L 381.055006 325.546514 
L 381.235372 325.813131 
L 381.415737 325.700995 
L 381.776468 326.110192 
L 382.678295 325.576765 
L 383.219392 325.386856 
L 383.580123 317.589473 
L 383.760488 319.179925 
L 384.121219 320.102001 
L 384.301585 320.380432 
L 384.48195 315.13103 
L 384.842681 295.864354 
L 385.383778 281.900706 
L 385.744509 274.196578 
L 386.46597 286.181649 
L 386.646336 286.920329 
L 386.826701 285.007101 
L 387.007067 281.265523 
L 387.367798 268.385612 
L 387.548163 264.918783 
L 387.728529 265.865589 
L 388.449991 277.762771 
L 388.630356 277.626873 
L 388.810722 272.863702 
L 388.991087 273.483104 
L 389.351818 279.86429 
L 389.532183 276.26026 
L 389.712549 269.460612 
L 389.892914 271.424006 
L 390.07328 271.075474 
L 390.434011 274.023414 
L 390.614376 274.816388 
L 390.975107 278.017751 
L 391.696569 289.928616 
L 392.778762 302.031782 
L 393.319858 306.311116 
L 394.221686 312.2128 
L 394.943148 315.85588 
L 396.205706 319.075856 
L 397.64863 321.340364 
L 398.009361 322.625876 
L 398.550457 323.751968 
L 399.091554 324.677583 
L 399.271919 324.684745 
L 400.173747 325.350402 
L 400.534478 325.406564 
L 400.714843 325.541307 
L 401.075574 325.520458 
L 401.255939 325.599946 
L 403.600691 324.649525 
L 403.961422 325.527608 
L 404.502518 325.915632 
L 406.125807 325.236004 
L 406.486538 325.266697 
L 406.847269 325.652164 
L 407.388366 325.363264 
L 407.929462 325.503569 
L 408.650924 325.28991 
L 409.011655 325.122677 
L 409.372386 325.583103 
L 409.552751 324.981929 
L 409.733117 324.991725 
L 409.913482 324.384325 
L 410.274213 324.409671 
L 410.81531 324.336457 
L 411.176041 324.829958 
L 411.356406 325.276194 
L 411.717137 325.378793 
L 411.897502 325.429183 
L 412.077868 325.61574 
L 412.258233 324.574258 
L 412.618964 324.917386 
L 412.979695 324.917518 
L 413.340426 324.319895 
L 413.520792 323.77397 
L 413.701157 324.246957 
L 413.881523 324.134815 
L 414.242254 324.129602 
L 414.78335 324.657529 
L 414.963716 324.696232 
L 415.324447 325.019586 
L 416.045908 324.798743 
L 416.406639 325.065986 
L 417.669198 324.755247 
L 418.210294 324.584807 
L 418.571025 322.221156 
L 418.751391 322.885084 
L 421.096142 323.591169 
L 423.080162 323.880517 
L 426.146375 324.074637 
L 431.91807 324.165208 
L 447.790232 324.226556 
L 447.970598 324.359275 
L 448.331329 323.7468 
L 448.511694 323.337806 
L 448.692059 323.842893 
L 448.872425 323.729032 
L 449.413521 324.512849 
L 450.315349 324.388514 
L 450.495714 324.568453 
L 450.856445 323.923962 
L 451.036811 324.532042 
L 451.217176 324.737837 
L 451.577907 318.090247 
L 451.758273 319.362293 
L 451.938638 319.521129 
L 452.119004 319.938807 
L 452.299369 317.891312 
L 452.6601 301.069465 
L 452.840465 303.171755 
L 453.020831 297.092359 
L 453.742293 237.202011 
L 453.922658 227.816032 
L 454.103024 226.815127 
L 454.463755 235.141439 
L 454.64412 234.562817 
L 454.824486 235.063969 
L 455.365582 242.995298 
L 455.545948 243.481428 
L 456.267409 259.313791 
L 456.447775 260.001377 
L 456.808506 262.907315 
L 457.529968 277.99278 
L 457.710333 280.521422 
L 458.25143 277.016189 
L 458.612161 276.979413 
L 459.153257 279.81634 
L 461.317643 304.688141 
L 462.21947 309.871147 
L 463.121298 313.726886 
L 463.842759 316.031628 
L 464.744587 318.74438 
L 465.105318 320.149369 
L 465.466049 320.678849 
L 466.187511 321.624156 
L 466.367876 322.116236 
L 466.548242 321.978076 
L 466.728607 321.221752 
L 467.089338 322.497417 
L 467.630434 322.998026 
L 467.991165 323.818893 
L 468.532262 324.089056 
L 468.712627 324.103057 
L 469.79482 324.9101 
L 469.975186 325.134082 
L 470.516282 325.152728 
L 471.057378 325.575001 
L 471.598475 325.38102 
L 472.500302 325.133698 
L 472.861033 324.954225 
L 473.221764 325.32897 
L 473.40213 325.741408 
L 473.582495 325.795412 
L 473.943226 325.655494 
L 474.303957 325.818393 
L 475.025419 325.497816 
L 475.205784 325.292267 
L 475.566515 325.538606 
L 475.746881 325.774221 
L 476.107612 325.624426 
L 476.287977 325.108353 
L 476.648708 320.778556 
L 476.829074 321.494512 
L 477.009439 321.506327 
L 477.550536 322.055022 
L 478.091632 323.213816 
L 478.271997 323.340991 
L 478.452363 322.996432 
L 478.632728 320.482598 
L 478.813094 313.917686 
L 478.993459 315.237409 
L 479.173825 314.9719 
L 479.714921 316.574505 
L 480.075652 317.330756 
L 480.256018 317.576341 
L 480.436383 314.802357 
L 481.157845 316.990145 
L 482.600769 320.168195 
L 482.9615 320.681684 
L 483.322231 320.809055 
L 483.502596 321.118489 
L 483.682962 321.052841 
L 484.224058 321.645436 
L 484.404424 321.586382 
L 484.584789 321.225227 
L 484.765155 317.689071 
L 484.94552 318.393334 
L 485.125886 318.348997 
L 485.666982 319.375481 
L 486.568809 320.645167 
L 487.470637 321.5802 
L 488.55283 322.381933 
L 489.815388 323.010594 
L 491.258312 323.464809 
L 493.061966 323.793195 
L 495.587083 324.016383 
L 499.915855 324.142532 
L 511.819976 324.179287 
L 513.984362 324.149974 
L 514.345093 324.706617 
L 514.525458 325.045286 
L 514.705824 324.913324 
L 515.066555 323.43802 
L 515.24692 323.987116 
L 515.427285 324.097714 
L 515.607651 324.364323 
L 516.148747 317.108758 
L 516.689844 319.891313 
L 516.870209 319.933872 
L 517.23094 321.166072 
L 517.411306 321.1009 
L 517.591671 320.48966 
L 517.952402 303.366959 
L 518.313133 297.669988 
L 518.673864 280.29265 
L 519.21496 253.477111 
L 519.395326 247.540048 
L 519.575691 245.767942 
L 519.756057 248.810748 
L 519.936422 243.603578 
L 520.477519 219.850378 
L 520.83825 234.034608 
L 521.018615 237.890861 
L 521.198981 237.838767 
L 522.281174 209.130839 
L 522.461539 212.197634 
L 523.002635 227.949245 
L 523.724097 244.928668 
L 524.265194 259.525717 
L 525.708118 286.566107 
L 526.429579 296.41403 
L 526.79031 299.151086 
L 527.331407 304.095881 
L 527.872503 307.787429 
L 528.4136 311.356879 
L 529.135062 314.227994 
L 529.856523 316.796487 
L 530.217254 318.244673 
L 530.758351 319.310502 
L 530.938716 319.392831 
L 531.119082 320.250456 
L 531.840544 321.320791 
L 532.201275 322.199525 
L 532.922737 323.925628 
L 533.283468 324.625355 
L 533.463833 324.647078 
L 534.185295 325.374603 
L 534.906757 325.294129 
L 535.628219 326.027764 
L 535.98895 325.893014 
L 536.169315 325.95954 
L 536.890777 326.742057 
L 537.792604 326.094277 
L 538.333701 325.774479 
L 538.514066 325.773671 
L 538.694432 325.964794 
L 538.874797 325.656033 
L 539.055163 325.597819 
L 539.235528 326.048533 
L 539.776625 325.812159 
L 540.137356 326.217501 
L 540.317721 326.513244 
L 540.498087 326.591931 
L 541.039183 325.775861 
L 541.219548 322.906843 
L 541.399914 323.241595 
L 541.580279 322.620307 
L 541.94101 322.853743 
L 542.842838 323.215347 
L 543.023203 323.240421 
L 544.285762 324.708567 
L 545.007223 324.747027 
L 545.187589 324.642967 
L 545.728685 325.422169 
L 546.630513 325.083441 
L 548.253802 324.699505 
L 550.418188 324.428386 
L 553.845132 324.257194 
L 560.879385 324.186959 
L 580.899953 324.190926 
L 581.080319 317.36027 
L 581.44105 294.52847 
L 581.621415 291.992663 
L 582.342877 300.81385 
L 582.883973 304.776317 
L 583.064339 304.558198 
L 583.244704 297.71343 
L 583.605435 273.903118 
L 583.785801 267.139351 
L 584.326897 262.142967 
L 584.507263 263.018258 
L 585.048359 253.191797 
L 585.769821 269.124792 
L 585.950186 270.349681 
L 586.310917 264.963076 
L 586.491283 265.446036 
L 587.032379 275.901325 
L 587.212745 276.231764 
L 587.573476 270.814961 
L 587.934207 261.373015 
L 588.294938 270.677908 
L 588.475303 270.662215 
L 588.655669 265.154545 
L 588.836034 254.675071 
L 589.016399 251.443419 
L 589.196765 256.865756 
L 589.37713 257.789334 
L 589.918227 245.879315 
L 590.459323 253.58589 
L 590.639689 255.017624 
L 591.541516 269.992682 
L 592.443344 285.442872 
L 593.164805 294.76787 
L 593.886267 301.428294 
L 595.148826 310.054593 
L 595.509557 311.603566 
L 595.689922 311.257511 
L 596.050653 313.778277 
L 596.95248 317.447684 
L 597.313211 318.953235 
L 598.215039 320.848896 
L 598.936501 323.271645 
L 599.297232 324.047891 
L 599.838328 324.034041 
L 600.199059 324.457585 
L 600.920521 325.516028 
L 601.100886 325.900172 
L 601.461617 325.850592 
L 601.641983 325.658028 
L 602.183079 326.131319 
L 602.363445 325.965235 
L 603.445638 326.24612 
L 603.626003 326.087379 
L 604.167099 326.256021 
L 604.52783 326.48326 
L 604.888561 326.248773 
L 605.249292 326.175782 
L 605.610023 325.911272 
L 605.970754 326.159472 
L 606.15112 326.007783 
L 606.331485 325.038545 
L 606.692216 325.850452 
L 607.233313 325.527133 
L 607.413678 325.599732 
L 607.774409 325.991566 
L 608.315505 325.638419 
L 608.676236 325.956269 
L 609.217333 326.539161 
L 609.938795 326.001938 
L 610.840622 325.329124 
L 611.020988 324.843081 
L 611.201353 323.633781 
L 611.381718 324.402062 
L 611.562084 324.666444 
L 611.742449 324.510557 
L 612.283546 324.412039 
L 612.644277 324.917415 
L 613.546104 324.712545 
L 614.087201 324.61149 
L 614.628297 324.870621 
L 616.612317 324.530219 
L 617.69451 324.366017 
L 618.055241 324.886145 
L 620.580358 324.482334 
L 623.646571 324.286272 
L 629.237901 324.195747 
L 649.97993 324.169592 
L 650.160296 324.215514 
L 650.340661 324.003865 
L 650.521027 322.968482 
L 650.881758 287.693525 
L 651.242489 260.178515 
L 651.60322 271.618335 
L 651.783585 273.496498 
L 652.144316 260.65218 
L 652.505047 238.84227 
L 652.685412 238.114699 
L 652.865778 232.00368 
L 653.406874 190.194418 
L 653.58724 186.50393 
L 653.947971 196.798386 
L 654.128336 193.142739 
L 654.308702 195.703324 
L 654.489067 204.927815 
L 654.849798 211.182871 
L 655.210529 224.747603 
L 655.390895 222.731207 
L 655.751625 201.601215 
L 656.292722 174.540647 
L 657.194549 160.693798 
L 657.374915 159.086545 
L 657.55528 158.674022 
L 657.916011 166.201994 
L 658.457108 181.658489 
L 658.998204 201.851228 
L 659.5393 219.306277 
L 660.260762 243.054491 
L 661.16259 265.954684 
L 661.884052 279.087053 
L 663.14661 296.393536 
L 663.687706 301.520606 
L 665.13063 311.539919 
L 665.852092 315.572267 
L 666.393189 317.131102 
L 666.573554 316.255921 
L 666.753919 316.649155 
L 667.11465 318.363996 
L 668.557574 321.107178 
L 669.279036 321.863429 
L 669.639767 322.584521 
L 670.361229 322.939815 
L 671.082691 323.166345 
L 671.443422 317.918444 
L 671.623787 319.289021 
L 671.984518 319.761448 
L 673.247077 322.987682 
L 674.148904 323.348829 
L 674.69 323.687485 
L 674.69 323.687485 
" clip-path="url(#p44b49424f8)" style="fill: none; stroke: #ff7f0e; stroke-width: 1.5; stroke-linecap: square"/>
   </g>
   <g id="patch_3">
    <path d="M 52.375 342.2 
L 52.375 43.44 
" style="fill: none; stroke: #000000; stroke-width: 0.8; stroke-linejoin: miter; stroke-linecap: square"/>
   </g>
   <g id="patch_4">
    <path d="M 704.324048 342.2 
L 704.324048 43.44 
" style="fill: none; stroke: #000000; stroke-width: 0.8; stroke-linejoin: miter; stroke-linecap: square"/>
   </g>
   <g id="patch_5">
    <path d="M 52.375 342.2 
L 704.324048 342.2 
" style="fill: none; stroke: #000000; stroke-width: 0.8; stroke-linejoin: miter; stroke-linecap: square"/>
   </g>
   <g id="patch_6">
    <path d="M 52.375 43.44 
L 704.324048 43.44 
" style="fill: none; stroke: #000000; stroke-width: 0.8; stroke-linejoin: miter; stroke-linecap: square"/>
   </g>
   <g id="text_16">
    <!-- 1 transformation(s) -->
    <g transform="translate(320.234837 37.44) scale(0.12 -0.12)">
     <defs>
      <path id="DejaVuSans-20" transform="scale(0.015625)"/>
      <path id="DejaVuSans-74" d="M 1172 4494 
L 1172 3500 
L 2356 3500 
L 2356 3053 
L 1172 3053 
L 1172 1153 
Q 1172 725 1289 603 
Q 1406 481 1766 481 
L 2356 481 
L 2356 0 
L 1766 0 
Q 1100 0 847 248 
Q 594 497 594 1153 
L 594 3053 
L 172 3053 
L 172 3500 
L 594 3500 
L 594 4494 
L 1172 4494 
z
" transform="scale(0.015625)"/>
      <path id="DejaVuSans-72" d="M 2631 2963 
Q 2534 3019 2420 3045 
Q 2306 3072 2169 3072 
Q 1681 3072 1420 2755 
Q 1159 2438 1159 1844 
L 1159 0 
L 581 0 
L 581 3500 
L 1159 3500 
L 1159 2956 
Q 1341 3275 1631 3429 
Q 1922 3584 2338 3584 
Q 2397 3584 2469 3576 
Q 2541 3569 2628 3553 
L 2631 2963 
z
" transform="scale(0.015625)"/>
      <path id="DejaVuSans-61" d="M 2194 1759 
Q 1497 1759 1228 1600 
Q 959 1441 959 1056 
Q 959 750 1161 570 
Q 1363 391 1709 391 
Q 2188 391 2477 730 
Q 2766 1069 2766 1631 
L 2766 1759 
L 2194 1759 
z
M 3341 1997 
L 3341 0 
L 2766 0 
L 2766 531 
Q 2569 213 2275 61 
Q 1981 -91 1556 -91 
Q 1019 -91 701 211 
Q 384 513 384 1019 
Q 384 1609 779 1909 
Q 1175 2209 1959 2209 
L 2766 2209 
L 2766 2266 
Q 2766 2663 2505 2880 
Q 2244 3097 1772 3097 
Q 1472 3097 1187 3025 
Q 903 2953 641 2809 
L 641 3341 
Q 956 3463 1253 3523 
Q 1550 3584 1831 3584 
Q 2591 3584 2966 3190 
Q 3341 2797 3341 1997 
z
" transform="scale(0.015625)"/>
      <path id="DejaVuSans-6e" d="M 3513 2113 
L 3513 0 
L 2938 0 
L 2938 2094 
Q 2938 2591 2744 2837 
Q 2550 3084 2163 3084 
Q 1697 3084 1428 2787 
Q 1159 2491 1159 1978 
L 1159 0 
L 581 0 
L 581 3500 
L 1159 3500 
L 1159 2956 
Q 1366 3272 1645 3428 
Q 1925 3584 2291 3584 
Q 2894 3584 3203 3211 
Q 3513 2838 3513 2113 
z
" transform="scale(0.015625)"/>
      <path id="DejaVuSans-73" d="M 2834 3397 
L 2834 2853 
Q 2591 2978 2328 3040 
Q 2066 3103 1784 3103 
Q 1356 3103 1142 2972 
Q 928 2841 928 2578 
Q 928 2378 1081 2264 
Q 1234 2150 1697 2047 
L 1894 2003 
Q 2506 1872 2764 1633 
Q 3022 1394 3022 966 
Q 3022 478 2636 193 
Q 2250 -91 1575 -91 
Q 1294 -91 989 -36 
Q 684 19 347 128 
L 347 722 
Q 666 556 975 473 
Q 1284 391 1588 391 
Q 1994 391 2212 530 
Q 2431 669 2431 922 
Q 2431 1156 2273 1281 
Q 2116 1406 1581 1522 
L 1381 1569 
Q 847 1681 609 1914 
Q 372 2147 372 2553 
Q 372 3047 722 3315 
Q 1072 3584 1716 3584 
Q 2034 3584 2315 3537 
Q 2597 3491 2834 3397 
z
" transform="scale(0.015625)"/>
      <path id="DejaVuSans-66" d="M 2375 4863 
L 2375 4384 
L 1825 4384 
Q 1516 4384 1395 4259 
Q 1275 4134 1275 3809 
L 1275 3500 
L 2222 3500 
L 2222 3053 
L 1275 3053 
L 1275 0 
L 697 0 
L 697 3053 
L 147 3053 
L 147 3500 
L 697 3500 
L 697 3744 
Q 697 4328 969 4595 
Q 1241 4863 1831 4863 
L 2375 4863 
z
" transform="scale(0.015625)"/>
      <path id="DejaVuSans-6f" d="M 1959 3097 
Q 1497 3097 1228 2736 
Q 959 2375 959 1747 
Q 959 1119 1226 758 
Q 1494 397 1959 397 
Q 2419 397 2687 759 
Q 2956 1122 2956 1747 
Q 2956 2369 2687 2733 
Q 2419 3097 1959 3097 
z
M 1959 3584 
Q 2709 3584 3137 3096 
Q 3566 2609 3566 1747 
Q 3566 888 3137 398 
Q 2709 -91 1959 -91 
Q 1206 -91 779 398 
Q 353 888 353 1747 
Q 353 2609 779 3096 
Q 1206 3584 1959 3584 
z
" transform="scale(0.015625)"/>
      <path id="DejaVuSans-6d" d="M 3328 2828 
Q 3544 3216 3844 3400 
Q 4144 3584 4550 3584 
Q 5097 3584 5394 3201 
Q 5691 2819 5691 2113 
L 5691 0 
L 5113 0 
L 5113 2094 
Q 5113 2597 4934 2840 
Q 4756 3084 4391 3084 
Q 3944 3084 3684 2787 
Q 3425 2491 3425 1978 
L 3425 0 
L 2847 0 
L 2847 2094 
Q 2847 2600 2669 2842 
Q 2491 3084 2119 3084 
Q 1678 3084 1418 2786 
Q 1159 2488 1159 1978 
L 1159 0 
L 581 0 
L 581 3500 
L 1159 3500 
L 1159 2956 
Q 1356 3278 1631 3431 
Q 1906 3584 2284 3584 
Q 2666 3584 2933 3390 
Q 3200 3197 3328 2828 
z
" transform="scale(0.015625)"/>
      <path id="DejaVuSans-69" d="M 603 3500 
L 1178 3500 
L 1178 0 
L 603 0 
L 603 3500 
z
M 603 4863 
L 1178 4863 
L 1178 4134 
L 603 4134 
L 603 4863 
z
" transform="scale(0.015625)"/>
      <path id="DejaVuSans-28" d="M 1984 4856 
Q 1566 4138 1362 3434 
Q 1159 2731 1159 2009 
Q 1159 1288 1364 580 
Q 1569 -128 1984 -844 
L 1484 -844 
Q 1016 -109 783 600 
Q 550 1309 550 2009 
Q 550 2706 781 3412 
Q 1013 4119 1484 4856 
L 1984 4856 
z
" transform="scale(0.015625)"/>
      <path id="DejaVuSans-29" d="M 513 4856 
L 1013 4856 
Q 1481 4119 1714 3412 
Q 1947 2706 1947 2009 
Q 1947 1309 1714 600 
Q 1481 -109 1013 -844 
L 513 -844 
Q 928 -128 1133 580 
Q 1338 1288 1338 2009 
Q 1338 2731 1133 3434 
Q 928 4138 513 4856 
z
" transform="scale(0.015625)"/>
     </defs>
     <use xlink:href="#DejaVuSans-31"/>
     <use xlink:href="#DejaVuSans-20" x="63.623047"/>
     <use xlink:href="#DejaVuSans-74" x="95.410156"/>
     <use xlink:href="#DejaVuSans-72" x="134.619141"/>
     <use xlink:href="#DejaVuSans-61" x="175.732422"/>
     <use xlink:href="#DejaVuSans-6e" x="237.011719"/>
     <use xlink:href="#DejaVuSans-73" x="300.390625"/>
     <use xlink:href="#DejaVuSans-66" x="352.490234"/>
     <use xlink:href="#DejaVuSans-6f" x="387.695312"/>
     <use xlink:href="#DejaVuSans-72" x="448.876953"/>
     <use xlink:href="#DejaVuSans-6d" x="488.240234"/>
     <use xlink:href="#DejaVuSans-61" x="585.652344"/>
     <use xlink:href="#DejaVuSans-74" x="646.931641"/>
     <use xlink:href="#DejaVuSans-69" x="686.140625"/>
     <use xlink:href="#DejaVuSans-6f" x="713.923828"/>
     <use xlink:href="#DejaVuSans-6e" x="775.105469"/>
     <use xlink:href="#DejaVuSans-28" x="838.484375"/>
     <use xlink:href="#DejaVuSans-73" x="877.498047"/>
     <use xlink:href="#DejaVuSans-29" x="929.597656"/>
    </g>
   </g>
   <g id="legend_1">
    <g id="patch_7">
     <path d="M 615.930298 80.79625 
L 697.324048 80.79625 
Q 699.324048 80.79625 699.324048 78.79625 
L 699.324048 50.44 
Q 699.324048 48.44 697.324048 48.44 
L 615.930298 48.44 
Q 613.930298 48.44 613.930298 50.44 
L 613.930298 78.79625 
Q 613.930298 80.79625 615.930298 80.79625 
z
" style="fill: #ffffff; opacity: 0.8; stroke: #cccccc; stroke-linejoin: miter"/>
    </g>
    <g id="line2d_18">
     <path d="M 617.930298 56.538437 
L 627.930298 56.538437 
L 637.930298 56.538437 
" style="fill: none; stroke: #1f77b4; stroke-width: 1.5; stroke-linecap: square"/>
    </g>
    <g id="text_17">
     <!-- observed -->
     <g transform="translate(645.930298 60.038437) scale(0.1 -0.1)">
      <defs>
       <path id="DejaVuSans-62" d="M 3116 1747 
Q 3116 2381 2855 2742 
Q 2594 3103 2138 3103 
Q 1681 3103 1420 2742 
Q 1159 2381 1159 1747 
Q 1159 1113 1420 752 
Q 1681 391 2138 391 
Q 2594 391 2855 752 
Q 3116 1113 3116 1747 
z
M 1159 2969 
Q 1341 3281 1617 3432 
Q 1894 3584 2278 3584 
Q 2916 3584 3314 3078 
Q 3713 2572 3713 1747 
Q 3713 922 3314 415 
Q 2916 -91 2278 -91 
Q 1894 -91 1617 61 
Q 1341 213 1159 525 
L 1159 0 
L 581 0 
L 581 4863 
L 1159 4863 
L 1159 2969 
z
" transform="scale(0.015625)"/>
       <path id="DejaVuSans-65" d="M 3597 1894 
L 3597 1613 
L 953 1613 
Q 991 1019 1311 708 
Q 1631 397 2203 397 
Q 2534 397 2845 478 
Q 3156 559 3463 722 
L 3463 178 
Q 3153 47 2828 -22 
Q 2503 -91 2169 -91 
Q 1331 -91 842 396 
Q 353 884 353 1716 
Q 353 2575 817 3079 
Q 1281 3584 2069 3584 
Q 2775 3584 3186 3129 
Q 3597 2675 3597 1894 
z
M 3022 2063 
Q 3016 2534 2758 2815 
Q 2500 3097 2075 3097 
Q 1594 3097 1305 2825 
Q 1016 2553 972 2059 
L 3022 2063 
z
" transform="scale(0.015625)"/>
       <path id="DejaVuSans-76" d="M 191 3500 
L 800 3500 
L 1894 563 
L 2988 3500 
L 3597 3500 
L 2284 0 
L 1503 0 
L 191 3500 
z
" transform="scale(0.015625)"/>
       <path id="DejaVuSans-64" d="M 2906 2969 
L 2906 4863 
L 3481 4863 
L 3481 0 
L 2906 0 
L 2906 525 
Q 2725 213 2448 61 
Q 2172 -91 1784 -91 
Q 1150 -91 751 415 
Q 353 922 353 1747 
Q 353 2572 751 3078 
Q 1150 3584 1784 3584 
Q 2172 3584 2448 3432 
Q 2725 3281 2906 2969 
z
M 947 1747 
Q 947 1113 1208 752 
Q 1469 391 1925 391 
Q 2381 391 2643 752 
Q 2906 1113 2906 1747 
Q 2906 2381 2643 2742 
Q 2381 3103 1925 3103 
Q 1469 3103 1208 2742 
Q 947 2381 947 1747 
z
" transform="scale(0.015625)"/>
      </defs>
      <use xlink:href="#DejaVuSans-6f"/>
      <use xlink:href="#DejaVuSans-62" x="61.181641"/>
      <use xlink:href="#DejaVuSans-73" x="124.658203"/>
      <use xlink:href="#DejaVuSans-65" x="176.757812"/>
      <use xlink:href="#DejaVuSans-72" x="238.28125"/>
      <use xlink:href="#DejaVuSans-76" x="279.394531"/>
      <use xlink:href="#DejaVuSans-65" x="338.574219"/>
      <use xlink:href="#DejaVuSans-64" x="400.097656"/>
     </g>
    </g>
    <g id="line2d_19">
     <path d="M 617.930298 71.216563 
L 627.930298 71.216563 
L 637.930298 71.216563 
" style="fill: none; stroke: #ff7f0e; stroke-width: 1.5; stroke-linecap: square"/>
    </g>
    <g id="text_18">
     <!-- simulated -->
     <g transform="translate(645.930298 74.716563) scale(0.1 -0.1)">
      <defs>
       <path id="DejaVuSans-75" d="M 544 1381 
L 544 3500 
L 1119 3500 
L 1119 1403 
Q 1119 906 1312 657 
Q 1506 409 1894 409 
Q 2359 409 2629 706 
Q 2900 1003 2900 1516 
L 2900 3500 
L 3475 3500 
L 3475 0 
L 2900 0 
L 2900 538 
Q 2691 219 2414 64 
Q 2138 -91 1772 -91 
Q 1169 -91 856 284 
Q 544 659 544 1381 
z
M 1991 3584 
L 1991 3584 
z
" transform="scale(0.015625)"/>
       <path id="DejaVuSans-6c" d="M 603 4863 
L 1178 4863 
L 1178 0 
L 603 0 
L 603 4863 
z
" transform="scale(0.015625)"/>
      </defs>
      <use xlink:href="#DejaVuSans-73"/>
      <use xlink:href="#DejaVuSans-69" x="52.099609"/>
      <use xlink:href="#DejaVuSans-6d" x="79.882812"/>
      <use xlink:href="#DejaVuSans-75" x="177.294922"/>
      <use xlink:href="#DejaVuSans-6c" x="240.673828"/>
      <use xlink:href="#DejaVuSans-61" x="268.457031"/>
      <use xlink:href="#DejaVuSans-74" x="329.736328"/>
      <use xlink:href="#DejaVuSans-65" x="368.945312"/>
      <use xlink:href="#DejaVuSans-64" x="430.46875"/>
     </g>
    </g>
   </g>
  </g>
  <g id="axes_2">
   <g id="patch_8">
    <path d="M 52.375 684.92 
L 704.324048 684.92 
L 704.324048 386.16 
L 52.375 386.16 
z
" style="fill: #ffffff"/>
   </g>
   <g id="matplotlib.axis_3">
    <g id="xtick_11">
     <g id="line2d_20">
      <g>
       <use xlink:href="#m76301f6bdb" x="98.332123" y="684.92" style="stroke: #000000; stroke-width: 0.8"/>
      </g>
     </g>
     <g id="text_19">
      <!-- 2000 -->
      <g transform="translate(85.607123 699.518437) scale(0.1 -0.1)">
       <use xlink:href="#DejaVuSans-32"/>
       <use xlink:href="#DejaVuSans-30" x="63.623047"/>
       <use xlink:href="#DejaVuSans-30" x="127.246094"/>
       <use xlink:href="#DejaVuSans-30" x="190.869141"/>
      </g>
     </g>
    </g>
    <g id="xtick_12">
     <g id="line2d_21">
      <g>
       <use xlink:href="#m76301f6bdb" x="164.345887" y="684.92" style="stroke: #000000; stroke-width: 0.8"/>
      </g>
     </g>
     <g id="text_20">
      <!-- 2001 -->
      <g transform="translate(151.620887 699.518437) scale(0.1 -0.1)">
       <use xlink:href="#DejaVuSans-32"/>
       <use xlink:href="#DejaVuSans-30" x="63.623047"/>
       <use xlink:href="#DejaVuSans-30" x="127.246094"/>
       <use xlink:href="#DejaVuSans-31" x="190.869141"/>
      </g>
     </g>
    </g>
    <g id="xtick_13">
     <g id="line2d_22">
      <g>
       <use xlink:href="#m76301f6bdb" x="230.179286" y="684.92" style="stroke: #000000; stroke-width: 0.8"/>
      </g>
     </g>
     <g id="text_21">
      <!-- 2002 -->
      <g transform="translate(217.454286 699.518437) scale(0.1 -0.1)">
       <use xlink:href="#DejaVuSans-32"/>
       <use xlink:href="#DejaVuSans-30" x="63.623047"/>
       <use xlink:href="#DejaVuSans-30" x="127.246094"/>
       <use xlink:href="#DejaVuSans-32" x="190.869141"/>
      </g>
     </g>
    </g>
    <g id="xtick_14">
     <g id="line2d_23">
      <g>
       <use xlink:href="#m76301f6bdb" x="296.012684" y="684.92" style="stroke: #000000; stroke-width: 0.8"/>
      </g>
     </g>
     <g id="text_22">
      <!-- 2003 -->
      <g transform="translate(283.287684 699.518437) scale(0.1 -0.1)">
       <use xlink:href="#DejaVuSans-32"/>
       <use xlink:href="#DejaVuSans-30" x="63.623047"/>
       <use xlink:href="#DejaVuSans-30" x="127.246094"/>
       <use xlink:href="#DejaVuSans-33" x="190.869141"/>
      </g>
     </g>
    </g>
    <g id="xtick_15">
     <g id="line2d_24">
      <g>
       <use xlink:href="#m76301f6bdb" x="361.846083" y="684.92" style="stroke: #000000; stroke-width: 0.8"/>
      </g>
     </g>
     <g id="text_23">
      <!-- 2004 -->
      <g transform="translate(349.121083 699.518437) scale(0.1 -0.1)">
       <use xlink:href="#DejaVuSans-32"/>
       <use xlink:href="#DejaVuSans-30" x="63.623047"/>
       <use xlink:href="#DejaVuSans-30" x="127.246094"/>
       <use xlink:href="#DejaVuSans-34" x="190.869141"/>
      </g>
     </g>
    </g>
    <g id="xtick_16">
     <g id="line2d_25">
      <g>
       <use xlink:href="#m76301f6bdb" x="427.859847" y="684.92" style="stroke: #000000; stroke-width: 0.8"/>
      </g>
     </g>
     <g id="text_24">
      <!-- 2005 -->
      <g transform="translate(415.134847 699.518437) scale(0.1 -0.1)">
       <use xlink:href="#DejaVuSans-32"/>
       <use xlink:href="#DejaVuSans-30" x="63.623047"/>
       <use xlink:href="#DejaVuSans-30" x="127.246094"/>
       <use xlink:href="#DejaVuSans-35" x="190.869141"/>
      </g>
     </g>
    </g>
    <g id="xtick_17">
     <g id="line2d_26">
      <g>
       <use xlink:href="#m76301f6bdb" x="493.693246" y="684.92" style="stroke: #000000; stroke-width: 0.8"/>
      </g>
     </g>
     <g id="text_25">
      <!-- 2006 -->
      <g transform="translate(480.968246 699.518437) scale(0.1 -0.1)">
       <use xlink:href="#DejaVuSans-32"/>
       <use xlink:href="#DejaVuSans-30" x="63.623047"/>
       <use xlink:href="#DejaVuSans-30" x="127.246094"/>
       <use xlink:href="#DejaVuSans-36" x="190.869141"/>
      </g>
     </g>
    </g>
    <g id="xtick_18">
     <g id="line2d_27">
      <g>
       <use xlink:href="#m76301f6bdb" x="559.526644" y="684.92" style="stroke: #000000; stroke-width: 0.8"/>
      </g>
     </g>
     <g id="text_26">
      <!-- 2007 -->
      <g transform="translate(546.801644 699.518437) scale(0.1 -0.1)">
       <use xlink:href="#DejaVuSans-32"/>
       <use xlink:href="#DejaVuSans-30" x="63.623047"/>
       <use xlink:href="#DejaVuSans-30" x="127.246094"/>
       <use xlink:href="#DejaVuSans-37" x="190.869141"/>
      </g>
     </g>
    </g>
    <g id="xtick_19">
     <g id="line2d_28">
      <g>
       <use xlink:href="#m76301f6bdb" x="625.360043" y="684.92" style="stroke: #000000; stroke-width: 0.8"/>
      </g>
     </g>
     <g id="text_27">
      <!-- 2008 -->
      <g transform="translate(612.635043 699.518437) scale(0.1 -0.1)">
       <use xlink:href="#DejaVuSans-32"/>
       <use xlink:href="#DejaVuSans-30" x="63.623047"/>
       <use xlink:href="#DejaVuSans-30" x="127.246094"/>
       <use xlink:href="#DejaVuSans-38" x="190.869141"/>
      </g>
     </g>
    </g>
    <g id="xtick_20">
     <g id="line2d_29">
      <g>
       <use xlink:href="#m76301f6bdb" x="691.373807" y="684.92" style="stroke: #000000; stroke-width: 0.8"/>
      </g>
     </g>
     <g id="text_28">
      <!-- 2009 -->
      <g transform="translate(678.648807 699.518437) scale(0.1 -0.1)">
       <use xlink:href="#DejaVuSans-32"/>
       <use xlink:href="#DejaVuSans-30" x="63.623047"/>
       <use xlink:href="#DejaVuSans-30" x="127.246094"/>
       <use xlink:href="#DejaVuSans-39" x="190.869141"/>
      </g>
     </g>
    </g>
   </g>
   <g id="matplotlib.axis_4">
    <g id="ytick_6">
     <g id="line2d_30">
      <g>
       <use xlink:href="#m413d3768f7" x="52.375" y="671.340005" style="stroke: #000000; stroke-width: 0.8"/>
      </g>
     </g>
     <g id="text_29">
      <!-- 0 -->
      <g transform="translate(39.0125 675.139224) scale(0.1 -0.1)">
       <use xlink:href="#DejaVuSans-30"/>
      </g>
     </g>
    </g>
    <g id="ytick_7">
     <g id="line2d_31">
      <g>
       <use xlink:href="#m413d3768f7" x="52.375" y="606.820352" style="stroke: #000000; stroke-width: 0.8"/>
      </g>
     </g>
     <g id="text_30">
      <!-- 100000 -->
      <g transform="translate(7.2 610.619571) scale(0.1 -0.1)">
       <use xlink:href="#DejaVuSans-31"/>
       <use xlink:href="#DejaVuSans-30" x="63.623047"/>
       <use xlink:href="#DejaVuSans-30" x="127.246094"/>
       <use xlink:href="#DejaVuSans-30" x="190.869141"/>
       <use xlink:href="#DejaVuSans-30" x="254.492188"/>
       <use xlink:href="#DejaVuSans-30" x="318.115234"/>
      </g>
     </g>
    </g>
    <g id="ytick_8">
     <g id="line2d_32">
      <g>
       <use xlink:href="#m413d3768f7" x="52.375" y="542.300699" style="stroke: #000000; stroke-width: 0.8"/>
      </g>
     </g>
     <g id="text_31">
      <!-- 200000 -->
      <g transform="translate(7.2 546.099918) scale(0.1 -0.1)">
       <use xlink:href="#DejaVuSans-32"/>
       <use xlink:href="#DejaVuSans-30" x="63.623047"/>
       <use xlink:href="#DejaVuSans-30" x="127.246094"/>
       <use xlink:href="#DejaVuSans-30" x="190.869141"/>
       <use xlink:href="#DejaVuSans-30" x="254.492188"/>
       <use xlink:href="#DejaVuSans-30" x="318.115234"/>
      </g>
     </g>
    </g>
    <g id="ytick_9">
     <g id="line2d_33">
      <g>
       <use xlink:href="#m413d3768f7" x="52.375" y="477.781046" style="stroke: #000000; stroke-width: 0.8"/>
      </g>
     </g>
     <g id="text_32">
      <!-- 300000 -->
      <g transform="translate(7.2 481.580265) scale(0.1 -0.1)">
       <use xlink:href="#DejaVuSans-33"/>
       <use xlink:href="#DejaVuSans-30" x="63.623047"/>
       <use xlink:href="#DejaVuSans-30" x="127.246094"/>
       <use xlink:href="#DejaVuSans-30" x="190.869141"/>
       <use xlink:href="#DejaVuSans-30" x="254.492188"/>
       <use xlink:href="#DejaVuSans-30" x="318.115234"/>
      </g>
     </g>
    </g>
    <g id="ytick_10">
     <g id="line2d_34">
      <g>
       <use xlink:href="#m413d3768f7" x="52.375" y="413.261394" style="stroke: #000000; stroke-width: 0.8"/>
      </g>
     </g>
     <g id="text_33">
      <!-- 400000 -->
      <g transform="translate(7.2 417.060612) scale(0.1 -0.1)">
       <use xlink:href="#DejaVuSans-34"/>
       <use xlink:href="#DejaVuSans-30" x="63.623047"/>
       <use xlink:href="#DejaVuSans-30" x="127.246094"/>
       <use xlink:href="#DejaVuSans-30" x="190.869141"/>
       <use xlink:href="#DejaVuSans-30" x="254.492188"/>
       <use xlink:href="#DejaVuSans-30" x="318.115234"/>
      </g>
     </g>
    </g>
   </g>
   <g id="line2d_35">
    <path d="M 82.009048 671.33982 
L 674.69 671.339912 
L 674.69 671.339912 
" clip-path="url(#p129e745e89)" style="fill: none; stroke: #1f77b4; stroke-width: 1.5; stroke-linecap: square"/>
   </g>
   <g id="line2d_36">
    <path d="M 82.009048 671.33982 
L 190.949795 671.229203 
L 198.885876 671.026162 
L 201.230627 670.785479 
L 202.493185 670.446982 
L 203.214647 670.002359 
L 203.575378 669.574616 
L 203.936109 668.767585 
L 204.116475 668.020635 
L 204.29684 666.68537 
L 204.477206 663.634823 
L 204.657571 650.260853 
L 204.837937 399.777187 
L 205.559398 399.740041 
L 674.69 399.740041 
L 674.69 399.740041 
" clip-path="url(#p129e745e89)" style="fill: none; stroke: #ff7f0e; stroke-width: 1.5; stroke-linecap: square"/>
   </g>
   <g id="patch_9">
    <path d="M 52.375 684.92 
L 52.375 386.16 
" style="fill: none; stroke: #000000; stroke-width: 0.8; stroke-linejoin: miter; stroke-linecap: square"/>
   </g>
   <g id="patch_10">
    <path d="M 704.324048 684.92 
L 704.324048 386.16 
" style="fill: none; stroke: #000000; stroke-width: 0.8; stroke-linejoin: miter; stroke-linecap: square"/>
   </g>
   <g id="patch_11">
    <path d="M 52.375 684.92 
L 704.324048 684.92 
" style="fill: none; stroke: #000000; stroke-width: 0.8; stroke-linejoin: miter; stroke-linecap: square"/>
   </g>
   <g id="patch_12">
    <path d="M 52.375 386.16 
L 704.324048 386.16 
" style="fill: none; stroke: #000000; stroke-width: 0.8; stroke-linejoin: miter; stroke-linecap: square"/>
   </g>
   <g id="text_34">
    <!-- 2 transformation(s) -->
    <g transform="translate(320.234837 380.16) scale(0.12 -0.12)">
     <use xlink:href="#DejaVuSans-32"/>
     <use xlink:href="#DejaVuSans-20" x="63.623047"/>
     <use xlink:href="#DejaVuSans-74" x="95.410156"/>
     <use xlink:href="#DejaVuSans-72" x="134.619141"/>
     <use xlink:href="#DejaVuSans-61" x="175.732422"/>
     <use xlink:href="#DejaVuSans-6e" x="237.011719"/>
     <use xlink:href="#DejaVuSans-73" x="300.390625"/>
     <use xlink:href="#DejaVuSans-66" x="352.490234"/>
     <use xlink:href="#DejaVuSans-6f" x="387.695312"/>
     <use xlink:href="#DejaVuSans-72" x="448.876953"/>
     <use xlink:href="#DejaVuSans-6d" x="488.240234"/>
     <use xlink:href="#DejaVuSans-61" x="585.652344"/>
     <use xlink:href="#DejaVuSans-74" x="646.931641"/>
     <use xlink:href="#DejaVuSans-69" x="686.140625"/>
     <use xlink:href="#DejaVuSans-6f" x="713.923828"/>
     <use xlink:href="#DejaVuSans-6e" x="775.105469"/>
     <use xlink:href="#DejaVuSans-28" x="838.484375"/>
     <use xlink:href="#DejaVuSans-73" x="877.498047"/>
     <use xlink:href="#DejaVuSans-29" x="929.597656"/>
    </g>
   </g>
  </g>
  <g id="text_35">
   <!-- training -->
   <g transform="translate(333.441563 16.318125) scale(0.12 -0.12)">
    <defs>
     <path id="DejaVuSans-67" d="M 2906 1791 
Q 2906 2416 2648 2759 
Q 2391 3103 1925 3103 
Q 1463 3103 1205 2759 
Q 947 2416 947 1791 
Q 947 1169 1205 825 
Q 1463 481 1925 481 
Q 2391 481 2648 825 
Q 2906 1169 2906 1791 
z
M 3481 434 
Q 3481 -459 3084 -895 
Q 2688 -1331 1869 -1331 
Q 1566 -1331 1297 -1286 
Q 1028 -1241 775 -1147 
L 775 -588 
Q 1028 -725 1275 -790 
Q 1522 -856 1778 -856 
Q 2344 -856 2625 -561 
Q 2906 -266 2906 331 
L 2906 616 
Q 2728 306 2450 153 
Q 2172 0 1784 0 
Q 1141 0 747 490 
Q 353 981 353 1791 
Q 353 2603 747 3093 
Q 1141 3584 1784 3584 
Q 2172 3584 2450 3431 
Q 2728 3278 2906 2969 
L 2906 3500 
L 3481 3500 
L 3481 434 
z
" transform="scale(0.015625)"/>
    </defs>
    <use xlink:href="#DejaVuSans-74"/>
    <use xlink:href="#DejaVuSans-72" x="39.208984"/>
    <use xlink:href="#DejaVuSans-61" x="80.322266"/>
    <use xlink:href="#DejaVuSans-69" x="141.601562"/>
    <use xlink:href="#DejaVuSans-6e" x="169.384766"/>
    <use xlink:href="#DejaVuSans-69" x="232.763672"/>
    <use xlink:href="#DejaVuSans-6e" x="260.546875"/>
    <use xlink:href="#DejaVuSans-67" x="323.925781"/>
   </g>
  </g>
 </g>
 <defs>
  <clipPath id="p44b49424f8">
   <rect x="52.375" y="43.44" width="651.949048" height="298.76"/>
  </clipPath>
  <clipPath id="p129e745e89">
   <rect x="52.375" y="386.16" width="651.949048" height="298.76"/>
  </clipPath>
 </defs>
</svg>
