<?xml version="1.0" encoding="utf-8" standalone="no"?>
<!DOCTYPE svg PUBLIC "-//W3C//DTD SVG 1.1//EN"
  "http://www.w3.org/Graphics/SVG/1.1/DTD/svg11.dtd">
<svg xmlns:xlink="http://www.w3.org/1999/xlink" width="709.345824pt" height="708.798125pt" viewBox="0 0 709.345824 708.798125" xmlns="http://www.w3.org/2000/svg" version="1.1">
 <metadata>
  <rdf:RDF xmlns:dc="http://purl.org/dc/elements/1.1/" xmlns:cc="http://creativecommons.org/ns#" xmlns:rdf="http://www.w3.org/1999/02/22-rdf-syntax-ns#">
   <cc:Work>
    <dc:type rdf:resource="http://purl.org/dc/dcmitype/StillImage"/>
    <dc:date>2023-06-12T15:18:06.532448</dc:date>
    <dc:format>image/svg+xml</dc:format>
    <dc:creator>
     <cc:Agent>
      <dc:title>Matplotlib v3.7.1, https://matplotlib.org/</dc:title>
     </cc:Agent>
    </dc:creator>
   </cc:Work>
  </rdf:RDF>
 </metadata>
 <defs>
  <style type="text/css">*{stroke-linejoin: round; stroke-linecap: butt}</style>
 </defs>
 <g id="figure_1">
  <g id="patch_1">
   <path d="M 0 708.798125 
L 709.345824 708.798125 
L 709.345824 0 
L 0 0 
z
" style="fill: #ffffff"/>
  </g>
  <g id="axes_1">
   <g id="patch_2">
    <path d="M 28.942187 342.2 
L 702.145824 342.2 
L 702.145824 43.44 
L 28.942187 43.44 
z
" style="fill: #ffffff"/>
   </g>
   <g id="matplotlib.axis_1">
    <g id="xtick_1">
     <g id="line2d_1">
      <defs>
       <path id="m2d0b3a0a79" d="M 0 0 
L 0 3.5 
" style="stroke: #000000; stroke-width: 0.8"/>
      </defs>
      <g>
       <use xlink:href="#m2d0b3a0a79" x="59.372305" y="342.2" style="stroke: #000000; stroke-width: 0.8"/>
      </g>
     </g>
     <g id="text_1">
      <!-- 2014-07-01 -->
      <g transform="translate(30.314492 356.798437) scale(0.1 -0.1)">
       <defs>
        <path id="DejaVuSans-32" d="M 1228 531 
L 3431 531 
L 3431 0 
L 469 0 
L 469 531 
Q 828 903 1448 1529 
Q 2069 2156 2228 2338 
Q 2531 2678 2651 2914 
Q 2772 3150 2772 3378 
Q 2772 3750 2511 3984 
Q 2250 4219 1831 4219 
Q 1534 4219 1204 4116 
Q 875 4013 500 3803 
L 500 4441 
Q 881 4594 1212 4672 
Q 1544 4750 1819 4750 
Q 2544 4750 2975 4387 
Q 3406 4025 3406 3419 
Q 3406 3131 3298 2873 
Q 3191 2616 2906 2266 
Q 2828 2175 2409 1742 
Q 1991 1309 1228 531 
z
" transform="scale(0.015625)"/>
        <path id="DejaVuSans-30" d="M 2034 4250 
Q 1547 4250 1301 3770 
Q 1056 3291 1056 2328 
Q 1056 1369 1301 889 
Q 1547 409 2034 409 
Q 2525 409 2770 889 
Q 3016 1369 3016 2328 
Q 3016 3291 2770 3770 
Q 2525 4250 2034 4250 
z
M 2034 4750 
Q 2819 4750 3233 4129 
Q 3647 3509 3647 2328 
Q 3647 1150 3233 529 
Q 2819 -91 2034 -91 
Q 1250 -91 836 529 
Q 422 1150 422 2328 
Q 422 3509 836 4129 
Q 1250 4750 2034 4750 
z
" transform="scale(0.015625)"/>
        <path id="DejaVuSans-31" d="M 794 531 
L 1825 531 
L 1825 4091 
L 703 3866 
L 703 4441 
L 1819 4666 
L 2450 4666 
L 2450 531 
L 3481 531 
L 3481 0 
L 794 0 
L 794 531 
z
" transform="scale(0.015625)"/>
        <path id="DejaVuSans-34" d="M 2419 4116 
L 825 1625 
L 2419 1625 
L 2419 4116 
z
M 2253 4666 
L 3047 4666 
L 3047 1625 
L 3713 1625 
L 3713 1100 
L 3047 1100 
L 3047 0 
L 2419 0 
L 2419 1100 
L 313 1100 
L 313 1709 
L 2253 4666 
z
" transform="scale(0.015625)"/>
        <path id="DejaVuSans-2d" d="M 313 2009 
L 1997 2009 
L 1997 1497 
L 313 1497 
L 313 2009 
z
" transform="scale(0.015625)"/>
        <path id="DejaVuSans-37" d="M 525 4666 
L 3525 4666 
L 3525 4397 
L 1831 0 
L 1172 0 
L 2766 4134 
L 525 4134 
L 525 4666 
z
" transform="scale(0.015625)"/>
       </defs>
       <use xlink:href="#DejaVuSans-32"/>
       <use xlink:href="#DejaVuSans-30" x="63.623047"/>
       <use xlink:href="#DejaVuSans-31" x="127.246094"/>
       <use xlink:href="#DejaVuSans-34" x="190.869141"/>
       <use xlink:href="#DejaVuSans-2d" x="254.492188"/>
       <use xlink:href="#DejaVuSans-30" x="290.576172"/>
       <use xlink:href="#DejaVuSans-37" x="354.199219"/>
       <use xlink:href="#DejaVuSans-2d" x="417.822266"/>
       <use xlink:href="#DejaVuSans-30" x="453.90625"/>
       <use xlink:href="#DejaVuSans-31" x="517.529297"/>
      </g>
     </g>
    </g>
    <g id="xtick_2">
     <g id="line2d_2">
      <g>
       <use xlink:href="#m2d0b3a0a79" x="181.806975" y="342.2" style="stroke: #000000; stroke-width: 0.8"/>
      </g>
     </g>
     <g id="text_2">
      <!-- 2014-07-02 -->
      <g transform="translate(152.749163 356.798437) scale(0.1 -0.1)">
       <use xlink:href="#DejaVuSans-32"/>
       <use xlink:href="#DejaVuSans-30" x="63.623047"/>
       <use xlink:href="#DejaVuSans-31" x="127.246094"/>
       <use xlink:href="#DejaVuSans-34" x="190.869141"/>
       <use xlink:href="#DejaVuSans-2d" x="254.492188"/>
       <use xlink:href="#DejaVuSans-30" x="290.576172"/>
       <use xlink:href="#DejaVuSans-37" x="354.199219"/>
       <use xlink:href="#DejaVuSans-2d" x="417.822266"/>
       <use xlink:href="#DejaVuSans-30" x="453.90625"/>
       <use xlink:href="#DejaVuSans-32" x="517.529297"/>
      </g>
     </g>
    </g>
    <g id="xtick_3">
     <g id="line2d_3">
      <g>
       <use xlink:href="#m2d0b3a0a79" x="304.241646" y="342.2" style="stroke: #000000; stroke-width: 0.8"/>
      </g>
     </g>
     <g id="text_3">
      <!-- 2014-07-03 -->
      <g transform="translate(275.183834 356.798437) scale(0.1 -0.1)">
       <defs>
        <path id="DejaVuSans-33" d="M 2597 2516 
Q 3050 2419 3304 2112 
Q 3559 1806 3559 1356 
Q 3559 666 3084 287 
Q 2609 -91 1734 -91 
Q 1441 -91 1130 -33 
Q 819 25 488 141 
L 488 750 
Q 750 597 1062 519 
Q 1375 441 1716 441 
Q 2309 441 2620 675 
Q 2931 909 2931 1356 
Q 2931 1769 2642 2001 
Q 2353 2234 1838 2234 
L 1294 2234 
L 1294 2753 
L 1863 2753 
Q 2328 2753 2575 2939 
Q 2822 3125 2822 3475 
Q 2822 3834 2567 4026 
Q 2313 4219 1838 4219 
Q 1578 4219 1281 4162 
Q 984 4106 628 3988 
L 628 4550 
Q 988 4650 1302 4700 
Q 1616 4750 1894 4750 
Q 2613 4750 3031 4423 
Q 3450 4097 3450 3541 
Q 3450 3153 3228 2886 
Q 3006 2619 2597 2516 
z
" transform="scale(0.015625)"/>
       </defs>
       <use xlink:href="#DejaVuSans-32"/>
       <use xlink:href="#DejaVuSans-30" x="63.623047"/>
       <use xlink:href="#DejaVuSans-31" x="127.246094"/>
       <use xlink:href="#DejaVuSans-34" x="190.869141"/>
       <use xlink:href="#DejaVuSans-2d" x="254.492188"/>
       <use xlink:href="#DejaVuSans-30" x="290.576172"/>
       <use xlink:href="#DejaVuSans-37" x="354.199219"/>
       <use xlink:href="#DejaVuSans-2d" x="417.822266"/>
       <use xlink:href="#DejaVuSans-30" x="453.90625"/>
       <use xlink:href="#DejaVuSans-33" x="517.529297"/>
      </g>
     </g>
    </g>
    <g id="xtick_4">
     <g id="line2d_4">
      <g>
       <use xlink:href="#m2d0b3a0a79" x="426.676317" y="342.2" style="stroke: #000000; stroke-width: 0.8"/>
      </g>
     </g>
     <g id="text_4">
      <!-- 2014-07-04 -->
      <g transform="translate(397.618504 356.798437) scale(0.1 -0.1)">
       <use xlink:href="#DejaVuSans-32"/>
       <use xlink:href="#DejaVuSans-30" x="63.623047"/>
       <use xlink:href="#DejaVuSans-31" x="127.246094"/>
       <use xlink:href="#DejaVuSans-34" x="190.869141"/>
       <use xlink:href="#DejaVuSans-2d" x="254.492188"/>
       <use xlink:href="#DejaVuSans-30" x="290.576172"/>
       <use xlink:href="#DejaVuSans-37" x="354.199219"/>
       <use xlink:href="#DejaVuSans-2d" x="417.822266"/>
       <use xlink:href="#DejaVuSans-30" x="453.90625"/>
       <use xlink:href="#DejaVuSans-34" x="517.529297"/>
      </g>
     </g>
    </g>
    <g id="xtick_5">
     <g id="line2d_5">
      <g>
       <use xlink:href="#m2d0b3a0a79" x="549.110988" y="342.2" style="stroke: #000000; stroke-width: 0.8"/>
      </g>
     </g>
     <g id="text_5">
      <!-- 2014-07-05 -->
      <g transform="translate(520.053175 356.798437) scale(0.1 -0.1)">
       <defs>
        <path id="DejaVuSans-35" d="M 691 4666 
L 3169 4666 
L 3169 4134 
L 1269 4134 
L 1269 2991 
Q 1406 3038 1543 3061 
Q 1681 3084 1819 3084 
Q 2600 3084 3056 2656 
Q 3513 2228 3513 1497 
Q 3513 744 3044 326 
Q 2575 -91 1722 -91 
Q 1428 -91 1123 -41 
Q 819 9 494 109 
L 494 744 
Q 775 591 1075 516 
Q 1375 441 1709 441 
Q 2250 441 2565 725 
Q 2881 1009 2881 1497 
Q 2881 1984 2565 2268 
Q 2250 2553 1709 2553 
Q 1456 2553 1204 2497 
Q 953 2441 691 2322 
L 691 4666 
z
" transform="scale(0.015625)"/>
       </defs>
       <use xlink:href="#DejaVuSans-32"/>
       <use xlink:href="#DejaVuSans-30" x="63.623047"/>
       <use xlink:href="#DejaVuSans-31" x="127.246094"/>
       <use xlink:href="#DejaVuSans-34" x="190.869141"/>
       <use xlink:href="#DejaVuSans-2d" x="254.492188"/>
       <use xlink:href="#DejaVuSans-30" x="290.576172"/>
       <use xlink:href="#DejaVuSans-37" x="354.199219"/>
       <use xlink:href="#DejaVuSans-2d" x="417.822266"/>
       <use xlink:href="#DejaVuSans-30" x="453.90625"/>
       <use xlink:href="#DejaVuSans-35" x="517.529297"/>
      </g>
     </g>
    </g>
    <g id="xtick_6">
     <g id="line2d_6">
      <g>
       <use xlink:href="#m2d0b3a0a79" x="671.545659" y="342.2" style="stroke: #000000; stroke-width: 0.8"/>
      </g>
     </g>
     <g id="text_6">
      <!-- 2014-07-06 -->
      <g transform="translate(642.487846 356.798437) scale(0.1 -0.1)">
       <defs>
        <path id="DejaVuSans-36" d="M 2113 2584 
Q 1688 2584 1439 2293 
Q 1191 2003 1191 1497 
Q 1191 994 1439 701 
Q 1688 409 2113 409 
Q 2538 409 2786 701 
Q 3034 994 3034 1497 
Q 3034 2003 2786 2293 
Q 2538 2584 2113 2584 
z
M 3366 4563 
L 3366 3988 
Q 3128 4100 2886 4159 
Q 2644 4219 2406 4219 
Q 1781 4219 1451 3797 
Q 1122 3375 1075 2522 
Q 1259 2794 1537 2939 
Q 1816 3084 2150 3084 
Q 2853 3084 3261 2657 
Q 3669 2231 3669 1497 
Q 3669 778 3244 343 
Q 2819 -91 2113 -91 
Q 1303 -91 875 529 
Q 447 1150 447 2328 
Q 447 3434 972 4092 
Q 1497 4750 2381 4750 
Q 2619 4750 2861 4703 
Q 3103 4656 3366 4563 
z
" transform="scale(0.015625)"/>
       </defs>
       <use xlink:href="#DejaVuSans-32"/>
       <use xlink:href="#DejaVuSans-30" x="63.623047"/>
       <use xlink:href="#DejaVuSans-31" x="127.246094"/>
       <use xlink:href="#DejaVuSans-34" x="190.869141"/>
       <use xlink:href="#DejaVuSans-2d" x="254.492188"/>
       <use xlink:href="#DejaVuSans-30" x="290.576172"/>
       <use xlink:href="#DejaVuSans-37" x="354.199219"/>
       <use xlink:href="#DejaVuSans-2d" x="417.822266"/>
       <use xlink:href="#DejaVuSans-30" x="453.90625"/>
       <use xlink:href="#DejaVuSans-36" x="517.529297"/>
      </g>
     </g>
    </g>
   </g>
   <g id="matplotlib.axis_2">
    <g id="ytick_1">
     <g id="line2d_7">
      <defs>
       <path id="mf9785de73a" d="M 0 0 
L -3.5 0 
" style="stroke: #000000; stroke-width: 0.8"/>
      </defs>
      <g>
       <use xlink:href="#mf9785de73a" x="28.942187" y="320.856831" style="stroke: #000000; stroke-width: 0.8"/>
      </g>
     </g>
     <g id="text_7">
      <!-- −1 -->
      <g transform="translate(7.2 324.65605) scale(0.1 -0.1)">
       <defs>
        <path id="DejaVuSans-2212" d="M 678 2272 
L 4684 2272 
L 4684 1741 
L 678 1741 
L 678 2272 
z
" transform="scale(0.015625)"/>
       </defs>
       <use xlink:href="#DejaVuSans-2212"/>
       <use xlink:href="#DejaVuSans-31" x="83.789062"/>
      </g>
     </g>
    </g>
    <g id="ytick_2">
     <g id="line2d_8">
      <g>
       <use xlink:href="#mf9785de73a" x="28.942187" y="287.38791" style="stroke: #000000; stroke-width: 0.8"/>
      </g>
     </g>
     <g id="text_8">
      <!-- 0 -->
      <g transform="translate(15.579687 291.187128) scale(0.1 -0.1)">
       <use xlink:href="#DejaVuSans-30"/>
      </g>
     </g>
    </g>
    <g id="ytick_3">
     <g id="line2d_9">
      <g>
       <use xlink:href="#mf9785de73a" x="28.942187" y="253.918988" style="stroke: #000000; stroke-width: 0.8"/>
      </g>
     </g>
     <g id="text_9">
      <!-- 1 -->
      <g transform="translate(15.579687 257.718207) scale(0.1 -0.1)">
       <use xlink:href="#DejaVuSans-31"/>
      </g>
     </g>
    </g>
    <g id="ytick_4">
     <g id="line2d_10">
      <g>
       <use xlink:href="#mf9785de73a" x="28.942187" y="220.450066" style="stroke: #000000; stroke-width: 0.8"/>
      </g>
     </g>
     <g id="text_10">
      <!-- 2 -->
      <g transform="translate(15.579687 224.249285) scale(0.1 -0.1)">
       <use xlink:href="#DejaVuSans-32"/>
      </g>
     </g>
    </g>
    <g id="ytick_5">
     <g id="line2d_11">
      <g>
       <use xlink:href="#mf9785de73a" x="28.942187" y="186.981144" style="stroke: #000000; stroke-width: 0.8"/>
      </g>
     </g>
     <g id="text_11">
      <!-- 3 -->
      <g transform="translate(15.579687 190.780363) scale(0.1 -0.1)">
       <use xlink:href="#DejaVuSans-33"/>
      </g>
     </g>
    </g>
    <g id="ytick_6">
     <g id="line2d_12">
      <g>
       <use xlink:href="#mf9785de73a" x="28.942187" y="153.512223" style="stroke: #000000; stroke-width: 0.8"/>
      </g>
     </g>
     <g id="text_12">
      <!-- 4 -->
      <g transform="translate(15.579687 157.311441) scale(0.1 -0.1)">
       <use xlink:href="#DejaVuSans-34"/>
      </g>
     </g>
    </g>
    <g id="ytick_7">
     <g id="line2d_13">
      <g>
       <use xlink:href="#mf9785de73a" x="28.942187" y="120.043301" style="stroke: #000000; stroke-width: 0.8"/>
      </g>
     </g>
     <g id="text_13">
      <!-- 5 -->
      <g transform="translate(15.579687 123.84252) scale(0.1 -0.1)">
       <use xlink:href="#DejaVuSans-35"/>
      </g>
     </g>
    </g>
    <g id="ytick_8">
     <g id="line2d_14">
      <g>
       <use xlink:href="#mf9785de73a" x="28.942187" y="86.574379" style="stroke: #000000; stroke-width: 0.8"/>
      </g>
     </g>
     <g id="text_14">
      <!-- 6 -->
      <g transform="translate(15.579687 90.373598) scale(0.1 -0.1)">
       <use xlink:href="#DejaVuSans-36"/>
      </g>
     </g>
    </g>
    <g id="ytick_9">
     <g id="line2d_15">
      <g>
       <use xlink:href="#mf9785de73a" x="28.942187" y="53.105457" style="stroke: #000000; stroke-width: 0.8"/>
      </g>
     </g>
     <g id="text_15">
      <!-- 7 -->
      <g transform="translate(15.579687 56.904676) scale(0.1 -0.1)">
       <use xlink:href="#DejaVuSans-37"/>
      </g>
     </g>
    </g>
   </g>
   <g id="line2d_16">
    <path d="M 59.542353 287.38791 
L 59.797425 287.308888 
L 61.327858 286.068907 
L 62.008051 285.564667 
L 63.708533 283.890484 
L 64.728821 283.07578 
L 65.579062 282.731694 
L 66.429303 282.49072 
L 67.109496 282.352984 
L 67.789688 282.398045 
L 68.469881 282.669236 
L 72.21094 284.483348 
L 72.976157 284.597637 
L 73.486301 284.481909 
L 73.996446 284.140797 
L 74.50659 283.456258 
L 75.781951 280.691808 
L 76.292096 278.738618 
L 77.397409 271.096783 
L 77.652481 269.905552 
L 77.992577 268.87442 
L 78.24765 268.164905 
L 78.417698 268.10721 
L 78.502722 267.952867 
L 78.842818 266.732481 
L 79.012866 266.6131 
L 79.09789 266.435942 
L 79.352963 265.289856 
L 79.608035 265.220114 
L 79.693059 265.011186 
L 80.033155 262.709998 
L 80.288228 261.529047 
L 80.5433 259.730586 
L 80.798372 259.344901 
L 80.96842 259.867999 
L 81.138468 259.285812 
L 81.478565 259.651851 
L 81.563589 259.669153 
L 81.733637 258.738229 
L 82.158757 258.842581 
L 82.328805 258.068907 
L 82.753926 258.520621 
L 82.923974 257.854473 
L 83.349094 258.447903 
L 83.519142 257.801315 
L 83.859239 258.292388 
L 84.029287 259.188431 
L 84.199335 258.834507 
L 84.539431 259.423606 
L 84.624455 259.491908 
L 84.794504 258.617216 
L 84.879528 258.652458 
L 85.219624 258.781371 
L 85.389672 258.017118 
L 85.814793 258.5063 
L 85.984841 257.838025 
L 86.409961 258.50221 
L 86.580009 258.265904 
L 86.920106 259.3547 
L 87.175178 260.775484 
L 87.345226 261.366991 
L 87.685322 262.770114 
L 87.85537 262.901947 
L 88.195467 264.139162 
L 88.280491 263.075129 
L 88.535563 253.516065 
L 88.790635 245.800705 
L 88.960683 247.384702 
L 89.130732 249.142336 
L 89.385804 245.197072 
L 89.470828 245.586936 
L 89.555852 241.242411 
L 89.7259 242.923584 
L 89.810924 240.291561 
L 89.895948 240.893838 
L 90.065996 238.675873 
L 90.15102 239.50205 
L 90.236045 239.23573 
L 90.491117 237.924612 
L 90.576141 238.210542 
L 90.661165 238.110804 
L 90.831213 237.139043 
L 91.001261 237.772257 
L 91.171309 236.467615 
L 91.341358 237.360051 
L 91.511406 236.374309 
L 91.681454 237.756984 
L 91.851502 236.264147 
L 91.936526 236.229535 
L 92.02155 231.687487 
L 92.191598 233.820582 
L 92.361646 221.566242 
L 92.446671 222.801969 
L 92.786767 177.882431 
L 92.956815 152.936047 
L 93.977104 59.696218 
L 94.147152 60.618789 
L 94.3172 59.324321 
L 94.487248 57.02 
L 94.912369 59.206957 
L 94.997393 57.844118 
L 95.082417 58.047646 
L 95.507537 60.925925 
L 95.677585 61.563097 
L 96.102706 66.462451 
L 96.357778 71.25847 
L 96.442802 72.167922 
L 96.61285 71.069624 
L 97.037971 74.587261 
L 97.208019 73.572079 
L 97.378067 76.11874 
L 97.548115 77.280971 
L 97.633139 77.39002 
L 97.803187 76.855913 
L 98.228308 80.588106 
L 98.398356 80.37339 
L 98.823476 83.829153 
L 98.993524 83.934452 
L 99.163573 85.984367 
L 99.418645 88.940063 
L 99.758741 89.900138 
L 99.928789 91.60653 
L 100.013813 91.396076 
L 100.098837 91.445757 
L 100.864054 94.456242 
L 100.949078 94.694321 
L 101.119126 96.148829 
L 101.20415 96.072337 
L 101.289175 96.201479 
L 101.714295 98.402639 
L 101.799319 98.344659 
L 101.884343 98.444707 
L 102.394488 100.776063 
L 102.564536 99.99687 
L 102.64956 100.182827 
L 102.734584 100.09162 
L 102.819608 99.759029 
L 102.989656 99.955615 
L 103.244728 97.800162 
L 103.414776 96.518221 
L 103.499801 96.779251 
L 103.584825 96.863388 
L 103.924921 91.159113 
L 104.009945 90.238218 
L 104.094969 90.913038 
L 104.179993 90.302614 
L 104.520089 78.258809 
L 104.605114 77.645352 
L 104.690138 78.469247 
L 104.775162 76.596959 
L 105.115258 60.441514 
L 105.200282 60.214989 
L 105.37033 61.213095 
L 105.540378 65.017104 
L 106.475643 95.065086 
L 106.900764 100.482701 
L 107.325884 103.674929 
L 107.921053 105.731243 
L 108.346173 106.481678 
L 108.601245 106.760326 
L 108.856317 107.016072 
L 110.046654 108.780349 
L 110.896895 110.150033 
L 111.492064 110.82048 
L 113.70269 111.920614 
L 115.233123 112.800446 
L 119.399303 114.620723 
L 120.759688 114.781847 
L 120.929736 114.447406 
L 121.01476 114.524281 
L 121.099784 114.356374 
L 121.354857 113.315147 
L 121.524905 112.662718 
L 121.779977 111.621921 
L 121.950025 110.541034 
L 122.205097 107.465548 
L 122.290122 107.059529 
L 122.715242 107.866922 
L 122.88529 108.044006 
L 123.140362 108.460398 
L 123.480459 108.834466 
L 123.905579 109.228404 
L 124.075627 109.305503 
L 124.585772 109.520362 
L 125.18094 109.572389 
L 127.391566 109.240341 
L 127.561614 109.20322 
L 127.816687 109.094027 
L 128.156783 109.038713 
L 128.411855 108.901032 
L 128.751951 108.823311 
L 129.007024 108.686652 
L 129.34712 108.617708 
L 129.602192 108.490896 
L 130.622481 108.397966 
L 130.792529 108.268488 
L 131.132626 108.289315 
L 131.472722 108.056087 
L 131.812818 107.936648 
L 131.982866 107.807698 
L 132.322963 107.836249 
L 132.578035 107.596637 
L 133.003155 107.669427 
L 133.258227 107.520783 
L 133.598324 107.622539 
L 133.853396 107.375075 
L 134.193492 107.40053 
L 134.448565 107.108684 
L 134.788661 107.134665 
L 135.043733 106.851198 
L 135.298805 106.904613 
L 135.383829 106.896777 
L 135.638902 106.623763 
L 135.978998 106.7391 
L 136.149046 106.636115 
L 136.319094 106.581806 
L 136.574166 106.703128 
L 136.659191 106.689371 
L 136.914263 106.393295 
L 137.169335 106.432555 
L 137.254359 106.41168 
L 137.424407 106.036559 
L 137.509431 106.076186 
L 137.679479 106.114711 
L 138.1046 106.225724 
L 139.294937 108.277122 
L 140.740346 110.76566 
L 141.505563 111.226419 
L 142.015707 111.595365 
L 144.056285 113.742248 
L 147.2872 117.676723 
L 147.542272 117.7626 
L 147.797345 117.694725 
L 148.052417 117.513365 
L 149.15773 115.964011 
L 150.178019 115.281722 
L 151.113284 114.907574 
L 151.538404 114.575207 
L 152.133573 114.184685 
L 152.388645 114.042233 
L 153.238886 113.453705 
L 154.17415 112.213066 
L 154.684295 111.27543 
L 154.939367 110.834955 
L 155.364487 108.696722 
L 155.959656 108.867662 
L 156.299752 109.084149 
L 156.4698 108.945479 
L 156.724873 108.939207 
L 156.894921 108.914837 
L 157.064969 108.875561 
L 157.405065 109.063338 
L 158.085258 109.386496 
L 159.105547 107.936856 
L 159.360619 107.886776 
L 159.530667 107.839425 
L 159.955788 107.98309 
L 160.125836 107.966205 
L 160.891052 108.50285 
L 162.336462 110.361621 
L 162.50651 110.302268 
L 163.186703 109.610324 
L 163.526799 109.313147 
L 163.696847 109.085697 
L 163.951919 108.685822 
L 164.632112 108.323883 
L 165.057232 108.704175 
L 165.992497 109.905618 
L 166.162545 109.666341 
L 167.52293 107.634444 
L 167.863027 107.571038 
L 168.118099 107.149523 
L 168.713268 107.244241 
L 170.328725 109.454227 
L 170.923894 109.604196 
L 171.774134 108.797186 
L 172.029207 108.843579 
L 172.539351 109.304003 
L 172.964471 109.746664 
L 173.55964 109.936722 
L 174.069784 109.6278 
L 174.409881 109.000379 
L 174.835001 108.589891 
L 175.090073 108.677507 
L 175.260121 108.692844 
L 175.43017 108.63188 
L 175.85529 108.70858 
L 176.28041 108.2419 
L 176.450459 108.118328 
L 176.705531 107.722763 
L 177.215675 107.764863 
L 179.426301 110.202555 
L 179.851422 110.576639 
L 180.106494 110.732513 
L 180.276542 110.636072 
L 181.806975 107.801633 
L 182.232096 107.79019 
L 183.167361 108.537018 
L 183.847553 107.866938 
L 184.017601 107.495759 
L 184.357698 107.26127 
L 184.61277 107.054438 
L 185.633059 107.59694 
L 185.888131 107.639073 
L 186.313252 107.972221 
L 186.4833 108.029052 
L 186.823396 108.281719 
L 187.248516 107.876945 
L 187.673637 107.680519 
L 188.013733 108.008449 
L 188.77895 108.724268 
L 189.034022 108.779519 
L 189.374118 108.864055 
L 189.629191 108.816177 
L 190.054311 108.964007 
L 190.819528 109.390677 
L 191.329672 109.439018 
L 191.669768 109.535108 
L 192.179913 109.951197 
L 192.434985 110.105076 
L 192.775081 109.809432 
L 192.94513 109.649919 
L 193.625322 107.688339 
L 193.79537 107.554537 
L 194.050443 107.734142 
L 194.900683 108.898415 
L 195.325804 109.192847 
L 195.580876 109.217408 
L 196.09102 109.107704 
L 196.346093 108.619575 
L 196.686189 108.072318 
L 196.941261 107.724024 
L 197.196333 107.726816 
L 197.451406 107.94699 
L 197.96155 108.849883 
L 198.981839 110.81424 
L 200.427248 111.884753 
L 201.022417 112.485347 
L 202.637874 114.315998 
L 204.168308 116.247607 
L 205.783765 118.327892 
L 206.804054 119.674403 
L 207.059126 119.881793 
L 207.229174 118.914154 
L 207.314199 119.409337 
L 207.399223 119.274657 
L 207.909367 109.478517 
L 208.079415 97.494942 
L 208.334487 94.815787 
L 208.58956 94.518945 
L 208.674584 94.512051 
L 208.844632 95.610445 
L 209.01468 93.893184 
L 209.099704 94.00276 
L 209.269752 93.31771 
L 209.524825 95.338819 
L 209.694873 94.248437 
L 209.779897 94.333084 
L 209.949945 93.651641 
L 210.119993 94.755844 
L 210.290041 93.292255 
L 210.375065 93.401576 
L 210.545113 93.018922 
L 210.715162 94.38709 
L 210.88521 93.495448 
L 210.970234 93.782363 
L 211.055258 93.744269 
L 211.140282 93.811553 
L 211.31033 95.218374 
L 211.480378 94.693651 
L 211.650426 95.170529 
L 211.735451 95.289664 
L 211.905499 96.670696 
L 212.075547 96.38035 
L 212.840764 99.703396 
L 213.18086 100.936166 
L 213.265884 100.821052 
L 213.350908 100.77094 
L 213.520956 101.339312 
L 213.60598 101.347435 
L 213.776028 101.929979 
L 213.946077 101.787208 
L 214.116125 102.30984 
L 214.201149 102.311724 
L 214.371197 102.736143 
L 214.541245 102.595989 
L 214.796317 103.070425 
L 214.966365 103.390519 
L 215.136414 103.246232 
L 215.391486 103.678583 
L 216.156703 104.725748 
L 216.241727 104.797118 
L 216.411775 104.649958 
L 216.666847 104.967674 
L 216.836895 105.110349 
L 217.006943 104.962471 
L 217.34704 105.374315 
L 217.432064 105.330188 
L 217.687136 104.261606 
L 217.77216 104.224548 
L 218.112256 102.152147 
L 218.282304 101.308271 
L 218.367329 101.048439 
L 218.537377 100.161298 
L 218.622401 100.603464 
L 218.707425 100.272741 
L 218.877473 97.847481 
L 218.962497 98.035194 
L 219.302593 96.052659 
L 219.472642 91.387298 
L 219.557666 91.043808 
L 219.727714 88.293299 
L 219.812738 89.654462 
L 219.897762 87.258775 
L 220.237858 62.273282 
L 220.322882 61.817646 
L 220.407906 62.115573 
L 220.577955 64.616144 
L 220.833027 73.886093 
L 221.173123 88.96014 
L 221.598243 97.758062 
L 222.023364 102.994443 
L 222.36346 105.382773 
L 222.873605 107.327852 
L 223.298725 108.113285 
L 223.723845 108.597025 
L 224.574086 109.456669 
L 225.764423 110.981892 
L 226.444616 111.4156 
L 228.060073 112.972773 
L 229.335434 114.480218 
L 230.185675 115.517392 
L 231.716109 117.482579 
L 232.311277 118.236541 
L 233.161518 119.32879 
L 234.351855 120.520625 
L 234.776975 120.629356 
L 235.202096 120.557762 
L 236.562481 120.136231 
L 237.072625 119.983901 
L 238.262963 118.868734 
L 238.773107 118.013112 
L 240.473589 114.474313 
L 240.728661 113.642087 
L 241.493877 110.950819 
L 241.833974 107.01454 
L 242.089046 106.888558 
L 243.704503 109.063019 
L 243.874552 109.047155 
L 244.129624 108.847473 
L 244.384696 108.708612 
L 244.894841 107.720417 
L 245.404985 107.246731 
L 245.745081 107.477932 
L 246.425274 108.38282 
L 246.935418 108.51991 
L 247.190491 108.324665 
L 247.615611 108.2626 
L 247.955707 108.528273 
L 248.125755 108.514149 
L 248.295804 108.333044 
L 248.550876 108.282852 
L 248.6359 108.202114 
L 248.975996 107.457169 
L 249.316093 107.178761 
L 249.486141 107.23556 
L 249.826237 107.746095 
L 249.996285 107.886967 
L 250.166333 107.930105 
L 250.421406 108.116652 
L 250.50643 108.101076 
L 250.93155 107.356084 
L 251.271646 106.997256 
L 251.526719 107.19156 
L 252.121887 108.220371 
L 252.887104 109.657276 
L 253.057152 109.791844 
L 253.397248 109.689402 
L 253.737345 109.498067 
L 254.077441 109.37384 
L 254.502561 109.580895 
L 254.842658 109.793807 
L 255.182754 109.603813 
L 255.437826 109.446646 
L 255.947971 108.331847 
L 256.373091 107.75441 
L 256.798211 107.784222 
L 257.8185 108.37374 
L 258.158597 108.41276 
L 258.498693 108.599994 
L 258.923813 108.219573 
L 259.093861 108.082085 
L 259.433958 107.499366 
L 259.944102 107.236756 
L 260.369223 107.484507 
L 260.539271 107.520879 
L 260.879367 107.783934 
L 261.134439 107.801617 
L 261.98468 108.587817 
L 262.239752 108.752899 
L 262.494824 108.644967 
L 262.834921 108.536619 
L 263.089993 108.457765 
L 263.515113 108.637609 
L 264.365354 109.444476 
L 264.620426 109.686976 
L 265.130571 109.104497 
L 265.300619 108.773502 
L 265.555691 108.253838 
L 265.980812 107.910603 
L 266.235884 108.019317 
L 266.405932 108.143496 
L 266.746028 107.930408 
L 267.426221 107.878381 
L 267.766317 108.129771 
L 267.936365 108.153534 
L 268.276462 108.3581 
L 268.701582 108.080265 
L 268.87163 107.99782 
L 269.211727 107.331267 
L 269.466799 107.016391 
L 269.721871 106.385332 
L 269.891919 106.290757 
L 270.146991 106.252455 
L 270.31704 106.458505 
L 272.102545 109.7248 
L 272.61269 110.137042 
L 273.888051 108.526086 
L 274.143123 108.09158 
L 274.398195 107.819923 
L 274.738292 107.043219 
L 275.248436 106.476379 
L 275.75858 106.935686 
L 276.948918 109.063625 
L 277.20399 109.091841 
L 277.62911 109.118844 
L 277.969206 109.224015 
L 278.054231 109.251944 
L 278.649399 108.603441 
L 279.074519 107.502829 
L 279.414616 107.137426 
L 279.669688 107.359738 
L 280.264857 108.122765 
L 280.519929 108.359616 
L 281.285145 107.599685 
L 281.540218 107.64019 
L 281.710266 107.734333 
L 281.965338 107.41534 
L 282.22041 107.378905 
L 282.390458 107.23698 
L 282.560507 107.156338 
L 282.985627 107.490843 
L 283.410747 108.243608 
L 284.601084 110.671868 
L 284.941181 110.943861 
L 286.896735 112.595322 
L 287.661951 113.424196 
L 291.573059 118.245558 
L 292.253251 118.84106 
L 292.84842 119.036944 
L 294.208805 119.522312 
L 295.909287 121.024634 
L 298.034889 123.254042 
L 299.140202 124.134895 
L 300.585611 125.457069 
L 302.626189 127.309616 
L 303.136333 127.438327 
L 303.731502 127.188837 
L 304.496718 126.120813 
L 305.091887 124.935186 
L 306.537296 120.058574 
L 307.047441 117.68914 
L 307.472561 115.513466 
L 307.727633 114.056421 
L 308.06773 111.385229 
L 308.152754 110.080148 
L 308.407826 102.856939 
L 308.49285 102.21509 
L 308.577874 102.446627 
L 308.662898 102.304414 
L 308.832946 101.570545 
L 308.91797 101.834734 
L 309.002995 101.774041 
L 309.088019 101.609996 
L 309.258067 101.814817 
L 309.428115 101.256579 
L 309.598163 101.609773 
L 309.683187 101.460618 
L 309.853235 101.722525 
L 310.023283 101.186199 
L 310.193332 101.58917 
L 310.278356 101.414001 
L 310.36338 101.56413 
L 310.533428 102.053711 
L 310.703476 101.697341 
L 310.873524 102.073245 
L 310.958548 101.964802 
L 311.128596 102.139364 
L 311.298645 101.507187 
L 311.468693 101.826563 
L 311.553717 101.620865 
L 311.723765 101.848539 
L 311.893813 101.244929 
L 312.063861 101.649304 
L 312.148885 101.461001 
L 312.318934 101.743639 
L 312.488982 101.184779 
L 312.65903 101.59932 
L 312.744054 101.411879 
L 312.914102 101.710524 
L 313.08415 101.169234 
L 313.254198 101.579466 
L 313.339222 101.403404 
L 313.424247 101.53877 
L 313.594295 102.057557 
L 313.764343 101.714481 
L 313.934391 102.077554 
L 314.019415 101.972031 
L 314.189463 102.189556 
L 314.359511 101.792825 
L 314.52956 102.197216 
L 314.614584 102.110446 
L 314.784632 102.457575 
L 314.95468 102.304765 
L 315.209752 102.832553 
L 315.3798 103.224703 
L 315.464824 103.180464 
L 315.549848 103.242976 
L 315.804921 103.821163 
L 315.889945 103.978665 
L 315.974969 103.361681 
L 316.230041 98.956408 
L 316.485113 95.101808 
L 316.740186 97.265736 
L 317.165306 101.891565 
L 317.760474 105.562283 
L 318.440667 108.0024 
L 319.290908 109.793297 
L 319.9711 110.742248 
L 320.736317 111.033791 
L 322.946943 111.707335 
L 323.542112 111.856761 
L 324.817473 112.091473 
L 326.858051 112.274829 
L 327.453219 112.504881 
L 328.898629 113.589486 
L 330.684134 115.466578 
L 331.959495 116.930502 
L 333.830025 119.160325 
L 335.020362 120.604156 
L 337.230988 123.402079 
L 340.887023 128.103284 
L 343.097649 130.988106 
L 345.733396 134.415493 
L 347.944022 137.237834 
L 348.53919 137.995578 
L 350.494744 140.429153 
L 351.174937 141.294175 
L 355.171068 146.30202 
L 356.531454 147.991416 
L 358.827104 150.901565 
L 360.187489 152.63089 
L 362.823235 155.95013 
L 364.18362 157.666337 
L 365.544006 159.362436 
L 367.499559 161.804556 
L 368.434824 162.948059 
L 369.625161 164.42874 
L 371.155595 166.303438 
L 372.771052 168.295309 
L 373.961389 169.73219 
L 375.151726 171.186323 
L 376.342063 172.613708 
L 377.362352 173.848992 
L 393.431903 192.619204 
L 394.792288 194.15417 
L 399.298564 199.207986 
L 403.294696 203.617751 
L 405.760394 206.312498 
L 407.205803 207.875768 
L 409.076333 209.897866 
L 415.538163 216.752154 
L 423.19033 224.699605 
L 424.720763 226.258498 
L 427.78163 229.375451 
L 430.247328 231.857058 
L 433.138147 234.750881 
L 441.045386 242.554611 
L 449.207697 250.461821 
L 464.171935 264.644258 
L 466.467585 266.756122 
L 472.674343 272.416745 
L 475.225065 274.716415 
L 477.605739 276.852387 
L 479.476269 278.514381 
L 482.112015 280.859728 
L 484.832786 283.249368 
L 487.468532 285.562179 
L 488.828917 286.740336 
L 489.424086 287.106527 
L 490.274327 287.285363 
L 491.974808 287.367899 
L 503.878179 287.382291 
L 508.044359 287.384452 
L 570.962176 287.370676 
L 671.545659 287.370369 
L 671.545659 287.370369 
" clip-path="url(#p80ed6f4dce)" style="fill: none; stroke: #1f77b4; stroke-width: 1.5; stroke-linecap: square"/>
   </g>
   <g id="line2d_17">
    <path d="M 59.542353 287.38791 
L 60.647666 287.470113 
L 60.987762 287.498034 
L 62.433171 287.615107 
L 62.858292 287.684311 
L 63.708533 287.788349 
L 63.963605 287.82441 
L 64.813846 287.892842 
L 65.153942 287.976753 
L 66.089207 288.051806 
L 66.429303 288.143687 
L 71.615772 288.205666 
L 72.466012 288.314957 
L 73.401277 288.408723 
L 73.65635 288.547084 
L 74.08147 288.628553 
L 74.251518 288.703579 
L 74.761663 288.797523 
L 74.931711 288.883472 
L 75.356831 288.988545 
L 75.526879 289.084256 
L 75.952 289.19927 
L 76.122048 289.303512 
L 76.547168 289.427255 
L 76.717216 289.538815 
L 77.142337 289.670101 
L 77.312385 289.788004 
L 77.822529 289.925793 
L 77.992577 290.048444 
L 78.417698 290.19132 
L 78.587746 290.317784 
L 79.012866 290.464757 
L 79.09789 290.6384 
L 79.182915 290.593815 
L 79.608035 290.735222 
L 79.693059 290.924031 
L 79.778083 290.853389 
L 80.033155 290.881186 
L 80.118179 290.810534 
L 80.288228 291.188154 
L 80.373252 291.118034 
L 80.713348 291.145816 
L 80.798372 291.075693 
L 80.96842 291.453364 
L 81.053444 291.382767 
L 81.308516 291.410716 
L 81.393541 291.340125 
L 81.563589 291.717873 
L 81.648613 291.647311 
L 81.903685 291.675336 
L 81.988709 291.60477 
L 82.158757 291.98257 
L 82.243781 291.912033 
L 82.498854 291.940135 
L 82.583878 291.869595 
L 82.753926 292.247446 
L 82.83895 292.176935 
L 83.094022 292.205115 
L 83.179046 292.134591 
L 83.349094 292.512468 
L 83.434118 292.442476 
L 83.774215 292.470771 
L 83.859239 292.400776 
L 84.029287 292.778705 
L 84.114311 292.708236 
L 84.369383 292.736571 
L 84.454407 292.666109 
L 84.624455 293.044115 
L 84.70948 292.973681 
L 84.964552 293.002093 
L 85.049576 292.931656 
L 85.219624 293.309714 
L 85.304648 293.239307 
L 85.55972 293.267797 
L 85.644744 293.197385 
L 85.814793 293.575492 
L 85.899817 293.505168 
L 86.324937 293.661264 
L 86.409961 293.849745 
L 86.494985 293.791203 
L 87.00513 293.94588 
L 87.090154 294.125039 
L 87.175178 294.077319 
L 87.600298 294.219639 
L 87.770346 294.342398 
L 88.025419 294.388337 
L 88.365515 293.30838 
L 88.450539 293.356014 
L 88.705611 293.333121 
L 88.960683 293.501064 
L 91.681454 293.651388 
L 91.851502 292.326514 
L 92.02155 290.99814 
L 92.276622 291.107935 
L 92.446671 289.885565 
L 92.616719 288.667041 
L 92.786767 288.719651 
L 92.956815 288.768635 
L 93.126863 287.703893 
L 93.296911 286.635667 
L 93.551984 286.727132 
L 93.722032 285.829953 
L 93.89208 284.933036 
L 94.147152 285.016233 
L 94.657297 283.586985 
L 94.742321 283.637746 
L 95.082417 282.500361 
L 95.167441 282.550354 
L 95.422513 282.352321 
L 95.677585 281.71545 
L 95.76261 281.757355 
L 96.017682 281.776694 
L 96.357778 281.167356 
L 96.61285 281.223499 
L 96.782898 281.020621 
L 96.867923 280.986469 
L 97.037971 280.854895 
L 98.48338 280.501536 
L 98.653428 280.74344 
L 98.823476 280.651948 
L 99.248597 280.708601 
L 99.333621 280.857808 
L 99.503669 280.777998 
L 99.758741 280.694165 
L 99.928789 281.031404 
L 100.098837 280.960678 
L 100.35391 280.886071 
L 100.523958 281.247597 
L 100.694006 281.184818 
L 100.949078 281.118341 
L 101.119126 281.492448 
L 101.20415 281.418697 
L 101.629271 281.56606 
L 101.714295 281.754756 
L 101.799319 281.689385 
L 102.139415 281.716914 
L 102.224439 281.61966 
L 102.394488 281.941251 
L 102.564536 281.866985 
L 102.904632 281.875074 
L 102.989656 281.989691 
L 103.159704 281.898116 
L 103.584825 281.702833 
L 103.754873 281.574537 
L 103.924921 281.600129 
L 104.435065 280.368253 
L 104.520089 280.443366 
L 104.690138 279.163121 
L 104.860186 277.884787 
L 105.030234 277.933701 
L 105.285306 277.90877 
L 105.540378 278.172409 
L 105.965499 278.291251 
L 106.135547 278.39987 
L 106.560667 278.511021 
L 106.730715 278.613143 
L 107.155836 278.716558 
L 107.325884 278.812019 
L 107.751004 278.907802 
L 107.921053 278.996703 
L 108.431197 279.084229 
L 108.601245 279.166539 
L 115.148099 279.599664 
L 115.488195 279.625599 
L 116.338436 279.71194 
L 116.678532 279.740659 
L 117.613797 279.835282 
L 117.86887 279.868658 
L 118.71911 279.928861 
L 119.059207 280.008829 
L 119.909447 280.075353 
L 120.249544 280.162711 
L 120.58964 280.09439 
L 120.759688 280.458243 
L 120.929736 280.395695 
L 121.269833 280.434468 
L 121.524905 280.478822 
L 122.375146 280.559662 
L 122.715242 280.665054 
L 123.055338 280.713872 
L 123.31041 280.764541 
L 123.735531 280.815217 
L 123.990603 280.868415 
L 124.330699 280.921839 
L 124.585772 280.977445 
L 124.925868 281.033292 
L 125.095916 281.088671 
L 125.521036 281.149742 
L 125.691085 281.207523 
L 126.116205 281.271356 
L 126.286253 281.331684 
L 126.796398 281.397746 
L 126.966446 281.460558 
L 127.391566 281.53017 
L 127.561614 281.595605 
L 127.986735 281.668239 
L 128.156783 281.736371 
L 128.581903 281.812113 
L 128.751951 281.883012 
L 129.177072 281.961949 
L 129.34712 282.035774 
L 129.857264 282.117415 
L 130.027313 282.194048 
L 130.452433 282.279599 
L 130.622481 282.359183 
L 131.047601 282.448153 
L 131.21765 282.530745 
L 131.64277 282.6232 
L 131.812818 282.708846 
L 132.237939 282.804851 
L 132.407987 282.893712 
L 132.918131 282.992815 
L 133.088179 283.08468 
L 133.5133 283.187914 
L 133.683348 283.282916 
L 134.108468 283.389817 
L 134.278516 283.487968 
L 134.703637 283.598554 
L 134.873685 283.699846 
L 135.298805 283.814124 
L 135.468853 283.918695 
L 135.978998 284.036235 
L 136.149046 284.143725 
L 136.574166 284.265311 
L 136.744215 284.375812 
L 137.169335 284.500983 
L 137.339383 284.614492 
L 137.764504 284.694201 
L 137.934552 284.765088 
L 143.631165 284.92069 
L 146.351935 284.998694 
L 146.521983 285.079726 
L 146.947104 285.194086 
L 147.117152 285.299605 
L 147.542272 285.388743 
L 147.712321 285.469145 
L 148.222465 285.540081 
L 148.392513 285.605148 
L 150.007971 285.778596 
L 150.178019 285.84247 
L 150.603139 285.910537 
L 150.773187 285.973464 
L 151.283332 286.041341 
L 151.45338 286.104265 
L 152.473669 286.21986 
L 152.643717 286.303782 
L 153.068837 286.405387 
L 153.238886 286.498638 
L 153.664006 286.587118 
L 153.834054 286.667518 
L 154.854343 286.782618 
L 155.109415 286.92332 
L 156.04468 286.958978 
L 156.299752 287.180817 
L 157.91521 287.32356 
L 158.170282 287.582965 
L 159.190571 287.791661 
L 159.360619 287.872216 
L 159.785739 287.950161 
L 159.955788 288.021053 
L 162.166414 288.153349 
L 162.421486 288.380918 
L 163.441775 288.46011 
L 163.696847 288.703622 
L 165.907473 289.009144 
L 166.077521 289.126363 
L 166.587666 289.218761 
L 166.757714 289.300024 
L 167.182834 289.406601 
L 167.352882 289.50388 
L 167.778003 289.622142 
L 167.948051 289.729293 
L 170.243701 290.004666 
L 170.413749 290.087232 
L 170.838869 290.181782 
L 171.008918 290.267648 
L 172.709399 290.438657 
L 172.879447 290.509706 
L 173.814712 290.616523 
L 174.069784 290.848646 
L 175.090073 290.970161 
L 175.260121 291.066204 
L 175.770266 291.177973 
L 175.940314 291.278535 
L 176.365434 291.37175 
L 176.535483 291.454907 
L 178.15094 291.652551 
L 178.491036 291.681933 
L 179.426301 291.762742 
L 179.596349 291.823166 
L 180.02147 291.928562 
L 180.191518 292.025235 
L 180.616638 292.120011 
L 180.786686 292.204642 
L 181.211807 292.313515 
L 181.381855 292.412154 
L 182.487168 292.581255 
L 182.657216 292.654066 
L 183.082337 292.767824 
L 183.252385 292.871399 
L 183.677505 292.990679 
L 183.847553 293.097458 
L 184.272674 293.179304 
L 184.442722 293.250827 
L 184.952866 293.35727 
L 185.122914 293.453622 
L 186.058179 293.560893 
L 186.313252 293.718014 
L 186.738372 293.840995 
L 186.90842 293.952951 
L 188.608902 294.228662 
L 188.77895 294.297024 
L 189.20407 294.365733 
L 189.374118 294.426881 
L 190.394407 294.540501 
L 190.564455 294.629416 
L 192.264937 294.827317 
L 192.434985 294.940196 
L 192.860105 295.069856 
L 193.030154 295.18491 
L 195.325804 295.53025 
L 195.580876 295.591182 
L 195.835948 295.565882 
L 196.09102 295.834066 
L 198.556719 296.003962 
L 206.804054 296.120474 
L 207.14415 295.418205 
L 207.399223 295.480761 
L 207.739319 294.998597 
L 207.994391 295.055534 
L 208.164439 294.906348 
L 208.249463 294.913022 
L 208.419512 294.793519 
L 209.4398 294.694946 
L 209.524825 294.802251 
L 209.694873 294.709897 
L 210.034969 294.754518 
L 210.119993 294.894337 
L 210.290041 294.812996 
L 210.545113 294.728896 
L 210.715162 295.054391 
L 210.88521 294.982652 
L 211.140282 294.908294 
L 211.31033 295.263837 
L 211.480378 295.200505 
L 211.735451 295.13472 
L 211.905499 295.507437 
L 211.990523 295.431869 
L 212.330619 295.461908 
L 212.415643 295.394616 
L 212.585691 295.774284 
L 212.670715 295.706564 
L 213.095836 295.862623 
L 213.18086 296.051965 
L 213.265884 295.991645 
L 213.691004 296.148396 
L 213.776028 296.334176 
L 213.861052 296.280411 
L 214.286173 296.435091 
L 214.371197 296.615051 
L 214.456221 296.56711 
L 214.881341 296.717669 
L 214.966365 296.890165 
L 215.05139 296.847671 
L 215.561534 296.993484 
L 215.731582 297.119344 
L 216.156703 297.257703 
L 216.326751 297.378477 
L 216.751871 297.509587 
L 216.921919 297.624291 
L 217.34704 297.760042 
L 217.432064 297.947132 
L 217.517088 297.871835 
L 217.77216 297.908643 
L 217.857184 297.800428 
L 218.027232 298.07926 
L 218.19728 297.996851 
L 218.452353 298.023181 
L 218.792449 297.571364 
L 219.047521 297.645067 
L 219.217569 296.81879 
L 219.387617 295.990098 
L 219.64269 296.097828 
L 219.982786 293.462273 
L 220.06781 293.548663 
L 220.322882 293.514678 
L 220.577955 293.68077 
L 221.003075 293.758111 
L 221.173123 293.82729 
L 221.683268 293.899024 
L 221.853316 293.962557 
L 222.788581 294.082876 
L 223.128677 294.203268 
L 223.468773 294.254678 
L 223.723845 294.306728 
L 232.396301 294.415448 
L 233.246542 294.543429 
L 233.41659 294.606079 
L 233.926735 294.693029 
L 234.096783 294.771051 
L 235.71224 294.978116 
L 235.967312 295.029545 
L 236.307409 295.096665 
L 236.477457 295.160367 
L 236.987601 295.243254 
L 237.15765 295.317124 
L 237.58277 295.428331 
L 237.752818 295.528895 
L 238.688083 295.650724 
L 238.943155 295.817647 
L 239.368276 295.941341 
L 239.538324 296.053268 
L 240.048468 296.181645 
L 240.218516 296.294585 
L 240.643637 296.416206 
L 240.813685 296.523526 
L 241.238805 296.623135 
L 241.408853 296.710443 
L 242.429142 296.863819 
L 242.684215 296.90575 
L 243.109335 296.976524 
L 243.279383 297.042032 
L 243.704503 297.148005 
L 243.874552 297.243614 
L 244.299672 297.36817 
L 244.46972 297.479273 
L 244.894841 297.569072 
L 245.064889 297.646605 
L 246.170202 297.789039 
L 246.34025 297.891329 
L 246.76537 297.980168 
L 246.935418 298.057391 
L 247.870683 298.091126 
L 248.125755 298.355781 
L 248.550876 298.479708 
L 248.720924 298.58838 
L 249.826237 298.748151 
L 249.996285 298.85272 
L 250.421406 298.987803 
L 250.591454 299.107468 
L 252.887104 299.3883 
L 253.057152 299.494678 
L 254.672609 299.688858 
L 254.842658 299.794901 
L 255.352802 299.919137 
L 255.52285 300.02758 
L 256.543139 300.239781 
L 256.713187 300.303444 
L 257.138308 300.388543 
L 257.308356 300.463839 
L 258.328645 300.572283 
L 258.583717 300.830309 
L 259.008837 300.942275 
L 259.178885 301.039425 
L 259.604006 301.1185 
L 259.774054 301.185953 
L 260.199174 301.281302 
L 260.369223 301.365837 
L 260.794343 301.442473 
L 260.964391 301.508397 
L 261.98468 301.566519 
L 262.239752 301.812104 
L 264.450378 302.030932 
L 264.70545 302.301485 
L 265.130571 302.393072 
L 265.300619 302.470206 
L 266.235884 302.571172 
L 266.490956 302.821188 
L 267.596269 303.008759 
L 267.766317 303.098982 
L 268.191438 303.206531 
L 268.361486 303.300673 
L 268.786606 303.436011 
L 268.956654 303.555409 
L 269.381775 303.69274 
L 269.551823 303.812053 
L 272.442641 304.213325 
L 272.61269 304.314332 
L 273.03781 304.398129 
L 273.207858 304.469011 
L 273.718003 304.600829 
L 273.888051 304.716614 
L 274.313171 304.85232 
L 274.483219 304.970167 
L 274.90834 305.074891 
L 275.078388 305.163906 
L 276.778869 305.397305 
L 276.948918 305.493317 
L 277.969206 305.650888 
L 278.139255 305.770804 
L 278.564375 305.903683 
L 278.734423 306.018381 
L 279.839736 306.169555 
L 280.009784 306.254068 
L 280.434905 306.383537 
L 280.604953 306.497547 
L 281.540218 306.595869 
L 281.79529 306.868891 
L 284.175964 307.057074 
L 291.317987 307.1966 
L 291.573059 307.471249 
L 292.678372 307.504244 
L 296.929576 307.683784 
L 297.099624 307.762642 
L 299.31025 307.819417 
L 301.265804 307.965395 
L 301.520876 308.012334 
L 301.860972 308.075386 
L 302.116044 308.137798 
L 302.456141 308.214547 
L 302.626189 308.284976 
L 303.051309 308.380269 
L 303.221357 308.462623 
L 303.646478 308.569992 
L 303.816526 308.663129 
L 304.32667 308.783379 
L 304.496718 308.88579 
L 304.921839 309.013575 
L 305.091887 309.124156 
L 305.517007 309.260332 
L 305.687056 309.37788 
L 306.112176 309.521265 
L 306.282224 309.644598 
L 306.707344 309.794035 
L 306.877393 309.922271 
L 307.387537 310.07463 
L 307.472561 310.265424 
L 307.557585 310.196759 
L 307.812657 310.230507 
L 307.897682 310.161848 
L 308.06773 310.543467 
L 308.152754 310.474842 
L 308.407826 310.508678 
L 308.49285 310.44005 
L 308.662898 310.82173 
L 308.747922 310.753135 
L 309.002995 310.787063 
L 309.088019 310.718465 
L 309.258067 311.100205 
L 309.343091 311.03164 
L 309.598163 311.065661 
L 309.683187 310.997084 
L 309.853235 311.378859 
L 309.938259 311.310818 
L 310.278356 311.34692 
L 310.36338 311.278877 
L 310.533428 311.660714 
L 310.618452 311.592201 
L 310.873524 311.626406 
L 310.958548 311.5579 
L 311.128596 311.939823 
L 311.213621 311.871351 
L 311.468693 311.905646 
L 311.553717 311.837171 
L 311.723765 312.219156 
L 311.808789 312.150714 
L 312.063861 312.185101 
L 312.148885 312.116657 
L 312.318934 312.498703 
L 312.403958 312.430292 
L 312.65903 312.464774 
L 312.744054 312.39635 
L 312.914102 312.778432 
L 312.999126 312.710546 
L 313.339222 312.747263 
L 313.424247 312.679373 
L 313.594295 313.061515 
L 313.679319 312.993214 
L 314.104439 313.159478 
L 314.189463 313.350023 
L 314.274487 313.293181 
L 314.699608 313.45746 
L 314.784632 313.638653 
L 314.869656 313.592983 
L 315.294776 313.745519 
L 315.464824 313.872372 
L 315.719897 313.924455 
L 316.059993 312.852834 
L 316.145017 312.902158 
L 316.485113 312.888717 
L 316.740186 313.062559 
L 320.821341 313.501076 
L 321.161438 313.542338 
L 322.011678 313.668341 
L 322.351775 313.713043 
L 323.202015 313.805565 
L 323.542112 313.896581 
L 324.392352 313.994898 
L 324.732449 314.093533 
L 325.667714 314.205495 
L 326.262882 314.262189 
L 327.623267 314.330552 
L 352.28025 315.185551 
L 421.829945 317.63884 
L 487.893652 320.189787 
L 550.641421 322.833299 
L 610.328323 325.568272 
L 667.209431 328.395076 
L 671.545659 328.62 
L 671.545659 328.62 
" clip-path="url(#p80ed6f4dce)" style="fill: none; stroke: #ff7f0e; stroke-width: 1.5; stroke-linecap: square"/>
   </g>
   <g id="patch_3">
    <path d="M 28.942187 342.2 
L 28.942187 43.44 
" style="fill: none; stroke: #000000; stroke-width: 0.8; stroke-linejoin: miter; stroke-linecap: square"/>
   </g>
   <g id="patch_4">
    <path d="M 702.145824 342.2 
L 702.145824 43.44 
" style="fill: none; stroke: #000000; stroke-width: 0.8; stroke-linejoin: miter; stroke-linecap: square"/>
   </g>
   <g id="patch_5">
    <path d="M 28.942187 342.2 
L 702.145824 342.2 
" style="fill: none; stroke: #000000; stroke-width: 0.8; stroke-linejoin: miter; stroke-linecap: square"/>
   </g>
   <g id="patch_6">
    <path d="M 28.942187 43.44 
L 702.145824 43.44 
" style="fill: none; stroke: #000000; stroke-width: 0.8; stroke-linejoin: miter; stroke-linecap: square"/>
   </g>
   <g id="text_16">
    <!-- 1 transformation(s) -->
    <g transform="translate(307.429318 37.44) scale(0.12 -0.12)">
     <defs>
      <path id="DejaVuSans-20" transform="scale(0.015625)"/>
      <path id="DejaVuSans-74" d="M 1172 4494 
L 1172 3500 
L 2356 3500 
L 2356 3053 
L 1172 3053 
L 1172 1153 
Q 1172 725 1289 603 
Q 1406 481 1766 481 
L 2356 481 
L 2356 0 
L 1766 0 
Q 1100 0 847 248 
Q 594 497 594 1153 
L 594 3053 
L 172 3053 
L 172 3500 
L 594 3500 
L 594 4494 
L 1172 4494 
z
" transform="scale(0.015625)"/>
      <path id="DejaVuSans-72" d="M 2631 2963 
Q 2534 3019 2420 3045 
Q 2306 3072 2169 3072 
Q 1681 3072 1420 2755 
Q 1159 2438 1159 1844 
L 1159 0 
L 581 0 
L 581 3500 
L 1159 3500 
L 1159 2956 
Q 1341 3275 1631 3429 
Q 1922 3584 2338 3584 
Q 2397 3584 2469 3576 
Q 2541 3569 2628 3553 
L 2631 2963 
z
" transform="scale(0.015625)"/>
      <path id="DejaVuSans-61" d="M 2194 1759 
Q 1497 1759 1228 1600 
Q 959 1441 959 1056 
Q 959 750 1161 570 
Q 1363 391 1709 391 
Q 2188 391 2477 730 
Q 2766 1069 2766 1631 
L 2766 1759 
L 2194 1759 
z
M 3341 1997 
L 3341 0 
L 2766 0 
L 2766 531 
Q 2569 213 2275 61 
Q 1981 -91 1556 -91 
Q 1019 -91 701 211 
Q 384 513 384 1019 
Q 384 1609 779 1909 
Q 1175 2209 1959 2209 
L 2766 2209 
L 2766 2266 
Q 2766 2663 2505 2880 
Q 2244 3097 1772 3097 
Q 1472 3097 1187 3025 
Q 903 2953 641 2809 
L 641 3341 
Q 956 3463 1253 3523 
Q 1550 3584 1831 3584 
Q 2591 3584 2966 3190 
Q 3341 2797 3341 1997 
z
" transform="scale(0.015625)"/>
      <path id="DejaVuSans-6e" d="M 3513 2113 
L 3513 0 
L 2938 0 
L 2938 2094 
Q 2938 2591 2744 2837 
Q 2550 3084 2163 3084 
Q 1697 3084 1428 2787 
Q 1159 2491 1159 1978 
L 1159 0 
L 581 0 
L 581 3500 
L 1159 3500 
L 1159 2956 
Q 1366 3272 1645 3428 
Q 1925 3584 2291 3584 
Q 2894 3584 3203 3211 
Q 3513 2838 3513 2113 
z
" transform="scale(0.015625)"/>
      <path id="DejaVuSans-73" d="M 2834 3397 
L 2834 2853 
Q 2591 2978 2328 3040 
Q 2066 3103 1784 3103 
Q 1356 3103 1142 2972 
Q 928 2841 928 2578 
Q 928 2378 1081 2264 
Q 1234 2150 1697 2047 
L 1894 2003 
Q 2506 1872 2764 1633 
Q 3022 1394 3022 966 
Q 3022 478 2636 193 
Q 2250 -91 1575 -91 
Q 1294 -91 989 -36 
Q 684 19 347 128 
L 347 722 
Q 666 556 975 473 
Q 1284 391 1588 391 
Q 1994 391 2212 530 
Q 2431 669 2431 922 
Q 2431 1156 2273 1281 
Q 2116 1406 1581 1522 
L 1381 1569 
Q 847 1681 609 1914 
Q 372 2147 372 2553 
Q 372 3047 722 3315 
Q 1072 3584 1716 3584 
Q 2034 3584 2315 3537 
Q 2597 3491 2834 3397 
z
" transform="scale(0.015625)"/>
      <path id="DejaVuSans-66" d="M 2375 4863 
L 2375 4384 
L 1825 4384 
Q 1516 4384 1395 4259 
Q 1275 4134 1275 3809 
L 1275 3500 
L 2222 3500 
L 2222 3053 
L 1275 3053 
L 1275 0 
L 697 0 
L 697 3053 
L 147 3053 
L 147 3500 
L 697 3500 
L 697 3744 
Q 697 4328 969 4595 
Q 1241 4863 1831 4863 
L 2375 4863 
z
" transform="scale(0.015625)"/>
      <path id="DejaVuSans-6f" d="M 1959 3097 
Q 1497 3097 1228 2736 
Q 959 2375 959 1747 
Q 959 1119 1226 758 
Q 1494 397 1959 397 
Q 2419 397 2687 759 
Q 2956 1122 2956 1747 
Q 2956 2369 2687 2733 
Q 2419 3097 1959 3097 
z
M 1959 3584 
Q 2709 3584 3137 3096 
Q 3566 2609 3566 1747 
Q 3566 888 3137 398 
Q 2709 -91 1959 -91 
Q 1206 -91 779 398 
Q 353 888 353 1747 
Q 353 2609 779 3096 
Q 1206 3584 1959 3584 
z
" transform="scale(0.015625)"/>
      <path id="DejaVuSans-6d" d="M 3328 2828 
Q 3544 3216 3844 3400 
Q 4144 3584 4550 3584 
Q 5097 3584 5394 3201 
Q 5691 2819 5691 2113 
L 5691 0 
L 5113 0 
L 5113 2094 
Q 5113 2597 4934 2840 
Q 4756 3084 4391 3084 
Q 3944 3084 3684 2787 
Q 3425 2491 3425 1978 
L 3425 0 
L 2847 0 
L 2847 2094 
Q 2847 2600 2669 2842 
Q 2491 3084 2119 3084 
Q 1678 3084 1418 2786 
Q 1159 2488 1159 1978 
L 1159 0 
L 581 0 
L 581 3500 
L 1159 3500 
L 1159 2956 
Q 1356 3278 1631 3431 
Q 1906 3584 2284 3584 
Q 2666 3584 2933 3390 
Q 3200 3197 3328 2828 
z
" transform="scale(0.015625)"/>
      <path id="DejaVuSans-69" d="M 603 3500 
L 1178 3500 
L 1178 0 
L 603 0 
L 603 3500 
z
M 603 4863 
L 1178 4863 
L 1178 4134 
L 603 4134 
L 603 4863 
z
" transform="scale(0.015625)"/>
      <path id="DejaVuSans-28" d="M 1984 4856 
Q 1566 4138 1362 3434 
Q 1159 2731 1159 2009 
Q 1159 1288 1364 580 
Q 1569 -128 1984 -844 
L 1484 -844 
Q 1016 -109 783 600 
Q 550 1309 550 2009 
Q 550 2706 781 3412 
Q 1013 4119 1484 4856 
L 1984 4856 
z
" transform="scale(0.015625)"/>
      <path id="DejaVuSans-29" d="M 513 4856 
L 1013 4856 
Q 1481 4119 1714 3412 
Q 1947 2706 1947 2009 
Q 1947 1309 1714 600 
Q 1481 -109 1013 -844 
L 513 -844 
Q 928 -128 1133 580 
Q 1338 1288 1338 2009 
Q 1338 2731 1133 3434 
Q 928 4138 513 4856 
z
" transform="scale(0.015625)"/>
     </defs>
     <use xlink:href="#DejaVuSans-31"/>
     <use xlink:href="#DejaVuSans-20" x="63.623047"/>
     <use xlink:href="#DejaVuSans-74" x="95.410156"/>
     <use xlink:href="#DejaVuSans-72" x="134.619141"/>
     <use xlink:href="#DejaVuSans-61" x="175.732422"/>
     <use xlink:href="#DejaVuSans-6e" x="237.011719"/>
     <use xlink:href="#DejaVuSans-73" x="300.390625"/>
     <use xlink:href="#DejaVuSans-66" x="352.490234"/>
     <use xlink:href="#DejaVuSans-6f" x="387.695312"/>
     <use xlink:href="#DejaVuSans-72" x="448.876953"/>
     <use xlink:href="#DejaVuSans-6d" x="488.240234"/>
     <use xlink:href="#DejaVuSans-61" x="585.652344"/>
     <use xlink:href="#DejaVuSans-74" x="646.931641"/>
     <use xlink:href="#DejaVuSans-69" x="686.140625"/>
     <use xlink:href="#DejaVuSans-6f" x="713.923828"/>
     <use xlink:href="#DejaVuSans-6e" x="775.105469"/>
     <use xlink:href="#DejaVuSans-28" x="838.484375"/>
     <use xlink:href="#DejaVuSans-73" x="877.498047"/>
     <use xlink:href="#DejaVuSans-29" x="929.597656"/>
    </g>
   </g>
   <g id="legend_1">
    <g id="patch_7">
     <path d="M 613.752074 80.79625 
L 695.145824 80.79625 
Q 697.145824 80.79625 697.145824 78.79625 
L 697.145824 50.44 
Q 697.145824 48.44 695.145824 48.44 
L 613.752074 48.44 
Q 611.752074 48.44 611.752074 50.44 
L 611.752074 78.79625 
Q 611.752074 80.79625 613.752074 80.79625 
z
" style="fill: #ffffff; opacity: 0.8; stroke: #cccccc; stroke-linejoin: miter"/>
    </g>
    <g id="line2d_18">
     <path d="M 615.752074 56.538437 
L 625.752074 56.538437 
L 635.752074 56.538437 
" style="fill: none; stroke: #1f77b4; stroke-width: 1.5; stroke-linecap: square"/>
    </g>
    <g id="text_17">
     <!-- observed -->
     <g transform="translate(643.752074 60.038437) scale(0.1 -0.1)">
      <defs>
       <path id="DejaVuSans-62" d="M 3116 1747 
Q 3116 2381 2855 2742 
Q 2594 3103 2138 3103 
Q 1681 3103 1420 2742 
Q 1159 2381 1159 1747 
Q 1159 1113 1420 752 
Q 1681 391 2138 391 
Q 2594 391 2855 752 
Q 3116 1113 3116 1747 
z
M 1159 2969 
Q 1341 3281 1617 3432 
Q 1894 3584 2278 3584 
Q 2916 3584 3314 3078 
Q 3713 2572 3713 1747 
Q 3713 922 3314 415 
Q 2916 -91 2278 -91 
Q 1894 -91 1617 61 
Q 1341 213 1159 525 
L 1159 0 
L 581 0 
L 581 4863 
L 1159 4863 
L 1159 2969 
z
" transform="scale(0.015625)"/>
       <path id="DejaVuSans-65" d="M 3597 1894 
L 3597 1613 
L 953 1613 
Q 991 1019 1311 708 
Q 1631 397 2203 397 
Q 2534 397 2845 478 
Q 3156 559 3463 722 
L 3463 178 
Q 3153 47 2828 -22 
Q 2503 -91 2169 -91 
Q 1331 -91 842 396 
Q 353 884 353 1716 
Q 353 2575 817 3079 
Q 1281 3584 2069 3584 
Q 2775 3584 3186 3129 
Q 3597 2675 3597 1894 
z
M 3022 2063 
Q 3016 2534 2758 2815 
Q 2500 3097 2075 3097 
Q 1594 3097 1305 2825 
Q 1016 2553 972 2059 
L 3022 2063 
z
" transform="scale(0.015625)"/>
       <path id="DejaVuSans-76" d="M 191 3500 
L 800 3500 
L 1894 563 
L 2988 3500 
L 3597 3500 
L 2284 0 
L 1503 0 
L 191 3500 
z
" transform="scale(0.015625)"/>
       <path id="DejaVuSans-64" d="M 2906 2969 
L 2906 4863 
L 3481 4863 
L 3481 0 
L 2906 0 
L 2906 525 
Q 2725 213 2448 61 
Q 2172 -91 1784 -91 
Q 1150 -91 751 415 
Q 353 922 353 1747 
Q 353 2572 751 3078 
Q 1150 3584 1784 3584 
Q 2172 3584 2448 3432 
Q 2725 3281 2906 2969 
z
M 947 1747 
Q 947 1113 1208 752 
Q 1469 391 1925 391 
Q 2381 391 2643 752 
Q 2906 1113 2906 1747 
Q 2906 2381 2643 2742 
Q 2381 3103 1925 3103 
Q 1469 3103 1208 2742 
Q 947 2381 947 1747 
z
" transform="scale(0.015625)"/>
      </defs>
      <use xlink:href="#DejaVuSans-6f"/>
      <use xlink:href="#DejaVuSans-62" x="61.181641"/>
      <use xlink:href="#DejaVuSans-73" x="124.658203"/>
      <use xlink:href="#DejaVuSans-65" x="176.757812"/>
      <use xlink:href="#DejaVuSans-72" x="238.28125"/>
      <use xlink:href="#DejaVuSans-76" x="279.394531"/>
      <use xlink:href="#DejaVuSans-65" x="338.574219"/>
      <use xlink:href="#DejaVuSans-64" x="400.097656"/>
     </g>
    </g>
    <g id="line2d_19">
     <path d="M 615.752074 71.216563 
L 625.752074 71.216563 
L 635.752074 71.216563 
" style="fill: none; stroke: #ff7f0e; stroke-width: 1.5; stroke-linecap: square"/>
    </g>
    <g id="text_18">
     <!-- simulated -->
     <g transform="translate(643.752074 74.716563) scale(0.1 -0.1)">
      <defs>
       <path id="DejaVuSans-75" d="M 544 1381 
L 544 3500 
L 1119 3500 
L 1119 1403 
Q 1119 906 1312 657 
Q 1506 409 1894 409 
Q 2359 409 2629 706 
Q 2900 1003 2900 1516 
L 2900 3500 
L 3475 3500 
L 3475 0 
L 2900 0 
L 2900 538 
Q 2691 219 2414 64 
Q 2138 -91 1772 -91 
Q 1169 -91 856 284 
Q 544 659 544 1381 
z
M 1991 3584 
L 1991 3584 
z
" transform="scale(0.015625)"/>
       <path id="DejaVuSans-6c" d="M 603 4863 
L 1178 4863 
L 1178 0 
L 603 0 
L 603 4863 
z
" transform="scale(0.015625)"/>
      </defs>
      <use xlink:href="#DejaVuSans-73"/>
      <use xlink:href="#DejaVuSans-69" x="52.099609"/>
      <use xlink:href="#DejaVuSans-6d" x="79.882812"/>
      <use xlink:href="#DejaVuSans-75" x="177.294922"/>
      <use xlink:href="#DejaVuSans-6c" x="240.673828"/>
      <use xlink:href="#DejaVuSans-61" x="268.457031"/>
      <use xlink:href="#DejaVuSans-74" x="329.736328"/>
      <use xlink:href="#DejaVuSans-65" x="368.945312"/>
      <use xlink:href="#DejaVuSans-64" x="430.46875"/>
     </g>
    </g>
   </g>
  </g>
  <g id="axes_2">
   <g id="patch_8">
    <path d="M 28.942187 684.92 
L 702.145824 684.92 
L 702.145824 386.16 
L 28.942187 386.16 
z
" style="fill: #ffffff"/>
   </g>
   <g id="matplotlib.axis_3">
    <g id="xtick_7">
     <g id="line2d_20">
      <g>
       <use xlink:href="#m2d0b3a0a79" x="59.372305" y="684.92" style="stroke: #000000; stroke-width: 0.8"/>
      </g>
     </g>
     <g id="text_19">
      <!-- 2014-07-01 -->
      <g transform="translate(30.314492 699.518437) scale(0.1 -0.1)">
       <use xlink:href="#DejaVuSans-32"/>
       <use xlink:href="#DejaVuSans-30" x="63.623047"/>
       <use xlink:href="#DejaVuSans-31" x="127.246094"/>
       <use xlink:href="#DejaVuSans-34" x="190.869141"/>
       <use xlink:href="#DejaVuSans-2d" x="254.492188"/>
       <use xlink:href="#DejaVuSans-30" x="290.576172"/>
       <use xlink:href="#DejaVuSans-37" x="354.199219"/>
       <use xlink:href="#DejaVuSans-2d" x="417.822266"/>
       <use xlink:href="#DejaVuSans-30" x="453.90625"/>
       <use xlink:href="#DejaVuSans-31" x="517.529297"/>
      </g>
     </g>
    </g>
    <g id="xtick_8">
     <g id="line2d_21">
      <g>
       <use xlink:href="#m2d0b3a0a79" x="181.806975" y="684.92" style="stroke: #000000; stroke-width: 0.8"/>
      </g>
     </g>
     <g id="text_20">
      <!-- 2014-07-02 -->
      <g transform="translate(152.749163 699.518437) scale(0.1 -0.1)">
       <use xlink:href="#DejaVuSans-32"/>
       <use xlink:href="#DejaVuSans-30" x="63.623047"/>
       <use xlink:href="#DejaVuSans-31" x="127.246094"/>
       <use xlink:href="#DejaVuSans-34" x="190.869141"/>
       <use xlink:href="#DejaVuSans-2d" x="254.492188"/>
       <use xlink:href="#DejaVuSans-30" x="290.576172"/>
       <use xlink:href="#DejaVuSans-37" x="354.199219"/>
       <use xlink:href="#DejaVuSans-2d" x="417.822266"/>
       <use xlink:href="#DejaVuSans-30" x="453.90625"/>
       <use xlink:href="#DejaVuSans-32" x="517.529297"/>
      </g>
     </g>
    </g>
    <g id="xtick_9">
     <g id="line2d_22">
      <g>
       <use xlink:href="#m2d0b3a0a79" x="304.241646" y="684.92" style="stroke: #000000; stroke-width: 0.8"/>
      </g>
     </g>
     <g id="text_21">
      <!-- 2014-07-03 -->
      <g transform="translate(275.183834 699.518437) scale(0.1 -0.1)">
       <use xlink:href="#DejaVuSans-32"/>
       <use xlink:href="#DejaVuSans-30" x="63.623047"/>
       <use xlink:href="#DejaVuSans-31" x="127.246094"/>
       <use xlink:href="#DejaVuSans-34" x="190.869141"/>
       <use xlink:href="#DejaVuSans-2d" x="254.492188"/>
       <use xlink:href="#DejaVuSans-30" x="290.576172"/>
       <use xlink:href="#DejaVuSans-37" x="354.199219"/>
       <use xlink:href="#DejaVuSans-2d" x="417.822266"/>
       <use xlink:href="#DejaVuSans-30" x="453.90625"/>
       <use xlink:href="#DejaVuSans-33" x="517.529297"/>
      </g>
     </g>
    </g>
    <g id="xtick_10">
     <g id="line2d_23">
      <g>
       <use xlink:href="#m2d0b3a0a79" x="426.676317" y="684.92" style="stroke: #000000; stroke-width: 0.8"/>
      </g>
     </g>
     <g id="text_22">
      <!-- 2014-07-04 -->
      <g transform="translate(397.618504 699.518437) scale(0.1 -0.1)">
       <use xlink:href="#DejaVuSans-32"/>
       <use xlink:href="#DejaVuSans-30" x="63.623047"/>
       <use xlink:href="#DejaVuSans-31" x="127.246094"/>
       <use xlink:href="#DejaVuSans-34" x="190.869141"/>
       <use xlink:href="#DejaVuSans-2d" x="254.492188"/>
       <use xlink:href="#DejaVuSans-30" x="290.576172"/>
       <use xlink:href="#DejaVuSans-37" x="354.199219"/>
       <use xlink:href="#DejaVuSans-2d" x="417.822266"/>
       <use xlink:href="#DejaVuSans-30" x="453.90625"/>
       <use xlink:href="#DejaVuSans-34" x="517.529297"/>
      </g>
     </g>
    </g>
    <g id="xtick_11">
     <g id="line2d_24">
      <g>
       <use xlink:href="#m2d0b3a0a79" x="549.110988" y="684.92" style="stroke: #000000; stroke-width: 0.8"/>
      </g>
     </g>
     <g id="text_23">
      <!-- 2014-07-05 -->
      <g transform="translate(520.053175 699.518437) scale(0.1 -0.1)">
       <use xlink:href="#DejaVuSans-32"/>
       <use xlink:href="#DejaVuSans-30" x="63.623047"/>
       <use xlink:href="#DejaVuSans-31" x="127.246094"/>
       <use xlink:href="#DejaVuSans-34" x="190.869141"/>
       <use xlink:href="#DejaVuSans-2d" x="254.492188"/>
       <use xlink:href="#DejaVuSans-30" x="290.576172"/>
       <use xlink:href="#DejaVuSans-37" x="354.199219"/>
       <use xlink:href="#DejaVuSans-2d" x="417.822266"/>
       <use xlink:href="#DejaVuSans-30" x="453.90625"/>
       <use xlink:href="#DejaVuSans-35" x="517.529297"/>
      </g>
     </g>
    </g>
    <g id="xtick_12">
     <g id="line2d_25">
      <g>
       <use xlink:href="#m2d0b3a0a79" x="671.545659" y="684.92" style="stroke: #000000; stroke-width: 0.8"/>
      </g>
     </g>
     <g id="text_24">
      <!-- 2014-07-06 -->
      <g transform="translate(642.487846 699.518437) scale(0.1 -0.1)">
       <use xlink:href="#DejaVuSans-32"/>
       <use xlink:href="#DejaVuSans-30" x="63.623047"/>
       <use xlink:href="#DejaVuSans-31" x="127.246094"/>
       <use xlink:href="#DejaVuSans-34" x="190.869141"/>
       <use xlink:href="#DejaVuSans-2d" x="254.492188"/>
       <use xlink:href="#DejaVuSans-30" x="290.576172"/>
       <use xlink:href="#DejaVuSans-37" x="354.199219"/>
       <use xlink:href="#DejaVuSans-2d" x="417.822266"/>
       <use xlink:href="#DejaVuSans-30" x="453.90625"/>
       <use xlink:href="#DejaVuSans-36" x="517.529297"/>
      </g>
     </g>
    </g>
   </g>
   <g id="matplotlib.axis_4">
    <g id="ytick_10">
     <g id="line2d_26">
      <g>
       <use xlink:href="#mf9785de73a" x="28.942187" y="671.325387" style="stroke: #000000; stroke-width: 0.8"/>
      </g>
     </g>
     <g id="text_25">
      <!-- 0 -->
      <g transform="translate(15.579687 675.124606) scale(0.1 -0.1)">
       <use xlink:href="#DejaVuSans-30"/>
      </g>
     </g>
    </g>
    <g id="ytick_11">
     <g id="line2d_27">
      <g>
       <use xlink:href="#mf9785de73a" x="28.942187" y="633.428777" style="stroke: #000000; stroke-width: 0.8"/>
      </g>
     </g>
     <g id="text_26">
      <!-- 1 -->
      <g transform="translate(15.579687 637.227996) scale(0.1 -0.1)">
       <use xlink:href="#DejaVuSans-31"/>
      </g>
     </g>
    </g>
    <g id="ytick_12">
     <g id="line2d_28">
      <g>
       <use xlink:href="#mf9785de73a" x="28.942187" y="595.532168" style="stroke: #000000; stroke-width: 0.8"/>
      </g>
     </g>
     <g id="text_27">
      <!-- 2 -->
      <g transform="translate(15.579687 599.331386) scale(0.1 -0.1)">
       <use xlink:href="#DejaVuSans-32"/>
      </g>
     </g>
    </g>
    <g id="ytick_13">
     <g id="line2d_29">
      <g>
       <use xlink:href="#mf9785de73a" x="28.942187" y="557.635558" style="stroke: #000000; stroke-width: 0.8"/>
      </g>
     </g>
     <g id="text_28">
      <!-- 3 -->
      <g transform="translate(15.579687 561.434777) scale(0.1 -0.1)">
       <use xlink:href="#DejaVuSans-33"/>
      </g>
     </g>
    </g>
    <g id="ytick_14">
     <g id="line2d_30">
      <g>
       <use xlink:href="#mf9785de73a" x="28.942187" y="519.738948" style="stroke: #000000; stroke-width: 0.8"/>
      </g>
     </g>
     <g id="text_29">
      <!-- 4 -->
      <g transform="translate(15.579687 523.538167) scale(0.1 -0.1)">
       <use xlink:href="#DejaVuSans-34"/>
      </g>
     </g>
    </g>
    <g id="ytick_15">
     <g id="line2d_31">
      <g>
       <use xlink:href="#mf9785de73a" x="28.942187" y="481.842339" style="stroke: #000000; stroke-width: 0.8"/>
      </g>
     </g>
     <g id="text_30">
      <!-- 5 -->
      <g transform="translate(15.579687 485.641557) scale(0.1 -0.1)">
       <use xlink:href="#DejaVuSans-35"/>
      </g>
     </g>
    </g>
    <g id="ytick_16">
     <g id="line2d_32">
      <g>
       <use xlink:href="#mf9785de73a" x="28.942187" y="443.945729" style="stroke: #000000; stroke-width: 0.8"/>
      </g>
     </g>
     <g id="text_31">
      <!-- 6 -->
      <g transform="translate(15.579687 447.744948) scale(0.1 -0.1)">
       <use xlink:href="#DejaVuSans-36"/>
      </g>
     </g>
    </g>
    <g id="ytick_17">
     <g id="line2d_33">
      <g>
       <use xlink:href="#mf9785de73a" x="28.942187" y="406.049119" style="stroke: #000000; stroke-width: 0.8"/>
      </g>
     </g>
     <g id="text_32">
      <!-- 7 -->
      <g transform="translate(15.579687 409.848338) scale(0.1 -0.1)">
       <use xlink:href="#DejaVuSans-37"/>
      </g>
     </g>
    </g>
   </g>
   <g id="line2d_34">
    <path d="M 59.542353 671.325387 
L 59.797425 671.235911 
L 61.327858 669.83189 
L 61.923027 669.346385 
L 63.45346 667.658322 
L 64.388725 666.687966 
L 65.494038 666.076057 
L 67.534616 665.630021 
L 68.129785 665.803513 
L 69.405146 666.514852 
L 71.445724 667.724248 
L 72.466012 668.111045 
L 73.061181 668.163842 
L 73.486301 668.034945 
L 73.996446 667.648705 
L 74.421566 667.05231 
L 75.611903 664.412922 
L 76.37712 660.921225 
L 76.80224 657.850571 
L 77.142337 655.168583 
L 77.312385 653.845514 
L 77.567457 651.776048 
L 77.992577 650.362701 
L 78.24765 649.559322 
L 78.417698 649.493995 
L 78.502722 649.319233 
L 78.842818 647.937399 
L 79.012866 647.802225 
L 79.09789 647.601631 
L 79.352963 646.303926 
L 79.608035 646.224958 
L 79.693059 645.98839 
L 80.033155 643.382772 
L 80.288228 642.04559 
L 80.5433 640.009206 
L 80.798372 639.572498 
L 80.96842 640.164798 
L 81.138468 639.505592 
L 81.478565 639.920055 
L 81.563589 639.939646 
L 81.733637 638.885568 
L 82.158757 639.003724 
L 82.328805 638.1277 
L 82.753926 638.639172 
L 82.923974 637.884898 
L 83.349094 638.556834 
L 83.519142 637.824707 
L 83.859239 638.380746 
L 84.029287 639.395328 
L 84.199335 638.994583 
L 84.539431 639.661615 
L 84.624455 639.738952 
L 84.794504 638.748546 
L 84.879528 638.78845 
L 85.219624 638.934417 
L 85.389672 638.069059 
L 85.814793 638.622956 
L 85.984841 637.866274 
L 86.409961 638.618325 
L 86.580009 638.350758 
L 86.920106 639.583593 
L 87.175178 641.192337 
L 87.345226 641.862095 
L 87.685322 643.450841 
L 87.85537 643.600115 
L 88.195467 645.001004 
L 88.280491 643.796207 
L 88.535563 632.972551 
L 88.790635 624.236507 
L 88.960683 626.030055 
L 89.130732 628.02021 
L 89.385804 623.553017 
L 89.470828 623.994457 
L 89.555852 619.075185 
L 89.7259 620.978764 
L 89.810924 617.998543 
L 89.895948 618.680497 
L 90.065996 616.169112 
L 90.15102 617.104586 
L 90.236045 616.803035 
L 90.491117 615.318465 
L 90.576141 615.642221 
L 90.661165 615.529289 
L 90.831213 614.428971 
L 91.001261 615.145955 
L 91.171309 613.668718 
L 91.341358 614.679216 
L 91.511406 613.563069 
L 91.681454 615.128662 
L 91.851502 613.438332 
L 91.936526 613.399142 
L 92.02155 608.256216 
L 92.191598 610.671502 
L 92.361646 596.796006 
L 92.446671 598.19521 
L 92.786767 547.333153 
L 92.956815 519.086549 
L 93.977104 413.511789 
L 94.147152 414.556409 
L 94.3172 413.090692 
L 94.487248 410.481527 
L 94.912369 412.957801 
L 94.997393 411.41467 
L 95.082417 411.645123 
L 95.507537 414.904176 
L 95.677585 415.625641 
L 96.102706 421.173144 
L 96.357778 426.60364 
L 96.442802 427.633406 
L 96.61285 426.389811 
L 97.037971 430.372805 
L 97.208019 429.223322 
L 97.378067 432.106888 
L 97.548115 433.422873 
L 97.633139 433.546348 
L 97.803187 432.941583 
L 98.228308 437.167516 
L 98.398356 436.924396 
L 98.823476 440.83733 
L 98.993524 440.956559 
L 99.163573 443.277662 
L 99.418645 446.624375 
L 99.758741 447.711461 
L 99.928789 449.643596 
L 100.013813 449.4053 
L 100.098837 449.461554 
L 100.864054 452.870303 
L 100.949078 453.139879 
L 101.119126 454.786807 
L 101.20415 454.700195 
L 101.289175 454.846422 
L 101.714295 457.338779 
L 101.799319 457.273129 
L 101.884343 457.386413 
L 102.394488 460.026189 
L 102.564536 459.143915 
L 102.64956 459.354472 
L 102.734584 459.251199 
L 102.819608 458.87461 
L 102.989656 459.097203 
L 103.244728 456.656599 
L 103.414776 455.205067 
L 103.499801 455.500629 
L 103.584825 455.595896 
L 103.924921 449.136989 
L 104.009945 448.094267 
L 104.094969 448.85836 
L 104.179993 448.167181 
L 104.520089 434.530071 
L 104.605114 433.835458 
L 104.690138 434.768349 
L 104.775162 432.64837 
L 105.115258 414.355682 
L 105.200282 414.099189 
L 105.37033 415.229337 
L 105.540378 419.536588 
L 106.475643 453.559693 
L 106.900764 459.694017 
L 107.325884 463.308553 
L 107.921053 465.636903 
L 108.176125 466.216261 
L 108.771293 466.969151 
L 109.876606 468.73708 
L 110.896895 470.640266 
L 111.492064 471.399408 
L 113.617666 472.5829 
L 115.233123 473.641308 
L 119.399303 475.702394 
L 120.759688 475.884834 
L 120.929736 475.506149 
L 121.01476 475.593194 
L 121.099784 475.403074 
L 121.354857 474.2241 
L 121.524905 473.48536 
L 121.779977 472.306873 
L 121.950025 471.082993 
L 122.205097 467.600643 
L 122.290122 467.140911 
L 122.715242 468.055117 
L 122.88529 468.255627 
L 123.140362 468.727105 
L 123.480459 469.150659 
L 123.820555 469.574232 
L 124.245675 469.787789 
L 124.500748 469.940774 
L 124.840844 469.98568 
L 125.095916 470.027947 
L 125.436012 469.963435 
L 125.691085 469.94334 
L 125.946157 469.827924 
L 126.286253 469.786669 
L 126.541325 469.660356 
L 127.561614 469.568197 
L 127.816687 469.444558 
L 128.156783 469.381926 
L 128.411855 469.226031 
L 128.751951 469.138028 
L 129.007024 468.98329 
L 129.34712 468.905226 
L 129.602192 468.761637 
L 130.622481 468.656413 
L 130.792529 468.509807 
L 131.132626 468.533389 
L 131.472722 468.269306 
L 131.812818 468.134067 
L 131.982866 467.988057 
L 132.322963 468.020385 
L 132.578035 467.749074 
L 133.003155 467.831494 
L 133.258227 467.663185 
L 133.598324 467.778403 
L 133.853396 467.498201 
L 134.108468 467.547715 
L 134.193492 467.527024 
L 134.448565 467.196568 
L 134.703637 467.23907 
L 134.788661 467.225987 
L 135.043733 466.905019 
L 135.298805 466.965501 
L 135.383829 466.956628 
L 135.638902 466.647496 
L 135.978998 466.778092 
L 136.149046 466.661483 
L 136.319094 466.599989 
L 136.574166 466.737361 
L 136.659191 466.721784 
L 136.914263 466.38654 
L 137.084311 466.435095 
L 137.254359 466.407357 
L 137.424407 465.98261 
L 137.509431 466.027479 
L 137.679479 466.071101 
L 138.1046 466.196799 
L 139.209913 468.340432 
L 140.740346 471.337336 
L 141.420539 471.792839 
L 142.440828 472.723868 
L 144.481406 475.296133 
L 146.011839 477.518029 
L 147.372224 479.240095 
L 147.712321 479.244486 
L 148.137441 478.826912 
L 148.647585 478.063054 
L 149.072706 477.370989 
L 149.412802 476.985184 
L 149.667874 476.786625 
L 150.348067 476.446791 
L 151.113284 476.027194 
L 151.538404 475.650857 
L 152.133573 475.208672 
L 152.388645 475.047375 
L 153.238886 474.380988 
L 154.089126 473.150766 
L 154.939367 471.415798 
L 155.364487 468.994693 
L 155.959656 469.188246 
L 156.299752 469.433373 
L 156.4698 469.276358 
L 156.639849 469.284002 
L 157.235017 469.242693 
L 158.000234 469.76287 
L 158.085258 469.775718 
L 159.105547 468.134302 
L 159.360619 468.077596 
L 159.530667 468.023981 
L 159.870764 468.231196 
L 160.125836 468.167533 
L 160.891052 468.775172 
L 162.336462 470.879845 
L 162.50651 470.81264 
L 163.101678 470.16812 
L 163.441775 469.72859 
L 163.611823 469.617872 
L 164.036943 468.914695 
L 164.547088 468.543996 
L 164.80216 468.715756 
L 165.142256 469.130113 
L 165.992497 470.363516 
L 166.162545 470.092585 
L 167.52293 467.791883 
L 167.863027 467.720089 
L 168.118099 467.242811 
L 168.458195 467.183666 
L 168.628243 467.22606 
L 169.563508 468.781009 
L 170.328725 469.85241 
L 170.923894 470.022218 
L 171.774134 469.108447 
L 172.029207 469.160978 
L 172.539351 469.682312 
L 172.964471 470.183534 
L 173.55964 470.398735 
L 174.069784 470.048945 
L 174.409881 469.33852 
L 174.835001 468.873729 
L 175.090073 468.972936 
L 175.260121 468.990302 
L 175.43017 468.921272 
L 175.85529 469.008119 
L 176.28041 468.479701 
L 176.450459 468.339781 
L 176.705531 467.891886 
L 177.215675 467.939556 
L 178.15094 469.200299 
L 179.681373 470.977642 
L 180.191518 471.262307 
L 180.361566 471.003194 
L 180.701662 470.431551 
L 181.466879 468.325903 
L 181.806975 467.98119 
L 182.232096 467.968234 
L 183.167361 468.813861 
L 183.847553 468.055135 
L 184.017601 467.634851 
L 184.357698 467.369341 
L 184.61277 467.135147 
L 185.633059 467.749418 
L 185.888131 467.797124 
L 186.313252 468.174346 
L 186.4833 468.238695 
L 186.823396 468.524787 
L 187.248516 468.066465 
L 187.673637 467.844053 
L 187.928709 468.08412 
L 188.523878 468.799893 
L 188.77895 469.025883 
L 189.034022 469.088443 
L 189.374118 469.184162 
L 189.629191 469.129951 
L 190.054311 469.297338 
L 190.734504 469.745035 
L 191.244648 469.847874 
L 191.584744 469.892165 
L 192.094889 470.311979 
L 192.434985 470.589361 
L 192.775081 470.254605 
L 192.94513 470.07399 
L 193.625322 467.852908 
L 193.79537 467.701404 
L 194.050443 467.90477 
L 194.900683 469.223068 
L 195.24078 469.486409 
L 195.495852 469.615343 
L 195.750924 469.605566 
L 196.005996 469.636847 
L 196.941261 467.893313 
L 197.111309 467.854425 
L 197.451406 468.145776 
L 197.876526 468.972213 
L 199.066863 471.455156 
L 199.83208 472.002566 
L 201.192465 473.471427 
L 202.977971 475.830189 
L 204.933524 478.655749 
L 205.868789 480.045949 
L 207.059126 481.659465 
L 207.229174 480.563814 
L 207.314199 481.124506 
L 207.399223 480.972009 
L 207.909367 469.879913 
L 208.079415 456.311001 
L 208.334487 453.277414 
L 208.58956 452.941302 
L 208.674584 452.933496 
L 208.844632 454.177199 
L 209.01468 452.232757 
L 209.099704 452.356829 
L 209.269752 451.581153 
L 209.524825 453.869638 
L 209.694873 452.635007 
L 209.779897 452.730853 
L 209.949945 451.95926 
L 210.119993 453.209541 
L 210.290041 451.55233 
L 210.375065 451.676113 
L 210.545113 451.242837 
L 210.715162 452.792003 
L 210.88521 451.782404 
L 210.970234 452.107276 
L 211.055258 452.064141 
L 211.140282 452.140327 
L 211.31033 453.73326 
L 211.480378 453.13912 
L 211.650426 453.679085 
L 211.735451 453.813981 
L 211.905499 455.377713 
L 212.075547 455.048956 
L 212.840764 458.811616 
L 213.18086 460.207473 
L 213.265884 460.07713 
L 213.350908 460.020389 
L 213.520956 460.663952 
L 213.60598 460.67315 
L 213.776028 461.33276 
L 213.946077 461.171101 
L 214.116125 461.762874 
L 214.201149 461.765006 
L 214.371197 462.245574 
L 214.541245 462.086878 
L 214.796317 462.624078 
L 214.966365 462.986519 
L 215.136414 462.823143 
L 215.391486 463.312691 
L 216.156703 464.498388 
L 216.241727 464.579199 
L 216.411775 464.412571 
L 216.666847 464.772319 
L 216.836895 464.933869 
L 217.006943 464.766428 
L 217.34704 465.232756 
L 217.432064 465.182791 
L 217.687136 463.972843 
L 217.77216 463.930884 
L 218.112256 461.584319 
L 218.282304 460.628805 
L 218.367329 460.334599 
L 218.537377 459.330095 
L 218.622401 459.830757 
L 218.707425 459.456282 
L 218.877473 456.710178 
L 218.962497 456.922724 
L 219.302593 454.677914 
L 219.472642 449.395362 
L 219.557666 449.00643 
L 219.727714 445.89205 
L 219.812738 447.433284 
L 219.897762 444.720665 
L 220.237858 416.429779 
L 220.322882 415.913866 
L 220.407906 416.251206 
L 220.577955 419.082584 
L 220.833027 429.578877 
L 221.173123 446.647108 
L 221.598243 456.608929 
L 222.023364 462.538045 
L 222.36346 465.242333 
L 222.873605 467.444731 
L 223.298725 468.334071 
L 223.723845 468.881806 
L 224.574086 469.855174 
L 225.764423 471.582173 
L 226.444616 472.073257 
L 228.060073 473.836433 
L 229.335434 475.543302 
L 230.185675 476.717686 
L 231.461036 478.554481 
L 234.351855 482.38281 
L 234.691951 482.492967 
L 235.117072 482.450701 
L 237.072625 481.77508 
L 238.262963 480.512385 
L 238.773107 479.543571 
L 240.473589 475.536616 
L 240.728661 474.594293 
L 241.493877 471.54699 
L 241.833974 467.089971 
L 242.089046 466.947322 
L 243.704503 469.409447 
L 243.874552 469.391485 
L 244.129624 469.165387 
L 244.384696 469.008155 
L 244.894841 467.889229 
L 245.404985 467.352878 
L 245.745081 467.614666 
L 246.425274 468.639264 
L 246.935418 468.79449 
L 247.190491 468.573415 
L 247.615611 468.503139 
L 247.955707 468.803959 
L 248.040731 468.868687 
L 248.720924 468.153167 
L 248.975996 467.591156 
L 249.316093 467.275916 
L 249.486141 467.340229 
L 249.826237 467.918305 
L 249.996285 468.077813 
L 250.166333 468.126658 
L 250.421406 468.337884 
L 250.50643 468.320247 
L 250.93155 467.476698 
L 251.271646 467.0704 
L 251.526719 467.290409 
L 252.121887 468.455324 
L 252.887104 470.082321 
L 253.057152 470.234691 
L 253.397248 470.118697 
L 253.65232 469.998383 
L 253.992417 469.756582 
L 254.332513 469.851488 
L 254.842658 470.236914 
L 255.182754 470.021785 
L 255.437826 469.843826 
L 255.947971 468.581547 
L 256.373091 467.927719 
L 256.798211 467.961475 
L 257.8185 468.628982 
L 258.158597 468.673164 
L 258.498693 468.885167 
L 258.923813 468.454421 
L 259.093861 468.298743 
L 259.433958 467.638935 
L 259.944102 467.341584 
L 260.369223 467.622111 
L 260.539271 467.663294 
L 260.879367 467.96115 
L 261.134439 467.981172 
L 261.98468 468.87138 
L 262.154728 469.086274 
L 263.260041 468.799495 
L 264.28033 469.740842 
L 264.620426 470.11595 
L 264.790475 469.853114 
L 265.980812 468.104576 
L 266.235884 468.227672 
L 266.405932 468.368279 
L 266.746028 468.127001 
L 267.426221 468.068091 
L 267.766317 468.352738 
L 267.936365 468.379645 
L 268.276462 468.611273 
L 268.701582 468.296683 
L 268.87163 468.203331 
L 269.211727 467.448598 
L 269.466799 467.092067 
L 269.721871 466.377523 
L 269.891919 466.270437 
L 270.146991 466.227067 
L 270.31704 466.460376 
L 272.102545 470.158777 
L 272.61269 470.625556 
L 273.888051 468.801483 
L 274.143123 468.309495 
L 274.398195 468.001899 
L 274.738292 467.122443 
L 275.248436 466.480615 
L 275.75858 467.000684 
L 276.863893 469.374806 
L 277.459062 469.504859 
L 277.884182 469.533682 
L 278.054231 469.623366 
L 278.649399 468.889071 
L 279.074519 467.642856 
L 279.414616 467.229113 
L 279.669688 467.480836 
L 280.264857 468.344805 
L 280.519929 468.612989 
L 281.030073 468.072428 
L 281.455194 467.767181 
L 281.710266 467.904987 
L 281.965338 467.543793 
L 282.135386 467.538101 
L 282.390458 467.341837 
L 282.560507 467.250527 
L 282.985627 467.629285 
L 283.325723 468.276408 
L 284.686109 471.359111 
L 286.981759 473.49734 
L 292.168227 480.410323 
L 292.593348 480.657383 
L 294.038757 481.152172 
L 294.548901 481.52652 
L 296.249383 483.362195 
L 297.86484 485.310829 
L 301.265804 488.761556 
L 302.541165 490.022751 
L 303.051309 490.217135 
L 303.47643 490.133198 
L 304.071598 489.546593 
L 305.346959 486.691579 
L 306.62232 481.299753 
L 307.217489 478.139619 
L 307.897682 473.178649 
L 308.152754 470.561135 
L 308.407826 462.382349 
L 308.49285 461.655589 
L 308.577874 461.917756 
L 308.662898 461.75673 
L 308.832946 460.925776 
L 308.91797 461.224915 
L 309.002995 461.156193 
L 309.088019 460.970446 
L 309.258067 461.202363 
L 309.428115 460.570274 
L 309.598163 460.970193 
L 309.683187 460.801306 
L 309.853235 461.097861 
L 310.023283 460.490584 
L 310.193332 460.946864 
L 310.278356 460.748522 
L 310.36338 460.918511 
L 310.533428 461.47286 
L 310.703476 461.069346 
L 310.873524 461.494979 
L 310.958548 461.37219 
L 311.128596 461.569845 
L 311.298645 460.854036 
L 311.468693 461.215663 
L 311.553717 460.982752 
L 311.723765 461.240546 
L 311.893813 460.557083 
L 312.063861 461.014954 
L 312.148885 460.80174 
L 312.318934 461.121768 
L 312.488982 460.488975 
L 312.65903 460.958357 
L 312.744054 460.746119 
L 312.914102 461.084272 
L 313.08415 460.471375 
L 313.254198 460.935877 
L 313.339222 460.736523 
L 313.424247 460.889797 
L 313.594295 461.477215 
L 313.764343 461.088754 
L 313.934391 461.499858 
L 314.019415 461.380376 
L 314.189463 461.626677 
L 314.359511 461.177462 
L 314.52956 461.63535 
L 314.614584 461.537101 
L 314.784632 461.930153 
L 314.95468 461.757128 
L 315.209752 462.354738 
L 315.3798 462.798766 
L 315.464824 462.748675 
L 315.549848 462.819457 
L 315.804921 463.474133 
L 315.889945 463.652471 
L 315.974969 462.953865 
L 316.230041 457.965808 
L 316.485113 453.601273 
L 316.740186 456.051472 
L 317.165306 461.289264 
L 317.760474 465.44559 
L 318.440667 468.208517 
L 319.290908 470.236336 
L 319.9711 471.310826 
L 320.736317 471.640939 
L 322.351775 472.229604 
L 324.222304 472.737909 
L 325.58269 472.872281 
L 326.262882 472.905314 
L 326.773027 473.005515 
L 328.048388 473.724179 
L 329.153701 474.795363 
L 333.659977 480.59654 
L 335.275434 482.840987 
L 338.166253 486.989164 
L 339.271566 488.613667 
L 350.40972 504.818308 
L 351.515033 506.380377 
L 352.535322 507.838703 
L 362.823235 522.499373 
L 364.098596 524.320446 
L 370.050282 532.693174 
L 371.410667 534.575408 
L 372.601004 536.236783 
L 374.556558 538.924203 
L 376.68216 541.844768 
L 378.552689 544.379419 
L 380.168147 546.569737 
L 382.548821 549.745494 
L 384.079254 551.793362 
L 385.269592 553.364457 
L 389.180699 558.512836 
L 390.45606 560.158626 
L 393.006783 563.465322 
L 412.052176 587.180745 
L 414.262802 589.820476 
L 416.048307 591.958055 
L 417.238644 593.362821 
L 420.129463 596.776114 
L 421.659896 598.558206 
L 424.040571 601.329084 
L 425.826076 603.386195 
L 442.745868 622.442837 
L 445.636686 625.614297 
L 453.033781 633.683906 
L 454.989335 635.793844 
L 457.029912 637.996359 
L 462.81155 644.134293 
L 464.767103 646.196985 
L 470.12362 651.755834 
L 477.265643 659.046461 
L 489.083989 670.820309 
L 489.679158 671.093065 
L 490.614423 671.245343 
L 492.910073 671.312207 
L 502.687842 671.317717 
L 560.079094 671.305667 
L 671.545659 671.305526 
L 671.545659 671.305526 
" clip-path="url(#p60496ae119)" style="fill: none; stroke: #1f77b4; stroke-width: 1.5; stroke-linecap: square"/>
   </g>
   <g id="line2d_35">
    <path d="M 59.542353 671.325387 
L 60.392594 671.236552 
L 61.412882 670.80946 
L 62.433171 670.24684 
L 62.688244 670.136915 
L 63.623508 669.64506 
L 63.878581 669.535245 
L 64.728821 669.095363 
L 67.024472 668.153326 
L 67.61964 668.120436 
L 68.384857 668.281106 
L 71.360699 669.125613 
L 72.040892 669.084965 
L 72.551037 668.878235 
L 73.316253 668.19945 
L 73.911422 667.38217 
L 74.846687 665.815627 
L 75.271807 664.783428 
L 75.441855 664.522945 
L 75.866976 663.322758 
L 76.037024 663.019299 
L 76.462144 661.674812 
L 76.632192 661.334828 
L 77.057313 659.863667 
L 77.227361 659.491372 
L 77.652481 657.928304 
L 78.587746 654.86848 
L 79.523011 651.221218 
L 79.693059 650.641939 
L 80.118179 648.109571 
L 80.288228 647.344123 
L 80.713348 644.507323 
L 81.563589 639.502993 
L 81.988709 636.40466 
L 82.158757 635.471805 
L 82.583878 632.223002 
L 82.753926 631.234702 
L 83.179046 627.836986 
L 83.349094 626.786818 
L 83.774215 623.256327 
L 84.624455 616.833329 
L 85.1346 612.274544 
L 85.899817 604.496032 
L 88.280491 575.612941 
L 88.790635 562.929148 
L 89.810924 543.255327 
L 91.001261 524.899412 
L 91.851502 512.817724 
L 92.446671 490.648041 
L 93.551984 429.33236 
L 93.807056 422.290681 
L 94.062128 409.822553 
L 94.232176 408.730256 
L 94.3172 409.22596 
L 94.657297 400.468512 
L 94.742321 400.999838 
L 94.912369 403.532683 
L 94.997393 402.87169 
L 95.167441 399.74 
L 95.252465 400.087692 
L 95.592561 404.813522 
L 95.677585 403.325492 
L 95.76261 403.463602 
L 95.932658 405.595723 
L 96.272754 411.970209 
L 96.357778 411.487882 
L 96.527826 413.028132 
L 96.867923 418.077487 
L 96.952947 417.735391 
L 97.122995 419.06365 
L 97.463091 423.43828 
L 97.548115 423.277285 
L 97.718163 424.526139 
L 98.05826 428.420014 
L 98.143284 428.402405 
L 98.398356 430.467541 
L 98.738452 433.139405 
L 98.993524 435.003682 
L 99.418645 438.601666 
L 99.758741 441.066851 
L 100.013813 442.618279 
L 100.35391 444.702201 
L 100.608982 446.111438 
L 100.949078 447.982737 
L 101.20415 449.322732 
L 101.544247 451.071154 
L 101.799319 452.378735 
L 102.224439 454.574519 
L 102.394488 455.495873 
L 102.479512 455.503867 
L 102.819608 456.614789 
L 102.989656 457.108195 
L 103.159704 456.827386 
L 103.329752 457.084482 
L 103.499801 457.430811 
L 103.584825 457.120578 
L 103.839897 455.778631 
L 104.009945 455.691743 
L 104.094969 455.523618 
L 104.775162 445.749089 
L 105.030234 432.887268 
L 105.200282 430.328277 
L 105.285306 430.05888 
L 105.540378 431.199636 
L 105.795451 434.003464 
L 107.155836 451.527586 
L 107.751004 456.577318 
L 108.261149 459.629087 
L 108.856317 462.223216 
L 109.706558 464.841125 
L 110.556799 466.57082 
L 111.40704 467.739688 
L 112.002208 468.398492 
L 112.767425 469.243199 
L 113.277569 469.832452 
L 114.552931 471.753352 
L 115.99834 474.818244 
L 117.103653 477.723791 
L 119.654375 484.066438 
L 120.334568 484.979768 
L 120.674664 485.299417 
L 120.759688 485.158921 
L 121.184809 483.488525 
L 122.205097 481.1958 
L 123.990603 477.887563 
L 126.541325 472.353534 
L 127.391566 471.183185 
L 128.922 469.840848 
L 129.687216 469.67017 
L 130.962577 469.885641 
L 131.132626 470.042917 
L 131.387698 469.981372 
L 134.278516 470.807694 
L 134.618613 470.7776 
L 134.788661 470.921366 
L 135.043733 470.751235 
L 135.298805 470.861333 
L 135.383829 470.888044 
L 135.638902 470.688042 
L 135.893974 470.710375 
L 136.064022 470.865445 
L 136.319094 470.671224 
L 136.574166 470.769557 
L 136.659191 470.787717 
L 136.914263 470.53783 
L 137.169335 470.599224 
L 137.254359 470.605074 
L 137.509431 470.313721 
L 137.764504 470.330671 
L 138.019576 470.302065 
L 138.274648 470.393754 
L 139.550009 471.964362 
L 140.995418 474.269605 
L 142.015707 475.540605 
L 142.865948 476.277149 
L 143.716189 476.741239 
L 144.651454 476.992473 
L 145.756767 477.040001 
L 146.436959 477.007506 
L 146.86208 476.40831 
L 147.032128 476.276749 
L 147.457248 475.248257 
L 147.627296 475.019354 
L 148.052417 474.133407 
L 148.732609 473.306794 
L 149.15773 473.139501 
L 152.133573 473.257083 
L 152.813765 473.557963 
L 153.32391 473.543072 
L 153.578982 473.467237 
L 153.74903 473.544952 
L 154.004102 473.388786 
L 154.259174 473.416902 
L 154.514247 473.532391 
L 154.854343 473.672016 
L 155.109415 473.855793 
L 155.449512 474.048288 
L 156.299752 474.916305 
L 156.639849 474.999633 
L 157.149993 475.474859 
L 157.745162 476.104864 
L 158.085258 476.449661 
L 158.170282 476.331898 
L 158.510378 476.176305 
L 158.765451 476.191574 
L 159.105547 476.221445 
L 159.275595 476.361792 
L 159.530667 476.272994 
L 160.380908 476.451186 
L 162.166414 478.054392 
L 162.336462 478.265241 
L 162.676558 478.048799 
L 163.441775 477.935655 
L 163.611823 478.015746 
L 163.951919 477.554202 
L 164.37704 477.317859 
L 164.717136 477.287689 
L 165.312304 477.492998 
L 165.652401 477.55245 
L 165.992497 477.681292 
L 166.332593 477.121623 
L 167.948051 475.416118 
L 168.373171 474.847968 
L 168.713268 474.734305 
L 169.903605 474.983849 
L 170.498773 475.250352 
L 170.753845 475.225984 
L 170.923894 475.304207 
L 171.26399 475.036009 
L 171.68911 474.987721 
L 172.114231 475.124309 
L 172.624375 475.400301 
L 172.794423 475.56773 
L 173.13452 475.513466 
L 173.98476 475.550345 
L 174.324857 475.118147 
L 174.664953 474.973653 
L 175.005049 474.999485 
L 175.175097 475.107524 
L 175.515194 474.801123 
L 175.940314 474.618849 
L 176.28041 474.28028 
L 176.450459 474.258364 
L 176.790555 473.888395 
L 177.130651 473.812327 
L 177.470747 473.89058 
L 177.72582 473.993251 
L 178.065916 474.042648 
L 180.106494 475.285146 
L 180.44659 474.970654 
L 181.381855 474.309926 
L 181.806975 473.896604 
L 182.74224 473.797984 
L 182.997313 473.766389 
L 183.167361 473.852926 
L 183.507457 473.496422 
L 184.017601 473.062694 
L 184.527746 472.74749 
L 184.867842 472.669933 
L 185.03789 472.772298 
L 185.292963 472.557704 
L 185.548035 472.568809 
L 186.90842 472.808777 
L 187.248516 472.606707 
L 187.843685 472.785775 
L 188.77895 473.325879 
L 189.119046 473.414867 
L 189.374118 473.535672 
L 189.799239 473.679149 
L 190.309383 474.093613 
L 190.479431 474.309355 
L 190.734504 474.228644 
L 191.0746 474.317818 
L 192.009865 474.853521 
L 192.349961 475.167475 
L 192.690057 474.804542 
L 193.030154 474.491481 
L 193.455274 473.891125 
L 193.880394 473.692223 
L 194.645611 473.786856 
L 194.815659 473.889709 
L 195.155756 473.823338 
L 196.005996 473.917944 
L 196.346093 473.38512 
L 196.941261 472.916052 
L 197.281357 472.881521 
L 197.706478 473.100379 
L 198.38667 473.75877 
L 200.427248 475.8653 
L 201.617585 476.725512 
L 202.892947 477.375083 
L 204.593428 477.972597 
L 206.804054 478.617134 
L 206.974102 478.320311 
L 207.654295 471.701213 
L 207.994391 467.139387 
L 208.334487 462.876743 
L 208.674584 459.440067 
L 208.844632 458.089441 
L 209.099704 455.187567 
L 209.354776 454.242675 
L 209.4398 454.212455 
L 209.949945 452.111172 
L 210.034969 452.259617 
L 210.119993 452.065837 
L 210.290041 451.273278 
L 210.460089 451.23515 
L 210.545113 451.337146 
L 210.715162 451.628849 
L 210.88521 451.230742 
L 210.970234 451.274286 
L 211.31033 452.190868 
L 211.395354 452.017025 
L 211.565402 452.221731 
L 214.966365 462.207258 
L 215.136414 462.378856 
L 215.47651 463.137881 
L 215.731582 463.714397 
L 216.071678 464.243343 
L 216.241727 464.663033 
L 216.411775 464.71326 
L 216.666847 464.984176 
L 216.836895 465.300738 
L 217.006943 465.278828 
L 217.262016 465.403452 
L 217.34704 465.554961 
L 217.432064 465.486774 
L 217.687136 464.743975 
L 217.942208 464.385658 
L 218.622401 461.353414 
L 219.302593 454.248551 
L 219.557666 447.9886 
L 219.812738 445.060111 
L 219.982786 430.604578 
L 220.237858 417.368885 
L 220.407906 415.257027 
L 220.49293 415.252231 
L 220.577955 415.602604 
L 220.833027 419.007005 
L 222.278436 443.269807 
L 222.958629 450.863002 
L 223.893894 458.398801 
L 224.914182 464.67463 
L 225.849447 469.169078 
L 226.784712 472.671705 
L 227.805001 475.685899 
L 228.995338 478.506991 
L 230.270699 480.959197 
L 231.376012 482.652681 
L 232.226253 483.626174 
L 232.906446 483.997829 
L 233.41659 484.016301 
L 234.266831 483.259559 
L 236.562481 479.951116 
L 237.752818 477.187762 
L 238.518035 474.909845 
L 241.153781 468.466063 
L 241.323829 468.31248 
L 241.663926 467.775666 
L 242.004022 467.623068 
L 242.344118 467.632405 
L 243.619479 468.843289 
L 243.789528 469.123255 
L 244.0446 469.156266 
L 244.554744 469.384157 
L 244.809816 469.424658 
L 245.064889 469.57936 
L 245.404985 469.783664 
L 245.915129 470.539959 
L 246.425274 471.318125 
L 246.76537 471.705916 
L 247.020442 471.873071 
L 247.360539 472.21534 
L 248.040731 473.21379 
L 248.125755 473.142177 
L 248.465852 473.147813 
L 248.6359 473.287046 
L 248.890972 473.059015 
L 249.146044 473.046619 
L 249.741213 473.460381 
L 249.911261 473.696954 
L 250.166333 473.584515 
L 250.591454 473.522971 
L 250.93155 473.203597 
L 251.526719 473.217858 
L 252.376959 473.943274 
L 253.057152 474.47924 
L 253.482272 474.334629 
L 253.992417 474.446546 
L 254.757633 474.883107 
L 255.09773 474.524392 
L 255.52285 474.233721 
L 255.947971 473.742269 
L 257.053284 473.032323 
L 257.223332 473.072171 
L 257.563428 472.844007 
L 258.328645 472.742733 
L 258.498693 472.835632 
L 258.838789 472.386204 
L 259.944102 471.570551 
L 261.134439 471.366723 
L 261.474536 471.495589 
L 262.239752 471.881896 
L 262.579849 471.743695 
L 263.260041 472.008579 
L 264.620426 472.983211 
L 264.960523 472.625785 
L 265.640715 472.299748 
L 265.895788 472.290391 
L 266.235884 472.282667 
L 266.405932 472.3939 
L 266.746028 472.030975 
L 267.171149 471.957882 
L 267.511245 472.055141 
L 267.681293 472.211303 
L 267.936365 472.08739 
L 268.44651 472.019138 
L 268.701582 471.920837 
L 268.87163 471.977275 
L 269.211727 471.478811 
L 270.232015 470.657521 
L 270.572112 470.82544 
L 270.997232 471.172397 
L 271.592401 471.837913 
L 272.527666 472.905308 
L 272.782738 472.770974 
L 273.632979 472.712928 
L 273.803027 472.813094 
L 274.143123 472.384802 
L 274.568243 471.942695 
L 274.823316 471.628431 
L 274.993364 471.58274 
L 275.33346 471.207125 
L 275.673556 471.189644 
L 276.013653 471.385923 
L 276.438773 471.73007 
L 277.033942 472.116737 
L 277.374038 472.170926 
L 277.884182 472.513834 
L 278.054231 472.708904 
L 278.394327 472.36301 
L 278.819447 471.992395 
L 279.159544 471.682604 
L 279.584664 471.638272 
L 280.179832 471.773279 
L 280.604953 471.740721 
L 280.945049 471.467993 
L 281.200121 471.421872 
L 281.540218 471.404933 
L 281.710266 471.516019 
L 282.050362 471.087523 
L 282.560507 470.899705 
L 282.900603 470.977356 
L 283.325723 471.346648 
L 284.175964 472.481548 
L 285.621373 474.37395 
L 286.641662 475.338367 
L 287.661951 476.004944 
L 288.852288 476.503793 
L 290.382722 476.876728 
L 291.488035 477.066347 
L 291.913155 476.209883 
L 292.338275 475.78075 
L 292.763396 475.642047 
L 293.27354 475.720612 
L 294.038757 476.111706 
L 295.399142 477.120931 
L 297.184648 478.454995 
L 297.609768 478.468848 
L 298.119913 478.736306 
L 298.885129 479.445731 
L 300.500587 481.371454 
L 301.010731 481.901953 
L 301.690924 482.463109 
L 302.286092 482.738649 
L 302.881261 482.821223 
L 303.391405 482.745823 
L 303.986574 482.519641 
L 304.241646 482.436993 
L 304.411694 482.503755 
L 304.751791 482.166877 
L 305.261935 481.777746 
L 305.942128 481.140841 
L 306.792369 480.358984 
L 307.132465 479.720961 
L 307.472561 479.490263 
L 307.812657 478.383347 
L 308.152754 477.441878 
L 308.49285 476.366849 
L 308.577874 476.300755 
L 308.747922 475.57201 
L 309.088019 474.522411 
L 309.173043 474.474804 
L 309.343091 473.78543 
L 309.683187 472.852389 
L 309.768211 472.838887 
L 309.938259 472.215487 
L 310.278356 471.468179 
L 310.618452 470.985585 
L 310.958548 470.446141 
L 311.043572 470.519772 
L 311.128596 470.413006 
L 311.383669 469.698113 
L 311.553717 469.544723 
L 311.638741 469.627298 
L 311.723765 469.528753 
L 311.978837 468.839 
L 312.148885 468.704549 
L 312.233909 468.796514 
L 312.318934 468.706396 
L 312.574006 468.039795 
L 312.744054 467.920052 
L 312.829078 468.0187 
L 312.914102 467.934265 
L 313.169174 467.284585 
L 313.424247 467.204582 
L 313.594295 467.304775 
L 313.849367 466.749061 
L 314.019415 466.678612 
L 314.189463 466.77045 
L 314.444535 466.29997 
L 314.614584 466.263145 
L 314.784632 466.409268 
L 315.039704 466.104851 
L 315.209752 466.13486 
L 315.3798 466.343923 
L 315.549848 466.216381 
L 315.804921 466.203266 
L 315.889945 465.954285 
L 316.485113 460.665968 
L 316.910234 459.957294 
L 317.080282 460.039115 
L 317.590426 461.020108 
L 318.270619 463.144959 
L 319.12086 465.743249 
L 319.9711 467.595007 
L 320.651293 468.57548 
L 321.41651 469.312278 
L 322.011678 469.67558 
L 322.521823 469.883431 
L 323.967232 470.521426 
L 324.392352 470.628808 
L 324.647425 470.744624 
L 325.072545 470.925256 
L 325.497665 471.039179 
L 326.262882 471.496885 
L 328.72858 473.389535 
L 329.578821 473.735305 
L 330.429062 473.854325 
L 331.02423 473.746869 
L 333.404905 473.123543 
L 334.595242 473.011538 
L 335.530507 473.135254 
L 336.465771 473.496989 
L 337.401036 474.114715 
L 338.421325 475.071091 
L 339.611662 476.511323 
L 341.142096 478.744678 
L 343.94789 483.341494 
L 346.668661 487.635836 
L 348.624214 490.311018 
L 350.324696 492.281388 
L 352.025177 493.913437 
L 353.725659 495.228044 
L 355.426141 496.261403 
L 357.211646 497.0907 
L 359.1672 497.756898 
L 361.46285 498.294478 
L 364.18362 498.693399 
L 367.754632 498.976522 
L 373.026124 499.147796 
L 383.56911 499.220156 
L 452.863733 499.227935 
L 671.545659 499.227935 
L 671.545659 499.227935 
" clip-path="url(#p60496ae119)" style="fill: none; stroke: #ff7f0e; stroke-width: 1.5; stroke-linecap: square"/>
   </g>
   <g id="patch_9">
    <path d="M 28.942187 684.92 
L 28.942187 386.16 
" style="fill: none; stroke: #000000; stroke-width: 0.8; stroke-linejoin: miter; stroke-linecap: square"/>
   </g>
   <g id="patch_10">
    <path d="M 702.145824 684.92 
L 702.145824 386.16 
" style="fill: none; stroke: #000000; stroke-width: 0.8; stroke-linejoin: miter; stroke-linecap: square"/>
   </g>
   <g id="patch_11">
    <path d="M 28.942187 684.92 
L 702.145824 684.92 
" style="fill: none; stroke: #000000; stroke-width: 0.8; stroke-linejoin: miter; stroke-linecap: square"/>
   </g>
   <g id="patch_12">
    <path d="M 28.942187 386.16 
L 702.145824 386.16 
" style="fill: none; stroke: #000000; stroke-width: 0.8; stroke-linejoin: miter; stroke-linecap: square"/>
   </g>
   <g id="text_33">
    <!-- 2 transformation(s) -->
    <g transform="translate(307.429318 380.16) scale(0.12 -0.12)">
     <use xlink:href="#DejaVuSans-32"/>
     <use xlink:href="#DejaVuSans-20" x="63.623047"/>
     <use xlink:href="#DejaVuSans-74" x="95.410156"/>
     <use xlink:href="#DejaVuSans-72" x="134.619141"/>
     <use xlink:href="#DejaVuSans-61" x="175.732422"/>
     <use xlink:href="#DejaVuSans-6e" x="237.011719"/>
     <use xlink:href="#DejaVuSans-73" x="300.390625"/>
     <use xlink:href="#DejaVuSans-66" x="352.490234"/>
     <use xlink:href="#DejaVuSans-6f" x="387.695312"/>
     <use xlink:href="#DejaVuSans-72" x="448.876953"/>
     <use xlink:href="#DejaVuSans-6d" x="488.240234"/>
     <use xlink:href="#DejaVuSans-61" x="585.652344"/>
     <use xlink:href="#DejaVuSans-74" x="646.931641"/>
     <use xlink:href="#DejaVuSans-69" x="686.140625"/>
     <use xlink:href="#DejaVuSans-6f" x="713.923828"/>
     <use xlink:href="#DejaVuSans-6e" x="775.105469"/>
     <use xlink:href="#DejaVuSans-28" x="838.484375"/>
     <use xlink:href="#DejaVuSans-73" x="877.498047"/>
     <use xlink:href="#DejaVuSans-29" x="929.597656"/>
    </g>
   </g>
  </g>
  <g id="text_34">
   <!-- training -->
   <g transform="translate(333.13875 16.318125) scale(0.12 -0.12)">
    <defs>
     <path id="DejaVuSans-67" d="M 2906 1791 
Q 2906 2416 2648 2759 
Q 2391 3103 1925 3103 
Q 1463 3103 1205 2759 
Q 947 2416 947 1791 
Q 947 1169 1205 825 
Q 1463 481 1925 481 
Q 2391 481 2648 825 
Q 2906 1169 2906 1791 
z
M 3481 434 
Q 3481 -459 3084 -895 
Q 2688 -1331 1869 -1331 
Q 1566 -1331 1297 -1286 
Q 1028 -1241 775 -1147 
L 775 -588 
Q 1028 -725 1275 -790 
Q 1522 -856 1778 -856 
Q 2344 -856 2625 -561 
Q 2906 -266 2906 331 
L 2906 616 
Q 2728 306 2450 153 
Q 2172 0 1784 0 
Q 1141 0 747 490 
Q 353 981 353 1791 
Q 353 2603 747 3093 
Q 1141 3584 1784 3584 
Q 2172 3584 2450 3431 
Q 2728 3278 2906 2969 
L 2906 3500 
L 3481 3500 
L 3481 434 
z
" transform="scale(0.015625)"/>
    </defs>
    <use xlink:href="#DejaVuSans-74"/>
    <use xlink:href="#DejaVuSans-72" x="39.208984"/>
    <use xlink:href="#DejaVuSans-61" x="80.322266"/>
    <use xlink:href="#DejaVuSans-69" x="141.601562"/>
    <use xlink:href="#DejaVuSans-6e" x="169.384766"/>
    <use xlink:href="#DejaVuSans-69" x="232.763672"/>
    <use xlink:href="#DejaVuSans-6e" x="260.546875"/>
    <use xlink:href="#DejaVuSans-67" x="323.925781"/>
   </g>
  </g>
 </g>
 <defs>
  <clipPath id="p80ed6f4dce">
   <rect x="28.942187" y="43.44" width="673.203636" height="298.76"/>
  </clipPath>
  <clipPath id="p60496ae119">
   <rect x="28.942187" y="386.16" width="673.203636" height="298.76"/>
  </clipPath>
 </defs>
</svg>
