<?xml version="1.0" encoding="utf-8" standalone="no"?>
<!DOCTYPE svg PUBLIC "-//W3C//DTD SVG 1.1//EN"
  "http://www.w3.org/Graphics/SVG/1.1/DTD/svg11.dtd">
<svg xmlns:xlink="http://www.w3.org/1999/xlink" width="709.336136pt" height="708.798125pt" viewBox="0 0 709.336136 708.798125" xmlns="http://www.w3.org/2000/svg" version="1.1">
 <metadata>
  <rdf:RDF xmlns:dc="http://purl.org/dc/elements/1.1/" xmlns:cc="http://creativecommons.org/ns#" xmlns:rdf="http://www.w3.org/1999/02/22-rdf-syntax-ns#">
   <cc:Work>
    <dc:type rdf:resource="http://purl.org/dc/dcmitype/StillImage"/>
    <dc:date>2023-06-17T05:26:54.129101</dc:date>
    <dc:format>image/svg+xml</dc:format>
    <dc:creator>
     <cc:Agent>
      <dc:title>Matplotlib v3.7.1, https://matplotlib.org/</dc:title>
     </cc:Agent>
    </dc:creator>
   </cc:Work>
  </rdf:RDF>
 </metadata>
 <defs>
  <style type="text/css">*{stroke-linejoin: round; stroke-linecap: butt}</style>
 </defs>
 <g id="figure_1">
  <g id="patch_1">
   <path d="M 0 708.798125 
L 709.336136 708.798125 
L 709.336136 0 
L 0 0 
z
" style="fill: #ffffff"/>
  </g>
  <g id="axes_1">
   <g id="patch_2">
    <path d="M 20.5625 342.2 
L 702.136136 342.2 
L 702.136136 43.44 
L 20.5625 43.44 
z
" style="fill: #ffffff"/>
   </g>
   <g id="matplotlib.axis_1">
    <g id="xtick_1">
     <g id="line2d_1">
      <defs>
       <path id="m8ef7267b51" d="M 0 0 
L 0 3.5 
" style="stroke: #000000; stroke-width: 0.8"/>
      </defs>
      <g>
       <use xlink:href="#m8ef7267b51" x="51.370957" y="342.2" style="stroke: #000000; stroke-width: 0.8"/>
      </g>
     </g>
     <g id="text_1">
      <!-- 2014-07-01 -->
      <g transform="translate(22.313145 356.798437) scale(0.1 -0.1)">
       <defs>
        <path id="DejaVuSans-32" d="M 1228 531 
L 3431 531 
L 3431 0 
L 469 0 
L 469 531 
Q 828 903 1448 1529 
Q 2069 2156 2228 2338 
Q 2531 2678 2651 2914 
Q 2772 3150 2772 3378 
Q 2772 3750 2511 3984 
Q 2250 4219 1831 4219 
Q 1534 4219 1204 4116 
Q 875 4013 500 3803 
L 500 4441 
Q 881 4594 1212 4672 
Q 1544 4750 1819 4750 
Q 2544 4750 2975 4387 
Q 3406 4025 3406 3419 
Q 3406 3131 3298 2873 
Q 3191 2616 2906 2266 
Q 2828 2175 2409 1742 
Q 1991 1309 1228 531 
z
" transform="scale(0.015625)"/>
        <path id="DejaVuSans-30" d="M 2034 4250 
Q 1547 4250 1301 3770 
Q 1056 3291 1056 2328 
Q 1056 1369 1301 889 
Q 1547 409 2034 409 
Q 2525 409 2770 889 
Q 3016 1369 3016 2328 
Q 3016 3291 2770 3770 
Q 2525 4250 2034 4250 
z
M 2034 4750 
Q 2819 4750 3233 4129 
Q 3647 3509 3647 2328 
Q 3647 1150 3233 529 
Q 2819 -91 2034 -91 
Q 1250 -91 836 529 
Q 422 1150 422 2328 
Q 422 3509 836 4129 
Q 1250 4750 2034 4750 
z
" transform="scale(0.015625)"/>
        <path id="DejaVuSans-31" d="M 794 531 
L 1825 531 
L 1825 4091 
L 703 3866 
L 703 4441 
L 1819 4666 
L 2450 4666 
L 2450 531 
L 3481 531 
L 3481 0 
L 794 0 
L 794 531 
z
" transform="scale(0.015625)"/>
        <path id="DejaVuSans-34" d="M 2419 4116 
L 825 1625 
L 2419 1625 
L 2419 4116 
z
M 2253 4666 
L 3047 4666 
L 3047 1625 
L 3713 1625 
L 3713 1100 
L 3047 1100 
L 3047 0 
L 2419 0 
L 2419 1100 
L 313 1100 
L 313 1709 
L 2253 4666 
z
" transform="scale(0.015625)"/>
        <path id="DejaVuSans-2d" d="M 313 2009 
L 1997 2009 
L 1997 1497 
L 313 1497 
L 313 2009 
z
" transform="scale(0.015625)"/>
        <path id="DejaVuSans-37" d="M 525 4666 
L 3525 4666 
L 3525 4397 
L 1831 0 
L 1172 0 
L 2766 4134 
L 525 4134 
L 525 4666 
z
" transform="scale(0.015625)"/>
       </defs>
       <use xlink:href="#DejaVuSans-32"/>
       <use xlink:href="#DejaVuSans-30" x="63.623047"/>
       <use xlink:href="#DejaVuSans-31" x="127.246094"/>
       <use xlink:href="#DejaVuSans-34" x="190.869141"/>
       <use xlink:href="#DejaVuSans-2d" x="254.492188"/>
       <use xlink:href="#DejaVuSans-30" x="290.576172"/>
       <use xlink:href="#DejaVuSans-37" x="354.199219"/>
       <use xlink:href="#DejaVuSans-2d" x="417.822266"/>
       <use xlink:href="#DejaVuSans-30" x="453.90625"/>
       <use xlink:href="#DejaVuSans-31" x="517.529297"/>
      </g>
     </g>
    </g>
    <g id="xtick_2">
     <g id="line2d_2">
      <g>
       <use xlink:href="#m8ef7267b51" x="175.327869" y="342.2" style="stroke: #000000; stroke-width: 0.8"/>
      </g>
     </g>
     <g id="text_2">
      <!-- 2014-07-02 -->
      <g transform="translate(146.270057 356.798437) scale(0.1 -0.1)">
       <use xlink:href="#DejaVuSans-32"/>
       <use xlink:href="#DejaVuSans-30" x="63.623047"/>
       <use xlink:href="#DejaVuSans-31" x="127.246094"/>
       <use xlink:href="#DejaVuSans-34" x="190.869141"/>
       <use xlink:href="#DejaVuSans-2d" x="254.492188"/>
       <use xlink:href="#DejaVuSans-30" x="290.576172"/>
       <use xlink:href="#DejaVuSans-37" x="354.199219"/>
       <use xlink:href="#DejaVuSans-2d" x="417.822266"/>
       <use xlink:href="#DejaVuSans-30" x="453.90625"/>
       <use xlink:href="#DejaVuSans-32" x="517.529297"/>
      </g>
     </g>
    </g>
    <g id="xtick_3">
     <g id="line2d_3">
      <g>
       <use xlink:href="#m8ef7267b51" x="299.284781" y="342.2" style="stroke: #000000; stroke-width: 0.8"/>
      </g>
     </g>
     <g id="text_3">
      <!-- 2014-07-03 -->
      <g transform="translate(270.226969 356.798437) scale(0.1 -0.1)">
       <defs>
        <path id="DejaVuSans-33" d="M 2597 2516 
Q 3050 2419 3304 2112 
Q 3559 1806 3559 1356 
Q 3559 666 3084 287 
Q 2609 -91 1734 -91 
Q 1441 -91 1130 -33 
Q 819 25 488 141 
L 488 750 
Q 750 597 1062 519 
Q 1375 441 1716 441 
Q 2309 441 2620 675 
Q 2931 909 2931 1356 
Q 2931 1769 2642 2001 
Q 2353 2234 1838 2234 
L 1294 2234 
L 1294 2753 
L 1863 2753 
Q 2328 2753 2575 2939 
Q 2822 3125 2822 3475 
Q 2822 3834 2567 4026 
Q 2313 4219 1838 4219 
Q 1578 4219 1281 4162 
Q 984 4106 628 3988 
L 628 4550 
Q 988 4650 1302 4700 
Q 1616 4750 1894 4750 
Q 2613 4750 3031 4423 
Q 3450 4097 3450 3541 
Q 3450 3153 3228 2886 
Q 3006 2619 2597 2516 
z
" transform="scale(0.015625)"/>
       </defs>
       <use xlink:href="#DejaVuSans-32"/>
       <use xlink:href="#DejaVuSans-30" x="63.623047"/>
       <use xlink:href="#DejaVuSans-31" x="127.246094"/>
       <use xlink:href="#DejaVuSans-34" x="190.869141"/>
       <use xlink:href="#DejaVuSans-2d" x="254.492188"/>
       <use xlink:href="#DejaVuSans-30" x="290.576172"/>
       <use xlink:href="#DejaVuSans-37" x="354.199219"/>
       <use xlink:href="#DejaVuSans-2d" x="417.822266"/>
       <use xlink:href="#DejaVuSans-30" x="453.90625"/>
       <use xlink:href="#DejaVuSans-33" x="517.529297"/>
      </g>
     </g>
    </g>
    <g id="xtick_4">
     <g id="line2d_4">
      <g>
       <use xlink:href="#m8ef7267b51" x="423.241693" y="342.2" style="stroke: #000000; stroke-width: 0.8"/>
      </g>
     </g>
     <g id="text_4">
      <!-- 2014-07-04 -->
      <g transform="translate(394.18388 356.798437) scale(0.1 -0.1)">
       <use xlink:href="#DejaVuSans-32"/>
       <use xlink:href="#DejaVuSans-30" x="63.623047"/>
       <use xlink:href="#DejaVuSans-31" x="127.246094"/>
       <use xlink:href="#DejaVuSans-34" x="190.869141"/>
       <use xlink:href="#DejaVuSans-2d" x="254.492188"/>
       <use xlink:href="#DejaVuSans-30" x="290.576172"/>
       <use xlink:href="#DejaVuSans-37" x="354.199219"/>
       <use xlink:href="#DejaVuSans-2d" x="417.822266"/>
       <use xlink:href="#DejaVuSans-30" x="453.90625"/>
       <use xlink:href="#DejaVuSans-34" x="517.529297"/>
      </g>
     </g>
    </g>
    <g id="xtick_5">
     <g id="line2d_5">
      <g>
       <use xlink:href="#m8ef7267b51" x="547.198605" y="342.2" style="stroke: #000000; stroke-width: 0.8"/>
      </g>
     </g>
     <g id="text_5">
      <!-- 2014-07-05 -->
      <g transform="translate(518.140792 356.798437) scale(0.1 -0.1)">
       <defs>
        <path id="DejaVuSans-35" d="M 691 4666 
L 3169 4666 
L 3169 4134 
L 1269 4134 
L 1269 2991 
Q 1406 3038 1543 3061 
Q 1681 3084 1819 3084 
Q 2600 3084 3056 2656 
Q 3513 2228 3513 1497 
Q 3513 744 3044 326 
Q 2575 -91 1722 -91 
Q 1428 -91 1123 -41 
Q 819 9 494 109 
L 494 744 
Q 775 591 1075 516 
Q 1375 441 1709 441 
Q 2250 441 2565 725 
Q 2881 1009 2881 1497 
Q 2881 1984 2565 2268 
Q 2250 2553 1709 2553 
Q 1456 2553 1204 2497 
Q 953 2441 691 2322 
L 691 4666 
z
" transform="scale(0.015625)"/>
       </defs>
       <use xlink:href="#DejaVuSans-32"/>
       <use xlink:href="#DejaVuSans-30" x="63.623047"/>
       <use xlink:href="#DejaVuSans-31" x="127.246094"/>
       <use xlink:href="#DejaVuSans-34" x="190.869141"/>
       <use xlink:href="#DejaVuSans-2d" x="254.492188"/>
       <use xlink:href="#DejaVuSans-30" x="290.576172"/>
       <use xlink:href="#DejaVuSans-37" x="354.199219"/>
       <use xlink:href="#DejaVuSans-2d" x="417.822266"/>
       <use xlink:href="#DejaVuSans-30" x="453.90625"/>
       <use xlink:href="#DejaVuSans-35" x="517.529297"/>
      </g>
     </g>
    </g>
    <g id="xtick_6">
     <g id="line2d_6">
      <g>
       <use xlink:href="#m8ef7267b51" x="671.155517" y="342.2" style="stroke: #000000; stroke-width: 0.8"/>
      </g>
     </g>
     <g id="text_6">
      <!-- 2014-07-06 -->
      <g transform="translate(642.097704 356.798437) scale(0.1 -0.1)">
       <defs>
        <path id="DejaVuSans-36" d="M 2113 2584 
Q 1688 2584 1439 2293 
Q 1191 2003 1191 1497 
Q 1191 994 1439 701 
Q 1688 409 2113 409 
Q 2538 409 2786 701 
Q 3034 994 3034 1497 
Q 3034 2003 2786 2293 
Q 2538 2584 2113 2584 
z
M 3366 4563 
L 3366 3988 
Q 3128 4100 2886 4159 
Q 2644 4219 2406 4219 
Q 1781 4219 1451 3797 
Q 1122 3375 1075 2522 
Q 1259 2794 1537 2939 
Q 1816 3084 2150 3084 
Q 2853 3084 3261 2657 
Q 3669 2231 3669 1497 
Q 3669 778 3244 343 
Q 2819 -91 2113 -91 
Q 1303 -91 875 529 
Q 447 1150 447 2328 
Q 447 3434 972 4092 
Q 1497 4750 2381 4750 
Q 2619 4750 2861 4703 
Q 3103 4656 3366 4563 
z
" transform="scale(0.015625)"/>
       </defs>
       <use xlink:href="#DejaVuSans-32"/>
       <use xlink:href="#DejaVuSans-30" x="63.623047"/>
       <use xlink:href="#DejaVuSans-31" x="127.246094"/>
       <use xlink:href="#DejaVuSans-34" x="190.869141"/>
       <use xlink:href="#DejaVuSans-2d" x="254.492188"/>
       <use xlink:href="#DejaVuSans-30" x="290.576172"/>
       <use xlink:href="#DejaVuSans-37" x="354.199219"/>
       <use xlink:href="#DejaVuSans-2d" x="417.822266"/>
       <use xlink:href="#DejaVuSans-30" x="453.90625"/>
       <use xlink:href="#DejaVuSans-36" x="517.529297"/>
      </g>
     </g>
    </g>
   </g>
   <g id="matplotlib.axis_2">
    <g id="ytick_1">
     <g id="line2d_7">
      <defs>
       <path id="m7dfbf27941" d="M 0 0 
L -3.5 0 
" style="stroke: #000000; stroke-width: 0.8"/>
      </defs>
      <g>
       <use xlink:href="#m7dfbf27941" x="20.5625" y="328.618125" style="stroke: #000000; stroke-width: 0.8"/>
      </g>
     </g>
     <g id="text_7">
      <!-- 0 -->
      <g transform="translate(7.2 332.417344) scale(0.1 -0.1)">
       <use xlink:href="#DejaVuSans-30"/>
      </g>
     </g>
    </g>
    <g id="ytick_2">
     <g id="line2d_8">
      <g>
       <use xlink:href="#m7dfbf27941" x="20.5625" y="268.934812" style="stroke: #000000; stroke-width: 0.8"/>
      </g>
     </g>
     <g id="text_8">
      <!-- 1 -->
      <g transform="translate(7.2 272.734031) scale(0.1 -0.1)">
       <use xlink:href="#DejaVuSans-31"/>
      </g>
     </g>
    </g>
    <g id="ytick_3">
     <g id="line2d_9">
      <g>
       <use xlink:href="#m7dfbf27941" x="20.5625" y="209.251499" style="stroke: #000000; stroke-width: 0.8"/>
      </g>
     </g>
     <g id="text_9">
      <!-- 2 -->
      <g transform="translate(7.2 213.050718) scale(0.1 -0.1)">
       <use xlink:href="#DejaVuSans-32"/>
      </g>
     </g>
    </g>
    <g id="ytick_4">
     <g id="line2d_10">
      <g>
       <use xlink:href="#m7dfbf27941" x="20.5625" y="149.568187" style="stroke: #000000; stroke-width: 0.8"/>
      </g>
     </g>
     <g id="text_10">
      <!-- 3 -->
      <g transform="translate(7.2 153.367405) scale(0.1 -0.1)">
       <use xlink:href="#DejaVuSans-33"/>
      </g>
     </g>
    </g>
    <g id="ytick_5">
     <g id="line2d_11">
      <g>
       <use xlink:href="#m7dfbf27941" x="20.5625" y="89.884874" style="stroke: #000000; stroke-width: 0.8"/>
      </g>
     </g>
     <g id="text_11">
      <!-- 4 -->
      <g transform="translate(7.2 93.684093) scale(0.1 -0.1)">
       <use xlink:href="#DejaVuSans-34"/>
      </g>
     </g>
    </g>
   </g>
   <g id="line2d_12">
    <path d="M 51.54312 328.618125 
L 52.059607 328.450939 
L 52.490013 328.182 
L 53.69515 327.148869 
L 54.297718 326.174463 
L 54.642043 325.067137 
L 55.330692 321.274805 
L 55.761098 320.735833 
L 57.740965 319.197322 
L 58.77394 317.957448 
L 59.462589 317.485289 
L 60.151239 317.299215 
L 61.098132 317.301107 
L 61.786781 317.520531 
L 62.733674 318.112389 
L 64.455298 319.183143 
L 65.230029 319.454052 
L 65.918678 319.424472 
L 66.607328 319.031256 
L 67.812465 317.909429 
L 68.328952 316.56532 
L 68.673276 314.588608 
L 69.878413 304.250415 
L 70.653144 295.17848 
L 71.85828 286.799733 
L 72.116524 284.640115 
L 72.54693 280.980647 
L 72.805173 279.02732 
L 73.149498 275.342616 
L 73.321661 274.815341 
L 73.493823 272.875315 
L 73.752067 270.125425 
L 73.838148 270.182916 
L 74.01031 269.615866 
L 74.354635 267.156467 
L 74.440716 267.289428 
L 74.526797 267.193329 
L 74.69896 266.079776 
L 74.871122 265.191969 
L 74.957203 265.16795 
L 75.129366 265.406367 
L 75.301528 264.433367 
L 75.47369 263.781658 
L 75.559771 263.862732 
L 75.731934 264.187672 
L 75.818015 264.007276 
L 76.076259 262.992064 
L 76.420583 264.342141 
L 76.678827 263.19416 
L 77.109233 264.39208 
L 77.281395 263.63451 
L 77.367476 263.722833 
L 77.711801 264.630633 
L 77.970045 263.597876 
L 78.056126 263.60699 
L 78.228288 263.892856 
L 78.572613 262.318364 
L 78.658694 262.425477 
L 78.830857 262.875844 
L 78.916938 262.819602 
L 79.175181 262.114894 
L 79.519506 263.764832 
L 79.605587 263.655321 
L 79.691669 263.448906 
L 79.949912 264.657299 
L 80.294237 266.697263 
L 80.466399 267.595813 
L 80.638562 268.801659 
L 80.810724 266.07232 
L 80.982886 261.245999 
L 81.24113 265.009446 
L 81.413292 266.227337 
L 81.499374 263.167686 
L 81.757617 249.475293 
L 82.015861 252.765492 
L 82.188023 253.184433 
L 82.360185 254.506777 
L 82.446267 254.550014 
L 82.790591 264.184164 
L 83.565322 283.797079 
L 83.909647 286.957126 
L 84.16789 290.080369 
L 84.340053 291.273611 
L 84.512215 282.46333 
L 84.684378 267.235185 
L 84.85654 271.540745 
L 84.942621 270.862953 
L 85.114783 252.24407 
L 85.373027 190.33097 
L 85.459108 198.35462 
L 85.545189 192.009822 
L 85.717352 169.53169 
L 85.803433 167.345823 
L 86.31992 141.32318 
L 86.750326 132.788175 
L 86.922488 116.349787 
L 87.00857 123.220085 
L 87.180732 142.212374 
L 87.266813 135.27164 
L 87.525057 86.766967 
L 87.955463 72.843635 
L 88.127625 69.752792 
L 88.299787 67.440822 
L 88.47195 77.251171 
L 88.644112 76.189642 
L 89.160599 72.826474 
L 89.246681 72.787029 
L 89.677086 71.721544 
L 89.849249 71.777552 
L 90.193574 70.460772 
L 90.451817 71.06223 
L 90.62398 70.754671 
L 90.710061 70.587188 
L 90.882223 69.479442 
L 90.968304 69.57219 
L 91.140467 67.67396 
L 91.226548 67.668837 
L 91.39871 65.832563 
L 91.484791 65.705863 
L 91.656954 64.513848 
L 91.743035 64.584911 
L 91.915197 63.963219 
L 92.001279 63.837913 
L 92.08736 63.256577 
L 92.173441 63.346024 
L 92.603847 62.682099 
L 92.689928 62.873089 
L 92.86209 62.757117 
L 93.034253 63.061233 
L 93.120334 63.110182 
L 93.636821 65.204041 
L 93.981146 68.010633 
L 94.153308 70.685714 
L 94.325471 73.25746 
L 94.411552 73.557506 
L 94.497633 76.137533 
L 94.669795 181.05971 
L 94.755877 172.774135 
L 94.841958 174.762851 
L 95.530607 183.911082 
L 95.616688 183.553292 
L 95.70277 182.391658 
L 95.788851 182.718626 
L 95.874932 183.489871 
L 95.961013 183.392668 
L 96.047094 183.388086 
L 96.133176 182.965026 
L 96.391419 175.676833 
L 96.4775 176.119744 
L 96.735744 173.790883 
L 97.080069 155.864078 
L 97.252231 150.049375 
L 97.510475 136.514938 
L 97.940881 117.648865 
L 98.026962 117.068823 
L 98.113043 117.637609 
L 98.285205 120.732464 
L 98.457368 113.273729 
L 98.62953 109.742054 
L 98.715611 109.472175 
L 98.973855 114.743904 
L 99.146017 113.905367 
L 99.31818 113.647954 
L 99.404261 113.361199 
L 99.490342 114.284316 
L 99.662504 118.738924 
L 99.834667 135.648013 
L 99.920748 151.070762 
L 100.09291 204.421258 
L 100.265073 200.58672 
L 100.523316 206.955836 
L 100.867641 220.015844 
L 100.953722 220.260835 
L 101.125885 220.112577 
L 101.298047 221.100432 
L 102.417102 234.993114 
L 102.503184 235.13107 
L 102.589265 235.027592 
L 102.675346 235.416011 
L 103.019671 246.920324 
L 103.450077 252.805712 
L 103.794401 255.352044 
L 104.741294 259.786048 
L 105.085619 260.623624 
L 105.516025 261.483498 
L 106.032512 262.734139 
L 106.376837 263.02714 
L 106.635081 263.302206 
L 107.495893 264.721439 
L 107.754136 264.852266 
L 108.01238 265.354023 
L 108.614948 266.933973 
L 108.873192 267.103689 
L 109.131435 267.023975 
L 109.303597 266.764619 
L 109.647922 268.298244 
L 110.078328 272.236352 
L 110.164409 271.989917 
L 110.422653 270.757174 
L 110.680897 269.183048 
L 111.197384 270.891693 
L 111.369546 272.16556 
L 111.62779 274.360549 
L 111.886033 273.706264 
L 112.144277 272.223699 
L 112.316439 271.268796 
L 112.488601 271.963375 
L 112.919007 274.91588 
L 113.263332 278.504855 
L 113.435495 278.434539 
L 113.607657 277.459658 
L 114.038063 274.337031 
L 114.382388 277.461238 
L 114.468469 277.295089 
L 114.812794 274.506302 
L 115.329281 270.719931 
L 115.673605 269.367492 
L 115.759687 269.387029 
L 116.104011 272.184695 
L 116.620499 279.113199 
L 116.878742 279.836583 
L 117.223067 280.312457 
L 117.653473 283.01509 
L 118.256041 288.63515 
L 118.514285 289.366306 
L 119.289015 290.624382 
L 119.891584 293.588726 
L 120.235908 294.053615 
L 120.408071 293.995853 
L 120.752396 293.878843 
L 122.129695 293.690037 
L 122.387938 293.43606 
L 123.24875 292.879544 
L 124.195643 292.119515 
L 124.539968 291.989339 
L 124.970374 291.622013 
L 125.142536 291.483989 
L 125.572942 290.926049 
L 126.433754 290.001345 
L 126.778079 289.604638 
L 127.638891 288.898917 
L 128.069297 288.395466 
L 128.32754 287.934039 
L 128.930109 286.989467 
L 129.188352 286.848067 
L 129.963083 285.736464 
L 130.909976 284.76763 
L 131.082138 284.900268 
L 131.340382 284.728407 
L 131.512544 284.686771 
L 131.94295 285.208307 
L 132.287275 286.189788 
L 132.803762 288.404847 
L 133.492412 293.810007 
L 134.008899 297.721293 
L 136.24701 305.667835 
L 136.935659 307.270803 
L 137.796471 308.716809 
L 138.829445 310.030541 
L 139.604176 310.723068 
L 140.034582 310.647836 
L 140.206744 310.454337 
L 140.464988 309.552393 
L 141.067556 307.044861 
L 141.670124 304.255559 
L 142.186612 299.781938 
L 142.444855 299.025755 
L 143.477829 298.735736 
L 143.736073 299.140067 
L 144.080398 299.591991 
L 144.596885 299.895411 
L 145.199453 299.542945 
L 145.457697 299.429537 
L 145.71594 299.470285 
L 146.40459 298.700223 
L 146.662833 298.373668 
L 146.921077 298.284498 
L 147.351483 297.776102 
L 147.523645 297.536561 
L 148.728782 294.98262 
L 148.987026 294.935758 
L 149.503513 295.363344 
L 149.847837 295.266721 
L 150.106081 295.504718 
L 150.79473 297.103981 
L 151.311218 297.170387 
L 151.741624 296.739948 
L 152.172029 296.585226 
L 152.430273 296.824259 
L 152.602435 296.52279 
L 153.291085 294.256266 
L 153.721491 293.875851 
L 153.893653 293.870896 
L 154.926628 294.914705 
L 155.443115 296.160735 
L 155.873521 297.533153 
L 156.303927 298.666968 
L 156.820414 300.248437 
L 156.906495 300.336367 
L 157.078657 300.077564 
L 157.25082 299.53334 
L 157.681226 298.07857 
L 157.939469 297.948782 
L 158.111632 297.863543 
L 158.800281 296.922048 
L 159.058525 296.945858 
L 159.402849 297.181009 
L 160.005418 296.604489 
L 160.17758 296.809449 
L 160.607986 297.851686 
L 160.86623 296.992904 
L 161.554879 293.832885 
L 161.899204 292.848395 
L 162.071366 292.694203 
L 162.32961 292.648348 
L 162.846097 291.944516 
L 163.018259 291.970748 
L 163.276503 292.419988 
L 163.879071 293.898334 
L 164.395558 295.851693 
L 164.825964 297.630085 
L 165.170289 298.160914 
L 165.514614 298.552808 
L 166.461507 298.073384 
L 167.150156 298.271556 
L 167.4084 298.685356 
L 167.838806 298.709952 
L 168.097049 298.927066 
L 168.269212 299.038052 
L 168.527455 299.400393 
L 168.613537 299.363591 
L 168.785699 298.82327 
L 169.216105 297.201528 
L 170.593404 295.143802 
L 170.851647 294.752182 
L 171.109891 294.543078 
L 171.454216 294.174033 
L 171.798541 294.261154 
L 172.228946 294.823561 
L 172.659352 296.124987 
L 173.348002 299.095208 
L 173.692327 300.282691 
L 173.95057 300.426623 
L 174.380976 300.368349 
L 174.63922 300.306824 
L 174.811382 300.371642 
L 175.069626 299.590098 
L 175.758275 296.742413 
L 176.188681 295.569278 
L 176.446925 294.956462 
L 177.049493 294.478212 
L 177.307737 294.453502 
L 177.652061 294.07217 
L 177.910305 293.77793 
L 178.25463 293.2367 
L 178.512873 292.711268 
L 179.115442 291.131628 
L 179.287604 290.929966 
L 179.459766 291.038983 
L 179.804091 291.326641 
L 180.062335 291.455014 
L 181.18139 292.68659 
L 181.525715 293.517507 
L 181.783958 293.605414 
L 182.386527 293.566176 
L 183.247339 294.349356 
L 183.419501 294.733196 
L 184.194232 297.633233 
L 184.538556 297.781342 
L 185.055044 298.038329 
L 185.399368 298.398922 
L 185.829774 298.894528 
L 186.174099 299.685063 
L 186.432343 299.713074 
L 186.604505 299.67636 
L 187.120992 298.860276 
L 187.551398 298.512243 
L 187.72356 298.13874 
L 187.981804 296.703748 
L 188.240048 295.44044 
L 188.41221 295.301253 
L 188.842616 295.357442 
L 189.273022 295.967341 
L 189.789509 296.281769 
L 190.047753 296.151134 
L 190.478158 296.714402 
L 190.908564 297.020553 
L 191.683295 295.395741 
L 191.855458 295.434741 
L 192.113701 295.747532 
L 192.716269 297.380437 
L 193.404919 301.21923 
L 194.093568 304.554263 
L 194.782218 307.054623 
L 195.470867 308.808515 
L 196.417761 310.577533 
L 197.278572 311.762064 
L 198.225465 312.713394 
L 198.914115 313.220733 
L 200.205333 313.931448 
L 200.807901 314.184582 
L 200.893982 314.068476 
L 200.980064 313.140828 
L 201.152226 307.646395 
L 201.410469 295.273434 
L 201.496551 296.021922 
L 201.582632 295.104528 
L 201.754794 288.205028 
L 201.926957 283.694743 
L 202.013038 282.396888 
L 202.529525 241.721351 
L 202.701687 246.605665 
L 202.787768 246.191633 
L 203.046012 231.870056 
L 203.304256 238.544697 
L 203.390337 237.488967 
L 203.64858 225.9385 
L 203.734662 226.045101 
L 203.992905 228.167853 
L 204.078986 228.447614 
L 204.251149 225.253067 
L 204.33723 229.019566 
L 204.423311 228.187497 
L 204.509392 227.746849 
L 204.595473 228.88304 
L 204.681555 228.638867 
L 204.853717 226.037844 
L 205.111961 231.299242 
L 205.198042 231.997703 
L 205.456285 229.981018 
L 205.628448 232.970233 
L 205.714529 231.389978 
L 205.886691 234.467572 
L 205.972772 233.886748 
L 206.058854 233.341227 
L 206.48926 240.819478 
L 206.661422 240.091776 
L 206.747503 240.77526 
L 207.091828 247.251013 
L 207.26399 248.146888 
L 207.350071 248.165443 
L 207.608315 253.158507 
L 207.780477 255.149443 
L 207.866559 255.053322 
L 207.95264 254.589636 
L 208.038721 254.640613 
L 208.469127 258.713285 
L 208.555208 258.696422 
L 208.641289 258.964537 
L 209.243858 264.192645 
L 209.41602 265.705452 
L 209.760345 268.815753 
L 209.932507 269.320961 
L 210.621157 273.471849 
L 211.395887 277.194183 
L 211.56805 277.10268 
L 211.826293 276.337522 
L 211.912374 276.289451 
L 211.998456 276.425664 
L 212.170618 275.800105 
L 212.514943 271.72526 
L 212.687105 270.923447 
L 212.859268 266.750418 
L 213.117511 256.887106 
L 213.203592 257.264824 
L 213.289674 257.038673 
L 213.461836 247.870784 
L 213.633998 234.0365 
L 213.720079 234.165527 
L 213.806161 235.431429 
L 213.892242 232.332319 
L 214.150485 173.52274 
L 214.236567 179.044412 
L 214.322648 181.613341 
L 214.408729 177.759422 
L 214.666973 153.224201 
L 214.839135 155.370965 
L 215.011297 153.138666 
L 215.269541 148.709928 
L 215.355622 148.980788 
L 215.699947 163.157066 
L 216.044272 211.278899 
L 216.474677 238.478394 
L 217.249408 269.881707 
L 217.507652 271.618414 
L 217.593733 271.808909 
L 217.938058 275.219459 
L 218.454545 280.947503 
L 218.712788 283.68359 
L 219.143194 285.078604 
L 219.401438 285.966543 
L 219.659681 288.114136 
L 220.778737 298.485566 
L 221.467386 302.958087 
L 222.156036 305.8626 
L 222.672523 307.435706 
L 223.619416 309.337305 
L 224.394147 310.405453 
L 225.254959 311.232874 
L 226.201852 311.888482 
L 227.062664 312.230966 
L 227.579151 312.223068 
L 227.923476 311.914143 
L 228.353882 311.122894 
L 228.870369 309.490101 
L 230.075505 305.321615 
L 230.505911 303.863202 
L 231.022398 303.059978 
L 231.88321 302.122592 
L 232.313616 300.761531 
L 233.690915 296.55439 
L 234.293484 294.757685 
L 234.72389 293.917932 
L 235.584701 290.701318 
L 235.929026 289.591586 
L 236.445513 288.633673 
L 236.875919 288.622791 
L 237.220244 289.110045 
L 237.736731 290.276887 
L 238.425381 293.845745 
L 238.683624 295.338794 
L 238.941868 295.549848 
L 239.372274 295.362244 
L 239.80268 294.528638 
L 240.319167 293.187135 
L 241.179979 292.624442 
L 241.352141 292.67124 
L 241.696466 293.0591 
L 242.040791 293.711848 
L 242.385115 295.263925 
L 242.643359 295.197263 
L 242.987684 294.734373 
L 243.245927 294.356922 
L 244.020658 293.85218 
L 244.19282 293.497401 
L 244.709307 292.035415 
L 245.397957 291.444053 
L 245.570119 291.435896 
L 246.000525 292.383741 
L 246.086606 292.337531 
L 246.517012 291.931834 
L 246.775256 292.041501 
L 247.291743 292.912898 
L 247.980393 295.527674 
L 249.013367 299.50937 
L 249.27161 299.695372 
L 249.529854 299.529523 
L 250.648909 298.28956 
L 251.079315 297.316806 
L 251.767965 294.880355 
L 252.11229 294.483559 
L 252.456614 294.411173 
L 252.973102 294.754163 
L 253.661751 294.266269 
L 254.178238 294.347207 
L 255.555537 291.804689 
L 256.158106 292.215185 
L 257.535405 294.682161 
L 257.879729 295.637168 
L 258.224054 296.031904 
L 259.170947 297.303942 
L 259.429191 297.025533 
L 259.773515 296.571743 
L 259.859597 296.529887 
L 260.031759 296.987533 
L 260.376084 297.964317 
L 260.548246 297.876033 
L 260.720409 297.547738 
L 261.236896 295.550602 
L 261.58122 294.532811 
L 261.753383 294.388662 
L 262.26987 294.686121 
L 263.044601 293.660653 
L 263.475007 293.689593 
L 263.819331 293.243356 
L 263.991494 293.115528 
L 264.594062 291.511406 
L 264.938387 290.429148 
L 265.19663 289.997518 
L 265.540955 289.250349 
L 265.799199 289.312483 
L 266.143523 289.929098 
L 266.315686 290.323557 
L 267.692985 297.615585 
L 268.295553 299.461557 
L 268.467716 299.652643 
L 268.639878 299.311794 
L 268.81204 298.624756 
L 269.50069 295.253395 
L 269.845015 293.841778 
L 270.447583 291.229133 
L 270.619745 290.993629 
L 271.136232 290.843792 
L 271.308395 291.084005 
L 271.652719 291.673449 
L 271.738801 291.697871 
L 271.910963 292.173335 
L 272.255288 293.515369 
L 272.943937 296.818058 
L 273.202181 297.122682 
L 273.460424 296.91398 
L 274.149074 296.102366 
L 274.493399 295.339712 
L 275.182048 293.120846 
L 275.698535 292.826119 
L 276.04286 292.921674 
L 276.473266 293.585759 
L 276.73151 293.156253 
L 277.161916 292.161119 
L 277.334078 292.226558 
L 277.592322 292.36679 
L 277.936646 292.164733 
L 278.453133 292.41526 
L 278.883539 293.180205 
L 279.055702 293.701923 
L 279.572189 297.057802 
L 280.519082 302.873211 
L 281.379894 306.473502 
L 282.068543 308.441183 
L 283.015436 310.360668 
L 283.876248 311.631808 
L 284.823141 312.650154 
L 285.770034 313.362853 
L 286.458684 313.664254 
L 286.803009 313.066096 
L 287.491658 311.276644 
L 288.094227 311.064554 
L 288.266389 310.338513 
L 288.696795 307.838767 
L 288.868957 307.602721 
L 289.04112 307.644805 
L 290.332337 308.88253 
L 292.226124 311.822896 
L 292.570448 311.836935 
L 293.259098 311.791326 
L 293.775585 311.991384 
L 294.033829 311.792295 
L 294.808559 310.827867 
L 295.238965 310.905243 
L 295.927615 311.276773 
L 296.702345 311.850393 
L 297.04667 311.900727 
L 297.477076 311.619886 
L 297.73532 311.274284 
L 298.165726 310.24006 
L 298.682213 308.322743 
L 299.112619 306.138759 
L 299.543025 303.57864 
L 301.781136 290.519396 
L 302.728029 285.69666 
L 303.158435 282.097302 
L 303.416678 280.513941 
L 303.847084 275.928086 
L 304.019246 274.094615 
L 304.363571 270.256089 
L 304.535734 269.427228 
L 304.880058 265.930095 
L 304.96614 265.926979 
L 305.138302 265.269307 
L 305.396545 263.24511 
L 305.482627 263.292082 
L 305.654789 263.976704 
L 305.826951 263.380177 
L 305.999114 262.343692 
L 306.42952 263.252111 
L 306.601682 262.421628 
L 306.687763 262.524494 
L 306.946007 263.461051 
L 307.032088 263.460212 
L 307.290332 262.509965 
L 307.376413 262.549787 
L 307.548575 262.880711 
L 307.8929 261.492754 
L 307.978981 261.590754 
L 308.151144 261.94749 
L 308.237225 261.76708 
L 308.495468 260.916683 
L 308.839793 262.168376 
L 309.011955 261.126612 
L 309.098037 261.181119 
L 309.528443 262.704263 
L 309.700605 262.245266 
L 309.872767 262.98946 
L 310.131011 264.130127 
L 310.389254 264.189621 
L 311.163985 267.005896 
L 311.336148 263.895396 
L 311.50831 259.60176 
L 311.680472 261.645431 
L 311.852635 264.618922 
L 311.938716 264.485981 
L 312.110878 254.551906 
L 312.283041 248.531557 
L 312.541284 251.783685 
L 312.627365 251.741601 
L 312.97169 253.638095 
L 313.746421 276.010081 
L 314.004664 281.672071 
L 315.640207 297.654955 
L 316.501019 301.526963 
L 317.103587 303.027833 
L 318.05048 304.444281 
L 318.480886 304.858811 
L 318.825211 305.030155 
L 320.030348 304.933509 
L 320.977241 304.619736 
L 322.268458 304.610887 
L 322.957108 305.003417 
L 323.215352 305.31016 
L 323.81792 306.529287 
L 325.367381 309.763233 
L 326.314274 311.226503 
L 327.175086 312.145421 
L 328.035898 312.787673 
L 329.241035 313.267303 
L 331.04874 314.105712 
L 333.114688 314.928727 
L 335.008474 315.453701 
L 337.676991 316.003104 
L 341.464564 316.537939 
L 346.887678 317.040523 
L 353.946336 317.468816 
L 362.037968 317.765895 
L 386.485025 318.250211 
L 429.439538 319.079469 
L 461.289578 319.910891 
L 468.176073 320.114004 
L 483.1542 320.348252 
L 508.806395 320.546482 
L 622.17532 321.073725 
L 671.155517 321.32909 
L 671.155517 321.32909 
" clip-path="url(#p6f49eeeefa)" style="fill: none; stroke: #1f77b4; stroke-width: 1.5; stroke-linecap: square"/>
   </g>
   <g id="line2d_13">
    <path d="M 51.54312 328.618125 
L 52.231769 328.53435 
L 53.0065 327.845679 
L 55.244611 325.606149 
L 59.032183 322.252949 
L 59.462589 322.196895 
L 59.979076 322.395538 
L 60.839888 323.029466 
L 63.077999 324.752481 
L 64.024892 325.279383 
L 64.627461 325.22232 
L 65.230029 324.728662 
L 66.090841 323.253694 
L 66.435165 322.523914 
L 68.328952 316.821144 
L 71.772199 300.727793 
L 72.116524 298.140484 
L 73.149498 289.007705 
L 76.16234 267.194849 
L 76.592746 265.229978 
L 78.486532 256.459855 
L 78.916938 255.153854 
L 79.175181 254.573036 
L 79.519506 254.839486 
L 79.691669 254.823673 
L 79.863831 255.077399 
L 80.380318 256.033135 
L 80.466399 256.41219 
L 80.55248 256.338803 
L 80.724643 254.833353 
L 81.327211 242.831376 
L 81.585455 241.66239 
L 81.671536 241.744056 
L 81.843698 242.378286 
L 82.188023 244.932291 
L 82.876673 252.540264 
L 84.253972 268.50056 
L 84.340053 268.677128 
L 84.512215 262.282226 
L 85.114783 219.655636 
L 85.459108 187.433609 
L 85.717352 173.202077 
L 86.147758 141.717866 
L 86.406001 125.128811 
L 86.750326 106.194674 
L 87.00857 94.004535 
L 87.266813 82.87683 
L 87.525057 76.62005 
L 87.869381 66.227288 
L 88.127625 62.945412 
L 88.47195 57.075479 
L 88.816275 58.137044 
L 89.074518 57.02 
L 89.418843 58.661314 
L 89.591005 58.235442 
L 89.677086 58.405368 
L 90.107492 61.204145 
L 90.279655 62.009554 
L 91.743035 80.055586 
L 93.206415 104.517458 
L 94.067227 119.309699 
L 95.272364 139.161001 
L 95.616688 143.098572 
L 96.219257 146.030503 
L 96.4775 144.692911 
L 96.563582 144.757406 
L 96.649663 144.641193 
L 96.735744 144.191744 
L 96.907906 140.720498 
L 97.252231 134.185955 
L 97.338312 132.690464 
L 97.510475 120.971703 
L 97.854799 97.630912 
L 98.113043 93.535106 
L 98.199124 93.549424 
L 98.371287 95.094047 
L 98.801692 103.725192 
L 100.006829 135.16384 
L 101.728453 175.906764 
L 103.450077 212.246381 
L 104.655213 232.791823 
L 105.774269 248.370659 
L 106.893324 261.170595 
L 108.098461 272.474382 
L 109.303597 281.467147 
L 110.594815 289.15646 
L 111.713871 294.423431 
L 113.005089 299.092097 
L 113.435495 300.243307 
L 113.607657 299.865511 
L 114.296306 295.957936 
L 114.468469 295.715376 
L 114.640631 295.764043 
L 114.898875 296.099639 
L 115.329281 297.108082 
L 117.136986 301.6643 
L 117.997798 303.185747 
L 119.719421 305.257974 
L 120.235908 305.704308 
L 120.924558 306.04052 
L 121.441045 306.154268 
L 122.215776 306.172239 
L 122.560101 306.084064 
L 122.904425 306.19958 
L 123.420912 306.102759 
L 123.679156 305.944105 
L 124.798211 305.214869 
L 125.228617 304.858251 
L 126.691998 303.579973 
L 127.466728 302.483789 
L 127.724972 302.16756 
L 128.413621 301.063592 
L 128.757946 300.413254 
L 128.930109 300.304531 
L 129.274433 299.782234 
L 130.307408 297.942486 
L 130.737813 297.023248 
L 131.082138 296.803825 
L 131.254301 296.892818 
L 131.598625 297.407341 
L 131.94295 298.271095 
L 132.803762 301.289319 
L 135.300116 310.263607 
L 136.591334 313.910162 
L 137.796471 316.677821 
L 139.001608 318.926769 
L 139.518095 319.586274 
L 139.690257 319.475116 
L 140.120663 318.720164 
L 140.551069 317.180842 
L 141.239719 315.122384 
L 141.842287 314.232551 
L 142.10053 314.191074 
L 142.358774 314.384517 
L 142.78918 314.780515 
L 143.305667 314.935086 
L 145.027291 313.91435 
L 145.285534 314.007006 
L 145.802022 314.323266 
L 146.318509 313.705199 
L 146.748915 312.734714 
L 147.437564 311.426805 
L 147.954051 311.076 
L 148.298376 311.021823 
L 148.642701 310.896279 
L 148.987026 311.040332 
L 149.503513 311.32464 
L 150.02 310.703083 
L 150.278243 310.78032 
L 150.966893 311.374223 
L 151.225136 311.355067 
L 151.48338 310.835754 
L 151.999867 309.539549 
L 152.344192 309.155108 
L 153.291085 308.394047 
L 153.549329 308.254539 
L 153.807572 308.3841 
L 154.237978 308.945519 
L 155.701358 311.344414 
L 156.476089 310.528371 
L 156.992576 310.421836 
L 157.509063 309.459121 
L 157.767307 309.354589 
L 158.02555 309.525791 
L 158.455956 310.202329 
L 158.972443 311.061053 
L 159.230687 311.330542 
L 159.402849 311.189269 
L 160.263661 309.23836 
L 161.296636 307.320679 
L 161.727041 306.239608 
L 161.899204 306.153681 
L 162.071366 306.261084 
L 163.448665 308.180907 
L 163.79299 308.751212 
L 164.223396 308.755273 
L 164.481639 308.542596 
L 164.825964 308.240783 
L 165.084208 308.287826 
L 165.342451 308.547331 
L 165.858939 309.479046 
L 166.289344 310.260466 
L 166.891913 310.451151 
L 167.494481 310.258874 
L 168.010968 309.40462 
L 168.269212 309.480404 
L 168.699618 309.811401 
L 169.474348 308.963463 
L 170.076917 307.863842 
L 170.421242 307.45455 
L 170.679485 307.54085 
L 171.109891 308.132761 
L 171.626378 308.604167 
L 172.142865 309.312472 
L 172.831515 310.859984 
L 173.17584 311.386572 
L 173.606245 311.555378 
L 173.778408 311.355043 
L 175.500032 308.430051 
L 175.844356 308.464568 
L 176.188681 308.66138 
L 176.791249 308.441638 
L 178.25463 305.510287 
L 178.857198 305.202567 
L 179.201523 304.991729 
L 179.545848 305.028464 
L 179.890172 305.266222 
L 180.492741 305.241752 
L 181.009228 304.420177 
L 181.267471 304.483287 
L 181.611796 305.00742 
L 182.128283 305.615039 
L 182.558689 305.875154 
L 183.33342 306.309678 
L 183.677745 306.853948 
L 184.194232 307.852545 
L 184.7968 308.011603 
L 185.227206 308.593887 
L 186.088018 310.165382 
L 186.518424 309.394636 
L 187.379236 307.221915 
L 187.551398 307.282476 
L 188.240048 308.160364 
L 188.584372 308.543421 
L 189.703428 308.925169 
L 189.87559 308.579496 
L 190.392077 307.367286 
L 190.736402 306.942542 
L 190.908564 306.991144 
L 191.166808 307.354677 
L 191.683295 308.67523 
L 193.749244 314.484478 
L 195.040461 317.307672 
L 196.245598 319.437954 
L 197.536816 321.278096 
L 198.828034 322.749814 
L 200.205333 323.996231 
L 200.72182 324.450442 
L 200.893982 323.242974 
L 201.066145 320.017618 
L 201.754794 299.463857 
L 202.529525 275.526053 
L 203.390337 257.096818 
L 204.509392 242.274984 
L 205.284123 236.147878 
L 205.628448 234.200511 
L 206.231016 232.332971 
L 206.575341 232.726483 
L 206.833584 232.653407 
L 207.177909 233.214101 
L 207.350071 233.234449 
L 207.522234 233.59806 
L 208.296965 235.50647 
L 209.329939 239.424257 
L 210.10467 243.828581 
L 211.395887 250.566197 
L 211.481969 250.756262 
L 211.56805 250.679302 
L 211.740212 250.472234 
L 211.826293 250.529405 
L 211.998456 250.002443 
L 212.170618 248.853017 
L 212.514943 246.602001 
L 212.773186 244.320899 
L 213.375755 232.466855 
L 213.978323 204.038718 
L 214.49481 144.891537 
L 214.753054 138.313233 
L 214.839135 137.984706 
L 214.925216 138.265084 
L 215.097378 139.961993 
L 215.527784 147.829369 
L 218.11022 204.239773 
L 219.831844 235.068377 
L 221.036981 252.451227 
L 222.242117 266.650891 
L 223.447254 278.229898 
L 224.65239 287.662736 
L 225.857527 295.34123 
L 226.718339 299.675389 
L 227.49307 302.473926 
L 228.009557 303.549852 
L 228.353882 303.986927 
L 228.784287 304.309876 
L 229.386856 305.081335 
L 230.678074 307.534335 
L 231.711048 308.089623 
L 231.969291 307.930347 
L 232.485779 307.186138 
L 232.916185 307.007778 
L 233.34659 306.915473 
L 233.690915 306.763628 
L 233.863078 306.445366 
L 234.293484 305.63334 
L 234.896052 304.17288 
L 235.756864 302.285948 
L 236.015107 302.021773 
L 236.273351 302.039527 
L 236.531594 302.224274 
L 237.134163 303.280304 
L 237.736731 304.438951 
L 238.167137 304.823469 
L 238.769705 304.313279 
L 239.286193 303.294352 
L 239.716598 302.907069 
L 239.888761 303.008846 
L 240.233086 303.633169 
L 240.663492 304.500734 
L 241.26606 304.340661 
L 241.610385 304.212097 
L 241.868628 304.416054 
L 242.471197 305.159763 
L 243.073765 304.111816 
L 243.504171 303.159376 
L 243.676333 303.125889 
L 243.934577 303.39945 
L 244.364983 304.023835 
L 244.795389 303.751343 
L 245.053632 303.18573 
L 245.397957 302.338764 
L 245.6562 302.189205 
L 245.828363 302.298601 
L 246.172688 302.933166 
L 246.775256 304.652148 
L 247.377824 306.293075 
L 247.549987 306.33402 
L 247.894311 306.143045 
L 248.152555 306.302648 
L 248.49688 306.913591 
L 249.27161 308.394895 
L 249.96026 307.674486 
L 250.476747 306.616328 
L 250.907153 306.303636 
L 251.42364 306.348229 
L 251.767965 306.494603 
L 252.11229 306.488196 
L 252.714858 306.742453 
L 252.88702 306.88999 
L 253.059183 306.818176 
L 254.264319 304.741255 
L 254.522563 304.593504 
L 254.866888 304.612289 
L 255.211212 304.491901 
L 255.7277 304.546984 
L 255.985943 304.820302 
L 256.760674 305.953832 
L 257.277161 305.51686 
L 257.535405 305.640039 
L 258.051892 306.390717 
L 258.65446 307.416603 
L 259.170947 308.228648 
L 259.257028 308.205758 
L 260.203921 306.591104 
L 260.548246 306.512278 
L 261.064733 306.553761 
L 261.58122 305.785849 
L 261.839464 305.77645 
L 262.097708 306.061822 
L 262.355951 306.256509 
L 262.958519 306.036585 
L 263.647169 304.901259 
L 264.594062 302.032933 
L 264.766224 301.893313 
L 264.938387 301.963444 
L 265.19663 302.409357 
L 266.229605 304.943114 
L 266.918254 306.690723 
L 267.176498 307.057828 
L 267.34866 307.031396 
L 267.951228 306.601165 
L 268.209472 306.514265 
L 268.381634 306.548325 
L 268.639878 306.201579 
L 270.189339 302.708352 
L 270.361502 302.818888 
L 270.619745 303.275858 
L 271.566638 305.434646 
L 271.738801 305.525633 
L 272.083125 305.541009 
L 272.341369 305.847901 
L 272.771775 306.561397 
L 272.857856 306.562926 
L 273.374343 305.575607 
L 274.062993 304.051263 
L 274.235155 304.111989 
L 274.57948 304.651219 
L 274.923805 304.922824 
L 275.268129 304.947854 
L 275.440292 304.692602 
L 275.784617 304.097727 
L 276.04286 303.940617 
L 276.215022 303.965654 
L 276.387185 304.050603 
L 276.559347 303.92624 
L 277.075834 302.94988 
L 277.420159 302.735092 
L 277.592322 302.849321 
L 277.850565 303.322137 
L 278.367052 304.91357 
L 280.433001 311.863315 
L 281.638137 315.016086 
L 282.843274 317.577347 
L 284.134492 319.78981 
L 285.42571 321.559528 
L 286.286522 322.435971 
L 286.458684 322.157481 
L 287.147333 319.936347 
L 287.405577 319.743029 
L 287.663821 319.804874 
L 288.094227 320.197466 
L 291.107068 323.545523 
L 291.881799 324.132585 
L 292.053961 324.033794 
L 292.742611 323.063998 
L 293.086935 323.035372 
L 293.603423 323.313694 
L 295.669371 324.724843 
L 296.185858 324.712708 
L 296.530183 324.554099 
L 297.132751 323.933887 
L 297.993563 322.341911 
L 298.682213 320.541714 
L 300.145593 315.863181 
L 302.641947 304.147119 
L 304.535734 285.947017 
L 305.224383 279.908816 
L 305.654789 277.288711 
L 306.343439 273.00363 
L 306.859926 269.667928 
L 308.581549 260.41272 
L 308.925874 259.318146 
L 309.270199 258.197392 
L 309.872767 256.708131 
L 310.303173 256.291813 
L 310.905742 257.049016 
L 310.991823 257.397759 
L 311.077904 257.297525 
L 311.250066 255.744513 
L 311.852635 243.770575 
L 312.110878 242.669049 
L 312.196959 242.720037 
L 312.369122 243.32785 
L 312.713447 245.796872 
L 313.316015 252.174106 
L 314.693314 267.03747 
L 315.726288 275.938331 
L 316.931425 284.268293 
L 318.222643 291.377697 
L 319.341698 296.232465 
L 320.632916 300.509034 
L 321.407647 302.867649 
L 324.850894 313.82566 
L 326.056031 316.57546 
L 327.089005 318.180376 
L 328.89671 320.931415 
L 330.187928 322.472104 
L 331.565227 323.777416 
L 333.028607 324.862199 
L 334.66415 325.789749 
L 336.471855 326.550991 
L 338.537803 327.173595 
L 341.034158 327.681343 
L 344.13308 328.070946 
L 348.264977 328.35097 
L 354.462823 328.526988 
L 366.600271 328.607033 
L 430.558594 328.618125 
L 671.155517 328.618125 
L 671.155517 328.618125 
" clip-path="url(#p6f49eeeefa)" style="fill: none; stroke: #ff7f0e; stroke-width: 1.5; stroke-linecap: square"/>
   </g>
   <g id="patch_3">
    <path d="M 20.5625 342.2 
L 20.5625 43.44 
" style="fill: none; stroke: #000000; stroke-width: 0.8; stroke-linejoin: miter; stroke-linecap: square"/>
   </g>
   <g id="patch_4">
    <path d="M 702.136136 342.2 
L 702.136136 43.44 
" style="fill: none; stroke: #000000; stroke-width: 0.8; stroke-linejoin: miter; stroke-linecap: square"/>
   </g>
   <g id="patch_5">
    <path d="M 20.5625 342.2 
L 702.136136 342.2 
" style="fill: none; stroke: #000000; stroke-width: 0.8; stroke-linejoin: miter; stroke-linecap: square"/>
   </g>
   <g id="patch_6">
    <path d="M 20.5625 43.44 
L 702.136136 43.44 
" style="fill: none; stroke: #000000; stroke-width: 0.8; stroke-linejoin: miter; stroke-linecap: square"/>
   </g>
   <g id="text_12">
    <!-- 1 transformation(s) -->
    <g transform="translate(303.234631 37.44) scale(0.12 -0.12)">
     <defs>
      <path id="DejaVuSans-20" transform="scale(0.015625)"/>
      <path id="DejaVuSans-74" d="M 1172 4494 
L 1172 3500 
L 2356 3500 
L 2356 3053 
L 1172 3053 
L 1172 1153 
Q 1172 725 1289 603 
Q 1406 481 1766 481 
L 2356 481 
L 2356 0 
L 1766 0 
Q 1100 0 847 248 
Q 594 497 594 1153 
L 594 3053 
L 172 3053 
L 172 3500 
L 594 3500 
L 594 4494 
L 1172 4494 
z
" transform="scale(0.015625)"/>
      <path id="DejaVuSans-72" d="M 2631 2963 
Q 2534 3019 2420 3045 
Q 2306 3072 2169 3072 
Q 1681 3072 1420 2755 
Q 1159 2438 1159 1844 
L 1159 0 
L 581 0 
L 581 3500 
L 1159 3500 
L 1159 2956 
Q 1341 3275 1631 3429 
Q 1922 3584 2338 3584 
Q 2397 3584 2469 3576 
Q 2541 3569 2628 3553 
L 2631 2963 
z
" transform="scale(0.015625)"/>
      <path id="DejaVuSans-61" d="M 2194 1759 
Q 1497 1759 1228 1600 
Q 959 1441 959 1056 
Q 959 750 1161 570 
Q 1363 391 1709 391 
Q 2188 391 2477 730 
Q 2766 1069 2766 1631 
L 2766 1759 
L 2194 1759 
z
M 3341 1997 
L 3341 0 
L 2766 0 
L 2766 531 
Q 2569 213 2275 61 
Q 1981 -91 1556 -91 
Q 1019 -91 701 211 
Q 384 513 384 1019 
Q 384 1609 779 1909 
Q 1175 2209 1959 2209 
L 2766 2209 
L 2766 2266 
Q 2766 2663 2505 2880 
Q 2244 3097 1772 3097 
Q 1472 3097 1187 3025 
Q 903 2953 641 2809 
L 641 3341 
Q 956 3463 1253 3523 
Q 1550 3584 1831 3584 
Q 2591 3584 2966 3190 
Q 3341 2797 3341 1997 
z
" transform="scale(0.015625)"/>
      <path id="DejaVuSans-6e" d="M 3513 2113 
L 3513 0 
L 2938 0 
L 2938 2094 
Q 2938 2591 2744 2837 
Q 2550 3084 2163 3084 
Q 1697 3084 1428 2787 
Q 1159 2491 1159 1978 
L 1159 0 
L 581 0 
L 581 3500 
L 1159 3500 
L 1159 2956 
Q 1366 3272 1645 3428 
Q 1925 3584 2291 3584 
Q 2894 3584 3203 3211 
Q 3513 2838 3513 2113 
z
" transform="scale(0.015625)"/>
      <path id="DejaVuSans-73" d="M 2834 3397 
L 2834 2853 
Q 2591 2978 2328 3040 
Q 2066 3103 1784 3103 
Q 1356 3103 1142 2972 
Q 928 2841 928 2578 
Q 928 2378 1081 2264 
Q 1234 2150 1697 2047 
L 1894 2003 
Q 2506 1872 2764 1633 
Q 3022 1394 3022 966 
Q 3022 478 2636 193 
Q 2250 -91 1575 -91 
Q 1294 -91 989 -36 
Q 684 19 347 128 
L 347 722 
Q 666 556 975 473 
Q 1284 391 1588 391 
Q 1994 391 2212 530 
Q 2431 669 2431 922 
Q 2431 1156 2273 1281 
Q 2116 1406 1581 1522 
L 1381 1569 
Q 847 1681 609 1914 
Q 372 2147 372 2553 
Q 372 3047 722 3315 
Q 1072 3584 1716 3584 
Q 2034 3584 2315 3537 
Q 2597 3491 2834 3397 
z
" transform="scale(0.015625)"/>
      <path id="DejaVuSans-66" d="M 2375 4863 
L 2375 4384 
L 1825 4384 
Q 1516 4384 1395 4259 
Q 1275 4134 1275 3809 
L 1275 3500 
L 2222 3500 
L 2222 3053 
L 1275 3053 
L 1275 0 
L 697 0 
L 697 3053 
L 147 3053 
L 147 3500 
L 697 3500 
L 697 3744 
Q 697 4328 969 4595 
Q 1241 4863 1831 4863 
L 2375 4863 
z
" transform="scale(0.015625)"/>
      <path id="DejaVuSans-6f" d="M 1959 3097 
Q 1497 3097 1228 2736 
Q 959 2375 959 1747 
Q 959 1119 1226 758 
Q 1494 397 1959 397 
Q 2419 397 2687 759 
Q 2956 1122 2956 1747 
Q 2956 2369 2687 2733 
Q 2419 3097 1959 3097 
z
M 1959 3584 
Q 2709 3584 3137 3096 
Q 3566 2609 3566 1747 
Q 3566 888 3137 398 
Q 2709 -91 1959 -91 
Q 1206 -91 779 398 
Q 353 888 353 1747 
Q 353 2609 779 3096 
Q 1206 3584 1959 3584 
z
" transform="scale(0.015625)"/>
      <path id="DejaVuSans-6d" d="M 3328 2828 
Q 3544 3216 3844 3400 
Q 4144 3584 4550 3584 
Q 5097 3584 5394 3201 
Q 5691 2819 5691 2113 
L 5691 0 
L 5113 0 
L 5113 2094 
Q 5113 2597 4934 2840 
Q 4756 3084 4391 3084 
Q 3944 3084 3684 2787 
Q 3425 2491 3425 1978 
L 3425 0 
L 2847 0 
L 2847 2094 
Q 2847 2600 2669 2842 
Q 2491 3084 2119 3084 
Q 1678 3084 1418 2786 
Q 1159 2488 1159 1978 
L 1159 0 
L 581 0 
L 581 3500 
L 1159 3500 
L 1159 2956 
Q 1356 3278 1631 3431 
Q 1906 3584 2284 3584 
Q 2666 3584 2933 3390 
Q 3200 3197 3328 2828 
z
" transform="scale(0.015625)"/>
      <path id="DejaVuSans-69" d="M 603 3500 
L 1178 3500 
L 1178 0 
L 603 0 
L 603 3500 
z
M 603 4863 
L 1178 4863 
L 1178 4134 
L 603 4134 
L 603 4863 
z
" transform="scale(0.015625)"/>
      <path id="DejaVuSans-28" d="M 1984 4856 
Q 1566 4138 1362 3434 
Q 1159 2731 1159 2009 
Q 1159 1288 1364 580 
Q 1569 -128 1984 -844 
L 1484 -844 
Q 1016 -109 783 600 
Q 550 1309 550 2009 
Q 550 2706 781 3412 
Q 1013 4119 1484 4856 
L 1984 4856 
z
" transform="scale(0.015625)"/>
      <path id="DejaVuSans-29" d="M 513 4856 
L 1013 4856 
Q 1481 4119 1714 3412 
Q 1947 2706 1947 2009 
Q 1947 1309 1714 600 
Q 1481 -109 1013 -844 
L 513 -844 
Q 928 -128 1133 580 
Q 1338 1288 1338 2009 
Q 1338 2731 1133 3434 
Q 928 4138 513 4856 
z
" transform="scale(0.015625)"/>
     </defs>
     <use xlink:href="#DejaVuSans-31"/>
     <use xlink:href="#DejaVuSans-20" x="63.623047"/>
     <use xlink:href="#DejaVuSans-74" x="95.410156"/>
     <use xlink:href="#DejaVuSans-72" x="134.619141"/>
     <use xlink:href="#DejaVuSans-61" x="175.732422"/>
     <use xlink:href="#DejaVuSans-6e" x="237.011719"/>
     <use xlink:href="#DejaVuSans-73" x="300.390625"/>
     <use xlink:href="#DejaVuSans-66" x="352.490234"/>
     <use xlink:href="#DejaVuSans-6f" x="387.695312"/>
     <use xlink:href="#DejaVuSans-72" x="448.876953"/>
     <use xlink:href="#DejaVuSans-6d" x="488.240234"/>
     <use xlink:href="#DejaVuSans-61" x="585.652344"/>
     <use xlink:href="#DejaVuSans-74" x="646.931641"/>
     <use xlink:href="#DejaVuSans-69" x="686.140625"/>
     <use xlink:href="#DejaVuSans-6f" x="713.923828"/>
     <use xlink:href="#DejaVuSans-6e" x="775.105469"/>
     <use xlink:href="#DejaVuSans-28" x="838.484375"/>
     <use xlink:href="#DejaVuSans-73" x="877.498047"/>
     <use xlink:href="#DejaVuSans-29" x="929.597656"/>
    </g>
   </g>
   <g id="legend_1">
    <g id="patch_7">
     <path d="M 613.742386 80.79625 
L 695.136136 80.79625 
Q 697.136136 80.79625 697.136136 78.79625 
L 697.136136 50.44 
Q 697.136136 48.44 695.136136 48.44 
L 613.742386 48.44 
Q 611.742386 48.44 611.742386 50.44 
L 611.742386 78.79625 
Q 611.742386 80.79625 613.742386 80.79625 
z
" style="fill: #ffffff; opacity: 0.8; stroke: #cccccc; stroke-linejoin: miter"/>
    </g>
    <g id="line2d_14">
     <path d="M 615.742386 56.538437 
L 625.742386 56.538437 
L 635.742386 56.538437 
" style="fill: none; stroke: #1f77b4; stroke-width: 1.5; stroke-linecap: square"/>
    </g>
    <g id="text_13">
     <!-- observed -->
     <g transform="translate(643.742386 60.038437) scale(0.1 -0.1)">
      <defs>
       <path id="DejaVuSans-62" d="M 3116 1747 
Q 3116 2381 2855 2742 
Q 2594 3103 2138 3103 
Q 1681 3103 1420 2742 
Q 1159 2381 1159 1747 
Q 1159 1113 1420 752 
Q 1681 391 2138 391 
Q 2594 391 2855 752 
Q 3116 1113 3116 1747 
z
M 1159 2969 
Q 1341 3281 1617 3432 
Q 1894 3584 2278 3584 
Q 2916 3584 3314 3078 
Q 3713 2572 3713 1747 
Q 3713 922 3314 415 
Q 2916 -91 2278 -91 
Q 1894 -91 1617 61 
Q 1341 213 1159 525 
L 1159 0 
L 581 0 
L 581 4863 
L 1159 4863 
L 1159 2969 
z
" transform="scale(0.015625)"/>
       <path id="DejaVuSans-65" d="M 3597 1894 
L 3597 1613 
L 953 1613 
Q 991 1019 1311 708 
Q 1631 397 2203 397 
Q 2534 397 2845 478 
Q 3156 559 3463 722 
L 3463 178 
Q 3153 47 2828 -22 
Q 2503 -91 2169 -91 
Q 1331 -91 842 396 
Q 353 884 353 1716 
Q 353 2575 817 3079 
Q 1281 3584 2069 3584 
Q 2775 3584 3186 3129 
Q 3597 2675 3597 1894 
z
M 3022 2063 
Q 3016 2534 2758 2815 
Q 2500 3097 2075 3097 
Q 1594 3097 1305 2825 
Q 1016 2553 972 2059 
L 3022 2063 
z
" transform="scale(0.015625)"/>
       <path id="DejaVuSans-76" d="M 191 3500 
L 800 3500 
L 1894 563 
L 2988 3500 
L 3597 3500 
L 2284 0 
L 1503 0 
L 191 3500 
z
" transform="scale(0.015625)"/>
       <path id="DejaVuSans-64" d="M 2906 2969 
L 2906 4863 
L 3481 4863 
L 3481 0 
L 2906 0 
L 2906 525 
Q 2725 213 2448 61 
Q 2172 -91 1784 -91 
Q 1150 -91 751 415 
Q 353 922 353 1747 
Q 353 2572 751 3078 
Q 1150 3584 1784 3584 
Q 2172 3584 2448 3432 
Q 2725 3281 2906 2969 
z
M 947 1747 
Q 947 1113 1208 752 
Q 1469 391 1925 391 
Q 2381 391 2643 752 
Q 2906 1113 2906 1747 
Q 2906 2381 2643 2742 
Q 2381 3103 1925 3103 
Q 1469 3103 1208 2742 
Q 947 2381 947 1747 
z
" transform="scale(0.015625)"/>
      </defs>
      <use xlink:href="#DejaVuSans-6f"/>
      <use xlink:href="#DejaVuSans-62" x="61.181641"/>
      <use xlink:href="#DejaVuSans-73" x="124.658203"/>
      <use xlink:href="#DejaVuSans-65" x="176.757812"/>
      <use xlink:href="#DejaVuSans-72" x="238.28125"/>
      <use xlink:href="#DejaVuSans-76" x="279.394531"/>
      <use xlink:href="#DejaVuSans-65" x="338.574219"/>
      <use xlink:href="#DejaVuSans-64" x="400.097656"/>
     </g>
    </g>
    <g id="line2d_15">
     <path d="M 615.742386 71.216563 
L 625.742386 71.216563 
L 635.742386 71.216563 
" style="fill: none; stroke: #ff7f0e; stroke-width: 1.5; stroke-linecap: square"/>
    </g>
    <g id="text_14">
     <!-- simulated -->
     <g transform="translate(643.742386 74.716563) scale(0.1 -0.1)">
      <defs>
       <path id="DejaVuSans-75" d="M 544 1381 
L 544 3500 
L 1119 3500 
L 1119 1403 
Q 1119 906 1312 657 
Q 1506 409 1894 409 
Q 2359 409 2629 706 
Q 2900 1003 2900 1516 
L 2900 3500 
L 3475 3500 
L 3475 0 
L 2900 0 
L 2900 538 
Q 2691 219 2414 64 
Q 2138 -91 1772 -91 
Q 1169 -91 856 284 
Q 544 659 544 1381 
z
M 1991 3584 
L 1991 3584 
z
" transform="scale(0.015625)"/>
       <path id="DejaVuSans-6c" d="M 603 4863 
L 1178 4863 
L 1178 0 
L 603 0 
L 603 4863 
z
" transform="scale(0.015625)"/>
      </defs>
      <use xlink:href="#DejaVuSans-73"/>
      <use xlink:href="#DejaVuSans-69" x="52.099609"/>
      <use xlink:href="#DejaVuSans-6d" x="79.882812"/>
      <use xlink:href="#DejaVuSans-75" x="177.294922"/>
      <use xlink:href="#DejaVuSans-6c" x="240.673828"/>
      <use xlink:href="#DejaVuSans-61" x="268.457031"/>
      <use xlink:href="#DejaVuSans-74" x="329.736328"/>
      <use xlink:href="#DejaVuSans-65" x="368.945312"/>
      <use xlink:href="#DejaVuSans-64" x="430.46875"/>
     </g>
    </g>
   </g>
  </g>
  <g id="axes_2">
   <g id="patch_8">
    <path d="M 20.5625 684.92 
L 702.136136 684.92 
L 702.136136 386.16 
L 20.5625 386.16 
z
" style="fill: #ffffff"/>
   </g>
   <g id="matplotlib.axis_3">
    <g id="xtick_7">
     <g id="line2d_16">
      <g>
       <use xlink:href="#m8ef7267b51" x="51.370957" y="684.92" style="stroke: #000000; stroke-width: 0.8"/>
      </g>
     </g>
     <g id="text_15">
      <!-- 2014-07-01 -->
      <g transform="translate(22.313145 699.518437) scale(0.1 -0.1)">
       <use xlink:href="#DejaVuSans-32"/>
       <use xlink:href="#DejaVuSans-30" x="63.623047"/>
       <use xlink:href="#DejaVuSans-31" x="127.246094"/>
       <use xlink:href="#DejaVuSans-34" x="190.869141"/>
       <use xlink:href="#DejaVuSans-2d" x="254.492188"/>
       <use xlink:href="#DejaVuSans-30" x="290.576172"/>
       <use xlink:href="#DejaVuSans-37" x="354.199219"/>
       <use xlink:href="#DejaVuSans-2d" x="417.822266"/>
       <use xlink:href="#DejaVuSans-30" x="453.90625"/>
       <use xlink:href="#DejaVuSans-31" x="517.529297"/>
      </g>
     </g>
    </g>
    <g id="xtick_8">
     <g id="line2d_17">
      <g>
       <use xlink:href="#m8ef7267b51" x="175.327869" y="684.92" style="stroke: #000000; stroke-width: 0.8"/>
      </g>
     </g>
     <g id="text_16">
      <!-- 2014-07-02 -->
      <g transform="translate(146.270057 699.518437) scale(0.1 -0.1)">
       <use xlink:href="#DejaVuSans-32"/>
       <use xlink:href="#DejaVuSans-30" x="63.623047"/>
       <use xlink:href="#DejaVuSans-31" x="127.246094"/>
       <use xlink:href="#DejaVuSans-34" x="190.869141"/>
       <use xlink:href="#DejaVuSans-2d" x="254.492188"/>
       <use xlink:href="#DejaVuSans-30" x="290.576172"/>
       <use xlink:href="#DejaVuSans-37" x="354.199219"/>
       <use xlink:href="#DejaVuSans-2d" x="417.822266"/>
       <use xlink:href="#DejaVuSans-30" x="453.90625"/>
       <use xlink:href="#DejaVuSans-32" x="517.529297"/>
      </g>
     </g>
    </g>
    <g id="xtick_9">
     <g id="line2d_18">
      <g>
       <use xlink:href="#m8ef7267b51" x="299.284781" y="684.92" style="stroke: #000000; stroke-width: 0.8"/>
      </g>
     </g>
     <g id="text_17">
      <!-- 2014-07-03 -->
      <g transform="translate(270.226969 699.518437) scale(0.1 -0.1)">
       <use xlink:href="#DejaVuSans-32"/>
       <use xlink:href="#DejaVuSans-30" x="63.623047"/>
       <use xlink:href="#DejaVuSans-31" x="127.246094"/>
       <use xlink:href="#DejaVuSans-34" x="190.869141"/>
       <use xlink:href="#DejaVuSans-2d" x="254.492188"/>
       <use xlink:href="#DejaVuSans-30" x="290.576172"/>
       <use xlink:href="#DejaVuSans-37" x="354.199219"/>
       <use xlink:href="#DejaVuSans-2d" x="417.822266"/>
       <use xlink:href="#DejaVuSans-30" x="453.90625"/>
       <use xlink:href="#DejaVuSans-33" x="517.529297"/>
      </g>
     </g>
    </g>
    <g id="xtick_10">
     <g id="line2d_19">
      <g>
       <use xlink:href="#m8ef7267b51" x="423.241693" y="684.92" style="stroke: #000000; stroke-width: 0.8"/>
      </g>
     </g>
     <g id="text_18">
      <!-- 2014-07-04 -->
      <g transform="translate(394.18388 699.518437) scale(0.1 -0.1)">
       <use xlink:href="#DejaVuSans-32"/>
       <use xlink:href="#DejaVuSans-30" x="63.623047"/>
       <use xlink:href="#DejaVuSans-31" x="127.246094"/>
       <use xlink:href="#DejaVuSans-34" x="190.869141"/>
       <use xlink:href="#DejaVuSans-2d" x="254.492188"/>
       <use xlink:href="#DejaVuSans-30" x="290.576172"/>
       <use xlink:href="#DejaVuSans-37" x="354.199219"/>
       <use xlink:href="#DejaVuSans-2d" x="417.822266"/>
       <use xlink:href="#DejaVuSans-30" x="453.90625"/>
       <use xlink:href="#DejaVuSans-34" x="517.529297"/>
      </g>
     </g>
    </g>
    <g id="xtick_11">
     <g id="line2d_20">
      <g>
       <use xlink:href="#m8ef7267b51" x="547.198605" y="684.92" style="stroke: #000000; stroke-width: 0.8"/>
      </g>
     </g>
     <g id="text_19">
      <!-- 2014-07-05 -->
      <g transform="translate(518.140792 699.518437) scale(0.1 -0.1)">
       <use xlink:href="#DejaVuSans-32"/>
       <use xlink:href="#DejaVuSans-30" x="63.623047"/>
       <use xlink:href="#DejaVuSans-31" x="127.246094"/>
       <use xlink:href="#DejaVuSans-34" x="190.869141"/>
       <use xlink:href="#DejaVuSans-2d" x="254.492188"/>
       <use xlink:href="#DejaVuSans-30" x="290.576172"/>
       <use xlink:href="#DejaVuSans-37" x="354.199219"/>
       <use xlink:href="#DejaVuSans-2d" x="417.822266"/>
       <use xlink:href="#DejaVuSans-30" x="453.90625"/>
       <use xlink:href="#DejaVuSans-35" x="517.529297"/>
      </g>
     </g>
    </g>
    <g id="xtick_12">
     <g id="line2d_21">
      <g>
       <use xlink:href="#m8ef7267b51" x="671.155517" y="684.92" style="stroke: #000000; stroke-width: 0.8"/>
      </g>
     </g>
     <g id="text_20">
      <!-- 2014-07-06 -->
      <g transform="translate(642.097704 699.518437) scale(0.1 -0.1)">
       <use xlink:href="#DejaVuSans-32"/>
       <use xlink:href="#DejaVuSans-30" x="63.623047"/>
       <use xlink:href="#DejaVuSans-31" x="127.246094"/>
       <use xlink:href="#DejaVuSans-34" x="190.869141"/>
       <use xlink:href="#DejaVuSans-2d" x="254.492188"/>
       <use xlink:href="#DejaVuSans-30" x="290.576172"/>
       <use xlink:href="#DejaVuSans-37" x="354.199219"/>
       <use xlink:href="#DejaVuSans-2d" x="417.822266"/>
       <use xlink:href="#DejaVuSans-30" x="453.90625"/>
       <use xlink:href="#DejaVuSans-36" x="517.529297"/>
      </g>
     </g>
    </g>
   </g>
   <g id="matplotlib.axis_4">
    <g id="ytick_6">
     <g id="line2d_22">
      <g>
       <use xlink:href="#m7dfbf27941" x="20.5625" y="671.338384" style="stroke: #000000; stroke-width: 0.8"/>
      </g>
     </g>
     <g id="text_21">
      <!-- 0 -->
      <g transform="translate(7.2 675.137603) scale(0.1 -0.1)">
       <use xlink:href="#DejaVuSans-30"/>
      </g>
     </g>
    </g>
    <g id="ytick_7">
     <g id="line2d_23">
      <g>
       <use xlink:href="#m7dfbf27941" x="20.5625" y="614.891249" style="stroke: #000000; stroke-width: 0.8"/>
      </g>
     </g>
     <g id="text_22">
      <!-- 1 -->
      <g transform="translate(7.2 618.690468) scale(0.1 -0.1)">
       <use xlink:href="#DejaVuSans-31"/>
      </g>
     </g>
    </g>
    <g id="ytick_8">
     <g id="line2d_24">
      <g>
       <use xlink:href="#m7dfbf27941" x="20.5625" y="558.444114" style="stroke: #000000; stroke-width: 0.8"/>
      </g>
     </g>
     <g id="text_23">
      <!-- 2 -->
      <g transform="translate(7.2 562.243333) scale(0.1 -0.1)">
       <use xlink:href="#DejaVuSans-32"/>
      </g>
     </g>
    </g>
    <g id="ytick_9">
     <g id="line2d_25">
      <g>
       <use xlink:href="#m7dfbf27941" x="20.5625" y="501.996979" style="stroke: #000000; stroke-width: 0.8"/>
      </g>
     </g>
     <g id="text_24">
      <!-- 3 -->
      <g transform="translate(7.2 505.796198) scale(0.1 -0.1)">
       <use xlink:href="#DejaVuSans-33"/>
      </g>
     </g>
    </g>
    <g id="ytick_10">
     <g id="line2d_26">
      <g>
       <use xlink:href="#m7dfbf27941" x="20.5625" y="445.549844" style="stroke: #000000; stroke-width: 0.8"/>
      </g>
     </g>
     <g id="text_25">
      <!-- 4 -->
      <g transform="translate(7.2 449.349063) scale(0.1 -0.1)">
       <use xlink:href="#DejaVuSans-34"/>
      </g>
     </g>
    </g>
    <g id="ytick_11">
     <g id="line2d_27">
      <g>
       <use xlink:href="#m7dfbf27941" x="20.5625" y="389.102709" style="stroke: #000000; stroke-width: 0.8"/>
      </g>
     </g>
     <g id="text_26">
      <!-- 5 -->
      <g transform="translate(7.2 392.901928) scale(0.1 -0.1)">
       <use xlink:href="#DejaVuSans-35"/>
      </g>
     </g>
    </g>
   </g>
   <g id="line2d_28">
    <path d="M 51.54312 671.338384 
L 52.059607 671.180263 
L 52.490013 670.925907 
L 53.69515 669.948794 
L 54.297718 669.027224 
L 54.642043 667.97994 
L 55.330692 664.393237 
L 55.761098 663.88349 
L 57.740965 662.4284 
L 58.860021 661.186144 
L 59.54867 660.775224 
L 60.23732 660.624671 
L 61.184213 660.6488 
L 61.872862 660.882951 
L 63.077999 661.626488 
L 64.627461 662.493115 
L 65.402191 662.684514 
L 66.00476 662.609305 
L 66.607328 662.271339 
L 67.812465 661.21034 
L 68.328952 659.939112 
L 68.673276 658.069582 
L 69.878413 648.291952 
L 70.653144 639.71192 
L 71.85828 631.787489 
L 72.116524 629.744972 
L 72.54693 626.283929 
L 72.805173 624.436516 
L 73.149498 620.951606 
L 73.321661 620.452921 
L 73.493823 618.618088 
L 73.752067 616.017304 
L 73.838148 616.071678 
L 74.01031 615.535375 
L 74.354635 613.20933 
L 74.440716 613.335082 
L 74.526797 613.244193 
L 74.69896 612.19102 
L 74.871122 611.351352 
L 74.957203 611.328635 
L 75.129366 611.554125 
L 75.301528 610.633884 
L 75.47369 610.017512 
L 75.559771 610.094189 
L 75.731934 610.401511 
L 75.818015 610.230896 
L 76.076259 609.270732 
L 76.420583 610.547604 
L 76.678827 609.46187 
L 77.109233 610.594835 
L 77.281395 609.878342 
L 77.367476 609.961877 
L 77.711801 610.820453 
L 77.970045 609.843695 
L 78.056126 609.852315 
L 78.228288 610.12268 
L 78.572613 608.633561 
L 78.658694 608.734866 
L 78.830857 609.160813 
L 78.916938 609.10762 
L 79.175181 608.441124 
L 79.519506 610.001598 
L 79.605587 609.898025 
L 79.691669 609.702802 
L 79.949912 610.845673 
L 80.294237 612.775025 
L 80.466399 613.624854 
L 80.638562 614.765316 
L 80.810724 612.183968 
L 80.982886 607.619342 
L 81.24113 611.178726 
L 81.413292 612.33058 
L 81.499374 609.436831 
L 81.757617 596.486874 
L 82.015861 599.59867 
L 82.188023 599.994895 
L 82.360185 601.245538 
L 82.446267 601.28643 
L 82.790591 610.398193 
L 83.565322 628.947646 
L 83.909647 631.936349 
L 84.16789 634.890242 
L 84.340053 636.018783 
L 84.512215 627.686217 
L 84.684378 613.28378 
L 84.85654 617.355882 
L 84.942621 616.714841 
L 85.114783 599.10552 
L 85.373027 540.549503 
L 85.459108 548.138091 
L 85.545189 542.137323 
L 85.717352 520.878012 
L 85.803433 518.810667 
L 86.31992 494.199038 
L 86.750326 486.126821 
L 86.922488 470.579764 
L 87.00857 477.077537 
L 87.180732 495.040017 
L 87.266813 488.475627 
L 87.525057 442.600998 
L 87.955463 429.432623 
L 88.127625 426.509374 
L 88.299787 424.322765 
L 88.47195 433.601172 
L 88.644112 432.597202 
L 89.160599 429.416393 
L 89.246681 429.379087 
L 89.677086 428.371376 
L 89.849249 428.424346 
L 90.193574 427.178966 
L 90.451817 427.747811 
L 90.62398 427.456928 
L 90.710061 427.298527 
L 90.882223 426.250845 
L 90.968304 426.338565 
L 91.140467 424.543261 
L 91.226548 424.538417 
L 91.39871 422.80171 
L 91.484791 422.681879 
L 91.656954 421.554499 
L 91.743035 421.621708 
L 91.915197 421.033726 
L 92.001279 420.915215 
L 92.08736 420.3654 
L 92.173441 420.449997 
L 92.603847 419.822071 
L 92.689928 420.002705 
L 92.86209 419.893022 
L 93.034253 420.180647 
L 93.120334 420.226943 
L 93.636821 422.207268 
L 93.981146 424.861679 
L 94.153308 427.391711 
L 94.325471 429.82401 
L 94.411552 430.107786 
L 94.497633 432.547919 
L 94.669795 531.780953 
L 94.755877 523.944643 
L 94.841958 525.825526 
L 95.530607 534.477717 
L 95.616688 534.139328 
L 95.70277 533.04068 
L 95.788851 533.349919 
L 95.874932 534.079345 
L 95.961013 533.987413 
L 96.047094 533.98308 
L 96.133176 533.582959 
L 96.391419 526.68995 
L 96.4775 527.108845 
L 96.735744 524.906261 
L 97.080069 507.951492 
L 97.252231 502.452076 
L 97.510475 489.65151 
L 97.940881 471.808402 
L 98.026962 471.259812 
L 98.113043 471.797757 
L 98.285205 474.724801 
L 98.457368 467.670498 
L 98.62953 464.330318 
L 98.715611 464.075073 
L 98.973855 469.060956 
L 99.146017 468.267887 
L 99.31818 468.024431 
L 99.404261 467.753224 
L 99.490342 468.626288 
L 99.662504 472.839356 
L 99.834667 488.831592 
L 99.920748 503.418082 
L 100.09291 553.875781 
L 100.265073 550.24916 
L 100.523316 556.272928 
L 100.867641 568.624789 
L 100.953722 568.856496 
L 101.125885 568.716277 
L 101.298047 569.650568 
L 102.417102 582.789954 
L 102.503184 582.92043 
L 102.589265 582.822563 
L 102.675346 583.189921 
L 103.019671 594.070441 
L 103.450077 599.636709 
L 103.794401 602.044973 
L 104.741294 606.238553 
L 105.085619 607.030714 
L 105.516025 607.843964 
L 106.032512 609.026791 
L 106.376837 609.303906 
L 106.635081 609.564057 
L 107.495893 610.906335 
L 107.754136 611.030069 
L 108.01238 611.504619 
L 108.614948 612.9989 
L 108.873192 613.159414 
L 109.131435 613.084022 
L 109.303597 612.838729 
L 109.647922 614.289197 
L 110.078328 618.013771 
L 110.164409 617.780698 
L 110.422653 616.614798 
L 110.680897 615.126025 
L 111.197384 616.742023 
L 111.369546 617.946818 
L 111.62779 620.022789 
L 111.886033 619.403981 
L 112.144277 618.001804 
L 112.316439 617.098678 
L 112.488601 617.755596 
L 112.919007 620.548009 
L 113.263332 623.94238 
L 113.435495 623.875877 
L 113.607657 622.953857 
L 114.038063 620.000546 
L 114.382388 622.955351 
L 114.468469 622.798211 
L 114.812794 620.160639 
L 115.329281 616.579574 
L 115.673605 615.300468 
L 115.759687 615.318946 
L 116.104011 617.964915 
L 116.620499 624.517739 
L 116.878742 625.201899 
L 117.223067 625.651969 
L 117.653473 628.208059 
L 118.256041 633.523385 
L 118.514285 634.214897 
L 119.289015 635.404756 
L 119.891584 638.208366 
L 120.235908 638.648048 
L 120.494152 638.5447 
L 121.182802 638.380175 
L 121.613207 638.434381 
L 121.957532 638.406772 
L 122.129695 638.304184 
L 122.387938 638.063978 
L 123.24875 637.537638 
L 124.281724 636.799225 
L 124.626049 636.594454 
L 124.884293 636.394377 
L 125.142536 636.217753 
L 125.572942 635.690067 
L 126.433754 634.815502 
L 126.778079 634.440305 
L 127.638891 633.77285 
L 128.069297 633.296698 
L 128.671865 632.389309 
L 129.79092 630.91101 
L 130.049164 630.687997 
L 130.307408 630.416723 
L 130.47957 630.325054 
L 130.909976 629.865573 
L 131.082138 629.991018 
L 131.340382 629.828475 
L 131.512544 629.789097 
L 132.029031 630.463207 
L 132.459437 631.82752 
L 132.803762 633.30557 
L 133.492412 638.417649 
L 134.008899 642.116855 
L 136.24701 649.632516 
L 137.02174 651.308369 
L 137.882552 652.632469 
L 138.915526 653.84336 
L 139.604176 654.413642 
L 140.034582 654.342489 
L 140.206744 654.159482 
L 140.464988 653.306443 
L 141.067556 650.934877 
L 141.670124 648.296817 
L 142.186612 644.065767 
L 142.444855 643.350586 
L 143.477829 643.076293 
L 143.736073 643.4587 
L 144.080398 643.886119 
L 144.596885 644.173087 
L 145.199453 643.839733 
L 145.457697 643.732474 
L 145.802022 643.696396 
L 146.748915 642.712435 
L 146.921077 642.649522 
L 147.351483 642.168692 
L 147.523645 641.94214 
L 148.728782 639.52668 
L 148.987026 639.482359 
L 149.503513 639.88676 
L 149.847837 639.795376 
L 150.106081 640.020469 
L 150.79473 641.533015 
L 151.311218 641.59582 
L 151.741624 641.188721 
L 152.172029 641.042389 
L 152.430273 641.26846 
L 152.602435 640.983338 
L 153.291085 638.83971 
L 153.721491 638.479923 
L 153.893653 638.475236 
L 154.926628 639.462448 
L 155.443115 640.640915 
L 155.873521 641.938917 
L 156.303927 643.011254 
L 156.820414 644.506971 
L 156.906495 644.590133 
L 157.078657 644.345363 
L 157.25082 643.830648 
L 157.681226 642.45476 
L 157.939469 642.332009 
L 158.111632 642.251392 
L 158.800281 641.360947 
L 159.058525 641.383466 
L 159.402849 641.605867 
L 160.005418 641.060607 
L 160.17758 641.254454 
L 160.607986 642.240178 
L 160.86623 641.427962 
L 161.554879 638.439286 
L 161.899204 637.508178 
L 162.071366 637.362347 
L 162.32961 637.318978 
L 162.846097 636.653309 
L 163.018259 636.678119 
L 163.276503 637.103 
L 163.879071 638.501187 
L 164.395558 640.34863 
L 164.825964 642.030593 
L 165.170289 642.532638 
L 165.514614 642.903283 
L 166.461507 642.449855 
L 167.150156 642.637281 
L 167.4084 643.028645 
L 167.924887 643.186896 
L 168.613537 643.670104 
L 168.785699 643.15908 
L 169.216105 641.625273 
L 170.593404 639.679122 
L 170.851647 639.308737 
L 171.109891 639.110971 
L 171.454216 638.761936 
L 171.798541 638.844333 
L 172.228946 639.376246 
L 172.659352 640.607105 
L 173.348002 643.416274 
L 173.692327 644.539368 
L 173.95057 644.675496 
L 174.380976 644.620382 
L 174.63922 644.562192 
L 174.811382 644.623496 
L 175.069626 643.884329 
L 175.758275 641.191053 
L 176.188681 640.081528 
L 176.446925 639.50194 
L 177.049493 639.049622 
L 177.307737 639.026252 
L 177.652061 638.665597 
L 177.910305 638.387311 
L 178.25463 637.875428 
L 178.512873 637.378486 
L 179.115442 635.884498 
L 179.287604 635.693771 
L 179.459766 635.796876 
L 179.804091 636.068938 
L 180.062335 636.190349 
L 181.18139 637.355147 
L 181.525715 638.141009 
L 181.783958 638.224149 
L 182.386527 638.187039 
L 183.247339 638.927753 
L 183.419501 639.29078 
L 184.194232 642.03357 
L 184.538556 642.173648 
L 185.055044 642.416701 
L 185.48545 642.843529 
L 185.829774 643.226475 
L 186.174099 643.974145 
L 186.432343 644.000637 
L 186.604505 643.965914 
L 187.120992 643.19408 
L 187.551398 642.864918 
L 187.72356 642.511667 
L 187.981804 641.154484 
L 188.240048 639.959675 
L 188.41221 639.828036 
L 188.842616 639.881178 
L 189.273022 640.458007 
L 189.789509 640.755386 
L 190.047753 640.631834 
L 190.478158 641.164561 
L 190.908564 641.454111 
L 191.683295 639.9174 
L 191.941539 640.017636 
L 192.199782 640.438708 
L 192.716269 641.794481 
L 193.404919 645.425126 
L 194.093568 648.579325 
L 194.782218 650.944109 
L 195.556949 652.776158 
L 196.503842 654.404544 
L 197.450735 655.583659 
L 198.397628 656.425784 
L 199.516683 657.115307 
L 200.807901 657.687464 
L 200.893982 657.577654 
L 200.980064 656.700305 
L 201.152226 651.503794 
L 201.410469 639.801725 
L 201.496551 640.509628 
L 201.582632 639.641978 
L 201.754794 633.116586 
L 201.926957 628.850859 
L 202.013038 627.623378 
L 202.529525 589.153369 
L 202.701687 593.772843 
L 202.787768 593.381261 
L 203.046012 579.836236 
L 203.304256 586.148961 
L 203.390337 585.150475 
L 203.64858 574.226304 
L 203.734662 574.327125 
L 203.992905 576.334776 
L 204.078986 576.599368 
L 204.251149 573.578037 
L 204.33723 577.140307 
L 204.423311 576.353355 
L 204.509392 575.936599 
L 204.595473 577.011184 
L 204.681555 576.780251 
L 204.853717 574.320261 
L 205.111961 579.296374 
L 205.198042 579.956962 
L 205.456285 578.049627 
L 205.628448 580.876759 
L 205.714529 579.382189 
L 205.886691 582.292908 
L 205.972772 581.743578 
L 206.058854 581.227637 
L 206.48926 588.300398 
L 206.661422 587.612154 
L 206.747503 588.258577 
L 207.091828 594.383199 
L 207.26399 595.230498 
L 207.350071 595.248047 
L 207.608315 599.970374 
L 207.780477 601.853357 
L 207.866559 601.762448 
L 207.95264 601.323904 
L 208.038721 601.372117 
L 208.469127 605.223958 
L 208.555208 605.20801 
L 208.641289 605.461587 
L 209.243858 610.406214 
L 209.41602 611.836993 
L 209.760345 614.778646 
L 209.932507 615.25646 
L 210.621157 619.182276 
L 211.395887 622.702777 
L 211.56805 622.616235 
L 211.826293 621.892565 
L 211.912374 621.847101 
L 211.998456 621.975928 
L 212.170618 621.384289 
L 212.514943 617.530392 
L 212.687105 616.772055 
L 212.859268 612.825298 
L 213.117511 603.4968 
L 213.203592 603.854037 
L 213.289674 603.640148 
L 213.461836 594.969365 
L 213.633998 581.88521 
L 213.720079 582.007241 
L 213.806161 583.204503 
L 213.892242 580.273434 
L 214.150485 524.652657 
L 214.236567 529.874931 
L 214.322648 532.304565 
L 214.408729 528.659615 
L 214.666973 505.454755 
L 214.839135 507.485116 
L 215.011297 505.373859 
L 215.269541 501.185257 
L 215.355622 501.441431 
L 215.699947 514.849036 
L 216.044272 560.361583 
L 216.474677 586.086254 
L 217.249408 615.786801 
L 217.507652 617.429339 
L 217.593733 617.609505 
L 217.938058 620.835126 
L 218.454545 626.252582 
L 218.712788 628.840312 
L 219.143194 630.159685 
L 219.401438 630.999477 
L 219.659681 633.030622 
L 220.778737 642.839687 
L 221.467386 647.069697 
L 222.156036 649.81672 
L 222.758604 651.491202 
L 223.533335 652.968576 
L 224.394147 654.113248 
L 225.254959 654.895805 
L 226.287933 655.557544 
L 227.062664 655.839777 
L 227.579151 655.832308 
L 227.923476 655.540134 
L 228.353882 654.791788 
L 228.870369 653.247529 
L 230.075505 649.305069 
L 230.505911 647.925735 
L 231.022398 647.166064 
L 231.88321 646.279505 
L 232.313616 644.992244 
L 233.690915 641.013225 
L 234.293484 639.313942 
L 234.72389 638.519722 
L 235.584701 635.47752 
L 235.929026 634.427961 
L 236.445513 633.521989 
L 236.875919 633.511697 
L 237.220244 633.972531 
L 237.736731 635.076104 
L 238.425381 638.451449 
L 238.683624 639.863541 
L 238.941868 640.063151 
L 239.372274 639.88572 
L 239.80268 639.097314 
L 240.319167 637.82855 
L 241.179979 637.296369 
L 241.352141 637.340629 
L 241.696466 637.707458 
L 242.040791 638.324812 
L 242.385115 639.792732 
L 242.643359 639.729684 
L 242.987684 639.291894 
L 243.245927 638.934909 
L 244.020658 638.457535 
L 244.19282 638.121993 
L 244.709307 636.739279 
L 245.397957 636.179983 
L 245.570119 636.172268 
L 246.000525 637.068719 
L 246.086606 637.025014 
L 246.517012 636.641315 
L 246.775256 636.745036 
L 247.291743 637.569183 
L 247.980393 640.04218 
L 249.013367 643.807978 
L 249.27161 643.983895 
L 249.529854 643.827038 
L 250.648909 642.654309 
L 251.079315 641.7343 
L 251.767965 639.42996 
L 252.11229 639.054679 
L 252.456614 638.986218 
L 252.973102 639.310611 
L 253.661751 638.849171 
L 254.178238 638.925721 
L 255.555537 636.521064 
L 256.158106 636.909302 
L 257.535405 639.242513 
L 257.879729 640.145736 
L 258.224054 640.519069 
L 259.170947 641.722134 
L 259.429191 641.458821 
L 259.773515 641.029637 
L 259.859597 640.99005 
L 260.031759 641.422881 
L 260.376084 642.346702 
L 260.548246 642.263205 
L 260.720409 641.952711 
L 261.236896 640.063864 
L 261.58122 639.101261 
L 261.753383 638.964927 
L 262.26987 639.246258 
L 263.044601 638.276394 
L 263.475007 638.303764 
L 263.819331 637.881723 
L 263.991494 637.760826 
L 264.594062 636.243684 
L 264.938387 635.220108 
L 265.19663 634.811882 
L 265.540955 634.105227 
L 265.799199 634.163992 
L 266.143523 634.747172 
L 266.315686 635.120243 
L 267.692985 642.016879 
L 268.295553 643.762758 
L 268.467716 643.943482 
L 268.639878 643.621115 
L 268.81204 642.97133 
L 269.50069 639.782773 
L 269.845015 638.447698 
L 270.447583 635.976716 
L 270.619745 635.753982 
L 271.136232 635.612269 
L 271.394476 636.01489 
L 271.652719 636.39694 
L 271.738801 636.420038 
L 271.910963 636.869722 
L 272.255288 638.138987 
L 272.943937 641.262596 
L 273.202181 641.550702 
L 273.460424 641.353317 
L 274.149074 640.58571 
L 274.493399 639.864409 
L 275.182048 637.765856 
L 275.698535 637.487109 
L 276.04286 637.577484 
L 276.473266 638.20556 
L 276.73151 637.799343 
L 277.161916 636.858168 
L 277.334078 636.920058 
L 277.592322 637.052687 
L 277.936646 636.861586 
L 278.453133 637.098529 
L 278.883539 637.821996 
L 279.055702 638.315425 
L 279.572189 641.48934 
L 280.519082 646.989423 
L 281.379894 650.394497 
L 282.068543 652.255486 
L 283.015436 654.070892 
L 283.962329 655.375303 
L 284.909223 656.308684 
L 285.942197 657.01068 
L 286.458684 657.195349 
L 286.803009 656.629625 
L 287.491658 654.937202 
L 288.094227 654.736611 
L 288.266389 654.049938 
L 288.696795 651.685735 
L 288.868957 651.462487 
L 289.04112 651.50229 
L 290.332337 652.672902 
L 292.226124 655.453834 
L 292.570448 655.467112 
L 293.259098 655.423976 
L 293.775585 655.613186 
L 294.033829 655.424893 
L 294.808559 654.512759 
L 295.238965 654.585938 
L 295.927615 654.937323 
L 296.702345 655.47984 
L 297.04667 655.527445 
L 297.477076 655.261832 
L 297.821401 654.783467 
L 298.251807 653.697749 
L 298.854375 651.413027 
L 299.284781 648.884599 
L 300.231674 643.381071 
L 300.66208 641.18284 
L 301.436811 637.064025 
L 302.211542 633.064446 
L 302.728029 630.744228 
L 303.158435 627.340036 
L 303.416678 625.842529 
L 303.847084 621.50533 
L 304.019246 619.771274 
L 304.363571 616.140883 
L 304.535734 615.356965 
L 304.880058 612.049455 
L 304.96614 612.046508 
L 305.138302 611.424497 
L 305.396545 609.510056 
L 305.482627 609.554481 
L 305.654789 610.201982 
L 305.826951 609.6378 
L 305.999114 608.657516 
L 306.42952 609.516678 
L 306.601682 608.731226 
L 306.687763 608.828514 
L 306.946007 609.714289 
L 307.032088 609.713495 
L 307.290332 608.814773 
L 307.376413 608.852436 
L 307.548575 609.165416 
L 307.8929 607.852718 
L 307.978981 607.945404 
L 308.151144 608.282797 
L 308.237225 608.112169 
L 308.495468 607.307883 
L 308.839793 608.491706 
L 309.011955 607.506429 
L 309.098037 607.55798 
L 309.528443 608.998536 
L 309.700605 608.564427 
L 309.872767 609.268269 
L 310.131011 610.347086 
L 310.389254 610.403354 
L 311.163985 613.066924 
L 311.336148 610.125082 
L 311.50831 606.064258 
L 311.680472 607.997116 
L 311.852635 610.809377 
L 311.938716 610.683645 
L 312.110878 601.28822 
L 312.283041 595.594309 
L 312.541284 598.670098 
L 312.627365 598.630296 
L 312.97169 600.423958 
L 313.746421 621.582879 
L 314.004664 626.937862 
L 315.640207 642.054114 
L 316.501019 645.716173 
L 317.103587 647.135662 
L 318.05048 648.475306 
L 318.480886 648.867359 
L 318.825211 649.029412 
L 320.030348 648.938007 
L 320.977241 648.641247 
L 322.268458 648.632878 
L 322.957108 649.004125 
L 323.301433 649.432873 
L 323.904001 650.631497 
L 325.109138 653.053311 
L 326.142112 654.674102 
L 327.002924 655.609784 
L 327.949817 656.323885 
L 329.068872 656.757221 
L 330.704415 657.460325 
L 332.684282 658.253011 
L 334.66415 658.807002 
L 337.59091 659.393031 
L 341.20632 659.884391 
L 346.28511 660.344926 
L 353.774174 660.785665 
L 363.329186 661.10544 
L 386.571106 661.534006 
L 429.353457 662.31513 
L 460.945254 663.088676 
L 468.950804 663.311329 
L 484.61758 663.531771 
L 517.070189 663.746837 
L 671.155517 664.444578 
L 671.155517 664.444578 
" clip-path="url(#p71482b544e)" style="fill: none; stroke: #1f77b4; stroke-width: 1.5; stroke-linecap: square"/>
   </g>
   <g id="line2d_29">
    <path d="M 51.54312 671.338384 
L 52.231769 671.252269 
L 52.920419 670.603248 
L 56.019342 666.416777 
L 57.568803 664.205996 
L 58.429615 663.074938 
L 59.032183 662.292722 
L 59.462589 662.024827 
L 59.979076 662.016112 
L 60.667726 662.317126 
L 62.475431 663.532588 
L 64.024892 664.471019 
L 64.541379 664.457882 
L 64.971785 664.160301 
L 65.31611 663.721551 
L 66.00476 662.34395 
L 66.693409 660.333466 
L 67.554221 657.439096 
L 68.328952 653.914675 
L 72.030443 632.202976 
L 73.149498 621.427376 
L 74.69896 610.368756 
L 75.301528 607.619742 
L 75.645853 606.720204 
L 76.076259 605.565346 
L 76.334502 605.883966 
L 76.420583 605.933357 
L 76.678827 605.743938 
L 76.937071 606.052587 
L 77.023152 606.079332 
L 77.281395 605.836531 
L 77.539639 606.146081 
L 77.62572 606.18333 
L 77.883964 605.997548 
L 78.142207 606.393175 
L 78.228288 606.462511 
L 78.400451 606.333248 
L 78.486532 606.379412 
L 78.916938 607.246334 
L 79.0891 607.618121 
L 79.433425 609.569301 
L 80.55248 616.995441 
L 80.638562 616.865797 
L 80.810724 614.426002 
L 81.24113 606.310034 
L 81.499374 604.722021 
L 81.585455 604.76332 
L 81.757617 605.596931 
L 82.101942 609.332525 
L 82.70451 619.382314 
L 83.823566 637.950439 
L 84.340053 643.623516 
L 84.512215 637.217739 
L 85.028702 604.842832 
L 85.545189 557.730507 
L 85.803433 537.462181 
L 86.147758 513.009044 
L 86.406001 495.8536 
L 86.750326 477.138577 
L 87.00857 464.937345 
L 87.352894 452.146588 
L 87.611138 443.614122 
L 87.955463 434.348764 
L 88.213706 427.675785 
L 88.558031 420.461942 
L 88.816275 417.572015 
L 89.160599 411.9593 
L 89.418843 409.13702 
L 89.763168 404.529654 
L 90.021411 402.751347 
L 90.279655 400.39054 
L 90.62398 400.217705 
L 90.796142 399.74 
L 90.882223 399.858815 
L 91.570873 404.686274 
L 92.86209 427.585402 
L 95.358445 479.320618 
L 95.70277 482.861755 
L 96.133176 485.218447 
L 96.219257 485.152768 
L 96.821825 480.785336 
L 97.424393 464.305904 
L 97.940881 431.196259 
L 98.199124 426.945151 
L 98.285205 426.848305 
L 98.457368 428.332867 
L 98.801692 435.281777 
L 99.31818 451.133054 
L 101.728453 529.095071 
L 102.675346 549.632444 
L 103.450077 561.593794 
L 104.224807 569.984599 
L 104.999538 576.049507 
L 105.946431 581.665224 
L 107.151568 587.426475 
L 108.442786 592.837432 
L 109.992247 598.449373 
L 111.972114 604.755326 
L 113.005089 607.529464 
L 113.435495 608.472256 
L 113.607657 607.948261 
L 114.382388 602.656234 
L 114.640631 602.184036 
L 114.898875 602.173967 
L 115.157118 602.516925 
L 115.759687 603.948809 
L 117.739554 609.374786 
L 118.600366 611.022808 
L 120.666314 613.843654 
L 121.010639 614.175447 
L 121.354964 614.374464 
L 121.699289 614.542325 
L 122.043613 614.704794 
L 123.593075 615.185755 
L 123.851318 615.175465 
L 124.109562 615.153117 
L 124.453887 615.014947 
L 124.798211 614.855345 
L 125.142536 614.706704 
L 127.122404 613.558462 
L 127.811053 612.762977 
L 128.155378 612.271528 
L 128.499703 611.774921 
L 128.757946 611.400566 
L 129.01619 611.302877 
L 129.274433 610.958669 
L 130.221326 609.661449 
L 130.909976 608.672744 
L 131.082138 608.673694 
L 131.254301 608.870138 
L 131.598625 609.669622 
L 132.029031 611.274219 
L 133.148087 616.765789 
L 134.611467 623.603909 
L 135.988766 628.910246 
L 137.624309 634.312835 
L 139.345932 639.342078 
L 139.604176 639.716279 
L 139.948501 639.61094 
L 140.206744 639.153791 
L 141.239719 635.93249 
L 141.842287 635.006076 
L 142.10053 634.987008 
L 142.358774 635.242165 
L 142.875261 635.916875 
L 143.305667 636.284455 
L 144.080398 636.110188 
L 144.338641 636.070488 
L 144.682966 635.999904 
L 145.027291 635.938811 
L 145.371616 636.215498 
L 145.802022 636.653457 
L 146.318509 636.229346 
L 146.748915 635.288747 
L 147.609726 633.768055 
L 148.126214 633.553701 
L 148.814863 633.544648 
L 149.159188 633.895005 
L 149.417431 634.155917 
L 149.589594 634.045025 
L 150.02 633.630767 
L 150.278243 633.740245 
L 151.139055 634.603684 
L 151.311218 634.482352 
L 151.48338 634.079031 
L 151.999867 632.700443 
L 152.344192 632.217856 
L 152.774598 631.746557 
L 153.377166 631.235385 
L 153.63541 631.183051 
L 153.979734 631.488936 
L 154.41014 632.278278 
L 155.701358 634.919305 
L 156.648251 634.119625 
L 156.820414 634.155756 
L 156.992576 633.976556 
L 157.595144 632.794362 
L 157.853388 632.699646 
L 158.111632 632.909277 
L 158.542037 633.681207 
L 159.144606 634.766481 
L 159.316768 634.800794 
L 159.488931 634.48969 
L 160.17758 632.786117 
L 161.899204 628.778233 
L 162.071366 628.837771 
L 163.018259 630.061993 
L 163.534746 631.301814 
L 163.79299 631.772502 
L 164.223396 631.917582 
L 164.481639 631.723293 
L 164.825964 631.404191 
L 165.084208 631.418456 
L 165.342451 631.660066 
L 165.772857 632.441976 
L 166.375426 633.585119 
L 166.977994 633.803392 
L 167.4084 633.726351 
L 167.580562 633.4133 
L 168.010968 632.621317 
L 168.269212 632.618204 
L 168.699618 632.887316 
L 169.474348 631.917907 
L 170.162998 630.414868 
L 170.421242 630.067993 
L 170.679485 630.083559 
L 170.937729 630.416211 
L 171.454216 631.015298 
L 172.056784 631.89575 
L 172.573271 633.128056 
L 173.17584 634.540339 
L 173.606245 634.856257 
L 173.778408 634.664089 
L 174.897463 632.458596 
L 175.327869 631.365406 
L 175.672194 631.084513 
L 175.930438 631.15858 
L 176.274762 631.228713 
L 176.791249 631.023998 
L 177.56598 629.096823 
L 177.996386 628.068313 
L 178.340711 627.595108 
L 178.598954 627.539331 
L 178.857198 627.247739 
L 179.201523 627.029638 
L 179.545848 627.072617 
L 179.976253 627.388585 
L 180.492741 627.455753 
L 181.009228 626.618675 
L 181.267471 626.657417 
L 181.525715 627.049014 
L 182.042202 627.788237 
L 182.386527 628.195918 
L 182.903014 628.531032 
L 183.505582 629.018382 
L 183.935988 630.014891 
L 184.194232 630.445122 
L 184.7968 630.649936 
L 185.227206 631.230078 
L 185.743693 632.446868 
L 186.001937 632.928382 
L 186.088018 632.934348 
L 186.518424 632.158723 
L 186.862749 630.837305 
L 187.207073 629.71215 
L 187.465317 629.429563 
L 187.637479 629.487039 
L 188.928697 630.823555 
L 189.531265 631.187659 
L 189.703428 631.105815 
L 189.87559 630.730705 
L 190.478158 629.171352 
L 190.736402 628.799853 
L 190.908564 628.793276 
L 191.166808 629.114246 
L 191.597214 630.242293 
L 192.974513 635.075564 
L 194.351812 639.291705 
L 195.901273 643.322967 
L 197.708978 647.424447 
L 199.602765 651.170951 
L 200.72182 653.186791 
L 200.807901 652.927216 
L 200.980064 650.874795 
L 201.496551 636.895278 
L 203.132093 581.758592 
L 203.820743 573.494046 
L 204.33723 571.06926 
L 204.853717 572.050995 
L 205.025879 573.09154 
L 205.714529 579.171946 
L 206.403178 588.181345 
L 207.780477 608.687948 
L 209.760345 632.42676 
L 210.707238 640.370335 
L 211.309806 643.860889 
L 211.481969 644.125454 
L 211.912374 642.913158 
L 212.170618 640.61383 
L 212.945349 629.849404 
L 213.375755 619.526924 
L 213.978323 590.379468 
L 214.49481 536.474491 
L 214.753054 528.701105 
L 214.839135 528.228706 
L 214.925216 528.557336 
L 215.097378 530.936284 
L 215.441703 540.168799 
L 216.216434 570.592485 
L 217.421571 616.592746 
L 218.11022 635.647798 
L 218.79887 649.450962 
L 219.401438 657.638849 
L 220.004006 662.820727 
L 220.520493 665.529027 
L 221.036981 667.167383 
L 221.553468 668.121474 
L 222.069955 668.661897 
L 222.758604 669.034237 
L 223.791579 669.280986 
L 226.287933 669.585951 
L 226.80442 669.353735 
L 227.320907 668.873249 
L 227.665232 668.24866 
L 228.526044 665.80136 
L 229.386856 663.342068 
L 229.903343 662.642066 
L 230.591992 661.649855 
L 231.366723 660.004122 
L 232.055373 657.794662 
L 232.744022 655.103658 
L 234.03524 651.00116 
L 235.154295 645.900001 
L 235.670783 643.764503 
L 236.101189 642.54088 
L 236.445513 642.159969 
L 236.703757 642.20104 
L 237.134163 642.582832 
L 237.736731 643.291884 
L 238.081056 643.396827 
L 238.253218 643.193169 
L 238.769705 642.168651 
L 239.458355 639.934089 
L 239.80268 639.302138 
L 239.974842 639.26375 
L 240.233086 639.490302 
L 240.663492 639.993483 
L 241.26606 639.30103 
L 241.696466 638.763679 
L 241.954709 638.782294 
L 242.385115 639.056458 
L 242.557278 638.764598 
L 243.159846 636.938494 
L 243.504171 635.784331 
L 243.762414 635.486081 
L 243.934577 635.516338 
L 244.364983 635.788042 
L 244.88147 634.994699 
L 245.742282 632.704785 
L 245.914444 632.751245 
L 246.172688 633.091652 
L 246.603094 634.11068 
L 247.377824 636.215156 
L 247.549987 636.207791 
L 247.980393 635.849748 
L 248.238636 635.950212 
L 248.582961 636.449997 
L 249.185529 637.479036 
L 249.357692 637.360235 
L 250.046341 636.034497 
L 250.562828 634.596738 
L 250.907153 634.040388 
L 251.42364 633.682043 
L 251.767965 633.625885 
L 252.11229 633.440467 
L 252.714858 633.434951 
L 252.88702 633.53452 
L 253.059183 633.388957 
L 254.522563 630.240202 
L 254.866888 630.092986 
L 255.211212 629.838211 
L 255.813781 629.789321 
L 256.158106 630.227776 
L 256.760674 631.1043 
L 257.363242 630.585057 
L 257.621486 630.719562 
L 258.568379 632.159838 
L 259.170947 633.155 
L 259.257028 633.112352 
L 260.462165 630.85383 
L 260.720409 630.764117 
L 260.892571 630.794886 
L 261.064733 630.622377 
L 261.58122 629.622947 
L 261.839464 629.494413 
L 262.011626 629.584645 
L 262.26987 629.81938 
L 262.442032 629.805575 
L 263.044601 629.381907 
L 263.561088 628.484291 
L 264.680143 624.504697 
L 264.852306 624.37739 
L 265.024468 624.481319 
L 265.368793 625.192083 
L 266.143523 627.389653 
L 267.004335 630.03498 
L 267.262579 630.332078 
L 267.865147 629.898074 
L 268.209472 629.636405 
L 268.381634 629.627421 
L 268.553797 629.400872 
L 269.242446 627.292371 
L 269.758933 625.482983 
L 270.103258 624.659497 
L 270.27542 624.574691 
L 270.447583 624.702889 
L 270.705826 625.223844 
L 271.738801 627.567229 
L 272.083125 627.658362 
L 272.341369 627.99428 
L 272.857856 628.77835 
L 273.288262 627.974538 
L 274.149074 625.751228 
L 274.321236 625.820523 
L 275.009886 626.479264 
L 275.182048 626.549082 
L 275.354211 626.393979 
L 275.870698 625.427019 
L 276.215022 625.273559 
L 276.387185 625.339682 
L 276.559347 625.173127 
L 277.161916 623.948237 
L 277.420159 623.730044 
L 277.592322 623.811037 
L 277.850565 624.275033 
L 278.280971 625.678611 
L 281.12165 636.415017 
L 282.58503 640.564295 
L 284.392735 645.025989 
L 286.20044 648.947766 
L 286.372603 648.986697 
L 286.544765 648.618758 
L 287.061252 647.05843 
L 287.319496 646.777182 
L 287.577739 646.800194 
L 287.922064 647.138967 
L 288.524632 648.132945 
L 291.623555 653.657152 
L 291.96788 654.049433 
L 292.140042 653.958372 
L 292.65653 653.451723 
L 292.914773 653.446991 
L 293.259098 653.665369 
L 293.861666 654.368554 
L 295.755452 656.772751 
L 296.444102 657.043359 
L 297.04667 656.746689 
L 297.73532 655.694305 
L 298.682213 653.228817 
L 299.715187 649.503947 
L 300.66208 645.264222 
L 301.953298 638.126297 
L 303.072353 629.889248 
L 305.052221 610.382117 
L 305.396545 607.997666 
L 305.74087 607.059621 
L 306.085195 605.893106 
L 306.343439 605.298048 
L 306.601682 604.379223 
L 306.773845 604.23281 
L 307.032088 603.653059 
L 307.20425 603.257338 
L 307.376413 603.274872 
L 307.548575 603.153099 
L 307.806819 602.710122 
L 308.065062 602.903925 
L 308.151144 602.916034 
L 308.409387 602.694623 
L 308.581549 603.199593 
L 308.925874 604.015813 
L 309.098037 604.252034 
L 309.528443 605.446012 
L 309.700605 605.866998 
L 310.647498 610.846106 
L 311.077904 613.699093 
L 311.163985 613.571136 
L 311.336148 611.143072 
L 311.766553 603.215113 
L 312.024797 601.857682 
L 312.110878 601.930239 
L 312.283041 602.804267 
L 312.627365 606.625762 
L 313.229934 616.708205 
L 314.262908 633.948286 
L 314.951557 641.723549 
L 315.554126 646.185687 
L 316.156694 648.989351 
L 316.673181 650.480587 
L 317.189668 651.403445 
L 317.706155 651.940416 
L 318.308724 652.365536 
L 318.911292 652.517629 
L 319.858185 652.444861 
L 320.718997 652.115981 
L 321.063322 652.051035 
L 321.579809 652.219326 
L 322.182377 652.76016 
L 323.215352 654.125541 
L 325.797787 657.617492 
L 326.314274 658.096614 
L 327.089005 658.68917 
L 332.426039 663.598215 
L 334.491987 664.997435 
L 336.730098 666.239339 
L 339.140371 667.311973 
L 341.722807 668.215654 
L 344.649568 668.999579 
L 348.006734 669.661234 
L 351.966469 670.206459 
L 356.787015 670.637672 
L 363.070942 670.963734 
L 371.937304 671.183661 
L 386.915431 671.303686 
L 429.009133 671.337865 
L 671.155517 671.338384 
L 671.155517 671.338384 
" clip-path="url(#p71482b544e)" style="fill: none; stroke: #ff7f0e; stroke-width: 1.5; stroke-linecap: square"/>
   </g>
   <g id="patch_9">
    <path d="M 20.5625 684.92 
L 20.5625 386.16 
" style="fill: none; stroke: #000000; stroke-width: 0.8; stroke-linejoin: miter; stroke-linecap: square"/>
   </g>
   <g id="patch_10">
    <path d="M 702.136136 684.92 
L 702.136136 386.16 
" style="fill: none; stroke: #000000; stroke-width: 0.8; stroke-linejoin: miter; stroke-linecap: square"/>
   </g>
   <g id="patch_11">
    <path d="M 20.5625 684.92 
L 702.136136 684.92 
" style="fill: none; stroke: #000000; stroke-width: 0.8; stroke-linejoin: miter; stroke-linecap: square"/>
   </g>
   <g id="patch_12">
    <path d="M 20.5625 386.16 
L 702.136136 386.16 
" style="fill: none; stroke: #000000; stroke-width: 0.8; stroke-linejoin: miter; stroke-linecap: square"/>
   </g>
   <g id="text_27">
    <!-- 2 transformation(s) -->
    <g transform="translate(303.234631 380.16) scale(0.12 -0.12)">
     <use xlink:href="#DejaVuSans-32"/>
     <use xlink:href="#DejaVuSans-20" x="63.623047"/>
     <use xlink:href="#DejaVuSans-74" x="95.410156"/>
     <use xlink:href="#DejaVuSans-72" x="134.619141"/>
     <use xlink:href="#DejaVuSans-61" x="175.732422"/>
     <use xlink:href="#DejaVuSans-6e" x="237.011719"/>
     <use xlink:href="#DejaVuSans-73" x="300.390625"/>
     <use xlink:href="#DejaVuSans-66" x="352.490234"/>
     <use xlink:href="#DejaVuSans-6f" x="387.695312"/>
     <use xlink:href="#DejaVuSans-72" x="448.876953"/>
     <use xlink:href="#DejaVuSans-6d" x="488.240234"/>
     <use xlink:href="#DejaVuSans-61" x="585.652344"/>
     <use xlink:href="#DejaVuSans-74" x="646.931641"/>
     <use xlink:href="#DejaVuSans-69" x="686.140625"/>
     <use xlink:href="#DejaVuSans-6f" x="713.923828"/>
     <use xlink:href="#DejaVuSans-6e" x="775.105469"/>
     <use xlink:href="#DejaVuSans-28" x="838.484375"/>
     <use xlink:href="#DejaVuSans-73" x="877.498047"/>
     <use xlink:href="#DejaVuSans-29" x="929.597656"/>
    </g>
   </g>
  </g>
  <g id="text_28">
   <!-- training -->
   <g transform="translate(333.129063 16.318125) scale(0.12 -0.12)">
    <defs>
     <path id="DejaVuSans-67" d="M 2906 1791 
Q 2906 2416 2648 2759 
Q 2391 3103 1925 3103 
Q 1463 3103 1205 2759 
Q 947 2416 947 1791 
Q 947 1169 1205 825 
Q 1463 481 1925 481 
Q 2391 481 2648 825 
Q 2906 1169 2906 1791 
z
M 3481 434 
Q 3481 -459 3084 -895 
Q 2688 -1331 1869 -1331 
Q 1566 -1331 1297 -1286 
Q 1028 -1241 775 -1147 
L 775 -588 
Q 1028 -725 1275 -790 
Q 1522 -856 1778 -856 
Q 2344 -856 2625 -561 
Q 2906 -266 2906 331 
L 2906 616 
Q 2728 306 2450 153 
Q 2172 0 1784 0 
Q 1141 0 747 490 
Q 353 981 353 1791 
Q 353 2603 747 3093 
Q 1141 3584 1784 3584 
Q 2172 3584 2450 3431 
Q 2728 3278 2906 2969 
L 2906 3500 
L 3481 3500 
L 3481 434 
z
" transform="scale(0.015625)"/>
    </defs>
    <use xlink:href="#DejaVuSans-74"/>
    <use xlink:href="#DejaVuSans-72" x="39.208984"/>
    <use xlink:href="#DejaVuSans-61" x="80.322266"/>
    <use xlink:href="#DejaVuSans-69" x="141.601562"/>
    <use xlink:href="#DejaVuSans-6e" x="169.384766"/>
    <use xlink:href="#DejaVuSans-69" x="232.763672"/>
    <use xlink:href="#DejaVuSans-6e" x="260.546875"/>
    <use xlink:href="#DejaVuSans-67" x="323.925781"/>
   </g>
  </g>
 </g>
 <defs>
  <clipPath id="p6f49eeeefa">
   <rect x="20.5625" y="43.44" width="681.573636" height="298.76"/>
  </clipPath>
  <clipPath id="p71482b544e">
   <rect x="20.5625" y="386.16" width="681.573636" height="298.76"/>
  </clipPath>
 </defs>
</svg>
