<?xml version="1.0" encoding="utf-8" standalone="no"?>
<!DOCTYPE svg PUBLIC "-//W3C//DTD SVG 1.1//EN"
  "http://www.w3.org/Graphics/SVG/1.1/DTD/svg11.dtd">
<svg xmlns:xlink="http://www.w3.org/1999/xlink" width="712.863125pt" height="708.798125pt" viewBox="0 0 712.863125 708.798125" xmlns="http://www.w3.org/2000/svg" version="1.1">
 <metadata>
  <rdf:RDF xmlns:dc="http://purl.org/dc/elements/1.1/" xmlns:cc="http://creativecommons.org/ns#" xmlns:rdf="http://www.w3.org/1999/02/22-rdf-syntax-ns#">
   <cc:Work>
    <dc:type rdf:resource="http://purl.org/dc/dcmitype/StillImage"/>
    <dc:date>2023-07-25T14:02:22.914161</dc:date>
    <dc:format>image/svg+xml</dc:format>
    <dc:creator>
     <cc:Agent>
      <dc:title>Matplotlib v3.7.1, https://matplotlib.org/</dc:title>
     </cc:Agent>
    </dc:creator>
   </cc:Work>
  </rdf:RDF>
 </metadata>
 <defs>
  <style type="text/css">*{stroke-linejoin: round; stroke-linecap: butt}</style>
 </defs>
 <g id="figure_1">
  <g id="patch_1">
   <path d="M 0 708.798125 
L 712.863125 708.798125 
L 712.863125 0 
L 0 0 
z
" style="fill: #ffffff"/>
  </g>
  <g id="axes_1">
   <g id="patch_2">
    <path d="M 30.103125 342.2 
L 705.663125 342.2 
L 705.663125 43.44 
L 30.103125 43.44 
z
" style="fill: #ffffff"/>
   </g>
   <g id="matplotlib.axis_1">
    <g id="xtick_1">
     <g id="line2d_1">
      <defs>
       <path id="m7ca91f3f00" d="M 0 0 
L 0 3.5 
" style="stroke: #000000; stroke-width: 0.8"/>
      </defs>
      <g>
       <use xlink:href="#m7ca91f3f00" x="44.950269" y="342.2" style="stroke: #000000; stroke-width: 0.8"/>
      </g>
     </g>
     <g id="text_1">
      <!-- 2021-09-22 -->
      <g transform="translate(15.892457 356.798437) scale(0.1 -0.1)">
       <defs>
        <path id="DejaVuSans-32" d="M 1228 531 
L 3431 531 
L 3431 0 
L 469 0 
L 469 531 
Q 828 903 1448 1529 
Q 2069 2156 2228 2338 
Q 2531 2678 2651 2914 
Q 2772 3150 2772 3378 
Q 2772 3750 2511 3984 
Q 2250 4219 1831 4219 
Q 1534 4219 1204 4116 
Q 875 4013 500 3803 
L 500 4441 
Q 881 4594 1212 4672 
Q 1544 4750 1819 4750 
Q 2544 4750 2975 4387 
Q 3406 4025 3406 3419 
Q 3406 3131 3298 2873 
Q 3191 2616 2906 2266 
Q 2828 2175 2409 1742 
Q 1991 1309 1228 531 
z
" transform="scale(0.015625)"/>
        <path id="DejaVuSans-30" d="M 2034 4250 
Q 1547 4250 1301 3770 
Q 1056 3291 1056 2328 
Q 1056 1369 1301 889 
Q 1547 409 2034 409 
Q 2525 409 2770 889 
Q 3016 1369 3016 2328 
Q 3016 3291 2770 3770 
Q 2525 4250 2034 4250 
z
M 2034 4750 
Q 2819 4750 3233 4129 
Q 3647 3509 3647 2328 
Q 3647 1150 3233 529 
Q 2819 -91 2034 -91 
Q 1250 -91 836 529 
Q 422 1150 422 2328 
Q 422 3509 836 4129 
Q 1250 4750 2034 4750 
z
" transform="scale(0.015625)"/>
        <path id="DejaVuSans-31" d="M 794 531 
L 1825 531 
L 1825 4091 
L 703 3866 
L 703 4441 
L 1819 4666 
L 2450 4666 
L 2450 531 
L 3481 531 
L 3481 0 
L 794 0 
L 794 531 
z
" transform="scale(0.015625)"/>
        <path id="DejaVuSans-2d" d="M 313 2009 
L 1997 2009 
L 1997 1497 
L 313 1497 
L 313 2009 
z
" transform="scale(0.015625)"/>
        <path id="DejaVuSans-39" d="M 703 97 
L 703 672 
Q 941 559 1184 500 
Q 1428 441 1663 441 
Q 2288 441 2617 861 
Q 2947 1281 2994 2138 
Q 2813 1869 2534 1725 
Q 2256 1581 1919 1581 
Q 1219 1581 811 2004 
Q 403 2428 403 3163 
Q 403 3881 828 4315 
Q 1253 4750 1959 4750 
Q 2769 4750 3195 4129 
Q 3622 3509 3622 2328 
Q 3622 1225 3098 567 
Q 2575 -91 1691 -91 
Q 1453 -91 1209 -44 
Q 966 3 703 97 
z
M 1959 2075 
Q 2384 2075 2632 2365 
Q 2881 2656 2881 3163 
Q 2881 3666 2632 3958 
Q 2384 4250 1959 4250 
Q 1534 4250 1286 3958 
Q 1038 3666 1038 3163 
Q 1038 2656 1286 2365 
Q 1534 2075 1959 2075 
z
" transform="scale(0.015625)"/>
       </defs>
       <use xlink:href="#DejaVuSans-32"/>
       <use xlink:href="#DejaVuSans-30" x="63.623047"/>
       <use xlink:href="#DejaVuSans-32" x="127.246094"/>
       <use xlink:href="#DejaVuSans-31" x="190.869141"/>
       <use xlink:href="#DejaVuSans-2d" x="254.492188"/>
       <use xlink:href="#DejaVuSans-30" x="290.576172"/>
       <use xlink:href="#DejaVuSans-39" x="354.199219"/>
       <use xlink:href="#DejaVuSans-2d" x="417.822266"/>
       <use xlink:href="#DejaVuSans-32" x="453.90625"/>
       <use xlink:href="#DejaVuSans-32" x="517.529297"/>
      </g>
     </g>
    </g>
    <g id="xtick_2">
     <g id="line2d_2">
      <g>
       <use xlink:href="#m7ca91f3f00" x="185.736067" y="342.2" style="stroke: #000000; stroke-width: 0.8"/>
      </g>
     </g>
     <g id="text_2">
      <!-- 2021-10-01 -->
      <g transform="translate(156.678255 356.798437) scale(0.1 -0.1)">
       <use xlink:href="#DejaVuSans-32"/>
       <use xlink:href="#DejaVuSans-30" x="63.623047"/>
       <use xlink:href="#DejaVuSans-32" x="127.246094"/>
       <use xlink:href="#DejaVuSans-31" x="190.869141"/>
       <use xlink:href="#DejaVuSans-2d" x="254.492188"/>
       <use xlink:href="#DejaVuSans-31" x="290.576172"/>
       <use xlink:href="#DejaVuSans-30" x="354.199219"/>
       <use xlink:href="#DejaVuSans-2d" x="417.822266"/>
       <use xlink:href="#DejaVuSans-30" x="453.90625"/>
       <use xlink:href="#DejaVuSans-31" x="517.529297"/>
      </g>
     </g>
    </g>
    <g id="xtick_3">
     <g id="line2d_3">
      <g>
       <use xlink:href="#m7ca91f3f00" x="295.236132" y="342.2" style="stroke: #000000; stroke-width: 0.8"/>
      </g>
     </g>
     <g id="text_3">
      <!-- 2021-10-08 -->
      <g transform="translate(266.17832 356.798437) scale(0.1 -0.1)">
       <defs>
        <path id="DejaVuSans-38" d="M 2034 2216 
Q 1584 2216 1326 1975 
Q 1069 1734 1069 1313 
Q 1069 891 1326 650 
Q 1584 409 2034 409 
Q 2484 409 2743 651 
Q 3003 894 3003 1313 
Q 3003 1734 2745 1975 
Q 2488 2216 2034 2216 
z
M 1403 2484 
Q 997 2584 770 2862 
Q 544 3141 544 3541 
Q 544 4100 942 4425 
Q 1341 4750 2034 4750 
Q 2731 4750 3128 4425 
Q 3525 4100 3525 3541 
Q 3525 3141 3298 2862 
Q 3072 2584 2669 2484 
Q 3125 2378 3379 2068 
Q 3634 1759 3634 1313 
Q 3634 634 3220 271 
Q 2806 -91 2034 -91 
Q 1263 -91 848 271 
Q 434 634 434 1313 
Q 434 1759 690 2068 
Q 947 2378 1403 2484 
z
M 1172 3481 
Q 1172 3119 1398 2916 
Q 1625 2713 2034 2713 
Q 2441 2713 2670 2916 
Q 2900 3119 2900 3481 
Q 2900 3844 2670 4047 
Q 2441 4250 2034 4250 
Q 1625 4250 1398 4047 
Q 1172 3844 1172 3481 
z
" transform="scale(0.015625)"/>
       </defs>
       <use xlink:href="#DejaVuSans-32"/>
       <use xlink:href="#DejaVuSans-30" x="63.623047"/>
       <use xlink:href="#DejaVuSans-32" x="127.246094"/>
       <use xlink:href="#DejaVuSans-31" x="190.869141"/>
       <use xlink:href="#DejaVuSans-2d" x="254.492188"/>
       <use xlink:href="#DejaVuSans-31" x="290.576172"/>
       <use xlink:href="#DejaVuSans-30" x="354.199219"/>
       <use xlink:href="#DejaVuSans-2d" x="417.822266"/>
       <use xlink:href="#DejaVuSans-30" x="453.90625"/>
       <use xlink:href="#DejaVuSans-38" x="517.529297"/>
      </g>
     </g>
    </g>
    <g id="xtick_4">
     <g id="line2d_4">
      <g>
       <use xlink:href="#m7ca91f3f00" x="404.736198" y="342.2" style="stroke: #000000; stroke-width: 0.8"/>
      </g>
     </g>
     <g id="text_4">
      <!-- 2021-10-15 -->
      <g transform="translate(375.678385 356.798437) scale(0.1 -0.1)">
       <defs>
        <path id="DejaVuSans-35" d="M 691 4666 
L 3169 4666 
L 3169 4134 
L 1269 4134 
L 1269 2991 
Q 1406 3038 1543 3061 
Q 1681 3084 1819 3084 
Q 2600 3084 3056 2656 
Q 3513 2228 3513 1497 
Q 3513 744 3044 326 
Q 2575 -91 1722 -91 
Q 1428 -91 1123 -41 
Q 819 9 494 109 
L 494 744 
Q 775 591 1075 516 
Q 1375 441 1709 441 
Q 2250 441 2565 725 
Q 2881 1009 2881 1497 
Q 2881 1984 2565 2268 
Q 2250 2553 1709 2553 
Q 1456 2553 1204 2497 
Q 953 2441 691 2322 
L 691 4666 
z
" transform="scale(0.015625)"/>
       </defs>
       <use xlink:href="#DejaVuSans-32"/>
       <use xlink:href="#DejaVuSans-30" x="63.623047"/>
       <use xlink:href="#DejaVuSans-32" x="127.246094"/>
       <use xlink:href="#DejaVuSans-31" x="190.869141"/>
       <use xlink:href="#DejaVuSans-2d" x="254.492188"/>
       <use xlink:href="#DejaVuSans-31" x="290.576172"/>
       <use xlink:href="#DejaVuSans-30" x="354.199219"/>
       <use xlink:href="#DejaVuSans-2d" x="417.822266"/>
       <use xlink:href="#DejaVuSans-31" x="453.90625"/>
       <use xlink:href="#DejaVuSans-35" x="517.529297"/>
      </g>
     </g>
    </g>
    <g id="xtick_5">
     <g id="line2d_5">
      <g>
       <use xlink:href="#m7ca91f3f00" x="514.236263" y="342.2" style="stroke: #000000; stroke-width: 0.8"/>
      </g>
     </g>
     <g id="text_5">
      <!-- 2021-10-22 -->
      <g transform="translate(485.17845 356.798437) scale(0.1 -0.1)">
       <use xlink:href="#DejaVuSans-32"/>
       <use xlink:href="#DejaVuSans-30" x="63.623047"/>
       <use xlink:href="#DejaVuSans-32" x="127.246094"/>
       <use xlink:href="#DejaVuSans-31" x="190.869141"/>
       <use xlink:href="#DejaVuSans-2d" x="254.492188"/>
       <use xlink:href="#DejaVuSans-31" x="290.576172"/>
       <use xlink:href="#DejaVuSans-30" x="354.199219"/>
       <use xlink:href="#DejaVuSans-2d" x="417.822266"/>
       <use xlink:href="#DejaVuSans-32" x="453.90625"/>
       <use xlink:href="#DejaVuSans-32" x="517.529297"/>
      </g>
     </g>
    </g>
    <g id="xtick_6">
     <g id="line2d_6">
      <g>
       <use xlink:href="#m7ca91f3f00" x="670.664927" y="342.2" style="stroke: #000000; stroke-width: 0.8"/>
      </g>
     </g>
     <g id="text_6">
      <!-- 2021-11-01 -->
      <g transform="translate(641.607115 356.798437) scale(0.1 -0.1)">
       <use xlink:href="#DejaVuSans-32"/>
       <use xlink:href="#DejaVuSans-30" x="63.623047"/>
       <use xlink:href="#DejaVuSans-32" x="127.246094"/>
       <use xlink:href="#DejaVuSans-31" x="190.869141"/>
       <use xlink:href="#DejaVuSans-2d" x="254.492188"/>
       <use xlink:href="#DejaVuSans-31" x="290.576172"/>
       <use xlink:href="#DejaVuSans-31" x="354.199219"/>
       <use xlink:href="#DejaVuSans-2d" x="417.822266"/>
       <use xlink:href="#DejaVuSans-30" x="453.90625"/>
       <use xlink:href="#DejaVuSans-31" x="517.529297"/>
      </g>
     </g>
    </g>
   </g>
   <g id="matplotlib.axis_2">
    <g id="ytick_1">
     <g id="line2d_7">
      <defs>
       <path id="m57280eeae0" d="M 0 0 
L -3.5 0 
" style="stroke: #000000; stroke-width: 0.8"/>
      </defs>
      <g>
       <use xlink:href="#m57280eeae0" x="30.103125" y="311.991429" style="stroke: #000000; stroke-width: 0.8"/>
      </g>
     </g>
     <g id="text_7">
      <!-- 0.1 -->
      <g transform="translate(7.2 315.790647) scale(0.1 -0.1)">
       <defs>
        <path id="DejaVuSans-2e" d="M 684 794 
L 1344 794 
L 1344 0 
L 684 0 
L 684 794 
z
" transform="scale(0.015625)"/>
       </defs>
       <use xlink:href="#DejaVuSans-30"/>
       <use xlink:href="#DejaVuSans-2e" x="63.623047"/>
       <use xlink:href="#DejaVuSans-31" x="95.410156"/>
      </g>
     </g>
    </g>
    <g id="ytick_2">
     <g id="line2d_8">
      <g>
       <use xlink:href="#m57280eeae0" x="30.103125" y="256.562857" style="stroke: #000000; stroke-width: 0.8"/>
      </g>
     </g>
     <g id="text_8">
      <!-- 0.2 -->
      <g transform="translate(7.2 260.362076) scale(0.1 -0.1)">
       <use xlink:href="#DejaVuSans-30"/>
       <use xlink:href="#DejaVuSans-2e" x="63.623047"/>
       <use xlink:href="#DejaVuSans-32" x="95.410156"/>
      </g>
     </g>
    </g>
    <g id="ytick_3">
     <g id="line2d_9">
      <g>
       <use xlink:href="#m57280eeae0" x="30.103125" y="201.134286" style="stroke: #000000; stroke-width: 0.8"/>
      </g>
     </g>
     <g id="text_9">
      <!-- 0.3 -->
      <g transform="translate(7.2 204.933504) scale(0.1 -0.1)">
       <defs>
        <path id="DejaVuSans-33" d="M 2597 2516 
Q 3050 2419 3304 2112 
Q 3559 1806 3559 1356 
Q 3559 666 3084 287 
Q 2609 -91 1734 -91 
Q 1441 -91 1130 -33 
Q 819 25 488 141 
L 488 750 
Q 750 597 1062 519 
Q 1375 441 1716 441 
Q 2309 441 2620 675 
Q 2931 909 2931 1356 
Q 2931 1769 2642 2001 
Q 2353 2234 1838 2234 
L 1294 2234 
L 1294 2753 
L 1863 2753 
Q 2328 2753 2575 2939 
Q 2822 3125 2822 3475 
Q 2822 3834 2567 4026 
Q 2313 4219 1838 4219 
Q 1578 4219 1281 4162 
Q 984 4106 628 3988 
L 628 4550 
Q 988 4650 1302 4700 
Q 1616 4750 1894 4750 
Q 2613 4750 3031 4423 
Q 3450 4097 3450 3541 
Q 3450 3153 3228 2886 
Q 3006 2619 2597 2516 
z
" transform="scale(0.015625)"/>
       </defs>
       <use xlink:href="#DejaVuSans-30"/>
       <use xlink:href="#DejaVuSans-2e" x="63.623047"/>
       <use xlink:href="#DejaVuSans-33" x="95.410156"/>
      </g>
     </g>
    </g>
    <g id="ytick_4">
     <g id="line2d_10">
      <g>
       <use xlink:href="#m57280eeae0" x="30.103125" y="145.705714" style="stroke: #000000; stroke-width: 0.8"/>
      </g>
     </g>
     <g id="text_10">
      <!-- 0.4 -->
      <g transform="translate(7.2 149.504933) scale(0.1 -0.1)">
       <defs>
        <path id="DejaVuSans-34" d="M 2419 4116 
L 825 1625 
L 2419 1625 
L 2419 4116 
z
M 2253 4666 
L 3047 4666 
L 3047 1625 
L 3713 1625 
L 3713 1100 
L 3047 1100 
L 3047 0 
L 2419 0 
L 2419 1100 
L 313 1100 
L 313 1709 
L 2253 4666 
z
" transform="scale(0.015625)"/>
       </defs>
       <use xlink:href="#DejaVuSans-30"/>
       <use xlink:href="#DejaVuSans-2e" x="63.623047"/>
       <use xlink:href="#DejaVuSans-34" x="95.410156"/>
      </g>
     </g>
    </g>
    <g id="ytick_5">
     <g id="line2d_11">
      <g>
       <use xlink:href="#m57280eeae0" x="30.103125" y="90.277143" style="stroke: #000000; stroke-width: 0.8"/>
      </g>
     </g>
     <g id="text_11">
      <!-- 0.5 -->
      <g transform="translate(7.2 94.076362) scale(0.1 -0.1)">
       <use xlink:href="#DejaVuSans-30"/>
       <use xlink:href="#DejaVuSans-2e" x="63.623047"/>
       <use xlink:href="#DejaVuSans-35" x="95.410156"/>
      </g>
     </g>
    </g>
   </g>
   <g id="line2d_12">
    <path d="M 60.810398 323.077143 
L 64.232275 323.077143 
L 64.395221 317.534286 
L 65.3729 317.534286 
L 65.535847 311.991429 
L 65.698793 317.534286 
L 65.86174 317.534286 
L 66.024687 311.991429 
L 67.002366 311.991429 
L 67.165312 317.534286 
L 67.328259 317.534286 
L 67.491205 311.991429 
L 67.654152 317.534286 
L 67.980045 317.534286 
L 68.142991 311.991429 
L 68.468884 311.991429 
L 68.631831 317.534286 
L 68.794777 311.991429 
L 69.283617 311.991429 
L 69.446564 317.534286 
L 71.564868 317.534286 
L 71.727815 323.077143 
L 78.734516 323.077143 
L 78.897462 317.534286 
L 79.060409 317.534286 
L 79.223355 323.077143 
L 79.386302 323.077143 
L 79.549248 317.534286 
L 80.363981 317.534286 
L 80.526927 323.077143 
L 80.689874 317.534286 
L 89.163093 317.534286 
L 89.32604 323.077143 
L 89.488986 323.077143 
L 89.651933 317.534286 
L 89.814879 323.077143 
L 90.466665 323.077143 
L 90.629612 317.534286 
L 91.118451 317.534286 
L 91.281398 323.077143 
L 91.770238 323.077143 
L 91.933184 317.534286 
L 96.33274 317.534286 
L 96.495687 311.991429 
L 97.310419 311.991429 
L 97.473366 306.448571 
L 97.799259 306.448571 
L 97.962206 311.991429 
L 99.102831 311.991429 
L 99.265778 306.448571 
L 99.754617 306.448571 
L 99.917564 311.991429 
L 101.547029 311.991429 
L 101.709976 317.534286 
L 103.502387 317.534286 
L 103.665334 323.077143 
L 109.531409 323.077143 
L 109.694355 317.534286 
L 109.857302 323.077143 
L 110.020248 317.534286 
L 110.183195 317.534286 
L 110.346141 323.077143 
L 110.509088 317.534286 
L 112.953286 317.534286 
L 113.116232 311.991429 
L 115.397484 311.991429 
L 115.56043 317.534286 
L 119.634093 317.534286 
L 119.79704 323.077143 
L 121.100612 323.077143 
L 121.263559 317.534286 
L 121.589452 317.534286 
L 121.752398 323.077143 
L 121.915345 317.534286 
L 122.078291 323.077143 
L 123.707757 323.077143 
L 123.870703 317.534286 
L 130.551511 317.534286 
L 130.714457 311.991429 
L 131.04035 311.991429 
L 131.203297 317.534286 
L 135.765799 317.534286 
L 135.928746 323.077143 
L 138.861783 323.077143 
L 139.02473 317.534286 
L 139.187676 323.077143 
L 139.350623 317.534286 
L 139.839463 317.534286 
L 140.002409 323.077143 
L 140.165356 317.534286 
L 142.609554 317.534286 
L 142.7725 311.991429 
L 143.424286 311.991429 
L 143.587233 306.448571 
L 143.913126 306.448571 
L 144.076072 311.991429 
L 144.239019 311.991429 
L 144.401965 306.448571 
L 145.216698 306.448571 
L 145.379644 311.991429 
L 146.031431 311.991429 
L 146.194377 306.448571 
L 147.172056 306.448571 
L 147.335003 311.991429 
L 147.660896 311.991429 
L 147.823842 306.448571 
L 148.149735 306.448571 
L 148.312682 311.991429 
L 149.779201 311.991429 
L 149.942147 317.534286 
L 157.600634 317.534286 
L 157.76358 311.991429 
L 158.415366 311.991429 
L 158.578313 317.534286 
L 159.393046 317.534286 
L 159.555992 311.991429 
L 160.370725 311.991429 
L 160.533671 317.534286 
L 160.696618 311.991429 
L 162.651976 311.991429 
L 162.814923 317.534286 
L 162.977869 311.991429 
L 163.955548 311.991429 
L 164.118495 317.534286 
L 164.281441 311.991429 
L 164.933228 311.991429 
L 165.096174 317.534286 
L 165.74796 317.534286 
L 165.910907 311.991429 
L 166.073853 311.991429 
L 166.2368 317.534286 
L 167.866265 317.534286 
L 168.029211 206.677143 
L 168.355105 273.191429 
L 168.518051 295.362857 
L 168.680998 256.562857 
L 168.843944 251.02 
L 169.006891 267.648571 
L 169.332784 140.162857 
L 169.49573 206.677143 
L 169.821623 195.591429 
L 170.147516 234.391429 
L 170.473409 245.477143 
L 170.799302 245.477143 
L 170.962249 251.02 
L 171.125195 251.02 
L 171.288142 256.562857 
L 171.451089 256.562857 
L 171.614035 262.105714 
L 172.102875 262.105714 
L 172.265821 267.648571 
L 173.2435 267.648571 
L 173.406447 273.191429 
L 175.198859 273.191429 
L 175.361805 278.734286 
L 175.850645 278.734286 
L 176.013591 273.191429 
L 176.176538 278.734286 
L 176.665377 278.734286 
L 176.828324 284.277143 
L 176.99127 284.277143 
L 177.154217 278.734286 
L 177.806003 278.734286 
L 177.96895 284.277143 
L 178.294843 284.277143 
L 178.457789 289.82 
L 178.620736 289.82 
L 178.783682 284.277143 
L 179.109575 284.277143 
L 179.272522 289.82 
L 179.435468 289.82 
L 179.598415 295.362857 
L 179.761361 289.82 
L 179.924308 295.362857 
L 180.087254 289.82 
L 180.250201 295.362857 
L 181.22788 295.362857 
L 181.390827 300.905714 
L 185.301543 300.905714 
L 185.46449 306.448571 
L 185.627436 300.905714 
L 186.442169 300.905714 
L 186.605115 306.448571 
L 189.049313 306.448571 
L 189.21226 311.991429 
L 189.375206 306.448571 
L 198.337265 306.448571 
L 198.500212 311.991429 
L 204.20334 311.991429 
L 204.366287 306.448571 
L 206.321645 306.448571 
L 206.484592 300.905714 
L 206.647538 306.448571 
L 208.602896 306.448571 
L 208.765843 300.905714 
L 208.928789 306.448571 
L 212.024773 306.448571 
L 212.18772 311.991429 
L 215.609597 311.991429 
L 215.772543 317.534286 
L 216.750223 317.534286 
L 216.913169 311.991429 
L 221.801565 311.991429 
L 221.964511 306.448571 
L 222.127458 306.448571 
L 222.290404 311.991429 
L 222.453351 306.448571 
L 223.43103 306.448571 
L 223.593977 311.991429 
L 223.756923 306.448571 
L 224.245763 306.448571 
L 224.408709 311.991429 
L 224.571656 306.448571 
L 224.734602 311.991429 
L 225.223442 311.991429 
L 225.386388 306.448571 
L 225.549335 311.991429 
L 229.460052 311.991429 
L 229.622998 317.534286 
L 230.92657 317.534286 
L 231.089517 311.991429 
L 231.252463 317.534286 
L 232.393089 317.534286 
L 232.556036 311.991429 
L 232.718982 311.991429 
L 232.881929 317.534286 
L 233.370768 317.534286 
L 233.533715 311.991429 
L 239.562736 311.991429 
L 239.725683 306.448571 
L 240.703362 306.448571 
L 240.866308 311.991429 
L 241.192201 311.991429 
L 241.355148 306.448571 
L 242.332827 306.448571 
L 242.495774 311.991429 
L 245.265865 311.991429 
L 245.428811 317.534286 
L 248.035956 317.534286 
L 248.198902 311.991429 
L 252.109619 311.991429 
L 252.272565 306.448571 
L 254.064977 306.448571 
L 254.227923 300.905714 
L 254.39087 306.448571 
L 254.553817 300.905714 
L 254.716763 306.448571 
L 255.205603 306.448571 
L 255.368549 300.905714 
L 256.020335 300.905714 
L 256.183282 306.448571 
L 256.346228 300.905714 
L 256.835068 300.905714 
L 256.998014 306.448571 
L 258.464533 306.448571 
L 258.62748 311.991429 
L 261.234624 311.991429 
L 261.397571 317.534286 
L 265.471234 317.534286 
L 265.63418 311.991429 
L 270.522576 311.991429 
L 270.685523 306.448571 
L 270.848469 306.448571 
L 271.011416 311.991429 
L 271.174362 311.991429 
L 271.337309 306.448571 
L 271.500255 306.448571 
L 271.663202 311.991429 
L 271.826148 306.448571 
L 271.989095 311.991429 
L 272.640881 311.991429 
L 272.803827 306.448571 
L 272.966774 311.991429 
L 273.292667 311.991429 
L 273.455613 306.448571 
L 273.781507 306.448571 
L 273.944453 311.991429 
L 277.040437 311.991429 
L 277.203384 317.534286 
L 277.36633 317.534286 
L 277.529277 311.991429 
L 278.832849 311.991429 
L 278.995795 317.534286 
L 279.158742 311.991429 
L 282.906512 311.991429 
L 283.069458 306.448571 
L 285.513656 306.448571 
L 285.676603 300.905714 
L 285.839549 306.448571 
L 286.491336 306.448571 
L 286.654282 300.905714 
L 287.143122 300.905714 
L 287.306068 306.448571 
L 287.469015 300.905714 
L 287.631961 300.905714 
L 287.794908 306.448571 
L 287.957854 300.905714 
L 288.283747 300.905714 
L 288.446694 306.448571 
L 291.216785 306.448571 
L 291.379731 311.991429 
L 294.475715 311.991429 
L 294.638662 317.534286 
L 295.127501 317.534286 
L 295.290448 311.991429 
L 300.34179 311.991429 
L 300.504737 306.448571 
L 300.667683 311.991429 
L 301.482416 311.991429 
L 301.645362 306.448571 
L 302.460095 306.448571 
L 302.623042 311.991429 
L 302.785988 306.448571 
L 303.437774 306.448571 
L 303.600721 311.991429 
L 303.926614 311.991429 
L 304.08956 306.448571 
L 304.252507 306.448571 
L 304.415453 311.991429 
L 304.904293 311.991429 
L 305.067239 306.448571 
L 305.230186 311.991429 
L 308.81501 311.991429 
L 308.977956 306.448571 
L 309.140903 311.991429 
L 310.118582 311.991429 
L 310.281528 317.534286 
L 310.444475 317.534286 
L 310.607421 311.991429 
L 312.56278 311.991429 
L 312.725726 306.448571 
L 312.888673 306.448571 
L 313.051619 311.991429 
L 314.355191 311.991429 
L 314.681084 300.905714 
L 317.777068 300.905714 
L 317.940015 295.362857 
L 318.102961 295.362857 
L 318.265908 300.905714 
L 319.895373 300.905714 
L 320.05832 306.448571 
L 321.687785 306.448571 
L 321.850732 311.991429 
L 323.643143 311.991429 
L 323.80609 317.534286 
L 324.294929 317.534286 
L 324.457876 311.991429 
L 324.620822 311.991429 
L 324.783769 317.534286 
L 324.946716 311.991429 
L 325.924395 311.991429 
L 326.087341 317.534286 
L 326.413234 317.534286 
L 326.576181 311.991429 
L 331.464577 311.991429 
L 331.627523 306.448571 
L 333.256988 306.448571 
L 333.419935 311.991429 
L 333.582881 306.448571 
L 334.397614 306.448571 
L 334.560561 311.991429 
L 335.0494 311.991429 
L 335.212347 306.448571 
L 335.375293 311.991429 
L 345.477978 311.991429 
L 345.640924 306.448571 
L 345.803871 306.448571 
L 345.966817 311.991429 
L 347.433336 311.991429 
L 347.596283 306.448571 
L 348.085122 306.448571 
L 348.248069 311.991429 
L 349.062801 311.991429 
L 349.225748 306.448571 
L 350.366374 306.448571 
L 350.52932 311.991429 
L 350.692267 311.991429 
L 350.855213 306.448571 
L 352.810571 306.448571 
L 352.973518 311.991429 
L 353.136464 306.448571 
L 353.788251 306.448571 
L 353.951197 311.991429 
L 361.609684 311.991429 
L 361.77263 306.448571 
L 362.913256 306.448571 
L 363.076202 300.905714 
L 363.239149 306.448571 
L 363.890935 306.448571 
L 364.053882 300.905714 
L 364.216828 306.448571 
L 364.705668 306.448571 
L 364.868614 300.905714 
L 366.49808 300.905714 
L 366.661026 306.448571 
L 369.431117 306.448571 
L 369.594064 311.991429 
L 370.24585 311.991429 
L 370.408796 306.448571 
L 370.571743 311.991429 
L 381.00032 311.991429 
L 381.163267 317.534286 
L 381.326213 311.991429 
L 385.72577 311.991429 
L 385.888716 317.534286 
L 386.051663 311.991429 
L 386.540502 311.991429 
L 386.703449 317.534286 
L 386.866395 311.991429 
L 387.192288 311.991429 
L 387.355235 317.534286 
L 388.821754 317.534286 
L 388.9847 311.991429 
L 401.857476 311.991429 
L 402.020422 317.534286 
L 402.183369 311.991429 
L 415.70793 311.991429 
L 415.870877 306.448571 
L 416.033823 311.991429 
L 416.359716 311.991429 
L 416.522663 317.534286 
L 416.685609 311.991429 
L 416.848556 311.991429 
L 417.011502 317.534286 
L 419.94454 317.534286 
L 420.107486 311.991429 
L 420.270433 317.534286 
L 420.433379 317.534286 
L 420.596326 311.991429 
L 427.92892 311.991429 
L 428.091866 317.534286 
L 428.254813 311.991429 
L 428.417759 317.534286 
L 428.580706 317.534286 
L 428.743652 311.991429 
L 428.906599 317.534286 
L 429.232492 317.534286 
L 429.395438 311.991429 
L 429.558385 317.534286 
L 430.047224 317.534286 
L 430.210171 311.991429 
L 430.373118 311.991429 
L 430.536064 317.534286 
L 430.699011 311.991429 
L 430.861957 317.534286 
L 431.024904 311.991429 
L 433.306155 311.991429 
L 433.469102 317.534286 
L 433.794995 317.534286 
L 433.957941 311.991429 
L 434.120888 317.534286 
L 434.283834 311.991429 
L 434.446781 311.991429 
L 434.609727 317.534286 
L 434.93562 317.534286 
L 435.098567 311.991429 
L 435.42446 311.991429 
L 435.587406 317.534286 
L 435.750353 311.991429 
L 449.274914 311.991429 
L 449.437861 317.534286 
L 449.600808 311.991429 
L 449.763754 317.534286 
L 451.230273 317.534286 
L 451.393219 311.991429 
L 463.614209 311.991429 
L 463.777155 317.534286 
L 463.940102 311.991429 
L 464.103048 317.534286 
L 464.265995 317.534286 
L 464.428941 311.991429 
L 464.591888 317.534286 
L 465.406621 317.534286 
L 465.732514 306.448571 
L 467.199032 306.448571 
L 467.361979 311.991429 
L 470.783856 311.991429 
L 470.946802 317.534286 
L 471.109749 311.991429 
L 471.272695 317.534286 
L 471.435642 317.534286 
L 471.598588 311.991429 
L 471.761535 317.534286 
L 471.924482 317.534286 
L 472.087428 311.991429 
L 472.250375 317.534286 
L 472.576268 317.534286 
L 472.739214 311.991429 
L 472.902161 317.534286 
L 473.065107 311.991429 
L 473.228054 317.534286 
L 473.391 311.991429 
L 473.553947 317.534286 
L 473.716893 311.991429 
L 473.87984 317.534286 
L 474.042786 317.534286 
L 474.205733 311.991429 
L 474.368679 317.534286 
L 482.678952 317.534286 
L 482.841899 311.991429 
L 492.455744 311.991429 
L 492.61869 317.534286 
L 492.781637 317.534286 
L 492.944583 311.991429 
L 493.10753 317.534286 
L 493.270476 311.991429 
L 493.433423 317.534286 
L 493.596369 311.991429 
L 493.759316 311.991429 
L 493.922262 317.534286 
L 494.085209 317.534286 
L 494.248156 311.991429 
L 494.411102 317.534286 
L 494.899942 317.534286 
L 495.225835 306.448571 
L 495.551728 317.534286 
L 574.906686 317.534286 
L 575.069632 323.077143 
L 575.232579 317.534286 
L 578.328563 317.534286 
L 578.491509 311.991429 
L 579.306242 311.991429 
L 579.469188 317.534286 
L 588.594194 317.534286 
L 588.75714 323.077143 
L 588.920087 317.534286 
L 589.083033 317.534286 
L 589.24598 323.077143 
L 589.408926 323.077143 
L 589.571873 317.534286 
L 592.50491 317.534286 
L 592.667857 306.448571 
L 592.99375 112.448571 
L 593.156696 101.362857 
L 593.319643 134.62 
L 593.48259 123.534286 
L 593.808483 57.02 
L 593.971429 62.562857 
L 594.134376 62.562857 
L 594.623215 106.905714 
L 594.786162 106.905714 
L 594.949108 123.534286 
L 595.275001 123.534286 
L 595.437948 129.077143 
L 595.600894 123.534286 
L 596.74152 162.334286 
L 596.904467 173.42 
L 597.067413 173.42 
L 597.23036 178.962857 
L 597.393306 178.962857 
L 597.556253 184.505714 
L 597.719199 184.505714 
L 599.022771 228.848571 
L 599.185718 228.848571 
L 599.348664 234.391429 
L 599.674557 234.391429 
L 599.837504 239.934286 
L 600.163397 239.934286 
L 600.326344 245.477143 
L 600.97813 245.477143 
L 601.141076 251.02 
L 601.629916 251.02 
L 601.792862 256.562857 
L 602.118755 256.562857 
L 602.281702 262.105714 
L 602.933488 262.105714 
L 603.096435 267.648571 
L 604.074114 267.648571 
L 604.23706 262.105714 
L 604.400007 262.105714 
L 604.562953 267.648571 
L 605.051793 267.648571 
L 605.214739 273.191429 
L 605.377686 273.191429 
L 605.540632 278.734286 
L 606.192419 278.734286 
L 606.355365 284.277143 
L 607.333044 284.277143 
L 607.495991 289.82 
L 608.147777 289.82 
L 608.310723 295.362857 
L 610.266082 295.362857 
L 610.429028 300.905714 
L 612.547333 300.905714 
L 612.71028 306.448571 
L 612.873226 300.905714 
L 613.036173 306.448571 
L 616.783943 306.448571 
L 616.946889 311.991429 
L 618.902248 311.991429 
L 619.065194 306.448571 
L 619.228141 306.448571 
L 619.391087 311.991429 
L 620.042873 311.991429 
L 620.20582 317.534286 
L 625.257162 317.534286 
L 625.420109 323.077143 
L 629.167879 323.077143 
L 629.330825 328.62 
L 629.493772 328.62 
L 629.656718 323.077143 
L 629.819665 328.62 
L 636.011633 328.62 
L 636.174579 323.077143 
L 637.478151 323.077143 
L 637.641098 328.62 
L 637.804044 323.077143 
L 637.966991 328.62 
L 638.292884 328.62 
L 638.455831 323.077143 
L 639.43351 323.077143 
L 639.596456 328.62 
L 650.350927 328.62 
L 650.513873 323.077143 
L 650.67682 328.62 
L 651.16566 328.62 
L 651.491553 317.534286 
L 651.654499 323.077143 
L 651.817446 323.077143 
L 651.980392 317.534286 
L 652.143339 323.077143 
L 652.469232 323.077143 
L 652.632178 328.62 
L 653.93575 328.62 
L 654.098697 317.534286 
L 654.91343 317.534286 
L 655.239323 328.62 
L 657.357628 328.62 
L 657.520574 323.077143 
L 657.683521 328.62 
L 668.112098 328.62 
L 668.275045 323.077143 
L 670.556296 323.077143 
L 670.719243 328.62 
L 674.955852 328.62 
L 674.955852 328.62 
" clip-path="url(#p856019126d)" style="fill: none; stroke: #1f77b4; stroke-width: 1.5; stroke-linecap: square"/>
   </g>
   <g id="patch_3">
    <path d="M 30.103125 342.2 
L 30.103125 43.44 
" style="fill: none; stroke: #000000; stroke-width: 0.8; stroke-linejoin: miter; stroke-linecap: square"/>
   </g>
   <g id="patch_4">
    <path d="M 705.663125 342.2 
L 705.663125 43.44 
" style="fill: none; stroke: #000000; stroke-width: 0.8; stroke-linejoin: miter; stroke-linecap: square"/>
   </g>
   <g id="patch_5">
    <path d="M 30.103125 342.2 
L 705.663125 342.2 
" style="fill: none; stroke: #000000; stroke-width: 0.8; stroke-linejoin: miter; stroke-linecap: square"/>
   </g>
   <g id="patch_6">
    <path d="M 30.103125 43.44 
L 705.663125 43.44 
" style="fill: none; stroke: #000000; stroke-width: 0.8; stroke-linejoin: miter; stroke-linecap: square"/>
   </g>
   <g id="text_12">
    <!-- 1 transformation(s) -->
    <g transform="translate(309.768438 37.44) scale(0.12 -0.12)">
     <defs>
      <path id="DejaVuSans-20" transform="scale(0.015625)"/>
      <path id="DejaVuSans-74" d="M 1172 4494 
L 1172 3500 
L 2356 3500 
L 2356 3053 
L 1172 3053 
L 1172 1153 
Q 1172 725 1289 603 
Q 1406 481 1766 481 
L 2356 481 
L 2356 0 
L 1766 0 
Q 1100 0 847 248 
Q 594 497 594 1153 
L 594 3053 
L 172 3053 
L 172 3500 
L 594 3500 
L 594 4494 
L 1172 4494 
z
" transform="scale(0.015625)"/>
      <path id="DejaVuSans-72" d="M 2631 2963 
Q 2534 3019 2420 3045 
Q 2306 3072 2169 3072 
Q 1681 3072 1420 2755 
Q 1159 2438 1159 1844 
L 1159 0 
L 581 0 
L 581 3500 
L 1159 3500 
L 1159 2956 
Q 1341 3275 1631 3429 
Q 1922 3584 2338 3584 
Q 2397 3584 2469 3576 
Q 2541 3569 2628 3553 
L 2631 2963 
z
" transform="scale(0.015625)"/>
      <path id="DejaVuSans-61" d="M 2194 1759 
Q 1497 1759 1228 1600 
Q 959 1441 959 1056 
Q 959 750 1161 570 
Q 1363 391 1709 391 
Q 2188 391 2477 730 
Q 2766 1069 2766 1631 
L 2766 1759 
L 2194 1759 
z
M 3341 1997 
L 3341 0 
L 2766 0 
L 2766 531 
Q 2569 213 2275 61 
Q 1981 -91 1556 -91 
Q 1019 -91 701 211 
Q 384 513 384 1019 
Q 384 1609 779 1909 
Q 1175 2209 1959 2209 
L 2766 2209 
L 2766 2266 
Q 2766 2663 2505 2880 
Q 2244 3097 1772 3097 
Q 1472 3097 1187 3025 
Q 903 2953 641 2809 
L 641 3341 
Q 956 3463 1253 3523 
Q 1550 3584 1831 3584 
Q 2591 3584 2966 3190 
Q 3341 2797 3341 1997 
z
" transform="scale(0.015625)"/>
      <path id="DejaVuSans-6e" d="M 3513 2113 
L 3513 0 
L 2938 0 
L 2938 2094 
Q 2938 2591 2744 2837 
Q 2550 3084 2163 3084 
Q 1697 3084 1428 2787 
Q 1159 2491 1159 1978 
L 1159 0 
L 581 0 
L 581 3500 
L 1159 3500 
L 1159 2956 
Q 1366 3272 1645 3428 
Q 1925 3584 2291 3584 
Q 2894 3584 3203 3211 
Q 3513 2838 3513 2113 
z
" transform="scale(0.015625)"/>
      <path id="DejaVuSans-73" d="M 2834 3397 
L 2834 2853 
Q 2591 2978 2328 3040 
Q 2066 3103 1784 3103 
Q 1356 3103 1142 2972 
Q 928 2841 928 2578 
Q 928 2378 1081 2264 
Q 1234 2150 1697 2047 
L 1894 2003 
Q 2506 1872 2764 1633 
Q 3022 1394 3022 966 
Q 3022 478 2636 193 
Q 2250 -91 1575 -91 
Q 1294 -91 989 -36 
Q 684 19 347 128 
L 347 722 
Q 666 556 975 473 
Q 1284 391 1588 391 
Q 1994 391 2212 530 
Q 2431 669 2431 922 
Q 2431 1156 2273 1281 
Q 2116 1406 1581 1522 
L 1381 1569 
Q 847 1681 609 1914 
Q 372 2147 372 2553 
Q 372 3047 722 3315 
Q 1072 3584 1716 3584 
Q 2034 3584 2315 3537 
Q 2597 3491 2834 3397 
z
" transform="scale(0.015625)"/>
      <path id="DejaVuSans-66" d="M 2375 4863 
L 2375 4384 
L 1825 4384 
Q 1516 4384 1395 4259 
Q 1275 4134 1275 3809 
L 1275 3500 
L 2222 3500 
L 2222 3053 
L 1275 3053 
L 1275 0 
L 697 0 
L 697 3053 
L 147 3053 
L 147 3500 
L 697 3500 
L 697 3744 
Q 697 4328 969 4595 
Q 1241 4863 1831 4863 
L 2375 4863 
z
" transform="scale(0.015625)"/>
      <path id="DejaVuSans-6f" d="M 1959 3097 
Q 1497 3097 1228 2736 
Q 959 2375 959 1747 
Q 959 1119 1226 758 
Q 1494 397 1959 397 
Q 2419 397 2687 759 
Q 2956 1122 2956 1747 
Q 2956 2369 2687 2733 
Q 2419 3097 1959 3097 
z
M 1959 3584 
Q 2709 3584 3137 3096 
Q 3566 2609 3566 1747 
Q 3566 888 3137 398 
Q 2709 -91 1959 -91 
Q 1206 -91 779 398 
Q 353 888 353 1747 
Q 353 2609 779 3096 
Q 1206 3584 1959 3584 
z
" transform="scale(0.015625)"/>
      <path id="DejaVuSans-6d" d="M 3328 2828 
Q 3544 3216 3844 3400 
Q 4144 3584 4550 3584 
Q 5097 3584 5394 3201 
Q 5691 2819 5691 2113 
L 5691 0 
L 5113 0 
L 5113 2094 
Q 5113 2597 4934 2840 
Q 4756 3084 4391 3084 
Q 3944 3084 3684 2787 
Q 3425 2491 3425 1978 
L 3425 0 
L 2847 0 
L 2847 2094 
Q 2847 2600 2669 2842 
Q 2491 3084 2119 3084 
Q 1678 3084 1418 2786 
Q 1159 2488 1159 1978 
L 1159 0 
L 581 0 
L 581 3500 
L 1159 3500 
L 1159 2956 
Q 1356 3278 1631 3431 
Q 1906 3584 2284 3584 
Q 2666 3584 2933 3390 
Q 3200 3197 3328 2828 
z
" transform="scale(0.015625)"/>
      <path id="DejaVuSans-69" d="M 603 3500 
L 1178 3500 
L 1178 0 
L 603 0 
L 603 3500 
z
M 603 4863 
L 1178 4863 
L 1178 4134 
L 603 4134 
L 603 4863 
z
" transform="scale(0.015625)"/>
      <path id="DejaVuSans-28" d="M 1984 4856 
Q 1566 4138 1362 3434 
Q 1159 2731 1159 2009 
Q 1159 1288 1364 580 
Q 1569 -128 1984 -844 
L 1484 -844 
Q 1016 -109 783 600 
Q 550 1309 550 2009 
Q 550 2706 781 3412 
Q 1013 4119 1484 4856 
L 1984 4856 
z
" transform="scale(0.015625)"/>
      <path id="DejaVuSans-29" d="M 513 4856 
L 1013 4856 
Q 1481 4119 1714 3412 
Q 1947 2706 1947 2009 
Q 1947 1309 1714 600 
Q 1481 -109 1013 -844 
L 513 -844 
Q 928 -128 1133 580 
Q 1338 1288 1338 2009 
Q 1338 2731 1133 3434 
Q 928 4138 513 4856 
z
" transform="scale(0.015625)"/>
     </defs>
     <use xlink:href="#DejaVuSans-31"/>
     <use xlink:href="#DejaVuSans-20" x="63.623047"/>
     <use xlink:href="#DejaVuSans-74" x="95.410156"/>
     <use xlink:href="#DejaVuSans-72" x="134.619141"/>
     <use xlink:href="#DejaVuSans-61" x="175.732422"/>
     <use xlink:href="#DejaVuSans-6e" x="237.011719"/>
     <use xlink:href="#DejaVuSans-73" x="300.390625"/>
     <use xlink:href="#DejaVuSans-66" x="352.490234"/>
     <use xlink:href="#DejaVuSans-6f" x="387.695312"/>
     <use xlink:href="#DejaVuSans-72" x="448.876953"/>
     <use xlink:href="#DejaVuSans-6d" x="488.240234"/>
     <use xlink:href="#DejaVuSans-61" x="585.652344"/>
     <use xlink:href="#DejaVuSans-74" x="646.931641"/>
     <use xlink:href="#DejaVuSans-69" x="686.140625"/>
     <use xlink:href="#DejaVuSans-6f" x="713.923828"/>
     <use xlink:href="#DejaVuSans-6e" x="775.105469"/>
     <use xlink:href="#DejaVuSans-28" x="838.484375"/>
     <use xlink:href="#DejaVuSans-73" x="877.498047"/>
     <use xlink:href="#DejaVuSans-29" x="929.597656"/>
    </g>
   </g>
   <g id="legend_1">
    <g id="patch_7">
     <path d="M 620.302188 66.118125 
L 698.663125 66.118125 
Q 700.663125 66.118125 700.663125 64.118125 
L 700.663125 50.44 
Q 700.663125 48.44 698.663125 48.44 
L 620.302188 48.44 
Q 618.302188 48.44 618.302188 50.44 
L 618.302188 64.118125 
Q 618.302188 66.118125 620.302188 66.118125 
z
" style="fill: #ffffff; opacity: 0.8; stroke: #cccccc; stroke-linejoin: miter"/>
    </g>
    <g id="line2d_13">
     <path d="M 622.302188 56.538438 
L 632.302188 56.538438 
L 642.302188 56.538438 
" style="fill: none; stroke: #1f77b4; stroke-width: 1.5; stroke-linecap: square"/>
    </g>
    <g id="text_13">
     <!-- observed -->
     <g transform="translate(650.302188 60.038438) scale(0.1 -0.1)">
      <defs>
       <path id="DejaVuSans-62" d="M 3116 1747 
Q 3116 2381 2855 2742 
Q 2594 3103 2138 3103 
Q 1681 3103 1420 2742 
Q 1159 2381 1159 1747 
Q 1159 1113 1420 752 
Q 1681 391 2138 391 
Q 2594 391 2855 752 
Q 3116 1113 3116 1747 
z
M 1159 2969 
Q 1341 3281 1617 3432 
Q 1894 3584 2278 3584 
Q 2916 3584 3314 3078 
Q 3713 2572 3713 1747 
Q 3713 922 3314 415 
Q 2916 -91 2278 -91 
Q 1894 -91 1617 61 
Q 1341 213 1159 525 
L 1159 0 
L 581 0 
L 581 4863 
L 1159 4863 
L 1159 2969 
z
" transform="scale(0.015625)"/>
       <path id="DejaVuSans-65" d="M 3597 1894 
L 3597 1613 
L 953 1613 
Q 991 1019 1311 708 
Q 1631 397 2203 397 
Q 2534 397 2845 478 
Q 3156 559 3463 722 
L 3463 178 
Q 3153 47 2828 -22 
Q 2503 -91 2169 -91 
Q 1331 -91 842 396 
Q 353 884 353 1716 
Q 353 2575 817 3079 
Q 1281 3584 2069 3584 
Q 2775 3584 3186 3129 
Q 3597 2675 3597 1894 
z
M 3022 2063 
Q 3016 2534 2758 2815 
Q 2500 3097 2075 3097 
Q 1594 3097 1305 2825 
Q 1016 2553 972 2059 
L 3022 2063 
z
" transform="scale(0.015625)"/>
       <path id="DejaVuSans-76" d="M 191 3500 
L 800 3500 
L 1894 563 
L 2988 3500 
L 3597 3500 
L 2284 0 
L 1503 0 
L 191 3500 
z
" transform="scale(0.015625)"/>
       <path id="DejaVuSans-64" d="M 2906 2969 
L 2906 4863 
L 3481 4863 
L 3481 0 
L 2906 0 
L 2906 525 
Q 2725 213 2448 61 
Q 2172 -91 1784 -91 
Q 1150 -91 751 415 
Q 353 922 353 1747 
Q 353 2572 751 3078 
Q 1150 3584 1784 3584 
Q 2172 3584 2448 3432 
Q 2725 3281 2906 2969 
z
M 947 1747 
Q 947 1113 1208 752 
Q 1469 391 1925 391 
Q 2381 391 2643 752 
Q 2906 1113 2906 1747 
Q 2906 2381 2643 2742 
Q 2381 3103 1925 3103 
Q 1469 3103 1208 2742 
Q 947 2381 947 1747 
z
" transform="scale(0.015625)"/>
      </defs>
      <use xlink:href="#DejaVuSans-6f"/>
      <use xlink:href="#DejaVuSans-62" x="61.181641"/>
      <use xlink:href="#DejaVuSans-73" x="124.658203"/>
      <use xlink:href="#DejaVuSans-65" x="176.757812"/>
      <use xlink:href="#DejaVuSans-72" x="238.28125"/>
      <use xlink:href="#DejaVuSans-76" x="279.394531"/>
      <use xlink:href="#DejaVuSans-65" x="338.574219"/>
      <use xlink:href="#DejaVuSans-64" x="400.097656"/>
     </g>
    </g>
   </g>
  </g>
  <g id="axes_2">
   <g id="patch_8">
    <path d="M 30.103125 684.92 
L 705.663125 684.92 
L 705.663125 386.16 
L 30.103125 386.16 
z
" style="fill: #ffffff"/>
   </g>
   <g id="matplotlib.axis_3">
    <g id="xtick_7">
     <g id="line2d_14">
      <g>
       <use xlink:href="#m7ca91f3f00" x="44.950269" y="684.92" style="stroke: #000000; stroke-width: 0.8"/>
      </g>
     </g>
     <g id="text_14">
      <!-- 2021-09-22 -->
      <g transform="translate(15.892457 699.518437) scale(0.1 -0.1)">
       <use xlink:href="#DejaVuSans-32"/>
       <use xlink:href="#DejaVuSans-30" x="63.623047"/>
       <use xlink:href="#DejaVuSans-32" x="127.246094"/>
       <use xlink:href="#DejaVuSans-31" x="190.869141"/>
       <use xlink:href="#DejaVuSans-2d" x="254.492188"/>
       <use xlink:href="#DejaVuSans-30" x="290.576172"/>
       <use xlink:href="#DejaVuSans-39" x="354.199219"/>
       <use xlink:href="#DejaVuSans-2d" x="417.822266"/>
       <use xlink:href="#DejaVuSans-32" x="453.90625"/>
       <use xlink:href="#DejaVuSans-32" x="517.529297"/>
      </g>
     </g>
    </g>
    <g id="xtick_8">
     <g id="line2d_15">
      <g>
       <use xlink:href="#m7ca91f3f00" x="185.736067" y="684.92" style="stroke: #000000; stroke-width: 0.8"/>
      </g>
     </g>
     <g id="text_15">
      <!-- 2021-10-01 -->
      <g transform="translate(156.678255 699.518437) scale(0.1 -0.1)">
       <use xlink:href="#DejaVuSans-32"/>
       <use xlink:href="#DejaVuSans-30" x="63.623047"/>
       <use xlink:href="#DejaVuSans-32" x="127.246094"/>
       <use xlink:href="#DejaVuSans-31" x="190.869141"/>
       <use xlink:href="#DejaVuSans-2d" x="254.492188"/>
       <use xlink:href="#DejaVuSans-31" x="290.576172"/>
       <use xlink:href="#DejaVuSans-30" x="354.199219"/>
       <use xlink:href="#DejaVuSans-2d" x="417.822266"/>
       <use xlink:href="#DejaVuSans-30" x="453.90625"/>
       <use xlink:href="#DejaVuSans-31" x="517.529297"/>
      </g>
     </g>
    </g>
    <g id="xtick_9">
     <g id="line2d_16">
      <g>
       <use xlink:href="#m7ca91f3f00" x="295.236132" y="684.92" style="stroke: #000000; stroke-width: 0.8"/>
      </g>
     </g>
     <g id="text_16">
      <!-- 2021-10-08 -->
      <g transform="translate(266.17832 699.518437) scale(0.1 -0.1)">
       <use xlink:href="#DejaVuSans-32"/>
       <use xlink:href="#DejaVuSans-30" x="63.623047"/>
       <use xlink:href="#DejaVuSans-32" x="127.246094"/>
       <use xlink:href="#DejaVuSans-31" x="190.869141"/>
       <use xlink:href="#DejaVuSans-2d" x="254.492188"/>
       <use xlink:href="#DejaVuSans-31" x="290.576172"/>
       <use xlink:href="#DejaVuSans-30" x="354.199219"/>
       <use xlink:href="#DejaVuSans-2d" x="417.822266"/>
       <use xlink:href="#DejaVuSans-30" x="453.90625"/>
       <use xlink:href="#DejaVuSans-38" x="517.529297"/>
      </g>
     </g>
    </g>
    <g id="xtick_10">
     <g id="line2d_17">
      <g>
       <use xlink:href="#m7ca91f3f00" x="404.736198" y="684.92" style="stroke: #000000; stroke-width: 0.8"/>
      </g>
     </g>
     <g id="text_17">
      <!-- 2021-10-15 -->
      <g transform="translate(375.678385 699.518437) scale(0.1 -0.1)">
       <use xlink:href="#DejaVuSans-32"/>
       <use xlink:href="#DejaVuSans-30" x="63.623047"/>
       <use xlink:href="#DejaVuSans-32" x="127.246094"/>
       <use xlink:href="#DejaVuSans-31" x="190.869141"/>
       <use xlink:href="#DejaVuSans-2d" x="254.492188"/>
       <use xlink:href="#DejaVuSans-31" x="290.576172"/>
       <use xlink:href="#DejaVuSans-30" x="354.199219"/>
       <use xlink:href="#DejaVuSans-2d" x="417.822266"/>
       <use xlink:href="#DejaVuSans-31" x="453.90625"/>
       <use xlink:href="#DejaVuSans-35" x="517.529297"/>
      </g>
     </g>
    </g>
    <g id="xtick_11">
     <g id="line2d_18">
      <g>
       <use xlink:href="#m7ca91f3f00" x="514.236263" y="684.92" style="stroke: #000000; stroke-width: 0.8"/>
      </g>
     </g>
     <g id="text_18">
      <!-- 2021-10-22 -->
      <g transform="translate(485.17845 699.518437) scale(0.1 -0.1)">
       <use xlink:href="#DejaVuSans-32"/>
       <use xlink:href="#DejaVuSans-30" x="63.623047"/>
       <use xlink:href="#DejaVuSans-32" x="127.246094"/>
       <use xlink:href="#DejaVuSans-31" x="190.869141"/>
       <use xlink:href="#DejaVuSans-2d" x="254.492188"/>
       <use xlink:href="#DejaVuSans-31" x="290.576172"/>
       <use xlink:href="#DejaVuSans-30" x="354.199219"/>
       <use xlink:href="#DejaVuSans-2d" x="417.822266"/>
       <use xlink:href="#DejaVuSans-32" x="453.90625"/>
       <use xlink:href="#DejaVuSans-32" x="517.529297"/>
      </g>
     </g>
    </g>
    <g id="xtick_12">
     <g id="line2d_19">
      <g>
       <use xlink:href="#m7ca91f3f00" x="670.664927" y="684.92" style="stroke: #000000; stroke-width: 0.8"/>
      </g>
     </g>
     <g id="text_19">
      <!-- 2021-11-01 -->
      <g transform="translate(641.607115 699.518437) scale(0.1 -0.1)">
       <use xlink:href="#DejaVuSans-32"/>
       <use xlink:href="#DejaVuSans-30" x="63.623047"/>
       <use xlink:href="#DejaVuSans-32" x="127.246094"/>
       <use xlink:href="#DejaVuSans-31" x="190.869141"/>
       <use xlink:href="#DejaVuSans-2d" x="254.492188"/>
       <use xlink:href="#DejaVuSans-31" x="290.576172"/>
       <use xlink:href="#DejaVuSans-31" x="354.199219"/>
       <use xlink:href="#DejaVuSans-2d" x="417.822266"/>
       <use xlink:href="#DejaVuSans-30" x="453.90625"/>
       <use xlink:href="#DejaVuSans-31" x="517.529297"/>
      </g>
     </g>
    </g>
   </g>
   <g id="matplotlib.axis_4">
    <g id="ytick_6">
     <g id="line2d_20">
      <g>
       <use xlink:href="#m57280eeae0" x="30.103125" y="654.711429" style="stroke: #000000; stroke-width: 0.8"/>
      </g>
     </g>
     <g id="text_20">
      <!-- 0.1 -->
      <g transform="translate(7.2 658.510647) scale(0.1 -0.1)">
       <use xlink:href="#DejaVuSans-30"/>
       <use xlink:href="#DejaVuSans-2e" x="63.623047"/>
       <use xlink:href="#DejaVuSans-31" x="95.410156"/>
      </g>
     </g>
    </g>
    <g id="ytick_7">
     <g id="line2d_21">
      <g>
       <use xlink:href="#m57280eeae0" x="30.103125" y="599.282857" style="stroke: #000000; stroke-width: 0.8"/>
      </g>
     </g>
     <g id="text_21">
      <!-- 0.2 -->
      <g transform="translate(7.2 603.082076) scale(0.1 -0.1)">
       <use xlink:href="#DejaVuSans-30"/>
       <use xlink:href="#DejaVuSans-2e" x="63.623047"/>
       <use xlink:href="#DejaVuSans-32" x="95.410156"/>
      </g>
     </g>
    </g>
    <g id="ytick_8">
     <g id="line2d_22">
      <g>
       <use xlink:href="#m57280eeae0" x="30.103125" y="543.854286" style="stroke: #000000; stroke-width: 0.8"/>
      </g>
     </g>
     <g id="text_22">
      <!-- 0.3 -->
      <g transform="translate(7.2 547.653504) scale(0.1 -0.1)">
       <use xlink:href="#DejaVuSans-30"/>
       <use xlink:href="#DejaVuSans-2e" x="63.623047"/>
       <use xlink:href="#DejaVuSans-33" x="95.410156"/>
      </g>
     </g>
    </g>
    <g id="ytick_9">
     <g id="line2d_23">
      <g>
       <use xlink:href="#m57280eeae0" x="30.103125" y="488.425714" style="stroke: #000000; stroke-width: 0.8"/>
      </g>
     </g>
     <g id="text_23">
      <!-- 0.4 -->
      <g transform="translate(7.2 492.224933) scale(0.1 -0.1)">
       <use xlink:href="#DejaVuSans-30"/>
       <use xlink:href="#DejaVuSans-2e" x="63.623047"/>
       <use xlink:href="#DejaVuSans-34" x="95.410156"/>
      </g>
     </g>
    </g>
    <g id="ytick_10">
     <g id="line2d_24">
      <g>
       <use xlink:href="#m57280eeae0" x="30.103125" y="432.997143" style="stroke: #000000; stroke-width: 0.8"/>
      </g>
     </g>
     <g id="text_24">
      <!-- 0.5 -->
      <g transform="translate(7.2 436.796362) scale(0.1 -0.1)">
       <use xlink:href="#DejaVuSans-30"/>
       <use xlink:href="#DejaVuSans-2e" x="63.623047"/>
       <use xlink:href="#DejaVuSans-35" x="95.410156"/>
      </g>
     </g>
    </g>
   </g>
   <g id="line2d_25">
    <path d="M 60.810398 665.797143 
L 64.232275 665.797143 
L 64.395221 660.254286 
L 65.3729 660.254286 
L 65.535847 654.711429 
L 65.698793 660.254286 
L 65.86174 660.254286 
L 66.024687 654.711429 
L 67.002366 654.711429 
L 67.165312 660.254286 
L 67.328259 660.254286 
L 67.491205 654.711429 
L 67.654152 660.254286 
L 67.980045 660.254286 
L 68.142991 654.711429 
L 68.468884 654.711429 
L 68.631831 660.254286 
L 68.794777 654.711429 
L 69.283617 654.711429 
L 69.446564 660.254286 
L 71.564868 660.254286 
L 71.727815 665.797143 
L 78.734516 665.797143 
L 78.897462 660.254286 
L 79.060409 660.254286 
L 79.223355 665.797143 
L 79.386302 665.797143 
L 79.549248 660.254286 
L 80.363981 660.254286 
L 80.526927 665.797143 
L 80.689874 660.254286 
L 89.163093 660.254286 
L 89.32604 665.797143 
L 89.488986 665.797143 
L 89.651933 660.254286 
L 89.814879 665.797143 
L 90.466665 665.797143 
L 90.629612 660.254286 
L 91.118451 660.254286 
L 91.281398 665.797143 
L 91.770238 665.797143 
L 91.933184 660.254286 
L 96.33274 660.254286 
L 96.495687 654.711429 
L 97.310419 654.711429 
L 97.473366 649.168571 
L 97.799259 649.168571 
L 97.962206 654.711429 
L 99.102831 654.711429 
L 99.265778 649.168571 
L 99.754617 649.168571 
L 99.917564 654.711429 
L 101.547029 654.711429 
L 101.709976 660.254286 
L 103.502387 660.254286 
L 103.665334 665.797143 
L 109.531409 665.797143 
L 109.694355 660.254286 
L 109.857302 665.797143 
L 110.020248 660.254286 
L 110.183195 660.254286 
L 110.346141 665.797143 
L 110.509088 660.254286 
L 112.953286 660.254286 
L 113.116232 654.711429 
L 115.397484 654.711429 
L 115.56043 660.254286 
L 119.634093 660.254286 
L 119.79704 665.797143 
L 121.100612 665.797143 
L 121.263559 660.254286 
L 121.589452 660.254286 
L 121.752398 665.797143 
L 121.915345 660.254286 
L 122.078291 665.797143 
L 123.707757 665.797143 
L 123.870703 660.254286 
L 130.551511 660.254286 
L 130.714457 654.711429 
L 131.04035 654.711429 
L 131.203297 660.254286 
L 135.765799 660.254286 
L 135.928746 665.797143 
L 138.861783 665.797143 
L 139.02473 660.254286 
L 139.187676 665.797143 
L 139.350623 660.254286 
L 139.839463 660.254286 
L 140.002409 665.797143 
L 140.165356 660.254286 
L 142.609554 660.254286 
L 142.7725 654.711429 
L 143.424286 654.711429 
L 143.587233 649.168571 
L 143.913126 649.168571 
L 144.076072 654.711429 
L 144.239019 654.711429 
L 144.401965 649.168571 
L 145.216698 649.168571 
L 145.379644 654.711429 
L 146.031431 654.711429 
L 146.194377 649.168571 
L 147.172056 649.168571 
L 147.335003 654.711429 
L 147.660896 654.711429 
L 147.823842 649.168571 
L 148.149735 649.168571 
L 148.312682 654.711429 
L 149.779201 654.711429 
L 149.942147 660.254286 
L 157.600634 660.254286 
L 157.76358 654.711429 
L 158.415366 654.711429 
L 158.578313 660.254286 
L 159.393046 660.254286 
L 159.555992 654.711429 
L 160.370725 654.711429 
L 160.533671 660.254286 
L 160.696618 654.711429 
L 162.651976 654.711429 
L 162.814923 660.254286 
L 162.977869 654.711429 
L 163.955548 654.711429 
L 164.118495 660.254286 
L 164.281441 654.711429 
L 164.933228 654.711429 
L 165.096174 660.254286 
L 165.74796 660.254286 
L 165.910907 654.711429 
L 166.073853 654.711429 
L 166.2368 660.254286 
L 167.866265 660.254286 
L 168.029211 549.397143 
L 168.355105 615.911429 
L 168.518051 638.082857 
L 168.680998 599.282857 
L 168.843944 593.74 
L 169.006891 610.368571 
L 169.332784 482.882857 
L 169.49573 549.397143 
L 169.821623 538.311429 
L 170.147516 577.111429 
L 170.473409 588.197143 
L 170.799302 588.197143 
L 170.962249 593.74 
L 171.125195 593.74 
L 171.288142 599.282857 
L 171.451089 599.282857 
L 171.614035 604.825714 
L 172.102875 604.825714 
L 172.265821 610.368571 
L 173.2435 610.368571 
L 173.406447 615.911429 
L 175.198859 615.911429 
L 175.361805 621.454286 
L 175.850645 621.454286 
L 176.013591 615.911429 
L 176.176538 621.454286 
L 176.665377 621.454286 
L 176.828324 626.997143 
L 176.99127 626.997143 
L 177.154217 621.454286 
L 177.806003 621.454286 
L 177.96895 626.997143 
L 178.294843 626.997143 
L 178.457789 632.54 
L 178.620736 632.54 
L 178.783682 626.997143 
L 179.109575 626.997143 
L 179.272522 632.54 
L 179.435468 632.54 
L 179.598415 638.082857 
L 179.761361 632.54 
L 179.924308 638.082857 
L 180.087254 632.54 
L 180.250201 638.082857 
L 181.22788 638.082857 
L 181.390827 643.625714 
L 185.301543 643.625714 
L 185.46449 649.168571 
L 185.627436 643.625714 
L 186.442169 643.625714 
L 186.605115 649.168571 
L 189.049313 649.168571 
L 189.21226 654.711429 
L 189.375206 649.168571 
L 198.337265 649.168571 
L 198.500212 654.711429 
L 204.20334 654.711429 
L 204.366287 649.168571 
L 206.321645 649.168571 
L 206.484592 643.625714 
L 206.647538 649.168571 
L 208.602896 649.168571 
L 208.765843 643.625714 
L 208.928789 649.168571 
L 212.024773 649.168571 
L 212.18772 654.711429 
L 215.609597 654.711429 
L 215.772543 660.254286 
L 216.750223 660.254286 
L 216.913169 654.711429 
L 221.801565 654.711429 
L 221.964511 649.168571 
L 222.127458 649.168571 
L 222.290404 654.711429 
L 222.453351 649.168571 
L 223.43103 649.168571 
L 223.593977 654.711429 
L 223.756923 649.168571 
L 224.245763 649.168571 
L 224.408709 654.711429 
L 224.571656 649.168571 
L 224.734602 654.711429 
L 225.223442 654.711429 
L 225.386388 649.168571 
L 225.549335 654.711429 
L 229.460052 654.711429 
L 229.622998 660.254286 
L 230.92657 660.254286 
L 231.089517 654.711429 
L 231.252463 660.254286 
L 232.393089 660.254286 
L 232.556036 654.711429 
L 232.718982 654.711429 
L 232.881929 660.254286 
L 233.370768 660.254286 
L 233.533715 654.711429 
L 239.562736 654.711429 
L 239.725683 649.168571 
L 240.703362 649.168571 
L 240.866308 654.711429 
L 241.192201 654.711429 
L 241.355148 649.168571 
L 242.332827 649.168571 
L 242.495774 654.711429 
L 245.265865 654.711429 
L 245.428811 660.254286 
L 248.035956 660.254286 
L 248.198902 654.711429 
L 252.109619 654.711429 
L 252.272565 649.168571 
L 254.064977 649.168571 
L 254.227923 643.625714 
L 254.39087 649.168571 
L 254.553817 643.625714 
L 254.716763 649.168571 
L 255.205603 649.168571 
L 255.368549 643.625714 
L 256.020335 643.625714 
L 256.183282 649.168571 
L 256.346228 643.625714 
L 256.835068 643.625714 
L 256.998014 649.168571 
L 258.464533 649.168571 
L 258.62748 654.711429 
L 261.234624 654.711429 
L 261.397571 660.254286 
L 265.471234 660.254286 
L 265.63418 654.711429 
L 270.522576 654.711429 
L 270.685523 649.168571 
L 270.848469 649.168571 
L 271.011416 654.711429 
L 271.174362 654.711429 
L 271.337309 649.168571 
L 271.500255 649.168571 
L 271.663202 654.711429 
L 271.826148 649.168571 
L 271.989095 654.711429 
L 272.640881 654.711429 
L 272.803827 649.168571 
L 272.966774 654.711429 
L 273.292667 654.711429 
L 273.455613 649.168571 
L 273.781507 649.168571 
L 273.944453 654.711429 
L 277.040437 654.711429 
L 277.203384 660.254286 
L 277.36633 660.254286 
L 277.529277 654.711429 
L 278.832849 654.711429 
L 278.995795 660.254286 
L 279.158742 654.711429 
L 282.906512 654.711429 
L 283.069458 649.168571 
L 285.513656 649.168571 
L 285.676603 643.625714 
L 285.839549 649.168571 
L 286.491336 649.168571 
L 286.654282 643.625714 
L 287.143122 643.625714 
L 287.306068 649.168571 
L 287.469015 643.625714 
L 287.631961 643.625714 
L 287.794908 649.168571 
L 287.957854 643.625714 
L 288.283747 643.625714 
L 288.446694 649.168571 
L 291.216785 649.168571 
L 291.379731 654.711429 
L 294.475715 654.711429 
L 294.638662 660.254286 
L 295.127501 660.254286 
L 295.290448 654.711429 
L 300.34179 654.711429 
L 300.504737 649.168571 
L 300.667683 654.711429 
L 301.482416 654.711429 
L 301.645362 649.168571 
L 302.460095 649.168571 
L 302.623042 654.711429 
L 302.785988 649.168571 
L 303.437774 649.168571 
L 303.600721 654.711429 
L 303.926614 654.711429 
L 304.08956 649.168571 
L 304.252507 649.168571 
L 304.415453 654.711429 
L 304.904293 654.711429 
L 305.067239 649.168571 
L 305.230186 654.711429 
L 308.81501 654.711429 
L 308.977956 649.168571 
L 309.140903 654.711429 
L 310.118582 654.711429 
L 310.281528 660.254286 
L 310.444475 660.254286 
L 310.607421 654.711429 
L 312.56278 654.711429 
L 312.725726 649.168571 
L 312.888673 649.168571 
L 313.051619 654.711429 
L 314.355191 654.711429 
L 314.681084 643.625714 
L 317.777068 643.625714 
L 317.940015 638.082857 
L 318.102961 638.082857 
L 318.265908 643.625714 
L 319.895373 643.625714 
L 320.05832 649.168571 
L 321.687785 649.168571 
L 321.850732 654.711429 
L 323.643143 654.711429 
L 323.80609 660.254286 
L 324.294929 660.254286 
L 324.457876 654.711429 
L 324.620822 654.711429 
L 324.783769 660.254286 
L 324.946716 654.711429 
L 325.924395 654.711429 
L 326.087341 660.254286 
L 326.413234 660.254286 
L 326.576181 654.711429 
L 331.464577 654.711429 
L 331.627523 649.168571 
L 333.256988 649.168571 
L 333.419935 654.711429 
L 333.582881 649.168571 
L 334.397614 649.168571 
L 334.560561 654.711429 
L 335.0494 654.711429 
L 335.212347 649.168571 
L 335.375293 654.711429 
L 345.477978 654.711429 
L 345.640924 649.168571 
L 345.803871 649.168571 
L 345.966817 654.711429 
L 347.433336 654.711429 
L 347.596283 649.168571 
L 348.085122 649.168571 
L 348.248069 654.711429 
L 349.062801 654.711429 
L 349.225748 649.168571 
L 350.366374 649.168571 
L 350.52932 654.711429 
L 350.692267 654.711429 
L 350.855213 649.168571 
L 352.810571 649.168571 
L 352.973518 654.711429 
L 353.136464 649.168571 
L 353.788251 649.168571 
L 353.951197 654.711429 
L 361.609684 654.711429 
L 361.77263 649.168571 
L 362.913256 649.168571 
L 363.076202 643.625714 
L 363.239149 649.168571 
L 363.890935 649.168571 
L 364.053882 643.625714 
L 364.216828 649.168571 
L 364.705668 649.168571 
L 364.868614 643.625714 
L 366.49808 643.625714 
L 366.661026 649.168571 
L 369.431117 649.168571 
L 369.594064 654.711429 
L 370.24585 654.711429 
L 370.408796 649.168571 
L 370.571743 654.711429 
L 381.00032 654.711429 
L 381.163267 660.254286 
L 381.326213 654.711429 
L 385.72577 654.711429 
L 385.888716 660.254286 
L 386.051663 654.711429 
L 386.540502 654.711429 
L 386.703449 660.254286 
L 386.866395 654.711429 
L 387.192288 654.711429 
L 387.355235 660.254286 
L 388.821754 660.254286 
L 388.9847 654.711429 
L 401.857476 654.711429 
L 402.020422 660.254286 
L 402.183369 654.711429 
L 415.70793 654.711429 
L 415.870877 649.168571 
L 416.033823 654.711429 
L 416.359716 654.711429 
L 416.522663 660.254286 
L 416.685609 654.711429 
L 416.848556 654.711429 
L 417.011502 660.254286 
L 419.94454 660.254286 
L 420.107486 654.711429 
L 420.270433 660.254286 
L 420.433379 660.254286 
L 420.596326 654.711429 
L 427.92892 654.711429 
L 428.091866 660.254286 
L 428.254813 654.711429 
L 428.417759 660.254286 
L 428.580706 660.254286 
L 428.743652 654.711429 
L 428.906599 660.254286 
L 429.232492 660.254286 
L 429.395438 654.711429 
L 429.558385 660.254286 
L 430.047224 660.254286 
L 430.210171 654.711429 
L 430.373118 654.711429 
L 430.536064 660.254286 
L 430.699011 654.711429 
L 430.861957 660.254286 
L 431.024904 654.711429 
L 433.306155 654.711429 
L 433.469102 660.254286 
L 433.794995 660.254286 
L 433.957941 654.711429 
L 434.120888 660.254286 
L 434.283834 654.711429 
L 434.446781 654.711429 
L 434.609727 660.254286 
L 434.93562 660.254286 
L 435.098567 654.711429 
L 435.42446 654.711429 
L 435.587406 660.254286 
L 435.750353 654.711429 
L 449.274914 654.711429 
L 449.437861 660.254286 
L 449.600808 654.711429 
L 449.763754 660.254286 
L 451.230273 660.254286 
L 451.393219 654.711429 
L 463.614209 654.711429 
L 463.777155 660.254286 
L 463.940102 654.711429 
L 464.103048 660.254286 
L 464.265995 660.254286 
L 464.428941 654.711429 
L 464.591888 660.254286 
L 465.406621 660.254286 
L 465.732514 649.168571 
L 467.199032 649.168571 
L 467.361979 654.711429 
L 470.783856 654.711429 
L 470.946802 660.254286 
L 471.109749 654.711429 
L 471.272695 660.254286 
L 471.435642 660.254286 
L 471.598588 654.711429 
L 471.761535 660.254286 
L 471.924482 660.254286 
L 472.087428 654.711429 
L 472.250375 660.254286 
L 472.576268 660.254286 
L 472.739214 654.711429 
L 472.902161 660.254286 
L 473.065107 654.711429 
L 473.228054 660.254286 
L 473.391 654.711429 
L 473.553947 660.254286 
L 473.716893 654.711429 
L 473.87984 660.254286 
L 474.042786 660.254286 
L 474.205733 654.711429 
L 474.368679 660.254286 
L 482.678952 660.254286 
L 482.841899 654.711429 
L 492.455744 654.711429 
L 492.61869 660.254286 
L 492.781637 660.254286 
L 492.944583 654.711429 
L 493.10753 660.254286 
L 493.270476 654.711429 
L 493.433423 660.254286 
L 493.596369 654.711429 
L 493.759316 654.711429 
L 493.922262 660.254286 
L 494.085209 660.254286 
L 494.248156 654.711429 
L 494.411102 660.254286 
L 494.899942 660.254286 
L 495.225835 649.168571 
L 495.551728 660.254286 
L 574.906686 660.254286 
L 575.069632 665.797143 
L 575.232579 660.254286 
L 578.328563 660.254286 
L 578.491509 654.711429 
L 579.306242 654.711429 
L 579.469188 660.254286 
L 588.594194 660.254286 
L 588.75714 665.797143 
L 588.920087 660.254286 
L 589.083033 660.254286 
L 589.24598 665.797143 
L 589.408926 665.797143 
L 589.571873 660.254286 
L 592.50491 660.254286 
L 592.667857 649.168571 
L 592.99375 455.168571 
L 593.156696 444.082857 
L 593.319643 477.34 
L 593.48259 466.254286 
L 593.808483 399.74 
L 593.971429 405.282857 
L 594.134376 405.282857 
L 594.623215 449.625714 
L 594.786162 449.625714 
L 594.949108 466.254286 
L 595.275001 466.254286 
L 595.437948 471.797143 
L 595.600894 466.254286 
L 596.74152 505.054286 
L 596.904467 516.14 
L 597.067413 516.14 
L 597.23036 521.682857 
L 597.393306 521.682857 
L 597.556253 527.225714 
L 597.719199 527.225714 
L 599.022771 571.568571 
L 599.185718 571.568571 
L 599.348664 577.111429 
L 599.674557 577.111429 
L 599.837504 582.654286 
L 600.163397 582.654286 
L 600.326344 588.197143 
L 600.97813 588.197143 
L 601.141076 593.74 
L 601.629916 593.74 
L 601.792862 599.282857 
L 602.118755 599.282857 
L 602.281702 604.825714 
L 602.933488 604.825714 
L 603.096435 610.368571 
L 604.074114 610.368571 
L 604.23706 604.825714 
L 604.400007 604.825714 
L 604.562953 610.368571 
L 605.051793 610.368571 
L 605.214739 615.911429 
L 605.377686 615.911429 
L 605.540632 621.454286 
L 606.192419 621.454286 
L 606.355365 626.997143 
L 607.333044 626.997143 
L 607.495991 632.54 
L 608.147777 632.54 
L 608.310723 638.082857 
L 610.266082 638.082857 
L 610.429028 643.625714 
L 612.547333 643.625714 
L 612.71028 649.168571 
L 612.873226 643.625714 
L 613.036173 649.168571 
L 616.783943 649.168571 
L 616.946889 654.711429 
L 618.902248 654.711429 
L 619.065194 649.168571 
L 619.228141 649.168571 
L 619.391087 654.711429 
L 620.042873 654.711429 
L 620.20582 660.254286 
L 625.257162 660.254286 
L 625.420109 665.797143 
L 629.167879 665.797143 
L 629.330825 671.34 
L 629.493772 671.34 
L 629.656718 665.797143 
L 629.819665 671.34 
L 636.011633 671.34 
L 636.174579 665.797143 
L 637.478151 665.797143 
L 637.641098 671.34 
L 637.804044 665.797143 
L 637.966991 671.34 
L 638.292884 671.34 
L 638.455831 665.797143 
L 639.43351 665.797143 
L 639.596456 671.34 
L 650.350927 671.34 
L 650.513873 665.797143 
L 650.67682 671.34 
L 651.16566 671.34 
L 651.491553 660.254286 
L 651.654499 665.797143 
L 651.817446 665.797143 
L 651.980392 660.254286 
L 652.143339 665.797143 
L 652.469232 665.797143 
L 652.632178 671.34 
L 653.93575 671.34 
L 654.098697 660.254286 
L 654.91343 660.254286 
L 655.239323 671.34 
L 657.357628 671.34 
L 657.520574 665.797143 
L 657.683521 671.34 
L 668.112098 671.34 
L 668.275045 665.797143 
L 670.556296 665.797143 
L 670.719243 671.34 
L 674.955852 671.34 
L 674.955852 671.34 
" clip-path="url(#p4fff65c954)" style="fill: none; stroke: #1f77b4; stroke-width: 1.5; stroke-linecap: square"/>
   </g>
   <g id="patch_9">
    <path d="M 30.103125 684.92 
L 30.103125 386.16 
" style="fill: none; stroke: #000000; stroke-width: 0.8; stroke-linejoin: miter; stroke-linecap: square"/>
   </g>
   <g id="patch_10">
    <path d="M 705.663125 684.92 
L 705.663125 386.16 
" style="fill: none; stroke: #000000; stroke-width: 0.8; stroke-linejoin: miter; stroke-linecap: square"/>
   </g>
   <g id="patch_11">
    <path d="M 30.103125 684.92 
L 705.663125 684.92 
" style="fill: none; stroke: #000000; stroke-width: 0.8; stroke-linejoin: miter; stroke-linecap: square"/>
   </g>
   <g id="patch_12">
    <path d="M 30.103125 386.16 
L 705.663125 386.16 
" style="fill: none; stroke: #000000; stroke-width: 0.8; stroke-linejoin: miter; stroke-linecap: square"/>
   </g>
   <g id="text_25">
    <!-- 2 transformation(s) -->
    <g transform="translate(309.768438 380.16) scale(0.12 -0.12)">
     <use xlink:href="#DejaVuSans-32"/>
     <use xlink:href="#DejaVuSans-20" x="63.623047"/>
     <use xlink:href="#DejaVuSans-74" x="95.410156"/>
     <use xlink:href="#DejaVuSans-72" x="134.619141"/>
     <use xlink:href="#DejaVuSans-61" x="175.732422"/>
     <use xlink:href="#DejaVuSans-6e" x="237.011719"/>
     <use xlink:href="#DejaVuSans-73" x="300.390625"/>
     <use xlink:href="#DejaVuSans-66" x="352.490234"/>
     <use xlink:href="#DejaVuSans-6f" x="387.695312"/>
     <use xlink:href="#DejaVuSans-72" x="448.876953"/>
     <use xlink:href="#DejaVuSans-6d" x="488.240234"/>
     <use xlink:href="#DejaVuSans-61" x="585.652344"/>
     <use xlink:href="#DejaVuSans-74" x="646.931641"/>
     <use xlink:href="#DejaVuSans-69" x="686.140625"/>
     <use xlink:href="#DejaVuSans-6f" x="713.923828"/>
     <use xlink:href="#DejaVuSans-6e" x="775.105469"/>
     <use xlink:href="#DejaVuSans-28" x="838.484375"/>
     <use xlink:href="#DejaVuSans-73" x="877.498047"/>
     <use xlink:href="#DejaVuSans-29" x="929.597656"/>
    </g>
   </g>
  </g>
  <g id="text_26">
   <!-- training -->
   <g transform="translate(333.219687 16.318125) scale(0.12 -0.12)">
    <defs>
     <path id="DejaVuSans-67" d="M 2906 1791 
Q 2906 2416 2648 2759 
Q 2391 3103 1925 3103 
Q 1463 3103 1205 2759 
Q 947 2416 947 1791 
Q 947 1169 1205 825 
Q 1463 481 1925 481 
Q 2391 481 2648 825 
Q 2906 1169 2906 1791 
z
M 3481 434 
Q 3481 -459 3084 -895 
Q 2688 -1331 1869 -1331 
Q 1566 -1331 1297 -1286 
Q 1028 -1241 775 -1147 
L 775 -588 
Q 1028 -725 1275 -790 
Q 1522 -856 1778 -856 
Q 2344 -856 2625 -561 
Q 2906 -266 2906 331 
L 2906 616 
Q 2728 306 2450 153 
Q 2172 0 1784 0 
Q 1141 0 747 490 
Q 353 981 353 1791 
Q 353 2603 747 3093 
Q 1141 3584 1784 3584 
Q 2172 3584 2450 3431 
Q 2728 3278 2906 2969 
L 2906 3500 
L 3481 3500 
L 3481 434 
z
" transform="scale(0.015625)"/>
    </defs>
    <use xlink:href="#DejaVuSans-74"/>
    <use xlink:href="#DejaVuSans-72" x="39.208984"/>
    <use xlink:href="#DejaVuSans-61" x="80.322266"/>
    <use xlink:href="#DejaVuSans-69" x="141.601562"/>
    <use xlink:href="#DejaVuSans-6e" x="169.384766"/>
    <use xlink:href="#DejaVuSans-69" x="232.763672"/>
    <use xlink:href="#DejaVuSans-6e" x="260.546875"/>
    <use xlink:href="#DejaVuSans-67" x="323.925781"/>
   </g>
  </g>
 </g>
 <defs>
  <clipPath id="p856019126d">
   <rect x="30.103125" y="43.44" width="675.56" height="298.76"/>
  </clipPath>
  <clipPath id="p4fff65c954">
   <rect x="30.103125" y="386.16" width="675.56" height="298.76"/>
  </clipPath>
 </defs>
</svg>
