<?xml version="1.0" encoding="utf-8" standalone="no"?>
<!DOCTYPE svg PUBLIC "-//W3C//DTD SVG 1.1//EN"
  "http://www.w3.org/Graphics/SVG/1.1/DTD/svg11.dtd">
<svg xmlns:xlink="http://www.w3.org/1999/xlink" width="709.336136pt" height="708.798125pt" viewBox="0 0 709.336136 708.798125" xmlns="http://www.w3.org/2000/svg" version="1.1">
 <metadata>
  <rdf:RDF xmlns:dc="http://purl.org/dc/elements/1.1/" xmlns:cc="http://creativecommons.org/ns#" xmlns:rdf="http://www.w3.org/1999/02/22-rdf-syntax-ns#">
   <cc:Work>
    <dc:type rdf:resource="http://purl.org/dc/dcmitype/StillImage"/>
    <dc:date>2023-06-16T13:08:54.850803</dc:date>
    <dc:format>image/svg+xml</dc:format>
    <dc:creator>
     <cc:Agent>
      <dc:title>Matplotlib v3.7.1, https://matplotlib.org/</dc:title>
     </cc:Agent>
    </dc:creator>
   </cc:Work>
  </rdf:RDF>
 </metadata>
 <defs>
  <style type="text/css">*{stroke-linejoin: round; stroke-linecap: butt}</style>
 </defs>
 <g id="figure_1">
  <g id="patch_1">
   <path d="M 0 708.798125 
L 709.336136 708.798125 
L 709.336136 0 
L 0 0 
z
" style="fill: #ffffff"/>
  </g>
  <g id="axes_1">
   <g id="patch_2">
    <path d="M 20.5625 342.2 
L 702.136136 342.2 
L 702.136136 43.44 
L 20.5625 43.44 
z
" style="fill: #ffffff"/>
   </g>
   <g id="matplotlib.axis_1">
    <g id="xtick_1">
     <g id="line2d_1">
      <defs>
       <path id="m25026f2a33" d="M 0 0 
L 0 3.5 
" style="stroke: #000000; stroke-width: 0.8"/>
      </defs>
      <g>
       <use xlink:href="#m25026f2a33" x="51.370957" y="342.2" style="stroke: #000000; stroke-width: 0.8"/>
      </g>
     </g>
     <g id="text_1">
      <!-- 2014-07-01 -->
      <g transform="translate(22.313145 356.798437) scale(0.1 -0.1)">
       <defs>
        <path id="DejaVuSans-32" d="M 1228 531 
L 3431 531 
L 3431 0 
L 469 0 
L 469 531 
Q 828 903 1448 1529 
Q 2069 2156 2228 2338 
Q 2531 2678 2651 2914 
Q 2772 3150 2772 3378 
Q 2772 3750 2511 3984 
Q 2250 4219 1831 4219 
Q 1534 4219 1204 4116 
Q 875 4013 500 3803 
L 500 4441 
Q 881 4594 1212 4672 
Q 1544 4750 1819 4750 
Q 2544 4750 2975 4387 
Q 3406 4025 3406 3419 
Q 3406 3131 3298 2873 
Q 3191 2616 2906 2266 
Q 2828 2175 2409 1742 
Q 1991 1309 1228 531 
z
" transform="scale(0.015625)"/>
        <path id="DejaVuSans-30" d="M 2034 4250 
Q 1547 4250 1301 3770 
Q 1056 3291 1056 2328 
Q 1056 1369 1301 889 
Q 1547 409 2034 409 
Q 2525 409 2770 889 
Q 3016 1369 3016 2328 
Q 3016 3291 2770 3770 
Q 2525 4250 2034 4250 
z
M 2034 4750 
Q 2819 4750 3233 4129 
Q 3647 3509 3647 2328 
Q 3647 1150 3233 529 
Q 2819 -91 2034 -91 
Q 1250 -91 836 529 
Q 422 1150 422 2328 
Q 422 3509 836 4129 
Q 1250 4750 2034 4750 
z
" transform="scale(0.015625)"/>
        <path id="DejaVuSans-31" d="M 794 531 
L 1825 531 
L 1825 4091 
L 703 3866 
L 703 4441 
L 1819 4666 
L 2450 4666 
L 2450 531 
L 3481 531 
L 3481 0 
L 794 0 
L 794 531 
z
" transform="scale(0.015625)"/>
        <path id="DejaVuSans-34" d="M 2419 4116 
L 825 1625 
L 2419 1625 
L 2419 4116 
z
M 2253 4666 
L 3047 4666 
L 3047 1625 
L 3713 1625 
L 3713 1100 
L 3047 1100 
L 3047 0 
L 2419 0 
L 2419 1100 
L 313 1100 
L 313 1709 
L 2253 4666 
z
" transform="scale(0.015625)"/>
        <path id="DejaVuSans-2d" d="M 313 2009 
L 1997 2009 
L 1997 1497 
L 313 1497 
L 313 2009 
z
" transform="scale(0.015625)"/>
        <path id="DejaVuSans-37" d="M 525 4666 
L 3525 4666 
L 3525 4397 
L 1831 0 
L 1172 0 
L 2766 4134 
L 525 4134 
L 525 4666 
z
" transform="scale(0.015625)"/>
       </defs>
       <use xlink:href="#DejaVuSans-32"/>
       <use xlink:href="#DejaVuSans-30" x="63.623047"/>
       <use xlink:href="#DejaVuSans-31" x="127.246094"/>
       <use xlink:href="#DejaVuSans-34" x="190.869141"/>
       <use xlink:href="#DejaVuSans-2d" x="254.492188"/>
       <use xlink:href="#DejaVuSans-30" x="290.576172"/>
       <use xlink:href="#DejaVuSans-37" x="354.199219"/>
       <use xlink:href="#DejaVuSans-2d" x="417.822266"/>
       <use xlink:href="#DejaVuSans-30" x="453.90625"/>
       <use xlink:href="#DejaVuSans-31" x="517.529297"/>
      </g>
     </g>
    </g>
    <g id="xtick_2">
     <g id="line2d_2">
      <g>
       <use xlink:href="#m25026f2a33" x="175.327869" y="342.2" style="stroke: #000000; stroke-width: 0.8"/>
      </g>
     </g>
     <g id="text_2">
      <!-- 2014-07-02 -->
      <g transform="translate(146.270057 356.798437) scale(0.1 -0.1)">
       <use xlink:href="#DejaVuSans-32"/>
       <use xlink:href="#DejaVuSans-30" x="63.623047"/>
       <use xlink:href="#DejaVuSans-31" x="127.246094"/>
       <use xlink:href="#DejaVuSans-34" x="190.869141"/>
       <use xlink:href="#DejaVuSans-2d" x="254.492188"/>
       <use xlink:href="#DejaVuSans-30" x="290.576172"/>
       <use xlink:href="#DejaVuSans-37" x="354.199219"/>
       <use xlink:href="#DejaVuSans-2d" x="417.822266"/>
       <use xlink:href="#DejaVuSans-30" x="453.90625"/>
       <use xlink:href="#DejaVuSans-32" x="517.529297"/>
      </g>
     </g>
    </g>
    <g id="xtick_3">
     <g id="line2d_3">
      <g>
       <use xlink:href="#m25026f2a33" x="299.284781" y="342.2" style="stroke: #000000; stroke-width: 0.8"/>
      </g>
     </g>
     <g id="text_3">
      <!-- 2014-07-03 -->
      <g transform="translate(270.226969 356.798437) scale(0.1 -0.1)">
       <defs>
        <path id="DejaVuSans-33" d="M 2597 2516 
Q 3050 2419 3304 2112 
Q 3559 1806 3559 1356 
Q 3559 666 3084 287 
Q 2609 -91 1734 -91 
Q 1441 -91 1130 -33 
Q 819 25 488 141 
L 488 750 
Q 750 597 1062 519 
Q 1375 441 1716 441 
Q 2309 441 2620 675 
Q 2931 909 2931 1356 
Q 2931 1769 2642 2001 
Q 2353 2234 1838 2234 
L 1294 2234 
L 1294 2753 
L 1863 2753 
Q 2328 2753 2575 2939 
Q 2822 3125 2822 3475 
Q 2822 3834 2567 4026 
Q 2313 4219 1838 4219 
Q 1578 4219 1281 4162 
Q 984 4106 628 3988 
L 628 4550 
Q 988 4650 1302 4700 
Q 1616 4750 1894 4750 
Q 2613 4750 3031 4423 
Q 3450 4097 3450 3541 
Q 3450 3153 3228 2886 
Q 3006 2619 2597 2516 
z
" transform="scale(0.015625)"/>
       </defs>
       <use xlink:href="#DejaVuSans-32"/>
       <use xlink:href="#DejaVuSans-30" x="63.623047"/>
       <use xlink:href="#DejaVuSans-31" x="127.246094"/>
       <use xlink:href="#DejaVuSans-34" x="190.869141"/>
       <use xlink:href="#DejaVuSans-2d" x="254.492188"/>
       <use xlink:href="#DejaVuSans-30" x="290.576172"/>
       <use xlink:href="#DejaVuSans-37" x="354.199219"/>
       <use xlink:href="#DejaVuSans-2d" x="417.822266"/>
       <use xlink:href="#DejaVuSans-30" x="453.90625"/>
       <use xlink:href="#DejaVuSans-33" x="517.529297"/>
      </g>
     </g>
    </g>
    <g id="xtick_4">
     <g id="line2d_4">
      <g>
       <use xlink:href="#m25026f2a33" x="423.241693" y="342.2" style="stroke: #000000; stroke-width: 0.8"/>
      </g>
     </g>
     <g id="text_4">
      <!-- 2014-07-04 -->
      <g transform="translate(394.18388 356.798437) scale(0.1 -0.1)">
       <use xlink:href="#DejaVuSans-32"/>
       <use xlink:href="#DejaVuSans-30" x="63.623047"/>
       <use xlink:href="#DejaVuSans-31" x="127.246094"/>
       <use xlink:href="#DejaVuSans-34" x="190.869141"/>
       <use xlink:href="#DejaVuSans-2d" x="254.492188"/>
       <use xlink:href="#DejaVuSans-30" x="290.576172"/>
       <use xlink:href="#DejaVuSans-37" x="354.199219"/>
       <use xlink:href="#DejaVuSans-2d" x="417.822266"/>
       <use xlink:href="#DejaVuSans-30" x="453.90625"/>
       <use xlink:href="#DejaVuSans-34" x="517.529297"/>
      </g>
     </g>
    </g>
    <g id="xtick_5">
     <g id="line2d_5">
      <g>
       <use xlink:href="#m25026f2a33" x="547.198605" y="342.2" style="stroke: #000000; stroke-width: 0.8"/>
      </g>
     </g>
     <g id="text_5">
      <!-- 2014-07-05 -->
      <g transform="translate(518.140792 356.798437) scale(0.1 -0.1)">
       <defs>
        <path id="DejaVuSans-35" d="M 691 4666 
L 3169 4666 
L 3169 4134 
L 1269 4134 
L 1269 2991 
Q 1406 3038 1543 3061 
Q 1681 3084 1819 3084 
Q 2600 3084 3056 2656 
Q 3513 2228 3513 1497 
Q 3513 744 3044 326 
Q 2575 -91 1722 -91 
Q 1428 -91 1123 -41 
Q 819 9 494 109 
L 494 744 
Q 775 591 1075 516 
Q 1375 441 1709 441 
Q 2250 441 2565 725 
Q 2881 1009 2881 1497 
Q 2881 1984 2565 2268 
Q 2250 2553 1709 2553 
Q 1456 2553 1204 2497 
Q 953 2441 691 2322 
L 691 4666 
z
" transform="scale(0.015625)"/>
       </defs>
       <use xlink:href="#DejaVuSans-32"/>
       <use xlink:href="#DejaVuSans-30" x="63.623047"/>
       <use xlink:href="#DejaVuSans-31" x="127.246094"/>
       <use xlink:href="#DejaVuSans-34" x="190.869141"/>
       <use xlink:href="#DejaVuSans-2d" x="254.492188"/>
       <use xlink:href="#DejaVuSans-30" x="290.576172"/>
       <use xlink:href="#DejaVuSans-37" x="354.199219"/>
       <use xlink:href="#DejaVuSans-2d" x="417.822266"/>
       <use xlink:href="#DejaVuSans-30" x="453.90625"/>
       <use xlink:href="#DejaVuSans-35" x="517.529297"/>
      </g>
     </g>
    </g>
    <g id="xtick_6">
     <g id="line2d_6">
      <g>
       <use xlink:href="#m25026f2a33" x="671.155517" y="342.2" style="stroke: #000000; stroke-width: 0.8"/>
      </g>
     </g>
     <g id="text_6">
      <!-- 2014-07-06 -->
      <g transform="translate(642.097704 356.798437) scale(0.1 -0.1)">
       <defs>
        <path id="DejaVuSans-36" d="M 2113 2584 
Q 1688 2584 1439 2293 
Q 1191 2003 1191 1497 
Q 1191 994 1439 701 
Q 1688 409 2113 409 
Q 2538 409 2786 701 
Q 3034 994 3034 1497 
Q 3034 2003 2786 2293 
Q 2538 2584 2113 2584 
z
M 3366 4563 
L 3366 3988 
Q 3128 4100 2886 4159 
Q 2644 4219 2406 4219 
Q 1781 4219 1451 3797 
Q 1122 3375 1075 2522 
Q 1259 2794 1537 2939 
Q 1816 3084 2150 3084 
Q 2853 3084 3261 2657 
Q 3669 2231 3669 1497 
Q 3669 778 3244 343 
Q 2819 -91 2113 -91 
Q 1303 -91 875 529 
Q 447 1150 447 2328 
Q 447 3434 972 4092 
Q 1497 4750 2381 4750 
Q 2619 4750 2861 4703 
Q 3103 4656 3366 4563 
z
" transform="scale(0.015625)"/>
       </defs>
       <use xlink:href="#DejaVuSans-32"/>
       <use xlink:href="#DejaVuSans-30" x="63.623047"/>
       <use xlink:href="#DejaVuSans-31" x="127.246094"/>
       <use xlink:href="#DejaVuSans-34" x="190.869141"/>
       <use xlink:href="#DejaVuSans-2d" x="254.492188"/>
       <use xlink:href="#DejaVuSans-30" x="290.576172"/>
       <use xlink:href="#DejaVuSans-37" x="354.199219"/>
       <use xlink:href="#DejaVuSans-2d" x="417.822266"/>
       <use xlink:href="#DejaVuSans-30" x="453.90625"/>
       <use xlink:href="#DejaVuSans-36" x="517.529297"/>
      </g>
     </g>
    </g>
   </g>
   <g id="matplotlib.axis_2">
    <g id="ytick_1">
     <g id="line2d_7">
      <defs>
       <path id="m81214bb4ff" d="M 0 0 
L -3.5 0 
" style="stroke: #000000; stroke-width: 0.8"/>
      </defs>
      <g>
       <use xlink:href="#m81214bb4ff" x="20.5625" y="328.619964" style="stroke: #000000; stroke-width: 0.8"/>
      </g>
     </g>
     <g id="text_7">
      <!-- 0 -->
      <g transform="translate(7.2 332.419183) scale(0.1 -0.1)">
       <use xlink:href="#DejaVuSans-30"/>
      </g>
     </g>
    </g>
    <g id="ytick_2">
     <g id="line2d_8">
      <g>
       <use xlink:href="#m81214bb4ff" x="20.5625" y="268.374671" style="stroke: #000000; stroke-width: 0.8"/>
      </g>
     </g>
     <g id="text_8">
      <!-- 2 -->
      <g transform="translate(7.2 272.17389) scale(0.1 -0.1)">
       <use xlink:href="#DejaVuSans-32"/>
      </g>
     </g>
    </g>
    <g id="ytick_3">
     <g id="line2d_9">
      <g>
       <use xlink:href="#m81214bb4ff" x="20.5625" y="208.129379" style="stroke: #000000; stroke-width: 0.8"/>
      </g>
     </g>
     <g id="text_9">
      <!-- 4 -->
      <g transform="translate(7.2 211.928598) scale(0.1 -0.1)">
       <use xlink:href="#DejaVuSans-34"/>
      </g>
     </g>
    </g>
    <g id="ytick_4">
     <g id="line2d_10">
      <g>
       <use xlink:href="#m81214bb4ff" x="20.5625" y="147.884086" style="stroke: #000000; stroke-width: 0.8"/>
      </g>
     </g>
     <g id="text_10">
      <!-- 6 -->
      <g transform="translate(7.2 151.683305) scale(0.1 -0.1)">
       <use xlink:href="#DejaVuSans-36"/>
      </g>
     </g>
    </g>
    <g id="ytick_5">
     <g id="line2d_11">
      <g>
       <use xlink:href="#m81214bb4ff" x="20.5625" y="87.638794" style="stroke: #000000; stroke-width: 0.8"/>
      </g>
     </g>
     <g id="text_11">
      <!-- 8 -->
      <g transform="translate(7.2 91.438012) scale(0.1 -0.1)">
       <defs>
        <path id="DejaVuSans-38" d="M 2034 2216 
Q 1584 2216 1326 1975 
Q 1069 1734 1069 1313 
Q 1069 891 1326 650 
Q 1584 409 2034 409 
Q 2484 409 2743 651 
Q 3003 894 3003 1313 
Q 3003 1734 2745 1975 
Q 2488 2216 2034 2216 
z
M 1403 2484 
Q 997 2584 770 2862 
Q 544 3141 544 3541 
Q 544 4100 942 4425 
Q 1341 4750 2034 4750 
Q 2731 4750 3128 4425 
Q 3525 4100 3525 3541 
Q 3525 3141 3298 2862 
Q 3072 2584 2669 2484 
Q 3125 2378 3379 2068 
Q 3634 1759 3634 1313 
Q 3634 634 3220 271 
Q 2806 -91 2034 -91 
Q 1263 -91 848 271 
Q 434 634 434 1313 
Q 434 1759 690 2068 
Q 947 2378 1403 2484 
z
M 1172 3481 
Q 1172 3119 1398 2916 
Q 1625 2713 2034 2713 
Q 2441 2713 2670 2916 
Q 2900 3119 2900 3481 
Q 2900 3844 2670 4047 
Q 2441 4250 2034 4250 
Q 1625 4250 1398 4047 
Q 1172 3844 1172 3481 
z
" transform="scale(0.015625)"/>
       </defs>
       <use xlink:href="#DejaVuSans-38"/>
      </g>
     </g>
    </g>
   </g>
   <g id="line2d_12">
    <path d="M 51.54312 328.616518 
L 52.145688 328.462485 
L 53.264744 328.028256 
L 54.297718 327.419773 
L 56.62191 325.519263 
L 58.687859 323.679842 
L 60.753807 322.130661 
L 62.131106 321.532869 
L 63.16408 321.294827 
L 63.938811 321.335178 
L 65.057866 321.643935 
L 66.349084 321.99739 
L 66.951653 321.95137 
L 67.46814 321.724302 
L 67.984627 321.269624 
L 68.415033 320.560656 
L 68.93152 318.917051 
L 69.620169 315.827237 
L 70.308819 311.752014 
L 71.686118 299.467679 
L 73.321661 284.763018 
L 74.182472 279.640098 
L 74.612878 277.829085 
L 75.129366 276.079693 
L 75.731934 274.811505 
L 76.334502 274.005155 
L 76.592746 273.91703 
L 76.764908 273.824741 
L 77.195314 273.87822 
L 77.453558 273.738347 
L 77.711801 273.757691 
L 78.056126 273.466868 
L 78.31437 273.390587 
L 78.658694 273.017051 
L 78.916938 272.920642 
L 79.261263 272.677998 
L 79.691669 273.195112 
L 79.949912 273.737626 
L 80.724643 276.149579 
L 80.810724 275.975233 
L 81.155049 273.021647 
L 81.671536 267.927202 
L 81.929779 267.357484 
L 82.101942 267.40849 
L 82.274104 267.914548 
L 82.618429 270.117356 
L 83.39316 277.652173 
L 84.253972 287.314554 
L 84.426134 288.490286 
L 84.512215 288.131936 
L 84.942621 280.089905 
L 85.200865 266.135918 
L 85.459108 245.63518 
L 85.889514 199.710314 
L 86.31992 148.226701 
L 86.406001 144.033464 
L 86.578164 126.185589 
L 86.750326 118.630969 
L 86.922488 110.112753 
L 87.266813 87.456749 
L 87.438976 85.039069 
L 87.869381 69.439973 
L 88.127625 64.535551 
L 88.385869 57.94447 
L 88.558031 58.430074 
L 88.730193 60.087088 
L 88.988437 57.02 
L 89.160599 59.626332 
L 89.418843 63.259317 
L 89.504924 63.325791 
L 89.677086 67.049985 
L 90.279655 89.192403 
L 91.140467 127.193583 
L 92.08736 162.044611 
L 92.948172 189.712518 
L 93.808984 209.717942 
L 95.100201 233.269214 
L 95.788851 240.637675 
L 96.047094 241.856541 
L 96.133176 242.039813 
L 96.219257 241.770769 
L 96.735744 236.360038 
L 96.993987 228.322535 
L 97.338312 212.502196 
L 97.682637 181.33034 
L 98.199124 134.852354 
L 98.457368 126.227818 
L 98.543449 128.445486 
L 98.62953 125.460127 
L 98.973855 135.407823 
L 99.576423 172.423186 
L 100.09291 206.878539 
L 100.867641 243.741533 
L 101.728453 265.240721 
L 102.417102 273.627974 
L 103.105752 279.576367 
L 103.622239 282.776339 
L 104.827376 287.91948 
L 105.343863 289.152221 
L 106.548999 291.561366 
L 108.356704 295.511866 
L 109.131435 297.140658 
L 109.561841 297.760828 
L 110.164409 298.287178 
L 110.93914 298.662395 
L 111.799952 298.877256 
L 113.09117 298.925008 
L 113.607657 298.834675 
L 113.779819 298.460328 
L 115.673605 291.966614 
L 116.190093 291.198714 
L 116.534417 291.022954 
L 116.964823 291.131572 
L 117.223067 291.363871 
L 117.739554 292.228078 
L 118.772528 294.319647 
L 119.461178 295.193432 
L 120.149827 295.649487 
L 120.752396 295.781955 
L 121.354964 295.718522 
L 122.215776 295.398594 
L 123.24875 294.781024 
L 124.71213 293.80793 
L 125.40078 293.202336 
L 126.433754 292.245918 
L 127.294566 291.519076 
L 128.32754 290.417927 
L 129.188352 289.463965 
L 130.221326 288.320813 
L 130.651732 287.738122 
L 131.254301 287.196151 
L 131.512544 287.171779 
L 131.856869 287.394365 
L 132.201194 287.927172 
L 132.717681 289.249427 
L 133.492412 291.949036 
L 135.644441 299.819429 
L 136.505253 302.048291 
L 137.366065 303.696604 
L 138.226877 304.982444 
L 139.17377 306.05329 
L 139.86242 306.588964 
L 140.378907 306.638617 
L 140.895394 306.225285 
L 141.239719 305.736808 
L 141.756206 304.571092 
L 142.358774 303.103766 
L 143.133505 301.951727 
L 144.682966 300.063828 
L 145.199453 299.759055 
L 145.543778 299.826241 
L 146.40459 300.147483 
L 146.662833 300.135369 
L 147.265402 299.718311 
L 148.384457 298.419503 
L 148.900944 298.006417 
L 149.417431 297.928164 
L 149.761756 297.876577 
L 150.106081 297.777497 
L 150.622568 297.936401 
L 151.741624 298.439199 
L 152.602435 298.117512 
L 153.549329 297.328078 
L 153.979734 297.07488 
L 154.41014 297.048016 
L 154.840546 297.271295 
L 155.357033 297.837296 
L 156.56217 299.415485 
L 157.078657 299.84695 
L 157.336901 299.804489 
L 157.853388 299.683108 
L 158.7142 299.637083 
L 159.661093 299.883938 
L 160.694067 299.047562 
L 161.296636 298.13937 
L 161.727041 297.308256 
L 162.243529 296.560563 
L 162.846097 296.079971 
L 163.190422 296.026761 
L 163.534746 296.213657 
L 164.137315 296.892099 
L 167.236238 300.669081 
L 167.666643 300.873936 
L 168.87178 300.415127 
L 169.474348 300.067909 
L 169.818673 299.724963 
L 170.421242 298.903705 
L 171.02381 298.179157 
L 171.540297 297.872939 
L 171.884622 297.913915 
L 172.315028 298.243757 
L 172.917596 299.068974 
L 174.122733 300.937468 
L 174.553139 301.250941 
L 174.983545 301.20705 
L 175.327869 300.833129 
L 176.533006 299.560676 
L 177.221655 298.753182 
L 177.738143 297.811205 
L 178.426792 296.457748 
L 179.02936 295.765107 
L 179.373685 295.554048 
L 179.890172 295.478449 
L 181.611796 295.769046 
L 182.214364 296.332925 
L 186.604505 301.539125 
L 186.862749 301.529568 
L 187.207073 301.141546 
L 188.153966 300.137667 
L 188.670454 299.901907 
L 189.445184 299.80536 
L 189.961671 299.776665 
L 191.33897 298.717402 
L 191.683295 298.882856 
L 192.113701 299.34896 
L 192.716269 300.346011 
L 193.663162 302.392831 
L 196.417761 308.863163 
L 197.278572 310.182969 
L 198.225465 311.194174 
L 199.086277 311.97685 
L 200.377495 312.893565 
L 200.893982 313.156984 
L 200.980064 313.077554 
L 201.152226 312.224236 
L 201.582632 306.965965 
L 201.840875 301.182668 
L 202.615606 279.088924 
L 203.562499 248.748561 
L 204.078986 241.459754 
L 204.165068 240.894474 
L 204.423311 238.423605 
L 204.853717 235.882398 
L 205.111961 235.595686 
L 205.284123 235.633821 
L 205.456285 235.483973 
L 205.628448 235.823881 
L 206.144935 238.100087 
L 206.575341 241.812639 
L 207.522234 252.05723 
L 208.296965 260.314266 
L 209.588182 269.90545 
L 211.56805 278.956233 
L 211.912374 279.171604 
L 212.084537 279.099079 
L 212.256699 278.382274 
L 212.859268 274.498731 
L 213.375755 266.927898 
L 213.892242 249.473061 
L 214.064404 238.233331 
L 214.322648 210.59415 
L 214.666973 178.579653 
L 214.753054 177.773669 
L 215.011297 157.066978 
L 215.097378 153.224816 
L 215.18346 155.4165 
L 215.269541 153.778418 
L 215.527784 161.430984 
L 216.302515 204.489212 
L 217.421571 259.458749 
L 217.938058 270.975779 
L 218.712788 280.943616 
L 219.401438 286.3305 
L 220.520493 292.18503 
L 221.381305 295.713552 
L 222.41428 299.035285 
L 223.791579 302.426331 
L 224.824553 304.175998 
L 225.771446 305.419819 
L 226.718339 306.287804 
L 227.837394 306.963933 
L 228.526044 307.091499 
L 229.214693 306.841885 
L 229.989424 306.263354 
L 231.538886 304.404342 
L 232.227535 303.075709 
L 233.604834 299.695166 
L 234.551727 297.762135 
L 235.326458 295.544887 
L 236.18727 293.231583 
L 236.617676 292.587509 
L 236.962 292.436601 
L 237.306325 292.576919 
L 237.736731 293.117127 
L 239.200111 295.278137 
L 239.630517 295.420391 
L 240.147004 295.426359 
L 240.57741 295.636269 
L 241.007816 295.814808 
L 243.245927 296.129116 
L 244.19282 295.676257 
L 244.709307 295.519381 
L 245.225795 295.217135 
L 245.742282 294.668999 
L 246.172688 294.355248 
L 246.517012 294.367913 
L 246.861337 294.68477 
L 247.377824 295.65641 
L 247.980393 296.805361 
L 249.615935 299.448798 
L 250.218503 299.934685 
L 250.734991 299.690394 
L 251.42364 298.980987 
L 252.284452 298.057889 
L 252.973102 297.667105 
L 253.317426 297.460955 
L 254.522563 296.197465 
L 255.03905 295.862862 
L 255.555537 295.622501 
L 256.158106 295.551962 
L 256.588511 295.786936 
L 257.19108 296.158195 
L 257.621486 296.514402 
L 258.568379 297.648864 
L 259.601353 299.042617 
L 260.290003 299.155113 
L 261.064733 298.790213 
L 261.322977 298.568313 
L 261.839464 298.078558 
L 263.819331 296.639225 
L 265.454874 294.025266 
L 265.799199 294.024795 
L 266.143523 294.317457 
L 266.573929 295.042761 
L 268.467716 298.954055 
L 268.725959 299.193218 
L 269.070284 299.160858 
L 269.328527 299.015711 
L 269.758933 298.283052 
L 270.189339 297.277949 
L 270.791908 296.175715 
L 271.222314 295.764898 
L 271.480557 295.716615 
L 271.997044 295.989667 
L 272.341369 296.345611 
L 273.546506 297.90627 
L 273.804749 297.913534 
L 274.57948 297.679505 
L 275.354211 297.567422 
L 275.612454 297.393759 
L 276.301104 296.715811 
L 276.817591 296.206809 
L 277.247997 295.714618 
L 277.850565 295.417727 
L 278.19489 295.603911 
L 278.711377 296.305329 
L 279.313945 297.611791 
L 280.088676 299.912918 
L 281.982462 305.70296 
L 282.843274 307.697255 
L 283.790167 309.332542 
L 284.564898 310.245286 
L 286.114359 311.654839 
L 286.630846 311.935333 
L 287.147333 311.737057 
L 290.418419 310.953535 
L 291.365312 311.019243 
L 294.292072 311.691727 
L 297.218833 312.53822 
L 297.821401 312.345095 
L 298.337888 311.899223 
L 298.854375 311.098939 
L 299.284781 310.059879 
L 300.145593 307.125466 
L 300.920324 303.694142 
L 302.900191 292.293802 
L 305.224383 275.687498 
L 305.654789 273.959008 
L 306.171276 272.899768 
L 306.42952 272.72771 
L 306.773845 272.344928 
L 307.032088 272.252886 
L 307.376413 271.873367 
L 307.634656 271.739082 
L 307.8929 271.364292 
L 308.237225 271.200199 
L 308.581549 270.766164 
L 309.011955 270.734643 
L 309.184118 270.734438 
L 309.614524 270.947008 
L 309.786686 270.977053 
L 310.475336 271.895318 
L 311.250066 273.836293 
L 311.422229 272.808865 
L 312.283041 265.126868 
L 312.455203 264.937922 
L 312.627365 265.109237 
L 312.799528 265.698202 
L 313.143852 268.139259 
L 313.746421 273.681338 
L 315.12372 288.060811 
L 316.070613 294.628113 
L 316.845344 298.373353 
L 317.447912 300.386486 
L 318.136561 301.970204 
L 318.825211 303.053377 
L 319.51386 303.77223 
L 320.288591 304.24352 
L 321.149403 304.464706 
L 322.35454 304.823518 
L 323.12927 305.341286 
L 324.076163 306.257447 
L 327.777655 310.197839 
L 329.757522 311.633008 
L 331.306983 312.467988 
L 333.459013 313.36902 
L 336.385773 314.294297 
L 340.517671 315.302328 
L 345.510379 316.225904 
L 351.3639 316.902363 
L 355.409716 317.179318 
L 355.495797 317.109351 
L 355.66796 316.330627 
L 355.754041 318.28959 
L 355.926203 316.945231 
L 356.098366 317.9045 
L 356.184447 317.708182 
L 356.356609 317.091867 
L 356.528772 317.511435 
L 356.700934 317.173286 
L 356.959178 317.403783 
L 357.13134 317.341354 
L 357.303502 317.454125 
L 357.561746 317.44919 
L 357.992152 317.499883 
L 359.541613 317.504624 
L 359.627694 317.415631 
L 359.713776 316.737365 
L 359.799857 317.264627 
L 359.885938 318.567681 
L 360.0581 317.317667 
L 360.230263 318.210307 
L 360.488506 317.449682 
L 360.660669 317.806867 
L 360.832831 317.508257 
L 361.091075 317.719714 
L 361.263237 317.667951 
L 361.435399 317.769543 
L 361.693643 317.760233 
L 362.124049 317.80517 
L 367.202839 318.144906 
L 375.98312 318.766246 
L 385.882457 319.436352 
L 396.384362 319.915096 
L 420.487095 320.754389 
L 424.44683 320.82938 
L 438.21982 321.4979 
L 465.421475 322.415155 
L 517.758838 323.958429 
L 576.810534 325.301015 
L 612.448146 325.806508 
L 671.155517 326.40723 
L 671.155517 326.40723 
" clip-path="url(#p1cba2a6f04)" style="fill: none; stroke: #1f77b4; stroke-width: 1.5; stroke-linecap: square"/>
   </g>
   <g id="line2d_13">
    <path d="M 51.54312 328.619964 
L 54.46988 328.514815 
L 61.614619 328.022201 
L 65.832597 328.100185 
L 66.77949 327.867821 
L 67.812465 327.36005 
L 68.587195 326.667743 
L 69.448007 325.506861 
L 70.222738 324.120572 
L 70.997468 322.509552 
L 72.030443 319.56222 
L 72.460849 317.58845 
L 72.891255 314.984433 
L 76.334502 290.308096 
L 78.744775 279.033232 
L 79.433425 276.885004 
L 79.863831 276.591657 
L 80.122075 276.755724 
L 80.466399 277.206506 
L 80.724643 277.845195 
L 80.810724 277.732432 
L 80.982886 276.633382 
L 81.413292 270.52344 
L 81.843698 265.731072 
L 82.101942 264.958478 
L 82.274104 265.173482 
L 82.532348 266.272992 
L 83.048835 269.90889 
L 84.512215 281.103478 
L 84.598296 280.978168 
L 84.770459 278.859685 
L 85.028702 271.516201 
L 85.286946 253.885589 
L 87.266813 77.725772 
L 87.611138 66.256184 
L 87.955463 59.181336 
L 88.127625 58.854301 
L 88.385869 58.891407 
L 88.558031 59.953284 
L 88.816275 65.330999 
L 90.021411 97.246441 
L 91.656954 138.660024 
L 93.292496 178.134415 
L 94.755877 204.742542 
L 95.530607 216.200957 
L 95.874932 219.265459 
L 96.305338 221.078679 
L 96.4775 220.565175 
L 96.821825 218.507049 
L 97.080069 213.76882 
L 97.510475 200.817451 
L 97.940881 171.112535 
L 98.371287 148.755245 
L 98.543449 145.776612 
L 98.62953 145.533054 
L 98.801692 146.955532 
L 99.059936 152.384453 
L 99.748586 174.795062 
L 100.78156 206.159787 
L 101.642372 225.88817 
L 102.589265 242.680504 
L 103.536158 255.829941 
L 104.569132 267.012032 
L 105.602106 275.808408 
L 106.721162 283.396486 
L 107.840217 289.507264 
L 109.045354 294.855128 
L 110.250491 299.223855 
L 111.541708 303.08178 
L 112.832926 306.252492 
L 113.779819 308.151237 
L 114.038063 308.227758 
L 114.984956 307.896002 
L 115.329281 308.172625 
L 116.01793 309.103918 
L 118.428204 312.578459 
L 119.719421 313.999563 
L 120.924558 315.098631 
L 121.957532 315.815431 
L 123.593075 316.648859 
L 124.71213 316.968976 
L 125.745105 317.040952 
L 127.294566 316.976951 
L 128.413621 316.565946 
L 130.049164 315.653833 
L 131.598625 314.633149 
L 132.029031 314.779613 
L 132.6316 315.2808 
L 137.366065 319.899021 
L 139.345932 321.308209 
L 140.292825 321.812804 
L 140.809313 321.808094 
L 142.358774 321.493502 
L 143.219586 321.786357 
L 144.25256 322.077497 
L 146.921077 322.444917 
L 148.900944 322.095272 
L 151.139055 322.395657 
L 151.655542 322.434576 
L 152.774598 322.023208 
L 153.807572 321.779963 
L 154.41014 321.839413 
L 155.443115 322.226813 
L 156.217845 322.461146 
L 157.336901 322.451436 
L 158.283794 322.294245 
L 159.058525 322.50247 
L 159.747174 322.650092 
L 160.435824 322.433293 
L 161.382717 321.92333 
L 162.32961 321.30112 
L 163.10434 321.361332 
L 164.223396 321.737585 
L 164.825964 321.801523 
L 165.686776 321.869562 
L 167.924887 322.37895 
L 168.613537 322.321542 
L 169.388267 322.322346 
L 169.990836 322.138701 
L 171.02381 321.789756 
L 172.056784 321.984032 
L 173.089758 322.390708 
L 173.95057 322.682434 
L 174.553139 322.634881 
L 175.327869 322.309346 
L 175.930438 322.075664 
L 177.652061 321.736808 
L 178.685036 321.065434 
L 179.890172 320.730121 
L 181.009228 320.610023 
L 181.611796 320.494947 
L 182.730852 320.723127 
L 184.194232 321.122703 
L 185.313287 321.468395 
L 186.776667 321.916237 
L 187.207073 321.669341 
L 187.72356 321.408855 
L 188.240048 321.420617 
L 190.305996 321.687019 
L 191.33897 321.36761 
L 191.941539 321.570506 
L 197.622897 324.260272 
L 200.463576 325.184627 
L 200.807901 325.353042 
L 200.980064 325.460148 
L 201.152226 325.2777 
L 201.324388 324.518446 
L 201.582632 322.291951 
L 201.840875 317.3899 
L 202.357363 302.0786 
L 203.476418 263.489149 
L 204.165068 248.958779 
L 204.681555 241.767122 
L 205.198042 237.222276 
L 205.714529 235.047752 
L 205.972772 234.870341 
L 206.231016 234.841198 
L 206.403178 235.148117 
L 206.919666 237.340586 
L 207.780477 242.448383 
L 209.674264 255.377986 
L 211.395887 267.513554 
L 211.826293 269.690165 
L 212.170618 270.675471 
L 212.256699 270.671491 
L 212.428862 270.355276 
L 212.859268 268.895524 
L 213.203592 265.050017 
L 213.461836 260.537094 
L 213.892242 244.472842 
L 214.150485 226.881946 
L 215.011297 145.844089 
L 215.269541 141.409133 
L 215.355622 141.804706 
L 215.527784 144.600037 
L 215.872109 155.169829 
L 217.335489 205.417519 
L 218.196301 226.133579 
L 219.143194 243.293882 
L 220.090087 256.427504 
L 221.036981 266.712097 
L 222.069955 275.621428 
L 223.18901 283.312856 
L 224.308066 289.513222 
L 225.513202 294.952775 
L 226.718339 299.4184 
L 227.923476 303.083283 
L 228.95645 305.541362 
L 230.936317 309.3847 
L 232.055373 311.076788 
L 232.830103 311.809129 
L 234.293484 312.920444 
L 234.809971 313.035115 
L 235.49862 312.917573 
L 236.273351 312.816585 
L 236.789838 313.032159 
L 237.478488 313.656757 
L 238.597543 314.730963 
L 239.027949 314.938262 
L 240.405248 315.224542 
L 241.524303 315.962251 
L 242.385115 316.42291 
L 242.901602 316.673931 
L 243.332008 316.684914 
L 244.020658 316.579956 
L 245.397957 316.840726 
L 246.000525 316.704532 
L 246.430931 316.854885 
L 247.119581 317.381212 
L 248.066474 318.079972 
L 249.099448 318.720667 
L 249.788098 319.11393 
L 250.218503 319.195734 
L 251.854046 319.138275 
L 253.833913 319.396227 
L 254.952969 319.055361 
L 255.985943 319.049797 
L 256.674593 319.299283 
L 257.277161 319.473781 
L 258.137973 319.683398 
L 259.257028 320.245088 
L 259.687434 320.360271 
L 260.290003 320.277332 
L 261.064733 320.231092 
L 261.667302 320.129537 
L 262.26987 320.097208 
L 263.216763 320.171189 
L 263.819331 320.008438 
L 264.4219 319.475848 
L 265.024468 318.825598 
L 265.368793 318.734907 
L 265.88528 318.877134 
L 266.746092 319.407095 
L 267.692985 319.944286 
L 268.553797 320.085488 
L 269.070284 319.994111 
L 269.414609 319.783754 
L 270.533664 318.882683 
L 270.96407 318.92104 
L 271.824882 319.353172 
L 273.288262 319.891106 
L 273.632587 319.833179 
L 274.57948 319.411513 
L 275.956779 319.45979 
L 278.022727 318.99913 
L 278.539215 319.250765 
L 280.34692 320.585753 
L 282.412868 321.923098 
L 284.650979 323.103484 
L 286.716928 323.970714 
L 287.491658 323.961907 
L 288.266389 324.106573 
L 293.173017 325.500548 
L 295.669371 326.038348 
L 297.390995 326.297294 
L 298.337888 326.22993 
L 299.112619 325.951803 
L 300.231674 325.212918 
L 301.006405 324.309281 
L 301.953298 322.680493 
L 302.728029 320.920434 
L 303.158435 319.309411 
L 303.502759 317.444923 
L 304.363571 311.054707 
L 306.687763 293.780198 
L 308.409387 283.810946 
L 308.839793 281.885725 
L 309.872767 278.552573 
L 310.389254 277.740565 
L 310.647498 277.678242 
L 310.991823 277.883011 
L 311.250066 278.38612 
L 311.336148 278.22915 
L 311.50831 277.038799 
L 311.938716 270.804623 
L 312.369122 266.071676 
L 312.627365 265.302901 
L 312.799528 265.507688 
L 313.057771 266.574078 
L 313.574258 270.14174 
L 315.209801 282.013477 
L 316.328856 288.372079 
L 317.533993 293.912846 
L 318.73913 298.435115 
L 319.944266 302.162865 
L 321.235484 305.459439 
L 322.871027 309.022853 
L 324.334407 311.723484 
L 325.883868 314.115679 
L 327.43333 316.107927 
L 329.154954 317.964099 
L 330.962659 319.584982 
L 332.856445 320.99226 
L 334.922393 322.256884 
L 337.246585 323.41255 
L 339.829021 324.437545 
L 342.6697 325.322507 
L 345.940785 326.103669 
L 349.728358 326.773714 
L 354.20458 327.335091 
L 359.713776 327.794646 
L 366.772433 328.15021 
L 376.499607 328.403099 
L 391.822059 328.555534 
L 425.479804 328.615465 
L 671.155517 328.619964 
L 671.155517 328.619964 
" clip-path="url(#p1cba2a6f04)" style="fill: none; stroke: #ff7f0e; stroke-width: 1.5; stroke-linecap: square"/>
   </g>
   <g id="patch_3">
    <path d="M 20.5625 342.2 
L 20.5625 43.44 
" style="fill: none; stroke: #000000; stroke-width: 0.8; stroke-linejoin: miter; stroke-linecap: square"/>
   </g>
   <g id="patch_4">
    <path d="M 702.136136 342.2 
L 702.136136 43.44 
" style="fill: none; stroke: #000000; stroke-width: 0.8; stroke-linejoin: miter; stroke-linecap: square"/>
   </g>
   <g id="patch_5">
    <path d="M 20.5625 342.2 
L 702.136136 342.2 
" style="fill: none; stroke: #000000; stroke-width: 0.8; stroke-linejoin: miter; stroke-linecap: square"/>
   </g>
   <g id="patch_6">
    <path d="M 20.5625 43.44 
L 702.136136 43.44 
" style="fill: none; stroke: #000000; stroke-width: 0.8; stroke-linejoin: miter; stroke-linecap: square"/>
   </g>
   <g id="text_12">
    <!-- 1 transformation(s) -->
    <g transform="translate(303.234631 37.44) scale(0.12 -0.12)">
     <defs>
      <path id="DejaVuSans-20" transform="scale(0.015625)"/>
      <path id="DejaVuSans-74" d="M 1172 4494 
L 1172 3500 
L 2356 3500 
L 2356 3053 
L 1172 3053 
L 1172 1153 
Q 1172 725 1289 603 
Q 1406 481 1766 481 
L 2356 481 
L 2356 0 
L 1766 0 
Q 1100 0 847 248 
Q 594 497 594 1153 
L 594 3053 
L 172 3053 
L 172 3500 
L 594 3500 
L 594 4494 
L 1172 4494 
z
" transform="scale(0.015625)"/>
      <path id="DejaVuSans-72" d="M 2631 2963 
Q 2534 3019 2420 3045 
Q 2306 3072 2169 3072 
Q 1681 3072 1420 2755 
Q 1159 2438 1159 1844 
L 1159 0 
L 581 0 
L 581 3500 
L 1159 3500 
L 1159 2956 
Q 1341 3275 1631 3429 
Q 1922 3584 2338 3584 
Q 2397 3584 2469 3576 
Q 2541 3569 2628 3553 
L 2631 2963 
z
" transform="scale(0.015625)"/>
      <path id="DejaVuSans-61" d="M 2194 1759 
Q 1497 1759 1228 1600 
Q 959 1441 959 1056 
Q 959 750 1161 570 
Q 1363 391 1709 391 
Q 2188 391 2477 730 
Q 2766 1069 2766 1631 
L 2766 1759 
L 2194 1759 
z
M 3341 1997 
L 3341 0 
L 2766 0 
L 2766 531 
Q 2569 213 2275 61 
Q 1981 -91 1556 -91 
Q 1019 -91 701 211 
Q 384 513 384 1019 
Q 384 1609 779 1909 
Q 1175 2209 1959 2209 
L 2766 2209 
L 2766 2266 
Q 2766 2663 2505 2880 
Q 2244 3097 1772 3097 
Q 1472 3097 1187 3025 
Q 903 2953 641 2809 
L 641 3341 
Q 956 3463 1253 3523 
Q 1550 3584 1831 3584 
Q 2591 3584 2966 3190 
Q 3341 2797 3341 1997 
z
" transform="scale(0.015625)"/>
      <path id="DejaVuSans-6e" d="M 3513 2113 
L 3513 0 
L 2938 0 
L 2938 2094 
Q 2938 2591 2744 2837 
Q 2550 3084 2163 3084 
Q 1697 3084 1428 2787 
Q 1159 2491 1159 1978 
L 1159 0 
L 581 0 
L 581 3500 
L 1159 3500 
L 1159 2956 
Q 1366 3272 1645 3428 
Q 1925 3584 2291 3584 
Q 2894 3584 3203 3211 
Q 3513 2838 3513 2113 
z
" transform="scale(0.015625)"/>
      <path id="DejaVuSans-73" d="M 2834 3397 
L 2834 2853 
Q 2591 2978 2328 3040 
Q 2066 3103 1784 3103 
Q 1356 3103 1142 2972 
Q 928 2841 928 2578 
Q 928 2378 1081 2264 
Q 1234 2150 1697 2047 
L 1894 2003 
Q 2506 1872 2764 1633 
Q 3022 1394 3022 966 
Q 3022 478 2636 193 
Q 2250 -91 1575 -91 
Q 1294 -91 989 -36 
Q 684 19 347 128 
L 347 722 
Q 666 556 975 473 
Q 1284 391 1588 391 
Q 1994 391 2212 530 
Q 2431 669 2431 922 
Q 2431 1156 2273 1281 
Q 2116 1406 1581 1522 
L 1381 1569 
Q 847 1681 609 1914 
Q 372 2147 372 2553 
Q 372 3047 722 3315 
Q 1072 3584 1716 3584 
Q 2034 3584 2315 3537 
Q 2597 3491 2834 3397 
z
" transform="scale(0.015625)"/>
      <path id="DejaVuSans-66" d="M 2375 4863 
L 2375 4384 
L 1825 4384 
Q 1516 4384 1395 4259 
Q 1275 4134 1275 3809 
L 1275 3500 
L 2222 3500 
L 2222 3053 
L 1275 3053 
L 1275 0 
L 697 0 
L 697 3053 
L 147 3053 
L 147 3500 
L 697 3500 
L 697 3744 
Q 697 4328 969 4595 
Q 1241 4863 1831 4863 
L 2375 4863 
z
" transform="scale(0.015625)"/>
      <path id="DejaVuSans-6f" d="M 1959 3097 
Q 1497 3097 1228 2736 
Q 959 2375 959 1747 
Q 959 1119 1226 758 
Q 1494 397 1959 397 
Q 2419 397 2687 759 
Q 2956 1122 2956 1747 
Q 2956 2369 2687 2733 
Q 2419 3097 1959 3097 
z
M 1959 3584 
Q 2709 3584 3137 3096 
Q 3566 2609 3566 1747 
Q 3566 888 3137 398 
Q 2709 -91 1959 -91 
Q 1206 -91 779 398 
Q 353 888 353 1747 
Q 353 2609 779 3096 
Q 1206 3584 1959 3584 
z
" transform="scale(0.015625)"/>
      <path id="DejaVuSans-6d" d="M 3328 2828 
Q 3544 3216 3844 3400 
Q 4144 3584 4550 3584 
Q 5097 3584 5394 3201 
Q 5691 2819 5691 2113 
L 5691 0 
L 5113 0 
L 5113 2094 
Q 5113 2597 4934 2840 
Q 4756 3084 4391 3084 
Q 3944 3084 3684 2787 
Q 3425 2491 3425 1978 
L 3425 0 
L 2847 0 
L 2847 2094 
Q 2847 2600 2669 2842 
Q 2491 3084 2119 3084 
Q 1678 3084 1418 2786 
Q 1159 2488 1159 1978 
L 1159 0 
L 581 0 
L 581 3500 
L 1159 3500 
L 1159 2956 
Q 1356 3278 1631 3431 
Q 1906 3584 2284 3584 
Q 2666 3584 2933 3390 
Q 3200 3197 3328 2828 
z
" transform="scale(0.015625)"/>
      <path id="DejaVuSans-69" d="M 603 3500 
L 1178 3500 
L 1178 0 
L 603 0 
L 603 3500 
z
M 603 4863 
L 1178 4863 
L 1178 4134 
L 603 4134 
L 603 4863 
z
" transform="scale(0.015625)"/>
      <path id="DejaVuSans-28" d="M 1984 4856 
Q 1566 4138 1362 3434 
Q 1159 2731 1159 2009 
Q 1159 1288 1364 580 
Q 1569 -128 1984 -844 
L 1484 -844 
Q 1016 -109 783 600 
Q 550 1309 550 2009 
Q 550 2706 781 3412 
Q 1013 4119 1484 4856 
L 1984 4856 
z
" transform="scale(0.015625)"/>
      <path id="DejaVuSans-29" d="M 513 4856 
L 1013 4856 
Q 1481 4119 1714 3412 
Q 1947 2706 1947 2009 
Q 1947 1309 1714 600 
Q 1481 -109 1013 -844 
L 513 -844 
Q 928 -128 1133 580 
Q 1338 1288 1338 2009 
Q 1338 2731 1133 3434 
Q 928 4138 513 4856 
z
" transform="scale(0.015625)"/>
     </defs>
     <use xlink:href="#DejaVuSans-31"/>
     <use xlink:href="#DejaVuSans-20" x="63.623047"/>
     <use xlink:href="#DejaVuSans-74" x="95.410156"/>
     <use xlink:href="#DejaVuSans-72" x="134.619141"/>
     <use xlink:href="#DejaVuSans-61" x="175.732422"/>
     <use xlink:href="#DejaVuSans-6e" x="237.011719"/>
     <use xlink:href="#DejaVuSans-73" x="300.390625"/>
     <use xlink:href="#DejaVuSans-66" x="352.490234"/>
     <use xlink:href="#DejaVuSans-6f" x="387.695312"/>
     <use xlink:href="#DejaVuSans-72" x="448.876953"/>
     <use xlink:href="#DejaVuSans-6d" x="488.240234"/>
     <use xlink:href="#DejaVuSans-61" x="585.652344"/>
     <use xlink:href="#DejaVuSans-74" x="646.931641"/>
     <use xlink:href="#DejaVuSans-69" x="686.140625"/>
     <use xlink:href="#DejaVuSans-6f" x="713.923828"/>
     <use xlink:href="#DejaVuSans-6e" x="775.105469"/>
     <use xlink:href="#DejaVuSans-28" x="838.484375"/>
     <use xlink:href="#DejaVuSans-73" x="877.498047"/>
     <use xlink:href="#DejaVuSans-29" x="929.597656"/>
    </g>
   </g>
   <g id="legend_1">
    <g id="patch_7">
     <path d="M 613.742386 80.79625 
L 695.136136 80.79625 
Q 697.136136 80.79625 697.136136 78.79625 
L 697.136136 50.44 
Q 697.136136 48.44 695.136136 48.44 
L 613.742386 48.44 
Q 611.742386 48.44 611.742386 50.44 
L 611.742386 78.79625 
Q 611.742386 80.79625 613.742386 80.79625 
z
" style="fill: #ffffff; opacity: 0.8; stroke: #cccccc; stroke-linejoin: miter"/>
    </g>
    <g id="line2d_14">
     <path d="M 615.742386 56.538437 
L 625.742386 56.538437 
L 635.742386 56.538437 
" style="fill: none; stroke: #1f77b4; stroke-width: 1.5; stroke-linecap: square"/>
    </g>
    <g id="text_13">
     <!-- observed -->
     <g transform="translate(643.742386 60.038437) scale(0.1 -0.1)">
      <defs>
       <path id="DejaVuSans-62" d="M 3116 1747 
Q 3116 2381 2855 2742 
Q 2594 3103 2138 3103 
Q 1681 3103 1420 2742 
Q 1159 2381 1159 1747 
Q 1159 1113 1420 752 
Q 1681 391 2138 391 
Q 2594 391 2855 752 
Q 3116 1113 3116 1747 
z
M 1159 2969 
Q 1341 3281 1617 3432 
Q 1894 3584 2278 3584 
Q 2916 3584 3314 3078 
Q 3713 2572 3713 1747 
Q 3713 922 3314 415 
Q 2916 -91 2278 -91 
Q 1894 -91 1617 61 
Q 1341 213 1159 525 
L 1159 0 
L 581 0 
L 581 4863 
L 1159 4863 
L 1159 2969 
z
" transform="scale(0.015625)"/>
       <path id="DejaVuSans-65" d="M 3597 1894 
L 3597 1613 
L 953 1613 
Q 991 1019 1311 708 
Q 1631 397 2203 397 
Q 2534 397 2845 478 
Q 3156 559 3463 722 
L 3463 178 
Q 3153 47 2828 -22 
Q 2503 -91 2169 -91 
Q 1331 -91 842 396 
Q 353 884 353 1716 
Q 353 2575 817 3079 
Q 1281 3584 2069 3584 
Q 2775 3584 3186 3129 
Q 3597 2675 3597 1894 
z
M 3022 2063 
Q 3016 2534 2758 2815 
Q 2500 3097 2075 3097 
Q 1594 3097 1305 2825 
Q 1016 2553 972 2059 
L 3022 2063 
z
" transform="scale(0.015625)"/>
       <path id="DejaVuSans-76" d="M 191 3500 
L 800 3500 
L 1894 563 
L 2988 3500 
L 3597 3500 
L 2284 0 
L 1503 0 
L 191 3500 
z
" transform="scale(0.015625)"/>
       <path id="DejaVuSans-64" d="M 2906 2969 
L 2906 4863 
L 3481 4863 
L 3481 0 
L 2906 0 
L 2906 525 
Q 2725 213 2448 61 
Q 2172 -91 1784 -91 
Q 1150 -91 751 415 
Q 353 922 353 1747 
Q 353 2572 751 3078 
Q 1150 3584 1784 3584 
Q 2172 3584 2448 3432 
Q 2725 3281 2906 2969 
z
M 947 1747 
Q 947 1113 1208 752 
Q 1469 391 1925 391 
Q 2381 391 2643 752 
Q 2906 1113 2906 1747 
Q 2906 2381 2643 2742 
Q 2381 3103 1925 3103 
Q 1469 3103 1208 2742 
Q 947 2381 947 1747 
z
" transform="scale(0.015625)"/>
      </defs>
      <use xlink:href="#DejaVuSans-6f"/>
      <use xlink:href="#DejaVuSans-62" x="61.181641"/>
      <use xlink:href="#DejaVuSans-73" x="124.658203"/>
      <use xlink:href="#DejaVuSans-65" x="176.757812"/>
      <use xlink:href="#DejaVuSans-72" x="238.28125"/>
      <use xlink:href="#DejaVuSans-76" x="279.394531"/>
      <use xlink:href="#DejaVuSans-65" x="338.574219"/>
      <use xlink:href="#DejaVuSans-64" x="400.097656"/>
     </g>
    </g>
    <g id="line2d_15">
     <path d="M 615.742386 71.216563 
L 625.742386 71.216563 
L 635.742386 71.216563 
" style="fill: none; stroke: #ff7f0e; stroke-width: 1.5; stroke-linecap: square"/>
    </g>
    <g id="text_14">
     <!-- simulated -->
     <g transform="translate(643.742386 74.716563) scale(0.1 -0.1)">
      <defs>
       <path id="DejaVuSans-75" d="M 544 1381 
L 544 3500 
L 1119 3500 
L 1119 1403 
Q 1119 906 1312 657 
Q 1506 409 1894 409 
Q 2359 409 2629 706 
Q 2900 1003 2900 1516 
L 2900 3500 
L 3475 3500 
L 3475 0 
L 2900 0 
L 2900 538 
Q 2691 219 2414 64 
Q 2138 -91 1772 -91 
Q 1169 -91 856 284 
Q 544 659 544 1381 
z
M 1991 3584 
L 1991 3584 
z
" transform="scale(0.015625)"/>
       <path id="DejaVuSans-6c" d="M 603 4863 
L 1178 4863 
L 1178 0 
L 603 0 
L 603 4863 
z
" transform="scale(0.015625)"/>
      </defs>
      <use xlink:href="#DejaVuSans-73"/>
      <use xlink:href="#DejaVuSans-69" x="52.099609"/>
      <use xlink:href="#DejaVuSans-6d" x="79.882812"/>
      <use xlink:href="#DejaVuSans-75" x="177.294922"/>
      <use xlink:href="#DejaVuSans-6c" x="240.673828"/>
      <use xlink:href="#DejaVuSans-61" x="268.457031"/>
      <use xlink:href="#DejaVuSans-74" x="329.736328"/>
      <use xlink:href="#DejaVuSans-65" x="368.945312"/>
      <use xlink:href="#DejaVuSans-64" x="430.46875"/>
     </g>
    </g>
   </g>
  </g>
  <g id="axes_2">
   <g id="patch_8">
    <path d="M 20.5625 684.92 
L 702.136136 684.92 
L 702.136136 386.16 
L 20.5625 386.16 
z
" style="fill: #ffffff"/>
   </g>
   <g id="matplotlib.axis_3">
    <g id="xtick_7">
     <g id="line2d_16">
      <g>
       <use xlink:href="#m25026f2a33" x="51.370957" y="684.92" style="stroke: #000000; stroke-width: 0.8"/>
      </g>
     </g>
     <g id="text_15">
      <!-- 2014-07-01 -->
      <g transform="translate(22.313145 699.518437) scale(0.1 -0.1)">
       <use xlink:href="#DejaVuSans-32"/>
       <use xlink:href="#DejaVuSans-30" x="63.623047"/>
       <use xlink:href="#DejaVuSans-31" x="127.246094"/>
       <use xlink:href="#DejaVuSans-34" x="190.869141"/>
       <use xlink:href="#DejaVuSans-2d" x="254.492188"/>
       <use xlink:href="#DejaVuSans-30" x="290.576172"/>
       <use xlink:href="#DejaVuSans-37" x="354.199219"/>
       <use xlink:href="#DejaVuSans-2d" x="417.822266"/>
       <use xlink:href="#DejaVuSans-30" x="453.90625"/>
       <use xlink:href="#DejaVuSans-31" x="517.529297"/>
      </g>
     </g>
    </g>
    <g id="xtick_8">
     <g id="line2d_17">
      <g>
       <use xlink:href="#m25026f2a33" x="175.327869" y="684.92" style="stroke: #000000; stroke-width: 0.8"/>
      </g>
     </g>
     <g id="text_16">
      <!-- 2014-07-02 -->
      <g transform="translate(146.270057 699.518437) scale(0.1 -0.1)">
       <use xlink:href="#DejaVuSans-32"/>
       <use xlink:href="#DejaVuSans-30" x="63.623047"/>
       <use xlink:href="#DejaVuSans-31" x="127.246094"/>
       <use xlink:href="#DejaVuSans-34" x="190.869141"/>
       <use xlink:href="#DejaVuSans-2d" x="254.492188"/>
       <use xlink:href="#DejaVuSans-30" x="290.576172"/>
       <use xlink:href="#DejaVuSans-37" x="354.199219"/>
       <use xlink:href="#DejaVuSans-2d" x="417.822266"/>
       <use xlink:href="#DejaVuSans-30" x="453.90625"/>
       <use xlink:href="#DejaVuSans-32" x="517.529297"/>
      </g>
     </g>
    </g>
    <g id="xtick_9">
     <g id="line2d_18">
      <g>
       <use xlink:href="#m25026f2a33" x="299.284781" y="684.92" style="stroke: #000000; stroke-width: 0.8"/>
      </g>
     </g>
     <g id="text_17">
      <!-- 2014-07-03 -->
      <g transform="translate(270.226969 699.518437) scale(0.1 -0.1)">
       <use xlink:href="#DejaVuSans-32"/>
       <use xlink:href="#DejaVuSans-30" x="63.623047"/>
       <use xlink:href="#DejaVuSans-31" x="127.246094"/>
       <use xlink:href="#DejaVuSans-34" x="190.869141"/>
       <use xlink:href="#DejaVuSans-2d" x="254.492188"/>
       <use xlink:href="#DejaVuSans-30" x="290.576172"/>
       <use xlink:href="#DejaVuSans-37" x="354.199219"/>
       <use xlink:href="#DejaVuSans-2d" x="417.822266"/>
       <use xlink:href="#DejaVuSans-30" x="453.90625"/>
       <use xlink:href="#DejaVuSans-33" x="517.529297"/>
      </g>
     </g>
    </g>
    <g id="xtick_10">
     <g id="line2d_19">
      <g>
       <use xlink:href="#m25026f2a33" x="423.241693" y="684.92" style="stroke: #000000; stroke-width: 0.8"/>
      </g>
     </g>
     <g id="text_18">
      <!-- 2014-07-04 -->
      <g transform="translate(394.18388 699.518437) scale(0.1 -0.1)">
       <use xlink:href="#DejaVuSans-32"/>
       <use xlink:href="#DejaVuSans-30" x="63.623047"/>
       <use xlink:href="#DejaVuSans-31" x="127.246094"/>
       <use xlink:href="#DejaVuSans-34" x="190.869141"/>
       <use xlink:href="#DejaVuSans-2d" x="254.492188"/>
       <use xlink:href="#DejaVuSans-30" x="290.576172"/>
       <use xlink:href="#DejaVuSans-37" x="354.199219"/>
       <use xlink:href="#DejaVuSans-2d" x="417.822266"/>
       <use xlink:href="#DejaVuSans-30" x="453.90625"/>
       <use xlink:href="#DejaVuSans-34" x="517.529297"/>
      </g>
     </g>
    </g>
    <g id="xtick_11">
     <g id="line2d_20">
      <g>
       <use xlink:href="#m25026f2a33" x="547.198605" y="684.92" style="stroke: #000000; stroke-width: 0.8"/>
      </g>
     </g>
     <g id="text_19">
      <!-- 2014-07-05 -->
      <g transform="translate(518.140792 699.518437) scale(0.1 -0.1)">
       <use xlink:href="#DejaVuSans-32"/>
       <use xlink:href="#DejaVuSans-30" x="63.623047"/>
       <use xlink:href="#DejaVuSans-31" x="127.246094"/>
       <use xlink:href="#DejaVuSans-34" x="190.869141"/>
       <use xlink:href="#DejaVuSans-2d" x="254.492188"/>
       <use xlink:href="#DejaVuSans-30" x="290.576172"/>
       <use xlink:href="#DejaVuSans-37" x="354.199219"/>
       <use xlink:href="#DejaVuSans-2d" x="417.822266"/>
       <use xlink:href="#DejaVuSans-30" x="453.90625"/>
       <use xlink:href="#DejaVuSans-35" x="517.529297"/>
      </g>
     </g>
    </g>
    <g id="xtick_12">
     <g id="line2d_21">
      <g>
       <use xlink:href="#m25026f2a33" x="671.155517" y="684.92" style="stroke: #000000; stroke-width: 0.8"/>
      </g>
     </g>
     <g id="text_20">
      <!-- 2014-07-06 -->
      <g transform="translate(642.097704 699.518437) scale(0.1 -0.1)">
       <use xlink:href="#DejaVuSans-32"/>
       <use xlink:href="#DejaVuSans-30" x="63.623047"/>
       <use xlink:href="#DejaVuSans-31" x="127.246094"/>
       <use xlink:href="#DejaVuSans-34" x="190.869141"/>
       <use xlink:href="#DejaVuSans-2d" x="254.492188"/>
       <use xlink:href="#DejaVuSans-30" x="290.576172"/>
       <use xlink:href="#DejaVuSans-37" x="354.199219"/>
       <use xlink:href="#DejaVuSans-2d" x="417.822266"/>
       <use xlink:href="#DejaVuSans-30" x="453.90625"/>
       <use xlink:href="#DejaVuSans-36" x="517.529297"/>
      </g>
     </g>
    </g>
   </g>
   <g id="matplotlib.axis_4">
    <g id="ytick_6">
     <g id="line2d_22">
      <g>
       <use xlink:href="#m81214bb4ff" x="20.5625" y="671.335331" style="stroke: #000000; stroke-width: 0.8"/>
      </g>
     </g>
     <g id="text_21">
      <!-- 0 -->
      <g transform="translate(7.2 675.134549) scale(0.1 -0.1)">
       <use xlink:href="#DejaVuSans-30"/>
      </g>
     </g>
    </g>
    <g id="ytick_7">
     <g id="line2d_23">
      <g>
       <use xlink:href="#m81214bb4ff" x="20.5625" y="611.133157" style="stroke: #000000; stroke-width: 0.8"/>
      </g>
     </g>
     <g id="text_22">
      <!-- 2 -->
      <g transform="translate(7.2 614.932376) scale(0.1 -0.1)">
       <use xlink:href="#DejaVuSans-32"/>
      </g>
     </g>
    </g>
    <g id="ytick_8">
     <g id="line2d_24">
      <g>
       <use xlink:href="#m81214bb4ff" x="20.5625" y="550.930984" style="stroke: #000000; stroke-width: 0.8"/>
      </g>
     </g>
     <g id="text_23">
      <!-- 4 -->
      <g transform="translate(7.2 554.730203) scale(0.1 -0.1)">
       <use xlink:href="#DejaVuSans-34"/>
      </g>
     </g>
    </g>
    <g id="ytick_9">
     <g id="line2d_25">
      <g>
       <use xlink:href="#m81214bb4ff" x="20.5625" y="490.728811" style="stroke: #000000; stroke-width: 0.8"/>
      </g>
     </g>
     <g id="text_24">
      <!-- 6 -->
      <g transform="translate(7.2 494.52803) scale(0.1 -0.1)">
       <use xlink:href="#DejaVuSans-36"/>
      </g>
     </g>
    </g>
    <g id="ytick_10">
     <g id="line2d_26">
      <g>
       <use xlink:href="#m81214bb4ff" x="20.5625" y="430.526638" style="stroke: #000000; stroke-width: 0.8"/>
      </g>
     </g>
     <g id="text_25">
      <!-- 8 -->
      <g transform="translate(7.2 434.325856) scale(0.1 -0.1)">
       <use xlink:href="#DejaVuSans-38"/>
      </g>
     </g>
    </g>
   </g>
   <g id="line2d_27">
    <path d="M 51.54312 671.331887 
L 52.145688 671.177965 
L 53.264744 670.744046 
L 54.297718 670.135999 
L 56.62191 668.236849 
L 58.687859 666.398745 
L 60.753807 664.850672 
L 62.131106 664.253308 
L 63.16408 664.015437 
L 63.938811 664.055759 
L 65.057866 664.364294 
L 66.349084 664.717496 
L 66.951653 664.67151 
L 67.46814 664.444604 
L 67.984627 663.990252 
L 68.415033 663.281791 
L 68.93152 661.639362 
L 69.620169 658.55176 
L 70.308819 654.479454 
L 71.686118 642.203911 
L 73.321661 627.509775 
L 74.182472 622.390521 
L 74.612878 620.580805 
L 75.129366 618.832664 
L 75.731934 617.565385 
L 76.334502 616.759611 
L 76.592746 616.67155 
L 76.764908 616.579326 
L 77.195314 616.632767 
L 77.453558 616.492994 
L 77.711801 616.512325 
L 78.056126 616.22171 
L 78.31437 616.145483 
L 78.658694 615.772214 
L 78.916938 615.675875 
L 79.261263 615.433404 
L 79.691669 615.950148 
L 79.949912 616.492273 
L 80.724643 618.9025 
L 80.810724 618.72828 
L 81.155049 615.776807 
L 81.671536 610.686009 
L 81.929779 610.116699 
L 82.101942 610.167667 
L 82.274104 610.673363 
L 82.618429 612.874595 
L 83.39316 620.404018 
L 84.253972 630.059484 
L 84.426134 631.234375 
L 84.512215 630.876281 
L 84.942621 622.840006 
L 85.200865 608.896006 
L 85.459108 588.409941 
L 85.889514 542.517946 
L 86.31992 491.071181 
L 86.406001 486.880945 
L 86.578164 469.045844 
L 86.750326 461.496631 
L 86.922488 452.984511 
L 87.266813 430.344724 
L 87.438976 427.928773 
L 87.869381 412.340842 
L 88.127625 407.439931 
L 88.385869 400.853567 
L 88.558031 401.338824 
L 88.730193 402.994651 
L 88.988437 399.929759 
L 89.160599 402.534225 
L 89.418843 406.16461 
L 89.504924 406.231037 
L 89.677086 409.952565 
L 90.279655 432.079135 
L 91.140467 470.053117 
L 92.08736 504.8792 
L 92.948172 532.527305 
L 93.808984 552.518411 
L 95.100201 576.052826 
L 95.788851 583.416013 
L 96.047094 584.634007 
L 96.133176 584.817148 
L 96.219257 584.548296 
L 96.735744 579.141438 
L 96.993987 571.109688 
L 97.338312 555.300672 
L 97.682637 524.151126 
L 98.199124 477.706406 
L 98.457368 469.088043 
L 98.543449 471.304123 
L 98.62953 468.320901 
L 98.973855 478.261477 
L 99.576423 515.250347 
L 100.09291 549.68104 
L 100.867641 586.51765 
L 101.728453 608.00145 
L 102.417102 616.3827 
L 103.105752 622.326835 
L 103.622239 625.524518 
L 104.827376 630.663977 
L 105.343863 631.895836 
L 106.548999 634.303257 
L 108.356704 638.250929 
L 109.131435 639.878555 
L 109.561841 640.498281 
L 110.164409 641.024255 
L 110.93914 641.399203 
L 111.799952 641.613911 
L 113.09117 641.661628 
L 113.607657 641.57136 
L 113.779819 641.197281 
L 115.673605 634.708214 
L 116.190093 633.940865 
L 116.534417 633.76523 
L 116.964823 633.87377 
L 117.223067 634.105903 
L 117.739554 634.969491 
L 118.772528 637.059564 
L 119.461178 637.932723 
L 120.149827 638.388451 
L 120.752396 638.520825 
L 121.354964 638.457437 
L 122.215776 638.137739 
L 123.24875 637.52061 
L 124.71213 636.548213 
L 125.40078 635.943052 
L 126.433754 634.987318 
L 127.294566 634.260997 
L 128.32754 633.160636 
L 129.188352 632.207357 
L 130.221326 631.065023 
L 130.651732 630.482749 
L 131.254301 629.941166 
L 131.512544 629.916812 
L 131.856869 630.139238 
L 132.201194 630.671664 
L 132.717681 631.992972 
L 133.492412 634.69065 
L 135.644441 642.555409 
L 136.505253 644.782676 
L 137.366065 646.429809 
L 138.226877 647.714729 
L 139.17377 648.784808 
L 139.86242 649.320099 
L 140.378907 649.369717 
L 140.895394 648.95668 
L 141.239719 648.468552 
L 141.756206 647.303671 
L 142.358774 645.837396 
L 143.133505 644.686181 
L 144.682966 642.799633 
L 145.199453 642.495079 
L 145.543778 642.562217 
L 146.40459 642.883228 
L 146.662833 642.871123 
L 147.265402 642.454364 
L 148.384457 641.156485 
L 148.900944 640.743694 
L 149.417431 640.665498 
L 149.761756 640.613948 
L 150.106081 640.514938 
L 150.622568 640.673729 
L 151.741624 641.176167 
L 152.602435 640.85471 
L 153.549329 640.065841 
L 153.979734 639.812824 
L 154.41014 639.78598 
L 154.840546 640.009099 
L 155.357033 640.574695 
L 156.56217 642.151755 
L 157.078657 642.58291 
L 157.336901 642.54048 
L 157.853388 642.419186 
L 158.7142 642.373194 
L 159.661093 642.619872 
L 160.694067 641.784095 
L 161.296636 640.876552 
L 161.727041 640.046033 
L 162.243529 639.298875 
L 162.846097 638.818628 
L 163.190422 638.765456 
L 163.534746 638.952217 
L 164.137315 639.630175 
L 167.236238 643.404453 
L 167.666643 643.609162 
L 168.87178 643.150681 
L 169.474348 642.803711 
L 169.818673 642.461011 
L 170.421242 641.640341 
L 171.02381 640.916311 
L 171.540297 640.610313 
L 171.884622 640.651259 
L 172.315028 640.980865 
L 172.917596 641.805492 
L 174.122733 643.672648 
L 174.553139 643.985897 
L 174.983545 643.942037 
L 175.327869 643.568384 
L 176.533006 642.296842 
L 177.221655 641.489925 
L 177.738143 640.548622 
L 178.426792 639.196134 
L 179.02936 638.503988 
L 179.373685 638.293081 
L 179.890172 638.217536 
L 181.611796 638.507925 
L 182.214364 639.0714 
L 186.604505 644.273875 
L 186.862749 644.264324 
L 187.207073 643.87658 
L 188.153966 642.87342 
L 188.670454 642.637828 
L 189.445184 642.54135 
L 189.961671 642.512676 
L 191.33897 641.454171 
L 191.683295 641.619507 
L 192.113701 642.085277 
L 192.716269 643.081615 
L 193.663162 645.126969 
L 196.417761 651.59267 
L 197.278572 652.911532 
L 198.225465 653.922013 
L 199.086277 654.704128 
L 200.377495 655.620188 
L 200.893982 655.883418 
L 200.980064 655.804045 
L 201.152226 654.951337 
L 201.582632 649.69683 
L 201.840875 643.917672 
L 202.615606 621.839741 
L 203.562499 591.521094 
L 204.078986 584.237504 
L 204.165068 583.672629 
L 204.423311 581.203528 
L 204.853717 578.66414 
L 205.111961 578.377633 
L 205.284123 578.415741 
L 205.456285 578.266 
L 205.628448 578.605664 
L 206.144935 580.880241 
L 206.575341 584.590136 
L 207.522234 594.827395 
L 208.296965 603.078521 
L 209.588182 612.662841 
L 211.56805 621.707145 
L 211.912374 621.922363 
L 212.084537 621.849889 
L 212.256699 621.133598 
L 212.859268 617.252834 
L 213.375755 609.68742 
L 213.892242 592.245076 
L 214.064404 581.01339 
L 214.322648 553.393992 
L 214.666973 521.402408 
L 214.753054 520.597001 
L 215.011297 499.90513 
L 215.097378 496.065718 
L 215.18346 498.255834 
L 215.269541 496.618924 
L 215.527784 504.266012 
L 216.302515 547.293423 
L 217.421571 602.223616 
L 217.938058 613.732403 
L 218.712788 623.693106 
L 219.401438 629.076134 
L 220.520493 634.926475 
L 221.381305 638.452471 
L 222.41428 641.771826 
L 223.791579 645.160445 
L 224.824553 646.90886 
L 225.771446 648.151791 
L 226.718339 649.019155 
L 227.837394 649.694799 
L 228.526044 649.822275 
L 229.214693 649.572839 
L 229.989424 648.994722 
L 231.538886 647.13704 
L 232.227535 645.809358 
L 233.604834 642.431235 
L 234.551727 640.499588 
L 235.326458 638.283927 
L 236.18727 635.972279 
L 236.617676 635.328665 
L 236.962 635.177866 
L 237.306325 635.318083 
L 237.736731 635.857904 
L 239.200111 638.017368 
L 239.630517 638.15952 
L 240.147004 638.165483 
L 240.57741 638.375243 
L 241.007816 638.553655 
L 243.245927 638.867737 
L 244.19282 638.415202 
L 244.709307 638.258439 
L 245.225795 637.956409 
L 245.742282 637.408665 
L 246.172688 637.095139 
L 246.517012 637.107795 
L 246.861337 637.424425 
L 247.377824 638.39537 
L 247.980393 639.543499 
L 249.615935 642.185044 
L 250.218503 642.670582 
L 250.734991 642.426466 
L 251.42364 641.717567 
L 252.284452 640.795129 
L 252.973102 640.404626 
L 253.317426 640.198624 
L 254.522563 638.936038 
L 255.03905 638.601674 
L 255.555537 638.361485 
L 256.158106 638.290996 
L 256.588511 638.525802 
L 257.19108 638.896796 
L 257.621486 639.252747 
L 258.568379 640.386397 
L 259.601353 641.779153 
L 260.290003 641.891569 
L 261.064733 641.52693 
L 261.322977 641.305189 
L 261.839464 640.815784 
L 263.819331 639.377481 
L 265.454874 636.765393 
L 265.799199 636.764923 
L 266.143523 637.057375 
L 266.573929 637.78216 
L 268.467716 641.690654 
L 268.725959 641.929646 
L 269.070284 641.89731 
L 269.328527 641.752266 
L 269.758933 641.020132 
L 270.189339 640.015748 
L 270.791908 638.914303 
L 271.222314 638.50378 
L 271.480557 638.455532 
L 271.997044 638.728388 
L 272.341369 639.084078 
L 273.546506 640.643619 
L 273.804749 640.650879 
L 274.57948 640.417016 
L 275.354211 640.305014 
L 275.612454 640.131475 
L 276.301104 639.454013 
L 276.817591 638.945375 
L 277.247997 638.453537 
L 277.850565 638.156857 
L 278.19489 638.342908 
L 278.711377 639.043824 
L 279.313945 640.349351 
L 280.088676 642.648832 
L 281.982462 648.434729 
L 282.843274 650.427597 
L 283.790167 652.061713 
L 284.564898 652.973804 
L 286.114359 654.382349 
L 286.630846 654.662642 
L 287.147333 654.464507 
L 290.418419 653.681546 
L 291.365312 653.747207 
L 294.292072 654.41921 
L 297.218833 655.265097 
L 297.821401 655.07211 
L 298.337888 654.626558 
L 298.854375 653.826847 
L 299.284781 652.788529 
L 300.145593 649.856217 
L 300.920324 646.427349 
L 302.900191 635.035169 
L 305.224383 618.44075 
L 305.654789 616.713497 
L 306.171276 615.655016 
L 306.42952 615.483081 
L 306.773845 615.100572 
L 307.032088 615.008596 
L 307.376413 614.629349 
L 307.634656 614.49516 
L 307.8929 614.120639 
L 308.237225 613.956663 
L 308.581549 613.522938 
L 309.011955 613.49144 
L 309.184118 613.491235 
L 309.614524 613.703653 
L 309.786686 613.733677 
L 310.475336 614.651285 
L 311.250066 616.59087 
L 311.422229 615.564177 
L 312.283041 607.887679 
L 312.455203 607.698868 
L 312.627365 607.87006 
L 312.799528 608.458603 
L 313.143852 610.897914 
L 313.746421 616.436026 
L 315.12372 630.805207 
L 316.070613 637.367809 
L 316.845344 641.110368 
L 317.447912 643.12206 
L 318.136561 644.704645 
L 318.825211 645.787043 
L 319.51386 646.505381 
L 320.288591 646.976333 
L 321.149403 647.197362 
L 322.35454 647.555917 
L 323.12927 648.073314 
L 324.076163 648.988819 
L 327.777655 652.926391 
L 329.757522 654.360533 
L 331.306983 655.194915 
L 333.459013 656.095302 
L 336.385773 657.019917 
L 340.517671 658.027227 
L 345.510379 658.950142 
L 351.3639 659.626117 
L 355.409716 659.902873 
L 355.495797 659.832956 
L 355.66796 659.05479 
L 355.754041 661.012351 
L 355.926203 659.668954 
L 356.098366 660.627536 
L 356.184447 660.431358 
L 356.356609 659.815484 
L 356.528772 660.234753 
L 356.700934 659.896845 
L 356.959178 660.127177 
L 357.13134 660.064793 
L 357.303502 660.177483 
L 357.561746 660.172552 
L 357.992152 660.223209 
L 359.541613 660.227947 
L 359.627694 660.139017 
L 359.713776 659.461236 
L 359.799857 659.988121 
L 359.885938 661.290243 
L 360.0581 660.041123 
L 360.230263 660.933124 
L 360.488506 660.173043 
L 360.660669 660.529973 
L 360.832831 660.231577 
L 361.091075 660.442882 
L 361.263237 660.391156 
L 361.435399 660.492676 
L 361.693643 660.483372 
L 362.124049 660.528277 
L 367.202839 660.86777 
L 375.98312 661.488666 
L 385.882457 662.158292 
L 396.384362 662.636693 
L 420.487095 663.475385 
L 424.44683 663.550322 
L 438.21982 664.218365 
L 465.507557 665.137682 
L 512.421804 666.541558 
L 562.607138 667.738787 
L 587.656763 668.189948 
L 649.721301 668.92554 
L 671.155517 669.12418 
L 671.155517 669.12418 
" clip-path="url(#pe231b4e18e)" style="fill: none; stroke: #1f77b4; stroke-width: 1.5; stroke-linecap: square"/>
   </g>
   <g id="line2d_28">
    <path d="M 51.54312 671.335331 
L 52.748256 671.233841 
L 53.609068 670.861757 
L 55.072449 670.185236 
L 57.654884 669.449083 
L 58.860021 669.241157 
L 59.634752 669.248278 
L 60.323401 669.527308 
L 62.991918 670.893907 
L 64.197055 671.126997 
L 64.885704 671.030265 
L 65.574354 670.656382 
L 66.176922 670.101312 
L 66.77949 669.347858 
L 68.415033 666.776231 
L 70.997468 660.804954 
L 72.288686 656.602467 
L 75.559771 638.040164 
L 75.904096 636.959573 
L 76.248421 635.840859 
L 76.506665 635.76015 
L 76.850989 635.256159 
L 77.023152 635.337989 
L 77.195314 635.120136 
L 77.453558 634.70056 
L 77.62572 634.7267 
L 77.797882 634.45177 
L 78.056126 633.960286 
L 78.228288 633.954623 
L 78.400451 633.657685 
L 78.658694 633.147685 
L 78.916938 633.099975 
L 79.261263 632.842032 
L 79.433425 633.236468 
L 80.122075 635.719847 
L 80.724643 638.94109 
L 80.810724 638.745694 
L 80.982886 636.945609 
L 81.757617 626.074599 
L 81.929779 625.474895 
L 82.015861 625.494584 
L 82.188023 626.118329 
L 82.446267 628.325797 
L 82.962754 635.569947 
L 83.995728 650.534225 
L 84.426134 655.16327 
L 84.512215 654.889867 
L 84.684378 652.093956 
L 85.028702 641.366171 
L 85.373027 617.538291 
L 86.233839 535.222019 
L 87.438976 428.163349 
L 88.041544 404.549328 
L 88.47195 399.74 
L 88.558031 399.926081 
L 88.730193 403.291522 
L 89.849249 438.326086 
L 90.710061 470.040622 
L 93.034253 541.411904 
L 93.722902 555.95374 
L 94.583714 570.100183 
L 95.444526 580.69164 
L 95.70277 582.372454 
L 95.788851 582.403991 
L 96.219257 581.705979 
L 96.391419 580.106259 
L 96.907906 572.272049 
L 97.424393 555.060164 
L 97.768718 531.58984 
L 98.285205 497.604083 
L 98.543449 490.51132 
L 98.62953 489.973811 
L 98.715611 490.203929 
L 98.887774 492.532964 
L 99.146017 500.070549 
L 99.834667 531.814329 
L 100.609397 565.467267 
L 101.298047 585.977354 
L 101.900615 597.648824 
L 102.589265 606.869922 
L 103.277914 613.049723 
L 103.880483 616.619915 
L 104.569132 619.302769 
L 105.257782 621.028406 
L 105.946431 622.179025 
L 106.721162 623.087867 
L 107.926298 624.117879 
L 109.217516 624.976696 
L 112.40252 626.74863 
L 113.693738 627.258537 
L 113.951982 626.456716 
L 114.812794 623.331903 
L 115.157118 622.926494 
L 115.415362 623.000047 
L 115.759687 623.36957 
L 116.448336 624.691037 
L 117.567392 626.937254 
L 118.514285 628.177413 
L 119.289015 628.791083 
L 121.527126 629.795156 
L 122.301857 629.915398 
L 122.904425 630.004117 
L 124.109562 630.193837 
L 125.056455 630.096705 
L 127.380647 629.936529 
L 127.811053 629.818404 
L 128.671865 629.406235 
L 128.930109 629.287429 
L 129.274433 629.270095 
L 129.618758 629.198522 
L 129.877002 629.116578 
L 130.307408 628.935722 
L 131.168219 628.520163 
L 131.426463 628.711495 
L 131.856869 629.478654 
L 132.373356 631.013905 
L 134.353223 637.33013 
L 135.127954 638.915706 
L 135.902685 640.04578 
L 136.849578 641.016049 
L 137.968633 641.827441 
L 139.604176 642.723254 
L 139.86242 642.692645 
L 140.292825 642.419867 
L 140.809313 641.505477 
L 141.670124 639.915558 
L 142.10053 639.514909 
L 142.358774 639.511674 
L 142.703099 639.777163 
L 143.994317 640.923995 
L 145.629859 641.589563 
L 145.974184 641.866659 
L 146.490671 641.962406 
L 147.093239 641.574033 
L 147.695808 641.130655 
L 148.126214 641.056119 
L 148.987026 641.414579 
L 149.417431 641.892195 
L 149.761756 642.143275 
L 150.364325 642.334647 
L 150.79473 642.777077 
L 151.397299 643.293772 
L 151.655542 643.220676 
L 152.602435 642.560494 
L 153.463247 642.358865 
L 153.807572 642.425491 
L 154.237978 642.804509 
L 154.926628 643.897099 
L 155.873521 645.450294 
L 156.303927 645.526518 
L 157.25082 645.382594 
L 157.853388 644.935471 
L 158.197713 644.948334 
L 158.542037 645.202224 
L 159.575012 646.355705 
L 160.091499 646.055428 
L 161.296636 644.870459 
L 162.157447 643.955478 
L 162.415691 644.14252 
L 163.276503 645.257757 
L 164.309477 646.944893 
L 164.653802 647.090578 
L 165.342451 647.177409 
L 165.772857 647.511403 
L 167.064075 648.757295 
L 167.666643 648.819804 
L 168.441374 648.353688 
L 168.957861 648.437349 
L 169.732592 648.113762 
L 170.765566 647.400145 
L 171.02381 647.527328 
L 172.228946 648.882335 
L 173.778408 651.028947 
L 174.122733 650.935095 
L 174.380976 650.780908 
L 175.241788 649.725831 
L 175.672194 649.249502 
L 176.016519 649.13761 
L 176.963412 649.36554 
L 177.56598 649.008873 
L 178.25463 648.2454 
L 178.512873 648.121754 
L 178.943279 648.104766 
L 179.287604 648.113604 
L 179.71801 648.311522 
L 180.578822 649.105929 
L 180.923147 649.044416 
L 181.353552 649.05147 
L 181.611796 649.244107 
L 182.730852 650.478807 
L 185.055044 652.441223 
L 185.571531 652.853414 
L 186.346261 653.551899 
L 186.776667 653.286471 
L 187.72356 651.791242 
L 188.067885 651.825434 
L 188.498291 652.092132 
L 189.445184 652.78379 
L 189.961671 652.977472 
L 190.56424 652.372624 
L 190.994646 652.017349 
L 191.252889 652.053886 
L 191.597214 652.401674 
L 192.113701 653.341939 
L 193.577081 656.188828 
L 194.351812 657.163247 
L 195.212624 657.870497 
L 196.245598 658.394729 
L 197.708978 658.847247 
L 200.635739 659.462928 
L 200.72182 659.468436 
L 200.893982 659.724445 
L 200.980064 659.637563 
L 201.152226 658.821013 
L 201.496551 655.325309 
L 201.754794 650.584588 
L 202.357363 633.147956 
L 203.390337 598.351131 
L 203.992905 586.692458 
L 204.595473 581.335943 
L 204.853717 580.74202 
L 205.025879 580.423799 
L 205.111961 580.568521 
L 205.80061 584.153833 
L 206.833584 594.78873 
L 208.555208 613.101903 
L 210.535075 627.909422 
L 211.56805 633.080597 
L 211.740212 633.150031 
L 212.084537 632.906574 
L 212.256699 631.995343 
L 212.859268 626.853748 
L 213.375755 617.393432 
L 213.720079 604.07704 
L 214.064404 586.553457 
L 215.18346 498.047036 
L 215.269541 497.32887 
L 215.355622 497.568248 
L 215.527784 500.637156 
L 215.872109 514.753232 
L 217.507652 597.059261 
L 218.11022 613.100453 
L 218.712788 623.192311 
L 219.315357 629.674271 
L 219.917925 633.79515 
L 220.520493 636.404398 
L 221.123062 638.077151 
L 221.811711 639.308094 
L 222.586442 640.206213 
L 223.533335 640.949766 
L 224.996715 641.783375 
L 226.80442 642.58647 
L 227.49307 642.679443 
L 227.923476 642.556175 
L 228.612125 642.112891 
L 229.559018 641.390464 
L 229.903343 641.364913 
L 231.452804 641.744338 
L 232.141454 641.55707 
L 233.088347 640.764925 
L 234.03524 640.373369 
L 235.326458 638.811802 
L 235.756864 638.27729 
L 236.101189 637.984029 
L 236.445513 638.030511 
L 236.703757 638.258254 
L 237.220244 639.178069 
L 238.339299 641.497453 
L 238.855787 641.813536 
L 239.286193 641.541176 
L 240.060923 641.137694 
L 240.319167 641.323204 
L 241.352141 642.419585 
L 242.040791 642.68031 
L 242.815521 643.240572 
L 243.159846 643.123383 
L 243.934577 642.413742 
L 244.19282 642.544587 
L 244.537145 642.846117 
L 245.053632 642.978832 
L 246.000525 642.380403 
L 246.34485 642.725311 
L 246.775256 643.550383 
L 247.722149 645.605876 
L 249.013367 646.702848 
L 249.443773 647.169035 
L 249.96026 647.134139 
L 250.218503 646.882555 
L 250.993234 645.992485 
L 251.595803 645.800319 
L 252.88702 646.261566 
L 253.145264 646.453136 
L 253.57567 646.328698 
L 253.919995 646.035803 
L 254.436482 645.620009 
L 254.780806 645.537098 
L 255.813781 645.770859 
L 256.158106 646.086397 
L 256.674593 646.879552 
L 257.018917 647.230903 
L 257.793648 647.558109 
L 258.740541 648.609677 
L 259.429191 649.411128 
L 259.859597 649.222773 
L 260.80649 648.533178 
L 261.236896 648.495879 
L 261.925545 648.096572 
L 262.183789 648.164355 
L 262.614195 648.402876 
L 263.388925 648.488791 
L 263.647169 648.417531 
L 264.249737 647.6116 
L 264.938387 646.391185 
L 265.19663 646.38272 
L 265.454874 646.680436 
L 265.971361 647.665797 
L 267.434741 650.971173 
L 267.865147 651.129944 
L 268.639878 650.981614 
L 269.156365 650.402955 
L 269.758933 649.18123 
L 270.361502 648.234019 
L 270.619745 648.22633 
L 270.877989 648.49978 
L 271.480557 649.626589 
L 271.910963 650.394461 
L 272.771775 651.433533 
L 273.030019 651.64484 
L 273.460424 651.524042 
L 273.804749 651.004282 
L 274.235155 650.407556 
L 274.493399 650.308948 
L 275.095967 650.615287 
L 275.526373 650.785293 
L 276.301104 650.461141 
L 276.73151 650.504649 
L 277.50624 649.978994 
L 277.764484 650.011245 
L 278.022727 650.262671 
L 278.453133 651.087004 
L 280.605163 655.984959 
L 281.379894 656.921461 
L 282.154625 657.523633 
L 283.187599 658.024939 
L 284.73706 658.485408 
L 286.544765 658.835498 
L 286.88909 658.371764 
L 287.577739 657.385541 
L 287.922064 657.207196 
L 288.35247 657.268809 
L 288.955038 657.671068 
L 290.848825 659.135419 
L 291.96788 659.66708 
L 292.226124 659.669359 
L 293.689504 659.179493 
L 294.378153 659.419838 
L 296.185858 660.159829 
L 296.702345 660.165269 
L 297.390995 659.903034 
L 297.907482 659.519239 
L 298.940456 658.312498 
L 301.006405 654.756592 
L 302.900191 649.841261 
L 303.588841 645.794326 
L 304.707896 637.288027 
L 305.310464 633.217517 
L 305.654789 631.537368 
L 305.999114 630.315413 
L 306.257357 629.665163 
L 306.42952 629.314894 
L 306.859926 628.170066 
L 307.032088 627.871556 
L 307.462494 626.839087 
L 307.634656 626.592767 
L 308.065062 625.699594 
L 308.237225 625.515435 
L 308.667631 624.73262 
L 308.925874 625.003302 
L 309.270199 624.872675 
L 309.528443 625.179224 
L 309.872767 625.281161 
L 310.647498 627.303307 
L 311.077904 629.276107 
L 311.250066 630.216367 
L 311.336148 629.999654 
L 311.50831 628.162152 
L 312.283041 617.549514 
L 312.455203 617.016075 
L 312.541284 617.078564 
L 312.713447 617.774113 
L 312.97169 620.04302 
L 313.488177 627.363107 
L 314.521151 642.280353 
L 315.12372 647.920124 
L 315.726288 651.512265 
L 316.328856 653.690051 
L 316.931425 654.982933 
L 317.533993 655.743008 
L 318.308724 656.296704 
L 319.341698 656.658519 
L 320.546835 656.777239 
L 321.579809 656.888515 
L 322.268458 657.258479 
L 325.539544 659.457552 
L 326.572518 659.760222 
L 328.294142 660.055116 
L 332.253876 660.915432 
L 338.709966 661.940087 
L 348.695383 663.314771 
L 359.541613 664.581057 
L 371.420817 665.739739 
L 384.505158 666.787312 
L 399.052879 667.723472 
L 415.408305 668.547911 
L 434.087923 669.261927 
L 455.952545 669.86893 
L 482.207307 670.367905 
L 515.090321 670.760712 
L 558.905646 671.0483 
L 623.983025 671.232956 
L 671.155517 671.286842 
L 671.155517 671.286842 
" clip-path="url(#pe231b4e18e)" style="fill: none; stroke: #ff7f0e; stroke-width: 1.5; stroke-linecap: square"/>
   </g>
   <g id="patch_9">
    <path d="M 20.5625 684.92 
L 20.5625 386.16 
" style="fill: none; stroke: #000000; stroke-width: 0.8; stroke-linejoin: miter; stroke-linecap: square"/>
   </g>
   <g id="patch_10">
    <path d="M 702.136136 684.92 
L 702.136136 386.16 
" style="fill: none; stroke: #000000; stroke-width: 0.8; stroke-linejoin: miter; stroke-linecap: square"/>
   </g>
   <g id="patch_11">
    <path d="M 20.5625 684.92 
L 702.136136 684.92 
" style="fill: none; stroke: #000000; stroke-width: 0.8; stroke-linejoin: miter; stroke-linecap: square"/>
   </g>
   <g id="patch_12">
    <path d="M 20.5625 386.16 
L 702.136136 386.16 
" style="fill: none; stroke: #000000; stroke-width: 0.8; stroke-linejoin: miter; stroke-linecap: square"/>
   </g>
   <g id="text_26">
    <!-- 2 transformation(s) -->
    <g transform="translate(303.234631 380.16) scale(0.12 -0.12)">
     <use xlink:href="#DejaVuSans-32"/>
     <use xlink:href="#DejaVuSans-20" x="63.623047"/>
     <use xlink:href="#DejaVuSans-74" x="95.410156"/>
     <use xlink:href="#DejaVuSans-72" x="134.619141"/>
     <use xlink:href="#DejaVuSans-61" x="175.732422"/>
     <use xlink:href="#DejaVuSans-6e" x="237.011719"/>
     <use xlink:href="#DejaVuSans-73" x="300.390625"/>
     <use xlink:href="#DejaVuSans-66" x="352.490234"/>
     <use xlink:href="#DejaVuSans-6f" x="387.695312"/>
     <use xlink:href="#DejaVuSans-72" x="448.876953"/>
     <use xlink:href="#DejaVuSans-6d" x="488.240234"/>
     <use xlink:href="#DejaVuSans-61" x="585.652344"/>
     <use xlink:href="#DejaVuSans-74" x="646.931641"/>
     <use xlink:href="#DejaVuSans-69" x="686.140625"/>
     <use xlink:href="#DejaVuSans-6f" x="713.923828"/>
     <use xlink:href="#DejaVuSans-6e" x="775.105469"/>
     <use xlink:href="#DejaVuSans-28" x="838.484375"/>
     <use xlink:href="#DejaVuSans-73" x="877.498047"/>
     <use xlink:href="#DejaVuSans-29" x="929.597656"/>
    </g>
   </g>
  </g>
  <g id="text_27">
   <!-- training -->
   <g transform="translate(333.129063 16.318125) scale(0.12 -0.12)">
    <defs>
     <path id="DejaVuSans-67" d="M 2906 1791 
Q 2906 2416 2648 2759 
Q 2391 3103 1925 3103 
Q 1463 3103 1205 2759 
Q 947 2416 947 1791 
Q 947 1169 1205 825 
Q 1463 481 1925 481 
Q 2391 481 2648 825 
Q 2906 1169 2906 1791 
z
M 3481 434 
Q 3481 -459 3084 -895 
Q 2688 -1331 1869 -1331 
Q 1566 -1331 1297 -1286 
Q 1028 -1241 775 -1147 
L 775 -588 
Q 1028 -725 1275 -790 
Q 1522 -856 1778 -856 
Q 2344 -856 2625 -561 
Q 2906 -266 2906 331 
L 2906 616 
Q 2728 306 2450 153 
Q 2172 0 1784 0 
Q 1141 0 747 490 
Q 353 981 353 1791 
Q 353 2603 747 3093 
Q 1141 3584 1784 3584 
Q 2172 3584 2450 3431 
Q 2728 3278 2906 2969 
L 2906 3500 
L 3481 3500 
L 3481 434 
z
" transform="scale(0.015625)"/>
    </defs>
    <use xlink:href="#DejaVuSans-74"/>
    <use xlink:href="#DejaVuSans-72" x="39.208984"/>
    <use xlink:href="#DejaVuSans-61" x="80.322266"/>
    <use xlink:href="#DejaVuSans-69" x="141.601562"/>
    <use xlink:href="#DejaVuSans-6e" x="169.384766"/>
    <use xlink:href="#DejaVuSans-69" x="232.763672"/>
    <use xlink:href="#DejaVuSans-6e" x="260.546875"/>
    <use xlink:href="#DejaVuSans-67" x="323.925781"/>
   </g>
  </g>
 </g>
 <defs>
  <clipPath id="p1cba2a6f04">
   <rect x="20.5625" y="43.44" width="681.573636" height="298.76"/>
  </clipPath>
  <clipPath id="pe231b4e18e">
   <rect x="20.5625" y="386.16" width="681.573636" height="298.76"/>
  </clipPath>
 </defs>
</svg>
