<?xml version="1.0" encoding="utf-8" standalone="no"?>
<!DOCTYPE svg PUBLIC "-//W3C//DTD SVG 1.1//EN"
  "http://www.w3.org/Graphics/SVG/1.1/DTD/svg11.dtd">
<svg xmlns:xlink="http://www.w3.org/1999/xlink" width="709.336136pt" height="708.798125pt" viewBox="0 0 709.336136 708.798125" xmlns="http://www.w3.org/2000/svg" version="1.1">
 <metadata>
  <rdf:RDF xmlns:dc="http://purl.org/dc/elements/1.1/" xmlns:cc="http://creativecommons.org/ns#" xmlns:rdf="http://www.w3.org/1999/02/22-rdf-syntax-ns#">
   <cc:Work>
    <dc:type rdf:resource="http://purl.org/dc/dcmitype/StillImage"/>
    <dc:date>2023-06-12T14:33:41.857538</dc:date>
    <dc:format>image/svg+xml</dc:format>
    <dc:creator>
     <cc:Agent>
      <dc:title>Matplotlib v3.7.1, https://matplotlib.org/</dc:title>
     </cc:Agent>
    </dc:creator>
   </cc:Work>
  </rdf:RDF>
 </metadata>
 <defs>
  <style type="text/css">*{stroke-linejoin: round; stroke-linecap: butt}</style>
 </defs>
 <g id="figure_1">
  <g id="patch_1">
   <path d="M 0 708.798125 
L 709.336136 708.798125 
L 709.336136 0 
L 0 0 
z
" style="fill: #ffffff"/>
  </g>
  <g id="axes_1">
   <g id="patch_2">
    <path d="M 20.5625 342.2 
L 702.136136 342.2 
L 702.136136 43.44 
L 20.5625 43.44 
z
" style="fill: #ffffff"/>
   </g>
   <g id="matplotlib.axis_1">
    <g id="xtick_1">
     <g id="line2d_1">
      <defs>
       <path id="m0de79c9d8b" d="M 0 0 
L 0 3.5 
" style="stroke: #000000; stroke-width: 0.8"/>
      </defs>
      <g>
       <use xlink:href="#m0de79c9d8b" x="51.370957" y="342.2" style="stroke: #000000; stroke-width: 0.8"/>
      </g>
     </g>
     <g id="text_1">
      <!-- 2014-07-01 -->
      <g transform="translate(22.313145 356.798437) scale(0.1 -0.1)">
       <defs>
        <path id="DejaVuSans-32" d="M 1228 531 
L 3431 531 
L 3431 0 
L 469 0 
L 469 531 
Q 828 903 1448 1529 
Q 2069 2156 2228 2338 
Q 2531 2678 2651 2914 
Q 2772 3150 2772 3378 
Q 2772 3750 2511 3984 
Q 2250 4219 1831 4219 
Q 1534 4219 1204 4116 
Q 875 4013 500 3803 
L 500 4441 
Q 881 4594 1212 4672 
Q 1544 4750 1819 4750 
Q 2544 4750 2975 4387 
Q 3406 4025 3406 3419 
Q 3406 3131 3298 2873 
Q 3191 2616 2906 2266 
Q 2828 2175 2409 1742 
Q 1991 1309 1228 531 
z
" transform="scale(0.015625)"/>
        <path id="DejaVuSans-30" d="M 2034 4250 
Q 1547 4250 1301 3770 
Q 1056 3291 1056 2328 
Q 1056 1369 1301 889 
Q 1547 409 2034 409 
Q 2525 409 2770 889 
Q 3016 1369 3016 2328 
Q 3016 3291 2770 3770 
Q 2525 4250 2034 4250 
z
M 2034 4750 
Q 2819 4750 3233 4129 
Q 3647 3509 3647 2328 
Q 3647 1150 3233 529 
Q 2819 -91 2034 -91 
Q 1250 -91 836 529 
Q 422 1150 422 2328 
Q 422 3509 836 4129 
Q 1250 4750 2034 4750 
z
" transform="scale(0.015625)"/>
        <path id="DejaVuSans-31" d="M 794 531 
L 1825 531 
L 1825 4091 
L 703 3866 
L 703 4441 
L 1819 4666 
L 2450 4666 
L 2450 531 
L 3481 531 
L 3481 0 
L 794 0 
L 794 531 
z
" transform="scale(0.015625)"/>
        <path id="DejaVuSans-34" d="M 2419 4116 
L 825 1625 
L 2419 1625 
L 2419 4116 
z
M 2253 4666 
L 3047 4666 
L 3047 1625 
L 3713 1625 
L 3713 1100 
L 3047 1100 
L 3047 0 
L 2419 0 
L 2419 1100 
L 313 1100 
L 313 1709 
L 2253 4666 
z
" transform="scale(0.015625)"/>
        <path id="DejaVuSans-2d" d="M 313 2009 
L 1997 2009 
L 1997 1497 
L 313 1497 
L 313 2009 
z
" transform="scale(0.015625)"/>
        <path id="DejaVuSans-37" d="M 525 4666 
L 3525 4666 
L 3525 4397 
L 1831 0 
L 1172 0 
L 2766 4134 
L 525 4134 
L 525 4666 
z
" transform="scale(0.015625)"/>
       </defs>
       <use xlink:href="#DejaVuSans-32"/>
       <use xlink:href="#DejaVuSans-30" x="63.623047"/>
       <use xlink:href="#DejaVuSans-31" x="127.246094"/>
       <use xlink:href="#DejaVuSans-34" x="190.869141"/>
       <use xlink:href="#DejaVuSans-2d" x="254.492188"/>
       <use xlink:href="#DejaVuSans-30" x="290.576172"/>
       <use xlink:href="#DejaVuSans-37" x="354.199219"/>
       <use xlink:href="#DejaVuSans-2d" x="417.822266"/>
       <use xlink:href="#DejaVuSans-30" x="453.90625"/>
       <use xlink:href="#DejaVuSans-31" x="517.529297"/>
      </g>
     </g>
    </g>
    <g id="xtick_2">
     <g id="line2d_2">
      <g>
       <use xlink:href="#m0de79c9d8b" x="175.327869" y="342.2" style="stroke: #000000; stroke-width: 0.8"/>
      </g>
     </g>
     <g id="text_2">
      <!-- 2014-07-02 -->
      <g transform="translate(146.270057 356.798437) scale(0.1 -0.1)">
       <use xlink:href="#DejaVuSans-32"/>
       <use xlink:href="#DejaVuSans-30" x="63.623047"/>
       <use xlink:href="#DejaVuSans-31" x="127.246094"/>
       <use xlink:href="#DejaVuSans-34" x="190.869141"/>
       <use xlink:href="#DejaVuSans-2d" x="254.492188"/>
       <use xlink:href="#DejaVuSans-30" x="290.576172"/>
       <use xlink:href="#DejaVuSans-37" x="354.199219"/>
       <use xlink:href="#DejaVuSans-2d" x="417.822266"/>
       <use xlink:href="#DejaVuSans-30" x="453.90625"/>
       <use xlink:href="#DejaVuSans-32" x="517.529297"/>
      </g>
     </g>
    </g>
    <g id="xtick_3">
     <g id="line2d_3">
      <g>
       <use xlink:href="#m0de79c9d8b" x="299.284781" y="342.2" style="stroke: #000000; stroke-width: 0.8"/>
      </g>
     </g>
     <g id="text_3">
      <!-- 2014-07-03 -->
      <g transform="translate(270.226969 356.798437) scale(0.1 -0.1)">
       <defs>
        <path id="DejaVuSans-33" d="M 2597 2516 
Q 3050 2419 3304 2112 
Q 3559 1806 3559 1356 
Q 3559 666 3084 287 
Q 2609 -91 1734 -91 
Q 1441 -91 1130 -33 
Q 819 25 488 141 
L 488 750 
Q 750 597 1062 519 
Q 1375 441 1716 441 
Q 2309 441 2620 675 
Q 2931 909 2931 1356 
Q 2931 1769 2642 2001 
Q 2353 2234 1838 2234 
L 1294 2234 
L 1294 2753 
L 1863 2753 
Q 2328 2753 2575 2939 
Q 2822 3125 2822 3475 
Q 2822 3834 2567 4026 
Q 2313 4219 1838 4219 
Q 1578 4219 1281 4162 
Q 984 4106 628 3988 
L 628 4550 
Q 988 4650 1302 4700 
Q 1616 4750 1894 4750 
Q 2613 4750 3031 4423 
Q 3450 4097 3450 3541 
Q 3450 3153 3228 2886 
Q 3006 2619 2597 2516 
z
" transform="scale(0.015625)"/>
       </defs>
       <use xlink:href="#DejaVuSans-32"/>
       <use xlink:href="#DejaVuSans-30" x="63.623047"/>
       <use xlink:href="#DejaVuSans-31" x="127.246094"/>
       <use xlink:href="#DejaVuSans-34" x="190.869141"/>
       <use xlink:href="#DejaVuSans-2d" x="254.492188"/>
       <use xlink:href="#DejaVuSans-30" x="290.576172"/>
       <use xlink:href="#DejaVuSans-37" x="354.199219"/>
       <use xlink:href="#DejaVuSans-2d" x="417.822266"/>
       <use xlink:href="#DejaVuSans-30" x="453.90625"/>
       <use xlink:href="#DejaVuSans-33" x="517.529297"/>
      </g>
     </g>
    </g>
    <g id="xtick_4">
     <g id="line2d_4">
      <g>
       <use xlink:href="#m0de79c9d8b" x="423.241693" y="342.2" style="stroke: #000000; stroke-width: 0.8"/>
      </g>
     </g>
     <g id="text_4">
      <!-- 2014-07-04 -->
      <g transform="translate(394.18388 356.798437) scale(0.1 -0.1)">
       <use xlink:href="#DejaVuSans-32"/>
       <use xlink:href="#DejaVuSans-30" x="63.623047"/>
       <use xlink:href="#DejaVuSans-31" x="127.246094"/>
       <use xlink:href="#DejaVuSans-34" x="190.869141"/>
       <use xlink:href="#DejaVuSans-2d" x="254.492188"/>
       <use xlink:href="#DejaVuSans-30" x="290.576172"/>
       <use xlink:href="#DejaVuSans-37" x="354.199219"/>
       <use xlink:href="#DejaVuSans-2d" x="417.822266"/>
       <use xlink:href="#DejaVuSans-30" x="453.90625"/>
       <use xlink:href="#DejaVuSans-34" x="517.529297"/>
      </g>
     </g>
    </g>
    <g id="xtick_5">
     <g id="line2d_5">
      <g>
       <use xlink:href="#m0de79c9d8b" x="547.198605" y="342.2" style="stroke: #000000; stroke-width: 0.8"/>
      </g>
     </g>
     <g id="text_5">
      <!-- 2014-07-05 -->
      <g transform="translate(518.140792 356.798437) scale(0.1 -0.1)">
       <defs>
        <path id="DejaVuSans-35" d="M 691 4666 
L 3169 4666 
L 3169 4134 
L 1269 4134 
L 1269 2991 
Q 1406 3038 1543 3061 
Q 1681 3084 1819 3084 
Q 2600 3084 3056 2656 
Q 3513 2228 3513 1497 
Q 3513 744 3044 326 
Q 2575 -91 1722 -91 
Q 1428 -91 1123 -41 
Q 819 9 494 109 
L 494 744 
Q 775 591 1075 516 
Q 1375 441 1709 441 
Q 2250 441 2565 725 
Q 2881 1009 2881 1497 
Q 2881 1984 2565 2268 
Q 2250 2553 1709 2553 
Q 1456 2553 1204 2497 
Q 953 2441 691 2322 
L 691 4666 
z
" transform="scale(0.015625)"/>
       </defs>
       <use xlink:href="#DejaVuSans-32"/>
       <use xlink:href="#DejaVuSans-30" x="63.623047"/>
       <use xlink:href="#DejaVuSans-31" x="127.246094"/>
       <use xlink:href="#DejaVuSans-34" x="190.869141"/>
       <use xlink:href="#DejaVuSans-2d" x="254.492188"/>
       <use xlink:href="#DejaVuSans-30" x="290.576172"/>
       <use xlink:href="#DejaVuSans-37" x="354.199219"/>
       <use xlink:href="#DejaVuSans-2d" x="417.822266"/>
       <use xlink:href="#DejaVuSans-30" x="453.90625"/>
       <use xlink:href="#DejaVuSans-35" x="517.529297"/>
      </g>
     </g>
    </g>
    <g id="xtick_6">
     <g id="line2d_6">
      <g>
       <use xlink:href="#m0de79c9d8b" x="671.155517" y="342.2" style="stroke: #000000; stroke-width: 0.8"/>
      </g>
     </g>
     <g id="text_6">
      <!-- 2014-07-06 -->
      <g transform="translate(642.097704 356.798437) scale(0.1 -0.1)">
       <defs>
        <path id="DejaVuSans-36" d="M 2113 2584 
Q 1688 2584 1439 2293 
Q 1191 2003 1191 1497 
Q 1191 994 1439 701 
Q 1688 409 2113 409 
Q 2538 409 2786 701 
Q 3034 994 3034 1497 
Q 3034 2003 2786 2293 
Q 2538 2584 2113 2584 
z
M 3366 4563 
L 3366 3988 
Q 3128 4100 2886 4159 
Q 2644 4219 2406 4219 
Q 1781 4219 1451 3797 
Q 1122 3375 1075 2522 
Q 1259 2794 1537 2939 
Q 1816 3084 2150 3084 
Q 2853 3084 3261 2657 
Q 3669 2231 3669 1497 
Q 3669 778 3244 343 
Q 2819 -91 2113 -91 
Q 1303 -91 875 529 
Q 447 1150 447 2328 
Q 447 3434 972 4092 
Q 1497 4750 2381 4750 
Q 2619 4750 2861 4703 
Q 3103 4656 3366 4563 
z
" transform="scale(0.015625)"/>
       </defs>
       <use xlink:href="#DejaVuSans-32"/>
       <use xlink:href="#DejaVuSans-30" x="63.623047"/>
       <use xlink:href="#DejaVuSans-31" x="127.246094"/>
       <use xlink:href="#DejaVuSans-34" x="190.869141"/>
       <use xlink:href="#DejaVuSans-2d" x="254.492188"/>
       <use xlink:href="#DejaVuSans-30" x="290.576172"/>
       <use xlink:href="#DejaVuSans-37" x="354.199219"/>
       <use xlink:href="#DejaVuSans-2d" x="417.822266"/>
       <use xlink:href="#DejaVuSans-30" x="453.90625"/>
       <use xlink:href="#DejaVuSans-36" x="517.529297"/>
      </g>
     </g>
    </g>
   </g>
   <g id="matplotlib.axis_2">
    <g id="ytick_1">
     <g id="line2d_7">
      <defs>
       <path id="mda1244ab7f" d="M 0 0 
L -3.5 0 
" style="stroke: #000000; stroke-width: 0.8"/>
      </defs>
      <g>
       <use xlink:href="#mda1244ab7f" x="20.5625" y="324.599548" style="stroke: #000000; stroke-width: 0.8"/>
      </g>
     </g>
     <g id="text_7">
      <!-- 0 -->
      <g transform="translate(7.2 328.398767) scale(0.1 -0.1)">
       <use xlink:href="#DejaVuSans-30"/>
      </g>
     </g>
    </g>
    <g id="ytick_2">
     <g id="line2d_8">
      <g>
       <use xlink:href="#mda1244ab7f" x="20.5625" y="288.133726" style="stroke: #000000; stroke-width: 0.8"/>
      </g>
     </g>
     <g id="text_8">
      <!-- 1 -->
      <g transform="translate(7.2 291.932944) scale(0.1 -0.1)">
       <use xlink:href="#DejaVuSans-31"/>
      </g>
     </g>
    </g>
    <g id="ytick_3">
     <g id="line2d_9">
      <g>
       <use xlink:href="#mda1244ab7f" x="20.5625" y="251.667903" style="stroke: #000000; stroke-width: 0.8"/>
      </g>
     </g>
     <g id="text_9">
      <!-- 2 -->
      <g transform="translate(7.2 255.467122) scale(0.1 -0.1)">
       <use xlink:href="#DejaVuSans-32"/>
      </g>
     </g>
    </g>
    <g id="ytick_4">
     <g id="line2d_10">
      <g>
       <use xlink:href="#mda1244ab7f" x="20.5625" y="215.202081" style="stroke: #000000; stroke-width: 0.8"/>
      </g>
     </g>
     <g id="text_10">
      <!-- 3 -->
      <g transform="translate(7.2 219.0013) scale(0.1 -0.1)">
       <use xlink:href="#DejaVuSans-33"/>
      </g>
     </g>
    </g>
    <g id="ytick_5">
     <g id="line2d_11">
      <g>
       <use xlink:href="#mda1244ab7f" x="20.5625" y="178.736258" style="stroke: #000000; stroke-width: 0.8"/>
      </g>
     </g>
     <g id="text_11">
      <!-- 4 -->
      <g transform="translate(7.2 182.535477) scale(0.1 -0.1)">
       <use xlink:href="#DejaVuSans-34"/>
      </g>
     </g>
    </g>
    <g id="ytick_6">
     <g id="line2d_12">
      <g>
       <use xlink:href="#mda1244ab7f" x="20.5625" y="142.270436" style="stroke: #000000; stroke-width: 0.8"/>
      </g>
     </g>
     <g id="text_12">
      <!-- 5 -->
      <g transform="translate(7.2 146.069655) scale(0.1 -0.1)">
       <use xlink:href="#DejaVuSans-35"/>
      </g>
     </g>
    </g>
    <g id="ytick_7">
     <g id="line2d_13">
      <g>
       <use xlink:href="#mda1244ab7f" x="20.5625" y="105.804614" style="stroke: #000000; stroke-width: 0.8"/>
      </g>
     </g>
     <g id="text_13">
      <!-- 6 -->
      <g transform="translate(7.2 109.603832) scale(0.1 -0.1)">
       <use xlink:href="#DejaVuSans-36"/>
      </g>
     </g>
    </g>
    <g id="ytick_8">
     <g id="line2d_14">
      <g>
       <use xlink:href="#mda1244ab7f" x="20.5625" y="69.338791" style="stroke: #000000; stroke-width: 0.8"/>
      </g>
     </g>
     <g id="text_14">
      <!-- 7 -->
      <g transform="translate(7.2 73.13801) scale(0.1 -0.1)">
       <use xlink:href="#DejaVuSans-37"/>
      </g>
     </g>
    </g>
   </g>
   <g id="line2d_15">
    <path d="M 51.54312 324.599548 
L 58.515696 324.49097 
L 59.892995 324.113572 
L 61.356375 323.735496 
L 62.819756 323.613533 
L 67.984627 323.388424 
L 68.587195 323.120582 
L 69.017601 322.727509 
L 69.534088 321.922928 
L 71.08355 318.405649 
L 72.54693 312.251959 
L 73.149498 311.014055 
L 73.752067 310.358505 
L 74.096391 310.124125 
L 74.440716 309.86323 
L 74.526797 309.869707 
L 74.785041 309.684461 
L 75.043284 309.480309 
L 75.129366 309.513816 
L 75.47369 309.236775 
L 75.559771 309.311191 
L 75.645853 309.134854 
L 75.731934 309.217478 
L 75.904096 309.085917 
L 76.592746 308.673853 
L 76.678827 308.776958 
L 76.764908 308.596866 
L 76.850989 308.698773 
L 76.937071 308.521626 
L 77.023152 308.63332 
L 77.109233 308.451413 
L 77.195314 308.554444 
L 77.281395 308.383352 
L 77.367476 308.470247 
L 77.453558 308.322729 
L 77.539639 308.410797 
L 77.711801 308.311051 
L 77.970045 308.178354 
L 78.228288 308.019696 
L 78.31437 308.102391 
L 78.400451 307.949307 
L 78.486532 308.02667 
L 78.658694 307.91163 
L 78.916938 307.858192 
L 79.003019 307.729576 
L 79.0891 307.790252 
L 79.261263 307.688253 
L 79.347344 307.703817 
L 79.519506 307.664165 
L 79.691669 307.574411 
L 80.035993 307.48068 
L 81.413292 307.040546 
L 81.929779 306.773814 
L 82.360185 306.638798 
L 83.307078 306.669278 
L 84.598296 306.891787 
L 84.942621 306.683217 
L 85.373027 306.003926 
L 85.717352 305.266156 
L 85.975595 303.949243 
L 86.31992 300.746741 
L 86.750326 294.982833 
L 89.93533 244.718059 
L 94.928039 175.617274 
L 98.801692 131.434195 
L 100.351154 116.261687 
L 101.556291 107.474269 
L 103.191833 97.136984 
L 105.688188 85.138024 
L 106.548999 82.032707 
L 107.668055 78.794387 
L 109.217516 75.713483 
L 110.078328 74.601139 
L 110.853059 73.926927 
L 111.62779 73.535048 
L 112.316439 73.408704 
L 113.09117 73.487821 
L 113.951982 73.818389 
L 115.071037 74.515259 
L 116.190093 75.455129 
L 117.395229 76.779558 
L 118.600366 78.464828 
L 119.891584 80.659035 
L 121.527126 83.964908 
L 123.506994 88.592098 
L 125.745105 94.371346 
L 134.525386 118.203729 
L 136.677416 124.857712 
L 139.432014 134.451875 
L 139.948501 136.696334 
L 141.756206 146.368657 
L 143.736073 155.841555 
L 144.596885 160.097714 
L 147.179321 173.511695 
L 149.417431 183.99079 
L 153.63541 202.391646 
L 161.468798 233.798902 
L 169.56043 262.064304 
L 171.02381 266.181174 
L 172.573271 270.4293 
L 173.089758 273.36822 
L 173.864489 279.355346 
L 175.586113 292.83144 
L 177.479899 305.975499 
L 177.996386 310.227878 
L 178.340711 311.355648 
L 178.685036 311.849618 
L 179.115442 312.095831 
L 182.903014 313.310747 
L 186.690586 315.282287 
L 187.034911 315.246783 
L 187.551398 314.91718 
L 188.498291 314.22589 
L 188.928697 314.149011 
L 189.531265 314.272016 
L 190.133834 314.400155 
L 190.650321 314.286151 
L 191.769376 313.866158 
L 192.199782 313.995301 
L 192.716269 314.405476 
L 193.749244 315.643285 
L 195.64303 317.783191 
L 196.934248 318.840914 
L 198.828034 319.933031 
L 200.635739 320.663281 
L 200.893982 320.733457 
L 201.324388 320.321733 
L 201.496551 319.016049 
L 201.840875 314.677327 
L 201.926957 314.706638 
L 202.099119 314.28609 
L 203.562499 309.176466 
L 204.423311 307.790523 
L 205.628448 306.696006 
L 206.833584 306.092046 
L 208.210883 305.763734 
L 209.588182 305.634111 
L 210.8794 305.658202 
L 211.137644 305.498554 
L 211.395887 305.013009 
L 211.740212 303.6851 
L 212.256699 300.329414 
L 213.03143 292.869929 
L 216.732921 248.96156 
L 217.593733 241.277549 
L 218.454545 234.697945 
L 219.659681 227.136226 
L 220.606575 222.448707 
L 221.209143 220.227001 
L 221.897792 218.768421 
L 222.328198 218.056416 
L 223.18901 217.228422 
L 223.705497 217.036238 
L 224.308066 217.092967 
L 224.738472 217.302339 
L 225.34104 217.817553 
L 226.115771 218.841687 
L 227.148745 220.765872 
L 228.095638 223.015452 
L 229.472937 226.867177 
L 232.485779 236.36201 
L 235.068214 244.390656 
L 236.789838 248.960525 
L 238.167137 252.577926 
L 243.848496 267.761024 
L 245.828363 271.866018 
L 246.861337 274.175918 
L 247.463905 277.225158 
L 248.324717 283.373711 
L 251.854046 311.771878 
L 252.284452 312.682252 
L 252.800939 313.217423 
L 253.317426 313.495515 
L 253.833913 313.522442 
L 254.436482 313.273973 
L 255.469456 312.769734 
L 256.158106 312.766758 
L 256.846755 313.06934 
L 260.11784 314.538908 
L 260.634327 314.427878 
L 261.409058 314.028211 
L 262.26987 313.595644 
L 263.044601 313.45336 
L 263.905413 313.256292 
L 264.335818 312.898622 
L 264.766224 312.380524 
L 265.368793 311.819198 
L 265.799199 311.797724 
L 266.143523 312.009755 
L 266.746092 312.732347 
L 267.951228 314.274918 
L 268.467716 314.587917 
L 268.898121 314.596131 
L 269.242446 314.408874 
L 269.845015 313.677115 
L 270.619745 312.605415 
L 271.050151 312.388201 
L 271.394476 312.454298 
L 271.910963 312.824403 
L 273.374343 314.006968 
L 273.804749 313.994751 
L 274.321236 313.695141 
L 275.095967 313.26776 
L 276.215022 313.090211 
L 276.903672 312.916628 
L 278.108809 312.522941 
L 278.539215 312.682548 
L 279.055702 313.167486 
L 279.830432 314.256988 
L 281.638137 316.826119 
L 282.58503 317.846703 
L 283.790167 318.847249 
L 285.167466 319.697353 
L 286.630846 320.346674 
L 287.319496 320.492621 
L 288.008145 320.443177 
L 288.868957 320.114106 
L 289.901932 319.765593 
L 290.848825 319.688441 
L 292.053961 319.8471 
L 294.464235 320.133157 
L 298.165726 320.155678 
L 298.768294 319.790732 
L 299.284781 319.133829 
L 299.973431 317.81029 
L 301.006405 315.203614 
L 302.469785 311.487462 
L 303.072353 310.776349 
L 303.674922 310.388181 
L 304.621815 309.986595 
L 304.96614 309.815356 
L 306.085195 309.198724 
L 306.171276 309.300386 
L 306.257357 309.111692 
L 306.343439 309.225436 
L 306.42952 309.031773 
L 306.515601 309.095738 
L 306.859926 308.856287 
L 306.946007 308.920683 
L 307.032088 308.740605 
L 307.118169 308.861525 
L 307.20425 308.658276 
L 307.290332 308.801322 
L 307.376413 308.576919 
L 307.462494 308.71776 
L 307.548575 308.502763 
L 307.634656 308.642879 
L 307.720738 308.418956 
L 307.806819 308.56202 
L 307.8929 308.352918 
L 307.978981 308.48536 
L 308.065062 308.304569 
L 308.151144 308.393239 
L 308.323306 308.290907 
L 308.581549 308.138934 
L 308.839793 307.982974 
L 308.925874 308.08176 
L 309.011955 307.927385 
L 309.098037 307.993816 
L 309.442361 307.785713 
L 309.528443 307.862243 
L 309.614524 307.726927 
L 309.700605 307.796121 
L 310.04493 307.590469 
L 310.217092 307.587524 
L 310.733579 307.444576 
L 310.81966 307.501211 
L 310.991823 307.440298 
L 311.50831 307.305526 
L 311.852635 307.070523 
L 313.229934 306.61542 
L 313.918583 306.676335 
L 314.779395 306.901625 
L 315.209801 307.024981 
L 317.27575 307.723019 
L 318.480886 308.152346 
L 319.858185 308.62353 
L 323.559676 309.82596 
L 325.195219 310.263004 
L 325.539544 310.896109 
L 326.572518 313.922006 
L 327.175086 315.414237 
L 328.552385 317.637999 
L 329.327116 318.473834 
L 330.36009 319.298257 
L 331.565227 320.001932 
L 333.200769 320.684089 
L 335.352799 321.312401 
L 338.021316 321.855388 
L 341.464564 322.332465 
L 346.543354 322.792637 
L 353.51593 323.18072 
L 363.845673 323.522454 
L 379.512449 323.808021 
L 405.939374 324.05177 
L 455.349976 324.254792 
L 558.733484 324.411388 
L 671.155517 324.476354 
L 671.155517 324.476354 
" clip-path="url(#pf180b7b3a1)" style="fill: none; stroke: #1f77b4; stroke-width: 1.5; stroke-linecap: square"/>
   </g>
   <g id="line2d_16">
    <path d="M 51.54312 324.599548 
L 54.383799 324.704194 
L 57.396641 325.067888 
L 63.938811 326.011045 
L 67.123815 326.416464 
L 72.374768 327.523167 
L 73.752067 327.220828 
L 74.612878 326.70606 
L 75.559771 325.810985 
L 76.420583 324.723691 
L 77.970045 322.041857 
L 79.691669 318.207282 
L 80.810724 315.434891 
L 81.929779 311.628257 
L 82.790591 309.371715 
L 83.651403 307.706785 
L 84.426134 306.361356 
L 85.200865 302.099665 
L 85.975595 295.707017 
L 86.664245 288.467834 
L 88.127625 270.224568 
L 92.08736 218.105904 
L 95.01412 182.244198 
L 98.199124 143.100827 
L 100.78156 111.304773 
L 102.331021 94.901955 
L 103.622239 83.590466 
L 104.741294 75.607942 
L 105.774269 69.68174 
L 106.807243 65.045612 
L 107.668055 62.089467 
L 108.528867 59.884125 
L 109.303597 58.473737 
L 109.992247 57.638189 
L 110.594815 57.207952 
L 111.197384 57.028937 
L 111.799952 57.080085 
L 112.40252 57.341631 
L 113.09117 57.873552 
L 114.038063 58.639917 
L 114.898875 59.458323 
L 115.759687 60.594711 
L 116.792661 62.323074 
L 118.083879 64.950545 
L 119.63334 68.643787 
L 121.699289 74.254238 
L 124.109562 81.45832 
L 127.294566 91.527494 
L 133.234168 110.875732 
L 135.55836 119.662907 
L 138.657283 132.324214 
L 157.509063 211.042659 
L 161.468798 226.362471 
L 165.858939 242.218148 
L 168.87178 252.3723 
L 171.712459 261.222328 
L 174.63922 269.731429 
L 177.738143 277.794581 
L 180.492741 284.136978 
L 183.849907 291.043517 
L 186.174099 295.410238 
L 188.41221 299.184851 
L 190.822483 302.849141 
L 194.523974 307.992649 
L 197.020329 311.089821 
L 199.344521 313.621361 
L 200.807901 314.986048 
L 201.066145 315.163014 
L 201.582632 315.489451 
L 202.271281 315.538032 
L 202.787768 315.276649 
L 203.906824 313.755615 
L 204.509392 312.473035 
L 205.198042 310.69819 
L 206.144935 307.818109 
L 211.051563 292.967334 
L 212.170618 289.980305 
L 213.117511 286.557185 
L 213.720079 283.124608 
L 214.150485 279.527315 
L 215.355622 268.600062 
L 216.474677 260.321337 
L 217.507652 254.133248 
L 218.540626 249.283423 
L 219.401438 246.275099 
L 220.176169 244.293195 
L 220.864818 243.050601 
L 221.553468 242.24827 
L 222.156036 241.872733 
L 222.758604 241.77264 
L 223.361173 241.921605 
L 224.049822 242.36503 
L 224.824553 243.171024 
L 225.685365 244.395065 
L 226.80442 246.398269 
L 228.612125 250.18596 
L 230.591992 254.782719 
L 235.068214 265.383768 
L 242.987684 282.105025 
L 245.570119 286.861336 
L 251.251478 296.593959 
L 253.747832 300.281198 
L 256.674593 304.079973 
L 259.429191 307.370783 
L 261.839464 309.901313 
L 263.73325 311.661862 
L 267.34866 314.532246 
L 269.414609 315.977711 
L 273.288262 318.289066 
L 277.334078 320.140026 
L 279.227864 320.992095 
L 287.835983 325.164872 
L 290.676662 326.175515 
L 293.775585 327.022183 
L 296.702345 327.601868 
L 302.900191 328.614619 
L 303.502759 328.55071 
L 304.019246 328.409437 
L 304.793977 328.044656 
L 305.999114 327.040599 
L 306.601682 326.341215 
L 307.290332 325.374038 
L 308.495468 323.20934 
L 309.35628 321.423932 
L 311.077904 317.493631 
L 311.422229 316.346514 
L 312.455203 312.869604 
L 313.402096 310.407713 
L 314.262908 308.757371 
L 315.12372 307.552688 
L 315.984532 306.724545 
L 316.845344 306.210302 
L 317.620074 305.969163 
L 318.480886 305.917692 
L 319.427779 306.066219 
L 320.546835 306.463183 
L 321.66589 307.060118 
L 323.043189 308.063364 
L 324.850894 309.687342 
L 333.631175 318.005035 
L 335.955367 319.720591 
L 338.27956 321.159377 
L 340.603752 322.335969 
L 343.014025 323.307069 
L 345.596461 324.104734 
L 348.43714 324.742112 
L 351.622144 325.220885 
L 355.323635 325.544972 
L 359.885938 325.711598 
L 366.083784 325.700391 
L 377.618663 325.412932 
L 398.192067 324.93614 
L 418.335065 324.720247 
L 451.562404 324.619071 
L 571.043094 324.599568 
L 671.155517 324.599548 
L 671.155517 324.599548 
" clip-path="url(#pf180b7b3a1)" style="fill: none; stroke: #ff7f0e; stroke-width: 1.5; stroke-linecap: square"/>
   </g>
   <g id="patch_3">
    <path d="M 20.5625 342.2 
L 20.5625 43.44 
" style="fill: none; stroke: #000000; stroke-width: 0.8; stroke-linejoin: miter; stroke-linecap: square"/>
   </g>
   <g id="patch_4">
    <path d="M 702.136136 342.2 
L 702.136136 43.44 
" style="fill: none; stroke: #000000; stroke-width: 0.8; stroke-linejoin: miter; stroke-linecap: square"/>
   </g>
   <g id="patch_5">
    <path d="M 20.5625 342.2 
L 702.136136 342.2 
" style="fill: none; stroke: #000000; stroke-width: 0.8; stroke-linejoin: miter; stroke-linecap: square"/>
   </g>
   <g id="patch_6">
    <path d="M 20.5625 43.44 
L 702.136136 43.44 
" style="fill: none; stroke: #000000; stroke-width: 0.8; stroke-linejoin: miter; stroke-linecap: square"/>
   </g>
   <g id="text_15">
    <!-- 1 transformation(s) -->
    <g transform="translate(303.234631 37.44) scale(0.12 -0.12)">
     <defs>
      <path id="DejaVuSans-20" transform="scale(0.015625)"/>
      <path id="DejaVuSans-74" d="M 1172 4494 
L 1172 3500 
L 2356 3500 
L 2356 3053 
L 1172 3053 
L 1172 1153 
Q 1172 725 1289 603 
Q 1406 481 1766 481 
L 2356 481 
L 2356 0 
L 1766 0 
Q 1100 0 847 248 
Q 594 497 594 1153 
L 594 3053 
L 172 3053 
L 172 3500 
L 594 3500 
L 594 4494 
L 1172 4494 
z
" transform="scale(0.015625)"/>
      <path id="DejaVuSans-72" d="M 2631 2963 
Q 2534 3019 2420 3045 
Q 2306 3072 2169 3072 
Q 1681 3072 1420 2755 
Q 1159 2438 1159 1844 
L 1159 0 
L 581 0 
L 581 3500 
L 1159 3500 
L 1159 2956 
Q 1341 3275 1631 3429 
Q 1922 3584 2338 3584 
Q 2397 3584 2469 3576 
Q 2541 3569 2628 3553 
L 2631 2963 
z
" transform="scale(0.015625)"/>
      <path id="DejaVuSans-61" d="M 2194 1759 
Q 1497 1759 1228 1600 
Q 959 1441 959 1056 
Q 959 750 1161 570 
Q 1363 391 1709 391 
Q 2188 391 2477 730 
Q 2766 1069 2766 1631 
L 2766 1759 
L 2194 1759 
z
M 3341 1997 
L 3341 0 
L 2766 0 
L 2766 531 
Q 2569 213 2275 61 
Q 1981 -91 1556 -91 
Q 1019 -91 701 211 
Q 384 513 384 1019 
Q 384 1609 779 1909 
Q 1175 2209 1959 2209 
L 2766 2209 
L 2766 2266 
Q 2766 2663 2505 2880 
Q 2244 3097 1772 3097 
Q 1472 3097 1187 3025 
Q 903 2953 641 2809 
L 641 3341 
Q 956 3463 1253 3523 
Q 1550 3584 1831 3584 
Q 2591 3584 2966 3190 
Q 3341 2797 3341 1997 
z
" transform="scale(0.015625)"/>
      <path id="DejaVuSans-6e" d="M 3513 2113 
L 3513 0 
L 2938 0 
L 2938 2094 
Q 2938 2591 2744 2837 
Q 2550 3084 2163 3084 
Q 1697 3084 1428 2787 
Q 1159 2491 1159 1978 
L 1159 0 
L 581 0 
L 581 3500 
L 1159 3500 
L 1159 2956 
Q 1366 3272 1645 3428 
Q 1925 3584 2291 3584 
Q 2894 3584 3203 3211 
Q 3513 2838 3513 2113 
z
" transform="scale(0.015625)"/>
      <path id="DejaVuSans-73" d="M 2834 3397 
L 2834 2853 
Q 2591 2978 2328 3040 
Q 2066 3103 1784 3103 
Q 1356 3103 1142 2972 
Q 928 2841 928 2578 
Q 928 2378 1081 2264 
Q 1234 2150 1697 2047 
L 1894 2003 
Q 2506 1872 2764 1633 
Q 3022 1394 3022 966 
Q 3022 478 2636 193 
Q 2250 -91 1575 -91 
Q 1294 -91 989 -36 
Q 684 19 347 128 
L 347 722 
Q 666 556 975 473 
Q 1284 391 1588 391 
Q 1994 391 2212 530 
Q 2431 669 2431 922 
Q 2431 1156 2273 1281 
Q 2116 1406 1581 1522 
L 1381 1569 
Q 847 1681 609 1914 
Q 372 2147 372 2553 
Q 372 3047 722 3315 
Q 1072 3584 1716 3584 
Q 2034 3584 2315 3537 
Q 2597 3491 2834 3397 
z
" transform="scale(0.015625)"/>
      <path id="DejaVuSans-66" d="M 2375 4863 
L 2375 4384 
L 1825 4384 
Q 1516 4384 1395 4259 
Q 1275 4134 1275 3809 
L 1275 3500 
L 2222 3500 
L 2222 3053 
L 1275 3053 
L 1275 0 
L 697 0 
L 697 3053 
L 147 3053 
L 147 3500 
L 697 3500 
L 697 3744 
Q 697 4328 969 4595 
Q 1241 4863 1831 4863 
L 2375 4863 
z
" transform="scale(0.015625)"/>
      <path id="DejaVuSans-6f" d="M 1959 3097 
Q 1497 3097 1228 2736 
Q 959 2375 959 1747 
Q 959 1119 1226 758 
Q 1494 397 1959 397 
Q 2419 397 2687 759 
Q 2956 1122 2956 1747 
Q 2956 2369 2687 2733 
Q 2419 3097 1959 3097 
z
M 1959 3584 
Q 2709 3584 3137 3096 
Q 3566 2609 3566 1747 
Q 3566 888 3137 398 
Q 2709 -91 1959 -91 
Q 1206 -91 779 398 
Q 353 888 353 1747 
Q 353 2609 779 3096 
Q 1206 3584 1959 3584 
z
" transform="scale(0.015625)"/>
      <path id="DejaVuSans-6d" d="M 3328 2828 
Q 3544 3216 3844 3400 
Q 4144 3584 4550 3584 
Q 5097 3584 5394 3201 
Q 5691 2819 5691 2113 
L 5691 0 
L 5113 0 
L 5113 2094 
Q 5113 2597 4934 2840 
Q 4756 3084 4391 3084 
Q 3944 3084 3684 2787 
Q 3425 2491 3425 1978 
L 3425 0 
L 2847 0 
L 2847 2094 
Q 2847 2600 2669 2842 
Q 2491 3084 2119 3084 
Q 1678 3084 1418 2786 
Q 1159 2488 1159 1978 
L 1159 0 
L 581 0 
L 581 3500 
L 1159 3500 
L 1159 2956 
Q 1356 3278 1631 3431 
Q 1906 3584 2284 3584 
Q 2666 3584 2933 3390 
Q 3200 3197 3328 2828 
z
" transform="scale(0.015625)"/>
      <path id="DejaVuSans-69" d="M 603 3500 
L 1178 3500 
L 1178 0 
L 603 0 
L 603 3500 
z
M 603 4863 
L 1178 4863 
L 1178 4134 
L 603 4134 
L 603 4863 
z
" transform="scale(0.015625)"/>
      <path id="DejaVuSans-28" d="M 1984 4856 
Q 1566 4138 1362 3434 
Q 1159 2731 1159 2009 
Q 1159 1288 1364 580 
Q 1569 -128 1984 -844 
L 1484 -844 
Q 1016 -109 783 600 
Q 550 1309 550 2009 
Q 550 2706 781 3412 
Q 1013 4119 1484 4856 
L 1984 4856 
z
" transform="scale(0.015625)"/>
      <path id="DejaVuSans-29" d="M 513 4856 
L 1013 4856 
Q 1481 4119 1714 3412 
Q 1947 2706 1947 2009 
Q 1947 1309 1714 600 
Q 1481 -109 1013 -844 
L 513 -844 
Q 928 -128 1133 580 
Q 1338 1288 1338 2009 
Q 1338 2731 1133 3434 
Q 928 4138 513 4856 
z
" transform="scale(0.015625)"/>
     </defs>
     <use xlink:href="#DejaVuSans-31"/>
     <use xlink:href="#DejaVuSans-20" x="63.623047"/>
     <use xlink:href="#DejaVuSans-74" x="95.410156"/>
     <use xlink:href="#DejaVuSans-72" x="134.619141"/>
     <use xlink:href="#DejaVuSans-61" x="175.732422"/>
     <use xlink:href="#DejaVuSans-6e" x="237.011719"/>
     <use xlink:href="#DejaVuSans-73" x="300.390625"/>
     <use xlink:href="#DejaVuSans-66" x="352.490234"/>
     <use xlink:href="#DejaVuSans-6f" x="387.695312"/>
     <use xlink:href="#DejaVuSans-72" x="448.876953"/>
     <use xlink:href="#DejaVuSans-6d" x="488.240234"/>
     <use xlink:href="#DejaVuSans-61" x="585.652344"/>
     <use xlink:href="#DejaVuSans-74" x="646.931641"/>
     <use xlink:href="#DejaVuSans-69" x="686.140625"/>
     <use xlink:href="#DejaVuSans-6f" x="713.923828"/>
     <use xlink:href="#DejaVuSans-6e" x="775.105469"/>
     <use xlink:href="#DejaVuSans-28" x="838.484375"/>
     <use xlink:href="#DejaVuSans-73" x="877.498047"/>
     <use xlink:href="#DejaVuSans-29" x="929.597656"/>
    </g>
   </g>
   <g id="legend_1">
    <g id="patch_7">
     <path d="M 613.742386 80.79625 
L 695.136136 80.79625 
Q 697.136136 80.79625 697.136136 78.79625 
L 697.136136 50.44 
Q 697.136136 48.44 695.136136 48.44 
L 613.742386 48.44 
Q 611.742386 48.44 611.742386 50.44 
L 611.742386 78.79625 
Q 611.742386 80.79625 613.742386 80.79625 
z
" style="fill: #ffffff; opacity: 0.8; stroke: #cccccc; stroke-linejoin: miter"/>
    </g>
    <g id="line2d_17">
     <path d="M 615.742386 56.538437 
L 625.742386 56.538437 
L 635.742386 56.538437 
" style="fill: none; stroke: #1f77b4; stroke-width: 1.5; stroke-linecap: square"/>
    </g>
    <g id="text_16">
     <!-- observed -->
     <g transform="translate(643.742386 60.038437) scale(0.1 -0.1)">
      <defs>
       <path id="DejaVuSans-62" d="M 3116 1747 
Q 3116 2381 2855 2742 
Q 2594 3103 2138 3103 
Q 1681 3103 1420 2742 
Q 1159 2381 1159 1747 
Q 1159 1113 1420 752 
Q 1681 391 2138 391 
Q 2594 391 2855 752 
Q 3116 1113 3116 1747 
z
M 1159 2969 
Q 1341 3281 1617 3432 
Q 1894 3584 2278 3584 
Q 2916 3584 3314 3078 
Q 3713 2572 3713 1747 
Q 3713 922 3314 415 
Q 2916 -91 2278 -91 
Q 1894 -91 1617 61 
Q 1341 213 1159 525 
L 1159 0 
L 581 0 
L 581 4863 
L 1159 4863 
L 1159 2969 
z
" transform="scale(0.015625)"/>
       <path id="DejaVuSans-65" d="M 3597 1894 
L 3597 1613 
L 953 1613 
Q 991 1019 1311 708 
Q 1631 397 2203 397 
Q 2534 397 2845 478 
Q 3156 559 3463 722 
L 3463 178 
Q 3153 47 2828 -22 
Q 2503 -91 2169 -91 
Q 1331 -91 842 396 
Q 353 884 353 1716 
Q 353 2575 817 3079 
Q 1281 3584 2069 3584 
Q 2775 3584 3186 3129 
Q 3597 2675 3597 1894 
z
M 3022 2063 
Q 3016 2534 2758 2815 
Q 2500 3097 2075 3097 
Q 1594 3097 1305 2825 
Q 1016 2553 972 2059 
L 3022 2063 
z
" transform="scale(0.015625)"/>
       <path id="DejaVuSans-76" d="M 191 3500 
L 800 3500 
L 1894 563 
L 2988 3500 
L 3597 3500 
L 2284 0 
L 1503 0 
L 191 3500 
z
" transform="scale(0.015625)"/>
       <path id="DejaVuSans-64" d="M 2906 2969 
L 2906 4863 
L 3481 4863 
L 3481 0 
L 2906 0 
L 2906 525 
Q 2725 213 2448 61 
Q 2172 -91 1784 -91 
Q 1150 -91 751 415 
Q 353 922 353 1747 
Q 353 2572 751 3078 
Q 1150 3584 1784 3584 
Q 2172 3584 2448 3432 
Q 2725 3281 2906 2969 
z
M 947 1747 
Q 947 1113 1208 752 
Q 1469 391 1925 391 
Q 2381 391 2643 752 
Q 2906 1113 2906 1747 
Q 2906 2381 2643 2742 
Q 2381 3103 1925 3103 
Q 1469 3103 1208 2742 
Q 947 2381 947 1747 
z
" transform="scale(0.015625)"/>
      </defs>
      <use xlink:href="#DejaVuSans-6f"/>
      <use xlink:href="#DejaVuSans-62" x="61.181641"/>
      <use xlink:href="#DejaVuSans-73" x="124.658203"/>
      <use xlink:href="#DejaVuSans-65" x="176.757812"/>
      <use xlink:href="#DejaVuSans-72" x="238.28125"/>
      <use xlink:href="#DejaVuSans-76" x="279.394531"/>
      <use xlink:href="#DejaVuSans-65" x="338.574219"/>
      <use xlink:href="#DejaVuSans-64" x="400.097656"/>
     </g>
    </g>
    <g id="line2d_18">
     <path d="M 615.742386 71.216563 
L 625.742386 71.216563 
L 635.742386 71.216563 
" style="fill: none; stroke: #ff7f0e; stroke-width: 1.5; stroke-linecap: square"/>
    </g>
    <g id="text_17">
     <!-- simulated -->
     <g transform="translate(643.742386 74.716563) scale(0.1 -0.1)">
      <defs>
       <path id="DejaVuSans-75" d="M 544 1381 
L 544 3500 
L 1119 3500 
L 1119 1403 
Q 1119 906 1312 657 
Q 1506 409 1894 409 
Q 2359 409 2629 706 
Q 2900 1003 2900 1516 
L 2900 3500 
L 3475 3500 
L 3475 0 
L 2900 0 
L 2900 538 
Q 2691 219 2414 64 
Q 2138 -91 1772 -91 
Q 1169 -91 856 284 
Q 544 659 544 1381 
z
M 1991 3584 
L 1991 3584 
z
" transform="scale(0.015625)"/>
       <path id="DejaVuSans-6c" d="M 603 4863 
L 1178 4863 
L 1178 0 
L 603 0 
L 603 4863 
z
" transform="scale(0.015625)"/>
      </defs>
      <use xlink:href="#DejaVuSans-73"/>
      <use xlink:href="#DejaVuSans-69" x="52.099609"/>
      <use xlink:href="#DejaVuSans-6d" x="79.882812"/>
      <use xlink:href="#DejaVuSans-75" x="177.294922"/>
      <use xlink:href="#DejaVuSans-6c" x="240.673828"/>
      <use xlink:href="#DejaVuSans-61" x="268.457031"/>
      <use xlink:href="#DejaVuSans-74" x="329.736328"/>
      <use xlink:href="#DejaVuSans-65" x="368.945312"/>
      <use xlink:href="#DejaVuSans-64" x="430.46875"/>
     </g>
    </g>
   </g>
  </g>
  <g id="axes_2">
   <g id="patch_8">
    <path d="M 20.5625 684.92 
L 702.136136 684.92 
L 702.136136 386.16 
L 20.5625 386.16 
z
" style="fill: #ffffff"/>
   </g>
   <g id="matplotlib.axis_3">
    <g id="xtick_7">
     <g id="line2d_19">
      <g>
       <use xlink:href="#m0de79c9d8b" x="51.370957" y="684.92" style="stroke: #000000; stroke-width: 0.8"/>
      </g>
     </g>
     <g id="text_18">
      <!-- 2014-07-01 -->
      <g transform="translate(22.313145 699.518437) scale(0.1 -0.1)">
       <use xlink:href="#DejaVuSans-32"/>
       <use xlink:href="#DejaVuSans-30" x="63.623047"/>
       <use xlink:href="#DejaVuSans-31" x="127.246094"/>
       <use xlink:href="#DejaVuSans-34" x="190.869141"/>
       <use xlink:href="#DejaVuSans-2d" x="254.492188"/>
       <use xlink:href="#DejaVuSans-30" x="290.576172"/>
       <use xlink:href="#DejaVuSans-37" x="354.199219"/>
       <use xlink:href="#DejaVuSans-2d" x="417.822266"/>
       <use xlink:href="#DejaVuSans-30" x="453.90625"/>
       <use xlink:href="#DejaVuSans-31" x="517.529297"/>
      </g>
     </g>
    </g>
    <g id="xtick_8">
     <g id="line2d_20">
      <g>
       <use xlink:href="#m0de79c9d8b" x="175.327869" y="684.92" style="stroke: #000000; stroke-width: 0.8"/>
      </g>
     </g>
     <g id="text_19">
      <!-- 2014-07-02 -->
      <g transform="translate(146.270057 699.518437) scale(0.1 -0.1)">
       <use xlink:href="#DejaVuSans-32"/>
       <use xlink:href="#DejaVuSans-30" x="63.623047"/>
       <use xlink:href="#DejaVuSans-31" x="127.246094"/>
       <use xlink:href="#DejaVuSans-34" x="190.869141"/>
       <use xlink:href="#DejaVuSans-2d" x="254.492188"/>
       <use xlink:href="#DejaVuSans-30" x="290.576172"/>
       <use xlink:href="#DejaVuSans-37" x="354.199219"/>
       <use xlink:href="#DejaVuSans-2d" x="417.822266"/>
       <use xlink:href="#DejaVuSans-30" x="453.90625"/>
       <use xlink:href="#DejaVuSans-32" x="517.529297"/>
      </g>
     </g>
    </g>
    <g id="xtick_9">
     <g id="line2d_21">
      <g>
       <use xlink:href="#m0de79c9d8b" x="299.284781" y="684.92" style="stroke: #000000; stroke-width: 0.8"/>
      </g>
     </g>
     <g id="text_20">
      <!-- 2014-07-03 -->
      <g transform="translate(270.226969 699.518437) scale(0.1 -0.1)">
       <use xlink:href="#DejaVuSans-32"/>
       <use xlink:href="#DejaVuSans-30" x="63.623047"/>
       <use xlink:href="#DejaVuSans-31" x="127.246094"/>
       <use xlink:href="#DejaVuSans-34" x="190.869141"/>
       <use xlink:href="#DejaVuSans-2d" x="254.492188"/>
       <use xlink:href="#DejaVuSans-30" x="290.576172"/>
       <use xlink:href="#DejaVuSans-37" x="354.199219"/>
       <use xlink:href="#DejaVuSans-2d" x="417.822266"/>
       <use xlink:href="#DejaVuSans-30" x="453.90625"/>
       <use xlink:href="#DejaVuSans-33" x="517.529297"/>
      </g>
     </g>
    </g>
    <g id="xtick_10">
     <g id="line2d_22">
      <g>
       <use xlink:href="#m0de79c9d8b" x="423.241693" y="684.92" style="stroke: #000000; stroke-width: 0.8"/>
      </g>
     </g>
     <g id="text_21">
      <!-- 2014-07-04 -->
      <g transform="translate(394.18388 699.518437) scale(0.1 -0.1)">
       <use xlink:href="#DejaVuSans-32"/>
       <use xlink:href="#DejaVuSans-30" x="63.623047"/>
       <use xlink:href="#DejaVuSans-31" x="127.246094"/>
       <use xlink:href="#DejaVuSans-34" x="190.869141"/>
       <use xlink:href="#DejaVuSans-2d" x="254.492188"/>
       <use xlink:href="#DejaVuSans-30" x="290.576172"/>
       <use xlink:href="#DejaVuSans-37" x="354.199219"/>
       <use xlink:href="#DejaVuSans-2d" x="417.822266"/>
       <use xlink:href="#DejaVuSans-30" x="453.90625"/>
       <use xlink:href="#DejaVuSans-34" x="517.529297"/>
      </g>
     </g>
    </g>
    <g id="xtick_11">
     <g id="line2d_23">
      <g>
       <use xlink:href="#m0de79c9d8b" x="547.198605" y="684.92" style="stroke: #000000; stroke-width: 0.8"/>
      </g>
     </g>
     <g id="text_22">
      <!-- 2014-07-05 -->
      <g transform="translate(518.140792 699.518437) scale(0.1 -0.1)">
       <use xlink:href="#DejaVuSans-32"/>
       <use xlink:href="#DejaVuSans-30" x="63.623047"/>
       <use xlink:href="#DejaVuSans-31" x="127.246094"/>
       <use xlink:href="#DejaVuSans-34" x="190.869141"/>
       <use xlink:href="#DejaVuSans-2d" x="254.492188"/>
       <use xlink:href="#DejaVuSans-30" x="290.576172"/>
       <use xlink:href="#DejaVuSans-37" x="354.199219"/>
       <use xlink:href="#DejaVuSans-2d" x="417.822266"/>
       <use xlink:href="#DejaVuSans-30" x="453.90625"/>
       <use xlink:href="#DejaVuSans-35" x="517.529297"/>
      </g>
     </g>
    </g>
    <g id="xtick_12">
     <g id="line2d_24">
      <g>
       <use xlink:href="#m0de79c9d8b" x="671.155517" y="684.92" style="stroke: #000000; stroke-width: 0.8"/>
      </g>
     </g>
     <g id="text_23">
      <!-- 2014-07-06 -->
      <g transform="translate(642.097704 699.518437) scale(0.1 -0.1)">
       <use xlink:href="#DejaVuSans-32"/>
       <use xlink:href="#DejaVuSans-30" x="63.623047"/>
       <use xlink:href="#DejaVuSans-31" x="127.246094"/>
       <use xlink:href="#DejaVuSans-34" x="190.869141"/>
       <use xlink:href="#DejaVuSans-2d" x="254.492188"/>
       <use xlink:href="#DejaVuSans-30" x="290.576172"/>
       <use xlink:href="#DejaVuSans-37" x="354.199219"/>
       <use xlink:href="#DejaVuSans-2d" x="417.822266"/>
       <use xlink:href="#DejaVuSans-30" x="453.90625"/>
       <use xlink:href="#DejaVuSans-36" x="517.529297"/>
      </g>
     </g>
    </g>
   </g>
   <g id="matplotlib.axis_4">
    <g id="ytick_9">
     <g id="line2d_25">
      <g>
       <use xlink:href="#mda1244ab7f" x="20.5625" y="667.170147" style="stroke: #000000; stroke-width: 0.8"/>
      </g>
     </g>
     <g id="text_24">
      <!-- 0 -->
      <g transform="translate(7.2 670.969366) scale(0.1 -0.1)">
       <use xlink:href="#DejaVuSans-30"/>
      </g>
     </g>
    </g>
    <g id="ytick_10">
     <g id="line2d_26">
      <g>
       <use xlink:href="#mda1244ab7f" x="20.5625" y="629.274524" style="stroke: #000000; stroke-width: 0.8"/>
      </g>
     </g>
     <g id="text_25">
      <!-- 1 -->
      <g transform="translate(7.2 633.073743) scale(0.1 -0.1)">
       <use xlink:href="#DejaVuSans-31"/>
      </g>
     </g>
    </g>
    <g id="ytick_11">
     <g id="line2d_27">
      <g>
       <use xlink:href="#mda1244ab7f" x="20.5625" y="591.378901" style="stroke: #000000; stroke-width: 0.8"/>
      </g>
     </g>
     <g id="text_26">
      <!-- 2 -->
      <g transform="translate(7.2 595.17812) scale(0.1 -0.1)">
       <use xlink:href="#DejaVuSans-32"/>
      </g>
     </g>
    </g>
    <g id="ytick_12">
     <g id="line2d_28">
      <g>
       <use xlink:href="#mda1244ab7f" x="20.5625" y="553.483278" style="stroke: #000000; stroke-width: 0.8"/>
      </g>
     </g>
     <g id="text_27">
      <!-- 3 -->
      <g transform="translate(7.2 557.282497) scale(0.1 -0.1)">
       <use xlink:href="#DejaVuSans-33"/>
      </g>
     </g>
    </g>
    <g id="ytick_13">
     <g id="line2d_29">
      <g>
       <use xlink:href="#mda1244ab7f" x="20.5625" y="515.587655" style="stroke: #000000; stroke-width: 0.8"/>
      </g>
     </g>
     <g id="text_28">
      <!-- 4 -->
      <g transform="translate(7.2 519.386874) scale(0.1 -0.1)">
       <use xlink:href="#DejaVuSans-34"/>
      </g>
     </g>
    </g>
    <g id="ytick_14">
     <g id="line2d_30">
      <g>
       <use xlink:href="#mda1244ab7f" x="20.5625" y="477.692032" style="stroke: #000000; stroke-width: 0.8"/>
      </g>
     </g>
     <g id="text_29">
      <!-- 5 -->
      <g transform="translate(7.2 481.491251) scale(0.1 -0.1)">
       <use xlink:href="#DejaVuSans-35"/>
      </g>
     </g>
    </g>
    <g id="ytick_15">
     <g id="line2d_31">
      <g>
       <use xlink:href="#mda1244ab7f" x="20.5625" y="439.796409" style="stroke: #000000; stroke-width: 0.8"/>
      </g>
     </g>
     <g id="text_30">
      <!-- 6 -->
      <g transform="translate(7.2 443.595628) scale(0.1 -0.1)">
       <use xlink:href="#DejaVuSans-36"/>
      </g>
     </g>
    </g>
    <g id="ytick_16">
     <g id="line2d_32">
      <g>
       <use xlink:href="#mda1244ab7f" x="20.5625" y="401.900786" style="stroke: #000000; stroke-width: 0.8"/>
      </g>
     </g>
     <g id="text_31">
      <!-- 7 -->
      <g transform="translate(7.2 405.700005) scale(0.1 -0.1)">
       <use xlink:href="#DejaVuSans-37"/>
      </g>
     </g>
    </g>
   </g>
   <g id="line2d_33">
    <path d="M 51.54312 667.170147 
L 58.429615 667.071972 
L 59.54867 666.782933 
L 61.270294 666.286716 
L 62.733674 666.148255 
L 65.574354 666.16569 
L 67.295977 666.058616 
L 68.328952 665.792007 
L 68.845439 665.43366 
L 69.361926 664.713317 
L 69.964494 663.448529 
L 71.08355 660.733389 
L 72.54693 654.338418 
L 73.149498 653.051976 
L 73.752067 652.370722 
L 74.096391 652.127153 
L 74.440716 651.856028 
L 74.526797 651.862759 
L 74.785041 651.67025 
L 75.043284 651.458093 
L 75.129366 651.492914 
L 75.47369 651.20501 
L 75.559771 651.282343 
L 75.645853 651.099093 
L 75.731934 651.184956 
L 75.904096 651.048237 
L 76.592746 650.620017 
L 76.678827 650.727164 
L 76.764908 650.54001 
L 76.850989 650.645913 
L 76.937071 650.46182 
L 77.023152 650.577894 
L 77.109233 650.388854 
L 77.195314 650.495925 
L 77.281395 650.318125 
L 77.367476 650.408427 
L 77.453558 650.255125 
L 77.539639 650.346646 
L 77.711801 650.242989 
L 77.970045 650.105089 
L 78.228288 649.94021 
L 78.31437 650.026148 
L 78.400451 649.867062 
L 78.486532 649.947458 
L 78.658694 649.827907 
L 78.916938 649.772374 
L 79.003019 649.638715 
L 79.0891 649.701769 
L 79.261263 649.595772 
L 79.347344 649.611945 
L 79.519506 649.570739 
L 79.691669 649.477466 
L 80.035993 649.380059 
L 81.413292 648.922668 
L 81.929779 648.645478 
L 82.360185 648.505168 
L 83.307078 648.536844 
L 84.512215 648.771332 
L 84.770459 648.672535 
L 84.942621 648.551329 
L 85.373027 647.845404 
L 85.717352 647.078705 
L 85.975595 645.710157 
L 86.31992 642.382087 
L 86.750326 636.39218 
L 89.93533 584.156559 
L 94.928039 512.346378 
L 98.801692 466.430909 
L 100.351154 450.663497 
L 101.556291 441.531531 
L 103.191833 430.788928 
L 105.688188 418.319497 
L 106.548999 415.092422 
L 107.668055 411.72713 
L 109.217516 408.525426 
L 110.078328 407.369468 
L 110.853059 406.66882 
L 111.62779 406.261575 
L 112.316439 406.130278 
L 113.09117 406.212497 
L 113.951982 406.556027 
L 115.071037 407.28022 
L 116.190093 408.256942 
L 117.395229 409.6333 
L 118.514285 411.245401 
L 119.891584 413.664889 
L 121.527126 417.100384 
L 123.506994 421.909002 
L 125.745105 427.914851 
L 134.525386 452.681686 
L 136.677416 459.596567 
L 139.432014 469.566911 
L 139.948501 471.899373 
L 141.756206 481.950942 
L 143.736073 491.795266 
L 144.596885 496.218306 
L 147.179321 510.15824 
L 149.417431 521.048214 
L 153.63541 540.170555 
L 161.468798 572.809269 
L 169.56043 602.182938 
L 171.02381 606.461228 
L 172.573271 610.87592 
L 173.089758 613.930073 
L 173.864489 620.15195 
L 175.586113 634.156433 
L 177.479899 647.815861 
L 177.996386 652.234973 
L 178.340711 653.406962 
L 178.685036 653.920301 
L 179.115442 654.176168 
L 182.816933 655.390601 
L 186.776667 657.50289 
L 187.207073 657.363767 
L 187.895723 656.796711 
L 188.498291 656.389745 
L 188.928697 656.309851 
L 189.531265 656.43768 
L 190.133834 656.570843 
L 190.650321 656.452369 
L 191.769376 656.015908 
L 192.199782 656.150114 
L 192.716269 656.576372 
L 193.663162 657.747059 
L 195.212624 659.645821 
L 196.417761 660.781136 
L 197.708978 661.701911 
L 199.25844 662.524773 
L 200.893982 663.152469 
L 201.324388 662.724602 
L 201.496551 661.367723 
L 201.840875 656.858882 
L 201.926957 656.889343 
L 202.099119 656.452305 
L 203.562499 651.142337 
L 204.423311 649.702052 
L 205.542367 648.607851 
L 207.522234 647.727729 
L 209.674264 647.468198 
L 211.137644 647.320216 
L 211.395887 646.815633 
L 211.740212 645.435657 
L 212.256699 641.948397 
L 213.03143 634.196431 
L 216.732921 588.566444 
L 217.593733 580.581148 
L 218.454545 573.743562 
L 219.659681 565.885353 
L 220.606575 561.01404 
L 221.209143 558.705222 
L 221.897792 557.189453 
L 222.328198 556.44953 
L 223.18901 555.58907 
L 223.705497 555.389351 
L 224.308066 555.448305 
L 224.738472 555.665886 
L 225.34104 556.201302 
L 226.115771 557.265591 
L 227.148745 559.265222 
L 228.095638 561.603006 
L 229.386856 565.340397 
L 231.711048 572.838524 
L 233.949159 580.318717 
L 235.756864 585.791274 
L 242.040791 603.435477 
L 243.41809 607.080764 
L 245.139713 610.963036 
L 246.775256 614.433288 
L 247.291743 616.883929 
L 247.980393 621.631886 
L 249.615935 635.050522 
L 251.165397 649.124333 
L 251.509721 652.291704 
L 251.854046 653.839513 
L 252.284452 654.785582 
L 252.800939 655.341736 
L 253.231345 655.600606 
L 253.747832 655.67575 
L 254.264319 655.495889 
L 255.469456 654.876494 
L 256.158106 654.873402 
L 256.760674 655.132554 
L 257.707567 655.61072 
L 260.203921 656.710318 
L 260.80649 656.527567 
L 261.58122 656.071007 
L 262.26987 655.734787 
L 262.958519 655.589599 
L 263.73325 655.463349 
L 264.163656 655.184518 
L 264.4219 654.932999 
L 265.282712 653.945373 
L 265.627036 653.835749 
L 265.971361 653.951875 
L 266.401767 654.363717 
L 268.295553 656.689628 
L 268.725959 656.80419 
L 269.070284 656.700038 
L 269.586771 656.192663 
L 270.791908 654.571189 
L 271.136232 654.477307 
L 271.480557 654.595928 
L 272.083125 655.093815 
L 273.288262 656.134277 
L 273.718668 656.175001 
L 274.149074 655.962635 
L 275.095967 655.394047 
L 276.215022 655.209537 
L 276.903672 655.029147 
L 278.108809 654.620025 
L 278.539215 654.78589 
L 279.055702 655.289842 
L 279.830432 656.422062 
L 281.638137 659.091927 
L 282.58503 660.152528 
L 283.790167 661.192304 
L 285.167466 662.07574 
L 286.630846 662.75052 
L 287.319496 662.902191 
L 288.008145 662.850807 
L 288.868957 662.508833 
L 289.901932 662.146656 
L 290.848825 662.066479 
L 291.96788 662.21716 
L 294.550316 662.531093 
L 298.165726 662.552036 
L 298.768294 662.172781 
L 299.284781 661.49012 
L 299.973431 660.114687 
L 301.006405 657.405805 
L 302.469785 653.543945 
L 303.072353 652.80495 
L 303.674922 652.401562 
L 304.621815 651.98423 
L 304.880058 651.900956 
L 305.224383 651.633485 
L 305.396545 651.592501 
L 305.654789 651.401859 
L 305.74087 651.467996 
L 305.913033 651.317058 
L 305.999114 651.321601 
L 306.085195 651.165468 
L 306.171276 651.271115 
L 306.257357 651.075022 
L 306.343439 651.193227 
L 306.42952 650.99197 
L 306.515601 651.058443 
L 306.859926 650.809603 
L 306.946007 650.876524 
L 307.032088 650.689385 
L 307.118169 650.815047 
L 307.20425 650.603828 
L 307.290332 650.752484 
L 307.376413 650.519282 
L 307.462494 650.665645 
L 307.548575 650.442218 
L 307.634656 650.587828 
L 307.720738 650.355124 
L 307.806819 650.503798 
L 307.8929 650.286498 
L 307.978981 650.424133 
L 308.065062 650.236253 
L 308.151144 650.3284 
L 308.237225 650.172357 
L 308.323306 650.222056 
L 308.581549 650.064123 
L 308.839793 649.902049 
L 308.925874 650.004708 
L 309.011955 649.84428 
L 309.098037 649.913315 
L 309.442361 649.697053 
L 309.528443 649.776584 
L 309.614524 649.635962 
L 309.700605 649.707869 
L 310.04493 649.494154 
L 310.131011 649.566311 
L 310.303173 649.454982 
L 310.389254 649.503403 
L 310.475336 649.388834 
L 310.561417 649.457875 
L 310.905742 649.30239 
L 311.077904 649.330011 
L 311.336148 649.227299 
L 311.852635 648.953821 
L 313.229934 648.480874 
L 313.918583 648.544177 
L 314.779395 648.7783 
L 315.209801 648.906493 
L 317.103587 649.574991 
L 323.301433 651.753012 
L 325.2813 652.40414 
L 325.453462 652.724271 
L 325.96995 654.22094 
L 326.830761 656.773407 
L 327.347249 658.015892 
L 327.605492 658.43289 
L 327.949817 659.107501 
L 328.294142 659.581271 
L 328.89671 660.352701 
L 329.843603 661.268096 
L 330.962659 662.055513 
L 332.339958 662.759522 
L 334.061581 663.392171 
L 336.557936 664.033759 
L 339.484696 664.552952 
L 343.272269 665.011783 
L 348.781465 665.444037 
L 356.787015 665.830566 
L 368.063651 666.150661 
L 386.398944 666.433128 
L 416.355198 666.662877 
L 478.850141 666.867212 
L 621.228427 667.018648 
L 671.155517 667.042122 
L 671.155517 667.042122 
" clip-path="url(#p58a81c80cd)" style="fill: none; stroke: #1f77b4; stroke-width: 1.5; stroke-linecap: square"/>
   </g>
   <g id="line2d_34">
    <path d="M 51.54312 667.170147 
L 53.264744 667.071981 
L 55.15853 666.654714 
L 58.946102 665.810128 
L 60.151239 665.728978 
L 61.270294 665.886559 
L 62.991918 666.391494 
L 65.057866 666.972623 
L 66.00476 666.98854 
L 66.951653 666.765702 
L 68.070708 666.249315 
L 69.361926 665.330779 
L 71.686118 663.224577 
L 72.54693 662.252835 
L 73.665985 660.707991 
L 76.764908 655.875099 
L 78.916938 652.124914 
L 81.24113 647.511019 
L 82.962754 643.143759 
L 83.651403 642.0378 
L 84.684378 640.641219 
L 85.028702 639.538761 
L 85.545189 636.998363 
L 86.061677 633.012908 
L 86.578164 627.212733 
L 87.266813 617.105425 
L 88.816275 590.653874 
L 90.365736 566.674556 
L 92.345603 539.613405 
L 94.583714 512.345018 
L 97.596556 476.200136 
L 99.232098 453.6454 
L 100.178991 444.472623 
L 101.298047 435.818654 
L 102.503184 428.16342 
L 103.880483 420.890955 
L 105.429944 413.863449 
L 106.807243 408.527499 
L 107.926298 404.991876 
L 108.873192 402.670271 
L 109.734003 401.13443 
L 110.422653 400.312957 
L 111.025221 399.893025 
L 111.62779 399.740221 
L 112.230358 399.841557 
L 112.832926 400.182323 
L 114.898875 401.944995 
L 115.587524 402.74859 
L 116.362255 404.029019 
L 117.309148 406.081656 
L 118.600366 409.472567 
L 120.494152 415.131833 
L 128.32754 439.26688 
L 130.393489 444.634633 
L 132.545518 450.081607 
L 133.750655 453.90474 
L 135.300116 459.647928 
L 137.538227 468.890627 
L 141.497962 485.393054 
L 144.166479 495.35249 
L 151.052974 522.222555 
L 156.906495 547.288156 
L 166.031101 589.849732 
L 169.043942 604.204736 
L 170.851647 611.868471 
L 174.983545 628.513048 
L 176.791249 634.243495 
L 178.082467 637.716644 
L 180.062335 642.255735 
L 181.611796 645.399524 
L 184.624638 651.036766 
L 186.776667 654.56523 
L 187.981804 655.854581 
L 190.305996 658.126809 
L 192.285863 659.635533 
L 193.491 661.018331 
L 197.364654 665.671233 
L 199.086277 667.289486 
L 200.72182 668.533277 
L 200.980064 668.62795 
L 201.238307 668.470708 
L 201.582632 667.995736 
L 202.099119 666.738299 
L 202.787768 664.518216 
L 207.608315 647.576816 
L 209.674264 641.396741 
L 211.395887 636.876935 
L 212.428862 634.041725 
L 213.117511 631.671364 
L 213.720079 628.890001 
L 214.236567 625.247411 
L 215.269541 615.073984 
L 216.216434 607.044128 
L 217.335489 599.455875 
L 218.454545 593.347777 
L 219.487519 588.905201 
L 220.520493 585.463385 
L 221.467386 583.025846 
L 222.41428 581.177734 
L 223.275091 579.976153 
L 224.049822 579.277752 
L 224.738472 578.961622 
L 225.34104 578.920552 
L 225.943608 579.098771 
L 226.632258 579.557279 
L 227.49307 580.444853 
L 228.870369 582.288332 
L 229.903343 583.978094 
L 231.022398 586.275397 
L 233.34659 591.795228 
L 238.253218 604.321104 
L 243.41809 619.422527 
L 246.34485 627.069063 
L 248.49688 632.936383 
L 250.476747 638.041128 
L 252.284452 641.778334 
L 253.919995 644.763124 
L 255.555537 647.144942 
L 260.462165 653.751901 
L 261.839464 654.980702 
L 263.647169 656.318937 
L 264.4219 656.617742 
L 265.713117 657.024645 
L 266.573929 657.570142 
L 268.553797 658.999815 
L 269.328527 659.278795 
L 270.533664 659.378726 
L 271.394476 659.605608 
L 274.235155 660.553722 
L 277.161916 660.819651 
L 278.19489 660.857833 
L 278.883539 661.107079 
L 279.744351 661.684706 
L 280.949488 662.801923 
L 285.081385 666.83324 
L 286.544765 667.945381 
L 287.233415 668.142061 
L 288.955038 668.538053 
L 290.590581 669.235119 
L 292.484367 670.010523 
L 297.132751 670.790593 
L 297.993563 670.662426 
L 298.940456 670.273543 
L 300.145593 669.47368 
L 301.35073 668.375532 
L 302.81411 666.708805 
L 303.761003 665.2511 
L 304.96614 663.00093 
L 308.667631 655.688732 
L 311.766553 648.931848 
L 313.316015 644.664612 
L 314.090746 643.202354 
L 314.779395 642.393618 
L 315.381963 641.999136 
L 316.070613 641.810582 
L 316.845344 641.833658 
L 317.792237 642.089833 
L 318.997373 642.680035 
L 320.546835 643.738119 
L 321.838053 644.862739 
L 322.957108 646.159244 
L 324.248326 648.031984 
L 326.228193 651.361261 
L 330.876577 659.179136 
L 332.942526 662.228987 
L 334.750231 664.522307 
L 336.471855 666.354401 
L 338.107397 667.779994 
L 339.74294 668.916729 
L 341.378482 669.791233 
L 343.100106 670.462928 
L 344.907811 670.934779 
L 346.97376 671.235626 
L 349.297952 671.339974 
L 352.138631 671.230414 
L 355.926203 670.841827 
L 364.448241 669.662475 
L 371.765142 668.780302 
L 378.565556 668.188231 
L 386.140701 667.756927 
L 395.609631 667.452843 
L 408.952216 667.2661 
L 433.571436 667.182104 
L 553.568613 667.170147 
L 671.155517 667.170147 
L 671.155517 667.170147 
" clip-path="url(#p58a81c80cd)" style="fill: none; stroke: #ff7f0e; stroke-width: 1.5; stroke-linecap: square"/>
   </g>
   <g id="patch_9">
    <path d="M 20.5625 684.92 
L 20.5625 386.16 
" style="fill: none; stroke: #000000; stroke-width: 0.8; stroke-linejoin: miter; stroke-linecap: square"/>
   </g>
   <g id="patch_10">
    <path d="M 702.136136 684.92 
L 702.136136 386.16 
" style="fill: none; stroke: #000000; stroke-width: 0.8; stroke-linejoin: miter; stroke-linecap: square"/>
   </g>
   <g id="patch_11">
    <path d="M 20.5625 684.92 
L 702.136136 684.92 
" style="fill: none; stroke: #000000; stroke-width: 0.8; stroke-linejoin: miter; stroke-linecap: square"/>
   </g>
   <g id="patch_12">
    <path d="M 20.5625 386.16 
L 702.136136 386.16 
" style="fill: none; stroke: #000000; stroke-width: 0.8; stroke-linejoin: miter; stroke-linecap: square"/>
   </g>
   <g id="text_32">
    <!-- 2 transformation(s) -->
    <g transform="translate(303.234631 380.16) scale(0.12 -0.12)">
     <use xlink:href="#DejaVuSans-32"/>
     <use xlink:href="#DejaVuSans-20" x="63.623047"/>
     <use xlink:href="#DejaVuSans-74" x="95.410156"/>
     <use xlink:href="#DejaVuSans-72" x="134.619141"/>
     <use xlink:href="#DejaVuSans-61" x="175.732422"/>
     <use xlink:href="#DejaVuSans-6e" x="237.011719"/>
     <use xlink:href="#DejaVuSans-73" x="300.390625"/>
     <use xlink:href="#DejaVuSans-66" x="352.490234"/>
     <use xlink:href="#DejaVuSans-6f" x="387.695312"/>
     <use xlink:href="#DejaVuSans-72" x="448.876953"/>
     <use xlink:href="#DejaVuSans-6d" x="488.240234"/>
     <use xlink:href="#DejaVuSans-61" x="585.652344"/>
     <use xlink:href="#DejaVuSans-74" x="646.931641"/>
     <use xlink:href="#DejaVuSans-69" x="686.140625"/>
     <use xlink:href="#DejaVuSans-6f" x="713.923828"/>
     <use xlink:href="#DejaVuSans-6e" x="775.105469"/>
     <use xlink:href="#DejaVuSans-28" x="838.484375"/>
     <use xlink:href="#DejaVuSans-73" x="877.498047"/>
     <use xlink:href="#DejaVuSans-29" x="929.597656"/>
    </g>
   </g>
  </g>
  <g id="text_33">
   <!-- training -->
   <g transform="translate(333.129063 16.318125) scale(0.12 -0.12)">
    <defs>
     <path id="DejaVuSans-67" d="M 2906 1791 
Q 2906 2416 2648 2759 
Q 2391 3103 1925 3103 
Q 1463 3103 1205 2759 
Q 947 2416 947 1791 
Q 947 1169 1205 825 
Q 1463 481 1925 481 
Q 2391 481 2648 825 
Q 2906 1169 2906 1791 
z
M 3481 434 
Q 3481 -459 3084 -895 
Q 2688 -1331 1869 -1331 
Q 1566 -1331 1297 -1286 
Q 1028 -1241 775 -1147 
L 775 -588 
Q 1028 -725 1275 -790 
Q 1522 -856 1778 -856 
Q 2344 -856 2625 -561 
Q 2906 -266 2906 331 
L 2906 616 
Q 2728 306 2450 153 
Q 2172 0 1784 0 
Q 1141 0 747 490 
Q 353 981 353 1791 
Q 353 2603 747 3093 
Q 1141 3584 1784 3584 
Q 2172 3584 2450 3431 
Q 2728 3278 2906 2969 
L 2906 3500 
L 3481 3500 
L 3481 434 
z
" transform="scale(0.015625)"/>
    </defs>
    <use xlink:href="#DejaVuSans-74"/>
    <use xlink:href="#DejaVuSans-72" x="39.208984"/>
    <use xlink:href="#DejaVuSans-61" x="80.322266"/>
    <use xlink:href="#DejaVuSans-69" x="141.601562"/>
    <use xlink:href="#DejaVuSans-6e" x="169.384766"/>
    <use xlink:href="#DejaVuSans-69" x="232.763672"/>
    <use xlink:href="#DejaVuSans-6e" x="260.546875"/>
    <use xlink:href="#DejaVuSans-67" x="323.925781"/>
   </g>
  </g>
 </g>
 <defs>
  <clipPath id="pf180b7b3a1">
   <rect x="20.5625" y="43.44" width="681.573636" height="298.76"/>
  </clipPath>
  <clipPath id="p58a81c80cd">
   <rect x="20.5625" y="386.16" width="681.573636" height="298.76"/>
  </clipPath>
 </defs>
</svg>
