<?xml version="1.0" encoding="utf-8" standalone="no"?>
<!DOCTYPE svg PUBLIC "-//W3C//DTD SVG 1.1//EN"
  "http://www.w3.org/Graphics/SVG/1.1/DTD/svg11.dtd">
<svg xmlns:xlink="http://www.w3.org/1999/xlink" width="709.426761pt" height="708.798125pt" viewBox="0 0 709.426761 708.798125" xmlns="http://www.w3.org/2000/svg" version="1.1">
 <metadata>
  <rdf:RDF xmlns:dc="http://purl.org/dc/elements/1.1/" xmlns:cc="http://creativecommons.org/ns#" xmlns:rdf="http://www.w3.org/1999/02/22-rdf-syntax-ns#">
   <cc:Work>
    <dc:type rdf:resource="http://purl.org/dc/dcmitype/StillImage"/>
    <dc:date>2023-06-01T23:39:43.741590</dc:date>
    <dc:format>image/svg+xml</dc:format>
    <dc:creator>
     <cc:Agent>
      <dc:title>Matplotlib v3.7.1, https://matplotlib.org/</dc:title>
     </cc:Agent>
    </dc:creator>
   </cc:Work>
  </rdf:RDF>
 </metadata>
 <defs>
  <style type="text/css">*{stroke-linejoin: round; stroke-linecap: butt}</style>
 </defs>
 <g id="figure_1">
  <g id="patch_1">
   <path d="M 0 708.798125 
L 709.426761 708.798125 
L 709.426761 0 
L 0 0 
z
" style="fill: #ffffff"/>
  </g>
  <g id="axes_1">
   <g id="patch_2">
    <path d="M 30.103125 342.2 
L 702.226761 342.2 
L 702.226761 43.44 
L 30.103125 43.44 
z
" style="fill: #ffffff"/>
   </g>
   <g id="matplotlib.axis_1">
    <g id="xtick_1">
     <g id="line2d_1">
      <defs>
       <path id="m1830c07502" d="M 0 0 
L 0 3.5 
" style="stroke: #000000; stroke-width: 0.8"/>
      </defs>
      <g>
       <use xlink:href="#m1830c07502" x="60.484424" y="342.2" style="stroke: #000000; stroke-width: 0.8"/>
      </g>
     </g>
     <g id="text_1">
      <!-- 2014-07-01 -->
      <g transform="translate(31.426612 356.798437) scale(0.1 -0.1)">
       <defs>
        <path id="DejaVuSans-32" d="M 1228 531 
L 3431 531 
L 3431 0 
L 469 0 
L 469 531 
Q 828 903 1448 1529 
Q 2069 2156 2228 2338 
Q 2531 2678 2651 2914 
Q 2772 3150 2772 3378 
Q 2772 3750 2511 3984 
Q 2250 4219 1831 4219 
Q 1534 4219 1204 4116 
Q 875 4013 500 3803 
L 500 4441 
Q 881 4594 1212 4672 
Q 1544 4750 1819 4750 
Q 2544 4750 2975 4387 
Q 3406 4025 3406 3419 
Q 3406 3131 3298 2873 
Q 3191 2616 2906 2266 
Q 2828 2175 2409 1742 
Q 1991 1309 1228 531 
z
" transform="scale(0.015625)"/>
        <path id="DejaVuSans-30" d="M 2034 4250 
Q 1547 4250 1301 3770 
Q 1056 3291 1056 2328 
Q 1056 1369 1301 889 
Q 1547 409 2034 409 
Q 2525 409 2770 889 
Q 3016 1369 3016 2328 
Q 3016 3291 2770 3770 
Q 2525 4250 2034 4250 
z
M 2034 4750 
Q 2819 4750 3233 4129 
Q 3647 3509 3647 2328 
Q 3647 1150 3233 529 
Q 2819 -91 2034 -91 
Q 1250 -91 836 529 
Q 422 1150 422 2328 
Q 422 3509 836 4129 
Q 1250 4750 2034 4750 
z
" transform="scale(0.015625)"/>
        <path id="DejaVuSans-31" d="M 794 531 
L 1825 531 
L 1825 4091 
L 703 3866 
L 703 4441 
L 1819 4666 
L 2450 4666 
L 2450 531 
L 3481 531 
L 3481 0 
L 794 0 
L 794 531 
z
" transform="scale(0.015625)"/>
        <path id="DejaVuSans-34" d="M 2419 4116 
L 825 1625 
L 2419 1625 
L 2419 4116 
z
M 2253 4666 
L 3047 4666 
L 3047 1625 
L 3713 1625 
L 3713 1100 
L 3047 1100 
L 3047 0 
L 2419 0 
L 2419 1100 
L 313 1100 
L 313 1709 
L 2253 4666 
z
" transform="scale(0.015625)"/>
        <path id="DejaVuSans-2d" d="M 313 2009 
L 1997 2009 
L 1997 1497 
L 313 1497 
L 313 2009 
z
" transform="scale(0.015625)"/>
        <path id="DejaVuSans-37" d="M 525 4666 
L 3525 4666 
L 3525 4397 
L 1831 0 
L 1172 0 
L 2766 4134 
L 525 4134 
L 525 4666 
z
" transform="scale(0.015625)"/>
       </defs>
       <use xlink:href="#DejaVuSans-32"/>
       <use xlink:href="#DejaVuSans-30" x="63.623047"/>
       <use xlink:href="#DejaVuSans-31" x="127.246094"/>
       <use xlink:href="#DejaVuSans-34" x="190.869141"/>
       <use xlink:href="#DejaVuSans-2d" x="254.492188"/>
       <use xlink:href="#DejaVuSans-30" x="290.576172"/>
       <use xlink:href="#DejaVuSans-37" x="354.199219"/>
       <use xlink:href="#DejaVuSans-2d" x="417.822266"/>
       <use xlink:href="#DejaVuSans-30" x="453.90625"/>
       <use xlink:href="#DejaVuSans-31" x="517.529297"/>
      </g>
     </g>
    </g>
    <g id="xtick_2">
     <g id="line2d_2">
      <g>
       <use xlink:href="#m1830c07502" x="182.722677" y="342.2" style="stroke: #000000; stroke-width: 0.8"/>
      </g>
     </g>
     <g id="text_2">
      <!-- 2014-07-02 -->
      <g transform="translate(153.664864 356.798437) scale(0.1 -0.1)">
       <use xlink:href="#DejaVuSans-32"/>
       <use xlink:href="#DejaVuSans-30" x="63.623047"/>
       <use xlink:href="#DejaVuSans-31" x="127.246094"/>
       <use xlink:href="#DejaVuSans-34" x="190.869141"/>
       <use xlink:href="#DejaVuSans-2d" x="254.492188"/>
       <use xlink:href="#DejaVuSans-30" x="290.576172"/>
       <use xlink:href="#DejaVuSans-37" x="354.199219"/>
       <use xlink:href="#DejaVuSans-2d" x="417.822266"/>
       <use xlink:href="#DejaVuSans-30" x="453.90625"/>
       <use xlink:href="#DejaVuSans-32" x="517.529297"/>
      </g>
     </g>
    </g>
    <g id="xtick_3">
     <g id="line2d_3">
      <g>
       <use xlink:href="#m1830c07502" x="304.960929" y="342.2" style="stroke: #000000; stroke-width: 0.8"/>
      </g>
     </g>
     <g id="text_3">
      <!-- 2014-07-03 -->
      <g transform="translate(275.903117 356.798437) scale(0.1 -0.1)">
       <defs>
        <path id="DejaVuSans-33" d="M 2597 2516 
Q 3050 2419 3304 2112 
Q 3559 1806 3559 1356 
Q 3559 666 3084 287 
Q 2609 -91 1734 -91 
Q 1441 -91 1130 -33 
Q 819 25 488 141 
L 488 750 
Q 750 597 1062 519 
Q 1375 441 1716 441 
Q 2309 441 2620 675 
Q 2931 909 2931 1356 
Q 2931 1769 2642 2001 
Q 2353 2234 1838 2234 
L 1294 2234 
L 1294 2753 
L 1863 2753 
Q 2328 2753 2575 2939 
Q 2822 3125 2822 3475 
Q 2822 3834 2567 4026 
Q 2313 4219 1838 4219 
Q 1578 4219 1281 4162 
Q 984 4106 628 3988 
L 628 4550 
Q 988 4650 1302 4700 
Q 1616 4750 1894 4750 
Q 2613 4750 3031 4423 
Q 3450 4097 3450 3541 
Q 3450 3153 3228 2886 
Q 3006 2619 2597 2516 
z
" transform="scale(0.015625)"/>
       </defs>
       <use xlink:href="#DejaVuSans-32"/>
       <use xlink:href="#DejaVuSans-30" x="63.623047"/>
       <use xlink:href="#DejaVuSans-31" x="127.246094"/>
       <use xlink:href="#DejaVuSans-34" x="190.869141"/>
       <use xlink:href="#DejaVuSans-2d" x="254.492188"/>
       <use xlink:href="#DejaVuSans-30" x="290.576172"/>
       <use xlink:href="#DejaVuSans-37" x="354.199219"/>
       <use xlink:href="#DejaVuSans-2d" x="417.822266"/>
       <use xlink:href="#DejaVuSans-30" x="453.90625"/>
       <use xlink:href="#DejaVuSans-33" x="517.529297"/>
      </g>
     </g>
    </g>
    <g id="xtick_4">
     <g id="line2d_4">
      <g>
       <use xlink:href="#m1830c07502" x="427.199182" y="342.2" style="stroke: #000000; stroke-width: 0.8"/>
      </g>
     </g>
     <g id="text_4">
      <!-- 2014-07-04 -->
      <g transform="translate(398.141369 356.798437) scale(0.1 -0.1)">
       <use xlink:href="#DejaVuSans-32"/>
       <use xlink:href="#DejaVuSans-30" x="63.623047"/>
       <use xlink:href="#DejaVuSans-31" x="127.246094"/>
       <use xlink:href="#DejaVuSans-34" x="190.869141"/>
       <use xlink:href="#DejaVuSans-2d" x="254.492188"/>
       <use xlink:href="#DejaVuSans-30" x="290.576172"/>
       <use xlink:href="#DejaVuSans-37" x="354.199219"/>
       <use xlink:href="#DejaVuSans-2d" x="417.822266"/>
       <use xlink:href="#DejaVuSans-30" x="453.90625"/>
       <use xlink:href="#DejaVuSans-34" x="517.529297"/>
      </g>
     </g>
    </g>
    <g id="xtick_5">
     <g id="line2d_5">
      <g>
       <use xlink:href="#m1830c07502" x="549.437434" y="342.2" style="stroke: #000000; stroke-width: 0.8"/>
      </g>
     </g>
     <g id="text_5">
      <!-- 2014-07-05 -->
      <g transform="translate(520.379622 356.798437) scale(0.1 -0.1)">
       <defs>
        <path id="DejaVuSans-35" d="M 691 4666 
L 3169 4666 
L 3169 4134 
L 1269 4134 
L 1269 2991 
Q 1406 3038 1543 3061 
Q 1681 3084 1819 3084 
Q 2600 3084 3056 2656 
Q 3513 2228 3513 1497 
Q 3513 744 3044 326 
Q 2575 -91 1722 -91 
Q 1428 -91 1123 -41 
Q 819 9 494 109 
L 494 744 
Q 775 591 1075 516 
Q 1375 441 1709 441 
Q 2250 441 2565 725 
Q 2881 1009 2881 1497 
Q 2881 1984 2565 2268 
Q 2250 2553 1709 2553 
Q 1456 2553 1204 2497 
Q 953 2441 691 2322 
L 691 4666 
z
" transform="scale(0.015625)"/>
       </defs>
       <use xlink:href="#DejaVuSans-32"/>
       <use xlink:href="#DejaVuSans-30" x="63.623047"/>
       <use xlink:href="#DejaVuSans-31" x="127.246094"/>
       <use xlink:href="#DejaVuSans-34" x="190.869141"/>
       <use xlink:href="#DejaVuSans-2d" x="254.492188"/>
       <use xlink:href="#DejaVuSans-30" x="290.576172"/>
       <use xlink:href="#DejaVuSans-37" x="354.199219"/>
       <use xlink:href="#DejaVuSans-2d" x="417.822266"/>
       <use xlink:href="#DejaVuSans-30" x="453.90625"/>
       <use xlink:href="#DejaVuSans-35" x="517.529297"/>
      </g>
     </g>
    </g>
    <g id="xtick_6">
     <g id="line2d_6">
      <g>
       <use xlink:href="#m1830c07502" x="671.675687" y="342.2" style="stroke: #000000; stroke-width: 0.8"/>
      </g>
     </g>
     <g id="text_6">
      <!-- 2014-07-06 -->
      <g transform="translate(642.617874 356.798437) scale(0.1 -0.1)">
       <defs>
        <path id="DejaVuSans-36" d="M 2113 2584 
Q 1688 2584 1439 2293 
Q 1191 2003 1191 1497 
Q 1191 994 1439 701 
Q 1688 409 2113 409 
Q 2538 409 2786 701 
Q 3034 994 3034 1497 
Q 3034 2003 2786 2293 
Q 2538 2584 2113 2584 
z
M 3366 4563 
L 3366 3988 
Q 3128 4100 2886 4159 
Q 2644 4219 2406 4219 
Q 1781 4219 1451 3797 
Q 1122 3375 1075 2522 
Q 1259 2794 1537 2939 
Q 1816 3084 2150 3084 
Q 2853 3084 3261 2657 
Q 3669 2231 3669 1497 
Q 3669 778 3244 343 
Q 2819 -91 2113 -91 
Q 1303 -91 875 529 
Q 447 1150 447 2328 
Q 447 3434 972 4092 
Q 1497 4750 2381 4750 
Q 2619 4750 2861 4703 
Q 3103 4656 3366 4563 
z
" transform="scale(0.015625)"/>
       </defs>
       <use xlink:href="#DejaVuSans-32"/>
       <use xlink:href="#DejaVuSans-30" x="63.623047"/>
       <use xlink:href="#DejaVuSans-31" x="127.246094"/>
       <use xlink:href="#DejaVuSans-34" x="190.869141"/>
       <use xlink:href="#DejaVuSans-2d" x="254.492188"/>
       <use xlink:href="#DejaVuSans-30" x="290.576172"/>
       <use xlink:href="#DejaVuSans-37" x="354.199219"/>
       <use xlink:href="#DejaVuSans-2d" x="417.822266"/>
       <use xlink:href="#DejaVuSans-30" x="453.90625"/>
       <use xlink:href="#DejaVuSans-36" x="517.529297"/>
      </g>
     </g>
    </g>
   </g>
   <g id="matplotlib.axis_2">
    <g id="ytick_1">
     <g id="line2d_7">
      <defs>
       <path id="md8219995f9" d="M 0 0 
L -3.5 0 
" style="stroke: #000000; stroke-width: 0.8"/>
      </defs>
      <g>
       <use xlink:href="#md8219995f9" x="30.103125" y="328.62" style="stroke: #000000; stroke-width: 0.8"/>
      </g>
     </g>
     <g id="text_7">
      <!-- 0.0 -->
      <g transform="translate(7.2 332.419219) scale(0.1 -0.1)">
       <defs>
        <path id="DejaVuSans-2e" d="M 684 794 
L 1344 794 
L 1344 0 
L 684 0 
L 684 794 
z
" transform="scale(0.015625)"/>
       </defs>
       <use xlink:href="#DejaVuSans-30"/>
       <use xlink:href="#DejaVuSans-2e" x="63.623047"/>
       <use xlink:href="#DejaVuSans-30" x="95.410156"/>
      </g>
     </g>
    </g>
    <g id="ytick_2">
     <g id="line2d_8">
      <g>
       <use xlink:href="#md8219995f9" x="30.103125" y="291.268933" style="stroke: #000000; stroke-width: 0.8"/>
      </g>
     </g>
     <g id="text_8">
      <!-- 0.5 -->
      <g transform="translate(7.2 295.068151) scale(0.1 -0.1)">
       <use xlink:href="#DejaVuSans-30"/>
       <use xlink:href="#DejaVuSans-2e" x="63.623047"/>
       <use xlink:href="#DejaVuSans-35" x="95.410156"/>
      </g>
     </g>
    </g>
    <g id="ytick_3">
     <g id="line2d_9">
      <g>
       <use xlink:href="#md8219995f9" x="30.103125" y="253.917865" style="stroke: #000000; stroke-width: 0.8"/>
      </g>
     </g>
     <g id="text_9">
      <!-- 1.0 -->
      <g transform="translate(7.2 257.717084) scale(0.1 -0.1)">
       <use xlink:href="#DejaVuSans-31"/>
       <use xlink:href="#DejaVuSans-2e" x="63.623047"/>
       <use xlink:href="#DejaVuSans-30" x="95.410156"/>
      </g>
     </g>
    </g>
    <g id="ytick_4">
     <g id="line2d_10">
      <g>
       <use xlink:href="#md8219995f9" x="30.103125" y="216.566798" style="stroke: #000000; stroke-width: 0.8"/>
      </g>
     </g>
     <g id="text_10">
      <!-- 1.5 -->
      <g transform="translate(7.2 220.366017) scale(0.1 -0.1)">
       <use xlink:href="#DejaVuSans-31"/>
       <use xlink:href="#DejaVuSans-2e" x="63.623047"/>
       <use xlink:href="#DejaVuSans-35" x="95.410156"/>
      </g>
     </g>
    </g>
    <g id="ytick_5">
     <g id="line2d_11">
      <g>
       <use xlink:href="#md8219995f9" x="30.103125" y="179.215731" style="stroke: #000000; stroke-width: 0.8"/>
      </g>
     </g>
     <g id="text_11">
      <!-- 2.0 -->
      <g transform="translate(7.2 183.014949) scale(0.1 -0.1)">
       <use xlink:href="#DejaVuSans-32"/>
       <use xlink:href="#DejaVuSans-2e" x="63.623047"/>
       <use xlink:href="#DejaVuSans-30" x="95.410156"/>
      </g>
     </g>
    </g>
    <g id="ytick_6">
     <g id="line2d_12">
      <g>
       <use xlink:href="#md8219995f9" x="30.103125" y="141.864663" style="stroke: #000000; stroke-width: 0.8"/>
      </g>
     </g>
     <g id="text_12">
      <!-- 2.5 -->
      <g transform="translate(7.2 145.663882) scale(0.1 -0.1)">
       <use xlink:href="#DejaVuSans-32"/>
       <use xlink:href="#DejaVuSans-2e" x="63.623047"/>
       <use xlink:href="#DejaVuSans-35" x="95.410156"/>
      </g>
     </g>
    </g>
    <g id="ytick_7">
     <g id="line2d_13">
      <g>
       <use xlink:href="#md8219995f9" x="30.103125" y="104.513596" style="stroke: #000000; stroke-width: 0.8"/>
      </g>
     </g>
     <g id="text_13">
      <!-- 3.0 -->
      <g transform="translate(7.2 108.312815) scale(0.1 -0.1)">
       <use xlink:href="#DejaVuSans-33"/>
       <use xlink:href="#DejaVuSans-2e" x="63.623047"/>
       <use xlink:href="#DejaVuSans-30" x="95.410156"/>
      </g>
     </g>
    </g>
    <g id="ytick_8">
     <g id="line2d_14">
      <g>
       <use xlink:href="#md8219995f9" x="30.103125" y="67.162529" style="stroke: #000000; stroke-width: 0.8"/>
      </g>
     </g>
     <g id="text_14">
      <!-- 3.5 -->
      <g transform="translate(7.2 70.961747) scale(0.1 -0.1)">
       <use xlink:href="#DejaVuSans-33"/>
       <use xlink:href="#DejaVuSans-2e" x="63.623047"/>
       <use xlink:href="#DejaVuSans-35" x="95.410156"/>
      </g>
     </g>
    </g>
   </g>
   <g id="line2d_15">
    <path d="M 60.654199 328.486669 
L 61.672851 327.094676 
L 62.351953 325.846704 
L 62.861279 324.840051 
L 63.964819 323.087494 
L 66.426561 320.496104 
L 67.19055 320.135571 
L 68.378978 319.869248 
L 68.973192 320.257962 
L 70.076731 321.282508 
L 72.198923 323.259149 
L 73.0478 323.897701 
L 73.472238 324.046593 
L 73.981564 323.944846 
L 75.000217 322.023866 
L 76.443307 318.246281 
L 77.207296 313.053645 
L 78.735274 296.682873 
L 78.90505 297.012953 
L 79.074825 295.832207 
L 79.329488 293.569332 
L 79.414376 293.586118 
L 79.499263 293.884565 
L 79.669039 292.836328 
L 79.923702 290.830544 
L 80.093477 291.468632 
L 80.263252 290.279611 
L 80.517915 288.105503 
L 80.687691 288.897926 
L 80.942354 284.13418 
L 81.112129 281.909446 
L 81.281905 283.57859 
L 81.536568 279.07683 
L 81.706343 277.443169 
L 81.961006 281.022463 
L 82.300557 276.492393 
L 82.385444 276.886675 
L 82.55522 279.429462 
L 82.640107 278.845073 
L 82.89477 275.328084 
L 82.979658 275.742149 
L 83.149433 278.382417 
L 83.319209 276.300112 
L 83.488984 274.187788 
L 83.573872 274.764542 
L 83.743647 277.615199 
L 83.913422 275.739593 
L 84.083198 273.819942 
L 84.168085 274.473079 
L 84.337861 277.363249 
L 84.507636 275.487616 
L 84.677412 273.676675 
L 84.762299 274.267886 
L 85.016962 278.810979 
L 85.186738 276.907393 
L 85.356513 275.207593 
L 85.441401 275.680258 
L 85.611176 278.50164 
L 85.696064 278.047876 
L 85.950727 274.739785 
L 86.035614 275.224579 
L 86.20539 277.901679 
L 86.290277 277.320469 
L 86.54494 273.891793 
L 86.629828 274.546196 
L 86.799603 277.382618 
L 86.884491 276.835296 
L 87.139154 273.662908 
L 87.224042 274.347258 
L 87.393817 277.341303 
L 87.478705 277.10995 
L 87.733368 275.287824 
L 87.903143 277.548464 
L 88.157806 280.550817 
L 88.412469 279.998085 
L 88.582245 281.854319 
L 88.75202 283.473268 
L 89.006683 283.661435 
L 89.176458 285.056308 
L 89.261346 284.404141 
L 89.600897 255.06964 
L 89.685784 257.817296 
L 89.85556 264.824326 
L 89.940447 264.737785 
L 90.025335 263.97587 
L 90.110223 264.119921 
L 90.364886 270.32006 
L 90.9591 287.183397 
L 91.553313 297.250606 
L 92.147527 303.863757 
L 92.826628 308.938087 
L 92.911516 304.817282 
L 93.251067 232.035315 
L 93.335954 244.623841 
L 93.420842 256.200737 
L 93.50573 253.844433 
L 93.760393 175.591533 
L 93.84528 179.074281 
L 94.015056 190.193762 
L 94.099943 188.080757 
L 94.184831 182.407306 
L 94.439494 124.575757 
L 94.60927 141.712367 
L 94.694157 141.019846 
L 94.779045 137.507105 
L 95.033708 84.151954 
L 95.373259 112.575891 
L 95.627922 64.539897 
L 95.967472 99.264914 
L 96.222135 57.02 
L 96.307023 62.072555 
L 96.561686 94.671813 
L 96.816349 62.80937 
L 96.986124 81.538994 
L 97.240787 106.440697 
L 97.410563 90.302287 
L 97.495451 92.284404 
L 97.750114 121.089553 
L 97.835001 127.03439 
L 98.089664 113.058872 
L 98.429215 139.738924 
L 98.59899 130.212919 
L 98.683878 130.442067 
L 99.023429 155.636395 
L 99.193204 149.19716 
L 99.278092 149.803746 
L 99.617642 171.548666 
L 99.70253 170.442428 
L 99.872305 167.423676 
L 100.296744 190.906658 
L 100.381631 191.170011 
L 100.466519 190.147642 
L 100.551407 190.282671 
L 100.890958 206.692912 
L 101.060733 206.202949 
L 101.145621 202.997054 
L 101.485171 217.5527 
L 101.570059 217.372059 
L 101.739834 216.175985 
L 101.90961 222.29783 
L 102.079385 228.433772 
L 102.164273 228.61257 
L 102.24916 228.455714 
L 102.334048 228.532539 
L 102.503823 233.029294 
L 102.758486 238.795226 
L 102.928262 239.227555 
L 103.098037 242.505181 
L 103.3527 248.485487 
L 103.522475 246.36102 
L 103.692251 244.5434 
L 103.946914 249.360528 
L 104.286465 239.740752 
L 104.541128 244.169623 
L 104.880678 225.556799 
L 105.050454 230.480914 
L 105.135341 229.573689 
L 105.474892 190.1431 
L 105.644667 195.3831 
L 105.729555 191.025524 
L 105.984218 106.564301 
L 106.069106 114.758588 
L 106.153993 120.053755 
L 106.238881 117.968089 
L 106.748207 150.858583 
L 107.087758 192.633463 
L 107.766859 237.560263 
L 108.361073 255.408567 
L 109.125062 264.904232 
L 109.634388 269.392687 
L 109.889051 270.763191 
L 110.483265 275.858865 
L 111.417029 281.802766 
L 112.011243 283.886763 
L 112.775232 285.093554 
L 113.96366 285.704241 
L 114.388098 285.817145 
L 116.51029 286.118292 
L 116.764953 286.172529 
L 117.61383 286.181879 
L 117.868493 286.158285 
L 118.123156 286.206177 
L 118.547594 286.238178 
L 118.802257 286.320524 
L 119.226695 286.339176 
L 119.566246 286.280108 
L 119.736021 286.276461 
L 119.990684 286.320199 
L 120.500011 286.296618 
L 121.518663 286.14934 
L 121.60355 286.243726 
L 121.688438 285.942463 
L 122.112876 275.925021 
L 122.197764 276.174972 
L 122.367539 277.135099 
L 122.452427 277.193414 
L 122.622202 276.958344 
L 122.70709 277.121411 
L 123.386192 281.513 
L 123.81063 284.271356 
L 126.017709 296.314183 
L 126.781699 298.954633 
L 127.375912 300.015871 
L 127.715463 300.37339 
L 127.885238 300.692007 
L 128.055014 300.702446 
L 129.328329 300.05271 
L 129.498104 299.906378 
L 129.582992 299.95364 
L 130.686532 298.908464 
L 130.941195 299.351342 
L 131.11097 299.17652 
L 131.365633 298.854564 
L 131.535408 298.888254 
L 131.790071 298.54141 
L 131.959847 298.363447 
L 132.129622 298.39929 
L 132.384285 297.977091 
L 132.55406 297.760027 
L 132.638948 297.865491 
L 132.893611 297.498317 
L 133.148274 297.093356 
L 133.233162 297.226706 
L 133.31805 297.16343 
L 133.572713 296.675186 
L 133.742488 296.476636 
L 133.997151 297.149385 
L 134.166926 296.846862 
L 134.421589 296.391881 
L 134.506477 296.582754 
L 134.591365 296.534568 
L 134.846028 295.943805 
L 135.015803 295.744756 
L 135.100691 295.947534 
L 135.270466 295.688918 
L 135.525129 294.898972 
L 135.610017 294.933166 
L 135.694904 295.146664 
L 135.86468 294.845156 
L 136.119343 294.015393 
L 136.20423 294.09462 
L 136.289118 294.362795 
L 136.374006 294.29783 
L 136.713557 293.217265 
L 136.798444 293.330978 
L 137.053107 294.31442 
L 137.222883 293.729988 
L 137.392658 293.073863 
L 137.562433 293.596952 
L 137.647321 293.53199 
L 137.986872 292.236651 
L 138.071759 292.389303 
L 138.156647 292.772589 
L 138.241535 292.699698 
L 138.581085 291.175713 
L 138.665973 291.35029 
L 139.005524 292.803012 
L 139.175299 293.179209 
L 139.51485 295.26555 
L 141.637042 307.54999 
L 142.485918 310.507098 
L 142.910357 311.51515 
L 143.080132 311.740018 
L 143.589458 313.148161 
L 144.438335 314.49304 
L 145.372099 315.636959 
L 147.239628 316.858784 
L 147.324516 316.814705 
L 147.833842 314.59755 
L 148.088505 311.70937 
L 148.597831 306.202395 
L 149.107157 303.977166 
L 149.36182 303.084582 
L 149.701371 301.771549 
L 149.786259 301.81925 
L 150.040922 302.82982 
L 150.550248 304.991093 
L 150.974686 305.938812 
L 151.229349 305.850335 
L 151.399124 305.427632 
L 151.484012 305.465491 
L 151.653787 305.579927 
L 151.823563 305.536705 
L 152.163113 305.182624 
L 152.332889 305.24085 
L 152.502664 305.078046 
L 152.842215 304.48126 
L 153.01199 304.834903 
L 153.436429 306.114815 
L 153.606204 305.784688 
L 154.370193 302.681945 
L 154.624856 301.778551 
L 154.879519 301.251892 
L 155.134182 300.415692 
L 155.303957 300.746228 
L 155.55862 300.940991 
L 155.728396 300.8497 
L 155.898171 301.145267 
L 156.237722 301.494594 
L 156.32261 301.502363 
L 156.492385 301.872338 
L 157.086599 304.105521 
L 157.256374 303.633871 
L 157.595925 301.782374 
L 157.680812 301.847925 
L 158.444801 304.740987 
L 158.529689 304.696997 
L 158.954128 304.011549 
L 159.293678 301.28889 
L 159.463454 299.988165 
L 159.548341 300.015891 
L 159.887892 300.58386 
L 160.227443 300.405035 
L 160.651881 299.384405 
L 160.991432 299.910699 
L 161.161207 299.89434 
L 161.246095 300.020037 
L 163.198511 307.547085 
L 163.453174 306.455019 
L 163.792725 304.350187 
L 163.877613 304.271599 
L 164.386939 304.805536 
L 164.471826 304.794057 
L 164.726489 302.875345 
L 164.981152 300.559217 
L 165.06604 300.512647 
L 165.575366 302.15976 
L 166.084692 303.948182 
L 166.594018 305.583177 
L 166.848681 306.078185 
L 167.103344 304.190379 
L 167.442895 301.481387 
L 167.61267 301.841384 
L 167.697558 301.847709 
L 167.867333 301.323442 
L 168.631323 297.946439 
L 168.71621 298.03875 
L 168.885986 297.541476 
L 169.225536 295.962633 
L 169.480199 297.599028 
L 169.904638 300.093144 
L 170.244188 300.747742 
L 170.413964 301.053896 
L 170.753514 303.113272 
L 171.177953 305.317259 
L 171.347728 305.291227 
L 172.02683 303.491306 
L 172.36638 302.558957 
L 173.300145 304.785254 
L 173.809471 306.06564 
L 173.979246 305.90841 
L 174.233909 305.643198 
L 174.403684 305.639547 
L 174.658347 305.58458 
L 174.828123 305.460559 
L 175.167674 303.121458 
L 175.422337 301.730158 
L 175.677 302.749842 
L 176.01655 303.800062 
L 176.271213 302.70447 
L 176.525876 301.424116 
L 176.695652 301.791346 
L 176.780539 301.692008 
L 176.950315 301.056563 
L 177.204978 299.825601 
L 177.374753 299.829221 
L 177.544528 299.591564 
L 177.799191 298.922535 
L 177.968967 299.467432 
L 178.563181 301.997868 
L 179.157394 303.287244 
L 180.091159 307.177328 
L 180.430709 308.099973 
L 180.600485 308.087534 
L 180.940035 307.663885 
L 182.637789 298.92888 
L 182.722677 299.044707 
L 183.147115 300.449144 
L 183.656441 301.287443 
L 183.826216 301.196383 
L 183.995992 301.44852 
L 184.165767 301.03422 
L 184.505318 299.47625 
L 184.590205 299.515055 
L 184.759981 298.958868 
L 185.014644 297.966972 
L 185.269307 297.222365 
L 185.52397 297.284541 
L 185.608858 297.251113 
L 185.693745 297.36325 
L 185.948408 298.099321 
L 186.118184 297.827749 
L 186.287959 297.501783 
L 186.372847 297.5744 
L 187.136836 300.116017 
L 187.391499 300.330044 
L 187.561274 300.47572 
L 187.646162 300.590746 
L 187.900825 299.35026 
L 188.155488 298.123256 
L 188.325263 298.627067 
L 188.834589 300.759085 
L 189.089252 301.307026 
L 189.428803 301.664571 
L 189.768354 302.274599 
L 190.532343 302.911344 
L 190.702118 303.07026 
L 191.041669 304.353335 
L 191.296332 305.303848 
L 191.466107 305.042343 
L 191.890546 303.938658 
L 192.145209 304.68357 
L 192.569647 305.967494 
L 193.163861 307.593998 
L 193.418524 305.95575 
L 194.2674 299.234929 
L 194.352288 299.166889 
L 196.389592 304.2444 
L 196.729143 304.468555 
L 196.814031 304.383459 
L 197.493132 299.740563 
L 197.747795 299.737121 
L 197.917571 299.618509 
L 198.087346 300.021564 
L 198.68156 303.038506 
L 200.039762 310.564104 
L 200.294425 311.502705 
L 200.718864 313.047623 
L 201.482853 314.81179 
L 202.161954 315.702049 
L 203.180606 316.790393 
L 204.199258 317.508802 
L 205.472574 318.130986 
L 207.085439 318.681907 
L 207.764541 318.857199 
L 207.849429 316.435249 
L 208.273867 276.366202 
L 208.358755 277.33779 
L 208.443642 279.874499 
L 208.613418 270.681486 
L 208.783193 255.52954 
L 209.037856 261.241866 
L 209.377407 249.586818 
L 209.63207 258.707196 
L 209.97162 249.31838 
L 210.311171 260.264731 
L 210.650722 250.928919 
L 210.905385 259.176183 
L 211.244936 250.312573 
L 211.499599 257.039886 
L 211.839149 250.953212 
L 212.093812 258.162684 
L 212.1787 257.25895 
L 212.433363 254.500648 
L 212.688026 261.404586 
L 212.772914 261.098898 
L 213.027577 259.638839 
L 213.452015 268.098407 
L 213.706678 267.547203 
L 213.876453 270.76979 
L 214.046229 273.066487 
L 214.300892 272.481991 
L 214.640443 276.360053 
L 214.895106 275.491539 
L 215.064881 277.818291 
L 215.234656 279.26619 
L 215.489319 278.481171 
L 215.574207 278.995513 
L 215.82887 281.823841 
L 216.083533 281.116996 
L 216.168421 281.501388 
L 216.507971 285.222679 
L 216.762634 284.664996 
L 216.847522 284.905374 
L 217.102185 286.988039 
L 217.356848 286.647318 
L 217.441736 286.776853 
L 217.696399 288.537248 
L 217.866174 288.328212 
L 217.951062 288.171521 
L 218.03595 288.240612 
L 218.205725 289.241457 
L 218.460388 284.170082 
L 218.630163 281.514648 
L 218.799939 282.945948 
L 219.224377 270.777849 
L 219.394152 274.551654 
L 219.47904 274.457041 
L 219.818591 256.120274 
L 220.073254 262.490601 
L 220.327917 232.491822 
L 220.412805 232.528636 
L 220.58258 243.676275 
L 220.667468 239.34464 
L 220.922131 149.370686 
L 221.007018 158.472947 
L 221.091906 165.429609 
L 221.261681 154.023309 
L 221.346569 154.550175 
L 221.516344 167.80147 
L 222.02567 221.222938 
L 222.619884 263.958447 
L 223.12921 281.426914 
L 223.808312 293.292679 
L 224.23275 297.281041 
L 224.657188 300.059872 
L 225.166514 302.749626 
L 226.015391 307.127281 
L 226.864268 310.594968 
L 227.543369 312.638796 
L 228.646909 314.846647 
L 229.580673 316.005437 
L 230.005112 316.359441 
L 232.97618 317.654511 
L 233.485507 317.501604 
L 234.07972 316.646088 
L 235.098372 311.577374 
L 235.777474 308.176021 
L 236.032137 307.862505 
L 236.456575 307.784751 
L 236.626351 307.711544 
L 237.305452 307.224196 
L 237.72989 306.66691 
L 237.814778 306.725842 
L 238.069441 306.317307 
L 238.493879 304.68473 
L 238.83343 302.212305 
L 239.003205 301.612623 
L 239.767194 301.355181 
L 240.106745 300.780386 
L 240.191633 300.838499 
L 240.446296 299.487097 
L 240.700959 297.979021 
L 240.870734 298.61535 
L 240.955622 298.457274 
L 241.125397 297.40985 
L 241.38006 295.784573 
L 241.464948 295.962056 
L 241.634723 295.584046 
L 241.889386 294.167687 
L 241.974274 294.241311 
L 242.228937 294.999833 
L 242.4836 294.729809 
L 242.653375 295.503635 
L 243.672028 300.66866 
L 244.181354 302.725691 
L 244.520904 303.159447 
L 244.775567 302.478114 
L 245.369781 299.824744 
L 245.709332 298.159563 
L 246.048882 297.798925 
L 246.218658 297.628927 
L 246.388433 298.210275 
L 247.067535 301.565708 
L 247.23731 301.2748 
L 247.491973 300.641826 
L 247.746636 300.829596 
L 248.171074 300.940824 
L 248.765288 302.621109 
L 249.019951 300.949164 
L 249.274614 299.281605 
L 249.359502 299.185356 
L 249.868828 296.983978 
L 249.953716 297.154899 
L 250.632817 300.01641 
L 250.802592 299.815556 
L 251.142143 299.017693 
L 251.227031 299.109786 
L 251.481694 297.68842 
L 251.736357 296.252554 
L 251.906132 296.850099 
L 252.33057 298.387558 
L 252.670121 299.959891 
L 253.688773 305.974128 
L 253.773661 305.816433 
L 253.943436 305.170691 
L 254.282987 303.55496 
L 254.367875 303.675421 
L 255.046976 306.089246 
L 255.471414 306.596674 
L 255.895853 304.09447 
L 256.065628 303.424036 
L 256.150516 303.445524 
L 256.405179 302.183265 
L 256.74473 300.301102 
L 257.169168 299.931381 
L 257.338943 299.940086 
L 257.593606 300.017519 
L 257.848269 300.300579 
L 258.102932 300.718451 
L 258.442483 300.878506 
L 258.951809 301.845801 
L 259.206472 302.368731 
L 259.461135 300.948234 
L 259.715798 299.326906 
L 259.885574 299.032146 
L 260.140237 298.273491 
L 260.310012 297.79284 
L 260.649563 298.048103 
L 260.819338 298.05394 
L 261.158889 298.445655 
L 261.413552 298.392939 
L 261.668215 299.017611 
L 262.007765 299.725326 
L 262.177541 300.257242 
L 262.771755 302.749773 
L 262.856642 302.941224 
L 263.111305 301.953654 
L 263.365968 300.697853 
L 263.450856 300.742107 
L 263.790407 302.06984 
L 264.129957 303.001138 
L 264.724171 303.961346 
L 265.318385 305.84078 
L 265.573048 304.116087 
L 265.912599 301.487365 
L 266.167262 301.193587 
L 266.676588 300.748185 
L 267.016138 300.853558 
L 267.101026 300.910705 
L 267.610352 298.526289 
L 267.69524 298.684906 
L 268.374341 301.267111 
L 268.459229 301.235751 
L 268.629004 300.950938 
L 268.883667 300.493312 
L 268.968555 300.586282 
L 269.223218 300.194852 
L 269.647656 299.196327 
L 270.581421 293.36287 
L 270.666308 293.251303 
L 270.920971 294.782715 
L 272.873388 306.241302 
L 273.212939 306.762206 
L 273.552489 305.175742 
L 273.89204 303.661493 
L 274.486254 303.046625 
L 274.825804 300.151471 
L 275.080467 298.638168 
L 275.589794 295.416903 
L 275.674681 295.53619 
L 275.844457 295.472197 
L 276.09912 295.034374 
L 276.184007 295.149491 
L 276.43867 296.75448 
L 277.287547 302.154401 
L 277.627098 303.525765 
L 277.711985 303.52287 
L 278.136424 302.786761 
L 278.391087 303.935419 
L 278.730638 305.274154 
L 278.985301 303.18765 
L 279.409739 299.982786 
L 279.834177 297.302863 
L 279.919065 297.3954 
L 280.683054 300.077502 
L 280.937717 300.225871 
L 281.022605 300.234679 
L 281.19238 300.564137 
L 281.447043 299.600053 
L 281.701706 298.485346 
L 281.871481 298.830667 
L 282.211032 299.651493 
L 282.380808 299.815605 
L 282.890134 296.446583 
L 282.975021 296.647139 
L 283.73901 299.307528 
L 285.776315 311.074117 
L 287.04963 314.59077 
L 287.643843 315.554223 
L 289.511372 317.205387 
L 290.784687 317.871173 
L 292.058003 318.340858 
L 292.14289 318.155098 
L 292.991767 309.977055 
L 293.24643 310.974967 
L 293.585981 312.010418 
L 293.755756 311.953583 
L 294.095307 311.59984 
L 294.265082 311.650257 
L 294.519745 312.018972 
L 295.113959 313.604279 
L 295.79306 315.097891 
L 296.641937 316.329736 
L 297.490814 317.189319 
L 297.660589 317.240622 
L 298.169915 315.260187 
L 298.509466 313.998523 
L 298.679241 314.044266 
L 299.44323 315.020043 
L 300.716545 315.597848 
L 301.565422 316.234878 
L 301.989861 316.168808 
L 302.668962 314.801536 
L 303.348063 311.979107 
L 304.281828 306.624007 
L 304.876042 302.901304 
L 305.130705 302.356956 
L 306.74357 294.758101 
L 306.828458 294.895448 
L 306.998233 294.061163 
L 307.252896 292.297081 
L 307.337784 292.373848 
L 307.422672 292.665424 
L 307.592447 291.785443 
L 307.84711 289.999681 
L 307.931998 290.183404 
L 308.101773 291.305477 
L 308.356436 286.272445 
L 308.526212 283.645878 
L 308.695987 284.873801 
L 308.95065 280.130537 
L 309.120425 278.197113 
L 309.290201 280.152617 
L 309.459976 277.536264 
L 309.629751 274.839782 
L 309.714639 275.197236 
L 309.884414 277.935942 
L 310.05419 275.773099 
L 310.223965 273.765375 
L 310.308853 274.4056 
L 310.478628 277.146858 
L 310.648403 275.187966 
L 310.818179 273.361654 
L 310.903066 273.972234 
L 311.15773 278.414694 
L 311.327505 276.456759 
L 311.49728 274.645119 
L 311.582168 275.163588 
L 311.751943 277.979916 
L 311.836831 277.510853 
L 312.091494 274.194387 
L 312.176382 274.645569 
L 312.346157 277.362412 
L 312.515932 275.303987 
L 312.685708 273.351351 
L 312.770595 273.854271 
L 312.940371 276.814503 
L 313.110146 274.880844 
L 313.279921 273.065868 
L 313.364809 273.648521 
L 313.534584 276.655852 
L 313.70436 274.856995 
L 313.874135 273.006417 
L 313.959023 273.649105 
L 314.213686 278.148634 
L 314.383461 276.276576 
L 314.553237 274.483361 
L 314.638124 275.058605 
L 314.8079 277.888869 
L 314.892787 277.821586 
L 315.14745 275.770717 
L 315.232338 276.242954 
L 315.487001 279.076403 
L 315.741664 278.125155 
L 315.911439 280.128952 
L 316.081215 281.735523 
L 316.335878 281.851482 
L 316.505653 283.578661 
L 316.590541 282.935876 
L 316.930091 254.041269 
L 317.014979 256.844596 
L 317.184754 264.179594 
L 317.269642 264.572545 
L 317.35453 263.930708 
L 317.439417 264.121479 
L 317.694081 269.953995 
L 318.288294 286.438776 
L 318.967396 297.244537 
L 319.476722 302.183766 
L 320.155823 306.120986 
L 320.665149 308.086314 
L 321.089588 308.963137 
L 321.683801 309.59535 
L 322.10824 309.872831 
L 322.702453 309.711277 
L 323.042004 309.971108 
L 323.466442 310.007458 
L 323.721105 310.055623 
L 325.079308 309.498661 
L 326.182848 308.839778 
L 326.352623 308.786042 
L 326.607286 309.089864 
L 327.710826 311.084842 
L 329.069029 314.080922 
L 330.257456 315.830834 
L 331.191221 316.822066 
L 331.530772 316.962779 
L 332.719199 317.221654 
L 333.737851 317.734717 
L 335.690268 318.353849 
L 338.661336 319.109675 
L 341.547517 319.529518 
L 345.791901 319.875888 
L 352.922466 320.227533 
L 405.7226 322.296674 
L 422.954798 322.663355 
L 436.451938 322.756325 
L 572.187331 323.528641 
L 671.675687 324.235281 
L 671.675687 324.235281 
" clip-path="url(#pbdf34a49ae)" style="fill: none; stroke: #1f77b4; stroke-width: 1.5; stroke-linecap: square"/>
   </g>
   <g id="line2d_16">
    <path d="M 60.654199 328.579887 
L 61.248413 328.554835 
L 61.672851 328.079458 
L 61.842627 328.033237 
L 62.267065 327.567437 
L 62.436841 327.536629 
L 62.861279 327.089079 
L 63.031054 327.072574 
L 63.370605 326.653267 
L 63.795043 326.541667 
L 64.049706 326.255965 
L 64.389257 326.126111 
L 64.64392 325.839113 
L 64.983471 325.723948 
L 65.238134 325.437384 
L 65.577685 325.335442 
L 65.832348 325.047406 
L 66.171898 324.957018 
L 66.426561 324.665055 
L 66.851 324.652709 
L 67.105663 324.357457 
L 67.360326 324.424434 
L 67.699876 323.97479 
L 68.378978 324.171186 
L 69.482518 324.948908 
L 71.010496 325.980968 
L 72.538474 326.741738 
L 72.962912 326.808452 
L 73.217575 326.694305 
L 73.472238 326.709005 
L 73.811789 326.241221 
L 74.066452 326.207265 
L 74.406003 325.450604 
L 74.660666 325.385448 
L 75.000217 324.351898 
L 75.25488 324.271606 
L 75.59443 322.969594 
L 75.764206 322.953792 
L 75.933981 322.976324 
L 76.273532 321.436689 
L 76.528195 321.365124 
L 76.867745 319.549648 
L 76.952633 319.506994 
L 77.037521 319.602968 
L 77.122408 319.504125 
L 77.461959 317.445752 
L 77.546847 317.412172 
L 77.631734 317.536607 
L 77.716622 317.439802 
L 78.056173 315.144251 
L 78.141061 315.123767 
L 78.225948 315.280776 
L 78.310836 315.18941 
L 78.650387 312.657798 
L 78.735274 312.671044 
L 78.989937 313.032794 
L 79.329488 310.312899 
L 79.414376 310.325358 
L 79.499263 310.553692 
L 79.584151 310.477182 
L 79.923702 307.473143 
L 80.008589 307.508795 
L 80.093477 307.780956 
L 80.178365 307.719467 
L 80.517915 304.497291 
L 80.602803 304.553377 
L 80.687691 304.886851 
L 80.772578 304.632704 
L 81.112129 298.315303 
L 81.197017 298.261072 
L 81.281905 298.609192 
L 81.366792 298.414329 
L 81.706343 292.517293 
L 81.791231 292.622986 
L 82.045894 293.642767 
L 82.385444 288.312333 
L 82.470332 288.483933 
L 82.640107 289.071363 
L 82.979658 284.004488 
L 83.064546 284.272427 
L 83.234321 285.050093 
L 83.573872 280.346275 
L 83.828535 281.644378 
L 84.168085 277.253597 
L 84.422748 278.768187 
L 84.762299 274.637728 
L 84.932075 275.948316 
L 85.10185 277.37748 
L 85.356513 273.506555 
L 85.441401 273.528248 
L 85.696064 275.31319 
L 85.950727 271.452889 
L 86.035614 271.516811 
L 86.290277 273.440432 
L 86.54494 269.714383 
L 86.629828 269.821459 
L 86.884491 271.867724 
L 87.139154 268.256278 
L 87.224042 268.398692 
L 87.478705 270.656196 
L 87.733368 268.45661 
L 87.903143 269.564516 
L 88.157806 272.477493 
L 88.412469 271.510861 
L 88.582245 272.760224 
L 88.75202 274.538002 
L 88.836908 274.504531 
L 88.921795 274.297873 
L 89.006683 274.485918 
L 89.261346 276.775175 
L 89.346234 275.33609 
L 89.685784 244.200781 
L 89.770672 243.856227 
L 90.110223 248.275342 
L 92.317302 282.391962 
L 92.911516 288.293124 
L 92.996404 283.697773 
L 93.335954 203.384684 
L 93.420842 201.581484 
L 93.50573 202.557489 
L 93.590617 199.302119 
L 93.930168 138.939742 
L 94.015056 140.25104 
L 94.269719 148.198979 
L 94.60927 108.118901 
L 94.863933 117.5972 
L 95.118596 89.225167 
L 95.203483 90.226592 
L 95.458146 103.182493 
L 95.712809 83.761198 
L 95.882585 90.703212 
L 96.05236 100.550997 
L 96.307023 87.432919 
L 96.476798 95.162057 
L 96.646574 105.274844 
L 96.901237 96.571126 
L 97.071012 104.53825 
L 97.325675 120.504444 
L 97.580338 114.727958 
L 97.750114 121.984114 
L 97.919889 130.942522 
L 98.089664 126.640559 
L 98.174552 126.885196 
L 98.429215 138.745046 
L 98.514103 142.258195 
L 98.59899 141.358349 
L 98.683878 139.341911 
L 98.768766 139.879121 
L 99.023429 150.943262 
L 99.108316 154.24567 
L 99.193204 153.769925 
L 99.278092 152.340272 
L 99.362979 153.054965 
L 99.70253 166.327799 
L 99.872305 165.159507 
L 99.957193 165.979546 
L 100.211856 175.236976 
L 100.466519 182.051154 
L 100.551407 181.33868 
L 100.636294 182.107694 
L 101.060733 192.837507 
L 101.145621 192.316973 
L 101.230508 193.093846 
L 101.654947 203.035592 
L 101.739834 202.724476 
L 101.90961 205.291752 
L 102.24916 212.701214 
L 102.334048 212.547219 
L 102.503823 214.967291 
L 102.843374 221.787481 
L 102.928262 221.749714 
L 103.098037 224.009897 
L 103.437588 231.797427 
L 103.692251 228.252216 
L 103.862026 230.456949 
L 104.031802 233.327245 
L 104.286465 226.441003 
L 104.371352 226.809447 
L 104.626015 230.406105 
L 104.965566 216.822299 
L 105.135341 219.880084 
L 105.220229 219.313259 
L 105.55978 190.524582 
L 105.644667 191.455975 
L 105.729555 193.624675 
L 105.814443 191.02627 
L 106.153993 127.428691 
L 106.238881 128.88986 
L 108.191298 210.862562 
L 108.870399 229.039904 
L 110.65304 263.581343 
L 111.501917 275.871797 
L 112.520569 287.274559 
L 113.284558 293.819888 
L 114.642761 302.459184 
L 115.661413 307.417458 
L 117.444054 313.110256 
L 117.868493 313.974201 
L 118.123156 314.565639 
L 118.377819 314.95147 
L 118.887145 315.958793 
L 119.141808 316.384054 
L 119.396471 316.806746 
L 119.566246 316.890629 
L 120.16046 317.575867 
L 120.669786 318.102311 
L 120.839561 318.219318 
L 121.179112 318.613554 
L 121.348887 318.565724 
L 121.60355 318.894367 
L 121.688438 319.127135 
L 121.773326 318.612908 
L 122.112876 309.990598 
L 122.282652 309.625959 
L 122.70709 310.174005 
L 123.046641 311.126156 
L 123.216416 311.304912 
L 123.81063 312.443564 
L 124.319956 313.311303 
L 124.489731 313.516659 
L 124.91417 314.409532 
L 125.083945 314.377749 
L 125.338608 314.911074 
L 125.423496 315.066697 
L 125.508383 315.015806 
L 125.678159 314.922613 
L 125.847934 315.184007 
L 126.017709 315.547073 
L 126.272372 315.325187 
L 126.442148 315.556743 
L 126.611923 315.89691 
L 126.866586 315.602273 
L 127.036362 315.808283 
L 127.206137 316.129951 
L 127.545688 315.819632 
L 127.885238 316.47882 
L 127.970126 316.336026 
L 128.139901 316.053929 
L 128.309677 316.212382 
L 128.479452 316.500015 
L 128.819003 316.023896 
L 129.073666 316.417382 
L 129.413216 315.872357 
L 129.667879 316.257751 
L 130.00743 315.645594 
L 130.262093 316.026407 
L 130.601644 315.346452 
L 130.941195 315.954208 
L 131.280745 315.216541 
L 131.535408 315.585061 
L 131.874959 314.757874 
L 132.129622 315.131233 
L 132.469173 314.239458 
L 132.723836 314.621342 
L 133.063387 313.663678 
L 133.31805 314.056343 
L 133.6576 313.028777 
L 133.827376 313.338373 
L 133.997151 313.703174 
L 134.336702 312.61883 
L 134.591365 313.024581 
L 134.930915 311.835589 
L 135.185578 312.25908 
L 135.525129 310.996678 
L 135.779792 311.441491 
L 136.119343 310.102053 
L 136.374006 310.570101 
L 136.713557 309.146638 
L 136.883332 309.529301 
L 137.053107 309.979204 
L 137.392658 308.489115 
L 137.647321 308.990272 
L 137.986872 307.366077 
L 138.241535 307.897411 
L 138.581085 306.178842 
L 138.920636 306.836662 
L 139.005524 306.741058 
L 139.090411 306.791725 
L 139.345074 307.631266 
L 139.684625 308.505609 
L 142.485918 317.412483 
L 143.589458 319.880979 
L 144.692998 321.82162 
L 145.796538 323.325734 
L 146.984965 324.571525 
L 147.409404 324.819272 
L 147.748954 323.306143 
L 148.003617 323.1177 
L 148.343168 320.70035 
L 148.512943 320.643435 
L 148.597831 320.582265 
L 148.937382 319.332522 
L 149.107157 319.432698 
L 149.276933 319.62434 
L 149.616483 318.94945 
L 149.871146 319.270065 
L 150.46536 320.266241 
L 150.550248 320.182814 
L 150.720023 320.011443 
L 150.889798 320.122317 
L 151.059574 320.293831 
L 151.399124 319.600265 
L 151.653787 319.806707 
L 151.993338 319.163582 
L 152.163113 319.339531 
L 152.332889 319.558244 
L 152.67244 318.954224 
L 152.927103 319.276066 
L 153.521316 320.071545 
L 153.860867 318.822887 
L 153.945755 318.832737 
L 154.11553 318.916628 
L 154.455081 317.369668 
L 154.539968 317.379868 
L 154.709744 317.526733 
L 155.049294 316.533752 
L 155.21907 316.745951 
L 155.388845 317.054512 
L 155.728396 316.746401 
L 155.983059 317.140078 
L 156.32261 316.693682 
L 157.001711 317.686413 
L 157.171486 317.909622 
L 157.511037 316.27283 
L 157.680812 316.417056 
L 158.444801 317.989762 
L 158.529689 317.789594 
L 158.699464 317.383192 
L 158.86924 317.456205 
L 158.954128 317.639137 
L 159.039015 317.562367 
L 159.378566 315.138443 
L 159.463454 315.114329 
L 159.633229 315.329567 
L 159.887892 315.070057 
L 160.057667 315.305636 
L 160.227443 315.614833 
L 160.566993 314.803304 
L 160.821656 315.202402 
L 161.161207 314.696858 
L 161.41587 315.254519 
L 162.094971 316.620876 
L 162.51941 317.252507 
L 162.858961 317.827811 
L 163.283399 318.461315 
L 163.62295 316.686874 
L 163.707837 316.689404 
L 163.877613 316.904229 
L 164.132276 316.780932 
L 164.386939 317.18638 
L 164.556714 317.401854 
L 164.896265 315.393552 
L 164.981152 315.39748 
L 165.914917 316.990199 
L 166.424243 317.886694 
L 166.594018 317.865054 
L 166.848681 318.285397 
L 166.933569 318.199975 
L 167.27312 315.545836 
L 167.358007 315.503944 
L 167.61267 315.846438 
L 167.952221 314.988837 
L 168.206884 315.312113 
L 168.546435 313.908106 
L 168.631323 313.972824 
L 168.801098 314.175734 
L 169.140649 312.394729 
L 169.310424 312.643921 
L 169.989525 314.650462 
L 170.074413 314.525292 
L 170.244188 314.265826 
L 170.413964 314.477651 
L 171.26284 316.512477 
L 171.602391 315.60773 
L 171.857054 315.921169 
L 172.196605 314.905601 
L 172.36638 315.170961 
L 173.724583 317.82713 
L 174.064134 317.173719 
L 174.318797 317.504492 
L 174.403684 317.37075 
L 174.57346 317.124029 
L 174.743235 317.270659 
L 174.91301 317.444454 
L 175.252561 315.650243 
L 175.422337 315.79602 
L 176.101438 317.264202 
L 176.440989 315.827278 
L 176.610764 315.998993 
L 176.780539 316.23078 
L 177.12009 314.651549 
L 177.204978 314.694705 
L 177.374753 314.926509 
L 177.714304 314.069206 
L 177.968967 314.585128 
L 178.563181 315.971598 
L 178.648068 315.870593 
L 178.817844 315.664054 
L 178.987619 315.862948 
L 179.32717 316.395994 
L 179.581833 316.856969 
L 180.430709 318.688783 
L 180.77026 318.257814 
L 181.024923 318.489329 
L 181.364474 316.90199 
L 181.449361 316.913851 
L 181.619137 317.065859 
L 181.958688 316.000376 
L 182.213351 316.246596 
L 182.552901 314.736278 
L 182.722677 314.941135 
L 182.97734 315.362361 
L 183.147115 315.442482 
L 183.486666 316.099355 
L 183.826216 315.522889 
L 184.080879 315.841389 
L 184.42043 314.156023 
L 184.505318 314.195484 
L 184.675093 314.375942 
L 185.014644 312.621925 
L 185.099532 312.68356 
L 185.269307 313.001201 
L 185.52397 312.5765 
L 185.693745 312.832003 
L 185.948408 313.450511 
L 186.287959 312.297153 
L 187.051948 313.43455 
L 187.136836 313.587872 
L 187.391499 313.17924 
L 187.561274 313.407699 
L 187.731049 313.684015 
L 188.0706 311.752661 
L 188.240376 312.006569 
L 189.004365 313.98538 
L 189.089252 313.892973 
L 189.259028 313.700537 
L 189.428803 313.948787 
L 189.598578 314.324386 
L 189.853241 313.935769 
L 190.023017 314.157224 
L 190.192792 314.531812 
L 190.447455 314.293397 
L 190.61723 314.548949 
L 191.38122 316.478356 
L 191.72077 315.396368 
L 191.890546 315.627931 
L 192.230096 316.232159 
L 192.569647 316.938404 
L 193.163861 318.326448 
L 193.248748 318.285433 
L 193.588299 315.992836 
L 193.673187 315.957213 
L 193.758074 316.095684 
L 193.842962 316.007797 
L 194.182513 313.673586 
L 194.2674 313.682419 
L 194.691839 314.556673 
L 195.201165 315.696757 
L 195.37094 315.654148 
L 195.625603 316.132569 
L 195.710491 316.253644 
L 196.050042 315.967664 
L 196.304705 316.415792 
L 196.389592 316.328891 
L 196.559368 316.169079 
L 196.729143 316.370239 
L 196.814031 316.592325 
L 196.898918 316.533733 
L 197.238469 314.037 
L 197.323357 314.021349 
L 197.493132 314.252448 
L 197.747795 313.827771 
L 197.917571 314.054481 
L 198.596672 316.042596 
L 199.615324 318.668119 
L 200.633976 320.700285 
L 201.737516 322.456405 
L 202.841056 323.818191 
L 204.029483 324.946825 
L 205.302798 325.861177 
L 206.745889 326.623987 
L 207.849429 327.040865 
L 207.934316 325.126179 
L 208.273867 296.882084 
L 208.52853 293.717195 
L 208.868081 271.161518 
L 208.952968 270.663358 
L 209.037856 271.180952 
L 209.122744 270.388939 
L 209.462294 253.668303 
L 209.547182 253.833612 
L 209.63207 254.87844 
L 209.716957 254.772632 
L 210.056508 242.662786 
L 210.226283 244.647551 
L 210.396059 246.907863 
L 210.73561 238.532881 
L 210.990273 241.75412 
L 211.244936 235.466142 
L 211.329823 235.763637 
L 211.584486 239.559488 
L 211.839149 235.097936 
L 211.924037 235.640743 
L 212.1787 239.757483 
L 212.433363 236.680701 
L 212.603138 238.705398 
L 212.772914 241.62482 
L 213.027577 239.592291 
L 213.197352 241.742324 
L 213.452015 246.462661 
L 213.706678 245.205009 
L 213.876453 247.267413 
L 214.046229 249.998777 
L 214.216004 249.069535 
L 214.300892 249.192354 
L 214.470667 251.229071 
L 214.640443 253.858936 
L 214.72533 253.71834 
L 214.810218 253.287805 
L 214.895106 253.504121 
L 215.149769 256.930953 
L 215.234656 257.993353 
L 215.319544 257.969103 
L 215.404432 257.691955 
L 215.489319 257.971166 
L 215.743982 261.228918 
L 215.913758 262.30285 
L 215.998645 262.141873 
L 216.083533 262.462738 
L 216.338196 265.486415 
L 216.592859 267.927282 
L 216.677747 267.844009 
L 216.847522 268.873466 
L 217.187073 271.962966 
L 217.271961 271.928714 
L 217.441736 272.926712 
L 217.781287 275.848264 
L 217.866174 275.868236 
L 218.03595 276.840175 
L 218.290613 278.981965 
L 218.630163 274.301374 
L 218.799939 275.622306 
L 218.884826 275.553232 
L 219.224377 266.242432 
L 219.394152 267.403762 
L 219.47904 268.541145 
L 219.563928 268.014928 
L 219.903478 249.269574 
L 219.988366 249.334987 
L 220.073254 250.316499 
L 220.158141 248.262909 
L 220.497692 207.216069 
L 220.58258 207.087604 
L 220.667468 208.338224 
L 220.752355 203.251951 
L 221.091906 109.733535 
L 221.176794 110.541944 
L 221.601232 134.993485 
L 222.365221 176.239998 
L 223.044322 203.679329 
L 223.723424 224.996077 
L 224.487413 243.603068 
L 226.015391 271.512607 
L 226.949156 283.612931 
L 227.88292 292.925179 
L 228.816684 300.172301 
L 229.835336 306.314909 
L 230.853989 311.069841 
L 231.872641 314.773548 
L 232.891293 317.676864 
L 233.315731 318.334443 
L 233.655282 318.87564 
L 233.825057 318.969473 
L 234.164608 319.454003 
L 234.504159 318.911451 
L 234.843709 319.30945 
L 235.18326 318.348133 
L 235.522811 318.509543 
L 235.692586 318.356398 
L 235.862361 318.517938 
L 236.2868 319.055849 
L 236.626351 319.599614 
L 236.711238 319.519658 
L 236.881014 319.359673 
L 237.050789 319.490563 
L 237.220564 319.688474 
L 237.560115 319.092207 
L 237.899666 319.480092 
L 238.239216 318.630518 
L 238.493879 318.775886 
L 238.83343 317.022344 
L 238.918318 317.022927 
L 239.088093 317.210464 
L 239.342756 316.824271 
L 239.512531 316.983064 
L 239.682307 317.236209 
L 240.021858 316.494723 
L 240.276521 316.718292 
L 240.616071 314.572088 
L 240.785847 314.702747 
L 240.955622 314.922725 
L 241.295173 312.860998 
L 241.38006 312.889983 
L 241.549836 313.093223 
L 241.889386 311.434437 
L 242.059162 311.747493 
L 242.144049 311.852389 
L 242.398712 311.088314 
L 242.4836 311.12565 
L 244.011578 314.303511 
L 244.096466 314.210747 
L 244.266241 314.020285 
L 244.436017 314.260036 
L 244.605792 314.568003 
L 244.945343 313.365971 
L 245.200006 313.676578 
L 245.539556 311.80696 
L 245.624444 311.87023 
L 245.794219 312.198918 
L 246.048882 311.68771 
L 246.218658 311.941114 
L 247.067535 314.425045 
L 247.407085 313.002622 
L 247.576861 313.284392 
L 247.661748 313.390531 
L 247.916411 312.828615 
L 248.086187 313.039051 
L 248.765288 314.767061 
L 248.850176 314.774088 
L 249.189726 312.550783 
L 249.274614 312.570058 
L 249.444389 312.770265 
L 249.78394 311.087318 
L 249.953716 311.388161 
L 250.717705 313.592908 
L 251.057255 312.133636 
L 251.142143 312.213992 
L 251.311918 312.428821 
L 251.651469 310.131552 
L 251.736357 310.191567 
L 252.755009 312.956086 
L 253.688773 315.612368 
L 253.773661 315.64952 
L 254.113212 313.952696 
L 254.282987 314.159259 
L 255.556302 317.035389 
L 255.895853 315.249373 
L 256.065628 315.397769 
L 256.235404 315.621494 
L 256.574954 313.79693 
L 256.659842 313.835626 
L 256.829617 314.123194 
L 257.08428 313.843054 
L 257.254056 314.101473 
L 257.423831 314.48648 
L 257.678494 314.223799 
L 257.848269 314.470255 
L 258.018045 314.820698 
L 258.357595 314.303845 
L 258.612258 314.797925 
L 258.697146 314.741404 
L 258.866921 314.647398 
L 259.036697 314.920791 
L 259.29136 315.395409 
L 259.630911 313.297749 
L 259.715798 313.317945 
L 259.885574 313.535783 
L 260.225124 312.335421 
L 260.479787 312.815292 
L 260.564675 312.714537 
L 260.73445 312.544647 
L 260.904226 312.83274 
L 261.074001 313.223025 
L 261.413552 312.551401 
L 261.668215 313.09242 
L 261.753102 313.005543 
L 261.922878 312.855178 
L 262.092653 313.147504 
L 262.686867 314.477824 
L 262.94153 315.006651 
L 263.281081 313.220972 
L 263.450856 313.443765 
L 264.214845 314.994671 
L 264.38462 315.056856 
L 265.233497 316.621121 
L 265.318385 316.878461 
L 265.403272 316.837574 
L 265.742823 314.334993 
L 265.827711 314.312477 
L 265.997486 314.517439 
L 266.252149 313.891843 
L 266.337037 313.925931 
L 266.676588 314.422675 
L 266.846363 314.404701 
L 267.185914 314.976471 
L 267.525464 313.091316 
L 267.610352 313.136993 
L 268.459229 314.823115 
L 268.798779 313.876376 
L 269.053443 314.251784 
L 269.392993 313.157376 
L 269.647656 313.464349 
L 269.987207 311.176367 
L 270.072095 311.211607 
L 270.24187 311.420513 
L 270.581421 309.275803 
L 270.751196 309.58606 
L 271.769848 312.467865 
L 272.279174 313.900896 
L 272.7885 315.146798 
L 272.958276 315.191799 
L 273.297826 315.78125 
L 273.637377 314.339998 
L 273.807152 314.579204 
L 273.89204 314.678982 
L 274.146703 314.233478 
L 274.316478 314.443022 
L 274.571141 314.914683 
L 274.910692 312.810492 
L 274.99558 312.834132 
L 275.165355 313.002037 
L 275.504906 310.849222 
L 275.589794 310.905258 
L 275.759569 311.231048 
L 276.014232 310.49451 
L 276.09912 310.542824 
L 276.353783 311.263117 
L 277.117772 313.433897 
L 277.372435 313.96175 
L 277.627098 314.58825 
L 277.966648 313.467146 
L 278.136424 313.754559 
L 278.815525 315.509279 
L 279.155076 313.126899 
L 279.239964 313.124934 
L 279.409739 313.27914 
L 279.74929 311.307717 
L 279.919065 311.573884 
L 280.683054 313.750549 
L 281.022605 313.106107 
L 281.277268 313.499942 
L 281.616818 311.601634 
L 281.786594 311.869775 
L 281.956369 312.080416 
L 282.126145 312.180611 
L 282.465695 312.908311 
L 282.805246 310.665476 
L 282.890134 310.716462 
L 283.059909 311.089599 
L 283.314572 310.992326 
L 283.569235 311.648004 
L 285.097213 316.661738 
L 286.115865 319.15506 
L 287.219405 321.261269 
L 288.322945 322.891343 
L 289.511372 324.240507 
L 290.784687 325.33231 
L 292.14289 326.227945 
L 292.227778 326.008518 
L 292.567329 322.7489 
L 292.737104 322.513131 
L 292.991767 322.706642 
L 294.68952 324.574779 
L 295.962836 325.582536 
L 297.321038 326.380737 
L 297.745477 326.4769 
L 298.085028 325.049591 
L 298.254803 324.961198 
L 298.594354 325.152254 
L 300.122332 326.155825 
L 301.056096 326.541418 
L 301.480535 326.565138 
L 301.735198 326.396827 
L 302.074748 326.441969 
L 302.414299 325.902995 
L 302.668962 325.865786 
L 303.008513 325.034352 
L 303.263176 324.969651 
L 303.602726 323.863393 
L 303.857389 323.787343 
L 304.19694 322.416267 
L 304.451603 322.343527 
L 304.791154 320.713906 
L 304.960929 320.723442 
L 305.045817 320.851886 
L 305.130705 320.783371 
L 305.470255 318.93029 
L 305.555143 318.891099 
L 305.640031 318.995792 
L 305.724918 318.897582 
L 306.064469 316.768343 
L 306.149357 316.738423 
L 306.234244 316.872345 
L 306.319132 316.776961 
L 306.658683 314.411725 
L 306.74357 314.39605 
L 306.828458 314.563715 
L 306.913346 314.474763 
L 307.252896 311.878305 
L 307.337784 311.880659 
L 307.422672 312.085941 
L 307.507559 312.006578 
L 307.84711 309.178077 
L 307.931998 309.223557 
L 308.101773 309.743013 
L 308.186661 309.462908 
L 308.526212 302.850568 
L 308.611099 302.700571 
L 308.695987 302.953521 
L 308.780875 302.665166 
L 309.120425 296.412956 
L 309.205313 296.398212 
L 309.290201 296.78631 
L 309.375088 296.631007 
L 309.714639 290.895181 
L 309.799527 291.004137 
L 309.884414 291.51303 
L 309.969302 291.475648 
L 310.308853 286.193018 
L 310.39374 286.40991 
L 310.563516 287.089341 
L 310.903066 282.192737 
L 311.072842 283.145392 
L 311.242617 284.235787 
L 311.582168 279.749954 
L 311.836831 281.095425 
L 312.176382 276.756493 
L 312.431045 278.306208 
L 312.770595 274.226457 
L 313.025258 275.955693 
L 313.279921 272.048279 
L 313.364809 272.097429 
L 313.619472 273.979162 
L 313.874135 270.216469 
L 313.959023 270.301323 
L 314.298574 273.450558 
L 314.553237 269.862139 
L 314.638124 269.972842 
L 314.892787 272.121595 
L 315.14745 269.81458 
L 315.317226 270.839341 
L 315.487001 272.538293 
L 315.741664 271.465748 
L 315.911439 272.708102 
L 316.081215 274.4865 
L 316.166102 274.453895 
L 316.25099 274.248279 
L 316.335878 274.437452 
L 316.590541 276.730106 
L 316.675428 275.292101 
L 317.014979 244.158573 
L 317.099867 243.825935 
L 317.269642 246.082817 
L 318.79762 271.1566 
L 319.646497 282.028948 
L 320.495374 290.234998 
L 321.853577 299.690013 
L 322.787341 304.650259 
L 323.381555 307.157855 
L 323.890881 308.87858 
L 324.230432 309.901528 
L 324.569982 310.997106 
L 324.824645 311.520898 
L 325.079308 312.172062 
L 325.333971 312.81067 
L 325.503747 313.008103 
L 328.984141 320.598483 
L 330.172569 322.487689 
L 331.276109 323.844607 
L 331.530772 323.907942 
L 331.785435 324.024754 
L 334.247177 325.959545 
L 335.690268 326.695009 
L 337.388021 327.303512 
L 339.425325 327.784959 
L 341.971956 328.146994 
L 345.45235 328.402323 
L 350.970049 328.556355 
L 363.024099 328.615661 
L 483.564598 328.62 
L 671.675687 328.62 
L 671.675687 328.62 
" clip-path="url(#pbdf34a49ae)" style="fill: none; stroke: #ff7f0e; stroke-width: 1.5; stroke-linecap: square"/>
   </g>
   <g id="patch_3">
    <path d="M 30.103125 342.2 
L 30.103125 43.44 
" style="fill: none; stroke: #000000; stroke-width: 0.8; stroke-linejoin: miter; stroke-linecap: square"/>
   </g>
   <g id="patch_4">
    <path d="M 702.226761 342.2 
L 702.226761 43.44 
" style="fill: none; stroke: #000000; stroke-width: 0.8; stroke-linejoin: miter; stroke-linecap: square"/>
   </g>
   <g id="patch_5">
    <path d="M 30.103125 342.2 
L 702.226761 342.2 
" style="fill: none; stroke: #000000; stroke-width: 0.8; stroke-linejoin: miter; stroke-linecap: square"/>
   </g>
   <g id="patch_6">
    <path d="M 30.103125 43.44 
L 702.226761 43.44 
" style="fill: none; stroke: #000000; stroke-width: 0.8; stroke-linejoin: miter; stroke-linecap: square"/>
   </g>
   <g id="text_15">
    <!-- 1 transformation(s) -->
    <g transform="translate(308.050256 37.44) scale(0.12 -0.12)">
     <defs>
      <path id="DejaVuSans-20" transform="scale(0.015625)"/>
      <path id="DejaVuSans-74" d="M 1172 4494 
L 1172 3500 
L 2356 3500 
L 2356 3053 
L 1172 3053 
L 1172 1153 
Q 1172 725 1289 603 
Q 1406 481 1766 481 
L 2356 481 
L 2356 0 
L 1766 0 
Q 1100 0 847 248 
Q 594 497 594 1153 
L 594 3053 
L 172 3053 
L 172 3500 
L 594 3500 
L 594 4494 
L 1172 4494 
z
" transform="scale(0.015625)"/>
      <path id="DejaVuSans-72" d="M 2631 2963 
Q 2534 3019 2420 3045 
Q 2306 3072 2169 3072 
Q 1681 3072 1420 2755 
Q 1159 2438 1159 1844 
L 1159 0 
L 581 0 
L 581 3500 
L 1159 3500 
L 1159 2956 
Q 1341 3275 1631 3429 
Q 1922 3584 2338 3584 
Q 2397 3584 2469 3576 
Q 2541 3569 2628 3553 
L 2631 2963 
z
" transform="scale(0.015625)"/>
      <path id="DejaVuSans-61" d="M 2194 1759 
Q 1497 1759 1228 1600 
Q 959 1441 959 1056 
Q 959 750 1161 570 
Q 1363 391 1709 391 
Q 2188 391 2477 730 
Q 2766 1069 2766 1631 
L 2766 1759 
L 2194 1759 
z
M 3341 1997 
L 3341 0 
L 2766 0 
L 2766 531 
Q 2569 213 2275 61 
Q 1981 -91 1556 -91 
Q 1019 -91 701 211 
Q 384 513 384 1019 
Q 384 1609 779 1909 
Q 1175 2209 1959 2209 
L 2766 2209 
L 2766 2266 
Q 2766 2663 2505 2880 
Q 2244 3097 1772 3097 
Q 1472 3097 1187 3025 
Q 903 2953 641 2809 
L 641 3341 
Q 956 3463 1253 3523 
Q 1550 3584 1831 3584 
Q 2591 3584 2966 3190 
Q 3341 2797 3341 1997 
z
" transform="scale(0.015625)"/>
      <path id="DejaVuSans-6e" d="M 3513 2113 
L 3513 0 
L 2938 0 
L 2938 2094 
Q 2938 2591 2744 2837 
Q 2550 3084 2163 3084 
Q 1697 3084 1428 2787 
Q 1159 2491 1159 1978 
L 1159 0 
L 581 0 
L 581 3500 
L 1159 3500 
L 1159 2956 
Q 1366 3272 1645 3428 
Q 1925 3584 2291 3584 
Q 2894 3584 3203 3211 
Q 3513 2838 3513 2113 
z
" transform="scale(0.015625)"/>
      <path id="DejaVuSans-73" d="M 2834 3397 
L 2834 2853 
Q 2591 2978 2328 3040 
Q 2066 3103 1784 3103 
Q 1356 3103 1142 2972 
Q 928 2841 928 2578 
Q 928 2378 1081 2264 
Q 1234 2150 1697 2047 
L 1894 2003 
Q 2506 1872 2764 1633 
Q 3022 1394 3022 966 
Q 3022 478 2636 193 
Q 2250 -91 1575 -91 
Q 1294 -91 989 -36 
Q 684 19 347 128 
L 347 722 
Q 666 556 975 473 
Q 1284 391 1588 391 
Q 1994 391 2212 530 
Q 2431 669 2431 922 
Q 2431 1156 2273 1281 
Q 2116 1406 1581 1522 
L 1381 1569 
Q 847 1681 609 1914 
Q 372 2147 372 2553 
Q 372 3047 722 3315 
Q 1072 3584 1716 3584 
Q 2034 3584 2315 3537 
Q 2597 3491 2834 3397 
z
" transform="scale(0.015625)"/>
      <path id="DejaVuSans-66" d="M 2375 4863 
L 2375 4384 
L 1825 4384 
Q 1516 4384 1395 4259 
Q 1275 4134 1275 3809 
L 1275 3500 
L 2222 3500 
L 2222 3053 
L 1275 3053 
L 1275 0 
L 697 0 
L 697 3053 
L 147 3053 
L 147 3500 
L 697 3500 
L 697 3744 
Q 697 4328 969 4595 
Q 1241 4863 1831 4863 
L 2375 4863 
z
" transform="scale(0.015625)"/>
      <path id="DejaVuSans-6f" d="M 1959 3097 
Q 1497 3097 1228 2736 
Q 959 2375 959 1747 
Q 959 1119 1226 758 
Q 1494 397 1959 397 
Q 2419 397 2687 759 
Q 2956 1122 2956 1747 
Q 2956 2369 2687 2733 
Q 2419 3097 1959 3097 
z
M 1959 3584 
Q 2709 3584 3137 3096 
Q 3566 2609 3566 1747 
Q 3566 888 3137 398 
Q 2709 -91 1959 -91 
Q 1206 -91 779 398 
Q 353 888 353 1747 
Q 353 2609 779 3096 
Q 1206 3584 1959 3584 
z
" transform="scale(0.015625)"/>
      <path id="DejaVuSans-6d" d="M 3328 2828 
Q 3544 3216 3844 3400 
Q 4144 3584 4550 3584 
Q 5097 3584 5394 3201 
Q 5691 2819 5691 2113 
L 5691 0 
L 5113 0 
L 5113 2094 
Q 5113 2597 4934 2840 
Q 4756 3084 4391 3084 
Q 3944 3084 3684 2787 
Q 3425 2491 3425 1978 
L 3425 0 
L 2847 0 
L 2847 2094 
Q 2847 2600 2669 2842 
Q 2491 3084 2119 3084 
Q 1678 3084 1418 2786 
Q 1159 2488 1159 1978 
L 1159 0 
L 581 0 
L 581 3500 
L 1159 3500 
L 1159 2956 
Q 1356 3278 1631 3431 
Q 1906 3584 2284 3584 
Q 2666 3584 2933 3390 
Q 3200 3197 3328 2828 
z
" transform="scale(0.015625)"/>
      <path id="DejaVuSans-69" d="M 603 3500 
L 1178 3500 
L 1178 0 
L 603 0 
L 603 3500 
z
M 603 4863 
L 1178 4863 
L 1178 4134 
L 603 4134 
L 603 4863 
z
" transform="scale(0.015625)"/>
      <path id="DejaVuSans-28" d="M 1984 4856 
Q 1566 4138 1362 3434 
Q 1159 2731 1159 2009 
Q 1159 1288 1364 580 
Q 1569 -128 1984 -844 
L 1484 -844 
Q 1016 -109 783 600 
Q 550 1309 550 2009 
Q 550 2706 781 3412 
Q 1013 4119 1484 4856 
L 1984 4856 
z
" transform="scale(0.015625)"/>
      <path id="DejaVuSans-29" d="M 513 4856 
L 1013 4856 
Q 1481 4119 1714 3412 
Q 1947 2706 1947 2009 
Q 1947 1309 1714 600 
Q 1481 -109 1013 -844 
L 513 -844 
Q 928 -128 1133 580 
Q 1338 1288 1338 2009 
Q 1338 2731 1133 3434 
Q 928 4138 513 4856 
z
" transform="scale(0.015625)"/>
     </defs>
     <use xlink:href="#DejaVuSans-31"/>
     <use xlink:href="#DejaVuSans-20" x="63.623047"/>
     <use xlink:href="#DejaVuSans-74" x="95.410156"/>
     <use xlink:href="#DejaVuSans-72" x="134.619141"/>
     <use xlink:href="#DejaVuSans-61" x="175.732422"/>
     <use xlink:href="#DejaVuSans-6e" x="237.011719"/>
     <use xlink:href="#DejaVuSans-73" x="300.390625"/>
     <use xlink:href="#DejaVuSans-66" x="352.490234"/>
     <use xlink:href="#DejaVuSans-6f" x="387.695312"/>
     <use xlink:href="#DejaVuSans-72" x="448.876953"/>
     <use xlink:href="#DejaVuSans-6d" x="488.240234"/>
     <use xlink:href="#DejaVuSans-61" x="585.652344"/>
     <use xlink:href="#DejaVuSans-74" x="646.931641"/>
     <use xlink:href="#DejaVuSans-69" x="686.140625"/>
     <use xlink:href="#DejaVuSans-6f" x="713.923828"/>
     <use xlink:href="#DejaVuSans-6e" x="775.105469"/>
     <use xlink:href="#DejaVuSans-28" x="838.484375"/>
     <use xlink:href="#DejaVuSans-73" x="877.498047"/>
     <use xlink:href="#DejaVuSans-29" x="929.597656"/>
    </g>
   </g>
   <g id="legend_1">
    <g id="patch_7">
     <path d="M 613.833011 80.79625 
L 695.226761 80.79625 
Q 697.226761 80.79625 697.226761 78.79625 
L 697.226761 50.44 
Q 697.226761 48.44 695.226761 48.44 
L 613.833011 48.44 
Q 611.833011 48.44 611.833011 50.44 
L 611.833011 78.79625 
Q 611.833011 80.79625 613.833011 80.79625 
z
" style="fill: #ffffff; opacity: 0.8; stroke: #cccccc; stroke-linejoin: miter"/>
    </g>
    <g id="line2d_17">
     <path d="M 615.833011 56.538437 
L 625.833011 56.538437 
L 635.833011 56.538437 
" style="fill: none; stroke: #1f77b4; stroke-width: 1.5; stroke-linecap: square"/>
    </g>
    <g id="text_16">
     <!-- observed -->
     <g transform="translate(643.833011 60.038437) scale(0.1 -0.1)">
      <defs>
       <path id="DejaVuSans-62" d="M 3116 1747 
Q 3116 2381 2855 2742 
Q 2594 3103 2138 3103 
Q 1681 3103 1420 2742 
Q 1159 2381 1159 1747 
Q 1159 1113 1420 752 
Q 1681 391 2138 391 
Q 2594 391 2855 752 
Q 3116 1113 3116 1747 
z
M 1159 2969 
Q 1341 3281 1617 3432 
Q 1894 3584 2278 3584 
Q 2916 3584 3314 3078 
Q 3713 2572 3713 1747 
Q 3713 922 3314 415 
Q 2916 -91 2278 -91 
Q 1894 -91 1617 61 
Q 1341 213 1159 525 
L 1159 0 
L 581 0 
L 581 4863 
L 1159 4863 
L 1159 2969 
z
" transform="scale(0.015625)"/>
       <path id="DejaVuSans-65" d="M 3597 1894 
L 3597 1613 
L 953 1613 
Q 991 1019 1311 708 
Q 1631 397 2203 397 
Q 2534 397 2845 478 
Q 3156 559 3463 722 
L 3463 178 
Q 3153 47 2828 -22 
Q 2503 -91 2169 -91 
Q 1331 -91 842 396 
Q 353 884 353 1716 
Q 353 2575 817 3079 
Q 1281 3584 2069 3584 
Q 2775 3584 3186 3129 
Q 3597 2675 3597 1894 
z
M 3022 2063 
Q 3016 2534 2758 2815 
Q 2500 3097 2075 3097 
Q 1594 3097 1305 2825 
Q 1016 2553 972 2059 
L 3022 2063 
z
" transform="scale(0.015625)"/>
       <path id="DejaVuSans-76" d="M 191 3500 
L 800 3500 
L 1894 563 
L 2988 3500 
L 3597 3500 
L 2284 0 
L 1503 0 
L 191 3500 
z
" transform="scale(0.015625)"/>
       <path id="DejaVuSans-64" d="M 2906 2969 
L 2906 4863 
L 3481 4863 
L 3481 0 
L 2906 0 
L 2906 525 
Q 2725 213 2448 61 
Q 2172 -91 1784 -91 
Q 1150 -91 751 415 
Q 353 922 353 1747 
Q 353 2572 751 3078 
Q 1150 3584 1784 3584 
Q 2172 3584 2448 3432 
Q 2725 3281 2906 2969 
z
M 947 1747 
Q 947 1113 1208 752 
Q 1469 391 1925 391 
Q 2381 391 2643 752 
Q 2906 1113 2906 1747 
Q 2906 2381 2643 2742 
Q 2381 3103 1925 3103 
Q 1469 3103 1208 2742 
Q 947 2381 947 1747 
z
" transform="scale(0.015625)"/>
      </defs>
      <use xlink:href="#DejaVuSans-6f"/>
      <use xlink:href="#DejaVuSans-62" x="61.181641"/>
      <use xlink:href="#DejaVuSans-73" x="124.658203"/>
      <use xlink:href="#DejaVuSans-65" x="176.757812"/>
      <use xlink:href="#DejaVuSans-72" x="238.28125"/>
      <use xlink:href="#DejaVuSans-76" x="279.394531"/>
      <use xlink:href="#DejaVuSans-65" x="338.574219"/>
      <use xlink:href="#DejaVuSans-64" x="400.097656"/>
     </g>
    </g>
    <g id="line2d_18">
     <path d="M 615.833011 71.216563 
L 625.833011 71.216563 
L 635.833011 71.216563 
" style="fill: none; stroke: #ff7f0e; stroke-width: 1.5; stroke-linecap: square"/>
    </g>
    <g id="text_17">
     <!-- simulated -->
     <g transform="translate(643.833011 74.716563) scale(0.1 -0.1)">
      <defs>
       <path id="DejaVuSans-75" d="M 544 1381 
L 544 3500 
L 1119 3500 
L 1119 1403 
Q 1119 906 1312 657 
Q 1506 409 1894 409 
Q 2359 409 2629 706 
Q 2900 1003 2900 1516 
L 2900 3500 
L 3475 3500 
L 3475 0 
L 2900 0 
L 2900 538 
Q 2691 219 2414 64 
Q 2138 -91 1772 -91 
Q 1169 -91 856 284 
Q 544 659 544 1381 
z
M 1991 3584 
L 1991 3584 
z
" transform="scale(0.015625)"/>
       <path id="DejaVuSans-6c" d="M 603 4863 
L 1178 4863 
L 1178 0 
L 603 0 
L 603 4863 
z
" transform="scale(0.015625)"/>
      </defs>
      <use xlink:href="#DejaVuSans-73"/>
      <use xlink:href="#DejaVuSans-69" x="52.099609"/>
      <use xlink:href="#DejaVuSans-6d" x="79.882812"/>
      <use xlink:href="#DejaVuSans-75" x="177.294922"/>
      <use xlink:href="#DejaVuSans-6c" x="240.673828"/>
      <use xlink:href="#DejaVuSans-61" x="268.457031"/>
      <use xlink:href="#DejaVuSans-74" x="329.736328"/>
      <use xlink:href="#DejaVuSans-65" x="368.945312"/>
      <use xlink:href="#DejaVuSans-64" x="430.46875"/>
     </g>
    </g>
   </g>
  </g>
  <g id="axes_2">
   <g id="patch_8">
    <path d="M 30.103125 684.92 
L 702.226761 684.92 
L 702.226761 386.16 
L 30.103125 386.16 
z
" style="fill: #ffffff"/>
   </g>
   <g id="matplotlib.axis_3">
    <g id="xtick_7">
     <g id="line2d_19">
      <g>
       <use xlink:href="#m1830c07502" x="60.484424" y="684.92" style="stroke: #000000; stroke-width: 0.8"/>
      </g>
     </g>
     <g id="text_18">
      <!-- 2014-07-01 -->
      <g transform="translate(31.426612 699.518437) scale(0.1 -0.1)">
       <use xlink:href="#DejaVuSans-32"/>
       <use xlink:href="#DejaVuSans-30" x="63.623047"/>
       <use xlink:href="#DejaVuSans-31" x="127.246094"/>
       <use xlink:href="#DejaVuSans-34" x="190.869141"/>
       <use xlink:href="#DejaVuSans-2d" x="254.492188"/>
       <use xlink:href="#DejaVuSans-30" x="290.576172"/>
       <use xlink:href="#DejaVuSans-37" x="354.199219"/>
       <use xlink:href="#DejaVuSans-2d" x="417.822266"/>
       <use xlink:href="#DejaVuSans-30" x="453.90625"/>
       <use xlink:href="#DejaVuSans-31" x="517.529297"/>
      </g>
     </g>
    </g>
    <g id="xtick_8">
     <g id="line2d_20">
      <g>
       <use xlink:href="#m1830c07502" x="182.722677" y="684.92" style="stroke: #000000; stroke-width: 0.8"/>
      </g>
     </g>
     <g id="text_19">
      <!-- 2014-07-02 -->
      <g transform="translate(153.664864 699.518437) scale(0.1 -0.1)">
       <use xlink:href="#DejaVuSans-32"/>
       <use xlink:href="#DejaVuSans-30" x="63.623047"/>
       <use xlink:href="#DejaVuSans-31" x="127.246094"/>
       <use xlink:href="#DejaVuSans-34" x="190.869141"/>
       <use xlink:href="#DejaVuSans-2d" x="254.492188"/>
       <use xlink:href="#DejaVuSans-30" x="290.576172"/>
       <use xlink:href="#DejaVuSans-37" x="354.199219"/>
       <use xlink:href="#DejaVuSans-2d" x="417.822266"/>
       <use xlink:href="#DejaVuSans-30" x="453.90625"/>
       <use xlink:href="#DejaVuSans-32" x="517.529297"/>
      </g>
     </g>
    </g>
    <g id="xtick_9">
     <g id="line2d_21">
      <g>
       <use xlink:href="#m1830c07502" x="304.960929" y="684.92" style="stroke: #000000; stroke-width: 0.8"/>
      </g>
     </g>
     <g id="text_20">
      <!-- 2014-07-03 -->
      <g transform="translate(275.903117 699.518437) scale(0.1 -0.1)">
       <use xlink:href="#DejaVuSans-32"/>
       <use xlink:href="#DejaVuSans-30" x="63.623047"/>
       <use xlink:href="#DejaVuSans-31" x="127.246094"/>
       <use xlink:href="#DejaVuSans-34" x="190.869141"/>
       <use xlink:href="#DejaVuSans-2d" x="254.492188"/>
       <use xlink:href="#DejaVuSans-30" x="290.576172"/>
       <use xlink:href="#DejaVuSans-37" x="354.199219"/>
       <use xlink:href="#DejaVuSans-2d" x="417.822266"/>
       <use xlink:href="#DejaVuSans-30" x="453.90625"/>
       <use xlink:href="#DejaVuSans-33" x="517.529297"/>
      </g>
     </g>
    </g>
    <g id="xtick_10">
     <g id="line2d_22">
      <g>
       <use xlink:href="#m1830c07502" x="427.199182" y="684.92" style="stroke: #000000; stroke-width: 0.8"/>
      </g>
     </g>
     <g id="text_21">
      <!-- 2014-07-04 -->
      <g transform="translate(398.141369 699.518437) scale(0.1 -0.1)">
       <use xlink:href="#DejaVuSans-32"/>
       <use xlink:href="#DejaVuSans-30" x="63.623047"/>
       <use xlink:href="#DejaVuSans-31" x="127.246094"/>
       <use xlink:href="#DejaVuSans-34" x="190.869141"/>
       <use xlink:href="#DejaVuSans-2d" x="254.492188"/>
       <use xlink:href="#DejaVuSans-30" x="290.576172"/>
       <use xlink:href="#DejaVuSans-37" x="354.199219"/>
       <use xlink:href="#DejaVuSans-2d" x="417.822266"/>
       <use xlink:href="#DejaVuSans-30" x="453.90625"/>
       <use xlink:href="#DejaVuSans-34" x="517.529297"/>
      </g>
     </g>
    </g>
    <g id="xtick_11">
     <g id="line2d_23">
      <g>
       <use xlink:href="#m1830c07502" x="549.437434" y="684.92" style="stroke: #000000; stroke-width: 0.8"/>
      </g>
     </g>
     <g id="text_22">
      <!-- 2014-07-05 -->
      <g transform="translate(520.379622 699.518437) scale(0.1 -0.1)">
       <use xlink:href="#DejaVuSans-32"/>
       <use xlink:href="#DejaVuSans-30" x="63.623047"/>
       <use xlink:href="#DejaVuSans-31" x="127.246094"/>
       <use xlink:href="#DejaVuSans-34" x="190.869141"/>
       <use xlink:href="#DejaVuSans-2d" x="254.492188"/>
       <use xlink:href="#DejaVuSans-30" x="290.576172"/>
       <use xlink:href="#DejaVuSans-37" x="354.199219"/>
       <use xlink:href="#DejaVuSans-2d" x="417.822266"/>
       <use xlink:href="#DejaVuSans-30" x="453.90625"/>
       <use xlink:href="#DejaVuSans-35" x="517.529297"/>
      </g>
     </g>
    </g>
    <g id="xtick_12">
     <g id="line2d_24">
      <g>
       <use xlink:href="#m1830c07502" x="671.675687" y="684.92" style="stroke: #000000; stroke-width: 0.8"/>
      </g>
     </g>
     <g id="text_23">
      <!-- 2014-07-06 -->
      <g transform="translate(642.617874 699.518437) scale(0.1 -0.1)">
       <use xlink:href="#DejaVuSans-32"/>
       <use xlink:href="#DejaVuSans-30" x="63.623047"/>
       <use xlink:href="#DejaVuSans-31" x="127.246094"/>
       <use xlink:href="#DejaVuSans-34" x="190.869141"/>
       <use xlink:href="#DejaVuSans-2d" x="254.492188"/>
       <use xlink:href="#DejaVuSans-30" x="290.576172"/>
       <use xlink:href="#DejaVuSans-37" x="354.199219"/>
       <use xlink:href="#DejaVuSans-2d" x="417.822266"/>
       <use xlink:href="#DejaVuSans-30" x="453.90625"/>
       <use xlink:href="#DejaVuSans-36" x="517.529297"/>
      </g>
     </g>
    </g>
   </g>
   <g id="matplotlib.axis_4">
    <g id="ytick_9">
     <g id="line2d_25">
      <g>
       <use xlink:href="#md8219995f9" x="30.103125" y="671.473396" style="stroke: #000000; stroke-width: 0.8"/>
      </g>
     </g>
     <g id="text_24">
      <!-- 0.0 -->
      <g transform="translate(7.2 675.272615) scale(0.1 -0.1)">
       <use xlink:href="#DejaVuSans-30"/>
       <use xlink:href="#DejaVuSans-2e" x="63.623047"/>
       <use xlink:href="#DejaVuSans-30" x="95.410156"/>
      </g>
     </g>
    </g>
    <g id="ytick_10">
     <g id="line2d_26">
      <g>
       <use xlink:href="#md8219995f9" x="30.103125" y="634.103984" style="stroke: #000000; stroke-width: 0.8"/>
      </g>
     </g>
     <g id="text_25">
      <!-- 0.5 -->
      <g transform="translate(7.2 637.903202) scale(0.1 -0.1)">
       <use xlink:href="#DejaVuSans-30"/>
       <use xlink:href="#DejaVuSans-2e" x="63.623047"/>
       <use xlink:href="#DejaVuSans-35" x="95.410156"/>
      </g>
     </g>
    </g>
    <g id="ytick_11">
     <g id="line2d_27">
      <g>
       <use xlink:href="#md8219995f9" x="30.103125" y="596.734571" style="stroke: #000000; stroke-width: 0.8"/>
      </g>
     </g>
     <g id="text_26">
      <!-- 1.0 -->
      <g transform="translate(7.2 600.53379) scale(0.1 -0.1)">
       <use xlink:href="#DejaVuSans-31"/>
       <use xlink:href="#DejaVuSans-2e" x="63.623047"/>
       <use xlink:href="#DejaVuSans-30" x="95.410156"/>
      </g>
     </g>
    </g>
    <g id="ytick_12">
     <g id="line2d_28">
      <g>
       <use xlink:href="#md8219995f9" x="30.103125" y="559.365159" style="stroke: #000000; stroke-width: 0.8"/>
      </g>
     </g>
     <g id="text_27">
      <!-- 1.5 -->
      <g transform="translate(7.2 563.164378) scale(0.1 -0.1)">
       <use xlink:href="#DejaVuSans-31"/>
       <use xlink:href="#DejaVuSans-2e" x="63.623047"/>
       <use xlink:href="#DejaVuSans-35" x="95.410156"/>
      </g>
     </g>
    </g>
    <g id="ytick_13">
     <g id="line2d_29">
      <g>
       <use xlink:href="#md8219995f9" x="30.103125" y="521.995747" style="stroke: #000000; stroke-width: 0.8"/>
      </g>
     </g>
     <g id="text_28">
      <!-- 2.0 -->
      <g transform="translate(7.2 525.794966) scale(0.1 -0.1)">
       <use xlink:href="#DejaVuSans-32"/>
       <use xlink:href="#DejaVuSans-2e" x="63.623047"/>
       <use xlink:href="#DejaVuSans-30" x="95.410156"/>
      </g>
     </g>
    </g>
    <g id="ytick_14">
     <g id="line2d_30">
      <g>
       <use xlink:href="#md8219995f9" x="30.103125" y="484.626335" style="stroke: #000000; stroke-width: 0.8"/>
      </g>
     </g>
     <g id="text_29">
      <!-- 2.5 -->
      <g transform="translate(7.2 488.425553) scale(0.1 -0.1)">
       <use xlink:href="#DejaVuSans-32"/>
       <use xlink:href="#DejaVuSans-2e" x="63.623047"/>
       <use xlink:href="#DejaVuSans-35" x="95.410156"/>
      </g>
     </g>
    </g>
    <g id="ytick_15">
     <g id="line2d_31">
      <g>
       <use xlink:href="#md8219995f9" x="30.103125" y="447.256922" style="stroke: #000000; stroke-width: 0.8"/>
      </g>
     </g>
     <g id="text_30">
      <!-- 3.0 -->
      <g transform="translate(7.2 451.056141) scale(0.1 -0.1)">
       <use xlink:href="#DejaVuSans-33"/>
       <use xlink:href="#DejaVuSans-2e" x="63.623047"/>
       <use xlink:href="#DejaVuSans-30" x="95.410156"/>
      </g>
     </g>
    </g>
    <g id="ytick_16">
     <g id="line2d_32">
      <g>
       <use xlink:href="#md8219995f9" x="30.103125" y="409.88751" style="stroke: #000000; stroke-width: 0.8"/>
      </g>
     </g>
     <g id="text_31">
      <!-- 3.5 -->
      <g transform="translate(7.2 413.686729) scale(0.1 -0.1)">
       <use xlink:href="#DejaVuSans-33"/>
       <use xlink:href="#DejaVuSans-2e" x="63.623047"/>
       <use xlink:href="#DejaVuSans-35" x="95.410156"/>
      </g>
     </g>
    </g>
   </g>
   <g id="line2d_33">
    <path d="M 60.654199 671.34 
L 61.672851 669.947323 
L 62.351953 668.698738 
L 62.861279 667.69159 
L 63.964819 665.938172 
L 66.426561 663.34551 
L 67.19055 662.9848 
L 68.378978 662.718346 
L 68.973192 663.107251 
L 70.076731 664.1323 
L 72.198923 666.109913 
L 73.0478 666.748778 
L 73.472238 666.897743 
L 73.981564 666.795945 
L 75.000217 664.874022 
L 76.443307 661.094582 
L 77.207296 655.899396 
L 78.735274 639.520583 
L 78.90505 639.850825 
L 79.074825 638.6695 
L 79.329488 636.405513 
L 79.414376 636.422307 
L 79.499263 636.7209 
L 79.669039 635.672149 
L 79.923702 633.665379 
L 80.093477 634.303781 
L 80.263252 633.114176 
L 80.517915 630.939 
L 80.687691 631.731813 
L 80.942354 626.965727 
L 81.112129 624.7399 
L 81.281905 626.409864 
L 81.536568 621.905893 
L 81.706343 620.27143 
L 81.961006 623.852481 
L 82.300557 619.320187 
L 82.385444 619.714662 
L 82.55522 622.258699 
L 82.640107 621.674022 
L 82.89477 618.155306 
L 82.979658 618.569574 
L 83.149433 621.211139 
L 83.319209 619.127812 
L 83.488984 617.01445 
L 83.573872 617.591487 
L 83.743647 620.443545 
L 83.913422 618.567017 
L 84.083198 616.646423 
L 84.168085 617.299881 
L 84.337861 620.191471 
L 84.507636 618.314916 
L 84.677412 616.503086 
L 84.762299 617.094587 
L 85.016962 621.639912 
L 85.186738 619.73539 
L 85.356513 618.034755 
L 85.441401 618.507653 
L 85.611176 621.33042 
L 85.696064 620.876433 
L 85.950727 617.566718 
L 86.035614 618.05175 
L 86.20539 620.730165 
L 86.290277 620.148669 
L 86.54494 616.71831 
L 86.629828 617.373033 
L 86.799603 620.210849 
L 86.884491 619.663258 
L 87.139154 616.489312 
L 87.224042 617.173998 
L 87.393817 620.169513 
L 87.478705 619.938047 
L 87.733368 618.115026 
L 87.903143 620.376776 
L 88.157806 623.380604 
L 88.412469 622.827601 
L 88.582245 624.684746 
L 88.75202 626.304491 
L 89.006683 626.49275 
L 89.176458 627.888308 
L 89.261346 627.235821 
L 89.600897 597.886912 
L 89.685784 600.635917 
L 89.85556 607.646388 
L 89.940447 607.559805 
L 90.025335 606.797517 
L 90.110223 606.941638 
L 90.364886 613.144822 
L 90.9591 630.016441 
L 91.553313 640.088595 
L 92.147527 646.704994 
L 92.826628 651.781816 
L 92.911516 647.658987 
L 93.251067 574.841274 
L 93.335954 587.435982 
L 93.420842 599.018564 
L 93.50573 596.661103 
L 93.760393 518.369769 
L 93.84528 521.854227 
L 94.015056 532.97917 
L 94.099943 530.865127 
L 94.184831 525.18889 
L 94.439494 467.328937 
L 94.60927 484.473963 
L 94.694157 483.781102 
L 94.779045 480.266636 
L 95.033708 426.88528 
L 95.373259 455.323177 
L 95.627922 407.263591 
L 95.967472 442.005662 
L 96.222135 399.74 
L 96.307023 404.795036 
L 96.561686 437.410306 
L 96.816349 405.532213 
L 96.986124 424.271036 
L 97.240787 449.18497 
L 97.410563 433.038633 
L 97.495451 435.021724 
L 97.750114 463.841021 
L 97.835001 469.788778 
L 98.089664 455.806396 
L 98.429215 482.499551 
L 98.59899 472.968868 
L 98.683878 473.198128 
L 99.023429 498.40483 
L 99.193204 491.962433 
L 99.278092 492.569316 
L 99.617642 514.324917 
L 99.70253 513.218135 
L 99.872305 510.197901 
L 100.296744 533.692416 
L 100.381631 533.955899 
L 100.466519 532.933027 
L 100.551407 533.068123 
L 100.890958 549.486424 
L 101.060733 548.99622 
L 101.145621 545.788751 
L 101.485171 560.351546 
L 101.570059 560.170815 
L 101.739834 558.974154 
L 101.90961 565.099006 
L 102.079385 571.237962 
L 102.164273 571.416848 
L 102.24916 571.259915 
L 102.334048 571.336778 
L 102.503823 575.835741 
L 102.758486 581.604504 
L 102.928262 582.037046 
L 103.098037 585.316282 
L 103.3527 591.299525 
L 103.522475 589.174015 
L 103.692251 587.355502 
L 103.946914 592.174996 
L 104.286465 582.550495 
L 104.541128 586.981541 
L 104.880678 568.359576 
L 105.050454 573.28611 
L 105.135341 572.378439 
L 105.474892 532.928484 
L 105.644667 538.171057 
L 105.729555 533.811341 
L 105.984218 449.308634 
L 106.069106 457.506946 
L 106.153993 462.804714 
L 106.238881 460.718024 
L 106.748207 493.624672 
L 107.087758 535.420069 
L 107.766859 580.368935 
L 108.361073 598.226005 
L 109.125062 607.726334 
L 109.634388 612.216994 
L 109.889051 613.588171 
L 110.483265 618.686347 
L 111.417029 624.633168 
L 112.011243 626.718188 
L 112.775232 627.925572 
L 113.96366 628.536559 
L 114.388098 628.649519 
L 116.51029 628.950813 
L 116.764953 629.005077 
L 117.61383 629.014432 
L 117.868493 628.990826 
L 118.123156 629.038742 
L 118.547594 629.070758 
L 118.802257 629.153145 
L 119.226695 629.171806 
L 119.566246 629.112709 
L 119.736021 629.10906 
L 119.990684 629.15282 
L 120.500011 629.129227 
L 121.518663 628.981876 
L 121.60355 629.076309 
L 121.688438 628.774898 
L 122.112876 618.752536 
L 122.197764 619.00261 
L 122.367539 619.963208 
L 122.452427 620.021552 
L 122.622202 619.786366 
L 122.70709 619.949514 
L 123.386192 624.34326 
L 123.81063 627.10297 
L 126.017709 639.151712 
L 126.781699 641.793459 
L 127.375912 642.855219 
L 127.715463 643.212913 
L 127.885238 643.531686 
L 128.055014 643.54213 
L 129.328329 642.892075 
L 129.498104 642.745671 
L 129.582992 642.792956 
L 130.686532 641.747268 
L 130.941195 642.190363 
L 131.11097 642.015454 
L 131.365633 641.69334 
L 131.535408 641.727047 
L 131.790071 641.380033 
L 131.959847 641.201982 
L 132.129622 641.237843 
L 132.384285 640.815437 
L 132.55406 640.598266 
L 132.638948 640.703782 
L 132.893611 640.336427 
L 133.148274 639.931267 
L 133.233162 640.064684 
L 133.31805 640.001377 
L 133.572713 639.512892 
L 133.742488 639.314244 
L 133.997151 639.987324 
L 134.166926 639.684653 
L 134.421589 639.229448 
L 134.506477 639.420415 
L 134.591365 639.372206 
L 134.846028 638.781152 
L 135.015803 638.582005 
L 135.100691 638.784883 
L 135.270466 638.52614 
L 135.525129 637.735806 
L 135.610017 637.770017 
L 135.694904 637.983619 
L 135.86468 637.681964 
L 136.119343 636.851793 
L 136.20423 636.931059 
L 136.289118 637.199366 
L 136.374006 637.134369 
L 136.713557 636.053273 
L 136.798444 636.167042 
L 137.053107 637.150967 
L 137.222883 636.566248 
L 137.392658 635.909801 
L 137.562433 636.433146 
L 137.647321 636.368153 
L 137.986872 635.072177 
L 138.071759 635.224905 
L 138.156647 635.608379 
L 138.241535 635.535452 
L 138.581085 634.010718 
L 138.665973 634.185381 
L 139.005524 635.638816 
L 139.175299 636.015198 
L 139.51485 638.102564 
L 141.637042 650.393038 
L 142.485918 653.351598 
L 142.910357 654.360145 
L 143.080132 654.585124 
L 143.589458 655.993958 
L 144.438335 657.339497 
L 145.372099 658.483978 
L 147.239628 659.706404 
L 147.324516 659.662302 
L 147.833842 657.444059 
L 148.088505 654.55446 
L 148.597831 649.04478 
L 149.107157 646.818459 
L 149.36182 645.925436 
L 149.701371 644.611759 
L 149.786259 644.659483 
L 150.040922 645.670549 
L 150.550248 647.832884 
L 150.974686 648.781069 
L 151.229349 648.692548 
L 151.399124 648.269637 
L 151.484012 648.307514 
L 151.653787 648.422007 
L 151.823563 648.378764 
L 152.163113 648.024509 
L 152.332889 648.082764 
L 152.502664 647.919879 
L 152.842215 647.3228 
L 153.01199 647.676617 
L 153.436429 648.957157 
L 153.606204 648.626869 
L 154.370193 645.522601 
L 154.624856 644.618764 
L 154.879519 644.091846 
L 155.134182 643.255236 
L 155.303957 643.585934 
L 155.55862 643.780793 
L 155.728396 643.689456 
L 155.898171 643.985169 
L 156.237722 644.334667 
L 156.32261 644.342441 
L 156.492385 644.712597 
L 157.086599 646.946877 
L 157.256374 646.474995 
L 157.595925 644.622588 
L 157.680812 644.688172 
L 158.444801 647.582654 
L 158.529689 647.538643 
L 158.954128 646.852859 
L 159.293678 644.128863 
L 159.463454 642.827499 
L 159.548341 642.855239 
L 159.887892 643.423486 
L 160.227443 643.244573 
L 160.651881 642.223441 
L 160.991432 642.749994 
L 161.161207 642.733628 
L 161.246095 642.859386 
L 163.198511 650.390131 
L 163.453174 649.297529 
L 163.792725 647.191663 
L 163.877613 647.113036 
L 164.386939 647.647235 
L 164.471826 647.635751 
L 164.726489 645.716097 
L 164.981152 643.398831 
L 165.06604 643.352238 
L 165.575366 645.00016 
L 166.084692 646.789461 
L 166.594018 648.425259 
L 166.848681 648.92051 
L 167.103344 647.031776 
L 167.442895 644.321454 
L 167.61267 644.681628 
L 167.697558 644.687956 
L 167.867333 644.163432 
L 168.631323 640.78477 
L 168.71621 640.877126 
L 168.885986 640.379608 
L 169.225536 638.799989 
L 169.480199 640.437188 
L 169.904638 642.932529 
L 170.244188 643.587449 
L 170.413964 643.893753 
L 170.753514 645.95414 
L 171.177953 648.15921 
L 171.347728 648.133165 
L 172.02683 646.33236 
L 172.36638 645.399553 
L 173.300145 647.626944 
L 173.809471 648.907959 
L 173.979246 648.750651 
L 174.233909 648.485309 
L 174.403684 648.481656 
L 174.658347 648.426662 
L 174.828123 648.302581 
L 175.167674 645.96233 
L 175.422337 644.570347 
L 175.677 645.590532 
L 176.01655 646.641268 
L 176.271213 645.545138 
L 176.525876 644.264154 
L 176.695652 644.631565 
L 176.780539 644.532179 
L 176.950315 643.896421 
L 177.204978 642.664855 
L 177.374753 642.668476 
L 177.544528 642.430702 
L 177.799191 641.761345 
L 177.968967 642.30651 
L 178.563181 644.838189 
L 179.157394 646.128197 
L 180.091159 650.020193 
L 180.430709 650.94329 
L 180.600485 650.930846 
L 180.940035 650.506989 
L 182.637789 641.767693 
L 182.722677 641.883577 
L 183.147115 643.288704 
L 183.656441 644.127415 
L 183.826216 644.03631 
L 183.995992 644.288571 
L 184.165767 643.874067 
L 184.505318 642.315332 
L 184.590205 642.354156 
L 184.759981 641.797696 
L 185.014644 640.805313 
L 185.269307 640.06034 
L 185.52397 640.122547 
L 185.608858 640.089102 
L 185.693745 640.201294 
L 185.948408 640.937727 
L 186.118184 640.666021 
L 186.287959 640.339895 
L 186.372847 640.412548 
L 187.136836 642.955413 
L 187.391499 643.169546 
L 187.561274 643.315293 
L 187.646162 643.430375 
L 187.900825 642.18928 
L 188.155488 640.961674 
L 188.325263 641.465732 
L 188.834589 643.598797 
L 189.089252 644.147007 
L 189.428803 644.504728 
L 189.768354 645.115055 
L 190.532343 645.752114 
L 190.702118 645.911107 
L 191.041669 647.194812 
L 191.296332 648.145792 
L 191.466107 647.884159 
L 191.890546 646.779932 
L 192.145209 647.52521 
L 192.569647 648.809764 
L 193.163861 650.437067 
L 193.418524 648.798015 
L 194.2674 642.073892 
L 194.352288 642.005819 
L 196.389592 647.085824 
L 196.729143 647.310089 
L 196.814031 647.224951 
L 197.493132 642.579775 
L 197.747795 642.576331 
L 197.917571 642.457661 
L 198.087346 642.860914 
L 198.68156 645.879338 
L 200.039762 653.408632 
L 200.294425 654.347694 
L 200.718864 655.89337 
L 201.482853 657.658404 
L 202.161954 658.5491 
L 203.180606 659.637979 
L 204.199258 660.35674 
L 205.472574 660.97923 
L 207.085439 661.530421 
L 207.764541 661.7058 
L 207.849429 659.28266 
L 208.273867 619.193934 
L 208.358755 620.165998 
L 208.443642 622.703954 
L 208.613418 613.506426 
L 208.783193 598.347037 
L 209.037856 604.06217 
L 209.377407 592.401397 
L 209.63207 601.526254 
L 209.97162 592.132827 
L 210.311171 603.084555 
L 210.650722 593.744157 
L 210.905385 601.995472 
L 211.244936 593.127509 
L 211.499599 599.858126 
L 211.839149 593.768462 
L 212.093812 600.981475 
L 212.1787 600.077297 
L 212.433363 597.31764 
L 212.688026 604.22497 
L 212.772914 603.919131 
L 213.027577 602.458355 
L 213.452015 610.922078 
L 213.706678 610.370603 
L 213.876453 613.594773 
L 214.046229 615.892598 
L 214.300892 615.307815 
L 214.640443 619.187782 
L 214.895106 618.318841 
L 215.064881 620.646736 
L 215.234656 622.095346 
L 215.489319 621.309942 
L 215.574207 621.824536 
L 215.82887 624.654253 
L 216.083533 623.947061 
L 216.168421 624.331642 
L 216.507971 628.054761 
L 216.762634 627.496804 
L 216.847522 627.7373 
L 217.102185 629.820988 
L 217.356848 629.480099 
L 217.441736 629.609698 
L 217.696399 631.370958 
L 217.866174 631.161819 
L 217.951062 631.005051 
L 218.03595 631.074176 
L 218.205725 632.075513 
L 218.460388 627.001646 
L 218.630163 624.344908 
L 218.799939 625.776911 
L 219.224377 613.602836 
L 219.394152 617.378495 
L 219.47904 617.283835 
L 219.818591 598.938062 
L 220.073254 605.311517 
L 220.327917 575.298005 
L 220.412805 575.334837 
L 220.58258 586.487951 
L 220.667468 582.154189 
L 220.922131 492.136044 
L 221.007018 501.242775 
L 221.091906 508.202854 
L 221.261681 496.790952 
L 221.346569 497.318077 
L 221.516344 510.57588 
L 222.02567 564.023586 
L 222.619884 606.780085 
L 223.12921 624.257131 
L 223.808312 636.128724 
L 224.23275 640.119045 
L 224.657188 642.899241 
L 225.166514 645.590316 
L 226.015391 649.970121 
L 226.864268 653.439511 
L 227.543369 655.484342 
L 228.646909 657.693278 
L 229.580673 658.852637 
L 230.005112 659.206815 
L 232.97618 660.502521 
L 233.485507 660.349539 
L 234.07972 659.493603 
L 235.098372 654.4224 
L 235.777474 651.019376 
L 236.032137 650.705706 
L 236.456575 650.627914 
L 236.626351 650.554671 
L 237.305452 650.067084 
L 237.72989 649.509523 
L 237.814778 649.568485 
L 238.069441 649.159749 
L 238.493879 647.526371 
L 238.83343 645.052731 
L 239.003205 644.452754 
L 239.767194 644.195186 
L 240.106745 643.620109 
L 240.191633 643.67825 
L 240.446296 642.326184 
L 240.700959 640.817368 
L 240.870734 641.454009 
L 240.955622 641.295856 
L 241.125397 640.247918 
L 241.38006 638.621842 
L 241.464948 638.799412 
L 241.634723 638.421217 
L 241.889386 637.004162 
L 241.974274 637.077822 
L 242.228937 637.836716 
L 242.4836 637.56656 
L 242.653375 638.340766 
L 243.672028 643.508327 
L 244.181354 645.566369 
L 244.520904 646.000339 
L 244.775567 645.31867 
L 245.369781 642.663997 
L 245.709332 640.997998 
L 246.048882 640.637183 
L 246.218658 640.467102 
L 246.388433 641.048736 
L 247.067535 644.405816 
L 247.23731 644.114766 
L 247.491973 643.481481 
L 247.746636 643.669343 
L 248.171074 643.780626 
L 248.765288 645.461735 
L 249.019951 643.78897 
L 249.274614 642.120592 
L 249.359502 642.024295 
L 249.868828 639.821836 
L 249.953716 639.992841 
L 250.632817 642.855758 
L 250.802592 642.654805 
L 251.142143 641.85655 
L 251.227031 641.948688 
L 251.481694 640.526624 
L 251.736357 639.090053 
L 251.906132 639.687891 
L 252.33057 641.226105 
L 252.670121 642.799211 
L 253.688773 648.816402 
L 253.773661 648.658629 
L 253.943436 648.01257 
L 254.282987 646.396046 
L 254.367875 646.516565 
L 255.046976 648.931576 
L 255.471414 649.439254 
L 255.895853 646.93582 
L 256.065628 646.265057 
L 256.150516 646.286556 
L 256.405179 645.023677 
L 256.74473 643.14059 
L 257.169168 642.770687 
L 257.338943 642.779396 
L 257.593606 642.856867 
L 257.848269 643.140066 
L 258.102932 643.558143 
L 258.442483 643.718277 
L 258.951809 644.686047 
L 259.206472 645.209234 
L 259.461135 643.788039 
L 259.715798 642.165915 
L 259.885574 641.87101 
L 260.140237 641.111983 
L 260.310012 640.631096 
L 260.649563 640.886484 
L 260.819338 640.892324 
L 261.158889 641.284231 
L 261.413552 641.231489 
L 261.668215 641.856468 
L 262.007765 642.564531 
L 262.177541 643.096708 
L 262.771755 645.590463 
L 262.856642 645.782007 
L 263.111305 644.793953 
L 263.365968 643.537535 
L 263.450856 643.581811 
L 263.790407 644.910196 
L 264.129957 645.841951 
L 264.724171 646.802631 
L 265.318385 648.682988 
L 265.573048 646.957448 
L 265.912599 644.327435 
L 266.167262 644.033513 
L 266.676588 643.587892 
L 267.016138 643.693317 
L 267.101026 643.750491 
L 267.610352 641.364905 
L 267.69524 641.5236 
L 268.374341 644.107072 
L 268.459229 644.075697 
L 268.629004 643.790745 
L 268.883667 643.332894 
L 268.968555 643.425909 
L 269.223218 643.034287 
L 269.647656 642.035272 
L 270.581421 636.198949 
L 270.666308 636.087328 
L 270.920971 637.619492 
L 272.873388 649.083706 
L 273.212939 649.604867 
L 273.552489 648.017624 
L 273.89204 646.502631 
L 274.486254 645.887461 
L 274.825804 642.990884 
L 275.080467 641.476838 
L 275.589794 638.253991 
L 275.674681 638.373337 
L 275.844457 638.309313 
L 276.09912 637.871274 
L 276.184007 637.986448 
L 276.43867 639.592225 
L 277.287547 644.994799 
L 277.627098 646.366836 
L 277.711985 646.36394 
L 278.136424 645.627469 
L 278.391087 646.776691 
L 278.730638 648.116083 
L 278.985301 646.028555 
L 279.409739 642.822117 
L 279.834177 640.140878 
L 279.919065 640.23346 
L 280.683054 642.916879 
L 280.937717 643.065322 
L 281.022605 643.074133 
L 281.19238 643.403754 
L 281.447043 642.439195 
L 281.701706 641.323941 
L 281.871481 641.669432 
L 282.211032 642.490662 
L 282.380808 642.654854 
L 282.890134 639.284177 
L 282.975021 639.484831 
L 283.73901 642.146527 
L 285.776315 653.918896 
L 287.04963 657.437275 
L 287.643843 658.401202 
L 289.511372 660.053177 
L 290.784687 660.719289 
L 292.058003 661.189205 
L 292.14289 661.003354 
L 292.991767 652.821294 
L 293.24643 653.819697 
L 293.585981 654.855656 
L 293.755756 654.798793 
L 294.095307 654.444876 
L 294.265082 654.495319 
L 294.519745 654.864215 
L 295.113959 656.450301 
L 295.79306 657.944646 
L 296.641937 659.177095 
L 297.490814 660.037101 
L 297.660589 660.088429 
L 298.169915 658.107021 
L 298.509466 656.844738 
L 298.679241 656.890503 
L 299.44323 657.866759 
L 300.716545 658.444849 
L 301.565422 659.082191 
L 301.989861 659.016088 
L 302.668962 657.648145 
L 303.348063 654.82433 
L 304.281828 649.466599 
L 304.876042 645.742068 
L 305.130705 645.197453 
L 306.74357 637.594866 
L 306.828458 637.73228 
L 306.998233 636.897586 
L 307.252896 635.132637 
L 307.337784 635.209442 
L 307.422672 635.501161 
L 307.592447 634.620747 
L 307.84711 632.834108 
L 307.931998 633.017921 
L 308.101773 634.140546 
L 308.356436 629.105042 
L 308.526212 626.477185 
L 308.695987 627.705711 
L 308.95065 622.960117 
L 309.120425 621.025744 
L 309.290201 622.982208 
L 309.459976 620.36457 
L 309.629751 617.666764 
L 309.714639 618.024393 
L 309.884414 620.764445 
L 310.05419 618.600539 
L 310.223965 616.591829 
L 310.308853 617.232369 
L 310.478628 619.974973 
L 310.648403 618.015119 
L 310.818179 616.18791 
L 310.903066 616.79879 
L 311.15773 621.243432 
L 311.327505 619.284535 
L 311.49728 617.472005 
L 311.582168 617.990729 
L 311.751943 620.80844 
L 311.836831 620.339147 
L 312.091494 617.021052 
L 312.176382 617.472455 
L 312.346157 620.190633 
L 312.515932 618.131197 
L 312.685708 616.177602 
L 312.770595 616.680769 
L 312.940371 619.642455 
L 313.110146 617.707846 
L 313.279921 615.891979 
L 313.364809 616.474918 
L 313.534584 619.483726 
L 313.70436 617.683986 
L 313.874135 615.832499 
L 313.959023 616.475502 
L 314.213686 620.977241 
L 314.383461 619.104264 
L 314.553237 617.310167 
L 314.638124 617.885694 
L 314.8079 620.717349 
L 314.892787 620.650033 
L 315.14745 618.598156 
L 315.232338 619.070626 
L 315.487001 621.905466 
L 315.741664 620.953751 
L 315.911439 622.958531 
L 316.081215 624.565892 
L 316.335878 624.681908 
L 316.505653 626.409935 
L 316.590541 625.766834 
L 316.930091 596.858036 
L 317.014979 599.662739 
L 317.184754 607.001341 
L 317.269642 607.394484 
L 317.35453 606.752332 
L 317.439417 606.943197 
L 317.694081 612.778577 
L 318.288294 629.271455 
L 318.967396 640.082523 
L 319.476722 645.024178 
L 320.155823 648.963331 
L 320.665149 650.929625 
L 321.089588 651.806878 
L 321.683801 652.439402 
L 322.10824 652.717019 
L 322.702453 652.555386 
L 323.042004 652.815345 
L 323.466442 652.851713 
L 323.721105 652.899901 
L 325.079308 652.342666 
L 326.182848 651.683459 
L 326.352623 651.629696 
L 326.607286 651.933668 
L 327.710826 653.929626 
L 329.069029 656.927177 
L 330.257456 658.677948 
L 331.191221 659.669667 
L 331.530772 659.810449 
L 332.719199 660.069452 
L 333.737851 660.582767 
L 335.690268 661.202203 
L 338.661336 661.9584 
L 341.547517 662.378449 
L 345.791901 662.724989 
L 352.922466 663.076807 
L 405.7226 665.146964 
L 422.954798 665.513825 
L 436.451938 665.606841 
L 572.102444 666.378943 
L 671.675687 667.086523 
L 671.675687 667.086523 
" clip-path="url(#pee73ef688a)" style="fill: none; stroke: #1f77b4; stroke-width: 1.5; stroke-linecap: square"/>
   </g>
   <g id="patch_9">
    <path d="M 30.103125 684.92 
L 30.103125 386.16 
" style="fill: none; stroke: #000000; stroke-width: 0.8; stroke-linejoin: miter; stroke-linecap: square"/>
   </g>
   <g id="patch_10">
    <path d="M 702.226761 684.92 
L 702.226761 386.16 
" style="fill: none; stroke: #000000; stroke-width: 0.8; stroke-linejoin: miter; stroke-linecap: square"/>
   </g>
   <g id="patch_11">
    <path d="M 30.103125 684.92 
L 702.226761 684.92 
" style="fill: none; stroke: #000000; stroke-width: 0.8; stroke-linejoin: miter; stroke-linecap: square"/>
   </g>
   <g id="patch_12">
    <path d="M 30.103125 386.16 
L 702.226761 386.16 
" style="fill: none; stroke: #000000; stroke-width: 0.8; stroke-linejoin: miter; stroke-linecap: square"/>
   </g>
   <g id="text_32">
    <!-- 2 transformation(s) -->
    <g transform="translate(308.050256 380.16) scale(0.12 -0.12)">
     <use xlink:href="#DejaVuSans-32"/>
     <use xlink:href="#DejaVuSans-20" x="63.623047"/>
     <use xlink:href="#DejaVuSans-74" x="95.410156"/>
     <use xlink:href="#DejaVuSans-72" x="134.619141"/>
     <use xlink:href="#DejaVuSans-61" x="175.732422"/>
     <use xlink:href="#DejaVuSans-6e" x="237.011719"/>
     <use xlink:href="#DejaVuSans-73" x="300.390625"/>
     <use xlink:href="#DejaVuSans-66" x="352.490234"/>
     <use xlink:href="#DejaVuSans-6f" x="387.695312"/>
     <use xlink:href="#DejaVuSans-72" x="448.876953"/>
     <use xlink:href="#DejaVuSans-6d" x="488.240234"/>
     <use xlink:href="#DejaVuSans-61" x="585.652344"/>
     <use xlink:href="#DejaVuSans-74" x="646.931641"/>
     <use xlink:href="#DejaVuSans-69" x="686.140625"/>
     <use xlink:href="#DejaVuSans-6f" x="713.923828"/>
     <use xlink:href="#DejaVuSans-6e" x="775.105469"/>
     <use xlink:href="#DejaVuSans-28" x="838.484375"/>
     <use xlink:href="#DejaVuSans-73" x="877.498047"/>
     <use xlink:href="#DejaVuSans-29" x="929.597656"/>
    </g>
   </g>
  </g>
  <g id="text_33">
   <!-- training -->
   <g transform="translate(333.219687 16.318125) scale(0.12 -0.12)">
    <defs>
     <path id="DejaVuSans-67" d="M 2906 1791 
Q 2906 2416 2648 2759 
Q 2391 3103 1925 3103 
Q 1463 3103 1205 2759 
Q 947 2416 947 1791 
Q 947 1169 1205 825 
Q 1463 481 1925 481 
Q 2391 481 2648 825 
Q 2906 1169 2906 1791 
z
M 3481 434 
Q 3481 -459 3084 -895 
Q 2688 -1331 1869 -1331 
Q 1566 -1331 1297 -1286 
Q 1028 -1241 775 -1147 
L 775 -588 
Q 1028 -725 1275 -790 
Q 1522 -856 1778 -856 
Q 2344 -856 2625 -561 
Q 2906 -266 2906 331 
L 2906 616 
Q 2728 306 2450 153 
Q 2172 0 1784 0 
Q 1141 0 747 490 
Q 353 981 353 1791 
Q 353 2603 747 3093 
Q 1141 3584 1784 3584 
Q 2172 3584 2450 3431 
Q 2728 3278 2906 2969 
L 2906 3500 
L 3481 3500 
L 3481 434 
z
" transform="scale(0.015625)"/>
    </defs>
    <use xlink:href="#DejaVuSans-74"/>
    <use xlink:href="#DejaVuSans-72" x="39.208984"/>
    <use xlink:href="#DejaVuSans-61" x="80.322266"/>
    <use xlink:href="#DejaVuSans-69" x="141.601562"/>
    <use xlink:href="#DejaVuSans-6e" x="169.384766"/>
    <use xlink:href="#DejaVuSans-69" x="232.763672"/>
    <use xlink:href="#DejaVuSans-6e" x="260.546875"/>
    <use xlink:href="#DejaVuSans-67" x="323.925781"/>
   </g>
  </g>
 </g>
 <defs>
  <clipPath id="pbdf34a49ae">
   <rect x="30.103125" y="43.44" width="672.123636" height="298.76"/>
  </clipPath>
  <clipPath id="pee73ef688a">
   <rect x="30.103125" y="386.16" width="672.123636" height="298.76"/>
  </clipPath>
 </defs>
</svg>
