<?xml version="1.0" encoding="utf-8" standalone="no"?>
<!DOCTYPE svg PUBLIC "-//W3C//DTD SVG 1.1//EN"
  "http://www.w3.org/Graphics/SVG/1.1/DTD/svg11.dtd">
<svg xmlns:xlink="http://www.w3.org/1999/xlink" width="709.658324pt" height="708.798125pt" viewBox="0 0 709.658324 708.798125" xmlns="http://www.w3.org/2000/svg" version="1.1">
 <metadata>
  <rdf:RDF xmlns:dc="http://purl.org/dc/elements/1.1/" xmlns:cc="http://creativecommons.org/ns#" xmlns:rdf="http://www.w3.org/1999/02/22-rdf-syntax-ns#">
   <cc:Work>
    <dc:type rdf:resource="http://purl.org/dc/dcmitype/StillImage"/>
    <dc:date>2023-06-12T16:32:46.463692</dc:date>
    <dc:format>image/svg+xml</dc:format>
    <dc:creator>
     <cc:Agent>
      <dc:title>Matplotlib v3.7.1, https://matplotlib.org/</dc:title>
     </cc:Agent>
    </dc:creator>
   </cc:Work>
  </rdf:RDF>
 </metadata>
 <defs>
  <style type="text/css">*{stroke-linejoin: round; stroke-linecap: butt}</style>
 </defs>
 <g id="figure_1">
  <g id="patch_1">
   <path d="M 0 708.798125 
L 709.658324 708.798125 
L 709.658324 0 
L 0 0 
z
" style="fill: #ffffff"/>
  </g>
  <g id="axes_1">
   <g id="patch_2">
    <path d="M 60.754688 342.2 
L 702.458324 342.2 
L 702.458324 43.44 
L 60.754688 43.44 
z
" style="fill: #ffffff"/>
   </g>
   <g id="matplotlib.axis_1">
    <g id="xtick_1">
     <g id="line2d_1">
      <defs>
       <path id="m0b312c5e4b" d="M 0 0 
L 0 3.5 
" style="stroke: #000000; stroke-width: 0.8"/>
      </defs>
      <g>
       <use xlink:href="#m0b312c5e4b" x="89.760943" y="342.2" style="stroke: #000000; stroke-width: 0.8"/>
      </g>
     </g>
     <g id="text_1">
      <!-- 2014-07-01 -->
      <g transform="translate(60.703131 356.798437) scale(0.1 -0.1)">
       <defs>
        <path id="DejaVuSans-32" d="M 1228 531 
L 3431 531 
L 3431 0 
L 469 0 
L 469 531 
Q 828 903 1448 1529 
Q 2069 2156 2228 2338 
Q 2531 2678 2651 2914 
Q 2772 3150 2772 3378 
Q 2772 3750 2511 3984 
Q 2250 4219 1831 4219 
Q 1534 4219 1204 4116 
Q 875 4013 500 3803 
L 500 4441 
Q 881 4594 1212 4672 
Q 1544 4750 1819 4750 
Q 2544 4750 2975 4387 
Q 3406 4025 3406 3419 
Q 3406 3131 3298 2873 
Q 3191 2616 2906 2266 
Q 2828 2175 2409 1742 
Q 1991 1309 1228 531 
z
" transform="scale(0.015625)"/>
        <path id="DejaVuSans-30" d="M 2034 4250 
Q 1547 4250 1301 3770 
Q 1056 3291 1056 2328 
Q 1056 1369 1301 889 
Q 1547 409 2034 409 
Q 2525 409 2770 889 
Q 3016 1369 3016 2328 
Q 3016 3291 2770 3770 
Q 2525 4250 2034 4250 
z
M 2034 4750 
Q 2819 4750 3233 4129 
Q 3647 3509 3647 2328 
Q 3647 1150 3233 529 
Q 2819 -91 2034 -91 
Q 1250 -91 836 529 
Q 422 1150 422 2328 
Q 422 3509 836 4129 
Q 1250 4750 2034 4750 
z
" transform="scale(0.015625)"/>
        <path id="DejaVuSans-31" d="M 794 531 
L 1825 531 
L 1825 4091 
L 703 3866 
L 703 4441 
L 1819 4666 
L 2450 4666 
L 2450 531 
L 3481 531 
L 3481 0 
L 794 0 
L 794 531 
z
" transform="scale(0.015625)"/>
        <path id="DejaVuSans-34" d="M 2419 4116 
L 825 1625 
L 2419 1625 
L 2419 4116 
z
M 2253 4666 
L 3047 4666 
L 3047 1625 
L 3713 1625 
L 3713 1100 
L 3047 1100 
L 3047 0 
L 2419 0 
L 2419 1100 
L 313 1100 
L 313 1709 
L 2253 4666 
z
" transform="scale(0.015625)"/>
        <path id="DejaVuSans-2d" d="M 313 2009 
L 1997 2009 
L 1997 1497 
L 313 1497 
L 313 2009 
z
" transform="scale(0.015625)"/>
        <path id="DejaVuSans-37" d="M 525 4666 
L 3525 4666 
L 3525 4397 
L 1831 0 
L 1172 0 
L 2766 4134 
L 525 4134 
L 525 4666 
z
" transform="scale(0.015625)"/>
       </defs>
       <use xlink:href="#DejaVuSans-32"/>
       <use xlink:href="#DejaVuSans-30" x="63.623047"/>
       <use xlink:href="#DejaVuSans-31" x="127.246094"/>
       <use xlink:href="#DejaVuSans-34" x="190.869141"/>
       <use xlink:href="#DejaVuSans-2d" x="254.492188"/>
       <use xlink:href="#DejaVuSans-30" x="290.576172"/>
       <use xlink:href="#DejaVuSans-37" x="354.199219"/>
       <use xlink:href="#DejaVuSans-2d" x="417.822266"/>
       <use xlink:href="#DejaVuSans-30" x="453.90625"/>
       <use xlink:href="#DejaVuSans-31" x="517.529297"/>
      </g>
     </g>
    </g>
    <g id="xtick_2">
     <g id="line2d_2">
      <g>
       <use xlink:href="#m0b312c5e4b" x="206.46675" y="342.2" style="stroke: #000000; stroke-width: 0.8"/>
      </g>
     </g>
     <g id="text_2">
      <!-- 2014-07-02 -->
      <g transform="translate(177.408937 356.798437) scale(0.1 -0.1)">
       <use xlink:href="#DejaVuSans-32"/>
       <use xlink:href="#DejaVuSans-30" x="63.623047"/>
       <use xlink:href="#DejaVuSans-31" x="127.246094"/>
       <use xlink:href="#DejaVuSans-34" x="190.869141"/>
       <use xlink:href="#DejaVuSans-2d" x="254.492188"/>
       <use xlink:href="#DejaVuSans-30" x="290.576172"/>
       <use xlink:href="#DejaVuSans-37" x="354.199219"/>
       <use xlink:href="#DejaVuSans-2d" x="417.822266"/>
       <use xlink:href="#DejaVuSans-30" x="453.90625"/>
       <use xlink:href="#DejaVuSans-32" x="517.529297"/>
      </g>
     </g>
    </g>
    <g id="xtick_3">
     <g id="line2d_3">
      <g>
       <use xlink:href="#m0b312c5e4b" x="323.172557" y="342.2" style="stroke: #000000; stroke-width: 0.8"/>
      </g>
     </g>
     <g id="text_3">
      <!-- 2014-07-03 -->
      <g transform="translate(294.114744 356.798437) scale(0.1 -0.1)">
       <defs>
        <path id="DejaVuSans-33" d="M 2597 2516 
Q 3050 2419 3304 2112 
Q 3559 1806 3559 1356 
Q 3559 666 3084 287 
Q 2609 -91 1734 -91 
Q 1441 -91 1130 -33 
Q 819 25 488 141 
L 488 750 
Q 750 597 1062 519 
Q 1375 441 1716 441 
Q 2309 441 2620 675 
Q 2931 909 2931 1356 
Q 2931 1769 2642 2001 
Q 2353 2234 1838 2234 
L 1294 2234 
L 1294 2753 
L 1863 2753 
Q 2328 2753 2575 2939 
Q 2822 3125 2822 3475 
Q 2822 3834 2567 4026 
Q 2313 4219 1838 4219 
Q 1578 4219 1281 4162 
Q 984 4106 628 3988 
L 628 4550 
Q 988 4650 1302 4700 
Q 1616 4750 1894 4750 
Q 2613 4750 3031 4423 
Q 3450 4097 3450 3541 
Q 3450 3153 3228 2886 
Q 3006 2619 2597 2516 
z
" transform="scale(0.015625)"/>
       </defs>
       <use xlink:href="#DejaVuSans-32"/>
       <use xlink:href="#DejaVuSans-30" x="63.623047"/>
       <use xlink:href="#DejaVuSans-31" x="127.246094"/>
       <use xlink:href="#DejaVuSans-34" x="190.869141"/>
       <use xlink:href="#DejaVuSans-2d" x="254.492188"/>
       <use xlink:href="#DejaVuSans-30" x="290.576172"/>
       <use xlink:href="#DejaVuSans-37" x="354.199219"/>
       <use xlink:href="#DejaVuSans-2d" x="417.822266"/>
       <use xlink:href="#DejaVuSans-30" x="453.90625"/>
       <use xlink:href="#DejaVuSans-33" x="517.529297"/>
      </g>
     </g>
    </g>
    <g id="xtick_4">
     <g id="line2d_4">
      <g>
       <use xlink:href="#m0b312c5e4b" x="439.878363" y="342.2" style="stroke: #000000; stroke-width: 0.8"/>
      </g>
     </g>
     <g id="text_4">
      <!-- 2014-07-04 -->
      <g transform="translate(410.820551 356.798437) scale(0.1 -0.1)">
       <use xlink:href="#DejaVuSans-32"/>
       <use xlink:href="#DejaVuSans-30" x="63.623047"/>
       <use xlink:href="#DejaVuSans-31" x="127.246094"/>
       <use xlink:href="#DejaVuSans-34" x="190.869141"/>
       <use xlink:href="#DejaVuSans-2d" x="254.492188"/>
       <use xlink:href="#DejaVuSans-30" x="290.576172"/>
       <use xlink:href="#DejaVuSans-37" x="354.199219"/>
       <use xlink:href="#DejaVuSans-2d" x="417.822266"/>
       <use xlink:href="#DejaVuSans-30" x="453.90625"/>
       <use xlink:href="#DejaVuSans-34" x="517.529297"/>
      </g>
     </g>
    </g>
    <g id="xtick_5">
     <g id="line2d_5">
      <g>
       <use xlink:href="#m0b312c5e4b" x="556.58417" y="342.2" style="stroke: #000000; stroke-width: 0.8"/>
      </g>
     </g>
     <g id="text_5">
      <!-- 2014-07-05 -->
      <g transform="translate(527.526358 356.798437) scale(0.1 -0.1)">
       <defs>
        <path id="DejaVuSans-35" d="M 691 4666 
L 3169 4666 
L 3169 4134 
L 1269 4134 
L 1269 2991 
Q 1406 3038 1543 3061 
Q 1681 3084 1819 3084 
Q 2600 3084 3056 2656 
Q 3513 2228 3513 1497 
Q 3513 744 3044 326 
Q 2575 -91 1722 -91 
Q 1428 -91 1123 -41 
Q 819 9 494 109 
L 494 744 
Q 775 591 1075 516 
Q 1375 441 1709 441 
Q 2250 441 2565 725 
Q 2881 1009 2881 1497 
Q 2881 1984 2565 2268 
Q 2250 2553 1709 2553 
Q 1456 2553 1204 2497 
Q 953 2441 691 2322 
L 691 4666 
z
" transform="scale(0.015625)"/>
       </defs>
       <use xlink:href="#DejaVuSans-32"/>
       <use xlink:href="#DejaVuSans-30" x="63.623047"/>
       <use xlink:href="#DejaVuSans-31" x="127.246094"/>
       <use xlink:href="#DejaVuSans-34" x="190.869141"/>
       <use xlink:href="#DejaVuSans-2d" x="254.492188"/>
       <use xlink:href="#DejaVuSans-30" x="290.576172"/>
       <use xlink:href="#DejaVuSans-37" x="354.199219"/>
       <use xlink:href="#DejaVuSans-2d" x="417.822266"/>
       <use xlink:href="#DejaVuSans-30" x="453.90625"/>
       <use xlink:href="#DejaVuSans-35" x="517.529297"/>
      </g>
     </g>
    </g>
    <g id="xtick_6">
     <g id="line2d_6">
      <g>
       <use xlink:href="#m0b312c5e4b" x="673.289977" y="342.2" style="stroke: #000000; stroke-width: 0.8"/>
      </g>
     </g>
     <g id="text_6">
      <!-- 2014-07-06 -->
      <g transform="translate(644.232164 356.798437) scale(0.1 -0.1)">
       <defs>
        <path id="DejaVuSans-36" d="M 2113 2584 
Q 1688 2584 1439 2293 
Q 1191 2003 1191 1497 
Q 1191 994 1439 701 
Q 1688 409 2113 409 
Q 2538 409 2786 701 
Q 3034 994 3034 1497 
Q 3034 2003 2786 2293 
Q 2538 2584 2113 2584 
z
M 3366 4563 
L 3366 3988 
Q 3128 4100 2886 4159 
Q 2644 4219 2406 4219 
Q 1781 4219 1451 3797 
Q 1122 3375 1075 2522 
Q 1259 2794 1537 2939 
Q 1816 3084 2150 3084 
Q 2853 3084 3261 2657 
Q 3669 2231 3669 1497 
Q 3669 778 3244 343 
Q 2819 -91 2113 -91 
Q 1303 -91 875 529 
Q 447 1150 447 2328 
Q 447 3434 972 4092 
Q 1497 4750 2381 4750 
Q 2619 4750 2861 4703 
Q 3103 4656 3366 4563 
z
" transform="scale(0.015625)"/>
       </defs>
       <use xlink:href="#DejaVuSans-32"/>
       <use xlink:href="#DejaVuSans-30" x="63.623047"/>
       <use xlink:href="#DejaVuSans-31" x="127.246094"/>
       <use xlink:href="#DejaVuSans-34" x="190.869141"/>
       <use xlink:href="#DejaVuSans-2d" x="254.492188"/>
       <use xlink:href="#DejaVuSans-30" x="290.576172"/>
       <use xlink:href="#DejaVuSans-37" x="354.199219"/>
       <use xlink:href="#DejaVuSans-2d" x="417.822266"/>
       <use xlink:href="#DejaVuSans-30" x="453.90625"/>
       <use xlink:href="#DejaVuSans-36" x="517.529297"/>
      </g>
     </g>
    </g>
   </g>
   <g id="matplotlib.axis_2">
    <g id="ytick_1">
     <g id="line2d_7">
      <defs>
       <path id="md4fec2a60c" d="M 0 0 
L -3.5 0 
" style="stroke: #000000; stroke-width: 0.8"/>
      </defs>
      <g>
       <use xlink:href="#md4fec2a60c" x="60.754688" y="328.616781" style="stroke: #000000; stroke-width: 0.8"/>
      </g>
     </g>
     <g id="text_7">
      <!-- 0.0 -->
      <g transform="translate(37.851562 332.416) scale(0.1 -0.1)">
       <defs>
        <path id="DejaVuSans-2e" d="M 684 794 
L 1344 794 
L 1344 0 
L 684 0 
L 684 794 
z
" transform="scale(0.015625)"/>
       </defs>
       <use xlink:href="#DejaVuSans-30"/>
       <use xlink:href="#DejaVuSans-2e" x="63.623047"/>
       <use xlink:href="#DejaVuSans-30" x="95.410156"/>
      </g>
     </g>
    </g>
    <g id="ytick_2">
     <g id="line2d_8">
      <g>
       <use xlink:href="#md4fec2a60c" x="60.754688" y="272.978112" style="stroke: #000000; stroke-width: 0.8"/>
      </g>
     </g>
     <g id="text_8">
      <!-- 0.5 -->
      <g transform="translate(37.851562 276.777331) scale(0.1 -0.1)">
       <use xlink:href="#DejaVuSans-30"/>
       <use xlink:href="#DejaVuSans-2e" x="63.623047"/>
       <use xlink:href="#DejaVuSans-35" x="95.410156"/>
      </g>
     </g>
    </g>
    <g id="ytick_3">
     <g id="line2d_9">
      <g>
       <use xlink:href="#md4fec2a60c" x="60.754688" y="217.339443" style="stroke: #000000; stroke-width: 0.8"/>
      </g>
     </g>
     <g id="text_9">
      <!-- 1.0 -->
      <g transform="translate(37.851562 221.138662) scale(0.1 -0.1)">
       <use xlink:href="#DejaVuSans-31"/>
       <use xlink:href="#DejaVuSans-2e" x="63.623047"/>
       <use xlink:href="#DejaVuSans-30" x="95.410156"/>
      </g>
     </g>
    </g>
    <g id="ytick_4">
     <g id="line2d_10">
      <g>
       <use xlink:href="#md4fec2a60c" x="60.754688" y="161.700774" style="stroke: #000000; stroke-width: 0.8"/>
      </g>
     </g>
     <g id="text_10">
      <!-- 1.5 -->
      <g transform="translate(37.851562 165.499993) scale(0.1 -0.1)">
       <use xlink:href="#DejaVuSans-31"/>
       <use xlink:href="#DejaVuSans-2e" x="63.623047"/>
       <use xlink:href="#DejaVuSans-35" x="95.410156"/>
      </g>
     </g>
    </g>
    <g id="ytick_5">
     <g id="line2d_11">
      <g>
       <use xlink:href="#md4fec2a60c" x="60.754688" y="106.062105" style="stroke: #000000; stroke-width: 0.8"/>
      </g>
     </g>
     <g id="text_11">
      <!-- 2.0 -->
      <g transform="translate(37.851562 109.861323) scale(0.1 -0.1)">
       <use xlink:href="#DejaVuSans-32"/>
       <use xlink:href="#DejaVuSans-2e" x="63.623047"/>
       <use xlink:href="#DejaVuSans-30" x="95.410156"/>
      </g>
     </g>
    </g>
    <g id="ytick_6">
     <g id="line2d_12">
      <g>
       <use xlink:href="#md4fec2a60c" x="60.754688" y="50.423435" style="stroke: #000000; stroke-width: 0.8"/>
      </g>
     </g>
     <g id="text_12">
      <!-- 2.5 -->
      <g transform="translate(37.851562 54.222654) scale(0.1 -0.1)">
       <use xlink:href="#DejaVuSans-32"/>
       <use xlink:href="#DejaVuSans-2e" x="63.623047"/>
       <use xlink:href="#DejaVuSans-35" x="95.410156"/>
      </g>
     </g>
    </g>
   </g>
   <g id="line2d_13">
    <path d="M 89.923035 328.59557 
L 90.409309 327.622693 
L 90.5714 327.410716 
L 91.70604 324.96625 
L 92.27336 323.880217 
L 93.326954 322.226484 
L 94.299502 321.257999 
L 95.434142 319.585597 
L 95.758325 319.218026 
L 96.001462 318.983743 
L 96.325645 318.690628 
L 96.568782 318.504583 
L 96.892965 318.334138 
L 97.622376 318.471038 
L 98.027605 318.79862 
L 99.405381 320.513625 
L 101.917798 323.729892 
L 102.323027 323.88436 
L 102.809301 323.519702 
L 103.052438 323.004397 
L 103.943941 320.690887 
L 104.997535 316.867312 
L 105.07858 316.739544 
L 105.240672 315.662709 
L 105.483809 313.519383 
L 105.6459 312.790561 
L 106.537403 298.480116 
L 106.618449 298.533154 
L 106.699494 298.367461 
L 106.78054 297.431525 
L 107.023677 292.103958 
L 107.185769 292.397598 
L 107.428906 290.888379 
L 107.590997 288.338008 
L 107.672043 288.434552 
L 107.834134 289.273446 
L 107.996226 287.973942 
L 108.158317 285.132015 
L 108.401454 286.887753 
L 108.563545 285.625935 
L 108.725637 282.704958 
L 108.968774 284.217927 
L 109.130865 282.40293 
L 109.292957 277.320953 
L 109.455048 278.447661 
L 109.860277 272.774822 
L 109.941322 273.60831 
L 110.022368 273.690147 
L 110.184459 271.185295 
L 110.346551 274.455879 
L 110.508642 272.178494 
L 110.589688 272.464281 
L 110.670734 272.351546 
L 110.751779 271.420873 
L 110.832825 271.549964 
L 110.913871 272.389916 
L 111.075962 271.273675 
L 111.238053 272.65227 
L 111.400145 270.690168 
L 111.481191 271.175332 
L 111.643282 269.920814 
L 111.805373 271.267646 
L 111.967465 269.778351 
L 112.04851 270.567006 
L 112.210602 269.661484 
L 112.372693 271.023166 
L 112.534785 269.674617 
L 112.61583 270.486764 
L 112.777922 269.622166 
L 112.940013 271.016554 
L 113.102105 269.672965 
L 113.264196 273.776719 
L 113.426287 271.718666 
L 113.588379 272.07387 
L 113.669424 271.268886 
L 113.75047 271.341427 
L 113.831516 272.301702 
L 113.993607 271.202321 
L 114.155699 272.609828 
L 114.31779 270.609694 
L 114.398836 271.134376 
L 114.560927 269.923944 
L 114.723019 271.221734 
L 114.88511 269.770618 
L 114.966156 270.551678 
L 115.128247 269.675207 
L 115.290338 271.031311 
L 115.45243 269.680685 
L 115.533476 270.786746 
L 115.614521 270.759432 
L 115.695567 271.075869 
L 115.857658 272.84589 
L 116.01975 271.989569 
L 116.262887 276.039025 
L 116.343933 276.187086 
L 116.506024 277.530247 
L 116.58707 277.453185 
L 116.668115 277.691811 
L 117.15439 282.423985 
L 117.235435 282.206222 
L 117.316481 277.40423 
L 117.478572 255.996104 
L 117.559618 255.740223 
L 117.721709 246.065341 
L 117.964846 258.360277 
L 118.045892 256.836685 
L 118.126938 254.410351 
L 118.207984 255.589038 
L 118.775303 283.101318 
L 119.261578 294.302338 
L 119.828898 302.818014 
L 120.477263 308.943971 
L 120.7204 310.404288 
L 120.801446 297.969064 
L 120.963537 247.694471 
L 121.044583 245.650482 
L 121.206674 227.820417 
L 121.28772 239.293986 
L 121.368766 230.678285 
L 121.611903 157.298408 
L 121.692949 160.705572 
L 121.773994 169.525771 
L 121.85504 168.153662 
L 121.936086 161.544854 
L 122.260269 105.646529 
L 122.42236 120.755804 
L 122.503406 118.128506 
L 122.746543 66.654449 
L 122.827588 66.651531 
L 123.070726 89.902193 
L 123.313863 57.02 
L 123.394908 59.428181 
L 123.638045 89.304167 
L 123.881183 63.837724 
L 123.962228 66.963769 
L 124.205365 96.65282 
L 124.448502 80.44059 
L 124.610594 95.344412 
L 124.934777 121.202645 
L 125.177914 116.816795 
L 125.421051 142.555335 
L 125.502097 140.09339 
L 125.664188 133.083466 
L 125.745234 132.032019 
L 125.988371 157.572867 
L 126.150462 148.453535 
L 126.231508 148.955428 
L 126.312554 148.514914 
L 126.555691 172.721738 
L 126.636736 169.682792 
L 126.717782 164.518998 
L 126.798828 166.14397 
L 126.879873 165.859443 
L 127.041965 181.283794 
L 127.12301 188.870507 
L 127.204056 187.956316 
L 127.285102 182.559584 
L 127.366148 182.958909 
L 127.447193 183.87834 
L 127.528239 187.356101 
L 127.852422 210.910419 
L 127.933467 207.606433 
L 128.176605 214.633376 
L 128.419742 231.598299 
L 128.581833 226.498902 
L 128.662879 226.62542 
L 128.743924 227.690291 
L 128.987062 242.63038 
L 129.068107 242.541628 
L 129.230199 241.358988 
L 129.311244 242.02531 
L 129.797519 255.436036 
L 129.878564 255.751531 
L 129.95961 256.66951 
L 130.202747 264.125261 
L 130.364838 266.120487 
L 130.445884 266.083311 
L 130.52693 265.738612 
L 130.607976 266.846125 
L 130.770067 271.634743 
L 130.932158 267.505131 
L 131.013204 267.691873 
L 131.09425 267.23436 
L 131.175295 265.962729 
L 131.256341 266.274444 
L 131.337387 266.985185 
L 131.499478 261.913439 
L 131.580524 261.809167 
L 131.742615 256.679193 
L 131.823661 257.651599 
L 131.904707 258.417371 
L 132.22889 244.138372 
L 132.309935 242.601209 
L 132.390981 246.883259 
L 132.472027 244.288667 
L 132.796209 196.911622 
L 132.958301 210.049342 
L 133.282484 101.388211 
L 133.363529 109.382261 
L 133.444575 113.677019 
L 133.606666 103.752829 
L 133.930849 143.265108 
L 134.498169 217.820111 
L 134.984443 261.502354 
L 135.470718 278.873948 
L 135.956992 288.382082 
L 136.119083 288.769123 
L 136.605357 293.110628 
L 136.767449 292.960859 
L 137.577906 298.397964 
L 137.983134 301.487559 
L 139.117774 308.413214 
L 139.847185 310.793432 
L 140.333459 311.722843 
L 140.576597 312.026004 
L 140.819734 312.225992 
L 140.981825 312.165497 
L 141.468099 312.310979 
L 141.630191 312.270502 
L 141.873328 312.423968 
L 142.197511 312.11453 
L 142.521693 312.322192 
L 142.845876 311.978041 
L 143.089013 312.127945 
L 143.413196 311.730044 
L 143.656333 311.794021 
L 143.980516 311.341262 
L 144.223653 311.435392 
L 144.547836 310.960224 
L 144.790973 311.027148 
L 145.115156 310.503817 
L 145.439338 310.679214 
L 145.682476 310.176028 
L 145.844567 310.28741 
L 146.006658 310.355357 
L 146.330841 309.796707 
L 146.492933 309.938295 
L 146.655024 309.630255 
L 146.817115 309.288375 
L 146.979207 309.395696 
L 147.060252 309.492786 
L 147.141298 309.415307 
L 147.384435 308.791805 
L 147.546527 308.894457 
L 147.627572 308.980633 
L 147.708618 308.884127 
L 147.951755 308.21891 
L 148.113847 308.355171 
L 148.194892 308.463262 
L 148.275938 307.556153 
L 148.600121 293.656982 
L 148.681166 292.784895 
L 148.924304 287.618644 
L 149.248486 291.761123 
L 149.329532 291.247425 
L 149.491623 289.307581 
L 149.572669 289.309972 
L 149.896852 294.175675 
L 150.30208 298.370449 
L 150.626263 300.994136 
L 150.788355 301.413956 
L 151.274629 303.793455 
L 151.43672 303.664831 
L 151.760903 304.853385 
L 151.841949 304.723957 
L 152.00404 304.11606 
L 152.085086 304.160774 
L 152.328223 304.807412 
L 152.652406 303.93799 
L 152.895543 304.485958 
L 153.219726 303.358179 
L 153.462863 303.864223 
L 153.787046 302.658053 
L 154.111228 303.372124 
L 154.354365 302.306336 
L 154.435411 302.427756 
L 154.678548 303.116633 
L 154.921685 301.689266 
L 155.002731 301.720295 
L 155.245868 302.381235 
L 155.489005 300.981314 
L 155.570051 301.047536 
L 155.813188 301.690952 
L 156.056325 300.106733 
L 156.137371 300.176545 
L 156.380508 300.830829 
L 156.623645 299.193955 
L 156.704691 299.322253 
L 157.028873 300.193753 
L 157.272011 298.884764 
L 157.596193 299.954026 
L 157.83933 298.093781 
L 157.920376 298.26101 
L 158.163513 299.071055 
L 158.40665 297.351343 
L 158.649787 298.199058 
L 158.730833 298.161156 
L 158.97397 296.30551 
L 159.217107 297.285898 
L 159.298153 297.191838 
L 159.54129 295.378518 
L 159.865473 296.596043 
L 159.946519 296.547347 
L 160.10861 295.252104 
L 160.189656 295.285247 
L 160.432793 296.462372 
L 160.513839 296.255142 
L 160.756976 294.224912 
L 161.000113 295.566421 
L 161.081158 295.383181 
L 161.324296 293.340611 
L 161.567433 294.492576 
L 161.648478 294.237 
L 161.891615 292.105948 
L 162.134753 293.40513 
L 162.215798 293.139523 
L 162.37789 291.01887 
L 162.458935 291.074031 
L 162.702072 292.489334 
L 162.864164 292.443403 
L 163.026255 290.947483 
L 163.107301 291.193962 
L 163.350438 292.448252 
L 163.431484 292.027377 
L 163.593575 289.681079 
L 163.674621 289.889473 
L 163.917758 291.508946 
L 163.998804 291.137001 
L 164.160895 288.537876 
L 164.241941 288.74628 
L 164.485078 290.011633 
L 164.728215 289.437196 
L 166.835403 306.736996 
L 167.483769 310.403862 
L 168.294226 313.892876 
L 169.104683 316.477129 
L 169.996185 318.696523 
L 171.536054 321.443214 
L 172.589648 322.825748 
L 172.751739 322.961581 
L 172.832785 322.716693 
L 173.319059 317.495846 
L 173.48115 314.244245 
L 173.724287 308.98902 
L 173.967425 305.771028 
L 174.210562 302.395716 
L 174.453699 302.81993 
L 174.61579 301.350702 
L 174.858927 299.17216 
L 175.102064 299.457009 
L 175.264156 299.765351 
L 175.507293 301.363076 
L 175.831476 303.471297 
L 176.155658 304.980476 
L 176.236704 305.291731 
L 176.31775 305.19609 
L 176.479841 304.636471 
L 176.641933 305.033439 
L 176.804024 305.543531 
L 176.966115 304.671925 
L 177.128207 304.264157 
L 177.45239 304.838362 
L 177.776572 303.376052 
L 178.100755 303.7898 
L 178.262847 303.776855 
L 178.505984 304.711655 
L 178.587029 305.049656 
L 178.668075 304.804757 
L 178.911212 303.705136 
L 179.073304 303.963287 
L 179.154349 303.809653 
L 179.478532 300.501044 
L 179.640624 300.946812 
L 179.721669 300.837692 
L 179.964806 298.421235 
L 180.045852 298.464765 
L 180.207943 298.853574 
L 180.288989 298.82908 
L 180.451081 298.291779 
L 180.532126 297.94065 
L 180.613172 297.973525 
L 180.937355 299.469763 
L 181.0184 299.280879 
L 181.180492 298.853737 
L 181.423629 300.188706 
L 182.071994 303.260642 
L 182.396177 301.217491 
L 182.477223 301.396997 
L 182.639314 301.418845 
L 182.801406 301.137037 
L 182.882451 301.299883 
L 183.28768 304.133907 
L 183.368726 304.092841 
L 183.611863 303.30175 
L 183.773954 303.560312 
L 183.855 303.412596 
L 184.179183 299.212682 
L 184.341274 299.469757 
L 184.503365 298.357114 
L 184.665457 297.680133 
L 184.98964 299.103187 
L 185.232777 296.94764 
L 185.313822 296.983012 
L 185.55696 297.588456 
L 185.719051 296.918795 
L 185.800097 297.048556 
L 186.286371 299.493979 
L 186.448462 300.134242 
L 187.421011 305.624292 
L 187.907285 307.847681 
L 188.231468 305.088769 
L 188.312513 305.123371 
L 188.393559 305.178285 
L 188.474605 305.011422 
L 188.798788 303.109768 
L 189.12297 304.222522 
L 189.528199 299.881873 
L 189.69029 299.19497 
L 189.852382 298.28241 
L 189.933427 298.439501 
L 190.581793 302.06634 
L 191.230158 305.159043 
L 191.39225 305.841775 
L 191.716433 301.750301 
L 191.797478 301.822975 
L 191.878524 301.79665 
L 192.040615 300.832877 
L 192.283753 298.619634 
L 192.52689 299.769533 
L 192.607935 299.461692 
L 192.851072 295.559132 
L 192.932118 295.591158 
L 193.09421 295.958232 
L 193.175255 295.681232 
L 193.418392 293.120786 
L 193.661529 294.166233 
L 193.823621 294.11496 
L 193.985712 295.225182 
L 194.309895 298.305787 
L 194.390941 298.397653 
L 194.471986 298.247994 
L 194.553032 298.303754 
L 194.796169 299.777279 
L 195.525581 305.28611 
L 195.606626 305.252914 
L 195.849763 304.390401 
L 196.011855 304.666957 
L 196.0929 304.569897 
L 196.417083 301.693526 
L 196.66022 302.196552 
L 196.903357 301.783862 
L 197.146495 302.67468 
L 197.389632 303.314695 
L 197.632769 303.955197 
L 197.956952 305.123108 
L 198.119043 304.751593 
L 198.281134 305.244112 
L 198.443226 305.79467 
L 198.605317 305.023774 
L 198.767409 304.671259 
L 199.010546 305.198143 
L 199.415774 301.494428 
L 199.49682 301.394103 
L 199.739957 300.345415 
L 199.821003 300.413659 
L 200.145185 302.320951 
L 200.226231 301.884824 
L 200.469368 300.107297 
L 200.712505 300.245786 
L 200.793551 300.018562 
L 201.036688 297.772662 
L 201.279825 298.891042 
L 201.360871 298.718686 
L 201.604008 296.36275 
L 201.928191 297.292398 
L 202.009236 297.261746 
L 202.090282 297.357077 
L 202.333419 298.807822 
L 202.576556 300.244108 
L 202.657602 300.180733 
L 202.738648 300.279762 
L 203.468059 303.923174 
L 203.954333 306.836576 
L 204.359562 308.235217 
L 204.602699 307.821963 
L 204.845836 308.20443 
L 205.251064 304.561797 
L 205.33211 304.581637 
L 205.413156 304.31902 
L 205.737339 300.936698 
L 205.89943 301.298747 
L 205.980476 301.050801 
L 206.304659 297.031825 
L 206.46675 296.977663 
L 206.709887 296.612177 
L 206.790933 296.76187 
L 207.196161 299.287551 
L 207.277207 299.086015 
L 207.439298 298.534418 
L 207.60139 299.297623 
L 207.763481 299.999254 
L 208.006618 297.706272 
L 208.087664 297.91143 
L 208.249755 298.481881 
L 208.330801 298.203011 
L 208.573938 294.939716 
L 208.817075 295.567191 
L 208.979167 294.391644 
L 209.060212 293.780654 
L 209.141258 293.889519 
L 209.465441 295.607146 
L 209.546486 295.640322 
L 209.708578 294.38265 
L 209.789624 294.503629 
L 210.113806 296.112729 
L 210.275898 295.929585 
L 210.437989 297.046354 
L 210.681126 298.763606 
L 210.762172 298.655218 
L 210.924263 298.179598 
L 211.248446 299.295438 
L 211.491583 296.362399 
L 211.73472 296.96771 
L 211.896812 296.557276 
L 211.977857 296.620866 
L 212.30204 299.041301 
L 212.464132 299.862366 
L 212.707269 299.193285 
L 212.788314 299.440523 
L 213.031452 300.788171 
L 213.112497 300.720034 
L 213.274589 300.425326 
L 213.598771 302.161809 
L 213.679817 302.047359 
L 213.841909 301.491492 
L 214.004 301.976327 
L 214.328183 302.879736 
L 214.57132 303.820317 
L 214.733411 304.62355 
L 214.814457 304.38114 
L 214.976548 303.300342 
L 215.057594 303.285359 
L 215.300731 303.688126 
L 215.543868 303.483272 
L 215.624914 303.643053 
L 216.354325 306.981638 
L 216.516417 307.262678 
L 216.840599 303.554988 
L 216.921645 303.612337 
L 217.002691 303.647337 
L 217.083737 303.142976 
L 217.407919 297.600604 
L 217.570011 297.820745 
L 217.813148 296.859018 
L 217.975239 297.551559 
L 218.299422 298.81092 
L 218.461513 298.679338 
L 218.542559 298.863626 
L 219.434062 303.622505 
L 219.515107 303.628875 
L 219.677199 303.253725 
L 219.83929 303.72415 
L 219.920336 304.047382 
L 220.001382 303.967295 
L 220.325564 299.29438 
L 220.40661 299.271739 
L 220.487656 299.070644 
L 220.811839 296.456257 
L 221.136021 298.070391 
L 221.298113 298.128062 
L 221.460204 298.711592 
L 221.946478 302.799669 
L 223.000073 311.060323 
L 223.81053 315.171183 
L 224.702032 318.119907 
L 225.593535 320.078774 
L 226.566083 321.743977 
L 227.538632 322.992171 
L 228.835363 324.257265 
L 230.21314 325.281182 
L 230.456277 325.333794 
L 230.537323 319.674616 
L 230.78046 282.448546 
L 230.861505 281.133982 
L 231.266734 257.332356 
L 231.34778 253.248755 
L 231.509871 240.25511 
L 231.671962 249.555419 
L 231.996145 239.251126 
L 232.077191 241.489836 
L 232.239282 250.910608 
L 232.563465 243.364408 
L 232.725556 249.117453 
L 232.887648 258.056422 
L 233.130785 250.098421 
L 233.211831 250.047383 
L 233.292876 251.016963 
L 233.454968 257.972393 
L 233.860196 250.882254 
L 234.022288 257.366269 
L 234.103333 256.660907 
L 234.427516 253.393473 
L 234.589608 259.946548 
L 234.670653 259.715532 
L 234.832745 259.281306 
L 234.994836 257.374951 
L 235.237973 262.925388 
L 235.319019 263.087185 
L 235.400064 263.583095 
L 235.562156 262.285139 
L 235.724247 267.158078 
L 235.805293 269.778292 
L 235.886339 269.185625 
L 235.967384 268.485005 
L 236.04843 268.705083 
L 236.129476 268.717075 
L 236.210521 268.475235 
L 236.372613 271.109298 
L 236.453659 271.063194 
L 236.534704 271.339325 
L 236.696796 273.419982 
L 236.858887 272.318933 
L 236.939933 273.001814 
L 237.020978 272.77049 
L 237.102024 273.17537 
L 237.264116 275.371118 
L 237.426207 274.810467 
L 237.507253 275.332579 
L 237.588298 275.151899 
L 237.669344 275.536805 
L 237.831435 277.758287 
L 237.912481 277.618971 
L 237.993527 277.403855 
L 238.074573 277.724825 
L 238.155618 277.425288 
L 238.236664 277.709023 
L 238.479801 280.2363 
L 238.560847 280.05368 
L 239.128167 283.761827 
L 239.290258 283.692018 
L 239.371304 283.109489 
L 239.452349 283.150114 
L 239.695487 285.999618 
L 239.776532 285.959345 
L 239.857578 285.707537 
L 240.019669 284.645802 
L 240.343852 287.196101 
L 240.424898 286.194323 
L 240.586989 279.589789 
L 240.668035 279.757645 
L 240.749081 280.345161 
L 240.911172 278.092894 
L 241.073263 271.578246 
L 241.154309 268.954988 
L 241.235355 269.100641 
L 241.316401 268.025933 
L 241.478492 263.874752 
L 241.559538 267.197622 
L 241.640583 266.915144 
L 241.88372 252.474248 
L 242.045812 247.79993 
L 242.126858 251.382913 
L 242.207903 250.460875 
L 242.45104 226.198795 
L 242.532086 220.845811 
L 242.694177 234.501694 
L 242.775223 217.726392 
L 243.01836 128.418633 
L 243.180452 138.893717 
L 243.342543 122.569182 
L 243.423589 125.626036 
L 244.639274 268.731415 
L 245.125548 287.37321 
L 245.773914 298.094083 
L 246.017051 299.520636 
L 246.341234 301.622943 
L 246.42228 301.618525 
L 246.503325 301.750059 
L 247.232737 305.328261 
L 248.043194 309.729157 
L 249.258879 315.397764 
L 250.150382 318.284149 
L 251.12293 320.390005 
L 252.095479 322.030124 
L 253.068027 323.234218 
L 254.364758 324.456433 
L 254.607895 324.523476 
L 255.094169 323.730795 
L 255.418352 322.451541 
L 255.661489 321.450671 
L 256.390901 314.278134 
L 256.634038 310.918852 
L 256.95822 309.128518 
L 257.201358 307.313178 
L 257.52554 306.53802 
L 257.768677 306.099352 
L 257.930769 306.236537 
L 258.09286 305.887466 
L 258.173906 305.754791 
L 258.254952 305.8242 
L 258.498089 306.436805 
L 258.66018 305.720905 
L 258.822272 305.397265 
L 259.146454 306.06656 
L 259.470637 304.334881 
L 259.632729 304.670998 
L 259.713774 304.548185 
L 260.037957 300.494282 
L 260.119003 300.506526 
L 260.200048 300.498643 
L 260.281094 300.22172 
L 260.524231 298.485409 
L 260.686323 299.149191 
L 260.848414 299.688306 
L 261.091551 298.120697 
L 261.172597 298.200053 
L 261.415734 298.750572 
L 261.658871 295.792502 
L 261.902008 296.47203 
L 261.983054 296.339572 
L 262.0641 295.99045 
L 262.307237 293.619577 
L 262.469328 294.351002 
L 262.550374 294.171324 
L 262.712465 291.925546 
L 262.793511 290.734462 
L 262.874556 290.756367 
L 263.117694 292.154853 
L 263.198739 291.919746 
L 263.360831 290.67835 
L 263.522922 291.80978 
L 263.766059 293.184774 
L 263.847105 293.191718 
L 263.928151 293.350537 
L 264.252333 296.474583 
L 264.576516 298.154967 
L 265.06279 301.58344 
L 265.143836 301.541129 
L 265.224882 301.672608 
L 265.549065 303.291751 
L 265.873247 300.980088 
L 266.035339 301.400039 
L 266.116384 301.137017 
L 266.359522 297.059314 
L 266.440567 297.070497 
L 266.521613 297.22585 
L 266.602659 297.123946 
L 266.76475 295.591596 
L 266.926841 294.731729 
L 267.251024 295.9209 
L 267.33207 295.944121 
L 267.494161 296.634078 
L 267.89939 300.128826 
L 267.980436 299.875035 
L 268.142527 298.908914 
L 268.46671 300.098638 
L 268.709847 298.544556 
L 269.277167 300.503325 
L 269.60135 301.638743 
L 269.925532 298.214379 
L 270.087624 298.305213 
L 270.168669 297.740838 
L 270.411807 294.48469 
L 270.654944 295.648165 
L 270.817035 295.333473 
L 270.898081 295.393939 
L 271.060172 296.257888 
L 271.384355 298.235484 
L 271.627492 296.553644 
L 271.870629 297.798008 
L 271.951675 297.637087 
L 272.194812 294.257144 
L 272.437949 295.175559 
L 272.681086 294.544317 
L 273.491543 299.0637 
L 274.220954 305.830453 
L 274.302 306.292704 
L 274.383046 305.889125 
L 274.626183 304.118572 
L 274.788274 304.422707 
L 274.86932 304.371518 
L 275.112457 303.70695 
L 275.274548 304.4482 
L 275.598731 306.199775 
L 275.841868 306.477862 
L 275.922914 306.522201 
L 276.00396 306.417323 
L 276.328143 303.137972 
L 276.57128 303.361001 
L 276.652325 302.914903 
L 276.895462 299.128517 
L 276.976508 299.224545 
L 277.1386 299.700092 
L 277.219645 299.375079 
L 277.462782 297.088378 
L 277.786965 298.043307 
L 278.030102 297.152022 
L 278.354285 298.660737 
L 278.435331 298.493428 
L 278.597422 298.172955 
L 278.921605 299.891344 
L 279.002651 299.817059 
L 279.083696 299.546414 
L 279.164742 299.589532 
L 279.569971 301.419087 
L 279.813108 298.146514 
L 279.894153 298.157823 
L 280.056245 298.310267 
L 280.13729 297.793677 
L 280.380428 295.084885 
L 280.623565 296.305749 
L 280.70461 296.130259 
L 280.866702 294.866654 
L 280.947747 294.904321 
L 281.27193 296.383752 
L 281.434022 295.334202 
L 281.515067 295.415927 
L 281.83925 297.177989 
L 282.001341 296.812792 
L 282.163433 297.565584 
L 282.487616 299.430402 
L 282.730753 300.215833 
L 283.054936 302.222061 
L 283.379118 299.80698 
L 283.54121 300.185466 
L 283.622255 300.092635 
L 283.784347 299.595827 
L 283.865393 299.764379 
L 284.270621 302.415007 
L 284.351667 302.3457 
L 284.513758 302.305508 
L 285.000032 303.47585 
L 285.405261 305.666506 
L 285.729444 301.766329 
L 285.810489 301.823265 
L 285.891535 301.776135 
L 286.053626 300.073099 
L 286.215718 298.282424 
L 286.296764 298.478508 
L 286.539901 299.582482 
L 286.864083 298.370326 
L 287.107221 298.933322 
L 287.350358 296.269876 
L 287.431403 296.473681 
L 287.593495 296.945123 
L 287.836632 296.717583 
L 288.079769 298.567664 
L 288.322906 300.086702 
L 288.566043 298.405509 
L 288.647089 298.503934 
L 288.890226 299.23333 
L 289.133363 297.374292 
L 289.3765 298.535426 
L 289.457546 298.345281 
L 289.700683 294.400279 
L 289.862774 294.720414 
L 289.94382 294.507045 
L 290.105911 291.700779 
L 290.268003 290.310543 
L 290.430094 291.123656 
L 290.673231 290.473007 
L 290.835323 291.845444 
L 291.240551 296.102283 
L 291.564734 298.315308 
L 292.375191 305.801198 
L 292.699374 306.954521 
L 292.942511 307.748359 
L 293.347739 304.545262 
L 293.428785 304.578987 
L 293.509831 304.373398 
L 293.834014 301.80477 
L 294.077151 302.554226 
L 294.158196 302.312172 
L 294.482379 297.666509 
L 294.563425 297.582441 
L 294.644471 297.288674 
L 294.806562 294.548977 
L 294.968653 292.600736 
L 295.130745 293.486838 
L 295.21179 293.4318 
L 295.454928 291.152571 
L 295.535973 291.315363 
L 295.77911 292.823573 
L 295.941202 293.112021 
L 296.103293 294.385008 
L 296.589567 299.162692 
L 297.075842 302.949372 
L 297.156887 302.774339 
L 297.318979 301.957303 
L 298.04839 304.166184 
L 298.210481 305.005504 
L 298.858847 297.540493 
L 299.020938 294.899001 
L 299.264075 295.806901 
L 299.507212 295.200528 
L 299.75035 296.707459 
L 299.993487 297.885864 
L 300.155578 297.245131 
L 300.236624 297.319513 
L 300.560807 299.159621 
L 300.803944 296.597204 
L 301.047081 297.51108 
L 301.209172 296.925855 
L 301.290218 296.659462 
L 301.452309 297.444246 
L 301.695446 298.419991 
L 301.938583 294.414072 
L 302.019629 294.4516 
L 302.100675 294.636975 
L 302.181721 294.594022 
L 302.424858 293.827657 
L 303.559497 302.068491 
L 304.613092 310.664503 
L 305.342503 314.617157 
L 306.234006 317.808492 
L 306.963417 319.55956 
L 308.017011 321.529256 
L 308.989559 322.868484 
L 310.205245 324.103635 
L 310.934656 324.705947 
L 311.015702 324.581045 
L 311.177793 321.115283 
L 311.501976 313.937687 
L 311.745113 312.47563 
L 312.069296 309.318369 
L 312.231387 309.944972 
L 312.636616 311.833253 
L 312.717661 311.772034 
L 313.12289 310.714505 
L 313.284981 311.060132 
L 313.771256 313.282924 
L 314.500667 316.306151 
L 315.230078 318.533495 
L 316.283672 320.733412 
L 316.364718 320.640628 
L 316.526809 319.375568 
L 316.769946 317.403572 
L 317.661449 315.173822 
L 317.904586 315.724442 
L 318.309815 316.584494 
L 318.471906 316.616818 
L 318.95818 316.4393 
L 319.201317 316.725508 
L 320.09282 318.152761 
L 320.498049 318.302735 
L 320.741186 317.522559 
L 321.146414 316.025612 
L 321.470597 313.989294 
L 321.632688 313.136465 
L 321.956871 309.976877 
L 322.118963 309.457093 
L 323.091511 300.678998 
L 323.172557 300.679183 
L 323.253602 300.53628 
L 323.334648 300.141471 
L 323.577785 297.241891 
L 323.820922 297.68599 
L 323.901968 297.214926 
L 324.145105 293.921326 
L 324.388242 294.799694 
L 324.469288 294.334759 
L 324.712425 291.181838 
L 324.874516 292.059725 
L 324.955562 292.004873 
L 325.036608 291.360962 
L 325.198699 288.282655 
L 325.279745 288.321588 
L 325.441836 289.406719 
L 325.522882 289.239384 
L 325.603928 288.565544 
L 325.766019 285.768494 
L 326.009156 287.212322 
L 326.090202 286.926726 
L 326.171247 286.796355 
L 326.252293 286.26841 
L 326.414385 281.058798 
L 326.49543 281.174382 
L 326.576476 281.499046 
L 326.819613 277.944226 
L 326.981704 274.687362 
L 327.143796 275.605012 
L 327.467979 270.95103 
L 327.549024 270.503644 
L 327.711116 271.742079 
L 327.873207 270.033894 
L 327.954253 270.720247 
L 328.116344 269.665444 
L 328.278436 271.064149 
L 328.440527 269.694687 
L 328.521573 270.489132 
L 328.683664 269.606022 
L 328.845756 271.03809 
L 329.007847 269.64024 
L 329.169938 273.643791 
L 329.33203 271.679493 
L 329.413075 272.039785 
L 329.494121 271.994743 
L 329.575167 271.13937 
L 329.656213 271.316621 
L 329.737258 272.204693 
L 329.89935 271.134707 
L 330.061441 272.529387 
L 330.223532 270.579376 
L 330.304578 271.094679 
L 330.46667 269.864841 
L 330.628761 271.276984 
L 330.790852 269.757306 
L 330.871898 270.573247 
L 331.033989 269.67715 
L 331.196081 271.093214 
L 331.358172 269.632778 
L 331.439218 270.496952 
L 331.601309 269.636897 
L 331.763401 271.047641 
L 331.925492 269.617755 
L 332.087584 273.746975 
L 332.249675 271.713061 
L 332.330721 272.09014 
L 332.411766 272.019682 
L 332.492812 271.169303 
L 332.573858 271.283683 
L 332.654903 272.529162 
L 332.735949 272.358709 
L 332.816995 272.659341 
L 332.979086 274.411603 
L 333.141178 272.987952 
L 333.789543 276.95517 
L 333.870589 277.237571 
L 334.03268 279.42072 
L 334.194772 281.034025 
L 334.275817 280.975624 
L 334.356863 275.884455 
L 334.518955 255.59463 
L 334.6 255.378843 
L 334.762092 245.979733 
L 335.005229 259.02843 
L 335.086274 257.238737 
L 335.16732 254.720686 
L 335.248366 255.8084 
L 335.73464 280.422259 
L 336.220914 292.623712 
L 336.86928 302.281142 
L 337.4366 307.145087 
L 338.084965 310.125544 
L 338.328102 310.686011 
L 338.652285 311.390958 
L 338.814377 311.367111 
L 339.138559 311.708188 
L 339.219605 311.59312 
L 339.462742 311.363231 
L 339.705879 311.492241 
L 340.030062 311.002428 
L 340.273199 311.071233 
L 340.597382 310.503154 
L 340.921565 310.670446 
L 341.164702 310.137929 
L 341.326793 310.255806 
L 341.488885 310.317977 
L 341.813067 309.747523 
L 342.056205 309.815022 
L 342.299342 309.216581 
L 342.461433 309.334041 
L 342.542479 309.429193 
L 342.623524 309.353711 
L 342.866662 308.706962 
L 343.028753 308.817309 
L 343.109799 308.907228 
L 343.190844 308.806976 
L 343.433981 308.129693 
L 343.596073 308.286119 
L 343.83921 308.534374 
L 344.001301 308.527536 
L 344.163393 308.802205 
L 345.703261 313.432965 
L 346.756855 316.679439 
L 347.648358 318.852101 
L 348.458815 320.382502 
L 348.701952 320.532151 
L 349.026135 320.652911 
L 350.079729 321.306457 
L 350.566003 321.634569 
L 351.94378 322.833374 
L 353.564694 323.805772 
L 356.07711 325.56432 
L 357.454887 326.248973 
L 359.237893 326.853016 
L 361.426127 327.356099 
L 364.505863 327.791205 
L 368.477102 328.103293 
L 383.713694 328.501 
L 387.847025 328.53503 
L 395.951594 328.567599 
L 406.97381 328.58914 
L 414.267922 328.59166 
L 415.402562 328.587965 
L 423.588178 328.587283 
L 426.830006 328.587442 
L 467.433901 328.589406 
L 474.160694 328.590843 
L 476.592065 328.588928 
L 519.303148 328.589216 
L 523.517525 328.591159 
L 673.289977 328.588609 
L 673.289977 328.588609 
" clip-path="url(#p2411379a38)" style="fill: none; stroke: #1f77b4; stroke-width: 1.5; stroke-linecap: square"/>
   </g>
   <g id="line2d_14">
    <path d="M 89.923035 328.616781 
L 90.490355 328.55077 
L 92.759634 326.172844 
L 92.921725 326.075745 
L 93.164863 325.776505 
L 93.489045 325.612742 
L 93.732182 325.306585 
L 94.056365 325.161743 
L 94.299502 324.861593 
L 94.623685 324.737604 
L 94.866822 324.441009 
L 95.191005 324.334507 
L 95.434142 324.04005 
L 95.920416 323.891996 
L 96.163553 323.756623 
L 96.406691 323.668057 
L 96.649828 323.359381 
L 97.136102 323.480849 
L 97.54133 323.859007 
L 98.189696 324.572953 
L 99.648518 326.046223 
L 100.783158 326.842994 
L 101.593615 327.214534 
L 102.160935 326.973586 
L 102.809301 326.101922 
L 103.133484 325.387176 
L 103.376621 324.937358 
L 103.619758 324.076473 
L 103.862895 323.719847 
L 104.349169 322.217034 
L 104.51126 322.039633 
L 105.321717 318.602184 
L 105.564855 318.023179 
L 105.6459 317.873573 
L 106.618449 313.060174 
L 106.78054 312.810412 
L 107.185769 310.233687 
L 107.266814 310.326238 
L 107.428906 310.341472 
L 107.590997 308.919255 
L 107.834134 307.810225 
L 107.996226 307.643103 
L 108.4825 304.64467 
L 108.563545 304.582523 
L 109.04982 301.41077 
L 109.130865 301.248529 
L 110.103414 288.045695 
L 110.346551 288.764685 
L 110.508642 285.890159 
L 110.670734 283.954385 
L 110.832825 284.086016 
L 110.913871 284.217444 
L 111.075962 281.278395 
L 111.238053 279.469811 
L 111.400145 279.825604 
L 111.481191 280.079905 
L 111.643282 277.383397 
L 111.805373 275.820044 
L 112.04851 276.78088 
L 112.129556 276.076576 
L 112.372693 272.943999 
L 112.61583 274.188909 
L 112.696876 273.572431 
L 112.940013 270.702978 
L 113.102105 271.882168 
L 113.264196 273.407127 
L 113.345242 273.031658 
L 113.588379 270.552537 
L 113.831516 272.125325 
L 113.912562 271.596947 
L 114.155699 268.937957 
L 114.398836 270.590013 
L 114.479881 270.099022 
L 114.641973 267.711545 
L 114.723019 267.567899 
L 114.966156 269.353109 
L 115.047201 268.904154 
L 115.209293 266.597428 
L 115.290338 266.494712 
L 115.533476 268.473037 
L 115.614521 268.374756 
L 115.776613 267.095294 
L 115.857658 267.320548 
L 116.100795 270.146297 
L 116.262887 271.529028 
L 116.343933 271.203446 
L 116.424978 271.290328 
L 116.58707 272.605271 
L 116.830207 274.888145 
L 116.911252 274.874608 
L 117.073344 275.767653 
L 117.316481 277.892149 
L 117.478572 260.464799 
L 117.721709 244.383639 
L 117.802755 243.67485 
L 117.964846 244.90338 
L 118.207984 249.209678 
L 119.58576 280.052344 
L 120.396217 292.560975 
L 120.801446 297.936902 
L 120.963537 253.609861 
L 121.206674 210.78347 
L 121.368766 206.531333 
L 121.773994 131.437804 
L 121.85504 132.832985 
L 122.017131 140.349858 
L 122.179223 114.217818 
L 122.341314 99.284741 
L 122.42236 100.383278 
L 122.584451 108.923717 
L 122.665497 103.182445 
L 122.827588 82.381853 
L 122.908634 80.915565 
L 123.070726 89.725476 
L 123.151771 95.356928 
L 123.232817 92.587131 
L 123.394908 79.019808 
L 123.475954 79.554473 
L 123.719091 96.244297 
L 123.800137 95.352459 
L 123.962228 86.590124 
L 124.043274 88.196203 
L 124.367457 105.389387 
L 124.529548 99.746905 
L 124.69164 106.452008 
L 125.015822 126.749644 
L 125.177914 123.591415 
L 125.340005 129.9397 
L 125.583142 140.689104 
L 125.745234 137.885987 
L 125.907325 143.727313 
L 126.150462 153.762196 
L 126.231508 151.872918 
L 126.312554 152.069485 
L 126.474645 157.659826 
L 126.717782 167.008763 
L 126.798828 165.700219 
L 126.879873 166.135905 
L 127.041965 171.385613 
L 127.285102 179.974983 
L 127.366148 179.092349 
L 127.447193 179.665353 
L 127.609285 184.455719 
L 127.933467 196.757692 
L 128.014513 196.322584 
L 128.095559 196.991648 
L 128.338696 204.063019 
L 128.500787 207.8939 
L 128.581833 207.402474 
L 128.662879 207.949551 
L 128.906016 214.212197 
L 129.068107 217.717058 
L 129.149153 217.420985 
L 129.311244 219.386018 
L 129.635427 226.964437 
L 129.716473 226.826857 
L 129.878564 228.727413 
L 130.202747 235.622579 
L 130.283793 235.601553 
L 130.445884 237.42537 
L 130.770067 244.846833 
L 130.851113 244.793521 
L 131.013204 242.16947 
L 131.09425 242.251386 
L 131.337387 245.480699 
L 131.418433 244.204616 
L 131.66157 238.063447 
L 131.904707 240.492684 
L 132.066798 231.314751 
L 132.22889 225.450151 
L 132.309935 225.550687 
L 132.472027 227.230195 
L 132.877255 194.927955 
L 132.958301 196.67025 
L 133.039347 197.531322 
L 133.444575 125.460803 
L 133.525621 126.827122 
L 133.930849 150.515103 
L 134.741306 199.340292 
L 135.389672 226.436203 
L 136.119083 247.981312 
L 137.334769 273.810514 
L 138.226271 288.445172 
L 138.955683 297.09908 
L 139.928231 305.387669 
L 140.657642 309.857084 
L 141.468099 313.420313 
L 142.440648 316.700033 
L 143.170059 318.291916 
L 144.790973 320.577328 
L 144.953064 320.607845 
L 145.277247 321.036278 
L 145.439338 321.19365 
L 145.682476 321.235999 
L 146.006658 321.504557 
L 146.249795 321.474976 
L 146.573978 321.686366 
L 146.817115 321.610212 
L 147.141298 321.780135 
L 147.384435 321.664021 
L 147.708618 321.799945 
L 147.951755 321.652952 
L 148.194892 321.668026 
L 148.275938 321.263383 
L 148.843258 310.502642 
L 149.086395 310.224984 
L 149.329532 310.913614 
L 149.977898 312.805634 
L 150.707309 314.279362 
L 150.8694 314.516882 
L 151.355675 315.508794 
L 151.517766 315.665184 
L 151.841949 316.207787 
L 152.00404 316.141563 
L 152.247177 316.492058 
L 152.409269 316.642741 
L 152.57136 316.511064 
L 152.733451 316.687436 
L 152.976589 316.904537 
L 153.13868 316.716455 
L 153.300771 316.856471 
L 153.543908 317.02196 
L 153.706 316.782456 
L 153.868091 316.882274 
L 154.111228 317.28288 
L 154.192274 317.264454 
L 154.435411 316.994741 
L 154.678548 317.222578 
L 154.759594 317.16092 
L 155.002731 316.793522 
L 155.245868 316.989209 
L 155.326914 316.911796 
L 155.570051 316.492226 
L 155.813188 316.673807 
L 155.894234 316.583703 
L 156.137371 316.117188 
L 156.380508 316.289573 
L 156.461554 316.18751 
L 156.704691 315.679278 
L 156.866782 315.881963 
L 157.028873 316.078659 
L 157.109919 315.995611 
L 157.353056 315.474719 
L 157.596193 315.631222 
L 157.758285 315.162903 
L 157.920376 314.880035 
L 158.163513 315.022709 
L 158.325605 314.518226 
L 158.487696 314.213763 
L 158.730833 314.361513 
L 158.892925 313.824271 
L 159.055016 313.499767 
L 159.298153 313.655209 
L 159.460244 313.084197 
L 159.622336 312.743363 
L 159.703382 312.789171 
L 159.946519 313.191661 
L 160.027564 313.059663 
L 160.270701 312.308695 
L 160.513839 312.475036 
L 160.67593 311.815553 
L 160.838021 311.40894 
L 161.081158 311.569134 
L 161.24325 310.866539 
L 161.405341 310.436785 
L 161.648478 310.614081 
L 161.81057 309.871659 
L 161.972661 309.419717 
L 162.215798 309.616306 
L 162.37789 308.831564 
L 162.539981 308.361148 
L 162.621027 308.415787 
L 162.864164 308.945134 
L 162.945209 308.760317 
L 163.188347 307.735607 
L 163.431484 307.961567 
L 163.593575 307.061557 
L 163.755666 306.508529 
L 163.998804 306.733465 
L 164.160895 305.776152 
L 164.322986 305.196397 
L 164.485078 305.429215 
L 164.647169 305.757729 
L 164.728215 305.721188 
L 164.890306 306.036189 
L 165.781809 310.140329 
L 166.997494 315.643902 
L 168.051089 319.359116 
L 168.942591 321.711898 
L 169.834094 323.485462 
L 170.725597 324.804627 
L 171.698145 325.857337 
L 172.589648 326.575315 
L 172.751739 326.435241 
L 173.319059 324.11081 
L 173.886379 320.676961 
L 174.291607 319.109206 
L 174.534744 319.151636 
L 174.696836 318.782687 
L 174.858927 318.554277 
L 175.021019 318.665678 
L 175.426247 319.510867 
L 175.75043 320.077183 
L 175.912521 319.992565 
L 176.31775 320.096704 
L 176.560887 319.594123 
L 176.804024 319.619549 
L 176.966115 319.255174 
L 177.128207 319.029382 
L 177.290298 319.142802 
L 177.45239 319.259602 
L 177.533435 319.187895 
L 177.776572 318.777467 
L 177.938664 318.896854 
L 178.587029 319.94422 
L 178.749121 319.350811 
L 178.992258 318.81665 
L 179.154349 318.644034 
L 179.640624 316.925774 
L 179.721669 316.880656 
L 180.126898 315.910581 
L 180.451081 316.255425 
L 180.613172 316.095397 
L 180.775263 316.267423 
L 181.0184 316.460514 
L 181.180492 316.215392 
L 181.342583 316.328618 
L 182.071994 317.60732 
L 182.234086 316.814515 
L 182.477223 316.096783 
L 182.639314 316.236783 
L 182.963497 317.008616 
L 183.28768 317.87798 
L 183.368726 317.865642 
L 183.611863 317.512208 
L 183.773954 317.56557 
L 183.855 317.481788 
L 184.42232 314.816034 
L 184.746503 314.62278 
L 184.98964 314.998762 
L 185.070685 314.916333 
L 185.313822 314.391151 
L 185.638005 314.58657 
L 185.800097 314.274408 
L 185.962188 314.394619 
L 186.691599 316.356816 
L 187.339965 317.981303 
L 187.826239 318.963742 
L 187.907285 318.980963 
L 188.069376 318.079148 
L 188.312513 317.210076 
L 188.717742 317.030953 
L 188.879833 317.217105 
L 189.041925 317.491384 
L 189.12297 317.497316 
L 189.285062 316.463135 
L 189.528199 315.494958 
L 189.69029 315.533892 
L 190.014473 315.955562 
L 190.987021 318.353019 
L 191.149113 318.500763 
L 191.311204 318.685052 
L 191.39225 318.617291 
L 191.554341 317.20076 
L 191.797478 315.787295 
L 192.121661 315.521856 
L 192.364798 314.835071 
L 192.607935 314.909848 
L 192.770027 314.129063 
L 192.932118 313.587575 
L 193.175255 313.524581 
L 193.580484 311.752513 
L 193.661529 311.846657 
L 193.904667 312.596553 
L 194.390941 314.294878 
L 194.553032 314.188604 
L 194.715124 314.408901 
L 195.282443 316.191418 
L 195.525581 316.837235 
L 195.606626 316.768525 
L 195.849763 316.162854 
L 196.0929 316.223178 
L 196.254992 315.626356 
L 196.417083 315.234924 
L 196.579175 315.329477 
L 197.065449 316.30596 
L 197.875906 318.462525 
L 197.956952 318.42337 
L 198.200089 317.983648 
L 198.524271 318.06538 
L 198.767409 317.794204 
L 198.9295 317.895383 
L 199.010546 317.858041 
L 199.172637 316.865626 
L 199.415774 315.976496 
L 199.577865 316.088035 
L 199.902048 316.90814 
L 200.145185 317.438852 
L 200.226231 317.257337 
L 200.469368 316.22 
L 200.63146 316.236706 
L 200.793551 316.239959 
L 200.955642 315.363381 
L 201.198779 314.665176 
L 201.441917 314.460508 
L 201.685054 313.795661 
L 201.847145 313.990276 
L 202.333419 315.437812 
L 202.576556 315.960284 
L 202.738648 315.867095 
L 202.900739 316.065029 
L 203.63015 317.715537 
L 204.278516 319.451864 
L 204.359562 319.449571 
L 204.602699 319.173639 
L 204.76479 319.230884 
L 204.845836 319.182448 
L 205.737339 316.175356 
L 205.980476 316.099372 
L 206.385704 314.551325 
L 206.46675 314.629531 
L 207.277207 315.847053 
L 207.520344 315.513972 
L 207.682435 315.652584 
L 207.763481 315.64983 
L 207.925573 314.735747 
L 208.16871 314.010784 
L 208.330801 313.88289 
L 208.817075 312.104624 
L 208.979167 312.127973 
L 209.141258 311.877989 
L 209.303349 312.097919 
L 209.546486 312.688296 
L 209.627532 312.577215 
L 209.870669 311.827617 
L 210.113806 312.164391 
L 210.519035 312.761226 
L 210.762172 313.210603 
L 210.924263 313.046257 
L 211.086355 313.287094 
L 211.248446 313.40953 
L 211.410538 312.394825 
L 211.653675 311.580036 
L 211.815766 311.801905 
L 212.139949 312.68254 
L 212.545177 314.001279 
L 212.707269 313.944731 
L 212.950406 314.361889 
L 213.112497 314.520954 
L 213.274589 314.319605 
L 213.43668 314.504082 
L 213.679817 314.817538 
L 213.841909 314.709159 
L 214.004 314.935241 
L 214.409228 316.194629 
L 214.733411 317.117992 
L 214.814457 317.01161 
L 215.057594 316.248601 
L 215.219685 316.334585 
L 215.787005 317.471125 
L 216.516417 319.22958 
L 216.678508 318.054849 
L 216.921645 316.870216 
L 217.083737 316.476432 
L 217.570011 313.730513 
L 217.813148 314.137784 
L 218.70465 316.267441 
L 218.947788 316.570522 
L 219.109879 316.397031 
L 219.27197 316.548063 
L 219.515107 316.786722 
L 219.677199 316.659004 
L 220.001382 316.81645 
L 220.163473 315.465553 
L 220.40661 314.199824 
L 220.892884 313.677104 
L 221.054976 314.006156 
L 221.54125 315.867123 
L 222.513798 319.41458 
L 223.324255 321.574037 
L 224.296804 323.521468 
L 225.188306 324.831313 
L 226.160855 325.876598 
L 227.214449 326.684224 
L 228.430134 327.324059 
L 229.807911 327.79661 
L 230.375231 328.056835 
L 230.456277 327.829465 
L 230.537323 326.973724 
L 231.590917 262.459074 
L 231.671962 261.765708 
L 232.077191 242.752392 
L 232.239282 243.26152 
L 232.563465 231.27093 
L 232.644511 231.465499 
L 232.887648 235.717608 
L 232.968694 234.712869 
L 233.211831 229.246882 
L 233.454968 232.712506 
L 233.536013 231.985579 
L 233.698105 228.148738 
L 233.779151 228.158131 
L 234.022288 232.291364 
L 234.103333 232.076025 
L 234.265425 229.581644 
L 234.34647 229.96039 
L 234.670653 234.649661 
L 234.832745 233.133378 
L 234.994836 235.174701 
L 235.237973 238.781741 
L 235.400064 237.948194 
L 235.562156 240.084662 
L 235.886339 246.198582 
L 235.967384 245.766972 
L 236.04843 245.970902 
L 236.210521 248.118092 
L 236.453659 251.501874 
L 236.534704 251.11776 
L 236.61575 251.331732 
L 236.777841 253.352613 
L 237.020978 256.581616 
L 237.102024 256.360508 
L 237.18307 256.654221 
L 237.426207 259.8644 
L 237.588298 261.698851 
L 237.669344 261.603761 
L 237.831435 262.691029 
L 238.155618 266.732656 
L 238.236664 266.728383 
L 238.398755 267.824335 
L 238.966075 273.598718 
L 240.343852 284.153637 
L 240.424898 284.637163 
L 240.505944 283.905044 
L 240.749081 280.014778 
L 240.992218 280.29141 
L 241.397446 269.786854 
L 241.478492 270.202047 
L 241.640583 270.837757 
L 242.045812 250.391286 
L 242.126858 250.543888 
L 242.207903 250.159941 
L 242.613132 203.353133 
L 242.694177 204.763049 
L 242.775223 204.92167 
L 243.180452 98.44139 
L 243.261497 99.064473 
L 243.504634 114.632547 
L 244.558228 194.135053 
L 245.206594 225.185666 
L 246.017051 251.946287 
L 246.746462 269.24448 
L 247.637965 285.925705 
L 248.448422 296.810755 
L 249.258879 304.75735 
L 250.069336 310.626908 
L 250.879793 315.00102 
L 251.69025 318.282357 
L 252.581753 320.967605 
L 253.473255 322.944382 
L 254.364758 324.386345 
L 254.607895 324.504537 
L 255.418352 324.558769 
L 255.580444 324.487394 
L 256.390901 322.623004 
L 256.634038 321.936456 
L 257.282403 321.36699 
L 258.011815 321.904847 
L 258.254952 321.662379 
L 258.498089 321.696172 
L 258.903317 320.962143 
L 258.984363 321.015426 
L 259.146454 321.007141 
L 259.308546 320.481511 
L 259.551683 320.056091 
L 259.713774 319.854336 
L 260.281094 317.713398 
L 260.605277 317.274213 
L 260.686323 317.361404 
L 260.848414 317.460338 
L 260.92946 317.349976 
L 261.172597 316.78869 
L 261.334688 316.81533 
L 261.415734 316.745039 
L 261.820962 314.467925 
L 261.902008 314.50059 
L 262.0641 314.431174 
L 262.955602 310.568521 
L 263.279785 310.57277 
L 263.441876 310.106651 
L 263.522922 310.10496 
L 264.090242 311.315219 
L 264.981745 314.217024 
L 265.06279 314.313194 
L 265.143836 314.242168 
L 265.305927 314.330355 
L 265.549065 314.693709 
L 265.63011 314.524201 
L 265.873247 313.634194 
L 266.116384 313.618524 
L 266.278476 312.540662 
L 266.521613 311.718897 
L 266.76475 311.700691 
L 266.926841 311.367095 
L 267.088933 311.556438 
L 267.494161 313.02491 
L 267.89939 314.539065 
L 267.980436 314.402924 
L 268.223573 313.430168 
L 268.547755 313.432352 
L 268.709847 313.053508 
L 268.790893 313.054217 
L 269.03403 313.575478 
L 269.60135 315.062338 
L 269.763441 313.961588 
L 270.006578 312.955811 
L 270.168669 312.777456 
L 270.573898 310.984052 
L 270.735989 311.309059 
L 271.384355 313.602781 
L 271.465401 313.458528 
L 271.708538 312.456371 
L 271.870629 312.452217 
L 271.951675 312.39557 
L 272.356903 310.001121 
L 272.437949 310.046053 
L 272.762132 310.787055 
L 273.491543 313.824305 
L 274.139909 316.291121 
L 274.302 316.544046 
L 274.383046 316.308984 
L 274.626183 315.025694 
L 274.788274 314.981084 
L 275.031411 315.481864 
L 276.00396 318.082639 
L 276.166051 317.170602 
L 276.409188 316.289352 
L 276.57128 316.294607 
L 276.652325 316.240777 
L 277.1386 314.2545 
L 277.300691 314.238076 
L 277.462782 314.032014 
L 277.624874 314.240567 
L 277.868011 314.57507 
L 278.030102 314.462798 
L 278.192194 314.699804 
L 278.435331 314.920983 
L 278.597422 314.598117 
L 278.678468 314.595286 
L 279.002651 315.002747 
L 279.164742 314.950498 
L 279.326833 315.20164 
L 279.569971 315.587691 
L 279.732062 314.512298 
L 279.975199 313.549296 
L 280.218336 313.162323 
L 280.461473 312.178163 
L 281.028793 312.362334 
L 281.27193 312.865746 
L 281.352976 312.824364 
L 281.515067 312.429573 
L 281.596113 312.42085 
L 281.920296 312.876158 
L 282.082387 312.787739 
L 282.244479 313.070949 
L 283.054936 315.27831 
L 283.135981 315.030666 
L 283.379118 313.708417 
L 283.54121 313.680115 
L 283.946438 314.498195 
L 284.270621 315.426252 
L 284.432712 315.597216 
L 285.162124 317.213522 
L 285.324215 317.571588 
L 285.405261 317.570253 
L 285.567352 316.277526 
L 285.810489 315.002225 
L 286.134672 314.337069 
L 286.296764 314.119355 
L 287.107221 315.037537 
L 287.269312 314.064148 
L 287.512449 313.23312 
L 287.67454 313.368444 
L 287.998723 313.914064 
L 288.322906 314.843525 
L 288.403952 314.775336 
L 288.647089 314.159 
L 288.890226 314.292766 
L 289.052317 313.666066 
L 289.214409 313.263506 
L 289.3765 313.302092 
L 289.457546 313.253458 
L 290.430094 308.517838 
L 290.592186 308.84286 
L 290.997414 310.554515 
L 291.402643 312.224058 
L 291.726825 313.325229 
L 292.456237 315.970329 
L 292.699374 316.268587 
L 292.942511 316.636436 
L 293.104602 315.880507 
L 293.347739 315.250854 
L 293.590876 315.184153 
L 293.752968 314.851907 
L 293.915059 314.951838 
L 294.077151 315.236271 
L 294.158196 315.254285 
L 294.320288 314.14137 
L 294.563425 313.169189 
L 294.725516 312.949729 
L 295.21179 310.601439 
L 295.292836 310.632266 
L 295.454928 310.165995 
L 295.617019 309.995632 
L 295.77911 310.364262 
L 296.34643 312.889576 
L 296.670613 313.853194 
L 297.075842 315.023104 
L 297.156887 314.915049 
L 297.400024 314.136849 
L 297.562116 314.27617 
L 297.886299 315.261385 
L 298.210481 316.122424 
L 298.372573 314.941136 
L 298.61571 313.806535 
L 298.777801 313.539861 
L 299.18303 311.342281 
L 299.264075 311.401224 
L 299.588258 312.279066 
L 300.074532 313.838795 
L 300.317669 313.49981 
L 300.560807 313.684693 
L 300.722898 312.637492 
L 300.966035 311.804265 
L 301.128126 311.948462 
L 301.452309 312.325536 
L 301.695446 312.816621 
L 301.857538 311.677772 
L 302.100675 310.708242 
L 302.505903 310.782931 
L 302.667995 311.155766 
L 303.154269 313.358409 
L 304.126817 317.619784 
L 305.01832 320.480602 
L 305.909823 322.585308 
L 306.801325 324.138901 
L 307.773874 325.377097 
L 308.746422 326.270697 
L 309.881062 327.005419 
L 310.85361 327.470022 
L 311.015702 327.111175 
L 311.583022 322.89387 
L 311.745113 322.859652 
L 312.069296 323.225337 
L 313.528118 325.258527 
L 314.500667 326.185021 
L 315.635307 326.946702 
L 316.202627 327.157896 
L 316.283672 327.057492 
L 316.850992 325.239263 
L 317.094129 325.29318 
L 317.82354 325.923788 
L 318.95818 326.765399 
L 319.444454 326.957614 
L 319.849683 326.972963 
L 320.173866 326.747616 
L 320.417003 326.683593 
L 321.065368 325.713382 
L 321.308506 325.012458 
L 321.551643 324.702923 
L 322.848374 320.410079 
L 323.091511 319.55602 
L 323.253602 319.484623 
L 323.334648 319.394709 
L 324.631379 313.372143 
L 324.874516 312.292672 
L 325.036608 312.050714 
L 325.522882 309.343946 
L 325.603928 309.244887 
L 326.009156 306.430135 
L 326.090202 306.59496 
L 326.171247 306.59852 
L 326.252293 306.460681 
L 327.305887 291.948663 
L 327.386933 291.809856 
L 327.792161 285.97886 
L 327.873207 286.005476 
L 327.954253 286.055133 
L 328.278436 281.036126 
L 328.440527 281.284488 
L 328.521573 281.489078 
L 328.683664 278.698987 
L 328.845756 277.059856 
L 328.926801 277.188247 
L 329.169938 278.940107 
L 329.250984 278.376916 
L 329.494121 275.36708 
L 329.737258 276.461342 
L 329.818304 275.784636 
L 330.061441 272.706299 
L 330.304578 273.980654 
L 330.385624 273.372707 
L 330.628761 270.511299 
L 330.871898 271.999479 
L 330.952944 271.45868 
L 331.196081 268.788424 
L 331.439218 270.449783 
L 331.520264 269.962264 
L 331.682355 267.579505 
L 331.763401 267.457001 
L 331.925492 268.858628 
L 332.087584 270.589399 
L 332.168629 270.311154 
L 332.330721 268.193743 
L 332.411766 268.107909 
L 332.654903 270.011198 
L 332.735949 269.875494 
L 332.898041 268.514695 
L 332.979086 268.682985 
L 333.303269 271.210918 
L 333.384315 270.765895 
L 333.46536 270.782021 
L 333.627452 272.042845 
L 333.870589 274.334276 
L 333.951635 274.330783 
L 334.113726 275.251267 
L 334.356863 277.421893 
L 334.518955 260.024151 
L 334.762092 243.977245 
L 334.843137 243.376979 
L 335.005229 245.029687 
L 335.410457 253.228867 
L 336.464051 276.847687 
L 337.193463 288.666887 
L 337.922874 297.157677 
L 338.652285 303.307815 
L 339.624834 309.298707 
L 340.435291 312.628791 
L 341.407839 315.782546 
L 342.13725 317.166868 
L 342.380387 317.581132 
L 342.70457 318.019103 
L 342.947707 318.338304 
L 343.190844 318.67829 
L 343.352936 318.688839 
L 343.596073 319.056144 
L 345.865352 323.513547 
L 346.837901 324.906071 
L 347.810449 325.925735 
L 348.377769 326.341982 
L 349.10718 326.425496 
L 350.971231 327.416481 
L 352.430054 327.875282 
L 354.294105 328.215802 
L 356.887567 328.446191 
L 361.18299 328.575332 
L 372.367296 328.615739 
L 673.289977 328.616781 
L 673.289977 328.616781 
" clip-path="url(#p2411379a38)" style="fill: none; stroke: #ff7f0e; stroke-width: 1.5; stroke-linecap: square"/>
   </g>
   <g id="patch_3">
    <path d="M 60.754688 342.2 
L 60.754688 43.44 
" style="fill: none; stroke: #000000; stroke-width: 0.8; stroke-linejoin: miter; stroke-linecap: square"/>
   </g>
   <g id="patch_4">
    <path d="M 702.458324 342.2 
L 702.458324 43.44 
" style="fill: none; stroke: #000000; stroke-width: 0.8; stroke-linejoin: miter; stroke-linecap: square"/>
   </g>
   <g id="patch_5">
    <path d="M 60.754687 342.2 
L 702.458324 342.2 
" style="fill: none; stroke: #000000; stroke-width: 0.8; stroke-linejoin: miter; stroke-linecap: square"/>
   </g>
   <g id="patch_6">
    <path d="M 60.754687 43.44 
L 702.458324 43.44 
" style="fill: none; stroke: #000000; stroke-width: 0.8; stroke-linejoin: miter; stroke-linecap: square"/>
   </g>
   <g id="text_13">
    <!-- 1 transformation(s) -->
    <g transform="translate(323.491818 37.44) scale(0.12 -0.12)">
     <defs>
      <path id="DejaVuSans-20" transform="scale(0.015625)"/>
      <path id="DejaVuSans-74" d="M 1172 4494 
L 1172 3500 
L 2356 3500 
L 2356 3053 
L 1172 3053 
L 1172 1153 
Q 1172 725 1289 603 
Q 1406 481 1766 481 
L 2356 481 
L 2356 0 
L 1766 0 
Q 1100 0 847 248 
Q 594 497 594 1153 
L 594 3053 
L 172 3053 
L 172 3500 
L 594 3500 
L 594 4494 
L 1172 4494 
z
" transform="scale(0.015625)"/>
      <path id="DejaVuSans-72" d="M 2631 2963 
Q 2534 3019 2420 3045 
Q 2306 3072 2169 3072 
Q 1681 3072 1420 2755 
Q 1159 2438 1159 1844 
L 1159 0 
L 581 0 
L 581 3500 
L 1159 3500 
L 1159 2956 
Q 1341 3275 1631 3429 
Q 1922 3584 2338 3584 
Q 2397 3584 2469 3576 
Q 2541 3569 2628 3553 
L 2631 2963 
z
" transform="scale(0.015625)"/>
      <path id="DejaVuSans-61" d="M 2194 1759 
Q 1497 1759 1228 1600 
Q 959 1441 959 1056 
Q 959 750 1161 570 
Q 1363 391 1709 391 
Q 2188 391 2477 730 
Q 2766 1069 2766 1631 
L 2766 1759 
L 2194 1759 
z
M 3341 1997 
L 3341 0 
L 2766 0 
L 2766 531 
Q 2569 213 2275 61 
Q 1981 -91 1556 -91 
Q 1019 -91 701 211 
Q 384 513 384 1019 
Q 384 1609 779 1909 
Q 1175 2209 1959 2209 
L 2766 2209 
L 2766 2266 
Q 2766 2663 2505 2880 
Q 2244 3097 1772 3097 
Q 1472 3097 1187 3025 
Q 903 2953 641 2809 
L 641 3341 
Q 956 3463 1253 3523 
Q 1550 3584 1831 3584 
Q 2591 3584 2966 3190 
Q 3341 2797 3341 1997 
z
" transform="scale(0.015625)"/>
      <path id="DejaVuSans-6e" d="M 3513 2113 
L 3513 0 
L 2938 0 
L 2938 2094 
Q 2938 2591 2744 2837 
Q 2550 3084 2163 3084 
Q 1697 3084 1428 2787 
Q 1159 2491 1159 1978 
L 1159 0 
L 581 0 
L 581 3500 
L 1159 3500 
L 1159 2956 
Q 1366 3272 1645 3428 
Q 1925 3584 2291 3584 
Q 2894 3584 3203 3211 
Q 3513 2838 3513 2113 
z
" transform="scale(0.015625)"/>
      <path id="DejaVuSans-73" d="M 2834 3397 
L 2834 2853 
Q 2591 2978 2328 3040 
Q 2066 3103 1784 3103 
Q 1356 3103 1142 2972 
Q 928 2841 928 2578 
Q 928 2378 1081 2264 
Q 1234 2150 1697 2047 
L 1894 2003 
Q 2506 1872 2764 1633 
Q 3022 1394 3022 966 
Q 3022 478 2636 193 
Q 2250 -91 1575 -91 
Q 1294 -91 989 -36 
Q 684 19 347 128 
L 347 722 
Q 666 556 975 473 
Q 1284 391 1588 391 
Q 1994 391 2212 530 
Q 2431 669 2431 922 
Q 2431 1156 2273 1281 
Q 2116 1406 1581 1522 
L 1381 1569 
Q 847 1681 609 1914 
Q 372 2147 372 2553 
Q 372 3047 722 3315 
Q 1072 3584 1716 3584 
Q 2034 3584 2315 3537 
Q 2597 3491 2834 3397 
z
" transform="scale(0.015625)"/>
      <path id="DejaVuSans-66" d="M 2375 4863 
L 2375 4384 
L 1825 4384 
Q 1516 4384 1395 4259 
Q 1275 4134 1275 3809 
L 1275 3500 
L 2222 3500 
L 2222 3053 
L 1275 3053 
L 1275 0 
L 697 0 
L 697 3053 
L 147 3053 
L 147 3500 
L 697 3500 
L 697 3744 
Q 697 4328 969 4595 
Q 1241 4863 1831 4863 
L 2375 4863 
z
" transform="scale(0.015625)"/>
      <path id="DejaVuSans-6f" d="M 1959 3097 
Q 1497 3097 1228 2736 
Q 959 2375 959 1747 
Q 959 1119 1226 758 
Q 1494 397 1959 397 
Q 2419 397 2687 759 
Q 2956 1122 2956 1747 
Q 2956 2369 2687 2733 
Q 2419 3097 1959 3097 
z
M 1959 3584 
Q 2709 3584 3137 3096 
Q 3566 2609 3566 1747 
Q 3566 888 3137 398 
Q 2709 -91 1959 -91 
Q 1206 -91 779 398 
Q 353 888 353 1747 
Q 353 2609 779 3096 
Q 1206 3584 1959 3584 
z
" transform="scale(0.015625)"/>
      <path id="DejaVuSans-6d" d="M 3328 2828 
Q 3544 3216 3844 3400 
Q 4144 3584 4550 3584 
Q 5097 3584 5394 3201 
Q 5691 2819 5691 2113 
L 5691 0 
L 5113 0 
L 5113 2094 
Q 5113 2597 4934 2840 
Q 4756 3084 4391 3084 
Q 3944 3084 3684 2787 
Q 3425 2491 3425 1978 
L 3425 0 
L 2847 0 
L 2847 2094 
Q 2847 2600 2669 2842 
Q 2491 3084 2119 3084 
Q 1678 3084 1418 2786 
Q 1159 2488 1159 1978 
L 1159 0 
L 581 0 
L 581 3500 
L 1159 3500 
L 1159 2956 
Q 1356 3278 1631 3431 
Q 1906 3584 2284 3584 
Q 2666 3584 2933 3390 
Q 3200 3197 3328 2828 
z
" transform="scale(0.015625)"/>
      <path id="DejaVuSans-69" d="M 603 3500 
L 1178 3500 
L 1178 0 
L 603 0 
L 603 3500 
z
M 603 4863 
L 1178 4863 
L 1178 4134 
L 603 4134 
L 603 4863 
z
" transform="scale(0.015625)"/>
      <path id="DejaVuSans-28" d="M 1984 4856 
Q 1566 4138 1362 3434 
Q 1159 2731 1159 2009 
Q 1159 1288 1364 580 
Q 1569 -128 1984 -844 
L 1484 -844 
Q 1016 -109 783 600 
Q 550 1309 550 2009 
Q 550 2706 781 3412 
Q 1013 4119 1484 4856 
L 1984 4856 
z
" transform="scale(0.015625)"/>
      <path id="DejaVuSans-29" d="M 513 4856 
L 1013 4856 
Q 1481 4119 1714 3412 
Q 1947 2706 1947 2009 
Q 1947 1309 1714 600 
Q 1481 -109 1013 -844 
L 513 -844 
Q 928 -128 1133 580 
Q 1338 1288 1338 2009 
Q 1338 2731 1133 3434 
Q 928 4138 513 4856 
z
" transform="scale(0.015625)"/>
     </defs>
     <use xlink:href="#DejaVuSans-31"/>
     <use xlink:href="#DejaVuSans-20" x="63.623047"/>
     <use xlink:href="#DejaVuSans-74" x="95.410156"/>
     <use xlink:href="#DejaVuSans-72" x="134.619141"/>
     <use xlink:href="#DejaVuSans-61" x="175.732422"/>
     <use xlink:href="#DejaVuSans-6e" x="237.011719"/>
     <use xlink:href="#DejaVuSans-73" x="300.390625"/>
     <use xlink:href="#DejaVuSans-66" x="352.490234"/>
     <use xlink:href="#DejaVuSans-6f" x="387.695312"/>
     <use xlink:href="#DejaVuSans-72" x="448.876953"/>
     <use xlink:href="#DejaVuSans-6d" x="488.240234"/>
     <use xlink:href="#DejaVuSans-61" x="585.652344"/>
     <use xlink:href="#DejaVuSans-74" x="646.931641"/>
     <use xlink:href="#DejaVuSans-69" x="686.140625"/>
     <use xlink:href="#DejaVuSans-6f" x="713.923828"/>
     <use xlink:href="#DejaVuSans-6e" x="775.105469"/>
     <use xlink:href="#DejaVuSans-28" x="838.484375"/>
     <use xlink:href="#DejaVuSans-73" x="877.498047"/>
     <use xlink:href="#DejaVuSans-29" x="929.597656"/>
    </g>
   </g>
   <g id="legend_1">
    <g id="patch_7">
     <path d="M 614.064574 80.79625 
L 695.458324 80.79625 
Q 697.458324 80.79625 697.458324 78.79625 
L 697.458324 50.44 
Q 697.458324 48.44 695.458324 48.44 
L 614.064574 48.44 
Q 612.064574 48.44 612.064574 50.44 
L 612.064574 78.79625 
Q 612.064574 80.79625 614.064574 80.79625 
z
" style="fill: #ffffff; opacity: 0.8; stroke: #cccccc; stroke-linejoin: miter"/>
    </g>
    <g id="line2d_15">
     <path d="M 616.064574 56.538437 
L 626.064574 56.538437 
L 636.064574 56.538437 
" style="fill: none; stroke: #1f77b4; stroke-width: 1.5; stroke-linecap: square"/>
    </g>
    <g id="text_14">
     <!-- observed -->
     <g transform="translate(644.064574 60.038437) scale(0.1 -0.1)">
      <defs>
       <path id="DejaVuSans-62" d="M 3116 1747 
Q 3116 2381 2855 2742 
Q 2594 3103 2138 3103 
Q 1681 3103 1420 2742 
Q 1159 2381 1159 1747 
Q 1159 1113 1420 752 
Q 1681 391 2138 391 
Q 2594 391 2855 752 
Q 3116 1113 3116 1747 
z
M 1159 2969 
Q 1341 3281 1617 3432 
Q 1894 3584 2278 3584 
Q 2916 3584 3314 3078 
Q 3713 2572 3713 1747 
Q 3713 922 3314 415 
Q 2916 -91 2278 -91 
Q 1894 -91 1617 61 
Q 1341 213 1159 525 
L 1159 0 
L 581 0 
L 581 4863 
L 1159 4863 
L 1159 2969 
z
" transform="scale(0.015625)"/>
       <path id="DejaVuSans-65" d="M 3597 1894 
L 3597 1613 
L 953 1613 
Q 991 1019 1311 708 
Q 1631 397 2203 397 
Q 2534 397 2845 478 
Q 3156 559 3463 722 
L 3463 178 
Q 3153 47 2828 -22 
Q 2503 -91 2169 -91 
Q 1331 -91 842 396 
Q 353 884 353 1716 
Q 353 2575 817 3079 
Q 1281 3584 2069 3584 
Q 2775 3584 3186 3129 
Q 3597 2675 3597 1894 
z
M 3022 2063 
Q 3016 2534 2758 2815 
Q 2500 3097 2075 3097 
Q 1594 3097 1305 2825 
Q 1016 2553 972 2059 
L 3022 2063 
z
" transform="scale(0.015625)"/>
       <path id="DejaVuSans-76" d="M 191 3500 
L 800 3500 
L 1894 563 
L 2988 3500 
L 3597 3500 
L 2284 0 
L 1503 0 
L 191 3500 
z
" transform="scale(0.015625)"/>
       <path id="DejaVuSans-64" d="M 2906 2969 
L 2906 4863 
L 3481 4863 
L 3481 0 
L 2906 0 
L 2906 525 
Q 2725 213 2448 61 
Q 2172 -91 1784 -91 
Q 1150 -91 751 415 
Q 353 922 353 1747 
Q 353 2572 751 3078 
Q 1150 3584 1784 3584 
Q 2172 3584 2448 3432 
Q 2725 3281 2906 2969 
z
M 947 1747 
Q 947 1113 1208 752 
Q 1469 391 1925 391 
Q 2381 391 2643 752 
Q 2906 1113 2906 1747 
Q 2906 2381 2643 2742 
Q 2381 3103 1925 3103 
Q 1469 3103 1208 2742 
Q 947 2381 947 1747 
z
" transform="scale(0.015625)"/>
      </defs>
      <use xlink:href="#DejaVuSans-6f"/>
      <use xlink:href="#DejaVuSans-62" x="61.181641"/>
      <use xlink:href="#DejaVuSans-73" x="124.658203"/>
      <use xlink:href="#DejaVuSans-65" x="176.757812"/>
      <use xlink:href="#DejaVuSans-72" x="238.28125"/>
      <use xlink:href="#DejaVuSans-76" x="279.394531"/>
      <use xlink:href="#DejaVuSans-65" x="338.574219"/>
      <use xlink:href="#DejaVuSans-64" x="400.097656"/>
     </g>
    </g>
    <g id="line2d_16">
     <path d="M 616.064574 71.216563 
L 626.064574 71.216563 
L 636.064574 71.216563 
" style="fill: none; stroke: #ff7f0e; stroke-width: 1.5; stroke-linecap: square"/>
    </g>
    <g id="text_15">
     <!-- simulated -->
     <g transform="translate(644.064574 74.716563) scale(0.1 -0.1)">
      <defs>
       <path id="DejaVuSans-75" d="M 544 1381 
L 544 3500 
L 1119 3500 
L 1119 1403 
Q 1119 906 1312 657 
Q 1506 409 1894 409 
Q 2359 409 2629 706 
Q 2900 1003 2900 1516 
L 2900 3500 
L 3475 3500 
L 3475 0 
L 2900 0 
L 2900 538 
Q 2691 219 2414 64 
Q 2138 -91 1772 -91 
Q 1169 -91 856 284 
Q 544 659 544 1381 
z
M 1991 3584 
L 1991 3584 
z
" transform="scale(0.015625)"/>
       <path id="DejaVuSans-6c" d="M 603 4863 
L 1178 4863 
L 1178 0 
L 603 0 
L 603 4863 
z
" transform="scale(0.015625)"/>
      </defs>
      <use xlink:href="#DejaVuSans-73"/>
      <use xlink:href="#DejaVuSans-69" x="52.099609"/>
      <use xlink:href="#DejaVuSans-6d" x="79.882812"/>
      <use xlink:href="#DejaVuSans-75" x="177.294922"/>
      <use xlink:href="#DejaVuSans-6c" x="240.673828"/>
      <use xlink:href="#DejaVuSans-61" x="268.457031"/>
      <use xlink:href="#DejaVuSans-74" x="329.736328"/>
      <use xlink:href="#DejaVuSans-65" x="368.945312"/>
      <use xlink:href="#DejaVuSans-64" x="430.46875"/>
     </g>
    </g>
   </g>
  </g>
  <g id="axes_2">
   <g id="patch_8">
    <path d="M 60.754688 684.92 
L 702.458324 684.92 
L 702.458324 386.16 
L 60.754688 386.16 
z
" style="fill: #ffffff"/>
   </g>
   <g id="matplotlib.axis_3">
    <g id="xtick_7">
     <g id="line2d_17">
      <g>
       <use xlink:href="#m0b312c5e4b" x="89.760943" y="684.92" style="stroke: #000000; stroke-width: 0.8"/>
      </g>
     </g>
     <g id="text_16">
      <!-- 2014-07-01 -->
      <g transform="translate(60.703131 699.518437) scale(0.1 -0.1)">
       <use xlink:href="#DejaVuSans-32"/>
       <use xlink:href="#DejaVuSans-30" x="63.623047"/>
       <use xlink:href="#DejaVuSans-31" x="127.246094"/>
       <use xlink:href="#DejaVuSans-34" x="190.869141"/>
       <use xlink:href="#DejaVuSans-2d" x="254.492188"/>
       <use xlink:href="#DejaVuSans-30" x="290.576172"/>
       <use xlink:href="#DejaVuSans-37" x="354.199219"/>
       <use xlink:href="#DejaVuSans-2d" x="417.822266"/>
       <use xlink:href="#DejaVuSans-30" x="453.90625"/>
       <use xlink:href="#DejaVuSans-31" x="517.529297"/>
      </g>
     </g>
    </g>
    <g id="xtick_8">
     <g id="line2d_18">
      <g>
       <use xlink:href="#m0b312c5e4b" x="206.46675" y="684.92" style="stroke: #000000; stroke-width: 0.8"/>
      </g>
     </g>
     <g id="text_17">
      <!-- 2014-07-02 -->
      <g transform="translate(177.408937 699.518437) scale(0.1 -0.1)">
       <use xlink:href="#DejaVuSans-32"/>
       <use xlink:href="#DejaVuSans-30" x="63.623047"/>
       <use xlink:href="#DejaVuSans-31" x="127.246094"/>
       <use xlink:href="#DejaVuSans-34" x="190.869141"/>
       <use xlink:href="#DejaVuSans-2d" x="254.492188"/>
       <use xlink:href="#DejaVuSans-30" x="290.576172"/>
       <use xlink:href="#DejaVuSans-37" x="354.199219"/>
       <use xlink:href="#DejaVuSans-2d" x="417.822266"/>
       <use xlink:href="#DejaVuSans-30" x="453.90625"/>
       <use xlink:href="#DejaVuSans-32" x="517.529297"/>
      </g>
     </g>
    </g>
    <g id="xtick_9">
     <g id="line2d_19">
      <g>
       <use xlink:href="#m0b312c5e4b" x="323.172557" y="684.92" style="stroke: #000000; stroke-width: 0.8"/>
      </g>
     </g>
     <g id="text_18">
      <!-- 2014-07-03 -->
      <g transform="translate(294.114744 699.518437) scale(0.1 -0.1)">
       <use xlink:href="#DejaVuSans-32"/>
       <use xlink:href="#DejaVuSans-30" x="63.623047"/>
       <use xlink:href="#DejaVuSans-31" x="127.246094"/>
       <use xlink:href="#DejaVuSans-34" x="190.869141"/>
       <use xlink:href="#DejaVuSans-2d" x="254.492188"/>
       <use xlink:href="#DejaVuSans-30" x="290.576172"/>
       <use xlink:href="#DejaVuSans-37" x="354.199219"/>
       <use xlink:href="#DejaVuSans-2d" x="417.822266"/>
       <use xlink:href="#DejaVuSans-30" x="453.90625"/>
       <use xlink:href="#DejaVuSans-33" x="517.529297"/>
      </g>
     </g>
    </g>
    <g id="xtick_10">
     <g id="line2d_20">
      <g>
       <use xlink:href="#m0b312c5e4b" x="439.878363" y="684.92" style="stroke: #000000; stroke-width: 0.8"/>
      </g>
     </g>
     <g id="text_19">
      <!-- 2014-07-04 -->
      <g transform="translate(410.820551 699.518437) scale(0.1 -0.1)">
       <use xlink:href="#DejaVuSans-32"/>
       <use xlink:href="#DejaVuSans-30" x="63.623047"/>
       <use xlink:href="#DejaVuSans-31" x="127.246094"/>
       <use xlink:href="#DejaVuSans-34" x="190.869141"/>
       <use xlink:href="#DejaVuSans-2d" x="254.492188"/>
       <use xlink:href="#DejaVuSans-30" x="290.576172"/>
       <use xlink:href="#DejaVuSans-37" x="354.199219"/>
       <use xlink:href="#DejaVuSans-2d" x="417.822266"/>
       <use xlink:href="#DejaVuSans-30" x="453.90625"/>
       <use xlink:href="#DejaVuSans-34" x="517.529297"/>
      </g>
     </g>
    </g>
    <g id="xtick_11">
     <g id="line2d_21">
      <g>
       <use xlink:href="#m0b312c5e4b" x="556.58417" y="684.92" style="stroke: #000000; stroke-width: 0.8"/>
      </g>
     </g>
     <g id="text_20">
      <!-- 2014-07-05 -->
      <g transform="translate(527.526358 699.518437) scale(0.1 -0.1)">
       <use xlink:href="#DejaVuSans-32"/>
       <use xlink:href="#DejaVuSans-30" x="63.623047"/>
       <use xlink:href="#DejaVuSans-31" x="127.246094"/>
       <use xlink:href="#DejaVuSans-34" x="190.869141"/>
       <use xlink:href="#DejaVuSans-2d" x="254.492188"/>
       <use xlink:href="#DejaVuSans-30" x="290.576172"/>
       <use xlink:href="#DejaVuSans-37" x="354.199219"/>
       <use xlink:href="#DejaVuSans-2d" x="417.822266"/>
       <use xlink:href="#DejaVuSans-30" x="453.90625"/>
       <use xlink:href="#DejaVuSans-35" x="517.529297"/>
      </g>
     </g>
    </g>
    <g id="xtick_12">
     <g id="line2d_22">
      <g>
       <use xlink:href="#m0b312c5e4b" x="673.289977" y="684.92" style="stroke: #000000; stroke-width: 0.8"/>
      </g>
     </g>
     <g id="text_21">
      <!-- 2014-07-06 -->
      <g transform="translate(644.232164 699.518437) scale(0.1 -0.1)">
       <use xlink:href="#DejaVuSans-32"/>
       <use xlink:href="#DejaVuSans-30" x="63.623047"/>
       <use xlink:href="#DejaVuSans-31" x="127.246094"/>
       <use xlink:href="#DejaVuSans-34" x="190.869141"/>
       <use xlink:href="#DejaVuSans-2d" x="254.492188"/>
       <use xlink:href="#DejaVuSans-30" x="290.576172"/>
       <use xlink:href="#DejaVuSans-37" x="354.199219"/>
       <use xlink:href="#DejaVuSans-2d" x="417.822266"/>
       <use xlink:href="#DejaVuSans-30" x="453.90625"/>
       <use xlink:href="#DejaVuSans-36" x="517.529297"/>
      </g>
     </g>
    </g>
   </g>
   <g id="matplotlib.axis_4">
    <g id="ytick_7">
     <g id="line2d_23">
      <g>
       <use xlink:href="#md4fec2a60c" x="60.754688" y="659.421005" style="stroke: #000000; stroke-width: 0.8"/>
      </g>
     </g>
     <g id="text_22">
      <!-- 700000 -->
      <g transform="translate(7.2 663.220224) scale(0.1 -0.1)">
       <defs>
        <path id="DejaVuSans-2212" d="M 678 2272 
L 4684 2272 
L 4684 1741 
L 678 1741 
L 678 2272 
z
" transform="scale(0.015625)"/>
       </defs>
       <use xlink:href="#DejaVuSans-2212"/>
       <use xlink:href="#DejaVuSans-37" x="83.789062"/>
       <use xlink:href="#DejaVuSans-30" x="147.412109"/>
       <use xlink:href="#DejaVuSans-30" x="211.035156"/>
       <use xlink:href="#DejaVuSans-30" x="274.658203"/>
       <use xlink:href="#DejaVuSans-30" x="338.28125"/>
       <use xlink:href="#DejaVuSans-30" x="401.904297"/>
      </g>
     </g>
    </g>
    <g id="ytick_8">
     <g id="line2d_24">
      <g>
       <use xlink:href="#md4fec2a60c" x="60.754688" y="622.323848" style="stroke: #000000; stroke-width: 0.8"/>
      </g>
     </g>
     <g id="text_23">
      <!-- 600000 -->
      <g transform="translate(7.2 626.123067) scale(0.1 -0.1)">
       <use xlink:href="#DejaVuSans-2212"/>
       <use xlink:href="#DejaVuSans-36" x="83.789062"/>
       <use xlink:href="#DejaVuSans-30" x="147.412109"/>
       <use xlink:href="#DejaVuSans-30" x="211.035156"/>
       <use xlink:href="#DejaVuSans-30" x="274.658203"/>
       <use xlink:href="#DejaVuSans-30" x="338.28125"/>
       <use xlink:href="#DejaVuSans-30" x="401.904297"/>
      </g>
     </g>
    </g>
    <g id="ytick_9">
     <g id="line2d_25">
      <g>
       <use xlink:href="#md4fec2a60c" x="60.754688" y="585.226691" style="stroke: #000000; stroke-width: 0.8"/>
      </g>
     </g>
     <g id="text_24">
      <!-- 500000 -->
      <g transform="translate(7.2 589.02591) scale(0.1 -0.1)">
       <use xlink:href="#DejaVuSans-2212"/>
       <use xlink:href="#DejaVuSans-35" x="83.789062"/>
       <use xlink:href="#DejaVuSans-30" x="147.412109"/>
       <use xlink:href="#DejaVuSans-30" x="211.035156"/>
       <use xlink:href="#DejaVuSans-30" x="274.658203"/>
       <use xlink:href="#DejaVuSans-30" x="338.28125"/>
       <use xlink:href="#DejaVuSans-30" x="401.904297"/>
      </g>
     </g>
    </g>
    <g id="ytick_10">
     <g id="line2d_26">
      <g>
       <use xlink:href="#md4fec2a60c" x="60.754688" y="548.129534" style="stroke: #000000; stroke-width: 0.8"/>
      </g>
     </g>
     <g id="text_25">
      <!-- 400000 -->
      <g transform="translate(7.2 551.928753) scale(0.1 -0.1)">
       <use xlink:href="#DejaVuSans-2212"/>
       <use xlink:href="#DejaVuSans-34" x="83.789062"/>
       <use xlink:href="#DejaVuSans-30" x="147.412109"/>
       <use xlink:href="#DejaVuSans-30" x="211.035156"/>
       <use xlink:href="#DejaVuSans-30" x="274.658203"/>
       <use xlink:href="#DejaVuSans-30" x="338.28125"/>
       <use xlink:href="#DejaVuSans-30" x="401.904297"/>
      </g>
     </g>
    </g>
    <g id="ytick_11">
     <g id="line2d_27">
      <g>
       <use xlink:href="#md4fec2a60c" x="60.754688" y="511.032377" style="stroke: #000000; stroke-width: 0.8"/>
      </g>
     </g>
     <g id="text_26">
      <!-- 300000 -->
      <g transform="translate(7.2 514.831595) scale(0.1 -0.1)">
       <use xlink:href="#DejaVuSans-2212"/>
       <use xlink:href="#DejaVuSans-33" x="83.789062"/>
       <use xlink:href="#DejaVuSans-30" x="147.412109"/>
       <use xlink:href="#DejaVuSans-30" x="211.035156"/>
       <use xlink:href="#DejaVuSans-30" x="274.658203"/>
       <use xlink:href="#DejaVuSans-30" x="338.28125"/>
       <use xlink:href="#DejaVuSans-30" x="401.904297"/>
      </g>
     </g>
    </g>
    <g id="ytick_12">
     <g id="line2d_28">
      <g>
       <use xlink:href="#md4fec2a60c" x="60.754688" y="473.93522" style="stroke: #000000; stroke-width: 0.8"/>
      </g>
     </g>
     <g id="text_27">
      <!-- 200000 -->
      <g transform="translate(7.2 477.734438) scale(0.1 -0.1)">
       <use xlink:href="#DejaVuSans-2212"/>
       <use xlink:href="#DejaVuSans-32" x="83.789062"/>
       <use xlink:href="#DejaVuSans-30" x="147.412109"/>
       <use xlink:href="#DejaVuSans-30" x="211.035156"/>
       <use xlink:href="#DejaVuSans-30" x="274.658203"/>
       <use xlink:href="#DejaVuSans-30" x="338.28125"/>
       <use xlink:href="#DejaVuSans-30" x="401.904297"/>
      </g>
     </g>
    </g>
    <g id="ytick_13">
     <g id="line2d_29">
      <g>
       <use xlink:href="#md4fec2a60c" x="60.754688" y="436.838063" style="stroke: #000000; stroke-width: 0.8"/>
      </g>
     </g>
     <g id="text_28">
      <!-- 100000 -->
      <g transform="translate(7.2 440.637281) scale(0.1 -0.1)">
       <use xlink:href="#DejaVuSans-2212"/>
       <use xlink:href="#DejaVuSans-31" x="83.789062"/>
       <use xlink:href="#DejaVuSans-30" x="147.412109"/>
       <use xlink:href="#DejaVuSans-30" x="211.035156"/>
       <use xlink:href="#DejaVuSans-30" x="274.658203"/>
       <use xlink:href="#DejaVuSans-30" x="338.28125"/>
       <use xlink:href="#DejaVuSans-30" x="401.904297"/>
      </g>
     </g>
    </g>
    <g id="ytick_14">
     <g id="line2d_30">
      <g>
       <use xlink:href="#md4fec2a60c" x="60.754688" y="399.740905" style="stroke: #000000; stroke-width: 0.8"/>
      </g>
     </g>
     <g id="text_29">
      <!-- 0 -->
      <g transform="translate(47.392188 403.540124) scale(0.1 -0.1)">
       <use xlink:href="#DejaVuSans-30"/>
      </g>
     </g>
    </g>
   </g>
   <g id="line2d_31">
    <path d="M 89.923035 399.740905 
L 673.289977 399.740905 
L 673.289977 399.740905 
" clip-path="url(#pcfcffa4653)" style="fill: none; stroke: #1f77b4; stroke-width: 1.5; stroke-linecap: square"/>
   </g>
   <g id="line2d_32">
    <path d="M 89.923035 399.740905 
L 391.413035 399.85193 
L 433.962027 400.089952 
L 460.139788 400.447263 
L 479.185527 400.920794 
L 494.178982 401.508293 
L 506.578974 402.210071 
L 517.19596 403.029203 
L 526.43517 403.96107 
L 534.620786 405.006105 
L 541.995944 406.168834 
L 548.641692 407.43647 
L 554.801165 408.835328 
L 560.474364 410.34977 
L 565.742334 411.983411 
L 570.686122 413.747444 
L 575.305727 415.628018 
L 579.682194 417.645631 
L 583.896571 419.834563 
L 587.86781 422.146315 
L 591.676958 424.618631 
L 595.324014 427.247088 
L 598.890025 430.092504 
L 602.293944 433.090648 
L 605.616818 436.311852 
L 608.858646 439.764411 
L 612.019428 443.455994 
L 615.099165 447.393511 
L 618.097856 451.582973 
L 621.096547 456.158409 
L 624.014192 461.017558 
L 626.931837 466.31871 
L 629.768436 471.938573 
L 632.605036 478.06387 
L 635.36059 484.546461 
L 638.116143 491.606401 
L 640.790651 499.066227 
L 643.465159 507.1851 
L 646.139668 516.030402 
L 648.73313 525.373076 
L 651.326592 535.548148 
L 653.920055 546.643744 
L 656.432471 558.364608 
L 658.944888 571.146199 
L 661.457305 585.105888 
L 663.888676 599.863161 
L 666.320047 615.988479 
L 668.751418 633.641666 
L 671.101743 652.331852 
L 673.289977 671.34 
L 673.289977 671.34 
" clip-path="url(#pcfcffa4653)" style="fill: none; stroke: #ff7f0e; stroke-width: 1.5; stroke-linecap: square"/>
   </g>
   <g id="patch_9">
    <path d="M 60.754688 684.92 
L 60.754688 386.16 
" style="fill: none; stroke: #000000; stroke-width: 0.8; stroke-linejoin: miter; stroke-linecap: square"/>
   </g>
   <g id="patch_10">
    <path d="M 702.458324 684.92 
L 702.458324 386.16 
" style="fill: none; stroke: #000000; stroke-width: 0.8; stroke-linejoin: miter; stroke-linecap: square"/>
   </g>
   <g id="patch_11">
    <path d="M 60.754687 684.92 
L 702.458324 684.92 
" style="fill: none; stroke: #000000; stroke-width: 0.8; stroke-linejoin: miter; stroke-linecap: square"/>
   </g>
   <g id="patch_12">
    <path d="M 60.754687 386.16 
L 702.458324 386.16 
" style="fill: none; stroke: #000000; stroke-width: 0.8; stroke-linejoin: miter; stroke-linecap: square"/>
   </g>
   <g id="text_30">
    <!-- 2 transformation(s) -->
    <g transform="translate(323.491818 380.16) scale(0.12 -0.12)">
     <use xlink:href="#DejaVuSans-32"/>
     <use xlink:href="#DejaVuSans-20" x="63.623047"/>
     <use xlink:href="#DejaVuSans-74" x="95.410156"/>
     <use xlink:href="#DejaVuSans-72" x="134.619141"/>
     <use xlink:href="#DejaVuSans-61" x="175.732422"/>
     <use xlink:href="#DejaVuSans-6e" x="237.011719"/>
     <use xlink:href="#DejaVuSans-73" x="300.390625"/>
     <use xlink:href="#DejaVuSans-66" x="352.490234"/>
     <use xlink:href="#DejaVuSans-6f" x="387.695312"/>
     <use xlink:href="#DejaVuSans-72" x="448.876953"/>
     <use xlink:href="#DejaVuSans-6d" x="488.240234"/>
     <use xlink:href="#DejaVuSans-61" x="585.652344"/>
     <use xlink:href="#DejaVuSans-74" x="646.931641"/>
     <use xlink:href="#DejaVuSans-69" x="686.140625"/>
     <use xlink:href="#DejaVuSans-6f" x="713.923828"/>
     <use xlink:href="#DejaVuSans-6e" x="775.105469"/>
     <use xlink:href="#DejaVuSans-28" x="838.484375"/>
     <use xlink:href="#DejaVuSans-73" x="877.498047"/>
     <use xlink:href="#DejaVuSans-29" x="929.597656"/>
    </g>
   </g>
  </g>
  <g id="text_31">
   <!-- training -->
   <g transform="translate(333.45125 16.318125) scale(0.12 -0.12)">
    <defs>
     <path id="DejaVuSans-67" d="M 2906 1791 
Q 2906 2416 2648 2759 
Q 2391 3103 1925 3103 
Q 1463 3103 1205 2759 
Q 947 2416 947 1791 
Q 947 1169 1205 825 
Q 1463 481 1925 481 
Q 2391 481 2648 825 
Q 2906 1169 2906 1791 
z
M 3481 434 
Q 3481 -459 3084 -895 
Q 2688 -1331 1869 -1331 
Q 1566 -1331 1297 -1286 
Q 1028 -1241 775 -1147 
L 775 -588 
Q 1028 -725 1275 -790 
Q 1522 -856 1778 -856 
Q 2344 -856 2625 -561 
Q 2906 -266 2906 331 
L 2906 616 
Q 2728 306 2450 153 
Q 2172 0 1784 0 
Q 1141 0 747 490 
Q 353 981 353 1791 
Q 353 2603 747 3093 
Q 1141 3584 1784 3584 
Q 2172 3584 2450 3431 
Q 2728 3278 2906 2969 
L 2906 3500 
L 3481 3500 
L 3481 434 
z
" transform="scale(0.015625)"/>
    </defs>
    <use xlink:href="#DejaVuSans-74"/>
    <use xlink:href="#DejaVuSans-72" x="39.208984"/>
    <use xlink:href="#DejaVuSans-61" x="80.322266"/>
    <use xlink:href="#DejaVuSans-69" x="141.601562"/>
    <use xlink:href="#DejaVuSans-6e" x="169.384766"/>
    <use xlink:href="#DejaVuSans-69" x="232.763672"/>
    <use xlink:href="#DejaVuSans-6e" x="260.546875"/>
    <use xlink:href="#DejaVuSans-67" x="323.925781"/>
   </g>
  </g>
 </g>
 <defs>
  <clipPath id="p2411379a38">
   <rect x="60.754688" y="43.44" width="641.703636" height="298.76"/>
  </clipPath>
  <clipPath id="pcfcffa4653">
   <rect x="60.754688" y="386.16" width="641.703636" height="298.76"/>
  </clipPath>
 </defs>
</svg>
