<?xml version="1.0" encoding="utf-8" standalone="no"?>
<!DOCTYPE svg PUBLIC "-//W3C//DTD SVG 1.1//EN"
  "http://www.w3.org/Graphics/SVG/1.1/DTD/svg11.dtd">
<svg xmlns:xlink="http://www.w3.org/1999/xlink" width="711.302173pt" height="708.798125pt" viewBox="0 0 711.302173 708.798125" xmlns="http://www.w3.org/2000/svg" version="1.1">
 <metadata>
  <rdf:RDF xmlns:dc="http://purl.org/dc/elements/1.1/" xmlns:cc="http://creativecommons.org/ns#" xmlns:rdf="http://www.w3.org/1999/02/22-rdf-syntax-ns#">
   <cc:Work>
    <dc:type rdf:resource="http://purl.org/dc/dcmitype/StillImage"/>
    <dc:date>2023-07-13T10:58:05.100728</dc:date>
    <dc:format>image/svg+xml</dc:format>
    <dc:creator>
     <cc:Agent>
      <dc:title>Matplotlib v3.7.1, https://matplotlib.org/</dc:title>
     </cc:Agent>
    </dc:creator>
   </cc:Work>
  </rdf:RDF>
 </metadata>
 <defs>
  <style type="text/css">*{stroke-linejoin: round; stroke-linecap: butt}</style>
 </defs>
 <g id="figure_1">
  <g id="patch_1">
   <path d="M 0 708.798125 
L 711.302173 708.798125 
L 711.302173 0 
L 0 0 
z
" style="fill: #ffffff"/>
  </g>
  <g id="axes_1">
   <g id="patch_2">
    <path d="M 30.103125 342.2 
L 704.102173 342.2 
L 704.102173 43.44 
L 30.103125 43.44 
z
" style="fill: #ffffff"/>
   </g>
   <g id="matplotlib.axis_1">
    <g id="xtick_1">
     <g id="line2d_1">
      <defs>
       <path id="m635a1e7a57" d="M 0 0 
L 0 3.5 
" style="stroke: #000000; stroke-width: 0.8"/>
      </defs>
      <g>
       <use xlink:href="#m635a1e7a57" x="77.614594" y="342.2" style="stroke: #000000; stroke-width: 0.8"/>
      </g>
     </g>
     <g id="text_1">
      <!-- 2000 -->
      <g transform="translate(64.889594 356.798437) scale(0.1 -0.1)">
       <defs>
        <path id="DejaVuSans-32" d="M 1228 531 
L 3431 531 
L 3431 0 
L 469 0 
L 469 531 
Q 828 903 1448 1529 
Q 2069 2156 2228 2338 
Q 2531 2678 2651 2914 
Q 2772 3150 2772 3378 
Q 2772 3750 2511 3984 
Q 2250 4219 1831 4219 
Q 1534 4219 1204 4116 
Q 875 4013 500 3803 
L 500 4441 
Q 881 4594 1212 4672 
Q 1544 4750 1819 4750 
Q 2544 4750 2975 4387 
Q 3406 4025 3406 3419 
Q 3406 3131 3298 2873 
Q 3191 2616 2906 2266 
Q 2828 2175 2409 1742 
Q 1991 1309 1228 531 
z
" transform="scale(0.015625)"/>
        <path id="DejaVuSans-30" d="M 2034 4250 
Q 1547 4250 1301 3770 
Q 1056 3291 1056 2328 
Q 1056 1369 1301 889 
Q 1547 409 2034 409 
Q 2525 409 2770 889 
Q 3016 1369 3016 2328 
Q 3016 3291 2770 3770 
Q 2525 4250 2034 4250 
z
M 2034 4750 
Q 2819 4750 3233 4129 
Q 3647 3509 3647 2328 
Q 3647 1150 3233 529 
Q 2819 -91 2034 -91 
Q 1250 -91 836 529 
Q 422 1150 422 2328 
Q 422 3509 836 4129 
Q 1250 4750 2034 4750 
z
" transform="scale(0.015625)"/>
       </defs>
       <use xlink:href="#DejaVuSans-32"/>
       <use xlink:href="#DejaVuSans-30" x="63.623047"/>
       <use xlink:href="#DejaVuSans-30" x="127.246094"/>
       <use xlink:href="#DejaVuSans-30" x="190.869141"/>
      </g>
     </g>
    </g>
    <g id="xtick_2">
     <g id="line2d_2">
      <g>
       <use xlink:href="#m635a1e7a57" x="145.861054" y="342.2" style="stroke: #000000; stroke-width: 0.8"/>
      </g>
     </g>
     <g id="text_2">
      <!-- 2001 -->
      <g transform="translate(133.136054 356.798437) scale(0.1 -0.1)">
       <defs>
        <path id="DejaVuSans-31" d="M 794 531 
L 1825 531 
L 1825 4091 
L 703 3866 
L 703 4441 
L 1819 4666 
L 2450 4666 
L 2450 531 
L 3481 531 
L 3481 0 
L 794 0 
L 794 531 
z
" transform="scale(0.015625)"/>
       </defs>
       <use xlink:href="#DejaVuSans-32"/>
       <use xlink:href="#DejaVuSans-30" x="63.623047"/>
       <use xlink:href="#DejaVuSans-30" x="127.246094"/>
       <use xlink:href="#DejaVuSans-31" x="190.869141"/>
      </g>
     </g>
    </g>
    <g id="xtick_3">
     <g id="line2d_3">
      <g>
       <use xlink:href="#m635a1e7a57" x="213.921047" y="342.2" style="stroke: #000000; stroke-width: 0.8"/>
      </g>
     </g>
     <g id="text_3">
      <!-- 2002 -->
      <g transform="translate(201.196047 356.798437) scale(0.1 -0.1)">
       <use xlink:href="#DejaVuSans-32"/>
       <use xlink:href="#DejaVuSans-30" x="63.623047"/>
       <use xlink:href="#DejaVuSans-30" x="127.246094"/>
       <use xlink:href="#DejaVuSans-32" x="190.869141"/>
      </g>
     </g>
    </g>
    <g id="xtick_4">
     <g id="line2d_4">
      <g>
       <use xlink:href="#m635a1e7a57" x="281.981041" y="342.2" style="stroke: #000000; stroke-width: 0.8"/>
      </g>
     </g>
     <g id="text_4">
      <!-- 2003 -->
      <g transform="translate(269.256041 356.798437) scale(0.1 -0.1)">
       <defs>
        <path id="DejaVuSans-33" d="M 2597 2516 
Q 3050 2419 3304 2112 
Q 3559 1806 3559 1356 
Q 3559 666 3084 287 
Q 2609 -91 1734 -91 
Q 1441 -91 1130 -33 
Q 819 25 488 141 
L 488 750 
Q 750 597 1062 519 
Q 1375 441 1716 441 
Q 2309 441 2620 675 
Q 2931 909 2931 1356 
Q 2931 1769 2642 2001 
Q 2353 2234 1838 2234 
L 1294 2234 
L 1294 2753 
L 1863 2753 
Q 2328 2753 2575 2939 
Q 2822 3125 2822 3475 
Q 2822 3834 2567 4026 
Q 2313 4219 1838 4219 
Q 1578 4219 1281 4162 
Q 984 4106 628 3988 
L 628 4550 
Q 988 4650 1302 4700 
Q 1616 4750 1894 4750 
Q 2613 4750 3031 4423 
Q 3450 4097 3450 3541 
Q 3450 3153 3228 2886 
Q 3006 2619 2597 2516 
z
" transform="scale(0.015625)"/>
       </defs>
       <use xlink:href="#DejaVuSans-32"/>
       <use xlink:href="#DejaVuSans-30" x="63.623047"/>
       <use xlink:href="#DejaVuSans-30" x="127.246094"/>
       <use xlink:href="#DejaVuSans-33" x="190.869141"/>
      </g>
     </g>
    </g>
    <g id="xtick_5">
     <g id="line2d_5">
      <g>
       <use xlink:href="#m635a1e7a57" x="350.041034" y="342.2" style="stroke: #000000; stroke-width: 0.8"/>
      </g>
     </g>
     <g id="text_5">
      <!-- 2004 -->
      <g transform="translate(337.316034 356.798437) scale(0.1 -0.1)">
       <defs>
        <path id="DejaVuSans-34" d="M 2419 4116 
L 825 1625 
L 2419 1625 
L 2419 4116 
z
M 2253 4666 
L 3047 4666 
L 3047 1625 
L 3713 1625 
L 3713 1100 
L 3047 1100 
L 3047 0 
L 2419 0 
L 2419 1100 
L 313 1100 
L 313 1709 
L 2253 4666 
z
" transform="scale(0.015625)"/>
       </defs>
       <use xlink:href="#DejaVuSans-32"/>
       <use xlink:href="#DejaVuSans-30" x="63.623047"/>
       <use xlink:href="#DejaVuSans-30" x="127.246094"/>
       <use xlink:href="#DejaVuSans-34" x="190.869141"/>
      </g>
     </g>
    </g>
    <g id="xtick_6">
     <g id="line2d_6">
      <g>
       <use xlink:href="#m635a1e7a57" x="418.287493" y="342.2" style="stroke: #000000; stroke-width: 0.8"/>
      </g>
     </g>
     <g id="text_6">
      <!-- 2005 -->
      <g transform="translate(405.562493 356.798437) scale(0.1 -0.1)">
       <defs>
        <path id="DejaVuSans-35" d="M 691 4666 
L 3169 4666 
L 3169 4134 
L 1269 4134 
L 1269 2991 
Q 1406 3038 1543 3061 
Q 1681 3084 1819 3084 
Q 2600 3084 3056 2656 
Q 3513 2228 3513 1497 
Q 3513 744 3044 326 
Q 2575 -91 1722 -91 
Q 1428 -91 1123 -41 
Q 819 9 494 109 
L 494 744 
Q 775 591 1075 516 
Q 1375 441 1709 441 
Q 2250 441 2565 725 
Q 2881 1009 2881 1497 
Q 2881 1984 2565 2268 
Q 2250 2553 1709 2553 
Q 1456 2553 1204 2497 
Q 953 2441 691 2322 
L 691 4666 
z
" transform="scale(0.015625)"/>
       </defs>
       <use xlink:href="#DejaVuSans-32"/>
       <use xlink:href="#DejaVuSans-30" x="63.623047"/>
       <use xlink:href="#DejaVuSans-30" x="127.246094"/>
       <use xlink:href="#DejaVuSans-35" x="190.869141"/>
      </g>
     </g>
    </g>
    <g id="xtick_7">
     <g id="line2d_7">
      <g>
       <use xlink:href="#m635a1e7a57" x="486.347487" y="342.2" style="stroke: #000000; stroke-width: 0.8"/>
      </g>
     </g>
     <g id="text_7">
      <!-- 2006 -->
      <g transform="translate(473.622487 356.798437) scale(0.1 -0.1)">
       <defs>
        <path id="DejaVuSans-36" d="M 2113 2584 
Q 1688 2584 1439 2293 
Q 1191 2003 1191 1497 
Q 1191 994 1439 701 
Q 1688 409 2113 409 
Q 2538 409 2786 701 
Q 3034 994 3034 1497 
Q 3034 2003 2786 2293 
Q 2538 2584 2113 2584 
z
M 3366 4563 
L 3366 3988 
Q 3128 4100 2886 4159 
Q 2644 4219 2406 4219 
Q 1781 4219 1451 3797 
Q 1122 3375 1075 2522 
Q 1259 2794 1537 2939 
Q 1816 3084 2150 3084 
Q 2853 3084 3261 2657 
Q 3669 2231 3669 1497 
Q 3669 778 3244 343 
Q 2819 -91 2113 -91 
Q 1303 -91 875 529 
Q 447 1150 447 2328 
Q 447 3434 972 4092 
Q 1497 4750 2381 4750 
Q 2619 4750 2861 4703 
Q 3103 4656 3366 4563 
z
" transform="scale(0.015625)"/>
       </defs>
       <use xlink:href="#DejaVuSans-32"/>
       <use xlink:href="#DejaVuSans-30" x="63.623047"/>
       <use xlink:href="#DejaVuSans-30" x="127.246094"/>
       <use xlink:href="#DejaVuSans-36" x="190.869141"/>
      </g>
     </g>
    </g>
    <g id="xtick_8">
     <g id="line2d_8">
      <g>
       <use xlink:href="#m635a1e7a57" x="554.40748" y="342.2" style="stroke: #000000; stroke-width: 0.8"/>
      </g>
     </g>
     <g id="text_8">
      <!-- 2007 -->
      <g transform="translate(541.68248 356.798437) scale(0.1 -0.1)">
       <defs>
        <path id="DejaVuSans-37" d="M 525 4666 
L 3525 4666 
L 3525 4397 
L 1831 0 
L 1172 0 
L 2766 4134 
L 525 4134 
L 525 4666 
z
" transform="scale(0.015625)"/>
       </defs>
       <use xlink:href="#DejaVuSans-32"/>
       <use xlink:href="#DejaVuSans-30" x="63.623047"/>
       <use xlink:href="#DejaVuSans-30" x="127.246094"/>
       <use xlink:href="#DejaVuSans-37" x="190.869141"/>
      </g>
     </g>
    </g>
    <g id="xtick_9">
     <g id="line2d_9">
      <g>
       <use xlink:href="#m635a1e7a57" x="622.467474" y="342.2" style="stroke: #000000; stroke-width: 0.8"/>
      </g>
     </g>
     <g id="text_9">
      <!-- 2008 -->
      <g transform="translate(609.742474 356.798437) scale(0.1 -0.1)">
       <defs>
        <path id="DejaVuSans-38" d="M 2034 2216 
Q 1584 2216 1326 1975 
Q 1069 1734 1069 1313 
Q 1069 891 1326 650 
Q 1584 409 2034 409 
Q 2484 409 2743 651 
Q 3003 894 3003 1313 
Q 3003 1734 2745 1975 
Q 2488 2216 2034 2216 
z
M 1403 2484 
Q 997 2584 770 2862 
Q 544 3141 544 3541 
Q 544 4100 942 4425 
Q 1341 4750 2034 4750 
Q 2731 4750 3128 4425 
Q 3525 4100 3525 3541 
Q 3525 3141 3298 2862 
Q 3072 2584 2669 2484 
Q 3125 2378 3379 2068 
Q 3634 1759 3634 1313 
Q 3634 634 3220 271 
Q 2806 -91 2034 -91 
Q 1263 -91 848 271 
Q 434 634 434 1313 
Q 434 1759 690 2068 
Q 947 2378 1403 2484 
z
M 1172 3481 
Q 1172 3119 1398 2916 
Q 1625 2713 2034 2713 
Q 2441 2713 2670 2916 
Q 2900 3119 2900 3481 
Q 2900 3844 2670 4047 
Q 2441 4250 2034 4250 
Q 1625 4250 1398 4047 
Q 1172 3844 1172 3481 
z
" transform="scale(0.015625)"/>
       </defs>
       <use xlink:href="#DejaVuSans-32"/>
       <use xlink:href="#DejaVuSans-30" x="63.623047"/>
       <use xlink:href="#DejaVuSans-30" x="127.246094"/>
       <use xlink:href="#DejaVuSans-38" x="190.869141"/>
      </g>
     </g>
    </g>
    <g id="xtick_10">
     <g id="line2d_10">
      <g>
       <use xlink:href="#m635a1e7a57" x="690.713933" y="342.2" style="stroke: #000000; stroke-width: 0.8"/>
      </g>
     </g>
     <g id="text_10">
      <!-- 2009 -->
      <g transform="translate(677.988933 356.798437) scale(0.1 -0.1)">
       <defs>
        <path id="DejaVuSans-39" d="M 703 97 
L 703 672 
Q 941 559 1184 500 
Q 1428 441 1663 441 
Q 2288 441 2617 861 
Q 2947 1281 2994 2138 
Q 2813 1869 2534 1725 
Q 2256 1581 1919 1581 
Q 1219 1581 811 2004 
Q 403 2428 403 3163 
Q 403 3881 828 4315 
Q 1253 4750 1959 4750 
Q 2769 4750 3195 4129 
Q 3622 3509 3622 2328 
Q 3622 1225 3098 567 
Q 2575 -91 1691 -91 
Q 1453 -91 1209 -44 
Q 966 3 703 97 
z
M 1959 2075 
Q 2384 2075 2632 2365 
Q 2881 2656 2881 3163 
Q 2881 3666 2632 3958 
Q 2384 4250 1959 4250 
Q 1534 4250 1286 3958 
Q 1038 3666 1038 3163 
Q 1038 2656 1286 2365 
Q 1534 2075 1959 2075 
z
" transform="scale(0.015625)"/>
       </defs>
       <use xlink:href="#DejaVuSans-32"/>
       <use xlink:href="#DejaVuSans-30" x="63.623047"/>
       <use xlink:href="#DejaVuSans-30" x="127.246094"/>
       <use xlink:href="#DejaVuSans-39" x="190.869141"/>
      </g>
     </g>
    </g>
   </g>
   <g id="matplotlib.axis_2">
    <g id="ytick_1">
     <g id="line2d_11">
      <defs>
       <path id="m44665e62f9" d="M 0 0 
L -3.5 0 
" style="stroke: #000000; stroke-width: 0.8"/>
      </defs>
      <g>
       <use xlink:href="#m44665e62f9" x="30.103125" y="328.62" style="stroke: #000000; stroke-width: 0.8"/>
      </g>
     </g>
     <g id="text_11">
      <!-- 0 -->
      <g transform="translate(16.740625 332.419219) scale(0.1 -0.1)">
       <use xlink:href="#DejaVuSans-30"/>
      </g>
     </g>
    </g>
    <g id="ytick_2">
     <g id="line2d_12">
      <g>
       <use xlink:href="#m44665e62f9" x="30.103125" y="286.240441" style="stroke: #000000; stroke-width: 0.8"/>
      </g>
     </g>
     <g id="text_12">
      <!-- 2 -->
      <g transform="translate(16.740625 290.03966) scale(0.1 -0.1)">
       <use xlink:href="#DejaVuSans-32"/>
      </g>
     </g>
    </g>
    <g id="ytick_3">
     <g id="line2d_13">
      <g>
       <use xlink:href="#m44665e62f9" x="30.103125" y="243.860882" style="stroke: #000000; stroke-width: 0.8"/>
      </g>
     </g>
     <g id="text_13">
      <!-- 4 -->
      <g transform="translate(16.740625 247.6601) scale(0.1 -0.1)">
       <use xlink:href="#DejaVuSans-34"/>
      </g>
     </g>
    </g>
    <g id="ytick_4">
     <g id="line2d_14">
      <g>
       <use xlink:href="#m44665e62f9" x="30.103125" y="201.481322" style="stroke: #000000; stroke-width: 0.8"/>
      </g>
     </g>
     <g id="text_14">
      <!-- 6 -->
      <g transform="translate(16.740625 205.280541) scale(0.1 -0.1)">
       <use xlink:href="#DejaVuSans-36"/>
      </g>
     </g>
    </g>
    <g id="ytick_5">
     <g id="line2d_15">
      <g>
       <use xlink:href="#m44665e62f9" x="30.103125" y="159.101763" style="stroke: #000000; stroke-width: 0.8"/>
      </g>
     </g>
     <g id="text_15">
      <!-- 8 -->
      <g transform="translate(16.740625 162.900982) scale(0.1 -0.1)">
       <use xlink:href="#DejaVuSans-38"/>
      </g>
     </g>
    </g>
    <g id="ytick_6">
     <g id="line2d_16">
      <g>
       <use xlink:href="#m44665e62f9" x="30.103125" y="116.722204" style="stroke: #000000; stroke-width: 0.8"/>
      </g>
     </g>
     <g id="text_16">
      <!-- 10 -->
      <g transform="translate(10.378125 120.521423) scale(0.1 -0.1)">
       <use xlink:href="#DejaVuSans-31"/>
       <use xlink:href="#DejaVuSans-30" x="63.623047"/>
      </g>
     </g>
    </g>
    <g id="ytick_7">
     <g id="line2d_17">
      <g>
       <use xlink:href="#m44665e62f9" x="30.103125" y="74.342645" style="stroke: #000000; stroke-width: 0.8"/>
      </g>
     </g>
     <g id="text_17">
      <!-- 12 -->
      <g transform="translate(10.378125 78.141864) scale(0.1 -0.1)">
       <use xlink:href="#DejaVuSans-31"/>
       <use xlink:href="#DejaVuSans-32" x="63.623047"/>
      </g>
     </g>
    </g>
   </g>
   <g id="line2d_18">
    <path d="M 60.739445 328.469553 
L 62.604103 328.458958 
L 64.095829 328.439887 
L 66.892815 328.384793 
L 71.92739 328.238584 
L 72.673252 328.208918 
L 73.978513 328.325462 
L 74.910841 328.414459 
L 76.402567 328.552193 
L 79.386019 328.53736 
L 80.318348 328.560669 
L 87.590511 328.473791 
L 87.776977 328.399626 
L 87.963443 328.033043 
L 88.149909 326.270053 
L 88.336374 325.977634 
L 88.709306 327.446086 
L 88.895771 327.446086 
L 89.082237 327.151548 
L 89.268703 326.418382 
L 89.455169 326.270053 
L 89.8281 326.564591 
L 90.201032 326.564591 
L 90.387497 326.859129 
L 90.573963 326.859129 
L 91.506292 327.592296 
L 91.879223 327.592296 
L 92.625086 328.092374 
L 93.184483 327.944046 
L 93.370949 327.56263 
L 93.743881 328.033043 
L 94.303278 328.179253 
L 94.489744 327.973712 
L 94.862675 328.208918 
L 95.422072 328.119921 
L 95.981469 328.119921 
L 96.913798 328.003377 
L 97.100264 327.797837 
L 97.28673 327.181214 
L 97.659661 328.062709 
L 97.846127 327.357089 
L 98.219058 323.627688 
L 98.405524 324.509183 
L 98.778455 323.040731 
L 99.337853 326.064513 
L 99.524318 326.15351 
L 99.710784 326.094178 
L 100.083716 326.329385 
L 100.270181 325.742428 
L 100.456647 325.683097 
L 101.20251 327.532964 
L 101.761907 327.768171 
L 102.321304 327.386755 
L 102.50777 327.240545 
L 102.694236 327.621961 
L 103.253633 327.886834 
L 104.745359 328.26825 
L 107.355879 328.325462 
L 108.101742 328.446244 
L 108.661139 328.369961 
L 114.255111 328.520408 
L 114.441577 327.91438 
L 114.628043 328.092374 
L 114.814509 327.708839 
L 115.373906 328.374199 
L 116.306235 328.503456 
L 117.611495 328.55855 
L 123.205467 328.550074 
L 124.137795 328.452601 
L 134.393411 328.507694 
L 134.579877 328.062709 
L 134.766342 328.484385 
L 135.885137 328.473791 
L 137.003931 328.497099 
L 142.224972 328.488623 
L 144.089629 328.526765 
L 150.988861 328.575501 
L 163.668531 328.531003 
L 163.854997 71.40786 
L 164.041463 57.02 
L 164.414394 121.322505 
L 164.60086 186.801043 
L 164.787326 194.141183 
L 165.346723 288.393322 
L 165.719655 303.075721 
L 166.092586 311.002817 
L 166.279052 312.176731 
L 166.465517 312.176731 
L 166.651983 311.297355 
L 166.838449 308.065914 
L 167.024915 296.614957 
L 167.397846 291.917183 
L 168.143709 313.350645 
L 168.516641 319.224452 
L 168.889572 321.572279 
L 169.076038 320.985322 
L 169.262504 313.645183 
L 169.448969 296.909495 
L 170.567764 319.516871 
L 170.940695 321.27986 
L 171.686558 323.335269 
L 171.873024 323.335269 
L 172.245955 322.453774 
L 172.432421 322.453774 
L 172.991818 323.335269 
L 173.551215 324.803721 
L 173.924147 325.390678 
L 174.297078 324.214645 
L 174.856476 325.683097 
L 175.042941 325.683097 
L 175.229407 325.390678 
L 175.415873 325.683097 
L 175.602339 325.683097 
L 175.97527 295.146505 
L 176.161736 302.486645 
L 176.348201 303.662678 
L 176.534667 281.053183 
L 176.907599 298.670366 
L 177.094064 300.725774 
L 178.026393 317.169043 
L 178.399325 320.398366 
L 178.772256 322.453774 
L 178.958722 323.040731 
L 179.331653 324.803721 
L 179.704585 326.183175 
L 180.263982 326.859129 
L 180.636913 327.151548 
L 181.382776 327.886834 
L 182.128639 328.26825 
L 183.060968 328.465315 
L 184.73916 328.033043 
L 185.112091 326.916342 
L 185.298557 326.799798 
L 185.485023 327.06467 
L 185.857954 328.092374 
L 186.230885 328.369961 
L 187.163214 328.545836 
L 192.197789 328.607286 
L 194.248912 328.590334 
L 194.621844 328.605167 
L 194.808309 328.401745 
L 194.994775 328.560669 
L 195.740638 328.545836 
L 196.113569 328.325462 
L 196.486501 328.397507 
L 196.859432 328.397507 
L 197.045898 328.297915 
L 197.791761 328.374199 
L 198.164693 328.149587 
L 198.537624 327.797837 
L 198.910555 328.119921 
L 199.283487 327.857168 
L 199.469953 327.708839 
L 200.02935 327.738505 
L 200.402281 327.857168 
L 200.961679 327.91438 
L 201.521076 328.092374 
L 203.012802 328.062709 
L 203.572199 327.91438 
L 203.94513 328.149587 
L 204.318062 328.238584 
L 205.809788 328.325462 
L 206.182719 328.363604 
L 206.742116 328.429292 
L 208.233842 328.444125 
L 210.844363 328.119921 
L 212.149623 328.208918 
L 214.760143 328.520408 
L 222.591704 328.331819 
L 222.77817 328.179253 
L 222.964635 327.592296 
L 223.337567 319.224452 
L 223.524033 322.748312 
L 223.896964 321.572279 
L 224.269896 327.005339 
L 224.642827 328.033043 
L 225.948087 328.119921 
L 226.507484 328.384793 
L 226.880416 328.384793 
L 227.066882 328.238584 
L 227.253347 327.738505 
L 227.439813 326.859129 
L 227.626279 327.592296 
L 227.812744 327.738505 
L 227.99921 326.564591 
L 228.372142 327.738505 
L 228.558607 327.886834 
L 228.745073 327.738505 
L 228.931539 327.738505 
L 229.118005 328.033043 
L 229.490936 328.119921 
L 229.677402 328.033043 
L 229.863868 327.446086 
L 230.050333 319.811409 
L 230.236799 299.257322 
L 230.423265 305.131129 
L 230.609731 305.131129 
L 230.982662 321.27986 
L 231.355593 323.627688 
L 231.542059 323.922226 
L 231.728525 323.922226 
L 231.914991 323.040731 
L 232.101456 323.335269 
L 232.287922 324.214645 
L 232.660854 323.335269 
L 232.847319 323.040731 
L 233.033785 323.335269 
L 233.220251 323.335269 
L 233.406717 323.627688 
L 233.779648 323.627688 
L 234.15258 324.214645 
L 234.525511 325.09614 
L 234.898442 324.509183 
L 235.084908 324.509183 
L 235.45784 325.918303 
L 235.644305 325.390678 
L 236.017237 320.985322 
L 236.203703 320.692903 
L 236.390168 320.692903 
L 236.576634 321.27986 
L 237.136031 324.509183 
L 237.508963 325.390678 
L 237.695428 323.922226 
L 237.881894 318.637495 
L 238.06836 318.050538 
L 238.254826 318.050538 
L 238.441291 316.582086 
L 238.814223 316.582086 
L 239.187154 319.516871 
L 239.560086 322.453774 
L 240.492415 326.359051 
L 240.865346 327.035004 
L 241.424743 327.416421 
L 242.170606 327.827502 
L 242.357072 327.827502 
L 242.730003 327.973712 
L 243.102935 328.033043 
L 243.662332 328.297915 
L 245.340524 328.435649 
L 245.713455 328.446244 
L 245.899921 327.621961 
L 246.086387 327.621961 
L 246.459318 321.572279 
L 246.645784 320.398366 
L 247.205181 324.803721 
L 247.578112 327.005339 
L 247.951044 327.797837 
L 248.323975 328.149587 
L 248.696907 328.336057 
L 251.120961 328.560669 
L 253.35855 328.528884 
L 254.850276 328.55855 
L 257.087865 328.53736 
L 257.274331 328.420816 
L 257.647262 328.526765 
L 265.292357 328.545836 
L 265.478823 328.39115 
L 265.851755 328.528884 
L 267.529946 328.53736 
L 268.835206 328.520408 
L 273.869781 328.467434 
L 275.920904 328.488623 
L 277.785562 328.53736 
L 295.499807 328.579739 
L 295.686272 328.325462 
L 296.059204 303.662678 
L 296.805067 319.811409 
L 297.737395 325.09614 
L 298.110327 325.977634 
L 298.669724 326.859129 
L 298.85619 326.886676 
L 299.602053 327.446086 
L 300.720847 327.681293 
L 301.280244 327.651627 
L 301.653176 327.475752 
L 302.026107 326.740467 
L 302.399039 323.040731 
L 302.77197 322.453774 
L 303.144902 323.040731 
L 303.704299 325.390678 
L 303.890765 325.742428 
L 304.07723 325.801759 
L 304.450162 325.09614 
L 304.823093 326.094178 
L 305.009559 325.977634 
L 305.382491 322.748312 
L 305.568956 322.748312 
L 305.755422 323.335269 
L 306.128353 317.756 
L 306.501285 319.224452 
L 306.687751 320.105947 
L 307.060682 318.342957 
L 308.179477 325.09614 
L 308.365942 324.803721 
L 308.738874 326.064513 
L 309.484737 327.621961 
L 310.044134 328.26825 
L 310.417065 328.344533 
L 310.976463 328.344533 
L 311.349394 327.503299 
L 311.53586 327.651627 
L 311.722326 327.944046 
L 311.908791 327.21088 
L 312.468188 326.916342 
L 312.654654 326.623923 
L 313.027586 326.770132 
L 313.400517 327.240545 
L 313.959914 328.092374 
L 314.332846 322.748312 
L 314.519312 326.064513 
L 314.705777 326.564591 
L 314.892243 326.329385 
L 315.638106 326.975673 
L 315.824572 327.270211 
L 316.7569 327.56263 
L 316.943366 327.768171 
L 317.129832 328.26825 
L 317.875695 328.499218 
L 318.062161 328.535241 
L 318.435092 328.461077 
L 319.180955 328.552193 
L 320.859147 328.583977 
L 322.723804 328.581858 
L 332.606488 328.588215 
L 335.030542 328.583977 
L 362.627471 328.473791 
L 362.813937 328.369961 
L 363.746266 328.473791 
L 370.086101 328.444125 
L 370.645498 328.344533 
L 371.391361 328.208918 
L 373.442484 328.429292 
L 374.561278 328.484385 
L 374.747744 328.297915 
L 375.493607 328.325462 
L 376.23947 328.325462 
L 377.171799 328.297915 
L 377.731196 328.208918 
L 377.917662 328.149587 
L 378.104127 326.15351 
L 378.290593 317.461462 
L 378.477059 316.287548 
L 378.84999 321.572279 
L 379.409388 325.390678 
L 379.595853 326.418382 
L 379.782319 326.623923 
L 380.155251 326.329385 
L 381.087579 320.692903 
L 381.274045 320.985322 
L 381.460511 320.985322 
L 381.833442 320.105947 
L 382.019908 320.105947 
L 383.698099 325.712762 
L 384.071031 326.859129 
L 384.630428 327.708839 
L 384.816894 327.886834 
L 385.00336 323.335269 
L 385.376291 320.985322 
L 385.562757 315.406053 
L 385.749223 313.350645 
L 386.122154 315.700591 
L 386.30862 318.050538 
L 387.054483 321.27986 
L 387.427414 322.748312 
L 387.986811 326.564591 
L 388.173277 327.005339 
L 388.359743 327.151548 
L 388.91914 328.062709 
L 389.292072 328.325462 
L 389.478537 328.179253 
L 390.2244 328.41234 
L 391.52966 328.535241 
L 392.648455 328.605167 
L 396.937167 328.59881 
L 397.310098 328.408102 
L 397.869495 328.458958 
L 398.428893 328.552193 
L 398.801824 328.522527 
L 399.174756 325.742428 
L 399.361221 326.916342 
L 399.547687 326.534926 
L 399.734153 325.09614 
L 399.920618 321.866817 
L 400.107084 316.287548 
L 400.666481 324.509183 
L 401.039413 326.0073 
L 401.225879 325.09614 
L 401.412344 323.627688 
L 401.59881 320.105947 
L 402.158207 323.922226 
L 402.717605 325.390678 
L 403.836399 326.946007 
L 404.582262 327.416421 
L 405.141659 327.297758 
L 405.514591 326.242507 
L 405.887522 324.214645 
L 406.073988 325.09614 
L 406.260453 323.922226 
L 406.446919 320.105947 
L 406.633385 313.645183 
L 406.819851 315.995129 
L 407.006316 316.874505 
L 407.379248 320.398366 
L 407.752179 321.866817 
L 408.311577 323.335269 
L 408.498042 323.627688 
L 409.243905 325.683097 
L 409.803302 326.064513 
L 410.3627 326.094178 
L 410.735631 326.036966 
L 411.108563 326.15351 
L 411.481494 326.564591 
L 411.854426 326.653588 
L 412.413823 327.06467 
L 413.719083 327.621961 
L 414.092014 327.621961 
L 415.024343 327.857168 
L 415.58374 328.033043 
L 416.702535 328.26825 
L 417.075466 328.422935 
L 418.007795 328.461077 
L 418.940124 328.514051 
L 420.058918 328.583977 
L 424.534096 328.590334 
L 425.279959 328.581858 
L 426.398753 328.560669 
L 429.941602 328.590334 
L 430.128068 327.151548 
L 430.314533 324.214645 
L 430.500999 323.335269 
L 430.687465 325.683097 
L 431.433328 327.738505 
L 431.806259 328.238584 
L 432.179191 328.384793 
L 432.738588 328.325462 
L 433.297985 327.944046 
L 433.670917 327.240545 
L 433.857382 326.359051 
L 434.043848 326.475594 
L 434.41678 325.683097 
L 434.603245 324.509183 
L 434.789711 324.214645 
L 435.162643 325.888637 
L 435.72204 327.035004 
L 436.654368 327.327423 
L 436.840834 327.06467 
L 437.0273 325.390678 
L 437.213766 321.27986 
L 437.400231 320.398366 
L 437.773163 322.748312 
L 438.146094 323.627688 
L 438.891957 323.627688 
L 439.264889 324.214645 
L 439.63782 325.09614 
L 440.570149 326.448048 
L 440.94308 326.681135 
L 441.316012 326.975673 
L 441.875409 327.151548 
L 442.061875 326.829464 
L 442.434806 315.406053 
L 442.807738 319.516871 
L 442.994203 316.582086 
L 443.180669 316.582086 
L 443.553601 320.692903 
L 444.112998 323.040731 
L 445.045327 325.801759 
L 445.231792 325.09614 
L 445.604724 320.398366 
L 445.977655 323.040731 
L 446.350587 324.509183 
L 446.723518 325.09614 
L 447.09645 325.09614 
L 447.282915 323.922226 
L 447.469381 321.27986 
L 447.655847 320.985322 
L 447.842313 307.773495 
L 448.028778 304.249634 
L 448.215244 306.597462 
L 448.40171 304.542053 
L 448.588175 308.065914 
L 448.774641 309.241947 
L 448.961107 305.718086 
L 449.147573 305.423548 
L 449.334038 306.892 
L 449.520504 307.186538 
L 450.079901 314.23214 
L 450.639299 317.756 
L 451.385162 321.866817 
L 451.758093 323.335269 
L 452.131024 324.214645 
L 452.31749 324.214645 
L 452.690422 325.09614 
L 453.249819 325.947969 
L 453.436285 325.801759 
L 453.809216 326.123844 
L 454.182148 326.594257 
L 454.368613 326.594257 
L 454.555079 326.946007 
L 454.741545 326.946007 
L 455.114476 327.592296 
L 455.673873 327.592296 
L 456.606202 328.179253 
L 456.792668 328.119921 
L 457.538531 328.367842 
L 458.097928 328.465315 
L 458.470859 328.405983 
L 461.08138 328.458958 
L 462.013708 328.497099 
L 474.320447 328.528884 
L 477.863296 328.518289 
L 479.355022 328.465315 
L 479.541488 328.355128 
L 480.660282 328.429292 
L 482.338474 328.414459 
L 484.016665 328.397507 
L 491.66176 328.384793 
L 493.712884 328.238584 
L 494.085815 328.092374 
L 494.458746 327.944046 
L 494.645212 327.768171 
L 495.018144 328.119921 
L 495.577541 328.26825 
L 496.696335 328.355128 
L 497.628664 327.944046 
L 498.001595 328.092374 
L 498.933924 327.738505 
L 499.12039 327.151548 
L 499.306856 325.683097 
L 499.493321 313.939721 
L 500.052719 321.27986 
L 500.42565 323.627688 
L 500.798581 324.803721 
L 500.985047 324.803721 
L 501.171513 325.09614 
L 501.544444 325.09614 
L 501.73091 324.803721 
L 501.917376 324.803721 
L 502.103842 323.040731 
L 502.290307 313.939721 
L 502.476773 311.002817 
L 502.849705 295.733462 
L 503.03617 300.138817 
L 503.222636 299.844279 
L 503.409102 302.486645 
L 503.595567 303.36814 
L 503.968499 311.002817 
L 504.154965 312.471269 
L 504.34143 306.597462 
L 504.527896 308.947409 
L 504.900828 314.819097 
L 505.273759 317.756 
L 505.833156 320.692903 
L 506.392554 322.453774 
L 506.951951 322.453774 
L 507.697814 323.627688 
L 508.257211 325.390678 
L 508.443677 325.390678 
L 508.630142 324.214645 
L 509.003074 317.756 
L 509.18954 318.050538 
L 509.376005 317.461462 
L 510.308334 321.866817 
L 510.4948 322.161355 
L 510.681265 321.866817 
L 511.054197 323.040731 
L 511.240663 323.040731 
L 511.613594 323.922226 
L 511.80006 324.214645 
L 512.172991 325.683097 
L 512.732389 326.859129 
L 512.918854 326.886676 
L 513.664717 322.748312 
L 513.851183 323.335269 
L 514.224114 326.270053 
L 514.41058 326.859129 
L 514.969977 327.297758 
L 515.156443 327.297758 
L 515.902306 327.857168 
L 516.461703 327.91438 
L 517.207566 328.092374 
L 517.953429 328.179253 
L 519.258689 328.325462 
L 519.445155 328.179253 
L 519.818086 328.384793 
L 520.563949 328.526765 
L 527.836113 328.611524 
L 528.581976 328.590334 
L 531.565428 328.588215 
L 531.751894 328.179253 
L 531.938359 328.149587 
L 532.124825 328.550074 
L 533.243619 328.590334 
L 536.786468 328.573382 
L 538.091729 328.550074 
L 543.312769 328.541598 
L 558.416494 328.603048 
L 567.366849 328.503456 
L 567.553315 328.325462 
L 567.739781 327.151548 
L 567.926246 322.748312 
L 568.112712 311.002817 
L 568.485643 319.811409 
L 568.672109 319.811409 
L 568.858575 284.577043 
L 569.045041 281.64014 
L 569.231506 225.851688 
L 569.417972 240.534086 
L 569.790904 291.622645 
L 569.977369 301.607269 
L 570.163835 304.836591 
L 570.536767 315.700591 
L 570.723232 316.874505 
L 570.909698 313.939721 
L 571.096164 308.947409 
L 571.28263 295.733462 
L 571.469095 293.972591 
L 571.842027 312.471269 
L 572.214958 316.874505 
L 572.774355 320.398366 
L 573.147287 322.453774 
L 573.520218 321.27986 
L 573.89315 315.995129 
L 574.079616 313.350645 
L 574.452547 306.597462 
L 574.825479 313.350645 
L 575.011944 311.884312 
L 575.384876 297.496452 
L 575.571341 298.964903 
L 576.130739 312.471269 
L 576.50367 317.169043 
L 577.063067 320.985322 
L 577.249533 321.866817 
L 577.435999 321.572279 
L 577.622465 317.169043 
L 577.80893 306.597462 
L 577.995396 303.955097 
L 578.181862 305.131129 
L 579.11419 319.516871 
L 579.860053 322.748312 
L 580.792382 325.831425 
L 580.978848 325.390678 
L 581.351779 325.390678 
L 581.538245 326.064513 
L 581.724711 326.270053 
L 582.097642 327.708839 
L 582.284108 327.651627 
L 582.470574 327.151548 
L 583.029971 320.692903 
L 583.216437 319.811409 
L 583.402902 319.811409 
L 583.775834 321.866817 
L 584.148765 323.627688 
L 584.521697 325.09614 
L 584.894628 325.683097 
L 585.640491 324.509183 
L 586.57282 327.151548 
L 586.945751 327.446086 
L 587.318683 327.886834 
L 587.691614 328.033043 
L 588.064546 328.149587 
L 588.437477 328.26825 
L 589.18334 328.355128 
L 590.861532 328.535241 
L 591.234463 328.446244 
L 592.539723 328.556431 
L 597.201367 328.435649 
L 597.574298 328.55855 
L 600.744216 328.567026 
L 601.86301 328.575501 
L 602.795339 328.579739 
L 602.981805 328.446244 
L 603.16827 328.511932 
L 603.541202 326.975673 
L 603.727668 319.224452 
L 603.914133 320.105947 
L 604.659996 326.564591 
L 605.032928 327.297758 
L 605.405859 327.386755 
L 605.965256 328.003377 
L 607.270517 328.344533 
L 607.829914 328.338176 
L 608.202845 328.179253 
L 608.389311 328.092374 
L 608.575777 327.151548 
L 609.135174 322.453774 
L 609.694571 323.335269 
L 610.253968 324.803721 
L 610.440434 325.09614 
L 610.813365 325.09614 
L 611.372763 325.888637 
L 611.559228 325.977634 
L 612.864489 327.651627 
L 613.610352 327.592296 
L 613.983283 327.886834 
L 614.169749 327.886834 
L 614.54268 328.179253 
L 616.966735 328.26825 
L 617.153201 328.355128 
L 617.526132 328.26825 
L 618.271995 328.355128 
L 619.204324 328.179253 
L 622.374241 328.26825 
L 623.120104 328.384793 
L 623.865967 328.208918 
L 624.425364 328.325462 
L 625.544159 328.414459 
L 626.662953 328.503456 
L 635.799774 328.473791 
L 635.98624 328.033043 
L 636.172706 319.811409 
L 636.359171 321.27986 
L 636.732103 325.683097 
L 637.105034 326.564591 
L 637.850897 327.738505 
L 638.037363 327.446086 
L 638.223829 326.859129 
L 638.783226 322.748312 
L 639.342623 318.342957 
L 639.529089 320.692903 
L 639.715555 320.692903 
L 640.088486 311.002817 
L 640.274952 313.939721 
L 640.461417 313.939721 
L 640.647883 313.645183 
L 640.834349 311.002817 
L 641.20728 313.350645 
L 641.580212 322.748312 
L 641.766678 322.161355 
L 641.953143 320.692903 
L 642.139609 309.828903 
L 642.326075 258.738226 
L 642.512541 265.491409 
L 642.885472 299.55186 
L 643.258403 309.828903 
L 643.817801 315.995129 
L 644.004266 316.287548 
L 644.377198 321.27986 
L 644.936595 307.186538 
L 645.123061 306.892 
L 645.309527 306.305043 
L 645.495992 307.186538 
L 646.05539 313.645183 
L 646.428321 316.582086 
L 646.614787 316.874505 
L 646.801252 315.995129 
L 646.987718 310.708279 
L 647.733581 317.169043 
L 648.66591 322.748312 
L 649.038841 324.214645 
L 649.598239 326.623923 
L 650.157636 327.708839 
L 650.344101 327.797837 
L 650.717033 327.475752 
L 650.903499 327.592296 
L 651.27643 328.26825 
L 651.649362 328.238584 
L 651.835827 325.390678 
L 652.022293 317.756 
L 652.208759 317.756 
L 652.58169 320.398366 
L 652.768156 288.68786 
L 652.954622 217.924591 
L 653.141087 224.677774 
L 653.327553 273.713043 
L 653.700485 301.312731 
L 654.259882 314.819097 
L 654.632813 318.929914 
L 655.005745 320.692903 
L 655.565142 322.161355 
L 655.938074 322.748312 
L 656.124539 322.453774 
L 656.870402 323.627688 
L 657.616265 326.886676 
L 657.989197 327.621961 
L 658.73506 328.340295 
L 659.294457 328.550074 
L 659.480922 328.003377 
L 659.667388 328.238584 
L 659.853854 328.179253 
L 660.04032 328.238584 
L 660.226785 327.181214 
L 660.413251 325.09614 
L 660.599717 324.509183 
L 661.34558 326.770132 
L 661.532046 327.06467 
L 661.718511 323.040731 
L 661.904977 323.627688 
L 662.091443 323.040731 
L 662.277909 323.922226 
L 662.464374 325.918303 
L 662.65084 325.09614 
L 663.210237 320.398366 
L 663.396703 321.27986 
L 663.9561 325.831425 
L 664.142566 326.270053 
L 664.515497 325.390678 
L 664.701963 325.09614 
L 664.888429 325.390678 
L 665.447826 327.121883 
L 667.126018 328.325462 
L 667.871881 328.545836 
L 668.431278 328.484385 
L 668.617744 328.353009 
L 668.804209 327.827502 
L 668.990675 327.886834 
L 669.363606 328.297915 
L 669.736538 328.325462 
L 669.923004 328.179253 
L 670.109469 328.238584 
L 670.295935 328.092374 
L 670.482401 327.768171 
L 670.668867 327.681293 
L 671.228264 327.886834 
L 671.41473 328.179253 
L 672.347058 328.389031 
L 673.092921 328.401745 
L 673.465853 328.431411 
L 673.465853 328.431411 
" clip-path="url(#p3f3d75d624)" style="fill: none; stroke: #1f77b4; stroke-width: 1.5; stroke-linecap: square"/>
   </g>
   <g id="line2d_19">
    <path d="M 60.739445 328.467434 
L 61.85824 328.380828 
L 62.044706 328.148143 
L 63.349966 328.135601 
L 63.909363 328.144513 
L 64.282294 328.080025 
L 68.571006 328.34284 
L 73.23265 328.457339 
L 76.589033 328.44301 
L 77.334896 328.398807 
L 77.707827 328.340923 
L 83.861197 328.403693 
L 85.166457 328.37435 
L 85.539388 328.290419 
L 87.21758 328.345239 
L 87.590511 327.659726 
L 87.776977 327.662721 
L 88.149909 327.055005 
L 88.336374 326.769984 
L 88.895771 326.906341 
L 90.201032 327.283503 
L 90.573963 326.590246 
L 91.13336 326.793684 
L 92.065689 327.07018 
L 92.43862 326.497883 
L 92.998018 326.731543 
L 93.370949 326.7885 
L 93.743881 326.811288 
L 95.235606 327.17891 
L 96.540867 327.357624 
L 96.727332 327.304741 
L 96.913798 327.399152 
L 97.28673 326.791239 
L 97.659661 326.94327 
L 98.032592 325.993294 
L 98.405524 324.83191 
L 98.778455 324.970791 
L 99.524318 325.418715 
L 99.89725 324.51499 
L 100.083716 324.63645 
L 100.456647 323.987331 
L 101.016044 324.367024 
L 101.575441 324.78682 
L 101.948373 324.69989 
L 102.134839 324.457658 
L 102.321304 323.948689 
L 102.50777 323.859718 
L 103.626565 324.512916 
L 104.185962 324.911912 
L 104.745359 324.706257 
L 105.304756 325.012075 
L 105.491222 325.005368 
L 105.677688 325.134586 
L 106.237085 324.9517 
L 106.423551 325.051609 
L 106.610016 324.81727 
L 106.982948 323.794787 
L 107.542345 324.193931 
L 108.288208 324.754661 
L 108.474674 324.525279 
L 108.847605 323.824416 
L 109.034071 323.759814 
L 109.9664 324.268153 
L 110.152865 324.461656 
L 110.525797 324.28387 
L 110.898728 323.491943 
L 111.831057 324.012803 
L 112.203988 321.606803 
L 112.390454 321.590628 
L 112.763386 319.288336 
L 112.949851 319.450611 
L 113.322783 320.03281 
L 113.509249 319.801722 
L 113.88218 316.129742 
L 114.441577 316.653143 
L 114.814509 312.676179 
L 115.000974 312.708276 
L 115.18744 312.856362 
L 116.4927 315.923798 
L 117.79796 318.53352 
L 118.170892 319.040867 
L 118.543823 318.661728 
L 118.916755 319.191036 
L 120.222015 321.142601 
L 120.408481 321.358623 
L 120.781412 321.394328 
L 122.273138 322.926153 
L 123.391933 323.901765 
L 124.137795 324.357169 
L 124.324261 324.379024 
L 124.510727 324.20279 
L 124.697193 324.181756 
L 125.629521 324.737253 
L 126.748316 325.4108 
L 127.121247 325.430714 
L 127.494179 324.170084 
L 127.86711 324.376173 
L 129.545302 325.487267 
L 129.918233 325.337702 
L 130.47763 325.622015 
L 131.037028 325.86043 
L 132.901685 326.633665 
L 133.461082 326.735954 
L 133.834014 326.526783 
L 134.020479 326.63102 
L 134.206945 326.505012 
L 134.393411 326.137432 
L 134.579877 325.396807 
L 134.952808 319.008717 
L 135.139274 319.055836 
L 135.512205 319.684621 
L 135.698671 319.497994 
L 136.071603 317.846037 
L 136.631 318.889723 
L 137.93626 320.841395 
L 139.24152 322.393684 
L 140.54678 323.627499 
L 142.038506 324.730582 
L 143.716698 325.670209 
L 145.581355 326.435376 
L 147.632478 327.032311 
L 150.056533 327.509243 
L 153.22645 327.892573 
L 157.515162 328.164333 
L 163.482066 328.361685 
L 163.668531 328.034825 
L 163.854997 324.208229 
L 164.227929 309.560433 
L 164.414394 304.863556 
L 164.787326 285.76332 
L 164.973792 281.823226 
L 165.160257 281.973318 
L 166.651983 292.119027 
L 167.024915 288.656607 
L 167.21138 288.774051 
L 168.703106 297.872255 
L 169.076038 299.738934 
L 169.262504 298.575172 
L 169.448969 295.351215 
L 169.635435 294.211147 
L 171.873024 305.158209 
L 172.245955 304.823112 
L 173.36475 308.53826 
L 174.110613 310.855396 
L 174.297078 310.755624 
L 174.483544 310.810578 
L 175.229407 312.683977 
L 175.602339 313.133869 
L 175.788804 312.778918 
L 176.161736 307.342993 
L 176.348201 307.689115 
L 176.534667 306.79077 
L 176.721133 304.849597 
L 176.907599 304.476107 
L 177.28053 305.45884 
L 177.466996 305.4056 
L 177.653462 305.761308 
L 179.518119 312.072484 
L 180.450448 314.400896 
L 181.569242 316.915454 
L 182.688036 318.973123 
L 183.247434 319.474058 
L 183.620365 316.0927 
L 183.806831 316.324393 
L 183.993297 316.206098 
L 184.179762 315.830696 
L 184.366228 315.942497 
L 184.552694 315.665614 
L 184.925625 309.928829 
L 185.112091 310.223778 
L 186.04442 312.966369 
L 187.163214 315.763389 
L 188.095543 317.739666 
L 188.65494 318.274012 
L 189.9602 320.426815 
L 191.078995 321.682967 
L 192.384255 323.134156 
L 193.689515 323.786781 
L 194.435378 317.212391 
L 194.621844 317.1625 
L 194.808309 317.474882 
L 195.181241 316.028861 
L 195.554172 316.564109 
L 197.045898 319.334495 
L 198.164693 321.007639 
L 198.351158 321.178866 
L 198.537624 320.763793 
L 198.910555 314.904563 
L 199.097021 315.064846 
L 199.656418 316.105885 
L 201.33461 319.149072 
L 201.707542 319.541302 
L 203.012802 321.403849 
L 204.318062 322.884686 
L 205.623322 324.061598 
L 206.742116 324.852623 
L 206.928582 324.91775 
L 207.301514 323.477666 
L 207.674445 323.840675 
L 208.979705 324.772628 
L 209.352637 324.721043 
L 211.030828 325.658921 
L 212.895486 326.424152 
L 214.760143 326.981234 
L 215.506006 327.126994 
L 215.878937 326.272776 
L 216.438335 326.527329 
L 218.675923 327.136153 
L 220.354115 327.455532 
L 221.099978 327.595879 
L 221.472909 327.349572 
L 222.218772 327.51954 
L 222.77817 327.447489 
L 223.337567 327.471345 
L 223.710498 327.448754 
L 225.761621 327.72247 
L 227.253347 327.797961 
L 227.626279 327.179567 
L 228.372142 327.349514 
L 230.050333 327.61421 
L 230.423265 326.451759 
L 231.355593 326.765424 
L 231.728525 326.892836 
L 231.914991 326.436329 
L 232.287922 324.698937 
L 232.474388 324.916541 
L 232.847319 324.59646 
L 233.406717 324.929614 
L 234.525511 325.625022 
L 235.084908 325.176998 
L 235.45784 325.342118 
L 235.644305 325.336529 
L 236.017237 322.290095 
L 236.203703 322.10037 
L 237.322497 323.177408 
L 237.508963 323.244248 
L 237.695428 322.408215 
L 238.06836 317.738152 
L 238.254826 317.96088 
L 238.441291 317.749626 
L 238.627757 317.367024 
L 239.37362 318.673079 
L 240.305949 320.2158 
L 240.492415 320.260582 
L 240.67888 320.180594 
L 241.98414 321.719011 
L 242.170606 321.75675 
L 242.543538 322.027899 
L 242.730003 321.994605 
L 243.475866 322.660018 
L 243.662332 322.652893 
L 244.408195 323.341724 
L 244.594661 323.368551 
L 244.781126 323.208414 
L 244.967592 323.208843 
L 245.526989 323.685996 
L 245.713455 323.68558 
L 245.899921 322.726718 
L 246.272852 313.939041 
L 246.459318 313.9633 
L 246.83225 313.440895 
L 248.13751 316.35792 
L 248.323975 316.464043 
L 249.629236 318.774296 
L 249.815701 318.587561 
L 250.002167 318.565631 
L 251.120961 320.167387 
L 251.307427 320.185887 
L 251.493893 319.972609 
L 251.866824 318.272461 
L 252.239756 318.641241 
L 252.612687 318.370455 
L 252.985619 317.524812 
L 253.35855 318.071112 
L 253.917947 318.964618 
L 254.290879 317.231406 
L 254.66381 317.69638 
L 254.850276 317.756179 
L 255.223208 318.285444 
L 255.596139 318.212433 
L 255.969071 316.184809 
L 257.087865 318.160035 
L 257.274331 317.996893 
L 257.647262 315.999265 
L 258.020194 316.626418 
L 258.952522 318.414907 
L 259.325454 317.42245 
L 259.698385 317.923513 
L 261.003645 320.086184 
L 261.376577 320.194277 
L 262.868303 322.009441 
L 264.360029 323.540729 
L 264.919426 323.308511 
L 265.292357 323.631998 
L 265.478823 323.41122 
L 265.851755 319.712348 
L 266.224686 319.471224 
L 266.784083 320.193413 
L 267.157015 320.68006 
L 267.529946 321.045427 
L 267.902878 321.461074 
L 268.275809 321.636518 
L 268.835206 322.207118 
L 269.954001 323.244119 
L 270.513398 323.534137 
L 271.818658 324.568138 
L 272.19159 324.396493 
L 272.564521 324.662616 
L 273.123918 324.962203 
L 275.547973 326.223904 
L 277.226164 326.824499 
L 279.836685 327.440351 
L 282.820137 327.834466 
L 283.379534 327.926374 
L 283.752465 327.491159 
L 285.430657 327.727546 
L 289.159972 328.046817 
L 294.567478 328.266424 
L 295.499807 328.308547 
L 295.686272 327.577346 
L 296.059204 324.721965 
L 296.432135 325.029709 
L 297.923861 325.83918 
L 299.415587 326.475797 
L 301.093779 326.992191 
L 301.653176 327.178706 
L 301.839642 326.967568 
L 302.212573 325.80901 
L 302.585504 325.215108 
L 302.958436 325.331669 
L 304.07723 325.955433 
L 304.263696 325.862222 
L 304.450162 325.639532 
L 304.823093 325.756337 
L 305.009559 325.871607 
L 305.196025 325.562819 
L 305.568956 324.145064 
L 305.755422 324.260062 
L 305.941888 323.851712 
L 306.314819 320.555047 
L 306.501285 320.595661 
L 306.874216 320.943458 
L 307.247148 319.465472 
L 307.620079 319.962088 
L 308.365942 320.976097 
L 309.111805 321.451163 
L 310.417065 322.850031 
L 310.603531 322.802097 
L 310.789997 322.62641 
L 310.976463 322.806015 
L 311.162928 322.530383 
L 311.53586 321.074569 
L 311.908791 321.245072 
L 312.281723 319.533951 
L 312.654654 320.004003 
L 313.959914 321.74893 
L 314.14638 321.073085 
L 314.892243 308.443712 
L 315.078709 308.587228 
L 316.197503 312.117519 
L 316.383969 312.590988 
L 316.7569 311.435466 
L 318.248626 314.857598 
L 318.435092 314.888317 
L 318.621558 314.745351 
L 319.367421 316.295133 
L 319.740352 315.451192 
L 320.486215 316.989631 
L 321.60501 319.047902 
L 322.537338 320.47645 
L 323.096735 321.139902 
L 323.283201 320.494446 
L 323.469667 319.332533 
L 323.656133 319.130103 
L 325.893721 322.168053 
L 326.639584 322.933114 
L 327.012516 323.136135 
L 328.504242 324.399195 
L 329.063639 324.829921 
L 329.43657 324.354771 
L 329.809502 324.531106 
L 329.995968 324.513635 
L 330.368899 324.743904 
L 330.555365 324.605274 
L 330.928296 321.502407 
L 331.301228 321.689703 
L 331.487694 321.640909 
L 332.606488 322.748043 
L 332.979419 322.978652 
L 334.471145 324.287043 
L 334.844077 324.558283 
L 335.217008 323.529691 
L 335.58994 323.781403 
L 337.081666 324.897728 
L 338.013994 325.491842 
L 338.386926 325.401712 
L 339.319254 325.870505 
L 340.624515 326.337944 
L 340.997446 325.326664 
L 343.607966 326.490329 
L 345.659089 327.072084 
L 348.26961 327.563919 
L 349.201938 327.726893 
L 349.761336 327.481263 
L 354.982376 328.031057 
L 359.830485 328.23541 
L 360.762814 328.232701 
L 360.94928 327.995083 
L 361.322211 327.170246 
L 361.508677 327.000026 
L 362.068074 327.071523 
L 363.000403 327.182865 
L 363.373334 326.715063 
L 364.119197 326.888002 
L 364.492129 327.002834 
L 364.678594 326.626252 
L 364.86506 325.994372 
L 365.051526 325.912474 
L 366.17032 326.441666 
L 366.356786 326.201218 
L 366.543252 325.723022 
L 366.729718 325.641685 
L 369.526704 326.791928 
L 370.272567 327.052042 
L 370.459032 326.874836 
L 370.645498 326.39805 
L 371.204895 322.789648 
L 371.950758 323.368156 
L 373.442484 324.544128 
L 374.374813 324.998765 
L 374.561278 325.103292 
L 374.747744 324.796121 
L 375.120676 320.964864 
L 375.307141 321.052953 
L 375.493607 321.302231 
L 375.680073 321.180105 
L 375.866539 320.699008 
L 376.053004 320.546055 
L 376.985333 321.57692 
L 377.171799 320.951831 
L 377.358264 319.901396 
L 377.54473 319.766141 
L 377.917662 320.059485 
L 378.104127 319.55907 
L 378.477059 313.332486 
L 378.663525 312.761713 
L 378.84999 312.870717 
L 379.782319 315.237846 
L 379.968785 315.223149 
L 380.155251 314.463541 
L 380.528182 313.821977 
L 380.714648 313.40656 
L 380.901113 313.726664 
L 381.087579 313.799119 
L 381.274045 313.740481 
L 381.460511 313.934223 
L 382.019908 315.191841 
L 382.952237 317.182334 
L 383.325168 317.8981 
L 383.511634 317.852056 
L 383.698099 317.65014 
L 384.443962 318.871773 
L 384.816894 319.39987 
L 385.00336 318.128218 
L 385.376291 305.736347 
L 385.562757 305.519461 
L 386.30862 308.186285 
L 386.681551 309.238494 
L 387.800346 312.696392 
L 389.105606 315.970426 
L 389.478537 316.554975 
L 389.851469 315.422778 
L 390.597332 316.69891 
L 391.343195 318.048057 
L 391.716126 318.59927 
L 392.834921 320.337562 
L 393.953715 321.597441 
L 394.140181 321.379028 
L 394.326646 321.407677 
L 395.258975 322.307259 
L 395.445441 322.402572 
L 395.818372 322.139198 
L 396.191304 322.432063 
L 396.37777 320.00596 
L 396.750701 311.601922 
L 396.937167 311.972262 
L 397.123632 312.010663 
L 397.310098 311.881254 
L 398.242427 314.262026 
L 398.428893 313.888334 
L 398.98829 311.781805 
L 399.174756 312.2065 
L 399.547687 311.366042 
L 399.734153 309.690255 
L 400.107084 302.391521 
L 400.29355 302.834158 
L 401.039413 305.940264 
L 401.225879 306.221765 
L 401.59881 302.483853 
L 402.158207 304.740707 
L 403.277002 309.008438 
L 404.20933 311.819537 
L 404.955193 313.725206 
L 405.141659 314.17545 
L 405.328125 314.096985 
L 405.701056 310.32513 
L 406.260453 311.664895 
L 406.633385 309.591233 
L 407.006316 309.774255 
L 409.243905 315.816366 
L 410.3627 318.142601 
L 410.735631 318.429829 
L 411.295028 319.297682 
L 412.413823 320.948117 
L 413.532617 322.212202 
L 414.837877 323.484852 
L 416.329603 324.601953 
L 418.007795 325.613764 
L 418.753658 325.855127 
L 420.618315 326.570233 
L 422.855904 327.168062 
L 424.534096 327.518364 
L 424.720561 327.286589 
L 425.093493 326.371888 
L 425.65289 326.608237 
L 426.771684 326.850311 
L 430.128068 327.393514 
L 430.314533 327.162277 
L 432.738588 327.619202 
L 437.0273 328.030283 
L 437.586697 325.895791 
L 437.959629 325.997275 
L 439.824286 326.724433 
L 440.94308 326.979506 
L 441.502478 327.089994 
L 441.875409 327.217417 
L 442.061875 327.090253 
L 442.24834 326.130668 
L 442.621272 322.787417 
L 442.807738 322.862366 
L 443.367135 321.790831 
L 444.672395 322.670026 
L 444.858861 322.694826 
L 445.045327 322.869044 
L 445.231792 322.607209 
L 445.604724 319.037806 
L 445.791189 319.134409 
L 446.723518 320.528173 
L 447.09645 320.959292 
L 447.282915 320.958873 
L 447.842313 317.906788 
L 448.215244 312.497329 
L 448.588175 310.945839 
L 448.774641 310.767053 
L 449.147573 307.480177 
L 449.334038 307.663642 
L 450.825764 312.462963 
L 451.758093 314.83557 
L 452.131024 313.834518 
L 452.690422 314.66628 
L 452.876887 314.6757 
L 453.436285 315.916439 
L 453.809216 315.120982 
L 454.555079 316.701125 
L 455.673873 318.829974 
L 456.046805 318.215701 
L 456.606202 318.964425 
L 456.979134 318.333344 
L 457.724997 319.527839 
L 458.284394 320.322777 
L 458.657325 318.857531 
L 459.030257 319.337274 
L 459.77612 320.362056 
L 460.149051 319.0751 
L 460.521983 319.582218 
L 460.894914 320.126526 
L 461.08138 320.127894 
L 461.267846 319.207465 
L 461.454311 317.723479 
L 461.640777 317.256563 
L 462.573106 318.783349 
L 462.946037 316.785399 
L 463.318969 317.415184 
L 464.437763 319.364649 
L 464.810694 319.860823 
L 465.743023 320.790021 
L 465.929489 319.502145 
L 466.30242 315.904081 
L 466.861818 317.008821 
L 467.234749 317.579275 
L 467.607681 318.105402 
L 468.167078 319.083137 
L 468.540009 319.114798 
L 469.845269 320.997534 
L 470.031735 320.652416 
L 470.404667 317.21014 
L 470.777598 317.796044 
L 471.523461 319.082855 
L 471.896392 319.542285 
L 473.201653 321.401367 
L 473.76105 321.991825 
L 475.625707 323.835094 
L 477.117433 324.963305 
L 477.303899 325.030622 
L 477.67683 324.814755 
L 478.609159 325.206671 
L 478.795625 325.111296 
L 479.541488 325.560782 
L 481.033213 326.234265 
L 483.084337 326.892093 
L 485.508391 327.417598 
L 488.491843 327.821165 
L 492.407623 328.112227 
L 498.188061 328.299606 
L 502.290307 328.390431 
L 502.476773 328.065082 
L 502.663239 326.451048 
L 503.222636 302.218564 
L 504.154965 305.952197 
L 504.34143 306.23923 
L 504.527896 306.144332 
L 504.714362 306.553604 
L 506.019622 311.0179 
L 506.765485 313.136412 
L 507.324882 314.088917 
L 507.697814 314.940485 
L 508.070745 315.595751 
L 508.443677 316.399031 
L 508.630142 315.573807 
L 509.003074 310.868584 
L 509.18954 310.825213 
L 510.681265 314.766138 
L 511.054197 314.981386 
L 513.10532 318.482632 
L 513.664717 317.174988 
L 515.342909 320.018537 
L 515.71584 320.495427 
L 515.902306 320.589846 
L 516.461703 321.30827 
L 517.0211 321.268118 
L 517.207566 320.632691 
L 517.394032 320.403259 
L 517.766963 319.524863 
L 518.885758 320.64933 
L 519.258689 318.846117 
L 519.445155 318.922305 
L 520.750415 320.877543 
L 521.309812 321.524042 
L 521.682744 321.934128 
L 522.055675 322.261632 
L 523.547401 323.754156 
L 524.106798 323.893007 
L 524.293264 323.884287 
L 526.717319 325.524828 
L 527.463182 325.708053 
L 527.836113 325.85526 
L 528.022579 325.626111 
L 528.209045 324.254219 
L 528.581976 317.313363 
L 528.768442 317.432248 
L 529.141373 318.129878 
L 529.514305 318.597466 
L 530.073702 319.265824 
L 530.260168 319.273011 
L 531.565428 320.830373 
L 531.751894 320.181898 
L 532.311291 301.976863 
L 533.057154 305.092208 
L 534.175948 309.290282 
L 534.921811 311.551503 
L 535.667674 312.896158 
L 536.227071 303.073547 
L 539.024057 312.698538 
L 539.583454 314.033714 
L 539.956386 314.900739 
L 540.329317 314.741109 
L 541.07518 316.481414 
L 542.380441 318.972567 
L 543.685701 320.952279 
L 544.990961 322.525653 
L 546.296221 323.717627 
L 546.855618 324.194689 
L 547.22855 324.115835 
L 547.974413 324.688656 
L 549.279673 325.460196 
L 550.957864 326.211014 
L 552.822522 326.87637 
L 553.75485 327.068253 
L 554.127782 327.059793 
L 556.924768 327.582148 
L 560.281151 327.950407 
L 564.196932 328.184279 
L 567.739781 328.236074 
L 568.299178 325.207093 
L 568.858575 325.344625 
L 569.231506 324.945285 
L 569.977369 318.543124 
L 570.163835 318.545458 
L 570.723232 319.161664 
L 570.909698 318.346793 
L 571.28263 314.280344 
L 571.469095 311.750323 
L 571.655561 310.760311 
L 572.028492 311.695906 
L 573.333753 315.133195 
L 573.706684 315.649352 
L 574.266081 307.474106 
L 574.825479 309.494022 
L 575.011944 309.975908 
L 575.19841 308.295532 
L 575.384876 305.09541 
L 575.571341 304.083639 
L 576.130739 306.213195 
L 577.249533 310.185381 
L 577.435999 310.714946 
L 577.622465 308.984329 
L 577.995396 302.549787 
L 578.181862 302.849903 
L 579.673588 308.73531 
L 580.792382 312.194486 
L 580.978848 312.288362 
L 581.351779 310.571821 
L 582.284108 312.963904 
L 582.470574 312.845711 
L 582.657039 313.047603 
L 583.216437 310.842803 
L 584.335231 313.925077 
L 584.521697 314.156198 
L 584.708163 314.206542 
L 584.894628 314.631218 
L 585.081094 314.266783 
L 585.26756 313.603008 
L 585.640491 314.178137 
L 587.318683 317.604473 
L 588.437477 319.6084 
L 588.623943 319.657219 
L 588.810409 319.381063 
L 588.996874 319.402284 
L 590.115669 320.925231 
L 590.302135 320.968764 
L 590.861532 321.610106 
L 591.047998 321.643647 
L 591.420929 318.615486 
L 591.607395 318.774643 
L 592.166792 319.741902 
L 592.726189 320.019106 
L 593.844984 321.533485 
L 594.777312 322.552102 
L 596.082572 323.233981 
L 596.269038 323.162242 
L 597.014901 323.756565 
L 597.201367 323.658644 
L 597.574298 319.878541 
L 597.760764 319.866737 
L 600.744216 323.195354 
L 600.930682 323.172444 
L 601.490079 322.130898 
L 601.86301 322.461372 
L 602.795339 323.311293 
L 602.981805 323.123214 
L 603.16827 321.250256 
L 603.354736 314.317964 
L 603.727668 283.842686 
L 603.914133 284.473678 
L 604.659996 289.735184 
L 605.405859 294.110383 
L 605.592325 294.676572 
L 606.711119 300.485993 
L 608.016379 305.759425 
L 608.389311 305.367261 
L 608.575777 305.727827 
L 608.762242 305.769487 
L 608.948708 305.609916 
L 609.881037 308.54602 
L 610.999831 312.130933 
L 612.118626 315.077595 
L 613.23742 317.428936 
L 614.356214 319.404745 
L 616.220872 321.930869 
L 617.526132 323.283077 
L 619.017858 324.465828 
L 620.509584 325.376461 
L 622.187775 326.151033 
L 624.238898 326.834356 
L 626.662953 327.392094 
L 630.019336 327.872363 
L 632.629857 328.071743 
L 635.799774 328.214988 
L 635.98624 327.382222 
L 636.359171 324.973093 
L 636.732103 325.117645 
L 637.105034 325.244474 
L 637.477966 324.968805 
L 637.850897 325.128266 
L 638.969692 325.736578 
L 639.156157 325.712523 
L 639.529089 325.060637 
L 639.715555 325.077255 
L 639.90202 324.698339 
L 640.274952 320.404442 
L 640.647883 320.960004 
L 640.834349 321.228742 
L 641.580212 321.267015 
L 641.953143 321.717984 
L 642.139609 321.866027 
L 642.512541 320.472116 
L 643.071938 321.292687 
L 644.004266 322.355302 
L 644.377198 321.440584 
L 644.563664 321.648646 
L 644.750129 321.535217 
L 645.123061 318.378097 
L 645.309527 318.840829 
L 645.682458 319.011182 
L 646.428321 320.124943 
L 646.801252 320.075059 
L 647.174184 318.133547 
L 647.547115 318.662915 
L 649.411773 321.323121 
L 650.344101 322.409268 
L 650.530567 322.39138 
L 650.717033 322.171384 
L 650.903499 322.236679 
L 651.462896 322.72238 
L 651.649362 322.738827 
L 651.835827 321.935281 
L 652.208759 316.083161 
L 652.395225 315.754381 
L 652.58169 315.864239 
L 652.768156 313.849756 
L 653.141087 297.477136 
L 653.327553 297.733288 
L 654.819279 304.822705 
L 655.751608 308.229055 
L 656.124539 309.223209 
L 656.311005 309.306091 
L 656.497471 309.571723 
L 658.175662 314.416884 
L 659.107991 316.503405 
L 659.480922 317.224268 
L 660.226785 315.40558 
L 660.786183 316.389243 
L 660.972648 316.795332 
L 661.532046 315.981936 
L 661.904977 315.938335 
L 662.091443 315.69317 
L 662.464374 312.836292 
L 662.65084 313.149185 
L 663.023771 311.821103 
L 663.583169 313.283893 
L 664.142566 314.576559 
L 664.329032 314.566201 
L 664.701963 312.61948 
L 665.074895 313.442584 
L 666.380155 316.554801 
L 667.498949 318.635648 
L 668.058346 319.557708 
L 668.244812 319.046008 
L 668.617744 313.550953 
L 668.804209 313.814253 
L 669.363606 315.016185 
L 670.109469 316.200407 
L 670.295935 316.103218 
L 670.482401 316.252424 
L 670.668867 316.062244 
L 670.855332 316.082551 
L 672.160593 318.569908 
L 672.533524 318.221694 
L 672.906455 318.746057 
L 673.465853 319.649659 
L 673.465853 319.649659 
" clip-path="url(#p3f3d75d624)" style="fill: none; stroke: #ff7f0e; stroke-width: 1.5; stroke-linecap: square"/>
   </g>
   <g id="patch_3">
    <path d="M 30.103125 342.2 
L 30.103125 43.44 
" style="fill: none; stroke: #000000; stroke-width: 0.8; stroke-linejoin: miter; stroke-linecap: square"/>
   </g>
   <g id="patch_4">
    <path d="M 704.102173 342.2 
L 704.102173 43.44 
" style="fill: none; stroke: #000000; stroke-width: 0.8; stroke-linejoin: miter; stroke-linecap: square"/>
   </g>
   <g id="patch_5">
    <path d="M 30.103125 342.2 
L 704.102173 342.2 
" style="fill: none; stroke: #000000; stroke-width: 0.8; stroke-linejoin: miter; stroke-linecap: square"/>
   </g>
   <g id="patch_6">
    <path d="M 30.103125 43.44 
L 704.102173 43.44 
" style="fill: none; stroke: #000000; stroke-width: 0.8; stroke-linejoin: miter; stroke-linecap: square"/>
   </g>
   <g id="text_18">
    <!-- 1 transformation(s) -->
    <g transform="translate(308.987962 37.44) scale(0.12 -0.12)">
     <defs>
      <path id="DejaVuSans-20" transform="scale(0.015625)"/>
      <path id="DejaVuSans-74" d="M 1172 4494 
L 1172 3500 
L 2356 3500 
L 2356 3053 
L 1172 3053 
L 1172 1153 
Q 1172 725 1289 603 
Q 1406 481 1766 481 
L 2356 481 
L 2356 0 
L 1766 0 
Q 1100 0 847 248 
Q 594 497 594 1153 
L 594 3053 
L 172 3053 
L 172 3500 
L 594 3500 
L 594 4494 
L 1172 4494 
z
" transform="scale(0.015625)"/>
      <path id="DejaVuSans-72" d="M 2631 2963 
Q 2534 3019 2420 3045 
Q 2306 3072 2169 3072 
Q 1681 3072 1420 2755 
Q 1159 2438 1159 1844 
L 1159 0 
L 581 0 
L 581 3500 
L 1159 3500 
L 1159 2956 
Q 1341 3275 1631 3429 
Q 1922 3584 2338 3584 
Q 2397 3584 2469 3576 
Q 2541 3569 2628 3553 
L 2631 2963 
z
" transform="scale(0.015625)"/>
      <path id="DejaVuSans-61" d="M 2194 1759 
Q 1497 1759 1228 1600 
Q 959 1441 959 1056 
Q 959 750 1161 570 
Q 1363 391 1709 391 
Q 2188 391 2477 730 
Q 2766 1069 2766 1631 
L 2766 1759 
L 2194 1759 
z
M 3341 1997 
L 3341 0 
L 2766 0 
L 2766 531 
Q 2569 213 2275 61 
Q 1981 -91 1556 -91 
Q 1019 -91 701 211 
Q 384 513 384 1019 
Q 384 1609 779 1909 
Q 1175 2209 1959 2209 
L 2766 2209 
L 2766 2266 
Q 2766 2663 2505 2880 
Q 2244 3097 1772 3097 
Q 1472 3097 1187 3025 
Q 903 2953 641 2809 
L 641 3341 
Q 956 3463 1253 3523 
Q 1550 3584 1831 3584 
Q 2591 3584 2966 3190 
Q 3341 2797 3341 1997 
z
" transform="scale(0.015625)"/>
      <path id="DejaVuSans-6e" d="M 3513 2113 
L 3513 0 
L 2938 0 
L 2938 2094 
Q 2938 2591 2744 2837 
Q 2550 3084 2163 3084 
Q 1697 3084 1428 2787 
Q 1159 2491 1159 1978 
L 1159 0 
L 581 0 
L 581 3500 
L 1159 3500 
L 1159 2956 
Q 1366 3272 1645 3428 
Q 1925 3584 2291 3584 
Q 2894 3584 3203 3211 
Q 3513 2838 3513 2113 
z
" transform="scale(0.015625)"/>
      <path id="DejaVuSans-73" d="M 2834 3397 
L 2834 2853 
Q 2591 2978 2328 3040 
Q 2066 3103 1784 3103 
Q 1356 3103 1142 2972 
Q 928 2841 928 2578 
Q 928 2378 1081 2264 
Q 1234 2150 1697 2047 
L 1894 2003 
Q 2506 1872 2764 1633 
Q 3022 1394 3022 966 
Q 3022 478 2636 193 
Q 2250 -91 1575 -91 
Q 1294 -91 989 -36 
Q 684 19 347 128 
L 347 722 
Q 666 556 975 473 
Q 1284 391 1588 391 
Q 1994 391 2212 530 
Q 2431 669 2431 922 
Q 2431 1156 2273 1281 
Q 2116 1406 1581 1522 
L 1381 1569 
Q 847 1681 609 1914 
Q 372 2147 372 2553 
Q 372 3047 722 3315 
Q 1072 3584 1716 3584 
Q 2034 3584 2315 3537 
Q 2597 3491 2834 3397 
z
" transform="scale(0.015625)"/>
      <path id="DejaVuSans-66" d="M 2375 4863 
L 2375 4384 
L 1825 4384 
Q 1516 4384 1395 4259 
Q 1275 4134 1275 3809 
L 1275 3500 
L 2222 3500 
L 2222 3053 
L 1275 3053 
L 1275 0 
L 697 0 
L 697 3053 
L 147 3053 
L 147 3500 
L 697 3500 
L 697 3744 
Q 697 4328 969 4595 
Q 1241 4863 1831 4863 
L 2375 4863 
z
" transform="scale(0.015625)"/>
      <path id="DejaVuSans-6f" d="M 1959 3097 
Q 1497 3097 1228 2736 
Q 959 2375 959 1747 
Q 959 1119 1226 758 
Q 1494 397 1959 397 
Q 2419 397 2687 759 
Q 2956 1122 2956 1747 
Q 2956 2369 2687 2733 
Q 2419 3097 1959 3097 
z
M 1959 3584 
Q 2709 3584 3137 3096 
Q 3566 2609 3566 1747 
Q 3566 888 3137 398 
Q 2709 -91 1959 -91 
Q 1206 -91 779 398 
Q 353 888 353 1747 
Q 353 2609 779 3096 
Q 1206 3584 1959 3584 
z
" transform="scale(0.015625)"/>
      <path id="DejaVuSans-6d" d="M 3328 2828 
Q 3544 3216 3844 3400 
Q 4144 3584 4550 3584 
Q 5097 3584 5394 3201 
Q 5691 2819 5691 2113 
L 5691 0 
L 5113 0 
L 5113 2094 
Q 5113 2597 4934 2840 
Q 4756 3084 4391 3084 
Q 3944 3084 3684 2787 
Q 3425 2491 3425 1978 
L 3425 0 
L 2847 0 
L 2847 2094 
Q 2847 2600 2669 2842 
Q 2491 3084 2119 3084 
Q 1678 3084 1418 2786 
Q 1159 2488 1159 1978 
L 1159 0 
L 581 0 
L 581 3500 
L 1159 3500 
L 1159 2956 
Q 1356 3278 1631 3431 
Q 1906 3584 2284 3584 
Q 2666 3584 2933 3390 
Q 3200 3197 3328 2828 
z
" transform="scale(0.015625)"/>
      <path id="DejaVuSans-69" d="M 603 3500 
L 1178 3500 
L 1178 0 
L 603 0 
L 603 3500 
z
M 603 4863 
L 1178 4863 
L 1178 4134 
L 603 4134 
L 603 4863 
z
" transform="scale(0.015625)"/>
      <path id="DejaVuSans-28" d="M 1984 4856 
Q 1566 4138 1362 3434 
Q 1159 2731 1159 2009 
Q 1159 1288 1364 580 
Q 1569 -128 1984 -844 
L 1484 -844 
Q 1016 -109 783 600 
Q 550 1309 550 2009 
Q 550 2706 781 3412 
Q 1013 4119 1484 4856 
L 1984 4856 
z
" transform="scale(0.015625)"/>
      <path id="DejaVuSans-29" d="M 513 4856 
L 1013 4856 
Q 1481 4119 1714 3412 
Q 1947 2706 1947 2009 
Q 1947 1309 1714 600 
Q 1481 -109 1013 -844 
L 513 -844 
Q 928 -128 1133 580 
Q 1338 1288 1338 2009 
Q 1338 2731 1133 3434 
Q 928 4138 513 4856 
z
" transform="scale(0.015625)"/>
     </defs>
     <use xlink:href="#DejaVuSans-31"/>
     <use xlink:href="#DejaVuSans-20" x="63.623047"/>
     <use xlink:href="#DejaVuSans-74" x="95.410156"/>
     <use xlink:href="#DejaVuSans-72" x="134.619141"/>
     <use xlink:href="#DejaVuSans-61" x="175.732422"/>
     <use xlink:href="#DejaVuSans-6e" x="237.011719"/>
     <use xlink:href="#DejaVuSans-73" x="300.390625"/>
     <use xlink:href="#DejaVuSans-66" x="352.490234"/>
     <use xlink:href="#DejaVuSans-6f" x="387.695312"/>
     <use xlink:href="#DejaVuSans-72" x="448.876953"/>
     <use xlink:href="#DejaVuSans-6d" x="488.240234"/>
     <use xlink:href="#DejaVuSans-61" x="585.652344"/>
     <use xlink:href="#DejaVuSans-74" x="646.931641"/>
     <use xlink:href="#DejaVuSans-69" x="686.140625"/>
     <use xlink:href="#DejaVuSans-6f" x="713.923828"/>
     <use xlink:href="#DejaVuSans-6e" x="775.105469"/>
     <use xlink:href="#DejaVuSans-28" x="838.484375"/>
     <use xlink:href="#DejaVuSans-73" x="877.498047"/>
     <use xlink:href="#DejaVuSans-29" x="929.597656"/>
    </g>
   </g>
   <g id="legend_1">
    <g id="patch_7">
     <path d="M 615.708423 80.79625 
L 697.102173 80.79625 
Q 699.102173 80.79625 699.102173 78.79625 
L 699.102173 50.44 
Q 699.102173 48.44 697.102173 48.44 
L 615.708423 48.44 
Q 613.708423 48.44 613.708423 50.44 
L 613.708423 78.79625 
Q 613.708423 80.79625 615.708423 80.79625 
z
" style="fill: #ffffff; opacity: 0.8; stroke: #cccccc; stroke-linejoin: miter"/>
    </g>
    <g id="line2d_20">
     <path d="M 617.708423 56.538437 
L 627.708423 56.538437 
L 637.708423 56.538437 
" style="fill: none; stroke: #1f77b4; stroke-width: 1.5; stroke-linecap: square"/>
    </g>
    <g id="text_19">
     <!-- observed -->
     <g transform="translate(645.708423 60.038437) scale(0.1 -0.1)">
      <defs>
       <path id="DejaVuSans-62" d="M 3116 1747 
Q 3116 2381 2855 2742 
Q 2594 3103 2138 3103 
Q 1681 3103 1420 2742 
Q 1159 2381 1159 1747 
Q 1159 1113 1420 752 
Q 1681 391 2138 391 
Q 2594 391 2855 752 
Q 3116 1113 3116 1747 
z
M 1159 2969 
Q 1341 3281 1617 3432 
Q 1894 3584 2278 3584 
Q 2916 3584 3314 3078 
Q 3713 2572 3713 1747 
Q 3713 922 3314 415 
Q 2916 -91 2278 -91 
Q 1894 -91 1617 61 
Q 1341 213 1159 525 
L 1159 0 
L 581 0 
L 581 4863 
L 1159 4863 
L 1159 2969 
z
" transform="scale(0.015625)"/>
       <path id="DejaVuSans-65" d="M 3597 1894 
L 3597 1613 
L 953 1613 
Q 991 1019 1311 708 
Q 1631 397 2203 397 
Q 2534 397 2845 478 
Q 3156 559 3463 722 
L 3463 178 
Q 3153 47 2828 -22 
Q 2503 -91 2169 -91 
Q 1331 -91 842 396 
Q 353 884 353 1716 
Q 353 2575 817 3079 
Q 1281 3584 2069 3584 
Q 2775 3584 3186 3129 
Q 3597 2675 3597 1894 
z
M 3022 2063 
Q 3016 2534 2758 2815 
Q 2500 3097 2075 3097 
Q 1594 3097 1305 2825 
Q 1016 2553 972 2059 
L 3022 2063 
z
" transform="scale(0.015625)"/>
       <path id="DejaVuSans-76" d="M 191 3500 
L 800 3500 
L 1894 563 
L 2988 3500 
L 3597 3500 
L 2284 0 
L 1503 0 
L 191 3500 
z
" transform="scale(0.015625)"/>
       <path id="DejaVuSans-64" d="M 2906 2969 
L 2906 4863 
L 3481 4863 
L 3481 0 
L 2906 0 
L 2906 525 
Q 2725 213 2448 61 
Q 2172 -91 1784 -91 
Q 1150 -91 751 415 
Q 353 922 353 1747 
Q 353 2572 751 3078 
Q 1150 3584 1784 3584 
Q 2172 3584 2448 3432 
Q 2725 3281 2906 2969 
z
M 947 1747 
Q 947 1113 1208 752 
Q 1469 391 1925 391 
Q 2381 391 2643 752 
Q 2906 1113 2906 1747 
Q 2906 2381 2643 2742 
Q 2381 3103 1925 3103 
Q 1469 3103 1208 2742 
Q 947 2381 947 1747 
z
" transform="scale(0.015625)"/>
      </defs>
      <use xlink:href="#DejaVuSans-6f"/>
      <use xlink:href="#DejaVuSans-62" x="61.181641"/>
      <use xlink:href="#DejaVuSans-73" x="124.658203"/>
      <use xlink:href="#DejaVuSans-65" x="176.757812"/>
      <use xlink:href="#DejaVuSans-72" x="238.28125"/>
      <use xlink:href="#DejaVuSans-76" x="279.394531"/>
      <use xlink:href="#DejaVuSans-65" x="338.574219"/>
      <use xlink:href="#DejaVuSans-64" x="400.097656"/>
     </g>
    </g>
    <g id="line2d_21">
     <path d="M 617.708423 71.216563 
L 627.708423 71.216563 
L 637.708423 71.216563 
" style="fill: none; stroke: #ff7f0e; stroke-width: 1.5; stroke-linecap: square"/>
    </g>
    <g id="text_20">
     <!-- simulated -->
     <g transform="translate(645.708423 74.716563) scale(0.1 -0.1)">
      <defs>
       <path id="DejaVuSans-75" d="M 544 1381 
L 544 3500 
L 1119 3500 
L 1119 1403 
Q 1119 906 1312 657 
Q 1506 409 1894 409 
Q 2359 409 2629 706 
Q 2900 1003 2900 1516 
L 2900 3500 
L 3475 3500 
L 3475 0 
L 2900 0 
L 2900 538 
Q 2691 219 2414 64 
Q 2138 -91 1772 -91 
Q 1169 -91 856 284 
Q 544 659 544 1381 
z
M 1991 3584 
L 1991 3584 
z
" transform="scale(0.015625)"/>
       <path id="DejaVuSans-6c" d="M 603 4863 
L 1178 4863 
L 1178 0 
L 603 0 
L 603 4863 
z
" transform="scale(0.015625)"/>
      </defs>
      <use xlink:href="#DejaVuSans-73"/>
      <use xlink:href="#DejaVuSans-69" x="52.099609"/>
      <use xlink:href="#DejaVuSans-6d" x="79.882812"/>
      <use xlink:href="#DejaVuSans-75" x="177.294922"/>
      <use xlink:href="#DejaVuSans-6c" x="240.673828"/>
      <use xlink:href="#DejaVuSans-61" x="268.457031"/>
      <use xlink:href="#DejaVuSans-74" x="329.736328"/>
      <use xlink:href="#DejaVuSans-65" x="368.945312"/>
      <use xlink:href="#DejaVuSans-64" x="430.46875"/>
     </g>
    </g>
   </g>
  </g>
  <g id="axes_2">
   <g id="patch_8">
    <path d="M 30.103125 684.92 
L 704.102173 684.92 
L 704.102173 386.16 
L 30.103125 386.16 
z
" style="fill: #ffffff"/>
   </g>
   <g id="matplotlib.axis_3">
    <g id="xtick_11">
     <g id="line2d_22">
      <g>
       <use xlink:href="#m635a1e7a57" x="77.614594" y="684.92" style="stroke: #000000; stroke-width: 0.8"/>
      </g>
     </g>
     <g id="text_21">
      <!-- 2000 -->
      <g transform="translate(64.889594 699.518437) scale(0.1 -0.1)">
       <use xlink:href="#DejaVuSans-32"/>
       <use xlink:href="#DejaVuSans-30" x="63.623047"/>
       <use xlink:href="#DejaVuSans-30" x="127.246094"/>
       <use xlink:href="#DejaVuSans-30" x="190.869141"/>
      </g>
     </g>
    </g>
    <g id="xtick_12">
     <g id="line2d_23">
      <g>
       <use xlink:href="#m635a1e7a57" x="145.861054" y="684.92" style="stroke: #000000; stroke-width: 0.8"/>
      </g>
     </g>
     <g id="text_22">
      <!-- 2001 -->
      <g transform="translate(133.136054 699.518437) scale(0.1 -0.1)">
       <use xlink:href="#DejaVuSans-32"/>
       <use xlink:href="#DejaVuSans-30" x="63.623047"/>
       <use xlink:href="#DejaVuSans-30" x="127.246094"/>
       <use xlink:href="#DejaVuSans-31" x="190.869141"/>
      </g>
     </g>
    </g>
    <g id="xtick_13">
     <g id="line2d_24">
      <g>
       <use xlink:href="#m635a1e7a57" x="213.921047" y="684.92" style="stroke: #000000; stroke-width: 0.8"/>
      </g>
     </g>
     <g id="text_23">
      <!-- 2002 -->
      <g transform="translate(201.196047 699.518437) scale(0.1 -0.1)">
       <use xlink:href="#DejaVuSans-32"/>
       <use xlink:href="#DejaVuSans-30" x="63.623047"/>
       <use xlink:href="#DejaVuSans-30" x="127.246094"/>
       <use xlink:href="#DejaVuSans-32" x="190.869141"/>
      </g>
     </g>
    </g>
    <g id="xtick_14">
     <g id="line2d_25">
      <g>
       <use xlink:href="#m635a1e7a57" x="281.981041" y="684.92" style="stroke: #000000; stroke-width: 0.8"/>
      </g>
     </g>
     <g id="text_24">
      <!-- 2003 -->
      <g transform="translate(269.256041 699.518437) scale(0.1 -0.1)">
       <use xlink:href="#DejaVuSans-32"/>
       <use xlink:href="#DejaVuSans-30" x="63.623047"/>
       <use xlink:href="#DejaVuSans-30" x="127.246094"/>
       <use xlink:href="#DejaVuSans-33" x="190.869141"/>
      </g>
     </g>
    </g>
    <g id="xtick_15">
     <g id="line2d_26">
      <g>
       <use xlink:href="#m635a1e7a57" x="350.041034" y="684.92" style="stroke: #000000; stroke-width: 0.8"/>
      </g>
     </g>
     <g id="text_25">
      <!-- 2004 -->
      <g transform="translate(337.316034 699.518437) scale(0.1 -0.1)">
       <use xlink:href="#DejaVuSans-32"/>
       <use xlink:href="#DejaVuSans-30" x="63.623047"/>
       <use xlink:href="#DejaVuSans-30" x="127.246094"/>
       <use xlink:href="#DejaVuSans-34" x="190.869141"/>
      </g>
     </g>
    </g>
    <g id="xtick_16">
     <g id="line2d_27">
      <g>
       <use xlink:href="#m635a1e7a57" x="418.287493" y="684.92" style="stroke: #000000; stroke-width: 0.8"/>
      </g>
     </g>
     <g id="text_26">
      <!-- 2005 -->
      <g transform="translate(405.562493 699.518437) scale(0.1 -0.1)">
       <use xlink:href="#DejaVuSans-32"/>
       <use xlink:href="#DejaVuSans-30" x="63.623047"/>
       <use xlink:href="#DejaVuSans-30" x="127.246094"/>
       <use xlink:href="#DejaVuSans-35" x="190.869141"/>
      </g>
     </g>
    </g>
    <g id="xtick_17">
     <g id="line2d_28">
      <g>
       <use xlink:href="#m635a1e7a57" x="486.347487" y="684.92" style="stroke: #000000; stroke-width: 0.8"/>
      </g>
     </g>
     <g id="text_27">
      <!-- 2006 -->
      <g transform="translate(473.622487 699.518437) scale(0.1 -0.1)">
       <use xlink:href="#DejaVuSans-32"/>
       <use xlink:href="#DejaVuSans-30" x="63.623047"/>
       <use xlink:href="#DejaVuSans-30" x="127.246094"/>
       <use xlink:href="#DejaVuSans-36" x="190.869141"/>
      </g>
     </g>
    </g>
    <g id="xtick_18">
     <g id="line2d_29">
      <g>
       <use xlink:href="#m635a1e7a57" x="554.40748" y="684.92" style="stroke: #000000; stroke-width: 0.8"/>
      </g>
     </g>
     <g id="text_28">
      <!-- 2007 -->
      <g transform="translate(541.68248 699.518437) scale(0.1 -0.1)">
       <use xlink:href="#DejaVuSans-32"/>
       <use xlink:href="#DejaVuSans-30" x="63.623047"/>
       <use xlink:href="#DejaVuSans-30" x="127.246094"/>
       <use xlink:href="#DejaVuSans-37" x="190.869141"/>
      </g>
     </g>
    </g>
    <g id="xtick_19">
     <g id="line2d_30">
      <g>
       <use xlink:href="#m635a1e7a57" x="622.467474" y="684.92" style="stroke: #000000; stroke-width: 0.8"/>
      </g>
     </g>
     <g id="text_29">
      <!-- 2008 -->
      <g transform="translate(609.742474 699.518437) scale(0.1 -0.1)">
       <use xlink:href="#DejaVuSans-32"/>
       <use xlink:href="#DejaVuSans-30" x="63.623047"/>
       <use xlink:href="#DejaVuSans-30" x="127.246094"/>
       <use xlink:href="#DejaVuSans-38" x="190.869141"/>
      </g>
     </g>
    </g>
    <g id="xtick_20">
     <g id="line2d_31">
      <g>
       <use xlink:href="#m635a1e7a57" x="690.713933" y="684.92" style="stroke: #000000; stroke-width: 0.8"/>
      </g>
     </g>
     <g id="text_30">
      <!-- 2009 -->
      <g transform="translate(677.988933 699.518437) scale(0.1 -0.1)">
       <use xlink:href="#DejaVuSans-32"/>
       <use xlink:href="#DejaVuSans-30" x="63.623047"/>
       <use xlink:href="#DejaVuSans-30" x="127.246094"/>
       <use xlink:href="#DejaVuSans-39" x="190.869141"/>
      </g>
     </g>
    </g>
   </g>
   <g id="matplotlib.axis_4">
    <g id="ytick_8">
     <g id="line2d_32">
      <g>
       <use xlink:href="#m44665e62f9" x="30.103125" y="671.34" style="stroke: #000000; stroke-width: 0.8"/>
      </g>
     </g>
     <g id="text_31">
      <!-- 0.0 -->
      <g transform="translate(7.2 675.139219) scale(0.1 -0.1)">
       <defs>
        <path id="DejaVuSans-2e" d="M 684 794 
L 1344 794 
L 1344 0 
L 684 0 
L 684 794 
z
" transform="scale(0.015625)"/>
       </defs>
       <use xlink:href="#DejaVuSans-30"/>
       <use xlink:href="#DejaVuSans-2e" x="63.623047"/>
       <use xlink:href="#DejaVuSans-30" x="95.410156"/>
      </g>
     </g>
    </g>
    <g id="ytick_9">
     <g id="line2d_33">
      <g>
       <use xlink:href="#m44665e62f9" x="30.103125" y="611.974244" style="stroke: #000000; stroke-width: 0.8"/>
      </g>
     </g>
     <g id="text_32">
      <!-- 0.5 -->
      <g transform="translate(7.2 615.773463) scale(0.1 -0.1)">
       <use xlink:href="#DejaVuSans-30"/>
       <use xlink:href="#DejaVuSans-2e" x="63.623047"/>
       <use xlink:href="#DejaVuSans-35" x="95.410156"/>
      </g>
     </g>
    </g>
    <g id="ytick_10">
     <g id="line2d_34">
      <g>
       <use xlink:href="#m44665e62f9" x="30.103125" y="552.608488" style="stroke: #000000; stroke-width: 0.8"/>
      </g>
     </g>
     <g id="text_33">
      <!-- 1.0 -->
      <g transform="translate(7.2 556.407706) scale(0.1 -0.1)">
       <use xlink:href="#DejaVuSans-31"/>
       <use xlink:href="#DejaVuSans-2e" x="63.623047"/>
       <use xlink:href="#DejaVuSans-30" x="95.410156"/>
      </g>
     </g>
    </g>
    <g id="ytick_11">
     <g id="line2d_35">
      <g>
       <use xlink:href="#m44665e62f9" x="30.103125" y="493.242731" style="stroke: #000000; stroke-width: 0.8"/>
      </g>
     </g>
     <g id="text_34">
      <!-- 1.5 -->
      <g transform="translate(7.2 497.04195) scale(0.1 -0.1)">
       <use xlink:href="#DejaVuSans-31"/>
       <use xlink:href="#DejaVuSans-2e" x="63.623047"/>
       <use xlink:href="#DejaVuSans-35" x="95.410156"/>
      </g>
     </g>
    </g>
    <g id="ytick_12">
     <g id="line2d_36">
      <g>
       <use xlink:href="#m44665e62f9" x="30.103125" y="433.876975" style="stroke: #000000; stroke-width: 0.8"/>
      </g>
     </g>
     <g id="text_35">
      <!-- 2.0 -->
      <g transform="translate(7.2 437.676194) scale(0.1 -0.1)">
       <use xlink:href="#DejaVuSans-32"/>
       <use xlink:href="#DejaVuSans-2e" x="63.623047"/>
       <use xlink:href="#DejaVuSans-30" x="95.410156"/>
      </g>
     </g>
    </g>
    <g id="text_36">
     <!-- 1e6 -->
     <g transform="translate(30.103125 383.16) scale(0.1 -0.1)">
      <use xlink:href="#DejaVuSans-31"/>
      <use xlink:href="#DejaVuSans-65" x="63.623047"/>
      <use xlink:href="#DejaVuSans-36" x="125.146484"/>
     </g>
    </g>
   </g>
   <g id="line2d_37">
    <path d="M 60.739445 671.339999 
L 673.465853 671.339999 
L 673.465853 671.339999 
" clip-path="url(#p92e117ea99)" style="fill: none; stroke: #1f77b4; stroke-width: 1.5; stroke-linecap: square"/>
   </g>
   <g id="line2d_38">
    <path d="M 60.739445 671.339999 
L 80.131882 671.234855 
L 82.555936 670.998201 
L 84.047662 670.634522 
L 85.166457 670.126222 
L 86.098785 669.434163 
L 86.844648 668.608499 
L 87.590511 667.430307 
L 88.336374 665.754485 
L 89.082237 663.381726 
L 89.8281 660.043806 
L 90.573963 655.390552 
L 91.319826 648.985113 
L 92.065689 640.31934 
L 92.811552 628.866749 
L 93.557415 614.190375 
L 94.489744 591.073266 
L 95.608538 557.360309 
L 98.219058 475.686621 
L 99.151387 453.464407 
L 100.083716 436.522085 
L 100.829579 426.425406 
L 101.575441 418.874443 
L 102.321304 413.341462 
L 103.067167 409.347558 
L 103.81303 406.495726 
L 104.558893 404.47512 
L 105.304756 403.051335 
L 106.050619 402.051966 
L 106.982948 401.213301 
L 107.915276 400.677842 
L 109.034071 400.28494 
L 110.525797 400.004045 
L 112.763386 399.829042 
L 117.238563 399.750308 
L 142.970835 399.74021 
L 673.465853 399.740201 
L 673.465853 399.740201 
" clip-path="url(#p92e117ea99)" style="fill: none; stroke: #ff7f0e; stroke-width: 1.5; stroke-linecap: square"/>
   </g>
   <g id="patch_9">
    <path d="M 30.103125 684.92 
L 30.103125 386.16 
" style="fill: none; stroke: #000000; stroke-width: 0.8; stroke-linejoin: miter; stroke-linecap: square"/>
   </g>
   <g id="patch_10">
    <path d="M 704.102173 684.92 
L 704.102173 386.16 
" style="fill: none; stroke: #000000; stroke-width: 0.8; stroke-linejoin: miter; stroke-linecap: square"/>
   </g>
   <g id="patch_11">
    <path d="M 30.103125 684.92 
L 704.102173 684.92 
" style="fill: none; stroke: #000000; stroke-width: 0.8; stroke-linejoin: miter; stroke-linecap: square"/>
   </g>
   <g id="patch_12">
    <path d="M 30.103125 386.16 
L 704.102173 386.16 
" style="fill: none; stroke: #000000; stroke-width: 0.8; stroke-linejoin: miter; stroke-linecap: square"/>
   </g>
   <g id="text_37">
    <!-- 2 transformation(s) -->
    <g transform="translate(308.987962 380.16) scale(0.12 -0.12)">
     <use xlink:href="#DejaVuSans-32"/>
     <use xlink:href="#DejaVuSans-20" x="63.623047"/>
     <use xlink:href="#DejaVuSans-74" x="95.410156"/>
     <use xlink:href="#DejaVuSans-72" x="134.619141"/>
     <use xlink:href="#DejaVuSans-61" x="175.732422"/>
     <use xlink:href="#DejaVuSans-6e" x="237.011719"/>
     <use xlink:href="#DejaVuSans-73" x="300.390625"/>
     <use xlink:href="#DejaVuSans-66" x="352.490234"/>
     <use xlink:href="#DejaVuSans-6f" x="387.695312"/>
     <use xlink:href="#DejaVuSans-72" x="448.876953"/>
     <use xlink:href="#DejaVuSans-6d" x="488.240234"/>
     <use xlink:href="#DejaVuSans-61" x="585.652344"/>
     <use xlink:href="#DejaVuSans-74" x="646.931641"/>
     <use xlink:href="#DejaVuSans-69" x="686.140625"/>
     <use xlink:href="#DejaVuSans-6f" x="713.923828"/>
     <use xlink:href="#DejaVuSans-6e" x="775.105469"/>
     <use xlink:href="#DejaVuSans-28" x="838.484375"/>
     <use xlink:href="#DejaVuSans-73" x="877.498047"/>
     <use xlink:href="#DejaVuSans-29" x="929.597656"/>
    </g>
   </g>
  </g>
  <g id="text_38">
   <!-- training -->
   <g transform="translate(333.219687 16.318125) scale(0.12 -0.12)">
    <defs>
     <path id="DejaVuSans-67" d="M 2906 1791 
Q 2906 2416 2648 2759 
Q 2391 3103 1925 3103 
Q 1463 3103 1205 2759 
Q 947 2416 947 1791 
Q 947 1169 1205 825 
Q 1463 481 1925 481 
Q 2391 481 2648 825 
Q 2906 1169 2906 1791 
z
M 3481 434 
Q 3481 -459 3084 -895 
Q 2688 -1331 1869 -1331 
Q 1566 -1331 1297 -1286 
Q 1028 -1241 775 -1147 
L 775 -588 
Q 1028 -725 1275 -790 
Q 1522 -856 1778 -856 
Q 2344 -856 2625 -561 
Q 2906 -266 2906 331 
L 2906 616 
Q 2728 306 2450 153 
Q 2172 0 1784 0 
Q 1141 0 747 490 
Q 353 981 353 1791 
Q 353 2603 747 3093 
Q 1141 3584 1784 3584 
Q 2172 3584 2450 3431 
Q 2728 3278 2906 2969 
L 2906 3500 
L 3481 3500 
L 3481 434 
z
" transform="scale(0.015625)"/>
    </defs>
    <use xlink:href="#DejaVuSans-74"/>
    <use xlink:href="#DejaVuSans-72" x="39.208984"/>
    <use xlink:href="#DejaVuSans-61" x="80.322266"/>
    <use xlink:href="#DejaVuSans-69" x="141.601562"/>
    <use xlink:href="#DejaVuSans-6e" x="169.384766"/>
    <use xlink:href="#DejaVuSans-69" x="232.763672"/>
    <use xlink:href="#DejaVuSans-6e" x="260.546875"/>
    <use xlink:href="#DejaVuSans-67" x="323.925781"/>
   </g>
  </g>
 </g>
 <defs>
  <clipPath id="p3f3d75d624">
   <rect x="30.103125" y="43.44" width="673.999048" height="298.76"/>
  </clipPath>
  <clipPath id="p92e117ea99">
   <rect x="30.103125" y="386.16" width="673.999048" height="298.76"/>
  </clipPath>
 </defs>
</svg>
