<?xml version="1.0" encoding="utf-8" standalone="no"?>
<!DOCTYPE svg PUBLIC "-//W3C//DTD SVG 1.1//EN"
  "http://www.w3.org/Graphics/SVG/1.1/DTD/svg11.dtd">
<svg xmlns:xlink="http://www.w3.org/1999/xlink" width="709.489261pt" height="708.798125pt" viewBox="0 0 709.489261 708.798125" xmlns="http://www.w3.org/2000/svg" version="1.1">
 <metadata>
  <rdf:RDF xmlns:dc="http://purl.org/dc/elements/1.1/" xmlns:cc="http://creativecommons.org/ns#" xmlns:rdf="http://www.w3.org/1999/02/22-rdf-syntax-ns#">
   <cc:Work>
    <dc:type rdf:resource="http://purl.org/dc/dcmitype/StillImage"/>
    <dc:date>2023-06-08T04:14:16.731741</dc:date>
    <dc:format>image/svg+xml</dc:format>
    <dc:creator>
     <cc:Agent>
      <dc:title>Matplotlib v3.7.1, https://matplotlib.org/</dc:title>
     </cc:Agent>
    </dc:creator>
   </cc:Work>
  </rdf:RDF>
 </metadata>
 <defs>
  <style type="text/css">*{stroke-linejoin: round; stroke-linecap: butt}</style>
 </defs>
 <g id="figure_1">
  <g id="patch_1">
   <path d="M 0 708.798125 
L 709.489261 708.798125 
L 709.489261 0 
L 0 0 
z
" style="fill: #ffffff"/>
  </g>
  <g id="axes_1">
   <g id="patch_2">
    <path d="M 36.465625 342.2 
L 702.289261 342.2 
L 702.289261 43.44 
L 36.465625 43.44 
z
" style="fill: #ffffff"/>
   </g>
   <g id="matplotlib.axis_1">
    <g id="xtick_1">
     <g id="line2d_1">
      <defs>
       <path id="mf09ebcc221" d="M 0 0 
L 0 3.5 
" style="stroke: #000000; stroke-width: 0.8"/>
      </defs>
      <g>
       <use xlink:href="#mf09ebcc221" x="66.562152" y="342.2" style="stroke: #000000; stroke-width: 0.8"/>
      </g>
     </g>
     <g id="text_1">
      <!-- 2014-07-01 -->
      <g transform="translate(37.504339 356.798437) scale(0.1 -0.1)">
       <defs>
        <path id="DejaVuSans-32" d="M 1228 531 
L 3431 531 
L 3431 0 
L 469 0 
L 469 531 
Q 828 903 1448 1529 
Q 2069 2156 2228 2338 
Q 2531 2678 2651 2914 
Q 2772 3150 2772 3378 
Q 2772 3750 2511 3984 
Q 2250 4219 1831 4219 
Q 1534 4219 1204 4116 
Q 875 4013 500 3803 
L 500 4441 
Q 881 4594 1212 4672 
Q 1544 4750 1819 4750 
Q 2544 4750 2975 4387 
Q 3406 4025 3406 3419 
Q 3406 3131 3298 2873 
Q 3191 2616 2906 2266 
Q 2828 2175 2409 1742 
Q 1991 1309 1228 531 
z
" transform="scale(0.015625)"/>
        <path id="DejaVuSans-30" d="M 2034 4250 
Q 1547 4250 1301 3770 
Q 1056 3291 1056 2328 
Q 1056 1369 1301 889 
Q 1547 409 2034 409 
Q 2525 409 2770 889 
Q 3016 1369 3016 2328 
Q 3016 3291 2770 3770 
Q 2525 4250 2034 4250 
z
M 2034 4750 
Q 2819 4750 3233 4129 
Q 3647 3509 3647 2328 
Q 3647 1150 3233 529 
Q 2819 -91 2034 -91 
Q 1250 -91 836 529 
Q 422 1150 422 2328 
Q 422 3509 836 4129 
Q 1250 4750 2034 4750 
z
" transform="scale(0.015625)"/>
        <path id="DejaVuSans-31" d="M 794 531 
L 1825 531 
L 1825 4091 
L 703 3866 
L 703 4441 
L 1819 4666 
L 2450 4666 
L 2450 531 
L 3481 531 
L 3481 0 
L 794 0 
L 794 531 
z
" transform="scale(0.015625)"/>
        <path id="DejaVuSans-34" d="M 2419 4116 
L 825 1625 
L 2419 1625 
L 2419 4116 
z
M 2253 4666 
L 3047 4666 
L 3047 1625 
L 3713 1625 
L 3713 1100 
L 3047 1100 
L 3047 0 
L 2419 0 
L 2419 1100 
L 313 1100 
L 313 1709 
L 2253 4666 
z
" transform="scale(0.015625)"/>
        <path id="DejaVuSans-2d" d="M 313 2009 
L 1997 2009 
L 1997 1497 
L 313 1497 
L 313 2009 
z
" transform="scale(0.015625)"/>
        <path id="DejaVuSans-37" d="M 525 4666 
L 3525 4666 
L 3525 4397 
L 1831 0 
L 1172 0 
L 2766 4134 
L 525 4134 
L 525 4666 
z
" transform="scale(0.015625)"/>
       </defs>
       <use xlink:href="#DejaVuSans-32"/>
       <use xlink:href="#DejaVuSans-30" x="63.623047"/>
       <use xlink:href="#DejaVuSans-31" x="127.246094"/>
       <use xlink:href="#DejaVuSans-34" x="190.869141"/>
       <use xlink:href="#DejaVuSans-2d" x="254.492188"/>
       <use xlink:href="#DejaVuSans-30" x="290.576172"/>
       <use xlink:href="#DejaVuSans-37" x="354.199219"/>
       <use xlink:href="#DejaVuSans-2d" x="417.822266"/>
       <use xlink:href="#DejaVuSans-30" x="453.90625"/>
       <use xlink:href="#DejaVuSans-31" x="517.529297"/>
      </g>
     </g>
    </g>
    <g id="xtick_2">
     <g id="line2d_2">
      <g>
       <use xlink:href="#mf09ebcc221" x="187.654632" y="342.2" style="stroke: #000000; stroke-width: 0.8"/>
      </g>
     </g>
     <g id="text_2">
      <!-- 2014-07-02 -->
      <g transform="translate(158.596819 356.798437) scale(0.1 -0.1)">
       <use xlink:href="#DejaVuSans-32"/>
       <use xlink:href="#DejaVuSans-30" x="63.623047"/>
       <use xlink:href="#DejaVuSans-31" x="127.246094"/>
       <use xlink:href="#DejaVuSans-34" x="190.869141"/>
       <use xlink:href="#DejaVuSans-2d" x="254.492188"/>
       <use xlink:href="#DejaVuSans-30" x="290.576172"/>
       <use xlink:href="#DejaVuSans-37" x="354.199219"/>
       <use xlink:href="#DejaVuSans-2d" x="417.822266"/>
       <use xlink:href="#DejaVuSans-30" x="453.90625"/>
       <use xlink:href="#DejaVuSans-32" x="517.529297"/>
      </g>
     </g>
    </g>
    <g id="xtick_3">
     <g id="line2d_3">
      <g>
       <use xlink:href="#mf09ebcc221" x="308.747111" y="342.2" style="stroke: #000000; stroke-width: 0.8"/>
      </g>
     </g>
     <g id="text_3">
      <!-- 2014-07-03 -->
      <g transform="translate(279.689299 356.798437) scale(0.1 -0.1)">
       <defs>
        <path id="DejaVuSans-33" d="M 2597 2516 
Q 3050 2419 3304 2112 
Q 3559 1806 3559 1356 
Q 3559 666 3084 287 
Q 2609 -91 1734 -91 
Q 1441 -91 1130 -33 
Q 819 25 488 141 
L 488 750 
Q 750 597 1062 519 
Q 1375 441 1716 441 
Q 2309 441 2620 675 
Q 2931 909 2931 1356 
Q 2931 1769 2642 2001 
Q 2353 2234 1838 2234 
L 1294 2234 
L 1294 2753 
L 1863 2753 
Q 2328 2753 2575 2939 
Q 2822 3125 2822 3475 
Q 2822 3834 2567 4026 
Q 2313 4219 1838 4219 
Q 1578 4219 1281 4162 
Q 984 4106 628 3988 
L 628 4550 
Q 988 4650 1302 4700 
Q 1616 4750 1894 4750 
Q 2613 4750 3031 4423 
Q 3450 4097 3450 3541 
Q 3450 3153 3228 2886 
Q 3006 2619 2597 2516 
z
" transform="scale(0.015625)"/>
       </defs>
       <use xlink:href="#DejaVuSans-32"/>
       <use xlink:href="#DejaVuSans-30" x="63.623047"/>
       <use xlink:href="#DejaVuSans-31" x="127.246094"/>
       <use xlink:href="#DejaVuSans-34" x="190.869141"/>
       <use xlink:href="#DejaVuSans-2d" x="254.492188"/>
       <use xlink:href="#DejaVuSans-30" x="290.576172"/>
       <use xlink:href="#DejaVuSans-37" x="354.199219"/>
       <use xlink:href="#DejaVuSans-2d" x="417.822266"/>
       <use xlink:href="#DejaVuSans-30" x="453.90625"/>
       <use xlink:href="#DejaVuSans-33" x="517.529297"/>
      </g>
     </g>
    </g>
    <g id="xtick_4">
     <g id="line2d_4">
      <g>
       <use xlink:href="#mf09ebcc221" x="429.839591" y="342.2" style="stroke: #000000; stroke-width: 0.8"/>
      </g>
     </g>
     <g id="text_4">
      <!-- 2014-07-04 -->
      <g transform="translate(400.781779 356.798437) scale(0.1 -0.1)">
       <use xlink:href="#DejaVuSans-32"/>
       <use xlink:href="#DejaVuSans-30" x="63.623047"/>
       <use xlink:href="#DejaVuSans-31" x="127.246094"/>
       <use xlink:href="#DejaVuSans-34" x="190.869141"/>
       <use xlink:href="#DejaVuSans-2d" x="254.492188"/>
       <use xlink:href="#DejaVuSans-30" x="290.576172"/>
       <use xlink:href="#DejaVuSans-37" x="354.199219"/>
       <use xlink:href="#DejaVuSans-2d" x="417.822266"/>
       <use xlink:href="#DejaVuSans-30" x="453.90625"/>
       <use xlink:href="#DejaVuSans-34" x="517.529297"/>
      </g>
     </g>
    </g>
    <g id="xtick_5">
     <g id="line2d_5">
      <g>
       <use xlink:href="#mf09ebcc221" x="550.932071" y="342.2" style="stroke: #000000; stroke-width: 0.8"/>
      </g>
     </g>
     <g id="text_5">
      <!-- 2014-07-05 -->
      <g transform="translate(521.874258 356.798437) scale(0.1 -0.1)">
       <defs>
        <path id="DejaVuSans-35" d="M 691 4666 
L 3169 4666 
L 3169 4134 
L 1269 4134 
L 1269 2991 
Q 1406 3038 1543 3061 
Q 1681 3084 1819 3084 
Q 2600 3084 3056 2656 
Q 3513 2228 3513 1497 
Q 3513 744 3044 326 
Q 2575 -91 1722 -91 
Q 1428 -91 1123 -41 
Q 819 9 494 109 
L 494 744 
Q 775 591 1075 516 
Q 1375 441 1709 441 
Q 2250 441 2565 725 
Q 2881 1009 2881 1497 
Q 2881 1984 2565 2268 
Q 2250 2553 1709 2553 
Q 1456 2553 1204 2497 
Q 953 2441 691 2322 
L 691 4666 
z
" transform="scale(0.015625)"/>
       </defs>
       <use xlink:href="#DejaVuSans-32"/>
       <use xlink:href="#DejaVuSans-30" x="63.623047"/>
       <use xlink:href="#DejaVuSans-31" x="127.246094"/>
       <use xlink:href="#DejaVuSans-34" x="190.869141"/>
       <use xlink:href="#DejaVuSans-2d" x="254.492188"/>
       <use xlink:href="#DejaVuSans-30" x="290.576172"/>
       <use xlink:href="#DejaVuSans-37" x="354.199219"/>
       <use xlink:href="#DejaVuSans-2d" x="417.822266"/>
       <use xlink:href="#DejaVuSans-30" x="453.90625"/>
       <use xlink:href="#DejaVuSans-35" x="517.529297"/>
      </g>
     </g>
    </g>
    <g id="xtick_6">
     <g id="line2d_6">
      <g>
       <use xlink:href="#mf09ebcc221" x="672.024551" y="342.2" style="stroke: #000000; stroke-width: 0.8"/>
      </g>
     </g>
     <g id="text_6">
      <!-- 2014-07-06 -->
      <g transform="translate(642.966738 356.798437) scale(0.1 -0.1)">
       <defs>
        <path id="DejaVuSans-36" d="M 2113 2584 
Q 1688 2584 1439 2293 
Q 1191 2003 1191 1497 
Q 1191 994 1439 701 
Q 1688 409 2113 409 
Q 2538 409 2786 701 
Q 3034 994 3034 1497 
Q 3034 2003 2786 2293 
Q 2538 2584 2113 2584 
z
M 3366 4563 
L 3366 3988 
Q 3128 4100 2886 4159 
Q 2644 4219 2406 4219 
Q 1781 4219 1451 3797 
Q 1122 3375 1075 2522 
Q 1259 2794 1537 2939 
Q 1816 3084 2150 3084 
Q 2853 3084 3261 2657 
Q 3669 2231 3669 1497 
Q 3669 778 3244 343 
Q 2819 -91 2113 -91 
Q 1303 -91 875 529 
Q 447 1150 447 2328 
Q 447 3434 972 4092 
Q 1497 4750 2381 4750 
Q 2619 4750 2861 4703 
Q 3103 4656 3366 4563 
z
" transform="scale(0.015625)"/>
       </defs>
       <use xlink:href="#DejaVuSans-32"/>
       <use xlink:href="#DejaVuSans-30" x="63.623047"/>
       <use xlink:href="#DejaVuSans-31" x="127.246094"/>
       <use xlink:href="#DejaVuSans-34" x="190.869141"/>
       <use xlink:href="#DejaVuSans-2d" x="254.492188"/>
       <use xlink:href="#DejaVuSans-30" x="290.576172"/>
       <use xlink:href="#DejaVuSans-37" x="354.199219"/>
       <use xlink:href="#DejaVuSans-2d" x="417.822266"/>
       <use xlink:href="#DejaVuSans-30" x="453.90625"/>
       <use xlink:href="#DejaVuSans-36" x="517.529297"/>
      </g>
     </g>
    </g>
   </g>
   <g id="matplotlib.axis_2">
    <g id="ytick_1">
     <g id="line2d_7">
      <defs>
       <path id="md692009ace" d="M 0 0 
L -3.5 0 
" style="stroke: #000000; stroke-width: 0.8"/>
      </defs>
      <g>
       <use xlink:href="#md692009ace" x="36.465625" y="328.620095" style="stroke: #000000; stroke-width: 0.8"/>
      </g>
     </g>
     <g id="text_7">
      <!-- 0.00 -->
      <g transform="translate(7.2 332.419314) scale(0.1 -0.1)">
       <defs>
        <path id="DejaVuSans-2e" d="M 684 794 
L 1344 794 
L 1344 0 
L 684 0 
L 684 794 
z
" transform="scale(0.015625)"/>
       </defs>
       <use xlink:href="#DejaVuSans-30"/>
       <use xlink:href="#DejaVuSans-2e" x="63.623047"/>
       <use xlink:href="#DejaVuSans-30" x="95.410156"/>
       <use xlink:href="#DejaVuSans-30" x="159.033203"/>
      </g>
     </g>
    </g>
    <g id="ytick_2">
     <g id="line2d_8">
      <g>
       <use xlink:href="#md692009ace" x="36.465625" y="289.696244" style="stroke: #000000; stroke-width: 0.8"/>
      </g>
     </g>
     <g id="text_8">
      <!-- 0.25 -->
      <g transform="translate(7.2 293.495463) scale(0.1 -0.1)">
       <use xlink:href="#DejaVuSans-30"/>
       <use xlink:href="#DejaVuSans-2e" x="63.623047"/>
       <use xlink:href="#DejaVuSans-32" x="95.410156"/>
       <use xlink:href="#DejaVuSans-35" x="159.033203"/>
      </g>
     </g>
    </g>
    <g id="ytick_3">
     <g id="line2d_9">
      <g>
       <use xlink:href="#md692009ace" x="36.465625" y="250.772394" style="stroke: #000000; stroke-width: 0.8"/>
      </g>
     </g>
     <g id="text_9">
      <!-- 0.50 -->
      <g transform="translate(7.2 254.571612) scale(0.1 -0.1)">
       <use xlink:href="#DejaVuSans-30"/>
       <use xlink:href="#DejaVuSans-2e" x="63.623047"/>
       <use xlink:href="#DejaVuSans-35" x="95.410156"/>
       <use xlink:href="#DejaVuSans-30" x="159.033203"/>
      </g>
     </g>
    </g>
    <g id="ytick_4">
     <g id="line2d_10">
      <g>
       <use xlink:href="#md692009ace" x="36.465625" y="211.848543" style="stroke: #000000; stroke-width: 0.8"/>
      </g>
     </g>
     <g id="text_10">
      <!-- 0.75 -->
      <g transform="translate(7.2 215.647762) scale(0.1 -0.1)">
       <use xlink:href="#DejaVuSans-30"/>
       <use xlink:href="#DejaVuSans-2e" x="63.623047"/>
       <use xlink:href="#DejaVuSans-37" x="95.410156"/>
       <use xlink:href="#DejaVuSans-35" x="159.033203"/>
      </g>
     </g>
    </g>
    <g id="ytick_5">
     <g id="line2d_11">
      <g>
       <use xlink:href="#md692009ace" x="36.465625" y="172.924692" style="stroke: #000000; stroke-width: 0.8"/>
      </g>
     </g>
     <g id="text_11">
      <!-- 1.00 -->
      <g transform="translate(7.2 176.723911) scale(0.1 -0.1)">
       <use xlink:href="#DejaVuSans-31"/>
       <use xlink:href="#DejaVuSans-2e" x="63.623047"/>
       <use xlink:href="#DejaVuSans-30" x="95.410156"/>
       <use xlink:href="#DejaVuSans-30" x="159.033203"/>
      </g>
     </g>
    </g>
    <g id="ytick_6">
     <g id="line2d_12">
      <g>
       <use xlink:href="#md692009ace" x="36.465625" y="134.000841" style="stroke: #000000; stroke-width: 0.8"/>
      </g>
     </g>
     <g id="text_12">
      <!-- 1.25 -->
      <g transform="translate(7.2 137.80006) scale(0.1 -0.1)">
       <use xlink:href="#DejaVuSans-31"/>
       <use xlink:href="#DejaVuSans-2e" x="63.623047"/>
       <use xlink:href="#DejaVuSans-32" x="95.410156"/>
       <use xlink:href="#DejaVuSans-35" x="159.033203"/>
      </g>
     </g>
    </g>
    <g id="ytick_7">
     <g id="line2d_13">
      <g>
       <use xlink:href="#md692009ace" x="36.465625" y="95.07699" style="stroke: #000000; stroke-width: 0.8"/>
      </g>
     </g>
     <g id="text_13">
      <!-- 1.50 -->
      <g transform="translate(7.2 98.876209) scale(0.1 -0.1)">
       <use xlink:href="#DejaVuSans-31"/>
       <use xlink:href="#DejaVuSans-2e" x="63.623047"/>
       <use xlink:href="#DejaVuSans-35" x="95.410156"/>
       <use xlink:href="#DejaVuSans-30" x="159.033203"/>
      </g>
     </g>
    </g>
    <g id="ytick_8">
     <g id="line2d_14">
      <g>
       <use xlink:href="#md692009ace" x="36.465625" y="56.153139" style="stroke: #000000; stroke-width: 0.8"/>
      </g>
     </g>
     <g id="text_14">
      <!-- 1.75 -->
      <g transform="translate(7.2 59.952358) scale(0.1 -0.1)">
       <use xlink:href="#DejaVuSans-31"/>
       <use xlink:href="#DejaVuSans-2e" x="63.623047"/>
       <use xlink:href="#DejaVuSans-37" x="95.410156"/>
       <use xlink:href="#DejaVuSans-35" x="159.033203"/>
      </g>
     </g>
    </g>
   </g>
   <g id="line2d_15">
    <path d="M 66.730336 328.619681 
L 69.757648 328.493988 
L 76.232732 327.91284 
L 81.19416 327.673285 
L 82.707816 327.21962 
L 83.044184 327.011323 
L 84.221472 325.329281 
L 84.641932 324.502515 
L 84.894208 324.030643 
L 85.230576 323.256052 
L 85.482852 322.690935 
L 85.903312 321.673024 
L 86.071496 321.189306 
L 86.491956 320.067199 
L 86.66014 319.403666 
L 86.996508 318.032379 
L 87.164692 317.575254 
L 87.585152 315.565608 
L 87.92152 314.425712 
L 88.257888 313.004508 
L 88.426072 312.529768 
L 88.846532 310.557029 
L 89.098808 309.587606 
L 89.435176 308.097224 
L 89.60336 307.623743 
L 90.02382 305.649521 
L 90.192004 305.174421 
L 90.612464 303.241053 
L 90.948832 302.135228 
L 91.2852 300.795487 
L 91.453384 300.361924 
L 91.873844 298.448525 
L 92.12612 297.524907 
L 92.462488 296.095107 
L 92.630672 295.651981 
L 93.051132 293.765223 
L 93.303408 292.884168 
L 93.723868 291.502376 
L 93.976144 290.869566 
L 94.312512 289.919312 
L 94.64888 289.099548 
L 95.06934 288.101304 
L 95.405708 283.884167 
L 95.742076 282.218994 
L 96.078444 281.305524 
L 96.582996 280.659624 
L 97.087548 280.422135 
L 97.760284 280.388643 
L 98.601204 280.535511 
L 98.685296 280.11678 
L 99.021664 273.043839 
L 99.27394 270.625163 
L 99.610308 260.038081 
L 99.946676 255.480172 
L 100.283044 242.927857 
L 100.53532 237.899017 
L 100.95578 222.223642 
L 101.208056 214.616353 
L 101.544424 203.609145 
L 101.7967 196.633019 
L 102.133068 186.51781 
L 102.385344 180.361485 
L 102.721712 171.54293 
L 103.05808 165.316976 
L 103.394448 158.212914 
L 103.646724 153.555513 
L 103.983092 147.13718 
L 104.235368 143.098395 
L 104.655828 136.591493 
L 104.824012 134.076846 
L 105.244472 128.557372 
L 105.496748 125.24786 
L 105.833116 121.888958 
L 106.085392 119.835851 
L 106.42176 116.875384 
L 106.674036 115.12017 
L 107.010404 112.714267 
L 107.26268 111.289 
L 107.599048 109.376023 
L 107.851324 108.260788 
L 108.187692 106.80963 
L 108.439968 105.94069 
L 108.776336 104.925978 
L 109.028612 104.517614 
L 109.449072 102.889946 
L 109.617256 102.528242 
L 109.953624 100.669183 
L 110.2059 99.957079 
L 110.542268 97.087929 
L 110.794544 95.906192 
L 111.130912 90.447374 
L 111.383188 87.813123 
L 111.803648 74.174912 
L 112.3082 67.132452 
L 112.812752 63.605041 
L 113.233212 62.038623 
L 113.737764 60.705898 
L 115.167328 57.888178 
L 115.587788 57.287065 
L 116.008248 57.029744 
L 116.5128 57.063134 
L 117.269628 57.404162 
L 118.19464 58.080612 
L 119.287836 59.091445 
L 120.381032 60.237231 
L 123.156068 63.575159 
L 127.192484 68.866544 
L 127.276576 68.773483 
L 127.528852 68.593243 
L 127.86522 68.660822 
L 128.28568 68.937853 
L 129.631152 70.32444 
L 131.144808 72.086188 
L 133.247108 74.471228 
L 138.040352 79.04702 
L 138.881272 79.627754 
L 141.067664 81.117389 
L 141.488124 81.28523 
L 141.824492 81.427996 
L 142.16086 81.609405 
L 142.497228 81.761339 
L 144.347252 82.455051 
L 145.019988 83.037623 
L 146.029092 84.27363 
L 147.542748 86.505343 
L 150.822336 91.849162 
L 153.261004 95.723744 
L 154.186016 96.568703 
L 155.783764 98.444225 
L 157.71788 100.746858 
L 159.904272 103.127296 
L 160.408824 103.574656 
L 162.7634 106.067198 
L 163.267952 106.659421 
L 164.108872 107.661067 
L 164.613424 107.982792 
L 165.622528 108.832168 
L 167.136184 110.446008 
L 169.658944 113.399998 
L 170.079404 113.707357 
L 171.004416 114.745288 
L 172.097612 116.02558 
L 172.770348 116.537771 
L 175.040832 118.268189 
L 175.713568 119.00921 
L 176.806764 120.283043 
L 177.4795 120.885493 
L 178.32042 121.902433 
L 179.413616 123.204329 
L 181.26364 124.978159 
L 182.356836 125.817551 
L 182.777296 126.114052 
L 184.122768 127.57605 
L 185.636424 129.534388 
L 186.225068 130.115643 
L 187.065988 130.813159 
L 187.57054 131.096519 
L 189.504656 132.72517 
L 189.925116 132.855538 
L 193.625164 135.619655 
L 194.634268 136.598268 
L 196.063832 138.140075 
L 196.904752 138.990751 
L 197.829764 140.153018 
L 198.166131 140.470455 
L 198.922959 140.868686 
L 199.427511 141.244477 
L 202.034363 143.655242 
L 203.211651 144.658447 
L 204.473031 146.370286 
L 208.173079 151.984083 
L 212.545863 158.622392 
L 212.882231 156.904391 
L 213.134507 156.32748 
L 213.470875 153.746461 
L 213.807243 152.173176 
L 214.059519 150.54033 
L 214.311795 149.789991 
L 214.648163 147.677973 
L 215.068623 146.374499 
L 215.404991 145.068464 
L 215.573175 144.74401 
L 215.909543 143.140509 
L 216.161819 142.69287 
L 216.498187 141.326551 
L 216.834555 140.551972 
L 217.170923 139.660167 
L 217.339107 139.480874 
L 217.675475 138.497621 
L 218.180027 137.77826 
L 218.432303 137.427989 
L 218.600487 137.324775 
L 219.020947 136.60803 
L 219.189131 136.537093 
L 219.525499 135.985517 
L 219.861867 135.73679 
L 220.198235 135.420039 
L 220.366419 135.399474 
L 220.702787 135.052526 
L 222.889179 134.56231 
L 223.141455 134.122578 
L 223.393731 133.956315 
L 223.730099 132.673239 
L 224.066467 132.214316 
L 224.402835 129.993441 
L 224.655111 129.235901 
L 224.991479 124.965705 
L 225.159663 124.277767 
L 225.243755 123.195587 
L 225.580123 112.276002 
L 225.916491 107.951258 
L 226.252859 105.94444 
L 226.589227 105.19566 
L 226.841503 105.08144 
L 227.514239 105.459217 
L 229.532447 107.259347 
L 231.130195 109.354493 
L 232.223391 110.95098 
L 234.746151 114.909491 
L 239.371211 122.11133 
L 240.884867 123.947058 
L 242.146247 125.470992 
L 242.818983 126.177065 
L 243.407627 126.605159 
L 244.416731 127.47278 
L 244.753099 127.671691 
L 245.173559 127.941763 
L 245.425835 128.00884 
L 246.266755 128.307513 
L 247.696319 129.339282 
L 248.705423 130.422259 
L 249.125883 130.768688 
L 249.714527 131.116657 
L 250.555447 131.651344 
L 253.414575 134.19218 
L 253.835035 134.385782 
L 254.171403 134.548241 
L 255.685059 135.66175 
L 256.021427 135.79171 
L 256.694163 136.361753 
L 257.619175 137.481461 
L 258.291911 138.169604 
L 259.048739 139.00107 
L 260.394211 140.410969 
L 260.898763 140.666415 
L 263.253339 142.651741 
L 263.589707 142.869398 
L 264.514719 143.348403 
L 265.944283 144.351069 
L 266.364743 144.719845 
L 267.289755 145.558494 
L 267.962491 146.140156 
L 269.812515 147.988543 
L 273.764839 150.759787 
L 274.101207 150.807098 
L 274.353483 150.852496 
L 274.605759 150.821946 
L 275.026219 151.036151 
L 275.783047 151.741147 
L 278.389899 154.366488 
L 278.642175 154.533884 
L 278.978543 154.64957 
L 279.230819 154.731291 
L 279.567187 154.752766 
L 280.744475 155.460509 
L 282.005855 156.669882 
L 283.267235 157.718968 
L 283.519511 157.747606 
L 283.855879 157.858894 
L 284.528615 158.42582 
L 285.201351 158.953527 
L 285.621811 159.061493 
L 286.546823 159.586082 
L 286.883191 159.704126 
L 287.808203 160.373319 
L 288.817307 161.621037 
L 291.003699 164.738413 
L 296.049219 172.243379 
L 296.974231 173.135742 
L 298.403795 174.988342 
L 306.392535 185.825779 
L 307.653915 187.04459 
L 309.503939 187.93569 
L 309.840307 187.952552 
L 310.092583 187.970769 
L 310.428951 187.91533 
L 310.681227 187.885791 
L 311.017595 187.760982 
L 311.185779 187.777315 
L 311.522147 187.506427 
L 311.858515 187.49813 
L 312.194883 186.792253 
L 312.447159 186.604005 
L 312.783527 185.70987 
L 313.119895 185.150999 
L 313.372171 184.496181 
L 313.624447 184.209675 
L 313.960815 183.262197 
L 314.297183 182.668768 
L 314.549459 182.018989 
L 314.969919 181.459023 
L 315.222195 180.851599 
L 315.558563 180.32095 
L 315.810839 179.673036 
L 316.147207 179.107057 
L 316.399483 178.466252 
L 316.651759 178.199058 
L 316.988127 177.245585 
L 317.240403 176.999484 
L 317.576771 176.05248 
L 317.997231 175.501693 
L 318.249507 174.915297 
L 318.585875 174.45785 
L 318.838151 173.941928 
L 319.174519 173.601021 
L 319.426795 173.209185 
L 320.183623 172.731739 
L 320.267715 172.52789 
L 320.604083 169.436536 
L 320.940451 168.542782 
L 321.276819 168.156337 
L 321.613187 168.15088 
L 322.033647 168.352984 
L 322.790475 169.109522 
L 323.715487 170.186559 
L 327.415535 174.646516 
L 329.181467 176.634198 
L 331.367859 179.226252 
L 334.563355 183.648141 
L 340.365703 191.772298 
L 354.156791 210.475551 
L 363.491003 222.29496 
L 371.563835 231.895806 
L 377.113907 238.132979 
L 382.832163 244.227239 
L 386.952671 248.397097 
L 391.661823 252.924808 
L 396.959619 257.701033 
L 403.518795 263.099804 
L 410.162063 267.829224 
L 413.273467 269.800304 
L 418.318987 272.73055 
L 423.028139 275.211631 
L 427.737291 277.491416 
L 433.371455 280.014996 
L 441.780655 283.511736 
L 452.292155 287.673771 
L 472.810603 295.160292 
L 482.144815 298.277573 
L 487.274427 299.911535 
L 501.065515 304.018724 
L 507.204231 305.712053 
L 518.136191 308.512774 
L 527.134035 310.610905 
L 544.204711 314.036195 
L 551.941175 315.303925 
L 564.639067 317.056689 
L 573.048267 318.036909 
L 584.316595 319.167899 
L 596.678119 320.214624 
L 607.946447 321.02478 
L 621.989811 321.883147 
L 660.251671 323.603096 
L 672.024551 324.001815 
L 672.024551 324.001815 
" clip-path="url(#pd3320b2d72)" style="fill: none; stroke: #1f77b4; stroke-width: 1.5; stroke-linecap: square"/>
   </g>
   <g id="line2d_16">
    <path d="M 66.730336 328.619996 
L 68.664452 328.516244 
L 72.196316 328.010203 
L 74.971352 327.563706 
L 77.325928 327.490279 
L 80.269148 327.378904 
L 81.362344 327.110154 
L 82.707816 326.51389 
L 83.632828 325.894977 
L 86.155588 323.02619 
L 87.248784 320.84339 
L 87.753336 319.399722 
L 88.005612 318.690463 
L 91.369292 307.504208 
L 91.621568 306.648878 
L 92.462488 303.697238 
L 93.303408 300.892314 
L 93.80796 299.276332 
L 94.22842 298.162694 
L 95.153432 296.082808 
L 95.657984 292.256584 
L 96.162536 290.059617 
L 96.667088 288.926604 
L 97.17164 288.390534 
L 97.676192 288.171665 
L 98.43302 288.123904 
L 98.685296 288.121243 
L 98.769388 287.675415 
L 99.526216 274.937988 
L 101.208056 228.491183 
L 101.628516 215.034824 
L 101.880792 207.937144 
L 102.469436 192.604629 
L 102.889896 183.329034 
L 103.142172 178.535317 
L 103.646724 170.031385 
L 104.067184 163.003387 
L 104.31946 159.438486 
L 104.73992 154.249011 
L 105.833116 142.831933 
L 107.514956 132.777611 
L 108.355876 129.70448 
L 109.953624 124.387035 
L 110.374084 122.256674 
L 111.04682 116.065324 
L 111.551372 107.875121 
L 111.971832 97.569561 
L 112.476384 90.886891 
L 112.980936 87.575378 
L 113.401396 86.204127 
L 113.737764 85.587906 
L 114.326408 85.177629 
L 114.999144 85.309543 
L 116.008248 86.179421 
L 117.017352 87.609633 
L 119.203744 91.172316 
L 123.492436 98.157572 
L 127.192484 103.835212 
L 127.44476 103.930009 
L 127.949312 104.174534 
L 128.537956 104.68939 
L 129.462968 105.751943 
L 135.181224 113.047122 
L 138.881272 116.988414 
L 141.656308 119.339624 
L 143.590424 120.552237 
L 144.010884 120.724464 
L 145.188172 121.673831 
L 146.36546 123.129561 
L 148.551852 126.28936 
L 153.261004 133.147324 
L 155.111028 134.94882 
L 159.904272 140.184659 
L 160.745192 140.922515 
L 163.18386 143.341864 
L 164.44524 144.577152 
L 166.463448 146.250782 
L 167.977104 147.883482 
L 169.0703 148.991556 
L 173.2749 152.790479 
L 174.53628 153.533907 
L 175.881752 154.748446 
L 177.143132 155.91327 
L 178.236328 156.944637 
L 180.00226 158.660773 
L 180.759088 159.276368 
L 181.768192 160.124762 
L 182.777296 160.759963 
L 184.038676 161.847895 
L 185.720516 163.562834 
L 186.561436 164.273218 
L 188.159184 165.349923 
L 189.25238 166.127046 
L 190.345576 166.666393 
L 191.859232 167.574451 
L 192.700152 168.127087 
L 193.372888 168.499976 
L 195.55928 170.197365 
L 198.838867 172.929143 
L 199.511603 173.304355 
L 204.304847 176.982432 
L 207.584435 180.569616 
L 212.545863 185.967776 
L 212.629955 185.913708 
L 213.050415 184.752302 
L 213.134507 184.61115 
L 213.302691 183.542813 
L 216.666371 159.488196 
L 216.918647 158.144786 
L 217.339107 156.202773 
L 218.264119 152.646321 
L 218.936855 150.820379 
L 219.777775 149.209674 
L 220.786879 147.785403 
L 221.795983 147.209725 
L 222.132351 147.094093 
L 222.468719 147.009482 
L 222.973271 146.825764 
L 223.561915 145.973384 
L 223.982375 144.941168 
L 224.066467 144.835909 
L 224.234651 143.870313 
L 224.823295 139.368284 
L 225.411939 128.424086 
L 225.832399 115.213798 
L 226.252859 107.952824 
L 226.673319 104.231174 
L 227.093779 102.425646 
L 227.514239 101.583959 
L 227.934699 101.332356 
L 228.271067 101.383167 
L 228.775619 101.670994 
L 229.700631 102.645353 
L 230.877919 104.372559 
L 234.409783 110.129405 
L 238.782567 117.074078 
L 241.473511 120.628803 
L 242.818983 122.303016 
L 244.837191 124.325135 
L 246.603123 125.570182 
L 247.275859 126.092117 
L 248.200871 127.065273 
L 249.294067 128.224858 
L 250.050895 128.853932 
L 251.059999 129.784767 
L 252.069103 130.795495 
L 252.910023 131.657107 
L 253.498667 132.194945 
L 255.685059 134.015733 
L 256.273703 134.404387 
L 257.030531 135.146887 
L 260.730579 139.159492 
L 262.496511 140.727376 
L 264.262443 142.238011 
L 265.439731 143.129011 
L 266.617019 144.162934 
L 270.148883 147.568048 
L 270.989803 148.250185 
L 271.914815 148.962832 
L 274.353483 150.733441 
L 274.773943 150.842338 
L 275.446679 151.306297 
L 276.960335 152.81744 
L 278.053531 153.832697 
L 279.314911 154.711834 
L 280.071739 155.032811 
L 280.744475 155.514643 
L 283.435419 157.843869 
L 283.939971 158.078064 
L 285.033167 158.924006 
L 285.705903 159.338585 
L 287.051375 160.145087 
L 287.640019 160.527615 
L 288.565031 161.430612 
L 290.583239 163.797076 
L 296.385587 170.6696 
L 297.394691 171.603765 
L 299.581083 174.02308 
L 302.692487 177.410305 
L 307.569823 182.391903 
L 308.831203 183.21198 
L 309.672123 183.555122 
L 310.765319 183.750943 
L 312.026699 183.483866 
L 313.119895 182.05293 
L 313.540355 181.135149 
L 313.708539 180.854348 
L 314.128999 179.821826 
L 314.297183 179.51003 
L 314.717643 178.412346 
L 315.054011 177.72757 
L 315.474471 176.849065 
L 316.735851 173.769725 
L 317.156311 172.619313 
L 317.324495 172.278359 
L 317.744955 171.120458 
L 318.081323 170.41176 
L 318.501783 169.517334 
L 319.594979 167.398002 
L 319.931347 166.959365 
L 320.351807 166.359279 
L 320.772267 163.379808 
L 321.276819 161.499971 
L 321.697279 160.796967 
L 322.033647 160.581456 
L 322.454107 160.614097 
L 323.042751 160.95451 
L 324.051855 161.860844 
L 326.070063 163.968469 
L 334.647447 173.322724 
L 340.449795 179.892095 
L 346.840787 186.858657 
L 353.231779 193.498758 
L 359.706863 199.908706 
L 366.266039 206.091563 
L 372.909307 212.050664 
L 379.636667 217.789592 
L 386.532211 223.378589 
L 393.511847 228.748502 
L 400.575575 233.903941 
L 407.807487 238.906292 
L 415.123491 243.697819 
L 422.607679 248.334595 
L 430.260051 252.813714 
L 438.080607 257.133012 
L 446.069347 261.291034 
L 454.226271 265.287001 
L 462.635471 269.158287 
L 471.296947 272.898339 
L 480.126607 276.468849 
L 489.208543 279.90272 
L 498.626847 283.225044 
L 508.297427 286.400654 
L 518.304375 289.452947 
L 528.731783 292.398876 
L 539.495559 295.207537 
L 550.679795 297.895363 
L 562.368583 300.473596 
L 574.561923 302.932786 
L 587.259815 305.265581 
L 600.546351 307.479986 
L 614.589715 309.592661 
L 629.305815 311.580328 
L 644.862835 313.456228 
L 661.428959 315.227288 
L 672.024551 316.249988 
L 672.024551 316.249988 
" clip-path="url(#pd3320b2d72)" style="fill: none; stroke: #ff7f0e; stroke-width: 1.5; stroke-linecap: square"/>
   </g>
   <g id="patch_3">
    <path d="M 36.465625 342.2 
L 36.465625 43.44 
" style="fill: none; stroke: #000000; stroke-width: 0.8; stroke-linejoin: miter; stroke-linecap: square"/>
   </g>
   <g id="patch_4">
    <path d="M 702.289261 342.2 
L 702.289261 43.44 
" style="fill: none; stroke: #000000; stroke-width: 0.8; stroke-linejoin: miter; stroke-linecap: square"/>
   </g>
   <g id="patch_5">
    <path d="M 36.465625 342.2 
L 702.289261 342.2 
" style="fill: none; stroke: #000000; stroke-width: 0.8; stroke-linejoin: miter; stroke-linecap: square"/>
   </g>
   <g id="patch_6">
    <path d="M 36.465625 43.44 
L 702.289261 43.44 
" style="fill: none; stroke: #000000; stroke-width: 0.8; stroke-linejoin: miter; stroke-linecap: square"/>
   </g>
   <g id="text_15">
    <!-- 1 transformation(s) -->
    <g transform="translate(311.262756 37.44) scale(0.12 -0.12)">
     <defs>
      <path id="DejaVuSans-20" transform="scale(0.015625)"/>
      <path id="DejaVuSans-74" d="M 1172 4494 
L 1172 3500 
L 2356 3500 
L 2356 3053 
L 1172 3053 
L 1172 1153 
Q 1172 725 1289 603 
Q 1406 481 1766 481 
L 2356 481 
L 2356 0 
L 1766 0 
Q 1100 0 847 248 
Q 594 497 594 1153 
L 594 3053 
L 172 3053 
L 172 3500 
L 594 3500 
L 594 4494 
L 1172 4494 
z
" transform="scale(0.015625)"/>
      <path id="DejaVuSans-72" d="M 2631 2963 
Q 2534 3019 2420 3045 
Q 2306 3072 2169 3072 
Q 1681 3072 1420 2755 
Q 1159 2438 1159 1844 
L 1159 0 
L 581 0 
L 581 3500 
L 1159 3500 
L 1159 2956 
Q 1341 3275 1631 3429 
Q 1922 3584 2338 3584 
Q 2397 3584 2469 3576 
Q 2541 3569 2628 3553 
L 2631 2963 
z
" transform="scale(0.015625)"/>
      <path id="DejaVuSans-61" d="M 2194 1759 
Q 1497 1759 1228 1600 
Q 959 1441 959 1056 
Q 959 750 1161 570 
Q 1363 391 1709 391 
Q 2188 391 2477 730 
Q 2766 1069 2766 1631 
L 2766 1759 
L 2194 1759 
z
M 3341 1997 
L 3341 0 
L 2766 0 
L 2766 531 
Q 2569 213 2275 61 
Q 1981 -91 1556 -91 
Q 1019 -91 701 211 
Q 384 513 384 1019 
Q 384 1609 779 1909 
Q 1175 2209 1959 2209 
L 2766 2209 
L 2766 2266 
Q 2766 2663 2505 2880 
Q 2244 3097 1772 3097 
Q 1472 3097 1187 3025 
Q 903 2953 641 2809 
L 641 3341 
Q 956 3463 1253 3523 
Q 1550 3584 1831 3584 
Q 2591 3584 2966 3190 
Q 3341 2797 3341 1997 
z
" transform="scale(0.015625)"/>
      <path id="DejaVuSans-6e" d="M 3513 2113 
L 3513 0 
L 2938 0 
L 2938 2094 
Q 2938 2591 2744 2837 
Q 2550 3084 2163 3084 
Q 1697 3084 1428 2787 
Q 1159 2491 1159 1978 
L 1159 0 
L 581 0 
L 581 3500 
L 1159 3500 
L 1159 2956 
Q 1366 3272 1645 3428 
Q 1925 3584 2291 3584 
Q 2894 3584 3203 3211 
Q 3513 2838 3513 2113 
z
" transform="scale(0.015625)"/>
      <path id="DejaVuSans-73" d="M 2834 3397 
L 2834 2853 
Q 2591 2978 2328 3040 
Q 2066 3103 1784 3103 
Q 1356 3103 1142 2972 
Q 928 2841 928 2578 
Q 928 2378 1081 2264 
Q 1234 2150 1697 2047 
L 1894 2003 
Q 2506 1872 2764 1633 
Q 3022 1394 3022 966 
Q 3022 478 2636 193 
Q 2250 -91 1575 -91 
Q 1294 -91 989 -36 
Q 684 19 347 128 
L 347 722 
Q 666 556 975 473 
Q 1284 391 1588 391 
Q 1994 391 2212 530 
Q 2431 669 2431 922 
Q 2431 1156 2273 1281 
Q 2116 1406 1581 1522 
L 1381 1569 
Q 847 1681 609 1914 
Q 372 2147 372 2553 
Q 372 3047 722 3315 
Q 1072 3584 1716 3584 
Q 2034 3584 2315 3537 
Q 2597 3491 2834 3397 
z
" transform="scale(0.015625)"/>
      <path id="DejaVuSans-66" d="M 2375 4863 
L 2375 4384 
L 1825 4384 
Q 1516 4384 1395 4259 
Q 1275 4134 1275 3809 
L 1275 3500 
L 2222 3500 
L 2222 3053 
L 1275 3053 
L 1275 0 
L 697 0 
L 697 3053 
L 147 3053 
L 147 3500 
L 697 3500 
L 697 3744 
Q 697 4328 969 4595 
Q 1241 4863 1831 4863 
L 2375 4863 
z
" transform="scale(0.015625)"/>
      <path id="DejaVuSans-6f" d="M 1959 3097 
Q 1497 3097 1228 2736 
Q 959 2375 959 1747 
Q 959 1119 1226 758 
Q 1494 397 1959 397 
Q 2419 397 2687 759 
Q 2956 1122 2956 1747 
Q 2956 2369 2687 2733 
Q 2419 3097 1959 3097 
z
M 1959 3584 
Q 2709 3584 3137 3096 
Q 3566 2609 3566 1747 
Q 3566 888 3137 398 
Q 2709 -91 1959 -91 
Q 1206 -91 779 398 
Q 353 888 353 1747 
Q 353 2609 779 3096 
Q 1206 3584 1959 3584 
z
" transform="scale(0.015625)"/>
      <path id="DejaVuSans-6d" d="M 3328 2828 
Q 3544 3216 3844 3400 
Q 4144 3584 4550 3584 
Q 5097 3584 5394 3201 
Q 5691 2819 5691 2113 
L 5691 0 
L 5113 0 
L 5113 2094 
Q 5113 2597 4934 2840 
Q 4756 3084 4391 3084 
Q 3944 3084 3684 2787 
Q 3425 2491 3425 1978 
L 3425 0 
L 2847 0 
L 2847 2094 
Q 2847 2600 2669 2842 
Q 2491 3084 2119 3084 
Q 1678 3084 1418 2786 
Q 1159 2488 1159 1978 
L 1159 0 
L 581 0 
L 581 3500 
L 1159 3500 
L 1159 2956 
Q 1356 3278 1631 3431 
Q 1906 3584 2284 3584 
Q 2666 3584 2933 3390 
Q 3200 3197 3328 2828 
z
" transform="scale(0.015625)"/>
      <path id="DejaVuSans-69" d="M 603 3500 
L 1178 3500 
L 1178 0 
L 603 0 
L 603 3500 
z
M 603 4863 
L 1178 4863 
L 1178 4134 
L 603 4134 
L 603 4863 
z
" transform="scale(0.015625)"/>
      <path id="DejaVuSans-28" d="M 1984 4856 
Q 1566 4138 1362 3434 
Q 1159 2731 1159 2009 
Q 1159 1288 1364 580 
Q 1569 -128 1984 -844 
L 1484 -844 
Q 1016 -109 783 600 
Q 550 1309 550 2009 
Q 550 2706 781 3412 
Q 1013 4119 1484 4856 
L 1984 4856 
z
" transform="scale(0.015625)"/>
      <path id="DejaVuSans-29" d="M 513 4856 
L 1013 4856 
Q 1481 4119 1714 3412 
Q 1947 2706 1947 2009 
Q 1947 1309 1714 600 
Q 1481 -109 1013 -844 
L 513 -844 
Q 928 -128 1133 580 
Q 1338 1288 1338 2009 
Q 1338 2731 1133 3434 
Q 928 4138 513 4856 
z
" transform="scale(0.015625)"/>
     </defs>
     <use xlink:href="#DejaVuSans-31"/>
     <use xlink:href="#DejaVuSans-20" x="63.623047"/>
     <use xlink:href="#DejaVuSans-74" x="95.410156"/>
     <use xlink:href="#DejaVuSans-72" x="134.619141"/>
     <use xlink:href="#DejaVuSans-61" x="175.732422"/>
     <use xlink:href="#DejaVuSans-6e" x="237.011719"/>
     <use xlink:href="#DejaVuSans-73" x="300.390625"/>
     <use xlink:href="#DejaVuSans-66" x="352.490234"/>
     <use xlink:href="#DejaVuSans-6f" x="387.695312"/>
     <use xlink:href="#DejaVuSans-72" x="448.876953"/>
     <use xlink:href="#DejaVuSans-6d" x="488.240234"/>
     <use xlink:href="#DejaVuSans-61" x="585.652344"/>
     <use xlink:href="#DejaVuSans-74" x="646.931641"/>
     <use xlink:href="#DejaVuSans-69" x="686.140625"/>
     <use xlink:href="#DejaVuSans-6f" x="713.923828"/>
     <use xlink:href="#DejaVuSans-6e" x="775.105469"/>
     <use xlink:href="#DejaVuSans-28" x="838.484375"/>
     <use xlink:href="#DejaVuSans-73" x="877.498047"/>
     <use xlink:href="#DejaVuSans-29" x="929.597656"/>
    </g>
   </g>
   <g id="legend_1">
    <g id="patch_7">
     <path d="M 613.895511 80.79625 
L 695.289261 80.79625 
Q 697.289261 80.79625 697.289261 78.79625 
L 697.289261 50.44 
Q 697.289261 48.44 695.289261 48.44 
L 613.895511 48.44 
Q 611.895511 48.44 611.895511 50.44 
L 611.895511 78.79625 
Q 611.895511 80.79625 613.895511 80.79625 
z
" style="fill: #ffffff; opacity: 0.8; stroke: #cccccc; stroke-linejoin: miter"/>
    </g>
    <g id="line2d_17">
     <path d="M 615.895511 56.538437 
L 625.895511 56.538437 
L 635.895511 56.538437 
" style="fill: none; stroke: #1f77b4; stroke-width: 1.5; stroke-linecap: square"/>
    </g>
    <g id="text_16">
     <!-- observed -->
     <g transform="translate(643.895511 60.038437) scale(0.1 -0.1)">
      <defs>
       <path id="DejaVuSans-62" d="M 3116 1747 
Q 3116 2381 2855 2742 
Q 2594 3103 2138 3103 
Q 1681 3103 1420 2742 
Q 1159 2381 1159 1747 
Q 1159 1113 1420 752 
Q 1681 391 2138 391 
Q 2594 391 2855 752 
Q 3116 1113 3116 1747 
z
M 1159 2969 
Q 1341 3281 1617 3432 
Q 1894 3584 2278 3584 
Q 2916 3584 3314 3078 
Q 3713 2572 3713 1747 
Q 3713 922 3314 415 
Q 2916 -91 2278 -91 
Q 1894 -91 1617 61 
Q 1341 213 1159 525 
L 1159 0 
L 581 0 
L 581 4863 
L 1159 4863 
L 1159 2969 
z
" transform="scale(0.015625)"/>
       <path id="DejaVuSans-65" d="M 3597 1894 
L 3597 1613 
L 953 1613 
Q 991 1019 1311 708 
Q 1631 397 2203 397 
Q 2534 397 2845 478 
Q 3156 559 3463 722 
L 3463 178 
Q 3153 47 2828 -22 
Q 2503 -91 2169 -91 
Q 1331 -91 842 396 
Q 353 884 353 1716 
Q 353 2575 817 3079 
Q 1281 3584 2069 3584 
Q 2775 3584 3186 3129 
Q 3597 2675 3597 1894 
z
M 3022 2063 
Q 3016 2534 2758 2815 
Q 2500 3097 2075 3097 
Q 1594 3097 1305 2825 
Q 1016 2553 972 2059 
L 3022 2063 
z
" transform="scale(0.015625)"/>
       <path id="DejaVuSans-76" d="M 191 3500 
L 800 3500 
L 1894 563 
L 2988 3500 
L 3597 3500 
L 2284 0 
L 1503 0 
L 191 3500 
z
" transform="scale(0.015625)"/>
       <path id="DejaVuSans-64" d="M 2906 2969 
L 2906 4863 
L 3481 4863 
L 3481 0 
L 2906 0 
L 2906 525 
Q 2725 213 2448 61 
Q 2172 -91 1784 -91 
Q 1150 -91 751 415 
Q 353 922 353 1747 
Q 353 2572 751 3078 
Q 1150 3584 1784 3584 
Q 2172 3584 2448 3432 
Q 2725 3281 2906 2969 
z
M 947 1747 
Q 947 1113 1208 752 
Q 1469 391 1925 391 
Q 2381 391 2643 752 
Q 2906 1113 2906 1747 
Q 2906 2381 2643 2742 
Q 2381 3103 1925 3103 
Q 1469 3103 1208 2742 
Q 947 2381 947 1747 
z
" transform="scale(0.015625)"/>
      </defs>
      <use xlink:href="#DejaVuSans-6f"/>
      <use xlink:href="#DejaVuSans-62" x="61.181641"/>
      <use xlink:href="#DejaVuSans-73" x="124.658203"/>
      <use xlink:href="#DejaVuSans-65" x="176.757812"/>
      <use xlink:href="#DejaVuSans-72" x="238.28125"/>
      <use xlink:href="#DejaVuSans-76" x="279.394531"/>
      <use xlink:href="#DejaVuSans-65" x="338.574219"/>
      <use xlink:href="#DejaVuSans-64" x="400.097656"/>
     </g>
    </g>
    <g id="line2d_18">
     <path d="M 615.895511 71.216563 
L 625.895511 71.216563 
L 635.895511 71.216563 
" style="fill: none; stroke: #ff7f0e; stroke-width: 1.5; stroke-linecap: square"/>
    </g>
    <g id="text_17">
     <!-- simulated -->
     <g transform="translate(643.895511 74.716563) scale(0.1 -0.1)">
      <defs>
       <path id="DejaVuSans-75" d="M 544 1381 
L 544 3500 
L 1119 3500 
L 1119 1403 
Q 1119 906 1312 657 
Q 1506 409 1894 409 
Q 2359 409 2629 706 
Q 2900 1003 2900 1516 
L 2900 3500 
L 3475 3500 
L 3475 0 
L 2900 0 
L 2900 538 
Q 2691 219 2414 64 
Q 2138 -91 1772 -91 
Q 1169 -91 856 284 
Q 544 659 544 1381 
z
M 1991 3584 
L 1991 3584 
z
" transform="scale(0.015625)"/>
       <path id="DejaVuSans-6c" d="M 603 4863 
L 1178 4863 
L 1178 0 
L 603 0 
L 603 4863 
z
" transform="scale(0.015625)"/>
      </defs>
      <use xlink:href="#DejaVuSans-73"/>
      <use xlink:href="#DejaVuSans-69" x="52.099609"/>
      <use xlink:href="#DejaVuSans-6d" x="79.882812"/>
      <use xlink:href="#DejaVuSans-75" x="177.294922"/>
      <use xlink:href="#DejaVuSans-6c" x="240.673828"/>
      <use xlink:href="#DejaVuSans-61" x="268.457031"/>
      <use xlink:href="#DejaVuSans-74" x="329.736328"/>
      <use xlink:href="#DejaVuSans-65" x="368.945312"/>
      <use xlink:href="#DejaVuSans-64" x="430.46875"/>
     </g>
    </g>
   </g>
  </g>
  <g id="axes_2">
   <g id="patch_8">
    <path d="M 36.465625 684.92 
L 702.289261 684.92 
L 702.289261 386.16 
L 36.465625 386.16 
z
" style="fill: #ffffff"/>
   </g>
   <g id="matplotlib.axis_3">
    <g id="xtick_7">
     <g id="line2d_19">
      <g>
       <use xlink:href="#mf09ebcc221" x="66.562152" y="684.92" style="stroke: #000000; stroke-width: 0.8"/>
      </g>
     </g>
     <g id="text_18">
      <!-- 2014-07-01 -->
      <g transform="translate(37.504339 699.518437) scale(0.1 -0.1)">
       <use xlink:href="#DejaVuSans-32"/>
       <use xlink:href="#DejaVuSans-30" x="63.623047"/>
       <use xlink:href="#DejaVuSans-31" x="127.246094"/>
       <use xlink:href="#DejaVuSans-34" x="190.869141"/>
       <use xlink:href="#DejaVuSans-2d" x="254.492188"/>
       <use xlink:href="#DejaVuSans-30" x="290.576172"/>
       <use xlink:href="#DejaVuSans-37" x="354.199219"/>
       <use xlink:href="#DejaVuSans-2d" x="417.822266"/>
       <use xlink:href="#DejaVuSans-30" x="453.90625"/>
       <use xlink:href="#DejaVuSans-31" x="517.529297"/>
      </g>
     </g>
    </g>
    <g id="xtick_8">
     <g id="line2d_20">
      <g>
       <use xlink:href="#mf09ebcc221" x="187.654632" y="684.92" style="stroke: #000000; stroke-width: 0.8"/>
      </g>
     </g>
     <g id="text_19">
      <!-- 2014-07-02 -->
      <g transform="translate(158.596819 699.518437) scale(0.1 -0.1)">
       <use xlink:href="#DejaVuSans-32"/>
       <use xlink:href="#DejaVuSans-30" x="63.623047"/>
       <use xlink:href="#DejaVuSans-31" x="127.246094"/>
       <use xlink:href="#DejaVuSans-34" x="190.869141"/>
       <use xlink:href="#DejaVuSans-2d" x="254.492188"/>
       <use xlink:href="#DejaVuSans-30" x="290.576172"/>
       <use xlink:href="#DejaVuSans-37" x="354.199219"/>
       <use xlink:href="#DejaVuSans-2d" x="417.822266"/>
       <use xlink:href="#DejaVuSans-30" x="453.90625"/>
       <use xlink:href="#DejaVuSans-32" x="517.529297"/>
      </g>
     </g>
    </g>
    <g id="xtick_9">
     <g id="line2d_21">
      <g>
       <use xlink:href="#mf09ebcc221" x="308.747111" y="684.92" style="stroke: #000000; stroke-width: 0.8"/>
      </g>
     </g>
     <g id="text_20">
      <!-- 2014-07-03 -->
      <g transform="translate(279.689299 699.518437) scale(0.1 -0.1)">
       <use xlink:href="#DejaVuSans-32"/>
       <use xlink:href="#DejaVuSans-30" x="63.623047"/>
       <use xlink:href="#DejaVuSans-31" x="127.246094"/>
       <use xlink:href="#DejaVuSans-34" x="190.869141"/>
       <use xlink:href="#DejaVuSans-2d" x="254.492188"/>
       <use xlink:href="#DejaVuSans-30" x="290.576172"/>
       <use xlink:href="#DejaVuSans-37" x="354.199219"/>
       <use xlink:href="#DejaVuSans-2d" x="417.822266"/>
       <use xlink:href="#DejaVuSans-30" x="453.90625"/>
       <use xlink:href="#DejaVuSans-33" x="517.529297"/>
      </g>
     </g>
    </g>
    <g id="xtick_10">
     <g id="line2d_22">
      <g>
       <use xlink:href="#mf09ebcc221" x="429.839591" y="684.92" style="stroke: #000000; stroke-width: 0.8"/>
      </g>
     </g>
     <g id="text_21">
      <!-- 2014-07-04 -->
      <g transform="translate(400.781779 699.518437) scale(0.1 -0.1)">
       <use xlink:href="#DejaVuSans-32"/>
       <use xlink:href="#DejaVuSans-30" x="63.623047"/>
       <use xlink:href="#DejaVuSans-31" x="127.246094"/>
       <use xlink:href="#DejaVuSans-34" x="190.869141"/>
       <use xlink:href="#DejaVuSans-2d" x="254.492188"/>
       <use xlink:href="#DejaVuSans-30" x="290.576172"/>
       <use xlink:href="#DejaVuSans-37" x="354.199219"/>
       <use xlink:href="#DejaVuSans-2d" x="417.822266"/>
       <use xlink:href="#DejaVuSans-30" x="453.90625"/>
       <use xlink:href="#DejaVuSans-34" x="517.529297"/>
      </g>
     </g>
    </g>
    <g id="xtick_11">
     <g id="line2d_23">
      <g>
       <use xlink:href="#mf09ebcc221" x="550.932071" y="684.92" style="stroke: #000000; stroke-width: 0.8"/>
      </g>
     </g>
     <g id="text_22">
      <!-- 2014-07-05 -->
      <g transform="translate(521.874258 699.518437) scale(0.1 -0.1)">
       <use xlink:href="#DejaVuSans-32"/>
       <use xlink:href="#DejaVuSans-30" x="63.623047"/>
       <use xlink:href="#DejaVuSans-31" x="127.246094"/>
       <use xlink:href="#DejaVuSans-34" x="190.869141"/>
       <use xlink:href="#DejaVuSans-2d" x="254.492188"/>
       <use xlink:href="#DejaVuSans-30" x="290.576172"/>
       <use xlink:href="#DejaVuSans-37" x="354.199219"/>
       <use xlink:href="#DejaVuSans-2d" x="417.822266"/>
       <use xlink:href="#DejaVuSans-30" x="453.90625"/>
       <use xlink:href="#DejaVuSans-35" x="517.529297"/>
      </g>
     </g>
    </g>
    <g id="xtick_12">
     <g id="line2d_24">
      <g>
       <use xlink:href="#mf09ebcc221" x="672.024551" y="684.92" style="stroke: #000000; stroke-width: 0.8"/>
      </g>
     </g>
     <g id="text_23">
      <!-- 2014-07-06 -->
      <g transform="translate(642.966738 699.518437) scale(0.1 -0.1)">
       <use xlink:href="#DejaVuSans-32"/>
       <use xlink:href="#DejaVuSans-30" x="63.623047"/>
       <use xlink:href="#DejaVuSans-31" x="127.246094"/>
       <use xlink:href="#DejaVuSans-34" x="190.869141"/>
       <use xlink:href="#DejaVuSans-2d" x="254.492188"/>
       <use xlink:href="#DejaVuSans-30" x="290.576172"/>
       <use xlink:href="#DejaVuSans-37" x="354.199219"/>
       <use xlink:href="#DejaVuSans-2d" x="417.822266"/>
       <use xlink:href="#DejaVuSans-30" x="453.90625"/>
       <use xlink:href="#DejaVuSans-36" x="517.529297"/>
      </g>
     </g>
    </g>
   </g>
   <g id="matplotlib.axis_4">
    <g id="ytick_9">
     <g id="line2d_25">
      <g>
       <use xlink:href="#md692009ace" x="36.465625" y="671.340414" style="stroke: #000000; stroke-width: 0.8"/>
      </g>
     </g>
     <g id="text_24">
      <!-- 0.00 -->
      <g transform="translate(7.2 675.139633) scale(0.1 -0.1)">
       <use xlink:href="#DejaVuSans-30"/>
       <use xlink:href="#DejaVuSans-2e" x="63.623047"/>
       <use xlink:href="#DejaVuSans-30" x="95.410156"/>
       <use xlink:href="#DejaVuSans-30" x="159.033203"/>
      </g>
     </g>
    </g>
    <g id="ytick_10">
     <g id="line2d_26">
      <g>
       <use xlink:href="#md692009ace" x="36.465625" y="632.416518" style="stroke: #000000; stroke-width: 0.8"/>
      </g>
     </g>
     <g id="text_25">
      <!-- 0.25 -->
      <g transform="translate(7.2 636.215737) scale(0.1 -0.1)">
       <use xlink:href="#DejaVuSans-30"/>
       <use xlink:href="#DejaVuSans-2e" x="63.623047"/>
       <use xlink:href="#DejaVuSans-32" x="95.410156"/>
       <use xlink:href="#DejaVuSans-35" x="159.033203"/>
      </g>
     </g>
    </g>
    <g id="ytick_11">
     <g id="line2d_27">
      <g>
       <use xlink:href="#md692009ace" x="36.465625" y="593.492621" style="stroke: #000000; stroke-width: 0.8"/>
      </g>
     </g>
     <g id="text_26">
      <!-- 0.50 -->
      <g transform="translate(7.2 597.29184) scale(0.1 -0.1)">
       <use xlink:href="#DejaVuSans-30"/>
       <use xlink:href="#DejaVuSans-2e" x="63.623047"/>
       <use xlink:href="#DejaVuSans-35" x="95.410156"/>
       <use xlink:href="#DejaVuSans-30" x="159.033203"/>
      </g>
     </g>
    </g>
    <g id="ytick_12">
     <g id="line2d_28">
      <g>
       <use xlink:href="#md692009ace" x="36.465625" y="554.568725" style="stroke: #000000; stroke-width: 0.8"/>
      </g>
     </g>
     <g id="text_27">
      <!-- 0.75 -->
      <g transform="translate(7.2 558.367943) scale(0.1 -0.1)">
       <use xlink:href="#DejaVuSans-30"/>
       <use xlink:href="#DejaVuSans-2e" x="63.623047"/>
       <use xlink:href="#DejaVuSans-37" x="95.410156"/>
       <use xlink:href="#DejaVuSans-35" x="159.033203"/>
      </g>
     </g>
    </g>
    <g id="ytick_13">
     <g id="line2d_29">
      <g>
       <use xlink:href="#md692009ace" x="36.465625" y="515.644828" style="stroke: #000000; stroke-width: 0.8"/>
      </g>
     </g>
     <g id="text_28">
      <!-- 1.00 -->
      <g transform="translate(7.2 519.444047) scale(0.1 -0.1)">
       <use xlink:href="#DejaVuSans-31"/>
       <use xlink:href="#DejaVuSans-2e" x="63.623047"/>
       <use xlink:href="#DejaVuSans-30" x="95.410156"/>
       <use xlink:href="#DejaVuSans-30" x="159.033203"/>
      </g>
     </g>
    </g>
    <g id="ytick_14">
     <g id="line2d_30">
      <g>
       <use xlink:href="#md692009ace" x="36.465625" y="476.720932" style="stroke: #000000; stroke-width: 0.8"/>
      </g>
     </g>
     <g id="text_29">
      <!-- 1.25 -->
      <g transform="translate(7.2 480.52015) scale(0.1 -0.1)">
       <use xlink:href="#DejaVuSans-31"/>
       <use xlink:href="#DejaVuSans-2e" x="63.623047"/>
       <use xlink:href="#DejaVuSans-32" x="95.410156"/>
       <use xlink:href="#DejaVuSans-35" x="159.033203"/>
      </g>
     </g>
    </g>
    <g id="ytick_15">
     <g id="line2d_31">
      <g>
       <use xlink:href="#md692009ace" x="36.465625" y="437.797035" style="stroke: #000000; stroke-width: 0.8"/>
      </g>
     </g>
     <g id="text_30">
      <!-- 1.50 -->
      <g transform="translate(7.2 441.596254) scale(0.1 -0.1)">
       <use xlink:href="#DejaVuSans-31"/>
       <use xlink:href="#DejaVuSans-2e" x="63.623047"/>
       <use xlink:href="#DejaVuSans-35" x="95.410156"/>
       <use xlink:href="#DejaVuSans-30" x="159.033203"/>
      </g>
     </g>
    </g>
    <g id="ytick_16">
     <g id="line2d_32">
      <g>
       <use xlink:href="#md692009ace" x="36.465625" y="398.873138" style="stroke: #000000; stroke-width: 0.8"/>
      </g>
     </g>
     <g id="text_31">
      <!-- 1.75 -->
      <g transform="translate(7.2 402.672357) scale(0.1 -0.1)">
       <use xlink:href="#DejaVuSans-31"/>
       <use xlink:href="#DejaVuSans-2e" x="63.623047"/>
       <use xlink:href="#DejaVuSans-37" x="95.410156"/>
       <use xlink:href="#DejaVuSans-35" x="159.033203"/>
      </g>
     </g>
    </g>
   </g>
   <g id="line2d_33">
    <path d="M 66.730336 671.34 
L 69.757648 671.214307 
L 76.232732 670.633158 
L 81.19416 670.393603 
L 82.707816 669.939937 
L 83.044184 669.73164 
L 84.221472 668.049596 
L 84.641932 667.222829 
L 84.894208 666.750956 
L 85.230576 665.976365 
L 85.482852 665.411247 
L 85.903312 664.393335 
L 86.071496 663.909616 
L 86.491956 662.787508 
L 86.66014 662.123975 
L 86.996508 660.752686 
L 87.164692 660.29556 
L 87.585152 658.285912 
L 87.92152 657.146015 
L 88.257888 655.724808 
L 88.426072 655.250068 
L 88.846532 653.277327 
L 89.098808 652.307903 
L 89.435176 650.817519 
L 89.60336 650.344037 
L 90.02382 648.369813 
L 90.192004 647.894712 
L 90.612464 645.961342 
L 90.948832 644.855516 
L 91.2852 643.515773 
L 91.453384 643.08221 
L 91.873844 641.168809 
L 92.12612 640.24519 
L 92.462488 638.815388 
L 92.630672 638.372261 
L 93.051132 636.485501 
L 93.303408 635.604445 
L 93.723868 634.222652 
L 93.976144 633.589841 
L 94.312512 632.639586 
L 94.64888 631.819821 
L 95.06934 630.821575 
L 95.405708 626.604434 
L 95.742076 624.939259 
L 96.078444 624.025787 
L 96.582996 623.379887 
L 97.087548 623.142398 
L 97.760284 623.108906 
L 98.601204 623.255774 
L 98.685296 622.837043 
L 99.021664 615.764093 
L 99.27394 613.345414 
L 99.610308 602.75832 
L 99.946676 598.200406 
L 100.283044 585.648076 
L 100.53532 580.61923 
L 100.95578 564.943836 
L 101.208056 557.336538 
L 101.544424 546.329317 
L 101.7967 539.353183 
L 102.133068 529.237963 
L 102.385344 523.08163 
L 102.721712 514.263065 
L 103.05808 508.037103 
L 103.394448 500.933033 
L 103.646724 496.275626 
L 103.983092 489.857286 
L 104.235368 485.818496 
L 104.655828 479.311587 
L 104.824012 476.796936 
L 105.244472 471.277456 
L 105.496748 467.96794 
L 105.833116 464.609034 
L 106.085392 462.555924 
L 106.42176 459.595454 
L 106.674036 457.840238 
L 107.010404 455.434333 
L 107.26268 454.009064 
L 107.599048 452.096085 
L 107.851324 450.980849 
L 108.187692 449.529688 
L 108.439968 448.660748 
L 108.776336 447.646034 
L 109.028612 447.237669 
L 109.449072 445.61 
L 109.617256 445.248296 
L 109.953624 443.389234 
L 110.2059 442.677129 
L 110.542268 439.807976 
L 110.794544 438.626238 
L 111.130912 433.167413 
L 111.383188 430.53316 
L 111.803648 416.894933 
L 112.3082 409.852464 
L 112.812752 406.325049 
L 113.233212 404.758629 
L 113.737764 403.425902 
L 115.167328 400.608179 
L 115.587788 400.007065 
L 116.008248 399.749744 
L 116.5128 399.783134 
L 117.269628 400.124162 
L 118.19464 400.800613 
L 119.287836 401.811448 
L 120.381032 402.957234 
L 123.156068 406.295167 
L 127.192484 411.586558 
L 127.276576 411.493497 
L 127.528852 411.313257 
L 127.86522 411.380835 
L 128.28568 411.657867 
L 129.631152 413.044456 
L 131.144808 414.806205 
L 133.247108 417.191249 
L 138.040352 421.767046 
L 138.881272 422.347781 
L 141.067664 423.837417 
L 141.488124 424.005258 
L 141.824492 424.148024 
L 142.16086 424.329433 
L 142.497228 424.481369 
L 144.347252 425.175081 
L 145.019988 425.757653 
L 146.029092 426.993662 
L 147.542748 429.225378 
L 150.822336 434.569203 
L 153.261004 438.443789 
L 154.186016 439.28875 
L 155.783764 441.164274 
L 157.71788 443.466909 
L 159.904272 445.84735 
L 160.408824 446.29471 
L 162.7634 448.787255 
L 163.267952 449.379479 
L 164.108872 450.381126 
L 164.613424 450.702852 
L 165.622528 451.552229 
L 167.136184 453.166071 
L 169.658944 456.120064 
L 170.079404 456.427423 
L 171.004416 457.465356 
L 172.097612 458.74565 
L 172.770348 459.257841 
L 175.040832 460.988261 
L 175.713568 461.729283 
L 176.806764 463.003118 
L 177.4795 463.605569 
L 178.32042 464.622509 
L 179.413616 465.924407 
L 181.26364 467.698239 
L 182.356836 468.537632 
L 182.777296 468.834133 
L 184.122768 470.296133 
L 185.636424 472.254474 
L 186.225068 472.835728 
L 187.065988 473.533245 
L 187.57054 473.816606 
L 189.504656 475.445259 
L 189.925116 475.575627 
L 193.625164 478.339748 
L 194.634268 479.318361 
L 196.063832 480.86017 
L 196.904752 481.710847 
L 197.829764 482.873116 
L 198.166131 483.190553 
L 198.922959 483.588785 
L 199.427511 483.964576 
L 202.034363 486.375344 
L 203.211651 487.37855 
L 204.473031 489.090391 
L 208.173079 494.704194 
L 212.545863 501.342511 
L 212.882231 499.624509 
L 213.134507 499.047597 
L 213.470875 496.466575 
L 213.807243 494.893287 
L 214.059519 493.26044 
L 214.311795 492.5101 
L 214.648163 490.39808 
L 215.068623 489.094604 
L 215.404991 487.788567 
L 215.573175 487.464113 
L 215.909543 485.86061 
L 216.161819 485.412971 
L 216.498187 484.04665 
L 216.834555 483.272071 
L 217.170923 482.380264 
L 217.339107 482.200971 
L 217.675475 481.217717 
L 218.180027 480.498355 
L 218.432303 480.148083 
L 218.600487 480.044869 
L 219.020947 479.328124 
L 219.189131 479.257186 
L 219.525499 478.705609 
L 219.861867 478.456882 
L 220.198235 478.140131 
L 220.366419 478.119566 
L 220.702787 477.772617 
L 222.889179 477.282401 
L 223.141455 476.842669 
L 223.393731 476.676405 
L 223.730099 475.393328 
L 224.066467 474.934404 
L 224.402835 472.713527 
L 224.655111 471.955986 
L 224.991479 467.685785 
L 225.159663 466.997846 
L 225.243755 465.915665 
L 225.580123 454.996067 
L 225.916491 450.671317 
L 226.252859 448.664497 
L 226.589227 447.915716 
L 226.841503 447.801496 
L 227.514239 448.179274 
L 229.532447 449.979406 
L 231.130195 452.074555 
L 232.223391 453.671043 
L 234.746151 457.629559 
L 239.371211 464.831406 
L 240.884867 466.667137 
L 242.146247 468.191073 
L 242.818983 468.897146 
L 243.407627 469.32524 
L 244.416731 470.192863 
L 244.753099 470.391774 
L 245.173559 470.661846 
L 245.425835 470.728923 
L 246.266755 471.027597 
L 247.696319 472.059367 
L 248.705423 473.142346 
L 249.125883 473.488775 
L 249.714527 473.836744 
L 250.555447 474.371431 
L 253.414575 476.91227 
L 253.835035 477.105873 
L 254.171403 477.268332 
L 255.685059 478.381842 
L 256.021427 478.511802 
L 256.694163 479.081846 
L 257.619175 480.201556 
L 258.291911 480.8897 
L 259.048739 481.721167 
L 260.394211 483.131067 
L 260.898763 483.386514 
L 263.253339 485.371841 
L 263.589707 485.589499 
L 264.514719 486.068504 
L 265.944283 487.071172 
L 266.364743 487.439948 
L 267.289755 488.278598 
L 267.962491 488.860261 
L 269.812515 490.70865 
L 273.764839 493.479897 
L 274.101207 493.527208 
L 274.353483 493.572606 
L 274.605759 493.542056 
L 275.026219 493.756261 
L 275.783047 494.461258 
L 278.389899 497.086602 
L 278.642175 497.253998 
L 278.978543 497.369685 
L 279.230819 497.451406 
L 279.567187 497.472881 
L 280.744475 498.180624 
L 282.005855 499.389999 
L 283.267235 500.439086 
L 283.519511 500.467725 
L 283.855879 500.579013 
L 284.528615 501.145939 
L 285.201351 501.673647 
L 285.621811 501.781612 
L 286.546823 502.306203 
L 286.883191 502.424246 
L 287.808203 503.09344 
L 288.817307 504.34116 
L 291.003699 507.45854 
L 296.049219 514.963514 
L 296.974231 515.855878 
L 298.403795 517.70848 
L 306.392535 528.54593 
L 307.653915 529.764743 
L 309.503939 530.655844 
L 309.840307 530.672706 
L 310.092583 530.690923 
L 310.428951 530.635484 
L 310.681227 530.605945 
L 311.017595 530.481136 
L 311.185779 530.497469 
L 311.522147 530.22658 
L 311.858515 530.218284 
L 312.194883 529.512405 
L 312.447159 529.324157 
L 312.783527 528.430021 
L 313.119895 527.87115 
L 313.372171 527.216331 
L 313.624447 526.929824 
L 313.960815 525.982346 
L 314.297183 525.388915 
L 314.549459 524.739135 
L 314.969919 524.179169 
L 315.222195 523.571745 
L 315.558563 523.041095 
L 315.810839 522.39318 
L 316.147207 521.827201 
L 316.399483 521.186395 
L 316.651759 520.9192 
L 316.988127 519.965726 
L 317.240403 519.719625 
L 317.576771 518.77262 
L 317.997231 518.221832 
L 318.249507 517.635436 
L 318.585875 517.177988 
L 318.838151 516.662066 
L 319.174519 516.321158 
L 319.426795 515.929321 
L 320.183623 515.451875 
L 320.267715 515.248026 
L 320.604083 512.156668 
L 320.940451 511.262913 
L 321.276819 510.876467 
L 321.613187 510.871011 
L 322.033647 511.073114 
L 322.790475 511.829653 
L 323.715487 512.906692 
L 327.415535 517.366654 
L 329.181467 519.354339 
L 331.367859 521.946395 
L 334.563355 526.36829 
L 340.365703 534.492456 
L 354.156791 553.195731 
L 363.491003 565.015154 
L 371.563835 574.616011 
L 377.113907 580.853192 
L 382.832163 586.947459 
L 386.952671 591.117322 
L 391.661823 595.645038 
L 396.959619 600.421269 
L 403.518795 605.820046 
L 410.162063 610.549472 
L 413.273467 612.520554 
L 418.318987 615.450803 
L 423.028139 617.931887 
L 427.737291 620.211675 
L 433.371455 622.735258 
L 441.780655 626.232002 
L 452.292155 630.394042 
L 472.810603 637.880572 
L 482.144815 640.997856 
L 487.274427 642.63182 
L 501.065515 646.739014 
L 507.204231 648.432345 
L 518.136191 651.233069 
L 527.134035 653.331203 
L 544.204711 656.756497 
L 551.941175 658.024228 
L 564.639067 659.776994 
L 573.048267 660.757216 
L 584.316595 661.888207 
L 596.678119 662.934934 
L 607.946447 663.74509 
L 621.989811 664.603458 
L 660.251671 666.323409 
L 672.024551 666.722129 
L 672.024551 666.722129 
" clip-path="url(#p6c01d55e8e)" style="fill: none; stroke: #1f77b4; stroke-width: 1.5; stroke-linecap: square"/>
   </g>
   <g id="patch_9">
    <path d="M 36.465625 684.92 
L 36.465625 386.16 
" style="fill: none; stroke: #000000; stroke-width: 0.8; stroke-linejoin: miter; stroke-linecap: square"/>
   </g>
   <g id="patch_10">
    <path d="M 702.289261 684.92 
L 702.289261 386.16 
" style="fill: none; stroke: #000000; stroke-width: 0.8; stroke-linejoin: miter; stroke-linecap: square"/>
   </g>
   <g id="patch_11">
    <path d="M 36.465625 684.92 
L 702.289261 684.92 
" style="fill: none; stroke: #000000; stroke-width: 0.8; stroke-linejoin: miter; stroke-linecap: square"/>
   </g>
   <g id="patch_12">
    <path d="M 36.465625 386.16 
L 702.289261 386.16 
" style="fill: none; stroke: #000000; stroke-width: 0.8; stroke-linejoin: miter; stroke-linecap: square"/>
   </g>
   <g id="text_32">
    <!-- 2 transformation(s) -->
    <g transform="translate(311.262756 380.16) scale(0.12 -0.12)">
     <use xlink:href="#DejaVuSans-32"/>
     <use xlink:href="#DejaVuSans-20" x="63.623047"/>
     <use xlink:href="#DejaVuSans-74" x="95.410156"/>
     <use xlink:href="#DejaVuSans-72" x="134.619141"/>
     <use xlink:href="#DejaVuSans-61" x="175.732422"/>
     <use xlink:href="#DejaVuSans-6e" x="237.011719"/>
     <use xlink:href="#DejaVuSans-73" x="300.390625"/>
     <use xlink:href="#DejaVuSans-66" x="352.490234"/>
     <use xlink:href="#DejaVuSans-6f" x="387.695312"/>
     <use xlink:href="#DejaVuSans-72" x="448.876953"/>
     <use xlink:href="#DejaVuSans-6d" x="488.240234"/>
     <use xlink:href="#DejaVuSans-61" x="585.652344"/>
     <use xlink:href="#DejaVuSans-74" x="646.931641"/>
     <use xlink:href="#DejaVuSans-69" x="686.140625"/>
     <use xlink:href="#DejaVuSans-6f" x="713.923828"/>
     <use xlink:href="#DejaVuSans-6e" x="775.105469"/>
     <use xlink:href="#DejaVuSans-28" x="838.484375"/>
     <use xlink:href="#DejaVuSans-73" x="877.498047"/>
     <use xlink:href="#DejaVuSans-29" x="929.597656"/>
    </g>
   </g>
  </g>
  <g id="text_33">
   <!-- training -->
   <g transform="translate(333.282187 16.318125) scale(0.12 -0.12)">
    <defs>
     <path id="DejaVuSans-67" d="M 2906 1791 
Q 2906 2416 2648 2759 
Q 2391 3103 1925 3103 
Q 1463 3103 1205 2759 
Q 947 2416 947 1791 
Q 947 1169 1205 825 
Q 1463 481 1925 481 
Q 2391 481 2648 825 
Q 2906 1169 2906 1791 
z
M 3481 434 
Q 3481 -459 3084 -895 
Q 2688 -1331 1869 -1331 
Q 1566 -1331 1297 -1286 
Q 1028 -1241 775 -1147 
L 775 -588 
Q 1028 -725 1275 -790 
Q 1522 -856 1778 -856 
Q 2344 -856 2625 -561 
Q 2906 -266 2906 331 
L 2906 616 
Q 2728 306 2450 153 
Q 2172 0 1784 0 
Q 1141 0 747 490 
Q 353 981 353 1791 
Q 353 2603 747 3093 
Q 1141 3584 1784 3584 
Q 2172 3584 2450 3431 
Q 2728 3278 2906 2969 
L 2906 3500 
L 3481 3500 
L 3481 434 
z
" transform="scale(0.015625)"/>
    </defs>
    <use xlink:href="#DejaVuSans-74"/>
    <use xlink:href="#DejaVuSans-72" x="39.208984"/>
    <use xlink:href="#DejaVuSans-61" x="80.322266"/>
    <use xlink:href="#DejaVuSans-69" x="141.601562"/>
    <use xlink:href="#DejaVuSans-6e" x="169.384766"/>
    <use xlink:href="#DejaVuSans-69" x="232.763672"/>
    <use xlink:href="#DejaVuSans-6e" x="260.546875"/>
    <use xlink:href="#DejaVuSans-67" x="323.925781"/>
   </g>
  </g>
 </g>
 <defs>
  <clipPath id="pd3320b2d72">
   <rect x="36.465625" y="43.44" width="665.823636" height="298.76"/>
  </clipPath>
  <clipPath id="p6c01d55e8e">
   <rect x="36.465625" y="386.16" width="665.823636" height="298.76"/>
  </clipPath>
 </defs>
</svg>
